<?xml version="1.0" encoding="utf-8" standalone="no"?>
<!DOCTYPE svg PUBLIC "-//W3C//DTD SVG 1.1//EN"
  "http://www.w3.org/Graphics/SVG/1.1/DTD/svg11.dtd">
<svg xmlns:xlink="http://www.w3.org/1999/xlink" width="460.8pt" height="345.6pt" viewBox="0 0 460.8 345.6" xmlns="http://www.w3.org/2000/svg" version="1.1">
 <metadata>
  <rdf:RDF xmlns:dc="http://purl.org/dc/elements/1.1/" xmlns:cc="http://creativecommons.org/ns#" xmlns:rdf="http://www.w3.org/1999/02/22-rdf-syntax-ns#">
   <cc:Work>
    <dc:type rdf:resource="http://purl.org/dc/dcmitype/StillImage"/>
    <dc:date>2022-06-05T22:12:57.716353</dc:date>
    <dc:format>image/svg+xml</dc:format>
    <dc:creator>
     <cc:Agent>
      <dc:title>Matplotlib v3.5.1, https://matplotlib.org/</dc:title>
     </cc:Agent>
    </dc:creator>
   </cc:Work>
  </rdf:RDF>
 </metadata>
 <defs>
  <style type="text/css">*{stroke-linejoin: round; stroke-linecap: butt}</style>
 </defs>
 <g id="figure_1">
  <g id="patch_1">
   <path d="M 0 345.6 
L 460.8 345.6 
L 460.8 0 
L 0 0 
z
" style="fill: #ffffff"/>
  </g>
  <g id="axes_1">
   <g id="patch_2">
    <path d="M 73.46 263.23656 
L 443.738626 263.23656 
L 443.738626 82.36344 
L 73.46 82.36344 
z
" style="fill: #ffffff"/>
   </g>
   <g id="matplotlib.axis_1">
    <g id="xtick_1">
     <g id="line2d_1">
      <path d="M 120.1741 263.23656 
L 120.1741 82.36344 
" clip-path="url(#p0ce1d32e3e)" style="fill: none; stroke: #b0b0b0; stroke-width: 0.8; stroke-linecap: square"/>
     </g>
     <g id="line2d_2">
      <defs>
       <path id="mbc0689bbf5" d="M 0 0 
L 0 3.5 
" style="stroke: #000000; stroke-width: 0.8"/>
      </defs>
      <g>
       <use xlink:href="#mbc0689bbf5" x="120.1741" y="263.23656" style="stroke: #000000; stroke-width: 0.8"/>
      </g>
     </g>
     <g id="text_1">
      <!-- 200000 -->
      <g transform="translate(95.36035 280.114528)scale(0.13 -0.13)">
       <defs>
        <path id="DejaVuSans-32" d="M 1228 531 
L 3431 531 
L 3431 0 
L 469 0 
L 469 531 
Q 828 903 1448 1529 
Q 2069 2156 2228 2338 
Q 2531 2678 2651 2914 
Q 2772 3150 2772 3378 
Q 2772 3750 2511 3984 
Q 2250 4219 1831 4219 
Q 1534 4219 1204 4116 
Q 875 4013 500 3803 
L 500 4441 
Q 881 4594 1212 4672 
Q 1544 4750 1819 4750 
Q 2544 4750 2975 4387 
Q 3406 4025 3406 3419 
Q 3406 3131 3298 2873 
Q 3191 2616 2906 2266 
Q 2828 2175 2409 1742 
Q 1991 1309 1228 531 
z
" transform="scale(0.015625)"/>
        <path id="DejaVuSans-30" d="M 2034 4250 
Q 1547 4250 1301 3770 
Q 1056 3291 1056 2328 
Q 1056 1369 1301 889 
Q 1547 409 2034 409 
Q 2525 409 2770 889 
Q 3016 1369 3016 2328 
Q 3016 3291 2770 3770 
Q 2525 4250 2034 4250 
z
M 2034 4750 
Q 2819 4750 3233 4129 
Q 3647 3509 3647 2328 
Q 3647 1150 3233 529 
Q 2819 -91 2034 -91 
Q 1250 -91 836 529 
Q 422 1150 422 2328 
Q 422 3509 836 4129 
Q 1250 4750 2034 4750 
z
" transform="scale(0.015625)"/>
       </defs>
       <use xlink:href="#DejaVuSans-32"/>
       <use xlink:href="#DejaVuSans-30" x="63.623047"/>
       <use xlink:href="#DejaVuSans-30" x="127.246094"/>
       <use xlink:href="#DejaVuSans-30" x="190.869141"/>
       <use xlink:href="#DejaVuSans-30" x="254.492188"/>
       <use xlink:href="#DejaVuSans-30" x="318.115234"/>
      </g>
     </g>
    </g>
    <g id="xtick_2">
     <g id="line2d_3">
      <path d="M 195.5379 263.23656 
L 195.5379 82.36344 
" clip-path="url(#p0ce1d32e3e)" style="fill: none; stroke: #b0b0b0; stroke-width: 0.8; stroke-linecap: square"/>
     </g>
     <g id="line2d_4">
      <g>
       <use xlink:href="#mbc0689bbf5" x="195.5379" y="263.23656" style="stroke: #000000; stroke-width: 0.8"/>
      </g>
     </g>
     <g id="text_2">
      <!-- 300000 -->
      <g transform="translate(170.72415 280.114528)scale(0.13 -0.13)">
       <defs>
        <path id="DejaVuSans-33" d="M 2597 2516 
Q 3050 2419 3304 2112 
Q 3559 1806 3559 1356 
Q 3559 666 3084 287 
Q 2609 -91 1734 -91 
Q 1441 -91 1130 -33 
Q 819 25 488 141 
L 488 750 
Q 750 597 1062 519 
Q 1375 441 1716 441 
Q 2309 441 2620 675 
Q 2931 909 2931 1356 
Q 2931 1769 2642 2001 
Q 2353 2234 1838 2234 
L 1294 2234 
L 1294 2753 
L 1863 2753 
Q 2328 2753 2575 2939 
Q 2822 3125 2822 3475 
Q 2822 3834 2567 4026 
Q 2313 4219 1838 4219 
Q 1578 4219 1281 4162 
Q 984 4106 628 3988 
L 628 4550 
Q 988 4650 1302 4700 
Q 1616 4750 1894 4750 
Q 2613 4750 3031 4423 
Q 3450 4097 3450 3541 
Q 3450 3153 3228 2886 
Q 3006 2619 2597 2516 
z
" transform="scale(0.015625)"/>
       </defs>
       <use xlink:href="#DejaVuSans-33"/>
       <use xlink:href="#DejaVuSans-30" x="63.623047"/>
       <use xlink:href="#DejaVuSans-30" x="127.246094"/>
       <use xlink:href="#DejaVuSans-30" x="190.869141"/>
       <use xlink:href="#DejaVuSans-30" x="254.492188"/>
       <use xlink:href="#DejaVuSans-30" x="318.115234"/>
      </g>
     </g>
    </g>
    <g id="xtick_3">
     <g id="line2d_5">
      <path d="M 270.9017 263.23656 
L 270.9017 82.36344 
" clip-path="url(#p0ce1d32e3e)" style="fill: none; stroke: #b0b0b0; stroke-width: 0.8; stroke-linecap: square"/>
     </g>
     <g id="line2d_6">
      <g>
       <use xlink:href="#mbc0689bbf5" x="270.9017" y="263.23656" style="stroke: #000000; stroke-width: 0.8"/>
      </g>
     </g>
     <g id="text_3">
      <!-- 400000 -->
      <g transform="translate(246.08795 280.114528)scale(0.13 -0.13)">
       <defs>
        <path id="DejaVuSans-34" d="M 2419 4116 
L 825 1625 
L 2419 1625 
L 2419 4116 
z
M 2253 4666 
L 3047 4666 
L 3047 1625 
L 3713 1625 
L 3713 1100 
L 3047 1100 
L 3047 0 
L 2419 0 
L 2419 1100 
L 313 1100 
L 313 1709 
L 2253 4666 
z
" transform="scale(0.015625)"/>
       </defs>
       <use xlink:href="#DejaVuSans-34"/>
       <use xlink:href="#DejaVuSans-30" x="63.623047"/>
       <use xlink:href="#DejaVuSans-30" x="127.246094"/>
       <use xlink:href="#DejaVuSans-30" x="190.869141"/>
       <use xlink:href="#DejaVuSans-30" x="254.492188"/>
       <use xlink:href="#DejaVuSans-30" x="318.115234"/>
      </g>
     </g>
    </g>
    <g id="xtick_4">
     <g id="line2d_7">
      <path d="M 346.265499 263.23656 
L 346.265499 82.36344 
" clip-path="url(#p0ce1d32e3e)" style="fill: none; stroke: #b0b0b0; stroke-width: 0.8; stroke-linecap: square"/>
     </g>
     <g id="line2d_8">
      <g>
       <use xlink:href="#mbc0689bbf5" x="346.265499" y="263.23656" style="stroke: #000000; stroke-width: 0.8"/>
      </g>
     </g>
     <g id="text_4">
      <!-- 500000 -->
      <g transform="translate(321.451749 280.114528)scale(0.13 -0.13)">
       <defs>
        <path id="DejaVuSans-35" d="M 691 4666 
L 3169 4666 
L 3169 4134 
L 1269 4134 
L 1269 2991 
Q 1406 3038 1543 3061 
Q 1681 3084 1819 3084 
Q 2600 3084 3056 2656 
Q 3513 2228 3513 1497 
Q 3513 744 3044 326 
Q 2575 -91 1722 -91 
Q 1428 -91 1123 -41 
Q 819 9 494 109 
L 494 744 
Q 775 591 1075 516 
Q 1375 441 1709 441 
Q 2250 441 2565 725 
Q 2881 1009 2881 1497 
Q 2881 1984 2565 2268 
Q 2250 2553 1709 2553 
Q 1456 2553 1204 2497 
Q 953 2441 691 2322 
L 691 4666 
z
" transform="scale(0.015625)"/>
       </defs>
       <use xlink:href="#DejaVuSans-35"/>
       <use xlink:href="#DejaVuSans-30" x="63.623047"/>
       <use xlink:href="#DejaVuSans-30" x="127.246094"/>
       <use xlink:href="#DejaVuSans-30" x="190.869141"/>
       <use xlink:href="#DejaVuSans-30" x="254.492188"/>
       <use xlink:href="#DejaVuSans-30" x="318.115234"/>
      </g>
     </g>
    </g>
    <g id="xtick_5">
     <g id="line2d_9">
      <path d="M 421.629299 263.23656 
L 421.629299 82.36344 
" clip-path="url(#p0ce1d32e3e)" style="fill: none; stroke: #b0b0b0; stroke-width: 0.8; stroke-linecap: square"/>
     </g>
     <g id="line2d_10">
      <g>
       <use xlink:href="#mbc0689bbf5" x="421.629299" y="263.23656" style="stroke: #000000; stroke-width: 0.8"/>
      </g>
     </g>
     <g id="text_5">
      <!-- 600000 -->
      <g transform="translate(396.815549 280.114528)scale(0.13 -0.13)">
       <defs>
        <path id="DejaVuSans-36" d="M 2113 2584 
Q 1688 2584 1439 2293 
Q 1191 2003 1191 1497 
Q 1191 994 1439 701 
Q 1688 409 2113 409 
Q 2538 409 2786 701 
Q 3034 994 3034 1497 
Q 3034 2003 2786 2293 
Q 2538 2584 2113 2584 
z
M 3366 4563 
L 3366 3988 
Q 3128 4100 2886 4159 
Q 2644 4219 2406 4219 
Q 1781 4219 1451 3797 
Q 1122 3375 1075 2522 
Q 1259 2794 1537 2939 
Q 1816 3084 2150 3084 
Q 2853 3084 3261 2657 
Q 3669 2231 3669 1497 
Q 3669 778 3244 343 
Q 2819 -91 2113 -91 
Q 1303 -91 875 529 
Q 447 1150 447 2328 
Q 447 3434 972 4092 
Q 1497 4750 2381 4750 
Q 2619 4750 2861 4703 
Q 3103 4656 3366 4563 
z
" transform="scale(0.015625)"/>
       </defs>
       <use xlink:href="#DejaVuSans-36"/>
       <use xlink:href="#DejaVuSans-30" x="63.623047"/>
       <use xlink:href="#DejaVuSans-30" x="127.246094"/>
       <use xlink:href="#DejaVuSans-30" x="190.869141"/>
       <use xlink:href="#DejaVuSans-30" x="254.492188"/>
       <use xlink:href="#DejaVuSans-30" x="318.115234"/>
      </g>
     </g>
    </g>
    <g id="text_6">
     <!-- Number of Timesteps -->
     <g transform="translate(188.740563 296.696091)scale(0.13 -0.13)">
      <defs>
       <path id="DejaVuSans-4e" d="M 628 4666 
L 1478 4666 
L 3547 763 
L 3547 4666 
L 4159 4666 
L 4159 0 
L 3309 0 
L 1241 3903 
L 1241 0 
L 628 0 
L 628 4666 
z
" transform="scale(0.015625)"/>
       <path id="DejaVuSans-75" d="M 544 1381 
L 544 3500 
L 1119 3500 
L 1119 1403 
Q 1119 906 1312 657 
Q 1506 409 1894 409 
Q 2359 409 2629 706 
Q 2900 1003 2900 1516 
L 2900 3500 
L 3475 3500 
L 3475 0 
L 2900 0 
L 2900 538 
Q 2691 219 2414 64 
Q 2138 -91 1772 -91 
Q 1169 -91 856 284 
Q 544 659 544 1381 
z
M 1991 3584 
L 1991 3584 
z
" transform="scale(0.015625)"/>
       <path id="DejaVuSans-6d" d="M 3328 2828 
Q 3544 3216 3844 3400 
Q 4144 3584 4550 3584 
Q 5097 3584 5394 3201 
Q 5691 2819 5691 2113 
L 5691 0 
L 5113 0 
L 5113 2094 
Q 5113 2597 4934 2840 
Q 4756 3084 4391 3084 
Q 3944 3084 3684 2787 
Q 3425 2491 3425 1978 
L 3425 0 
L 2847 0 
L 2847 2094 
Q 2847 2600 2669 2842 
Q 2491 3084 2119 3084 
Q 1678 3084 1418 2786 
Q 1159 2488 1159 1978 
L 1159 0 
L 581 0 
L 581 3500 
L 1159 3500 
L 1159 2956 
Q 1356 3278 1631 3431 
Q 1906 3584 2284 3584 
Q 2666 3584 2933 3390 
Q 3200 3197 3328 2828 
z
" transform="scale(0.015625)"/>
       <path id="DejaVuSans-62" d="M 3116 1747 
Q 3116 2381 2855 2742 
Q 2594 3103 2138 3103 
Q 1681 3103 1420 2742 
Q 1159 2381 1159 1747 
Q 1159 1113 1420 752 
Q 1681 391 2138 391 
Q 2594 391 2855 752 
Q 3116 1113 3116 1747 
z
M 1159 2969 
Q 1341 3281 1617 3432 
Q 1894 3584 2278 3584 
Q 2916 3584 3314 3078 
Q 3713 2572 3713 1747 
Q 3713 922 3314 415 
Q 2916 -91 2278 -91 
Q 1894 -91 1617 61 
Q 1341 213 1159 525 
L 1159 0 
L 581 0 
L 581 4863 
L 1159 4863 
L 1159 2969 
z
" transform="scale(0.015625)"/>
       <path id="DejaVuSans-65" d="M 3597 1894 
L 3597 1613 
L 953 1613 
Q 991 1019 1311 708 
Q 1631 397 2203 397 
Q 2534 397 2845 478 
Q 3156 559 3463 722 
L 3463 178 
Q 3153 47 2828 -22 
Q 2503 -91 2169 -91 
Q 1331 -91 842 396 
Q 353 884 353 1716 
Q 353 2575 817 3079 
Q 1281 3584 2069 3584 
Q 2775 3584 3186 3129 
Q 3597 2675 3597 1894 
z
M 3022 2063 
Q 3016 2534 2758 2815 
Q 2500 3097 2075 3097 
Q 1594 3097 1305 2825 
Q 1016 2553 972 2059 
L 3022 2063 
z
" transform="scale(0.015625)"/>
       <path id="DejaVuSans-72" d="M 2631 2963 
Q 2534 3019 2420 3045 
Q 2306 3072 2169 3072 
Q 1681 3072 1420 2755 
Q 1159 2438 1159 1844 
L 1159 0 
L 581 0 
L 581 3500 
L 1159 3500 
L 1159 2956 
Q 1341 3275 1631 3429 
Q 1922 3584 2338 3584 
Q 2397 3584 2469 3576 
Q 2541 3569 2628 3553 
L 2631 2963 
z
" transform="scale(0.015625)"/>
       <path id="DejaVuSans-20" transform="scale(0.015625)"/>
       <path id="DejaVuSans-6f" d="M 1959 3097 
Q 1497 3097 1228 2736 
Q 959 2375 959 1747 
Q 959 1119 1226 758 
Q 1494 397 1959 397 
Q 2419 397 2687 759 
Q 2956 1122 2956 1747 
Q 2956 2369 2687 2733 
Q 2419 3097 1959 3097 
z
M 1959 3584 
Q 2709 3584 3137 3096 
Q 3566 2609 3566 1747 
Q 3566 888 3137 398 
Q 2709 -91 1959 -91 
Q 1206 -91 779 398 
Q 353 888 353 1747 
Q 353 2609 779 3096 
Q 1206 3584 1959 3584 
z
" transform="scale(0.015625)"/>
       <path id="DejaVuSans-66" d="M 2375 4863 
L 2375 4384 
L 1825 4384 
Q 1516 4384 1395 4259 
Q 1275 4134 1275 3809 
L 1275 3500 
L 2222 3500 
L 2222 3053 
L 1275 3053 
L 1275 0 
L 697 0 
L 697 3053 
L 147 3053 
L 147 3500 
L 697 3500 
L 697 3744 
Q 697 4328 969 4595 
Q 1241 4863 1831 4863 
L 2375 4863 
z
" transform="scale(0.015625)"/>
       <path id="DejaVuSans-54" d="M -19 4666 
L 3928 4666 
L 3928 4134 
L 2272 4134 
L 2272 0 
L 1638 0 
L 1638 4134 
L -19 4134 
L -19 4666 
z
" transform="scale(0.015625)"/>
       <path id="DejaVuSans-69" d="M 603 3500 
L 1178 3500 
L 1178 0 
L 603 0 
L 603 3500 
z
M 603 4863 
L 1178 4863 
L 1178 4134 
L 603 4134 
L 603 4863 
z
" transform="scale(0.015625)"/>
       <path id="DejaVuSans-73" d="M 2834 3397 
L 2834 2853 
Q 2591 2978 2328 3040 
Q 2066 3103 1784 3103 
Q 1356 3103 1142 2972 
Q 928 2841 928 2578 
Q 928 2378 1081 2264 
Q 1234 2150 1697 2047 
L 1894 2003 
Q 2506 1872 2764 1633 
Q 3022 1394 3022 966 
Q 3022 478 2636 193 
Q 2250 -91 1575 -91 
Q 1294 -91 989 -36 
Q 684 19 347 128 
L 347 722 
Q 666 556 975 473 
Q 1284 391 1588 391 
Q 1994 391 2212 530 
Q 2431 669 2431 922 
Q 2431 1156 2273 1281 
Q 2116 1406 1581 1522 
L 1381 1569 
Q 847 1681 609 1914 
Q 372 2147 372 2553 
Q 372 3047 722 3315 
Q 1072 3584 1716 3584 
Q 2034 3584 2315 3537 
Q 2597 3491 2834 3397 
z
" transform="scale(0.015625)"/>
       <path id="DejaVuSans-74" d="M 1172 4494 
L 1172 3500 
L 2356 3500 
L 2356 3053 
L 1172 3053 
L 1172 1153 
Q 1172 725 1289 603 
Q 1406 481 1766 481 
L 2356 481 
L 2356 0 
L 1766 0 
Q 1100 0 847 248 
Q 594 497 594 1153 
L 594 3053 
L 172 3053 
L 172 3500 
L 594 3500 
L 594 4494 
L 1172 4494 
z
" transform="scale(0.015625)"/>
       <path id="DejaVuSans-70" d="M 1159 525 
L 1159 -1331 
L 581 -1331 
L 581 3500 
L 1159 3500 
L 1159 2969 
Q 1341 3281 1617 3432 
Q 1894 3584 2278 3584 
Q 2916 3584 3314 3078 
Q 3713 2572 3713 1747 
Q 3713 922 3314 415 
Q 2916 -91 2278 -91 
Q 1894 -91 1617 61 
Q 1341 213 1159 525 
z
M 3116 1747 
Q 3116 2381 2855 2742 
Q 2594 3103 2138 3103 
Q 1681 3103 1420 2742 
Q 1159 2381 1159 1747 
Q 1159 1113 1420 752 
Q 1681 391 2138 391 
Q 2594 391 2855 752 
Q 3116 1113 3116 1747 
z
" transform="scale(0.015625)"/>
      </defs>
      <use xlink:href="#DejaVuSans-4e"/>
      <use xlink:href="#DejaVuSans-75" x="74.804688"/>
      <use xlink:href="#DejaVuSans-6d" x="138.183594"/>
      <use xlink:href="#DejaVuSans-62" x="235.595703"/>
      <use xlink:href="#DejaVuSans-65" x="299.072266"/>
      <use xlink:href="#DejaVuSans-72" x="360.595703"/>
      <use xlink:href="#DejaVuSans-20" x="401.708984"/>
      <use xlink:href="#DejaVuSans-6f" x="433.496094"/>
      <use xlink:href="#DejaVuSans-66" x="494.677734"/>
      <use xlink:href="#DejaVuSans-20" x="529.882812"/>
      <use xlink:href="#DejaVuSans-54" x="561.669922"/>
      <use xlink:href="#DejaVuSans-69" x="619.628906"/>
      <use xlink:href="#DejaVuSans-6d" x="647.412109"/>
      <use xlink:href="#DejaVuSans-65" x="744.824219"/>
      <use xlink:href="#DejaVuSans-73" x="806.347656"/>
      <use xlink:href="#DejaVuSans-74" x="858.447266"/>
      <use xlink:href="#DejaVuSans-65" x="897.65625"/>
      <use xlink:href="#DejaVuSans-70" x="959.179688"/>
      <use xlink:href="#DejaVuSans-73" x="1022.65625"/>
     </g>
    </g>
   </g>
   <g id="matplotlib.axis_2">
    <g id="ytick_1">
     <g id="line2d_11">
      <path d="M 73.46 263.23656 
L 443.738626 263.23656 
" clip-path="url(#p0ce1d32e3e)" style="fill: none; stroke: #b0b0b0; stroke-width: 0.8; stroke-linecap: square"/>
     </g>
     <g id="line2d_12">
      <defs>
       <path id="m1de33ceeb4" d="M 0 0 
L -3.5 0 
" style="stroke: #000000; stroke-width: 0.8"/>
      </defs>
      <g>
       <use xlink:href="#m1de33ceeb4" x="73.46" y="263.23656" style="stroke: #000000; stroke-width: 0.8"/>
      </g>
     </g>
     <g id="text_7">
      <!-- −200 -->
      <g transform="translate(30.752656 268.175544)scale(0.13 -0.13)">
       <defs>
        <path id="DejaVuSans-2212" d="M 678 2272 
L 4684 2272 
L 4684 1741 
L 678 1741 
L 678 2272 
z
" transform="scale(0.015625)"/>
       </defs>
       <use xlink:href="#DejaVuSans-2212"/>
       <use xlink:href="#DejaVuSans-32" x="83.789062"/>
       <use xlink:href="#DejaVuSans-30" x="147.412109"/>
       <use xlink:href="#DejaVuSans-30" x="211.035156"/>
      </g>
     </g>
    </g>
    <g id="ytick_2">
     <g id="line2d_13">
      <path d="M 73.46 218.01828 
L 443.738626 218.01828 
" clip-path="url(#p0ce1d32e3e)" style="fill: none; stroke: #b0b0b0; stroke-width: 0.8; stroke-linecap: square"/>
     </g>
     <g id="line2d_14">
      <g>
       <use xlink:href="#m1de33ceeb4" x="73.46" y="218.01828" style="stroke: #000000; stroke-width: 0.8"/>
      </g>
     </g>
     <g id="text_8">
      <!-- −150 -->
      <g transform="translate(30.752656 222.957264)scale(0.13 -0.13)">
       <defs>
        <path id="DejaVuSans-31" d="M 794 531 
L 1825 531 
L 1825 4091 
L 703 3866 
L 703 4441 
L 1819 4666 
L 2450 4666 
L 2450 531 
L 3481 531 
L 3481 0 
L 794 0 
L 794 531 
z
" transform="scale(0.015625)"/>
       </defs>
       <use xlink:href="#DejaVuSans-2212"/>
       <use xlink:href="#DejaVuSans-31" x="83.789062"/>
       <use xlink:href="#DejaVuSans-35" x="147.412109"/>
       <use xlink:href="#DejaVuSans-30" x="211.035156"/>
      </g>
     </g>
    </g>
    <g id="ytick_3">
     <g id="line2d_15">
      <path d="M 73.46 172.8 
L 443.738626 172.8 
" clip-path="url(#p0ce1d32e3e)" style="fill: none; stroke: #b0b0b0; stroke-width: 0.8; stroke-linecap: square"/>
     </g>
     <g id="line2d_16">
      <g>
       <use xlink:href="#m1de33ceeb4" x="73.46" y="172.8" style="stroke: #000000; stroke-width: 0.8"/>
      </g>
     </g>
     <g id="text_9">
      <!-- −100 -->
      <g transform="translate(30.752656 177.738984)scale(0.13 -0.13)">
       <use xlink:href="#DejaVuSans-2212"/>
       <use xlink:href="#DejaVuSans-31" x="83.789062"/>
       <use xlink:href="#DejaVuSans-30" x="147.412109"/>
       <use xlink:href="#DejaVuSans-30" x="211.035156"/>
      </g>
     </g>
    </g>
    <g id="ytick_4">
     <g id="line2d_17">
      <path d="M 73.46 127.58172 
L 443.738626 127.58172 
" clip-path="url(#p0ce1d32e3e)" style="fill: none; stroke: #b0b0b0; stroke-width: 0.8; stroke-linecap: square"/>
     </g>
     <g id="line2d_18">
      <g>
       <use xlink:href="#m1de33ceeb4" x="73.46" y="127.58172" style="stroke: #000000; stroke-width: 0.8"/>
      </g>
     </g>
     <g id="text_10">
      <!-- −50 -->
      <g transform="translate(39.023906 132.520705)scale(0.13 -0.13)">
       <use xlink:href="#DejaVuSans-2212"/>
       <use xlink:href="#DejaVuSans-35" x="83.789062"/>
       <use xlink:href="#DejaVuSans-30" x="147.412109"/>
      </g>
     </g>
    </g>
    <g id="ytick_5">
     <g id="line2d_19">
      <path d="M 73.46 82.36344 
L 443.738626 82.36344 
" clip-path="url(#p0ce1d32e3e)" style="fill: none; stroke: #b0b0b0; stroke-width: 0.8; stroke-linecap: square"/>
     </g>
     <g id="line2d_20">
      <g>
       <use xlink:href="#m1de33ceeb4" x="73.46" y="82.36344" style="stroke: #000000; stroke-width: 0.8"/>
      </g>
     </g>
     <g id="text_11">
      <!-- 0 -->
      <g transform="translate(58.18875 87.302425)scale(0.13 -0.13)">
       <use xlink:href="#DejaVuSans-30"/>
      </g>
     </g>
    </g>
    <g id="text_12">
     <!-- Rewards -->
     <g transform="translate(24.049062 200.393516)rotate(-90)scale(0.13 -0.13)">
      <defs>
       <path id="DejaVuSans-52" d="M 2841 2188 
Q 3044 2119 3236 1894 
Q 3428 1669 3622 1275 
L 4263 0 
L 3584 0 
L 2988 1197 
Q 2756 1666 2539 1819 
Q 2322 1972 1947 1972 
L 1259 1972 
L 1259 0 
L 628 0 
L 628 4666 
L 2053 4666 
Q 2853 4666 3247 4331 
Q 3641 3997 3641 3322 
Q 3641 2881 3436 2590 
Q 3231 2300 2841 2188 
z
M 1259 4147 
L 1259 2491 
L 2053 2491 
Q 2509 2491 2742 2702 
Q 2975 2913 2975 3322 
Q 2975 3731 2742 3939 
Q 2509 4147 2053 4147 
L 1259 4147 
z
" transform="scale(0.015625)"/>
       <path id="DejaVuSans-77" d="M 269 3500 
L 844 3500 
L 1563 769 
L 2278 3500 
L 2956 3500 
L 3675 769 
L 4391 3500 
L 4966 3500 
L 4050 0 
L 3372 0 
L 2619 2869 
L 1863 0 
L 1184 0 
L 269 3500 
z
" transform="scale(0.015625)"/>
       <path id="DejaVuSans-61" d="M 2194 1759 
Q 1497 1759 1228 1600 
Q 959 1441 959 1056 
Q 959 750 1161 570 
Q 1363 391 1709 391 
Q 2188 391 2477 730 
Q 2766 1069 2766 1631 
L 2766 1759 
L 2194 1759 
z
M 3341 1997 
L 3341 0 
L 2766 0 
L 2766 531 
Q 2569 213 2275 61 
Q 1981 -91 1556 -91 
Q 1019 -91 701 211 
Q 384 513 384 1019 
Q 384 1609 779 1909 
Q 1175 2209 1959 2209 
L 2766 2209 
L 2766 2266 
Q 2766 2663 2505 2880 
Q 2244 3097 1772 3097 
Q 1472 3097 1187 3025 
Q 903 2953 641 2809 
L 641 3341 
Q 956 3463 1253 3523 
Q 1550 3584 1831 3584 
Q 2591 3584 2966 3190 
Q 3341 2797 3341 1997 
z
" transform="scale(0.015625)"/>
       <path id="DejaVuSans-64" d="M 2906 2969 
L 2906 4863 
L 3481 4863 
L 3481 0 
L 2906 0 
L 2906 525 
Q 2725 213 2448 61 
Q 2172 -91 1784 -91 
Q 1150 -91 751 415 
Q 353 922 353 1747 
Q 353 2572 751 3078 
Q 1150 3584 1784 3584 
Q 2172 3584 2448 3432 
Q 2725 3281 2906 2969 
z
M 947 1747 
Q 947 1113 1208 752 
Q 1469 391 1925 391 
Q 2381 391 2643 752 
Q 2906 1113 2906 1747 
Q 2906 2381 2643 2742 
Q 2381 3103 1925 3103 
Q 1469 3103 1208 2742 
Q 947 2381 947 1747 
z
" transform="scale(0.015625)"/>
      </defs>
      <use xlink:href="#DejaVuSans-52"/>
      <use xlink:href="#DejaVuSans-65" x="64.982422"/>
      <use xlink:href="#DejaVuSans-77" x="126.505859"/>
      <use xlink:href="#DejaVuSans-61" x="208.292969"/>
      <use xlink:href="#DejaVuSans-72" x="269.572266"/>
      <use xlink:href="#DejaVuSans-64" x="308.935547"/>
      <use xlink:href="#DejaVuSans-73" x="372.412109"/>
     </g>
    </g>
   </g>
   <g id="line2d_21">
    <path d="M 110.295277 346.6 
L 110.533563 237.337775 
L 110.795829 237.034494 
L 110.92244 236.704114 
L 111.306796 236.35553 
L 111.576598 236.30423 
L 111.828313 235.528005 
L 111.907445 235.533425 
L 112.449311 235.21059 
L 112.69349 235.183372 
L 112.959524 234.650712 
L 115.276207 232.360153 
L 115.517371 231.84392 
L 115.582938 231.838481 
L 116.162485 230.974577 
L 116.222776 231.138175 
L 116.305677 230.915609 
L 116.499362 230.716514 
L 116.73525 230.72256 
L 116.910848 230.550604 
L 116.989226 229.318214 
L 117.103026 229.421692 
L 117.354741 228.524599 
L 117.438395 228.050168 
L 117.596658 227.998652 
L 117.714226 227.641998 
L 118.170931 227.455518 
L 118.225193 227.206774 
L 118.523633 226.97833 
L 118.70526 226.684229 
L 118.960743 226.43009 
L 118.961497 226.339228 
L 119.281793 225.491683 
L 119.481507 225.533316 
L 119.651829 225.399098 
L 119.825166 225.420819 
L 119.942734 224.842202 
L 120.376075 224.425897 
L 120.441642 223.908492 
L 121.272905 223.724906 
L 121.4274 223.341201 
L 121.650477 223.031224 
L 121.713029 222.813134 
L 121.808741 221.382989 
L 122.06121 221.0971 
L 122.558611 220.880036 
L 122.810326 220.399839 
L 123.205986 220.237362 
L 123.299437 220.209583 
L 123.367265 220.389999 
L 124.011625 219.666066 
L 124.191745 218.746994 
L 124.478127 218.470306 
L 124.715523 217.94575 
L 124.921266 217.270996 
L 125.340289 216.758959 
L 125.417914 216.41848 
L 125.683194 216.084827 
L 125.812066 215.214763 
L 126.057752 213.79528 
L 126.292887 213.522314 
L 126.532544 213.371462 
L 126.64559 212.674918 
L 126.815158 212.381863 
L 126.944784 212.419122 
L 127.048786 212.131598 
L 127.111338 211.512449 
L 127.257544 211.225918 
L 127.332154 211.639435 
L 127.401489 211.623117 
L 127.705205 211.310556 
L 127.804685 211.230869 
L 127.85744 211.344603 
L 128.07298 211.341326 
L 128.140054 211.42575 
L 128.700007 210.885473 
L 128.834155 210.929516 
L 128.889924 211.003365 
L 129.140885 209.221769 
L 130.003047 208.46076 
L 130.176384 208.463765 
L 130.700162 208.062947 
L 130.997096 206.563837 
L 131.269913 206.224415 
L 131.516352 205.635285 
L 132.10419 204.704274 
L 132.633244 204.403491 
L 132.91209 204.127301 
L 132.912843 203.716266 
L 133.410245 203.033148 
L 133.710192 203.332165 
L 134.038779 203.133504 
L 134.961232 202.293777 
L 135.073524 201.526174 
L 135.666637 201.017997 
L 135.803045 200.774466 
L 135.927395 200.279806 
L 136.219053 200.574447 
L 136.534074 200.31454 
L 136.772224 200.362411 
L 137.527369 199.528387 
L 137.580877 199.020879 
L 137.945638 198.699085 
L 138.136308 198.314476 
L 138.810814 198.012647 
L 139.100965 197.925642 
L 139.201199 197.504045 
L 139.257722 197.561693 
L 139.513205 196.746983 
L 139.767181 196.432612 
L 139.964634 196.179898 
L 139.965388 195.914446 
L 140.179421 195.790063 
L 140.180175 195.399896 
L 140.249509 195.419119 
L 140.302264 195.301236 
L 140.924769 195.20596 
L 141.119208 195.375526 
L 141.713828 195.054677 
L 141.921832 195.141361 
L 142.253433 195.001559 
L 142.494597 195.071891 
L 142.950548 195.016532 
L 143.243713 193.749807 
L 144.650755 192.520792 
L 144.791686 192.578857 
L 144.851223 192.824805 
L 144.946935 192.763678 
L 145.068271 192.780896 
L 145.332798 192.571147 
L 145.484279 192.467347 
L 145.950027 192.575666 
L 146.145973 192.619393 
L 146.291425 192.95624 
L 146.4105 192.916908 
L 146.498676 192.730458 
L 146.616997 191.681757 
L 147.105354 191.64233 
L 147.219154 191.563017 
L 147.37591 190.163133 
L 147.694699 190.122992 
L 147.849195 190.190246 
L 148.000676 189.969717 
L 148.077547 190.154608 
L 148.436279 189.85751 
L 149.418269 189.433444 
L 149.518503 189.302553 
L 149.58407 189.792897 
L 149.632302 189.720977 
L 149.738565 189.659327 
L 149.975208 189.047693 
L 151.002416 188.557907 
L 152.912889 187.601006 
L 153.341709 187.543334 
L 153.629598 187.3427 
L 154.298075 187.290989 
L 154.543008 187.19902 
L 154.668865 186.961658 
L 154.839187 186.898961 
L 154.950726 186.625419 
L 155.077337 186.660566 
L 155.134613 186.819781 
L 155.135367 186.81809 
L 155.483548 186.564274 
L 155.489577 184.704956 
L 156.067617 184.801098 
L 156.211562 184.784651 
L 156.368319 184.025494 
L 156.608729 183.97665 
L 156.89888 183.633129 
L 157.14532 183.593823 
L 157.470891 183.524142 
L 157.531182 177.55978 
L 157.715824 177.51912 
L 157.856754 177.298953 
L 158.225283 177.046827 
L 159.075387 177.0689 
L 159.388146 176.915381 
L 159.672268 176.907981 
L 159.874243 174.123765 
L 160.0001 173.343928 
L 160.081493 173.50381 
L 160.319643 173.30175 
L 161.635495 172.359476 
L 162.240666 172.30151 
L 162.24971 171.956598 
L 162.406466 171.975883 
L 162.613717 171.312422 
L 163.149554 171.169675 
L 163.702724 170.901366 
L 164.041107 170.885915 
L 164.381752 170.55949 
L 164.540016 170.583398 
L 164.592017 170.297888 
L 165.383337 170.408425 
L 165.518238 170.170935 
L 166.056335 169.984202 
L 166.264339 170.092818 
L 166.609506 169.943717 
L 166.714261 167.815296 
L 166.812988 167.952466 
L 167.085805 167.654795 
L 167.406101 167.413098 
L 167.640482 167.372101 
L 167.776137 167.442763 
L 167.968315 167.342508 
L 168.207218 167.35404 
L 168.35267 167.22514 
L 168.6074 167.419764 
L 168.701605 167.141064 
L 168.821433 166.90718 
L 170.095081 166.285723 
L 170.694977 166.150197 
L 170.695731 165.99976 
L 171.427513 165.974346 
L 171.936219 165.690932 
L 172.11257 165.884206 
L 172.311531 165.729328 
L 172.43362 165.650963 
L 172.434374 165.242299 
L 172.48336 165.27434 
L 172.617508 165.333007 
L 172.745626 165.537513 
L 173.317637 165.257039 
L 173.717819 165.074509 
L 173.894924 164.887003 
L 175.075121 164.254055 
L 175.115818 164.416804 
L 175.670495 164.195123 
L 175.834788 163.617938 
L 176.023951 163.509557 
L 176.286971 162.60158 
L 176.32616 162.629938 
L 176.722574 162.321977 
L 176.767792 161.983105 
L 178.207994 161.211013 
L 178.328576 161.386644 
L 179.121404 160.930993 
L 179.229927 160.461795 
L 179.546455 159.838565 
L 179.59921 159.294763 
L 180.070234 158.992929 
L 180.175743 158.917633 
L 180.251861 159.082299 
L 181.33107 158.307748 
L 181.503653 158.307043 
L 181.560176 158.562122 
L 181.738788 158.479226 
L 181.833747 158.016894 
L 181.89253 158.031461 
L 182.365062 157.915341 
L 182.390685 157.622064 
L 182.462281 157.63246 
L 182.598689 157.509132 
L 182.957421 157.391212 
L 183.654536 156.658846 
L 183.823351 156.554818 
L 183.902483 156.363804 
L 185.488891 156.055985 
L 185.58611 155.240282 
L 185.855159 155.171279 
L 185.874754 155.00908 
L 186.155107 154.961721 
L 187.245621 154.320006 
L 187.41519 153.522482 
L 187.603599 153.468922 
L 187.889982 153.172041 
L 188.157523 153.059868 
L 188.608952 152.908616 
L 188.687331 152.731675 
L 189.280444 152.458784 
L 189.487694 152.523088 
L 189.762772 152.163859 
L 190.250376 152.012169 
L 192.319112 151.015922 
L 192.761498 150.706935 
L 193.193332 150.944985 
L 193.279247 150.904525 
L 193.969579 150.811964 
L 194.026102 150.64499 
L 194.101466 150.702529 
L 194.378051 150.402829 
L 194.662173 150.678674 
L 194.740551 150.58316 
L 194.856611 150.625639 
L 194.884496 150.444891 
L 194.933482 150.46063 
L 195.134704 150.682464 
L 195.155806 150.514738 
L 195.40526 150.547702 
L 195.619293 150.298456 
L 195.667526 150.373841 
L 195.782832 150.151308 
L 195.853674 150.148582 
L 196.148347 149.859408 
L 196.621631 150.139632 
L 197.630753 149.859079 
L 197.875685 150.088351 
L 198.030181 150.047029 
L 198.361028 149.728901 
L 199.395773 149.686681 
L 200.00622 149.492887 
L 200.052945 149.615668 
L 200.058221 149.520009 
L 200.77267 149.480185 
L 200.973137 149.622271 
L 201.791588 149.658991 
L 202.063651 149.794194 
L 202.509051 149.651144 
L 202.729867 149.775302 
L 202.823319 149.867728 
L 203.105933 149.877812 
L 203.415678 149.984202 
L 203.470694 149.591338 
L 203.784961 149.465758 
L 203.988443 149.385314 
L 204.05627 149.170551 
L 204.229607 149.246878 
L 205.993874 148.514292 
L 206.785193 148.372601 
L 207.769445 147.629538 
L 207.829736 147.631572 
L 208.352007 147.258602 
L 209.239792 147.278666 
L 209.354345 147.320737 
L 209.637713 147.160595 
L 209.706294 146.103006 
L 210.531528 146.076911 
L 210.875941 145.923077 
L 210.951304 146.034603 
L 212.029007 145.245128 
L 212.20159 145.27569 
L 212.92659 145.08227 
L 214.118091 145.042825 
L 214.509983 144.965046 
L 215.104603 144.982391 
L 215.300549 145.009671 
L 215.314868 144.865256 
L 215.56583 145.0281 
L 215.879343 144.94737 
L 215.974302 144.768252 
L 216.941973 144.190551 
L 218.557773 143.751821 
L 219.130537 143.467023 
L 219.393557 143.51009 
L 219.731187 143.533229 
L 219.871364 143.686899 
L 220.087658 143.797583 
L 220.394388 143.686402 
L 220.850339 143.507437 
L 221.001067 143.866702 
L 222.356862 143.654241 
L 224.699922 143.645453 
L 224.947116 143.650253 
L 225.077495 143.323337 
L 225.139293 143.394501 
L 225.510837 143.810147 
L 225.831887 143.891155 
L 225.993165 143.926417 
L 226.054963 144.123196 
L 226.480769 144.33209 
L 226.547843 144.084284 
L 226.735499 143.909626 
L 226.898284 143.350023 
L 226.9533 143.372073 
L 227.581834 143.171729 
L 227.847115 143.393187 
L 228.078481 143.315199 
L 228.362603 143.199817 
L 228.419879 142.831392 
L 228.712291 142.726513 
L 229.195373 142.759099 
L 229.285056 143.171105 
L 229.5428 143.213045 
L 229.795269 143.292365 
L 230.003273 143.180804 
L 230.220321 143.235761 
L 230.49992 143.210199 
L 230.707171 142.963338 
L 230.759172 143.05031 
L 232.143605 142.759474 
L 232.191084 142.790135 
L 232.376479 142.68801 
L 232.687731 142.704032 
L 233.237887 142.672915 
L 233.341136 142.040789 
L 234.518318 141.257471 
L 235.465641 141.216308 
L 235.628427 141.149627 
L 235.731675 141.368174 
L 236.026348 141.417344 
L 236.465719 141.27932 
L 237.064107 141.237731 
L 237.72128 140.924721 
L 238.061924 140.67617 
L 238.233 140.767992 
L 238.295552 140.800069 
L 238.3159 140.61208 
L 238.521643 140.324638 
L 238.649762 140.656181 
L 238.91052 140.448109 
L 239.172786 140.172793 
L 239.263977 140.189933 
L 239.576736 140.05208 
L 239.630245 140.180639 
L 240.00631 140.040743 
L 240.359766 140.073743 
L 240.503711 140.123344 
L 240.778789 140.041047 
L 241.053867 139.971264 
L 241.183493 139.750096 
L 241.529412 139.755986 
L 243.037442 139.043609 
L 243.905633 138.373144 
L 244.155087 138.338283 
L 244.22819 138.561479 
L 244.540196 138.617022 
L 244.676605 138.65177 
L 245.076786 138.513594 
L 245.226007 138.171656 
L 245.498824 138.016986 
L 245.552332 138.183771 
L 246.424291 137.866375 
L 246.721978 137.859859 
L 247.537414 137.841659 
L 248.151629 137.670527 
L 248.436505 137.584738 
L 248.698771 137.356193 
L 249.861634 136.939717 
L 249.924186 136.832109 
L 250.121639 136.831191 
L 250.122393 136.786511 
L 250.182684 136.834129 
L 250.695158 136.465826 
L 250.77429 136.608035 
L 251.12021 136.524725 
L 251.473666 136.501688 
L 251.474419 136.466762 
L 251.842195 136.419794 
L 251.955994 136.526769 
L 253.507735 136.49717 
L 253.682579 136.776116 
L 254.308852 136.825705 
L 254.597495 136.94615 
L 254.598249 136.912439 
L 255.443831 136.441485 
L 255.81236 136.563392 
L 256.379849 136.466103 
L 256.847105 136.594098 
L 257.39726 136.680003 
L 257.86527 136.635174 
L 258.308409 136.519552 
L 258.309162 136.523209 
L 258.372468 136.744649 
L 258.735721 136.896447 
L 258.804303 136.728002 
L 258.939957 136.872278 
L 259.629536 136.659544 
L 260.060617 136.497853 
L 260.339463 136.655729 
L 260.346246 136.55678 
L 260.493959 136.606612 
L 260.622831 136.138925 
L 260.898662 136.088446 
L 263.112851 134.388338 
L 263.445959 134.271513 
L 263.507004 134.413443 
L 263.507757 134.399757 
L 263.690891 134.362421 
L 263.906432 134.442548 
L 264.110668 134.350894 
L 264.269685 134.412077 
L 264.504067 134.320325 
L 265.091904 134.250695 
L 265.457419 133.509118 
L 266.796633 132.811627 
L 266.964695 132.946188 
L 267.19983 132.982631 
L 267.679897 132.825865 
L 267.741695 132.68961 
L 268.031846 132.516431 
L 268.085354 132.637295 
L 268.593306 132.838879 
L 269.191695 132.591999 
L 269.260276 132.934153 
L 269.524803 132.971956 
L 270.053857 132.840484 
L 270.127713 132.966615 
L 270.132989 132.834974 
L 270.16012 132.711497 
L 270.556533 132.658924 
L 270.616824 132.80571 
L 270.911497 132.86482 
L 271.286055 132.757476 
L 271.348607 132.891864 
L 271.524958 132.882213 
L 271.579974 133.035664 
L 272.079636 132.849717 
L 272.246943 133.015899 
L 272.39541 133.102927 
L 272.434599 132.903058 
L 272.664459 132.834836 
L 272.839303 132.93703 
L 273.302037 132.841889 
L 273.417343 132.142689 
L 273.483663 132.206176 
L 274.287041 132.273431 
L 274.453595 131.757505 
L 274.798762 131.86531 
L 275.281844 131.826542 
L 275.33083 131.994546 
L 276.596942 131.033762 
L 277.250346 130.678958 
L 277.701022 130.603652 
L 277.784675 130.780509 
L 277.916562 130.737732 
L 278.420746 130.305138 
L 278.801333 130.365189 
L 278.867653 130.42724 
L 279.96495 129.955702 
L 280.053126 130.012884 
L 280.369654 129.915386 
L 281.475994 129.08302 
L 281.68852 129.475914 
L 281.958323 129.352805 
L 282.089456 129.399348 
L 282.63735 129.126079 
L 282.714975 129.266776 
L 283.456555 129.226811 
L 283.83262 128.962922 
L 284.024044 128.928207 
L 284.341326 129.212529 
L 285.038441 128.708015 
L 285.089689 128.520858 
L 285.388129 128.366975 
L 287.003175 126.960834 
L 288.001746 126.032261 
L 288.323549 126.001483 
L 288.839038 126.801411 
L 289.287452 126.784992 
L 289.350758 126.85863 
L 289.536906 126.371939 
L 289.695924 126.534819 
L 289.799926 126.595633 
L 290.063699 126.441524 
L 290.230253 126.789922 
L 290.720872 126.667546 
L 290.97334 126.251645 
L 291.033631 126.264492 
L 292.010346 125.862025 
L 292.151277 125.906866 
L 293.402316 125.749899 
L 293.49652 126.00789 
L 293.863542 125.971124 
L 293.941167 125.994643 
L 294.057227 125.485714 
L 294.117518 125.534343 
L 294.374509 125.582114 
L 294.882461 125.558534 
L 294.887736 125.474454 
L 295.016608 125.40601 
L 295.336904 125.630308 
L 295.824508 125.663715 
L 295.880277 125.732139 
L 296.842673 125.871521 
L 297.462917 125.49478 
L 297.832953 125.51224 
L 297.858577 125.340937 
L 297.92339 125.552311 
L 298.710942 125.249126 
L 298.786305 125.234581 
L 298.949845 125.340441 
L 299.359824 125.242229 
L 299.625105 125.286852 
L 299.793166 125.229639 
L 300.823389 124.35672 
L 301.2296 124.655694 
L 301.236383 124.518895 
L 301.433082 124.442028 
L 301.564969 124.19608 
L 301.675754 124.129116 
L 301.719465 124.207225 
L 302.285447 124.104083 
L 302.636642 123.945569 
L 302.984069 123.833178 
L 303.415904 123.844027 
L 303.743736 123.742668 
L 304.030872 123.515964 
L 304.229079 123.836822 
L 304.439344 123.806895 
L 304.639812 123.658207 
L 304.7099 123.736606 
L 305.529105 123.643372 
L 305.660991 123.718776 
L 306.106391 123.762691 
L 306.181755 123.858626 
L 306.439499 123.525769 
L 306.498283 123.587268 
L 306.551038 123.590839 
L 306.900726 123.399756 
L 307.08386 124.291074 
L 307.919644 124.013991 
L 308.240694 124.014904 
L 308.301739 124.064405 
L 308.612238 123.981441 
L 308.712472 124.021474 
L 308.995839 123.906147 
L 309.342513 123.969363 
L 309.506806 124.052133 
L 309.729883 123.950192 
L 309.840668 124.109174 
L 310.268734 123.997348 
L 310.420215 124.041482 
L 310.598827 123.963697 
L 310.732221 124.084132 
L 310.732975 123.932835 
L 311.12562 123.824065 
L 311.308001 123.814557 
L 311.868707 123.937735 
L 311.948593 123.847894 
L 312.140771 123.891731 
L 313.761092 122.90243 
L 313.965328 123.58188 
L 314.225333 123.621415 
L 315.575099 122.776596 
L 316.028036 122.789899 
L 316.303113 122.727666 
L 316.303867 122.907521 
L 316.578191 122.81114 
L 316.646019 122.881305 
L 317.071824 122.743952 
L 317.141159 122.667657 
L 317.649111 122.375539 
L 317.793056 122.398691 
L 317.885 122.169153 
L 319.368913 121.156744 
L 320.050955 121.110099 
L 320.286844 121.17366 
L 320.518964 121.174347 
L 320.818912 121.152317 
L 320.819666 121.031537 
L 321.09399 120.771453 
L 321.913948 120.539994 
L 322.455814 120.570127 
L 323.503371 120.517647 
L 323.915611 120.238532 
L 323.982685 120.353312 
L 325.468105 120.176065 
L 325.646717 120.294453 
L 326.211946 120.137593 
L 326.33705 120.299476 
L 326.582736 120.378894 
L 326.833697 120.636223 
L 326.945989 121.133589 
L 327.181878 121.175484 
L 327.453188 121.055965 
L 327.771223 121.43073 
L 328.728343 120.920868 
L 329.09235 121.057146 
L 329.166207 121.19563 
L 329.34708 121.194683 
L 331.368337 119.756812 
L 331.427121 120.354502 
L 331.492687 120.04022 
L 333.054225 118.687871 
L 333.76792 117.897277 
L 334.547936 117.950435 
L 334.738606 117.851341 
L 334.794375 117.948402 
L 335.455316 118.035434 
L 336.015269 118.342929 
L 336.172026 118.780957 
L 336.608382 118.444134 
L 336.764385 118.663706 
L 337.055289 118.63407 
L 337.104276 118.754953 
L 337.936292 118.035371 
L 338.073454 118.059833 
L 338.184993 118.49823 
L 338.536188 118.499764 
L 338.714046 119.47554 
L 338.769816 119.478719 
L 339.314696 119.094877 
L 339.512149 119.139698 
L 340.058537 119.077913 
L 340.253729 118.960289 
L 340.31402 119.086962 
L 341.220646 118.825494 
L 342.797257 118.160959 
L 343.909627 117.095907 
L 344.01589 117.266119 
L 344.315084 117.411898 
L 344.340708 117.291479 
L 344.994866 117.241546 
L 345.193072 117.306041 
L 345.58421 117.125852 
L 345.829143 117.187758 
L 345.856274 117.053756 
L 346.038654 117.311297 
L 346.159236 117.161107 
L 346.72145 117.316852 
L 347.00105 117.163026 
L 347.077921 117.340199 
L 347.438914 117.26997 
L 347.445696 117.133245 
L 348.59198 116.263652 
L 348.592733 116.351654 
L 348.78265 116.29202 
L 350.148996 115.297457 
L 350.357 115.196221 
L 350.427088 115.328379 
L 350.650919 115.130225 
L 350.717239 115.069698 
L 350.820487 115.166755 
L 351.825087 115.256689 
L 352.330024 114.868178 
L 352.705336 114.987084 
L 353.432597 114.655665 
L 353.63834 114.73267 
L 353.847097 114.701396 
L 353.978984 114.762685 
L 354.513313 114.432935 
L 354.751463 114.484304 
L 354.81703 114.620735 
L 355.0906 114.469835 
L 355.138833 114.640915 
L 355.687481 114.738793 
L 355.95653 114.658171 
L 356.238391 114.748911 
L 356.819446 114.562371 
L 356.879737 114.648697 
L 357.331166 114.533087 
L 357.526358 114.640533 
L 357.723811 114.636853 
L 358.154139 114.714819 
L 358.251358 114.708711 
L 358.467652 114.554367 
L 359.292132 114.346833 
L 359.66669 114.604007 
L 359.990754 114.476881 
L 360.115858 114.683475 
L 360.604969 114.509714 
L 361.079008 114.693706 
L 361.868067 114.391184 
L 361.922329 114.47798 
L 362.226045 114.294287 
L 362.391845 115.248991 
L 362.597588 115.2405 
L 362.657879 115.355045 
L 363.203513 115.219546 
L 364.526901 115.006274 
L 364.775602 114.865738 
L 364.832125 114.874592 
L 365.251148 114.638142 
L 365.434282 115.289122 
L 365.502863 115.223172 
L 366.247457 115.451788 
L 366.520274 115.355385 
L 366.735814 115.574195 
L 367.537685 115.41428 
L 367.677862 115.610946 
L 367.872301 115.376647 
L 368.105175 115.681435 
L 368.166973 116.338749 
L 368.238569 116.175355 
L 368.445065 116.125029 
L 369.165543 115.892199 
L 369.223573 115.901979 
L 369.427809 115.639598 
L 370.064633 115.622869 
L 370.112113 115.783069 
L 370.850678 115.351823 
L 371.021754 115.481641 
L 371.121234 115.351072 
L 371.492024 115.200343 
L 372.223806 114.80432 
L 372.269025 114.642982 
L 372.869674 114.494829 
L 372.946545 114.500707 
L 373.620298 114.204826 
L 373.878795 114.054531 
L 374.065698 114.073846 
L 374.317413 113.653858 
L 374.487735 113.59566 
L 374.666347 113.717488 
L 374.83893 113.828954 
L 375.38155 113.699984 
L 375.558654 113.677239 
L 375.559408 113.568681 
L 375.772688 113.575119 
L 376.078665 113.233347 
L 376.740359 113.042814 
L 377.610057 113.026151 
L 377.711045 112.584532 
L 377.94618 112.674447 
L 378.326767 112.447224 
L 378.560395 112.353118 
L 378.876169 112.339445 
L 379.133159 112.355714 
L 379.836304 112.03798 
L 379.9908 112.091784 
L 380.255326 111.881931 
L 380.799453 112.10336 
L 381.159692 111.979969 
L 381.35187 111.551399 
L 381.564396 111.323487 
L 381.92162 111.287066 
L 381.992462 111.36773 
L 382.501168 111.273965 
L 383.223907 110.809144 
L 383.662524 110.762549 
L 383.708496 110.724391 
L 384.299348 110.70523 
L 384.919592 110.659727 
L 385.556416 110.572493 
L 385.799088 110.467626 
L 385.866161 111.288287 
L 386.074165 110.955798 
L 386.177414 111.029513 
L 387.022996 111.087137 
L 387.561093 110.976812 
L 387.617616 111.026236 
L 387.956753 110.746879 
L 388.025334 110.868932 
L 389.112834 110.510427 
L 389.212314 110.661628 
L 389.644149 110.828107 
L 389.788093 110.634353 
L 390.339003 110.818533 
L 390.851477 110.552808 
L 391.332298 110.756024 
L 391.399371 111.064403 
L 391.806336 111.180234 
L 391.871903 111.27262 
L 392.140198 111.177864 
L 392.192199 111.260209 
L 392.51777 111.115784 
L 393.047578 111.148288 
L 393.239755 111.186032 
L 393.388976 111.318322 
L 394.134324 111.623875 
L 394.234558 111.443721 
L 394.288066 111.48954 
L 394.34685 111.529727 
L 394.728191 112.172513 
L 394.893991 111.967011 
L 395.206751 111.890572 
L 395.426059 111.773065 
L 395.513481 111.981891 
L 395.833024 111.917485 
L 395.922707 112.055246 
L 396.234713 112.007096 
L 396.350773 112.14605 
L 396.622836 112.191876 
L 396.729099 112.298674 
L 396.774318 112.365807 
L 397.39833 112.215307 
L 397.454099 112.452939 
L 398.284608 112.373335 
L 398.329827 112.54068 
L 399.518314 111.608816 
L 399.569561 111.717438 
L 400.024758 111.777895 
L 400.513116 111.896706 
L 400.703786 111.742918 
L 400.769353 111.909906 
L 401.067793 111.882336 
L 401.767169 111.96234 
L 402.452226 111.993678 
L 403.676888 111.838388 
L 403.878109 111.542073 
L 403.949705 111.517547 
L 405.517272 110.292035 
L 406.068181 110.084341 
L 406.180474 110.724188 
L 406.773587 110.603178 
L 406.822573 110.687644 
L 406.994403 110.589499 
L 407.055447 110.846307 
L 407.127043 110.674204 
L 407.745026 110.435179 
L 407.794012 110.576426 
L 407.92816 110.55372 
L 408.099989 110.043188 
L 408.146715 110.115031 
L 408.374314 109.929904 
L 408.500925 110.008456 
L 408.536346 110.163628 
L 410.793492 108.662937 
L 412.114619 107.591873 
L 412.275898 108.454169 
L 412.394219 109.461977 
L 412.521584 109.468466 
L 412.568309 109.553141 
L 412.809473 109.424464 
L 412.960955 109.461458 
L 412.961708 109.388097 
L 413.029536 109.742307 
L 413.443283 109.731863 
L 414.27756 109.095488 
L 416.511343 107.389017 
L 417.614669 108.365449 
L 418.066098 108.180898 
L 418.25903 108.34442 
L 418.840838 108.17899 
L 419.455053 108.005491 
L 420.172517 107.496582 
L 420.320983 107.609487 
L 420.500349 107.676052 
L 421.265292 107.128765 
L 421.897594 106.588641 
L 422.40856 106.984879 
L 422.743176 106.9975 
L 423.568409 106.491889 
L 423.656585 106.223371 
L 424.296424 105.941478 
L 424.416252 106.093927 
L 424.48408 106.438018 
L 424.742577 106.35978 
L 424.948321 106.419816 
L 425.01238 106.558191 
L 425.340966 106.60115 
L 426.231012 105.77617 
L 426.573164 106.104282 
L 426.907779 106.08872 
L 426.907779 106.08872 
" clip-path="url(#p0ce1d32e3e)" style="fill: none; stroke: #0000ff; stroke-width: 2; stroke-linecap: square"/>
   </g>
   <g id="patch_3">
    <path d="M 73.46 263.23656 
L 73.46 82.36344 
" style="fill: none; stroke: #000000; stroke-width: 0.8; stroke-linejoin: miter; stroke-linecap: square"/>
   </g>
   <g id="patch_4">
    <path d="M 443.738626 263.23656 
L 443.738626 82.36344 
" style="fill: none; stroke: #000000; stroke-width: 0.8; stroke-linejoin: miter; stroke-linecap: square"/>
   </g>
   <g id="patch_5">
    <path d="M 73.46 263.23656 
L 443.738626 263.23656 
" style="fill: none; stroke: #000000; stroke-width: 0.8; stroke-linejoin: miter; stroke-linecap: square"/>
   </g>
   <g id="patch_6">
    <path d="M 73.46 82.36344 
L 443.738626 82.36344 
" style="fill: none; stroke: #000000; stroke-width: 0.8; stroke-linejoin: miter; stroke-linecap: square"/>
   </g>
   <g id="text_13">
    <!-- Learning Curve Smoothed -->
    <g transform="translate(156.917782 76.36344)scale(0.156 -0.156)">
     <defs>
      <path id="DejaVuSans-4c" d="M 628 4666 
L 1259 4666 
L 1259 531 
L 3531 531 
L 3531 0 
L 628 0 
L 628 4666 
z
" transform="scale(0.015625)"/>
      <path id="DejaVuSans-6e" d="M 3513 2113 
L 3513 0 
L 2938 0 
L 2938 2094 
Q 2938 2591 2744 2837 
Q 2550 3084 2163 3084 
Q 1697 3084 1428 2787 
Q 1159 2491 1159 1978 
L 1159 0 
L 581 0 
L 581 3500 
L 1159 3500 
L 1159 2956 
Q 1366 3272 1645 3428 
Q 1925 3584 2291 3584 
Q 2894 3584 3203 3211 
Q 3513 2838 3513 2113 
z
" transform="scale(0.015625)"/>
      <path id="DejaVuSans-67" d="M 2906 1791 
Q 2906 2416 2648 2759 
Q 2391 3103 1925 3103 
Q 1463 3103 1205 2759 
Q 947 2416 947 1791 
Q 947 1169 1205 825 
Q 1463 481 1925 481 
Q 2391 481 2648 825 
Q 2906 1169 2906 1791 
z
M 3481 434 
Q 3481 -459 3084 -895 
Q 2688 -1331 1869 -1331 
Q 1566 -1331 1297 -1286 
Q 1028 -1241 775 -1147 
L 775 -588 
Q 1028 -725 1275 -790 
Q 1522 -856 1778 -856 
Q 2344 -856 2625 -561 
Q 2906 -266 2906 331 
L 2906 616 
Q 2728 306 2450 153 
Q 2172 0 1784 0 
Q 1141 0 747 490 
Q 353 981 353 1791 
Q 353 2603 747 3093 
Q 1141 3584 1784 3584 
Q 2172 3584 2450 3431 
Q 2728 3278 2906 2969 
L 2906 3500 
L 3481 3500 
L 3481 434 
z
" transform="scale(0.015625)"/>
      <path id="DejaVuSans-43" d="M 4122 4306 
L 4122 3641 
Q 3803 3938 3442 4084 
Q 3081 4231 2675 4231 
Q 1875 4231 1450 3742 
Q 1025 3253 1025 2328 
Q 1025 1406 1450 917 
Q 1875 428 2675 428 
Q 3081 428 3442 575 
Q 3803 722 4122 1019 
L 4122 359 
Q 3791 134 3420 21 
Q 3050 -91 2638 -91 
Q 1578 -91 968 557 
Q 359 1206 359 2328 
Q 359 3453 968 4101 
Q 1578 4750 2638 4750 
Q 3056 4750 3426 4639 
Q 3797 4528 4122 4306 
z
" transform="scale(0.015625)"/>
      <path id="DejaVuSans-76" d="M 191 3500 
L 800 3500 
L 1894 563 
L 2988 3500 
L 3597 3500 
L 2284 0 
L 1503 0 
L 191 3500 
z
" transform="scale(0.015625)"/>
      <path id="DejaVuSans-53" d="M 3425 4513 
L 3425 3897 
Q 3066 4069 2747 4153 
Q 2428 4238 2131 4238 
Q 1616 4238 1336 4038 
Q 1056 3838 1056 3469 
Q 1056 3159 1242 3001 
Q 1428 2844 1947 2747 
L 2328 2669 
Q 3034 2534 3370 2195 
Q 3706 1856 3706 1288 
Q 3706 609 3251 259 
Q 2797 -91 1919 -91 
Q 1588 -91 1214 -16 
Q 841 59 441 206 
L 441 856 
Q 825 641 1194 531 
Q 1563 422 1919 422 
Q 2459 422 2753 634 
Q 3047 847 3047 1241 
Q 3047 1584 2836 1778 
Q 2625 1972 2144 2069 
L 1759 2144 
Q 1053 2284 737 2584 
Q 422 2884 422 3419 
Q 422 4038 858 4394 
Q 1294 4750 2059 4750 
Q 2388 4750 2728 4690 
Q 3069 4631 3425 4513 
z
" transform="scale(0.015625)"/>
      <path id="DejaVuSans-68" d="M 3513 2113 
L 3513 0 
L 2938 0 
L 2938 2094 
Q 2938 2591 2744 2837 
Q 2550 3084 2163 3084 
Q 1697 3084 1428 2787 
Q 1159 2491 1159 1978 
L 1159 0 
L 581 0 
L 581 4863 
L 1159 4863 
L 1159 2956 
Q 1366 3272 1645 3428 
Q 1925 3584 2291 3584 
Q 2894 3584 3203 3211 
Q 3513 2838 3513 2113 
z
" transform="scale(0.015625)"/>
     </defs>
     <use xlink:href="#DejaVuSans-4c"/>
     <use xlink:href="#DejaVuSans-65" x="53.962891"/>
     <use xlink:href="#DejaVuSans-61" x="115.486328"/>
     <use xlink:href="#DejaVuSans-72" x="176.765625"/>
     <use xlink:href="#DejaVuSans-6e" x="216.128906"/>
     <use xlink:href="#DejaVuSans-69" x="279.507812"/>
     <use xlink:href="#DejaVuSans-6e" x="307.291016"/>
     <use xlink:href="#DejaVuSans-67" x="370.669922"/>
     <use xlink:href="#DejaVuSans-20" x="434.146484"/>
     <use xlink:href="#DejaVuSans-43" x="465.933594"/>
     <use xlink:href="#DejaVuSans-75" x="535.757812"/>
     <use xlink:href="#DejaVuSans-72" x="599.136719"/>
     <use xlink:href="#DejaVuSans-76" x="640.25"/>
     <use xlink:href="#DejaVuSans-65" x="699.429688"/>
     <use xlink:href="#DejaVuSans-20" x="760.953125"/>
     <use xlink:href="#DejaVuSans-53" x="792.740234"/>
     <use xlink:href="#DejaVuSans-6d" x="856.216797"/>
     <use xlink:href="#DejaVuSans-6f" x="953.628906"/>
     <use xlink:href="#DejaVuSans-6f" x="1014.810547"/>
     <use xlink:href="#DejaVuSans-74" x="1075.992188"/>
     <use xlink:href="#DejaVuSans-68" x="1115.201172"/>
     <use xlink:href="#DejaVuSans-65" x="1178.580078"/>
     <use xlink:href="#DejaVuSans-64" x="1240.103516"/>
    </g>
   </g>
   <g id="legend_1">
    <g id="patch_7">
     <path d="M 289.908001 256.73656 
L 434.638626 256.73656 
Q 437.238626 256.73656 437.238626 254.13656 
L 437.238626 236.354997 
Q 437.238626 233.754997 434.638626 233.754997 
L 289.908001 233.754997 
Q 287.308001 233.754997 287.308001 236.354997 
L 287.308001 254.13656 
Q 287.308001 256.73656 289.908001 256.73656 
z
" style="fill: #ffffff; opacity: 0.8; stroke: #cccccc; stroke-linejoin: miter"/>
    </g>
    <g id="line2d_22">
     <path d="M 292.508001 244.282966 
L 305.508001 244.282966 
L 318.508001 244.282966 
" style="fill: none; stroke: #0000ff; stroke-width: 2; stroke-linecap: square"/>
    </g>
    <g id="text_14">
     <!-- Filter size: 1000 -->
     <g transform="translate(328.908001 248.832966)scale(0.13 -0.13)">
      <defs>
       <path id="DejaVuSans-46" d="M 628 4666 
L 3309 4666 
L 3309 4134 
L 1259 4134 
L 1259 2759 
L 3109 2759 
L 3109 2228 
L 1259 2228 
L 1259 0 
L 628 0 
L 628 4666 
z
" transform="scale(0.015625)"/>
       <path id="DejaVuSans-6c" d="M 603 4863 
L 1178 4863 
L 1178 0 
L 603 0 
L 603 4863 
z
" transform="scale(0.015625)"/>
       <path id="DejaVuSans-7a" d="M 353 3500 
L 3084 3500 
L 3084 2975 
L 922 459 
L 3084 459 
L 3084 0 
L 275 0 
L 275 525 
L 2438 3041 
L 353 3041 
L 353 3500 
z
" transform="scale(0.015625)"/>
       <path id="DejaVuSans-3a" d="M 750 794 
L 1409 794 
L 1409 0 
L 750 0 
L 750 794 
z
M 750 3309 
L 1409 3309 
L 1409 2516 
L 750 2516 
L 750 3309 
z
" transform="scale(0.015625)"/>
      </defs>
      <use xlink:href="#DejaVuSans-46"/>
      <use xlink:href="#DejaVuSans-69" x="50.269531"/>
      <use xlink:href="#DejaVuSans-6c" x="78.052734"/>
      <use xlink:href="#DejaVuSans-74" x="105.835938"/>
      <use xlink:href="#DejaVuSans-65" x="145.044922"/>
      <use xlink:href="#DejaVuSans-72" x="206.568359"/>
      <use xlink:href="#DejaVuSans-20" x="247.681641"/>
      <use xlink:href="#DejaVuSans-73" x="279.46875"/>
      <use xlink:href="#DejaVuSans-69" x="331.568359"/>
      <use xlink:href="#DejaVuSans-7a" x="359.351562"/>
      <use xlink:href="#DejaVuSans-65" x="411.841797"/>
      <use xlink:href="#DejaVuSans-3a" x="473.365234"/>
      <use xlink:href="#DejaVuSans-20" x="507.056641"/>
      <use xlink:href="#DejaVuSans-31" x="538.84375"/>
      <use xlink:href="#DejaVuSans-30" x="602.466797"/>
      <use xlink:href="#DejaVuSans-30" x="666.089844"/>
      <use xlink:href="#DejaVuSans-30" x="729.712891"/>
     </g>
    </g>
   </g>
  </g>
 </g>
 <defs>
  <clipPath id="p0ce1d32e3e">
   <rect x="73.46" y="82.36344" width="370.278626" height="180.873119"/>
  </clipPath>
 </defs>
</svg>
