<?xml version="1.0" encoding="utf-8" standalone="no"?>
<!DOCTYPE svg PUBLIC "-//W3C//DTD SVG 1.1//EN"
  "http://www.w3.org/Graphics/SVG/1.1/DTD/svg11.dtd">
<svg xmlns:xlink="http://www.w3.org/1999/xlink" width="447.165312pt" height="179.785636pt" viewBox="0 0 447.165312 179.785636" xmlns="http://www.w3.org/2000/svg" version="1.1">
 <metadata>
  <rdf:RDF xmlns:dc="http://purl.org/dc/elements/1.1/" xmlns:cc="http://creativecommons.org/ns#" xmlns:rdf="http://www.w3.org/1999/02/22-rdf-syntax-ns#">
   <cc:Work>
    <dc:type rdf:resource="http://purl.org/dc/dcmitype/StillImage"/>
    <dc:date>2022-06-05T22:17:53.910601</dc:date>
    <dc:format>image/svg+xml</dc:format>
    <dc:creator>
     <cc:Agent>
      <dc:title>Matplotlib v3.5.1, https://matplotlib.org/</dc:title>
     </cc:Agent>
    </dc:creator>
   </cc:Work>
  </rdf:RDF>
 </metadata>
 <defs>
  <style type="text/css">*{stroke-linejoin: round; stroke-linecap: butt}</style>
 </defs>
 <g id="figure_1">
  <g id="patch_1">
   <path d="M 0 179.785636 
L 447.165312 179.785636 
L 447.165312 0 
L 0 0 
z
" style="fill: #ffffff"/>
  </g>
  <g id="axes_1">
   <g id="patch_2">
    <path d="M 55.595313 136.422511 
L 439.965312 136.422511 
L 439.965312 25.053562 
L 55.595313 25.053562 
z
" style="fill: #ffffff"/>
   </g>
   <g id="matplotlib.axis_1">
    <g id="xtick_1">
     <g id="line2d_1">
      <path d="M 92.786346 136.422511 
L 92.786346 25.053562 
" clip-path="url(#p93b7f30c7e)" style="fill: none; stroke: #b0b0b0; stroke-width: 0.8; stroke-linecap: square"/>
     </g>
     <g id="line2d_2">
      <defs>
       <path id="mf290a8d83f" d="M 0 0 
L 0 3.5 
" style="stroke: #000000; stroke-width: 0.8"/>
      </defs>
      <g>
       <use xlink:href="#mf290a8d83f" x="92.786346" y="136.422511" style="stroke: #000000; stroke-width: 0.8"/>
      </g>
     </g>
     <g id="text_1">
      <!-- 0.4 -->
      <g transform="translate(82.449315 153.30048)scale(0.13 -0.13)">
       <defs>
        <path id="DejaVuSans-30" d="M 2034 4250 
Q 1547 4250 1301 3770 
Q 1056 3291 1056 2328 
Q 1056 1369 1301 889 
Q 1547 409 2034 409 
Q 2525 409 2770 889 
Q 3016 1369 3016 2328 
Q 3016 3291 2770 3770 
Q 2525 4250 2034 4250 
z
M 2034 4750 
Q 2819 4750 3233 4129 
Q 3647 3509 3647 2328 
Q 3647 1150 3233 529 
Q 2819 -91 2034 -91 
Q 1250 -91 836 529 
Q 422 1150 422 2328 
Q 422 3509 836 4129 
Q 1250 4750 2034 4750 
z
" transform="scale(0.015625)"/>
        <path id="DejaVuSans-2e" d="M 684 794 
L 1344 794 
L 1344 0 
L 684 0 
L 684 794 
z
" transform="scale(0.015625)"/>
        <path id="DejaVuSans-34" d="M 2419 4116 
L 825 1625 
L 2419 1625 
L 2419 4116 
z
M 2253 4666 
L 3047 4666 
L 3047 1625 
L 3713 1625 
L 3713 1100 
L 3047 1100 
L 3047 0 
L 2419 0 
L 2419 1100 
L 313 1100 
L 313 1709 
L 2253 4666 
z
" transform="scale(0.015625)"/>
       </defs>
       <use xlink:href="#DejaVuSans-30"/>
       <use xlink:href="#DejaVuSans-2e" x="63.623047"/>
       <use xlink:href="#DejaVuSans-34" x="95.410156"/>
      </g>
     </g>
    </g>
    <g id="xtick_2">
     <g id="line2d_3">
      <path d="M 151.088892 136.422511 
L 151.088892 25.053562 
" clip-path="url(#p93b7f30c7e)" style="fill: none; stroke: #b0b0b0; stroke-width: 0.8; stroke-linecap: square"/>
     </g>
     <g id="line2d_4">
      <g>
       <use xlink:href="#mf290a8d83f" x="151.088892" y="136.422511" style="stroke: #000000; stroke-width: 0.8"/>
      </g>
     </g>
     <g id="text_2">
      <!-- 0.6 -->
      <g transform="translate(140.751861 153.30048)scale(0.13 -0.13)">
       <defs>
        <path id="DejaVuSans-36" d="M 2113 2584 
Q 1688 2584 1439 2293 
Q 1191 2003 1191 1497 
Q 1191 994 1439 701 
Q 1688 409 2113 409 
Q 2538 409 2786 701 
Q 3034 994 3034 1497 
Q 3034 2003 2786 2293 
Q 2538 2584 2113 2584 
z
M 3366 4563 
L 3366 3988 
Q 3128 4100 2886 4159 
Q 2644 4219 2406 4219 
Q 1781 4219 1451 3797 
Q 1122 3375 1075 2522 
Q 1259 2794 1537 2939 
Q 1816 3084 2150 3084 
Q 2853 3084 3261 2657 
Q 3669 2231 3669 1497 
Q 3669 778 3244 343 
Q 2819 -91 2113 -91 
Q 1303 -91 875 529 
Q 447 1150 447 2328 
Q 447 3434 972 4092 
Q 1497 4750 2381 4750 
Q 2619 4750 2861 4703 
Q 3103 4656 3366 4563 
z
" transform="scale(0.015625)"/>
       </defs>
       <use xlink:href="#DejaVuSans-30"/>
       <use xlink:href="#DejaVuSans-2e" x="63.623047"/>
       <use xlink:href="#DejaVuSans-36" x="95.410156"/>
      </g>
     </g>
    </g>
    <g id="xtick_3">
     <g id="line2d_5">
      <path d="M 209.391438 136.422511 
L 209.391438 25.053562 
" clip-path="url(#p93b7f30c7e)" style="fill: none; stroke: #b0b0b0; stroke-width: 0.8; stroke-linecap: square"/>
     </g>
     <g id="line2d_6">
      <g>
       <use xlink:href="#mf290a8d83f" x="209.391438" y="136.422511" style="stroke: #000000; stroke-width: 0.8"/>
      </g>
     </g>
     <g id="text_3">
      <!-- 0.8 -->
      <g transform="translate(199.054407 153.30048)scale(0.13 -0.13)">
       <defs>
        <path id="DejaVuSans-38" d="M 2034 2216 
Q 1584 2216 1326 1975 
Q 1069 1734 1069 1313 
Q 1069 891 1326 650 
Q 1584 409 2034 409 
Q 2484 409 2743 651 
Q 3003 894 3003 1313 
Q 3003 1734 2745 1975 
Q 2488 2216 2034 2216 
z
M 1403 2484 
Q 997 2584 770 2862 
Q 544 3141 544 3541 
Q 544 4100 942 4425 
Q 1341 4750 2034 4750 
Q 2731 4750 3128 4425 
Q 3525 4100 3525 3541 
Q 3525 3141 3298 2862 
Q 3072 2584 2669 2484 
Q 3125 2378 3379 2068 
Q 3634 1759 3634 1313 
Q 3634 634 3220 271 
Q 2806 -91 2034 -91 
Q 1263 -91 848 271 
Q 434 634 434 1313 
Q 434 1759 690 2068 
Q 947 2378 1403 2484 
z
M 1172 3481 
Q 1172 3119 1398 2916 
Q 1625 2713 2034 2713 
Q 2441 2713 2670 2916 
Q 2900 3119 2900 3481 
Q 2900 3844 2670 4047 
Q 2441 4250 2034 4250 
Q 1625 4250 1398 4047 
Q 1172 3844 1172 3481 
z
" transform="scale(0.015625)"/>
       </defs>
       <use xlink:href="#DejaVuSans-30"/>
       <use xlink:href="#DejaVuSans-2e" x="63.623047"/>
       <use xlink:href="#DejaVuSans-38" x="95.410156"/>
      </g>
     </g>
    </g>
    <g id="xtick_4">
     <g id="line2d_7">
      <path d="M 267.693984 136.422511 
L 267.693984 25.053562 
" clip-path="url(#p93b7f30c7e)" style="fill: none; stroke: #b0b0b0; stroke-width: 0.8; stroke-linecap: square"/>
     </g>
     <g id="line2d_8">
      <g>
       <use xlink:href="#mf290a8d83f" x="267.693984" y="136.422511" style="stroke: #000000; stroke-width: 0.8"/>
      </g>
     </g>
     <g id="text_4">
      <!-- 1.0 -->
      <g transform="translate(257.356953 153.30048)scale(0.13 -0.13)">
       <defs>
        <path id="DejaVuSans-31" d="M 794 531 
L 1825 531 
L 1825 4091 
L 703 3866 
L 703 4441 
L 1819 4666 
L 2450 4666 
L 2450 531 
L 3481 531 
L 3481 0 
L 794 0 
L 794 531 
z
" transform="scale(0.015625)"/>
       </defs>
       <use xlink:href="#DejaVuSans-31"/>
       <use xlink:href="#DejaVuSans-2e" x="63.623047"/>
       <use xlink:href="#DejaVuSans-30" x="95.410156"/>
      </g>
     </g>
    </g>
    <g id="xtick_5">
     <g id="line2d_9">
      <path d="M 325.99653 136.422511 
L 325.99653 25.053562 
" clip-path="url(#p93b7f30c7e)" style="fill: none; stroke: #b0b0b0; stroke-width: 0.8; stroke-linecap: square"/>
     </g>
     <g id="line2d_10">
      <g>
       <use xlink:href="#mf290a8d83f" x="325.99653" y="136.422511" style="stroke: #000000; stroke-width: 0.8"/>
      </g>
     </g>
     <g id="text_5">
      <!-- 1.2 -->
      <g transform="translate(315.659499 153.30048)scale(0.13 -0.13)">
       <defs>
        <path id="DejaVuSans-32" d="M 1228 531 
L 3431 531 
L 3431 0 
L 469 0 
L 469 531 
Q 828 903 1448 1529 
Q 2069 2156 2228 2338 
Q 2531 2678 2651 2914 
Q 2772 3150 2772 3378 
Q 2772 3750 2511 3984 
Q 2250 4219 1831 4219 
Q 1534 4219 1204 4116 
Q 875 4013 500 3803 
L 500 4441 
Q 881 4594 1212 4672 
Q 1544 4750 1819 4750 
Q 2544 4750 2975 4387 
Q 3406 4025 3406 3419 
Q 3406 3131 3298 2873 
Q 3191 2616 2906 2266 
Q 2828 2175 2409 1742 
Q 1991 1309 1228 531 
z
" transform="scale(0.015625)"/>
       </defs>
       <use xlink:href="#DejaVuSans-31"/>
       <use xlink:href="#DejaVuSans-2e" x="63.623047"/>
       <use xlink:href="#DejaVuSans-32" x="95.410156"/>
      </g>
     </g>
    </g>
    <g id="xtick_6">
     <g id="line2d_11">
      <path d="M 384.299076 136.422511 
L 384.299076 25.053562 
" clip-path="url(#p93b7f30c7e)" style="fill: none; stroke: #b0b0b0; stroke-width: 0.8; stroke-linecap: square"/>
     </g>
     <g id="line2d_12">
      <g>
       <use xlink:href="#mf290a8d83f" x="384.299076" y="136.422511" style="stroke: #000000; stroke-width: 0.8"/>
      </g>
     </g>
     <g id="text_6">
      <!-- 1.4 -->
      <g transform="translate(373.962045 153.30048)scale(0.13 -0.13)">
       <use xlink:href="#DejaVuSans-31"/>
       <use xlink:href="#DejaVuSans-2e" x="63.623047"/>
       <use xlink:href="#DejaVuSans-34" x="95.410156"/>
      </g>
     </g>
    </g>
    <g id="text_7">
     <!-- Number of Timesteps -->
     <g transform="translate(177.921562 169.882042)scale(0.13 -0.13)">
      <defs>
       <path id="DejaVuSans-4e" d="M 628 4666 
L 1478 4666 
L 3547 763 
L 3547 4666 
L 4159 4666 
L 4159 0 
L 3309 0 
L 1241 3903 
L 1241 0 
L 628 0 
L 628 4666 
z
" transform="scale(0.015625)"/>
       <path id="DejaVuSans-75" d="M 544 1381 
L 544 3500 
L 1119 3500 
L 1119 1403 
Q 1119 906 1312 657 
Q 1506 409 1894 409 
Q 2359 409 2629 706 
Q 2900 1003 2900 1516 
L 2900 3500 
L 3475 3500 
L 3475 0 
L 2900 0 
L 2900 538 
Q 2691 219 2414 64 
Q 2138 -91 1772 -91 
Q 1169 -91 856 284 
Q 544 659 544 1381 
z
M 1991 3584 
L 1991 3584 
z
" transform="scale(0.015625)"/>
       <path id="DejaVuSans-6d" d="M 3328 2828 
Q 3544 3216 3844 3400 
Q 4144 3584 4550 3584 
Q 5097 3584 5394 3201 
Q 5691 2819 5691 2113 
L 5691 0 
L 5113 0 
L 5113 2094 
Q 5113 2597 4934 2840 
Q 4756 3084 4391 3084 
Q 3944 3084 3684 2787 
Q 3425 2491 3425 1978 
L 3425 0 
L 2847 0 
L 2847 2094 
Q 2847 2600 2669 2842 
Q 2491 3084 2119 3084 
Q 1678 3084 1418 2786 
Q 1159 2488 1159 1978 
L 1159 0 
L 581 0 
L 581 3500 
L 1159 3500 
L 1159 2956 
Q 1356 3278 1631 3431 
Q 1906 3584 2284 3584 
Q 2666 3584 2933 3390 
Q 3200 3197 3328 2828 
z
" transform="scale(0.015625)"/>
       <path id="DejaVuSans-62" d="M 3116 1747 
Q 3116 2381 2855 2742 
Q 2594 3103 2138 3103 
Q 1681 3103 1420 2742 
Q 1159 2381 1159 1747 
Q 1159 1113 1420 752 
Q 1681 391 2138 391 
Q 2594 391 2855 752 
Q 3116 1113 3116 1747 
z
M 1159 2969 
Q 1341 3281 1617 3432 
Q 1894 3584 2278 3584 
Q 2916 3584 3314 3078 
Q 3713 2572 3713 1747 
Q 3713 922 3314 415 
Q 2916 -91 2278 -91 
Q 1894 -91 1617 61 
Q 1341 213 1159 525 
L 1159 0 
L 581 0 
L 581 4863 
L 1159 4863 
L 1159 2969 
z
" transform="scale(0.015625)"/>
       <path id="DejaVuSans-65" d="M 3597 1894 
L 3597 1613 
L 953 1613 
Q 991 1019 1311 708 
Q 1631 397 2203 397 
Q 2534 397 2845 478 
Q 3156 559 3463 722 
L 3463 178 
Q 3153 47 2828 -22 
Q 2503 -91 2169 -91 
Q 1331 -91 842 396 
Q 353 884 353 1716 
Q 353 2575 817 3079 
Q 1281 3584 2069 3584 
Q 2775 3584 3186 3129 
Q 3597 2675 3597 1894 
z
M 3022 2063 
Q 3016 2534 2758 2815 
Q 2500 3097 2075 3097 
Q 1594 3097 1305 2825 
Q 1016 2553 972 2059 
L 3022 2063 
z
" transform="scale(0.015625)"/>
       <path id="DejaVuSans-72" d="M 2631 2963 
Q 2534 3019 2420 3045 
Q 2306 3072 2169 3072 
Q 1681 3072 1420 2755 
Q 1159 2438 1159 1844 
L 1159 0 
L 581 0 
L 581 3500 
L 1159 3500 
L 1159 2956 
Q 1341 3275 1631 3429 
Q 1922 3584 2338 3584 
Q 2397 3584 2469 3576 
Q 2541 3569 2628 3553 
L 2631 2963 
z
" transform="scale(0.015625)"/>
       <path id="DejaVuSans-20" transform="scale(0.015625)"/>
       <path id="DejaVuSans-6f" d="M 1959 3097 
Q 1497 3097 1228 2736 
Q 959 2375 959 1747 
Q 959 1119 1226 758 
Q 1494 397 1959 397 
Q 2419 397 2687 759 
Q 2956 1122 2956 1747 
Q 2956 2369 2687 2733 
Q 2419 3097 1959 3097 
z
M 1959 3584 
Q 2709 3584 3137 3096 
Q 3566 2609 3566 1747 
Q 3566 888 3137 398 
Q 2709 -91 1959 -91 
Q 1206 -91 779 398 
Q 353 888 353 1747 
Q 353 2609 779 3096 
Q 1206 3584 1959 3584 
z
" transform="scale(0.015625)"/>
       <path id="DejaVuSans-66" d="M 2375 4863 
L 2375 4384 
L 1825 4384 
Q 1516 4384 1395 4259 
Q 1275 4134 1275 3809 
L 1275 3500 
L 2222 3500 
L 2222 3053 
L 1275 3053 
L 1275 0 
L 697 0 
L 697 3053 
L 147 3053 
L 147 3500 
L 697 3500 
L 697 3744 
Q 697 4328 969 4595 
Q 1241 4863 1831 4863 
L 2375 4863 
z
" transform="scale(0.015625)"/>
       <path id="DejaVuSans-54" d="M -19 4666 
L 3928 4666 
L 3928 4134 
L 2272 4134 
L 2272 0 
L 1638 0 
L 1638 4134 
L -19 4134 
L -19 4666 
z
" transform="scale(0.015625)"/>
       <path id="DejaVuSans-69" d="M 603 3500 
L 1178 3500 
L 1178 0 
L 603 0 
L 603 3500 
z
M 603 4863 
L 1178 4863 
L 1178 4134 
L 603 4134 
L 603 4863 
z
" transform="scale(0.015625)"/>
       <path id="DejaVuSans-73" d="M 2834 3397 
L 2834 2853 
Q 2591 2978 2328 3040 
Q 2066 3103 1784 3103 
Q 1356 3103 1142 2972 
Q 928 2841 928 2578 
Q 928 2378 1081 2264 
Q 1234 2150 1697 2047 
L 1894 2003 
Q 2506 1872 2764 1633 
Q 3022 1394 3022 966 
Q 3022 478 2636 193 
Q 2250 -91 1575 -91 
Q 1294 -91 989 -36 
Q 684 19 347 128 
L 347 722 
Q 666 556 975 473 
Q 1284 391 1588 391 
Q 1994 391 2212 530 
Q 2431 669 2431 922 
Q 2431 1156 2273 1281 
Q 2116 1406 1581 1522 
L 1381 1569 
Q 847 1681 609 1914 
Q 372 2147 372 2553 
Q 372 3047 722 3315 
Q 1072 3584 1716 3584 
Q 2034 3584 2315 3537 
Q 2597 3491 2834 3397 
z
" transform="scale(0.015625)"/>
       <path id="DejaVuSans-74" d="M 1172 4494 
L 1172 3500 
L 2356 3500 
L 2356 3053 
L 1172 3053 
L 1172 1153 
Q 1172 725 1289 603 
Q 1406 481 1766 481 
L 2356 481 
L 2356 0 
L 1766 0 
Q 1100 0 847 248 
Q 594 497 594 1153 
L 594 3053 
L 172 3053 
L 172 3500 
L 594 3500 
L 594 4494 
L 1172 4494 
z
" transform="scale(0.015625)"/>
       <path id="DejaVuSans-70" d="M 1159 525 
L 1159 -1331 
L 581 -1331 
L 581 3500 
L 1159 3500 
L 1159 2969 
Q 1341 3281 1617 3432 
Q 1894 3584 2278 3584 
Q 2916 3584 3314 3078 
Q 3713 2572 3713 1747 
Q 3713 922 3314 415 
Q 2916 -91 2278 -91 
Q 1894 -91 1617 61 
Q 1341 213 1159 525 
z
M 3116 1747 
Q 3116 2381 2855 2742 
Q 2594 3103 2138 3103 
Q 1681 3103 1420 2742 
Q 1159 2381 1159 1747 
Q 1159 1113 1420 752 
Q 1681 391 2138 391 
Q 2594 391 2855 752 
Q 3116 1113 3116 1747 
z
" transform="scale(0.015625)"/>
      </defs>
      <use xlink:href="#DejaVuSans-4e"/>
      <use xlink:href="#DejaVuSans-75" x="74.804688"/>
      <use xlink:href="#DejaVuSans-6d" x="138.183594"/>
      <use xlink:href="#DejaVuSans-62" x="235.595703"/>
      <use xlink:href="#DejaVuSans-65" x="299.072266"/>
      <use xlink:href="#DejaVuSans-72" x="360.595703"/>
      <use xlink:href="#DejaVuSans-20" x="401.708984"/>
      <use xlink:href="#DejaVuSans-6f" x="433.496094"/>
      <use xlink:href="#DejaVuSans-66" x="494.677734"/>
      <use xlink:href="#DejaVuSans-20" x="529.882812"/>
      <use xlink:href="#DejaVuSans-54" x="561.669922"/>
      <use xlink:href="#DejaVuSans-69" x="619.628906"/>
      <use xlink:href="#DejaVuSans-6d" x="647.412109"/>
      <use xlink:href="#DejaVuSans-65" x="744.824219"/>
      <use xlink:href="#DejaVuSans-73" x="806.347656"/>
      <use xlink:href="#DejaVuSans-74" x="858.447266"/>
      <use xlink:href="#DejaVuSans-65" x="897.65625"/>
      <use xlink:href="#DejaVuSans-70" x="959.179688"/>
      <use xlink:href="#DejaVuSans-73" x="1022.65625"/>
     </g>
    </g>
    <g id="text_8">
     <!-- 1e6 -->
     <g transform="translate(415.42375 168.882042)scale(0.13 -0.13)">
      <use xlink:href="#DejaVuSans-31"/>
      <use xlink:href="#DejaVuSans-65" x="63.623047"/>
      <use xlink:href="#DejaVuSans-36" x="125.146484"/>
     </g>
    </g>
   </g>
   <g id="matplotlib.axis_2">
    <g id="ytick_1">
     <g id="line2d_13">
      <path d="M 55.595313 119.88739 
L 439.965312 119.88739 
" clip-path="url(#p93b7f30c7e)" style="fill: none; stroke: #b0b0b0; stroke-width: 0.8; stroke-linecap: square"/>
     </g>
     <g id="line2d_14">
      <defs>
       <path id="mdbbe3c14ab" d="M 0 0 
L -3.5 0 
" style="stroke: #000000; stroke-width: 0.8"/>
      </defs>
      <g>
       <use xlink:href="#mdbbe3c14ab" x="55.595313" y="119.88739" style="stroke: #000000; stroke-width: 0.8"/>
      </g>
     </g>
     <g id="text_9">
      <!-- 60 -->
      <g transform="translate(32.052813 124.826374)scale(0.13 -0.13)">
       <use xlink:href="#DejaVuSans-36"/>
       <use xlink:href="#DejaVuSans-30" x="63.623047"/>
      </g>
     </g>
    </g>
    <g id="ytick_2">
     <g id="line2d_15">
      <path d="M 55.595313 90.736117 
L 439.965312 90.736117 
" clip-path="url(#p93b7f30c7e)" style="fill: none; stroke: #b0b0b0; stroke-width: 0.8; stroke-linecap: square"/>
     </g>
     <g id="line2d_16">
      <g>
       <use xlink:href="#mdbbe3c14ab" x="55.595313" y="90.736117" style="stroke: #000000; stroke-width: 0.8"/>
      </g>
     </g>
     <g id="text_10">
      <!-- 80 -->
      <g transform="translate(32.052813 95.675101)scale(0.13 -0.13)">
       <use xlink:href="#DejaVuSans-38"/>
       <use xlink:href="#DejaVuSans-30" x="63.623047"/>
      </g>
     </g>
    </g>
    <g id="ytick_3">
     <g id="line2d_17">
      <path d="M 55.595313 61.584844 
L 439.965312 61.584844 
" clip-path="url(#p93b7f30c7e)" style="fill: none; stroke: #b0b0b0; stroke-width: 0.8; stroke-linecap: square"/>
     </g>
     <g id="line2d_18">
      <g>
       <use xlink:href="#mdbbe3c14ab" x="55.595313" y="61.584844" style="stroke: #000000; stroke-width: 0.8"/>
      </g>
     </g>
     <g id="text_11">
      <!-- 100 -->
      <g transform="translate(23.781563 66.523828)scale(0.13 -0.13)">
       <use xlink:href="#DejaVuSans-31"/>
       <use xlink:href="#DejaVuSans-30" x="63.623047"/>
       <use xlink:href="#DejaVuSans-30" x="127.246094"/>
      </g>
     </g>
    </g>
    <g id="ytick_4">
     <g id="line2d_19">
      <path d="M 55.595313 32.433571 
L 439.965312 32.433571 
" clip-path="url(#p93b7f30c7e)" style="fill: none; stroke: #b0b0b0; stroke-width: 0.8; stroke-linecap: square"/>
     </g>
     <g id="line2d_20">
      <g>
       <use xlink:href="#mdbbe3c14ab" x="55.595313" y="32.433571" style="stroke: #000000; stroke-width: 0.8"/>
      </g>
     </g>
     <g id="text_12">
      <!-- 120 -->
      <g transform="translate(23.781563 37.372555)scale(0.13 -0.13)">
       <use xlink:href="#DejaVuSans-31"/>
       <use xlink:href="#DejaVuSans-32" x="63.623047"/>
       <use xlink:href="#DejaVuSans-30" x="127.246094"/>
      </g>
     </g>
    </g>
    <g id="text_13">
     <!-- Rewards -->
     <g transform="translate(17.077969 108.331552)rotate(-90)scale(0.13 -0.13)">
      <defs>
       <path id="DejaVuSans-52" d="M 2841 2188 
Q 3044 2119 3236 1894 
Q 3428 1669 3622 1275 
L 4263 0 
L 3584 0 
L 2988 1197 
Q 2756 1666 2539 1819 
Q 2322 1972 1947 1972 
L 1259 1972 
L 1259 0 
L 628 0 
L 628 4666 
L 2053 4666 
Q 2853 4666 3247 4331 
Q 3641 3997 3641 3322 
Q 3641 2881 3436 2590 
Q 3231 2300 2841 2188 
z
M 1259 4147 
L 1259 2491 
L 2053 2491 
Q 2509 2491 2742 2702 
Q 2975 2913 2975 3322 
Q 2975 3731 2742 3939 
Q 2509 4147 2053 4147 
L 1259 4147 
z
" transform="scale(0.015625)"/>
       <path id="DejaVuSans-77" d="M 269 3500 
L 844 3500 
L 1563 769 
L 2278 3500 
L 2956 3500 
L 3675 769 
L 4391 3500 
L 4966 3500 
L 4050 0 
L 3372 0 
L 2619 2869 
L 1863 0 
L 1184 0 
L 269 3500 
z
" transform="scale(0.015625)"/>
       <path id="DejaVuSans-61" d="M 2194 1759 
Q 1497 1759 1228 1600 
Q 959 1441 959 1056 
Q 959 750 1161 570 
Q 1363 391 1709 391 
Q 2188 391 2477 730 
Q 2766 1069 2766 1631 
L 2766 1759 
L 2194 1759 
z
M 3341 1997 
L 3341 0 
L 2766 0 
L 2766 531 
Q 2569 213 2275 61 
Q 1981 -91 1556 -91 
Q 1019 -91 701 211 
Q 384 513 384 1019 
Q 384 1609 779 1909 
Q 1175 2209 1959 2209 
L 2766 2209 
L 2766 2266 
Q 2766 2663 2505 2880 
Q 2244 3097 1772 3097 
Q 1472 3097 1187 3025 
Q 903 2953 641 2809 
L 641 3341 
Q 956 3463 1253 3523 
Q 1550 3584 1831 3584 
Q 2591 3584 2966 3190 
Q 3341 2797 3341 1997 
z
" transform="scale(0.015625)"/>
       <path id="DejaVuSans-64" d="M 2906 2969 
L 2906 4863 
L 3481 4863 
L 3481 0 
L 2906 0 
L 2906 525 
Q 2725 213 2448 61 
Q 2172 -91 1784 -91 
Q 1150 -91 751 415 
Q 353 922 353 1747 
Q 353 2572 751 3078 
Q 1150 3584 1784 3584 
Q 2172 3584 2448 3432 
Q 2725 3281 2906 2969 
z
M 947 1747 
Q 947 1113 1208 752 
Q 1469 391 1925 391 
Q 2381 391 2643 752 
Q 2906 1113 2906 1747 
Q 2906 2381 2643 2742 
Q 2381 3103 1925 3103 
Q 1469 3103 1208 2742 
Q 947 2381 947 1747 
z
" transform="scale(0.015625)"/>
      </defs>
      <use xlink:href="#DejaVuSans-52"/>
      <use xlink:href="#DejaVuSans-65" x="64.982422"/>
      <use xlink:href="#DejaVuSans-77" x="126.505859"/>
      <use xlink:href="#DejaVuSans-61" x="208.292969"/>
      <use xlink:href="#DejaVuSans-72" x="269.572266"/>
      <use xlink:href="#DejaVuSans-64" x="308.935547"/>
      <use xlink:href="#DejaVuSans-73" x="372.412109"/>
     </g>
    </g>
   </g>
   <g id="line2d_21">
    <path d="M 73.066676 131.360286 
L 73.178909 130.747843 
L 73.305717 130.74979 
L 73.378595 130.971744 
L 73.454097 130.136646 
L 73.894281 129.124159 
L 73.91527 129.240907 
L 73.997768 128.790303 
L 74.088428 129.259739 
L 74.208823 129.008633 
L 74.237683 129.106814 
L 74.258089 129.571958 
L 74.456026 128.557546 
L 74.588956 128.703261 
L 74.903789 127.523226 
L 74.92711 127.917351 
L 75.104642 127.995473 
L 75.631114 127.241631 
L 75.76725 126.442 
L 75.78853 126.716753 
L 76.352025 124.994908 
L 76.382342 125.09302 
L 76.40129 125.697406 
L 76.534803 125.220923 
L 76.622257 125.393376 
L 76.622548 125.227451 
L 76.731283 124.749311 
L 76.78288 125.238262 
L 76.800371 125.221617 
L 76.96391 124.794331 
L 76.991021 125.238081 
L 77.235308 125.22666 
L 77.390393 124.734375 
L 77.415463 125.389821 
L 77.615441 124.800962 
L 77.643426 124.826387 
L 77.790057 125.03173 
L 77.959426 123.677414 
L 77.985953 124.023524 
L 78.108389 123.596061 
L 78.154448 124.062516 
L 78.22616 124.022243 
L 78.377747 124.445437 
L 78.67713 123.560114 
L 78.846208 123.844125 
L 78.993421 123.618289 
L 79.016742 123.635483 
L 79.178241 122.307334 
L 79.297761 122.426775 
L 79.323414 123.145863 
L 80.309893 119.511968 
L 80.416587 120.472836 
L 80.872221 119.181216 
L 81.057915 119.434846 
L 81.106306 119.520942 
L 81.190844 119.368293 
L 81.259641 119.41615 
L 81.41356 119.429022 
L 81.510342 120.552749 
L 81.821095 119.447187 
L 81.845874 120.194666 
L 81.864822 120.186025 
L 82.035065 119.915061 
L 82.146423 120.376407 
L 82.351648 119.435077 
L 82.427441 120.885614 
L 82.564744 120.345008 
L 82.606139 121.723056 
L 82.785711 121.810582 
L 82.899109 122.497584 
L 83.189164 119.994839 
L 83.216566 120.001797 
L 83.375149 119.770517 
L 83.399345 120.302495 
L 83.60661 119.553656 
L 83.798134 119.197774 
L 83.889378 119.695145 
L 84.154946 118.244328 
L 84.283503 118.023623 
L 84.312363 118.562122 
L 84.387573 118.127717 
L 84.483481 118.118224 
L 85.114023 114.854225 
L 85.215178 114.62696 
L 85.261528 113.822724 
L 85.289805 113.966516 
L 85.442266 114.213122 
L 85.624462 113.308646 
L 85.774299 113.425118 
L 85.795871 113.606007 
L 85.938712 113.648458 
L 85.957952 113.568495 
L 86.012173 113.86793 
L 86.164926 114.030697 
L 86.204863 114.428213 
L 86.56838 113.96012 
L 87.003025 112.258211 
L 87.149656 112.351179 
L 87.25256 111.488844 
L 87.27559 111.769688 
L 87.422221 111.468455 
L 87.577305 111.641588 
L 87.602375 111.970568 
L 87.756294 112.094905 
L 87.800896 112.306295 
L 87.866486 112.073151 
L 88.435519 112.615382 
L 88.464379 112.542127 
L 88.623544 112.183497 
L 88.651821 112.528716 
L 88.912434 111.53207 
L 89.06198 111.534449 
L 89.082386 112.120451 
L 89.254087 112.630746 
L 89.564839 111.977512 
L 89.642965 112.193068 
L 89.663953 112.09488 
L 89.865389 111.48515 
L 89.886961 111.951411 
L 90.562396 109.62324 
L 90.633816 108.996026 
L 90.756252 109.16776 
L 90.777241 109.109021 
L 90.777532 108.851102 
L 90.896761 108.058222 
L 90.992668 108.207533 
L 91.262609 107.256592 
L 91.917347 106.5542 
L 91.978273 106.718583 
L 92.000719 107.313725 
L 92.179125 107.242674 
L 92.548763 105.687919 
L 92.570335 106.310809 
L 92.642922 105.926115 
L 92.701516 105.446181 
L 92.75632 105.895921 
L 92.809084 107.260248 
L 92.960962 107.012662 
L 92.982534 107.244393 
L 93.128874 107.448121 
L 93.148697 107.713059 
L 93.231195 107.626951 
L 93.297368 107.561972 
L 93.341095 108.139655 
L 93.464988 108.377468 
L 93.489475 108.77533 
L 93.636689 108.688439 
L 93.655929 108.74213 
L 94.129054 107.158402 
L 94.464877 109.183411 
L 94.677681 108.369065 
L 94.823729 108.491423 
L 95.019334 108.168393 
L 95.077053 108.630712 
L 95.232138 108.363752 
L 95.356323 108.596994 
L 95.494791 109.947415 
L 95.82595 111.005174 
L 95.969665 110.31784 
L 95.998234 110.222769 
L 96.152444 110.670941 
L 96.174307 111.178721 
L 96.530536 109.764135 
L 96.613908 110.809066 
L 96.73372 110.303765 
L 96.761997 110.434829 
L 96.909211 110.102118 
L 97.081786 110.40036 
L 97.346188 109.98289 
L 97.547332 109.029092 
L 97.692214 109.085281 
L 97.777919 109.387644 
L 97.834181 109.201578 
L 97.851963 109.192724 
L 98.283402 108.30621 
L 98.329169 108.901522 
L 98.662077 107.641955 
L 98.681317 108.305872 
L 98.829988 108.742191 
L 98.848062 109.486753 
L 99.010726 109.803377 
L 99.040169 109.782828 
L 99.155316 109.25826 
L 99.204582 110.65624 
L 99.320896 110.637681 
L 99.424966 110.383521 
L 99.484143 110.61897 
L 99.518541 111.462458 
L 99.777988 111.303241 
L 99.894884 111.881231 
L 100.005076 113.331248 
L 100.357515 112.35279 
L 100.381127 112.933111 
L 100.573817 113.096196 
L 100.678762 113.476978 
L 100.736773 114.241141 
L 100.785456 114.206308 
L 100.920718 113.72086 
L 100.951326 113.751197 
L 101.046359 114.346399 
L 101.195906 114.183945 
L 101.229138 114.54594 
L 101.250127 114.493728 
L 101.400256 114.623536 
L 101.692643 114.167532 
L 101.773975 114.113359 
L 101.815079 114.211035 
L 101.920898 113.169132 
L 101.939554 113.285811 
L 102.052953 112.614163 
L 102.105134 113.189823 
L 102.163145 112.67154 
L 102.221739 113.304859 
L 102.579133 112.140462 
L 102.603037 112.722808 
L 102.773572 112.308772 
L 102.877642 112.238773 
L 103.065377 111.063241 
L 103.323657 110.347842 
L 103.64986 110.702034 
L 103.75393 110.392073 
L 103.806402 110.575931 
L 103.827682 110.612031 
L 103.903767 110.534492 
L 104.029118 110.488982 
L 104.321505 109.345986 
L 104.388844 109.70878 
L 104.53839 109.398258 
L 104.59028 109.96216 
L 104.798128 110.061654 
L 104.85235 110.70398 
L 104.955254 110.23217 
L 104.99694 110.305584 
L 105.019678 110.614726 
L 105.170099 110.569328 
L 105.189047 111.370096 
L 105.295741 110.809297 
L 105.337427 110.883173 
L 105.48639 110.799194 
L 105.516999 111.199452 
L 105.823087 110.780263 
L 105.852238 111.447498 
L 105.872353 111.44593 
L 105.993331 111.130581 
L 106.04143 112.135028 
L 106.093902 111.69216 
L 106.12626 111.319816 
L 106.183105 111.708669 
L 106.555659 111.015113 
L 106.55595 110.914582 
L 106.577814 111.423579 
L 106.666142 110.982009 
L 106.936374 110.503045 
L 106.957072 110.875826 
L 106.957363 110.822364 
L 107.196112 110.226096 
L 107.218559 110.743616 
L 107.389968 109.794517 
L 107.473341 110.175705 
L 107.614724 110.529899 
L 107.642127 110.472949 
L 107.844436 108.993464 
L 107.907695 109.748823 
L 108.03596 109.053292 
L 108.063071 109.175781 
L 108.08406 109.602631 
L 108.252554 109.621198 
L 108.316104 109.861719 
L 108.354001 108.534643 
L 108.634144 108.918461 
L 108.759495 108.36729 
L 108.810218 108.516826 
L 108.959764 108.618461 
L 109.106395 108.129236 
L 109.203177 109.414586 
L 109.300251 109.275586 
L 109.332317 109.410679 
L 109.477199 109.288069 
L 109.565528 108.74257 
L 109.626162 109.264346 
L 109.773959 108.89739 
L 109.804276 109.422751 
L 109.851502 109.177222 
L 110.216184 108.40834 
L 110.27128 108.508526 
L 110.331623 108.06202 
L 110.383221 108.396838 
L 110.402169 108.693448 
L 110.549674 108.280042 
L 110.574162 108.688806 
L 110.71846 108.754255 
L 110.789006 109.070783 
L 110.902696 108.468081 
L 110.962748 108.662119 
L 111.077313 108.207828 
L 111.142028 108.697612 
L 111.402058 108.390746 
L 111.584545 107.829966 
L 111.604659 108.177661 
L 111.784814 108.484172 
L 111.932319 107.792972 
L 111.9536 108.329933 
L 112.07312 107.751864 
L 112.229371 108.169227 
L 112.305456 109.529009 
L 112.388537 109.478679 
L 112.795197 108.605872 
L 112.817352 109.031966 
L 112.980891 109.070376 
L 113.087293 108.930264 
L 113.230717 108.997864 
L 113.42778 109.924484 
L 113.499492 109.78972 
L 113.519606 110.390798 
L 113.754565 110.375801 
L 113.893034 109.178439 
L 113.93472 109.645896 
L 113.982237 110.410306 
L 114.241975 110.048231 
L 114.435248 111.001064 
L 114.608698 110.84687 
L 114.764657 110.830611 
L 114.784188 111.138645 
L 115.313867 110.200597 
L 115.469243 110.076332 
L 115.489066 110.504196 
L 115.537166 110.087234 
L 115.891062 109.35842 
L 116.156047 108.876235 
L 116.184324 109.371621 
L 116.319586 109.253435 
L 116.338534 109.300754 
L 116.508778 109.347189 
L 116.732951 108.28023 
L 117.084515 108.161483 
L 117.11629 108.064253 
L 117.165556 108.45681 
L 117.331427 107.494715 
L 117.428209 109.369423 
L 117.60195 109.771871 
L 117.674246 109.298943 
L 117.764906 109.539403 
L 117.795223 109.461864 
L 117.869559 109.041954 
L 117.938356 109.438519 
L 118.108308 108.47535 
L 118.263393 108.604537 
L 118.373876 108.405553 
L 118.395157 109.444761 
L 118.570647 109.495053 
L 118.717278 109.732658 
L 118.769167 109.329075 
L 118.862452 109.345647 
L 119.097411 109.253335 
L 119.227717 109.356941 
L 119.292433 108.975967 
L 119.323625 109.376196 
L 119.582488 109.503505 
L 119.691222 109.125981 
L 119.900528 108.92361 
L 120.113333 110.008854 
L 120.156477 109.551371 
L 120.26696 109.875355 
L 120.290572 110.957844 
L 120.493174 110.11036 
L 120.561388 110.695461 
L 120.735421 111.648081 
L 121.049963 111.220829 
L 121.148786 111.760474 
L 121.358383 111.690315 
L 121.613457 111.0779 
L 121.636778 111.352832 
L 121.839963 111.609007 
L 122.106697 110.349598 
L 122.240501 110.973651 
L 122.26149 111.644504 
L 122.409578 111.520416 
L 122.67398 109.308304 
L 122.822652 110.015627 
L 122.968991 109.244846 
L 122.989689 110.122801 
L 123.373028 111.658632 
L 123.491382 111.564332 
L 123.516744 112.31482 
L 123.853149 112.508274 
L 123.940895 112.169293 
L 123.985788 112.988768 
L 124.12892 113.235234 
L 124.352219 114.713285 
L 124.434717 114.405525 
L 124.503514 114.466278 
L 124.527418 114.87763 
L 124.548699 114.509493 
L 124.727979 114.545092 
L 124.800274 114.37329 
L 124.825344 114.921508 
L 124.997628 115.578846 
L 125.106071 114.937827 
L 125.164665 115.58926 
L 125.232588 115.133537 
L 125.519728 114.416755 
L 125.668399 114.416466 
L 125.711252 113.994259 
L 125.808325 114.131074 
L 125.887034 114.218714 
L 125.998683 113.816141 
L 126.033665 113.921176 
L 126.063399 113.701472 
L 126.147938 113.732795 
L 126.376484 115.335907 
L 126.469185 115.05693 
L 126.492214 114.923044 
L 126.512912 115.294467 
L 126.595993 115.003529 
L 126.621937 115.167135 
L 126.739708 115.141103 
L 126.861852 114.881164 
L 126.947266 115.712368 
L 127.105265 116.42064 
L 127.251896 115.665423 
L 127.425929 116.193379 
L 127.628239 115.671153 
L 127.78449 115.3212 
L 127.80373 116.072646 
L 128.063759 115.821316 
L 128.429608 114.272181 
L 128.500737 114.355981 
L 128.778549 115.471888 
L 128.968323 115.065461 
L 129.163637 115.207608 
L 129.17967 115.163275 
L 129.597408 114.684919 
L 129.646965 114.851745 
L 129.707891 114.341811 
L 129.764445 114.539756 
L 129.828869 114.673484 
L 130.327939 113.685484 
L 130.388282 113.288997 
L 130.496433 113.910605 
L 130.693204 112.740013 
L 130.752673 114.362032 
L 130.879481 114.084693 
L 130.933411 114.536614 
L 131.195189 114.2239 
L 131.276521 113.681993 
L 131.298676 113.727236 
L 131.317624 114.360884 
L 131.585525 113.827574 
L 131.838558 112.920791 
L 131.906772 112.848337 
L 131.987521 113.590887 
L 132.05865 113.50359 
L 132.230351 114.192552 
L 132.230642 113.947736 
L 132.251048 114.765422 
L 132.424207 113.756978 
L 132.468808 114.212623 
L 132.790347 113.390061 
L 132.810753 114.136777 
L 133.047461 113.763975 
L 133.096727 114.792755 
L 133.166398 114.531571 
L 133.325564 114.317589 
L 133.392612 114.444996 
L 133.412143 115.171064 
L 133.756128 114.010103 
L 133.907132 114.282645 
L 133.938324 114.823748 
L 134.089327 114.698257 
L 134.117896 114.744067 
L 134.271523 114.275925 
L 134.290763 114.626642 
L 134.387836 114.162376 
L 134.462755 114.344613 
L 134.642036 114.670689 
L 134.751644 114.342841 
L 134.896818 114.373227 
L 135.194452 114.05715 
L 135.366736 113.579543 
L 135.470223 114.453285 
L 135.705183 114.07803 
L 135.826743 113.438859 
L 135.847441 113.921534 
L 135.868138 114.285673 
L 136.297245 113.15977 
L 136.412684 113.211268 
L 136.591964 112.810911 
L 136.653765 112.322272 
L 136.76658 113.316879 
L 136.869193 113.148454 
L 136.934492 113.103906 
L 136.955481 113.165956 
L 137.107359 112.40967 
L 137.286931 112.236241 
L 137.467377 111.730207 
L 137.485159 111.824122 
L 137.578443 112.104827 
L 137.73382 111.900647 
L 137.763554 112.094904 
L 137.929716 111.992927 
L 137.980148 111.617863 
L 138.024749 111.655101 
L 138.043989 112.053353 
L 138.095587 111.566116 
L 138.189162 111.760934 
L 138.277782 112.553056 
L 138.588826 111.965896 
L 138.704557 112.536975 
L 138.736623 112.017385 
L 138.782099 112.600923 
L 138.942723 112.916415 
L 138.96721 112.875237 
L 139.074487 112.141629 
L 139.137745 112.297295 
L 139.166022 112.38117 
L 139.224907 112.978451 
L 139.374745 112.787383 
L 139.671213 111.823476 
L 139.693077 112.044225 
L 140.118685 110.073182 
L 140.152209 110.720321 
L 140.173198 110.614464 
L 140.32187 110.224456 
L 140.347231 110.338112 
L 140.500567 110.785434 
L 140.66119 111.441915 
L 140.74777 110.973486 
L 141.000511 114.571776 
L 141.091755 114.11714 
L 141.136939 114.296646 
L 141.164341 114.721191 
L 141.27191 114.176827 
L 141.334876 114.300766 
L 141.367526 114.300448 
L 141.637467 112.969795 
L 141.715883 113.799969 
L 141.919068 113.985532 
L 142.150529 112.931833 
L 142.190466 113.226518 
L 142.254308 113.446402 
L 142.295119 113.298105 
L 142.829171 111.327501 
L 142.877562 111.315834 
L 142.899425 111.681567 
L 142.969097 111.273079 
L 143.051886 111.584402 
L 143.225919 111.184463 
L 143.401119 111.785493 
L 143.566989 111.420316 
L 143.597307 112.035223 
L 143.964904 111.2158 
L 143.986768 111.505246 
L 144.204236 110.30738 
L 144.255834 110.57075 
L 144.278572 110.56722 
L 144.433074 110.712116 
L 144.453771 110.685354 
L 144.652291 110.265961 
L 144.758985 111.159916 
L 145.11842 110.064681 
L 145.181387 110.446694 
L 145.443748 110.248427 
L 145.791523 108.657303 
L 145.819508 108.894478 
L 145.848951 108.911458 
L 145.963224 109.507474 
L 146.21305 109.699211 
L 146.362305 109.363411 
L 146.386209 109.676534 
L 146.535463 109.78211 
L 146.775961 108.935498 
L 146.886153 110.274633 
L 146.91064 110.208063 
L 147.064851 109.906925 
L 147.124902 110.83645 
L 147.284068 110.512137 
L 147.328961 111.132354 
L 147.456935 110.560774 
L 147.580828 111.078622 
L 147.629802 110.545095 
L 147.906739 110.657632 
L 148.295909 108.663238 
L 148.484518 107.98689 
L 148.550108 108.045928 
L 148.809263 107.305507 
L 148.829086 107.53103 
L 149.357598 107.548676 
L 149.508893 107.577475 
L 149.659022 107.931073 
L 149.678262 108.606779 
L 149.854627 108.581398 
L 150.102705 107.269572 
L 150.240882 107.32786 
L 150.38693 106.930911 
L 150.407627 107.338425 
L 150.553966 107.672417 
L 150.791258 106.478669 
L 150.848977 106.77868 
L 151.242811 105.871011 
L 151.385361 106.45194 
L 151.649471 106.22717 
L 151.756748 105.961835 
L 151.877143 105.365958 
L 151.907169 105.945625 
L 152.052925 105.569346 
L 152.084408 105.727188 
L 152.341523 105.160511 
L 152.585227 104.358191 
L 152.62429 104.868229 
L 152.851087 104.1626 
L 153.007921 104.359241 
L 153.050481 105.496291 
L 153.128898 105.038066 
L 153.463555 104.409437 
L 153.517193 104.835942 
L 153.569666 104.36317 
L 153.801418 104.024742 
L 153.880418 104.777449 
L 154.064363 105.153994 
L 154.137532 104.721559 
L 154.402809 104.624934 
L 154.493761 104.824085 
L 154.636311 104.554373 
L 154.659923 104.917152 
L 154.806554 104.609237 
L 154.828126 104.731708 
L 154.982628 103.94064 
L 155.13713 104.130233 
L 155.165698 104.791359 
L 155.224875 104.704942 
L 155.369465 104.683519 
L 155.575273 104.1353 
L 155.760384 103.99664 
L 156.204358 101.746503 
L 156.301431 101.676167 
L 156.328542 102.518674 
L 156.481295 102.769606 
L 156.508405 103.27146 
L 156.743365 103.186055 
L 156.802833 103.625685 
L 156.946549 103.813247 
L 157.223486 102.883989 
L 157.247682 103.473411 
L 157.539194 102.602886 
L 157.556977 103.229428 
L 157.575342 103.214416 
L 157.668626 102.660902 
L 157.786397 103.6816 
L 158.005323 102.697193 
L 158.186644 102.176177 
L 158.483696 103.276416 
L 158.509932 103.110163 
L 158.595345 103.094734 
L 158.861496 104.079464 
L 159.004629 104.044975 
L 159.026201 104.724676 
L 159.178954 104.963458 
L 159.199359 104.935388 
L 159.380097 105.010358 
L 159.583282 104.86189 
L 159.689975 104.319854 
L 159.76023 104.4481 
L 159.780927 104.893029 
L 159.926101 104.537454 
L 159.953503 104.604565 
L 160.106256 104.411393 
L 160.238311 104.71042 
L 160.261049 105.221911 
L 160.269794 105.099668 
L 160.501255 104.233754 
L 160.71989 103.711211 
L 160.828916 103.486405 
L 160.848447 104.084444 
L 161.004406 103.836873 
L 161.027727 104.123135 
L 161.262978 103.59159 
L 161.303207 104.083264 
L 161.327694 104.043586 
L 161.474908 103.268705 
L 161.510764 103.715776 
L 161.563236 103.185458 
L 161.892354 102.060109 
L 161.947742 102.129233 
L 161.975435 102.611134 
L 162.11711 102.349939 
L 162.139265 102.46683 
L 162.223221 102.706468 
L 162.39638 102.069697 
L 162.707132 102.556747 
L 162.728413 102.808736 
L 163.147608 101.079786 
L 163.235936 100.94287 
L 163.376445 102.086946 
L 163.496549 102.321479 
L 163.646386 102.23831 
L 163.818962 101.439869 
L 163.920991 102.518737 
L 163.99008 101.986722 
L 164.121843 102.06526 
L 164.142249 102.497632 
L 164.292961 102.707366 
L 164.3466 103.629239 
L 164.470493 103.532499 
L 164.506057 103.822535 
L 164.952363 102.861345 
L 165.08092 102.948139 
L 165.105699 103.00001 
L 165.184407 102.333697 
L 165.218514 102.939651 
L 165.238046 103.58598 
L 165.38147 103.012293 
L 165.404499 103.161717 
L 165.496034 103.055114 
L 165.563957 102.457977 
L 165.59923 102.996008 
L 165.790754 102.236896 
L 165.973824 102.439656 
L 166.127743 102.117848 
L 166.149898 102.584529 
L 166.404097 101.000332 
L 166.522159 101.110531 
L 166.622731 100.976443 
L 166.705812 100.487121 
L 166.829414 102.241645 
L 166.976045 102.242653 
L 167.197594 101.46865 
L 167.323528 101.603628 
L 167.348306 102.624443 
L 167.771291 101.013632 
L 167.879151 101.662817 
L 168.482874 99.823517 
L 168.508527 100.407458 
L 168.838228 99.038976 
L 168.907899 99.339061 
L 169.087763 99.48472 
L 169.33584 98.875968 
L 169.536401 98.115736 
L 169.565261 98.133998 
L 169.583043 98.550937 
L 169.862312 98.699625 
L 169.914493 99.389155 
L 170.098146 98.542426 
L 170.188223 99.362762 
L 171.163333 97.730258 
L 171.263614 97.750885 
L 171.404997 97.291094 
L 171.448724 98.071648 
L 171.63471 97.702425 
L 171.830315 97.617227 
L 171.958872 97.374235 
L 171.983359 97.419515 
L 172.018632 97.649423 
L 172.178672 96.920825 
L 172.320347 97.169733 
L 172.495838 96.97063 
L 172.582709 97.515044 
L 172.692318 96.970291 
L 172.755867 97.937687 
L 173.011524 97.547378 
L 173.036886 98.055988 
L 173.282048 97.408955 
L 173.311782 97.556142 
L 173.603295 96.809917 
L 173.718443 96.168936 
L 173.958649 95.388812 
L 174.376095 94.430167 
L 174.397376 94.751939 
L 174.56587 94.405156 
L 174.568202 94.126371 
L 174.614261 94.329511 
L 175.028501 92.800283 
L 175.084763 93.389415 
L 175.137818 93.15452 
L 175.330216 93.077099 
L 175.412715 94.145882 
L 175.582375 94.243936 
L 175.770692 93.600625 
L 175.793722 94.225709 
L 175.883216 93.982526 
L 176.031596 94.459736 
L 176.093397 94.804655 
L 176.457788 94.645465 
L 176.617245 94.703236 
L 176.755714 94.142075 
L 177.273149 95.39521 
L 177.480123 94.43388 
L 177.570783 94.718371 
L 177.714208 94.757845 
L 177.834311 94.583766 
L 178.190831 93.177765 
L 178.249716 93.639447 
L 178.386727 93.382374 
L 178.408299 93.932785 
L 178.584373 93.407691 
L 178.611192 93.813389 
L 179.096269 92.306816 
L 179.123672 92.891257 
L 179.159528 92.607132 
L 179.299454 92.949898 
L 179.449874 92.897266 
L 179.639941 92.526118 
L 179.707863 92.798378 
L 179.859158 92.455191 
L 179.889476 93.158301 
L 179.945737 92.904644 
L 180.042811 92.733983 
L 180.072254 93.067065 
L 180.238708 93.04572 
L 180.428191 92.573526 
L 180.506899 93.046861 
L 180.525265 93.022329 
L 180.699006 92.373824 
L 181.05232 91.482042 
L 181.144438 91.841195 
L 181.423707 90.574978 
L 181.50708 90.638663 
L 181.572378 91.085612 
L 181.663039 90.489517 
L 181.763319 90.92578 
L 181.7846 90.877004 
L 181.918696 90.712177 
L 182.200297 89.590162 
L 182.311072 89.690874 
L 182.334976 89.623061 
L 182.641356 89.012771 
L 182.761167 89.786247 
L 182.886226 89.18402 
L 183.098156 89.80421 
L 183.246828 89.731413 
L 183.392875 89.789827 
L 183.415322 90.353435 
L 183.559038 90.014978 
L 183.578569 90.124417 
L 183.656695 90.869619 
L 183.770968 90.400974 
L 183.831019 90.431308 
L 183.85055 90.932085 
L 184.01817 90.519623 
L 184.049945 90.907547 
L 184.159262 90.157584 
L 184.195702 90.701702 
L 184.481093 89.973537 
L 184.634137 90.118387 
L 184.781642 89.852093 
L 184.802048 89.580676 
L 184.8621 89.782856 
L 185.124461 88.512464 
L 185.162358 88.671632 
L 185.186262 89.073591 
L 185.66959 87.171677 
L 185.75063 86.996261 
L 185.772202 87.386551 
L 185.875689 86.881876 
L 185.923789 87.106036 
L 186.008328 87.020313 
L 186.115896 86.46486 
L 186.136302 86.471619 
L 186.701836 84.882611 
L 186.787833 85.508336 
L 186.898608 85.484186 
L 187.009965 84.986697 
L 187.104707 85.674176 
L 187.250172 85.172526 
L 187.269412 85.811697 
L 187.350161 85.278752 
L 187.419541 85.11937 
L 187.442279 85.494263 
L 187.462976 85.360235 
L 187.611356 85.703275 
L 187.611648 86.262108 
L 188.162607 84.645532 
L 188.221784 85.077203 
L 188.34247 84.9322 
L 188.495514 85.2015 
L 188.526706 85.183648 
L 188.587924 85.110774 
L 188.876813 84.639842 
L 188.961352 84.609615 
L 189.157248 83.552727 
L 189.505606 83.608348 
L 189.672351 83.883753 
L 189.70296 84.305809 
L 189.853381 84.043126 
L 189.875536 84.506524 
L 190.155388 83.318691 
L 190.17696 83.803928 
L 190.353033 83.433608 
L 190.47576 82.405372 
L 190.504037 82.84746 
L 190.601402 82.271429 
L 190.67807 82.693362 
L 190.908657 82.490372 
L 190.994653 82.696408 
L 191.024387 82.648294 
L 191.561937 81.20309 
L 191.639188 81.89397 
L 191.76483 81.231088 
L 191.797188 81.63627 
L 191.971221 81.796721 
L 191.991626 81.94043 
L 192.087534 81.535679 
L 192.177903 82.498108 
L 192.360099 81.725992 
L 192.402951 82.19981 
L 192.688633 81.413805 
L 192.713995 81.560948 
L 192.949537 82.077383 
L 193.167297 81.159602 
L 193.235803 81.192705 
L 193.400216 80.901919 
L 193.575415 80.908093 
L 193.835153 80.276567 
L 193.871884 80.31497 
L 193.894039 80.849008 
L 194.036588 80.89001 
L 194.060784 81.434039 
L 194.40506 81.337847 
L 194.562769 81.047674 
L 194.734178 81.565647 
L 194.828045 80.884131 
L 194.881975 81.202148 
L 194.900924 81.234804 
L 195.009075 80.678348 
L 195.228584 81.127086 
L 195.328281 81.034466 
L 195.359473 81.016204 
L 195.426813 80.677309 
L 195.499691 80.960136 
L 195.654484 80.27754 
L 195.681595 80.669408 
L 195.797908 80.292262 
L 196.048901 78.956423 
L 196.107203 79.810953 
L 196.163174 79.6646 
L 196.271908 79.476295 
L 196.329919 78.91142 
L 196.472469 78.893678 
L 196.501911 79.110606 
L 196.655539 79.174328 
L 196.762524 78.876752 
L 196.926354 78.834437 
L 197.080856 78.579749 
L 197.261302 78.670563 
L 197.39773 78.457033 
L 197.430671 78.579328 
L 197.451951 79.049286 
L 197.627734 78.938742 
L 197.650763 78.993555 
L 197.800892 79.03208 
L 198.083368 78.40756 
L 198.10494 78.649066 
L 198.261191 78.494235 
L 198.359139 78.565791 
L 198.376921 78.533654 
L 198.501106 78.356654 
L 198.541626 79.074378 
L 198.70429 78.64462 
L 198.851504 78.931747 
L 198.870744 79.303354 
L 199.13398 78.171886 
L 199.157884 78.641959 
L 199.274489 78.361073 
L 199.356113 79.484935 
L 199.419079 79.180317 
L 199.506533 79.338975 
L 199.532769 79.31947 
L 199.779681 78.350886 
L 199.861013 78.296478 
L 199.926603 78.386922 
L 199.945843 78.346145 
L 200.266507 78.288936 
L 200.295367 78.864402 
L 200.709023 77.887441 
L 200.824462 77.269028 
L 200.954768 77.757435 
L 201.034643 77.307619 
L 201.062628 77.778332 
L 201.246864 78.036805 
L 201.318285 78.02563 
L 201.422355 77.755673 
L 201.449466 77.911334 
L 201.596679 77.951392 
L 201.619417 78.583311 
L 201.654982 78.460557 
L 201.897812 78.206211 
L 201.939498 78.308993 
L 201.962819 78.929539 
L 202.187284 78.072988 
L 202.215561 78.315647 
L 202.274155 77.816666 
L 202.39455 78.281236 
L 202.517277 78.213583 
L 202.563627 78.698735 
L 202.942302 78.097742 
L 203.006435 78.138154 
L 203.028007 78.813221 
L 203.14607 78.70378 
L 203.176678 78.763865 
L 203.284247 78.184872 
L 203.49501 77.568171 
L 203.515999 78.0472 
L 203.587711 77.934675 
L 203.661756 77.833037 
L 203.705774 78.39917 
L 203.749792 77.947124 
L 203.848615 77.842379 
L 204.344187 75.643123 
L 204.783788 74.338685 
L 204.876198 74.43597 
L 205.291312 74.079099 
L 205.337954 74.50063 
L 205.485751 74.095706 
L 205.711673 75.348336 
L 205.730621 75.338061 
L 205.879001 75.050327 
L 205.910485 75.519763 
L 205.987153 75.325745 
L 206.247765 75.593832 
L 206.341341 75.9126 
L 206.403433 75.802305 
L 206.514791 76.073083 
L 206.575717 75.678774 
L 206.689407 75.700038 
L 206.782108 75.113632 
L 206.83458 75.240022 
L 206.940691 75.519897 
L 207.108894 74.600059 
L 207.249694 74.809675 
L 207.415274 73.760555 
L 207.594554 73.420685 
L 207.621082 74.100167 
L 207.729816 73.942046 
L 207.773834 73.984917 
L 207.79424 73.221616 
L 208.022203 72.81477 
L 208.043775 74.020455 
L 208.246668 73.364061 
L 208.316048 74.005978 
L 208.499701 73.357812 
L 208.632048 73.641947 
L 208.774597 73.044392 
L 208.794129 73.423284 
L 209.083309 72.68034 
L 209.103424 73.117965 
L 209.249763 72.75006 
L 209.43021 72.819471 
L 209.453531 73.143691 
L 209.683243 72.505491 
L 209.894006 70.099097 
L 209.959888 70.160028 
L 211.141972 66.31078 
L 211.286854 66.531486 
L 211.379264 67.608767 
L 211.546009 66.891197 
L 211.660573 66.314341 
L 211.783009 66.341751 
L 211.914481 65.64519 
L 212.024381 65.139692 
L 212.045953 65.20027 
L 212.173344 64.864169 
L 212.215905 64.525927 
L 212.257883 64.959009 
L 212.443285 64.550358 
L 212.537735 65.439136 
L 212.670665 64.421542 
L 212.751123 64.544133 
L 212.861314 64.651237 
L 213.120469 63.799953 
L 213.313159 63.584921 
L 213.430056 63.183273 
L 213.483694 63.665587 
L 213.527421 63.275923 
L 213.825347 64.658199 
L 214.410996 63.31548 
L 214.429944 63.764358 
L 215.520493 60.691566 
L 215.898877 59.488434 
L 215.934442 59.519767 
L 216.153368 58.37226 
L 216.245777 58.462719 
L 216.335563 58.512649 
L 216.573146 58.206633 
L 216.746305 57.711284 
L 216.779537 57.944215 
L 216.881566 58.512942 
L 217.052101 58.128103 
L 217.079795 58.20531 
L 217.194651 58.374064 
L 217.218555 58.288629 
L 217.242459 58.233098 
L 217.391714 58.455281 
L 217.410662 58.403999 
L 217.565164 57.929796 
L 217.673023 58.284252 
L 217.932761 58.068568 
L 218.375861 57.031519 
L 218.444366 58.131033 
L 218.831495 57.914438 
L 219.253022 56.92278 
L 219.314532 57.533849 
L 219.622661 56.800144 
L 219.643358 57.462714 
L 219.701078 57.43153 
L 219.795236 57.814968 
L 219.970435 57.899126 
L 220.087915 57.292347 
L 220.110653 58.035448 
L 220.191693 57.555667 
L 220.491369 56.822007 
L 220.622549 57.121385 
L 220.740029 56.366627 
L 220.817863 56.793748 
L 220.931553 56.179451 
L 221.018424 56.233452 
L 221.453944 54.21285 
L 221.555973 54.404716 
L 221.817168 53.854548 
L 221.962633 54.011553 
L 222.211585 53.482838 
L 222.353552 53.705181 
L 222.519714 53.178528 
L 222.68471 53.465404 
L 222.860201 53.416091 
L 222.915297 53.650577 
L 223.008581 53.428285 
L 223.027238 54.372745 
L 223.118773 53.868429 
L 223.172703 53.764118 
L 223.277356 54.506385 
L 223.490452 54.117729 
L 223.554001 55.46197 
L 223.665068 55.420038 
L 223.726868 56.138544 
L 223.874957 56.244025 
L 224.023337 55.893504 
L 224.07027 56.059164 
L 224.183669 55.955248 
L 224.325927 56.470142 
L 224.586248 56.66595 
L 224.794096 56.600036 
L 225.089107 54.878872 
L 225.223786 55.341411 
L 225.302495 55.305986 
L 225.377705 55.220231 
L 225.485856 54.641189 
L 225.547657 54.749271 
L 225.886978 53.976446 
L 225.979679 54.417015 
L 226.109693 54.018926 
L 226.260114 54.084247 
L 226.33445 55.130688 
L 226.479332 54.703129 
L 226.504402 54.895072 
L 226.65249 54.996789 
L 226.937298 54.076096 
L 227.034955 54.133401 
L 227.073434 54.277555 
L 227.204032 53.720738 
L 227.268165 53.67895 
L 227.307228 54.776803 
L 227.47922 54.980667 
L 227.601073 54.760543 
L 227.625851 54.886015 
L 227.907452 54.726209 
L 227.963131 54.769423 
L 228.063703 54.219486 
L 228.114426 54.490718 
L 228.155821 54.150816 
L 228.335685 53.760623 
L 228.409437 53.817716 
L 228.611747 52.583872 
L 228.730684 53.052097 
L 228.788987 52.555159 
L 228.819013 52.684941 
L 228.937075 53.10831 
L 229.29826 51.384477 
L 229.669647 51.500272 
L 229.790625 51.20754 
L 230.205447 51.327355 
L 230.241303 51.768311 
L 230.594617 50.442017 
L 230.708307 50.974376 
L 230.754657 50.952282 
L 230.921986 50.2368 
L 231.067742 50.259833 
L 231.212041 49.990012 
L 231.228948 50.518715 
L 231.513465 50.253099 
L 231.644646 49.717738 
L 231.839959 50.114942 
L 231.947527 49.503687 
L 232.051889 49.678253 
L 232.091826 49.590472 
L 232.246036 49.264004 
L 232.284808 50.278578 
L 232.458549 50.553631 
L 232.665523 49.933289 
L 232.8037 50.56009 
L 232.887073 50.072933 
L 232.91156 50.687249 
L 232.93284 50.641607 
L 233.102792 50.351043 
L 233.171589 50.946398 
L 233.338043 50.897871 
L 233.441239 51.227094 
L 233.46456 51.849092 
L 233.658124 50.726731 
L 233.917862 50.622672 
L 233.969168 50.952671 
L 234.381076 49.541451 
L 234.475817 49.83769 
L 234.751588 48.829937 
L 235.447721 46.099617 
L 235.488532 46.11021 
L 235.592019 46.050728 
L 235.743023 45.217969 
L 235.832226 45.287309 
L 235.932506 45.567161 
L 235.960783 45.140076 
L 236.108872 45.205535 
L 236.206528 44.820244 
L 236.274451 45.689194 
L 236.335377 45.394938 
L 236.421956 45.237891 
L 236.445277 45.636739 
L 236.567713 45.456454 
L 236.712011 46.146743 
L 236.843775 46.053849 
L 236.872343 45.941927 
L 237.009063 46.061582 
L 237.030635 45.993319 
L 237.281044 45.37892 
L 237.384531 45.139731 
L 237.404646 45.575136 
L 237.485978 45.391995 
L 237.627944 45.516549 
L 237.64835 45.747331 
L 237.774867 45.277583 
L 237.91625 45.683219 
L 238.109523 44.978081 
L 238.218258 45.008825 
L 238.470416 46.286933 
L 238.568656 46.171586 
L 238.691966 45.549138 
L 238.739482 46.646948 
L 239.429493 45.003888 
L 239.467098 45.841384 
L 239.53881 45.350756 
L 239.616353 46.164871 
L 239.679319 45.718618 
L 239.699142 45.73287 
L 239.720423 46.814518 
L 240.018932 45.968891 
L 240.562312 44.35552 
L 240.620031 44.270989 
L 240.642186 43.933896 
L 240.912127 43.865446 
L 241.538005 41.676619 
L 241.633621 42.408656 
L 241.715827 42.233029 
L 242.11724 41.33707 
L 242.15193 42.071118 
L 242.235886 41.879841 
L 242.366484 40.980479 
L 242.478425 41.085472 
L 242.497956 41.515515 
L 242.758568 41.184302 
L 242.979827 41.696141 
L 243.069904 42.266965 
L 243.413598 41.060754 
L 243.544487 41.082047 
L 243.589963 41.777303 
L 243.852616 41.150813 
L 243.874771 41.445881 
L 244.040058 41.669814 
L 244.061339 42.210247 
L 244.161328 41.588083 
L 244.234497 42.609871 
L 244.446136 41.516548 
L 244.551663 42.137436 
L 244.825685 40.681381 
L 244.921593 41.221338 
L 245.020416 41.110768 
L 245.069098 41.480565 
L 245.089796 41.461893 
L 245.211065 40.952448 
L 245.465264 39.230102 
L 245.559131 39.182593 
L 245.889415 38.163152 
L 246.167227 36.936203 
L 246.369828 35.824166 
L 246.392275 35.880329 
L 246.535699 36.220797 
L 246.637437 36.435285 
L 246.731887 36.304322 
L 247.010865 35.493511 
L 247.05809 35.756497 
L 247.083451 35.747009 
L 247.249905 36.055296 
L 247.465333 34.839744 
L 247.565322 34.877083 
L 247.674348 34.890542 
L 247.779584 35.023873 
L 247.79999 35.574138 
L 248.114532 35.65607 
L 248.288856 34.87503 
L 248.360569 35.836621 
L 248.487377 35.193391 
L 248.531104 36.037377 
L 248.623805 35.943054 
L 248.858181 37.044324 
L 249.090808 36.539702 
L 249.194878 35.866321 
L 249.24735 36.138855 
L 249.364247 36.533991 
L 249.55373 35.708672 
L 249.954852 36.144334 
L 249.977298 37.158885 
L 250.151914 37.486134 
L 250.233538 36.966873 
L 250.294173 37.342926 
L 250.475785 36.639569 
L 250.491527 37.132304 
L 250.644571 36.797519 
L 250.674597 36.395456 
L 250.871659 35.803641 
L 250.892648 36.142779 
L 250.931128 35.730851 
L 251.490832 34.511271 
L 251.51736 34.26913 
L 251.663116 34.277014 
L 251.816452 33.34395 
L 251.930725 33.37809 
L 252.018179 34.108994 
L 252.217574 33.882308 
L 252.307068 33.90054 
L 252.545525 32.554138 
L 252.878433 31.351195 
L 252.93382 31.413057 
L 253.121263 31.388133 
L 253.441344 30.967126 
L 253.572525 30.430017 
L 253.598469 30.115787 
L 253.693502 30.235039 
L 253.785912 31.094567 
L 253.82206 31.558249 
L 253.859956 31.256833 
L 253.920299 30.749207 
L 254.140683 31.207896 
L 254.258163 30.385712 
L 254.652579 30.956658 
L 254.767144 30.959017 
L 254.844686 31.59858 
L 255.012306 31.747618 
L 255.291575 32.709677 
L 255.503505 32.096596 
L 255.613405 32.87516 
L 255.833497 32.520055 
L 255.854195 32.78631 
L 255.937567 32.761379 
L 256.074578 32.99124 
L 256.171361 32.852978 
L 256.192641 32.93032 
L 256.38329 33.628313 
L 256.477741 33.190384 
L 256.509224 33.209864 
L 256.588807 34.162883 
L 256.717656 34.087706 
L 256.829013 34.525515 
L 256.846504 35.110615 
L 257.105367 34.989962 
L 257.177371 34.703921 
L 257.460721 34.423219 
L 257.594234 34.353316 
L 257.662157 34.151528 
L 257.706175 34.678656 
L 257.82074 34.159232 
L 257.840854 34.255889 
L 257.914898 35.026372 
L 257.983112 35.00909 
L 258.2274 34.395225 
L 258.253928 34.999304 
L 258.399101 34.828917 
L 258.518038 34.257327 
L 258.548355 34.798122 
L 258.75358 34.691195 
L 259.119137 36.689354 
L 259.197554 36.732289 
L 259.265477 37.986462 
L 259.31037 37.608627 
L 259.434554 37.2421 
L 259.457001 37.537647 
L 259.66689 36.687584 
L 259.731606 37.907759 
L 259.750262 38.729549 
L 259.84238 38.184174 
L 259.899517 38.250295 
L 259.92138 38.72583 
L 259.964816 38.238663 
L 260.070635 38.417137 
L 260.088417 38.270348 
L 260.240587 38.128197 
L 260.402668 37.706369 
L 260.567664 37.868248 
L 260.590402 37.986543 
L 260.860051 37.70387 
L 260.935553 37.171242 
L 260.952752 37.217457 
L 261.027671 38.049783 
L 261.137863 37.529835 
L 261.198498 38.500803 
L 261.294697 37.986585 
L 261.397601 38.449712 
L 261.601951 37.826171 
L 261.804261 38.057217 
L 261.881512 38.623258 
L 262.014733 37.994134 
L 262.092859 38.13497 
L 262.261353 38.411183 
L 262.418478 38.83643 
L 262.517593 38.428666 
L 262.536541 39.32968 
L 262.685796 38.837465 
L 262.705036 39.271468 
L 262.963024 38.559475 
L 263.18574 37.631467 
L 263.248124 37.904951 
L 263.484541 37.373834 
L 263.583655 37.427041 
L 263.688891 37.128128 
L 263.834356 35.891534 
L 263.890326 36.727812 
L 263.973699 36.319064 
L 264.13957 36.657432 
L 264.423503 35.256386 
L 264.492009 35.711135 
L 264.515621 35.768986 
L 264.664584 35.315559 
L 264.690237 36.197855 
L 264.973879 35.193887 
L 265.089901 36.214115 
L 265.377624 36.67843 
L 265.396864 36.602603 
L 265.54641 36.34425 
L 265.624827 38.057164 
L 265.753093 37.958889 
L 265.90876 38.11804 
L 265.93762 38.496264 
L 266.001461 37.988441 
L 266.058015 38.109424 
L 266.159753 38.898514 
L 266.261491 38.481172 
L 266.33845 38.895159 
L 266.905734 38.758384 
L 267.011553 38.21987 
L 267.047992 38.56218 
L 267.158475 38.787121 
L 267.304815 38.323796 
L 267.473892 38.799048 
L 267.507708 38.461727 
L 267.624021 38.721046 
L 267.646468 39.166643 
L 267.864519 39.040278 
L 268.062748 39.884974 
L 268.081405 40.458354 
L 268.244943 40.84539 
L 268.376124 40.37714 
L 268.408482 40.485148 
L 268.592427 40.638077 
L 268.671718 41.082969 
L 268.798818 40.622047 
L 268.949238 41.500206 
L 269.183031 41.115925 
L 269.275149 40.64155 
L 269.363186 40.743271 
L 269.415367 41.247253 
L 269.676562 40.725963 
L 269.732241 40.702162 
L 269.797249 40.182782 
L 269.924057 40.307475 
L 269.945337 40.506611 
L 270.09226 40.22106 
L 270.202451 39.708111 
L 270.240057 40.065687 
L 270.401846 39.533975 
L 270.529237 39.632704 
L 270.731839 39.580121 
L 270.856023 39.90324 
L 270.875846 40.551606 
L 271.166776 41.83592 
L 271.186598 42.202463 
L 271.296499 41.65028 
L 271.349262 42.702078 
L 271.490063 42.939047 
L 271.609 42.859866 
L 271.641358 43.321782 
L 271.791487 43.570454 
L 271.822971 44.047194 
L 271.968144 44.330538 
L 271.994089 44.728312 
L 272.094952 44.597037 
L 272.203103 44.020249 
L 272.340114 45.017947 
L 272.419697 44.9711 
L 272.56662 44.721757 
L 272.820819 44.690756 
L 273.015258 45.364314 
L 273.090177 45.412908 
L 273.2508 44.788044 
L 273.364198 45.006949 
L 273.486342 44.350467 
L 273.507331 44.639564 
L 273.6767 45.753501 
L 273.71722 45.775078 
L 273.717512 46.387727 
L 274.072866 45.162619 
L 274.09298 45.616472 
L 274.23932 45.652254 
L 274.267888 45.540506 
L 274.345139 45.957789 
L 274.411895 45.873216 
L 274.475445 45.941948 
L 274.678046 45.227619 
L 274.685626 45.921406 
L 274.906009 45.987726 
L 275.026404 45.659341 
L 275.11036 45.924908 
L 275.37447 44.907664 
L 275.395751 45.288717 
L 275.615843 43.879536 
L 275.737987 43.905413 
L 276.506997 41.377587 
L 276.678115 41.352967 
L 277.073406 39.767193 
L 277.162901 39.396666 
L 277.222078 39.560939 
L 277.245107 40.11446 
L 277.394653 39.65878 
L 277.520878 40.85103 
L 277.565188 40.817307 
L 277.661679 40.246756 
L 277.714443 40.261042 
L 277.790236 40.929511 
L 277.875066 41.087296 
L 277.895181 41.04955 
L 278.048517 40.934942 
L 278.070672 41.463876 
L 278.192524 41.303757 
L 278.536509 42.286876 
L 278.555749 42.17924 
L 278.74873 42.470268 
L 278.769428 42.372006 
L 278.880785 41.864365 
L 278.932966 42.340281 
L 278.955413 42.31787 
L 279.094756 42.119291 
L 279.227977 42.186552 
L 279.247508 42.466159 
L 279.358283 41.924008 
L 279.417169 42.563197 
L 279.572545 41.94064 
L 279.67953 42.423797 
L 279.720051 42.302974 
L 279.866098 42.458049 
L 279.896707 42.413324 
L 279.930523 41.917513 
L 280.011272 42.344219 
L 280.180932 42.68187 
L 280.34243 42.403343 
L 280.364002 43.020837 
L 280.631028 42.982071 
L 280.668924 42.543224 
L 280.731308 42.552635 
L 280.90126 43.266442 
L 281.056053 42.69015 
L 281.237666 43.387422 
L 281.551625 42.621842 
L 281.576987 43.141018 
L 281.666481 42.623365 
L 281.741983 43.725346 
L 282.102293 43.644503 
L 282.133776 44.160526 
L 282.156514 44.11205 
L 282.399927 43.609499 
L 282.46989 44.166963 
L 282.617396 43.807536 
L 282.636927 44.264524 
L 282.710097 43.904448 
L 283.180598 42.618601 
L 283.281462 43.155285 
L 283.376203 42.565148 
L 283.600668 43.622768 
L 283.680251 43.100463 
L 283.801229 43.422277 
L 283.954856 43.079817 
L 284.10411 42.38966 
L 284.135885 43.006228 
L 284.316332 42.684928 
L 284.335572 43.200818 
L 284.438767 42.989076 
L 284.525055 42.399095 
L 284.592686 42.848527 
L 284.769051 42.200956 
L 284.831143 42.179233 
L 284.943376 42.637045 
L 285.084176 42.317668 
L 285.106623 42.65527 
L 285.32001 42.134317 
L 285.410962 42.290967 
L 285.555552 41.981144 
L 285.716176 42.56404 
L 285.871261 42.801175 
L 285.905368 43.34813 
L 286.078526 43.315446 
L 286.10039 44.112295 
L 286.243231 44.328895 
L 286.261305 44.85338 
L 286.404729 45.600195 
L 286.428633 46.455068 
L 286.71519 46.280735 
L 286.777865 45.870977 
L 286.798271 46.312317 
L 286.8385 46.70899 
L 287.361182 45.263395 
L 287.411031 45.265615 
L 287.600806 44.404867 
L 287.654736 44.577106 
L 287.836056 45.014913 
L 288.01796 44.24306 
L 288.036909 44.647493 
L 288.143019 44.857323 
L 288.222894 44.884646 
L 288.312097 44.83698 
L 288.758694 47.118258 
L 288.905034 46.93044 
L 288.925148 47.56458 
L 289.309653 45.91195 
L 289.446664 46.549763 
L 289.596502 45.797046 
L 289.614576 46.201658 
L 289.762664 46.267795 
L 289.784236 46.79687 
L 289.948941 45.952493 
L 290.04135 46.397956 
L 290.111896 46.207586 
L 290.190022 46.049968 
L 290.234915 46.948308 
L 290.317413 46.786544 
L 290.515058 46.127871 
L 290.65411 47.974875 
L 290.923759 48.355858 
L 290.980896 48.97681 
L 291.233054 49.814791 
L 291.256667 50.279663 
L 291.353158 50.258544 
L 291.467431 49.755815 
L 291.592198 49.792564 
L 291.901493 50.470366 
L 291.960962 50.335264 
L 292.088936 49.325629 
L 292.194755 49.37055 
L 292.262969 49.676356 
L 292.356544 49.516059 
L 292.41543 49.653056 
L 292.443124 50.686671 
L 292.557688 50.489246 
L 292.617448 51.042686 
L 292.710732 50.469282 
L 292.890304 50.482264 
L 292.967847 50.649259 
L 293.098444 49.871243 
L 293.123223 49.970734 
L 293.143046 50.714593 
L 293.305127 50.017695 
L 293.393747 50.786317 
L 293.537171 50.264633 
L 293.626665 51.598548 
L 293.694588 51.557131 
L 293.786414 51.892028 
L 293.809444 51.747905 
L 293.91089 51.609172 
L 293.961905 51.695422 
L 293.982602 52.353331 
L 294.137396 52.120064 
L 294.294229 52.271533 
L 294.318717 52.558339 
L 294.437071 51.901716 
L 294.525108 52.503966 
L 294.671447 52.520438 
L 294.696226 53.14757 
L 294.742868 52.873311 
L 295.268174 54.734852 
L 295.412764 54.875043 
L 295.551815 55.809873 
L 295.665505 56.462358 
L 295.78969 56.922303 
L 295.918538 56.725867 
L 296.002786 57.011937 
L 296.249405 56.647716 
L 296.267479 56.666853 
L 296.416151 56.711041 
L 296.47766 57.237604 
L 296.783165 56.200366 
L 296.806486 56.614732 
L 296.951077 56.731696 
L 296.99801 57.807563 
L 297.128608 57.797504 
L 297.188076 58.129245 
L 297.235593 58.062103 
L 297.384556 57.648325 
L 297.557131 58.254452 
L 297.655371 57.703263 
L 297.716006 57.981329 
L 297.739618 58.610296 
L 297.785386 58.30799 
L 298.428172 56.336703 
L 298.606577 56.038396 
L 298.698112 56.390166 
L 298.789356 55.826373 
L 298.866024 56.658457 
L 299.036559 56.653404 
L 299.205636 56.821825 
L 299.534754 56.385583 
L 299.585186 56.507507 
L 299.815481 58.592219 
L 300.13527 59.302338 
L 300.151012 60.149894 
L 300.35303 59.926494 
L 300.473425 60.562437 
L 300.589738 60.174727 
L 300.620639 60.206245 
L 300.646583 60.717142 
L 300.95617 59.6334 
L 301.008934 60.048407 
L 301.028757 60.255493 
L 301.322893 59.474094 
L 301.580299 58.336136 
L 301.662214 58.376699 
L 301.683494 58.657331 
L 301.702734 58.58582 
L 301.768033 58.126923 
L 301.852572 58.539201 
L 302.022815 58.060578 
L 302.046719 58.7995 
L 302.282844 58.64956 
L 302.315494 58.818827 
L 302.497981 57.982974 
L 302.645486 58.294912 
L 302.716324 57.804045 
L 302.88511 58.591443 
L 303.027659 58.359103 
L 303.129106 58.551244 
L 303.145139 59.023966 
L 303.299349 58.431212 
L 303.324711 58.91551 
L 303.411582 58.759809 
L 303.422076 58.488259 
L 303.495537 58.863854 
L 303.6136 59.669965 
L 303.763729 59.917229 
L 303.788508 60.210145 
L 303.949423 60.169055 
L 303.971578 60.436435 
L 304.045913 60.00628 
L 304.175345 59.396414 
L 304.308275 58.676554 
L 304.391064 59.08712 
L 304.537695 59.219492 
L 304.55781 60.011062 
L 304.707064 59.815597 
L 304.736215 60.314165 
L 304.894215 60.497828 
L 304.915204 61.104656 
L 305.093902 60.995664 
L 305.267935 61.579404 
L 305.343145 61.011738 
L 305.401156 61.085649 
L 305.530005 61.115055 
L 306.048606 61.336372 
L 306.129938 61.206459 
L 306.151801 61.618145 
L 306.446229 61.083761 
L 306.536015 61.343913 
L 306.715295 61.269094 
L 306.790214 61.465207 
L 306.892827 61.167938 
L 306.994273 60.528171 
L 307.08814 60.647155 
L 307.392188 60.124426 
L 307.443203 61.232279 
L 307.530073 61.159954 
L 307.625107 61.475557 
L 307.746667 62.42925 
L 307.836745 63.381255 
L 307.913413 63.919968 
L 308.020398 63.56979 
L 308.129132 64.469312 
L 308.206966 64.656659 
L 308.35039 64.366349 
L 308.501977 64.853313 
L 308.546287 65.417202 
L 308.623538 65.126025 
L 308.749763 65.00665 
L 308.82818 65.547923 
L 308.892312 64.900786 
L 308.934582 64.929489 
L 308.987054 65.829377 
L 309.236881 64.948503 
L 309.260785 65.281723 
L 309.372142 64.771307 
L 309.474463 64.848687 
L 309.609142 64.354227 
L 309.779677 63.857623 
L 309.930972 63.05255 
L 309.957208 63.564813 
L 310.09626 63.547241 
L 310.221319 63.996101 
L 310.26767 63.993397 
L 310.292157 64.633917 
L 310.454529 65.016373 
L 310.469105 64.966015 
L 310.492426 65.471014 
L 310.562389 65.454025 
L 310.80726 64.382587 
L 310.839034 65.008306 
L 310.923282 64.531776 
L 310.963802 64.668773 
L 311.068455 65.855743 
L 311.278344 65.722882 
L 311.358219 66.393549 
L 311.432263 66.184701 
L 311.504558 66.238543 
L 311.613292 67.359289 
L 311.68413 67.22369 
L 311.848543 67.050475 
L 311.991093 67.330293 
L 312.045606 68.272756 
L 312.107989 68.194578 
L 312.440605 67.65328 
L 312.523978 67.781616 
L 312.751358 67.582709 
L 312.772347 67.649085 
L 312.793336 68.064914 
L 312.95221 67.799382 
L 312.96941 67.841472 
L 312.989232 68.852736 
L 313.206409 67.87949 
L 313.254217 68.559793 
L 313.405804 68.45008 
L 313.497631 67.946376 
L 313.610738 68.362719 
L 313.750372 68.200923 
L 313.868143 68.312386 
L 314.028184 69.253846 
L 314.052671 69.557432 
L 314.197261 69.773093 
L 314.449128 68.611118 
L 314.487608 69.092755 
L 314.575353 69.300723 
L 314.701578 68.755557 
L 314.746471 68.827731 
L 314.769501 69.217788 
L 314.819058 69.177512 
L 314.92167 68.997265 
L 315.034194 68.507431 
L 315.076172 68.725838 
L 315.098327 68.745038 
L 315.113486 68.499558 
L 315.13739 69.107088 
L 315.165083 69.538724 
L 315.257784 69.144001 
L 315.369725 69.427542 
L 315.395087 70.075296 
L 315.665028 69.572947 
L 315.71371 69.644956 
L 315.798832 69.541972 
L 316.186836 67.839848 
L 316.324138 68.274771 
L 316.462315 68.148455 
L 316.627603 68.536914 
L 316.758783 69.603731 
L 317.197219 72.354568 
L 317.280591 72.481874 
L 317.425765 71.853194 
L 317.443547 71.999369 
L 317.538872 71.633663 
L 317.856912 71.100927 
L 318.059222 70.225805 
L 318.244624 70.985552 
L 318.490369 70.446681 
L 318.514565 71.166702 
L 318.623882 70.774452 
L 318.683351 71.745296 
L 318.90286 70.875061 
L 318.927638 70.893503 
L 318.971657 71.405013 
L 319.06873 70.824578 
L 319.257631 71.239232 
L 319.431372 70.686833 
L 319.456442 71.41917 
L 319.74708 70.677007 
L 319.766903 71.168234 
L 319.808298 70.863396 
L 319.911202 70.226211 
L 320.179102 71.012062 
L 320.202715 70.700821 
L 320.421058 71.823396 
L 320.50822 71.739825 
L 320.605002 71.876771 
L 320.851622 70.840296 
L 321.011954 70.98209 
L 321.135264 71.798525 
L 321.204061 72.885965 
L 321.296762 72.837058 
L 321.399375 72.809014 
L 321.53522 73.148671 
L 321.599935 74.337502 
L 321.683017 74.269558 
L 321.802245 74.396282 
L 321.951208 74.792667 
L 321.973072 75.313479 
L 322.188791 75.003537 
L 322.22319 75.004077 
L 322.524905 74.349273 
L 322.670953 74.408153 
L 322.920197 78.265819 
L 322.993366 78.215638 
L 323.253979 77.474595 
L 323.400027 77.318605 
L 323.423931 77.45191 
L 323.512259 78.705554 
L 323.745178 77.94026 
L 323.774329 77.954241 
L 323.973724 78.242685 
L 324.161458 77.735973 
L 324.182738 78.248056 
L 324.509815 77.908384 
L 324.590856 77.510674 
L 324.67248 78.468033 
L 324.994018 77.854444 
L 325.11383 77.236769 
L 325.152893 77.603727 
L 325.206531 78.157489 
L 325.351996 77.664805 
L 325.373276 78.350797 
L 325.442365 78.008359 
L 325.655752 77.872003 
L 325.729505 77.480365 
L 326.000612 79.476056 
L 326.1178 79.14337 
L 326.319526 80.16361 
L 326.336726 80.177072 
L 326.358006 80.619946 
L 326.520379 80.371993 
L 326.634069 81.14271 
L 326.703449 81.104802 
L 326.85008 80.303579 
L 326.953858 80.475385 
L 327.005456 80.875388 
L 327.122936 80.739861 
L 327.302507 80.995988 
L 327.418238 80.295272 
L 327.466046 80.541735 
L 327.490242 81.119515 
L 327.643286 81.372941 
L 327.662234 81.874774 
L 327.953455 81.515561 
L 328.164219 81.664467 
L 328.226311 82.841754 
L 328.31085 82.753991 
L 328.397429 83.692876 
L 328.463603 83.662463 
L 328.542311 83.464203 
L 328.643466 84.319156 
L 328.75803 84.288956 
L 328.882215 83.843904 
L 328.928857 83.863007 
L 328.997945 84.259954 
L 329.163816 83.575145 
L 329.37662 85.028107 
L 329.553277 84.931261 
L 329.722646 84.902334 
L 329.822052 84.374848 
L 329.948277 85.098222 
L 330.011827 85.48744 
L 330.254365 84.780044 
L 330.296343 84.713826 
L 330.328993 84.901586 
L 330.417321 84.802011 
L 330.678225 84.970724 
L 330.857214 84.470137 
L 330.879952 84.95482 
L 331.04349 84.346262 
L 331.116077 85.030525 
L 331.19566 84.565399 
L 331.497959 85.621569 
L 331.59649 85.380929 
L 331.718342 84.751155 
L 331.798217 85.192411 
L 331.950386 84.52495 
L 332.054456 84.797801 
L 332.206335 84.149877 
L 332.234903 84.665492 
L 332.336349 84.602606 
L 332.54274 84.935354 
L 332.566061 85.431111 
L 332.71619 85.843144 
L 332.892556 85.234562 
L 332.947651 85.831435 
L 333.25957 84.826721 
L 333.323411 85.302524 
L 333.465961 84.539002 
L 333.484326 84.976678 
L 333.81461 84.428311 
L 333.871164 85.048726 
L 334.178418 84.571584 
L 334.200573 84.917386 
L 334.343414 84.900628 
L 334.470805 84.477326 
L 334.504329 84.64611 
L 334.583038 85.050594 
L 334.842193 84.338576 
L 334.86668 84.695268 
L 335.159067 85.077394 
L 335.201919 85.023259 
L 335.32931 84.798446 
L 335.34855 84.824604 
L 335.553484 83.982456 
L 335.607705 84.810981 
L 335.869775 83.791092 
L 335.928078 84.077225 
L 335.949941 84.363968 
L 336.013782 84.271962 
L 336.087244 84.19733 
L 336.199767 84.449331 
L 336.278184 84.093738 
L 336.347856 84.206089 
L 336.364472 84.537226 
L 336.486616 84.450593 
L 336.52597 85.163459 
L 336.677265 85.427533 
L 336.699712 85.867721 
L 336.860918 85.861449 
L 337.079844 84.925097 
L 337.139605 85.490925 
L 337.36028 85.471712 
L 337.43928 85.791987 
L 337.459685 86.412298 
L 337.818246 86.331027 
L 337.942139 86.148499 
L 338.10043 85.295413 
L 338.160774 85.750465 
L 338.178556 85.747488 
L 338.335681 84.903059 
L 338.387571 85.21736 
L 338.58784 84.793414 
L 338.630984 85.31981 
L 338.774699 85.639503 
L 338.925995 85.249128 
L 338.949899 85.664797 
L 339.286596 87.5531 
L 339.521264 87.23482 
L 339.538754 87.860909 
L 339.661481 87.193551 
L 339.694131 87.505298 
L 339.71716 88.019705 
L 339.835514 87.975807 
L 339.899939 88.149553 
L 339.929964 88.629571 
L 340.162008 87.551862 
L 340.193783 87.653976 
L 340.318842 88.211361 
L 340.379477 87.759207 
L 340.533104 87.60091 
L 340.648543 87.113006 
L 340.6672 87.904731 
L 340.817621 87.508499 
L 340.854934 88.223946 
L 341.345259 86.362491 
L 341.495971 86.252609 
L 341.516085 86.601645 
L 341.664465 86.445658 
L 341.73676 85.875679 
L 341.791565 85.927896 
L 342.214841 85.627565 
L 342.419775 85.761734 
L 342.571653 85.237235 
L 342.66756 85.828504 
L 343.22639 83.652999 
L 343.264287 84.394594 
L 343.283818 84.390274 
L 343.421704 84.414315 
L 343.519361 84.016601 
L 343.541516 84.528498 
L 343.686397 84.674842 
L 343.99715 84.274172 
L 344.021929 84.621552 
L 344.142323 84.178688 
L 344.203541 84.776283 
L 344.353962 84.562416 
L 344.423342 85.300884 
L 344.631773 84.208833 
L 344.703485 84.989185 
L 344.73905 84.581193 
L 344.84691 84.46516 
L 344.927367 85.283312 
L 345.037559 84.6846 
L 345.074581 85.074174 
L 345.115393 85.207566 
L 345.349769 85.129959 
L 345.371049 85.557269 
L 345.45209 85.511118 
L 345.472787 85.353898 
L 345.501939 85.419453 
L 345.662562 85.409875 
L 345.713577 85.557663 
L 345.784706 86.281714 
L 345.889068 86.285408 
L 345.915012 86.878439 
L 346.069514 86.498775 
L 346.095167 87.125613 
L 346.173584 86.698762 
L 346.310887 86.645281 
L 346.386097 87.255998 
L 346.448189 87.244951 
L 346.535643 87.188803 
L 346.678484 88.377271 
L 346.757192 88.422814 
L 346.85106 88.915239 
L 347.000606 88.665239 
L 347.124207 87.481525 
L 347.175513 87.961877 
L 347.439332 87.213762 
L 347.488598 87.385187 
L 347.743963 87.186662 
L 347.789731 87.421516 
L 347.923826 87.098173 
L 348.18269 85.773736 
L 348.250904 86.02024 
L 348.411527 85.973946 
L 348.461376 85.528855 
L 348.503062 85.562653 
L 348.785538 86.275572 
L 348.803029 86.26632 
L 348.9998 85.372156 
L 349.408501 85.141453 
L 349.580785 85.887435 
L 349.69156 85.512836 
L 349.946633 85.492911 
L 350.021552 85.020836 
L 350.180426 84.750759 
L 350.199083 85.150224 
L 350.319478 85.059922 
L 350.37195 85.7566 
L 350.516541 85.031262 
L 350.537821 85.116208 
L 350.709522 84.726446 
L 350.827002 85.014705 
L 350.907459 84.798822 
L 351.140086 84.27556 
L 351.307706 84.994001 
L 351.382333 84.983168 
L 351.523134 84.731964 
L 351.664518 85.249949 
L 351.705621 86.190115 
L 351.890149 85.782524 
L 352.047857 86.082692 
L 352.202359 86.073451 
L 352.353362 87.088555 
L 352.731746 88.014303 
L 352.858845 88.770605 
L 352.919772 89.807849 
L 353.074273 89.93385 
L 353.157354 90.174993 
L 353.180384 90.775303 
L 353.206912 90.447747 
L 353.296115 89.962256 
L 353.350627 90.573686 
L 353.379487 90.568089 
L 353.643889 90.834598 
L 353.738922 90.767754 
L 353.842992 90.863958 
L 354.214088 89.672245 
L 354.290464 89.710283 
L 354.407944 89.474103 
L 354.553992 89.918307 
L 354.677302 88.720234 
L 354.730066 88.726066 
L 354.748431 89.117117 
L 354.894479 88.988348 
L 355.058601 89.093849 
L 355.162088 88.493731 
L 355.270822 89.020205 
L 355.568165 88.341452 
L 355.587113 88.987726 
L 355.914773 88.503684 
L 356.020593 88.603978 
L 356.049161 88.995883 
L 356.198124 89.253224 
L 356.252054 89.148129 
L 356.360496 88.503294 
L 356.464275 88.698468 
L 356.637142 88.191529 
L 356.735382 88.682046 
L 356.842367 87.69682 
L 356.880264 88.214155 
L 357.014651 87.959277 
L 357.03185 88.069122 
L 357.195972 88.205396 
L 357.216669 88.84714 
L 357.281385 88.380354 
L 357.348725 88.258471 
L 357.395075 87.826207 
L 357.45571 87.862228 
L 357.662975 87.207039 
L 357.680758 87.51413 
L 357.818643 87.34698 
L 357.838466 87.780168 
L 357.98189 87.12119 
L 358.050104 87.199375 
L 358.150385 86.745564 
L 358.216558 87.247916 
L 358.364938 86.674038 
L 358.666071 86.842711 
L 358.687934 87.572763 
L 358.838646 87.727963 
L 358.928432 88.399662 
L 359.075063 87.984774 
L 359.099258 88.595953 
L 359.492509 87.509825 
L 359.71814 86.395961 
L 359.812882 86.426686 
L 359.994494 85.979467 
L 360.110225 86.029098 
L 360.293295 85.290258 
L 360.334981 85.648554 
L 360.560612 84.487089 
L 360.650106 85.117252 
L 360.748054 85.155622 
L 360.819184 85.579071 
L 360.958527 85.252298 
L 360.979516 85.843257 
L 361.076881 85.627206 
L 361.130519 85.556843 
L 361.158213 86.131779 
L 361.296098 85.904195 
L 361.396379 86.093918 
L 361.414744 86.462254 
L 361.649412 87.163728 
L 361.747069 87.018447 
L 361.802748 86.452341 
L 361.84181 86.975047 
L 361.992231 86.729817 
L 362.012054 87.021021 
L 362.162183 86.614482 
L 362.261006 85.456509 
L 362.3024 85.830671 
L 362.413758 85.863015 
L 362.488385 86.154626 
L 362.644636 85.834147 
L 362.668249 86.474582 
L 362.941979 86.934602 
L 363.021562 86.956651 
L 363.041385 87.501004 
L 363.367296 88.00559 
L 363.509263 87.364845 
L 363.52792 88.043623 
L 363.707492 87.843473 
L 363.81885 87.469068 
L 363.867241 87.926164 
L 363.941576 87.505453 
L 364.018827 87.597463 
L 364.03661 87.946045 
L 364.125812 87.753305 
L 364.499532 86.417421 
L 364.570952 86.501009 
L 364.59165 86.441146 
L 364.764225 86.540067 
L 364.820487 86.978244 
L 364.918436 86.560192 
L 365.030959 86.605336 
L 365.280786 87.307554 
L 366.139874 85.269423 
L 366.201383 85.429102 
L 366.294084 84.917854 
L 366.366962 85.701424 
L 366.438091 85.280815 
L 366.552073 85.400528 
L 366.69404 84.731118 
L 366.731936 85.577873 
L 367.091663 84.154197 
L 367.112943 84.184501 
L 367.276774 83.978383 
L 367.385508 84.458687 
L 367.455762 84.40955 
L 367.562456 84.094822 
L 367.83677 84.883967 
L 367.927721 85.937561 
L 367.967076 85.406745 
L 368.06998 84.915325 
L 368.361492 84.635535 
L 368.381315 85.02504 
L 368.439618 84.715288 
L 368.652422 85.063425 
L 369.004861 84.243222 
L 369.07599 84.189474 
L 369.331647 84.361699 
L 369.396654 85.415891 
L 369.496351 84.788056 
L 369.565732 84.997377 
L 369.716444 85.291142 
L 369.863658 85.287223 
L 369.889894 85.618499 
L 370.02224 84.851308 
L 370.060137 85.193064 
L 370.081709 85.226913 
L 370.181698 84.936782 
L 370.225133 85.40617 
L 370.45951 85.169953 
L 370.667067 84.50179 
L 370.73324 84.439246 
L 370.887742 84.034711 
L 370.912229 84.303946 
L 371.138443 84.614738 
L 371.378066 83.462287 
L 371.497295 83.731335 
L 371.586206 83.660598 
L 371.66987 83.157305 
L 371.84507 83.231929 
L 372.328398 82.01442 
L 372.510593 82.347387 
L 372.81056 81.511333 
L 372.858951 81.500108 
L 373.008788 83.151041 
L 373.234128 82.505361 
L 373.25774 82.758965 
L 373.492991 82.337956 
L 373.650991 82.216063 
L 373.779257 81.825831 
L 373.797039 82.12183 
L 373.987688 82.855663 
L 374.265208 82.103581 
L 374.285614 82.698942 
L 374.432537 82.890781 
L 374.451485 82.86139 
L 374.559636 82.759176 
L 374.769525 83.377592 
L 374.943558 82.355694 
L 375.003902 82.373241 
L 375.021392 82.806786 
L 375.168315 82.553 
L 375.235363 82.708209 
L 375.377912 82.555927 
L 375.542034 83.654186 
L 375.748425 82.830875 
L 375.803812 82.938771 
L 376.033524 83.164645 
L 376.173451 83.109294 
L 376.192982 83.612899 
L 376.337864 83.636048 
L 376.359144 83.972332 
L 376.450679 83.927705 
L 376.481871 84.00132 
L 376.608096 83.816156 
L 376.635207 83.836619 
L 376.825565 83.073854 
L 377.001347 83.02358 
L 377.375941 82.549714 
L 377.450276 82.630907 
L 377.510619 82.688036 
L 377.667745 81.475033 
L 377.885213 82.54401 
L 377.937977 82.426125 
L 377.96159 82.453622 
L 378.07149 82.609849 
L 378.15428 84.058883 
L 378.298578 84.384657 
L 378.639357 84.055811 
L 378.658014 84.486985 
L 378.746633 84.301434 
L 378.83263 84.740502 
L 379.080999 83.951062 
L 379.249493 84.260521 
L 379.302548 83.764002 
L 379.354437 83.810504 
L 379.45326 83.827853 
L 379.5206 83.452703 
L 379.608345 83.50733 
L 379.700755 83.772605 
L 379.840972 83.670678 
L 379.858171 83.715658 
L 379.948249 84.709901 
L 380.058441 84.218064 
L 380.091673 84.186556 
L 380.184666 85.468049 
L 380.334503 85.6044 
L 380.372108 85.545802 
L 380.512909 84.674182 
L 380.611732 84.47626 
L 380.967086 83.406658 
L 381.195049 83.177395 
L 381.31661 83.287559 
L 381.468488 83.787994 
L 381.888266 81.664841 
L 381.995834 81.954279 
L 382.16841 81.68351 
L 382.453218 80.839219 
L 382.485284 81.317003 
L 382.549417 81.244051 
L 382.895443 79.868112 
L 382.951705 79.906561 
L 383.053443 80.876956 
L 383.224852 80.3855 
L 383.451066 80.890642 
L 383.541143 80.550986 
L 383.606734 80.722369 
L 383.632095 81.268856 
L 383.785139 81.02341 
L 383.963545 82.275077 
L 384.057412 82.386917 
L 384.149239 82.961722 
L 384.375453 81.976421 
L 384.394693 82.377768 
L 384.675711 81.914781 
L 384.871899 81.556803 
L 384.89522 81.989768 
L 385.010659 81.780641 
L 385.039519 81.81804 
L 385.062548 82.317355 
L 385.129596 81.794707 
L 385.312083 81.784214 
L 385.521389 80.387947 
L 385.573279 81.50626 
L 385.870913 81.123899 
L 385.892193 81.555402 
L 385.91085 81.49541 
L 386.062437 81.197106 
L 386.079928 81.907859 
L 386.124238 81.457365 
L 386.294481 80.605147 
L 386.334127 81.102843 
L 386.357739 81.223061 
L 386.497957 81.226428 
L 386.61602 81.893257 
L 386.723879 82.059517 
L 386.783639 81.973323 
L 386.90316 81.755572 
L 386.981285 81.291231 
L 387.085355 81.80117 
L 387.104595 81.512397 
L 387.285041 80.327541 
L 387.426425 79.960374 
L 387.503676 80.329862 
L 387.520875 81.35639 
L 387.598709 81.325279 
L 387.675377 81.206117 
L 387.849118 80.44087 
L 387.956978 80.289787 
L 388.02286 81.257262 
L 388.140048 81.12923 
L 388.19252 81.755032 
L 388.362764 81.634126 
L 388.466542 81.572732 
L 388.540587 82.376228 
L 388.599764 82.181501 
L 388.686926 82.082833 
L 388.778461 81.594354 
L 388.803823 81.877861 
L 388.997387 83.736254 
L 389.246922 82.641923 
L 389.412793 82.739801 
L 389.48363 82.368728 
L 389.578372 83.242378 
L 389.612187 83.16034 
L 389.741328 82.663927 
L 389.80925 82.85416 
L 389.82849 83.397808 
L 389.948885 82.97761 
L 390.124667 83.231511 
L 390.336888 82.211039 
L 390.375076 82.225365 
L 390.396648 82.654095 
L 390.565726 81.89953 
L 390.583216 82.19331 
L 390.78815 83.160718 
L 390.853157 82.947127 
L 390.921663 83.049374 
L 391.308209 81.945462 
L 391.405574 83.446244 
L 391.471164 83.36975 
L 391.604677 82.645461 
L 391.627123 83.041158 
L 391.647529 83.53993 
L 391.745769 83.293868 
L 391.777836 83.958156 
L 391.948953 83.70459 
L 391.980437 83.395962 
L 392.004049 83.914497 
L 392.029411 84.518789 
L 392.170212 84.825599 
L 392.192367 85.573215 
L 392.341621 85.473533 
L 392.493499 86.372857 
L 392.714466 85.724597 
L 392.743617 86.197801 
L 392.929602 85.206701 
L 392.972163 85.379048 
L 393.007728 85.444256 
L 393.201292 84.927157 
L 393.315857 84.733098 
L 393.464237 83.847862 
L 393.48406 84.100147 
L 393.504465 84.608266 
L 393.596875 84.305529 
L 393.804141 85.216194 
L 393.89072 86.182844 
L 393.96593 86.090877 
L 393.98517 86.544595 
L 394.150458 85.774731 
L 394.237328 85.879979 
L 394.491236 85.490611 
L 394.750391 84.55093 
L 394.797033 85.608955 
L 394.920343 84.96128 
L 395.02587 84.984536 
L 395.121778 85.516482 
L 395.269575 85.379975 
L 395.314176 85.916382 
L 395.416497 85.870049 
L 395.437195 85.950135 
L 395.581494 85.731922 
L 395.66953 86.272164 
L 396.002438 84.905286 
L 396.022261 85.315355 
L 396.142947 84.926114 
L 396.16656 84.946196 
L 396.223405 85.555629 
L 396.324268 85.69022 
L 396.40356 85.579495 
L 396.619862 84.878558 
L 396.693032 84.608058 
L 396.711397 84.825218 
L 396.835581 84.973868 
L 396.996205 84.77225 
L 397.104356 83.747146 
L 397.246031 83.634624 
L 397.432599 82.884166 
L 397.576898 82.650059 
L 397.695835 82.900892 
L 397.875116 82.834328 
L 397.895813 83.27321 
L 397.980935 83.232369 
L 398.043319 83.137292 
L 398.061101 83.505084 
L 398.203359 79.835013 
L 398.223765 80.395225 
L 398.381473 80.34294 
L 398.42899 81.341792 
L 398.605647 81.286545 
L 398.757525 80.437566 
L 398.776473 81.293301 
L 398.925728 80.931004 
L 398.945842 81.346286 
L 399.020761 81.255796 
L 399.058074 80.999214 
L 399.134742 81.198218 
L 399.319853 80.668653 
L 399.381071 81.268343 
L 399.702609 79.652221 
L 399.820089 79.902639 
L 399.842244 80.514255 
L 399.910749 80.058481 
L 400.109852 79.836794 
L 400.254734 78.985451 
L 400.311871 79.29742 
L 400.398741 79.228797 
L 400.459085 79.187566 
L 400.62962 77.77179 
L 400.66635 77.830901 
L 400.694627 78.496607 
L 400.715907 78.478736 
L 400.818811 78.056856 
L 400.854959 78.387613 
L 400.970106 77.819245 
L 400.986431 78.210684 
L 401.121985 77.826254 
L 401.159298 79.050084 
L 401.416995 79.525102 
L 401.438276 79.850463 
L 401.501534 79.373414 
L 401.537099 79.668016 
L 401.622803 79.479581 
L 401.771183 78.688776 
L 401.910527 78.583132 
L 401.929475 78.618234 
L 402.159187 78.997549 
L 402.212242 79.887906 
L 402.284537 79.823047 
L 402.367327 79.612377 
L 402.391523 79.633463 
L 402.557976 79.774494 
L 402.756496 79.651261 
L 402.829666 80.293698 
L 402.937526 79.708283 
L 403.073662 80.140388 
L 403.176566 80.087336 
L 403.411234 79.732801 
L 403.498105 79.925087 
L 403.825182 78.033336 
L 403.896603 79.195749 
L 403.973271 78.706113 
L 404.172665 77.989619 
L 404.447853 77.514408 
L 404.465927 78.17517 
L 404.655119 78.761783 
L 404.704676 78.151856 
L 404.809621 78.180352 
L 404.888912 78.03009 
L 404.957709 78.52738 
L 405.143403 78.919868 
L 405.209576 78.455404 
L 405.366993 78.49151 
L 405.982668 77.074305 
L 406.013277 77.386012 
L 406.125509 77.290189 
L 406.220834 77.652019 
L 406.474158 76.714054 
L 406.598051 76.507249 
L 406.675594 76.975378 
L 406.72311 76.857946 
L 406.814937 76.935862 
L 407.143472 76.322606 
L 407.163294 76.663719 
L 407.337911 77.410546 
L 407.397962 77.341604 
L 407.586571 78.122349 
L 407.769641 77.769646 
L 407.823862 78.205735 
L 407.989733 77.618016 
L 408.339257 77.912498 
L 408.389397 77.459234 
L 408.495216 77.687194 
L 408.599286 77.53258 
L 408.618526 77.547041 
L 408.639223 78.062798 
L 408.753496 77.645594 
L 408.795474 77.686808 
L 408.855526 78.026976 
L 409.098356 77.257847 
L 409.182895 77.617053 
L 409.330692 77.535915 
L 409.454293 78.458166 
L 409.508223 78.418407 
L 409.563319 78.320698 
L 409.56361 79.066495 
L 409.679632 78.605291 
L 409.708784 78.656644 
L 409.729481 79.093969 
L 409.866492 79.208088 
L 409.894186 79.408123 
L 409.918381 79.284998 
L 409.985721 78.87617 
L 410.082794 79.828798 
L 410.230883 79.314839 
L 410.290351 79.810685 
L 410.312798 79.776863 
L 410.444562 79.355092 
L 410.585654 79.204167 
L 410.681562 78.680453 
L 410.726163 78.699974 
L 410.745694 79.043833 
L 410.816532 78.567545 
L 410.899613 79.154187 
L 411.050325 78.300569 
L 411.069565 78.799164 
L 411.152063 78.355391 
L 411.209491 77.867134 
L 411.551436 78.594029 
L 411.748498 78.526686 
L 411.770945 78.996477 
L 411.832162 78.691769 
L 411.863646 78.399521 
L 412.014941 78.825472 
L 412.13038 77.931954 
L 412.273221 77.636985 
L 412.296251 77.729903 
L 412.383996 77.771215 
L 412.465619 77.605191 
L 412.484276 77.68542 
L 412.607586 77.735957 
L 412.781036 77.54299 
L 412.802608 77.86365 
L 412.862951 77.338929 
L 413.043106 77.816266 
L 413.283021 76.891287 
L 413.370475 76.984086 
L 413.492327 77.301349 
L 413.638084 76.521 
L 413.765183 76.58508 
L 413.789379 77.188263 
L 413.937176 77.238127 
L 414.091969 77.535146 
L 414.184378 77.31547 
L 414.221984 77.461384 
L 414.272707 77.535796 
L 414.44091 77.425274 
L 414.589873 77.632536 
L 414.735921 77.639995 
L 414.754577 77.873271 
L 415.028599 77.723545 
L 415.383662 78.645054 
L 415.47199 78.714781 
L 415.492979 79.138449 
L 415.777787 78.790475 
L 415.842211 78.686301 
L 415.998754 79.469194 
L 416.128477 80.486833 
L 416.209226 80.227665 
L 416.359063 80.269517 
L 416.412702 80.674241 
L 416.486455 80.237784 
L 416.556709 80.500998 
L 416.619676 81.720525 
L 416.825484 80.964877 
L 416.909439 80.68518 
L 416.934801 80.779949 
L 417.064524 81.295221 
L 417.099506 81.863363 
L 417.166554 81.383534 
L 417.194247 80.853529 
L 417.301816 80.948208 
L 417.319306 81.315965 
L 417.389269 81.162374 
L 417.501793 80.493051 
L 417.52628 80.624803 
L 417.546395 81.323854 
L 417.595077 81.000121 
L 417.716055 80.824587 
L 417.734421 81.255106 
L 417.809631 80.711334 
L 417.837033 81.228281 
L 417.985704 80.898302 
L 418.033221 81.690313 
L 418.083653 81.419884 
L 418.205505 81.15445 
L 418.376915 80.440455 
L 418.397612 80.883008 
L 418.546283 80.446919 
L 418.566398 80.930932 
L 418.717693 80.832239 
L 418.983553 79.92121 
L 419.090538 79.779847 
L 419.238043 79.267429 
L 419.384674 79.352459 
L 419.538593 78.779591 
L 419.555792 79.003983 
L 419.646453 78.466278 
L 419.700091 78.926301 
L 419.753729 78.816962 
L 420.031541 78.081045 
L 420.111415 78.056191 
L 420.294777 78.134476 
L 420.327426 78.511495 
L 420.491839 78.329475 
L 420.523906 78.406148 
L 420.616315 78.453557 
L 420.859728 80.082961 
L 421.031138 80.496403 
L 421.206046 79.975901 
L 421.400193 80.053487 
L 421.568979 81.075222 
L 421.624366 80.631268 
L 421.852621 80.775396 
L 421.873901 81.250076 
L 421.975056 81.084053 
L 422.124311 81.783057 
L 422.188444 81.366691 
L 422.296595 80.962877 
L 422.493949 81.176738 
L 422.493949 81.176738 
" clip-path="url(#p93b7f30c7e)" style="fill: none; stroke: #008000; stroke-width: 2; stroke-linecap: square"/>
   </g>
   <g id="patch_3">
    <path d="M 55.595313 136.422511 
L 55.595313 25.053563 
" style="fill: none; stroke: #000000; stroke-width: 0.8; stroke-linejoin: miter; stroke-linecap: square"/>
   </g>
   <g id="patch_4">
    <path d="M 439.965312 136.422511 
L 439.965312 25.053563 
" style="fill: none; stroke: #000000; stroke-width: 0.8; stroke-linejoin: miter; stroke-linecap: square"/>
   </g>
   <g id="patch_5">
    <path d="M 55.595313 136.422511 
L 439.965312 136.422511 
" style="fill: none; stroke: #000000; stroke-width: 0.8; stroke-linejoin: miter; stroke-linecap: square"/>
   </g>
   <g id="patch_6">
    <path d="M 55.595313 25.053562 
L 439.965312 25.053562 
" style="fill: none; stroke: #000000; stroke-width: 0.8; stroke-linejoin: miter; stroke-linecap: square"/>
   </g>
   <g id="text_14">
    <!-- Learning Curve Smoothed -->
    <g transform="translate(146.098781 19.053562)scale(0.156 -0.156)">
     <defs>
      <path id="DejaVuSans-4c" d="M 628 4666 
L 1259 4666 
L 1259 531 
L 3531 531 
L 3531 0 
L 628 0 
L 628 4666 
z
" transform="scale(0.015625)"/>
      <path id="DejaVuSans-6e" d="M 3513 2113 
L 3513 0 
L 2938 0 
L 2938 2094 
Q 2938 2591 2744 2837 
Q 2550 3084 2163 3084 
Q 1697 3084 1428 2787 
Q 1159 2491 1159 1978 
L 1159 0 
L 581 0 
L 581 3500 
L 1159 3500 
L 1159 2956 
Q 1366 3272 1645 3428 
Q 1925 3584 2291 3584 
Q 2894 3584 3203 3211 
Q 3513 2838 3513 2113 
z
" transform="scale(0.015625)"/>
      <path id="DejaVuSans-67" d="M 2906 1791 
Q 2906 2416 2648 2759 
Q 2391 3103 1925 3103 
Q 1463 3103 1205 2759 
Q 947 2416 947 1791 
Q 947 1169 1205 825 
Q 1463 481 1925 481 
Q 2391 481 2648 825 
Q 2906 1169 2906 1791 
z
M 3481 434 
Q 3481 -459 3084 -895 
Q 2688 -1331 1869 -1331 
Q 1566 -1331 1297 -1286 
Q 1028 -1241 775 -1147 
L 775 -588 
Q 1028 -725 1275 -790 
Q 1522 -856 1778 -856 
Q 2344 -856 2625 -561 
Q 2906 -266 2906 331 
L 2906 616 
Q 2728 306 2450 153 
Q 2172 0 1784 0 
Q 1141 0 747 490 
Q 353 981 353 1791 
Q 353 2603 747 3093 
Q 1141 3584 1784 3584 
Q 2172 3584 2450 3431 
Q 2728 3278 2906 2969 
L 2906 3500 
L 3481 3500 
L 3481 434 
z
" transform="scale(0.015625)"/>
      <path id="DejaVuSans-43" d="M 4122 4306 
L 4122 3641 
Q 3803 3938 3442 4084 
Q 3081 4231 2675 4231 
Q 1875 4231 1450 3742 
Q 1025 3253 1025 2328 
Q 1025 1406 1450 917 
Q 1875 428 2675 428 
Q 3081 428 3442 575 
Q 3803 722 4122 1019 
L 4122 359 
Q 3791 134 3420 21 
Q 3050 -91 2638 -91 
Q 1578 -91 968 557 
Q 359 1206 359 2328 
Q 359 3453 968 4101 
Q 1578 4750 2638 4750 
Q 3056 4750 3426 4639 
Q 3797 4528 4122 4306 
z
" transform="scale(0.015625)"/>
      <path id="DejaVuSans-76" d="M 191 3500 
L 800 3500 
L 1894 563 
L 2988 3500 
L 3597 3500 
L 2284 0 
L 1503 0 
L 191 3500 
z
" transform="scale(0.015625)"/>
      <path id="DejaVuSans-53" d="M 3425 4513 
L 3425 3897 
Q 3066 4069 2747 4153 
Q 2428 4238 2131 4238 
Q 1616 4238 1336 4038 
Q 1056 3838 1056 3469 
Q 1056 3159 1242 3001 
Q 1428 2844 1947 2747 
L 2328 2669 
Q 3034 2534 3370 2195 
Q 3706 1856 3706 1288 
Q 3706 609 3251 259 
Q 2797 -91 1919 -91 
Q 1588 -91 1214 -16 
Q 841 59 441 206 
L 441 856 
Q 825 641 1194 531 
Q 1563 422 1919 422 
Q 2459 422 2753 634 
Q 3047 847 3047 1241 
Q 3047 1584 2836 1778 
Q 2625 1972 2144 2069 
L 1759 2144 
Q 1053 2284 737 2584 
Q 422 2884 422 3419 
Q 422 4038 858 4394 
Q 1294 4750 2059 4750 
Q 2388 4750 2728 4690 
Q 3069 4631 3425 4513 
z
" transform="scale(0.015625)"/>
      <path id="DejaVuSans-68" d="M 3513 2113 
L 3513 0 
L 2938 0 
L 2938 2094 
Q 2938 2591 2744 2837 
Q 2550 3084 2163 3084 
Q 1697 3084 1428 2787 
Q 1159 2491 1159 1978 
L 1159 0 
L 581 0 
L 581 4863 
L 1159 4863 
L 1159 2956 
Q 1366 3272 1645 3428 
Q 1925 3584 2291 3584 
Q 2894 3584 3203 3211 
Q 3513 2838 3513 2113 
z
" transform="scale(0.015625)"/>
     </defs>
     <use xlink:href="#DejaVuSans-4c"/>
     <use xlink:href="#DejaVuSans-65" x="53.962891"/>
     <use xlink:href="#DejaVuSans-61" x="115.486328"/>
     <use xlink:href="#DejaVuSans-72" x="176.765625"/>
     <use xlink:href="#DejaVuSans-6e" x="216.128906"/>
     <use xlink:href="#DejaVuSans-69" x="279.507812"/>
     <use xlink:href="#DejaVuSans-6e" x="307.291016"/>
     <use xlink:href="#DejaVuSans-67" x="370.669922"/>
     <use xlink:href="#DejaVuSans-20" x="434.146484"/>
     <use xlink:href="#DejaVuSans-43" x="465.933594"/>
     <use xlink:href="#DejaVuSans-75" x="535.757812"/>
     <use xlink:href="#DejaVuSans-72" x="599.136719"/>
     <use xlink:href="#DejaVuSans-76" x="640.25"/>
     <use xlink:href="#DejaVuSans-65" x="699.429688"/>
     <use xlink:href="#DejaVuSans-20" x="760.953125"/>
     <use xlink:href="#DejaVuSans-53" x="792.740234"/>
     <use xlink:href="#DejaVuSans-6d" x="856.216797"/>
     <use xlink:href="#DejaVuSans-6f" x="953.628906"/>
     <use xlink:href="#DejaVuSans-6f" x="1014.810547"/>
     <use xlink:href="#DejaVuSans-74" x="1075.992188"/>
     <use xlink:href="#DejaVuSans-68" x="1115.201172"/>
     <use xlink:href="#DejaVuSans-65" x="1178.580078"/>
     <use xlink:href="#DejaVuSans-64" x="1240.103516"/>
    </g>
   </g>
   <g id="legend_1">
    <g id="patch_7">
     <path d="M 286.134687 129.922511 
L 430.865312 129.922511 
Q 433.465312 129.922511 433.465312 127.322511 
L 433.465312 109.540948 
Q 433.465312 106.940948 430.865312 106.940948 
L 286.134687 106.940948 
Q 283.534687 106.940948 283.534687 109.540948 
L 283.534687 127.322511 
Q 283.534687 129.922511 286.134687 129.922511 
z
" style="fill: #ffffff; opacity: 0.8; stroke: #cccccc; stroke-linejoin: miter"/>
    </g>
    <g id="line2d_22">
     <path d="M 288.734687 117.468917 
L 301.734687 117.468917 
L 314.734687 117.468917 
" style="fill: none; stroke: #008000; stroke-width: 2; stroke-linecap: square"/>
    </g>
    <g id="text_15">
     <!-- Filter size: 1000 -->
     <g transform="translate(325.134687 122.018917)scale(0.13 -0.13)">
      <defs>
       <path id="DejaVuSans-46" d="M 628 4666 
L 3309 4666 
L 3309 4134 
L 1259 4134 
L 1259 2759 
L 3109 2759 
L 3109 2228 
L 1259 2228 
L 1259 0 
L 628 0 
L 628 4666 
z
" transform="scale(0.015625)"/>
       <path id="DejaVuSans-6c" d="M 603 4863 
L 1178 4863 
L 1178 0 
L 603 0 
L 603 4863 
z
" transform="scale(0.015625)"/>
       <path id="DejaVuSans-7a" d="M 353 3500 
L 3084 3500 
L 3084 2975 
L 922 459 
L 3084 459 
L 3084 0 
L 275 0 
L 275 525 
L 2438 3041 
L 353 3041 
L 353 3500 
z
" transform="scale(0.015625)"/>
       <path id="DejaVuSans-3a" d="M 750 794 
L 1409 794 
L 1409 0 
L 750 0 
L 750 794 
z
M 750 3309 
L 1409 3309 
L 1409 2516 
L 750 2516 
L 750 3309 
z
" transform="scale(0.015625)"/>
      </defs>
      <use xlink:href="#DejaVuSans-46"/>
      <use xlink:href="#DejaVuSans-69" x="50.269531"/>
      <use xlink:href="#DejaVuSans-6c" x="78.052734"/>
      <use xlink:href="#DejaVuSans-74" x="105.835938"/>
      <use xlink:href="#DejaVuSans-65" x="145.044922"/>
      <use xlink:href="#DejaVuSans-72" x="206.568359"/>
      <use xlink:href="#DejaVuSans-20" x="247.681641"/>
      <use xlink:href="#DejaVuSans-73" x="279.46875"/>
      <use xlink:href="#DejaVuSans-69" x="331.568359"/>
      <use xlink:href="#DejaVuSans-7a" x="359.351562"/>
      <use xlink:href="#DejaVuSans-65" x="411.841797"/>
      <use xlink:href="#DejaVuSans-3a" x="473.365234"/>
      <use xlink:href="#DejaVuSans-20" x="507.056641"/>
      <use xlink:href="#DejaVuSans-31" x="538.84375"/>
      <use xlink:href="#DejaVuSans-30" x="602.466797"/>
      <use xlink:href="#DejaVuSans-30" x="666.089844"/>
      <use xlink:href="#DejaVuSans-30" x="729.712891"/>
     </g>
    </g>
   </g>
  </g>
 </g>
 <defs>
  <clipPath id="p93b7f30c7e">
   <rect x="55.595313" y="25.053562" width="384.37" height="111.368948"/>
  </clipPath>
 </defs>
</svg>
