<?xml version="1.0" encoding="utf-8" standalone="no"?>
<!DOCTYPE svg PUBLIC "-//W3C//DTD SVG 1.1//EN"
  "http://www.w3.org/Graphics/SVG/1.1/DTD/svg11.dtd">
<svg xmlns:xlink="http://www.w3.org/1999/xlink" width="460.8pt" height="345.6pt" viewBox="0 0 460.8 345.6" xmlns="http://www.w3.org/2000/svg" version="1.1">
 <metadata>
  <rdf:RDF xmlns:dc="http://purl.org/dc/elements/1.1/" xmlns:cc="http://creativecommons.org/ns#" xmlns:rdf="http://www.w3.org/1999/02/22-rdf-syntax-ns#">
   <cc:Work>
    <dc:type rdf:resource="http://purl.org/dc/dcmitype/StillImage"/>
    <dc:date>2022-06-04T14:11:50.653144</dc:date>
    <dc:format>image/svg+xml</dc:format>
    <dc:creator>
     <cc:Agent>
      <dc:title>Matplotlib v3.5.1, https://matplotlib.org/</dc:title>
     </cc:Agent>
    </dc:creator>
   </cc:Work>
  </rdf:RDF>
 </metadata>
 <defs>
  <style type="text/css">*{stroke-linejoin: round; stroke-linecap: butt}</style>
 </defs>
 <g id="figure_1">
  <g id="patch_1">
   <path d="M 0 345.6 
L 460.8 345.6 
L 460.8 0 
L 0 0 
z
" style="fill: #ffffff"/>
  </g>
  <g id="axes_1">
   <g id="patch_2">
    <path d="M 62.66 294.64 
L 446.76 294.64 
L 446.76 31.56 
L 62.66 31.56 
z
" style="fill: #ffffff"/>
   </g>
   <g id="matplotlib.axis_1">
    <g id="xtick_1">
     <g id="line2d_1">
      <path d="M 90.97672 294.64 
L 90.97672 31.56 
" clip-path="url(#pe39734a3a0)" style="fill: none; stroke: #b0b0b0; stroke-width: 0.8; stroke-linecap: square"/>
     </g>
     <g id="line2d_2">
      <defs>
       <path id="m7e9744b9c6" d="M 0 0 
L 0 3.5 
" style="stroke: #000000; stroke-width: 0.8"/>
      </defs>
      <g>
       <use xlink:href="#m7e9744b9c6" x="90.97672" y="294.64" style="stroke: #000000; stroke-width: 0.8"/>
      </g>
     </g>
     <g id="text_1">
      <!-- 0.2 -->
      <g transform="translate(80.639689 311.517969)scale(0.13 -0.13)">
       <defs>
        <path id="DejaVuSans-30" d="M 2034 4250 
Q 1547 4250 1301 3770 
Q 1056 3291 1056 2328 
Q 1056 1369 1301 889 
Q 1547 409 2034 409 
Q 2525 409 2770 889 
Q 3016 1369 3016 2328 
Q 3016 3291 2770 3770 
Q 2525 4250 2034 4250 
z
M 2034 4750 
Q 2819 4750 3233 4129 
Q 3647 3509 3647 2328 
Q 3647 1150 3233 529 
Q 2819 -91 2034 -91 
Q 1250 -91 836 529 
Q 422 1150 422 2328 
Q 422 3509 836 4129 
Q 1250 4750 2034 4750 
z
" transform="scale(0.015625)"/>
        <path id="DejaVuSans-2e" d="M 684 794 
L 1344 794 
L 1344 0 
L 684 0 
L 684 794 
z
" transform="scale(0.015625)"/>
        <path id="DejaVuSans-32" d="M 1228 531 
L 3431 531 
L 3431 0 
L 469 0 
L 469 531 
Q 828 903 1448 1529 
Q 2069 2156 2228 2338 
Q 2531 2678 2651 2914 
Q 2772 3150 2772 3378 
Q 2772 3750 2511 3984 
Q 2250 4219 1831 4219 
Q 1534 4219 1204 4116 
Q 875 4013 500 3803 
L 500 4441 
Q 881 4594 1212 4672 
Q 1544 4750 1819 4750 
Q 2544 4750 2975 4387 
Q 3406 4025 3406 3419 
Q 3406 3131 3298 2873 
Q 3191 2616 2906 2266 
Q 2828 2175 2409 1742 
Q 1991 1309 1228 531 
z
" transform="scale(0.015625)"/>
       </defs>
       <use xlink:href="#DejaVuSans-30"/>
       <use xlink:href="#DejaVuSans-2e" x="63.623047"/>
       <use xlink:href="#DejaVuSans-32" x="95.410156"/>
      </g>
     </g>
    </g>
    <g id="xtick_2">
     <g id="line2d_3">
      <path d="M 147.303908 294.64 
L 147.303908 31.56 
" clip-path="url(#pe39734a3a0)" style="fill: none; stroke: #b0b0b0; stroke-width: 0.8; stroke-linecap: square"/>
     </g>
     <g id="line2d_4">
      <g>
       <use xlink:href="#m7e9744b9c6" x="147.303908" y="294.64" style="stroke: #000000; stroke-width: 0.8"/>
      </g>
     </g>
     <g id="text_2">
      <!-- 0.4 -->
      <g transform="translate(136.966877 311.517969)scale(0.13 -0.13)">
       <defs>
        <path id="DejaVuSans-34" d="M 2419 4116 
L 825 1625 
L 2419 1625 
L 2419 4116 
z
M 2253 4666 
L 3047 4666 
L 3047 1625 
L 3713 1625 
L 3713 1100 
L 3047 1100 
L 3047 0 
L 2419 0 
L 2419 1100 
L 313 1100 
L 313 1709 
L 2253 4666 
z
" transform="scale(0.015625)"/>
       </defs>
       <use xlink:href="#DejaVuSans-30"/>
       <use xlink:href="#DejaVuSans-2e" x="63.623047"/>
       <use xlink:href="#DejaVuSans-34" x="95.410156"/>
      </g>
     </g>
    </g>
    <g id="xtick_3">
     <g id="line2d_5">
      <path d="M 203.631097 294.64 
L 203.631097 31.56 
" clip-path="url(#pe39734a3a0)" style="fill: none; stroke: #b0b0b0; stroke-width: 0.8; stroke-linecap: square"/>
     </g>
     <g id="line2d_6">
      <g>
       <use xlink:href="#m7e9744b9c6" x="203.631097" y="294.64" style="stroke: #000000; stroke-width: 0.8"/>
      </g>
     </g>
     <g id="text_3">
      <!-- 0.6 -->
      <g transform="translate(193.294066 311.517969)scale(0.13 -0.13)">
       <defs>
        <path id="DejaVuSans-36" d="M 2113 2584 
Q 1688 2584 1439 2293 
Q 1191 2003 1191 1497 
Q 1191 994 1439 701 
Q 1688 409 2113 409 
Q 2538 409 2786 701 
Q 3034 994 3034 1497 
Q 3034 2003 2786 2293 
Q 2538 2584 2113 2584 
z
M 3366 4563 
L 3366 3988 
Q 3128 4100 2886 4159 
Q 2644 4219 2406 4219 
Q 1781 4219 1451 3797 
Q 1122 3375 1075 2522 
Q 1259 2794 1537 2939 
Q 1816 3084 2150 3084 
Q 2853 3084 3261 2657 
Q 3669 2231 3669 1497 
Q 3669 778 3244 343 
Q 2819 -91 2113 -91 
Q 1303 -91 875 529 
Q 447 1150 447 2328 
Q 447 3434 972 4092 
Q 1497 4750 2381 4750 
Q 2619 4750 2861 4703 
Q 3103 4656 3366 4563 
z
" transform="scale(0.015625)"/>
       </defs>
       <use xlink:href="#DejaVuSans-30"/>
       <use xlink:href="#DejaVuSans-2e" x="63.623047"/>
       <use xlink:href="#DejaVuSans-36" x="95.410156"/>
      </g>
     </g>
    </g>
    <g id="xtick_4">
     <g id="line2d_7">
      <path d="M 259.958286 294.64 
L 259.958286 31.56 
" clip-path="url(#pe39734a3a0)" style="fill: none; stroke: #b0b0b0; stroke-width: 0.8; stroke-linecap: square"/>
     </g>
     <g id="line2d_8">
      <g>
       <use xlink:href="#m7e9744b9c6" x="259.958286" y="294.64" style="stroke: #000000; stroke-width: 0.8"/>
      </g>
     </g>
     <g id="text_4">
      <!-- 0.8 -->
      <g transform="translate(249.621255 311.517969)scale(0.13 -0.13)">
       <defs>
        <path id="DejaVuSans-38" d="M 2034 2216 
Q 1584 2216 1326 1975 
Q 1069 1734 1069 1313 
Q 1069 891 1326 650 
Q 1584 409 2034 409 
Q 2484 409 2743 651 
Q 3003 894 3003 1313 
Q 3003 1734 2745 1975 
Q 2488 2216 2034 2216 
z
M 1403 2484 
Q 997 2584 770 2862 
Q 544 3141 544 3541 
Q 544 4100 942 4425 
Q 1341 4750 2034 4750 
Q 2731 4750 3128 4425 
Q 3525 4100 3525 3541 
Q 3525 3141 3298 2862 
Q 3072 2584 2669 2484 
Q 3125 2378 3379 2068 
Q 3634 1759 3634 1313 
Q 3634 634 3220 271 
Q 2806 -91 2034 -91 
Q 1263 -91 848 271 
Q 434 634 434 1313 
Q 434 1759 690 2068 
Q 947 2378 1403 2484 
z
M 1172 3481 
Q 1172 3119 1398 2916 
Q 1625 2713 2034 2713 
Q 2441 2713 2670 2916 
Q 2900 3119 2900 3481 
Q 2900 3844 2670 4047 
Q 2441 4250 2034 4250 
Q 1625 4250 1398 4047 
Q 1172 3844 1172 3481 
z
" transform="scale(0.015625)"/>
       </defs>
       <use xlink:href="#DejaVuSans-30"/>
       <use xlink:href="#DejaVuSans-2e" x="63.623047"/>
       <use xlink:href="#DejaVuSans-38" x="95.410156"/>
      </g>
     </g>
    </g>
    <g id="xtick_5">
     <g id="line2d_9">
      <path d="M 316.285474 294.64 
L 316.285474 31.56 
" clip-path="url(#pe39734a3a0)" style="fill: none; stroke: #b0b0b0; stroke-width: 0.8; stroke-linecap: square"/>
     </g>
     <g id="line2d_10">
      <g>
       <use xlink:href="#m7e9744b9c6" x="316.285474" y="294.64" style="stroke: #000000; stroke-width: 0.8"/>
      </g>
     </g>
     <g id="text_5">
      <!-- 1.0 -->
      <g transform="translate(305.948443 311.517969)scale(0.13 -0.13)">
       <defs>
        <path id="DejaVuSans-31" d="M 794 531 
L 1825 531 
L 1825 4091 
L 703 3866 
L 703 4441 
L 1819 4666 
L 2450 4666 
L 2450 531 
L 3481 531 
L 3481 0 
L 794 0 
L 794 531 
z
" transform="scale(0.015625)"/>
       </defs>
       <use xlink:href="#DejaVuSans-31"/>
       <use xlink:href="#DejaVuSans-2e" x="63.623047"/>
       <use xlink:href="#DejaVuSans-30" x="95.410156"/>
      </g>
     </g>
    </g>
    <g id="xtick_6">
     <g id="line2d_11">
      <path d="M 372.612663 294.64 
L 372.612663 31.56 
" clip-path="url(#pe39734a3a0)" style="fill: none; stroke: #b0b0b0; stroke-width: 0.8; stroke-linecap: square"/>
     </g>
     <g id="line2d_12">
      <g>
       <use xlink:href="#m7e9744b9c6" x="372.612663" y="294.64" style="stroke: #000000; stroke-width: 0.8"/>
      </g>
     </g>
     <g id="text_6">
      <!-- 1.2 -->
      <g transform="translate(362.275632 311.517969)scale(0.13 -0.13)">
       <use xlink:href="#DejaVuSans-31"/>
       <use xlink:href="#DejaVuSans-2e" x="63.623047"/>
       <use xlink:href="#DejaVuSans-32" x="95.410156"/>
      </g>
     </g>
    </g>
    <g id="xtick_7">
     <g id="line2d_13">
      <path d="M 428.939852 294.64 
L 428.939852 31.56 
" clip-path="url(#pe39734a3a0)" style="fill: none; stroke: #b0b0b0; stroke-width: 0.8; stroke-linecap: square"/>
     </g>
     <g id="line2d_14">
      <g>
       <use xlink:href="#m7e9744b9c6" x="428.939852" y="294.64" style="stroke: #000000; stroke-width: 0.8"/>
      </g>
     </g>
     <g id="text_7">
      <!-- 1.4 -->
      <g transform="translate(418.602821 311.517969)scale(0.13 -0.13)">
       <use xlink:href="#DejaVuSans-31"/>
       <use xlink:href="#DejaVuSans-2e" x="63.623047"/>
       <use xlink:href="#DejaVuSans-34" x="95.410156"/>
      </g>
     </g>
    </g>
    <g id="text_8">
     <!-- Number of Timesteps -->
     <g transform="translate(184.85125 328.099531)scale(0.13 -0.13)">
      <defs>
       <path id="DejaVuSans-4e" d="M 628 4666 
L 1478 4666 
L 3547 763 
L 3547 4666 
L 4159 4666 
L 4159 0 
L 3309 0 
L 1241 3903 
L 1241 0 
L 628 0 
L 628 4666 
z
" transform="scale(0.015625)"/>
       <path id="DejaVuSans-75" d="M 544 1381 
L 544 3500 
L 1119 3500 
L 1119 1403 
Q 1119 906 1312 657 
Q 1506 409 1894 409 
Q 2359 409 2629 706 
Q 2900 1003 2900 1516 
L 2900 3500 
L 3475 3500 
L 3475 0 
L 2900 0 
L 2900 538 
Q 2691 219 2414 64 
Q 2138 -91 1772 -91 
Q 1169 -91 856 284 
Q 544 659 544 1381 
z
M 1991 3584 
L 1991 3584 
z
" transform="scale(0.015625)"/>
       <path id="DejaVuSans-6d" d="M 3328 2828 
Q 3544 3216 3844 3400 
Q 4144 3584 4550 3584 
Q 5097 3584 5394 3201 
Q 5691 2819 5691 2113 
L 5691 0 
L 5113 0 
L 5113 2094 
Q 5113 2597 4934 2840 
Q 4756 3084 4391 3084 
Q 3944 3084 3684 2787 
Q 3425 2491 3425 1978 
L 3425 0 
L 2847 0 
L 2847 2094 
Q 2847 2600 2669 2842 
Q 2491 3084 2119 3084 
Q 1678 3084 1418 2786 
Q 1159 2488 1159 1978 
L 1159 0 
L 581 0 
L 581 3500 
L 1159 3500 
L 1159 2956 
Q 1356 3278 1631 3431 
Q 1906 3584 2284 3584 
Q 2666 3584 2933 3390 
Q 3200 3197 3328 2828 
z
" transform="scale(0.015625)"/>
       <path id="DejaVuSans-62" d="M 3116 1747 
Q 3116 2381 2855 2742 
Q 2594 3103 2138 3103 
Q 1681 3103 1420 2742 
Q 1159 2381 1159 1747 
Q 1159 1113 1420 752 
Q 1681 391 2138 391 
Q 2594 391 2855 752 
Q 3116 1113 3116 1747 
z
M 1159 2969 
Q 1341 3281 1617 3432 
Q 1894 3584 2278 3584 
Q 2916 3584 3314 3078 
Q 3713 2572 3713 1747 
Q 3713 922 3314 415 
Q 2916 -91 2278 -91 
Q 1894 -91 1617 61 
Q 1341 213 1159 525 
L 1159 0 
L 581 0 
L 581 4863 
L 1159 4863 
L 1159 2969 
z
" transform="scale(0.015625)"/>
       <path id="DejaVuSans-65" d="M 3597 1894 
L 3597 1613 
L 953 1613 
Q 991 1019 1311 708 
Q 1631 397 2203 397 
Q 2534 397 2845 478 
Q 3156 559 3463 722 
L 3463 178 
Q 3153 47 2828 -22 
Q 2503 -91 2169 -91 
Q 1331 -91 842 396 
Q 353 884 353 1716 
Q 353 2575 817 3079 
Q 1281 3584 2069 3584 
Q 2775 3584 3186 3129 
Q 3597 2675 3597 1894 
z
M 3022 2063 
Q 3016 2534 2758 2815 
Q 2500 3097 2075 3097 
Q 1594 3097 1305 2825 
Q 1016 2553 972 2059 
L 3022 2063 
z
" transform="scale(0.015625)"/>
       <path id="DejaVuSans-72" d="M 2631 2963 
Q 2534 3019 2420 3045 
Q 2306 3072 2169 3072 
Q 1681 3072 1420 2755 
Q 1159 2438 1159 1844 
L 1159 0 
L 581 0 
L 581 3500 
L 1159 3500 
L 1159 2956 
Q 1341 3275 1631 3429 
Q 1922 3584 2338 3584 
Q 2397 3584 2469 3576 
Q 2541 3569 2628 3553 
L 2631 2963 
z
" transform="scale(0.015625)"/>
       <path id="DejaVuSans-20" transform="scale(0.015625)"/>
       <path id="DejaVuSans-6f" d="M 1959 3097 
Q 1497 3097 1228 2736 
Q 959 2375 959 1747 
Q 959 1119 1226 758 
Q 1494 397 1959 397 
Q 2419 397 2687 759 
Q 2956 1122 2956 1747 
Q 2956 2369 2687 2733 
Q 2419 3097 1959 3097 
z
M 1959 3584 
Q 2709 3584 3137 3096 
Q 3566 2609 3566 1747 
Q 3566 888 3137 398 
Q 2709 -91 1959 -91 
Q 1206 -91 779 398 
Q 353 888 353 1747 
Q 353 2609 779 3096 
Q 1206 3584 1959 3584 
z
" transform="scale(0.015625)"/>
       <path id="DejaVuSans-66" d="M 2375 4863 
L 2375 4384 
L 1825 4384 
Q 1516 4384 1395 4259 
Q 1275 4134 1275 3809 
L 1275 3500 
L 2222 3500 
L 2222 3053 
L 1275 3053 
L 1275 0 
L 697 0 
L 697 3053 
L 147 3053 
L 147 3500 
L 697 3500 
L 697 3744 
Q 697 4328 969 4595 
Q 1241 4863 1831 4863 
L 2375 4863 
z
" transform="scale(0.015625)"/>
       <path id="DejaVuSans-54" d="M -19 4666 
L 3928 4666 
L 3928 4134 
L 2272 4134 
L 2272 0 
L 1638 0 
L 1638 4134 
L -19 4134 
L -19 4666 
z
" transform="scale(0.015625)"/>
       <path id="DejaVuSans-69" d="M 603 3500 
L 1178 3500 
L 1178 0 
L 603 0 
L 603 3500 
z
M 603 4863 
L 1178 4863 
L 1178 4134 
L 603 4134 
L 603 4863 
z
" transform="scale(0.015625)"/>
       <path id="DejaVuSans-73" d="M 2834 3397 
L 2834 2853 
Q 2591 2978 2328 3040 
Q 2066 3103 1784 3103 
Q 1356 3103 1142 2972 
Q 928 2841 928 2578 
Q 928 2378 1081 2264 
Q 1234 2150 1697 2047 
L 1894 2003 
Q 2506 1872 2764 1633 
Q 3022 1394 3022 966 
Q 3022 478 2636 193 
Q 2250 -91 1575 -91 
Q 1294 -91 989 -36 
Q 684 19 347 128 
L 347 722 
Q 666 556 975 473 
Q 1284 391 1588 391 
Q 1994 391 2212 530 
Q 2431 669 2431 922 
Q 2431 1156 2273 1281 
Q 2116 1406 1581 1522 
L 1381 1569 
Q 847 1681 609 1914 
Q 372 2147 372 2553 
Q 372 3047 722 3315 
Q 1072 3584 1716 3584 
Q 2034 3584 2315 3537 
Q 2597 3491 2834 3397 
z
" transform="scale(0.015625)"/>
       <path id="DejaVuSans-74" d="M 1172 4494 
L 1172 3500 
L 2356 3500 
L 2356 3053 
L 1172 3053 
L 1172 1153 
Q 1172 725 1289 603 
Q 1406 481 1766 481 
L 2356 481 
L 2356 0 
L 1766 0 
Q 1100 0 847 248 
Q 594 497 594 1153 
L 594 3053 
L 172 3053 
L 172 3500 
L 594 3500 
L 594 4494 
L 1172 4494 
z
" transform="scale(0.015625)"/>
       <path id="DejaVuSans-70" d="M 1159 525 
L 1159 -1331 
L 581 -1331 
L 581 3500 
L 1159 3500 
L 1159 2969 
Q 1341 3281 1617 3432 
Q 1894 3584 2278 3584 
Q 2916 3584 3314 3078 
Q 3713 2572 3713 1747 
Q 3713 922 3314 415 
Q 2916 -91 2278 -91 
Q 1894 -91 1617 61 
Q 1341 213 1159 525 
z
M 3116 1747 
Q 3116 2381 2855 2742 
Q 2594 3103 2138 3103 
Q 1681 3103 1420 2742 
Q 1159 2381 1159 1747 
Q 1159 1113 1420 752 
Q 1681 391 2138 391 
Q 2594 391 2855 752 
Q 3116 1113 3116 1747 
z
" transform="scale(0.015625)"/>
      </defs>
      <use xlink:href="#DejaVuSans-4e"/>
      <use xlink:href="#DejaVuSans-75" x="74.804688"/>
      <use xlink:href="#DejaVuSans-6d" x="138.183594"/>
      <use xlink:href="#DejaVuSans-62" x="235.595703"/>
      <use xlink:href="#DejaVuSans-65" x="299.072266"/>
      <use xlink:href="#DejaVuSans-72" x="360.595703"/>
      <use xlink:href="#DejaVuSans-20" x="401.708984"/>
      <use xlink:href="#DejaVuSans-6f" x="433.496094"/>
      <use xlink:href="#DejaVuSans-66" x="494.677734"/>
      <use xlink:href="#DejaVuSans-20" x="529.882812"/>
      <use xlink:href="#DejaVuSans-54" x="561.669922"/>
      <use xlink:href="#DejaVuSans-69" x="619.628906"/>
      <use xlink:href="#DejaVuSans-6d" x="647.412109"/>
      <use xlink:href="#DejaVuSans-65" x="744.824219"/>
      <use xlink:href="#DejaVuSans-73" x="806.347656"/>
      <use xlink:href="#DejaVuSans-74" x="858.447266"/>
      <use xlink:href="#DejaVuSans-65" x="897.65625"/>
      <use xlink:href="#DejaVuSans-70" x="959.179688"/>
      <use xlink:href="#DejaVuSans-73" x="1022.65625"/>
     </g>
    </g>
    <g id="text_9">
     <!-- 1e6 -->
     <g transform="translate(422.218437 327.099531)scale(0.13 -0.13)">
      <use xlink:href="#DejaVuSans-31"/>
      <use xlink:href="#DejaVuSans-65" x="63.623047"/>
      <use xlink:href="#DejaVuSans-36" x="125.146484"/>
     </g>
    </g>
   </g>
   <g id="matplotlib.axis_2">
    <g id="ytick_1">
     <g id="line2d_15">
      <path d="M 62.66 260.609054 
L 446.76 260.609054 
" clip-path="url(#pe39734a3a0)" style="fill: none; stroke: #b0b0b0; stroke-width: 0.8; stroke-linecap: square"/>
     </g>
     <g id="line2d_16">
      <defs>
       <path id="mbe8caf7633" d="M 0 0 
L -3.5 0 
" style="stroke: #000000; stroke-width: 0.8"/>
      </defs>
      <g>
       <use xlink:href="#mbe8caf7633" x="62.66" y="260.609054" style="stroke: #000000; stroke-width: 0.8"/>
      </g>
     </g>
     <g id="text_10">
      <!-- 100 -->
      <g transform="translate(30.84625 265.548038)scale(0.13 -0.13)">
       <use xlink:href="#DejaVuSans-31"/>
       <use xlink:href="#DejaVuSans-30" x="63.623047"/>
       <use xlink:href="#DejaVuSans-30" x="127.246094"/>
      </g>
     </g>
    </g>
    <g id="ytick_2">
     <g id="line2d_17">
      <path d="M 62.66 223.830612 
L 446.76 223.830612 
" clip-path="url(#pe39734a3a0)" style="fill: none; stroke: #b0b0b0; stroke-width: 0.8; stroke-linecap: square"/>
     </g>
     <g id="line2d_18">
      <g>
       <use xlink:href="#mbe8caf7633" x="62.66" y="223.830612" style="stroke: #000000; stroke-width: 0.8"/>
      </g>
     </g>
     <g id="text_11">
      <!-- 120 -->
      <g transform="translate(30.84625 228.769597)scale(0.13 -0.13)">
       <use xlink:href="#DejaVuSans-31"/>
       <use xlink:href="#DejaVuSans-32" x="63.623047"/>
       <use xlink:href="#DejaVuSans-30" x="127.246094"/>
      </g>
     </g>
    </g>
    <g id="ytick_3">
     <g id="line2d_19">
      <path d="M 62.66 187.052171 
L 446.76 187.052171 
" clip-path="url(#pe39734a3a0)" style="fill: none; stroke: #b0b0b0; stroke-width: 0.8; stroke-linecap: square"/>
     </g>
     <g id="line2d_20">
      <g>
       <use xlink:href="#mbe8caf7633" x="62.66" y="187.052171" style="stroke: #000000; stroke-width: 0.8"/>
      </g>
     </g>
     <g id="text_12">
      <!-- 140 -->
      <g transform="translate(30.84625 191.991155)scale(0.13 -0.13)">
       <use xlink:href="#DejaVuSans-31"/>
       <use xlink:href="#DejaVuSans-34" x="63.623047"/>
       <use xlink:href="#DejaVuSans-30" x="127.246094"/>
      </g>
     </g>
    </g>
    <g id="ytick_4">
     <g id="line2d_21">
      <path d="M 62.66 150.27373 
L 446.76 150.27373 
" clip-path="url(#pe39734a3a0)" style="fill: none; stroke: #b0b0b0; stroke-width: 0.8; stroke-linecap: square"/>
     </g>
     <g id="line2d_22">
      <g>
       <use xlink:href="#mbe8caf7633" x="62.66" y="150.27373" style="stroke: #000000; stroke-width: 0.8"/>
      </g>
     </g>
     <g id="text_13">
      <!-- 160 -->
      <g transform="translate(30.84625 155.212714)scale(0.13 -0.13)">
       <use xlink:href="#DejaVuSans-31"/>
       <use xlink:href="#DejaVuSans-36" x="63.623047"/>
       <use xlink:href="#DejaVuSans-30" x="127.246094"/>
      </g>
     </g>
    </g>
    <g id="ytick_5">
     <g id="line2d_23">
      <path d="M 62.66 113.495288 
L 446.76 113.495288 
" clip-path="url(#pe39734a3a0)" style="fill: none; stroke: #b0b0b0; stroke-width: 0.8; stroke-linecap: square"/>
     </g>
     <g id="line2d_24">
      <g>
       <use xlink:href="#mbe8caf7633" x="62.66" y="113.495288" style="stroke: #000000; stroke-width: 0.8"/>
      </g>
     </g>
     <g id="text_14">
      <!-- 180 -->
      <g transform="translate(30.84625 118.434273)scale(0.13 -0.13)">
       <use xlink:href="#DejaVuSans-31"/>
       <use xlink:href="#DejaVuSans-38" x="63.623047"/>
       <use xlink:href="#DejaVuSans-30" x="127.246094"/>
      </g>
     </g>
    </g>
    <g id="ytick_6">
     <g id="line2d_25">
      <path d="M 62.66 76.716847 
L 446.76 76.716847 
" clip-path="url(#pe39734a3a0)" style="fill: none; stroke: #b0b0b0; stroke-width: 0.8; stroke-linecap: square"/>
     </g>
     <g id="line2d_26">
      <g>
       <use xlink:href="#mbe8caf7633" x="62.66" y="76.716847" style="stroke: #000000; stroke-width: 0.8"/>
      </g>
     </g>
     <g id="text_15">
      <!-- 200 -->
      <g transform="translate(30.84625 81.655831)scale(0.13 -0.13)">
       <use xlink:href="#DejaVuSans-32"/>
       <use xlink:href="#DejaVuSans-30" x="63.623047"/>
       <use xlink:href="#DejaVuSans-30" x="127.246094"/>
      </g>
     </g>
    </g>
    <g id="ytick_7">
     <g id="line2d_27">
      <path d="M 62.66 39.938405 
L 446.76 39.938405 
" clip-path="url(#pe39734a3a0)" style="fill: none; stroke: #b0b0b0; stroke-width: 0.8; stroke-linecap: square"/>
     </g>
     <g id="line2d_28">
      <g>
       <use xlink:href="#mbe8caf7633" x="62.66" y="39.938405" style="stroke: #000000; stroke-width: 0.8"/>
      </g>
     </g>
     <g id="text_16">
      <!-- 220 -->
      <g transform="translate(30.84625 44.87739)scale(0.13 -0.13)">
       <use xlink:href="#DejaVuSans-32"/>
       <use xlink:href="#DejaVuSans-32" x="63.623047"/>
       <use xlink:href="#DejaVuSans-30" x="127.246094"/>
      </g>
     </g>
    </g>
    <g id="text_17">
     <!-- Rewards -->
     <g transform="translate(24.142656 190.693516)rotate(-90)scale(0.13 -0.13)">
      <defs>
       <path id="DejaVuSans-52" d="M 2841 2188 
Q 3044 2119 3236 1894 
Q 3428 1669 3622 1275 
L 4263 0 
L 3584 0 
L 2988 1197 
Q 2756 1666 2539 1819 
Q 2322 1972 1947 1972 
L 1259 1972 
L 1259 0 
L 628 0 
L 628 4666 
L 2053 4666 
Q 2853 4666 3247 4331 
Q 3641 3997 3641 3322 
Q 3641 2881 3436 2590 
Q 3231 2300 2841 2188 
z
M 1259 4147 
L 1259 2491 
L 2053 2491 
Q 2509 2491 2742 2702 
Q 2975 2913 2975 3322 
Q 2975 3731 2742 3939 
Q 2509 4147 2053 4147 
L 1259 4147 
z
" transform="scale(0.015625)"/>
       <path id="DejaVuSans-77" d="M 269 3500 
L 844 3500 
L 1563 769 
L 2278 3500 
L 2956 3500 
L 3675 769 
L 4391 3500 
L 4966 3500 
L 4050 0 
L 3372 0 
L 2619 2869 
L 1863 0 
L 1184 0 
L 269 3500 
z
" transform="scale(0.015625)"/>
       <path id="DejaVuSans-61" d="M 2194 1759 
Q 1497 1759 1228 1600 
Q 959 1441 959 1056 
Q 959 750 1161 570 
Q 1363 391 1709 391 
Q 2188 391 2477 730 
Q 2766 1069 2766 1631 
L 2766 1759 
L 2194 1759 
z
M 3341 1997 
L 3341 0 
L 2766 0 
L 2766 531 
Q 2569 213 2275 61 
Q 1981 -91 1556 -91 
Q 1019 -91 701 211 
Q 384 513 384 1019 
Q 384 1609 779 1909 
Q 1175 2209 1959 2209 
L 2766 2209 
L 2766 2266 
Q 2766 2663 2505 2880 
Q 2244 3097 1772 3097 
Q 1472 3097 1187 3025 
Q 903 2953 641 2809 
L 641 3341 
Q 956 3463 1253 3523 
Q 1550 3584 1831 3584 
Q 2591 3584 2966 3190 
Q 3341 2797 3341 1997 
z
" transform="scale(0.015625)"/>
       <path id="DejaVuSans-64" d="M 2906 2969 
L 2906 4863 
L 3481 4863 
L 3481 0 
L 2906 0 
L 2906 525 
Q 2725 213 2448 61 
Q 2172 -91 1784 -91 
Q 1150 -91 751 415 
Q 353 922 353 1747 
Q 353 2572 751 3078 
Q 1150 3584 1784 3584 
Q 2172 3584 2448 3432 
Q 2725 3281 2906 2969 
z
M 947 1747 
Q 947 1113 1208 752 
Q 1469 391 1925 391 
Q 2381 391 2643 752 
Q 2906 1113 2906 1747 
Q 2906 2381 2643 2742 
Q 2381 3103 1925 3103 
Q 1469 3103 1208 2742 
Q 947 2381 947 1747 
z
" transform="scale(0.015625)"/>
      </defs>
      <use xlink:href="#DejaVuSans-52"/>
      <use xlink:href="#DejaVuSans-65" x="64.982422"/>
      <use xlink:href="#DejaVuSans-77" x="126.505859"/>
      <use xlink:href="#DejaVuSans-61" x="208.292969"/>
      <use xlink:href="#DejaVuSans-72" x="269.572266"/>
      <use xlink:href="#DejaVuSans-64" x="308.935547"/>
      <use xlink:href="#DejaVuSans-73" x="372.412109"/>
     </g>
    </g>
   </g>
   <g id="line2d_29">
    <path d="M 80.119091 282.681818 
L 80.473107 276.903667 
L 80.534222 277.423232 
L 81.036098 274.617269 
L 81.185083 273.061959 
L 81.203108 276.525827 
L 81.504176 271.248727 
L 81.650627 271.180331 
L 81.665554 271.265862 
L 81.974509 266.729509 
L 82.133351 266.685909 
L 82.160951 267.07399 
L 82.422028 265.225459 
L 82.441179 265.370758 
L 82.578336 265.279407 
L 82.594952 268.483935 
L 83.122457 260.258998 
L 83.257642 260.453527 
L 83.480698 256.900431 
L 83.498159 257.571999 
L 83.520408 260.58315 
L 83.566596 259.382878 
L 83.698402 261.43872 
L 83.719525 257.34798 
L 83.846543 259.67746 
L 83.988487 258.580234 
L 84.098044 261.133517 
L 84.40559 259.512401 
L 84.874795 255.334265 
L 84.969425 244.743309 
L 85.118974 243.445808 
L 85.137562 247.126867 
L 85.599163 244.059559 
L 85.617188 243.161577 
L 85.716042 243.46977 
L 86.210595 238.626799 
L 86.250305 239.129463 
L 86.282694 239.724748 
L 86.55588 230.821659 
L 86.574468 231.333564 
L 87.049588 222.360993 
L 87.073246 226.495281 
L 87.211811 229.204063 
L 87.544704 227.294581 
L 87.688057 210.017846 
L 87.834226 208.227995 
L 87.858728 208.988227 
L 87.956456 209.777748 
L 88.10347 209.284763 
L 88.224855 214.281616 
L 88.363983 214.629714 
L 88.443968 213.931185 
L 88.622243 218.242569 
L 88.643648 221.681687 
L 89.314786 214.571213 
L 89.370832 216.515214 
L 89.60121 213.074464 
L 89.705978 214.265533 
L 89.980573 211.519591 
L 90.041407 212.156721 
L 90.229821 220.14751 
L 90.256858 219.125395 
L 90.388382 217.272965 
L 90.405844 218.190721 
L 90.762958 218.838113 
L 90.919829 220.288713 
L 91.114721 231.233295 
L 91.258637 229.318261 
L 91.282858 230.816009 
L 92.035108 220.087775 
L 92.386026 215.125098 
L 92.645976 209.63156 
L 93.059699 203.764947 
L 93.084483 209.239123 
L 93.237412 211.717413 
L 93.376821 215.837122 
L 93.520456 215.343171 
L 93.659865 217.14887 
L 93.679298 220.62965 
L 93.825749 218.689116 
L 94.530965 257.932364 
L 94.752613 259.438885 
L 94.937648 259.394895 
L 94.976795 264.789595 
L 94.996791 264.713159 
L 95.353906 264.650246 
L 96.06391 252.979262 
L 96.174311 253.414229 
L 96.198532 254.056964 
L 96.360754 253.53212 
L 96.500727 254.997804 
L 96.647178 253.325758 
L 96.666611 258.352656 
L 96.828833 261.769105 
L 96.856433 261.415097 
L 97.229038 256.889764 
L 97.348733 257.570343 
L 97.730913 266.156963 
L 98.084366 262.448327 
L 98.440072 255.418918 
L 98.798032 250.919399 
L 98.940258 254.064449 
L 99.075725 251.931753 
L 99.256253 258.423806 
L 99.609988 254.439681 
L 99.986817 253.796761 
L 100.341115 252.610163 
L 100.648661 259.602684 
L 100.792014 260.072814 
L 101.142651 254.78908 
L 101.243476 257.908446 
L 101.515255 259.06294 
L 101.865892 256.981754 
L 101.954326 254.292632 
L 102.413955 248.973347 
L 102.514781 253.002729 
L 102.683481 246.759794 
L 102.711363 248.273824 
L 103.190989 239.537891 
L 103.402216 241.128474 
L 103.425028 240.656049 
L 104.44793 230.830641 
L 104.589875 234.066126 
L 104.617193 234.041615 
L 104.883621 229.804145 
L 104.99712 234.027672 
L 105.13991 233.002126 
L 105.162441 235.629347 
L 105.311989 235.832393 
L 105.426334 239.015305 
L 105.775844 233.240306 
L 105.927645 233.706687 
L 106.071843 232.864185 
L 106.209281 231.009903 
L 106.227869 236.082345 
L 107.073904 225.656801 
L 107.21951 225.963852 
L 107.239224 231.288463 
L 107.569865 224.88157 
L 107.613237 228.55419 
L 107.755744 229.153959 
L 107.775741 229.127578 
L 108.098214 234.705281 
L 108.561223 229.596959 
L 108.57953 231.936693 
L 108.980861 228.386239 
L 109.005926 228.503982 
L 109.713677 216.833877 
L 111.434473 196.771508 
L 111.592752 196.966037 
L 111.745118 195.543597 
L 111.773281 198.16967 
L 111.926209 195.898434 
L 111.95043 198.021557 
L 112.329794 201.923983 
L 112.749995 194.892105 
L 112.772807 196.850622 
L 112.926017 195.232297 
L 113.035573 195.495679 
L 113.174702 197.37261 
L 113.196106 202.992036 
L 113.340867 208.975821 
L 113.359455 214.521468 
L 113.648132 220.162441 
L 113.666156 219.85011 
L 113.805566 219.709106 
L 113.955396 217.829037 
L 113.980462 219.565213 
L 114.208305 218.457995 
L 114.348279 217.148773 
L 114.369401 219.406015 
L 114.719193 218.797724 
L 114.788476 229.362526 
L 115.137986 224.443378 
L 115.20248 224.767354 
L 115.228391 227.067675 
L 115.367801 227.20817 
L 115.389205 226.951395 
L 115.527207 227.284263 
L 115.549456 229.010804 
L 115.690274 227.885876 
L 115.718437 229.565666 
L 115.912203 226.068635 
L 115.981485 231.248742 
L 116.120895 231.902381 
L 116.147369 234.605663 
L 116.289313 234.80269 
L 116.344232 237.488547 
L 116.483642 238.137059 
L 116.844136 233.631534 
L 117.139009 231.488714 
L 117.162103 233.61759 
L 117.515556 228.415171 
L 117.684256 228.580508 
L 118.036301 225.416784 
L 118.640129 215.890817 
L 119.187911 210.61056 
L 119.238042 214.624291 
L 119.691757 208.122488 
L 119.750056 208.650103 
L 119.888902 209.249066 
L 119.907772 214.140499 
L 120.26376 209.647083 
L 120.375851 210.580631 
L 120.8766 221.770437 
L 121.019389 220.254263 
L 121.03854 222.696732 
L 121.181611 221.658918 
L 121.324964 221.948259 
L 121.346368 227.404682 
L 121.487468 231.535964 
L 121.506901 231.372974 
L 121.669405 229.104672 
L 121.750798 231.489288 
L 122.041164 228.112209 
L 122.060034 230.280088 
L 122.209583 228.135783 
L 122.247322 233.98623 
L 122.387013 233.795884 
L 122.524452 232.210889 
L 122.547546 233.84473 
L 123.39865 224.026628 
L 123.430474 223.956724 
L 123.465397 226.199222 
L 123.603117 227.139243 
L 123.62593 229.131252 
L 123.765058 227.406898 
L 123.783083 229.162077 
L 124.049229 226.095394 
L 124.21652 226.610508 
L 124.35593 226.54061 
L 124.384094 226.644408 
L 124.527728 226.289032 
L 124.547161 226.363314 
L 124.694738 224.334928 
L 124.721494 226.596596 
L 125.172674 219.92897 
L 125.646104 215.71304 
L 125.793682 215.00962 
L 125.815649 214.175225 
L 126.245707 210.315361 
L 126.311047 215.633108 
L 126.46144 215.729245 
L 126.489886 218.246053 
L 126.633238 216.497901 
L 126.652953 218.899286 
L 127.143281 213.294188 
L 127.286071 214.849235 
L 127.428578 213.942199 
L 127.446321 213.964722 
L 127.523771 212.450309 
L 127.645156 217.417569 
L 127.875816 214.365536 
L 128.022549 215.256277 
L 128.380508 212.276416 
L 128.495979 212.841864 
L 128.515693 212.806551 
L 128.606943 215.718434 
L 128.739875 215.749497 
L 129.051928 213.060497 
L 129.197534 214.276736 
L 129.218656 215.626842 
L 129.358629 216.067509 
L 129.377217 216.00569 
L 129.484521 213.666392 
L 129.530709 215.368789 
L 129.674343 213.573822 
L 129.702507 214.02434 
L 129.801361 213.637701 
L 129.820231 213.905408 
L 129.961894 214.045712 
L 129.982735 215.240303 
L 130.128059 213.513524 
L 130.146928 217.538806 
L 130.287465 220.408461 
L 130.308869 220.093808 
L 130.449405 221.1774 
L 130.473908 220.216567 
L 130.684853 220.417082 
L 130.726254 219.690763 
L 130.747376 216.716417 
L 130.887349 215.196623 
L 130.909035 216.225806 
L 131.211231 212.267021 
L 131.232353 212.352688 
L 131.373453 202.379282 
L 131.517087 202.84433 
L 131.537083 202.826822 
L 131.702122 206.534503 
L 132.05811 206.338299 
L 132.127392 211.462931 
L 132.34904 213.417532 
L 132.468172 218.297378 
L 132.605892 216.805384 
L 132.776282 213.605009 
L 132.871756 214.615991 
L 133.175923 211.534465 
L 133.324908 211.747104 
L 133.342651 211.989811 
L 133.489665 209.738992 
L 133.648508 209.701098 
L 133.64879 207.465715 
L 134.002243 201.720915 
L 134.042798 204.377883 
L 134.061105 204.306731 
L 134.548335 197.915249 
L 134.722104 197.987716 
L 134.742382 197.892594 
L 134.909674 195.512308 
L 134.930233 198.816964 
L 135.116676 196.454948 
L 135.161738 196.618631 
L 135.305091 200.2708 
L 135.328185 206.051608 
L 135.683328 208.024923 
L 136.149717 203.319556 
L 136.167178 203.646465 
L 136.870423 193.902403 
L 137.368637 188.139702 
L 137.387789 188.603741 
L 137.548039 184.975919 
L 138.018653 189.125452 
L 138.247341 191.39002 
L 138.537708 188.50996 
L 138.836524 204.839024 
L 138.975934 203.621453 
L 139.148013 201.321488 
L 139.293619 201.307831 
L 139.320656 197.934629 
L 139.462037 196.021158 
L 139.48316 201.272043 
L 139.787327 211.261817 
L 140.323843 205.592932 
L 140.387775 209.672756 
L 140.767701 214.379892 
L 140.795583 212.094272 
L 140.957524 210.038631 
L 141.212686 211.837014 
L 141.239723 212.958235 
L 141.505024 208.298471 
L 141.651475 211.448244 
L 141.674006 217.417288 
L 141.837355 216.373492 
L 142.130819 216.277707 
L 142.147718 218.06351 
L 142.458362 212.777522 
L 142.475823 217.019944 
L 142.629597 218.329616 
L 142.647621 219.917818 
L 143.10697 213.638655 
L 143.129219 213.996703 
L 143.462957 223.212288 
L 143.736144 219.397944 
L 144.038903 221.244884 
L 144.340253 216.426114 
L 144.479663 216.66331 
L 144.499941 218.353155 
L 144.643294 219.298244 
L 144.671176 221.03087 
L 144.813965 219.143438 
L 144.835651 225.777085 
L 144.980975 224.826769 
L 145.000126 226.570667 
L 145.151928 224.468386 
L 145.170235 225.86288 
L 145.312461 224.176248 
L 145.332175 224.58006 
L 145.467924 224.010409 
L 145.485104 225.721733 
L 145.62564 227.078522 
L 145.625922 226.649273 
L 145.650705 228.598752 
L 145.788144 226.776816 
L 146.077102 226.455072 
L 146.328885 234.805471 
L 146.346065 240.419614 
L 146.626011 239.366603 
L 146.652485 245.106138 
L 146.799498 245.887736 
L 146.94257 249.254655 
L 146.962566 253.507088 
L 147.230401 254.677463 
L 147.250961 256.6656 
L 147.396848 256.855711 
L 147.42304 256.74116 
L 147.774522 253.560476 
L 148.401444 244.957348 
L 148.443407 244.986381 
L 148.596336 251.270594 
L 148.736309 249.70289 
L 148.894588 251.155713 
L 148.91205 249.701532 
L 148.975418 251.530011 
L 149.448848 244.901246 
L 149.756113 245.961962 
L 150.302768 241.129044 
L 150.439925 241.333785 
L 150.511742 244.011343 
L 150.733671 241.743698 
L 150.871673 245.270674 
L 151.031923 243.820691 
L 151.38256 246.70145 
L 151.527039 245.228862 
L 151.67349 242.734529 
L 152.562333 229.789918 
L 152.578386 233.198885 
L 153.466103 221.291461 
L 153.732812 216.133878 
L 153.809135 220.119068 
L 154.031346 218.329008 
L 154.422257 213.308618 
L 154.544205 219.427855 
L 154.685868 217.327545 
L 154.705864 222.096685 
L 154.853442 225.500602 
L 154.881324 231.290467 
L 155.168029 233.289635 
L 155.186899 235.073267 
L 155.41953 230.395472 
L 155.489657 234.100943 
L 155.632165 235.462894 
L 155.94985 230.948122 
L 156.109256 230.955437 
L 156.297107 234.230028 
L 156.439615 234.080088 
L 156.475383 236.234169 
L 157.205665 225.378383 
L 157.314095 225.815514 
L 157.474909 225.304261 
L 157.715708 223.854804 
L 157.78499 224.892253 
L 157.785272 224.373472 
L 158.164635 220.627024 
L 158.183223 222.955101 
L 158.340658 220.638519 
L 158.364315 220.717617 
L 158.456692 222.926341 
L 158.515554 222.459507 
L 158.660315 222.842693 
L 158.825917 220.678662 
L 158.850982 222.340159 
L 158.995743 220.596705 
L 159.017711 225.246004 
L 159.179933 230.60443 
L 159.490577 226.490516 
L 159.632522 224.579636 
L 159.651673 226.353789 
L 159.796997 224.233687 
L 159.81474 227.149344 
L 160.02822 225.271875 
L 160.049625 226.555335 
L 160.579664 218.776006 
L 160.834262 225.132574 
L 160.975644 223.602756 
L 160.996485 228.459041 
L 161.140401 226.705329 
L 161.161805 228.445503 
L 161.423445 226.602262 
L 161.508499 232.026645 
L 161.648472 231.865774 
L 162.06304 227.283625 
L 162.089795 229.164622 
L 162.320174 226.653257 
L 162.337917 230.896183 
L 162.454232 230.329143 
L 162.474229 230.506044 
L 162.491972 232.552515 
L 162.627157 230.795614 
L 162.76544 231.647411 
L 162.787971 232.560897 
L 163.114105 227.816963 
L 163.202539 228.456969 
L 163.257176 227.17982 
L 163.402501 230.728063 
L 163.559653 230.01573 
L 163.706386 228.529788 
L 163.726664 230.867302 
L 163.883816 230.625865 
L 164.046039 235.586252 
L 164.396676 230.418396 
L 164.474125 231.39971 
L 164.612127 229.575689 
L 164.63325 232.024557 
L 164.774631 230.926856 
L 164.79688 232.754577 
L 165.22722 228.368405 
L 165.245526 230.148822 
L 165.505195 226.804262 
L 165.522656 228.421834 
L 165.693609 228.268433 
L 165.834427 228.432172 
L 165.970739 226.737777 
L 165.987637 228.32397 
L 166.130145 227.295833 
L 166.156055 231.707077 
L 166.294902 229.079031 
L 166.597379 228.526236 
L 166.87986 227.331388 
L 167.182337 222.421589 
L 167.204023 223.438165 
L 167.48425 222.242375 
L 167.751523 219.654894 
L 168.061322 218.653663 
L 168.258749 216.279897 
L 168.358167 220.48433 
L 168.622341 217.215158 
L 168.659799 220.286004 
L 168.872997 217.109785 
L 169.030713 222.158168 
L 169.170123 220.486692 
L 169.187021 222.606757 
L 169.541038 221.674011 
L 169.698754 218.186686 
L 170.056431 212.954636 
L 170.167678 217.496663 
L 170.318634 216.545606 
L 170.336941 216.567622 
L 170.495502 221.479837 
L 170.641671 220.599854 
L 170.661385 222.563371 
L 171.02019 216.77562 
L 171.066096 217.308422 
L 171.24578 215.461972 
L 171.386035 216.120508 
L 171.405186 215.815627 
L 171.549947 215.697695 
L 171.720055 217.71744 
L 171.736953 222.30057 
L 171.88453 221.869086 
L 171.912131 221.953615 
L 172.053794 225.368593 
L 172.073508 230.237235 
L 172.37514 231.195204 
L 172.392038 232.892067 
L 172.529758 230.794466 
L 172.548628 232.379057 
L 172.688319 230.655066 
L 172.708315 232.970081 
L 172.991641 230.557474 
L 173.134431 227.563487 
L 173.155272 229.198392 
L 173.296935 230.168904 
L 173.689817 227.380125 
L 173.708968 229.13543 
L 173.848941 231.001164 
L 173.917942 233.173514 
L 174.067772 233.071998 
L 174.212815 231.263044 
L 174.231121 232.807628 
L 174.497549 231.24642 
L 174.645971 229.011719 
L 174.666249 233.744832 
L 174.808756 231.590719 
L 175.06251 230.982457 
L 175.327811 227.28606 
L 175.426947 228.39977 
L 175.564104 226.616315 
L 175.58241 229.813688 
L 175.874185 228.824447 
L 176.225385 223.303036 
L 176.295512 226.946051 
L 176.460551 228.915779 
L 176.728669 223.926092 
L 177.366011 218.852147 
L 177.62061 215.600471 
L 177.640887 220.791917 
L 177.793252 219.69521 
L 177.936323 218.100897 
L 177.957446 223.050862 
L 178.13206 224.437814 
L 178.426933 218.465913 
L 178.511424 218.909649 
L 178.531984 218.992828 
L 178.671675 220.908097 
L 178.689418 220.805017 
L 178.835869 219.703096 
L 178.85671 224.345957 
L 178.997809 225.304377 
L 179.151583 223.574014 
L 179.172424 225.499872 
L 179.314087 223.923577 
L 179.332674 225.831517 
L 179.476872 223.914291 
L 179.49715 224.870423 
L 179.673454 223.463708 
L 179.69345 225.588307 
L 179.984098 223.623508 
L 180.006066 223.632155 
L 180.144913 223.967389 
L 180.289955 222.313671 
L 180.306572 224.002863 
L 180.447953 223.851068 
L 180.80563 220.498088 
L 180.875195 221.787821 
L 180.899415 225.223057 
L 181.053752 225.471391 
L 181.22217 228.321278 
L 181.382703 228.005046 
L 181.399319 229.952684 
L 181.544643 229.857323 
L 181.566611 231.049779 
L 181.710808 229.838482 
L 181.731649 231.026028 
L 181.936962 229.392322 
L 181.957521 234.815619 
L 182.128193 246.407414 
L 182.297456 244.955536 
L 182.420531 242.396456 
L 182.444752 243.968729 
L 182.814821 240.278713 
L 182.994787 237.921997 
L 183.169401 242.878779 
L 183.309656 241.096031 
L 183.473286 241.361852 
L 183.84589 245.048131 
L 183.98699 244.354306 
L 184.340443 237.845107 
L 184.48971 238.01412 
L 184.509425 239.944174 
L 184.655031 240.107976 
L 184.8702 236.949487 
L 184.891323 239.450704 
L 185.049321 239.18646 
L 185.451215 252.2513 
L 185.563025 249.511769 
L 185.592315 249.565156 
L 185.608931 254.185441 
L 185.756227 252.85855 
L 185.77397 254.503726 
L 185.920984 255.89819 
L 186.272184 252.134926 
L 186.322034 253.226304 
L 186.346536 258.696704 
L 186.630988 255.482609 
L 186.648168 258.703745 
L 186.827007 261.617781 
L 187.121317 256.845739 
L 187.143284 256.879273 
L 187.283257 257.157945 
L 187.430271 255.349955 
L 187.450267 256.96904 
L 187.587706 255.057379 
L 188.622718 248.555601 
L 188.980959 243.502765 
L 189.030245 244.280365 
L 189.053902 245.994488 
L 189.204578 246.431052 
L 189.225419 248.068205 
L 189.460303 243.456686 
L 189.496634 245.744608 
L 189.656885 245.977501 
L 189.675755 245.728929 
L 190.029208 245.054385 
L 190.173124 243.334378 
L 190.339289 246.458551 
L 190.360411 246.250611 
L 190.504609 245.02897 
L 190.545165 247.003835 
L 190.682321 245.304759 
L 190.698656 248.735947 
L 190.864258 249.899152 
L 191.101114 253.19652 
L 191.414293 249.24597 
L 191.437106 251.585905 
L 191.577079 251.019485 
L 191.593977 253.433916 
L 191.76662 250.15436 
L 191.869699 250.828351 
L 192.022064 250.960606 
L 192.041778 252.775959 
L 192.180343 251.089457 
L 192.199494 252.765948 
L 192.341439 251.063977 
L 192.361716 253.017111 
L 192.505351 251.347271 
L 192.527882 252.766803 
L 192.877392 246.776722 
L 192.907245 248.11328 
L 193.202118 248.602824 
L 193.217326 248.555864 
L 193.278723 251.800533 
L 193.534449 249.463612 
L 193.562612 251.809004 
L 193.702022 249.830521 
L 193.719765 255.109607 
L 193.866216 254.072644 
L 193.882551 254.090837 
L 193.945074 256.168371 
L 194.190942 252.392219 
L 194.2974 253.313951 
L 194.554534 250.814781 
L 194.73281 256.097555 
L 195.176949 249.238899 
L 195.177231 250.668291 
L 195.195819 251.551616 
L 195.373813 249.060229 
L 195.53519 251.571754 
L 195.68671 249.588819 
L 195.820769 250.234929 
L 195.836541 250.176406 
L 196.011155 252.039229 
L 196.388829 246.31514 
L 196.521479 247.237325 
L 196.872116 243.875336 
L 196.89859 248.784608 
L 197.20163 246.473621 
L 197.295697 250.901963 
L 197.712799 248.65746 
L 197.819821 251.430098 
L 197.91952 248.955314 
L 198.037526 249.923233 
L 198.283675 246.266979 
L 198.451812 249.89655 
L 198.607838 250.1784 
L 198.764428 249.687363 
L 198.810335 251.711348 
L 199.265177 247.487787 
L 199.483726 248.006364 
L 199.502877 251.305517 
L 199.642851 251.302476 
L 199.914911 255.003561 
L 200.263295 249.937565 
L 200.284136 249.792457 
L 200.587457 248.652072 
L 200.83755 248.553109 
L 200.886273 249.248472 
L 201.048214 255.896854 
L 201.190722 254.027591 
L 201.332666 254.842253 
L 201.463345 252.288722 
L 201.551497 255.449871 
L 201.783565 251.862055 
L 201.901571 258.813214 
L 202.065765 255.464537 
L 202.093928 255.514634 
L 202.200668 258.188035 
L 202.369086 255.792141 
L 202.521452 258.177695 
L 202.670719 258.528911 
L 202.688743 258.396594 
L 202.904195 261.506792 
L 203.043041 259.913388 
L 203.117956 260.450913 
L 203.324114 269.070932 
L 203.468875 268.436178 
L 203.488871 269.405575 
L 203.64715 267.098065 
L 203.666583 268.86279 
L 203.996379 265.012582 
L 204.019755 265.126104 
L 204.287027 273.542244 
L 204.523038 270.751114 
L 204.539655 272.499284 
L 204.702159 270.908844 
L 204.944084 270.287696 
L 205.1294 269.038065 
L 205.261769 266.151211 
L 205.349358 267.000064 
L 205.499752 264.910221 
L 205.522846 269.640366 
L 205.806735 264.69488 
L 205.950651 265.123762 
L 205.968675 265.018798 
L 206.744864 256.748976 
L 206.889343 255.97118 
L 206.95412 256.760353 
L 207.305601 252.80374 
L 207.716226 246.388026 
L 207.736504 248.107019 
L 208.33836 241.44331 
L 208.35892 243.219595 
L 208.501428 241.557669 
L 208.582539 245.778951 
L 208.873469 245.550401 
L 209.109198 243.434224 
L 209.251987 243.726479 
L 209.603469 246.700104 
L 211.559712 220.326261 
L 211.727849 222.214825 
L 212.293655 211.819321 
L 212.671048 206.031172 
L 212.843409 205.782322 
L 212.979157 202.517695 
L 213.33599 200.329034 
L 213.484976 198.009947 
L 213.50469 202.590691 
L 213.77844 202.788624 
L 213.91954 202.521976 
L 213.939818 202.687524 
L 214.178926 200.130425 
L 214.202021 200.250458 
L 214.348471 200.124303 
L 214.492387 197.400084 
L 214.772615 194.423306 
L 214.920756 199.15424 
L 215.226894 200.568405 
L 215.545424 196.415731 
L 215.564575 198.17163 
L 215.715251 196.275138 
L 215.734683 196.884107 
L 215.878599 197.292351 
L 216.184738 190.848249 
L 216.333723 190.387265 
L 216.357944 190.758199 
L 216.51735 191.235184 
L 216.659858 190.988404 
L 216.683233 191.212878 
L 216.822643 191.008222 
L 216.839823 192.892562 
L 216.985147 192.956422 
L 217.009086 194.8407 
L 217.477728 189.353947 
L 217.643893 193.917433 
L 217.731764 192.199443 
L 217.781895 192.507621 
L 217.827238 192.913321 
L 217.845545 194.480044 
L 217.998473 192.34127 
L 218.018188 192.831133 
L 218.162667 193.13163 
L 218.180692 193.104525 
L 218.645954 188.27813 
L 218.666514 188.359585 
L 219.231757 178.158436 
L 219.323289 177.334596 
L 219.341313 178.960499 
L 219.616753 174.601649 
L 219.639284 174.605176 
L 219.801788 174.460967 
L 220.169041 170.697066 
L 220.3169 170.02831 
L 220.336615 172.555778 
L 220.503062 173.406115 
L 220.585863 174.62544 
L 220.726117 172.865073 
L 220.743015 174.594259 
L 220.743297 174.328446 
L 220.884115 174.601743 
L 221.185184 179.125776 
L 221.538074 175.238984 
L 221.611299 183.259413 
L 221.895751 181.100451 
L 221.912931 184.294689 
L 222.055157 182.431768 
L 222.078251 184.306122 
L 222.316234 183.953687 
L 222.810223 175.932987 
L 222.862326 178.542184 
L 223.003989 178.817244 
L 223.168746 184.74478 
L 223.307029 183.481192 
L 223.454888 185.320291 
L 223.899028 178.935491 
L 223.919869 184.68917 
L 224.16968 183.306368 
L 224.362037 181.4082 
L 224.380907 184.036115 
L 224.542566 188.541245 
L 224.694086 187.22341 
L 224.717743 189.012283 
L 224.859406 190.789631 
L 224.999943 189.332485 
L 225.025853 190.939066 
L 225.339877 191.287621 
L 225.801479 201.78555 
L 225.963701 200.472327 
L 226.103956 201.820448 
L 226.261108 200.048066 
L 226.28026 204.613356 
L 226.672015 199.752662 
L 226.812552 198.087349 
L 226.950835 201.824783 
L 227.100947 201.735122 
L 227.506221 197.871217 
L 227.523682 198.944157 
L 227.593246 196.750763 
L 227.764199 198.134763 
L 227.936279 195.701153 
L 227.965288 198.269435 
L 228.120469 197.753586 
L 228.141873 199.973753 
L 228.867367 187.938742 
L 228.911866 191.860049 
L 229.048741 191.954343 
L 229.486122 186.502394 
L 229.504991 188.168755 
L 229.730582 185.167646 
L 229.764096 186.803031 
L 230.185987 184.044503 
L 230.394116 179.959468 
L 230.500856 184.775623 
L 231.146366 172.539893 
L 231.190019 174.156549 
L 231.500664 168.085897 
L 231.874676 164.751746 
L 232.309522 157.005006 
L 232.477377 154.670917 
L 232.838998 147.276474 
L 233.232443 148.534291 
L 233.390722 150.809993 
L 233.714322 143.626516 
L 233.8895 149.176541 
L 234.244924 143.225851 
L 234.288859 145.715111 
L 234.426016 145.794482 
L 234.691317 144.519052 
L 234.841147 144.362965 
L 234.858327 144.423033 
L 235.137428 143.444334 
L 235.495106 138.224877 
L 235.62832 142.435851 
L 235.85391 140.6169 
L 235.993038 141.076283 
L 236.012753 140.954929 
L 236.175539 144.594556 
L 236.357757 141.79281 
L 236.502236 144.963894 
L 236.645026 141.765757 
L 236.665585 144.218799 
L 236.837383 141.655081 
L 236.910608 146.954666 
L 237.008618 144.405585 
L 237.047202 146.293097 
L 237.239841 146.585494 
L 237.385165 144.371235 
L 237.523448 148.483774 
L 237.765937 149.372897 
L 238.433977 138.974852 
L 238.796724 135.173681 
L 238.970212 136.788183 
L 240.216169 119.4192 
L 240.48316 113.958582 
L 240.833515 110.484365 
L 241.521834 97.958215 
L 241.773335 94.661372 
L 241.880638 96.20737 
L 242.024835 94.451396 
L 242.044268 99.400964 
L 242.334635 96.277486 
L 242.377725 99.753696 
L 242.521078 98.238359 
L 242.543327 100.888827 
L 242.712027 102.20761 
L 242.73146 104.0134 
L 242.922128 102.251215 
L 243.029713 98.247539 
L 243.062101 99.839763 
L 243.147155 102.669956 
L 243.455828 98.064822 
L 243.607348 95.991204 
L 243.629879 98.411746 
L 243.770415 96.435187 
L 243.792664 98.994739 
L 244.074864 104.53364 
L 244.241874 102.220178 
L 244.327773 103.981617 
L 244.860065 93.276224 
L 245.034679 94.469132 
L 245.224783 92.053507 
L 245.49459 91.514717 
L 245.517403 91.634313 
L 245.537399 94.503859 
L 245.718209 93.332029 
L 245.779888 93.866198 
L 245.79932 95.882231 
L 246.080956 92.931268 
L 246.221774 95.749232 
L 246.474402 92.256332 
L 246.510451 92.324725 
L 246.543966 98.777141 
L 246.68591 102.099674 
L 246.82532 102.154539 
L 246.843626 102.043887 
L 246.985008 100.071163 
L 247.132303 105.236313 
L 247.152299 112.549943 
L 247.399576 110.094643 
L 247.422107 110.159746 
L 247.561235 110.963266 
L 247.601509 110.816964 
L 247.620378 112.572137 
L 247.763731 113.456608 
L 247.782882 116.185762 
L 247.935247 114.116935 
L 248.081135 114.009263 
L 248.100849 113.050988 
L 248.240259 113.860192 
L 248.443319 125.198546 
L 248.647223 125.109372 
L 249.123751 138.397269 
L 249.477204 138.743896 
L 249.588732 143.420639 
L 249.938524 141.413309 
L 250.036252 145.670877 
L 250.054558 151.436259 
L 250.343235 154.735619 
L 250.615295 161.964382 
L 250.709361 162.665559 
L 250.852714 160.981565 
L 250.872992 164.462973 
L 251.013528 162.270213 
L 251.212082 168.733511 
L 251.357124 168.270091 
L 251.394863 171.167113 
L 251.673401 166.355778 
L 251.770284 168.393602 
L 251.829991 169.800126 
L 252.053047 164.950107 
L 252.077549 166.888395 
L 252.350172 166.434969 
L 252.549571 172.716327 
L 252.697711 170.498204 
L 252.721087 171.990541 
L 252.860497 169.872732 
L 252.883028 171.550829 
L 253.02976 169.29836 
L 253.066373 171.692742 
L 253.390254 168.567441 
L 253.551068 173.532612 
L 253.573599 173.187262 
L 253.714135 171.227449 
L 253.854953 171.720807 
L 254.571998 157.589665 
L 254.852508 158.92271 
L 255.065425 158.635987 
L 255.331289 160.191516 
L 255.35382 161.33199 
L 255.354101 160.871428 
L 255.611235 167.91036 
L 255.869495 169.954244 
L 256.038195 168.094545 
L 256.187462 168.155786 
L 256.215062 170.051675 
L 256.361232 168.011589 
L 256.625688 167.196893 
L 256.834662 165.231458 
L 256.886201 171.46053 
L 257.031807 169.783868 
L 257.05124 171.908994 
L 257.200507 170.562609 
L 257.226136 172.135913 
L 257.484114 168.011271 
L 257.666332 169.657469 
L 257.84151 167.930669 
L 257.927409 165.30418 
L 257.999226 165.601387 
L 258.170742 173.09132 
L 258.482232 168.732431 
L 258.502228 170.368813 
L 258.64896 171.595174 
L 259.297286 159.667773 
L 259.573571 164.841973 
L 260.449459 145.871671 
L 260.476214 146.023728 
L 260.828541 145.707574 
L 260.872476 145.984071 
L 260.893317 145.874806 
L 261.241419 141.717119 
L 261.407866 137.95623 
L 261.634301 136.719318 
L 261.73569 137.517162 
L 263.183581 114.735928 
L 263.974978 99.44901 
L 264.119739 100.939847 
L 264.610348 92.886236 
L 264.902968 90.066696 
L 265.386537 80.440165 
L 265.739708 76.461088 
L 265.852926 73.847498 
L 266.206098 72.281469 
L 266.927086 63.45959 
L 267.110712 68.939682 
L 267.885774 53.918777 
L 268.241199 50.607728 
L 268.380327 48.259163 
L 268.519737 48.767465 
L 268.665624 46.925046 
L 268.683931 48.775644 
L 268.916562 48.697277 
L 269.00922 53.277557 
L 269.158206 51.200203 
L 269.259594 51.462992 
L 269.448572 56.085691 
L 269.590798 54.117573 
L 269.847369 52.482339 
L 270.154633 46.735449 
L 270.248418 47.909894 
L 270.363607 50.823668 
L 270.501327 50.329854 
L 270.517944 55.528812 
L 270.840135 54.985006 
L 270.876748 59.71549 
L 271.001794 57.005174 
L 271.152188 58.002559 
L 271.173874 59.111519 
L 271.321733 60.119191 
L 271.342856 65.811943 
L 271.57267 67.488 
L 271.646459 74.839224 
L 271.871768 74.475553 
L 271.922181 79.559846 
L 272.217898 76.379196 
L 272.239303 78.3306 
L 272.339002 75.970187 
L 272.40237 82.52779 
L 272.55727 79.652065 
L 272.580364 85.798656 
L 272.946209 79.606625 
L 273.043092 84.497947 
L 273.145044 82.087378 
L 273.264176 82.989632 
L 273.284735 88.247269 
L 273.461321 85.786132 
L 273.575384 86.645529 
L 273.598478 89.790044 
L 273.685503 89.206617 
L 273.74352 88.918102 
L 274.035295 84.500474 
L 274.173578 84.772193 
L 274.30989 84.21465 
L 274.529003 80.546398 
L 274.546464 80.606302 
L 274.718826 82.116232 
L 274.916816 77.990053 
L 274.946951 81.026831 
L 275.209435 76.56144 
L 275.249428 79.177358 
L 275.398413 78.368679 
L 275.421226 78.407698 
L 275.56317 78.26235 
L 275.703988 76.325877 
L 275.985906 76.373811 
L 276.005902 76.777853 
L 276.024208 82.498923 
L 276.361326 79.702457 
L 276.647469 76.490122 
L 276.670281 81.179446 
L 277.077245 77.327228 
L 277.297766 78.604422 
L 277.469564 77.10581 
L 277.913422 96.793449 
L 277.974537 102.850546 
L 278.255891 101.887577 
L 278.396709 102.975149 
L 278.557805 102.554493 
L 278.729885 102.63486 
L 279.08024 103.021922 
L 279.918107 91.432458 
L 280.287895 87.363544 
L 280.704153 80.017072 
L 281.056198 74.568931 
L 281.407398 71.293686 
L 281.803941 65.412478 
L 281.935465 63.67958 
L 282.22217 57.431757 
L 282.326657 59.574889 
L 282.524366 61.029225 
L 282.612799 60.849223 
L 283.141148 54.122173 
L 283.167622 50.786759 
L 283.364486 50.19965 
L 283.672314 45.92501 
L 283.691747 50.136439 
L 283.847773 56.856989 
L 284.200663 54.230546 
L 284.32064 54.939342 
L 284.338383 57.486179 
L 284.689583 50.99951 
L 284.710142 55.155008 
L 285.001636 51.896748 
L 285.277357 54.017782 
L 285.295382 59.156259 
L 285.312562 59.074265 
L 285.455914 58.076743 
L 285.478164 58.169109 
L 285.664607 61.73157 
L 286.107338 60.30138 
L 286.206192 57.921428 
L 286.379117 58.424975 
L 286.39855 58.375855 
L 286.538805 57.787303 
L 286.926899 53.718601 
L 287.100387 54.245798 
L 287.11813 56.007728 
L 287.216421 53.540724 
L 287.274438 54.812204 
L 287.418072 53.80523 
L 287.436097 56.041874 
L 287.520306 53.763125 
L 287.581139 56.742306 
L 287.719704 55.825648 
L 287.741953 57.983791 
L 287.886432 56.961301 
L 288.031193 54.952129 
L 288.236506 64.146894 
L 288.375916 67.731862 
L 288.630233 65.394806 
L 288.648539 67.259593 
L 288.818647 66.399315 
L 288.836954 66.995048 
L 289.441626 55.719301 
L 289.532313 59.124549 
L 289.673976 58.89644 
L 289.695662 59.070308 
L 289.973636 56.337804 
L 289.996731 54.790143 
L 290.077278 55.039147 
L 290.174443 54.742788 
L 290.286816 53.751696 
L 290.525643 53.38628 
L 290.622526 53.910227 
L 290.922468 47.848297 
L 291.032588 49.61872 
L 291.130034 55.245956 
L 291.240717 52.607629 
L 291.287187 52.916676 
L 291.49785 57.607322 
L 291.643456 55.81831 
L 291.663452 57.800092 
L 291.892704 52.662956 
L 291.934949 54.45012 
L 291.960015 54.083227 
L 292.30699 48.975872 
L 292.599047 49.494085 
L 293.054734 45.060558 
L 293.07642 46.813437 
L 293.565058 58.894181 
L 293.853735 55.317259 
L 293.872323 56.434614 
L 294.008353 55.119689 
L 294.140159 59.610819 
L 294.42095 51.905048 
L 294.670761 51.226823 
L 294.791301 49.883382 
L 294.809607 51.791569 
L 295.110676 52.445473 
L 295.131799 55.351781 
L 295.277405 55.163122 
L 295.299372 55.269592 
L 295.449484 53.537689 
L 295.469199 55.222798 
L 295.624098 52.924122 
L 295.642123 54.280798 
L 295.782941 52.483482 
L 295.802937 56.464652 
L 295.969666 52.83562 
L 296.019797 52.915375 
L 296.243416 50.640629 
L 296.531248 49.497778 
L 296.577718 49.670838 
L 296.605036 48.141203 
L 296.8019 46.807065 
L 296.839639 48.927337 
L 297.13761 43.518182 
L 297.462618 52.737395 
L 297.605126 53.130015 
L 297.750731 53.083206 
L 297.988151 53.396646 
L 298.168679 53.126332 
L 298.388074 51.357166 
L 298.486928 53.231687 
L 298.65422 64.068647 
L 298.977538 57.213854 
L 299.099486 59.126352 
L 299.412947 53.715237 
L 299.550667 57.142664 
L 299.577422 61.038147 
L 299.951998 58.755578 
L 300.223495 62.897093 
L 300.399799 68.262939 
L 300.514143 73.732454 
L 300.630177 74.655819 
L 300.806481 78.89543 
L 300.8476 88.850598 
L 301.110648 88.464642 
L 301.25034 89.732672 
L 301.269209 93.552051 
L 301.410309 96.056945 
L 301.432558 99.476728 
L 301.707716 103.311469 
L 301.961189 111.445241 
L 302.07497 111.587375 
L 302.094121 117.15073 
L 302.261694 125.991795 
L 302.299715 131.967302 
L 302.454333 130.586117 
L 302.476019 132.167018 
L 302.627821 134.60536 
L 302.650352 137.36553 
L 302.789762 138.357158 
L 302.809476 141.220024 
L 303.407953 134.199672 
L 303.535534 137.165772 
L 304.1495 130.901285 
L 304.50239 125.113045 
L 304.667147 128.371321 
L 305.018347 126.017795 
L 305.105936 127.364793 
L 305.278579 123.275418 
L 305.545569 126.562036 
L 305.771441 129.216194 
L 305.851708 129.375295 
L 305.986611 128.980803 
L 306.009705 130.652497 
L 306.163479 128.889754 
L 306.305142 132.331279 
L 306.44596 131.35108 
L 306.472715 134.335182 
L 306.616349 134.592702 
L 306.759702 133.043535 
L 306.912912 132.606139 
L 307.053167 131.077047 
L 307.193703 131.152529 
L 307.214544 133.435296 
L 307.368036 131.807176 
L 307.386624 131.900317 
L 307.523499 135.183602 
L 307.822878 131.146883 
L 308.198017 127.420824 
L 308.455714 128.65683 
L 308.765232 124.804948 
L 308.934213 127.364273 
L 309.00603 124.970802 
L 309.08348 128.795387 
L 309.274148 128.426597 
L 309.362863 129.078958 
L 309.777994 124.721514 
L 309.930078 122.804192 
L 309.956833 126.717553 
L 310.041324 125.839695 
L 310.165525 122.797909 
L 310.499546 118.097928 
L 310.972131 116.714911 
L 311.098585 115.133336 
L 311.605248 111.720318 
L 311.904064 108.151987 
L 311.976445 112.826408 
L 312.093323 110.036598 
L 312.256954 112.765372 
L 312.841912 103.707178 
L 312.928092 103.086486 
L 312.990616 106.489941 
L 313.415323 100.632056 
L 313.644856 102.036393 
L 313.829891 102.142523 
L 313.969582 102.441645 
L 314.219675 100.149762 
L 314.38584 111.310287 
L 315.04346 101.935827 
L 315.070779 101.718449 
L 315.421415 102.857198 
L 315.681084 100.609114 
L 315.774587 103.173654 
L 316.035382 101.543331 
L 316.196759 105.072215 
L 316.55838 103.558819 
L 316.769888 119.924082 
L 317.069267 114.566764 
L 317.176852 116.230778 
L 317.200228 120.524568 
L 317.675911 129.89675 
L 317.794761 133.656092 
L 318.013874 142.847842 
L 318.718809 136.045278 
L 318.761618 142.444459 
L 318.915954 142.085056 
L 318.938767 142.117178 
L 319.074515 142.856623 
L 319.425715 139.70509 
L 320.108682 126.749966 
L 320.25119 128.626071 
L 320.56268 124.268624 
L 320.754474 125.858289 
L 321.511511 112.539048 
L 321.676268 112.966598 
L 321.694574 114.52556 
L 321.776249 113.735851 
L 322.113649 108.985682 
L 322.140967 110.211471 
L 322.778591 99.624838 
L 322.841396 99.948905 
L 322.866743 102.333716 
L 322.954895 99.987712 
L 323.026994 104.429891 
L 323.177951 102.552057 
L 323.195131 104.325515 
L 323.355663 103.737732 
L 323.506057 100.433041 
L 323.629695 101.00484 
L 324.028773 93.640498 
L 324.142836 93.437799 
L 324.73061 82.894477 
L 324.884101 81.21026 
L 325.048295 82.3328 
L 325.709013 74.826156 
L 325.846733 71.774004 
L 326.248628 66.91763 
L 326.272285 66.95048 
L 326.536178 67.059884 
L 326.678404 66.992003 
L 326.820912 69.770691 
L 326.976093 68.479423 
L 326.9944 70.917277 
L 327.226186 67.864794 
L 327.370947 70.37403 
L 327.389816 77.149775 
L 327.537112 77.589819 
L 327.67624 75.725555 
L 327.839307 75.208797 
L 327.988293 78.184517 
L 328.346815 71.495967 
L 328.460033 72.661357 
L 328.755469 69.051227 
L 328.77462 72.893374 
L 328.919945 74.088817 
L 329.030627 77.619166 
L 329.672194 65.739173 
L 329.765697 68.636214 
L 329.765979 68.246747 
L 329.932989 67.100398 
L 330.018325 64.415928 
L 330.071836 65.756347 
L 330.241662 63.889094 
L 330.570613 73.316722 
L 330.81113 69.296564 
L 330.830563 71.178835 
L 330.972226 70.971067 
L 331.106848 69.410601 
L 331.131068 74.002929 
L 331.27076 73.982612 
L 331.441149 73.503203 
L 331.584502 75.325792 
L 331.72363 73.723179 
L 331.743345 77.236304 
L 332.052299 70.757587 
L 332.089194 72.335673 
L 332.252261 69.830869 
L 332.642045 82.511298 
L 332.69274 82.385789 
L 333.321914 76.447416 
L 333.46414 75.713825 
L 333.483292 77.944124 
L 333.672269 73.697438 
L 333.712543 75.284066 
L 333.877582 71.806615 
L 333.943766 75.044647 
L 334.196394 69.767002 
L 334.32651 72.987557 
L 334.504504 74.443396 
L 334.64335 72.667441 
L 334.888092 67.438671 
L 334.972583 70.213051 
L 334.992579 70.104695 
L 335.20634 69.738856 
L 335.223802 73.170123 
L 335.68484 68.324228 
L 335.83974 72.503579 
L 335.985345 72.438228 
L 336.096873 77.570235 
L 336.402167 73.690706 
L 336.423853 74.108151 
L 336.587765 75.149938 
L 336.713938 82.386183 
L 336.763787 86.825361 
L 336.899536 84.643959 
L 337.114142 84.840499 
L 337.133294 90.661555 
L 337.254115 88.539873 
L 337.273267 91.967591 
L 337.369304 91.836458 
L 337.657136 88.692075 
L 337.676569 91.066794 
L 338.074803 90.619049 
L 338.164081 88.401782 
L 338.527673 82.66304 
L 338.678067 83.043802 
L 339.083622 76.729417 
L 339.567191 69.119348 
L 339.672523 69.992633 
L 340.225656 66.259733 
L 340.381964 65.775308 
L 340.634873 62.410508 
L 340.905244 58.865234 
L 340.933971 60.298387 
L 341.072817 59.027577 
L 341.100981 60.661413 
L 341.242362 58.553386 
L 341.265456 64.61659 
L 341.543431 72.341816 
L 341.711004 72.641379 
L 341.998273 81.362498 
L 342.135993 80.937785 
L 342.487756 75.909196 
L 342.549998 80.232328 
L 342.698138 79.176762 
L 343.228459 93.462122 
L 343.437432 89.064542 
L 343.521078 91.891722 
L 343.663305 91.347336 
L 344.444563 81.18917 
L 344.496384 82.56244 
L 345.302144 74.169459 
L 345.39621 78.376315 
L 345.486052 79.231237 
L 345.857249 79.670788 
L 345.885694 80.680746 
L 345.904 80.581412 
L 346.049606 80.978218 
L 346.163105 80.609158 
L 346.215208 83.187513 
L 346.550355 76.406129 
L 346.830582 79.000243 
L 347.271624 75.937395 
L 347.290212 80.957052 
L 347.460884 86.201018 
L 347.558893 83.931931 
L 347.665351 89.56165 
L 347.703935 93.887763 
L 347.850386 94.74004 
L 347.870664 102.222793 
L 348.015425 103.186316 
L 348.181872 108.373212 
L 348.247774 112.948371 
L 348.468295 109.346932 
L 348.488573 112.249275 
L 348.655583 111.780719 
L 348.742045 109.806389 
L 348.833014 113.829794 
L 348.981999 113.927112 
L 349.27997 112.51998 
L 349.372628 113.667617 
L 349.56921 110.729257 
L 349.963782 115.810148 
L 350.14769 115.474021 
L 350.147972 116.614992 
L 350.246545 115.849862 
L 350.314137 118.746623 
L 350.455519 117.161157 
L 350.591267 119.59771 
L 350.612953 125.165933 
L 350.699697 123.149919 
L 350.764473 122.870187 
L 351.150878 137.182816 
L 351.329435 137.129468 
L 351.394211 137.964261 
L 351.571079 141.811985 
L 351.707109 140.9591 
L 351.848208 138.693084 
L 351.870739 138.767275 
L 352.009586 143.429928 
L 352.364729 141.777361 
L 352.40979 146.043168 
L 352.553706 144.129301 
L 352.693116 144.644328 
L 353.014463 139.150247 
L 353.032487 141.240262 
L 353.151901 140.326628 
L 353.504509 138.488859 
L 353.663352 148.24324 
L 354.026381 142.426402 
L 354.061022 146.435454 
L 354.355331 157.470924 
L 354.507978 166.439504 
L 354.645135 167.992539 
L 354.665131 172.811332 
L 354.986478 168.207503 
L 355.055197 171.855978 
L 355.348098 173.897262 
L 355.695355 178.345493 
L 355.768862 181.28062 
L 355.931929 180.84652 
L 355.950236 180.941064 
L 356.105981 179.350718 
L 356.191316 182.533189 
L 356.850344 173.923973 
L 357.306595 173.886455 
L 357.540634 169.202378 
L 357.647656 170.286739 
L 357.784249 168.77281 
L 357.921406 169.81308 
L 357.939149 171.63554 
L 358.286124 166.06698 
L 358.432575 172.697049 
L 358.545793 178.016274 
L 358.880939 175.59003 
L 359.323108 182.163909 
L 359.341977 186.156026 
L 359.603054 184.117592 
L 359.744435 184.134427 
L 359.881874 182.232959 
L 360.021565 185.942049 
L 360.109717 183.72278 
L 360.167171 191.027265 
L 360.453313 189.25837 
L 360.540057 192.489784 
L 360.702842 189.627783 
L 360.817187 188.862755 
L 360.842534 191.022545 
L 360.863375 189.335939 
L 361.004193 189.043573 
L 361.138815 187.107427 
L 361.158811 190.214188 
L 361.254286 189.911021 
L 361.388626 188.229216 
L 361.530852 188.77541 
L 361.631959 188.217443 
L 361.689695 190.232842 
L 362.023433 184.594483 
L 362.130173 187.43247 
L 362.333233 186.1249 
L 362.474896 186.965872 
L 362.509819 191.487767 
L 362.906925 185.736956 
L 363.063515 185.953942 
L 363.311918 187.580697 
L 363.464001 193.225186 
L 363.606227 191.62377 
L 363.750425 191.523739 
L 363.848434 190.976453 
L 364.465217 180.640578 
L 364.719253 178.498479 
L 364.879785 175.386405 
L 365.266471 170.739649 
L 365.428975 174.642416 
L 365.696811 171.059487 
L 365.728917 172.946918 
L 365.869172 172.517454 
L 366.180661 168.329231 
L 366.198686 170.032797 
L 366.574389 165.104126 
L 366.693239 162.435522 
L 366.845322 165.450638 
L 366.962483 162.954029 
L 367.012896 165.013406 
L 367.364096 159.818835 
L 367.817248 156.005892 
L 367.954968 153.526993 
L 367.973556 153.588699 
L 368.115782 156.973361 
L 368.257445 157.6728 
L 368.276596 159.74154 
L 368.418822 158.171233 
L 368.558514 158.451155 
L 368.701866 156.801155 
L 369.061234 150.700891 
L 369.089397 155.015655 
L 369.528468 160.662737 
L 369.618028 160.628816 
L 369.968665 157.667001 
L 370.075123 157.813471 
L 371.009873 144.111946 
L 371.359665 143.795721 
L 372.0646 133.572869 
L 372.432135 131.66278 
L 372.605622 128.665842 
L 372.893173 128.951737 
L 372.917957 131.005169 
L 373.078771 127.662286 
L 373.311965 126.278339 
L 373.564029 120.792474 
L 373.607683 126.949441 
L 373.680345 125.75671 
L 373.771313 124.80159 
L 374.170392 116.063843 
L 374.448929 121.158708 
L 374.673957 116.127686 
L 374.701557 116.333427 
L 374.797876 116.599956 
L 374.866314 116.030225 
L 374.911939 118.846026 
L 375.023467 118.19412 
L 375.11697 119.210506 
L 375.258914 117.473963 
L 375.28736 120.664063 
L 375.514077 122.096344 
L 375.747834 136.854602 
L 376.046087 144.650459 
L 376.193664 143.786971 
L 376.33758 143.631191 
L 376.359829 146.128718 
L 376.511631 148.987069 
L 376.530219 152.061555 
L 376.624004 150.654918 
L 376.779467 148.30627 
L 376.858888 148.33248 
L 376.926763 152.324368 
L 377.08307 151.469304 
L 377.105601 152.716311 
L 377.367523 147.536853 
L 377.424413 149.522252 
L 377.671408 149.598519 
L 377.783217 149.973254 
L 377.930231 146.882277 
L 378.057531 148.359479 
L 378.206798 147.681641 
L 378.20708 148.759328 
L 378.349024 149.574074 
L 378.699098 149.550408 
L 379.05593 144.918346 
L 379.868732 134.436857 
L 380.097983 129.070189 
L 380.119388 133.490832 
L 380.406938 130.208339 
L 380.630838 138.385078 
L 380.893605 145.061006 
L 381.017806 144.865787 
L 381.11666 145.289825 
L 381.3507 151.79715 
L 381.554323 148.250101 
L 381.656275 150.934813 
L 382.079574 144.992514 
L 382.100696 146.4667 
L 382.332201 145.69935 
L 382.49893 143.592247 
L 382.638339 148.42621 
L 382.967572 143.035454 
L 383.112896 143.112424 
L 383.133455 145.409646 
L 383.627163 136.790422 
L 383.787132 138.228312 
L 383.809663 138.163057 
L 384.031029 134.265201 
L 384.087356 136.053172 
L 384.388988 137.413951 
L 384.416307 139.63013 
L 384.871712 129.813256 
L 384.961554 130.647338 
L 385.088009 127.847321 
L 385.733237 119.498896 
L 385.843356 116.705228 
L 385.905035 122.895192 
L 386.163295 120.432729 
L 386.265529 121.885839 
L 386.416486 121.305628 
L 386.6325 119.055498 
L 386.984827 113.284048 
L 387.240271 114.782973 
L 387.259704 117.190225 
L 387.576826 114.316015 
L 387.679623 113.337983 
L 388.189947 108.083274 
L 388.258385 110.153565 
L 388.401174 109.115173 
L 388.592123 110.751506 
L 388.676332 110.08935 
L 388.822501 110.303485 
L 388.914033 107.851412 
L 389.024716 110.272685 
L 389.163563 108.866911 
L 389.32156 109.103159 
L 389.473925 106.966106 
L 389.495048 107.890555 
L 389.690503 106.126921 
L 389.714443 107.787024 
L 389.993825 104.645828 
L 390.013822 106.929336 
L 390.169003 107.878604 
L 390.314609 105.984231 
L 390.329817 107.701508 
L 390.540199 104.943568 
L 390.633139 110.517308 
L 390.786349 109.894499 
L 390.88295 113.167954 
L 391.340045 106.953473 
L 391.594362 115.167688 
L 391.971755 106.243687 
L 392.102715 103.78795 
L 392.544884 99.955237 
L 392.789344 100.36052 
L 392.888198 98.544189 
L 392.983109 103.669634 
L 393.074359 103.38076 
L 393.216867 103.372594 
L 393.335436 100.534427 
L 393.373457 104.250255 
L 393.555394 101.086124 
L 393.776759 116.17035 
L 393.918704 117.241209 
L 393.944333 119.846286 
L 394.097824 119.207103 
L 394.525629 125.127222 
L 394.588434 124.997575 
L 394.690386 122.497004 
L 394.741926 125.669676 
L 395.055668 121.431451 
L 395.116783 126.934529 
L 395.535857 128.819731 
L 395.694419 132.863611 
L 395.902547 131.784041 
L 396.011822 132.115561 
L 396.033227 134.420406 
L 396.320495 130.696868 
L 396.483562 135.783993 
L 396.687467 134.055507 
L 396.713096 134.292168 
L 396.730276 136.851218 
L 396.827722 136.11185 
L 397.055283 133.595112 
L 397.341707 135.542147 
L 397.477174 135.443548 
L 397.503085 135.003575 
L 397.679107 135.915032 
L 397.823305 133.827295 
L 398.064385 140.860765 
L 398.605971 137.394727 
L 398.828463 134.234724 
L 398.968718 139.950068 
L 399.324706 134.235117 
L 399.346955 136.584507 
L 399.615354 134.82561 
L 399.779548 135.985344 
L 399.932195 134.273865 
L 400.288464 127.996962 
L 400.375208 130.574105 
L 400.457727 130.394378 
L 400.551794 130.266772 
L 400.652901 133.26006 
L 401.004383 134.257372 
L 401.068596 145.043762 
L 401.339529 142.443824 
L 401.492458 138.938122 
L 401.629333 140.948651 
L 401.651019 142.930995 
L 401.950398 138.471703 
L 401.969831 142.098305 
L 402.11262 140.33043 
L 402.226401 141.39407 
L 402.246679 143.156959 
L 402.39144 141.455339 
L 402.410028 143.683673 
L 402.549719 142.016809 
L 402.686594 142.593925 
L 402.826286 145.851271 
L 402.945699 146.00843 
L 402.98034 149.295133 
L 403.145097 149.417557 
L 403.724986 154.344157 
L 403.745264 159.554792 
L 403.863551 157.844106 
L 403.891433 159.768662 
L 403.979585 157.545942 
L 404.053373 160.505998 
L 404.353879 155.996475 
L 404.501456 155.552332 
L 404.783655 156.135487 
L 404.857726 162.649367 
L 405.236244 157.254267 
L 405.457328 159.633897 
L 405.555338 162.76983 
L 405.807402 163.755329 
L 405.840353 167.998762 
L 406.129593 174.951904 
L 406.148463 180.511271 
L 406.437985 187.342643 
L 406.458263 190.324967 
L 406.740462 189.559713 
L 406.762993 190.703073 
L 406.899023 188.924037 
L 406.914794 190.58531 
L 407.202908 185.977512 
L 407.294158 187.064824 
L 407.341191 192.301389 
L 407.478348 190.496007 
L 407.497781 190.671855 
L 407.640289 191.398659 
L 407.895169 198.520799 
L 408.118788 195.010865 
L 408.281574 194.77385 
L 408.374232 197.295466 
L 408.466609 194.802312 
L 408.534764 196.718677 
L 408.751061 192.895713 
L 408.946235 192.965502 
L 409.337709 189.071208 
L 409.33799 189.995198 
L 409.358268 192.244812 
L 409.786636 186.205468 
L 409.926046 185.579987 
L 410.078411 183.070336 
L 410.26063 183.908942 
L 410.406517 183.970223 
L 410.428766 186.110859 
L 410.77546 183.566802 
L 410.93036 184.102007 
L 411.237343 180.272335 
L 411.378161 180.522016 
L 411.728234 175.388075 
L 411.756116 177.007746 
L 411.98396 173.126053 
L 412.004519 178.251887 
L 412.291506 174.701132 
L 412.311221 176.524983 
L 412.564693 178.00421 
L 412.883787 172.339532 
L 412.912795 174.352004 
L 413.081213 171.774166 
L 413.144863 173.246361 
L 413.440863 175.807914 
L 413.595481 173.982914 
L 413.754323 176.849445 
L 413.835716 176.794437 
L 413.889227 182.211726 
L 414.157626 176.457463 
L 414.256199 181.719882 
L 414.535018 180.082205 
L 414.686257 177.779138 
L 414.702028 179.408375 
L 414.851295 179.793642 
L 414.86932 179.661058 
L 414.984228 176.648404 
L 415.012391 177.79589 
L 415.032106 179.769827 
L 415.290366 174.23497 
L 415.32557 176.73545 
L 415.681558 181.495155 
L 415.84547 179.778511 
L 415.891095 176.65153 
L 415.910528 178.080813 
L 416.049375 178.585426 
L 416.373256 174.538265 
L 416.422542 180.090173 
L 416.712909 175.905662 
L 416.731497 179.369588 
L 416.89034 177.58844 
L 416.912026 177.637203 
L 417.049746 178.010485 
L 417.196196 179.719498 
L 417.573588 174.966104 
L 417.594148 182.917404 
L 417.875502 178.779102 
L 418.180514 182.639012 
L 418.32274 182.375298 
L 418.341328 184.571886 
L 418.483554 183.058825 
L 418.557624 180.13741 
L 418.59818 180.273233 
L 418.75139 178.874711 
L 418.771949 182.692806 
L 419.161452 179.905021 
L 419.196375 182.080407 
L 419.545603 179.983718 
L 419.695152 184.020685 
L 419.714303 188.664985 
L 419.992278 191.757537 
L 420.014809 191.72326 
L 420.307992 190.828643 
L 420.660882 188.173244 
L 420.699466 197.798012 
L 420.846761 197.584339 
L 420.988424 197.719576 
L 421.128116 196.670334 
L 421.241052 199.946455 
L 421.282452 200.813046 
L 421.428903 199.109321 
L 421.450026 203.380678 
L 421.547472 202.366051 
L 421.764331 201.546257 
L 421.915288 200.41843 
L 422.070188 197.236842 
L 422.088776 197.568757 
L 422.224524 198.035287 
L 422.364216 199.078971 
L 422.448143 198.453952 
L 422.517144 201.608687 
L 422.853699 198.378699 
L 422.901577 201.765411 
L 423.045493 200.484264 
L 423.066053 204.622809 
L 423.207152 204.819231 
L 423.224332 204.793136 
L 423.310513 201.807187 
L 423.364868 203.223087 
L 423.387681 207.903148 
L 423.546242 207.733811 
L 423.633831 205.361739 
L 423.777747 205.039442 
L 423.951516 203.593874 
L 424.003619 205.915691 
L 424.105289 205.823768 
L 424.313981 209.917522 
L 424.424101 209.541446 
L 424.589985 207.496194 
L 424.839514 202.756959 
L 424.891053 205.705121 
L 425.0575 209.13327 
L 425.205922 212.816895 
L 425.365892 211.88324 
L 425.386169 216.796684 
L 425.562755 216.550799 
L 425.597678 216.750605 
L 425.881849 213.532174 
L 425.902971 214.567904 
L 426.052802 214.222157 
L 426.069418 216.914797 
L 426.163203 214.573493 
L 426.202914 217.85335 
L 426.396679 214.945262 
L 426.4209 217.115331 
L 426.520317 216.834062 
L 426.66536 216.347842 
L 426.817443 214.936394 
L 427.093447 217.840312 
L 427.444647 214.660214 
L 427.57786 211.885874 
L 427.605179 215.159154 
L 427.681502 213.436327 
L 427.805422 215.02085 
L 427.871325 213.093611 
L 428.033547 215.021704 
L 428.364751 210.922771 
L 428.508104 211.131432 
L 428.563023 213.158905 
L 429.300909 204.426339 
L 429.300909 204.426339 
" clip-path="url(#pe39734a3a0)" style="fill: none; stroke: #1f77b4; stroke-width: 2; stroke-linecap: square"/>
   </g>
   <g id="patch_3">
    <path d="M 62.66 294.64 
L 62.66 31.56 
" style="fill: none; stroke: #000000; stroke-width: 0.8; stroke-linejoin: miter; stroke-linecap: square"/>
   </g>
   <g id="patch_4">
    <path d="M 446.76 294.64 
L 446.76 31.56 
" style="fill: none; stroke: #000000; stroke-width: 0.8; stroke-linejoin: miter; stroke-linecap: square"/>
   </g>
   <g id="patch_5">
    <path d="M 62.66 294.64 
L 446.76 294.64 
" style="fill: none; stroke: #000000; stroke-width: 0.8; stroke-linejoin: miter; stroke-linecap: square"/>
   </g>
   <g id="patch_6">
    <path d="M 62.66 31.56 
L 446.76 31.56 
" style="fill: none; stroke: #000000; stroke-width: 0.8; stroke-linejoin: miter; stroke-linecap: square"/>
   </g>
   <g id="text_18">
    <!-- Learning Curve Smoothed -->
    <g transform="translate(153.028469 25.56)scale(0.156 -0.156)">
     <defs>
      <path id="DejaVuSans-4c" d="M 628 4666 
L 1259 4666 
L 1259 531 
L 3531 531 
L 3531 0 
L 628 0 
L 628 4666 
z
" transform="scale(0.015625)"/>
      <path id="DejaVuSans-6e" d="M 3513 2113 
L 3513 0 
L 2938 0 
L 2938 2094 
Q 2938 2591 2744 2837 
Q 2550 3084 2163 3084 
Q 1697 3084 1428 2787 
Q 1159 2491 1159 1978 
L 1159 0 
L 581 0 
L 581 3500 
L 1159 3500 
L 1159 2956 
Q 1366 3272 1645 3428 
Q 1925 3584 2291 3584 
Q 2894 3584 3203 3211 
Q 3513 2838 3513 2113 
z
" transform="scale(0.015625)"/>
      <path id="DejaVuSans-67" d="M 2906 1791 
Q 2906 2416 2648 2759 
Q 2391 3103 1925 3103 
Q 1463 3103 1205 2759 
Q 947 2416 947 1791 
Q 947 1169 1205 825 
Q 1463 481 1925 481 
Q 2391 481 2648 825 
Q 2906 1169 2906 1791 
z
M 3481 434 
Q 3481 -459 3084 -895 
Q 2688 -1331 1869 -1331 
Q 1566 -1331 1297 -1286 
Q 1028 -1241 775 -1147 
L 775 -588 
Q 1028 -725 1275 -790 
Q 1522 -856 1778 -856 
Q 2344 -856 2625 -561 
Q 2906 -266 2906 331 
L 2906 616 
Q 2728 306 2450 153 
Q 2172 0 1784 0 
Q 1141 0 747 490 
Q 353 981 353 1791 
Q 353 2603 747 3093 
Q 1141 3584 1784 3584 
Q 2172 3584 2450 3431 
Q 2728 3278 2906 2969 
L 2906 3500 
L 3481 3500 
L 3481 434 
z
" transform="scale(0.015625)"/>
      <path id="DejaVuSans-43" d="M 4122 4306 
L 4122 3641 
Q 3803 3938 3442 4084 
Q 3081 4231 2675 4231 
Q 1875 4231 1450 3742 
Q 1025 3253 1025 2328 
Q 1025 1406 1450 917 
Q 1875 428 2675 428 
Q 3081 428 3442 575 
Q 3803 722 4122 1019 
L 4122 359 
Q 3791 134 3420 21 
Q 3050 -91 2638 -91 
Q 1578 -91 968 557 
Q 359 1206 359 2328 
Q 359 3453 968 4101 
Q 1578 4750 2638 4750 
Q 3056 4750 3426 4639 
Q 3797 4528 4122 4306 
z
" transform="scale(0.015625)"/>
      <path id="DejaVuSans-76" d="M 191 3500 
L 800 3500 
L 1894 563 
L 2988 3500 
L 3597 3500 
L 2284 0 
L 1503 0 
L 191 3500 
z
" transform="scale(0.015625)"/>
      <path id="DejaVuSans-53" d="M 3425 4513 
L 3425 3897 
Q 3066 4069 2747 4153 
Q 2428 4238 2131 4238 
Q 1616 4238 1336 4038 
Q 1056 3838 1056 3469 
Q 1056 3159 1242 3001 
Q 1428 2844 1947 2747 
L 2328 2669 
Q 3034 2534 3370 2195 
Q 3706 1856 3706 1288 
Q 3706 609 3251 259 
Q 2797 -91 1919 -91 
Q 1588 -91 1214 -16 
Q 841 59 441 206 
L 441 856 
Q 825 641 1194 531 
Q 1563 422 1919 422 
Q 2459 422 2753 634 
Q 3047 847 3047 1241 
Q 3047 1584 2836 1778 
Q 2625 1972 2144 2069 
L 1759 2144 
Q 1053 2284 737 2584 
Q 422 2884 422 3419 
Q 422 4038 858 4394 
Q 1294 4750 2059 4750 
Q 2388 4750 2728 4690 
Q 3069 4631 3425 4513 
z
" transform="scale(0.015625)"/>
      <path id="DejaVuSans-68" d="M 3513 2113 
L 3513 0 
L 2938 0 
L 2938 2094 
Q 2938 2591 2744 2837 
Q 2550 3084 2163 3084 
Q 1697 3084 1428 2787 
Q 1159 2491 1159 1978 
L 1159 0 
L 581 0 
L 581 4863 
L 1159 4863 
L 1159 2956 
Q 1366 3272 1645 3428 
Q 1925 3584 2291 3584 
Q 2894 3584 3203 3211 
Q 3513 2838 3513 2113 
z
" transform="scale(0.015625)"/>
     </defs>
     <use xlink:href="#DejaVuSans-4c"/>
     <use xlink:href="#DejaVuSans-65" x="53.962891"/>
     <use xlink:href="#DejaVuSans-61" x="115.486328"/>
     <use xlink:href="#DejaVuSans-72" x="176.765625"/>
     <use xlink:href="#DejaVuSans-6e" x="216.128906"/>
     <use xlink:href="#DejaVuSans-69" x="279.507812"/>
     <use xlink:href="#DejaVuSans-6e" x="307.291016"/>
     <use xlink:href="#DejaVuSans-67" x="370.669922"/>
     <use xlink:href="#DejaVuSans-20" x="434.146484"/>
     <use xlink:href="#DejaVuSans-43" x="465.933594"/>
     <use xlink:href="#DejaVuSans-75" x="535.757812"/>
     <use xlink:href="#DejaVuSans-72" x="599.136719"/>
     <use xlink:href="#DejaVuSans-76" x="640.25"/>
     <use xlink:href="#DejaVuSans-65" x="699.429688"/>
     <use xlink:href="#DejaVuSans-20" x="760.953125"/>
     <use xlink:href="#DejaVuSans-53" x="792.740234"/>
     <use xlink:href="#DejaVuSans-6d" x="856.216797"/>
     <use xlink:href="#DejaVuSans-6f" x="953.628906"/>
     <use xlink:href="#DejaVuSans-6f" x="1014.810547"/>
     <use xlink:href="#DejaVuSans-74" x="1075.992188"/>
     <use xlink:href="#DejaVuSans-68" x="1115.201172"/>
     <use xlink:href="#DejaVuSans-65" x="1178.580078"/>
     <use xlink:href="#DejaVuSans-64" x="1240.103516"/>
    </g>
   </g>
   <g id="legend_1">
    <g id="patch_7">
     <path d="M 71.76 61.041562 
L 208.219375 61.041562 
Q 210.819375 61.041562 210.819375 58.441562 
L 210.819375 40.66 
Q 210.819375 38.06 208.219375 38.06 
L 71.76 38.06 
Q 69.16 38.06 69.16 40.66 
L 69.16 58.441562 
Q 69.16 61.041562 71.76 61.041562 
z
" style="fill: #ffffff; opacity: 0.8; stroke: #cccccc; stroke-linejoin: miter"/>
    </g>
    <g id="line2d_30">
     <path d="M 74.36 48.587969 
L 87.36 48.587969 
L 100.36 48.587969 
" style="fill: none; stroke: #1f77b4; stroke-width: 2; stroke-linecap: square"/>
    </g>
    <g id="text_19">
     <!-- Filter size: 300 -->
     <g transform="translate(110.76 53.137969)scale(0.13 -0.13)">
      <defs>
       <path id="DejaVuSans-46" d="M 628 4666 
L 3309 4666 
L 3309 4134 
L 1259 4134 
L 1259 2759 
L 3109 2759 
L 3109 2228 
L 1259 2228 
L 1259 0 
L 628 0 
L 628 4666 
z
" transform="scale(0.015625)"/>
       <path id="DejaVuSans-6c" d="M 603 4863 
L 1178 4863 
L 1178 0 
L 603 0 
L 603 4863 
z
" transform="scale(0.015625)"/>
       <path id="DejaVuSans-7a" d="M 353 3500 
L 3084 3500 
L 3084 2975 
L 922 459 
L 3084 459 
L 3084 0 
L 275 0 
L 275 525 
L 2438 3041 
L 353 3041 
L 353 3500 
z
" transform="scale(0.015625)"/>
       <path id="DejaVuSans-3a" d="M 750 794 
L 1409 794 
L 1409 0 
L 750 0 
L 750 794 
z
M 750 3309 
L 1409 3309 
L 1409 2516 
L 750 2516 
L 750 3309 
z
" transform="scale(0.015625)"/>
       <path id="DejaVuSans-33" d="M 2597 2516 
Q 3050 2419 3304 2112 
Q 3559 1806 3559 1356 
Q 3559 666 3084 287 
Q 2609 -91 1734 -91 
Q 1441 -91 1130 -33 
Q 819 25 488 141 
L 488 750 
Q 750 597 1062 519 
Q 1375 441 1716 441 
Q 2309 441 2620 675 
Q 2931 909 2931 1356 
Q 2931 1769 2642 2001 
Q 2353 2234 1838 2234 
L 1294 2234 
L 1294 2753 
L 1863 2753 
Q 2328 2753 2575 2939 
Q 2822 3125 2822 3475 
Q 2822 3834 2567 4026 
Q 2313 4219 1838 4219 
Q 1578 4219 1281 4162 
Q 984 4106 628 3988 
L 628 4550 
Q 988 4650 1302 4700 
Q 1616 4750 1894 4750 
Q 2613 4750 3031 4423 
Q 3450 4097 3450 3541 
Q 3450 3153 3228 2886 
Q 3006 2619 2597 2516 
z
" transform="scale(0.015625)"/>
      </defs>
      <use xlink:href="#DejaVuSans-46"/>
      <use xlink:href="#DejaVuSans-69" x="50.269531"/>
      <use xlink:href="#DejaVuSans-6c" x="78.052734"/>
      <use xlink:href="#DejaVuSans-74" x="105.835938"/>
      <use xlink:href="#DejaVuSans-65" x="145.044922"/>
      <use xlink:href="#DejaVuSans-72" x="206.568359"/>
      <use xlink:href="#DejaVuSans-20" x="247.681641"/>
      <use xlink:href="#DejaVuSans-73" x="279.46875"/>
      <use xlink:href="#DejaVuSans-69" x="331.568359"/>
      <use xlink:href="#DejaVuSans-7a" x="359.351562"/>
      <use xlink:href="#DejaVuSans-65" x="411.841797"/>
      <use xlink:href="#DejaVuSans-3a" x="473.365234"/>
      <use xlink:href="#DejaVuSans-20" x="507.056641"/>
      <use xlink:href="#DejaVuSans-33" x="538.84375"/>
      <use xlink:href="#DejaVuSans-30" x="602.466797"/>
      <use xlink:href="#DejaVuSans-30" x="666.089844"/>
     </g>
    </g>
   </g>
  </g>
 </g>
 <defs>
  <clipPath id="pe39734a3a0">
   <rect x="62.66" y="31.56" width="384.1" height="263.08"/>
  </clipPath>
 </defs>
</svg>
