<?xml version="1.0" encoding="utf-8" standalone="no"?>
<!DOCTYPE svg PUBLIC "-//W3C//DTD SVG 1.1//EN"
  "http://www.w3.org/Graphics/SVG/1.1/DTD/svg11.dtd">
<svg xmlns:xlink="http://www.w3.org/1999/xlink" width="446.985312pt" height="171.905015pt" viewBox="0 0 446.985312 171.905015" xmlns="http://www.w3.org/2000/svg" version="1.1">
 <metadata>
  <rdf:RDF xmlns:dc="http://purl.org/dc/elements/1.1/" xmlns:cc="http://creativecommons.org/ns#" xmlns:rdf="http://www.w3.org/1999/02/22-rdf-syntax-ns#">
   <cc:Work>
    <dc:type rdf:resource="http://purl.org/dc/dcmitype/StillImage"/>
    <dc:date>2022-06-05T22:17:29.819370</dc:date>
    <dc:format>image/svg+xml</dc:format>
    <dc:creator>
     <cc:Agent>
      <dc:title>Matplotlib v3.5.1, https://matplotlib.org/</dc:title>
     </cc:Agent>
    </dc:creator>
   </cc:Work>
  </rdf:RDF>
 </metadata>
 <defs>
  <style type="text/css">*{stroke-linejoin: round; stroke-linecap: butt}</style>
 </defs>
 <g id="figure_1">
  <g id="patch_1">
   <path d="M 0 171.905015 
L 446.985312 171.905015 
L 446.985312 0 
L 0 0 
z
" style="fill: #ffffff"/>
  </g>
  <g id="axes_1">
   <g id="patch_2">
    <path d="M 55.595313 128.54189 
L 439.785312 128.54189 
L 439.785312 25.053563 
L 55.595313 25.053563 
z
" style="fill: #ffffff"/>
   </g>
   <g id="matplotlib.axis_1">
    <g id="xtick_1">
     <g id="line2d_1">
      <path d="M 86.157898 128.54189 
L 86.157898 25.053563 
" clip-path="url(#pe0df3aebfc)" style="fill: none; stroke: #b0b0b0; stroke-width: 0.8; stroke-linecap: square"/>
     </g>
     <g id="line2d_2">
      <defs>
       <path id="maee0a7b2d2" d="M 0 0 
L 0 3.5 
" style="stroke: #000000; stroke-width: 0.8"/>
      </defs>
      <g>
       <use xlink:href="#maee0a7b2d2" x="86.157898" y="128.54189" style="stroke: #000000; stroke-width: 0.8"/>
      </g>
     </g>
     <g id="text_1">
      <!-- 0.5 -->
      <g transform="translate(75.820867 145.419859)scale(0.13 -0.13)">
       <defs>
        <path id="DejaVuSans-30" d="M 2034 4250 
Q 1547 4250 1301 3770 
Q 1056 3291 1056 2328 
Q 1056 1369 1301 889 
Q 1547 409 2034 409 
Q 2525 409 2770 889 
Q 3016 1369 3016 2328 
Q 3016 3291 2770 3770 
Q 2525 4250 2034 4250 
z
M 2034 4750 
Q 2819 4750 3233 4129 
Q 3647 3509 3647 2328 
Q 3647 1150 3233 529 
Q 2819 -91 2034 -91 
Q 1250 -91 836 529 
Q 422 1150 422 2328 
Q 422 3509 836 4129 
Q 1250 4750 2034 4750 
z
" transform="scale(0.015625)"/>
        <path id="DejaVuSans-2e" d="M 684 794 
L 1344 794 
L 1344 0 
L 684 0 
L 684 794 
z
" transform="scale(0.015625)"/>
        <path id="DejaVuSans-35" d="M 691 4666 
L 3169 4666 
L 3169 4134 
L 1269 4134 
L 1269 2991 
Q 1406 3038 1543 3061 
Q 1681 3084 1819 3084 
Q 2600 3084 3056 2656 
Q 3513 2228 3513 1497 
Q 3513 744 3044 326 
Q 2575 -91 1722 -91 
Q 1428 -91 1123 -41 
Q 819 9 494 109 
L 494 744 
Q 775 591 1075 516 
Q 1375 441 1709 441 
Q 2250 441 2565 725 
Q 2881 1009 2881 1497 
Q 2881 1984 2565 2268 
Q 2250 2553 1709 2553 
Q 1456 2553 1204 2497 
Q 953 2441 691 2322 
L 691 4666 
z
" transform="scale(0.015625)"/>
       </defs>
       <use xlink:href="#DejaVuSans-30"/>
       <use xlink:href="#DejaVuSans-2e" x="63.623047"/>
       <use xlink:href="#DejaVuSans-35" x="95.410156"/>
      </g>
     </g>
    </g>
    <g id="xtick_2">
     <g id="line2d_3">
      <path d="M 132.804874 128.54189 
L 132.804874 25.053563 
" clip-path="url(#pe0df3aebfc)" style="fill: none; stroke: #b0b0b0; stroke-width: 0.8; stroke-linecap: square"/>
     </g>
     <g id="line2d_4">
      <g>
       <use xlink:href="#maee0a7b2d2" x="132.804874" y="128.54189" style="stroke: #000000; stroke-width: 0.8"/>
      </g>
     </g>
     <g id="text_2">
      <!-- 0.6 -->
      <g transform="translate(122.467843 145.419859)scale(0.13 -0.13)">
       <defs>
        <path id="DejaVuSans-36" d="M 2113 2584 
Q 1688 2584 1439 2293 
Q 1191 2003 1191 1497 
Q 1191 994 1439 701 
Q 1688 409 2113 409 
Q 2538 409 2786 701 
Q 3034 994 3034 1497 
Q 3034 2003 2786 2293 
Q 2538 2584 2113 2584 
z
M 3366 4563 
L 3366 3988 
Q 3128 4100 2886 4159 
Q 2644 4219 2406 4219 
Q 1781 4219 1451 3797 
Q 1122 3375 1075 2522 
Q 1259 2794 1537 2939 
Q 1816 3084 2150 3084 
Q 2853 3084 3261 2657 
Q 3669 2231 3669 1497 
Q 3669 778 3244 343 
Q 2819 -91 2113 -91 
Q 1303 -91 875 529 
Q 447 1150 447 2328 
Q 447 3434 972 4092 
Q 1497 4750 2381 4750 
Q 2619 4750 2861 4703 
Q 3103 4656 3366 4563 
z
" transform="scale(0.015625)"/>
       </defs>
       <use xlink:href="#DejaVuSans-30"/>
       <use xlink:href="#DejaVuSans-2e" x="63.623047"/>
       <use xlink:href="#DejaVuSans-36" x="95.410156"/>
      </g>
     </g>
    </g>
    <g id="xtick_3">
     <g id="line2d_5">
      <path d="M 179.45185 128.54189 
L 179.45185 25.053563 
" clip-path="url(#pe0df3aebfc)" style="fill: none; stroke: #b0b0b0; stroke-width: 0.8; stroke-linecap: square"/>
     </g>
     <g id="line2d_6">
      <g>
       <use xlink:href="#maee0a7b2d2" x="179.45185" y="128.54189" style="stroke: #000000; stroke-width: 0.8"/>
      </g>
     </g>
     <g id="text_3">
      <!-- 0.7 -->
      <g transform="translate(169.114819 145.419859)scale(0.13 -0.13)">
       <defs>
        <path id="DejaVuSans-37" d="M 525 4666 
L 3525 4666 
L 3525 4397 
L 1831 0 
L 1172 0 
L 2766 4134 
L 525 4134 
L 525 4666 
z
" transform="scale(0.015625)"/>
       </defs>
       <use xlink:href="#DejaVuSans-30"/>
       <use xlink:href="#DejaVuSans-2e" x="63.623047"/>
       <use xlink:href="#DejaVuSans-37" x="95.410156"/>
      </g>
     </g>
    </g>
    <g id="xtick_4">
     <g id="line2d_7">
      <path d="M 226.098827 128.54189 
L 226.098827 25.053563 
" clip-path="url(#pe0df3aebfc)" style="fill: none; stroke: #b0b0b0; stroke-width: 0.8; stroke-linecap: square"/>
     </g>
     <g id="line2d_8">
      <g>
       <use xlink:href="#maee0a7b2d2" x="226.098827" y="128.54189" style="stroke: #000000; stroke-width: 0.8"/>
      </g>
     </g>
     <g id="text_4">
      <!-- 0.8 -->
      <g transform="translate(215.761795 145.419859)scale(0.13 -0.13)">
       <defs>
        <path id="DejaVuSans-38" d="M 2034 2216 
Q 1584 2216 1326 1975 
Q 1069 1734 1069 1313 
Q 1069 891 1326 650 
Q 1584 409 2034 409 
Q 2484 409 2743 651 
Q 3003 894 3003 1313 
Q 3003 1734 2745 1975 
Q 2488 2216 2034 2216 
z
M 1403 2484 
Q 997 2584 770 2862 
Q 544 3141 544 3541 
Q 544 4100 942 4425 
Q 1341 4750 2034 4750 
Q 2731 4750 3128 4425 
Q 3525 4100 3525 3541 
Q 3525 3141 3298 2862 
Q 3072 2584 2669 2484 
Q 3125 2378 3379 2068 
Q 3634 1759 3634 1313 
Q 3634 634 3220 271 
Q 2806 -91 2034 -91 
Q 1263 -91 848 271 
Q 434 634 434 1313 
Q 434 1759 690 2068 
Q 947 2378 1403 2484 
z
M 1172 3481 
Q 1172 3119 1398 2916 
Q 1625 2713 2034 2713 
Q 2441 2713 2670 2916 
Q 2900 3119 2900 3481 
Q 2900 3844 2670 4047 
Q 2441 4250 2034 4250 
Q 1625 4250 1398 4047 
Q 1172 3844 1172 3481 
z
" transform="scale(0.015625)"/>
       </defs>
       <use xlink:href="#DejaVuSans-30"/>
       <use xlink:href="#DejaVuSans-2e" x="63.623047"/>
       <use xlink:href="#DejaVuSans-38" x="95.410156"/>
      </g>
     </g>
    </g>
    <g id="xtick_5">
     <g id="line2d_9">
      <path d="M 272.745803 128.54189 
L 272.745803 25.053563 
" clip-path="url(#pe0df3aebfc)" style="fill: none; stroke: #b0b0b0; stroke-width: 0.8; stroke-linecap: square"/>
     </g>
     <g id="line2d_10">
      <g>
       <use xlink:href="#maee0a7b2d2" x="272.745803" y="128.54189" style="stroke: #000000; stroke-width: 0.8"/>
      </g>
     </g>
     <g id="text_5">
      <!-- 0.9 -->
      <g transform="translate(262.408772 145.419859)scale(0.13 -0.13)">
       <defs>
        <path id="DejaVuSans-39" d="M 703 97 
L 703 672 
Q 941 559 1184 500 
Q 1428 441 1663 441 
Q 2288 441 2617 861 
Q 2947 1281 2994 2138 
Q 2813 1869 2534 1725 
Q 2256 1581 1919 1581 
Q 1219 1581 811 2004 
Q 403 2428 403 3163 
Q 403 3881 828 4315 
Q 1253 4750 1959 4750 
Q 2769 4750 3195 4129 
Q 3622 3509 3622 2328 
Q 3622 1225 3098 567 
Q 2575 -91 1691 -91 
Q 1453 -91 1209 -44 
Q 966 3 703 97 
z
M 1959 2075 
Q 2384 2075 2632 2365 
Q 2881 2656 2881 3163 
Q 2881 3666 2632 3958 
Q 2384 4250 1959 4250 
Q 1534 4250 1286 3958 
Q 1038 3666 1038 3163 
Q 1038 2656 1286 2365 
Q 1534 2075 1959 2075 
z
" transform="scale(0.015625)"/>
       </defs>
       <use xlink:href="#DejaVuSans-30"/>
       <use xlink:href="#DejaVuSans-2e" x="63.623047"/>
       <use xlink:href="#DejaVuSans-39" x="95.410156"/>
      </g>
     </g>
    </g>
    <g id="xtick_6">
     <g id="line2d_11">
      <path d="M 319.392779 128.54189 
L 319.392779 25.053563 
" clip-path="url(#pe0df3aebfc)" style="fill: none; stroke: #b0b0b0; stroke-width: 0.8; stroke-linecap: square"/>
     </g>
     <g id="line2d_12">
      <g>
       <use xlink:href="#maee0a7b2d2" x="319.392779" y="128.54189" style="stroke: #000000; stroke-width: 0.8"/>
      </g>
     </g>
     <g id="text_6">
      <!-- 1.0 -->
      <g transform="translate(309.055748 145.419859)scale(0.13 -0.13)">
       <defs>
        <path id="DejaVuSans-31" d="M 794 531 
L 1825 531 
L 1825 4091 
L 703 3866 
L 703 4441 
L 1819 4666 
L 2450 4666 
L 2450 531 
L 3481 531 
L 3481 0 
L 794 0 
L 794 531 
z
" transform="scale(0.015625)"/>
       </defs>
       <use xlink:href="#DejaVuSans-31"/>
       <use xlink:href="#DejaVuSans-2e" x="63.623047"/>
       <use xlink:href="#DejaVuSans-30" x="95.410156"/>
      </g>
     </g>
    </g>
    <g id="xtick_7">
     <g id="line2d_13">
      <path d="M 366.039755 128.54189 
L 366.039755 25.053563 
" clip-path="url(#pe0df3aebfc)" style="fill: none; stroke: #b0b0b0; stroke-width: 0.8; stroke-linecap: square"/>
     </g>
     <g id="line2d_14">
      <g>
       <use xlink:href="#maee0a7b2d2" x="366.039755" y="128.54189" style="stroke: #000000; stroke-width: 0.8"/>
      </g>
     </g>
     <g id="text_7">
      <!-- 1.1 -->
      <g transform="translate(355.702724 145.419859)scale(0.13 -0.13)">
       <use xlink:href="#DejaVuSans-31"/>
       <use xlink:href="#DejaVuSans-2e" x="63.623047"/>
       <use xlink:href="#DejaVuSans-31" x="95.410156"/>
      </g>
     </g>
    </g>
    <g id="xtick_8">
     <g id="line2d_15">
      <path d="M 412.686731 128.54189 
L 412.686731 25.053563 
" clip-path="url(#pe0df3aebfc)" style="fill: none; stroke: #b0b0b0; stroke-width: 0.8; stroke-linecap: square"/>
     </g>
     <g id="line2d_16">
      <g>
       <use xlink:href="#maee0a7b2d2" x="412.686731" y="128.54189" style="stroke: #000000; stroke-width: 0.8"/>
      </g>
     </g>
     <g id="text_8">
      <!-- 1.2 -->
      <g transform="translate(402.3497 145.419859)scale(0.13 -0.13)">
       <defs>
        <path id="DejaVuSans-32" d="M 1228 531 
L 3431 531 
L 3431 0 
L 469 0 
L 469 531 
Q 828 903 1448 1529 
Q 2069 2156 2228 2338 
Q 2531 2678 2651 2914 
Q 2772 3150 2772 3378 
Q 2772 3750 2511 3984 
Q 2250 4219 1831 4219 
Q 1534 4219 1204 4116 
Q 875 4013 500 3803 
L 500 4441 
Q 881 4594 1212 4672 
Q 1544 4750 1819 4750 
Q 2544 4750 2975 4387 
Q 3406 4025 3406 3419 
Q 3406 3131 3298 2873 
Q 3191 2616 2906 2266 
Q 2828 2175 2409 1742 
Q 1991 1309 1228 531 
z
" transform="scale(0.015625)"/>
       </defs>
       <use xlink:href="#DejaVuSans-31"/>
       <use xlink:href="#DejaVuSans-2e" x="63.623047"/>
       <use xlink:href="#DejaVuSans-32" x="95.410156"/>
      </g>
     </g>
    </g>
    <g id="text_9">
     <!-- Number of Timesteps -->
     <g transform="translate(177.831562 162.001422)scale(0.13 -0.13)">
      <defs>
       <path id="DejaVuSans-4e" d="M 628 4666 
L 1478 4666 
L 3547 763 
L 3547 4666 
L 4159 4666 
L 4159 0 
L 3309 0 
L 1241 3903 
L 1241 0 
L 628 0 
L 628 4666 
z
" transform="scale(0.015625)"/>
       <path id="DejaVuSans-75" d="M 544 1381 
L 544 3500 
L 1119 3500 
L 1119 1403 
Q 1119 906 1312 657 
Q 1506 409 1894 409 
Q 2359 409 2629 706 
Q 2900 1003 2900 1516 
L 2900 3500 
L 3475 3500 
L 3475 0 
L 2900 0 
L 2900 538 
Q 2691 219 2414 64 
Q 2138 -91 1772 -91 
Q 1169 -91 856 284 
Q 544 659 544 1381 
z
M 1991 3584 
L 1991 3584 
z
" transform="scale(0.015625)"/>
       <path id="DejaVuSans-6d" d="M 3328 2828 
Q 3544 3216 3844 3400 
Q 4144 3584 4550 3584 
Q 5097 3584 5394 3201 
Q 5691 2819 5691 2113 
L 5691 0 
L 5113 0 
L 5113 2094 
Q 5113 2597 4934 2840 
Q 4756 3084 4391 3084 
Q 3944 3084 3684 2787 
Q 3425 2491 3425 1978 
L 3425 0 
L 2847 0 
L 2847 2094 
Q 2847 2600 2669 2842 
Q 2491 3084 2119 3084 
Q 1678 3084 1418 2786 
Q 1159 2488 1159 1978 
L 1159 0 
L 581 0 
L 581 3500 
L 1159 3500 
L 1159 2956 
Q 1356 3278 1631 3431 
Q 1906 3584 2284 3584 
Q 2666 3584 2933 3390 
Q 3200 3197 3328 2828 
z
" transform="scale(0.015625)"/>
       <path id="DejaVuSans-62" d="M 3116 1747 
Q 3116 2381 2855 2742 
Q 2594 3103 2138 3103 
Q 1681 3103 1420 2742 
Q 1159 2381 1159 1747 
Q 1159 1113 1420 752 
Q 1681 391 2138 391 
Q 2594 391 2855 752 
Q 3116 1113 3116 1747 
z
M 1159 2969 
Q 1341 3281 1617 3432 
Q 1894 3584 2278 3584 
Q 2916 3584 3314 3078 
Q 3713 2572 3713 1747 
Q 3713 922 3314 415 
Q 2916 -91 2278 -91 
Q 1894 -91 1617 61 
Q 1341 213 1159 525 
L 1159 0 
L 581 0 
L 581 4863 
L 1159 4863 
L 1159 2969 
z
" transform="scale(0.015625)"/>
       <path id="DejaVuSans-65" d="M 3597 1894 
L 3597 1613 
L 953 1613 
Q 991 1019 1311 708 
Q 1631 397 2203 397 
Q 2534 397 2845 478 
Q 3156 559 3463 722 
L 3463 178 
Q 3153 47 2828 -22 
Q 2503 -91 2169 -91 
Q 1331 -91 842 396 
Q 353 884 353 1716 
Q 353 2575 817 3079 
Q 1281 3584 2069 3584 
Q 2775 3584 3186 3129 
Q 3597 2675 3597 1894 
z
M 3022 2063 
Q 3016 2534 2758 2815 
Q 2500 3097 2075 3097 
Q 1594 3097 1305 2825 
Q 1016 2553 972 2059 
L 3022 2063 
z
" transform="scale(0.015625)"/>
       <path id="DejaVuSans-72" d="M 2631 2963 
Q 2534 3019 2420 3045 
Q 2306 3072 2169 3072 
Q 1681 3072 1420 2755 
Q 1159 2438 1159 1844 
L 1159 0 
L 581 0 
L 581 3500 
L 1159 3500 
L 1159 2956 
Q 1341 3275 1631 3429 
Q 1922 3584 2338 3584 
Q 2397 3584 2469 3576 
Q 2541 3569 2628 3553 
L 2631 2963 
z
" transform="scale(0.015625)"/>
       <path id="DejaVuSans-20" transform="scale(0.015625)"/>
       <path id="DejaVuSans-6f" d="M 1959 3097 
Q 1497 3097 1228 2736 
Q 959 2375 959 1747 
Q 959 1119 1226 758 
Q 1494 397 1959 397 
Q 2419 397 2687 759 
Q 2956 1122 2956 1747 
Q 2956 2369 2687 2733 
Q 2419 3097 1959 3097 
z
M 1959 3584 
Q 2709 3584 3137 3096 
Q 3566 2609 3566 1747 
Q 3566 888 3137 398 
Q 2709 -91 1959 -91 
Q 1206 -91 779 398 
Q 353 888 353 1747 
Q 353 2609 779 3096 
Q 1206 3584 1959 3584 
z
" transform="scale(0.015625)"/>
       <path id="DejaVuSans-66" d="M 2375 4863 
L 2375 4384 
L 1825 4384 
Q 1516 4384 1395 4259 
Q 1275 4134 1275 3809 
L 1275 3500 
L 2222 3500 
L 2222 3053 
L 1275 3053 
L 1275 0 
L 697 0 
L 697 3053 
L 147 3053 
L 147 3500 
L 697 3500 
L 697 3744 
Q 697 4328 969 4595 
Q 1241 4863 1831 4863 
L 2375 4863 
z
" transform="scale(0.015625)"/>
       <path id="DejaVuSans-54" d="M -19 4666 
L 3928 4666 
L 3928 4134 
L 2272 4134 
L 2272 0 
L 1638 0 
L 1638 4134 
L -19 4134 
L -19 4666 
z
" transform="scale(0.015625)"/>
       <path id="DejaVuSans-69" d="M 603 3500 
L 1178 3500 
L 1178 0 
L 603 0 
L 603 3500 
z
M 603 4863 
L 1178 4863 
L 1178 4134 
L 603 4134 
L 603 4863 
z
" transform="scale(0.015625)"/>
       <path id="DejaVuSans-73" d="M 2834 3397 
L 2834 2853 
Q 2591 2978 2328 3040 
Q 2066 3103 1784 3103 
Q 1356 3103 1142 2972 
Q 928 2841 928 2578 
Q 928 2378 1081 2264 
Q 1234 2150 1697 2047 
L 1894 2003 
Q 2506 1872 2764 1633 
Q 3022 1394 3022 966 
Q 3022 478 2636 193 
Q 2250 -91 1575 -91 
Q 1294 -91 989 -36 
Q 684 19 347 128 
L 347 722 
Q 666 556 975 473 
Q 1284 391 1588 391 
Q 1994 391 2212 530 
Q 2431 669 2431 922 
Q 2431 1156 2273 1281 
Q 2116 1406 1581 1522 
L 1381 1569 
Q 847 1681 609 1914 
Q 372 2147 372 2553 
Q 372 3047 722 3315 
Q 1072 3584 1716 3584 
Q 2034 3584 2315 3537 
Q 2597 3491 2834 3397 
z
" transform="scale(0.015625)"/>
       <path id="DejaVuSans-74" d="M 1172 4494 
L 1172 3500 
L 2356 3500 
L 2356 3053 
L 1172 3053 
L 1172 1153 
Q 1172 725 1289 603 
Q 1406 481 1766 481 
L 2356 481 
L 2356 0 
L 1766 0 
Q 1100 0 847 248 
Q 594 497 594 1153 
L 594 3053 
L 172 3053 
L 172 3500 
L 594 3500 
L 594 4494 
L 1172 4494 
z
" transform="scale(0.015625)"/>
       <path id="DejaVuSans-70" d="M 1159 525 
L 1159 -1331 
L 581 -1331 
L 581 3500 
L 1159 3500 
L 1159 2969 
Q 1341 3281 1617 3432 
Q 1894 3584 2278 3584 
Q 2916 3584 3314 3078 
Q 3713 2572 3713 1747 
Q 3713 922 3314 415 
Q 2916 -91 2278 -91 
Q 1894 -91 1617 61 
Q 1341 213 1159 525 
z
M 3116 1747 
Q 3116 2381 2855 2742 
Q 2594 3103 2138 3103 
Q 1681 3103 1420 2742 
Q 1159 2381 1159 1747 
Q 1159 1113 1420 752 
Q 1681 391 2138 391 
Q 2594 391 2855 752 
Q 3116 1113 3116 1747 
z
" transform="scale(0.015625)"/>
      </defs>
      <use xlink:href="#DejaVuSans-4e"/>
      <use xlink:href="#DejaVuSans-75" x="74.804688"/>
      <use xlink:href="#DejaVuSans-6d" x="138.183594"/>
      <use xlink:href="#DejaVuSans-62" x="235.595703"/>
      <use xlink:href="#DejaVuSans-65" x="299.072266"/>
      <use xlink:href="#DejaVuSans-72" x="360.595703"/>
      <use xlink:href="#DejaVuSans-20" x="401.708984"/>
      <use xlink:href="#DejaVuSans-6f" x="433.496094"/>
      <use xlink:href="#DejaVuSans-66" x="494.677734"/>
      <use xlink:href="#DejaVuSans-20" x="529.882812"/>
      <use xlink:href="#DejaVuSans-54" x="561.669922"/>
      <use xlink:href="#DejaVuSans-69" x="619.628906"/>
      <use xlink:href="#DejaVuSans-6d" x="647.412109"/>
      <use xlink:href="#DejaVuSans-65" x="744.824219"/>
      <use xlink:href="#DejaVuSans-73" x="806.347656"/>
      <use xlink:href="#DejaVuSans-74" x="858.447266"/>
      <use xlink:href="#DejaVuSans-65" x="897.65625"/>
      <use xlink:href="#DejaVuSans-70" x="959.179688"/>
      <use xlink:href="#DejaVuSans-73" x="1022.65625"/>
     </g>
    </g>
    <g id="text_10">
     <!-- 1e6 -->
     <g transform="translate(415.24375 161.001422)scale(0.13 -0.13)">
      <use xlink:href="#DejaVuSans-31"/>
      <use xlink:href="#DejaVuSans-65" x="63.623047"/>
      <use xlink:href="#DejaVuSans-36" x="125.146484"/>
     </g>
    </g>
   </g>
   <g id="matplotlib.axis_2">
    <g id="ytick_1">
     <g id="line2d_17">
      <path d="M 55.595313 128.162035 
L 439.785312 128.162035 
" clip-path="url(#pe0df3aebfc)" style="fill: none; stroke: #b0b0b0; stroke-width: 0.8; stroke-linecap: square"/>
     </g>
     <g id="line2d_18">
      <defs>
       <path id="md509718059" d="M 0 0 
L -3.5 0 
" style="stroke: #000000; stroke-width: 0.8"/>
      </defs>
      <g>
       <use xlink:href="#md509718059" x="55.595313" y="128.162035" style="stroke: #000000; stroke-width: 0.8"/>
      </g>
     </g>
     <g id="text_11">
      <!-- 120 -->
      <g transform="translate(23.781563 133.101019)scale(0.13 -0.13)">
       <use xlink:href="#DejaVuSans-31"/>
       <use xlink:href="#DejaVuSans-32" x="63.623047"/>
       <use xlink:href="#DejaVuSans-30" x="127.246094"/>
      </g>
     </g>
    </g>
    <g id="ytick_2">
     <g id="line2d_19">
      <path d="M 55.595313 81.515059 
L 439.785312 81.515059 
" clip-path="url(#pe0df3aebfc)" style="fill: none; stroke: #b0b0b0; stroke-width: 0.8; stroke-linecap: square"/>
     </g>
     <g id="line2d_20">
      <g>
       <use xlink:href="#md509718059" x="55.595313" y="81.515059" style="stroke: #000000; stroke-width: 0.8"/>
      </g>
     </g>
     <g id="text_12">
      <!-- 140 -->
      <g transform="translate(23.781563 86.454043)scale(0.13 -0.13)">
       <defs>
        <path id="DejaVuSans-34" d="M 2419 4116 
L 825 1625 
L 2419 1625 
L 2419 4116 
z
M 2253 4666 
L 3047 4666 
L 3047 1625 
L 3713 1625 
L 3713 1100 
L 3047 1100 
L 3047 0 
L 2419 0 
L 2419 1100 
L 313 1100 
L 313 1709 
L 2253 4666 
z
" transform="scale(0.015625)"/>
       </defs>
       <use xlink:href="#DejaVuSans-31"/>
       <use xlink:href="#DejaVuSans-34" x="63.623047"/>
       <use xlink:href="#DejaVuSans-30" x="127.246094"/>
      </g>
     </g>
    </g>
    <g id="ytick_3">
     <g id="line2d_21">
      <path d="M 55.595313 34.868082 
L 439.785312 34.868082 
" clip-path="url(#pe0df3aebfc)" style="fill: none; stroke: #b0b0b0; stroke-width: 0.8; stroke-linecap: square"/>
     </g>
     <g id="line2d_22">
      <g>
       <use xlink:href="#md509718059" x="55.595313" y="34.868082" style="stroke: #000000; stroke-width: 0.8"/>
      </g>
     </g>
     <g id="text_13">
      <!-- 160 -->
      <g transform="translate(23.781563 39.807067)scale(0.13 -0.13)">
       <use xlink:href="#DejaVuSans-31"/>
       <use xlink:href="#DejaVuSans-36" x="63.623047"/>
       <use xlink:href="#DejaVuSans-30" x="127.246094"/>
      </g>
     </g>
    </g>
    <g id="text_14">
     <!-- Rewards -->
     <g transform="translate(17.077969 104.391242)rotate(-90)scale(0.13 -0.13)">
      <defs>
       <path id="DejaVuSans-52" d="M 2841 2188 
Q 3044 2119 3236 1894 
Q 3428 1669 3622 1275 
L 4263 0 
L 3584 0 
L 2988 1197 
Q 2756 1666 2539 1819 
Q 2322 1972 1947 1972 
L 1259 1972 
L 1259 0 
L 628 0 
L 628 4666 
L 2053 4666 
Q 2853 4666 3247 4331 
Q 3641 3997 3641 3322 
Q 3641 2881 3436 2590 
Q 3231 2300 2841 2188 
z
M 1259 4147 
L 1259 2491 
L 2053 2491 
Q 2509 2491 2742 2702 
Q 2975 2913 2975 3322 
Q 2975 3731 2742 3939 
Q 2509 4147 2053 4147 
L 1259 4147 
z
" transform="scale(0.015625)"/>
       <path id="DejaVuSans-77" d="M 269 3500 
L 844 3500 
L 1563 769 
L 2278 3500 
L 2956 3500 
L 3675 769 
L 4391 3500 
L 4966 3500 
L 4050 0 
L 3372 0 
L 2619 2869 
L 1863 0 
L 1184 0 
L 269 3500 
z
" transform="scale(0.015625)"/>
       <path id="DejaVuSans-61" d="M 2194 1759 
Q 1497 1759 1228 1600 
Q 959 1441 959 1056 
Q 959 750 1161 570 
Q 1363 391 1709 391 
Q 2188 391 2477 730 
Q 2766 1069 2766 1631 
L 2766 1759 
L 2194 1759 
z
M 3341 1997 
L 3341 0 
L 2766 0 
L 2766 531 
Q 2569 213 2275 61 
Q 1981 -91 1556 -91 
Q 1019 -91 701 211 
Q 384 513 384 1019 
Q 384 1609 779 1909 
Q 1175 2209 1959 2209 
L 2766 2209 
L 2766 2266 
Q 2766 2663 2505 2880 
Q 2244 3097 1772 3097 
Q 1472 3097 1187 3025 
Q 903 2953 641 2809 
L 641 3341 
Q 956 3463 1253 3523 
Q 1550 3584 1831 3584 
Q 2591 3584 2966 3190 
Q 3341 2797 3341 1997 
z
" transform="scale(0.015625)"/>
       <path id="DejaVuSans-64" d="M 2906 2969 
L 2906 4863 
L 3481 4863 
L 3481 0 
L 2906 0 
L 2906 525 
Q 2725 213 2448 61 
Q 2172 -91 1784 -91 
Q 1150 -91 751 415 
Q 353 922 353 1747 
Q 353 2572 751 3078 
Q 1150 3584 1784 3584 
Q 2172 3584 2448 3432 
Q 2725 3281 2906 2969 
z
M 947 1747 
Q 947 1113 1208 752 
Q 1469 391 1925 391 
Q 2381 391 2643 752 
Q 2906 1113 2906 1747 
Q 2906 2381 2643 2742 
Q 2381 3103 1925 3103 
Q 1469 3103 1208 2742 
Q 947 2381 947 1747 
z
" transform="scale(0.015625)"/>
      </defs>
      <use xlink:href="#DejaVuSans-52"/>
      <use xlink:href="#DejaVuSans-65" x="64.982422"/>
      <use xlink:href="#DejaVuSans-77" x="126.505859"/>
      <use xlink:href="#DejaVuSans-61" x="208.292969"/>
      <use xlink:href="#DejaVuSans-72" x="269.572266"/>
      <use xlink:href="#DejaVuSans-64" x="308.935547"/>
      <use xlink:href="#DejaVuSans-73" x="372.412109"/>
     </g>
    </g>
   </g>
   <g id="line2d_23">
    <path d="M 73.058494 123.837875 
L 73.323449 122.855534 
L 73.675167 122.647861 
L 74.449507 120.807758 
L 75.063848 116.097642 
L 75.237841 116.181493 
L 75.474341 115.309605 
L 75.970665 114.092737 
L 76.005184 114.560394 
L 77.944765 108.665746 
L 78.432692 107.512018 
L 78.964468 105.389634 
L 79.021844 105.504125 
L 79.26021 105.878475 
L 79.870352 103.870406 
L 80.27105 101.937053 
L 80.525276 101.518998 
L 80.570057 101.588173 
L 81.356991 98.279537 
L 81.357458 99.303715 
L 81.58183 98.681215 
L 81.615882 100.694335 
L 82.304391 98.014743 
L 82.386024 98.68738 
L 82.643981 97.889505 
L 82.680833 96.891389 
L 83.271383 96.353691 
L 83.342753 93.308429 
L 83.838144 91.55955 
L 84.208055 91.132518 
L 84.252836 91.363954 
L 84.284556 91.265723 
L 84.877905 90.618155 
L 85.113472 89.417031 
L 85.152656 88.468218 
L 85.183443 83.536836 
L 85.461925 82.957506 
L 85.704956 82.807366 
L 85.740408 83.82765 
L 86.458771 81.748682 
L 86.490491 82.900782 
L 86.732122 82.407761 
L 86.762909 81.870425 
L 87.028331 80.983554 
L 87.102966 74.536038 
L 87.296084 74.838515 
L 87.464013 74.739676 
L 87.969667 67.619725 
L 88.260744 69.71416 
L 88.53876 68.783944 
L 88.808379 67.527609 
L 88.89421 63.152283 
L 89.529075 60.203309 
L 89.688141 56.968096 
L 90.318342 52.558507 
L 90.466213 54.73045 
L 90.728369 53.46773 
L 90.862712 53.981648 
L 90.904228 53.936063 
L 91.173381 53.58735 
L 91.214897 53.313109 
L 91.316121 54.544942 
L 91.822707 53.768479 
L 91.85396 54.839758 
L 92.094659 54.041187 
L 92.374074 52.469108 
L 92.512149 53.122377 
L 92.928707 50.873479 
L 93.201125 51.979868 
L 93.447421 51.191323 
L 93.684388 51.168873 
L 94.253947 52.51772 
L 94.377095 52.112795 
L 94.663508 53.378836 
L 94.694761 55.350667 
L 94.969978 57.223078 
L 95.25919 56.590082 
L 95.532541 58.541755 
L 95.616972 58.476836 
L 96.22898 57.672873 
L 96.680057 55.911384 
L 97.368099 56.084092 
L 97.696961 54.733249 
L 97.933461 54.361081 
L 98.860803 51.216317 
L 99.540449 53.811312 
L 100.2089 57.753457 
L 100.467791 57.476523 
L 100.690297 56.331904 
L 100.814845 56.809039 
L 100.847497 56.758946 
L 101.355949 56.684364 
L 101.387203 57.389203 
L 101.858337 57.612391 
L 102.087841 56.705305 
L 102.121426 57.194658 
L 102.359792 56.450284 
L 102.398043 58.566702 
L 102.664397 57.879076 
L 102.906028 57.659358 
L 102.944745 58.361606 
L 103.21763 59.376127 
L 103.706024 60.066147 
L 104.248528 57.504626 
L 104.361881 57.972316 
L 104.597914 57.794031 
L 104.673949 57.896802 
L 104.917913 58.768854 
L 105.198261 57.856491 
L 105.242576 59.984701 
L 105.534119 61.457781 
L 105.779016 61.257837 
L 106.239888 59.774718 
L 106.273007 60.508948 
L 106.887814 57.275341 
L 106.997435 57.892977 
L 107.591717 57.954604 
L 107.665886 58.408309 
L 107.907517 58.281722 
L 108.487806 56.32656 
L 108.568971 56.253602 
L 108.617018 57.035948 
L 109.047569 54.838709 
L 109.082088 56.771341 
L 109.239755 56.029957 
L 109.876953 56.281351 
L 109.982841 56.01879 
L 110.018759 56.857066 
L 110.48383 55.615753 
L 110.51415 56.471968 
L 110.787502 56.082681 
L 111.04406 55.323411 
L 111.175138 55.601206 
L 111.207324 56.358036 
L 111.449422 55.701902 
L 111.733502 55.875414 
L 111.9756 56.349662 
L 112.455131 54.599797 
L 112.700028 54.547052 
L 112.935128 54.934745 
L 113.08953 54.850633 
L 113.255593 55.525875 
L 113.559731 54.720143 
L 113.786436 54.841129 
L 114.418969 64.418782 
L 114.671329 63.633604 
L 114.706314 63.94049 
L 114.961473 62.921341 
L 115.005321 64.413141 
L 115.242754 63.62433 
L 115.291267 65.448646 
L 115.527301 64.895499 
L 115.558088 66.637227 
L 115.75867 65.861886 
L 115.849165 66.344609 
L 115.883684 66.309603 
L 116.265256 65.227915 
L 116.300241 65.392727 
L 116.329629 66.041258 
L 116.857206 68.988367 
L 117.039596 67.988229 
L 117.170674 68.820801 
L 117.395979 69.115342 
L 117.429098 69.043907 
L 117.672129 68.262263 
L 117.705248 69.780181 
L 117.920291 68.771871 
L 117.949678 69.275395 
L 118.190377 68.538213 
L 118.228627 69.238021 
L 118.512241 68.821769 
L 118.75947 68.175406 
L 118.975912 67.002562 
L 119.183957 67.746425 
L 119.330895 68.52286 
L 119.44518 69.024265 
L 119.858006 68.352143 
L 120.210191 67.218068 
L 120.699051 65.033279 
L 121.141264 63.611428 
L 121.65718 61.159911 
L 121.807383 61.622205 
L 122.151638 60.163278 
L 122.334494 60.422067 
L 122.711402 62.797309 
L 123.266034 61.40341 
L 123.266501 61.996272 
L 123.302885 61.915415 
L 123.538919 62.824603 
L 123.570639 63.647411 
L 124.12807 62.01017 
L 124.356174 60.744643 
L 124.927133 58.986803 
L 125.114187 59.847754 
L 125.159435 59.837523 
L 125.159901 61.499175 
L 125.39127 61.226501 
L 125.42439 61.998009 
L 125.681881 62.297667 
L 125.876399 61.884544 
L 126.15768 61.017445 
L 126.790213 58.020694 
L 126.943682 58.482294 
L 127.370035 56.146986 
L 127.528635 56.816191 
L 127.951256 55.312409 
L 128.247465 54.480614 
L 128.477901 54.421346 
L 128.99988 52.144991 
L 129.113699 53.29156 
L 129.368392 53.155637 
L 129.635679 52.863999 
L 129.886173 52.166693 
L 129.927222 53.120876 
L 130.381564 51.541896 
L 130.637189 51.568505 
L 130.870891 51.447444 
L 130.968383 52.885344 
L 131.202551 52.239518 
L 131.238002 52.408393 
L 132.020739 50.267234 
L 132.099106 51.009166 
L 132.547383 48.922586 
L 132.657003 49.728761 
L 132.903299 49.208535 
L 133.328253 50.173734 
L 133.964985 46.95522 
L 134.159969 46.758611 
L 135.367659 42.81407 
L 135.622352 41.726137 
L 135.762293 45.151905 
L 136.082291 43.778372 
L 136.201707 45.787744 
L 136.859896 45.902465 
L 137.099661 45.838675 
L 137.332896 46.060981 
L 137.572195 47.196044 
L 138.058257 47.863439 
L 138.290092 47.180894 
L 138.518662 48.164178 
L 138.553648 50.01918 
L 139.019651 48.284547 
L 139.161924 48.969479 
L 140.530547 45.391167 
L 140.620109 46.039285 
L 141.651473 43.111459 
L 141.844125 44.277964 
L 142.826977 40.472673 
L 143.393738 38.919146 
L 143.643299 37.814093 
L 144.155017 36.342747 
L 144.338806 36.306862 
L 144.372858 36.851106 
L 144.633615 35.87428 
L 144.76236 36.671399 
L 145.01612 36.82156 
L 145.400024 34.858491 
L 145.518974 36.482446 
L 146.179495 35.670036 
L 146.387541 35.282321 
L 146.425791 37.551025 
L 147.073251 35.54945 
L 147.115234 35.721312 
L 147.29669 34.458108 
L 147.50287 34.201729 
L 147.677796 33.185661 
L 147.719312 34.448639 
L 147.96794 35.048426 
L 148.001993 36.909461 
L 148.436276 35.329527 
L 148.466597 35.395083 
L 148.794058 35.090351 
L 148.867761 35.610875 
L 149.143444 34.460812 
L 149.282452 35.921751 
L 149.561868 36.12366 
L 149.914052 35.665898 
L 150.183205 34.378575 
L 150.380056 35.270974 
L 150.919761 33.856876 
L 151.343316 31.88504 
L 151.559758 32.228596 
L 151.787861 31.089159 
L 152.309841 29.757577 
L 152.55567 29.766703 
L 152.796369 30.02089 
L 153.046863 31.764494 
L 153.359398 31.163042 
L 153.609426 31.336024 
L 153.89164 30.688752 
L 153.926159 32.288336 
L 154.174321 31.885444 
L 154.20744 31.925538 
L 154.463532 32.396617 
L 154.496651 34.535332 
L 154.773734 34.618545 
L 154.999506 35.689823 
L 155.22621 35.166242 
L 155.263994 36.707835 
L 155.671689 35.121149 
L 155.909122 35.060936 
L 156.248245 33.445452 
L 156.459089 33.241997 
L 156.71145 33.520331 
L 156.739438 33.38913 
L 157.104217 32.567284 
L 157.344916 32.781566 
L 157.382233 33.476418 
L 158.156573 31.610024 
L 158.409866 31.262786 
L 158.442052 31.795446 
L 158.830622 31.948102 
L 159.146422 31.220683 
L 159.260707 31.671575 
L 159.418374 34.121518 
L 159.835864 32.651875 
L 160.028516 36.679182 
L 160.412421 35.848356 
L 160.442741 36.61511 
L 160.68997 36.109408 
L 160.969852 35.306807 
L 161.223612 35.176298 
L 161.452182 34.426399 
L 161.485301 34.925994 
L 161.773113 34.903318 
L 162.012878 33.770161 
L 162.471885 32.537035 
L 162.74337 32.574215 
L 162.777422 33.267839 
L 162.975672 32.204636 
L 163.007858 32.919364 
L 163.053572 32.875105 
L 163.306866 32.554252 
L 163.779866 31.52926 
L 163.829312 32.708859 
L 164.074208 32.986487 
L 164.103596 35.130289 
L 164.404469 34.686889 
L 164.435256 35.223538 
L 164.908256 33.825987 
L 164.937177 32.806485 
L 165.071521 33.164726 
L 165.489011 33.629934 
L 165.780088 33.203327 
L 166.307666 31.877203 
L 166.341251 31.891132 
L 166.372038 33.190454 
L 166.611337 34.474931 
L 166.870695 34.587986 
L 166.902414 36.55695 
L 167.139381 38.153129 
L 167.168302 39.185676 
L 167.409001 40.705994 
L 167.921184 41.124151 
L 167.998618 43.144365 
L 168.278967 44.112516 
L 168.430569 45.84094 
L 168.779489 46.229916 
L 168.908701 45.431422 
L 169.017855 45.648428 
L 169.430214 45.962744 
L 169.545899 47.748941 
L 169.857967 49.113435 
L 170.096799 48.452509 
L 170.134583 49.450243 
L 170.340297 48.437865 
L 170.52222 48.315119 
L 170.550208 50.414705 
L 170.783443 50.307176 
L 170.826825 51.023251 
L 171.156152 49.887098 
L 171.432302 49.686883 
L 171.558249 51.115959 
L 171.827402 51.161911 
L 172.064369 50.613637 
L 172.095156 52.143696 
L 172.251423 51.307837 
L 172.364775 52.589085 
L 172.673578 55.151877 
L 172.911478 55.451611 
L 173.147512 54.408494 
L 173.178299 56.244092 
L 173.341097 57.435903 
L 173.454915 60.902269 
L 174.038469 59.259766 
L 174.071122 59.789683 
L 174.497475 57.109155 
L 174.559049 57.920766 
L 174.908901 56.522246 
L 175.066568 56.376567 
L 175.247559 55.377274 
L 175.310532 54.129147 
L 175.543767 53.501898 
L 175.573154 54.852934 
L 175.821316 54.754829 
L 176.206154 52.822033 
L 176.368485 54.043537 
L 176.920319 51.874357 
L 177.24125 51.648516 
L 177.510403 52.171048 
L 177.598566 52.115901 
L 178.068768 52.537653 
L 178.313664 53.381577 
L 178.344451 55.373584 
L 178.60894 55.039033 
L 179.143514 58.227715 
L 179.530217 58.283509 
L 179.818962 57.614972 
L 179.867009 59.756944 
L 180.117036 58.973678 
L 180.152488 58.989866 
L 180.436102 58.803307 
L 180.618491 58.34787 
L 180.865254 58.413598 
L 181.467 56.865451 
L 181.543034 57.548538 
L 181.57662 57.511184 
L 181.910613 57.855185 
L 182.225946 57.104718 
L 182.492767 59.360996 
L 183.31422 57.881598 
L 183.344541 58.731684 
L 183.87585 56.407662 
L 184.050776 56.280459 
L 184.377305 55.033805 
L 184.739285 55.600367 
L 184.976252 54.978835 
L 185.257533 56.023174 
L 185.493567 55.692758 
L 186.050998 53.301149 
L 186.186741 53.981459 
L 186.379393 52.91587 
L 186.440967 53.910829 
L 186.774959 52.950264 
L 187.096823 51.351574 
L 187.476063 50.835195 
L 187.517579 51.321848 
L 187.710231 51.236989 
L 187.757345 51.943806 
L 188.284455 50.561131 
L 188.322239 51.755891 
L 188.548011 51.844702 
L 188.656232 54.0728 
L 188.902061 53.796112 
L 188.947309 55.834377 
L 189.289231 54.107828 
L 189.485149 54.5796 
L 189.995933 52.507256 
L 190.048178 53.156479 
L 190.089227 53.152028 
L 190.201646 52.796437 
L 190.375639 53.085127 
L 190.772605 56.034262 
L 191.129921 54.954591 
L 191.280591 55.507697 
L 191.523155 57.857878 
L 191.767585 57.28568 
L 191.998954 59.220187 
L 192.060528 61.867942 
L 192.676268 59.735692 
L 192.713119 60.59183 
L 193.146936 58.900078 
L 193.195449 59.655957 
L 193.228568 59.651775 
L 193.865766 59.219253 
L 193.908215 58.945387 
L 194.231478 59.551138 
L 194.321507 62.303201 
L 194.652701 60.613072 
L 194.749726 61.545692 
L 194.985294 60.834466 
L 195.052932 63.467043 
L 195.328615 63.467514 
L 195.510072 63.00981 
L 195.816543 61.445946 
L 196.011527 62.909768 
L 196.280214 64.00271 
L 196.419688 64.011124 
L 196.565227 64.163541 
L 196.957994 62.815839 
L 197.207089 63.200107 
L 197.238809 63.144916 
L 197.444056 62.092761 
L 197.528487 64.139149 
L 197.923587 65.145989 
L 198.418511 65.166894 
L 198.454429 65.150217 
L 198.953552 63.539082 
L 198.984805 64.038526 
L 199.261888 64.046007 
L 199.594481 65.612598 
L 199.82585 65.005587 
L 199.864101 66.047413 
L 200.136519 65.770873 
L 200.406139 65.824486 
L 200.570802 65.465629 
L 200.728003 67.223409 
L 201.045202 68.762268 
L 201.196338 67.865566 
L 201.377329 69.602352 
L 201.403917 71.60712 
L 201.827472 70.804189 
L 201.995868 70.700976 
L 202.234234 70.017231 
L 202.264554 71.358143 
L 202.788866 70.756178 
L 203.226881 69.49973 
L 203.487171 68.436496 
L 203.526355 70.962508 
L 203.955507 72.830482 
L 204.166351 72.761632 
L 204.404717 72.328895 
L 205.018592 69.372411 
L 205.200048 70.253237 
L 205.44821 69.10101 
L 205.977187 67.943077 
L 206.211821 68.059087 
L 206.664763 66.104996 
L 207.025345 63.875319 
L 207.292165 63.321823 
L 207.383593 64.01911 
L 208.080033 62.774429 
L 208.301139 61.439384 
L 208.644928 64.9899 
L 208.96306 64.31556 
L 209.123992 65.461673 
L 209.301251 67.668841 
L 209.558742 67.553475 
L 209.789644 67.731679 
L 210.011684 66.573329 
L 210.169351 67.513219 
L 210.765966 67.288602 
L 210.970279 68.266085 
L 211.049579 69.876399 
L 211.299607 70.064848 
L 211.343922 72.140487 
L 211.590218 73.065599 
L 211.865435 71.858102 
L 212.070682 71.490335 
L 212.135521 72.058881 
L 212.377152 71.178111 
L 212.658433 70.254606 
L 212.868345 70.226485 
L 213.170151 69.26227 
L 213.377263 69.37246 
L 213.37773 69.219198 
L 213.629157 69.793401 
L 213.876386 70.078944 
L 214.848042 66.821151 
L 215.014572 67.57906 
L 215.427398 66.549802 
L 215.458185 67.343686 
L 215.737134 66.212843 
L 215.938182 66.63431 
L 216.205936 66.972777 
L 216.326285 66.780453 
L 216.359871 68.048572 
L 216.952754 66.150154 
L 217.0008 66.786001 
L 217.473334 66.165255 
L 217.733158 66.00133 
L 217.827851 66.859048 
L 218.072281 65.612444 
L 218.315312 64.989975 
L 218.354496 65.062753 
L 218.630646 64.971937 
L 218.668896 65.077052 
L 219.040206 65.218772 
L 219.040673 65.920949 
L 219.285103 65.783431 
L 219.319155 67.786062 
L 219.648483 66.275375 
L 219.920901 68.275831 
L 220.163932 68.06717 
L 220.627136 66.536007 
L 220.963461 66.869745 
L 221.157046 67.355829 
L 221.241943 67.314356 
L 221.684623 65.879214 
L 221.867946 68.677711 
L 222.148294 68.192616 
L 222.385727 68.168777 
L 222.453365 70.201976 
L 222.622228 70.322435 
L 223.103624 69.476531 
L 223.134411 71.46765 
L 223.595283 70.789453 
L 223.623738 70.900258 
L 223.668053 71.644251 
L 224.150849 70.260758 
L 224.185368 71.675451 
L 224.4242 71.232188 
L 224.697085 72.924152 
L 224.931253 72.260122 
L 225.184079 72.354091 
L 225.227461 72.144301 
L 225.560987 71.668871 
L 225.610899 72.099976 
L 225.874455 71.946793 
L 225.918303 72.031249 
L 226.189322 72.262675 
L 226.44728 72.22438 
L 226.68238 73.16139 
L 226.908618 73.418313 
L 226.941738 75.314937 
L 227.108267 75.905552 
L 227.347566 75.375747 
L 227.380686 77.210431 
L 227.646107 76.069007 
L 227.812637 76.568766 
L 228.144297 75.958838 
L 228.35001 74.966729 
L 228.414849 76.000296 
L 228.654614 75.864936 
L 229.132746 74.075539 
L 229.196652 74.451036 
L 229.436418 74.415605 
L 229.472802 74.854077 
L 230.015307 73.097375 
L 230.054957 73.954278 
L 230.055423 73.789528 
L 230.272332 74.137213 
L 230.317113 74.894119 
L 230.561076 74.092629 
L 230.597461 75.567534 
L 230.841425 75.580307 
L 231.065797 74.526866 
L 231.521538 75.462176 
L 232.149872 73.49629 
L 232.292146 73.803084 
L 232.533777 73.751291 
L 232.877099 73.894079 
L 233.383685 73.365566 
L 233.869746 72.443099 
L 233.952312 73.275265 
L 234.195342 73.238719 
L 234.987408 70.205046 
L 235.151139 69.8494 
L 235.465539 70.919226 
L 235.599416 70.966156 
L 235.750552 71.346434 
L 235.94647 70.415242 
L 236.082679 71.324457 
L 236.189034 74.34603 
L 236.4274 74.113612 
L 236.463785 74.584308 
L 237.151828 73.066838 
L 237.189145 73.81744 
L 237.691067 72.736019 
L 237.791358 73.963932 
L 238.016196 74.076601 
L 238.29188 73.884109 
L 238.326865 74.903437 
L 238.626805 73.458625 
L 238.807329 73.573422 
L 238.962663 72.677273 
L 239.174907 74.027099 
L 239.673097 72.478197 
L 239.707149 72.496633 
L 239.943649 72.346779 
L 240.402189 72.428655 
L 240.438574 73.086126 
L 240.733382 72.119381 
L 240.839738 74.396878 
L 241.079037 73.706682 
L 241.510988 73.418811 
L 241.544107 74.165156 
L 241.794135 73.394482 
L 241.830053 73.984929 
L 242.107602 74.017466 
L 242.505501 73.471407 
L 242.756928 73.35885 
L 242.994828 73.5672 
L 243.23366 73.463957 
L 243.460831 73.039284 
L 243.505146 73.983721 
L 243.836339 72.388874 
L 244.44275 78.958798 
L 244.681583 79.169065 
L 244.908753 78.520405 
L 245.058957 77.663401 
L 245.265603 79.202026 
L 245.432132 79.351702 
L 245.667233 78.656918 
L 245.900934 80.265856 
L 246.147697 78.95252 
L 246.361807 78.457207 
L 246.554459 77.493672 
L 246.957022 77.62977 
L 247.372647 76.579477 
L 247.581159 76.286866 
L 248.159115 74.578617 
L 248.346635 74.654564 
L 248.725875 73.049125 
L 248.763193 75.042542 
L 249.003891 74.70906 
L 249.28424 74.522078 
L 249.315027 76.615371 
L 249.88412 73.982896 
L 250.205051 73.472493 
L 250.241436 73.500475 
L 250.479802 73.397756 
L 250.992452 71.206228 
L 251.272334 71.015424 
L 251.668833 72.606031 
L 252.107315 71.805998 
L 252.349412 71.866928 
L 252.575184 73.243947 
L 252.607837 74.17073 
L 252.997805 73.662971 
L 253.030925 74.432413 
L 253.031391 74.283786 
L 253.266958 75.910801 
L 253.300078 75.866896 
L 253.534712 75.228266 
L 253.802466 75.538751 
L 253.920949 76.606304 
L 254.159782 76.595466 
L 254.191968 77.983296 
L 254.501704 77.238902 
L 254.758729 77.077086 
L 254.993363 77.521473 
L 255.475693 76.105568 
L 256.029392 75.071721 
L 256.211316 75.225271 
L 256.348458 76.045455 
L 257.008512 74.484732 
L 257.281397 74.765728 
L 257.49644 75.859509 
L 257.844893 74.487836 
L 257.987632 75.159439 
L 258.335152 74.067084 
L 258.999405 71.081724 
L 259.424826 70.725183 
L 259.875436 71.567844 
L 260.055493 71.376573 
L 260.246279 70.414253 
L 260.403479 70.794041 
L 260.587268 69.738062 
L 260.771524 69.654026 
L 261.617234 65.672895 
L 261.823413 67.260059 
L 262.101896 67.200492 
L 262.355189 67.475442 
L 262.677519 65.858023 
L 262.875303 65.978552 
L 262.932212 66.549288 
L 263.171977 66.472336 
L 263.354834 67.056189 
L 263.530226 66.816969 
L 263.890807 65.710264 
L 264.355878 65.527513 
L 264.954358 63.166074 
L 265.225377 63.107793 
L 265.92928 61.807218 
L 266.150387 60.740788 
L 266.211494 61.242163 
L 266.883211 60.95405 
L 266.918196 61.67826 
L 267.168224 62.302257 
L 267.270381 64.757133 
L 267.505482 65.779151 
L 267.844605 66.313116 
L 267.880523 67.167113 
L 268.088102 66.83859 
L 268.127752 67.257922 
L 268.360054 67.108237 
L 269.08868 65.053175 
L 269.116202 66.301654 
L 269.606461 64.887585 
L 269.844827 65.29353 
L 269.880279 67.624329 
L 270.140569 68.54691 
L 270.86593 66.112278 
L 270.900915 68.523111 
L 271.622077 67.251165 
L 271.655197 67.843561 
L 272.087148 66.441921 
L 272.121666 68.747801 
L 272.408545 68.527041 
L 272.759797 68.471106 
L 272.914198 68.138045 
L 273.143235 69.965391 
L 273.360143 69.387113 
L 273.395595 71.077097 
L 273.659617 70.403998 
L 273.999207 70.020672 
L 274.753489 66.67065 
L 275.296459 66.225194 
L 275.817973 64.976287 
L 276.1473 63.508666 
L 276.895984 61.178086 
L 276.986946 61.615144 
L 277.243038 60.515668 
L 277.444086 60.193171 
L 278.252478 57.863674 
L 278.459591 56.785143 
L 278.831834 55.954199 
L 279.036614 56.831021 
L 279.298304 56.08057 
L 279.573521 54.888069 
L 280.042789 54.563479 
L 280.525119 53.218538 
L 280.565702 53.801029 
L 280.798937 53.302513 
L 281.09841 53.484131 
L 281.347505 54.148314 
L 281.381091 54.085675 
L 281.628786 53.337059 
L 281.701089 54.745687 
L 281.913333 54.945648 
L 282.495487 53.456359 
L 282.75811 54.71521 
L 282.794494 55.53577 
L 283.167204 54.571856 
L 283.503062 52.880165 
L 283.561837 54.242589 
L 283.89583 53.04074 
L 284.224224 51.400401 
L 284.293262 52.149559 
L 284.333378 52.128638 
L 284.866553 49.600126 
L 285.016756 49.170549 
L 285.050809 49.859761 
L 285.36241 48.809333 
L 285.597978 49.445972 
L 285.644158 50.946952 
L 285.914244 50.371511 
L 286.366253 51.391541 
L 286.545844 51.205677 
L 286.594357 51.865113 
L 286.834123 51.585165 
L 286.865842 53.061117 
L 287.09208 52.753348 
L 287.121934 53.515381 
L 287.391087 52.714259 
L 287.429338 53.065828 
L 287.6775 52.277364 
L 287.712019 52.879639 
L 288.331957 51.527388 
L 288.561927 53.158187 
L 289.031195 54.181951 
L 289.063848 55.663961 
L 289.293351 56.60402 
L 289.32787 58.110305 
L 289.560172 58.518194 
L 289.967866 57.799854 
L 290.011715 59.186421 
L 290.232355 61.604806 
L 290.492645 62.048262 
L 290.574277 62.676847 
L 290.81311 62.837776 
L 291.089726 62.200442 
L 291.286576 62.433302 
L 291.731122 60.918849 
L 292.240041 61.604289 
L 292.276892 61.858653 
L 292.536715 61.201223 
L 293.086217 61.091427 
L 293.492978 59.652223 
L 293.614727 60.858221 
L 294.19315 58.66105 
L 294.283645 59.231192 
L 294.323761 59.215311 
L 294.554197 59.075903 
L 294.797694 58.263963 
L 294.829414 58.934472 
L 295.120491 58.04955 
L 295.199791 58.758131 
L 295.55804 57.564974 
L 295.736698 57.491995 
L 296.110807 56.151162 
L 296.419143 57.999935 
L 296.649113 57.358621 
L 296.687363 57.996487 
L 297.01016 56.769027 
L 297.165961 57.220751 
L 297.198148 58.11777 
L 297.523277 56.912379 
L 297.751381 57.19964 
L 297.986015 57.095812 
L 298.018202 57.679199 
L 298.287821 57.716317 
L 298.770617 59.41756 
L 299.001986 61.249714 
L 299.244084 61.127439 
L 299.677434 60.323176 
L 299.988103 61.135563 
L 300.02822 62.081302 
L 300.497022 61.02707 
L 300.941101 59.429393 
L 300.979352 61.614676 
L 301.216318 60.527685 
L 301.320341 61.259665 
L 301.586229 60.739073 
L 302.052232 58.938309 
L 302.280802 59.506209 
L 302.611996 57.900814 
L 302.811178 58.048914 
L 303.050011 58.645698 
L 303.277648 57.773943 
L 303.312167 58.431584 
L 303.767908 57.7212 
L 304.074378 56.13906 
L 304.301083 57.700231 
L 304.562306 57.127683 
L 304.842188 57.372829 
L 305.088017 57.466165 
L 305.327783 56.789457 
L 305.681833 56.951536 
L 305.843232 57.162059 
L 306.087195 56.495255 
L 306.125912 48.954198 
L 306.390867 49.217714 
L 306.784568 47.975063 
L 307.027599 48.179715 
L 307.2613 47.486945 
L 307.495934 47.877274 
L 307.532785 47.769892 
L 308.436337 46.125938 
L 308.675636 47.272931 
L 308.91167 46.531408 
L 309.053477 46.727767 
L 309.342221 46.03725 
L 309.92251 43.948316 
L 311.081221 41.334816 
L 311.351307 39.892122 
L 312.429785 35.466228 
L 313.200393 33.651232 
L 313.524123 34.252187 
L 313.524589 34.816331 
L 313.755025 34.161491 
L 313.786745 35.294143 
L 314.377763 36.689554 
L 314.604467 35.965241 
L 314.789655 34.669082 
L 315.204347 33.002089 
L 315.468835 32.90087 
L 315.90032 35.651728 
L 315.925509 37.575516 
L 316.181601 39.518433 
L 316.471279 40.964028 
L 316.708245 40.84078 
L 317.158389 39.26923 
L 317.433606 38.992544 
L 317.478854 39.814193 
L 317.975644 38.019669 
L 318.006897 38.745054 
L 318.201415 38.369965 
L 318.250395 38.910933 
L 318.486428 39.700595 
L 318.525612 40.911998 
L 319.029399 41.145571 
L 319.245375 41.744481 
L 319.482808 41.206435 
L 319.520125 41.750988 
L 319.721174 40.691421 
L 320.274873 38.711912 
L 320.312191 39.774556 
L 320.613064 39.1369 
L 320.756737 40.180102 
L 320.991371 40.885102 
L 321.228804 40.444955 
L 321.505421 41.322647 
L 322.030199 38.955648 
L 322.359527 39.096334 
L 322.62728 38.64987 
L 323.029377 38.469286 
L 323.207569 38.069011 
L 323.24442 39.048303 
L 323.517305 39.227838 
L 324.050013 36.761376 
L 324.581322 34.950754 
L 324.99648 35.519033 
L 325.275429 34.917965 
L 325.654203 35.725093 
L 326.569883 32.729272 
L 326.754605 32.406875 
L 326.893146 32.960267 
L 327.415126 32.39199 
L 327.443114 33.252812 
L 327.668419 33.874634 
L 327.701072 33.814266 
L 328.067717 36.035975 
L 328.301885 36.418963 
L 328.538852 36.215709 
L 328.773486 36.301824 
L 328.925089 37.615429 
L 328.991327 39.7049 
L 329.252084 39.202183 
L 329.698962 39.614351 
L 330.109455 39.78187 
L 330.142575 40.196607 
L 330.474235 40.704722 
L 330.977089 39.447945 
L 331.023736 39.507442 
L 331.298487 40.638723 
L 331.445891 40.569272 
L 331.478544 41.388426 
L 331.731371 41.152821 
L 331.770088 41.195483 
L 332.007521 41.175731 
L 332.037841 41.84507 
L 332.274808 41.137975 
L 332.509909 40.901793 
L 332.54676 42.496529 
L 332.781394 41.909731 
L 332.812648 42.894882 
L 333.047748 42.304885 
L 333.078535 43.044406 
L 333.368679 41.676743 
L 333.485297 43.185874 
L 333.715267 42.827048 
L 333.751185 43.485259 
L 333.984886 42.76541 
L 334.201794 42.819881 
L 334.351531 45.768053 
L 334.791412 45.327134 
L 334.841325 45.427782 
L 335.348377 45.1153 
L 335.579746 46.099317 
L 335.614731 47.269843 
L 335.865692 47.461395 
L 335.905342 48.575602 
L 336.343824 48.722619 
L 336.557933 48.555666 
L 336.689944 49.106324 
L 336.9535 49.004501 
L 337.202594 48.227105 
L 337.44236 48.780274 
L 338.19291 49.299427 
L 338.459264 48.576584 
L 338.503112 49.338555 
L 339.076403 47.59962 
L 339.107657 48.353939 
L 339.35302 49.542629 
L 339.629637 49.67739 
L 339.769578 50.063793 
L 339.919314 49.708682 
L 340.153949 50.363687 
L 340.186135 50.997687 
L 340.268234 50.931348 
L 340.496804 51.67761 
L 340.528524 52.242012 
L 340.87651 51.115684 
L 341.310794 51.143121 
L 341.537498 51.487027 
L 341.570617 52.446791 
L 341.803852 51.78134 
L 341.836505 52.515033 
L 342.419592 50.761894 
L 342.50449 52.45918 
L 342.891193 51.414188 
L 342.924779 52.978156 
L 343.450957 51.136417 
L 343.48361 52.280649 
L 343.68046 51.538395 
L 344.209437 52.20506 
L 344.241623 53.484363 
L 344.492117 53.799772 
L 344.529901 56.472933 
L 344.777597 56.70216 
L 344.964185 57.143826 
L 345.070073 59.421381 
L 345.658292 59.311433 
L 346.130826 58.202176 
L 346.417705 57.617206 
L 347.0605 55.872473 
L 347.512509 54.20341 
L 347.772333 53.57398 
L 348.025159 52.3399 
L 348.272855 51.826113 
L 348.497227 50.71825 
L 348.818158 49.759919 
L 349.058856 48.687251 
L 349.907365 46.120876 
L 350.122407 46.612388 
L 350.397625 46.512853 
L 350.879954 45.402196 
L 351.500826 44.591962 
L 351.58479 45.578008 
L 351.877733 46.688518 
L 352.124962 46.39505 
L 352.155283 46.893303 
L 352.758428 44.978245 
L 352.955278 45.606659 
L 353.156327 45.042918 
L 353.18758 45.685807 
L 353.426879 45.405594 
L 353.461398 46.616894 
L 353.715624 45.921235 
L 353.965652 46.003515 
L 354.077605 47.080762 
L 354.377545 47.272783 
L 354.630838 47.220421 
L 354.875734 46.783185 
L 354.905122 46.862457 
L 355.198531 47.810897 
L 355.620687 47.239593 
L 355.847391 45.962362 
L 356.068964 45.548156 
L 356.310129 46.87671 
L 356.582081 45.568553 
L 356.838173 46.077902 
L 357.118521 45.426374 
L 357.152573 45.93434 
L 357.441318 46.044066 
L 357.501026 46.94489 
L 358.21006 45.43744 
L 358.457756 45.448832 
L 358.689591 44.725612 
L 358.798745 46.779611 
L 359.133204 46.443336 
L 359.368305 45.796502 
L 359.400025 46.849635 
L 359.684571 46.337483 
L 359.930867 46.867677 
L 359.970051 48.491107 
L 360.21728 48.013052 
L 360.256929 48.073871 
L 360.485966 48.148686 
L 360.486433 47.984222 
L 360.538211 48.397269 
L 361.118499 46.294225 
L 361.118966 46.919286 
L 361.394183 47.005961 
L 361.639079 46.210435 
L 361.877912 47.25154 
L 361.912431 48.044365 
L 362.165257 47.280901 
L 362.476393 48.246093 
L 362.586946 48.081189 
L 362.843038 47.944238 
L 363.07534 48.003948 
L 363.114057 48.776955 
L 363.345426 48.290203 
L 363.385542 48.852953 
L 363.67522 48.310856 
L 363.713937 48.983899 
L 364.185071 47.246532 
L 364.216325 48.404688 
L 364.46402 48.039147 
L 364.493874 48.658396 
L 364.749033 47.987244 
L 364.991598 48.244964 
L 365.298068 47.541232 
L 365.335852 48.781442 
L 365.653052 47.158824 
L 365.780398 47.203145 
L 366.25713 46.473716 
L 366.581327 45.554743 
L 366.768847 44.564129 
L 367.114035 43.877176 
L 367.301089 43.769719 
L 367.753099 42.308971 
L 368.040444 41.879238 
L 368.469596 39.765133 
L 368.770936 39.460366 
L 369.36895 38.207619 
L 370.010346 35.501299 
L 370.230986 36.872619 
L 370.524395 35.484241 
L 370.807076 35.266957 
L 371.409755 34.713041 
L 371.516577 35.423659 
L 372.109926 34.063121 
L 372.338963 33.930004 
L 372.481236 34.018937 
L 373.141291 32.198767 
L 373.472951 32.502008 
L 373.773824 33.316281 
L 373.862919 33.232681 
L 374.098487 34.192417 
L 374.350847 33.590884 
L 374.383966 35.015258 
L 374.588746 35.74897 
L 374.619067 36.713495 
L 374.804722 35.878211 
L 374.89615 36.848902 
L 375.096732 35.868425 
L 375.146178 35.936176 
L 375.666758 38.692318 
L 375.919585 38.498371 
L 375.953637 39.205251 
L 376.201799 38.482781 
L 376.235851 39.759677 
L 376.631884 37.974911 
L 376.709318 40.108127 
L 377.641325 37.219965 
L 377.722024 37.309268 
L 377.818117 38.436093 
L 378.03176 38.917502 
L 378.077474 40.359864 
L 378.219747 40.491036 
L 378.684817 39.607694 
L 378.717937 40.810024 
L 379.284231 39.518313 
L 379.316884 40.21258 
L 379.505338 40.812373 
L 379.72831 40.363017 
L 379.781954 40.84733 
L 379.976472 39.739899 
L 380.078629 41.149745 
L 380.728888 39.956455 
L 380.765739 41.925725 
L 380.931802 41.921224 
L 381.16597 42.151307 
L 381.200489 44.488444 
L 381.414132 45.060193 
L 381.445385 45.993613 
L 381.686084 45.513077 
L 382.278034 43.432386 
L 382.535059 44.654737 
L 382.772492 43.951629 
L 383.014123 44.011916 
L 383.824381 44.986529 
L 384.41913 43.986563 
L 384.591724 44.665744 
L 384.932247 44.733673 
L 385.082917 44.379871 
L 385.114637 45.339554 
L 385.261575 44.476849 
L 385.465888 46.457584 
L 385.709852 45.955346 
L 385.742038 46.224946 
L 385.888976 46.189239 
L 386.561159 42.906518 
L 386.650722 43.654617 
L 386.927338 44.871995 
L 387.241272 46.548362 
L 387.482904 45.925764 
L 387.726867 45.765208 
L 387.765118 46.683554 
L 388.003484 45.491962 
L 388.034271 45.552029 
L 388.27357 46.850888 
L 388.515668 46.416741 
L 388.552519 46.447879 
L 388.808611 44.04643 
L 388.844062 44.809758 
L 389.089425 44.777776 
L 389.338054 44.302482 
L 389.370707 44.325112 
L 389.7033 44.955115 
L 389.850704 44.692909 
L 389.879625 46.571528 
L 390.070878 46.498542 
L 390.321839 45.818532 
L 390.597522 46.952193 
L 390.904459 46.118214 
L 391.182942 46.996174 
L 391.62842 45.563362 
L 391.896174 47.090957 
L 392.233898 48.292948 
L 392.464801 47.883946 
L 392.505384 47.92357 
L 392.74375 47.936734 
L 392.788997 48.389689 
L 393.044623 48.660157 
L 393.27086 48.521501 
L 393.543279 49.397395 
L 393.930915 48.093164 
L 394.169281 48.5319 
L 394.405315 48.418296 
L 394.444498 49.157888 
L 394.686596 48.750055 
L 394.927295 49.543675 
L 395.14327 49.026853 
L 395.185252 49.073162 
L 395.424551 49.650663 
L 395.455338 50.2797 
L 395.886356 49.089238 
L 396.071545 49.548635 
L 396.105131 50.259788 
L 396.597723 49.120959 
L 396.805768 48.009951 
L 396.846818 48.799549 
L 397.08705 48.725854 
L 397.120635 49.342603 
L 397.64588 47.570433 
L 397.677134 47.868514 
L 397.974275 47.784101 
L 398.215906 48.372574 
L 398.264886 48.838505 
L 398.514913 48.9433 
L 398.758411 48.288872 
L 398.791996 49.198003 
L 399.036893 48.912435 
L 399.453451 47.227034 
L 399.484704 48.38974 
L 399.640505 48.138043 
L 399.878871 48.419402 
L 399.914323 49.039074 
L 400.158753 48.316992 
L 400.252047 51.754554 
L 400.601899 51.210218 
L 400.830469 51.869599 
L 401.59408 50.218732 
L 401.833379 50.000406 
L 402.253669 48.975721 
L 402.318974 49.049982 
L 402.524688 49.328457 
L 402.734599 50.30441 
L 403.144159 50.090886 
L 403.183343 51.305427 
L 403.430572 52.030813 
L 403.458094 52.836948 
L 403.695527 52.67937 
L 403.899374 56.744385 
L 404.146136 57.224947 
L 404.410625 56.806579 
L 404.447942 56.870453 
L 404.897619 57.659496 
L 404.934937 58.742264 
L 405.183565 59.186168 
L 405.229279 60.379976 
L 405.80397 58.973996 
L 406.315221 58.982272 
L 406.524666 58.794502 
L 406.598368 59.036647 
L 406.8386 59.180178 
L 407.079298 59.150707 
L 407.60361 58.213682 
L 407.805125 58.522367 
L 408.060751 60.132265 
L 408.623313 59.338848 
L 408.748794 59.382839 
L 409.219928 57.989105 
L 409.42844 58.071191 
L 409.671471 57.68065 
L 410.008262 56.597518 
L 410.203246 56.906797 
L 410.487793 56.60985 
L 410.881027 54.716301 
L 410.992513 55.470833 
L 411.329771 54.767295 
L 411.516359 54.856291 
L 412.362535 53.680051 
L 413.014193 52.057073 
L 413.200781 53.149386 
L 413.320664 55.44732 
L 413.594015 56.426965 
L 413.888824 55.030943 
L 414.04789 56.123125 
L 414.776049 54.888651 
L 414.865145 56.468927 
L 415.372198 54.713444 
L 415.41418 57.062153 
L 415.65068 56.444263 
L 415.688464 57.702107 
L 415.93476 57.111161 
L 415.96788 57.973632 
L 416.225837 57.295488 
L 416.261289 58.055238 
L 416.527643 57.649195 
L 417.172771 55.759485 
L 417.210089 57.412643 
L 417.702214 55.829491 
L 417.962504 56.046879 
L 418.592705 55.620115 
L 419.057309 54.495508 
L 419.088562 55.134619 
L 419.32413 55.908218 
L 419.35445 57.290373 
L 419.618472 56.983174 
L 420.150247 55.041707 
L 420.543948 55.792056 
L 421.236189 53.652164 
L 421.333681 54.445114 
L 422.080966 52.088771 
L 422.322131 52.659357 
L 422.322131 52.659357 
" clip-path="url(#pe0df3aebfc)" style="fill: none; stroke: #ff0000; stroke-width: 2; stroke-linecap: square"/>
   </g>
   <g id="patch_3">
    <path d="M 55.595313 128.54189 
L 55.595313 25.053562 
" style="fill: none; stroke: #000000; stroke-width: 0.8; stroke-linejoin: miter; stroke-linecap: square"/>
   </g>
   <g id="patch_4">
    <path d="M 439.785312 128.54189 
L 439.785312 25.053562 
" style="fill: none; stroke: #000000; stroke-width: 0.8; stroke-linejoin: miter; stroke-linecap: square"/>
   </g>
   <g id="patch_5">
    <path d="M 55.595313 128.54189 
L 439.785312 128.54189 
" style="fill: none; stroke: #000000; stroke-width: 0.8; stroke-linejoin: miter; stroke-linecap: square"/>
   </g>
   <g id="patch_6">
    <path d="M 55.595313 25.053563 
L 439.785312 25.053563 
" style="fill: none; stroke: #000000; stroke-width: 0.8; stroke-linejoin: miter; stroke-linecap: square"/>
   </g>
   <g id="text_15">
    <!-- Learning Curve Smoothed -->
    <g transform="translate(146.008781 19.053563)scale(0.156 -0.156)">
     <defs>
      <path id="DejaVuSans-4c" d="M 628 4666 
L 1259 4666 
L 1259 531 
L 3531 531 
L 3531 0 
L 628 0 
L 628 4666 
z
" transform="scale(0.015625)"/>
      <path id="DejaVuSans-6e" d="M 3513 2113 
L 3513 0 
L 2938 0 
L 2938 2094 
Q 2938 2591 2744 2837 
Q 2550 3084 2163 3084 
Q 1697 3084 1428 2787 
Q 1159 2491 1159 1978 
L 1159 0 
L 581 0 
L 581 3500 
L 1159 3500 
L 1159 2956 
Q 1366 3272 1645 3428 
Q 1925 3584 2291 3584 
Q 2894 3584 3203 3211 
Q 3513 2838 3513 2113 
z
" transform="scale(0.015625)"/>
      <path id="DejaVuSans-67" d="M 2906 1791 
Q 2906 2416 2648 2759 
Q 2391 3103 1925 3103 
Q 1463 3103 1205 2759 
Q 947 2416 947 1791 
Q 947 1169 1205 825 
Q 1463 481 1925 481 
Q 2391 481 2648 825 
Q 2906 1169 2906 1791 
z
M 3481 434 
Q 3481 -459 3084 -895 
Q 2688 -1331 1869 -1331 
Q 1566 -1331 1297 -1286 
Q 1028 -1241 775 -1147 
L 775 -588 
Q 1028 -725 1275 -790 
Q 1522 -856 1778 -856 
Q 2344 -856 2625 -561 
Q 2906 -266 2906 331 
L 2906 616 
Q 2728 306 2450 153 
Q 2172 0 1784 0 
Q 1141 0 747 490 
Q 353 981 353 1791 
Q 353 2603 747 3093 
Q 1141 3584 1784 3584 
Q 2172 3584 2450 3431 
Q 2728 3278 2906 2969 
L 2906 3500 
L 3481 3500 
L 3481 434 
z
" transform="scale(0.015625)"/>
      <path id="DejaVuSans-43" d="M 4122 4306 
L 4122 3641 
Q 3803 3938 3442 4084 
Q 3081 4231 2675 4231 
Q 1875 4231 1450 3742 
Q 1025 3253 1025 2328 
Q 1025 1406 1450 917 
Q 1875 428 2675 428 
Q 3081 428 3442 575 
Q 3803 722 4122 1019 
L 4122 359 
Q 3791 134 3420 21 
Q 3050 -91 2638 -91 
Q 1578 -91 968 557 
Q 359 1206 359 2328 
Q 359 3453 968 4101 
Q 1578 4750 2638 4750 
Q 3056 4750 3426 4639 
Q 3797 4528 4122 4306 
z
" transform="scale(0.015625)"/>
      <path id="DejaVuSans-76" d="M 191 3500 
L 800 3500 
L 1894 563 
L 2988 3500 
L 3597 3500 
L 2284 0 
L 1503 0 
L 191 3500 
z
" transform="scale(0.015625)"/>
      <path id="DejaVuSans-53" d="M 3425 4513 
L 3425 3897 
Q 3066 4069 2747 4153 
Q 2428 4238 2131 4238 
Q 1616 4238 1336 4038 
Q 1056 3838 1056 3469 
Q 1056 3159 1242 3001 
Q 1428 2844 1947 2747 
L 2328 2669 
Q 3034 2534 3370 2195 
Q 3706 1856 3706 1288 
Q 3706 609 3251 259 
Q 2797 -91 1919 -91 
Q 1588 -91 1214 -16 
Q 841 59 441 206 
L 441 856 
Q 825 641 1194 531 
Q 1563 422 1919 422 
Q 2459 422 2753 634 
Q 3047 847 3047 1241 
Q 3047 1584 2836 1778 
Q 2625 1972 2144 2069 
L 1759 2144 
Q 1053 2284 737 2584 
Q 422 2884 422 3419 
Q 422 4038 858 4394 
Q 1294 4750 2059 4750 
Q 2388 4750 2728 4690 
Q 3069 4631 3425 4513 
z
" transform="scale(0.015625)"/>
      <path id="DejaVuSans-68" d="M 3513 2113 
L 3513 0 
L 2938 0 
L 2938 2094 
Q 2938 2591 2744 2837 
Q 2550 3084 2163 3084 
Q 1697 3084 1428 2787 
Q 1159 2491 1159 1978 
L 1159 0 
L 581 0 
L 581 4863 
L 1159 4863 
L 1159 2956 
Q 1366 3272 1645 3428 
Q 1925 3584 2291 3584 
Q 2894 3584 3203 3211 
Q 3513 2838 3513 2113 
z
" transform="scale(0.015625)"/>
     </defs>
     <use xlink:href="#DejaVuSans-4c"/>
     <use xlink:href="#DejaVuSans-65" x="53.962891"/>
     <use xlink:href="#DejaVuSans-61" x="115.486328"/>
     <use xlink:href="#DejaVuSans-72" x="176.765625"/>
     <use xlink:href="#DejaVuSans-6e" x="216.128906"/>
     <use xlink:href="#DejaVuSans-69" x="279.507812"/>
     <use xlink:href="#DejaVuSans-6e" x="307.291016"/>
     <use xlink:href="#DejaVuSans-67" x="370.669922"/>
     <use xlink:href="#DejaVuSans-20" x="434.146484"/>
     <use xlink:href="#DejaVuSans-43" x="465.933594"/>
     <use xlink:href="#DejaVuSans-75" x="535.757812"/>
     <use xlink:href="#DejaVuSans-72" x="599.136719"/>
     <use xlink:href="#DejaVuSans-76" x="640.25"/>
     <use xlink:href="#DejaVuSans-65" x="699.429688"/>
     <use xlink:href="#DejaVuSans-20" x="760.953125"/>
     <use xlink:href="#DejaVuSans-53" x="792.740234"/>
     <use xlink:href="#DejaVuSans-6d" x="856.216797"/>
     <use xlink:href="#DejaVuSans-6f" x="953.628906"/>
     <use xlink:href="#DejaVuSans-6f" x="1014.810547"/>
     <use xlink:href="#DejaVuSans-74" x="1075.992188"/>
     <use xlink:href="#DejaVuSans-68" x="1115.201172"/>
     <use xlink:href="#DejaVuSans-65" x="1178.580078"/>
     <use xlink:href="#DejaVuSans-64" x="1240.103516"/>
    </g>
   </g>
   <g id="legend_1">
    <g id="patch_7">
     <path d="M 285.954687 122.04189 
L 430.685312 122.04189 
Q 433.285312 122.04189 433.285312 119.44189 
L 433.285312 101.660328 
Q 433.285312 99.060328 430.685312 99.060328 
L 285.954687 99.060328 
Q 283.354687 99.060328 283.354687 101.660328 
L 283.354687 119.44189 
Q 283.354687 122.04189 285.954687 122.04189 
z
" style="fill: #ffffff; opacity: 0.8; stroke: #cccccc; stroke-linejoin: miter"/>
    </g>
    <g id="line2d_24">
     <path d="M 288.554687 109.588297 
L 301.554687 109.588297 
L 314.554687 109.588297 
" style="fill: none; stroke: #ff0000; stroke-width: 2; stroke-linecap: square"/>
    </g>
    <g id="text_16">
     <!-- Filter size: 1000 -->
     <g transform="translate(324.954687 114.138297)scale(0.13 -0.13)">
      <defs>
       <path id="DejaVuSans-46" d="M 628 4666 
L 3309 4666 
L 3309 4134 
L 1259 4134 
L 1259 2759 
L 3109 2759 
L 3109 2228 
L 1259 2228 
L 1259 0 
L 628 0 
L 628 4666 
z
" transform="scale(0.015625)"/>
       <path id="DejaVuSans-6c" d="M 603 4863 
L 1178 4863 
L 1178 0 
L 603 0 
L 603 4863 
z
" transform="scale(0.015625)"/>
       <path id="DejaVuSans-7a" d="M 353 3500 
L 3084 3500 
L 3084 2975 
L 922 459 
L 3084 459 
L 3084 0 
L 275 0 
L 275 525 
L 2438 3041 
L 353 3041 
L 353 3500 
z
" transform="scale(0.015625)"/>
       <path id="DejaVuSans-3a" d="M 750 794 
L 1409 794 
L 1409 0 
L 750 0 
L 750 794 
z
M 750 3309 
L 1409 3309 
L 1409 2516 
L 750 2516 
L 750 3309 
z
" transform="scale(0.015625)"/>
      </defs>
      <use xlink:href="#DejaVuSans-46"/>
      <use xlink:href="#DejaVuSans-69" x="50.269531"/>
      <use xlink:href="#DejaVuSans-6c" x="78.052734"/>
      <use xlink:href="#DejaVuSans-74" x="105.835938"/>
      <use xlink:href="#DejaVuSans-65" x="145.044922"/>
      <use xlink:href="#DejaVuSans-72" x="206.568359"/>
      <use xlink:href="#DejaVuSans-20" x="247.681641"/>
      <use xlink:href="#DejaVuSans-73" x="279.46875"/>
      <use xlink:href="#DejaVuSans-69" x="331.568359"/>
      <use xlink:href="#DejaVuSans-7a" x="359.351562"/>
      <use xlink:href="#DejaVuSans-65" x="411.841797"/>
      <use xlink:href="#DejaVuSans-3a" x="473.365234"/>
      <use xlink:href="#DejaVuSans-20" x="507.056641"/>
      <use xlink:href="#DejaVuSans-31" x="538.84375"/>
      <use xlink:href="#DejaVuSans-30" x="602.466797"/>
      <use xlink:href="#DejaVuSans-30" x="666.089844"/>
      <use xlink:href="#DejaVuSans-30" x="729.712891"/>
     </g>
    </g>
   </g>
  </g>
 </g>
 <defs>
  <clipPath id="pe0df3aebfc">
   <rect x="55.595313" y="25.053563" width="384.19" height="103.488328"/>
  </clipPath>
 </defs>
</svg>
