<?xml version="1.0" encoding="utf-8" standalone="no"?>
<!DOCTYPE svg PUBLIC "-//W3C//DTD SVG 1.1//EN"
  "http://www.w3.org/Graphics/SVG/1.1/DTD/svg11.dtd">
<svg xmlns:xlink="http://www.w3.org/1999/xlink" width="446.671955pt" height="219.144287pt" viewBox="0 0 446.671955 219.144287" xmlns="http://www.w3.org/2000/svg" version="1.1">
 <metadata>
  <rdf:RDF xmlns:dc="http://purl.org/dc/elements/1.1/" xmlns:cc="http://creativecommons.org/ns#" xmlns:rdf="http://www.w3.org/1999/02/22-rdf-syntax-ns#">
   <cc:Work>
    <dc:type rdf:resource="http://purl.org/dc/dcmitype/StillImage"/>
    <dc:date>2022-06-05T22:18:24.489280</dc:date>
    <dc:format>image/svg+xml</dc:format>
    <dc:creator>
     <cc:Agent>
      <dc:title>Matplotlib v3.5.1, https://matplotlib.org/</dc:title>
     </cc:Agent>
    </dc:creator>
   </cc:Work>
  </rdf:RDF>
 </metadata>
 <defs>
  <style type="text/css">*{stroke-linejoin: round; stroke-linecap: butt}</style>
 </defs>
 <g id="figure_1">
  <g id="patch_1">
   <path d="M 0 219.144287 
L 446.671955 219.144287 
L 446.671955 0 
L 0 0 
z
" style="fill: #ffffff"/>
  </g>
  <g id="axes_1">
   <g id="patch_2">
    <path d="M 66.488906 175.781162 
L 436.767532 175.781162 
L 436.767532 25.053562 
L 66.488906 25.053562 
z
" style="fill: #ffffff"/>
   </g>
   <g id="matplotlib.axis_1">
    <g id="xtick_1">
     <g id="line2d_1">
      <path d="M 113.203007 175.781162 
L 113.203007 25.053562 
" clip-path="url(#pf3f2b1780a)" style="fill: none; stroke: #b0b0b0; stroke-width: 0.8; stroke-linecap: square"/>
     </g>
     <g id="line2d_2">
      <defs>
       <path id="m7bc000a3d4" d="M 0 0 
L 0 3.5 
" style="stroke: #000000; stroke-width: 0.8"/>
      </defs>
      <g>
       <use xlink:href="#m7bc000a3d4" x="113.203007" y="175.781162" style="stroke: #000000; stroke-width: 0.8"/>
      </g>
     </g>
     <g id="text_1">
      <!-- 200000 -->
      <g transform="translate(88.389257 192.65913)scale(0.13 -0.13)">
       <defs>
        <path id="DejaVuSans-32" d="M 1228 531 
L 3431 531 
L 3431 0 
L 469 0 
L 469 531 
Q 828 903 1448 1529 
Q 2069 2156 2228 2338 
Q 2531 2678 2651 2914 
Q 2772 3150 2772 3378 
Q 2772 3750 2511 3984 
Q 2250 4219 1831 4219 
Q 1534 4219 1204 4116 
Q 875 4013 500 3803 
L 500 4441 
Q 881 4594 1212 4672 
Q 1544 4750 1819 4750 
Q 2544 4750 2975 4387 
Q 3406 4025 3406 3419 
Q 3406 3131 3298 2873 
Q 3191 2616 2906 2266 
Q 2828 2175 2409 1742 
Q 1991 1309 1228 531 
z
" transform="scale(0.015625)"/>
        <path id="DejaVuSans-30" d="M 2034 4250 
Q 1547 4250 1301 3770 
Q 1056 3291 1056 2328 
Q 1056 1369 1301 889 
Q 1547 409 2034 409 
Q 2525 409 2770 889 
Q 3016 1369 3016 2328 
Q 3016 3291 2770 3770 
Q 2525 4250 2034 4250 
z
M 2034 4750 
Q 2819 4750 3233 4129 
Q 3647 3509 3647 2328 
Q 3647 1150 3233 529 
Q 2819 -91 2034 -91 
Q 1250 -91 836 529 
Q 422 1150 422 2328 
Q 422 3509 836 4129 
Q 1250 4750 2034 4750 
z
" transform="scale(0.015625)"/>
       </defs>
       <use xlink:href="#DejaVuSans-32"/>
       <use xlink:href="#DejaVuSans-30" x="63.623047"/>
       <use xlink:href="#DejaVuSans-30" x="127.246094"/>
       <use xlink:href="#DejaVuSans-30" x="190.869141"/>
       <use xlink:href="#DejaVuSans-30" x="254.492188"/>
       <use xlink:href="#DejaVuSans-30" x="318.115234"/>
      </g>
     </g>
    </g>
    <g id="xtick_2">
     <g id="line2d_3">
      <path d="M 188.566806 175.781162 
L 188.566806 25.053562 
" clip-path="url(#pf3f2b1780a)" style="fill: none; stroke: #b0b0b0; stroke-width: 0.8; stroke-linecap: square"/>
     </g>
     <g id="line2d_4">
      <g>
       <use xlink:href="#m7bc000a3d4" x="188.566806" y="175.781162" style="stroke: #000000; stroke-width: 0.8"/>
      </g>
     </g>
     <g id="text_2">
      <!-- 300000 -->
      <g transform="translate(163.753056 192.65913)scale(0.13 -0.13)">
       <defs>
        <path id="DejaVuSans-33" d="M 2597 2516 
Q 3050 2419 3304 2112 
Q 3559 1806 3559 1356 
Q 3559 666 3084 287 
Q 2609 -91 1734 -91 
Q 1441 -91 1130 -33 
Q 819 25 488 141 
L 488 750 
Q 750 597 1062 519 
Q 1375 441 1716 441 
Q 2309 441 2620 675 
Q 2931 909 2931 1356 
Q 2931 1769 2642 2001 
Q 2353 2234 1838 2234 
L 1294 2234 
L 1294 2753 
L 1863 2753 
Q 2328 2753 2575 2939 
Q 2822 3125 2822 3475 
Q 2822 3834 2567 4026 
Q 2313 4219 1838 4219 
Q 1578 4219 1281 4162 
Q 984 4106 628 3988 
L 628 4550 
Q 988 4650 1302 4700 
Q 1616 4750 1894 4750 
Q 2613 4750 3031 4423 
Q 3450 4097 3450 3541 
Q 3450 3153 3228 2886 
Q 3006 2619 2597 2516 
z
" transform="scale(0.015625)"/>
       </defs>
       <use xlink:href="#DejaVuSans-33"/>
       <use xlink:href="#DejaVuSans-30" x="63.623047"/>
       <use xlink:href="#DejaVuSans-30" x="127.246094"/>
       <use xlink:href="#DejaVuSans-30" x="190.869141"/>
       <use xlink:href="#DejaVuSans-30" x="254.492188"/>
       <use xlink:href="#DejaVuSans-30" x="318.115234"/>
      </g>
     </g>
    </g>
    <g id="xtick_3">
     <g id="line2d_5">
      <path d="M 263.930606 175.781162 
L 263.930606 25.053562 
" clip-path="url(#pf3f2b1780a)" style="fill: none; stroke: #b0b0b0; stroke-width: 0.8; stroke-linecap: square"/>
     </g>
     <g id="line2d_6">
      <g>
       <use xlink:href="#m7bc000a3d4" x="263.930606" y="175.781162" style="stroke: #000000; stroke-width: 0.8"/>
      </g>
     </g>
     <g id="text_3">
      <!-- 400000 -->
      <g transform="translate(239.116856 192.65913)scale(0.13 -0.13)">
       <defs>
        <path id="DejaVuSans-34" d="M 2419 4116 
L 825 1625 
L 2419 1625 
L 2419 4116 
z
M 2253 4666 
L 3047 4666 
L 3047 1625 
L 3713 1625 
L 3713 1100 
L 3047 1100 
L 3047 0 
L 2419 0 
L 2419 1100 
L 313 1100 
L 313 1709 
L 2253 4666 
z
" transform="scale(0.015625)"/>
       </defs>
       <use xlink:href="#DejaVuSans-34"/>
       <use xlink:href="#DejaVuSans-30" x="63.623047"/>
       <use xlink:href="#DejaVuSans-30" x="127.246094"/>
       <use xlink:href="#DejaVuSans-30" x="190.869141"/>
       <use xlink:href="#DejaVuSans-30" x="254.492188"/>
       <use xlink:href="#DejaVuSans-30" x="318.115234"/>
      </g>
     </g>
    </g>
    <g id="xtick_4">
     <g id="line2d_7">
      <path d="M 339.294405 175.781162 
L 339.294405 25.053562 
" clip-path="url(#pf3f2b1780a)" style="fill: none; stroke: #b0b0b0; stroke-width: 0.8; stroke-linecap: square"/>
     </g>
     <g id="line2d_8">
      <g>
       <use xlink:href="#m7bc000a3d4" x="339.294405" y="175.781162" style="stroke: #000000; stroke-width: 0.8"/>
      </g>
     </g>
     <g id="text_4">
      <!-- 500000 -->
      <g transform="translate(314.480655 192.65913)scale(0.13 -0.13)">
       <defs>
        <path id="DejaVuSans-35" d="M 691 4666 
L 3169 4666 
L 3169 4134 
L 1269 4134 
L 1269 2991 
Q 1406 3038 1543 3061 
Q 1681 3084 1819 3084 
Q 2600 3084 3056 2656 
Q 3513 2228 3513 1497 
Q 3513 744 3044 326 
Q 2575 -91 1722 -91 
Q 1428 -91 1123 -41 
Q 819 9 494 109 
L 494 744 
Q 775 591 1075 516 
Q 1375 441 1709 441 
Q 2250 441 2565 725 
Q 2881 1009 2881 1497 
Q 2881 1984 2565 2268 
Q 2250 2553 1709 2553 
Q 1456 2553 1204 2497 
Q 953 2441 691 2322 
L 691 4666 
z
" transform="scale(0.015625)"/>
       </defs>
       <use xlink:href="#DejaVuSans-35"/>
       <use xlink:href="#DejaVuSans-30" x="63.623047"/>
       <use xlink:href="#DejaVuSans-30" x="127.246094"/>
       <use xlink:href="#DejaVuSans-30" x="190.869141"/>
       <use xlink:href="#DejaVuSans-30" x="254.492188"/>
       <use xlink:href="#DejaVuSans-30" x="318.115234"/>
      </g>
     </g>
    </g>
    <g id="xtick_5">
     <g id="line2d_9">
      <path d="M 414.658205 175.781162 
L 414.658205 25.053562 
" clip-path="url(#pf3f2b1780a)" style="fill: none; stroke: #b0b0b0; stroke-width: 0.8; stroke-linecap: square"/>
     </g>
     <g id="line2d_10">
      <g>
       <use xlink:href="#m7bc000a3d4" x="414.658205" y="175.781162" style="stroke: #000000; stroke-width: 0.8"/>
      </g>
     </g>
     <g id="text_5">
      <!-- 600000 -->
      <g transform="translate(389.844455 192.65913)scale(0.13 -0.13)">
       <defs>
        <path id="DejaVuSans-36" d="M 2113 2584 
Q 1688 2584 1439 2293 
Q 1191 2003 1191 1497 
Q 1191 994 1439 701 
Q 1688 409 2113 409 
Q 2538 409 2786 701 
Q 3034 994 3034 1497 
Q 3034 2003 2786 2293 
Q 2538 2584 2113 2584 
z
M 3366 4563 
L 3366 3988 
Q 3128 4100 2886 4159 
Q 2644 4219 2406 4219 
Q 1781 4219 1451 3797 
Q 1122 3375 1075 2522 
Q 1259 2794 1537 2939 
Q 1816 3084 2150 3084 
Q 2853 3084 3261 2657 
Q 3669 2231 3669 1497 
Q 3669 778 3244 343 
Q 2819 -91 2113 -91 
Q 1303 -91 875 529 
Q 447 1150 447 2328 
Q 447 3434 972 4092 
Q 1497 4750 2381 4750 
Q 2619 4750 2861 4703 
Q 3103 4656 3366 4563 
z
" transform="scale(0.015625)"/>
       </defs>
       <use xlink:href="#DejaVuSans-36"/>
       <use xlink:href="#DejaVuSans-30" x="63.623047"/>
       <use xlink:href="#DejaVuSans-30" x="127.246094"/>
       <use xlink:href="#DejaVuSans-30" x="190.869141"/>
       <use xlink:href="#DejaVuSans-30" x="254.492188"/>
       <use xlink:href="#DejaVuSans-30" x="318.115234"/>
      </g>
     </g>
    </g>
    <g id="text_6">
     <!-- Number of Timesteps -->
     <g transform="translate(181.769469 209.240693)scale(0.13 -0.13)">
      <defs>
       <path id="DejaVuSans-4e" d="M 628 4666 
L 1478 4666 
L 3547 763 
L 3547 4666 
L 4159 4666 
L 4159 0 
L 3309 0 
L 1241 3903 
L 1241 0 
L 628 0 
L 628 4666 
z
" transform="scale(0.015625)"/>
       <path id="DejaVuSans-75" d="M 544 1381 
L 544 3500 
L 1119 3500 
L 1119 1403 
Q 1119 906 1312 657 
Q 1506 409 1894 409 
Q 2359 409 2629 706 
Q 2900 1003 2900 1516 
L 2900 3500 
L 3475 3500 
L 3475 0 
L 2900 0 
L 2900 538 
Q 2691 219 2414 64 
Q 2138 -91 1772 -91 
Q 1169 -91 856 284 
Q 544 659 544 1381 
z
M 1991 3584 
L 1991 3584 
z
" transform="scale(0.015625)"/>
       <path id="DejaVuSans-6d" d="M 3328 2828 
Q 3544 3216 3844 3400 
Q 4144 3584 4550 3584 
Q 5097 3584 5394 3201 
Q 5691 2819 5691 2113 
L 5691 0 
L 5113 0 
L 5113 2094 
Q 5113 2597 4934 2840 
Q 4756 3084 4391 3084 
Q 3944 3084 3684 2787 
Q 3425 2491 3425 1978 
L 3425 0 
L 2847 0 
L 2847 2094 
Q 2847 2600 2669 2842 
Q 2491 3084 2119 3084 
Q 1678 3084 1418 2786 
Q 1159 2488 1159 1978 
L 1159 0 
L 581 0 
L 581 3500 
L 1159 3500 
L 1159 2956 
Q 1356 3278 1631 3431 
Q 1906 3584 2284 3584 
Q 2666 3584 2933 3390 
Q 3200 3197 3328 2828 
z
" transform="scale(0.015625)"/>
       <path id="DejaVuSans-62" d="M 3116 1747 
Q 3116 2381 2855 2742 
Q 2594 3103 2138 3103 
Q 1681 3103 1420 2742 
Q 1159 2381 1159 1747 
Q 1159 1113 1420 752 
Q 1681 391 2138 391 
Q 2594 391 2855 752 
Q 3116 1113 3116 1747 
z
M 1159 2969 
Q 1341 3281 1617 3432 
Q 1894 3584 2278 3584 
Q 2916 3584 3314 3078 
Q 3713 2572 3713 1747 
Q 3713 922 3314 415 
Q 2916 -91 2278 -91 
Q 1894 -91 1617 61 
Q 1341 213 1159 525 
L 1159 0 
L 581 0 
L 581 4863 
L 1159 4863 
L 1159 2969 
z
" transform="scale(0.015625)"/>
       <path id="DejaVuSans-65" d="M 3597 1894 
L 3597 1613 
L 953 1613 
Q 991 1019 1311 708 
Q 1631 397 2203 397 
Q 2534 397 2845 478 
Q 3156 559 3463 722 
L 3463 178 
Q 3153 47 2828 -22 
Q 2503 -91 2169 -91 
Q 1331 -91 842 396 
Q 353 884 353 1716 
Q 353 2575 817 3079 
Q 1281 3584 2069 3584 
Q 2775 3584 3186 3129 
Q 3597 2675 3597 1894 
z
M 3022 2063 
Q 3016 2534 2758 2815 
Q 2500 3097 2075 3097 
Q 1594 3097 1305 2825 
Q 1016 2553 972 2059 
L 3022 2063 
z
" transform="scale(0.015625)"/>
       <path id="DejaVuSans-72" d="M 2631 2963 
Q 2534 3019 2420 3045 
Q 2306 3072 2169 3072 
Q 1681 3072 1420 2755 
Q 1159 2438 1159 1844 
L 1159 0 
L 581 0 
L 581 3500 
L 1159 3500 
L 1159 2956 
Q 1341 3275 1631 3429 
Q 1922 3584 2338 3584 
Q 2397 3584 2469 3576 
Q 2541 3569 2628 3553 
L 2631 2963 
z
" transform="scale(0.015625)"/>
       <path id="DejaVuSans-20" transform="scale(0.015625)"/>
       <path id="DejaVuSans-6f" d="M 1959 3097 
Q 1497 3097 1228 2736 
Q 959 2375 959 1747 
Q 959 1119 1226 758 
Q 1494 397 1959 397 
Q 2419 397 2687 759 
Q 2956 1122 2956 1747 
Q 2956 2369 2687 2733 
Q 2419 3097 1959 3097 
z
M 1959 3584 
Q 2709 3584 3137 3096 
Q 3566 2609 3566 1747 
Q 3566 888 3137 398 
Q 2709 -91 1959 -91 
Q 1206 -91 779 398 
Q 353 888 353 1747 
Q 353 2609 779 3096 
Q 1206 3584 1959 3584 
z
" transform="scale(0.015625)"/>
       <path id="DejaVuSans-66" d="M 2375 4863 
L 2375 4384 
L 1825 4384 
Q 1516 4384 1395 4259 
Q 1275 4134 1275 3809 
L 1275 3500 
L 2222 3500 
L 2222 3053 
L 1275 3053 
L 1275 0 
L 697 0 
L 697 3053 
L 147 3053 
L 147 3500 
L 697 3500 
L 697 3744 
Q 697 4328 969 4595 
Q 1241 4863 1831 4863 
L 2375 4863 
z
" transform="scale(0.015625)"/>
       <path id="DejaVuSans-54" d="M -19 4666 
L 3928 4666 
L 3928 4134 
L 2272 4134 
L 2272 0 
L 1638 0 
L 1638 4134 
L -19 4134 
L -19 4666 
z
" transform="scale(0.015625)"/>
       <path id="DejaVuSans-69" d="M 603 3500 
L 1178 3500 
L 1178 0 
L 603 0 
L 603 3500 
z
M 603 4863 
L 1178 4863 
L 1178 4134 
L 603 4134 
L 603 4863 
z
" transform="scale(0.015625)"/>
       <path id="DejaVuSans-73" d="M 2834 3397 
L 2834 2853 
Q 2591 2978 2328 3040 
Q 2066 3103 1784 3103 
Q 1356 3103 1142 2972 
Q 928 2841 928 2578 
Q 928 2378 1081 2264 
Q 1234 2150 1697 2047 
L 1894 2003 
Q 2506 1872 2764 1633 
Q 3022 1394 3022 966 
Q 3022 478 2636 193 
Q 2250 -91 1575 -91 
Q 1294 -91 989 -36 
Q 684 19 347 128 
L 347 722 
Q 666 556 975 473 
Q 1284 391 1588 391 
Q 1994 391 2212 530 
Q 2431 669 2431 922 
Q 2431 1156 2273 1281 
Q 2116 1406 1581 1522 
L 1381 1569 
Q 847 1681 609 1914 
Q 372 2147 372 2553 
Q 372 3047 722 3315 
Q 1072 3584 1716 3584 
Q 2034 3584 2315 3537 
Q 2597 3491 2834 3397 
z
" transform="scale(0.015625)"/>
       <path id="DejaVuSans-74" d="M 1172 4494 
L 1172 3500 
L 2356 3500 
L 2356 3053 
L 1172 3053 
L 1172 1153 
Q 1172 725 1289 603 
Q 1406 481 1766 481 
L 2356 481 
L 2356 0 
L 1766 0 
Q 1100 0 847 248 
Q 594 497 594 1153 
L 594 3053 
L 172 3053 
L 172 3500 
L 594 3500 
L 594 4494 
L 1172 4494 
z
" transform="scale(0.015625)"/>
       <path id="DejaVuSans-70" d="M 1159 525 
L 1159 -1331 
L 581 -1331 
L 581 3500 
L 1159 3500 
L 1159 2969 
Q 1341 3281 1617 3432 
Q 1894 3584 2278 3584 
Q 2916 3584 3314 3078 
Q 3713 2572 3713 1747 
Q 3713 922 3314 415 
Q 2916 -91 2278 -91 
Q 1894 -91 1617 61 
Q 1341 213 1159 525 
z
M 3116 1747 
Q 3116 2381 2855 2742 
Q 2594 3103 2138 3103 
Q 1681 3103 1420 2742 
Q 1159 2381 1159 1747 
Q 1159 1113 1420 752 
Q 1681 391 2138 391 
Q 2594 391 2855 752 
Q 3116 1113 3116 1747 
z
" transform="scale(0.015625)"/>
      </defs>
      <use xlink:href="#DejaVuSans-4e"/>
      <use xlink:href="#DejaVuSans-75" x="74.804688"/>
      <use xlink:href="#DejaVuSans-6d" x="138.183594"/>
      <use xlink:href="#DejaVuSans-62" x="235.595703"/>
      <use xlink:href="#DejaVuSans-65" x="299.072266"/>
      <use xlink:href="#DejaVuSans-72" x="360.595703"/>
      <use xlink:href="#DejaVuSans-20" x="401.708984"/>
      <use xlink:href="#DejaVuSans-6f" x="433.496094"/>
      <use xlink:href="#DejaVuSans-66" x="494.677734"/>
      <use xlink:href="#DejaVuSans-20" x="529.882812"/>
      <use xlink:href="#DejaVuSans-54" x="561.669922"/>
      <use xlink:href="#DejaVuSans-69" x="619.628906"/>
      <use xlink:href="#DejaVuSans-6d" x="647.412109"/>
      <use xlink:href="#DejaVuSans-65" x="744.824219"/>
      <use xlink:href="#DejaVuSans-73" x="806.347656"/>
      <use xlink:href="#DejaVuSans-74" x="858.447266"/>
      <use xlink:href="#DejaVuSans-65" x="897.65625"/>
      <use xlink:href="#DejaVuSans-70" x="959.179688"/>
      <use xlink:href="#DejaVuSans-73" x="1022.65625"/>
     </g>
    </g>
   </g>
   <g id="matplotlib.axis_2">
    <g id="ytick_1">
     <g id="line2d_11">
      <path d="M 66.488906 175.781162 
L 436.767532 175.781162 
" clip-path="url(#pf3f2b1780a)" style="fill: none; stroke: #b0b0b0; stroke-width: 0.8; stroke-linecap: square"/>
     </g>
     <g id="line2d_12">
      <defs>
       <path id="m4815f0077e" d="M 0 0 
L -3.5 0 
" style="stroke: #000000; stroke-width: 0.8"/>
      </defs>
      <g>
       <use xlink:href="#m4815f0077e" x="66.488906" y="175.781162" style="stroke: #000000; stroke-width: 0.8"/>
      </g>
     </g>
     <g id="text_7">
      <!-- −200 -->
      <g transform="translate(23.781562 180.720146)scale(0.13 -0.13)">
       <defs>
        <path id="DejaVuSans-2212" d="M 678 2272 
L 4684 2272 
L 4684 1741 
L 678 1741 
L 678 2272 
z
" transform="scale(0.015625)"/>
       </defs>
       <use xlink:href="#DejaVuSans-2212"/>
       <use xlink:href="#DejaVuSans-32" x="83.789062"/>
       <use xlink:href="#DejaVuSans-30" x="147.412109"/>
       <use xlink:href="#DejaVuSans-30" x="211.035156"/>
      </g>
     </g>
    </g>
    <g id="ytick_2">
     <g id="line2d_13">
      <path d="M 66.488906 138.099262 
L 436.767532 138.099262 
" clip-path="url(#pf3f2b1780a)" style="fill: none; stroke: #b0b0b0; stroke-width: 0.8; stroke-linecap: square"/>
     </g>
     <g id="line2d_14">
      <g>
       <use xlink:href="#m4815f0077e" x="66.488906" y="138.099262" style="stroke: #000000; stroke-width: 0.8"/>
      </g>
     </g>
     <g id="text_8">
      <!-- −150 -->
      <g transform="translate(23.781562 143.038246)scale(0.13 -0.13)">
       <defs>
        <path id="DejaVuSans-31" d="M 794 531 
L 1825 531 
L 1825 4091 
L 703 3866 
L 703 4441 
L 1819 4666 
L 2450 4666 
L 2450 531 
L 3481 531 
L 3481 0 
L 794 0 
L 794 531 
z
" transform="scale(0.015625)"/>
       </defs>
       <use xlink:href="#DejaVuSans-2212"/>
       <use xlink:href="#DejaVuSans-31" x="83.789062"/>
       <use xlink:href="#DejaVuSans-35" x="147.412109"/>
       <use xlink:href="#DejaVuSans-30" x="211.035156"/>
      </g>
     </g>
    </g>
    <g id="ytick_3">
     <g id="line2d_15">
      <path d="M 66.488906 100.417362 
L 436.767532 100.417362 
" clip-path="url(#pf3f2b1780a)" style="fill: none; stroke: #b0b0b0; stroke-width: 0.8; stroke-linecap: square"/>
     </g>
     <g id="line2d_16">
      <g>
       <use xlink:href="#m4815f0077e" x="66.488906" y="100.417362" style="stroke: #000000; stroke-width: 0.8"/>
      </g>
     </g>
     <g id="text_9">
      <!-- −100 -->
      <g transform="translate(23.781562 105.356346)scale(0.13 -0.13)">
       <use xlink:href="#DejaVuSans-2212"/>
       <use xlink:href="#DejaVuSans-31" x="83.789062"/>
       <use xlink:href="#DejaVuSans-30" x="147.412109"/>
       <use xlink:href="#DejaVuSans-30" x="211.035156"/>
      </g>
     </g>
    </g>
    <g id="ytick_4">
     <g id="line2d_17">
      <path d="M 66.488906 62.735462 
L 436.767532 62.735462 
" clip-path="url(#pf3f2b1780a)" style="fill: none; stroke: #b0b0b0; stroke-width: 0.8; stroke-linecap: square"/>
     </g>
     <g id="line2d_18">
      <g>
       <use xlink:href="#m4815f0077e" x="66.488906" y="62.735462" style="stroke: #000000; stroke-width: 0.8"/>
      </g>
     </g>
     <g id="text_10">
      <!-- −50 -->
      <g transform="translate(32.052813 67.674447)scale(0.13 -0.13)">
       <use xlink:href="#DejaVuSans-2212"/>
       <use xlink:href="#DejaVuSans-35" x="83.789062"/>
       <use xlink:href="#DejaVuSans-30" x="147.412109"/>
      </g>
     </g>
    </g>
    <g id="ytick_5">
     <g id="line2d_19">
      <path d="M 66.488906 25.053562 
L 436.767532 25.053562 
" clip-path="url(#pf3f2b1780a)" style="fill: none; stroke: #b0b0b0; stroke-width: 0.8; stroke-linecap: square"/>
     </g>
     <g id="line2d_20">
      <g>
       <use xlink:href="#m4815f0077e" x="66.488906" y="25.053562" style="stroke: #000000; stroke-width: 0.8"/>
      </g>
     </g>
     <g id="text_11">
      <!-- 0 -->
      <g transform="translate(51.217656 29.992547)scale(0.13 -0.13)">
       <use xlink:href="#DejaVuSans-30"/>
      </g>
     </g>
    </g>
    <g id="text_12">
     <!-- Rewards -->
     <g transform="translate(17.077969 128.010878)rotate(-90)scale(0.13 -0.13)">
      <defs>
       <path id="DejaVuSans-52" d="M 2841 2188 
Q 3044 2119 3236 1894 
Q 3428 1669 3622 1275 
L 4263 0 
L 3584 0 
L 2988 1197 
Q 2756 1666 2539 1819 
Q 2322 1972 1947 1972 
L 1259 1972 
L 1259 0 
L 628 0 
L 628 4666 
L 2053 4666 
Q 2853 4666 3247 4331 
Q 3641 3997 3641 3322 
Q 3641 2881 3436 2590 
Q 3231 2300 2841 2188 
z
M 1259 4147 
L 1259 2491 
L 2053 2491 
Q 2509 2491 2742 2702 
Q 2975 2913 2975 3322 
Q 2975 3731 2742 3939 
Q 2509 4147 2053 4147 
L 1259 4147 
z
" transform="scale(0.015625)"/>
       <path id="DejaVuSans-77" d="M 269 3500 
L 844 3500 
L 1563 769 
L 2278 3500 
L 2956 3500 
L 3675 769 
L 4391 3500 
L 4966 3500 
L 4050 0 
L 3372 0 
L 2619 2869 
L 1863 0 
L 1184 0 
L 269 3500 
z
" transform="scale(0.015625)"/>
       <path id="DejaVuSans-61" d="M 2194 1759 
Q 1497 1759 1228 1600 
Q 959 1441 959 1056 
Q 959 750 1161 570 
Q 1363 391 1709 391 
Q 2188 391 2477 730 
Q 2766 1069 2766 1631 
L 2766 1759 
L 2194 1759 
z
M 3341 1997 
L 3341 0 
L 2766 0 
L 2766 531 
Q 2569 213 2275 61 
Q 1981 -91 1556 -91 
Q 1019 -91 701 211 
Q 384 513 384 1019 
Q 384 1609 779 1909 
Q 1175 2209 1959 2209 
L 2766 2209 
L 2766 2266 
Q 2766 2663 2505 2880 
Q 2244 3097 1772 3097 
Q 1472 3097 1187 3025 
Q 903 2953 641 2809 
L 641 3341 
Q 956 3463 1253 3523 
Q 1550 3584 1831 3584 
Q 2591 3584 2966 3190 
Q 3341 2797 3341 1997 
z
" transform="scale(0.015625)"/>
       <path id="DejaVuSans-64" d="M 2906 2969 
L 2906 4863 
L 3481 4863 
L 3481 0 
L 2906 0 
L 2906 525 
Q 2725 213 2448 61 
Q 2172 -91 1784 -91 
Q 1150 -91 751 415 
Q 353 922 353 1747 
Q 353 2572 751 3078 
Q 1150 3584 1784 3584 
Q 2172 3584 2448 3432 
Q 2725 3281 2906 2969 
z
M 947 1747 
Q 947 1113 1208 752 
Q 1469 391 1925 391 
Q 2381 391 2643 752 
Q 2906 1113 2906 1747 
Q 2906 2381 2643 2742 
Q 2381 3103 1925 3103 
Q 1469 3103 1208 2742 
Q 947 2381 947 1747 
z
" transform="scale(0.015625)"/>
      </defs>
      <use xlink:href="#DejaVuSans-52"/>
      <use xlink:href="#DejaVuSans-65" x="64.982422"/>
      <use xlink:href="#DejaVuSans-77" x="126.505859"/>
      <use xlink:href="#DejaVuSans-61" x="208.292969"/>
      <use xlink:href="#DejaVuSans-72" x="269.572266"/>
      <use xlink:href="#DejaVuSans-64" x="308.935547"/>
      <use xlink:href="#DejaVuSans-73" x="372.412109"/>
     </g>
    </g>
   </g>
   <g id="line2d_21">
    <path d="M 103.361702 220.144287 
L 103.562469 154.198841 
L 104.545213 153.360575 
L 104.605504 153.337553 
L 104.85722 152.6907 
L 104.936352 152.695217 
L 105.552074 152.402819 
L 105.722396 152.403506 
L 105.98843 151.959622 
L 108.305113 150.050823 
L 108.546278 149.620629 
L 108.611844 149.616096 
L 109.191392 148.896176 
L 109.251683 149.032508 
L 109.528268 148.681124 
L 109.764157 148.686162 
L 109.939754 148.542866 
L 110.018133 147.515874 
L 110.131932 147.602105 
L 110.383647 146.854528 
L 110.467301 146.459169 
L 110.625565 146.416239 
L 110.743132 146.119027 
L 111.199837 145.963627 
L 111.254099 145.75634 
L 111.552539 145.56597 
L 111.734166 145.320887 
L 111.98965 145.109104 
L 111.990403 145.033385 
L 112.310699 144.327098 
L 112.510413 144.361792 
L 112.680736 144.249943 
L 112.854072 144.268045 
L 112.97164 143.785864 
L 113.404982 143.438943 
L 113.470548 143.007772 
L 114.301811 142.854783 
L 114.456307 142.53503 
L 114.679384 142.276715 
L 114.741935 142.094974 
L 114.837648 140.903186 
L 115.090116 140.664945 
L 115.587517 140.484059 
L 115.839232 140.083894 
L 116.234892 139.948497 
L 116.328343 139.925348 
L 116.396171 140.075695 
L 117.040531 139.472417 
L 117.220651 138.706524 
L 117.507033 138.475951 
L 117.744429 138.03882 
L 117.950172 137.476526 
L 118.369195 137.049828 
L 118.44682 136.766095 
L 118.7121 136.488051 
L 118.840973 135.762998 
L 119.086659 134.580096 
L 119.56145 134.226914 
L 119.674496 133.64646 
L 119.844065 133.402248 
L 119.97369 133.433297 
L 120.077692 133.193694 
L 120.140244 132.677737 
L 120.28645 132.438961 
L 120.430395 132.769959 
L 121.101887 132.535134 
L 121.16896 132.605487 
L 121.728913 132.155256 
L 121.863061 132.191959 
L 121.91883 132.253499 
L 122.169792 130.768836 
L 123.031953 130.134662 
L 123.20529 130.137166 
L 123.729069 129.803151 
L 124.026002 128.553893 
L 124.298819 128.271041 
L 124.545259 127.7801 
L 125.133096 127.004257 
L 125.717166 126.681951 
L 125.940996 126.523446 
L 125.94175 126.180917 
L 126.439151 125.611652 
L 126.739099 125.860833 
L 127.067685 125.695282 
L 127.990138 124.995509 
L 128.10243 124.35584 
L 128.831951 123.729417 
L 128.956302 123.3172 
L 129.24796 123.562734 
L 129.56298 123.346145 
L 129.80113 123.386038 
L 130.556275 122.691018 
L 130.609783 122.268095 
L 130.974544 121.999933 
L 131.165215 121.679425 
L 131.839721 121.427901 
L 132.129871 121.355397 
L 132.230105 121.004066 
L 132.286628 121.052106 
L 132.542111 120.373181 
L 132.796087 120.111206 
L 132.99354 119.900611 
L 132.994294 119.679401 
L 133.208327 119.575748 
L 133.209081 119.250609 
L 133.278416 119.266628 
L 133.33117 119.168392 
L 133.953675 119.088995 
L 134.148114 119.2303 
L 134.742734 118.962926 
L 134.950738 119.035163 
L 135.448893 118.90089 
L 135.523503 118.977271 
L 135.979454 118.931139 
L 136.272619 117.875534 
L 137.679662 116.851355 
L 137.820592 116.899743 
L 137.880129 117.1047 
L 137.975841 117.05376 
L 138.097177 117.068109 
L 138.361704 116.893318 
L 138.64884 116.847155 
L 139.174879 116.933523 
L 139.320331 117.214229 
L 139.439406 117.181452 
L 139.527582 117.026077 
L 139.645903 116.152159 
L 140.13426 116.119303 
L 140.24806 116.05321 
L 140.404817 114.88664 
L 140.723605 114.853189 
L 140.970799 114.835017 
L 141.029582 114.725459 
L 141.106453 114.879535 
L 141.465185 114.631954 
L 142.547409 114.16949 
L 142.612976 114.57811 
L 142.661209 114.518176 
L 142.767472 114.466801 
L 143.004114 113.957106 
L 144.031323 113.548951 
L 145.941795 112.751534 
L 146.370615 112.703474 
L 146.658505 112.536279 
L 147.476955 112.442866 
L 147.571914 112.416545 
L 147.697771 112.218744 
L 147.868094 112.166496 
L 147.979632 111.938544 
L 148.106243 111.967833 
L 148.16352 112.100513 
L 148.164273 112.099104 
L 148.512454 111.88759 
L 148.518483 110.338159 
L 149.240468 110.404571 
L 149.397225 109.77194 
L 149.637636 109.731237 
L 149.927786 109.44497 
L 150.174226 109.412215 
L 150.499797 109.354147 
L 150.560089 104.383845 
L 150.74473 104.349962 
L 150.88566 104.16649 
L 151.254189 103.956385 
L 152.104293 103.974779 
L 152.486387 103.85223 
L 152.701174 103.84068 
L 152.903149 101.5205 
L 153.029007 100.870636 
L 153.110399 101.00387 
L 153.348549 100.835487 
L 154.664401 100.050258 
L 155.269572 100.001954 
L 155.278616 99.714527 
L 155.435373 99.730598 
L 155.642623 99.177713 
L 156.17846 99.058758 
L 156.73163 98.835167 
L 157.070014 98.822291 
L 157.410658 98.550271 
L 157.568922 98.570194 
L 157.620923 98.332268 
L 158.412243 98.424383 
L 158.547144 98.226475 
L 159.085242 98.070863 
L 159.293246 98.161377 
L 159.638412 98.037126 
L 159.743167 96.263442 
L 159.841894 96.377751 
L 160.114711 96.129691 
L 160.435007 95.928277 
L 160.669389 95.894113 
L 160.805043 95.952998 
L 160.997221 95.869452 
L 161.236124 95.879062 
L 161.381576 95.771645 
L 161.636306 95.933832 
L 161.730511 95.701582 
L 161.850339 95.506678 
L 163.123988 94.988798 
L 163.723883 94.875859 
L 163.724637 94.750496 
L 164.45642 94.729317 
L 164.965125 94.493139 
L 165.141476 94.654201 
L 165.340437 94.525136 
L 165.462526 94.459831 
L 165.46328 94.119278 
L 165.512266 94.145978 
L 165.646414 94.194868 
L 165.774532 94.36529 
L 166.419646 94.115226 
L 168.320322 93.376988 
L 168.699401 93.246631 
L 168.863695 92.765644 
L 169.052858 92.675326 
L 169.315877 91.918678 
L 169.355066 91.942311 
L 169.75148 91.685676 
L 169.796698 91.403283 
L 171.236901 90.759873 
L 171.357483 90.906232 
L 172.15031 90.526523 
L 172.258834 90.135524 
L 172.575362 89.616166 
L 172.628116 89.162998 
L 173.204649 88.848723 
L 173.280767 88.985945 
L 174.359976 88.340486 
L 174.53256 88.339898 
L 174.589082 88.552464 
L 174.767695 88.483384 
L 174.921437 88.110246 
L 175.393968 88.01348 
L 175.419591 87.769082 
L 175.491187 87.777745 
L 175.627596 87.674972 
L 175.986327 87.576705 
L 176.683442 86.9664 
L 177.380558 86.666178 
L 178.312808 86.516175 
L 178.511768 86.584649 
L 178.615017 85.784264 
L 178.884065 85.726761 
L 178.90366 85.591596 
L 179.184013 85.55213 
L 180.274527 85.017367 
L 180.444096 84.352764 
L 180.632505 84.30813 
L 180.918888 84.06073 
L 181.186429 83.967252 
L 181.637859 83.841209 
L 181.716237 83.693758 
L 182.30935 83.466348 
L 182.5166 83.519936 
L 182.791678 83.220578 
L 183.279282 83.094169 
L 185.348018 82.263963 
L 185.790404 82.006474 
L 186.222238 82.204849 
L 186.222992 82.170934 
L 186.998486 82.093999 
L 187.055008 81.954854 
L 187.130372 82.002803 
L 187.406957 81.753053 
L 187.769457 81.903328 
L 187.885518 81.938728 
L 187.913402 81.788104 
L 187.962389 81.80122 
L 188.16361 81.986082 
L 188.184712 81.846311 
L 188.434166 81.873781 
L 188.648199 81.666076 
L 188.696432 81.728896 
L 188.811739 81.543452 
L 188.882581 81.54118 
L 189.177253 81.300202 
L 189.650538 81.533722 
L 190.854098 81.449531 
L 190.904591 81.490988 
L 191.059087 81.456553 
L 191.389934 81.191447 
L 192.424679 81.156263 
L 193.330552 81.024076 
L 193.515193 81.061625 
L 193.801576 80.984183 
L 194.207787 81.101943 
L 196.444584 81.404197 
L 196.4996 81.07681 
L 196.945 80.921867 
L 197.017349 80.905124 
L 197.085177 80.726155 
L 197.338399 80.757497 
L 197.706928 80.545291 
L 197.792089 80.615493 
L 197.982759 80.400063 
L 198.719817 80.234743 
L 198.861501 80.212939 
L 199.377743 80.140213 
L 199.8141 80.061197 
L 200.798351 79.441977 
L 200.858642 79.443672 
L 201.380913 79.132864 
L 202.268699 79.149584 
L 202.383252 79.184643 
L 202.66662 79.051191 
L 202.735201 78.169867 
L 203.560434 78.148121 
L 203.904847 78.019926 
L 203.980211 78.112865 
L 205.057913 77.454969 
L 205.522908 77.413725 
L 206.510173 77.351341 
L 206.598349 77.414072 
L 207.146997 77.286383 
L 207.538889 77.221567 
L 208.13351 77.236021 
L 208.329455 77.258754 
L 208.343775 77.138409 
L 208.594736 77.274112 
L 208.908249 77.206837 
L 209.003208 77.057572 
L 209.970879 76.576155 
L 211.586679 76.210546 
L 212.159444 75.973215 
L 212.422463 76.009103 
L 212.760093 76.028387 
L 212.90027 76.156445 
L 213.116564 76.248681 
L 213.620748 76.085535 
L 213.621501 76.066413 
L 213.685561 76.081388 
L 213.879246 76.006893 
L 214.029973 76.30628 
L 215.385768 76.12923 
L 217.976022 76.125906 
L 218.106401 75.853476 
L 218.168199 75.912779 
L 218.539743 76.259152 
L 218.860793 76.326658 
L 219.022071 76.356043 
L 219.08387 76.520025 
L 219.509675 76.694104 
L 219.576749 76.487598 
L 219.764405 76.34205 
L 219.927191 75.875714 
L 219.982206 75.89409 
L 220.61074 75.727137 
L 220.876021 75.911684 
L 221.391509 75.750543 
L 221.448786 75.443522 
L 221.741197 75.356123 
L 222.224279 75.383278 
L 222.313962 75.726617 
L 222.571706 75.761566 
L 222.824175 75.827666 
L 223.032179 75.734699 
L 223.528827 75.759195 
L 223.736077 75.553477 
L 223.788078 75.625954 
L 225.405385 75.324037 
L 225.716638 75.337389 
L 226.266793 75.311458 
L 226.370042 74.784687 
L 227.547224 74.131921 
L 228.494547 74.097619 
L 228.657333 74.042051 
L 228.760582 74.224174 
L 229.055254 74.265149 
L 229.494625 74.150129 
L 230.093013 74.115472 
L 230.750186 73.854629 
L 231.09083 73.647504 
L 231.261906 73.724022 
L 231.324458 73.750753 
L 231.344806 73.594096 
L 231.550549 73.354561 
L 231.678668 73.630846 
L 231.939427 73.457453 
L 232.201693 73.228023 
L 232.292883 73.242306 
L 232.605643 73.127428 
L 232.659151 73.234561 
L 233.035216 73.117981 
L 233.388672 73.145482 
L 233.673548 73.114656 
L 234.082773 73.060082 
L 234.212399 72.875775 
L 234.558319 72.880684 
L 236.066348 72.287037 
L 237.183993 71.699264 
L 237.257096 71.885261 
L 237.705511 71.960504 
L 238.105693 71.845357 
L 238.254913 71.560409 
L 238.52773 71.431517 
L 238.581238 71.570504 
L 239.529315 71.29076 
L 240.566321 71.285411 
L 241.465411 71.07131 
L 241.727677 70.880856 
L 242.89054 70.533793 
L 242.953092 70.44412 
L 243.150545 70.443354 
L 243.151299 70.406121 
L 243.21159 70.445803 
L 243.724064 70.138884 
L 243.803196 70.257391 
L 244.149116 70.187966 
L 244.502572 70.168769 
L 244.503326 70.139664 
L 244.871101 70.100524 
L 244.9849 70.18967 
L 246.536641 70.165003 
L 246.711485 70.397459 
L 247.337758 70.438783 
L 247.626401 70.539154 
L 247.627155 70.511061 
L 248.472737 70.1186 
L 248.965616 70.200425 
L 249.597918 70.212448 
L 249.654441 70.331222 
L 250.144306 70.221673 
L 250.206104 70.294504 
L 250.894176 70.280007 
L 251.338069 70.186703 
L 251.401374 70.371236 
L 251.764628 70.497735 
L 251.833209 70.357364 
L 251.968864 70.477594 
L 252.996826 70.183022 
L 253.212366 70.222193 
L 253.368369 70.297136 
L 253.375152 70.214679 
L 253.522865 70.256205 
L 253.651737 69.866467 
L 253.927569 69.824401 
L 256.141757 68.407644 
L 256.474865 68.31029 
L 256.53591 68.428565 
L 256.536663 68.41716 
L 257.139574 68.376441 
L 257.298592 68.427427 
L 257.532973 68.350967 
L 258.120811 68.292941 
L 258.486325 67.67496 
L 259.82554 67.093718 
L 260.425436 67.215139 
L 260.770602 66.992037 
L 261.060752 66.847721 
L 261.114261 66.948441 
L 261.622213 67.116428 
L 262.220601 66.910695 
L 262.289182 67.195823 
L 262.553709 67.227325 
L 263.082763 67.117765 
L 263.15662 67.222875 
L 263.161895 67.113174 
L 263.189026 67.010276 
L 263.58544 66.966466 
L 263.7844 67.12324 
L 263.940403 67.138045 
L 264.314961 67.048592 
L 264.377513 67.160582 
L 264.553864 67.152539 
L 264.60888 67.280416 
L 265.108542 67.125459 
L 265.27585 67.263945 
L 265.424316 67.336468 
L 265.463506 67.16991 
L 265.693365 67.113058 
L 265.868209 67.198221 
L 266.330943 67.118936 
L 266.446249 66.536269 
L 266.51257 66.589176 
L 267.371717 66.481459 
L 267.482502 66.215283 
L 267.827668 66.30512 
L 268.31075 66.272814 
L 268.359736 66.412817 
L 269.625848 65.612164 
L 270.52946 65.279649 
L 270.729928 65.253739 
L 270.813582 65.40112 
L 270.945468 65.365472 
L 271.449652 65.004977 
L 272.295988 64.936779 
L 272.993856 64.71378 
L 273.082032 64.761432 
L 273.39856 64.680184 
L 274.504901 63.986545 
L 274.717427 64.313957 
L 274.987229 64.211366 
L 275.118362 64.250152 
L 275.666257 64.022428 
L 275.743881 64.139675 
L 276.485461 64.106371 
L 276.861527 63.886464 
L 277.226287 63.931043 
L 277.370232 64.09447 
L 278.118595 63.518077 
L 278.417035 63.389841 
L 280.032082 62.218057 
L 281.030652 61.444246 
L 281.352455 61.418598 
L 281.867944 62.085204 
L 282.316358 62.071522 
L 282.379664 62.132887 
L 282.565813 61.727311 
L 282.72483 61.863045 
L 282.975038 61.870723 
L 283.092606 61.785299 
L 283.25916 62.07563 
L 283.749778 61.973651 
L 284.002247 61.627066 
L 284.062538 61.637772 
L 285.039252 61.302383 
L 285.180183 61.33975 
L 286.431222 61.208945 
L 286.525427 61.423937 
L 286.892448 61.393298 
L 286.970073 61.412898 
L 287.086133 60.98879 
L 287.146424 61.029314 
L 287.403415 61.069123 
L 287.911367 61.049474 
L 287.916642 60.979407 
L 288.045514 60.922371 
L 288.365811 61.109286 
L 288.853414 61.137124 
L 288.909184 61.194145 
L 289.871579 61.310297 
L 290.491823 60.996346 
L 290.86186 61.010895 
L 290.887483 60.868143 
L 290.952296 61.044288 
L 291.739848 60.791633 
L 291.815212 60.779513 
L 291.978751 60.867729 
L 292.38873 60.785886 
L 292.654011 60.823072 
L 292.822072 60.775395 
L 293.951022 60.102647 
L 294.258506 60.297107 
L 294.265289 60.183108 
L 294.461988 60.119052 
L 294.593875 59.914096 
L 294.748371 59.923383 
L 295.314353 59.837431 
L 295.810247 59.643497 
L 296.280517 59.616082 
L 296.772642 59.536252 
L 297.059779 59.347332 
L 297.257985 59.614713 
L 297.46825 59.589775 
L 297.668718 59.465868 
L 297.738806 59.531201 
L 298.616795 59.49009 
L 298.962714 59.498923 
L 299.135298 59.552938 
L 299.210661 59.632883 
L 299.527189 59.406752 
L 299.579944 59.409728 
L 299.929632 59.250492 
L 300.112766 59.993257 
L 301.207802 59.653303 
L 301.330645 59.804366 
L 302.024746 59.672484 
L 302.758789 59.709189 
L 302.869574 59.841674 
L 303.29764 59.748486 
L 303.761128 59.820806 
L 303.761881 59.694724 
L 304.154527 59.604083 
L 304.458996 59.631982 
L 304.758944 59.727146 
L 305.169677 59.660471 
L 306.789999 58.836054 
L 306.994235 59.402262 
L 307.25424 59.435208 
L 308.604005 58.731192 
L 309.056942 58.742278 
L 309.33202 58.690417 
L 309.332773 58.840296 
L 309.607098 58.759979 
L 309.674925 58.81845 
L 310.170065 58.64041 
L 310.913906 58.224989 
L 312.397819 57.381315 
L 313.079861 57.342445 
L 313.31575 57.395412 
L 313.547871 57.395985 
L 313.847819 57.377626 
L 313.848572 57.276976 
L 314.122896 57.06024 
L 315.184019 56.918357 
L 316.28433 56.851588 
L 316.532277 56.848735 
L 316.944517 56.616139 
L 317.011591 56.711789 
L 319.240852 56.532023 
L 319.554365 56.716824 
L 319.611642 56.733107 
L 319.862603 56.947548 
L 319.974895 57.362019 
L 320.210784 57.396932 
L 320.55595 57.375756 
L 320.800129 57.609637 
L 321.757249 57.184752 
L 322.375986 57.412931 
L 324.397243 56.214706 
L 324.456027 56.71278 
L 324.521593 56.450879 
L 326.083131 55.323921 
L 326.796827 54.665093 
L 327.576842 54.709391 
L 327.823282 54.707697 
L 328.484222 54.780224 
L 329.044175 55.03647 
L 329.200932 55.401493 
L 329.637288 55.120807 
L 329.793291 55.303784 
L 330.133182 55.379823 
L 330.965198 54.780171 
L 331.10236 54.800556 
L 331.213899 55.165887 
L 331.565094 55.167166 
L 331.742953 55.980312 
L 331.798722 55.982961 
L 332.481518 55.706837 
L 334.249553 55.438607 
L 335.826163 54.884828 
L 336.938533 53.997284 
L 337.044796 54.139128 
L 337.34399 54.260611 
L 337.369614 54.160261 
L 338.139832 54.145913 
L 338.221979 54.172396 
L 338.613117 54.022238 
L 338.858049 54.073827 
L 338.88518 53.962159 
L 339.06756 54.176776 
L 339.188142 54.051618 
L 339.750356 54.181406 
L 340.029956 54.053217 
L 340.106827 54.200861 
L 340.46782 54.142337 
L 340.474603 54.0284 
L 341.620886 53.303739 
L 341.62164 53.377074 
L 341.811556 53.327379 
L 343.177902 52.498576 
L 343.385906 52.414213 
L 343.455994 52.524345 
L 343.849393 52.389658 
L 344.853993 52.464603 
L 345.465193 52.199018 
L 345.734242 52.239932 
L 346.461503 51.96375 
L 346.667246 52.02792 
L 346.876004 52.001859 
L 347.00789 52.052933 
L 347.54222 51.778141 
L 347.780369 51.820949 
L 347.845936 51.934641 
L 348.119506 51.808891 
L 348.167739 51.951458 
L 348.716388 52.033023 
L 348.985436 51.965838 
L 349.267297 52.041455 
L 349.848352 51.886004 
L 349.908643 51.957943 
L 350.360072 51.861601 
L 350.555264 51.95114 
L 350.752718 51.948073 
L 351.183045 52.013045 
L 351.37673 51.89192 
L 352.486085 51.839944 
L 352.695596 51.920701 
L 353.019661 51.814763 
L 353.144765 51.986925 
L 353.633876 51.842124 
L 354.107914 51.995451 
L 354.896973 51.743349 
L 354.951235 51.815679 
L 355.254951 51.662602 
L 355.420751 52.458188 
L 357.334992 52.330717 
L 358.280054 51.949147 
L 358.463188 52.49163 
L 358.531769 52.436672 
L 359.276363 52.627185 
L 359.54918 52.54685 
L 359.764721 52.729191 
L 360.566592 52.595929 
L 360.706768 52.759817 
L 360.901207 52.564568 
L 361.134081 52.818558 
L 361.195879 53.366319 
L 361.267475 53.230158 
L 361.473972 53.188219 
L 362.19445 52.994195 
L 362.25248 53.002345 
L 362.456716 52.783694 
L 363.09354 52.769753 
L 363.141019 52.903253 
L 363.879584 52.543882 
L 364.05066 52.652063 
L 364.316694 52.515441 
L 365.975451 51.834618 
L 367.094604 51.478901 
L 367.346319 51.12891 
L 367.516641 51.080412 
L 367.695253 51.181935 
L 368.061521 51.272929 
L 369.861209 50.620274 
L 370.638963 50.605821 
L 370.739951 50.237805 
L 370.975086 50.312735 
L 371.355673 50.123382 
L 371.642809 50.031824 
L 371.905075 50.033566 
L 372.162066 50.047124 
L 372.86521 49.782345 
L 373.019706 49.827182 
L 373.284233 49.652304 
L 373.828359 49.836829 
L 374.188598 49.734003 
L 374.380776 49.376861 
L 374.776436 49.130202 
L 374.950526 49.156584 
L 375.021368 49.223804 
L 375.530074 49.145666 
L 376.252813 48.758316 
L 376.69143 48.719486 
L 376.737402 48.687688 
L 377.328254 48.671721 
L 378.078124 48.628805 
L 378.827994 48.473717 
L 378.895068 49.157601 
L 379.103072 48.880527 
L 379.20632 48.941956 
L 380.334516 48.891623 
L 380.646522 48.939225 
L 380.985659 48.706428 
L 381.05424 48.808139 
L 382.14174 48.509384 
L 382.24122 48.635386 
L 382.673055 48.774118 
L 382.817 48.612656 
L 383.367909 48.766139 
L 383.880383 48.544702 
L 384.361204 48.714048 
L 384.428278 48.971031 
L 385.436645 49.014042 
L 385.806682 48.991531 
L 387.16323 49.437258 
L 387.263464 49.287129 
L 387.316972 49.325312 
L 387.375756 49.358801 
L 387.757097 49.894456 
L 387.922897 49.723204 
L 388.235657 49.659506 
L 388.454966 49.561583 
L 388.542388 49.735605 
L 388.86193 49.681933 
L 388.951613 49.796734 
L 389.263619 49.756609 
L 389.379679 49.872404 
L 389.71128 49.922868 
L 389.803224 50.055535 
L 390.427236 49.930118 
L 390.483005 50.128145 
L 391.313514 50.061808 
L 391.358733 50.201262 
L 392.54722 49.424709 
L 392.598467 49.515227 
L 393.053665 49.565608 
L 393.542022 49.664617 
L 393.732692 49.53646 
L 393.798259 49.675617 
L 394.0967 49.652642 
L 395.170634 49.790891 
L 396.641735 49.587366 
L 396.705794 49.616019 
L 396.907016 49.36909 
L 396.978611 49.348651 
L 398.546178 48.327391 
L 399.097088 48.154313 
L 399.20938 48.687519 
L 399.802493 48.586677 
L 399.851479 48.657065 
L 400.023309 48.575278 
L 400.084353 48.789285 
L 400.155949 48.645866 
L 400.773932 48.446678 
L 400.822919 48.564384 
L 400.957066 48.545462 
L 401.128896 48.120019 
L 401.175621 48.179888 
L 401.40322 48.025616 
L 401.565252 48.220385 
L 403.822398 46.969809 
L 405.143525 46.077256 
L 405.304804 46.795837 
L 405.423125 47.635677 
L 405.55049 47.641084 
L 405.597215 47.711646 
L 405.83838 47.604416 
L 405.989861 47.635244 
L 405.990614 47.57411 
L 406.058442 47.869285 
L 406.472189 47.860581 
L 407.306466 47.330269 
L 409.540249 45.908209 
L 410.643575 46.721903 
L 411.095005 46.56811 
L 411.287936 46.704379 
L 412.150851 46.481482 
L 412.483959 46.421938 
L 413.201423 45.997847 
L 413.349889 46.091934 
L 413.529255 46.147405 
L 414.294198 45.691333 
L 415.04859 45.345794 
L 415.597238 45.598378 
L 415.772082 45.581946 
L 416.597316 45.160603 
L 416.685491 44.936838 
L 417.32533 44.701927 
L 417.445158 44.828968 
L 417.512986 45.115711 
L 417.977227 45.100542 
L 418.041286 45.215855 
L 418.369872 45.251654 
L 419.259919 44.56417 
L 419.60207 44.837597 
L 419.936686 44.824629 
L 419.936686 44.824629 
" clip-path="url(#pf3f2b1780a)" style="fill: none; stroke: #0000ff; stroke-width: 2; stroke-linecap: square"/>
   </g>
   <g id="patch_3">
    <path d="M 66.488906 175.781162 
L 66.488906 25.053562 
" style="fill: none; stroke: #000000; stroke-width: 0.8; stroke-linejoin: miter; stroke-linecap: square"/>
   </g>
   <g id="patch_4">
    <path d="M 436.767532 175.781162 
L 436.767532 25.053562 
" style="fill: none; stroke: #000000; stroke-width: 0.8; stroke-linejoin: miter; stroke-linecap: square"/>
   </g>
   <g id="patch_5">
    <path d="M 66.488906 175.781162 
L 436.767532 175.781162 
" style="fill: none; stroke: #000000; stroke-width: 0.8; stroke-linejoin: miter; stroke-linecap: square"/>
   </g>
   <g id="patch_6">
    <path d="M 66.488906 25.053562 
L 436.767532 25.053562 
" style="fill: none; stroke: #000000; stroke-width: 0.8; stroke-linejoin: miter; stroke-linecap: square"/>
   </g>
   <g id="text_13">
    <!-- Learning Curve Smoothed -->
    <g transform="translate(149.946688 19.053562)scale(0.156 -0.156)">
     <defs>
      <path id="DejaVuSans-4c" d="M 628 4666 
L 1259 4666 
L 1259 531 
L 3531 531 
L 3531 0 
L 628 0 
L 628 4666 
z
" transform="scale(0.015625)"/>
      <path id="DejaVuSans-6e" d="M 3513 2113 
L 3513 0 
L 2938 0 
L 2938 2094 
Q 2938 2591 2744 2837 
Q 2550 3084 2163 3084 
Q 1697 3084 1428 2787 
Q 1159 2491 1159 1978 
L 1159 0 
L 581 0 
L 581 3500 
L 1159 3500 
L 1159 2956 
Q 1366 3272 1645 3428 
Q 1925 3584 2291 3584 
Q 2894 3584 3203 3211 
Q 3513 2838 3513 2113 
z
" transform="scale(0.015625)"/>
      <path id="DejaVuSans-67" d="M 2906 1791 
Q 2906 2416 2648 2759 
Q 2391 3103 1925 3103 
Q 1463 3103 1205 2759 
Q 947 2416 947 1791 
Q 947 1169 1205 825 
Q 1463 481 1925 481 
Q 2391 481 2648 825 
Q 2906 1169 2906 1791 
z
M 3481 434 
Q 3481 -459 3084 -895 
Q 2688 -1331 1869 -1331 
Q 1566 -1331 1297 -1286 
Q 1028 -1241 775 -1147 
L 775 -588 
Q 1028 -725 1275 -790 
Q 1522 -856 1778 -856 
Q 2344 -856 2625 -561 
Q 2906 -266 2906 331 
L 2906 616 
Q 2728 306 2450 153 
Q 2172 0 1784 0 
Q 1141 0 747 490 
Q 353 981 353 1791 
Q 353 2603 747 3093 
Q 1141 3584 1784 3584 
Q 2172 3584 2450 3431 
Q 2728 3278 2906 2969 
L 2906 3500 
L 3481 3500 
L 3481 434 
z
" transform="scale(0.015625)"/>
      <path id="DejaVuSans-43" d="M 4122 4306 
L 4122 3641 
Q 3803 3938 3442 4084 
Q 3081 4231 2675 4231 
Q 1875 4231 1450 3742 
Q 1025 3253 1025 2328 
Q 1025 1406 1450 917 
Q 1875 428 2675 428 
Q 3081 428 3442 575 
Q 3803 722 4122 1019 
L 4122 359 
Q 3791 134 3420 21 
Q 3050 -91 2638 -91 
Q 1578 -91 968 557 
Q 359 1206 359 2328 
Q 359 3453 968 4101 
Q 1578 4750 2638 4750 
Q 3056 4750 3426 4639 
Q 3797 4528 4122 4306 
z
" transform="scale(0.015625)"/>
      <path id="DejaVuSans-76" d="M 191 3500 
L 800 3500 
L 1894 563 
L 2988 3500 
L 3597 3500 
L 2284 0 
L 1503 0 
L 191 3500 
z
" transform="scale(0.015625)"/>
      <path id="DejaVuSans-53" d="M 3425 4513 
L 3425 3897 
Q 3066 4069 2747 4153 
Q 2428 4238 2131 4238 
Q 1616 4238 1336 4038 
Q 1056 3838 1056 3469 
Q 1056 3159 1242 3001 
Q 1428 2844 1947 2747 
L 2328 2669 
Q 3034 2534 3370 2195 
Q 3706 1856 3706 1288 
Q 3706 609 3251 259 
Q 2797 -91 1919 -91 
Q 1588 -91 1214 -16 
Q 841 59 441 206 
L 441 856 
Q 825 641 1194 531 
Q 1563 422 1919 422 
Q 2459 422 2753 634 
Q 3047 847 3047 1241 
Q 3047 1584 2836 1778 
Q 2625 1972 2144 2069 
L 1759 2144 
Q 1053 2284 737 2584 
Q 422 2884 422 3419 
Q 422 4038 858 4394 
Q 1294 4750 2059 4750 
Q 2388 4750 2728 4690 
Q 3069 4631 3425 4513 
z
" transform="scale(0.015625)"/>
      <path id="DejaVuSans-68" d="M 3513 2113 
L 3513 0 
L 2938 0 
L 2938 2094 
Q 2938 2591 2744 2837 
Q 2550 3084 2163 3084 
Q 1697 3084 1428 2787 
Q 1159 2491 1159 1978 
L 1159 0 
L 581 0 
L 581 4863 
L 1159 4863 
L 1159 2956 
Q 1366 3272 1645 3428 
Q 1925 3584 2291 3584 
Q 2894 3584 3203 3211 
Q 3513 2838 3513 2113 
z
" transform="scale(0.015625)"/>
     </defs>
     <use xlink:href="#DejaVuSans-4c"/>
     <use xlink:href="#DejaVuSans-65" x="53.962891"/>
     <use xlink:href="#DejaVuSans-61" x="115.486328"/>
     <use xlink:href="#DejaVuSans-72" x="176.765625"/>
     <use xlink:href="#DejaVuSans-6e" x="216.128906"/>
     <use xlink:href="#DejaVuSans-69" x="279.507812"/>
     <use xlink:href="#DejaVuSans-6e" x="307.291016"/>
     <use xlink:href="#DejaVuSans-67" x="370.669922"/>
     <use xlink:href="#DejaVuSans-20" x="434.146484"/>
     <use xlink:href="#DejaVuSans-43" x="465.933594"/>
     <use xlink:href="#DejaVuSans-75" x="535.757812"/>
     <use xlink:href="#DejaVuSans-72" x="599.136719"/>
     <use xlink:href="#DejaVuSans-76" x="640.25"/>
     <use xlink:href="#DejaVuSans-65" x="699.429688"/>
     <use xlink:href="#DejaVuSans-20" x="760.953125"/>
     <use xlink:href="#DejaVuSans-53" x="792.740234"/>
     <use xlink:href="#DejaVuSans-6d" x="856.216797"/>
     <use xlink:href="#DejaVuSans-6f" x="953.628906"/>
     <use xlink:href="#DejaVuSans-6f" x="1014.810547"/>
     <use xlink:href="#DejaVuSans-74" x="1075.992188"/>
     <use xlink:href="#DejaVuSans-68" x="1115.201172"/>
     <use xlink:href="#DejaVuSans-65" x="1178.580078"/>
     <use xlink:href="#DejaVuSans-64" x="1240.103516"/>
    </g>
   </g>
   <g id="legend_1">
    <g id="patch_7">
     <path d="M 282.936907 169.281162 
L 427.667532 169.281162 
Q 430.267532 169.281162 430.267532 166.681162 
L 430.267532 148.899599 
Q 430.267532 146.299599 427.667532 146.299599 
L 282.936907 146.299599 
Q 280.336907 146.299599 280.336907 148.899599 
L 280.336907 166.681162 
Q 280.336907 169.281162 282.936907 169.281162 
z
" style="fill: #ffffff; opacity: 0.8; stroke: #cccccc; stroke-linejoin: miter"/>
    </g>
    <g id="line2d_22">
     <path d="M 285.536907 156.827568 
L 298.536907 156.827568 
L 311.536907 156.827568 
" style="fill: none; stroke: #0000ff; stroke-width: 2; stroke-linecap: square"/>
    </g>
    <g id="text_14">
     <!-- Filter size: 1000 -->
     <g transform="translate(321.936907 161.377568)scale(0.13 -0.13)">
      <defs>
       <path id="DejaVuSans-46" d="M 628 4666 
L 3309 4666 
L 3309 4134 
L 1259 4134 
L 1259 2759 
L 3109 2759 
L 3109 2228 
L 1259 2228 
L 1259 0 
L 628 0 
L 628 4666 
z
" transform="scale(0.015625)"/>
       <path id="DejaVuSans-6c" d="M 603 4863 
L 1178 4863 
L 1178 0 
L 603 0 
L 603 4863 
z
" transform="scale(0.015625)"/>
       <path id="DejaVuSans-7a" d="M 353 3500 
L 3084 3500 
L 3084 2975 
L 922 459 
L 3084 459 
L 3084 0 
L 275 0 
L 275 525 
L 2438 3041 
L 353 3041 
L 353 3500 
z
" transform="scale(0.015625)"/>
       <path id="DejaVuSans-3a" d="M 750 794 
L 1409 794 
L 1409 0 
L 750 0 
L 750 794 
z
M 750 3309 
L 1409 3309 
L 1409 2516 
L 750 2516 
L 750 3309 
z
" transform="scale(0.015625)"/>
      </defs>
      <use xlink:href="#DejaVuSans-46"/>
      <use xlink:href="#DejaVuSans-69" x="50.269531"/>
      <use xlink:href="#DejaVuSans-6c" x="78.052734"/>
      <use xlink:href="#DejaVuSans-74" x="105.835938"/>
      <use xlink:href="#DejaVuSans-65" x="145.044922"/>
      <use xlink:href="#DejaVuSans-72" x="206.568359"/>
      <use xlink:href="#DejaVuSans-20" x="247.681641"/>
      <use xlink:href="#DejaVuSans-73" x="279.46875"/>
      <use xlink:href="#DejaVuSans-69" x="331.568359"/>
      <use xlink:href="#DejaVuSans-7a" x="359.351562"/>
      <use xlink:href="#DejaVuSans-65" x="411.841797"/>
      <use xlink:href="#DejaVuSans-3a" x="473.365234"/>
      <use xlink:href="#DejaVuSans-20" x="507.056641"/>
      <use xlink:href="#DejaVuSans-31" x="538.84375"/>
      <use xlink:href="#DejaVuSans-30" x="602.466797"/>
      <use xlink:href="#DejaVuSans-30" x="666.089844"/>
      <use xlink:href="#DejaVuSans-30" x="729.712891"/>
     </g>
    </g>
   </g>
  </g>
 </g>
 <defs>
  <clipPath id="pf3f2b1780a">
   <rect x="66.488906" y="25.053562" width="370.278626" height="150.727599"/>
  </clipPath>
 </defs>
</svg>
