<?xml version="1.0" encoding="utf-8" standalone="no"?>
<!DOCTYPE svg PUBLIC "-//W3C//DTD SVG 1.1//EN"
  "http://www.w3.org/Graphics/SVG/1.1/DTD/svg11.dtd">
<svg xmlns:xlink="http://www.w3.org/1999/xlink" width="460.8pt" height="345.6pt" viewBox="0 0 460.8 345.6" xmlns="http://www.w3.org/2000/svg" version="1.1">
 <metadata>
  <rdf:RDF xmlns:dc="http://purl.org/dc/elements/1.1/" xmlns:cc="http://creativecommons.org/ns#" xmlns:rdf="http://www.w3.org/1999/02/22-rdf-syntax-ns#">
   <cc:Work>
    <dc:type rdf:resource="http://purl.org/dc/dcmitype/StillImage"/>
    <dc:date>2022-06-03T22:37:17.092289</dc:date>
    <dc:format>image/svg+xml</dc:format>
    <dc:creator>
     <cc:Agent>
      <dc:title>Matplotlib v3.5.1, https://matplotlib.org/</dc:title>
     </cc:Agent>
    </dc:creator>
   </cc:Work>
  </rdf:RDF>
 </metadata>
 <defs>
  <style type="text/css">*{stroke-linejoin: round; stroke-linecap: butt}</style>
 </defs>
 <g id="figure_1">
  <g id="patch_1">
   <path d="M 0 345.6 
L 460.8 345.6 
L 460.8 0 
L 0 0 
z
" style="fill: #ffffff"/>
  </g>
  <g id="axes_1">
   <g id="patch_2">
    <path d="M 62.57 294.64 
L 440.858389 294.64 
L 440.858389 31.56 
L 62.57 31.56 
z
" style="fill: #ffffff"/>
   </g>
   <g id="matplotlib.axis_1">
    <g id="xtick_1">
     <g id="line2d_1">
      <path d="M 96.39956 294.64 
L 96.39956 31.56 
" clip-path="url(#p8eb1f80bb2)" style="fill: none; stroke: #b0b0b0; stroke-width: 0.8; stroke-linecap: square"/>
     </g>
     <g id="line2d_2">
      <defs>
       <path id="m64bd84799d" d="M 0 0 
L 0 3.5 
" style="stroke: #000000; stroke-width: 0.8"/>
      </defs>
      <g>
       <use xlink:href="#m64bd84799d" x="96.39956" y="294.64" style="stroke: #000000; stroke-width: 0.8"/>
      </g>
     </g>
     <g id="text_1">
      <!-- 0.2 -->
      <g transform="translate(86.062529 311.517969)scale(0.13 -0.13)">
       <defs>
        <path id="DejaVuSans-30" d="M 2034 4250 
Q 1547 4250 1301 3770 
Q 1056 3291 1056 2328 
Q 1056 1369 1301 889 
Q 1547 409 2034 409 
Q 2525 409 2770 889 
Q 3016 1369 3016 2328 
Q 3016 3291 2770 3770 
Q 2525 4250 2034 4250 
z
M 2034 4750 
Q 2819 4750 3233 4129 
Q 3647 3509 3647 2328 
Q 3647 1150 3233 529 
Q 2819 -91 2034 -91 
Q 1250 -91 836 529 
Q 422 1150 422 2328 
Q 422 3509 836 4129 
Q 1250 4750 2034 4750 
z
" transform="scale(0.015625)"/>
        <path id="DejaVuSans-2e" d="M 684 794 
L 1344 794 
L 1344 0 
L 684 0 
L 684 794 
z
" transform="scale(0.015625)"/>
        <path id="DejaVuSans-32" d="M 1228 531 
L 3431 531 
L 3431 0 
L 469 0 
L 469 531 
Q 828 903 1448 1529 
Q 2069 2156 2228 2338 
Q 2531 2678 2651 2914 
Q 2772 3150 2772 3378 
Q 2772 3750 2511 3984 
Q 2250 4219 1831 4219 
Q 1534 4219 1204 4116 
Q 875 4013 500 3803 
L 500 4441 
Q 881 4594 1212 4672 
Q 1544 4750 1819 4750 
Q 2544 4750 2975 4387 
Q 3406 4025 3406 3419 
Q 3406 3131 3298 2873 
Q 3191 2616 2906 2266 
Q 2828 2175 2409 1742 
Q 1991 1309 1228 531 
z
" transform="scale(0.015625)"/>
       </defs>
       <use xlink:href="#DejaVuSans-30"/>
       <use xlink:href="#DejaVuSans-2e" x="63.623047"/>
       <use xlink:href="#DejaVuSans-32" x="95.410156"/>
      </g>
     </g>
    </g>
    <g id="xtick_2">
     <g id="line2d_3">
      <path d="M 138.879822 294.64 
L 138.879822 31.56 
" clip-path="url(#p8eb1f80bb2)" style="fill: none; stroke: #b0b0b0; stroke-width: 0.8; stroke-linecap: square"/>
     </g>
     <g id="line2d_4">
      <g>
       <use xlink:href="#m64bd84799d" x="138.879822" y="294.64" style="stroke: #000000; stroke-width: 0.8"/>
      </g>
     </g>
     <g id="text_2">
      <!-- 0.4 -->
      <g transform="translate(128.542791 311.517969)scale(0.13 -0.13)">
       <defs>
        <path id="DejaVuSans-34" d="M 2419 4116 
L 825 1625 
L 2419 1625 
L 2419 4116 
z
M 2253 4666 
L 3047 4666 
L 3047 1625 
L 3713 1625 
L 3713 1100 
L 3047 1100 
L 3047 0 
L 2419 0 
L 2419 1100 
L 313 1100 
L 313 1709 
L 2253 4666 
z
" transform="scale(0.015625)"/>
       </defs>
       <use xlink:href="#DejaVuSans-30"/>
       <use xlink:href="#DejaVuSans-2e" x="63.623047"/>
       <use xlink:href="#DejaVuSans-34" x="95.410156"/>
      </g>
     </g>
    </g>
    <g id="xtick_3">
     <g id="line2d_5">
      <path d="M 181.360084 294.64 
L 181.360084 31.56 
" clip-path="url(#p8eb1f80bb2)" style="fill: none; stroke: #b0b0b0; stroke-width: 0.8; stroke-linecap: square"/>
     </g>
     <g id="line2d_6">
      <g>
       <use xlink:href="#m64bd84799d" x="181.360084" y="294.64" style="stroke: #000000; stroke-width: 0.8"/>
      </g>
     </g>
     <g id="text_3">
      <!-- 0.6 -->
      <g transform="translate(171.023053 311.517969)scale(0.13 -0.13)">
       <defs>
        <path id="DejaVuSans-36" d="M 2113 2584 
Q 1688 2584 1439 2293 
Q 1191 2003 1191 1497 
Q 1191 994 1439 701 
Q 1688 409 2113 409 
Q 2538 409 2786 701 
Q 3034 994 3034 1497 
Q 3034 2003 2786 2293 
Q 2538 2584 2113 2584 
z
M 3366 4563 
L 3366 3988 
Q 3128 4100 2886 4159 
Q 2644 4219 2406 4219 
Q 1781 4219 1451 3797 
Q 1122 3375 1075 2522 
Q 1259 2794 1537 2939 
Q 1816 3084 2150 3084 
Q 2853 3084 3261 2657 
Q 3669 2231 3669 1497 
Q 3669 778 3244 343 
Q 2819 -91 2113 -91 
Q 1303 -91 875 529 
Q 447 1150 447 2328 
Q 447 3434 972 4092 
Q 1497 4750 2381 4750 
Q 2619 4750 2861 4703 
Q 3103 4656 3366 4563 
z
" transform="scale(0.015625)"/>
       </defs>
       <use xlink:href="#DejaVuSans-30"/>
       <use xlink:href="#DejaVuSans-2e" x="63.623047"/>
       <use xlink:href="#DejaVuSans-36" x="95.410156"/>
      </g>
     </g>
    </g>
    <g id="xtick_4">
     <g id="line2d_7">
      <path d="M 223.840346 294.64 
L 223.840346 31.56 
" clip-path="url(#p8eb1f80bb2)" style="fill: none; stroke: #b0b0b0; stroke-width: 0.8; stroke-linecap: square"/>
     </g>
     <g id="line2d_8">
      <g>
       <use xlink:href="#m64bd84799d" x="223.840346" y="294.64" style="stroke: #000000; stroke-width: 0.8"/>
      </g>
     </g>
     <g id="text_4">
      <!-- 0.8 -->
      <g transform="translate(213.503315 311.517969)scale(0.13 -0.13)">
       <defs>
        <path id="DejaVuSans-38" d="M 2034 2216 
Q 1584 2216 1326 1975 
Q 1069 1734 1069 1313 
Q 1069 891 1326 650 
Q 1584 409 2034 409 
Q 2484 409 2743 651 
Q 3003 894 3003 1313 
Q 3003 1734 2745 1975 
Q 2488 2216 2034 2216 
z
M 1403 2484 
Q 997 2584 770 2862 
Q 544 3141 544 3541 
Q 544 4100 942 4425 
Q 1341 4750 2034 4750 
Q 2731 4750 3128 4425 
Q 3525 4100 3525 3541 
Q 3525 3141 3298 2862 
Q 3072 2584 2669 2484 
Q 3125 2378 3379 2068 
Q 3634 1759 3634 1313 
Q 3634 634 3220 271 
Q 2806 -91 2034 -91 
Q 1263 -91 848 271 
Q 434 634 434 1313 
Q 434 1759 690 2068 
Q 947 2378 1403 2484 
z
M 1172 3481 
Q 1172 3119 1398 2916 
Q 1625 2713 2034 2713 
Q 2441 2713 2670 2916 
Q 2900 3119 2900 3481 
Q 2900 3844 2670 4047 
Q 2441 4250 2034 4250 
Q 1625 4250 1398 4047 
Q 1172 3844 1172 3481 
z
" transform="scale(0.015625)"/>
       </defs>
       <use xlink:href="#DejaVuSans-30"/>
       <use xlink:href="#DejaVuSans-2e" x="63.623047"/>
       <use xlink:href="#DejaVuSans-38" x="95.410156"/>
      </g>
     </g>
    </g>
    <g id="xtick_5">
     <g id="line2d_9">
      <path d="M 266.320608 294.64 
L 266.320608 31.56 
" clip-path="url(#p8eb1f80bb2)" style="fill: none; stroke: #b0b0b0; stroke-width: 0.8; stroke-linecap: square"/>
     </g>
     <g id="line2d_10">
      <g>
       <use xlink:href="#m64bd84799d" x="266.320608" y="294.64" style="stroke: #000000; stroke-width: 0.8"/>
      </g>
     </g>
     <g id="text_5">
      <!-- 1.0 -->
      <g transform="translate(255.983576 311.517969)scale(0.13 -0.13)">
       <defs>
        <path id="DejaVuSans-31" d="M 794 531 
L 1825 531 
L 1825 4091 
L 703 3866 
L 703 4441 
L 1819 4666 
L 2450 4666 
L 2450 531 
L 3481 531 
L 3481 0 
L 794 0 
L 794 531 
z
" transform="scale(0.015625)"/>
       </defs>
       <use xlink:href="#DejaVuSans-31"/>
       <use xlink:href="#DejaVuSans-2e" x="63.623047"/>
       <use xlink:href="#DejaVuSans-30" x="95.410156"/>
      </g>
     </g>
    </g>
    <g id="xtick_6">
     <g id="line2d_11">
      <path d="M 308.80087 294.64 
L 308.80087 31.56 
" clip-path="url(#p8eb1f80bb2)" style="fill: none; stroke: #b0b0b0; stroke-width: 0.8; stroke-linecap: square"/>
     </g>
     <g id="line2d_12">
      <g>
       <use xlink:href="#m64bd84799d" x="308.80087" y="294.64" style="stroke: #000000; stroke-width: 0.8"/>
      </g>
     </g>
     <g id="text_6">
      <!-- 1.2 -->
      <g transform="translate(298.463838 311.517969)scale(0.13 -0.13)">
       <use xlink:href="#DejaVuSans-31"/>
       <use xlink:href="#DejaVuSans-2e" x="63.623047"/>
       <use xlink:href="#DejaVuSans-32" x="95.410156"/>
      </g>
     </g>
    </g>
    <g id="xtick_7">
     <g id="line2d_13">
      <path d="M 351.281131 294.64 
L 351.281131 31.56 
" clip-path="url(#p8eb1f80bb2)" style="fill: none; stroke: #b0b0b0; stroke-width: 0.8; stroke-linecap: square"/>
     </g>
     <g id="line2d_14">
      <g>
       <use xlink:href="#m64bd84799d" x="351.281131" y="294.64" style="stroke: #000000; stroke-width: 0.8"/>
      </g>
     </g>
     <g id="text_7">
      <!-- 1.4 -->
      <g transform="translate(340.9441 311.517969)scale(0.13 -0.13)">
       <use xlink:href="#DejaVuSans-31"/>
       <use xlink:href="#DejaVuSans-2e" x="63.623047"/>
       <use xlink:href="#DejaVuSans-34" x="95.410156"/>
      </g>
     </g>
    </g>
    <g id="xtick_8">
     <g id="line2d_15">
      <path d="M 393.761393 294.64 
L 393.761393 31.56 
" clip-path="url(#p8eb1f80bb2)" style="fill: none; stroke: #b0b0b0; stroke-width: 0.8; stroke-linecap: square"/>
     </g>
     <g id="line2d_16">
      <g>
       <use xlink:href="#m64bd84799d" x="393.761393" y="294.64" style="stroke: #000000; stroke-width: 0.8"/>
      </g>
     </g>
     <g id="text_8">
      <!-- 1.6 -->
      <g transform="translate(383.424362 311.517969)scale(0.13 -0.13)">
       <use xlink:href="#DejaVuSans-31"/>
       <use xlink:href="#DejaVuSans-2e" x="63.623047"/>
       <use xlink:href="#DejaVuSans-36" x="95.410156"/>
      </g>
     </g>
    </g>
    <g id="xtick_9">
     <g id="line2d_17">
      <path d="M 436.241655 294.64 
L 436.241655 31.56 
" clip-path="url(#p8eb1f80bb2)" style="fill: none; stroke: #b0b0b0; stroke-width: 0.8; stroke-linecap: square"/>
     </g>
     <g id="line2d_18">
      <g>
       <use xlink:href="#m64bd84799d" x="436.241655" y="294.64" style="stroke: #000000; stroke-width: 0.8"/>
      </g>
     </g>
     <g id="text_9">
      <!-- 1.8 -->
      <g transform="translate(425.904624 311.517969)scale(0.13 -0.13)">
       <use xlink:href="#DejaVuSans-31"/>
       <use xlink:href="#DejaVuSans-2e" x="63.623047"/>
       <use xlink:href="#DejaVuSans-38" x="95.410156"/>
      </g>
     </g>
    </g>
    <g id="text_10">
     <!-- Number of Timesteps -->
     <g transform="translate(181.855444 328.099531)scale(0.13 -0.13)">
      <defs>
       <path id="DejaVuSans-4e" d="M 628 4666 
L 1478 4666 
L 3547 763 
L 3547 4666 
L 4159 4666 
L 4159 0 
L 3309 0 
L 1241 3903 
L 1241 0 
L 628 0 
L 628 4666 
z
" transform="scale(0.015625)"/>
       <path id="DejaVuSans-75" d="M 544 1381 
L 544 3500 
L 1119 3500 
L 1119 1403 
Q 1119 906 1312 657 
Q 1506 409 1894 409 
Q 2359 409 2629 706 
Q 2900 1003 2900 1516 
L 2900 3500 
L 3475 3500 
L 3475 0 
L 2900 0 
L 2900 538 
Q 2691 219 2414 64 
Q 2138 -91 1772 -91 
Q 1169 -91 856 284 
Q 544 659 544 1381 
z
M 1991 3584 
L 1991 3584 
z
" transform="scale(0.015625)"/>
       <path id="DejaVuSans-6d" d="M 3328 2828 
Q 3544 3216 3844 3400 
Q 4144 3584 4550 3584 
Q 5097 3584 5394 3201 
Q 5691 2819 5691 2113 
L 5691 0 
L 5113 0 
L 5113 2094 
Q 5113 2597 4934 2840 
Q 4756 3084 4391 3084 
Q 3944 3084 3684 2787 
Q 3425 2491 3425 1978 
L 3425 0 
L 2847 0 
L 2847 2094 
Q 2847 2600 2669 2842 
Q 2491 3084 2119 3084 
Q 1678 3084 1418 2786 
Q 1159 2488 1159 1978 
L 1159 0 
L 581 0 
L 581 3500 
L 1159 3500 
L 1159 2956 
Q 1356 3278 1631 3431 
Q 1906 3584 2284 3584 
Q 2666 3584 2933 3390 
Q 3200 3197 3328 2828 
z
" transform="scale(0.015625)"/>
       <path id="DejaVuSans-62" d="M 3116 1747 
Q 3116 2381 2855 2742 
Q 2594 3103 2138 3103 
Q 1681 3103 1420 2742 
Q 1159 2381 1159 1747 
Q 1159 1113 1420 752 
Q 1681 391 2138 391 
Q 2594 391 2855 752 
Q 3116 1113 3116 1747 
z
M 1159 2969 
Q 1341 3281 1617 3432 
Q 1894 3584 2278 3584 
Q 2916 3584 3314 3078 
Q 3713 2572 3713 1747 
Q 3713 922 3314 415 
Q 2916 -91 2278 -91 
Q 1894 -91 1617 61 
Q 1341 213 1159 525 
L 1159 0 
L 581 0 
L 581 4863 
L 1159 4863 
L 1159 2969 
z
" transform="scale(0.015625)"/>
       <path id="DejaVuSans-65" d="M 3597 1894 
L 3597 1613 
L 953 1613 
Q 991 1019 1311 708 
Q 1631 397 2203 397 
Q 2534 397 2845 478 
Q 3156 559 3463 722 
L 3463 178 
Q 3153 47 2828 -22 
Q 2503 -91 2169 -91 
Q 1331 -91 842 396 
Q 353 884 353 1716 
Q 353 2575 817 3079 
Q 1281 3584 2069 3584 
Q 2775 3584 3186 3129 
Q 3597 2675 3597 1894 
z
M 3022 2063 
Q 3016 2534 2758 2815 
Q 2500 3097 2075 3097 
Q 1594 3097 1305 2825 
Q 1016 2553 972 2059 
L 3022 2063 
z
" transform="scale(0.015625)"/>
       <path id="DejaVuSans-72" d="M 2631 2963 
Q 2534 3019 2420 3045 
Q 2306 3072 2169 3072 
Q 1681 3072 1420 2755 
Q 1159 2438 1159 1844 
L 1159 0 
L 581 0 
L 581 3500 
L 1159 3500 
L 1159 2956 
Q 1341 3275 1631 3429 
Q 1922 3584 2338 3584 
Q 2397 3584 2469 3576 
Q 2541 3569 2628 3553 
L 2631 2963 
z
" transform="scale(0.015625)"/>
       <path id="DejaVuSans-20" transform="scale(0.015625)"/>
       <path id="DejaVuSans-6f" d="M 1959 3097 
Q 1497 3097 1228 2736 
Q 959 2375 959 1747 
Q 959 1119 1226 758 
Q 1494 397 1959 397 
Q 2419 397 2687 759 
Q 2956 1122 2956 1747 
Q 2956 2369 2687 2733 
Q 2419 3097 1959 3097 
z
M 1959 3584 
Q 2709 3584 3137 3096 
Q 3566 2609 3566 1747 
Q 3566 888 3137 398 
Q 2709 -91 1959 -91 
Q 1206 -91 779 398 
Q 353 888 353 1747 
Q 353 2609 779 3096 
Q 1206 3584 1959 3584 
z
" transform="scale(0.015625)"/>
       <path id="DejaVuSans-66" d="M 2375 4863 
L 2375 4384 
L 1825 4384 
Q 1516 4384 1395 4259 
Q 1275 4134 1275 3809 
L 1275 3500 
L 2222 3500 
L 2222 3053 
L 1275 3053 
L 1275 0 
L 697 0 
L 697 3053 
L 147 3053 
L 147 3500 
L 697 3500 
L 697 3744 
Q 697 4328 969 4595 
Q 1241 4863 1831 4863 
L 2375 4863 
z
" transform="scale(0.015625)"/>
       <path id="DejaVuSans-54" d="M -19 4666 
L 3928 4666 
L 3928 4134 
L 2272 4134 
L 2272 0 
L 1638 0 
L 1638 4134 
L -19 4134 
L -19 4666 
z
" transform="scale(0.015625)"/>
       <path id="DejaVuSans-69" d="M 603 3500 
L 1178 3500 
L 1178 0 
L 603 0 
L 603 3500 
z
M 603 4863 
L 1178 4863 
L 1178 4134 
L 603 4134 
L 603 4863 
z
" transform="scale(0.015625)"/>
       <path id="DejaVuSans-73" d="M 2834 3397 
L 2834 2853 
Q 2591 2978 2328 3040 
Q 2066 3103 1784 3103 
Q 1356 3103 1142 2972 
Q 928 2841 928 2578 
Q 928 2378 1081 2264 
Q 1234 2150 1697 2047 
L 1894 2003 
Q 2506 1872 2764 1633 
Q 3022 1394 3022 966 
Q 3022 478 2636 193 
Q 2250 -91 1575 -91 
Q 1294 -91 989 -36 
Q 684 19 347 128 
L 347 722 
Q 666 556 975 473 
Q 1284 391 1588 391 
Q 1994 391 2212 530 
Q 2431 669 2431 922 
Q 2431 1156 2273 1281 
Q 2116 1406 1581 1522 
L 1381 1569 
Q 847 1681 609 1914 
Q 372 2147 372 2553 
Q 372 3047 722 3315 
Q 1072 3584 1716 3584 
Q 2034 3584 2315 3537 
Q 2597 3491 2834 3397 
z
" transform="scale(0.015625)"/>
       <path id="DejaVuSans-74" d="M 1172 4494 
L 1172 3500 
L 2356 3500 
L 2356 3053 
L 1172 3053 
L 1172 1153 
Q 1172 725 1289 603 
Q 1406 481 1766 481 
L 2356 481 
L 2356 0 
L 1766 0 
Q 1100 0 847 248 
Q 594 497 594 1153 
L 594 3053 
L 172 3053 
L 172 3500 
L 594 3500 
L 594 4494 
L 1172 4494 
z
" transform="scale(0.015625)"/>
       <path id="DejaVuSans-70" d="M 1159 525 
L 1159 -1331 
L 581 -1331 
L 581 3500 
L 1159 3500 
L 1159 2969 
Q 1341 3281 1617 3432 
Q 1894 3584 2278 3584 
Q 2916 3584 3314 3078 
Q 3713 2572 3713 1747 
Q 3713 922 3314 415 
Q 2916 -91 2278 -91 
Q 1894 -91 1617 61 
Q 1341 213 1159 525 
z
M 3116 1747 
Q 3116 2381 2855 2742 
Q 2594 3103 2138 3103 
Q 1681 3103 1420 2742 
Q 1159 2381 1159 1747 
Q 1159 1113 1420 752 
Q 1681 391 2138 391 
Q 2594 391 2855 752 
Q 3116 1113 3116 1747 
z
" transform="scale(0.015625)"/>
      </defs>
      <use xlink:href="#DejaVuSans-4e"/>
      <use xlink:href="#DejaVuSans-75" x="74.804688"/>
      <use xlink:href="#DejaVuSans-6d" x="138.183594"/>
      <use xlink:href="#DejaVuSans-62" x="235.595703"/>
      <use xlink:href="#DejaVuSans-65" x="299.072266"/>
      <use xlink:href="#DejaVuSans-72" x="360.595703"/>
      <use xlink:href="#DejaVuSans-20" x="401.708984"/>
      <use xlink:href="#DejaVuSans-6f" x="433.496094"/>
      <use xlink:href="#DejaVuSans-66" x="494.677734"/>
      <use xlink:href="#DejaVuSans-20" x="529.882812"/>
      <use xlink:href="#DejaVuSans-54" x="561.669922"/>
      <use xlink:href="#DejaVuSans-69" x="619.628906"/>
      <use xlink:href="#DejaVuSans-6d" x="647.412109"/>
      <use xlink:href="#DejaVuSans-65" x="744.824219"/>
      <use xlink:href="#DejaVuSans-73" x="806.347656"/>
      <use xlink:href="#DejaVuSans-74" x="858.447266"/>
      <use xlink:href="#DejaVuSans-65" x="897.65625"/>
      <use xlink:href="#DejaVuSans-70" x="959.179688"/>
      <use xlink:href="#DejaVuSans-73" x="1022.65625"/>
     </g>
    </g>
    <g id="text_11">
     <!-- 1e6 -->
     <g transform="translate(416.316826 327.099531)scale(0.13 -0.13)">
      <use xlink:href="#DejaVuSans-31"/>
      <use xlink:href="#DejaVuSans-65" x="63.623047"/>
      <use xlink:href="#DejaVuSans-36" x="125.146484"/>
     </g>
    </g>
   </g>
   <g id="matplotlib.axis_2">
    <g id="ytick_1">
     <g id="line2d_19">
      <path d="M 62.57 292.983189 
L 440.858389 292.983189 
" clip-path="url(#p8eb1f80bb2)" style="fill: none; stroke: #b0b0b0; stroke-width: 0.8; stroke-linecap: square"/>
     </g>
     <g id="line2d_20">
      <defs>
       <path id="mc349936480" d="M 0 0 
L -3.5 0 
" style="stroke: #000000; stroke-width: 0.8"/>
      </defs>
      <g>
       <use xlink:href="#mc349936480" x="62.57" y="292.983189" style="stroke: #000000; stroke-width: 0.8"/>
      </g>
     </g>
     <g id="text_12">
      <!-- 0 -->
      <g transform="translate(47.29875 297.922173)scale(0.13 -0.13)">
       <use xlink:href="#DejaVuSans-30"/>
      </g>
     </g>
    </g>
    <g id="ytick_2">
     <g id="line2d_21">
      <path d="M 62.57 262.983897 
L 440.858389 262.983897 
" clip-path="url(#p8eb1f80bb2)" style="fill: none; stroke: #b0b0b0; stroke-width: 0.8; stroke-linecap: square"/>
     </g>
     <g id="line2d_22">
      <g>
       <use xlink:href="#mc349936480" x="62.57" y="262.983897" style="stroke: #000000; stroke-width: 0.8"/>
      </g>
     </g>
     <g id="text_13">
      <!-- 20 -->
      <g transform="translate(39.0275 267.922881)scale(0.13 -0.13)">
       <use xlink:href="#DejaVuSans-32"/>
       <use xlink:href="#DejaVuSans-30" x="63.623047"/>
      </g>
     </g>
    </g>
    <g id="ytick_3">
     <g id="line2d_23">
      <path d="M 62.57 232.984605 
L 440.858389 232.984605 
" clip-path="url(#p8eb1f80bb2)" style="fill: none; stroke: #b0b0b0; stroke-width: 0.8; stroke-linecap: square"/>
     </g>
     <g id="line2d_24">
      <g>
       <use xlink:href="#mc349936480" x="62.57" y="232.984605" style="stroke: #000000; stroke-width: 0.8"/>
      </g>
     </g>
     <g id="text_14">
      <!-- 40 -->
      <g transform="translate(39.0275 237.923589)scale(0.13 -0.13)">
       <use xlink:href="#DejaVuSans-34"/>
       <use xlink:href="#DejaVuSans-30" x="63.623047"/>
      </g>
     </g>
    </g>
    <g id="ytick_4">
     <g id="line2d_25">
      <path d="M 62.57 202.985313 
L 440.858389 202.985313 
" clip-path="url(#p8eb1f80bb2)" style="fill: none; stroke: #b0b0b0; stroke-width: 0.8; stroke-linecap: square"/>
     </g>
     <g id="line2d_26">
      <g>
       <use xlink:href="#mc349936480" x="62.57" y="202.985313" style="stroke: #000000; stroke-width: 0.8"/>
      </g>
     </g>
     <g id="text_15">
      <!-- 60 -->
      <g transform="translate(39.0275 207.924297)scale(0.13 -0.13)">
       <use xlink:href="#DejaVuSans-36"/>
       <use xlink:href="#DejaVuSans-30" x="63.623047"/>
      </g>
     </g>
    </g>
    <g id="ytick_5">
     <g id="line2d_27">
      <path d="M 62.57 172.986021 
L 440.858389 172.986021 
" clip-path="url(#p8eb1f80bb2)" style="fill: none; stroke: #b0b0b0; stroke-width: 0.8; stroke-linecap: square"/>
     </g>
     <g id="line2d_28">
      <g>
       <use xlink:href="#mc349936480" x="62.57" y="172.986021" style="stroke: #000000; stroke-width: 0.8"/>
      </g>
     </g>
     <g id="text_16">
      <!-- 80 -->
      <g transform="translate(39.0275 177.925005)scale(0.13 -0.13)">
       <use xlink:href="#DejaVuSans-38"/>
       <use xlink:href="#DejaVuSans-30" x="63.623047"/>
      </g>
     </g>
    </g>
    <g id="ytick_6">
     <g id="line2d_29">
      <path d="M 62.57 142.986729 
L 440.858389 142.986729 
" clip-path="url(#p8eb1f80bb2)" style="fill: none; stroke: #b0b0b0; stroke-width: 0.8; stroke-linecap: square"/>
     </g>
     <g id="line2d_30">
      <g>
       <use xlink:href="#mc349936480" x="62.57" y="142.986729" style="stroke: #000000; stroke-width: 0.8"/>
      </g>
     </g>
     <g id="text_17">
      <!-- 100 -->
      <g transform="translate(30.75625 147.925713)scale(0.13 -0.13)">
       <use xlink:href="#DejaVuSans-31"/>
       <use xlink:href="#DejaVuSans-30" x="63.623047"/>
       <use xlink:href="#DejaVuSans-30" x="127.246094"/>
      </g>
     </g>
    </g>
    <g id="ytick_7">
     <g id="line2d_31">
      <path d="M 62.57 112.987436 
L 440.858389 112.987436 
" clip-path="url(#p8eb1f80bb2)" style="fill: none; stroke: #b0b0b0; stroke-width: 0.8; stroke-linecap: square"/>
     </g>
     <g id="line2d_32">
      <g>
       <use xlink:href="#mc349936480" x="62.57" y="112.987436" style="stroke: #000000; stroke-width: 0.8"/>
      </g>
     </g>
     <g id="text_18">
      <!-- 120 -->
      <g transform="translate(30.75625 117.926421)scale(0.13 -0.13)">
       <use xlink:href="#DejaVuSans-31"/>
       <use xlink:href="#DejaVuSans-32" x="63.623047"/>
       <use xlink:href="#DejaVuSans-30" x="127.246094"/>
      </g>
     </g>
    </g>
    <g id="ytick_8">
     <g id="line2d_33">
      <path d="M 62.57 82.988144 
L 440.858389 82.988144 
" clip-path="url(#p8eb1f80bb2)" style="fill: none; stroke: #b0b0b0; stroke-width: 0.8; stroke-linecap: square"/>
     </g>
     <g id="line2d_34">
      <g>
       <use xlink:href="#mc349936480" x="62.57" y="82.988144" style="stroke: #000000; stroke-width: 0.8"/>
      </g>
     </g>
     <g id="text_19">
      <!-- 140 -->
      <g transform="translate(30.75625 87.927129)scale(0.13 -0.13)">
       <use xlink:href="#DejaVuSans-31"/>
       <use xlink:href="#DejaVuSans-34" x="63.623047"/>
       <use xlink:href="#DejaVuSans-30" x="127.246094"/>
      </g>
     </g>
    </g>
    <g id="ytick_9">
     <g id="line2d_35">
      <path d="M 62.57 52.988852 
L 440.858389 52.988852 
" clip-path="url(#p8eb1f80bb2)" style="fill: none; stroke: #b0b0b0; stroke-width: 0.8; stroke-linecap: square"/>
     </g>
     <g id="line2d_36">
      <g>
       <use xlink:href="#mc349936480" x="62.57" y="52.988852" style="stroke: #000000; stroke-width: 0.8"/>
      </g>
     </g>
     <g id="text_20">
      <!-- 160 -->
      <g transform="translate(30.75625 57.927837)scale(0.13 -0.13)">
       <use xlink:href="#DejaVuSans-31"/>
       <use xlink:href="#DejaVuSans-36" x="63.623047"/>
       <use xlink:href="#DejaVuSans-30" x="127.246094"/>
      </g>
     </g>
    </g>
    <g id="text_21">
     <!-- Rewards -->
     <g transform="translate(24.052656 190.693516)rotate(-90)scale(0.13 -0.13)">
      <defs>
       <path id="DejaVuSans-52" d="M 2841 2188 
Q 3044 2119 3236 1894 
Q 3428 1669 3622 1275 
L 4263 0 
L 3584 0 
L 2988 1197 
Q 2756 1666 2539 1819 
Q 2322 1972 1947 1972 
L 1259 1972 
L 1259 0 
L 628 0 
L 628 4666 
L 2053 4666 
Q 2853 4666 3247 4331 
Q 3641 3997 3641 3322 
Q 3641 2881 3436 2590 
Q 3231 2300 2841 2188 
z
M 1259 4147 
L 1259 2491 
L 2053 2491 
Q 2509 2491 2742 2702 
Q 2975 2913 2975 3322 
Q 2975 3731 2742 3939 
Q 2509 4147 2053 4147 
L 1259 4147 
z
" transform="scale(0.015625)"/>
       <path id="DejaVuSans-77" d="M 269 3500 
L 844 3500 
L 1563 769 
L 2278 3500 
L 2956 3500 
L 3675 769 
L 4391 3500 
L 4966 3500 
L 4050 0 
L 3372 0 
L 2619 2869 
L 1863 0 
L 1184 0 
L 269 3500 
z
" transform="scale(0.015625)"/>
       <path id="DejaVuSans-61" d="M 2194 1759 
Q 1497 1759 1228 1600 
Q 959 1441 959 1056 
Q 959 750 1161 570 
Q 1363 391 1709 391 
Q 2188 391 2477 730 
Q 2766 1069 2766 1631 
L 2766 1759 
L 2194 1759 
z
M 3341 1997 
L 3341 0 
L 2766 0 
L 2766 531 
Q 2569 213 2275 61 
Q 1981 -91 1556 -91 
Q 1019 -91 701 211 
Q 384 513 384 1019 
Q 384 1609 779 1909 
Q 1175 2209 1959 2209 
L 2766 2209 
L 2766 2266 
Q 2766 2663 2505 2880 
Q 2244 3097 1772 3097 
Q 1472 3097 1187 3025 
Q 903 2953 641 2809 
L 641 3341 
Q 956 3463 1253 3523 
Q 1550 3584 1831 3584 
Q 2591 3584 2966 3190 
Q 3341 2797 3341 1997 
z
" transform="scale(0.015625)"/>
       <path id="DejaVuSans-64" d="M 2906 2969 
L 2906 4863 
L 3481 4863 
L 3481 0 
L 2906 0 
L 2906 525 
Q 2725 213 2448 61 
Q 2172 -91 1784 -91 
Q 1150 -91 751 415 
Q 353 922 353 1747 
Q 353 2572 751 3078 
Q 1150 3584 1784 3584 
Q 2172 3584 2448 3432 
Q 2725 3281 2906 2969 
z
M 947 1747 
Q 947 1113 1208 752 
Q 1469 391 1925 391 
Q 2381 391 2643 752 
Q 2906 1113 2906 1747 
Q 2906 2381 2643 2742 
Q 2381 3103 1925 3103 
Q 1469 3103 1208 2742 
Q 947 2381 947 1747 
z
" transform="scale(0.015625)"/>
      </defs>
      <use xlink:href="#DejaVuSans-52"/>
      <use xlink:href="#DejaVuSans-65" x="64.982422"/>
      <use xlink:href="#DejaVuSans-77" x="126.505859"/>
      <use xlink:href="#DejaVuSans-61" x="208.292969"/>
      <use xlink:href="#DejaVuSans-72" x="269.572266"/>
      <use xlink:href="#DejaVuSans-64" x="308.935547"/>
      <use xlink:href="#DejaVuSans-73" x="372.412109"/>
     </g>
    </g>
   </g>
   <g id="line2d_37">
    <path d="M 79.764927 278.460788 
L 79.957575 282.681818 
L 80.254299 280.39347 
L 80.563131 275.26451 
L 80.578424 277.761906 
L 80.653614 276.057065 
L 80.688023 275.811505 
L 80.708201 276.53507 
L 80.938444 273.962507 
L 81.063124 277.167446 
L 81.078841 276.922149 
L 81.267029 277.248237 
L 81.656785 271.585343 
L 81.682486 273.294804 
L 81.757676 271.061635 
L 81.894675 269.989805 
L 81.933757 270.546604 
L 83.831562 242.327377 
L 83.897194 234.354505 
L 84.026971 232.87648 
L 84.218982 233.365406 
L 84.284402 232.745089 
L 84.388478 232.948659 
L 84.49914 232.892469 
L 84.512946 235.848197 
L 84.817529 233.857372 
L 85.00869 233.308622 
L 85.023558 233.576587 
L 85.154398 235.728385 
L 85.259324 235.853002 
L 85.385065 236.417204 
L 85.495089 235.077205 
L 85.687312 235.684156 
L 86.123372 242.917254 
L 86.137178 245.164137 
L 86.204722 243.330202 
L 86.435177 245.270481 
L 86.597452 249.420619 
L 86.649703 248.811161 
L 86.859768 249.773442 
L 86.909682 253.960149 
L 87.049654 253.891751 
L 87.240603 253.418436 
L 87.303474 253.573586 
L 87.490812 250.297435 
L 87.675814 252.957241 
L 88.054313 246.944226 
L 88.344028 244.876998 
L 88.475929 248.106775 
L 88.58298 246.813644 
L 88.600609 248.078487 
L 88.791345 246.101458 
L 88.979958 247.31197 
L 89.01734 245.837194 
L 89.133524 249.135645 
L 89.373962 223.916478 
L 89.458923 221.462125 
L 89.510536 222.725313 
L 89.70106 221.449548 
L 89.72315 221.99658 
L 89.739505 222.013348 
L 89.848891 221.908442 
L 89.862273 222.183397 
L 89.981855 221.195486 
L 89.994386 223.62392 
L 90.187034 221.388376 
L 90.285588 217.384055 
L 90.473564 219.026399 
L 90.601854 216.361012 
L 90.646246 218.111762 
L 90.695523 216.284599 
L 90.84123 215.876453 
L 90.90049 215.162382 
L 90.914296 216.575641 
L 91.090589 214.479244 
L 91.134981 214.52094 
L 91.194029 214.742639 
L 91.303628 214.161713 
L 91.446149 218.906364 
L 91.57274 220.804588 
L 91.674056 225.161743 
L 91.924265 223.502361 
L 92.115213 224.350599 
L 92.30595 220.769767 
L 92.352678 221.135637 
L 92.486491 221.524857 
L 92.582496 224.330552 
L 92.685086 223.864787 
L 92.766648 224.225453 
L 93.102667 226.59446 
L 93.119659 226.571107 
L 93.14897 226.567351 
L 93.292341 225.242434 
L 93.402153 224.803551 
L 93.418508 224.825332 
L 93.520885 223.308749 
L 93.537452 225.02196 
L 93.722029 224.704541 
L 93.867099 221.817965 
L 93.897473 223.296217 
L 93.911916 224.421774 
L 94.016417 223.031197 
L 94.031923 224.245522 
L 94.342878 222.470029 
L 94.498568 218.650512 
L 94.88174 215.372384 
L 95.33373 209.461341 
L 95.351784 211.411385 
L 95.53891 208.802035 
L 95.572257 213.635881 
L 95.793579 212.133585 
L 95.983254 212.733095 
L 96.174202 210.651452 
L 96.430996 212.901679 
L 96.608775 211.038882 
L 96.885322 216.225031 
L 96.998744 215.386927 
L 97.09836 214.310398 
L 97.248741 216.216283 
L 97.263821 215.840733 
L 97.478984 194.116654 
L 97.633824 191.826909 
L 97.823286 191.771431 
L 97.923327 197.505899 
L 98.111939 195.884452 
L 98.300764 195.287712 
L 98.417797 193.041377 
L 98.531007 195.311079 
L 98.645916 195.283351 
L 98.786738 196.365384 
L 98.90632 194.831458 
L 98.998503 195.290215 
L 99.012521 196.682738 
L 99.2194 196.412842 
L 99.678187 186.608003 
L 99.844497 186.01066 
L 99.861489 186.866651 
L 99.990417 185.834134 
L 100.173294 190.417092 
L 100.340879 192.520314 
L 100.403962 192.458635 
L 100.727662 187.497293 
L 100.743167 188.779683 
L 100.934116 187.288576 
L 101.124852 184.740917 
L 101.164571 185.599496 
L 101.286702 186.377064 
L 101.412656 184.525752 
L 101.54307 185.461802 
L 101.731258 184.214141 
L 101.745913 185.102884 
L 101.765242 185.073445 
L 101.967873 184.179012 
L 102.158184 183.081389 
L 102.345947 183.111757 
L 102.421774 182.432185 
L 102.466591 184.597854 
L 102.656903 184.587363 
L 102.775847 184.392456 
L 102.812593 187.048716 
L 103.192154 183.547594 
L 103.466364 182.668671 
L 103.483781 182.820655 
L 103.755655 181.744158 
L 103.88437 183.565296 
L 103.994819 182.791939 
L 104.18513 183.22158 
L 104.28687 182.442327 
L 104.355264 183.621838 
L 104.464225 182.679007 
L 104.480793 183.921811 
L 104.671742 183.468463 
L 104.731426 184.792666 
L 105.010734 185.392781 
L 105.092084 183.076483 
L 105.281333 184.18115 
L 105.315742 189.531683 
L 105.598873 191.461059 
L 106.128815 186.404612 
L 106.141771 184.937511 
L 106.281319 185.38738 
L 106.302984 187.793168 
L 106.492233 187.585712 
L 106.524306 187.996617 
L 106.601832 187.393956 
L 106.631356 190.781312 
L 106.853953 187.273144 
L 106.873706 188.004555 
L 106.978632 189.48496 
L 106.993075 192.288495 
L 107.108409 190.84935 
L 107.123702 191.711535 
L 107.224593 191.739744 
L 107.3429 192.535171 
L 107.39855 190.704644 
L 107.429773 191.673489 
L 107.445065 193.251542 
L 107.599269 191.99331 
L 107.776836 189.088009 
L 107.812307 189.160806 
L 107.915747 189.728065 
L 107.928916 192.166998 
L 108.119227 191.627117 
L 108.342886 187.323662 
L 108.590333 184.493671 
L 108.776822 184.195083 
L 109.411477 176.321324 
L 109.442487 177.712183 
L 109.649366 175.138309 
L 109.746009 175.189267 
L 109.847112 175.351692 
L 110.322466 180.974256 
L 110.34137 183.4912 
L 110.528708 184.208456 
L 110.596039 188.857809 
L 110.723904 189.218385 
L 110.858142 187.30431 
L 111.03932 186.273313 
L 111.069906 189.068522 
L 111.177806 189.579924 
L 111.30822 188.169212 
L 111.400403 185.245584 
L 111.451804 185.360758 
L 111.630433 184.109676 
L 111.966877 181.414531 
L 111.981957 182.980367 
L 112.268062 181.496559 
L 112.406548 184.834282 
L 112.721539 182.729424 
L 112.764656 182.858282 
L 112.867671 183.329398 
L 112.883389 183.209069 
L 113.07455 183.267118 
L 113.264861 181.55476 
L 113.30097 183.260123 
L 113.419065 182.608014 
L 113.576454 180.784691 
L 113.591535 180.850749 
L 113.778235 177.990986 
L 113.964936 181.358676 
L 114.334514 175.87201 
L 114.350657 177.388791 
L 114.458769 181.149939 
L 114.53226 179.583644 
L 115.122736 172.611938 
L 115.31241 172.444458 
L 115.336624 174.237267 
L 115.50697 173.924877 
L 115.724468 175.23714 
L 115.744647 177.66796 
L 116.020131 174.095529 
L 116.268641 172.452629 
L 116.58172 174.825311 
L 116.774793 171.290766 
L 116.967016 174.932582 
L 117.113148 175.848423 
L 117.306646 176.08835 
L 117.554731 172.649411 
L 117.794532 172.068244 
L 117.98548 170.589534 
L 117.999499 170.632867 
L 118.120355 172.552979 
L 118.317464 171.544898 
L 118.338067 172.058955 
L 118.354209 172.021804 
L 118.459985 170.144399 
L 118.474428 170.527148 
L 118.580416 171.080721 
L 118.686405 170.672796 
L 118.744603 174.895065 
L 119.315962 167.129807 
L 119.343362 167.860974 
L 119.356531 169.396208 
L 119.555338 168.438617 
L 119.646459 170.433931 
L 119.947431 168.046551 
L 119.962724 168.210691 
L 120.112467 165.411561 
L 120.270494 164.675633 
L 120.282176 164.826182 
L 120.37542 166.308987 
L 120.485656 166.765246 
L 120.502011 166.56549 
L 120.636461 164.941131 
L 120.715474 168.458827 
L 120.911096 167.346723 
L 120.934885 168.521677 
L 120.953364 168.404484 
L 121.078468 167.170297 
L 121.23522 176.696828 
L 121.494987 177.230315 
L 121.510493 178.699778 
L 121.627101 179.05978 
L 121.644518 178.943605 
L 121.720345 183.048993 
L 121.959721 187.822864 
L 122.066984 189.697763 
L 122.310183 188.802634 
L 122.324414 190.45288 
L 122.324627 190.273731 
L 122.575048 187.295212 
L 122.791697 186.435144 
L 122.98562 183.881741 
L 123.021091 184.853064 
L 123.150868 185.768861 
L 123.499206 179.870055 
L 123.536589 180.066751 
L 123.712882 177.85251 
L 123.747716 180.286149 
L 123.766832 180.197835 
L 124.000473 172.611447 
L 124.090319 172.38055 
L 124.282542 171.473961 
L 124.374724 172.727862 
L 124.660404 166.160454 
L 124.873018 162.137849 
L 124.909338 163.2437 
L 125.087968 163.534956 
L 125.311202 160.230784 
L 125.37301 166.548777 
L 125.60028 171.06947 
L 125.615573 173.277974 
L 125.809707 171.434769 
L 125.855586 171.981767 
L 125.870879 172.292904 
L 126.101547 170.092806 
L 126.346233 168.138587 
L 126.451584 166.361155 
L 126.468151 168.854607 
L 126.951789 163.588869 
L 127.148898 163.432244 
L 127.228336 164.211351 
L 127.604711 159.922348 
L 127.718983 159.211209 
L 127.739373 159.618734 
L 127.887417 161.107224 
L 127.976626 162.687944 
L 128.165238 162.829179 
L 128.364046 163.390427 
L 128.378914 164.918606 
L 128.496584 165.139733 
L 128.514638 167.435357 
L 128.621688 166.139564 
L 128.697303 166.369675 
L 128.881668 165.571449 
L 128.899509 167.206537 
L 129.048403 164.772305 
L 129.088546 168.341842 
L 129.243175 169.673745 
L 129.35426 168.710532 
L 129.488073 171.774447 
L 129.751239 166.965607 
L 129.835774 169.886736 
L 129.942612 169.333278 
L 129.967675 169.390412 
L 130.106798 167.090306 
L 130.218521 170.585033 
L 130.258878 172.528488 
L 130.457685 171.83795 
L 130.619747 169.678793 
L 130.638226 171.959262 
L 130.85615 173.689548 
L 130.923057 172.073478 
L 130.965112 172.681645 
L 131.078959 171.029754 
L 131.208099 173.363359 
L 131.229339 173.26057 
L 131.3417 171.900846 
L 131.357205 173.547666 
L 131.4753 172.207268 
L 131.491018 174.138 
L 131.569819 171.645719 
L 131.612724 172.149072 
L 131.63099 174.189226 
L 131.685152 173.742892 
L 131.80261 173.369507 
L 131.831072 177.925259 
L 131.948955 177.322088 
L 131.962336 178.655335 
L 132.082343 176.746072 
L 132.113778 178.124919 
L 132.539855 175.166932 
L 132.673881 175.837663 
L 132.923452 170.606387 
L 133.037299 173.227483 
L 133.236319 174.124894 
L 133.301102 173.730718 
L 133.322129 175.57821 
L 133.522636 176.375421 
L 133.855681 186.334187 
L 134.056613 188.762542 
L 134.2739 196.20809 
L 134.2996 196.60263 
L 134.336133 195.271264 
L 134.487151 194.593429 
L 134.609494 193.349843 
L 134.622875 194.86454 
L 134.737996 193.298698 
L 134.91429 192.896273 
L 134.932131 193.184509 
L 134.932344 192.544238 
L 135.087609 191.633852 
L 135.186588 191.801967 
L 135.20974 193.351964 
L 135.398352 195.042913 
L 135.555742 193.887702 
L 135.753062 194.784732 
L 135.807012 198.402767 
L 135.845882 198.099403 
L 135.936789 197.048626 
L 135.956118 200.653813 
L 136.155988 200.723881 
L 136.342476 196.773858 
L 136.52854 194.780726 
L 136.545107 197.389123 
L 136.902578 193.52142 
L 136.99646 194.456663 
L 137.088005 192.512975 
L 137.21587 193.534063 
L 137.332903 193.00257 
L 137.356905 192.248638 
L 137.40958 192.897627 
L 137.521091 192.018199 
L 137.787017 193.530831 
L 137.96501 189.052713 
L 138.002605 190.013228 
L 138.023632 190.241667 
L 138.223502 190.170156 
L 138.377068 192.534155 
L 138.395335 192.054617 
L 138.595204 190.832394 
L 138.609435 193.095099 
L 138.809517 192.63259 
L 138.828846 195.385229 
L 138.848811 195.305911 
L 138.964358 195.522787 
L 139.195026 202.150885 
L 139.390222 202.061786 
L 139.515752 200.695148 
L 139.650202 205.683942 
L 139.710099 203.645661 
L 139.792935 203.93521 
L 140.034223 203.458514 
L 140.236642 203.919272 
L 140.276148 203.260712 
L 140.374278 205.101748 
L 140.576908 203.705128 
L 140.742369 200.519496 
L 140.867049 200.03448 
L 140.885103 200.291881 
L 141.306082 195.912797 
L 141.329022 196.631419 
L 141.394441 195.236331 
L 141.634455 191.739228 
L 141.760621 195.012584 
L 141.791632 199.866103 
L 142.026547 197.354252 
L 142.040778 200.191586 
L 142.320298 197.358121 
L 142.527602 193.766739 
L 142.560949 196.683835 
L 142.757633 195.399425 
L 142.778448 195.915872 
L 142.905889 193.075683 
L 142.97237 193.922286 
L 143.014214 194.979753 
L 143.214508 194.343858 
L 143.536508 201.606714 
L 143.553076 203.934359 
L 143.599379 203.456865 
L 143.972781 201.532418 
L 143.995508 202.922995 
L 144.113815 201.940975 
L 144.243592 205.689355 
L 144.260584 205.727921 
L 144.589382 200.779643 
L 144.887168 198.152067 
L 144.902461 201.40203 
L 145.184742 199.998216 
L 145.200035 201.127635 
L 145.478281 197.910893 
L 145.501645 199.920334 
L 145.753341 197.353788 
L 145.770758 200.046404 
L 145.884817 198.504912 
L 145.902234 198.738434 
L 146.030312 198.895316 
L 146.19726 198.47646 
L 146.288167 197.50511 
L 146.97125 193.043801 
L 147.082548 193.232926 
L 147.126515 194.098338 
L 147.324686 193.197046 
L 147.383308 193.741592 
L 147.399663 193.733948 
L 147.417717 196.596872 
L 147.571921 195.267312 
L 147.594223 196.663913 
L 147.797066 194.656734 
L 147.871194 200.585546 
L 147.942349 198.791611 
L 148.061931 200.580023 
L 148.088056 200.448944 
L 148.210612 199.516192 
L 148.229303 201.626515 
L 148.469316 203.992456 
L 148.643698 213.009631 
L 149.045986 211.134249 
L 149.2038 206.815357 
L 149.403245 205.291011 
L 149.604177 202.579842 
L 149.805108 201.933439 
L 150.055317 197.73179 
L 150.103957 195.817724 
L 150.179147 196.001267 
L 150.290445 196.533529 
L 150.421072 196.311669 
L 150.440188 196.563189 
L 150.562744 195.031668 
L 150.581223 195.60785 
L 151.027903 193.328657 
L 151.333123 189.658628 
L 151.833116 202.100897 
L 152.020241 201.278793 
L 152.130053 201.423031 
L 152.447805 198.617447 
L 152.559104 199.524079 
L 152.576096 198.889963 
L 153.574169 186.428881 
L 153.77234 186.01867 
L 153.793155 184.81862 
L 153.989202 184.613082 
L 154.664001 173.411048 
L 154.765953 171.080229 
L 154.989187 173.927946 
L 155.104096 171.519244 
L 155.120026 173.157489 
L 155.248317 172.446429 
L 155.378943 172.856408 
L 155.394661 172.843839 
L 155.534421 170.16078 
L 155.591769 171.013395 
L 155.734928 169.669157 
L 155.827747 169.747418 
L 156.052255 168.516954 
L 156.18182 171.044543 
L 156.297367 171.612953 
L 156.41971 170.201235 
L 156.457092 172.121893 
L 156.605561 171.051835 
L 156.631049 171.22613 
L 156.745533 171.42289 
L 156.867239 169.961713 
L 156.885506 171.632489 
L 157.002751 172.016997 
L 157.026753 171.726476 
L 157.114687 169.105801 
L 157.152069 169.664133 
L 157.282909 168.075654 
L 157.299901 168.187172 
L 157.477043 167.364789 
L 157.526958 165.357287 
L 157.634008 166.736092 
L 157.744882 165.83021 
L 157.868924 168.691646 
L 157.888677 170.193058 
L 158.087272 168.511517 
L 158.233192 173.356647 
L 158.777364 165.66355 
L 158.802003 166.02124 
L 158.987642 167.499599 
L 159.003147 167.450986 
L 159.204716 166.874538 
L 159.566435 160.499835 
L 160.11613 152.463962 
L 160.45491 147.69701 
L 160.556225 147.915849 
L 160.654992 148.058241 
L 160.712553 147.793225 
L 160.728695 149.263112 
L 160.929627 149.400828 
L 161.038376 148.930015 
L 161.053457 149.25357 
L 161.168153 149.355752 
L 161.466577 145.915171 
L 161.579575 143.357476 
L 161.603576 144.948367 
L 161.616533 145.305604 
L 161.727194 144.101303 
L 161.927488 143.968192 
L 161.95595 146.311909 
L 162.152633 144.661748 
L 162.346556 151.199069 
L 162.473147 150.846111 
L 162.677477 150.337632 
L 162.917703 148.550911 
L 162.987371 148.731453 
L 163.174709 146.503915 
L 163.18809 148.094148 
L 163.440635 146.635166 
L 163.457627 146.798948 
L 163.734811 142.643969 
L 163.838038 142.431463 
L 163.95146 143.327162 
L 163.970151 145.563516 
L 164.087822 144.148536 
L 164.115434 144.240056 
L 164.239052 146.319235 
L 164.440833 142.602872 
L 164.746903 137.752404 
L 164.96419 136.318626 
L 165.259003 131.744795 
L 165.348424 132.292906 
L 165.546806 131.082064 
L 165.745189 131.017067 
L 165.848204 131.439341 
L 166.176576 126.325472 
L 166.293397 126.742219 
L 166.630053 122.073343 
L 166.809107 121.986121 
L 166.855198 120.545306 
L 166.897891 121.135415 
L 167.013437 119.946861 
L 167.12601 121.01255 
L 167.144701 122.801568 
L 167.258973 122.143574 
L 167.259186 123.524076 
L 167.37367 122.431722 
L 167.393636 125.119457 
L 167.504934 123.784546 
L 167.55676 124.714616 
L 167.675068 124.666444 
L 167.781268 125.537843 
L 167.800384 127.127179 
L 167.913807 125.451084 
L 168.106455 124.629007 
L 168.753217 117.813001 
L 168.785289 119.790723 
L 168.87025 117.781549 
L 168.90827 119.284918 
L 168.9225 120.137929 
L 169.066084 120.566884 
L 169.219862 118.9043 
L 169.330099 119.245418 
L 169.455415 119.535151 
L 169.477505 122.361247 
L 169.611105 121.648875 
L 169.611318 121.800418 
L 169.861739 118.881511 
L 170.094106 116.106606 
L 170.108125 117.196145 
L 170.218998 114.809666 
L 170.234928 117.210457 
L 170.570947 111.114124 
L 170.654208 110.943858 
L 170.724301 113.112458 
L 170.828377 112.074043 
L 170.996174 118.139751 
L 171.083047 118.75709 
L 171.512522 113.308042 
L 171.702409 113.120605 
L 171.82815 112.755233 
L 172.010815 111.092526 
L 172.052871 111.439956 
L 172.166506 112.479652 
L 172.184347 112.37965 
L 172.317948 112.221207 
L 172.684552 108.039136 
L 172.703669 108.119211 
L 172.810719 109.494793 
L 172.826012 109.41007 
L 172.934549 107.926762 
L 172.934761 108.894373 
L 173.044573 108.583025 
L 173.145038 109.931681 
L 173.345333 108.001244 
L 173.474685 108.494078 
L 173.540317 111.558881 
L 173.650978 110.587254 
L 173.678166 110.68306 
L 173.786915 111.527018 
L 173.800084 113.35099 
L 174.029053 112.590459 
L 174.116137 110.06791 
L 174.142687 111.170857 
L 174.15968 112.215388 
L 174.269066 111.229952 
L 174.361036 109.35743 
L 174.391834 110.257808 
L 174.531169 117.672857 
L 174.64799 119.361919 
L 174.785414 124.527266 
L 174.908819 126.021723 
L 174.926448 128.566659 
L 174.993779 126.82281 
L 175.038809 126.2145 
L 175.064084 127.376703 
L 175.14947 127.115763 
L 175.210641 127.467938 
L 175.328949 125.048551 
L 175.573635 128.028855 
L 175.767345 125.564231 
L 175.985481 130.270686 
L 176.180678 129.910646 
L 176.373963 128.452148 
L 176.462322 125.433892 
L 176.658369 122.781197 
L 176.746727 123.164106 
L 176.761383 123.041022 
L 176.876717 122.891424 
L 176.900931 123.301824 
L 177.011804 123.282983 
L 177.027097 123.09777 
L 177.221657 126.265908 
L 177.340814 126.29349 
L 177.413668 124.705802 
L 177.610988 124.869368 
L 177.800663 121.441322 
L 177.884774 121.324287 
L 178.014551 125.112191 
L 178.158347 132.061027 
L 178.379881 135.444678 
L 178.43022 139.943889 
L 178.567219 139.431441 
L 178.75838 138.264136 
L 178.785143 140.935851 
L 178.966534 141.560983 
L 178.982039 143.777945 
L 179.386876 140.275309 
L 179.401744 141.810456 
L 179.621579 139.736194 
L 179.712699 139.84372 
L 179.788102 139.354223 
L 179.808492 141.024527 
L 179.935296 140.267843 
L 180.045107 140.94628 
L 180.063162 144.199885 
L 180.167875 143.075037 
L 180.180407 142.904752 
L 180.319742 144.938351 
L 180.579509 142.259984 
L 180.688471 143.656688 
L 180.703551 143.43252 
L 180.818461 141.741835 
L 180.838639 144.084389 
L 181.090547 140.873315 
L 181.1103 142.494922 
L 181.351375 138.294812 
L 181.482852 139.671025 
L 181.587778 137.049856 
L 181.781701 136.23624 
L 181.922098 134.696639 
L 182.11602 134.371743 
L 182.152128 134.486733 
L 182.345626 132.925451 
L 182.439295 133.919982 
L 182.457137 133.761393 
L 182.824166 129.633123 
L 182.955643 130.656771 
L 183.281041 128.561941 
L 183.310353 135.479976 
L 183.36409 135.368665 
L 183.539746 134.340643 
L 183.682055 132.396661 
L 183.698622 133.319438 
L 183.933326 135.886824 
L 184.127673 134.898267 
L 184.308002 140.861977 
L 184.476436 141.800698 
L 184.593894 144.462127 
L 184.594106 144.456935 
L 184.6077 143.966459 
L 184.664623 144.859209 
L 184.778046 145.373037 
L 184.793976 146.695767 
L 184.860245 145.127368 
L 184.908673 144.764059 
L 185.105993 144.701445 
L 185.509768 140.295256 
L 185.628925 142.034397 
L 185.643794 142.039451 
L 185.714736 144.133261 
L 185.768898 143.796472 
L 186.178832 140.859051 
L 186.424581 136.856695 
L 186.468335 138.819852 
L 186.581545 139.732863 
L 186.595989 139.486276 
L 186.972576 134.105234 
L 187.266752 130.003808 
L 187.315392 130.051269 
L 187.329835 132.464153 
L 187.580681 134.842636 
L 187.692829 133.780153 
L 187.70706 136.39672 
L 187.821969 135.79897 
L 187.835775 137.853492 
L 187.974473 136.239888 
L 188.116145 135.766863 
L 188.253781 136.709605 
L 188.365929 136.335892 
L 188.381859 137.36662 
L 188.506114 135.874255 
L 188.616775 135.951433 
L 188.751012 134.630598 
L 188.766305 136.685261 
L 188.827052 135.348861 
L 188.887162 135.007857 
L 188.998247 135.537786 
L 189.136096 141.421133 
L 189.277343 142.706867 
L 189.33724 142.258403 
L 189.382694 142.040678 
L 189.454273 140.837933 
L 189.642248 148.213825 
L 189.754184 148.456806 
L 189.89012 151.798406 
L 190.022022 154.743555 
L 190.037102 154.651969 
L 190.232299 155.412528 
L 190.424522 155.29396 
L 190.44024 155.148055 
L 190.565557 155.432885 
L 190.579363 156.703629 
L 190.690449 155.141295 
L 190.711901 156.687913 
L 190.818527 156.63263 
L 191.014148 155.159513 
L 191.053867 158.138523 
L 191.168352 158.340205 
L 191.182795 158.255834 
L 191.282411 155.408661 
L 191.544302 158.614803 
L 191.59188 162.466795 
L 191.697656 160.255362 
L 191.72548 162.042968 
L 191.725693 161.875606 
L 191.856532 161.29826 
L 191.96783 162.590387 
L 192.164514 161.89391 
L 192.361835 160.311074 
L 192.708473 155.374229 
L 192.77453 155.927673 
L 192.794071 155.816934 
L 192.917052 154.098616 
L 192.934044 154.948721 
L 193.26008 151.46587 
L 193.278983 152.224138 
L 193.524094 155.935267 
L 193.615852 155.743027 
L 193.726301 155.745895 
L 193.746903 158.77643 
L 193.943799 159.182987 
L 194.070391 160.323625 
L 194.267287 157.116867 
L 194.324635 157.624808 
L 194.522381 156.419825 
L 194.595234 154.499814 
L 194.702285 154.857505 
L 194.898756 152.729224 
L 195.078022 157.609289 
L 195.20164 158.741811 
L 195.216508 160.057642 
L 195.410431 157.443402 
L 195.604778 158.257995 
L 195.943983 153.291307 
L 196.028094 153.268782 
L 196.044661 153.141075 
L 196.170402 153.155969 
L 196.295719 152.188405 
L 196.310375 153.469241 
L 196.424647 152.471143 
L 196.442701 154.131533 
L 196.583311 152.237979 
L 196.699069 152.354557 
L 196.722221 152.253338 
L 196.831608 152.302752 
L 196.942269 151.27738 
L 196.980501 151.638539 
L 197.216904 152.283561 
L 197.339034 151.580669 
L 197.714135 152.457249 
L 197.975389 149.218586 
L 197.992381 150.138563 
L 198.155505 149.662161 
L 198.169524 151.239927 
L 198.523384 148.57511 
L 198.584981 150.797911 
L 198.697978 149.932442 
L 198.712421 152.991751 
L 198.837738 151.458036 
L 199.030598 151.405955 
L 199.055662 151.628022 
L 199.070742 151.624687 
L 199.196484 151.292174 
L 199.783136 146.322749 
L 199.821793 146.59858 
L 199.835387 146.379206 
L 200.032071 146.084997 
L 200.423314 142.313356 
L 200.810521 137.933572 
L 200.896969 136.696839 
L 201.020799 137.961097 
L 201.036729 137.622405 
L 201.331967 133.197555 
L 201.576441 140.218903 
L 201.774611 141.398182 
L 201.849801 140.059893 
L 201.896317 140.714401 
L 201.930938 142.011939 
L 202.286711 135.669794 
L 202.403956 134.912028 
L 202.511856 135.358366 
L 202.536919 137.15039 
L 203.10658 131.082526 
L 203.229135 131.005105 
L 203.430067 129.040124 
L 203.662859 124.912362 
L 205.009908 112.063536 
L 205.137136 113.314369 
L 205.252682 111.889836 
L 205.2684 113.163068 
L 205.383097 111.551809 
L 205.506927 114.474225 
L 205.5373 117.084856 
L 205.87693 115.41641 
L 206.111633 112.842737 
L 206.124802 113.561348 
L 206.232914 113.373552 
L 206.463795 114.254137 
L 206.70041 110.379504 
L 206.893483 109.545107 
L 206.951893 107.552599 
L 206.978231 108.327082 
L 207.071475 107.857816 
L 207.086768 108.084935 
L 207.21612 108.744559 
L 207.445089 111.83561 
L 207.459744 111.805002 
L 207.575716 111.495445 
L 207.702307 111.519845 
L 207.740964 113.918847 
L 207.858846 114.212643 
L 207.891981 113.967798 
L 208.090576 113.714865 
L 208.28641 119.765989 
L 208.402381 120.269973 
L 208.429356 122.712244 
L 208.444224 122.626794 
L 208.640483 122.137665 
L 208.782367 119.163361 
L 208.887718 120.183275 
L 209.077393 118.17669 
L 209.441449 121.290941 
L 209.499009 120.977492 
L 209.840338 116.949779 
L 209.86264 118.845641 
L 209.973514 118.189073 
L 209.994542 120.747825 
L 210.1908 121.188957 
L 210.240078 123.925359 
L 210.277248 121.259738 
L 210.347977 122.249972 
L 210.366244 122.218882 
L 210.534466 122.49081 
L 210.729025 122.071712 
L 211.122393 119.480684 
L 211.55378 113.257521 
L 211.681858 114.576095 
L 211.877267 114.421804 
L 212.076287 112.640962 
L 212.271059 112.915418 
L 212.379596 111.775058 
L 212.576704 110.848696 
L 212.970072 105.276383 
L 213.16803 104.847221 
L 213.470064 99.593811 
L 213.512545 99.68109 
L 213.630427 100.477548 
L 213.723034 104.385576 
L 214.111729 98.57752 
L 214.392523 96.786907 
L 214.598977 94.633517 
L 214.614695 97.328925 
L 214.811591 98.743246 
L 214.917579 104.230742 
L 215.433502 100.169146 
L 215.628699 99.288262 
L 216.054351 95.034728 
L 216.068582 96.653589 
L 216.179455 95.938631 
L 216.198147 98.056955 
L 216.392919 97.574857 
L 216.624861 95.009997 
L 216.640791 98.162245 
L 216.816447 96.114126 
L 216.83174 97.7512 
L 217.024175 97.569674 
L 217.306244 96.644366 
L 217.319838 97.974187 
L 217.43326 96.533703 
L 217.448978 97.864552 
L 217.569197 96.520315 
L 217.710444 97.141964 
L 217.733171 100.038102 
L 217.733383 99.754578 
L 217.926456 97.261187 
L 218.119104 96.837315 
L 218.191108 97.678164 
L 218.248244 95.828777 
L 218.30007 96.845459 
L 218.316637 97.840855 
L 218.437918 95.967531 
L 218.642249 94.857974 
L 218.862721 96.179301 
L 218.976568 96.369283 
L 218.990799 96.260569 
L 219.111655 95.39148 
L 219.306427 94.783944 
L 219.518829 93.265047 
L 219.642022 94.822586 
L 220.101658 91.130661 
L 220.229099 93.213635 
L 220.339335 92.843521 
L 220.353778 94.516189 
L 220.456793 93.913145 
L 220.661548 93.010472 
L 220.852072 92.989255 
L 220.885206 92.684122 
L 220.900924 95.222713 
L 221.165789 92.652776 
L 221.184905 94.30946 
L 221.384137 95.232601 
L 221.566802 103.10816 
L 221.681499 101.67011 
L 221.699553 103.680729 
L 221.822746 103.160827 
L 221.959532 109.220039 
L 222.423417 103.427153 
L 222.439347 104.052849 
L 222.637305 103.009816 
L 222.650261 104.892783 
L 222.758161 104.4196 
L 222.950809 102.125107 
L 223.000299 104.630123 
L 223.11011 103.664947 
L 223.227993 106.045299 
L 223.420428 104.895558 
L 223.468431 103.488817 
L 223.591199 103.429545 
L 223.68147 104.484893 
L 223.814433 102.72247 
L 223.911713 103.043 
L 224.076324 101.208418 
L 224.270883 101.550571 
L 224.463531 101.251267 
L 224.659365 101.874987 
L 224.863908 101.698564 
L 225.814191 92.645702 
L 225.964146 91.730895 
L 226.158706 91.521003 
L 226.202248 92.58627 
L 226.501097 88.878179 
L 226.520001 91.667337 
L 226.934183 87.536141 
L 226.969442 88.883918 
L 227.082015 87.797518 
L 227.096883 90.188464 
L 227.290593 88.345636 
L 227.474532 85.424442 
L 227.6504 87.857529 
L 228.772092 76.347279 
L 228.816271 76.787686 
L 228.949872 78.300067 
L 229.203691 76.771913 
L 229.704109 70.687337 
L 229.798627 70.446003 
L 229.872331 74.206761 
L 229.951556 72.359246 
L 230.143355 70.08778 
L 230.338127 69.547544 
L 230.530562 70.186361 
L 230.704307 77.476128 
L 230.812631 77.688424 
L 230.851288 77.148145 
L 230.866156 79.491411 
L 231.059442 81.097021 
L 231.194316 80.535882 
L 231.344696 81.824171 
L 231.607437 79.090415 
L 232.001229 79.281429 
L 232.101058 78.92552 
L 232.296892 81.839327 
L 232.641406 77.082946 
L 232.837028 77.004472 
L 232.91413 77.238305 
L 233.006524 78.214706 
L 233.204058 78.2228 
L 233.399042 77.629758 
L 233.598062 77.629755 
L 233.792834 77.24932 
L 233.870573 78.178861 
L 234.016493 81.831762 
L 234.299199 83.695003 
L 234.31704 85.753427 
L 234.5116 87.866242 
L 234.555355 92.987029 
L 234.71062 92.61214 
L 234.710832 92.132909 
L 234.727187 93.441212 
L 234.923021 92.840488 
L 234.980794 94.060856 
L 235.099739 91.949315 
L 235.118643 92.141216 
L 235.225268 93.145298 
L 235.361205 97.91143 
L 235.377135 98.046792 
L 235.614175 96.056962 
L 235.628406 96.070308 
L 235.747138 96.203392 
L 235.761582 97.99288 
L 235.871818 97.087161 
L 235.986939 97.13229 
L 236.00287 99.239105 
L 236.127124 99.425491 
L 236.264548 100.885308 
L 236.33549 99.051788 
L 236.502437 98.198632 
L 236.589097 95.928879 
L 236.816579 93.827984 
L 236.829748 95.250151 
L 236.939135 95.246606 
L 237.409603 90.762287 
L 237.550213 91.800684 
L 237.667246 91.599282 
L 237.778332 90.923492 
L 238.020682 87.358946 
L 238.159805 92.764372 
L 238.305512 93.538695 
L 238.46014 91.498921 
L 238.654063 93.587355 
L 238.673391 95.758009 
L 238.77938 94.563406 
L 238.906183 95.677043 
L 239.089061 94.305791 
L 239.206094 97.111143 
L 239.345429 96.315772 
L 239.455665 96.802015 
L 239.476056 97.399613 
L 239.584805 97.160897 
L 239.598187 98.711057 
L 239.710972 97.87992 
L 239.838412 99.23629 
L 239.944613 101.287604 
L 240.098816 110.612433 
L 240.222646 109.898958 
L 240.244949 112.817022 
L 240.437809 119.655327 
L 240.634705 117.570775 
L 240.717541 118.86776 
L 240.838823 123.412577 
L 241.070765 127.305367 
L 241.215623 132.926256 
L 241.325859 131.830452 
L 241.341576 131.867653 
L 241.529552 139.180396 
L 241.638301 138.867439 
L 241.813745 137.730283 
L 241.828188 139.548645 
L 241.954142 137.772744 
L 242.082007 138.40989 
L 242.27508 140.729682 
L 242.471551 138.190364 
L 242.664199 137.373292 
L 242.788242 139.019001 
L 242.97473 136.014031 
L 243.03399 135.691465 
L 243.146138 135.972273 
L 243.259348 138.090342 
L 244.23512 126.605616 
L 244.431166 126.510411 
L 244.543951 128.237727 
L 244.937531 124.073314 
L 245.086212 122.912139 
L 245.156304 121.218586 
L 245.357023 119.290327 
L 245.441984 119.466581 
L 245.587479 121.995992 
L 245.789685 118.953255 
L 246.071329 118.123108 
L 246.284155 119.630693 
L 246.332158 119.497314 
L 246.348725 120.60115 
L 246.679221 118.763969 
L 246.874843 117.896727 
L 246.965538 116.576246 
L 246.989965 118.501593 
L 247.107847 117.791566 
L 247.12314 120.421226 
L 247.322797 119.30641 
L 247.389279 120.222035 
L 247.582564 119.05209 
L 247.609114 120.398216 
L 247.776699 120.145955 
L 247.789868 121.998349 
L 247.805798 121.769547 
L 247.918371 121.217965 
L 247.945133 122.299451 
L 248.05898 121.313543 
L 248.072574 121.990635 
L 248.096363 124.469981 
L 248.45341 121.424992 
L 248.48527 123.594822 
L 248.59848 122.206163 
L 248.711052 123.555311 
L 249.611209 114.129353 
L 249.732065 114.602946 
L 249.841027 114.323342 
L 249.860568 114.49764 
L 249.96337 111.156522 
L 250.021144 112.879459 
L 250.040472 112.777889 
L 250.117786 112.974037 
L 250.312346 110.808123 
L 250.449345 112.386325 
L 250.464 112.266593 
L 250.845048 111.983579 
L 251.041095 109.793501 
L 251.077203 109.914806 
L 251.271975 108.976273 
L 251.465897 106.615017 
L 251.660882 106.97482 
L 251.856079 106.177176 
L 252.309555 102.821122 
L 252.390268 106.012214 
L 252.583978 103.467312 
L 252.778962 102.688435 
L 252.975221 103.016528 
L 253.086307 111.821382 
L 253.280867 112.378547 
L 253.393864 120.030944 
L 253.541908 120.147806 
L 253.66595 119.594009 
L 253.682517 121.986851 
L 253.872829 120.036391 
L 254.002819 122.819952 
L 254.115391 122.674612 
L 254.130472 122.162313 
L 254.339475 121.957568 
L 254.356679 124.837668 
L 254.593719 122.533769 
L 254.679104 124.136025 
L 254.79019 124.498267 
L 254.922729 126.726585 
L 255.367709 121.999237 
L 255.497699 123.672257 
L 255.611334 125.391261 
L 255.625565 129.053547 
L 255.822036 128.498443 
L 255.875986 130.333193 
L 256.069908 130.724961 
L 256.14616 133.16666 
L 256.62555 129.973889 
L 256.772319 133.692085 
L 257.09347 136.284474 
L 257.203919 136.073862 
L 257.218787 135.924029 
L 257.433525 135.062133 
L 257.631058 135.207897 
L 257.828591 135.499331 
L 258.024 135.149372 
L 258.809035 127.127878 
L 258.86341 127.722244 
L 258.990851 126.911283 
L 259.013578 127.298866 
L 259.143992 128.285902 
L 259.162471 128.37433 
L 259.21281 129.926328 
L 259.304143 127.608838 
L 259.319223 129.124168 
L 259.477038 127.646895 
L 259.499127 127.758065 
L 259.626993 128.479099 
L 259.768665 132.178756 
L 259.94432 132.622871 
L 259.957702 134.592278 
L 260.073036 131.116937 
L 260.163731 137.076197 
L 260.35999 137.560914 
L 260.624005 141.139738 
L 260.934748 143.993885 
L 261.130794 143.655156 
L 261.354665 142.884571 
L 261.354877 143.583927 
L 261.499735 142.361176 
L 261.626326 144.10132 
L 261.642681 144.20493 
L 261.867827 141.802205 
L 261.89204 143.414646 
L 262.673252 135.773602 
L 263.108675 132.145193 
L 263.303022 132.308552 
L 263.449367 135.883371 
L 263.577657 135.398516 
L 263.88394 133.838695 
L 263.905605 134.306638 
L 264.011593 134.433566 
L 264.197444 137.665461 
L 264.395827 135.808615 
L 264.422802 137.89412 
L 264.573607 139.246818 
L 264.965912 136.307856 
L 265.162171 135.800708 
L 265.361616 133.928177 
L 265.476737 134.503393 
L 265.690625 134.51744 
L 265.903664 133.311999 
L 265.918744 133.657725 
L 266.261773 132.150736 
L 266.40132 132.77705 
L 266.513043 132.45733 
L 266.530885 132.510654 
L 266.639422 133.407568 
L 266.656839 134.840344 
L 266.849275 132.512497 
L 266.893242 134.63688 
L 267.176373 130.60257 
L 267.190603 131.911466 
L 267.379428 131.804519 
L 267.394084 131.836482 
L 267.507081 132.468923 
L 267.519825 132.253556 
L 267.575899 131.759356 
L 267.765786 128.154272 
L 267.781716 128.799687 
L 267.978188 127.104885 
L 268.367307 122.308357 
L 268.385998 122.330017 
L 268.512802 122.185169 
L 268.707998 121.93752 
L 268.998139 118.322953 
L 269.127703 115.502994 
L 269.146395 115.672695 
L 269.33968 114.969428 
L 269.532965 112.998213 
L 269.66784 109.497427 
L 269.701399 109.726697 
L 269.813547 108.638637 
L 269.85539 111.268229 
L 270.086483 109.906233 
L 270.112608 110.907321 
L 270.230491 110.552295 
L 270.316089 107.744985 
L 270.505126 107.849412 
L 270.758308 105.602472 
L 270.90083 109.199756 
L 271.010216 109.49207 
L 271.025722 111.020297 
L 271.272957 108.271882 
L 271.412079 113.859792 
L 271.520829 112.893763 
L 271.53421 114.808728 
L 271.740877 114.002463 
L 271.778684 116.430827 
L 271.886796 115.219975 
L 272.029742 119.747032 
L 272.134456 121.171671 
L 272.1472 123.550927 
L 272.319033 124.994517 
L 272.340486 126.608241 
L 272.470475 126.261259 
L 272.509982 128.431368 
L 272.586446 126.563692 
L 272.773572 124.810665 
L 272.863842 122.297259 
L 272.958361 128.132092 
L 273.147611 128.07907 
L 273.336648 127.772412 
L 273.528021 125.356913 
L 273.615318 127.155876 
L 273.703252 126.993078 
L 273.784815 130.061495 
L 273.974489 128.213101 
L 274.334722 122.820485 
L 274.349377 122.889931 
L 274.668192 125.795392 
L 274.695379 129.472754 
L 275.258455 122.466721 
L 275.444943 122.812005 
L 275.835337 117.761025 
L 276.025648 117.825089 
L 276.078749 115.878348 
L 276.169656 116.01545 
L 276.587662 110.718542 
L 276.605291 111.864723 
L 276.710643 110.201906 
L 276.728272 110.389062 
L 276.917734 110.708272 
L 277.674095 101.840478 
L 277.886284 103.720533 
L 278.196177 104.922602 
L 278.257349 105.784116 
L 278.444474 105.616745 
L 278.635636 105.010601 
L 278.832107 101.461848 
L 279.007126 97.205755 
L 279.108866 97.235128 
L 279.683199 90.086212 
L 279.749468 90.424038 
L 279.872448 93.646836 
L 279.998402 93.131283 
L 280.189139 90.584566 
L 280.377326 89.867176 
L 280.564877 89.709142 
L 280.752002 89.853908 
L 280.784075 89.425951 
L 280.912153 93.372976 
L 281.081861 93.024922 
L 281.463759 93.519239 
L 281.652159 92.63376 
L 281.839072 92.641994 
L 282.041278 91.08777 
L 282.418928 85.239664 
L 282.494755 85.821049 
L 282.870493 85.69255 
L 283.096063 81.079596 
L 283.214795 79.874374 
L 283.323757 80.076632 
L 283.337139 81.490014 
L 283.41955 79.666935 
L 283.442065 79.305684 
L 283.455446 79.353046 
L 283.470527 81.171008 
L 284.43228 71.860266 
L 284.494726 72.504449 
L 284.681002 71.053742 
L 284.721995 73.142201 
L 284.908696 69.995533 
L 285.099007 70.314945 
L 285.981323 62.323627 
L 285.996403 63.910464 
L 286.188201 63.913482 
L 286.48705 60.772203 
L 286.980033 53.326553 
L 286.999787 54.032309 
L 287.075826 56.999529 
L 287.178841 57.67902 
L 287.406535 56.283943 
L 287.420341 56.780591 
L 287.437121 58.298227 
L 287.705172 56.127508 
L 287.726624 57.938241 
L 287.83325 56.69148 
L 287.977258 59.714572 
L 288.184136 58.185113 
L 288.205801 58.261699 
L 288.25168 59.51436 
L 288.439018 59.390628 
L 288.625506 59.672361 
L 289.000395 59.394578 
L 289.08493 60.21444 
L 289.231912 66.031224 
L 289.338325 66.178144 
L 289.696221 62.441613 
L 289.709603 62.663402 
L 289.81283 61.941654 
L 289.900764 64.255411 
L 290.010151 63.004076 
L 290.104032 65.785437 
L 290.230836 63.332005 
L 290.33916 63.899711 
L 290.393747 63.931227 
L 290.522038 63.701342 
L 290.642469 64.025708 
L 290.768423 66.113171 
L 290.877173 66.026022 
L 290.896501 66.809005 
L 291.087875 65.489313 
L 291.181969 66.027828 
L 291.214041 70.371778 
L 291.5987 66.651191 
L 291.643304 68.21583 
L 291.997802 63.546783 
L 292.07724 65.556834 
L 292.290066 63.328042 
L 292.669415 62.769854 
L 292.855903 63.037499 
L 293.063632 67.718835 
L 293.652621 60.780029 
L 293.736519 61.025267 
L 293.937451 58.701162 
L 293.951044 58.772403 
L 294.059582 59.07908 
L 294.111832 61.100802 
L 294.130099 60.709744 
L 294.271346 61.881404 
L 294.460808 59.53316 
L 294.512209 60.205727 
L 294.622233 60.273456 
L 294.6388 60.482676 
L 294.807871 59.451334 
L 294.936799 62.415275 
L 295.04215 63.562218 
L 295.232249 64.167792 
L 295.309351 65.236776 
L 295.343123 67.870806 
L 295.912571 62.651234 
L 296.004965 66.202287 
L 296.018559 66.164659 
L 296.137291 65.992437 
L 296.287034 66.107949 
L 296.308274 66.316816 
L 296.431467 65.934903 
L 296.557209 66.5288 
L 296.664046 64.881131 
L 296.678277 66.047402 
L 296.901511 67.725248 
L 296.917866 68.966165 
L 297.048493 67.861611 
L 297.065697 69.184626 
L 297.256434 68.134503 
L 297.345005 65.81309 
L 297.537228 66.485541 
L 297.556344 66.401681 
L 297.574398 68.992878 
L 297.700352 70.276895 
L 297.72223 72.470495 
L 297.90893 69.748112 
L 297.942065 70.820273 
L 298.165724 72.682558 
L 298.240701 75.893787 
L 298.344353 74.809274 
L 298.533178 75.102937 
L 298.633644 79.785934 
L 298.778289 79.43812 
L 298.966901 79.380015 
L 299.08882 79.8546 
L 299.276795 77.976523 
L 299.50194 77.049982 
L 299.554403 78.481697 
L 299.847517 75.043604 
L 299.956904 75.036334 
L 300.066928 75.318065 
L 300.081371 76.261456 
L 300.210086 74.582995 
L 300.459658 77.053289 
L 300.582426 75.334533 
L 300.649757 77.148757 
L 300.752134 75.90493 
L 300.770826 77.906385 
L 300.861096 75.408831 
L 301.048434 75.669379 
L 301.365762 70.267088 
L 301.638273 69.383392 
L 301.654628 71.609171 
L 301.842815 69.578886 
L 301.898677 70.142869 
L 302.08559 69.946132 
L 302.214305 70.934908 
L 302.370208 67.710069 
L 302.575387 66.327555 
L 302.74106 63.148054 
L 302.928398 63.495825 
L 303.024828 61.368305 
L 303.211104 61.220054 
L 303.39823 60.220776 
L 303.542026 60.08937 
L 303.621888 60.224264 
L 303.726815 58.99922 
L 303.774605 61.475548 
L 303.891426 62.349581 
L 303.905657 64.941402 
L 304.013132 64.192239 
L 304.121881 61.764259 
L 304.142909 62.182396 
L 304.336194 61.620537 
L 304.429438 65.669494 
L 304.550719 68.245583 
L 304.813035 64.845295 
L 305.055597 60.438892 
L 305.185587 58.695201 
L 305.257591 59.190428 
L 305.448115 59.226749 
L 305.548581 60.808476 
L 305.568759 62.98499 
L 305.759708 62.689523 
L 305.865696 64.043203 
L 305.884387 66.664489 
L 306.266285 66.503939 
L 306.354007 67.216926 
L 306.50821 73.394588 
L 306.613773 72.2098 
L 306.643934 74.064905 
L 306.754171 74.644548 
L 306.881187 78.328807 
L 307.070011 78.920713 
L 307.144352 79.703922 
L 307.245242 79.599137 
L 307.262235 79.472441 
L 307.36801 79.771701 
L 307.403694 79.698989 
L 307.593368 79.144472 
L 307.782405 79.501034 
L 307.970805 86.404216 
L 308.061925 86.1599 
L 308.252449 86.516345 
L 308.626701 98.383688 
L 308.883918 94.96627 
L 308.936382 95.215344 
L 309.04237 94.073551 
L 309.232257 95.271672 
L 309.433401 95.302015 
L 309.629235 95.598426 
L 309.824644 96.473559 
L 309.839937 96.435128 
L 310.038107 94.368231 
L 310.237764 93.582367 
L 310.435298 94.08091 
L 310.629432 105.022337 
L 310.823355 106.098996 
L 310.938264 109.256748 
L 311.048288 111.139865 
L 311.242423 110.736573 
L 311.285328 111.196255 
L 311.784683 109.457741 
L 311.797852 109.673082 
L 311.798064 111.162704 
L 311.908513 110.245631 
L 311.921682 110.226731 
L 312.029369 109.005987 
L 312.224779 109.207512 
L 312.368999 116.505416 
L 312.518105 118.711918 
L 312.537009 120.409529 
L 312.731143 118.803699 
L 312.770013 121.954897 
L 312.95374 121.31357 
L 312.972007 123.897321 
L 313.166354 124.566455 
L 313.227525 129.131718 
L 313.468601 127.807484 
L 313.71711 133.4679 
L 313.903811 132.594611 
L 314.099857 133.648674 
L 314.295904 133.353602 
L 314.853032 126.265721 
L 314.895725 126.878638 
L 315.009997 127.598336 
L 315.136376 126.499873 
L 315.201583 128.136223 
L 315.309908 125.930323 
L 315.428852 127.113471 
L 316.005947 120.403561 
L 316.235765 118.770449 
L 316.250846 121.282633 
L 316.251058 121.115248 
L 316.516135 127.061337 
L 316.784822 133.621218 
L 316.955805 130.083151 
L 317.076025 130.14041 
L 317.094504 132.293456 
L 317.275257 131.096202 
L 317.289276 132.649133 
L 317.548193 130.164032 
L 317.761444 129.863954 
L 317.775462 130.158866 
L 317.884424 128.433773 
L 317.901204 129.75582 
L 318.0981 127.497649 
L 318.164581 128.222456 
L 318.178387 127.95972 
L 318.375071 128.638538 
L 318.915632 123.448053 
L 319.305601 120.292227 
L 319.43113 121.133486 
L 319.450034 122.205389 
L 319.5762 120.665423 
L 319.775008 120.375427 
L 319.850835 122.262647 
L 319.864854 122.215865 
L 319.972754 121.139834 
L 320.150321 121.755014 
L 320.275001 123.458577 
L 320.469348 122.061502 
L 320.498447 125.858978 
L 320.615905 125.032864 
L 320.683236 132.708289 
L 320.878858 131.29963 
L 321.07278 128.498125 
L 321.269888 127.997361 
L 321.659645 123.123983 
L 321.732711 123.62413 
L 321.803228 127.784879 
L 321.976972 125.680869 
L 322.103776 127.522021 
L 322.215499 127.048953 
L 322.229518 128.682731 
L 322.42429 126.917569 
L 322.521357 125.592972 
L 322.680233 125.436883 
L 322.703385 125.962824 
L 322.772415 124.90902 
L 322.785797 126.565058 
L 322.894758 125.094592 
L 322.973772 125.240236 
L 323.002234 125.493882 
L 323.09569 123.647145 
L 323.110771 125.284868 
L 323.124364 126.613349 
L 323.249044 127.084991 
L 323.264549 128.211463 
L 323.372024 127.075003 
L 323.386255 127.261427 
L 323.495642 128.920274 
L 323.625844 133.333877 
L 323.788968 132.730837 
L 323.826138 131.293576 
L 324.308077 128.014592 
L 324.41449 129.466043 
L 324.523452 128.724593 
L 324.634538 129.290289 
L 324.741588 129.249238 
L 324.766651 129.360204 
L 324.975017 126.926305 
L 325.039374 128.056152 
L 325.052968 127.376921 
L 325.21142 124.690296 
L 325.239032 125.89277 
L 325.435291 123.736511 
L 325.690172 127.792493 
L 326.29148 122.074649 
L 326.489651 122.048404 
L 326.716283 119.617234 
L 326.764286 120.586083 
L 326.822696 122.567818 
L 326.935481 122.114875 
L 327.236454 123.463947 
L 328.213712 112.872659 
L 328.270211 115.880011 
L 328.446292 115.250788 
L 328.461372 115.739951 
L 328.631505 112.775071 
L 328.737494 118.380045 
L 328.771478 119.763064 
L 328.784859 119.593428 
L 329.058432 118.340508 
L 329.0733 118.979731 
L 329.441179 116.257808 
L 329.639137 115.632589 
L 329.721549 114.707991 
L 329.737691 116.18461 
L 329.846229 114.777642 
L 329.861734 117.162185 
L 329.932039 116.674222 
L 330.108969 119.024835 
L 330.21432 119.434162 
L 330.234286 120.271611 
L 330.470264 117.924457 
L 330.654628 118.369518 
L 330.849612 117.109418 
L 330.948804 117.459254 
L 331.070297 118.398526 
L 331.266556 116.297811 
L 331.46239 116.573606 
L 331.657799 115.558876 
L 331.835154 125.95428 
L 331.944753 127.671742 
L 332.136127 128.246981 
L 332.245514 125.932952 
L 332.296915 126.431505 
L 332.411612 126.797185 
L 332.427542 128.362309 
L 332.621464 126.800051 
L 332.750392 129.156762 
L 332.766109 129.736177 
L 332.797332 128.415204 
L 332.914578 129.952841 
L 333.170309 128.312758 
L 333.186452 128.885708 
L 333.383772 131.07519 
L 333.441758 138.20763 
L 333.640778 134.84386 
L 333.684957 137.854842 
L 333.742518 136.355992 
L 333.794132 137.82142 
L 333.910103 137.78727 
L 334.05581 134.404957 
L 334.224032 137.380695 
L 334.57683 133.798911 
L 334.689403 133.438595 
L 334.828951 132.087216 
L 334.866121 133.906776 
L 334.880564 133.897869 
L 335.065354 132.063238 
L 335.117817 132.208321 
L 335.315987 131.015354 
L 335.398399 131.256123 
L 335.67091 128.978579 
L 335.683866 130.776002 
L 335.873753 133.765364 
L 335.939597 132.018842 
L 336.129059 131.322708 
L 336.143715 133.581649 
L 336.339124 131.825613 
L 336.413465 134.079346 
L 336.605475 131.848854 
L 336.644132 129.895192 
L 336.700206 131.026231 
L 336.894978 127.9223 
L 336.982488 128.788118 
L 336.999905 130.590057 
L 337.129469 130.93755 
L 337.32679 131.538004 
L 337.342083 134.079572 
L 337.483118 134.99825 
L 337.536006 136.651494 
L 337.723556 134.079102 
L 337.927461 135.966531 
L 338.12287 135.88705 
L 338.167262 135.639184 
L 338.305535 133.754143 
L 338.45634 133.695757 
L 338.971414 127.241297 
L 338.987981 128.376032 
L 339.291502 127.628454 
L 339.306158 131.028039 
L 339.414058 130.91327 
L 339.612441 129.690496 
L 339.679135 127.618081 
L 339.876668 125.545876 
L 339.919148 126.853497 
L 340.309329 124.298789 
L 340.486047 127.969394 
L 340.682731 125.777292 
L 340.713317 127.017102 
L 340.726061 126.748168 
L 340.842457 125.348965 
L 340.953118 126.660877 
L 341.39555 122.211519 
L 341.412117 122.457416 
L 341.522566 122.966388 
L 341.662963 119.188783 
L 341.709266 120.403504 
L 341.862833 118.771828 
L 341.98199 120.127356 
L 341.996008 123.735103 
L 342.187807 123.768266 
L 342.309937 123.326818 
L 342.569279 121.844833 
L 342.760441 122.897876 
L 343.012986 121.179211 
L 343.029553 122.119992 
L 343.092424 120.179741 
L 343.269566 122.585841 
L 343.466887 120.574764 
L 343.486003 123.030026 
L 343.683112 123.205615 
L 343.808004 123.469772 
L 343.83774 125.416349 
L 344.240028 120.782309 
L 344.349627 120.579216 
L 344.616191 116.86573 
L 344.631484 117.090822 
L 344.823494 119.641852 
L 344.837088 122.078793 
L 344.942652 121.566693 
L 345.152079 118.222602 
L 345.170558 119.613654 
L 345.278883 118.430942 
L 345.486611 118.718863 
L 345.598547 117.7126 
L 345.614902 117.954819 
L 345.832825 116.695855 
L 346.027597 116.308871 
L 346.042041 117.94569 
L 346.187111 114.791382 
L 346.299046 117.347099 
L 346.406946 116.27501 
L 346.598957 117.901879 
L 346.741478 117.369269 
L 346.938374 115.083883 
L 346.975332 115.91353 
L 347.011016 118.907279 
L 347.18922 119.272773 
L 347.300943 119.975302 
L 347.433694 125.476826 
L 347.530124 123.509612 
L 347.545205 124.115285 
L 347.610624 126.196611 
L 347.804972 126.287559 
L 348.001018 123.938449 
L 348.036489 125.472643 
L 348.05072 125.345942 
L 348.445362 121.06629 
L 348.686437 119.826328 
L 348.733803 127.146241 
L 348.851048 127.30018 
L 348.977002 128.715286 
L 349.263319 125.548984 
L 349.423894 128.455035 
L 349.513103 129.831788 
L 349.62249 128.374876 
L 349.729965 129.57303 
L 349.744833 131.001462 
L 350.057063 126.603294 
L 350.087861 128.816354 
L 350.597199 124.586312 
L 350.663256 128.269729 
L 350.982283 124.303619 
L 351.030286 125.285427 
L 351.35441 122.413882 
L 351.384359 122.534295 
L 351.398165 123.070741 
L 351.487373 120.6687 
L 351.560014 121.151453 
L 351.575095 122.574769 
L 351.768805 122.973675 
L 351.910052 124.809727 
L 352.106311 122.202115 
L 352.497129 120.850351 
L 352.659616 119.79912 
L 352.692751 122.730741 
L 352.889009 120.785008 
L 353.206337 115.816902 
L 353.403233 116.265982 
L 353.597368 113.050314 
L 353.805521 113.967443 
L 354.198888 108.82534 
L 354.3892 107.800518 
L 354.411714 110.281028 
L 354.610734 110.683305 
L 354.805082 110.034296 
L 355.386849 104.37977 
L 355.583108 103.611604 
L 355.843936 100.958476 
L 355.871336 101.706843 
L 355.983059 101.375142 
L 356.003237 102.762075 
L 356.178468 103.338332 
L 356.372178 103.326383 
L 356.560366 109.235589 
L 356.676974 108.032308 
L 356.868773 107.162256 
L 356.882579 109.91638 
L 356.983894 109.286807 
L 356.999824 109.52355 
L 357.221571 106.278681 
L 357.245997 106.471399 
L 357.24621 108.466016 
L 357.355384 107.379415 
L 357.550793 105.14016 
L 357.583291 106.923672 
L 357.704784 106.201531 
L 357.806525 106.532941 
L 357.83265 109.111854 
L 357.961365 107.906033 
L 358.116418 111.730639 
L 358.309066 110.277456 
L 358.363228 114.305013 
L 358.483235 113.08486 
L 358.500864 114.617609 
L 358.680981 112.854614 
L 358.790792 113.514613 
L 358.813519 115.666101 
L 358.928428 115.184099 
L 358.941385 115.901038 
L 359.056506 114.698536 
L 359.168017 116.248315 
L 359.296944 120.688283 
L 359.297157 120.480703 
L 359.704118 116.221925 
L 359.881261 121.775395 
L 360.07136 120.155099 
L 360.085166 121.18053 
L 360.194765 120.548417 
L 360.224501 122.486086 
L 360.422459 119.756124 
L 360.485117 120.33426 
L 360.500623 121.627447 
L 360.567317 121.024734 
L 360.729379 122.347296 
L 361.064336 119.846909 
L 361.077292 119.936361 
L 361.20006 122.087828 
L 361.311146 120.63316 
L 361.435613 122.117848 
L 361.61042 122.282321 
L 361.804767 125.970899 
L 361.915428 125.030129 
L 362.109563 125.341083 
L 362.184328 124.696449 
L 362.204718 124.863064 
L 362.455564 125.480059 
L 362.59936 124.508288 
L 362.770768 122.397408 
L 362.845958 127.421843 
L 362.967239 127.733138 
L 363.075564 127.247322 
L 363.089795 128.592598 
L 363.203854 127.961997 
L 363.311329 128.513397 
L 363.506951 123.099863 
L 363.537324 126.397806 
L 363.614638 124.350942 
L 363.645649 124.297997 
L 363.756522 126.401892 
L 363.780524 126.129804 
L 363.872918 125.004562 
L 363.88991 127.0318 
L 364.001846 127.083032 
L 364.128649 129.166727 
L 364.617597 124.118774 
L 364.732294 124.400598 
L 364.7461 125.640887 
L 364.853363 124.186 
L 364.867169 125.528361 
L 364.940235 123.437611 
L 365.053657 124.10128 
L 365.181523 126.343028 
L 365.30153 124.645926 
L 365.411553 125.653773 
L 365.98355 120.49237 
L 366.179809 120.10003 
L 366.379041 120.039108 
L 366.573176 119.008013 
L 366.768373 116.075726 
L 366.936382 117.068835 
L 366.952312 118.977274 
L 367.150908 117.524686 
L 367.207831 117.658579 
L 367.290455 117.945776 
L 367.482254 117.643996 
L 367.553833 117.898595 
L 367.863302 113.419562 
L 368.058711 112.825522 
L 368.092058 112.984003 
L 368.447193 108.396714 
L 368.645576 109.022266 
L 369.126665 102.653798 
L 369.323773 103.484795 
L 369.71353 101.650913 
L 369.841183 102.02235 
L 369.925506 99.635701 
L 370.515132 97.751628 
L 370.656804 95.384909 
L 370.885985 96.13669 
L 370.992185 95.18621 
L 371.005567 95.207353 
L 371.14469 95.1464 
L 371.239633 97.253905 
L 371.256625 100.446852 
L 371.448211 98.649427 
L 371.499612 102.825057 
L 371.654877 100.04431 
L 371.846463 99.767634 
L 372.151684 97.72756 
L 372.27955 99.696141 
L 372.473047 98.675538 
L 372.573301 100.1883 
L 372.780817 100.246513 
L 372.794411 102.204835 
L 372.900611 102.040658 
L 373.011485 103.101483 
L 373.230046 98.838992 
L 373.2481 98.840967 
L 373.361097 98.75177 
L 373.377027 101.122343 
L 373.59134 100.8487 
L 373.785475 99.376294 
L 373.853868 102.291409 
L 373.961981 100.362086 
L 374.163125 100.180029 
L 374.21665 100.913477 
L 374.326886 99.660658 
L 374.44838 101.575763 
L 374.573909 99.463646 
L 374.588352 102.616994 
L 374.800753 103.756109 
L 374.931168 101.783065 
L 375.125727 101.514596 
L 375.143569 102.967994 
L 375.366166 100.663196 
L 375.381458 100.923666 
L 375.791818 95.833769 
L 375.92648 97.051846 
L 376.035654 95.482486 
L 376.114455 96.005899 
L 376.13081 98.212151 
L 376.258463 97.349412 
L 376.361903 98.346536 
L 376.557949 98.428299 
L 376.948768 99.771085 
L 377.786054 93.192826 
L 378.048582 92.758905 
L 378.670705 86.420204 
L 378.867601 85.352636 
L 379.092959 82.267021 
L 379.134165 85.220002 
L 379.309608 86.900264 
L 379.469122 84.383021 
L 379.679399 86.347062 
L 379.887765 84.58983 
L 380.012232 87.063034 
L 380.07574 85.936403 
L 380.12438 86.967372 
L 380.138186 89.613664 
L 381.197431 73.853706 
L 381.309791 73.73489 
L 381.363954 73.14241 
L 381.588887 75.481718 
L 381.609914 78.078185 
L 381.798739 75.970404 
L 381.820829 77.883278 
L 382.014539 78.251208 
L 382.160671 83.807581 
L 382.355231 82.795785 
L 382.564234 82.659293 
L 382.705268 85.371677 
L 382.79745 83.158955 
L 382.850338 83.898728 
L 383.073997 91.773161 
L 383.177224 92.71445 
L 383.371359 92.595379 
L 383.645781 92.179454 
L 383.823773 88.731886 
L 383.850111 89.139079 
L 384.044246 87.463786 
L 384.074619 92.367719 
L 384.415099 89.100636 
L 384.42763 89.224175 
L 384.532981 89.602319 
L 384.622402 90.646356 
L 384.926561 86.87345 
L 385.121121 87.753264 
L 385.696091 83.76228 
L 385.727951 85.972352 
L 385.744943 85.952471 
L 385.866012 85.217229 
L 386.169321 81.838141 
L 386.227307 82.091838 
L 386.241113 82.25263 
L 386.317577 79.442317 
L 386.353048 79.640697 
L 386.532315 79.973614 
L 386.548245 82.332081 
L 386.578406 80.846396 
L 386.7804 79.188828 
L 386.798454 79.195438 
L 387.146367 82.032695 
L 387.416117 79.448815 
L 387.610464 79.226999 
L 387.805873 77.233242 
L 387.835609 77.295545 
L 388.133183 77.398249 
L 388.159946 79.334477 
L 388.76444 69.80551 
L 388.789079 71.236063 
L 389.098123 68.181795 
L 389.121487 68.434539 
L 389.233635 69.974827 
L 389.584522 67.236931 
L 390.043096 60.594255 
L 390.095559 60.653071 
L 390.147173 62.259531 
L 390.342369 59.403145 
L 390.375929 59.413567 
L 390.568789 58.158104 
L 390.992318 51.682826 
L 391.217038 50.531642 
L 391.232331 50.964746 
L 391.34108 51.64863 
L 391.355949 52.890652 
L 391.472982 51.781976 
L 391.487 52.041586 
L 391.618901 52.672716 
L 391.746555 54.469435 
L 391.858915 53.615941 
L 391.968514 53.648184 
L 392.075352 53.871122 
L 392.091494 55.824972 
L 392.203642 54.353529 
L 392.217873 54.406895 
L 392.454488 55.426846 
L 392.47148 57.305912 
L 392.582779 56.896402 
L 392.599771 56.936899 
L 392.678571 57.40655 
L 392.713405 60.491593 
L 392.826828 62.085784 
L 392.84297 61.879366 
L 393.017776 57.62999 
L 393.104436 59.284234 
L 393.118667 59.263221 
L 393.313439 60.0451 
L 393.613774 56.681612 
L 393.841681 52.052601 
L 393.969971 51.025906 
L 394.163469 50.927974 
L 394.359091 51.175867 
L 394.601441 47.624157 
L 395.011163 43.518182 
L 395.29217 46.829444 
L 395.578274 44.691625 
L 395.591231 46.203551 
L 395.883707 45.019298 
L 395.977164 46.320031 
L 396.099295 51.079602 
L 396.204858 53.030198 
L 396.22185 55.443153 
L 396.484166 59.631842 
L 396.591641 58.556308 
L 396.606934 60.07062 
L 396.797245 59.397194 
L 396.919164 61.83122 
L 397.069544 65.995317 
L 397.175744 67.235791 
L 397.189551 70.079767 
L 397.296813 68.372121 
L 397.434662 68.357912 
L 397.731811 71.730513 
L 397.808913 74.905345 
L 397.867111 74.686193 
L 397.967364 76.40166 
L 397.992003 81.40626 
L 398.319738 85.044725 
L 398.511961 85.981377 
L 398.700998 85.847554 
L 398.889611 85.100513 
L 399.130261 80.28245 
L 399.320573 79.175969 
L 399.3707 77.318305 
L 399.488157 77.368336 
L 399.706718 76.083619 
L 399.823539 77.988447 
L 400.023834 76.013752 
L 400.039551 76.299185 
L 400.194179 78.194761 
L 400.34286 77.126987 
L 400.533172 77.86072 
L 400.719235 77.183549 
L 400.855385 75.040943 
L 401.060564 73.655221 
L 401.245778 71.040709 
L 401.423771 70.884344 
L 401.614719 69.611295 
L 401.648279 69.642469 
L 401.837104 71.066243 
L 401.995767 67.167671 
L 402.04462 67.88943 
L 402.060975 69.86132 
L 402.2755 72.376187 
L 402.573711 67.948301 
L 402.668442 66.432509 
L 402.683735 68.010284 
L 402.788661 66.312367 
L 402.945414 68.328927 
L 402.978336 71.076986 
L 403.0822 70.477038 
L 403.185852 69.938483 
L 403.202844 71.771593 
L 403.392731 72.814504 
L 403.643364 69.423435 
L 403.643577 70.313957 
L 403.788222 71.212573 
L 403.976197 70.939016 
L 404.262727 64.876161 
L 404.363405 67.990107 
L 404.473004 68.770297 
L 404.485535 71.480066 
L 404.580479 69.467157 
L 404.633792 70.038842 
L 404.772702 74.387533 
L 404.737231 69.591848 
L 404.788207 74.313068 
L 404.903541 73.043314 
L 404.938163 73.131348 
L 404.988077 75.249953 
L 405.200691 74.166695 
L 405.324733 75.345552 
L 405.33769 77.555202 
L 405.639512 73.049877 
L 405.694736 73.519179 
L 405.884623 73.333695 
L 406.138442 69.585394 
L 406.297531 77.310326 
L 406.488055 78.024961 
L 407.043272 70.148629 
L 407.214892 76.335347 
L 407.337023 77.262589 
L 407.354228 76.898518 
L 407.543052 76.632188 
L 407.703628 75.491967 
L 407.813864 75.868323 
L 408.13544 69.91407 
L 408.150945 69.921105 
L 408.274775 72.301367 
L 408.401578 70.786444 
L 408.417933 70.824048 
L 408.4893 70.759401 
L 408.519461 76.241052 
L 408.811301 73.632591 
L 408.951273 73.090381 
L 409.112698 73.215016 
L 409.316391 73.835374 
L 409.50649 75.219076 
L 409.805339 72.618395 
L 409.83465 73.511632 
L 409.849518 73.764224 
L 410.037706 71.639103 
L 410.070628 74.680836 
L 410.12479 73.280652 
L 410.586551 76.032115 
L 410.774738 75.962302 
L 410.850141 75.290069 
L 410.968236 77.561252 
L 411.154087 75.979374 
L 411.357567 73.182118 
L 411.397499 76.340318 
L 411.583138 75.588096 
L 411.646008 77.468863 
L 411.758794 76.988417 
L 411.773449 77.311957 
L 412.013038 80.667697 
L 412.233298 78.881741 
L 412.342685 79.038146 
L 412.461842 80.303353 
L 412.573353 79.158463 
L 412.593531 80.191006 
L 412.785966 80.641304 
L 412.973517 80.340825 
L 413.085027 79.785816 
L 413.098833 82.444094 
L 413.20291 81.163428 
L 413.219902 82.575297 
L 413.363698 83.196975 
L 413.378778 84.484362 
L 413.483705 83.604035 
L 413.675715 85.033145 
L 413.941217 83.234835 
L 414.008336 84.777435 
L 414.197161 82.620247 
L 414.213728 84.204554 
L 414.387047 81.611291 
L 414.405314 83.724267 
L 414.643416 80.634703 
L 414.662957 82.062266 
L 414.727527 83.905056 
L 414.897235 82.876946 
L 414.911041 83.937461 
L 414.975611 82.241446 
L 415.294213 78.035778 
L 415.422929 82.099587 
L 415.530191 82.063829 
L 415.548245 84.770203 
L 415.731972 82.094183 
L 415.750451 84.217448 
L 415.932054 81.695202 
L 416.052486 83.478568 
L 416.182051 88.896473 
L 416.317775 86.801076 
L 416.334555 87.195918 
L 416.398275 87.048839 
L 416.465182 85.382277 
L 416.536124 85.621358 
L 416.726648 83.376095 
L 416.963263 83.399464 
L 417.07626 83.243851 
L 417.239597 83.805761 
L 417.376596 86.861189 
L 417.43798 86.85648 
L 417.545667 85.005417 
L 417.66801 87.963407 
L 417.777609 89.091853 
L 417.909298 88.913295 
L 418.032916 92.905102 
L 418.05012 93.075866 
L 418.292895 91.090932 
L 418.306276 91.967062 
L 418.425433 90.298802 
L 418.439664 90.80636 
L 418.676067 90.559141 
L 418.690723 91.616493 
L 418.746797 90.777353 
L 418.807543 91.237294 
L 418.890805 89.270101 
L 419.021644 88.269063 
L 419.155032 86.4879 
L 419.231496 87.36655 
L 419.269516 87.140013 
L 419.444747 85.698012 
L 419.554559 86.385026 
L 419.657786 85.108392 
L 419.677327 87.700619 
L 419.926261 88.557962 
L 420.038197 86.103141 
L 420.14291 86.969337 
L 420.248899 89.643202 
L 420.382924 89.696192 
L 420.540526 89.40916 
L 420.701738 97.223916 
L 420.809213 97.868694 
L 420.936442 102.842128 
L 420.953859 103.166295 
L 421.063033 102.201664 
L 421.08045 104.186994 
L 421.18665 103.378373 
L 421.204705 104.231183 
L 421.400539 104.106083 
L 421.466808 110.518663 
L 421.578318 109.323546 
L 421.68898 109.923632 
L 421.714043 111.018719 
L 421.90924 108.611962 
L 421.956818 108.999773 
L 422.141394 107.491853 
L 422.171343 108.225713 
L 422.285827 108.066988 
L 422.347424 107.19247 
L 422.363566 108.658378 
L 422.520743 105.656128 
L 422.712329 104.509343 
L 422.770952 105.946344 
L 422.881825 106.310336 
L 422.897118 108.043188 
L 423.093377 107.38255 
L 423.211685 104.879733 
L 423.277317 106.116766 
L 423.340825 104.164691 
L 423.532411 103.355836 
L 423.663462 102.284748 
L 423.663462 102.284748 
" clip-path="url(#p8eb1f80bb2)" style="fill: none; stroke: #1f77b4; stroke-width: 2; stroke-linecap: square"/>
   </g>
   <g id="patch_3">
    <path d="M 62.57 294.64 
L 62.57 31.56 
" style="fill: none; stroke: #000000; stroke-width: 0.8; stroke-linejoin: miter; stroke-linecap: square"/>
   </g>
   <g id="patch_4">
    <path d="M 440.858389 294.64 
L 440.858389 31.56 
" style="fill: none; stroke: #000000; stroke-width: 0.8; stroke-linejoin: miter; stroke-linecap: square"/>
   </g>
   <g id="patch_5">
    <path d="M 62.57 294.64 
L 440.858389 294.64 
" style="fill: none; stroke: #000000; stroke-width: 0.8; stroke-linejoin: miter; stroke-linecap: square"/>
   </g>
   <g id="patch_6">
    <path d="M 62.57 31.56 
L 440.858389 31.56 
" style="fill: none; stroke: #000000; stroke-width: 0.8; stroke-linejoin: miter; stroke-linecap: square"/>
   </g>
   <g id="text_22">
    <!-- Learning Curve Smoothed -->
    <g transform="translate(150.032663 25.56)scale(0.156 -0.156)">
     <defs>
      <path id="DejaVuSans-4c" d="M 628 4666 
L 1259 4666 
L 1259 531 
L 3531 531 
L 3531 0 
L 628 0 
L 628 4666 
z
" transform="scale(0.015625)"/>
      <path id="DejaVuSans-6e" d="M 3513 2113 
L 3513 0 
L 2938 0 
L 2938 2094 
Q 2938 2591 2744 2837 
Q 2550 3084 2163 3084 
Q 1697 3084 1428 2787 
Q 1159 2491 1159 1978 
L 1159 0 
L 581 0 
L 581 3500 
L 1159 3500 
L 1159 2956 
Q 1366 3272 1645 3428 
Q 1925 3584 2291 3584 
Q 2894 3584 3203 3211 
Q 3513 2838 3513 2113 
z
" transform="scale(0.015625)"/>
      <path id="DejaVuSans-67" d="M 2906 1791 
Q 2906 2416 2648 2759 
Q 2391 3103 1925 3103 
Q 1463 3103 1205 2759 
Q 947 2416 947 1791 
Q 947 1169 1205 825 
Q 1463 481 1925 481 
Q 2391 481 2648 825 
Q 2906 1169 2906 1791 
z
M 3481 434 
Q 3481 -459 3084 -895 
Q 2688 -1331 1869 -1331 
Q 1566 -1331 1297 -1286 
Q 1028 -1241 775 -1147 
L 775 -588 
Q 1028 -725 1275 -790 
Q 1522 -856 1778 -856 
Q 2344 -856 2625 -561 
Q 2906 -266 2906 331 
L 2906 616 
Q 2728 306 2450 153 
Q 2172 0 1784 0 
Q 1141 0 747 490 
Q 353 981 353 1791 
Q 353 2603 747 3093 
Q 1141 3584 1784 3584 
Q 2172 3584 2450 3431 
Q 2728 3278 2906 2969 
L 2906 3500 
L 3481 3500 
L 3481 434 
z
" transform="scale(0.015625)"/>
      <path id="DejaVuSans-43" d="M 4122 4306 
L 4122 3641 
Q 3803 3938 3442 4084 
Q 3081 4231 2675 4231 
Q 1875 4231 1450 3742 
Q 1025 3253 1025 2328 
Q 1025 1406 1450 917 
Q 1875 428 2675 428 
Q 3081 428 3442 575 
Q 3803 722 4122 1019 
L 4122 359 
Q 3791 134 3420 21 
Q 3050 -91 2638 -91 
Q 1578 -91 968 557 
Q 359 1206 359 2328 
Q 359 3453 968 4101 
Q 1578 4750 2638 4750 
Q 3056 4750 3426 4639 
Q 3797 4528 4122 4306 
z
" transform="scale(0.015625)"/>
      <path id="DejaVuSans-76" d="M 191 3500 
L 800 3500 
L 1894 563 
L 2988 3500 
L 3597 3500 
L 2284 0 
L 1503 0 
L 191 3500 
z
" transform="scale(0.015625)"/>
      <path id="DejaVuSans-53" d="M 3425 4513 
L 3425 3897 
Q 3066 4069 2747 4153 
Q 2428 4238 2131 4238 
Q 1616 4238 1336 4038 
Q 1056 3838 1056 3469 
Q 1056 3159 1242 3001 
Q 1428 2844 1947 2747 
L 2328 2669 
Q 3034 2534 3370 2195 
Q 3706 1856 3706 1288 
Q 3706 609 3251 259 
Q 2797 -91 1919 -91 
Q 1588 -91 1214 -16 
Q 841 59 441 206 
L 441 856 
Q 825 641 1194 531 
Q 1563 422 1919 422 
Q 2459 422 2753 634 
Q 3047 847 3047 1241 
Q 3047 1584 2836 1778 
Q 2625 1972 2144 2069 
L 1759 2144 
Q 1053 2284 737 2584 
Q 422 2884 422 3419 
Q 422 4038 858 4394 
Q 1294 4750 2059 4750 
Q 2388 4750 2728 4690 
Q 3069 4631 3425 4513 
z
" transform="scale(0.015625)"/>
      <path id="DejaVuSans-68" d="M 3513 2113 
L 3513 0 
L 2938 0 
L 2938 2094 
Q 2938 2591 2744 2837 
Q 2550 3084 2163 3084 
Q 1697 3084 1428 2787 
Q 1159 2491 1159 1978 
L 1159 0 
L 581 0 
L 581 4863 
L 1159 4863 
L 1159 2956 
Q 1366 3272 1645 3428 
Q 1925 3584 2291 3584 
Q 2894 3584 3203 3211 
Q 3513 2838 3513 2113 
z
" transform="scale(0.015625)"/>
     </defs>
     <use xlink:href="#DejaVuSans-4c"/>
     <use xlink:href="#DejaVuSans-65" x="53.962891"/>
     <use xlink:href="#DejaVuSans-61" x="115.486328"/>
     <use xlink:href="#DejaVuSans-72" x="176.765625"/>
     <use xlink:href="#DejaVuSans-6e" x="216.128906"/>
     <use xlink:href="#DejaVuSans-69" x="279.507812"/>
     <use xlink:href="#DejaVuSans-6e" x="307.291016"/>
     <use xlink:href="#DejaVuSans-67" x="370.669922"/>
     <use xlink:href="#DejaVuSans-20" x="434.146484"/>
     <use xlink:href="#DejaVuSans-43" x="465.933594"/>
     <use xlink:href="#DejaVuSans-75" x="535.757812"/>
     <use xlink:href="#DejaVuSans-72" x="599.136719"/>
     <use xlink:href="#DejaVuSans-76" x="640.25"/>
     <use xlink:href="#DejaVuSans-65" x="699.429688"/>
     <use xlink:href="#DejaVuSans-20" x="760.953125"/>
     <use xlink:href="#DejaVuSans-53" x="792.740234"/>
     <use xlink:href="#DejaVuSans-6d" x="856.216797"/>
     <use xlink:href="#DejaVuSans-6f" x="953.628906"/>
     <use xlink:href="#DejaVuSans-6f" x="1014.810547"/>
     <use xlink:href="#DejaVuSans-74" x="1075.992188"/>
     <use xlink:href="#DejaVuSans-68" x="1115.201172"/>
     <use xlink:href="#DejaVuSans-65" x="1178.580078"/>
     <use xlink:href="#DejaVuSans-64" x="1240.103516"/>
    </g>
   </g>
   <g id="legend_1">
    <g id="patch_7">
     <path d="M 71.67 61.041562 
L 208.129375 61.041562 
Q 210.729375 61.041562 210.729375 58.441562 
L 210.729375 40.66 
Q 210.729375 38.06 208.129375 38.06 
L 71.67 38.06 
Q 69.07 38.06 69.07 40.66 
L 69.07 58.441562 
Q 69.07 61.041562 71.67 61.041562 
z
" style="fill: #ffffff; opacity: 0.8; stroke: #cccccc; stroke-linejoin: miter"/>
    </g>
    <g id="line2d_38">
     <path d="M 74.27 48.587969 
L 87.27 48.587969 
L 100.27 48.587969 
" style="fill: none; stroke: #1f77b4; stroke-width: 2; stroke-linecap: square"/>
    </g>
    <g id="text_23">
     <!-- Filter size: 300 -->
     <g transform="translate(110.67 53.137969)scale(0.13 -0.13)">
      <defs>
       <path id="DejaVuSans-46" d="M 628 4666 
L 3309 4666 
L 3309 4134 
L 1259 4134 
L 1259 2759 
L 3109 2759 
L 3109 2228 
L 1259 2228 
L 1259 0 
L 628 0 
L 628 4666 
z
" transform="scale(0.015625)"/>
       <path id="DejaVuSans-6c" d="M 603 4863 
L 1178 4863 
L 1178 0 
L 603 0 
L 603 4863 
z
" transform="scale(0.015625)"/>
       <path id="DejaVuSans-7a" d="M 353 3500 
L 3084 3500 
L 3084 2975 
L 922 459 
L 3084 459 
L 3084 0 
L 275 0 
L 275 525 
L 2438 3041 
L 353 3041 
L 353 3500 
z
" transform="scale(0.015625)"/>
       <path id="DejaVuSans-3a" d="M 750 794 
L 1409 794 
L 1409 0 
L 750 0 
L 750 794 
z
M 750 3309 
L 1409 3309 
L 1409 2516 
L 750 2516 
L 750 3309 
z
" transform="scale(0.015625)"/>
       <path id="DejaVuSans-33" d="M 2597 2516 
Q 3050 2419 3304 2112 
Q 3559 1806 3559 1356 
Q 3559 666 3084 287 
Q 2609 -91 1734 -91 
Q 1441 -91 1130 -33 
Q 819 25 488 141 
L 488 750 
Q 750 597 1062 519 
Q 1375 441 1716 441 
Q 2309 441 2620 675 
Q 2931 909 2931 1356 
Q 2931 1769 2642 2001 
Q 2353 2234 1838 2234 
L 1294 2234 
L 1294 2753 
L 1863 2753 
Q 2328 2753 2575 2939 
Q 2822 3125 2822 3475 
Q 2822 3834 2567 4026 
Q 2313 4219 1838 4219 
Q 1578 4219 1281 4162 
Q 984 4106 628 3988 
L 628 4550 
Q 988 4650 1302 4700 
Q 1616 4750 1894 4750 
Q 2613 4750 3031 4423 
Q 3450 4097 3450 3541 
Q 3450 3153 3228 2886 
Q 3006 2619 2597 2516 
z
" transform="scale(0.015625)"/>
      </defs>
      <use xlink:href="#DejaVuSans-46"/>
      <use xlink:href="#DejaVuSans-69" x="50.269531"/>
      <use xlink:href="#DejaVuSans-6c" x="78.052734"/>
      <use xlink:href="#DejaVuSans-74" x="105.835938"/>
      <use xlink:href="#DejaVuSans-65" x="145.044922"/>
      <use xlink:href="#DejaVuSans-72" x="206.568359"/>
      <use xlink:href="#DejaVuSans-20" x="247.681641"/>
      <use xlink:href="#DejaVuSans-73" x="279.46875"/>
      <use xlink:href="#DejaVuSans-69" x="331.568359"/>
      <use xlink:href="#DejaVuSans-7a" x="359.351562"/>
      <use xlink:href="#DejaVuSans-65" x="411.841797"/>
      <use xlink:href="#DejaVuSans-3a" x="473.365234"/>
      <use xlink:href="#DejaVuSans-20" x="507.056641"/>
      <use xlink:href="#DejaVuSans-33" x="538.84375"/>
      <use xlink:href="#DejaVuSans-30" x="602.466797"/>
      <use xlink:href="#DejaVuSans-30" x="666.089844"/>
     </g>
    </g>
   </g>
  </g>
 </g>
 <defs>
  <clipPath id="p8eb1f80bb2">
   <rect x="62.57" y="31.56" width="378.288389" height="263.08"/>
  </clipPath>
 </defs>
</svg>
