<?xml version="1.0" encoding="utf-8" standalone="no"?>
<!DOCTYPE svg PUBLIC "-//W3C//DTD SVG 1.1//EN"
  "http://www.w3.org/Graphics/SVG/1.1/DTD/svg11.dtd">
<svg xmlns:xlink="http://www.w3.org/1999/xlink" width="460.8pt" height="345.6pt" viewBox="0 0 460.8 345.6" xmlns="http://www.w3.org/2000/svg" version="1.1">
 <metadata>
  <rdf:RDF xmlns:dc="http://purl.org/dc/elements/1.1/" xmlns:cc="http://creativecommons.org/ns#" xmlns:rdf="http://www.w3.org/1999/02/22-rdf-syntax-ns#">
   <cc:Work>
    <dc:type rdf:resource="http://purl.org/dc/dcmitype/StillImage"/>
    <dc:date>2022-06-03T13:52:32.293340</dc:date>
    <dc:format>image/svg+xml</dc:format>
    <dc:creator>
     <cc:Agent>
      <dc:title>Matplotlib v3.5.1, https://matplotlib.org/</dc:title>
     </cc:Agent>
    </dc:creator>
   </cc:Work>
  </rdf:RDF>
 </metadata>
 <defs>
  <style type="text/css">*{stroke-linejoin: round; stroke-linecap: butt}</style>
 </defs>
 <g id="figure_1">
  <g id="patch_1">
   <path d="M 0 345.6 
L 460.8 345.6 
L 460.8 0 
L 0 0 
z
" style="fill: #ffffff"/>
  </g>
  <g id="axes_1">
   <g id="patch_2">
    <path d="M 73.64 294.64 
L 443.018691 294.64 
L 443.018691 31.56 
L 73.64 31.56 
z
" style="fill: #ffffff"/>
   </g>
   <g id="matplotlib.axis_1">
    <g id="xtick_1">
     <g id="line2d_1">
      <path d="M 98.963304 294.64 
L 98.963304 31.56 
" clip-path="url(#pcff064373c)" style="fill: none; stroke: #b0b0b0; stroke-width: 0.8; stroke-linecap: square"/>
     </g>
     <g id="line2d_2">
      <defs>
       <path id="mae0c3f8106" d="M 0 0 
L 0 3.5 
" style="stroke: #000000; stroke-width: 0.8"/>
      </defs>
      <g>
       <use xlink:href="#mae0c3f8106" x="98.963304" y="294.64" style="stroke: #000000; stroke-width: 0.8"/>
      </g>
     </g>
     <g id="text_1">
      <!-- 100000 -->
      <g transform="translate(74.149554 311.517969)scale(0.13 -0.13)">
       <defs>
        <path id="DejaVuSans-31" d="M 794 531 
L 1825 531 
L 1825 4091 
L 703 3866 
L 703 4441 
L 1819 4666 
L 2450 4666 
L 2450 531 
L 3481 531 
L 3481 0 
L 794 0 
L 794 531 
z
" transform="scale(0.015625)"/>
        <path id="DejaVuSans-30" d="M 2034 4250 
Q 1547 4250 1301 3770 
Q 1056 3291 1056 2328 
Q 1056 1369 1301 889 
Q 1547 409 2034 409 
Q 2525 409 2770 889 
Q 3016 1369 3016 2328 
Q 3016 3291 2770 3770 
Q 2525 4250 2034 4250 
z
M 2034 4750 
Q 2819 4750 3233 4129 
Q 3647 3509 3647 2328 
Q 3647 1150 3233 529 
Q 2819 -91 2034 -91 
Q 1250 -91 836 529 
Q 422 1150 422 2328 
Q 422 3509 836 4129 
Q 1250 4750 2034 4750 
z
" transform="scale(0.015625)"/>
       </defs>
       <use xlink:href="#DejaVuSans-31"/>
       <use xlink:href="#DejaVuSans-30" x="63.623047"/>
       <use xlink:href="#DejaVuSans-30" x="127.246094"/>
       <use xlink:href="#DejaVuSans-30" x="190.869141"/>
       <use xlink:href="#DejaVuSans-30" x="254.492188"/>
       <use xlink:href="#DejaVuSans-30" x="318.115234"/>
      </g>
     </g>
    </g>
    <g id="xtick_2">
     <g id="line2d_3">
      <path d="M 163.512192 294.64 
L 163.512192 31.56 
" clip-path="url(#pcff064373c)" style="fill: none; stroke: #b0b0b0; stroke-width: 0.8; stroke-linecap: square"/>
     </g>
     <g id="line2d_4">
      <g>
       <use xlink:href="#mae0c3f8106" x="163.512192" y="294.64" style="stroke: #000000; stroke-width: 0.8"/>
      </g>
     </g>
     <g id="text_2">
      <!-- 200000 -->
      <g transform="translate(138.698442 311.517969)scale(0.13 -0.13)">
       <defs>
        <path id="DejaVuSans-32" d="M 1228 531 
L 3431 531 
L 3431 0 
L 469 0 
L 469 531 
Q 828 903 1448 1529 
Q 2069 2156 2228 2338 
Q 2531 2678 2651 2914 
Q 2772 3150 2772 3378 
Q 2772 3750 2511 3984 
Q 2250 4219 1831 4219 
Q 1534 4219 1204 4116 
Q 875 4013 500 3803 
L 500 4441 
Q 881 4594 1212 4672 
Q 1544 4750 1819 4750 
Q 2544 4750 2975 4387 
Q 3406 4025 3406 3419 
Q 3406 3131 3298 2873 
Q 3191 2616 2906 2266 
Q 2828 2175 2409 1742 
Q 1991 1309 1228 531 
z
" transform="scale(0.015625)"/>
       </defs>
       <use xlink:href="#DejaVuSans-32"/>
       <use xlink:href="#DejaVuSans-30" x="63.623047"/>
       <use xlink:href="#DejaVuSans-30" x="127.246094"/>
       <use xlink:href="#DejaVuSans-30" x="190.869141"/>
       <use xlink:href="#DejaVuSans-30" x="254.492188"/>
       <use xlink:href="#DejaVuSans-30" x="318.115234"/>
      </g>
     </g>
    </g>
    <g id="xtick_3">
     <g id="line2d_5">
      <path d="M 228.061081 294.64 
L 228.061081 31.56 
" clip-path="url(#pcff064373c)" style="fill: none; stroke: #b0b0b0; stroke-width: 0.8; stroke-linecap: square"/>
     </g>
     <g id="line2d_6">
      <g>
       <use xlink:href="#mae0c3f8106" x="228.061081" y="294.64" style="stroke: #000000; stroke-width: 0.8"/>
      </g>
     </g>
     <g id="text_3">
      <!-- 300000 -->
      <g transform="translate(203.247331 311.517969)scale(0.13 -0.13)">
       <defs>
        <path id="DejaVuSans-33" d="M 2597 2516 
Q 3050 2419 3304 2112 
Q 3559 1806 3559 1356 
Q 3559 666 3084 287 
Q 2609 -91 1734 -91 
Q 1441 -91 1130 -33 
Q 819 25 488 141 
L 488 750 
Q 750 597 1062 519 
Q 1375 441 1716 441 
Q 2309 441 2620 675 
Q 2931 909 2931 1356 
Q 2931 1769 2642 2001 
Q 2353 2234 1838 2234 
L 1294 2234 
L 1294 2753 
L 1863 2753 
Q 2328 2753 2575 2939 
Q 2822 3125 2822 3475 
Q 2822 3834 2567 4026 
Q 2313 4219 1838 4219 
Q 1578 4219 1281 4162 
Q 984 4106 628 3988 
L 628 4550 
Q 988 4650 1302 4700 
Q 1616 4750 1894 4750 
Q 2613 4750 3031 4423 
Q 3450 4097 3450 3541 
Q 3450 3153 3228 2886 
Q 3006 2619 2597 2516 
z
" transform="scale(0.015625)"/>
       </defs>
       <use xlink:href="#DejaVuSans-33"/>
       <use xlink:href="#DejaVuSans-30" x="63.623047"/>
       <use xlink:href="#DejaVuSans-30" x="127.246094"/>
       <use xlink:href="#DejaVuSans-30" x="190.869141"/>
       <use xlink:href="#DejaVuSans-30" x="254.492188"/>
       <use xlink:href="#DejaVuSans-30" x="318.115234"/>
      </g>
     </g>
    </g>
    <g id="xtick_4">
     <g id="line2d_7">
      <path d="M 292.609969 294.64 
L 292.609969 31.56 
" clip-path="url(#pcff064373c)" style="fill: none; stroke: #b0b0b0; stroke-width: 0.8; stroke-linecap: square"/>
     </g>
     <g id="line2d_8">
      <g>
       <use xlink:href="#mae0c3f8106" x="292.609969" y="294.64" style="stroke: #000000; stroke-width: 0.8"/>
      </g>
     </g>
     <g id="text_4">
      <!-- 400000 -->
      <g transform="translate(267.796219 311.517969)scale(0.13 -0.13)">
       <defs>
        <path id="DejaVuSans-34" d="M 2419 4116 
L 825 1625 
L 2419 1625 
L 2419 4116 
z
M 2253 4666 
L 3047 4666 
L 3047 1625 
L 3713 1625 
L 3713 1100 
L 3047 1100 
L 3047 0 
L 2419 0 
L 2419 1100 
L 313 1100 
L 313 1709 
L 2253 4666 
z
" transform="scale(0.015625)"/>
       </defs>
       <use xlink:href="#DejaVuSans-34"/>
       <use xlink:href="#DejaVuSans-30" x="63.623047"/>
       <use xlink:href="#DejaVuSans-30" x="127.246094"/>
       <use xlink:href="#DejaVuSans-30" x="190.869141"/>
       <use xlink:href="#DejaVuSans-30" x="254.492188"/>
       <use xlink:href="#DejaVuSans-30" x="318.115234"/>
      </g>
     </g>
    </g>
    <g id="xtick_5">
     <g id="line2d_9">
      <path d="M 357.158858 294.64 
L 357.158858 31.56 
" clip-path="url(#pcff064373c)" style="fill: none; stroke: #b0b0b0; stroke-width: 0.8; stroke-linecap: square"/>
     </g>
     <g id="line2d_10">
      <g>
       <use xlink:href="#mae0c3f8106" x="357.158858" y="294.64" style="stroke: #000000; stroke-width: 0.8"/>
      </g>
     </g>
     <g id="text_5">
      <!-- 500000 -->
      <g transform="translate(332.345108 311.517969)scale(0.13 -0.13)">
       <defs>
        <path id="DejaVuSans-35" d="M 691 4666 
L 3169 4666 
L 3169 4134 
L 1269 4134 
L 1269 2991 
Q 1406 3038 1543 3061 
Q 1681 3084 1819 3084 
Q 2600 3084 3056 2656 
Q 3513 2228 3513 1497 
Q 3513 744 3044 326 
Q 2575 -91 1722 -91 
Q 1428 -91 1123 -41 
Q 819 9 494 109 
L 494 744 
Q 775 591 1075 516 
Q 1375 441 1709 441 
Q 2250 441 2565 725 
Q 2881 1009 2881 1497 
Q 2881 1984 2565 2268 
Q 2250 2553 1709 2553 
Q 1456 2553 1204 2497 
Q 953 2441 691 2322 
L 691 4666 
z
" transform="scale(0.015625)"/>
       </defs>
       <use xlink:href="#DejaVuSans-35"/>
       <use xlink:href="#DejaVuSans-30" x="63.623047"/>
       <use xlink:href="#DejaVuSans-30" x="127.246094"/>
       <use xlink:href="#DejaVuSans-30" x="190.869141"/>
       <use xlink:href="#DejaVuSans-30" x="254.492188"/>
       <use xlink:href="#DejaVuSans-30" x="318.115234"/>
      </g>
     </g>
    </g>
    <g id="xtick_6">
     <g id="line2d_11">
      <path d="M 421.707747 294.64 
L 421.707747 31.56 
" clip-path="url(#pcff064373c)" style="fill: none; stroke: #b0b0b0; stroke-width: 0.8; stroke-linecap: square"/>
     </g>
     <g id="line2d_12">
      <g>
       <use xlink:href="#mae0c3f8106" x="421.707747" y="294.64" style="stroke: #000000; stroke-width: 0.8"/>
      </g>
     </g>
     <g id="text_6">
      <!-- 600000 -->
      <g transform="translate(396.893997 311.517969)scale(0.13 -0.13)">
       <defs>
        <path id="DejaVuSans-36" d="M 2113 2584 
Q 1688 2584 1439 2293 
Q 1191 2003 1191 1497 
Q 1191 994 1439 701 
Q 1688 409 2113 409 
Q 2538 409 2786 701 
Q 3034 994 3034 1497 
Q 3034 2003 2786 2293 
Q 2538 2584 2113 2584 
z
M 3366 4563 
L 3366 3988 
Q 3128 4100 2886 4159 
Q 2644 4219 2406 4219 
Q 1781 4219 1451 3797 
Q 1122 3375 1075 2522 
Q 1259 2794 1537 2939 
Q 1816 3084 2150 3084 
Q 2853 3084 3261 2657 
Q 3669 2231 3669 1497 
Q 3669 778 3244 343 
Q 2819 -91 2113 -91 
Q 1303 -91 875 529 
Q 447 1150 447 2328 
Q 447 3434 972 4092 
Q 1497 4750 2381 4750 
Q 2619 4750 2861 4703 
Q 3103 4656 3366 4563 
z
" transform="scale(0.015625)"/>
       </defs>
       <use xlink:href="#DejaVuSans-36"/>
       <use xlink:href="#DejaVuSans-30" x="63.623047"/>
       <use xlink:href="#DejaVuSans-30" x="127.246094"/>
       <use xlink:href="#DejaVuSans-30" x="190.869141"/>
       <use xlink:href="#DejaVuSans-30" x="254.492188"/>
       <use xlink:href="#DejaVuSans-30" x="318.115234"/>
      </g>
     </g>
    </g>
    <g id="text_7">
     <!-- Number of Timesteps -->
     <g transform="translate(188.470596 328.099531)scale(0.13 -0.13)">
      <defs>
       <path id="DejaVuSans-4e" d="M 628 4666 
L 1478 4666 
L 3547 763 
L 3547 4666 
L 4159 4666 
L 4159 0 
L 3309 0 
L 1241 3903 
L 1241 0 
L 628 0 
L 628 4666 
z
" transform="scale(0.015625)"/>
       <path id="DejaVuSans-75" d="M 544 1381 
L 544 3500 
L 1119 3500 
L 1119 1403 
Q 1119 906 1312 657 
Q 1506 409 1894 409 
Q 2359 409 2629 706 
Q 2900 1003 2900 1516 
L 2900 3500 
L 3475 3500 
L 3475 0 
L 2900 0 
L 2900 538 
Q 2691 219 2414 64 
Q 2138 -91 1772 -91 
Q 1169 -91 856 284 
Q 544 659 544 1381 
z
M 1991 3584 
L 1991 3584 
z
" transform="scale(0.015625)"/>
       <path id="DejaVuSans-6d" d="M 3328 2828 
Q 3544 3216 3844 3400 
Q 4144 3584 4550 3584 
Q 5097 3584 5394 3201 
Q 5691 2819 5691 2113 
L 5691 0 
L 5113 0 
L 5113 2094 
Q 5113 2597 4934 2840 
Q 4756 3084 4391 3084 
Q 3944 3084 3684 2787 
Q 3425 2491 3425 1978 
L 3425 0 
L 2847 0 
L 2847 2094 
Q 2847 2600 2669 2842 
Q 2491 3084 2119 3084 
Q 1678 3084 1418 2786 
Q 1159 2488 1159 1978 
L 1159 0 
L 581 0 
L 581 3500 
L 1159 3500 
L 1159 2956 
Q 1356 3278 1631 3431 
Q 1906 3584 2284 3584 
Q 2666 3584 2933 3390 
Q 3200 3197 3328 2828 
z
" transform="scale(0.015625)"/>
       <path id="DejaVuSans-62" d="M 3116 1747 
Q 3116 2381 2855 2742 
Q 2594 3103 2138 3103 
Q 1681 3103 1420 2742 
Q 1159 2381 1159 1747 
Q 1159 1113 1420 752 
Q 1681 391 2138 391 
Q 2594 391 2855 752 
Q 3116 1113 3116 1747 
z
M 1159 2969 
Q 1341 3281 1617 3432 
Q 1894 3584 2278 3584 
Q 2916 3584 3314 3078 
Q 3713 2572 3713 1747 
Q 3713 922 3314 415 
Q 2916 -91 2278 -91 
Q 1894 -91 1617 61 
Q 1341 213 1159 525 
L 1159 0 
L 581 0 
L 581 4863 
L 1159 4863 
L 1159 2969 
z
" transform="scale(0.015625)"/>
       <path id="DejaVuSans-65" d="M 3597 1894 
L 3597 1613 
L 953 1613 
Q 991 1019 1311 708 
Q 1631 397 2203 397 
Q 2534 397 2845 478 
Q 3156 559 3463 722 
L 3463 178 
Q 3153 47 2828 -22 
Q 2503 -91 2169 -91 
Q 1331 -91 842 396 
Q 353 884 353 1716 
Q 353 2575 817 3079 
Q 1281 3584 2069 3584 
Q 2775 3584 3186 3129 
Q 3597 2675 3597 1894 
z
M 3022 2063 
Q 3016 2534 2758 2815 
Q 2500 3097 2075 3097 
Q 1594 3097 1305 2825 
Q 1016 2553 972 2059 
L 3022 2063 
z
" transform="scale(0.015625)"/>
       <path id="DejaVuSans-72" d="M 2631 2963 
Q 2534 3019 2420 3045 
Q 2306 3072 2169 3072 
Q 1681 3072 1420 2755 
Q 1159 2438 1159 1844 
L 1159 0 
L 581 0 
L 581 3500 
L 1159 3500 
L 1159 2956 
Q 1341 3275 1631 3429 
Q 1922 3584 2338 3584 
Q 2397 3584 2469 3576 
Q 2541 3569 2628 3553 
L 2631 2963 
z
" transform="scale(0.015625)"/>
       <path id="DejaVuSans-20" transform="scale(0.015625)"/>
       <path id="DejaVuSans-6f" d="M 1959 3097 
Q 1497 3097 1228 2736 
Q 959 2375 959 1747 
Q 959 1119 1226 758 
Q 1494 397 1959 397 
Q 2419 397 2687 759 
Q 2956 1122 2956 1747 
Q 2956 2369 2687 2733 
Q 2419 3097 1959 3097 
z
M 1959 3584 
Q 2709 3584 3137 3096 
Q 3566 2609 3566 1747 
Q 3566 888 3137 398 
Q 2709 -91 1959 -91 
Q 1206 -91 779 398 
Q 353 888 353 1747 
Q 353 2609 779 3096 
Q 1206 3584 1959 3584 
z
" transform="scale(0.015625)"/>
       <path id="DejaVuSans-66" d="M 2375 4863 
L 2375 4384 
L 1825 4384 
Q 1516 4384 1395 4259 
Q 1275 4134 1275 3809 
L 1275 3500 
L 2222 3500 
L 2222 3053 
L 1275 3053 
L 1275 0 
L 697 0 
L 697 3053 
L 147 3053 
L 147 3500 
L 697 3500 
L 697 3744 
Q 697 4328 969 4595 
Q 1241 4863 1831 4863 
L 2375 4863 
z
" transform="scale(0.015625)"/>
       <path id="DejaVuSans-54" d="M -19 4666 
L 3928 4666 
L 3928 4134 
L 2272 4134 
L 2272 0 
L 1638 0 
L 1638 4134 
L -19 4134 
L -19 4666 
z
" transform="scale(0.015625)"/>
       <path id="DejaVuSans-69" d="M 603 3500 
L 1178 3500 
L 1178 0 
L 603 0 
L 603 3500 
z
M 603 4863 
L 1178 4863 
L 1178 4134 
L 603 4134 
L 603 4863 
z
" transform="scale(0.015625)"/>
       <path id="DejaVuSans-73" d="M 2834 3397 
L 2834 2853 
Q 2591 2978 2328 3040 
Q 2066 3103 1784 3103 
Q 1356 3103 1142 2972 
Q 928 2841 928 2578 
Q 928 2378 1081 2264 
Q 1234 2150 1697 2047 
L 1894 2003 
Q 2506 1872 2764 1633 
Q 3022 1394 3022 966 
Q 3022 478 2636 193 
Q 2250 -91 1575 -91 
Q 1294 -91 989 -36 
Q 684 19 347 128 
L 347 722 
Q 666 556 975 473 
Q 1284 391 1588 391 
Q 1994 391 2212 530 
Q 2431 669 2431 922 
Q 2431 1156 2273 1281 
Q 2116 1406 1581 1522 
L 1381 1569 
Q 847 1681 609 1914 
Q 372 2147 372 2553 
Q 372 3047 722 3315 
Q 1072 3584 1716 3584 
Q 2034 3584 2315 3537 
Q 2597 3491 2834 3397 
z
" transform="scale(0.015625)"/>
       <path id="DejaVuSans-74" d="M 1172 4494 
L 1172 3500 
L 2356 3500 
L 2356 3053 
L 1172 3053 
L 1172 1153 
Q 1172 725 1289 603 
Q 1406 481 1766 481 
L 2356 481 
L 2356 0 
L 1766 0 
Q 1100 0 847 248 
Q 594 497 594 1153 
L 594 3053 
L 172 3053 
L 172 3500 
L 594 3500 
L 594 4494 
L 1172 4494 
z
" transform="scale(0.015625)"/>
       <path id="DejaVuSans-70" d="M 1159 525 
L 1159 -1331 
L 581 -1331 
L 581 3500 
L 1159 3500 
L 1159 2969 
Q 1341 3281 1617 3432 
Q 1894 3584 2278 3584 
Q 2916 3584 3314 3078 
Q 3713 2572 3713 1747 
Q 3713 922 3314 415 
Q 2916 -91 2278 -91 
Q 1894 -91 1617 61 
Q 1341 213 1159 525 
z
M 3116 1747 
Q 3116 2381 2855 2742 
Q 2594 3103 2138 3103 
Q 1681 3103 1420 2742 
Q 1159 2381 1159 1747 
Q 1159 1113 1420 752 
Q 1681 391 2138 391 
Q 2594 391 2855 752 
Q 3116 1113 3116 1747 
z
" transform="scale(0.015625)"/>
      </defs>
      <use xlink:href="#DejaVuSans-4e"/>
      <use xlink:href="#DejaVuSans-75" x="74.804688"/>
      <use xlink:href="#DejaVuSans-6d" x="138.183594"/>
      <use xlink:href="#DejaVuSans-62" x="235.595703"/>
      <use xlink:href="#DejaVuSans-65" x="299.072266"/>
      <use xlink:href="#DejaVuSans-72" x="360.595703"/>
      <use xlink:href="#DejaVuSans-20" x="401.708984"/>
      <use xlink:href="#DejaVuSans-6f" x="433.496094"/>
      <use xlink:href="#DejaVuSans-66" x="494.677734"/>
      <use xlink:href="#DejaVuSans-20" x="529.882812"/>
      <use xlink:href="#DejaVuSans-54" x="561.669922"/>
      <use xlink:href="#DejaVuSans-69" x="619.628906"/>
      <use xlink:href="#DejaVuSans-6d" x="647.412109"/>
      <use xlink:href="#DejaVuSans-65" x="744.824219"/>
      <use xlink:href="#DejaVuSans-73" x="806.347656"/>
      <use xlink:href="#DejaVuSans-74" x="858.447266"/>
      <use xlink:href="#DejaVuSans-65" x="897.65625"/>
      <use xlink:href="#DejaVuSans-70" x="959.179688"/>
      <use xlink:href="#DejaVuSans-73" x="1022.65625"/>
     </g>
    </g>
   </g>
   <g id="matplotlib.axis_2">
    <g id="ytick_1">
     <g id="line2d_13">
      <path d="M 73.64 294.64 
L 443.018691 294.64 
" clip-path="url(#pcff064373c)" style="fill: none; stroke: #b0b0b0; stroke-width: 0.8; stroke-linecap: square"/>
     </g>
     <g id="line2d_14">
      <defs>
       <path id="m985916a0ba" d="M 0 0 
L -3.5 0 
" style="stroke: #000000; stroke-width: 0.8"/>
      </defs>
      <g>
       <use xlink:href="#m985916a0ba" x="73.64" y="294.64" style="stroke: #000000; stroke-width: 0.8"/>
      </g>
     </g>
     <g id="text_8">
      <!-- −200 -->
      <g transform="translate(30.932656 299.578984)scale(0.13 -0.13)">
       <defs>
        <path id="DejaVuSans-2212" d="M 678 2272 
L 4684 2272 
L 4684 1741 
L 678 1741 
L 678 2272 
z
" transform="scale(0.015625)"/>
       </defs>
       <use xlink:href="#DejaVuSans-2212"/>
       <use xlink:href="#DejaVuSans-32" x="83.789062"/>
       <use xlink:href="#DejaVuSans-30" x="147.412109"/>
       <use xlink:href="#DejaVuSans-30" x="211.035156"/>
      </g>
     </g>
    </g>
    <g id="ytick_2">
     <g id="line2d_15">
      <path d="M 73.64 261.755 
L 443.018691 261.755 
" clip-path="url(#pcff064373c)" style="fill: none; stroke: #b0b0b0; stroke-width: 0.8; stroke-linecap: square"/>
     </g>
     <g id="line2d_16">
      <g>
       <use xlink:href="#m985916a0ba" x="73.64" y="261.755" style="stroke: #000000; stroke-width: 0.8"/>
      </g>
     </g>
     <g id="text_9">
      <!-- −175 -->
      <g transform="translate(30.932656 266.693984)scale(0.13 -0.13)">
       <defs>
        <path id="DejaVuSans-37" d="M 525 4666 
L 3525 4666 
L 3525 4397 
L 1831 0 
L 1172 0 
L 2766 4134 
L 525 4134 
L 525 4666 
z
" transform="scale(0.015625)"/>
       </defs>
       <use xlink:href="#DejaVuSans-2212"/>
       <use xlink:href="#DejaVuSans-31" x="83.789062"/>
       <use xlink:href="#DejaVuSans-37" x="147.412109"/>
       <use xlink:href="#DejaVuSans-35" x="211.035156"/>
      </g>
     </g>
    </g>
    <g id="ytick_3">
     <g id="line2d_17">
      <path d="M 73.64 228.87 
L 443.018691 228.87 
" clip-path="url(#pcff064373c)" style="fill: none; stroke: #b0b0b0; stroke-width: 0.8; stroke-linecap: square"/>
     </g>
     <g id="line2d_18">
      <g>
       <use xlink:href="#m985916a0ba" x="73.64" y="228.87" style="stroke: #000000; stroke-width: 0.8"/>
      </g>
     </g>
     <g id="text_10">
      <!-- −150 -->
      <g transform="translate(30.932656 233.808984)scale(0.13 -0.13)">
       <use xlink:href="#DejaVuSans-2212"/>
       <use xlink:href="#DejaVuSans-31" x="83.789062"/>
       <use xlink:href="#DejaVuSans-35" x="147.412109"/>
       <use xlink:href="#DejaVuSans-30" x="211.035156"/>
      </g>
     </g>
    </g>
    <g id="ytick_4">
     <g id="line2d_19">
      <path d="M 73.64 195.985 
L 443.018691 195.985 
" clip-path="url(#pcff064373c)" style="fill: none; stroke: #b0b0b0; stroke-width: 0.8; stroke-linecap: square"/>
     </g>
     <g id="line2d_20">
      <g>
       <use xlink:href="#m985916a0ba" x="73.64" y="195.985" style="stroke: #000000; stroke-width: 0.8"/>
      </g>
     </g>
     <g id="text_11">
      <!-- −125 -->
      <g transform="translate(30.932656 200.923984)scale(0.13 -0.13)">
       <use xlink:href="#DejaVuSans-2212"/>
       <use xlink:href="#DejaVuSans-31" x="83.789062"/>
       <use xlink:href="#DejaVuSans-32" x="147.412109"/>
       <use xlink:href="#DejaVuSans-35" x="211.035156"/>
      </g>
     </g>
    </g>
    <g id="ytick_5">
     <g id="line2d_21">
      <path d="M 73.64 163.1 
L 443.018691 163.1 
" clip-path="url(#pcff064373c)" style="fill: none; stroke: #b0b0b0; stroke-width: 0.8; stroke-linecap: square"/>
     </g>
     <g id="line2d_22">
      <g>
       <use xlink:href="#m985916a0ba" x="73.64" y="163.1" style="stroke: #000000; stroke-width: 0.8"/>
      </g>
     </g>
     <g id="text_12">
      <!-- −100 -->
      <g transform="translate(30.932656 168.038984)scale(0.13 -0.13)">
       <use xlink:href="#DejaVuSans-2212"/>
       <use xlink:href="#DejaVuSans-31" x="83.789062"/>
       <use xlink:href="#DejaVuSans-30" x="147.412109"/>
       <use xlink:href="#DejaVuSans-30" x="211.035156"/>
      </g>
     </g>
    </g>
    <g id="ytick_6">
     <g id="line2d_23">
      <path d="M 73.64 130.215 
L 443.018691 130.215 
" clip-path="url(#pcff064373c)" style="fill: none; stroke: #b0b0b0; stroke-width: 0.8; stroke-linecap: square"/>
     </g>
     <g id="line2d_24">
      <g>
       <use xlink:href="#m985916a0ba" x="73.64" y="130.215" style="stroke: #000000; stroke-width: 0.8"/>
      </g>
     </g>
     <g id="text_13">
      <!-- −75 -->
      <g transform="translate(39.203906 135.153984)scale(0.13 -0.13)">
       <use xlink:href="#DejaVuSans-2212"/>
       <use xlink:href="#DejaVuSans-37" x="83.789062"/>
       <use xlink:href="#DejaVuSans-35" x="147.412109"/>
      </g>
     </g>
    </g>
    <g id="ytick_7">
     <g id="line2d_25">
      <path d="M 73.64 97.33 
L 443.018691 97.33 
" clip-path="url(#pcff064373c)" style="fill: none; stroke: #b0b0b0; stroke-width: 0.8; stroke-linecap: square"/>
     </g>
     <g id="line2d_26">
      <g>
       <use xlink:href="#m985916a0ba" x="73.64" y="97.33" style="stroke: #000000; stroke-width: 0.8"/>
      </g>
     </g>
     <g id="text_14">
      <!-- −50 -->
      <g transform="translate(39.203906 102.268984)scale(0.13 -0.13)">
       <use xlink:href="#DejaVuSans-2212"/>
       <use xlink:href="#DejaVuSans-35" x="83.789062"/>
       <use xlink:href="#DejaVuSans-30" x="147.412109"/>
      </g>
     </g>
    </g>
    <g id="ytick_8">
     <g id="line2d_27">
      <path d="M 73.64 64.445 
L 443.018691 64.445 
" clip-path="url(#pcff064373c)" style="fill: none; stroke: #b0b0b0; stroke-width: 0.8; stroke-linecap: square"/>
     </g>
     <g id="line2d_28">
      <g>
       <use xlink:href="#m985916a0ba" x="73.64" y="64.445" style="stroke: #000000; stroke-width: 0.8"/>
      </g>
     </g>
     <g id="text_15">
      <!-- −25 -->
      <g transform="translate(39.203906 69.383984)scale(0.13 -0.13)">
       <use xlink:href="#DejaVuSans-2212"/>
       <use xlink:href="#DejaVuSans-32" x="83.789062"/>
       <use xlink:href="#DejaVuSans-35" x="147.412109"/>
      </g>
     </g>
    </g>
    <g id="ytick_9">
     <g id="line2d_29">
      <path d="M 73.64 31.56 
L 443.018691 31.56 
" clip-path="url(#pcff064373c)" style="fill: none; stroke: #b0b0b0; stroke-width: 0.8; stroke-linecap: square"/>
     </g>
     <g id="line2d_30">
      <g>
       <use xlink:href="#m985916a0ba" x="73.64" y="31.56" style="stroke: #000000; stroke-width: 0.8"/>
      </g>
     </g>
     <g id="text_16">
      <!-- 0 -->
      <g transform="translate(58.36875 36.498984)scale(0.13 -0.13)">
       <use xlink:href="#DejaVuSans-30"/>
      </g>
     </g>
    </g>
    <g id="text_17">
     <!-- Rewards -->
     <g transform="translate(24.229062 190.693516)rotate(-90)scale(0.13 -0.13)">
      <defs>
       <path id="DejaVuSans-52" d="M 2841 2188 
Q 3044 2119 3236 1894 
Q 3428 1669 3622 1275 
L 4263 0 
L 3584 0 
L 2988 1197 
Q 2756 1666 2539 1819 
Q 2322 1972 1947 1972 
L 1259 1972 
L 1259 0 
L 628 0 
L 628 4666 
L 2053 4666 
Q 2853 4666 3247 4331 
Q 3641 3997 3641 3322 
Q 3641 2881 3436 2590 
Q 3231 2300 2841 2188 
z
M 1259 4147 
L 1259 2491 
L 2053 2491 
Q 2509 2491 2742 2702 
Q 2975 2913 2975 3322 
Q 2975 3731 2742 3939 
Q 2509 4147 2053 4147 
L 1259 4147 
z
" transform="scale(0.015625)"/>
       <path id="DejaVuSans-77" d="M 269 3500 
L 844 3500 
L 1563 769 
L 2278 3500 
L 2956 3500 
L 3675 769 
L 4391 3500 
L 4966 3500 
L 4050 0 
L 3372 0 
L 2619 2869 
L 1863 0 
L 1184 0 
L 269 3500 
z
" transform="scale(0.015625)"/>
       <path id="DejaVuSans-61" d="M 2194 1759 
Q 1497 1759 1228 1600 
Q 959 1441 959 1056 
Q 959 750 1161 570 
Q 1363 391 1709 391 
Q 2188 391 2477 730 
Q 2766 1069 2766 1631 
L 2766 1759 
L 2194 1759 
z
M 3341 1997 
L 3341 0 
L 2766 0 
L 2766 531 
Q 2569 213 2275 61 
Q 1981 -91 1556 -91 
Q 1019 -91 701 211 
Q 384 513 384 1019 
Q 384 1609 779 1909 
Q 1175 2209 1959 2209 
L 2766 2209 
L 2766 2266 
Q 2766 2663 2505 2880 
Q 2244 3097 1772 3097 
Q 1472 3097 1187 3025 
Q 903 2953 641 2809 
L 641 3341 
Q 956 3463 1253 3523 
Q 1550 3584 1831 3584 
Q 2591 3584 2966 3190 
Q 3341 2797 3341 1997 
z
" transform="scale(0.015625)"/>
       <path id="DejaVuSans-64" d="M 2906 2969 
L 2906 4863 
L 3481 4863 
L 3481 0 
L 2906 0 
L 2906 525 
Q 2725 213 2448 61 
Q 2172 -91 1784 -91 
Q 1150 -91 751 415 
Q 353 922 353 1747 
Q 353 2572 751 3078 
Q 1150 3584 1784 3584 
Q 2172 3584 2448 3432 
Q 2725 3281 2906 2969 
z
M 947 1747 
Q 947 1113 1208 752 
Q 1469 391 1925 391 
Q 2381 391 2643 752 
Q 2906 1113 2906 1747 
Q 2906 2381 2643 2742 
Q 2381 3103 1925 3103 
Q 1469 3103 1208 2742 
Q 947 2381 947 1747 
z
" transform="scale(0.015625)"/>
      </defs>
      <use xlink:href="#DejaVuSans-52"/>
      <use xlink:href="#DejaVuSans-65" x="64.982422"/>
      <use xlink:href="#DejaVuSans-77" x="126.505859"/>
      <use xlink:href="#DejaVuSans-61" x="208.292969"/>
      <use xlink:href="#DejaVuSans-72" x="269.572266"/>
      <use xlink:href="#DejaVuSans-64" x="308.935547"/>
      <use xlink:href="#DejaVuSans-73" x="372.412109"/>
     </g>
    </g>
   </g>
   <g id="line2d_31">
    <path d="M 107.876358 346.6 
L 107.981429 335.565991 
L 108.510084 333.347313 
L 108.581733 334.216499 
L 108.905769 331.888978 
L 108.973545 331.979537 
L 109.214313 331.485416 
L 109.281443 331.513721 
L 109.407959 329.826244 
L 109.531893 330.178844 
L 109.599669 330.019408 
L 109.698429 329.271437 
L 109.766851 329.37531 
L 109.897885 329.41724 
L 110.036665 329.242912 
L 110.185128 328.557635 
L 110.324553 328.394653 
L 110.39943 328.005583 
L 110.540792 327.915067 
L 110.602114 327.447576 
L 110.662144 327.462572 
L 110.916467 327.654155 
L 110.987471 330.06967 
L 111.09204 328.223485 
L 111.223719 328.30627 
L 111.291496 327.792519 
L 111.352172 328.262091 
L 111.474815 328.125699 
L 111.630377 327.153109 
L 111.747211 327.479324 
L 112.038972 325.793547 
L 112.247465 325.762189 
L 112.358489 324.772968 
L 112.480486 321.932863 
L 112.519216 322.720495 
L 112.748364 324.742425 
L 112.908445 322.633356 
L 113.029152 322.63605 
L 113.15244 321.408565 
L 113.289929 321.64175 
L 113.355124 321.554744 
L 113.413863 320.949428 
L 113.585563 320.731322 
L 113.633975 319.92475 
L 113.707561 319.978726 
L 113.761782 319.936322 
L 113.83924 319.366667 
L 113.904435 319.451315 
L 113.976084 320.66476 
L 114.051606 320.636237 
L 114.161985 318.634182 
L 114.378869 318.565473 
L 114.751962 319.128392 
L 114.844912 318.990524 
L 114.984983 319.025776 
L 115.07987 317.562499 
L 115.227042 317.616766 
L 115.452963 315.816727 
L 115.549786 316.015484 
L 115.713095 316.51168 
L 115.953217 316.488067 
L 116.017765 316.802727 
L 116.103615 315.904764 
L 116.159773 316.139709 
L 116.239168 315.928575 
L 116.313399 316.174122 
L 116.410223 318.173539 
L 116.496073 317.519909 
L 116.632916 312.842016 
L 116.809135 313.002449 
L 116.865292 312.813454 
L 116.913704 312.849126 
L 116.967925 311.52977 
L 117.142853 310.82682 
L 117.388784 312.975954 
L 117.58824 312.99033 
L 117.682481 312.84703 
L 117.74703 311.292521 
L 117.87161 308.862165 
L 117.976179 308.329271 
L 118.02459 307.481076 
L 118.220174 307.036744 
L 118.280849 305.472708 
L 118.352499 305.851717 
L 118.506771 304.413276 
L 118.681698 303.902446 
L 119.141932 300.74444 
L 119.234882 297.101226 
L 119.390445 297.057002 
L 119.536971 296.868374 
L 119.725454 296.0453 
L 119.805494 296.03783 
L 120.045616 293.434731 
L 120.205052 293.757661 
L 120.433555 290.575196 
L 120.525214 291.026556 
L 120.665931 290.957318 
L 120.709179 290.331697 
L 120.840213 290.328719 
L 120.921545 290.180152 
L 121.051288 289.404226 
L 121.166185 289.273874 
L 121.253971 289.03663 
L 121.328848 289.144841 
L 121.365641 288.708653 
L 121.419216 288.806009 
L 121.508294 288.671439 
L 121.887841 287.547328 
L 122.187994 288.002102 
L 122.510093 282.880666 
L 122.876085 282.334302 
L 122.9813 281.529546 
L 123.201411 281.32369 
L 123.326636 280.909209 
L 123.420232 281.194327 
L 123.76105 281.322204 
L 123.820435 280.971552 
L 123.928232 281.197777 
L 124.125106 280.334059 
L 124.230966 276.27064 
L 124.296806 276.216959 
L 124.447205 275.309528 
L 124.871291 273.991419 
L 125.111413 272.813303 
L 125.212755 272.506974 
L 125.29215 272.55576 
L 125.625222 272.079273 
L 125.707845 271.762648 
L 125.820805 272.259064 
L 125.900846 272.106129 
L 126.085456 270.390169 
L 126.242955 269.527746 
L 126.314604 269.714309 
L 126.556017 269.081602 
L 126.730945 267.944596 
L 126.880698 267.142503 
L 127.003986 266.639247 
L 127.094355 262.158962 
L 127.209252 261.748287 
L 127.314466 261.996733 
L 127.371915 260.949364 
L 127.586217 260.360971 
L 127.710151 257.995085 
L 127.745008 258.055597 
L 128.076789 257.035109 
L 128.161993 257.472812 
L 128.325302 257.023499 
L 128.560905 255.57627 
L 128.948844 251.60037 
L 129.096661 252.651362 
L 129.51042 252.888071 
L 129.567223 253.440987 
L 129.800244 253.194304 
L 129.980981 253.337562 
L 130.1714 252.270463 
L 130.240468 250.682614 
L 130.407649 250.4645 
L 130.878856 247.592017 
L 130.968579 247.83356 
L 131.093804 247.414273 
L 131.311979 247.159411 
L 131.429458 247.211473 
L 131.566947 247.636695 
L 131.625041 247.607386 
L 131.857417 247.485592 
L 132.034281 246.97616 
L 132.094957 247.503455 
L 132.195008 247.486509 
L 132.244711 247.188565 
L 132.317005 247.234595 
L 132.405437 247.293963 
L 132.498388 247.162515 
L 132.556482 243.849707 
L 133.179378 242.273547 
L 133.22069 245.13278 
L 133.272329 244.974119 
L 133.413045 245.263818 
L 133.571836 244.631026 
L 133.648003 244.745485 
L 133.786138 244.344939 
L 134.007541 244.500842 
L 134.056598 244.306374 
L 134.08629 244.636057 
L 134.224425 244.413797 
L 134.514895 244.591685 
L 134.549751 244.78589 
L 134.698859 244.611662 
L 134.907352 243.859594 
L 134.966092 240.89973 
L 135.272699 240.479464 
L 135.401151 240.775417 
L 135.47861 240.616396 
L 135.576079 236.674564 
L 135.706467 237.123352 
L 136.151209 235.566484 
L 136.197685 235.622017 
L 136.503001 235.176995 
L 136.604343 235.121304 
L 136.870284 235.291717 
L 136.945806 235.383602 
L 136.998091 235.334697 
L 137.085232 235.149101 
L 137.259514 233.66404 
L 137.340845 233.453624 
L 137.412495 233.688211 
L 137.470589 233.53106 
L 137.701028 233.21732 
L 137.973424 233.086173 
L 138.275513 232.368356 
L 138.374919 232.455386 
L 138.596321 231.725412 
L 138.684753 231.673715 
L 138.795132 231.201304 
L 138.876463 231.259903 
L 139.131431 231.331709 
L 139.17597 231.084931 
L 139.408346 231.081533 
L 139.594893 230.741633 
L 139.685261 230.852228 
L 139.907955 230.663344 
L 140.240381 230.339717 
L 140.550862 230.127767 
L 140.649621 229.498322 
L 140.774846 229.524891 
L 140.843914 228.664626 
L 140.925245 228.865972 
L 140.978821 229.161324 
L 141.224752 228.921529 
L 141.286719 223.908608 
L 141.351268 224.26223 
L 141.880569 223.350189 
L 141.954154 221.882642 
L 142.243333 220.990428 
L 142.352421 220.942682 
L 142.42407 220.634248 
L 142.750688 220.546993 
L 143.38714 219.932636 
L 143.611124 202.273221 
L 143.704075 202.284625 
L 143.879002 201.570844 
L 144.25274 202.492123 
L 144.375383 203.906295 
L 144.536755 203.818609 
L 144.614214 204.070885 
L 144.6949 203.855965 
L 144.756867 203.917172 
L 145.204836 202.985569 
L 145.229365 202.593647 
L 145.635378 202.986445 
L 145.754147 195.200827 
L 145.823215 196.237253 
L 145.934239 196.286956 
L 146.194371 193.850811 
L 146.493878 193.464331 
L 147.076754 193.919386 
L 147.215534 193.215688 
L 147.310421 193.345 
L 147.537633 191.269737 
L 147.75839 191.475444 
L 148.052733 191.057268 
L 148.118573 191.087088 
L 148.430344 190.67465 
L 148.520713 190.682723 
L 148.929307 189.589043 
L 149.119727 189.71428 
L 149.281744 189.296536 
L 149.429561 188.583956 
L 149.490883 188.723711 
L 149.725195 188.464253 
L 149.786517 188.612128 
L 149.834928 190.496333 
L 149.900123 190.031872 
L 150.228031 189.345944 
L 150.457825 189.07069 
L 150.572722 189.052867 
L 150.619843 183.019594 
L 151.350536 181.700321 
L 151.531273 181.766296 
L 151.651979 181.490539 
L 151.762358 180.849882 
L 151.865636 180.874641 
L 152.054764 180.487733 
L 152.11544 180.594921 
L 152.162561 180.584356 
L 152.275522 180.341942 
L 152.7222 179.097875 
L 152.890027 179.810749 
L 153.279257 178.486977 
L 153.336705 178.721613 
L 153.751109 179.23354 
L 153.935074 179.131457 
L 154.564425 178.214093 
L 154.734189 177.79909 
L 154.807129 177.925564 
L 154.883297 177.879041 
L 154.976893 177.86824 
L 155.167312 178.312468 
L 155.588171 177.739726 
L 155.653365 177.977044 
L 155.854112 177.574899 
L 155.91737 177.703999 
L 156.096816 177.66689 
L 156.148455 176.717339 
L 156.204613 176.858237 
L 156.298208 176.817245 
L 156.363403 177.021177 
L 156.364048 176.351775 
L 156.431825 176.640256 
L 156.725522 176.20913 
L 156.78168 176.376838 
L 157.10507 176.159542 
L 157.244495 176.393027 
L 157.332927 176.297509 
L 157.524637 175.26043 
L 157.587895 175.339928 
L 157.742167 175.324401 
L 157.964215 174.965654 
L 158.841435 173.644131 
L 158.946649 172.404239 
L 159.228082 171.675073 
L 159.419147 169.25716 
L 159.523716 169.73531 
L 159.579874 169.636702 
L 159.721236 169.337552 
L 159.889063 168.22778 
L 160.127894 168.426459 
L 160.198898 169.2482 
L 160.364788 168.885625 
L 160.468712 169.051481 
L 160.621693 168.928817 
L 160.717225 169.423571 
L 160.730135 169.108556 
L 160.881825 166.532528 
L 161.169068 164.289412 
L 161.30462 164.136859 
L 161.405316 164.326836 
L 161.58218 163.863321 
L 161.842958 163.519906 
L 162.35354 162.794246 
L 162.421961 163.09887 
L 162.422607 162.903508 
L 162.473601 161.309405 
L 162.918988 160.77643 
L 163.012584 160.00134 
L 163.064868 160.082411 
L 163.213331 160.248215 
L 164.706347 156.975016 
L 164.912258 153.954969 
L 165.128496 153.854272 
L 165.447368 153.288873 
L 165.554519 153.215726 
L 165.628105 153.322231 
L 165.770112 153.138187 
L 165.947622 153.398599 
L 166.189035 151.401297 
L 166.247129 151.663379 
L 166.481441 150.719658 
L 166.557609 151.008071 
L 166.715108 151.003607 
L 166.799022 151.240891 
L 166.885517 151.165007 
L 166.953293 150.997667 
L 167.51616 150.324874 
L 167.578127 149.714435 
L 167.671077 150.842961 
L 167.937019 150.827699 
L 168.003504 150.749991 
L 168.335931 149.289495 
L 168.341095 148.840127 
L 168.454701 148.754006 
L 168.551524 148.39829 
L 168.606391 148.456456 
L 168.752916 148.385251 
L 168.958182 148.184575 
L 169.055005 148.178109 
L 169.579142 147.40582 
L 169.76698 148.666886 
L 169.962563 148.727226 
L 170.047767 148.591193 
L 170.208494 149.178992 
L 170.466044 149.485369 
L 170.686156 149.25911 
L 170.814608 149.277452 
L 170.864956 149.403304 
L 170.929505 149.369958 
L 170.977271 149.331507 
L 171.034074 149.741708 
L 171.300016 149.02381 
L 171.43815 149.103673 
L 171.511736 148.835157 
L 171.558857 148.935673 
L 171.818343 148.996732 
L 172.079121 148.623706 
L 172.357326 148.717824 
L 172.960213 147.633233 
L 173.093184 147.136599 
L 173.152569 147.332049 
L 173.2268 147.216935 
L 173.317814 147.233242 
L 173.463049 146.778534 
L 173.935547 146.159785 
L 174.003969 146.29168 
L 174.183414 146.0553 
L 174.230535 146.121797 
L 174.588782 144.578293 
L 174.768227 144.454973 
L 175.105818 145.303774 
L 175.294301 145.258057 
L 175.387251 145.358579 
L 175.686113 144.878974 
L 175.756471 145.334394 
L 176.17733 145.358165 
L 176.273507 147.344052 
L 176.562041 147.002358 
L 176.781507 147.336804 
L 176.898341 147.216764 
L 177.254651 148.940283 
L 177.524465 149.204702 
L 177.98018 148.599064 
L 178.120251 148.62506 
L 178.421049 149.353308 
L 178.814152 149.049291 
L 178.980688 147.483812 
L 179.310533 146.985254 
L 179.373145 146.276518 
L 179.474487 146.3493 
L 179.670716 146.129377 
L 179.723 146.409455 
L 179.727519 146.118494 
L 179.80885 145.754397 
L 179.857262 145.961316 
L 180.018634 145.844854 
L 180.076083 145.283245 
L 180.239391 144.94885 
L 180.293612 145.290131 
L 180.46273 145.207131 
L 180.463376 144.937372 
L 180.906827 144.090855 
L 180.953947 144.187704 
L 181.077881 143.90924 
L 181.451619 144.235521 
L 181.96091 143.454007 
L 182.139065 144.186992 
L 182.25848 143.97007 
L 182.42308 143.280893 
L 182.565733 143.235803 
L 182.629637 143.800378 
L 183.020157 143.665389 
L 183.59787 142.760169 
L 184.106515 141.688989 
L 184.295643 141.873379 
L 184.351155 138.706478 
L 184.597087 138.472888 
L 184.64808 139.680026 
L 184.730057 139.643323 
L 184.950169 139.449097 
L 185.190291 139.031841 
L 185.306479 139.052288 
L 185.388456 139.244532 
L 185.470433 139.045428 
L 185.589203 139.243674 
L 185.706037 139.1615 
L 185.75703 139.26294 
L 185.88161 140.166735 
L 185.983597 140.108433 
L 186.160461 140.449069 
L 186.349589 140.697533 
L 187.215835 139.664884 
L 187.345578 139.776609 
L 187.411418 140.262502 
L 187.547616 140.061132 
L 187.636048 140.157438 
L 187.718671 140.046715 
L 188.003332 139.965285 
L 188.076917 140.178687 
L 188.645593 138.91422 
L 188.701751 140.248745 
L 188.80051 140.117198 
L 188.961237 139.896314 
L 189.036759 139.800507 
L 189.165857 139.851846 
L 189.337557 139.497195 
L 190.072123 138.53461 
L 190.158619 138.643121 
L 190.159264 138.470307 
L 190.483945 138.138321 
L 190.542685 138.452359 
L 190.74795 138.247493 
L 190.858329 137.853374 
L 191.055203 138.040297 
L 191.150735 137.968262 
L 191.201083 138.267461 
L 191.382466 137.756612 
L 191.426359 137.780582 
L 191.476062 138.012854 
L 191.552875 137.924426 
L 191.920158 138.006834 
L 192.166735 137.652495 
L 192.388783 138.135589 
L 192.621805 137.988359 
L 192.739283 138.052161 
L 193.056864 137.897949 
L 193.202745 137.688995 
L 193.298277 137.753524 
L 193.406719 137.654421 
L 193.456422 137.951015 
L 193.754638 137.318751 
L 193.86308 136.749865 
L 194.37818 137.713168 
L 194.449184 137.642782 
L 194.512441 137.754541 
L 194.594419 137.694055 
L 194.718352 137.7702 
L 194.901671 136.974387 
L 194.966866 137.166586 
L 195.042388 137.367248 
L 195.126301 137.307658 
L 195.177941 137.256958 
L 195.456792 137.463899 
L 195.508431 137.772981 
L 195.666576 137.643296 
L 195.732415 137.779261 
L 196.044187 134.820199 
L 196.102926 134.647727 
L 196.761325 134.907661 
L 196.831038 134.70106 
L 197.098915 135.577997 
L 197.1583 135.467388 
L 197.342265 135.163674 
L 197.462326 135.250627 
L 197.515256 133.763877 
L 197.623052 133.848015 
L 197.692765 134.396572 
L 197.803789 134.115766 
L 197.85091 134.219597 
L 197.89674 134.195261 
L 199.023763 131.225772 
L 199.401374 130.915011 
L 199.473669 130.818606 
L 199.542091 130.984683 
L 199.549837 130.530855 
L 199.782213 130.449014 
L 199.861608 130.602896 
L 199.986833 130.347196 
L 200.041054 130.429367 
L 200.10173 130.627091 
L 200.32055 130.400114 
L 200.631031 129.810224 
L 200.711071 129.819333 
L 201.084164 130.359577 
L 201.375279 130.20027 
L 201.375925 129.968076 
L 201.511477 130.455368 
L 201.556016 130.301011 
L 201.832285 130.488433 
L 201.988494 130.385853 
L 202.035614 130.749965 
L 202.156321 130.515204 
L 202.349322 128.520178 
L 202.555878 128.444164 
L 202.810201 128.662897 
L 202.988356 129.254117 
L 203.373713 128.636947 
L 203.591888 129.216304 
L 203.691293 129.151153 
L 203.691939 128.914627 
L 204.167019 128.667166 
L 204.22124 128.918309 
L 204.283207 128.849498 
L 204.347756 128.950671 
L 204.447806 129.474271 
L 204.606597 129.501457 
L 204.652426 129.674999 
L 204.777006 129.494996 
L 205.075867 130.17235 
L 205.130088 130.033525 
L 205.295333 129.018585 
L 205.340518 129.949227 
L 205.671653 129.794392 
L 205.718129 129.461328 
L 206.269376 128.087806 
L 206.372654 128.043661 
L 206.49917 128.314213 
L 206.783185 128.641626 
L 206.783831 128.366072 
L 206.892273 128.642154 
L 207.051709 128.259149 
L 207.157569 128.683718 
L 207.321523 128.597158 
L 207.4106 128.0317 
L 207.787566 127.916776 
L 207.846305 127.779992 
L 207.99735 128.104908 
L 208.272328 127.736556 
L 208.31493 127.449613 
L 208.818412 128.273294 
L 209.092099 127.991367 
L 209.613008 126.62829 
L 209.665939 126.88769 
L 209.889923 127.427835 
L 210.110035 127.008004 
L 210.314655 126.923089 
L 210.37404 127.00488 
L 210.534767 126.801998 
L 210.665801 127.686573 
L 210.720022 127.879786 
L 211.044703 127.524276 
L 211.137653 127.277476 
L 211.185419 127.819728 
L 211.606278 126.879975 
L 211.791533 126.332369 
L 211.984535 126.375653 
L 212.551274 125.55141 
L 213.218064 124.061172 
L 213.321342 123.75034 
L 213.463995 123.782663 
L 213.49627 123.534602 
L 213.771893 122.940901 
L 213.893891 122.2199 
L 214.000396 122.564498 
L 214.364452 121.96265 
L 214.409636 122.132882 
L 214.649758 121.612088 
L 214.69107 121.851348 
L 214.813067 121.708387 
L 215.065453 122.948449 
L 215.227471 122.796551 
L 215.89297 121.071507 
L 216.040787 121.245733 
L 216.089198 121.683136 
L 216.323511 121.650736 
L 216.373859 121.928908 
L 216.535231 122.042763 
L 216.672075 121.995137 
L 216.778581 122.124089 
L 216.800527 122.046035 
L 216.861849 121.995207 
L 216.978682 121.569336 
L 217.420197 120.786939 
L 217.455698 121.205213 
L 217.737132 120.618811 
L 218.095378 120.184067 
L 219.081039 120.167395 
L 219.278559 120.3751 
L 219.5374 120.969654 
L 219.76784 120.749717 
L 219.784622 120.491236 
L 219.93373 120.593709 
L 220.024744 121.042497 
L 220.722518 119.049274 
L 220.793521 119.269227 
L 220.958767 119.043089 
L 221.034289 118.636374 
L 221.104002 118.720394 
L 221.265374 118.302504 
L 221.423519 118.367413 
L 221.739808 117.535056 
L 222.126456 117.170948 
L 222.130974 116.845908 
L 222.193587 117.095557 
L 222.352377 117.441277 
L 222.512458 117.298873 
L 222.611218 116.046256 
L 222.701587 116.170243 
L 222.879096 116.464462 
L 223.051442 117.05305 
L 223.214105 117.376797 
L 223.532331 117.271731 
L 224.394058 116.07138 
L 224.485718 116.440752 
L 224.795553 116.166557 
L 225.082795 114.325555 
L 225.304198 114.095592 
L 225.643079 113.280428 
L 225.6831 113.340069 
L 226.052965 113.343641 
L 226.126551 112.993214 
L 226.653915 113.056871 
L 226.76623 112.419557 
L 226.942449 111.928124 
L 227.067673 111.776338 
L 227.378154 112.736042 
L 227.477559 112.759099 
L 227.501442 112.22726 
L 227.543399 112.309219 
L 227.715744 112.863344 
L 227.733818 112.62932 
L 227.874535 112.672879 
L 227.947475 112.844348 
L 228.130794 112.181105 
L 228.172105 112.244468 
L 228.209543 111.984871 
L 228.270865 112.21644 
L 228.331541 112.673779 
L 228.583927 112.329206 
L 228.889243 112.702785 
L 228.989294 113.047734 
L 229.249426 113.235774 
L 229.417898 113.159286 
L 229.481156 113.344384 
L 229.584435 113.141982 
L 229.853603 113.305065 
L 230.063387 114.076502 
L 230.195713 113.889797 
L 230.425507 113.664747 
L 230.735341 114.558516 
L 230.907687 114.509111 
L 231.180729 113.678721 
L 231.365338 113.705285 
L 231.661618 113.298666 
L 231.888184 113.520622 
L 231.928205 113.422372 
L 231.932723 113.143744 
L 232.141216 113.14374 
L 232.254822 111.342377 
L 232.299361 111.44388 
L 232.490426 111.243262 
L 232.716347 111.579617 
L 232.892565 111.436919 
L 233.054583 111.61673 
L 233.417348 109.94251 
L 233.650369 110.071397 
L 233.845307 110.04777 
L 234.031853 110.2609 
L 234.136422 110.282482 
L 234.137068 110.22943 
L 234.420437 110.045252 
L 234.54308 110.43947 
L 234.963294 110.934543 
L 235.236981 111.041836 
L 235.573926 111.441954 
L 235.785646 110.48482 
L 235.96251 111.114306 
L 236.005113 110.763932 
L 236.208442 111.260303 
L 236.449209 110.774342 
L 236.632528 110.827017 
L 236.878459 111.504919 
L 237.095343 111.342918 
L 237.210886 111.626096 
L 237.38775 111.09518 
L 237.694357 111.686678 
L 238.537365 108.79212 
L 238.589005 109.01496 
L 239.036328 108.664257 
L 239.268059 108.012797 
L 239.335835 108.120767 
L 239.496562 107.843743 
L 239.796714 110.269438 
L 239.894829 110.234743 
L 240.137532 109.741578 
L 240.196272 109.831953 
L 240.404765 109.98104 
L 240.466086 110.266654 
L 240.54419 109.184474 
L 240.657151 109.175711 
L 240.760429 109.037048 
L 240.82046 109.102427 
L 240.903082 109.237725 
L 241.198071 108.983176 
L 241.26262 109.287159 
L 242.185669 106.997434 
L 242.813729 106.508025 
L 243.020931 105.413638 
L 243.360458 105.16348 
L 243.505048 105.45103 
L 243.819401 105.122077 
L 243.974964 105.217435 
L 244.169901 105.006045 
L 244.310618 105.401514 
L 244.759878 105.412953 
L 244.819909 105.501952 
L 245 104.876682 
L 245.120707 104.947342 
L 245.214948 105.364813 
L 245.483471 105.177465 
L 245.564803 104.690344 
L 246.305179 102.712509 
L 246.393611 103.3757 
L 246.55111 103.279591 
L 246.609849 103.603464 
L 246.670525 103.560167 
L 246.825443 103.485657 
L 246.875145 102.184951 
L 246.933885 102.410927 
L 247.066856 102.60254 
L 247.292131 102.571186 
L 247.674261 102.198617 
L 247.777539 102.738544 
L 248.350088 102.332508 
L 248.493386 102.525328 
L 248.628939 102.497095 
L 248.684451 102.787627 
L 248.782565 102.61059 
L 248.96072 103.77452 
L 248.961365 103.57535 
L 249.087881 103.86369 
L 249.266682 103.467061 
L 249.350595 103.751915 
L 249.519713 103.481861 
L 249.520359 103.182838 
L 249.575225 103.32354 
L 249.741116 102.947238 
L 249.870214 104.340433 
L 249.986402 104.28628 
L 250.467291 103.457666 
L 250.526676 103.478891 
L 250.800363 103.418529 
L 251.031448 103.455984 
L 251.166356 103.533675 
L 251.369685 103.860106 
L 251.687265 103.541799 
L 251.838309 103.652887 
L 252.067458 104.47796 
L 252.171382 104.519568 
L 252.552866 104.182418 
L 252.876256 103.985658 
L 253.142197 103.63119 
L 253.249994 103.633171 
L 253.414593 103.292138 
L 253.732819 104.560845 
L 253.954222 104.557768 
L 254.007798 104.718311 
L 254.145932 104.742831 
L 254.346679 105.257061 
L 254.823696 105.973845 
L 254.968285 105.846999 
L 255.448529 105.035345 
L 255.55568 105.038653 
L 255.733835 105.188176 
L 255.872615 105.162426 
L 255.932 105.265023 
L 256.224406 104.851799 
L 256.33414 105.005819 
L 256.474856 104.868194 
L 256.571034 104.383733 
L 256.635583 104.603504 
L 256.888615 104.615742 
L 256.965428 108.3865 
L 257.141001 108.477326 
L 257.281717 109.271675 
L 257.402424 109.447263 
L 257.449544 109.406579 
L 257.501183 109.182858 
L 257.684502 109.69138 
L 258.005956 109.520358 
L 258.183465 108.975766 
L 258.228004 109.031046 
L 258.39454 108.939052 
L 258.56624 109.271745 
L 258.682428 109.309184 
L 258.770215 109.142867 
L 259.050357 108.940857 
L 259.294997 108.372218 
L 259.613223 108.636131 
L 259.999871 108.081294 
L 260.048283 108.152855 
L 260.281304 107.939304 
L 260.351017 108.04509 
L 260.439449 107.974864 
L 261.379926 105.756615 
L 261.447703 105.998602 
L 261.849197 105.760418 
L 262.140312 105.121904 
L 262.259082 105.48482 
L 262.398508 105.492101 
L 262.48694 105.685874 
L 263.050451 105.691159 
L 263.115646 105.799495 
L 263.210533 105.688811 
L 263.282182 105.809372 
L 263.43129 105.768157 
L 263.493257 105.425443 
L 263.541023 105.485195 
L 263.628164 105.434673 
L 264.19103 103.799796 
L 264.629963 102.804648 
L 264.682893 102.939833 
L 264.700321 102.531799 
L 264.748733 102.583793 
L 264.986273 102.856525 
L 265.209612 102.627004 
L 265.277388 103.264787 
L 265.390994 103.052955 
L 265.434242 103.128496 
L 265.512346 103.249492 
L 266.330826 102.166718 
L 266.450887 102.63323 
L 266.574175 102.501437 
L 266.694882 102.632548 
L 266.809779 102.220471 
L 266.931131 102.30012 
L 267.156406 102.026112 
L 267.452686 102.187907 
L 267.733473 101.513079 
L 267.853534 101.086132 
L 267.916147 101.211257 
L 268.247282 100.574036 
L 268.498378 100.847309 
L 268.744309 100.341374 
L 269.653157 97.744257 
L 269.701569 97.792894 
L 269.764181 98.326829 
L 270.148247 99.401612 
L 270.427098 99.211736 
L 270.491002 99.439282 
L 270.852476 98.128503 
L 271.179093 97.875787 
L 271.23525 98.028208 
L 271.262361 97.59942 
L 271.45859 97.820738 
L 271.645136 97.573186 
L 271.71033 97.72284 
L 271.900104 96.955151 
L 272.235758 96.832382 
L 272.381639 97.009506 
L 272.555921 96.999343 
L 272.598523 97.228692 
L 272.952251 96.509141 
L 272.999372 96.779422 
L 273.124596 96.805698 
L 273.475097 96.416836 
L 273.593221 96.761577 
L 273.904993 96.428867 
L 274.214182 98.00063 
L 274.642786 97.819046 
L 274.811904 98.032112 
L 274.864189 98.634362 
L 275.594237 98.19276 
L 275.667177 98.712555 
L 275.832422 98.644688 
L 275.969911 98.925453 
L 275.970557 98.894504 
L 276.160331 98.521095 
L 276.383024 98.645796 
L 276.578607 98.513412 
L 276.644447 97.89736 
L 276.699314 97.972512 
L 276.822602 99.68919 
L 276.962673 99.658463 
L 277.055624 98.931685 
L 277.098872 99.163265 
L 277.375141 98.742927 
L 277.527476 98.599182 
L 277.712086 98.59991 
L 277.861839 99.360467 
L 278.027085 99.36837 
L 278.398241 100.763819 
L 278.52282 100.740958 
L 278.646108 101.334675 
L 279.370347 100.24777 
L 279.685991 100.620293 
L 279.792497 100.343598 
L 280.172044 99.731639 
L 280.334062 99.822928 
L 280.382473 100.210351 
L 280.572247 99.907358 
L 280.802041 100.301634 
L 280.854971 100.453398 
L 281.043454 100.084412 
L 281.237101 100.46833 
L 281.444303 101.650497 
L 281.82385 101.610884 
L 281.824496 101.401569 
L 281.878717 102.271875 
L 282.02847 103.035205 
L 282.248582 102.964035 
L 282.36477 103.318824 
L 282.694615 103.070451 
L 282.955392 103.532339 
L 283.245217 103.486999 
L 283.324612 103.751127 
L 283.429827 103.699128 
L 283.492439 103.901432 
L 283.563443 103.784866 
L 283.569252 103.327176 
L 283.695768 103.614541 
L 284.042395 103.162891 
L 285.938842 97.512085 
L 286.224148 97.067561 
L 286.276433 97.204157 
L 286.277078 97.116876 
L 286.433932 97.026578 
L 286.793469 97.499388 
L 286.929667 98.288096 
L 287.485433 97.624289 
L 287.533845 97.688582 
L 287.776549 97.850574 
L 287.872081 97.510098 
L 287.946958 97.76293 
L 288.173524 97.332193 
L 288.354907 98.01074 
L 288.556299 97.429419 
L 288.878398 96.653824 
L 289.017178 96.937759 
L 289.093992 96.874717 
L 289.439328 97.314381 
L 289.850504 97.495665 
L 289.903435 97.342117 
L 290.105473 97.108064 
L 290.151948 97.238738 
L 290.197777 96.865653 
L 290.359795 96.821462 
L 290.413371 97.035739 
L 290.539887 97.018173 
L 290.632837 97.725819 
L 290.810346 97.34505 
L 291.03885 96.4422 
L 291.14471 96.771286 
L 291.145355 96.562025 
L 291.309309 98.019436 
L 291.644964 98.0703 
L 291.951571 97.584753 
L 292.112298 96.841146 
L 292.244623 96.817513 
L 292.314336 96.381855 
L 292.365975 96.620814 
L 292.484745 96.817572 
L 292.618361 96.684155 
L 292.939169 96.574295 
L 292.992744 96.802146 
L 293.143789 96.383731 
L 293.190909 96.449024 
L 293.314843 96.438289 
L 293.365191 96.745181 
L 293.618869 96.123448 
L 293.650498 96.317065 
L 293.832525 95.97804 
L 293.922894 96.461053 
L 294.058447 96.250363 
L 294.223046 96.811097 
L 294.269521 96.816228 
L 294.377318 97.054256 
L 294.764611 96.585482 
L 294.821414 96.668665 
L 295.066055 96.856948 
L 295.326187 96.589262 
L 295.509506 96.691459 
L 295.652159 96.605086 
L 295.758664 97.033748 
L 296.361551 96.96042 
L 296.403508 97.231951 
L 297.355604 94.450805 
L 297.487929 94.41951 
L 298.047568 93.484193 
L 298.26187 93.313428 
L 298.505219 93.52581 
L 299.050012 91.647882 
L 299.432787 91.752217 
L 300.14347 90.395752 
L 300.218992 90.91615 
L 300.719246 90.334329 
L 301.666824 88.263349 
L 301.848852 88.909907 
L 302.192252 89.120463 
L 302.661522 87.90301 
L 302.728008 88.096994 
L 302.891962 88.069964 
L 303.06108 88.195577 
L 303.136602 88.195113 
L 303.363169 87.819474 
L 303.49033 87.82413 
L 303.685268 87.443188 
L 303.997684 87.484437 
L 304.120973 87.93184 
L 304.71805 86.249715 
L 304.761943 88.282267 
L 305.017557 87.929347 
L 307.256112 82.139825 
L 307.369718 81.999526 
L 307.601449 82.187627 
L 307.97325 82.12064 
L 308.072656 82.086905 
L 308.153342 82.637412 
L 308.197235 82.53728 
L 308.481896 82.295094 
L 308.500615 81.948186 
L 308.570973 82.103696 
L 308.652305 82.127644 
L 308.796249 82.808297 
L 308.921474 82.354207 
L 309.164823 85.359223 
L 309.257128 85.319012 
L 309.393971 85.600836 
L 309.801275 85.377172 
L 309.852914 85.492827 
L 310.109173 85.202904 
L 310.155003 84.920249 
L 310.331867 84.648084 
L 310.397061 84.910621 
L 310.405453 84.630051 
L 310.517768 84.707478 
L 310.762408 84.566966 
L 310.763053 84.319946 
L 310.810174 84.396904 
L 311.215541 84.41124 
L 311.288481 84.849874 
L 311.445335 84.562033 
L 311.514402 84.127424 
L 311.881686 86.618723 
L 311.962372 86.706027 
L 312.714366 86.240604 
L 313.023555 86.345738 
L 313.389548 86.042566 
L 313.538656 86.647596 
L 313.618696 86.61309 
L 313.720038 86.643779 
L 313.849781 86.272472 
L 313.956287 86.469931 
L 314.004053 86.003776 
L 314.359072 85.735708 
L 314.398447 85.890172 
L 314.596612 85.541521 
L 314.828342 86.20317 
L 314.996815 86.120709 
L 315.001979 85.709991 
L 315.177552 85.717784 
L 315.35958 84.677419 
L 315.676515 84.353601 
L 315.698461 84.390948 
L 315.753973 85.151355 
L 316.314903 84.462646 
L 316.428509 84.531779 
L 316.493058 84.413641 
L 316.633129 84.761011 
L 317.211487 84.124123 
L 317.355431 84.134673 
L 318.237815 81.736675 
L 318.322374 81.816478 
L 318.585733 81.689852 
L 318.591543 81.27228 
L 318.760015 81.007065 
L 318.821337 80.551833 
L 318.872976 80.570769 
L 318.967863 80.415265 
L 319.108579 80.76741 
L 319.217021 80.681601 
L 319.404859 80.91972 
L 319.490063 80.910381 
L 319.650144 80.649433 
L 319.790861 80.778591 
L 319.914795 80.574428 
L 320.04712 79.185253 
L 320.088431 79.19772 
L 320.458296 78.780868 
L 320.684863 78.288904 
L 320.739084 77.884622 
L 320.985015 77.207426 
L 321.154779 77.792243 
L 321.33487 77.832033 
L 321.50657 77.951208 
L 321.566601 78.351163 
L 322.021671 78.22722 
L 322.268247 78.015167 
L 322.381208 78.157671 
L 322.827241 78.961321 
L 323.443037 77.878922 
L 323.599891 76.610182 
L 323.866478 75.652204 
L 324.370605 74.825044 
L 324.815992 74.509908 
L 324.994792 75.13432 
L 325.237496 74.936708 
L 325.675138 75.083244 
L 325.866202 74.953016 
L 325.961089 75.510673 
L 326.092123 75.453084 
L 326.21283 75.81235 
L 326.610451 75.67089 
L 326.724703 75.849383 
L 326.725348 75.705007 
L 327.217856 75.65623 
L 327.322425 75.851505 
L 327.376001 78.233166 
L 327.472179 78.011729 
L 327.57933 78.218172 
L 327.766522 78.037881 
L 327.931121 78.803916 
L 328.865789 76.288208 
L 328.913555 76.452626 
L 328.914201 75.81873 
L 328.965195 76.06522 
L 329.318922 75.29126 
L 329.446729 77.257512 
L 329.49385 77.224968 
L 329.628112 77.373336 
L 330.027669 77.328514 
L 330.35816 78.524906 
L 330.45111 77.957617 
L 330.498231 78.004649 
L 330.687359 78.042923 
L 330.929417 78.139088 
L 331.260553 77.864065 
L 331.398688 78.007415 
L 331.73176 77.653885 
L 331.789854 77.736998 
L 331.921534 78.01036 
L 332.21394 77.831638 
L 332.522484 77.281173 
L 332.649 77.348498 
L 333.73213 74.019829 
L 334.249167 73.85125 
L 334.253039 73.518492 
L 334.366 73.532653 
L 335.107021 75.343801 
L 335.274203 75.207863 
L 335.363926 75.303264 
L 335.364571 75.264138 
L 335.599529 77.104673 
L 335.740891 76.923133 
L 335.873217 76.42709 
L 336.301821 75.405283 
L 336.588418 74.960742 
L 336.765928 75.051536 
L 336.87437 74.811332 
L 337.611518 76.140355 
L 338.01624 75.699242 
L 338.073688 75.866732 
L 338.242161 75.746909 
L 338.352539 76.044824 
L 338.695294 76.515901 
L 338.983828 76.139626 
L 339.275588 75.90111 
L 339.345947 76.607803 
L 339.498928 76.681913 
L 339.802307 76.308073 
L 339.850074 76.623539 
L 339.983044 76.588194 
L 340.090195 76.71437 
L 340.300625 77.278109 
L 340.515573 77.249292 
L 340.731166 77.995643 
L 340.813789 78.203009 
L 341.046165 77.857527 
L 341.109422 77.938898 
L 341.277895 78.253164 
L 341.318561 78.132405 
L 342.095729 76.81477 
L 342.138332 77.090818 
L 342.413955 76.891554 
L 342.513361 77.157408 
L 342.668278 77.185601 
L 342.987795 76.894825 
L 343.922463 74.322027 
L 344.276836 73.977919 
L 344.449827 73.946827 
L 344.450473 73.679632 
L 344.505985 73.790087 
L 344.939108 72.354726 
L 345.843438 70.0318 
L 346.454716 67.745022 
L 346.649654 67.950726 
L 346.709039 68.187883 
L 347.286106 66.985951 
L 347.333872 66.93896 
L 347.899966 65.712978 
L 348.046491 65.812123 
L 348.260794 67.565211 
L 348.379564 67.375851 
L 348.513825 68.714976 
L 348.7249 68.640631 
L 348.975995 68.265465 
L 349.02118 68.810134 
L 349.270338 68.511945 
L 349.312295 68.681294 
L 349.914536 66.571339 
L 350.024915 66.805254 
L 350.142394 66.492495 
L 350.237926 66.585626 
L 350.538724 66.629702 
L 350.591009 68.827363 
L 350.640711 68.229954 
L 350.738826 68.052214 
L 351.323639 66.805648 
L 351.374632 67.031701 
L 352.009793 66.093253 
L 352.061432 66.197618 
L 352.161483 66.175782 
L 352.307364 65.964506 
L 352.602352 66.05826 
L 352.837955 65.681474 
L 353.324654 65.485789 
L 353.542184 67.766883 
L 353.726148 70.958885 
L 353.790052 70.879428 
L 354.188318 70.228421 
L 355.14106 66.810342 
L 355.232074 67.152521 
L 355.440567 66.7018 
L 355.488333 66.960673 
L 355.510279 66.534456 
L 355.743946 67.120722 
L 356.169969 66.782103 
L 356.240327 66.917468 
L 356.535961 66.558058 
L 356.575336 66.733774 
L 356.808358 66.701954 
L 356.917445 66.841325 
L 356.964566 66.772594 
L 357.067844 66.74592 
L 357.227925 67.050587 
L 357.481603 67.837384 
L 357.549379 67.861735 
L 357.788855 67.477297 
L 357.854695 67.85139 
L 358.163884 67.386638 
L 358.169694 66.975162 
L 359.151482 64.304909 
L 359.152128 64.496066 
L 359.314791 64.476138 
L 360.485062 61.889332 
L 360.663217 61.612404 
L 360.723248 61.289205 
L 361.300315 62.044666 
L 361.472015 60.921244 
L 361.723755 60.6037 
L 361.92063 60.736178 
L 362.353107 59.934993 
L 362.674561 60.768878 
L 362.943729 60.80907 
L 363.193534 60.257114 
L 363.297457 60.373944 
L 363.473676 60.898373 
L 363.595028 60.558733 
L 363.652476 60.752842 
L 363.765437 60.624238 
L 363.988776 60.627472 
L 364.223088 60.289039 
L 364.293447 60.433837 
L 364.427063 60.347529 
L 364.48322 60.495434 
L 364.717533 60.267156 
L 364.758844 60.37254 
L 365.047378 60.338151 
L 365.139037 60.568127 
L 365.4592 60.396725 
L 365.56506 60.413909 
L 365.700613 60.550087 
L 365.987855 60.242568 
L 366.636571 59.64394 
L 366.702411 59.969479 
L 366.803753 59.782128 
L 366.972871 62.583865 
L 367.151026 63.627248 
L 367.341445 63.824629 
L 367.424713 63.686601 
L 367.507336 63.746057 
L 367.710665 65.005191 
L 367.848154 64.970115 
L 368.000489 64.819522 
L 368.219956 65.690379 
L 368.316133 65.763954 
L 368.457496 65.709766 
L 368.636941 66.251733 
L 368.914502 66.203686 
L 368.977114 68.719578 
L 369.021653 68.297768 
L 369.395391 67.446204 
L 369.482532 67.604464 
L 369.544499 69.340851 
L 370.211289 68.412706 
L 370.271319 68.643788 
L 370.447538 68.407123 
L 370.522415 68.464593 
L 370.56889 69.098025 
L 370.828376 68.339012 
L 370.901316 69.765695 
L 370.971029 70.777616 
L 371.147248 70.830037 
L 371.198887 73.639738 
L 371.386724 74.680267 
L 371.437718 76.792463 
L 371.62491 76.54185 
L 371.666221 76.698903 
L 372.1271 76.23759 
L 372.327847 76.130765 
L 372.557641 75.791386 
L 372.610571 75.977829 
L 373.281879 75.02032 
L 373.331582 74.564833 
L 373.420014 74.652918 
L 373.576868 74.594806 
L 373.582677 73.245738 
L 373.635607 73.389965 
L 373.88993 73.211844 
L 374.27335 74.171116 
L 374.448278 74.078411 
L 374.691627 75.100051 
L 374.837508 74.857781 
L 375.011144 75.021024 
L 375.147342 74.848139 
L 375.189299 75.07957 
L 375.321624 74.902547 
L 375.378427 74.949061 
L 375.422321 75.055857 
L 375.498488 74.987137 
L 375.78444 74.898538 
L 375.917411 75.335467 
L 375.978732 74.772851 
L 376.155596 74.92828 
L 376.563545 74.330765 
L 376.772683 74.277411 
L 376.822386 74.390376 
L 376.997314 73.597172 
L 377.192897 73.562033 
L 377.267773 73.686988 
L 377.489822 73.520412 
L 377.583417 74.042141 
L 377.978457 73.218051 
L 378.362523 73.007769 
L 378.447727 72.43344 
L 378.59038 72.370854 
L 378.765308 71.998788 
L 379.213922 71.527147 
L 379.430807 71.017428 
L 379.945261 70.700056 
L 380.011101 70.835118 
L 380.221531 70.770516 
L 380.74244 69.024201 
L 380.809571 69.188691 
L 381.185245 69.759425 
L 381.331126 69.620942 
L 381.414394 69.937604 
L 381.484107 69.177584 
L 381.631924 70.05618 
L 381.932722 70.016002 
L 382.036645 69.571567 
L 382.170907 70.011284 
L 382.354871 69.856375 
L 382.355517 72.116097 
L 382.431684 72.098311 
L 382.693753 71.230722 
L 382.86868 72.33475 
L 383.153341 71.946285 
L 383.215953 71.574002 
L 383.260492 71.598903 
L 383.339242 71.686693 
L 383.710398 71.386813 
L 383.792375 71.703926 
L 383.835623 71.681266 
L 384.091882 71.847918 
L 384.293274 72.186776 
L 384.526941 72.157218 
L 384.701223 73.156736 
L 384.865178 72.521887 
L 384.967165 72.582618 
L 385.309919 72.416332 
L 385.708186 71.277518 
L 386.003174 71.165346 
L 386.044486 71.249356 
L 386.149055 71.100062 
L 386.212958 71.315747 
L 386.257497 71.282003 
L 386.271052 70.831633 
L 386.689329 70.676865 
L 386.737095 71.15594 
L 386.943652 70.929805 
L 387.120516 71.402542 
L 387.210239 71.417604 
L 387.392267 71.712586 
L 387.758904 72.716251 
L 387.937705 72.6141 
L 388.023555 72.788317 
L 388.194609 72.554304 
L 388.509608 71.32693 
L 388.661298 71.255946 
L 388.813633 70.931859 
L 389.0544 70.769184 
L 389.228682 70.538776 
L 389.45654 70.508395 
L 389.504952 70.035447 
L 389.734746 69.753932 
L 389.91871 69.898718 
L 389.965185 70.091567 
L 390.150441 69.578641 
L 390.265983 69.736446 
L 390.620356 69.715143 
L 390.811421 69.523919 
L 391.343304 68.291447 
L 392.067543 68.639366 
L 392.484528 67.454139 
L 392.528422 70.068106 
L 392.576833 70.047461 
L 392.866658 69.847979 
L 392.867303 70.396178 
L 392.926043 68.807541 
L 393.53603 67.981905 
L 393.618652 68.045859 
L 393.897504 67.607258 
L 393.942688 67.74851 
L 394.435841 67.402482 
L 394.608832 67.4459 
L 394.715338 67.349473 
L 394.865737 67.428847 
L 394.907694 67.745786 
L 395.132969 67.167022 
L 395.225274 67.455294 
L 395.346626 67.163884 
L 395.459587 67.409811 
L 395.579648 67.373166 
L 395.758448 68.060758 
L 395.815897 68.957231 
L 396.164461 69.024605 
L 396.220618 69.304084 
L 396.333579 69.187338 
L 396.494951 69.832216 
L 396.679561 69.811923 
L 396.727327 70.294319 
L 396.773802 72.740754 
L 396.996496 72.781302 
L 397.443174 73.513793 
L 397.519987 73.418783 
L 397.696206 73.373955 
L 397.916963 72.825024 
L 398.158376 72.894818 
L 398.244226 72.506687 
L 398.290055 72.544575 
L 398.340404 72.700605 
L 398.612154 72.734143 
L 398.712851 73.101654 
L 398.769654 73.854839 
L 398.809028 73.831519 
L 399.069806 74.152175 
L 399.076906 73.962906 
L 399.264744 73.861283 
L 399.33962 73.971722 
L 399.613308 73.045701 
L 399.690121 73.353123 
L 399.957353 73.271009 
L 400.056758 74.058386 
L 400.18392 73.805271 
L 400.244596 73.914153 
L 400.419523 73.881 
L 400.684819 73.763803 
L 400.727421 73.904732 
L 400.902349 73.918226 
L 401.001754 74.042566 
L 401.136016 73.905326 
L 401.383238 74.002526 
L 401.551711 73.758341 
L 401.59044 73.934828 
L 401.751812 73.717413 
L 402.813642 70.609044 
L 402.937575 70.472047 
L 403.43912 70.948168 
L 403.482368 70.773319 
L 403.621794 70.779121 
L 403.785102 70.45251 
L 403.84126 72.180079 
L 404.096873 71.899665 
L 404.192406 72.189435 
L 404.855968 72.235901 
L 405.016695 72.501957 
L 405.282637 72.419552 
L 405.496293 75.222136 
L 405.722214 74.902631 
L 405.810001 74.990857 
L 406.037859 74.85621 
L 406.232796 80.835358 
L 406.331556 80.674754 
L 406.407724 80.627017 
L 406.503901 80.718538 
L 406.565223 80.94336 
L 407.494727 78.266916 
L 407.765832 78.21991 
L 407.90784 78.33815 
L 408.109232 78.133498 
L 408.15248 78.370899 
L 408.379692 78.032226 
L 408.420358 78.337243 
L 408.47587 78.285328 
L 408.671453 77.867287 
L 408.728256 77.900723 
L 408.829598 78.061566 
L 408.98387 76.554434 
L 409.13556 76.955066 
L 409.172998 76.964154 
L 409.225283 77.166541 
L 409.286604 76.964082 
L 409.491224 76.506136 
L 409.542863 78.491602 
L 409.742965 78.062502 
L 409.771366 78.131411 
L 409.815905 78.195076 
L 409.857862 78.561887 
L 410.066355 75.768235 
L 410.11993 76.834753 
L 410.159951 76.817691 
L 410.354888 76.673818 
L 410.46333 77.149285 
L 410.493668 77.897508 
L 411.379925 76.013789 
L 411.430273 76.014525 
L 411.484494 76.33728 
L 413.55845 71.023734 
L 413.741768 71.467541 
L 413.857311 70.921576 
L 414.342073 75.868095 
L 414.632543 75.671572 
L 414.651908 75.72597 
L 414.696446 75.913987 
L 414.868792 75.558774 
L 415.17669 74.338678 
L 415.259958 74.815445 
L 415.316761 74.533389 
L 415.411003 74.222512 
L 417.324232 69.07809 
L 418.269227 71.987264 
L 418.999921 70.584603 
L 419.167102 70.533279 
L 419.26909 70.768026 
L 419.319438 70.366057 
L 419.786126 70.767516 
L 419.845511 73.341496 
L 420.460017 71.927414 
L 420.505846 72.138656 
L 420.587178 72.084624 
L 420.740804 74.044835 
L 421.283661 73.408191 
L 421.337882 73.636504 
L 421.395976 73.273009 
L 421.937541 72.301915 
L 422.375182 73.067861 
L 422.661779 73.006918 
L 423.36859 71.265004 
L 423.444112 71.443321 
L 423.85787 70.893035 
L 424.094765 71.41582 
L 424.152859 73.217967 
L 424.55048 72.553851 
L 424.605346 72.733664 
L 424.886779 72.802794 
L 425.598108 70.888228 
L 425.643938 71.335356 
L 425.649102 70.970529 
L 425.942154 71.808176 
L 426.228751 71.238478 
L 426.228751 71.238478 
" clip-path="url(#pcff064373c)" style="fill: none; stroke: #1f77b4; stroke-width: 2; stroke-linecap: square"/>
   </g>
   <g id="patch_3">
    <path d="M 73.64 294.64 
L 73.64 31.56 
" style="fill: none; stroke: #000000; stroke-width: 0.8; stroke-linejoin: miter; stroke-linecap: square"/>
   </g>
   <g id="patch_4">
    <path d="M 443.018691 294.64 
L 443.018691 31.56 
" style="fill: none; stroke: #000000; stroke-width: 0.8; stroke-linejoin: miter; stroke-linecap: square"/>
   </g>
   <g id="patch_5">
    <path d="M 73.64 294.64 
L 443.018691 294.64 
" style="fill: none; stroke: #000000; stroke-width: 0.8; stroke-linejoin: miter; stroke-linecap: square"/>
   </g>
   <g id="patch_6">
    <path d="M 73.64 31.56 
L 443.018691 31.56 
" style="fill: none; stroke: #000000; stroke-width: 0.8; stroke-linejoin: miter; stroke-linecap: square"/>
   </g>
   <g id="text_18">
    <!-- Learning Curve Smoothed -->
    <g transform="translate(156.647814 25.56)scale(0.156 -0.156)">
     <defs>
      <path id="DejaVuSans-4c" d="M 628 4666 
L 1259 4666 
L 1259 531 
L 3531 531 
L 3531 0 
L 628 0 
L 628 4666 
z
" transform="scale(0.015625)"/>
      <path id="DejaVuSans-6e" d="M 3513 2113 
L 3513 0 
L 2938 0 
L 2938 2094 
Q 2938 2591 2744 2837 
Q 2550 3084 2163 3084 
Q 1697 3084 1428 2787 
Q 1159 2491 1159 1978 
L 1159 0 
L 581 0 
L 581 3500 
L 1159 3500 
L 1159 2956 
Q 1366 3272 1645 3428 
Q 1925 3584 2291 3584 
Q 2894 3584 3203 3211 
Q 3513 2838 3513 2113 
z
" transform="scale(0.015625)"/>
      <path id="DejaVuSans-67" d="M 2906 1791 
Q 2906 2416 2648 2759 
Q 2391 3103 1925 3103 
Q 1463 3103 1205 2759 
Q 947 2416 947 1791 
Q 947 1169 1205 825 
Q 1463 481 1925 481 
Q 2391 481 2648 825 
Q 2906 1169 2906 1791 
z
M 3481 434 
Q 3481 -459 3084 -895 
Q 2688 -1331 1869 -1331 
Q 1566 -1331 1297 -1286 
Q 1028 -1241 775 -1147 
L 775 -588 
Q 1028 -725 1275 -790 
Q 1522 -856 1778 -856 
Q 2344 -856 2625 -561 
Q 2906 -266 2906 331 
L 2906 616 
Q 2728 306 2450 153 
Q 2172 0 1784 0 
Q 1141 0 747 490 
Q 353 981 353 1791 
Q 353 2603 747 3093 
Q 1141 3584 1784 3584 
Q 2172 3584 2450 3431 
Q 2728 3278 2906 2969 
L 2906 3500 
L 3481 3500 
L 3481 434 
z
" transform="scale(0.015625)"/>
      <path id="DejaVuSans-43" d="M 4122 4306 
L 4122 3641 
Q 3803 3938 3442 4084 
Q 3081 4231 2675 4231 
Q 1875 4231 1450 3742 
Q 1025 3253 1025 2328 
Q 1025 1406 1450 917 
Q 1875 428 2675 428 
Q 3081 428 3442 575 
Q 3803 722 4122 1019 
L 4122 359 
Q 3791 134 3420 21 
Q 3050 -91 2638 -91 
Q 1578 -91 968 557 
Q 359 1206 359 2328 
Q 359 3453 968 4101 
Q 1578 4750 2638 4750 
Q 3056 4750 3426 4639 
Q 3797 4528 4122 4306 
z
" transform="scale(0.015625)"/>
      <path id="DejaVuSans-76" d="M 191 3500 
L 800 3500 
L 1894 563 
L 2988 3500 
L 3597 3500 
L 2284 0 
L 1503 0 
L 191 3500 
z
" transform="scale(0.015625)"/>
      <path id="DejaVuSans-53" d="M 3425 4513 
L 3425 3897 
Q 3066 4069 2747 4153 
Q 2428 4238 2131 4238 
Q 1616 4238 1336 4038 
Q 1056 3838 1056 3469 
Q 1056 3159 1242 3001 
Q 1428 2844 1947 2747 
L 2328 2669 
Q 3034 2534 3370 2195 
Q 3706 1856 3706 1288 
Q 3706 609 3251 259 
Q 2797 -91 1919 -91 
Q 1588 -91 1214 -16 
Q 841 59 441 206 
L 441 856 
Q 825 641 1194 531 
Q 1563 422 1919 422 
Q 2459 422 2753 634 
Q 3047 847 3047 1241 
Q 3047 1584 2836 1778 
Q 2625 1972 2144 2069 
L 1759 2144 
Q 1053 2284 737 2584 
Q 422 2884 422 3419 
Q 422 4038 858 4394 
Q 1294 4750 2059 4750 
Q 2388 4750 2728 4690 
Q 3069 4631 3425 4513 
z
" transform="scale(0.015625)"/>
      <path id="DejaVuSans-68" d="M 3513 2113 
L 3513 0 
L 2938 0 
L 2938 2094 
Q 2938 2591 2744 2837 
Q 2550 3084 2163 3084 
Q 1697 3084 1428 2787 
Q 1159 2491 1159 1978 
L 1159 0 
L 581 0 
L 581 4863 
L 1159 4863 
L 1159 2956 
Q 1366 3272 1645 3428 
Q 1925 3584 2291 3584 
Q 2894 3584 3203 3211 
Q 3513 2838 3513 2113 
z
" transform="scale(0.015625)"/>
     </defs>
     <use xlink:href="#DejaVuSans-4c"/>
     <use xlink:href="#DejaVuSans-65" x="53.962891"/>
     <use xlink:href="#DejaVuSans-61" x="115.486328"/>
     <use xlink:href="#DejaVuSans-72" x="176.765625"/>
     <use xlink:href="#DejaVuSans-6e" x="216.128906"/>
     <use xlink:href="#DejaVuSans-69" x="279.507812"/>
     <use xlink:href="#DejaVuSans-6e" x="307.291016"/>
     <use xlink:href="#DejaVuSans-67" x="370.669922"/>
     <use xlink:href="#DejaVuSans-20" x="434.146484"/>
     <use xlink:href="#DejaVuSans-43" x="465.933594"/>
     <use xlink:href="#DejaVuSans-75" x="535.757812"/>
     <use xlink:href="#DejaVuSans-72" x="599.136719"/>
     <use xlink:href="#DejaVuSans-76" x="640.25"/>
     <use xlink:href="#DejaVuSans-65" x="699.429688"/>
     <use xlink:href="#DejaVuSans-20" x="760.953125"/>
     <use xlink:href="#DejaVuSans-53" x="792.740234"/>
     <use xlink:href="#DejaVuSans-6d" x="856.216797"/>
     <use xlink:href="#DejaVuSans-6f" x="953.628906"/>
     <use xlink:href="#DejaVuSans-6f" x="1014.810547"/>
     <use xlink:href="#DejaVuSans-74" x="1075.992188"/>
     <use xlink:href="#DejaVuSans-68" x="1115.201172"/>
     <use xlink:href="#DejaVuSans-65" x="1178.580078"/>
     <use xlink:href="#DejaVuSans-64" x="1240.103516"/>
    </g>
   </g>
   <g id="legend_1">
    <g id="patch_7">
     <path d="M 82.74 61.041562 
L 219.199375 61.041562 
Q 221.799375 61.041562 221.799375 58.441562 
L 221.799375 40.66 
Q 221.799375 38.06 219.199375 38.06 
L 82.74 38.06 
Q 80.14 38.06 80.14 40.66 
L 80.14 58.441562 
Q 80.14 61.041562 82.74 61.041562 
z
" style="fill: #ffffff; opacity: 0.8; stroke: #cccccc; stroke-linejoin: miter"/>
    </g>
    <g id="line2d_32">
     <path d="M 85.34 48.587969 
L 98.34 48.587969 
L 111.34 48.587969 
" style="fill: none; stroke: #1f77b4; stroke-width: 2; stroke-linecap: square"/>
    </g>
    <g id="text_19">
     <!-- Filter size: 500 -->
     <g transform="translate(121.74 53.137969)scale(0.13 -0.13)">
      <defs>
       <path id="DejaVuSans-46" d="M 628 4666 
L 3309 4666 
L 3309 4134 
L 1259 4134 
L 1259 2759 
L 3109 2759 
L 3109 2228 
L 1259 2228 
L 1259 0 
L 628 0 
L 628 4666 
z
" transform="scale(0.015625)"/>
       <path id="DejaVuSans-6c" d="M 603 4863 
L 1178 4863 
L 1178 0 
L 603 0 
L 603 4863 
z
" transform="scale(0.015625)"/>
       <path id="DejaVuSans-7a" d="M 353 3500 
L 3084 3500 
L 3084 2975 
L 922 459 
L 3084 459 
L 3084 0 
L 275 0 
L 275 525 
L 2438 3041 
L 353 3041 
L 353 3500 
z
" transform="scale(0.015625)"/>
       <path id="DejaVuSans-3a" d="M 750 794 
L 1409 794 
L 1409 0 
L 750 0 
L 750 794 
z
M 750 3309 
L 1409 3309 
L 1409 2516 
L 750 2516 
L 750 3309 
z
" transform="scale(0.015625)"/>
      </defs>
      <use xlink:href="#DejaVuSans-46"/>
      <use xlink:href="#DejaVuSans-69" x="50.269531"/>
      <use xlink:href="#DejaVuSans-6c" x="78.052734"/>
      <use xlink:href="#DejaVuSans-74" x="105.835938"/>
      <use xlink:href="#DejaVuSans-65" x="145.044922"/>
      <use xlink:href="#DejaVuSans-72" x="206.568359"/>
      <use xlink:href="#DejaVuSans-20" x="247.681641"/>
      <use xlink:href="#DejaVuSans-73" x="279.46875"/>
      <use xlink:href="#DejaVuSans-69" x="331.568359"/>
      <use xlink:href="#DejaVuSans-7a" x="359.351562"/>
      <use xlink:href="#DejaVuSans-65" x="411.841797"/>
      <use xlink:href="#DejaVuSans-3a" x="473.365234"/>
      <use xlink:href="#DejaVuSans-20" x="507.056641"/>
      <use xlink:href="#DejaVuSans-35" x="538.84375"/>
      <use xlink:href="#DejaVuSans-30" x="602.466797"/>
      <use xlink:href="#DejaVuSans-30" x="666.089844"/>
     </g>
    </g>
   </g>
  </g>
 </g>
 <defs>
  <clipPath id="pcff064373c">
   <rect x="73.64" y="31.56" width="369.378691" height="263.08"/>
  </clipPath>
 </defs>
</svg>
