<?xml version="1.0" encoding="utf-8" standalone="no"?>
<!DOCTYPE svg PUBLIC "-//W3C//DTD SVG 1.1//EN"
  "http://www.w3.org/Graphics/SVG/1.1/DTD/svg11.dtd">
<svg xmlns:xlink="http://www.w3.org/1999/xlink" width="460.8pt" height="345.6pt" viewBox="0 0 460.8 345.6" xmlns="http://www.w3.org/2000/svg" version="1.1">
 <metadata>
  <rdf:RDF xmlns:dc="http://purl.org/dc/elements/1.1/" xmlns:cc="http://creativecommons.org/ns#" xmlns:rdf="http://www.w3.org/1999/02/22-rdf-syntax-ns#">
   <cc:Work>
    <dc:type rdf:resource="http://purl.org/dc/dcmitype/StillImage"/>
    <dc:date>2022-06-05T14:38:02.805512</dc:date>
    <dc:format>image/svg+xml</dc:format>
    <dc:creator>
     <cc:Agent>
      <dc:title>Matplotlib v3.5.1, https://matplotlib.org/</dc:title>
     </cc:Agent>
    </dc:creator>
   </cc:Work>
  </rdf:RDF>
 </metadata>
 <defs>
  <style type="text/css">*{stroke-linejoin: round; stroke-linecap: butt}</style>
 </defs>
 <g id="figure_1">
  <g id="patch_1">
   <path d="M 0 345.6 
L 460.8 345.6 
L 460.8 0 
L 0 0 
z
" style="fill: #ffffff"/>
  </g>
  <g id="axes_1">
   <g id="patch_2">
    <path d="M 58.106 78.7975 
L 450 78.7975 
L 450 28.32 
L 58.106 28.32 
z
" style="fill: #ffffff"/>
   </g>
   <g id="matplotlib.axis_1">
    <g id="xtick_1">
     <g id="line2d_1">
      <path d="M 75.919364 78.7975 
L 75.919364 28.32 
" clip-path="url(#p536190ea52)" style="fill: none; stroke: #b0b0b0; stroke-width: 0.8; stroke-linecap: square"/>
     </g>
     <g id="line2d_2">
      <defs>
       <path id="m468f1b7cac" d="M 0 0 
L 0 3.5 
" style="stroke: #000000; stroke-width: 0.8"/>
      </defs>
      <g>
       <use xlink:href="#m468f1b7cac" x="75.919364" y="78.7975" style="stroke: #000000; stroke-width: 0.8"/>
      </g>
     </g>
     <g id="text_1">
      <!-- 0 -->
      <g transform="translate(72.738114 93.395937)scale(0.1 -0.1)">
       <defs>
        <path id="DejaVuSans-30" d="M 2034 4250 
Q 1547 4250 1301 3770 
Q 1056 3291 1056 2328 
Q 1056 1369 1301 889 
Q 1547 409 2034 409 
Q 2525 409 2770 889 
Q 3016 1369 3016 2328 
Q 3016 3291 2770 3770 
Q 2525 4250 2034 4250 
z
M 2034 4750 
Q 2819 4750 3233 4129 
Q 3647 3509 3647 2328 
Q 3647 1150 3233 529 
Q 2819 -91 2034 -91 
Q 1250 -91 836 529 
Q 422 1150 422 2328 
Q 422 3509 836 4129 
Q 1250 4750 2034 4750 
z
" transform="scale(0.015625)"/>
       </defs>
       <use xlink:href="#DejaVuSans-30"/>
      </g>
     </g>
    </g>
    <g id="xtick_2">
     <g id="line2d_3">
      <path d="M 146.537257 78.7975 
L 146.537257 28.32 
" clip-path="url(#p536190ea52)" style="fill: none; stroke: #b0b0b0; stroke-width: 0.8; stroke-linecap: square"/>
     </g>
     <g id="line2d_4">
      <g>
       <use xlink:href="#m468f1b7cac" x="146.537257" y="78.7975" style="stroke: #000000; stroke-width: 0.8"/>
      </g>
     </g>
     <g id="text_2">
      <!-- 2 -->
      <g transform="translate(143.356007 93.395937)scale(0.1 -0.1)">
       <defs>
        <path id="DejaVuSans-32" d="M 1228 531 
L 3431 531 
L 3431 0 
L 469 0 
L 469 531 
Q 828 903 1448 1529 
Q 2069 2156 2228 2338 
Q 2531 2678 2651 2914 
Q 2772 3150 2772 3378 
Q 2772 3750 2511 3984 
Q 2250 4219 1831 4219 
Q 1534 4219 1204 4116 
Q 875 4013 500 3803 
L 500 4441 
Q 881 4594 1212 4672 
Q 1544 4750 1819 4750 
Q 2544 4750 2975 4387 
Q 3406 4025 3406 3419 
Q 3406 3131 3298 2873 
Q 3191 2616 2906 2266 
Q 2828 2175 2409 1742 
Q 1991 1309 1228 531 
z
" transform="scale(0.015625)"/>
       </defs>
       <use xlink:href="#DejaVuSans-32"/>
      </g>
     </g>
    </g>
    <g id="xtick_3">
     <g id="line2d_5">
      <path d="M 217.155151 78.7975 
L 217.155151 28.32 
" clip-path="url(#p536190ea52)" style="fill: none; stroke: #b0b0b0; stroke-width: 0.8; stroke-linecap: square"/>
     </g>
     <g id="line2d_6">
      <g>
       <use xlink:href="#m468f1b7cac" x="217.155151" y="78.7975" style="stroke: #000000; stroke-width: 0.8"/>
      </g>
     </g>
     <g id="text_3">
      <!-- 4 -->
      <g transform="translate(213.973901 93.395937)scale(0.1 -0.1)">
       <defs>
        <path id="DejaVuSans-34" d="M 2419 4116 
L 825 1625 
L 2419 1625 
L 2419 4116 
z
M 2253 4666 
L 3047 4666 
L 3047 1625 
L 3713 1625 
L 3713 1100 
L 3047 1100 
L 3047 0 
L 2419 0 
L 2419 1100 
L 313 1100 
L 313 1709 
L 2253 4666 
z
" transform="scale(0.015625)"/>
       </defs>
       <use xlink:href="#DejaVuSans-34"/>
      </g>
     </g>
    </g>
    <g id="xtick_4">
     <g id="line2d_7">
      <path d="M 287.773044 78.7975 
L 287.773044 28.32 
" clip-path="url(#p536190ea52)" style="fill: none; stroke: #b0b0b0; stroke-width: 0.8; stroke-linecap: square"/>
     </g>
     <g id="line2d_8">
      <g>
       <use xlink:href="#m468f1b7cac" x="287.773044" y="78.7975" style="stroke: #000000; stroke-width: 0.8"/>
      </g>
     </g>
     <g id="text_4">
      <!-- 6 -->
      <g transform="translate(284.591794 93.395937)scale(0.1 -0.1)">
       <defs>
        <path id="DejaVuSans-36" d="M 2113 2584 
Q 1688 2584 1439 2293 
Q 1191 2003 1191 1497 
Q 1191 994 1439 701 
Q 1688 409 2113 409 
Q 2538 409 2786 701 
Q 3034 994 3034 1497 
Q 3034 2003 2786 2293 
Q 2538 2584 2113 2584 
z
M 3366 4563 
L 3366 3988 
Q 3128 4100 2886 4159 
Q 2644 4219 2406 4219 
Q 1781 4219 1451 3797 
Q 1122 3375 1075 2522 
Q 1259 2794 1537 2939 
Q 1816 3084 2150 3084 
Q 2853 3084 3261 2657 
Q 3669 2231 3669 1497 
Q 3669 778 3244 343 
Q 2819 -91 2113 -91 
Q 1303 -91 875 529 
Q 447 1150 447 2328 
Q 447 3434 972 4092 
Q 1497 4750 2381 4750 
Q 2619 4750 2861 4703 
Q 3103 4656 3366 4563 
z
" transform="scale(0.015625)"/>
       </defs>
       <use xlink:href="#DejaVuSans-36"/>
      </g>
     </g>
    </g>
    <g id="xtick_5">
     <g id="line2d_9">
      <path d="M 358.390938 78.7975 
L 358.390938 28.32 
" clip-path="url(#p536190ea52)" style="fill: none; stroke: #b0b0b0; stroke-width: 0.8; stroke-linecap: square"/>
     </g>
     <g id="line2d_10">
      <g>
       <use xlink:href="#m468f1b7cac" x="358.390938" y="78.7975" style="stroke: #000000; stroke-width: 0.8"/>
      </g>
     </g>
     <g id="text_5">
      <!-- 8 -->
      <g transform="translate(355.209688 93.395937)scale(0.1 -0.1)">
       <defs>
        <path id="DejaVuSans-38" d="M 2034 2216 
Q 1584 2216 1326 1975 
Q 1069 1734 1069 1313 
Q 1069 891 1326 650 
Q 1584 409 2034 409 
Q 2484 409 2743 651 
Q 3003 894 3003 1313 
Q 3003 1734 2745 1975 
Q 2488 2216 2034 2216 
z
M 1403 2484 
Q 997 2584 770 2862 
Q 544 3141 544 3541 
Q 544 4100 942 4425 
Q 1341 4750 2034 4750 
Q 2731 4750 3128 4425 
Q 3525 4100 3525 3541 
Q 3525 3141 3298 2862 
Q 3072 2584 2669 2484 
Q 3125 2378 3379 2068 
Q 3634 1759 3634 1313 
Q 3634 634 3220 271 
Q 2806 -91 2034 -91 
Q 1263 -91 848 271 
Q 434 634 434 1313 
Q 434 1759 690 2068 
Q 947 2378 1403 2484 
z
M 1172 3481 
Q 1172 3119 1398 2916 
Q 1625 2713 2034 2713 
Q 2441 2713 2670 2916 
Q 2900 3119 2900 3481 
Q 2900 3844 2670 4047 
Q 2441 4250 2034 4250 
Q 1625 4250 1398 4047 
Q 1172 3844 1172 3481 
z
" transform="scale(0.015625)"/>
       </defs>
       <use xlink:href="#DejaVuSans-38"/>
      </g>
     </g>
    </g>
    <g id="xtick_6">
     <g id="line2d_11">
      <path d="M 429.008831 78.7975 
L 429.008831 28.32 
" clip-path="url(#p536190ea52)" style="fill: none; stroke: #b0b0b0; stroke-width: 0.8; stroke-linecap: square"/>
     </g>
     <g id="line2d_12">
      <g>
       <use xlink:href="#m468f1b7cac" x="429.008831" y="78.7975" style="stroke: #000000; stroke-width: 0.8"/>
      </g>
     </g>
     <g id="text_6">
      <!-- 10 -->
      <g transform="translate(422.646331 93.395937)scale(0.1 -0.1)">
       <defs>
        <path id="DejaVuSans-31" d="M 794 531 
L 1825 531 
L 1825 4091 
L 703 3866 
L 703 4441 
L 1819 4666 
L 2450 4666 
L 2450 531 
L 3481 531 
L 3481 0 
L 794 0 
L 794 531 
z
" transform="scale(0.015625)"/>
       </defs>
       <use xlink:href="#DejaVuSans-31"/>
       <use xlink:href="#DejaVuSans-30" x="63.623047"/>
      </g>
     </g>
    </g>
    <g id="text_7">
     <!-- $t$ [s] -->
     <g transform="translate(243.953 107.074062)scale(0.1 -0.1)">
      <defs>
       <path id="DejaVuSans-Oblique-74" d="M 2706 3500 
L 2619 3053 
L 1472 3053 
L 1100 1153 
Q 1081 1047 1072 975 
Q 1063 903 1063 863 
Q 1063 663 1183 572 
Q 1303 481 1569 481 
L 2150 481 
L 2053 0 
L 1503 0 
Q 991 0 739 200 
Q 488 400 488 806 
Q 488 878 497 964 
Q 506 1050 525 1153 
L 897 3053 
L 409 3053 
L 500 3500 
L 978 3500 
L 1172 4494 
L 1747 4494 
L 1556 3500 
L 2706 3500 
z
" transform="scale(0.015625)"/>
       <path id="DejaVuSans-20" transform="scale(0.015625)"/>
       <path id="DejaVuSans-5b" d="M 550 4863 
L 1875 4863 
L 1875 4416 
L 1125 4416 
L 1125 -397 
L 1875 -397 
L 1875 -844 
L 550 -844 
L 550 4863 
z
" transform="scale(0.015625)"/>
       <path id="DejaVuSans-73" d="M 2834 3397 
L 2834 2853 
Q 2591 2978 2328 3040 
Q 2066 3103 1784 3103 
Q 1356 3103 1142 2972 
Q 928 2841 928 2578 
Q 928 2378 1081 2264 
Q 1234 2150 1697 2047 
L 1894 2003 
Q 2506 1872 2764 1633 
Q 3022 1394 3022 966 
Q 3022 478 2636 193 
Q 2250 -91 1575 -91 
Q 1294 -91 989 -36 
Q 684 19 347 128 
L 347 722 
Q 666 556 975 473 
Q 1284 391 1588 391 
Q 1994 391 2212 530 
Q 2431 669 2431 922 
Q 2431 1156 2273 1281 
Q 2116 1406 1581 1522 
L 1381 1569 
Q 847 1681 609 1914 
Q 372 2147 372 2553 
Q 372 3047 722 3315 
Q 1072 3584 1716 3584 
Q 2034 3584 2315 3537 
Q 2597 3491 2834 3397 
z
" transform="scale(0.015625)"/>
       <path id="DejaVuSans-5d" d="M 1947 4863 
L 1947 -844 
L 622 -844 
L 622 -397 
L 1369 -397 
L 1369 4416 
L 622 4416 
L 622 4863 
L 1947 4863 
z
" transform="scale(0.015625)"/>
      </defs>
      <use xlink:href="#DejaVuSans-Oblique-74" transform="translate(0 0.015625)"/>
      <use xlink:href="#DejaVuSans-20" transform="translate(39.208984 0.015625)"/>
      <use xlink:href="#DejaVuSans-5b" transform="translate(70.996094 0.015625)"/>
      <use xlink:href="#DejaVuSans-73" transform="translate(110.009766 0.015625)"/>
      <use xlink:href="#DejaVuSans-5d" transform="translate(162.109375 0.015625)"/>
     </g>
    </g>
   </g>
   <g id="matplotlib.axis_2">
    <g id="ytick_1">
     <g id="line2d_13">
      <path d="M 58.106 76.565722 
L 450 76.565722 
" clip-path="url(#p536190ea52)" style="fill: none; stroke: #b0b0b0; stroke-width: 0.8; stroke-linecap: square"/>
     </g>
     <g id="line2d_14">
      <defs>
       <path id="m06101269ca" d="M 0 0 
L -3.5 0 
" style="stroke: #000000; stroke-width: 0.8"/>
      </defs>
      <g>
       <use xlink:href="#m06101269ca" x="58.106" y="76.565722" style="stroke: #000000; stroke-width: 0.8"/>
      </g>
     </g>
     <g id="text_8">
      <!-- 0 -->
      <g transform="translate(44.7435 80.364941)scale(0.1 -0.1)">
       <use xlink:href="#DejaVuSans-30"/>
      </g>
     </g>
    </g>
    <g id="ytick_2">
     <g id="line2d_15">
      <path d="M 58.106 30.614449 
L 450 30.614449 
" clip-path="url(#p536190ea52)" style="fill: none; stroke: #b0b0b0; stroke-width: 0.8; stroke-linecap: square"/>
     </g>
     <g id="line2d_16">
      <g>
       <use xlink:href="#m06101269ca" x="58.106" y="30.614449" style="stroke: #000000; stroke-width: 0.8"/>
      </g>
     </g>
     <g id="text_9">
      <!-- 10 -->
      <g transform="translate(38.381 34.413668)scale(0.1 -0.1)">
       <use xlink:href="#DejaVuSans-31"/>
       <use xlink:href="#DejaVuSans-30" x="63.623047"/>
      </g>
     </g>
    </g>
    <g id="text_10">
     <!-- $e_x$ [m] -->
     <g transform="translate(32.301313 69.20875)rotate(-90)scale(0.1 -0.1)">
      <defs>
       <path id="DejaVuSans-Oblique-65" d="M 3078 2063 
Q 3088 2113 3092 2166 
Q 3097 2219 3097 2272 
Q 3097 2653 2873 2875 
Q 2650 3097 2266 3097 
Q 1838 3097 1509 2826 
Q 1181 2556 1013 2059 
L 3078 2063 
z
M 3578 1613 
L 903 1613 
Q 884 1494 878 1425 
Q 872 1356 872 1306 
Q 872 872 1139 634 
Q 1406 397 1894 397 
Q 2269 397 2603 481 
Q 2938 566 3225 728 
L 3116 159 
Q 2806 34 2476 -28 
Q 2147 -91 1806 -91 
Q 1078 -91 686 257 
Q 294 606 294 1247 
Q 294 1794 489 2264 
Q 684 2734 1063 3103 
Q 1306 3334 1642 3459 
Q 1978 3584 2356 3584 
Q 2950 3584 3301 3228 
Q 3653 2872 3653 2272 
Q 3653 2128 3634 1964 
Q 3616 1800 3578 1613 
z
" transform="scale(0.015625)"/>
       <path id="DejaVuSans-Oblique-78" d="M 3841 3500 
L 2234 1784 
L 3219 0 
L 2559 0 
L 1819 1388 
L 531 0 
L -166 0 
L 1556 1844 
L 641 3500 
L 1300 3500 
L 1972 2234 
L 3144 3500 
L 3841 3500 
z
" transform="scale(0.015625)"/>
       <path id="DejaVuSans-6d" d="M 3328 2828 
Q 3544 3216 3844 3400 
Q 4144 3584 4550 3584 
Q 5097 3584 5394 3201 
Q 5691 2819 5691 2113 
L 5691 0 
L 5113 0 
L 5113 2094 
Q 5113 2597 4934 2840 
Q 4756 3084 4391 3084 
Q 3944 3084 3684 2787 
Q 3425 2491 3425 1978 
L 3425 0 
L 2847 0 
L 2847 2094 
Q 2847 2600 2669 2842 
Q 2491 3084 2119 3084 
Q 1678 3084 1418 2786 
Q 1159 2488 1159 1978 
L 1159 0 
L 581 0 
L 581 3500 
L 1159 3500 
L 1159 2956 
Q 1356 3278 1631 3431 
Q 1906 3584 2284 3584 
Q 2666 3584 2933 3390 
Q 3200 3197 3328 2828 
z
" transform="scale(0.015625)"/>
      </defs>
      <use xlink:href="#DejaVuSans-Oblique-65" transform="translate(0 0.015625)"/>
      <use xlink:href="#DejaVuSans-Oblique-78" transform="translate(61.523438 -16.390625)scale(0.7)"/>
      <use xlink:href="#DejaVuSans-20" transform="translate(105.683594 0.015625)"/>
      <use xlink:href="#DejaVuSans-5b" transform="translate(137.470703 0.015625)"/>
      <use xlink:href="#DejaVuSans-6d" transform="translate(176.484375 0.015625)"/>
      <use xlink:href="#DejaVuSans-5d" transform="translate(273.896484 0.015625)"/>
     </g>
    </g>
   </g>
   <g id="line2d_17">
    <path d="M 75.919364 30.614449 
L 84.048478 30.722345 
L 102.780785 31.653784 
L 107.375502 32.102974 
L 109.84958 32.395446 
L 111.263339 32.577555 
L 114.090857 32.949429 
L 114.797737 33.049357 
L 115.858056 33.208516 
L 119.039014 33.674319 
L 122.219972 34.097321 
L 124.69405 34.475886 
L 126.107809 34.768051 
L 127.168128 34.948714 
L 129.642206 35.413947 
L 132.823164 36.105993 
L 133.176604 36.105993 
L 134.236923 36.341715 
L 137.064441 37.006472 
L 137.417881 37.006472 
L 138.4782 37.287852 
L 140.245399 37.672307 
L 142.719477 38.230515 
L 144.840116 38.727962 
L 146.960754 39.221711 
L 149.081393 39.705402 
L 151.202031 40.176293 
L 154.029549 40.84309 
L 154.382989 40.84309 
L 155.089869 41.020057 
L 157.917387 41.595558 
L 158.977706 41.820226 
L 161.805224 42.374178 
L 164.279302 42.86964 
L 165.693061 43.061973 
L 166.046501 43.226478 
L 167.10682 43.363218 
L 168.16714 43.635577 
L 169.227459 43.771151 
L 170.641218 44.094511 
L 171.701537 44.281342 
L 174.882495 44.855395 
L 175.942814 45.058988 
L 179.123772 45.61039 
L 180.184091 45.808864 
L 183.011609 46.303461 
L 185.839127 46.821049 
L 186.546007 46.918302 
L 190.433844 47.532208 
L 191.494163 47.764544 
L 192.554483 47.880851 
L 193.614802 48.112946 
L 194.675121 48.228077 
L 196.08888 48.499707 
L 197.502639 48.699586 
L 200.683597 49.237107 
L 201.390477 49.328332 
L 205.278314 49.913164 
L 206.692073 50.153219 
L 209.873031 50.645675 
L 210.93335 50.832234 
L 213.760868 51.276132 
L 214.821187 51.503944 
L 215.881506 51.616154 
L 216.588386 51.727792 
L 217.648705 51.906901 
L 220.122784 52.297207 
L 221.183103 52.531072 
L 222.243422 52.647616 
L 223.657181 52.92328 
L 224.7175 53.080953 
L 227.545018 53.504049 
L 230.725976 54.0011 
L 232.139735 54.249056 
L 233.200054 54.426323 
L 237.087892 54.964089 
L 237.794771 55.11483 
L 240.622289 55.530171 
L 242.389488 55.854721 
L 243.096368 55.939369 
L 246.277325 56.417626 
L 248.751404 56.758322 
L 252.285801 57.29574 
L 256.173639 57.877241 
L 259.354596 58.350103 
L 260.414916 58.522903 
L 263.595873 58.982175 
L 264.656193 59.144567 
L 267.483711 59.557856 
L 268.54403 59.726978 
L 273.138747 60.345272 
L 273.845626 60.484505 
L 277.380024 60.970849 
L 278.440343 61.136772 
L 281.974741 61.657146 
L 284.802259 62.061753 
L 285.509138 62.140543 
L 288.690096 62.564935 
L 289.396975 62.66568 
L 290.457295 62.822971 
L 295.052012 63.410384 
L 296.465771 63.615552 
L 300.353608 64.147755 
L 303.181126 64.559591 
L 304.241445 64.665264 
L 307.775843 65.088577 
L 309.543041 65.368452 
L 315.551517 66.117823 
L 320.146234 66.673686 
L 321.206553 66.780822 
L 324.387511 67.168447 
L 329.689108 67.744511 
L 330.395987 67.859004 
L 334.283824 68.336337 
L 337.111342 68.674129 
L 338.171662 68.766057 
L 345.947336 69.67208 
L 352.309252 70.32663 
L 354.076451 70.536611 
L 357.964288 71.002859 
L 362.205565 71.438935 
L 366.093402 71.890046 
L 373.515637 72.65863 
L 375.282836 72.860945 
L 380.584432 73.443948 
L 382.351631 73.638958 
L 383.41195 73.732162 
L 388.360107 74.206692 
L 390.127306 74.397817 
L 409.213052 75.869943 
L 411.333691 75.960125 
L 414.868088 76.113021 
L 429.712558 76.487944 
L 432.186636 76.503068 
L 432.186636 76.503068 
" clip-path="url(#p536190ea52)" style="fill: none; stroke: #ff0000; stroke-width: 1.5; stroke-linecap: square"/>
   </g>
   <g id="patch_3">
    <path d="M 58.106 78.7975 
L 58.106 28.32 
" style="fill: none; stroke: #000000; stroke-width: 0.8; stroke-linejoin: miter; stroke-linecap: square"/>
   </g>
   <g id="patch_4">
    <path d="M 450 78.7975 
L 450 28.32 
" style="fill: none; stroke: #000000; stroke-width: 0.8; stroke-linejoin: miter; stroke-linecap: square"/>
   </g>
   <g id="patch_5">
    <path d="M 58.106 78.7975 
L 450 78.7975 
" style="fill: none; stroke: #000000; stroke-width: 0.8; stroke-linejoin: miter; stroke-linecap: square"/>
   </g>
   <g id="patch_6">
    <path d="M 58.106 28.32 
L 450 28.32 
" style="fill: none; stroke: #000000; stroke-width: 0.8; stroke-linejoin: miter; stroke-linecap: square"/>
   </g>
   <g id="text_11">
    <!-- Error in $x$-position -->
    <g transform="translate(200.413 22.32)scale(0.12 -0.12)">
     <defs>
      <path id="DejaVuSans-45" d="M 628 4666 
L 3578 4666 
L 3578 4134 
L 1259 4134 
L 1259 2753 
L 3481 2753 
L 3481 2222 
L 1259 2222 
L 1259 531 
L 3634 531 
L 3634 0 
L 628 0 
L 628 4666 
z
" transform="scale(0.015625)"/>
      <path id="DejaVuSans-72" d="M 2631 2963 
Q 2534 3019 2420 3045 
Q 2306 3072 2169 3072 
Q 1681 3072 1420 2755 
Q 1159 2438 1159 1844 
L 1159 0 
L 581 0 
L 581 3500 
L 1159 3500 
L 1159 2956 
Q 1341 3275 1631 3429 
Q 1922 3584 2338 3584 
Q 2397 3584 2469 3576 
Q 2541 3569 2628 3553 
L 2631 2963 
z
" transform="scale(0.015625)"/>
      <path id="DejaVuSans-6f" d="M 1959 3097 
Q 1497 3097 1228 2736 
Q 959 2375 959 1747 
Q 959 1119 1226 758 
Q 1494 397 1959 397 
Q 2419 397 2687 759 
Q 2956 1122 2956 1747 
Q 2956 2369 2687 2733 
Q 2419 3097 1959 3097 
z
M 1959 3584 
Q 2709 3584 3137 3096 
Q 3566 2609 3566 1747 
Q 3566 888 3137 398 
Q 2709 -91 1959 -91 
Q 1206 -91 779 398 
Q 353 888 353 1747 
Q 353 2609 779 3096 
Q 1206 3584 1959 3584 
z
" transform="scale(0.015625)"/>
      <path id="DejaVuSans-69" d="M 603 3500 
L 1178 3500 
L 1178 0 
L 603 0 
L 603 3500 
z
M 603 4863 
L 1178 4863 
L 1178 4134 
L 603 4134 
L 603 4863 
z
" transform="scale(0.015625)"/>
      <path id="DejaVuSans-6e" d="M 3513 2113 
L 3513 0 
L 2938 0 
L 2938 2094 
Q 2938 2591 2744 2837 
Q 2550 3084 2163 3084 
Q 1697 3084 1428 2787 
Q 1159 2491 1159 1978 
L 1159 0 
L 581 0 
L 581 3500 
L 1159 3500 
L 1159 2956 
Q 1366 3272 1645 3428 
Q 1925 3584 2291 3584 
Q 2894 3584 3203 3211 
Q 3513 2838 3513 2113 
z
" transform="scale(0.015625)"/>
      <path id="DejaVuSans-2d" d="M 313 2009 
L 1997 2009 
L 1997 1497 
L 313 1497 
L 313 2009 
z
" transform="scale(0.015625)"/>
      <path id="DejaVuSans-70" d="M 1159 525 
L 1159 -1331 
L 581 -1331 
L 581 3500 
L 1159 3500 
L 1159 2969 
Q 1341 3281 1617 3432 
Q 1894 3584 2278 3584 
Q 2916 3584 3314 3078 
Q 3713 2572 3713 1747 
Q 3713 922 3314 415 
Q 2916 -91 2278 -91 
Q 1894 -91 1617 61 
Q 1341 213 1159 525 
z
M 3116 1747 
Q 3116 2381 2855 2742 
Q 2594 3103 2138 3103 
Q 1681 3103 1420 2742 
Q 1159 2381 1159 1747 
Q 1159 1113 1420 752 
Q 1681 391 2138 391 
Q 2594 391 2855 752 
Q 3116 1113 3116 1747 
z
" transform="scale(0.015625)"/>
      <path id="DejaVuSans-74" d="M 1172 4494 
L 1172 3500 
L 2356 3500 
L 2356 3053 
L 1172 3053 
L 1172 1153 
Q 1172 725 1289 603 
Q 1406 481 1766 481 
L 2356 481 
L 2356 0 
L 1766 0 
Q 1100 0 847 248 
Q 594 497 594 1153 
L 594 3053 
L 172 3053 
L 172 3500 
L 594 3500 
L 594 4494 
L 1172 4494 
z
" transform="scale(0.015625)"/>
     </defs>
     <use xlink:href="#DejaVuSans-45" transform="translate(0 0.015625)"/>
     <use xlink:href="#DejaVuSans-72" transform="translate(63.183594 0.015625)"/>
     <use xlink:href="#DejaVuSans-72" transform="translate(104.296875 0.015625)"/>
     <use xlink:href="#DejaVuSans-6f" transform="translate(145.410156 0.015625)"/>
     <use xlink:href="#DejaVuSans-72" transform="translate(206.591797 0.015625)"/>
     <use xlink:href="#DejaVuSans-20" transform="translate(247.705078 0.015625)"/>
     <use xlink:href="#DejaVuSans-69" transform="translate(279.492188 0.015625)"/>
     <use xlink:href="#DejaVuSans-6e" transform="translate(307.275391 0.015625)"/>
     <use xlink:href="#DejaVuSans-20" transform="translate(370.654297 0.015625)"/>
     <use xlink:href="#DejaVuSans-Oblique-78" transform="translate(402.441406 0.015625)"/>
     <use xlink:href="#DejaVuSans-2d" transform="translate(461.621094 0.015625)"/>
     <use xlink:href="#DejaVuSans-70" transform="translate(497.705078 0.015625)"/>
     <use xlink:href="#DejaVuSans-6f" transform="translate(561.181641 0.015625)"/>
     <use xlink:href="#DejaVuSans-73" transform="translate(622.363281 0.015625)"/>
     <use xlink:href="#DejaVuSans-69" transform="translate(674.462891 0.015625)"/>
     <use xlink:href="#DejaVuSans-74" transform="translate(702.246094 0.015625)"/>
     <use xlink:href="#DejaVuSans-69" transform="translate(741.455078 0.015625)"/>
     <use xlink:href="#DejaVuSans-6f" transform="translate(769.238281 0.015625)"/>
     <use xlink:href="#DejaVuSans-6e" transform="translate(830.419922 0.015625)"/>
    </g>
   </g>
  </g>
  <g id="axes_2">
   <g id="patch_7">
    <path d="M 58.106 190.3975 
L 450 190.3975 
L 450 139.92 
L 58.106 139.92 
z
" style="fill: #ffffff"/>
   </g>
   <g id="matplotlib.axis_3">
    <g id="xtick_7">
     <g id="line2d_18">
      <path d="M 75.919364 190.3975 
L 75.919364 139.92 
" clip-path="url(#pb2c085a877)" style="fill: none; stroke: #b0b0b0; stroke-width: 0.8; stroke-linecap: square"/>
     </g>
     <g id="line2d_19">
      <g>
       <use xlink:href="#m468f1b7cac" x="75.919364" y="190.3975" style="stroke: #000000; stroke-width: 0.8"/>
      </g>
     </g>
     <g id="text_12">
      <!-- 0 -->
      <g transform="translate(72.738114 204.995937)scale(0.1 -0.1)">
       <use xlink:href="#DejaVuSans-30"/>
      </g>
     </g>
    </g>
    <g id="xtick_8">
     <g id="line2d_20">
      <path d="M 146.537257 190.3975 
L 146.537257 139.92 
" clip-path="url(#pb2c085a877)" style="fill: none; stroke: #b0b0b0; stroke-width: 0.8; stroke-linecap: square"/>
     </g>
     <g id="line2d_21">
      <g>
       <use xlink:href="#m468f1b7cac" x="146.537257" y="190.3975" style="stroke: #000000; stroke-width: 0.8"/>
      </g>
     </g>
     <g id="text_13">
      <!-- 2 -->
      <g transform="translate(143.356007 204.995937)scale(0.1 -0.1)">
       <use xlink:href="#DejaVuSans-32"/>
      </g>
     </g>
    </g>
    <g id="xtick_9">
     <g id="line2d_22">
      <path d="M 217.155151 190.3975 
L 217.155151 139.92 
" clip-path="url(#pb2c085a877)" style="fill: none; stroke: #b0b0b0; stroke-width: 0.8; stroke-linecap: square"/>
     </g>
     <g id="line2d_23">
      <g>
       <use xlink:href="#m468f1b7cac" x="217.155151" y="190.3975" style="stroke: #000000; stroke-width: 0.8"/>
      </g>
     </g>
     <g id="text_14">
      <!-- 4 -->
      <g transform="translate(213.973901 204.995937)scale(0.1 -0.1)">
       <use xlink:href="#DejaVuSans-34"/>
      </g>
     </g>
    </g>
    <g id="xtick_10">
     <g id="line2d_24">
      <path d="M 287.773044 190.3975 
L 287.773044 139.92 
" clip-path="url(#pb2c085a877)" style="fill: none; stroke: #b0b0b0; stroke-width: 0.8; stroke-linecap: square"/>
     </g>
     <g id="line2d_25">
      <g>
       <use xlink:href="#m468f1b7cac" x="287.773044" y="190.3975" style="stroke: #000000; stroke-width: 0.8"/>
      </g>
     </g>
     <g id="text_15">
      <!-- 6 -->
      <g transform="translate(284.591794 204.995937)scale(0.1 -0.1)">
       <use xlink:href="#DejaVuSans-36"/>
      </g>
     </g>
    </g>
    <g id="xtick_11">
     <g id="line2d_26">
      <path d="M 358.390938 190.3975 
L 358.390938 139.92 
" clip-path="url(#pb2c085a877)" style="fill: none; stroke: #b0b0b0; stroke-width: 0.8; stroke-linecap: square"/>
     </g>
     <g id="line2d_27">
      <g>
       <use xlink:href="#m468f1b7cac" x="358.390938" y="190.3975" style="stroke: #000000; stroke-width: 0.8"/>
      </g>
     </g>
     <g id="text_16">
      <!-- 8 -->
      <g transform="translate(355.209688 204.995937)scale(0.1 -0.1)">
       <use xlink:href="#DejaVuSans-38"/>
      </g>
     </g>
    </g>
    <g id="xtick_12">
     <g id="line2d_28">
      <path d="M 429.008831 190.3975 
L 429.008831 139.92 
" clip-path="url(#pb2c085a877)" style="fill: none; stroke: #b0b0b0; stroke-width: 0.8; stroke-linecap: square"/>
     </g>
     <g id="line2d_29">
      <g>
       <use xlink:href="#m468f1b7cac" x="429.008831" y="190.3975" style="stroke: #000000; stroke-width: 0.8"/>
      </g>
     </g>
     <g id="text_17">
      <!-- 10 -->
      <g transform="translate(422.646331 204.995937)scale(0.1 -0.1)">
       <use xlink:href="#DejaVuSans-31"/>
       <use xlink:href="#DejaVuSans-30" x="63.623047"/>
      </g>
     </g>
    </g>
    <g id="text_18">
     <!-- $t$ [s] -->
     <g transform="translate(243.953 218.674062)scale(0.1 -0.1)">
      <use xlink:href="#DejaVuSans-Oblique-74" transform="translate(0 0.015625)"/>
      <use xlink:href="#DejaVuSans-20" transform="translate(39.208984 0.015625)"/>
      <use xlink:href="#DejaVuSans-5b" transform="translate(70.996094 0.015625)"/>
      <use xlink:href="#DejaVuSans-73" transform="translate(110.009766 0.015625)"/>
      <use xlink:href="#DejaVuSans-5d" transform="translate(162.109375 0.015625)"/>
     </g>
    </g>
   </g>
   <g id="matplotlib.axis_4">
    <g id="ytick_3">
     <g id="line2d_30">
      <path d="M 58.106 181.26342 
L 450 181.26342 
" clip-path="url(#pb2c085a877)" style="fill: none; stroke: #b0b0b0; stroke-width: 0.8; stroke-linecap: square"/>
     </g>
     <g id="line2d_31">
      <g>
       <use xlink:href="#m06101269ca" x="58.106" y="181.26342" style="stroke: #000000; stroke-width: 0.8"/>
      </g>
     </g>
     <g id="text_19">
      <!-- −0.1 -->
      <g transform="translate(26.823188 185.062638)scale(0.1 -0.1)">
       <defs>
        <path id="DejaVuSans-2212" d="M 678 2272 
L 4684 2272 
L 4684 1741 
L 678 1741 
L 678 2272 
z
" transform="scale(0.015625)"/>
        <path id="DejaVuSans-2e" d="M 684 794 
L 1344 794 
L 1344 0 
L 684 0 
L 684 794 
z
" transform="scale(0.015625)"/>
       </defs>
       <use xlink:href="#DejaVuSans-2212"/>
       <use xlink:href="#DejaVuSans-30" x="83.789062"/>
       <use xlink:href="#DejaVuSans-2e" x="147.412109"/>
       <use xlink:href="#DejaVuSans-31" x="179.199219"/>
      </g>
     </g>
    </g>
    <g id="ytick_4">
     <g id="line2d_32">
      <path d="M 58.106 164.764227 
L 450 164.764227 
" clip-path="url(#pb2c085a877)" style="fill: none; stroke: #b0b0b0; stroke-width: 0.8; stroke-linecap: square"/>
     </g>
     <g id="line2d_33">
      <g>
       <use xlink:href="#m06101269ca" x="58.106" y="164.764227" style="stroke: #000000; stroke-width: 0.8"/>
      </g>
     </g>
     <g id="text_20">
      <!-- 0.0 -->
      <g transform="translate(35.202875 168.563445)scale(0.1 -0.1)">
       <use xlink:href="#DejaVuSans-30"/>
       <use xlink:href="#DejaVuSans-2e" x="63.623047"/>
       <use xlink:href="#DejaVuSans-30" x="95.410156"/>
      </g>
     </g>
    </g>
    <g id="ytick_5">
     <g id="line2d_34">
      <path d="M 58.106 148.265034 
L 450 148.265034 
" clip-path="url(#pb2c085a877)" style="fill: none; stroke: #b0b0b0; stroke-width: 0.8; stroke-linecap: square"/>
     </g>
     <g id="line2d_35">
      <g>
       <use xlink:href="#m06101269ca" x="58.106" y="148.265034" style="stroke: #000000; stroke-width: 0.8"/>
      </g>
     </g>
     <g id="text_21">
      <!-- 0.1 -->
      <g transform="translate(35.202875 152.064253)scale(0.1 -0.1)">
       <use xlink:href="#DejaVuSans-30"/>
       <use xlink:href="#DejaVuSans-2e" x="63.623047"/>
       <use xlink:href="#DejaVuSans-31" x="95.410156"/>
      </g>
     </g>
    </g>
    <g id="text_22">
     <!-- $e_z$ [m] -->
     <g transform="translate(20.7435 180.60875)rotate(-90)scale(0.1 -0.1)">
      <defs>
       <path id="DejaVuSans-Oblique-7a" d="M 744 3500 
L 3475 3500 
L 3372 2975 
L 738 459 
L 2913 459 
L 2822 0 
L -19 0 
L 84 525 
L 2719 3041 
L 653 3041 
L 744 3500 
z
" transform="scale(0.015625)"/>
      </defs>
      <use xlink:href="#DejaVuSans-Oblique-65" transform="translate(0 0.015625)"/>
      <use xlink:href="#DejaVuSans-Oblique-7a" transform="translate(61.523438 -16.390625)scale(0.7)"/>
      <use xlink:href="#DejaVuSans-20" transform="translate(101.000977 0.015625)"/>
      <use xlink:href="#DejaVuSans-5b" transform="translate(132.788086 0.015625)"/>
      <use xlink:href="#DejaVuSans-6d" transform="translate(171.801758 0.015625)"/>
      <use xlink:href="#DejaVuSans-5d" transform="translate(269.213867 0.015625)"/>
     </g>
    </g>
   </g>
   <g id="line2d_36">
    <path d="M 75.919364 166.370344 
L 78.393442 166.497885 
L 80.51408 166.738405 
L 81.22096 166.857681 
L 82.281279 166.852178 
L 84.048478 166.228888 
L 84.401918 165.992827 
L 85.108797 165.752242 
L 85.462237 165.456318 
L 87.582876 164.731492 
L 87.936315 164.731492 
L 88.289755 164.37402 
L 88.996635 164.123553 
L 89.350074 163.928264 
L 89.703514 163.477534 
L 90.056954 163.220551 
L 90.763833 162.301985 
L 91.117273 162.125772 
L 91.470713 161.753847 
L 91.824153 160.938008 
L 92.177592 160.506247 
L 93.237912 158.566861 
L 93.591351 158.566861 
L 93.944791 157.788744 
L 95.71199 156.092163 
L 96.772309 155.79322 
L 97.832628 155.688775 
L 99.953267 155.81184 
L 101.013586 155.883029 
L 102.427345 155.736823 
L 103.487665 155.432025 
L 103.841104 155.171825 
L 104.194544 155.171825 
L 104.901424 154.660752 
L 105.254863 154.458598 
L 105.608303 154.128006 
L 105.961743 153.642731 
L 108.082381 152.006047 
L 108.435821 151.623167 
L 109.49614 151.24553 
L 110.20302 151.094672 
L 112.677098 150.995361 
L 113.737417 150.740203 
L 114.090857 150.615318 
L 114.444297 150.213014 
L 114.797737 150.213014 
L 115.151176 149.801517 
L 116.211496 149.053404 
L 116.564935 148.497753 
L 116.918375 148.497753 
L 117.271815 147.60591 
L 117.625255 147.453156 
L 118.332134 146.850678 
L 119.039014 145.926854 
L 119.392453 145.614513 
L 120.099333 145.35708 
L 121.513092 144.65962 
L 121.866532 144.453716 
L 122.573411 144.219357 
L 122.926851 143.864023 
L 123.633731 143.38024 
L 123.98717 143.095422 
L 124.69405 142.837004 
L 125.04749 142.551753 
L 126.107809 142.22772 
L 127.168128 142.290783 
L 127.875008 142.51451 
L 128.581887 142.773494 
L 128.935327 142.924273 
L 129.642206 143.444035 
L 130.349086 144.040892 
L 131.055965 144.358522 
L 131.409405 144.796208 
L 132.469724 145.558703 
L 132.823164 145.964306 
L 133.176604 145.964306 
L 133.530044 146.331832 
L 137.064441 147.9862 
L 137.417881 147.9862 
L 138.83164 149.101668 
L 139.18508 149.220575 
L 139.538519 149.468994 
L 139.891959 150.001882 
L 140.598839 150.565568 
L 141.305718 151.555828 
L 141.659158 151.555828 
L 142.012598 152.088074 
L 143.072917 152.905846 
L 143.426357 153.299836 
L 143.779797 153.299836 
L 144.133236 153.644985 
L 145.546995 154.336391 
L 145.900435 154.65742 
L 146.960754 155.187594 
L 148.374513 156.270533 
L 149.788272 157.084957 
L 150.141712 157.378182 
L 151.908911 157.988441 
L 152.262351 157.988441 
L 152.96923 158.183068 
L 153.67611 158.36981 
L 154.029549 158.556487 
L 154.382989 158.556487 
L 155.089869 158.916947 
L 155.796748 159.291543 
L 156.150188 159.628601 
L 156.503628 159.628601 
L 156.857067 159.993876 
L 157.917387 160.683557 
L 158.270826 161.091102 
L 158.624266 161.091102 
L 158.977706 161.503898 
L 159.684585 162.026182 
L 160.038025 162.344973 
L 160.744905 162.670091 
L 161.098345 163.120505 
L 161.451784 163.355915 
L 162.158664 164.121663 
L 162.512104 164.259962 
L 162.865543 164.546818 
L 163.218983 165.163823 
L 163.572423 165.494839 
L 164.279302 166.576739 
L 164.632742 166.769331 
L 164.986182 167.163093 
L 165.339622 167.978969 
L 165.693061 167.978969 
L 166.046501 169.242833 
L 166.399941 169.454333 
L 167.10682 170.292388 
L 167.46026 171.104968 
L 167.8137 171.104968 
L 168.16714 172.24708 
L 168.520579 172.426595 
L 169.227459 173.111947 
L 169.580899 173.747441 
L 170.287778 174.481973 
L 170.641218 174.89678 
L 170.994658 175.031549 
L 171.348097 175.297427 
L 171.701537 175.819834 
L 172.761856 176.722914 
L 173.115296 177.229954 
L 173.468736 177.229954 
L 173.822176 177.729112 
L 174.882495 178.552947 
L 175.235935 178.980727 
L 175.589374 178.980727 
L 175.942814 179.363006 
L 177.710013 180.103381 
L 178.416892 180.303822 
L 182.30473 180.872348 
L 184.071929 181.398304 
L 184.778808 181.609074 
L 185.839127 181.660902 
L 186.546007 181.585987 
L 189.020085 181.311737 
L 189.726965 181.489061 
L 190.433844 181.691206 
L 191.140724 182.092995 
L 191.847603 182.272856 
L 192.907922 182.396116 
L 193.261362 182.396116 
L 193.968242 182.216047 
L 195.382001 181.750071 
L 196.44232 181.500494 
L 197.502639 181.379614 
L 198.209519 181.510321 
L 198.562959 181.656442 
L 198.916398 181.656442 
L 199.623278 182.050389 
L 200.330157 182.387863 
L 200.683597 182.606912 
L 201.037037 182.606912 
L 201.743916 182.793644 
L 202.804236 182.770077 
L 203.864555 182.527883 
L 206.338633 181.941013 
L 207.398952 181.961492 
L 208.105832 182.278972 
L 208.459272 182.515938 
L 209.166151 182.803973 
L 209.873031 183.344226 
L 210.22647 183.773316 
L 211.993669 184.768896 
L 212.347109 184.768896 
L 213.053988 184.964016 
L 214.467747 184.999595 
L 215.881506 184.917082 
L 217.295266 185.143994 
L 218.002145 185.375286 
L 219.062464 186.175207 
L 219.769344 186.430598 
L 220.122784 186.593267 
L 220.829663 187.060418 
L 221.536543 187.231175 
L 222.950302 187.348363 
L 225.07094 187.104534 
L 226.484699 187.055348 
L 230.725976 187.335136 
L 234.967253 186.669124 
L 237.087892 187.019109 
L 237.441332 187.197776 
L 239.56197 187.279425 
L 240.622289 187.141875 
L 241.329169 186.925695 
L 242.389488 186.739559 
L 244.156687 186.819138 
L 248.751404 187.587307 
L 249.811723 187.497856 
L 251.932361 187.136201 
L 253.69956 187.090501 
L 255.113319 187.328918 
L 255.820199 187.563424 
L 258.294277 188.036893 
L 259.354596 187.963365 
L 260.414916 187.699469 
L 262.182114 187.406961 
L 263.595873 187.487226 
L 264.656193 187.712954 
L 267.483711 188.103068 
L 269.250909 187.916013 
L 270.311229 187.782815 
L 271.371548 187.810041 
L 273.845626 188.062153 
L 275.259385 187.95032 
L 275.612825 187.782269 
L 277.026584 187.566401 
L 278.086903 187.358586 
L 279.500662 187.358701 
L 282.68162 187.7463 
L 283.3885 187.641149 
L 284.448819 187.342598 
L 284.802259 187.114575 
L 285.155698 187.114575 
L 285.862578 186.733479 
L 286.922897 186.248022 
L 287.276337 185.980552 
L 288.690096 185.605588 
L 289.396975 185.510495 
L 290.810734 185.606704 
L 292.577933 185.694337 
L 293.638253 185.544258 
L 294.698572 185.179511 
L 295.052012 185.064039 
L 295.405451 184.822069 
L 295.758891 184.822069 
L 296.112331 184.463608 
L 296.81921 184.27698 
L 297.17265 184.146483 
L 297.87953 183.733613 
L 298.939849 183.231848 
L 299.293289 183.231848 
L 300.000168 183.088224 
L 301.060487 183.141255 
L 303.888005 183.408418 
L 304.948325 183.263734 
L 306.008644 182.881595 
L 306.715523 182.575227 
L 307.422403 182.185369 
L 307.775843 182.185369 
L 308.482722 181.743065 
L 309.189602 181.355343 
L 309.543041 181.077999 
L 310.603361 180.797262 
L 311.66368 180.735223 
L 315.551517 181.545917 
L 316.965276 181.282656 
L 317.672156 180.995185 
L 318.379035 180.631835 
L 319.792794 180.123123 
L 320.146234 179.895591 
L 320.499674 179.895591 
L 321.206553 179.608426 
L 321.913433 179.474552 
L 322.973752 179.548974 
L 324.387511 179.871433 
L 326.50815 180.310747 
L 327.568469 180.246916 
L 329.335668 179.627204 
L 329.689108 179.627204 
L 330.042547 179.389137 
L 331.102867 179.224374 
L 331.809746 179.052037 
L 332.870065 178.921834 
L 334.637264 178.997422 
L 337.111342 179.176896 
L 339.231981 179.065895 
L 343.473258 178.641162 
L 348.067975 178.532393 
L 350.542053 178.432352 
L 352.662692 178.498555 
L 355.13677 178.690137 
L 356.550529 178.770067 
L 360.084926 178.656073 
L 362.912444 178.71202 
L 365.386523 178.963533 
L 367.153722 179.21691 
L 372.455318 179.597596 
L 374.222517 179.911453 
L 374.575956 180.099415 
L 376.343155 180.310542 
L 377.050035 180.407141 
L 380.584432 180.525139 
L 382.705071 180.479555 
L 383.76539 180.672261 
L 384.825709 181.016121 
L 385.886028 181.322373 
L 388.006667 181.676202 
L 391.187625 181.717691 
L 391.894504 181.89098 
L 392.954824 182.170726 
L 395.075462 183.260296 
L 395.428902 183.260296 
L 395.782342 183.500733 
L 397.54954 183.507149 
L 400.377058 182.955705 
L 401.790817 182.99763 
L 404.971775 183.287524 
L 406.738974 182.92809 
L 407.445854 182.617028 
L 408.859613 182.089313 
L 409.213052 181.878402 
L 409.566492 181.878402 
L 410.273372 181.625495 
L 412.74745 181.06649 
L 413.454329 180.762523 
L 414.161209 180.237178 
L 415.221528 179.573915 
L 416.281847 178.605739 
L 417.695606 178.011775 
L 418.402486 177.912511 
L 421.230004 177.975008 
L 421.583444 177.898261 
L 425.117841 175.67225 
L 426.5316 175.316972 
L 428.652239 175.055248 
L 429.359118 174.742772 
L 430.065998 174.166736 
L 432.186636 172.732938 
L 432.186636 172.732938 
" clip-path="url(#pb2c085a877)" style="fill: none; stroke: #0000ff; stroke-width: 1.5; stroke-linecap: square"/>
   </g>
   <g id="patch_8">
    <path d="M 58.106 190.3975 
L 58.106 139.92 
" style="fill: none; stroke: #000000; stroke-width: 0.8; stroke-linejoin: miter; stroke-linecap: square"/>
   </g>
   <g id="patch_9">
    <path d="M 450 190.3975 
L 450 139.92 
" style="fill: none; stroke: #000000; stroke-width: 0.8; stroke-linejoin: miter; stroke-linecap: square"/>
   </g>
   <g id="patch_10">
    <path d="M 58.106 190.3975 
L 450 190.3975 
" style="fill: none; stroke: #000000; stroke-width: 0.8; stroke-linejoin: miter; stroke-linecap: square"/>
   </g>
   <g id="patch_11">
    <path d="M 58.106 139.92 
L 450 139.92 
" style="fill: none; stroke: #000000; stroke-width: 0.8; stroke-linejoin: miter; stroke-linecap: square"/>
   </g>
   <g id="text_23">
    <!-- Error in $z$-position -->
    <g transform="translate(200.773 133.92)scale(0.12 -0.12)">
     <use xlink:href="#DejaVuSans-45" transform="translate(0 0.015625)"/>
     <use xlink:href="#DejaVuSans-72" transform="translate(63.183594 0.015625)"/>
     <use xlink:href="#DejaVuSans-72" transform="translate(104.296875 0.015625)"/>
     <use xlink:href="#DejaVuSans-6f" transform="translate(145.410156 0.015625)"/>
     <use xlink:href="#DejaVuSans-72" transform="translate(206.591797 0.015625)"/>
     <use xlink:href="#DejaVuSans-20" transform="translate(247.705078 0.015625)"/>
     <use xlink:href="#DejaVuSans-69" transform="translate(279.492188 0.015625)"/>
     <use xlink:href="#DejaVuSans-6e" transform="translate(307.275391 0.015625)"/>
     <use xlink:href="#DejaVuSans-20" transform="translate(370.654297 0.015625)"/>
     <use xlink:href="#DejaVuSans-Oblique-7a" transform="translate(402.441406 0.015625)"/>
     <use xlink:href="#DejaVuSans-2d" transform="translate(454.931641 0.015625)"/>
     <use xlink:href="#DejaVuSans-70" transform="translate(491.015625 0.015625)"/>
     <use xlink:href="#DejaVuSans-6f" transform="translate(554.492188 0.015625)"/>
     <use xlink:href="#DejaVuSans-73" transform="translate(615.673828 0.015625)"/>
     <use xlink:href="#DejaVuSans-69" transform="translate(667.773438 0.015625)"/>
     <use xlink:href="#DejaVuSans-74" transform="translate(695.556641 0.015625)"/>
     <use xlink:href="#DejaVuSans-69" transform="translate(734.765625 0.015625)"/>
     <use xlink:href="#DejaVuSans-6f" transform="translate(762.548828 0.015625)"/>
     <use xlink:href="#DejaVuSans-6e" transform="translate(823.730469 0.015625)"/>
    </g>
   </g>
  </g>
  <g id="axes_3">
   <g id="patch_12">
    <path d="M 58.106 301.9975 
L 450 301.9975 
L 450 251.52 
L 58.106 251.52 
z
" style="fill: #ffffff"/>
   </g>
   <g id="matplotlib.axis_5">
    <g id="xtick_13">
     <g id="line2d_37">
      <path d="M 75.919364 301.9975 
L 75.919364 251.52 
" clip-path="url(#p084242d696)" style="fill: none; stroke: #b0b0b0; stroke-width: 0.8; stroke-linecap: square"/>
     </g>
     <g id="line2d_38">
      <g>
       <use xlink:href="#m468f1b7cac" x="75.919364" y="301.9975" style="stroke: #000000; stroke-width: 0.8"/>
      </g>
     </g>
     <g id="text_24">
      <!-- 0 -->
      <g transform="translate(72.738114 316.595937)scale(0.1 -0.1)">
       <use xlink:href="#DejaVuSans-30"/>
      </g>
     </g>
    </g>
    <g id="xtick_14">
     <g id="line2d_39">
      <path d="M 146.537257 301.9975 
L 146.537257 251.52 
" clip-path="url(#p084242d696)" style="fill: none; stroke: #b0b0b0; stroke-width: 0.8; stroke-linecap: square"/>
     </g>
     <g id="line2d_40">
      <g>
       <use xlink:href="#m468f1b7cac" x="146.537257" y="301.9975" style="stroke: #000000; stroke-width: 0.8"/>
      </g>
     </g>
     <g id="text_25">
      <!-- 2 -->
      <g transform="translate(143.356007 316.595937)scale(0.1 -0.1)">
       <use xlink:href="#DejaVuSans-32"/>
      </g>
     </g>
    </g>
    <g id="xtick_15">
     <g id="line2d_41">
      <path d="M 217.155151 301.9975 
L 217.155151 251.52 
" clip-path="url(#p084242d696)" style="fill: none; stroke: #b0b0b0; stroke-width: 0.8; stroke-linecap: square"/>
     </g>
     <g id="line2d_42">
      <g>
       <use xlink:href="#m468f1b7cac" x="217.155151" y="301.9975" style="stroke: #000000; stroke-width: 0.8"/>
      </g>
     </g>
     <g id="text_26">
      <!-- 4 -->
      <g transform="translate(213.973901 316.595937)scale(0.1 -0.1)">
       <use xlink:href="#DejaVuSans-34"/>
      </g>
     </g>
    </g>
    <g id="xtick_16">
     <g id="line2d_43">
      <path d="M 287.773044 301.9975 
L 287.773044 251.52 
" clip-path="url(#p084242d696)" style="fill: none; stroke: #b0b0b0; stroke-width: 0.8; stroke-linecap: square"/>
     </g>
     <g id="line2d_44">
      <g>
       <use xlink:href="#m468f1b7cac" x="287.773044" y="301.9975" style="stroke: #000000; stroke-width: 0.8"/>
      </g>
     </g>
     <g id="text_27">
      <!-- 6 -->
      <g transform="translate(284.591794 316.595937)scale(0.1 -0.1)">
       <use xlink:href="#DejaVuSans-36"/>
      </g>
     </g>
    </g>
    <g id="xtick_17">
     <g id="line2d_45">
      <path d="M 358.390938 301.9975 
L 358.390938 251.52 
" clip-path="url(#p084242d696)" style="fill: none; stroke: #b0b0b0; stroke-width: 0.8; stroke-linecap: square"/>
     </g>
     <g id="line2d_46">
      <g>
       <use xlink:href="#m468f1b7cac" x="358.390938" y="301.9975" style="stroke: #000000; stroke-width: 0.8"/>
      </g>
     </g>
     <g id="text_28">
      <!-- 8 -->
      <g transform="translate(355.209688 316.595937)scale(0.1 -0.1)">
       <use xlink:href="#DejaVuSans-38"/>
      </g>
     </g>
    </g>
    <g id="xtick_18">
     <g id="line2d_47">
      <path d="M 429.008831 301.9975 
L 429.008831 251.52 
" clip-path="url(#p084242d696)" style="fill: none; stroke: #b0b0b0; stroke-width: 0.8; stroke-linecap: square"/>
     </g>
     <g id="line2d_48">
      <g>
       <use xlink:href="#m468f1b7cac" x="429.008831" y="301.9975" style="stroke: #000000; stroke-width: 0.8"/>
      </g>
     </g>
     <g id="text_29">
      <!-- 10 -->
      <g transform="translate(422.646331 316.595937)scale(0.1 -0.1)">
       <use xlink:href="#DejaVuSans-31"/>
       <use xlink:href="#DejaVuSans-30" x="63.623047"/>
      </g>
     </g>
    </g>
    <g id="text_30">
     <!-- $t$ [s] -->
     <g transform="translate(243.953 330.274063)scale(0.1 -0.1)">
      <use xlink:href="#DejaVuSans-Oblique-74" transform="translate(0 0.015625)"/>
      <use xlink:href="#DejaVuSans-20" transform="translate(39.208984 0.015625)"/>
      <use xlink:href="#DejaVuSans-5b" transform="translate(70.996094 0.015625)"/>
      <use xlink:href="#DejaVuSans-73" transform="translate(110.009766 0.015625)"/>
      <use xlink:href="#DejaVuSans-5d" transform="translate(162.109375 0.015625)"/>
     </g>
    </g>
   </g>
   <g id="matplotlib.axis_6">
    <g id="ytick_6">
     <g id="line2d_49">
      <path d="M 58.106 290.95577 
L 450 290.95577 
" clip-path="url(#p084242d696)" style="fill: none; stroke: #b0b0b0; stroke-width: 0.8; stroke-linecap: square"/>
     </g>
     <g id="line2d_50">
      <g>
       <use xlink:href="#m06101269ca" x="58.106" y="290.95577" style="stroke: #000000; stroke-width: 0.8"/>
      </g>
     </g>
     <g id="text_31">
      <!-- −0.1 -->
      <g transform="translate(26.823188 294.754989)scale(0.1 -0.1)">
       <use xlink:href="#DejaVuSans-2212"/>
       <use xlink:href="#DejaVuSans-30" x="83.789062"/>
       <use xlink:href="#DejaVuSans-2e" x="147.412109"/>
       <use xlink:href="#DejaVuSans-31" x="179.199219"/>
      </g>
     </g>
    </g>
    <g id="ytick_7">
     <g id="line2d_51">
      <path d="M 58.106 276.688429 
L 450 276.688429 
" clip-path="url(#p084242d696)" style="fill: none; stroke: #b0b0b0; stroke-width: 0.8; stroke-linecap: square"/>
     </g>
     <g id="line2d_52">
      <g>
       <use xlink:href="#m06101269ca" x="58.106" y="276.688429" style="stroke: #000000; stroke-width: 0.8"/>
      </g>
     </g>
     <g id="text_32">
      <!-- 0.0 -->
      <g transform="translate(35.202875 280.487648)scale(0.1 -0.1)">
       <use xlink:href="#DejaVuSans-30"/>
       <use xlink:href="#DejaVuSans-2e" x="63.623047"/>
       <use xlink:href="#DejaVuSans-30" x="95.410156"/>
      </g>
     </g>
    </g>
    <g id="ytick_8">
     <g id="line2d_53">
      <path d="M 58.106 262.421089 
L 450 262.421089 
" clip-path="url(#p084242d696)" style="fill: none; stroke: #b0b0b0; stroke-width: 0.8; stroke-linecap: square"/>
     </g>
     <g id="line2d_54">
      <g>
       <use xlink:href="#m06101269ca" x="58.106" y="262.421089" style="stroke: #000000; stroke-width: 0.8"/>
      </g>
     </g>
     <g id="text_33">
      <!-- 0.1 -->
      <g transform="translate(35.202875 266.220308)scale(0.1 -0.1)">
       <use xlink:href="#DejaVuSans-30"/>
       <use xlink:href="#DejaVuSans-2e" x="63.623047"/>
       <use xlink:href="#DejaVuSans-31" x="95.410156"/>
      </g>
     </g>
    </g>
    <g id="text_34">
     <!-- $e_\theta$ [rad] -->
     <g transform="translate(20.7435 295.90875)rotate(-90)scale(0.1 -0.1)">
      <defs>
       <path id="DejaVuSans-Oblique-3b8" d="M 2913 2219 
L 925 2219 
Q 791 1284 928 888 
Q 1100 400 1566 400 
Q 2034 400 2391 891 
Q 2703 1322 2913 2219 
z
M 3009 2750 
Q 3094 3638 2984 3950 
Q 2813 4444 2353 4444 
Q 1875 4444 1525 3956 
Q 1250 3563 1034 2750 
L 3009 2750 
z
M 2444 4913 
Q 3194 4913 3494 4250 
Q 3794 3591 3566 2422 
Q 3341 1256 2781 594 
Q 2225 -72 1475 -72 
Q 722 -72 425 594 
Q 128 1256 353 2422 
Q 581 3591 1134 4250 
Q 1691 4913 2444 4913 
z
" transform="scale(0.015625)"/>
       <path id="DejaVuSans-61" d="M 2194 1759 
Q 1497 1759 1228 1600 
Q 959 1441 959 1056 
Q 959 750 1161 570 
Q 1363 391 1709 391 
Q 2188 391 2477 730 
Q 2766 1069 2766 1631 
L 2766 1759 
L 2194 1759 
z
M 3341 1997 
L 3341 0 
L 2766 0 
L 2766 531 
Q 2569 213 2275 61 
Q 1981 -91 1556 -91 
Q 1019 -91 701 211 
Q 384 513 384 1019 
Q 384 1609 779 1909 
Q 1175 2209 1959 2209 
L 2766 2209 
L 2766 2266 
Q 2766 2663 2505 2880 
Q 2244 3097 1772 3097 
Q 1472 3097 1187 3025 
Q 903 2953 641 2809 
L 641 3341 
Q 956 3463 1253 3523 
Q 1550 3584 1831 3584 
Q 2591 3584 2966 3190 
Q 3341 2797 3341 1997 
z
" transform="scale(0.015625)"/>
       <path id="DejaVuSans-64" d="M 2906 2969 
L 2906 4863 
L 3481 4863 
L 3481 0 
L 2906 0 
L 2906 525 
Q 2725 213 2448 61 
Q 2172 -91 1784 -91 
Q 1150 -91 751 415 
Q 353 922 353 1747 
Q 353 2572 751 3078 
Q 1150 3584 1784 3584 
Q 2172 3584 2448 3432 
Q 2725 3281 2906 2969 
z
M 947 1747 
Q 947 1113 1208 752 
Q 1469 391 1925 391 
Q 2381 391 2643 752 
Q 2906 1113 2906 1747 
Q 2906 2381 2643 2742 
Q 2381 3103 1925 3103 
Q 1469 3103 1208 2742 
Q 947 2381 947 1747 
z
" transform="scale(0.015625)"/>
      </defs>
      <use xlink:href="#DejaVuSans-Oblique-65" transform="translate(0 0.015625)"/>
      <use xlink:href="#DejaVuSans-Oblique-3b8" transform="translate(61.523438 -16.390625)scale(0.7)"/>
      <use xlink:href="#DejaVuSans-20" transform="translate(107.084961 0.015625)"/>
      <use xlink:href="#DejaVuSans-5b" transform="translate(138.87207 0.015625)"/>
      <use xlink:href="#DejaVuSans-72" transform="translate(177.885742 0.015625)"/>
      <use xlink:href="#DejaVuSans-61" transform="translate(218.999023 0.015625)"/>
      <use xlink:href="#DejaVuSans-64" transform="translate(280.27832 0.015625)"/>
      <use xlink:href="#DejaVuSans-5d" transform="translate(343.754883 0.015625)"/>
     </g>
    </g>
   </g>
   <g id="line2d_55">
    <path d="M 75.919364 276.703568 
L 76.272803 276.819094 
L 76.626243 276.721975 
L 76.979683 276.131707 
L 77.333123 274.936802 
L 77.686562 273.170451 
L 78.040002 273.170451 
L 78.746882 267.732616 
L 79.100321 265.275121 
L 79.453761 264.485245 
L 80.51408 259.735181 
L 80.86752 257.817291 
L 81.5744 256.642978 
L 81.927839 256.333954 
L 82.281279 256.310049 
L 82.634719 257.211322 
L 82.988159 257.211322 
L 85.108797 268.86774 
L 85.462237 273.331282 
L 85.815677 275.624301 
L 86.522556 282.518561 
L 86.875996 283.617456 
L 87.229436 285.781297 
L 87.582876 289.86696 
L 87.936315 289.86696 
L 88.289755 295.013171 
L 88.643195 295.742801 
L 89.703514 299.484956 
L 90.056954 299.703068 
L 90.410394 299.53687 
L 90.763833 298.917788 
L 91.117273 298.634273 
L 91.470713 297.952246 
L 91.824153 296.104906 
L 92.177592 294.890207 
L 92.884472 290.00999 
L 93.237912 286.968953 
L 93.591351 286.968953 
L 93.944791 282.688412 
L 94.651671 278.338058 
L 95.71199 269.657861 
L 97.125749 263.521979 
L 97.479189 262.282876 
L 97.832628 262.06024 
L 98.186068 262.070798 
L 98.539508 262.285686 
L 98.892948 262.944282 
L 99.599827 265.211775 
L 99.953267 265.211775 
L 100.306707 267.184741 
L 100.660146 268.245999 
L 101.720466 272.938908 
L 102.073905 272.938908 
L 102.427345 274.725852 
L 103.841104 277.892205 
L 104.194544 277.892205 
L 104.547984 278.421339 
L 105.254863 278.68692 
L 105.608303 278.723576 
L 106.668622 278.137329 
L 107.375502 277.459468 
L 107.728942 277.031481 
L 108.082381 276.307519 
L 108.435821 275.243342 
L 110.20302 272.567395 
L 110.909899 272.623578 
L 111.263339 272.936998 
L 111.616779 273.457253 
L 111.970219 274.18438 
L 112.323658 275.636144 
L 112.677098 278.178746 
L 114.090857 284.3534 
L 114.444297 288.27372 
L 114.797737 288.27372 
L 115.151176 291.092774 
L 115.858056 293.428443 
L 116.564935 294.99348 
L 116.918375 294.99348 
L 117.271815 293.284267 
L 117.625255 292.700298 
L 118.332134 289.721647 
L 119.039014 283.032246 
L 119.392453 279.93588 
L 119.745893 278.898239 
L 120.452773 274.815392 
L 120.806212 270.854136 
L 121.159652 269.004299 
L 121.866532 264.119542 
L 122.219972 263.436182 
L 122.573411 262.222086 
L 122.926851 260.453807 
L 123.633731 259.604008 
L 124.34061 259.722743 
L 125.400929 260.1464 
L 126.814688 259.822536 
L 127.521568 260.265349 
L 127.875008 260.917565 
L 128.228447 261.857068 
L 128.581887 262.226492 
L 128.935327 263.031446 
L 129.288767 264.808771 
L 129.642206 265.724725 
L 130.349086 268.309911 
L 130.702526 268.703516 
L 131.055965 269.429933 
L 131.409405 270.570039 
L 132.116285 271.234578 
L 132.469724 271.422928 
L 133.176604 271.341735 
L 133.883483 270.681726 
L 134.236923 270.393771 
L 134.943803 269.452342 
L 135.297242 269.452342 
L 135.650682 269.096956 
L 136.711001 268.803753 
L 137.771321 268.946165 
L 138.4782 269.216715 
L 139.18508 269.484673 
L 139.538519 269.636331 
L 140.245399 270.203204 
L 140.598839 270.449527 
L 140.952278 270.901269 
L 141.305718 271.692134 
L 141.659158 271.692134 
L 142.012598 272.739865 
L 142.719477 274.053155 
L 143.072917 275.180089 
L 143.426357 276.783381 
L 143.779797 276.783381 
L 144.133236 278.429833 
L 146.253875 283.127216 
L 147.667634 284.525448 
L 148.374513 284.610909 
L 149.081393 284.484748 
L 149.434833 284.341308 
L 149.788272 284.030853 
L 150.141712 283.456458 
L 151.202031 282.294013 
L 151.555471 281.594838 
L 151.908911 280.565595 
L 152.262351 280.565595 
L 152.61579 279.377799 
L 153.32267 278.036478 
L 154.029549 275.768917 
L 154.382989 275.768917 
L 154.736429 274.609089 
L 155.443308 273.473016 
L 156.150188 271.574285 
L 156.503628 271.574285 
L 156.857067 270.469587 
L 157.563947 269.199298 
L 157.917387 268.116894 
L 158.270826 266.530698 
L 158.624266 266.530698 
L 158.977706 264.756076 
L 159.331146 263.801877 
L 160.038025 260.865231 
L 160.391465 260.406693 
L 160.744905 259.533494 
L 161.098345 257.949756 
L 161.805224 256.377124 
L 162.158664 255.611833 
L 162.512104 255.376248 
L 162.865543 254.950198 
L 163.218983 254.304243 
L 163.925863 253.887179 
L 164.632742 253.814447 
L 164.986182 253.852224 
L 165.339622 254.066242 
L 165.693061 254.066242 
L 166.046501 254.588232 
L 166.753381 254.865143 
L 167.10682 255.043919 
L 167.46026 255.388313 
L 167.8137 255.388313 
L 168.16714 255.959873 
L 168.520579 256.074799 
L 169.227459 256.625992 
L 169.580899 257.36058 
L 169.934338 257.81157 
L 170.641218 259.527572 
L 170.994658 259.858156 
L 171.348097 260.536435 
L 171.701537 261.923014 
L 172.408417 263.278086 
L 173.115296 265.430744 
L 173.468736 265.430744 
L 173.822176 266.388474 
L 174.882495 267.430923 
L 175.235935 267.612446 
L 176.296254 267.526007 
L 177.003133 267.439294 
L 177.710013 267.527841 
L 179.123772 268.876118 
L 179.477212 269.508323 
L 179.830652 269.508323 
L 180.184091 270.004586 
L 182.65817 271.242687 
L 183.011609 271.713478 
L 183.365049 272.369484 
L 183.718489 272.633083 
L 184.071929 273.233038 
L 184.425368 274.733977 
L 185.132248 276.578208 
L 185.485688 278.138141 
L 185.839127 280.310492 
L 186.192567 280.310492 
L 186.546007 282.291311 
L 187.606326 284.610783 
L 188.313206 284.569427 
L 188.666645 283.802885 
L 189.020085 283.802885 
L 189.373525 281.626649 
L 189.726965 281.214979 
L 190.433844 279.562658 
L 190.787284 278.137098 
L 191.140724 277.353942 
L 191.494163 276.895426 
L 192.201043 276.834195 
L 192.554483 277.030076 
L 192.907922 278.001134 
L 193.261362 278.001134 
L 193.614802 280.520804 
L 193.968242 280.999309 
L 195.028561 283.974388 
L 195.382001 284.186982 
L 195.73544 283.992616 
L 196.08888 283.215754 
L 196.44232 282.839249 
L 196.79576 281.919352 
L 197.149199 279.56545 
L 197.502639 278.207229 
L 198.562959 271.903717 
L 198.916398 271.903717 
L 199.269838 269.605174 
L 199.976718 268.03747 
L 200.330157 267.540619 
L 200.683597 267.856407 
L 201.037037 267.856407 
L 202.804236 273.960016 
L 203.157675 275.056068 
L 203.511115 276.869949 
L 203.864555 277.591484 
L 204.217995 277.60417 
L 204.571434 277.449108 
L 204.924874 276.912101 
L 205.278314 276.083437 
L 206.338633 268.967952 
L 206.692073 268.131211 
L 207.398952 264.817608 
L 207.752392 261.798007 
L 208.459272 258.441848 
L 208.812711 258.04954 
L 209.166151 257.436437 
L 209.519591 257.075617 
L 209.873031 257.095789 
L 211.28679 261.664788 
L 211.640229 263.131378 
L 211.993669 267.032811 
L 212.347109 267.032811 
L 212.700549 270.04347 
L 213.760868 273.76138 
L 214.114308 274.937246 
L 214.467747 274.906445 
L 214.821187 274.151013 
L 215.174627 273.76339 
L 215.881506 271.708199 
L 216.234946 268.423951 
L 216.588386 268.423951 
L 216.941826 265.72368 
L 218.355585 260.667534 
L 218.709025 260.267363 
L 219.415904 260.732361 
L 219.769344 261.377441 
L 220.122784 262.264263 
L 221.183103 269.132705 
L 221.536543 269.920474 
L 222.243422 273.003258 
L 222.596862 275.585468 
L 223.303741 277.537165 
L 223.657181 277.995536 
L 224.010621 278.038102 
L 224.364061 277.948266 
L 225.07094 275.956378 
L 225.42438 274.580597 
L 226.131259 273.592595 
L 226.838139 270.428316 
L 227.545018 269.234451 
L 228.251898 268.599077 
L 228.605338 268.516306 
L 229.665657 270.241558 
L 230.372536 271.967175 
L 230.725976 273.486454 
L 231.079416 275.60472 
L 232.139735 279.049867 
L 232.493175 280.517373 
L 232.846615 280.517373 
L 233.200054 281.227621 
L 233.553494 281.264713 
L 233.906934 280.940594 
L 234.260374 280.157765 
L 234.613813 279.805106 
L 234.967253 278.986419 
L 235.320693 276.972432 
L 235.674133 275.84829 
L 236.381012 272.377398 
L 236.734452 271.250621 
L 237.087892 271.250621 
L 237.441332 268.571117 
L 238.501651 267.753376 
L 238.855091 268.263728 
L 239.20853 269.256389 
L 239.56197 270.647735 
L 239.91541 271.180033 
L 240.622289 273.498311 
L 240.975729 275.821677 
L 242.389488 279.601897 
L 242.742928 279.601897 
L 243.096368 279.475565 
L 243.449807 279.045647 
L 243.803247 277.947785 
L 244.510127 274.431735 
L 244.863566 274.431735 
L 245.217006 271.465412 
L 245.570446 269.932171 
L 246.277325 265.618185 
L 246.630765 263.953329 
L 246.984205 263.953329 
L 247.337645 262.567322 
L 247.691084 262.320395 
L 248.044524 262.554525 
L 248.397964 263.461394 
L 248.751404 263.895899 
L 249.104843 264.921664 
L 249.458283 267.423064 
L 249.811723 268.794894 
L 250.518602 272.758881 
L 250.872042 273.35936 
L 251.225482 274.438483 
L 251.578922 275.93984 
L 251.932361 276.310157 
L 252.285801 276.409093 
L 252.639241 276.073921 
L 252.992681 274.858102 
L 253.34612 274.858102 
L 253.69956 272.886524 
L 254.75988 269.053987 
L 255.820199 263.15695 
L 256.527078 261.338342 
L 256.880518 260.823584 
L 257.233958 260.653971 
L 258.294277 263.641839 
L 259.001157 266.399265 
L 260.061476 273.127016 
L 261.475235 278.026713 
L 262.182114 278.136418 
L 262.535554 277.860161 
L 262.888994 277.383972 
L 263.242434 276.70735 
L 263.595873 275.332626 
L 263.949313 272.982176 
L 265.363072 267.357857 
L 266.069952 263.624551 
L 266.423391 263.231806 
L 266.776831 263.182681 
L 267.130271 263.471695 
L 267.483711 264.481774 
L 267.83715 266.704467 
L 268.19059 266.704467 
L 268.54403 269.548922 
L 269.250909 272.635855 
L 269.957789 277.136944 
L 270.311229 277.136944 
L 270.664668 278.767772 
L 271.371548 279.737174 
L 272.078427 279.423358 
L 272.431867 278.872328 
L 272.785307 277.080575 
L 273.138747 277.080575 
L 273.492187 273.209873 
L 273.845626 272.500565 
L 274.552506 269.635271 
L 274.905946 267.151598 
L 275.259385 267.151598 
L 275.612825 265.192393 
L 275.966265 265.129846 
L 276.319705 265.234507 
L 276.673144 265.637855 
L 277.026584 266.329095 
L 277.380024 267.824719 
L 277.733464 270.460939 
L 278.793783 275.032707 
L 279.147223 278.052978 
L 279.854102 281.414751 
L 280.914421 282.430278 
L 281.621301 281.032535 
L 283.03506 274.933449 
L 283.3885 271.596581 
L 284.448819 266.175823 
L 284.802259 263.83219 
L 285.155698 263.83219 
L 285.509138 262.613623 
L 285.862578 262.521441 
L 286.216018 262.773355 
L 286.569457 263.359421 
L 286.922897 264.800477 
L 287.276337 267.532651 
L 288.690096 274.36286 
L 289.043536 278.659631 
L 289.396975 278.659631 
L 289.750415 281.676248 
L 290.457295 283.839857 
L 290.810734 284.478198 
L 291.164174 284.751616 
L 291.517614 284.447322 
L 293.284813 276.305622 
L 293.638253 273.373401 
L 293.991692 269.37213 
L 295.052012 263.676076 
L 295.405451 260.384459 
L 295.758891 260.384459 
L 296.112331 257.498789 
L 296.81921 257.27116 
L 297.17265 257.594108 
L 298.232969 262.912006 
L 298.939849 268.48567 
L 299.293289 268.48567 
L 299.646728 272.443581 
L 300.353608 276.294281 
L 301.060487 281.981802 
L 301.767367 284.007308 
L 302.120807 284.533912 
L 302.474246 284.696651 
L 302.827686 284.24782 
L 303.181126 282.45699 
L 303.534566 282.45699 
L 303.888005 279.583374 
L 304.594885 276.069881 
L 304.948325 273.213958 
L 305.301764 269.35679 
L 307.068963 260.052352 
L 307.422403 259.198553 
L 307.775843 259.198553 
L 308.129282 259.414038 
L 308.482722 260.068315 
L 308.836162 261.045368 
L 309.189602 263.000001 
L 309.543041 266.269676 
L 311.31024 275.557856 
L 312.01712 281.282599 
L 312.723999 283.691843 
L 313.430879 285.392237 
L 313.784319 285.29071 
L 314.137758 284.71752 
L 314.844638 282.637565 
L 315.551517 277.92996 
L 315.904957 275.190642 
L 316.258397 275.190642 
L 316.611837 271.437456 
L 317.318716 267.773508 
L 318.025596 262.570335 
L 318.732475 260.916321 
L 319.085915 260.575245 
L 319.439355 260.565364 
L 319.792794 261.179186 
L 320.146234 263.049619 
L 320.499674 263.049619 
L 320.853114 265.841185 
L 321.206553 267.450891 
L 321.913433 272.656511 
L 322.266873 273.527634 
L 322.620312 275.246667 
L 322.973752 278.49843 
L 324.034071 283.282341 
L 324.387511 283.671219 
L 324.740951 284.259987 
L 325.094391 284.576178 
L 325.44783 283.995007 
L 325.80127 282.735932 
L 326.15471 282.183197 
L 326.861589 279.423535 
L 327.215029 275.165825 
L 327.568469 275.165825 
L 327.921909 271.534099 
L 328.982228 266.3379 
L 329.335668 263.708203 
L 329.689108 263.708203 
L 330.042547 261.83558 
L 330.395987 261.787175 
L 330.749427 261.920349 
L 331.102867 262.35603 
L 332.163186 267.445077 
L 332.870065 272.422459 
L 333.223505 272.422459 
L 333.576945 275.774697 
L 333.930385 277.364022 
L 334.637264 281.305358 
L 334.990704 282.645021 
L 335.344144 282.645021 
L 335.697583 283.647391 
L 336.051023 283.755164 
L 336.404463 283.564591 
L 336.757903 282.699491 
L 337.111342 280.579135 
L 337.464782 280.579135 
L 337.818222 277.628893 
L 338.171662 275.963129 
L 338.878541 270.762774 
L 339.231981 269.909411 
L 339.585421 268.252625 
L 339.93886 265.30645 
L 340.2923 265.30645 
L 340.64574 262.643837 
L 341.352619 262.324091 
L 341.706059 262.496199 
L 342.412939 264.751577 
L 343.119818 268.935123 
L 343.473258 271.399732 
L 343.826698 271.399732 
L 344.180137 274.758087 
L 345.240457 280.136283 
L 345.593896 282.427225 
L 346.300776 283.892124 
L 346.654216 284.23893 
L 347.007655 284.226499 
L 347.361095 283.533643 
L 347.714535 282.203308 
L 348.067975 282.203308 
L 348.421415 279.651244 
L 348.774854 278.13214 
L 349.835174 270.560748 
L 350.188613 270.560748 
L 350.542053 267.302293 
L 351.602372 262.720408 
L 352.309252 262.174036 
L 352.662692 262.590886 
L 353.016131 263.263322 
L 354.42989 268.976193 
L 354.78333 272.179007 
L 355.13677 273.772658 
L 355.843649 278.2559 
L 356.197089 278.933301 
L 356.550529 280.17153 
L 356.903969 282.041607 
L 357.257408 282.591989 
L 357.610848 282.833761 
L 357.964288 282.422379 
L 358.317728 281.433877 
L 358.671167 281.433877 
L 359.731487 275.250202 
L 360.084926 274.496852 
L 360.791806 271.44412 
L 361.145246 268.492887 
L 361.852125 264.976866 
L 362.205565 264.549334 
L 362.559005 263.872232 
L 362.912444 263.463213 
L 363.265884 263.350271 
L 363.619324 263.756303 
L 364.326203 266.361381 
L 365.386523 270.420116 
L 365.739962 272.695217 
L 366.093402 275.764863 
L 368.214041 284.70507 
L 368.567481 284.924928 
L 368.92092 284.817575 
L 369.27436 284.390265 
L 369.6278 283.66423 
L 369.98124 282.088654 
L 370.334679 279.28476 
L 371.748438 272.495569 
L 372.808758 265.313715 
L 373.869077 261.689822 
L 374.222517 261.689822 
L 374.929396 262.451177 
L 375.636276 264.484426 
L 375.989715 267.26962 
L 376.343155 267.26962 
L 376.696595 272.148746 
L 377.050035 272.983013 
L 377.756914 276.30428 
L 378.110354 280.210795 
L 378.463794 280.210795 
L 378.817233 283.029161 
L 379.877553 286.440372 
L 380.584432 287.623128 
L 381.291312 286.298934 
L 381.998191 283.93617 
L 382.351631 280.750141 
L 382.705071 280.750141 
L 383.05851 275.174383 
L 383.41195 274.219508 
L 384.11883 270.456791 
L 384.472269 266.954821 
L 385.532589 261.773478 
L 385.886028 261.365143 
L 386.239468 260.760373 
L 386.592908 260.504734 
L 386.946348 260.504734 
L 387.299788 262.481119 
L 387.653227 263.035653 
L 388.360107 265.660648 
L 388.713547 268.702081 
L 389.066986 268.702081 
L 389.420426 273.412148 
L 389.773866 274.184282 
L 390.480745 277.138783 
L 390.834185 279.828743 
L 391.187625 279.828743 
L 391.541065 283.118666 
L 391.894504 283.568108 
L 392.601384 284.967617 
L 392.954824 285.355435 
L 393.308263 285.478955 
L 394.368583 282.931755 
L 394.722022 281.756689 
L 395.075462 279.017879 
L 395.428902 279.017879 
L 395.782342 274.612101 
L 396.135781 273.905868 
L 396.842661 271.326977 
L 397.196101 269.306821 
L 398.25642 266.965455 
L 398.60986 266.567885 
L 399.670179 266.613402 
L 400.023619 266.901522 
L 400.377058 267.574005 
L 400.730498 268.835288 
L 401.083938 268.835288 
L 401.437378 270.327963 
L 402.851137 273.716597 
L 403.204576 274.961466 
L 404.264896 276.345572 
L 405.325215 277.26988 
L 406.032095 277.2321 
L 406.385534 277.128969 
L 406.738974 276.884882 
L 407.445854 276.103638 
L 408.506173 275.002909 
L 409.213052 273.695734 
L 409.566492 273.695734 
L 409.919932 273.124767 
L 413.10089 271.00949 
L 413.454329 270.469585 
L 413.807769 269.640149 
L 414.868088 268.498928 
L 415.574968 268.141541 
L 416.281847 269.001007 
L 416.988727 270.296658 
L 417.342167 271.07574 
L 417.695606 272.340487 
L 418.049046 274.086932 
L 419.109365 276.527538 
L 420.169685 278.323696 
L 420.523124 278.333253 
L 420.876564 278.000491 
L 421.583444 276.704266 
L 422.643763 271.313471 
L 422.997203 270.773711 
L 424.057522 267.932087 
L 424.410962 267.714778 
L 425.117841 268.030913 
L 425.824721 268.901713 
L 426.178161 270.263788 
L 426.5316 271.10391 
L 427.59192 275.719603 
L 427.945359 275.719603 
L 428.298799 277.973477 
L 429.359118 281.670527 
L 429.712558 283.260199 
L 430.419438 284.179945 
L 430.772877 284.338842 
L 431.126317 284.306705 
L 431.479757 284.100256 
L 431.833197 283.529384 
L 432.186636 282.444874 
L 432.186636 282.444874 
" clip-path="url(#p084242d696)" style="fill: none; stroke: #008000; stroke-width: 1.5; stroke-linecap: square"/>
   </g>
   <g id="patch_13">
    <path d="M 58.106 301.9975 
L 58.106 251.52 
" style="fill: none; stroke: #000000; stroke-width: 0.8; stroke-linejoin: miter; stroke-linecap: square"/>
   </g>
   <g id="patch_14">
    <path d="M 450 301.9975 
L 450 251.52 
" style="fill: none; stroke: #000000; stroke-width: 0.8; stroke-linejoin: miter; stroke-linecap: square"/>
   </g>
   <g id="patch_15">
    <path d="M 58.106 301.9975 
L 450 301.9975 
" style="fill: none; stroke: #000000; stroke-width: 0.8; stroke-linejoin: miter; stroke-linecap: square"/>
   </g>
   <g id="patch_16">
    <path d="M 58.106 251.52 
L 450 251.52 
" style="fill: none; stroke: #000000; stroke-width: 0.8; stroke-linejoin: miter; stroke-linecap: square"/>
   </g>
   <g id="text_35">
    <!-- Error in swing angle -->
    <g transform="translate(194.282688 245.52)scale(0.12 -0.12)">
     <defs>
      <path id="DejaVuSans-77" d="M 269 3500 
L 844 3500 
L 1563 769 
L 2278 3500 
L 2956 3500 
L 3675 769 
L 4391 3500 
L 4966 3500 
L 4050 0 
L 3372 0 
L 2619 2869 
L 1863 0 
L 1184 0 
L 269 3500 
z
" transform="scale(0.015625)"/>
      <path id="DejaVuSans-67" d="M 2906 1791 
Q 2906 2416 2648 2759 
Q 2391 3103 1925 3103 
Q 1463 3103 1205 2759 
Q 947 2416 947 1791 
Q 947 1169 1205 825 
Q 1463 481 1925 481 
Q 2391 481 2648 825 
Q 2906 1169 2906 1791 
z
M 3481 434 
Q 3481 -459 3084 -895 
Q 2688 -1331 1869 -1331 
Q 1566 -1331 1297 -1286 
Q 1028 -1241 775 -1147 
L 775 -588 
Q 1028 -725 1275 -790 
Q 1522 -856 1778 -856 
Q 2344 -856 2625 -561 
Q 2906 -266 2906 331 
L 2906 616 
Q 2728 306 2450 153 
Q 2172 0 1784 0 
Q 1141 0 747 490 
Q 353 981 353 1791 
Q 353 2603 747 3093 
Q 1141 3584 1784 3584 
Q 2172 3584 2450 3431 
Q 2728 3278 2906 2969 
L 2906 3500 
L 3481 3500 
L 3481 434 
z
" transform="scale(0.015625)"/>
      <path id="DejaVuSans-6c" d="M 603 4863 
L 1178 4863 
L 1178 0 
L 603 0 
L 603 4863 
z
" transform="scale(0.015625)"/>
      <path id="DejaVuSans-65" d="M 3597 1894 
L 3597 1613 
L 953 1613 
Q 991 1019 1311 708 
Q 1631 397 2203 397 
Q 2534 397 2845 478 
Q 3156 559 3463 722 
L 3463 178 
Q 3153 47 2828 -22 
Q 2503 -91 2169 -91 
Q 1331 -91 842 396 
Q 353 884 353 1716 
Q 353 2575 817 3079 
Q 1281 3584 2069 3584 
Q 2775 3584 3186 3129 
Q 3597 2675 3597 1894 
z
M 3022 2063 
Q 3016 2534 2758 2815 
Q 2500 3097 2075 3097 
Q 1594 3097 1305 2825 
Q 1016 2553 972 2059 
L 3022 2063 
z
" transform="scale(0.015625)"/>
     </defs>
     <use xlink:href="#DejaVuSans-45"/>
     <use xlink:href="#DejaVuSans-72" x="63.183594"/>
     <use xlink:href="#DejaVuSans-72" x="102.546875"/>
     <use xlink:href="#DejaVuSans-6f" x="141.410156"/>
     <use xlink:href="#DejaVuSans-72" x="202.591797"/>
     <use xlink:href="#DejaVuSans-20" x="243.705078"/>
     <use xlink:href="#DejaVuSans-69" x="275.492188"/>
     <use xlink:href="#DejaVuSans-6e" x="303.275391"/>
     <use xlink:href="#DejaVuSans-20" x="366.654297"/>
     <use xlink:href="#DejaVuSans-73" x="398.441406"/>
     <use xlink:href="#DejaVuSans-77" x="450.541016"/>
     <use xlink:href="#DejaVuSans-69" x="532.328125"/>
     <use xlink:href="#DejaVuSans-6e" x="560.111328"/>
     <use xlink:href="#DejaVuSans-67" x="623.490234"/>
     <use xlink:href="#DejaVuSans-20" x="686.966797"/>
     <use xlink:href="#DejaVuSans-61" x="718.753906"/>
     <use xlink:href="#DejaVuSans-6e" x="780.033203"/>
     <use xlink:href="#DejaVuSans-67" x="843.412109"/>
     <use xlink:href="#DejaVuSans-6c" x="906.888672"/>
     <use xlink:href="#DejaVuSans-65" x="934.671875"/>
    </g>
   </g>
  </g>
 </g>
 <defs>
  <clipPath id="p536190ea52">
   <rect x="58.106" y="28.32" width="391.894" height="50.4775"/>
  </clipPath>
  <clipPath id="pb2c085a877">
   <rect x="58.106" y="139.92" width="391.894" height="50.4775"/>
  </clipPath>
  <clipPath id="p084242d696">
   <rect x="58.106" y="251.52" width="391.894" height="50.4775"/>
  </clipPath>
 </defs>
</svg>
