<?xml version="1.0" encoding="utf-8" standalone="no"?>
<!DOCTYPE svg PUBLIC "-//W3C//DTD SVG 1.1//EN"
  "http://www.w3.org/Graphics/SVG/1.1/DTD/svg11.dtd">
<svg xmlns:xlink="http://www.w3.org/1999/xlink" width="460.8pt" height="345.6pt" viewBox="0 0 460.8 345.6" xmlns="http://www.w3.org/2000/svg" version="1.1">
 <metadata>
  <rdf:RDF xmlns:dc="http://purl.org/dc/elements/1.1/" xmlns:cc="http://creativecommons.org/ns#" xmlns:rdf="http://www.w3.org/1999/02/22-rdf-syntax-ns#">
   <cc:Work>
    <dc:type rdf:resource="http://purl.org/dc/dcmitype/StillImage"/>
    <dc:date>2022-06-05T14:28:23.543225</dc:date>
    <dc:format>image/svg+xml</dc:format>
    <dc:creator>
     <cc:Agent>
      <dc:title>Matplotlib v3.5.1, https://matplotlib.org/</dc:title>
     </cc:Agent>
    </dc:creator>
   </cc:Work>
  </rdf:RDF>
 </metadata>
 <defs>
  <style type="text/css">*{stroke-linejoin: round; stroke-linecap: butt}</style>
 </defs>
 <g id="figure_1">
  <g id="patch_1">
   <path d="M 0 345.6 
L 460.8 345.6 
L 460.8 0 
L 0 0 
z
" style="fill: #ffffff"/>
  </g>
  <g id="axes_1">
   <g id="patch_2">
    <path d="M 58.106 78.7975 
L 450 78.7975 
L 450 28.32 
L 58.106 28.32 
z
" style="fill: #ffffff"/>
   </g>
   <g id="matplotlib.axis_1">
    <g id="xtick_1">
     <g id="line2d_1">
      <path d="M 75.919364 78.7975 
L 75.919364 28.32 
" clip-path="url(#p0bd1bde720)" style="fill: none; stroke: #b0b0b0; stroke-width: 0.8; stroke-linecap: square"/>
     </g>
     <g id="line2d_2">
      <defs>
       <path id="md3eba24fb9" d="M 0 0 
L 0 3.5 
" style="stroke: #000000; stroke-width: 0.8"/>
      </defs>
      <g>
       <use xlink:href="#md3eba24fb9" x="75.919364" y="78.7975" style="stroke: #000000; stroke-width: 0.8"/>
      </g>
     </g>
     <g id="text_1">
      <!-- 0 -->
      <g transform="translate(72.738114 93.395937)scale(0.1 -0.1)">
       <defs>
        <path id="DejaVuSans-30" d="M 2034 4250 
Q 1547 4250 1301 3770 
Q 1056 3291 1056 2328 
Q 1056 1369 1301 889 
Q 1547 409 2034 409 
Q 2525 409 2770 889 
Q 3016 1369 3016 2328 
Q 3016 3291 2770 3770 
Q 2525 4250 2034 4250 
z
M 2034 4750 
Q 2819 4750 3233 4129 
Q 3647 3509 3647 2328 
Q 3647 1150 3233 529 
Q 2819 -91 2034 -91 
Q 1250 -91 836 529 
Q 422 1150 422 2328 
Q 422 3509 836 4129 
Q 1250 4750 2034 4750 
z
" transform="scale(0.015625)"/>
       </defs>
       <use xlink:href="#DejaVuSans-30"/>
      </g>
     </g>
    </g>
    <g id="xtick_2">
     <g id="line2d_3">
      <path d="M 134.515955 78.7975 
L 134.515955 28.32 
" clip-path="url(#p0bd1bde720)" style="fill: none; stroke: #b0b0b0; stroke-width: 0.8; stroke-linecap: square"/>
     </g>
     <g id="line2d_4">
      <g>
       <use xlink:href="#md3eba24fb9" x="134.515955" y="78.7975" style="stroke: #000000; stroke-width: 0.8"/>
      </g>
     </g>
     <g id="text_2">
      <!-- 2 -->
      <g transform="translate(131.334705 93.395937)scale(0.1 -0.1)">
       <defs>
        <path id="DejaVuSans-32" d="M 1228 531 
L 3431 531 
L 3431 0 
L 469 0 
L 469 531 
Q 828 903 1448 1529 
Q 2069 2156 2228 2338 
Q 2531 2678 2651 2914 
Q 2772 3150 2772 3378 
Q 2772 3750 2511 3984 
Q 2250 4219 1831 4219 
Q 1534 4219 1204 4116 
Q 875 4013 500 3803 
L 500 4441 
Q 881 4594 1212 4672 
Q 1544 4750 1819 4750 
Q 2544 4750 2975 4387 
Q 3406 4025 3406 3419 
Q 3406 3131 3298 2873 
Q 3191 2616 2906 2266 
Q 2828 2175 2409 1742 
Q 1991 1309 1228 531 
z
" transform="scale(0.015625)"/>
       </defs>
       <use xlink:href="#DejaVuSans-32"/>
      </g>
     </g>
    </g>
    <g id="xtick_3">
     <g id="line2d_5">
      <path d="M 193.112545 78.7975 
L 193.112545 28.32 
" clip-path="url(#p0bd1bde720)" style="fill: none; stroke: #b0b0b0; stroke-width: 0.8; stroke-linecap: square"/>
     </g>
     <g id="line2d_6">
      <g>
       <use xlink:href="#md3eba24fb9" x="193.112545" y="78.7975" style="stroke: #000000; stroke-width: 0.8"/>
      </g>
     </g>
     <g id="text_3">
      <!-- 4 -->
      <g transform="translate(189.931295 93.395937)scale(0.1 -0.1)">
       <defs>
        <path id="DejaVuSans-34" d="M 2419 4116 
L 825 1625 
L 2419 1625 
L 2419 4116 
z
M 2253 4666 
L 3047 4666 
L 3047 1625 
L 3713 1625 
L 3713 1100 
L 3047 1100 
L 3047 0 
L 2419 0 
L 2419 1100 
L 313 1100 
L 313 1709 
L 2253 4666 
z
" transform="scale(0.015625)"/>
       </defs>
       <use xlink:href="#DejaVuSans-34"/>
      </g>
     </g>
    </g>
    <g id="xtick_4">
     <g id="line2d_7">
      <path d="M 251.709136 78.7975 
L 251.709136 28.32 
" clip-path="url(#p0bd1bde720)" style="fill: none; stroke: #b0b0b0; stroke-width: 0.8; stroke-linecap: square"/>
     </g>
     <g id="line2d_8">
      <g>
       <use xlink:href="#md3eba24fb9" x="251.709136" y="78.7975" style="stroke: #000000; stroke-width: 0.8"/>
      </g>
     </g>
     <g id="text_4">
      <!-- 6 -->
      <g transform="translate(248.527886 93.395937)scale(0.1 -0.1)">
       <defs>
        <path id="DejaVuSans-36" d="M 2113 2584 
Q 1688 2584 1439 2293 
Q 1191 2003 1191 1497 
Q 1191 994 1439 701 
Q 1688 409 2113 409 
Q 2538 409 2786 701 
Q 3034 994 3034 1497 
Q 3034 2003 2786 2293 
Q 2538 2584 2113 2584 
z
M 3366 4563 
L 3366 3988 
Q 3128 4100 2886 4159 
Q 2644 4219 2406 4219 
Q 1781 4219 1451 3797 
Q 1122 3375 1075 2522 
Q 1259 2794 1537 2939 
Q 1816 3084 2150 3084 
Q 2853 3084 3261 2657 
Q 3669 2231 3669 1497 
Q 3669 778 3244 343 
Q 2819 -91 2113 -91 
Q 1303 -91 875 529 
Q 447 1150 447 2328 
Q 447 3434 972 4092 
Q 1497 4750 2381 4750 
Q 2619 4750 2861 4703 
Q 3103 4656 3366 4563 
z
" transform="scale(0.015625)"/>
       </defs>
       <use xlink:href="#DejaVuSans-36"/>
      </g>
     </g>
    </g>
    <g id="xtick_5">
     <g id="line2d_9">
      <path d="M 310.305727 78.7975 
L 310.305727 28.32 
" clip-path="url(#p0bd1bde720)" style="fill: none; stroke: #b0b0b0; stroke-width: 0.8; stroke-linecap: square"/>
     </g>
     <g id="line2d_10">
      <g>
       <use xlink:href="#md3eba24fb9" x="310.305727" y="78.7975" style="stroke: #000000; stroke-width: 0.8"/>
      </g>
     </g>
     <g id="text_5">
      <!-- 8 -->
      <g transform="translate(307.124477 93.395937)scale(0.1 -0.1)">
       <defs>
        <path id="DejaVuSans-38" d="M 2034 2216 
Q 1584 2216 1326 1975 
Q 1069 1734 1069 1313 
Q 1069 891 1326 650 
Q 1584 409 2034 409 
Q 2484 409 2743 651 
Q 3003 894 3003 1313 
Q 3003 1734 2745 1975 
Q 2488 2216 2034 2216 
z
M 1403 2484 
Q 997 2584 770 2862 
Q 544 3141 544 3541 
Q 544 4100 942 4425 
Q 1341 4750 2034 4750 
Q 2731 4750 3128 4425 
Q 3525 4100 3525 3541 
Q 3525 3141 3298 2862 
Q 3072 2584 2669 2484 
Q 3125 2378 3379 2068 
Q 3634 1759 3634 1313 
Q 3634 634 3220 271 
Q 2806 -91 2034 -91 
Q 1263 -91 848 271 
Q 434 634 434 1313 
Q 434 1759 690 2068 
Q 947 2378 1403 2484 
z
M 1172 3481 
Q 1172 3119 1398 2916 
Q 1625 2713 2034 2713 
Q 2441 2713 2670 2916 
Q 2900 3119 2900 3481 
Q 2900 3844 2670 4047 
Q 2441 4250 2034 4250 
Q 1625 4250 1398 4047 
Q 1172 3844 1172 3481 
z
" transform="scale(0.015625)"/>
       </defs>
       <use xlink:href="#DejaVuSans-38"/>
      </g>
     </g>
    </g>
    <g id="xtick_6">
     <g id="line2d_11">
      <path d="M 368.902318 78.7975 
L 368.902318 28.32 
" clip-path="url(#p0bd1bde720)" style="fill: none; stroke: #b0b0b0; stroke-width: 0.8; stroke-linecap: square"/>
     </g>
     <g id="line2d_12">
      <g>
       <use xlink:href="#md3eba24fb9" x="368.902318" y="78.7975" style="stroke: #000000; stroke-width: 0.8"/>
      </g>
     </g>
     <g id="text_6">
      <!-- 10 -->
      <g transform="translate(362.539818 93.395937)scale(0.1 -0.1)">
       <defs>
        <path id="DejaVuSans-31" d="M 794 531 
L 1825 531 
L 1825 4091 
L 703 3866 
L 703 4441 
L 1819 4666 
L 2450 4666 
L 2450 531 
L 3481 531 
L 3481 0 
L 794 0 
L 794 531 
z
" transform="scale(0.015625)"/>
       </defs>
       <use xlink:href="#DejaVuSans-31"/>
       <use xlink:href="#DejaVuSans-30" x="63.623047"/>
      </g>
     </g>
    </g>
    <g id="xtick_7">
     <g id="line2d_13">
      <path d="M 427.498909 78.7975 
L 427.498909 28.32 
" clip-path="url(#p0bd1bde720)" style="fill: none; stroke: #b0b0b0; stroke-width: 0.8; stroke-linecap: square"/>
     </g>
     <g id="line2d_14">
      <g>
       <use xlink:href="#md3eba24fb9" x="427.498909" y="78.7975" style="stroke: #000000; stroke-width: 0.8"/>
      </g>
     </g>
     <g id="text_7">
      <!-- 12 -->
      <g transform="translate(421.136409 93.395937)scale(0.1 -0.1)">
       <use xlink:href="#DejaVuSans-31"/>
       <use xlink:href="#DejaVuSans-32" x="63.623047"/>
      </g>
     </g>
    </g>
    <g id="text_8">
     <!-- $t$ [s] -->
     <g transform="translate(243.953 107.074062)scale(0.1 -0.1)">
      <defs>
       <path id="DejaVuSans-Oblique-74" d="M 2706 3500 
L 2619 3053 
L 1472 3053 
L 1100 1153 
Q 1081 1047 1072 975 
Q 1063 903 1063 863 
Q 1063 663 1183 572 
Q 1303 481 1569 481 
L 2150 481 
L 2053 0 
L 1503 0 
Q 991 0 739 200 
Q 488 400 488 806 
Q 488 878 497 964 
Q 506 1050 525 1153 
L 897 3053 
L 409 3053 
L 500 3500 
L 978 3500 
L 1172 4494 
L 1747 4494 
L 1556 3500 
L 2706 3500 
z
" transform="scale(0.015625)"/>
       <path id="DejaVuSans-20" transform="scale(0.015625)"/>
       <path id="DejaVuSans-5b" d="M 550 4863 
L 1875 4863 
L 1875 4416 
L 1125 4416 
L 1125 -397 
L 1875 -397 
L 1875 -844 
L 550 -844 
L 550 4863 
z
" transform="scale(0.015625)"/>
       <path id="DejaVuSans-73" d="M 2834 3397 
L 2834 2853 
Q 2591 2978 2328 3040 
Q 2066 3103 1784 3103 
Q 1356 3103 1142 2972 
Q 928 2841 928 2578 
Q 928 2378 1081 2264 
Q 1234 2150 1697 2047 
L 1894 2003 
Q 2506 1872 2764 1633 
Q 3022 1394 3022 966 
Q 3022 478 2636 193 
Q 2250 -91 1575 -91 
Q 1294 -91 989 -36 
Q 684 19 347 128 
L 347 722 
Q 666 556 975 473 
Q 1284 391 1588 391 
Q 1994 391 2212 530 
Q 2431 669 2431 922 
Q 2431 1156 2273 1281 
Q 2116 1406 1581 1522 
L 1381 1569 
Q 847 1681 609 1914 
Q 372 2147 372 2553 
Q 372 3047 722 3315 
Q 1072 3584 1716 3584 
Q 2034 3584 2315 3537 
Q 2597 3491 2834 3397 
z
" transform="scale(0.015625)"/>
       <path id="DejaVuSans-5d" d="M 1947 4863 
L 1947 -844 
L 622 -844 
L 622 -397 
L 1369 -397 
L 1369 4416 
L 622 4416 
L 622 4863 
L 1947 4863 
z
" transform="scale(0.015625)"/>
      </defs>
      <use xlink:href="#DejaVuSans-Oblique-74" transform="translate(0 0.015625)"/>
      <use xlink:href="#DejaVuSans-20" transform="translate(39.208984 0.015625)"/>
      <use xlink:href="#DejaVuSans-5b" transform="translate(70.996094 0.015625)"/>
      <use xlink:href="#DejaVuSans-73" transform="translate(110.009766 0.015625)"/>
      <use xlink:href="#DejaVuSans-5d" transform="translate(162.109375 0.015625)"/>
     </g>
    </g>
   </g>
   <g id="matplotlib.axis_2">
    <g id="ytick_1">
     <g id="line2d_15">
      <path d="M 58.106 76.578554 
L 450 76.578554 
" clip-path="url(#p0bd1bde720)" style="fill: none; stroke: #b0b0b0; stroke-width: 0.8; stroke-linecap: square"/>
     </g>
     <g id="line2d_16">
      <defs>
       <path id="m83e8f15d6b" d="M 0 0 
L -3.5 0 
" style="stroke: #000000; stroke-width: 0.8"/>
      </defs>
      <g>
       <use xlink:href="#m83e8f15d6b" x="58.106" y="76.578554" style="stroke: #000000; stroke-width: 0.8"/>
      </g>
     </g>
     <g id="text_9">
      <!-- 0 -->
      <g transform="translate(44.7435 80.377773)scale(0.1 -0.1)">
       <use xlink:href="#DejaVuSans-30"/>
      </g>
     </g>
    </g>
    <g id="ytick_2">
     <g id="line2d_17">
      <path d="M 58.106 30.614449 
L 450 30.614449 
" clip-path="url(#p0bd1bde720)" style="fill: none; stroke: #b0b0b0; stroke-width: 0.8; stroke-linecap: square"/>
     </g>
     <g id="line2d_18">
      <g>
       <use xlink:href="#m83e8f15d6b" x="58.106" y="30.614449" style="stroke: #000000; stroke-width: 0.8"/>
      </g>
     </g>
     <g id="text_10">
      <!-- 10 -->
      <g transform="translate(38.381 34.413668)scale(0.1 -0.1)">
       <use xlink:href="#DejaVuSans-31"/>
       <use xlink:href="#DejaVuSans-30" x="63.623047"/>
      </g>
     </g>
    </g>
    <g id="text_11">
     <!-- $e_x$ [m] -->
     <g transform="translate(32.301313 69.20875)rotate(-90)scale(0.1 -0.1)">
      <defs>
       <path id="DejaVuSans-Oblique-65" d="M 3078 2063 
Q 3088 2113 3092 2166 
Q 3097 2219 3097 2272 
Q 3097 2653 2873 2875 
Q 2650 3097 2266 3097 
Q 1838 3097 1509 2826 
Q 1181 2556 1013 2059 
L 3078 2063 
z
M 3578 1613 
L 903 1613 
Q 884 1494 878 1425 
Q 872 1356 872 1306 
Q 872 872 1139 634 
Q 1406 397 1894 397 
Q 2269 397 2603 481 
Q 2938 566 3225 728 
L 3116 159 
Q 2806 34 2476 -28 
Q 2147 -91 1806 -91 
Q 1078 -91 686 257 
Q 294 606 294 1247 
Q 294 1794 489 2264 
Q 684 2734 1063 3103 
Q 1306 3334 1642 3459 
Q 1978 3584 2356 3584 
Q 2950 3584 3301 3228 
Q 3653 2872 3653 2272 
Q 3653 2128 3634 1964 
Q 3616 1800 3578 1613 
z
" transform="scale(0.015625)"/>
       <path id="DejaVuSans-Oblique-78" d="M 3841 3500 
L 2234 1784 
L 3219 0 
L 2559 0 
L 1819 1388 
L 531 0 
L -166 0 
L 1556 1844 
L 641 3500 
L 1300 3500 
L 1972 2234 
L 3144 3500 
L 3841 3500 
z
" transform="scale(0.015625)"/>
       <path id="DejaVuSans-6d" d="M 3328 2828 
Q 3544 3216 3844 3400 
Q 4144 3584 4550 3584 
Q 5097 3584 5394 3201 
Q 5691 2819 5691 2113 
L 5691 0 
L 5113 0 
L 5113 2094 
Q 5113 2597 4934 2840 
Q 4756 3084 4391 3084 
Q 3944 3084 3684 2787 
Q 3425 2491 3425 1978 
L 3425 0 
L 2847 0 
L 2847 2094 
Q 2847 2600 2669 2842 
Q 2491 3084 2119 3084 
Q 1678 3084 1418 2786 
Q 1159 2488 1159 1978 
L 1159 0 
L 581 0 
L 581 3500 
L 1159 3500 
L 1159 2956 
Q 1356 3278 1631 3431 
Q 1906 3584 2284 3584 
Q 2666 3584 2933 3390 
Q 3200 3197 3328 2828 
z
" transform="scale(0.015625)"/>
      </defs>
      <use xlink:href="#DejaVuSans-Oblique-65" transform="translate(0 0.015625)"/>
      <use xlink:href="#DejaVuSans-Oblique-78" transform="translate(61.523438 -16.390625)scale(0.7)"/>
      <use xlink:href="#DejaVuSans-20" transform="translate(105.683594 0.015625)"/>
      <use xlink:href="#DejaVuSans-5b" transform="translate(137.470703 0.015625)"/>
      <use xlink:href="#DejaVuSans-6d" transform="translate(176.484375 0.015625)"/>
      <use xlink:href="#DejaVuSans-5d" transform="translate(273.896484 0.015625)"/>
     </g>
    </g>
   </g>
   <g id="line2d_19">
    <path d="M 75.919364 30.614449 
L 82.663518 30.717417 
L 95.858602 31.247958 
L 103.189204 31.99404 
L 118.436857 34.475873 
L 119.316529 34.655986 
L 121.662322 35.096455 
L 121.955546 35.216769 
L 122.541994 35.314827 
L 125.181011 35.859843 
L 125.474235 35.99627 
L 126.060684 36.10672 
L 128.6997 36.699191 
L 129.579373 36.987216 
L 130.459045 37.132941 
L 131.338717 37.42872 
L 132.218389 37.579003 
L 132.511614 37.700426 
L 132.804838 37.700426 
L 133.098062 37.884532 
L 133.977734 38.039637 
L 134.857406 38.353827 
L 135.737079 38.512518 
L 136.616751 38.832065 
L 137.496423 38.992474 
L 138.376095 39.281437 
L 140.428664 39.856365 
L 141.015112 39.951303 
L 141.894785 40.233888 
L 143.654129 40.726847 
L 144.533801 40.878288 
L 145.413474 41.147683 
L 147.466042 41.673232 
L 148.05249 41.758891 
L 149.225387 42.095578 
L 150.398283 42.288006 
L 150.691507 42.451262 
L 151.57118 42.586532 
L 152.744076 42.909923 
L 153.623748 43.098445 
L 156.555989 43.745488 
L 157.435661 43.960568 
L 160.367902 44.598897 
L 161.247575 44.808173 
L 163.300143 45.243884 
L 164.179816 45.49452 
L 165.059488 45.618748 
L 165.93916 45.865917 
L 166.818832 45.989014 
L 167.991729 46.28292 
L 168.871401 46.453108 
L 171.510418 46.984835 
L 172.39009 47.17853 
L 174.735883 47.658146 
L 177.081676 48.14121 
L 177.668124 48.23163 
L 180.893589 48.817629 
L 181.773261 48.995491 
L 183.82583 49.392215 
L 184.705502 49.569797 
L 187.344519 50.058184 
L 188.224191 50.231084 
L 191.449656 50.782063 
L 192.622553 51.023433 
L 194.968345 51.449811 
L 196.141242 51.714131 
L 197.314138 51.907674 
L 199.659931 52.337196 
L 200.539603 52.514153 
L 203.471844 53.049614 
L 204.351516 53.223029 
L 206.990533 53.688765 
L 207.870205 53.860514 
L 210.509222 54.342195 
L 211.388895 54.514974 
L 214.027911 54.994248 
L 216.666928 55.453786 
L 219.305945 55.916046 
L 220.185617 56.077949 
L 223.117858 56.551115 
L 223.99753 56.712228 
L 226.050099 57.062577 
L 226.636547 57.165455 
L 227.51622 57.327789 
L 231.328133 57.956044 
L 231.914581 58.056316 
L 232.794253 58.219233 
L 235.43327 58.64706 
L 236.019718 58.785363 
L 239.245183 59.308341 
L 242.763872 59.907882 
L 246.282562 60.475269 
L 250.387699 61.191352 
L 250.974147 61.268078 
L 255.079284 61.895665 
L 259.184422 62.60361 
L 260.064094 62.71445 
L 262.703111 63.111754 
L 265.342128 63.504373 
L 265.928576 63.638038 
L 270.620161 64.348001 
L 275.018523 65.009679 
L 279.416884 65.619956 
L 280.003332 65.732828 
L 282.935573 66.154089 
L 285.57459 66.529976 
L 289.972951 67.123359 
L 294.078089 67.706827 
L 295.544209 67.891417 
L 298.47645 68.260753 
L 299.356122 68.367296 
L 303.754484 68.935098 
L 307.273173 69.3632 
L 314.017327 70.237176 
L 317.536016 70.661463 
L 318.415688 70.797244 
L 323.107274 71.401382 
L 327.798859 71.999643 
L 328.678532 72.093015 
L 334.543013 72.806399 
L 336.302358 73.036405 
L 340.114271 73.512549 
L 341.287168 73.617443 
L 345.685529 74.103588 
L 347.151649 74.310953 
L 348.031322 74.391336 
L 351.550011 74.75092 
L 357.121269 75.28265 
L 359.760285 75.465867 
L 362.106078 75.631317 
L 376.180835 76.231303 
L 387.32335 76.318024 
L 418.991552 75.918399 
L 427.201827 76.257896 
L 432.186636 76.503068 
L 432.186636 76.503068 
" clip-path="url(#p0bd1bde720)" style="fill: none; stroke: #ff0000; stroke-width: 1.5; stroke-linecap: square"/>
   </g>
   <g id="patch_3">
    <path d="M 58.106 78.7975 
L 58.106 28.32 
" style="fill: none; stroke: #000000; stroke-width: 0.8; stroke-linejoin: miter; stroke-linecap: square"/>
   </g>
   <g id="patch_4">
    <path d="M 450 78.7975 
L 450 28.32 
" style="fill: none; stroke: #000000; stroke-width: 0.8; stroke-linejoin: miter; stroke-linecap: square"/>
   </g>
   <g id="patch_5">
    <path d="M 58.106 78.7975 
L 450 78.7975 
" style="fill: none; stroke: #000000; stroke-width: 0.8; stroke-linejoin: miter; stroke-linecap: square"/>
   </g>
   <g id="patch_6">
    <path d="M 58.106 28.32 
L 450 28.32 
" style="fill: none; stroke: #000000; stroke-width: 0.8; stroke-linejoin: miter; stroke-linecap: square"/>
   </g>
   <g id="text_12">
    <!-- Error in $x$-position -->
    <g transform="translate(200.413 22.32)scale(0.12 -0.12)">
     <defs>
      <path id="DejaVuSans-45" d="M 628 4666 
L 3578 4666 
L 3578 4134 
L 1259 4134 
L 1259 2753 
L 3481 2753 
L 3481 2222 
L 1259 2222 
L 1259 531 
L 3634 531 
L 3634 0 
L 628 0 
L 628 4666 
z
" transform="scale(0.015625)"/>
      <path id="DejaVuSans-72" d="M 2631 2963 
Q 2534 3019 2420 3045 
Q 2306 3072 2169 3072 
Q 1681 3072 1420 2755 
Q 1159 2438 1159 1844 
L 1159 0 
L 581 0 
L 581 3500 
L 1159 3500 
L 1159 2956 
Q 1341 3275 1631 3429 
Q 1922 3584 2338 3584 
Q 2397 3584 2469 3576 
Q 2541 3569 2628 3553 
L 2631 2963 
z
" transform="scale(0.015625)"/>
      <path id="DejaVuSans-6f" d="M 1959 3097 
Q 1497 3097 1228 2736 
Q 959 2375 959 1747 
Q 959 1119 1226 758 
Q 1494 397 1959 397 
Q 2419 397 2687 759 
Q 2956 1122 2956 1747 
Q 2956 2369 2687 2733 
Q 2419 3097 1959 3097 
z
M 1959 3584 
Q 2709 3584 3137 3096 
Q 3566 2609 3566 1747 
Q 3566 888 3137 398 
Q 2709 -91 1959 -91 
Q 1206 -91 779 398 
Q 353 888 353 1747 
Q 353 2609 779 3096 
Q 1206 3584 1959 3584 
z
" transform="scale(0.015625)"/>
      <path id="DejaVuSans-69" d="M 603 3500 
L 1178 3500 
L 1178 0 
L 603 0 
L 603 3500 
z
M 603 4863 
L 1178 4863 
L 1178 4134 
L 603 4134 
L 603 4863 
z
" transform="scale(0.015625)"/>
      <path id="DejaVuSans-6e" d="M 3513 2113 
L 3513 0 
L 2938 0 
L 2938 2094 
Q 2938 2591 2744 2837 
Q 2550 3084 2163 3084 
Q 1697 3084 1428 2787 
Q 1159 2491 1159 1978 
L 1159 0 
L 581 0 
L 581 3500 
L 1159 3500 
L 1159 2956 
Q 1366 3272 1645 3428 
Q 1925 3584 2291 3584 
Q 2894 3584 3203 3211 
Q 3513 2838 3513 2113 
z
" transform="scale(0.015625)"/>
      <path id="DejaVuSans-2d" d="M 313 2009 
L 1997 2009 
L 1997 1497 
L 313 1497 
L 313 2009 
z
" transform="scale(0.015625)"/>
      <path id="DejaVuSans-70" d="M 1159 525 
L 1159 -1331 
L 581 -1331 
L 581 3500 
L 1159 3500 
L 1159 2969 
Q 1341 3281 1617 3432 
Q 1894 3584 2278 3584 
Q 2916 3584 3314 3078 
Q 3713 2572 3713 1747 
Q 3713 922 3314 415 
Q 2916 -91 2278 -91 
Q 1894 -91 1617 61 
Q 1341 213 1159 525 
z
M 3116 1747 
Q 3116 2381 2855 2742 
Q 2594 3103 2138 3103 
Q 1681 3103 1420 2742 
Q 1159 2381 1159 1747 
Q 1159 1113 1420 752 
Q 1681 391 2138 391 
Q 2594 391 2855 752 
Q 3116 1113 3116 1747 
z
" transform="scale(0.015625)"/>
      <path id="DejaVuSans-74" d="M 1172 4494 
L 1172 3500 
L 2356 3500 
L 2356 3053 
L 1172 3053 
L 1172 1153 
Q 1172 725 1289 603 
Q 1406 481 1766 481 
L 2356 481 
L 2356 0 
L 1766 0 
Q 1100 0 847 248 
Q 594 497 594 1153 
L 594 3053 
L 172 3053 
L 172 3500 
L 594 3500 
L 594 4494 
L 1172 4494 
z
" transform="scale(0.015625)"/>
     </defs>
     <use xlink:href="#DejaVuSans-45" transform="translate(0 0.015625)"/>
     <use xlink:href="#DejaVuSans-72" transform="translate(63.183594 0.015625)"/>
     <use xlink:href="#DejaVuSans-72" transform="translate(104.296875 0.015625)"/>
     <use xlink:href="#DejaVuSans-6f" transform="translate(145.410156 0.015625)"/>
     <use xlink:href="#DejaVuSans-72" transform="translate(206.591797 0.015625)"/>
     <use xlink:href="#DejaVuSans-20" transform="translate(247.705078 0.015625)"/>
     <use xlink:href="#DejaVuSans-69" transform="translate(279.492188 0.015625)"/>
     <use xlink:href="#DejaVuSans-6e" transform="translate(307.275391 0.015625)"/>
     <use xlink:href="#DejaVuSans-20" transform="translate(370.654297 0.015625)"/>
     <use xlink:href="#DejaVuSans-Oblique-78" transform="translate(402.441406 0.015625)"/>
     <use xlink:href="#DejaVuSans-2d" transform="translate(461.621094 0.015625)"/>
     <use xlink:href="#DejaVuSans-70" transform="translate(497.705078 0.015625)"/>
     <use xlink:href="#DejaVuSans-6f" transform="translate(561.181641 0.015625)"/>
     <use xlink:href="#DejaVuSans-73" transform="translate(622.363281 0.015625)"/>
     <use xlink:href="#DejaVuSans-69" transform="translate(674.462891 0.015625)"/>
     <use xlink:href="#DejaVuSans-74" transform="translate(702.246094 0.015625)"/>
     <use xlink:href="#DejaVuSans-69" transform="translate(741.455078 0.015625)"/>
     <use xlink:href="#DejaVuSans-6f" transform="translate(769.238281 0.015625)"/>
     <use xlink:href="#DejaVuSans-6e" transform="translate(830.419922 0.015625)"/>
    </g>
   </g>
  </g>
  <g id="axes_2">
   <g id="patch_7">
    <path d="M 58.106 190.3975 
L 450 190.3975 
L 450 139.92 
L 58.106 139.92 
z
" style="fill: #ffffff"/>
   </g>
   <g id="matplotlib.axis_3">
    <g id="xtick_8">
     <g id="line2d_20">
      <path d="M 75.919364 190.3975 
L 75.919364 139.92 
" clip-path="url(#p5238b255c4)" style="fill: none; stroke: #b0b0b0; stroke-width: 0.8; stroke-linecap: square"/>
     </g>
     <g id="line2d_21">
      <g>
       <use xlink:href="#md3eba24fb9" x="75.919364" y="190.3975" style="stroke: #000000; stroke-width: 0.8"/>
      </g>
     </g>
     <g id="text_13">
      <!-- 0 -->
      <g transform="translate(72.738114 204.995937)scale(0.1 -0.1)">
       <use xlink:href="#DejaVuSans-30"/>
      </g>
     </g>
    </g>
    <g id="xtick_9">
     <g id="line2d_22">
      <path d="M 134.515955 190.3975 
L 134.515955 139.92 
" clip-path="url(#p5238b255c4)" style="fill: none; stroke: #b0b0b0; stroke-width: 0.8; stroke-linecap: square"/>
     </g>
     <g id="line2d_23">
      <g>
       <use xlink:href="#md3eba24fb9" x="134.515955" y="190.3975" style="stroke: #000000; stroke-width: 0.8"/>
      </g>
     </g>
     <g id="text_14">
      <!-- 2 -->
      <g transform="translate(131.334705 204.995937)scale(0.1 -0.1)">
       <use xlink:href="#DejaVuSans-32"/>
      </g>
     </g>
    </g>
    <g id="xtick_10">
     <g id="line2d_24">
      <path d="M 193.112545 190.3975 
L 193.112545 139.92 
" clip-path="url(#p5238b255c4)" style="fill: none; stroke: #b0b0b0; stroke-width: 0.8; stroke-linecap: square"/>
     </g>
     <g id="line2d_25">
      <g>
       <use xlink:href="#md3eba24fb9" x="193.112545" y="190.3975" style="stroke: #000000; stroke-width: 0.8"/>
      </g>
     </g>
     <g id="text_15">
      <!-- 4 -->
      <g transform="translate(189.931295 204.995937)scale(0.1 -0.1)">
       <use xlink:href="#DejaVuSans-34"/>
      </g>
     </g>
    </g>
    <g id="xtick_11">
     <g id="line2d_26">
      <path d="M 251.709136 190.3975 
L 251.709136 139.92 
" clip-path="url(#p5238b255c4)" style="fill: none; stroke: #b0b0b0; stroke-width: 0.8; stroke-linecap: square"/>
     </g>
     <g id="line2d_27">
      <g>
       <use xlink:href="#md3eba24fb9" x="251.709136" y="190.3975" style="stroke: #000000; stroke-width: 0.8"/>
      </g>
     </g>
     <g id="text_16">
      <!-- 6 -->
      <g transform="translate(248.527886 204.995937)scale(0.1 -0.1)">
       <use xlink:href="#DejaVuSans-36"/>
      </g>
     </g>
    </g>
    <g id="xtick_12">
     <g id="line2d_28">
      <path d="M 310.305727 190.3975 
L 310.305727 139.92 
" clip-path="url(#p5238b255c4)" style="fill: none; stroke: #b0b0b0; stroke-width: 0.8; stroke-linecap: square"/>
     </g>
     <g id="line2d_29">
      <g>
       <use xlink:href="#md3eba24fb9" x="310.305727" y="190.3975" style="stroke: #000000; stroke-width: 0.8"/>
      </g>
     </g>
     <g id="text_17">
      <!-- 8 -->
      <g transform="translate(307.124477 204.995937)scale(0.1 -0.1)">
       <use xlink:href="#DejaVuSans-38"/>
      </g>
     </g>
    </g>
    <g id="xtick_13">
     <g id="line2d_30">
      <path d="M 368.902318 190.3975 
L 368.902318 139.92 
" clip-path="url(#p5238b255c4)" style="fill: none; stroke: #b0b0b0; stroke-width: 0.8; stroke-linecap: square"/>
     </g>
     <g id="line2d_31">
      <g>
       <use xlink:href="#md3eba24fb9" x="368.902318" y="190.3975" style="stroke: #000000; stroke-width: 0.8"/>
      </g>
     </g>
     <g id="text_18">
      <!-- 10 -->
      <g transform="translate(362.539818 204.995937)scale(0.1 -0.1)">
       <use xlink:href="#DejaVuSans-31"/>
       <use xlink:href="#DejaVuSans-30" x="63.623047"/>
      </g>
     </g>
    </g>
    <g id="xtick_14">
     <g id="line2d_32">
      <path d="M 427.498909 190.3975 
L 427.498909 139.92 
" clip-path="url(#p5238b255c4)" style="fill: none; stroke: #b0b0b0; stroke-width: 0.8; stroke-linecap: square"/>
     </g>
     <g id="line2d_33">
      <g>
       <use xlink:href="#md3eba24fb9" x="427.498909" y="190.3975" style="stroke: #000000; stroke-width: 0.8"/>
      </g>
     </g>
     <g id="text_19">
      <!-- 12 -->
      <g transform="translate(421.136409 204.995937)scale(0.1 -0.1)">
       <use xlink:href="#DejaVuSans-31"/>
       <use xlink:href="#DejaVuSans-32" x="63.623047"/>
      </g>
     </g>
    </g>
    <g id="text_20">
     <!-- $t$ [s] -->
     <g transform="translate(243.953 218.674062)scale(0.1 -0.1)">
      <use xlink:href="#DejaVuSans-Oblique-74" transform="translate(0 0.015625)"/>
      <use xlink:href="#DejaVuSans-20" transform="translate(39.208984 0.015625)"/>
      <use xlink:href="#DejaVuSans-5b" transform="translate(70.996094 0.015625)"/>
      <use xlink:href="#DejaVuSans-73" transform="translate(110.009766 0.015625)"/>
      <use xlink:href="#DejaVuSans-5d" transform="translate(162.109375 0.015625)"/>
     </g>
    </g>
   </g>
   <g id="matplotlib.axis_4">
    <g id="ytick_3">
     <g id="line2d_34">
      <path d="M 58.106 180.080953 
L 450 180.080953 
" clip-path="url(#p5238b255c4)" style="fill: none; stroke: #b0b0b0; stroke-width: 0.8; stroke-linecap: square"/>
     </g>
     <g id="line2d_35">
      <g>
       <use xlink:href="#m83e8f15d6b" x="58.106" y="180.080953" style="stroke: #000000; stroke-width: 0.8"/>
      </g>
     </g>
     <g id="text_21">
      <!-- −0.1 -->
      <g transform="translate(26.823188 183.880172)scale(0.1 -0.1)">
       <defs>
        <path id="DejaVuSans-2212" d="M 678 2272 
L 4684 2272 
L 4684 1741 
L 678 1741 
L 678 2272 
z
" transform="scale(0.015625)"/>
        <path id="DejaVuSans-2e" d="M 684 794 
L 1344 794 
L 1344 0 
L 684 0 
L 684 794 
z
" transform="scale(0.015625)"/>
       </defs>
       <use xlink:href="#DejaVuSans-2212"/>
       <use xlink:href="#DejaVuSans-30" x="83.789062"/>
       <use xlink:href="#DejaVuSans-2e" x="147.412109"/>
       <use xlink:href="#DejaVuSans-31" x="179.199219"/>
      </g>
     </g>
    </g>
    <g id="ytick_4">
     <g id="line2d_36">
      <path d="M 58.106 165.081998 
L 450 165.081998 
" clip-path="url(#p5238b255c4)" style="fill: none; stroke: #b0b0b0; stroke-width: 0.8; stroke-linecap: square"/>
     </g>
     <g id="line2d_37">
      <g>
       <use xlink:href="#m83e8f15d6b" x="58.106" y="165.081998" style="stroke: #000000; stroke-width: 0.8"/>
      </g>
     </g>
     <g id="text_22">
      <!-- 0.0 -->
      <g transform="translate(35.202875 168.881217)scale(0.1 -0.1)">
       <use xlink:href="#DejaVuSans-30"/>
       <use xlink:href="#DejaVuSans-2e" x="63.623047"/>
       <use xlink:href="#DejaVuSans-30" x="95.410156"/>
      </g>
     </g>
    </g>
    <g id="ytick_5">
     <g id="line2d_38">
      <path d="M 58.106 150.083044 
L 450 150.083044 
" clip-path="url(#p5238b255c4)" style="fill: none; stroke: #b0b0b0; stroke-width: 0.8; stroke-linecap: square"/>
     </g>
     <g id="line2d_39">
      <g>
       <use xlink:href="#m83e8f15d6b" x="58.106" y="150.083044" style="stroke: #000000; stroke-width: 0.8"/>
      </g>
     </g>
     <g id="text_23">
      <!-- 0.1 -->
      <g transform="translate(35.202875 153.882262)scale(0.1 -0.1)">
       <use xlink:href="#DejaVuSans-30"/>
       <use xlink:href="#DejaVuSans-2e" x="63.623047"/>
       <use xlink:href="#DejaVuSans-31" x="95.410156"/>
      </g>
     </g>
    </g>
    <g id="text_24">
     <!-- $e_z$ [m] -->
     <g transform="translate(20.7435 180.60875)rotate(-90)scale(0.1 -0.1)">
      <defs>
       <path id="DejaVuSans-Oblique-7a" d="M 744 3500 
L 3475 3500 
L 3372 2975 
L 738 459 
L 2913 459 
L 2822 0 
L -19 0 
L 84 525 
L 2719 3041 
L 653 3041 
L 744 3500 
z
" transform="scale(0.015625)"/>
      </defs>
      <use xlink:href="#DejaVuSans-Oblique-65" transform="translate(0 0.015625)"/>
      <use xlink:href="#DejaVuSans-Oblique-7a" transform="translate(61.523438 -16.390625)scale(0.7)"/>
      <use xlink:href="#DejaVuSans-20" transform="translate(101.000977 0.015625)"/>
      <use xlink:href="#DejaVuSans-5b" transform="translate(132.788086 0.015625)"/>
      <use xlink:href="#DejaVuSans-6d" transform="translate(171.801758 0.015625)"/>
      <use xlink:href="#DejaVuSans-5d" transform="translate(269.213867 0.015625)"/>
     </g>
    </g>
   </g>
   <g id="line2d_40">
    <path d="M 75.919364 166.533036 
L 78.851605 166.582394 
L 80.024501 166.797596 
L 80.610949 166.894492 
L 81.197397 166.951844 
L 82.07707 166.805455 
L 82.956742 166.329648 
L 83.836414 165.715884 
L 84.129638 165.358986 
L 87.355103 163.446495 
L 87.941551 162.702861 
L 88.821224 161.744285 
L 89.99412 159.640542 
L 90.873792 158.376447 
L 91.167016 157.768196 
L 92.633137 156.597362 
L 92.926361 156.597362 
L 93.512809 156.459937 
L 95.858602 156.255044 
L 97.324722 156.01399 
L 101.42986 155.61852 
L 103.482428 154.737349 
L 104.068877 154.389238 
L 104.655325 154.152672 
L 104.948549 153.844043 
L 105.241773 153.844043 
L 105.828221 153.420376 
L 106.414669 153.085436 
L 107.294342 152.007655 
L 107.587566 151.881117 
L 108.174014 151.348393 
L 108.760462 150.392792 
L 109.053686 150.013883 
L 109.640134 149.67135 
L 109.933358 149.467462 
L 110.226582 149.123551 
L 113.745272 147.30196 
L 114.624944 146.728231 
L 114.918168 146.415131 
L 115.211392 146.415131 
L 115.504616 146.130423 
L 117.263961 145.458747 
L 118.436857 145.184693 
L 119.316529 144.745499 
L 119.902978 144.422923 
L 121.369098 143.110189 
L 121.662322 142.927707 
L 121.955546 142.548232 
L 122.24877 142.548232 
L 122.541994 142.341593 
L 123.421667 142.214432 
L 124.594563 142.456922 
L 125.181011 142.658722 
L 125.474235 142.966719 
L 125.767459 142.966719 
L 126.353908 143.410927 
L 126.940356 143.7518 
L 127.23358 144.227942 
L 127.526804 144.227942 
L 127.820028 144.635359 
L 128.6997 145.252533 
L 129.286149 145.919583 
L 129.579373 146.174943 
L 130.165821 146.410408 
L 130.459045 146.557603 
L 131.338717 147.247964 
L 131.925165 147.463249 
L 132.218389 147.614717 
L 132.511614 147.946495 
L 132.804838 147.946495 
L 133.098062 148.537341 
L 133.391286 148.647541 
L 133.977734 149.121213 
L 134.857406 150.482619 
L 135.15063 150.625006 
L 135.737079 151.189699 
L 136.323527 152.108262 
L 136.616751 152.457039 
L 137.203199 152.773138 
L 137.496423 152.965401 
L 137.789647 153.309678 
L 138.669319 153.891976 
L 138.962544 154.097643 
L 139.255768 154.097643 
L 139.842216 154.548086 
L 140.721888 155.18207 
L 141.015112 155.384304 
L 141.308336 155.807763 
L 141.894785 156.348655 
L 142.188009 156.664574 
L 142.774457 156.965197 
L 143.360905 157.573419 
L 143.654129 157.785764 
L 144.533801 158.072587 
L 145.12025 158.330522 
L 148.05249 159.476518 
L 148.638939 159.951731 
L 149.225387 160.479237 
L 149.811835 160.752333 
L 150.105059 161.114047 
L 150.398283 161.114047 
L 150.691507 161.634025 
L 151.277955 161.881562 
L 151.57118 162.043411 
L 152.157628 162.527698 
L 153.0373 163.145861 
L 153.330524 163.343411 
L 153.916972 164.01537 
L 154.210196 164.269492 
L 154.503421 164.682222 
L 154.796645 165.293265 
L 155.089869 165.293265 
L 155.383093 165.969616 
L 156.262765 167.094071 
L 157.435661 169.310909 
L 158.315334 170.644636 
L 158.608558 171.33535 
L 161.247575 174.114124 
L 161.540799 174.346218 
L 161.834023 174.813517 
L 162.127247 174.813517 
L 162.420471 175.523531 
L 163.006919 175.875386 
L 163.300143 176.107227 
L 163.593367 176.565643 
L 163.886591 176.565643 
L 164.179816 177.228376 
L 164.766264 177.541017 
L 165.059488 177.740171 
L 165.352712 178.110919 
L 165.645936 178.110919 
L 165.93916 178.574179 
L 166.818832 178.853833 
L 167.405281 179.058949 
L 168.578177 179.196203 
L 170.337522 179.548411 
L 170.92397 179.839456 
L 171.510418 180.098542 
L 171.803642 180.283001 
L 172.096866 180.283001 
L 172.683314 180.476355 
L 173.562987 180.528927 
L 176.202003 180.47144 
L 176.788452 180.662647 
L 177.081676 180.83909 
L 177.3749 180.83909 
L 177.961348 181.0549 
L 178.84102 181.134645 
L 180.600365 180.713544 
L 181.480037 180.442503 
L 182.359709 180.412759 
L 182.946158 180.60993 
L 183.532606 180.836587 
L 184.705502 181.604836 
L 185.878398 182.014732 
L 187.051295 181.925916 
L 190.27676 181.066841 
L 191.74288 181.768476 
L 192.329328 182.284446 
L 192.915777 182.53517 
L 194.381897 183.301198 
L 197.020914 183.401051 
L 197.900586 183.48415 
L 198.19381 183.625287 
L 198.487034 183.625287 
L 199.073483 183.978735 
L 199.659931 184.383513 
L 199.953155 184.732392 
L 200.246379 184.732392 
L 200.539603 185.073172 
L 202.005724 185.849434 
L 203.17862 185.959203 
L 204.64474 185.760302 
L 205.817637 185.70663 
L 206.697309 185.868942 
L 209.62955 187.020805 
L 210.509222 187.015392 
L 212.855015 186.419496 
L 213.734687 186.398424 
L 216.08048 187.15422 
L 216.666928 187.344914 
L 217.5466 187.400412 
L 218.426273 187.204262 
L 219.305945 186.935005 
L 219.892393 186.699445 
L 221.358514 186.384726 
L 222.238186 186.46935 
L 223.117858 186.77076 
L 223.704306 187.115988 
L 225.463651 187.763406 
L 226.050099 187.781315 
L 229.275564 186.977423 
L 230.155236 186.97686 
L 233.673926 188.038711 
L 234.846822 187.854539 
L 235.140046 187.689865 
L 235.43327 187.689865 
L 235.726494 187.375228 
L 236.606166 187.111639 
L 237.192615 186.908147 
L 237.779063 186.899806 
L 239.245183 187.319518 
L 240.41808 187.893844 
L 241.590976 188.103068 
L 242.763872 187.915718 
L 243.350321 187.716777 
L 243.936769 187.420923 
L 245.402889 186.971617 
L 246.282562 186.997445 
L 247.748682 187.426957 
L 249.508027 187.804532 
L 250.094475 187.76417 
L 250.680923 187.645978 
L 251.560595 187.418759 
L 254.199612 186.956361 
L 259.77087 186.811945 
L 261.23699 186.810991 
L 262.996335 186.307908 
L 263.582783 186.028765 
L 264.462455 185.696045 
L 266.2218 185.176875 
L 267.101472 185.206965 
L 268.860817 185.456572 
L 270.033713 185.389503 
L 272.67273 184.184685 
L 273.259178 183.940463 
L 275.018523 183.243886 
L 275.898195 183.24253 
L 276.484643 183.416617 
L 278.830436 183.811524 
L 280.296556 183.356977 
L 281.176229 183.022308 
L 281.469453 182.697638 
L 282.349125 182.440325 
L 282.935573 182.162508 
L 283.522021 181.991053 
L 284.694918 181.996855 
L 285.281366 182.178964 
L 287.627159 182.641605 
L 288.506831 182.403927 
L 289.093279 182.254655 
L 289.972951 181.818878 
L 290.5594 181.547588 
L 291.732296 181.325438 
L 292.318744 181.215357 
L 293.49164 181.309264 
L 295.250985 181.590269 
L 296.423881 181.606155 
L 298.183226 181.107865 
L 298.47645 180.935439 
L 298.769674 180.935439 
L 299.062898 180.747753 
L 301.995139 180.627348 
L 304.340932 180.730091 
L 305.807052 180.599008 
L 307.566397 180.397734 
L 308.739293 180.44204 
L 309.91219 180.634129 
L 312.257982 180.770367 
L 315.776672 180.628682 
L 316.949568 180.559766 
L 320.175033 180.705435 
L 321.641153 181.005064 
L 322.520826 181.163358 
L 323.986946 181.327048 
L 325.159842 181.171562 
L 326.625963 181.010509 
L 328.678532 180.942685 
L 329.558204 181.146246 
L 330.144652 181.375971 
L 332.783669 181.967156 
L 334.543013 181.742525 
L 335.422686 181.638672 
L 337.475254 181.630411 
L 338.354927 181.800225 
L 338.941375 181.99196 
L 342.16684 182.636195 
L 346.858425 182.748371 
L 347.738098 182.93089 
L 349.204218 183.254306 
L 349.497442 183.431114 
L 349.790666 183.431114 
L 350.08389 183.750376 
L 350.963563 184.019305 
L 351.550011 184.271384 
L 352.429683 184.414324 
L 353.309355 184.394252 
L 353.895804 184.24295 
L 356.53482 183.806194 
L 358.000941 184.026294 
L 358.880613 184.270655 
L 359.760285 184.319352 
L 360.639958 184.133414 
L 361.51963 183.715739 
L 362.106078 183.216362 
L 362.692526 182.769279 
L 362.98575 182.450209 
L 363.278975 182.450209 
L 363.572199 182.190469 
L 364.745095 181.854807 
L 366.211215 181.596053 
L 366.50444 181.409106 
L 366.797664 181.409106 
L 367.384112 180.960033 
L 367.97056 180.546835 
L 369.143456 179.20847 
L 370.023129 178.47896 
L 370.316353 178.149643 
L 371.196025 177.82618 
L 371.782473 177.709013 
L 373.541818 177.641826 
L 375.301162 176.781715 
L 376.180835 175.950551 
L 377.353731 175.41535 
L 378.526627 175.389544 
L 379.4063 175.345571 
L 380.285972 175.08944 
L 380.87242 174.691733 
L 381.458868 174.021062 
L 382.045316 173.523729 
L 382.338541 173.060295 
L 382.631765 173.060295 
L 382.924989 172.493946 
L 383.804661 172.166093 
L 384.391109 171.986218 
L 385.270782 172.07828 
L 387.32335 172.596731 
L 388.496247 172.190644 
L 388.789471 171.933784 
L 389.375919 171.266189 
L 390.842039 169.973479 
L 391.135263 169.586379 
L 392.014936 169.19612 
L 392.601384 169.070158 
L 393.77428 169.218534 
L 394.653952 169.433253 
L 395.533625 169.326249 
L 395.826849 169.118313 
L 396.120073 169.118313 
L 396.706521 168.601089 
L 397.292969 168.036509 
L 397.586193 167.583258 
L 398.75909 166.865247 
L 399.638762 166.563201 
L 400.518434 166.65999 
L 401.104883 166.864109 
L 401.691331 167.111167 
L 402.571003 167.200437 
L 403.157451 167.014281 
L 404.037123 166.580984 
L 404.330348 166.383262 
L 404.623572 165.837743 
L 404.916796 165.837743 
L 405.21002 165.450339 
L 406.382916 164.925305 
L 407.262588 164.973514 
L 408.142261 165.261863 
L 409.021933 165.742241 
L 409.901605 165.853551 
L 411.074502 165.432344 
L 411.66095 164.971315 
L 411.954174 164.573884 
L 413.713519 163.492441 
L 414.593191 163.404933 
L 415.472863 163.524104 
L 416.938984 163.706241 
L 418.11188 163.400601 
L 418.405104 163.270045 
L 418.698328 162.881127 
L 418.991552 162.881127 
L 419.284776 162.570828 
L 420.164449 162.244743 
L 420.750897 162.168112 
L 421.923793 162.407628 
L 422.803465 162.690377 
L 423.683138 162.641107 
L 423.976362 162.478034 
L 424.269586 162.478034 
L 424.856034 162.052873 
L 425.442482 161.581488 
L 425.735706 161.213514 
L 426.02893 161.213514 
L 426.322155 160.869689 
L 427.788275 160.153577 
L 428.374723 160.08959 
L 429.54762 160.474917 
L 430.134068 161.028087 
L 430.720516 161.650257 
L 431.306964 161.939929 
L 431.600188 162.270342 
L 432.186636 162.570272 
L 432.186636 162.570272 
" clip-path="url(#p5238b255c4)" style="fill: none; stroke: #0000ff; stroke-width: 1.5; stroke-linecap: square"/>
   </g>
   <g id="patch_8">
    <path d="M 58.106 190.3975 
L 58.106 139.92 
" style="fill: none; stroke: #000000; stroke-width: 0.8; stroke-linejoin: miter; stroke-linecap: square"/>
   </g>
   <g id="patch_9">
    <path d="M 450 190.3975 
L 450 139.92 
" style="fill: none; stroke: #000000; stroke-width: 0.8; stroke-linejoin: miter; stroke-linecap: square"/>
   </g>
   <g id="patch_10">
    <path d="M 58.106 190.3975 
L 450 190.3975 
" style="fill: none; stroke: #000000; stroke-width: 0.8; stroke-linejoin: miter; stroke-linecap: square"/>
   </g>
   <g id="patch_11">
    <path d="M 58.106 139.92 
L 450 139.92 
" style="fill: none; stroke: #000000; stroke-width: 0.8; stroke-linejoin: miter; stroke-linecap: square"/>
   </g>
   <g id="text_25">
    <!-- Error in $z$-position -->
    <g transform="translate(200.773 133.92)scale(0.12 -0.12)">
     <use xlink:href="#DejaVuSans-45" transform="translate(0 0.015625)"/>
     <use xlink:href="#DejaVuSans-72" transform="translate(63.183594 0.015625)"/>
     <use xlink:href="#DejaVuSans-72" transform="translate(104.296875 0.015625)"/>
     <use xlink:href="#DejaVuSans-6f" transform="translate(145.410156 0.015625)"/>
     <use xlink:href="#DejaVuSans-72" transform="translate(206.591797 0.015625)"/>
     <use xlink:href="#DejaVuSans-20" transform="translate(247.705078 0.015625)"/>
     <use xlink:href="#DejaVuSans-69" transform="translate(279.492188 0.015625)"/>
     <use xlink:href="#DejaVuSans-6e" transform="translate(307.275391 0.015625)"/>
     <use xlink:href="#DejaVuSans-20" transform="translate(370.654297 0.015625)"/>
     <use xlink:href="#DejaVuSans-Oblique-7a" transform="translate(402.441406 0.015625)"/>
     <use xlink:href="#DejaVuSans-2d" transform="translate(454.931641 0.015625)"/>
     <use xlink:href="#DejaVuSans-70" transform="translate(491.015625 0.015625)"/>
     <use xlink:href="#DejaVuSans-6f" transform="translate(554.492188 0.015625)"/>
     <use xlink:href="#DejaVuSans-73" transform="translate(615.673828 0.015625)"/>
     <use xlink:href="#DejaVuSans-69" transform="translate(667.773438 0.015625)"/>
     <use xlink:href="#DejaVuSans-74" transform="translate(695.556641 0.015625)"/>
     <use xlink:href="#DejaVuSans-69" transform="translate(734.765625 0.015625)"/>
     <use xlink:href="#DejaVuSans-6f" transform="translate(762.548828 0.015625)"/>
     <use xlink:href="#DejaVuSans-6e" transform="translate(823.730469 0.015625)"/>
    </g>
   </g>
  </g>
  <g id="axes_3">
   <g id="patch_12">
    <path d="M 58.106 301.9975 
L 450 301.9975 
L 450 251.52 
L 58.106 251.52 
z
" style="fill: #ffffff"/>
   </g>
   <g id="matplotlib.axis_5">
    <g id="xtick_15">
     <g id="line2d_41">
      <path d="M 75.919364 301.9975 
L 75.919364 251.52 
" clip-path="url(#pe8b0926109)" style="fill: none; stroke: #b0b0b0; stroke-width: 0.8; stroke-linecap: square"/>
     </g>
     <g id="line2d_42">
      <g>
       <use xlink:href="#md3eba24fb9" x="75.919364" y="301.9975" style="stroke: #000000; stroke-width: 0.8"/>
      </g>
     </g>
     <g id="text_26">
      <!-- 0 -->
      <g transform="translate(72.738114 316.595937)scale(0.1 -0.1)">
       <use xlink:href="#DejaVuSans-30"/>
      </g>
     </g>
    </g>
    <g id="xtick_16">
     <g id="line2d_43">
      <path d="M 134.515955 301.9975 
L 134.515955 251.52 
" clip-path="url(#pe8b0926109)" style="fill: none; stroke: #b0b0b0; stroke-width: 0.8; stroke-linecap: square"/>
     </g>
     <g id="line2d_44">
      <g>
       <use xlink:href="#md3eba24fb9" x="134.515955" y="301.9975" style="stroke: #000000; stroke-width: 0.8"/>
      </g>
     </g>
     <g id="text_27">
      <!-- 2 -->
      <g transform="translate(131.334705 316.595937)scale(0.1 -0.1)">
       <use xlink:href="#DejaVuSans-32"/>
      </g>
     </g>
    </g>
    <g id="xtick_17">
     <g id="line2d_45">
      <path d="M 193.112545 301.9975 
L 193.112545 251.52 
" clip-path="url(#pe8b0926109)" style="fill: none; stroke: #b0b0b0; stroke-width: 0.8; stroke-linecap: square"/>
     </g>
     <g id="line2d_46">
      <g>
       <use xlink:href="#md3eba24fb9" x="193.112545" y="301.9975" style="stroke: #000000; stroke-width: 0.8"/>
      </g>
     </g>
     <g id="text_28">
      <!-- 4 -->
      <g transform="translate(189.931295 316.595937)scale(0.1 -0.1)">
       <use xlink:href="#DejaVuSans-34"/>
      </g>
     </g>
    </g>
    <g id="xtick_18">
     <g id="line2d_47">
      <path d="M 251.709136 301.9975 
L 251.709136 251.52 
" clip-path="url(#pe8b0926109)" style="fill: none; stroke: #b0b0b0; stroke-width: 0.8; stroke-linecap: square"/>
     </g>
     <g id="line2d_48">
      <g>
       <use xlink:href="#md3eba24fb9" x="251.709136" y="301.9975" style="stroke: #000000; stroke-width: 0.8"/>
      </g>
     </g>
     <g id="text_29">
      <!-- 6 -->
      <g transform="translate(248.527886 316.595937)scale(0.1 -0.1)">
       <use xlink:href="#DejaVuSans-36"/>
      </g>
     </g>
    </g>
    <g id="xtick_19">
     <g id="line2d_49">
      <path d="M 310.305727 301.9975 
L 310.305727 251.52 
" clip-path="url(#pe8b0926109)" style="fill: none; stroke: #b0b0b0; stroke-width: 0.8; stroke-linecap: square"/>
     </g>
     <g id="line2d_50">
      <g>
       <use xlink:href="#md3eba24fb9" x="310.305727" y="301.9975" style="stroke: #000000; stroke-width: 0.8"/>
      </g>
     </g>
     <g id="text_30">
      <!-- 8 -->
      <g transform="translate(307.124477 316.595937)scale(0.1 -0.1)">
       <use xlink:href="#DejaVuSans-38"/>
      </g>
     </g>
    </g>
    <g id="xtick_20">
     <g id="line2d_51">
      <path d="M 368.902318 301.9975 
L 368.902318 251.52 
" clip-path="url(#pe8b0926109)" style="fill: none; stroke: #b0b0b0; stroke-width: 0.8; stroke-linecap: square"/>
     </g>
     <g id="line2d_52">
      <g>
       <use xlink:href="#md3eba24fb9" x="368.902318" y="301.9975" style="stroke: #000000; stroke-width: 0.8"/>
      </g>
     </g>
     <g id="text_31">
      <!-- 10 -->
      <g transform="translate(362.539818 316.595937)scale(0.1 -0.1)">
       <use xlink:href="#DejaVuSans-31"/>
       <use xlink:href="#DejaVuSans-30" x="63.623047"/>
      </g>
     </g>
    </g>
    <g id="xtick_21">
     <g id="line2d_53">
      <path d="M 427.498909 301.9975 
L 427.498909 251.52 
" clip-path="url(#pe8b0926109)" style="fill: none; stroke: #b0b0b0; stroke-width: 0.8; stroke-linecap: square"/>
     </g>
     <g id="line2d_54">
      <g>
       <use xlink:href="#md3eba24fb9" x="427.498909" y="301.9975" style="stroke: #000000; stroke-width: 0.8"/>
      </g>
     </g>
     <g id="text_32">
      <!-- 12 -->
      <g transform="translate(421.136409 316.595937)scale(0.1 -0.1)">
       <use xlink:href="#DejaVuSans-31"/>
       <use xlink:href="#DejaVuSans-32" x="63.623047"/>
      </g>
     </g>
    </g>
    <g id="text_33">
     <!-- $t$ [s] -->
     <g transform="translate(243.953 330.274063)scale(0.1 -0.1)">
      <use xlink:href="#DejaVuSans-Oblique-74" transform="translate(0 0.015625)"/>
      <use xlink:href="#DejaVuSans-20" transform="translate(39.208984 0.015625)"/>
      <use xlink:href="#DejaVuSans-5b" transform="translate(70.996094 0.015625)"/>
      <use xlink:href="#DejaVuSans-73" transform="translate(110.009766 0.015625)"/>
      <use xlink:href="#DejaVuSans-5d" transform="translate(162.109375 0.015625)"/>
     </g>
    </g>
   </g>
   <g id="matplotlib.axis_6">
    <g id="ytick_6">
     <g id="line2d_55">
      <path d="M 58.106 288.922576 
L 450 288.922576 
" clip-path="url(#pe8b0926109)" style="fill: none; stroke: #b0b0b0; stroke-width: 0.8; stroke-linecap: square"/>
     </g>
     <g id="line2d_56">
      <g>
       <use xlink:href="#m83e8f15d6b" x="58.106" y="288.922576" style="stroke: #000000; stroke-width: 0.8"/>
      </g>
     </g>
     <g id="text_34">
      <!-- −0.1 -->
      <g transform="translate(26.823188 292.721795)scale(0.1 -0.1)">
       <use xlink:href="#DejaVuSans-2212"/>
       <use xlink:href="#DejaVuSans-30" x="83.789062"/>
       <use xlink:href="#DejaVuSans-2e" x="147.412109"/>
       <use xlink:href="#DejaVuSans-31" x="179.199219"/>
      </g>
     </g>
    </g>
    <g id="ytick_7">
     <g id="line2d_57">
      <path d="M 58.106 274.453301 
L 450 274.453301 
" clip-path="url(#pe8b0926109)" style="fill: none; stroke: #b0b0b0; stroke-width: 0.8; stroke-linecap: square"/>
     </g>
     <g id="line2d_58">
      <g>
       <use xlink:href="#m83e8f15d6b" x="58.106" y="274.453301" style="stroke: #000000; stroke-width: 0.8"/>
      </g>
     </g>
     <g id="text_35">
      <!-- 0.0 -->
      <g transform="translate(35.202875 278.25252)scale(0.1 -0.1)">
       <use xlink:href="#DejaVuSans-30"/>
       <use xlink:href="#DejaVuSans-2e" x="63.623047"/>
       <use xlink:href="#DejaVuSans-30" x="95.410156"/>
      </g>
     </g>
    </g>
    <g id="ytick_8">
     <g id="line2d_59">
      <path d="M 58.106 259.984026 
L 450 259.984026 
" clip-path="url(#pe8b0926109)" style="fill: none; stroke: #b0b0b0; stroke-width: 0.8; stroke-linecap: square"/>
     </g>
     <g id="line2d_60">
      <g>
       <use xlink:href="#m83e8f15d6b" x="58.106" y="259.984026" style="stroke: #000000; stroke-width: 0.8"/>
      </g>
     </g>
     <g id="text_36">
      <!-- 0.1 -->
      <g transform="translate(35.202875 263.783245)scale(0.1 -0.1)">
       <use xlink:href="#DejaVuSans-30"/>
       <use xlink:href="#DejaVuSans-2e" x="63.623047"/>
       <use xlink:href="#DejaVuSans-31" x="95.410156"/>
      </g>
     </g>
    </g>
    <g id="text_37">
     <!-- $e_\theta$ [rad] -->
     <g transform="translate(20.7435 295.90875)rotate(-90)scale(0.1 -0.1)">
      <defs>
       <path id="DejaVuSans-Oblique-3b8" d="M 2913 2219 
L 925 2219 
Q 791 1284 928 888 
Q 1100 400 1566 400 
Q 2034 400 2391 891 
Q 2703 1322 2913 2219 
z
M 3009 2750 
Q 3094 3638 2984 3950 
Q 2813 4444 2353 4444 
Q 1875 4444 1525 3956 
Q 1250 3563 1034 2750 
L 3009 2750 
z
M 2444 4913 
Q 3194 4913 3494 4250 
Q 3794 3591 3566 2422 
Q 3341 1256 2781 594 
Q 2225 -72 1475 -72 
Q 722 -72 425 594 
Q 128 1256 353 2422 
Q 581 3591 1134 4250 
Q 1691 4913 2444 4913 
z
" transform="scale(0.015625)"/>
       <path id="DejaVuSans-61" d="M 2194 1759 
Q 1497 1759 1228 1600 
Q 959 1441 959 1056 
Q 959 750 1161 570 
Q 1363 391 1709 391 
Q 2188 391 2477 730 
Q 2766 1069 2766 1631 
L 2766 1759 
L 2194 1759 
z
M 3341 1997 
L 3341 0 
L 2766 0 
L 2766 531 
Q 2569 213 2275 61 
Q 1981 -91 1556 -91 
Q 1019 -91 701 211 
Q 384 513 384 1019 
Q 384 1609 779 1909 
Q 1175 2209 1959 2209 
L 2766 2209 
L 2766 2266 
Q 2766 2663 2505 2880 
Q 2244 3097 1772 3097 
Q 1472 3097 1187 3025 
Q 903 2953 641 2809 
L 641 3341 
Q 956 3463 1253 3523 
Q 1550 3584 1831 3584 
Q 2591 3584 2966 3190 
Q 3341 2797 3341 1997 
z
" transform="scale(0.015625)"/>
       <path id="DejaVuSans-64" d="M 2906 2969 
L 2906 4863 
L 3481 4863 
L 3481 0 
L 2906 0 
L 2906 525 
Q 2725 213 2448 61 
Q 2172 -91 1784 -91 
Q 1150 -91 751 415 
Q 353 922 353 1747 
Q 353 2572 751 3078 
Q 1150 3584 1784 3584 
Q 2172 3584 2448 3432 
Q 2725 3281 2906 2969 
z
M 947 1747 
Q 947 1113 1208 752 
Q 1469 391 1925 391 
Q 2381 391 2643 752 
Q 2906 1113 2906 1747 
Q 2906 2381 2643 2742 
Q 2381 3103 1925 3103 
Q 1469 3103 1208 2742 
Q 947 2381 947 1747 
z
" transform="scale(0.015625)"/>
      </defs>
      <use xlink:href="#DejaVuSans-Oblique-65" transform="translate(0 0.015625)"/>
      <use xlink:href="#DejaVuSans-Oblique-3b8" transform="translate(61.523438 -16.390625)scale(0.7)"/>
      <use xlink:href="#DejaVuSans-20" transform="translate(107.084961 0.015625)"/>
      <use xlink:href="#DejaVuSans-5b" transform="translate(138.87207 0.015625)"/>
      <use xlink:href="#DejaVuSans-72" transform="translate(177.885742 0.015625)"/>
      <use xlink:href="#DejaVuSans-61" transform="translate(218.999023 0.015625)"/>
      <use xlink:href="#DejaVuSans-64" transform="translate(280.27832 0.015625)"/>
      <use xlink:href="#DejaVuSans-5d" transform="translate(343.754883 0.015625)"/>
     </g>
    </g>
   </g>
   <g id="line2d_61">
    <path d="M 75.919364 274.498415 
L 76.505812 274.584715 
L 76.799036 274.216177 
L 78.265156 267.441404 
L 79.144829 260.692924 
L 80.317725 255.532256 
L 80.610949 255.532256 
L 80.904173 255.227626 
L 81.197397 255.394417 
L 81.490621 255.775829 
L 81.783845 256.380027 
L 82.07707 257.709095 
L 82.370294 260.220693 
L 83.249966 265.251254 
L 83.54319 267.185526 
L 83.836414 270.294546 
L 84.129638 274.725884 
L 85.595759 286.829824 
L 85.888983 290.688755 
L 86.768655 295.479616 
L 87.648327 299.506375 
L 87.941551 299.703068 
L 88.234776 299.658875 
L 88.528 299.394486 
L 88.821224 298.90611 
L 89.114448 297.703965 
L 89.700896 293.411119 
L 90.580568 287.201216 
L 91.753465 274.594737 
L 92.046689 272.472108 
L 92.633137 265.857805 
L 92.926361 265.857805 
L 93.219585 262.780517 
L 93.806033 260.341276 
L 94.392481 258.558364 
L 94.685706 258.256964 
L 94.97893 258.39639 
L 95.565378 259.058665 
L 95.858602 259.506094 
L 97.031498 262.223799 
L 97.911171 263.832875 
L 98.204395 264.685614 
L 99.670515 266.698323 
L 99.963739 267.330625 
L 101.42986 268.859699 
L 101.723084 269.365673 
L 102.016308 270.126799 
L 102.89598 271.503243 
L 103.189204 272.030433 
L 103.482428 272.897975 
L 103.775652 274.214548 
L 104.655325 276.496533 
L 104.948549 278.595329 
L 105.241773 278.595329 
L 105.534997 280.36083 
L 106.414669 283.051634 
L 107.001117 285.735814 
L 107.294342 286.506427 
L 108.174014 286.982617 
L 108.467238 286.410647 
L 108.760462 285.399523 
L 109.053686 283.98626 
L 109.34691 283.442933 
L 109.933358 281.052047 
L 110.226582 278.509934 
L 110.519807 277.226342 
L 111.399479 271.934588 
L 111.692703 271.934588 
L 111.985927 270.211221 
L 112.572375 269.293423 
L 112.865599 269.279031 
L 113.158823 270.145653 
L 113.452048 270.145653 
L 114.038496 272.840647 
L 114.33172 273.913275 
L 114.918168 277.367512 
L 115.211392 277.367512 
L 115.504616 278.720505 
L 116.091064 279.450729 
L 116.384288 279.525714 
L 116.677513 279.263949 
L 117.263961 277.576744 
L 118.143633 274.93186 
L 119.023305 270.687284 
L 120.78265 265.9316 
L 121.662322 264.200735 
L 121.955546 262.393347 
L 122.24877 262.393347 
L 122.541994 260.820103 
L 123.714891 257.643696 
L 124.008115 257.643696 
L 124.301339 257.513366 
L 124.594563 257.718692 
L 125.181011 258.611249 
L 125.474235 260.383585 
L 125.767459 260.383585 
L 126.060684 261.994854 
L 127.23358 265.231745 
L 127.526804 265.231745 
L 127.820028 265.547566 
L 128.406476 265.447945 
L 128.6997 265.265956 
L 129.579373 263.390986 
L 129.872597 263.17935 
L 130.752269 262.048301 
L 131.045493 262.023522 
L 132.218389 262.796545 
L 132.511614 263.446281 
L 132.804838 263.446281 
L 133.098062 264.573941 
L 133.391286 264.769065 
L 133.977734 265.549112 
L 134.564182 266.776677 
L 134.857406 267.249168 
L 135.15063 267.404396 
L 135.737079 268.049993 
L 136.616751 270.329932 
L 136.909975 270.638026 
L 137.496423 271.977595 
L 137.789647 273.366704 
L 138.082871 274.045399 
L 138.962544 276.91191 
L 139.255768 276.91191 
L 139.548992 277.997132 
L 140.721888 279.789957 
L 141.015112 280.072258 
L 141.308336 280.533486 
L 142.188009 280.997324 
L 142.774457 281.024106 
L 143.360905 280.729114 
L 143.654129 280.430859 
L 143.947353 280.30831 
L 144.533801 279.700781 
L 144.827025 278.94408 
L 145.12025 278.541475 
L 145.706698 277.303839 
L 145.999922 277.100969 
L 146.293146 276.716899 
L 146.58637 276.067852 
L 147.172818 275.445796 
L 147.466042 275.084041 
L 147.759266 274.953088 
L 148.05249 274.672349 
L 149.811835 270.494077 
L 150.105059 268.482556 
L 150.398283 268.482556 
L 150.691507 264.996527 
L 150.984731 264.379521 
L 151.57118 261.927336 
L 151.864404 259.752255 
L 153.0373 256.343704 
L 153.330524 255.794065 
L 153.623748 254.95847 
L 154.503421 254.160827 
L 154.796645 253.911855 
L 156.262765 253.97817 
L 156.555989 254.183384 
L 157.142437 254.758448 
L 158.02211 255.445949 
L 160.074678 258.164606 
L 160.367902 258.893952 
L 160.661126 259.949459 
L 161.540799 261.563705 
L 161.834023 262.558861 
L 162.127247 262.558861 
L 162.420471 263.631951 
L 163.593367 264.087111 
L 163.886591 264.087111 
L 164.179816 263.581647 
L 164.766264 263.260334 
L 165.352712 262.803812 
L 165.645936 262.803812 
L 166.525608 263.308798 
L 166.818832 263.656986 
L 167.112056 264.582009 
L 167.405281 265.130883 
L 167.991729 266.843631 
L 168.284953 267.108805 
L 169.164625 268.377712 
L 169.457849 268.416647 
L 171.217194 267.802271 
L 171.510418 267.935752 
L 171.803642 268.501842 
L 172.096866 268.501842 
L 172.976538 272.057352 
L 173.269762 273.874497 
L 173.562987 274.516847 
L 173.856211 275.816678 
L 174.149435 278.324844 
L 175.029107 281.435003 
L 175.615555 281.753116 
L 176.202003 280.958461 
L 176.495227 280.342419 
L 176.788452 279.225371 
L 177.081676 277.533525 
L 177.3749 277.533525 
L 177.668124 275.914143 
L 178.254572 274.557959 
L 178.84102 273.759799 
L 179.427468 274.495266 
L 180.307141 276.354618 
L 181.186813 278.125165 
L 181.480037 277.999364 
L 181.773261 277.673853 
L 182.359709 276.53195 
L 182.652933 275.352889 
L 182.946158 273.561596 
L 183.82583 270.367795 
L 184.119054 268.914097 
L 184.412278 268.473813 
L 184.705502 268.273524 
L 184.998726 268.326849 
L 185.29195 268.885606 
L 185.878398 271.442516 
L 186.171623 271.442516 
L 186.464847 273.751225 
L 187.344519 277.347263 
L 187.637743 278.00352 
L 187.930967 278.00352 
L 188.517415 276.491821 
L 189.690312 270.305491 
L 189.983536 266.997746 
L 190.27676 266.997746 
L 190.569984 262.219295 
L 190.863208 261.484704 
L 192.036104 256.181743 
L 192.329328 256.221601 
L 192.622553 256.390246 
L 192.915777 256.944021 
L 193.209001 257.775157 
L 193.502225 260.145597 
L 193.795449 261.591415 
L 194.381897 266.407766 
L 194.675121 267.223442 
L 194.968345 268.791476 
L 195.261569 271.403952 
L 195.848018 273.076477 
L 196.141242 273.064802 
L 196.434466 272.900164 
L 196.72769 272.339314 
L 197.314138 269.267887 
L 197.607362 267.939455 
L 198.19381 263.070468 
L 198.487034 263.070468 
L 198.780259 260.484361 
L 199.659931 257.160763 
L 199.953155 256.750018 
L 200.246379 256.750018 
L 201.126051 259.694209 
L 201.419275 261.068255 
L 201.712499 263.428786 
L 202.005724 266.877971 
L 203.471844 275.213767 
L 203.765068 276.447731 
L 204.058292 276.531045 
L 204.351516 276.285802 
L 204.64474 275.74361 
L 204.937964 274.951524 
L 205.231189 272.254081 
L 205.524413 272.254081 
L 205.817637 269.70119 
L 206.990533 264.353275 
L 207.283757 262.768906 
L 207.576981 262.297645 
L 207.870205 262.103875 
L 208.163429 262.192368 
L 208.456654 262.866587 
L 209.043102 266.020422 
L 210.215998 272.408125 
L 210.802446 277.453022 
L 211.388895 279.246756 
L 211.682119 279.749762 
L 211.975343 279.966056 
L 212.268567 279.884592 
L 212.561791 279.244804 
L 213.148239 276.582281 
L 213.734687 274.271031 
L 214.321135 270.093068 
L 214.61436 268.440444 
L 214.907584 267.938673 
L 215.494032 266.260291 
L 215.787256 265.729341 
L 216.08048 265.498859 
L 216.960152 268.140648 
L 217.5466 270.751867 
L 218.426273 277.293925 
L 219.305945 280.560794 
L 219.599169 280.848793 
L 219.892393 280.512896 
L 220.478841 279.01719 
L 221.06529 276.679192 
L 221.358514 274.600428 
L 221.651738 271.603394 
L 223.117858 263.603988 
L 223.411082 261.592785 
L 223.704306 260.971749 
L 223.99753 260.663274 
L 224.290755 260.669418 
L 224.583979 261.593754 
L 226.050099 268.7265 
L 226.343323 272.566099 
L 226.636547 272.566099 
L 226.929771 274.88423 
L 227.51622 276.174404 
L 227.809444 276.35311 
L 228.102668 276.206653 
L 228.395892 275.404703 
L 228.98234 272.228708 
L 229.568788 269.498883 
L 229.862012 265.906972 
L 230.155236 265.906972 
L 230.448461 263.213584 
L 231.621357 258.416412 
L 231.914581 258.416412 
L 232.207805 258.909471 
L 232.794253 260.669459 
L 233.087477 261.931203 
L 233.380701 265.848159 
L 233.673926 265.848159 
L 233.96715 269.294083 
L 235.140046 275.915468 
L 235.726494 275.984578 
L 236.019718 275.710318 
L 236.606166 274.032965 
L 236.899391 271.737495 
L 237.192615 270.473766 
L 238.072287 264.983132 
L 238.365511 264.983132 
L 238.658735 262.930609 
L 239.245183 261.394911 
L 239.538407 260.895597 
L 239.831632 261.30464 
L 240.41808 262.911093 
L 241.004528 265.465319 
L 241.297752 266.98769 
L 242.177424 274.40748 
L 242.763872 277.203709 
L 243.350321 279.176651 
L 243.643545 279.156794 
L 243.936769 278.643992 
L 244.523217 276.829697 
L 244.816441 275.659237 
L 245.109665 273.683817 
L 245.402889 270.922111 
L 246.575786 265.112674 
L 246.86901 263.122693 
L 247.455458 262.058075 
L 247.748682 261.947559 
L 248.041906 262.141683 
L 248.33513 262.648815 
L 248.628354 263.956671 
L 248.921578 266.540392 
L 250.094475 273.239319 
L 250.387699 277.148778 
L 250.680923 277.148778 
L 250.974147 279.225716 
L 251.267371 279.777638 
L 251.560595 279.992013 
L 251.853819 279.870214 
L 252.147043 278.711467 
L 252.440267 278.711467 
L 252.733492 275.337874 
L 253.026716 274.651397 
L 253.613164 271.758084 
L 254.492836 265.419099 
L 255.372508 262.00059 
L 255.665733 261.605737 
L 255.958957 261.605737 
L 256.545405 263.534046 
L 257.131853 267.717719 
L 257.425077 270.258896 
L 257.718301 270.258896 
L 258.011525 273.716897 
L 259.184422 279.926373 
L 259.77087 279.919493 
L 260.064094 279.447768 
L 261.23699 274.509005 
L 261.530214 271.482875 
L 261.823438 269.943196 
L 262.409887 265.43534 
L 262.703111 264.745219 
L 262.996335 263.495261 
L 263.289559 261.699304 
L 263.582783 261.263792 
L 263.876007 261.253865 
L 264.169231 261.965516 
L 264.462455 262.349317 
L 264.755679 263.319783 
L 265.048903 265.964416 
L 265.342128 265.964416 
L 265.635352 271.033953 
L 265.928576 271.946478 
L 266.515024 275.526315 
L 266.808248 278.714806 
L 267.394696 281.258586 
L 267.68792 281.818287 
L 267.981144 281.831672 
L 268.274368 281.601323 
L 269.154041 276.96632 
L 269.447265 274.538389 
L 269.740489 273.689742 
L 270.033713 271.957493 
L 270.326937 268.403415 
L 270.620161 266.651806 
L 271.206609 261.835084 
L 271.499834 261.115281 
L 272.379506 257.765663 
L 272.67273 257.894075 
L 272.965954 258.794579 
L 273.259178 259.251271 
L 273.552402 260.378987 
L 273.845626 263.33219 
L 274.13885 265.066886 
L 274.725299 270.698055 
L 275.018523 271.658749 
L 275.311747 273.516373 
L 275.604971 276.845462 
L 275.898195 276.845462 
L 276.191419 280.134147 
L 276.777867 280.735697 
L 277.071091 280.725333 
L 277.364315 279.77687 
L 277.657539 279.77687 
L 277.950764 276.510206 
L 278.243988 275.800682 
L 278.830436 272.680565 
L 279.12366 269.330758 
L 279.416884 269.330758 
L 279.710108 264.308134 
L 280.003332 263.527033 
L 280.883004 258.746379 
L 281.176229 258.746379 
L 281.469453 258.109036 
L 281.762677 258.280529 
L 282.055901 258.846005 
L 282.349125 259.694526 
L 283.522021 268.895032 
L 283.815245 269.796869 
L 284.10847 271.570337 
L 284.401694 274.794659 
L 284.694918 274.794659 
L 284.988142 278.285999 
L 285.281366 278.681476 
L 285.867814 279.70065 
L 286.161038 279.672307 
L 286.454262 279.262584 
L 286.747486 278.212615 
L 287.04071 276.730256 
L 287.333935 276.153236 
L 287.627159 274.90116 
L 287.920383 272.16422 
L 288.213607 272.16422 
L 288.506831 267.828159 
L 288.800055 267.121906 
L 289.972951 261.970339 
L 290.266175 261.4951 
L 290.852624 261.717156 
L 291.145848 262.199511 
L 291.439072 263.878787 
L 291.732296 263.878787 
L 292.02552 267.764709 
L 292.318744 268.512641 
L 292.905192 271.590507 
L 293.198416 274.491856 
L 293.784865 277.493641 
L 294.078089 278.928791 
L 294.371313 279.346986 
L 294.957761 280.703962 
L 295.250985 280.62829 
L 295.544209 279.987035 
L 295.837433 278.778411 
L 296.130657 278.269981 
L 296.423881 277.113093 
L 296.717105 274.375867 
L 297.01033 272.894568 
L 297.596778 268.367327 
L 297.890002 267.638629 
L 298.183226 266.25331 
L 298.47645 263.899923 
L 298.769674 263.899923 
L 299.062898 262.038786 
L 299.649346 261.934043 
L 299.942571 262.183208 
L 300.235795 263.467075 
L 300.529019 263.467075 
L 300.822243 267.166067 
L 301.115467 267.931774 
L 301.995139 272.951947 
L 302.874811 279.808191 
L 303.46126 282.025767 
L 304.047708 283.557171 
L 304.340932 283.344735 
L 304.634156 282.73307 
L 305.220604 280.65317 
L 306.100276 272.650333 
L 306.393501 271.776086 
L 307.566397 264.374752 
L 307.859621 261.911628 
L 308.446069 260.368992 
L 308.739293 259.995811 
L 309.032517 260.141135 
L 309.325741 260.141135 
L 309.618966 262.677534 
L 309.91219 263.338156 
L 310.498638 266.465783 
L 310.791862 270.078084 
L 311.085086 270.078084 
L 311.37831 275.556842 
L 311.671534 276.417977 
L 312.257982 279.466043 
L 312.844431 281.70419 
L 313.137655 281.960272 
L 313.430879 281.609494 
L 314.017327 280.087776 
L 314.310551 279.004765 
L 314.603775 277.071682 
L 314.896999 274.086921 
L 315.776672 269.250706 
L 316.069896 266.068404 
L 316.36312 266.068404 
L 316.656344 262.028607 
L 316.949568 261.502394 
L 317.536016 259.990339 
L 317.82924 259.846643 
L 318.122464 259.846643 
L 319.295361 265.274979 
L 319.588585 269.561739 
L 319.881809 269.561739 
L 320.175033 273.093247 
L 321.641153 281.030753 
L 321.934377 281.209851 
L 322.227602 281.115317 
L 322.520826 280.70931 
L 322.81405 280.028238 
L 323.693722 273.800793 
L 323.986946 273.032195 
L 324.573394 269.911057 
L 325.159842 264.88658 
L 325.453067 263.191762 
L 325.746291 262.710593 
L 326.332739 261.335463 
L 326.625963 261.117409 
L 326.919187 261.501356 
L 327.212411 262.198075 
L 327.505635 263.745102 
L 327.798859 266.543359 
L 328.092083 266.543359 
L 328.385308 269.818539 
L 329.26498 275.048716 
L 330.144652 281.571764 
L 330.7311 283.196032 
L 331.024324 283.545862 
L 331.317548 283.420146 
L 332.490445 278.26156 
L 332.783669 275.844607 
L 333.076893 272.435551 
L 333.370117 272.435551 
L 333.663341 269.032531 
L 334.836238 261.992297 
L 335.129462 261.992297 
L 335.422686 261.346575 
L 335.71591 261.47701 
L 336.009134 262.233809 
L 336.302358 263.616612 
L 336.595582 265.54423 
L 336.888806 265.54423 
L 337.18203 268.666695 
L 338.061703 273.710691 
L 338.941375 280.069512 
L 339.527823 281.814794 
L 339.821047 282.440919 
L 340.114271 282.154902 
L 340.407495 282.154902 
L 341.873616 274.12704 
L 342.16684 270.700711 
L 343.926184 260.894539 
L 344.219409 260.540678 
L 344.512633 260.497836 
L 344.805857 260.993083 
L 345.099081 262.120303 
L 345.392305 262.61982 
L 345.685529 263.779357 
L 345.978753 266.60211 
L 346.565201 269.707722 
L 347.151649 274.977376 
L 347.444874 274.977376 
L 347.738098 277.52078 
L 348.61777 280.850367 
L 349.204218 281.210805 
L 349.497442 280.820135 
L 349.790666 280.820135 
L 350.08389 278.591881 
L 350.377114 278.075246 
L 350.963563 275.745091 
L 351.256787 273.256467 
L 351.843235 270.438867 
L 352.136459 269.085166 
L 352.429683 268.702199 
L 353.016131 267.232683 
L 353.895804 267.29873 
L 354.482252 267.963009 
L 355.361924 270.754839 
L 355.655148 271.08184 
L 356.241596 272.418246 
L 356.828045 274.553396 
L 357.121269 275.305105 
L 357.414493 275.526843 
L 358.294165 276.754846 
L 358.880613 276.909067 
L 359.760285 276.506855 
L 360.346734 275.475364 
L 360.639958 275.005347 
L 360.933182 274.204818 
L 361.226406 273.020522 
L 361.51963 273.020522 
L 361.812854 271.809131 
L 362.692526 269.70038 
L 362.98575 268.74108 
L 363.278975 268.74108 
L 363.572199 268.176187 
L 363.865423 268.068497 
L 364.158647 268.117588 
L 365.917991 269.57192 
L 366.211215 269.62877 
L 366.50444 269.361876 
L 366.797664 269.361876 
L 367.384112 268.203121 
L 367.97056 267.063686 
L 368.557008 265.115153 
L 369.143456 264.562384 
L 369.436681 264.548556 
L 369.729905 264.72541 
L 370.023129 265.326489 
L 370.609577 267.464291 
L 371.196025 269.290054 
L 371.782473 272.665766 
L 372.075697 272.665766 
L 372.368921 274.356757 
L 372.95537 275.61934 
L 373.248594 276.016665 
L 373.541818 276.225151 
L 374.128266 275.211356 
L 374.714714 273.652952 
L 375.301162 271.747366 
L 375.887611 268.847103 
L 376.474059 267.803222 
L 377.060507 267.182926 
L 377.353731 267.274787 
L 377.940179 267.923797 
L 378.526627 269.074163 
L 378.819851 269.81189 
L 379.113076 271.107555 
L 379.4063 273.11895 
L 380.579196 277.697538 
L 381.458868 282.228187 
L 382.045316 283.212485 
L 382.338541 283.392696 
L 382.631765 283.392696 
L 382.924989 282.392185 
L 383.218213 282.097866 
L 383.804661 280.644625 
L 384.097885 278.889422 
L 384.684333 276.81009 
L 384.977557 275.824041 
L 385.270782 275.554144 
L 385.85723 274.589736 
L 386.443678 274.475237 
L 386.736902 274.615437 
L 387.030126 275.073436 
L 387.32335 275.073436 
L 387.909798 276.332196 
L 388.496247 277.42732 
L 389.082695 278.964758 
L 389.669143 279.293102 
L 389.962367 279.230243 
L 390.255591 278.984846 
L 390.548815 278.542394 
L 390.842039 277.528946 
L 391.135263 275.716451 
L 392.30816 271.245533 
L 392.601384 269.818103 
L 393.187832 269.09243 
L 393.481056 269.019763 
L 393.77428 269.132653 
L 394.067504 269.613654 
L 394.360728 270.693168 
L 395.240401 272.749832 
L 395.826849 274.999251 
L 396.120073 274.999251 
L 396.413297 275.940482 
L 396.999745 276.46874 
L 397.292969 276.451023 
L 398.75909 272.842846 
L 399.052314 271.962583 
L 399.931986 268.415594 
L 400.518434 267.646001 
L 400.811658 267.536341 
L 401.104883 267.706584 
L 401.691331 268.945597 
L 402.571003 270.69134 
L 403.157451 272.456452 
L 404.037123 273.459954 
L 404.330348 273.729206 
L 404.623572 274.373655 
L 404.916796 274.373655 
L 405.21002 274.985856 
L 406.089692 275.813336 
L 406.67614 275.871849 
L 407.262588 275.264305 
L 408.435485 274.315926 
L 409.021933 273.574642 
L 410.488053 272.308289 
L 411.66095 272.161693 
L 412.247398 272.667948 
L 412.833846 273.777933 
L 413.12707 275.013718 
L 413.420294 276.905312 
L 414.299967 279.23495 
L 414.593191 279.699024 
L 414.886415 279.94343 
L 415.179639 279.869679 
L 416.645759 275.629069 
L 417.525432 271.573275 
L 418.11188 270.304726 
L 418.405104 269.876326 
L 418.991552 269.758495 
L 419.578 271.295046 
L 420.457673 273.584041 
L 420.750897 274.493425 
L 421.337345 274.878355 
L 421.630569 274.859046 
L 421.923793 274.713167 
L 422.217017 274.297748 
L 422.510241 273.582175 
L 423.096689 273.06407 
L 423.389914 272.980394 
L 423.683138 273.14161 
L 423.976362 273.85907 
L 424.269586 273.85907 
L 424.56281 274.866266 
L 425.442482 276.375745 
L 425.735706 277.358776 
L 426.02893 277.358776 
L 427.495051 285.711114 
L 427.788275 285.711114 
L 428.374723 289.901081 
L 428.667947 291.447398 
L 428.961171 291.907473 
L 429.840844 294.345396 
L 430.720516 295.190551 
L 431.306964 295.12136 
L 431.893412 293.809543 
L 432.186636 292.434139 
L 432.186636 292.434139 
" clip-path="url(#pe8b0926109)" style="fill: none; stroke: #008000; stroke-width: 1.5; stroke-linecap: square"/>
   </g>
   <g id="patch_13">
    <path d="M 58.106 301.9975 
L 58.106 251.52 
" style="fill: none; stroke: #000000; stroke-width: 0.8; stroke-linejoin: miter; stroke-linecap: square"/>
   </g>
   <g id="patch_14">
    <path d="M 450 301.9975 
L 450 251.52 
" style="fill: none; stroke: #000000; stroke-width: 0.8; stroke-linejoin: miter; stroke-linecap: square"/>
   </g>
   <g id="patch_15">
    <path d="M 58.106 301.9975 
L 450 301.9975 
" style="fill: none; stroke: #000000; stroke-width: 0.8; stroke-linejoin: miter; stroke-linecap: square"/>
   </g>
   <g id="patch_16">
    <path d="M 58.106 251.52 
L 450 251.52 
" style="fill: none; stroke: #000000; stroke-width: 0.8; stroke-linejoin: miter; stroke-linecap: square"/>
   </g>
   <g id="text_38">
    <!-- Error in swing angle -->
    <g transform="translate(194.282688 245.52)scale(0.12 -0.12)">
     <defs>
      <path id="DejaVuSans-77" d="M 269 3500 
L 844 3500 
L 1563 769 
L 2278 3500 
L 2956 3500 
L 3675 769 
L 4391 3500 
L 4966 3500 
L 4050 0 
L 3372 0 
L 2619 2869 
L 1863 0 
L 1184 0 
L 269 3500 
z
" transform="scale(0.015625)"/>
      <path id="DejaVuSans-67" d="M 2906 1791 
Q 2906 2416 2648 2759 
Q 2391 3103 1925 3103 
Q 1463 3103 1205 2759 
Q 947 2416 947 1791 
Q 947 1169 1205 825 
Q 1463 481 1925 481 
Q 2391 481 2648 825 
Q 2906 1169 2906 1791 
z
M 3481 434 
Q 3481 -459 3084 -895 
Q 2688 -1331 1869 -1331 
Q 1566 -1331 1297 -1286 
Q 1028 -1241 775 -1147 
L 775 -588 
Q 1028 -725 1275 -790 
Q 1522 -856 1778 -856 
Q 2344 -856 2625 -561 
Q 2906 -266 2906 331 
L 2906 616 
Q 2728 306 2450 153 
Q 2172 0 1784 0 
Q 1141 0 747 490 
Q 353 981 353 1791 
Q 353 2603 747 3093 
Q 1141 3584 1784 3584 
Q 2172 3584 2450 3431 
Q 2728 3278 2906 2969 
L 2906 3500 
L 3481 3500 
L 3481 434 
z
" transform="scale(0.015625)"/>
      <path id="DejaVuSans-6c" d="M 603 4863 
L 1178 4863 
L 1178 0 
L 603 0 
L 603 4863 
z
" transform="scale(0.015625)"/>
      <path id="DejaVuSans-65" d="M 3597 1894 
L 3597 1613 
L 953 1613 
Q 991 1019 1311 708 
Q 1631 397 2203 397 
Q 2534 397 2845 478 
Q 3156 559 3463 722 
L 3463 178 
Q 3153 47 2828 -22 
Q 2503 -91 2169 -91 
Q 1331 -91 842 396 
Q 353 884 353 1716 
Q 353 2575 817 3079 
Q 1281 3584 2069 3584 
Q 2775 3584 3186 3129 
Q 3597 2675 3597 1894 
z
M 3022 2063 
Q 3016 2534 2758 2815 
Q 2500 3097 2075 3097 
Q 1594 3097 1305 2825 
Q 1016 2553 972 2059 
L 3022 2063 
z
" transform="scale(0.015625)"/>
     </defs>
     <use xlink:href="#DejaVuSans-45"/>
     <use xlink:href="#DejaVuSans-72" x="63.183594"/>
     <use xlink:href="#DejaVuSans-72" x="102.546875"/>
     <use xlink:href="#DejaVuSans-6f" x="141.410156"/>
     <use xlink:href="#DejaVuSans-72" x="202.591797"/>
     <use xlink:href="#DejaVuSans-20" x="243.705078"/>
     <use xlink:href="#DejaVuSans-69" x="275.492188"/>
     <use xlink:href="#DejaVuSans-6e" x="303.275391"/>
     <use xlink:href="#DejaVuSans-20" x="366.654297"/>
     <use xlink:href="#DejaVuSans-73" x="398.441406"/>
     <use xlink:href="#DejaVuSans-77" x="450.541016"/>
     <use xlink:href="#DejaVuSans-69" x="532.328125"/>
     <use xlink:href="#DejaVuSans-6e" x="560.111328"/>
     <use xlink:href="#DejaVuSans-67" x="623.490234"/>
     <use xlink:href="#DejaVuSans-20" x="686.966797"/>
     <use xlink:href="#DejaVuSans-61" x="718.753906"/>
     <use xlink:href="#DejaVuSans-6e" x="780.033203"/>
     <use xlink:href="#DejaVuSans-67" x="843.412109"/>
     <use xlink:href="#DejaVuSans-6c" x="906.888672"/>
     <use xlink:href="#DejaVuSans-65" x="934.671875"/>
    </g>
   </g>
  </g>
 </g>
 <defs>
  <clipPath id="p0bd1bde720">
   <rect x="58.106" y="28.32" width="391.894" height="50.4775"/>
  </clipPath>
  <clipPath id="p5238b255c4">
   <rect x="58.106" y="139.92" width="391.894" height="50.4775"/>
  </clipPath>
  <clipPath id="pe8b0926109">
   <rect x="58.106" y="251.52" width="391.894" height="50.4775"/>
  </clipPath>
 </defs>
</svg>
