<?xml version="1.0" encoding="utf-8" standalone="no"?>
<!DOCTYPE svg PUBLIC "-//W3C//DTD SVG 1.1//EN"
  "http://www.w3.org/Graphics/SVG/1.1/DTD/svg11.dtd">
<svg xmlns:xlink="http://www.w3.org/1999/xlink" width="460.8pt" height="345.6pt" viewBox="0 0 460.8 345.6" xmlns="http://www.w3.org/2000/svg" version="1.1">
 <metadata>
  <rdf:RDF xmlns:dc="http://purl.org/dc/elements/1.1/" xmlns:cc="http://creativecommons.org/ns#" xmlns:rdf="http://www.w3.org/1999/02/22-rdf-syntax-ns#">
   <cc:Work>
    <dc:type rdf:resource="http://purl.org/dc/dcmitype/StillImage"/>
    <dc:date>2022-06-05T14:15:23.063847</dc:date>
    <dc:format>image/svg+xml</dc:format>
    <dc:creator>
     <cc:Agent>
      <dc:title>Matplotlib v3.5.1, https://matplotlib.org/</dc:title>
     </cc:Agent>
    </dc:creator>
   </cc:Work>
  </rdf:RDF>
 </metadata>
 <defs>
  <style type="text/css">*{stroke-linejoin: round; stroke-linecap: butt}</style>
 </defs>
 <g id="figure_1">
  <g id="patch_1">
   <path d="M 0 345.6 
L 460.8 345.6 
L 460.8 0 
L 0 0 
z
" style="fill: #ffffff"/>
  </g>
  <g id="axes_1">
   <g id="patch_2">
    <path d="M 58.106 78.7975 
L 450 78.7975 
L 450 28.32 
L 58.106 28.32 
z
" style="fill: #ffffff"/>
   </g>
   <g id="matplotlib.axis_1">
    <g id="xtick_1">
     <g id="line2d_1">
      <path d="M 75.919364 78.7975 
L 75.919364 28.32 
" clip-path="url(#paa9a5cc05e)" style="fill: none; stroke: #b0b0b0; stroke-width: 0.8; stroke-linecap: square"/>
     </g>
     <g id="line2d_2">
      <defs>
       <path id="mb35b1c2f15" d="M 0 0 
L 0 3.5 
" style="stroke: #000000; stroke-width: 0.8"/>
      </defs>
      <g>
       <use xlink:href="#mb35b1c2f15" x="75.919364" y="78.7975" style="stroke: #000000; stroke-width: 0.8"/>
      </g>
     </g>
     <g id="text_1">
      <!-- 0 -->
      <g transform="translate(72.738114 93.395937)scale(0.1 -0.1)">
       <defs>
        <path id="DejaVuSans-30" d="M 2034 4250 
Q 1547 4250 1301 3770 
Q 1056 3291 1056 2328 
Q 1056 1369 1301 889 
Q 1547 409 2034 409 
Q 2525 409 2770 889 
Q 3016 1369 3016 2328 
Q 3016 3291 2770 3770 
Q 2525 4250 2034 4250 
z
M 2034 4750 
Q 2819 4750 3233 4129 
Q 3647 3509 3647 2328 
Q 3647 1150 3233 529 
Q 2819 -91 2034 -91 
Q 1250 -91 836 529 
Q 422 1150 422 2328 
Q 422 3509 836 4129 
Q 1250 4750 2034 4750 
z
" transform="scale(0.015625)"/>
       </defs>
       <use xlink:href="#DejaVuSans-30"/>
      </g>
     </g>
    </g>
    <g id="xtick_2">
     <g id="line2d_3">
      <path d="M 132.649821 78.7975 
L 132.649821 28.32 
" clip-path="url(#paa9a5cc05e)" style="fill: none; stroke: #b0b0b0; stroke-width: 0.8; stroke-linecap: square"/>
     </g>
     <g id="line2d_4">
      <g>
       <use xlink:href="#mb35b1c2f15" x="132.649821" y="78.7975" style="stroke: #000000; stroke-width: 0.8"/>
      </g>
     </g>
     <g id="text_2">
      <!-- 2 -->
      <g transform="translate(129.468571 93.395937)scale(0.1 -0.1)">
       <defs>
        <path id="DejaVuSans-32" d="M 1228 531 
L 3431 531 
L 3431 0 
L 469 0 
L 469 531 
Q 828 903 1448 1529 
Q 2069 2156 2228 2338 
Q 2531 2678 2651 2914 
Q 2772 3150 2772 3378 
Q 2772 3750 2511 3984 
Q 2250 4219 1831 4219 
Q 1534 4219 1204 4116 
Q 875 4013 500 3803 
L 500 4441 
Q 881 4594 1212 4672 
Q 1544 4750 1819 4750 
Q 2544 4750 2975 4387 
Q 3406 4025 3406 3419 
Q 3406 3131 3298 2873 
Q 3191 2616 2906 2266 
Q 2828 2175 2409 1742 
Q 1991 1309 1228 531 
z
" transform="scale(0.015625)"/>
       </defs>
       <use xlink:href="#DejaVuSans-32"/>
      </g>
     </g>
    </g>
    <g id="xtick_3">
     <g id="line2d_5">
      <path d="M 189.380279 78.7975 
L 189.380279 28.32 
" clip-path="url(#paa9a5cc05e)" style="fill: none; stroke: #b0b0b0; stroke-width: 0.8; stroke-linecap: square"/>
     </g>
     <g id="line2d_6">
      <g>
       <use xlink:href="#mb35b1c2f15" x="189.380279" y="78.7975" style="stroke: #000000; stroke-width: 0.8"/>
      </g>
     </g>
     <g id="text_3">
      <!-- 4 -->
      <g transform="translate(186.199029 93.395937)scale(0.1 -0.1)">
       <defs>
        <path id="DejaVuSans-34" d="M 2419 4116 
L 825 1625 
L 2419 1625 
L 2419 4116 
z
M 2253 4666 
L 3047 4666 
L 3047 1625 
L 3713 1625 
L 3713 1100 
L 3047 1100 
L 3047 0 
L 2419 0 
L 2419 1100 
L 313 1100 
L 313 1709 
L 2253 4666 
z
" transform="scale(0.015625)"/>
       </defs>
       <use xlink:href="#DejaVuSans-34"/>
      </g>
     </g>
    </g>
    <g id="xtick_4">
     <g id="line2d_7">
      <path d="M 246.110736 78.7975 
L 246.110736 28.32 
" clip-path="url(#paa9a5cc05e)" style="fill: none; stroke: #b0b0b0; stroke-width: 0.8; stroke-linecap: square"/>
     </g>
     <g id="line2d_8">
      <g>
       <use xlink:href="#mb35b1c2f15" x="246.110736" y="78.7975" style="stroke: #000000; stroke-width: 0.8"/>
      </g>
     </g>
     <g id="text_4">
      <!-- 6 -->
      <g transform="translate(242.929486 93.395937)scale(0.1 -0.1)">
       <defs>
        <path id="DejaVuSans-36" d="M 2113 2584 
Q 1688 2584 1439 2293 
Q 1191 2003 1191 1497 
Q 1191 994 1439 701 
Q 1688 409 2113 409 
Q 2538 409 2786 701 
Q 3034 994 3034 1497 
Q 3034 2003 2786 2293 
Q 2538 2584 2113 2584 
z
M 3366 4563 
L 3366 3988 
Q 3128 4100 2886 4159 
Q 2644 4219 2406 4219 
Q 1781 4219 1451 3797 
Q 1122 3375 1075 2522 
Q 1259 2794 1537 2939 
Q 1816 3084 2150 3084 
Q 2853 3084 3261 2657 
Q 3669 2231 3669 1497 
Q 3669 778 3244 343 
Q 2819 -91 2113 -91 
Q 1303 -91 875 529 
Q 447 1150 447 2328 
Q 447 3434 972 4092 
Q 1497 4750 2381 4750 
Q 2619 4750 2861 4703 
Q 3103 4656 3366 4563 
z
" transform="scale(0.015625)"/>
       </defs>
       <use xlink:href="#DejaVuSans-36"/>
      </g>
     </g>
    </g>
    <g id="xtick_5">
     <g id="line2d_9">
      <path d="M 302.841193 78.7975 
L 302.841193 28.32 
" clip-path="url(#paa9a5cc05e)" style="fill: none; stroke: #b0b0b0; stroke-width: 0.8; stroke-linecap: square"/>
     </g>
     <g id="line2d_10">
      <g>
       <use xlink:href="#mb35b1c2f15" x="302.841193" y="78.7975" style="stroke: #000000; stroke-width: 0.8"/>
      </g>
     </g>
     <g id="text_5">
      <!-- 8 -->
      <g transform="translate(299.659943 93.395937)scale(0.1 -0.1)">
       <defs>
        <path id="DejaVuSans-38" d="M 2034 2216 
Q 1584 2216 1326 1975 
Q 1069 1734 1069 1313 
Q 1069 891 1326 650 
Q 1584 409 2034 409 
Q 2484 409 2743 651 
Q 3003 894 3003 1313 
Q 3003 1734 2745 1975 
Q 2488 2216 2034 2216 
z
M 1403 2484 
Q 997 2584 770 2862 
Q 544 3141 544 3541 
Q 544 4100 942 4425 
Q 1341 4750 2034 4750 
Q 2731 4750 3128 4425 
Q 3525 4100 3525 3541 
Q 3525 3141 3298 2862 
Q 3072 2584 2669 2484 
Q 3125 2378 3379 2068 
Q 3634 1759 3634 1313 
Q 3634 634 3220 271 
Q 2806 -91 2034 -91 
Q 1263 -91 848 271 
Q 434 634 434 1313 
Q 434 1759 690 2068 
Q 947 2378 1403 2484 
z
M 1172 3481 
Q 1172 3119 1398 2916 
Q 1625 2713 2034 2713 
Q 2441 2713 2670 2916 
Q 2900 3119 2900 3481 
Q 2900 3844 2670 4047 
Q 2441 4250 2034 4250 
Q 1625 4250 1398 4047 
Q 1172 3844 1172 3481 
z
" transform="scale(0.015625)"/>
       </defs>
       <use xlink:href="#DejaVuSans-38"/>
      </g>
     </g>
    </g>
    <g id="xtick_6">
     <g id="line2d_11">
      <path d="M 359.571651 78.7975 
L 359.571651 28.32 
" clip-path="url(#paa9a5cc05e)" style="fill: none; stroke: #b0b0b0; stroke-width: 0.8; stroke-linecap: square"/>
     </g>
     <g id="line2d_12">
      <g>
       <use xlink:href="#mb35b1c2f15" x="359.571651" y="78.7975" style="stroke: #000000; stroke-width: 0.8"/>
      </g>
     </g>
     <g id="text_6">
      <!-- 10 -->
      <g transform="translate(353.209151 93.395937)scale(0.1 -0.1)">
       <defs>
        <path id="DejaVuSans-31" d="M 794 531 
L 1825 531 
L 1825 4091 
L 703 3866 
L 703 4441 
L 1819 4666 
L 2450 4666 
L 2450 531 
L 3481 531 
L 3481 0 
L 794 0 
L 794 531 
z
" transform="scale(0.015625)"/>
       </defs>
       <use xlink:href="#DejaVuSans-31"/>
       <use xlink:href="#DejaVuSans-30" x="63.623047"/>
      </g>
     </g>
    </g>
    <g id="xtick_7">
     <g id="line2d_13">
      <path d="M 416.302108 78.7975 
L 416.302108 28.32 
" clip-path="url(#paa9a5cc05e)" style="fill: none; stroke: #b0b0b0; stroke-width: 0.8; stroke-linecap: square"/>
     </g>
     <g id="line2d_14">
      <g>
       <use xlink:href="#mb35b1c2f15" x="416.302108" y="78.7975" style="stroke: #000000; stroke-width: 0.8"/>
      </g>
     </g>
     <g id="text_7">
      <!-- 12 -->
      <g transform="translate(409.939608 93.395937)scale(0.1 -0.1)">
       <use xlink:href="#DejaVuSans-31"/>
       <use xlink:href="#DejaVuSans-32" x="63.623047"/>
      </g>
     </g>
    </g>
    <g id="text_8">
     <!-- $t$ [s] -->
     <g transform="translate(243.953 107.074062)scale(0.1 -0.1)">
      <defs>
       <path id="DejaVuSans-Oblique-74" d="M 2706 3500 
L 2619 3053 
L 1472 3053 
L 1100 1153 
Q 1081 1047 1072 975 
Q 1063 903 1063 863 
Q 1063 663 1183 572 
Q 1303 481 1569 481 
L 2150 481 
L 2053 0 
L 1503 0 
Q 991 0 739 200 
Q 488 400 488 806 
Q 488 878 497 964 
Q 506 1050 525 1153 
L 897 3053 
L 409 3053 
L 500 3500 
L 978 3500 
L 1172 4494 
L 1747 4494 
L 1556 3500 
L 2706 3500 
z
" transform="scale(0.015625)"/>
       <path id="DejaVuSans-20" transform="scale(0.015625)"/>
       <path id="DejaVuSans-5b" d="M 550 4863 
L 1875 4863 
L 1875 4416 
L 1125 4416 
L 1125 -397 
L 1875 -397 
L 1875 -844 
L 550 -844 
L 550 4863 
z
" transform="scale(0.015625)"/>
       <path id="DejaVuSans-73" d="M 2834 3397 
L 2834 2853 
Q 2591 2978 2328 3040 
Q 2066 3103 1784 3103 
Q 1356 3103 1142 2972 
Q 928 2841 928 2578 
Q 928 2378 1081 2264 
Q 1234 2150 1697 2047 
L 1894 2003 
Q 2506 1872 2764 1633 
Q 3022 1394 3022 966 
Q 3022 478 2636 193 
Q 2250 -91 1575 -91 
Q 1294 -91 989 -36 
Q 684 19 347 128 
L 347 722 
Q 666 556 975 473 
Q 1284 391 1588 391 
Q 1994 391 2212 530 
Q 2431 669 2431 922 
Q 2431 1156 2273 1281 
Q 2116 1406 1581 1522 
L 1381 1569 
Q 847 1681 609 1914 
Q 372 2147 372 2553 
Q 372 3047 722 3315 
Q 1072 3584 1716 3584 
Q 2034 3584 2315 3537 
Q 2597 3491 2834 3397 
z
" transform="scale(0.015625)"/>
       <path id="DejaVuSans-5d" d="M 1947 4863 
L 1947 -844 
L 622 -844 
L 622 -397 
L 1369 -397 
L 1369 4416 
L 622 4416 
L 622 4863 
L 1947 4863 
z
" transform="scale(0.015625)"/>
      </defs>
      <use xlink:href="#DejaVuSans-Oblique-74" transform="translate(0 0.015625)"/>
      <use xlink:href="#DejaVuSans-20" transform="translate(39.208984 0.015625)"/>
      <use xlink:href="#DejaVuSans-5b" transform="translate(70.996094 0.015625)"/>
      <use xlink:href="#DejaVuSans-73" transform="translate(110.009766 0.015625)"/>
      <use xlink:href="#DejaVuSans-5d" transform="translate(162.109375 0.015625)"/>
     </g>
    </g>
   </g>
   <g id="matplotlib.axis_2">
    <g id="ytick_1">
     <g id="line2d_15">
      <path d="M 58.106 76.725871 
L 450 76.725871 
" clip-path="url(#paa9a5cc05e)" style="fill: none; stroke: #b0b0b0; stroke-width: 0.8; stroke-linecap: square"/>
     </g>
     <g id="line2d_16">
      <defs>
       <path id="m587586f286" d="M 0 0 
L -3.5 0 
" style="stroke: #000000; stroke-width: 0.8"/>
      </defs>
      <g>
       <use xlink:href="#m587586f286" x="58.106" y="76.725871" style="stroke: #000000; stroke-width: 0.8"/>
      </g>
     </g>
     <g id="text_9">
      <!-- 0 -->
      <g transform="translate(44.7435 80.525089)scale(0.1 -0.1)">
       <use xlink:href="#DejaVuSans-30"/>
      </g>
     </g>
    </g>
    <g id="ytick_2">
     <g id="line2d_17">
      <path d="M 58.106 30.614427 
L 450 30.614427 
" clip-path="url(#paa9a5cc05e)" style="fill: none; stroke: #b0b0b0; stroke-width: 0.8; stroke-linecap: square"/>
     </g>
     <g id="line2d_18">
      <g>
       <use xlink:href="#m587586f286" x="58.106" y="30.614427" style="stroke: #000000; stroke-width: 0.8"/>
      </g>
     </g>
     <g id="text_10">
      <!-- 10 -->
      <g transform="translate(38.381 34.413646)scale(0.1 -0.1)">
       <use xlink:href="#DejaVuSans-31"/>
       <use xlink:href="#DejaVuSans-30" x="63.623047"/>
      </g>
     </g>
    </g>
    <g id="text_11">
     <!-- $e_x$ [m] -->
     <g transform="translate(32.301313 69.20875)rotate(-90)scale(0.1 -0.1)">
      <defs>
       <path id="DejaVuSans-Oblique-65" d="M 3078 2063 
Q 3088 2113 3092 2166 
Q 3097 2219 3097 2272 
Q 3097 2653 2873 2875 
Q 2650 3097 2266 3097 
Q 1838 3097 1509 2826 
Q 1181 2556 1013 2059 
L 3078 2063 
z
M 3578 1613 
L 903 1613 
Q 884 1494 878 1425 
Q 872 1356 872 1306 
Q 872 872 1139 634 
Q 1406 397 1894 397 
Q 2269 397 2603 481 
Q 2938 566 3225 728 
L 3116 159 
Q 2806 34 2476 -28 
Q 2147 -91 1806 -91 
Q 1078 -91 686 257 
Q 294 606 294 1247 
Q 294 1794 489 2264 
Q 684 2734 1063 3103 
Q 1306 3334 1642 3459 
Q 1978 3584 2356 3584 
Q 2950 3584 3301 3228 
Q 3653 2872 3653 2272 
Q 3653 2128 3634 1964 
Q 3616 1800 3578 1613 
z
" transform="scale(0.015625)"/>
       <path id="DejaVuSans-Oblique-78" d="M 3841 3500 
L 2234 1784 
L 3219 0 
L 2559 0 
L 1819 1388 
L 531 0 
L -166 0 
L 1556 1844 
L 641 3500 
L 1300 3500 
L 1972 2234 
L 3144 3500 
L 3841 3500 
z
" transform="scale(0.015625)"/>
       <path id="DejaVuSans-6d" d="M 3328 2828 
Q 3544 3216 3844 3400 
Q 4144 3584 4550 3584 
Q 5097 3584 5394 3201 
Q 5691 2819 5691 2113 
L 5691 0 
L 5113 0 
L 5113 2094 
Q 5113 2597 4934 2840 
Q 4756 3084 4391 3084 
Q 3944 3084 3684 2787 
Q 3425 2491 3425 1978 
L 3425 0 
L 2847 0 
L 2847 2094 
Q 2847 2600 2669 2842 
Q 2491 3084 2119 3084 
Q 1678 3084 1418 2786 
Q 1159 2488 1159 1978 
L 1159 0 
L 581 0 
L 581 3500 
L 1159 3500 
L 1159 2956 
Q 1356 3278 1631 3431 
Q 1906 3584 2284 3584 
Q 2666 3584 2933 3390 
Q 3200 3197 3328 2828 
z
" transform="scale(0.015625)"/>
      </defs>
      <use xlink:href="#DejaVuSans-Oblique-65" transform="translate(0 0.015625)"/>
      <use xlink:href="#DejaVuSans-Oblique-78" transform="translate(61.523438 -16.390625)scale(0.7)"/>
      <use xlink:href="#DejaVuSans-20" transform="translate(105.683594 0.015625)"/>
      <use xlink:href="#DejaVuSans-5b" transform="translate(137.470703 0.015625)"/>
      <use xlink:href="#DejaVuSans-6d" transform="translate(176.484375 0.015625)"/>
      <use xlink:href="#DejaVuSans-5d" transform="translate(273.896484 0.015625)"/>
     </g>
    </g>
   </g>
   <g id="line2d_19">
    <path d="M 75.919364 30.614432 
L 82.732443 30.70959 
L 88.410009 30.936313 
L 92.668184 31.068305 
L 96.64248 31.264268 
L 102.036168 31.860859 
L 106.862099 32.556223 
L 109.700882 32.96237 
L 111.120273 33.220456 
L 112.255787 33.395403 
L 115.378448 33.996383 
L 115.946205 34.082227 
L 118.501109 34.538216 
L 119.068866 34.648374 
L 119.920501 34.827213 
L 121.907649 35.246702 
L 122.759284 35.442124 
L 125.03031 35.927804 
L 127.301337 36.516348 
L 127.869093 36.625415 
L 129.856242 37.096765 
L 132.695025 37.846517 
L 134.966051 38.351727 
L 135.249929 38.532101 
L 136.385443 38.743794 
L 139.224226 39.539821 
L 141.211374 40.06632 
L 143.766279 40.806169 
L 146.88894 41.583345 
L 147.740575 41.814681 
L 150.29548 42.435538 
L 151.147114 42.65725 
L 153.134263 43.121038 
L 153.418141 43.255611 
L 153.985898 43.362847 
L 156.540802 43.92311 
L 157.676315 44.24179 
L 158.52795 44.426906 
L 161.366733 45.055225 
L 162.218368 45.261377 
L 164.773273 45.81651 
L 165.624908 46.014511 
L 167.895934 46.479084 
L 168.747569 46.720884 
L 169.883083 46.888894 
L 172.721866 47.505736 
L 175.27677 48.029895 
L 176.128405 48.219101 
L 178.68331 48.697257 
L 179.251067 48.850916 
L 181.522093 49.268626 
L 182.657606 49.513067 
L 185.496389 50.050936 
L 188.051294 50.505581 
L 190.038442 50.893091 
L 190.890077 51.06784 
L 194.864373 51.782373 
L 198.83867 52.577152 
L 199.406426 52.663497 
L 203.664601 53.4115 
L 204.232357 53.516605 
L 205.083992 53.687447 
L 207.355019 54.137943 
L 209.626045 54.570605 
L 211.045437 54.754516 
L 211.613193 54.899437 
L 215.019733 55.504669 
L 216.155246 55.72539 
L 218.994029 56.20042 
L 219.845664 56.362312 
L 222.116691 56.764425 
L 222.968326 56.919521 
L 226.090987 57.451697 
L 228.645892 57.888765 
L 229.497527 58.046734 
L 233.471823 58.690852 
L 236.878363 59.281634 
L 240.568781 59.88632 
L 245.110833 60.676525 
L 247.949616 61.099577 
L 248.517373 61.22765 
L 251.640034 61.740362 
L 254.478817 62.222097 
L 257.033722 62.619568 
L 258.169235 62.805535 
L 261.859653 63.40423 
L 264.698436 63.835257 
L 265.266193 63.942117 
L 266.685585 64.141692 
L 269.240489 64.532589 
L 272.079272 64.968569 
L 275.485812 65.47359 
L 279.17623 65.99816 
L 280.027865 66.14075 
L 284.286039 66.729982 
L 287.692579 67.213759 
L 289.111971 67.393112 
L 293.370145 67.968281 
L 298.196076 68.561687 
L 302.170373 69.088658 
L 303.873643 69.278357 
L 307.56406 69.726245 
L 310.686722 70.099771 
L 315.796531 70.694445 
L 319.770828 71.182068 
L 324.596759 71.73727 
L 328.854933 72.260937 
L 333.113108 72.750627 
L 334.816378 72.966569 
L 336.235769 73.122334 
L 340.777822 73.642799 
L 341.629457 73.733936 
L 347.87478 74.379926 
L 348.726415 74.491757 
L 364.055843 75.71731 
L 379.101393 76.282504 
L 389.321012 76.302412 
L 404.082684 76.071644 
L 410.895763 75.979218 
L 419.412113 76.009958 
L 432.186636 76.503068 
L 432.186636 76.503068 
" clip-path="url(#paa9a5cc05e)" style="fill: none; stroke: #ff0000; stroke-width: 1.5; stroke-linecap: square"/>
   </g>
   <g id="patch_3">
    <path d="M 58.106 78.7975 
L 58.106 28.32 
" style="fill: none; stroke: #000000; stroke-width: 0.8; stroke-linejoin: miter; stroke-linecap: square"/>
   </g>
   <g id="patch_4">
    <path d="M 450 78.7975 
L 450 28.32 
" style="fill: none; stroke: #000000; stroke-width: 0.8; stroke-linejoin: miter; stroke-linecap: square"/>
   </g>
   <g id="patch_5">
    <path d="M 58.106 78.7975 
L 450 78.7975 
" style="fill: none; stroke: #000000; stroke-width: 0.8; stroke-linejoin: miter; stroke-linecap: square"/>
   </g>
   <g id="patch_6">
    <path d="M 58.106 28.32 
L 450 28.32 
" style="fill: none; stroke: #000000; stroke-width: 0.8; stroke-linejoin: miter; stroke-linecap: square"/>
   </g>
   <g id="text_12">
    <!-- Error in $x$-position -->
    <g transform="translate(200.413 22.32)scale(0.12 -0.12)">
     <defs>
      <path id="DejaVuSans-45" d="M 628 4666 
L 3578 4666 
L 3578 4134 
L 1259 4134 
L 1259 2753 
L 3481 2753 
L 3481 2222 
L 1259 2222 
L 1259 531 
L 3634 531 
L 3634 0 
L 628 0 
L 628 4666 
z
" transform="scale(0.015625)"/>
      <path id="DejaVuSans-72" d="M 2631 2963 
Q 2534 3019 2420 3045 
Q 2306 3072 2169 3072 
Q 1681 3072 1420 2755 
Q 1159 2438 1159 1844 
L 1159 0 
L 581 0 
L 581 3500 
L 1159 3500 
L 1159 2956 
Q 1341 3275 1631 3429 
Q 1922 3584 2338 3584 
Q 2397 3584 2469 3576 
Q 2541 3569 2628 3553 
L 2631 2963 
z
" transform="scale(0.015625)"/>
      <path id="DejaVuSans-6f" d="M 1959 3097 
Q 1497 3097 1228 2736 
Q 959 2375 959 1747 
Q 959 1119 1226 758 
Q 1494 397 1959 397 
Q 2419 397 2687 759 
Q 2956 1122 2956 1747 
Q 2956 2369 2687 2733 
Q 2419 3097 1959 3097 
z
M 1959 3584 
Q 2709 3584 3137 3096 
Q 3566 2609 3566 1747 
Q 3566 888 3137 398 
Q 2709 -91 1959 -91 
Q 1206 -91 779 398 
Q 353 888 353 1747 
Q 353 2609 779 3096 
Q 1206 3584 1959 3584 
z
" transform="scale(0.015625)"/>
      <path id="DejaVuSans-69" d="M 603 3500 
L 1178 3500 
L 1178 0 
L 603 0 
L 603 3500 
z
M 603 4863 
L 1178 4863 
L 1178 4134 
L 603 4134 
L 603 4863 
z
" transform="scale(0.015625)"/>
      <path id="DejaVuSans-6e" d="M 3513 2113 
L 3513 0 
L 2938 0 
L 2938 2094 
Q 2938 2591 2744 2837 
Q 2550 3084 2163 3084 
Q 1697 3084 1428 2787 
Q 1159 2491 1159 1978 
L 1159 0 
L 581 0 
L 581 3500 
L 1159 3500 
L 1159 2956 
Q 1366 3272 1645 3428 
Q 1925 3584 2291 3584 
Q 2894 3584 3203 3211 
Q 3513 2838 3513 2113 
z
" transform="scale(0.015625)"/>
      <path id="DejaVuSans-2d" d="M 313 2009 
L 1997 2009 
L 1997 1497 
L 313 1497 
L 313 2009 
z
" transform="scale(0.015625)"/>
      <path id="DejaVuSans-70" d="M 1159 525 
L 1159 -1331 
L 581 -1331 
L 581 3500 
L 1159 3500 
L 1159 2969 
Q 1341 3281 1617 3432 
Q 1894 3584 2278 3584 
Q 2916 3584 3314 3078 
Q 3713 2572 3713 1747 
Q 3713 922 3314 415 
Q 2916 -91 2278 -91 
Q 1894 -91 1617 61 
Q 1341 213 1159 525 
z
M 3116 1747 
Q 3116 2381 2855 2742 
Q 2594 3103 2138 3103 
Q 1681 3103 1420 2742 
Q 1159 2381 1159 1747 
Q 1159 1113 1420 752 
Q 1681 391 2138 391 
Q 2594 391 2855 752 
Q 3116 1113 3116 1747 
z
" transform="scale(0.015625)"/>
      <path id="DejaVuSans-74" d="M 1172 4494 
L 1172 3500 
L 2356 3500 
L 2356 3053 
L 1172 3053 
L 1172 1153 
Q 1172 725 1289 603 
Q 1406 481 1766 481 
L 2356 481 
L 2356 0 
L 1766 0 
Q 1100 0 847 248 
Q 594 497 594 1153 
L 594 3053 
L 172 3053 
L 172 3500 
L 594 3500 
L 594 4494 
L 1172 4494 
z
" transform="scale(0.015625)"/>
     </defs>
     <use xlink:href="#DejaVuSans-45" transform="translate(0 0.015625)"/>
     <use xlink:href="#DejaVuSans-72" transform="translate(63.183594 0.015625)"/>
     <use xlink:href="#DejaVuSans-72" transform="translate(104.296875 0.015625)"/>
     <use xlink:href="#DejaVuSans-6f" transform="translate(145.410156 0.015625)"/>
     <use xlink:href="#DejaVuSans-72" transform="translate(206.591797 0.015625)"/>
     <use xlink:href="#DejaVuSans-20" transform="translate(247.705078 0.015625)"/>
     <use xlink:href="#DejaVuSans-69" transform="translate(279.492188 0.015625)"/>
     <use xlink:href="#DejaVuSans-6e" transform="translate(307.275391 0.015625)"/>
     <use xlink:href="#DejaVuSans-20" transform="translate(370.654297 0.015625)"/>
     <use xlink:href="#DejaVuSans-Oblique-78" transform="translate(402.441406 0.015625)"/>
     <use xlink:href="#DejaVuSans-2d" transform="translate(461.621094 0.015625)"/>
     <use xlink:href="#DejaVuSans-70" transform="translate(497.705078 0.015625)"/>
     <use xlink:href="#DejaVuSans-6f" transform="translate(561.181641 0.015625)"/>
     <use xlink:href="#DejaVuSans-73" transform="translate(622.363281 0.015625)"/>
     <use xlink:href="#DejaVuSans-69" transform="translate(674.462891 0.015625)"/>
     <use xlink:href="#DejaVuSans-74" transform="translate(702.246094 0.015625)"/>
     <use xlink:href="#DejaVuSans-69" transform="translate(741.455078 0.015625)"/>
     <use xlink:href="#DejaVuSans-6f" transform="translate(769.238281 0.015625)"/>
     <use xlink:href="#DejaVuSans-6e" transform="translate(830.419922 0.015625)"/>
    </g>
   </g>
  </g>
  <g id="axes_2">
   <g id="patch_7">
    <path d="M 58.106 190.3975 
L 450 190.3975 
L 450 139.92 
L 58.106 139.92 
z
" style="fill: #ffffff"/>
   </g>
   <g id="matplotlib.axis_3">
    <g id="xtick_8">
     <g id="line2d_20">
      <path d="M 75.919364 190.3975 
L 75.919364 139.92 
" clip-path="url(#pc6fe6d372c)" style="fill: none; stroke: #b0b0b0; stroke-width: 0.8; stroke-linecap: square"/>
     </g>
     <g id="line2d_21">
      <g>
       <use xlink:href="#mb35b1c2f15" x="75.919364" y="190.3975" style="stroke: #000000; stroke-width: 0.8"/>
      </g>
     </g>
     <g id="text_13">
      <!-- 0 -->
      <g transform="translate(72.738114 204.995937)scale(0.1 -0.1)">
       <use xlink:href="#DejaVuSans-30"/>
      </g>
     </g>
    </g>
    <g id="xtick_9">
     <g id="line2d_22">
      <path d="M 132.649821 190.3975 
L 132.649821 139.92 
" clip-path="url(#pc6fe6d372c)" style="fill: none; stroke: #b0b0b0; stroke-width: 0.8; stroke-linecap: square"/>
     </g>
     <g id="line2d_23">
      <g>
       <use xlink:href="#mb35b1c2f15" x="132.649821" y="190.3975" style="stroke: #000000; stroke-width: 0.8"/>
      </g>
     </g>
     <g id="text_14">
      <!-- 2 -->
      <g transform="translate(129.468571 204.995937)scale(0.1 -0.1)">
       <use xlink:href="#DejaVuSans-32"/>
      </g>
     </g>
    </g>
    <g id="xtick_10">
     <g id="line2d_24">
      <path d="M 189.380279 190.3975 
L 189.380279 139.92 
" clip-path="url(#pc6fe6d372c)" style="fill: none; stroke: #b0b0b0; stroke-width: 0.8; stroke-linecap: square"/>
     </g>
     <g id="line2d_25">
      <g>
       <use xlink:href="#mb35b1c2f15" x="189.380279" y="190.3975" style="stroke: #000000; stroke-width: 0.8"/>
      </g>
     </g>
     <g id="text_15">
      <!-- 4 -->
      <g transform="translate(186.199029 204.995937)scale(0.1 -0.1)">
       <use xlink:href="#DejaVuSans-34"/>
      </g>
     </g>
    </g>
    <g id="xtick_11">
     <g id="line2d_26">
      <path d="M 246.110736 190.3975 
L 246.110736 139.92 
" clip-path="url(#pc6fe6d372c)" style="fill: none; stroke: #b0b0b0; stroke-width: 0.8; stroke-linecap: square"/>
     </g>
     <g id="line2d_27">
      <g>
       <use xlink:href="#mb35b1c2f15" x="246.110736" y="190.3975" style="stroke: #000000; stroke-width: 0.8"/>
      </g>
     </g>
     <g id="text_16">
      <!-- 6 -->
      <g transform="translate(242.929486 204.995937)scale(0.1 -0.1)">
       <use xlink:href="#DejaVuSans-36"/>
      </g>
     </g>
    </g>
    <g id="xtick_12">
     <g id="line2d_28">
      <path d="M 302.841193 190.3975 
L 302.841193 139.92 
" clip-path="url(#pc6fe6d372c)" style="fill: none; stroke: #b0b0b0; stroke-width: 0.8; stroke-linecap: square"/>
     </g>
     <g id="line2d_29">
      <g>
       <use xlink:href="#mb35b1c2f15" x="302.841193" y="190.3975" style="stroke: #000000; stroke-width: 0.8"/>
      </g>
     </g>
     <g id="text_17">
      <!-- 8 -->
      <g transform="translate(299.659943 204.995937)scale(0.1 -0.1)">
       <use xlink:href="#DejaVuSans-38"/>
      </g>
     </g>
    </g>
    <g id="xtick_13">
     <g id="line2d_30">
      <path d="M 359.571651 190.3975 
L 359.571651 139.92 
" clip-path="url(#pc6fe6d372c)" style="fill: none; stroke: #b0b0b0; stroke-width: 0.8; stroke-linecap: square"/>
     </g>
     <g id="line2d_31">
      <g>
       <use xlink:href="#mb35b1c2f15" x="359.571651" y="190.3975" style="stroke: #000000; stroke-width: 0.8"/>
      </g>
     </g>
     <g id="text_18">
      <!-- 10 -->
      <g transform="translate(353.209151 204.995937)scale(0.1 -0.1)">
       <use xlink:href="#DejaVuSans-31"/>
       <use xlink:href="#DejaVuSans-30" x="63.623047"/>
      </g>
     </g>
    </g>
    <g id="xtick_14">
     <g id="line2d_32">
      <path d="M 416.302108 190.3975 
L 416.302108 139.92 
" clip-path="url(#pc6fe6d372c)" style="fill: none; stroke: #b0b0b0; stroke-width: 0.8; stroke-linecap: square"/>
     </g>
     <g id="line2d_33">
      <g>
       <use xlink:href="#mb35b1c2f15" x="416.302108" y="190.3975" style="stroke: #000000; stroke-width: 0.8"/>
      </g>
     </g>
     <g id="text_19">
      <!-- 12 -->
      <g transform="translate(409.939608 204.995937)scale(0.1 -0.1)">
       <use xlink:href="#DejaVuSans-31"/>
       <use xlink:href="#DejaVuSans-32" x="63.623047"/>
      </g>
     </g>
    </g>
    <g id="text_20">
     <!-- $t$ [s] -->
     <g transform="translate(243.953 218.674062)scale(0.1 -0.1)">
      <use xlink:href="#DejaVuSans-Oblique-74" transform="translate(0 0.015625)"/>
      <use xlink:href="#DejaVuSans-20" transform="translate(39.208984 0.015625)"/>
      <use xlink:href="#DejaVuSans-5b" transform="translate(70.996094 0.015625)"/>
      <use xlink:href="#DejaVuSans-73" transform="translate(110.009766 0.015625)"/>
      <use xlink:href="#DejaVuSans-5d" transform="translate(162.109375 0.015625)"/>
     </g>
    </g>
   </g>
   <g id="matplotlib.axis_4">
    <g id="ytick_3">
     <g id="line2d_34">
      <path d="M 58.106 178.848934 
L 450 178.848934 
" clip-path="url(#pc6fe6d372c)" style="fill: none; stroke: #b0b0b0; stroke-width: 0.8; stroke-linecap: square"/>
     </g>
     <g id="line2d_35">
      <g>
       <use xlink:href="#m587586f286" x="58.106" y="178.848934" style="stroke: #000000; stroke-width: 0.8"/>
      </g>
     </g>
     <g id="text_21">
      <!-- −0.1 -->
      <g transform="translate(26.823188 182.648153)scale(0.1 -0.1)">
       <defs>
        <path id="DejaVuSans-2212" d="M 678 2272 
L 4684 2272 
L 4684 1741 
L 678 1741 
L 678 2272 
z
" transform="scale(0.015625)"/>
        <path id="DejaVuSans-2e" d="M 684 794 
L 1344 794 
L 1344 0 
L 684 0 
L 684 794 
z
" transform="scale(0.015625)"/>
       </defs>
       <use xlink:href="#DejaVuSans-2212"/>
       <use xlink:href="#DejaVuSans-30" x="83.789062"/>
       <use xlink:href="#DejaVuSans-2e" x="147.412109"/>
       <use xlink:href="#DejaVuSans-31" x="179.199219"/>
      </g>
     </g>
    </g>
    <g id="ytick_4">
     <g id="line2d_36">
      <path d="M 58.106 164.906237 
L 450 164.906237 
" clip-path="url(#pc6fe6d372c)" style="fill: none; stroke: #b0b0b0; stroke-width: 0.8; stroke-linecap: square"/>
     </g>
     <g id="line2d_37">
      <g>
       <use xlink:href="#m587586f286" x="58.106" y="164.906237" style="stroke: #000000; stroke-width: 0.8"/>
      </g>
     </g>
     <g id="text_22">
      <!-- 0.0 -->
      <g transform="translate(35.202875 168.705455)scale(0.1 -0.1)">
       <use xlink:href="#DejaVuSans-30"/>
       <use xlink:href="#DejaVuSans-2e" x="63.623047"/>
       <use xlink:href="#DejaVuSans-30" x="95.410156"/>
      </g>
     </g>
    </g>
    <g id="ytick_5">
     <g id="line2d_38">
      <path d="M 58.106 150.963539 
L 450 150.963539 
" clip-path="url(#pc6fe6d372c)" style="fill: none; stroke: #b0b0b0; stroke-width: 0.8; stroke-linecap: square"/>
     </g>
     <g id="line2d_39">
      <g>
       <use xlink:href="#m587586f286" x="58.106" y="150.963539" style="stroke: #000000; stroke-width: 0.8"/>
      </g>
     </g>
     <g id="text_23">
      <!-- 0.1 -->
      <g transform="translate(35.202875 154.762758)scale(0.1 -0.1)">
       <use xlink:href="#DejaVuSans-30"/>
       <use xlink:href="#DejaVuSans-2e" x="63.623047"/>
       <use xlink:href="#DejaVuSans-31" x="95.410156"/>
      </g>
     </g>
    </g>
    <g id="text_24">
     <!-- $e_z$ [m] -->
     <g transform="translate(20.7435 180.60875)rotate(-90)scale(0.1 -0.1)">
      <defs>
       <path id="DejaVuSans-Oblique-7a" d="M 744 3500 
L 3475 3500 
L 3372 2975 
L 738 459 
L 2913 459 
L 2822 0 
L -19 0 
L 84 525 
L 2719 3041 
L 653 3041 
L 744 3500 
z
" transform="scale(0.015625)"/>
      </defs>
      <use xlink:href="#DejaVuSans-Oblique-65" transform="translate(0 0.015625)"/>
      <use xlink:href="#DejaVuSans-Oblique-7a" transform="translate(61.523438 -16.390625)scale(0.7)"/>
      <use xlink:href="#DejaVuSans-20" transform="translate(101.000977 0.015625)"/>
      <use xlink:href="#DejaVuSans-5b" transform="translate(132.788086 0.015625)"/>
      <use xlink:href="#DejaVuSans-6d" transform="translate(171.801758 0.015625)"/>
      <use xlink:href="#DejaVuSans-5d" transform="translate(269.213867 0.015625)"/>
     </g>
    </g>
   </g>
   <g id="line2d_40">
    <path d="M 75.919364 166.214896 
L 76.48712 165.810263 
L 77.906512 164.925847 
L 78.19039 164.651543 
L 79.325903 164.252674 
L 79.89366 164.211272 
L 81.029173 164.469672 
L 81.59693 164.579509 
L 82.164686 164.63233 
L 82.732443 164.535678 
L 83.016321 164.356869 
L 83.3002 164.356869 
L 83.867956 163.921719 
L 84.435713 163.428131 
L 84.719591 162.984332 
L 86.990618 161.261899 
L 88.126131 160.67304 
L 88.410009 160.385262 
L 88.977766 159.650358 
L 89.829401 158.680148 
L 91.248792 156.077612 
L 91.816549 155.094155 
L 92.100427 154.392105 
L 93.519819 152.902624 
L 94.371453 152.65618 
L 95.223088 152.642198 
L 97.494115 152.88643 
L 98.913506 153.11319 
L 100.04902 153.39576 
L 101.184533 153.645639 
L 102.320046 153.737424 
L 103.171681 153.60383 
L 104.307194 152.939886 
L 104.874951 152.356284 
L 106.010464 151.403775 
L 106.862099 150.326145 
L 108.565369 149.13682 
L 109.700882 148.68712 
L 110.268639 148.330682 
L 110.836395 147.961044 
L 111.120273 147.710296 
L 111.68803 147.44668 
L 111.971908 147.092672 
L 114.242935 145.854246 
L 115.09457 145.675223 
L 115.378448 145.480334 
L 115.662326 145.480334 
L 116.230083 145.186703 
L 117.365596 144.614341 
L 117.933353 144.203574 
L 118.501109 143.948656 
L 118.784988 143.669082 
L 119.068866 143.669082 
L 119.636623 143.396332 
L 121.623771 142.753023 
L 122.759284 142.347477 
L 123.894797 142.215496 
L 124.462554 142.278146 
L 125.314189 142.522643 
L 125.598067 142.724495 
L 125.881945 142.724495 
L 126.449702 143.081757 
L 127.017459 143.403637 
L 127.301337 143.661663 
L 127.585215 143.661663 
L 128.152972 144.02587 
L 129.004607 144.396666 
L 129.856242 144.777731 
L 131.84339 145.821802 
L 133.54666 147.498802 
L 133.830538 147.868078 
L 134.114416 147.991699 
L 134.398294 148.237947 
L 134.682173 148.71982 
L 134.966051 148.71982 
L 135.249929 149.394604 
L 135.817686 149.703963 
L 136.669321 150.342616 
L 136.953199 150.661327 
L 138.372591 151.474993 
L 138.940347 151.974777 
L 139.791982 152.556046 
L 142.063009 154.991218 
L 144.050157 156.230901 
L 144.901792 156.599479 
L 145.469548 156.944381 
L 146.605062 157.482372 
L 147.740575 158.298773 
L 148.59221 158.773931 
L 149.159966 159.112305 
L 151.430993 159.958164 
L 152.850384 160.95452 
L 153.134263 161.164207 
L 153.418141 161.747216 
L 153.702019 161.747216 
L 153.985898 162.260707 
L 154.837532 163.086139 
L 155.405289 164.114196 
L 155.689167 164.573006 
L 155.973046 164.728229 
L 156.540802 165.359319 
L 156.824681 166.00074 
L 157.392437 166.807002 
L 157.676315 167.289529 
L 157.960194 167.449645 
L 158.244072 167.768154 
L 158.52795 168.395798 
L 159.379585 169.453239 
L 159.663464 170.030365 
L 159.947342 170.030365 
L 160.23122 170.588831 
L 161.366733 171.802761 
L 161.650612 172.341849 
L 162.786125 173.450217 
L 163.921638 175.066773 
L 164.773273 176.115829 
L 165.057151 176.697024 
L 167.612056 179.129176 
L 169.031448 179.916336 
L 170.166961 180.056563 
L 171.870231 180.083897 
L 173.573501 180.720864 
L 174.141257 181.074986 
L 175.27677 181.427208 
L 175.844527 181.46379 
L 176.696162 181.275936 
L 177.831675 180.9563 
L 178.967188 180.78329 
L 179.818823 180.913323 
L 180.670458 181.440909 
L 181.522093 181.68882 
L 181.805971 181.828623 
L 183.225363 181.833797 
L 184.644754 181.228201 
L 184.928633 181.228201 
L 185.496389 180.946425 
L 186.064146 180.75415 
L 187.199659 180.798658 
L 188.619051 181.617544 
L 188.902929 181.946098 
L 190.322321 182.710429 
L 192.309469 182.680366 
L 193.444982 182.31418 
L 194.580495 182.305865 
L 195.148252 182.497197 
L 195.43213 182.7501 
L 195.716008 182.7501 
L 196.283765 183.257561 
L 196.851522 183.727752 
L 197.1354 184.085002 
L 197.419278 184.085002 
L 197.703156 184.395744 
L 198.83867 184.905113 
L 202.529088 184.991511 
L 203.664601 185.37326 
L 203.948479 185.695237 
L 204.232357 185.695237 
L 204.800114 186.089612 
L 206.219506 186.630554 
L 207.071141 186.640913 
L 209.058289 186.349321 
L 210.193802 186.46834 
L 211.045437 186.665016 
L 211.329315 186.884729 
L 213.600342 187.132938 
L 216.439125 186.70635 
L 217.29076 186.853392 
L 218.142394 187.143973 
L 220.129543 187.632281 
L 220.981177 187.561016 
L 222.116691 187.320296 
L 222.968326 187.052495 
L 224.103839 186.852499 
L 224.955474 186.92051 
L 226.658744 187.516549 
L 227.510378 187.805089 
L 228.078135 187.943565 
L 229.213648 187.902208 
L 231.200796 187.423889 
L 232.33631 187.369906 
L 232.904066 187.441702 
L 233.755701 187.65698 
L 234.03958 187.79964 
L 234.323458 187.79964 
L 234.891214 187.989192 
L 236.026728 188.093519 
L 237.162241 187.939025 
L 239.433267 187.33688 
L 240.568781 187.358907 
L 242.839807 187.84514 
L 243.691442 187.933621 
L 244.543077 187.826555 
L 246.530225 187.503451 
L 247.949616 187.374394 
L 248.517373 187.253135 
L 251.923913 186.933007 
L 252.775548 187.195462 
L 254.762696 187.655968 
L 255.330452 187.620677 
L 259.304749 186.404004 
L 260.156384 186.548663 
L 261.859653 187.199728 
L 262.711288 187.311215 
L 263.562923 187.229847 
L 266.969463 186.286394 
L 267.821098 186.369164 
L 268.956611 186.821596 
L 269.524368 186.937594 
L 270.092124 187.114377 
L 270.943759 187.166847 
L 271.795394 187.007018 
L 274.634177 186.111871 
L 275.201934 186.02126 
L 276.053569 186.10375 
L 276.905204 186.356208 
L 278.608473 186.731897 
L 279.17623 186.702976 
L 279.460108 186.573925 
L 279.743987 186.573925 
L 280.311743 186.319613 
L 280.8795 186.122567 
L 281.731135 185.568957 
L 282.58277 185.337909 
L 283.150526 185.220149 
L 284.002161 185.300125 
L 284.569918 185.478745 
L 285.137674 185.75022 
L 286.557066 186.096109 
L 287.408701 185.997727 
L 289.111971 185.211525 
L 289.679727 184.916995 
L 289.963606 184.916995 
L 290.531362 184.742894 
L 291.099119 184.73513 
L 292.51851 185.065875 
L 293.654024 185.450956 
L 294.505658 185.509641 
L 295.073415 185.378441 
L 296.208928 184.983125 
L 296.492807 184.66801 
L 296.776685 184.66801 
L 297.344442 184.347796 
L 298.479955 184.144434 
L 299.615468 184.268672 
L 300.750981 184.611434 
L 301.886494 184.770044 
L 303.022008 184.775249 
L 306.996304 184.045849 
L 310.402844 184.083722 
L 313.525505 184.233307 
L 315.228775 183.955876 
L 317.499801 183.708158 
L 318.919193 183.966108 
L 320.054706 184.253961 
L 320.622463 184.366881 
L 321.757976 184.308006 
L 323.461246 183.74712 
L 324.880637 183.568338 
L 326.300029 183.767418 
L 328.003298 184.266611 
L 329.138812 184.317528 
L 329.990447 184.127504 
L 330.558203 183.886911 
L 332.545351 183.414497 
L 333.113108 183.439742 
L 335.951891 184.255353 
L 336.803526 184.257873 
L 337.371283 184.164049 
L 338.790674 183.766893 
L 339.074552 183.635433 
L 339.358431 183.635433 
L 339.642309 183.497034 
L 341.0617 183.542256 
L 341.345579 183.736044 
L 342.197214 183.940638 
L 343.048849 184.346812 
L 345.035997 184.480532 
L 345.603753 184.388863 
L 345.887632 184.231572 
L 346.17151 184.231572 
L 346.739267 184.033978 
L 348.158658 183.801909 
L 349.294171 183.927125 
L 350.997441 184.656486 
L 352.132954 185.276058 
L 353.552346 185.593089 
L 354.687859 185.478965 
L 354.971737 185.27955 
L 355.823372 185.092546 
L 356.107251 184.957697 
L 356.391129 184.957697 
L 356.675007 184.808464 
L 359.797669 184.565081 
L 360.081547 184.377475 
L 360.649304 184.235528 
L 360.933182 184.12209 
L 361.21706 183.850544 
L 361.500938 183.850544 
L 361.784817 183.353034 
L 362.352573 183.077302 
L 362.636452 182.890545 
L 363.204208 182.281556 
L 363.488087 182.058412 
L 364.339721 181.746045 
L 364.6236 181.551889 
L 364.907478 181.551889 
L 365.191356 181.323531 
L 366.042991 181.143763 
L 366.32687 180.968335 
L 366.610748 180.968335 
L 366.894626 180.596134 
L 367.462383 180.349452 
L 368.030139 179.958245 
L 369.165653 178.713212 
L 370.585044 177.691018 
L 371.436679 177.514924 
L 373.423827 177.35457 
L 374.55934 176.695951 
L 374.843219 176.267351 
L 375.127097 176.267351 
L 375.410975 175.549582 
L 375.978732 175.209038 
L 377.398124 174.17577 
L 378.249758 173.995315 
L 380.804663 174.031633 
L 381.37242 173.841508 
L 381.656298 173.488696 
L 381.940176 173.488696 
L 382.507933 172.984483 
L 383.359568 172.447982 
L 383.643446 172.195272 
L 384.495081 171.982228 
L 385.062838 171.971023 
L 386.198351 172.115269 
L 387.049986 172.027427 
L 388.185499 171.394596 
L 389.037134 170.344887 
L 389.604891 170.083872 
L 390.456526 169.68101 
L 391.30816 169.742046 
L 391.875917 169.98755 
L 393.01143 170.249955 
L 393.579187 170.186903 
L 394.7147 169.656311 
L 394.998578 169.46904 
L 395.282457 168.934589 
L 395.566335 168.934589 
L 395.850213 168.502885 
L 397.269605 167.510686 
L 398.12124 167.400494 
L 398.688996 167.463249 
L 399.540631 167.699729 
L 400.392266 167.798832 
L 401.527779 167.457399 
L 401.811658 167.31044 
L 402.095536 166.846589 
L 402.379414 166.846589 
L 402.663293 166.44921 
L 403.798806 165.702818 
L 404.082684 165.702818 
L 404.650441 165.549526 
L 405.218197 165.57777 
L 406.921467 166.252379 
L 407.489224 166.366677 
L 408.340859 166.278902 
L 408.624737 166.187444 
L 408.908615 165.924494 
L 409.192494 165.924494 
L 409.476372 165.385602 
L 410.044129 165.107093 
L 411.46352 164.328377 
L 412.031277 164.320961 
L 414.586181 165.280309 
L 415.437816 165.193726 
L 415.721695 165.013969 
L 416.005573 165.013969 
L 416.289451 164.579467 
L 416.857208 164.326243 
L 418.276599 163.580748 
L 419.128234 163.557051 
L 419.979869 163.825865 
L 421.399261 164.232573 
L 422.250896 164.158171 
L 422.818652 163.930336 
L 423.386409 163.477429 
L 423.954166 163.110893 
L 424.238044 162.757724 
L 424.521922 162.757724 
L 424.8058 162.363926 
L 425.941314 162.271411 
L 426.225192 162.271411 
L 428.496218 163.565099 
L 429.347853 163.726414 
L 430.199488 163.55069 
L 431.051123 163.182554 
L 431.902758 162.571557 
L 432.186636 162.474965 
L 432.186636 162.474965 
" clip-path="url(#pc6fe6d372c)" style="fill: none; stroke: #0000ff; stroke-width: 1.5; stroke-linecap: square"/>
   </g>
   <g id="patch_8">
    <path d="M 58.106 190.3975 
L 58.106 139.92 
" style="fill: none; stroke: #000000; stroke-width: 0.8; stroke-linejoin: miter; stroke-linecap: square"/>
   </g>
   <g id="patch_9">
    <path d="M 450 190.3975 
L 450 139.92 
" style="fill: none; stroke: #000000; stroke-width: 0.8; stroke-linejoin: miter; stroke-linecap: square"/>
   </g>
   <g id="patch_10">
    <path d="M 58.106 190.3975 
L 450 190.3975 
" style="fill: none; stroke: #000000; stroke-width: 0.8; stroke-linejoin: miter; stroke-linecap: square"/>
   </g>
   <g id="patch_11">
    <path d="M 58.106 139.92 
L 450 139.92 
" style="fill: none; stroke: #000000; stroke-width: 0.8; stroke-linejoin: miter; stroke-linecap: square"/>
   </g>
   <g id="text_25">
    <!-- Error in $z$-position -->
    <g transform="translate(200.773 133.92)scale(0.12 -0.12)">
     <use xlink:href="#DejaVuSans-45" transform="translate(0 0.015625)"/>
     <use xlink:href="#DejaVuSans-72" transform="translate(63.183594 0.015625)"/>
     <use xlink:href="#DejaVuSans-72" transform="translate(104.296875 0.015625)"/>
     <use xlink:href="#DejaVuSans-6f" transform="translate(145.410156 0.015625)"/>
     <use xlink:href="#DejaVuSans-72" transform="translate(206.591797 0.015625)"/>
     <use xlink:href="#DejaVuSans-20" transform="translate(247.705078 0.015625)"/>
     <use xlink:href="#DejaVuSans-69" transform="translate(279.492188 0.015625)"/>
     <use xlink:href="#DejaVuSans-6e" transform="translate(307.275391 0.015625)"/>
     <use xlink:href="#DejaVuSans-20" transform="translate(370.654297 0.015625)"/>
     <use xlink:href="#DejaVuSans-Oblique-7a" transform="translate(402.441406 0.015625)"/>
     <use xlink:href="#DejaVuSans-2d" transform="translate(454.931641 0.015625)"/>
     <use xlink:href="#DejaVuSans-70" transform="translate(491.015625 0.015625)"/>
     <use xlink:href="#DejaVuSans-6f" transform="translate(554.492188 0.015625)"/>
     <use xlink:href="#DejaVuSans-73" transform="translate(615.673828 0.015625)"/>
     <use xlink:href="#DejaVuSans-69" transform="translate(667.773438 0.015625)"/>
     <use xlink:href="#DejaVuSans-74" transform="translate(695.556641 0.015625)"/>
     <use xlink:href="#DejaVuSans-69" transform="translate(734.765625 0.015625)"/>
     <use xlink:href="#DejaVuSans-6f" transform="translate(762.548828 0.015625)"/>
     <use xlink:href="#DejaVuSans-6e" transform="translate(823.730469 0.015625)"/>
    </g>
   </g>
  </g>
  <g id="axes_3">
   <g id="patch_12">
    <path d="M 58.106 301.9975 
L 450 301.9975 
L 450 251.52 
L 58.106 251.52 
z
" style="fill: #ffffff"/>
   </g>
   <g id="matplotlib.axis_5">
    <g id="xtick_15">
     <g id="line2d_41">
      <path d="M 75.919364 301.9975 
L 75.919364 251.52 
" clip-path="url(#p20d4c118a6)" style="fill: none; stroke: #b0b0b0; stroke-width: 0.8; stroke-linecap: square"/>
     </g>
     <g id="line2d_42">
      <g>
       <use xlink:href="#mb35b1c2f15" x="75.919364" y="301.9975" style="stroke: #000000; stroke-width: 0.8"/>
      </g>
     </g>
     <g id="text_26">
      <!-- 0 -->
      <g transform="translate(72.738114 316.595937)scale(0.1 -0.1)">
       <use xlink:href="#DejaVuSans-30"/>
      </g>
     </g>
    </g>
    <g id="xtick_16">
     <g id="line2d_43">
      <path d="M 132.649821 301.9975 
L 132.649821 251.52 
" clip-path="url(#p20d4c118a6)" style="fill: none; stroke: #b0b0b0; stroke-width: 0.8; stroke-linecap: square"/>
     </g>
     <g id="line2d_44">
      <g>
       <use xlink:href="#mb35b1c2f15" x="132.649821" y="301.9975" style="stroke: #000000; stroke-width: 0.8"/>
      </g>
     </g>
     <g id="text_27">
      <!-- 2 -->
      <g transform="translate(129.468571 316.595937)scale(0.1 -0.1)">
       <use xlink:href="#DejaVuSans-32"/>
      </g>
     </g>
    </g>
    <g id="xtick_17">
     <g id="line2d_45">
      <path d="M 189.380279 301.9975 
L 189.380279 251.52 
" clip-path="url(#p20d4c118a6)" style="fill: none; stroke: #b0b0b0; stroke-width: 0.8; stroke-linecap: square"/>
     </g>
     <g id="line2d_46">
      <g>
       <use xlink:href="#mb35b1c2f15" x="189.380279" y="301.9975" style="stroke: #000000; stroke-width: 0.8"/>
      </g>
     </g>
     <g id="text_28">
      <!-- 4 -->
      <g transform="translate(186.199029 316.595937)scale(0.1 -0.1)">
       <use xlink:href="#DejaVuSans-34"/>
      </g>
     </g>
    </g>
    <g id="xtick_18">
     <g id="line2d_47">
      <path d="M 246.110736 301.9975 
L 246.110736 251.52 
" clip-path="url(#p20d4c118a6)" style="fill: none; stroke: #b0b0b0; stroke-width: 0.8; stroke-linecap: square"/>
     </g>
     <g id="line2d_48">
      <g>
       <use xlink:href="#mb35b1c2f15" x="246.110736" y="301.9975" style="stroke: #000000; stroke-width: 0.8"/>
      </g>
     </g>
     <g id="text_29">
      <!-- 6 -->
      <g transform="translate(242.929486 316.595937)scale(0.1 -0.1)">
       <use xlink:href="#DejaVuSans-36"/>
      </g>
     </g>
    </g>
    <g id="xtick_19">
     <g id="line2d_49">
      <path d="M 302.841193 301.9975 
L 302.841193 251.52 
" clip-path="url(#p20d4c118a6)" style="fill: none; stroke: #b0b0b0; stroke-width: 0.8; stroke-linecap: square"/>
     </g>
     <g id="line2d_50">
      <g>
       <use xlink:href="#mb35b1c2f15" x="302.841193" y="301.9975" style="stroke: #000000; stroke-width: 0.8"/>
      </g>
     </g>
     <g id="text_30">
      <!-- 8 -->
      <g transform="translate(299.659943 316.595937)scale(0.1 -0.1)">
       <use xlink:href="#DejaVuSans-38"/>
      </g>
     </g>
    </g>
    <g id="xtick_20">
     <g id="line2d_51">
      <path d="M 359.571651 301.9975 
L 359.571651 251.52 
" clip-path="url(#p20d4c118a6)" style="fill: none; stroke: #b0b0b0; stroke-width: 0.8; stroke-linecap: square"/>
     </g>
     <g id="line2d_52">
      <g>
       <use xlink:href="#mb35b1c2f15" x="359.571651" y="301.9975" style="stroke: #000000; stroke-width: 0.8"/>
      </g>
     </g>
     <g id="text_31">
      <!-- 10 -->
      <g transform="translate(353.209151 316.595937)scale(0.1 -0.1)">
       <use xlink:href="#DejaVuSans-31"/>
       <use xlink:href="#DejaVuSans-30" x="63.623047"/>
      </g>
     </g>
    </g>
    <g id="xtick_21">
     <g id="line2d_53">
      <path d="M 416.302108 301.9975 
L 416.302108 251.52 
" clip-path="url(#p20d4c118a6)" style="fill: none; stroke: #b0b0b0; stroke-width: 0.8; stroke-linecap: square"/>
     </g>
     <g id="line2d_54">
      <g>
       <use xlink:href="#mb35b1c2f15" x="416.302108" y="301.9975" style="stroke: #000000; stroke-width: 0.8"/>
      </g>
     </g>
     <g id="text_32">
      <!-- 12 -->
      <g transform="translate(409.939608 316.595937)scale(0.1 -0.1)">
       <use xlink:href="#DejaVuSans-31"/>
       <use xlink:href="#DejaVuSans-32" x="63.623047"/>
      </g>
     </g>
    </g>
    <g id="text_33">
     <!-- $t$ [s] -->
     <g transform="translate(243.953 330.274063)scale(0.1 -0.1)">
      <use xlink:href="#DejaVuSans-Oblique-74" transform="translate(0 0.015625)"/>
      <use xlink:href="#DejaVuSans-20" transform="translate(39.208984 0.015625)"/>
      <use xlink:href="#DejaVuSans-5b" transform="translate(70.996094 0.015625)"/>
      <use xlink:href="#DejaVuSans-73" transform="translate(110.009766 0.015625)"/>
      <use xlink:href="#DejaVuSans-5d" transform="translate(162.109375 0.015625)"/>
     </g>
    </g>
   </g>
   <g id="matplotlib.axis_6">
    <g id="ytick_6">
     <g id="line2d_55">
      <path d="M 58.106 295.613631 
L 450 295.613631 
" clip-path="url(#p20d4c118a6)" style="fill: none; stroke: #b0b0b0; stroke-width: 0.8; stroke-linecap: square"/>
     </g>
     <g id="line2d_56">
      <g>
       <use xlink:href="#m587586f286" x="58.106" y="295.613631" style="stroke: #000000; stroke-width: 0.8"/>
      </g>
     </g>
     <g id="text_34">
      <!-- −0.1 -->
      <g transform="translate(26.823188 299.41285)scale(0.1 -0.1)">
       <use xlink:href="#DejaVuSans-2212"/>
       <use xlink:href="#DejaVuSans-30" x="83.789062"/>
       <use xlink:href="#DejaVuSans-2e" x="147.412109"/>
       <use xlink:href="#DejaVuSans-31" x="179.199219"/>
      </g>
     </g>
    </g>
    <g id="ytick_7">
     <g id="line2d_57">
      <path d="M 58.106 277.216048 
L 450 277.216048 
" clip-path="url(#p20d4c118a6)" style="fill: none; stroke: #b0b0b0; stroke-width: 0.8; stroke-linecap: square"/>
     </g>
     <g id="line2d_58">
      <g>
       <use xlink:href="#m587586f286" x="58.106" y="277.216048" style="stroke: #000000; stroke-width: 0.8"/>
      </g>
     </g>
     <g id="text_35">
      <!-- 0.0 -->
      <g transform="translate(35.202875 281.015267)scale(0.1 -0.1)">
       <use xlink:href="#DejaVuSans-30"/>
       <use xlink:href="#DejaVuSans-2e" x="63.623047"/>
       <use xlink:href="#DejaVuSans-30" x="95.410156"/>
      </g>
     </g>
    </g>
    <g id="ytick_8">
     <g id="line2d_59">
      <path d="M 58.106 258.818466 
L 450 258.818466 
" clip-path="url(#p20d4c118a6)" style="fill: none; stroke: #b0b0b0; stroke-width: 0.8; stroke-linecap: square"/>
     </g>
     <g id="line2d_60">
      <g>
       <use xlink:href="#m587586f286" x="58.106" y="258.818466" style="stroke: #000000; stroke-width: 0.8"/>
      </g>
     </g>
     <g id="text_36">
      <!-- 0.1 -->
      <g transform="translate(35.202875 262.617685)scale(0.1 -0.1)">
       <use xlink:href="#DejaVuSans-30"/>
       <use xlink:href="#DejaVuSans-2e" x="63.623047"/>
       <use xlink:href="#DejaVuSans-31" x="95.410156"/>
      </g>
     </g>
    </g>
    <g id="text_37">
     <!-- $e_\theta$ [rad] -->
     <g transform="translate(20.7435 295.90875)rotate(-90)scale(0.1 -0.1)">
      <defs>
       <path id="DejaVuSans-Oblique-3b8" d="M 2913 2219 
L 925 2219 
Q 791 1284 928 888 
Q 1100 400 1566 400 
Q 2034 400 2391 891 
Q 2703 1322 2913 2219 
z
M 3009 2750 
Q 3094 3638 2984 3950 
Q 2813 4444 2353 4444 
Q 1875 4444 1525 3956 
Q 1250 3563 1034 2750 
L 3009 2750 
z
M 2444 4913 
Q 3194 4913 3494 4250 
Q 3794 3591 3566 2422 
Q 3341 1256 2781 594 
Q 2225 -72 1475 -72 
Q 722 -72 425 594 
Q 128 1256 353 2422 
Q 581 3591 1134 4250 
Q 1691 4913 2444 4913 
z
" transform="scale(0.015625)"/>
       <path id="DejaVuSans-61" d="M 2194 1759 
Q 1497 1759 1228 1600 
Q 959 1441 959 1056 
Q 959 750 1161 570 
Q 1363 391 1709 391 
Q 2188 391 2477 730 
Q 2766 1069 2766 1631 
L 2766 1759 
L 2194 1759 
z
M 3341 1997 
L 3341 0 
L 2766 0 
L 2766 531 
Q 2569 213 2275 61 
Q 1981 -91 1556 -91 
Q 1019 -91 701 211 
Q 384 513 384 1019 
Q 384 1609 779 1909 
Q 1175 2209 1959 2209 
L 2766 2209 
L 2766 2266 
Q 2766 2663 2505 2880 
Q 2244 3097 1772 3097 
Q 1472 3097 1187 3025 
Q 903 2953 641 2809 
L 641 3341 
Q 956 3463 1253 3523 
Q 1550 3584 1831 3584 
Q 2591 3584 2966 3190 
Q 3341 2797 3341 1997 
z
" transform="scale(0.015625)"/>
       <path id="DejaVuSans-64" d="M 2906 2969 
L 2906 4863 
L 3481 4863 
L 3481 0 
L 2906 0 
L 2906 525 
Q 2725 213 2448 61 
Q 2172 -91 1784 -91 
Q 1150 -91 751 415 
Q 353 922 353 1747 
Q 353 2572 751 3078 
Q 1150 3584 1784 3584 
Q 2172 3584 2448 3432 
Q 2725 3281 2906 2969 
z
M 947 1747 
Q 947 1113 1208 752 
Q 1469 391 1925 391 
Q 2381 391 2643 752 
Q 2906 1113 2906 1747 
Q 2906 2381 2643 2742 
Q 2381 3103 1925 3103 
Q 1469 3103 1208 2742 
Q 947 2381 947 1747 
z
" transform="scale(0.015625)"/>
      </defs>
      <use xlink:href="#DejaVuSans-Oblique-65" transform="translate(0 0.015625)"/>
      <use xlink:href="#DejaVuSans-Oblique-3b8" transform="translate(61.523438 -16.390625)scale(0.7)"/>
      <use xlink:href="#DejaVuSans-20" transform="translate(107.084961 0.015625)"/>
      <use xlink:href="#DejaVuSans-5b" transform="translate(138.87207 0.015625)"/>
      <use xlink:href="#DejaVuSans-72" transform="translate(177.885742 0.015625)"/>
      <use xlink:href="#DejaVuSans-61" transform="translate(218.999023 0.015625)"/>
      <use xlink:href="#DejaVuSans-64" transform="translate(280.27832 0.015625)"/>
      <use xlink:href="#DejaVuSans-5d" transform="translate(343.754883 0.015625)"/>
     </g>
    </g>
   </g>
   <g id="line2d_61">
    <path d="M 75.919364 277.132571 
L 76.203242 276.769971 
L 76.48712 275.834178 
L 77.054877 274.979971 
L 77.622633 273.631588 
L 77.906512 272.105494 
L 78.19039 269.55214 
L 79.325903 263.938715 
L 79.609782 262.149497 
L 79.89366 262.149497 
L 80.177538 260.934478 
L 80.745295 260.29683 
L 81.029173 260.218659 
L 81.313051 260.683198 
L 81.59693 260.683198 
L 82.164686 262.4468 
L 82.448565 263.283006 
L 82.732443 264.744759 
L 83.016321 267.040383 
L 83.3002 267.040383 
L 83.584078 269.682971 
L 84.151834 272.737757 
L 84.435713 275.405008 
L 84.719591 279.54414 
L 86.706739 295.885764 
L 87.274496 297.456941 
L 87.842252 298.404438 
L 88.693887 299.488318 
L 89.261644 299.54357 
L 89.829401 299.404732 
L 90.113279 299.100343 
L 90.964914 295.115931 
L 91.53267 291.177647 
L 91.816549 287.718028 
L 92.100427 282.862867 
L 93.23594 272.554151 
L 93.519819 268.538668 
L 94.655332 261.869618 
L 95.223088 258.865287 
L 95.506967 257.242633 
L 96.074723 256.240763 
L 96.64248 255.704805 
L 96.926358 255.523047 
L 97.494115 255.550433 
L 98.061871 255.813312 
L 98.34575 256.444096 
L 98.629628 256.444096 
L 99.197385 257.741146 
L 99.765141 258.949077 
L 100.616776 263.194276 
L 100.900654 263.72822 
L 101.468411 266.111547 
L 101.752289 268.939607 
L 102.036168 270.54118 
L 102.887803 279.171551 
L 103.171681 279.171551 
L 103.455559 283.410236 
L 104.307194 290.560283 
L 104.591072 294.088555 
L 105.158829 296.884266 
L 105.726586 298.588715 
L 106.010464 298.927688 
L 106.294342 298.762207 
L 107.997612 290.243833 
L 108.28149 287.250252 
L 109.700882 279.562545 
L 109.98476 277.430861 
L 110.552517 276.024558 
L 110.836395 275.57128 
L 111.404152 275.855425 
L 111.68803 276.321289 
L 111.971908 277.673525 
L 112.539665 279.460907 
L 113.107422 280.780556 
L 113.3913 280.780556 
L 113.675178 280.974739 
L 113.959057 280.813794 
L 114.242935 280.504867 
L 114.810691 280.205572 
L 115.378448 279.957078 
L 115.662326 279.957078 
L 116.513961 280.329702 
L 117.081718 280.385532 
L 117.365596 280.157992 
L 118.501109 276.516115 
L 118.784988 273.105012 
L 119.068866 273.105012 
L 119.352744 269.99471 
L 120.488258 262.998746 
L 120.772136 260.401511 
L 121.339892 258.389885 
L 121.907649 256.84237 
L 122.191527 256.466222 
L 122.475406 256.466222 
L 123.327041 257.290626 
L 123.894797 258.590795 
L 124.178675 258.590795 
L 124.462554 259.378369 
L 125.03031 260.190094 
L 125.598067 261.501248 
L 125.881945 261.501248 
L 126.165824 262.033341 
L 126.73358 262.324273 
L 127.017459 262.349813 
L 127.301337 262.111127 
L 127.585215 262.111127 
L 128.43685 260.861386 
L 128.720728 260.434306 
L 129.288485 260.114962 
L 129.572363 259.942122 
L 129.856242 259.989301 
L 130.14012 260.242558 
L 130.423998 260.699158 
L 130.707876 260.890996 
L 130.991755 261.327952 
L 131.275633 262.367749 
L 131.84339 263.518124 
L 132.695025 266.042774 
L 133.830538 267.708508 
L 134.966051 268.005219 
L 135.249929 268.333395 
L 135.533808 268.433133 
L 136.101564 268.99864 
L 136.385443 269.380646 
L 136.669321 270.052143 
L 136.953199 271.037973 
L 138.372591 273.530981 
L 138.656469 274.313924 
L 140.075861 276.409881 
L 140.359739 277.151184 
L 141.211374 278.309217 
L 142.346887 280.65975 
L 142.914644 281.58787 
L 143.766279 283.605482 
L 144.901792 285.127564 
L 145.18567 285.40965 
L 145.753427 285.46889 
L 146.321183 285.295352 
L 146.605062 285.102296 
L 146.88894 284.642901 
L 147.456696 283.081379 
L 148.308331 280.672413 
L 148.59221 279.205883 
L 148.876088 277.130525 
L 150.863236 269.992035 
L 151.714871 268.571634 
L 151.998749 267.665023 
L 152.566506 266.518271 
L 153.134263 265.042271 
L 153.418141 262.808754 
L 153.702019 262.808754 
L 153.985898 260.839298 
L 155.689167 255.134598 
L 156.540802 254.610254 
L 156.824681 254.433231 
L 157.960194 254.402623 
L 158.811829 254.506641 
L 159.379585 254.755126 
L 159.663464 255.143294 
L 159.947342 255.143294 
L 160.515099 256.126252 
L 161.082855 257.017081 
L 161.93449 259.143778 
L 163.353882 261.293361 
L 164.205516 261.72774 
L 166.760421 262.740168 
L 167.328178 263.361072 
L 167.895934 264.002531 
L 168.747569 266.458273 
L 169.031448 266.745376 
L 170.450839 269.565428 
L 171.018596 269.682827 
L 171.586352 269.465794 
L 171.870231 269.147957 
L 172.154109 268.632981 
L 172.721866 268.200806 
L 173.289622 268.010156 
L 173.573501 268.134615 
L 174.425135 270.547941 
L 174.992892 273.151349 
L 175.27677 275.622627 
L 175.560649 279.363813 
L 176.412284 285.115169 
L 176.696162 288.270848 
L 176.98004 289.72087 
L 177.263919 290.198167 
L 177.547797 290.145505 
L 177.831675 289.748056 
L 178.115553 288.991748 
L 178.399432 286.615754 
L 178.68331 286.615754 
L 178.967188 281.82789 
L 179.251067 280.9765 
L 179.818823 277.618779 
L 180.102702 274.625742 
L 180.670458 271.656417 
L 181.238215 271.142782 
L 181.522093 271.24202 
L 181.805971 272.53549 
L 182.08985 272.53549 
L 182.373728 276.726691 
L 182.657606 277.603432 
L 183.225363 281.28649 
L 183.509241 284.797565 
L 184.076998 287.632776 
L 184.360876 288.066655 
L 184.644754 287.483774 
L 184.928633 287.483774 
L 187.199659 269.351524 
L 187.483537 265.436655 
L 188.619051 258.795758 
L 188.902929 257.916016 
L 189.186807 258.151289 
L 189.470686 258.823943 
L 189.754564 259.889207 
L 190.038442 262.109176 
L 190.322321 265.911761 
L 190.606199 265.911761 
L 190.890077 270.138208 
L 192.02559 278.398846 
L 192.309469 278.398846 
L 192.593347 278.129291 
L 192.877225 277.33762 
L 194.012739 270.418923 
L 194.296617 266.636254 
L 195.148252 260.279559 
L 195.43213 257.088251 
L 195.716008 257.088251 
L 195.999887 254.794732 
L 196.283765 254.113258 
L 196.567643 253.814432 
L 196.851522 254.152914 
L 197.1354 256.057101 
L 197.419278 256.057101 
L 197.987035 261.306847 
L 198.270913 263.453392 
L 198.83867 271.029436 
L 199.122548 271.029436 
L 199.406426 274.715283 
L 199.974183 277.252836 
L 200.258061 278.090042 
L 200.54194 277.616045 
L 201.109696 275.614714 
L 201.961331 270.992854 
L 202.812966 263.578628 
L 203.948479 257.788539 
L 204.232357 257.788539 
L 204.516236 258.145178 
L 204.800114 258.928922 
L 205.367871 261.578025 
L 205.651749 266.45951 
L 205.935627 266.45951 
L 206.219506 271.039588 
L 207.638897 281.645942 
L 207.922775 281.676817 
L 208.206654 281.488346 
L 208.490532 280.858985 
L 208.77441 279.94729 
L 209.626045 273.230015 
L 209.909924 272.500652 
L 210.47768 269.649751 
L 210.761558 267.208307 
L 211.045437 267.208307 
L 211.329315 265.366927 
L 211.613193 265.336429 
L 211.897072 265.530274 
L 212.18095 266.075869 
L 212.748707 270.554082 
L 213.032585 273.374645 
L 213.600342 275.388952 
L 214.168098 281.989234 
L 214.735855 284.170866 
L 215.019733 284.696629 
L 215.58749 284.70785 
L 215.871368 282.358777 
L 216.155246 281.751173 
L 216.723003 278.93042 
L 217.006881 274.866152 
L 217.29076 274.866152 
L 217.574638 271.526077 
L 218.426273 267.032965 
L 218.994029 265.262042 
L 219.277908 265.745997 
L 219.845664 267.772165 
L 220.129543 269.237006 
L 220.413421 271.815272 
L 220.697299 275.65323 
L 221.548934 280.957558 
L 222.116691 283.529772 
L 222.400569 283.629548 
L 222.684447 283.035508 
L 223.252204 280.778584 
L 223.536082 278.410765 
L 223.819961 274.731631 
L 224.103839 274.731631 
L 224.387717 270.820425 
L 224.955474 266.934733 
L 225.52323 260.970209 
L 225.807109 260.970209 
L 226.090987 258.658528 
L 226.374865 257.994455 
L 226.658744 257.717133 
L 226.942622 258.114974 
L 227.2265 260.121291 
L 227.510378 260.121291 
L 227.794257 263.486396 
L 228.362013 267.635898 
L 228.92977 274.893411 
L 229.213648 274.893411 
L 229.497527 277.863936 
L 229.781405 278.774391 
L 230.065283 279.237674 
L 230.349162 279.086957 
L 230.63304 277.465849 
L 230.916918 277.465849 
L 231.200796 274.658939 
L 231.768553 271.218394 
L 232.33631 264.902399 
L 232.620188 264.902399 
L 232.904066 261.502059 
L 233.755701 256.906832 
L 234.03958 256.191813 
L 234.323458 256.191813 
L 234.891214 258.372031 
L 235.458971 261.636636 
L 235.742849 264.721737 
L 236.026728 269.229769 
L 237.162241 277.562858 
L 237.446119 279.553468 
L 237.729997 280.621899 
L 238.013876 280.474352 
L 238.297754 279.926737 
L 238.865511 277.87898 
L 239.149389 275.78453 
L 239.433267 272.639019 
L 240.852659 264.097101 
L 241.136537 261.913885 
L 241.420415 261.25194 
L 241.704294 260.952786 
L 241.988172 261.034639 
L 242.27205 261.504963 
L 242.555929 262.368045 
L 242.839807 264.335489 
L 243.123685 267.957134 
L 243.97532 274.512483 
L 244.543077 281.626485 
L 244.826955 283.455609 
L 245.394712 284.321458 
L 245.67859 284.352046 
L 245.962468 283.229609 
L 246.246347 283.229609 
L 246.530225 279.377626 
L 246.814103 278.580927 
L 247.38186 275.191992 
L 247.665738 271.685734 
L 247.949616 271.685734 
L 248.233495 266.823638 
L 248.517373 266.105505 
L 249.08513 263.799088 
L 249.369008 262.889941 
L 249.652886 263.077368 
L 249.936765 264.130633 
L 250.220643 265.994381 
L 250.504521 266.759417 
L 250.788399 268.457995 
L 251.072278 272.354572 
L 251.923913 279.179853 
L 252.207791 282.344086 
L 252.491669 282.344086 
L 252.775548 284.274904 
L 253.059426 284.687496 
L 253.343304 284.705486 
L 253.627183 284.031548 
L 253.911061 282.011181 
L 254.194939 282.011181 
L 254.478817 279.078367 
L 255.046574 275.658029 
L 255.614331 269.480746 
L 255.898209 269.480746 
L 256.182087 266.378458 
L 256.749844 264.167147 
L 257.033722 263.490948 
L 257.317601 264.085113 
L 257.601479 264.085113 
L 258.169235 267.591607 
L 258.736992 270.965525 
L 259.588627 279.15345 
L 260.440262 283.552646 
L 260.72414 284.152046 
L 261.008018 284.152046 
L 261.575775 282.001092 
L 262.42741 276.245251 
L 262.711288 274.284007 
L 262.995167 270.238628 
L 263.279045 268.211852 
L 263.846802 262.562656 
L 264.13068 261.714869 
L 264.698436 258.27655 
L 264.982315 258.27655 
L 265.550071 259.091868 
L 266.117828 261.568348 
L 266.401706 265.016803 
L 266.685585 266.98516 
L 267.253341 273.148635 
L 267.537219 274.151244 
L 267.821098 276.044383 
L 268.104976 279.06765 
L 268.672733 280.893399 
L 268.956611 280.793314 
L 269.240489 280.574501 
L 269.524368 279.882971 
L 270.659881 270.985864 
L 270.943759 270.064516 
L 271.227637 268.209611 
L 271.511516 264.609413 
L 272.647029 258.264167 
L 272.930907 258.264167 
L 273.214786 258.508425 
L 273.498664 259.262345 
L 273.782542 260.411657 
L 274.06642 262.764836 
L 274.350299 266.727851 
L 274.634177 266.727851 
L 274.918055 271.15812 
L 276.337447 282.362421 
L 276.621325 282.92653 
L 276.905204 283.096435 
L 277.189082 282.892707 
L 277.47296 282.342345 
L 277.756838 280.946955 
L 278.040717 278.261811 
L 279.17623 271.415957 
L 279.460108 267.06157 
L 279.743987 267.06157 
L 280.027865 264.021143 
L 280.595622 261.851765 
L 280.8795 261.243583 
L 281.163378 261.301149 
L 281.447256 262.455891 
L 281.731135 264.397883 
L 282.015013 265.177449 
L 282.58277 268.756909 
L 282.866648 273.638903 
L 283.150526 273.638903 
L 283.434405 277.377469 
L 284.286039 281.971292 
L 284.569918 283.434907 
L 284.853796 284.203849 
L 285.137674 284.089788 
L 285.421553 283.664531 
L 285.705431 282.517208 
L 285.989309 280.868314 
L 286.273188 280.227976 
L 286.557066 278.8353 
L 286.840944 275.728321 
L 287.124823 274.099182 
L 287.692579 269.301901 
L 287.976457 268.553463 
L 288.260336 267.172214 
L 288.544214 265.070898 
L 288.828092 264.479751 
L 289.111971 264.265597 
L 289.395849 264.748473 
L 289.679727 265.804928 
L 289.963606 265.804928 
L 290.531362 269.284216 
L 291.382997 275.50845 
L 291.666875 275.50845 
L 291.950754 277.775892 
L 292.802389 280.233549 
L 293.086267 280.67981 
L 293.370145 280.657756 
L 293.654024 280.484809 
L 294.22178 279.722116 
L 294.505658 279.140855 
L 294.789537 278.031784 
L 295.073415 276.154697 
L 296.208928 271.440759 
L 296.492807 268.4031 
L 296.776685 268.4031 
L 297.060563 266.313675 
L 297.62832 264.646823 
L 298.196076 263.470426 
L 298.479955 263.704561 
L 298.763833 264.481363 
L 299.047711 264.856086 
L 299.615468 266.898125 
L 299.899346 269.746471 
L 300.183225 271.393168 
L 301.034859 279.286695 
L 301.318738 279.286695 
L 301.602616 282.19872 
L 301.886494 283.788342 
L 302.170373 284.664026 
L 302.454251 284.776512 
L 302.738129 284.73402 
L 303.022008 284.341626 
L 303.305886 281.986752 
L 303.589764 281.986752 
L 303.873643 279.070199 
L 304.725277 273.817828 
L 305.009156 270.20932 
L 305.293034 270.20932 
L 305.576912 265.144863 
L 305.860791 264.396279 
L 306.712426 260.240611 
L 306.996304 259.995166 
L 307.280182 260.372742 
L 307.56406 261.639037 
L 307.847939 263.738011 
L 308.131817 263.738011 
L 308.415695 267.56928 
L 308.983452 272.1566 
L 309.835087 281.822737 
L 310.402844 284.633668 
L 310.686722 285.535896 
L 310.9706 286.049755 
L 311.254478 286.069705 
L 312.389992 280.76344 
L 312.67387 278.190901 
L 312.957748 274.498059 
L 314.944896 261.978237 
L 315.228775 261.585475 
L 315.512653 261.547315 
L 315.796531 261.871901 
L 316.08041 263.061557 
L 316.364288 265.879335 
L 316.648166 265.879335 
L 316.932045 269.75587 
L 317.215923 271.909329 
L 317.783679 278.283331 
L 318.067558 279.18948 
L 318.351436 280.814699 
L 318.635314 283.213828 
L 319.203071 284.332633 
L 319.770828 283.829163 
L 320.054706 283.187115 
L 320.622463 280.031777 
L 320.906341 278.663587 
L 321.474097 273.347875 
L 321.757976 273.347875 
L 322.041854 270.326031 
L 322.893489 266.763306 
L 323.177367 265.737508 
L 323.461246 265.361683 
L 323.745124 265.622024 
L 324.029002 266.183142 
L 324.596759 268.132321 
L 324.880637 270.189318 
L 325.164515 273.384127 
L 326.583907 281.110824 
L 326.867785 282.263852 
L 327.151664 282.416918 
L 327.435542 282.306629 
L 327.71942 281.955758 
L 328.287177 280.607985 
L 328.571055 279.105989 
L 328.854933 276.607086 
L 329.706568 272.391088 
L 330.274325 267.92261 
L 330.842081 266.251952 
L 331.12596 265.736307 
L 331.409838 265.461854 
L 331.693716 265.559567 
L 332.82923 270.098418 
L 333.396986 275.099574 
L 333.680865 275.099574 
L 333.964743 277.662731 
L 334.816378 280.672308 
L 335.384134 280.740243 
L 335.951891 279.264105 
L 336.519648 276.118477 
L 336.803526 274.178891 
L 337.087404 274.178891 
L 337.371283 271.522864 
L 338.222917 267.495678 
L 338.790674 266.911762 
L 339.074552 267.161113 
L 339.358431 267.161113 
L 339.642309 269.638894 
L 339.926187 270.237239 
L 340.493944 272.912464 
L 340.777822 275.740761 
L 341.0617 275.740761 
L 341.345579 279.579192 
L 341.629457 280.117735 
L 342.197214 281.822606 
L 342.481092 282.514187 
L 342.76497 282.258933 
L 343.048849 281.357898 
L 343.332727 280.926935 
L 343.900484 278.670602 
L 344.184362 277.282503 
L 345.319875 268.901466 
L 345.603753 267.579844 
L 345.887632 265.095166 
L 346.17151 265.095166 
L 346.455388 264.374776 
L 346.739267 264.526147 
L 347.023145 265.004463 
L 347.307023 265.799822 
L 347.590901 268.211192 
L 347.87478 268.211192 
L 348.158658 272.971043 
L 348.442536 273.790046 
L 349.861928 281.941209 
L 350.429685 282.972898 
L 350.713563 283.193354 
L 350.997441 283.209345 
L 351.281319 282.81795 
L 351.849076 280.697802 
L 352.416833 278.722682 
L 352.700711 276.741592 
L 352.984589 276.741592 
L 353.268468 274.445125 
L 353.552346 274.167345 
L 354.120102 273.337975 
L 354.403981 273.009256 
L 354.687859 273.009256 
L 354.971737 273.375474 
L 355.255616 273.509598 
L 355.823372 274.170978 
L 356.107251 274.960223 
L 356.391129 274.960223 
L 356.675007 276.176653 
L 356.958886 276.369638 
L 357.526642 277.08248 
L 357.81052 277.676146 
L 358.094399 277.676146 
L 358.378277 278.224213 
L 359.229912 278.298489 
L 359.51379 278.010701 
L 359.797669 278.010701 
L 360.081547 276.851824 
L 360.365425 276.569609 
L 360.933182 275.198132 
L 361.21706 273.475537 
L 361.500938 273.475537 
L 361.784817 270.490777 
L 362.068695 269.975728 
L 362.636452 268.005472 
L 362.92033 266.348111 
L 363.204208 265.48277 
L 363.488087 264.99149 
L 364.055843 264.871195 
L 364.339721 264.989668 
L 364.6236 265.660141 
L 364.907478 265.660141 
L 365.191356 267.429951 
L 365.475235 267.775217 
L 366.042991 269.182189 
L 366.32687 270.457127 
L 366.610748 270.457127 
L 366.894626 271.709171 
L 367.746261 271.950927 
L 368.030139 271.828895 
L 368.314018 271.446781 
L 368.597896 270.712026 
L 369.449531 269.754038 
L 370.017288 269.525485 
L 370.868922 270.240119 
L 371.436679 271.061864 
L 372.572192 273.867325 
L 373.139949 274.578609 
L 373.423827 274.83962 
L 373.707706 274.753036 
L 374.275462 274.222703 
L 374.55934 273.837914 
L 374.843219 273.000273 
L 375.127097 273.000273 
L 375.410975 272.351791 
L 375.694854 272.36492 
L 375.978732 272.51212 
L 376.546489 273.284503 
L 376.830367 274.232951 
L 377.114245 275.889458 
L 377.96588 279.003187 
L 378.817515 283.979368 
L 379.66915 286.450737 
L 379.953028 287.256617 
L 380.236907 287.256617 
L 380.804663 286.153385 
L 381.37242 284.282368 
L 381.656298 281.057259 
L 381.940176 281.057259 
L 382.224055 278.478491 
L 382.791811 276.628808 
L 383.07569 276.108747 
L 383.359568 275.874418 
L 385.062838 279.027623 
L 385.346716 280.068956 
L 387.049986 283.164505 
L 387.333864 283.572322 
L 387.617742 283.618766 
L 387.901621 283.54677 
L 388.185499 283.3515 
L 388.753256 281.656689 
L 389.037134 280.454383 
L 389.321012 280.010014 
L 389.888769 278.158715 
L 390.456526 275.208293 
L 390.740404 274.218347 
L 391.024282 273.929856 
L 391.592039 273.103834 
L 391.875917 272.961121 
L 392.159795 273.143454 
L 392.443674 273.666596 
L 392.727552 274.43658 
L 393.01143 274.740872 
L 393.295309 275.411944 
L 393.863065 278.24649 
L 394.146943 279.447034 
L 394.430822 279.813899 
L 394.998578 281.023352 
L 395.282457 281.522665 
L 395.566335 281.522665 
L 396.41797 279.225256 
L 396.701848 278.191003 
L 396.985727 276.418776 
L 397.269605 273.850158 
L 398.12124 270.380953 
L 398.688996 268.708213 
L 398.972875 268.474717 
L 399.256753 268.68434 
L 399.82451 269.5645 
L 400.108388 270.161566 
L 400.392266 271.17242 
L 400.676145 272.630065 
L 401.811658 275.380717 
L 402.095536 276.634606 
L 402.379414 276.634606 
L 402.663293 277.364994 
L 403.514928 278.210083 
L 403.798806 278.08691 
L 404.082684 278.08691 
L 404.650441 276.669436 
L 405.218197 275.442542 
L 405.785954 273.555202 
L 406.069832 272.888473 
L 406.353711 272.676397 
L 407.205346 271.38312 
L 408.05698 271.364622 
L 408.624737 271.809273 
L 408.908615 272.404936 
L 409.192494 272.404936 
L 409.476372 273.291532 
L 409.76025 273.456963 
L 410.328007 274.38747 
L 410.611885 275.060503 
L 410.895763 276.302932 
L 411.179642 278.115582 
L 412.315155 281.771884 
L 412.599033 281.771884 
L 412.882912 281.99275 
L 413.16679 281.816855 
L 413.734547 280.594687 
L 414.018425 278.789523 
L 414.302303 278.789523 
L 414.586181 275.944983 
L 414.87006 275.555184 
L 415.437816 274.394574 
L 415.721695 274.000702 
L 416.005573 274.000702 
L 416.289451 274.546691 
L 416.57333 274.722805 
L 417.141086 275.697441 
L 417.424965 277.207973 
L 417.708843 277.207973 
L 417.992721 279.688362 
L 418.276599 280.026625 
L 418.844356 280.96351 
L 419.128234 281.138425 
L 419.412113 281.020993 
L 419.979869 279.833573 
L 421.115382 277.724119 
L 421.399261 277.481547 
L 421.683139 277.674749 
L 421.967017 278.09375 
L 422.534774 279.542586 
L 423.386409 283.75058 
L 423.954166 284.670858 
L 424.521922 284.607681 
L 424.8058 283.266174 
L 425.089679 282.989564 
L 425.657435 281.918647 
L 425.941314 280.78487 
L 426.225192 280.78487 
L 426.50907 280.016813 
L 427.644583 278.555826 
L 427.928462 278.83869 
L 428.21234 279.346721 
L 428.780097 281.172254 
L 429.063975 282.448968 
L 429.347853 284.732744 
L 429.631732 288.184697 
L 430.767245 294.513435 
L 431.902758 299.042198 
L 432.186636 299.703068 
L 432.186636 299.703068 
" clip-path="url(#p20d4c118a6)" style="fill: none; stroke: #008000; stroke-width: 1.5; stroke-linecap: square"/>
   </g>
   <g id="patch_13">
    <path d="M 58.106 301.9975 
L 58.106 251.52 
" style="fill: none; stroke: #000000; stroke-width: 0.8; stroke-linejoin: miter; stroke-linecap: square"/>
   </g>
   <g id="patch_14">
    <path d="M 450 301.9975 
L 450 251.52 
" style="fill: none; stroke: #000000; stroke-width: 0.8; stroke-linejoin: miter; stroke-linecap: square"/>
   </g>
   <g id="patch_15">
    <path d="M 58.106 301.9975 
L 450 301.9975 
" style="fill: none; stroke: #000000; stroke-width: 0.8; stroke-linejoin: miter; stroke-linecap: square"/>
   </g>
   <g id="patch_16">
    <path d="M 58.106 251.52 
L 450 251.52 
" style="fill: none; stroke: #000000; stroke-width: 0.8; stroke-linejoin: miter; stroke-linecap: square"/>
   </g>
   <g id="text_38">
    <!-- Error in swing angle -->
    <g transform="translate(194.282688 245.52)scale(0.12 -0.12)">
     <defs>
      <path id="DejaVuSans-77" d="M 269 3500 
L 844 3500 
L 1563 769 
L 2278 3500 
L 2956 3500 
L 3675 769 
L 4391 3500 
L 4966 3500 
L 4050 0 
L 3372 0 
L 2619 2869 
L 1863 0 
L 1184 0 
L 269 3500 
z
" transform="scale(0.015625)"/>
      <path id="DejaVuSans-67" d="M 2906 1791 
Q 2906 2416 2648 2759 
Q 2391 3103 1925 3103 
Q 1463 3103 1205 2759 
Q 947 2416 947 1791 
Q 947 1169 1205 825 
Q 1463 481 1925 481 
Q 2391 481 2648 825 
Q 2906 1169 2906 1791 
z
M 3481 434 
Q 3481 -459 3084 -895 
Q 2688 -1331 1869 -1331 
Q 1566 -1331 1297 -1286 
Q 1028 -1241 775 -1147 
L 775 -588 
Q 1028 -725 1275 -790 
Q 1522 -856 1778 -856 
Q 2344 -856 2625 -561 
Q 2906 -266 2906 331 
L 2906 616 
Q 2728 306 2450 153 
Q 2172 0 1784 0 
Q 1141 0 747 490 
Q 353 981 353 1791 
Q 353 2603 747 3093 
Q 1141 3584 1784 3584 
Q 2172 3584 2450 3431 
Q 2728 3278 2906 2969 
L 2906 3500 
L 3481 3500 
L 3481 434 
z
" transform="scale(0.015625)"/>
      <path id="DejaVuSans-6c" d="M 603 4863 
L 1178 4863 
L 1178 0 
L 603 0 
L 603 4863 
z
" transform="scale(0.015625)"/>
      <path id="DejaVuSans-65" d="M 3597 1894 
L 3597 1613 
L 953 1613 
Q 991 1019 1311 708 
Q 1631 397 2203 397 
Q 2534 397 2845 478 
Q 3156 559 3463 722 
L 3463 178 
Q 3153 47 2828 -22 
Q 2503 -91 2169 -91 
Q 1331 -91 842 396 
Q 353 884 353 1716 
Q 353 2575 817 3079 
Q 1281 3584 2069 3584 
Q 2775 3584 3186 3129 
Q 3597 2675 3597 1894 
z
M 3022 2063 
Q 3016 2534 2758 2815 
Q 2500 3097 2075 3097 
Q 1594 3097 1305 2825 
Q 1016 2553 972 2059 
L 3022 2063 
z
" transform="scale(0.015625)"/>
     </defs>
     <use xlink:href="#DejaVuSans-45"/>
     <use xlink:href="#DejaVuSans-72" x="63.183594"/>
     <use xlink:href="#DejaVuSans-72" x="102.546875"/>
     <use xlink:href="#DejaVuSans-6f" x="141.410156"/>
     <use xlink:href="#DejaVuSans-72" x="202.591797"/>
     <use xlink:href="#DejaVuSans-20" x="243.705078"/>
     <use xlink:href="#DejaVuSans-69" x="275.492188"/>
     <use xlink:href="#DejaVuSans-6e" x="303.275391"/>
     <use xlink:href="#DejaVuSans-20" x="366.654297"/>
     <use xlink:href="#DejaVuSans-73" x="398.441406"/>
     <use xlink:href="#DejaVuSans-77" x="450.541016"/>
     <use xlink:href="#DejaVuSans-69" x="532.328125"/>
     <use xlink:href="#DejaVuSans-6e" x="560.111328"/>
     <use xlink:href="#DejaVuSans-67" x="623.490234"/>
     <use xlink:href="#DejaVuSans-20" x="686.966797"/>
     <use xlink:href="#DejaVuSans-61" x="718.753906"/>
     <use xlink:href="#DejaVuSans-6e" x="780.033203"/>
     <use xlink:href="#DejaVuSans-67" x="843.412109"/>
     <use xlink:href="#DejaVuSans-6c" x="906.888672"/>
     <use xlink:href="#DejaVuSans-65" x="934.671875"/>
    </g>
   </g>
  </g>
 </g>
 <defs>
  <clipPath id="paa9a5cc05e">
   <rect x="58.106" y="28.32" width="391.894" height="50.4775"/>
  </clipPath>
  <clipPath id="pc6fe6d372c">
   <rect x="58.106" y="139.92" width="391.894" height="50.4775"/>
  </clipPath>
  <clipPath id="p20d4c118a6">
   <rect x="58.106" y="251.52" width="391.894" height="50.4775"/>
  </clipPath>
 </defs>
</svg>
