<?xml version="1.0" encoding="utf-8" standalone="no"?>
<!DOCTYPE svg PUBLIC "-//W3C//DTD SVG 1.1//EN"
  "http://www.w3.org/Graphics/SVG/1.1/DTD/svg11.dtd">
<svg xmlns:xlink="http://www.w3.org/1999/xlink" width="460.8pt" height="345.6pt" viewBox="0 0 460.8 345.6" xmlns="http://www.w3.org/2000/svg" version="1.1">
 <metadata>
  <rdf:RDF xmlns:dc="http://purl.org/dc/elements/1.1/" xmlns:cc="http://creativecommons.org/ns#" xmlns:rdf="http://www.w3.org/1999/02/22-rdf-syntax-ns#">
   <cc:Work>
    <dc:type rdf:resource="http://purl.org/dc/dcmitype/StillImage"/>
    <dc:date>2022-06-05T18:20:49.710219</dc:date>
    <dc:format>image/svg+xml</dc:format>
    <dc:creator>
     <cc:Agent>
      <dc:title>Matplotlib v3.5.1, https://matplotlib.org/</dc:title>
     </cc:Agent>
    </dc:creator>
   </cc:Work>
  </rdf:RDF>
 </metadata>
 <defs>
  <style type="text/css">*{stroke-linejoin: round; stroke-linecap: butt}</style>
 </defs>
 <g id="figure_1">
  <g id="patch_1">
   <path d="M 0 345.6 
L 460.8 345.6 
L 460.8 0 
L 0 0 
z
" style="fill: #ffffff"/>
  </g>
  <g id="axes_1">
   <g id="patch_2">
    <path d="M 64.316 78.7975 
L 450 78.7975 
L 450 28.32 
L 64.316 28.32 
z
" style="fill: #ffffff"/>
   </g>
   <g id="matplotlib.axis_1">
    <g id="xtick_1">
     <g id="line2d_1">
      <path d="M 81.847091 78.7975 
L 81.847091 28.32 
" clip-path="url(#pb5ff06f25c)" style="fill: none; stroke: #b0b0b0; stroke-width: 0.8; stroke-linecap: square"/>
     </g>
     <g id="line2d_2">
      <defs>
       <path id="m91a58f42f7" d="M 0 0 
L 0 3.5 
" style="stroke: #000000; stroke-width: 0.8"/>
      </defs>
      <g>
       <use xlink:href="#m91a58f42f7" x="81.847091" y="78.7975" style="stroke: #000000; stroke-width: 0.8"/>
      </g>
     </g>
     <g id="text_1">
      <!-- 0 -->
      <g transform="translate(78.665841 93.395937)scale(0.1 -0.1)">
       <defs>
        <path id="DejaVuSans-30" d="M 2034 4250 
Q 1547 4250 1301 3770 
Q 1056 3291 1056 2328 
Q 1056 1369 1301 889 
Q 1547 409 2034 409 
Q 2525 409 2770 889 
Q 3016 1369 3016 2328 
Q 3016 3291 2770 3770 
Q 2525 4250 2034 4250 
z
M 2034 4750 
Q 2819 4750 3233 4129 
Q 3647 3509 3647 2328 
Q 3647 1150 3233 529 
Q 2819 -91 2034 -91 
Q 1250 -91 836 529 
Q 422 1150 422 2328 
Q 422 3509 836 4129 
Q 1250 4750 2034 4750 
z
" transform="scale(0.015625)"/>
       </defs>
       <use xlink:href="#DejaVuSans-30"/>
      </g>
     </g>
    </g>
    <g id="xtick_2">
     <g id="line2d_3">
      <path d="M 133.791064 78.7975 
L 133.791064 28.32 
" clip-path="url(#pb5ff06f25c)" style="fill: none; stroke: #b0b0b0; stroke-width: 0.8; stroke-linecap: square"/>
     </g>
     <g id="line2d_4">
      <g>
       <use xlink:href="#m91a58f42f7" x="133.791064" y="78.7975" style="stroke: #000000; stroke-width: 0.8"/>
      </g>
     </g>
     <g id="text_2">
      <!-- 1 -->
      <g transform="translate(130.609814 93.395937)scale(0.1 -0.1)">
       <defs>
        <path id="DejaVuSans-31" d="M 794 531 
L 1825 531 
L 1825 4091 
L 703 3866 
L 703 4441 
L 1819 4666 
L 2450 4666 
L 2450 531 
L 3481 531 
L 3481 0 
L 794 0 
L 794 531 
z
" transform="scale(0.015625)"/>
       </defs>
       <use xlink:href="#DejaVuSans-31"/>
      </g>
     </g>
    </g>
    <g id="xtick_3">
     <g id="line2d_5">
      <path d="M 185.735037 78.7975 
L 185.735037 28.32 
" clip-path="url(#pb5ff06f25c)" style="fill: none; stroke: #b0b0b0; stroke-width: 0.8; stroke-linecap: square"/>
     </g>
     <g id="line2d_6">
      <g>
       <use xlink:href="#m91a58f42f7" x="185.735037" y="78.7975" style="stroke: #000000; stroke-width: 0.8"/>
      </g>
     </g>
     <g id="text_3">
      <!-- 2 -->
      <g transform="translate(182.553787 93.395937)scale(0.1 -0.1)">
       <defs>
        <path id="DejaVuSans-32" d="M 1228 531 
L 3431 531 
L 3431 0 
L 469 0 
L 469 531 
Q 828 903 1448 1529 
Q 2069 2156 2228 2338 
Q 2531 2678 2651 2914 
Q 2772 3150 2772 3378 
Q 2772 3750 2511 3984 
Q 2250 4219 1831 4219 
Q 1534 4219 1204 4116 
Q 875 4013 500 3803 
L 500 4441 
Q 881 4594 1212 4672 
Q 1544 4750 1819 4750 
Q 2544 4750 2975 4387 
Q 3406 4025 3406 3419 
Q 3406 3131 3298 2873 
Q 3191 2616 2906 2266 
Q 2828 2175 2409 1742 
Q 1991 1309 1228 531 
z
" transform="scale(0.015625)"/>
       </defs>
       <use xlink:href="#DejaVuSans-32"/>
      </g>
     </g>
    </g>
    <g id="xtick_4">
     <g id="line2d_7">
      <path d="M 237.67901 78.7975 
L 237.67901 28.32 
" clip-path="url(#pb5ff06f25c)" style="fill: none; stroke: #b0b0b0; stroke-width: 0.8; stroke-linecap: square"/>
     </g>
     <g id="line2d_8">
      <g>
       <use xlink:href="#m91a58f42f7" x="237.67901" y="78.7975" style="stroke: #000000; stroke-width: 0.8"/>
      </g>
     </g>
     <g id="text_4">
      <!-- 3 -->
      <g transform="translate(234.49776 93.395937)scale(0.1 -0.1)">
       <defs>
        <path id="DejaVuSans-33" d="M 2597 2516 
Q 3050 2419 3304 2112 
Q 3559 1806 3559 1356 
Q 3559 666 3084 287 
Q 2609 -91 1734 -91 
Q 1441 -91 1130 -33 
Q 819 25 488 141 
L 488 750 
Q 750 597 1062 519 
Q 1375 441 1716 441 
Q 2309 441 2620 675 
Q 2931 909 2931 1356 
Q 2931 1769 2642 2001 
Q 2353 2234 1838 2234 
L 1294 2234 
L 1294 2753 
L 1863 2753 
Q 2328 2753 2575 2939 
Q 2822 3125 2822 3475 
Q 2822 3834 2567 4026 
Q 2313 4219 1838 4219 
Q 1578 4219 1281 4162 
Q 984 4106 628 3988 
L 628 4550 
Q 988 4650 1302 4700 
Q 1616 4750 1894 4750 
Q 2613 4750 3031 4423 
Q 3450 4097 3450 3541 
Q 3450 3153 3228 2886 
Q 3006 2619 2597 2516 
z
" transform="scale(0.015625)"/>
       </defs>
       <use xlink:href="#DejaVuSans-33"/>
      </g>
     </g>
    </g>
    <g id="xtick_5">
     <g id="line2d_9">
      <path d="M 289.622983 78.7975 
L 289.622983 28.32 
" clip-path="url(#pb5ff06f25c)" style="fill: none; stroke: #b0b0b0; stroke-width: 0.8; stroke-linecap: square"/>
     </g>
     <g id="line2d_10">
      <g>
       <use xlink:href="#m91a58f42f7" x="289.622983" y="78.7975" style="stroke: #000000; stroke-width: 0.8"/>
      </g>
     </g>
     <g id="text_5">
      <!-- 4 -->
      <g transform="translate(286.441733 93.395937)scale(0.1 -0.1)">
       <defs>
        <path id="DejaVuSans-34" d="M 2419 4116 
L 825 1625 
L 2419 1625 
L 2419 4116 
z
M 2253 4666 
L 3047 4666 
L 3047 1625 
L 3713 1625 
L 3713 1100 
L 3047 1100 
L 3047 0 
L 2419 0 
L 2419 1100 
L 313 1100 
L 313 1709 
L 2253 4666 
z
" transform="scale(0.015625)"/>
       </defs>
       <use xlink:href="#DejaVuSans-34"/>
      </g>
     </g>
    </g>
    <g id="xtick_6">
     <g id="line2d_11">
      <path d="M 341.566956 78.7975 
L 341.566956 28.32 
" clip-path="url(#pb5ff06f25c)" style="fill: none; stroke: #b0b0b0; stroke-width: 0.8; stroke-linecap: square"/>
     </g>
     <g id="line2d_12">
      <g>
       <use xlink:href="#m91a58f42f7" x="341.566956" y="78.7975" style="stroke: #000000; stroke-width: 0.8"/>
      </g>
     </g>
     <g id="text_6">
      <!-- 5 -->
      <g transform="translate(338.385706 93.395937)scale(0.1 -0.1)">
       <defs>
        <path id="DejaVuSans-35" d="M 691 4666 
L 3169 4666 
L 3169 4134 
L 1269 4134 
L 1269 2991 
Q 1406 3038 1543 3061 
Q 1681 3084 1819 3084 
Q 2600 3084 3056 2656 
Q 3513 2228 3513 1497 
Q 3513 744 3044 326 
Q 2575 -91 1722 -91 
Q 1428 -91 1123 -41 
Q 819 9 494 109 
L 494 744 
Q 775 591 1075 516 
Q 1375 441 1709 441 
Q 2250 441 2565 725 
Q 2881 1009 2881 1497 
Q 2881 1984 2565 2268 
Q 2250 2553 1709 2553 
Q 1456 2553 1204 2497 
Q 953 2441 691 2322 
L 691 4666 
z
" transform="scale(0.015625)"/>
       </defs>
       <use xlink:href="#DejaVuSans-35"/>
      </g>
     </g>
    </g>
    <g id="xtick_7">
     <g id="line2d_13">
      <path d="M 393.510929 78.7975 
L 393.510929 28.32 
" clip-path="url(#pb5ff06f25c)" style="fill: none; stroke: #b0b0b0; stroke-width: 0.8; stroke-linecap: square"/>
     </g>
     <g id="line2d_14">
      <g>
       <use xlink:href="#m91a58f42f7" x="393.510929" y="78.7975" style="stroke: #000000; stroke-width: 0.8"/>
      </g>
     </g>
     <g id="text_7">
      <!-- 6 -->
      <g transform="translate(390.329679 93.395937)scale(0.1 -0.1)">
       <defs>
        <path id="DejaVuSans-36" d="M 2113 2584 
Q 1688 2584 1439 2293 
Q 1191 2003 1191 1497 
Q 1191 994 1439 701 
Q 1688 409 2113 409 
Q 2538 409 2786 701 
Q 3034 994 3034 1497 
Q 3034 2003 2786 2293 
Q 2538 2584 2113 2584 
z
M 3366 4563 
L 3366 3988 
Q 3128 4100 2886 4159 
Q 2644 4219 2406 4219 
Q 1781 4219 1451 3797 
Q 1122 3375 1075 2522 
Q 1259 2794 1537 2939 
Q 1816 3084 2150 3084 
Q 2853 3084 3261 2657 
Q 3669 2231 3669 1497 
Q 3669 778 3244 343 
Q 2819 -91 2113 -91 
Q 1303 -91 875 529 
Q 447 1150 447 2328 
Q 447 3434 972 4092 
Q 1497 4750 2381 4750 
Q 2619 4750 2861 4703 
Q 3103 4656 3366 4563 
z
" transform="scale(0.015625)"/>
       </defs>
       <use xlink:href="#DejaVuSans-36"/>
      </g>
     </g>
    </g>
    <g id="xtick_8">
     <g id="line2d_15">
      <path d="M 445.454902 78.7975 
L 445.454902 28.32 
" clip-path="url(#pb5ff06f25c)" style="fill: none; stroke: #b0b0b0; stroke-width: 0.8; stroke-linecap: square"/>
     </g>
     <g id="line2d_16">
      <g>
       <use xlink:href="#m91a58f42f7" x="445.454902" y="78.7975" style="stroke: #000000; stroke-width: 0.8"/>
      </g>
     </g>
     <g id="text_8">
      <!-- 7 -->
      <g transform="translate(442.273652 93.395937)scale(0.1 -0.1)">
       <defs>
        <path id="DejaVuSans-37" d="M 525 4666 
L 3525 4666 
L 3525 4397 
L 1831 0 
L 1172 0 
L 2766 4134 
L 525 4134 
L 525 4666 
z
" transform="scale(0.015625)"/>
       </defs>
       <use xlink:href="#DejaVuSans-37"/>
      </g>
     </g>
    </g>
    <g id="text_9">
     <!-- $t$ [s] -->
     <g transform="translate(247.058 107.074062)scale(0.1 -0.1)">
      <defs>
       <path id="DejaVuSans-Oblique-74" d="M 2706 3500 
L 2619 3053 
L 1472 3053 
L 1100 1153 
Q 1081 1047 1072 975 
Q 1063 903 1063 863 
Q 1063 663 1183 572 
Q 1303 481 1569 481 
L 2150 481 
L 2053 0 
L 1503 0 
Q 991 0 739 200 
Q 488 400 488 806 
Q 488 878 497 964 
Q 506 1050 525 1153 
L 897 3053 
L 409 3053 
L 500 3500 
L 978 3500 
L 1172 4494 
L 1747 4494 
L 1556 3500 
L 2706 3500 
z
" transform="scale(0.015625)"/>
       <path id="DejaVuSans-20" transform="scale(0.015625)"/>
       <path id="DejaVuSans-5b" d="M 550 4863 
L 1875 4863 
L 1875 4416 
L 1125 4416 
L 1125 -397 
L 1875 -397 
L 1875 -844 
L 550 -844 
L 550 4863 
z
" transform="scale(0.015625)"/>
       <path id="DejaVuSans-73" d="M 2834 3397 
L 2834 2853 
Q 2591 2978 2328 3040 
Q 2066 3103 1784 3103 
Q 1356 3103 1142 2972 
Q 928 2841 928 2578 
Q 928 2378 1081 2264 
Q 1234 2150 1697 2047 
L 1894 2003 
Q 2506 1872 2764 1633 
Q 3022 1394 3022 966 
Q 3022 478 2636 193 
Q 2250 -91 1575 -91 
Q 1294 -91 989 -36 
Q 684 19 347 128 
L 347 722 
Q 666 556 975 473 
Q 1284 391 1588 391 
Q 1994 391 2212 530 
Q 2431 669 2431 922 
Q 2431 1156 2273 1281 
Q 2116 1406 1581 1522 
L 1381 1569 
Q 847 1681 609 1914 
Q 372 2147 372 2553 
Q 372 3047 722 3315 
Q 1072 3584 1716 3584 
Q 2034 3584 2315 3537 
Q 2597 3491 2834 3397 
z
" transform="scale(0.015625)"/>
       <path id="DejaVuSans-5d" d="M 1947 4863 
L 1947 -844 
L 622 -844 
L 622 -397 
L 1369 -397 
L 1369 4416 
L 622 4416 
L 622 4863 
L 1947 4863 
z
" transform="scale(0.015625)"/>
      </defs>
      <use xlink:href="#DejaVuSans-Oblique-74" transform="translate(0 0.015625)"/>
      <use xlink:href="#DejaVuSans-20" transform="translate(39.208984 0.015625)"/>
      <use xlink:href="#DejaVuSans-5b" transform="translate(70.996094 0.015625)"/>
      <use xlink:href="#DejaVuSans-73" transform="translate(110.009766 0.015625)"/>
      <use xlink:href="#DejaVuSans-5d" transform="translate(162.109375 0.015625)"/>
     </g>
    </g>
   </g>
   <g id="matplotlib.axis_2">
    <g id="ytick_1">
     <g id="line2d_17">
      <path d="M 64.316 69.811843 
L 450 69.811843 
" clip-path="url(#pb5ff06f25c)" style="fill: none; stroke: #b0b0b0; stroke-width: 0.8; stroke-linecap: square"/>
     </g>
     <g id="line2d_18">
      <defs>
       <path id="m3d7461b3d4" d="M 0 0 
L -3.5 0 
" style="stroke: #000000; stroke-width: 0.8"/>
      </defs>
      <g>
       <use xlink:href="#m3d7461b3d4" x="64.316" y="69.811843" style="stroke: #000000; stroke-width: 0.8"/>
      </g>
     </g>
     <g id="text_10">
      <!-- 0 -->
      <g transform="translate(50.9535 73.611062)scale(0.1 -0.1)">
       <use xlink:href="#DejaVuSans-30"/>
      </g>
     </g>
    </g>
    <g id="ytick_2">
     <g id="line2d_19">
      <path d="M 64.316 30.614432 
L 450 30.614432 
" clip-path="url(#pb5ff06f25c)" style="fill: none; stroke: #b0b0b0; stroke-width: 0.8; stroke-linecap: square"/>
     </g>
     <g id="line2d_20">
      <g>
       <use xlink:href="#m3d7461b3d4" x="64.316" y="30.614432" style="stroke: #000000; stroke-width: 0.8"/>
      </g>
     </g>
     <g id="text_11">
      <!-- 10 -->
      <g transform="translate(44.591 34.413651)scale(0.1 -0.1)">
       <use xlink:href="#DejaVuSans-31"/>
       <use xlink:href="#DejaVuSans-30" x="63.623047"/>
      </g>
     </g>
    </g>
    <g id="text_12">
     <!-- $e_x$ [m] -->
     <g transform="translate(38.511313 69.20875)rotate(-90)scale(0.1 -0.1)">
      <defs>
       <path id="DejaVuSans-Oblique-65" d="M 3078 2063 
Q 3088 2113 3092 2166 
Q 3097 2219 3097 2272 
Q 3097 2653 2873 2875 
Q 2650 3097 2266 3097 
Q 1838 3097 1509 2826 
Q 1181 2556 1013 2059 
L 3078 2063 
z
M 3578 1613 
L 903 1613 
Q 884 1494 878 1425 
Q 872 1356 872 1306 
Q 872 872 1139 634 
Q 1406 397 1894 397 
Q 2269 397 2603 481 
Q 2938 566 3225 728 
L 3116 159 
Q 2806 34 2476 -28 
Q 2147 -91 1806 -91 
Q 1078 -91 686 257 
Q 294 606 294 1247 
Q 294 1794 489 2264 
Q 684 2734 1063 3103 
Q 1306 3334 1642 3459 
Q 1978 3584 2356 3584 
Q 2950 3584 3301 3228 
Q 3653 2872 3653 2272 
Q 3653 2128 3634 1964 
Q 3616 1800 3578 1613 
z
" transform="scale(0.015625)"/>
       <path id="DejaVuSans-Oblique-78" d="M 3841 3500 
L 2234 1784 
L 3219 0 
L 2559 0 
L 1819 1388 
L 531 0 
L -166 0 
L 1556 1844 
L 641 3500 
L 1300 3500 
L 1972 2234 
L 3144 3500 
L 3841 3500 
z
" transform="scale(0.015625)"/>
       <path id="DejaVuSans-6d" d="M 3328 2828 
Q 3544 3216 3844 3400 
Q 4144 3584 4550 3584 
Q 5097 3584 5394 3201 
Q 5691 2819 5691 2113 
L 5691 0 
L 5113 0 
L 5113 2094 
Q 5113 2597 4934 2840 
Q 4756 3084 4391 3084 
Q 3944 3084 3684 2787 
Q 3425 2491 3425 1978 
L 3425 0 
L 2847 0 
L 2847 2094 
Q 2847 2600 2669 2842 
Q 2491 3084 2119 3084 
Q 1678 3084 1418 2786 
Q 1159 2488 1159 1978 
L 1159 0 
L 581 0 
L 581 3500 
L 1159 3500 
L 1159 2956 
Q 1356 3278 1631 3431 
Q 1906 3584 2284 3584 
Q 2666 3584 2933 3390 
Q 3200 3197 3328 2828 
z
" transform="scale(0.015625)"/>
      </defs>
      <use xlink:href="#DejaVuSans-Oblique-65" transform="translate(0 0.015625)"/>
      <use xlink:href="#DejaVuSans-Oblique-78" transform="translate(61.523438 -16.390625)scale(0.7)"/>
      <use xlink:href="#DejaVuSans-20" transform="translate(105.683594 0.015625)"/>
      <use xlink:href="#DejaVuSans-5b" transform="translate(137.470703 0.015625)"/>
      <use xlink:href="#DejaVuSans-6d" transform="translate(176.484375 0.015625)"/>
      <use xlink:href="#DejaVuSans-5d" transform="translate(273.896484 0.015625)"/>
     </g>
    </g>
   </g>
   <g id="line2d_21">
    <path d="M 81.847091 30.614432 
L 94.332141 30.723642 
L 105.77677 31.361132 
L 107.857612 31.542941 
L 111.499084 31.917004 
L 113.059716 32.101642 
L 116.180978 32.476523 
L 120.862872 33.0892 
L 122.943714 33.421335 
L 127.105397 34.099295 
L 127.625607 34.099295 
L 128.666028 34.303121 
L 131.26708 34.759801 
L 132.827711 35.014242 
L 133.347922 35.162351 
L 133.868132 35.162351 
L 134.908553 35.388256 
L 135.948974 35.580001 
L 136.989395 35.814361 
L 139.070236 36.174846 
L 139.590447 36.338592 
L 140.110657 36.338592 
L 141.151078 36.58838 
L 142.191499 36.800419 
L 142.711709 36.972628 
L 143.23192 36.972628 
L 144.27234 37.235297 
L 145.832972 37.54842 
L 146.873393 37.822599 
L 149.474445 38.339216 
L 149.994655 38.531569 
L 150.514865 38.531569 
L 151.035076 38.824592 
L 152.595707 39.072893 
L 153.636128 39.324927 
L 154.676549 39.632278 
L 156.75739 40.050361 
L 157.277601 40.370086 
L 158.838232 40.640526 
L 159.358442 40.859483 
L 159.878653 40.859483 
L 160.398863 41.192226 
L 161.439284 41.360521 
L 161.959494 41.473425 
L 163.520126 42.04637 
L 164.560547 42.220959 
L 165.080757 42.338038 
L 166.641388 42.93156 
L 167.681809 43.11222 
L 168.202019 43.233317 
L 168.72223 43.538338 
L 169.24244 43.538338 
L 170.282861 43.908587 
L 171.323282 44.157933 
L 171.843492 44.409257 
L 172.363703 44.409257 
L 172.883913 44.789876 
L 173.924334 44.981793 
L 174.444544 45.110326 
L 175.484965 45.563815 
L 176.005176 45.759864 
L 177.045596 45.956917 
L 177.565807 46.088829 
L 178.606228 46.55392 
L 179.126438 46.754829 
L 180.166859 46.956665 
L 180.687069 47.091736 
L 181.20728 47.363081 
L 181.72749 47.363081 
L 182.247701 47.773056 
L 183.288121 47.979344 
L 183.808332 48.117344 
L 184.328542 48.463972 
L 184.848753 48.463972 
L 185.368963 48.742919 
L 187.449805 49.375727 
L 187.970015 49.65921 
L 190.571067 50.445611 
L 191.091278 50.733984 
L 193.172119 51.314469 
L 193.69233 51.679756 
L 194.21254 51.679756 
L 194.73275 51.97334 
L 196.293382 52.415951 
L 196.813592 52.786826 
L 197.333803 52.786826 
L 197.854013 53.084856 
L 199.934855 53.759743 
L 200.455065 54.061622 
L 202.535907 54.668982 
L 203.056117 55.05105 
L 203.576327 55.05105 
L 204.096538 55.358093 
L 205.657169 55.821003 
L 206.17738 56.208943 
L 206.69759 56.208943 
L 207.2178 56.520743 
L 208.778432 56.990891 
L 209.298642 57.305973 
L 209.818852 57.305973 
L 210.339063 57.781112 
L 211.379484 58.019821 
L 211.899694 58.179386 
L 212.419905 58.499544 
L 213.460325 58.901679 
L 213.980536 59.144003 
L 215.020957 59.387114 
L 215.541167 59.712469 
L 216.581588 60.121001 
L 217.622009 60.613563 
L 218.142219 60.613563 
L 218.662429 60.943022 
L 219.70285 61.355604 
L 220.743271 61.850995 
L 221.263482 61.850995 
L 221.783692 62.180865 
L 223.344323 62.75602 
L 223.864534 63.082744 
L 224.384744 63.082744 
L 225.425165 63.649597 
L 225.945375 63.890191 
L 226.985796 64.129167 
L 228.546427 64.67976 
L 229.066638 64.989558 
L 231.147479 65.672448 
L 231.66769 65.969223 
L 233.748531 66.620716 
L 234.268742 66.902736 
L 236.349583 67.519719 
L 236.869794 67.719885 
L 237.910215 67.917281 
L 238.430425 68.24015 
L 238.950636 68.24015 
L 239.470846 68.492998 
L 242.071898 69.163963 
L 243.112319 69.515261 
L 244.67295 69.912345 
L 245.713371 70.241912 
L 247.794213 70.717762 
L 248.834633 71.022699 
L 250.915475 71.461649 
L 251.955896 71.741951 
L 253.516527 72.056575 
L 254.556948 72.315964 
L 258.718631 73.079767 
L 260.279262 73.341051 
L 262.360104 73.73167 
L 264.961156 74.131174 
L 268.082419 74.592124 
L 272.244102 75.138197 
L 273.804733 75.333452 
L 285.249362 76.255213 
L 289.931256 76.448387 
L 297.214202 76.481759 
L 302.936516 76.305969 
L 312.300304 75.675875 
L 316.461987 75.29177 
L 331.027879 73.330674 
L 333.10872 73.038579 
L 334.669351 72.842011 
L 335.189562 72.64494 
L 336.750193 72.480929 
L 338.310824 72.187771 
L 341.432087 71.680208 
L 343.512929 71.466386 
L 347.674612 70.813199 
L 349.755453 70.63198 
L 353.917137 70.120002 
L 368.483028 69.046676 
L 371.08408 68.941487 
L 377.846816 68.735294 
L 390.331866 68.585748 
L 399.695653 68.721631 
L 409.579651 69.020672 
L 412.700913 69.128725 
L 423.625332 69.4713 
L 432.468909 69.608878 
L 432.468909 69.608878 
" clip-path="url(#pb5ff06f25c)" style="fill: none; stroke: #ff0000; stroke-width: 1.5; stroke-linecap: square"/>
   </g>
   <g id="patch_3">
    <path d="M 64.316 78.7975 
L 64.316 28.32 
" style="fill: none; stroke: #000000; stroke-width: 0.8; stroke-linejoin: miter; stroke-linecap: square"/>
   </g>
   <g id="patch_4">
    <path d="M 450 78.7975 
L 450 28.32 
" style="fill: none; stroke: #000000; stroke-width: 0.8; stroke-linejoin: miter; stroke-linecap: square"/>
   </g>
   <g id="patch_5">
    <path d="M 64.316 78.7975 
L 450 78.7975 
" style="fill: none; stroke: #000000; stroke-width: 0.8; stroke-linejoin: miter; stroke-linecap: square"/>
   </g>
   <g id="patch_6">
    <path d="M 64.316 28.32 
L 450 28.32 
" style="fill: none; stroke: #000000; stroke-width: 0.8; stroke-linejoin: miter; stroke-linecap: square"/>
   </g>
   <g id="text_13">
    <!-- Error in $x$-position -->
    <g transform="translate(203.518 22.32)scale(0.12 -0.12)">
     <defs>
      <path id="DejaVuSans-45" d="M 628 4666 
L 3578 4666 
L 3578 4134 
L 1259 4134 
L 1259 2753 
L 3481 2753 
L 3481 2222 
L 1259 2222 
L 1259 531 
L 3634 531 
L 3634 0 
L 628 0 
L 628 4666 
z
" transform="scale(0.015625)"/>
      <path id="DejaVuSans-72" d="M 2631 2963 
Q 2534 3019 2420 3045 
Q 2306 3072 2169 3072 
Q 1681 3072 1420 2755 
Q 1159 2438 1159 1844 
L 1159 0 
L 581 0 
L 581 3500 
L 1159 3500 
L 1159 2956 
Q 1341 3275 1631 3429 
Q 1922 3584 2338 3584 
Q 2397 3584 2469 3576 
Q 2541 3569 2628 3553 
L 2631 2963 
z
" transform="scale(0.015625)"/>
      <path id="DejaVuSans-6f" d="M 1959 3097 
Q 1497 3097 1228 2736 
Q 959 2375 959 1747 
Q 959 1119 1226 758 
Q 1494 397 1959 397 
Q 2419 397 2687 759 
Q 2956 1122 2956 1747 
Q 2956 2369 2687 2733 
Q 2419 3097 1959 3097 
z
M 1959 3584 
Q 2709 3584 3137 3096 
Q 3566 2609 3566 1747 
Q 3566 888 3137 398 
Q 2709 -91 1959 -91 
Q 1206 -91 779 398 
Q 353 888 353 1747 
Q 353 2609 779 3096 
Q 1206 3584 1959 3584 
z
" transform="scale(0.015625)"/>
      <path id="DejaVuSans-69" d="M 603 3500 
L 1178 3500 
L 1178 0 
L 603 0 
L 603 3500 
z
M 603 4863 
L 1178 4863 
L 1178 4134 
L 603 4134 
L 603 4863 
z
" transform="scale(0.015625)"/>
      <path id="DejaVuSans-6e" d="M 3513 2113 
L 3513 0 
L 2938 0 
L 2938 2094 
Q 2938 2591 2744 2837 
Q 2550 3084 2163 3084 
Q 1697 3084 1428 2787 
Q 1159 2491 1159 1978 
L 1159 0 
L 581 0 
L 581 3500 
L 1159 3500 
L 1159 2956 
Q 1366 3272 1645 3428 
Q 1925 3584 2291 3584 
Q 2894 3584 3203 3211 
Q 3513 2838 3513 2113 
z
" transform="scale(0.015625)"/>
      <path id="DejaVuSans-2d" d="M 313 2009 
L 1997 2009 
L 1997 1497 
L 313 1497 
L 313 2009 
z
" transform="scale(0.015625)"/>
      <path id="DejaVuSans-70" d="M 1159 525 
L 1159 -1331 
L 581 -1331 
L 581 3500 
L 1159 3500 
L 1159 2969 
Q 1341 3281 1617 3432 
Q 1894 3584 2278 3584 
Q 2916 3584 3314 3078 
Q 3713 2572 3713 1747 
Q 3713 922 3314 415 
Q 2916 -91 2278 -91 
Q 1894 -91 1617 61 
Q 1341 213 1159 525 
z
M 3116 1747 
Q 3116 2381 2855 2742 
Q 2594 3103 2138 3103 
Q 1681 3103 1420 2742 
Q 1159 2381 1159 1747 
Q 1159 1113 1420 752 
Q 1681 391 2138 391 
Q 2594 391 2855 752 
Q 3116 1113 3116 1747 
z
" transform="scale(0.015625)"/>
      <path id="DejaVuSans-74" d="M 1172 4494 
L 1172 3500 
L 2356 3500 
L 2356 3053 
L 1172 3053 
L 1172 1153 
Q 1172 725 1289 603 
Q 1406 481 1766 481 
L 2356 481 
L 2356 0 
L 1766 0 
Q 1100 0 847 248 
Q 594 497 594 1153 
L 594 3053 
L 172 3053 
L 172 3500 
L 594 3500 
L 594 4494 
L 1172 4494 
z
" transform="scale(0.015625)"/>
     </defs>
     <use xlink:href="#DejaVuSans-45" transform="translate(0 0.015625)"/>
     <use xlink:href="#DejaVuSans-72" transform="translate(63.183594 0.015625)"/>
     <use xlink:href="#DejaVuSans-72" transform="translate(104.296875 0.015625)"/>
     <use xlink:href="#DejaVuSans-6f" transform="translate(145.410156 0.015625)"/>
     <use xlink:href="#DejaVuSans-72" transform="translate(206.591797 0.015625)"/>
     <use xlink:href="#DejaVuSans-20" transform="translate(247.705078 0.015625)"/>
     <use xlink:href="#DejaVuSans-69" transform="translate(279.492188 0.015625)"/>
     <use xlink:href="#DejaVuSans-6e" transform="translate(307.275391 0.015625)"/>
     <use xlink:href="#DejaVuSans-20" transform="translate(370.654297 0.015625)"/>
     <use xlink:href="#DejaVuSans-Oblique-78" transform="translate(402.441406 0.015625)"/>
     <use xlink:href="#DejaVuSans-2d" transform="translate(461.621094 0.015625)"/>
     <use xlink:href="#DejaVuSans-70" transform="translate(497.705078 0.015625)"/>
     <use xlink:href="#DejaVuSans-6f" transform="translate(561.181641 0.015625)"/>
     <use xlink:href="#DejaVuSans-73" transform="translate(622.363281 0.015625)"/>
     <use xlink:href="#DejaVuSans-69" transform="translate(674.462891 0.015625)"/>
     <use xlink:href="#DejaVuSans-74" transform="translate(702.246094 0.015625)"/>
     <use xlink:href="#DejaVuSans-69" transform="translate(741.455078 0.015625)"/>
     <use xlink:href="#DejaVuSans-6f" transform="translate(769.238281 0.015625)"/>
     <use xlink:href="#DejaVuSans-6e" transform="translate(830.419922 0.015625)"/>
    </g>
   </g>
  </g>
  <g id="axes_2">
   <g id="patch_7">
    <path d="M 64.316 190.3975 
L 450 190.3975 
L 450 139.92 
L 64.316 139.92 
z
" style="fill: #ffffff"/>
   </g>
   <g id="matplotlib.axis_3">
    <g id="xtick_9">
     <g id="line2d_22">
      <path d="M 81.847091 190.3975 
L 81.847091 139.92 
" clip-path="url(#pc97e5840fc)" style="fill: none; stroke: #b0b0b0; stroke-width: 0.8; stroke-linecap: square"/>
     </g>
     <g id="line2d_23">
      <g>
       <use xlink:href="#m91a58f42f7" x="81.847091" y="190.3975" style="stroke: #000000; stroke-width: 0.8"/>
      </g>
     </g>
     <g id="text_14">
      <!-- 0 -->
      <g transform="translate(78.665841 204.995937)scale(0.1 -0.1)">
       <use xlink:href="#DejaVuSans-30"/>
      </g>
     </g>
    </g>
    <g id="xtick_10">
     <g id="line2d_24">
      <path d="M 133.791064 190.3975 
L 133.791064 139.92 
" clip-path="url(#pc97e5840fc)" style="fill: none; stroke: #b0b0b0; stroke-width: 0.8; stroke-linecap: square"/>
     </g>
     <g id="line2d_25">
      <g>
       <use xlink:href="#m91a58f42f7" x="133.791064" y="190.3975" style="stroke: #000000; stroke-width: 0.8"/>
      </g>
     </g>
     <g id="text_15">
      <!-- 1 -->
      <g transform="translate(130.609814 204.995937)scale(0.1 -0.1)">
       <use xlink:href="#DejaVuSans-31"/>
      </g>
     </g>
    </g>
    <g id="xtick_11">
     <g id="line2d_26">
      <path d="M 185.735037 190.3975 
L 185.735037 139.92 
" clip-path="url(#pc97e5840fc)" style="fill: none; stroke: #b0b0b0; stroke-width: 0.8; stroke-linecap: square"/>
     </g>
     <g id="line2d_27">
      <g>
       <use xlink:href="#m91a58f42f7" x="185.735037" y="190.3975" style="stroke: #000000; stroke-width: 0.8"/>
      </g>
     </g>
     <g id="text_16">
      <!-- 2 -->
      <g transform="translate(182.553787 204.995937)scale(0.1 -0.1)">
       <use xlink:href="#DejaVuSans-32"/>
      </g>
     </g>
    </g>
    <g id="xtick_12">
     <g id="line2d_28">
      <path d="M 237.67901 190.3975 
L 237.67901 139.92 
" clip-path="url(#pc97e5840fc)" style="fill: none; stroke: #b0b0b0; stroke-width: 0.8; stroke-linecap: square"/>
     </g>
     <g id="line2d_29">
      <g>
       <use xlink:href="#m91a58f42f7" x="237.67901" y="190.3975" style="stroke: #000000; stroke-width: 0.8"/>
      </g>
     </g>
     <g id="text_17">
      <!-- 3 -->
      <g transform="translate(234.49776 204.995937)scale(0.1 -0.1)">
       <use xlink:href="#DejaVuSans-33"/>
      </g>
     </g>
    </g>
    <g id="xtick_13">
     <g id="line2d_30">
      <path d="M 289.622983 190.3975 
L 289.622983 139.92 
" clip-path="url(#pc97e5840fc)" style="fill: none; stroke: #b0b0b0; stroke-width: 0.8; stroke-linecap: square"/>
     </g>
     <g id="line2d_31">
      <g>
       <use xlink:href="#m91a58f42f7" x="289.622983" y="190.3975" style="stroke: #000000; stroke-width: 0.8"/>
      </g>
     </g>
     <g id="text_18">
      <!-- 4 -->
      <g transform="translate(286.441733 204.995937)scale(0.1 -0.1)">
       <use xlink:href="#DejaVuSans-34"/>
      </g>
     </g>
    </g>
    <g id="xtick_14">
     <g id="line2d_32">
      <path d="M 341.566956 190.3975 
L 341.566956 139.92 
" clip-path="url(#pc97e5840fc)" style="fill: none; stroke: #b0b0b0; stroke-width: 0.8; stroke-linecap: square"/>
     </g>
     <g id="line2d_33">
      <g>
       <use xlink:href="#m91a58f42f7" x="341.566956" y="190.3975" style="stroke: #000000; stroke-width: 0.8"/>
      </g>
     </g>
     <g id="text_19">
      <!-- 5 -->
      <g transform="translate(338.385706 204.995937)scale(0.1 -0.1)">
       <use xlink:href="#DejaVuSans-35"/>
      </g>
     </g>
    </g>
    <g id="xtick_15">
     <g id="line2d_34">
      <path d="M 393.510929 190.3975 
L 393.510929 139.92 
" clip-path="url(#pc97e5840fc)" style="fill: none; stroke: #b0b0b0; stroke-width: 0.8; stroke-linecap: square"/>
     </g>
     <g id="line2d_35">
      <g>
       <use xlink:href="#m91a58f42f7" x="393.510929" y="190.3975" style="stroke: #000000; stroke-width: 0.8"/>
      </g>
     </g>
     <g id="text_20">
      <!-- 6 -->
      <g transform="translate(390.329679 204.995937)scale(0.1 -0.1)">
       <use xlink:href="#DejaVuSans-36"/>
      </g>
     </g>
    </g>
    <g id="xtick_16">
     <g id="line2d_36">
      <path d="M 445.454902 190.3975 
L 445.454902 139.92 
" clip-path="url(#pc97e5840fc)" style="fill: none; stroke: #b0b0b0; stroke-width: 0.8; stroke-linecap: square"/>
     </g>
     <g id="line2d_37">
      <g>
       <use xlink:href="#m91a58f42f7" x="445.454902" y="190.3975" style="stroke: #000000; stroke-width: 0.8"/>
      </g>
     </g>
     <g id="text_21">
      <!-- 7 -->
      <g transform="translate(442.273652 204.995937)scale(0.1 -0.1)">
       <use xlink:href="#DejaVuSans-37"/>
      </g>
     </g>
    </g>
    <g id="text_22">
     <!-- $t$ [s] -->
     <g transform="translate(247.058 218.674062)scale(0.1 -0.1)">
      <use xlink:href="#DejaVuSans-Oblique-74" transform="translate(0 0.015625)"/>
      <use xlink:href="#DejaVuSans-20" transform="translate(39.208984 0.015625)"/>
      <use xlink:href="#DejaVuSans-5b" transform="translate(70.996094 0.015625)"/>
      <use xlink:href="#DejaVuSans-73" transform="translate(110.009766 0.015625)"/>
      <use xlink:href="#DejaVuSans-5d" transform="translate(162.109375 0.015625)"/>
     </g>
    </g>
   </g>
   <g id="matplotlib.axis_4">
    <g id="ytick_3">
     <g id="line2d_38">
      <path d="M 64.316 190.17428 
L 450 190.17428 
" clip-path="url(#pc97e5840fc)" style="fill: none; stroke: #b0b0b0; stroke-width: 0.8; stroke-linecap: square"/>
     </g>
     <g id="line2d_39">
      <g>
       <use xlink:href="#m3d7461b3d4" x="64.316" y="190.17428" style="stroke: #000000; stroke-width: 0.8"/>
      </g>
     </g>
     <g id="text_23">
      <!-- −0.025 -->
      <g transform="translate(20.308188 193.973499)scale(0.1 -0.1)">
       <defs>
        <path id="DejaVuSans-2212" d="M 678 2272 
L 4684 2272 
L 4684 1741 
L 678 1741 
L 678 2272 
z
" transform="scale(0.015625)"/>
        <path id="DejaVuSans-2e" d="M 684 794 
L 1344 794 
L 1344 0 
L 684 0 
L 684 794 
z
" transform="scale(0.015625)"/>
       </defs>
       <use xlink:href="#DejaVuSans-2212"/>
       <use xlink:href="#DejaVuSans-30" x="83.789062"/>
       <use xlink:href="#DejaVuSans-2e" x="147.412109"/>
       <use xlink:href="#DejaVuSans-30" x="179.199219"/>
       <use xlink:href="#DejaVuSans-32" x="242.822266"/>
       <use xlink:href="#DejaVuSans-35" x="306.445312"/>
      </g>
     </g>
    </g>
    <g id="ytick_4">
     <g id="line2d_40">
      <path d="M 64.316 168.115585 
L 450 168.115585 
" clip-path="url(#pc97e5840fc)" style="fill: none; stroke: #b0b0b0; stroke-width: 0.8; stroke-linecap: square"/>
     </g>
     <g id="line2d_41">
      <g>
       <use xlink:href="#m3d7461b3d4" x="64.316" y="168.115585" style="stroke: #000000; stroke-width: 0.8"/>
      </g>
     </g>
     <g id="text_24">
      <!-- 0.000 -->
      <g transform="translate(28.687875 171.914804)scale(0.1 -0.1)">
       <use xlink:href="#DejaVuSans-30"/>
       <use xlink:href="#DejaVuSans-2e" x="63.623047"/>
       <use xlink:href="#DejaVuSans-30" x="95.410156"/>
       <use xlink:href="#DejaVuSans-30" x="159.033203"/>
       <use xlink:href="#DejaVuSans-30" x="222.65625"/>
      </g>
     </g>
    </g>
    <g id="ytick_5">
     <g id="line2d_42">
      <path d="M 64.316 146.056891 
L 450 146.056891 
" clip-path="url(#pc97e5840fc)" style="fill: none; stroke: #b0b0b0; stroke-width: 0.8; stroke-linecap: square"/>
     </g>
     <g id="line2d_43">
      <g>
       <use xlink:href="#m3d7461b3d4" x="64.316" y="146.056891" style="stroke: #000000; stroke-width: 0.8"/>
      </g>
     </g>
     <g id="text_25">
      <!-- 0.025 -->
      <g transform="translate(28.687875 149.85611)scale(0.1 -0.1)">
       <use xlink:href="#DejaVuSans-30"/>
       <use xlink:href="#DejaVuSans-2e" x="63.623047"/>
       <use xlink:href="#DejaVuSans-30" x="95.410156"/>
       <use xlink:href="#DejaVuSans-32" x="159.033203"/>
       <use xlink:href="#DejaVuSans-35" x="222.65625"/>
      </g>
     </g>
    </g>
    <g id="text_26">
     <!-- $e_z$ [m] -->
     <g transform="translate(14.2285 180.60875)rotate(-90)scale(0.1 -0.1)">
      <defs>
       <path id="DejaVuSans-Oblique-7a" d="M 744 3500 
L 3475 3500 
L 3372 2975 
L 738 459 
L 2913 459 
L 2822 0 
L -19 0 
L 84 525 
L 2719 3041 
L 653 3041 
L 744 3500 
z
" transform="scale(0.015625)"/>
      </defs>
      <use xlink:href="#DejaVuSans-Oblique-65" transform="translate(0 0.015625)"/>
      <use xlink:href="#DejaVuSans-Oblique-7a" transform="translate(61.523438 -16.390625)scale(0.7)"/>
      <use xlink:href="#DejaVuSans-20" transform="translate(101.000977 0.015625)"/>
      <use xlink:href="#DejaVuSans-5b" transform="translate(132.788086 0.015625)"/>
      <use xlink:href="#DejaVuSans-6d" transform="translate(171.801758 0.015625)"/>
      <use xlink:href="#DejaVuSans-5d" transform="translate(269.213867 0.015625)"/>
     </g>
    </g>
   </g>
   <g id="line2d_44">
    <path d="M 81.847091 176.662787 
L 82.367301 176.100848 
L 82.887512 175.794392 
L 83.927933 174.697012 
L 84.448143 174.485557 
L 84.968353 174.049791 
L 85.488564 173.179808 
L 86.008774 172.767363 
L 87.049195 171.678756 
L 87.569405 171.520349 
L 88.089616 171.222438 
L 88.609826 170.694623 
L 89.650247 170.14104 
L 90.690668 169.599947 
L 91.210878 169.599947 
L 91.731089 169.301894 
L 95.372562 168.468337 
L 100.054455 168.011335 
L 102.655507 167.923205 
L 104.736349 168.046864 
L 105.256559 168.16691 
L 105.77677 168.16691 
L 107.337401 168.569893 
L 108.377822 168.866414 
L 108.898032 169.135069 
L 109.418243 169.557941 
L 110.978874 170.336711 
L 111.499084 170.792636 
L 112.019295 171.467402 
L 113.579926 172.614767 
L 114.100136 173.243343 
L 114.620347 174.130038 
L 115.140557 174.130038 
L 115.660768 175.062604 
L 116.180978 175.542953 
L 117.741609 177.775806 
L 118.26182 177.775806 
L 118.78203 178.780942 
L 119.302241 179.280195 
L 120.342661 180.743126 
L 120.862872 180.979954 
L 121.383082 181.446024 
L 121.903293 182.343461 
L 122.423503 182.772306 
L 123.463924 183.963408 
L 123.984134 184.14672 
L 124.504345 184.499252 
L 125.024555 185.144185 
L 126.064976 185.830241 
L 127.105397 186.464026 
L 127.625607 186.464026 
L 128.145818 186.76704 
L 129.706449 187.063182 
L 130.74687 187.09752 
L 132.307501 186.878994 
L 132.827711 186.703877 
L 133.347922 186.396541 
L 133.868132 186.396541 
L 134.388343 186.010941 
L 135.428763 185.554935 
L 135.948974 185.172578 
L 136.469184 184.615712 
L 138.550026 183.377367 
L 139.070236 182.884227 
L 139.590447 182.214567 
L 140.110657 182.214567 
L 140.630868 181.539838 
L 141.671288 180.869228 
L 142.711709 179.732954 
L 143.23192 179.732954 
L 143.75213 179.117943 
L 145.832972 177.862729 
L 146.353182 177.373458 
L 149.994655 175.82228 
L 150.514865 175.82228 
L 151.035076 175.472849 
L 153.115917 175.181175 
L 155.196759 174.922144 
L 164.040336 174.340815 
L 165.600967 174.098449 
L 167.681809 173.783318 
L 171.323282 173.187572 
L 172.883913 172.944455 
L 176.525386 172.9188 
L 178.086017 173.120049 
L 181.72749 173.903591 
L 182.247701 174.351348 
L 183.288121 174.59943 
L 183.808332 174.772701 
L 184.328542 175.229729 
L 184.848753 175.229729 
L 185.368963 175.614029 
L 187.449805 176.511594 
L 187.970015 176.910463 
L 190.571067 177.94584 
L 191.091278 178.282452 
L 194.73275 179.338204 
L 197.333803 179.618347 
L 199.414644 179.572039 
L 201.495486 179.21131 
L 202.535907 179.008809 
L 203.056117 178.711024 
L 203.576327 178.711024 
L 204.096538 178.442794 
L 205.657169 178.000908 
L 206.17738 177.606882 
L 206.69759 177.606882 
L 207.2178 177.280874 
L 208.778432 176.785686 
L 209.298642 176.458365 
L 209.818852 176.458365 
L 210.339063 175.981931 
L 211.379484 175.75317 
L 211.899694 175.605127 
L 212.419905 175.321449 
L 215.541167 174.531896 
L 217.101798 174.492789 
L 219.70285 174.853465 
L 220.743271 175.120669 
L 221.263482 175.120669 
L 222.303902 175.369725 
L 224.384744 175.583135 
L 225.425165 175.547554 
L 228.026217 174.960216 
L 228.546427 174.607169 
L 229.066638 173.980448 
L 230.107059 173.159861 
L 230.627269 172.674557 
L 231.147479 171.854636 
L 231.66769 170.604647 
L 233.228321 168.430983 
L 233.748531 167.23495 
L 234.268742 165.558126 
L 235.829373 162.925378 
L 236.869794 160.250714 
L 237.390004 159.80976 
L 237.910215 158.935585 
L 238.430425 156.799961 
L 238.950636 156.799961 
L 239.470846 155.146363 
L 241.551688 151.993866 
L 242.071898 150.871097 
L 242.592108 149.432235 
L 244.67295 146.490568 
L 245.193161 145.353247 
L 246.753792 143.906309 
L 247.794213 142.994782 
L 248.314423 142.49833 
L 249.354844 142.242986 
L 250.395265 142.256042 
L 250.915475 142.459728 
L 251.955896 143.430986 
L 252.996317 144.521093 
L 253.516527 145.560427 
L 254.036738 147.206331 
L 255.597369 150.127576 
L 256.63779 152.286789 
L 257.158 153.9673 
L 257.67821 156.239226 
L 258.718631 158.497627 
L 259.759052 161.753293 
L 260.279262 162.271457 
L 260.799473 163.281252 
L 261.319683 165.18128 
L 261.839894 166.065183 
L 262.880315 168.422421 
L 263.400525 168.77039 
L 263.920735 169.42696 
L 264.440946 170.580737 
L 265.481367 171.725852 
L 266.001577 172.254715 
L 267.041998 172.669479 
L 267.562208 173.055351 
L 268.602629 173.264282 
L 269.122839 173.311422 
L 270.683471 173.031909 
L 271.723892 172.707526 
L 272.244102 172.399215 
L 272.764312 171.914669 
L 273.284523 171.914669 
L 273.804733 171.364151 
L 275.365364 170.458634 
L 275.885575 169.98736 
L 276.405785 169.355655 
L 279.006837 167.718054 
L 279.527048 167.19796 
L 281.607889 166.341379 
L 284.208941 165.582747 
L 285.769573 165.52923 
L 287.850414 165.848977 
L 290.451466 166.790948 
L 291.491887 167.43681 
L 292.012098 167.43681 
L 292.532308 167.822961 
L 293.572729 168.306195 
L 294.092939 168.589468 
L 295.13336 168.864223 
L 295.653571 169.213277 
L 296.173781 169.213277 
L 296.693991 169.689314 
L 297.734412 169.901692 
L 299.295043 170.271183 
L 299.815254 170.571331 
L 301.375885 170.775063 
L 302.416306 170.97847 
L 308.658831 172.071793 
L 309.179041 172.491582 
L 310.219462 172.740484 
L 311.259883 173.217292 
L 311.780093 173.655964 
L 313.340725 174.410451 
L 313.860935 174.830338 
L 314.381145 175.431196 
L 314.901356 175.431196 
L 315.421566 176.074747 
L 316.461987 176.755254 
L 316.982197 177.285359 
L 317.502408 178.012727 
L 318.022618 178.012727 
L 318.542829 178.75608 
L 319.58325 179.50726 
L 320.10346 180.070003 
L 320.62367 180.812792 
L 321.143881 180.812792 
L 321.664091 181.539203 
L 322.184302 181.893615 
L 323.224722 182.916929 
L 323.744933 183.081481 
L 324.265143 183.405757 
L 324.785354 184.034281 
L 325.305564 184.33821 
L 326.345985 185.200273 
L 326.866195 185.33595 
L 327.386406 185.600012 
L 327.906616 186.097461 
L 328.426827 186.097461 
L 328.947037 186.760262 
L 329.987458 187.05204 
L 330.507668 187.230782 
L 331.548089 187.744627 
L 332.58851 187.946421 
L 334.149141 188.103068 
L 334.669351 188.103068 
L 335.709772 187.909617 
L 336.750193 187.64323 
L 337.270404 187.251593 
L 337.790614 187.004605 
L 338.831035 186.042468 
L 339.351245 185.848849 
L 339.871456 185.432332 
L 341.432087 182.754893 
L 341.952297 182.432469 
L 343.512929 180.302129 
L 344.033139 179.119771 
L 344.553349 177.431543 
L 346.113981 174.67908 
L 346.634191 172.727282 
L 347.674612 169.708414 
L 348.194822 169.201978 
L 349.755453 166.204053 
L 350.275664 164.750542 
L 350.795874 162.870508 
L 352.356506 160.190311 
L 352.876716 158.918791 
L 353.396926 157.303604 
L 355.477768 154.076534 
L 355.997978 152.874211 
L 357.038399 151.858984 
L 358.59903 150.665364 
L 359.119241 150.38875 
L 360.159662 150.462306 
L 360.679872 150.643039 
L 361.200083 151.1101 
L 361.720293 151.829239 
L 362.240503 152.802242 
L 362.760714 152.802242 
L 363.280924 154.473253 
L 363.801135 155.453551 
L 364.841555 158.868909 
L 365.361766 160.788856 
L 365.881976 160.788856 
L 366.402187 163.491742 
L 366.922397 164.879616 
L 368.483028 171.109835 
L 369.003239 171.109835 
L 369.523449 173.732934 
L 370.04366 174.98314 
L 371.604291 179.933198 
L 372.124501 179.933198 
L 372.644712 181.719017 
L 373.164922 182.509132 
L 374.205343 184.459328 
L 374.725553 185.195184 
L 375.245764 185.195184 
L 375.765974 185.931792 
L 377.326605 186.61791 
L 378.367026 186.618402 
L 379.407447 186.11952 
L 379.927657 185.708036 
L 380.447868 185.545745 
L 381.488289 184.781045 
L 382.008499 183.851982 
L 382.528709 183.333494 
L 384.089341 180.635729 
L 384.609551 180.635729 
L 385.649972 178.263013 
L 386.170182 177.217069 
L 386.690393 176.867937 
L 387.730814 175.479461 
L 388.251024 174.122154 
L 389.291445 172.197734 
L 389.811655 171.894341 
L 391.892497 169.448045 
L 392.412707 168.554753 
L 393.973339 167.475547 
L 395.013759 166.826512 
L 395.53397 166.470269 
L 397.094601 166.199938 
L 398.135022 166.198815 
L 400.215864 166.69085 
L 400.736074 167.123535 
L 401.256284 167.123535 
L 401.776495 167.52615 
L 403.337126 168.182101 
L 404.377547 168.95765 
L 404.897757 169.275093 
L 405.938178 169.576347 
L 406.458388 169.766192 
L 406.978599 170.114886 
L 407.498809 170.114886 
L 408.01902 170.546334 
L 409.579651 170.809518 
L 410.099861 170.978645 
L 413.741334 170.882728 
L 415.822176 170.539106 
L 416.342386 170.258123 
L 416.862597 170.258123 
L 417.903018 169.878135 
L 418.943438 169.608485 
L 419.983859 169.129639 
L 420.50407 168.928673 
L 421.54449 168.734029 
L 423.105122 168.316363 
L 424.145542 168.012847 
L 427.787015 167.504871 
L 430.388067 167.473064 
L 432.468909 167.57339 
L 432.468909 167.57339 
" clip-path="url(#pc97e5840fc)" style="fill: none; stroke: #0000ff; stroke-width: 1.5; stroke-linecap: square"/>
   </g>
   <g id="patch_8">
    <path d="M 64.316 190.3975 
L 64.316 139.92 
" style="fill: none; stroke: #000000; stroke-width: 0.8; stroke-linejoin: miter; stroke-linecap: square"/>
   </g>
   <g id="patch_9">
    <path d="M 450 190.3975 
L 450 139.92 
" style="fill: none; stroke: #000000; stroke-width: 0.8; stroke-linejoin: miter; stroke-linecap: square"/>
   </g>
   <g id="patch_10">
    <path d="M 64.316 190.3975 
L 450 190.3975 
" style="fill: none; stroke: #000000; stroke-width: 0.8; stroke-linejoin: miter; stroke-linecap: square"/>
   </g>
   <g id="patch_11">
    <path d="M 64.316 139.92 
L 450 139.92 
" style="fill: none; stroke: #000000; stroke-width: 0.8; stroke-linejoin: miter; stroke-linecap: square"/>
   </g>
   <g id="text_27">
    <!-- Error in $z$-position -->
    <g transform="translate(203.878 133.92)scale(0.12 -0.12)">
     <use xlink:href="#DejaVuSans-45" transform="translate(0 0.015625)"/>
     <use xlink:href="#DejaVuSans-72" transform="translate(63.183594 0.015625)"/>
     <use xlink:href="#DejaVuSans-72" transform="translate(104.296875 0.015625)"/>
     <use xlink:href="#DejaVuSans-6f" transform="translate(145.410156 0.015625)"/>
     <use xlink:href="#DejaVuSans-72" transform="translate(206.591797 0.015625)"/>
     <use xlink:href="#DejaVuSans-20" transform="translate(247.705078 0.015625)"/>
     <use xlink:href="#DejaVuSans-69" transform="translate(279.492188 0.015625)"/>
     <use xlink:href="#DejaVuSans-6e" transform="translate(307.275391 0.015625)"/>
     <use xlink:href="#DejaVuSans-20" transform="translate(370.654297 0.015625)"/>
     <use xlink:href="#DejaVuSans-Oblique-7a" transform="translate(402.441406 0.015625)"/>
     <use xlink:href="#DejaVuSans-2d" transform="translate(454.931641 0.015625)"/>
     <use xlink:href="#DejaVuSans-70" transform="translate(491.015625 0.015625)"/>
     <use xlink:href="#DejaVuSans-6f" transform="translate(554.492188 0.015625)"/>
     <use xlink:href="#DejaVuSans-73" transform="translate(615.673828 0.015625)"/>
     <use xlink:href="#DejaVuSans-69" transform="translate(667.773438 0.015625)"/>
     <use xlink:href="#DejaVuSans-74" transform="translate(695.556641 0.015625)"/>
     <use xlink:href="#DejaVuSans-69" transform="translate(734.765625 0.015625)"/>
     <use xlink:href="#DejaVuSans-6f" transform="translate(762.548828 0.015625)"/>
     <use xlink:href="#DejaVuSans-6e" transform="translate(823.730469 0.015625)"/>
    </g>
   </g>
  </g>
  <g id="axes_3">
   <g id="patch_12">
    <path d="M 64.316 301.9975 
L 450 301.9975 
L 450 251.52 
L 64.316 251.52 
z
" style="fill: #ffffff"/>
   </g>
   <g id="matplotlib.axis_5">
    <g id="xtick_17">
     <g id="line2d_45">
      <path d="M 81.847091 301.9975 
L 81.847091 251.52 
" clip-path="url(#p50daccceef)" style="fill: none; stroke: #b0b0b0; stroke-width: 0.8; stroke-linecap: square"/>
     </g>
     <g id="line2d_46">
      <g>
       <use xlink:href="#m91a58f42f7" x="81.847091" y="301.9975" style="stroke: #000000; stroke-width: 0.8"/>
      </g>
     </g>
     <g id="text_28">
      <!-- 0 -->
      <g transform="translate(78.665841 316.595937)scale(0.1 -0.1)">
       <use xlink:href="#DejaVuSans-30"/>
      </g>
     </g>
    </g>
    <g id="xtick_18">
     <g id="line2d_47">
      <path d="M 133.791064 301.9975 
L 133.791064 251.52 
" clip-path="url(#p50daccceef)" style="fill: none; stroke: #b0b0b0; stroke-width: 0.8; stroke-linecap: square"/>
     </g>
     <g id="line2d_48">
      <g>
       <use xlink:href="#m91a58f42f7" x="133.791064" y="301.9975" style="stroke: #000000; stroke-width: 0.8"/>
      </g>
     </g>
     <g id="text_29">
      <!-- 1 -->
      <g transform="translate(130.609814 316.595937)scale(0.1 -0.1)">
       <use xlink:href="#DejaVuSans-31"/>
      </g>
     </g>
    </g>
    <g id="xtick_19">
     <g id="line2d_49">
      <path d="M 185.735037 301.9975 
L 185.735037 251.52 
" clip-path="url(#p50daccceef)" style="fill: none; stroke: #b0b0b0; stroke-width: 0.8; stroke-linecap: square"/>
     </g>
     <g id="line2d_50">
      <g>
       <use xlink:href="#m91a58f42f7" x="185.735037" y="301.9975" style="stroke: #000000; stroke-width: 0.8"/>
      </g>
     </g>
     <g id="text_30">
      <!-- 2 -->
      <g transform="translate(182.553787 316.595937)scale(0.1 -0.1)">
       <use xlink:href="#DejaVuSans-32"/>
      </g>
     </g>
    </g>
    <g id="xtick_20">
     <g id="line2d_51">
      <path d="M 237.67901 301.9975 
L 237.67901 251.52 
" clip-path="url(#p50daccceef)" style="fill: none; stroke: #b0b0b0; stroke-width: 0.8; stroke-linecap: square"/>
     </g>
     <g id="line2d_52">
      <g>
       <use xlink:href="#m91a58f42f7" x="237.67901" y="301.9975" style="stroke: #000000; stroke-width: 0.8"/>
      </g>
     </g>
     <g id="text_31">
      <!-- 3 -->
      <g transform="translate(234.49776 316.595937)scale(0.1 -0.1)">
       <use xlink:href="#DejaVuSans-33"/>
      </g>
     </g>
    </g>
    <g id="xtick_21">
     <g id="line2d_53">
      <path d="M 289.622983 301.9975 
L 289.622983 251.52 
" clip-path="url(#p50daccceef)" style="fill: none; stroke: #b0b0b0; stroke-width: 0.8; stroke-linecap: square"/>
     </g>
     <g id="line2d_54">
      <g>
       <use xlink:href="#m91a58f42f7" x="289.622983" y="301.9975" style="stroke: #000000; stroke-width: 0.8"/>
      </g>
     </g>
     <g id="text_32">
      <!-- 4 -->
      <g transform="translate(286.441733 316.595937)scale(0.1 -0.1)">
       <use xlink:href="#DejaVuSans-34"/>
      </g>
     </g>
    </g>
    <g id="xtick_22">
     <g id="line2d_55">
      <path d="M 341.566956 301.9975 
L 341.566956 251.52 
" clip-path="url(#p50daccceef)" style="fill: none; stroke: #b0b0b0; stroke-width: 0.8; stroke-linecap: square"/>
     </g>
     <g id="line2d_56">
      <g>
       <use xlink:href="#m91a58f42f7" x="341.566956" y="301.9975" style="stroke: #000000; stroke-width: 0.8"/>
      </g>
     </g>
     <g id="text_33">
      <!-- 5 -->
      <g transform="translate(338.385706 316.595937)scale(0.1 -0.1)">
       <use xlink:href="#DejaVuSans-35"/>
      </g>
     </g>
    </g>
    <g id="xtick_23">
     <g id="line2d_57">
      <path d="M 393.510929 301.9975 
L 393.510929 251.52 
" clip-path="url(#p50daccceef)" style="fill: none; stroke: #b0b0b0; stroke-width: 0.8; stroke-linecap: square"/>
     </g>
     <g id="line2d_58">
      <g>
       <use xlink:href="#m91a58f42f7" x="393.510929" y="301.9975" style="stroke: #000000; stroke-width: 0.8"/>
      </g>
     </g>
     <g id="text_34">
      <!-- 6 -->
      <g transform="translate(390.329679 316.595937)scale(0.1 -0.1)">
       <use xlink:href="#DejaVuSans-36"/>
      </g>
     </g>
    </g>
    <g id="xtick_24">
     <g id="line2d_59">
      <path d="M 445.454902 301.9975 
L 445.454902 251.52 
" clip-path="url(#p50daccceef)" style="fill: none; stroke: #b0b0b0; stroke-width: 0.8; stroke-linecap: square"/>
     </g>
     <g id="line2d_60">
      <g>
       <use xlink:href="#m91a58f42f7" x="445.454902" y="301.9975" style="stroke: #000000; stroke-width: 0.8"/>
      </g>
     </g>
     <g id="text_35">
      <!-- 7 -->
      <g transform="translate(442.273652 316.595937)scale(0.1 -0.1)">
       <use xlink:href="#DejaVuSans-37"/>
      </g>
     </g>
    </g>
    <g id="text_36">
     <!-- $t$ [s] -->
     <g transform="translate(247.058 330.274063)scale(0.1 -0.1)">
      <use xlink:href="#DejaVuSans-Oblique-74" transform="translate(0 0.015625)"/>
      <use xlink:href="#DejaVuSans-20" transform="translate(39.208984 0.015625)"/>
      <use xlink:href="#DejaVuSans-5b" transform="translate(70.996094 0.015625)"/>
      <use xlink:href="#DejaVuSans-73" transform="translate(110.009766 0.015625)"/>
      <use xlink:href="#DejaVuSans-5d" transform="translate(162.109375 0.015625)"/>
     </g>
    </g>
   </g>
   <g id="matplotlib.axis_6">
    <g id="ytick_6">
     <g id="line2d_61">
      <path d="M 64.316 298.117803 
L 450 298.117803 
" clip-path="url(#p50daccceef)" style="fill: none; stroke: #b0b0b0; stroke-width: 0.8; stroke-linecap: square"/>
     </g>
     <g id="line2d_62">
      <g>
       <use xlink:href="#m3d7461b3d4" x="64.316" y="298.117803" style="stroke: #000000; stroke-width: 0.8"/>
      </g>
     </g>
     <g id="text_37">
      <!-- −2.5 -->
      <g transform="translate(33.033188 301.917022)scale(0.1 -0.1)">
       <use xlink:href="#DejaVuSans-2212"/>
       <use xlink:href="#DejaVuSans-32" x="83.789062"/>
       <use xlink:href="#DejaVuSans-2e" x="147.412109"/>
       <use xlink:href="#DejaVuSans-35" x="179.199219"/>
      </g>
     </g>
    </g>
    <g id="ytick_7">
     <g id="line2d_63">
      <path d="M 64.316 278.344937 
L 450 278.344937 
" clip-path="url(#p50daccceef)" style="fill: none; stroke: #b0b0b0; stroke-width: 0.8; stroke-linecap: square"/>
     </g>
     <g id="line2d_64">
      <g>
       <use xlink:href="#m3d7461b3d4" x="64.316" y="278.344937" style="stroke: #000000; stroke-width: 0.8"/>
      </g>
     </g>
     <g id="text_38">
      <!-- 0.0 -->
      <g transform="translate(41.412875 282.144155)scale(0.1 -0.1)">
       <use xlink:href="#DejaVuSans-30"/>
       <use xlink:href="#DejaVuSans-2e" x="63.623047"/>
       <use xlink:href="#DejaVuSans-30" x="95.410156"/>
      </g>
     </g>
    </g>
    <g id="ytick_8">
     <g id="line2d_65">
      <path d="M 64.316 258.57207 
L 450 258.57207 
" clip-path="url(#p50daccceef)" style="fill: none; stroke: #b0b0b0; stroke-width: 0.8; stroke-linecap: square"/>
     </g>
     <g id="line2d_66">
      <g>
       <use xlink:href="#m3d7461b3d4" x="64.316" y="258.57207" style="stroke: #000000; stroke-width: 0.8"/>
      </g>
     </g>
     <g id="text_39">
      <!-- 2.5 -->
      <g transform="translate(41.412875 262.371289)scale(0.1 -0.1)">
       <use xlink:href="#DejaVuSans-32"/>
       <use xlink:href="#DejaVuSans-2e" x="63.623047"/>
       <use xlink:href="#DejaVuSans-35" x="95.410156"/>
      </g>
     </g>
    </g>
    <g id="text_40">
     <!-- $e_\theta$ [rad] -->
     <g transform="translate(26.9535 295.90875)rotate(-90)scale(0.1 -0.1)">
      <defs>
       <path id="DejaVuSans-Oblique-3b8" d="M 2913 2219 
L 925 2219 
Q 791 1284 928 888 
Q 1100 400 1566 400 
Q 2034 400 2391 891 
Q 2703 1322 2913 2219 
z
M 3009 2750 
Q 3094 3638 2984 3950 
Q 2813 4444 2353 4444 
Q 1875 4444 1525 3956 
Q 1250 3563 1034 2750 
L 3009 2750 
z
M 2444 4913 
Q 3194 4913 3494 4250 
Q 3794 3591 3566 2422 
Q 3341 1256 2781 594 
Q 2225 -72 1475 -72 
Q 722 -72 425 594 
Q 128 1256 353 2422 
Q 581 3591 1134 4250 
Q 1691 4913 2444 4913 
z
" transform="scale(0.015625)"/>
       <path id="DejaVuSans-61" d="M 2194 1759 
Q 1497 1759 1228 1600 
Q 959 1441 959 1056 
Q 959 750 1161 570 
Q 1363 391 1709 391 
Q 2188 391 2477 730 
Q 2766 1069 2766 1631 
L 2766 1759 
L 2194 1759 
z
M 3341 1997 
L 3341 0 
L 2766 0 
L 2766 531 
Q 2569 213 2275 61 
Q 1981 -91 1556 -91 
Q 1019 -91 701 211 
Q 384 513 384 1019 
Q 384 1609 779 1909 
Q 1175 2209 1959 2209 
L 2766 2209 
L 2766 2266 
Q 2766 2663 2505 2880 
Q 2244 3097 1772 3097 
Q 1472 3097 1187 3025 
Q 903 2953 641 2809 
L 641 3341 
Q 956 3463 1253 3523 
Q 1550 3584 1831 3584 
Q 2591 3584 2966 3190 
Q 3341 2797 3341 1997 
z
" transform="scale(0.015625)"/>
       <path id="DejaVuSans-64" d="M 2906 2969 
L 2906 4863 
L 3481 4863 
L 3481 0 
L 2906 0 
L 2906 525 
Q 2725 213 2448 61 
Q 2172 -91 1784 -91 
Q 1150 -91 751 415 
Q 353 922 353 1747 
Q 353 2572 751 3078 
Q 1150 3584 1784 3584 
Q 2172 3584 2448 3432 
Q 2725 3281 2906 2969 
z
M 947 1747 
Q 947 1113 1208 752 
Q 1469 391 1925 391 
Q 2381 391 2643 752 
Q 2906 1113 2906 1747 
Q 2906 2381 2643 2742 
Q 2381 3103 1925 3103 
Q 1469 3103 1208 2742 
Q 947 2381 947 1747 
z
" transform="scale(0.015625)"/>
      </defs>
      <use xlink:href="#DejaVuSans-Oblique-65" transform="translate(0 0.015625)"/>
      <use xlink:href="#DejaVuSans-Oblique-3b8" transform="translate(61.523438 -16.390625)scale(0.7)"/>
      <use xlink:href="#DejaVuSans-20" transform="translate(107.084961 0.015625)"/>
      <use xlink:href="#DejaVuSans-5b" transform="translate(138.87207 0.015625)"/>
      <use xlink:href="#DejaVuSans-72" transform="translate(177.885742 0.015625)"/>
      <use xlink:href="#DejaVuSans-61" transform="translate(218.999023 0.015625)"/>
      <use xlink:href="#DejaVuSans-64" transform="translate(280.27832 0.015625)"/>
      <use xlink:href="#DejaVuSans-5d" transform="translate(343.754883 0.015625)"/>
     </g>
    </g>
   </g>
   <g id="line2d_67">
    <path d="M 81.847091 265.928731 
L 83.927933 265.824215 
L 84.968353 265.730371 
L 87.049195 265.191141 
L 88.089616 265.049969 
L 89.130037 264.781556 
L 90.690668 264.417558 
L 91.210878 264.417558 
L 92.251299 264.204276 
L 93.81193 263.93478 
L 94.852351 263.832965 
L 102.135297 263.280082 
L 112.019295 262.980826 
L 119.822451 263.041927 
L 150.514865 263.832547 
L 165.600967 263.509317 
L 176.005176 263.275533 
L 188.490226 263.315714 
L 199.934855 263.600132 
L 206.17738 263.761517 
L 214.500746 263.870022 
L 216.581588 263.980905 
L 219.70285 264.466892 
L 220.743271 264.771502 
L 221.263482 264.771502 
L 222.303902 265.12893 
L 223.344323 265.460406 
L 223.864534 265.738697 
L 224.384744 265.738697 
L 225.425165 266.221848 
L 225.945375 266.420623 
L 226.985796 266.610535 
L 228.546427 267.017371 
L 229.586848 267.318768 
L 234.788952 268.134164 
L 238.430425 268.265705 
L 239.991056 268.19694 
L 241.551688 267.991471 
L 242.071898 267.776258 
L 243.112319 266.531715 
L 243.632529 265.179481 
L 244.15274 261.412949 
L 244.67295 299.703068 
L 245.193161 296.107798 
L 245.713371 295.574753 
L 246.753792 295.036533 
L 248.834633 294.508305 
L 257.67821 293.736747 
L 270.16326 293.072092 
L 274.845154 292.950834 
L 284.729152 292.91239 
L 292.012098 293.08421 
L 298.774833 293.33355 
L 301.375885 293.416448 
L 306.057779 293.581267 
L 312.820514 293.711917 
L 321.143881 293.652492 
L 326.866195 293.348399 
L 328.426827 293.192071 
L 328.947037 292.999595 
L 330.507668 292.814932 
L 332.068299 292.38951 
L 333.628931 292.154187 
L 334.149141 291.956131 
L 334.669351 291.956131 
L 335.189562 291.647784 
L 336.750193 291.383737 
L 337.790614 291.064104 
L 339.351245 290.6929 
L 340.391666 290.382501 
L 341.952297 290.034581 
L 348.194822 288.95668 
L 350.795874 288.899996 
L 352.356506 289.026972 
L 352.876716 289.152061 
L 354.957558 290.253635 
L 355.477768 291.104482 
L 356.518189 296.007675 
L 357.038399 299.695065 
L 357.55861 253.814432 
L 358.59903 258.676707 
L 359.119241 260.091386 
L 359.639451 260.091386 
L 360.159662 260.857821 
L 362.240503 261.986141 
L 362.760714 261.986141 
L 363.280924 262.274678 
L 364.841555 262.778145 
L 365.361766 262.948951 
L 365.881976 262.948951 
L 366.922397 263.265557 
L 368.483028 263.677726 
L 369.003239 263.677726 
L 370.04366 263.912375 
L 371.604291 264.209856 
L 372.124501 264.209856 
L 373.685132 264.447751 
L 376.286185 264.683931 
L 379.927657 264.914633 
L 391.892497 265.205116 
L 417.382807 266.434318 
L 425.706174 266.422923 
L 432.468909 266.416682 
L 432.468909 266.416682 
" clip-path="url(#p50daccceef)" style="fill: none; stroke: #008000; stroke-width: 1.5; stroke-linecap: square"/>
   </g>
   <g id="patch_13">
    <path d="M 64.316 301.9975 
L 64.316 251.52 
" style="fill: none; stroke: #000000; stroke-width: 0.8; stroke-linejoin: miter; stroke-linecap: square"/>
   </g>
   <g id="patch_14">
    <path d="M 450 301.9975 
L 450 251.52 
" style="fill: none; stroke: #000000; stroke-width: 0.8; stroke-linejoin: miter; stroke-linecap: square"/>
   </g>
   <g id="patch_15">
    <path d="M 64.316 301.9975 
L 450 301.9975 
" style="fill: none; stroke: #000000; stroke-width: 0.8; stroke-linejoin: miter; stroke-linecap: square"/>
   </g>
   <g id="patch_16">
    <path d="M 64.316 251.52 
L 450 251.52 
" style="fill: none; stroke: #000000; stroke-width: 0.8; stroke-linejoin: miter; stroke-linecap: square"/>
   </g>
   <g id="text_41">
    <!-- Error in swing angle -->
    <g transform="translate(197.387688 245.52)scale(0.12 -0.12)">
     <defs>
      <path id="DejaVuSans-77" d="M 269 3500 
L 844 3500 
L 1563 769 
L 2278 3500 
L 2956 3500 
L 3675 769 
L 4391 3500 
L 4966 3500 
L 4050 0 
L 3372 0 
L 2619 2869 
L 1863 0 
L 1184 0 
L 269 3500 
z
" transform="scale(0.015625)"/>
      <path id="DejaVuSans-67" d="M 2906 1791 
Q 2906 2416 2648 2759 
Q 2391 3103 1925 3103 
Q 1463 3103 1205 2759 
Q 947 2416 947 1791 
Q 947 1169 1205 825 
Q 1463 481 1925 481 
Q 2391 481 2648 825 
Q 2906 1169 2906 1791 
z
M 3481 434 
Q 3481 -459 3084 -895 
Q 2688 -1331 1869 -1331 
Q 1566 -1331 1297 -1286 
Q 1028 -1241 775 -1147 
L 775 -588 
Q 1028 -725 1275 -790 
Q 1522 -856 1778 -856 
Q 2344 -856 2625 -561 
Q 2906 -266 2906 331 
L 2906 616 
Q 2728 306 2450 153 
Q 2172 0 1784 0 
Q 1141 0 747 490 
Q 353 981 353 1791 
Q 353 2603 747 3093 
Q 1141 3584 1784 3584 
Q 2172 3584 2450 3431 
Q 2728 3278 2906 2969 
L 2906 3500 
L 3481 3500 
L 3481 434 
z
" transform="scale(0.015625)"/>
      <path id="DejaVuSans-6c" d="M 603 4863 
L 1178 4863 
L 1178 0 
L 603 0 
L 603 4863 
z
" transform="scale(0.015625)"/>
      <path id="DejaVuSans-65" d="M 3597 1894 
L 3597 1613 
L 953 1613 
Q 991 1019 1311 708 
Q 1631 397 2203 397 
Q 2534 397 2845 478 
Q 3156 559 3463 722 
L 3463 178 
Q 3153 47 2828 -22 
Q 2503 -91 2169 -91 
Q 1331 -91 842 396 
Q 353 884 353 1716 
Q 353 2575 817 3079 
Q 1281 3584 2069 3584 
Q 2775 3584 3186 3129 
Q 3597 2675 3597 1894 
z
M 3022 2063 
Q 3016 2534 2758 2815 
Q 2500 3097 2075 3097 
Q 1594 3097 1305 2825 
Q 1016 2553 972 2059 
L 3022 2063 
z
" transform="scale(0.015625)"/>
     </defs>
     <use xlink:href="#DejaVuSans-45"/>
     <use xlink:href="#DejaVuSans-72" x="63.183594"/>
     <use xlink:href="#DejaVuSans-72" x="102.546875"/>
     <use xlink:href="#DejaVuSans-6f" x="141.410156"/>
     <use xlink:href="#DejaVuSans-72" x="202.591797"/>
     <use xlink:href="#DejaVuSans-20" x="243.705078"/>
     <use xlink:href="#DejaVuSans-69" x="275.492188"/>
     <use xlink:href="#DejaVuSans-6e" x="303.275391"/>
     <use xlink:href="#DejaVuSans-20" x="366.654297"/>
     <use xlink:href="#DejaVuSans-73" x="398.441406"/>
     <use xlink:href="#DejaVuSans-77" x="450.541016"/>
     <use xlink:href="#DejaVuSans-69" x="532.328125"/>
     <use xlink:href="#DejaVuSans-6e" x="560.111328"/>
     <use xlink:href="#DejaVuSans-67" x="623.490234"/>
     <use xlink:href="#DejaVuSans-20" x="686.966797"/>
     <use xlink:href="#DejaVuSans-61" x="718.753906"/>
     <use xlink:href="#DejaVuSans-6e" x="780.033203"/>
     <use xlink:href="#DejaVuSans-67" x="843.412109"/>
     <use xlink:href="#DejaVuSans-6c" x="906.888672"/>
     <use xlink:href="#DejaVuSans-65" x="934.671875"/>
    </g>
   </g>
  </g>
 </g>
 <defs>
  <clipPath id="pb5ff06f25c">
   <rect x="64.316" y="28.32" width="385.684" height="50.4775"/>
  </clipPath>
  <clipPath id="pc97e5840fc">
   <rect x="64.316" y="139.92" width="385.684" height="50.4775"/>
  </clipPath>
  <clipPath id="p50daccceef">
   <rect x="64.316" y="251.52" width="385.684" height="50.4775"/>
  </clipPath>
 </defs>
</svg>
