<?xml version="1.0" encoding="utf-8" standalone="no"?>
<!DOCTYPE svg PUBLIC "-//W3C//DTD SVG 1.1//EN"
  "http://www.w3.org/Graphics/SVG/1.1/DTD/svg11.dtd">
<svg xmlns:xlink="http://www.w3.org/1999/xlink" width="460.8pt" height="345.6pt" viewBox="0 0 460.8 345.6" xmlns="http://www.w3.org/2000/svg" version="1.1">
 <metadata>
  <rdf:RDF xmlns:dc="http://purl.org/dc/elements/1.1/" xmlns:cc="http://creativecommons.org/ns#" xmlns:rdf="http://www.w3.org/1999/02/22-rdf-syntax-ns#">
   <cc:Work>
    <dc:type rdf:resource="http://purl.org/dc/dcmitype/StillImage"/>
    <dc:date>2022-06-05T14:09:06.168713</dc:date>
    <dc:format>image/svg+xml</dc:format>
    <dc:creator>
     <cc:Agent>
      <dc:title>Matplotlib v3.5.1, https://matplotlib.org/</dc:title>
     </cc:Agent>
    </dc:creator>
   </cc:Work>
  </rdf:RDF>
 </metadata>
 <defs>
  <style type="text/css">*{stroke-linejoin: round; stroke-linecap: butt}</style>
 </defs>
 <g id="figure_1">
  <g id="patch_1">
   <path d="M 0 345.6 
L 460.8 345.6 
L 460.8 0 
L 0 0 
z
" style="fill: #ffffff"/>
  </g>
  <g id="axes_1">
   <g id="patch_2">
    <path d="M 58.106 78.7975 
L 450 78.7975 
L 450 28.32 
L 58.106 28.32 
z
" style="fill: #ffffff"/>
   </g>
   <g id="matplotlib.axis_1">
    <g id="xtick_1">
     <g id="line2d_1">
      <path d="M 75.919364 78.7975 
L 75.919364 28.32 
" clip-path="url(#p496834d840)" style="fill: none; stroke: #b0b0b0; stroke-width: 0.8; stroke-linecap: square"/>
     </g>
     <g id="line2d_2">
      <defs>
       <path id="m1631d05c30" d="M 0 0 
L 0 3.5 
" style="stroke: #000000; stroke-width: 0.8"/>
      </defs>
      <g>
       <use xlink:href="#m1631d05c30" x="75.919364" y="78.7975" style="stroke: #000000; stroke-width: 0.8"/>
      </g>
     </g>
     <g id="text_1">
      <!-- 0 -->
      <g transform="translate(72.738114 93.395937)scale(0.1 -0.1)">
       <defs>
        <path id="DejaVuSans-30" d="M 2034 4250 
Q 1547 4250 1301 3770 
Q 1056 3291 1056 2328 
Q 1056 1369 1301 889 
Q 1547 409 2034 409 
Q 2525 409 2770 889 
Q 3016 1369 3016 2328 
Q 3016 3291 2770 3770 
Q 2525 4250 2034 4250 
z
M 2034 4750 
Q 2819 4750 3233 4129 
Q 3647 3509 3647 2328 
Q 3647 1150 3233 529 
Q 2819 -91 2034 -91 
Q 1250 -91 836 529 
Q 422 1150 422 2328 
Q 422 3509 836 4129 
Q 1250 4750 2034 4750 
z
" transform="scale(0.015625)"/>
       </defs>
       <use xlink:href="#DejaVuSans-30"/>
      </g>
     </g>
    </g>
    <g id="xtick_2">
     <g id="line2d_3">
      <path d="M 133.24314 78.7975 
L 133.24314 28.32 
" clip-path="url(#p496834d840)" style="fill: none; stroke: #b0b0b0; stroke-width: 0.8; stroke-linecap: square"/>
     </g>
     <g id="line2d_4">
      <g>
       <use xlink:href="#m1631d05c30" x="133.24314" y="78.7975" style="stroke: #000000; stroke-width: 0.8"/>
      </g>
     </g>
     <g id="text_2">
      <!-- 2 -->
      <g transform="translate(130.06189 93.395937)scale(0.1 -0.1)">
       <defs>
        <path id="DejaVuSans-32" d="M 1228 531 
L 3431 531 
L 3431 0 
L 469 0 
L 469 531 
Q 828 903 1448 1529 
Q 2069 2156 2228 2338 
Q 2531 2678 2651 2914 
Q 2772 3150 2772 3378 
Q 2772 3750 2511 3984 
Q 2250 4219 1831 4219 
Q 1534 4219 1204 4116 
Q 875 4013 500 3803 
L 500 4441 
Q 881 4594 1212 4672 
Q 1544 4750 1819 4750 
Q 2544 4750 2975 4387 
Q 3406 4025 3406 3419 
Q 3406 3131 3298 2873 
Q 3191 2616 2906 2266 
Q 2828 2175 2409 1742 
Q 1991 1309 1228 531 
z
" transform="scale(0.015625)"/>
       </defs>
       <use xlink:href="#DejaVuSans-32"/>
      </g>
     </g>
    </g>
    <g id="xtick_3">
     <g id="line2d_5">
      <path d="M 190.566917 78.7975 
L 190.566917 28.32 
" clip-path="url(#p496834d840)" style="fill: none; stroke: #b0b0b0; stroke-width: 0.8; stroke-linecap: square"/>
     </g>
     <g id="line2d_6">
      <g>
       <use xlink:href="#m1631d05c30" x="190.566917" y="78.7975" style="stroke: #000000; stroke-width: 0.8"/>
      </g>
     </g>
     <g id="text_3">
      <!-- 4 -->
      <g transform="translate(187.385667 93.395937)scale(0.1 -0.1)">
       <defs>
        <path id="DejaVuSans-34" d="M 2419 4116 
L 825 1625 
L 2419 1625 
L 2419 4116 
z
M 2253 4666 
L 3047 4666 
L 3047 1625 
L 3713 1625 
L 3713 1100 
L 3047 1100 
L 3047 0 
L 2419 0 
L 2419 1100 
L 313 1100 
L 313 1709 
L 2253 4666 
z
" transform="scale(0.015625)"/>
       </defs>
       <use xlink:href="#DejaVuSans-34"/>
      </g>
     </g>
    </g>
    <g id="xtick_4">
     <g id="line2d_7">
      <path d="M 247.890694 78.7975 
L 247.890694 28.32 
" clip-path="url(#p496834d840)" style="fill: none; stroke: #b0b0b0; stroke-width: 0.8; stroke-linecap: square"/>
     </g>
     <g id="line2d_8">
      <g>
       <use xlink:href="#m1631d05c30" x="247.890694" y="78.7975" style="stroke: #000000; stroke-width: 0.8"/>
      </g>
     </g>
     <g id="text_4">
      <!-- 6 -->
      <g transform="translate(244.709444 93.395937)scale(0.1 -0.1)">
       <defs>
        <path id="DejaVuSans-36" d="M 2113 2584 
Q 1688 2584 1439 2293 
Q 1191 2003 1191 1497 
Q 1191 994 1439 701 
Q 1688 409 2113 409 
Q 2538 409 2786 701 
Q 3034 994 3034 1497 
Q 3034 2003 2786 2293 
Q 2538 2584 2113 2584 
z
M 3366 4563 
L 3366 3988 
Q 3128 4100 2886 4159 
Q 2644 4219 2406 4219 
Q 1781 4219 1451 3797 
Q 1122 3375 1075 2522 
Q 1259 2794 1537 2939 
Q 1816 3084 2150 3084 
Q 2853 3084 3261 2657 
Q 3669 2231 3669 1497 
Q 3669 778 3244 343 
Q 2819 -91 2113 -91 
Q 1303 -91 875 529 
Q 447 1150 447 2328 
Q 447 3434 972 4092 
Q 1497 4750 2381 4750 
Q 2619 4750 2861 4703 
Q 3103 4656 3366 4563 
z
" transform="scale(0.015625)"/>
       </defs>
       <use xlink:href="#DejaVuSans-36"/>
      </g>
     </g>
    </g>
    <g id="xtick_5">
     <g id="line2d_9">
      <path d="M 305.214471 78.7975 
L 305.214471 28.32 
" clip-path="url(#p496834d840)" style="fill: none; stroke: #b0b0b0; stroke-width: 0.8; stroke-linecap: square"/>
     </g>
     <g id="line2d_10">
      <g>
       <use xlink:href="#m1631d05c30" x="305.214471" y="78.7975" style="stroke: #000000; stroke-width: 0.8"/>
      </g>
     </g>
     <g id="text_5">
      <!-- 8 -->
      <g transform="translate(302.033221 93.395937)scale(0.1 -0.1)">
       <defs>
        <path id="DejaVuSans-38" d="M 2034 2216 
Q 1584 2216 1326 1975 
Q 1069 1734 1069 1313 
Q 1069 891 1326 650 
Q 1584 409 2034 409 
Q 2484 409 2743 651 
Q 3003 894 3003 1313 
Q 3003 1734 2745 1975 
Q 2488 2216 2034 2216 
z
M 1403 2484 
Q 997 2584 770 2862 
Q 544 3141 544 3541 
Q 544 4100 942 4425 
Q 1341 4750 2034 4750 
Q 2731 4750 3128 4425 
Q 3525 4100 3525 3541 
Q 3525 3141 3298 2862 
Q 3072 2584 2669 2484 
Q 3125 2378 3379 2068 
Q 3634 1759 3634 1313 
Q 3634 634 3220 271 
Q 2806 -91 2034 -91 
Q 1263 -91 848 271 
Q 434 634 434 1313 
Q 434 1759 690 2068 
Q 947 2378 1403 2484 
z
M 1172 3481 
Q 1172 3119 1398 2916 
Q 1625 2713 2034 2713 
Q 2441 2713 2670 2916 
Q 2900 3119 2900 3481 
Q 2900 3844 2670 4047 
Q 2441 4250 2034 4250 
Q 1625 4250 1398 4047 
Q 1172 3844 1172 3481 
z
" transform="scale(0.015625)"/>
       </defs>
       <use xlink:href="#DejaVuSans-38"/>
      </g>
     </g>
    </g>
    <g id="xtick_6">
     <g id="line2d_11">
      <path d="M 362.538248 78.7975 
L 362.538248 28.32 
" clip-path="url(#p496834d840)" style="fill: none; stroke: #b0b0b0; stroke-width: 0.8; stroke-linecap: square"/>
     </g>
     <g id="line2d_12">
      <g>
       <use xlink:href="#m1631d05c30" x="362.538248" y="78.7975" style="stroke: #000000; stroke-width: 0.8"/>
      </g>
     </g>
     <g id="text_6">
      <!-- 10 -->
      <g transform="translate(356.175748 93.395937)scale(0.1 -0.1)">
       <defs>
        <path id="DejaVuSans-31" d="M 794 531 
L 1825 531 
L 1825 4091 
L 703 3866 
L 703 4441 
L 1819 4666 
L 2450 4666 
L 2450 531 
L 3481 531 
L 3481 0 
L 794 0 
L 794 531 
z
" transform="scale(0.015625)"/>
       </defs>
       <use xlink:href="#DejaVuSans-31"/>
       <use xlink:href="#DejaVuSans-30" x="63.623047"/>
      </g>
     </g>
    </g>
    <g id="xtick_7">
     <g id="line2d_13">
      <path d="M 419.862024 78.7975 
L 419.862024 28.32 
" clip-path="url(#p496834d840)" style="fill: none; stroke: #b0b0b0; stroke-width: 0.8; stroke-linecap: square"/>
     </g>
     <g id="line2d_14">
      <g>
       <use xlink:href="#m1631d05c30" x="419.862024" y="78.7975" style="stroke: #000000; stroke-width: 0.8"/>
      </g>
     </g>
     <g id="text_7">
      <!-- 12 -->
      <g transform="translate(413.499524 93.395937)scale(0.1 -0.1)">
       <use xlink:href="#DejaVuSans-31"/>
       <use xlink:href="#DejaVuSans-32" x="63.623047"/>
      </g>
     </g>
    </g>
    <g id="text_8">
     <!-- $t$ [s] -->
     <g transform="translate(243.953 107.074062)scale(0.1 -0.1)">
      <defs>
       <path id="DejaVuSans-Oblique-74" d="M 2706 3500 
L 2619 3053 
L 1472 3053 
L 1100 1153 
Q 1081 1047 1072 975 
Q 1063 903 1063 863 
Q 1063 663 1183 572 
Q 1303 481 1569 481 
L 2150 481 
L 2053 0 
L 1503 0 
Q 991 0 739 200 
Q 488 400 488 806 
Q 488 878 497 964 
Q 506 1050 525 1153 
L 897 3053 
L 409 3053 
L 500 3500 
L 978 3500 
L 1172 4494 
L 1747 4494 
L 1556 3500 
L 2706 3500 
z
" transform="scale(0.015625)"/>
       <path id="DejaVuSans-20" transform="scale(0.015625)"/>
       <path id="DejaVuSans-5b" d="M 550 4863 
L 1875 4863 
L 1875 4416 
L 1125 4416 
L 1125 -397 
L 1875 -397 
L 1875 -844 
L 550 -844 
L 550 4863 
z
" transform="scale(0.015625)"/>
       <path id="DejaVuSans-73" d="M 2834 3397 
L 2834 2853 
Q 2591 2978 2328 3040 
Q 2066 3103 1784 3103 
Q 1356 3103 1142 2972 
Q 928 2841 928 2578 
Q 928 2378 1081 2264 
Q 1234 2150 1697 2047 
L 1894 2003 
Q 2506 1872 2764 1633 
Q 3022 1394 3022 966 
Q 3022 478 2636 193 
Q 2250 -91 1575 -91 
Q 1294 -91 989 -36 
Q 684 19 347 128 
L 347 722 
Q 666 556 975 473 
Q 1284 391 1588 391 
Q 1994 391 2212 530 
Q 2431 669 2431 922 
Q 2431 1156 2273 1281 
Q 2116 1406 1581 1522 
L 1381 1569 
Q 847 1681 609 1914 
Q 372 2147 372 2553 
Q 372 3047 722 3315 
Q 1072 3584 1716 3584 
Q 2034 3584 2315 3537 
Q 2597 3491 2834 3397 
z
" transform="scale(0.015625)"/>
       <path id="DejaVuSans-5d" d="M 1947 4863 
L 1947 -844 
L 622 -844 
L 622 -397 
L 1369 -397 
L 1369 4416 
L 622 4416 
L 622 4863 
L 1947 4863 
z
" transform="scale(0.015625)"/>
      </defs>
      <use xlink:href="#DejaVuSans-Oblique-74" transform="translate(0 0.015625)"/>
      <use xlink:href="#DejaVuSans-20" transform="translate(39.208984 0.015625)"/>
      <use xlink:href="#DejaVuSans-5b" transform="translate(70.996094 0.015625)"/>
      <use xlink:href="#DejaVuSans-73" transform="translate(110.009766 0.015625)"/>
      <use xlink:href="#DejaVuSans-5d" transform="translate(162.109375 0.015625)"/>
     </g>
    </g>
   </g>
   <g id="matplotlib.axis_2">
    <g id="ytick_1">
     <g id="line2d_15">
      <path d="M 58.106 76.553116 
L 450 76.553116 
" clip-path="url(#p496834d840)" style="fill: none; stroke: #b0b0b0; stroke-width: 0.8; stroke-linecap: square"/>
     </g>
     <g id="line2d_16">
      <defs>
       <path id="m268bbb053a" d="M 0 0 
L -3.5 0 
" style="stroke: #000000; stroke-width: 0.8"/>
      </defs>
      <g>
       <use xlink:href="#m268bbb053a" x="58.106" y="76.553116" style="stroke: #000000; stroke-width: 0.8"/>
      </g>
     </g>
     <g id="text_9">
      <!-- 0 -->
      <g transform="translate(44.7435 80.352334)scale(0.1 -0.1)">
       <use xlink:href="#DejaVuSans-30"/>
      </g>
     </g>
    </g>
    <g id="ytick_2">
     <g id="line2d_17">
      <path d="M 58.106 30.615352 
L 450 30.615352 
" clip-path="url(#p496834d840)" style="fill: none; stroke: #b0b0b0; stroke-width: 0.8; stroke-linecap: square"/>
     </g>
     <g id="line2d_18">
      <g>
       <use xlink:href="#m268bbb053a" x="58.106" y="30.615352" style="stroke: #000000; stroke-width: 0.8"/>
      </g>
     </g>
     <g id="text_10">
      <!-- 10 -->
      <g transform="translate(38.381 34.414571)scale(0.1 -0.1)">
       <use xlink:href="#DejaVuSans-31"/>
       <use xlink:href="#DejaVuSans-30" x="63.623047"/>
      </g>
     </g>
    </g>
    <g id="text_11">
     <!-- $e_x$ [m] -->
     <g transform="translate(32.301313 69.20875)rotate(-90)scale(0.1 -0.1)">
      <defs>
       <path id="DejaVuSans-Oblique-65" d="M 3078 2063 
Q 3088 2113 3092 2166 
Q 3097 2219 3097 2272 
Q 3097 2653 2873 2875 
Q 2650 3097 2266 3097 
Q 1838 3097 1509 2826 
Q 1181 2556 1013 2059 
L 3078 2063 
z
M 3578 1613 
L 903 1613 
Q 884 1494 878 1425 
Q 872 1356 872 1306 
Q 872 872 1139 634 
Q 1406 397 1894 397 
Q 2269 397 2603 481 
Q 2938 566 3225 728 
L 3116 159 
Q 2806 34 2476 -28 
Q 2147 -91 1806 -91 
Q 1078 -91 686 257 
Q 294 606 294 1247 
Q 294 1794 489 2264 
Q 684 2734 1063 3103 
Q 1306 3334 1642 3459 
Q 1978 3584 2356 3584 
Q 2950 3584 3301 3228 
Q 3653 2872 3653 2272 
Q 3653 2128 3634 1964 
Q 3616 1800 3578 1613 
z
" transform="scale(0.015625)"/>
       <path id="DejaVuSans-Oblique-78" d="M 3841 3500 
L 2234 1784 
L 3219 0 
L 2559 0 
L 1819 1388 
L 531 0 
L -166 0 
L 1556 1844 
L 641 3500 
L 1300 3500 
L 1972 2234 
L 3144 3500 
L 3841 3500 
z
" transform="scale(0.015625)"/>
       <path id="DejaVuSans-6d" d="M 3328 2828 
Q 3544 3216 3844 3400 
Q 4144 3584 4550 3584 
Q 5097 3584 5394 3201 
Q 5691 2819 5691 2113 
L 5691 0 
L 5113 0 
L 5113 2094 
Q 5113 2597 4934 2840 
Q 4756 3084 4391 3084 
Q 3944 3084 3684 2787 
Q 3425 2491 3425 1978 
L 3425 0 
L 2847 0 
L 2847 2094 
Q 2847 2600 2669 2842 
Q 2491 3084 2119 3084 
Q 1678 3084 1418 2786 
Q 1159 2488 1159 1978 
L 1159 0 
L 581 0 
L 581 3500 
L 1159 3500 
L 1159 2956 
Q 1356 3278 1631 3431 
Q 1906 3584 2284 3584 
Q 2666 3584 2933 3390 
Q 3200 3197 3328 2828 
z
" transform="scale(0.015625)"/>
      </defs>
      <use xlink:href="#DejaVuSans-Oblique-65" transform="translate(0 0.015625)"/>
      <use xlink:href="#DejaVuSans-Oblique-78" transform="translate(61.523438 -16.390625)scale(0.7)"/>
      <use xlink:href="#DejaVuSans-20" transform="translate(105.683594 0.015625)"/>
      <use xlink:href="#DejaVuSans-5b" transform="translate(137.470703 0.015625)"/>
      <use xlink:href="#DejaVuSans-6d" transform="translate(176.484375 0.015625)"/>
      <use xlink:href="#DejaVuSans-5d" transform="translate(273.896484 0.015625)"/>
     </g>
    </g>
   </g>
   <g id="line2d_19">
    <path d="M 75.919364 30.615343 
L 85.098553 30.720337 
L 92.556644 31.161365 
L 95.71199 31.528442 
L 96.572539 31.612074 
L 102.596382 32.400591 
L 105.178029 32.768869 
L 106.325427 32.950376 
L 110.915022 33.748702 
L 113.496669 34.20431 
L 114.357218 34.379697 
L 116.652015 34.823713 
L 116.938864 34.94737 
L 117.512564 35.04818 
L 120.094211 35.597694 
L 120.66791 35.785966 
L 122.389008 36.196379 
L 124.396955 36.704137 
L 125.257504 36.848311 
L 126.118053 37.139842 
L 126.978602 37.286824 
L 127.839151 37.582626 
L 128.6997 37.731365 
L 129.560249 38.030554 
L 130.420798 38.181001 
L 131.568197 38.544249 
L 132.715596 38.81851 
L 135.010393 39.400136 
L 137.01834 39.949904 
L 138.165739 40.283549 
L 139.599987 40.643463 
L 141.894785 41.227488 
L 142.755333 41.455837 
L 145.33698 42.075408 
L 146.197529 42.297309 
L 149.066026 42.95377 
L 149.926575 43.172608 
L 152.221372 43.722676 
L 153.081921 43.942537 
L 155.663568 44.538981 
L 156.524117 44.750628 
L 159.105764 45.31517 
L 159.966313 45.515751 
L 162.834809 46.108022 
L 163.695358 46.301339 
L 166.563855 46.866306 
L 167.424404 47.052313 
L 169.719201 47.520853 
L 170.57975 47.707813 
L 173.161397 48.203353 
L 174.021946 48.376312 
L 176.603593 48.853824 
L 177.464142 49.030491 
L 179.758939 49.464425 
L 180.619488 49.631246 
L 183.774834 50.167135 
L 185.209083 50.488468 
L 185.782782 50.574795 
L 189.511827 51.226516 
L 190.372376 51.392988 
L 192.380324 51.758575 
L 192.954023 51.868507 
L 193.814572 52.044455 
L 196.109369 52.494131 
L 198.691016 52.952599 
L 200.985814 53.360323 
L 201.559513 53.467799 
L 202.420062 53.637592 
L 204.42801 53.986972 
L 205.001709 54.087924 
L 205.862258 54.250128 
L 208.157055 54.666081 
L 209.017604 54.833545 
L 212.4598 55.434487 
L 216.762545 56.218485 
L 217.336244 56.298591 
L 219.917891 56.724957 
L 222.212688 57.093857 
L 222.786387 57.193865 
L 223.646936 57.355306 
L 226.802283 57.905249 
L 227.949681 58.092697 
L 230.818178 58.552946 
L 231.965576 58.771618 
L 234.834073 59.216841 
L 235.407772 59.347439 
L 238.276269 59.820656 
L 240.857916 60.249653 
L 244.873811 60.881523 
L 249.176556 61.626858 
L 253.192451 62.249436 
L 256.634647 62.81096 
L 260.363692 63.393588 
L 261.511091 63.574226 
L 265.240137 64.188735 
L 266.387535 64.308376 
L 266.961235 64.4271 
L 269.542881 64.808303 
L 270.97713 65.058029 
L 272.124528 65.214971 
L 274.706175 65.608572 
L 275.566724 65.704907 
L 279.869469 66.319435 
L 283.885364 66.875647 
L 288.761808 67.54015 
L 293.638253 68.131669 
L 294.785651 68.280321 
L 299.088396 68.835719 
L 303.391141 69.343827 
L 307.693886 69.874447 
L 309.414984 70.095879 
L 314.004578 70.619523 
L 314.865127 70.745896 
L 320.315271 71.374515 
L 324.044316 71.801025 
L 328.347061 72.281444 
L 330.068159 72.513364 
L 336.092002 73.186865 
L 339.821047 73.616713 
L 341.828995 73.807202 
L 346.705439 74.3131 
L 351.008184 74.736422 
L 367.071764 75.769444 
L 380.266849 76.11622 
L 391.453985 76.067269 
L 413.828258 75.769827 
L 421.286349 75.926096 
L 432.186636 76.503068 
L 432.186636 76.503068 
" clip-path="url(#p496834d840)" style="fill: none; stroke: #ff0000; stroke-width: 1.5; stroke-linecap: square"/>
   </g>
   <g id="patch_3">
    <path d="M 58.106 78.7975 
L 58.106 28.32 
" style="fill: none; stroke: #000000; stroke-width: 0.8; stroke-linejoin: miter; stroke-linecap: square"/>
   </g>
   <g id="patch_4">
    <path d="M 450 78.7975 
L 450 28.32 
" style="fill: none; stroke: #000000; stroke-width: 0.8; stroke-linejoin: miter; stroke-linecap: square"/>
   </g>
   <g id="patch_5">
    <path d="M 58.106 78.7975 
L 450 78.7975 
" style="fill: none; stroke: #000000; stroke-width: 0.8; stroke-linejoin: miter; stroke-linecap: square"/>
   </g>
   <g id="patch_6">
    <path d="M 58.106 28.32 
L 450 28.32 
" style="fill: none; stroke: #000000; stroke-width: 0.8; stroke-linejoin: miter; stroke-linecap: square"/>
   </g>
   <g id="text_12">
    <!-- Error in $x$-position -->
    <g transform="translate(200.413 22.32)scale(0.12 -0.12)">
     <defs>
      <path id="DejaVuSans-45" d="M 628 4666 
L 3578 4666 
L 3578 4134 
L 1259 4134 
L 1259 2753 
L 3481 2753 
L 3481 2222 
L 1259 2222 
L 1259 531 
L 3634 531 
L 3634 0 
L 628 0 
L 628 4666 
z
" transform="scale(0.015625)"/>
      <path id="DejaVuSans-72" d="M 2631 2963 
Q 2534 3019 2420 3045 
Q 2306 3072 2169 3072 
Q 1681 3072 1420 2755 
Q 1159 2438 1159 1844 
L 1159 0 
L 581 0 
L 581 3500 
L 1159 3500 
L 1159 2956 
Q 1341 3275 1631 3429 
Q 1922 3584 2338 3584 
Q 2397 3584 2469 3576 
Q 2541 3569 2628 3553 
L 2631 2963 
z
" transform="scale(0.015625)"/>
      <path id="DejaVuSans-6f" d="M 1959 3097 
Q 1497 3097 1228 2736 
Q 959 2375 959 1747 
Q 959 1119 1226 758 
Q 1494 397 1959 397 
Q 2419 397 2687 759 
Q 2956 1122 2956 1747 
Q 2956 2369 2687 2733 
Q 2419 3097 1959 3097 
z
M 1959 3584 
Q 2709 3584 3137 3096 
Q 3566 2609 3566 1747 
Q 3566 888 3137 398 
Q 2709 -91 1959 -91 
Q 1206 -91 779 398 
Q 353 888 353 1747 
Q 353 2609 779 3096 
Q 1206 3584 1959 3584 
z
" transform="scale(0.015625)"/>
      <path id="DejaVuSans-69" d="M 603 3500 
L 1178 3500 
L 1178 0 
L 603 0 
L 603 3500 
z
M 603 4863 
L 1178 4863 
L 1178 4134 
L 603 4134 
L 603 4863 
z
" transform="scale(0.015625)"/>
      <path id="DejaVuSans-6e" d="M 3513 2113 
L 3513 0 
L 2938 0 
L 2938 2094 
Q 2938 2591 2744 2837 
Q 2550 3084 2163 3084 
Q 1697 3084 1428 2787 
Q 1159 2491 1159 1978 
L 1159 0 
L 581 0 
L 581 3500 
L 1159 3500 
L 1159 2956 
Q 1366 3272 1645 3428 
Q 1925 3584 2291 3584 
Q 2894 3584 3203 3211 
Q 3513 2838 3513 2113 
z
" transform="scale(0.015625)"/>
      <path id="DejaVuSans-2d" d="M 313 2009 
L 1997 2009 
L 1997 1497 
L 313 1497 
L 313 2009 
z
" transform="scale(0.015625)"/>
      <path id="DejaVuSans-70" d="M 1159 525 
L 1159 -1331 
L 581 -1331 
L 581 3500 
L 1159 3500 
L 1159 2969 
Q 1341 3281 1617 3432 
Q 1894 3584 2278 3584 
Q 2916 3584 3314 3078 
Q 3713 2572 3713 1747 
Q 3713 922 3314 415 
Q 2916 -91 2278 -91 
Q 1894 -91 1617 61 
Q 1341 213 1159 525 
z
M 3116 1747 
Q 3116 2381 2855 2742 
Q 2594 3103 2138 3103 
Q 1681 3103 1420 2742 
Q 1159 2381 1159 1747 
Q 1159 1113 1420 752 
Q 1681 391 2138 391 
Q 2594 391 2855 752 
Q 3116 1113 3116 1747 
z
" transform="scale(0.015625)"/>
      <path id="DejaVuSans-74" d="M 1172 4494 
L 1172 3500 
L 2356 3500 
L 2356 3053 
L 1172 3053 
L 1172 1153 
Q 1172 725 1289 603 
Q 1406 481 1766 481 
L 2356 481 
L 2356 0 
L 1766 0 
Q 1100 0 847 248 
Q 594 497 594 1153 
L 594 3053 
L 172 3053 
L 172 3500 
L 594 3500 
L 594 4494 
L 1172 4494 
z
" transform="scale(0.015625)"/>
     </defs>
     <use xlink:href="#DejaVuSans-45" transform="translate(0 0.015625)"/>
     <use xlink:href="#DejaVuSans-72" transform="translate(63.183594 0.015625)"/>
     <use xlink:href="#DejaVuSans-72" transform="translate(104.296875 0.015625)"/>
     <use xlink:href="#DejaVuSans-6f" transform="translate(145.410156 0.015625)"/>
     <use xlink:href="#DejaVuSans-72" transform="translate(206.591797 0.015625)"/>
     <use xlink:href="#DejaVuSans-20" transform="translate(247.705078 0.015625)"/>
     <use xlink:href="#DejaVuSans-69" transform="translate(279.492188 0.015625)"/>
     <use xlink:href="#DejaVuSans-6e" transform="translate(307.275391 0.015625)"/>
     <use xlink:href="#DejaVuSans-20" transform="translate(370.654297 0.015625)"/>
     <use xlink:href="#DejaVuSans-Oblique-78" transform="translate(402.441406 0.015625)"/>
     <use xlink:href="#DejaVuSans-2d" transform="translate(461.621094 0.015625)"/>
     <use xlink:href="#DejaVuSans-70" transform="translate(497.705078 0.015625)"/>
     <use xlink:href="#DejaVuSans-6f" transform="translate(561.181641 0.015625)"/>
     <use xlink:href="#DejaVuSans-73" transform="translate(622.363281 0.015625)"/>
     <use xlink:href="#DejaVuSans-69" transform="translate(674.462891 0.015625)"/>
     <use xlink:href="#DejaVuSans-74" transform="translate(702.246094 0.015625)"/>
     <use xlink:href="#DejaVuSans-69" transform="translate(741.455078 0.015625)"/>
     <use xlink:href="#DejaVuSans-6f" transform="translate(769.238281 0.015625)"/>
     <use xlink:href="#DejaVuSans-6e" transform="translate(830.419922 0.015625)"/>
    </g>
   </g>
  </g>
  <g id="axes_2">
   <g id="patch_7">
    <path d="M 58.106 190.3975 
L 450 190.3975 
L 450 139.92 
L 58.106 139.92 
z
" style="fill: #ffffff"/>
   </g>
   <g id="matplotlib.axis_3">
    <g id="xtick_8">
     <g id="line2d_20">
      <path d="M 75.919364 190.3975 
L 75.919364 139.92 
" clip-path="url(#p0840a57c3c)" style="fill: none; stroke: #b0b0b0; stroke-width: 0.8; stroke-linecap: square"/>
     </g>
     <g id="line2d_21">
      <g>
       <use xlink:href="#m1631d05c30" x="75.919364" y="190.3975" style="stroke: #000000; stroke-width: 0.8"/>
      </g>
     </g>
     <g id="text_13">
      <!-- 0 -->
      <g transform="translate(72.738114 204.995937)scale(0.1 -0.1)">
       <use xlink:href="#DejaVuSans-30"/>
      </g>
     </g>
    </g>
    <g id="xtick_9">
     <g id="line2d_22">
      <path d="M 133.24314 190.3975 
L 133.24314 139.92 
" clip-path="url(#p0840a57c3c)" style="fill: none; stroke: #b0b0b0; stroke-width: 0.8; stroke-linecap: square"/>
     </g>
     <g id="line2d_23">
      <g>
       <use xlink:href="#m1631d05c30" x="133.24314" y="190.3975" style="stroke: #000000; stroke-width: 0.8"/>
      </g>
     </g>
     <g id="text_14">
      <!-- 2 -->
      <g transform="translate(130.06189 204.995937)scale(0.1 -0.1)">
       <use xlink:href="#DejaVuSans-32"/>
      </g>
     </g>
    </g>
    <g id="xtick_10">
     <g id="line2d_24">
      <path d="M 190.566917 190.3975 
L 190.566917 139.92 
" clip-path="url(#p0840a57c3c)" style="fill: none; stroke: #b0b0b0; stroke-width: 0.8; stroke-linecap: square"/>
     </g>
     <g id="line2d_25">
      <g>
       <use xlink:href="#m1631d05c30" x="190.566917" y="190.3975" style="stroke: #000000; stroke-width: 0.8"/>
      </g>
     </g>
     <g id="text_15">
      <!-- 4 -->
      <g transform="translate(187.385667 204.995937)scale(0.1 -0.1)">
       <use xlink:href="#DejaVuSans-34"/>
      </g>
     </g>
    </g>
    <g id="xtick_11">
     <g id="line2d_26">
      <path d="M 247.890694 190.3975 
L 247.890694 139.92 
" clip-path="url(#p0840a57c3c)" style="fill: none; stroke: #b0b0b0; stroke-width: 0.8; stroke-linecap: square"/>
     </g>
     <g id="line2d_27">
      <g>
       <use xlink:href="#m1631d05c30" x="247.890694" y="190.3975" style="stroke: #000000; stroke-width: 0.8"/>
      </g>
     </g>
     <g id="text_16">
      <!-- 6 -->
      <g transform="translate(244.709444 204.995937)scale(0.1 -0.1)">
       <use xlink:href="#DejaVuSans-36"/>
      </g>
     </g>
    </g>
    <g id="xtick_12">
     <g id="line2d_28">
      <path d="M 305.214471 190.3975 
L 305.214471 139.92 
" clip-path="url(#p0840a57c3c)" style="fill: none; stroke: #b0b0b0; stroke-width: 0.8; stroke-linecap: square"/>
     </g>
     <g id="line2d_29">
      <g>
       <use xlink:href="#m1631d05c30" x="305.214471" y="190.3975" style="stroke: #000000; stroke-width: 0.8"/>
      </g>
     </g>
     <g id="text_17">
      <!-- 8 -->
      <g transform="translate(302.033221 204.995937)scale(0.1 -0.1)">
       <use xlink:href="#DejaVuSans-38"/>
      </g>
     </g>
    </g>
    <g id="xtick_13">
     <g id="line2d_30">
      <path d="M 362.538248 190.3975 
L 362.538248 139.92 
" clip-path="url(#p0840a57c3c)" style="fill: none; stroke: #b0b0b0; stroke-width: 0.8; stroke-linecap: square"/>
     </g>
     <g id="line2d_31">
      <g>
       <use xlink:href="#m1631d05c30" x="362.538248" y="190.3975" style="stroke: #000000; stroke-width: 0.8"/>
      </g>
     </g>
     <g id="text_18">
      <!-- 10 -->
      <g transform="translate(356.175748 204.995937)scale(0.1 -0.1)">
       <use xlink:href="#DejaVuSans-31"/>
       <use xlink:href="#DejaVuSans-30" x="63.623047"/>
      </g>
     </g>
    </g>
    <g id="xtick_14">
     <g id="line2d_32">
      <path d="M 419.862024 190.3975 
L 419.862024 139.92 
" clip-path="url(#p0840a57c3c)" style="fill: none; stroke: #b0b0b0; stroke-width: 0.8; stroke-linecap: square"/>
     </g>
     <g id="line2d_33">
      <g>
       <use xlink:href="#m1631d05c30" x="419.862024" y="190.3975" style="stroke: #000000; stroke-width: 0.8"/>
      </g>
     </g>
     <g id="text_19">
      <!-- 12 -->
      <g transform="translate(413.499524 204.995937)scale(0.1 -0.1)">
       <use xlink:href="#DejaVuSans-31"/>
       <use xlink:href="#DejaVuSans-32" x="63.623047"/>
      </g>
     </g>
    </g>
    <g id="text_20">
     <!-- $t$ [s] -->
     <g transform="translate(243.953 218.674062)scale(0.1 -0.1)">
      <use xlink:href="#DejaVuSans-Oblique-74" transform="translate(0 0.015625)"/>
      <use xlink:href="#DejaVuSans-20" transform="translate(39.208984 0.015625)"/>
      <use xlink:href="#DejaVuSans-5b" transform="translate(70.996094 0.015625)"/>
      <use xlink:href="#DejaVuSans-73" transform="translate(110.009766 0.015625)"/>
      <use xlink:href="#DejaVuSans-5d" transform="translate(162.109375 0.015625)"/>
     </g>
    </g>
   </g>
   <g id="matplotlib.axis_4">
    <g id="ytick_3">
     <g id="line2d_34">
      <path d="M 58.106 179.344634 
L 450 179.344634 
" clip-path="url(#p0840a57c3c)" style="fill: none; stroke: #b0b0b0; stroke-width: 0.8; stroke-linecap: square"/>
     </g>
     <g id="line2d_35">
      <g>
       <use xlink:href="#m268bbb053a" x="58.106" y="179.344634" style="stroke: #000000; stroke-width: 0.8"/>
      </g>
     </g>
     <g id="text_21">
      <!-- −0.1 -->
      <g transform="translate(26.823188 183.143852)scale(0.1 -0.1)">
       <defs>
        <path id="DejaVuSans-2212" d="M 678 2272 
L 4684 2272 
L 4684 1741 
L 678 1741 
L 678 2272 
z
" transform="scale(0.015625)"/>
        <path id="DejaVuSans-2e" d="M 684 794 
L 1344 794 
L 1344 0 
L 684 0 
L 684 794 
z
" transform="scale(0.015625)"/>
       </defs>
       <use xlink:href="#DejaVuSans-2212"/>
       <use xlink:href="#DejaVuSans-30" x="83.789062"/>
       <use xlink:href="#DejaVuSans-2e" x="147.412109"/>
       <use xlink:href="#DejaVuSans-31" x="179.199219"/>
      </g>
     </g>
    </g>
    <g id="ytick_4">
     <g id="line2d_36">
      <path d="M 58.106 165.318359 
L 450 165.318359 
" clip-path="url(#p0840a57c3c)" style="fill: none; stroke: #b0b0b0; stroke-width: 0.8; stroke-linecap: square"/>
     </g>
     <g id="line2d_37">
      <g>
       <use xlink:href="#m268bbb053a" x="58.106" y="165.318359" style="stroke: #000000; stroke-width: 0.8"/>
      </g>
     </g>
     <g id="text_22">
      <!-- 0.0 -->
      <g transform="translate(35.202875 169.117578)scale(0.1 -0.1)">
       <use xlink:href="#DejaVuSans-30"/>
       <use xlink:href="#DejaVuSans-2e" x="63.623047"/>
       <use xlink:href="#DejaVuSans-30" x="95.410156"/>
      </g>
     </g>
    </g>
    <g id="ytick_5">
     <g id="line2d_38">
      <path d="M 58.106 151.292084 
L 450 151.292084 
" clip-path="url(#p0840a57c3c)" style="fill: none; stroke: #b0b0b0; stroke-width: 0.8; stroke-linecap: square"/>
     </g>
     <g id="line2d_39">
      <g>
       <use xlink:href="#m268bbb053a" x="58.106" y="151.292084" style="stroke: #000000; stroke-width: 0.8"/>
      </g>
     </g>
     <g id="text_23">
      <!-- 0.1 -->
      <g transform="translate(35.202875 155.091303)scale(0.1 -0.1)">
       <use xlink:href="#DejaVuSans-30"/>
       <use xlink:href="#DejaVuSans-2e" x="63.623047"/>
       <use xlink:href="#DejaVuSans-31" x="95.410156"/>
      </g>
     </g>
    </g>
    <g id="text_24">
     <!-- $e_z$ [m] -->
     <g transform="translate(20.7435 180.60875)rotate(-90)scale(0.1 -0.1)">
      <defs>
       <path id="DejaVuSans-Oblique-7a" d="M 744 3500 
L 3475 3500 
L 3372 2975 
L 738 459 
L 2913 459 
L 2822 0 
L -19 0 
L 84 525 
L 2719 3041 
L 653 3041 
L 744 3500 
z
" transform="scale(0.015625)"/>
      </defs>
      <use xlink:href="#DejaVuSans-Oblique-65" transform="translate(0 0.015625)"/>
      <use xlink:href="#DejaVuSans-Oblique-7a" transform="translate(61.523438 -16.390625)scale(0.7)"/>
      <use xlink:href="#DejaVuSans-20" transform="translate(101.000977 0.015625)"/>
      <use xlink:href="#DejaVuSans-5b" transform="translate(132.788086 0.015625)"/>
      <use xlink:href="#DejaVuSans-6d" transform="translate(171.801758 0.015625)"/>
      <use xlink:href="#DejaVuSans-5d" transform="translate(269.213867 0.015625)"/>
     </g>
    </g>
   </g>
   <g id="line2d_40">
    <path d="M 75.919364 166.583271 
L 77.066762 165.942619 
L 77.353612 165.217884 
L 77.640462 165.079358 
L 78.501011 164.179546 
L 79.648409 162.377885 
L 80.508958 161.273557 
L 80.795808 160.690365 
L 82.230056 159.387866 
L 83.377455 159.061981 
L 84.811703 158.951246 
L 85.959102 158.466412 
L 86.532801 158.124645 
L 88.540748 155.977566 
L 89.114448 155.639543 
L 89.401297 155.204605 
L 89.974997 154.703751 
L 90.261846 154.435624 
L 90.835546 154.194861 
L 91.122395 153.915739 
L 92.843493 153.247268 
L 94.851441 152.748762 
L 98.006787 151.430746 
L 98.867336 150.990553 
L 99.154186 150.697508 
L 99.441035 150.697508 
L 100.014735 150.188255 
L 100.588434 149.603473 
L 101.162133 149.291363 
L 101.448983 148.867578 
L 102.022682 148.35261 
L 102.309532 148.066709 
L 102.883231 147.806292 
L 103.170081 147.506709 
L 103.456931 147.506709 
L 103.74378 147.156065 
L 104.891179 146.860439 
L 108.046525 145.597453 
L 109.193924 144.864312 
L 112.34927 143.649049 
L 113.496669 143.243068 
L 114.070368 142.926977 
L 116.078315 142.24311 
L 116.938864 142.270703 
L 117.225714 142.270703 
L 119.807361 143.392717 
L 120.094211 143.51738 
L 120.38106 143.834568 
L 125.831204 146.209325 
L 126.118053 146.756451 
L 126.691753 147.064821 
L 126.978602 147.280657 
L 127.265452 147.730287 
L 127.552302 147.730287 
L 127.839151 148.41266 
L 128.412851 148.738738 
L 128.6997 148.945988 
L 128.98655 149.329747 
L 129.2734 149.329747 
L 129.560249 149.823057 
L 130.133949 150.033339 
L 130.994498 150.513825 
L 131.855047 151.055011 
L 132.141896 151.055011 
L 132.715596 151.501098 
L 133.289295 151.93882 
L 133.862994 152.524635 
L 135.297242 153.618652 
L 135.584092 153.964449 
L 137.01834 154.65856 
L 138.165739 155.130935 
L 138.739438 155.329493 
L 139.026288 155.441609 
L 139.599987 155.834093 
L 140.173687 156.215279 
L 140.460536 156.540783 
L 140.747386 156.540783 
L 141.321085 157.025889 
L 141.894785 157.391059 
L 142.181634 157.637556 
L 142.468484 157.637556 
L 143.042183 157.918738 
L 145.050131 158.494229 
L 146.197529 159.216394 
L 146.771229 159.590443 
L 149.066026 162.234425 
L 149.352876 162.882449 
L 150.213425 163.912074 
L 151.360823 165.886742 
L 152.221372 167.090124 
L 152.508222 167.730816 
L 153.65562 169.025291 
L 153.94247 169.420435 
L 154.22932 169.549887 
L 154.516169 169.806768 
L 154.803019 170.316696 
L 155.663568 171.225468 
L 155.950418 171.762336 
L 157.097816 172.890303 
L 158.245215 174.513351 
L 159.105764 175.52799 
L 159.392614 176.077145 
L 161.97426 178.36756 
L 163.408509 179.105491 
L 164.555907 179.214267 
L 167.137554 179.245846 
L 167.998103 179.494256 
L 169.145502 180.075295 
L 170.2929 180.33834 
L 171.153449 180.251509 
L 173.735096 179.540721 
L 174.595645 179.643354 
L 177.177292 180.753858 
L 178.037841 180.755144 
L 179.472089 180.358024 
L 181.193187 179.760535 
L 182.053736 179.735198 
L 182.914285 180.099657 
L 183.487985 180.368599 
L 183.774834 180.511598 
L 184.348534 180.923808 
L 185.209083 181.345888 
L 189.511827 181.315982 
L 190.659226 181.883067 
L 191.519775 182.857548 
L 192.093474 183.151166 
L 192.380324 183.335254 
L 192.667174 183.733167 
L 192.954023 183.733167 
L 193.240873 183.973643 
L 194.388272 184.274184 
L 197.543618 184.596722 
L 197.830467 184.807703 
L 198.117317 184.807703 
L 198.691016 185.126728 
L 200.985814 185.990466 
L 201.846363 186.001744 
L 202.706912 185.890602 
L 202.993761 185.762436 
L 203.567461 185.662313 
L 204.42801 185.585985 
L 205.862258 185.883211 
L 206.149107 185.973822 
L 206.435957 186.219367 
L 206.722807 186.219367 
L 207.296506 186.498833 
L 208.443905 186.739343 
L 209.304454 186.657953 
L 212.17295 185.891841 
L 212.74665 186.002644 
L 214.180898 186.522094 
L 214.467747 186.88728 
L 215.328296 187.140445 
L 215.901996 187.320008 
L 216.475695 187.33054 
L 218.483643 186.834799 
L 219.917891 186.538965 
L 220.49159 186.598172 
L 220.77844 186.768344 
L 221.06529 186.768344 
L 221.638989 187.065802 
L 222.212688 187.287309 
L 222.499538 187.542863 
L 222.786387 187.542863 
L 223.360087 187.762728 
L 224.220636 187.837936 
L 225.654884 187.497353 
L 227.949681 186.983913 
L 228.523381 187.052302 
L 228.81023 187.172996 
L 229.09708 187.172996 
L 230.244479 187.726689 
L 230.818178 187.858677 
L 231.391877 188.068385 
L 232.252426 188.094436 
L 233.112975 187.992445 
L 233.399825 187.834447 
L 234.260374 187.685228 
L 234.834073 187.579192 
L 235.407772 187.486458 
L 236.555171 187.580969 
L 238.563119 187.906701 
L 239.997367 187.917122 
L 241.144765 187.88314 
L 242.865863 187.873782 
L 247.168608 186.837679 
L 248.029157 186.974476 
L 248.602857 187.223076 
L 250.610804 187.792928 
L 251.471353 187.758352 
L 252.618752 187.384119 
L 255.200399 186.696868 
L 256.921497 187.100941 
L 258.068895 187.505805 
L 259.216294 187.56481 
L 260.363692 187.334785 
L 260.937392 187.117755 
L 262.945339 186.677113 
L 263.519039 186.730598 
L 265.240137 187.229294 
L 267.248084 187.354352 
L 268.108633 187.168992 
L 268.682332 186.978487 
L 271.263979 186.491424 
L 272.124528 186.604131 
L 273.845626 186.909705 
L 274.993025 186.853707 
L 277.000972 186.080291 
L 277.287822 186.080291 
L 277.574672 185.839269 
L 279.29577 185.717305 
L 280.156319 185.859719 
L 281.016868 186.240247 
L 282.737966 186.40701 
L 283.885364 186.022316 
L 284.745913 185.614946 
L 286.753861 184.869661 
L 287.61441 184.946066 
L 288.188109 185.099194 
L 288.761808 185.324345 
L 290.196057 185.581667 
L 291.343455 185.39681 
L 291.917155 185.147192 
L 292.490854 184.787714 
L 293.925102 184.294932 
L 295.072501 184.316884 
L 295.35935 184.437998 
L 295.6462 184.437998 
L 296.219899 184.632015 
L 298.227847 185.03269 
L 299.088396 184.972665 
L 300.522644 184.499883 
L 301.383193 184.202264 
L 302.530592 184.028227 
L 303.67799 184.132846 
L 304.25169 184.233812 
L 305.112239 184.356196 
L 307.693886 184.386425 
L 314.865127 184.221537 
L 316.299375 184.454022 
L 316.586225 184.597606 
L 318.594173 184.634835 
L 319.741571 184.4141 
L 321.175819 184.118084 
L 322.036368 184.087479 
L 324.331166 184.688851 
L 324.904865 184.901548 
L 325.765414 185.010629 
L 326.625963 184.955635 
L 326.912813 184.782522 
L 327.773362 184.58251 
L 329.781309 184.0519 
L 330.928708 184.29782 
L 332.649806 185.08801 
L 333.223505 185.286557 
L 334.370904 185.203597 
L 337.8131 184.032711 
L 338.673649 184.153682 
L 339.821047 184.848641 
L 340.394746 185.042764 
L 340.968446 185.370137 
L 341.542145 185.552795 
L 342.689544 185.503429 
L 344.697491 184.758258 
L 345.55804 184.504052 
L 346.418589 184.564612 
L 346.992289 184.762509 
L 347.565988 185.137578 
L 348.713386 185.823232 
L 349.000236 186.098188 
L 350.147635 186.462209 
L 350.721334 186.534438 
L 351.868733 186.359404 
L 353.302981 185.860013 
L 354.737229 185.680676 
L 357.605726 185.677886 
L 359.039974 184.95437 
L 359.613673 184.441415 
L 361.047922 183.477427 
L 361.334771 183.189358 
L 363.342719 182.406118 
L 364.490118 181.987459 
L 365.063817 181.541714 
L 365.924366 180.932171 
L 367.071764 179.626804 
L 367.358614 179.412493 
L 367.645464 179.03223 
L 367.932313 179.03223 
L 368.219163 178.605721 
L 371.661359 177.875418 
L 372.521908 177.385833 
L 373.956156 175.942126 
L 375.390404 175.063914 
L 376.250953 174.976591 
L 377.685202 175.063288 
L 378.258901 174.90172 
L 379.11945 174.550534 
L 379.693149 174.118001 
L 379.979999 173.740138 
L 381.701097 172.790396 
L 382.561646 172.783454 
L 384.569593 173.027864 
L 384.856443 172.93982 
L 386.577541 171.671017 
L 386.864391 171.238783 
L 388.011789 170.585827 
L 388.585489 170.368193 
L 389.446038 170.463144 
L 390.880286 171.04671 
L 391.453985 171.11861 
L 392.314534 170.907841 
L 393.175083 170.477137 
L 395.183031 168.527323 
L 395.46988 168.527323 
L 395.75673 168.3218 
L 396.617279 168.223807 
L 397.477828 168.376127 
L 398.912076 168.544083 
L 400.059475 168.141948 
L 400.346325 167.89365 
L 400.920024 167.278438 
L 402.354272 166.259517 
L 403.214821 166.084345 
L 403.78852 166.130229 
L 404.935919 166.607216 
L 406.083318 166.982708 
L 406.657017 166.926619 
L 407.517566 166.637212 
L 408.378115 165.822195 
L 408.951814 165.271698 
L 409.238664 165.271698 
L 409.525514 164.977008 
L 410.386063 164.710803 
L 411.246611 164.786399 
L 411.820311 164.998726 
L 412.39401 165.270328 
L 412.68086 165.270328 
L 413.254559 165.405725 
L 413.828258 165.363402 
L 414.115108 165.21817 
L 414.401958 165.21817 
L 414.975657 164.811197 
L 415.836206 164.186058 
L 416.123056 163.851655 
L 417.270454 163.411097 
L 417.844154 163.354919 
L 418.704703 163.484935 
L 419.852101 163.777244 
L 420.71265 163.758828 
L 421.286349 163.660241 
L 421.573199 163.447415 
L 421.860049 163.447415 
L 422.146898 162.985498 
L 422.720598 162.720301 
L 424.441696 161.78994 
L 425.589094 161.609549 
L 426.449643 161.750782 
L 426.736493 161.924748 
L 427.023343 161.924748 
L 427.310192 162.202217 
L 428.170741 162.395028 
L 428.74444 162.540957 
L 429.891839 162.574705 
L 431.326087 162.538389 
L 431.899787 162.62315 
L 432.186636 162.690335 
L 432.186636 162.690335 
" clip-path="url(#p0840a57c3c)" style="fill: none; stroke: #0000ff; stroke-width: 1.5; stroke-linecap: square"/>
   </g>
   <g id="patch_8">
    <path d="M 58.106 190.3975 
L 58.106 139.92 
" style="fill: none; stroke: #000000; stroke-width: 0.8; stroke-linejoin: miter; stroke-linecap: square"/>
   </g>
   <g id="patch_9">
    <path d="M 450 190.3975 
L 450 139.92 
" style="fill: none; stroke: #000000; stroke-width: 0.8; stroke-linejoin: miter; stroke-linecap: square"/>
   </g>
   <g id="patch_10">
    <path d="M 58.106 190.3975 
L 450 190.3975 
" style="fill: none; stroke: #000000; stroke-width: 0.8; stroke-linejoin: miter; stroke-linecap: square"/>
   </g>
   <g id="patch_11">
    <path d="M 58.106 139.92 
L 450 139.92 
" style="fill: none; stroke: #000000; stroke-width: 0.8; stroke-linejoin: miter; stroke-linecap: square"/>
   </g>
   <g id="text_25">
    <!-- Error in $z$-position -->
    <g transform="translate(200.773 133.92)scale(0.12 -0.12)">
     <use xlink:href="#DejaVuSans-45" transform="translate(0 0.015625)"/>
     <use xlink:href="#DejaVuSans-72" transform="translate(63.183594 0.015625)"/>
     <use xlink:href="#DejaVuSans-72" transform="translate(104.296875 0.015625)"/>
     <use xlink:href="#DejaVuSans-6f" transform="translate(145.410156 0.015625)"/>
     <use xlink:href="#DejaVuSans-72" transform="translate(206.591797 0.015625)"/>
     <use xlink:href="#DejaVuSans-20" transform="translate(247.705078 0.015625)"/>
     <use xlink:href="#DejaVuSans-69" transform="translate(279.492188 0.015625)"/>
     <use xlink:href="#DejaVuSans-6e" transform="translate(307.275391 0.015625)"/>
     <use xlink:href="#DejaVuSans-20" transform="translate(370.654297 0.015625)"/>
     <use xlink:href="#DejaVuSans-Oblique-7a" transform="translate(402.441406 0.015625)"/>
     <use xlink:href="#DejaVuSans-2d" transform="translate(454.931641 0.015625)"/>
     <use xlink:href="#DejaVuSans-70" transform="translate(491.015625 0.015625)"/>
     <use xlink:href="#DejaVuSans-6f" transform="translate(554.492188 0.015625)"/>
     <use xlink:href="#DejaVuSans-73" transform="translate(615.673828 0.015625)"/>
     <use xlink:href="#DejaVuSans-69" transform="translate(667.773438 0.015625)"/>
     <use xlink:href="#DejaVuSans-74" transform="translate(695.556641 0.015625)"/>
     <use xlink:href="#DejaVuSans-69" transform="translate(734.765625 0.015625)"/>
     <use xlink:href="#DejaVuSans-6f" transform="translate(762.548828 0.015625)"/>
     <use xlink:href="#DejaVuSans-6e" transform="translate(823.730469 0.015625)"/>
    </g>
   </g>
  </g>
  <g id="axes_3">
   <g id="patch_12">
    <path d="M 58.106 301.9975 
L 450 301.9975 
L 450 251.52 
L 58.106 251.52 
z
" style="fill: #ffffff"/>
   </g>
   <g id="matplotlib.axis_5">
    <g id="xtick_15">
     <g id="line2d_41">
      <path d="M 75.919364 301.9975 
L 75.919364 251.52 
" clip-path="url(#p885ec4b158)" style="fill: none; stroke: #b0b0b0; stroke-width: 0.8; stroke-linecap: square"/>
     </g>
     <g id="line2d_42">
      <g>
       <use xlink:href="#m1631d05c30" x="75.919364" y="301.9975" style="stroke: #000000; stroke-width: 0.8"/>
      </g>
     </g>
     <g id="text_26">
      <!-- 0 -->
      <g transform="translate(72.738114 316.595937)scale(0.1 -0.1)">
       <use xlink:href="#DejaVuSans-30"/>
      </g>
     </g>
    </g>
    <g id="xtick_16">
     <g id="line2d_43">
      <path d="M 133.24314 301.9975 
L 133.24314 251.52 
" clip-path="url(#p885ec4b158)" style="fill: none; stroke: #b0b0b0; stroke-width: 0.8; stroke-linecap: square"/>
     </g>
     <g id="line2d_44">
      <g>
       <use xlink:href="#m1631d05c30" x="133.24314" y="301.9975" style="stroke: #000000; stroke-width: 0.8"/>
      </g>
     </g>
     <g id="text_27">
      <!-- 2 -->
      <g transform="translate(130.06189 316.595937)scale(0.1 -0.1)">
       <use xlink:href="#DejaVuSans-32"/>
      </g>
     </g>
    </g>
    <g id="xtick_17">
     <g id="line2d_45">
      <path d="M 190.566917 301.9975 
L 190.566917 251.52 
" clip-path="url(#p885ec4b158)" style="fill: none; stroke: #b0b0b0; stroke-width: 0.8; stroke-linecap: square"/>
     </g>
     <g id="line2d_46">
      <g>
       <use xlink:href="#m1631d05c30" x="190.566917" y="301.9975" style="stroke: #000000; stroke-width: 0.8"/>
      </g>
     </g>
     <g id="text_28">
      <!-- 4 -->
      <g transform="translate(187.385667 316.595937)scale(0.1 -0.1)">
       <use xlink:href="#DejaVuSans-34"/>
      </g>
     </g>
    </g>
    <g id="xtick_18">
     <g id="line2d_47">
      <path d="M 247.890694 301.9975 
L 247.890694 251.52 
" clip-path="url(#p885ec4b158)" style="fill: none; stroke: #b0b0b0; stroke-width: 0.8; stroke-linecap: square"/>
     </g>
     <g id="line2d_48">
      <g>
       <use xlink:href="#m1631d05c30" x="247.890694" y="301.9975" style="stroke: #000000; stroke-width: 0.8"/>
      </g>
     </g>
     <g id="text_29">
      <!-- 6 -->
      <g transform="translate(244.709444 316.595937)scale(0.1 -0.1)">
       <use xlink:href="#DejaVuSans-36"/>
      </g>
     </g>
    </g>
    <g id="xtick_19">
     <g id="line2d_49">
      <path d="M 305.214471 301.9975 
L 305.214471 251.52 
" clip-path="url(#p885ec4b158)" style="fill: none; stroke: #b0b0b0; stroke-width: 0.8; stroke-linecap: square"/>
     </g>
     <g id="line2d_50">
      <g>
       <use xlink:href="#m1631d05c30" x="305.214471" y="301.9975" style="stroke: #000000; stroke-width: 0.8"/>
      </g>
     </g>
     <g id="text_30">
      <!-- 8 -->
      <g transform="translate(302.033221 316.595937)scale(0.1 -0.1)">
       <use xlink:href="#DejaVuSans-38"/>
      </g>
     </g>
    </g>
    <g id="xtick_20">
     <g id="line2d_51">
      <path d="M 362.538248 301.9975 
L 362.538248 251.52 
" clip-path="url(#p885ec4b158)" style="fill: none; stroke: #b0b0b0; stroke-width: 0.8; stroke-linecap: square"/>
     </g>
     <g id="line2d_52">
      <g>
       <use xlink:href="#m1631d05c30" x="362.538248" y="301.9975" style="stroke: #000000; stroke-width: 0.8"/>
      </g>
     </g>
     <g id="text_31">
      <!-- 10 -->
      <g transform="translate(356.175748 316.595937)scale(0.1 -0.1)">
       <use xlink:href="#DejaVuSans-31"/>
       <use xlink:href="#DejaVuSans-30" x="63.623047"/>
      </g>
     </g>
    </g>
    <g id="xtick_21">
     <g id="line2d_53">
      <path d="M 419.862024 301.9975 
L 419.862024 251.52 
" clip-path="url(#p885ec4b158)" style="fill: none; stroke: #b0b0b0; stroke-width: 0.8; stroke-linecap: square"/>
     </g>
     <g id="line2d_54">
      <g>
       <use xlink:href="#m1631d05c30" x="419.862024" y="301.9975" style="stroke: #000000; stroke-width: 0.8"/>
      </g>
     </g>
     <g id="text_32">
      <!-- 12 -->
      <g transform="translate(413.499524 316.595937)scale(0.1 -0.1)">
       <use xlink:href="#DejaVuSans-31"/>
       <use xlink:href="#DejaVuSans-32" x="63.623047"/>
      </g>
     </g>
    </g>
    <g id="text_33">
     <!-- $t$ [s] -->
     <g transform="translate(243.953 330.274063)scale(0.1 -0.1)">
      <use xlink:href="#DejaVuSans-Oblique-74" transform="translate(0 0.015625)"/>
      <use xlink:href="#DejaVuSans-20" transform="translate(39.208984 0.015625)"/>
      <use xlink:href="#DejaVuSans-5b" transform="translate(70.996094 0.015625)"/>
      <use xlink:href="#DejaVuSans-73" transform="translate(110.009766 0.015625)"/>
      <use xlink:href="#DejaVuSans-5d" transform="translate(162.109375 0.015625)"/>
     </g>
    </g>
   </g>
   <g id="matplotlib.axis_6">
    <g id="ytick_6">
     <g id="line2d_55">
      <path d="M 58.106 291.874562 
L 450 291.874562 
" clip-path="url(#p885ec4b158)" style="fill: none; stroke: #b0b0b0; stroke-width: 0.8; stroke-linecap: square"/>
     </g>
     <g id="line2d_56">
      <g>
       <use xlink:href="#m268bbb053a" x="58.106" y="291.874562" style="stroke: #000000; stroke-width: 0.8"/>
      </g>
     </g>
     <g id="text_34">
      <!-- −0.1 -->
      <g transform="translate(26.823188 295.673781)scale(0.1 -0.1)">
       <use xlink:href="#DejaVuSans-2212"/>
       <use xlink:href="#DejaVuSans-30" x="83.789062"/>
       <use xlink:href="#DejaVuSans-2e" x="147.412109"/>
       <use xlink:href="#DejaVuSans-31" x="179.199219"/>
      </g>
     </g>
    </g>
    <g id="ytick_7">
     <g id="line2d_57">
      <path d="M 58.106 277.538829 
L 450 277.538829 
" clip-path="url(#p885ec4b158)" style="fill: none; stroke: #b0b0b0; stroke-width: 0.8; stroke-linecap: square"/>
     </g>
     <g id="line2d_58">
      <g>
       <use xlink:href="#m268bbb053a" x="58.106" y="277.538829" style="stroke: #000000; stroke-width: 0.8"/>
      </g>
     </g>
     <g id="text_35">
      <!-- 0.0 -->
      <g transform="translate(35.202875 281.338048)scale(0.1 -0.1)">
       <use xlink:href="#DejaVuSans-30"/>
       <use xlink:href="#DejaVuSans-2e" x="63.623047"/>
       <use xlink:href="#DejaVuSans-30" x="95.410156"/>
      </g>
     </g>
    </g>
    <g id="ytick_8">
     <g id="line2d_59">
      <path d="M 58.106 263.203096 
L 450 263.203096 
" clip-path="url(#p885ec4b158)" style="fill: none; stroke: #b0b0b0; stroke-width: 0.8; stroke-linecap: square"/>
     </g>
     <g id="line2d_60">
      <g>
       <use xlink:href="#m268bbb053a" x="58.106" y="263.203096" style="stroke: #000000; stroke-width: 0.8"/>
      </g>
     </g>
     <g id="text_36">
      <!-- 0.1 -->
      <g transform="translate(35.202875 267.002315)scale(0.1 -0.1)">
       <use xlink:href="#DejaVuSans-30"/>
       <use xlink:href="#DejaVuSans-2e" x="63.623047"/>
       <use xlink:href="#DejaVuSans-31" x="95.410156"/>
      </g>
     </g>
    </g>
    <g id="text_37">
     <!-- $e_\theta$ [rad] -->
     <g transform="translate(20.7435 295.90875)rotate(-90)scale(0.1 -0.1)">
      <defs>
       <path id="DejaVuSans-Oblique-3b8" d="M 2913 2219 
L 925 2219 
Q 791 1284 928 888 
Q 1100 400 1566 400 
Q 2034 400 2391 891 
Q 2703 1322 2913 2219 
z
M 3009 2750 
Q 3094 3638 2984 3950 
Q 2813 4444 2353 4444 
Q 1875 4444 1525 3956 
Q 1250 3563 1034 2750 
L 3009 2750 
z
M 2444 4913 
Q 3194 4913 3494 4250 
Q 3794 3591 3566 2422 
Q 3341 1256 2781 594 
Q 2225 -72 1475 -72 
Q 722 -72 425 594 
Q 128 1256 353 2422 
Q 581 3591 1134 4250 
Q 1691 4913 2444 4913 
z
" transform="scale(0.015625)"/>
       <path id="DejaVuSans-61" d="M 2194 1759 
Q 1497 1759 1228 1600 
Q 959 1441 959 1056 
Q 959 750 1161 570 
Q 1363 391 1709 391 
Q 2188 391 2477 730 
Q 2766 1069 2766 1631 
L 2766 1759 
L 2194 1759 
z
M 3341 1997 
L 3341 0 
L 2766 0 
L 2766 531 
Q 2569 213 2275 61 
Q 1981 -91 1556 -91 
Q 1019 -91 701 211 
Q 384 513 384 1019 
Q 384 1609 779 1909 
Q 1175 2209 1959 2209 
L 2766 2209 
L 2766 2266 
Q 2766 2663 2505 2880 
Q 2244 3097 1772 3097 
Q 1472 3097 1187 3025 
Q 903 2953 641 2809 
L 641 3341 
Q 956 3463 1253 3523 
Q 1550 3584 1831 3584 
Q 2591 3584 2966 3190 
Q 3341 2797 3341 1997 
z
" transform="scale(0.015625)"/>
       <path id="DejaVuSans-64" d="M 2906 2969 
L 2906 4863 
L 3481 4863 
L 3481 0 
L 2906 0 
L 2906 525 
Q 2725 213 2448 61 
Q 2172 -91 1784 -91 
Q 1150 -91 751 415 
Q 353 922 353 1747 
Q 353 2572 751 3078 
Q 1150 3584 1784 3584 
Q 2172 3584 2448 3432 
Q 2725 3281 2906 2969 
z
M 947 1747 
Q 947 1113 1208 752 
Q 1469 391 1925 391 
Q 2381 391 2643 752 
Q 2906 1113 2906 1747 
Q 2906 2381 2643 2742 
Q 2381 3103 1925 3103 
Q 1469 3103 1208 2742 
Q 947 2381 947 1747 
z
" transform="scale(0.015625)"/>
      </defs>
      <use xlink:href="#DejaVuSans-Oblique-65" transform="translate(0 0.015625)"/>
      <use xlink:href="#DejaVuSans-Oblique-3b8" transform="translate(61.523438 -16.390625)scale(0.7)"/>
      <use xlink:href="#DejaVuSans-20" transform="translate(107.084961 0.015625)"/>
      <use xlink:href="#DejaVuSans-5b" transform="translate(138.87207 0.015625)"/>
      <use xlink:href="#DejaVuSans-72" transform="translate(177.885742 0.015625)"/>
      <use xlink:href="#DejaVuSans-61" transform="translate(218.999023 0.015625)"/>
      <use xlink:href="#DejaVuSans-64" transform="translate(280.27832 0.015625)"/>
      <use xlink:href="#DejaVuSans-5d" transform="translate(343.754883 0.015625)"/>
     </g>
    </g>
   </g>
   <g id="line2d_61">
    <path d="M 75.919364 277.706324 
L 76.493063 278.490836 
L 76.779913 278.624001 
L 77.066762 278.624001 
L 77.353612 278.038775 
L 77.640462 277.807126 
L 78.501011 276.129917 
L 79.07471 274.503974 
L 80.508958 272.74293 
L 80.795808 271.921738 
L 82.230056 269.725343 
L 82.803755 269.679325 
L 83.090605 269.895424 
L 83.377455 270.283388 
L 83.664304 270.442593 
L 83.951154 270.79547 
L 84.238004 271.58704 
L 84.524853 272.001572 
L 85.385402 273.942865 
L 85.672252 273.942865 
L 85.959102 274.87454 
L 86.532801 275.841918 
L 87.1065 277.563203 
L 87.39335 277.563203 
L 87.6802 278.489099 
L 88.540748 279.696544 
L 89.401297 279.867563 
L 89.974997 279.625404 
L 90.548696 279.335741 
L 90.835546 279.181575 
L 91.122395 278.898184 
L 91.982944 278.636626 
L 92.843493 278.859304 
L 93.417193 279.192084 
L 93.704042 279.540759 
L 93.990892 280.152738 
L 94.277742 280.152738 
L 94.564591 280.918185 
L 94.851441 281.36402 
L 95.71199 283.763206 
L 95.99884 283.763206 
L 96.285689 284.995319 
L 96.572539 285.623567 
L 97.146238 287.545949 
L 97.433088 287.858044 
L 97.719937 288.475272 
L 98.006787 289.681166 
L 98.867336 291.531378 
L 99.154186 292.348068 
L 99.441035 292.348068 
L 99.727885 292.878303 
L 100.014735 293.011284 
L 100.301584 292.994782 
L 101.162133 292.087935 
L 102.309532 287.253796 
L 102.596382 286.735143 
L 102.883231 285.671512 
L 103.170081 283.479196 
L 103.456931 283.479196 
L 103.74378 280.171195 
L 104.03063 279.633125 
L 105.178029 275.280425 
L 105.464878 273.874201 
L 106.038578 272.991116 
L 106.325427 272.775216 
L 106.612277 272.730999 
L 107.759675 274.756352 
L 108.333375 276.238224 
L 108.620224 276.950825 
L 108.907074 277.05059 
L 109.193924 276.947466 
L 109.480773 276.631625 
L 109.767623 276.112393 
L 110.054473 274.996487 
L 110.341322 272.977245 
L 111.201871 269.229384 
L 112.06242 263.236214 
L 113.783518 255.787193 
L 114.357218 254.788556 
L 114.930917 254.157609 
L 115.504616 253.814432 
L 116.078315 253.968545 
L 116.652015 254.355401 
L 116.938864 255.139848 
L 117.225714 255.139848 
L 117.799413 256.635481 
L 118.373113 258.022311 
L 118.659962 259.999935 
L 118.946812 259.999935 
L 119.233662 261.597472 
L 120.66791 265.098269 
L 121.241609 265.415123 
L 122.962707 265.929606 
L 123.536407 266.500059 
L 124.683805 269.87204 
L 125.257504 271.509867 
L 125.544354 273.126992 
L 125.831204 273.126992 
L 126.118053 275.266195 
L 126.404903 275.578126 
L 127.265452 277.426861 
L 127.552302 277.426861 
L 127.839151 277.958775 
L 128.6997 278.156103 
L 128.98655 278.321392 
L 129.2734 278.321392 
L 129.560249 278.820422 
L 129.847099 278.948011 
L 130.420798 279.58084 
L 130.707648 280.3478 
L 131.281347 281.314421 
L 131.855047 282.297812 
L 132.141896 282.297812 
L 132.428746 282.843775 
L 133.289295 283.662061 
L 133.576144 284.019323 
L 134.436693 284.346013 
L 135.297242 284.41684 
L 137.30519 284.041637 
L 137.878889 284.040521 
L 139.026288 284.33638 
L 139.599987 284.536224 
L 140.173687 284.448086 
L 140.460536 284.041182 
L 140.747386 284.041182 
L 141.321085 282.575006 
L 141.607935 281.835143 
L 141.894785 280.50286 
L 142.181634 278.381502 
L 142.468484 278.381502 
L 142.755333 276.009514 
L 143.615882 272.096452 
L 143.902732 270.655932 
L 144.189582 270.655932 
L 144.476431 269.7865 
L 145.33698 268.728834 
L 145.62383 268.061593 
L 145.91068 268.061593 
L 146.484379 266.522754 
L 146.771229 265.815585 
L 147.058078 264.58814 
L 147.344928 262.727172 
L 147.631778 262.727172 
L 147.918627 260.7026 
L 149.639725 254.720106 
L 150.213425 254.117461 
L 150.500274 253.898235 
L 151.073974 254.02484 
L 151.647673 254.440483 
L 151.934522 254.725242 
L 152.221372 255.235018 
L 152.508222 256.063524 
L 153.368771 257.612594 
L 153.94247 259.432077 
L 154.22932 259.745962 
L 154.516169 260.374836 
L 154.803019 261.638355 
L 155.663568 263.707793 
L 155.950418 264.801981 
L 156.810967 266.059251 
L 157.384666 266.66241 
L 157.671516 266.776133 
L 158.245215 266.647421 
L 158.818914 266.381141 
L 159.679463 265.84898 
L 160.253162 265.889771 
L 160.826862 266.212081 
L 161.113711 266.67659 
L 161.687411 268.151685 
L 162.54796 270.171376 
L 163.408509 273.324796 
L 164.269058 274.866033 
L 164.842757 275.357722 
L 165.703306 274.360253 
L 166.277005 273.428462 
L 167.137554 271.529491 
L 167.711254 270.997561 
L 168.284953 270.708375 
L 168.858652 271.482428 
L 169.432351 272.970977 
L 169.719201 274.593749 
L 170.006051 277.322285 
L 171.153449 283.589495 
L 171.727149 287.346994 
L 172.013998 287.697045 
L 172.300848 287.700845 
L 172.587698 287.387587 
L 172.874547 286.78822 
L 173.161397 285.423969 
L 173.448247 283.017885 
L 174.595645 277.435876 
L 175.456194 272.167762 
L 176.029894 270.901454 
L 176.316743 270.669215 
L 176.603593 270.891431 
L 178.037841 277.484848 
L 178.89839 283.804366 
L 179.472089 285.157864 
L 179.758939 285.248069 
L 180.045789 284.149745 
L 180.332638 284.149745 
L 181.766887 273.090692 
L 182.053736 273.090692 
L 182.340586 269.827368 
L 182.914285 266.146863 
L 183.201135 264.438676 
L 183.487985 263.977951 
L 184.061684 262.663724 
L 184.348534 262.813884 
L 184.635383 263.587496 
L 185.209083 266.722831 
L 185.495932 266.722831 
L 185.782782 269.555448 
L 186.930181 275.870463 
L 187.21703 275.870463 
L 187.50388 276.121048 
L 187.790729 275.493449 
L 188.077579 274.281511 
L 188.364429 273.775931 
L 189.224978 270.078274 
L 190.085527 264.235882 
L 190.659226 261.951475 
L 190.946076 260.173725 
L 191.232925 259.478665 
L 191.519775 259.487138 
L 191.806625 259.651921 
L 192.093474 260.213425 
L 192.380324 261.069979 
L 192.667174 264.322468 
L 192.954023 264.322468 
L 193.240873 267.672484 
L 194.101422 273.015194 
L 194.388272 275.923614 
L 194.675121 277.471623 
L 194.961971 278.347161 
L 195.53567 278.503663 
L 195.82252 278.218558 
L 196.396219 275.315493 
L 196.683069 273.536309 
L 196.969918 272.920255 
L 197.543618 270.423406 
L 197.830467 267.569914 
L 198.117317 267.569914 
L 198.404167 265.832862 
L 198.977866 264.82623 
L 199.264716 264.687012 
L 199.551565 264.850447 
L 199.838415 265.69424 
L 200.412114 269.193748 
L 200.985814 272.403492 
L 201.272663 276.655936 
L 201.559513 276.655936 
L 201.846363 279.595834 
L 202.420062 281.676213 
L 202.706912 282.293378 
L 203.280611 282.369572 
L 204.14116 278.999941 
L 204.42801 277.801666 
L 204.714859 274.637585 
L 205.001709 274.637585 
L 205.288558 272.157686 
L 206.435957 267.562209 
L 206.722807 267.562209 
L 207.009656 267.865 
L 207.296506 268.464169 
L 207.870205 270.440953 
L 208.157055 272.464786 
L 208.443905 275.588822 
L 209.878153 283.837758 
L 210.165003 284.041768 
L 210.451852 283.892217 
L 210.738702 283.420538 
L 211.886101 278.656815 
L 212.17295 275.947878 
L 212.4598 274.568987 
L 213.320349 268.807875 
L 213.607199 268.807875 
L 213.894048 266.944997 
L 214.180898 266.944997 
L 214.467747 266.137674 
L 214.754597 266.290184 
L 215.041447 266.832871 
L 215.328296 267.66931 
L 215.615146 270.051442 
L 215.901996 271.496283 
L 216.762545 278.393739 
L 217.049394 278.393739 
L 217.336244 280.527994 
L 217.623094 281.270509 
L 217.909943 281.193312 
L 218.196793 280.994581 
L 218.483643 280.366382 
L 218.770492 279.467551 
L 219.631041 272.921307 
L 219.917891 272.213384 
L 220.49159 269.416281 
L 220.77844 266.244993 
L 221.06529 266.244993 
L 221.352139 264.204303 
L 221.925839 262.90358 
L 222.212688 262.631561 
L 222.499538 263.411669 
L 222.786387 263.411669 
L 223.360087 266.814882 
L 223.933786 270.005451 
L 224.507485 275.763839 
L 224.794335 276.509237 
L 225.368034 280.085723 
L 225.654884 280.400034 
L 225.941734 280.356016 
L 226.228583 279.980566 
L 226.515433 279.30651 
L 226.802283 277.842883 
L 227.089132 275.345641 
L 227.375982 275.345641 
L 227.662832 272.54798 
L 228.236531 269.739203 
L 228.81023 265.26394 
L 229.09708 265.26394 
L 229.38393 263.23288 
L 229.957629 261.882896 
L 230.531328 262.216185 
L 230.818178 262.90377 
L 231.678727 270.150375 
L 231.965576 271.071512 
L 232.539276 274.748344 
L 232.826125 277.957863 
L 233.112975 277.957863 
L 233.399825 280.489831 
L 233.686674 280.607557 
L 233.973524 280.588471 
L 234.260374 280.259247 
L 234.547223 278.819292 
L 234.834073 278.819292 
L 235.120923 275.45706 
L 235.407772 274.821238 
L 235.981472 272.253977 
L 236.555171 267.986733 
L 236.842021 266.502941 
L 237.12887 266.083197 
L 237.70257 265.002187 
L 237.989419 265.163428 
L 238.276269 265.752402 
L 239.423668 271.574365 
L 239.710517 274.996818 
L 239.997367 274.996818 
L 240.284217 279.488046 
L 240.571066 280.094824 
L 241.144765 281.91696 
L 241.431615 282.529378 
L 241.718465 282.529378 
L 242.005314 281.131745 
L 242.292164 280.677057 
L 242.865863 278.467011 
L 243.152713 275.16213 
L 243.439563 275.16213 
L 243.726412 272.446721 
L 244.586961 268.741137 
L 245.160661 267.061833 
L 245.44751 267.028497 
L 245.73436 267.436669 
L 246.308059 268.97988 
L 246.594909 270.648265 
L 246.881759 273.330744 
L 247.742308 277.727749 
L 248.316007 281.774781 
L 248.602857 282.385894 
L 248.889706 282.712541 
L 249.176556 282.756156 
L 249.463406 282.526916 
L 249.750255 281.722329 
L 250.037105 279.928396 
L 250.323954 279.928396 
L 250.610804 277.601888 
L 251.471353 273.633648 
L 252.331902 268.550639 
L 252.905601 267.431284 
L 253.192451 267.25975 
L 253.479301 267.544089 
L 254.33985 271.018355 
L 254.913549 273.636612 
L 255.774098 279.402178 
L 256.347797 281.11429 
L 256.634647 281.610531 
L 256.921497 281.817352 
L 257.208346 281.558466 
L 258.642594 274.583134 
L 258.929444 271.592048 
L 260.363692 264.407662 
L 260.650542 263.326483 
L 260.937392 263.278464 
L 261.224241 263.564159 
L 261.511091 264.150747 
L 261.797941 265.521431 
L 262.08479 268.088407 
L 262.37164 268.088407 
L 262.65849 271.144774 
L 263.519039 276.564701 
L 263.805888 278.890696 
L 264.092738 278.890696 
L 264.379588 280.189414 
L 264.666437 280.403354 
L 264.953287 280.176714 
L 265.240137 279.335754 
L 265.526986 278.936859 
L 265.813836 277.979738 
L 266.100686 275.578796 
L 266.387535 275.578796 
L 266.674385 271.37564 
L 266.961235 270.651772 
L 267.534934 267.84159 
L 267.821783 264.82274 
L 268.108633 264.82274 
L 268.395483 263.400376 
L 268.682332 263.129963 
L 268.969182 263.170485 
L 269.256032 263.536152 
L 269.542881 264.675904 
L 270.116581 268.660839 
L 270.40343 270.299883 
L 270.97713 275.434686 
L 271.263979 276.246772 
L 271.550829 277.772822 
L 271.837679 280.342976 
L 272.411378 282.144404 
L 272.698228 282.307732 
L 272.985077 282.208034 
L 273.271927 281.794961 
L 274.419326 275.184705 
L 274.706175 273.012579 
L 274.993025 273.012579 
L 275.279875 270.166574 
L 276.140424 265.683239 
L 276.714123 264.979493 
L 277.287822 265.08643 
L 277.574672 267.393516 
L 277.861521 267.980789 
L 278.435221 270.670178 
L 279.00892 275.932807 
L 279.29577 278.065696 
L 279.582619 278.731698 
L 280.443168 282.447135 
L 280.730018 282.802947 
L 281.303717 282.344832 
L 281.877417 280.986022 
L 282.164266 278.968552 
L 282.451116 277.782956 
L 283.311665 271.872986 
L 283.598515 271.872986 
L 283.885364 269.429117 
L 284.459064 267.053474 
L 285.032763 266.75975 
L 285.319613 266.928713 
L 286.180161 270.504799 
L 286.753861 274.15696 
L 287.04071 274.15696 
L 287.32756 276.516834 
L 288.474959 280.406203 
L 288.761808 280.55933 
L 289.048658 280.549326 
L 289.335508 280.389179 
L 289.909207 279.653839 
L 290.196057 278.789742 
L 290.482906 277.285709 
L 291.630305 273.593251 
L 292.490854 269.608388 
L 293.064553 268.293254 
L 293.638253 267.309771 
L 293.925102 267.285734 
L 294.211952 267.543212 
L 294.785651 268.577192 
L 295.072501 269.324486 
L 295.35935 271.802849 
L 295.6462 271.802849 
L 295.93305 274.221742 
L 296.793599 278.055264 
L 297.080448 280.190265 
L 297.367298 280.190265 
L 297.654148 282.259218 
L 298.514697 282.73696 
L 299.088396 281.553023 
L 299.662095 278.613168 
L 299.948945 276.735595 
L 300.235795 276.735595 
L 300.809494 272.0264 
L 301.096344 270.080502 
L 301.383193 269.469543 
L 302.530592 265.187145 
L 302.817442 264.904659 
L 303.391141 265.367987 
L 303.67799 265.984708 
L 303.96484 268.625141 
L 304.25169 268.625141 
L 304.538539 271.699637 
L 305.399088 277.031932 
L 305.972788 282.320321 
L 306.546487 284.204205 
L 306.833337 284.738603 
L 307.120186 284.987073 
L 307.407036 284.942245 
L 307.693886 284.318945 
L 308.267585 281.423751 
L 308.841284 278.700757 
L 309.988683 270.432869 
L 311.136082 264.409987 
L 311.422931 264.087813 
L 311.709781 264.097317 
L 311.996631 264.434954 
L 312.28348 265.101074 
L 312.57033 266.084685 
L 312.857179 268.055076 
L 313.144029 271.369429 
L 314.004578 276.923006 
L 314.291428 281.143314 
L 314.578277 281.143314 
L 314.865127 283.47169 
L 315.151977 284.198676 
L 315.438826 284.60597 
L 315.725676 284.694069 
L 316.012526 283.993183 
L 316.299375 283.993183 
L 316.586225 281.182103 
L 316.873075 280.565968 
L 317.446774 277.847416 
L 317.733624 274.917053 
L 318.020473 274.917053 
L 318.307323 270.624094 
L 318.594173 269.959812 
L 319.454722 266.015405 
L 319.741571 265.608855 
L 320.028421 265.540509 
L 320.315271 266.135794 
L 320.60212 267.354353 
L 320.88897 267.354353 
L 321.175819 269.826299 
L 321.749519 272.848328 
L 322.323218 278.057365 
L 322.610068 278.057365 
L 322.896917 280.371377 
L 323.470617 282.148658 
L 323.757466 282.439395 
L 324.044316 282.399414 
L 324.331166 282.122234 
L 325.191715 278.434816 
L 325.478564 276.669924 
L 325.765414 276.054761 
L 326.052264 274.808534 
L 326.339113 272.359663 
L 326.625963 272.359663 
L 326.912813 269.294879 
L 327.199662 268.902651 
L 327.773362 267.77377 
L 328.060211 267.540727 
L 328.347061 267.663463 
L 329.49446 271.803384 
L 330.355008 277.389855 
L 331.502407 281.456796 
L 332.076106 281.373056 
L 332.362956 281.013617 
L 332.649806 280.464604 
L 332.936655 279.315457 
L 333.223505 277.308597 
L 333.510355 277.308597 
L 333.797204 274.949133 
L 334.084054 273.716415 
L 334.657753 270.280187 
L 334.944603 269.807015 
L 335.518302 267.998951 
L 335.805152 267.877791 
L 336.092002 268.217294 
L 336.378851 269.132176 
L 336.665701 269.54539 
L 336.952551 270.524762 
L 337.2394 272.947959 
L 337.52625 272.947959 
L 337.8131 276.945774 
L 338.099949 277.593956 
L 338.673649 279.994537 
L 338.960498 281.89347 
L 339.534197 283.010323 
L 340.107897 282.811391 
L 340.394746 282.344265 
L 341.542145 275.974516 
L 341.828995 275.322711 
L 342.115844 274.038915 
L 342.402694 271.647164 
L 343.550093 267.882101 
L 344.123792 267.988993 
L 344.410642 268.40921 
L 344.697491 269.059755 
L 344.984341 270.414996 
L 345.271191 272.64382 
L 347.279138 280.796206 
L 347.565988 281.123882 
L 347.852838 281.270985 
L 348.139687 281.24271 
L 348.426537 281.044997 
L 348.713386 280.43585 
L 349.000236 279.179198 
L 350.434484 275.324317 
L 350.721334 274.438257 
L 351.295033 273.943732 
L 351.868733 273.792193 
L 352.155582 273.89236 
L 352.729282 274.514024 
L 353.589831 275.420572 
L 354.45038 276.775569 
L 355.884628 278.124926 
L 356.458327 278.263393 
L 356.745177 278.260882 
L 357.032026 278.138643 
L 357.318876 277.719615 
L 357.605726 277.719615 
L 358.179425 276.51744 
L 358.753124 275.425683 
L 359.900523 272.061813 
L 361.047922 269.861638 
L 361.334771 269.432156 
L 361.908471 269.417613 
L 362.19532 269.552146 
L 362.48217 270.047576 
L 362.76902 270.047576 
L 363.055869 271.118064 
L 363.342719 271.310798 
L 364.776967 273.065008 
L 365.350667 273.060425 
L 365.924366 272.770092 
L 366.211215 272.402327 
L 366.498065 271.822858 
L 367.071764 271.347475 
L 367.645464 271.162042 
L 367.932313 271.162042 
L 368.219163 271.591309 
L 368.506013 271.715148 
L 369.079712 272.356565 
L 369.366562 272.760547 
L 370.51396 275.300011 
L 371.374509 276.341928 
L 371.948209 276.174285 
L 372.521908 275.676221 
L 373.095607 274.68976 
L 373.669307 274.447891 
L 374.243006 274.578665 
L 374.529856 274.934873 
L 375.103555 276.25407 
L 375.964104 278.188651 
L 376.824653 281.368475 
L 377.685202 283.019931 
L 377.972051 283.506063 
L 378.258901 283.636968 
L 378.545751 283.459128 
L 379.11945 282.634845 
L 379.4063 282.01395 
L 380.266849 278.857658 
L 380.840548 278.089272 
L 381.414247 277.854657 
L 382.274796 278.180941 
L 383.135345 278.51854 
L 383.709045 278.963524 
L 384.569593 279.613493 
L 385.716992 281.14882 
L 386.290691 281.403145 
L 386.577541 281.306946 
L 388.011789 278.138516 
L 388.872338 275.031662 
L 389.446038 274.099642 
L 389.732887 273.711965 
L 390.019737 273.720666 
L 390.593436 274.253389 
L 391.167136 275.204872 
L 391.453985 276.142018 
L 391.740835 277.625442 
L 392.027685 277.625442 
L 392.314534 279.235302 
L 393.175083 281.248215 
L 393.461933 281.809937 
L 393.748782 281.883189 
L 394.035632 281.611167 
L 394.609331 280.462435 
L 394.896181 279.191039 
L 395.183031 277.158707 
L 395.46988 277.158707 
L 395.75673 275.027802 
L 396.617279 272.301867 
L 396.904129 271.480605 
L 397.190978 271.114883 
L 397.477828 271.21626 
L 398.051527 271.820624 
L 398.625227 272.759562 
L 399.772625 275.695848 
L 400.920024 277.410092 
L 401.493723 277.594686 
L 401.780573 277.614384 
L 402.067422 277.482295 
L 403.214821 275.347733 
L 404.36222 273.406736 
L 404.935919 273.244897 
L 405.509618 273.225013 
L 407.517566 273.926995 
L 408.378115 274.295628 
L 408.664965 274.73348 
L 408.951814 275.50642 
L 409.238664 275.50642 
L 409.525514 276.901376 
L 410.672912 280.228447 
L 410.959762 280.228447 
L 411.246611 280.600268 
L 411.533461 280.571594 
L 411.820311 280.240961 
L 412.39401 278.683487 
L 412.68086 278.683487 
L 412.967709 277.233724 
L 414.115108 274.206432 
L 414.401958 274.206432 
L 414.688807 273.856338 
L 415.262507 273.854257 
L 415.549356 274.072439 
L 415.836206 274.758357 
L 416.123056 276.265394 
L 417.557304 280.644223 
L 418.417853 280.535874 
L 419.852101 277.946907 
L 420.138951 277.769532 
L 420.4258 277.800896 
L 420.71265 278.181476 
L 420.9995 278.377252 
L 421.286349 278.848875 
L 421.573199 279.964693 
L 421.860049 279.964693 
L 422.146898 281.134069 
L 422.720598 281.196238 
L 423.007447 281.066662 
L 423.294297 280.666064 
L 424.154846 280.704159 
L 424.728545 281.623155 
L 425.015395 283.114566 
L 425.302245 283.114566 
L 425.589094 285.649961 
L 425.875944 286.028937 
L 426.736493 287.922114 
L 428.170741 287.918996 
L 428.74444 288.689683 
L 429.891839 292.058947 
L 430.178689 294.005763 
L 431.039238 297.152961 
L 431.326087 298.58791 
L 431.612937 298.58791 
L 431.899787 299.525446 
L 432.186636 299.703068 
L 432.186636 299.703068 
" clip-path="url(#p885ec4b158)" style="fill: none; stroke: #008000; stroke-width: 1.5; stroke-linecap: square"/>
   </g>
   <g id="patch_13">
    <path d="M 58.106 301.9975 
L 58.106 251.52 
" style="fill: none; stroke: #000000; stroke-width: 0.8; stroke-linejoin: miter; stroke-linecap: square"/>
   </g>
   <g id="patch_14">
    <path d="M 450 301.9975 
L 450 251.52 
" style="fill: none; stroke: #000000; stroke-width: 0.8; stroke-linejoin: miter; stroke-linecap: square"/>
   </g>
   <g id="patch_15">
    <path d="M 58.106 301.9975 
L 450 301.9975 
" style="fill: none; stroke: #000000; stroke-width: 0.8; stroke-linejoin: miter; stroke-linecap: square"/>
   </g>
   <g id="patch_16">
    <path d="M 58.106 251.52 
L 450 251.52 
" style="fill: none; stroke: #000000; stroke-width: 0.8; stroke-linejoin: miter; stroke-linecap: square"/>
   </g>
   <g id="text_38">
    <!-- Error in swing angle -->
    <g transform="translate(194.282687 245.52)scale(0.12 -0.12)">
     <defs>
      <path id="DejaVuSans-77" d="M 269 3500 
L 844 3500 
L 1563 769 
L 2278 3500 
L 2956 3500 
L 3675 769 
L 4391 3500 
L 4966 3500 
L 4050 0 
L 3372 0 
L 2619 2869 
L 1863 0 
L 1184 0 
L 269 3500 
z
" transform="scale(0.015625)"/>
      <path id="DejaVuSans-67" d="M 2906 1791 
Q 2906 2416 2648 2759 
Q 2391 3103 1925 3103 
Q 1463 3103 1205 2759 
Q 947 2416 947 1791 
Q 947 1169 1205 825 
Q 1463 481 1925 481 
Q 2391 481 2648 825 
Q 2906 1169 2906 1791 
z
M 3481 434 
Q 3481 -459 3084 -895 
Q 2688 -1331 1869 -1331 
Q 1566 -1331 1297 -1286 
Q 1028 -1241 775 -1147 
L 775 -588 
Q 1028 -725 1275 -790 
Q 1522 -856 1778 -856 
Q 2344 -856 2625 -561 
Q 2906 -266 2906 331 
L 2906 616 
Q 2728 306 2450 153 
Q 2172 0 1784 0 
Q 1141 0 747 490 
Q 353 981 353 1791 
Q 353 2603 747 3093 
Q 1141 3584 1784 3584 
Q 2172 3584 2450 3431 
Q 2728 3278 2906 2969 
L 2906 3500 
L 3481 3500 
L 3481 434 
z
" transform="scale(0.015625)"/>
      <path id="DejaVuSans-6c" d="M 603 4863 
L 1178 4863 
L 1178 0 
L 603 0 
L 603 4863 
z
" transform="scale(0.015625)"/>
      <path id="DejaVuSans-65" d="M 3597 1894 
L 3597 1613 
L 953 1613 
Q 991 1019 1311 708 
Q 1631 397 2203 397 
Q 2534 397 2845 478 
Q 3156 559 3463 722 
L 3463 178 
Q 3153 47 2828 -22 
Q 2503 -91 2169 -91 
Q 1331 -91 842 396 
Q 353 884 353 1716 
Q 353 2575 817 3079 
Q 1281 3584 2069 3584 
Q 2775 3584 3186 3129 
Q 3597 2675 3597 1894 
z
M 3022 2063 
Q 3016 2534 2758 2815 
Q 2500 3097 2075 3097 
Q 1594 3097 1305 2825 
Q 1016 2553 972 2059 
L 3022 2063 
z
" transform="scale(0.015625)"/>
     </defs>
     <use xlink:href="#DejaVuSans-45"/>
     <use xlink:href="#DejaVuSans-72" x="63.183594"/>
     <use xlink:href="#DejaVuSans-72" x="102.546875"/>
     <use xlink:href="#DejaVuSans-6f" x="141.410156"/>
     <use xlink:href="#DejaVuSans-72" x="202.591797"/>
     <use xlink:href="#DejaVuSans-20" x="243.705078"/>
     <use xlink:href="#DejaVuSans-69" x="275.492188"/>
     <use xlink:href="#DejaVuSans-6e" x="303.275391"/>
     <use xlink:href="#DejaVuSans-20" x="366.654297"/>
     <use xlink:href="#DejaVuSans-73" x="398.441406"/>
     <use xlink:href="#DejaVuSans-77" x="450.541016"/>
     <use xlink:href="#DejaVuSans-69" x="532.328125"/>
     <use xlink:href="#DejaVuSans-6e" x="560.111328"/>
     <use xlink:href="#DejaVuSans-67" x="623.490234"/>
     <use xlink:href="#DejaVuSans-20" x="686.966797"/>
     <use xlink:href="#DejaVuSans-61" x="718.753906"/>
     <use xlink:href="#DejaVuSans-6e" x="780.033203"/>
     <use xlink:href="#DejaVuSans-67" x="843.412109"/>
     <use xlink:href="#DejaVuSans-6c" x="906.888672"/>
     <use xlink:href="#DejaVuSans-65" x="934.671875"/>
    </g>
   </g>
  </g>
 </g>
 <defs>
  <clipPath id="p496834d840">
   <rect x="58.106" y="28.32" width="391.894" height="50.4775"/>
  </clipPath>
  <clipPath id="p0840a57c3c">
   <rect x="58.106" y="139.92" width="391.894" height="50.4775"/>
  </clipPath>
  <clipPath id="p885ec4b158">
   <rect x="58.106" y="251.52" width="391.894" height="50.4775"/>
  </clipPath>
 </defs>
</svg>
