<?xml version="1.0" encoding="utf-8" standalone="no"?>
<!DOCTYPE svg PUBLIC "-//W3C//DTD SVG 1.1//EN"
  "http://www.w3.org/Graphics/SVG/1.1/DTD/svg11.dtd">
<svg xmlns:xlink="http://www.w3.org/1999/xlink" width="460.8pt" height="345.6pt" viewBox="0 0 460.8 345.6" xmlns="http://www.w3.org/2000/svg" version="1.1">
 <metadata>
  <rdf:RDF xmlns:dc="http://purl.org/dc/elements/1.1/" xmlns:cc="http://creativecommons.org/ns#" xmlns:rdf="http://www.w3.org/1999/02/22-rdf-syntax-ns#">
   <cc:Work>
    <dc:type rdf:resource="http://purl.org/dc/dcmitype/StillImage"/>
    <dc:date>2022-06-05T18:34:41.062902</dc:date>
    <dc:format>image/svg+xml</dc:format>
    <dc:creator>
     <cc:Agent>
      <dc:title>Matplotlib v3.5.1, https://matplotlib.org/</dc:title>
     </cc:Agent>
    </dc:creator>
   </cc:Work>
  </rdf:RDF>
 </metadata>
 <defs>
  <style type="text/css">*{stroke-linejoin: round; stroke-linecap: butt}</style>
 </defs>
 <g id="figure_1">
  <g id="patch_1">
   <path d="M 0 345.6 
L 460.8 345.6 
L 460.8 0 
L 0 0 
z
" style="fill: #ffffff"/>
  </g>
  <g id="axes_1">
   <g id="patch_2">
    <path d="M 58.016 78.7975 
L 450 78.7975 
L 450 28.32 
L 58.016 28.32 
z
" style="fill: #ffffff"/>
   </g>
   <g id="matplotlib.axis_1">
    <g id="xtick_1">
     <g id="line2d_1">
      <path d="M 75.833455 78.7975 
L 75.833455 28.32 
" clip-path="url(#pf0e39f43b1)" style="fill: none; stroke: #b0b0b0; stroke-width: 0.8; stroke-linecap: square"/>
     </g>
     <g id="line2d_2">
      <defs>
       <path id="mbf551e7c8f" d="M 0 0 
L 0 3.5 
" style="stroke: #000000; stroke-width: 0.8"/>
      </defs>
      <g>
       <use xlink:href="#mbf551e7c8f" x="75.833455" y="78.7975" style="stroke: #000000; stroke-width: 0.8"/>
      </g>
     </g>
     <g id="text_1">
      <!-- 0 -->
      <g transform="translate(72.652205 93.395937)scale(0.1 -0.1)">
       <defs>
        <path id="DejaVuSans-30" d="M 2034 4250 
Q 1547 4250 1301 3770 
Q 1056 3291 1056 2328 
Q 1056 1369 1301 889 
Q 1547 409 2034 409 
Q 2525 409 2770 889 
Q 3016 1369 3016 2328 
Q 3016 3291 2770 3770 
Q 2525 4250 2034 4250 
z
M 2034 4750 
Q 2819 4750 3233 4129 
Q 3647 3509 3647 2328 
Q 3647 1150 3233 529 
Q 2819 -91 2034 -91 
Q 1250 -91 836 529 
Q 422 1150 422 2328 
Q 422 3509 836 4129 
Q 1250 4750 2034 4750 
z
" transform="scale(0.015625)"/>
       </defs>
       <use xlink:href="#DejaVuSans-30"/>
      </g>
     </g>
    </g>
    <g id="xtick_2">
     <g id="line2d_3">
      <path d="M 129.581432 78.7975 
L 129.581432 28.32 
" clip-path="url(#pf0e39f43b1)" style="fill: none; stroke: #b0b0b0; stroke-width: 0.8; stroke-linecap: square"/>
     </g>
     <g id="line2d_4">
      <g>
       <use xlink:href="#mbf551e7c8f" x="129.581432" y="78.7975" style="stroke: #000000; stroke-width: 0.8"/>
      </g>
     </g>
     <g id="text_2">
      <!-- 1 -->
      <g transform="translate(126.400182 93.395937)scale(0.1 -0.1)">
       <defs>
        <path id="DejaVuSans-31" d="M 794 531 
L 1825 531 
L 1825 4091 
L 703 3866 
L 703 4441 
L 1819 4666 
L 2450 4666 
L 2450 531 
L 3481 531 
L 3481 0 
L 794 0 
L 794 531 
z
" transform="scale(0.015625)"/>
       </defs>
       <use xlink:href="#DejaVuSans-31"/>
      </g>
     </g>
    </g>
    <g id="xtick_3">
     <g id="line2d_5">
      <path d="M 183.32941 78.7975 
L 183.32941 28.32 
" clip-path="url(#pf0e39f43b1)" style="fill: none; stroke: #b0b0b0; stroke-width: 0.8; stroke-linecap: square"/>
     </g>
     <g id="line2d_6">
      <g>
       <use xlink:href="#mbf551e7c8f" x="183.32941" y="78.7975" style="stroke: #000000; stroke-width: 0.8"/>
      </g>
     </g>
     <g id="text_3">
      <!-- 2 -->
      <g transform="translate(180.14816 93.395937)scale(0.1 -0.1)">
       <defs>
        <path id="DejaVuSans-32" d="M 1228 531 
L 3431 531 
L 3431 0 
L 469 0 
L 469 531 
Q 828 903 1448 1529 
Q 2069 2156 2228 2338 
Q 2531 2678 2651 2914 
Q 2772 3150 2772 3378 
Q 2772 3750 2511 3984 
Q 2250 4219 1831 4219 
Q 1534 4219 1204 4116 
Q 875 4013 500 3803 
L 500 4441 
Q 881 4594 1212 4672 
Q 1544 4750 1819 4750 
Q 2544 4750 2975 4387 
Q 3406 4025 3406 3419 
Q 3406 3131 3298 2873 
Q 3191 2616 2906 2266 
Q 2828 2175 2409 1742 
Q 1991 1309 1228 531 
z
" transform="scale(0.015625)"/>
       </defs>
       <use xlink:href="#DejaVuSans-32"/>
      </g>
     </g>
    </g>
    <g id="xtick_4">
     <g id="line2d_7">
      <path d="M 237.077387 78.7975 
L 237.077387 28.32 
" clip-path="url(#pf0e39f43b1)" style="fill: none; stroke: #b0b0b0; stroke-width: 0.8; stroke-linecap: square"/>
     </g>
     <g id="line2d_8">
      <g>
       <use xlink:href="#mbf551e7c8f" x="237.077387" y="78.7975" style="stroke: #000000; stroke-width: 0.8"/>
      </g>
     </g>
     <g id="text_4">
      <!-- 3 -->
      <g transform="translate(233.896137 93.395937)scale(0.1 -0.1)">
       <defs>
        <path id="DejaVuSans-33" d="M 2597 2516 
Q 3050 2419 3304 2112 
Q 3559 1806 3559 1356 
Q 3559 666 3084 287 
Q 2609 -91 1734 -91 
Q 1441 -91 1130 -33 
Q 819 25 488 141 
L 488 750 
Q 750 597 1062 519 
Q 1375 441 1716 441 
Q 2309 441 2620 675 
Q 2931 909 2931 1356 
Q 2931 1769 2642 2001 
Q 2353 2234 1838 2234 
L 1294 2234 
L 1294 2753 
L 1863 2753 
Q 2328 2753 2575 2939 
Q 2822 3125 2822 3475 
Q 2822 3834 2567 4026 
Q 2313 4219 1838 4219 
Q 1578 4219 1281 4162 
Q 984 4106 628 3988 
L 628 4550 
Q 988 4650 1302 4700 
Q 1616 4750 1894 4750 
Q 2613 4750 3031 4423 
Q 3450 4097 3450 3541 
Q 3450 3153 3228 2886 
Q 3006 2619 2597 2516 
z
" transform="scale(0.015625)"/>
       </defs>
       <use xlink:href="#DejaVuSans-33"/>
      </g>
     </g>
    </g>
    <g id="xtick_5">
     <g id="line2d_9">
      <path d="M 290.825365 78.7975 
L 290.825365 28.32 
" clip-path="url(#pf0e39f43b1)" style="fill: none; stroke: #b0b0b0; stroke-width: 0.8; stroke-linecap: square"/>
     </g>
     <g id="line2d_10">
      <g>
       <use xlink:href="#mbf551e7c8f" x="290.825365" y="78.7975" style="stroke: #000000; stroke-width: 0.8"/>
      </g>
     </g>
     <g id="text_5">
      <!-- 4 -->
      <g transform="translate(287.644115 93.395937)scale(0.1 -0.1)">
       <defs>
        <path id="DejaVuSans-34" d="M 2419 4116 
L 825 1625 
L 2419 1625 
L 2419 4116 
z
M 2253 4666 
L 3047 4666 
L 3047 1625 
L 3713 1625 
L 3713 1100 
L 3047 1100 
L 3047 0 
L 2419 0 
L 2419 1100 
L 313 1100 
L 313 1709 
L 2253 4666 
z
" transform="scale(0.015625)"/>
       </defs>
       <use xlink:href="#DejaVuSans-34"/>
      </g>
     </g>
    </g>
    <g id="xtick_6">
     <g id="line2d_11">
      <path d="M 344.573342 78.7975 
L 344.573342 28.32 
" clip-path="url(#pf0e39f43b1)" style="fill: none; stroke: #b0b0b0; stroke-width: 0.8; stroke-linecap: square"/>
     </g>
     <g id="line2d_12">
      <g>
       <use xlink:href="#mbf551e7c8f" x="344.573342" y="78.7975" style="stroke: #000000; stroke-width: 0.8"/>
      </g>
     </g>
     <g id="text_6">
      <!-- 5 -->
      <g transform="translate(341.392092 93.395937)scale(0.1 -0.1)">
       <defs>
        <path id="DejaVuSans-35" d="M 691 4666 
L 3169 4666 
L 3169 4134 
L 1269 4134 
L 1269 2991 
Q 1406 3038 1543 3061 
Q 1681 3084 1819 3084 
Q 2600 3084 3056 2656 
Q 3513 2228 3513 1497 
Q 3513 744 3044 326 
Q 2575 -91 1722 -91 
Q 1428 -91 1123 -41 
Q 819 9 494 109 
L 494 744 
Q 775 591 1075 516 
Q 1375 441 1709 441 
Q 2250 441 2565 725 
Q 2881 1009 2881 1497 
Q 2881 1984 2565 2268 
Q 2250 2553 1709 2553 
Q 1456 2553 1204 2497 
Q 953 2441 691 2322 
L 691 4666 
z
" transform="scale(0.015625)"/>
       </defs>
       <use xlink:href="#DejaVuSans-35"/>
      </g>
     </g>
    </g>
    <g id="xtick_7">
     <g id="line2d_13">
      <path d="M 398.32132 78.7975 
L 398.32132 28.32 
" clip-path="url(#pf0e39f43b1)" style="fill: none; stroke: #b0b0b0; stroke-width: 0.8; stroke-linecap: square"/>
     </g>
     <g id="line2d_14">
      <g>
       <use xlink:href="#mbf551e7c8f" x="398.32132" y="78.7975" style="stroke: #000000; stroke-width: 0.8"/>
      </g>
     </g>
     <g id="text_7">
      <!-- 6 -->
      <g transform="translate(395.14007 93.395937)scale(0.1 -0.1)">
       <defs>
        <path id="DejaVuSans-36" d="M 2113 2584 
Q 1688 2584 1439 2293 
Q 1191 2003 1191 1497 
Q 1191 994 1439 701 
Q 1688 409 2113 409 
Q 2538 409 2786 701 
Q 3034 994 3034 1497 
Q 3034 2003 2786 2293 
Q 2538 2584 2113 2584 
z
M 3366 4563 
L 3366 3988 
Q 3128 4100 2886 4159 
Q 2644 4219 2406 4219 
Q 1781 4219 1451 3797 
Q 1122 3375 1075 2522 
Q 1259 2794 1537 2939 
Q 1816 3084 2150 3084 
Q 2853 3084 3261 2657 
Q 3669 2231 3669 1497 
Q 3669 778 3244 343 
Q 2819 -91 2113 -91 
Q 1303 -91 875 529 
Q 447 1150 447 2328 
Q 447 3434 972 4092 
Q 1497 4750 2381 4750 
Q 2619 4750 2861 4703 
Q 3103 4656 3366 4563 
z
" transform="scale(0.015625)"/>
       </defs>
       <use xlink:href="#DejaVuSans-36"/>
      </g>
     </g>
    </g>
    <g id="text_8">
     <!-- $t$ [s] -->
     <g transform="translate(243.908 107.074062)scale(0.1 -0.1)">
      <defs>
       <path id="DejaVuSans-Oblique-74" d="M 2706 3500 
L 2619 3053 
L 1472 3053 
L 1100 1153 
Q 1081 1047 1072 975 
Q 1063 903 1063 863 
Q 1063 663 1183 572 
Q 1303 481 1569 481 
L 2150 481 
L 2053 0 
L 1503 0 
Q 991 0 739 200 
Q 488 400 488 806 
Q 488 878 497 964 
Q 506 1050 525 1153 
L 897 3053 
L 409 3053 
L 500 3500 
L 978 3500 
L 1172 4494 
L 1747 4494 
L 1556 3500 
L 2706 3500 
z
" transform="scale(0.015625)"/>
       <path id="DejaVuSans-20" transform="scale(0.015625)"/>
       <path id="DejaVuSans-5b" d="M 550 4863 
L 1875 4863 
L 1875 4416 
L 1125 4416 
L 1125 -397 
L 1875 -397 
L 1875 -844 
L 550 -844 
L 550 4863 
z
" transform="scale(0.015625)"/>
       <path id="DejaVuSans-73" d="M 2834 3397 
L 2834 2853 
Q 2591 2978 2328 3040 
Q 2066 3103 1784 3103 
Q 1356 3103 1142 2972 
Q 928 2841 928 2578 
Q 928 2378 1081 2264 
Q 1234 2150 1697 2047 
L 1894 2003 
Q 2506 1872 2764 1633 
Q 3022 1394 3022 966 
Q 3022 478 2636 193 
Q 2250 -91 1575 -91 
Q 1294 -91 989 -36 
Q 684 19 347 128 
L 347 722 
Q 666 556 975 473 
Q 1284 391 1588 391 
Q 1994 391 2212 530 
Q 2431 669 2431 922 
Q 2431 1156 2273 1281 
Q 2116 1406 1581 1522 
L 1381 1569 
Q 847 1681 609 1914 
Q 372 2147 372 2553 
Q 372 3047 722 3315 
Q 1072 3584 1716 3584 
Q 2034 3584 2315 3537 
Q 2597 3491 2834 3397 
z
" transform="scale(0.015625)"/>
       <path id="DejaVuSans-5d" d="M 1947 4863 
L 1947 -844 
L 622 -844 
L 622 -397 
L 1369 -397 
L 1369 4416 
L 622 4416 
L 622 4863 
L 1947 4863 
z
" transform="scale(0.015625)"/>
      </defs>
      <use xlink:href="#DejaVuSans-Oblique-74" transform="translate(0 0.015625)"/>
      <use xlink:href="#DejaVuSans-20" transform="translate(39.208984 0.015625)"/>
      <use xlink:href="#DejaVuSans-5b" transform="translate(70.996094 0.015625)"/>
      <use xlink:href="#DejaVuSans-73" transform="translate(110.009766 0.015625)"/>
      <use xlink:href="#DejaVuSans-5d" transform="translate(162.109375 0.015625)"/>
     </g>
    </g>
   </g>
   <g id="matplotlib.axis_2">
    <g id="ytick_1">
     <g id="line2d_15">
      <path d="M 58.016 71.454861 
L 450 71.454861 
" clip-path="url(#pf0e39f43b1)" style="fill: none; stroke: #b0b0b0; stroke-width: 0.8; stroke-linecap: square"/>
     </g>
     <g id="line2d_16">
      <defs>
       <path id="mc146e52460" d="M 0 0 
L -3.5 0 
" style="stroke: #000000; stroke-width: 0.8"/>
      </defs>
      <g>
       <use xlink:href="#mc146e52460" x="58.016" y="71.454861" style="stroke: #000000; stroke-width: 0.8"/>
      </g>
     </g>
     <g id="text_9">
      <!-- 0 -->
      <g transform="translate(44.6535 75.254079)scale(0.1 -0.1)">
       <use xlink:href="#DejaVuSans-30"/>
      </g>
     </g>
    </g>
    <g id="ytick_2">
     <g id="line2d_17">
      <path d="M 58.016 30.614502 
L 450 30.614502 
" clip-path="url(#pf0e39f43b1)" style="fill: none; stroke: #b0b0b0; stroke-width: 0.8; stroke-linecap: square"/>
     </g>
     <g id="line2d_18">
      <g>
       <use xlink:href="#mc146e52460" x="58.016" y="30.614502" style="stroke: #000000; stroke-width: 0.8"/>
      </g>
     </g>
     <g id="text_10">
      <!-- 10 -->
      <g transform="translate(38.291 34.413721)scale(0.1 -0.1)">
       <use xlink:href="#DejaVuSans-31"/>
       <use xlink:href="#DejaVuSans-30" x="63.623047"/>
      </g>
     </g>
    </g>
    <g id="text_11">
     <!-- $e_x$ [m] -->
     <g transform="translate(32.211313 69.20875)rotate(-90)scale(0.1 -0.1)">
      <defs>
       <path id="DejaVuSans-Oblique-65" d="M 3078 2063 
Q 3088 2113 3092 2166 
Q 3097 2219 3097 2272 
Q 3097 2653 2873 2875 
Q 2650 3097 2266 3097 
Q 1838 3097 1509 2826 
Q 1181 2556 1013 2059 
L 3078 2063 
z
M 3578 1613 
L 903 1613 
Q 884 1494 878 1425 
Q 872 1356 872 1306 
Q 872 872 1139 634 
Q 1406 397 1894 397 
Q 2269 397 2603 481 
Q 2938 566 3225 728 
L 3116 159 
Q 2806 34 2476 -28 
Q 2147 -91 1806 -91 
Q 1078 -91 686 257 
Q 294 606 294 1247 
Q 294 1794 489 2264 
Q 684 2734 1063 3103 
Q 1306 3334 1642 3459 
Q 1978 3584 2356 3584 
Q 2950 3584 3301 3228 
Q 3653 2872 3653 2272 
Q 3653 2128 3634 1964 
Q 3616 1800 3578 1613 
z
" transform="scale(0.015625)"/>
       <path id="DejaVuSans-Oblique-78" d="M 3841 3500 
L 2234 1784 
L 3219 0 
L 2559 0 
L 1819 1388 
L 531 0 
L -166 0 
L 1556 1844 
L 641 3500 
L 1300 3500 
L 1972 2234 
L 3144 3500 
L 3841 3500 
z
" transform="scale(0.015625)"/>
       <path id="DejaVuSans-6d" d="M 3328 2828 
Q 3544 3216 3844 3400 
Q 4144 3584 4550 3584 
Q 5097 3584 5394 3201 
Q 5691 2819 5691 2113 
L 5691 0 
L 5113 0 
L 5113 2094 
Q 5113 2597 4934 2840 
Q 4756 3084 4391 3084 
Q 3944 3084 3684 2787 
Q 3425 2491 3425 1978 
L 3425 0 
L 2847 0 
L 2847 2094 
Q 2847 2600 2669 2842 
Q 2491 3084 2119 3084 
Q 1678 3084 1418 2786 
Q 1159 2488 1159 1978 
L 1159 0 
L 581 0 
L 581 3500 
L 1159 3500 
L 1159 2956 
Q 1356 3278 1631 3431 
Q 1906 3584 2284 3584 
Q 2666 3584 2933 3390 
Q 3200 3197 3328 2828 
z
" transform="scale(0.015625)"/>
      </defs>
      <use xlink:href="#DejaVuSans-Oblique-65" transform="translate(0 0.015625)"/>
      <use xlink:href="#DejaVuSans-Oblique-78" transform="translate(61.523438 -16.390625)scale(0.7)"/>
      <use xlink:href="#DejaVuSans-20" transform="translate(105.683594 0.015625)"/>
      <use xlink:href="#DejaVuSans-5b" transform="translate(137.470703 0.015625)"/>
      <use xlink:href="#DejaVuSans-6d" transform="translate(176.484375 0.015625)"/>
      <use xlink:href="#DejaVuSans-5d" transform="translate(273.896484 0.015625)"/>
     </g>
    </g>
   </g>
   <g id="line2d_19">
    <path d="M 75.833455 30.614502 
L 89.290746 30.719889 
L 95.750247 30.965306 
L 100.594872 31.234506 
L 102.209747 31.373544 
L 107.592664 31.809571 
L 109.207539 31.974935 
L 112.97558 32.381155 
L 117.281914 32.857953 
L 118.896789 33.018121 
L 119.43508 33.182705 
L 121.049956 33.323165 
L 121.588247 33.466577 
L 122.126539 33.466577 
L 123.203122 33.642522 
L 126.971164 34.163511 
L 131.277497 34.819044 
L 132.892372 35.024902 
L 133.430664 35.235126 
L 135.045539 35.413712 
L 135.583831 35.558842 
L 136.122122 35.558842 
L 136.660414 35.780357 
L 138.275289 35.968513 
L 139.890164 36.35471 
L 141.505039 36.552821 
L 143.119914 36.959228 
L 144.734789 37.167567 
L 146.349664 37.594585 
L 147.964539 37.813277 
L 149.041123 38.080272 
L 150.655998 38.490095 
L 151.194289 38.490095 
L 152.270873 38.769503 
L 153.885748 39.101713 
L 155.500623 39.489549 
L 157.115498 39.936182 
L 157.65379 39.936182 
L 158.730373 40.239945 
L 159.806956 40.496708 
L 160.88354 40.809139 
L 163.574998 41.39393 
L 164.651581 41.719332 
L 166.266456 42.049168 
L 166.804748 42.327359 
L 167.34304 42.327359 
L 168.419623 42.66511 
L 169.496207 42.892612 
L 171.111082 43.469324 
L 172.187665 43.644507 
L 172.725957 43.761842 
L 174.340832 44.354921 
L 175.417415 44.534884 
L 175.955707 44.655371 
L 177.03229 45.019247 
L 178.108873 45.386674 
L 179.185457 45.571691 
L 179.723748 45.819705 
L 180.26204 45.819705 
L 180.800332 46.194507 
L 181.876915 46.383136 
L 182.415207 46.509337 
L 182.953498 46.826383 
L 183.49179 46.826383 
L 184.030082 47.081576 
L 185.644957 47.466912 
L 186.183249 47.790307 
L 186.72154 47.790307 
L 187.259832 48.050484 
L 189.412999 48.640525 
L 189.95129 48.90479 
L 192.104457 49.503836 
L 192.642749 49.772031 
L 193.18104 49.772031 
L 193.719332 50.041411 
L 194.257624 50.041411 
L 194.795915 50.447702 
L 195.872499 50.651838 
L 196.41079 50.788296 
L 196.949082 51.062097 
L 197.487374 51.062097 
L 198.025665 51.475003 
L 199.102249 51.682452 
L 199.640541 51.821124 
L 200.178832 52.099357 
L 201.255416 52.448834 
L 201.793707 52.659426 
L 202.870291 52.870699 
L 203.408582 53.15347 
L 204.485166 53.508672 
L 205.023457 53.722729 
L 206.100041 53.937494 
L 206.638332 54.224957 
L 208.253207 54.731103 
L 208.791499 55.022112 
L 209.329791 55.022112 
L 209.868082 55.314431 
L 212.021249 55.976991 
L 212.559541 56.273632 
L 215.250999 57.096353 
L 215.789291 57.398072 
L 218.480749 58.234846 
L 219.019041 58.541693 
L 221.172208 59.2371 
L 221.710499 59.548391 
L 222.248791 59.548391 
L 222.787083 59.86104 
L 223.863666 60.25376 
L 224.401958 60.490407 
L 225.478541 60.727811 
L 226.016833 61.045532 
L 227.631708 61.604713 
L 228.169999 61.925899 
L 228.708291 61.925899 
L 229.246583 62.248097 
L 230.323166 62.65193 
L 230.861458 62.894612 
L 231.938041 63.13742 
L 232.476333 63.461107 
L 233.552916 63.865092 
L 234.091208 64.106846 
L 235.167791 64.347903 
L 235.706083 64.667912 
L 236.244375 64.667912 
L 236.782666 65.144023 
L 237.85925 65.379928 
L 239.474125 65.923657 
L 240.012416 66.229592 
L 241.627291 66.755617 
L 242.165583 67.050438 
L 242.703875 67.050438 
L 243.242166 67.340792 
L 244.857041 67.837579 
L 245.395333 68.114688 
L 245.933625 68.114688 
L 246.471917 68.386692 
L 248.086792 68.850064 
L 248.625083 69.107478 
L 249.163375 69.107478 
L 249.701667 69.359461 
L 250.77825 69.66676 
L 251.316542 69.847043 
L 252.393125 70.024289 
L 253.469708 70.369876 
L 254.546292 70.703945 
L 255.622875 70.866798 
L 256.699458 71.184396 
L 258.314333 71.541649 
L 260.4675 72.027935 
L 263.158959 72.618433 
L 264.235542 72.832987 
L 264.773834 72.999562 
L 265.312125 72.999562 
L 266.388709 73.240885 
L 271.771625 74.102023 
L 272.848209 74.291197 
L 278.231126 74.931386 
L 278.769417 75.079714 
L 280.384292 75.198242 
L 282.537459 75.464745 
L 286.305501 75.816492 
L 287.920376 75.920036 
L 292.765001 76.256431 
L 301.377668 76.499238 
L 307.837168 76.425109 
L 313.220085 76.189749 
L 322.909335 75.389845 
L 326.677377 74.971199 
L 335.290043 73.796004 
L 339.058085 73.292458 
L 343.364419 72.674452 
L 344.441002 72.56896 
L 358.974877 71.276725 
L 372.432169 70.739982 
L 406.344545 70.605578 
L 432.182545 71.269748 
L 432.182545 71.269748 
" clip-path="url(#pf0e39f43b1)" style="fill: none; stroke: #ff0000; stroke-width: 1.5; stroke-linecap: square"/>
   </g>
   <g id="patch_3">
    <path d="M 58.016 78.7975 
L 58.016 28.32 
" style="fill: none; stroke: #000000; stroke-width: 0.8; stroke-linejoin: miter; stroke-linecap: square"/>
   </g>
   <g id="patch_4">
    <path d="M 450 78.7975 
L 450 28.32 
" style="fill: none; stroke: #000000; stroke-width: 0.8; stroke-linejoin: miter; stroke-linecap: square"/>
   </g>
   <g id="patch_5">
    <path d="M 58.016 78.7975 
L 450 78.7975 
" style="fill: none; stroke: #000000; stroke-width: 0.8; stroke-linejoin: miter; stroke-linecap: square"/>
   </g>
   <g id="patch_6">
    <path d="M 58.016 28.32 
L 450 28.32 
" style="fill: none; stroke: #000000; stroke-width: 0.8; stroke-linejoin: miter; stroke-linecap: square"/>
   </g>
   <g id="text_12">
    <!-- Error in $x$-position -->
    <g transform="translate(200.368 22.32)scale(0.12 -0.12)">
     <defs>
      <path id="DejaVuSans-45" d="M 628 4666 
L 3578 4666 
L 3578 4134 
L 1259 4134 
L 1259 2753 
L 3481 2753 
L 3481 2222 
L 1259 2222 
L 1259 531 
L 3634 531 
L 3634 0 
L 628 0 
L 628 4666 
z
" transform="scale(0.015625)"/>
      <path id="DejaVuSans-72" d="M 2631 2963 
Q 2534 3019 2420 3045 
Q 2306 3072 2169 3072 
Q 1681 3072 1420 2755 
Q 1159 2438 1159 1844 
L 1159 0 
L 581 0 
L 581 3500 
L 1159 3500 
L 1159 2956 
Q 1341 3275 1631 3429 
Q 1922 3584 2338 3584 
Q 2397 3584 2469 3576 
Q 2541 3569 2628 3553 
L 2631 2963 
z
" transform="scale(0.015625)"/>
      <path id="DejaVuSans-6f" d="M 1959 3097 
Q 1497 3097 1228 2736 
Q 959 2375 959 1747 
Q 959 1119 1226 758 
Q 1494 397 1959 397 
Q 2419 397 2687 759 
Q 2956 1122 2956 1747 
Q 2956 2369 2687 2733 
Q 2419 3097 1959 3097 
z
M 1959 3584 
Q 2709 3584 3137 3096 
Q 3566 2609 3566 1747 
Q 3566 888 3137 398 
Q 2709 -91 1959 -91 
Q 1206 -91 779 398 
Q 353 888 353 1747 
Q 353 2609 779 3096 
Q 1206 3584 1959 3584 
z
" transform="scale(0.015625)"/>
      <path id="DejaVuSans-69" d="M 603 3500 
L 1178 3500 
L 1178 0 
L 603 0 
L 603 3500 
z
M 603 4863 
L 1178 4863 
L 1178 4134 
L 603 4134 
L 603 4863 
z
" transform="scale(0.015625)"/>
      <path id="DejaVuSans-6e" d="M 3513 2113 
L 3513 0 
L 2938 0 
L 2938 2094 
Q 2938 2591 2744 2837 
Q 2550 3084 2163 3084 
Q 1697 3084 1428 2787 
Q 1159 2491 1159 1978 
L 1159 0 
L 581 0 
L 581 3500 
L 1159 3500 
L 1159 2956 
Q 1366 3272 1645 3428 
Q 1925 3584 2291 3584 
Q 2894 3584 3203 3211 
Q 3513 2838 3513 2113 
z
" transform="scale(0.015625)"/>
      <path id="DejaVuSans-2d" d="M 313 2009 
L 1997 2009 
L 1997 1497 
L 313 1497 
L 313 2009 
z
" transform="scale(0.015625)"/>
      <path id="DejaVuSans-70" d="M 1159 525 
L 1159 -1331 
L 581 -1331 
L 581 3500 
L 1159 3500 
L 1159 2969 
Q 1341 3281 1617 3432 
Q 1894 3584 2278 3584 
Q 2916 3584 3314 3078 
Q 3713 2572 3713 1747 
Q 3713 922 3314 415 
Q 2916 -91 2278 -91 
Q 1894 -91 1617 61 
Q 1341 213 1159 525 
z
M 3116 1747 
Q 3116 2381 2855 2742 
Q 2594 3103 2138 3103 
Q 1681 3103 1420 2742 
Q 1159 2381 1159 1747 
Q 1159 1113 1420 752 
Q 1681 391 2138 391 
Q 2594 391 2855 752 
Q 3116 1113 3116 1747 
z
" transform="scale(0.015625)"/>
      <path id="DejaVuSans-74" d="M 1172 4494 
L 1172 3500 
L 2356 3500 
L 2356 3053 
L 1172 3053 
L 1172 1153 
Q 1172 725 1289 603 
Q 1406 481 1766 481 
L 2356 481 
L 2356 0 
L 1766 0 
Q 1100 0 847 248 
Q 594 497 594 1153 
L 594 3053 
L 172 3053 
L 172 3500 
L 594 3500 
L 594 4494 
L 1172 4494 
z
" transform="scale(0.015625)"/>
     </defs>
     <use xlink:href="#DejaVuSans-45" transform="translate(0 0.015625)"/>
     <use xlink:href="#DejaVuSans-72" transform="translate(63.183594 0.015625)"/>
     <use xlink:href="#DejaVuSans-72" transform="translate(104.296875 0.015625)"/>
     <use xlink:href="#DejaVuSans-6f" transform="translate(145.410156 0.015625)"/>
     <use xlink:href="#DejaVuSans-72" transform="translate(206.591797 0.015625)"/>
     <use xlink:href="#DejaVuSans-20" transform="translate(247.705078 0.015625)"/>
     <use xlink:href="#DejaVuSans-69" transform="translate(279.492188 0.015625)"/>
     <use xlink:href="#DejaVuSans-6e" transform="translate(307.275391 0.015625)"/>
     <use xlink:href="#DejaVuSans-20" transform="translate(370.654297 0.015625)"/>
     <use xlink:href="#DejaVuSans-Oblique-78" transform="translate(402.441406 0.015625)"/>
     <use xlink:href="#DejaVuSans-2d" transform="translate(461.621094 0.015625)"/>
     <use xlink:href="#DejaVuSans-70" transform="translate(497.705078 0.015625)"/>
     <use xlink:href="#DejaVuSans-6f" transform="translate(561.181641 0.015625)"/>
     <use xlink:href="#DejaVuSans-73" transform="translate(622.363281 0.015625)"/>
     <use xlink:href="#DejaVuSans-69" transform="translate(674.462891 0.015625)"/>
     <use xlink:href="#DejaVuSans-74" transform="translate(702.246094 0.015625)"/>
     <use xlink:href="#DejaVuSans-69" transform="translate(741.455078 0.015625)"/>
     <use xlink:href="#DejaVuSans-6f" transform="translate(769.238281 0.015625)"/>
     <use xlink:href="#DejaVuSans-6e" transform="translate(830.419922 0.015625)"/>
    </g>
   </g>
  </g>
  <g id="axes_2">
   <g id="patch_7">
    <path d="M 58.016 190.3975 
L 450 190.3975 
L 450 139.92 
L 58.016 139.92 
z
" style="fill: #ffffff"/>
   </g>
   <g id="matplotlib.axis_3">
    <g id="xtick_8">
     <g id="line2d_20">
      <path d="M 75.833455 190.3975 
L 75.833455 139.92 
" clip-path="url(#p1ac7ad1032)" style="fill: none; stroke: #b0b0b0; stroke-width: 0.8; stroke-linecap: square"/>
     </g>
     <g id="line2d_21">
      <g>
       <use xlink:href="#mbf551e7c8f" x="75.833455" y="190.3975" style="stroke: #000000; stroke-width: 0.8"/>
      </g>
     </g>
     <g id="text_13">
      <!-- 0 -->
      <g transform="translate(72.652205 204.995937)scale(0.1 -0.1)">
       <use xlink:href="#DejaVuSans-30"/>
      </g>
     </g>
    </g>
    <g id="xtick_9">
     <g id="line2d_22">
      <path d="M 129.581432 190.3975 
L 129.581432 139.92 
" clip-path="url(#p1ac7ad1032)" style="fill: none; stroke: #b0b0b0; stroke-width: 0.8; stroke-linecap: square"/>
     </g>
     <g id="line2d_23">
      <g>
       <use xlink:href="#mbf551e7c8f" x="129.581432" y="190.3975" style="stroke: #000000; stroke-width: 0.8"/>
      </g>
     </g>
     <g id="text_14">
      <!-- 1 -->
      <g transform="translate(126.400182 204.995937)scale(0.1 -0.1)">
       <use xlink:href="#DejaVuSans-31"/>
      </g>
     </g>
    </g>
    <g id="xtick_10">
     <g id="line2d_24">
      <path d="M 183.32941 190.3975 
L 183.32941 139.92 
" clip-path="url(#p1ac7ad1032)" style="fill: none; stroke: #b0b0b0; stroke-width: 0.8; stroke-linecap: square"/>
     </g>
     <g id="line2d_25">
      <g>
       <use xlink:href="#mbf551e7c8f" x="183.32941" y="190.3975" style="stroke: #000000; stroke-width: 0.8"/>
      </g>
     </g>
     <g id="text_15">
      <!-- 2 -->
      <g transform="translate(180.14816 204.995937)scale(0.1 -0.1)">
       <use xlink:href="#DejaVuSans-32"/>
      </g>
     </g>
    </g>
    <g id="xtick_11">
     <g id="line2d_26">
      <path d="M 237.077387 190.3975 
L 237.077387 139.92 
" clip-path="url(#p1ac7ad1032)" style="fill: none; stroke: #b0b0b0; stroke-width: 0.8; stroke-linecap: square"/>
     </g>
     <g id="line2d_27">
      <g>
       <use xlink:href="#mbf551e7c8f" x="237.077387" y="190.3975" style="stroke: #000000; stroke-width: 0.8"/>
      </g>
     </g>
     <g id="text_16">
      <!-- 3 -->
      <g transform="translate(233.896137 204.995937)scale(0.1 -0.1)">
       <use xlink:href="#DejaVuSans-33"/>
      </g>
     </g>
    </g>
    <g id="xtick_12">
     <g id="line2d_28">
      <path d="M 290.825365 190.3975 
L 290.825365 139.92 
" clip-path="url(#p1ac7ad1032)" style="fill: none; stroke: #b0b0b0; stroke-width: 0.8; stroke-linecap: square"/>
     </g>
     <g id="line2d_29">
      <g>
       <use xlink:href="#mbf551e7c8f" x="290.825365" y="190.3975" style="stroke: #000000; stroke-width: 0.8"/>
      </g>
     </g>
     <g id="text_17">
      <!-- 4 -->
      <g transform="translate(287.644115 204.995937)scale(0.1 -0.1)">
       <use xlink:href="#DejaVuSans-34"/>
      </g>
     </g>
    </g>
    <g id="xtick_13">
     <g id="line2d_30">
      <path d="M 344.573342 190.3975 
L 344.573342 139.92 
" clip-path="url(#p1ac7ad1032)" style="fill: none; stroke: #b0b0b0; stroke-width: 0.8; stroke-linecap: square"/>
     </g>
     <g id="line2d_31">
      <g>
       <use xlink:href="#mbf551e7c8f" x="344.573342" y="190.3975" style="stroke: #000000; stroke-width: 0.8"/>
      </g>
     </g>
     <g id="text_18">
      <!-- 5 -->
      <g transform="translate(341.392092 204.995937)scale(0.1 -0.1)">
       <use xlink:href="#DejaVuSans-35"/>
      </g>
     </g>
    </g>
    <g id="xtick_14">
     <g id="line2d_32">
      <path d="M 398.32132 190.3975 
L 398.32132 139.92 
" clip-path="url(#p1ac7ad1032)" style="fill: none; stroke: #b0b0b0; stroke-width: 0.8; stroke-linecap: square"/>
     </g>
     <g id="line2d_33">
      <g>
       <use xlink:href="#mbf551e7c8f" x="398.32132" y="190.3975" style="stroke: #000000; stroke-width: 0.8"/>
      </g>
     </g>
     <g id="text_19">
      <!-- 6 -->
      <g transform="translate(395.14007 204.995937)scale(0.1 -0.1)">
       <use xlink:href="#DejaVuSans-36"/>
      </g>
     </g>
    </g>
    <g id="text_20">
     <!-- $t$ [s] -->
     <g transform="translate(243.908 218.674062)scale(0.1 -0.1)">
      <use xlink:href="#DejaVuSans-Oblique-74" transform="translate(0 0.015625)"/>
      <use xlink:href="#DejaVuSans-20" transform="translate(39.208984 0.015625)"/>
      <use xlink:href="#DejaVuSans-5b" transform="translate(70.996094 0.015625)"/>
      <use xlink:href="#DejaVuSans-73" transform="translate(110.009766 0.015625)"/>
      <use xlink:href="#DejaVuSans-5d" transform="translate(162.109375 0.015625)"/>
     </g>
    </g>
   </g>
   <g id="matplotlib.axis_4">
    <g id="ytick_3">
     <g id="line2d_34">
      <path d="M 58.016 173.487517 
L 450 173.487517 
" clip-path="url(#p1ac7ad1032)" style="fill: none; stroke: #b0b0b0; stroke-width: 0.8; stroke-linecap: square"/>
     </g>
     <g id="line2d_35">
      <g>
       <use xlink:href="#mc146e52460" x="58.016" y="173.487517" style="stroke: #000000; stroke-width: 0.8"/>
      </g>
     </g>
     <g id="text_21">
      <!-- 0.00 -->
      <g transform="translate(28.750375 177.286735)scale(0.1 -0.1)">
       <defs>
        <path id="DejaVuSans-2e" d="M 684 794 
L 1344 794 
L 1344 0 
L 684 0 
L 684 794 
z
" transform="scale(0.015625)"/>
       </defs>
       <use xlink:href="#DejaVuSans-30"/>
       <use xlink:href="#DejaVuSans-2e" x="63.623047"/>
       <use xlink:href="#DejaVuSans-30" x="95.410156"/>
       <use xlink:href="#DejaVuSans-30" x="159.033203"/>
      </g>
     </g>
    </g>
    <g id="ytick_4">
     <g id="line2d_36">
      <path d="M 58.016 144.968635 
L 450 144.968635 
" clip-path="url(#p1ac7ad1032)" style="fill: none; stroke: #b0b0b0; stroke-width: 0.8; stroke-linecap: square"/>
     </g>
     <g id="line2d_37">
      <g>
       <use xlink:href="#mc146e52460" x="58.016" y="144.968635" style="stroke: #000000; stroke-width: 0.8"/>
      </g>
     </g>
     <g id="text_22">
      <!-- 0.05 -->
      <g transform="translate(28.750375 148.767854)scale(0.1 -0.1)">
       <use xlink:href="#DejaVuSans-30"/>
       <use xlink:href="#DejaVuSans-2e" x="63.623047"/>
       <use xlink:href="#DejaVuSans-30" x="95.410156"/>
       <use xlink:href="#DejaVuSans-35" x="159.033203"/>
      </g>
     </g>
    </g>
    <g id="text_23">
     <!-- $e_z$ [m] -->
     <g transform="translate(22.670688 180.60875)rotate(-90)scale(0.1 -0.1)">
      <defs>
       <path id="DejaVuSans-Oblique-7a" d="M 744 3500 
L 3475 3500 
L 3372 2975 
L 738 459 
L 2913 459 
L 2822 0 
L -19 0 
L 84 525 
L 2719 3041 
L 653 3041 
L 744 3500 
z
" transform="scale(0.015625)"/>
      </defs>
      <use xlink:href="#DejaVuSans-Oblique-65" transform="translate(0 0.015625)"/>
      <use xlink:href="#DejaVuSans-Oblique-7a" transform="translate(61.523438 -16.390625)scale(0.7)"/>
      <use xlink:href="#DejaVuSans-20" transform="translate(101.000977 0.015625)"/>
      <use xlink:href="#DejaVuSans-5b" transform="translate(132.788086 0.015625)"/>
      <use xlink:href="#DejaVuSans-6d" transform="translate(171.801758 0.015625)"/>
      <use xlink:href="#DejaVuSans-5d" transform="translate(269.213867 0.015625)"/>
     </g>
    </g>
   </g>
   <g id="line2d_38">
    <path d="M 75.833455 179.014737 
L 76.371746 178.685861 
L 77.44833 178.28716 
L 78.524913 177.763315 
L 79.063205 177.763315 
L 79.601496 177.411259 
L 83.369538 176.322922 
L 84.446121 176.082241 
L 84.984413 175.896191 
L 85.522705 175.896191 
L 86.599288 175.624628 
L 87.675871 175.40541 
L 88.214163 175.236074 
L 88.752455 175.236074 
L 89.829038 174.99523 
L 96.82683 174.085606 
L 100.594872 173.95516 
L 104.362913 174.323485 
L 105.439497 174.600484 
L 107.054372 174.961105 
L 110.284122 176.304948 
L 110.822414 176.713975 
L 111.360705 176.713975 
L 111.898997 177.143924 
L 112.97558 177.703502 
L 114.052164 178.392881 
L 114.590455 178.392881 
L 115.128747 178.854 
L 116.20533 179.421173 
L 116.743622 179.75177 
L 117.820205 180.072213 
L 118.358497 180.479882 
L 118.896789 180.479882 
L 119.43508 181.040525 
L 120.511664 181.293999 
L 121.049956 181.451842 
L 121.588247 181.804169 
L 122.126539 181.804169 
L 122.664831 182.039627 
L 125.356289 182.49596 
L 127.509456 182.525615 
L 130.200914 182.186444 
L 131.277497 182.003238 
L 131.815789 181.899776 
L 132.354081 181.671736 
L 132.892372 181.671736 
L 133.430664 181.286312 
L 134.507247 181.077838 
L 135.045539 180.934342 
L 135.583831 180.638829 
L 136.122122 180.638829 
L 136.660414 180.184247 
L 137.736998 179.95604 
L 138.275289 179.804828 
L 139.351873 179.288727 
L 139.890164 179.077075 
L 140.966748 178.873009 
L 141.505039 178.741627 
L 142.581623 178.315614 
L 143.658206 178.098882 
L 148.502831 177.252621 
L 153.347456 176.938585 
L 159.268665 176.74639 
L 173.264248 176.034273 
L 177.03229 176.270797 
L 182.415207 177.10366 
L 182.953498 177.330879 
L 183.49179 177.330879 
L 184.568374 177.615308 
L 185.644957 177.808098 
L 186.183249 178.047228 
L 186.72154 178.047228 
L 187.798124 178.324405 
L 193.719332 179.242583 
L 200.178832 179.155484 
L 202.870291 178.863808 
L 205.023457 178.449274 
L 206.100041 178.336255 
L 207.176624 178.105683 
L 208.253207 177.913152 
L 208.791499 177.761336 
L 209.329791 177.761336 
L 210.406374 177.541759 
L 218.480749 176.594081 
L 220.633916 176.47201 
L 225.478541 176.324179 
L 227.631708 176.381578 
L 237.320958 177.741707 
L 239.474125 177.782977 
L 241.089 177.557391 
L 241.627291 177.375451 
L 242.165583 177.035866 
L 242.703875 177.035866 
L 243.242166 176.578744 
L 244.31875 176.00268 
L 244.857041 175.493995 
L 245.395333 174.715645 
L 245.933625 174.715645 
L 246.471917 173.829955 
L 247.5485 172.846895 
L 248.086792 172.054663 
L 248.625083 170.935433 
L 249.163375 170.935433 
L 249.701667 169.760742 
L 250.239958 169.158357 
L 251.316542 167.324158 
L 251.854833 167.01651 
L 252.393125 166.399347 
L 252.931417 165.155639 
L 253.469708 164.528738 
L 254.546292 162.623686 
L 255.084583 162.302084 
L 255.622875 161.655348 
L 256.161167 160.347629 
L 256.699458 159.68715 
L 257.776042 157.685838 
L 258.314333 157.350229 
L 258.852625 156.679042 
L 259.390917 155.342693 
L 260.4675 154.025441 
L 261.005792 153.06132 
L 261.544083 151.823161 
L 262.082375 151.823161 
L 262.620667 150.660177 
L 264.235542 148.873106 
L 264.773834 148.03552 
L 265.312125 148.03552 
L 265.850417 147.367908 
L 266.927 146.89944 
L 268.003584 146.631378 
L 269.080167 146.843995 
L 270.15675 147.351931 
L 271.233334 148.183319 
L 271.771625 149.032517 
L 272.309917 150.46838 
L 273.3865 152.227629 
L 274.463084 154.261825 
L 275.001375 155.923712 
L 275.539667 158.250202 
L 277.154542 161.822893 
L 277.692834 164.15898 
L 278.231126 164.15898 
L 278.769417 167.433632 
L 279.307709 167.942349 
L 280.384292 169.849376 
L 280.922584 171.530398 
L 281.460876 172.280904 
L 282.537459 174.155852 
L 283.075751 174.883534 
L 283.614042 174.883534 
L 284.152334 175.645662 
L 285.767209 176.529569 
L 286.305501 176.664077 
L 288.458667 176.558819 
L 289.535251 176.321651 
L 290.073542 176.16987 
L 290.611834 175.815126 
L 291.688417 175.412526 
L 293.841584 174.222402 
L 295.994751 173.358761 
L 296.533043 173.052233 
L 298.686209 172.632341 
L 299.224501 172.514467 
L 301.915959 172.621555 
L 305.684001 173.794348 
L 306.222293 173.794348 
L 306.760584 174.280466 
L 307.837168 174.522865 
L 308.375459 174.681532 
L 308.913751 174.98685 
L 310.528626 175.521583 
L 311.066918 175.688351 
L 311.60521 175.688351 
L 312.681793 175.959741 
L 315.373251 176.250431 
L 318.06471 176.199129 
L 323.447626 175.974198 
L 326.677377 176.561866 
L 327.215668 176.800955 
L 327.75396 177.188147 
L 329.368835 177.920416 
L 329.907127 178.204815 
L 330.445418 178.666885 
L 330.98371 179.344496 
L 333.136877 180.882406 
L 333.675168 181.50524 
L 334.21346 182.355484 
L 336.366627 184.056541 
L 336.904918 185.060102 
L 337.44321 185.060102 
L 337.981502 185.800405 
L 339.596377 186.906722 
L 340.134668 187.402293 
L 341.749544 187.915051 
L 342.826127 188.103068 
L 343.90271 188.08096 
L 345.517585 187.41553 
L 346.594169 186.473656 
L 347.13246 186.473656 
L 348.747335 184.013582 
L 349.285627 183.709552 
L 350.36221 182.394655 
L 350.900502 180.557414 
L 351.438794 180.557414 
L 351.977085 178.957662 
L 353.59196 176.39025 
L 354.130252 175.0538 
L 354.668544 173.220009 
L 356.283419 170.343426 
L 356.821711 168.841019 
L 357.360002 166.766384 
L 359.513169 162.412567 
L 360.051461 160.726631 
L 360.589752 158.456762 
L 361.128044 158.456762 
L 361.666336 156.189443 
L 362.204627 155.067326 
L 363.281211 151.802531 
L 363.819502 151.280596 
L 364.357794 150.261374 
L 364.896086 148.337715 
L 365.434377 147.443031 
L 366.510961 145.095882 
L 367.049252 144.760687 
L 367.587544 144.144153 
L 368.125836 143.144821 
L 369.202419 142.381753 
L 369.740711 142.21678 
L 370.817294 142.292211 
L 371.355586 142.79123 
L 371.893878 142.79123 
L 372.432169 144.438653 
L 372.970461 144.823915 
L 374.047044 146.671718 
L 374.585336 148.352404 
L 375.123628 150.892803 
L 377.276794 156.566799 
L 377.815086 158.024001 
L 378.353378 160.179392 
L 378.891669 162.933109 
L 381.044836 168.282566 
L 381.583128 170.172879 
L 382.659711 171.721825 
L 384.812878 174.204873 
L 385.889461 174.496255 
L 386.966044 174.494274 
L 387.504336 174.396379 
L 388.042628 174.139044 
L 388.58092 173.609056 
L 390.195795 172.477375 
L 390.734086 172.028443 
L 391.272378 171.308757 
L 391.81067 170.293284 
L 393.425545 168.736308 
L 393.963836 167.501172 
L 394.502128 167.501172 
L 395.04042 166.612128 
L 397.193586 164.998874 
L 397.731878 164.998874 
L 398.27017 164.565445 
L 399.885045 164.550692 
L 401.49992 165.305618 
L 402.038211 165.757736 
L 402.576503 165.928045 
L 403.114795 166.295244 
L 403.653087 167.124127 
L 404.191378 167.5778 
L 405.267962 169.05308 
L 405.806253 169.311243 
L 406.344545 169.833882 
L 406.882837 170.892444 
L 407.421128 171.421354 
L 408.497712 172.969903 
L 409.036003 173.219024 
L 409.574295 173.706797 
L 410.112587 174.633051 
L 410.650878 174.633051 
L 411.18917 175.871613 
L 411.727462 176.057585 
L 412.804045 176.737323 
L 413.342337 177.307659 
L 413.880628 177.307659 
L 414.41892 177.950753 
L 416.033795 178.287262 
L 416.572087 178.424827 
L 418.725254 178.333932 
L 419.263545 178.241617 
L 419.801837 177.987259 
L 420.340129 177.987259 
L 420.87842 177.450817 
L 421.416712 177.34491 
L 422.493295 176.881035 
L 423.031587 176.361886 
L 423.569879 176.361886 
L 424.10817 175.516936 
L 424.646462 175.371314 
L 425.723045 174.784327 
L 426.261337 174.201106 
L 426.799629 174.201106 
L 427.33792 173.368942 
L 427.876212 173.238131 
L 428.952795 172.744311 
L 429.491087 172.305755 
L 430.029379 172.305755 
L 430.56767 171.77158 
L 432.182545 171.456185 
L 432.182545 171.456185 
" clip-path="url(#p1ac7ad1032)" style="fill: none; stroke: #0000ff; stroke-width: 1.5; stroke-linecap: square"/>
   </g>
   <g id="patch_8">
    <path d="M 58.016 190.3975 
L 58.016 139.92 
" style="fill: none; stroke: #000000; stroke-width: 0.8; stroke-linejoin: miter; stroke-linecap: square"/>
   </g>
   <g id="patch_9">
    <path d="M 450 190.3975 
L 450 139.92 
" style="fill: none; stroke: #000000; stroke-width: 0.8; stroke-linejoin: miter; stroke-linecap: square"/>
   </g>
   <g id="patch_10">
    <path d="M 58.016 190.3975 
L 450 190.3975 
" style="fill: none; stroke: #000000; stroke-width: 0.8; stroke-linejoin: miter; stroke-linecap: square"/>
   </g>
   <g id="patch_11">
    <path d="M 58.016 139.92 
L 450 139.92 
" style="fill: none; stroke: #000000; stroke-width: 0.8; stroke-linejoin: miter; stroke-linecap: square"/>
   </g>
   <g id="text_24">
    <!-- Error in $z$-position -->
    <g transform="translate(200.728 133.92)scale(0.12 -0.12)">
     <use xlink:href="#DejaVuSans-45" transform="translate(0 0.015625)"/>
     <use xlink:href="#DejaVuSans-72" transform="translate(63.183594 0.015625)"/>
     <use xlink:href="#DejaVuSans-72" transform="translate(104.296875 0.015625)"/>
     <use xlink:href="#DejaVuSans-6f" transform="translate(145.410156 0.015625)"/>
     <use xlink:href="#DejaVuSans-72" transform="translate(206.591797 0.015625)"/>
     <use xlink:href="#DejaVuSans-20" transform="translate(247.705078 0.015625)"/>
     <use xlink:href="#DejaVuSans-69" transform="translate(279.492188 0.015625)"/>
     <use xlink:href="#DejaVuSans-6e" transform="translate(307.275391 0.015625)"/>
     <use xlink:href="#DejaVuSans-20" transform="translate(370.654297 0.015625)"/>
     <use xlink:href="#DejaVuSans-Oblique-7a" transform="translate(402.441406 0.015625)"/>
     <use xlink:href="#DejaVuSans-2d" transform="translate(454.931641 0.015625)"/>
     <use xlink:href="#DejaVuSans-70" transform="translate(491.015625 0.015625)"/>
     <use xlink:href="#DejaVuSans-6f" transform="translate(554.492188 0.015625)"/>
     <use xlink:href="#DejaVuSans-73" transform="translate(615.673828 0.015625)"/>
     <use xlink:href="#DejaVuSans-69" transform="translate(667.773438 0.015625)"/>
     <use xlink:href="#DejaVuSans-74" transform="translate(695.556641 0.015625)"/>
     <use xlink:href="#DejaVuSans-69" transform="translate(734.765625 0.015625)"/>
     <use xlink:href="#DejaVuSans-6f" transform="translate(762.548828 0.015625)"/>
     <use xlink:href="#DejaVuSans-6e" transform="translate(823.730469 0.015625)"/>
    </g>
   </g>
  </g>
  <g id="axes_3">
   <g id="patch_12">
    <path d="M 58.016 301.9975 
L 450 301.9975 
L 450 251.52 
L 58.016 251.52 
z
" style="fill: #ffffff"/>
   </g>
   <g id="matplotlib.axis_5">
    <g id="xtick_15">
     <g id="line2d_39">
      <path d="M 75.833455 301.9975 
L 75.833455 251.52 
" clip-path="url(#p27c256cca1)" style="fill: none; stroke: #b0b0b0; stroke-width: 0.8; stroke-linecap: square"/>
     </g>
     <g id="line2d_40">
      <g>
       <use xlink:href="#mbf551e7c8f" x="75.833455" y="301.9975" style="stroke: #000000; stroke-width: 0.8"/>
      </g>
     </g>
     <g id="text_25">
      <!-- 0 -->
      <g transform="translate(72.652205 316.595937)scale(0.1 -0.1)">
       <use xlink:href="#DejaVuSans-30"/>
      </g>
     </g>
    </g>
    <g id="xtick_16">
     <g id="line2d_41">
      <path d="M 129.581432 301.9975 
L 129.581432 251.52 
" clip-path="url(#p27c256cca1)" style="fill: none; stroke: #b0b0b0; stroke-width: 0.8; stroke-linecap: square"/>
     </g>
     <g id="line2d_42">
      <g>
       <use xlink:href="#mbf551e7c8f" x="129.581432" y="301.9975" style="stroke: #000000; stroke-width: 0.8"/>
      </g>
     </g>
     <g id="text_26">
      <!-- 1 -->
      <g transform="translate(126.400182 316.595937)scale(0.1 -0.1)">
       <use xlink:href="#DejaVuSans-31"/>
      </g>
     </g>
    </g>
    <g id="xtick_17">
     <g id="line2d_43">
      <path d="M 183.32941 301.9975 
L 183.32941 251.52 
" clip-path="url(#p27c256cca1)" style="fill: none; stroke: #b0b0b0; stroke-width: 0.8; stroke-linecap: square"/>
     </g>
     <g id="line2d_44">
      <g>
       <use xlink:href="#mbf551e7c8f" x="183.32941" y="301.9975" style="stroke: #000000; stroke-width: 0.8"/>
      </g>
     </g>
     <g id="text_27">
      <!-- 2 -->
      <g transform="translate(180.14816 316.595937)scale(0.1 -0.1)">
       <use xlink:href="#DejaVuSans-32"/>
      </g>
     </g>
    </g>
    <g id="xtick_18">
     <g id="line2d_45">
      <path d="M 237.077387 301.9975 
L 237.077387 251.52 
" clip-path="url(#p27c256cca1)" style="fill: none; stroke: #b0b0b0; stroke-width: 0.8; stroke-linecap: square"/>
     </g>
     <g id="line2d_46">
      <g>
       <use xlink:href="#mbf551e7c8f" x="237.077387" y="301.9975" style="stroke: #000000; stroke-width: 0.8"/>
      </g>
     </g>
     <g id="text_28">
      <!-- 3 -->
      <g transform="translate(233.896137 316.595937)scale(0.1 -0.1)">
       <use xlink:href="#DejaVuSans-33"/>
      </g>
     </g>
    </g>
    <g id="xtick_19">
     <g id="line2d_47">
      <path d="M 290.825365 301.9975 
L 290.825365 251.52 
" clip-path="url(#p27c256cca1)" style="fill: none; stroke: #b0b0b0; stroke-width: 0.8; stroke-linecap: square"/>
     </g>
     <g id="line2d_48">
      <g>
       <use xlink:href="#mbf551e7c8f" x="290.825365" y="301.9975" style="stroke: #000000; stroke-width: 0.8"/>
      </g>
     </g>
     <g id="text_29">
      <!-- 4 -->
      <g transform="translate(287.644115 316.595937)scale(0.1 -0.1)">
       <use xlink:href="#DejaVuSans-34"/>
      </g>
     </g>
    </g>
    <g id="xtick_20">
     <g id="line2d_49">
      <path d="M 344.573342 301.9975 
L 344.573342 251.52 
" clip-path="url(#p27c256cca1)" style="fill: none; stroke: #b0b0b0; stroke-width: 0.8; stroke-linecap: square"/>
     </g>
     <g id="line2d_50">
      <g>
       <use xlink:href="#mbf551e7c8f" x="344.573342" y="301.9975" style="stroke: #000000; stroke-width: 0.8"/>
      </g>
     </g>
     <g id="text_30">
      <!-- 5 -->
      <g transform="translate(341.392092 316.595937)scale(0.1 -0.1)">
       <use xlink:href="#DejaVuSans-35"/>
      </g>
     </g>
    </g>
    <g id="xtick_21">
     <g id="line2d_51">
      <path d="M 398.32132 301.9975 
L 398.32132 251.52 
" clip-path="url(#p27c256cca1)" style="fill: none; stroke: #b0b0b0; stroke-width: 0.8; stroke-linecap: square"/>
     </g>
     <g id="line2d_52">
      <g>
       <use xlink:href="#mbf551e7c8f" x="398.32132" y="301.9975" style="stroke: #000000; stroke-width: 0.8"/>
      </g>
     </g>
     <g id="text_31">
      <!-- 6 -->
      <g transform="translate(395.14007 316.595937)scale(0.1 -0.1)">
       <use xlink:href="#DejaVuSans-36"/>
      </g>
     </g>
    </g>
    <g id="text_32">
     <!-- $t$ [s] -->
     <g transform="translate(243.908 330.274063)scale(0.1 -0.1)">
      <use xlink:href="#DejaVuSans-Oblique-74" transform="translate(0 0.015625)"/>
      <use xlink:href="#DejaVuSans-20" transform="translate(39.208984 0.015625)"/>
      <use xlink:href="#DejaVuSans-5b" transform="translate(70.996094 0.015625)"/>
      <use xlink:href="#DejaVuSans-73" transform="translate(110.009766 0.015625)"/>
      <use xlink:href="#DejaVuSans-5d" transform="translate(162.109375 0.015625)"/>
     </g>
    </g>
   </g>
   <g id="matplotlib.axis_6">
    <g id="ytick_5">
     <g id="line2d_53">
      <path d="M 58.016 293.923594 
L 450 293.923594 
" clip-path="url(#p27c256cca1)" style="fill: none; stroke: #b0b0b0; stroke-width: 0.8; stroke-linecap: square"/>
     </g>
     <g id="line2d_54">
      <g>
       <use xlink:href="#mc146e52460" x="58.016" y="293.923594" style="stroke: #000000; stroke-width: 0.8"/>
      </g>
     </g>
     <g id="text_33">
      <!-- −2.5 -->
      <g transform="translate(26.733188 297.722813)scale(0.1 -0.1)">
       <defs>
        <path id="DejaVuSans-2212" d="M 678 2272 
L 4684 2272 
L 4684 1741 
L 678 1741 
L 678 2272 
z
" transform="scale(0.015625)"/>
       </defs>
       <use xlink:href="#DejaVuSans-2212"/>
       <use xlink:href="#DejaVuSans-32" x="83.789062"/>
       <use xlink:href="#DejaVuSans-2e" x="147.412109"/>
       <use xlink:href="#DejaVuSans-35" x="179.199219"/>
      </g>
     </g>
    </g>
    <g id="ytick_6">
     <g id="line2d_55">
      <path d="M 58.016 274.072245 
L 450 274.072245 
" clip-path="url(#p27c256cca1)" style="fill: none; stroke: #b0b0b0; stroke-width: 0.8; stroke-linecap: square"/>
     </g>
     <g id="line2d_56">
      <g>
       <use xlink:href="#mc146e52460" x="58.016" y="274.072245" style="stroke: #000000; stroke-width: 0.8"/>
      </g>
     </g>
     <g id="text_34">
      <!-- 0.0 -->
      <g transform="translate(35.112875 277.871464)scale(0.1 -0.1)">
       <use xlink:href="#DejaVuSans-30"/>
       <use xlink:href="#DejaVuSans-2e" x="63.623047"/>
       <use xlink:href="#DejaVuSans-30" x="95.410156"/>
      </g>
     </g>
    </g>
    <g id="ytick_7">
     <g id="line2d_57">
      <path d="M 58.016 254.220896 
L 450 254.220896 
" clip-path="url(#p27c256cca1)" style="fill: none; stroke: #b0b0b0; stroke-width: 0.8; stroke-linecap: square"/>
     </g>
     <g id="line2d_58">
      <g>
       <use xlink:href="#mc146e52460" x="58.016" y="254.220896" style="stroke: #000000; stroke-width: 0.8"/>
      </g>
     </g>
     <g id="text_35">
      <!-- 2.5 -->
      <g transform="translate(35.112875 258.020115)scale(0.1 -0.1)">
       <use xlink:href="#DejaVuSans-32"/>
       <use xlink:href="#DejaVuSans-2e" x="63.623047"/>
       <use xlink:href="#DejaVuSans-35" x="95.410156"/>
      </g>
     </g>
    </g>
    <g id="text_36">
     <!-- $e_\theta$ [rad] -->
     <g transform="translate(20.6535 295.90875)rotate(-90)scale(0.1 -0.1)">
      <defs>
       <path id="DejaVuSans-Oblique-3b8" d="M 2913 2219 
L 925 2219 
Q 791 1284 928 888 
Q 1100 400 1566 400 
Q 2034 400 2391 891 
Q 2703 1322 2913 2219 
z
M 3009 2750 
Q 3094 3638 2984 3950 
Q 2813 4444 2353 4444 
Q 1875 4444 1525 3956 
Q 1250 3563 1034 2750 
L 3009 2750 
z
M 2444 4913 
Q 3194 4913 3494 4250 
Q 3794 3591 3566 2422 
Q 3341 1256 2781 594 
Q 2225 -72 1475 -72 
Q 722 -72 425 594 
Q 128 1256 353 2422 
Q 581 3591 1134 4250 
Q 1691 4913 2444 4913 
z
" transform="scale(0.015625)"/>
       <path id="DejaVuSans-61" d="M 2194 1759 
Q 1497 1759 1228 1600 
Q 959 1441 959 1056 
Q 959 750 1161 570 
Q 1363 391 1709 391 
Q 2188 391 2477 730 
Q 2766 1069 2766 1631 
L 2766 1759 
L 2194 1759 
z
M 3341 1997 
L 3341 0 
L 2766 0 
L 2766 531 
Q 2569 213 2275 61 
Q 1981 -91 1556 -91 
Q 1019 -91 701 211 
Q 384 513 384 1019 
Q 384 1609 779 1909 
Q 1175 2209 1959 2209 
L 2766 2209 
L 2766 2266 
Q 2766 2663 2505 2880 
Q 2244 3097 1772 3097 
Q 1472 3097 1187 3025 
Q 903 2953 641 2809 
L 641 3341 
Q 956 3463 1253 3523 
Q 1550 3584 1831 3584 
Q 2591 3584 2966 3190 
Q 3341 2797 3341 1997 
z
" transform="scale(0.015625)"/>
       <path id="DejaVuSans-64" d="M 2906 2969 
L 2906 4863 
L 3481 4863 
L 3481 0 
L 2906 0 
L 2906 525 
Q 2725 213 2448 61 
Q 2172 -91 1784 -91 
Q 1150 -91 751 415 
Q 353 922 353 1747 
Q 353 2572 751 3078 
Q 1150 3584 1784 3584 
Q 2172 3584 2448 3432 
Q 2725 3281 2906 2969 
z
M 947 1747 
Q 947 1113 1208 752 
Q 1469 391 1925 391 
Q 2381 391 2643 752 
Q 2906 1113 2906 1747 
Q 2906 2381 2643 2742 
Q 2381 3103 1925 3103 
Q 1469 3103 1208 2742 
Q 947 2381 947 1747 
z
" transform="scale(0.015625)"/>
      </defs>
      <use xlink:href="#DejaVuSans-Oblique-65" transform="translate(0 0.015625)"/>
      <use xlink:href="#DejaVuSans-Oblique-3b8" transform="translate(61.523438 -16.390625)scale(0.7)"/>
      <use xlink:href="#DejaVuSans-20" transform="translate(107.084961 0.015625)"/>
      <use xlink:href="#DejaVuSans-5b" transform="translate(138.87207 0.015625)"/>
      <use xlink:href="#DejaVuSans-72" transform="translate(177.885742 0.015625)"/>
      <use xlink:href="#DejaVuSans-61" transform="translate(218.999023 0.015625)"/>
      <use xlink:href="#DejaVuSans-64" transform="translate(280.27832 0.015625)"/>
      <use xlink:href="#DejaVuSans-5d" transform="translate(343.754883 0.015625)"/>
     </g>
    </g>
   </g>
   <g id="line2d_59">
    <path d="M 75.833455 261.607911 
L 77.986621 261.570169 
L 81.216371 261.088751 
L 81.754663 260.926975 
L 82.292955 260.926975 
L 83.369538 260.69518 
L 91.982205 259.633089 
L 101.671455 259.192528 
L 105.977789 259.087131 
L 114.590455 259.074724 
L 147.964539 259.706494 
L 163.036706 259.440644 
L 174.879123 259.221585 
L 185.644957 259.235259 
L 202.331999 259.559518 
L 217.942458 259.693488 
L 228.708291 259.712245 
L 233.014625 260.448307 
L 234.6295 260.847542 
L 235.167791 260.971854 
L 235.706083 261.233552 
L 236.244375 261.233552 
L 236.782666 261.640796 
L 237.85925 261.845444 
L 239.474125 262.301867 
L 240.012416 262.545562 
L 241.627291 262.931139 
L 242.165583 263.126253 
L 242.703875 263.126253 
L 243.780458 263.386363 
L 248.625083 264.034332 
L 253.469708 264.01993 
L 255.084583 263.682964 
L 255.622875 263.483782 
L 256.699458 261.917401 
L 257.23775 258.845012 
L 257.776042 299.703068 
L 259.390917 292.387815 
L 260.4675 291.710921 
L 261.544083 291.221113 
L 262.082375 291.221113 
L 263.158959 291.020148 
L 277.154542 289.674881 
L 278.769417 289.441229 
L 280.922584 289.256802 
L 288.996959 288.796452 
L 301.915959 288.737089 
L 325.600793 289.454055 
L 327.75396 289.250713 
L 330.445418 288.909233 
L 331.522002 288.67073 
L 333.675168 288.252673 
L 334.751752 287.938627 
L 336.366627 287.602558 
L 336.904918 287.306912 
L 337.44321 287.306912 
L 338.519793 286.939816 
L 339.596377 286.62729 
L 340.134668 286.373836 
L 342.826127 285.677793 
L 343.364419 285.428895 
L 343.90271 285.428895 
L 344.441002 285.183512 
L 346.055877 284.71513 
L 346.594169 284.549706 
L 347.13246 284.549706 
L 348.209044 284.193984 
L 349.285627 284.015495 
L 352.515377 283.616898 
L 353.59196 283.662189 
L 354.130252 283.811829 
L 354.668544 284.433901 
L 355.206835 285.306287 
L 355.745127 287.719883 
L 356.283419 295.809277 
L 356.821711 253.814432 
L 357.360002 255.472972 
L 358.436586 255.894812 
L 360.051461 256.076846 
L 368.664127 256.343723 
L 371.893878 256.840857 
L 372.432169 257.173578 
L 373.508753 257.365902 
L 374.585336 257.722698 
L 375.123628 258.034581 
L 378.353378 259.114365 
L 378.891669 259.436182 
L 381.044836 260.086206 
L 381.583128 260.331923 
L 385.351169 261.035173 
L 389.119211 261.266638 
L 393.425545 261.226905 
L 396.655295 261.160276 
L 400.961628 261.206475 
L 407.421128 261.588596 
L 412.265753 261.925981 
L 419.801837 262.2162 
L 423.569879 262.143044 
L 425.184754 262.021797 
L 427.876212 261.746242 
L 430.029379 261.531663 
L 430.56767 261.360308 
L 432.182545 261.221465 
L 432.182545 261.221465 
" clip-path="url(#p27c256cca1)" style="fill: none; stroke: #008000; stroke-width: 1.5; stroke-linecap: square"/>
   </g>
   <g id="patch_13">
    <path d="M 58.016 301.9975 
L 58.016 251.52 
" style="fill: none; stroke: #000000; stroke-width: 0.8; stroke-linejoin: miter; stroke-linecap: square"/>
   </g>
   <g id="patch_14">
    <path d="M 450 301.9975 
L 450 251.52 
" style="fill: none; stroke: #000000; stroke-width: 0.8; stroke-linejoin: miter; stroke-linecap: square"/>
   </g>
   <g id="patch_15">
    <path d="M 58.016 301.9975 
L 450 301.9975 
" style="fill: none; stroke: #000000; stroke-width: 0.8; stroke-linejoin: miter; stroke-linecap: square"/>
   </g>
   <g id="patch_16">
    <path d="M 58.016 251.52 
L 450 251.52 
" style="fill: none; stroke: #000000; stroke-width: 0.8; stroke-linejoin: miter; stroke-linecap: square"/>
   </g>
   <g id="text_37">
    <!-- Error in swing angle -->
    <g transform="translate(194.237688 245.52)scale(0.12 -0.12)">
     <defs>
      <path id="DejaVuSans-77" d="M 269 3500 
L 844 3500 
L 1563 769 
L 2278 3500 
L 2956 3500 
L 3675 769 
L 4391 3500 
L 4966 3500 
L 4050 0 
L 3372 0 
L 2619 2869 
L 1863 0 
L 1184 0 
L 269 3500 
z
" transform="scale(0.015625)"/>
      <path id="DejaVuSans-67" d="M 2906 1791 
Q 2906 2416 2648 2759 
Q 2391 3103 1925 3103 
Q 1463 3103 1205 2759 
Q 947 2416 947 1791 
Q 947 1169 1205 825 
Q 1463 481 1925 481 
Q 2391 481 2648 825 
Q 2906 1169 2906 1791 
z
M 3481 434 
Q 3481 -459 3084 -895 
Q 2688 -1331 1869 -1331 
Q 1566 -1331 1297 -1286 
Q 1028 -1241 775 -1147 
L 775 -588 
Q 1028 -725 1275 -790 
Q 1522 -856 1778 -856 
Q 2344 -856 2625 -561 
Q 2906 -266 2906 331 
L 2906 616 
Q 2728 306 2450 153 
Q 2172 0 1784 0 
Q 1141 0 747 490 
Q 353 981 353 1791 
Q 353 2603 747 3093 
Q 1141 3584 1784 3584 
Q 2172 3584 2450 3431 
Q 2728 3278 2906 2969 
L 2906 3500 
L 3481 3500 
L 3481 434 
z
" transform="scale(0.015625)"/>
      <path id="DejaVuSans-6c" d="M 603 4863 
L 1178 4863 
L 1178 0 
L 603 0 
L 603 4863 
z
" transform="scale(0.015625)"/>
      <path id="DejaVuSans-65" d="M 3597 1894 
L 3597 1613 
L 953 1613 
Q 991 1019 1311 708 
Q 1631 397 2203 397 
Q 2534 397 2845 478 
Q 3156 559 3463 722 
L 3463 178 
Q 3153 47 2828 -22 
Q 2503 -91 2169 -91 
Q 1331 -91 842 396 
Q 353 884 353 1716 
Q 353 2575 817 3079 
Q 1281 3584 2069 3584 
Q 2775 3584 3186 3129 
Q 3597 2675 3597 1894 
z
M 3022 2063 
Q 3016 2534 2758 2815 
Q 2500 3097 2075 3097 
Q 1594 3097 1305 2825 
Q 1016 2553 972 2059 
L 3022 2063 
z
" transform="scale(0.015625)"/>
     </defs>
     <use xlink:href="#DejaVuSans-45"/>
     <use xlink:href="#DejaVuSans-72" x="63.183594"/>
     <use xlink:href="#DejaVuSans-72" x="102.546875"/>
     <use xlink:href="#DejaVuSans-6f" x="141.410156"/>
     <use xlink:href="#DejaVuSans-72" x="202.591797"/>
     <use xlink:href="#DejaVuSans-20" x="243.705078"/>
     <use xlink:href="#DejaVuSans-69" x="275.492188"/>
     <use xlink:href="#DejaVuSans-6e" x="303.275391"/>
     <use xlink:href="#DejaVuSans-20" x="366.654297"/>
     <use xlink:href="#DejaVuSans-73" x="398.441406"/>
     <use xlink:href="#DejaVuSans-77" x="450.541016"/>
     <use xlink:href="#DejaVuSans-69" x="532.328125"/>
     <use xlink:href="#DejaVuSans-6e" x="560.111328"/>
     <use xlink:href="#DejaVuSans-67" x="623.490234"/>
     <use xlink:href="#DejaVuSans-20" x="686.966797"/>
     <use xlink:href="#DejaVuSans-61" x="718.753906"/>
     <use xlink:href="#DejaVuSans-6e" x="780.033203"/>
     <use xlink:href="#DejaVuSans-67" x="843.412109"/>
     <use xlink:href="#DejaVuSans-6c" x="906.888672"/>
     <use xlink:href="#DejaVuSans-65" x="934.671875"/>
    </g>
   </g>
  </g>
 </g>
 <defs>
  <clipPath id="pf0e39f43b1">
   <rect x="58.016" y="28.32" width="391.984" height="50.4775"/>
  </clipPath>
  <clipPath id="p1ac7ad1032">
   <rect x="58.016" y="139.92" width="391.984" height="50.4775"/>
  </clipPath>
  <clipPath id="p27c256cca1">
   <rect x="58.016" y="251.52" width="391.984" height="50.4775"/>
  </clipPath>
 </defs>
</svg>
