<?xml version="1.0" encoding="utf-8" standalone="no"?>
<!DOCTYPE svg PUBLIC "-//W3C//DTD SVG 1.1//EN"
  "http://www.w3.org/Graphics/SVG/1.1/DTD/svg11.dtd">
<svg xmlns:xlink="http://www.w3.org/1999/xlink" width="460.8pt" height="345.6pt" viewBox="0 0 460.8 345.6" xmlns="http://www.w3.org/2000/svg" version="1.1">
 <metadata>
  <rdf:RDF xmlns:dc="http://purl.org/dc/elements/1.1/" xmlns:cc="http://creativecommons.org/ns#" xmlns:rdf="http://www.w3.org/1999/02/22-rdf-syntax-ns#">
   <cc:Work>
    <dc:type rdf:resource="http://purl.org/dc/dcmitype/StillImage"/>
    <dc:date>2022-06-05T18:34:07.310422</dc:date>
    <dc:format>image/svg+xml</dc:format>
    <dc:creator>
     <cc:Agent>
      <dc:title>Matplotlib v3.5.1, https://matplotlib.org/</dc:title>
     </cc:Agent>
    </dc:creator>
   </cc:Work>
  </rdf:RDF>
 </metadata>
 <defs>
  <style type="text/css">*{stroke-linejoin: round; stroke-linecap: butt}</style>
 </defs>
 <g id="figure_1">
  <g id="patch_1">
   <path d="M 0 345.6 
L 460.8 345.6 
L 460.8 0 
L 0 0 
z
" style="fill: #ffffff"/>
  </g>
  <g id="axes_1">
   <g id="patch_2">
    <path d="M 58.016 78.7975 
L 450 78.7975 
L 450 28.32 
L 58.016 28.32 
z
" style="fill: #ffffff"/>
   </g>
   <g id="matplotlib.axis_1">
    <g id="xtick_1">
     <g id="line2d_1">
      <path d="M 75.833455 78.7975 
L 75.833455 28.32 
" clip-path="url(#p97051bc3c7)" style="fill: none; stroke: #b0b0b0; stroke-width: 0.8; stroke-linecap: square"/>
     </g>
     <g id="line2d_2">
      <defs>
       <path id="ma8197f3a62" d="M 0 0 
L 0 3.5 
" style="stroke: #000000; stroke-width: 0.8"/>
      </defs>
      <g>
       <use xlink:href="#ma8197f3a62" x="75.833455" y="78.7975" style="stroke: #000000; stroke-width: 0.8"/>
      </g>
     </g>
     <g id="text_1">
      <!-- 0 -->
      <g transform="translate(72.652205 93.395937)scale(0.1 -0.1)">
       <defs>
        <path id="DejaVuSans-30" d="M 2034 4250 
Q 1547 4250 1301 3770 
Q 1056 3291 1056 2328 
Q 1056 1369 1301 889 
Q 1547 409 2034 409 
Q 2525 409 2770 889 
Q 3016 1369 3016 2328 
Q 3016 3291 2770 3770 
Q 2525 4250 2034 4250 
z
M 2034 4750 
Q 2819 4750 3233 4129 
Q 3647 3509 3647 2328 
Q 3647 1150 3233 529 
Q 2819 -91 2034 -91 
Q 1250 -91 836 529 
Q 422 1150 422 2328 
Q 422 3509 836 4129 
Q 1250 4750 2034 4750 
z
" transform="scale(0.015625)"/>
       </defs>
       <use xlink:href="#DejaVuSans-30"/>
      </g>
     </g>
    </g>
    <g id="xtick_2">
     <g id="line2d_3">
      <path d="M 129.500486 78.7975 
L 129.500486 28.32 
" clip-path="url(#p97051bc3c7)" style="fill: none; stroke: #b0b0b0; stroke-width: 0.8; stroke-linecap: square"/>
     </g>
     <g id="line2d_4">
      <g>
       <use xlink:href="#ma8197f3a62" x="129.500486" y="78.7975" style="stroke: #000000; stroke-width: 0.8"/>
      </g>
     </g>
     <g id="text_2">
      <!-- 1 -->
      <g transform="translate(126.319236 93.395937)scale(0.1 -0.1)">
       <defs>
        <path id="DejaVuSans-31" d="M 794 531 
L 1825 531 
L 1825 4091 
L 703 3866 
L 703 4441 
L 1819 4666 
L 2450 4666 
L 2450 531 
L 3481 531 
L 3481 0 
L 794 0 
L 794 531 
z
" transform="scale(0.015625)"/>
       </defs>
       <use xlink:href="#DejaVuSans-31"/>
      </g>
     </g>
    </g>
    <g id="xtick_3">
     <g id="line2d_5">
      <path d="M 183.167518 78.7975 
L 183.167518 28.32 
" clip-path="url(#p97051bc3c7)" style="fill: none; stroke: #b0b0b0; stroke-width: 0.8; stroke-linecap: square"/>
     </g>
     <g id="line2d_6">
      <g>
       <use xlink:href="#ma8197f3a62" x="183.167518" y="78.7975" style="stroke: #000000; stroke-width: 0.8"/>
      </g>
     </g>
     <g id="text_3">
      <!-- 2 -->
      <g transform="translate(179.986268 93.395937)scale(0.1 -0.1)">
       <defs>
        <path id="DejaVuSans-32" d="M 1228 531 
L 3431 531 
L 3431 0 
L 469 0 
L 469 531 
Q 828 903 1448 1529 
Q 2069 2156 2228 2338 
Q 2531 2678 2651 2914 
Q 2772 3150 2772 3378 
Q 2772 3750 2511 3984 
Q 2250 4219 1831 4219 
Q 1534 4219 1204 4116 
Q 875 4013 500 3803 
L 500 4441 
Q 881 4594 1212 4672 
Q 1544 4750 1819 4750 
Q 2544 4750 2975 4387 
Q 3406 4025 3406 3419 
Q 3406 3131 3298 2873 
Q 3191 2616 2906 2266 
Q 2828 2175 2409 1742 
Q 1991 1309 1228 531 
z
" transform="scale(0.015625)"/>
       </defs>
       <use xlink:href="#DejaVuSans-32"/>
      </g>
     </g>
    </g>
    <g id="xtick_4">
     <g id="line2d_7">
      <path d="M 236.83455 78.7975 
L 236.83455 28.32 
" clip-path="url(#p97051bc3c7)" style="fill: none; stroke: #b0b0b0; stroke-width: 0.8; stroke-linecap: square"/>
     </g>
     <g id="line2d_8">
      <g>
       <use xlink:href="#ma8197f3a62" x="236.83455" y="78.7975" style="stroke: #000000; stroke-width: 0.8"/>
      </g>
     </g>
     <g id="text_4">
      <!-- 3 -->
      <g transform="translate(233.6533 93.395937)scale(0.1 -0.1)">
       <defs>
        <path id="DejaVuSans-33" d="M 2597 2516 
Q 3050 2419 3304 2112 
Q 3559 1806 3559 1356 
Q 3559 666 3084 287 
Q 2609 -91 1734 -91 
Q 1441 -91 1130 -33 
Q 819 25 488 141 
L 488 750 
Q 750 597 1062 519 
Q 1375 441 1716 441 
Q 2309 441 2620 675 
Q 2931 909 2931 1356 
Q 2931 1769 2642 2001 
Q 2353 2234 1838 2234 
L 1294 2234 
L 1294 2753 
L 1863 2753 
Q 2328 2753 2575 2939 
Q 2822 3125 2822 3475 
Q 2822 3834 2567 4026 
Q 2313 4219 1838 4219 
Q 1578 4219 1281 4162 
Q 984 4106 628 3988 
L 628 4550 
Q 988 4650 1302 4700 
Q 1616 4750 1894 4750 
Q 2613 4750 3031 4423 
Q 3450 4097 3450 3541 
Q 3450 3153 3228 2886 
Q 3006 2619 2597 2516 
z
" transform="scale(0.015625)"/>
       </defs>
       <use xlink:href="#DejaVuSans-33"/>
      </g>
     </g>
    </g>
    <g id="xtick_5">
     <g id="line2d_9">
      <path d="M 290.501582 78.7975 
L 290.501582 28.32 
" clip-path="url(#p97051bc3c7)" style="fill: none; stroke: #b0b0b0; stroke-width: 0.8; stroke-linecap: square"/>
     </g>
     <g id="line2d_10">
      <g>
       <use xlink:href="#ma8197f3a62" x="290.501582" y="78.7975" style="stroke: #000000; stroke-width: 0.8"/>
      </g>
     </g>
     <g id="text_5">
      <!-- 4 -->
      <g transform="translate(287.320332 93.395937)scale(0.1 -0.1)">
       <defs>
        <path id="DejaVuSans-34" d="M 2419 4116 
L 825 1625 
L 2419 1625 
L 2419 4116 
z
M 2253 4666 
L 3047 4666 
L 3047 1625 
L 3713 1625 
L 3713 1100 
L 3047 1100 
L 3047 0 
L 2419 0 
L 2419 1100 
L 313 1100 
L 313 1709 
L 2253 4666 
z
" transform="scale(0.015625)"/>
       </defs>
       <use xlink:href="#DejaVuSans-34"/>
      </g>
     </g>
    </g>
    <g id="xtick_6">
     <g id="line2d_11">
      <path d="M 344.168613 78.7975 
L 344.168613 28.32 
" clip-path="url(#p97051bc3c7)" style="fill: none; stroke: #b0b0b0; stroke-width: 0.8; stroke-linecap: square"/>
     </g>
     <g id="line2d_12">
      <g>
       <use xlink:href="#ma8197f3a62" x="344.168613" y="78.7975" style="stroke: #000000; stroke-width: 0.8"/>
      </g>
     </g>
     <g id="text_6">
      <!-- 5 -->
      <g transform="translate(340.987363 93.395937)scale(0.1 -0.1)">
       <defs>
        <path id="DejaVuSans-35" d="M 691 4666 
L 3169 4666 
L 3169 4134 
L 1269 4134 
L 1269 2991 
Q 1406 3038 1543 3061 
Q 1681 3084 1819 3084 
Q 2600 3084 3056 2656 
Q 3513 2228 3513 1497 
Q 3513 744 3044 326 
Q 2575 -91 1722 -91 
Q 1428 -91 1123 -41 
Q 819 9 494 109 
L 494 744 
Q 775 591 1075 516 
Q 1375 441 1709 441 
Q 2250 441 2565 725 
Q 2881 1009 2881 1497 
Q 2881 1984 2565 2268 
Q 2250 2553 1709 2553 
Q 1456 2553 1204 2497 
Q 953 2441 691 2322 
L 691 4666 
z
" transform="scale(0.015625)"/>
       </defs>
       <use xlink:href="#DejaVuSans-35"/>
      </g>
     </g>
    </g>
    <g id="xtick_7">
     <g id="line2d_13">
      <path d="M 397.835645 78.7975 
L 397.835645 28.32 
" clip-path="url(#p97051bc3c7)" style="fill: none; stroke: #b0b0b0; stroke-width: 0.8; stroke-linecap: square"/>
     </g>
     <g id="line2d_14">
      <g>
       <use xlink:href="#ma8197f3a62" x="397.835645" y="78.7975" style="stroke: #000000; stroke-width: 0.8"/>
      </g>
     </g>
     <g id="text_7">
      <!-- 6 -->
      <g transform="translate(394.654395 93.395937)scale(0.1 -0.1)">
       <defs>
        <path id="DejaVuSans-36" d="M 2113 2584 
Q 1688 2584 1439 2293 
Q 1191 2003 1191 1497 
Q 1191 994 1439 701 
Q 1688 409 2113 409 
Q 2538 409 2786 701 
Q 3034 994 3034 1497 
Q 3034 2003 2786 2293 
Q 2538 2584 2113 2584 
z
M 3366 4563 
L 3366 3988 
Q 3128 4100 2886 4159 
Q 2644 4219 2406 4219 
Q 1781 4219 1451 3797 
Q 1122 3375 1075 2522 
Q 1259 2794 1537 2939 
Q 1816 3084 2150 3084 
Q 2853 3084 3261 2657 
Q 3669 2231 3669 1497 
Q 3669 778 3244 343 
Q 2819 -91 2113 -91 
Q 1303 -91 875 529 
Q 447 1150 447 2328 
Q 447 3434 972 4092 
Q 1497 4750 2381 4750 
Q 2619 4750 2861 4703 
Q 3103 4656 3366 4563 
z
" transform="scale(0.015625)"/>
       </defs>
       <use xlink:href="#DejaVuSans-36"/>
      </g>
     </g>
    </g>
    <g id="text_8">
     <!-- $t$ [s] -->
     <g transform="translate(243.908 107.074062)scale(0.1 -0.1)">
      <defs>
       <path id="DejaVuSans-Oblique-74" d="M 2706 3500 
L 2619 3053 
L 1472 3053 
L 1100 1153 
Q 1081 1047 1072 975 
Q 1063 903 1063 863 
Q 1063 663 1183 572 
Q 1303 481 1569 481 
L 2150 481 
L 2053 0 
L 1503 0 
Q 991 0 739 200 
Q 488 400 488 806 
Q 488 878 497 964 
Q 506 1050 525 1153 
L 897 3053 
L 409 3053 
L 500 3500 
L 978 3500 
L 1172 4494 
L 1747 4494 
L 1556 3500 
L 2706 3500 
z
" transform="scale(0.015625)"/>
       <path id="DejaVuSans-20" transform="scale(0.015625)"/>
       <path id="DejaVuSans-5b" d="M 550 4863 
L 1875 4863 
L 1875 4416 
L 1125 4416 
L 1125 -397 
L 1875 -397 
L 1875 -844 
L 550 -844 
L 550 4863 
z
" transform="scale(0.015625)"/>
       <path id="DejaVuSans-73" d="M 2834 3397 
L 2834 2853 
Q 2591 2978 2328 3040 
Q 2066 3103 1784 3103 
Q 1356 3103 1142 2972 
Q 928 2841 928 2578 
Q 928 2378 1081 2264 
Q 1234 2150 1697 2047 
L 1894 2003 
Q 2506 1872 2764 1633 
Q 3022 1394 3022 966 
Q 3022 478 2636 193 
Q 2250 -91 1575 -91 
Q 1294 -91 989 -36 
Q 684 19 347 128 
L 347 722 
Q 666 556 975 473 
Q 1284 391 1588 391 
Q 1994 391 2212 530 
Q 2431 669 2431 922 
Q 2431 1156 2273 1281 
Q 2116 1406 1581 1522 
L 1381 1569 
Q 847 1681 609 1914 
Q 372 2147 372 2553 
Q 372 3047 722 3315 
Q 1072 3584 1716 3584 
Q 2034 3584 2315 3537 
Q 2597 3491 2834 3397 
z
" transform="scale(0.015625)"/>
       <path id="DejaVuSans-5d" d="M 1947 4863 
L 1947 -844 
L 622 -844 
L 622 -397 
L 1369 -397 
L 1369 4416 
L 622 4416 
L 622 4863 
L 1947 4863 
z
" transform="scale(0.015625)"/>
      </defs>
      <use xlink:href="#DejaVuSans-Oblique-74" transform="translate(0 0.015625)"/>
      <use xlink:href="#DejaVuSans-20" transform="translate(39.208984 0.015625)"/>
      <use xlink:href="#DejaVuSans-5b" transform="translate(70.996094 0.015625)"/>
      <use xlink:href="#DejaVuSans-73" transform="translate(110.009766 0.015625)"/>
      <use xlink:href="#DejaVuSans-5d" transform="translate(162.109375 0.015625)"/>
     </g>
    </g>
   </g>
   <g id="matplotlib.axis_2">
    <g id="ytick_1">
     <g id="line2d_15">
      <path d="M 58.016 70.940847 
L 450 70.940847 
" clip-path="url(#p97051bc3c7)" style="fill: none; stroke: #b0b0b0; stroke-width: 0.8; stroke-linecap: square"/>
     </g>
     <g id="line2d_16">
      <defs>
       <path id="me0488d73bb" d="M 0 0 
L -3.5 0 
" style="stroke: #000000; stroke-width: 0.8"/>
      </defs>
      <g>
       <use xlink:href="#me0488d73bb" x="58.016" y="70.940847" style="stroke: #000000; stroke-width: 0.8"/>
      </g>
     </g>
     <g id="text_9">
      <!-- 0 -->
      <g transform="translate(44.6535 74.740066)scale(0.1 -0.1)">
       <use xlink:href="#DejaVuSans-30"/>
      </g>
     </g>
    </g>
    <g id="ytick_2">
     <g id="line2d_17">
      <path d="M 58.016 30.61449 
L 450 30.61449 
" clip-path="url(#p97051bc3c7)" style="fill: none; stroke: #b0b0b0; stroke-width: 0.8; stroke-linecap: square"/>
     </g>
     <g id="line2d_18">
      <g>
       <use xlink:href="#me0488d73bb" x="58.016" y="30.61449" style="stroke: #000000; stroke-width: 0.8"/>
      </g>
     </g>
     <g id="text_10">
      <!-- 10 -->
      <g transform="translate(38.291 34.413708)scale(0.1 -0.1)">
       <use xlink:href="#DejaVuSans-31"/>
       <use xlink:href="#DejaVuSans-30" x="63.623047"/>
      </g>
     </g>
    </g>
    <g id="text_11">
     <!-- $e_x$ [m] -->
     <g transform="translate(32.211313 69.20875)rotate(-90)scale(0.1 -0.1)">
      <defs>
       <path id="DejaVuSans-Oblique-65" d="M 3078 2063 
Q 3088 2113 3092 2166 
Q 3097 2219 3097 2272 
Q 3097 2653 2873 2875 
Q 2650 3097 2266 3097 
Q 1838 3097 1509 2826 
Q 1181 2556 1013 2059 
L 3078 2063 
z
M 3578 1613 
L 903 1613 
Q 884 1494 878 1425 
Q 872 1356 872 1306 
Q 872 872 1139 634 
Q 1406 397 1894 397 
Q 2269 397 2603 481 
Q 2938 566 3225 728 
L 3116 159 
Q 2806 34 2476 -28 
Q 2147 -91 1806 -91 
Q 1078 -91 686 257 
Q 294 606 294 1247 
Q 294 1794 489 2264 
Q 684 2734 1063 3103 
Q 1306 3334 1642 3459 
Q 1978 3584 2356 3584 
Q 2950 3584 3301 3228 
Q 3653 2872 3653 2272 
Q 3653 2128 3634 1964 
Q 3616 1800 3578 1613 
z
" transform="scale(0.015625)"/>
       <path id="DejaVuSans-Oblique-78" d="M 3841 3500 
L 2234 1784 
L 3219 0 
L 2559 0 
L 1819 1388 
L 531 0 
L -166 0 
L 1556 1844 
L 641 3500 
L 1300 3500 
L 1972 2234 
L 3144 3500 
L 3841 3500 
z
" transform="scale(0.015625)"/>
       <path id="DejaVuSans-6d" d="M 3328 2828 
Q 3544 3216 3844 3400 
Q 4144 3584 4550 3584 
Q 5097 3584 5394 3201 
Q 5691 2819 5691 2113 
L 5691 0 
L 5113 0 
L 5113 2094 
Q 5113 2597 4934 2840 
Q 4756 3084 4391 3084 
Q 3944 3084 3684 2787 
Q 3425 2491 3425 1978 
L 3425 0 
L 2847 0 
L 2847 2094 
Q 2847 2600 2669 2842 
Q 2491 3084 2119 3084 
Q 1678 3084 1418 2786 
Q 1159 2488 1159 1978 
L 1159 0 
L 581 0 
L 581 3500 
L 1159 3500 
L 1159 2956 
Q 1356 3278 1631 3431 
Q 1906 3584 2284 3584 
Q 2666 3584 2933 3390 
Q 3200 3197 3328 2828 
z
" transform="scale(0.015625)"/>
      </defs>
      <use xlink:href="#DejaVuSans-Oblique-65" transform="translate(0 0.015625)"/>
      <use xlink:href="#DejaVuSans-Oblique-78" transform="translate(61.523438 -16.390625)scale(0.7)"/>
      <use xlink:href="#DejaVuSans-20" transform="translate(105.683594 0.015625)"/>
      <use xlink:href="#DejaVuSans-5b" transform="translate(137.470703 0.015625)"/>
      <use xlink:href="#DejaVuSans-6d" transform="translate(176.484375 0.015625)"/>
      <use xlink:href="#DejaVuSans-5d" transform="translate(273.896484 0.015625)"/>
     </g>
    </g>
   </g>
   <g id="line2d_19">
    <path d="M 75.833455 30.614486 
L 89.270449 30.719227 
L 95.720206 30.965913 
L 107.007282 31.777274 
L 123.131675 33.667018 
L 123.669155 33.78763 
L 124.206634 33.78763 
L 124.744114 33.971999 
L 126.356553 34.128797 
L 126.894033 34.288468 
L 127.431513 34.288468 
L 128.506473 34.483882 
L 131.731351 34.990922 
L 133.88127 35.308168 
L 134.95623 35.525272 
L 136.568669 35.784354 
L 137.643629 36.0115 
L 139.256068 36.282534 
L 139.793548 36.440366 
L 140.331028 36.440366 
L 141.405987 36.681199 
L 143.018426 36.968417 
L 144.630866 37.22001 
L 145.168346 37.476619 
L 146.780785 37.694296 
L 147.318265 37.915481 
L 147.855744 37.915481 
L 148.930704 38.185523 
L 151.080623 38.600014 
L 152.155583 38.882611 
L 153.230542 39.073781 
L 153.768022 39.315854 
L 154.305502 39.315854 
L 155.380461 39.61088 
L 156.455421 39.810298 
L 156.992901 40.06263 
L 157.53038 40.06263 
L 158.60534 40.369878 
L 160.217779 40.734414 
L 161.292739 41.052021 
L 163.442658 41.537208 
L 164.517617 41.866412 
L 166.667537 42.368657 
L 167.742496 42.708991 
L 169.892415 43.227537 
L 170.967375 43.578456 
L 173.117294 44.112429 
L 174.192253 44.473331 
L 175.804693 44.899206 
L 176.342172 45.144836 
L 176.879652 45.144836 
L 177.417132 45.392084 
L 178.492092 45.703375 
L 179.567051 46.080117 
L 180.104531 46.080117 
L 180.642011 46.333176 
L 181.71697 46.651579 
L 182.79193 47.036653 
L 183.32941 47.036653 
L 184.404369 47.489916 
L 184.941849 47.685465 
L 186.016808 47.881773 
L 186.554288 48.013063 
L 187.091768 48.342737 
L 187.629248 48.342737 
L 188.166728 48.607942 
L 190.316647 49.209331 
L 190.854126 49.478658 
L 193.541525 50.225678 
L 194.079005 50.499615 
L 196.228924 51.051133 
L 196.766404 51.398299 
L 197.303884 51.398299 
L 197.841363 51.6774 
L 200.528762 52.451243 
L 201.066242 52.734957 
L 202.678681 53.162877 
L 203.216161 53.449741 
L 204.291121 53.810116 
L 204.828601 54.027312 
L 205.90356 54.245237 
L 206.44104 54.536955 
L 207.515999 54.903464 
L 208.053479 55.124371 
L 209.128439 55.346035 
L 209.665919 55.642772 
L 211.278358 56.165348 
L 211.815838 56.465854 
L 212.353317 56.465854 
L 212.890797 56.767745 
L 214.503237 57.299404 
L 215.040716 57.605131 
L 215.578196 57.605131 
L 216.115676 57.912262 
L 217.728115 58.453124 
L 218.265595 58.764126 
L 218.803075 58.764126 
L 219.340555 59.076537 
L 220.952994 59.626642 
L 221.490474 59.942919 
L 222.027953 59.942919 
L 222.565433 60.260597 
L 223.640393 60.659665 
L 224.177872 60.900143 
L 225.252832 61.141365 
L 225.790312 61.464053 
L 226.865271 61.868841 
L 227.402751 62.112294 
L 228.477711 62.35604 
L 229.01519 62.681258 
L 229.55267 62.681258 
L 230.09015 63.168863 
L 231.16511 63.412217 
L 232.777549 63.977683 
L 233.315029 64.29863 
L 236.002428 65.169037 
L 236.539907 65.479967 
L 238.152347 65.939724 
L 238.689826 66.24142 
L 239.227306 66.24142 
L 239.764786 66.686175 
L 240.839746 66.904865 
L 241.377225 67.049238 
L 241.914705 67.405051 
L 242.452185 67.405051 
L 242.989665 67.684264 
L 245.139584 68.294108 
L 245.677063 68.556762 
L 248.364462 69.251958 
L 248.901942 69.494852 
L 251.589341 70.136308 
L 252.664301 70.470466 
L 254.27674 70.846912 
L 254.81422 71.055727 
L 255.351699 71.055727 
L 256.426659 71.360538 
L 257.501619 71.606933 
L 258.039098 71.799103 
L 258.576578 71.799103 
L 259.651538 72.079123 
L 261.263977 72.393297 
L 262.338937 72.651794 
L 266.101295 73.329367 
L 267.713734 73.584551 
L 269.326174 73.792383 
L 269.863653 73.990688 
L 271.476093 74.149119 
L 272.013572 74.271689 
L 272.551052 74.271689 
L 273.088532 74.449058 
L 274.700971 74.591276 
L 276.313411 74.835325 
L 280.075769 75.280034 
L 282.225688 75.480702 
L 286.525526 75.887982 
L 289.212925 76.063938 
L 293.512763 76.330156 
L 296.200162 76.418079 
L 299.962521 76.493206 
L 305.874798 76.462251 
L 312.862035 76.183423 
L 317.161874 75.874171 
L 321.999192 75.468177 
L 323.074151 75.357908 
L 324.68659 75.170974 
L 328.986429 74.678002 
L 337.048625 73.519729 
L 340.810984 73.000372 
L 345.110822 72.361128 
L 346.185781 72.25165 
L 361.235215 70.840285 
L 374.67221 70.241601 
L 396.70888 69.992835 
L 407.458476 70.094782 
L 418.745551 70.369177 
L 422.50791 70.49317 
L 432.182545 70.742741 
L 432.182545 70.742741 
" clip-path="url(#p97051bc3c7)" style="fill: none; stroke: #ff0000; stroke-width: 1.5; stroke-linecap: square"/>
   </g>
   <g id="patch_3">
    <path d="M 58.016 78.7975 
L 58.016 28.32 
" style="fill: none; stroke: #000000; stroke-width: 0.8; stroke-linejoin: miter; stroke-linecap: square"/>
   </g>
   <g id="patch_4">
    <path d="M 450 78.7975 
L 450 28.32 
" style="fill: none; stroke: #000000; stroke-width: 0.8; stroke-linejoin: miter; stroke-linecap: square"/>
   </g>
   <g id="patch_5">
    <path d="M 58.016 78.7975 
L 450 78.7975 
" style="fill: none; stroke: #000000; stroke-width: 0.8; stroke-linejoin: miter; stroke-linecap: square"/>
   </g>
   <g id="patch_6">
    <path d="M 58.016 28.32 
L 450 28.32 
" style="fill: none; stroke: #000000; stroke-width: 0.8; stroke-linejoin: miter; stroke-linecap: square"/>
   </g>
   <g id="text_12">
    <!-- Error in $x$-position -->
    <g transform="translate(200.368 22.32)scale(0.12 -0.12)">
     <defs>
      <path id="DejaVuSans-45" d="M 628 4666 
L 3578 4666 
L 3578 4134 
L 1259 4134 
L 1259 2753 
L 3481 2753 
L 3481 2222 
L 1259 2222 
L 1259 531 
L 3634 531 
L 3634 0 
L 628 0 
L 628 4666 
z
" transform="scale(0.015625)"/>
      <path id="DejaVuSans-72" d="M 2631 2963 
Q 2534 3019 2420 3045 
Q 2306 3072 2169 3072 
Q 1681 3072 1420 2755 
Q 1159 2438 1159 1844 
L 1159 0 
L 581 0 
L 581 3500 
L 1159 3500 
L 1159 2956 
Q 1341 3275 1631 3429 
Q 1922 3584 2338 3584 
Q 2397 3584 2469 3576 
Q 2541 3569 2628 3553 
L 2631 2963 
z
" transform="scale(0.015625)"/>
      <path id="DejaVuSans-6f" d="M 1959 3097 
Q 1497 3097 1228 2736 
Q 959 2375 959 1747 
Q 959 1119 1226 758 
Q 1494 397 1959 397 
Q 2419 397 2687 759 
Q 2956 1122 2956 1747 
Q 2956 2369 2687 2733 
Q 2419 3097 1959 3097 
z
M 1959 3584 
Q 2709 3584 3137 3096 
Q 3566 2609 3566 1747 
Q 3566 888 3137 398 
Q 2709 -91 1959 -91 
Q 1206 -91 779 398 
Q 353 888 353 1747 
Q 353 2609 779 3096 
Q 1206 3584 1959 3584 
z
" transform="scale(0.015625)"/>
      <path id="DejaVuSans-69" d="M 603 3500 
L 1178 3500 
L 1178 0 
L 603 0 
L 603 3500 
z
M 603 4863 
L 1178 4863 
L 1178 4134 
L 603 4134 
L 603 4863 
z
" transform="scale(0.015625)"/>
      <path id="DejaVuSans-6e" d="M 3513 2113 
L 3513 0 
L 2938 0 
L 2938 2094 
Q 2938 2591 2744 2837 
Q 2550 3084 2163 3084 
Q 1697 3084 1428 2787 
Q 1159 2491 1159 1978 
L 1159 0 
L 581 0 
L 581 3500 
L 1159 3500 
L 1159 2956 
Q 1366 3272 1645 3428 
Q 1925 3584 2291 3584 
Q 2894 3584 3203 3211 
Q 3513 2838 3513 2113 
z
" transform="scale(0.015625)"/>
      <path id="DejaVuSans-2d" d="M 313 2009 
L 1997 2009 
L 1997 1497 
L 313 1497 
L 313 2009 
z
" transform="scale(0.015625)"/>
      <path id="DejaVuSans-70" d="M 1159 525 
L 1159 -1331 
L 581 -1331 
L 581 3500 
L 1159 3500 
L 1159 2969 
Q 1341 3281 1617 3432 
Q 1894 3584 2278 3584 
Q 2916 3584 3314 3078 
Q 3713 2572 3713 1747 
Q 3713 922 3314 415 
Q 2916 -91 2278 -91 
Q 1894 -91 1617 61 
Q 1341 213 1159 525 
z
M 3116 1747 
Q 3116 2381 2855 2742 
Q 2594 3103 2138 3103 
Q 1681 3103 1420 2742 
Q 1159 2381 1159 1747 
Q 1159 1113 1420 752 
Q 1681 391 2138 391 
Q 2594 391 2855 752 
Q 3116 1113 3116 1747 
z
" transform="scale(0.015625)"/>
      <path id="DejaVuSans-74" d="M 1172 4494 
L 1172 3500 
L 2356 3500 
L 2356 3053 
L 1172 3053 
L 1172 1153 
Q 1172 725 1289 603 
Q 1406 481 1766 481 
L 2356 481 
L 2356 0 
L 1766 0 
Q 1100 0 847 248 
Q 594 497 594 1153 
L 594 3053 
L 172 3053 
L 172 3500 
L 594 3500 
L 594 4494 
L 1172 4494 
z
" transform="scale(0.015625)"/>
     </defs>
     <use xlink:href="#DejaVuSans-45" transform="translate(0 0.015625)"/>
     <use xlink:href="#DejaVuSans-72" transform="translate(63.183594 0.015625)"/>
     <use xlink:href="#DejaVuSans-72" transform="translate(104.296875 0.015625)"/>
     <use xlink:href="#DejaVuSans-6f" transform="translate(145.410156 0.015625)"/>
     <use xlink:href="#DejaVuSans-72" transform="translate(206.591797 0.015625)"/>
     <use xlink:href="#DejaVuSans-20" transform="translate(247.705078 0.015625)"/>
     <use xlink:href="#DejaVuSans-69" transform="translate(279.492188 0.015625)"/>
     <use xlink:href="#DejaVuSans-6e" transform="translate(307.275391 0.015625)"/>
     <use xlink:href="#DejaVuSans-20" transform="translate(370.654297 0.015625)"/>
     <use xlink:href="#DejaVuSans-Oblique-78" transform="translate(402.441406 0.015625)"/>
     <use xlink:href="#DejaVuSans-2d" transform="translate(461.621094 0.015625)"/>
     <use xlink:href="#DejaVuSans-70" transform="translate(497.705078 0.015625)"/>
     <use xlink:href="#DejaVuSans-6f" transform="translate(561.181641 0.015625)"/>
     <use xlink:href="#DejaVuSans-73" transform="translate(622.363281 0.015625)"/>
     <use xlink:href="#DejaVuSans-69" transform="translate(674.462891 0.015625)"/>
     <use xlink:href="#DejaVuSans-74" transform="translate(702.246094 0.015625)"/>
     <use xlink:href="#DejaVuSans-69" transform="translate(741.455078 0.015625)"/>
     <use xlink:href="#DejaVuSans-6f" transform="translate(769.238281 0.015625)"/>
     <use xlink:href="#DejaVuSans-6e" transform="translate(830.419922 0.015625)"/>
    </g>
   </g>
  </g>
  <g id="axes_2">
   <g id="patch_7">
    <path d="M 58.016 190.3975 
L 450 190.3975 
L 450 139.92 
L 58.016 139.92 
z
" style="fill: #ffffff"/>
   </g>
   <g id="matplotlib.axis_3">
    <g id="xtick_8">
     <g id="line2d_20">
      <path d="M 75.833455 190.3975 
L 75.833455 139.92 
" clip-path="url(#p0e2ae55408)" style="fill: none; stroke: #b0b0b0; stroke-width: 0.8; stroke-linecap: square"/>
     </g>
     <g id="line2d_21">
      <g>
       <use xlink:href="#ma8197f3a62" x="75.833455" y="190.3975" style="stroke: #000000; stroke-width: 0.8"/>
      </g>
     </g>
     <g id="text_13">
      <!-- 0 -->
      <g transform="translate(72.652205 204.995937)scale(0.1 -0.1)">
       <use xlink:href="#DejaVuSans-30"/>
      </g>
     </g>
    </g>
    <g id="xtick_9">
     <g id="line2d_22">
      <path d="M 129.500486 190.3975 
L 129.500486 139.92 
" clip-path="url(#p0e2ae55408)" style="fill: none; stroke: #b0b0b0; stroke-width: 0.8; stroke-linecap: square"/>
     </g>
     <g id="line2d_23">
      <g>
       <use xlink:href="#ma8197f3a62" x="129.500486" y="190.3975" style="stroke: #000000; stroke-width: 0.8"/>
      </g>
     </g>
     <g id="text_14">
      <!-- 1 -->
      <g transform="translate(126.319236 204.995937)scale(0.1 -0.1)">
       <use xlink:href="#DejaVuSans-31"/>
      </g>
     </g>
    </g>
    <g id="xtick_10">
     <g id="line2d_24">
      <path d="M 183.167518 190.3975 
L 183.167518 139.92 
" clip-path="url(#p0e2ae55408)" style="fill: none; stroke: #b0b0b0; stroke-width: 0.8; stroke-linecap: square"/>
     </g>
     <g id="line2d_25">
      <g>
       <use xlink:href="#ma8197f3a62" x="183.167518" y="190.3975" style="stroke: #000000; stroke-width: 0.8"/>
      </g>
     </g>
     <g id="text_15">
      <!-- 2 -->
      <g transform="translate(179.986268 204.995937)scale(0.1 -0.1)">
       <use xlink:href="#DejaVuSans-32"/>
      </g>
     </g>
    </g>
    <g id="xtick_11">
     <g id="line2d_26">
      <path d="M 236.83455 190.3975 
L 236.83455 139.92 
" clip-path="url(#p0e2ae55408)" style="fill: none; stroke: #b0b0b0; stroke-width: 0.8; stroke-linecap: square"/>
     </g>
     <g id="line2d_27">
      <g>
       <use xlink:href="#ma8197f3a62" x="236.83455" y="190.3975" style="stroke: #000000; stroke-width: 0.8"/>
      </g>
     </g>
     <g id="text_16">
      <!-- 3 -->
      <g transform="translate(233.6533 204.995937)scale(0.1 -0.1)">
       <use xlink:href="#DejaVuSans-33"/>
      </g>
     </g>
    </g>
    <g id="xtick_12">
     <g id="line2d_28">
      <path d="M 290.501582 190.3975 
L 290.501582 139.92 
" clip-path="url(#p0e2ae55408)" style="fill: none; stroke: #b0b0b0; stroke-width: 0.8; stroke-linecap: square"/>
     </g>
     <g id="line2d_29">
      <g>
       <use xlink:href="#ma8197f3a62" x="290.501582" y="190.3975" style="stroke: #000000; stroke-width: 0.8"/>
      </g>
     </g>
     <g id="text_17">
      <!-- 4 -->
      <g transform="translate(287.320332 204.995937)scale(0.1 -0.1)">
       <use xlink:href="#DejaVuSans-34"/>
      </g>
     </g>
    </g>
    <g id="xtick_13">
     <g id="line2d_30">
      <path d="M 344.168613 190.3975 
L 344.168613 139.92 
" clip-path="url(#p0e2ae55408)" style="fill: none; stroke: #b0b0b0; stroke-width: 0.8; stroke-linecap: square"/>
     </g>
     <g id="line2d_31">
      <g>
       <use xlink:href="#ma8197f3a62" x="344.168613" y="190.3975" style="stroke: #000000; stroke-width: 0.8"/>
      </g>
     </g>
     <g id="text_18">
      <!-- 5 -->
      <g transform="translate(340.987363 204.995937)scale(0.1 -0.1)">
       <use xlink:href="#DejaVuSans-35"/>
      </g>
     </g>
    </g>
    <g id="xtick_14">
     <g id="line2d_32">
      <path d="M 397.835645 190.3975 
L 397.835645 139.92 
" clip-path="url(#p0e2ae55408)" style="fill: none; stroke: #b0b0b0; stroke-width: 0.8; stroke-linecap: square"/>
     </g>
     <g id="line2d_33">
      <g>
       <use xlink:href="#ma8197f3a62" x="397.835645" y="190.3975" style="stroke: #000000; stroke-width: 0.8"/>
      </g>
     </g>
     <g id="text_19">
      <!-- 6 -->
      <g transform="translate(394.654395 204.995937)scale(0.1 -0.1)">
       <use xlink:href="#DejaVuSans-36"/>
      </g>
     </g>
    </g>
    <g id="text_20">
     <!-- $t$ [s] -->
     <g transform="translate(243.908 218.674062)scale(0.1 -0.1)">
      <use xlink:href="#DejaVuSans-Oblique-74" transform="translate(0 0.015625)"/>
      <use xlink:href="#DejaVuSans-20" transform="translate(39.208984 0.015625)"/>
      <use xlink:href="#DejaVuSans-5b" transform="translate(70.996094 0.015625)"/>
      <use xlink:href="#DejaVuSans-73" transform="translate(110.009766 0.015625)"/>
      <use xlink:href="#DejaVuSans-5d" transform="translate(162.109375 0.015625)"/>
     </g>
    </g>
   </g>
   <g id="matplotlib.axis_4">
    <g id="ytick_3">
     <g id="line2d_34">
      <path d="M 58.016 173.040201 
L 450 173.040201 
" clip-path="url(#p0e2ae55408)" style="fill: none; stroke: #b0b0b0; stroke-width: 0.8; stroke-linecap: square"/>
     </g>
     <g id="line2d_35">
      <g>
       <use xlink:href="#me0488d73bb" x="58.016" y="173.040201" style="stroke: #000000; stroke-width: 0.8"/>
      </g>
     </g>
     <g id="text_21">
      <!-- 0.00 -->
      <g transform="translate(28.750375 176.83942)scale(0.1 -0.1)">
       <defs>
        <path id="DejaVuSans-2e" d="M 684 794 
L 1344 794 
L 1344 0 
L 684 0 
L 684 794 
z
" transform="scale(0.015625)"/>
       </defs>
       <use xlink:href="#DejaVuSans-30"/>
       <use xlink:href="#DejaVuSans-2e" x="63.623047"/>
       <use xlink:href="#DejaVuSans-30" x="95.410156"/>
       <use xlink:href="#DejaVuSans-30" x="159.033203"/>
      </g>
     </g>
    </g>
    <g id="ytick_4">
     <g id="line2d_36">
      <path d="M 58.016 145.07007 
L 450 145.07007 
" clip-path="url(#p0e2ae55408)" style="fill: none; stroke: #b0b0b0; stroke-width: 0.8; stroke-linecap: square"/>
     </g>
     <g id="line2d_37">
      <g>
       <use xlink:href="#me0488d73bb" x="58.016" y="145.07007" style="stroke: #000000; stroke-width: 0.8"/>
      </g>
     </g>
     <g id="text_22">
      <!-- 0.05 -->
      <g transform="translate(28.750375 148.869289)scale(0.1 -0.1)">
       <use xlink:href="#DejaVuSans-30"/>
       <use xlink:href="#DejaVuSans-2e" x="63.623047"/>
       <use xlink:href="#DejaVuSans-30" x="95.410156"/>
       <use xlink:href="#DejaVuSans-35" x="159.033203"/>
      </g>
     </g>
    </g>
    <g id="text_23">
     <!-- $e_z$ [m] -->
     <g transform="translate(22.670688 180.60875)rotate(-90)scale(0.1 -0.1)">
      <defs>
       <path id="DejaVuSans-Oblique-7a" d="M 744 3500 
L 3475 3500 
L 3372 2975 
L 738 459 
L 2913 459 
L 2822 0 
L -19 0 
L 84 525 
L 2719 3041 
L 653 3041 
L 744 3500 
z
" transform="scale(0.015625)"/>
      </defs>
      <use xlink:href="#DejaVuSans-Oblique-65" transform="translate(0 0.015625)"/>
      <use xlink:href="#DejaVuSans-Oblique-7a" transform="translate(61.523438 -16.390625)scale(0.7)"/>
      <use xlink:href="#DejaVuSans-20" transform="translate(101.000977 0.015625)"/>
      <use xlink:href="#DejaVuSans-5b" transform="translate(132.788086 0.015625)"/>
      <use xlink:href="#DejaVuSans-6d" transform="translate(171.801758 0.015625)"/>
      <use xlink:href="#DejaVuSans-5d" transform="translate(269.213867 0.015625)"/>
     </g>
    </g>
   </g>
   <g id="line2d_38">
    <path d="M 75.833455 178.28837 
L 77.445894 177.758564 
L 77.983374 177.475236 
L 78.520853 177.060333 
L 82.820692 175.449561 
L 83.895651 175.173916 
L 84.970611 174.882406 
L 92.495328 173.713611 
L 98.407605 173.290957 
L 101.632484 173.361903 
L 102.707443 173.517775 
L 104.857362 173.869594 
L 105.932322 174.206928 
L 107.544761 174.707853 
L 108.082241 175.044257 
L 110.76964 176.026454 
L 112.919559 177.275702 
L 113.994519 177.754532 
L 116.144438 179.073053 
L 116.681917 179.305844 
L 117.219397 179.758917 
L 117.756877 179.758917 
L 118.294357 180.394565 
L 119.369316 180.687274 
L 120.981756 181.29183 
L 121.519235 181.58179 
L 123.669155 182.108037 
L 124.206634 182.108037 
L 124.744114 182.280466 
L 127.431513 182.325592 
L 130.118912 181.966276 
L 131.193871 181.665775 
L 132.806311 181.298906 
L 133.34379 180.953662 
L 133.88127 180.953662 
L 134.41875 180.6586 
L 136.568669 179.958843 
L 137.106149 179.642944 
L 139.256068 178.950421 
L 139.793548 178.65899 
L 140.331028 178.65899 
L 140.868507 178.382361 
L 146.243305 177.141843 
L 150.543143 176.695335 
L 154.305502 176.538732 
L 164.517617 176.011174 
L 172.042334 175.620363 
L 175.267213 175.742158 
L 178.492092 176.156042 
L 186.554288 177.807168 
L 187.091768 178.044647 
L 187.629248 178.044647 
L 188.704207 178.310005 
L 194.079005 179.05282 
L 197.303884 179.099458 
L 201.066242 178.779115 
L 203.753641 178.394138 
L 208.053479 177.574307 
L 209.128439 177.45728 
L 210.203398 177.232194 
L 218.265595 176.251663 
L 220.415514 176.15869 
L 223.640393 176.065549 
L 225.790312 176.224324 
L 228.477711 176.603139 
L 229.01519 176.756399 
L 229.55267 176.756399 
L 230.09015 176.979839 
L 232.240069 177.208858 
L 234.389988 177.443422 
L 236.539907 177.428067 
L 238.152347 177.217673 
L 238.689826 176.959306 
L 239.227306 176.959306 
L 239.764786 176.367293 
L 240.302266 176.243218 
L 241.377225 175.673374 
L 241.914705 174.79708 
L 242.452185 174.79708 
L 242.989665 173.976488 
L 244.602104 172.571731 
L 245.139584 171.802736 
L 245.677063 170.721683 
L 247.826983 168.421166 
L 248.364462 167.536265 
L 248.901942 166.361781 
L 251.051861 164.032711 
L 251.589341 163.162466 
L 252.126821 162.001131 
L 253.73926 160.257682 
L 254.27674 159.388079 
L 254.81422 158.234003 
L 255.351699 158.234003 
L 255.889179 157.095217 
L 256.964139 155.983975 
L 257.501619 155.17734 
L 258.039098 154.15072 
L 258.576578 154.15072 
L 259.114058 153.198648 
L 262.338937 150.668175 
L 263.413896 150.377347 
L 263.951376 150.296392 
L 265.026335 150.389444 
L 266.101295 151.013992 
L 266.638775 151.569251 
L 267.176254 152.297685 
L 267.713734 152.579143 
L 268.251214 153.197998 
L 268.788694 154.646197 
L 269.326174 154.646197 
L 269.863653 157.248325 
L 270.401133 157.721618 
L 271.476093 159.693145 
L 272.013572 161.739052 
L 272.551052 161.739052 
L 273.088532 164.803251 
L 273.626012 165.302398 
L 274.700971 167.238923 
L 275.238451 169.047635 
L 275.775931 169.892355 
L 276.85089 172.147349 
L 277.38837 172.479776 
L 277.92585 173.106199 
L 278.46333 174.202964 
L 279.538289 175.283768 
L 280.075769 175.779046 
L 281.150729 176.165983 
L 281.688208 176.523606 
L 283.300648 176.760837 
L 284.375607 176.706364 
L 287.600486 175.633092 
L 288.137966 175.20561 
L 289.212925 174.756034 
L 290.825365 173.745887 
L 292.975284 172.867366 
L 293.512763 172.552297 
L 294.050243 172.552297 
L 294.587723 172.29572 
L 296.737642 171.928165 
L 299.425041 172.034479 
L 301.57496 172.559692 
L 303.187399 173.04163 
L 303.724879 173.341057 
L 306.412278 174.157761 
L 306.949758 174.427455 
L 310.712116 175.24597 
L 313.936995 175.477792 
L 317.699353 175.398493 
L 320.924232 175.402448 
L 321.999192 175.464219 
L 322.536671 175.593864 
L 323.074151 175.593864 
L 324.68659 175.952737 
L 325.22407 176.079092 
L 325.76155 176.468795 
L 326.29903 176.468795 
L 326.83651 176.858822 
L 328.986429 177.841792 
L 329.523908 178.277242 
L 330.061388 178.910476 
L 332.211307 180.342311 
L 332.748787 180.926442 
L 333.286267 181.730899 
L 334.898706 182.967972 
L 335.436186 183.99397 
L 335.973666 183.99397 
L 336.511145 184.785037 
L 338.661065 186.3652 
L 339.198544 186.939506 
L 341.348463 187.844249 
L 341.885943 188.045195 
L 344.035862 187.958454 
L 345.648302 187.448654 
L 346.185781 186.900556 
L 346.723261 186.564876 
L 347.798221 185.306742 
L 348.335701 185.06028 
L 348.87318 184.537119 
L 349.41066 183.370294 
L 349.94814 182.73055 
L 351.560579 179.427798 
L 352.098059 179.427798 
L 352.635539 177.779083 
L 353.710498 176.064126 
L 354.247978 174.748133 
L 354.785458 172.957277 
L 355.322938 172.957277 
L 355.860417 171.117932 
L 356.397897 170.178066 
L 357.472857 167.266764 
L 358.010336 166.767266 
L 358.547816 165.756045 
L 359.085296 163.687464 
L 359.622776 162.632595 
L 360.697735 159.413708 
L 361.235215 158.872501 
L 361.772695 157.789414 
L 362.310175 155.634109 
L 362.847654 154.568897 
L 363.922614 151.476141 
L 364.460094 150.981451 
L 364.997574 150.014892 
L 365.535053 148.189034 
L 366.072533 147.338169 
L 367.147493 145.095154 
L 367.684972 144.773177 
L 368.222452 144.178686 
L 368.759932 143.202487 
L 369.297412 142.673198 
L 369.834892 142.337884 
L 370.909851 142.214432 
L 371.447331 142.255269 
L 371.984811 142.816019 
L 372.52229 142.816019 
L 373.05977 143.769491 
L 373.59725 144.081779 
L 374.13473 145.199136 
L 374.67221 147.084964 
L 376.284649 150.61357 
L 376.822129 151.929057 
L 377.359608 153.981087 
L 377.897088 156.78176 
L 378.434568 157.482856 
L 378.972048 159.564848 
L 379.509527 162.239227 
L 381.121967 165.877164 
L 381.659447 166.961066 
L 382.734406 170.156362 
L 383.271886 170.156362 
L 383.809366 171.533874 
L 385.959285 173.630104 
L 386.496765 173.630104 
L 387.034244 173.814605 
L 388.109204 173.728543 
L 388.646684 173.507036 
L 389.184163 173.026846 
L 389.721643 173.026846 
L 390.259123 172.371122 
L 390.796603 171.989287 
L 391.871562 170.693252 
L 392.409042 170.461952 
L 392.946522 169.99275 
L 393.484002 169.04396 
L 394.021481 169.04396 
L 394.558961 167.67127 
L 395.096441 167.455481 
L 396.171401 166.647664 
L 396.70888 165.950962 
L 397.78384 165.168191 
L 400.471239 164.703844 
L 402.083678 165.131045 
L 402.621158 165.343469 
L 403.158638 165.73468 
L 403.696117 166.377451 
L 405.308557 167.557517 
L 405.846036 168.222093 
L 406.383516 169.157932 
L 406.920996 169.157932 
L 407.458476 170.125989 
L 407.995956 170.614247 
L 409.070915 172.059254 
L 409.608395 172.293572 
L 410.145875 172.753766 
L 410.683354 173.632799 
L 412.295794 174.999584 
L 412.833274 175.661684 
L 413.370753 175.661684 
L 413.908233 176.226639 
L 416.595632 177.338799 
L 418.208071 177.468878 
L 418.745551 177.46008 
L 419.283031 177.333575 
L 419.820511 177.333575 
L 420.89547 176.998652 
L 421.97043 176.676632 
L 423.582869 175.607227 
L 424.120349 175.484693 
L 425.195308 174.977003 
L 425.732788 174.455278 
L 426.270268 174.455278 
L 426.807748 173.678048 
L 427.345227 173.551464 
L 428.420187 173.060483 
L 428.957667 172.495181 
L 429.495147 172.495181 
L 430.032626 172.095015 
L 432.182545 171.411602 
L 432.182545 171.411602 
" clip-path="url(#p0e2ae55408)" style="fill: none; stroke: #0000ff; stroke-width: 1.5; stroke-linecap: square"/>
   </g>
   <g id="patch_8">
    <path d="M 58.016 190.3975 
L 58.016 139.92 
" style="fill: none; stroke: #000000; stroke-width: 0.8; stroke-linejoin: miter; stroke-linecap: square"/>
   </g>
   <g id="patch_9">
    <path d="M 450 190.3975 
L 450 139.92 
" style="fill: none; stroke: #000000; stroke-width: 0.8; stroke-linejoin: miter; stroke-linecap: square"/>
   </g>
   <g id="patch_10">
    <path d="M 58.016 190.3975 
L 450 190.3975 
" style="fill: none; stroke: #000000; stroke-width: 0.8; stroke-linejoin: miter; stroke-linecap: square"/>
   </g>
   <g id="patch_11">
    <path d="M 58.016 139.92 
L 450 139.92 
" style="fill: none; stroke: #000000; stroke-width: 0.8; stroke-linejoin: miter; stroke-linecap: square"/>
   </g>
   <g id="text_24">
    <!-- Error in $z$-position -->
    <g transform="translate(200.728 133.92)scale(0.12 -0.12)">
     <use xlink:href="#DejaVuSans-45" transform="translate(0 0.015625)"/>
     <use xlink:href="#DejaVuSans-72" transform="translate(63.183594 0.015625)"/>
     <use xlink:href="#DejaVuSans-72" transform="translate(104.296875 0.015625)"/>
     <use xlink:href="#DejaVuSans-6f" transform="translate(145.410156 0.015625)"/>
     <use xlink:href="#DejaVuSans-72" transform="translate(206.591797 0.015625)"/>
     <use xlink:href="#DejaVuSans-20" transform="translate(247.705078 0.015625)"/>
     <use xlink:href="#DejaVuSans-69" transform="translate(279.492188 0.015625)"/>
     <use xlink:href="#DejaVuSans-6e" transform="translate(307.275391 0.015625)"/>
     <use xlink:href="#DejaVuSans-20" transform="translate(370.654297 0.015625)"/>
     <use xlink:href="#DejaVuSans-Oblique-7a" transform="translate(402.441406 0.015625)"/>
     <use xlink:href="#DejaVuSans-2d" transform="translate(454.931641 0.015625)"/>
     <use xlink:href="#DejaVuSans-70" transform="translate(491.015625 0.015625)"/>
     <use xlink:href="#DejaVuSans-6f" transform="translate(554.492188 0.015625)"/>
     <use xlink:href="#DejaVuSans-73" transform="translate(615.673828 0.015625)"/>
     <use xlink:href="#DejaVuSans-69" transform="translate(667.773438 0.015625)"/>
     <use xlink:href="#DejaVuSans-74" transform="translate(695.556641 0.015625)"/>
     <use xlink:href="#DejaVuSans-69" transform="translate(734.765625 0.015625)"/>
     <use xlink:href="#DejaVuSans-6f" transform="translate(762.548828 0.015625)"/>
     <use xlink:href="#DejaVuSans-6e" transform="translate(823.730469 0.015625)"/>
    </g>
   </g>
  </g>
  <g id="axes_3">
   <g id="patch_12">
    <path d="M 58.016 301.9975 
L 450 301.9975 
L 450 251.52 
L 58.016 251.52 
z
" style="fill: #ffffff"/>
   </g>
   <g id="matplotlib.axis_5">
    <g id="xtick_15">
     <g id="line2d_39">
      <path d="M 75.833455 301.9975 
L 75.833455 251.52 
" clip-path="url(#p90120f858d)" style="fill: none; stroke: #b0b0b0; stroke-width: 0.8; stroke-linecap: square"/>
     </g>
     <g id="line2d_40">
      <g>
       <use xlink:href="#ma8197f3a62" x="75.833455" y="301.9975" style="stroke: #000000; stroke-width: 0.8"/>
      </g>
     </g>
     <g id="text_25">
      <!-- 0 -->
      <g transform="translate(72.652205 316.595937)scale(0.1 -0.1)">
       <use xlink:href="#DejaVuSans-30"/>
      </g>
     </g>
    </g>
    <g id="xtick_16">
     <g id="line2d_41">
      <path d="M 129.500486 301.9975 
L 129.500486 251.52 
" clip-path="url(#p90120f858d)" style="fill: none; stroke: #b0b0b0; stroke-width: 0.8; stroke-linecap: square"/>
     </g>
     <g id="line2d_42">
      <g>
       <use xlink:href="#ma8197f3a62" x="129.500486" y="301.9975" style="stroke: #000000; stroke-width: 0.8"/>
      </g>
     </g>
     <g id="text_26">
      <!-- 1 -->
      <g transform="translate(126.319236 316.595937)scale(0.1 -0.1)">
       <use xlink:href="#DejaVuSans-31"/>
      </g>
     </g>
    </g>
    <g id="xtick_17">
     <g id="line2d_43">
      <path d="M 183.167518 301.9975 
L 183.167518 251.52 
" clip-path="url(#p90120f858d)" style="fill: none; stroke: #b0b0b0; stroke-width: 0.8; stroke-linecap: square"/>
     </g>
     <g id="line2d_44">
      <g>
       <use xlink:href="#ma8197f3a62" x="183.167518" y="301.9975" style="stroke: #000000; stroke-width: 0.8"/>
      </g>
     </g>
     <g id="text_27">
      <!-- 2 -->
      <g transform="translate(179.986268 316.595937)scale(0.1 -0.1)">
       <use xlink:href="#DejaVuSans-32"/>
      </g>
     </g>
    </g>
    <g id="xtick_18">
     <g id="line2d_45">
      <path d="M 236.83455 301.9975 
L 236.83455 251.52 
" clip-path="url(#p90120f858d)" style="fill: none; stroke: #b0b0b0; stroke-width: 0.8; stroke-linecap: square"/>
     </g>
     <g id="line2d_46">
      <g>
       <use xlink:href="#ma8197f3a62" x="236.83455" y="301.9975" style="stroke: #000000; stroke-width: 0.8"/>
      </g>
     </g>
     <g id="text_28">
      <!-- 3 -->
      <g transform="translate(233.6533 316.595937)scale(0.1 -0.1)">
       <use xlink:href="#DejaVuSans-33"/>
      </g>
     </g>
    </g>
    <g id="xtick_19">
     <g id="line2d_47">
      <path d="M 290.501582 301.9975 
L 290.501582 251.52 
" clip-path="url(#p90120f858d)" style="fill: none; stroke: #b0b0b0; stroke-width: 0.8; stroke-linecap: square"/>
     </g>
     <g id="line2d_48">
      <g>
       <use xlink:href="#ma8197f3a62" x="290.501582" y="301.9975" style="stroke: #000000; stroke-width: 0.8"/>
      </g>
     </g>
     <g id="text_29">
      <!-- 4 -->
      <g transform="translate(287.320332 316.595937)scale(0.1 -0.1)">
       <use xlink:href="#DejaVuSans-34"/>
      </g>
     </g>
    </g>
    <g id="xtick_20">
     <g id="line2d_49">
      <path d="M 344.168613 301.9975 
L 344.168613 251.52 
" clip-path="url(#p90120f858d)" style="fill: none; stroke: #b0b0b0; stroke-width: 0.8; stroke-linecap: square"/>
     </g>
     <g id="line2d_50">
      <g>
       <use xlink:href="#ma8197f3a62" x="344.168613" y="301.9975" style="stroke: #000000; stroke-width: 0.8"/>
      </g>
     </g>
     <g id="text_30">
      <!-- 5 -->
      <g transform="translate(340.987363 316.595937)scale(0.1 -0.1)">
       <use xlink:href="#DejaVuSans-35"/>
      </g>
     </g>
    </g>
    <g id="xtick_21">
     <g id="line2d_51">
      <path d="M 397.835645 301.9975 
L 397.835645 251.52 
" clip-path="url(#p90120f858d)" style="fill: none; stroke: #b0b0b0; stroke-width: 0.8; stroke-linecap: square"/>
     </g>
     <g id="line2d_52">
      <g>
       <use xlink:href="#ma8197f3a62" x="397.835645" y="301.9975" style="stroke: #000000; stroke-width: 0.8"/>
      </g>
     </g>
     <g id="text_31">
      <!-- 6 -->
      <g transform="translate(394.654395 316.595937)scale(0.1 -0.1)">
       <use xlink:href="#DejaVuSans-36"/>
      </g>
     </g>
    </g>
    <g id="text_32">
     <!-- $t$ [s] -->
     <g transform="translate(243.908 330.274063)scale(0.1 -0.1)">
      <use xlink:href="#DejaVuSans-Oblique-74" transform="translate(0 0.015625)"/>
      <use xlink:href="#DejaVuSans-20" transform="translate(39.208984 0.015625)"/>
      <use xlink:href="#DejaVuSans-5b" transform="translate(70.996094 0.015625)"/>
      <use xlink:href="#DejaVuSans-73" transform="translate(110.009766 0.015625)"/>
      <use xlink:href="#DejaVuSans-5d" transform="translate(162.109375 0.015625)"/>
     </g>
    </g>
   </g>
   <g id="matplotlib.axis_6">
    <g id="ytick_5">
     <g id="line2d_53">
      <path d="M 58.016 297.579812 
L 450 297.579812 
" clip-path="url(#p90120f858d)" style="fill: none; stroke: #b0b0b0; stroke-width: 0.8; stroke-linecap: square"/>
     </g>
     <g id="line2d_54">
      <g>
       <use xlink:href="#me0488d73bb" x="58.016" y="297.579812" style="stroke: #000000; stroke-width: 0.8"/>
      </g>
     </g>
     <g id="text_33">
      <!-- −2.5 -->
      <g transform="translate(26.733188 301.379031)scale(0.1 -0.1)">
       <defs>
        <path id="DejaVuSans-2212" d="M 678 2272 
L 4684 2272 
L 4684 1741 
L 678 1741 
L 678 2272 
z
" transform="scale(0.015625)"/>
       </defs>
       <use xlink:href="#DejaVuSans-2212"/>
       <use xlink:href="#DejaVuSans-32" x="83.789062"/>
       <use xlink:href="#DejaVuSans-2e" x="147.412109"/>
       <use xlink:href="#DejaVuSans-35" x="179.199219"/>
      </g>
     </g>
    </g>
    <g id="ytick_6">
     <g id="line2d_55">
      <path d="M 58.016 277.777222 
L 450 277.777222 
" clip-path="url(#p90120f858d)" style="fill: none; stroke: #b0b0b0; stroke-width: 0.8; stroke-linecap: square"/>
     </g>
     <g id="line2d_56">
      <g>
       <use xlink:href="#me0488d73bb" x="58.016" y="277.777222" style="stroke: #000000; stroke-width: 0.8"/>
      </g>
     </g>
     <g id="text_34">
      <!-- 0.0 -->
      <g transform="translate(35.112875 281.57644)scale(0.1 -0.1)">
       <use xlink:href="#DejaVuSans-30"/>
       <use xlink:href="#DejaVuSans-2e" x="63.623047"/>
       <use xlink:href="#DejaVuSans-30" x="95.410156"/>
      </g>
     </g>
    </g>
    <g id="ytick_7">
     <g id="line2d_57">
      <path d="M 58.016 257.974631 
L 450 257.974631 
" clip-path="url(#p90120f858d)" style="fill: none; stroke: #b0b0b0; stroke-width: 0.8; stroke-linecap: square"/>
     </g>
     <g id="line2d_58">
      <g>
       <use xlink:href="#me0488d73bb" x="58.016" y="257.974631" style="stroke: #000000; stroke-width: 0.8"/>
      </g>
     </g>
     <g id="text_35">
      <!-- 2.5 -->
      <g transform="translate(35.112875 261.77385)scale(0.1 -0.1)">
       <use xlink:href="#DejaVuSans-32"/>
       <use xlink:href="#DejaVuSans-2e" x="63.623047"/>
       <use xlink:href="#DejaVuSans-35" x="95.410156"/>
      </g>
     </g>
    </g>
    <g id="text_36">
     <!-- $e_\theta$ [rad] -->
     <g transform="translate(20.6535 295.90875)rotate(-90)scale(0.1 -0.1)">
      <defs>
       <path id="DejaVuSans-Oblique-3b8" d="M 2913 2219 
L 925 2219 
Q 791 1284 928 888 
Q 1100 400 1566 400 
Q 2034 400 2391 891 
Q 2703 1322 2913 2219 
z
M 3009 2750 
Q 3094 3638 2984 3950 
Q 2813 4444 2353 4444 
Q 1875 4444 1525 3956 
Q 1250 3563 1034 2750 
L 3009 2750 
z
M 2444 4913 
Q 3194 4913 3494 4250 
Q 3794 3591 3566 2422 
Q 3341 1256 2781 594 
Q 2225 -72 1475 -72 
Q 722 -72 425 594 
Q 128 1256 353 2422 
Q 581 3591 1134 4250 
Q 1691 4913 2444 4913 
z
" transform="scale(0.015625)"/>
       <path id="DejaVuSans-61" d="M 2194 1759 
Q 1497 1759 1228 1600 
Q 959 1441 959 1056 
Q 959 750 1161 570 
Q 1363 391 1709 391 
Q 2188 391 2477 730 
Q 2766 1069 2766 1631 
L 2766 1759 
L 2194 1759 
z
M 3341 1997 
L 3341 0 
L 2766 0 
L 2766 531 
Q 2569 213 2275 61 
Q 1981 -91 1556 -91 
Q 1019 -91 701 211 
Q 384 513 384 1019 
Q 384 1609 779 1909 
Q 1175 2209 1959 2209 
L 2766 2209 
L 2766 2266 
Q 2766 2663 2505 2880 
Q 2244 3097 1772 3097 
Q 1472 3097 1187 3025 
Q 903 2953 641 2809 
L 641 3341 
Q 956 3463 1253 3523 
Q 1550 3584 1831 3584 
Q 2591 3584 2966 3190 
Q 3341 2797 3341 1997 
z
" transform="scale(0.015625)"/>
       <path id="DejaVuSans-64" d="M 2906 2969 
L 2906 4863 
L 3481 4863 
L 3481 0 
L 2906 0 
L 2906 525 
Q 2725 213 2448 61 
Q 2172 -91 1784 -91 
Q 1150 -91 751 415 
Q 353 922 353 1747 
Q 353 2572 751 3078 
Q 1150 3584 1784 3584 
Q 2172 3584 2448 3432 
Q 2725 3281 2906 2969 
z
M 947 1747 
Q 947 1113 1208 752 
Q 1469 391 1925 391 
Q 2381 391 2643 752 
Q 2906 1113 2906 1747 
Q 2906 2381 2643 2742 
Q 2381 3103 1925 3103 
Q 1469 3103 1208 2742 
Q 947 2381 947 1747 
z
" transform="scale(0.015625)"/>
      </defs>
      <use xlink:href="#DejaVuSans-Oblique-65" transform="translate(0 0.015625)"/>
      <use xlink:href="#DejaVuSans-Oblique-3b8" transform="translate(61.523438 -16.390625)scale(0.7)"/>
      <use xlink:href="#DejaVuSans-20" transform="translate(107.084961 0.015625)"/>
      <use xlink:href="#DejaVuSans-5b" transform="translate(138.87207 0.015625)"/>
      <use xlink:href="#DejaVuSans-72" transform="translate(177.885742 0.015625)"/>
      <use xlink:href="#DejaVuSans-61" transform="translate(218.999023 0.015625)"/>
      <use xlink:href="#DejaVuSans-64" transform="translate(280.27832 0.015625)"/>
      <use xlink:href="#DejaVuSans-5d" transform="translate(343.754883 0.015625)"/>
     </g>
    </g>
   </g>
   <g id="line2d_59">
    <path d="M 75.833455 265.345955 
L 77.983374 265.325548 
L 83.895651 264.317506 
L 84.970611 264.106005 
L 91.957848 263.330275 
L 102.169964 262.841853 
L 116.144438 262.796815 
L 126.356553 263.055954 
L 130.118912 263.165813 
L 135.49371 263.300362 
L 147.855744 263.406049 
L 162.905178 263.119368 
L 174.192253 262.89481 
L 185.479329 262.909128 
L 197.841363 263.149076 
L 216.653156 263.371374 
L 225.790312 263.43311 
L 228.477711 263.756786 
L 229.01519 263.923064 
L 229.55267 263.923064 
L 230.09015 264.218808 
L 231.16511 264.385576 
L 232.777549 264.818399 
L 233.315029 265.082602 
L 236.002428 265.817087 
L 236.539907 266.067298 
L 239.227306 266.622786 
L 239.764786 266.903573 
L 241.377225 267.105804 
L 241.914705 267.280812 
L 242.452185 267.280812 
L 243.527144 267.455533 
L 247.826983 267.760015 
L 249.976902 267.719732 
L 251.589341 267.494516 
L 253.20178 266.408378 
L 253.73926 265.562669 
L 254.27674 261.953233 
L 254.81422 299.216506 
L 255.351699 299.216506 
L 255.889179 296.062927 
L 256.426659 295.530726 
L 258.039098 294.653113 
L 258.576578 294.653113 
L 259.651538 294.447222 
L 280.613249 292.662114 
L 290.287885 292.345584 
L 298.887561 292.371646 
L 306.412278 292.589737 
L 311.787076 292.802181 
L 326.83651 293.185951 
L 329.523908 292.99506 
L 331.136348 292.76499 
L 332.748787 292.508095 
L 333.823747 292.249585 
L 334.898706 292.060633 
L 335.436186 291.807195 
L 335.973666 291.807195 
L 337.048625 291.4819 
L 338.661065 291.078024 
L 339.736024 290.718429 
L 341.348463 290.292783 
L 341.885943 290.047861 
L 342.423423 290.047861 
L 343.498383 289.687481 
L 345.110822 289.165697 
L 345.648302 289.165697 
L 346.723261 288.841487 
L 348.335701 288.497584 
L 352.635539 287.872592 
L 354.247978 287.905998 
L 354.785458 288.034411 
L 355.322938 288.034411 
L 356.397897 288.523458 
L 356.935377 289.033605 
L 357.472857 289.922487 
L 358.010336 290.360826 
L 358.547816 291.585543 
L 359.085296 296.352628 
L 359.622776 299.703068 
L 360.160256 253.814432 
L 360.697735 255.888175 
L 361.235215 256.331703 
L 362.310175 257.812853 
L 363.922614 258.582399 
L 364.997574 258.751788 
L 366.072533 259.016274 
L 367.684972 259.277477 
L 368.759932 259.503684 
L 370.909851 259.893532 
L 371.447331 259.992466 
L 371.984811 260.263342 
L 372.52229 260.263342 
L 373.05977 260.507649 
L 373.59725 260.572459 
L 378.972048 262.652009 
L 379.509527 262.976899 
L 384.346845 264.289348 
L 388.109204 264.77301 
L 390.796603 264.881891 
L 397.24636 264.832709 
L 402.621158 264.926068 
L 410.145875 265.408787 
L 412.833274 265.633694 
L 414.983193 265.737114 
L 421.43295 265.926387 
L 425.195308 265.820553 
L 432.182545 265.15165 
L 432.182545 265.15165 
" clip-path="url(#p90120f858d)" style="fill: none; stroke: #008000; stroke-width: 1.5; stroke-linecap: square"/>
   </g>
   <g id="patch_13">
    <path d="M 58.016 301.9975 
L 58.016 251.52 
" style="fill: none; stroke: #000000; stroke-width: 0.8; stroke-linejoin: miter; stroke-linecap: square"/>
   </g>
   <g id="patch_14">
    <path d="M 450 301.9975 
L 450 251.52 
" style="fill: none; stroke: #000000; stroke-width: 0.8; stroke-linejoin: miter; stroke-linecap: square"/>
   </g>
   <g id="patch_15">
    <path d="M 58.016 301.9975 
L 450 301.9975 
" style="fill: none; stroke: #000000; stroke-width: 0.8; stroke-linejoin: miter; stroke-linecap: square"/>
   </g>
   <g id="patch_16">
    <path d="M 58.016 251.52 
L 450 251.52 
" style="fill: none; stroke: #000000; stroke-width: 0.8; stroke-linejoin: miter; stroke-linecap: square"/>
   </g>
   <g id="text_37">
    <!-- Error in swing angle -->
    <g transform="translate(194.237688 245.52)scale(0.12 -0.12)">
     <defs>
      <path id="DejaVuSans-77" d="M 269 3500 
L 844 3500 
L 1563 769 
L 2278 3500 
L 2956 3500 
L 3675 769 
L 4391 3500 
L 4966 3500 
L 4050 0 
L 3372 0 
L 2619 2869 
L 1863 0 
L 1184 0 
L 269 3500 
z
" transform="scale(0.015625)"/>
      <path id="DejaVuSans-67" d="M 2906 1791 
Q 2906 2416 2648 2759 
Q 2391 3103 1925 3103 
Q 1463 3103 1205 2759 
Q 947 2416 947 1791 
Q 947 1169 1205 825 
Q 1463 481 1925 481 
Q 2391 481 2648 825 
Q 2906 1169 2906 1791 
z
M 3481 434 
Q 3481 -459 3084 -895 
Q 2688 -1331 1869 -1331 
Q 1566 -1331 1297 -1286 
Q 1028 -1241 775 -1147 
L 775 -588 
Q 1028 -725 1275 -790 
Q 1522 -856 1778 -856 
Q 2344 -856 2625 -561 
Q 2906 -266 2906 331 
L 2906 616 
Q 2728 306 2450 153 
Q 2172 0 1784 0 
Q 1141 0 747 490 
Q 353 981 353 1791 
Q 353 2603 747 3093 
Q 1141 3584 1784 3584 
Q 2172 3584 2450 3431 
Q 2728 3278 2906 2969 
L 2906 3500 
L 3481 3500 
L 3481 434 
z
" transform="scale(0.015625)"/>
      <path id="DejaVuSans-6c" d="M 603 4863 
L 1178 4863 
L 1178 0 
L 603 0 
L 603 4863 
z
" transform="scale(0.015625)"/>
      <path id="DejaVuSans-65" d="M 3597 1894 
L 3597 1613 
L 953 1613 
Q 991 1019 1311 708 
Q 1631 397 2203 397 
Q 2534 397 2845 478 
Q 3156 559 3463 722 
L 3463 178 
Q 3153 47 2828 -22 
Q 2503 -91 2169 -91 
Q 1331 -91 842 396 
Q 353 884 353 1716 
Q 353 2575 817 3079 
Q 1281 3584 2069 3584 
Q 2775 3584 3186 3129 
Q 3597 2675 3597 1894 
z
M 3022 2063 
Q 3016 2534 2758 2815 
Q 2500 3097 2075 3097 
Q 1594 3097 1305 2825 
Q 1016 2553 972 2059 
L 3022 2063 
z
" transform="scale(0.015625)"/>
     </defs>
     <use xlink:href="#DejaVuSans-45"/>
     <use xlink:href="#DejaVuSans-72" x="63.183594"/>
     <use xlink:href="#DejaVuSans-72" x="102.546875"/>
     <use xlink:href="#DejaVuSans-6f" x="141.410156"/>
     <use xlink:href="#DejaVuSans-72" x="202.591797"/>
     <use xlink:href="#DejaVuSans-20" x="243.705078"/>
     <use xlink:href="#DejaVuSans-69" x="275.492188"/>
     <use xlink:href="#DejaVuSans-6e" x="303.275391"/>
     <use xlink:href="#DejaVuSans-20" x="366.654297"/>
     <use xlink:href="#DejaVuSans-73" x="398.441406"/>
     <use xlink:href="#DejaVuSans-77" x="450.541016"/>
     <use xlink:href="#DejaVuSans-69" x="532.328125"/>
     <use xlink:href="#DejaVuSans-6e" x="560.111328"/>
     <use xlink:href="#DejaVuSans-67" x="623.490234"/>
     <use xlink:href="#DejaVuSans-20" x="686.966797"/>
     <use xlink:href="#DejaVuSans-61" x="718.753906"/>
     <use xlink:href="#DejaVuSans-6e" x="780.033203"/>
     <use xlink:href="#DejaVuSans-67" x="843.412109"/>
     <use xlink:href="#DejaVuSans-6c" x="906.888672"/>
     <use xlink:href="#DejaVuSans-65" x="934.671875"/>
    </g>
   </g>
  </g>
 </g>
 <defs>
  <clipPath id="p97051bc3c7">
   <rect x="58.016" y="28.32" width="391.984" height="50.4775"/>
  </clipPath>
  <clipPath id="p0e2ae55408">
   <rect x="58.016" y="139.92" width="391.984" height="50.4775"/>
  </clipPath>
  <clipPath id="p90120f858d">
   <rect x="58.016" y="251.52" width="391.984" height="50.4775"/>
  </clipPath>
 </defs>
</svg>
