<?xml version="1.0" encoding="utf-8" standalone="no"?>
<!DOCTYPE svg PUBLIC "-//W3C//DTD SVG 1.1//EN"
  "http://www.w3.org/Graphics/SVG/1.1/DTD/svg11.dtd">
<svg xmlns:xlink="http://www.w3.org/1999/xlink" width="460.8pt" height="345.6pt" viewBox="0 0 460.8 345.6" xmlns="http://www.w3.org/2000/svg" version="1.1">
 <metadata>
  <rdf:RDF xmlns:dc="http://purl.org/dc/elements/1.1/" xmlns:cc="http://creativecommons.org/ns#" xmlns:rdf="http://www.w3.org/1999/02/22-rdf-syntax-ns#">
   <cc:Work>
    <dc:type rdf:resource="http://purl.org/dc/dcmitype/StillImage"/>
    <dc:date>2022-06-05T18:16:08.788450</dc:date>
    <dc:format>image/svg+xml</dc:format>
    <dc:creator>
     <cc:Agent>
      <dc:title>Matplotlib v3.5.1, https://matplotlib.org/</dc:title>
     </cc:Agent>
    </dc:creator>
   </cc:Work>
  </rdf:RDF>
 </metadata>
 <defs>
  <style type="text/css">*{stroke-linejoin: round; stroke-linecap: butt}</style>
 </defs>
 <g id="figure_1">
  <g id="patch_1">
   <path d="M 0 345.6 
L 460.8 345.6 
L 460.8 0 
L 0 0 
z
" style="fill: #ffffff"/>
  </g>
  <g id="axes_1">
   <g id="patch_2">
    <path d="M 70.616 78.7975 
L 450 78.7975 
L 450 28.32 
L 70.616 28.32 
z
" style="fill: #ffffff"/>
   </g>
   <g id="matplotlib.axis_1">
    <g id="xtick_1">
     <g id="line2d_1">
      <path d="M 87.860727 78.7975 
L 87.860727 28.32 
" clip-path="url(#pf12817df90)" style="fill: none; stroke: #b0b0b0; stroke-width: 0.8; stroke-linecap: square"/>
     </g>
     <g id="line2d_2">
      <defs>
       <path id="mfcdfb91ff9" d="M 0 0 
L 0 3.5 
" style="stroke: #000000; stroke-width: 0.8"/>
      </defs>
      <g>
       <use xlink:href="#mfcdfb91ff9" x="87.860727" y="78.7975" style="stroke: #000000; stroke-width: 0.8"/>
      </g>
     </g>
     <g id="text_1">
      <!-- 0 -->
      <g transform="translate(84.679477 93.395937)scale(0.1 -0.1)">
       <defs>
        <path id="DejaVuSans-30" d="M 2034 4250 
Q 1547 4250 1301 3770 
Q 1056 3291 1056 2328 
Q 1056 1369 1301 889 
Q 1547 409 2034 409 
Q 2525 409 2770 889 
Q 3016 1369 3016 2328 
Q 3016 3291 2770 3770 
Q 2525 4250 2034 4250 
z
M 2034 4750 
Q 2819 4750 3233 4129 
Q 3647 3509 3647 2328 
Q 3647 1150 3233 529 
Q 2819 -91 2034 -91 
Q 1250 -91 836 529 
Q 422 1150 422 2328 
Q 422 3509 836 4129 
Q 1250 4750 2034 4750 
z
" transform="scale(0.015625)"/>
       </defs>
       <use xlink:href="#DejaVuSans-30"/>
      </g>
     </g>
    </g>
    <g id="xtick_2">
     <g id="line2d_3">
      <path d="M 137.131377 78.7975 
L 137.131377 28.32 
" clip-path="url(#pf12817df90)" style="fill: none; stroke: #b0b0b0; stroke-width: 0.8; stroke-linecap: square"/>
     </g>
     <g id="line2d_4">
      <g>
       <use xlink:href="#mfcdfb91ff9" x="137.131377" y="78.7975" style="stroke: #000000; stroke-width: 0.8"/>
      </g>
     </g>
     <g id="text_2">
      <!-- 1 -->
      <g transform="translate(133.950127 93.395937)scale(0.1 -0.1)">
       <defs>
        <path id="DejaVuSans-31" d="M 794 531 
L 1825 531 
L 1825 4091 
L 703 3866 
L 703 4441 
L 1819 4666 
L 2450 4666 
L 2450 531 
L 3481 531 
L 3481 0 
L 794 0 
L 794 531 
z
" transform="scale(0.015625)"/>
       </defs>
       <use xlink:href="#DejaVuSans-31"/>
      </g>
     </g>
    </g>
    <g id="xtick_3">
     <g id="line2d_5">
      <path d="M 186.402026 78.7975 
L 186.402026 28.32 
" clip-path="url(#pf12817df90)" style="fill: none; stroke: #b0b0b0; stroke-width: 0.8; stroke-linecap: square"/>
     </g>
     <g id="line2d_6">
      <g>
       <use xlink:href="#mfcdfb91ff9" x="186.402026" y="78.7975" style="stroke: #000000; stroke-width: 0.8"/>
      </g>
     </g>
     <g id="text_3">
      <!-- 2 -->
      <g transform="translate(183.220776 93.395937)scale(0.1 -0.1)">
       <defs>
        <path id="DejaVuSans-32" d="M 1228 531 
L 3431 531 
L 3431 0 
L 469 0 
L 469 531 
Q 828 903 1448 1529 
Q 2069 2156 2228 2338 
Q 2531 2678 2651 2914 
Q 2772 3150 2772 3378 
Q 2772 3750 2511 3984 
Q 2250 4219 1831 4219 
Q 1534 4219 1204 4116 
Q 875 4013 500 3803 
L 500 4441 
Q 881 4594 1212 4672 
Q 1544 4750 1819 4750 
Q 2544 4750 2975 4387 
Q 3406 4025 3406 3419 
Q 3406 3131 3298 2873 
Q 3191 2616 2906 2266 
Q 2828 2175 2409 1742 
Q 1991 1309 1228 531 
z
" transform="scale(0.015625)"/>
       </defs>
       <use xlink:href="#DejaVuSans-32"/>
      </g>
     </g>
    </g>
    <g id="xtick_4">
     <g id="line2d_7">
      <path d="M 235.672675 78.7975 
L 235.672675 28.32 
" clip-path="url(#pf12817df90)" style="fill: none; stroke: #b0b0b0; stroke-width: 0.8; stroke-linecap: square"/>
     </g>
     <g id="line2d_8">
      <g>
       <use xlink:href="#mfcdfb91ff9" x="235.672675" y="78.7975" style="stroke: #000000; stroke-width: 0.8"/>
      </g>
     </g>
     <g id="text_4">
      <!-- 3 -->
      <g transform="translate(232.491425 93.395937)scale(0.1 -0.1)">
       <defs>
        <path id="DejaVuSans-33" d="M 2597 2516 
Q 3050 2419 3304 2112 
Q 3559 1806 3559 1356 
Q 3559 666 3084 287 
Q 2609 -91 1734 -91 
Q 1441 -91 1130 -33 
Q 819 25 488 141 
L 488 750 
Q 750 597 1062 519 
Q 1375 441 1716 441 
Q 2309 441 2620 675 
Q 2931 909 2931 1356 
Q 2931 1769 2642 2001 
Q 2353 2234 1838 2234 
L 1294 2234 
L 1294 2753 
L 1863 2753 
Q 2328 2753 2575 2939 
Q 2822 3125 2822 3475 
Q 2822 3834 2567 4026 
Q 2313 4219 1838 4219 
Q 1578 4219 1281 4162 
Q 984 4106 628 3988 
L 628 4550 
Q 988 4650 1302 4700 
Q 1616 4750 1894 4750 
Q 2613 4750 3031 4423 
Q 3450 4097 3450 3541 
Q 3450 3153 3228 2886 
Q 3006 2619 2597 2516 
z
" transform="scale(0.015625)"/>
       </defs>
       <use xlink:href="#DejaVuSans-33"/>
      </g>
     </g>
    </g>
    <g id="xtick_5">
     <g id="line2d_9">
      <path d="M 284.943325 78.7975 
L 284.943325 28.32 
" clip-path="url(#pf12817df90)" style="fill: none; stroke: #b0b0b0; stroke-width: 0.8; stroke-linecap: square"/>
     </g>
     <g id="line2d_10">
      <g>
       <use xlink:href="#mfcdfb91ff9" x="284.943325" y="78.7975" style="stroke: #000000; stroke-width: 0.8"/>
      </g>
     </g>
     <g id="text_5">
      <!-- 4 -->
      <g transform="translate(281.762075 93.395937)scale(0.1 -0.1)">
       <defs>
        <path id="DejaVuSans-34" d="M 2419 4116 
L 825 1625 
L 2419 1625 
L 2419 4116 
z
M 2253 4666 
L 3047 4666 
L 3047 1625 
L 3713 1625 
L 3713 1100 
L 3047 1100 
L 3047 0 
L 2419 0 
L 2419 1100 
L 313 1100 
L 313 1709 
L 2253 4666 
z
" transform="scale(0.015625)"/>
       </defs>
       <use xlink:href="#DejaVuSans-34"/>
      </g>
     </g>
    </g>
    <g id="xtick_6">
     <g id="line2d_11">
      <path d="M 334.213974 78.7975 
L 334.213974 28.32 
" clip-path="url(#pf12817df90)" style="fill: none; stroke: #b0b0b0; stroke-width: 0.8; stroke-linecap: square"/>
     </g>
     <g id="line2d_12">
      <g>
       <use xlink:href="#mfcdfb91ff9" x="334.213974" y="78.7975" style="stroke: #000000; stroke-width: 0.8"/>
      </g>
     </g>
     <g id="text_6">
      <!-- 5 -->
      <g transform="translate(331.032724 93.395937)scale(0.1 -0.1)">
       <defs>
        <path id="DejaVuSans-35" d="M 691 4666 
L 3169 4666 
L 3169 4134 
L 1269 4134 
L 1269 2991 
Q 1406 3038 1543 3061 
Q 1681 3084 1819 3084 
Q 2600 3084 3056 2656 
Q 3513 2228 3513 1497 
Q 3513 744 3044 326 
Q 2575 -91 1722 -91 
Q 1428 -91 1123 -41 
Q 819 9 494 109 
L 494 744 
Q 775 591 1075 516 
Q 1375 441 1709 441 
Q 2250 441 2565 725 
Q 2881 1009 2881 1497 
Q 2881 1984 2565 2268 
Q 2250 2553 1709 2553 
Q 1456 2553 1204 2497 
Q 953 2441 691 2322 
L 691 4666 
z
" transform="scale(0.015625)"/>
       </defs>
       <use xlink:href="#DejaVuSans-35"/>
      </g>
     </g>
    </g>
    <g id="xtick_7">
     <g id="line2d_13">
      <path d="M 383.484623 78.7975 
L 383.484623 28.32 
" clip-path="url(#pf12817df90)" style="fill: none; stroke: #b0b0b0; stroke-width: 0.8; stroke-linecap: square"/>
     </g>
     <g id="line2d_14">
      <g>
       <use xlink:href="#mfcdfb91ff9" x="383.484623" y="78.7975" style="stroke: #000000; stroke-width: 0.8"/>
      </g>
     </g>
     <g id="text_7">
      <!-- 6 -->
      <g transform="translate(380.303373 93.395937)scale(0.1 -0.1)">
       <defs>
        <path id="DejaVuSans-36" d="M 2113 2584 
Q 1688 2584 1439 2293 
Q 1191 2003 1191 1497 
Q 1191 994 1439 701 
Q 1688 409 2113 409 
Q 2538 409 2786 701 
Q 3034 994 3034 1497 
Q 3034 2003 2786 2293 
Q 2538 2584 2113 2584 
z
M 3366 4563 
L 3366 3988 
Q 3128 4100 2886 4159 
Q 2644 4219 2406 4219 
Q 1781 4219 1451 3797 
Q 1122 3375 1075 2522 
Q 1259 2794 1537 2939 
Q 1816 3084 2150 3084 
Q 2853 3084 3261 2657 
Q 3669 2231 3669 1497 
Q 3669 778 3244 343 
Q 2819 -91 2113 -91 
Q 1303 -91 875 529 
Q 447 1150 447 2328 
Q 447 3434 972 4092 
Q 1497 4750 2381 4750 
Q 2619 4750 2861 4703 
Q 3103 4656 3366 4563 
z
" transform="scale(0.015625)"/>
       </defs>
       <use xlink:href="#DejaVuSans-36"/>
      </g>
     </g>
    </g>
    <g id="xtick_8">
     <g id="line2d_15">
      <path d="M 432.755273 78.7975 
L 432.755273 28.32 
" clip-path="url(#pf12817df90)" style="fill: none; stroke: #b0b0b0; stroke-width: 0.8; stroke-linecap: square"/>
     </g>
     <g id="line2d_16">
      <g>
       <use xlink:href="#mfcdfb91ff9" x="432.755273" y="78.7975" style="stroke: #000000; stroke-width: 0.8"/>
      </g>
     </g>
     <g id="text_8">
      <!-- 7 -->
      <g transform="translate(429.574023 93.395937)scale(0.1 -0.1)">
       <defs>
        <path id="DejaVuSans-37" d="M 525 4666 
L 3525 4666 
L 3525 4397 
L 1831 0 
L 1172 0 
L 2766 4134 
L 525 4134 
L 525 4666 
z
" transform="scale(0.015625)"/>
       </defs>
       <use xlink:href="#DejaVuSans-37"/>
      </g>
     </g>
    </g>
    <g id="text_9">
     <!-- $t$ [s] -->
     <g transform="translate(250.208 107.074062)scale(0.1 -0.1)">
      <defs>
       <path id="DejaVuSans-Oblique-74" d="M 2706 3500 
L 2619 3053 
L 1472 3053 
L 1100 1153 
Q 1081 1047 1072 975 
Q 1063 903 1063 863 
Q 1063 663 1183 572 
Q 1303 481 1569 481 
L 2150 481 
L 2053 0 
L 1503 0 
Q 991 0 739 200 
Q 488 400 488 806 
Q 488 878 497 964 
Q 506 1050 525 1153 
L 897 3053 
L 409 3053 
L 500 3500 
L 978 3500 
L 1172 4494 
L 1747 4494 
L 1556 3500 
L 2706 3500 
z
" transform="scale(0.015625)"/>
       <path id="DejaVuSans-20" transform="scale(0.015625)"/>
       <path id="DejaVuSans-5b" d="M 550 4863 
L 1875 4863 
L 1875 4416 
L 1125 4416 
L 1125 -397 
L 1875 -397 
L 1875 -844 
L 550 -844 
L 550 4863 
z
" transform="scale(0.015625)"/>
       <path id="DejaVuSans-73" d="M 2834 3397 
L 2834 2853 
Q 2591 2978 2328 3040 
Q 2066 3103 1784 3103 
Q 1356 3103 1142 2972 
Q 928 2841 928 2578 
Q 928 2378 1081 2264 
Q 1234 2150 1697 2047 
L 1894 2003 
Q 2506 1872 2764 1633 
Q 3022 1394 3022 966 
Q 3022 478 2636 193 
Q 2250 -91 1575 -91 
Q 1294 -91 989 -36 
Q 684 19 347 128 
L 347 722 
Q 666 556 975 473 
Q 1284 391 1588 391 
Q 1994 391 2212 530 
Q 2431 669 2431 922 
Q 2431 1156 2273 1281 
Q 2116 1406 1581 1522 
L 1381 1569 
Q 847 1681 609 1914 
Q 372 2147 372 2553 
Q 372 3047 722 3315 
Q 1072 3584 1716 3584 
Q 2034 3584 2315 3537 
Q 2597 3491 2834 3397 
z
" transform="scale(0.015625)"/>
       <path id="DejaVuSans-5d" d="M 1947 4863 
L 1947 -844 
L 622 -844 
L 622 -397 
L 1369 -397 
L 1369 4416 
L 622 4416 
L 622 4863 
L 1947 4863 
z
" transform="scale(0.015625)"/>
      </defs>
      <use xlink:href="#DejaVuSans-Oblique-74" transform="translate(0 0.015625)"/>
      <use xlink:href="#DejaVuSans-20" transform="translate(39.208984 0.015625)"/>
      <use xlink:href="#DejaVuSans-5b" transform="translate(70.996094 0.015625)"/>
      <use xlink:href="#DejaVuSans-73" transform="translate(110.009766 0.015625)"/>
      <use xlink:href="#DejaVuSans-5d" transform="translate(162.109375 0.015625)"/>
     </g>
    </g>
   </g>
   <g id="matplotlib.axis_2">
    <g id="ytick_1">
     <g id="line2d_17">
      <path d="M 70.616 68.105361 
L 450 68.105361 
" clip-path="url(#pf12817df90)" style="fill: none; stroke: #b0b0b0; stroke-width: 0.8; stroke-linecap: square"/>
     </g>
     <g id="line2d_18">
      <defs>
       <path id="me440bffa8f" d="M 0 0 
L -3.5 0 
" style="stroke: #000000; stroke-width: 0.8"/>
      </defs>
      <g>
       <use xlink:href="#me440bffa8f" x="70.616" y="68.105361" style="stroke: #000000; stroke-width: 0.8"/>
      </g>
     </g>
     <g id="text_10">
      <!-- 0 -->
      <g transform="translate(57.2535 71.90458)scale(0.1 -0.1)">
       <use xlink:href="#DejaVuSans-30"/>
      </g>
     </g>
    </g>
    <g id="ytick_2">
     <g id="line2d_19">
      <path d="M 70.616 30.614439 
L 450 30.614439 
" clip-path="url(#pf12817df90)" style="fill: none; stroke: #b0b0b0; stroke-width: 0.8; stroke-linecap: square"/>
     </g>
     <g id="line2d_20">
      <g>
       <use xlink:href="#me440bffa8f" x="70.616" y="30.614439" style="stroke: #000000; stroke-width: 0.8"/>
      </g>
     </g>
     <g id="text_11">
      <!-- 10 -->
      <g transform="translate(50.891 34.413658)scale(0.1 -0.1)">
       <use xlink:href="#DejaVuSans-31"/>
       <use xlink:href="#DejaVuSans-30" x="63.623047"/>
      </g>
     </g>
    </g>
    <g id="text_12">
     <!-- $e_x$ [m] -->
     <g transform="translate(44.811312 69.20875)rotate(-90)scale(0.1 -0.1)">
      <defs>
       <path id="DejaVuSans-Oblique-65" d="M 3078 2063 
Q 3088 2113 3092 2166 
Q 3097 2219 3097 2272 
Q 3097 2653 2873 2875 
Q 2650 3097 2266 3097 
Q 1838 3097 1509 2826 
Q 1181 2556 1013 2059 
L 3078 2063 
z
M 3578 1613 
L 903 1613 
Q 884 1494 878 1425 
Q 872 1356 872 1306 
Q 872 872 1139 634 
Q 1406 397 1894 397 
Q 2269 397 2603 481 
Q 2938 566 3225 728 
L 3116 159 
Q 2806 34 2476 -28 
Q 2147 -91 1806 -91 
Q 1078 -91 686 257 
Q 294 606 294 1247 
Q 294 1794 489 2264 
Q 684 2734 1063 3103 
Q 1306 3334 1642 3459 
Q 1978 3584 2356 3584 
Q 2950 3584 3301 3228 
Q 3653 2872 3653 2272 
Q 3653 2128 3634 1964 
Q 3616 1800 3578 1613 
z
" transform="scale(0.015625)"/>
       <path id="DejaVuSans-Oblique-78" d="M 3841 3500 
L 2234 1784 
L 3219 0 
L 2559 0 
L 1819 1388 
L 531 0 
L -166 0 
L 1556 1844 
L 641 3500 
L 1300 3500 
L 1972 2234 
L 3144 3500 
L 3841 3500 
z
" transform="scale(0.015625)"/>
       <path id="DejaVuSans-6d" d="M 3328 2828 
Q 3544 3216 3844 3400 
Q 4144 3584 4550 3584 
Q 5097 3584 5394 3201 
Q 5691 2819 5691 2113 
L 5691 0 
L 5113 0 
L 5113 2094 
Q 5113 2597 4934 2840 
Q 4756 3084 4391 3084 
Q 3944 3084 3684 2787 
Q 3425 2491 3425 1978 
L 3425 0 
L 2847 0 
L 2847 2094 
Q 2847 2600 2669 2842 
Q 2491 3084 2119 3084 
Q 1678 3084 1418 2786 
Q 1159 2488 1159 1978 
L 1159 0 
L 581 0 
L 581 3500 
L 1159 3500 
L 1159 2956 
Q 1356 3278 1631 3431 
Q 1906 3584 2284 3584 
Q 2666 3584 2933 3390 
Q 3200 3197 3328 2828 
z
" transform="scale(0.015625)"/>
      </defs>
      <use xlink:href="#DejaVuSans-Oblique-65" transform="translate(0 0.015625)"/>
      <use xlink:href="#DejaVuSans-Oblique-78" transform="translate(61.523438 -16.390625)scale(0.7)"/>
      <use xlink:href="#DejaVuSans-20" transform="translate(105.683594 0.015625)"/>
      <use xlink:href="#DejaVuSans-5b" transform="translate(137.470703 0.015625)"/>
      <use xlink:href="#DejaVuSans-6d" transform="translate(176.484375 0.015625)"/>
      <use xlink:href="#DejaVuSans-5d" transform="translate(273.896484 0.015625)"/>
     </g>
    </g>
   </g>
   <g id="line2d_21">
    <path d="M 87.860727 30.614439 
L 99.209189 30.711068 
L 110.064239 31.334488 
L 121.4127 32.646217 
L 123.879757 33.018908 
L 124.373168 33.018908 
L 124.86658 33.199463 
L 126.840225 33.416622 
L 134.241396 34.745746 
L 135.228218 34.930109 
L 136.215041 35.155507 
L 138.188687 35.502229 
L 139.175509 35.739257 
L 141.642566 36.186402 
L 142.629389 36.437385 
L 144.603034 36.82354 
L 145.589857 37.087599 
L 147.070091 37.357067 
L 147.563503 37.585811 
L 148.056914 37.585811 
L 149.043737 37.86538 
L 151.017382 38.295216 
L 152.004205 38.5888 
L 153.97785 39.03973 
L 154.964673 39.347369 
L 155.951496 39.555571 
L 156.444907 39.819307 
L 156.938319 39.819307 
L 157.925141 40.140876 
L 159.405375 40.523008 
L 160.392198 40.856477 
L 161.379021 41.13852 
L 162.365844 41.481908 
L 162.859255 41.481908 
L 164.339489 42.066074 
L 165.326312 42.244177 
L 165.819723 42.363639 
L 166.806546 42.725475 
L 168.28678 43.277801 
L 168.780191 43.277801 
L 169.767014 43.652273 
L 170.753837 44.03165 
L 171.74066 44.223147 
L 172.234071 44.480321 
L 173.220894 44.804715 
L 174.207716 45.198198 
L 174.701128 45.198198 
L 175.194539 45.463018 
L 176.181362 45.796801 
L 177.168185 46.201301 
L 177.661596 46.201301 
L 178.155007 46.473317 
L 179.635242 46.953756 
L 180.128653 47.230758 
L 182.102298 47.860365 
L 183.089121 48.284847 
L 183.582532 48.284847 
L 184.075944 48.569877 
L 185.062767 48.92841 
L 185.556178 49.144699 
L 186.543001 49.361856 
L 187.036412 49.652714 
L 188.023235 50.018364 
L 189.010057 50.460115 
L 189.503469 50.460115 
L 189.99688 50.75637 
L 190.983703 51.128621 
L 191.477114 51.352982 
L 192.463937 51.57809 
L 192.957348 51.879381 
L 193.944171 52.257813 
L 194.930994 52.714563 
L 195.424405 52.714563 
L 195.917817 53.020638 
L 196.904639 53.404992 
L 197.398051 53.636541 
L 198.384873 53.86879 
L 199.371696 54.413431 
L 199.865108 54.648023 
L 200.85193 54.883322 
L 201.345342 55.040583 
L 201.838753 55.435131 
L 202.332164 55.435131 
L 202.825576 55.752216 
L 203.318987 55.831691 
L 205.292633 56.711328 
L 207.266278 57.438585 
L 207.759689 57.764047 
L 209.239924 58.254785 
L 209.733335 58.665896 
L 210.226746 58.665896 
L 210.720158 58.996014 
L 212.200392 59.492738 
L 213.187214 60.073442 
L 213.680626 60.32228 
L 214.667449 60.570862 
L 216.147683 61.148922 
L 216.641094 61.477346 
L 219.108151 62.369747 
L 219.601562 62.689357 
L 221.081796 63.162988 
L 221.575208 63.551919 
L 222.068619 63.551919 
L 222.56203 63.859027 
L 224.042265 64.312585 
L 224.535676 64.610009 
L 225.029087 64.610009 
L 225.522499 65.048427 
L 226.509321 65.264081 
L 227.002733 65.40651 
L 227.496144 65.688128 
L 227.989555 65.688128 
L 228.482967 66.102412 
L 229.46979 66.305916 
L 229.963201 66.440252 
L 230.456612 66.705752 
L 231.443435 67.031742 
L 231.936846 67.224242 
L 232.923669 67.414447 
L 233.417081 67.664517 
L 234.403903 67.971461 
L 234.897315 68.152638 
L 235.884137 68.331586 
L 236.87096 68.682807 
L 237.857783 68.96869 
L 238.351194 69.192937 
L 238.844606 69.192937 
L 239.831428 69.521863 
L 240.818251 69.789129 
L 241.311662 69.998452 
L 241.805074 69.998452 
L 242.298485 70.203775 
L 242.791896 70.203775 
L 243.285308 70.504271 
L 244.765542 70.747936 
L 245.752365 70.985674 
L 246.739187 71.263524 
L 248.712833 71.666069 
L 249.699656 71.925619 
L 251.673301 72.261456 
L 252.166712 72.505994 
L 253.646947 72.705093 
L 254.633769 72.938436 
L 256.114003 73.202941 
L 257.594237 73.530507 
L 259.074472 73.740796 
L 260.554706 74.043573 
L 262.03494 74.23666 
L 265.488819 74.743553 
L 266.969053 74.986764 
L 270.422933 75.418815 
L 271.903167 75.566953 
L 274.863635 75.846776 
L 275.850458 75.944414 
L 278.317515 76.075686 
L 279.304338 76.165296 
L 288.185742 76.488144 
L 295.586913 76.449375 
L 303.974906 76.098189 
L 305.948551 75.960525 
L 309.895842 75.664635 
L 311.869488 75.495544 
L 316.803602 75.034178 
L 319.270658 74.706138 
L 320.257481 74.613418 
L 325.191595 74.009046 
L 326.671829 73.760431 
L 330.125708 73.225674 
L 331.605943 73.068063 
L 333.086177 72.774395 
L 336.540056 72.152271 
L 337.526879 72.04484 
L 338.02029 71.900319 
L 338.513702 71.900319 
L 339.007113 71.681296 
L 340.980758 71.42342 
L 344.928049 70.648837 
L 347.888518 70.041456 
L 349.862163 69.801634 
L 352.822631 69.253254 
L 353.316043 69.253254 
L 353.809454 69.072747 
L 355.289688 68.927924 
L 356.769922 68.680455 
L 360.223802 68.237312 
L 362.197447 68.041353 
L 366.144738 67.647505 
L 368.611795 67.474781 
L 373.545909 67.150533 
L 384.400959 66.798914 
L 393.775775 66.792028 
L 409.564938 67.247765 
L 414.005641 67.427055 
L 432.755273 68.018362 
L 432.755273 68.018362 
" clip-path="url(#pf12817df90)" style="fill: none; stroke: #ff0000; stroke-width: 1.5; stroke-linecap: square"/>
   </g>
   <g id="patch_3">
    <path d="M 70.616 78.7975 
L 70.616 28.32 
" style="fill: none; stroke: #000000; stroke-width: 0.8; stroke-linejoin: miter; stroke-linecap: square"/>
   </g>
   <g id="patch_4">
    <path d="M 450 78.7975 
L 450 28.32 
" style="fill: none; stroke: #000000; stroke-width: 0.8; stroke-linejoin: miter; stroke-linecap: square"/>
   </g>
   <g id="patch_5">
    <path d="M 70.616 78.7975 
L 450 78.7975 
" style="fill: none; stroke: #000000; stroke-width: 0.8; stroke-linejoin: miter; stroke-linecap: square"/>
   </g>
   <g id="patch_6">
    <path d="M 70.616 28.32 
L 450 28.32 
" style="fill: none; stroke: #000000; stroke-width: 0.8; stroke-linejoin: miter; stroke-linecap: square"/>
   </g>
   <g id="text_13">
    <!-- Error in $x$-position -->
    <g transform="translate(206.668 22.32)scale(0.12 -0.12)">
     <defs>
      <path id="DejaVuSans-45" d="M 628 4666 
L 3578 4666 
L 3578 4134 
L 1259 4134 
L 1259 2753 
L 3481 2753 
L 3481 2222 
L 1259 2222 
L 1259 531 
L 3634 531 
L 3634 0 
L 628 0 
L 628 4666 
z
" transform="scale(0.015625)"/>
      <path id="DejaVuSans-72" d="M 2631 2963 
Q 2534 3019 2420 3045 
Q 2306 3072 2169 3072 
Q 1681 3072 1420 2755 
Q 1159 2438 1159 1844 
L 1159 0 
L 581 0 
L 581 3500 
L 1159 3500 
L 1159 2956 
Q 1341 3275 1631 3429 
Q 1922 3584 2338 3584 
Q 2397 3584 2469 3576 
Q 2541 3569 2628 3553 
L 2631 2963 
z
" transform="scale(0.015625)"/>
      <path id="DejaVuSans-6f" d="M 1959 3097 
Q 1497 3097 1228 2736 
Q 959 2375 959 1747 
Q 959 1119 1226 758 
Q 1494 397 1959 397 
Q 2419 397 2687 759 
Q 2956 1122 2956 1747 
Q 2956 2369 2687 2733 
Q 2419 3097 1959 3097 
z
M 1959 3584 
Q 2709 3584 3137 3096 
Q 3566 2609 3566 1747 
Q 3566 888 3137 398 
Q 2709 -91 1959 -91 
Q 1206 -91 779 398 
Q 353 888 353 1747 
Q 353 2609 779 3096 
Q 1206 3584 1959 3584 
z
" transform="scale(0.015625)"/>
      <path id="DejaVuSans-69" d="M 603 3500 
L 1178 3500 
L 1178 0 
L 603 0 
L 603 3500 
z
M 603 4863 
L 1178 4863 
L 1178 4134 
L 603 4134 
L 603 4863 
z
" transform="scale(0.015625)"/>
      <path id="DejaVuSans-6e" d="M 3513 2113 
L 3513 0 
L 2938 0 
L 2938 2094 
Q 2938 2591 2744 2837 
Q 2550 3084 2163 3084 
Q 1697 3084 1428 2787 
Q 1159 2491 1159 1978 
L 1159 0 
L 581 0 
L 581 3500 
L 1159 3500 
L 1159 2956 
Q 1366 3272 1645 3428 
Q 1925 3584 2291 3584 
Q 2894 3584 3203 3211 
Q 3513 2838 3513 2113 
z
" transform="scale(0.015625)"/>
      <path id="DejaVuSans-2d" d="M 313 2009 
L 1997 2009 
L 1997 1497 
L 313 1497 
L 313 2009 
z
" transform="scale(0.015625)"/>
      <path id="DejaVuSans-70" d="M 1159 525 
L 1159 -1331 
L 581 -1331 
L 581 3500 
L 1159 3500 
L 1159 2969 
Q 1341 3281 1617 3432 
Q 1894 3584 2278 3584 
Q 2916 3584 3314 3078 
Q 3713 2572 3713 1747 
Q 3713 922 3314 415 
Q 2916 -91 2278 -91 
Q 1894 -91 1617 61 
Q 1341 213 1159 525 
z
M 3116 1747 
Q 3116 2381 2855 2742 
Q 2594 3103 2138 3103 
Q 1681 3103 1420 2742 
Q 1159 2381 1159 1747 
Q 1159 1113 1420 752 
Q 1681 391 2138 391 
Q 2594 391 2855 752 
Q 3116 1113 3116 1747 
z
" transform="scale(0.015625)"/>
      <path id="DejaVuSans-74" d="M 1172 4494 
L 1172 3500 
L 2356 3500 
L 2356 3053 
L 1172 3053 
L 1172 1153 
Q 1172 725 1289 603 
Q 1406 481 1766 481 
L 2356 481 
L 2356 0 
L 1766 0 
Q 1100 0 847 248 
Q 594 497 594 1153 
L 594 3053 
L 172 3053 
L 172 3500 
L 594 3500 
L 594 4494 
L 1172 4494 
z
" transform="scale(0.015625)"/>
     </defs>
     <use xlink:href="#DejaVuSans-45" transform="translate(0 0.015625)"/>
     <use xlink:href="#DejaVuSans-72" transform="translate(63.183594 0.015625)"/>
     <use xlink:href="#DejaVuSans-72" transform="translate(104.296875 0.015625)"/>
     <use xlink:href="#DejaVuSans-6f" transform="translate(145.410156 0.015625)"/>
     <use xlink:href="#DejaVuSans-72" transform="translate(206.591797 0.015625)"/>
     <use xlink:href="#DejaVuSans-20" transform="translate(247.705078 0.015625)"/>
     <use xlink:href="#DejaVuSans-69" transform="translate(279.492188 0.015625)"/>
     <use xlink:href="#DejaVuSans-6e" transform="translate(307.275391 0.015625)"/>
     <use xlink:href="#DejaVuSans-20" transform="translate(370.654297 0.015625)"/>
     <use xlink:href="#DejaVuSans-Oblique-78" transform="translate(402.441406 0.015625)"/>
     <use xlink:href="#DejaVuSans-2d" transform="translate(461.621094 0.015625)"/>
     <use xlink:href="#DejaVuSans-70" transform="translate(497.705078 0.015625)"/>
     <use xlink:href="#DejaVuSans-6f" transform="translate(561.181641 0.015625)"/>
     <use xlink:href="#DejaVuSans-73" transform="translate(622.363281 0.015625)"/>
     <use xlink:href="#DejaVuSans-69" transform="translate(674.462891 0.015625)"/>
     <use xlink:href="#DejaVuSans-74" transform="translate(702.246094 0.015625)"/>
     <use xlink:href="#DejaVuSans-69" transform="translate(741.455078 0.015625)"/>
     <use xlink:href="#DejaVuSans-6f" transform="translate(769.238281 0.015625)"/>
     <use xlink:href="#DejaVuSans-6e" transform="translate(830.419922 0.015625)"/>
    </g>
   </g>
  </g>
  <g id="axes_2">
   <g id="patch_7">
    <path d="M 70.616 190.3975 
L 450 190.3975 
L 450 139.92 
L 70.616 139.92 
z
" style="fill: #ffffff"/>
   </g>
   <g id="matplotlib.axis_3">
    <g id="xtick_9">
     <g id="line2d_22">
      <path d="M 87.860727 190.3975 
L 87.860727 139.92 
" clip-path="url(#p4d51c366cb)" style="fill: none; stroke: #b0b0b0; stroke-width: 0.8; stroke-linecap: square"/>
     </g>
     <g id="line2d_23">
      <g>
       <use xlink:href="#mfcdfb91ff9" x="87.860727" y="190.3975" style="stroke: #000000; stroke-width: 0.8"/>
      </g>
     </g>
     <g id="text_14">
      <!-- 0 -->
      <g transform="translate(84.679477 204.995937)scale(0.1 -0.1)">
       <use xlink:href="#DejaVuSans-30"/>
      </g>
     </g>
    </g>
    <g id="xtick_10">
     <g id="line2d_24">
      <path d="M 137.131377 190.3975 
L 137.131377 139.92 
" clip-path="url(#p4d51c366cb)" style="fill: none; stroke: #b0b0b0; stroke-width: 0.8; stroke-linecap: square"/>
     </g>
     <g id="line2d_25">
      <g>
       <use xlink:href="#mfcdfb91ff9" x="137.131377" y="190.3975" style="stroke: #000000; stroke-width: 0.8"/>
      </g>
     </g>
     <g id="text_15">
      <!-- 1 -->
      <g transform="translate(133.950127 204.995937)scale(0.1 -0.1)">
       <use xlink:href="#DejaVuSans-31"/>
      </g>
     </g>
    </g>
    <g id="xtick_11">
     <g id="line2d_26">
      <path d="M 186.402026 190.3975 
L 186.402026 139.92 
" clip-path="url(#p4d51c366cb)" style="fill: none; stroke: #b0b0b0; stroke-width: 0.8; stroke-linecap: square"/>
     </g>
     <g id="line2d_27">
      <g>
       <use xlink:href="#mfcdfb91ff9" x="186.402026" y="190.3975" style="stroke: #000000; stroke-width: 0.8"/>
      </g>
     </g>
     <g id="text_16">
      <!-- 2 -->
      <g transform="translate(183.220776 204.995937)scale(0.1 -0.1)">
       <use xlink:href="#DejaVuSans-32"/>
      </g>
     </g>
    </g>
    <g id="xtick_12">
     <g id="line2d_28">
      <path d="M 235.672675 190.3975 
L 235.672675 139.92 
" clip-path="url(#p4d51c366cb)" style="fill: none; stroke: #b0b0b0; stroke-width: 0.8; stroke-linecap: square"/>
     </g>
     <g id="line2d_29">
      <g>
       <use xlink:href="#mfcdfb91ff9" x="235.672675" y="190.3975" style="stroke: #000000; stroke-width: 0.8"/>
      </g>
     </g>
     <g id="text_17">
      <!-- 3 -->
      <g transform="translate(232.491425 204.995937)scale(0.1 -0.1)">
       <use xlink:href="#DejaVuSans-33"/>
      </g>
     </g>
    </g>
    <g id="xtick_13">
     <g id="line2d_30">
      <path d="M 284.943325 190.3975 
L 284.943325 139.92 
" clip-path="url(#p4d51c366cb)" style="fill: none; stroke: #b0b0b0; stroke-width: 0.8; stroke-linecap: square"/>
     </g>
     <g id="line2d_31">
      <g>
       <use xlink:href="#mfcdfb91ff9" x="284.943325" y="190.3975" style="stroke: #000000; stroke-width: 0.8"/>
      </g>
     </g>
     <g id="text_18">
      <!-- 4 -->
      <g transform="translate(281.762075 204.995937)scale(0.1 -0.1)">
       <use xlink:href="#DejaVuSans-34"/>
      </g>
     </g>
    </g>
    <g id="xtick_14">
     <g id="line2d_32">
      <path d="M 334.213974 190.3975 
L 334.213974 139.92 
" clip-path="url(#p4d51c366cb)" style="fill: none; stroke: #b0b0b0; stroke-width: 0.8; stroke-linecap: square"/>
     </g>
     <g id="line2d_33">
      <g>
       <use xlink:href="#mfcdfb91ff9" x="334.213974" y="190.3975" style="stroke: #000000; stroke-width: 0.8"/>
      </g>
     </g>
     <g id="text_19">
      <!-- 5 -->
      <g transform="translate(331.032724 204.995937)scale(0.1 -0.1)">
       <use xlink:href="#DejaVuSans-35"/>
      </g>
     </g>
    </g>
    <g id="xtick_15">
     <g id="line2d_34">
      <path d="M 383.484623 190.3975 
L 383.484623 139.92 
" clip-path="url(#p4d51c366cb)" style="fill: none; stroke: #b0b0b0; stroke-width: 0.8; stroke-linecap: square"/>
     </g>
     <g id="line2d_35">
      <g>
       <use xlink:href="#mfcdfb91ff9" x="383.484623" y="190.3975" style="stroke: #000000; stroke-width: 0.8"/>
      </g>
     </g>
     <g id="text_20">
      <!-- 6 -->
      <g transform="translate(380.303373 204.995937)scale(0.1 -0.1)">
       <use xlink:href="#DejaVuSans-36"/>
      </g>
     </g>
    </g>
    <g id="xtick_16">
     <g id="line2d_36">
      <path d="M 432.755273 190.3975 
L 432.755273 139.92 
" clip-path="url(#p4d51c366cb)" style="fill: none; stroke: #b0b0b0; stroke-width: 0.8; stroke-linecap: square"/>
     </g>
     <g id="line2d_37">
      <g>
       <use xlink:href="#mfcdfb91ff9" x="432.755273" y="190.3975" style="stroke: #000000; stroke-width: 0.8"/>
      </g>
     </g>
     <g id="text_21">
      <!-- 7 -->
      <g transform="translate(429.574023 204.995937)scale(0.1 -0.1)">
       <use xlink:href="#DejaVuSans-37"/>
      </g>
     </g>
    </g>
    <g id="text_22">
     <!-- $t$ [s] -->
     <g transform="translate(250.208 218.674062)scale(0.1 -0.1)">
      <use xlink:href="#DejaVuSans-Oblique-74" transform="translate(0 0.015625)"/>
      <use xlink:href="#DejaVuSans-20" transform="translate(39.208984 0.015625)"/>
      <use xlink:href="#DejaVuSans-5b" transform="translate(70.996094 0.015625)"/>
      <use xlink:href="#DejaVuSans-73" transform="translate(110.009766 0.015625)"/>
      <use xlink:href="#DejaVuSans-5d" transform="translate(162.109375 0.015625)"/>
     </g>
    </g>
   </g>
   <g id="matplotlib.axis_4">
    <g id="ytick_3">
     <g id="line2d_38">
      <path d="M 70.616 188.476026 
L 450 188.476026 
" clip-path="url(#p4d51c366cb)" style="fill: none; stroke: #b0b0b0; stroke-width: 0.8; stroke-linecap: square"/>
     </g>
     <g id="line2d_39">
      <g>
       <use xlink:href="#me440bffa8f" x="70.616" y="188.476026" style="stroke: #000000; stroke-width: 0.8"/>
      </g>
     </g>
     <g id="text_23">
      <!-- −0.025 -->
      <g transform="translate(26.608187 192.275245)scale(0.1 -0.1)">
       <defs>
        <path id="DejaVuSans-2212" d="M 678 2272 
L 4684 2272 
L 4684 1741 
L 678 1741 
L 678 2272 
z
" transform="scale(0.015625)"/>
        <path id="DejaVuSans-2e" d="M 684 794 
L 1344 794 
L 1344 0 
L 684 0 
L 684 794 
z
" transform="scale(0.015625)"/>
       </defs>
       <use xlink:href="#DejaVuSans-2212"/>
       <use xlink:href="#DejaVuSans-30" x="83.789062"/>
       <use xlink:href="#DejaVuSans-2e" x="147.412109"/>
       <use xlink:href="#DejaVuSans-30" x="179.199219"/>
       <use xlink:href="#DejaVuSans-32" x="242.822266"/>
       <use xlink:href="#DejaVuSans-35" x="306.445312"/>
      </g>
     </g>
    </g>
    <g id="ytick_4">
     <g id="line2d_40">
      <path d="M 70.616 169.845376 
L 450 169.845376 
" clip-path="url(#p4d51c366cb)" style="fill: none; stroke: #b0b0b0; stroke-width: 0.8; stroke-linecap: square"/>
     </g>
     <g id="line2d_41">
      <g>
       <use xlink:href="#me440bffa8f" x="70.616" y="169.845376" style="stroke: #000000; stroke-width: 0.8"/>
      </g>
     </g>
     <g id="text_24">
      <!-- 0.000 -->
      <g transform="translate(34.987875 173.644594)scale(0.1 -0.1)">
       <use xlink:href="#DejaVuSans-30"/>
       <use xlink:href="#DejaVuSans-2e" x="63.623047"/>
       <use xlink:href="#DejaVuSans-30" x="95.410156"/>
       <use xlink:href="#DejaVuSans-30" x="159.033203"/>
       <use xlink:href="#DejaVuSans-30" x="222.65625"/>
      </g>
     </g>
    </g>
    <g id="ytick_5">
     <g id="line2d_42">
      <path d="M 70.616 151.214725 
L 450 151.214725 
" clip-path="url(#p4d51c366cb)" style="fill: none; stroke: #b0b0b0; stroke-width: 0.8; stroke-linecap: square"/>
     </g>
     <g id="line2d_43">
      <g>
       <use xlink:href="#me440bffa8f" x="70.616" y="151.214725" style="stroke: #000000; stroke-width: 0.8"/>
      </g>
     </g>
     <g id="text_25">
      <!-- 0.025 -->
      <g transform="translate(34.987875 155.013944)scale(0.1 -0.1)">
       <use xlink:href="#DejaVuSans-30"/>
       <use xlink:href="#DejaVuSans-2e" x="63.623047"/>
       <use xlink:href="#DejaVuSans-30" x="95.410156"/>
       <use xlink:href="#DejaVuSans-32" x="159.033203"/>
       <use xlink:href="#DejaVuSans-35" x="222.65625"/>
      </g>
     </g>
    </g>
    <g id="text_26">
     <!-- $e_z$ [m] -->
     <g transform="translate(20.5285 180.60875)rotate(-90)scale(0.1 -0.1)">
      <defs>
       <path id="DejaVuSans-Oblique-7a" d="M 744 3500 
L 3475 3500 
L 3372 2975 
L 738 459 
L 2913 459 
L 2822 0 
L -19 0 
L 84 525 
L 2719 3041 
L 653 3041 
L 744 3500 
z
" transform="scale(0.015625)"/>
      </defs>
      <use xlink:href="#DejaVuSans-Oblique-65" transform="translate(0 0.015625)"/>
      <use xlink:href="#DejaVuSans-Oblique-7a" transform="translate(61.523438 -16.390625)scale(0.7)"/>
      <use xlink:href="#DejaVuSans-20" transform="translate(101.000977 0.015625)"/>
      <use xlink:href="#DejaVuSans-5b" transform="translate(132.788086 0.015625)"/>
      <use xlink:href="#DejaVuSans-6d" transform="translate(171.801758 0.015625)"/>
      <use xlink:href="#DejaVuSans-5d" transform="translate(269.213867 0.015625)"/>
     </g>
    </g>
   </g>
   <g id="line2d_44">
    <path d="M 87.860727 177.063333 
L 88.354139 176.366802 
L 88.84755 176.238319 
L 90.327784 175.297569 
L 90.821195 174.710452 
L 91.314607 173.900314 
L 93.288252 172.285608 
L 93.781664 171.712463 
L 96.742132 170.241298 
L 99.7026 169.523081 
L 103.15648 169.204565 
L 107.597182 169.114051 
L 109.570827 169.290228 
L 110.55765 169.466361 
L 111.051062 169.663856 
L 111.544473 169.663856 
L 112.531296 170.0692 
L 113.518118 170.420479 
L 114.01153 170.729635 
L 114.504941 171.204993 
L 116.478587 172.375398 
L 116.971998 172.888255 
L 117.465409 173.630223 
L 118.945643 174.85588 
L 119.439055 175.512264 
L 119.932466 176.422263 
L 120.425877 176.422263 
L 120.919289 177.363472 
L 121.4127 177.842702 
L 122.399523 179.297439 
L 122.892934 179.540464 
L 123.386346 180.025281 
L 123.879757 180.984938 
L 124.373168 180.984938 
L 124.86658 182.377011 
L 125.359991 182.601198 
L 127.333637 184.481493 
L 127.827048 185.219762 
L 130.787516 187.293354 
L 132.761162 188.012281 
L 134.241396 188.103068 
L 135.228218 188.021029 
L 138.188687 186.996892 
L 138.682098 186.556931 
L 141.149155 185.233108 
L 141.642566 184.789076 
L 142.135978 184.175505 
L 144.109623 182.906245 
L 145.589857 181.486997 
L 147.070091 180.59192 
L 147.563503 179.896341 
L 148.056914 179.896341 
L 148.550325 179.38064 
L 152.497616 177.532853 
L 155.458085 176.781185 
L 158.911964 176.44619 
L 166.313135 175.888301 
L 167.793369 175.656266 
L 170.753837 175.155333 
L 171.74066 175.058036 
L 173.220894 174.804502 
L 175.194539 174.634256 
L 177.661596 174.649928 
L 180.128653 175.097985 
L 181.608887 175.419448 
L 183.089121 176.038984 
L 183.582532 176.038984 
L 184.075944 176.359135 
L 185.062767 176.790203 
L 185.556178 177.061815 
L 186.543001 177.340845 
L 187.036412 177.720611 
L 188.023235 178.199791 
L 189.010057 178.767679 
L 189.503469 178.767679 
L 189.99688 179.133421 
L 190.983703 179.566083 
L 191.477114 179.808736 
L 192.463937 180.036258 
L 192.957348 180.312802 
L 195.917817 181.020669 
L 198.384873 181.168378 
L 200.85193 180.923713 
L 201.345342 180.848689 
L 201.838753 180.623334 
L 202.332164 180.623334 
L 202.825576 180.407387 
L 203.318987 180.348883 
L 208.746512 178.37624 
L 209.239924 178.261654 
L 209.733335 178.023316 
L 210.226746 178.023316 
L 211.213569 177.847252 
L 213.187214 177.781646 
L 216.641094 177.771925 
L 218.614739 177.527097 
L 219.108151 177.346824 
L 220.094974 176.771413 
L 221.081796 176.188268 
L 221.575208 175.204852 
L 222.068619 175.204852 
L 222.56203 174.211159 
L 224.042265 172.391726 
L 224.535676 170.988233 
L 225.029087 170.988233 
L 225.522499 168.663687 
L 226.01591 168.25594 
L 227.002733 166.586354 
L 227.496144 164.879457 
L 227.989555 164.879457 
L 228.482967 162.304646 
L 228.976378 161.875305 
L 229.963201 160.158385 
L 230.456612 158.446275 
L 230.950024 157.594724 
L 231.936846 155.061414 
L 232.430258 154.643617 
L 232.923669 153.813246 
L 233.417081 152.177446 
L 233.910492 151.3766 
L 234.897315 149.069077 
L 235.390726 148.70096 
L 235.884137 147.981562 
L 236.377549 146.62217 
L 237.857783 144.570387 
L 238.351194 143.63476 
L 238.844606 143.63476 
L 239.338017 142.906018 
L 240.32484 142.414028 
L 240.818251 142.218432 
L 241.805074 142.214432 
L 242.298485 142.533424 
L 242.791896 142.533424 
L 243.285308 143.672283 
L 243.778719 143.939588 
L 244.765542 145.21631 
L 245.258953 145.971749 
L 245.752365 147.229181 
L 246.245776 149.093446 
L 248.219422 153.222806 
L 248.712833 154.82259 
L 249.206244 156.924784 
L 250.686478 159.899422 
L 251.17989 161.700243 
L 251.673301 161.700243 
L 252.166712 164.046176 
L 252.660124 164.391357 
L 253.646947 165.635289 
L 254.140358 166.654572 
L 255.620592 168.038379 
L 256.607415 168.344326 
L 257.100826 168.590567 
L 258.087649 168.658329 
L 259.074472 168.57303 
L 259.567883 168.478698 
L 261.048117 167.66283 
L 261.541528 167.556664 
L 262.528351 167.102485 
L 263.021763 166.617177 
L 263.515174 166.36898 
L 264.501997 165.626614 
L 264.995408 165.505747 
L 265.488819 165.268494 
L 265.982231 164.817758 
L 266.969053 164.314026 
L 267.462465 164.051919 
L 268.449288 163.82402 
L 268.942699 163.577632 
L 270.916344 163.280458 
L 271.903167 163.284688 
L 274.370224 163.6685 
L 274.863635 163.907435 
L 275.357047 163.907435 
L 275.850458 164.337648 
L 276.837281 164.577504 
L 277.330692 164.744111 
L 277.824104 165.088825 
L 278.317515 165.088825 
L 278.810926 165.616191 
L 279.797749 165.876836 
L 281.277983 166.45688 
L 281.771394 166.761421 
L 286.705508 168.096186 
L 287.198919 168.096186 
L 287.692331 168.312658 
L 289.172565 168.48871 
L 289.665976 168.674958 
L 290.159388 168.674958 
L 291.14621 168.931555 
L 292.133033 169.13208 
L 293.613267 169.774475 
L 294.60009 170.014034 
L 295.586913 170.371135 
L 296.080324 170.667799 
L 296.573735 171.102912 
L 298.05397 171.841925 
L 298.547381 172.250336 
L 299.040792 172.832908 
L 301.014438 174.114511 
L 301.507849 174.979921 
L 302.001261 174.979921 
L 302.494672 175.697078 
L 303.974906 176.797461 
L 304.468317 177.720043 
L 304.961729 177.720043 
L 305.45514 178.449997 
L 307.428786 180.022286 
L 307.922197 180.671566 
L 309.895842 181.975317 
L 310.389254 182.473056 
L 313.349722 183.796869 
L 313.843133 183.796869 
L 314.829956 184.095177 
L 316.31019 184.184467 
L 317.790424 184.074092 
L 319.76407 183.663903 
L 321.244304 182.914944 
L 322.231127 182.642974 
L 322.724538 182.452076 
L 323.711361 181.735859 
L 324.204772 181.411748 
L 325.191595 181.080704 
L 325.685006 180.85748 
L 326.671829 180.073953 
L 327.16524 179.743028 
L 328.152063 179.418382 
L 328.645474 179.206225 
L 329.632297 178.499068 
L 330.125708 178.217916 
L 331.112531 177.956259 
L 331.605943 177.79557 
L 332.099354 177.514329 
L 334.566411 177.027105 
L 335.553233 176.907118 
L 337.526879 176.863899 
L 341.967581 176.869455 
L 342.954404 176.808185 
L 345.421461 176.344811 
L 345.914872 176.099271 
L 346.408284 176.099271 
L 347.888518 175.246877 
L 348.87534 174.931262 
L 349.862163 174.471039 
L 350.355574 174.095456 
L 350.848986 173.550338 
L 352.32922 172.630929 
L 352.822631 171.951391 
L 353.316043 171.951391 
L 353.809454 170.85557 
L 354.302865 170.665659 
L 355.289688 169.891903 
L 355.783099 169.104211 
L 356.276511 168.710734 
L 357.263334 167.55186 
L 357.756745 167.363953 
L 358.250156 166.994954 
L 358.743568 166.290382 
L 359.236979 165.958746 
L 360.223802 165.067516 
L 361.210625 164.689757 
L 361.704036 164.268091 
L 363.677681 163.67165 
L 365.157915 163.73709 
L 367.131561 164.381023 
L 367.624972 164.874692 
L 368.611795 165.487562 
L 369.105206 166.021767 
L 369.598618 166.826929 
L 370.092029 166.826929 
L 370.58544 167.726982 
L 371.572263 168.708017 
L 372.065675 169.48684 
L 372.559086 170.569816 
L 374.532731 172.82427 
L 375.026143 173.677014 
L 375.519554 174.799773 
L 376.012966 174.799773 
L 376.506377 175.89181 
L 376.999788 176.421762 
L 378.480022 178.62456 
L 378.973434 178.62456 
L 379.466845 179.48626 
L 379.960256 179.885918 
L 380.947079 180.948517 
L 381.440491 181.104488 
L 381.933902 181.397742 
L 382.427313 181.907427 
L 384.400959 182.667514 
L 385.881193 182.897335 
L 386.868016 182.815025 
L 387.361427 182.698304 
L 387.854838 182.698304 
L 388.841661 182.329254 
L 389.828484 181.899444 
L 390.321895 181.485257 
L 391.802129 180.764664 
L 392.788952 179.947405 
L 393.282363 179.803796 
L 393.775775 179.511338 
L 394.269186 178.90919 
L 394.762597 178.601289 
L 395.74942 177.662292 
L 396.242832 177.504703 
L 396.736243 177.189281 
L 397.229654 176.559739 
L 397.723066 176.247215 
L 398.709888 175.328463 
L 399.2033 175.179141 
L 399.696711 174.884505 
L 400.683534 173.902298 
L 401.176945 173.508593 
L 401.670357 173.381414 
L 402.657179 172.89405 
L 403.150591 172.443014 
L 403.644002 172.443014 
L 404.137413 171.84131 
L 405.124236 171.576125 
L 408.578116 170.520291 
L 411.538584 170.146779 
L 413.512229 170.113519 
L 416.966109 170.286429 
L 425.847514 170.716925 
L 430.288216 170.611789 
L 432.755273 170.502887 
L 432.755273 170.502887 
" clip-path="url(#p4d51c366cb)" style="fill: none; stroke: #0000ff; stroke-width: 1.5; stroke-linecap: square"/>
   </g>
   <g id="patch_8">
    <path d="M 70.616 190.3975 
L 70.616 139.92 
" style="fill: none; stroke: #000000; stroke-width: 0.8; stroke-linejoin: miter; stroke-linecap: square"/>
   </g>
   <g id="patch_9">
    <path d="M 450 190.3975 
L 450 139.92 
" style="fill: none; stroke: #000000; stroke-width: 0.8; stroke-linejoin: miter; stroke-linecap: square"/>
   </g>
   <g id="patch_10">
    <path d="M 70.616 190.3975 
L 450 190.3975 
" style="fill: none; stroke: #000000; stroke-width: 0.8; stroke-linejoin: miter; stroke-linecap: square"/>
   </g>
   <g id="patch_11">
    <path d="M 70.616 139.92 
L 450 139.92 
" style="fill: none; stroke: #000000; stroke-width: 0.8; stroke-linejoin: miter; stroke-linecap: square"/>
   </g>
   <g id="text_27">
    <!-- Error in $z$-position -->
    <g transform="translate(207.028 133.92)scale(0.12 -0.12)">
     <use xlink:href="#DejaVuSans-45" transform="translate(0 0.015625)"/>
     <use xlink:href="#DejaVuSans-72" transform="translate(63.183594 0.015625)"/>
     <use xlink:href="#DejaVuSans-72" transform="translate(104.296875 0.015625)"/>
     <use xlink:href="#DejaVuSans-6f" transform="translate(145.410156 0.015625)"/>
     <use xlink:href="#DejaVuSans-72" transform="translate(206.591797 0.015625)"/>
     <use xlink:href="#DejaVuSans-20" transform="translate(247.705078 0.015625)"/>
     <use xlink:href="#DejaVuSans-69" transform="translate(279.492188 0.015625)"/>
     <use xlink:href="#DejaVuSans-6e" transform="translate(307.275391 0.015625)"/>
     <use xlink:href="#DejaVuSans-20" transform="translate(370.654297 0.015625)"/>
     <use xlink:href="#DejaVuSans-Oblique-7a" transform="translate(402.441406 0.015625)"/>
     <use xlink:href="#DejaVuSans-2d" transform="translate(454.931641 0.015625)"/>
     <use xlink:href="#DejaVuSans-70" transform="translate(491.015625 0.015625)"/>
     <use xlink:href="#DejaVuSans-6f" transform="translate(554.492188 0.015625)"/>
     <use xlink:href="#DejaVuSans-73" transform="translate(615.673828 0.015625)"/>
     <use xlink:href="#DejaVuSans-69" transform="translate(667.773438 0.015625)"/>
     <use xlink:href="#DejaVuSans-74" transform="translate(695.556641 0.015625)"/>
     <use xlink:href="#DejaVuSans-69" transform="translate(734.765625 0.015625)"/>
     <use xlink:href="#DejaVuSans-6f" transform="translate(762.548828 0.015625)"/>
     <use xlink:href="#DejaVuSans-6e" transform="translate(823.730469 0.015625)"/>
    </g>
   </g>
  </g>
  <g id="axes_3">
   <g id="patch_12">
    <path d="M 70.616 301.9975 
L 450 301.9975 
L 450 251.52 
L 70.616 251.52 
z
" style="fill: #ffffff"/>
   </g>
   <g id="matplotlib.axis_5">
    <g id="xtick_17">
     <g id="line2d_45">
      <path d="M 87.860727 301.9975 
L 87.860727 251.52 
" clip-path="url(#p2f20d94ea7)" style="fill: none; stroke: #b0b0b0; stroke-width: 0.8; stroke-linecap: square"/>
     </g>
     <g id="line2d_46">
      <g>
       <use xlink:href="#mfcdfb91ff9" x="87.860727" y="301.9975" style="stroke: #000000; stroke-width: 0.8"/>
      </g>
     </g>
     <g id="text_28">
      <!-- 0 -->
      <g transform="translate(84.679477 316.595937)scale(0.1 -0.1)">
       <use xlink:href="#DejaVuSans-30"/>
      </g>
     </g>
    </g>
    <g id="xtick_18">
     <g id="line2d_47">
      <path d="M 137.131377 301.9975 
L 137.131377 251.52 
" clip-path="url(#p2f20d94ea7)" style="fill: none; stroke: #b0b0b0; stroke-width: 0.8; stroke-linecap: square"/>
     </g>
     <g id="line2d_48">
      <g>
       <use xlink:href="#mfcdfb91ff9" x="137.131377" y="301.9975" style="stroke: #000000; stroke-width: 0.8"/>
      </g>
     </g>
     <g id="text_29">
      <!-- 1 -->
      <g transform="translate(133.950127 316.595937)scale(0.1 -0.1)">
       <use xlink:href="#DejaVuSans-31"/>
      </g>
     </g>
    </g>
    <g id="xtick_19">
     <g id="line2d_49">
      <path d="M 186.402026 301.9975 
L 186.402026 251.52 
" clip-path="url(#p2f20d94ea7)" style="fill: none; stroke: #b0b0b0; stroke-width: 0.8; stroke-linecap: square"/>
     </g>
     <g id="line2d_50">
      <g>
       <use xlink:href="#mfcdfb91ff9" x="186.402026" y="301.9975" style="stroke: #000000; stroke-width: 0.8"/>
      </g>
     </g>
     <g id="text_30">
      <!-- 2 -->
      <g transform="translate(183.220776 316.595937)scale(0.1 -0.1)">
       <use xlink:href="#DejaVuSans-32"/>
      </g>
     </g>
    </g>
    <g id="xtick_20">
     <g id="line2d_51">
      <path d="M 235.672675 301.9975 
L 235.672675 251.52 
" clip-path="url(#p2f20d94ea7)" style="fill: none; stroke: #b0b0b0; stroke-width: 0.8; stroke-linecap: square"/>
     </g>
     <g id="line2d_52">
      <g>
       <use xlink:href="#mfcdfb91ff9" x="235.672675" y="301.9975" style="stroke: #000000; stroke-width: 0.8"/>
      </g>
     </g>
     <g id="text_31">
      <!-- 3 -->
      <g transform="translate(232.491425 316.595937)scale(0.1 -0.1)">
       <use xlink:href="#DejaVuSans-33"/>
      </g>
     </g>
    </g>
    <g id="xtick_21">
     <g id="line2d_53">
      <path d="M 284.943325 301.9975 
L 284.943325 251.52 
" clip-path="url(#p2f20d94ea7)" style="fill: none; stroke: #b0b0b0; stroke-width: 0.8; stroke-linecap: square"/>
     </g>
     <g id="line2d_54">
      <g>
       <use xlink:href="#mfcdfb91ff9" x="284.943325" y="301.9975" style="stroke: #000000; stroke-width: 0.8"/>
      </g>
     </g>
     <g id="text_32">
      <!-- 4 -->
      <g transform="translate(281.762075 316.595937)scale(0.1 -0.1)">
       <use xlink:href="#DejaVuSans-34"/>
      </g>
     </g>
    </g>
    <g id="xtick_22">
     <g id="line2d_55">
      <path d="M 334.213974 301.9975 
L 334.213974 251.52 
" clip-path="url(#p2f20d94ea7)" style="fill: none; stroke: #b0b0b0; stroke-width: 0.8; stroke-linecap: square"/>
     </g>
     <g id="line2d_56">
      <g>
       <use xlink:href="#mfcdfb91ff9" x="334.213974" y="301.9975" style="stroke: #000000; stroke-width: 0.8"/>
      </g>
     </g>
     <g id="text_33">
      <!-- 5 -->
      <g transform="translate(331.032724 316.595937)scale(0.1 -0.1)">
       <use xlink:href="#DejaVuSans-35"/>
      </g>
     </g>
    </g>
    <g id="xtick_23">
     <g id="line2d_57">
      <path d="M 383.484623 301.9975 
L 383.484623 251.52 
" clip-path="url(#p2f20d94ea7)" style="fill: none; stroke: #b0b0b0; stroke-width: 0.8; stroke-linecap: square"/>
     </g>
     <g id="line2d_58">
      <g>
       <use xlink:href="#mfcdfb91ff9" x="383.484623" y="301.9975" style="stroke: #000000; stroke-width: 0.8"/>
      </g>
     </g>
     <g id="text_34">
      <!-- 6 -->
      <g transform="translate(380.303373 316.595937)scale(0.1 -0.1)">
       <use xlink:href="#DejaVuSans-36"/>
      </g>
     </g>
    </g>
    <g id="xtick_24">
     <g id="line2d_59">
      <path d="M 432.755273 301.9975 
L 432.755273 251.52 
" clip-path="url(#p2f20d94ea7)" style="fill: none; stroke: #b0b0b0; stroke-width: 0.8; stroke-linecap: square"/>
     </g>
     <g id="line2d_60">
      <g>
       <use xlink:href="#mfcdfb91ff9" x="432.755273" y="301.9975" style="stroke: #000000; stroke-width: 0.8"/>
      </g>
     </g>
     <g id="text_35">
      <!-- 7 -->
      <g transform="translate(429.574023 316.595937)scale(0.1 -0.1)">
       <use xlink:href="#DejaVuSans-37"/>
      </g>
     </g>
    </g>
    <g id="text_36">
     <!-- $t$ [s] -->
     <g transform="translate(250.208 330.274063)scale(0.1 -0.1)">
      <use xlink:href="#DejaVuSans-Oblique-74" transform="translate(0 0.015625)"/>
      <use xlink:href="#DejaVuSans-20" transform="translate(39.208984 0.015625)"/>
      <use xlink:href="#DejaVuSans-5b" transform="translate(70.996094 0.015625)"/>
      <use xlink:href="#DejaVuSans-73" transform="translate(110.009766 0.015625)"/>
      <use xlink:href="#DejaVuSans-5d" transform="translate(162.109375 0.015625)"/>
     </g>
    </g>
   </g>
   <g id="matplotlib.axis_6">
    <g id="ytick_6">
     <g id="line2d_61">
      <path d="M 70.616 295.273517 
L 450 295.273517 
" clip-path="url(#p2f20d94ea7)" style="fill: none; stroke: #b0b0b0; stroke-width: 0.8; stroke-linecap: square"/>
     </g>
     <g id="line2d_62">
      <g>
       <use xlink:href="#me440bffa8f" x="70.616" y="295.273517" style="stroke: #000000; stroke-width: 0.8"/>
      </g>
     </g>
     <g id="text_37">
      <!-- −2.5 -->
      <g transform="translate(39.333187 299.072736)scale(0.1 -0.1)">
       <use xlink:href="#DejaVuSans-2212"/>
       <use xlink:href="#DejaVuSans-32" x="83.789062"/>
       <use xlink:href="#DejaVuSans-2e" x="147.412109"/>
       <use xlink:href="#DejaVuSans-35" x="179.199219"/>
      </g>
     </g>
    </g>
    <g id="ytick_7">
     <g id="line2d_63">
      <path d="M 70.616 275.660113 
L 450 275.660113 
" clip-path="url(#p2f20d94ea7)" style="fill: none; stroke: #b0b0b0; stroke-width: 0.8; stroke-linecap: square"/>
     </g>
     <g id="line2d_64">
      <g>
       <use xlink:href="#me440bffa8f" x="70.616" y="275.660113" style="stroke: #000000; stroke-width: 0.8"/>
      </g>
     </g>
     <g id="text_38">
      <!-- 0.0 -->
      <g transform="translate(47.712875 279.459332)scale(0.1 -0.1)">
       <use xlink:href="#DejaVuSans-30"/>
       <use xlink:href="#DejaVuSans-2e" x="63.623047"/>
       <use xlink:href="#DejaVuSans-30" x="95.410156"/>
      </g>
     </g>
    </g>
    <g id="ytick_8">
     <g id="line2d_65">
      <path d="M 70.616 256.046709 
L 450 256.046709 
" clip-path="url(#p2f20d94ea7)" style="fill: none; stroke: #b0b0b0; stroke-width: 0.8; stroke-linecap: square"/>
     </g>
     <g id="line2d_66">
      <g>
       <use xlink:href="#me440bffa8f" x="70.616" y="256.046709" style="stroke: #000000; stroke-width: 0.8"/>
      </g>
     </g>
     <g id="text_39">
      <!-- 2.5 -->
      <g transform="translate(47.712875 259.845928)scale(0.1 -0.1)">
       <use xlink:href="#DejaVuSans-32"/>
       <use xlink:href="#DejaVuSans-2e" x="63.623047"/>
       <use xlink:href="#DejaVuSans-35" x="95.410156"/>
      </g>
     </g>
    </g>
    <g id="text_40">
     <!-- $e_\theta$ [rad] -->
     <g transform="translate(33.2535 295.90875)rotate(-90)scale(0.1 -0.1)">
      <defs>
       <path id="DejaVuSans-Oblique-3b8" d="M 2913 2219 
L 925 2219 
Q 791 1284 928 888 
Q 1100 400 1566 400 
Q 2034 400 2391 891 
Q 2703 1322 2913 2219 
z
M 3009 2750 
Q 3094 3638 2984 3950 
Q 2813 4444 2353 4444 
Q 1875 4444 1525 3956 
Q 1250 3563 1034 2750 
L 3009 2750 
z
M 2444 4913 
Q 3194 4913 3494 4250 
Q 3794 3591 3566 2422 
Q 3341 1256 2781 594 
Q 2225 -72 1475 -72 
Q 722 -72 425 594 
Q 128 1256 353 2422 
Q 581 3591 1134 4250 
Q 1691 4913 2444 4913 
z
" transform="scale(0.015625)"/>
       <path id="DejaVuSans-61" d="M 2194 1759 
Q 1497 1759 1228 1600 
Q 959 1441 959 1056 
Q 959 750 1161 570 
Q 1363 391 1709 391 
Q 2188 391 2477 730 
Q 2766 1069 2766 1631 
L 2766 1759 
L 2194 1759 
z
M 3341 1997 
L 3341 0 
L 2766 0 
L 2766 531 
Q 2569 213 2275 61 
Q 1981 -91 1556 -91 
Q 1019 -91 701 211 
Q 384 513 384 1019 
Q 384 1609 779 1909 
Q 1175 2209 1959 2209 
L 2766 2209 
L 2766 2266 
Q 2766 2663 2505 2880 
Q 2244 3097 1772 3097 
Q 1472 3097 1187 3025 
Q 903 2953 641 2809 
L 641 3341 
Q 956 3463 1253 3523 
Q 1550 3584 1831 3584 
Q 2591 3584 2966 3190 
Q 3341 2797 3341 1997 
z
" transform="scale(0.015625)"/>
       <path id="DejaVuSans-64" d="M 2906 2969 
L 2906 4863 
L 3481 4863 
L 3481 0 
L 2906 0 
L 2906 525 
Q 2725 213 2448 61 
Q 2172 -91 1784 -91 
Q 1150 -91 751 415 
Q 353 922 353 1747 
Q 353 2572 751 3078 
Q 1150 3584 1784 3584 
Q 2172 3584 2448 3432 
Q 2725 3281 2906 2969 
z
M 947 1747 
Q 947 1113 1208 752 
Q 1469 391 1925 391 
Q 2381 391 2643 752 
Q 2906 1113 2906 1747 
Q 2906 2381 2643 2742 
Q 2381 3103 1925 3103 
Q 1469 3103 1208 2742 
Q 947 2381 947 1747 
z
" transform="scale(0.015625)"/>
      </defs>
      <use xlink:href="#DejaVuSans-Oblique-65" transform="translate(0 0.015625)"/>
      <use xlink:href="#DejaVuSans-Oblique-3b8" transform="translate(61.523438 -16.390625)scale(0.7)"/>
      <use xlink:href="#DejaVuSans-20" transform="translate(107.084961 0.015625)"/>
      <use xlink:href="#DejaVuSans-5b" transform="translate(138.87207 0.015625)"/>
      <use xlink:href="#DejaVuSans-72" transform="translate(177.885742 0.015625)"/>
      <use xlink:href="#DejaVuSans-61" transform="translate(218.999023 0.015625)"/>
      <use xlink:href="#DejaVuSans-64" transform="translate(280.27832 0.015625)"/>
      <use xlink:href="#DejaVuSans-5d" transform="translate(343.754883 0.015625)"/>
     </g>
    </g>
   </g>
   <g id="line2d_67">
    <path d="M 87.860727 263.34425 
L 90.327784 263.251614 
L 92.794841 262.690939 
L 94.768486 262.156415 
L 101.676246 261.002438 
L 109.570827 260.41589 
L 118.452232 260.201475 
L 125.359991 260.305983 
L 132.761162 260.594102 
L 151.017382 261.089471 
L 158.911964 260.996348 
L 180.622064 260.458591 
L 189.503469 260.533871 
L 204.799221 260.971375 
L 209.239924 261.129343 
L 210.720158 261.353177 
L 212.200392 261.590282 
L 213.680626 262.136372 
L 214.667449 262.332082 
L 216.147683 262.824039 
L 216.641094 263.116092 
L 219.108151 263.873192 
L 219.601562 264.121514 
L 224.535676 265.214508 
L 225.029087 265.214508 
L 225.522499 265.363312 
L 230.950024 265.491028 
L 232.430258 265.221317 
L 232.923669 265.061355 
L 233.910492 263.79035 
L 234.403903 261.058761 
L 234.897315 299.703068 
L 235.884137 294.278304 
L 236.377549 292.690074 
L 237.364371 292.135005 
L 238.351194 291.710737 
L 238.844606 291.710737 
L 239.831428 291.516415 
L 251.17989 290.410541 
L 252.660124 290.308423 
L 262.03494 289.897839 
L 270.916344 289.835413 
L 278.317515 290.014269 
L 280.29116 290.096317 
L 302.494672 290.700591 
L 310.389254 290.529703 
L 335.059822 289.857149 
L 337.526879 289.568703 
L 338.02029 289.436507 
L 338.513702 289.436507 
L 339.007113 289.216026 
L 340.487347 289.015822 
L 341.47417 288.802776 
L 341.967581 288.625967 
L 342.954404 288.442151 
L 343.941227 288.161639 
L 345.421461 287.826518 
L 345.914872 287.632195 
L 346.408284 287.632195 
L 347.888518 287.149028 
L 349.368752 286.923955 
L 354.796277 286.092902 
L 357.756745 286.037892 
L 358.743568 286.182626 
L 359.236979 286.282573 
L 359.73039 286.535383 
L 360.223802 287.064698 
L 360.717213 287.38337 
L 361.210625 288.60915 
L 361.704036 253.814432 
L 362.197447 257.590072 
L 362.690859 259.059344 
L 363.18427 259.588499 
L 363.677681 259.860068 
L 364.171093 259.860068 
L 364.664504 260.070447 
L 367.624972 260.434995 
L 400.683534 262.758374 
L 405.124236 263.075216 
L 426.834336 264.239514 
L 432.755273 264.405513 
L 432.755273 264.405513 
" clip-path="url(#p2f20d94ea7)" style="fill: none; stroke: #008000; stroke-width: 1.5; stroke-linecap: square"/>
   </g>
   <g id="patch_13">
    <path d="M 70.616 301.9975 
L 70.616 251.52 
" style="fill: none; stroke: #000000; stroke-width: 0.8; stroke-linejoin: miter; stroke-linecap: square"/>
   </g>
   <g id="patch_14">
    <path d="M 450 301.9975 
L 450 251.52 
" style="fill: none; stroke: #000000; stroke-width: 0.8; stroke-linejoin: miter; stroke-linecap: square"/>
   </g>
   <g id="patch_15">
    <path d="M 70.616 301.9975 
L 450 301.9975 
" style="fill: none; stroke: #000000; stroke-width: 0.8; stroke-linejoin: miter; stroke-linecap: square"/>
   </g>
   <g id="patch_16">
    <path d="M 70.616 251.52 
L 450 251.52 
" style="fill: none; stroke: #000000; stroke-width: 0.8; stroke-linejoin: miter; stroke-linecap: square"/>
   </g>
   <g id="text_41">
    <!-- Error in swing angle -->
    <g transform="translate(200.537688 245.52)scale(0.12 -0.12)">
     <defs>
      <path id="DejaVuSans-77" d="M 269 3500 
L 844 3500 
L 1563 769 
L 2278 3500 
L 2956 3500 
L 3675 769 
L 4391 3500 
L 4966 3500 
L 4050 0 
L 3372 0 
L 2619 2869 
L 1863 0 
L 1184 0 
L 269 3500 
z
" transform="scale(0.015625)"/>
      <path id="DejaVuSans-67" d="M 2906 1791 
Q 2906 2416 2648 2759 
Q 2391 3103 1925 3103 
Q 1463 3103 1205 2759 
Q 947 2416 947 1791 
Q 947 1169 1205 825 
Q 1463 481 1925 481 
Q 2391 481 2648 825 
Q 2906 1169 2906 1791 
z
M 3481 434 
Q 3481 -459 3084 -895 
Q 2688 -1331 1869 -1331 
Q 1566 -1331 1297 -1286 
Q 1028 -1241 775 -1147 
L 775 -588 
Q 1028 -725 1275 -790 
Q 1522 -856 1778 -856 
Q 2344 -856 2625 -561 
Q 2906 -266 2906 331 
L 2906 616 
Q 2728 306 2450 153 
Q 2172 0 1784 0 
Q 1141 0 747 490 
Q 353 981 353 1791 
Q 353 2603 747 3093 
Q 1141 3584 1784 3584 
Q 2172 3584 2450 3431 
Q 2728 3278 2906 2969 
L 2906 3500 
L 3481 3500 
L 3481 434 
z
" transform="scale(0.015625)"/>
      <path id="DejaVuSans-6c" d="M 603 4863 
L 1178 4863 
L 1178 0 
L 603 0 
L 603 4863 
z
" transform="scale(0.015625)"/>
      <path id="DejaVuSans-65" d="M 3597 1894 
L 3597 1613 
L 953 1613 
Q 991 1019 1311 708 
Q 1631 397 2203 397 
Q 2534 397 2845 478 
Q 3156 559 3463 722 
L 3463 178 
Q 3153 47 2828 -22 
Q 2503 -91 2169 -91 
Q 1331 -91 842 396 
Q 353 884 353 1716 
Q 353 2575 817 3079 
Q 1281 3584 2069 3584 
Q 2775 3584 3186 3129 
Q 3597 2675 3597 1894 
z
M 3022 2063 
Q 3016 2534 2758 2815 
Q 2500 3097 2075 3097 
Q 1594 3097 1305 2825 
Q 1016 2553 972 2059 
L 3022 2063 
z
" transform="scale(0.015625)"/>
     </defs>
     <use xlink:href="#DejaVuSans-45"/>
     <use xlink:href="#DejaVuSans-72" x="63.183594"/>
     <use xlink:href="#DejaVuSans-72" x="102.546875"/>
     <use xlink:href="#DejaVuSans-6f" x="141.410156"/>
     <use xlink:href="#DejaVuSans-72" x="202.591797"/>
     <use xlink:href="#DejaVuSans-20" x="243.705078"/>
     <use xlink:href="#DejaVuSans-69" x="275.492188"/>
     <use xlink:href="#DejaVuSans-6e" x="303.275391"/>
     <use xlink:href="#DejaVuSans-20" x="366.654297"/>
     <use xlink:href="#DejaVuSans-73" x="398.441406"/>
     <use xlink:href="#DejaVuSans-77" x="450.541016"/>
     <use xlink:href="#DejaVuSans-69" x="532.328125"/>
     <use xlink:href="#DejaVuSans-6e" x="560.111328"/>
     <use xlink:href="#DejaVuSans-67" x="623.490234"/>
     <use xlink:href="#DejaVuSans-20" x="686.966797"/>
     <use xlink:href="#DejaVuSans-61" x="718.753906"/>
     <use xlink:href="#DejaVuSans-6e" x="780.033203"/>
     <use xlink:href="#DejaVuSans-67" x="843.412109"/>
     <use xlink:href="#DejaVuSans-6c" x="906.888672"/>
     <use xlink:href="#DejaVuSans-65" x="934.671875"/>
    </g>
   </g>
  </g>
 </g>
 <defs>
  <clipPath id="pf12817df90">
   <rect x="70.616" y="28.32" width="379.384" height="50.4775"/>
  </clipPath>
  <clipPath id="p4d51c366cb">
   <rect x="70.616" y="139.92" width="379.384" height="50.4775"/>
  </clipPath>
  <clipPath id="p2f20d94ea7">
   <rect x="70.616" y="251.52" width="379.384" height="50.4775"/>
  </clipPath>
 </defs>
</svg>
