<?xml version="1.0" encoding="utf-8" standalone="no"?>
<!DOCTYPE svg PUBLIC "-//W3C//DTD SVG 1.1//EN"
  "http://www.w3.org/Graphics/SVG/1.1/DTD/svg11.dtd">
<svg xmlns:xlink="http://www.w3.org/1999/xlink" width="460.8pt" height="345.6pt" viewBox="0 0 460.8 345.6" xmlns="http://www.w3.org/2000/svg" version="1.1">
 <metadata>
  <rdf:RDF xmlns:dc="http://purl.org/dc/elements/1.1/" xmlns:cc="http://creativecommons.org/ns#" xmlns:rdf="http://www.w3.org/1999/02/22-rdf-syntax-ns#">
   <cc:Work>
    <dc:type rdf:resource="http://purl.org/dc/dcmitype/StillImage"/>
    <dc:date>2022-06-05T14:29:24.944481</dc:date>
    <dc:format>image/svg+xml</dc:format>
    <dc:creator>
     <cc:Agent>
      <dc:title>Matplotlib v3.5.1, https://matplotlib.org/</dc:title>
     </cc:Agent>
    </dc:creator>
   </cc:Work>
  </rdf:RDF>
 </metadata>
 <defs>
  <style type="text/css">*{stroke-linejoin: round; stroke-linecap: butt}</style>
 </defs>
 <g id="figure_1">
  <g id="patch_1">
   <path d="M 0 345.6 
L 460.8 345.6 
L 460.8 0 
L 0 0 
z
" style="fill: #ffffff"/>
  </g>
  <g id="axes_1">
   <g id="patch_2">
    <path d="M 58.106 78.7975 
L 450 78.7975 
L 450 28.32 
L 58.106 28.32 
z
" style="fill: #ffffff"/>
   </g>
   <g id="matplotlib.axis_1">
    <g id="xtick_1">
     <g id="line2d_1">
      <path d="M 75.919364 78.7975 
L 75.919364 28.32 
" clip-path="url(#p166a455f4a)" style="fill: none; stroke: #b0b0b0; stroke-width: 0.8; stroke-linecap: square"/>
     </g>
     <g id="line2d_2">
      <defs>
       <path id="mabf144cc3d" d="M 0 0 
L 0 3.5 
" style="stroke: #000000; stroke-width: 0.8"/>
      </defs>
      <g>
       <use xlink:href="#mabf144cc3d" x="75.919364" y="78.7975" style="stroke: #000000; stroke-width: 0.8"/>
      </g>
     </g>
     <g id="text_1">
      <!-- 0 -->
      <g transform="translate(72.738114 93.395937)scale(0.1 -0.1)">
       <defs>
        <path id="DejaVuSans-30" d="M 2034 4250 
Q 1547 4250 1301 3770 
Q 1056 3291 1056 2328 
Q 1056 1369 1301 889 
Q 1547 409 2034 409 
Q 2525 409 2770 889 
Q 3016 1369 3016 2328 
Q 3016 3291 2770 3770 
Q 2525 4250 2034 4250 
z
M 2034 4750 
Q 2819 4750 3233 4129 
Q 3647 3509 3647 2328 
Q 3647 1150 3233 529 
Q 2819 -91 2034 -91 
Q 1250 -91 836 529 
Q 422 1150 422 2328 
Q 422 3509 836 4129 
Q 1250 4750 2034 4750 
z
" transform="scale(0.015625)"/>
       </defs>
       <use xlink:href="#DejaVuSans-30"/>
      </g>
     </g>
    </g>
    <g id="xtick_2">
     <g id="line2d_3">
      <path d="M 134.323835 78.7975 
L 134.323835 28.32 
" clip-path="url(#p166a455f4a)" style="fill: none; stroke: #b0b0b0; stroke-width: 0.8; stroke-linecap: square"/>
     </g>
     <g id="line2d_4">
      <g>
       <use xlink:href="#mabf144cc3d" x="134.323835" y="78.7975" style="stroke: #000000; stroke-width: 0.8"/>
      </g>
     </g>
     <g id="text_2">
      <!-- 2 -->
      <g transform="translate(131.142585 93.395937)scale(0.1 -0.1)">
       <defs>
        <path id="DejaVuSans-32" d="M 1228 531 
L 3431 531 
L 3431 0 
L 469 0 
L 469 531 
Q 828 903 1448 1529 
Q 2069 2156 2228 2338 
Q 2531 2678 2651 2914 
Q 2772 3150 2772 3378 
Q 2772 3750 2511 3984 
Q 2250 4219 1831 4219 
Q 1534 4219 1204 4116 
Q 875 4013 500 3803 
L 500 4441 
Q 881 4594 1212 4672 
Q 1544 4750 1819 4750 
Q 2544 4750 2975 4387 
Q 3406 4025 3406 3419 
Q 3406 3131 3298 2873 
Q 3191 2616 2906 2266 
Q 2828 2175 2409 1742 
Q 1991 1309 1228 531 
z
" transform="scale(0.015625)"/>
       </defs>
       <use xlink:href="#DejaVuSans-32"/>
      </g>
     </g>
    </g>
    <g id="xtick_3">
     <g id="line2d_5">
      <path d="M 192.728306 78.7975 
L 192.728306 28.32 
" clip-path="url(#p166a455f4a)" style="fill: none; stroke: #b0b0b0; stroke-width: 0.8; stroke-linecap: square"/>
     </g>
     <g id="line2d_6">
      <g>
       <use xlink:href="#mabf144cc3d" x="192.728306" y="78.7975" style="stroke: #000000; stroke-width: 0.8"/>
      </g>
     </g>
     <g id="text_3">
      <!-- 4 -->
      <g transform="translate(189.547056 93.395937)scale(0.1 -0.1)">
       <defs>
        <path id="DejaVuSans-34" d="M 2419 4116 
L 825 1625 
L 2419 1625 
L 2419 4116 
z
M 2253 4666 
L 3047 4666 
L 3047 1625 
L 3713 1625 
L 3713 1100 
L 3047 1100 
L 3047 0 
L 2419 0 
L 2419 1100 
L 313 1100 
L 313 1709 
L 2253 4666 
z
" transform="scale(0.015625)"/>
       </defs>
       <use xlink:href="#DejaVuSans-34"/>
      </g>
     </g>
    </g>
    <g id="xtick_4">
     <g id="line2d_7">
      <path d="M 251.132776 78.7975 
L 251.132776 28.32 
" clip-path="url(#p166a455f4a)" style="fill: none; stroke: #b0b0b0; stroke-width: 0.8; stroke-linecap: square"/>
     </g>
     <g id="line2d_8">
      <g>
       <use xlink:href="#mabf144cc3d" x="251.132776" y="78.7975" style="stroke: #000000; stroke-width: 0.8"/>
      </g>
     </g>
     <g id="text_4">
      <!-- 6 -->
      <g transform="translate(247.951526 93.395937)scale(0.1 -0.1)">
       <defs>
        <path id="DejaVuSans-36" d="M 2113 2584 
Q 1688 2584 1439 2293 
Q 1191 2003 1191 1497 
Q 1191 994 1439 701 
Q 1688 409 2113 409 
Q 2538 409 2786 701 
Q 3034 994 3034 1497 
Q 3034 2003 2786 2293 
Q 2538 2584 2113 2584 
z
M 3366 4563 
L 3366 3988 
Q 3128 4100 2886 4159 
Q 2644 4219 2406 4219 
Q 1781 4219 1451 3797 
Q 1122 3375 1075 2522 
Q 1259 2794 1537 2939 
Q 1816 3084 2150 3084 
Q 2853 3084 3261 2657 
Q 3669 2231 3669 1497 
Q 3669 778 3244 343 
Q 2819 -91 2113 -91 
Q 1303 -91 875 529 
Q 447 1150 447 2328 
Q 447 3434 972 4092 
Q 1497 4750 2381 4750 
Q 2619 4750 2861 4703 
Q 3103 4656 3366 4563 
z
" transform="scale(0.015625)"/>
       </defs>
       <use xlink:href="#DejaVuSans-36"/>
      </g>
     </g>
    </g>
    <g id="xtick_5">
     <g id="line2d_9">
      <path d="M 309.537247 78.7975 
L 309.537247 28.32 
" clip-path="url(#p166a455f4a)" style="fill: none; stroke: #b0b0b0; stroke-width: 0.8; stroke-linecap: square"/>
     </g>
     <g id="line2d_10">
      <g>
       <use xlink:href="#mabf144cc3d" x="309.537247" y="78.7975" style="stroke: #000000; stroke-width: 0.8"/>
      </g>
     </g>
     <g id="text_5">
      <!-- 8 -->
      <g transform="translate(306.355997 93.395937)scale(0.1 -0.1)">
       <defs>
        <path id="DejaVuSans-38" d="M 2034 2216 
Q 1584 2216 1326 1975 
Q 1069 1734 1069 1313 
Q 1069 891 1326 650 
Q 1584 409 2034 409 
Q 2484 409 2743 651 
Q 3003 894 3003 1313 
Q 3003 1734 2745 1975 
Q 2488 2216 2034 2216 
z
M 1403 2484 
Q 997 2584 770 2862 
Q 544 3141 544 3541 
Q 544 4100 942 4425 
Q 1341 4750 2034 4750 
Q 2731 4750 3128 4425 
Q 3525 4100 3525 3541 
Q 3525 3141 3298 2862 
Q 3072 2584 2669 2484 
Q 3125 2378 3379 2068 
Q 3634 1759 3634 1313 
Q 3634 634 3220 271 
Q 2806 -91 2034 -91 
Q 1263 -91 848 271 
Q 434 634 434 1313 
Q 434 1759 690 2068 
Q 947 2378 1403 2484 
z
M 1172 3481 
Q 1172 3119 1398 2916 
Q 1625 2713 2034 2713 
Q 2441 2713 2670 2916 
Q 2900 3119 2900 3481 
Q 2900 3844 2670 4047 
Q 2441 4250 2034 4250 
Q 1625 4250 1398 4047 
Q 1172 3844 1172 3481 
z
" transform="scale(0.015625)"/>
       </defs>
       <use xlink:href="#DejaVuSans-38"/>
      </g>
     </g>
    </g>
    <g id="xtick_6">
     <g id="line2d_11">
      <path d="M 367.941718 78.7975 
L 367.941718 28.32 
" clip-path="url(#p166a455f4a)" style="fill: none; stroke: #b0b0b0; stroke-width: 0.8; stroke-linecap: square"/>
     </g>
     <g id="line2d_12">
      <g>
       <use xlink:href="#mabf144cc3d" x="367.941718" y="78.7975" style="stroke: #000000; stroke-width: 0.8"/>
      </g>
     </g>
     <g id="text_6">
      <!-- 10 -->
      <g transform="translate(361.579218 93.395937)scale(0.1 -0.1)">
       <defs>
        <path id="DejaVuSans-31" d="M 794 531 
L 1825 531 
L 1825 4091 
L 703 3866 
L 703 4441 
L 1819 4666 
L 2450 4666 
L 2450 531 
L 3481 531 
L 3481 0 
L 794 0 
L 794 531 
z
" transform="scale(0.015625)"/>
       </defs>
       <use xlink:href="#DejaVuSans-31"/>
       <use xlink:href="#DejaVuSans-30" x="63.623047"/>
      </g>
     </g>
    </g>
    <g id="xtick_7">
     <g id="line2d_13">
      <path d="M 426.346189 78.7975 
L 426.346189 28.32 
" clip-path="url(#p166a455f4a)" style="fill: none; stroke: #b0b0b0; stroke-width: 0.8; stroke-linecap: square"/>
     </g>
     <g id="line2d_14">
      <g>
       <use xlink:href="#mabf144cc3d" x="426.346189" y="78.7975" style="stroke: #000000; stroke-width: 0.8"/>
      </g>
     </g>
     <g id="text_7">
      <!-- 12 -->
      <g transform="translate(419.983689 93.395937)scale(0.1 -0.1)">
       <use xlink:href="#DejaVuSans-31"/>
       <use xlink:href="#DejaVuSans-32" x="63.623047"/>
      </g>
     </g>
    </g>
    <g id="text_8">
     <!-- $t$ [s] -->
     <g transform="translate(243.953 107.074062)scale(0.1 -0.1)">
      <defs>
       <path id="DejaVuSans-Oblique-74" d="M 2706 3500 
L 2619 3053 
L 1472 3053 
L 1100 1153 
Q 1081 1047 1072 975 
Q 1063 903 1063 863 
Q 1063 663 1183 572 
Q 1303 481 1569 481 
L 2150 481 
L 2053 0 
L 1503 0 
Q 991 0 739 200 
Q 488 400 488 806 
Q 488 878 497 964 
Q 506 1050 525 1153 
L 897 3053 
L 409 3053 
L 500 3500 
L 978 3500 
L 1172 4494 
L 1747 4494 
L 1556 3500 
L 2706 3500 
z
" transform="scale(0.015625)"/>
       <path id="DejaVuSans-20" transform="scale(0.015625)"/>
       <path id="DejaVuSans-5b" d="M 550 4863 
L 1875 4863 
L 1875 4416 
L 1125 4416 
L 1125 -397 
L 1875 -397 
L 1875 -844 
L 550 -844 
L 550 4863 
z
" transform="scale(0.015625)"/>
       <path id="DejaVuSans-73" d="M 2834 3397 
L 2834 2853 
Q 2591 2978 2328 3040 
Q 2066 3103 1784 3103 
Q 1356 3103 1142 2972 
Q 928 2841 928 2578 
Q 928 2378 1081 2264 
Q 1234 2150 1697 2047 
L 1894 2003 
Q 2506 1872 2764 1633 
Q 3022 1394 3022 966 
Q 3022 478 2636 193 
Q 2250 -91 1575 -91 
Q 1294 -91 989 -36 
Q 684 19 347 128 
L 347 722 
Q 666 556 975 473 
Q 1284 391 1588 391 
Q 1994 391 2212 530 
Q 2431 669 2431 922 
Q 2431 1156 2273 1281 
Q 2116 1406 1581 1522 
L 1381 1569 
Q 847 1681 609 1914 
Q 372 2147 372 2553 
Q 372 3047 722 3315 
Q 1072 3584 1716 3584 
Q 2034 3584 2315 3537 
Q 2597 3491 2834 3397 
z
" transform="scale(0.015625)"/>
       <path id="DejaVuSans-5d" d="M 1947 4863 
L 1947 -844 
L 622 -844 
L 622 -397 
L 1369 -397 
L 1369 4416 
L 622 4416 
L 622 4863 
L 1947 4863 
z
" transform="scale(0.015625)"/>
      </defs>
      <use xlink:href="#DejaVuSans-Oblique-74" transform="translate(0 0.015625)"/>
      <use xlink:href="#DejaVuSans-20" transform="translate(39.208984 0.015625)"/>
      <use xlink:href="#DejaVuSans-5b" transform="translate(70.996094 0.015625)"/>
      <use xlink:href="#DejaVuSans-73" transform="translate(110.009766 0.015625)"/>
      <use xlink:href="#DejaVuSans-5d" transform="translate(162.109375 0.015625)"/>
     </g>
    </g>
   </g>
   <g id="matplotlib.axis_2">
    <g id="ytick_1">
     <g id="line2d_15">
      <path d="M 58.106 76.42654 
L 450 76.42654 
" clip-path="url(#p166a455f4a)" style="fill: none; stroke: #b0b0b0; stroke-width: 0.8; stroke-linecap: square"/>
     </g>
     <g id="line2d_16">
      <defs>
       <path id="m88a3aa587b" d="M 0 0 
L -3.5 0 
" style="stroke: #000000; stroke-width: 0.8"/>
      </defs>
      <g>
       <use xlink:href="#m88a3aa587b" x="58.106" y="76.42654" style="stroke: #000000; stroke-width: 0.8"/>
      </g>
     </g>
     <g id="text_9">
      <!-- 0 -->
      <g transform="translate(44.7435 80.225759)scale(0.1 -0.1)">
       <use xlink:href="#DejaVuSans-30"/>
      </g>
     </g>
    </g>
    <g id="ytick_2">
     <g id="line2d_17">
      <path d="M 58.106 30.614427 
L 450 30.614427 
" clip-path="url(#p166a455f4a)" style="fill: none; stroke: #b0b0b0; stroke-width: 0.8; stroke-linecap: square"/>
     </g>
     <g id="line2d_18">
      <g>
       <use xlink:href="#m88a3aa587b" x="58.106" y="30.614427" style="stroke: #000000; stroke-width: 0.8"/>
      </g>
     </g>
     <g id="text_10">
      <!-- 10 -->
      <g transform="translate(38.381 34.413646)scale(0.1 -0.1)">
       <use xlink:href="#DejaVuSans-31"/>
       <use xlink:href="#DejaVuSans-30" x="63.623047"/>
      </g>
     </g>
    </g>
    <g id="text_11">
     <!-- $e_x$ [m] -->
     <g transform="translate(32.301313 69.20875)rotate(-90)scale(0.1 -0.1)">
      <defs>
       <path id="DejaVuSans-Oblique-65" d="M 3078 2063 
Q 3088 2113 3092 2166 
Q 3097 2219 3097 2272 
Q 3097 2653 2873 2875 
Q 2650 3097 2266 3097 
Q 1838 3097 1509 2826 
Q 1181 2556 1013 2059 
L 3078 2063 
z
M 3578 1613 
L 903 1613 
Q 884 1494 878 1425 
Q 872 1356 872 1306 
Q 872 872 1139 634 
Q 1406 397 1894 397 
Q 2269 397 2603 481 
Q 2938 566 3225 728 
L 3116 159 
Q 2806 34 2476 -28 
Q 2147 -91 1806 -91 
Q 1078 -91 686 257 
Q 294 606 294 1247 
Q 294 1794 489 2264 
Q 684 2734 1063 3103 
Q 1306 3334 1642 3459 
Q 1978 3584 2356 3584 
Q 2950 3584 3301 3228 
Q 3653 2872 3653 2272 
Q 3653 2128 3634 1964 
Q 3616 1800 3578 1613 
z
" transform="scale(0.015625)"/>
       <path id="DejaVuSans-Oblique-78" d="M 3841 3500 
L 2234 1784 
L 3219 0 
L 2559 0 
L 1819 1388 
L 531 0 
L -166 0 
L 1556 1844 
L 641 3500 
L 1300 3500 
L 1972 2234 
L 3144 3500 
L 3841 3500 
z
" transform="scale(0.015625)"/>
       <path id="DejaVuSans-6d" d="M 3328 2828 
Q 3544 3216 3844 3400 
Q 4144 3584 4550 3584 
Q 5097 3584 5394 3201 
Q 5691 2819 5691 2113 
L 5691 0 
L 5113 0 
L 5113 2094 
Q 5113 2597 4934 2840 
Q 4756 3084 4391 3084 
Q 3944 3084 3684 2787 
Q 3425 2491 3425 1978 
L 3425 0 
L 2847 0 
L 2847 2094 
Q 2847 2600 2669 2842 
Q 2491 3084 2119 3084 
Q 1678 3084 1418 2786 
Q 1159 2488 1159 1978 
L 1159 0 
L 581 0 
L 581 3500 
L 1159 3500 
L 1159 2956 
Q 1356 3278 1631 3431 
Q 1906 3584 2284 3584 
Q 2666 3584 2933 3390 
Q 3200 3197 3328 2828 
z
" transform="scale(0.015625)"/>
      </defs>
      <use xlink:href="#DejaVuSans-Oblique-65" transform="translate(0 0.015625)"/>
      <use xlink:href="#DejaVuSans-Oblique-78" transform="translate(61.523438 -16.390625)scale(0.7)"/>
      <use xlink:href="#DejaVuSans-20" transform="translate(105.683594 0.015625)"/>
      <use xlink:href="#DejaVuSans-5b" transform="translate(137.470703 0.015625)"/>
      <use xlink:href="#DejaVuSans-6d" transform="translate(176.484375 0.015625)"/>
      <use xlink:href="#DejaVuSans-5d" transform="translate(273.896484 0.015625)"/>
     </g>
    </g>
   </g>
   <g id="line2d_19">
    <path d="M 75.919364 30.614432 
L 82.349126 30.723403 
L 95.793174 31.253549 
L 109.821746 32.97689 
L 110.698531 33.142391 
L 113.328889 33.556068 
L 114.497936 33.783941 
L 116.836032 34.187723 
L 118.005079 34.426016 
L 120.343175 34.851144 
L 121.512222 35.111304 
L 123.850317 35.590092 
L 124.727103 35.800669 
L 127.065199 36.339596 
L 128.526508 36.696625 
L 129.403294 36.919919 
L 132.033651 37.52422 
L 134.95627 38.305429 
L 136.125318 38.643142 
L 137.002104 38.82847 
L 137.878889 39.107434 
L 138.755675 39.293964 
L 139.632461 39.480912 
L 139.924723 39.668189 
L 140.801508 39.824367 
L 141.09377 39.949254 
L 141.386032 39.949254 
L 141.678294 40.13626 
L 142.55508 40.29159 
L 143.431866 40.569438 
L 145.769961 41.204693 
L 146.062223 41.204693 
L 146.939009 41.469737 
L 149.277104 42.071281 
L 149.569366 42.071281 
L 150.446152 42.295259 
L 153.076509 42.953411 
L 156.583652 43.702976 
L 157.460438 43.915721 
L 160.383057 44.600179 
L 163.305676 45.216667 
L 164.182462 45.417874 
L 166.812819 45.962029 
L 167.689605 46.157427 
L 169.735438 46.592879 
L 172.365795 47.140204 
L 175.288414 47.712903 
L 176.1652 47.903557 
L 178.795557 48.411025 
L 179.672343 48.589485 
L 182.3027 49.082121 
L 183.179486 49.262232 
L 186.978891 49.935803 
L 187.855677 50.106818 
L 189.90151 50.480506 
L 191.070558 50.726036 
L 193.993177 51.244685 
L 194.869962 51.412414 
L 196.915796 51.775901 
L 197.50032 51.886244 
L 198.377105 52.064817 
L 200.715201 52.507906 
L 201.591987 52.679719 
L 204.222344 53.146414 
L 205.099129 53.320686 
L 207.437225 53.764566 
L 208.314011 53.939773 
L 210.944368 54.407383 
L 211.821153 54.576786 
L 215.328296 55.181576 
L 218.250916 55.720721 
L 220.296749 56.084719 
L 221.173535 56.250135 
L 224.096154 56.747754 
L 224.97294 56.907733 
L 227.895559 57.378606 
L 228.772344 57.539883 
L 230.818178 57.889321 
L 231.402702 57.991372 
L 232.279487 58.151946 
L 235.78663 58.737508 
L 238.70925 59.266874 
L 239.001511 59.266874 
L 239.586035 59.408459 
L 242.508654 59.854774 
L 243.093178 59.988445 
L 246.308059 60.522911 
L 249.230678 61.029467 
L 252.153298 61.481477 
L 253.322345 61.676537 
L 255.368179 62.011837 
L 256.244964 62.183802 
L 259.752107 62.727887 
L 263.551512 63.335022 
L 267.643179 63.944506 
L 268.519965 64.100364 
L 271.150322 64.481464 
L 272.027108 64.649759 
L 276.411036 65.276392 
L 277.287822 65.425948 
L 278.45687 65.596192 
L 281.379489 66.021004 
L 282.548537 66.19322 
L 285.763418 66.638372 
L 289.270561 67.090669 
L 289.855084 67.208292 
L 296.284847 68.045108 
L 298.038418 68.315419 
L 304.760442 69.166574 
L 306.514013 69.426227 
L 307.390799 69.522192 
L 311.482466 70.064424 
L 312.943776 70.249909 
L 318.789014 71.00491 
L 323.465204 71.600431 
L 327.556871 72.132529 
L 333.109848 72.81474 
L 333.986633 72.950821 
L 340.708657 73.737425 
L 341.293181 73.830164 
L 345.384848 74.302688 
L 346.846158 74.473179 
L 364.381872 75.872315 
L 366.719968 75.976825 
L 378.410444 76.263379 
L 390.977707 76.156691 
L 416.404493 75.782154 
L 422.249731 75.940515 
L 432.186636 76.503068 
L 432.186636 76.503068 
" clip-path="url(#p166a455f4a)" style="fill: none; stroke: #ff0000; stroke-width: 1.5; stroke-linecap: square"/>
   </g>
   <g id="patch_3">
    <path d="M 58.106 78.7975 
L 58.106 28.32 
" style="fill: none; stroke: #000000; stroke-width: 0.8; stroke-linejoin: miter; stroke-linecap: square"/>
   </g>
   <g id="patch_4">
    <path d="M 450 78.7975 
L 450 28.32 
" style="fill: none; stroke: #000000; stroke-width: 0.8; stroke-linejoin: miter; stroke-linecap: square"/>
   </g>
   <g id="patch_5">
    <path d="M 58.106 78.7975 
L 450 78.7975 
" style="fill: none; stroke: #000000; stroke-width: 0.8; stroke-linejoin: miter; stroke-linecap: square"/>
   </g>
   <g id="patch_6">
    <path d="M 58.106 28.32 
L 450 28.32 
" style="fill: none; stroke: #000000; stroke-width: 0.8; stroke-linejoin: miter; stroke-linecap: square"/>
   </g>
   <g id="text_12">
    <!-- Error in $x$-position -->
    <g transform="translate(200.413 22.32)scale(0.12 -0.12)">
     <defs>
      <path id="DejaVuSans-45" d="M 628 4666 
L 3578 4666 
L 3578 4134 
L 1259 4134 
L 1259 2753 
L 3481 2753 
L 3481 2222 
L 1259 2222 
L 1259 531 
L 3634 531 
L 3634 0 
L 628 0 
L 628 4666 
z
" transform="scale(0.015625)"/>
      <path id="DejaVuSans-72" d="M 2631 2963 
Q 2534 3019 2420 3045 
Q 2306 3072 2169 3072 
Q 1681 3072 1420 2755 
Q 1159 2438 1159 1844 
L 1159 0 
L 581 0 
L 581 3500 
L 1159 3500 
L 1159 2956 
Q 1341 3275 1631 3429 
Q 1922 3584 2338 3584 
Q 2397 3584 2469 3576 
Q 2541 3569 2628 3553 
L 2631 2963 
z
" transform="scale(0.015625)"/>
      <path id="DejaVuSans-6f" d="M 1959 3097 
Q 1497 3097 1228 2736 
Q 959 2375 959 1747 
Q 959 1119 1226 758 
Q 1494 397 1959 397 
Q 2419 397 2687 759 
Q 2956 1122 2956 1747 
Q 2956 2369 2687 2733 
Q 2419 3097 1959 3097 
z
M 1959 3584 
Q 2709 3584 3137 3096 
Q 3566 2609 3566 1747 
Q 3566 888 3137 398 
Q 2709 -91 1959 -91 
Q 1206 -91 779 398 
Q 353 888 353 1747 
Q 353 2609 779 3096 
Q 1206 3584 1959 3584 
z
" transform="scale(0.015625)"/>
      <path id="DejaVuSans-69" d="M 603 3500 
L 1178 3500 
L 1178 0 
L 603 0 
L 603 3500 
z
M 603 4863 
L 1178 4863 
L 1178 4134 
L 603 4134 
L 603 4863 
z
" transform="scale(0.015625)"/>
      <path id="DejaVuSans-6e" d="M 3513 2113 
L 3513 0 
L 2938 0 
L 2938 2094 
Q 2938 2591 2744 2837 
Q 2550 3084 2163 3084 
Q 1697 3084 1428 2787 
Q 1159 2491 1159 1978 
L 1159 0 
L 581 0 
L 581 3500 
L 1159 3500 
L 1159 2956 
Q 1366 3272 1645 3428 
Q 1925 3584 2291 3584 
Q 2894 3584 3203 3211 
Q 3513 2838 3513 2113 
z
" transform="scale(0.015625)"/>
      <path id="DejaVuSans-2d" d="M 313 2009 
L 1997 2009 
L 1997 1497 
L 313 1497 
L 313 2009 
z
" transform="scale(0.015625)"/>
      <path id="DejaVuSans-70" d="M 1159 525 
L 1159 -1331 
L 581 -1331 
L 581 3500 
L 1159 3500 
L 1159 2969 
Q 1341 3281 1617 3432 
Q 1894 3584 2278 3584 
Q 2916 3584 3314 3078 
Q 3713 2572 3713 1747 
Q 3713 922 3314 415 
Q 2916 -91 2278 -91 
Q 1894 -91 1617 61 
Q 1341 213 1159 525 
z
M 3116 1747 
Q 3116 2381 2855 2742 
Q 2594 3103 2138 3103 
Q 1681 3103 1420 2742 
Q 1159 2381 1159 1747 
Q 1159 1113 1420 752 
Q 1681 391 2138 391 
Q 2594 391 2855 752 
Q 3116 1113 3116 1747 
z
" transform="scale(0.015625)"/>
      <path id="DejaVuSans-74" d="M 1172 4494 
L 1172 3500 
L 2356 3500 
L 2356 3053 
L 1172 3053 
L 1172 1153 
Q 1172 725 1289 603 
Q 1406 481 1766 481 
L 2356 481 
L 2356 0 
L 1766 0 
Q 1100 0 847 248 
Q 594 497 594 1153 
L 594 3053 
L 172 3053 
L 172 3500 
L 594 3500 
L 594 4494 
L 1172 4494 
z
" transform="scale(0.015625)"/>
     </defs>
     <use xlink:href="#DejaVuSans-45" transform="translate(0 0.015625)"/>
     <use xlink:href="#DejaVuSans-72" transform="translate(63.183594 0.015625)"/>
     <use xlink:href="#DejaVuSans-72" transform="translate(104.296875 0.015625)"/>
     <use xlink:href="#DejaVuSans-6f" transform="translate(145.410156 0.015625)"/>
     <use xlink:href="#DejaVuSans-72" transform="translate(206.591797 0.015625)"/>
     <use xlink:href="#DejaVuSans-20" transform="translate(247.705078 0.015625)"/>
     <use xlink:href="#DejaVuSans-69" transform="translate(279.492188 0.015625)"/>
     <use xlink:href="#DejaVuSans-6e" transform="translate(307.275391 0.015625)"/>
     <use xlink:href="#DejaVuSans-20" transform="translate(370.654297 0.015625)"/>
     <use xlink:href="#DejaVuSans-Oblique-78" transform="translate(402.441406 0.015625)"/>
     <use xlink:href="#DejaVuSans-2d" transform="translate(461.621094 0.015625)"/>
     <use xlink:href="#DejaVuSans-70" transform="translate(497.705078 0.015625)"/>
     <use xlink:href="#DejaVuSans-6f" transform="translate(561.181641 0.015625)"/>
     <use xlink:href="#DejaVuSans-73" transform="translate(622.363281 0.015625)"/>
     <use xlink:href="#DejaVuSans-69" transform="translate(674.462891 0.015625)"/>
     <use xlink:href="#DejaVuSans-74" transform="translate(702.246094 0.015625)"/>
     <use xlink:href="#DejaVuSans-69" transform="translate(741.455078 0.015625)"/>
     <use xlink:href="#DejaVuSans-6f" transform="translate(769.238281 0.015625)"/>
     <use xlink:href="#DejaVuSans-6e" transform="translate(830.419922 0.015625)"/>
    </g>
   </g>
  </g>
  <g id="axes_2">
   <g id="patch_7">
    <path d="M 58.106 190.3975 
L 450 190.3975 
L 450 139.92 
L 58.106 139.92 
z
" style="fill: #ffffff"/>
   </g>
   <g id="matplotlib.axis_3">
    <g id="xtick_8">
     <g id="line2d_20">
      <path d="M 75.919364 190.3975 
L 75.919364 139.92 
" clip-path="url(#p098142cf4c)" style="fill: none; stroke: #b0b0b0; stroke-width: 0.8; stroke-linecap: square"/>
     </g>
     <g id="line2d_21">
      <g>
       <use xlink:href="#mabf144cc3d" x="75.919364" y="190.3975" style="stroke: #000000; stroke-width: 0.8"/>
      </g>
     </g>
     <g id="text_13">
      <!-- 0 -->
      <g transform="translate(72.738114 204.995937)scale(0.1 -0.1)">
       <use xlink:href="#DejaVuSans-30"/>
      </g>
     </g>
    </g>
    <g id="xtick_9">
     <g id="line2d_22">
      <path d="M 134.323835 190.3975 
L 134.323835 139.92 
" clip-path="url(#p098142cf4c)" style="fill: none; stroke: #b0b0b0; stroke-width: 0.8; stroke-linecap: square"/>
     </g>
     <g id="line2d_23">
      <g>
       <use xlink:href="#mabf144cc3d" x="134.323835" y="190.3975" style="stroke: #000000; stroke-width: 0.8"/>
      </g>
     </g>
     <g id="text_14">
      <!-- 2 -->
      <g transform="translate(131.142585 204.995937)scale(0.1 -0.1)">
       <use xlink:href="#DejaVuSans-32"/>
      </g>
     </g>
    </g>
    <g id="xtick_10">
     <g id="line2d_24">
      <path d="M 192.728306 190.3975 
L 192.728306 139.92 
" clip-path="url(#p098142cf4c)" style="fill: none; stroke: #b0b0b0; stroke-width: 0.8; stroke-linecap: square"/>
     </g>
     <g id="line2d_25">
      <g>
       <use xlink:href="#mabf144cc3d" x="192.728306" y="190.3975" style="stroke: #000000; stroke-width: 0.8"/>
      </g>
     </g>
     <g id="text_15">
      <!-- 4 -->
      <g transform="translate(189.547056 204.995937)scale(0.1 -0.1)">
       <use xlink:href="#DejaVuSans-34"/>
      </g>
     </g>
    </g>
    <g id="xtick_11">
     <g id="line2d_26">
      <path d="M 251.132776 190.3975 
L 251.132776 139.92 
" clip-path="url(#p098142cf4c)" style="fill: none; stroke: #b0b0b0; stroke-width: 0.8; stroke-linecap: square"/>
     </g>
     <g id="line2d_27">
      <g>
       <use xlink:href="#mabf144cc3d" x="251.132776" y="190.3975" style="stroke: #000000; stroke-width: 0.8"/>
      </g>
     </g>
     <g id="text_16">
      <!-- 6 -->
      <g transform="translate(247.951526 204.995937)scale(0.1 -0.1)">
       <use xlink:href="#DejaVuSans-36"/>
      </g>
     </g>
    </g>
    <g id="xtick_12">
     <g id="line2d_28">
      <path d="M 309.537247 190.3975 
L 309.537247 139.92 
" clip-path="url(#p098142cf4c)" style="fill: none; stroke: #b0b0b0; stroke-width: 0.8; stroke-linecap: square"/>
     </g>
     <g id="line2d_29">
      <g>
       <use xlink:href="#mabf144cc3d" x="309.537247" y="190.3975" style="stroke: #000000; stroke-width: 0.8"/>
      </g>
     </g>
     <g id="text_17">
      <!-- 8 -->
      <g transform="translate(306.355997 204.995937)scale(0.1 -0.1)">
       <use xlink:href="#DejaVuSans-38"/>
      </g>
     </g>
    </g>
    <g id="xtick_13">
     <g id="line2d_30">
      <path d="M 367.941718 190.3975 
L 367.941718 139.92 
" clip-path="url(#p098142cf4c)" style="fill: none; stroke: #b0b0b0; stroke-width: 0.8; stroke-linecap: square"/>
     </g>
     <g id="line2d_31">
      <g>
       <use xlink:href="#mabf144cc3d" x="367.941718" y="190.3975" style="stroke: #000000; stroke-width: 0.8"/>
      </g>
     </g>
     <g id="text_18">
      <!-- 10 -->
      <g transform="translate(361.579218 204.995937)scale(0.1 -0.1)">
       <use xlink:href="#DejaVuSans-31"/>
       <use xlink:href="#DejaVuSans-30" x="63.623047"/>
      </g>
     </g>
    </g>
    <g id="xtick_14">
     <g id="line2d_32">
      <path d="M 426.346189 190.3975 
L 426.346189 139.92 
" clip-path="url(#p098142cf4c)" style="fill: none; stroke: #b0b0b0; stroke-width: 0.8; stroke-linecap: square"/>
     </g>
     <g id="line2d_33">
      <g>
       <use xlink:href="#mabf144cc3d" x="426.346189" y="190.3975" style="stroke: #000000; stroke-width: 0.8"/>
      </g>
     </g>
     <g id="text_19">
      <!-- 12 -->
      <g transform="translate(419.983689 204.995937)scale(0.1 -0.1)">
       <use xlink:href="#DejaVuSans-31"/>
       <use xlink:href="#DejaVuSans-32" x="63.623047"/>
      </g>
     </g>
    </g>
    <g id="text_20">
     <!-- $t$ [s] -->
     <g transform="translate(243.953 218.674062)scale(0.1 -0.1)">
      <use xlink:href="#DejaVuSans-Oblique-74" transform="translate(0 0.015625)"/>
      <use xlink:href="#DejaVuSans-20" transform="translate(39.208984 0.015625)"/>
      <use xlink:href="#DejaVuSans-5b" transform="translate(70.996094 0.015625)"/>
      <use xlink:href="#DejaVuSans-73" transform="translate(110.009766 0.015625)"/>
      <use xlink:href="#DejaVuSans-5d" transform="translate(162.109375 0.015625)"/>
     </g>
    </g>
   </g>
   <g id="matplotlib.axis_4">
    <g id="ytick_3">
     <g id="line2d_34">
      <path d="M 58.106 179.765074 
L 450 179.765074 
" clip-path="url(#p098142cf4c)" style="fill: none; stroke: #b0b0b0; stroke-width: 0.8; stroke-linecap: square"/>
     </g>
     <g id="line2d_35">
      <g>
       <use xlink:href="#m88a3aa587b" x="58.106" y="179.765074" style="stroke: #000000; stroke-width: 0.8"/>
      </g>
     </g>
     <g id="text_21">
      <!-- −0.1 -->
      <g transform="translate(26.823188 183.564293)scale(0.1 -0.1)">
       <defs>
        <path id="DejaVuSans-2212" d="M 678 2272 
L 4684 2272 
L 4684 1741 
L 678 1741 
L 678 2272 
z
" transform="scale(0.015625)"/>
        <path id="DejaVuSans-2e" d="M 684 794 
L 1344 794 
L 1344 0 
L 684 0 
L 684 794 
z
" transform="scale(0.015625)"/>
       </defs>
       <use xlink:href="#DejaVuSans-2212"/>
       <use xlink:href="#DejaVuSans-30" x="83.789062"/>
       <use xlink:href="#DejaVuSans-2e" x="147.412109"/>
       <use xlink:href="#DejaVuSans-31" x="179.199219"/>
      </g>
     </g>
    </g>
    <g id="ytick_4">
     <g id="line2d_36">
      <path d="M 58.106 165.153601 
L 450 165.153601 
" clip-path="url(#p098142cf4c)" style="fill: none; stroke: #b0b0b0; stroke-width: 0.8; stroke-linecap: square"/>
     </g>
     <g id="line2d_37">
      <g>
       <use xlink:href="#m88a3aa587b" x="58.106" y="165.153601" style="stroke: #000000; stroke-width: 0.8"/>
      </g>
     </g>
     <g id="text_22">
      <!-- 0.0 -->
      <g transform="translate(35.202875 168.952819)scale(0.1 -0.1)">
       <use xlink:href="#DejaVuSans-30"/>
       <use xlink:href="#DejaVuSans-2e" x="63.623047"/>
       <use xlink:href="#DejaVuSans-30" x="95.410156"/>
      </g>
     </g>
    </g>
    <g id="ytick_5">
     <g id="line2d_38">
      <path d="M 58.106 150.542128 
L 450 150.542128 
" clip-path="url(#p098142cf4c)" style="fill: none; stroke: #b0b0b0; stroke-width: 0.8; stroke-linecap: square"/>
     </g>
     <g id="line2d_39">
      <g>
       <use xlink:href="#m88a3aa587b" x="58.106" y="150.542128" style="stroke: #000000; stroke-width: 0.8"/>
      </g>
     </g>
     <g id="text_23">
      <!-- 0.1 -->
      <g transform="translate(35.202875 154.341346)scale(0.1 -0.1)">
       <use xlink:href="#DejaVuSans-30"/>
       <use xlink:href="#DejaVuSans-2e" x="63.623047"/>
       <use xlink:href="#DejaVuSans-31" x="95.410156"/>
      </g>
     </g>
    </g>
    <g id="text_24">
     <!-- $e_z$ [m] -->
     <g transform="translate(20.7435 180.60875)rotate(-90)scale(0.1 -0.1)">
      <defs>
       <path id="DejaVuSans-Oblique-7a" d="M 744 3500 
L 3475 3500 
L 3372 2975 
L 738 459 
L 2913 459 
L 2822 0 
L -19 0 
L 84 525 
L 2719 3041 
L 653 3041 
L 744 3500 
z
" transform="scale(0.015625)"/>
      </defs>
      <use xlink:href="#DejaVuSans-Oblique-65" transform="translate(0 0.015625)"/>
      <use xlink:href="#DejaVuSans-Oblique-7a" transform="translate(61.523438 -16.390625)scale(0.7)"/>
      <use xlink:href="#DejaVuSans-20" transform="translate(101.000977 0.015625)"/>
      <use xlink:href="#DejaVuSans-5b" transform="translate(132.788086 0.015625)"/>
      <use xlink:href="#DejaVuSans-6d" transform="translate(171.801758 0.015625)"/>
      <use xlink:href="#DejaVuSans-5d" transform="translate(269.213867 0.015625)"/>
     </g>
    </g>
   </g>
   <g id="line2d_40">
    <path d="M 75.919364 166.533485 
L 76.503887 166.3209 
L 77.088411 165.978283 
L 78.841983 165.387143 
L 79.718769 165.46773 
L 81.180078 165.902438 
L 82.056864 165.895751 
L 83.518173 165.252586 
L 85.564007 163.275958 
L 85.856269 162.843093 
L 87.025316 161.979818 
L 87.317578 161.571608 
L 87.60984 161.571608 
L 88.194364 160.823273 
L 88.486626 160.527473 
L 88.778888 160.038199 
L 89.07115 159.306802 
L 89.947935 158.116932 
L 90.824721 156.335082 
L 91.116983 156.335082 
L 91.409245 155.64277 
L 92.578293 154.502229 
L 93.455078 154.032605 
L 94.039602 153.961534 
L 99.300317 154.304412 
L 100.177102 154.48855 
L 101.638412 154.603051 
L 102.80746 154.408694 
L 103.391984 154.152084 
L 103.976507 153.70049 
L 104.561031 153.314026 
L 106.314603 151.460692 
L 106.899126 150.836061 
L 107.191388 150.394037 
L 108.94496 149.337903 
L 109.821746 149.045788 
L 110.114008 148.757796 
L 110.406269 148.757796 
L 110.990793 148.328712 
L 111.575317 147.993246 
L 112.159841 147.36924 
L 112.452103 147.114833 
L 113.036627 146.880811 
L 113.913412 146.487806 
L 114.205674 146.172431 
L 115.08246 145.930285 
L 115.374722 145.734772 
L 115.666984 145.734772 
L 115.959246 145.40899 
L 116.54377 145.220316 
L 116.836032 145.083341 
L 117.128293 144.78194 
L 117.420555 144.78194 
L 117.712817 144.287212 
L 118.297341 144.037143 
L 118.589603 143.874139 
L 118.881865 143.5633 
L 119.174127 143.5633 
L 119.466389 143.154553 
L 120.343175 142.88292 
L 120.635436 142.701036 
L 120.927698 142.701036 
L 121.21996 142.480376 
L 123.850317 142.231848 
L 125.019365 142.540995 
L 125.311627 142.746692 
L 125.603889 142.746692 
L 126.188413 143.129991 
L 127.065199 143.633663 
L 127.35746 143.777538 
L 127.941984 144.179032 
L 131.449127 145.691288 
L 132.033651 146.026619 
L 134.371746 148.533675 
L 134.664008 149.096064 
L 135.540794 149.888143 
L 136.125318 150.698095 
L 136.41758 151.000492 
L 137.002104 151.275272 
L 137.294366 151.444948 
L 137.878889 151.987853 
L 138.171151 152.213915 
L 138.755675 152.445894 
L 139.047937 152.607603 
L 139.340199 152.956709 
L 139.632461 152.956709 
L 139.924723 153.552803 
L 140.509247 153.881572 
L 140.801508 154.109662 
L 141.09377 154.579322 
L 141.386032 154.579322 
L 141.678294 155.281413 
L 142.262818 155.614356 
L 142.55508 155.825306 
L 142.847342 156.214404 
L 145.769961 157.855754 
L 146.062223 157.855754 
L 146.646747 158.232524 
L 147.523532 158.870969 
L 147.815794 158.870969 
L 148.400318 159.315634 
L 149.277104 159.949526 
L 149.569366 159.949526 
L 150.15389 160.330638 
L 150.738414 160.633394 
L 151.322937 161.007357 
L 152.199723 161.4363 
L 154.245556 163.167142 
L 155.706866 164.941954 
L 156.29139 165.542626 
L 158.629485 169.1713 
L 159.506271 170.330428 
L 159.798533 170.960066 
L 161.259842 172.537794 
L 161.552104 173.071791 
L 163.013414 174.398213 
L 164.182462 175.938452 
L 165.351509 177.247889 
L 165.643771 177.818985 
L 166.812819 179.008137 
L 167.105081 179.475033 
L 168.56639 180.630894 
L 168.858652 180.630894 
L 169.443176 180.92698 
L 170.319962 181.066359 
L 172.658057 181.136163 
L 173.534843 181.486258 
L 173.827105 181.745538 
L 174.119367 181.745538 
L 174.70389 182.124097 
L 175.872938 182.475608 
L 176.749724 182.453101 
L 178.795557 182.050344 
L 179.672343 182.151579 
L 180.841391 182.539594 
L 181.425914 182.793665 
L 182.594962 182.938291 
L 183.179486 182.860301 
L 184.640796 182.463289 
L 184.933057 182.30343 
L 185.225319 182.30343 
L 185.517581 182.070668 
L 186.978891 181.943035 
L 188.4402 182.515944 
L 189.609248 183.334994 
L 190.778296 183.754341 
L 191.947343 183.68897 
L 194.869962 183.176667 
L 195.162224 183.222401 
L 195.454486 183.43705 
L 195.746748 183.43705 
L 196.331272 183.86673 
L 196.915796 184.227979 
L 197.208058 184.688898 
L 197.50032 184.688898 
L 197.792582 185.02764 
L 199.253891 185.712231 
L 200.422939 185.787088 
L 203.053296 185.738334 
L 203.930082 185.99163 
L 206.268177 187.303839 
L 207.437225 187.450224 
L 209.190796 187.149633 
L 209.77532 187.056574 
L 210.652106 186.994618 
L 212.113415 187.245146 
L 213.866987 187.499548 
L 215.328296 187.341593 
L 216.789606 187.010592 
L 217.958654 186.99148 
L 218.835439 187.149934 
L 219.419963 187.337071 
L 221.465797 187.652086 
L 222.634844 187.55688 
L 223.51163 187.399585 
L 226.434249 187.183364 
L 227.895559 187.436026 
L 228.480083 187.626281 
L 230.233654 187.8915 
L 230.818178 187.845206 
L 231.402702 187.725184 
L 232.279487 187.473168 
L 234.325321 187.082469 
L 234.909845 187.134107 
L 236.955678 187.899103 
L 237.24794 187.899103 
L 237.540202 188.07091 
L 239.001511 188.045346 
L 239.293773 187.873087 
L 240.170559 187.708719 
L 240.462821 187.568511 
L 240.755083 187.568511 
L 241.047345 187.360294 
L 242.800916 187.256043 
L 243.677702 187.352843 
L 244.84675 187.673238 
L 246.600321 187.711389 
L 247.477107 187.535238 
L 253.030083 186.663316 
L 254.491393 186.45268 
L 255.368179 186.495245 
L 256.244964 186.662471 
L 257.706274 186.738887 
L 258.875322 186.527339 
L 260.044369 185.897473 
L 260.628893 185.750072 
L 261.505679 185.318746 
L 262.090203 185.020677 
L 262.382465 185.020677 
L 262.966988 184.76848 
L 263.843774 184.689676 
L 265.305084 184.813339 
L 266.474131 184.789902 
L 267.643179 184.56048 
L 267.935441 184.321896 
L 268.227703 184.321896 
L 268.812227 183.99663 
L 269.981274 183.562777 
L 270.565798 183.255579 
L 272.31937 182.733795 
L 273.196155 182.788878 
L 275.241989 183.085892 
L 276.411036 182.987495 
L 276.703298 182.808417 
L 276.99556 182.808417 
L 277.287822 182.621922 
L 277.872346 182.418115 
L 278.45687 182.103202 
L 279.625917 181.591988 
L 280.210441 181.294512 
L 281.087227 181.133891 
L 281.671751 181.171282 
L 282.840798 181.457119 
L 283.13306 181.609786 
L 283.425322 181.609786 
L 284.009846 181.80035 
L 284.886632 181.84989 
L 285.471156 181.751696 
L 286.347941 181.47493 
L 287.516989 180.874006 
L 289.855084 180.218855 
L 291.024132 180.29067 
L 291.608656 180.465874 
L 293.654489 180.735103 
L 294.531275 180.606597 
L 295.408061 180.272014 
L 296.284847 179.931951 
L 296.86937 179.671496 
L 299.207466 179.099204 
L 300.084251 179.18436 
L 301.545561 179.477732 
L 302.130085 179.626138 
L 303.299132 179.684338 
L 304.760442 179.326913 
L 305.344966 179.110666 
L 308.267585 178.608646 
L 309.436633 178.689633 
L 311.482466 178.924679 
L 312.651514 178.906013 
L 315.281871 178.667506 
L 317.035442 178.704498 
L 317.912228 178.901223 
L 318.789014 179.02037 
L 320.542585 179.081436 
L 324.34199 178.962524 
L 326.680086 179.383258 
L 326.972347 179.571442 
L 328.141395 179.787542 
L 331.064014 180.092491 
L 333.109848 180.233517 
L 333.986633 180.326994 
L 335.740205 180.543297 
L 337.493776 180.874268 
L 341.000919 181.469751 
L 342.462229 181.344744 
L 343.631277 181.287987 
L 344.508062 181.475594 
L 347.430681 182.861622 
L 348.015205 183.109235 
L 349.476515 183.225878 
L 351.230086 182.934907 
L 352.106872 182.882286 
L 352.983658 182.985651 
L 354.737229 183.311816 
L 355.906277 183.28048 
L 359.121158 182.302046 
L 359.41342 182.302046 
L 359.997944 182.074463 
L 360.582468 181.843444 
L 361.166991 181.494879 
L 362.336039 180.905493 
L 363.505087 180.087083 
L 365.258658 179.448136 
L 366.427706 179.135809 
L 367.01223 178.781796 
L 367.596753 178.462989 
L 367.889015 177.986259 
L 368.181277 177.986259 
L 368.473539 177.591164 
L 369.642587 176.803526 
L 369.934849 176.803526 
L 370.519373 176.6623 
L 371.396158 176.722406 
L 372.272944 176.780095 
L 372.857468 176.701246 
L 373.14973 176.577111 
L 373.734254 176.146459 
L 374.611039 175.480298 
L 374.903301 174.831498 
L 375.195563 174.831498 
L 375.487825 174.358428 
L 376.656873 173.618986 
L 377.82592 173.682963 
L 378.118182 173.763167 
L 378.410444 173.982902 
L 378.702706 173.982902 
L 379.28723 174.157227 
L 379.871754 174.167365 
L 380.456278 173.933492 
L 381.040801 173.64909 
L 381.625325 173.267344 
L 382.209849 172.521901 
L 382.502111 172.250399 
L 383.378897 171.929662 
L 383.671159 171.793713 
L 384.547944 171.878028 
L 385.132468 172.050977 
L 385.716992 172.357522 
L 386.301516 172.448239 
L 386.88604 172.445624 
L 387.762825 172.052064 
L 388.055087 171.800352 
L 388.639611 171.493354 
L 388.931873 171.027505 
L 389.808659 170.186819 
L 390.100921 169.756667 
L 390.977707 169.271353 
L 392.146754 168.959264 
L 393.315802 169.023137 
L 394.192588 169.06883 
L 394.777111 168.966141 
L 395.069373 168.823499 
L 395.361635 168.546141 
L 395.653897 168.546141 
L 396.238421 167.978984 
L 396.822945 167.457384 
L 397.115207 167.060125 
L 397.407469 167.060125 
L 397.699731 166.733014 
L 398.576516 166.458676 
L 399.16104 166.451784 
L 400.037826 166.642052 
L 400.914612 166.932552 
L 401.499135 167.043327 
L 402.375921 166.899004 
L 402.668183 166.799069 
L 403.837231 165.756485 
L 404.421755 165.486475 
L 404.714016 165.209219 
L 405.590802 164.970774 
L 406.175326 164.990634 
L 408.221159 165.800952 
L 409.097945 165.807776 
L 409.390207 165.721509 
L 412.89735 163.230144 
L 413.481874 163.134407 
L 414.650922 163.124126 
L 415.527707 163.304046 
L 416.404493 163.433945 
L 416.989017 163.386447 
L 417.573541 163.247198 
L 417.865803 163.082749 
L 418.158065 162.783258 
L 418.450326 162.783258 
L 419.327112 161.611225 
L 419.911636 161.611225 
L 421.080684 161.207429 
L 421.957469 161.312194 
L 422.541993 161.537882 
L 423.126517 161.796651 
L 424.003303 161.901899 
L 424.587827 161.77013 
L 425.464612 161.434133 
L 426.049136 161.022011 
L 426.341398 160.671602 
L 427.802708 159.878608 
L 428.679493 159.907877 
L 428.971755 160.032999 
L 429.264017 160.309697 
L 429.556279 160.309697 
L 430.433065 161.291902 
L 430.725327 161.668234 
L 431.309851 162.032915 
L 431.602113 162.475043 
L 432.186636 162.841998 
L 432.186636 162.841998 
" clip-path="url(#p098142cf4c)" style="fill: none; stroke: #0000ff; stroke-width: 1.5; stroke-linecap: square"/>
   </g>
   <g id="patch_8">
    <path d="M 58.106 190.3975 
L 58.106 139.92 
" style="fill: none; stroke: #000000; stroke-width: 0.8; stroke-linejoin: miter; stroke-linecap: square"/>
   </g>
   <g id="patch_9">
    <path d="M 450 190.3975 
L 450 139.92 
" style="fill: none; stroke: #000000; stroke-width: 0.8; stroke-linejoin: miter; stroke-linecap: square"/>
   </g>
   <g id="patch_10">
    <path d="M 58.106 190.3975 
L 450 190.3975 
" style="fill: none; stroke: #000000; stroke-width: 0.8; stroke-linejoin: miter; stroke-linecap: square"/>
   </g>
   <g id="patch_11">
    <path d="M 58.106 139.92 
L 450 139.92 
" style="fill: none; stroke: #000000; stroke-width: 0.8; stroke-linejoin: miter; stroke-linecap: square"/>
   </g>
   <g id="text_25">
    <!-- Error in $z$-position -->
    <g transform="translate(200.773 133.92)scale(0.12 -0.12)">
     <use xlink:href="#DejaVuSans-45" transform="translate(0 0.015625)"/>
     <use xlink:href="#DejaVuSans-72" transform="translate(63.183594 0.015625)"/>
     <use xlink:href="#DejaVuSans-72" transform="translate(104.296875 0.015625)"/>
     <use xlink:href="#DejaVuSans-6f" transform="translate(145.410156 0.015625)"/>
     <use xlink:href="#DejaVuSans-72" transform="translate(206.591797 0.015625)"/>
     <use xlink:href="#DejaVuSans-20" transform="translate(247.705078 0.015625)"/>
     <use xlink:href="#DejaVuSans-69" transform="translate(279.492188 0.015625)"/>
     <use xlink:href="#DejaVuSans-6e" transform="translate(307.275391 0.015625)"/>
     <use xlink:href="#DejaVuSans-20" transform="translate(370.654297 0.015625)"/>
     <use xlink:href="#DejaVuSans-Oblique-7a" transform="translate(402.441406 0.015625)"/>
     <use xlink:href="#DejaVuSans-2d" transform="translate(454.931641 0.015625)"/>
     <use xlink:href="#DejaVuSans-70" transform="translate(491.015625 0.015625)"/>
     <use xlink:href="#DejaVuSans-6f" transform="translate(554.492188 0.015625)"/>
     <use xlink:href="#DejaVuSans-73" transform="translate(615.673828 0.015625)"/>
     <use xlink:href="#DejaVuSans-69" transform="translate(667.773438 0.015625)"/>
     <use xlink:href="#DejaVuSans-74" transform="translate(695.556641 0.015625)"/>
     <use xlink:href="#DejaVuSans-69" transform="translate(734.765625 0.015625)"/>
     <use xlink:href="#DejaVuSans-6f" transform="translate(762.548828 0.015625)"/>
     <use xlink:href="#DejaVuSans-6e" transform="translate(823.730469 0.015625)"/>
    </g>
   </g>
  </g>
  <g id="axes_3">
   <g id="patch_12">
    <path d="M 58.106 301.9975 
L 450 301.9975 
L 450 251.52 
L 58.106 251.52 
z
" style="fill: #ffffff"/>
   </g>
   <g id="matplotlib.axis_5">
    <g id="xtick_15">
     <g id="line2d_41">
      <path d="M 75.919364 301.9975 
L 75.919364 251.52 
" clip-path="url(#p1d99557ec8)" style="fill: none; stroke: #b0b0b0; stroke-width: 0.8; stroke-linecap: square"/>
     </g>
     <g id="line2d_42">
      <g>
       <use xlink:href="#mabf144cc3d" x="75.919364" y="301.9975" style="stroke: #000000; stroke-width: 0.8"/>
      </g>
     </g>
     <g id="text_26">
      <!-- 0 -->
      <g transform="translate(72.738114 316.595937)scale(0.1 -0.1)">
       <use xlink:href="#DejaVuSans-30"/>
      </g>
     </g>
    </g>
    <g id="xtick_16">
     <g id="line2d_43">
      <path d="M 134.323835 301.9975 
L 134.323835 251.52 
" clip-path="url(#p1d99557ec8)" style="fill: none; stroke: #b0b0b0; stroke-width: 0.8; stroke-linecap: square"/>
     </g>
     <g id="line2d_44">
      <g>
       <use xlink:href="#mabf144cc3d" x="134.323835" y="301.9975" style="stroke: #000000; stroke-width: 0.8"/>
      </g>
     </g>
     <g id="text_27">
      <!-- 2 -->
      <g transform="translate(131.142585 316.595937)scale(0.1 -0.1)">
       <use xlink:href="#DejaVuSans-32"/>
      </g>
     </g>
    </g>
    <g id="xtick_17">
     <g id="line2d_45">
      <path d="M 192.728306 301.9975 
L 192.728306 251.52 
" clip-path="url(#p1d99557ec8)" style="fill: none; stroke: #b0b0b0; stroke-width: 0.8; stroke-linecap: square"/>
     </g>
     <g id="line2d_46">
      <g>
       <use xlink:href="#mabf144cc3d" x="192.728306" y="301.9975" style="stroke: #000000; stroke-width: 0.8"/>
      </g>
     </g>
     <g id="text_28">
      <!-- 4 -->
      <g transform="translate(189.547056 316.595937)scale(0.1 -0.1)">
       <use xlink:href="#DejaVuSans-34"/>
      </g>
     </g>
    </g>
    <g id="xtick_18">
     <g id="line2d_47">
      <path d="M 251.132776 301.9975 
L 251.132776 251.52 
" clip-path="url(#p1d99557ec8)" style="fill: none; stroke: #b0b0b0; stroke-width: 0.8; stroke-linecap: square"/>
     </g>
     <g id="line2d_48">
      <g>
       <use xlink:href="#mabf144cc3d" x="251.132776" y="301.9975" style="stroke: #000000; stroke-width: 0.8"/>
      </g>
     </g>
     <g id="text_29">
      <!-- 6 -->
      <g transform="translate(247.951526 316.595937)scale(0.1 -0.1)">
       <use xlink:href="#DejaVuSans-36"/>
      </g>
     </g>
    </g>
    <g id="xtick_19">
     <g id="line2d_49">
      <path d="M 309.537247 301.9975 
L 309.537247 251.52 
" clip-path="url(#p1d99557ec8)" style="fill: none; stroke: #b0b0b0; stroke-width: 0.8; stroke-linecap: square"/>
     </g>
     <g id="line2d_50">
      <g>
       <use xlink:href="#mabf144cc3d" x="309.537247" y="301.9975" style="stroke: #000000; stroke-width: 0.8"/>
      </g>
     </g>
     <g id="text_30">
      <!-- 8 -->
      <g transform="translate(306.355997 316.595937)scale(0.1 -0.1)">
       <use xlink:href="#DejaVuSans-38"/>
      </g>
     </g>
    </g>
    <g id="xtick_20">
     <g id="line2d_51">
      <path d="M 367.941718 301.9975 
L 367.941718 251.52 
" clip-path="url(#p1d99557ec8)" style="fill: none; stroke: #b0b0b0; stroke-width: 0.8; stroke-linecap: square"/>
     </g>
     <g id="line2d_52">
      <g>
       <use xlink:href="#mabf144cc3d" x="367.941718" y="301.9975" style="stroke: #000000; stroke-width: 0.8"/>
      </g>
     </g>
     <g id="text_31">
      <!-- 10 -->
      <g transform="translate(361.579218 316.595937)scale(0.1 -0.1)">
       <use xlink:href="#DejaVuSans-31"/>
       <use xlink:href="#DejaVuSans-30" x="63.623047"/>
      </g>
     </g>
    </g>
    <g id="xtick_21">
     <g id="line2d_53">
      <path d="M 426.346189 301.9975 
L 426.346189 251.52 
" clip-path="url(#p1d99557ec8)" style="fill: none; stroke: #b0b0b0; stroke-width: 0.8; stroke-linecap: square"/>
     </g>
     <g id="line2d_54">
      <g>
       <use xlink:href="#mabf144cc3d" x="426.346189" y="301.9975" style="stroke: #000000; stroke-width: 0.8"/>
      </g>
     </g>
     <g id="text_32">
      <!-- 12 -->
      <g transform="translate(419.983689 316.595937)scale(0.1 -0.1)">
       <use xlink:href="#DejaVuSans-31"/>
       <use xlink:href="#DejaVuSans-32" x="63.623047"/>
      </g>
     </g>
    </g>
    <g id="text_33">
     <!-- $t$ [s] -->
     <g transform="translate(243.953 330.274063)scale(0.1 -0.1)">
      <use xlink:href="#DejaVuSans-Oblique-74" transform="translate(0 0.015625)"/>
      <use xlink:href="#DejaVuSans-20" transform="translate(39.208984 0.015625)"/>
      <use xlink:href="#DejaVuSans-5b" transform="translate(70.996094 0.015625)"/>
      <use xlink:href="#DejaVuSans-73" transform="translate(110.009766 0.015625)"/>
      <use xlink:href="#DejaVuSans-5d" transform="translate(162.109375 0.015625)"/>
     </g>
    </g>
   </g>
   <g id="matplotlib.axis_6">
    <g id="ytick_6">
     <g id="line2d_55">
      <path d="M 58.106 301.718382 
L 450 301.718382 
" clip-path="url(#p1d99557ec8)" style="fill: none; stroke: #b0b0b0; stroke-width: 0.8; stroke-linecap: square"/>
     </g>
     <g id="line2d_56">
      <g>
       <use xlink:href="#m88a3aa587b" x="58.106" y="301.718382" style="stroke: #000000; stroke-width: 0.8"/>
      </g>
     </g>
     <g id="text_34">
      <!-- −0.2 -->
      <g transform="translate(26.823188 305.5176)scale(0.1 -0.1)">
       <use xlink:href="#DejaVuSans-2212"/>
       <use xlink:href="#DejaVuSans-30" x="83.789062"/>
       <use xlink:href="#DejaVuSans-2e" x="147.412109"/>
       <use xlink:href="#DejaVuSans-32" x="179.199219"/>
      </g>
     </g>
    </g>
    <g id="ytick_7">
     <g id="line2d_57">
      <path d="M 58.106 272.868301 
L 450 272.868301 
" clip-path="url(#p1d99557ec8)" style="fill: none; stroke: #b0b0b0; stroke-width: 0.8; stroke-linecap: square"/>
     </g>
     <g id="line2d_58">
      <g>
       <use xlink:href="#m88a3aa587b" x="58.106" y="272.868301" style="stroke: #000000; stroke-width: 0.8"/>
      </g>
     </g>
     <g id="text_35">
      <!-- 0.0 -->
      <g transform="translate(35.202875 276.667519)scale(0.1 -0.1)">
       <use xlink:href="#DejaVuSans-30"/>
       <use xlink:href="#DejaVuSans-2e" x="63.623047"/>
       <use xlink:href="#DejaVuSans-30" x="95.410156"/>
      </g>
     </g>
    </g>
    <g id="text_36">
     <!-- $e_\theta$ [rad] -->
     <g transform="translate(20.7435 295.90875)rotate(-90)scale(0.1 -0.1)">
      <defs>
       <path id="DejaVuSans-Oblique-3b8" d="M 2913 2219 
L 925 2219 
Q 791 1284 928 888 
Q 1100 400 1566 400 
Q 2034 400 2391 891 
Q 2703 1322 2913 2219 
z
M 3009 2750 
Q 3094 3638 2984 3950 
Q 2813 4444 2353 4444 
Q 1875 4444 1525 3956 
Q 1250 3563 1034 2750 
L 3009 2750 
z
M 2444 4913 
Q 3194 4913 3494 4250 
Q 3794 3591 3566 2422 
Q 3341 1256 2781 594 
Q 2225 -72 1475 -72 
Q 722 -72 425 594 
Q 128 1256 353 2422 
Q 581 3591 1134 4250 
Q 1691 4913 2444 4913 
z
" transform="scale(0.015625)"/>
       <path id="DejaVuSans-61" d="M 2194 1759 
Q 1497 1759 1228 1600 
Q 959 1441 959 1056 
Q 959 750 1161 570 
Q 1363 391 1709 391 
Q 2188 391 2477 730 
Q 2766 1069 2766 1631 
L 2766 1759 
L 2194 1759 
z
M 3341 1997 
L 3341 0 
L 2766 0 
L 2766 531 
Q 2569 213 2275 61 
Q 1981 -91 1556 -91 
Q 1019 -91 701 211 
Q 384 513 384 1019 
Q 384 1609 779 1909 
Q 1175 2209 1959 2209 
L 2766 2209 
L 2766 2266 
Q 2766 2663 2505 2880 
Q 2244 3097 1772 3097 
Q 1472 3097 1187 3025 
Q 903 2953 641 2809 
L 641 3341 
Q 956 3463 1253 3523 
Q 1550 3584 1831 3584 
Q 2591 3584 2966 3190 
Q 3341 2797 3341 1997 
z
" transform="scale(0.015625)"/>
       <path id="DejaVuSans-64" d="M 2906 2969 
L 2906 4863 
L 3481 4863 
L 3481 0 
L 2906 0 
L 2906 525 
Q 2725 213 2448 61 
Q 2172 -91 1784 -91 
Q 1150 -91 751 415 
Q 353 922 353 1747 
Q 353 2572 751 3078 
Q 1150 3584 1784 3584 
Q 2172 3584 2448 3432 
Q 2725 3281 2906 2969 
z
M 947 1747 
Q 947 1113 1208 752 
Q 1469 391 1925 391 
Q 2381 391 2643 752 
Q 2906 1113 2906 1747 
Q 2906 2381 2643 2742 
Q 2381 3103 1925 3103 
Q 1469 3103 1208 2742 
Q 947 2381 947 1747 
z
" transform="scale(0.015625)"/>
      </defs>
      <use xlink:href="#DejaVuSans-Oblique-65" transform="translate(0 0.015625)"/>
      <use xlink:href="#DejaVuSans-Oblique-3b8" transform="translate(61.523438 -16.390625)scale(0.7)"/>
      <use xlink:href="#DejaVuSans-20" transform="translate(107.084961 0.015625)"/>
      <use xlink:href="#DejaVuSans-5b" transform="translate(138.87207 0.015625)"/>
      <use xlink:href="#DejaVuSans-72" transform="translate(177.885742 0.015625)"/>
      <use xlink:href="#DejaVuSans-61" transform="translate(218.999023 0.015625)"/>
      <use xlink:href="#DejaVuSans-64" transform="translate(280.27832 0.015625)"/>
      <use xlink:href="#DejaVuSans-5d" transform="translate(343.754883 0.015625)"/>
     </g>
    </g>
   </g>
   <g id="line2d_59">
    <path d="M 75.919364 272.835528 
L 76.211626 272.742184 
L 76.503887 272.251938 
L 77.088411 269.46099 
L 78.257459 263.684175 
L 78.841983 259.393309 
L 79.426507 257.746383 
L 80.01103 256.639459 
L 80.303292 256.689973 
L 80.595554 257.018669 
L 81.180078 258.17757 
L 81.764602 259.869051 
L 82.056864 261.419976 
L 82.349126 263.755347 
L 83.518173 269.063336 
L 83.810435 271.299845 
L 84.102697 274.604006 
L 85.271745 281.963119 
L 85.856269 287.761368 
L 86.440793 289.976388 
L 87.317578 292.245523 
L 87.60984 292.245523 
L 87.902102 292.717641 
L 88.486626 293.016131 
L 88.778888 293.067147 
L 89.363412 292.204831 
L 89.947935 290.333825 
L 90.532459 285.514865 
L 90.824721 282.546185 
L 91.116983 282.546185 
L 91.409245 278.36997 
L 91.701507 276.305422 
L 92.286031 270.407301 
L 92.578293 269.496323 
L 92.870555 267.733139 
L 93.162817 264.472573 
L 93.74734 260.980474 
L 94.331864 257.836943 
L 94.624126 257.836943 
L 94.916388 256.556156 
L 95.500912 255.935314 
L 95.793174 255.800585 
L 96.085436 255.921085 
L 96.377698 255.921085 
L 96.962221 256.393645 
L 97.254483 256.598832 
L 97.546745 256.9625 
L 98.131269 257.9337 
L 99.008055 259.211151 
L 99.300317 259.949529 
L 99.592579 261.044811 
L 100.761626 263.685816 
L 101.053888 264.469184 
L 101.34615 265.773312 
L 101.638412 267.8193 
L 102.515198 271.557368 
L 103.099722 274.383813 
L 104.268769 282.444325 
L 104.853293 285.718706 
L 105.145555 287.676379 
L 105.437817 288.305766 
L 105.730079 288.657245 
L 106.022341 288.728422 
L 106.314603 288.52459 
L 106.606865 288.067614 
L 106.899126 286.985112 
L 107.191388 284.989549 
L 108.068174 281.416117 
L 108.94496 275.838813 
L 109.821746 272.564453 
L 110.114008 270.578243 
L 110.406269 270.578243 
L 110.698531 269.912139 
L 110.990793 269.949734 
L 111.283055 270.231928 
L 111.575317 270.717489 
L 112.452103 274.309256 
L 112.744365 274.644857 
L 113.62115 276.471239 
L 113.913412 276.471239 
L 114.205674 276.668868 
L 114.790198 276.48035 
L 115.08246 276.298988 
L 115.374722 275.883313 
L 115.666984 275.883313 
L 115.959246 275.222003 
L 116.251508 275.105242 
L 116.836032 274.580542 
L 117.128293 273.900814 
L 117.420555 273.900814 
L 117.712817 272.284295 
L 118.005079 271.922974 
L 118.589603 270.213242 
L 118.881865 268.143793 
L 119.174127 268.143793 
L 119.466389 264.705442 
L 119.758651 264.123492 
L 120.343175 261.850171 
L 120.635436 259.767622 
L 120.927698 259.767622 
L 121.21996 257.414831 
L 122.096746 256.516063 
L 122.389008 256.571882 
L 122.68127 256.840802 
L 123.850317 259.306558 
L 124.142579 260.678892 
L 125.019365 262.869341 
L 125.311627 263.856353 
L 125.603889 263.856353 
L 125.896151 264.513346 
L 126.480675 264.776368 
L 127.35746 264.198768 
L 127.941984 262.844729 
L 128.234246 262.313178 
L 128.81877 260.545933 
L 129.111032 260.545933 
L 129.403294 259.912979 
L 129.987818 259.712009 
L 130.28008 259.859738 
L 130.572341 260.379178 
L 130.864603 260.379178 
L 131.156865 261.092728 
L 132.325913 262.685053 
L 132.618175 263.302676 
L 133.787223 264.337221 
L 134.371746 264.758123 
L 134.95627 265.209935 
L 135.540794 265.628535 
L 136.41758 267.464641 
L 136.709842 267.703562 
L 137.294366 268.677189 
L 137.586627 269.547305 
L 138.171151 270.477961 
L 138.755675 270.835861 
L 139.047937 271.055874 
L 139.340199 271.47081 
L 139.632461 271.47081 
L 139.924723 272.177555 
L 140.216985 272.315924 
L 140.801508 272.930632 
L 141.09377 273.602312 
L 141.386032 273.602312 
L 141.678294 274.65967 
L 141.970556 274.83806 
L 142.55508 275.553049 
L 142.847342 276.216065 
L 143.431866 276.918557 
L 144.01639 277.594635 
L 144.308651 277.594635 
L 144.600913 277.86981 
L 145.185437 277.939048 
L 145.477699 277.812742 
L 145.769961 277.562116 
L 146.062223 277.562116 
L 147.523532 275.071513 
L 147.815794 275.071513 
L 148.108056 274.092061 
L 148.400318 273.542534 
L 149.277104 270.707377 
L 149.569366 270.707377 
L 149.861628 269.349545 
L 150.738414 267.207613 
L 151.030675 266.255122 
L 152.199723 264.505172 
L 152.491985 263.783206 
L 152.784247 262.71744 
L 153.953295 260.153135 
L 154.245556 259.470932 
L 155.122342 256.777755 
L 155.999128 255.488025 
L 156.583652 254.914474 
L 156.875914 254.808295 
L 157.460438 254.907267 
L 159.506271 255.971942 
L 160.090795 256.504054 
L 160.967581 257.242108 
L 162.136628 258.858694 
L 163.597938 260.220152 
L 164.766985 260.530296 
L 165.351509 260.672592 
L 166.812819 261.378604 
L 167.397343 261.960095 
L 167.981866 262.478581 
L 168.274128 262.951579 
L 168.56639 263.699658 
L 168.858652 263.699658 
L 169.150914 264.559793 
L 169.443176 265.016355 
L 170.319962 266.829483 
L 170.612224 266.829483 
L 170.904486 267.276437 
L 171.489009 267.372379 
L 171.781271 267.208092 
L 172.365795 266.496721 
L 173.242581 265.844694 
L 173.534843 265.734589 
L 173.827105 265.981335 
L 174.119367 265.981335 
L 174.996152 268.369666 
L 175.288414 269.974924 
L 175.580676 272.595502 
L 175.872938 272.595502 
L 176.1652 275.525112 
L 177.334248 281.746859 
L 177.62651 281.988913 
L 177.918771 281.917624 
L 178.211033 281.56547 
L 178.503295 280.964214 
L 178.795557 279.677426 
L 179.087819 277.484966 
L 181.133653 269.280144 
L 181.425914 269.087231 
L 181.718176 269.150577 
L 182.010438 269.466607 
L 182.3027 270.389226 
L 182.594962 272.341878 
L 182.887224 272.341878 
L 183.179486 274.821557 
L 183.471748 276.127583 
L 184.056272 279.399385 
L 184.640796 280.131474 
L 184.933057 279.961672 
L 185.225319 279.961672 
L 185.517581 277.478467 
L 185.809843 276.868355 
L 186.686629 272.599677 
L 187.563415 265.84412 
L 188.732462 260.813585 
L 189.024724 260.218968 
L 189.316986 260.425533 
L 189.609248 260.950274 
L 189.90151 261.75996 
L 190.193772 264.050559 
L 190.486034 264.050559 
L 190.778296 268.462828 
L 191.070558 269.236915 
L 191.947343 273.366335 
L 192.239605 274.638307 
L 192.531867 275.100002 
L 192.824129 274.804759 
L 193.116391 274.184795 
L 193.700915 272.144922 
L 193.993177 270.093075 
L 194.285439 266.972733 
L 195.162224 262.081381 
L 195.454486 258.289147 
L 195.746748 258.289147 
L 196.03901 255.83432 
L 196.623534 254.207375 
L 196.915796 253.814432 
L 197.208058 254.321531 
L 197.50032 254.321531 
L 198.084844 257.461048 
L 198.669367 260.519407 
L 199.546153 267.884851 
L 200.130677 270.548208 
L 200.715201 272.362775 
L 201.007463 272.255545 
L 201.299725 271.713613 
L 201.884248 269.87158 
L 202.17651 268.687773 
L 202.468772 266.718839 
L 202.761034 263.967188 
L 204.514606 256.389771 
L 204.806868 256.307953 
L 205.099129 256.544308 
L 205.391391 257.08884 
L 205.683653 257.925279 
L 205.975915 259.664609 
L 206.268177 262.659367 
L 207.144963 267.825923 
L 207.729487 273.141534 
L 208.021749 273.141534 
L 208.314011 274.879043 
L 208.606272 275.304584 
L 208.898534 275.434307 
L 209.190796 275.082204 
L 209.483058 273.745428 
L 209.77532 273.745428 
L 210.067582 271.774632 
L 210.652106 269.563631 
L 211.23663 266.046198 
L 211.528892 266.046198 
L 211.821153 264.546936 
L 212.405677 263.630081 
L 212.697939 263.520767 
L 212.990201 264.338537 
L 213.282463 264.338537 
L 213.574725 266.167367 
L 213.866987 266.167367 
L 214.159249 270.183759 
L 214.451511 270.920338 
L 216.205082 279.233247 
L 216.497344 279.471288 
L 216.789606 279.454054 
L 217.081868 279.193912 
L 217.37413 278.3653 
L 217.958654 275.375438 
L 218.543177 272.763575 
L 219.419963 266.516366 
L 220.296749 262.879778 
L 220.589011 262.212261 
L 220.881273 262.212261 
L 221.465797 263.703187 
L 221.758059 264.759206 
L 222.05032 266.712793 
L 222.342582 269.737604 
L 222.634844 269.737604 
L 222.927106 272.81005 
L 223.51163 275.463812 
L 224.096154 277.340859 
L 224.388416 277.358651 
L 224.680678 276.888054 
L 225.265202 275.140222 
L 225.557463 273.946933 
L 225.849725 271.866296 
L 226.141987 268.778202 
L 228.187821 257.933709 
L 228.480083 257.746752 
L 228.772344 257.88368 
L 229.064606 258.332772 
L 229.356868 259.070073 
L 229.64913 260.649282 
L 229.941392 263.421779 
L 230.818178 268.223737 
L 231.11044 271.88495 
L 231.402702 271.88495 
L 231.694964 273.715296 
L 231.987226 274.140425 
L 232.279487 274.231994 
L 232.571749 273.996056 
L 232.864011 273.079275 
L 233.156273 271.028867 
L 233.740797 268.407797 
L 234.325321 264.152321 
L 234.617583 263.455312 
L 234.909845 262.094509 
L 235.202107 259.586705 
L 235.78663 257.639946 
L 236.078892 256.819485 
L 236.663416 256.727205 
L 236.955678 257.886466 
L 237.24794 257.886466 
L 237.540202 261.586254 
L 237.832464 262.366672 
L 238.416988 265.759495 
L 238.70925 269.299817 
L 239.001511 269.299817 
L 239.293773 273.759437 
L 239.586035 274.309628 
L 240.170559 275.759974 
L 240.462821 275.890855 
L 240.755083 275.890855 
L 241.047345 273.857013 
L 241.339607 273.328777 
L 241.924131 270.889258 
L 242.216392 268.174574 
L 242.508654 268.174574 
L 242.800916 264.101053 
L 243.093178 263.455322 
L 243.969964 259.544835 
L 244.262226 259.226928 
L 244.554488 259.377528 
L 244.84675 260.254726 
L 245.139012 260.694299 
L 245.431274 261.771744 
L 245.723535 264.572652 
L 246.308059 267.907821 
L 247.184845 275.282509 
L 247.769369 277.305079 
L 248.061631 277.859618 
L 248.353893 278.087461 
L 248.646155 277.819032 
L 249.52294 274.251263 
L 250.107464 271.54472 
L 250.98425 265.152342 
L 251.861036 261.776778 
L 252.153298 260.875902 
L 252.445559 260.868256 
L 252.737821 261.372461 
L 253.322345 263.238938 
L 253.906869 265.962717 
L 254.199131 268.347896 
L 254.491393 271.746068 
L 255.368179 276.685617 
L 255.660441 279.959477 
L 255.952702 279.959477 
L 256.244964 281.232161 
L 256.537226 281.318217 
L 256.829488 281.040841 
L 257.12175 280.424846 
L 257.998536 273.789469 
L 258.290798 272.942226 
L 258.875322 269.472359 
L 259.167583 266.036262 
L 259.752107 262.237757 
L 260.044369 260.377479 
L 260.336631 259.860153 
L 260.921155 258.316363 
L 261.213417 258.471742 
L 261.505679 259.340955 
L 262.090203 262.973437 
L 262.382465 262.973437 
L 263.25925 271.848548 
L 263.551512 272.756176 
L 264.136036 276.139342 
L 264.428298 278.796172 
L 264.72056 279.959 
L 265.012822 280.290747 
L 265.305084 280.215546 
L 265.597346 279.795186 
L 265.889608 279.038026 
L 266.766393 271.801169 
L 267.058655 270.901364 
L 267.643179 267.245537 
L 267.935441 262.808554 
L 268.227703 262.808554 
L 268.519965 259.651537 
L 269.104489 257.151009 
L 269.689012 255.737069 
L 269.981274 255.592983 
L 270.85806 258.934197 
L 271.150322 260.436861 
L 271.442584 264.830203 
L 271.734846 264.830203 
L 272.027108 268.640345 
L 273.488417 278.251865 
L 273.780679 278.824551 
L 274.072941 278.843283 
L 274.365203 278.629379 
L 274.657465 278.101446 
L 275.826513 271.271234 
L 276.411036 267.926021 
L 276.703298 263.735857 
L 276.99556 263.735857 
L 277.287822 260.690102 
L 277.580084 260.012547 
L 278.164608 256.822886 
L 278.45687 256.609902 
L 278.749132 256.75158 
L 279.041394 257.232152 
L 279.333656 258.029512 
L 279.625917 259.744877 
L 279.918179 262.788038 
L 281.087227 270.033051 
L 281.964013 277.115742 
L 282.548537 279.075567 
L 282.840798 279.893186 
L 283.425322 279.912941 
L 284.302108 276.572703 
L 284.59437 274.515592 
L 284.886632 271.429809 
L 285.178894 271.429809 
L 285.471156 268.168006 
L 287.224727 258.977996 
L 287.516989 258.686736 
L 287.809251 258.679996 
L 288.101513 259.201419 
L 288.393775 260.85825 
L 288.686037 260.85825 
L 288.978299 263.413127 
L 289.270561 263.413127 
L 289.562823 268.174902 
L 289.855084 269.002682 
L 290.439608 272.192561 
L 290.73187 275.014604 
L 291.024132 275.014604 
L 291.316394 278.096888 
L 291.608656 278.470222 
L 292.19318 279.491869 
L 292.777704 279.460446 
L 293.069965 277.277375 
L 293.362227 276.700053 
L 294.239013 272.433777 
L 295.115799 265.144607 
L 296.284847 259.521835 
L 296.577108 258.570395 
L 296.86937 258.565957 
L 297.161632 258.870279 
L 297.453894 259.47472 
L 297.746156 260.885625 
L 298.038418 263.562791 
L 299.207466 270.388719 
L 299.499728 272.145165 
L 300.084251 277.436911 
L 300.668775 279.502127 
L 301.253299 280.68919 
L 301.545561 280.869511 
L 302.422347 278.019176 
L 303.006871 275.169122 
L 303.299132 272.688299 
L 303.591394 269.181519 
L 304.760442 261.772004 
L 305.052704 259.364379 
L 305.637228 257.999874 
L 305.92949 257.763516 
L 306.221752 257.990218 
L 306.514013 259.391051 
L 306.806275 259.391051 
L 307.390799 263.443766 
L 307.683061 265.135831 
L 308.267585 271.5584 
L 308.559847 271.5584 
L 308.852109 275.151041 
L 310.021156 281.545583 
L 310.60568 281.441708 
L 310.897942 280.876744 
L 311.190204 280.008943 
L 311.482466 278.228696 
L 311.774728 275.228358 
L 312.06699 275.228358 
L 312.359252 271.818904 
L 312.651514 270.053576 
L 313.236038 264.931019 
L 313.528299 264.132677 
L 313.820561 262.632282 
L 314.112823 260.171471 
L 314.405085 258.959593 
L 314.697347 258.446233 
L 314.989609 258.42907 
L 315.281871 258.62427 
L 315.574133 259.128473 
L 315.866395 260.994709 
L 316.158657 260.994709 
L 316.450919 265.381196 
L 316.74318 266.220135 
L 317.327704 269.703114 
L 317.912228 275.549094 
L 318.20449 277.714841 
L 318.496752 278.364912 
L 319.081276 280.480454 
L 319.373538 281.388925 
L 319.6658 281.300296 
L 319.958062 280.511144 
L 320.250323 279.037741 
L 320.542585 278.42221 
L 320.834847 277.048666 
L 321.127109 273.914375 
L 321.419371 272.229698 
L 322.296157 264.698696 
L 322.588419 264.698696 
L 322.880681 261.84236 
L 323.757466 258.655772 
L 324.049728 258.583195 
L 324.34199 258.6696 
L 324.926514 260.664211 
L 325.511038 264.601022 
L 325.8033 265.365745 
L 326.095562 266.955133 
L 326.387824 270.238012 
L 326.680086 270.238012 
L 326.972347 275.026444 
L 327.264609 275.772083 
L 328.141395 280.361418 
L 328.433657 280.859543 
L 328.725919 280.982834 
L 329.602705 279.10399 
L 329.894967 276.611714 
L 330.187229 276.611714 
L 330.47949 271.84839 
L 330.771752 270.999529 
L 331.356276 267.620065 
L 331.648538 263.721114 
L 331.9408 263.721114 
L 332.233062 261.327916 
L 332.817586 259.838125 
L 333.109848 259.516001 
L 333.40211 260.144085 
L 333.694371 260.144085 
L 334.278895 263.273238 
L 334.863419 266.210816 
L 335.155681 270.239308 
L 335.447943 270.239308 
L 335.740205 273.46143 
L 337.201514 281.129962 
L 337.493776 281.372462 
L 337.786038 281.310304 
L 338.0783 280.956279 
L 338.662824 279.42792 
L 338.955086 277.661896 
L 339.247348 274.707464 
L 340.124134 269.621739 
L 340.416395 266.233785 
L 340.708657 266.233785 
L 341.000919 261.902083 
L 341.293181 261.332215 
L 341.877705 259.653114 
L 342.169967 259.206686 
L 342.462229 259.731534 
L 342.754491 260.899561 
L 343.046753 261.409368 
L 343.631277 263.908299 
L 343.923538 266.855259 
L 344.2158 268.400165 
L 344.800324 272.885278 
L 345.092586 273.592963 
L 345.384848 274.938077 
L 345.67711 277.262558 
L 346.553896 279.801508 
L 347.138419 279.853163 
L 347.430681 279.091428 
L 348.891991 273.72274 
L 349.184253 271.521657 
L 349.476515 271.521657 
L 349.768777 268.873919 
L 350.061039 268.528754 
L 350.937824 266.599083 
L 351.522348 266.13163 
L 352.106872 266.219617 
L 352.399134 266.407138 
L 353.860444 269.475603 
L 354.152705 269.475603 
L 354.444967 270.371322 
L 355.029491 271.333073 
L 355.321753 271.818296 
L 355.906277 272.230421 
L 356.198539 272.688548 
L 357.075325 273.193209 
L 357.367586 273.289515 
L 357.95211 273.156051 
L 358.536634 272.727971 
L 358.828896 272.215757 
L 359.121158 271.3233 
L 359.41342 271.3233 
L 359.705682 270.252876 
L 360.290206 269.068637 
L 361.459253 265.441474 
L 362.336039 263.705566 
L 362.628301 263.169051 
L 362.920563 262.966512 
L 363.212825 263.098962 
L 363.797349 263.803281 
L 364.08961 264.342099 
L 364.381872 266.09909 
L 364.674134 266.09909 
L 364.966396 267.746467 
L 366.427706 271.763742 
L 366.719968 272.414822 
L 367.01223 272.498053 
L 367.304492 272.421769 
L 367.596753 272.197544 
L 367.889015 271.114176 
L 368.181277 271.114176 
L 368.473539 269.948942 
L 369.642587 267.538917 
L 369.934849 267.538917 
L 370.227111 267.381035 
L 370.811634 267.493407 
L 371.396158 267.848345 
L 371.68842 268.226107 
L 373.734254 269.400266 
L 374.611039 269.919834 
L 374.903301 270.544087 
L 375.195563 270.544087 
L 375.487825 271.151087 
L 376.364611 272.174775 
L 376.656873 273.046961 
L 376.949135 273.046961 
L 377.241397 273.722964 
L 378.118182 274.639364 
L 378.410444 275.235322 
L 378.702706 275.235322 
L 378.994968 275.598684 
L 379.871754 276.103566 
L 380.456278 276.730531 
L 380.74854 276.944626 
L 381.625325 277.043758 
L 382.209849 276.509325 
L 382.502111 276.126596 
L 382.794373 275.98735 
L 383.378897 275.359514 
L 383.671159 274.383011 
L 383.963421 274.383011 
L 384.255683 273.561021 
L 384.840206 272.852455 
L 385.42473 272.479475 
L 385.716992 272.702565 
L 386.009254 273.174605 
L 386.301516 273.383994 
L 386.88604 274.448269 
L 387.178302 275.801637 
L 387.470564 276.518472 
L 388.055087 278.401168 
L 388.639611 279.022373 
L 388.931873 279.269579 
L 389.224135 279.076837 
L 389.516397 278.647388 
L 389.808659 277.603768 
L 390.100921 275.679357 
L 392.146754 267.706257 
L 392.439016 267.490368 
L 392.731278 267.488713 
L 393.02354 267.688742 
L 393.315802 268.070873 
L 393.608064 268.931025 
L 393.900326 270.429531 
L 395.069373 274.094121 
L 395.361635 275.342421 
L 395.653897 275.342421 
L 395.946159 276.025815 
L 396.238421 276.089886 
L 396.530683 275.945269 
L 396.822945 275.30119 
L 397.115207 273.743437 
L 397.407469 273.743437 
L 397.699731 271.753905 
L 399.16104 266.448687 
L 399.453302 266.135028 
L 399.745564 266.006644 
L 400.037826 266.053073 
L 400.330088 266.404738 
L 400.62235 267.279402 
L 400.914612 267.279402 
L 401.206874 268.38831 
L 401.791397 269.778436 
L 402.083659 270.448293 
L 402.668183 270.928548 
L 402.960445 271.357154 
L 403.544969 271.809794 
L 403.837231 272.186206 
L 404.129493 272.34256 
L 404.421755 272.686969 
L 404.714016 273.391467 
L 405.29854 273.937836 
L 405.883064 273.95224 
L 406.175326 273.841379 
L 406.75985 273.25664 
L 407.052112 273.021659 
L 407.344374 272.626952 
L 407.636636 272.028973 
L 407.928898 272.028973 
L 408.221159 271.405236 
L 409.097945 270.64924 
L 409.682469 270.380498 
L 410.851517 270.281753 
L 411.143779 270.431847 
L 412.312826 273.593106 
L 412.89735 276.740545 
L 413.189612 276.740545 
L 413.481874 277.74588 
L 413.774136 277.936719 
L 414.066398 277.825394 
L 414.35866 277.237843 
L 414.650922 276.943919 
L 414.943183 276.240074 
L 415.235445 274.516692 
L 415.527707 273.564251 
L 416.112231 270.769639 
L 416.404493 270.338151 
L 416.696755 269.542711 
L 416.989017 268.357525 
L 417.281279 268.017318 
L 417.573541 267.868423 
L 417.865803 267.958501 
L 418.158065 268.462508 
L 418.450326 268.462508 
L 418.742588 269.134233 
L 419.03485 269.434911 
L 419.327112 270.230958 
L 419.911636 270.230958 
L 420.49616 270.825355 
L 420.788422 271.483489 
L 421.080684 272.508917 
L 421.665207 273.381187 
L 422.249731 273.888554 
L 422.541993 273.945532 
L 423.711041 272.69938 
L 424.295565 272.374198 
L 424.880089 273.326121 
L 425.464612 274.852432 
L 425.756874 275.856887 
L 426.049136 277.615187 
L 426.341398 280.445315 
L 427.218184 285.441833 
L 428.09497 292.629071 
L 429.264017 298.233856 
L 429.556279 298.233856 
L 429.848541 299.325812 
L 430.140803 299.627982 
L 430.433065 299.703068 
L 431.309851 297.903024 
L 431.894374 293.346302 
L 432.186636 291.328774 
L 432.186636 291.328774 
" clip-path="url(#p1d99557ec8)" style="fill: none; stroke: #008000; stroke-width: 1.5; stroke-linecap: square"/>
   </g>
   <g id="patch_13">
    <path d="M 58.106 301.9975 
L 58.106 251.52 
" style="fill: none; stroke: #000000; stroke-width: 0.8; stroke-linejoin: miter; stroke-linecap: square"/>
   </g>
   <g id="patch_14">
    <path d="M 450 301.9975 
L 450 251.52 
" style="fill: none; stroke: #000000; stroke-width: 0.8; stroke-linejoin: miter; stroke-linecap: square"/>
   </g>
   <g id="patch_15">
    <path d="M 58.106 301.9975 
L 450 301.9975 
" style="fill: none; stroke: #000000; stroke-width: 0.8; stroke-linejoin: miter; stroke-linecap: square"/>
   </g>
   <g id="patch_16">
    <path d="M 58.106 251.52 
L 450 251.52 
" style="fill: none; stroke: #000000; stroke-width: 0.8; stroke-linejoin: miter; stroke-linecap: square"/>
   </g>
   <g id="text_37">
    <!-- Error in swing angle -->
    <g transform="translate(194.282688 245.52)scale(0.12 -0.12)">
     <defs>
      <path id="DejaVuSans-77" d="M 269 3500 
L 844 3500 
L 1563 769 
L 2278 3500 
L 2956 3500 
L 3675 769 
L 4391 3500 
L 4966 3500 
L 4050 0 
L 3372 0 
L 2619 2869 
L 1863 0 
L 1184 0 
L 269 3500 
z
" transform="scale(0.015625)"/>
      <path id="DejaVuSans-67" d="M 2906 1791 
Q 2906 2416 2648 2759 
Q 2391 3103 1925 3103 
Q 1463 3103 1205 2759 
Q 947 2416 947 1791 
Q 947 1169 1205 825 
Q 1463 481 1925 481 
Q 2391 481 2648 825 
Q 2906 1169 2906 1791 
z
M 3481 434 
Q 3481 -459 3084 -895 
Q 2688 -1331 1869 -1331 
Q 1566 -1331 1297 -1286 
Q 1028 -1241 775 -1147 
L 775 -588 
Q 1028 -725 1275 -790 
Q 1522 -856 1778 -856 
Q 2344 -856 2625 -561 
Q 2906 -266 2906 331 
L 2906 616 
Q 2728 306 2450 153 
Q 2172 0 1784 0 
Q 1141 0 747 490 
Q 353 981 353 1791 
Q 353 2603 747 3093 
Q 1141 3584 1784 3584 
Q 2172 3584 2450 3431 
Q 2728 3278 2906 2969 
L 2906 3500 
L 3481 3500 
L 3481 434 
z
" transform="scale(0.015625)"/>
      <path id="DejaVuSans-6c" d="M 603 4863 
L 1178 4863 
L 1178 0 
L 603 0 
L 603 4863 
z
" transform="scale(0.015625)"/>
      <path id="DejaVuSans-65" d="M 3597 1894 
L 3597 1613 
L 953 1613 
Q 991 1019 1311 708 
Q 1631 397 2203 397 
Q 2534 397 2845 478 
Q 3156 559 3463 722 
L 3463 178 
Q 3153 47 2828 -22 
Q 2503 -91 2169 -91 
Q 1331 -91 842 396 
Q 353 884 353 1716 
Q 353 2575 817 3079 
Q 1281 3584 2069 3584 
Q 2775 3584 3186 3129 
Q 3597 2675 3597 1894 
z
M 3022 2063 
Q 3016 2534 2758 2815 
Q 2500 3097 2075 3097 
Q 1594 3097 1305 2825 
Q 1016 2553 972 2059 
L 3022 2063 
z
" transform="scale(0.015625)"/>
     </defs>
     <use xlink:href="#DejaVuSans-45"/>
     <use xlink:href="#DejaVuSans-72" x="63.183594"/>
     <use xlink:href="#DejaVuSans-72" x="102.546875"/>
     <use xlink:href="#DejaVuSans-6f" x="141.410156"/>
     <use xlink:href="#DejaVuSans-72" x="202.591797"/>
     <use xlink:href="#DejaVuSans-20" x="243.705078"/>
     <use xlink:href="#DejaVuSans-69" x="275.492188"/>
     <use xlink:href="#DejaVuSans-6e" x="303.275391"/>
     <use xlink:href="#DejaVuSans-20" x="366.654297"/>
     <use xlink:href="#DejaVuSans-73" x="398.441406"/>
     <use xlink:href="#DejaVuSans-77" x="450.541016"/>
     <use xlink:href="#DejaVuSans-69" x="532.328125"/>
     <use xlink:href="#DejaVuSans-6e" x="560.111328"/>
     <use xlink:href="#DejaVuSans-67" x="623.490234"/>
     <use xlink:href="#DejaVuSans-20" x="686.966797"/>
     <use xlink:href="#DejaVuSans-61" x="718.753906"/>
     <use xlink:href="#DejaVuSans-6e" x="780.033203"/>
     <use xlink:href="#DejaVuSans-67" x="843.412109"/>
     <use xlink:href="#DejaVuSans-6c" x="906.888672"/>
     <use xlink:href="#DejaVuSans-65" x="934.671875"/>
    </g>
   </g>
  </g>
 </g>
 <defs>
  <clipPath id="p166a455f4a">
   <rect x="58.106" y="28.32" width="391.894" height="50.4775"/>
  </clipPath>
  <clipPath id="p098142cf4c">
   <rect x="58.106" y="139.92" width="391.894" height="50.4775"/>
  </clipPath>
  <clipPath id="p1d99557ec8">
   <rect x="58.106" y="251.52" width="391.894" height="50.4775"/>
  </clipPath>
 </defs>
</svg>
