<?xml version="1.0" encoding="utf-8" standalone="no"?>
<!DOCTYPE svg PUBLIC "-//W3C//DTD SVG 1.1//EN"
  "http://www.w3.org/Graphics/SVG/1.1/DTD/svg11.dtd">
<svg xmlns:xlink="http://www.w3.org/1999/xlink" width="460.8pt" height="345.6pt" viewBox="0 0 460.8 345.6" xmlns="http://www.w3.org/2000/svg" version="1.1">
 <metadata>
  <rdf:RDF xmlns:dc="http://purl.org/dc/elements/1.1/" xmlns:cc="http://creativecommons.org/ns#" xmlns:rdf="http://www.w3.org/1999/02/22-rdf-syntax-ns#">
   <cc:Work>
    <dc:type rdf:resource="http://purl.org/dc/dcmitype/StillImage"/>
    <dc:date>2022-06-05T14:48:26.099756</dc:date>
    <dc:format>image/svg+xml</dc:format>
    <dc:creator>
     <cc:Agent>
      <dc:title>Matplotlib v3.5.1, https://matplotlib.org/</dc:title>
     </cc:Agent>
    </dc:creator>
   </cc:Work>
  </rdf:RDF>
 </metadata>
 <defs>
  <style type="text/css">*{stroke-linejoin: round; stroke-linecap: butt}</style>
 </defs>
 <g id="figure_1">
  <g id="patch_1">
   <path d="M 0 345.6 
L 460.8 345.6 
L 460.8 0 
L 0 0 
z
" style="fill: #ffffff"/>
  </g>
  <g id="axes_1">
   <g id="patch_2">
    <path d="M 58.106 78.7975 
L 450 78.7975 
L 450 28.32 
L 58.106 28.32 
z
" style="fill: #ffffff"/>
   </g>
   <g id="matplotlib.axis_1">
    <g id="xtick_1">
     <g id="line2d_1">
      <path d="M 75.919364 78.7975 
L 75.919364 28.32 
" clip-path="url(#pbdfcbcb3c2)" style="fill: none; stroke: #b0b0b0; stroke-width: 0.8; stroke-linecap: square"/>
     </g>
     <g id="line2d_2">
      <defs>
       <path id="m39cae47a85" d="M 0 0 
L 0 3.5 
" style="stroke: #000000; stroke-width: 0.8"/>
      </defs>
      <g>
       <use xlink:href="#m39cae47a85" x="75.919364" y="78.7975" style="stroke: #000000; stroke-width: 0.8"/>
      </g>
     </g>
     <g id="text_1">
      <!-- 0 -->
      <g transform="translate(72.738114 93.395937)scale(0.1 -0.1)">
       <defs>
        <path id="DejaVuSans-30" d="M 2034 4250 
Q 1547 4250 1301 3770 
Q 1056 3291 1056 2328 
Q 1056 1369 1301 889 
Q 1547 409 2034 409 
Q 2525 409 2770 889 
Q 3016 1369 3016 2328 
Q 3016 3291 2770 3770 
Q 2525 4250 2034 4250 
z
M 2034 4750 
Q 2819 4750 3233 4129 
Q 3647 3509 3647 2328 
Q 3647 1150 3233 529 
Q 2819 -91 2034 -91 
Q 1250 -91 836 529 
Q 422 1150 422 2328 
Q 422 3509 836 4129 
Q 1250 4750 2034 4750 
z
" transform="scale(0.015625)"/>
       </defs>
       <use xlink:href="#DejaVuSans-30"/>
      </g>
     </g>
    </g>
    <g id="xtick_2">
     <g id="line2d_3">
      <path d="M 134.085449 78.7975 
L 134.085449 28.32 
" clip-path="url(#pbdfcbcb3c2)" style="fill: none; stroke: #b0b0b0; stroke-width: 0.8; stroke-linecap: square"/>
     </g>
     <g id="line2d_4">
      <g>
       <use xlink:href="#m39cae47a85" x="134.085449" y="78.7975" style="stroke: #000000; stroke-width: 0.8"/>
      </g>
     </g>
     <g id="text_2">
      <!-- 2 -->
      <g transform="translate(130.904199 93.395937)scale(0.1 -0.1)">
       <defs>
        <path id="DejaVuSans-32" d="M 1228 531 
L 3431 531 
L 3431 0 
L 469 0 
L 469 531 
Q 828 903 1448 1529 
Q 2069 2156 2228 2338 
Q 2531 2678 2651 2914 
Q 2772 3150 2772 3378 
Q 2772 3750 2511 3984 
Q 2250 4219 1831 4219 
Q 1534 4219 1204 4116 
Q 875 4013 500 3803 
L 500 4441 
Q 881 4594 1212 4672 
Q 1544 4750 1819 4750 
Q 2544 4750 2975 4387 
Q 3406 4025 3406 3419 
Q 3406 3131 3298 2873 
Q 3191 2616 2906 2266 
Q 2828 2175 2409 1742 
Q 1991 1309 1228 531 
z
" transform="scale(0.015625)"/>
       </defs>
       <use xlink:href="#DejaVuSans-32"/>
      </g>
     </g>
    </g>
    <g id="xtick_3">
     <g id="line2d_5">
      <path d="M 192.251534 78.7975 
L 192.251534 28.32 
" clip-path="url(#pbdfcbcb3c2)" style="fill: none; stroke: #b0b0b0; stroke-width: 0.8; stroke-linecap: square"/>
     </g>
     <g id="line2d_6">
      <g>
       <use xlink:href="#m39cae47a85" x="192.251534" y="78.7975" style="stroke: #000000; stroke-width: 0.8"/>
      </g>
     </g>
     <g id="text_3">
      <!-- 4 -->
      <g transform="translate(189.070284 93.395937)scale(0.1 -0.1)">
       <defs>
        <path id="DejaVuSans-34" d="M 2419 4116 
L 825 1625 
L 2419 1625 
L 2419 4116 
z
M 2253 4666 
L 3047 4666 
L 3047 1625 
L 3713 1625 
L 3713 1100 
L 3047 1100 
L 3047 0 
L 2419 0 
L 2419 1100 
L 313 1100 
L 313 1709 
L 2253 4666 
z
" transform="scale(0.015625)"/>
       </defs>
       <use xlink:href="#DejaVuSans-34"/>
      </g>
     </g>
    </g>
    <g id="xtick_4">
     <g id="line2d_7">
      <path d="M 250.41762 78.7975 
L 250.41762 28.32 
" clip-path="url(#pbdfcbcb3c2)" style="fill: none; stroke: #b0b0b0; stroke-width: 0.8; stroke-linecap: square"/>
     </g>
     <g id="line2d_8">
      <g>
       <use xlink:href="#m39cae47a85" x="250.41762" y="78.7975" style="stroke: #000000; stroke-width: 0.8"/>
      </g>
     </g>
     <g id="text_4">
      <!-- 6 -->
      <g transform="translate(247.23637 93.395937)scale(0.1 -0.1)">
       <defs>
        <path id="DejaVuSans-36" d="M 2113 2584 
Q 1688 2584 1439 2293 
Q 1191 2003 1191 1497 
Q 1191 994 1439 701 
Q 1688 409 2113 409 
Q 2538 409 2786 701 
Q 3034 994 3034 1497 
Q 3034 2003 2786 2293 
Q 2538 2584 2113 2584 
z
M 3366 4563 
L 3366 3988 
Q 3128 4100 2886 4159 
Q 2644 4219 2406 4219 
Q 1781 4219 1451 3797 
Q 1122 3375 1075 2522 
Q 1259 2794 1537 2939 
Q 1816 3084 2150 3084 
Q 2853 3084 3261 2657 
Q 3669 2231 3669 1497 
Q 3669 778 3244 343 
Q 2819 -91 2113 -91 
Q 1303 -91 875 529 
Q 447 1150 447 2328 
Q 447 3434 972 4092 
Q 1497 4750 2381 4750 
Q 2619 4750 2861 4703 
Q 3103 4656 3366 4563 
z
" transform="scale(0.015625)"/>
       </defs>
       <use xlink:href="#DejaVuSans-36"/>
      </g>
     </g>
    </g>
    <g id="xtick_5">
     <g id="line2d_9">
      <path d="M 308.583705 78.7975 
L 308.583705 28.32 
" clip-path="url(#pbdfcbcb3c2)" style="fill: none; stroke: #b0b0b0; stroke-width: 0.8; stroke-linecap: square"/>
     </g>
     <g id="line2d_10">
      <g>
       <use xlink:href="#m39cae47a85" x="308.583705" y="78.7975" style="stroke: #000000; stroke-width: 0.8"/>
      </g>
     </g>
     <g id="text_5">
      <!-- 8 -->
      <g transform="translate(305.402455 93.395937)scale(0.1 -0.1)">
       <defs>
        <path id="DejaVuSans-38" d="M 2034 2216 
Q 1584 2216 1326 1975 
Q 1069 1734 1069 1313 
Q 1069 891 1326 650 
Q 1584 409 2034 409 
Q 2484 409 2743 651 
Q 3003 894 3003 1313 
Q 3003 1734 2745 1975 
Q 2488 2216 2034 2216 
z
M 1403 2484 
Q 997 2584 770 2862 
Q 544 3141 544 3541 
Q 544 4100 942 4425 
Q 1341 4750 2034 4750 
Q 2731 4750 3128 4425 
Q 3525 4100 3525 3541 
Q 3525 3141 3298 2862 
Q 3072 2584 2669 2484 
Q 3125 2378 3379 2068 
Q 3634 1759 3634 1313 
Q 3634 634 3220 271 
Q 2806 -91 2034 -91 
Q 1263 -91 848 271 
Q 434 634 434 1313 
Q 434 1759 690 2068 
Q 947 2378 1403 2484 
z
M 1172 3481 
Q 1172 3119 1398 2916 
Q 1625 2713 2034 2713 
Q 2441 2713 2670 2916 
Q 2900 3119 2900 3481 
Q 2900 3844 2670 4047 
Q 2441 4250 2034 4250 
Q 1625 4250 1398 4047 
Q 1172 3844 1172 3481 
z
" transform="scale(0.015625)"/>
       </defs>
       <use xlink:href="#DejaVuSans-38"/>
      </g>
     </g>
    </g>
    <g id="xtick_6">
     <g id="line2d_11">
      <path d="M 366.74979 78.7975 
L 366.74979 28.32 
" clip-path="url(#pbdfcbcb3c2)" style="fill: none; stroke: #b0b0b0; stroke-width: 0.8; stroke-linecap: square"/>
     </g>
     <g id="line2d_12">
      <g>
       <use xlink:href="#m39cae47a85" x="366.74979" y="78.7975" style="stroke: #000000; stroke-width: 0.8"/>
      </g>
     </g>
     <g id="text_6">
      <!-- 10 -->
      <g transform="translate(360.38729 93.395937)scale(0.1 -0.1)">
       <defs>
        <path id="DejaVuSans-31" d="M 794 531 
L 1825 531 
L 1825 4091 
L 703 3866 
L 703 4441 
L 1819 4666 
L 2450 4666 
L 2450 531 
L 3481 531 
L 3481 0 
L 794 0 
L 794 531 
z
" transform="scale(0.015625)"/>
       </defs>
       <use xlink:href="#DejaVuSans-31"/>
       <use xlink:href="#DejaVuSans-30" x="63.623047"/>
      </g>
     </g>
    </g>
    <g id="xtick_7">
     <g id="line2d_13">
      <path d="M 424.915876 78.7975 
L 424.915876 28.32 
" clip-path="url(#pbdfcbcb3c2)" style="fill: none; stroke: #b0b0b0; stroke-width: 0.8; stroke-linecap: square"/>
     </g>
     <g id="line2d_14">
      <g>
       <use xlink:href="#m39cae47a85" x="424.915876" y="78.7975" style="stroke: #000000; stroke-width: 0.8"/>
      </g>
     </g>
     <g id="text_7">
      <!-- 12 -->
      <g transform="translate(418.553376 93.395937)scale(0.1 -0.1)">
       <use xlink:href="#DejaVuSans-31"/>
       <use xlink:href="#DejaVuSans-32" x="63.623047"/>
      </g>
     </g>
    </g>
    <g id="text_8">
     <!-- $t$ [s] -->
     <g transform="translate(243.953 107.074062)scale(0.1 -0.1)">
      <defs>
       <path id="DejaVuSans-Oblique-74" d="M 2706 3500 
L 2619 3053 
L 1472 3053 
L 1100 1153 
Q 1081 1047 1072 975 
Q 1063 903 1063 863 
Q 1063 663 1183 572 
Q 1303 481 1569 481 
L 2150 481 
L 2053 0 
L 1503 0 
Q 991 0 739 200 
Q 488 400 488 806 
Q 488 878 497 964 
Q 506 1050 525 1153 
L 897 3053 
L 409 3053 
L 500 3500 
L 978 3500 
L 1172 4494 
L 1747 4494 
L 1556 3500 
L 2706 3500 
z
" transform="scale(0.015625)"/>
       <path id="DejaVuSans-20" transform="scale(0.015625)"/>
       <path id="DejaVuSans-5b" d="M 550 4863 
L 1875 4863 
L 1875 4416 
L 1125 4416 
L 1125 -397 
L 1875 -397 
L 1875 -844 
L 550 -844 
L 550 4863 
z
" transform="scale(0.015625)"/>
       <path id="DejaVuSans-73" d="M 2834 3397 
L 2834 2853 
Q 2591 2978 2328 3040 
Q 2066 3103 1784 3103 
Q 1356 3103 1142 2972 
Q 928 2841 928 2578 
Q 928 2378 1081 2264 
Q 1234 2150 1697 2047 
L 1894 2003 
Q 2506 1872 2764 1633 
Q 3022 1394 3022 966 
Q 3022 478 2636 193 
Q 2250 -91 1575 -91 
Q 1294 -91 989 -36 
Q 684 19 347 128 
L 347 722 
Q 666 556 975 473 
Q 1284 391 1588 391 
Q 1994 391 2212 530 
Q 2431 669 2431 922 
Q 2431 1156 2273 1281 
Q 2116 1406 1581 1522 
L 1381 1569 
Q 847 1681 609 1914 
Q 372 2147 372 2553 
Q 372 3047 722 3315 
Q 1072 3584 1716 3584 
Q 2034 3584 2315 3537 
Q 2597 3491 2834 3397 
z
" transform="scale(0.015625)"/>
       <path id="DejaVuSans-5d" d="M 1947 4863 
L 1947 -844 
L 622 -844 
L 622 -397 
L 1369 -397 
L 1369 4416 
L 622 4416 
L 622 4863 
L 1947 4863 
z
" transform="scale(0.015625)"/>
      </defs>
      <use xlink:href="#DejaVuSans-Oblique-74" transform="translate(0 0.015625)"/>
      <use xlink:href="#DejaVuSans-20" transform="translate(39.208984 0.015625)"/>
      <use xlink:href="#DejaVuSans-5b" transform="translate(70.996094 0.015625)"/>
      <use xlink:href="#DejaVuSans-73" transform="translate(110.009766 0.015625)"/>
      <use xlink:href="#DejaVuSans-5d" transform="translate(162.109375 0.015625)"/>
     </g>
    </g>
   </g>
   <g id="matplotlib.axis_2">
    <g id="ytick_1">
     <g id="line2d_15">
      <path d="M 58.106 76.402938 
L 450 76.402938 
" clip-path="url(#pbdfcbcb3c2)" style="fill: none; stroke: #b0b0b0; stroke-width: 0.8; stroke-linecap: square"/>
     </g>
     <g id="line2d_16">
      <defs>
       <path id="mb6dab8daa0" d="M 0 0 
L -3.5 0 
" style="stroke: #000000; stroke-width: 0.8"/>
      </defs>
      <g>
       <use xlink:href="#mb6dab8daa0" x="58.106" y="76.402938" style="stroke: #000000; stroke-width: 0.8"/>
      </g>
     </g>
     <g id="text_9">
      <!-- 0 -->
      <g transform="translate(44.7435 80.202157)scale(0.1 -0.1)">
       <use xlink:href="#DejaVuSans-30"/>
      </g>
     </g>
    </g>
    <g id="ytick_2">
     <g id="line2d_17">
      <path d="M 58.106 30.614427 
L 450 30.614427 
" clip-path="url(#pbdfcbcb3c2)" style="fill: none; stroke: #b0b0b0; stroke-width: 0.8; stroke-linecap: square"/>
     </g>
     <g id="line2d_18">
      <g>
       <use xlink:href="#mb6dab8daa0" x="58.106" y="30.614427" style="stroke: #000000; stroke-width: 0.8"/>
      </g>
     </g>
     <g id="text_10">
      <!-- 10 -->
      <g transform="translate(38.381 34.413646)scale(0.1 -0.1)">
       <use xlink:href="#DejaVuSans-31"/>
       <use xlink:href="#DejaVuSans-30" x="63.623047"/>
      </g>
     </g>
    </g>
    <g id="text_11">
     <!-- $e_x$ [m] -->
     <g transform="translate(32.301313 69.20875)rotate(-90)scale(0.1 -0.1)">
      <defs>
       <path id="DejaVuSans-Oblique-65" d="M 3078 2063 
Q 3088 2113 3092 2166 
Q 3097 2219 3097 2272 
Q 3097 2653 2873 2875 
Q 2650 3097 2266 3097 
Q 1838 3097 1509 2826 
Q 1181 2556 1013 2059 
L 3078 2063 
z
M 3578 1613 
L 903 1613 
Q 884 1494 878 1425 
Q 872 1356 872 1306 
Q 872 872 1139 634 
Q 1406 397 1894 397 
Q 2269 397 2603 481 
Q 2938 566 3225 728 
L 3116 159 
Q 2806 34 2476 -28 
Q 2147 -91 1806 -91 
Q 1078 -91 686 257 
Q 294 606 294 1247 
Q 294 1794 489 2264 
Q 684 2734 1063 3103 
Q 1306 3334 1642 3459 
Q 1978 3584 2356 3584 
Q 2950 3584 3301 3228 
Q 3653 2872 3653 2272 
Q 3653 2128 3634 1964 
Q 3616 1800 3578 1613 
z
" transform="scale(0.015625)"/>
       <path id="DejaVuSans-Oblique-78" d="M 3841 3500 
L 2234 1784 
L 3219 0 
L 2559 0 
L 1819 1388 
L 531 0 
L -166 0 
L 1556 1844 
L 641 3500 
L 1300 3500 
L 1972 2234 
L 3144 3500 
L 3841 3500 
z
" transform="scale(0.015625)"/>
       <path id="DejaVuSans-6d" d="M 3328 2828 
Q 3544 3216 3844 3400 
Q 4144 3584 4550 3584 
Q 5097 3584 5394 3201 
Q 5691 2819 5691 2113 
L 5691 0 
L 5113 0 
L 5113 2094 
Q 5113 2597 4934 2840 
Q 4756 3084 4391 3084 
Q 3944 3084 3684 2787 
Q 3425 2491 3425 1978 
L 3425 0 
L 2847 0 
L 2847 2094 
Q 2847 2600 2669 2842 
Q 2491 3084 2119 3084 
Q 1678 3084 1418 2786 
Q 1159 2488 1159 1978 
L 1159 0 
L 581 0 
L 581 3500 
L 1159 3500 
L 1159 2956 
Q 1356 3278 1631 3431 
Q 1906 3584 2284 3584 
Q 2666 3584 2933 3390 
Q 3200 3197 3328 2828 
z
" transform="scale(0.015625)"/>
      </defs>
      <use xlink:href="#DejaVuSans-Oblique-65" transform="translate(0 0.015625)"/>
      <use xlink:href="#DejaVuSans-Oblique-78" transform="translate(61.523438 -16.390625)scale(0.7)"/>
      <use xlink:href="#DejaVuSans-20" transform="translate(105.683594 0.015625)"/>
      <use xlink:href="#DejaVuSans-5b" transform="translate(137.470703 0.015625)"/>
      <use xlink:href="#DejaVuSans-6d" transform="translate(176.484375 0.015625)"/>
      <use xlink:href="#DejaVuSans-5d" transform="translate(273.896484 0.015625)"/>
     </g>
    </g>
   </g>
   <g id="line2d_19">
    <path d="M 75.919364 30.614432 
L 83.487133 30.723932 
L 88.144221 30.902916 
L 92.219173 31.04566 
L 96.003058 31.196199 
L 99.204806 31.459015 
L 101.824419 31.767909 
L 106.481507 32.387862 
L 109.683255 32.848059 
L 110.847528 33.025982 
L 113.176072 33.410202 
L 114.049276 33.571758 
L 116.668888 34.047308 
L 119.288501 34.519514 
L 121.908113 35.005797 
L 127.147337 36.25129 
L 128.020542 36.445033 
L 130.349086 36.980822 
L 132.67763 37.625033 
L 132.968698 37.625033 
L 133.841902 37.86454 
L 135.879378 38.379544 
L 137.916855 38.99293 
L 138.207923 38.99293 
L 138.790059 39.178206 
L 140.827535 39.706035 
L 143.156079 40.387817 
L 143.447147 40.387817 
L 144.029283 40.571715 
L 145.775692 41.024753 
L 147.231032 41.407676 
L 147.5221 41.407676 
L 147.813168 41.581284 
L 148.686372 41.724636 
L 149.559576 42.008298 
L 150.43278 42.148822 
L 151.597052 42.482661 
L 152.470256 42.674937 
L 154.798801 43.215185 
L 157.127345 43.774445 
L 157.709481 43.880221 
L 160.620161 44.5066 
L 161.493365 44.712105 
L 163.82191 45.193716 
L 164.695114 45.442836 
L 165.859386 45.615198 
L 168.770066 46.243855 
L 171.098611 46.719322 
L 171.971815 46.908094 
L 174.300359 47.358797 
L 174.882495 47.478317 
L 175.755699 47.669246 
L 178.375311 48.157108 
L 178.957447 48.31328 
L 181.868128 48.864097 
L 184.48774 49.355525 
L 188.562693 50.072326 
L 193.219781 50.964782 
L 196.421529 51.55071 
L 197.294734 51.717847 
L 200.496482 52.286148 
L 201.369686 52.462019 
L 203.407162 52.824324 
L 203.989298 52.928143 
L 204.862502 53.093734 
L 206.899979 53.453749 
L 207.482115 53.562372 
L 208.355319 53.737006 
L 210.392795 54.102513 
L 210.974931 54.207247 
L 211.848135 54.372567 
L 214.176679 54.807423 
L 216.796292 55.274024 
L 219.706972 55.801602 
L 222.035516 56.180398 
L 225.237265 56.730336 
L 228.439013 57.274942 
L 230.767557 57.653354 
L 231.349693 57.755448 
L 232.222898 57.918662 
L 234.84251 58.33461 
L 235.424646 58.469646 
L 238.335326 58.923601 
L 238.917462 59.066245 
L 242.410279 59.66178 
L 243.574551 59.851186 
L 245.903095 60.237197 
L 246.776299 60.396288 
L 250.851252 61.053033 
L 255.50834 61.83905 
L 260.165429 62.559084 
L 261.329701 62.742982 
L 263.658245 63.125739 
L 264.531449 63.278625 
L 268.606402 63.898644 
L 269.479606 64.038428 
L 270.061742 64.145977 
L 270.934946 64.237395 
L 271.80815 64.404838 
L 276.465239 65.09465 
L 277.629511 65.259025 
L 279.958055 65.599766 
L 281.122327 65.778065 
L 284.906212 66.339242 
L 286.070484 66.495834 
L 289.5633 66.979632 
L 294.220389 67.607151 
L 295.675729 67.833572 
L 296.548933 67.925967 
L 300.623885 68.483042 
L 304.989906 69.035288 
L 306.154178 69.191189 
L 310.22913 69.735047 
L 311.393403 69.878735 
L 315.177287 70.355188 
L 319.543307 70.970704 
L 320.998648 71.140372 
L 327.111076 71.939604 
L 327.98428 72.044171 
L 332.059233 72.535308 
L 333.514573 72.735606 
L 339.627002 73.472005 
L 340.209138 73.56693 
L 343.410886 73.967044 
L 346.612635 74.328808 
L 350.978655 74.77428 
L 365.823125 75.894905 
L 378.047982 76.266436 
L 385.615751 76.275523 
L 399.004881 75.994744 
L 413.84935 75.785131 
L 420.543915 75.888149 
L 432.186636 76.503068 
L 432.186636 76.503068 
" clip-path="url(#pbdfcbcb3c2)" style="fill: none; stroke: #ff0000; stroke-width: 1.5; stroke-linecap: square"/>
   </g>
   <g id="patch_3">
    <path d="M 58.106 78.7975 
L 58.106 28.32 
" style="fill: none; stroke: #000000; stroke-width: 0.8; stroke-linejoin: miter; stroke-linecap: square"/>
   </g>
   <g id="patch_4">
    <path d="M 450 78.7975 
L 450 28.32 
" style="fill: none; stroke: #000000; stroke-width: 0.8; stroke-linejoin: miter; stroke-linecap: square"/>
   </g>
   <g id="patch_5">
    <path d="M 58.106 78.7975 
L 450 78.7975 
" style="fill: none; stroke: #000000; stroke-width: 0.8; stroke-linejoin: miter; stroke-linecap: square"/>
   </g>
   <g id="patch_6">
    <path d="M 58.106 28.32 
L 450 28.32 
" style="fill: none; stroke: #000000; stroke-width: 0.8; stroke-linejoin: miter; stroke-linecap: square"/>
   </g>
   <g id="text_12">
    <!-- Error in $x$-position -->
    <g transform="translate(200.413 22.32)scale(0.12 -0.12)">
     <defs>
      <path id="DejaVuSans-45" d="M 628 4666 
L 3578 4666 
L 3578 4134 
L 1259 4134 
L 1259 2753 
L 3481 2753 
L 3481 2222 
L 1259 2222 
L 1259 531 
L 3634 531 
L 3634 0 
L 628 0 
L 628 4666 
z
" transform="scale(0.015625)"/>
      <path id="DejaVuSans-72" d="M 2631 2963 
Q 2534 3019 2420 3045 
Q 2306 3072 2169 3072 
Q 1681 3072 1420 2755 
Q 1159 2438 1159 1844 
L 1159 0 
L 581 0 
L 581 3500 
L 1159 3500 
L 1159 2956 
Q 1341 3275 1631 3429 
Q 1922 3584 2338 3584 
Q 2397 3584 2469 3576 
Q 2541 3569 2628 3553 
L 2631 2963 
z
" transform="scale(0.015625)"/>
      <path id="DejaVuSans-6f" d="M 1959 3097 
Q 1497 3097 1228 2736 
Q 959 2375 959 1747 
Q 959 1119 1226 758 
Q 1494 397 1959 397 
Q 2419 397 2687 759 
Q 2956 1122 2956 1747 
Q 2956 2369 2687 2733 
Q 2419 3097 1959 3097 
z
M 1959 3584 
Q 2709 3584 3137 3096 
Q 3566 2609 3566 1747 
Q 3566 888 3137 398 
Q 2709 -91 1959 -91 
Q 1206 -91 779 398 
Q 353 888 353 1747 
Q 353 2609 779 3096 
Q 1206 3584 1959 3584 
z
" transform="scale(0.015625)"/>
      <path id="DejaVuSans-69" d="M 603 3500 
L 1178 3500 
L 1178 0 
L 603 0 
L 603 3500 
z
M 603 4863 
L 1178 4863 
L 1178 4134 
L 603 4134 
L 603 4863 
z
" transform="scale(0.015625)"/>
      <path id="DejaVuSans-6e" d="M 3513 2113 
L 3513 0 
L 2938 0 
L 2938 2094 
Q 2938 2591 2744 2837 
Q 2550 3084 2163 3084 
Q 1697 3084 1428 2787 
Q 1159 2491 1159 1978 
L 1159 0 
L 581 0 
L 581 3500 
L 1159 3500 
L 1159 2956 
Q 1366 3272 1645 3428 
Q 1925 3584 2291 3584 
Q 2894 3584 3203 3211 
Q 3513 2838 3513 2113 
z
" transform="scale(0.015625)"/>
      <path id="DejaVuSans-2d" d="M 313 2009 
L 1997 2009 
L 1997 1497 
L 313 1497 
L 313 2009 
z
" transform="scale(0.015625)"/>
      <path id="DejaVuSans-70" d="M 1159 525 
L 1159 -1331 
L 581 -1331 
L 581 3500 
L 1159 3500 
L 1159 2969 
Q 1341 3281 1617 3432 
Q 1894 3584 2278 3584 
Q 2916 3584 3314 3078 
Q 3713 2572 3713 1747 
Q 3713 922 3314 415 
Q 2916 -91 2278 -91 
Q 1894 -91 1617 61 
Q 1341 213 1159 525 
z
M 3116 1747 
Q 3116 2381 2855 2742 
Q 2594 3103 2138 3103 
Q 1681 3103 1420 2742 
Q 1159 2381 1159 1747 
Q 1159 1113 1420 752 
Q 1681 391 2138 391 
Q 2594 391 2855 752 
Q 3116 1113 3116 1747 
z
" transform="scale(0.015625)"/>
      <path id="DejaVuSans-74" d="M 1172 4494 
L 1172 3500 
L 2356 3500 
L 2356 3053 
L 1172 3053 
L 1172 1153 
Q 1172 725 1289 603 
Q 1406 481 1766 481 
L 2356 481 
L 2356 0 
L 1766 0 
Q 1100 0 847 248 
Q 594 497 594 1153 
L 594 3053 
L 172 3053 
L 172 3500 
L 594 3500 
L 594 4494 
L 1172 4494 
z
" transform="scale(0.015625)"/>
     </defs>
     <use xlink:href="#DejaVuSans-45" transform="translate(0 0.015625)"/>
     <use xlink:href="#DejaVuSans-72" transform="translate(63.183594 0.015625)"/>
     <use xlink:href="#DejaVuSans-72" transform="translate(104.296875 0.015625)"/>
     <use xlink:href="#DejaVuSans-6f" transform="translate(145.410156 0.015625)"/>
     <use xlink:href="#DejaVuSans-72" transform="translate(206.591797 0.015625)"/>
     <use xlink:href="#DejaVuSans-20" transform="translate(247.705078 0.015625)"/>
     <use xlink:href="#DejaVuSans-69" transform="translate(279.492188 0.015625)"/>
     <use xlink:href="#DejaVuSans-6e" transform="translate(307.275391 0.015625)"/>
     <use xlink:href="#DejaVuSans-20" transform="translate(370.654297 0.015625)"/>
     <use xlink:href="#DejaVuSans-Oblique-78" transform="translate(402.441406 0.015625)"/>
     <use xlink:href="#DejaVuSans-2d" transform="translate(461.621094 0.015625)"/>
     <use xlink:href="#DejaVuSans-70" transform="translate(497.705078 0.015625)"/>
     <use xlink:href="#DejaVuSans-6f" transform="translate(561.181641 0.015625)"/>
     <use xlink:href="#DejaVuSans-73" transform="translate(622.363281 0.015625)"/>
     <use xlink:href="#DejaVuSans-69" transform="translate(674.462891 0.015625)"/>
     <use xlink:href="#DejaVuSans-74" transform="translate(702.246094 0.015625)"/>
     <use xlink:href="#DejaVuSans-69" transform="translate(741.455078 0.015625)"/>
     <use xlink:href="#DejaVuSans-6f" transform="translate(769.238281 0.015625)"/>
     <use xlink:href="#DejaVuSans-6e" transform="translate(830.419922 0.015625)"/>
    </g>
   </g>
  </g>
  <g id="axes_2">
   <g id="patch_7">
    <path d="M 58.106 190.3975 
L 450 190.3975 
L 450 139.92 
L 58.106 139.92 
z
" style="fill: #ffffff"/>
   </g>
   <g id="matplotlib.axis_3">
    <g id="xtick_8">
     <g id="line2d_20">
      <path d="M 75.919364 190.3975 
L 75.919364 139.92 
" clip-path="url(#pe62812770a)" style="fill: none; stroke: #b0b0b0; stroke-width: 0.8; stroke-linecap: square"/>
     </g>
     <g id="line2d_21">
      <g>
       <use xlink:href="#m39cae47a85" x="75.919364" y="190.3975" style="stroke: #000000; stroke-width: 0.8"/>
      </g>
     </g>
     <g id="text_13">
      <!-- 0 -->
      <g transform="translate(72.738114 204.995937)scale(0.1 -0.1)">
       <use xlink:href="#DejaVuSans-30"/>
      </g>
     </g>
    </g>
    <g id="xtick_9">
     <g id="line2d_22">
      <path d="M 134.085449 190.3975 
L 134.085449 139.92 
" clip-path="url(#pe62812770a)" style="fill: none; stroke: #b0b0b0; stroke-width: 0.8; stroke-linecap: square"/>
     </g>
     <g id="line2d_23">
      <g>
       <use xlink:href="#m39cae47a85" x="134.085449" y="190.3975" style="stroke: #000000; stroke-width: 0.8"/>
      </g>
     </g>
     <g id="text_14">
      <!-- 2 -->
      <g transform="translate(130.904199 204.995937)scale(0.1 -0.1)">
       <use xlink:href="#DejaVuSans-32"/>
      </g>
     </g>
    </g>
    <g id="xtick_10">
     <g id="line2d_24">
      <path d="M 192.251534 190.3975 
L 192.251534 139.92 
" clip-path="url(#pe62812770a)" style="fill: none; stroke: #b0b0b0; stroke-width: 0.8; stroke-linecap: square"/>
     </g>
     <g id="line2d_25">
      <g>
       <use xlink:href="#m39cae47a85" x="192.251534" y="190.3975" style="stroke: #000000; stroke-width: 0.8"/>
      </g>
     </g>
     <g id="text_15">
      <!-- 4 -->
      <g transform="translate(189.070284 204.995937)scale(0.1 -0.1)">
       <use xlink:href="#DejaVuSans-34"/>
      </g>
     </g>
    </g>
    <g id="xtick_11">
     <g id="line2d_26">
      <path d="M 250.41762 190.3975 
L 250.41762 139.92 
" clip-path="url(#pe62812770a)" style="fill: none; stroke: #b0b0b0; stroke-width: 0.8; stroke-linecap: square"/>
     </g>
     <g id="line2d_27">
      <g>
       <use xlink:href="#m39cae47a85" x="250.41762" y="190.3975" style="stroke: #000000; stroke-width: 0.8"/>
      </g>
     </g>
     <g id="text_16">
      <!-- 6 -->
      <g transform="translate(247.23637 204.995937)scale(0.1 -0.1)">
       <use xlink:href="#DejaVuSans-36"/>
      </g>
     </g>
    </g>
    <g id="xtick_12">
     <g id="line2d_28">
      <path d="M 308.583705 190.3975 
L 308.583705 139.92 
" clip-path="url(#pe62812770a)" style="fill: none; stroke: #b0b0b0; stroke-width: 0.8; stroke-linecap: square"/>
     </g>
     <g id="line2d_29">
      <g>
       <use xlink:href="#m39cae47a85" x="308.583705" y="190.3975" style="stroke: #000000; stroke-width: 0.8"/>
      </g>
     </g>
     <g id="text_17">
      <!-- 8 -->
      <g transform="translate(305.402455 204.995937)scale(0.1 -0.1)">
       <use xlink:href="#DejaVuSans-38"/>
      </g>
     </g>
    </g>
    <g id="xtick_13">
     <g id="line2d_30">
      <path d="M 366.74979 190.3975 
L 366.74979 139.92 
" clip-path="url(#pe62812770a)" style="fill: none; stroke: #b0b0b0; stroke-width: 0.8; stroke-linecap: square"/>
     </g>
     <g id="line2d_31">
      <g>
       <use xlink:href="#m39cae47a85" x="366.74979" y="190.3975" style="stroke: #000000; stroke-width: 0.8"/>
      </g>
     </g>
     <g id="text_18">
      <!-- 10 -->
      <g transform="translate(360.38729 204.995937)scale(0.1 -0.1)">
       <use xlink:href="#DejaVuSans-31"/>
       <use xlink:href="#DejaVuSans-30" x="63.623047"/>
      </g>
     </g>
    </g>
    <g id="xtick_14">
     <g id="line2d_32">
      <path d="M 424.915876 190.3975 
L 424.915876 139.92 
" clip-path="url(#pe62812770a)" style="fill: none; stroke: #b0b0b0; stroke-width: 0.8; stroke-linecap: square"/>
     </g>
     <g id="line2d_33">
      <g>
       <use xlink:href="#m39cae47a85" x="424.915876" y="190.3975" style="stroke: #000000; stroke-width: 0.8"/>
      </g>
     </g>
     <g id="text_19">
      <!-- 12 -->
      <g transform="translate(418.553376 204.995937)scale(0.1 -0.1)">
       <use xlink:href="#DejaVuSans-31"/>
       <use xlink:href="#DejaVuSans-32" x="63.623047"/>
      </g>
     </g>
    </g>
    <g id="text_20">
     <!-- $t$ [s] -->
     <g transform="translate(243.953 218.674062)scale(0.1 -0.1)">
      <use xlink:href="#DejaVuSans-Oblique-74" transform="translate(0 0.015625)"/>
      <use xlink:href="#DejaVuSans-20" transform="translate(39.208984 0.015625)"/>
      <use xlink:href="#DejaVuSans-5b" transform="translate(70.996094 0.015625)"/>
      <use xlink:href="#DejaVuSans-73" transform="translate(110.009766 0.015625)"/>
      <use xlink:href="#DejaVuSans-5d" transform="translate(162.109375 0.015625)"/>
     </g>
    </g>
   </g>
   <g id="matplotlib.axis_4">
    <g id="ytick_3">
     <g id="line2d_34">
      <path d="M 58.106 179.600025 
L 450 179.600025 
" clip-path="url(#pe62812770a)" style="fill: none; stroke: #b0b0b0; stroke-width: 0.8; stroke-linecap: square"/>
     </g>
     <g id="line2d_35">
      <g>
       <use xlink:href="#mb6dab8daa0" x="58.106" y="179.600025" style="stroke: #000000; stroke-width: 0.8"/>
      </g>
     </g>
     <g id="text_21">
      <!-- −0.1 -->
      <g transform="translate(26.823188 183.399244)scale(0.1 -0.1)">
       <defs>
        <path id="DejaVuSans-2212" d="M 678 2272 
L 4684 2272 
L 4684 1741 
L 678 1741 
L 678 2272 
z
" transform="scale(0.015625)"/>
        <path id="DejaVuSans-2e" d="M 684 794 
L 1344 794 
L 1344 0 
L 684 0 
L 684 794 
z
" transform="scale(0.015625)"/>
       </defs>
       <use xlink:href="#DejaVuSans-2212"/>
       <use xlink:href="#DejaVuSans-30" x="83.789062"/>
       <use xlink:href="#DejaVuSans-2e" x="147.412109"/>
       <use xlink:href="#DejaVuSans-31" x="179.199219"/>
      </g>
     </g>
    </g>
    <g id="ytick_4">
     <g id="line2d_36">
      <path d="M 58.106 165.448189 
L 450 165.448189 
" clip-path="url(#pe62812770a)" style="fill: none; stroke: #b0b0b0; stroke-width: 0.8; stroke-linecap: square"/>
     </g>
     <g id="line2d_37">
      <g>
       <use xlink:href="#mb6dab8daa0" x="58.106" y="165.448189" style="stroke: #000000; stroke-width: 0.8"/>
      </g>
     </g>
     <g id="text_22">
      <!-- 0.0 -->
      <g transform="translate(35.202875 169.247407)scale(0.1 -0.1)">
       <use xlink:href="#DejaVuSans-30"/>
       <use xlink:href="#DejaVuSans-2e" x="63.623047"/>
       <use xlink:href="#DejaVuSans-30" x="95.410156"/>
      </g>
     </g>
    </g>
    <g id="ytick_5">
     <g id="line2d_38">
      <path d="M 58.106 151.296352 
L 450 151.296352 
" clip-path="url(#pe62812770a)" style="fill: none; stroke: #b0b0b0; stroke-width: 0.8; stroke-linecap: square"/>
     </g>
     <g id="line2d_39">
      <g>
       <use xlink:href="#mb6dab8daa0" x="58.106" y="151.296352" style="stroke: #000000; stroke-width: 0.8"/>
      </g>
     </g>
     <g id="text_23">
      <!-- 0.1 -->
      <g transform="translate(35.202875 155.095571)scale(0.1 -0.1)">
       <use xlink:href="#DejaVuSans-30"/>
       <use xlink:href="#DejaVuSans-2e" x="63.623047"/>
       <use xlink:href="#DejaVuSans-31" x="95.410156"/>
      </g>
     </g>
    </g>
    <g id="text_24">
     <!-- $e_z$ [m] -->
     <g transform="translate(20.7435 180.60875)rotate(-90)scale(0.1 -0.1)">
      <defs>
       <path id="DejaVuSans-Oblique-7a" d="M 744 3500 
L 3475 3500 
L 3372 2975 
L 738 459 
L 2913 459 
L 2822 0 
L -19 0 
L 84 525 
L 2719 3041 
L 653 3041 
L 744 3500 
z
" transform="scale(0.015625)"/>
      </defs>
      <use xlink:href="#DejaVuSans-Oblique-65" transform="translate(0 0.015625)"/>
      <use xlink:href="#DejaVuSans-Oblique-7a" transform="translate(61.523438 -16.390625)scale(0.7)"/>
      <use xlink:href="#DejaVuSans-20" transform="translate(101.000977 0.015625)"/>
      <use xlink:href="#DejaVuSans-5b" transform="translate(132.788086 0.015625)"/>
      <use xlink:href="#DejaVuSans-6d" transform="translate(171.801758 0.015625)"/>
      <use xlink:href="#DejaVuSans-5d" transform="translate(269.213867 0.015625)"/>
     </g>
    </g>
   </g>
   <g id="line2d_40">
    <path d="M 75.919364 166.778304 
L 76.5015 166.457708 
L 76.792568 166.234046 
L 77.083636 166.234046 
L 77.665772 165.756402 
L 78.247908 165.373724 
L 78.830044 164.977318 
L 79.994316 164.63786 
L 80.86752 164.693136 
L 82.613928 164.955059 
L 83.196064 164.835044 
L 84.360337 164.175844 
L 85.233541 163.435581 
L 85.815677 162.959722 
L 86.397813 162.195613 
L 86.688881 161.923262 
L 87.271017 161.682404 
L 88.144221 161.168873 
L 88.726357 160.62555 
L 89.308493 160.157727 
L 90.181697 158.544751 
L 90.472765 158.349948 
L 91.054901 157.536817 
L 91.345969 156.695416 
L 91.637037 156.271406 
L 92.219173 155.039517 
L 92.510242 154.847186 
L 92.80131 154.479555 
L 93.092378 153.824401 
L 93.383446 153.824401 
L 93.674514 153.066116 
L 94.25665 152.78996 
L 95.129854 152.446254 
L 95.71199 152.335269 
L 96.876262 152.442804 
L 98.331602 152.816636 
L 98.62267 152.816636 
L 98.913738 153.021797 
L 99.786942 153.197338 
L 100.660146 153.514551 
L 102.988691 153.64831 
L 103.861895 153.456937 
L 104.152963 153.112147 
L 104.735099 152.881534 
L 105.026167 152.70787 
L 105.899371 151.665394 
L 106.190439 151.548193 
L 106.772575 151.062299 
L 107.063643 150.56579 
L 107.645779 149.971429 
L 108.227915 149.356322 
L 108.518983 149.356322 
L 108.810051 149.033181 
L 112.885004 147.072906 
L 114.049276 146.277822 
L 118.124228 144.411785 
L 119.579569 143.283965 
L 120.161705 142.883177 
L 120.452773 142.614792 
L 121.617045 142.280112 
L 122.490249 142.235568 
L 123.654521 142.476632 
L 124.236657 142.747983 
L 125.109861 143.097885 
L 127.438406 144.603178 
L 129.76695 145.620947 
L 130.640154 145.902554 
L 130.931222 146.119264 
L 131.22229 146.119264 
L 131.804426 146.557649 
L 132.386562 147.035853 
L 132.67763 147.487102 
L 132.968698 147.487102 
L 133.259766 147.986915 
L 134.13297 148.787349 
L 135.006174 149.955726 
L 136.170447 150.939507 
L 136.461515 151.299751 
L 139.081127 152.832177 
L 141.118603 154.752573 
L 141.409671 155.227048 
L 141.700739 155.227048 
L 141.991807 155.678459 
L 142.573943 156.186689 
L 143.156079 156.693234 
L 143.447147 156.693234 
L 144.029283 157.091737 
L 144.611419 157.373899 
L 145.193556 157.705456 
L 146.06676 158.13822 
L 146.648896 158.41821 
L 146.939964 158.565997 
L 147.231032 158.872578 
L 147.5221 158.872578 
L 147.813168 159.341054 
L 148.395304 159.5707 
L 148.686372 159.719733 
L 148.97744 160.004825 
L 149.268508 160.004825 
L 149.559576 160.39789 
L 150.141712 160.580179 
L 150.723848 160.93493 
L 151.305984 161.249414 
L 151.88812 161.535878 
L 152.179188 161.69424 
L 152.761324 162.237579 
L 153.34346 162.884306 
L 153.634529 163.001148 
L 153.925597 163.241351 
L 154.216665 163.743313 
L 154.798801 164.398253 
L 155.089869 164.802283 
L 155.380937 164.938656 
L 155.672005 165.214057 
L 155.963073 165.775213 
L 156.545209 166.349683 
L 157.127345 167.389568 
L 157.418413 167.389568 
L 157.709481 168.000963 
L 158.582685 168.938229 
L 159.746957 170.684638 
L 160.620161 171.774728 
L 160.911229 172.378148 
L 162.657638 174.213169 
L 162.948706 174.743501 
L 163.82191 175.521557 
L 164.112978 176.033174 
L 164.404046 176.033174 
L 164.695114 176.797253 
L 164.986182 176.923972 
L 166.150454 178.043263 
L 166.441522 178.51514 
L 168.770066 180.203984 
L 169.934338 180.524587 
L 171.098611 180.462671 
L 171.971815 180.434888 
L 172.845019 180.626979 
L 173.427155 180.972399 
L 174.300359 181.400459 
L 174.591427 181.73267 
L 174.882495 181.73267 
L 175.464631 182.013296 
L 176.337835 182.105192 
L 176.628903 182.105192 
L 177.211039 181.939475 
L 178.375311 181.640961 
L 178.666379 181.429733 
L 179.830652 181.367805 
L 181.285992 181.863489 
L 181.868128 182.244214 
L 182.450264 182.541564 
L 183.905604 182.612285 
L 184.778808 182.441267 
L 185.069876 182.261584 
L 185.360944 182.261584 
L 185.652012 181.933037 
L 186.234148 181.755944 
L 187.689488 181.270674 
L 188.562693 181.362608 
L 188.853761 181.498418 
L 189.435897 181.911017 
L 190.018033 182.241156 
L 190.309101 182.56971 
L 190.600169 182.56971 
L 190.891237 182.986166 
L 192.928713 183.287727 
L 193.801917 183.136413 
L 194.675121 182.888933 
L 194.966189 182.755064 
L 196.421529 182.733926 
L 196.712597 182.89616 
L 197.003665 182.89616 
L 197.585802 183.30497 
L 198.459006 183.938963 
L 198.750074 184.296624 
L 199.914346 184.881892 
L 201.078618 185.251576 
L 202.24289 185.231314 
L 202.825026 185.099631 
L 204.280366 184.972973 
L 205.15357 185.142454 
L 205.444638 185.395315 
L 205.735706 185.395315 
L 206.317843 185.786957 
L 206.899979 186.065159 
L 207.191047 186.380927 
L 207.482115 186.380927 
L 208.064251 186.652199 
L 209.228523 186.766883 
L 210.974931 186.379737 
L 211.557067 186.218206 
L 212.430271 186.238166 
L 212.721339 186.238166 
L 215.049884 187.077255 
L 216.214156 187.183936 
L 217.378428 186.928815 
L 218.251632 186.477939 
L 220.289108 186.273766 
L 220.871244 186.417014 
L 221.744448 186.924064 
L 222.617652 187.154544 
L 223.199788 187.331714 
L 224.072993 187.344529 
L 224.946197 187.13098 
L 225.528333 186.949945 
L 226.110469 186.721804 
L 227.565809 186.470955 
L 228.730081 186.673036 
L 229.312217 186.90701 
L 229.894353 187.230372 
L 231.349693 187.690113 
L 231.931829 187.744258 
L 233.096102 187.601788 
L 233.38717 187.43632 
L 234.260374 187.286687 
L 234.84251 187.189406 
L 235.424646 187.138882 
L 236.588918 187.28954 
L 236.879986 187.512194 
L 237.75319 187.728718 
L 238.044258 187.891487 
L 238.335326 187.891487 
L 238.626394 188.062993 
L 239.790666 188.059842 
L 240.66387 187.849746 
L 242.410279 187.416107 
L 242.992415 187.334706 
L 243.865619 187.302003 
L 245.612027 187.558166 
L 246.776299 187.727373 
L 248.231639 187.644723 
L 251.724456 187.328757 
L 252.888728 186.979957 
L 253.470864 186.720209 
L 255.50834 186.184037 
L 256.672612 186.275757 
L 257.545816 186.402088 
L 258.710089 186.377854 
L 259.874361 186.116383 
L 261.329701 185.515343 
L 264.240381 184.848639 
L 267.44213 184.863226 
L 271.226014 183.266721 
L 271.517082 183.266721 
L 272.099218 183.03736 
L 273.26349 182.930719 
L 274.71883 183.144435 
L 275.592034 183.284882 
L 276.465239 183.279144 
L 278.211647 182.689159 
L 278.793783 182.36916 
L 279.958055 181.9295 
L 280.540191 181.63605 
L 281.704463 181.360503 
L 282.577667 181.388284 
L 283.450871 181.572887 
L 284.033007 181.762008 
L 285.488348 181.941956 
L 286.65262 181.644198 
L 286.943688 181.429021 
L 287.234756 181.429021 
L 287.816892 181.094088 
L 288.399028 180.841184 
L 288.690096 180.641707 
L 288.981164 180.641707 
L 289.5633 180.36296 
L 290.727572 180.152128 
L 291.600776 180.279594 
L 293.638253 180.85555 
L 294.802525 180.789874 
L 296.840001 179.966251 
L 297.422137 179.792331 
L 299.168545 179.40118 
L 299.750681 179.454618 
L 302.370294 179.988759 
L 303.534566 179.875043 
L 304.40777 179.601269 
L 307.31845 178.974343 
L 308.77379 179.041588 
L 310.22913 179.26226 
L 311.102335 179.343495 
L 312.266607 179.254203 
L 316.050491 178.869224 
L 317.505831 179.075545 
L 318.379035 179.237658 
L 320.416512 179.399617 
L 324.200396 179.174144 
L 325.0736 179.282108 
L 327.111076 179.798097 
L 327.402144 179.798097 
L 327.693212 179.965563 
L 330.312825 180.155543 
L 331.768165 180.017174 
L 334.387777 180.034765 
L 334.678845 180.199835 
L 335.552049 180.369643 
L 336.425253 180.704406 
L 337.589526 181.003575 
L 339.044866 181.093738 
L 341.664478 180.882356 
L 342.82875 180.950071 
L 343.993022 181.248058 
L 344.866226 181.609146 
L 345.73943 181.936198 
L 347.776907 182.475571 
L 348.941179 182.401056 
L 351.269723 182.22412 
L 353.016131 182.533371 
L 354.180403 182.991921 
L 354.76254 183.101655 
L 355.053608 183.221969 
L 355.926812 183.330187 
L 356.800016 183.275443 
L 357.67322 183.075638 
L 358.837492 182.799224 
L 360.292832 182.385644 
L 361.457104 181.978508 
L 362.03924 181.606177 
L 363.203512 180.922821 
L 363.494581 180.618328 
L 364.949921 180.025043 
L 365.823125 179.749654 
L 366.405261 179.655352 
L 366.696329 179.498568 
L 366.987397 179.498568 
L 367.860601 179.052702 
L 368.442737 178.629242 
L 368.733805 178.229999 
L 370.771281 176.847385 
L 371.644485 176.672173 
L 373.681962 176.524713 
L 375.137302 175.522142 
L 375.42837 175.062954 
L 375.719438 175.062954 
L 376.010506 174.634458 
L 377.174778 173.93706 
L 378.33905 173.985657 
L 379.503322 174.266332 
L 380.085458 174.2658 
L 380.958663 174.063058 
L 381.540799 173.630989 
L 382.122935 173.134048 
L 382.414003 172.709554 
L 383.578275 172.048505 
L 384.160411 171.823655 
L 385.033615 171.929049 
L 385.906819 172.284333 
L 386.488955 172.546652 
L 387.362159 172.62614 
L 388.526431 172.196881 
L 389.108567 171.748387 
L 389.399635 171.323692 
L 389.690704 171.323692 
L 389.981772 170.890984 
L 390.854976 170.199368 
L 391.146044 169.895707 
L 392.019248 169.636088 
L 393.18352 169.588911 
L 394.63886 169.571491 
L 396.0942 168.860599 
L 397.258472 167.7416 
L 398.713813 166.858959 
L 399.587017 166.826674 
L 401.915561 167.259786 
L 402.788765 167.028374 
L 403.079833 166.898691 
L 403.370901 166.473266 
L 403.661969 166.473266 
L 403.953037 166.087805 
L 405.408377 165.2389 
L 406.281581 165.132538 
L 406.863717 165.233259 
L 407.445854 165.532289 
L 408.901194 166.064223 
L 409.774398 166.003706 
L 410.356534 165.767605 
L 410.93867 165.276647 
L 411.811874 164.70387 
L 412.102942 164.270026 
L 412.39401 164.270026 
L 412.685078 163.969156 
L 413.84935 163.582985 
L 415.30469 163.604675 
L 415.595758 163.76152 
L 415.886827 163.76152 
L 416.468963 163.960666 
L 417.342167 164.028552 
L 417.924303 163.926834 
L 418.797507 163.595377 
L 419.379643 163.172826 
L 419.670711 162.78564 
L 420.834983 162.057681 
L 422.290323 162.049502 
L 422.581391 162.232495 
L 422.872459 162.232495 
L 423.163527 162.552703 
L 424.909936 162.751606 
L 425.78314 162.493866 
L 426.074208 162.209048 
L 426.365276 162.209048 
L 426.656344 161.723529 
L 427.529548 161.387269 
L 427.820616 161.213299 
L 429.275956 161.315133 
L 431.6045 163.549085 
L 431.895568 163.83796 
L 432.186636 163.924223 
L 432.186636 163.924223 
" clip-path="url(#pe62812770a)" style="fill: none; stroke: #0000ff; stroke-width: 1.5; stroke-linecap: square"/>
   </g>
   <g id="patch_8">
    <path d="M 58.106 190.3975 
L 58.106 139.92 
" style="fill: none; stroke: #000000; stroke-width: 0.8; stroke-linejoin: miter; stroke-linecap: square"/>
   </g>
   <g id="patch_9">
    <path d="M 450 190.3975 
L 450 139.92 
" style="fill: none; stroke: #000000; stroke-width: 0.8; stroke-linejoin: miter; stroke-linecap: square"/>
   </g>
   <g id="patch_10">
    <path d="M 58.106 190.3975 
L 450 190.3975 
" style="fill: none; stroke: #000000; stroke-width: 0.8; stroke-linejoin: miter; stroke-linecap: square"/>
   </g>
   <g id="patch_11">
    <path d="M 58.106 139.92 
L 450 139.92 
" style="fill: none; stroke: #000000; stroke-width: 0.8; stroke-linejoin: miter; stroke-linecap: square"/>
   </g>
   <g id="text_25">
    <!-- Error in $z$-position -->
    <g transform="translate(200.773 133.92)scale(0.12 -0.12)">
     <use xlink:href="#DejaVuSans-45" transform="translate(0 0.015625)"/>
     <use xlink:href="#DejaVuSans-72" transform="translate(63.183594 0.015625)"/>
     <use xlink:href="#DejaVuSans-72" transform="translate(104.296875 0.015625)"/>
     <use xlink:href="#DejaVuSans-6f" transform="translate(145.410156 0.015625)"/>
     <use xlink:href="#DejaVuSans-72" transform="translate(206.591797 0.015625)"/>
     <use xlink:href="#DejaVuSans-20" transform="translate(247.705078 0.015625)"/>
     <use xlink:href="#DejaVuSans-69" transform="translate(279.492188 0.015625)"/>
     <use xlink:href="#DejaVuSans-6e" transform="translate(307.275391 0.015625)"/>
     <use xlink:href="#DejaVuSans-20" transform="translate(370.654297 0.015625)"/>
     <use xlink:href="#DejaVuSans-Oblique-7a" transform="translate(402.441406 0.015625)"/>
     <use xlink:href="#DejaVuSans-2d" transform="translate(454.931641 0.015625)"/>
     <use xlink:href="#DejaVuSans-70" transform="translate(491.015625 0.015625)"/>
     <use xlink:href="#DejaVuSans-6f" transform="translate(554.492188 0.015625)"/>
     <use xlink:href="#DejaVuSans-73" transform="translate(615.673828 0.015625)"/>
     <use xlink:href="#DejaVuSans-69" transform="translate(667.773438 0.015625)"/>
     <use xlink:href="#DejaVuSans-74" transform="translate(695.556641 0.015625)"/>
     <use xlink:href="#DejaVuSans-69" transform="translate(734.765625 0.015625)"/>
     <use xlink:href="#DejaVuSans-6f" transform="translate(762.548828 0.015625)"/>
     <use xlink:href="#DejaVuSans-6e" transform="translate(823.730469 0.015625)"/>
    </g>
   </g>
  </g>
  <g id="axes_3">
   <g id="patch_12">
    <path d="M 58.106 301.9975 
L 450 301.9975 
L 450 251.52 
L 58.106 251.52 
z
" style="fill: #ffffff"/>
   </g>
   <g id="matplotlib.axis_5">
    <g id="xtick_15">
     <g id="line2d_41">
      <path d="M 75.919364 301.9975 
L 75.919364 251.52 
" clip-path="url(#p690063d34d)" style="fill: none; stroke: #b0b0b0; stroke-width: 0.8; stroke-linecap: square"/>
     </g>
     <g id="line2d_42">
      <g>
       <use xlink:href="#m39cae47a85" x="75.919364" y="301.9975" style="stroke: #000000; stroke-width: 0.8"/>
      </g>
     </g>
     <g id="text_26">
      <!-- 0 -->
      <g transform="translate(72.738114 316.595937)scale(0.1 -0.1)">
       <use xlink:href="#DejaVuSans-30"/>
      </g>
     </g>
    </g>
    <g id="xtick_16">
     <g id="line2d_43">
      <path d="M 134.085449 301.9975 
L 134.085449 251.52 
" clip-path="url(#p690063d34d)" style="fill: none; stroke: #b0b0b0; stroke-width: 0.8; stroke-linecap: square"/>
     </g>
     <g id="line2d_44">
      <g>
       <use xlink:href="#m39cae47a85" x="134.085449" y="301.9975" style="stroke: #000000; stroke-width: 0.8"/>
      </g>
     </g>
     <g id="text_27">
      <!-- 2 -->
      <g transform="translate(130.904199 316.595937)scale(0.1 -0.1)">
       <use xlink:href="#DejaVuSans-32"/>
      </g>
     </g>
    </g>
    <g id="xtick_17">
     <g id="line2d_45">
      <path d="M 192.251534 301.9975 
L 192.251534 251.52 
" clip-path="url(#p690063d34d)" style="fill: none; stroke: #b0b0b0; stroke-width: 0.8; stroke-linecap: square"/>
     </g>
     <g id="line2d_46">
      <g>
       <use xlink:href="#m39cae47a85" x="192.251534" y="301.9975" style="stroke: #000000; stroke-width: 0.8"/>
      </g>
     </g>
     <g id="text_28">
      <!-- 4 -->
      <g transform="translate(189.070284 316.595937)scale(0.1 -0.1)">
       <use xlink:href="#DejaVuSans-34"/>
      </g>
     </g>
    </g>
    <g id="xtick_18">
     <g id="line2d_47">
      <path d="M 250.41762 301.9975 
L 250.41762 251.52 
" clip-path="url(#p690063d34d)" style="fill: none; stroke: #b0b0b0; stroke-width: 0.8; stroke-linecap: square"/>
     </g>
     <g id="line2d_48">
      <g>
       <use xlink:href="#m39cae47a85" x="250.41762" y="301.9975" style="stroke: #000000; stroke-width: 0.8"/>
      </g>
     </g>
     <g id="text_29">
      <!-- 6 -->
      <g transform="translate(247.23637 316.595937)scale(0.1 -0.1)">
       <use xlink:href="#DejaVuSans-36"/>
      </g>
     </g>
    </g>
    <g id="xtick_19">
     <g id="line2d_49">
      <path d="M 308.583705 301.9975 
L 308.583705 251.52 
" clip-path="url(#p690063d34d)" style="fill: none; stroke: #b0b0b0; stroke-width: 0.8; stroke-linecap: square"/>
     </g>
     <g id="line2d_50">
      <g>
       <use xlink:href="#m39cae47a85" x="308.583705" y="301.9975" style="stroke: #000000; stroke-width: 0.8"/>
      </g>
     </g>
     <g id="text_30">
      <!-- 8 -->
      <g transform="translate(305.402455 316.595937)scale(0.1 -0.1)">
       <use xlink:href="#DejaVuSans-38"/>
      </g>
     </g>
    </g>
    <g id="xtick_20">
     <g id="line2d_51">
      <path d="M 366.74979 301.9975 
L 366.74979 251.52 
" clip-path="url(#p690063d34d)" style="fill: none; stroke: #b0b0b0; stroke-width: 0.8; stroke-linecap: square"/>
     </g>
     <g id="line2d_52">
      <g>
       <use xlink:href="#m39cae47a85" x="366.74979" y="301.9975" style="stroke: #000000; stroke-width: 0.8"/>
      </g>
     </g>
     <g id="text_31">
      <!-- 10 -->
      <g transform="translate(360.38729 316.595937)scale(0.1 -0.1)">
       <use xlink:href="#DejaVuSans-31"/>
       <use xlink:href="#DejaVuSans-30" x="63.623047"/>
      </g>
     </g>
    </g>
    <g id="xtick_21">
     <g id="line2d_53">
      <path d="M 424.915876 301.9975 
L 424.915876 251.52 
" clip-path="url(#p690063d34d)" style="fill: none; stroke: #b0b0b0; stroke-width: 0.8; stroke-linecap: square"/>
     </g>
     <g id="line2d_54">
      <g>
       <use xlink:href="#m39cae47a85" x="424.915876" y="301.9975" style="stroke: #000000; stroke-width: 0.8"/>
      </g>
     </g>
     <g id="text_32">
      <!-- 12 -->
      <g transform="translate(418.553376 316.595937)scale(0.1 -0.1)">
       <use xlink:href="#DejaVuSans-31"/>
       <use xlink:href="#DejaVuSans-32" x="63.623047"/>
      </g>
     </g>
    </g>
    <g id="text_33">
     <!-- $t$ [s] -->
     <g transform="translate(243.953 330.274063)scale(0.1 -0.1)">
      <use xlink:href="#DejaVuSans-Oblique-74" transform="translate(0 0.015625)"/>
      <use xlink:href="#DejaVuSans-20" transform="translate(39.208984 0.015625)"/>
      <use xlink:href="#DejaVuSans-5b" transform="translate(70.996094 0.015625)"/>
      <use xlink:href="#DejaVuSans-73" transform="translate(110.009766 0.015625)"/>
      <use xlink:href="#DejaVuSans-5d" transform="translate(162.109375 0.015625)"/>
     </g>
    </g>
   </g>
   <g id="matplotlib.axis_6">
    <g id="ytick_6">
     <g id="line2d_55">
      <path d="M 58.106 287.943104 
L 450 287.943104 
" clip-path="url(#p690063d34d)" style="fill: none; stroke: #b0b0b0; stroke-width: 0.8; stroke-linecap: square"/>
     </g>
     <g id="line2d_56">
      <g>
       <use xlink:href="#mb6dab8daa0" x="58.106" y="287.943104" style="stroke: #000000; stroke-width: 0.8"/>
      </g>
     </g>
     <g id="text_34">
      <!-- −0.1 -->
      <g transform="translate(26.823188 291.742323)scale(0.1 -0.1)">
       <use xlink:href="#DejaVuSans-2212"/>
       <use xlink:href="#DejaVuSans-30" x="83.789062"/>
       <use xlink:href="#DejaVuSans-2e" x="147.412109"/>
       <use xlink:href="#DejaVuSans-31" x="179.199219"/>
      </g>
     </g>
    </g>
    <g id="ytick_7">
     <g id="line2d_57">
      <path d="M 58.106 273.588151 
L 450 273.588151 
" clip-path="url(#p690063d34d)" style="fill: none; stroke: #b0b0b0; stroke-width: 0.8; stroke-linecap: square"/>
     </g>
     <g id="line2d_58">
      <g>
       <use xlink:href="#mb6dab8daa0" x="58.106" y="273.588151" style="stroke: #000000; stroke-width: 0.8"/>
      </g>
     </g>
     <g id="text_35">
      <!-- 0.0 -->
      <g transform="translate(35.202875 277.38737)scale(0.1 -0.1)">
       <use xlink:href="#DejaVuSans-30"/>
       <use xlink:href="#DejaVuSans-2e" x="63.623047"/>
       <use xlink:href="#DejaVuSans-30" x="95.410156"/>
      </g>
     </g>
    </g>
    <g id="ytick_8">
     <g id="line2d_59">
      <path d="M 58.106 259.233198 
L 450 259.233198 
" clip-path="url(#p690063d34d)" style="fill: none; stroke: #b0b0b0; stroke-width: 0.8; stroke-linecap: square"/>
     </g>
     <g id="line2d_60">
      <g>
       <use xlink:href="#mb6dab8daa0" x="58.106" y="259.233198" style="stroke: #000000; stroke-width: 0.8"/>
      </g>
     </g>
     <g id="text_36">
      <!-- 0.1 -->
      <g transform="translate(35.202875 263.032417)scale(0.1 -0.1)">
       <use xlink:href="#DejaVuSans-30"/>
       <use xlink:href="#DejaVuSans-2e" x="63.623047"/>
       <use xlink:href="#DejaVuSans-31" x="95.410156"/>
      </g>
     </g>
    </g>
    <g id="text_37">
     <!-- $e_\theta$ [rad] -->
     <g transform="translate(20.7435 295.90875)rotate(-90)scale(0.1 -0.1)">
      <defs>
       <path id="DejaVuSans-Oblique-3b8" d="M 2913 2219 
L 925 2219 
Q 791 1284 928 888 
Q 1100 400 1566 400 
Q 2034 400 2391 891 
Q 2703 1322 2913 2219 
z
M 3009 2750 
Q 3094 3638 2984 3950 
Q 2813 4444 2353 4444 
Q 1875 4444 1525 3956 
Q 1250 3563 1034 2750 
L 3009 2750 
z
M 2444 4913 
Q 3194 4913 3494 4250 
Q 3794 3591 3566 2422 
Q 3341 1256 2781 594 
Q 2225 -72 1475 -72 
Q 722 -72 425 594 
Q 128 1256 353 2422 
Q 581 3591 1134 4250 
Q 1691 4913 2444 4913 
z
" transform="scale(0.015625)"/>
       <path id="DejaVuSans-61" d="M 2194 1759 
Q 1497 1759 1228 1600 
Q 959 1441 959 1056 
Q 959 750 1161 570 
Q 1363 391 1709 391 
Q 2188 391 2477 730 
Q 2766 1069 2766 1631 
L 2766 1759 
L 2194 1759 
z
M 3341 1997 
L 3341 0 
L 2766 0 
L 2766 531 
Q 2569 213 2275 61 
Q 1981 -91 1556 -91 
Q 1019 -91 701 211 
Q 384 513 384 1019 
Q 384 1609 779 1909 
Q 1175 2209 1959 2209 
L 2766 2209 
L 2766 2266 
Q 2766 2663 2505 2880 
Q 2244 3097 1772 3097 
Q 1472 3097 1187 3025 
Q 903 2953 641 2809 
L 641 3341 
Q 956 3463 1253 3523 
Q 1550 3584 1831 3584 
Q 2591 3584 2966 3190 
Q 3341 2797 3341 1997 
z
" transform="scale(0.015625)"/>
       <path id="DejaVuSans-64" d="M 2906 2969 
L 2906 4863 
L 3481 4863 
L 3481 0 
L 2906 0 
L 2906 525 
Q 2725 213 2448 61 
Q 2172 -91 1784 -91 
Q 1150 -91 751 415 
Q 353 922 353 1747 
Q 353 2572 751 3078 
Q 1150 3584 1784 3584 
Q 2172 3584 2448 3432 
Q 2725 3281 2906 2969 
z
M 947 1747 
Q 947 1113 1208 752 
Q 1469 391 1925 391 
Q 2381 391 2643 752 
Q 2906 1113 2906 1747 
Q 2906 2381 2643 2742 
Q 2381 3103 1925 3103 
Q 1469 3103 1208 2742 
Q 947 2381 947 1747 
z
" transform="scale(0.015625)"/>
      </defs>
      <use xlink:href="#DejaVuSans-Oblique-65" transform="translate(0 0.015625)"/>
      <use xlink:href="#DejaVuSans-Oblique-3b8" transform="translate(61.523438 -16.390625)scale(0.7)"/>
      <use xlink:href="#DejaVuSans-20" transform="translate(107.084961 0.015625)"/>
      <use xlink:href="#DejaVuSans-5b" transform="translate(138.87207 0.015625)"/>
      <use xlink:href="#DejaVuSans-72" transform="translate(177.885742 0.015625)"/>
      <use xlink:href="#DejaVuSans-61" transform="translate(218.999023 0.015625)"/>
      <use xlink:href="#DejaVuSans-64" transform="translate(280.27832 0.015625)"/>
      <use xlink:href="#DejaVuSans-5d" transform="translate(343.754883 0.015625)"/>
     </g>
    </g>
   </g>
   <g id="line2d_61">
    <path d="M 75.919364 273.556963 
L 76.5015 273.050562 
L 76.792568 272.814906 
L 77.083636 272.814906 
L 77.95684 270.76929 
L 78.247908 269.288221 
L 78.538976 267.059271 
L 80.285384 260.80624 
L 80.86752 260.31698 
L 81.158588 260.262491 
L 81.449656 260.331536 
L 81.740724 260.658411 
L 82.32286 262.034215 
L 82.904996 263.384733 
L 83.487133 265.915143 
L 83.778201 266.389644 
L 84.069269 267.385676 
L 84.942473 273.673187 
L 85.233541 274.444909 
L 85.815677 277.753379 
L 86.397813 283.508317 
L 86.688881 285.362137 
L 86.979949 285.848728 
L 87.562085 287.194979 
L 88.144221 288.142861 
L 88.435289 288.721411 
L 89.599561 289.776069 
L 90.181697 289.977706 
L 90.472765 289.951575 
L 90.763833 289.778079 
L 91.054901 289.379893 
L 91.928105 284.277715 
L 92.219173 281.691274 
L 92.510242 280.784464 
L 92.80131 278.943241 
L 93.092378 275.311763 
L 93.383446 275.311763 
L 93.674514 270.213364 
L 93.965582 269.419052 
L 94.547718 266.390034 
L 94.838786 263.695405 
L 95.129854 263.695405 
L 95.420922 260.448604 
L 95.71199 260.019085 
L 96.294126 258.61791 
L 97.16733 257.155126 
L 97.749466 256.96945 
L 98.331602 256.994947 
L 98.62267 256.994947 
L 98.913738 257.45776 
L 99.204806 257.586121 
L 99.786942 258.259557 
L 100.660146 261.153778 
L 100.951214 261.547391 
L 101.533351 263.329655 
L 102.406555 269.514297 
L 102.697623 270.278777 
L 103.279759 273.52716 
L 103.570827 276.978018 
L 103.861895 276.978018 
L 104.152963 282.030822 
L 104.444031 282.842232 
L 105.026167 285.897757 
L 105.317235 288.343354 
L 105.608303 289.623181 
L 105.899371 290.320172 
L 106.481507 290.432124 
L 106.772575 290.20212 
L 107.645779 286.889517 
L 108.227915 283.527964 
L 108.518983 283.527964 
L 108.810051 281.126438 
L 109.392187 278.722323 
L 110.265392 273.801071 
L 110.847528 272.127631 
L 111.429664 270.92643 
L 111.720732 270.960143 
L 112.0118 271.330182 
L 112.593936 272.671074 
L 112.885004 273.551447 
L 113.758208 277.556744 
L 114.340344 278.734553 
L 114.631412 279.230859 
L 114.92248 279.319358 
L 115.213548 279.042767 
L 115.504616 279.042767 
L 116.668888 275.331677 
L 116.959956 274.030681 
L 117.251024 274.030681 
L 117.542092 272.208475 
L 118.124228 270.376802 
L 118.997433 266.399822 
L 119.870637 263.790047 
L 120.743841 259.897925 
L 121.617045 257.777375 
L 122.199181 256.683887 
L 122.490249 256.449029 
L 122.781317 256.573032 
L 123.072385 256.865299 
L 123.363453 257.322148 
L 123.654521 258.284187 
L 123.945589 259.980236 
L 125.983065 266.36352 
L 126.565201 266.690345 
L 126.856269 266.625053 
L 127.729474 265.783185 
L 128.020542 264.887573 
L 128.893746 263.3158 
L 129.184814 262.700965 
L 129.475882 262.700965 
L 129.76695 262.496166 
L 130.349086 262.719004 
L 130.640154 263.110648 
L 130.931222 263.813298 
L 131.22229 263.813298 
L 131.513358 264.575949 
L 132.386562 265.800285 
L 132.67763 266.385152 
L 132.968698 266.385152 
L 133.259766 266.851189 
L 134.13297 267.248153 
L 135.879378 267.717063 
L 136.170447 268.026326 
L 136.461515 268.576503 
L 137.916855 270.211055 
L 138.207923 270.211055 
L 138.790059 270.580996 
L 139.372195 270.90551 
L 139.663263 271.250663 
L 139.954331 271.250663 
L 140.536467 271.932969 
L 140.827535 272.203109 
L 141.409671 273.230049 
L 141.700739 273.230049 
L 141.991807 273.856758 
L 142.573943 274.65542 
L 143.156079 275.55633 
L 143.447147 275.55633 
L 143.738215 276.077038 
L 144.902488 276.93352 
L 145.775692 276.914012 
L 146.06676 276.77141 
L 146.939964 276.110301 
L 147.231032 275.386406 
L 147.5221 275.386406 
L 147.813168 273.872168 
L 148.104236 273.57058 
L 148.686372 272.259748 
L 148.97744 270.897931 
L 149.268508 270.897931 
L 149.559576 268.97999 
L 149.850644 268.67761 
L 151.014916 266.430569 
L 151.597052 265.706511 
L 151.88812 265.578343 
L 152.179188 265.299608 
L 153.34346 262.71132 
L 153.634529 262.41804 
L 153.925597 261.812791 
L 154.216665 260.57318 
L 154.798801 259.109628 
L 155.089869 258.321292 
L 155.380937 258.07409 
L 156.254141 256.785156 
L 156.836277 256.683167 
L 157.127345 256.859572 
L 157.418413 256.859572 
L 158.000549 257.362544 
L 159.455889 258.195049 
L 161.784433 258.553457 
L 162.36657 258.919929 
L 162.657638 259.300981 
L 162.948706 259.923318 
L 163.82191 260.996369 
L 164.112978 261.732042 
L 164.404046 261.732042 
L 164.695114 262.687434 
L 165.27725 263.077466 
L 166.150454 263.658392 
L 166.73259 263.787409 
L 167.896862 263.871509 
L 169.061134 264.566753 
L 169.352202 264.966184 
L 169.64327 265.590833 
L 171.098611 267.145476 
L 171.389679 267.231066 
L 171.971815 267.013718 
L 173.427155 266.186246 
L 174.009291 266.512356 
L 174.300359 266.875216 
L 174.591427 268.56911 
L 174.882495 268.56911 
L 175.173563 270.751461 
L 176.046767 275.06545 
L 176.337835 278.144852 
L 176.628903 278.144852 
L 176.919971 282.140938 
L 177.211039 282.638377 
L 177.793175 283.924261 
L 178.375311 283.916865 
L 178.666379 281.690584 
L 178.957447 281.138475 
L 179.539583 278.628984 
L 180.12172 273.870251 
L 180.412788 271.947744 
L 180.703856 271.352688 
L 181.57706 268.017593 
L 181.868128 267.853935 
L 182.159196 268.210361 
L 182.450264 269.237252 
L 182.741332 269.711236 
L 183.0324 270.82766 
L 183.323468 273.542532 
L 183.614536 273.542532 
L 183.905604 278.085154 
L 184.196672 278.817628 
L 185.069876 282.722589 
L 185.360944 282.722589 
L 185.652012 281.997348 
L 185.94308 281.573729 
L 186.525216 279.223155 
L 186.816284 277.734642 
L 187.107352 275.26535 
L 187.39842 271.759046 
L 188.853761 262.520788 
L 189.144829 260.002583 
L 189.726965 258.43993 
L 190.018033 258.103864 
L 190.309101 258.364958 
L 190.600169 258.364958 
L 190.891237 260.967165 
L 191.182305 261.604653 
L 191.764441 264.528159 
L 192.055509 267.811076 
L 192.346577 269.430605 
L 192.928713 273.634284 
L 193.219781 274.169913 
L 193.801917 275.59527 
L 194.092985 275.334353 
L 194.384053 274.725336 
L 194.675121 273.258389 
L 194.966189 270.570703 
L 195.257257 270.570703 
L 195.548325 267.420919 
L 196.130461 264.166971 
L 196.712597 258.86731 
L 197.003665 258.86731 
L 197.294734 256.332423 
L 197.87687 254.490072 
L 198.167938 253.96826 
L 198.459006 253.814432 
L 199.33221 257.067799 
L 200.205414 261.897489 
L 201.078618 269.707696 
L 201.951822 274.370271 
L 202.24289 274.370271 
L 202.533958 274.622992 
L 202.825026 274.367586 
L 203.407162 272.690548 
L 203.69823 269.586844 
L 203.989298 269.586844 
L 204.280366 266.820197 
L 205.15357 262.817206 
L 205.444638 260.176319 
L 205.735706 260.176319 
L 206.026775 258.959603 
L 206.317843 258.737786 
L 206.608911 258.802759 
L 206.899979 259.173291 
L 207.191047 261.407985 
L 207.482115 261.407985 
L 207.773183 264.288028 
L 208.646387 269.481575 
L 208.937455 273.5214 
L 209.228523 273.5214 
L 209.519591 276.02777 
L 210.101727 277.602776 
L 210.392795 277.956403 
L 210.683863 277.456489 
L 210.974931 277.456489 
L 211.557067 274.864372 
L 212.139203 272.568639 
L 212.430271 269.659001 
L 212.721339 269.659001 
L 213.012407 267.522674 
L 213.885611 264.995261 
L 214.176679 264.414435 
L 214.467747 264.775618 
L 214.758816 265.802104 
L 215.049884 266.275988 
L 215.63202 268.685914 
L 215.923088 272.433065 
L 216.214156 272.433065 
L 216.505224 275.494662 
L 217.378428 279.33347 
L 217.669496 280.588578 
L 217.960564 280.636334 
L 218.251632 279.993409 
L 218.5427 279.652337 
L 219.124836 277.798909 
L 219.99804 271.503052 
L 220.289108 270.844334 
L 220.871244 268.243559 
L 221.162312 265.920095 
L 221.744448 263.770313 
L 222.326584 263.546671 
L 222.617652 263.745601 
L 223.490857 267.749841 
L 223.781925 269.801941 
L 224.072993 270.521739 
L 224.364061 271.960643 
L 224.655129 274.570685 
L 225.237265 276.345788 
L 225.528333 276.867471 
L 225.819401 276.457967 
L 226.401537 274.916927 
L 227.274741 271.21278 
L 228.439013 263.314575 
L 229.603285 257.900548 
L 229.894353 257.788566 
L 230.185421 258.018141 
L 230.476489 258.571907 
L 230.767557 259.423678 
L 231.058625 262.61114 
L 231.349693 262.61114 
L 231.640761 265.8033 
L 232.805034 273.160553 
L 233.096102 273.160553 
L 233.38717 274.353396 
L 233.678238 274.258388 
L 233.969306 273.843475 
L 234.260374 273.157484 
L 234.551442 271.155861 
L 234.84251 271.155861 
L 235.133578 267.266847 
L 235.424646 266.583498 
L 236.006782 263.867036 
L 236.29785 261.371177 
L 236.588918 261.371177 
L 236.879986 258.721692 
L 237.462122 258.198979 
L 237.75319 258.220032 
L 238.044258 259.231829 
L 238.335326 259.231829 
L 238.626394 262.835183 
L 238.917462 263.615008 
L 239.499598 267.025062 
L 239.790666 270.549147 
L 240.954939 277.154542 
L 241.246007 277.154542 
L 241.537075 277.383936 
L 241.828143 277.016218 
L 242.119211 276.361226 
L 242.410279 274.945416 
L 242.701347 272.49167 
L 242.992415 272.49167 
L 243.283483 269.738676 
L 243.865619 266.941664 
L 244.447755 262.754632 
L 245.029891 261.290302 
L 245.320959 260.967347 
L 245.612027 260.949677 
L 245.903095 261.531346 
L 246.485231 264.66264 
L 247.358435 269.439376 
L 247.649503 271.140116 
L 248.231639 276.246567 
L 248.813775 277.989749 
L 249.104843 278.439077 
L 249.395911 278.545107 
L 249.68698 277.648173 
L 249.978048 277.648173 
L 250.560184 274.568068 
L 250.851252 273.244378 
L 252.015524 265.535033 
L 252.888728 262.239865 
L 253.179796 261.982179 
L 253.470864 262.355739 
L 254.053 263.980421 
L 254.344068 265.160431 
L 254.635136 267.267459 
L 254.926204 270.469529 
L 256.672612 280.007394 
L 256.96368 280.877041 
L 257.254748 280.768078 
L 257.545816 280.316846 
L 257.836884 279.559326 
L 258.127952 277.939592 
L 258.41902 275.143867 
L 259.874361 266.906874 
L 260.456497 261.962235 
L 261.038633 260.173958 
L 261.329701 259.682561 
L 261.620769 259.493214 
L 261.911837 259.799652 
L 263.367177 267.046824 
L 264.240381 274.928171 
L 265.113585 279.23264 
L 265.404653 280.546155 
L 265.695721 281.009147 
L 265.986789 280.677907 
L 266.277857 279.993123 
L 266.568925 279.00039 
L 266.859993 277.034741 
L 267.151061 273.81192 
L 267.44213 273.81192 
L 267.733198 270.238444 
L 268.315334 266.588818 
L 268.89747 260.767201 
L 269.188538 260.767201 
L 269.479606 258.239151 
L 269.770674 258.239151 
L 270.061742 256.420032 
L 270.35281 256.410136 
L 270.643878 256.656104 
L 270.934946 257.24653 
L 271.226014 260.05614 
L 271.517082 260.05614 
L 271.80815 263.290426 
L 272.681354 268.9053 
L 273.554558 276.617306 
L 274.136694 278.99349 
L 274.71883 280.289327 
L 275.009898 279.767659 
L 275.592034 277.982839 
L 276.174171 275.262246 
L 276.465239 272.853924 
L 276.756307 269.381975 
L 278.211647 260.226359 
L 278.502715 257.944996 
L 278.793783 257.208424 
L 279.084851 256.786495 
L 279.375919 256.695235 
L 279.666987 256.944838 
L 279.958055 257.937757 
L 280.540191 261.820768 
L 281.413395 267.202066 
L 282.286599 275.429423 
L 283.159803 279.516043 
L 283.450871 280.759585 
L 283.741939 281.283658 
L 284.033007 281.040447 
L 284.324075 280.481176 
L 284.615143 279.643062 
L 284.906212 277.952811 
L 285.19728 275.152449 
L 285.488348 275.152449 
L 285.779416 271.988754 
L 286.361552 268.709599 
L 286.943688 263.340663 
L 287.234756 263.340663 
L 287.525824 261.083624 
L 288.10796 259.839047 
L 288.399028 259.707097 
L 288.690096 260.644328 
L 288.981164 260.644328 
L 289.5633 264.030834 
L 289.854368 265.508835 
L 290.436504 271.195156 
L 290.727572 271.195156 
L 291.01864 274.336601 
L 292.182912 279.62975 
L 292.765048 279.603535 
L 293.056116 279.192245 
L 293.347184 278.133544 
L 293.638253 276.621514 
L 293.929321 276.034196 
L 294.220389 274.76262 
L 294.511457 271.936022 
L 294.802525 270.434518 
L 295.675729 264.080269 
L 295.966797 264.080269 
L 296.257865 262.163951 
L 296.548933 261.588688 
L 296.840001 261.265875 
L 297.422137 261.896126 
L 297.713205 262.634773 
L 299.168545 272.893771 
L 299.459613 272.893771 
L 299.750681 275.558558 
L 300.332817 278.170287 
L 300.914953 278.664208 
L 301.206021 278.682551 
L 301.497089 277.640629 
L 301.788157 277.640629 
L 302.370294 274.612858 
L 303.243498 270.415272 
L 304.116702 264.103111 
L 304.989906 261.11938 
L 305.280974 260.807682 
L 305.572042 261.101489 
L 305.86311 261.686324 
L 306.445246 263.63498 
L 306.736314 265.622957 
L 307.027382 268.72742 
L 309.064858 280.082784 
L 309.355926 280.445487 
L 309.646994 280.519295 
L 309.938062 280.302832 
L 310.22913 279.448444 
L 310.811266 276.08629 
L 311.684471 271.333746 
L 312.557675 263.857845 
L 313.430879 260.079976 
L 313.721947 258.981492 
L 314.013015 258.663449 
L 314.304083 259.012323 
L 314.595151 259.678053 
L 315.177287 261.817476 
L 315.468355 263.965933 
L 315.759423 267.256501 
L 317.505831 278.249393 
L 317.796899 280.57413 
L 318.379035 281.861268 
L 318.670103 282.031885 
L 318.961171 281.393488 
L 319.252239 280.102597 
L 319.543307 278.235639 
L 319.834376 277.5122 
L 320.416512 274.29651 
L 320.998648 268.153955 
L 321.289716 265.628913 
L 321.580784 264.815251 
L 322.745056 258.835171 
L 323.036124 258.693682 
L 323.327192 258.804425 
L 323.61826 259.256175 
L 323.909328 260.003832 
L 325.364668 271.347665 
L 325.655736 271.347665 
L 325.946804 274.821293 
L 326.52894 278.738715 
L 326.820008 280.525786 
L 327.111076 281.378966 
L 327.402144 281.378966 
L 327.693212 281.954707 
L 327.98428 281.756641 
L 328.275348 281.125136 
L 328.566417 280.206506 
L 328.857485 277.671516 
L 329.148553 277.671516 
L 329.439621 272.841003 
L 329.730689 271.974021 
L 330.312825 268.528668 
L 330.603893 265.284252 
L 331.477097 260.949718 
L 332.059233 260.430316 
L 332.350301 260.880733 
L 332.641369 261.580655 
L 333.805641 267.530449 
L 334.096709 270.9045 
L 334.387777 270.9045 
L 334.678845 275.945361 
L 334.969913 276.755259 
L 335.552049 279.780809 
L 335.843117 282.110641 
L 336.425253 283.398562 
L 337.007389 282.890639 
L 337.298458 282.139848 
L 338.46273 273.032607 
L 338.753798 272.097349 
L 339.044866 270.236547 
L 339.335934 266.688319 
L 339.627002 266.688319 
L 339.91807 262.329334 
L 340.209138 261.791208 
L 340.791274 260.3018 
L 341.082342 260.083915 
L 341.37341 260.466782 
L 341.664478 261.585276 
L 341.955546 263.225766 
L 342.246614 263.862623 
L 342.537682 265.232932 
L 342.82875 268.215319 
L 343.119818 269.763241 
L 343.701954 274.200594 
L 343.993022 274.893531 
L 344.28409 276.202744 
L 344.575158 278.380763 
L 345.157294 280.023032 
L 345.448362 280.310469 
L 345.73943 280.288336 
L 346.030499 280.053246 
L 346.903703 276.206932 
L 347.194771 274.251651 
L 347.485839 273.563756 
L 347.776907 272.170087 
L 348.067975 269.49535 
L 348.359043 269.49535 
L 348.650111 266.2973 
L 348.941179 265.888181 
L 349.814383 263.965947 
L 350.105451 263.965947 
L 350.978655 265.028259 
L 351.269723 265.643014 
L 351.560791 267.133568 
L 351.851859 267.133568 
L 352.142927 269.690947 
L 352.433995 270.118293 
L 353.016131 271.741542 
L 353.307199 273.103663 
L 354.180403 274.781427 
L 355.344676 275.158204 
L 355.635744 274.921384 
L 356.508948 274.652242 
L 357.091084 274.405044 
L 359.12856 273.635866 
L 359.419628 273.277356 
L 359.710696 272.600931 
L 360.001764 272.600931 
L 360.292832 271.717829 
L 361.166036 270.093904 
L 361.457104 269.183588 
L 361.748172 267.898386 
L 363.203512 264.814723 
L 363.494581 264.372156 
L 363.785649 264.36202 
L 364.076717 264.494481 
L 364.658853 265.137769 
L 364.949921 265.618158 
L 365.240989 266.485337 
L 365.532057 267.807714 
L 366.405261 269.798972 
L 366.696329 271.078781 
L 366.987397 271.078781 
L 367.278465 271.545532 
L 367.569533 271.546283 
L 367.860601 271.389041 
L 368.151669 271.08182 
L 368.442737 270.38193 
L 368.733805 269.152959 
L 369.898077 266.744832 
L 370.189145 266.439174 
L 370.480213 266.439174 
L 371.062349 266.97329 
L 371.353417 267.344172 
L 371.644485 268.017134 
L 371.935553 269.041605 
L 372.226622 269.041605 
L 372.51769 270.116002 
L 373.97303 272.514289 
L 374.555166 272.650515 
L 375.137302 272.495303 
L 375.42837 272.246515 
L 375.719438 272.246515 
L 376.010506 271.993734 
L 376.592642 271.862721 
L 376.88371 271.878358 
L 377.174778 272.049208 
L 377.465846 272.049208 
L 379.212254 273.969523 
L 379.503322 274.912979 
L 379.79439 275.453691 
L 380.376526 277.280203 
L 380.667594 277.602667 
L 380.958663 278.23596 
L 381.249731 279.350067 
L 381.831867 280.03756 
L 382.122935 280.170774 
L 382.996139 279.025722 
L 383.578275 277.899841 
L 384.160411 275.567503 
L 384.451479 275.567503 
L 384.742547 274.308736 
L 385.324683 273.295189 
L 385.906819 272.679453 
L 386.488955 273.084939 
L 387.071091 273.949734 
L 387.362159 274.862702 
L 387.653227 276.331506 
L 388.817499 279.261206 
L 389.108567 279.928321 
L 389.399635 280.116318 
L 389.690704 280.116318 
L 390.563908 277.746119 
L 390.854976 276.108107 
L 391.146044 273.661889 
L 392.019248 270.212579 
L 392.892452 267.823273 
L 393.18352 267.939811 
L 393.474588 268.265498 
L 394.056724 269.404853 
L 394.347792 270.150914 
L 395.512064 274.68099 
L 396.385268 276.564485 
L 396.676336 276.599956 
L 396.967404 276.270252 
L 397.54954 275.005835 
L 397.840608 274.131184 
L 398.131676 272.624349 
L 398.422745 270.472934 
L 399.295949 267.504645 
L 399.878085 265.899435 
L 400.169153 265.577568 
L 400.460221 265.727768 
L 401.042357 266.512958 
L 401.333425 267.083717 
L 402.497697 270.696791 
L 403.079833 271.694839 
L 403.370901 272.65838 
L 403.661969 272.65838 
L 403.953037 273.375392 
L 405.117309 274.883453 
L 405.408377 274.870288 
L 405.990513 274.345741 
L 406.863717 273.08232 
L 407.154786 272.5032 
L 409.192262 270.901502 
L 409.774398 270.85532 
L 411.229738 271.078084 
L 411.811874 271.394125 
L 412.102942 272.631673 
L 412.39401 272.631673 
L 412.685078 274.315972 
L 413.84935 278.333257 
L 414.140418 278.333257 
L 414.431486 278.494305 
L 414.722554 278.34596 
L 415.30469 277.388357 
L 415.595758 275.557069 
L 415.886827 275.557069 
L 416.177895 273.856686 
L 417.342167 270.523884 
L 417.633235 270.523884 
L 417.924303 270.689587 
L 418.506439 271.474931 
L 419.379643 273.198394 
L 419.670711 273.759495 
L 420.252847 273.819382 
L 420.543915 273.728531 
L 420.834983 273.507957 
L 421.126051 273.507957 
L 421.417119 273.280981 
L 421.999255 273.315601 
L 422.872459 273.526481 
L 423.745663 273.262093 
L 424.036731 273.212868 
L 424.618867 273.857552 
L 424.909936 274.738553 
L 425.201004 275.975251 
L 425.492072 276.454257 
L 425.78314 277.495275 
L 426.074208 279.860987 
L 426.365276 279.860987 
L 426.656344 283.999048 
L 426.947412 284.745393 
L 427.529548 287.788026 
L 427.820616 290.738782 
L 428.111684 290.738782 
L 428.402752 294.595788 
L 428.69382 295.162454 
L 429.858092 299.237043 
L 430.14916 299.689218 
L 430.440228 299.703068 
L 430.731296 299.596002 
L 431.022364 299.17636 
L 431.6045 295.271822 
L 431.895568 292.497684 
L 432.186636 291.45453 
L 432.186636 291.45453 
" clip-path="url(#p690063d34d)" style="fill: none; stroke: #008000; stroke-width: 1.5; stroke-linecap: square"/>
   </g>
   <g id="patch_13">
    <path d="M 58.106 301.9975 
L 58.106 251.52 
" style="fill: none; stroke: #000000; stroke-width: 0.8; stroke-linejoin: miter; stroke-linecap: square"/>
   </g>
   <g id="patch_14">
    <path d="M 450 301.9975 
L 450 251.52 
" style="fill: none; stroke: #000000; stroke-width: 0.8; stroke-linejoin: miter; stroke-linecap: square"/>
   </g>
   <g id="patch_15">
    <path d="M 58.106 301.9975 
L 450 301.9975 
" style="fill: none; stroke: #000000; stroke-width: 0.8; stroke-linejoin: miter; stroke-linecap: square"/>
   </g>
   <g id="patch_16">
    <path d="M 58.106 251.52 
L 450 251.52 
" style="fill: none; stroke: #000000; stroke-width: 0.8; stroke-linejoin: miter; stroke-linecap: square"/>
   </g>
   <g id="text_38">
    <!-- Error in swing angle -->
    <g transform="translate(194.282688 245.52)scale(0.12 -0.12)">
     <defs>
      <path id="DejaVuSans-77" d="M 269 3500 
L 844 3500 
L 1563 769 
L 2278 3500 
L 2956 3500 
L 3675 769 
L 4391 3500 
L 4966 3500 
L 4050 0 
L 3372 0 
L 2619 2869 
L 1863 0 
L 1184 0 
L 269 3500 
z
" transform="scale(0.015625)"/>
      <path id="DejaVuSans-67" d="M 2906 1791 
Q 2906 2416 2648 2759 
Q 2391 3103 1925 3103 
Q 1463 3103 1205 2759 
Q 947 2416 947 1791 
Q 947 1169 1205 825 
Q 1463 481 1925 481 
Q 2391 481 2648 825 
Q 2906 1169 2906 1791 
z
M 3481 434 
Q 3481 -459 3084 -895 
Q 2688 -1331 1869 -1331 
Q 1566 -1331 1297 -1286 
Q 1028 -1241 775 -1147 
L 775 -588 
Q 1028 -725 1275 -790 
Q 1522 -856 1778 -856 
Q 2344 -856 2625 -561 
Q 2906 -266 2906 331 
L 2906 616 
Q 2728 306 2450 153 
Q 2172 0 1784 0 
Q 1141 0 747 490 
Q 353 981 353 1791 
Q 353 2603 747 3093 
Q 1141 3584 1784 3584 
Q 2172 3584 2450 3431 
Q 2728 3278 2906 2969 
L 2906 3500 
L 3481 3500 
L 3481 434 
z
" transform="scale(0.015625)"/>
      <path id="DejaVuSans-6c" d="M 603 4863 
L 1178 4863 
L 1178 0 
L 603 0 
L 603 4863 
z
" transform="scale(0.015625)"/>
      <path id="DejaVuSans-65" d="M 3597 1894 
L 3597 1613 
L 953 1613 
Q 991 1019 1311 708 
Q 1631 397 2203 397 
Q 2534 397 2845 478 
Q 3156 559 3463 722 
L 3463 178 
Q 3153 47 2828 -22 
Q 2503 -91 2169 -91 
Q 1331 -91 842 396 
Q 353 884 353 1716 
Q 353 2575 817 3079 
Q 1281 3584 2069 3584 
Q 2775 3584 3186 3129 
Q 3597 2675 3597 1894 
z
M 3022 2063 
Q 3016 2534 2758 2815 
Q 2500 3097 2075 3097 
Q 1594 3097 1305 2825 
Q 1016 2553 972 2059 
L 3022 2063 
z
" transform="scale(0.015625)"/>
     </defs>
     <use xlink:href="#DejaVuSans-45"/>
     <use xlink:href="#DejaVuSans-72" x="63.183594"/>
     <use xlink:href="#DejaVuSans-72" x="102.546875"/>
     <use xlink:href="#DejaVuSans-6f" x="141.410156"/>
     <use xlink:href="#DejaVuSans-72" x="202.591797"/>
     <use xlink:href="#DejaVuSans-20" x="243.705078"/>
     <use xlink:href="#DejaVuSans-69" x="275.492188"/>
     <use xlink:href="#DejaVuSans-6e" x="303.275391"/>
     <use xlink:href="#DejaVuSans-20" x="366.654297"/>
     <use xlink:href="#DejaVuSans-73" x="398.441406"/>
     <use xlink:href="#DejaVuSans-77" x="450.541016"/>
     <use xlink:href="#DejaVuSans-69" x="532.328125"/>
     <use xlink:href="#DejaVuSans-6e" x="560.111328"/>
     <use xlink:href="#DejaVuSans-67" x="623.490234"/>
     <use xlink:href="#DejaVuSans-20" x="686.966797"/>
     <use xlink:href="#DejaVuSans-61" x="718.753906"/>
     <use xlink:href="#DejaVuSans-6e" x="780.033203"/>
     <use xlink:href="#DejaVuSans-67" x="843.412109"/>
     <use xlink:href="#DejaVuSans-6c" x="906.888672"/>
     <use xlink:href="#DejaVuSans-65" x="934.671875"/>
    </g>
   </g>
  </g>
 </g>
 <defs>
  <clipPath id="pbdfcbcb3c2">
   <rect x="58.106" y="28.32" width="391.894" height="50.4775"/>
  </clipPath>
  <clipPath id="pe62812770a">
   <rect x="58.106" y="139.92" width="391.894" height="50.4775"/>
  </clipPath>
  <clipPath id="p690063d34d">
   <rect x="58.106" y="251.52" width="391.894" height="50.4775"/>
  </clipPath>
 </defs>
</svg>
