<?xml version="1.0" encoding="utf-8" standalone="no"?>
<!DOCTYPE svg PUBLIC "-//W3C//DTD SVG 1.1//EN"
  "http://www.w3.org/Graphics/SVG/1.1/DTD/svg11.dtd">
<svg xmlns:xlink="http://www.w3.org/1999/xlink" width="460.8pt" height="345.6pt" viewBox="0 0 460.8 345.6" xmlns="http://www.w3.org/2000/svg" version="1.1">
 <metadata>
  <rdf:RDF xmlns:dc="http://purl.org/dc/elements/1.1/" xmlns:cc="http://creativecommons.org/ns#" xmlns:rdf="http://www.w3.org/1999/02/22-rdf-syntax-ns#">
   <cc:Work>
    <dc:type rdf:resource="http://purl.org/dc/dcmitype/StillImage"/>
    <dc:date>2022-06-05T14:31:25.446826</dc:date>
    <dc:format>image/svg+xml</dc:format>
    <dc:creator>
     <cc:Agent>
      <dc:title>Matplotlib v3.5.1, https://matplotlib.org/</dc:title>
     </cc:Agent>
    </dc:creator>
   </cc:Work>
  </rdf:RDF>
 </metadata>
 <defs>
  <style type="text/css">*{stroke-linejoin: round; stroke-linecap: butt}</style>
 </defs>
 <g id="figure_1">
  <g id="patch_1">
   <path d="M 0 345.6 
L 460.8 345.6 
L 460.8 0 
L 0 0 
z
" style="fill: #ffffff"/>
  </g>
  <g id="axes_1">
   <g id="patch_2">
    <path d="M 58.106 78.7975 
L 450 78.7975 
L 450 28.32 
L 58.106 28.32 
z
" style="fill: #ffffff"/>
   </g>
   <g id="matplotlib.axis_1">
    <g id="xtick_1">
     <g id="line2d_1">
      <path d="M 75.919364 78.7975 
L 75.919364 28.32 
" clip-path="url(#pdc3a4486ed)" style="fill: none; stroke: #b0b0b0; stroke-width: 0.8; stroke-linecap: square"/>
     </g>
     <g id="line2d_2">
      <defs>
       <path id="m440b7b8daf" d="M 0 0 
L 0 3.5 
" style="stroke: #000000; stroke-width: 0.8"/>
      </defs>
      <g>
       <use xlink:href="#m440b7b8daf" x="75.919364" y="78.7975" style="stroke: #000000; stroke-width: 0.8"/>
      </g>
     </g>
     <g id="text_1">
      <!-- 0 -->
      <g transform="translate(72.738114 93.395937)scale(0.1 -0.1)">
       <defs>
        <path id="DejaVuSans-30" d="M 2034 4250 
Q 1547 4250 1301 3770 
Q 1056 3291 1056 2328 
Q 1056 1369 1301 889 
Q 1547 409 2034 409 
Q 2525 409 2770 889 
Q 3016 1369 3016 2328 
Q 3016 3291 2770 3770 
Q 2525 4250 2034 4250 
z
M 2034 4750 
Q 2819 4750 3233 4129 
Q 3647 3509 3647 2328 
Q 3647 1150 3233 529 
Q 2819 -91 2034 -91 
Q 1250 -91 836 529 
Q 422 1150 422 2328 
Q 422 3509 836 4129 
Q 1250 4750 2034 4750 
z
" transform="scale(0.015625)"/>
       </defs>
       <use xlink:href="#DejaVuSans-30"/>
      </g>
     </g>
    </g>
    <g id="xtick_2">
     <g id="line2d_3">
      <path d="M 136.150517 78.7975 
L 136.150517 28.32 
" clip-path="url(#pdc3a4486ed)" style="fill: none; stroke: #b0b0b0; stroke-width: 0.8; stroke-linecap: square"/>
     </g>
     <g id="line2d_4">
      <g>
       <use xlink:href="#m440b7b8daf" x="136.150517" y="78.7975" style="stroke: #000000; stroke-width: 0.8"/>
      </g>
     </g>
     <g id="text_2">
      <!-- 2 -->
      <g transform="translate(132.969267 93.395937)scale(0.1 -0.1)">
       <defs>
        <path id="DejaVuSans-32" d="M 1228 531 
L 3431 531 
L 3431 0 
L 469 0 
L 469 531 
Q 828 903 1448 1529 
Q 2069 2156 2228 2338 
Q 2531 2678 2651 2914 
Q 2772 3150 2772 3378 
Q 2772 3750 2511 3984 
Q 2250 4219 1831 4219 
Q 1534 4219 1204 4116 
Q 875 4013 500 3803 
L 500 4441 
Q 881 4594 1212 4672 
Q 1544 4750 1819 4750 
Q 2544 4750 2975 4387 
Q 3406 4025 3406 3419 
Q 3406 3131 3298 2873 
Q 3191 2616 2906 2266 
Q 2828 2175 2409 1742 
Q 1991 1309 1228 531 
z
" transform="scale(0.015625)"/>
       </defs>
       <use xlink:href="#DejaVuSans-32"/>
      </g>
     </g>
    </g>
    <g id="xtick_3">
     <g id="line2d_5">
      <path d="M 196.381671 78.7975 
L 196.381671 28.32 
" clip-path="url(#pdc3a4486ed)" style="fill: none; stroke: #b0b0b0; stroke-width: 0.8; stroke-linecap: square"/>
     </g>
     <g id="line2d_6">
      <g>
       <use xlink:href="#m440b7b8daf" x="196.381671" y="78.7975" style="stroke: #000000; stroke-width: 0.8"/>
      </g>
     </g>
     <g id="text_3">
      <!-- 4 -->
      <g transform="translate(193.200421 93.395937)scale(0.1 -0.1)">
       <defs>
        <path id="DejaVuSans-34" d="M 2419 4116 
L 825 1625 
L 2419 1625 
L 2419 4116 
z
M 2253 4666 
L 3047 4666 
L 3047 1625 
L 3713 1625 
L 3713 1100 
L 3047 1100 
L 3047 0 
L 2419 0 
L 2419 1100 
L 313 1100 
L 313 1709 
L 2253 4666 
z
" transform="scale(0.015625)"/>
       </defs>
       <use xlink:href="#DejaVuSans-34"/>
      </g>
     </g>
    </g>
    <g id="xtick_4">
     <g id="line2d_7">
      <path d="M 256.612824 78.7975 
L 256.612824 28.32 
" clip-path="url(#pdc3a4486ed)" style="fill: none; stroke: #b0b0b0; stroke-width: 0.8; stroke-linecap: square"/>
     </g>
     <g id="line2d_8">
      <g>
       <use xlink:href="#m440b7b8daf" x="256.612824" y="78.7975" style="stroke: #000000; stroke-width: 0.8"/>
      </g>
     </g>
     <g id="text_4">
      <!-- 6 -->
      <g transform="translate(253.431574 93.395937)scale(0.1 -0.1)">
       <defs>
        <path id="DejaVuSans-36" d="M 2113 2584 
Q 1688 2584 1439 2293 
Q 1191 2003 1191 1497 
Q 1191 994 1439 701 
Q 1688 409 2113 409 
Q 2538 409 2786 701 
Q 3034 994 3034 1497 
Q 3034 2003 2786 2293 
Q 2538 2584 2113 2584 
z
M 3366 4563 
L 3366 3988 
Q 3128 4100 2886 4159 
Q 2644 4219 2406 4219 
Q 1781 4219 1451 3797 
Q 1122 3375 1075 2522 
Q 1259 2794 1537 2939 
Q 1816 3084 2150 3084 
Q 2853 3084 3261 2657 
Q 3669 2231 3669 1497 
Q 3669 778 3244 343 
Q 2819 -91 2113 -91 
Q 1303 -91 875 529 
Q 447 1150 447 2328 
Q 447 3434 972 4092 
Q 1497 4750 2381 4750 
Q 2619 4750 2861 4703 
Q 3103 4656 3366 4563 
z
" transform="scale(0.015625)"/>
       </defs>
       <use xlink:href="#DejaVuSans-36"/>
      </g>
     </g>
    </g>
    <g id="xtick_5">
     <g id="line2d_9">
      <path d="M 316.843977 78.7975 
L 316.843977 28.32 
" clip-path="url(#pdc3a4486ed)" style="fill: none; stroke: #b0b0b0; stroke-width: 0.8; stroke-linecap: square"/>
     </g>
     <g id="line2d_10">
      <g>
       <use xlink:href="#m440b7b8daf" x="316.843977" y="78.7975" style="stroke: #000000; stroke-width: 0.8"/>
      </g>
     </g>
     <g id="text_5">
      <!-- 8 -->
      <g transform="translate(313.662727 93.395937)scale(0.1 -0.1)">
       <defs>
        <path id="DejaVuSans-38" d="M 2034 2216 
Q 1584 2216 1326 1975 
Q 1069 1734 1069 1313 
Q 1069 891 1326 650 
Q 1584 409 2034 409 
Q 2484 409 2743 651 
Q 3003 894 3003 1313 
Q 3003 1734 2745 1975 
Q 2488 2216 2034 2216 
z
M 1403 2484 
Q 997 2584 770 2862 
Q 544 3141 544 3541 
Q 544 4100 942 4425 
Q 1341 4750 2034 4750 
Q 2731 4750 3128 4425 
Q 3525 4100 3525 3541 
Q 3525 3141 3298 2862 
Q 3072 2584 2669 2484 
Q 3125 2378 3379 2068 
Q 3634 1759 3634 1313 
Q 3634 634 3220 271 
Q 2806 -91 2034 -91 
Q 1263 -91 848 271 
Q 434 634 434 1313 
Q 434 1759 690 2068 
Q 947 2378 1403 2484 
z
M 1172 3481 
Q 1172 3119 1398 2916 
Q 1625 2713 2034 2713 
Q 2441 2713 2670 2916 
Q 2900 3119 2900 3481 
Q 2900 3844 2670 4047 
Q 2441 4250 2034 4250 
Q 1625 4250 1398 4047 
Q 1172 3844 1172 3481 
z
" transform="scale(0.015625)"/>
       </defs>
       <use xlink:href="#DejaVuSans-38"/>
      </g>
     </g>
    </g>
    <g id="xtick_6">
     <g id="line2d_11">
      <path d="M 377.075131 78.7975 
L 377.075131 28.32 
" clip-path="url(#pdc3a4486ed)" style="fill: none; stroke: #b0b0b0; stroke-width: 0.8; stroke-linecap: square"/>
     </g>
     <g id="line2d_12">
      <g>
       <use xlink:href="#m440b7b8daf" x="377.075131" y="78.7975" style="stroke: #000000; stroke-width: 0.8"/>
      </g>
     </g>
     <g id="text_6">
      <!-- 10 -->
      <g transform="translate(370.712631 93.395937)scale(0.1 -0.1)">
       <defs>
        <path id="DejaVuSans-31" d="M 794 531 
L 1825 531 
L 1825 4091 
L 703 3866 
L 703 4441 
L 1819 4666 
L 2450 4666 
L 2450 531 
L 3481 531 
L 3481 0 
L 794 0 
L 794 531 
z
" transform="scale(0.015625)"/>
       </defs>
       <use xlink:href="#DejaVuSans-31"/>
       <use xlink:href="#DejaVuSans-30" x="63.623047"/>
      </g>
     </g>
    </g>
    <g id="xtick_7">
     <g id="line2d_13">
      <path d="M 437.306284 78.7975 
L 437.306284 28.32 
" clip-path="url(#pdc3a4486ed)" style="fill: none; stroke: #b0b0b0; stroke-width: 0.8; stroke-linecap: square"/>
     </g>
     <g id="line2d_14">
      <g>
       <use xlink:href="#m440b7b8daf" x="437.306284" y="78.7975" style="stroke: #000000; stroke-width: 0.8"/>
      </g>
     </g>
     <g id="text_7">
      <!-- 12 -->
      <g transform="translate(430.943784 93.395937)scale(0.1 -0.1)">
       <use xlink:href="#DejaVuSans-31"/>
       <use xlink:href="#DejaVuSans-32" x="63.623047"/>
      </g>
     </g>
    </g>
    <g id="text_8">
     <!-- $t$ [s] -->
     <g transform="translate(243.953 107.074062)scale(0.1 -0.1)">
      <defs>
       <path id="DejaVuSans-Oblique-74" d="M 2706 3500 
L 2619 3053 
L 1472 3053 
L 1100 1153 
Q 1081 1047 1072 975 
Q 1063 903 1063 863 
Q 1063 663 1183 572 
Q 1303 481 1569 481 
L 2150 481 
L 2053 0 
L 1503 0 
Q 991 0 739 200 
Q 488 400 488 806 
Q 488 878 497 964 
Q 506 1050 525 1153 
L 897 3053 
L 409 3053 
L 500 3500 
L 978 3500 
L 1172 4494 
L 1747 4494 
L 1556 3500 
L 2706 3500 
z
" transform="scale(0.015625)"/>
       <path id="DejaVuSans-20" transform="scale(0.015625)"/>
       <path id="DejaVuSans-5b" d="M 550 4863 
L 1875 4863 
L 1875 4416 
L 1125 4416 
L 1125 -397 
L 1875 -397 
L 1875 -844 
L 550 -844 
L 550 4863 
z
" transform="scale(0.015625)"/>
       <path id="DejaVuSans-73" d="M 2834 3397 
L 2834 2853 
Q 2591 2978 2328 3040 
Q 2066 3103 1784 3103 
Q 1356 3103 1142 2972 
Q 928 2841 928 2578 
Q 928 2378 1081 2264 
Q 1234 2150 1697 2047 
L 1894 2003 
Q 2506 1872 2764 1633 
Q 3022 1394 3022 966 
Q 3022 478 2636 193 
Q 2250 -91 1575 -91 
Q 1294 -91 989 -36 
Q 684 19 347 128 
L 347 722 
Q 666 556 975 473 
Q 1284 391 1588 391 
Q 1994 391 2212 530 
Q 2431 669 2431 922 
Q 2431 1156 2273 1281 
Q 2116 1406 1581 1522 
L 1381 1569 
Q 847 1681 609 1914 
Q 372 2147 372 2553 
Q 372 3047 722 3315 
Q 1072 3584 1716 3584 
Q 2034 3584 2315 3537 
Q 2597 3491 2834 3397 
z
" transform="scale(0.015625)"/>
       <path id="DejaVuSans-5d" d="M 1947 4863 
L 1947 -844 
L 622 -844 
L 622 -397 
L 1369 -397 
L 1369 4416 
L 622 4416 
L 622 4863 
L 1947 4863 
z
" transform="scale(0.015625)"/>
      </defs>
      <use xlink:href="#DejaVuSans-Oblique-74" transform="translate(0 0.015625)"/>
      <use xlink:href="#DejaVuSans-20" transform="translate(39.208984 0.015625)"/>
      <use xlink:href="#DejaVuSans-5b" transform="translate(70.996094 0.015625)"/>
      <use xlink:href="#DejaVuSans-73" transform="translate(110.009766 0.015625)"/>
      <use xlink:href="#DejaVuSans-5d" transform="translate(162.109375 0.015625)"/>
     </g>
    </g>
   </g>
   <g id="matplotlib.axis_2">
    <g id="ytick_1">
     <g id="line2d_15">
      <path d="M 58.106 76.385739 
L 450 76.385739 
" clip-path="url(#pdc3a4486ed)" style="fill: none; stroke: #b0b0b0; stroke-width: 0.8; stroke-linecap: square"/>
     </g>
     <g id="line2d_16">
      <defs>
       <path id="m41178de2b7" d="M 0 0 
L -3.5 0 
" style="stroke: #000000; stroke-width: 0.8"/>
      </defs>
      <g>
       <use xlink:href="#m41178de2b7" x="58.106" y="76.385739" style="stroke: #000000; stroke-width: 0.8"/>
      </g>
     </g>
     <g id="text_9">
      <!-- 0 -->
      <g transform="translate(44.7435 80.184958)scale(0.1 -0.1)">
       <use xlink:href="#DejaVuSans-30"/>
      </g>
     </g>
    </g>
    <g id="ytick_2">
     <g id="line2d_17">
      <path d="M 58.106 30.614432 
L 450 30.614432 
" clip-path="url(#pdc3a4486ed)" style="fill: none; stroke: #b0b0b0; stroke-width: 0.8; stroke-linecap: square"/>
     </g>
     <g id="line2d_18">
      <g>
       <use xlink:href="#m41178de2b7" x="58.106" y="30.614432" style="stroke: #000000; stroke-width: 0.8"/>
      </g>
     </g>
     <g id="text_10">
      <!-- 10 -->
      <g transform="translate(38.381 34.413651)scale(0.1 -0.1)">
       <use xlink:href="#DejaVuSans-31"/>
       <use xlink:href="#DejaVuSans-30" x="63.623047"/>
      </g>
     </g>
    </g>
    <g id="text_11">
     <!-- $e_x$ [m] -->
     <g transform="translate(32.301313 69.20875)rotate(-90)scale(0.1 -0.1)">
      <defs>
       <path id="DejaVuSans-Oblique-65" d="M 3078 2063 
Q 3088 2113 3092 2166 
Q 3097 2219 3097 2272 
Q 3097 2653 2873 2875 
Q 2650 3097 2266 3097 
Q 1838 3097 1509 2826 
Q 1181 2556 1013 2059 
L 3078 2063 
z
M 3578 1613 
L 903 1613 
Q 884 1494 878 1425 
Q 872 1356 872 1306 
Q 872 872 1139 634 
Q 1406 397 1894 397 
Q 2269 397 2603 481 
Q 2938 566 3225 728 
L 3116 159 
Q 2806 34 2476 -28 
Q 2147 -91 1806 -91 
Q 1078 -91 686 257 
Q 294 606 294 1247 
Q 294 1794 489 2264 
Q 684 2734 1063 3103 
Q 1306 3334 1642 3459 
Q 1978 3584 2356 3584 
Q 2950 3584 3301 3228 
Q 3653 2872 3653 2272 
Q 3653 2128 3634 1964 
Q 3616 1800 3578 1613 
z
" transform="scale(0.015625)"/>
       <path id="DejaVuSans-Oblique-78" d="M 3841 3500 
L 2234 1784 
L 3219 0 
L 2559 0 
L 1819 1388 
L 531 0 
L -166 0 
L 1556 1844 
L 641 3500 
L 1300 3500 
L 1972 2234 
L 3144 3500 
L 3841 3500 
z
" transform="scale(0.015625)"/>
       <path id="DejaVuSans-6d" d="M 3328 2828 
Q 3544 3216 3844 3400 
Q 4144 3584 4550 3584 
Q 5097 3584 5394 3201 
Q 5691 2819 5691 2113 
L 5691 0 
L 5113 0 
L 5113 2094 
Q 5113 2597 4934 2840 
Q 4756 3084 4391 3084 
Q 3944 3084 3684 2787 
Q 3425 2491 3425 1978 
L 3425 0 
L 2847 0 
L 2847 2094 
Q 2847 2600 2669 2842 
Q 2491 3084 2119 3084 
Q 1678 3084 1418 2786 
Q 1159 2488 1159 1978 
L 1159 0 
L 581 0 
L 581 3500 
L 1159 3500 
L 1159 2956 
Q 1356 3278 1631 3431 
Q 1906 3584 2284 3584 
Q 2666 3584 2933 3390 
Q 3200 3197 3328 2828 
z
" transform="scale(0.015625)"/>
      </defs>
      <use xlink:href="#DejaVuSans-Oblique-65" transform="translate(0 0.015625)"/>
      <use xlink:href="#DejaVuSans-Oblique-78" transform="translate(61.523438 -16.390625)scale(0.7)"/>
      <use xlink:href="#DejaVuSans-20" transform="translate(105.683594 0.015625)"/>
      <use xlink:href="#DejaVuSans-5b" transform="translate(137.470703 0.015625)"/>
      <use xlink:href="#DejaVuSans-6d" transform="translate(176.484375 0.015625)"/>
      <use xlink:href="#DejaVuSans-5d" transform="translate(273.896484 0.015625)"/>
     </g>
    </g>
   </g>
   <g id="line2d_19">
    <path d="M 75.919364 30.614432 
L 83.153217 30.721896 
L 91.894123 31.067157 
L 94.003997 31.150666 
L 95.51105 31.274744 
L 99.127976 31.619935 
L 103.046313 32.068902 
L 105.457598 32.398515 
L 106.66324 32.580622 
L 109.074524 32.961014 
L 109.978756 33.113024 
L 112.992862 33.563479 
L 114.198504 33.75856 
L 116.609788 34.184003 
L 117.51402 34.372357 
L 119.925304 34.867262 
L 120.829536 35.149998 
L 121.733768 35.295334 
L 122.637999 35.5913 
L 123.542231 35.741097 
L 124.747873 36.104098 
L 126.857747 36.658552 
L 127.159158 36.658552 
L 127.761979 36.847085 
L 130.173263 37.460681 
L 132.885958 38.259899 
L 134.995832 38.824031 
L 136.804295 39.311332 
L 138.914169 39.846953 
L 141.626864 40.574609 
L 144.94238 41.333897 
L 145.846612 41.561659 
L 148.559307 42.18081 
L 149.463538 42.405113 
L 152.477644 43.072649 
L 153.381876 43.292045 
L 156.094571 43.887151 
L 156.998802 44.100021 
L 159.410087 44.619524 
L 160.314318 44.822226 
L 163.027013 45.370826 
L 163.931245 45.56887 
L 166.64394 46.16529 
L 167.246761 46.264642 
L 169.959456 46.80035 
L 170.863688 46.988691 
L 173.877793 47.546781 
L 174.782025 47.733685 
L 177.49472 48.238796 
L 178.398951 48.417206 
L 180.810236 48.841417 
L 182.015878 49.09253 
L 185.029984 49.662233 
L 187.742679 50.152073 
L 189.852552 50.543539 
L 190.756784 50.778001 
L 191.661016 50.894854 
L 192.565247 51.125776 
L 193.469479 51.239579 
L 194.675121 51.510197 
L 195.579353 51.668803 
L 197.689227 52.086199 
L 199.196279 52.367331 
L 199.49769 52.367331 
L 200.100511 52.529542 
L 203.114617 53.094461 
L 205.827312 53.638356 
L 206.731543 53.729414 
L 207.334364 53.888009 
L 210.047059 54.395916 
L 212.759754 54.870286 
L 215.472449 55.352796 
L 216.376681 55.527773 
L 219.390786 56.035346 
L 220.295018 56.202047 
L 223.007713 56.673939 
L 223.911945 56.849001 
L 226.323229 57.276907 
L 227.227461 57.442481 
L 229.940156 57.900912 
L 230.844387 58.073453 
L 233.557082 58.551841 
L 234.461314 58.720691 
L 236.872599 59.131522 
L 237.77683 59.296976 
L 240.489525 59.76437 
L 241.393757 59.933686 
L 245.914915 60.664451 
L 249.230431 61.245853 
L 253.148768 61.869461 
L 254.053 62.042468 
L 256.765695 62.464207 
L 257.971337 62.688137 
L 261.588264 63.259563 
L 262.793906 63.444889 
L 265.506601 63.872526 
L 266.410833 64.031922 
L 273.041865 65.010436 
L 274.247507 65.19384 
L 276.658791 65.575033 
L 277.563023 65.725066 
L 282.385592 66.419468 
L 285.399697 66.856368 
L 286.002519 66.964204 
L 287.509571 67.140558 
L 288.715214 67.309058 
L 292.934961 67.843773 
L 293.537782 67.958174 
L 296.551888 68.350799 
L 297.154709 68.469043 
L 302.278688 69.137304 
L 306.498436 69.724563 
L 307.402668 69.819472 
L 312.225237 70.409039 
L 314.0337 70.683739 
L 320.664732 71.512533 
L 321.870374 71.668345 
L 326.391533 72.247905 
L 330.912691 72.827616 
L 332.419744 73.012652 
L 335.73526 73.432751 
L 342.667702 74.220478 
L 346.284629 74.645976 
L 347.490271 74.743095 
L 364.369262 75.937631 
L 377.631326 76.258511 
L 387.577875 76.182387 
L 392.099033 76.085719 
L 416.513288 75.849838 
L 422.541499 76.017122 
L 428.56971 76.346511 
L 432.186636 76.503068 
L 432.186636 76.503068 
" clip-path="url(#pdc3a4486ed)" style="fill: none; stroke: #ff0000; stroke-width: 1.5; stroke-linecap: square"/>
   </g>
   <g id="patch_3">
    <path d="M 58.106 78.7975 
L 58.106 28.32 
" style="fill: none; stroke: #000000; stroke-width: 0.8; stroke-linejoin: miter; stroke-linecap: square"/>
   </g>
   <g id="patch_4">
    <path d="M 450 78.7975 
L 450 28.32 
" style="fill: none; stroke: #000000; stroke-width: 0.8; stroke-linejoin: miter; stroke-linecap: square"/>
   </g>
   <g id="patch_5">
    <path d="M 58.106 78.7975 
L 450 78.7975 
" style="fill: none; stroke: #000000; stroke-width: 0.8; stroke-linejoin: miter; stroke-linecap: square"/>
   </g>
   <g id="patch_6">
    <path d="M 58.106 28.32 
L 450 28.32 
" style="fill: none; stroke: #000000; stroke-width: 0.8; stroke-linejoin: miter; stroke-linecap: square"/>
   </g>
   <g id="text_12">
    <!-- Error in $x$-position -->
    <g transform="translate(200.413 22.32)scale(0.12 -0.12)">
     <defs>
      <path id="DejaVuSans-45" d="M 628 4666 
L 3578 4666 
L 3578 4134 
L 1259 4134 
L 1259 2753 
L 3481 2753 
L 3481 2222 
L 1259 2222 
L 1259 531 
L 3634 531 
L 3634 0 
L 628 0 
L 628 4666 
z
" transform="scale(0.015625)"/>
      <path id="DejaVuSans-72" d="M 2631 2963 
Q 2534 3019 2420 3045 
Q 2306 3072 2169 3072 
Q 1681 3072 1420 2755 
Q 1159 2438 1159 1844 
L 1159 0 
L 581 0 
L 581 3500 
L 1159 3500 
L 1159 2956 
Q 1341 3275 1631 3429 
Q 1922 3584 2338 3584 
Q 2397 3584 2469 3576 
Q 2541 3569 2628 3553 
L 2631 2963 
z
" transform="scale(0.015625)"/>
      <path id="DejaVuSans-6f" d="M 1959 3097 
Q 1497 3097 1228 2736 
Q 959 2375 959 1747 
Q 959 1119 1226 758 
Q 1494 397 1959 397 
Q 2419 397 2687 759 
Q 2956 1122 2956 1747 
Q 2956 2369 2687 2733 
Q 2419 3097 1959 3097 
z
M 1959 3584 
Q 2709 3584 3137 3096 
Q 3566 2609 3566 1747 
Q 3566 888 3137 398 
Q 2709 -91 1959 -91 
Q 1206 -91 779 398 
Q 353 888 353 1747 
Q 353 2609 779 3096 
Q 1206 3584 1959 3584 
z
" transform="scale(0.015625)"/>
      <path id="DejaVuSans-69" d="M 603 3500 
L 1178 3500 
L 1178 0 
L 603 0 
L 603 3500 
z
M 603 4863 
L 1178 4863 
L 1178 4134 
L 603 4134 
L 603 4863 
z
" transform="scale(0.015625)"/>
      <path id="DejaVuSans-6e" d="M 3513 2113 
L 3513 0 
L 2938 0 
L 2938 2094 
Q 2938 2591 2744 2837 
Q 2550 3084 2163 3084 
Q 1697 3084 1428 2787 
Q 1159 2491 1159 1978 
L 1159 0 
L 581 0 
L 581 3500 
L 1159 3500 
L 1159 2956 
Q 1366 3272 1645 3428 
Q 1925 3584 2291 3584 
Q 2894 3584 3203 3211 
Q 3513 2838 3513 2113 
z
" transform="scale(0.015625)"/>
      <path id="DejaVuSans-2d" d="M 313 2009 
L 1997 2009 
L 1997 1497 
L 313 1497 
L 313 2009 
z
" transform="scale(0.015625)"/>
      <path id="DejaVuSans-70" d="M 1159 525 
L 1159 -1331 
L 581 -1331 
L 581 3500 
L 1159 3500 
L 1159 2969 
Q 1341 3281 1617 3432 
Q 1894 3584 2278 3584 
Q 2916 3584 3314 3078 
Q 3713 2572 3713 1747 
Q 3713 922 3314 415 
Q 2916 -91 2278 -91 
Q 1894 -91 1617 61 
Q 1341 213 1159 525 
z
M 3116 1747 
Q 3116 2381 2855 2742 
Q 2594 3103 2138 3103 
Q 1681 3103 1420 2742 
Q 1159 2381 1159 1747 
Q 1159 1113 1420 752 
Q 1681 391 2138 391 
Q 2594 391 2855 752 
Q 3116 1113 3116 1747 
z
" transform="scale(0.015625)"/>
      <path id="DejaVuSans-74" d="M 1172 4494 
L 1172 3500 
L 2356 3500 
L 2356 3053 
L 1172 3053 
L 1172 1153 
Q 1172 725 1289 603 
Q 1406 481 1766 481 
L 2356 481 
L 2356 0 
L 1766 0 
Q 1100 0 847 248 
Q 594 497 594 1153 
L 594 3053 
L 172 3053 
L 172 3500 
L 594 3500 
L 594 4494 
L 1172 4494 
z
" transform="scale(0.015625)"/>
     </defs>
     <use xlink:href="#DejaVuSans-45" transform="translate(0 0.015625)"/>
     <use xlink:href="#DejaVuSans-72" transform="translate(63.183594 0.015625)"/>
     <use xlink:href="#DejaVuSans-72" transform="translate(104.296875 0.015625)"/>
     <use xlink:href="#DejaVuSans-6f" transform="translate(145.410156 0.015625)"/>
     <use xlink:href="#DejaVuSans-72" transform="translate(206.591797 0.015625)"/>
     <use xlink:href="#DejaVuSans-20" transform="translate(247.705078 0.015625)"/>
     <use xlink:href="#DejaVuSans-69" transform="translate(279.492188 0.015625)"/>
     <use xlink:href="#DejaVuSans-6e" transform="translate(307.275391 0.015625)"/>
     <use xlink:href="#DejaVuSans-20" transform="translate(370.654297 0.015625)"/>
     <use xlink:href="#DejaVuSans-Oblique-78" transform="translate(402.441406 0.015625)"/>
     <use xlink:href="#DejaVuSans-2d" transform="translate(461.621094 0.015625)"/>
     <use xlink:href="#DejaVuSans-70" transform="translate(497.705078 0.015625)"/>
     <use xlink:href="#DejaVuSans-6f" transform="translate(561.181641 0.015625)"/>
     <use xlink:href="#DejaVuSans-73" transform="translate(622.363281 0.015625)"/>
     <use xlink:href="#DejaVuSans-69" transform="translate(674.462891 0.015625)"/>
     <use xlink:href="#DejaVuSans-74" transform="translate(702.246094 0.015625)"/>
     <use xlink:href="#DejaVuSans-69" transform="translate(741.455078 0.015625)"/>
     <use xlink:href="#DejaVuSans-6f" transform="translate(769.238281 0.015625)"/>
     <use xlink:href="#DejaVuSans-6e" transform="translate(830.419922 0.015625)"/>
    </g>
   </g>
  </g>
  <g id="axes_2">
   <g id="patch_7">
    <path d="M 58.106 190.3975 
L 450 190.3975 
L 450 139.92 
L 58.106 139.92 
z
" style="fill: #ffffff"/>
   </g>
   <g id="matplotlib.axis_3">
    <g id="xtick_8">
     <g id="line2d_20">
      <path d="M 75.919364 190.3975 
L 75.919364 139.92 
" clip-path="url(#p11d96d7b93)" style="fill: none; stroke: #b0b0b0; stroke-width: 0.8; stroke-linecap: square"/>
     </g>
     <g id="line2d_21">
      <g>
       <use xlink:href="#m440b7b8daf" x="75.919364" y="190.3975" style="stroke: #000000; stroke-width: 0.8"/>
      </g>
     </g>
     <g id="text_13">
      <!-- 0 -->
      <g transform="translate(72.738114 204.995937)scale(0.1 -0.1)">
       <use xlink:href="#DejaVuSans-30"/>
      </g>
     </g>
    </g>
    <g id="xtick_9">
     <g id="line2d_22">
      <path d="M 136.150517 190.3975 
L 136.150517 139.92 
" clip-path="url(#p11d96d7b93)" style="fill: none; stroke: #b0b0b0; stroke-width: 0.8; stroke-linecap: square"/>
     </g>
     <g id="line2d_23">
      <g>
       <use xlink:href="#m440b7b8daf" x="136.150517" y="190.3975" style="stroke: #000000; stroke-width: 0.8"/>
      </g>
     </g>
     <g id="text_14">
      <!-- 2 -->
      <g transform="translate(132.969267 204.995937)scale(0.1 -0.1)">
       <use xlink:href="#DejaVuSans-32"/>
      </g>
     </g>
    </g>
    <g id="xtick_10">
     <g id="line2d_24">
      <path d="M 196.381671 190.3975 
L 196.381671 139.92 
" clip-path="url(#p11d96d7b93)" style="fill: none; stroke: #b0b0b0; stroke-width: 0.8; stroke-linecap: square"/>
     </g>
     <g id="line2d_25">
      <g>
       <use xlink:href="#m440b7b8daf" x="196.381671" y="190.3975" style="stroke: #000000; stroke-width: 0.8"/>
      </g>
     </g>
     <g id="text_15">
      <!-- 4 -->
      <g transform="translate(193.200421 204.995937)scale(0.1 -0.1)">
       <use xlink:href="#DejaVuSans-34"/>
      </g>
     </g>
    </g>
    <g id="xtick_11">
     <g id="line2d_26">
      <path d="M 256.612824 190.3975 
L 256.612824 139.92 
" clip-path="url(#p11d96d7b93)" style="fill: none; stroke: #b0b0b0; stroke-width: 0.8; stroke-linecap: square"/>
     </g>
     <g id="line2d_27">
      <g>
       <use xlink:href="#m440b7b8daf" x="256.612824" y="190.3975" style="stroke: #000000; stroke-width: 0.8"/>
      </g>
     </g>
     <g id="text_16">
      <!-- 6 -->
      <g transform="translate(253.431574 204.995937)scale(0.1 -0.1)">
       <use xlink:href="#DejaVuSans-36"/>
      </g>
     </g>
    </g>
    <g id="xtick_12">
     <g id="line2d_28">
      <path d="M 316.843977 190.3975 
L 316.843977 139.92 
" clip-path="url(#p11d96d7b93)" style="fill: none; stroke: #b0b0b0; stroke-width: 0.8; stroke-linecap: square"/>
     </g>
     <g id="line2d_29">
      <g>
       <use xlink:href="#m440b7b8daf" x="316.843977" y="190.3975" style="stroke: #000000; stroke-width: 0.8"/>
      </g>
     </g>
     <g id="text_17">
      <!-- 8 -->
      <g transform="translate(313.662727 204.995937)scale(0.1 -0.1)">
       <use xlink:href="#DejaVuSans-38"/>
      </g>
     </g>
    </g>
    <g id="xtick_13">
     <g id="line2d_30">
      <path d="M 377.075131 190.3975 
L 377.075131 139.92 
" clip-path="url(#p11d96d7b93)" style="fill: none; stroke: #b0b0b0; stroke-width: 0.8; stroke-linecap: square"/>
     </g>
     <g id="line2d_31">
      <g>
       <use xlink:href="#m440b7b8daf" x="377.075131" y="190.3975" style="stroke: #000000; stroke-width: 0.8"/>
      </g>
     </g>
     <g id="text_18">
      <!-- 10 -->
      <g transform="translate(370.712631 204.995937)scale(0.1 -0.1)">
       <use xlink:href="#DejaVuSans-31"/>
       <use xlink:href="#DejaVuSans-30" x="63.623047"/>
      </g>
     </g>
    </g>
    <g id="xtick_14">
     <g id="line2d_32">
      <path d="M 437.306284 190.3975 
L 437.306284 139.92 
" clip-path="url(#p11d96d7b93)" style="fill: none; stroke: #b0b0b0; stroke-width: 0.8; stroke-linecap: square"/>
     </g>
     <g id="line2d_33">
      <g>
       <use xlink:href="#m440b7b8daf" x="437.306284" y="190.3975" style="stroke: #000000; stroke-width: 0.8"/>
      </g>
     </g>
     <g id="text_19">
      <!-- 12 -->
      <g transform="translate(430.943784 204.995937)scale(0.1 -0.1)">
       <use xlink:href="#DejaVuSans-31"/>
       <use xlink:href="#DejaVuSans-32" x="63.623047"/>
      </g>
     </g>
    </g>
    <g id="text_20">
     <!-- $t$ [s] -->
     <g transform="translate(243.953 218.674062)scale(0.1 -0.1)">
      <use xlink:href="#DejaVuSans-Oblique-74" transform="translate(0 0.015625)"/>
      <use xlink:href="#DejaVuSans-20" transform="translate(39.208984 0.015625)"/>
      <use xlink:href="#DejaVuSans-5b" transform="translate(70.996094 0.015625)"/>
      <use xlink:href="#DejaVuSans-73" transform="translate(110.009766 0.015625)"/>
      <use xlink:href="#DejaVuSans-5d" transform="translate(162.109375 0.015625)"/>
     </g>
    </g>
   </g>
   <g id="matplotlib.axis_4">
    <g id="ytick_3">
     <g id="line2d_34">
      <path d="M 58.106 180.943467 
L 450 180.943467 
" clip-path="url(#p11d96d7b93)" style="fill: none; stroke: #b0b0b0; stroke-width: 0.8; stroke-linecap: square"/>
     </g>
     <g id="line2d_35">
      <g>
       <use xlink:href="#m41178de2b7" x="58.106" y="180.943467" style="stroke: #000000; stroke-width: 0.8"/>
      </g>
     </g>
     <g id="text_21">
      <!-- −0.1 -->
      <g transform="translate(26.823188 184.742686)scale(0.1 -0.1)">
       <defs>
        <path id="DejaVuSans-2212" d="M 678 2272 
L 4684 2272 
L 4684 1741 
L 678 1741 
L 678 2272 
z
" transform="scale(0.015625)"/>
        <path id="DejaVuSans-2e" d="M 684 794 
L 1344 794 
L 1344 0 
L 684 0 
L 684 794 
z
" transform="scale(0.015625)"/>
       </defs>
       <use xlink:href="#DejaVuSans-2212"/>
       <use xlink:href="#DejaVuSans-30" x="83.789062"/>
       <use xlink:href="#DejaVuSans-2e" x="147.412109"/>
       <use xlink:href="#DejaVuSans-31" x="179.199219"/>
      </g>
     </g>
    </g>
    <g id="ytick_4">
     <g id="line2d_36">
      <path d="M 58.106 164.623171 
L 450 164.623171 
" clip-path="url(#p11d96d7b93)" style="fill: none; stroke: #b0b0b0; stroke-width: 0.8; stroke-linecap: square"/>
     </g>
     <g id="line2d_37">
      <g>
       <use xlink:href="#m41178de2b7" x="58.106" y="164.623171" style="stroke: #000000; stroke-width: 0.8"/>
      </g>
     </g>
     <g id="text_22">
      <!-- 0.0 -->
      <g transform="translate(35.202875 168.42239)scale(0.1 -0.1)">
       <use xlink:href="#DejaVuSans-30"/>
       <use xlink:href="#DejaVuSans-2e" x="63.623047"/>
       <use xlink:href="#DejaVuSans-30" x="95.410156"/>
      </g>
     </g>
    </g>
    <g id="ytick_5">
     <g id="line2d_38">
      <path d="M 58.106 148.302875 
L 450 148.302875 
" clip-path="url(#p11d96d7b93)" style="fill: none; stroke: #b0b0b0; stroke-width: 0.8; stroke-linecap: square"/>
     </g>
     <g id="line2d_39">
      <g>
       <use xlink:href="#m41178de2b7" x="58.106" y="148.302875" style="stroke: #000000; stroke-width: 0.8"/>
      </g>
     </g>
     <g id="text_23">
      <!-- 0.1 -->
      <g transform="translate(35.202875 152.102094)scale(0.1 -0.1)">
       <use xlink:href="#DejaVuSans-30"/>
       <use xlink:href="#DejaVuSans-2e" x="63.623047"/>
       <use xlink:href="#DejaVuSans-31" x="95.410156"/>
      </g>
     </g>
    </g>
    <g id="text_24">
     <!-- $e_z$ [m] -->
     <g transform="translate(20.7435 180.60875)rotate(-90)scale(0.1 -0.1)">
      <defs>
       <path id="DejaVuSans-Oblique-7a" d="M 744 3500 
L 3475 3500 
L 3372 2975 
L 738 459 
L 2913 459 
L 2822 0 
L -19 0 
L 84 525 
L 2719 3041 
L 653 3041 
L 744 3500 
z
" transform="scale(0.015625)"/>
      </defs>
      <use xlink:href="#DejaVuSans-Oblique-65" transform="translate(0 0.015625)"/>
      <use xlink:href="#DejaVuSans-Oblique-7a" transform="translate(61.523438 -16.390625)scale(0.7)"/>
      <use xlink:href="#DejaVuSans-20" transform="translate(101.000977 0.015625)"/>
      <use xlink:href="#DejaVuSans-5b" transform="translate(132.788086 0.015625)"/>
      <use xlink:href="#DejaVuSans-6d" transform="translate(171.801758 0.015625)"/>
      <use xlink:href="#DejaVuSans-5d" transform="translate(269.213867 0.015625)"/>
     </g>
    </g>
   </g>
   <g id="line2d_40">
    <path d="M 75.919364 166.205985 
L 76.522185 166.27685 
L 76.823595 166.401346 
L 77.125006 166.401346 
L 77.727827 166.610971 
L 80.440522 167.167574 
L 81.344754 167.046401 
L 81.947575 166.816968 
L 82.248985 166.56465 
L 82.550396 166.56465 
L 83.153217 166.130119 
L 83.756038 165.743929 
L 84.358859 165.598202 
L 84.96168 165.391933 
L 86.167322 165.050361 
L 86.468733 164.796671 
L 86.770144 164.796671 
L 87.071554 164.246923 
L 87.372965 164.13361 
L 87.975786 163.612769 
L 88.277196 162.982159 
L 88.578607 162.982159 
L 88.880017 161.826672 
L 89.181428 161.611453 
L 89.784249 160.708548 
L 90.08566 159.77827 
L 90.38707 159.77827 
L 90.688481 158.421796 
L 90.989891 158.209261 
L 91.592712 157.422206 
L 91.894123 156.757676 
L 92.195533 156.757676 
L 92.496944 156.019321 
L 93.401176 155.64347 
L 93.702586 155.468489 
L 94.003997 155.468489 
L 94.305407 155.326743 
L 96.113871 155.326853 
L 97.922334 155.465887 
L 99.127976 155.284707 
L 100.032208 154.931647 
L 100.333618 154.643311 
L 100.635029 154.643311 
L 101.23785 154.098741 
L 101.840671 153.676526 
L 103.046313 152.445461 
L 104.854777 151.349677 
L 107.266061 150.802146 
L 107.567472 150.571719 
L 107.868882 150.571719 
L 108.471703 150.086591 
L 109.074524 149.559279 
L 109.375935 149.080963 
L 109.677345 149.080963 
L 109.978756 148.575289 
L 110.882988 147.787682 
L 111.787219 146.631915 
L 115.102735 144.124719 
L 115.404146 143.684599 
L 117.212609 142.383255 
L 118.116841 142.214476 
L 118.719662 142.263141 
L 120.226715 143.054247 
L 121.130946 143.724555 
L 121.733768 144.1721 
L 122.336589 145.031991 
L 122.637999 145.410837 
L 122.93941 145.536443 
L 123.542231 146.029783 
L 123.843641 146.500513 
L 124.446463 147.036771 
L 125.049284 147.582036 
L 125.350694 147.582036 
L 125.652105 147.884081 
L 126.556336 148.377091 
L 126.857747 148.5456 
L 127.159158 148.5456 
L 127.761979 148.906786 
L 128.3648 149.273223 
L 128.967621 149.828554 
L 130.173263 150.767223 
L 131.378905 152.235892 
L 131.981726 152.87131 
L 132.283137 153.333534 
L 134.0916 154.467432 
L 134.995832 154.979921 
L 135.900064 155.561812 
L 136.201474 155.561812 
L 136.804295 155.99159 
L 137.407116 156.367395 
L 138.009937 156.814135 
L 142.229685 158.700399 
L 142.832506 159.027607 
L 143.435327 159.510835 
L 144.64097 160.344046 
L 148.559307 165.088342 
L 148.860717 165.744696 
L 150.066359 167.152138 
L 150.36777 168.090019 
L 150.669181 168.090019 
L 150.970591 168.856147 
L 152.477644 170.941788 
L 152.779054 171.665988 
L 153.984697 173.179354 
L 154.286107 173.7945 
L 156.094571 175.581079 
L 156.395981 176.092237 
L 157.903034 177.471452 
L 158.204444 177.957065 
L 159.410087 178.954316 
L 159.711497 179.328605 
L 161.21855 180.03066 
L 161.821371 180.193309 
L 165.136887 180.561452 
L 165.739708 180.90068 
L 166.342529 181.20959 
L 166.64394 181.429582 
L 166.94535 181.429582 
L 167.548172 181.649574 
L 168.452403 181.681655 
L 169.055224 181.531514 
L 170.863688 181.176975 
L 171.767919 181.286217 
L 174.179204 182.223014 
L 175.083435 182.171446 
L 175.686256 181.987235 
L 176.289078 181.723776 
L 178.097541 181.352365 
L 179.001772 181.401331 
L 179.604594 181.5813 
L 180.207415 181.909691 
L 182.015878 182.583807 
L 183.22152 182.572974 
L 183.824341 182.441146 
L 186.235626 182.263254 
L 187.139857 182.529483 
L 187.742679 182.792272 
L 188.044089 182.953242 
L 188.64691 183.509761 
L 189.249731 184.072976 
L 189.852552 184.32353 
L 190.153963 184.603647 
L 190.455373 184.603647 
L 190.756784 184.89538 
L 194.0723 185.358102 
L 195.277942 185.746933 
L 196.182174 186.376903 
L 196.483585 186.612818 
L 197.086406 186.845543 
L 197.689227 187.318248 
L 198.292048 187.513526 
L 199.49769 187.706377 
L 200.703332 187.626114 
L 201.607564 187.437918 
L 204.018848 187.422072 
L 206.128722 187.516425 
L 207.937186 187.215629 
L 208.841417 186.958196 
L 209.745649 186.839606 
L 210.64988 186.824139 
L 212.156933 186.951212 
L 213.362575 187.01067 
L 214.568218 186.851248 
L 216.979502 186.470264 
L 217.883734 186.611354 
L 219.390786 186.938656 
L 219.993608 187.117122 
L 221.802071 187.319851 
L 223.007713 187.237944 
L 223.911945 187.059344 
L 225.418998 186.948055 
L 226.62464 187.121363 
L 230.241566 187.565844 
L 233.858493 187.522563 
L 236.269777 187.860516 
L 237.174009 187.733887 
L 240.188115 187.333336 
L 241.092346 187.482147 
L 242.599399 187.890332 
L 243.20222 188.062472 
L 244.106452 188.095768 
L 244.709273 187.923826 
L 245.914915 187.515355 
L 248.024789 186.329016 
L 248.62761 186.221903 
L 249.833252 186.21057 
L 251.038894 186.296154 
L 252.244537 186.196837 
L 253.148768 186.005268 
L 253.450179 185.778234 
L 253.751589 185.778234 
L 254.354411 185.491268 
L 255.258642 185.140462 
L 256.162874 184.830751 
L 257.971337 184.481752 
L 260.382622 184.254958 
L 262.492495 183.678727 
L 263.999548 183.296309 
L 264.602369 183.034762 
L 267.315064 182.315407 
L 268.520707 182.243208 
L 270.32917 182.106191 
L 271.233401 181.944592 
L 272.137633 181.660859 
L 273.041865 181.377935 
L 273.644686 181.119776 
L 274.850328 180.646645 
L 275.453149 180.377138 
L 276.658791 180.198466 
L 278.467255 180.357187 
L 279.070076 180.462152 
L 280.275718 180.477639 
L 281.17995 180.27968 
L 281.782771 180.004198 
L 284.796876 179.023359 
L 286.60534 178.755247 
L 287.810982 178.842077 
L 290.523677 179.025751 
L 292.934961 178.605717 
L 293.537782 178.478747 
L 296.853298 178.230151 
L 311.321005 178.004485 
L 314.636521 178.201457 
L 316.746395 178.324696 
L 321.568964 178.312686 
L 323.076016 178.524587 
L 324.583069 178.862547 
L 325.18589 179.033328 
L 326.994354 179.167845 
L 328.802817 179.218082 
L 329.707049 179.320437 
L 331.214101 179.775632 
L 333.926796 180.432302 
L 335.433849 180.503435 
L 337.242312 180.570281 
L 338.749365 180.826381 
L 339.653597 181.169268 
L 340.256418 181.379988 
L 341.16065 181.483632 
L 341.763471 181.586592 
L 344.174755 181.57763 
L 345.078987 181.698559 
L 345.983218 181.892631 
L 346.284629 182.14987 
L 346.58604 182.14987 
L 347.188861 182.570731 
L 348.093092 183.145188 
L 348.394503 183.453856 
L 349.600145 183.871214 
L 350.202966 183.962031 
L 351.408608 183.774243 
L 351.710019 183.553527 
L 352.011429 183.553527 
L 352.614251 183.275045 
L 353.819893 183.03438 
L 354.422714 183.016108 
L 356.231177 183.237342 
L 357.135409 183.125402 
L 358.642462 182.423285 
L 359.245283 181.731123 
L 359.546693 181.444528 
L 360.149514 181.188937 
L 361.355157 180.648011 
L 362.259388 180.580407 
L 363.46503 180.517375 
L 363.766441 180.373444 
L 364.067852 180.373444 
L 365.273494 179.487878 
L 365.574904 179.034648 
L 365.876315 179.034648 
L 366.177725 178.577446 
L 368.287599 177.127375 
L 369.493242 176.849957 
L 371.301705 176.4802 
L 371.904526 176.103964 
L 373.110168 175.363417 
L 373.411579 175.089112 
L 374.31581 174.858761 
L 374.918631 174.848479 
L 375.220042 175.026439 
L 376.124274 175.242471 
L 376.727095 175.403868 
L 377.631326 175.315016 
L 377.932737 175.224242 
L 381.248253 172.346078 
L 382.152485 172.113823 
L 383.358127 172.401374 
L 383.960948 172.69578 
L 384.563769 172.838478 
L 385.16659 172.821538 
L 385.468001 172.695039 
L 385.769411 172.695039 
L 386.070822 172.280007 
L 386.673643 171.973526 
L 386.975054 171.737782 
L 387.276464 171.213442 
L 387.577875 171.213442 
L 387.879285 170.370587 
L 388.180696 170.233913 
L 389.687749 168.92653 
L 390.29057 168.781229 
L 391.496212 168.745281 
L 392.400443 168.732879 
L 393.304675 168.389968 
L 393.907496 167.863039 
L 394.208907 167.863039 
L 394.510317 167.411716 
L 395.113138 166.832859 
L 395.71596 166.167325 
L 396.01737 166.167325 
L 396.318781 165.777925 
L 396.620191 165.777925 
L 396.921602 165.391698 
L 398.127244 165.301261 
L 398.730065 165.456608 
L 399.332886 165.636563 
L 400.538528 165.91787 
L 400.839939 165.887539 
L 401.141349 165.744044 
L 401.44276 165.744044 
L 402.346992 165.096549 
L 402.949813 164.551845 
L 403.251223 164.161189 
L 404.155455 163.764913 
L 405.059687 163.670075 
L 406.265329 164.186092 
L 406.566739 164.558295 
L 406.86815 164.558295 
L 407.169561 164.790166 
L 408.073792 164.951138 
L 408.676613 164.813771 
L 409.580845 164.400692 
L 410.183666 163.882461 
L 410.485077 163.446765 
L 412.29354 162.298971 
L 413.499182 162.172242 
L 414.102003 162.221409 
L 415.307645 162.578947 
L 416.513288 162.795803 
L 417.116109 162.696699 
L 417.417519 162.484418 
L 417.71893 162.484418 
L 418.02034 161.968456 
L 418.321751 161.862272 
L 418.924572 161.405265 
L 419.225983 160.966838 
L 420.431625 160.312508 
L 421.335856 160.361972 
L 423.44573 161.081328 
L 424.349962 161.047032 
L 425.555604 160.335069 
L 425.857015 159.919989 
L 426.158425 159.919989 
L 426.459836 159.497022 
L 427.364068 158.812898 
L 427.665478 158.513334 
L 427.966889 158.513334 
L 428.268299 158.335239 
L 428.87112 158.297959 
L 429.172531 158.365355 
L 429.473941 158.587443 
L 429.775352 158.587443 
L 430.679584 159.681965 
L 430.980994 159.815165 
L 431.583815 160.34428 
L 432.186636 161.151344 
L 432.186636 161.151344 
" clip-path="url(#p11d96d7b93)" style="fill: none; stroke: #0000ff; stroke-width: 1.5; stroke-linecap: square"/>
   </g>
   <g id="patch_8">
    <path d="M 58.106 190.3975 
L 58.106 139.92 
" style="fill: none; stroke: #000000; stroke-width: 0.8; stroke-linejoin: miter; stroke-linecap: square"/>
   </g>
   <g id="patch_9">
    <path d="M 450 190.3975 
L 450 139.92 
" style="fill: none; stroke: #000000; stroke-width: 0.8; stroke-linejoin: miter; stroke-linecap: square"/>
   </g>
   <g id="patch_10">
    <path d="M 58.106 190.3975 
L 450 190.3975 
" style="fill: none; stroke: #000000; stroke-width: 0.8; stroke-linejoin: miter; stroke-linecap: square"/>
   </g>
   <g id="patch_11">
    <path d="M 58.106 139.92 
L 450 139.92 
" style="fill: none; stroke: #000000; stroke-width: 0.8; stroke-linejoin: miter; stroke-linecap: square"/>
   </g>
   <g id="text_25">
    <!-- Error in $z$-position -->
    <g transform="translate(200.773 133.92)scale(0.12 -0.12)">
     <use xlink:href="#DejaVuSans-45" transform="translate(0 0.015625)"/>
     <use xlink:href="#DejaVuSans-72" transform="translate(63.183594 0.015625)"/>
     <use xlink:href="#DejaVuSans-72" transform="translate(104.296875 0.015625)"/>
     <use xlink:href="#DejaVuSans-6f" transform="translate(145.410156 0.015625)"/>
     <use xlink:href="#DejaVuSans-72" transform="translate(206.591797 0.015625)"/>
     <use xlink:href="#DejaVuSans-20" transform="translate(247.705078 0.015625)"/>
     <use xlink:href="#DejaVuSans-69" transform="translate(279.492188 0.015625)"/>
     <use xlink:href="#DejaVuSans-6e" transform="translate(307.275391 0.015625)"/>
     <use xlink:href="#DejaVuSans-20" transform="translate(370.654297 0.015625)"/>
     <use xlink:href="#DejaVuSans-Oblique-7a" transform="translate(402.441406 0.015625)"/>
     <use xlink:href="#DejaVuSans-2d" transform="translate(454.931641 0.015625)"/>
     <use xlink:href="#DejaVuSans-70" transform="translate(491.015625 0.015625)"/>
     <use xlink:href="#DejaVuSans-6f" transform="translate(554.492188 0.015625)"/>
     <use xlink:href="#DejaVuSans-73" transform="translate(615.673828 0.015625)"/>
     <use xlink:href="#DejaVuSans-69" transform="translate(667.773438 0.015625)"/>
     <use xlink:href="#DejaVuSans-74" transform="translate(695.556641 0.015625)"/>
     <use xlink:href="#DejaVuSans-69" transform="translate(734.765625 0.015625)"/>
     <use xlink:href="#DejaVuSans-6f" transform="translate(762.548828 0.015625)"/>
     <use xlink:href="#DejaVuSans-6e" transform="translate(823.730469 0.015625)"/>
    </g>
   </g>
  </g>
  <g id="axes_3">
   <g id="patch_12">
    <path d="M 58.106 301.9975 
L 450 301.9975 
L 450 251.52 
L 58.106 251.52 
z
" style="fill: #ffffff"/>
   </g>
   <g id="matplotlib.axis_5">
    <g id="xtick_15">
     <g id="line2d_41">
      <path d="M 75.919364 301.9975 
L 75.919364 251.52 
" clip-path="url(#p628b72fb63)" style="fill: none; stroke: #b0b0b0; stroke-width: 0.8; stroke-linecap: square"/>
     </g>
     <g id="line2d_42">
      <g>
       <use xlink:href="#m440b7b8daf" x="75.919364" y="301.9975" style="stroke: #000000; stroke-width: 0.8"/>
      </g>
     </g>
     <g id="text_26">
      <!-- 0 -->
      <g transform="translate(72.738114 316.595937)scale(0.1 -0.1)">
       <use xlink:href="#DejaVuSans-30"/>
      </g>
     </g>
    </g>
    <g id="xtick_16">
     <g id="line2d_43">
      <path d="M 136.150517 301.9975 
L 136.150517 251.52 
" clip-path="url(#p628b72fb63)" style="fill: none; stroke: #b0b0b0; stroke-width: 0.8; stroke-linecap: square"/>
     </g>
     <g id="line2d_44">
      <g>
       <use xlink:href="#m440b7b8daf" x="136.150517" y="301.9975" style="stroke: #000000; stroke-width: 0.8"/>
      </g>
     </g>
     <g id="text_27">
      <!-- 2 -->
      <g transform="translate(132.969267 316.595937)scale(0.1 -0.1)">
       <use xlink:href="#DejaVuSans-32"/>
      </g>
     </g>
    </g>
    <g id="xtick_17">
     <g id="line2d_45">
      <path d="M 196.381671 301.9975 
L 196.381671 251.52 
" clip-path="url(#p628b72fb63)" style="fill: none; stroke: #b0b0b0; stroke-width: 0.8; stroke-linecap: square"/>
     </g>
     <g id="line2d_46">
      <g>
       <use xlink:href="#m440b7b8daf" x="196.381671" y="301.9975" style="stroke: #000000; stroke-width: 0.8"/>
      </g>
     </g>
     <g id="text_28">
      <!-- 4 -->
      <g transform="translate(193.200421 316.595937)scale(0.1 -0.1)">
       <use xlink:href="#DejaVuSans-34"/>
      </g>
     </g>
    </g>
    <g id="xtick_18">
     <g id="line2d_47">
      <path d="M 256.612824 301.9975 
L 256.612824 251.52 
" clip-path="url(#p628b72fb63)" style="fill: none; stroke: #b0b0b0; stroke-width: 0.8; stroke-linecap: square"/>
     </g>
     <g id="line2d_48">
      <g>
       <use xlink:href="#m440b7b8daf" x="256.612824" y="301.9975" style="stroke: #000000; stroke-width: 0.8"/>
      </g>
     </g>
     <g id="text_29">
      <!-- 6 -->
      <g transform="translate(253.431574 316.595937)scale(0.1 -0.1)">
       <use xlink:href="#DejaVuSans-36"/>
      </g>
     </g>
    </g>
    <g id="xtick_19">
     <g id="line2d_49">
      <path d="M 316.843977 301.9975 
L 316.843977 251.52 
" clip-path="url(#p628b72fb63)" style="fill: none; stroke: #b0b0b0; stroke-width: 0.8; stroke-linecap: square"/>
     </g>
     <g id="line2d_50">
      <g>
       <use xlink:href="#m440b7b8daf" x="316.843977" y="301.9975" style="stroke: #000000; stroke-width: 0.8"/>
      </g>
     </g>
     <g id="text_30">
      <!-- 8 -->
      <g transform="translate(313.662727 316.595937)scale(0.1 -0.1)">
       <use xlink:href="#DejaVuSans-38"/>
      </g>
     </g>
    </g>
    <g id="xtick_20">
     <g id="line2d_51">
      <path d="M 377.075131 301.9975 
L 377.075131 251.52 
" clip-path="url(#p628b72fb63)" style="fill: none; stroke: #b0b0b0; stroke-width: 0.8; stroke-linecap: square"/>
     </g>
     <g id="line2d_52">
      <g>
       <use xlink:href="#m440b7b8daf" x="377.075131" y="301.9975" style="stroke: #000000; stroke-width: 0.8"/>
      </g>
     </g>
     <g id="text_31">
      <!-- 10 -->
      <g transform="translate(370.712631 316.595937)scale(0.1 -0.1)">
       <use xlink:href="#DejaVuSans-31"/>
       <use xlink:href="#DejaVuSans-30" x="63.623047"/>
      </g>
     </g>
    </g>
    <g id="xtick_21">
     <g id="line2d_53">
      <path d="M 437.306284 301.9975 
L 437.306284 251.52 
" clip-path="url(#p628b72fb63)" style="fill: none; stroke: #b0b0b0; stroke-width: 0.8; stroke-linecap: square"/>
     </g>
     <g id="line2d_54">
      <g>
       <use xlink:href="#m440b7b8daf" x="437.306284" y="301.9975" style="stroke: #000000; stroke-width: 0.8"/>
      </g>
     </g>
     <g id="text_32">
      <!-- 12 -->
      <g transform="translate(430.943784 316.595937)scale(0.1 -0.1)">
       <use xlink:href="#DejaVuSans-31"/>
       <use xlink:href="#DejaVuSans-32" x="63.623047"/>
      </g>
     </g>
    </g>
    <g id="text_33">
     <!-- $t$ [s] -->
     <g transform="translate(243.953 330.274063)scale(0.1 -0.1)">
      <use xlink:href="#DejaVuSans-Oblique-74" transform="translate(0 0.015625)"/>
      <use xlink:href="#DejaVuSans-20" transform="translate(39.208984 0.015625)"/>
      <use xlink:href="#DejaVuSans-5b" transform="translate(70.996094 0.015625)"/>
      <use xlink:href="#DejaVuSans-73" transform="translate(110.009766 0.015625)"/>
      <use xlink:href="#DejaVuSans-5d" transform="translate(162.109375 0.015625)"/>
     </g>
    </g>
   </g>
   <g id="matplotlib.axis_6">
    <g id="ytick_6">
     <g id="line2d_55">
      <path d="M 58.106 292.274244 
L 450 292.274244 
" clip-path="url(#p628b72fb63)" style="fill: none; stroke: #b0b0b0; stroke-width: 0.8; stroke-linecap: square"/>
     </g>
     <g id="line2d_56">
      <g>
       <use xlink:href="#m41178de2b7" x="58.106" y="292.274244" style="stroke: #000000; stroke-width: 0.8"/>
      </g>
     </g>
     <g id="text_34">
      <!-- −0.1 -->
      <g transform="translate(26.823188 296.073463)scale(0.1 -0.1)">
       <use xlink:href="#DejaVuSans-2212"/>
       <use xlink:href="#DejaVuSans-30" x="83.789062"/>
       <use xlink:href="#DejaVuSans-2e" x="147.412109"/>
       <use xlink:href="#DejaVuSans-31" x="179.199219"/>
      </g>
     </g>
    </g>
    <g id="ytick_7">
     <g id="line2d_57">
      <path d="M 58.106 277.74344 
L 450 277.74344 
" clip-path="url(#p628b72fb63)" style="fill: none; stroke: #b0b0b0; stroke-width: 0.8; stroke-linecap: square"/>
     </g>
     <g id="line2d_58">
      <g>
       <use xlink:href="#m41178de2b7" x="58.106" y="277.74344" style="stroke: #000000; stroke-width: 0.8"/>
      </g>
     </g>
     <g id="text_35">
      <!-- 0.0 -->
      <g transform="translate(35.202875 281.542659)scale(0.1 -0.1)">
       <use xlink:href="#DejaVuSans-30"/>
       <use xlink:href="#DejaVuSans-2e" x="63.623047"/>
       <use xlink:href="#DejaVuSans-30" x="95.410156"/>
      </g>
     </g>
    </g>
    <g id="ytick_8">
     <g id="line2d_59">
      <path d="M 58.106 263.212636 
L 450 263.212636 
" clip-path="url(#p628b72fb63)" style="fill: none; stroke: #b0b0b0; stroke-width: 0.8; stroke-linecap: square"/>
     </g>
     <g id="line2d_60">
      <g>
       <use xlink:href="#m41178de2b7" x="58.106" y="263.212636" style="stroke: #000000; stroke-width: 0.8"/>
      </g>
     </g>
     <g id="text_36">
      <!-- 0.1 -->
      <g transform="translate(35.202875 267.011855)scale(0.1 -0.1)">
       <use xlink:href="#DejaVuSans-30"/>
       <use xlink:href="#DejaVuSans-2e" x="63.623047"/>
       <use xlink:href="#DejaVuSans-31" x="95.410156"/>
      </g>
     </g>
    </g>
    <g id="text_37">
     <!-- $e_\theta$ [rad] -->
     <g transform="translate(20.7435 295.90875)rotate(-90)scale(0.1 -0.1)">
      <defs>
       <path id="DejaVuSans-Oblique-3b8" d="M 2913 2219 
L 925 2219 
Q 791 1284 928 888 
Q 1100 400 1566 400 
Q 2034 400 2391 891 
Q 2703 1322 2913 2219 
z
M 3009 2750 
Q 3094 3638 2984 3950 
Q 2813 4444 2353 4444 
Q 1875 4444 1525 3956 
Q 1250 3563 1034 2750 
L 3009 2750 
z
M 2444 4913 
Q 3194 4913 3494 4250 
Q 3794 3591 3566 2422 
Q 3341 1256 2781 594 
Q 2225 -72 1475 -72 
Q 722 -72 425 594 
Q 128 1256 353 2422 
Q 581 3591 1134 4250 
Q 1691 4913 2444 4913 
z
" transform="scale(0.015625)"/>
       <path id="DejaVuSans-61" d="M 2194 1759 
Q 1497 1759 1228 1600 
Q 959 1441 959 1056 
Q 959 750 1161 570 
Q 1363 391 1709 391 
Q 2188 391 2477 730 
Q 2766 1069 2766 1631 
L 2766 1759 
L 2194 1759 
z
M 3341 1997 
L 3341 0 
L 2766 0 
L 2766 531 
Q 2569 213 2275 61 
Q 1981 -91 1556 -91 
Q 1019 -91 701 211 
Q 384 513 384 1019 
Q 384 1609 779 1909 
Q 1175 2209 1959 2209 
L 2766 2209 
L 2766 2266 
Q 2766 2663 2505 2880 
Q 2244 3097 1772 3097 
Q 1472 3097 1187 3025 
Q 903 2953 641 2809 
L 641 3341 
Q 956 3463 1253 3523 
Q 1550 3584 1831 3584 
Q 2591 3584 2966 3190 
Q 3341 2797 3341 1997 
z
" transform="scale(0.015625)"/>
       <path id="DejaVuSans-64" d="M 2906 2969 
L 2906 4863 
L 3481 4863 
L 3481 0 
L 2906 0 
L 2906 525 
Q 2725 213 2448 61 
Q 2172 -91 1784 -91 
Q 1150 -91 751 415 
Q 353 922 353 1747 
Q 353 2572 751 3078 
Q 1150 3584 1784 3584 
Q 2172 3584 2448 3432 
Q 2725 3281 2906 2969 
z
M 947 1747 
Q 947 1113 1208 752 
Q 1469 391 1925 391 
Q 2381 391 2643 752 
Q 2906 1113 2906 1747 
Q 2906 2381 2643 2742 
Q 2381 3103 1925 3103 
Q 1469 3103 1208 2742 
Q 947 2381 947 1747 
z
" transform="scale(0.015625)"/>
      </defs>
      <use xlink:href="#DejaVuSans-Oblique-65" transform="translate(0 0.015625)"/>
      <use xlink:href="#DejaVuSans-Oblique-3b8" transform="translate(61.523438 -16.390625)scale(0.7)"/>
      <use xlink:href="#DejaVuSans-20" transform="translate(107.084961 0.015625)"/>
      <use xlink:href="#DejaVuSans-5b" transform="translate(138.87207 0.015625)"/>
      <use xlink:href="#DejaVuSans-72" transform="translate(177.885742 0.015625)"/>
      <use xlink:href="#DejaVuSans-61" transform="translate(218.999023 0.015625)"/>
      <use xlink:href="#DejaVuSans-64" transform="translate(280.27832 0.015625)"/>
      <use xlink:href="#DejaVuSans-5d" transform="translate(343.754883 0.015625)"/>
     </g>
    </g>
   </g>
   <g id="line2d_61">
    <path d="M 75.919364 277.722073 
L 76.220774 277.690654 
L 76.522185 277.540074 
L 76.823595 276.776227 
L 77.125006 276.776227 
L 77.727827 273.943589 
L 78.029238 272.59884 
L 78.330648 270.338832 
L 78.632059 267.155051 
L 78.933469 267.155051 
L 79.23488 264.032113 
L 80.440522 257.926249 
L 80.741932 257.485714 
L 81.043343 257.271657 
L 81.344754 257.28642 
L 81.646164 257.551092 
L 81.947575 258.495422 
L 82.248985 260.819565 
L 82.550396 260.819565 
L 82.851806 264.260154 
L 83.153217 266.30739 
L 83.756038 273.190301 
L 84.057449 274.400738 
L 84.358859 276.827112 
L 84.66027 281.60781 
L 84.96168 283.941884 
L 85.564501 290.369644 
L 85.865912 291.32756 
L 86.167322 293.117934 
L 86.468733 296.079287 
L 86.770144 296.079287 
L 87.071554 298.797914 
L 87.975786 299.703068 
L 88.578607 299.60766 
L 88.880017 298.262255 
L 89.181428 297.894688 
L 89.784249 295.864432 
L 90.08566 292.854856 
L 90.38707 292.854856 
L 90.688481 286.871377 
L 90.989891 285.774618 
L 91.592712 281.340559 
L 91.894123 277.04839 
L 92.195533 277.04839 
L 92.496944 271.186183 
L 92.798355 270.285268 
L 93.401176 266.994219 
L 93.702586 264.43427 
L 94.003997 264.43427 
L 94.305407 262.513248 
L 94.908228 262.405712 
L 95.209639 262.607076 
L 96.113871 265.546708 
L 96.415281 266.916212 
L 96.716692 267.388639 
L 97.018102 268.347302 
L 97.319513 270.252915 
L 97.620923 271.167922 
L 98.223745 273.688967 
L 98.525155 274.068115 
L 98.826566 274.783953 
L 99.127976 276.038351 
L 100.333618 278.224167 
L 100.635029 278.224167 
L 100.936439 278.679158 
L 101.539261 278.96195 
L 102.142082 279.054839 
L 103.347724 278.403603 
L 103.649134 278.163443 
L 104.553366 277.022107 
L 105.156187 276.70752 
L 105.457598 276.673489 
L 105.759008 277.067948 
L 106.060419 277.067948 
L 107.266061 281.652017 
L 107.567472 284.409676 
L 107.868882 284.409676 
L 108.170293 287.448821 
L 109.074524 292.653587 
L 109.375935 294.873312 
L 109.677345 294.873312 
L 109.978756 295.992943 
L 110.280167 296.021717 
L 110.581577 295.682597 
L 110.882988 294.987245 
L 111.184398 293.336541 
L 111.485809 290.258007 
L 112.691451 282.516957 
L 113.595683 273.503135 
L 115.404146 262.440645 
L 116.006967 261.163501 
L 116.609788 260.276099 
L 116.911199 259.703405 
L 118.418251 258.344161 
L 118.719662 258.277346 
L 119.322483 259.209665 
L 119.925304 260.689336 
L 120.829536 266.002226 
L 121.130946 266.550931 
L 121.733768 268.689708 
L 122.336589 271.884507 
L 122.637999 272.977526 
L 122.93941 273.301623 
L 123.843641 275.031639 
L 124.446463 275.209278 
L 125.350694 274.840452 
L 125.652105 274.420414 
L 126.254926 273.878055 
L 126.857747 273.266732 
L 127.159158 273.266732 
L 127.460568 272.870541 
L 128.3648 272.39619 
L 128.967621 272.519163 
L 129.570442 272.915005 
L 130.173263 273.547017 
L 130.474674 274.167087 
L 130.776084 275.176422 
L 131.680316 276.984723 
L 132.885958 280.728954 
L 133.187369 281.400613 
L 133.79019 283.185025 
L 134.0916 283.432685 
L 134.393011 283.876933 
L 134.694421 284.580568 
L 135.598653 285.243359 
L 136.201474 285.292671 
L 137.105706 284.880166 
L 137.407116 284.530671 
L 138.009937 283.50733 
L 138.914169 281.988808 
L 139.21558 281.02743 
L 139.51699 279.516495 
L 140.722632 275.758806 
L 141.626864 271.862096 
L 143.435327 267.94523 
L 144.64097 265.95848 
L 144.94238 265.079492 
L 145.243791 263.719091 
L 146.148022 261.226244 
L 146.449433 260.310832 
L 147.353665 256.524987 
L 148.257896 254.689198 
L 148.559307 254.122806 
L 148.860717 253.814432 
L 149.463538 253.923678 
L 150.066359 254.323512 
L 150.36777 255.088624 
L 150.669181 255.088624 
L 150.970591 255.80123 
L 152.477644 257.387862 
L 152.779054 257.697745 
L 153.984697 258.258595 
L 155.79316 260.64228 
L 156.094571 261.560387 
L 156.395981 262.942131 
L 157.601623 265.926529 
L 158.204444 268.131624 
L 158.807265 268.980439 
L 159.711497 269.888765 
L 160.314318 269.866815 
L 162.122782 269.554771 
L 163.027013 269.889598 
L 163.629834 270.173847 
L 164.232655 270.399363 
L 165.136887 270.872691 
L 165.739708 271.943588 
L 166.041119 272.490329 
L 166.342529 273.517056 
L 166.64394 275.275357 
L 166.94535 275.275357 
L 167.246761 277.405185 
L 167.548172 278.582409 
L 168.150993 282.245497 
L 168.452403 282.820347 
L 168.753814 283.908682 
L 169.055224 285.751331 
L 169.658045 286.853218 
L 169.959456 287.07711 
L 170.260866 286.609385 
L 170.562277 286.609385 
L 171.165098 284.398661 
L 171.767919 282.336222 
L 172.672151 278.077011 
L 173.274972 276.964574 
L 173.576383 276.676664 
L 173.877793 276.641697 
L 175.083435 279.896407 
L 175.384846 280.976403 
L 175.987667 284.492127 
L 176.590488 285.497448 
L 176.891899 285.604164 
L 177.193309 285.443926 
L 177.49472 284.696693 
L 178.097541 281.600672 
L 179.303183 275.780224 
L 180.207415 269.92513 
L 181.111646 267.311822 
L 181.413057 267.342741 
L 181.714467 267.94775 
L 182.015878 268.264017 
L 182.618699 269.986661 
L 182.92011 272.156354 
L 183.22152 272.156354 
L 183.522931 275.246412 
L 183.824341 275.657412 
L 184.427162 276.768064 
L 184.728573 276.783242 
L 185.029984 276.335999 
L 185.331394 275.150764 
L 185.934215 271.445685 
L 186.235626 271.445685 
L 186.537036 268.458755 
L 186.838447 266.947881 
L 187.441268 262.735345 
L 187.742679 262.132605 
L 188.044089 261.042135 
L 188.3455 259.456336 
L 188.64691 259.061299 
L 188.948321 259.028351 
L 189.249731 259.649017 
L 189.551142 259.988638 
L 189.852552 260.842384 
L 190.153963 263.114267 
L 190.455373 263.114267 
L 190.756784 267.290603 
L 191.058195 268.004075 
L 191.661016 270.728217 
L 191.962426 272.868342 
L 192.263837 272.868342 
L 192.565247 274.136106 
L 192.866658 274.107165 
L 193.168068 273.857064 
L 193.469479 273.361639 
L 194.675121 266.798026 
L 194.976532 266.159474 
L 195.277942 264.931258 
L 195.579353 262.820637 
L 196.182174 261.354813 
L 196.483585 261.251857 
L 196.784995 261.349853 
L 197.086406 261.745569 
L 197.689227 264.978436 
L 197.990637 267.00272 
L 198.292048 267.723137 
L 198.894869 270.704174 
L 199.196279 273.537582 
L 199.49769 273.537582 
L 199.799101 276.676322 
L 200.100511 277.044243 
L 200.703332 277.991953 
L 201.306153 277.924603 
L 201.607564 276.14733 
L 201.908974 275.73195 
L 202.511796 273.986519 
L 202.813206 272.302563 
L 203.717438 270.047315 
L 204.320259 269.74204 
L 204.621669 269.91878 
L 204.92308 270.2495 
L 205.525901 272.083926 
L 205.827312 273.344618 
L 206.128722 273.344618 
L 206.430133 275.218605 
L 206.731543 275.218605 
L 207.032954 277.984894 
L 207.334364 278.396574 
L 208.238596 280.776984 
L 208.841417 281.252406 
L 209.142828 281.118889 
L 209.444238 280.671788 
L 209.745649 280.671788 
L 210.951291 276.655223 
L 212.156933 272.464923 
L 212.458344 270.967506 
L 213.061165 269.941202 
L 213.362575 269.648891 
L 213.663986 269.540946 
L 214.568218 271.436358 
L 215.171039 273.278808 
L 216.07527 277.846849 
L 216.678092 279.493112 
L 217.280913 280.531856 
L 217.582323 280.714856 
L 218.185144 279.335798 
L 218.787965 277.265142 
L 219.089376 275.982825 
L 219.390786 273.826906 
L 219.692197 270.74062 
L 220.596429 266.237034 
L 220.897839 263.820696 
L 221.19925 263.820696 
L 221.50066 262.361159 
L 221.802071 262.418834 
L 222.103481 262.775358 
L 222.404892 263.428313 
L 222.706303 264.3465 
L 223.007713 266.122099 
L 223.309124 268.924661 
L 225.117587 278.174404 
L 225.418998 278.63949 
L 225.720408 278.844904 
L 226.021819 278.780195 
L 226.323229 278.183076 
L 226.92605 275.295594 
L 227.830282 270.849188 
L 228.734514 263.847403 
L 229.337335 261.553026 
L 229.940156 260.282934 
L 230.542977 261.691075 
L 231.145798 264.057205 
L 231.748619 267.065642 
L 232.652851 274.27381 
L 233.858493 280.2602 
L 234.159904 280.5257 
L 234.461314 280.467299 
L 234.762725 280.100381 
L 235.064135 279.007495 
L 235.365546 276.739586 
L 236.571188 270.757714 
L 237.174009 266.168266 
L 237.77683 264.748419 
L 238.078241 264.461674 
L 238.379651 264.482099 
L 238.681062 264.8176 
L 238.982472 265.87134 
L 239.283883 268.112061 
L 240.188115 272.49369 
L 241.092346 279.118098 
L 241.695167 281.156051 
L 241.996578 281.812345 
L 242.297988 282.169698 
L 242.599399 282.08414 
L 244.106452 275.939798 
L 245.010683 269.358796 
L 245.613505 267.123719 
L 246.216326 265.817261 
L 246.517736 266.274503 
L 247.120557 267.966935 
L 247.723378 270.555964 
L 248.024789 274.4932 
L 248.3262 274.4932 
L 248.62761 277.801679 
L 250.134663 285.414195 
L 250.436073 285.473108 
L 250.737484 285.160679 
L 251.038894 284.489802 
L 251.340305 283.497724 
L 251.641716 279.86678 
L 251.943126 279.86678 
L 252.244537 276.24173 
L 253.148768 270.460858 
L 253.450179 266.157778 
L 253.751589 266.157778 
L 254.053 263.533522 
L 254.655821 262.032974 
L 254.957232 261.766854 
L 255.258642 262.285486 
L 255.560053 263.520834 
L 255.861463 265.362783 
L 256.162874 266.080491 
L 256.765695 269.295413 
L 257.368516 275.541107 
L 257.669927 278.14391 
L 257.971337 278.978133 
L 258.875569 283.971485 
L 259.176979 284.419712 
L 259.47839 284.356024 
L 259.7798 283.464658 
L 260.081211 281.843494 
L 260.382622 281.843494 
L 260.684032 278.834313 
L 261.286853 275.206006 
L 262.191085 266.690552 
L 263.095317 261.995164 
L 263.698138 260.164509 
L 263.999548 259.784031 
L 264.602369 261.546185 
L 265.20519 264.189819 
L 265.506601 266.676825 
L 265.808012 270.318422 
L 267.315064 280.397157 
L 267.616475 283.304274 
L 268.219296 285.294656 
L 268.520707 285.850955 
L 268.822117 286.064619 
L 269.123528 285.929132 
L 269.424938 285.073288 
L 270.027759 281.301392 
L 270.931991 275.761762 
L 271.836223 266.737854 
L 273.041865 259.573608 
L 273.343275 258.204212 
L 273.644686 258.111825 
L 273.946096 258.418415 
L 274.247507 259.094616 
L 274.548918 260.0991 
L 274.850328 262.137354 
L 275.151739 265.535537 
L 276.357381 273.404043 
L 277.261613 281.83374 
L 278.165844 287.039453 
L 278.467255 287.039453 
L 278.768665 287.836636 
L 279.070076 287.642153 
L 279.371486 286.986127 
L 279.672897 285.994209 
L 279.974307 283.200818 
L 280.275718 283.200818 
L 280.577129 277.752046 
L 280.878539 276.771749 
L 281.48136 272.782781 
L 281.782771 268.895033 
L 282.385592 264.713295 
L 282.988413 261.624251 
L 283.289824 261.624251 
L 283.591234 261.168475 
L 283.892645 261.168475 
L 284.194055 263.013409 
L 284.495466 263.577097 
L 285.098287 266.394346 
L 285.399697 269.789141 
L 285.701108 269.789141 
L 286.002519 275.25947 
L 286.303929 276.16016 
L 287.810982 285.059766 
L 288.413803 286.109825 
L 288.715214 286.274794 
L 289.016624 286.184196 
L 289.318035 285.497754 
L 289.920856 282.163911 
L 290.523677 278.819866 
L 290.825087 275.001229 
L 291.126498 275.001229 
L 291.427908 269.206862 
L 291.729319 268.278371 
L 292.633551 262.379822 
L 292.934961 262.379822 
L 293.236372 260.972303 
L 293.537782 261.033178 
L 293.839193 261.396276 
L 294.140603 262.066899 
L 295.044835 268.929188 
L 295.346246 269.816376 
L 295.949067 273.425547 
L 296.250477 276.947007 
L 296.551888 276.947007 
L 296.853298 281.447807 
L 297.154709 282.08612 
L 298.058941 285.307338 
L 298.360351 285.307691 
L 298.661762 284.607135 
L 298.963172 284.232444 
L 299.565993 282.121803 
L 299.867404 279.257157 
L 300.168814 277.633227 
L 300.771636 272.448064 
L 301.073046 271.570111 
L 301.374457 269.85158 
L 301.675867 266.671421 
L 302.580099 262.869388 
L 302.881509 262.738712 
L 303.18292 262.729959 
L 304.087152 265.796581 
L 304.388562 267.913726 
L 304.689973 271.173512 
L 304.991383 271.173512 
L 305.292794 274.554296 
L 306.197026 280.039669 
L 306.498436 282.309857 
L 306.799847 282.309857 
L 307.101257 283.696814 
L 307.402668 284.031495 
L 307.704078 284.112696 
L 308.005489 283.707673 
L 308.60831 281.126622 
L 309.512542 276.902355 
L 309.813952 275.31596 
L 310.718184 268.179551 
L 311.622415 264.505067 
L 312.225237 263.239369 
L 312.526647 263.739304 
L 313.129468 265.451862 
L 313.430879 266.650525 
L 313.732289 268.756085 
L 314.0337 271.925235 
L 315.540753 280.571249 
L 315.842163 282.968906 
L 316.444984 284.521873 
L 316.746395 284.90423 
L 317.047805 284.994661 
L 317.349216 283.851621 
L 317.650627 283.851621 
L 318.253448 280.364329 
L 318.856269 277.299876 
L 319.7605 270.003492 
L 320.966143 263.697053 
L 321.267553 263.375161 
L 321.568964 263.380135 
L 321.870374 263.702403 
L 322.171785 264.327195 
L 322.473195 265.22976 
L 322.774606 267.003 
L 323.076016 269.976261 
L 324.281659 276.784805 
L 325.18589 283.943842 
L 325.788711 286.366594 
L 326.391533 287.861876 
L 326.692943 288.100107 
L 327.597175 284.871148 
L 327.898585 283.369735 
L 328.199996 279.891268 
L 328.501406 279.891268 
L 328.802817 274.185762 
L 329.104228 273.236676 
L 329.707049 269.597416 
L 330.008459 266.384907 
L 330.912691 262.760799 
L 331.515512 262.590776 
L 332.118333 264.309637 
L 333.022565 268.829845 
L 333.323975 270.344084 
L 333.625386 273.473285 
L 333.926796 275.01574 
L 334.831028 281.606348 
L 335.132439 281.606348 
L 335.433849 284.086236 
L 336.03667 285.94275 
L 336.338081 286.696157 
L 336.639491 286.744833 
L 336.940902 286.344223 
L 337.543723 284.747607 
L 338.447955 279.892196 
L 338.749365 278.196583 
L 339.050776 274.630862 
L 339.352186 272.831376 
L 340.256418 265.509159 
L 340.557828 265.509159 
L 340.859239 263.206588 
L 341.16065 263.206588 
L 341.46206 261.850848 
L 341.763471 261.910902 
L 342.064881 262.27293 
L 342.366292 262.929062 
L 343.270523 269.207134 
L 343.571934 269.977834 
L 344.777576 276.7299 
L 345.078987 279.348035 
L 345.983218 282.682671 
L 346.284629 284.704482 
L 346.58604 284.704482 
L 346.88745 285.448888 
L 347.188861 285.444777 
L 347.490271 285.188768 
L 347.791682 284.685876 
L 348.093092 283.489987 
L 348.394503 281.289745 
L 349.600145 276.349337 
L 349.901556 273.962045 
L 350.202966 273.962045 
L 350.504377 272.749124 
L 351.107198 272.051143 
L 351.710019 271.565119 
L 352.31284 271.586046 
L 352.915661 271.82915 
L 353.217072 272.044544 
L 353.518482 272.657834 
L 353.819893 272.657834 
L 354.121303 273.8589 
L 354.422714 274.070707 
L 354.724124 274.880902 
L 355.025535 274.880902 
L 355.326946 275.594993 
L 355.929767 276.265369 
L 356.532588 276.347573 
L 356.833998 276.282549 
L 357.436819 275.290991 
L 357.73823 274.535655 
L 358.039641 274.249567 
L 358.642462 272.988175 
L 358.943872 271.714689 
L 359.546693 270.396404 
L 360.149514 270.209793 
L 360.450925 270.284803 
L 361.656567 272.911328 
L 361.957978 274.23874 
L 362.259388 274.23874 
L 362.560799 275.397636 
L 363.16362 276.079501 
L 363.46503 276.124757 
L 363.766441 275.452898 
L 364.067852 275.452898 
L 364.670673 273.068025 
L 364.972083 272.025354 
L 365.574904 268.386253 
L 365.876315 268.386253 
L 366.177725 266.923156 
L 366.479136 266.489489 
L 366.780547 266.279669 
L 367.081957 266.303319 
L 367.383368 266.774218 
L 367.986189 269.004215 
L 368.89042 272.281882 
L 369.191831 275.316212 
L 369.493242 275.316212 
L 369.794652 277.704376 
L 370.698884 280.729052 
L 371.301705 282.284415 
L 371.603115 282.647172 
L 371.904526 282.529862 
L 372.507347 281.801536 
L 372.808758 281.259593 
L 373.712989 278.73042 
L 374.617221 277.63449 
L 374.918631 277.63449 
L 375.220042 277.480244 
L 376.124274 277.570347 
L 377.028505 278.16032 
L 377.329916 278.574938 
L 377.631326 278.740175 
L 377.932737 279.104427 
L 378.234148 279.909062 
L 379.138379 281.010176 
L 379.7412 281.072871 
L 380.344021 280.441094 
L 381.549664 277.786967 
L 381.851074 276.383615 
L 382.152485 276.383615 
L 382.453895 274.758595 
L 383.358127 274.248804 
L 383.960948 275.008331 
L 385.16659 278.323844 
L 385.468001 280.249272 
L 385.769411 280.249272 
L 386.070822 282.892249 
L 386.372232 283.257693 
L 386.975054 284.358568 
L 387.276464 284.635392 
L 387.577875 284.635392 
L 387.879285 283.165106 
L 388.180696 282.72816 
L 388.783517 280.596116 
L 389.084927 278.084479 
L 389.386338 276.779735 
L 389.989159 273.048984 
L 390.29057 272.501008 
L 390.893391 270.325247 
L 391.194801 270.138794 
L 391.496212 270.39879 
L 391.797622 271.222897 
L 392.099033 271.596262 
L 392.400443 272.465846 
L 392.701854 274.564216 
L 393.003265 275.689179 
L 393.907496 280.426145 
L 394.208907 280.426145 
L 394.510317 281.901719 
L 394.811728 282.380607 
L 395.113138 282.650409 
L 395.414549 282.328074 
L 395.71596 281.440052 
L 396.01737 281.440052 
L 396.318781 279.647437 
L 396.620191 279.647437 
L 396.921602 276.575621 
L 397.223012 276.108098 
L 398.127244 273.399507 
L 398.730065 272.926671 
L 399.634297 273.467216 
L 399.935707 274.215625 
L 400.839939 275.643626 
L 401.141349 276.318812 
L 401.44276 276.318812 
L 401.744171 276.773892 
L 402.648402 277.238351 
L 402.949813 277.561069 
L 403.552634 278.679197 
L 404.758276 280.594651 
L 405.059687 280.594651 
L 405.361097 280.710231 
L 405.963918 280.569911 
L 406.265329 280.401332 
L 406.566739 279.59784 
L 406.86815 279.59784 
L 407.169561 278.592781 
L 408.676613 275.941352 
L 409.580845 275.713089 
L 410.183666 275.684426 
L 410.786487 276.562197 
L 411.389308 277.971798 
L 411.690719 278.866149 
L 412.29354 281.859461 
L 412.896361 282.778841 
L 413.197772 282.935225 
L 413.499182 282.879152 
L 413.800593 282.613834 
L 414.102003 281.856271 
L 414.403414 280.350716 
L 415.609056 276.685661 
L 416.211877 273.951836 
L 416.814698 272.979155 
L 417.116109 272.695478 
L 417.71893 272.576888 
L 418.02034 273.607589 
L 418.321751 273.860891 
L 418.924572 274.887326 
L 419.225983 275.723407 
L 420.431625 277.06762 
L 421.335856 277.057629 
L 421.637267 276.786966 
L 422.240088 275.731607 
L 422.541499 275.731607 
L 422.842909 274.930981 
L 423.14432 274.664109 
L 423.44573 274.552586 
L 423.747141 274.757337 
L 424.048551 275.726815 
L 424.349962 275.726815 
L 424.651373 277.25561 
L 425.254194 278.942311 
L 425.857015 281.566411 
L 426.158425 281.566411 
L 426.459836 283.241435 
L 427.062657 285.471799 
L 427.364068 287.473694 
L 427.665478 290.263797 
L 427.966889 290.263797 
L 428.268299 292.870247 
L 429.172531 296.567269 
L 429.473941 298.091115 
L 429.775352 298.091115 
L 430.076762 299.160078 
L 430.378173 299.617045 
L 430.679584 299.652438 
L 430.980994 299.535499 
L 431.282405 299.069507 
L 431.583815 298.28019 
L 432.186636 293.198744 
L 432.186636 293.198744 
" clip-path="url(#p628b72fb63)" style="fill: none; stroke: #008000; stroke-width: 1.5; stroke-linecap: square"/>
   </g>
   <g id="patch_13">
    <path d="M 58.106 301.9975 
L 58.106 251.52 
" style="fill: none; stroke: #000000; stroke-width: 0.8; stroke-linejoin: miter; stroke-linecap: square"/>
   </g>
   <g id="patch_14">
    <path d="M 450 301.9975 
L 450 251.52 
" style="fill: none; stroke: #000000; stroke-width: 0.8; stroke-linejoin: miter; stroke-linecap: square"/>
   </g>
   <g id="patch_15">
    <path d="M 58.106 301.9975 
L 450 301.9975 
" style="fill: none; stroke: #000000; stroke-width: 0.8; stroke-linejoin: miter; stroke-linecap: square"/>
   </g>
   <g id="patch_16">
    <path d="M 58.106 251.52 
L 450 251.52 
" style="fill: none; stroke: #000000; stroke-width: 0.8; stroke-linejoin: miter; stroke-linecap: square"/>
   </g>
   <g id="text_38">
    <!-- Error in swing angle -->
    <g transform="translate(194.282688 245.52)scale(0.12 -0.12)">
     <defs>
      <path id="DejaVuSans-77" d="M 269 3500 
L 844 3500 
L 1563 769 
L 2278 3500 
L 2956 3500 
L 3675 769 
L 4391 3500 
L 4966 3500 
L 4050 0 
L 3372 0 
L 2619 2869 
L 1863 0 
L 1184 0 
L 269 3500 
z
" transform="scale(0.015625)"/>
      <path id="DejaVuSans-67" d="M 2906 1791 
Q 2906 2416 2648 2759 
Q 2391 3103 1925 3103 
Q 1463 3103 1205 2759 
Q 947 2416 947 1791 
Q 947 1169 1205 825 
Q 1463 481 1925 481 
Q 2391 481 2648 825 
Q 2906 1169 2906 1791 
z
M 3481 434 
Q 3481 -459 3084 -895 
Q 2688 -1331 1869 -1331 
Q 1566 -1331 1297 -1286 
Q 1028 -1241 775 -1147 
L 775 -588 
Q 1028 -725 1275 -790 
Q 1522 -856 1778 -856 
Q 2344 -856 2625 -561 
Q 2906 -266 2906 331 
L 2906 616 
Q 2728 306 2450 153 
Q 2172 0 1784 0 
Q 1141 0 747 490 
Q 353 981 353 1791 
Q 353 2603 747 3093 
Q 1141 3584 1784 3584 
Q 2172 3584 2450 3431 
Q 2728 3278 2906 2969 
L 2906 3500 
L 3481 3500 
L 3481 434 
z
" transform="scale(0.015625)"/>
      <path id="DejaVuSans-6c" d="M 603 4863 
L 1178 4863 
L 1178 0 
L 603 0 
L 603 4863 
z
" transform="scale(0.015625)"/>
      <path id="DejaVuSans-65" d="M 3597 1894 
L 3597 1613 
L 953 1613 
Q 991 1019 1311 708 
Q 1631 397 2203 397 
Q 2534 397 2845 478 
Q 3156 559 3463 722 
L 3463 178 
Q 3153 47 2828 -22 
Q 2503 -91 2169 -91 
Q 1331 -91 842 396 
Q 353 884 353 1716 
Q 353 2575 817 3079 
Q 1281 3584 2069 3584 
Q 2775 3584 3186 3129 
Q 3597 2675 3597 1894 
z
M 3022 2063 
Q 3016 2534 2758 2815 
Q 2500 3097 2075 3097 
Q 1594 3097 1305 2825 
Q 1016 2553 972 2059 
L 3022 2063 
z
" transform="scale(0.015625)"/>
     </defs>
     <use xlink:href="#DejaVuSans-45"/>
     <use xlink:href="#DejaVuSans-72" x="63.183594"/>
     <use xlink:href="#DejaVuSans-72" x="102.546875"/>
     <use xlink:href="#DejaVuSans-6f" x="141.410156"/>
     <use xlink:href="#DejaVuSans-72" x="202.591797"/>
     <use xlink:href="#DejaVuSans-20" x="243.705078"/>
     <use xlink:href="#DejaVuSans-69" x="275.492188"/>
     <use xlink:href="#DejaVuSans-6e" x="303.275391"/>
     <use xlink:href="#DejaVuSans-20" x="366.654297"/>
     <use xlink:href="#DejaVuSans-73" x="398.441406"/>
     <use xlink:href="#DejaVuSans-77" x="450.541016"/>
     <use xlink:href="#DejaVuSans-69" x="532.328125"/>
     <use xlink:href="#DejaVuSans-6e" x="560.111328"/>
     <use xlink:href="#DejaVuSans-67" x="623.490234"/>
     <use xlink:href="#DejaVuSans-20" x="686.966797"/>
     <use xlink:href="#DejaVuSans-61" x="718.753906"/>
     <use xlink:href="#DejaVuSans-6e" x="780.033203"/>
     <use xlink:href="#DejaVuSans-67" x="843.412109"/>
     <use xlink:href="#DejaVuSans-6c" x="906.888672"/>
     <use xlink:href="#DejaVuSans-65" x="934.671875"/>
    </g>
   </g>
  </g>
 </g>
 <defs>
  <clipPath id="pdc3a4486ed">
   <rect x="58.106" y="28.32" width="391.894" height="50.4775"/>
  </clipPath>
  <clipPath id="p11d96d7b93">
   <rect x="58.106" y="139.92" width="391.894" height="50.4775"/>
  </clipPath>
  <clipPath id="p628b72fb63">
   <rect x="58.106" y="251.52" width="391.894" height="50.4775"/>
  </clipPath>
 </defs>
</svg>
