<?xml version="1.0" encoding="utf-8" standalone="no"?>
<!DOCTYPE svg PUBLIC "-//W3C//DTD SVG 1.1//EN"
  "http://www.w3.org/Graphics/SVG/1.1/DTD/svg11.dtd">
<svg xmlns:xlink="http://www.w3.org/1999/xlink" width="460.8pt" height="345.6pt" viewBox="0 0 460.8 345.6" xmlns="http://www.w3.org/2000/svg" version="1.1">
 <metadata>
  <rdf:RDF xmlns:dc="http://purl.org/dc/elements/1.1/" xmlns:cc="http://creativecommons.org/ns#" xmlns:rdf="http://www.w3.org/1999/02/22-rdf-syntax-ns#">
   <cc:Work>
    <dc:type rdf:resource="http://purl.org/dc/dcmitype/StillImage"/>
    <dc:date>2022-06-05T14:47:24.443390</dc:date>
    <dc:format>image/svg+xml</dc:format>
    <dc:creator>
     <cc:Agent>
      <dc:title>Matplotlib v3.5.1, https://matplotlib.org/</dc:title>
     </cc:Agent>
    </dc:creator>
   </cc:Work>
  </rdf:RDF>
 </metadata>
 <defs>
  <style type="text/css">*{stroke-linejoin: round; stroke-linecap: butt}</style>
 </defs>
 <g id="figure_1">
  <g id="patch_1">
   <path d="M 0 345.6 
L 460.8 345.6 
L 460.8 0 
L 0 0 
z
" style="fill: #ffffff"/>
  </g>
  <g id="axes_1">
   <g id="patch_2">
    <path d="M 58.106 78.7975 
L 450 78.7975 
L 450 28.32 
L 58.106 28.32 
z
" style="fill: #ffffff"/>
   </g>
   <g id="matplotlib.axis_1">
    <g id="xtick_1">
     <g id="line2d_1">
      <path d="M 75.919364 78.7975 
L 75.919364 28.32 
" clip-path="url(#p0f2db68b24)" style="fill: none; stroke: #b0b0b0; stroke-width: 0.8; stroke-linecap: square"/>
     </g>
     <g id="line2d_2">
      <defs>
       <path id="m22f7c5e6ca" d="M 0 0 
L 0 3.5 
" style="stroke: #000000; stroke-width: 0.8"/>
      </defs>
      <g>
       <use xlink:href="#m22f7c5e6ca" x="75.919364" y="78.7975" style="stroke: #000000; stroke-width: 0.8"/>
      </g>
     </g>
     <g id="text_1">
      <!-- 0 -->
      <g transform="translate(72.738114 93.395937)scale(0.1 -0.1)">
       <defs>
        <path id="DejaVuSans-30" d="M 2034 4250 
Q 1547 4250 1301 3770 
Q 1056 3291 1056 2328 
Q 1056 1369 1301 889 
Q 1547 409 2034 409 
Q 2525 409 2770 889 
Q 3016 1369 3016 2328 
Q 3016 3291 2770 3770 
Q 2525 4250 2034 4250 
z
M 2034 4750 
Q 2819 4750 3233 4129 
Q 3647 3509 3647 2328 
Q 3647 1150 3233 529 
Q 2819 -91 2034 -91 
Q 1250 -91 836 529 
Q 422 1150 422 2328 
Q 422 3509 836 4129 
Q 1250 4750 2034 4750 
z
" transform="scale(0.015625)"/>
       </defs>
       <use xlink:href="#DejaVuSans-30"/>
      </g>
     </g>
    </g>
    <g id="xtick_2">
     <g id="line2d_3">
      <path d="M 135.545685 78.7975 
L 135.545685 28.32 
" clip-path="url(#p0f2db68b24)" style="fill: none; stroke: #b0b0b0; stroke-width: 0.8; stroke-linecap: square"/>
     </g>
     <g id="line2d_4">
      <g>
       <use xlink:href="#m22f7c5e6ca" x="135.545685" y="78.7975" style="stroke: #000000; stroke-width: 0.8"/>
      </g>
     </g>
     <g id="text_2">
      <!-- 2 -->
      <g transform="translate(132.364435 93.395937)scale(0.1 -0.1)">
       <defs>
        <path id="DejaVuSans-32" d="M 1228 531 
L 3431 531 
L 3431 0 
L 469 0 
L 469 531 
Q 828 903 1448 1529 
Q 2069 2156 2228 2338 
Q 2531 2678 2651 2914 
Q 2772 3150 2772 3378 
Q 2772 3750 2511 3984 
Q 2250 4219 1831 4219 
Q 1534 4219 1204 4116 
Q 875 4013 500 3803 
L 500 4441 
Q 881 4594 1212 4672 
Q 1544 4750 1819 4750 
Q 2544 4750 2975 4387 
Q 3406 4025 3406 3419 
Q 3406 3131 3298 2873 
Q 3191 2616 2906 2266 
Q 2828 2175 2409 1742 
Q 1991 1309 1228 531 
z
" transform="scale(0.015625)"/>
       </defs>
       <use xlink:href="#DejaVuSans-32"/>
      </g>
     </g>
    </g>
    <g id="xtick_3">
     <g id="line2d_5">
      <path d="M 195.172007 78.7975 
L 195.172007 28.32 
" clip-path="url(#p0f2db68b24)" style="fill: none; stroke: #b0b0b0; stroke-width: 0.8; stroke-linecap: square"/>
     </g>
     <g id="line2d_6">
      <g>
       <use xlink:href="#m22f7c5e6ca" x="195.172007" y="78.7975" style="stroke: #000000; stroke-width: 0.8"/>
      </g>
     </g>
     <g id="text_3">
      <!-- 4 -->
      <g transform="translate(191.990757 93.395937)scale(0.1 -0.1)">
       <defs>
        <path id="DejaVuSans-34" d="M 2419 4116 
L 825 1625 
L 2419 1625 
L 2419 4116 
z
M 2253 4666 
L 3047 4666 
L 3047 1625 
L 3713 1625 
L 3713 1100 
L 3047 1100 
L 3047 0 
L 2419 0 
L 2419 1100 
L 313 1100 
L 313 1709 
L 2253 4666 
z
" transform="scale(0.015625)"/>
       </defs>
       <use xlink:href="#DejaVuSans-34"/>
      </g>
     </g>
    </g>
    <g id="xtick_4">
     <g id="line2d_7">
      <path d="M 254.798329 78.7975 
L 254.798329 28.32 
" clip-path="url(#p0f2db68b24)" style="fill: none; stroke: #b0b0b0; stroke-width: 0.8; stroke-linecap: square"/>
     </g>
     <g id="line2d_8">
      <g>
       <use xlink:href="#m22f7c5e6ca" x="254.798329" y="78.7975" style="stroke: #000000; stroke-width: 0.8"/>
      </g>
     </g>
     <g id="text_4">
      <!-- 6 -->
      <g transform="translate(251.617079 93.395937)scale(0.1 -0.1)">
       <defs>
        <path id="DejaVuSans-36" d="M 2113 2584 
Q 1688 2584 1439 2293 
Q 1191 2003 1191 1497 
Q 1191 994 1439 701 
Q 1688 409 2113 409 
Q 2538 409 2786 701 
Q 3034 994 3034 1497 
Q 3034 2003 2786 2293 
Q 2538 2584 2113 2584 
z
M 3366 4563 
L 3366 3988 
Q 3128 4100 2886 4159 
Q 2644 4219 2406 4219 
Q 1781 4219 1451 3797 
Q 1122 3375 1075 2522 
Q 1259 2794 1537 2939 
Q 1816 3084 2150 3084 
Q 2853 3084 3261 2657 
Q 3669 2231 3669 1497 
Q 3669 778 3244 343 
Q 2819 -91 2113 -91 
Q 1303 -91 875 529 
Q 447 1150 447 2328 
Q 447 3434 972 4092 
Q 1497 4750 2381 4750 
Q 2619 4750 2861 4703 
Q 3103 4656 3366 4563 
z
" transform="scale(0.015625)"/>
       </defs>
       <use xlink:href="#DejaVuSans-36"/>
      </g>
     </g>
    </g>
    <g id="xtick_5">
     <g id="line2d_9">
      <path d="M 314.424651 78.7975 
L 314.424651 28.32 
" clip-path="url(#p0f2db68b24)" style="fill: none; stroke: #b0b0b0; stroke-width: 0.8; stroke-linecap: square"/>
     </g>
     <g id="line2d_10">
      <g>
       <use xlink:href="#m22f7c5e6ca" x="314.424651" y="78.7975" style="stroke: #000000; stroke-width: 0.8"/>
      </g>
     </g>
     <g id="text_5">
      <!-- 8 -->
      <g transform="translate(311.243401 93.395937)scale(0.1 -0.1)">
       <defs>
        <path id="DejaVuSans-38" d="M 2034 2216 
Q 1584 2216 1326 1975 
Q 1069 1734 1069 1313 
Q 1069 891 1326 650 
Q 1584 409 2034 409 
Q 2484 409 2743 651 
Q 3003 894 3003 1313 
Q 3003 1734 2745 1975 
Q 2488 2216 2034 2216 
z
M 1403 2484 
Q 997 2584 770 2862 
Q 544 3141 544 3541 
Q 544 4100 942 4425 
Q 1341 4750 2034 4750 
Q 2731 4750 3128 4425 
Q 3525 4100 3525 3541 
Q 3525 3141 3298 2862 
Q 3072 2584 2669 2484 
Q 3125 2378 3379 2068 
Q 3634 1759 3634 1313 
Q 3634 634 3220 271 
Q 2806 -91 2034 -91 
Q 1263 -91 848 271 
Q 434 634 434 1313 
Q 434 1759 690 2068 
Q 947 2378 1403 2484 
z
M 1172 3481 
Q 1172 3119 1398 2916 
Q 1625 2713 2034 2713 
Q 2441 2713 2670 2916 
Q 2900 3119 2900 3481 
Q 2900 3844 2670 4047 
Q 2441 4250 2034 4250 
Q 1625 4250 1398 4047 
Q 1172 3844 1172 3481 
z
" transform="scale(0.015625)"/>
       </defs>
       <use xlink:href="#DejaVuSans-38"/>
      </g>
     </g>
    </g>
    <g id="xtick_6">
     <g id="line2d_11">
      <path d="M 374.050973 78.7975 
L 374.050973 28.32 
" clip-path="url(#p0f2db68b24)" style="fill: none; stroke: #b0b0b0; stroke-width: 0.8; stroke-linecap: square"/>
     </g>
     <g id="line2d_12">
      <g>
       <use xlink:href="#m22f7c5e6ca" x="374.050973" y="78.7975" style="stroke: #000000; stroke-width: 0.8"/>
      </g>
     </g>
     <g id="text_6">
      <!-- 10 -->
      <g transform="translate(367.688473 93.395937)scale(0.1 -0.1)">
       <defs>
        <path id="DejaVuSans-31" d="M 794 531 
L 1825 531 
L 1825 4091 
L 703 3866 
L 703 4441 
L 1819 4666 
L 2450 4666 
L 2450 531 
L 3481 531 
L 3481 0 
L 794 0 
L 794 531 
z
" transform="scale(0.015625)"/>
       </defs>
       <use xlink:href="#DejaVuSans-31"/>
       <use xlink:href="#DejaVuSans-30" x="63.623047"/>
      </g>
     </g>
    </g>
    <g id="xtick_7">
     <g id="line2d_13">
      <path d="M 433.677294 78.7975 
L 433.677294 28.32 
" clip-path="url(#p0f2db68b24)" style="fill: none; stroke: #b0b0b0; stroke-width: 0.8; stroke-linecap: square"/>
     </g>
     <g id="line2d_14">
      <g>
       <use xlink:href="#m22f7c5e6ca" x="433.677294" y="78.7975" style="stroke: #000000; stroke-width: 0.8"/>
      </g>
     </g>
     <g id="text_7">
      <!-- 12 -->
      <g transform="translate(427.314794 93.395937)scale(0.1 -0.1)">
       <use xlink:href="#DejaVuSans-31"/>
       <use xlink:href="#DejaVuSans-32" x="63.623047"/>
      </g>
     </g>
    </g>
    <g id="text_8">
     <!-- $t$ [s] -->
     <g transform="translate(243.953 107.074062)scale(0.1 -0.1)">
      <defs>
       <path id="DejaVuSans-Oblique-74" d="M 2706 3500 
L 2619 3053 
L 1472 3053 
L 1100 1153 
Q 1081 1047 1072 975 
Q 1063 903 1063 863 
Q 1063 663 1183 572 
Q 1303 481 1569 481 
L 2150 481 
L 2053 0 
L 1503 0 
Q 991 0 739 200 
Q 488 400 488 806 
Q 488 878 497 964 
Q 506 1050 525 1153 
L 897 3053 
L 409 3053 
L 500 3500 
L 978 3500 
L 1172 4494 
L 1747 4494 
L 1556 3500 
L 2706 3500 
z
" transform="scale(0.015625)"/>
       <path id="DejaVuSans-20" transform="scale(0.015625)"/>
       <path id="DejaVuSans-5b" d="M 550 4863 
L 1875 4863 
L 1875 4416 
L 1125 4416 
L 1125 -397 
L 1875 -397 
L 1875 -844 
L 550 -844 
L 550 4863 
z
" transform="scale(0.015625)"/>
       <path id="DejaVuSans-73" d="M 2834 3397 
L 2834 2853 
Q 2591 2978 2328 3040 
Q 2066 3103 1784 3103 
Q 1356 3103 1142 2972 
Q 928 2841 928 2578 
Q 928 2378 1081 2264 
Q 1234 2150 1697 2047 
L 1894 2003 
Q 2506 1872 2764 1633 
Q 3022 1394 3022 966 
Q 3022 478 2636 193 
Q 2250 -91 1575 -91 
Q 1294 -91 989 -36 
Q 684 19 347 128 
L 347 722 
Q 666 556 975 473 
Q 1284 391 1588 391 
Q 1994 391 2212 530 
Q 2431 669 2431 922 
Q 2431 1156 2273 1281 
Q 2116 1406 1581 1522 
L 1381 1569 
Q 847 1681 609 1914 
Q 372 2147 372 2553 
Q 372 3047 722 3315 
Q 1072 3584 1716 3584 
Q 2034 3584 2315 3537 
Q 2597 3491 2834 3397 
z
" transform="scale(0.015625)"/>
       <path id="DejaVuSans-5d" d="M 1947 4863 
L 1947 -844 
L 622 -844 
L 622 -397 
L 1369 -397 
L 1369 4416 
L 622 4416 
L 622 4863 
L 1947 4863 
z
" transform="scale(0.015625)"/>
      </defs>
      <use xlink:href="#DejaVuSans-Oblique-74" transform="translate(0 0.015625)"/>
      <use xlink:href="#DejaVuSans-20" transform="translate(39.208984 0.015625)"/>
      <use xlink:href="#DejaVuSans-5b" transform="translate(70.996094 0.015625)"/>
      <use xlink:href="#DejaVuSans-73" transform="translate(110.009766 0.015625)"/>
      <use xlink:href="#DejaVuSans-5d" transform="translate(162.109375 0.015625)"/>
     </g>
    </g>
   </g>
   <g id="matplotlib.axis_2">
    <g id="ytick_1">
     <g id="line2d_15">
      <path d="M 58.106 76.485768 
L 450 76.485768 
" clip-path="url(#p0f2db68b24)" style="fill: none; stroke: #b0b0b0; stroke-width: 0.8; stroke-linecap: square"/>
     </g>
     <g id="line2d_16">
      <defs>
       <path id="m5b9208ea24" d="M 0 0 
L -3.5 0 
" style="stroke: #000000; stroke-width: 0.8"/>
      </defs>
      <g>
       <use xlink:href="#m5b9208ea24" x="58.106" y="76.485768" style="stroke: #000000; stroke-width: 0.8"/>
      </g>
     </g>
     <g id="text_9">
      <!-- 0 -->
      <g transform="translate(44.7435 80.284987)scale(0.1 -0.1)">
       <use xlink:href="#DejaVuSans-30"/>
      </g>
     </g>
    </g>
    <g id="ytick_2">
     <g id="line2d_17">
      <path d="M 58.106 30.614432 
L 450 30.614432 
" clip-path="url(#p0f2db68b24)" style="fill: none; stroke: #b0b0b0; stroke-width: 0.8; stroke-linecap: square"/>
     </g>
     <g id="line2d_18">
      <g>
       <use xlink:href="#m5b9208ea24" x="58.106" y="30.614432" style="stroke: #000000; stroke-width: 0.8"/>
      </g>
     </g>
     <g id="text_10">
      <!-- 10 -->
      <g transform="translate(38.381 34.413651)scale(0.1 -0.1)">
       <use xlink:href="#DejaVuSans-31"/>
       <use xlink:href="#DejaVuSans-30" x="63.623047"/>
      </g>
     </g>
    </g>
    <g id="text_11">
     <!-- $e_x$ [m] -->
     <g transform="translate(32.301313 69.20875)rotate(-90)scale(0.1 -0.1)">
      <defs>
       <path id="DejaVuSans-Oblique-65" d="M 3078 2063 
Q 3088 2113 3092 2166 
Q 3097 2219 3097 2272 
Q 3097 2653 2873 2875 
Q 2650 3097 2266 3097 
Q 1838 3097 1509 2826 
Q 1181 2556 1013 2059 
L 3078 2063 
z
M 3578 1613 
L 903 1613 
Q 884 1494 878 1425 
Q 872 1356 872 1306 
Q 872 872 1139 634 
Q 1406 397 1894 397 
Q 2269 397 2603 481 
Q 2938 566 3225 728 
L 3116 159 
Q 2806 34 2476 -28 
Q 2147 -91 1806 -91 
Q 1078 -91 686 257 
Q 294 606 294 1247 
Q 294 1794 489 2264 
Q 684 2734 1063 3103 
Q 1306 3334 1642 3459 
Q 1978 3584 2356 3584 
Q 2950 3584 3301 3228 
Q 3653 2872 3653 2272 
Q 3653 2128 3634 1964 
Q 3616 1800 3578 1613 
z
" transform="scale(0.015625)"/>
       <path id="DejaVuSans-Oblique-78" d="M 3841 3500 
L 2234 1784 
L 3219 0 
L 2559 0 
L 1819 1388 
L 531 0 
L -166 0 
L 1556 1844 
L 641 3500 
L 1300 3500 
L 1972 2234 
L 3144 3500 
L 3841 3500 
z
" transform="scale(0.015625)"/>
       <path id="DejaVuSans-6d" d="M 3328 2828 
Q 3544 3216 3844 3400 
Q 4144 3584 4550 3584 
Q 5097 3584 5394 3201 
Q 5691 2819 5691 2113 
L 5691 0 
L 5113 0 
L 5113 2094 
Q 5113 2597 4934 2840 
Q 4756 3084 4391 3084 
Q 3944 3084 3684 2787 
Q 3425 2491 3425 1978 
L 3425 0 
L 2847 0 
L 2847 2094 
Q 2847 2600 2669 2842 
Q 2491 3084 2119 3084 
Q 1678 3084 1418 2786 
Q 1159 2488 1159 1978 
L 1159 0 
L 581 0 
L 581 3500 
L 1159 3500 
L 1159 2956 
Q 1356 3278 1631 3431 
Q 1906 3584 2284 3584 
Q 2666 3584 2933 3390 
Q 3200 3197 3328 2828 
z
" transform="scale(0.015625)"/>
      </defs>
      <use xlink:href="#DejaVuSans-Oblique-65" transform="translate(0 0.015625)"/>
      <use xlink:href="#DejaVuSans-Oblique-78" transform="translate(61.523438 -16.390625)scale(0.7)"/>
      <use xlink:href="#DejaVuSans-20" transform="translate(105.683594 0.015625)"/>
      <use xlink:href="#DejaVuSans-5b" transform="translate(137.470703 0.015625)"/>
      <use xlink:href="#DejaVuSans-6d" transform="translate(176.484375 0.015625)"/>
      <use xlink:href="#DejaVuSans-5d" transform="translate(273.896484 0.015625)"/>
     </g>
    </g>
   </g>
   <g id="line2d_19">
    <path d="M 75.919364 30.614432 
L 83.080515 30.706185 
L 86.362709 30.840858 
L 94.717386 31.229321 
L 100.088249 31.801501 
L 104.265587 32.369604 
L 105.160731 32.465461 
L 107.846163 32.840148 
L 109.039688 33.028865 
L 113.217026 33.791823 
L 113.813789 33.876196 
L 116.797602 34.393505 
L 117.692746 34.574786 
L 120.079796 35.042919 
L 125.45066 36.372707 
L 127.539329 36.91174 
L 130.22476 37.678224 
L 132.910192 38.359034 
L 134.70048 38.91456 
L 134.998861 38.91456 
L 135.297242 39.10966 
L 136.192386 39.271504 
L 136.490768 39.400407 
L 136.789149 39.400407 
L 137.08753 39.592667 
L 137.982674 39.751733 
L 138.281055 39.878125 
L 138.579437 39.878125 
L 138.877818 40.066046 
L 139.772962 40.220945 
L 140.668106 40.495535 
L 141.861631 40.794628 
L 142.160012 40.794628 
L 142.458394 40.971696 
L 143.353538 41.118261 
L 144.547063 41.467477 
L 146.635732 41.985696 
L 146.934113 41.985696 
L 147.829257 42.213562 
L 149.619545 42.637275 
L 151.708214 43.140962 
L 152.603358 43.363394 
L 155.587171 44.021149 
L 156.482315 44.234889 
L 158.869365 44.755415 
L 159.764509 44.959597 
L 162.748322 45.563738 
L 163.643466 45.761626 
L 166.030516 46.248993 
L 166.92566 46.443362 
L 169.312711 46.931239 
L 171.998142 47.479894 
L 174.981955 48.011082 
L 175.578718 48.125745 
L 176.473862 48.308546 
L 178.562531 48.694979 
L 179.756056 48.968349 
L 180.6512 49.127562 
L 183.933394 49.701888 
L 185.12692 49.959238 
L 186.320445 50.111686 
L 186.917207 50.2676 
L 189.304258 50.70272 
L 190.497783 50.953542 
L 193.779977 51.548901 
L 197.360553 52.234346 
L 199.449222 52.646146 
L 200.344366 52.824152 
L 203.62656 53.400737 
L 204.521704 53.58228 
L 207.207136 54.078934 
L 208.10228 54.254042 
L 210.190949 54.617003 
L 210.787711 54.723383 
L 211.682855 54.89501 
L 214.368287 55.373602 
L 215.263431 55.545135 
L 217.3521 55.917506 
L 218.247244 56.079733 
L 220.932676 56.515967 
L 221.529438 56.62238 
L 222.424582 56.792695 
L 225.110014 57.249721 
L 226.005158 57.412482 
L 228.690589 57.870606 
L 229.585733 58.041313 
L 232.271165 58.482191 
L 232.867928 58.624384 
L 235.851741 59.130056 
L 238.537172 59.588304 
L 241.222604 60.010543 
L 241.819367 60.147154 
L 244.80318 60.623984 
L 245.698324 60.78683 
L 248.383755 61.262487 
L 250.770806 61.623922 
L 253.754619 62.077904 
L 254.351381 62.218722 
L 257.335194 62.716779 
L 260.020626 63.104858 
L 262.407676 63.513835 
L 265.391489 64.007672 
L 266.286633 64.114496 
L 271.060734 64.860069 
L 276.133216 65.596682 
L 277.326741 65.761217 
L 280.012173 66.138202 
L 281.50408 66.39082 
L 284.189511 66.772568 
L 288.36685 67.320786 
L 289.858756 67.575913 
L 290.7539 67.679227 
L 294.036094 68.135599 
L 297.318289 68.569017 
L 300.600483 69.016469 
L 301.197245 69.113524 
L 302.689152 69.269052 
L 304.181058 69.491598 
L 305.076202 69.580115 
L 308.060015 69.987564 
L 313.72926 70.713901 
L 321.487174 71.743008 
L 322.382318 71.831676 
L 326.858037 72.369634 
L 331.333757 72.979102 
L 335.809476 73.493488 
L 337.003002 73.641743 
L 340.881958 74.11294 
L 341.777102 74.231566 
L 348.04311 74.85906 
L 348.938254 74.974802 
L 361.470268 75.934763 
L 365.945988 76.132695 
L 368.631419 76.225722 
L 380.566671 76.398189 
L 391.905161 76.220715 
L 397.872787 76.08218 
L 414.283758 75.868529 
L 422.041672 76.005184 
L 431.291492 76.474408 
L 432.186636 76.503068 
L 432.186636 76.503068 
" clip-path="url(#p0f2db68b24)" style="fill: none; stroke: #ff0000; stroke-width: 1.5; stroke-linecap: square"/>
   </g>
   <g id="patch_3">
    <path d="M 58.106 78.7975 
L 58.106 28.32 
" style="fill: none; stroke: #000000; stroke-width: 0.8; stroke-linejoin: miter; stroke-linecap: square"/>
   </g>
   <g id="patch_4">
    <path d="M 450 78.7975 
L 450 28.32 
" style="fill: none; stroke: #000000; stroke-width: 0.8; stroke-linejoin: miter; stroke-linecap: square"/>
   </g>
   <g id="patch_5">
    <path d="M 58.106 78.7975 
L 450 78.7975 
" style="fill: none; stroke: #000000; stroke-width: 0.8; stroke-linejoin: miter; stroke-linecap: square"/>
   </g>
   <g id="patch_6">
    <path d="M 58.106 28.32 
L 450 28.32 
" style="fill: none; stroke: #000000; stroke-width: 0.8; stroke-linejoin: miter; stroke-linecap: square"/>
   </g>
   <g id="text_12">
    <!-- Error in $x$-position -->
    <g transform="translate(200.413 22.32)scale(0.12 -0.12)">
     <defs>
      <path id="DejaVuSans-45" d="M 628 4666 
L 3578 4666 
L 3578 4134 
L 1259 4134 
L 1259 2753 
L 3481 2753 
L 3481 2222 
L 1259 2222 
L 1259 531 
L 3634 531 
L 3634 0 
L 628 0 
L 628 4666 
z
" transform="scale(0.015625)"/>
      <path id="DejaVuSans-72" d="M 2631 2963 
Q 2534 3019 2420 3045 
Q 2306 3072 2169 3072 
Q 1681 3072 1420 2755 
Q 1159 2438 1159 1844 
L 1159 0 
L 581 0 
L 581 3500 
L 1159 3500 
L 1159 2956 
Q 1341 3275 1631 3429 
Q 1922 3584 2338 3584 
Q 2397 3584 2469 3576 
Q 2541 3569 2628 3553 
L 2631 2963 
z
" transform="scale(0.015625)"/>
      <path id="DejaVuSans-6f" d="M 1959 3097 
Q 1497 3097 1228 2736 
Q 959 2375 959 1747 
Q 959 1119 1226 758 
Q 1494 397 1959 397 
Q 2419 397 2687 759 
Q 2956 1122 2956 1747 
Q 2956 2369 2687 2733 
Q 2419 3097 1959 3097 
z
M 1959 3584 
Q 2709 3584 3137 3096 
Q 3566 2609 3566 1747 
Q 3566 888 3137 398 
Q 2709 -91 1959 -91 
Q 1206 -91 779 398 
Q 353 888 353 1747 
Q 353 2609 779 3096 
Q 1206 3584 1959 3584 
z
" transform="scale(0.015625)"/>
      <path id="DejaVuSans-69" d="M 603 3500 
L 1178 3500 
L 1178 0 
L 603 0 
L 603 3500 
z
M 603 4863 
L 1178 4863 
L 1178 4134 
L 603 4134 
L 603 4863 
z
" transform="scale(0.015625)"/>
      <path id="DejaVuSans-6e" d="M 3513 2113 
L 3513 0 
L 2938 0 
L 2938 2094 
Q 2938 2591 2744 2837 
Q 2550 3084 2163 3084 
Q 1697 3084 1428 2787 
Q 1159 2491 1159 1978 
L 1159 0 
L 581 0 
L 581 3500 
L 1159 3500 
L 1159 2956 
Q 1366 3272 1645 3428 
Q 1925 3584 2291 3584 
Q 2894 3584 3203 3211 
Q 3513 2838 3513 2113 
z
" transform="scale(0.015625)"/>
      <path id="DejaVuSans-2d" d="M 313 2009 
L 1997 2009 
L 1997 1497 
L 313 1497 
L 313 2009 
z
" transform="scale(0.015625)"/>
      <path id="DejaVuSans-70" d="M 1159 525 
L 1159 -1331 
L 581 -1331 
L 581 3500 
L 1159 3500 
L 1159 2969 
Q 1341 3281 1617 3432 
Q 1894 3584 2278 3584 
Q 2916 3584 3314 3078 
Q 3713 2572 3713 1747 
Q 3713 922 3314 415 
Q 2916 -91 2278 -91 
Q 1894 -91 1617 61 
Q 1341 213 1159 525 
z
M 3116 1747 
Q 3116 2381 2855 2742 
Q 2594 3103 2138 3103 
Q 1681 3103 1420 2742 
Q 1159 2381 1159 1747 
Q 1159 1113 1420 752 
Q 1681 391 2138 391 
Q 2594 391 2855 752 
Q 3116 1113 3116 1747 
z
" transform="scale(0.015625)"/>
      <path id="DejaVuSans-74" d="M 1172 4494 
L 1172 3500 
L 2356 3500 
L 2356 3053 
L 1172 3053 
L 1172 1153 
Q 1172 725 1289 603 
Q 1406 481 1766 481 
L 2356 481 
L 2356 0 
L 1766 0 
Q 1100 0 847 248 
Q 594 497 594 1153 
L 594 3053 
L 172 3053 
L 172 3500 
L 594 3500 
L 594 4494 
L 1172 4494 
z
" transform="scale(0.015625)"/>
     </defs>
     <use xlink:href="#DejaVuSans-45" transform="translate(0 0.015625)"/>
     <use xlink:href="#DejaVuSans-72" transform="translate(63.183594 0.015625)"/>
     <use xlink:href="#DejaVuSans-72" transform="translate(104.296875 0.015625)"/>
     <use xlink:href="#DejaVuSans-6f" transform="translate(145.410156 0.015625)"/>
     <use xlink:href="#DejaVuSans-72" transform="translate(206.591797 0.015625)"/>
     <use xlink:href="#DejaVuSans-20" transform="translate(247.705078 0.015625)"/>
     <use xlink:href="#DejaVuSans-69" transform="translate(279.492188 0.015625)"/>
     <use xlink:href="#DejaVuSans-6e" transform="translate(307.275391 0.015625)"/>
     <use xlink:href="#DejaVuSans-20" transform="translate(370.654297 0.015625)"/>
     <use xlink:href="#DejaVuSans-Oblique-78" transform="translate(402.441406 0.015625)"/>
     <use xlink:href="#DejaVuSans-2d" transform="translate(461.621094 0.015625)"/>
     <use xlink:href="#DejaVuSans-70" transform="translate(497.705078 0.015625)"/>
     <use xlink:href="#DejaVuSans-6f" transform="translate(561.181641 0.015625)"/>
     <use xlink:href="#DejaVuSans-73" transform="translate(622.363281 0.015625)"/>
     <use xlink:href="#DejaVuSans-69" transform="translate(674.462891 0.015625)"/>
     <use xlink:href="#DejaVuSans-74" transform="translate(702.246094 0.015625)"/>
     <use xlink:href="#DejaVuSans-69" transform="translate(741.455078 0.015625)"/>
     <use xlink:href="#DejaVuSans-6f" transform="translate(769.238281 0.015625)"/>
     <use xlink:href="#DejaVuSans-6e" transform="translate(830.419922 0.015625)"/>
    </g>
   </g>
  </g>
  <g id="axes_2">
   <g id="patch_7">
    <path d="M 58.106 190.3975 
L 450 190.3975 
L 450 139.92 
L 58.106 139.92 
z
" style="fill: #ffffff"/>
   </g>
   <g id="matplotlib.axis_3">
    <g id="xtick_8">
     <g id="line2d_20">
      <path d="M 75.919364 190.3975 
L 75.919364 139.92 
" clip-path="url(#p7ac4719a74)" style="fill: none; stroke: #b0b0b0; stroke-width: 0.8; stroke-linecap: square"/>
     </g>
     <g id="line2d_21">
      <g>
       <use xlink:href="#m22f7c5e6ca" x="75.919364" y="190.3975" style="stroke: #000000; stroke-width: 0.8"/>
      </g>
     </g>
     <g id="text_13">
      <!-- 0 -->
      <g transform="translate(72.738114 204.995937)scale(0.1 -0.1)">
       <use xlink:href="#DejaVuSans-30"/>
      </g>
     </g>
    </g>
    <g id="xtick_9">
     <g id="line2d_22">
      <path d="M 135.545685 190.3975 
L 135.545685 139.92 
" clip-path="url(#p7ac4719a74)" style="fill: none; stroke: #b0b0b0; stroke-width: 0.8; stroke-linecap: square"/>
     </g>
     <g id="line2d_23">
      <g>
       <use xlink:href="#m22f7c5e6ca" x="135.545685" y="190.3975" style="stroke: #000000; stroke-width: 0.8"/>
      </g>
     </g>
     <g id="text_14">
      <!-- 2 -->
      <g transform="translate(132.364435 204.995937)scale(0.1 -0.1)">
       <use xlink:href="#DejaVuSans-32"/>
      </g>
     </g>
    </g>
    <g id="xtick_10">
     <g id="line2d_24">
      <path d="M 195.172007 190.3975 
L 195.172007 139.92 
" clip-path="url(#p7ac4719a74)" style="fill: none; stroke: #b0b0b0; stroke-width: 0.8; stroke-linecap: square"/>
     </g>
     <g id="line2d_25">
      <g>
       <use xlink:href="#m22f7c5e6ca" x="195.172007" y="190.3975" style="stroke: #000000; stroke-width: 0.8"/>
      </g>
     </g>
     <g id="text_15">
      <!-- 4 -->
      <g transform="translate(191.990757 204.995937)scale(0.1 -0.1)">
       <use xlink:href="#DejaVuSans-34"/>
      </g>
     </g>
    </g>
    <g id="xtick_11">
     <g id="line2d_26">
      <path d="M 254.798329 190.3975 
L 254.798329 139.92 
" clip-path="url(#p7ac4719a74)" style="fill: none; stroke: #b0b0b0; stroke-width: 0.8; stroke-linecap: square"/>
     </g>
     <g id="line2d_27">
      <g>
       <use xlink:href="#m22f7c5e6ca" x="254.798329" y="190.3975" style="stroke: #000000; stroke-width: 0.8"/>
      </g>
     </g>
     <g id="text_16">
      <!-- 6 -->
      <g transform="translate(251.617079 204.995937)scale(0.1 -0.1)">
       <use xlink:href="#DejaVuSans-36"/>
      </g>
     </g>
    </g>
    <g id="xtick_12">
     <g id="line2d_28">
      <path d="M 314.424651 190.3975 
L 314.424651 139.92 
" clip-path="url(#p7ac4719a74)" style="fill: none; stroke: #b0b0b0; stroke-width: 0.8; stroke-linecap: square"/>
     </g>
     <g id="line2d_29">
      <g>
       <use xlink:href="#m22f7c5e6ca" x="314.424651" y="190.3975" style="stroke: #000000; stroke-width: 0.8"/>
      </g>
     </g>
     <g id="text_17">
      <!-- 8 -->
      <g transform="translate(311.243401 204.995937)scale(0.1 -0.1)">
       <use xlink:href="#DejaVuSans-38"/>
      </g>
     </g>
    </g>
    <g id="xtick_13">
     <g id="line2d_30">
      <path d="M 374.050973 190.3975 
L 374.050973 139.92 
" clip-path="url(#p7ac4719a74)" style="fill: none; stroke: #b0b0b0; stroke-width: 0.8; stroke-linecap: square"/>
     </g>
     <g id="line2d_31">
      <g>
       <use xlink:href="#m22f7c5e6ca" x="374.050973" y="190.3975" style="stroke: #000000; stroke-width: 0.8"/>
      </g>
     </g>
     <g id="text_18">
      <!-- 10 -->
      <g transform="translate(367.688473 204.995937)scale(0.1 -0.1)">
       <use xlink:href="#DejaVuSans-31"/>
       <use xlink:href="#DejaVuSans-30" x="63.623047"/>
      </g>
     </g>
    </g>
    <g id="xtick_14">
     <g id="line2d_32">
      <path d="M 433.677294 190.3975 
L 433.677294 139.92 
" clip-path="url(#p7ac4719a74)" style="fill: none; stroke: #b0b0b0; stroke-width: 0.8; stroke-linecap: square"/>
     </g>
     <g id="line2d_33">
      <g>
       <use xlink:href="#m22f7c5e6ca" x="433.677294" y="190.3975" style="stroke: #000000; stroke-width: 0.8"/>
      </g>
     </g>
     <g id="text_19">
      <!-- 12 -->
      <g transform="translate(427.314794 204.995937)scale(0.1 -0.1)">
       <use xlink:href="#DejaVuSans-31"/>
       <use xlink:href="#DejaVuSans-32" x="63.623047"/>
      </g>
     </g>
    </g>
    <g id="text_20">
     <!-- $t$ [s] -->
     <g transform="translate(243.953 218.674062)scale(0.1 -0.1)">
      <use xlink:href="#DejaVuSans-Oblique-74" transform="translate(0 0.015625)"/>
      <use xlink:href="#DejaVuSans-20" transform="translate(39.208984 0.015625)"/>
      <use xlink:href="#DejaVuSans-5b" transform="translate(70.996094 0.015625)"/>
      <use xlink:href="#DejaVuSans-73" transform="translate(110.009766 0.015625)"/>
      <use xlink:href="#DejaVuSans-5d" transform="translate(162.109375 0.015625)"/>
     </g>
    </g>
   </g>
   <g id="matplotlib.axis_4">
    <g id="ytick_3">
     <g id="line2d_34">
      <path d="M 58.106 180.807948 
L 450 180.807948 
" clip-path="url(#p7ac4719a74)" style="fill: none; stroke: #b0b0b0; stroke-width: 0.8; stroke-linecap: square"/>
     </g>
     <g id="line2d_35">
      <g>
       <use xlink:href="#m5b9208ea24" x="58.106" y="180.807948" style="stroke: #000000; stroke-width: 0.8"/>
      </g>
     </g>
     <g id="text_21">
      <!-- −0.1 -->
      <g transform="translate(26.823188 184.607167)scale(0.1 -0.1)">
       <defs>
        <path id="DejaVuSans-2212" d="M 678 2272 
L 4684 2272 
L 4684 1741 
L 678 1741 
L 678 2272 
z
" transform="scale(0.015625)"/>
        <path id="DejaVuSans-2e" d="M 684 794 
L 1344 794 
L 1344 0 
L 684 0 
L 684 794 
z
" transform="scale(0.015625)"/>
       </defs>
       <use xlink:href="#DejaVuSans-2212"/>
       <use xlink:href="#DejaVuSans-30" x="83.789062"/>
       <use xlink:href="#DejaVuSans-2e" x="147.412109"/>
       <use xlink:href="#DejaVuSans-31" x="179.199219"/>
      </g>
     </g>
    </g>
    <g id="ytick_4">
     <g id="line2d_36">
      <path d="M 58.106 165.849161 
L 450 165.849161 
" clip-path="url(#p7ac4719a74)" style="fill: none; stroke: #b0b0b0; stroke-width: 0.8; stroke-linecap: square"/>
     </g>
     <g id="line2d_37">
      <g>
       <use xlink:href="#m5b9208ea24" x="58.106" y="165.849161" style="stroke: #000000; stroke-width: 0.8"/>
      </g>
     </g>
     <g id="text_22">
      <!-- 0.0 -->
      <g transform="translate(35.202875 169.648379)scale(0.1 -0.1)">
       <use xlink:href="#DejaVuSans-30"/>
       <use xlink:href="#DejaVuSans-2e" x="63.623047"/>
       <use xlink:href="#DejaVuSans-30" x="95.410156"/>
      </g>
     </g>
    </g>
    <g id="ytick_5">
     <g id="line2d_38">
      <path d="M 58.106 150.890373 
L 450 150.890373 
" clip-path="url(#p7ac4719a74)" style="fill: none; stroke: #b0b0b0; stroke-width: 0.8; stroke-linecap: square"/>
     </g>
     <g id="line2d_39">
      <g>
       <use xlink:href="#m5b9208ea24" x="58.106" y="150.890373" style="stroke: #000000; stroke-width: 0.8"/>
      </g>
     </g>
     <g id="text_23">
      <!-- 0.1 -->
      <g transform="translate(35.202875 154.689592)scale(0.1 -0.1)">
       <use xlink:href="#DejaVuSans-30"/>
       <use xlink:href="#DejaVuSans-2e" x="63.623047"/>
       <use xlink:href="#DejaVuSans-31" x="95.410156"/>
      </g>
     </g>
    </g>
    <g id="text_24">
     <!-- $e_z$ [m] -->
     <g transform="translate(20.7435 180.60875)rotate(-90)scale(0.1 -0.1)">
      <defs>
       <path id="DejaVuSans-Oblique-7a" d="M 744 3500 
L 3475 3500 
L 3372 2975 
L 738 459 
L 2913 459 
L 2822 0 
L -19 0 
L 84 525 
L 2719 3041 
L 653 3041 
L 744 3500 
z
" transform="scale(0.015625)"/>
      </defs>
      <use xlink:href="#DejaVuSans-Oblique-65" transform="translate(0 0.015625)"/>
      <use xlink:href="#DejaVuSans-Oblique-7a" transform="translate(61.523438 -16.390625)scale(0.7)"/>
      <use xlink:href="#DejaVuSans-20" transform="translate(101.000977 0.015625)"/>
      <use xlink:href="#DejaVuSans-5b" transform="translate(132.788086 0.015625)"/>
      <use xlink:href="#DejaVuSans-6d" transform="translate(171.801758 0.015625)"/>
      <use xlink:href="#DejaVuSans-5d" transform="translate(269.213867 0.015625)"/>
     </g>
    </g>
   </g>
   <g id="line2d_40">
    <path d="M 75.919364 167.291827 
L 76.217745 167.060433 
L 76.516126 167.060433 
L 77.112889 166.614389 
L 77.709651 166.268064 
L 78.008033 165.913127 
L 78.306414 165.913127 
L 78.604795 165.410319 
L 79.201558 165.191039 
L 80.395083 164.789194 
L 81.290227 164.82988 
L 81.88699 164.909172 
L 82.782134 164.890793 
L 83.080515 164.83846 
L 83.378896 164.616154 
L 83.677277 164.616154 
L 84.27404 164.172751 
L 84.870803 163.776993 
L 85.169184 163.203745 
L 85.467565 163.203745 
L 85.765947 162.713485 
L 86.66109 162.011686 
L 86.959472 161.50667 
L 87.257853 161.50667 
L 87.556234 161.15803 
L 88.451378 160.674549 
L 88.74976 160.216173 
L 89.048141 160.216173 
L 89.644903 159.505938 
L 90.241666 158.914528 
L 91.13681 157.153133 
L 91.435191 156.977044 
L 92.031954 156.302377 
L 92.330335 155.691133 
L 93.52386 154.684815 
L 94.717386 154.244937 
L 95.314148 154.247294 
L 96.507673 154.490147 
L 97.701199 154.878399 
L 99.193105 155.138509 
L 100.088249 155.051714 
L 101.281774 154.557884 
L 101.878537 154.14419 
L 102.176918 153.84426 
L 102.475299 153.735955 
L 102.773681 153.508583 
L 103.072062 153.017554 
L 103.668825 152.492091 
L 104.265587 151.540945 
L 104.563968 151.540945 
L 104.86235 151.021848 
L 106.652638 149.688521 
L 109.338069 148.766349 
L 109.636451 148.519962 
L 109.934832 148.519962 
L 110.531594 148.095317 
L 111.128357 147.641065 
L 111.72512 147.416736 
L 112.321882 146.988138 
L 112.918645 146.674254 
L 113.217026 146.446761 
L 113.515407 146.446761 
L 114.11217 146.126331 
L 114.708933 145.832846 
L 115.007314 145.552471 
L 115.305695 145.552471 
L 115.902458 145.031967 
L 116.49922 144.612466 
L 117.692746 143.292597 
L 119.184652 142.287408 
L 120.079796 142.222759 
L 120.676559 142.457425 
L 121.870084 143.039025 
L 123.660372 144.826324 
L 124.853897 146.491242 
L 126.047422 147.852349 
L 126.345803 148.41807 
L 128.732854 150.463107 
L 129.329616 150.80305 
L 129.926379 151.144735 
L 131.119904 151.663347 
L 131.716667 152.110574 
L 132.910192 152.899748 
L 134.70048 154.982621 
L 134.998861 154.982621 
L 135.297242 155.619201 
L 135.894005 155.884313 
L 137.684293 156.699767 
L 138.579437 156.920033 
L 138.877818 157.198247 
L 139.474581 157.375954 
L 139.772962 157.510242 
L 140.369725 157.984185 
L 141.264868 158.814765 
L 141.56325 158.814765 
L 141.861631 159.183825 
L 142.160012 159.183825 
L 142.458394 159.685169 
L 143.055156 159.903662 
L 144.248681 160.554114 
L 144.845444 160.91086 
L 145.143825 160.91086 
L 146.635732 162.314942 
L 146.934113 162.314942 
L 147.232494 162.858139 
L 147.829257 163.464536 
L 149.321164 165.688387 
L 150.216307 166.910626 
L 150.514689 167.58088 
L 151.708214 168.983171 
L 152.006595 169.562889 
L 153.498502 171.081168 
L 153.796883 171.626066 
L 155.28879 173.015347 
L 156.482315 174.594466 
L 157.079077 175.306273 
L 157.377459 175.864752 
L 158.869365 177.308165 
L 159.167746 177.79313 
L 160.659653 178.985607 
L 160.958034 179.340645 
L 162.151559 179.87466 
L 163.643466 180.253075 
L 165.732135 180.479946 
L 169.014329 181.261066 
L 171.699761 181.383266 
L 174.385193 181.964876 
L 174.981955 181.871383 
L 175.280337 181.657056 
L 175.578718 181.657056 
L 176.175481 181.385589 
L 177.070624 181.261901 
L 177.667387 181.360319 
L 178.562531 181.698111 
L 179.159294 182.142028 
L 179.756056 182.534731 
L 181.247963 182.791728 
L 182.441488 182.446349 
L 183.03825 182.180261 
L 183.635013 181.949844 
L 184.828538 181.526686 
L 185.723682 181.596427 
L 186.022063 181.782915 
L 186.320445 181.782915 
L 186.618826 182.196081 
L 187.215589 182.434765 
L 187.51397 182.596972 
L 187.812351 182.905688 
L 188.110733 182.905688 
L 188.409114 183.278314 
L 191.392927 183.686031 
L 192.884833 183.767638 
L 194.078359 184.294292 
L 194.37674 184.618318 
L 194.675121 184.618318 
L 194.973503 184.978994 
L 195.868646 185.610858 
L 196.167028 185.924984 
L 196.465409 185.924984 
L 196.76379 186.178407 
L 197.957316 186.490086 
L 198.852459 186.504936 
L 201.537891 186.361551 
L 204.521704 187.0655 
L 205.715229 187.078961 
L 206.908755 186.876614 
L 208.10228 186.518821 
L 208.997424 186.423828 
L 210.190949 186.610532 
L 210.48933 186.795705 
L 210.787711 186.795705 
L 211.384474 187.013644 
L 212.876381 187.212699 
L 214.069906 187.045158 
L 215.561812 186.591976 
L 216.755337 186.474976 
L 217.948863 186.571212 
L 219.73915 187.112938 
L 221.231057 187.334402 
L 222.126201 187.251043 
L 223.319726 186.981876 
L 223.916489 186.81396 
L 225.110014 186.704945 
L 226.303539 186.933396 
L 228.392208 187.764739 
L 229.287352 187.957002 
L 229.884115 187.921362 
L 231.376021 187.463302 
L 233.166309 187.167242 
L 234.061453 187.323535 
L 236.448503 188.060574 
L 237.642028 188.102384 
L 238.238791 187.950379 
L 239.432316 187.656446 
L 239.730698 187.45086 
L 241.520985 187.370303 
L 242.416129 187.481045 
L 243.311273 187.710203 
L 245.399942 187.777895 
L 246.593467 187.607224 
L 247.19023 187.475745 
L 251.069187 187.110252 
L 251.964331 186.887273 
L 252.262712 186.619076 
L 253.157856 186.397976 
L 253.456237 186.258149 
L 253.754619 186.258149 
L 254.351381 186.132855 
L 255.544907 186.172906 
L 256.141669 186.27531 
L 257.633576 186.295193 
L 258.52872 186.165024 
L 258.827101 186.003789 
L 259.125482 186.003789 
L 259.423863 185.715845 
L 260.319007 185.487492 
L 260.91577 185.260614 
L 261.512533 184.963564 
L 263.30282 184.484209 
L 267.181777 184.163987 
L 267.77854 183.904434 
L 268.673684 183.509837 
L 268.972065 183.382662 
L 269.270446 183.382662 
L 269.867209 183.125054 
L 270.463972 182.882168 
L 271.060734 182.604799 
L 272.552641 182.330644 
L 274.044547 182.362683 
L 275.536454 182.381484 
L 276.133216 182.29903 
L 279.117029 181.206876 
L 280.012173 180.930928 
L 280.608936 180.710858 
L 281.802461 180.531541 
L 283.294367 180.669757 
L 284.786274 180.877583 
L 285.383037 180.901991 
L 286.874943 180.49474 
L 287.770087 180.163805 
L 290.7539 179.450964 
L 291.947425 179.532768 
L 294.931238 179.743596 
L 295.826382 179.573708 
L 297.318289 179.203993 
L 298.213432 179.021565 
L 300.00372 178.749723 
L 300.898864 178.791321 
L 301.495627 178.921095 
L 303.882677 179.199284 
L 305.971346 178.934976 
L 307.164871 178.802259 
L 308.955159 178.756891 
L 311.640591 178.868059 
L 314.326023 178.667111 
L 315.817929 178.766276 
L 319.995267 179.241992 
L 323.874224 179.242771 
L 325.366131 179.432492 
L 326.261275 179.626256 
L 331.035376 180.29356 
L 333.422426 180.307314 
L 334.019189 180.423433 
L 334.914332 180.687957 
L 337.898145 181.380545 
L 339.390052 181.47927 
L 340.583577 181.562118 
L 341.478721 181.711171 
L 342.373865 181.970798 
L 342.970628 182.172023 
L 343.56739 182.419734 
L 345.059297 182.692845 
L 346.252822 182.601358 
L 348.341491 182.031249 
L 348.938254 182.088318 
L 349.833397 182.317429 
L 350.728541 183.035295 
L 351.325304 183.304589 
L 351.623685 183.486687 
L 351.922067 183.835404 
L 353.115592 184.444881 
L 354.309117 184.411337 
L 356.397786 183.600578 
L 356.696167 183.445963 
L 357.29293 183.338038 
L 359.381599 183.030832 
L 360.575124 182.582313 
L 361.470268 181.614719 
L 362.067031 181.286848 
L 362.365412 181.074042 
L 362.663793 180.587795 
L 362.962175 180.587795 
L 363.260556 180.265171 
L 364.454081 179.834311 
L 366.54275 179.816824 
L 367.736275 179.383059 
L 368.034657 178.963459 
L 368.333038 178.963459 
L 368.631419 178.563569 
L 369.526563 177.957961 
L 369.824945 177.597564 
L 370.123326 177.597564 
L 370.421707 177.155661 
L 371.316851 176.895884 
L 371.913614 176.70881 
L 374.002283 176.152719 
L 376.389333 174.587358 
L 376.986096 174.457036 
L 377.88124 174.585825 
L 378.478002 174.84208 
L 379.074765 175.141328 
L 379.969909 175.285031 
L 380.566671 175.173712 
L 381.461815 174.81607 
L 381.760197 174.439318 
L 382.058578 174.439318 
L 382.356959 173.729764 
L 382.953722 173.362897 
L 383.252103 173.132134 
L 383.550484 172.72522 
L 384.74401 172.098567 
L 385.639153 171.945846 
L 386.235916 172.058835 
L 386.534297 172.211839 
L 386.832679 172.211839 
L 387.429441 172.398667 
L 388.026204 172.423685 
L 389.219729 171.978841 
L 392.203542 169.384299 
L 393.098686 169.187686 
L 393.99383 169.23087 
L 395.187355 169.318491 
L 396.38088 168.969494 
L 396.977643 168.560235 
L 397.276024 168.157335 
L 397.574406 168.157335 
L 397.872787 167.754635 
L 399.663075 166.740835 
L 400.558219 166.708751 
L 401.154981 166.833084 
L 401.751744 167.061662 
L 402.945269 167.224235 
L 404.138794 166.820105 
L 404.437175 166.471074 
L 404.735557 166.471074 
L 405.033938 165.878466 
L 405.630701 165.615125 
L 406.525845 165.193981 
L 407.122607 165.182973 
L 407.71937 165.281057 
L 408.316132 165.6325 
L 409.808039 166.223363 
L 410.404801 166.192576 
L 411.299945 165.927131 
L 411.598327 165.616763 
L 411.896708 165.616763 
L 412.195089 165.061135 
L 412.791852 164.796621 
L 414.283758 164.074408 
L 415.477284 164.096061 
L 416.074046 164.27207 
L 417.267571 164.476211 
L 418.162715 164.343289 
L 418.759478 164.130529 
L 420.848147 162.625334 
L 421.44491 162.54307 
L 422.041672 162.590202 
L 422.340053 162.743968 
L 422.638435 162.743968 
L 422.936816 163.04135 
L 424.727104 163.223335 
L 425.323866 163.103048 
L 425.622248 162.990947 
L 425.920629 162.694996 
L 426.21901 162.694996 
L 426.517392 162.153277 
L 427.114154 161.89049 
L 427.412536 161.726862 
L 427.710917 161.436145 
L 428.606061 161.108228 
L 429.202823 161.103387 
L 430.097967 161.529707 
L 430.396349 161.801387 
L 430.993111 162.119201 
L 431.291492 162.572443 
L 432.186636 163.307443 
L 432.186636 163.307443 
" clip-path="url(#p7ac4719a74)" style="fill: none; stroke: #0000ff; stroke-width: 1.5; stroke-linecap: square"/>
   </g>
   <g id="patch_8">
    <path d="M 58.106 190.3975 
L 58.106 139.92 
" style="fill: none; stroke: #000000; stroke-width: 0.8; stroke-linejoin: miter; stroke-linecap: square"/>
   </g>
   <g id="patch_9">
    <path d="M 450 190.3975 
L 450 139.92 
" style="fill: none; stroke: #000000; stroke-width: 0.8; stroke-linejoin: miter; stroke-linecap: square"/>
   </g>
   <g id="patch_10">
    <path d="M 58.106 190.3975 
L 450 190.3975 
" style="fill: none; stroke: #000000; stroke-width: 0.8; stroke-linejoin: miter; stroke-linecap: square"/>
   </g>
   <g id="patch_11">
    <path d="M 58.106 139.92 
L 450 139.92 
" style="fill: none; stroke: #000000; stroke-width: 0.8; stroke-linejoin: miter; stroke-linecap: square"/>
   </g>
   <g id="text_25">
    <!-- Error in $z$-position -->
    <g transform="translate(200.773 133.92)scale(0.12 -0.12)">
     <use xlink:href="#DejaVuSans-45" transform="translate(0 0.015625)"/>
     <use xlink:href="#DejaVuSans-72" transform="translate(63.183594 0.015625)"/>
     <use xlink:href="#DejaVuSans-72" transform="translate(104.296875 0.015625)"/>
     <use xlink:href="#DejaVuSans-6f" transform="translate(145.410156 0.015625)"/>
     <use xlink:href="#DejaVuSans-72" transform="translate(206.591797 0.015625)"/>
     <use xlink:href="#DejaVuSans-20" transform="translate(247.705078 0.015625)"/>
     <use xlink:href="#DejaVuSans-69" transform="translate(279.492188 0.015625)"/>
     <use xlink:href="#DejaVuSans-6e" transform="translate(307.275391 0.015625)"/>
     <use xlink:href="#DejaVuSans-20" transform="translate(370.654297 0.015625)"/>
     <use xlink:href="#DejaVuSans-Oblique-7a" transform="translate(402.441406 0.015625)"/>
     <use xlink:href="#DejaVuSans-2d" transform="translate(454.931641 0.015625)"/>
     <use xlink:href="#DejaVuSans-70" transform="translate(491.015625 0.015625)"/>
     <use xlink:href="#DejaVuSans-6f" transform="translate(554.492188 0.015625)"/>
     <use xlink:href="#DejaVuSans-73" transform="translate(615.673828 0.015625)"/>
     <use xlink:href="#DejaVuSans-69" transform="translate(667.773438 0.015625)"/>
     <use xlink:href="#DejaVuSans-74" transform="translate(695.556641 0.015625)"/>
     <use xlink:href="#DejaVuSans-69" transform="translate(734.765625 0.015625)"/>
     <use xlink:href="#DejaVuSans-6f" transform="translate(762.548828 0.015625)"/>
     <use xlink:href="#DejaVuSans-6e" transform="translate(823.730469 0.015625)"/>
    </g>
   </g>
  </g>
  <g id="axes_3">
   <g id="patch_12">
    <path d="M 58.106 301.9975 
L 450 301.9975 
L 450 251.52 
L 58.106 251.52 
z
" style="fill: #ffffff"/>
   </g>
   <g id="matplotlib.axis_5">
    <g id="xtick_15">
     <g id="line2d_41">
      <path d="M 75.919364 301.9975 
L 75.919364 251.52 
" clip-path="url(#p94e3cda7c8)" style="fill: none; stroke: #b0b0b0; stroke-width: 0.8; stroke-linecap: square"/>
     </g>
     <g id="line2d_42">
      <g>
       <use xlink:href="#m22f7c5e6ca" x="75.919364" y="301.9975" style="stroke: #000000; stroke-width: 0.8"/>
      </g>
     </g>
     <g id="text_26">
      <!-- 0 -->
      <g transform="translate(72.738114 316.595937)scale(0.1 -0.1)">
       <use xlink:href="#DejaVuSans-30"/>
      </g>
     </g>
    </g>
    <g id="xtick_16">
     <g id="line2d_43">
      <path d="M 135.545685 301.9975 
L 135.545685 251.52 
" clip-path="url(#p94e3cda7c8)" style="fill: none; stroke: #b0b0b0; stroke-width: 0.8; stroke-linecap: square"/>
     </g>
     <g id="line2d_44">
      <g>
       <use xlink:href="#m22f7c5e6ca" x="135.545685" y="301.9975" style="stroke: #000000; stroke-width: 0.8"/>
      </g>
     </g>
     <g id="text_27">
      <!-- 2 -->
      <g transform="translate(132.364435 316.595937)scale(0.1 -0.1)">
       <use xlink:href="#DejaVuSans-32"/>
      </g>
     </g>
    </g>
    <g id="xtick_17">
     <g id="line2d_45">
      <path d="M 195.172007 301.9975 
L 195.172007 251.52 
" clip-path="url(#p94e3cda7c8)" style="fill: none; stroke: #b0b0b0; stroke-width: 0.8; stroke-linecap: square"/>
     </g>
     <g id="line2d_46">
      <g>
       <use xlink:href="#m22f7c5e6ca" x="195.172007" y="301.9975" style="stroke: #000000; stroke-width: 0.8"/>
      </g>
     </g>
     <g id="text_28">
      <!-- 4 -->
      <g transform="translate(191.990757 316.595937)scale(0.1 -0.1)">
       <use xlink:href="#DejaVuSans-34"/>
      </g>
     </g>
    </g>
    <g id="xtick_18">
     <g id="line2d_47">
      <path d="M 254.798329 301.9975 
L 254.798329 251.52 
" clip-path="url(#p94e3cda7c8)" style="fill: none; stroke: #b0b0b0; stroke-width: 0.8; stroke-linecap: square"/>
     </g>
     <g id="line2d_48">
      <g>
       <use xlink:href="#m22f7c5e6ca" x="254.798329" y="301.9975" style="stroke: #000000; stroke-width: 0.8"/>
      </g>
     </g>
     <g id="text_29">
      <!-- 6 -->
      <g transform="translate(251.617079 316.595937)scale(0.1 -0.1)">
       <use xlink:href="#DejaVuSans-36"/>
      </g>
     </g>
    </g>
    <g id="xtick_19">
     <g id="line2d_49">
      <path d="M 314.424651 301.9975 
L 314.424651 251.52 
" clip-path="url(#p94e3cda7c8)" style="fill: none; stroke: #b0b0b0; stroke-width: 0.8; stroke-linecap: square"/>
     </g>
     <g id="line2d_50">
      <g>
       <use xlink:href="#m22f7c5e6ca" x="314.424651" y="301.9975" style="stroke: #000000; stroke-width: 0.8"/>
      </g>
     </g>
     <g id="text_30">
      <!-- 8 -->
      <g transform="translate(311.243401 316.595937)scale(0.1 -0.1)">
       <use xlink:href="#DejaVuSans-38"/>
      </g>
     </g>
    </g>
    <g id="xtick_20">
     <g id="line2d_51">
      <path d="M 374.050973 301.9975 
L 374.050973 251.52 
" clip-path="url(#p94e3cda7c8)" style="fill: none; stroke: #b0b0b0; stroke-width: 0.8; stroke-linecap: square"/>
     </g>
     <g id="line2d_52">
      <g>
       <use xlink:href="#m22f7c5e6ca" x="374.050973" y="301.9975" style="stroke: #000000; stroke-width: 0.8"/>
      </g>
     </g>
     <g id="text_31">
      <!-- 10 -->
      <g transform="translate(367.688473 316.595937)scale(0.1 -0.1)">
       <use xlink:href="#DejaVuSans-31"/>
       <use xlink:href="#DejaVuSans-30" x="63.623047"/>
      </g>
     </g>
    </g>
    <g id="xtick_21">
     <g id="line2d_53">
      <path d="M 433.677294 301.9975 
L 433.677294 251.52 
" clip-path="url(#p94e3cda7c8)" style="fill: none; stroke: #b0b0b0; stroke-width: 0.8; stroke-linecap: square"/>
     </g>
     <g id="line2d_54">
      <g>
       <use xlink:href="#m22f7c5e6ca" x="433.677294" y="301.9975" style="stroke: #000000; stroke-width: 0.8"/>
      </g>
     </g>
     <g id="text_32">
      <!-- 12 -->
      <g transform="translate(427.314794 316.595937)scale(0.1 -0.1)">
       <use xlink:href="#DejaVuSans-31"/>
       <use xlink:href="#DejaVuSans-32" x="63.623047"/>
      </g>
     </g>
    </g>
    <g id="text_33">
     <!-- $t$ [s] -->
     <g transform="translate(243.953 330.274063)scale(0.1 -0.1)">
      <use xlink:href="#DejaVuSans-Oblique-74" transform="translate(0 0.015625)"/>
      <use xlink:href="#DejaVuSans-20" transform="translate(39.208984 0.015625)"/>
      <use xlink:href="#DejaVuSans-5b" transform="translate(70.996094 0.015625)"/>
      <use xlink:href="#DejaVuSans-73" transform="translate(110.009766 0.015625)"/>
      <use xlink:href="#DejaVuSans-5d" transform="translate(162.109375 0.015625)"/>
     </g>
    </g>
   </g>
   <g id="matplotlib.axis_6">
    <g id="ytick_6">
     <g id="line2d_55">
      <path d="M 58.106 291.554395 
L 450 291.554395 
" clip-path="url(#p94e3cda7c8)" style="fill: none; stroke: #b0b0b0; stroke-width: 0.8; stroke-linecap: square"/>
     </g>
     <g id="line2d_56">
      <g>
       <use xlink:href="#m5b9208ea24" x="58.106" y="291.554395" style="stroke: #000000; stroke-width: 0.8"/>
      </g>
     </g>
     <g id="text_34">
      <!-- −0.1 -->
      <g transform="translate(26.823188 295.353614)scale(0.1 -0.1)">
       <use xlink:href="#DejaVuSans-2212"/>
       <use xlink:href="#DejaVuSans-30" x="83.789062"/>
       <use xlink:href="#DejaVuSans-2e" x="147.412109"/>
       <use xlink:href="#DejaVuSans-31" x="179.199219"/>
      </g>
     </g>
    </g>
    <g id="ytick_7">
     <g id="line2d_57">
      <path d="M 58.106 276.829192 
L 450 276.829192 
" clip-path="url(#p94e3cda7c8)" style="fill: none; stroke: #b0b0b0; stroke-width: 0.8; stroke-linecap: square"/>
     </g>
     <g id="line2d_58">
      <g>
       <use xlink:href="#m5b9208ea24" x="58.106" y="276.829192" style="stroke: #000000; stroke-width: 0.8"/>
      </g>
     </g>
     <g id="text_35">
      <!-- 0.0 -->
      <g transform="translate(35.202875 280.628411)scale(0.1 -0.1)">
       <use xlink:href="#DejaVuSans-30"/>
       <use xlink:href="#DejaVuSans-2e" x="63.623047"/>
       <use xlink:href="#DejaVuSans-30" x="95.410156"/>
      </g>
     </g>
    </g>
    <g id="ytick_8">
     <g id="line2d_59">
      <path d="M 58.106 262.103989 
L 450 262.103989 
" clip-path="url(#p94e3cda7c8)" style="fill: none; stroke: #b0b0b0; stroke-width: 0.8; stroke-linecap: square"/>
     </g>
     <g id="line2d_60">
      <g>
       <use xlink:href="#m5b9208ea24" x="58.106" y="262.103989" style="stroke: #000000; stroke-width: 0.8"/>
      </g>
     </g>
     <g id="text_36">
      <!-- 0.1 -->
      <g transform="translate(35.202875 265.903208)scale(0.1 -0.1)">
       <use xlink:href="#DejaVuSans-30"/>
       <use xlink:href="#DejaVuSans-2e" x="63.623047"/>
       <use xlink:href="#DejaVuSans-31" x="95.410156"/>
      </g>
     </g>
    </g>
    <g id="text_37">
     <!-- $e_\theta$ [rad] -->
     <g transform="translate(20.7435 295.90875)rotate(-90)scale(0.1 -0.1)">
      <defs>
       <path id="DejaVuSans-Oblique-3b8" d="M 2913 2219 
L 925 2219 
Q 791 1284 928 888 
Q 1100 400 1566 400 
Q 2034 400 2391 891 
Q 2703 1322 2913 2219 
z
M 3009 2750 
Q 3094 3638 2984 3950 
Q 2813 4444 2353 4444 
Q 1875 4444 1525 3956 
Q 1250 3563 1034 2750 
L 3009 2750 
z
M 2444 4913 
Q 3194 4913 3494 4250 
Q 3794 3591 3566 2422 
Q 3341 1256 2781 594 
Q 2225 -72 1475 -72 
Q 722 -72 425 594 
Q 128 1256 353 2422 
Q 581 3591 1134 4250 
Q 1691 4913 2444 4913 
z
" transform="scale(0.015625)"/>
       <path id="DejaVuSans-61" d="M 2194 1759 
Q 1497 1759 1228 1600 
Q 959 1441 959 1056 
Q 959 750 1161 570 
Q 1363 391 1709 391 
Q 2188 391 2477 730 
Q 2766 1069 2766 1631 
L 2766 1759 
L 2194 1759 
z
M 3341 1997 
L 3341 0 
L 2766 0 
L 2766 531 
Q 2569 213 2275 61 
Q 1981 -91 1556 -91 
Q 1019 -91 701 211 
Q 384 513 384 1019 
Q 384 1609 779 1909 
Q 1175 2209 1959 2209 
L 2766 2209 
L 2766 2266 
Q 2766 2663 2505 2880 
Q 2244 3097 1772 3097 
Q 1472 3097 1187 3025 
Q 903 2953 641 2809 
L 641 3341 
Q 956 3463 1253 3523 
Q 1550 3584 1831 3584 
Q 2591 3584 2966 3190 
Q 3341 2797 3341 1997 
z
" transform="scale(0.015625)"/>
       <path id="DejaVuSans-64" d="M 2906 2969 
L 2906 4863 
L 3481 4863 
L 3481 0 
L 2906 0 
L 2906 525 
Q 2725 213 2448 61 
Q 2172 -91 1784 -91 
Q 1150 -91 751 415 
Q 353 922 353 1747 
Q 353 2572 751 3078 
Q 1150 3584 1784 3584 
Q 2172 3584 2448 3432 
Q 2725 3281 2906 2969 
z
M 947 1747 
Q 947 1113 1208 752 
Q 1469 391 1925 391 
Q 2381 391 2643 752 
Q 2906 1113 2906 1747 
Q 2906 2381 2643 2742 
Q 2381 3103 1925 3103 
Q 1469 3103 1208 2742 
Q 947 2381 947 1747 
z
" transform="scale(0.015625)"/>
      </defs>
      <use xlink:href="#DejaVuSans-Oblique-65" transform="translate(0 0.015625)"/>
      <use xlink:href="#DejaVuSans-Oblique-3b8" transform="translate(61.523438 -16.390625)scale(0.7)"/>
      <use xlink:href="#DejaVuSans-20" transform="translate(107.084961 0.015625)"/>
      <use xlink:href="#DejaVuSans-5b" transform="translate(138.87207 0.015625)"/>
      <use xlink:href="#DejaVuSans-72" transform="translate(177.885742 0.015625)"/>
      <use xlink:href="#DejaVuSans-61" transform="translate(218.999023 0.015625)"/>
      <use xlink:href="#DejaVuSans-64" transform="translate(280.27832 0.015625)"/>
      <use xlink:href="#DejaVuSans-5d" transform="translate(343.754883 0.015625)"/>
     </g>
    </g>
   </g>
   <g id="line2d_61">
    <path d="M 75.919364 276.826111 
L 76.217745 276.631016 
L 76.516126 276.631016 
L 77.41127 275.564219 
L 77.709651 274.907872 
L 78.008033 272.914671 
L 78.306414 272.914671 
L 78.604795 268.889721 
L 78.903177 268.200081 
L 79.499939 265.603655 
L 79.798321 263.024335 
L 80.096702 263.024335 
L 80.395083 261.712275 
L 80.693464 261.355256 
L 80.991846 261.208803 
L 81.290227 261.292364 
L 81.588608 262.525665 
L 81.88699 262.525665 
L 82.185371 264.326575 
L 83.080515 267.626562 
L 83.378896 270.391882 
L 83.677277 270.391882 
L 83.975659 272.533223 
L 84.870803 275.882147 
L 85.169184 279.134411 
L 85.467565 279.134411 
L 85.765947 281.940311 
L 86.959472 287.753231 
L 87.257853 287.753231 
L 87.556234 288.628398 
L 87.854616 288.804099 
L 88.451378 288.756309 
L 88.74976 288.39188 
L 89.048141 288.39188 
L 89.644903 287.791866 
L 90.241666 287.185667 
L 90.838429 285.256795 
L 91.13681 283.949699 
L 91.435191 283.435334 
L 92.031954 281.026864 
L 92.330335 278.173392 
L 92.628716 276.657653 
L 93.225479 272.196036 
L 93.52386 271.496569 
L 93.822242 270.165394 
L 94.120623 267.814365 
L 95.314148 264.012363 
L 95.910911 263.507205 
L 96.209292 263.399115 
L 96.507673 263.422797 
L 97.402817 264.173052 
L 99.193105 270.238902 
L 99.491486 272.85093 
L 99.789868 274.297522 
L 100.38663 279.108642 
L 100.685012 279.948415 
L 100.983393 281.636996 
L 101.281774 284.968341 
L 101.580155 286.560191 
L 102.176918 290.762182 
L 102.475299 291.352658 
L 103.072062 293.782678 
L 103.370443 294.070239 
L 103.668825 294.06071 
L 103.967206 293.498782 
L 104.265587 291.886597 
L 104.563968 291.886597 
L 104.86235 289.549963 
L 105.757494 285.351817 
L 106.951019 277.294118 
L 107.846163 272.8459 
L 108.144544 271.087393 
L 108.442925 270.563809 
L 108.741307 270.324527 
L 109.039688 270.367784 
L 109.338069 270.941236 
L 109.636451 272.51485 
L 109.934832 272.51485 
L 110.233213 274.722044 
L 110.531594 275.95742 
L 111.128357 279.652527 
L 111.426738 280.214342 
L 111.72512 281.255413 
L 112.023501 282.926492 
L 112.620264 283.81778 
L 112.918645 283.869876 
L 113.217026 283.147173 
L 113.515407 283.147173 
L 114.11217 280.527015 
L 114.410551 279.335154 
L 114.708933 277.335371 
L 115.007314 274.460223 
L 115.305695 274.460223 
L 115.604077 271.503866 
L 116.797602 265.345928 
L 117.095983 263.064614 
L 118.58789 257.879168 
L 118.886271 256.307845 
L 119.781415 254.522458 
L 120.378177 253.814432 
L 120.676559 253.900555 
L 120.97494 254.191534 
L 121.571703 255.285434 
L 121.870084 256.056468 
L 122.168465 257.413384 
L 122.466847 259.443667 
L 123.660372 263.665265 
L 124.555516 268.322302 
L 126.047422 273.33713 
L 126.345803 274.719889 
L 127.240947 276.385501 
L 127.83771 277.466613 
L 128.136091 278.027154 
L 128.732854 278.292295 
L 129.329616 278.23489 
L 129.926379 277.698485 
L 130.821523 277.104144 
L 131.119904 276.991498 
L 131.716667 277.398599 
L 132.611811 278.450439 
L 132.910192 278.862561 
L 133.805336 280.630454 
L 134.402099 281.289338 
L 134.70048 281.851462 
L 134.998861 281.851462 
L 135.297242 282.421958 
L 137.08753 282.743847 
L 137.982674 282.562481 
L 138.281055 282.356312 
L 138.579437 282.356312 
L 138.877818 281.962127 
L 139.474581 281.675446 
L 139.772962 281.440777 
L 140.668106 279.615588 
L 141.264868 277.41021 
L 141.56325 277.41021 
L 141.861631 275.493031 
L 142.160012 275.493031 
L 142.458394 272.152358 
L 142.756775 271.573232 
L 143.353538 269.295734 
L 143.651919 267.149227 
L 144.248681 264.911316 
L 144.845444 263.018766 
L 145.143825 263.018766 
L 145.442207 262.19366 
L 146.038969 261.390374 
L 146.635732 260.389136 
L 146.934113 260.389136 
L 147.232494 259.569493 
L 147.829257 258.664894 
L 148.724401 256.842084 
L 149.917926 255.689356 
L 150.81307 254.85527 
L 151.708214 254.514368 
L 152.304977 254.750076 
L 152.901739 255.314515 
L 153.20012 255.720563 
L 153.498502 256.467207 
L 153.796883 257.663059 
L 155.28879 261.05148 
L 155.885552 262.985045 
L 156.780696 264.11425 
L 157.377459 264.686635 
L 157.974221 264.624823 
L 158.570984 264.380413 
L 159.167746 263.920647 
L 159.764509 263.874857 
L 160.361272 264.108003 
L 160.659653 264.491056 
L 161.256416 265.816418 
L 162.151559 267.706224 
L 162.449941 268.390996 
L 163.345085 271.073019 
L 163.941847 271.803417 
L 164.53861 272.096616 
L 166.030516 270.512213 
L 166.328898 270.10808 
L 167.224042 270.119995 
L 167.522423 270.341719 
L 167.820804 270.931179 
L 168.119185 272.244583 
L 168.417567 272.244583 
L 168.715948 274.135862 
L 169.014329 275.256866 
L 169.909473 280.602932 
L 170.207855 280.602932 
L 170.506236 282.477093 
L 171.102998 283.654393 
L 171.40138 283.987007 
L 171.998142 283.379361 
L 172.893286 281.784726 
L 173.191668 281.189076 
L 173.78843 279.431861 
L 174.385193 278.896437 
L 174.981955 278.809047 
L 175.280337 279.227248 
L 175.578718 279.227248 
L 175.877099 279.649223 
L 176.473862 279.803434 
L 176.772243 279.718046 
L 177.070624 278.952578 
L 177.369006 278.952578 
L 177.667387 277.90662 
L 178.562531 276.154672 
L 178.860912 275.249828 
L 179.457675 274.834066 
L 180.352819 275.771985 
L 180.6512 277.210225 
L 180.949581 278.080373 
L 181.546344 280.769012 
L 181.844725 281.179722 
L 182.441488 282.346087 
L 182.739869 282.096811 
L 183.03825 281.070204 
L 183.336632 279.359245 
L 183.635013 278.66357 
L 183.933394 277.12374 
L 184.231776 273.621067 
L 184.530157 271.758342 
L 185.12692 266.268948 
L 185.425301 265.396917 
L 185.723682 263.754164 
L 186.022063 260.924112 
L 186.320445 260.924112 
L 186.618826 258.525884 
L 187.215589 258.309936 
L 187.51397 258.534187 
L 187.812351 259.839683 
L 188.110733 259.839683 
L 188.409114 263.4646 
L 188.707495 264.206465 
L 189.304258 267.312866 
L 189.602639 270.330709 
L 189.90102 270.330709 
L 190.199402 273.794971 
L 191.094546 274.911367 
L 191.691308 273.580502 
L 192.884833 267.680544 
L 193.183215 264.640111 
L 194.078359 259.871902 
L 194.37674 257.802984 
L 194.675121 257.802984 
L 194.973503 256.829027 
L 195.271884 256.827425 
L 195.570265 257.16794 
L 195.868646 258.289431 
L 196.167028 260.754651 
L 196.465409 260.754651 
L 196.76379 263.953841 
L 197.957316 271.658013 
L 198.255697 274.392239 
L 198.852459 276.305361 
L 199.449222 277.279794 
L 199.747603 276.740759 
L 200.045985 276.740759 
L 200.642747 274.216055 
L 201.23951 271.954379 
L 202.134654 267.221988 
L 202.731416 265.779251 
L 203.029798 265.308177 
L 203.328179 265.064574 
L 203.62656 265.188604 
L 205.118467 270.867559 
L 206.013611 277.260757 
L 206.908755 280.685286 
L 207.207136 281.818563 
L 207.505517 282.440285 
L 207.803898 282.369244 
L 208.10228 282.076081 
L 208.699042 280.939362 
L 208.997424 279.688916 
L 209.295805 277.621849 
L 210.190949 274.089184 
L 210.48933 271.237854 
L 210.787711 271.237854 
L 211.086093 269.386788 
L 211.682855 268.249197 
L 211.981237 268.036343 
L 212.279618 268.112447 
L 212.577999 268.767815 
L 213.174762 271.651504 
L 214.069906 275.678646 
L 214.666668 279.950128 
L 215.263431 281.453503 
L 215.561812 281.881874 
L 215.860194 282.087484 
L 216.456956 280.760371 
L 217.053719 278.683891 
L 217.3521 276.655315 
L 217.650481 273.563656 
L 217.948863 273.563656 
L 218.247244 270.256032 
L 219.73915 262.420436 
L 220.037532 262.243133 
L 220.335913 262.394278 
L 220.634294 262.854106 
L 220.932676 263.598361 
L 221.231057 266.395648 
L 221.529438 266.395648 
L 221.82782 269.252597 
L 223.021345 274.651342 
L 223.319726 275.84059 
L 223.618107 276.398628 
L 223.916489 276.264104 
L 224.21487 275.883963 
L 224.811633 274.517774 
L 225.110014 273.065566 
L 225.408395 270.712314 
L 226.303539 266.740924 
L 226.900302 262.396012 
L 227.497064 260.945192 
L 227.795446 260.664649 
L 228.093827 260.704357 
L 228.392208 261.066412 
L 228.690589 262.166237 
L 228.988971 264.501253 
L 229.884115 269.018397 
L 230.182496 272.234929 
L 230.480877 272.234929 
L 230.779259 275.958416 
L 231.07764 276.393746 
L 231.674402 277.488777 
L 232.271165 277.523273 
L 232.569546 275.818559 
L 232.867928 275.384936 
L 233.46469 273.359625 
L 233.763072 270.989029 
L 234.061453 269.733403 
L 234.658215 265.898333 
L 234.956597 265.303514 
L 235.553359 262.924417 
L 235.851741 262.771785 
L 236.150122 263.209117 
L 236.448503 264.360482 
L 236.746885 264.874738 
L 237.045266 266.075069 
L 237.343647 269.000922 
L 237.642028 269.000922 
L 237.94041 273.837412 
L 238.238791 274.635882 
L 239.133935 279.452648 
L 239.432316 279.452648 
L 239.730698 280.145273 
L 240.029079 280.035401 
L 240.32746 279.652914 
L 240.625841 279.067324 
L 240.924223 277.351495 
L 241.222604 277.351495 
L 241.520985 273.706358 
L 241.819367 273.017739 
L 242.416129 270.182802 
L 242.714511 267.457648 
L 243.012892 267.457648 
L 243.311273 264.745427 
L 243.908036 264.382151 
L 244.206417 264.555168 
L 244.504798 265.060046 
L 244.80318 266.380555 
L 245.101561 268.930551 
L 245.996705 273.641297 
L 246.295086 276.770103 
L 246.593467 276.770103 
L 246.891849 280.260523 
L 247.19023 280.645145 
L 247.488611 281.233976 
L 247.786993 281.542889 
L 248.085374 281.252024 
L 248.383755 280.254652 
L 248.682137 278.687645 
L 248.980518 278.064011 
L 249.57728 275.194138 
L 250.174043 269.603708 
L 250.472424 267.33904 
L 250.770806 266.629371 
L 251.66595 262.948545 
L 251.964331 262.948545 
L 252.262712 263.781519 
L 252.561093 264.204214 
L 253.157856 266.511198 
L 253.456237 269.533077 
L 253.754619 269.533077 
L 254.053 274.77847 
L 254.351381 275.677914 
L 254.948144 279.170222 
L 255.246525 281.97316 
L 255.544907 281.97316 
L 255.843288 283.763041 
L 256.141669 283.736355 
L 256.44005 283.418246 
L 256.738432 282.756532 
L 257.633576 275.758147 
L 257.931957 274.862924 
L 258.52872 271.172684 
L 258.827101 267.599483 
L 259.125482 267.599483 
L 259.423863 263.142327 
L 259.722245 262.566404 
L 260.319007 260.942593 
L 260.617389 260.627337 
L 260.91577 260.82762 
L 262.109295 266.601337 
L 262.706058 273.088165 
L 263.004439 275.970072 
L 263.30282 276.908669 
L 263.899583 280.464345 
L 264.197964 283.153584 
L 264.794727 284.479749 
L 265.093108 284.124545 
L 265.391489 282.976558 
L 265.689871 282.976558 
L 266.883396 273.365741 
L 267.181777 272.414207 
L 267.480159 270.499863 
L 267.77854 266.729075 
L 268.375302 262.655911 
L 268.972065 259.471149 
L 269.270446 259.471149 
L 269.568828 258.961898 
L 269.867209 259.266847 
L 270.16559 259.936784 
L 270.463972 261.565786 
L 270.762353 264.607755 
L 272.254259 274.242856 
L 273.149403 282.071728 
L 273.746166 284.474346 
L 274.342928 285.855393 
L 274.64131 285.312504 
L 275.238072 283.380961 
L 275.834835 280.392903 
L 276.133216 277.710605 
L 276.431598 273.878716 
L 277.923504 263.592185 
L 278.221885 260.89893 
L 278.818648 259.362266 
L 279.117029 259.092848 
L 279.415411 259.178349 
L 279.713792 259.613387 
L 280.012173 260.880407 
L 280.310554 263.524911 
L 281.205698 268.747492 
L 281.802461 275.339681 
L 282.100842 277.936699 
L 282.399224 278.751681 
L 283.294367 283.473089 
L 283.592749 284.095199 
L 284.189511 283.800056 
L 284.487893 283.19327 
L 284.786274 282.312118 
L 285.084655 279.854732 
L 285.383037 279.854732 
L 285.681418 275.057288 
L 285.979799 274.178062 
L 286.576562 270.645109 
L 287.173324 265.121687 
L 287.471706 263.493273 
L 287.770087 263.08309 
L 288.068468 262.468486 
L 288.36685 262.159775 
L 288.665231 262.524667 
L 288.963612 263.188505 
L 289.560375 266.730531 
L 289.858756 269.08899 
L 290.157137 269.08899 
L 290.455519 272.505456 
L 290.7539 274.259924 
L 291.649044 281.031103 
L 292.245806 283.046229 
L 292.842569 284.199207 
L 293.14095 284.324907 
L 293.439332 283.899249 
L 294.036094 280.994662 
L 294.931238 276.243125 
L 295.229619 274.464757 
L 296.124763 266.694093 
L 297.019907 262.265976 
L 297.318289 261.848267 
L 297.915051 262.52243 
L 298.511814 264.42166 
L 298.810195 267.247812 
L 299.108576 267.247812 
L 299.406958 272.38466 
L 299.705339 273.290744 
L 300.302102 276.862571 
L 300.600483 280.078 
L 300.898864 280.078 
L 301.197245 283.662239 
L 301.495627 284.074963 
L 301.794008 284.73282 
L 302.092389 285.115042 
L 302.390771 285.174632 
L 302.689152 284.64634 
L 303.285915 281.497766 
L 303.882677 278.261425 
L 304.181058 273.664403 
L 304.47944 273.664403 
L 304.777821 269.895518 
L 306.269728 261.431107 
L 306.568109 261.181733 
L 306.86649 261.274262 
L 307.164871 261.693637 
L 307.463253 262.422427 
L 307.761634 264.021621 
L 308.060015 266.915701 
L 309.551922 275.686938 
L 310.447066 282.675531 
L 311.34221 285.672891 
L 311.640591 285.470593 
L 311.938972 284.484811 
L 312.237354 283.998805 
L 312.834116 281.403111 
L 313.132497 278.104595 
L 313.430879 276.312927 
L 314.027641 270.721893 
L 314.326023 269.812068 
L 314.624404 268.017962 
L 314.922785 264.681383 
L 315.221167 264.681383 
L 315.519548 261.087393 
L 316.414692 259.978175 
L 317.011454 261.407071 
L 318.20498 267.876612 
L 318.503361 271.44314 
L 318.801742 273.205938 
L 319.398505 278.331974 
L 319.696886 279.130699 
L 319.995267 280.628966 
L 320.293649 283.151513 
L 320.890411 284.646554 
L 321.188793 284.939919 
L 321.487174 284.270777 
L 321.785555 284.270777 
L 322.382318 281.298716 
L 322.97908 278.424529 
L 324.172606 269.401776 
L 325.366131 263.570352 
L 325.664512 262.633339 
L 325.962893 262.656064 
L 326.261275 263.002077 
L 326.858037 264.542007 
L 327.156419 266.286439 
L 327.4548 269.178361 
L 328.648325 275.722452 
L 329.543469 282.628201 
L 330.736994 287.703221 
L 331.035376 287.719412 
L 331.333757 287.383 
L 331.632138 286.703139 
L 331.930519 285.103682 
L 332.228901 282.093322 
L 332.527282 282.093322 
L 332.825663 278.49572 
L 333.720807 272.697442 
L 334.615951 265.045058 
L 335.212714 262.635307 
L 335.809476 261.153589 
L 336.107858 261.487019 
L 336.406239 262.152206 
L 337.003002 264.297248 
L 337.599764 267.137147 
L 338.793289 275.775917 
L 339.091671 277.279053 
L 339.390052 280.086228 
L 339.688433 280.086228 
L 339.986815 283.552839 
L 340.285196 284.000161 
L 340.881958 285.379476 
L 341.18034 285.768351 
L 341.478721 285.768351 
L 342.373865 282.88729 
L 342.672246 281.576355 
L 342.970628 279.298299 
L 343.269009 275.826963 
L 345.357678 262.795782 
L 345.954441 261.492964 
L 346.252822 261.166827 
L 346.551203 261.065048 
L 347.446347 263.333218 
L 348.04311 265.626822 
L 348.341491 269.063559 
L 348.639872 269.063559 
L 348.938254 271.978318 
L 349.833397 276.190572 
L 350.131779 278.667263 
L 350.728541 281.434189 
L 351.026923 281.761263 
L 351.623685 282.598915 
L 351.922067 282.695165 
L 352.220448 282.504479 
L 352.81721 281.373731 
L 353.115592 280.620749 
L 353.413973 280.620749 
L 353.712354 279.51468 
L 354.010736 278.952822 
L 354.607498 277.472301 
L 354.90588 276.938868 
L 355.204261 276.938868 
L 355.502642 276.447986 
L 356.397786 275.860504 
L 356.696167 275.465727 
L 356.994549 275.465727 
L 357.29293 275.054198 
L 357.889693 274.59046 
L 358.486455 274.001441 
L 358.784836 274.001441 
L 360.575124 270.662015 
L 361.171887 268.34839 
L 361.470268 267.585544 
L 362.365412 266.949557 
L 362.663793 267.413041 
L 362.962175 267.413041 
L 363.558937 269.287093 
L 364.1557 270.959537 
L 364.454081 273.185179 
L 364.752462 273.185179 
L 365.050844 274.826435 
L 365.647606 276.155114 
L 365.945988 276.606055 
L 366.244369 276.817528 
L 366.54275 276.817528 
L 367.736275 273.224577 
L 368.034657 270.280443 
L 368.333038 270.280443 
L 368.631419 268.064745 
L 369.228182 266.31706 
L 369.824945 265.09224 
L 370.123326 265.09224 
L 370.421707 265.756487 
L 370.720088 266.030278 
L 371.316851 267.522886 
L 371.615232 269.551865 
L 371.913614 270.70562 
L 372.808758 276.273951 
L 373.107139 276.273951 
L 373.40552 278.609613 
L 374.599045 283.002194 
L 374.897427 283.266003 
L 375.195808 283.347089 
L 375.494189 283.271963 
L 376.090952 282.790613 
L 376.986096 281.210612 
L 377.582858 280.701902 
L 378.478002 280.194197 
L 379.969909 277.995775 
L 380.566671 276.440899 
L 381.163434 275.958452 
L 381.461815 275.842325 
L 382.058578 275.861943 
L 382.356959 276.58971 
L 382.65534 276.776557 
L 383.848866 278.217109 
L 384.147247 278.106241 
L 384.445628 277.703616 
L 384.74401 277.512618 
L 385.042391 277.062444 
L 385.340772 276.000048 
L 386.235916 274.580546 
L 386.534297 274.439631 
L 386.832679 274.439631 
L 387.727823 275.691249 
L 388.026204 276.557344 
L 388.324585 277.911226 
L 388.622966 277.911226 
L 388.921348 279.341801 
L 389.816492 281.439319 
L 390.114873 281.613386 
L 390.413254 281.613386 
L 391.010017 280.624652 
L 391.60678 279.001872 
L 391.905161 277.437374 
L 392.203542 275.196815 
L 393.098686 272.191417 
L 393.695449 270.717458 
L 393.99383 270.612886 
L 394.292211 270.926197 
L 394.888974 272.128716 
L 395.187355 273.402481 
L 395.485736 275.32696 
L 395.784118 275.32696 
L 396.082499 277.256769 
L 397.276024 280.854 
L 397.574406 280.854 
L 397.872787 281.008498 
L 398.171168 280.818346 
L 398.469549 280.446029 
L 398.767931 279.892443 
L 399.066312 278.752578 
L 399.364693 276.860553 
L 400.259837 274.086427 
L 400.8566 272.775672 
L 401.154981 272.257297 
L 401.453362 272.177767 
L 402.050125 272.613828 
L 402.348506 272.952126 
L 402.646888 273.746849 
L 402.945269 273.746849 
L 403.24365 274.952837 
L 403.542032 275.126941 
L 404.437175 276.034735 
L 404.735557 276.034735 
L 405.033938 276.64436 
L 405.332319 276.821777 
L 405.929082 277.715776 
L 406.227463 278.585611 
L 407.122607 279.453202 
L 407.71937 279.482866 
L 408.614514 278.780498 
L 408.912895 278.194487 
L 409.211276 277.192503 
L 409.509658 277.192503 
L 409.808039 276.158053 
L 410.703183 274.860753 
L 411.001564 274.722989 
L 412.195089 274.821876 
L 412.493471 274.960007 
L 413.090233 275.927048 
L 413.388614 277.47371 
L 413.686996 277.47371 
L 413.985377 280.025407 
L 414.283758 280.379432 
L 414.880521 281.400121 
L 415.178902 281.554326 
L 415.477284 281.554326 
L 415.775665 280.191086 
L 416.074046 279.830997 
L 416.96919 277.237942 
L 417.864334 273.374957 
L 418.461097 272.244517 
L 418.759478 271.914845 
L 419.057859 271.822786 
L 419.953003 273.601362 
L 420.251384 274.161703 
L 420.549766 275.081747 
L 421.146528 276.041836 
L 421.743291 276.395595 
L 422.340053 276.640763 
L 422.638435 276.640763 
L 422.936816 275.959354 
L 423.235197 275.782507 
L 424.130341 274.794291 
L 424.428723 274.794291 
L 424.727104 275.702701 
L 425.025485 276.002176 
L 425.622248 277.45777 
L 425.920629 279.131569 
L 426.21901 279.131569 
L 426.517392 281.851517 
L 426.815773 282.359755 
L 427.412536 284.659282 
L 427.710917 287.342699 
L 428.009298 288.755156 
L 428.606061 292.85865 
L 428.904442 293.486516 
L 429.202823 294.673282 
L 429.501205 296.747211 
L 430.396349 299.313134 
L 430.993111 299.703068 
L 431.291492 299.458919 
L 431.589874 298.904111 
L 431.888255 298.032329 
L 432.186636 296.144514 
L 432.186636 296.144514 
" clip-path="url(#p94e3cda7c8)" style="fill: none; stroke: #008000; stroke-width: 1.5; stroke-linecap: square"/>
   </g>
   <g id="patch_13">
    <path d="M 58.106 301.9975 
L 58.106 251.52 
" style="fill: none; stroke: #000000; stroke-width: 0.8; stroke-linejoin: miter; stroke-linecap: square"/>
   </g>
   <g id="patch_14">
    <path d="M 450 301.9975 
L 450 251.52 
" style="fill: none; stroke: #000000; stroke-width: 0.8; stroke-linejoin: miter; stroke-linecap: square"/>
   </g>
   <g id="patch_15">
    <path d="M 58.106 301.9975 
L 450 301.9975 
" style="fill: none; stroke: #000000; stroke-width: 0.8; stroke-linejoin: miter; stroke-linecap: square"/>
   </g>
   <g id="patch_16">
    <path d="M 58.106 251.52 
L 450 251.52 
" style="fill: none; stroke: #000000; stroke-width: 0.8; stroke-linejoin: miter; stroke-linecap: square"/>
   </g>
   <g id="text_38">
    <!-- Error in swing angle -->
    <g transform="translate(194.282688 245.52)scale(0.12 -0.12)">
     <defs>
      <path id="DejaVuSans-77" d="M 269 3500 
L 844 3500 
L 1563 769 
L 2278 3500 
L 2956 3500 
L 3675 769 
L 4391 3500 
L 4966 3500 
L 4050 0 
L 3372 0 
L 2619 2869 
L 1863 0 
L 1184 0 
L 269 3500 
z
" transform="scale(0.015625)"/>
      <path id="DejaVuSans-67" d="M 2906 1791 
Q 2906 2416 2648 2759 
Q 2391 3103 1925 3103 
Q 1463 3103 1205 2759 
Q 947 2416 947 1791 
Q 947 1169 1205 825 
Q 1463 481 1925 481 
Q 2391 481 2648 825 
Q 2906 1169 2906 1791 
z
M 3481 434 
Q 3481 -459 3084 -895 
Q 2688 -1331 1869 -1331 
Q 1566 -1331 1297 -1286 
Q 1028 -1241 775 -1147 
L 775 -588 
Q 1028 -725 1275 -790 
Q 1522 -856 1778 -856 
Q 2344 -856 2625 -561 
Q 2906 -266 2906 331 
L 2906 616 
Q 2728 306 2450 153 
Q 2172 0 1784 0 
Q 1141 0 747 490 
Q 353 981 353 1791 
Q 353 2603 747 3093 
Q 1141 3584 1784 3584 
Q 2172 3584 2450 3431 
Q 2728 3278 2906 2969 
L 2906 3500 
L 3481 3500 
L 3481 434 
z
" transform="scale(0.015625)"/>
      <path id="DejaVuSans-6c" d="M 603 4863 
L 1178 4863 
L 1178 0 
L 603 0 
L 603 4863 
z
" transform="scale(0.015625)"/>
      <path id="DejaVuSans-65" d="M 3597 1894 
L 3597 1613 
L 953 1613 
Q 991 1019 1311 708 
Q 1631 397 2203 397 
Q 2534 397 2845 478 
Q 3156 559 3463 722 
L 3463 178 
Q 3153 47 2828 -22 
Q 2503 -91 2169 -91 
Q 1331 -91 842 396 
Q 353 884 353 1716 
Q 353 2575 817 3079 
Q 1281 3584 2069 3584 
Q 2775 3584 3186 3129 
Q 3597 2675 3597 1894 
z
M 3022 2063 
Q 3016 2534 2758 2815 
Q 2500 3097 2075 3097 
Q 1594 3097 1305 2825 
Q 1016 2553 972 2059 
L 3022 2063 
z
" transform="scale(0.015625)"/>
     </defs>
     <use xlink:href="#DejaVuSans-45"/>
     <use xlink:href="#DejaVuSans-72" x="63.183594"/>
     <use xlink:href="#DejaVuSans-72" x="102.546875"/>
     <use xlink:href="#DejaVuSans-6f" x="141.410156"/>
     <use xlink:href="#DejaVuSans-72" x="202.591797"/>
     <use xlink:href="#DejaVuSans-20" x="243.705078"/>
     <use xlink:href="#DejaVuSans-69" x="275.492188"/>
     <use xlink:href="#DejaVuSans-6e" x="303.275391"/>
     <use xlink:href="#DejaVuSans-20" x="366.654297"/>
     <use xlink:href="#DejaVuSans-73" x="398.441406"/>
     <use xlink:href="#DejaVuSans-77" x="450.541016"/>
     <use xlink:href="#DejaVuSans-69" x="532.328125"/>
     <use xlink:href="#DejaVuSans-6e" x="560.111328"/>
     <use xlink:href="#DejaVuSans-67" x="623.490234"/>
     <use xlink:href="#DejaVuSans-20" x="686.966797"/>
     <use xlink:href="#DejaVuSans-61" x="718.753906"/>
     <use xlink:href="#DejaVuSans-6e" x="780.033203"/>
     <use xlink:href="#DejaVuSans-67" x="843.412109"/>
     <use xlink:href="#DejaVuSans-6c" x="906.888672"/>
     <use xlink:href="#DejaVuSans-65" x="934.671875"/>
    </g>
   </g>
  </g>
 </g>
 <defs>
  <clipPath id="p0f2db68b24">
   <rect x="58.106" y="28.32" width="391.894" height="50.4775"/>
  </clipPath>
  <clipPath id="p7ac4719a74">
   <rect x="58.106" y="139.92" width="391.894" height="50.4775"/>
  </clipPath>
  <clipPath id="p94e3cda7c8">
   <rect x="58.106" y="251.52" width="391.894" height="50.4775"/>
  </clipPath>
 </defs>
</svg>
