<?xml version="1.0" encoding="utf-8" standalone="no"?>
<!DOCTYPE svg PUBLIC "-//W3C//DTD SVG 1.1//EN"
  "http://www.w3.org/Graphics/SVG/1.1/DTD/svg11.dtd">
<svg xmlns:xlink="http://www.w3.org/1999/xlink" width="460.8pt" height="345.6pt" viewBox="0 0 460.8 345.6" xmlns="http://www.w3.org/2000/svg" version="1.1">
 <metadata>
  <rdf:RDF xmlns:dc="http://purl.org/dc/elements/1.1/" xmlns:cc="http://creativecommons.org/ns#" xmlns:rdf="http://www.w3.org/1999/02/22-rdf-syntax-ns#">
   <cc:Work>
    <dc:type rdf:resource="http://purl.org/dc/dcmitype/StillImage"/>
    <dc:date>2022-06-05T14:23:28.900735</dc:date>
    <dc:format>image/svg+xml</dc:format>
    <dc:creator>
     <cc:Agent>
      <dc:title>Matplotlib v3.5.1, https://matplotlib.org/</dc:title>
     </cc:Agent>
    </dc:creator>
   </cc:Work>
  </rdf:RDF>
 </metadata>
 <defs>
  <style type="text/css">*{stroke-linejoin: round; stroke-linecap: butt}</style>
 </defs>
 <g id="figure_1">
  <g id="patch_1">
   <path d="M 0 345.6 
L 460.8 345.6 
L 460.8 0 
L 0 0 
z
" style="fill: #ffffff"/>
  </g>
  <g id="axes_1">
   <g id="patch_2">
    <path d="M 58.106 78.7975 
L 450 78.7975 
L 450 28.32 
L 58.106 28.32 
z
" style="fill: #ffffff"/>
   </g>
   <g id="matplotlib.axis_1">
    <g id="xtick_1">
     <g id="line2d_1">
      <path d="M 75.919364 78.7975 
L 75.919364 28.32 
" clip-path="url(#pb65a90cc61)" style="fill: none; stroke: #b0b0b0; stroke-width: 0.8; stroke-linecap: square"/>
     </g>
     <g id="line2d_2">
      <defs>
       <path id="m1e6a791eea" d="M 0 0 
L 0 3.5 
" style="stroke: #000000; stroke-width: 0.8"/>
      </defs>
      <g>
       <use xlink:href="#m1e6a791eea" x="75.919364" y="78.7975" style="stroke: #000000; stroke-width: 0.8"/>
      </g>
     </g>
     <g id="text_1">
      <!-- 0 -->
      <g transform="translate(72.738114 93.395937)scale(0.1 -0.1)">
       <defs>
        <path id="DejaVuSans-30" d="M 2034 4250 
Q 1547 4250 1301 3770 
Q 1056 3291 1056 2328 
Q 1056 1369 1301 889 
Q 1547 409 2034 409 
Q 2525 409 2770 889 
Q 3016 1369 3016 2328 
Q 3016 3291 2770 3770 
Q 2525 4250 2034 4250 
z
M 2034 4750 
Q 2819 4750 3233 4129 
Q 3647 3509 3647 2328 
Q 3647 1150 3233 529 
Q 2819 -91 2034 -91 
Q 1250 -91 836 529 
Q 422 1150 422 2328 
Q 422 3509 836 4129 
Q 1250 4750 2034 4750 
z
" transform="scale(0.015625)"/>
       </defs>
       <use xlink:href="#DejaVuSans-30"/>
      </g>
     </g>
    </g>
    <g id="xtick_2">
     <g id="line2d_3">
      <path d="M 136.509036 78.7975 
L 136.509036 28.32 
" clip-path="url(#pb65a90cc61)" style="fill: none; stroke: #b0b0b0; stroke-width: 0.8; stroke-linecap: square"/>
     </g>
     <g id="line2d_4">
      <g>
       <use xlink:href="#m1e6a791eea" x="136.509036" y="78.7975" style="stroke: #000000; stroke-width: 0.8"/>
      </g>
     </g>
     <g id="text_2">
      <!-- 2 -->
      <g transform="translate(133.327786 93.395937)scale(0.1 -0.1)">
       <defs>
        <path id="DejaVuSans-32" d="M 1228 531 
L 3431 531 
L 3431 0 
L 469 0 
L 469 531 
Q 828 903 1448 1529 
Q 2069 2156 2228 2338 
Q 2531 2678 2651 2914 
Q 2772 3150 2772 3378 
Q 2772 3750 2511 3984 
Q 2250 4219 1831 4219 
Q 1534 4219 1204 4116 
Q 875 4013 500 3803 
L 500 4441 
Q 881 4594 1212 4672 
Q 1544 4750 1819 4750 
Q 2544 4750 2975 4387 
Q 3406 4025 3406 3419 
Q 3406 3131 3298 2873 
Q 3191 2616 2906 2266 
Q 2828 2175 2409 1742 
Q 1991 1309 1228 531 
z
" transform="scale(0.015625)"/>
       </defs>
       <use xlink:href="#DejaVuSans-32"/>
      </g>
     </g>
    </g>
    <g id="xtick_3">
     <g id="line2d_5">
      <path d="M 197.098708 78.7975 
L 197.098708 28.32 
" clip-path="url(#pb65a90cc61)" style="fill: none; stroke: #b0b0b0; stroke-width: 0.8; stroke-linecap: square"/>
     </g>
     <g id="line2d_6">
      <g>
       <use xlink:href="#m1e6a791eea" x="197.098708" y="78.7975" style="stroke: #000000; stroke-width: 0.8"/>
      </g>
     </g>
     <g id="text_3">
      <!-- 4 -->
      <g transform="translate(193.917458 93.395937)scale(0.1 -0.1)">
       <defs>
        <path id="DejaVuSans-34" d="M 2419 4116 
L 825 1625 
L 2419 1625 
L 2419 4116 
z
M 2253 4666 
L 3047 4666 
L 3047 1625 
L 3713 1625 
L 3713 1100 
L 3047 1100 
L 3047 0 
L 2419 0 
L 2419 1100 
L 313 1100 
L 313 1709 
L 2253 4666 
z
" transform="scale(0.015625)"/>
       </defs>
       <use xlink:href="#DejaVuSans-34"/>
      </g>
     </g>
    </g>
    <g id="xtick_4">
     <g id="line2d_7">
      <path d="M 257.68838 78.7975 
L 257.68838 28.32 
" clip-path="url(#pb65a90cc61)" style="fill: none; stroke: #b0b0b0; stroke-width: 0.8; stroke-linecap: square"/>
     </g>
     <g id="line2d_8">
      <g>
       <use xlink:href="#m1e6a791eea" x="257.68838" y="78.7975" style="stroke: #000000; stroke-width: 0.8"/>
      </g>
     </g>
     <g id="text_4">
      <!-- 6 -->
      <g transform="translate(254.50713 93.395937)scale(0.1 -0.1)">
       <defs>
        <path id="DejaVuSans-36" d="M 2113 2584 
Q 1688 2584 1439 2293 
Q 1191 2003 1191 1497 
Q 1191 994 1439 701 
Q 1688 409 2113 409 
Q 2538 409 2786 701 
Q 3034 994 3034 1497 
Q 3034 2003 2786 2293 
Q 2538 2584 2113 2584 
z
M 3366 4563 
L 3366 3988 
Q 3128 4100 2886 4159 
Q 2644 4219 2406 4219 
Q 1781 4219 1451 3797 
Q 1122 3375 1075 2522 
Q 1259 2794 1537 2939 
Q 1816 3084 2150 3084 
Q 2853 3084 3261 2657 
Q 3669 2231 3669 1497 
Q 3669 778 3244 343 
Q 2819 -91 2113 -91 
Q 1303 -91 875 529 
Q 447 1150 447 2328 
Q 447 3434 972 4092 
Q 1497 4750 2381 4750 
Q 2619 4750 2861 4703 
Q 3103 4656 3366 4563 
z
" transform="scale(0.015625)"/>
       </defs>
       <use xlink:href="#DejaVuSans-36"/>
      </g>
     </g>
    </g>
    <g id="xtick_5">
     <g id="line2d_9">
      <path d="M 318.278053 78.7975 
L 318.278053 28.32 
" clip-path="url(#pb65a90cc61)" style="fill: none; stroke: #b0b0b0; stroke-width: 0.8; stroke-linecap: square"/>
     </g>
     <g id="line2d_10">
      <g>
       <use xlink:href="#m1e6a791eea" x="318.278053" y="78.7975" style="stroke: #000000; stroke-width: 0.8"/>
      </g>
     </g>
     <g id="text_5">
      <!-- 8 -->
      <g transform="translate(315.096803 93.395937)scale(0.1 -0.1)">
       <defs>
        <path id="DejaVuSans-38" d="M 2034 2216 
Q 1584 2216 1326 1975 
Q 1069 1734 1069 1313 
Q 1069 891 1326 650 
Q 1584 409 2034 409 
Q 2484 409 2743 651 
Q 3003 894 3003 1313 
Q 3003 1734 2745 1975 
Q 2488 2216 2034 2216 
z
M 1403 2484 
Q 997 2584 770 2862 
Q 544 3141 544 3541 
Q 544 4100 942 4425 
Q 1341 4750 2034 4750 
Q 2731 4750 3128 4425 
Q 3525 4100 3525 3541 
Q 3525 3141 3298 2862 
Q 3072 2584 2669 2484 
Q 3125 2378 3379 2068 
Q 3634 1759 3634 1313 
Q 3634 634 3220 271 
Q 2806 -91 2034 -91 
Q 1263 -91 848 271 
Q 434 634 434 1313 
Q 434 1759 690 2068 
Q 947 2378 1403 2484 
z
M 1172 3481 
Q 1172 3119 1398 2916 
Q 1625 2713 2034 2713 
Q 2441 2713 2670 2916 
Q 2900 3119 2900 3481 
Q 2900 3844 2670 4047 
Q 2441 4250 2034 4250 
Q 1625 4250 1398 4047 
Q 1172 3844 1172 3481 
z
" transform="scale(0.015625)"/>
       </defs>
       <use xlink:href="#DejaVuSans-38"/>
      </g>
     </g>
    </g>
    <g id="xtick_6">
     <g id="line2d_11">
      <path d="M 378.867725 78.7975 
L 378.867725 28.32 
" clip-path="url(#pb65a90cc61)" style="fill: none; stroke: #b0b0b0; stroke-width: 0.8; stroke-linecap: square"/>
     </g>
     <g id="line2d_12">
      <g>
       <use xlink:href="#m1e6a791eea" x="378.867725" y="78.7975" style="stroke: #000000; stroke-width: 0.8"/>
      </g>
     </g>
     <g id="text_6">
      <!-- 10 -->
      <g transform="translate(372.505225 93.395937)scale(0.1 -0.1)">
       <defs>
        <path id="DejaVuSans-31" d="M 794 531 
L 1825 531 
L 1825 4091 
L 703 3866 
L 703 4441 
L 1819 4666 
L 2450 4666 
L 2450 531 
L 3481 531 
L 3481 0 
L 794 0 
L 794 531 
z
" transform="scale(0.015625)"/>
       </defs>
       <use xlink:href="#DejaVuSans-31"/>
       <use xlink:href="#DejaVuSans-30" x="63.623047"/>
      </g>
     </g>
    </g>
    <g id="xtick_7">
     <g id="line2d_13">
      <path d="M 439.457397 78.7975 
L 439.457397 28.32 
" clip-path="url(#pb65a90cc61)" style="fill: none; stroke: #b0b0b0; stroke-width: 0.8; stroke-linecap: square"/>
     </g>
     <g id="line2d_14">
      <g>
       <use xlink:href="#m1e6a791eea" x="439.457397" y="78.7975" style="stroke: #000000; stroke-width: 0.8"/>
      </g>
     </g>
     <g id="text_7">
      <!-- 12 -->
      <g transform="translate(433.094897 93.395937)scale(0.1 -0.1)">
       <use xlink:href="#DejaVuSans-31"/>
       <use xlink:href="#DejaVuSans-32" x="63.623047"/>
      </g>
     </g>
    </g>
    <g id="text_8">
     <!-- $t$ [s] -->
     <g transform="translate(243.953 107.074062)scale(0.1 -0.1)">
      <defs>
       <path id="DejaVuSans-Oblique-74" d="M 2706 3500 
L 2619 3053 
L 1472 3053 
L 1100 1153 
Q 1081 1047 1072 975 
Q 1063 903 1063 863 
Q 1063 663 1183 572 
Q 1303 481 1569 481 
L 2150 481 
L 2053 0 
L 1503 0 
Q 991 0 739 200 
Q 488 400 488 806 
Q 488 878 497 964 
Q 506 1050 525 1153 
L 897 3053 
L 409 3053 
L 500 3500 
L 978 3500 
L 1172 4494 
L 1747 4494 
L 1556 3500 
L 2706 3500 
z
" transform="scale(0.015625)"/>
       <path id="DejaVuSans-20" transform="scale(0.015625)"/>
       <path id="DejaVuSans-5b" d="M 550 4863 
L 1875 4863 
L 1875 4416 
L 1125 4416 
L 1125 -397 
L 1875 -397 
L 1875 -844 
L 550 -844 
L 550 4863 
z
" transform="scale(0.015625)"/>
       <path id="DejaVuSans-73" d="M 2834 3397 
L 2834 2853 
Q 2591 2978 2328 3040 
Q 2066 3103 1784 3103 
Q 1356 3103 1142 2972 
Q 928 2841 928 2578 
Q 928 2378 1081 2264 
Q 1234 2150 1697 2047 
L 1894 2003 
Q 2506 1872 2764 1633 
Q 3022 1394 3022 966 
Q 3022 478 2636 193 
Q 2250 -91 1575 -91 
Q 1294 -91 989 -36 
Q 684 19 347 128 
L 347 722 
Q 666 556 975 473 
Q 1284 391 1588 391 
Q 1994 391 2212 530 
Q 2431 669 2431 922 
Q 2431 1156 2273 1281 
Q 2116 1406 1581 1522 
L 1381 1569 
Q 847 1681 609 1914 
Q 372 2147 372 2553 
Q 372 3047 722 3315 
Q 1072 3584 1716 3584 
Q 2034 3584 2315 3537 
Q 2597 3491 2834 3397 
z
" transform="scale(0.015625)"/>
       <path id="DejaVuSans-5d" d="M 1947 4863 
L 1947 -844 
L 622 -844 
L 622 -397 
L 1369 -397 
L 1369 4416 
L 622 4416 
L 622 4863 
L 1947 4863 
z
" transform="scale(0.015625)"/>
      </defs>
      <use xlink:href="#DejaVuSans-Oblique-74" transform="translate(0 0.015625)"/>
      <use xlink:href="#DejaVuSans-20" transform="translate(39.208984 0.015625)"/>
      <use xlink:href="#DejaVuSans-5b" transform="translate(70.996094 0.015625)"/>
      <use xlink:href="#DejaVuSans-73" transform="translate(110.009766 0.015625)"/>
      <use xlink:href="#DejaVuSans-5d" transform="translate(162.109375 0.015625)"/>
     </g>
    </g>
   </g>
   <g id="matplotlib.axis_2">
    <g id="ytick_1">
     <g id="line2d_15">
      <path d="M 58.106 76.472633 
L 450 76.472633 
" clip-path="url(#pb65a90cc61)" style="fill: none; stroke: #b0b0b0; stroke-width: 0.8; stroke-linecap: square"/>
     </g>
     <g id="line2d_16">
      <defs>
       <path id="m756a59a9dd" d="M 0 0 
L -3.5 0 
" style="stroke: #000000; stroke-width: 0.8"/>
      </defs>
      <g>
       <use xlink:href="#m756a59a9dd" x="58.106" y="76.472633" style="stroke: #000000; stroke-width: 0.8"/>
      </g>
     </g>
     <g id="text_9">
      <!-- 0 -->
      <g transform="translate(44.7435 80.271852)scale(0.1 -0.1)">
       <use xlink:href="#DejaVuSans-30"/>
      </g>
     </g>
    </g>
    <g id="ytick_2">
     <g id="line2d_17">
      <path d="M 58.106 30.614427 
L 450 30.614427 
" clip-path="url(#pb65a90cc61)" style="fill: none; stroke: #b0b0b0; stroke-width: 0.8; stroke-linecap: square"/>
     </g>
     <g id="line2d_18">
      <g>
       <use xlink:href="#m756a59a9dd" x="58.106" y="30.614427" style="stroke: #000000; stroke-width: 0.8"/>
      </g>
     </g>
     <g id="text_10">
      <!-- 10 -->
      <g transform="translate(38.381 34.413646)scale(0.1 -0.1)">
       <use xlink:href="#DejaVuSans-31"/>
       <use xlink:href="#DejaVuSans-30" x="63.623047"/>
      </g>
     </g>
    </g>
    <g id="text_11">
     <!-- $e_x$ [m] -->
     <g transform="translate(32.301313 69.20875)rotate(-90)scale(0.1 -0.1)">
      <defs>
       <path id="DejaVuSans-Oblique-65" d="M 3078 2063 
Q 3088 2113 3092 2166 
Q 3097 2219 3097 2272 
Q 3097 2653 2873 2875 
Q 2650 3097 2266 3097 
Q 1838 3097 1509 2826 
Q 1181 2556 1013 2059 
L 3078 2063 
z
M 3578 1613 
L 903 1613 
Q 884 1494 878 1425 
Q 872 1356 872 1306 
Q 872 872 1139 634 
Q 1406 397 1894 397 
Q 2269 397 2603 481 
Q 2938 566 3225 728 
L 3116 159 
Q 2806 34 2476 -28 
Q 2147 -91 1806 -91 
Q 1078 -91 686 257 
Q 294 606 294 1247 
Q 294 1794 489 2264 
Q 684 2734 1063 3103 
Q 1306 3334 1642 3459 
Q 1978 3584 2356 3584 
Q 2950 3584 3301 3228 
Q 3653 2872 3653 2272 
Q 3653 2128 3634 1964 
Q 3616 1800 3578 1613 
z
" transform="scale(0.015625)"/>
       <path id="DejaVuSans-Oblique-78" d="M 3841 3500 
L 2234 1784 
L 3219 0 
L 2559 0 
L 1819 1388 
L 531 0 
L -166 0 
L 1556 1844 
L 641 3500 
L 1300 3500 
L 1972 2234 
L 3144 3500 
L 3841 3500 
z
" transform="scale(0.015625)"/>
       <path id="DejaVuSans-6d" d="M 3328 2828 
Q 3544 3216 3844 3400 
Q 4144 3584 4550 3584 
Q 5097 3584 5394 3201 
Q 5691 2819 5691 2113 
L 5691 0 
L 5113 0 
L 5113 2094 
Q 5113 2597 4934 2840 
Q 4756 3084 4391 3084 
Q 3944 3084 3684 2787 
Q 3425 2491 3425 1978 
L 3425 0 
L 2847 0 
L 2847 2094 
Q 2847 2600 2669 2842 
Q 2491 3084 2119 3084 
Q 1678 3084 1418 2786 
Q 1159 2488 1159 1978 
L 1159 0 
L 581 0 
L 581 3500 
L 1159 3500 
L 1159 2956 
Q 1356 3278 1631 3431 
Q 1906 3584 2284 3584 
Q 2666 3584 2933 3390 
Q 3200 3197 3328 2828 
z
" transform="scale(0.015625)"/>
      </defs>
      <use xlink:href="#DejaVuSans-Oblique-65" transform="translate(0 0.015625)"/>
      <use xlink:href="#DejaVuSans-Oblique-78" transform="translate(61.523438 -16.390625)scale(0.7)"/>
      <use xlink:href="#DejaVuSans-20" transform="translate(105.683594 0.015625)"/>
      <use xlink:href="#DejaVuSans-5b" transform="translate(137.470703 0.015625)"/>
      <use xlink:href="#DejaVuSans-6d" transform="translate(176.484375 0.015625)"/>
      <use xlink:href="#DejaVuSans-5d" transform="translate(273.896484 0.015625)"/>
     </g>
    </g>
   </g>
   <g id="line2d_19">
    <path d="M 75.919364 30.614432 
L 81.983487 30.716913 
L 89.563642 31.083534 
L 95.930972 31.504559 
L 98.659828 31.831338 
L 104.117539 32.557222 
L 106.846395 32.950967 
L 107.452807 33.053689 
L 108.362426 33.223446 
L 111.091282 33.706818 
L 112.0009 33.882899 
L 114.123344 34.256648 
L 114.729756 34.368287 
L 115.639374 34.550486 
L 117.761818 34.961138 
L 127.464416 37.443149 
L 127.767622 37.643384 
L 128.980447 37.875916 
L 130.799684 38.438136 
L 131.10289 38.438136 
L 131.406096 38.635717 
L 132.315715 38.79967 
L 133.225333 39.092508 
L 134.438158 39.413859 
L 134.741364 39.413859 
L 135.044571 39.604661 
L 135.954189 39.762575 
L 136.257395 39.888191 
L 136.560602 39.888191 
L 136.863808 40.07535 
L 137.773426 40.230048 
L 138.683045 40.505223 
L 140.805488 41.042243 
L 141.411901 41.130222 
L 142.321519 41.421461 
L 143.231138 41.566312 
L 144.443962 41.912854 
L 145.050375 41.999233 
L 145.959993 42.285988 
L 146.869612 42.428482 
L 147.779231 42.711422 
L 148.992055 42.907942 
L 151.720911 43.575897 
L 154.146561 44.097457 
L 155.056179 44.365557 
L 155.965798 44.497482 
L 156.875416 44.757479 
L 157.785035 44.885945 
L 158.99786 45.191537 
L 159.907478 45.368528 
L 162.636334 45.919245 
L 163.545952 46.118149 
L 165.668396 46.49089 
L 165.971602 46.639331 
L 166.881221 46.762297 
L 167.790839 47.005173 
L 168.700458 47.1247 
L 169.913282 47.407408 
L 170.822901 47.571502 
L 173.854963 48.137426 
L 174.764581 48.323876 
L 177.190231 48.776615 
L 178.09985 48.955897 
L 181.131911 49.50689 
L 182.04153 49.691591 
L 184.770386 50.186369 
L 185.680004 50.363931 
L 188.105654 50.822499 
L 189.015272 51.011527 
L 191.440922 51.48132 
L 193.563365 51.869884 
L 195.989015 52.331122 
L 196.898633 52.51904 
L 200.233901 53.123511 
L 201.446726 53.372544 
L 203.872376 53.800689 
L 205.0852 54.049119 
L 208.117262 54.606102 
L 210.846118 55.126608 
L 211.45253 55.213413 
L 214.484592 55.739266 
L 215.394211 55.913766 
L 218.123067 56.38104 
L 219.032685 56.54952 
L 221.458335 56.958479 
L 222.671159 57.198969 
L 225.400015 57.667026 
L 226.309634 57.833072 
L 229.038489 58.299691 
L 229.948108 58.474564 
L 232.373757 58.907178 
L 233.283376 59.074534 
L 233.586582 59.074534 
L 234.192995 59.219281 
L 237.225056 59.721751 
L 238.134675 59.893731 
L 240.863531 60.357074 
L 241.773149 60.51724 
L 244.502005 60.931283 
L 245.108417 61.07262 
L 248.140479 61.589599 
L 250.566129 62.00244 
L 251.778954 62.173635 
L 254.204603 62.564346 
L 255.114222 62.72719 
L 257.843077 63.173521 
L 258.752696 63.327141 
L 262.997583 63.955127 
L 267.242469 64.677067 
L 268.152088 64.787489 
L 273.003387 65.473342 
L 274.216212 65.659433 
L 276.641861 66.017151 
L 277.248274 66.143647 
L 282.099573 66.790079 
L 283.91881 67.083893 
L 286.647665 67.456754 
L 291.195758 68.038882 
L 291.802171 68.151538 
L 295.137439 68.609961 
L 298.472707 69.062648 
L 303.0208 69.634011 
L 306.96248 70.150775 
L 308.478511 70.375539 
L 309.38813 70.464691 
L 315.75546 71.299987 
L 320.606759 71.891261 
L 321.819583 72.052403 
L 328.186913 72.832282 
L 329.702944 73.035536 
L 330.612563 73.142071 
L 334.85745 73.662155 
L 336.37348 73.839167 
L 341.224779 74.364241 
L 345.469666 74.851092 
L 346.682491 74.945631 
L 351.230584 75.34672 
L 364.874862 76.075974 
L 377.912728 76.286316 
L 393.982656 76.023029 
L 407.930141 75.774713 
L 417.935945 75.84794 
L 432.186636 76.503068 
L 432.186636 76.503068 
" clip-path="url(#pb65a90cc61)" style="fill: none; stroke: #ff0000; stroke-width: 1.5; stroke-linecap: square"/>
   </g>
   <g id="patch_3">
    <path d="M 58.106 78.7975 
L 58.106 28.32 
" style="fill: none; stroke: #000000; stroke-width: 0.8; stroke-linejoin: miter; stroke-linecap: square"/>
   </g>
   <g id="patch_4">
    <path d="M 450 78.7975 
L 450 28.32 
" style="fill: none; stroke: #000000; stroke-width: 0.8; stroke-linejoin: miter; stroke-linecap: square"/>
   </g>
   <g id="patch_5">
    <path d="M 58.106 78.7975 
L 450 78.7975 
" style="fill: none; stroke: #000000; stroke-width: 0.8; stroke-linejoin: miter; stroke-linecap: square"/>
   </g>
   <g id="patch_6">
    <path d="M 58.106 28.32 
L 450 28.32 
" style="fill: none; stroke: #000000; stroke-width: 0.8; stroke-linejoin: miter; stroke-linecap: square"/>
   </g>
   <g id="text_12">
    <!-- Error in $x$-position -->
    <g transform="translate(200.413 22.32)scale(0.12 -0.12)">
     <defs>
      <path id="DejaVuSans-45" d="M 628 4666 
L 3578 4666 
L 3578 4134 
L 1259 4134 
L 1259 2753 
L 3481 2753 
L 3481 2222 
L 1259 2222 
L 1259 531 
L 3634 531 
L 3634 0 
L 628 0 
L 628 4666 
z
" transform="scale(0.015625)"/>
      <path id="DejaVuSans-72" d="M 2631 2963 
Q 2534 3019 2420 3045 
Q 2306 3072 2169 3072 
Q 1681 3072 1420 2755 
Q 1159 2438 1159 1844 
L 1159 0 
L 581 0 
L 581 3500 
L 1159 3500 
L 1159 2956 
Q 1341 3275 1631 3429 
Q 1922 3584 2338 3584 
Q 2397 3584 2469 3576 
Q 2541 3569 2628 3553 
L 2631 2963 
z
" transform="scale(0.015625)"/>
      <path id="DejaVuSans-6f" d="M 1959 3097 
Q 1497 3097 1228 2736 
Q 959 2375 959 1747 
Q 959 1119 1226 758 
Q 1494 397 1959 397 
Q 2419 397 2687 759 
Q 2956 1122 2956 1747 
Q 2956 2369 2687 2733 
Q 2419 3097 1959 3097 
z
M 1959 3584 
Q 2709 3584 3137 3096 
Q 3566 2609 3566 1747 
Q 3566 888 3137 398 
Q 2709 -91 1959 -91 
Q 1206 -91 779 398 
Q 353 888 353 1747 
Q 353 2609 779 3096 
Q 1206 3584 1959 3584 
z
" transform="scale(0.015625)"/>
      <path id="DejaVuSans-69" d="M 603 3500 
L 1178 3500 
L 1178 0 
L 603 0 
L 603 3500 
z
M 603 4863 
L 1178 4863 
L 1178 4134 
L 603 4134 
L 603 4863 
z
" transform="scale(0.015625)"/>
      <path id="DejaVuSans-6e" d="M 3513 2113 
L 3513 0 
L 2938 0 
L 2938 2094 
Q 2938 2591 2744 2837 
Q 2550 3084 2163 3084 
Q 1697 3084 1428 2787 
Q 1159 2491 1159 1978 
L 1159 0 
L 581 0 
L 581 3500 
L 1159 3500 
L 1159 2956 
Q 1366 3272 1645 3428 
Q 1925 3584 2291 3584 
Q 2894 3584 3203 3211 
Q 3513 2838 3513 2113 
z
" transform="scale(0.015625)"/>
      <path id="DejaVuSans-2d" d="M 313 2009 
L 1997 2009 
L 1997 1497 
L 313 1497 
L 313 2009 
z
" transform="scale(0.015625)"/>
      <path id="DejaVuSans-70" d="M 1159 525 
L 1159 -1331 
L 581 -1331 
L 581 3500 
L 1159 3500 
L 1159 2969 
Q 1341 3281 1617 3432 
Q 1894 3584 2278 3584 
Q 2916 3584 3314 3078 
Q 3713 2572 3713 1747 
Q 3713 922 3314 415 
Q 2916 -91 2278 -91 
Q 1894 -91 1617 61 
Q 1341 213 1159 525 
z
M 3116 1747 
Q 3116 2381 2855 2742 
Q 2594 3103 2138 3103 
Q 1681 3103 1420 2742 
Q 1159 2381 1159 1747 
Q 1159 1113 1420 752 
Q 1681 391 2138 391 
Q 2594 391 2855 752 
Q 3116 1113 3116 1747 
z
" transform="scale(0.015625)"/>
      <path id="DejaVuSans-74" d="M 1172 4494 
L 1172 3500 
L 2356 3500 
L 2356 3053 
L 1172 3053 
L 1172 1153 
Q 1172 725 1289 603 
Q 1406 481 1766 481 
L 2356 481 
L 2356 0 
L 1766 0 
Q 1100 0 847 248 
Q 594 497 594 1153 
L 594 3053 
L 172 3053 
L 172 3500 
L 594 3500 
L 594 4494 
L 1172 4494 
z
" transform="scale(0.015625)"/>
     </defs>
     <use xlink:href="#DejaVuSans-45" transform="translate(0 0.015625)"/>
     <use xlink:href="#DejaVuSans-72" transform="translate(63.183594 0.015625)"/>
     <use xlink:href="#DejaVuSans-72" transform="translate(104.296875 0.015625)"/>
     <use xlink:href="#DejaVuSans-6f" transform="translate(145.410156 0.015625)"/>
     <use xlink:href="#DejaVuSans-72" transform="translate(206.591797 0.015625)"/>
     <use xlink:href="#DejaVuSans-20" transform="translate(247.705078 0.015625)"/>
     <use xlink:href="#DejaVuSans-69" transform="translate(279.492188 0.015625)"/>
     <use xlink:href="#DejaVuSans-6e" transform="translate(307.275391 0.015625)"/>
     <use xlink:href="#DejaVuSans-20" transform="translate(370.654297 0.015625)"/>
     <use xlink:href="#DejaVuSans-Oblique-78" transform="translate(402.441406 0.015625)"/>
     <use xlink:href="#DejaVuSans-2d" transform="translate(461.621094 0.015625)"/>
     <use xlink:href="#DejaVuSans-70" transform="translate(497.705078 0.015625)"/>
     <use xlink:href="#DejaVuSans-6f" transform="translate(561.181641 0.015625)"/>
     <use xlink:href="#DejaVuSans-73" transform="translate(622.363281 0.015625)"/>
     <use xlink:href="#DejaVuSans-69" transform="translate(674.462891 0.015625)"/>
     <use xlink:href="#DejaVuSans-74" transform="translate(702.246094 0.015625)"/>
     <use xlink:href="#DejaVuSans-69" transform="translate(741.455078 0.015625)"/>
     <use xlink:href="#DejaVuSans-6f" transform="translate(769.238281 0.015625)"/>
     <use xlink:href="#DejaVuSans-6e" transform="translate(830.419922 0.015625)"/>
    </g>
   </g>
  </g>
  <g id="axes_2">
   <g id="patch_7">
    <path d="M 58.106 190.3975 
L 450 190.3975 
L 450 139.92 
L 58.106 139.92 
z
" style="fill: #ffffff"/>
   </g>
   <g id="matplotlib.axis_3">
    <g id="xtick_8">
     <g id="line2d_20">
      <path d="M 75.919364 190.3975 
L 75.919364 139.92 
" clip-path="url(#pe721922413)" style="fill: none; stroke: #b0b0b0; stroke-width: 0.8; stroke-linecap: square"/>
     </g>
     <g id="line2d_21">
      <g>
       <use xlink:href="#m1e6a791eea" x="75.919364" y="190.3975" style="stroke: #000000; stroke-width: 0.8"/>
      </g>
     </g>
     <g id="text_13">
      <!-- 0 -->
      <g transform="translate(72.738114 204.995937)scale(0.1 -0.1)">
       <use xlink:href="#DejaVuSans-30"/>
      </g>
     </g>
    </g>
    <g id="xtick_9">
     <g id="line2d_22">
      <path d="M 136.509036 190.3975 
L 136.509036 139.92 
" clip-path="url(#pe721922413)" style="fill: none; stroke: #b0b0b0; stroke-width: 0.8; stroke-linecap: square"/>
     </g>
     <g id="line2d_23">
      <g>
       <use xlink:href="#m1e6a791eea" x="136.509036" y="190.3975" style="stroke: #000000; stroke-width: 0.8"/>
      </g>
     </g>
     <g id="text_14">
      <!-- 2 -->
      <g transform="translate(133.327786 204.995937)scale(0.1 -0.1)">
       <use xlink:href="#DejaVuSans-32"/>
      </g>
     </g>
    </g>
    <g id="xtick_10">
     <g id="line2d_24">
      <path d="M 197.098708 190.3975 
L 197.098708 139.92 
" clip-path="url(#pe721922413)" style="fill: none; stroke: #b0b0b0; stroke-width: 0.8; stroke-linecap: square"/>
     </g>
     <g id="line2d_25">
      <g>
       <use xlink:href="#m1e6a791eea" x="197.098708" y="190.3975" style="stroke: #000000; stroke-width: 0.8"/>
      </g>
     </g>
     <g id="text_15">
      <!-- 4 -->
      <g transform="translate(193.917458 204.995937)scale(0.1 -0.1)">
       <use xlink:href="#DejaVuSans-34"/>
      </g>
     </g>
    </g>
    <g id="xtick_11">
     <g id="line2d_26">
      <path d="M 257.68838 190.3975 
L 257.68838 139.92 
" clip-path="url(#pe721922413)" style="fill: none; stroke: #b0b0b0; stroke-width: 0.8; stroke-linecap: square"/>
     </g>
     <g id="line2d_27">
      <g>
       <use xlink:href="#m1e6a791eea" x="257.68838" y="190.3975" style="stroke: #000000; stroke-width: 0.8"/>
      </g>
     </g>
     <g id="text_16">
      <!-- 6 -->
      <g transform="translate(254.50713 204.995937)scale(0.1 -0.1)">
       <use xlink:href="#DejaVuSans-36"/>
      </g>
     </g>
    </g>
    <g id="xtick_12">
     <g id="line2d_28">
      <path d="M 318.278053 190.3975 
L 318.278053 139.92 
" clip-path="url(#pe721922413)" style="fill: none; stroke: #b0b0b0; stroke-width: 0.8; stroke-linecap: square"/>
     </g>
     <g id="line2d_29">
      <g>
       <use xlink:href="#m1e6a791eea" x="318.278053" y="190.3975" style="stroke: #000000; stroke-width: 0.8"/>
      </g>
     </g>
     <g id="text_17">
      <!-- 8 -->
      <g transform="translate(315.096803 204.995937)scale(0.1 -0.1)">
       <use xlink:href="#DejaVuSans-38"/>
      </g>
     </g>
    </g>
    <g id="xtick_13">
     <g id="line2d_30">
      <path d="M 378.867725 190.3975 
L 378.867725 139.92 
" clip-path="url(#pe721922413)" style="fill: none; stroke: #b0b0b0; stroke-width: 0.8; stroke-linecap: square"/>
     </g>
     <g id="line2d_31">
      <g>
       <use xlink:href="#m1e6a791eea" x="378.867725" y="190.3975" style="stroke: #000000; stroke-width: 0.8"/>
      </g>
     </g>
     <g id="text_18">
      <!-- 10 -->
      <g transform="translate(372.505225 204.995937)scale(0.1 -0.1)">
       <use xlink:href="#DejaVuSans-31"/>
       <use xlink:href="#DejaVuSans-30" x="63.623047"/>
      </g>
     </g>
    </g>
    <g id="xtick_14">
     <g id="line2d_32">
      <path d="M 439.457397 190.3975 
L 439.457397 139.92 
" clip-path="url(#pe721922413)" style="fill: none; stroke: #b0b0b0; stroke-width: 0.8; stroke-linecap: square"/>
     </g>
     <g id="line2d_33">
      <g>
       <use xlink:href="#m1e6a791eea" x="439.457397" y="190.3975" style="stroke: #000000; stroke-width: 0.8"/>
      </g>
     </g>
     <g id="text_19">
      <!-- 12 -->
      <g transform="translate(433.094897 204.995937)scale(0.1 -0.1)">
       <use xlink:href="#DejaVuSans-31"/>
       <use xlink:href="#DejaVuSans-32" x="63.623047"/>
      </g>
     </g>
    </g>
    <g id="text_20">
     <!-- $t$ [s] -->
     <g transform="translate(243.953 218.674062)scale(0.1 -0.1)">
      <use xlink:href="#DejaVuSans-Oblique-74" transform="translate(0 0.015625)"/>
      <use xlink:href="#DejaVuSans-20" transform="translate(39.208984 0.015625)"/>
      <use xlink:href="#DejaVuSans-5b" transform="translate(70.996094 0.015625)"/>
      <use xlink:href="#DejaVuSans-73" transform="translate(110.009766 0.015625)"/>
      <use xlink:href="#DejaVuSans-5d" transform="translate(162.109375 0.015625)"/>
     </g>
    </g>
   </g>
   <g id="matplotlib.axis_4">
    <g id="ytick_3">
     <g id="line2d_34">
      <path d="M 58.106 180.862516 
L 450 180.862516 
" clip-path="url(#pe721922413)" style="fill: none; stroke: #b0b0b0; stroke-width: 0.8; stroke-linecap: square"/>
     </g>
     <g id="line2d_35">
      <g>
       <use xlink:href="#m756a59a9dd" x="58.106" y="180.862516" style="stroke: #000000; stroke-width: 0.8"/>
      </g>
     </g>
     <g id="text_21">
      <!-- −0.1 -->
      <g transform="translate(26.823188 184.661735)scale(0.1 -0.1)">
       <defs>
        <path id="DejaVuSans-2212" d="M 678 2272 
L 4684 2272 
L 4684 1741 
L 678 1741 
L 678 2272 
z
" transform="scale(0.015625)"/>
        <path id="DejaVuSans-2e" d="M 684 794 
L 1344 794 
L 1344 0 
L 684 0 
L 684 794 
z
" transform="scale(0.015625)"/>
       </defs>
       <use xlink:href="#DejaVuSans-2212"/>
       <use xlink:href="#DejaVuSans-30" x="83.789062"/>
       <use xlink:href="#DejaVuSans-2e" x="147.412109"/>
       <use xlink:href="#DejaVuSans-31" x="179.199219"/>
      </g>
     </g>
    </g>
    <g id="ytick_4">
     <g id="line2d_36">
      <path d="M 58.106 164.916184 
L 450 164.916184 
" clip-path="url(#pe721922413)" style="fill: none; stroke: #b0b0b0; stroke-width: 0.8; stroke-linecap: square"/>
     </g>
     <g id="line2d_37">
      <g>
       <use xlink:href="#m756a59a9dd" x="58.106" y="164.916184" style="stroke: #000000; stroke-width: 0.8"/>
      </g>
     </g>
     <g id="text_22">
      <!-- 0.0 -->
      <g transform="translate(35.202875 168.715403)scale(0.1 -0.1)">
       <use xlink:href="#DejaVuSans-30"/>
       <use xlink:href="#DejaVuSans-2e" x="63.623047"/>
       <use xlink:href="#DejaVuSans-30" x="95.410156"/>
      </g>
     </g>
    </g>
    <g id="ytick_5">
     <g id="line2d_38">
      <path d="M 58.106 148.969852 
L 450 148.969852 
" clip-path="url(#pe721922413)" style="fill: none; stroke: #b0b0b0; stroke-width: 0.8; stroke-linecap: square"/>
     </g>
     <g id="line2d_39">
      <g>
       <use xlink:href="#m756a59a9dd" x="58.106" y="148.969852" style="stroke: #000000; stroke-width: 0.8"/>
      </g>
     </g>
     <g id="text_23">
      <!-- 0.1 -->
      <g transform="translate(35.202875 152.769071)scale(0.1 -0.1)">
       <use xlink:href="#DejaVuSans-30"/>
       <use xlink:href="#DejaVuSans-2e" x="63.623047"/>
       <use xlink:href="#DejaVuSans-31" x="95.410156"/>
      </g>
     </g>
    </g>
    <g id="text_24">
     <!-- $e_z$ [m] -->
     <g transform="translate(20.7435 180.60875)rotate(-90)scale(0.1 -0.1)">
      <defs>
       <path id="DejaVuSans-Oblique-7a" d="M 744 3500 
L 3475 3500 
L 3372 2975 
L 738 459 
L 2913 459 
L 2822 0 
L -19 0 
L 84 525 
L 2719 3041 
L 653 3041 
L 744 3500 
z
" transform="scale(0.015625)"/>
      </defs>
      <use xlink:href="#DejaVuSans-Oblique-65" transform="translate(0 0.015625)"/>
      <use xlink:href="#DejaVuSans-Oblique-7a" transform="translate(61.523438 -16.390625)scale(0.7)"/>
      <use xlink:href="#DejaVuSans-20" transform="translate(101.000977 0.015625)"/>
      <use xlink:href="#DejaVuSans-5b" transform="translate(132.788086 0.015625)"/>
      <use xlink:href="#DejaVuSans-6d" transform="translate(171.801758 0.015625)"/>
      <use xlink:href="#DejaVuSans-5d" transform="translate(269.213867 0.015625)"/>
     </g>
    </g>
   </g>
   <g id="line2d_40">
    <path d="M 75.919364 166.435165 
L 76.828982 166.177646 
L 77.738601 165.898427 
L 78.951426 165.734765 
L 81.377075 165.927153 
L 82.286694 165.728153 
L 83.499518 164.965196 
L 83.802725 164.783434 
L 84.712343 163.767334 
L 85.318756 163.448608 
L 85.621962 163.23501 
L 85.925168 162.795078 
L 86.228374 162.795078 
L 86.53158 162.075792 
L 86.834786 161.947046 
L 87.441199 161.395203 
L 87.744405 160.772154 
L 88.047611 160.432271 
L 88.654024 159.325434 
L 88.95723 159.134185 
L 89.260436 158.74906 
L 89.866848 157.40706 
L 90.170055 156.868241 
L 90.473261 156.698722 
L 91.989292 155.17268 
L 92.595704 154.974073 
L 93.808529 154.808103 
L 95.32456 154.872362 
L 98.053415 155.264427 
L 98.963034 155.198582 
L 100.175859 154.807945 
L 101.69189 153.138301 
L 101.995096 153.138301 
L 102.298302 152.523988 
L 103.207921 151.426168 
L 103.511127 150.86896 
L 104.420745 150.217056 
L 105.63357 149.675157 
L 107.756014 149.340999 
L 108.665632 149.08775 
L 108.968838 148.808149 
L 109.272044 148.808149 
L 109.878457 148.395498 
L 111.091282 147.665625 
L 111.394488 147.337094 
L 112.607313 146.627786 
L 113.213725 146.174776 
L 114.123344 145.703866 
L 114.42655 145.258117 
L 114.729756 145.258117 
L 115.032962 144.848812 
L 115.942581 144.157218 
L 116.852199 143.080515 
L 118.065024 142.3753 
L 118.671436 142.214432 
L 119.581055 142.326707 
L 119.884261 142.480805 
L 120.490674 142.9713 
L 121.400292 143.688075 
L 121.703498 144.121342 
L 122.006704 144.762143 
L 123.219529 146.191056 
L 124.432354 148.217569 
L 125.038766 148.902028 
L 125.341973 149.692288 
L 125.645179 149.692288 
L 125.948385 150.258292 
L 127.16121 151.359366 
L 127.464416 151.359366 
L 127.767622 151.818742 
L 128.980447 152.178904 
L 131.10289 152.88503 
L 131.406096 153.348133 
L 132.012509 153.643967 
L 132.315715 153.862514 
L 132.618921 154.340696 
L 133.225333 154.976349 
L 133.52854 155.353155 
L 134.134952 155.711989 
L 134.438158 156.143379 
L 134.741364 156.143379 
L 135.044571 156.655937 
L 135.954189 156.947775 
L 136.257395 157.104439 
L 136.560602 157.104439 
L 136.863808 157.275912 
L 137.773426 157.431233 
L 139.592663 158.432129 
L 139.89587 158.850795 
L 140.502282 159.428346 
L 140.805488 159.790757 
L 141.108694 159.912828 
L 141.411901 160.157089 
L 141.715107 160.639474 
L 142.018313 160.639474 
L 142.321519 161.331858 
L 142.927932 161.661198 
L 143.231138 161.876405 
L 143.534344 162.304675 
L 144.140756 162.857298 
L 144.443962 163.21087 
L 144.747169 163.333594 
L 145.050375 163.587438 
L 145.353581 164.132992 
L 145.656787 164.132992 
L 145.959993 165.059104 
L 146.2632 165.226463 
L 146.869612 165.931246 
L 147.172818 166.684357 
L 147.476024 166.684357 
L 147.779231 167.864378 
L 148.082437 168.062674 
L 149.295262 169.800401 
L 149.598468 170.516952 
L 150.508086 171.50238 
L 150.811292 172.100882 
L 151.114499 172.100882 
L 151.417705 172.936905 
L 151.720911 173.07099 
L 152.933736 174.259447 
L 153.236942 174.803776 
L 154.146561 175.65564 
L 154.449767 176.243632 
L 154.752973 176.243632 
L 155.056179 177.138326 
L 155.359385 177.286087 
L 155.965798 177.865235 
L 156.269004 178.418207 
L 156.57221 178.418207 
L 156.875416 179.173221 
L 157.481829 179.508577 
L 157.785035 179.715276 
L 158.088241 180.086475 
L 159.604272 180.777378 
L 160.210684 180.933056 
L 163.242746 181.214797 
L 163.849159 181.539491 
L 164.455571 181.865774 
L 164.758777 182.109548 
L 165.061983 182.109548 
L 165.36519 182.302482 
L 165.668396 182.302482 
L 165.971602 182.448356 
L 166.881221 182.420954 
L 168.094045 182.048233 
L 169.30687 181.870178 
L 170.216489 182.003131 
L 170.519695 182.093201 
L 171.126107 182.453462 
L 171.73252 182.769179 
L 172.035726 182.973287 
L 172.338932 182.973287 
L 172.945344 183.137323 
L 173.854963 183.071355 
L 174.764581 182.770679 
L 176.887025 182.292239 
L 177.796643 182.375405 
L 179.312674 183.241929 
L 179.61588 183.241929 
L 180.222293 183.544927 
L 181.131911 183.688057 
L 182.647942 183.487548 
L 184.770386 183.063033 
L 185.680004 183.150163 
L 186.286417 183.332763 
L 188.105654 184.651389 
L 188.40886 184.974224 
L 188.712066 184.974224 
L 189.015272 185.244288 
L 190.228097 185.630497 
L 194.472984 186.340823 
L 196.595427 187.256221 
L 197.201839 187.45208 
L 198.111458 187.539524 
L 199.021077 187.467732 
L 201.749932 187.042494 
L 205.994819 186.802316 
L 207.814056 186.383832 
L 209.026881 186.351361 
L 209.936499 186.444992 
L 211.149324 186.586606 
L 212.058943 186.592283 
L 213.574974 186.3095 
L 215.091005 186.050046 
L 216.000623 186.13422 
L 219.335891 187.085047 
L 220.24551 187.075129 
L 221.155128 186.912215 
L 222.974366 186.648425 
L 223.883984 186.742574 
L 224.18719 186.9246 
L 225.096809 187.099732 
L 226.309634 187.413075 
L 227.522458 187.417428 
L 230.857726 187.235339 
L 232.676964 187.88798 
L 232.98017 187.88798 
L 233.283376 188.019878 
L 235.405819 187.925968 
L 235.709026 187.66996 
L 236.618644 187.446081 
L 237.225056 187.217857 
L 237.831469 186.974699 
L 239.044294 186.834934 
L 240.560325 187.078838 
L 241.773149 187.388993 
L 242.682768 187.405051 
L 243.895593 187.061806 
L 244.198799 186.845905 
L 244.502005 186.845905 
L 244.805211 186.507961 
L 245.71483 186.228122 
L 246.321242 185.928993 
L 246.927655 185.738568 
L 248.443685 185.754386 
L 250.262923 186.07032 
L 251.172541 186.071871 
L 252.385366 185.745086 
L 252.688572 185.545978 
L 252.991778 185.545978 
L 253.598191 185.214723 
L 254.204603 184.908879 
L 254.507809 184.647728 
L 254.811015 184.647728 
L 255.417428 184.294354 
L 256.933459 183.936785 
L 259.965521 183.759616 
L 261.481552 183.387067 
L 261.784758 183.213957 
L 262.087964 183.213957 
L 262.694376 182.976811 
L 263.300789 182.788935 
L 263.603995 182.619894 
L 263.907201 182.619894 
L 264.513614 182.361547 
L 266.636057 181.904829 
L 267.848882 181.8482 
L 269.971325 181.759259 
L 270.880944 181.578908 
L 271.487356 181.343333 
L 273.003387 180.881488 
L 273.609799 180.582838 
L 275.429036 180.034875 
L 276.641861 180.021078 
L 277.248274 180.130623 
L 279.370717 180.328361 
L 280.280335 180.183464 
L 281.189954 179.819353 
L 282.099573 179.439237 
L 282.705985 179.145439 
L 283.615603 178.759938 
L 284.222016 178.516598 
L 285.738047 178.40821 
L 289.073315 179.045763 
L 289.982933 178.948199 
L 291.195758 178.665167 
L 291.498964 178.449898 
L 292.711789 178.236825 
L 294.834232 178.007405 
L 307.568892 177.962442 
L 317.271491 178.254539 
L 319.69714 178.316393 
L 321.213171 178.571597 
L 324.548439 179.078129 
L 327.277295 179.089472 
L 328.186913 179.298187 
L 328.793326 179.54463 
L 330.00615 179.912527 
L 330.309357 180.159426 
L 333.341419 180.420831 
L 336.070274 180.474802 
L 336.979893 180.580937 
L 338.192718 180.873858 
L 340.618367 181.445005 
L 341.831192 181.326374 
L 343.347223 181.180398 
L 344.863254 181.68626 
L 345.469666 182.140514 
L 345.772872 182.140514 
L 346.076079 182.509372 
L 346.985697 183.173148 
L 347.288903 183.489687 
L 347.592109 183.489687 
L 347.895316 183.724066 
L 348.804934 183.903278 
L 350.017759 183.682578 
L 350.927378 183.332685 
L 351.53379 183.065987 
L 352.746615 182.892917 
L 354.262646 182.974253 
L 354.869058 182.986136 
L 356.081883 182.668936 
L 356.991501 181.808657 
L 357.597914 181.470262 
L 357.90112 181.239039 
L 358.204326 180.794596 
L 358.810738 180.29255 
L 359.113945 180.031575 
L 359.720357 179.815143 
L 360.023563 179.610643 
L 360.326769 179.610643 
L 360.629976 179.480217 
L 363.055625 179.376576 
L 363.662038 179.191014 
L 363.965244 178.990064 
L 364.571656 178.455562 
L 365.481275 177.743142 
L 365.784481 177.380776 
L 367.300512 176.648246 
L 367.906924 176.542915 
L 369.119749 176.327148 
L 369.726161 175.939091 
L 370.63578 175.378034 
L 370.938986 175.146121 
L 371.848605 174.072133 
L 373.061429 173.365149 
L 373.971048 173.379002 
L 374.57746 173.544866 
L 375.790285 174.183338 
L 376.699904 174.332405 
L 377.609522 174.104949 
L 377.912728 173.976163 
L 378.215935 173.524714 
L 378.519141 173.524714 
L 378.822347 173.044658 
L 380.035172 171.846389 
L 380.338378 171.38085 
L 381.854409 170.405862 
L 383.37044 170.478439 
L 384.583265 170.920459 
L 385.492883 170.929682 
L 387.008914 170.121361 
L 388.221739 168.823411 
L 389.73777 167.850821 
L 390.647388 167.836622 
L 391.557007 168.077152 
L 392.466626 168.219642 
L 393.376244 168.03189 
L 393.982656 167.766837 
L 394.285863 167.496488 
L 394.589069 167.061573 
L 395.801894 166.222535 
L 397.014718 165.598225 
L 397.924337 165.634995 
L 400.349986 166.569183 
L 401.259605 166.40942 
L 401.866017 166.065817 
L 402.47243 165.445829 
L 403.988461 164.43471 
L 404.594873 164.192499 
L 405.504492 164.18392 
L 406.110904 164.491243 
L 407.930141 165.199948 
L 408.83976 165.117678 
L 409.142966 164.848169 
L 409.446172 164.848169 
L 410.052585 164.301508 
L 410.658997 163.872951 
L 410.962203 163.350309 
L 411.265409 163.350309 
L 411.568615 162.96086 
L 412.78144 162.309718 
L 413.387853 162.204203 
L 414.297471 162.162992 
L 414.903884 162.239903 
L 415.20709 162.514863 
L 415.813502 162.694067 
L 417.026327 163.161428 
L 417.935945 163.110643 
L 419.451976 162.183715 
L 419.755183 161.960396 
L 420.058389 161.527708 
L 421.271214 160.850597 
L 422.484038 160.908365 
L 424.606482 161.768117 
L 425.5161 161.699859 
L 426.122513 161.452932 
L 426.728925 160.958993 
L 427.032131 160.958993 
L 427.335337 160.575794 
L 428.851368 159.65472 
L 429.760987 159.6141 
L 430.367399 159.818712 
L 430.973812 160.294778 
L 431.88343 160.909319 
L 432.186636 161.222422 
L 432.186636 161.222422 
" clip-path="url(#pe721922413)" style="fill: none; stroke: #0000ff; stroke-width: 1.5; stroke-linecap: square"/>
   </g>
   <g id="patch_8">
    <path d="M 58.106 190.3975 
L 58.106 139.92 
" style="fill: none; stroke: #000000; stroke-width: 0.8; stroke-linejoin: miter; stroke-linecap: square"/>
   </g>
   <g id="patch_9">
    <path d="M 450 190.3975 
L 450 139.92 
" style="fill: none; stroke: #000000; stroke-width: 0.8; stroke-linejoin: miter; stroke-linecap: square"/>
   </g>
   <g id="patch_10">
    <path d="M 58.106 190.3975 
L 450 190.3975 
" style="fill: none; stroke: #000000; stroke-width: 0.8; stroke-linejoin: miter; stroke-linecap: square"/>
   </g>
   <g id="patch_11">
    <path d="M 58.106 139.92 
L 450 139.92 
" style="fill: none; stroke: #000000; stroke-width: 0.8; stroke-linejoin: miter; stroke-linecap: square"/>
   </g>
   <g id="text_25">
    <!-- Error in $z$-position -->
    <g transform="translate(200.773 133.92)scale(0.12 -0.12)">
     <use xlink:href="#DejaVuSans-45" transform="translate(0 0.015625)"/>
     <use xlink:href="#DejaVuSans-72" transform="translate(63.183594 0.015625)"/>
     <use xlink:href="#DejaVuSans-72" transform="translate(104.296875 0.015625)"/>
     <use xlink:href="#DejaVuSans-6f" transform="translate(145.410156 0.015625)"/>
     <use xlink:href="#DejaVuSans-72" transform="translate(206.591797 0.015625)"/>
     <use xlink:href="#DejaVuSans-20" transform="translate(247.705078 0.015625)"/>
     <use xlink:href="#DejaVuSans-69" transform="translate(279.492188 0.015625)"/>
     <use xlink:href="#DejaVuSans-6e" transform="translate(307.275391 0.015625)"/>
     <use xlink:href="#DejaVuSans-20" transform="translate(370.654297 0.015625)"/>
     <use xlink:href="#DejaVuSans-Oblique-7a" transform="translate(402.441406 0.015625)"/>
     <use xlink:href="#DejaVuSans-2d" transform="translate(454.931641 0.015625)"/>
     <use xlink:href="#DejaVuSans-70" transform="translate(491.015625 0.015625)"/>
     <use xlink:href="#DejaVuSans-6f" transform="translate(554.492188 0.015625)"/>
     <use xlink:href="#DejaVuSans-73" transform="translate(615.673828 0.015625)"/>
     <use xlink:href="#DejaVuSans-69" transform="translate(667.773438 0.015625)"/>
     <use xlink:href="#DejaVuSans-74" transform="translate(695.556641 0.015625)"/>
     <use xlink:href="#DejaVuSans-69" transform="translate(734.765625 0.015625)"/>
     <use xlink:href="#DejaVuSans-6f" transform="translate(762.548828 0.015625)"/>
     <use xlink:href="#DejaVuSans-6e" transform="translate(823.730469 0.015625)"/>
    </g>
   </g>
  </g>
  <g id="axes_3">
   <g id="patch_12">
    <path d="M 58.106 301.9975 
L 450 301.9975 
L 450 251.52 
L 58.106 251.52 
z
" style="fill: #ffffff"/>
   </g>
   <g id="matplotlib.axis_5">
    <g id="xtick_15">
     <g id="line2d_41">
      <path d="M 75.919364 301.9975 
L 75.919364 251.52 
" clip-path="url(#pc738eb6f10)" style="fill: none; stroke: #b0b0b0; stroke-width: 0.8; stroke-linecap: square"/>
     </g>
     <g id="line2d_42">
      <g>
       <use xlink:href="#m1e6a791eea" x="75.919364" y="301.9975" style="stroke: #000000; stroke-width: 0.8"/>
      </g>
     </g>
     <g id="text_26">
      <!-- 0 -->
      <g transform="translate(72.738114 316.595937)scale(0.1 -0.1)">
       <use xlink:href="#DejaVuSans-30"/>
      </g>
     </g>
    </g>
    <g id="xtick_16">
     <g id="line2d_43">
      <path d="M 136.509036 301.9975 
L 136.509036 251.52 
" clip-path="url(#pc738eb6f10)" style="fill: none; stroke: #b0b0b0; stroke-width: 0.8; stroke-linecap: square"/>
     </g>
     <g id="line2d_44">
      <g>
       <use xlink:href="#m1e6a791eea" x="136.509036" y="301.9975" style="stroke: #000000; stroke-width: 0.8"/>
      </g>
     </g>
     <g id="text_27">
      <!-- 2 -->
      <g transform="translate(133.327786 316.595937)scale(0.1 -0.1)">
       <use xlink:href="#DejaVuSans-32"/>
      </g>
     </g>
    </g>
    <g id="xtick_17">
     <g id="line2d_45">
      <path d="M 197.098708 301.9975 
L 197.098708 251.52 
" clip-path="url(#pc738eb6f10)" style="fill: none; stroke: #b0b0b0; stroke-width: 0.8; stroke-linecap: square"/>
     </g>
     <g id="line2d_46">
      <g>
       <use xlink:href="#m1e6a791eea" x="197.098708" y="301.9975" style="stroke: #000000; stroke-width: 0.8"/>
      </g>
     </g>
     <g id="text_28">
      <!-- 4 -->
      <g transform="translate(193.917458 316.595937)scale(0.1 -0.1)">
       <use xlink:href="#DejaVuSans-34"/>
      </g>
     </g>
    </g>
    <g id="xtick_18">
     <g id="line2d_47">
      <path d="M 257.68838 301.9975 
L 257.68838 251.52 
" clip-path="url(#pc738eb6f10)" style="fill: none; stroke: #b0b0b0; stroke-width: 0.8; stroke-linecap: square"/>
     </g>
     <g id="line2d_48">
      <g>
       <use xlink:href="#m1e6a791eea" x="257.68838" y="301.9975" style="stroke: #000000; stroke-width: 0.8"/>
      </g>
     </g>
     <g id="text_29">
      <!-- 6 -->
      <g transform="translate(254.50713 316.595937)scale(0.1 -0.1)">
       <use xlink:href="#DejaVuSans-36"/>
      </g>
     </g>
    </g>
    <g id="xtick_19">
     <g id="line2d_49">
      <path d="M 318.278053 301.9975 
L 318.278053 251.52 
" clip-path="url(#pc738eb6f10)" style="fill: none; stroke: #b0b0b0; stroke-width: 0.8; stroke-linecap: square"/>
     </g>
     <g id="line2d_50">
      <g>
       <use xlink:href="#m1e6a791eea" x="318.278053" y="301.9975" style="stroke: #000000; stroke-width: 0.8"/>
      </g>
     </g>
     <g id="text_30">
      <!-- 8 -->
      <g transform="translate(315.096803 316.595937)scale(0.1 -0.1)">
       <use xlink:href="#DejaVuSans-38"/>
      </g>
     </g>
    </g>
    <g id="xtick_20">
     <g id="line2d_51">
      <path d="M 378.867725 301.9975 
L 378.867725 251.52 
" clip-path="url(#pc738eb6f10)" style="fill: none; stroke: #b0b0b0; stroke-width: 0.8; stroke-linecap: square"/>
     </g>
     <g id="line2d_52">
      <g>
       <use xlink:href="#m1e6a791eea" x="378.867725" y="301.9975" style="stroke: #000000; stroke-width: 0.8"/>
      </g>
     </g>
     <g id="text_31">
      <!-- 10 -->
      <g transform="translate(372.505225 316.595937)scale(0.1 -0.1)">
       <use xlink:href="#DejaVuSans-31"/>
       <use xlink:href="#DejaVuSans-30" x="63.623047"/>
      </g>
     </g>
    </g>
    <g id="xtick_21">
     <g id="line2d_53">
      <path d="M 439.457397 301.9975 
L 439.457397 251.52 
" clip-path="url(#pc738eb6f10)" style="fill: none; stroke: #b0b0b0; stroke-width: 0.8; stroke-linecap: square"/>
     </g>
     <g id="line2d_54">
      <g>
       <use xlink:href="#m1e6a791eea" x="439.457397" y="301.9975" style="stroke: #000000; stroke-width: 0.8"/>
      </g>
     </g>
     <g id="text_32">
      <!-- 12 -->
      <g transform="translate(433.094897 316.595937)scale(0.1 -0.1)">
       <use xlink:href="#DejaVuSans-31"/>
       <use xlink:href="#DejaVuSans-32" x="63.623047"/>
      </g>
     </g>
    </g>
    <g id="text_33">
     <!-- $t$ [s] -->
     <g transform="translate(243.953 330.274063)scale(0.1 -0.1)">
      <use xlink:href="#DejaVuSans-Oblique-74" transform="translate(0 0.015625)"/>
      <use xlink:href="#DejaVuSans-20" transform="translate(39.208984 0.015625)"/>
      <use xlink:href="#DejaVuSans-5b" transform="translate(70.996094 0.015625)"/>
      <use xlink:href="#DejaVuSans-73" transform="translate(110.009766 0.015625)"/>
      <use xlink:href="#DejaVuSans-5d" transform="translate(162.109375 0.015625)"/>
     </g>
    </g>
   </g>
   <g id="matplotlib.axis_6">
    <g id="ytick_6">
     <g id="line2d_55">
      <path d="M 58.106 290.021729 
L 450 290.021729 
" clip-path="url(#pc738eb6f10)" style="fill: none; stroke: #b0b0b0; stroke-width: 0.8; stroke-linecap: square"/>
     </g>
     <g id="line2d_56">
      <g>
       <use xlink:href="#m756a59a9dd" x="58.106" y="290.021729" style="stroke: #000000; stroke-width: 0.8"/>
      </g>
     </g>
     <g id="text_34">
      <!-- −0.1 -->
      <g transform="translate(26.823188 293.820947)scale(0.1 -0.1)">
       <use xlink:href="#DejaVuSans-2212"/>
       <use xlink:href="#DejaVuSans-30" x="83.789062"/>
       <use xlink:href="#DejaVuSans-2e" x="147.412109"/>
       <use xlink:href="#DejaVuSans-31" x="179.199219"/>
      </g>
     </g>
    </g>
    <g id="ytick_7">
     <g id="line2d_57">
      <path d="M 58.106 276.15664 
L 450 276.15664 
" clip-path="url(#pc738eb6f10)" style="fill: none; stroke: #b0b0b0; stroke-width: 0.8; stroke-linecap: square"/>
     </g>
     <g id="line2d_58">
      <g>
       <use xlink:href="#m756a59a9dd" x="58.106" y="276.15664" style="stroke: #000000; stroke-width: 0.8"/>
      </g>
     </g>
     <g id="text_35">
      <!-- 0.0 -->
      <g transform="translate(35.202875 279.955859)scale(0.1 -0.1)">
       <use xlink:href="#DejaVuSans-30"/>
       <use xlink:href="#DejaVuSans-2e" x="63.623047"/>
       <use xlink:href="#DejaVuSans-30" x="95.410156"/>
      </g>
     </g>
    </g>
    <g id="ytick_8">
     <g id="line2d_59">
      <path d="M 58.106 262.291552 
L 450 262.291552 
" clip-path="url(#pc738eb6f10)" style="fill: none; stroke: #b0b0b0; stroke-width: 0.8; stroke-linecap: square"/>
     </g>
     <g id="line2d_60">
      <g>
       <use xlink:href="#m756a59a9dd" x="58.106" y="262.291552" style="stroke: #000000; stroke-width: 0.8"/>
      </g>
     </g>
     <g id="text_36">
      <!-- 0.1 -->
      <g transform="translate(35.202875 266.090771)scale(0.1 -0.1)">
       <use xlink:href="#DejaVuSans-30"/>
       <use xlink:href="#DejaVuSans-2e" x="63.623047"/>
       <use xlink:href="#DejaVuSans-31" x="95.410156"/>
      </g>
     </g>
    </g>
    <g id="text_37">
     <!-- $e_\theta$ [rad] -->
     <g transform="translate(20.7435 295.90875)rotate(-90)scale(0.1 -0.1)">
      <defs>
       <path id="DejaVuSans-Oblique-3b8" d="M 2913 2219 
L 925 2219 
Q 791 1284 928 888 
Q 1100 400 1566 400 
Q 2034 400 2391 891 
Q 2703 1322 2913 2219 
z
M 3009 2750 
Q 3094 3638 2984 3950 
Q 2813 4444 2353 4444 
Q 1875 4444 1525 3956 
Q 1250 3563 1034 2750 
L 3009 2750 
z
M 2444 4913 
Q 3194 4913 3494 4250 
Q 3794 3591 3566 2422 
Q 3341 1256 2781 594 
Q 2225 -72 1475 -72 
Q 722 -72 425 594 
Q 128 1256 353 2422 
Q 581 3591 1134 4250 
Q 1691 4913 2444 4913 
z
" transform="scale(0.015625)"/>
       <path id="DejaVuSans-61" d="M 2194 1759 
Q 1497 1759 1228 1600 
Q 959 1441 959 1056 
Q 959 750 1161 570 
Q 1363 391 1709 391 
Q 2188 391 2477 730 
Q 2766 1069 2766 1631 
L 2766 1759 
L 2194 1759 
z
M 3341 1997 
L 3341 0 
L 2766 0 
L 2766 531 
Q 2569 213 2275 61 
Q 1981 -91 1556 -91 
Q 1019 -91 701 211 
Q 384 513 384 1019 
Q 384 1609 779 1909 
Q 1175 2209 1959 2209 
L 2766 2209 
L 2766 2266 
Q 2766 2663 2505 2880 
Q 2244 3097 1772 3097 
Q 1472 3097 1187 3025 
Q 903 2953 641 2809 
L 641 3341 
Q 956 3463 1253 3523 
Q 1550 3584 1831 3584 
Q 2591 3584 2966 3190 
Q 3341 2797 3341 1997 
z
" transform="scale(0.015625)"/>
       <path id="DejaVuSans-64" d="M 2906 2969 
L 2906 4863 
L 3481 4863 
L 3481 0 
L 2906 0 
L 2906 525 
Q 2725 213 2448 61 
Q 2172 -91 1784 -91 
Q 1150 -91 751 415 
Q 353 922 353 1747 
Q 353 2572 751 3078 
Q 1150 3584 1784 3584 
Q 2172 3584 2448 3432 
Q 2725 3281 2906 2969 
z
M 947 1747 
Q 947 1113 1208 752 
Q 1469 391 1925 391 
Q 2381 391 2643 752 
Q 2906 1113 2906 1747 
Q 2906 2381 2643 2742 
Q 2381 3103 1925 3103 
Q 1469 3103 1208 2742 
Q 947 2381 947 1747 
z
" transform="scale(0.015625)"/>
      </defs>
      <use xlink:href="#DejaVuSans-Oblique-65" transform="translate(0 0.015625)"/>
      <use xlink:href="#DejaVuSans-Oblique-3b8" transform="translate(61.523438 -16.390625)scale(0.7)"/>
      <use xlink:href="#DejaVuSans-20" transform="translate(107.084961 0.015625)"/>
      <use xlink:href="#DejaVuSans-5b" transform="translate(138.87207 0.015625)"/>
      <use xlink:href="#DejaVuSans-72" transform="translate(177.885742 0.015625)"/>
      <use xlink:href="#DejaVuSans-61" transform="translate(218.999023 0.015625)"/>
      <use xlink:href="#DejaVuSans-64" transform="translate(280.27832 0.015625)"/>
      <use xlink:href="#DejaVuSans-5d" transform="translate(343.754883 0.015625)"/>
     </g>
    </g>
   </g>
   <g id="line2d_61">
    <path d="M 75.919364 275.995836 
L 76.22257 275.63039 
L 76.525776 274.998349 
L 77.738601 267.077773 
L 79.254632 257.96426 
L 79.861044 256.800484 
L 80.16425 256.563654 
L 80.467456 257.079262 
L 80.770663 257.079262 
L 81.377075 259.731987 
L 82.286694 263.847315 
L 82.5899 266.177573 
L 82.893106 269.438595 
L 83.802725 274.665882 
L 84.409137 281.131819 
L 84.712343 283.893517 
L 85.015549 284.789171 
L 85.621962 288.156229 
L 85.925168 291.114181 
L 86.228374 291.114181 
L 86.53158 294.407238 
L 86.834786 294.775015 
L 87.441199 295.742443 
L 87.744405 296.071335 
L 88.047611 296.033834 
L 88.350817 295.683802 
L 88.654024 294.839807 
L 88.95723 294.426905 
L 89.260436 293.392635 
L 90.170055 284.747624 
L 90.473261 283.700785 
L 91.079673 279.487638 
L 91.382879 275.438907 
L 91.686085 273.532422 
L 92.292498 268.357392 
L 92.595704 267.583628 
L 92.89891 266.13852 
L 93.202116 263.292851 
L 93.505323 263.292851 
L 93.808529 261.959 
L 94.111735 261.60538 
L 94.414941 261.434015 
L 94.718147 261.445517 
L 95.021354 262.253383 
L 95.32456 262.253383 
L 95.930972 264.399435 
L 96.840591 267.276616 
L 97.143797 268.840921 
L 97.447003 270.996089 
L 98.356622 274.329004 
L 98.963034 278.324919 
L 99.26624 279.963121 
L 99.569446 280.490487 
L 100.175859 282.451477 
L 100.479065 284.101586 
L 101.388684 286.147289 
L 101.69189 286.33427 
L 101.995096 286.33427 
L 102.601508 285.559894 
L 102.904715 284.938086 
L 103.207921 283.680536 
L 103.511127 281.537274 
L 105.027158 275.346639 
L 105.63357 271.573889 
L 106.239983 270.138313 
L 106.543189 269.732493 
L 106.846395 269.564182 
L 107.149601 270.228053 
L 107.452807 270.228053 
L 108.05922 272.889779 
L 108.665632 275.393036 
L 108.968838 278.782537 
L 109.272044 278.782537 
L 109.575251 281.404227 
L 110.484869 284.857091 
L 111.394488 287.208212 
L 111.697694 287.103067 
L 112.0009 286.754218 
L 112.304106 286.161614 
L 112.607313 284.837184 
L 112.910519 282.363637 
L 114.123344 275.931278 
L 114.42655 271.680798 
L 114.729756 271.680798 
L 115.032962 268.495494 
L 116.852199 259.929405 
L 118.065024 256.669912 
L 118.36823 255.452674 
L 118.974643 254.511863 
L 119.581055 253.947509 
L 119.884261 253.814432 
L 120.490674 254.376449 
L 121.097086 255.303841 
L 121.400292 255.910445 
L 121.703498 256.992444 
L 122.006704 258.763769 
L 122.916323 262.138303 
L 123.219529 263.456588 
L 123.522735 265.599625 
L 123.825942 268.722371 
L 125.038766 275.397232 
L 125.341973 279.206781 
L 125.645179 279.206781 
L 125.948385 281.687573 
L 126.554797 283.594277 
L 127.16121 284.981573 
L 127.464416 284.981573 
L 127.767622 284.521494 
L 128.070828 284.326457 
L 128.980447 282.898576 
L 129.586859 281.555452 
L 130.193272 281.336676 
L 130.496478 281.370997 
L 130.799684 281.645108 
L 131.10289 281.645108 
L 131.406096 282.305772 
L 132.012509 282.62873 
L 132.922127 283.114076 
L 133.225333 283.058862 
L 134.134952 282.469021 
L 134.438158 281.745939 
L 134.741364 281.745939 
L 135.044571 280.344026 
L 135.347777 280.086968 
L 135.954189 279.037954 
L 136.257395 278.046269 
L 136.560602 278.046269 
L 136.863808 276.752576 
L 137.167014 276.548654 
L 137.773426 275.746021 
L 138.076632 274.968606 
L 138.379839 274.574913 
L 138.986251 273.235448 
L 139.289457 272.979676 
L 139.592663 272.440491 
L 139.89587 271.261835 
L 140.199076 270.618887 
L 140.805488 268.381023 
L 141.108694 267.945725 
L 141.411901 267.027641 
L 141.715107 265.04839 
L 142.018313 265.04839 
L 142.321519 261.991343 
L 142.624725 261.496966 
L 143.231138 259.637864 
L 143.534344 258.201609 
L 144.443962 256.907849 
L 145.656787 256.738217 
L 146.2632 256.797131 
L 147.476024 256.680052 
L 147.779231 256.388308 
L 148.385643 256.152362 
L 148.992055 255.743489 
L 149.901674 254.67409 
L 150.508086 254.350231 
L 151.114499 254.303111 
L 151.417705 255.139788 
L 151.720911 255.394283 
L 152.327323 256.681126 
L 152.63053 257.450425 
L 152.933736 258.695445 
L 153.236942 260.428148 
L 154.146561 263.004981 
L 154.449767 264.593633 
L 154.752973 264.593633 
L 155.056179 266.377702 
L 155.359385 266.597888 
L 156.269004 267.580261 
L 156.57221 267.580261 
L 158.391447 266.653351 
L 158.694653 266.62127 
L 159.604272 267.041402 
L 160.210684 268.107246 
L 160.513891 268.555797 
L 161.120303 270.092013 
L 161.423509 270.092013 
L 161.726715 270.710287 
L 162.636334 271.247436 
L 164.152365 271.775522 
L 164.455571 272.205734 
L 164.758777 273.114024 
L 165.061983 273.114024 
L 165.36519 274.432826 
L 165.668396 274.432826 
L 165.971602 277.066672 
L 166.274808 277.553394 
L 166.881221 279.524829 
L 167.184427 281.393422 
L 167.487633 281.393422 
L 167.790839 283.297734 
L 168.397251 283.615247 
L 168.700458 283.553693 
L 169.30687 282.055406 
L 169.913282 279.296536 
L 170.216489 278.805062 
L 170.519695 277.850591 
L 170.822901 276.189827 
L 171.429313 275.083814 
L 171.73252 274.730963 
L 172.035726 274.925306 
L 172.338932 274.925306 
L 173.854963 280.002246 
L 174.158169 281.966141 
L 174.764581 283.383999 
L 175.067788 283.76025 
L 175.370994 283.877308 
L 175.6742 283.536048 
L 176.280612 281.079835 
L 176.887025 278.487759 
L 177.493437 273.324309 
L 177.796643 273.324309 
L 178.09985 270.568902 
L 179.009468 266.934266 
L 179.312674 266.130018 
L 179.61588 266.130018 
L 179.919087 266.411559 
L 180.525499 267.614223 
L 180.828705 268.475618 
L 181.131911 269.981763 
L 181.435118 272.168449 
L 182.344736 275.088196 
L 182.951149 276.304848 
L 183.254355 276.001348 
L 183.557561 275.414208 
L 184.163973 273.491602 
L 184.467179 272.233377 
L 184.770386 270.090812 
L 185.073592 266.990442 
L 186.892829 257.620956 
L 187.196035 257.259019 
L 187.499241 257.194147 
L 187.802448 257.416908 
L 188.105654 258.253391 
L 188.40886 260.158188 
L 188.712066 260.158188 
L 189.015272 262.673121 
L 189.318479 264.051214 
L 189.924891 268.132814 
L 190.228097 268.746816 
L 190.531303 269.881785 
L 190.834509 271.700328 
L 191.440922 272.688719 
L 192.047334 272.378667 
L 192.35054 271.906814 
L 193.260159 267.3269 
L 193.563365 266.779792 
L 194.77619 262.71737 
L 195.079396 262.005668 
L 195.382602 261.958116 
L 195.685809 262.114145 
L 195.989015 262.713769 
L 196.292221 264.139725 
L 196.595427 264.139725 
L 196.898633 266.156985 
L 197.201839 267.31791 
L 197.808252 270.943523 
L 198.111458 271.512095 
L 198.414664 272.584721 
L 198.71787 274.389905 
L 199.324283 275.693999 
L 199.627489 275.957059 
L 200.233901 275.888252 
L 200.840314 274.567312 
L 201.14352 273.727756 
L 201.446726 273.440034 
L 202.053138 272.340594 
L 202.356345 271.468852 
L 202.659551 271.468852 
L 202.962757 270.842297 
L 203.569169 270.841108 
L 203.872376 270.956454 
L 204.478788 272.050167 
L 204.781994 272.777769 
L 205.0852 273.041376 
L 205.691613 274.145428 
L 206.298025 275.928627 
L 206.601231 276.531134 
L 206.904438 276.706482 
L 207.51085 277.249646 
L 207.814056 277.417749 
L 208.117262 277.330477 
L 208.420468 276.997995 
L 209.026881 275.753678 
L 209.330087 275.753678 
L 209.633293 274.59424 
L 209.936499 273.945287 
L 210.846118 270.895706 
L 211.149324 270.895706 
L 211.45253 269.728097 
L 212.058943 268.951912 
L 212.362149 268.77293 
L 212.968561 269.559692 
L 213.574974 270.747015 
L 214.181386 272.237379 
L 215.091005 275.675847 
L 215.697417 276.798454 
L 216.303829 277.354829 
L 216.910242 276.232708 
L 217.516654 274.459977 
L 217.81986 273.338967 
L 218.123067 271.450834 
L 218.426273 268.771408 
L 219.335891 265.106884 
L 219.942304 263.025804 
L 220.24551 263.025804 
L 221.155128 264.514145 
L 221.458335 265.437674 
L 221.761541 267.668353 
L 222.064747 267.668353 
L 222.367953 271.430556 
L 222.671159 272.056274 
L 223.580778 276.111734 
L 223.883984 276.111734 
L 224.18719 276.831288 
L 224.490397 276.71039 
L 224.793603 276.268745 
L 225.096809 275.572007 
L 225.400015 274.091185 
L 225.703221 271.495951 
L 226.916046 265.47406 
L 227.522458 261.447657 
L 227.825665 260.898677 
L 228.128871 260.674063 
L 228.432077 260.771786 
L 228.735283 261.1815 
L 229.038489 262.326286 
L 229.341696 264.623641 
L 230.55452 270.481414 
L 231.160933 275.226401 
L 231.767345 277.122955 
L 232.373757 278.283427 
L 232.676964 277.974613 
L 232.98017 277.974613 
L 233.283376 276.617471 
L 233.586582 276.617471 
L 233.889788 273.209514 
L 234.192995 272.550068 
L 234.799407 269.815579 
L 235.102613 267.151944 
L 235.405819 267.151944 
L 235.709026 264.316851 
L 236.315438 263.760349 
L 236.618644 263.762302 
L 236.92185 264.071756 
L 237.225056 265.08212 
L 237.528263 267.271806 
L 238.741087 273.159943 
L 239.650706 279.682065 
L 240.257118 281.747559 
L 240.863531 282.82992 
L 241.469943 281.348149 
L 242.076356 278.921643 
L 242.379562 274.936441 
L 242.682768 274.936441 
L 242.985974 271.435515 
L 244.198799 263.913 
L 244.502005 263.913 
L 244.805211 262.585693 
L 245.108417 262.647397 
L 245.411624 262.997112 
L 245.71483 263.630252 
L 246.927655 271.448006 
L 247.230861 272.252942 
L 247.534067 273.864729 
L 247.837273 276.983217 
L 248.746892 281.35223 
L 249.050098 281.944611 
L 249.353304 281.944611 
L 249.65651 281.574429 
L 249.959716 280.892412 
L 251.172541 274.742966 
L 251.475747 271.169029 
L 252.385366 265.066306 
L 252.688572 262.120051 
L 252.991778 262.120051 
L 253.294985 260.252348 
L 253.598191 259.827859 
L 253.901397 259.765064 
L 254.204603 260.339464 
L 254.507809 262.208988 
L 254.811015 262.208988 
L 255.114222 265.014597 
L 255.720634 268.365822 
L 256.327046 274.638119 
L 256.630253 274.638119 
L 256.933459 278.103439 
L 258.146284 284.204922 
L 258.44949 284.204922 
L 258.752696 283.886191 
L 259.055902 283.178635 
L 259.359108 282.149678 
L 259.662315 280.101446 
L 259.965521 276.698117 
L 261.178345 269.033421 
L 261.784758 263.013079 
L 262.087964 263.013079 
L 262.39117 260.574904 
L 262.694376 259.77981 
L 262.997583 259.310041 
L 263.300789 259.274983 
L 263.603995 260.443017 
L 263.907201 260.443017 
L 264.513614 264.25962 
L 264.81682 265.890931 
L 265.120026 268.512659 
L 265.423232 272.152575 
L 265.726438 272.152575 
L 266.029644 275.753569 
L 266.939263 281.344993 
L 267.242469 283.422229 
L 267.545675 283.422229 
L 267.848882 284.301717 
L 268.152088 284.25407 
L 268.455294 283.879701 
L 268.7585 283.190047 
L 269.061706 281.612503 
L 269.364913 278.683327 
L 270.577737 271.34434 
L 271.487356 263.299325 
L 272.093768 260.619773 
L 272.700181 259.052295 
L 273.003387 258.818446 
L 273.913005 261.945782 
L 274.519418 264.967206 
L 274.822624 267.55832 
L 275.12583 271.195842 
L 276.035449 276.607554 
L 276.338655 279.935026 
L 276.641861 279.935026 
L 276.945067 283.724673 
L 277.248274 284.16278 
L 277.55148 284.841978 
L 277.854686 285.228455 
L 278.157892 285.021704 
L 278.461098 284.003381 
L 278.764304 282.324993 
L 279.067511 281.643973 
L 279.977129 276.658966 
L 281.189954 266.436898 
L 282.402779 259.736271 
L 282.705985 259.45227 
L 283.009191 259.504029 
L 283.312397 259.884004 
L 283.91881 263.38756 
L 284.222016 265.640916 
L 284.525222 266.452862 
L 285.131634 269.871094 
L 285.434841 274.190599 
L 285.738047 274.190599 
L 286.041253 277.387622 
L 287.254078 282.842122 
L 287.557284 282.842122 
L 287.86049 282.954322 
L 288.163696 282.725388 
L 288.770109 281.16557 
L 289.073315 278.698762 
L 289.376521 278.698762 
L 289.679727 273.923905 
L 289.982933 273.062897 
L 290.589346 269.607346 
L 290.892552 266.376962 
L 291.195758 266.376962 
L 291.498964 262.828074 
L 292.408583 261.656237 
L 292.711789 262.094976 
L 293.014995 262.765369 
L 293.621408 266.226911 
L 293.924614 268.509489 
L 294.22782 268.509489 
L 294.531026 271.818496 
L 295.137439 275.155287 
L 295.743851 280.296583 
L 296.047057 280.296583 
L 296.350263 282.538775 
L 296.956676 284.235233 
L 297.259882 284.418555 
L 297.563088 284.319915 
L 297.866294 283.88434 
L 298.775913 278.702726 
L 299.382325 273.656544 
L 299.685532 273.656544 
L 299.988738 270.198076 
L 300.291944 268.527892 
L 300.898356 264.220234 
L 301.201562 263.678678 
L 301.807975 261.924315 
L 302.111181 261.924315 
L 302.717593 263.489728 
L 303.324006 265.787531 
L 303.627212 269.517062 
L 303.930418 269.517062 
L 304.233624 272.760685 
L 305.749655 280.98514 
L 306.052862 281.674701 
L 306.659274 281.848554 
L 306.96248 281.661465 
L 307.872099 277.880349 
L 308.478511 273.650251 
L 308.781717 273.650251 
L 309.084923 270.633181 
L 309.38813 269.155604 
L 309.994542 265.315049 
L 310.297748 264.396156 
L 310.600954 264.396156 
L 310.904161 263.187096 
L 311.207367 263.237742 
L 311.510573 263.558183 
L 311.813779 264.157225 
L 313.32981 273.707983 
L 313.633016 273.707983 
L 313.936222 276.494491 
L 315.149047 281.155512 
L 315.452253 281.189426 
L 315.75546 280.959438 
L 316.058666 280.48414 
L 316.665078 278.91836 
L 316.968284 277.331133 
L 317.271491 274.852692 
L 318.484315 269.524672 
L 319.090728 265.710798 
L 319.69714 264.519009 
L 320.000346 264.273113 
L 320.303552 264.282213 
L 320.606759 264.798305 
L 321.213171 267.451279 
L 322.12279 271.501585 
L 322.425996 273.00058 
L 323.335614 279.643288 
L 324.548439 284.631174 
L 324.851645 285.326285 
L 325.154851 285.180335 
L 325.458058 284.709275 
L 326.06447 282.895268 
L 326.367676 280.935458 
L 326.670882 277.799662 
L 327.883707 270.952226 
L 328.793326 264.264355 
L 329.702944 261.262142 
L 330.00615 261.262142 
L 330.309357 262.099804 
L 330.612563 262.508663 
L 331.218975 264.731045 
L 331.522181 267.627953 
L 331.825388 269.212812 
L 332.4318 274.027779 
L 332.735006 274.813011 
L 333.038212 276.345967 
L 333.341419 279.228665 
L 333.947831 282.375308 
L 334.251037 283.920256 
L 334.554243 284.369914 
L 335.160656 285.925109 
L 335.463862 285.909413 
L 335.767068 285.335088 
L 336.070274 284.116529 
L 336.37348 283.583825 
L 336.676687 282.347913 
L 336.979893 279.321746 
L 337.283099 277.630007 
L 337.889511 272.271291 
L 338.192718 271.375359 
L 338.495924 269.610939 
L 338.79913 266.256749 
L 339.405542 262.622951 
L 339.708749 260.893723 
L 340.011955 260.406461 
L 340.618367 258.87545 
L 340.921573 258.962776 
L 341.224779 259.680606 
L 341.527986 261.005617 
L 341.831192 261.560259 
L 342.134398 262.822584 
L 342.437604 265.807345 
L 343.044017 269.104799 
L 343.650429 274.828142 
L 343.953635 274.828142 
L 344.256841 277.821669 
L 344.863254 281.094471 
L 345.469666 283.669914 
L 345.772872 283.669914 
L 346.076079 284.228646 
L 346.379285 284.132347 
L 346.682491 283.802482 
L 346.985697 282.941732 
L 347.288903 281.31761 
L 347.592109 281.31761 
L 347.895316 279.487699 
L 348.804934 276.617016 
L 349.10814 275.507472 
L 349.411347 275.507472 
L 349.714553 274.746311 
L 350.927378 273.710572 
L 351.230584 273.459125 
L 351.836996 273.387328 
L 352.443409 273.501798 
L 353.049821 273.846478 
L 353.353027 274.147558 
L 353.959439 274.334875 
L 354.262646 274.356114 
L 354.565852 274.227605 
L 354.869058 274.227605 
L 355.172264 273.422517 
L 355.47547 273.206687 
L 356.081883 272.116731 
L 356.991501 268.472926 
L 357.294708 268.121903 
L 358.204326 266.389853 
L 358.507532 266.42334 
L 358.810738 266.861005 
L 359.113945 267.698822 
L 359.417151 268.045051 
L 359.720357 268.815942 
L 360.023563 270.574869 
L 360.326769 270.574869 
L 360.629976 273.362794 
L 360.933182 273.813622 
L 361.8428 276.653207 
L 362.146007 276.653207 
L 362.449213 276.911757 
L 362.752419 276.739334 
L 363.358831 275.46695 
L 363.662038 274.53143 
L 363.965244 272.856673 
L 364.26845 270.374293 
L 365.784481 264.258849 
L 366.087687 263.926445 
L 366.390893 263.793732 
L 366.694099 263.855475 
L 366.997306 264.100757 
L 367.300512 265.487039 
L 367.603718 265.487039 
L 367.906924 267.279313 
L 369.119749 271.890613 
L 370.029368 277.114246 
L 371.242192 280.841484 
L 371.545398 281.581963 
L 372.151811 281.74768 
L 372.455017 281.671528 
L 372.758223 281.39669 
L 373.364636 280.328636 
L 374.274254 279.135257 
L 374.880667 278.451203 
L 375.487079 277.568933 
L 376.396697 276.311144 
L 377.00311 275.274985 
L 377.306316 275.226252 
L 377.912728 275.473656 
L 378.215935 276.303724 
L 378.519141 276.303724 
L 378.822347 277.211307 
L 380.035172 279.050896 
L 380.338378 279.111247 
L 380.641584 278.896074 
L 381.247997 278.035242 
L 381.551203 277.111018 
L 381.854409 275.690031 
L 382.157615 275.690031 
L 382.460821 274.359592 
L 383.067234 273.350846 
L 383.37044 273.058689 
L 383.673646 272.962758 
L 384.886471 275.172563 
L 385.189677 275.898322 
L 386.099296 279.436771 
L 387.008914 281.292813 
L 387.31212 281.771046 
L 387.615326 281.666026 
L 387.918533 281.290283 
L 388.524945 279.971133 
L 388.828151 279.102661 
L 389.131357 277.624951 
L 389.434564 275.590895 
L 390.647388 272.111301 
L 390.950595 271.572803 
L 391.253801 271.572803 
L 391.860213 272.114715 
L 392.466626 273.695436 
L 392.769832 274.67256 
L 393.073038 274.67256 
L 393.376244 275.980904 
L 394.589069 278.450238 
L 395.195481 278.667006 
L 395.801894 278.473902 
L 396.1051 278.19982 
L 396.408306 277.548297 
L 396.711512 276.360569 
L 398.227543 273.249157 
L 398.530749 272.767694 
L 399.137162 272.610074 
L 399.743574 272.647466 
L 400.04678 272.78496 
L 400.653193 273.318218 
L 401.562811 274.07974 
L 403.382048 276.583298 
L 403.988461 277.800638 
L 404.291667 278.405037 
L 404.594873 278.523567 
L 405.201285 278.418632 
L 405.504492 278.24556 
L 405.807698 277.883015 
L 406.110904 277.264896 
L 407.020523 276.079845 
L 407.626935 274.466831 
L 407.930141 273.852058 
L 408.233347 273.67381 
L 409.142966 272.723739 
L 409.446172 272.723739 
L 410.052585 272.401218 
L 410.658997 272.344056 
L 410.962203 273.142136 
L 411.265409 273.142136 
L 411.871822 275.559653 
L 412.478234 277.454976 
L 412.78144 279.10619 
L 413.084646 279.10619 
L 413.387853 279.488525 
L 413.691059 279.367824 
L 414.297471 278.642828 
L 414.600677 277.44378 
L 414.903884 277.44378 
L 415.20709 275.368336 
L 415.510296 275.04685 
L 416.419915 273.116034 
L 416.723121 272.901356 
L 417.329533 273.2265 
L 417.935945 274.230601 
L 418.542358 276.71463 
L 418.845564 277.546133 
L 419.755183 278.201756 
L 420.361595 277.797934 
L 421.271214 276.700847 
L 421.57442 276.700847 
L 421.877626 276.583103 
L 422.787244 276.711642 
L 424.000069 275.848324 
L 424.303275 275.594148 
L 424.909688 275.757758 
L 425.212894 276.113376 
L 426.425719 281.037225 
L 426.728925 282.635042 
L 427.032131 282.635042 
L 427.335337 284.923754 
L 427.94175 287.47192 
L 428.851368 293.73863 
L 429.760987 297.179916 
L 430.670605 299.703068 
L 430.973812 299.68773 
L 431.277018 299.410975 
L 431.580224 298.858226 
L 431.88343 298.015668 
L 432.186636 296.180487 
L 432.186636 296.180487 
" clip-path="url(#pc738eb6f10)" style="fill: none; stroke: #008000; stroke-width: 1.5; stroke-linecap: square"/>
   </g>
   <g id="patch_13">
    <path d="M 58.106 301.9975 
L 58.106 251.52 
" style="fill: none; stroke: #000000; stroke-width: 0.8; stroke-linejoin: miter; stroke-linecap: square"/>
   </g>
   <g id="patch_14">
    <path d="M 450 301.9975 
L 450 251.52 
" style="fill: none; stroke: #000000; stroke-width: 0.8; stroke-linejoin: miter; stroke-linecap: square"/>
   </g>
   <g id="patch_15">
    <path d="M 58.106 301.9975 
L 450 301.9975 
" style="fill: none; stroke: #000000; stroke-width: 0.8; stroke-linejoin: miter; stroke-linecap: square"/>
   </g>
   <g id="patch_16">
    <path d="M 58.106 251.52 
L 450 251.52 
" style="fill: none; stroke: #000000; stroke-width: 0.8; stroke-linejoin: miter; stroke-linecap: square"/>
   </g>
   <g id="text_38">
    <!-- Error in swing angle -->
    <g transform="translate(194.282687 245.52)scale(0.12 -0.12)">
     <defs>
      <path id="DejaVuSans-77" d="M 269 3500 
L 844 3500 
L 1563 769 
L 2278 3500 
L 2956 3500 
L 3675 769 
L 4391 3500 
L 4966 3500 
L 4050 0 
L 3372 0 
L 2619 2869 
L 1863 0 
L 1184 0 
L 269 3500 
z
" transform="scale(0.015625)"/>
      <path id="DejaVuSans-67" d="M 2906 1791 
Q 2906 2416 2648 2759 
Q 2391 3103 1925 3103 
Q 1463 3103 1205 2759 
Q 947 2416 947 1791 
Q 947 1169 1205 825 
Q 1463 481 1925 481 
Q 2391 481 2648 825 
Q 2906 1169 2906 1791 
z
M 3481 434 
Q 3481 -459 3084 -895 
Q 2688 -1331 1869 -1331 
Q 1566 -1331 1297 -1286 
Q 1028 -1241 775 -1147 
L 775 -588 
Q 1028 -725 1275 -790 
Q 1522 -856 1778 -856 
Q 2344 -856 2625 -561 
Q 2906 -266 2906 331 
L 2906 616 
Q 2728 306 2450 153 
Q 2172 0 1784 0 
Q 1141 0 747 490 
Q 353 981 353 1791 
Q 353 2603 747 3093 
Q 1141 3584 1784 3584 
Q 2172 3584 2450 3431 
Q 2728 3278 2906 2969 
L 2906 3500 
L 3481 3500 
L 3481 434 
z
" transform="scale(0.015625)"/>
      <path id="DejaVuSans-6c" d="M 603 4863 
L 1178 4863 
L 1178 0 
L 603 0 
L 603 4863 
z
" transform="scale(0.015625)"/>
      <path id="DejaVuSans-65" d="M 3597 1894 
L 3597 1613 
L 953 1613 
Q 991 1019 1311 708 
Q 1631 397 2203 397 
Q 2534 397 2845 478 
Q 3156 559 3463 722 
L 3463 178 
Q 3153 47 2828 -22 
Q 2503 -91 2169 -91 
Q 1331 -91 842 396 
Q 353 884 353 1716 
Q 353 2575 817 3079 
Q 1281 3584 2069 3584 
Q 2775 3584 3186 3129 
Q 3597 2675 3597 1894 
z
M 3022 2063 
Q 3016 2534 2758 2815 
Q 2500 3097 2075 3097 
Q 1594 3097 1305 2825 
Q 1016 2553 972 2059 
L 3022 2063 
z
" transform="scale(0.015625)"/>
     </defs>
     <use xlink:href="#DejaVuSans-45"/>
     <use xlink:href="#DejaVuSans-72" x="63.183594"/>
     <use xlink:href="#DejaVuSans-72" x="102.546875"/>
     <use xlink:href="#DejaVuSans-6f" x="141.410156"/>
     <use xlink:href="#DejaVuSans-72" x="202.591797"/>
     <use xlink:href="#DejaVuSans-20" x="243.705078"/>
     <use xlink:href="#DejaVuSans-69" x="275.492188"/>
     <use xlink:href="#DejaVuSans-6e" x="303.275391"/>
     <use xlink:href="#DejaVuSans-20" x="366.654297"/>
     <use xlink:href="#DejaVuSans-73" x="398.441406"/>
     <use xlink:href="#DejaVuSans-77" x="450.541016"/>
     <use xlink:href="#DejaVuSans-69" x="532.328125"/>
     <use xlink:href="#DejaVuSans-6e" x="560.111328"/>
     <use xlink:href="#DejaVuSans-67" x="623.490234"/>
     <use xlink:href="#DejaVuSans-20" x="686.966797"/>
     <use xlink:href="#DejaVuSans-61" x="718.753906"/>
     <use xlink:href="#DejaVuSans-6e" x="780.033203"/>
     <use xlink:href="#DejaVuSans-67" x="843.412109"/>
     <use xlink:href="#DejaVuSans-6c" x="906.888672"/>
     <use xlink:href="#DejaVuSans-65" x="934.671875"/>
    </g>
   </g>
  </g>
 </g>
 <defs>
  <clipPath id="pb65a90cc61">
   <rect x="58.106" y="28.32" width="391.894" height="50.4775"/>
  </clipPath>
  <clipPath id="pe721922413">
   <rect x="58.106" y="139.92" width="391.894" height="50.4775"/>
  </clipPath>
  <clipPath id="pc738eb6f10">
   <rect x="58.106" y="251.52" width="391.894" height="50.4775"/>
  </clipPath>
 </defs>
</svg>
