<?xml version="1.0" encoding="utf-8" standalone="no"?>
<!DOCTYPE svg PUBLIC "-//W3C//DTD SVG 1.1//EN"
  "http://www.w3.org/Graphics/SVG/1.1/DTD/svg11.dtd">
<svg xmlns:xlink="http://www.w3.org/1999/xlink" width="460.8pt" height="345.6pt" viewBox="0 0 460.8 345.6" xmlns="http://www.w3.org/2000/svg" version="1.1">
 <metadata>
  <rdf:RDF xmlns:dc="http://purl.org/dc/elements/1.1/" xmlns:cc="http://creativecommons.org/ns#" xmlns:rdf="http://www.w3.org/1999/02/22-rdf-syntax-ns#">
   <cc:Work>
    <dc:type rdf:resource="http://purl.org/dc/dcmitype/StillImage"/>
    <dc:date>2022-06-05T14:26:32.604869</dc:date>
    <dc:format>image/svg+xml</dc:format>
    <dc:creator>
     <cc:Agent>
      <dc:title>Matplotlib v3.5.1, https://matplotlib.org/</dc:title>
     </cc:Agent>
    </dc:creator>
   </cc:Work>
  </rdf:RDF>
 </metadata>
 <defs>
  <style type="text/css">*{stroke-linejoin: round; stroke-linecap: butt}</style>
 </defs>
 <g id="figure_1">
  <g id="patch_1">
   <path d="M 0 345.6 
L 460.8 345.6 
L 460.8 0 
L 0 0 
z
" style="fill: #ffffff"/>
  </g>
  <g id="axes_1">
   <g id="patch_2">
    <path d="M 58.106 78.7975 
L 450 78.7975 
L 450 28.32 
L 58.106 28.32 
z
" style="fill: #ffffff"/>
   </g>
   <g id="matplotlib.axis_1">
    <g id="xtick_1">
     <g id="line2d_1">
      <path d="M 75.919364 78.7975 
L 75.919364 28.32 
" clip-path="url(#p4317091a50)" style="fill: none; stroke: #b0b0b0; stroke-width: 0.8; stroke-linecap: square"/>
     </g>
     <g id="line2d_2">
      <defs>
       <path id="m3890001bc9" d="M 0 0 
L 0 3.5 
" style="stroke: #000000; stroke-width: 0.8"/>
      </defs>
      <g>
       <use xlink:href="#m3890001bc9" x="75.919364" y="78.7975" style="stroke: #000000; stroke-width: 0.8"/>
      </g>
     </g>
     <g id="text_1">
      <!-- 0 -->
      <g transform="translate(72.738114 93.395937)scale(0.1 -0.1)">
       <defs>
        <path id="DejaVuSans-30" d="M 2034 4250 
Q 1547 4250 1301 3770 
Q 1056 3291 1056 2328 
Q 1056 1369 1301 889 
Q 1547 409 2034 409 
Q 2525 409 2770 889 
Q 3016 1369 3016 2328 
Q 3016 3291 2770 3770 
Q 2525 4250 2034 4250 
z
M 2034 4750 
Q 2819 4750 3233 4129 
Q 3647 3509 3647 2328 
Q 3647 1150 3233 529 
Q 2819 -91 2034 -91 
Q 1250 -91 836 529 
Q 422 1150 422 2328 
Q 422 3509 836 4129 
Q 1250 4750 2034 4750 
z
" transform="scale(0.015625)"/>
       </defs>
       <use xlink:href="#DejaVuSans-30"/>
      </g>
     </g>
    </g>
    <g id="xtick_2">
     <g id="line2d_3">
      <path d="M 135.050861 78.7975 
L 135.050861 28.32 
" clip-path="url(#p4317091a50)" style="fill: none; stroke: #b0b0b0; stroke-width: 0.8; stroke-linecap: square"/>
     </g>
     <g id="line2d_4">
      <g>
       <use xlink:href="#m3890001bc9" x="135.050861" y="78.7975" style="stroke: #000000; stroke-width: 0.8"/>
      </g>
     </g>
     <g id="text_2">
      <!-- 2 -->
      <g transform="translate(131.869611 93.395937)scale(0.1 -0.1)">
       <defs>
        <path id="DejaVuSans-32" d="M 1228 531 
L 3431 531 
L 3431 0 
L 469 0 
L 469 531 
Q 828 903 1448 1529 
Q 2069 2156 2228 2338 
Q 2531 2678 2651 2914 
Q 2772 3150 2772 3378 
Q 2772 3750 2511 3984 
Q 2250 4219 1831 4219 
Q 1534 4219 1204 4116 
Q 875 4013 500 3803 
L 500 4441 
Q 881 4594 1212 4672 
Q 1544 4750 1819 4750 
Q 2544 4750 2975 4387 
Q 3406 4025 3406 3419 
Q 3406 3131 3298 2873 
Q 3191 2616 2906 2266 
Q 2828 2175 2409 1742 
Q 1991 1309 1228 531 
z
" transform="scale(0.015625)"/>
       </defs>
       <use xlink:href="#DejaVuSans-32"/>
      </g>
     </g>
    </g>
    <g id="xtick_3">
     <g id="line2d_5">
      <path d="M 194.182359 78.7975 
L 194.182359 28.32 
" clip-path="url(#p4317091a50)" style="fill: none; stroke: #b0b0b0; stroke-width: 0.8; stroke-linecap: square"/>
     </g>
     <g id="line2d_6">
      <g>
       <use xlink:href="#m3890001bc9" x="194.182359" y="78.7975" style="stroke: #000000; stroke-width: 0.8"/>
      </g>
     </g>
     <g id="text_3">
      <!-- 4 -->
      <g transform="translate(191.001109 93.395937)scale(0.1 -0.1)">
       <defs>
        <path id="DejaVuSans-34" d="M 2419 4116 
L 825 1625 
L 2419 1625 
L 2419 4116 
z
M 2253 4666 
L 3047 4666 
L 3047 1625 
L 3713 1625 
L 3713 1100 
L 3047 1100 
L 3047 0 
L 2419 0 
L 2419 1100 
L 313 1100 
L 313 1709 
L 2253 4666 
z
" transform="scale(0.015625)"/>
       </defs>
       <use xlink:href="#DejaVuSans-34"/>
      </g>
     </g>
    </g>
    <g id="xtick_4">
     <g id="line2d_7">
      <path d="M 253.313856 78.7975 
L 253.313856 28.32 
" clip-path="url(#p4317091a50)" style="fill: none; stroke: #b0b0b0; stroke-width: 0.8; stroke-linecap: square"/>
     </g>
     <g id="line2d_8">
      <g>
       <use xlink:href="#m3890001bc9" x="253.313856" y="78.7975" style="stroke: #000000; stroke-width: 0.8"/>
      </g>
     </g>
     <g id="text_4">
      <!-- 6 -->
      <g transform="translate(250.132606 93.395937)scale(0.1 -0.1)">
       <defs>
        <path id="DejaVuSans-36" d="M 2113 2584 
Q 1688 2584 1439 2293 
Q 1191 2003 1191 1497 
Q 1191 994 1439 701 
Q 1688 409 2113 409 
Q 2538 409 2786 701 
Q 3034 994 3034 1497 
Q 3034 2003 2786 2293 
Q 2538 2584 2113 2584 
z
M 3366 4563 
L 3366 3988 
Q 3128 4100 2886 4159 
Q 2644 4219 2406 4219 
Q 1781 4219 1451 3797 
Q 1122 3375 1075 2522 
Q 1259 2794 1537 2939 
Q 1816 3084 2150 3084 
Q 2853 3084 3261 2657 
Q 3669 2231 3669 1497 
Q 3669 778 3244 343 
Q 2819 -91 2113 -91 
Q 1303 -91 875 529 
Q 447 1150 447 2328 
Q 447 3434 972 4092 
Q 1497 4750 2381 4750 
Q 2619 4750 2861 4703 
Q 3103 4656 3366 4563 
z
" transform="scale(0.015625)"/>
       </defs>
       <use xlink:href="#DejaVuSans-36"/>
      </g>
     </g>
    </g>
    <g id="xtick_5">
     <g id="line2d_9">
      <path d="M 312.445354 78.7975 
L 312.445354 28.32 
" clip-path="url(#p4317091a50)" style="fill: none; stroke: #b0b0b0; stroke-width: 0.8; stroke-linecap: square"/>
     </g>
     <g id="line2d_10">
      <g>
       <use xlink:href="#m3890001bc9" x="312.445354" y="78.7975" style="stroke: #000000; stroke-width: 0.8"/>
      </g>
     </g>
     <g id="text_5">
      <!-- 8 -->
      <g transform="translate(309.264104 93.395937)scale(0.1 -0.1)">
       <defs>
        <path id="DejaVuSans-38" d="M 2034 2216 
Q 1584 2216 1326 1975 
Q 1069 1734 1069 1313 
Q 1069 891 1326 650 
Q 1584 409 2034 409 
Q 2484 409 2743 651 
Q 3003 894 3003 1313 
Q 3003 1734 2745 1975 
Q 2488 2216 2034 2216 
z
M 1403 2484 
Q 997 2584 770 2862 
Q 544 3141 544 3541 
Q 544 4100 942 4425 
Q 1341 4750 2034 4750 
Q 2731 4750 3128 4425 
Q 3525 4100 3525 3541 
Q 3525 3141 3298 2862 
Q 3072 2584 2669 2484 
Q 3125 2378 3379 2068 
Q 3634 1759 3634 1313 
Q 3634 634 3220 271 
Q 2806 -91 2034 -91 
Q 1263 -91 848 271 
Q 434 634 434 1313 
Q 434 1759 690 2068 
Q 947 2378 1403 2484 
z
M 1172 3481 
Q 1172 3119 1398 2916 
Q 1625 2713 2034 2713 
Q 2441 2713 2670 2916 
Q 2900 3119 2900 3481 
Q 2900 3844 2670 4047 
Q 2441 4250 2034 4250 
Q 1625 4250 1398 4047 
Q 1172 3844 1172 3481 
z
" transform="scale(0.015625)"/>
       </defs>
       <use xlink:href="#DejaVuSans-38"/>
      </g>
     </g>
    </g>
    <g id="xtick_6">
     <g id="line2d_11">
      <path d="M 371.576851 78.7975 
L 371.576851 28.32 
" clip-path="url(#p4317091a50)" style="fill: none; stroke: #b0b0b0; stroke-width: 0.8; stroke-linecap: square"/>
     </g>
     <g id="line2d_12">
      <g>
       <use xlink:href="#m3890001bc9" x="371.576851" y="78.7975" style="stroke: #000000; stroke-width: 0.8"/>
      </g>
     </g>
     <g id="text_6">
      <!-- 10 -->
      <g transform="translate(365.214351 93.395937)scale(0.1 -0.1)">
       <defs>
        <path id="DejaVuSans-31" d="M 794 531 
L 1825 531 
L 1825 4091 
L 703 3866 
L 703 4441 
L 1819 4666 
L 2450 4666 
L 2450 531 
L 3481 531 
L 3481 0 
L 794 0 
L 794 531 
z
" transform="scale(0.015625)"/>
       </defs>
       <use xlink:href="#DejaVuSans-31"/>
       <use xlink:href="#DejaVuSans-30" x="63.623047"/>
      </g>
     </g>
    </g>
    <g id="xtick_7">
     <g id="line2d_13">
      <path d="M 430.708349 78.7975 
L 430.708349 28.32 
" clip-path="url(#p4317091a50)" style="fill: none; stroke: #b0b0b0; stroke-width: 0.8; stroke-linecap: square"/>
     </g>
     <g id="line2d_14">
      <g>
       <use xlink:href="#m3890001bc9" x="430.708349" y="78.7975" style="stroke: #000000; stroke-width: 0.8"/>
      </g>
     </g>
     <g id="text_7">
      <!-- 12 -->
      <g transform="translate(424.345849 93.395937)scale(0.1 -0.1)">
       <use xlink:href="#DejaVuSans-31"/>
       <use xlink:href="#DejaVuSans-32" x="63.623047"/>
      </g>
     </g>
    </g>
    <g id="text_8">
     <!-- $t$ [s] -->
     <g transform="translate(243.953 107.074062)scale(0.1 -0.1)">
      <defs>
       <path id="DejaVuSans-Oblique-74" d="M 2706 3500 
L 2619 3053 
L 1472 3053 
L 1100 1153 
Q 1081 1047 1072 975 
Q 1063 903 1063 863 
Q 1063 663 1183 572 
Q 1303 481 1569 481 
L 2150 481 
L 2053 0 
L 1503 0 
Q 991 0 739 200 
Q 488 400 488 806 
Q 488 878 497 964 
Q 506 1050 525 1153 
L 897 3053 
L 409 3053 
L 500 3500 
L 978 3500 
L 1172 4494 
L 1747 4494 
L 1556 3500 
L 2706 3500 
z
" transform="scale(0.015625)"/>
       <path id="DejaVuSans-20" transform="scale(0.015625)"/>
       <path id="DejaVuSans-5b" d="M 550 4863 
L 1875 4863 
L 1875 4416 
L 1125 4416 
L 1125 -397 
L 1875 -397 
L 1875 -844 
L 550 -844 
L 550 4863 
z
" transform="scale(0.015625)"/>
       <path id="DejaVuSans-73" d="M 2834 3397 
L 2834 2853 
Q 2591 2978 2328 3040 
Q 2066 3103 1784 3103 
Q 1356 3103 1142 2972 
Q 928 2841 928 2578 
Q 928 2378 1081 2264 
Q 1234 2150 1697 2047 
L 1894 2003 
Q 2506 1872 2764 1633 
Q 3022 1394 3022 966 
Q 3022 478 2636 193 
Q 2250 -91 1575 -91 
Q 1294 -91 989 -36 
Q 684 19 347 128 
L 347 722 
Q 666 556 975 473 
Q 1284 391 1588 391 
Q 1994 391 2212 530 
Q 2431 669 2431 922 
Q 2431 1156 2273 1281 
Q 2116 1406 1581 1522 
L 1381 1569 
Q 847 1681 609 1914 
Q 372 2147 372 2553 
Q 372 3047 722 3315 
Q 1072 3584 1716 3584 
Q 2034 3584 2315 3537 
Q 2597 3491 2834 3397 
z
" transform="scale(0.015625)"/>
       <path id="DejaVuSans-5d" d="M 1947 4863 
L 1947 -844 
L 622 -844 
L 622 -397 
L 1369 -397 
L 1369 4416 
L 622 4416 
L 622 4863 
L 1947 4863 
z
" transform="scale(0.015625)"/>
      </defs>
      <use xlink:href="#DejaVuSans-Oblique-74" transform="translate(0 0.015625)"/>
      <use xlink:href="#DejaVuSans-20" transform="translate(39.208984 0.015625)"/>
      <use xlink:href="#DejaVuSans-5b" transform="translate(70.996094 0.015625)"/>
      <use xlink:href="#DejaVuSans-73" transform="translate(110.009766 0.015625)"/>
      <use xlink:href="#DejaVuSans-5d" transform="translate(162.109375 0.015625)"/>
     </g>
    </g>
   </g>
   <g id="matplotlib.axis_2">
    <g id="ytick_1">
     <g id="line2d_15">
      <path d="M 58.106 76.485482 
L 450 76.485482 
" clip-path="url(#p4317091a50)" style="fill: none; stroke: #b0b0b0; stroke-width: 0.8; stroke-linecap: square"/>
     </g>
     <g id="line2d_16">
      <defs>
       <path id="mc12e0fdfd1" d="M 0 0 
L -3.5 0 
" style="stroke: #000000; stroke-width: 0.8"/>
      </defs>
      <g>
       <use xlink:href="#mc12e0fdfd1" x="58.106" y="76.485482" style="stroke: #000000; stroke-width: 0.8"/>
      </g>
     </g>
     <g id="text_9">
      <!-- 0 -->
      <g transform="translate(44.7435 80.284701)scale(0.1 -0.1)">
       <use xlink:href="#DejaVuSans-30"/>
      </g>
     </g>
    </g>
    <g id="ytick_2">
     <g id="line2d_17">
      <path d="M 58.106 30.614427 
L 450 30.614427 
" clip-path="url(#p4317091a50)" style="fill: none; stroke: #b0b0b0; stroke-width: 0.8; stroke-linecap: square"/>
     </g>
     <g id="line2d_18">
      <g>
       <use xlink:href="#mc12e0fdfd1" x="58.106" y="30.614427" style="stroke: #000000; stroke-width: 0.8"/>
      </g>
     </g>
     <g id="text_10">
      <!-- 10 -->
      <g transform="translate(38.381 34.413646)scale(0.1 -0.1)">
       <use xlink:href="#DejaVuSans-31"/>
       <use xlink:href="#DejaVuSans-30" x="63.623047"/>
      </g>
     </g>
    </g>
    <g id="text_11">
     <!-- $e_x$ [m] -->
     <g transform="translate(32.301313 69.20875)rotate(-90)scale(0.1 -0.1)">
      <defs>
       <path id="DejaVuSans-Oblique-65" d="M 3078 2063 
Q 3088 2113 3092 2166 
Q 3097 2219 3097 2272 
Q 3097 2653 2873 2875 
Q 2650 3097 2266 3097 
Q 1838 3097 1509 2826 
Q 1181 2556 1013 2059 
L 3078 2063 
z
M 3578 1613 
L 903 1613 
Q 884 1494 878 1425 
Q 872 1356 872 1306 
Q 872 872 1139 634 
Q 1406 397 1894 397 
Q 2269 397 2603 481 
Q 2938 566 3225 728 
L 3116 159 
Q 2806 34 2476 -28 
Q 2147 -91 1806 -91 
Q 1078 -91 686 257 
Q 294 606 294 1247 
Q 294 1794 489 2264 
Q 684 2734 1063 3103 
Q 1306 3334 1642 3459 
Q 1978 3584 2356 3584 
Q 2950 3584 3301 3228 
Q 3653 2872 3653 2272 
Q 3653 2128 3634 1964 
Q 3616 1800 3578 1613 
z
" transform="scale(0.015625)"/>
       <path id="DejaVuSans-Oblique-78" d="M 3841 3500 
L 2234 1784 
L 3219 0 
L 2559 0 
L 1819 1388 
L 531 0 
L -166 0 
L 1556 1844 
L 641 3500 
L 1300 3500 
L 1972 2234 
L 3144 3500 
L 3841 3500 
z
" transform="scale(0.015625)"/>
       <path id="DejaVuSans-6d" d="M 3328 2828 
Q 3544 3216 3844 3400 
Q 4144 3584 4550 3584 
Q 5097 3584 5394 3201 
Q 5691 2819 5691 2113 
L 5691 0 
L 5113 0 
L 5113 2094 
Q 5113 2597 4934 2840 
Q 4756 3084 4391 3084 
Q 3944 3084 3684 2787 
Q 3425 2491 3425 1978 
L 3425 0 
L 2847 0 
L 2847 2094 
Q 2847 2600 2669 2842 
Q 2491 3084 2119 3084 
Q 1678 3084 1418 2786 
Q 1159 2488 1159 1978 
L 1159 0 
L 581 0 
L 581 3500 
L 1159 3500 
L 1159 2956 
Q 1356 3278 1631 3431 
Q 1906 3584 2284 3584 
Q 2666 3584 2933 3390 
Q 3200 3197 3328 2828 
z
" transform="scale(0.015625)"/>
      </defs>
      <use xlink:href="#DejaVuSans-Oblique-65" transform="translate(0 0.015625)"/>
      <use xlink:href="#DejaVuSans-Oblique-78" transform="translate(61.523438 -16.390625)scale(0.7)"/>
      <use xlink:href="#DejaVuSans-20" transform="translate(105.683594 0.015625)"/>
      <use xlink:href="#DejaVuSans-5b" transform="translate(137.470703 0.015625)"/>
      <use xlink:href="#DejaVuSans-6d" transform="translate(176.484375 0.015625)"/>
      <use xlink:href="#DejaVuSans-5d" transform="translate(273.896484 0.015625)"/>
     </g>
    </g>
   </g>
   <g id="line2d_19">
    <path d="M 75.919364 30.614432 
L 82.725134 30.717288 
L 94.561256 31.179968 
L 97.816189 31.44541 
L 101.071123 31.809696 
L 102.254735 31.967983 
L 105.805572 32.45153 
L 120.304821 34.907148 
L 125.926979 36.23436 
L 126.222882 36.23436 
L 126.518785 36.408071 
L 127.406494 36.553903 
L 128.590107 36.908451 
L 129.181913 36.998231 
L 130.365525 37.36247 
L 132.732749 37.892816 
L 133.028652 38.083649 
L 133.916362 38.243834 
L 134.804071 38.534155 
L 136.875392 39.117867 
L 137.467198 39.215049 
L 138.354907 39.505536 
L 140.426229 40.077774 
L 141.018035 40.171661 
L 141.313938 40.296136 
L 141.609841 40.296136 
L 141.905744 40.481344 
L 143.089356 40.695175 
L 145.752484 41.409104 
L 148.415611 42.033585 
L 149.30332 42.254664 
L 151.670545 42.775892 
L 151.966448 42.913047 
L 152.558254 43.022792 
L 155.813187 43.732703 
L 156.700896 43.94864 
L 158.772218 44.402877 
L 159.659927 44.666445 
L 160.547636 44.796808 
L 161.731248 45.104947 
L 162.618957 45.281626 
L 165.577988 45.876351 
L 166.465697 46.07241 
L 168.832921 46.558728 
L 169.720631 46.752821 
L 172.679661 47.334118 
L 173.56737 47.52435 
L 176.230498 48.031724 
L 177.118207 48.213265 
L 179.485431 48.642197 
L 180.077237 48.754229 
L 180.964947 48.93298 
L 183.036268 49.314025 
L 184.515783 49.649336 
L 185.107589 49.73736 
L 187.770717 50.207822 
L 188.658426 50.378041 
L 190.729747 50.707348 
L 191.321553 50.864584 
L 194.280584 51.397061 
L 195.168293 51.568915 
L 197.239614 51.934794 
L 198.423227 52.202074 
L 199.310936 52.360563 
L 201.974063 52.852492 
L 202.861772 53.025792 
L 205.5249 53.501926 
L 206.412609 53.679509 
L 209.075736 54.167185 
L 209.963445 54.339007 
L 212.626573 54.821497 
L 215.2897 55.291446 
L 217.952828 55.751098 
L 218.840537 55.912447 
L 221.503664 56.359755 
L 222.391374 56.527044 
L 225.646307 57.064639 
L 226.829919 57.303958 
L 228.013532 57.484096 
L 231.564368 58.10744 
L 235.411108 58.752409 
L 239.257847 59.448359 
L 240.44146 59.630649 
L 243.696393 60.174563 
L 246.359521 60.610985 
L 247.24723 60.771134 
L 251.685776 61.458269 
L 252.869388 61.669169 
L 255.828418 62.121458 
L 256.420224 62.256021 
L 259.379255 62.733594 
L 262.042382 63.127892 
L 265.889122 63.735846 
L 267.072734 63.929638 
L 270.031765 64.371285 
L 274.47031 65.088366 
L 275.35802 65.189905 
L 278.612953 65.651061 
L 279.204759 65.7536 
L 280.684275 65.947018 
L 283.347402 66.367052 
L 283.939208 66.433137 
L 286.898239 66.811892 
L 289.561366 67.200749 
L 292.224494 67.552028 
L 296.958942 68.1693 
L 301.101585 68.731228 
L 305.540131 69.299757 
L 310.570483 69.972577 
L 315.304931 70.546809 
L 316.488544 70.705003 
L 320.927089 71.254169 
L 321.518895 71.354265 
L 325.069732 71.806655 
L 326.253344 71.967079 
L 332.763211 72.763566 
L 334.242727 72.974859 
L 335.130436 73.0835 
L 344.30343 74.154964 
L 345.487043 74.295749 
L 361.465807 75.691859 
L 375.077348 76.230496 
L 386.321664 76.267587 
L 396.67827 76.076287 
L 412.361132 75.890474 
L 420.94232 76.012384 
L 423.605448 76.118189 
L 432.186636 76.503068 
L 432.186636 76.503068 
" clip-path="url(#p4317091a50)" style="fill: none; stroke: #ff0000; stroke-width: 1.5; stroke-linecap: square"/>
   </g>
   <g id="patch_3">
    <path d="M 58.106 78.7975 
L 58.106 28.32 
" style="fill: none; stroke: #000000; stroke-width: 0.8; stroke-linejoin: miter; stroke-linecap: square"/>
   </g>
   <g id="patch_4">
    <path d="M 450 78.7975 
L 450 28.32 
" style="fill: none; stroke: #000000; stroke-width: 0.8; stroke-linejoin: miter; stroke-linecap: square"/>
   </g>
   <g id="patch_5">
    <path d="M 58.106 78.7975 
L 450 78.7975 
" style="fill: none; stroke: #000000; stroke-width: 0.8; stroke-linejoin: miter; stroke-linecap: square"/>
   </g>
   <g id="patch_6">
    <path d="M 58.106 28.32 
L 450 28.32 
" style="fill: none; stroke: #000000; stroke-width: 0.8; stroke-linejoin: miter; stroke-linecap: square"/>
   </g>
   <g id="text_12">
    <!-- Error in $x$-position -->
    <g transform="translate(200.413 22.32)scale(0.12 -0.12)">
     <defs>
      <path id="DejaVuSans-45" d="M 628 4666 
L 3578 4666 
L 3578 4134 
L 1259 4134 
L 1259 2753 
L 3481 2753 
L 3481 2222 
L 1259 2222 
L 1259 531 
L 3634 531 
L 3634 0 
L 628 0 
L 628 4666 
z
" transform="scale(0.015625)"/>
      <path id="DejaVuSans-72" d="M 2631 2963 
Q 2534 3019 2420 3045 
Q 2306 3072 2169 3072 
Q 1681 3072 1420 2755 
Q 1159 2438 1159 1844 
L 1159 0 
L 581 0 
L 581 3500 
L 1159 3500 
L 1159 2956 
Q 1341 3275 1631 3429 
Q 1922 3584 2338 3584 
Q 2397 3584 2469 3576 
Q 2541 3569 2628 3553 
L 2631 2963 
z
" transform="scale(0.015625)"/>
      <path id="DejaVuSans-6f" d="M 1959 3097 
Q 1497 3097 1228 2736 
Q 959 2375 959 1747 
Q 959 1119 1226 758 
Q 1494 397 1959 397 
Q 2419 397 2687 759 
Q 2956 1122 2956 1747 
Q 2956 2369 2687 2733 
Q 2419 3097 1959 3097 
z
M 1959 3584 
Q 2709 3584 3137 3096 
Q 3566 2609 3566 1747 
Q 3566 888 3137 398 
Q 2709 -91 1959 -91 
Q 1206 -91 779 398 
Q 353 888 353 1747 
Q 353 2609 779 3096 
Q 1206 3584 1959 3584 
z
" transform="scale(0.015625)"/>
      <path id="DejaVuSans-69" d="M 603 3500 
L 1178 3500 
L 1178 0 
L 603 0 
L 603 3500 
z
M 603 4863 
L 1178 4863 
L 1178 4134 
L 603 4134 
L 603 4863 
z
" transform="scale(0.015625)"/>
      <path id="DejaVuSans-6e" d="M 3513 2113 
L 3513 0 
L 2938 0 
L 2938 2094 
Q 2938 2591 2744 2837 
Q 2550 3084 2163 3084 
Q 1697 3084 1428 2787 
Q 1159 2491 1159 1978 
L 1159 0 
L 581 0 
L 581 3500 
L 1159 3500 
L 1159 2956 
Q 1366 3272 1645 3428 
Q 1925 3584 2291 3584 
Q 2894 3584 3203 3211 
Q 3513 2838 3513 2113 
z
" transform="scale(0.015625)"/>
      <path id="DejaVuSans-2d" d="M 313 2009 
L 1997 2009 
L 1997 1497 
L 313 1497 
L 313 2009 
z
" transform="scale(0.015625)"/>
      <path id="DejaVuSans-70" d="M 1159 525 
L 1159 -1331 
L 581 -1331 
L 581 3500 
L 1159 3500 
L 1159 2969 
Q 1341 3281 1617 3432 
Q 1894 3584 2278 3584 
Q 2916 3584 3314 3078 
Q 3713 2572 3713 1747 
Q 3713 922 3314 415 
Q 2916 -91 2278 -91 
Q 1894 -91 1617 61 
Q 1341 213 1159 525 
z
M 3116 1747 
Q 3116 2381 2855 2742 
Q 2594 3103 2138 3103 
Q 1681 3103 1420 2742 
Q 1159 2381 1159 1747 
Q 1159 1113 1420 752 
Q 1681 391 2138 391 
Q 2594 391 2855 752 
Q 3116 1113 3116 1747 
z
" transform="scale(0.015625)"/>
      <path id="DejaVuSans-74" d="M 1172 4494 
L 1172 3500 
L 2356 3500 
L 2356 3053 
L 1172 3053 
L 1172 1153 
Q 1172 725 1289 603 
Q 1406 481 1766 481 
L 2356 481 
L 2356 0 
L 1766 0 
Q 1100 0 847 248 
Q 594 497 594 1153 
L 594 3053 
L 172 3053 
L 172 3500 
L 594 3500 
L 594 4494 
L 1172 4494 
z
" transform="scale(0.015625)"/>
     </defs>
     <use xlink:href="#DejaVuSans-45" transform="translate(0 0.015625)"/>
     <use xlink:href="#DejaVuSans-72" transform="translate(63.183594 0.015625)"/>
     <use xlink:href="#DejaVuSans-72" transform="translate(104.296875 0.015625)"/>
     <use xlink:href="#DejaVuSans-6f" transform="translate(145.410156 0.015625)"/>
     <use xlink:href="#DejaVuSans-72" transform="translate(206.591797 0.015625)"/>
     <use xlink:href="#DejaVuSans-20" transform="translate(247.705078 0.015625)"/>
     <use xlink:href="#DejaVuSans-69" transform="translate(279.492188 0.015625)"/>
     <use xlink:href="#DejaVuSans-6e" transform="translate(307.275391 0.015625)"/>
     <use xlink:href="#DejaVuSans-20" transform="translate(370.654297 0.015625)"/>
     <use xlink:href="#DejaVuSans-Oblique-78" transform="translate(402.441406 0.015625)"/>
     <use xlink:href="#DejaVuSans-2d" transform="translate(461.621094 0.015625)"/>
     <use xlink:href="#DejaVuSans-70" transform="translate(497.705078 0.015625)"/>
     <use xlink:href="#DejaVuSans-6f" transform="translate(561.181641 0.015625)"/>
     <use xlink:href="#DejaVuSans-73" transform="translate(622.363281 0.015625)"/>
     <use xlink:href="#DejaVuSans-69" transform="translate(674.462891 0.015625)"/>
     <use xlink:href="#DejaVuSans-74" transform="translate(702.246094 0.015625)"/>
     <use xlink:href="#DejaVuSans-69" transform="translate(741.455078 0.015625)"/>
     <use xlink:href="#DejaVuSans-6f" transform="translate(769.238281 0.015625)"/>
     <use xlink:href="#DejaVuSans-6e" transform="translate(830.419922 0.015625)"/>
    </g>
   </g>
  </g>
  <g id="axes_2">
   <g id="patch_7">
    <path d="M 58.106 190.3975 
L 450 190.3975 
L 450 139.92 
L 58.106 139.92 
z
" style="fill: #ffffff"/>
   </g>
   <g id="matplotlib.axis_3">
    <g id="xtick_8">
     <g id="line2d_20">
      <path d="M 75.919364 190.3975 
L 75.919364 139.92 
" clip-path="url(#p90c9c67b15)" style="fill: none; stroke: #b0b0b0; stroke-width: 0.8; stroke-linecap: square"/>
     </g>
     <g id="line2d_21">
      <g>
       <use xlink:href="#m3890001bc9" x="75.919364" y="190.3975" style="stroke: #000000; stroke-width: 0.8"/>
      </g>
     </g>
     <g id="text_13">
      <!-- 0 -->
      <g transform="translate(72.738114 204.995937)scale(0.1 -0.1)">
       <use xlink:href="#DejaVuSans-30"/>
      </g>
     </g>
    </g>
    <g id="xtick_9">
     <g id="line2d_22">
      <path d="M 135.050861 190.3975 
L 135.050861 139.92 
" clip-path="url(#p90c9c67b15)" style="fill: none; stroke: #b0b0b0; stroke-width: 0.8; stroke-linecap: square"/>
     </g>
     <g id="line2d_23">
      <g>
       <use xlink:href="#m3890001bc9" x="135.050861" y="190.3975" style="stroke: #000000; stroke-width: 0.8"/>
      </g>
     </g>
     <g id="text_14">
      <!-- 2 -->
      <g transform="translate(131.869611 204.995937)scale(0.1 -0.1)">
       <use xlink:href="#DejaVuSans-32"/>
      </g>
     </g>
    </g>
    <g id="xtick_10">
     <g id="line2d_24">
      <path d="M 194.182359 190.3975 
L 194.182359 139.92 
" clip-path="url(#p90c9c67b15)" style="fill: none; stroke: #b0b0b0; stroke-width: 0.8; stroke-linecap: square"/>
     </g>
     <g id="line2d_25">
      <g>
       <use xlink:href="#m3890001bc9" x="194.182359" y="190.3975" style="stroke: #000000; stroke-width: 0.8"/>
      </g>
     </g>
     <g id="text_15">
      <!-- 4 -->
      <g transform="translate(191.001109 204.995937)scale(0.1 -0.1)">
       <use xlink:href="#DejaVuSans-34"/>
      </g>
     </g>
    </g>
    <g id="xtick_11">
     <g id="line2d_26">
      <path d="M 253.313856 190.3975 
L 253.313856 139.92 
" clip-path="url(#p90c9c67b15)" style="fill: none; stroke: #b0b0b0; stroke-width: 0.8; stroke-linecap: square"/>
     </g>
     <g id="line2d_27">
      <g>
       <use xlink:href="#m3890001bc9" x="253.313856" y="190.3975" style="stroke: #000000; stroke-width: 0.8"/>
      </g>
     </g>
     <g id="text_16">
      <!-- 6 -->
      <g transform="translate(250.132606 204.995937)scale(0.1 -0.1)">
       <use xlink:href="#DejaVuSans-36"/>
      </g>
     </g>
    </g>
    <g id="xtick_12">
     <g id="line2d_28">
      <path d="M 312.445354 190.3975 
L 312.445354 139.92 
" clip-path="url(#p90c9c67b15)" style="fill: none; stroke: #b0b0b0; stroke-width: 0.8; stroke-linecap: square"/>
     </g>
     <g id="line2d_29">
      <g>
       <use xlink:href="#m3890001bc9" x="312.445354" y="190.3975" style="stroke: #000000; stroke-width: 0.8"/>
      </g>
     </g>
     <g id="text_17">
      <!-- 8 -->
      <g transform="translate(309.264104 204.995937)scale(0.1 -0.1)">
       <use xlink:href="#DejaVuSans-38"/>
      </g>
     </g>
    </g>
    <g id="xtick_13">
     <g id="line2d_30">
      <path d="M 371.576851 190.3975 
L 371.576851 139.92 
" clip-path="url(#p90c9c67b15)" style="fill: none; stroke: #b0b0b0; stroke-width: 0.8; stroke-linecap: square"/>
     </g>
     <g id="line2d_31">
      <g>
       <use xlink:href="#m3890001bc9" x="371.576851" y="190.3975" style="stroke: #000000; stroke-width: 0.8"/>
      </g>
     </g>
     <g id="text_18">
      <!-- 10 -->
      <g transform="translate(365.214351 204.995937)scale(0.1 -0.1)">
       <use xlink:href="#DejaVuSans-31"/>
       <use xlink:href="#DejaVuSans-30" x="63.623047"/>
      </g>
     </g>
    </g>
    <g id="xtick_14">
     <g id="line2d_32">
      <path d="M 430.708349 190.3975 
L 430.708349 139.92 
" clip-path="url(#p90c9c67b15)" style="fill: none; stroke: #b0b0b0; stroke-width: 0.8; stroke-linecap: square"/>
     </g>
     <g id="line2d_33">
      <g>
       <use xlink:href="#m3890001bc9" x="430.708349" y="190.3975" style="stroke: #000000; stroke-width: 0.8"/>
      </g>
     </g>
     <g id="text_19">
      <!-- 12 -->
      <g transform="translate(424.345849 204.995937)scale(0.1 -0.1)">
       <use xlink:href="#DejaVuSans-31"/>
       <use xlink:href="#DejaVuSans-32" x="63.623047"/>
      </g>
     </g>
    </g>
    <g id="text_20">
     <!-- $t$ [s] -->
     <g transform="translate(243.953 218.674062)scale(0.1 -0.1)">
      <use xlink:href="#DejaVuSans-Oblique-74" transform="translate(0 0.015625)"/>
      <use xlink:href="#DejaVuSans-20" transform="translate(39.208984 0.015625)"/>
      <use xlink:href="#DejaVuSans-5b" transform="translate(70.996094 0.015625)"/>
      <use xlink:href="#DejaVuSans-73" transform="translate(110.009766 0.015625)"/>
      <use xlink:href="#DejaVuSans-5d" transform="translate(162.109375 0.015625)"/>
     </g>
    </g>
   </g>
   <g id="matplotlib.axis_4">
    <g id="ytick_3">
     <g id="line2d_34">
      <path d="M 58.106 180.660338 
L 450 180.660338 
" clip-path="url(#p90c9c67b15)" style="fill: none; stroke: #b0b0b0; stroke-width: 0.8; stroke-linecap: square"/>
     </g>
     <g id="line2d_35">
      <g>
       <use xlink:href="#mc12e0fdfd1" x="58.106" y="180.660338" style="stroke: #000000; stroke-width: 0.8"/>
      </g>
     </g>
     <g id="text_21">
      <!-- −0.1 -->
      <g transform="translate(26.823188 184.459557)scale(0.1 -0.1)">
       <defs>
        <path id="DejaVuSans-2212" d="M 678 2272 
L 4684 2272 
L 4684 1741 
L 678 1741 
L 678 2272 
z
" transform="scale(0.015625)"/>
        <path id="DejaVuSans-2e" d="M 684 794 
L 1344 794 
L 1344 0 
L 684 0 
L 684 794 
z
" transform="scale(0.015625)"/>
       </defs>
       <use xlink:href="#DejaVuSans-2212"/>
       <use xlink:href="#DejaVuSans-30" x="83.789062"/>
       <use xlink:href="#DejaVuSans-2e" x="147.412109"/>
       <use xlink:href="#DejaVuSans-31" x="179.199219"/>
      </g>
     </g>
    </g>
    <g id="ytick_4">
     <g id="line2d_36">
      <path d="M 58.106 165.953625 
L 450 165.953625 
" clip-path="url(#p90c9c67b15)" style="fill: none; stroke: #b0b0b0; stroke-width: 0.8; stroke-linecap: square"/>
     </g>
     <g id="line2d_37">
      <g>
       <use xlink:href="#mc12e0fdfd1" x="58.106" y="165.953625" style="stroke: #000000; stroke-width: 0.8"/>
      </g>
     </g>
     <g id="text_22">
      <!-- 0.0 -->
      <g transform="translate(35.202875 169.752844)scale(0.1 -0.1)">
       <use xlink:href="#DejaVuSans-30"/>
       <use xlink:href="#DejaVuSans-2e" x="63.623047"/>
       <use xlink:href="#DejaVuSans-30" x="95.410156"/>
      </g>
     </g>
    </g>
    <g id="ytick_5">
     <g id="line2d_38">
      <path d="M 58.106 151.246912 
L 450 151.246912 
" clip-path="url(#p90c9c67b15)" style="fill: none; stroke: #b0b0b0; stroke-width: 0.8; stroke-linecap: square"/>
     </g>
     <g id="line2d_39">
      <g>
       <use xlink:href="#mc12e0fdfd1" x="58.106" y="151.246912" style="stroke: #000000; stroke-width: 0.8"/>
      </g>
     </g>
     <g id="text_23">
      <!-- 0.1 -->
      <g transform="translate(35.202875 155.046131)scale(0.1 -0.1)">
       <use xlink:href="#DejaVuSans-30"/>
       <use xlink:href="#DejaVuSans-2e" x="63.623047"/>
       <use xlink:href="#DejaVuSans-31" x="95.410156"/>
      </g>
     </g>
    </g>
    <g id="text_24">
     <!-- $e_z$ [m] -->
     <g transform="translate(20.7435 180.60875)rotate(-90)scale(0.1 -0.1)">
      <defs>
       <path id="DejaVuSans-Oblique-7a" d="M 744 3500 
L 3475 3500 
L 3372 2975 
L 738 459 
L 2913 459 
L 2822 0 
L -19 0 
L 84 525 
L 2719 3041 
L 653 3041 
L 744 3500 
z
" transform="scale(0.015625)"/>
      </defs>
      <use xlink:href="#DejaVuSans-Oblique-65" transform="translate(0 0.015625)"/>
      <use xlink:href="#DejaVuSans-Oblique-7a" transform="translate(61.523438 -16.390625)scale(0.7)"/>
      <use xlink:href="#DejaVuSans-20" transform="translate(101.000977 0.015625)"/>
      <use xlink:href="#DejaVuSans-5b" transform="translate(132.788086 0.015625)"/>
      <use xlink:href="#DejaVuSans-6d" transform="translate(171.801758 0.015625)"/>
      <use xlink:href="#DejaVuSans-5d" transform="translate(269.213867 0.015625)"/>
     </g>
    </g>
   </g>
   <g id="line2d_40">
    <path d="M 75.919364 167.335669 
L 76.51117 167.131251 
L 78.582491 165.622059 
L 78.878394 165.622059 
L 79.4702 165.406855 
L 80.357909 165.418573 
L 81.245619 165.556082 
L 82.133328 165.54508 
L 83.612843 164.933324 
L 83.908746 164.457561 
L 84.204649 164.457561 
L 84.500552 164.007881 
L 85.388261 163.276443 
L 85.684164 162.808607 
L 85.980067 162.808607 
L 86.27597 162.199821 
L 86.867777 161.941126 
L 87.16368 161.779746 
L 87.755486 161.282608 
L 88.939098 160.270037 
L 89.235001 159.662225 
L 89.530904 159.662225 
L 89.826807 158.560213 
L 90.12271 158.358601 
L 90.714516 157.526734 
L 91.010419 156.67532 
L 91.306322 156.249975 
L 92.194031 154.494779 
L 92.489934 154.494779 
L 92.785838 153.874153 
L 93.96945 152.827608 
L 94.265353 152.827608 
L 94.857159 152.654494 
L 95.744868 152.717229 
L 96.040771 152.717229 
L 100.183414 154.22621 
L 101.071123 154.2775 
L 102.550638 153.878075 
L 103.73425 152.934448 
L 104.326056 152.3429 
L 104.62196 151.825519 
L 104.917863 151.825519 
L 105.213766 151.292336 
L 106.101475 150.39367 
L 106.397378 149.954309 
L 106.693281 149.954309 
L 106.989184 149.592292 
L 108.172796 148.967956 
L 108.468699 148.967956 
L 109.356408 148.523559 
L 109.948214 148.354002 
L 110.244117 148.228714 
L 111.131827 147.487727 
L 111.723633 147.252641 
L 112.019536 147.099786 
L 112.611342 146.678662 
L 113.499051 146.144162 
L 113.794954 146.144162 
L 114.38676 145.839986 
L 115.274469 145.386551 
L 115.570372 145.386551 
L 116.162178 145.021143 
L 116.753985 144.649296 
L 117.345791 144.123874 
L 118.825306 143.128705 
L 119.121209 142.815728 
L 120.304821 142.371133 
L 120.896627 142.216643 
L 122.08024 142.310271 
L 122.376143 142.48851 
L 122.672046 142.48851 
L 123.263852 142.803747 
L 123.855658 143.07525 
L 124.151561 143.489636 
L 124.447464 143.489636 
L 125.03927 144.081436 
L 125.631076 144.516331 
L 125.926979 144.970415 
L 126.222882 144.970415 
L 126.518785 145.651134 
L 127.110591 145.975494 
L 127.406494 146.182287 
L 127.702397 146.568777 
L 128.294204 147.00181 
L 128.590107 147.238138 
L 129.181913 147.461245 
L 129.773719 147.894652 
L 130.661428 148.523879 
L 130.957331 148.523879 
L 131.253234 149.090241 
L 131.84504 149.411194 
L 132.140943 149.638534 
L 132.436846 150.122454 
L 132.732749 150.122454 
L 133.028652 150.897301 
L 133.324555 151.028861 
L 133.916362 151.552374 
L 134.212265 152.058179 
L 134.804071 152.642686 
L 135.099974 152.959399 
L 135.69178 153.247965 
L 135.987683 153.59163 
L 137.467198 154.394366 
L 138.059004 154.850023 
L 138.946713 155.476842 
L 139.242616 155.674767 
L 139.538519 156.088358 
L 140.130326 156.614855 
L 140.426229 156.921774 
L 141.018035 157.213709 
L 141.313938 157.569223 
L 141.609841 157.569223 
L 141.905744 158.011425 
L 142.793453 158.291185 
L 144.568871 158.877071 
L 144.864774 159.100973 
L 145.160677 159.100973 
L 145.752484 159.445796 
L 146.640193 159.968789 
L 147.231999 160.496806 
L 148.415611 161.365001 
L 148.711514 161.752416 
L 150.191029 162.774912 
L 150.486932 163.149743 
L 151.670545 163.975019 
L 151.966448 164.57594 
L 152.262351 164.57594 
L 152.558254 165.122049 
L 153.445963 166.061427 
L 154.925478 168.487704 
L 155.813187 169.863028 
L 156.10909 170.610315 
L 156.996799 171.637424 
L 157.292703 172.248859 
L 157.588606 172.248859 
L 157.884509 173.063818 
L 158.476315 173.433542 
L 158.772218 173.670184 
L 159.068121 174.129911 
L 159.364024 174.129911 
L 159.659927 174.809884 
L 160.251733 175.148769 
L 160.547636 175.374888 
L 160.843539 175.830254 
L 161.435345 176.398288 
L 161.731248 176.730805 
L 162.323054 177.054115 
L 162.618957 177.471571 
L 163.506667 178.140778 
L 163.80257 178.473025 
L 164.098473 178.473025 
L 164.394376 178.757734 
L 165.873891 179.317845 
L 168.832921 179.819691 
L 169.128825 179.97629 
L 169.424728 179.97629 
L 170.016534 180.231005 
L 171.791952 180.612327 
L 173.271467 180.507544 
L 174.159176 180.523014 
L 176.822304 181.246341 
L 177.710013 181.203002 
L 180.077237 180.564111 
L 180.964947 180.717689 
L 181.26085 180.817333 
L 182.148559 181.489742 
L 183.036268 181.789607 
L 183.628074 182.006949 
L 184.21988 182.028364 
L 185.699395 181.650355 
L 186.291201 181.36282 
L 186.587105 181.36282 
L 187.178911 181.100873 
L 188.06662 181.021126 
L 188.362523 181.021126 
L 189.250232 181.460521 
L 189.546135 181.680955 
L 190.137941 181.906423 
L 190.433844 182.196967 
L 190.729747 182.196967 
L 191.02565 182.555907 
L 193.984681 182.935509 
L 195.464196 182.995638 
L 196.943711 183.65978 
L 197.239614 183.832291 
L 197.535517 184.204366 
L 198.127323 184.670889 
L 198.423227 184.932137 
L 199.015033 185.16708 
L 199.310936 185.425229 
L 200.494548 185.764714 
L 202.565869 185.660674 
L 203.749481 185.710181 
L 206.708512 186.664004 
L 207.892124 186.744393 
L 209.075736 186.530753 
L 209.667542 186.343705 
L 210.851155 186.196114 
L 212.034767 186.402506 
L 213.514282 186.904084 
L 214.697894 187.051002 
L 215.881506 186.872748 
L 217.065119 186.520085 
L 218.544634 186.357366 
L 219.728246 186.549664 
L 220.024149 186.690236 
L 220.320052 186.690236 
L 220.911858 186.907669 
L 222.687277 187.216848 
L 223.870889 187.092423 
L 225.054501 186.835668 
L 227.125822 186.754099 
L 228.013532 187.00627 
L 229.493047 187.565279 
L 230.676659 187.757046 
L 231.564368 187.655649 
L 232.156174 187.495051 
L 232.452077 187.342008 
L 232.74798 187.342008 
L 233.339786 187.100788 
L 234.227496 186.918486 
L 235.115205 186.976805 
L 235.707011 187.147418 
L 236.002914 187.333158 
L 236.298817 187.333158 
L 236.890623 187.647251 
L 237.482429 187.927185 
L 238.961944 188.077494 
L 240.44146 187.655655 
L 241.329169 187.331841 
L 242.512781 187.078483 
L 243.40049 187.211365 
L 244.584102 187.521397 
L 244.880005 187.653348 
L 245.471812 187.756062 
L 246.359521 187.816443 
L 248.430842 187.382219 
L 249.022648 187.15451 
L 250.502163 186.886727 
L 251.685776 186.946977 
L 252.869388 187.137144 
L 254.053 187.181441 
L 255.828418 186.947624 
L 256.420224 186.812614 
L 259.083352 186.426023 
L 263.817801 185.188107 
L 264.70551 185.220554 
L 265.889122 185.367558 
L 266.776831 185.389291 
L 267.66454 185.288512 
L 267.960443 185.147815 
L 268.256346 185.147815 
L 268.552249 184.862417 
L 269.439959 184.595943 
L 270.031765 184.269053 
L 270.919474 183.839418 
L 272.694892 183.144457 
L 273.582601 183.203383 
L 275.35802 183.572877 
L 276.245729 183.591614 
L 276.837535 183.45235 
L 277.429341 183.226587 
L 278.021147 182.992199 
L 278.908856 182.624359 
L 279.204759 182.27863 
L 279.796565 182.105128 
L 281.867887 181.3685 
L 282.755596 181.467349 
L 284.826917 182.075346 
L 285.714626 182.147828 
L 286.306432 182.045025 
L 290.153172 180.572334 
L 291.040881 180.491646 
L 292.520397 180.689412 
L 293.408106 180.954162 
L 294.887621 180.990408 
L 296.071233 180.695192 
L 296.663039 180.419455 
L 299.62207 179.652043 
L 300.805682 179.784016 
L 301.989294 180.101466 
L 302.877003 180.221516 
L 303.764712 180.195022 
L 307.611452 179.455062 
L 309.090967 179.495707 
L 312.345901 179.615739 
L 315.304931 179.504226 
L 317.672156 179.767386 
L 319.447574 179.812117 
L 322.998411 179.771456 
L 326.549247 180.314597 
L 328.028763 180.546486 
L 332.763211 180.883978 
L 333.650921 181.085036 
L 336.905854 181.498602 
L 339.273079 181.710076 
L 341.3444 182.138087 
L 343.415721 182.300034 
L 346.078849 182.429085 
L 347.558364 182.778832 
L 347.854267 182.962437 
L 348.15017 182.962437 
L 348.446073 183.303891 
L 349.037879 183.491055 
L 350.813297 184.163123 
L 351.701007 184.168351 
L 352.292813 184.056658 
L 352.588716 183.928347 
L 352.884619 183.928347 
L 353.476425 183.718738 
L 354.95594 183.463429 
L 356.435455 183.56504 
L 357.323165 183.678147 
L 358.210874 183.675857 
L 359.098583 183.40762 
L 359.690389 183.182894 
L 359.986292 183.048608 
L 360.874001 182.262775 
L 361.465807 182.037175 
L 362.945323 181.456286 
L 365.016644 181.185409 
L 365.312547 181.091426 
L 365.60845 180.834581 
L 365.904353 180.834581 
L 366.200256 180.279409 
L 366.496159 180.169256 
L 367.087965 179.695027 
L 367.383868 179.211798 
L 367.975674 178.63544 
L 368.567481 178.02066 
L 368.863384 178.02066 
L 369.159287 177.689271 
L 370.342899 177.245635 
L 373.006026 177.207428 
L 373.597832 177.036395 
L 375.965057 175.710811 
L 376.556863 175.532313 
L 378.924087 175.237174 
L 380.995409 173.407503 
L 381.291312 173.407503 
L 381.587215 172.847854 
L 382.474924 172.536464 
L 383.06673 172.394754 
L 383.954439 172.559953 
L 386.02576 173.186959 
L 386.91347 172.950321 
L 387.209373 172.749085 
L 387.505276 172.390793 
L 387.801179 172.390793 
L 388.097082 171.948811 
L 388.984791 171.115962 
L 389.280694 170.649415 
L 389.576597 170.649415 
L 389.8725 170.226241 
L 391.056112 169.578311 
L 392.239725 169.547221 
L 394.015143 169.634447 
L 394.606949 169.433012 
L 395.198755 168.977689 
L 396.086464 168.336437 
L 396.974173 167.380243 
L 398.157786 166.744456 
L 398.749592 166.620508 
L 399.637301 166.734011 
L 400.229107 166.948123 
L 401.412719 167.104859 
L 401.708622 166.950391 
L 402.300428 166.846963 
L 402.892234 166.557777 
L 403.48404 165.935852 
L 403.779944 165.935852 
L 404.075847 165.62292 
L 405.259459 165.178279 
L 406.147168 165.322482 
L 406.738974 165.56319 
L 407.626683 166.139358 
L 408.514392 166.329175 
L 409.402101 166.179514 
L 410.289811 165.780386 
L 410.881617 165.185781 
L 411.17752 164.947289 
L 412.065229 164.621261 
L 412.657035 164.42438 
L 413.248841 164.410214 
L 415.911969 164.850155 
L 416.799678 164.634664 
L 418.870999 163.516146 
L 419.462805 163.410522 
L 420.350514 163.495197 
L 420.646417 163.641745 
L 420.94232 163.641745 
L 421.238223 163.869518 
L 422.717739 163.960418 
L 424.197254 163.326568 
L 425.084963 162.539671 
L 426.268575 162.11494 
L 426.564478 161.986901 
L 427.452188 162.04233 
L 430.411218 163.700712 
L 431.298927 163.756073 
L 431.59483 163.756073 
L 431.890733 163.570565 
L 432.186636 163.526684 
L 432.186636 163.526684 
" clip-path="url(#p90c9c67b15)" style="fill: none; stroke: #0000ff; stroke-width: 1.5; stroke-linecap: square"/>
   </g>
   <g id="patch_8">
    <path d="M 58.106 190.3975 
L 58.106 139.92 
" style="fill: none; stroke: #000000; stroke-width: 0.8; stroke-linejoin: miter; stroke-linecap: square"/>
   </g>
   <g id="patch_9">
    <path d="M 450 190.3975 
L 450 139.92 
" style="fill: none; stroke: #000000; stroke-width: 0.8; stroke-linejoin: miter; stroke-linecap: square"/>
   </g>
   <g id="patch_10">
    <path d="M 58.106 190.3975 
L 450 190.3975 
" style="fill: none; stroke: #000000; stroke-width: 0.8; stroke-linejoin: miter; stroke-linecap: square"/>
   </g>
   <g id="patch_11">
    <path d="M 58.106 139.92 
L 450 139.92 
" style="fill: none; stroke: #000000; stroke-width: 0.8; stroke-linejoin: miter; stroke-linecap: square"/>
   </g>
   <g id="text_25">
    <!-- Error in $z$-position -->
    <g transform="translate(200.773 133.92)scale(0.12 -0.12)">
     <use xlink:href="#DejaVuSans-45" transform="translate(0 0.015625)"/>
     <use xlink:href="#DejaVuSans-72" transform="translate(63.183594 0.015625)"/>
     <use xlink:href="#DejaVuSans-72" transform="translate(104.296875 0.015625)"/>
     <use xlink:href="#DejaVuSans-6f" transform="translate(145.410156 0.015625)"/>
     <use xlink:href="#DejaVuSans-72" transform="translate(206.591797 0.015625)"/>
     <use xlink:href="#DejaVuSans-20" transform="translate(247.705078 0.015625)"/>
     <use xlink:href="#DejaVuSans-69" transform="translate(279.492188 0.015625)"/>
     <use xlink:href="#DejaVuSans-6e" transform="translate(307.275391 0.015625)"/>
     <use xlink:href="#DejaVuSans-20" transform="translate(370.654297 0.015625)"/>
     <use xlink:href="#DejaVuSans-Oblique-7a" transform="translate(402.441406 0.015625)"/>
     <use xlink:href="#DejaVuSans-2d" transform="translate(454.931641 0.015625)"/>
     <use xlink:href="#DejaVuSans-70" transform="translate(491.015625 0.015625)"/>
     <use xlink:href="#DejaVuSans-6f" transform="translate(554.492188 0.015625)"/>
     <use xlink:href="#DejaVuSans-73" transform="translate(615.673828 0.015625)"/>
     <use xlink:href="#DejaVuSans-69" transform="translate(667.773438 0.015625)"/>
     <use xlink:href="#DejaVuSans-74" transform="translate(695.556641 0.015625)"/>
     <use xlink:href="#DejaVuSans-69" transform="translate(734.765625 0.015625)"/>
     <use xlink:href="#DejaVuSans-6f" transform="translate(762.548828 0.015625)"/>
     <use xlink:href="#DejaVuSans-6e" transform="translate(823.730469 0.015625)"/>
    </g>
   </g>
  </g>
  <g id="axes_3">
   <g id="patch_12">
    <path d="M 58.106 301.9975 
L 450 301.9975 
L 450 251.52 
L 58.106 251.52 
z
" style="fill: #ffffff"/>
   </g>
   <g id="matplotlib.axis_5">
    <g id="xtick_15">
     <g id="line2d_41">
      <path d="M 75.919364 301.9975 
L 75.919364 251.52 
" clip-path="url(#p02b48df9eb)" style="fill: none; stroke: #b0b0b0; stroke-width: 0.8; stroke-linecap: square"/>
     </g>
     <g id="line2d_42">
      <g>
       <use xlink:href="#m3890001bc9" x="75.919364" y="301.9975" style="stroke: #000000; stroke-width: 0.8"/>
      </g>
     </g>
     <g id="text_26">
      <!-- 0 -->
      <g transform="translate(72.738114 316.595937)scale(0.1 -0.1)">
       <use xlink:href="#DejaVuSans-30"/>
      </g>
     </g>
    </g>
    <g id="xtick_16">
     <g id="line2d_43">
      <path d="M 135.050861 301.9975 
L 135.050861 251.52 
" clip-path="url(#p02b48df9eb)" style="fill: none; stroke: #b0b0b0; stroke-width: 0.8; stroke-linecap: square"/>
     </g>
     <g id="line2d_44">
      <g>
       <use xlink:href="#m3890001bc9" x="135.050861" y="301.9975" style="stroke: #000000; stroke-width: 0.8"/>
      </g>
     </g>
     <g id="text_27">
      <!-- 2 -->
      <g transform="translate(131.869611 316.595937)scale(0.1 -0.1)">
       <use xlink:href="#DejaVuSans-32"/>
      </g>
     </g>
    </g>
    <g id="xtick_17">
     <g id="line2d_45">
      <path d="M 194.182359 301.9975 
L 194.182359 251.52 
" clip-path="url(#p02b48df9eb)" style="fill: none; stroke: #b0b0b0; stroke-width: 0.8; stroke-linecap: square"/>
     </g>
     <g id="line2d_46">
      <g>
       <use xlink:href="#m3890001bc9" x="194.182359" y="301.9975" style="stroke: #000000; stroke-width: 0.8"/>
      </g>
     </g>
     <g id="text_28">
      <!-- 4 -->
      <g transform="translate(191.001109 316.595937)scale(0.1 -0.1)">
       <use xlink:href="#DejaVuSans-34"/>
      </g>
     </g>
    </g>
    <g id="xtick_18">
     <g id="line2d_47">
      <path d="M 253.313856 301.9975 
L 253.313856 251.52 
" clip-path="url(#p02b48df9eb)" style="fill: none; stroke: #b0b0b0; stroke-width: 0.8; stroke-linecap: square"/>
     </g>
     <g id="line2d_48">
      <g>
       <use xlink:href="#m3890001bc9" x="253.313856" y="301.9975" style="stroke: #000000; stroke-width: 0.8"/>
      </g>
     </g>
     <g id="text_29">
      <!-- 6 -->
      <g transform="translate(250.132606 316.595937)scale(0.1 -0.1)">
       <use xlink:href="#DejaVuSans-36"/>
      </g>
     </g>
    </g>
    <g id="xtick_19">
     <g id="line2d_49">
      <path d="M 312.445354 301.9975 
L 312.445354 251.52 
" clip-path="url(#p02b48df9eb)" style="fill: none; stroke: #b0b0b0; stroke-width: 0.8; stroke-linecap: square"/>
     </g>
     <g id="line2d_50">
      <g>
       <use xlink:href="#m3890001bc9" x="312.445354" y="301.9975" style="stroke: #000000; stroke-width: 0.8"/>
      </g>
     </g>
     <g id="text_30">
      <!-- 8 -->
      <g transform="translate(309.264104 316.595937)scale(0.1 -0.1)">
       <use xlink:href="#DejaVuSans-38"/>
      </g>
     </g>
    </g>
    <g id="xtick_20">
     <g id="line2d_51">
      <path d="M 371.576851 301.9975 
L 371.576851 251.52 
" clip-path="url(#p02b48df9eb)" style="fill: none; stroke: #b0b0b0; stroke-width: 0.8; stroke-linecap: square"/>
     </g>
     <g id="line2d_52">
      <g>
       <use xlink:href="#m3890001bc9" x="371.576851" y="301.9975" style="stroke: #000000; stroke-width: 0.8"/>
      </g>
     </g>
     <g id="text_31">
      <!-- 10 -->
      <g transform="translate(365.214351 316.595937)scale(0.1 -0.1)">
       <use xlink:href="#DejaVuSans-31"/>
       <use xlink:href="#DejaVuSans-30" x="63.623047"/>
      </g>
     </g>
    </g>
    <g id="xtick_21">
     <g id="line2d_53">
      <path d="M 430.708349 301.9975 
L 430.708349 251.52 
" clip-path="url(#p02b48df9eb)" style="fill: none; stroke: #b0b0b0; stroke-width: 0.8; stroke-linecap: square"/>
     </g>
     <g id="line2d_54">
      <g>
       <use xlink:href="#m3890001bc9" x="430.708349" y="301.9975" style="stroke: #000000; stroke-width: 0.8"/>
      </g>
     </g>
     <g id="text_32">
      <!-- 12 -->
      <g transform="translate(424.345849 316.595937)scale(0.1 -0.1)">
       <use xlink:href="#DejaVuSans-31"/>
       <use xlink:href="#DejaVuSans-32" x="63.623047"/>
      </g>
     </g>
    </g>
    <g id="text_33">
     <!-- $t$ [s] -->
     <g transform="translate(243.953 330.274063)scale(0.1 -0.1)">
      <use xlink:href="#DejaVuSans-Oblique-74" transform="translate(0 0.015625)"/>
      <use xlink:href="#DejaVuSans-20" transform="translate(39.208984 0.015625)"/>
      <use xlink:href="#DejaVuSans-5b" transform="translate(70.996094 0.015625)"/>
      <use xlink:href="#DejaVuSans-73" transform="translate(110.009766 0.015625)"/>
      <use xlink:href="#DejaVuSans-5d" transform="translate(162.109375 0.015625)"/>
     </g>
    </g>
   </g>
   <g id="matplotlib.axis_6">
    <g id="ytick_6">
     <g id="line2d_55">
      <path d="M 58.106 295.349988 
L 450 295.349988 
" clip-path="url(#p02b48df9eb)" style="fill: none; stroke: #b0b0b0; stroke-width: 0.8; stroke-linecap: square"/>
     </g>
     <g id="line2d_56">
      <g>
       <use xlink:href="#mc12e0fdfd1" x="58.106" y="295.349988" style="stroke: #000000; stroke-width: 0.8"/>
      </g>
     </g>
     <g id="text_34">
      <!-- −0.1 -->
      <g transform="translate(26.823188 299.149207)scale(0.1 -0.1)">
       <use xlink:href="#DejaVuSans-2212"/>
       <use xlink:href="#DejaVuSans-30" x="83.789062"/>
       <use xlink:href="#DejaVuSans-2e" x="147.412109"/>
       <use xlink:href="#DejaVuSans-31" x="179.199219"/>
      </g>
     </g>
    </g>
    <g id="ytick_7">
     <g id="line2d_57">
      <path d="M 58.106 278.409889 
L 450 278.409889 
" clip-path="url(#p02b48df9eb)" style="fill: none; stroke: #b0b0b0; stroke-width: 0.8; stroke-linecap: square"/>
     </g>
     <g id="line2d_58">
      <g>
       <use xlink:href="#mc12e0fdfd1" x="58.106" y="278.409889" style="stroke: #000000; stroke-width: 0.8"/>
      </g>
     </g>
     <g id="text_35">
      <!-- 0.0 -->
      <g transform="translate(35.202875 282.209107)scale(0.1 -0.1)">
       <use xlink:href="#DejaVuSans-30"/>
       <use xlink:href="#DejaVuSans-2e" x="63.623047"/>
       <use xlink:href="#DejaVuSans-30" x="95.410156"/>
      </g>
     </g>
    </g>
    <g id="ytick_8">
     <g id="line2d_59">
      <path d="M 58.106 261.469789 
L 450 261.469789 
" clip-path="url(#p02b48df9eb)" style="fill: none; stroke: #b0b0b0; stroke-width: 0.8; stroke-linecap: square"/>
     </g>
     <g id="line2d_60">
      <g>
       <use xlink:href="#mc12e0fdfd1" x="58.106" y="261.469789" style="stroke: #000000; stroke-width: 0.8"/>
      </g>
     </g>
     <g id="text_36">
      <!-- 0.1 -->
      <g transform="translate(35.202875 265.269008)scale(0.1 -0.1)">
       <use xlink:href="#DejaVuSans-30"/>
       <use xlink:href="#DejaVuSans-2e" x="63.623047"/>
       <use xlink:href="#DejaVuSans-31" x="95.410156"/>
      </g>
     </g>
    </g>
    <g id="text_37">
     <!-- $e_\theta$ [rad] -->
     <g transform="translate(20.7435 295.90875)rotate(-90)scale(0.1 -0.1)">
      <defs>
       <path id="DejaVuSans-Oblique-3b8" d="M 2913 2219 
L 925 2219 
Q 791 1284 928 888 
Q 1100 400 1566 400 
Q 2034 400 2391 891 
Q 2703 1322 2913 2219 
z
M 3009 2750 
Q 3094 3638 2984 3950 
Q 2813 4444 2353 4444 
Q 1875 4444 1525 3956 
Q 1250 3563 1034 2750 
L 3009 2750 
z
M 2444 4913 
Q 3194 4913 3494 4250 
Q 3794 3591 3566 2422 
Q 3341 1256 2781 594 
Q 2225 -72 1475 -72 
Q 722 -72 425 594 
Q 128 1256 353 2422 
Q 581 3591 1134 4250 
Q 1691 4913 2444 4913 
z
" transform="scale(0.015625)"/>
       <path id="DejaVuSans-61" d="M 2194 1759 
Q 1497 1759 1228 1600 
Q 959 1441 959 1056 
Q 959 750 1161 570 
Q 1363 391 1709 391 
Q 2188 391 2477 730 
Q 2766 1069 2766 1631 
L 2766 1759 
L 2194 1759 
z
M 3341 1997 
L 3341 0 
L 2766 0 
L 2766 531 
Q 2569 213 2275 61 
Q 1981 -91 1556 -91 
Q 1019 -91 701 211 
Q 384 513 384 1019 
Q 384 1609 779 1909 
Q 1175 2209 1959 2209 
L 2766 2209 
L 2766 2266 
Q 2766 2663 2505 2880 
Q 2244 3097 1772 3097 
Q 1472 3097 1187 3025 
Q 903 2953 641 2809 
L 641 3341 
Q 956 3463 1253 3523 
Q 1550 3584 1831 3584 
Q 2591 3584 2966 3190 
Q 3341 2797 3341 1997 
z
" transform="scale(0.015625)"/>
       <path id="DejaVuSans-64" d="M 2906 2969 
L 2906 4863 
L 3481 4863 
L 3481 0 
L 2906 0 
L 2906 525 
Q 2725 213 2448 61 
Q 2172 -91 1784 -91 
Q 1150 -91 751 415 
Q 353 922 353 1747 
Q 353 2572 751 3078 
Q 1150 3584 1784 3584 
Q 2172 3584 2448 3432 
Q 2725 3281 2906 2969 
z
M 947 1747 
Q 947 1113 1208 752 
Q 1469 391 1925 391 
Q 2381 391 2643 752 
Q 2906 1113 2906 1747 
Q 2906 2381 2643 2742 
Q 2381 3103 1925 3103 
Q 1469 3103 1208 2742 
Q 947 2381 947 1747 
z
" transform="scale(0.015625)"/>
      </defs>
      <use xlink:href="#DejaVuSans-Oblique-65" transform="translate(0 0.015625)"/>
      <use xlink:href="#DejaVuSans-Oblique-3b8" transform="translate(61.523438 -16.390625)scale(0.7)"/>
      <use xlink:href="#DejaVuSans-20" transform="translate(107.084961 0.015625)"/>
      <use xlink:href="#DejaVuSans-5b" transform="translate(138.87207 0.015625)"/>
      <use xlink:href="#DejaVuSans-72" transform="translate(177.885742 0.015625)"/>
      <use xlink:href="#DejaVuSans-61" transform="translate(218.999023 0.015625)"/>
      <use xlink:href="#DejaVuSans-64" transform="translate(280.27832 0.015625)"/>
      <use xlink:href="#DejaVuSans-5d" transform="translate(343.754883 0.015625)"/>
     </g>
    </g>
   </g>
   <g id="line2d_61">
    <path d="M 75.919364 278.327642 
L 76.51117 277.895997 
L 76.807073 277.354817 
L 78.286588 270.289153 
L 78.582491 266.319599 
L 78.878394 266.319599 
L 79.174297 263.666657 
L 79.766103 261.652823 
L 80.357909 260.405943 
L 80.653812 260.684148 
L 81.245619 261.902966 
L 81.837425 263.759653 
L 82.133328 265.419602 
L 82.429231 267.815257 
L 83.612843 272.937177 
L 83.908746 276.542764 
L 84.204649 276.542764 
L 84.500552 279.871469 
L 85.388261 285.462549 
L 85.684164 289.096855 
L 85.980067 289.096855 
L 86.27597 293.110393 
L 86.571873 293.521377 
L 87.16368 294.519306 
L 87.459583 294.924432 
L 88.051389 295.285859 
L 88.347292 295.501154 
L 88.939098 295.676752 
L 89.235001 295.810293 
L 89.530904 295.810293 
L 90.12271 295.505054 
L 90.418613 295.074866 
L 90.714516 294.360463 
L 91.898128 284.37316 
L 92.194031 281.131993 
L 92.489934 281.131993 
L 92.785838 276.913042 
L 93.081741 274.898135 
L 93.96945 266.957964 
L 94.265353 266.957964 
L 94.561256 264.122312 
L 95.744868 259.514261 
L 96.040771 259.514261 
L 96.336674 258.864272 
L 96.92848 258.558199 
L 97.224383 258.537033 
L 98.112092 259.463722 
L 98.703899 260.514859 
L 98.999802 261.590043 
L 99.295705 263.468646 
L 99.591608 263.468646 
L 99.887511 265.934343 
L 100.77522 270.696535 
L 101.071123 273.49543 
L 101.367026 277.496007 
L 102.550638 286.044632 
L 103.438347 294.641102 
L 104.326056 298.90088 
L 104.62196 299.703068 
L 104.917863 299.703068 
L 105.509669 298.304811 
L 105.805572 297.271706 
L 106.101475 295.363288 
L 106.397378 292.355939 
L 106.693281 292.355939 
L 106.989184 289.13478 
L 107.285087 287.481339 
L 108.172796 280.30145 
L 108.468699 280.30145 
L 109.060505 275.707545 
L 109.356408 274.361687 
L 110.244117 273.505697 
L 110.540021 274.165212 
L 112.019536 279.555584 
L 112.315439 281.571514 
L 113.203148 283.98112 
L 113.499051 284.259155 
L 113.794954 284.259155 
L 114.38676 283.831079 
L 114.978566 282.29028 
L 115.274469 281.168513 
L 115.570372 281.168513 
L 115.866275 279.383187 
L 116.458082 277.3373 
L 116.753985 275.682148 
L 117.049888 273.37247 
L 118.529403 267.260902 
L 119.417112 261.83153 
L 120.896627 256.678629 
L 121.19253 256.424862 
L 121.488433 256.35241 
L 121.784336 256.45824 
L 122.08024 256.742461 
L 122.376143 258.21638 
L 122.672046 258.21638 
L 122.967949 260.032766 
L 123.855658 263.178309 
L 124.151561 265.52918 
L 124.447464 265.52918 
L 124.743367 267.015735 
L 125.335173 268.183827 
L 125.926979 269.081852 
L 126.222882 269.081852 
L 127.406494 268.082053 
L 127.702397 267.414256 
L 128.590107 266.622947 
L 129.181913 266.655667 
L 130.069622 267.722356 
L 130.661428 268.550226 
L 130.957331 268.550226 
L 131.253234 269.491044 
L 131.549137 269.638416 
L 132.140943 270.202946 
L 132.436846 270.74239 
L 132.732749 270.74239 
L 133.028652 271.584736 
L 133.324555 271.740252 
L 133.916362 272.438197 
L 134.212265 273.298911 
L 134.508168 273.798092 
L 135.099974 275.63411 
L 135.395877 275.981828 
L 135.69178 276.69185 
L 135.987683 278.143096 
L 136.283586 278.865664 
L 136.875392 280.933704 
L 137.171295 281.278491 
L 137.467198 281.946208 
L 137.763101 283.139784 
L 138.354907 284.375428 
L 138.65081 284.980181 
L 138.946713 285.171069 
L 139.242616 285.527547 
L 139.538519 286.066344 
L 140.130326 286.399655 
L 140.722132 286.372604 
L 141.018035 286.269998 
L 141.313938 285.872245 
L 141.609841 285.872245 
L 141.905744 284.781467 
L 142.201647 284.550764 
L 143.089356 282.993903 
L 143.977065 280.632443 
L 144.568871 279.640654 
L 144.864774 278.537933 
L 145.160677 278.537933 
L 145.45658 277.805266 
L 146.34429 276.651464 
L 146.640193 275.992299 
L 147.231999 274.211441 
L 147.823805 272.493383 
L 148.119708 271.460758 
L 148.415611 269.719647 
L 148.711514 267.11459 
L 149.895126 261.404929 
L 150.486932 257.246014 
L 151.078738 255.644569 
L 151.966448 253.887406 
L 153.15006 253.927401 
L 153.741866 254.234476 
L 154.333672 254.84572 
L 156.404993 256.312246 
L 156.996799 256.530699 
L 157.292703 256.816684 
L 157.588606 256.816684 
L 157.884509 257.604347 
L 158.180412 257.795643 
L 158.772218 258.752682 
L 159.068121 259.968141 
L 159.364024 259.968141 
L 159.659927 262.072739 
L 159.95583 262.442642 
L 160.547636 263.916684 
L 160.843539 265.215793 
L 161.731248 266.870692 
L 162.618957 267.264705 
L 163.210764 267.032265 
L 163.80257 266.344619 
L 164.098473 266.344619 
L 164.394376 266.103351 
L 164.986182 266.149554 
L 165.282085 266.316905 
L 165.577988 266.768116 
L 165.873891 267.661837 
L 167.057503 269.925269 
L 167.353406 270.5538 
L 167.649309 270.5538 
L 167.945212 270.842049 
L 169.128825 270.980228 
L 169.424728 270.980228 
L 170.312437 271.792862 
L 170.60834 272.556348 
L 170.904243 274.103377 
L 171.200146 274.103377 
L 171.496049 276.252231 
L 172.383758 280.224007 
L 172.975564 284.354238 
L 173.56737 285.877865 
L 174.159176 286.709623 
L 174.455079 286.394079 
L 174.750982 286.394079 
L 175.342789 284.678764 
L 175.934595 283.150558 
L 176.822304 280.127783 
L 177.41411 279.491801 
L 177.710013 279.420442 
L 178.005916 279.625845 
L 178.301819 280.285069 
L 178.893625 280.978481 
L 179.485431 281.291027 
L 179.781334 280.800436 
L 180.077237 280.800436 
L 180.669043 279.025563 
L 181.26085 277.499751 
L 181.556753 276.027877 
L 182.148559 274.548068 
L 182.740365 274.405226 
L 183.036268 274.594579 
L 183.923977 278.083487 
L 184.515783 281.592643 
L 184.811686 281.592643 
L 185.107589 283.381155 
L 185.403492 283.792692 
L 185.699395 283.676985 
L 185.995298 282.660369 
L 186.291201 280.837435 
L 186.587105 280.837435 
L 186.883008 277.495265 
L 187.474814 273.571542 
L 188.06662 266.599313 
L 188.362523 266.599313 
L 188.658426 262.962913 
L 189.546135 257.929663 
L 190.137941 257.524518 
L 190.433844 258.345545 
L 190.729747 258.345545 
L 191.02565 261.971374 
L 191.321553 262.765872 
L 191.913359 266.249339 
L 192.505166 272.348959 
L 192.801069 274.361718 
L 193.096972 274.894782 
L 193.392875 275.704456 
L 193.688778 276.14318 
L 193.984681 276.192579 
L 194.280584 275.537881 
L 194.87239 272.083241 
L 195.464196 268.87769 
L 196.056002 262.940196 
L 196.351905 260.569627 
L 196.647808 259.830625 
L 197.535517 255.849563 
L 197.83142 255.725702 
L 198.127323 256.294864 
L 198.423227 257.706347 
L 198.71913 258.339808 
L 199.015033 259.821351 
L 199.310936 263.441309 
L 199.606839 265.434084 
L 200.494548 274.467476 
L 200.790451 274.467476 
L 201.086354 277.432943 
L 201.382257 278.4223 
L 201.67816 279.005393 
L 201.974063 279.108742 
L 203.453578 272.95829 
L 204.045384 268.099319 
L 204.341288 268.099319 
L 204.637191 265.793768 
L 205.228997 264.179265 
L 205.5249 263.713211 
L 206.116706 265.265479 
L 206.708512 267.934895 
L 207.004415 269.609222 
L 207.300318 272.406741 
L 207.596221 276.305418 
L 208.48393 281.65401 
L 209.075736 284.605612 
L 209.371639 285.344087 
L 209.667542 285.170842 
L 209.963445 284.687026 
L 210.555252 282.982283 
L 210.851155 281.221381 
L 211.147058 278.520439 
L 212.034767 274.24606 
L 212.626573 270.561651 
L 212.922476 269.385518 
L 213.218379 269.385518 
L 213.514282 268.840236 
L 213.810185 269.05886 
L 214.106088 269.604039 
L 214.401991 270.991242 
L 214.697894 273.683974 
L 215.881506 280.306692 
L 216.473313 284.399383 
L 216.769216 284.867621 
L 217.065119 284.99506 
L 217.361022 284.802171 
L 217.656925 284.304618 
L 217.952828 283.023696 
L 218.248731 280.512959 
L 219.432343 274.001452 
L 220.024149 268.23398 
L 220.320052 268.23398 
L 220.615955 265.609664 
L 221.207761 263.99609 
L 221.503664 263.736702 
L 222.391374 267.096645 
L 222.687277 268.619786 
L 223.279083 273.692169 
L 223.574986 274.529046 
L 223.870889 276.113627 
L 224.166792 278.652153 
L 224.758598 280.095197 
L 225.350404 279.652379 
L 225.646307 278.94747 
L 226.829919 270.386043 
L 227.125822 269.520331 
L 227.421725 267.79916 
L 227.717629 264.523486 
L 228.605338 260.044482 
L 229.197144 259.627772 
L 229.78895 261.374318 
L 230.084853 262.632789 
L 230.380756 264.962356 
L 230.676659 268.635831 
L 230.972562 268.635831 
L 231.268465 272.440055 
L 232.452077 279.132303 
L 232.74798 279.132303 
L 233.043883 278.868877 
L 233.339786 278.257331 
L 234.523399 273.092892 
L 234.819302 270.274294 
L 235.707011 265.564692 
L 236.002914 263.276862 
L 236.298817 263.276862 
L 236.59472 261.993157 
L 236.890623 261.876529 
L 237.186526 262.415707 
L 237.482429 263.768363 
L 237.778332 264.383913 
L 238.074235 265.82592 
L 238.370138 269.298012 
L 238.666041 271.22042 
L 239.257847 277.083833 
L 239.553751 278.0036 
L 239.849654 279.691726 
L 240.145557 282.131328 
L 240.44146 282.756986 
L 240.737363 282.920216 
L 241.033266 282.282694 
L 241.329169 281.923517 
L 241.625072 281.019128 
L 241.920975 278.639015 
L 242.512781 275.80136 
L 243.40049 269.173338 
L 244.288199 265.408069 
L 244.584102 264.251005 
L 244.880005 264.037435 
L 245.175908 264.037435 
L 246.063618 268.016619 
L 246.359521 270.570633 
L 246.655424 274.351138 
L 246.951327 274.351138 
L 247.24723 278.183757 
L 247.839036 281.46538 
L 248.430842 283.809104 
L 248.726745 283.839943 
L 249.022648 283.301643 
L 249.614454 281.351549 
L 250.20626 278.608596 
L 250.502163 276.252496 
L 250.798066 272.966781 
L 251.685776 268.150755 
L 251.981679 265.335229 
L 252.277582 265.335229 
L 252.573485 263.305408 
L 252.869388 263.316107 
L 253.165291 263.640714 
L 253.461194 264.359995 
L 254.644806 274.230825 
L 254.940709 275.241262 
L 255.236612 277.233566 
L 255.532515 280.834401 
L 255.828418 280.834401 
L 256.124321 284.341996 
L 256.716127 285.013178 
L 257.012031 285.022874 
L 257.307934 283.986728 
L 257.603837 283.986728 
L 257.89974 280.139395 
L 258.195643 279.304092 
L 258.787449 275.628954 
L 259.379255 268.874893 
L 259.675158 266.167793 
L 259.971061 265.323246 
L 260.85877 260.891088 
L 261.154673 260.891088 
L 261.450576 261.718934 
L 261.746479 262.19866 
L 262.338285 264.891443 
L 262.634188 268.569051 
L 262.930092 268.569051 
L 263.225995 274.998054 
L 263.521898 276.106657 
L 265.001413 286.585559 
L 265.297316 286.911314 
L 265.593219 286.818984 
L 265.889122 286.317788 
L 266.480928 281.897836 
L 266.776831 279.105088 
L 267.072734 278.10715 
L 267.66454 273.949535 
L 267.960443 269.711067 
L 268.256346 269.711067 
L 268.552249 263.873906 
L 268.848153 263.005583 
L 269.735862 258.531913 
L 270.031765 258.391123 
L 270.327668 259.003396 
L 270.623571 260.532115 
L 270.919474 261.222155 
L 271.215377 262.820973 
L 271.51128 266.716236 
L 272.103086 271.150116 
L 272.694892 279.086929 
L 272.990795 279.086929 
L 273.286698 283.066503 
L 274.174407 287.780898 
L 274.47031 287.910868 
L 274.766214 287.910868 
L 275.35802 285.433256 
L 276.245729 279.3676 
L 276.541632 277.312612 
L 276.837535 273.069833 
L 277.133438 270.921174 
L 277.725244 264.770703 
L 278.021147 263.826377 
L 278.31705 262.068557 
L 278.612953 259.37866 
L 278.908856 259.37866 
L 279.204759 258.138718 
L 279.500662 258.286474 
L 279.796565 258.866918 
L 280.092468 259.815371 
L 281.276081 270.70729 
L 281.571984 271.808072 
L 281.867887 274.010241 
L 282.16379 278.175269 
L 283.347402 285.760118 
L 283.643305 285.760118 
L 283.939208 286.309773 
L 284.235111 285.763583 
L 284.531014 284.480919 
L 284.826917 283.910295 
L 285.418723 281.070612 
L 285.714626 277.638105 
L 286.010529 275.796361 
L 286.602336 270.10285 
L 286.898239 269.179735 
L 287.194142 267.402777 
L 287.490045 264.28084 
L 288.081851 261.941262 
L 288.377754 261.511851 
L 288.673657 261.527996 
L 288.96956 261.805333 
L 289.561366 265.23059 
L 289.857269 267.662018 
L 290.153172 268.559431 
L 290.744978 272.372739 
L 291.336784 278.945463 
L 291.632687 281.299111 
L 291.92859 282.001492 
L 292.8163 285.498913 
L 293.112203 285.526423 
L 293.408106 284.795439 
L 293.704009 284.396708 
L 294.295815 282.133076 
L 294.591718 279.047817 
L 294.887621 277.323088 
L 295.77533 269.231547 
L 296.071233 269.231547 
L 296.367136 266.233664 
L 296.958942 264.246719 
L 297.254845 263.655717 
L 297.550748 264.15382 
L 297.846651 264.15382 
L 298.734361 269.731836 
L 299.326167 275.284038 
L 299.62207 275.284038 
L 300.213876 281.589331 
L 300.509779 283.669377 
L 300.805682 284.231077 
L 301.397488 285.748534 
L 301.693391 286.015574 
L 301.989294 285.348364 
L 302.285197 283.984612 
L 302.5811 283.393276 
L 303.172906 280.494546 
L 303.764712 274.196264 
L 304.060616 271.437729 
L 304.356519 270.545542 
L 305.540131 264.076083 
L 305.836034 263.603659 
L 306.131937 263.884672 
L 306.42784 264.902711 
L 306.723743 264.902711 
L 307.315549 268.850535 
L 307.611452 270.58411 
L 307.907355 273.379871 
L 308.203258 277.276731 
L 308.499161 277.276731 
L 308.795064 280.98234 
L 309.682773 285.953301 
L 309.978677 286.968862 
L 310.27458 286.881546 
L 310.570483 286.406159 
L 311.162289 284.436861 
L 311.458192 282.254426 
L 311.754095 278.710276 
L 312.937707 270.916276 
L 313.529513 265.038458 
L 314.121319 262.852763 
L 314.417222 262.208904 
L 314.713125 261.891809 
L 315.009028 261.937786 
L 315.304931 262.699948 
L 315.896738 266.377985 
L 316.784447 271.779699 
L 317.672156 280.101663 
L 318.855768 286.333975 
L 319.151671 286.333975 
L 319.447574 286.070074 
L 319.743477 285.375869 
L 320.335283 283.086394 
L 320.631186 279.964237 
L 320.927089 279.964237 
L 321.222992 274.50187 
L 321.518895 273.565531 
L 322.110702 269.849673 
L 322.406605 266.452701 
L 323.294314 261.888731 
L 323.88612 261.318471 
L 324.182023 261.82285 
L 324.477926 262.609486 
L 324.773829 263.72216 
L 325.069732 265.878552 
L 325.365635 269.380695 
L 325.661538 269.380695 
L 325.957441 273.24105 
L 326.549247 277.184113 
L 327.141053 283.470569 
L 327.436957 283.470569 
L 327.73286 286.320385 
L 328.324666 288.230087 
L 328.620569 288.692318 
L 328.916472 288.648459 
L 330.395987 280.942194 
L 330.69189 279.005176 
L 331.579599 270.189685 
L 332.763211 263.389904 
L 333.059114 262.176444 
L 333.355018 262.149747 
L 333.650921 262.505709 
L 333.946824 263.22613 
L 334.242727 265.592663 
L 334.53863 265.592663 
L 334.834533 270.667242 
L 335.130436 271.595216 
L 335.722242 275.360112 
L 336.018145 279.055857 
L 336.314048 279.055857 
L 336.609951 284.161934 
L 336.905854 284.944789 
L 337.793563 289.478704 
L 338.089466 289.837743 
L 338.385369 289.672431 
L 338.681272 288.697661 
L 338.977175 288.20493 
L 339.273079 286.989691 
L 339.568982 283.802665 
L 340.160788 279.911006 
L 340.752594 272.549765 
L 341.048497 272.549765 
L 341.3444 268.535574 
L 342.232109 263.554103 
L 342.528012 261.9465 
L 342.823915 261.064911 
L 343.119818 261.184363 
L 343.415721 261.660238 
L 344.007527 263.537471 
L 344.30343 265.618145 
L 344.599333 268.959997 
L 346.374752 280.182242 
L 346.670655 282.856289 
L 347.262461 284.974371 
L 347.854267 286.83145 
L 348.15017 286.83145 
L 348.741976 286.020371 
L 349.333782 284.059754 
L 349.629685 281.340175 
L 349.925588 279.819767 
L 350.517394 275.300602 
L 350.813297 274.620631 
L 351.109201 273.375158 
L 351.405104 271.436764 
L 351.99691 270.223178 
L 352.588716 269.339761 
L 353.180522 269.3595 
L 353.772328 269.730957 
L 354.068231 270.053443 
L 354.364134 270.70863 
L 354.660037 271.822499 
L 355.547746 273.747128 
L 356.139552 275.8323 
L 356.435455 275.8323 
L 356.731359 276.7898 
L 357.619068 277.961301 
L 357.914971 278.210965 
L 358.506777 278.108224 
L 358.80268 277.925847 
L 359.986292 276.194578 
L 360.578098 274.207704 
L 360.874001 273.354537 
L 361.169904 273.087756 
L 362.057613 271.757356 
L 362.353516 271.757356 
L 363.537129 272.690293 
L 363.833032 273.182186 
L 364.720741 273.089442 
L 365.312547 272.283913 
L 365.60845 270.956685 
L 365.904353 270.956685 
L 366.200256 268.422865 
L 366.496159 267.994027 
L 367.383868 265.56539 
L 367.679771 265.46387 
L 367.975674 265.81284 
L 368.271577 266.729184 
L 368.567481 268.115504 
L 368.863384 268.115504 
L 369.159287 270.478901 
L 369.751093 273.213358 
L 370.342899 278.237845 
L 370.638802 278.237845 
L 370.934705 280.903275 
L 371.526511 283.143238 
L 372.118317 284.812544 
L 372.41422 284.919858 
L 372.710123 284.523452 
L 373.301929 282.907306 
L 373.597832 281.751626 
L 373.893735 279.713069 
L 374.189638 276.881792 
L 374.781445 274.524716 
L 375.373251 273.033295 
L 375.669154 272.442232 
L 375.965057 272.442232 
L 376.852766 273.326319 
L 377.148669 273.754614 
L 377.444572 274.872562 
L 377.740475 274.872562 
L 378.036378 277.256872 
L 378.332281 277.729458 
L 378.924087 279.75466 
L 379.21999 281.808648 
L 380.107699 284.997127 
L 380.699506 285.542809 
L 381.291312 285.524333 
L 381.587215 284.181711 
L 381.883118 283.838766 
L 382.474924 282.236342 
L 382.770827 280.417157 
L 383.362633 278.303304 
L 383.658536 277.288048 
L 383.954439 277.007663 
L 384.546245 276.137124 
L 384.842148 276.165071 
L 385.138051 276.34502 
L 385.433954 276.884233 
L 385.729857 278.061977 
L 386.02576 278.061977 
L 386.321664 279.689672 
L 386.91347 281.61506 
L 387.505276 284.58925 
L 387.801179 284.58925 
L 388.097082 285.520001 
L 388.392985 285.684817 
L 388.688888 285.612731 
L 388.984791 284.984941 
L 389.280694 283.188626 
L 389.576597 283.188626 
L 389.8725 280.61866 
L 390.464306 277.757463 
L 391.056112 273.391065 
L 391.647918 271.803832 
L 391.943822 271.338589 
L 392.239725 271.122887 
L 392.535628 271.167895 
L 392.831531 271.703029 
L 393.423337 273.981536 
L 394.311046 276.980064 
L 395.198755 280.84167 
L 395.790561 281.806441 
L 396.086464 282.027205 
L 396.382367 281.940189 
L 397.861883 277.056295 
L 398.749592 272.171633 
L 399.341398 270.877595 
L 399.637301 270.481424 
L 400.229107 271.147577 
L 401.116816 272.932074 
L 401.412719 273.579119 
L 401.708622 275.328162 
L 402.004525 275.328162 
L 402.596331 275.851634 
L 403.48404 276.324179 
L 403.779944 276.324179 
L 404.667653 277.819313 
L 404.963556 278.797088 
L 405.259459 280.158469 
L 406.147168 281.888378 
L 406.738974 282.541186 
L 407.034877 282.559451 
L 408.514392 279.28911 
L 408.810295 277.723458 
L 409.106198 277.723458 
L 409.402101 276.877569 
L 409.993908 276.398316 
L 410.289811 276.321128 
L 410.585714 276.619468 
L 410.881617 277.300097 
L 411.17752 278.384263 
L 411.473423 278.827279 
L 412.065229 280.874994 
L 412.361132 282.902702 
L 412.952938 284.529115 
L 413.248841 284.865849 
L 413.544744 284.714386 
L 413.840647 284.714386 
L 415.024259 280.637187 
L 415.320162 278.571097 
L 416.207872 275.894469 
L 416.799678 274.780636 
L 417.095581 274.594432 
L 417.98329 276.635195 
L 419.166902 280.199781 
L 419.462805 280.394204 
L 419.758708 280.423046 
L 420.054611 280.304439 
L 420.350514 280.056838 
L 420.646417 279.27879 
L 420.94232 279.27879 
L 421.238223 278.04378 
L 421.83003 277.767264 
L 422.125933 277.811807 
L 422.421836 278.074758 
L 422.717739 278.873266 
L 423.013642 280.542548 
L 424.197254 284.189735 
L 424.493157 284.97398 
L 424.78906 285.133624 
L 425.972672 284.550967 
L 426.268575 284.550967 
L 426.564478 285.520201 
L 426.860381 285.766272 
L 428.043994 287.619394 
L 429.227606 287.525907 
L 429.523509 287.824808 
L 429.819412 287.824808 
L 430.115315 289.41692 
L 430.411218 289.807072 
L 431.003024 291.633591 
L 431.298927 293.640136 
L 431.59483 293.640136 
L 431.890733 296.097155 
L 432.186636 296.380487 
L 432.186636 296.380487 
" clip-path="url(#p02b48df9eb)" style="fill: none; stroke: #008000; stroke-width: 1.5; stroke-linecap: square"/>
   </g>
   <g id="patch_13">
    <path d="M 58.106 301.9975 
L 58.106 251.52 
" style="fill: none; stroke: #000000; stroke-width: 0.8; stroke-linejoin: miter; stroke-linecap: square"/>
   </g>
   <g id="patch_14">
    <path d="M 450 301.9975 
L 450 251.52 
" style="fill: none; stroke: #000000; stroke-width: 0.8; stroke-linejoin: miter; stroke-linecap: square"/>
   </g>
   <g id="patch_15">
    <path d="M 58.106 301.9975 
L 450 301.9975 
" style="fill: none; stroke: #000000; stroke-width: 0.8; stroke-linejoin: miter; stroke-linecap: square"/>
   </g>
   <g id="patch_16">
    <path d="M 58.106 251.52 
L 450 251.52 
" style="fill: none; stroke: #000000; stroke-width: 0.8; stroke-linejoin: miter; stroke-linecap: square"/>
   </g>
   <g id="text_38">
    <!-- Error in swing angle -->
    <g transform="translate(194.282688 245.52)scale(0.12 -0.12)">
     <defs>
      <path id="DejaVuSans-77" d="M 269 3500 
L 844 3500 
L 1563 769 
L 2278 3500 
L 2956 3500 
L 3675 769 
L 4391 3500 
L 4966 3500 
L 4050 0 
L 3372 0 
L 2619 2869 
L 1863 0 
L 1184 0 
L 269 3500 
z
" transform="scale(0.015625)"/>
      <path id="DejaVuSans-67" d="M 2906 1791 
Q 2906 2416 2648 2759 
Q 2391 3103 1925 3103 
Q 1463 3103 1205 2759 
Q 947 2416 947 1791 
Q 947 1169 1205 825 
Q 1463 481 1925 481 
Q 2391 481 2648 825 
Q 2906 1169 2906 1791 
z
M 3481 434 
Q 3481 -459 3084 -895 
Q 2688 -1331 1869 -1331 
Q 1566 -1331 1297 -1286 
Q 1028 -1241 775 -1147 
L 775 -588 
Q 1028 -725 1275 -790 
Q 1522 -856 1778 -856 
Q 2344 -856 2625 -561 
Q 2906 -266 2906 331 
L 2906 616 
Q 2728 306 2450 153 
Q 2172 0 1784 0 
Q 1141 0 747 490 
Q 353 981 353 1791 
Q 353 2603 747 3093 
Q 1141 3584 1784 3584 
Q 2172 3584 2450 3431 
Q 2728 3278 2906 2969 
L 2906 3500 
L 3481 3500 
L 3481 434 
z
" transform="scale(0.015625)"/>
      <path id="DejaVuSans-6c" d="M 603 4863 
L 1178 4863 
L 1178 0 
L 603 0 
L 603 4863 
z
" transform="scale(0.015625)"/>
      <path id="DejaVuSans-65" d="M 3597 1894 
L 3597 1613 
L 953 1613 
Q 991 1019 1311 708 
Q 1631 397 2203 397 
Q 2534 397 2845 478 
Q 3156 559 3463 722 
L 3463 178 
Q 3153 47 2828 -22 
Q 2503 -91 2169 -91 
Q 1331 -91 842 396 
Q 353 884 353 1716 
Q 353 2575 817 3079 
Q 1281 3584 2069 3584 
Q 2775 3584 3186 3129 
Q 3597 2675 3597 1894 
z
M 3022 2063 
Q 3016 2534 2758 2815 
Q 2500 3097 2075 3097 
Q 1594 3097 1305 2825 
Q 1016 2553 972 2059 
L 3022 2063 
z
" transform="scale(0.015625)"/>
     </defs>
     <use xlink:href="#DejaVuSans-45"/>
     <use xlink:href="#DejaVuSans-72" x="63.183594"/>
     <use xlink:href="#DejaVuSans-72" x="102.546875"/>
     <use xlink:href="#DejaVuSans-6f" x="141.410156"/>
     <use xlink:href="#DejaVuSans-72" x="202.591797"/>
     <use xlink:href="#DejaVuSans-20" x="243.705078"/>
     <use xlink:href="#DejaVuSans-69" x="275.492188"/>
     <use xlink:href="#DejaVuSans-6e" x="303.275391"/>
     <use xlink:href="#DejaVuSans-20" x="366.654297"/>
     <use xlink:href="#DejaVuSans-73" x="398.441406"/>
     <use xlink:href="#DejaVuSans-77" x="450.541016"/>
     <use xlink:href="#DejaVuSans-69" x="532.328125"/>
     <use xlink:href="#DejaVuSans-6e" x="560.111328"/>
     <use xlink:href="#DejaVuSans-67" x="623.490234"/>
     <use xlink:href="#DejaVuSans-20" x="686.966797"/>
     <use xlink:href="#DejaVuSans-61" x="718.753906"/>
     <use xlink:href="#DejaVuSans-6e" x="780.033203"/>
     <use xlink:href="#DejaVuSans-67" x="843.412109"/>
     <use xlink:href="#DejaVuSans-6c" x="906.888672"/>
     <use xlink:href="#DejaVuSans-65" x="934.671875"/>
    </g>
   </g>
  </g>
 </g>
 <defs>
  <clipPath id="p4317091a50">
   <rect x="58.106" y="28.32" width="391.894" height="50.4775"/>
  </clipPath>
  <clipPath id="p90c9c67b15">
   <rect x="58.106" y="139.92" width="391.894" height="50.4775"/>
  </clipPath>
  <clipPath id="p02b48df9eb">
   <rect x="58.106" y="251.52" width="391.894" height="50.4775"/>
  </clipPath>
 </defs>
</svg>
