<?xml version="1.0" encoding="utf-8" standalone="no"?>
<!DOCTYPE svg PUBLIC "-//W3C//DTD SVG 1.1//EN"
  "http://www.w3.org/Graphics/SVG/1.1/DTD/svg11.dtd">
<svg xmlns:xlink="http://www.w3.org/1999/xlink" width="460.8pt" height="345.6pt" viewBox="0 0 460.8 345.6" xmlns="http://www.w3.org/2000/svg" version="1.1">
 <metadata>
  <rdf:RDF xmlns:dc="http://purl.org/dc/elements/1.1/" xmlns:cc="http://creativecommons.org/ns#" xmlns:rdf="http://www.w3.org/1999/02/22-rdf-syntax-ns#">
   <cc:Work>
    <dc:type rdf:resource="http://purl.org/dc/dcmitype/StillImage"/>
    <dc:date>2022-06-05T14:12:14.495951</dc:date>
    <dc:format>image/svg+xml</dc:format>
    <dc:creator>
     <cc:Agent>
      <dc:title>Matplotlib v3.5.1, https://matplotlib.org/</dc:title>
     </cc:Agent>
    </dc:creator>
   </cc:Work>
  </rdf:RDF>
 </metadata>
 <defs>
  <style type="text/css">*{stroke-linejoin: round; stroke-linecap: butt}</style>
 </defs>
 <g id="figure_1">
  <g id="patch_1">
   <path d="M 0 345.6 
L 460.8 345.6 
L 460.8 0 
L 0 0 
z
" style="fill: #ffffff"/>
  </g>
  <g id="axes_1">
   <g id="patch_2">
    <path d="M 58.106 78.7975 
L 450 78.7975 
L 450 28.32 
L 58.106 28.32 
z
" style="fill: #ffffff"/>
   </g>
   <g id="matplotlib.axis_1">
    <g id="xtick_1">
     <g id="line2d_1">
      <path d="M 75.919364 78.7975 
L 75.919364 28.32 
" clip-path="url(#pd947df7e0b)" style="fill: none; stroke: #b0b0b0; stroke-width: 0.8; stroke-linecap: square"/>
     </g>
     <g id="line2d_2">
      <defs>
       <path id="mcd5b354378" d="M 0 0 
L 0 3.5 
" style="stroke: #000000; stroke-width: 0.8"/>
      </defs>
      <g>
       <use xlink:href="#mcd5b354378" x="75.919364" y="78.7975" style="stroke: #000000; stroke-width: 0.8"/>
      </g>
     </g>
     <g id="text_1">
      <!-- 0 -->
      <g transform="translate(72.738114 93.395937)scale(0.1 -0.1)">
       <defs>
        <path id="DejaVuSans-30" d="M 2034 4250 
Q 1547 4250 1301 3770 
Q 1056 3291 1056 2328 
Q 1056 1369 1301 889 
Q 1547 409 2034 409 
Q 2525 409 2770 889 
Q 3016 1369 3016 2328 
Q 3016 3291 2770 3770 
Q 2525 4250 2034 4250 
z
M 2034 4750 
Q 2819 4750 3233 4129 
Q 3647 3509 3647 2328 
Q 3647 1150 3233 529 
Q 2819 -91 2034 -91 
Q 1250 -91 836 529 
Q 422 1150 422 2328 
Q 422 3509 836 4129 
Q 1250 4750 2034 4750 
z
" transform="scale(0.015625)"/>
       </defs>
       <use xlink:href="#DejaVuSans-30"/>
      </g>
     </g>
    </g>
    <g id="xtick_2">
     <g id="line2d_3">
      <path d="M 131.586125 78.7975 
L 131.586125 28.32 
" clip-path="url(#pd947df7e0b)" style="fill: none; stroke: #b0b0b0; stroke-width: 0.8; stroke-linecap: square"/>
     </g>
     <g id="line2d_4">
      <g>
       <use xlink:href="#mcd5b354378" x="131.586125" y="78.7975" style="stroke: #000000; stroke-width: 0.8"/>
      </g>
     </g>
     <g id="text_2">
      <!-- 2 -->
      <g transform="translate(128.404875 93.395937)scale(0.1 -0.1)">
       <defs>
        <path id="DejaVuSans-32" d="M 1228 531 
L 3431 531 
L 3431 0 
L 469 0 
L 469 531 
Q 828 903 1448 1529 
Q 2069 2156 2228 2338 
Q 2531 2678 2651 2914 
Q 2772 3150 2772 3378 
Q 2772 3750 2511 3984 
Q 2250 4219 1831 4219 
Q 1534 4219 1204 4116 
Q 875 4013 500 3803 
L 500 4441 
Q 881 4594 1212 4672 
Q 1544 4750 1819 4750 
Q 2544 4750 2975 4387 
Q 3406 4025 3406 3419 
Q 3406 3131 3298 2873 
Q 3191 2616 2906 2266 
Q 2828 2175 2409 1742 
Q 1991 1309 1228 531 
z
" transform="scale(0.015625)"/>
       </defs>
       <use xlink:href="#DejaVuSans-32"/>
      </g>
     </g>
    </g>
    <g id="xtick_3">
     <g id="line2d_5">
      <path d="M 187.252886 78.7975 
L 187.252886 28.32 
" clip-path="url(#pd947df7e0b)" style="fill: none; stroke: #b0b0b0; stroke-width: 0.8; stroke-linecap: square"/>
     </g>
     <g id="line2d_6">
      <g>
       <use xlink:href="#mcd5b354378" x="187.252886" y="78.7975" style="stroke: #000000; stroke-width: 0.8"/>
      </g>
     </g>
     <g id="text_3">
      <!-- 4 -->
      <g transform="translate(184.071636 93.395937)scale(0.1 -0.1)">
       <defs>
        <path id="DejaVuSans-34" d="M 2419 4116 
L 825 1625 
L 2419 1625 
L 2419 4116 
z
M 2253 4666 
L 3047 4666 
L 3047 1625 
L 3713 1625 
L 3713 1100 
L 3047 1100 
L 3047 0 
L 2419 0 
L 2419 1100 
L 313 1100 
L 313 1709 
L 2253 4666 
z
" transform="scale(0.015625)"/>
       </defs>
       <use xlink:href="#DejaVuSans-34"/>
      </g>
     </g>
    </g>
    <g id="xtick_4">
     <g id="line2d_7">
      <path d="M 242.919648 78.7975 
L 242.919648 28.32 
" clip-path="url(#pd947df7e0b)" style="fill: none; stroke: #b0b0b0; stroke-width: 0.8; stroke-linecap: square"/>
     </g>
     <g id="line2d_8">
      <g>
       <use xlink:href="#mcd5b354378" x="242.919648" y="78.7975" style="stroke: #000000; stroke-width: 0.8"/>
      </g>
     </g>
     <g id="text_4">
      <!-- 6 -->
      <g transform="translate(239.738398 93.395937)scale(0.1 -0.1)">
       <defs>
        <path id="DejaVuSans-36" d="M 2113 2584 
Q 1688 2584 1439 2293 
Q 1191 2003 1191 1497 
Q 1191 994 1439 701 
Q 1688 409 2113 409 
Q 2538 409 2786 701 
Q 3034 994 3034 1497 
Q 3034 2003 2786 2293 
Q 2538 2584 2113 2584 
z
M 3366 4563 
L 3366 3988 
Q 3128 4100 2886 4159 
Q 2644 4219 2406 4219 
Q 1781 4219 1451 3797 
Q 1122 3375 1075 2522 
Q 1259 2794 1537 2939 
Q 1816 3084 2150 3084 
Q 2853 3084 3261 2657 
Q 3669 2231 3669 1497 
Q 3669 778 3244 343 
Q 2819 -91 2113 -91 
Q 1303 -91 875 529 
Q 447 1150 447 2328 
Q 447 3434 972 4092 
Q 1497 4750 2381 4750 
Q 2619 4750 2861 4703 
Q 3103 4656 3366 4563 
z
" transform="scale(0.015625)"/>
       </defs>
       <use xlink:href="#DejaVuSans-36"/>
      </g>
     </g>
    </g>
    <g id="xtick_5">
     <g id="line2d_9">
      <path d="M 298.586409 78.7975 
L 298.586409 28.32 
" clip-path="url(#pd947df7e0b)" style="fill: none; stroke: #b0b0b0; stroke-width: 0.8; stroke-linecap: square"/>
     </g>
     <g id="line2d_10">
      <g>
       <use xlink:href="#mcd5b354378" x="298.586409" y="78.7975" style="stroke: #000000; stroke-width: 0.8"/>
      </g>
     </g>
     <g id="text_5">
      <!-- 8 -->
      <g transform="translate(295.405159 93.395937)scale(0.1 -0.1)">
       <defs>
        <path id="DejaVuSans-38" d="M 2034 2216 
Q 1584 2216 1326 1975 
Q 1069 1734 1069 1313 
Q 1069 891 1326 650 
Q 1584 409 2034 409 
Q 2484 409 2743 651 
Q 3003 894 3003 1313 
Q 3003 1734 2745 1975 
Q 2488 2216 2034 2216 
z
M 1403 2484 
Q 997 2584 770 2862 
Q 544 3141 544 3541 
Q 544 4100 942 4425 
Q 1341 4750 2034 4750 
Q 2731 4750 3128 4425 
Q 3525 4100 3525 3541 
Q 3525 3141 3298 2862 
Q 3072 2584 2669 2484 
Q 3125 2378 3379 2068 
Q 3634 1759 3634 1313 
Q 3634 634 3220 271 
Q 2806 -91 2034 -91 
Q 1263 -91 848 271 
Q 434 634 434 1313 
Q 434 1759 690 2068 
Q 947 2378 1403 2484 
z
M 1172 3481 
Q 1172 3119 1398 2916 
Q 1625 2713 2034 2713 
Q 2441 2713 2670 2916 
Q 2900 3119 2900 3481 
Q 2900 3844 2670 4047 
Q 2441 4250 2034 4250 
Q 1625 4250 1398 4047 
Q 1172 3844 1172 3481 
z
" transform="scale(0.015625)"/>
       </defs>
       <use xlink:href="#DejaVuSans-38"/>
      </g>
     </g>
    </g>
    <g id="xtick_6">
     <g id="line2d_11">
      <path d="M 354.25317 78.7975 
L 354.25317 28.32 
" clip-path="url(#pd947df7e0b)" style="fill: none; stroke: #b0b0b0; stroke-width: 0.8; stroke-linecap: square"/>
     </g>
     <g id="line2d_12">
      <g>
       <use xlink:href="#mcd5b354378" x="354.25317" y="78.7975" style="stroke: #000000; stroke-width: 0.8"/>
      </g>
     </g>
     <g id="text_6">
      <!-- 10 -->
      <g transform="translate(347.89067 93.395937)scale(0.1 -0.1)">
       <defs>
        <path id="DejaVuSans-31" d="M 794 531 
L 1825 531 
L 1825 4091 
L 703 3866 
L 703 4441 
L 1819 4666 
L 2450 4666 
L 2450 531 
L 3481 531 
L 3481 0 
L 794 0 
L 794 531 
z
" transform="scale(0.015625)"/>
       </defs>
       <use xlink:href="#DejaVuSans-31"/>
       <use xlink:href="#DejaVuSans-30" x="63.623047"/>
      </g>
     </g>
    </g>
    <g id="xtick_7">
     <g id="line2d_13">
      <path d="M 409.919932 78.7975 
L 409.919932 28.32 
" clip-path="url(#pd947df7e0b)" style="fill: none; stroke: #b0b0b0; stroke-width: 0.8; stroke-linecap: square"/>
     </g>
     <g id="line2d_14">
      <g>
       <use xlink:href="#mcd5b354378" x="409.919932" y="78.7975" style="stroke: #000000; stroke-width: 0.8"/>
      </g>
     </g>
     <g id="text_7">
      <!-- 12 -->
      <g transform="translate(403.557432 93.395937)scale(0.1 -0.1)">
       <use xlink:href="#DejaVuSans-31"/>
       <use xlink:href="#DejaVuSans-32" x="63.623047"/>
      </g>
     </g>
    </g>
    <g id="text_8">
     <!-- $t$ [s] -->
     <g transform="translate(243.953 107.074062)scale(0.1 -0.1)">
      <defs>
       <path id="DejaVuSans-Oblique-74" d="M 2706 3500 
L 2619 3053 
L 1472 3053 
L 1100 1153 
Q 1081 1047 1072 975 
Q 1063 903 1063 863 
Q 1063 663 1183 572 
Q 1303 481 1569 481 
L 2150 481 
L 2053 0 
L 1503 0 
Q 991 0 739 200 
Q 488 400 488 806 
Q 488 878 497 964 
Q 506 1050 525 1153 
L 897 3053 
L 409 3053 
L 500 3500 
L 978 3500 
L 1172 4494 
L 1747 4494 
L 1556 3500 
L 2706 3500 
z
" transform="scale(0.015625)"/>
       <path id="DejaVuSans-20" transform="scale(0.015625)"/>
       <path id="DejaVuSans-5b" d="M 550 4863 
L 1875 4863 
L 1875 4416 
L 1125 4416 
L 1125 -397 
L 1875 -397 
L 1875 -844 
L 550 -844 
L 550 4863 
z
" transform="scale(0.015625)"/>
       <path id="DejaVuSans-73" d="M 2834 3397 
L 2834 2853 
Q 2591 2978 2328 3040 
Q 2066 3103 1784 3103 
Q 1356 3103 1142 2972 
Q 928 2841 928 2578 
Q 928 2378 1081 2264 
Q 1234 2150 1697 2047 
L 1894 2003 
Q 2506 1872 2764 1633 
Q 3022 1394 3022 966 
Q 3022 478 2636 193 
Q 2250 -91 1575 -91 
Q 1294 -91 989 -36 
Q 684 19 347 128 
L 347 722 
Q 666 556 975 473 
Q 1284 391 1588 391 
Q 1994 391 2212 530 
Q 2431 669 2431 922 
Q 2431 1156 2273 1281 
Q 2116 1406 1581 1522 
L 1381 1569 
Q 847 1681 609 1914 
Q 372 2147 372 2553 
Q 372 3047 722 3315 
Q 1072 3584 1716 3584 
Q 2034 3584 2315 3537 
Q 2597 3491 2834 3397 
z
" transform="scale(0.015625)"/>
       <path id="DejaVuSans-5d" d="M 1947 4863 
L 1947 -844 
L 622 -844 
L 622 -397 
L 1369 -397 
L 1369 4416 
L 622 4416 
L 622 4863 
L 1947 4863 
z
" transform="scale(0.015625)"/>
      </defs>
      <use xlink:href="#DejaVuSans-Oblique-74" transform="translate(0 0.015625)"/>
      <use xlink:href="#DejaVuSans-20" transform="translate(39.208984 0.015625)"/>
      <use xlink:href="#DejaVuSans-5b" transform="translate(70.996094 0.015625)"/>
      <use xlink:href="#DejaVuSans-73" transform="translate(110.009766 0.015625)"/>
      <use xlink:href="#DejaVuSans-5d" transform="translate(162.109375 0.015625)"/>
     </g>
    </g>
   </g>
   <g id="matplotlib.axis_2">
    <g id="ytick_1">
     <g id="line2d_15">
      <path d="M 58.106 76.603963 
L 450 76.603963 
" clip-path="url(#pd947df7e0b)" style="fill: none; stroke: #b0b0b0; stroke-width: 0.8; stroke-linecap: square"/>
     </g>
     <g id="line2d_16">
      <defs>
       <path id="madbb54b7c2" d="M 0 0 
L -3.5 0 
" style="stroke: #000000; stroke-width: 0.8"/>
      </defs>
      <g>
       <use xlink:href="#madbb54b7c2" x="58.106" y="76.603963" style="stroke: #000000; stroke-width: 0.8"/>
      </g>
     </g>
     <g id="text_9">
      <!-- 0 -->
      <g transform="translate(44.7435 80.403182)scale(0.1 -0.1)">
       <use xlink:href="#DejaVuSans-30"/>
      </g>
     </g>
    </g>
    <g id="ytick_2">
     <g id="line2d_17">
      <path d="M 58.106 30.614432 
L 450 30.614432 
" clip-path="url(#pd947df7e0b)" style="fill: none; stroke: #b0b0b0; stroke-width: 0.8; stroke-linecap: square"/>
     </g>
     <g id="line2d_18">
      <g>
       <use xlink:href="#madbb54b7c2" x="58.106" y="30.614432" style="stroke: #000000; stroke-width: 0.8"/>
      </g>
     </g>
     <g id="text_10">
      <!-- 10 -->
      <g transform="translate(38.381 34.413651)scale(0.1 -0.1)">
       <use xlink:href="#DejaVuSans-31"/>
       <use xlink:href="#DejaVuSans-30" x="63.623047"/>
      </g>
     </g>
    </g>
    <g id="text_11">
     <!-- $e_x$ [m] -->
     <g transform="translate(32.301313 69.20875)rotate(-90)scale(0.1 -0.1)">
      <defs>
       <path id="DejaVuSans-Oblique-65" d="M 3078 2063 
Q 3088 2113 3092 2166 
Q 3097 2219 3097 2272 
Q 3097 2653 2873 2875 
Q 2650 3097 2266 3097 
Q 1838 3097 1509 2826 
Q 1181 2556 1013 2059 
L 3078 2063 
z
M 3578 1613 
L 903 1613 
Q 884 1494 878 1425 
Q 872 1356 872 1306 
Q 872 872 1139 634 
Q 1406 397 1894 397 
Q 2269 397 2603 481 
Q 2938 566 3225 728 
L 3116 159 
Q 2806 34 2476 -28 
Q 2147 -91 1806 -91 
Q 1078 -91 686 257 
Q 294 606 294 1247 
Q 294 1794 489 2264 
Q 684 2734 1063 3103 
Q 1306 3334 1642 3459 
Q 1978 3584 2356 3584 
Q 2950 3584 3301 3228 
Q 3653 2872 3653 2272 
Q 3653 2128 3634 1964 
Q 3616 1800 3578 1613 
z
" transform="scale(0.015625)"/>
       <path id="DejaVuSans-Oblique-78" d="M 3841 3500 
L 2234 1784 
L 3219 0 
L 2559 0 
L 1819 1388 
L 531 0 
L -166 0 
L 1556 1844 
L 641 3500 
L 1300 3500 
L 1972 2234 
L 3144 3500 
L 3841 3500 
z
" transform="scale(0.015625)"/>
       <path id="DejaVuSans-6d" d="M 3328 2828 
Q 3544 3216 3844 3400 
Q 4144 3584 4550 3584 
Q 5097 3584 5394 3201 
Q 5691 2819 5691 2113 
L 5691 0 
L 5113 0 
L 5113 2094 
Q 5113 2597 4934 2840 
Q 4756 3084 4391 3084 
Q 3944 3084 3684 2787 
Q 3425 2491 3425 1978 
L 3425 0 
L 2847 0 
L 2847 2094 
Q 2847 2600 2669 2842 
Q 2491 3084 2119 3084 
Q 1678 3084 1418 2786 
Q 1159 2488 1159 1978 
L 1159 0 
L 581 0 
L 581 3500 
L 1159 3500 
L 1159 2956 
Q 1356 3278 1631 3431 
Q 1906 3584 2284 3584 
Q 2666 3584 2933 3390 
Q 3200 3197 3328 2828 
z
" transform="scale(0.015625)"/>
      </defs>
      <use xlink:href="#DejaVuSans-Oblique-65" transform="translate(0 0.015625)"/>
      <use xlink:href="#DejaVuSans-Oblique-78" transform="translate(61.523438 -16.390625)scale(0.7)"/>
      <use xlink:href="#DejaVuSans-20" transform="translate(105.683594 0.015625)"/>
      <use xlink:href="#DejaVuSans-5b" transform="translate(137.470703 0.015625)"/>
      <use xlink:href="#DejaVuSans-6d" transform="translate(176.484375 0.015625)"/>
      <use xlink:href="#DejaVuSans-5d" transform="translate(273.896484 0.015625)"/>
     </g>
    </g>
   </g>
   <g id="line2d_19">
    <path d="M 75.919364 30.614432 
L 83.440252 30.726487 
L 97.089272 31.262423 
L 100.431889 31.54802 
L 102.381749 31.810209 
L 105.445815 32.217085 
L 106.838572 32.459103 
L 107.674226 32.556036 
L 110.45974 32.956684 
L 111.573946 33.171418 
L 112.688152 33.34067 
L 114.638012 33.701853 
L 116.866423 34.1499 
L 117.423526 34.236179 
L 119.930489 34.708721 
L 120.766143 34.88239 
L 123.830209 35.473579 
L 124.665863 35.66765 
L 126.894274 36.156433 
L 129.679789 36.866428 
L 131.629649 37.343991 
L 131.9082 37.486875 
L 132.186752 37.486875 
L 133.022406 37.718394 
L 134.972266 38.221119 
L 135.250817 38.370963 
L 135.529369 38.370963 
L 136.365023 38.611785 
L 137.200677 38.793019 
L 137.479229 38.97467 
L 138.314883 39.126247 
L 139.150537 39.399217 
L 141.100397 39.944595 
L 141.6575 40.035322 
L 142.493154 40.336769 
L 143.328809 40.486629 
L 144.164463 40.784044 
L 145.000117 40.931504 
L 145.835771 41.223862 
L 146.949977 41.426361 
L 149.45694 42.102264 
L 151.963903 42.693975 
L 152.799557 42.905972 
L 155.30652 43.488771 
L 156.142174 43.701384 
L 158.649137 44.287028 
L 159.484791 44.499073 
L 161.713203 45.021432 
L 162.548857 45.225302 
L 164.498717 45.59952 
L 165.05582 45.771864 
L 166.727128 46.138916 
L 167.562783 46.333236 
L 170.626848 46.951378 
L 171.462502 47.138387 
L 173.969465 47.654395 
L 174.80512 47.841699 
L 177.312082 48.341506 
L 178.147737 48.517962 
L 180.654699 49.026231 
L 182.883111 49.482635 
L 183.997317 49.630262 
L 184.554419 49.776962 
L 186.782831 50.181636 
L 187.897037 50.420505 
L 190.403999 50.886674 
L 191.239654 51.049882 
L 193.746616 51.501823 
L 194.582271 51.672889 
L 196.810682 52.105273 
L 197.646336 52.274163 
L 200.153299 52.723534 
L 200.988954 52.887672 
L 203.495916 53.353444 
L 204.331571 53.522872 
L 208.231291 54.210842 
L 212.131011 54.970191 
L 212.688113 55.050317 
L 216.309282 55.677815 
L 218.816245 56.119987 
L 221.601759 56.619282 
L 224.387273 57.11708 
L 224.944376 57.196333 
L 228.008442 57.741892 
L 230.236853 58.091639 
L 232.743816 58.508355 
L 233.57947 58.66453 
L 236.922087 59.231397 
L 241.100359 59.967649 
L 241.657462 60.044745 
L 245.557182 60.69239 
L 248.621247 61.203614 
L 252.520967 61.849278 
L 253.635173 62.032757 
L 255.863584 62.406799 
L 256.97779 62.590675 
L 259.484753 63.017566 
L 260.320407 63.12452 
L 262.548818 63.488709 
L 263.663024 63.669909 
L 266.169987 64.086507 
L 267.005641 64.189574 
L 270.905361 64.825322 
L 272.019567 64.97831 
L 275.083633 65.454265 
L 275.919287 65.555019 
L 280.37611 66.203249 
L 282.047418 66.464392 
L 286.504241 67.064928 
L 289.568307 67.479112 
L 293.189475 67.944578 
L 294.582232 68.137785 
L 298.760504 68.64106 
L 299.317607 68.736099 
L 303.217327 69.220325 
L 304.610084 69.405552 
L 309.902561 70.0134 
L 310.738215 70.136393 
L 316.587795 70.820781 
L 321.601721 71.385634 
L 326.894198 71.953668 
L 330.793918 72.40407 
L 331.908123 72.496354 
L 338.871909 73.264676 
L 340.821769 73.450791 
L 346.392797 74.031106 
L 348.064106 74.212165 
L 349.178312 74.297743 
L 353.635134 74.721248 
L 355.027892 74.824246 
L 356.420649 74.941544 
L 372.019529 75.832473 
L 375.362146 75.9418 
L 379.540417 76.039769 
L 388.454063 76.092493 
L 399.039017 75.969689 
L 407.117008 75.850909 
L 416.030654 75.833354 
L 421.880234 75.966081 
L 424.108645 76.070329 
L 427.451262 76.240331 
L 432.186636 76.503068 
L 432.186636 76.503068 
" clip-path="url(#pd947df7e0b)" style="fill: none; stroke: #ff0000; stroke-width: 1.5; stroke-linecap: square"/>
   </g>
   <g id="patch_3">
    <path d="M 58.106 78.7975 
L 58.106 28.32 
" style="fill: none; stroke: #000000; stroke-width: 0.8; stroke-linejoin: miter; stroke-linecap: square"/>
   </g>
   <g id="patch_4">
    <path d="M 450 78.7975 
L 450 28.32 
" style="fill: none; stroke: #000000; stroke-width: 0.8; stroke-linejoin: miter; stroke-linecap: square"/>
   </g>
   <g id="patch_5">
    <path d="M 58.106 78.7975 
L 450 78.7975 
" style="fill: none; stroke: #000000; stroke-width: 0.8; stroke-linejoin: miter; stroke-linecap: square"/>
   </g>
   <g id="patch_6">
    <path d="M 58.106 28.32 
L 450 28.32 
" style="fill: none; stroke: #000000; stroke-width: 0.8; stroke-linejoin: miter; stroke-linecap: square"/>
   </g>
   <g id="text_12">
    <!-- Error in $x$-position -->
    <g transform="translate(200.413 22.32)scale(0.12 -0.12)">
     <defs>
      <path id="DejaVuSans-45" d="M 628 4666 
L 3578 4666 
L 3578 4134 
L 1259 4134 
L 1259 2753 
L 3481 2753 
L 3481 2222 
L 1259 2222 
L 1259 531 
L 3634 531 
L 3634 0 
L 628 0 
L 628 4666 
z
" transform="scale(0.015625)"/>
      <path id="DejaVuSans-72" d="M 2631 2963 
Q 2534 3019 2420 3045 
Q 2306 3072 2169 3072 
Q 1681 3072 1420 2755 
Q 1159 2438 1159 1844 
L 1159 0 
L 581 0 
L 581 3500 
L 1159 3500 
L 1159 2956 
Q 1341 3275 1631 3429 
Q 1922 3584 2338 3584 
Q 2397 3584 2469 3576 
Q 2541 3569 2628 3553 
L 2631 2963 
z
" transform="scale(0.015625)"/>
      <path id="DejaVuSans-6f" d="M 1959 3097 
Q 1497 3097 1228 2736 
Q 959 2375 959 1747 
Q 959 1119 1226 758 
Q 1494 397 1959 397 
Q 2419 397 2687 759 
Q 2956 1122 2956 1747 
Q 2956 2369 2687 2733 
Q 2419 3097 1959 3097 
z
M 1959 3584 
Q 2709 3584 3137 3096 
Q 3566 2609 3566 1747 
Q 3566 888 3137 398 
Q 2709 -91 1959 -91 
Q 1206 -91 779 398 
Q 353 888 353 1747 
Q 353 2609 779 3096 
Q 1206 3584 1959 3584 
z
" transform="scale(0.015625)"/>
      <path id="DejaVuSans-69" d="M 603 3500 
L 1178 3500 
L 1178 0 
L 603 0 
L 603 3500 
z
M 603 4863 
L 1178 4863 
L 1178 4134 
L 603 4134 
L 603 4863 
z
" transform="scale(0.015625)"/>
      <path id="DejaVuSans-6e" d="M 3513 2113 
L 3513 0 
L 2938 0 
L 2938 2094 
Q 2938 2591 2744 2837 
Q 2550 3084 2163 3084 
Q 1697 3084 1428 2787 
Q 1159 2491 1159 1978 
L 1159 0 
L 581 0 
L 581 3500 
L 1159 3500 
L 1159 2956 
Q 1366 3272 1645 3428 
Q 1925 3584 2291 3584 
Q 2894 3584 3203 3211 
Q 3513 2838 3513 2113 
z
" transform="scale(0.015625)"/>
      <path id="DejaVuSans-2d" d="M 313 2009 
L 1997 2009 
L 1997 1497 
L 313 1497 
L 313 2009 
z
" transform="scale(0.015625)"/>
      <path id="DejaVuSans-70" d="M 1159 525 
L 1159 -1331 
L 581 -1331 
L 581 3500 
L 1159 3500 
L 1159 2969 
Q 1341 3281 1617 3432 
Q 1894 3584 2278 3584 
Q 2916 3584 3314 3078 
Q 3713 2572 3713 1747 
Q 3713 922 3314 415 
Q 2916 -91 2278 -91 
Q 1894 -91 1617 61 
Q 1341 213 1159 525 
z
M 3116 1747 
Q 3116 2381 2855 2742 
Q 2594 3103 2138 3103 
Q 1681 3103 1420 2742 
Q 1159 2381 1159 1747 
Q 1159 1113 1420 752 
Q 1681 391 2138 391 
Q 2594 391 2855 752 
Q 3116 1113 3116 1747 
z
" transform="scale(0.015625)"/>
      <path id="DejaVuSans-74" d="M 1172 4494 
L 1172 3500 
L 2356 3500 
L 2356 3053 
L 1172 3053 
L 1172 1153 
Q 1172 725 1289 603 
Q 1406 481 1766 481 
L 2356 481 
L 2356 0 
L 1766 0 
Q 1100 0 847 248 
Q 594 497 594 1153 
L 594 3053 
L 172 3053 
L 172 3500 
L 594 3500 
L 594 4494 
L 1172 4494 
z
" transform="scale(0.015625)"/>
     </defs>
     <use xlink:href="#DejaVuSans-45" transform="translate(0 0.015625)"/>
     <use xlink:href="#DejaVuSans-72" transform="translate(63.183594 0.015625)"/>
     <use xlink:href="#DejaVuSans-72" transform="translate(104.296875 0.015625)"/>
     <use xlink:href="#DejaVuSans-6f" transform="translate(145.410156 0.015625)"/>
     <use xlink:href="#DejaVuSans-72" transform="translate(206.591797 0.015625)"/>
     <use xlink:href="#DejaVuSans-20" transform="translate(247.705078 0.015625)"/>
     <use xlink:href="#DejaVuSans-69" transform="translate(279.492188 0.015625)"/>
     <use xlink:href="#DejaVuSans-6e" transform="translate(307.275391 0.015625)"/>
     <use xlink:href="#DejaVuSans-20" transform="translate(370.654297 0.015625)"/>
     <use xlink:href="#DejaVuSans-Oblique-78" transform="translate(402.441406 0.015625)"/>
     <use xlink:href="#DejaVuSans-2d" transform="translate(461.621094 0.015625)"/>
     <use xlink:href="#DejaVuSans-70" transform="translate(497.705078 0.015625)"/>
     <use xlink:href="#DejaVuSans-6f" transform="translate(561.181641 0.015625)"/>
     <use xlink:href="#DejaVuSans-73" transform="translate(622.363281 0.015625)"/>
     <use xlink:href="#DejaVuSans-69" transform="translate(674.462891 0.015625)"/>
     <use xlink:href="#DejaVuSans-74" transform="translate(702.246094 0.015625)"/>
     <use xlink:href="#DejaVuSans-69" transform="translate(741.455078 0.015625)"/>
     <use xlink:href="#DejaVuSans-6f" transform="translate(769.238281 0.015625)"/>
     <use xlink:href="#DejaVuSans-6e" transform="translate(830.419922 0.015625)"/>
    </g>
   </g>
  </g>
  <g id="axes_2">
   <g id="patch_7">
    <path d="M 58.106 190.3975 
L 450 190.3975 
L 450 139.92 
L 58.106 139.92 
z
" style="fill: #ffffff"/>
   </g>
   <g id="matplotlib.axis_3">
    <g id="xtick_8">
     <g id="line2d_20">
      <path d="M 75.919364 190.3975 
L 75.919364 139.92 
" clip-path="url(#p1740656746)" style="fill: none; stroke: #b0b0b0; stroke-width: 0.8; stroke-linecap: square"/>
     </g>
     <g id="line2d_21">
      <g>
       <use xlink:href="#mcd5b354378" x="75.919364" y="190.3975" style="stroke: #000000; stroke-width: 0.8"/>
      </g>
     </g>
     <g id="text_13">
      <!-- 0 -->
      <g transform="translate(72.738114 204.995937)scale(0.1 -0.1)">
       <use xlink:href="#DejaVuSans-30"/>
      </g>
     </g>
    </g>
    <g id="xtick_9">
     <g id="line2d_22">
      <path d="M 131.586125 190.3975 
L 131.586125 139.92 
" clip-path="url(#p1740656746)" style="fill: none; stroke: #b0b0b0; stroke-width: 0.8; stroke-linecap: square"/>
     </g>
     <g id="line2d_23">
      <g>
       <use xlink:href="#mcd5b354378" x="131.586125" y="190.3975" style="stroke: #000000; stroke-width: 0.8"/>
      </g>
     </g>
     <g id="text_14">
      <!-- 2 -->
      <g transform="translate(128.404875 204.995937)scale(0.1 -0.1)">
       <use xlink:href="#DejaVuSans-32"/>
      </g>
     </g>
    </g>
    <g id="xtick_10">
     <g id="line2d_24">
      <path d="M 187.252886 190.3975 
L 187.252886 139.92 
" clip-path="url(#p1740656746)" style="fill: none; stroke: #b0b0b0; stroke-width: 0.8; stroke-linecap: square"/>
     </g>
     <g id="line2d_25">
      <g>
       <use xlink:href="#mcd5b354378" x="187.252886" y="190.3975" style="stroke: #000000; stroke-width: 0.8"/>
      </g>
     </g>
     <g id="text_15">
      <!-- 4 -->
      <g transform="translate(184.071636 204.995937)scale(0.1 -0.1)">
       <use xlink:href="#DejaVuSans-34"/>
      </g>
     </g>
    </g>
    <g id="xtick_11">
     <g id="line2d_26">
      <path d="M 242.919648 190.3975 
L 242.919648 139.92 
" clip-path="url(#p1740656746)" style="fill: none; stroke: #b0b0b0; stroke-width: 0.8; stroke-linecap: square"/>
     </g>
     <g id="line2d_27">
      <g>
       <use xlink:href="#mcd5b354378" x="242.919648" y="190.3975" style="stroke: #000000; stroke-width: 0.8"/>
      </g>
     </g>
     <g id="text_16">
      <!-- 6 -->
      <g transform="translate(239.738398 204.995937)scale(0.1 -0.1)">
       <use xlink:href="#DejaVuSans-36"/>
      </g>
     </g>
    </g>
    <g id="xtick_12">
     <g id="line2d_28">
      <path d="M 298.586409 190.3975 
L 298.586409 139.92 
" clip-path="url(#p1740656746)" style="fill: none; stroke: #b0b0b0; stroke-width: 0.8; stroke-linecap: square"/>
     </g>
     <g id="line2d_29">
      <g>
       <use xlink:href="#mcd5b354378" x="298.586409" y="190.3975" style="stroke: #000000; stroke-width: 0.8"/>
      </g>
     </g>
     <g id="text_17">
      <!-- 8 -->
      <g transform="translate(295.405159 204.995937)scale(0.1 -0.1)">
       <use xlink:href="#DejaVuSans-38"/>
      </g>
     </g>
    </g>
    <g id="xtick_13">
     <g id="line2d_30">
      <path d="M 354.25317 190.3975 
L 354.25317 139.92 
" clip-path="url(#p1740656746)" style="fill: none; stroke: #b0b0b0; stroke-width: 0.8; stroke-linecap: square"/>
     </g>
     <g id="line2d_31">
      <g>
       <use xlink:href="#mcd5b354378" x="354.25317" y="190.3975" style="stroke: #000000; stroke-width: 0.8"/>
      </g>
     </g>
     <g id="text_18">
      <!-- 10 -->
      <g transform="translate(347.89067 204.995937)scale(0.1 -0.1)">
       <use xlink:href="#DejaVuSans-31"/>
       <use xlink:href="#DejaVuSans-30" x="63.623047"/>
      </g>
     </g>
    </g>
    <g id="xtick_14">
     <g id="line2d_32">
      <path d="M 409.919932 190.3975 
L 409.919932 139.92 
" clip-path="url(#p1740656746)" style="fill: none; stroke: #b0b0b0; stroke-width: 0.8; stroke-linecap: square"/>
     </g>
     <g id="line2d_33">
      <g>
       <use xlink:href="#mcd5b354378" x="409.919932" y="190.3975" style="stroke: #000000; stroke-width: 0.8"/>
      </g>
     </g>
     <g id="text_19">
      <!-- 12 -->
      <g transform="translate(403.557432 204.995937)scale(0.1 -0.1)">
       <use xlink:href="#DejaVuSans-31"/>
       <use xlink:href="#DejaVuSans-32" x="63.623047"/>
      </g>
     </g>
    </g>
    <g id="text_20">
     <!-- $t$ [s] -->
     <g transform="translate(243.953 218.674062)scale(0.1 -0.1)">
      <use xlink:href="#DejaVuSans-Oblique-74" transform="translate(0 0.015625)"/>
      <use xlink:href="#DejaVuSans-20" transform="translate(39.208984 0.015625)"/>
      <use xlink:href="#DejaVuSans-5b" transform="translate(70.996094 0.015625)"/>
      <use xlink:href="#DejaVuSans-73" transform="translate(110.009766 0.015625)"/>
      <use xlink:href="#DejaVuSans-5d" transform="translate(162.109375 0.015625)"/>
     </g>
    </g>
   </g>
   <g id="matplotlib.axis_4">
    <g id="ytick_3">
     <g id="line2d_34">
      <path d="M 58.106 179.233607 
L 450 179.233607 
" clip-path="url(#p1740656746)" style="fill: none; stroke: #b0b0b0; stroke-width: 0.8; stroke-linecap: square"/>
     </g>
     <g id="line2d_35">
      <g>
       <use xlink:href="#madbb54b7c2" x="58.106" y="179.233607" style="stroke: #000000; stroke-width: 0.8"/>
      </g>
     </g>
     <g id="text_21">
      <!-- −0.1 -->
      <g transform="translate(26.823188 183.032825)scale(0.1 -0.1)">
       <defs>
        <path id="DejaVuSans-2212" d="M 678 2272 
L 4684 2272 
L 4684 1741 
L 678 1741 
L 678 2272 
z
" transform="scale(0.015625)"/>
        <path id="DejaVuSans-2e" d="M 684 794 
L 1344 794 
L 1344 0 
L 684 0 
L 684 794 
z
" transform="scale(0.015625)"/>
       </defs>
       <use xlink:href="#DejaVuSans-2212"/>
       <use xlink:href="#DejaVuSans-30" x="83.789062"/>
       <use xlink:href="#DejaVuSans-2e" x="147.412109"/>
       <use xlink:href="#DejaVuSans-31" x="179.199219"/>
      </g>
     </g>
    </g>
    <g id="ytick_4">
     <g id="line2d_36">
      <path d="M 58.106 165.280929 
L 450 165.280929 
" clip-path="url(#p1740656746)" style="fill: none; stroke: #b0b0b0; stroke-width: 0.8; stroke-linecap: square"/>
     </g>
     <g id="line2d_37">
      <g>
       <use xlink:href="#madbb54b7c2" x="58.106" y="165.280929" style="stroke: #000000; stroke-width: 0.8"/>
      </g>
     </g>
     <g id="text_22">
      <!-- 0.0 -->
      <g transform="translate(35.202875 169.080148)scale(0.1 -0.1)">
       <use xlink:href="#DejaVuSans-30"/>
       <use xlink:href="#DejaVuSans-2e" x="63.623047"/>
       <use xlink:href="#DejaVuSans-30" x="95.410156"/>
      </g>
     </g>
    </g>
    <g id="ytick_5">
     <g id="line2d_38">
      <path d="M 58.106 151.328251 
L 450 151.328251 
" clip-path="url(#p1740656746)" style="fill: none; stroke: #b0b0b0; stroke-width: 0.8; stroke-linecap: square"/>
     </g>
     <g id="line2d_39">
      <g>
       <use xlink:href="#madbb54b7c2" x="58.106" y="151.328251" style="stroke: #000000; stroke-width: 0.8"/>
      </g>
     </g>
     <g id="text_23">
      <!-- 0.1 -->
      <g transform="translate(35.202875 155.12747)scale(0.1 -0.1)">
       <use xlink:href="#DejaVuSans-30"/>
       <use xlink:href="#DejaVuSans-2e" x="63.623047"/>
       <use xlink:href="#DejaVuSans-31" x="95.410156"/>
      </g>
     </g>
    </g>
    <g id="text_24">
     <!-- $e_z$ [m] -->
     <g transform="translate(20.7435 180.60875)rotate(-90)scale(0.1 -0.1)">
      <defs>
       <path id="DejaVuSans-Oblique-7a" d="M 744 3500 
L 3475 3500 
L 3372 2975 
L 738 459 
L 2913 459 
L 2822 0 
L -19 0 
L 84 525 
L 2719 3041 
L 653 3041 
L 744 3500 
z
" transform="scale(0.015625)"/>
      </defs>
      <use xlink:href="#DejaVuSans-Oblique-65" transform="translate(0 0.015625)"/>
      <use xlink:href="#DejaVuSans-Oblique-7a" transform="translate(61.523438 -16.390625)scale(0.7)"/>
      <use xlink:href="#DejaVuSans-20" transform="translate(101.000977 0.015625)"/>
      <use xlink:href="#DejaVuSans-5b" transform="translate(132.788086 0.015625)"/>
      <use xlink:href="#DejaVuSans-6d" transform="translate(171.801758 0.015625)"/>
      <use xlink:href="#DejaVuSans-5d" transform="translate(269.213867 0.015625)"/>
     </g>
    </g>
   </g>
   <g id="line2d_40">
    <path d="M 75.919364 166.625869 
L 76.197915 166.3958 
L 76.476466 166.3958 
L 77.033569 165.965477 
L 78.147775 165.299005 
L 78.704878 164.924459 
L 79.819084 164.555495 
L 80.376186 164.523159 
L 81.211841 164.686897 
L 81.768944 164.861761 
L 82.604598 164.904228 
L 83.161701 164.836041 
L 84.275906 164.159005 
L 84.554458 163.760583 
L 84.833009 163.760583 
L 85.111561 163.311482 
L 85.668664 162.730436 
L 85.947215 162.40386 
L 86.504318 162.109783 
L 86.782869 161.769934 
L 87.339972 161.396006 
L 87.618523 161.164339 
L 88.175626 160.905814 
L 89.011281 159.708942 
L 89.289832 159.555259 
L 89.846935 158.876994 
L 90.125486 158.12378 
L 90.404038 158.12378 
L 90.682589 156.942725 
L 90.961141 156.745741 
L 91.518243 155.979448 
L 91.796795 155.280568 
L 92.075346 155.280568 
L 92.353898 154.42648 
L 92.911001 154.099157 
L 94.025206 153.477425 
L 95.139412 153.491001 
L 96.253618 153.476421 
L 96.810721 153.368121 
L 97.367823 153.197036 
L 98.482029 153.05803 
L 99.039132 153.121687 
L 99.874786 153.38378 
L 100.153338 153.596712 
L 100.431889 153.596712 
L 100.988992 153.949828 
L 102.6603 154.552886 
L 103.217403 154.546084 
L 104.61016 154.014063 
L 106.281469 152.518575 
L 106.838572 151.70188 
L 107.117123 151.70188 
L 107.395675 151.266161 
L 108.231329 150.615322 
L 108.50988 150.311384 
L 108.788432 150.311384 
L 109.345535 149.914162 
L 110.181189 149.453627 
L 110.45974 149.308089 
L 111.016843 148.812515 
L 111.573946 148.240966 
L 112.131049 147.941257 
L 112.4096 147.553601 
L 114.080909 146.559562 
L 116.030769 145.995888 
L 119.651937 144.331227 
L 121.880349 143.571501 
L 122.437452 143.189976 
L 124.665863 142.231759 
L 125.501517 142.264507 
L 127.172826 143.075371 
L 127.729929 143.574763 
L 128.565583 144.212773 
L 128.844134 144.589513 
L 130.236892 145.564668 
L 130.515443 145.865606 
L 133.579509 147.457519 
L 134.136611 148.007557 
L 134.972266 148.679649 
L 135.250817 149.314985 
L 135.529369 149.314985 
L 135.80792 149.846284 
L 136.643574 150.631329 
L 136.922126 151.125018 
L 137.200677 151.125018 
L 137.479229 151.795146 
L 138.036331 152.091247 
L 138.314883 152.272841 
L 138.593434 152.597943 
L 140.821846 153.85909 
L 141.100397 154.080814 
L 141.6575 154.324472 
L 141.936051 154.681935 
L 142.214603 154.681935 
L 142.493154 155.272877 
L 143.050257 155.581359 
L 143.328809 155.787278 
L 143.885911 156.476463 
L 144.164463 156.742221 
L 144.721566 156.982926 
L 146.392874 157.793179 
L 147.50708 158.183691 
L 148.621286 158.566104 
L 150.292594 159.754727 
L 150.849697 160.261076 
L 151.963903 160.950676 
L 152.521006 161.366514 
L 153.35666 161.860682 
L 153.913763 162.348419 
L 155.027968 163.184384 
L 156.977828 166.000537 
L 157.25638 166.772364 
L 158.649137 168.893811 
L 158.927688 169.598411 
L 161.1561 172.126344 
L 161.713203 172.65435 
L 161.991754 173.090747 
L 163.10596 174.126055 
L 163.663063 174.832926 
L 163.941614 174.832926 
L 164.220165 175.301699 
L 164.498717 175.301699 
L 164.777268 175.991664 
L 165.334371 176.32441 
L 165.612923 176.539254 
L 165.891474 176.947025 
L 166.727128 177.562437 
L 167.00568 177.843644 
L 167.284231 177.843644 
L 167.841334 178.147147 
L 169.234091 178.407035 
L 170.626848 178.534216 
L 173.412362 179.386757 
L 174.526568 179.481764 
L 177.312082 179.322533 
L 178.70484 179.852055 
L 178.983391 179.852055 
L 179.261942 180.060275 
L 180.654699 180.09972 
L 182.604559 179.484398 
L 183.161662 179.34442 
L 183.997317 179.212226 
L 185.111522 179.461151 
L 185.390074 179.715572 
L 185.668625 179.715572 
L 185.947177 180.15418 
L 186.504279 180.362729 
L 187.897037 180.896018 
L 188.732691 180.876663 
L 190.125448 180.517456 
L 190.961102 180.232174 
L 191.796756 180.205436 
L 192.353859 180.443648 
L 193.189514 180.883092 
L 193.746616 181.372794 
L 194.025168 181.786 
L 195.696476 182.969313 
L 196.810682 183.212872 
L 197.924888 183.211261 
L 199.039094 183.165311 
L 200.153299 183.479335 
L 200.431851 183.724596 
L 200.710402 183.724596 
L 201.267505 184.193772 
L 201.824608 184.623088 
L 202.103159 184.950435 
L 202.381711 184.950435 
L 202.660262 185.23575 
L 203.774468 185.675498 
L 205.167225 185.61174 
L 206.002879 185.419643 
L 207.117085 185.366318 
L 207.674188 185.46671 
L 208.509842 185.774167 
L 208.788393 185.997465 
L 209.066945 185.997465 
L 209.624048 186.335015 
L 211.016805 186.731331 
L 211.852459 186.651836 
L 212.688113 186.436492 
L 214.08087 186.233139 
L 214.916525 186.375749 
L 217.144936 187.27616 
L 217.98059 187.404716 
L 219.094796 187.256986 
L 220.487553 186.676 
L 220.766105 186.676 
L 221.323208 186.525586 
L 222.158862 186.560172 
L 222.994516 186.810206 
L 223.551619 187.127797 
L 224.108722 187.351203 
L 224.387273 187.608554 
L 224.665825 187.608554 
L 225.222928 187.829025 
L 226.058582 187.884622 
L 226.615685 187.805814 
L 227.72989 187.483795 
L 228.565545 187.198721 
L 229.67975 186.998127 
L 230.793956 187.142531 
L 231.072507 187.334471 
L 231.351059 187.334471 
L 231.908162 187.61176 
L 233.57947 188.09007 
L 234.415125 188.006876 
L 235.807882 187.730633 
L 236.364985 187.621295 
L 237.200639 187.487693 
L 238.314844 187.558886 
L 239.707602 187.809431 
L 240.543256 187.961117 
L 241.657462 187.981958 
L 243.607322 187.803834 
L 247.22849 187.346908 
L 248.621247 187.418752 
L 249.17835 187.545652 
L 249.735453 187.754114 
L 251.12821 188.058852 
L 252.242416 187.97156 
L 255.02793 187.115863 
L 255.863584 187.162262 
L 257.534893 187.76525 
L 259.484753 187.909815 
L 260.041856 187.802217 
L 260.87751 187.56803 
L 261.434613 187.364019 
L 262.548818 187.244612 
L 263.941576 187.585426 
L 265.055781 187.954615 
L 266.169987 188.103068 
L 267.005641 188.024203 
L 269.791156 187.368576 
L 270.62681 187.43421 
L 273.133773 187.954038 
L 273.969427 187.911158 
L 276.47639 187.165345 
L 277.312044 186.888485 
L 278.42625 186.895986 
L 280.37611 187.454704 
L 280.933213 187.569637 
L 281.768867 187.519963 
L 285.111484 186.17221 
L 285.668587 186.128609 
L 286.504241 186.257464 
L 288.732652 187.038445 
L 289.568307 186.986085 
L 290.403961 186.710511 
L 290.961064 186.34807 
L 292.910924 185.473309 
L 293.746578 185.399191 
L 296.810644 186.237746 
L 297.646298 186.135329 
L 298.203401 185.979075 
L 298.481952 185.764979 
L 298.760504 185.764979 
L 299.039055 185.401781 
L 299.874709 185.137381 
L 300.153261 184.997234 
L 301.546018 185.038673 
L 301.824569 185.179925 
L 302.103121 185.179925 
L 302.381672 185.417537 
L 304.888635 185.684623 
L 306.838495 185.370877 
L 308.231252 185.425406 
L 309.345458 185.644719 
L 310.738215 185.724403 
L 311.852421 185.561182 
L 312.688075 185.362309 
L 314.359384 185.216707 
L 315.473589 185.367324 
L 316.866346 185.888711 
L 317.423449 185.997669 
L 318.816206 186.130867 
L 319.930412 185.904142 
L 321.323169 185.480322 
L 322.715926 185.37742 
L 323.830132 185.637887 
L 324.108683 185.844368 
L 324.387235 185.844368 
L 324.665786 186.157251 
L 325.779992 186.449491 
L 326.337095 186.522671 
L 327.172749 186.428109 
L 328.008403 186.126734 
L 329.958263 185.597829 
L 330.515366 185.646224 
L 332.743778 186.457329 
L 333.30088 186.595767 
L 333.857983 186.567578 
L 334.972189 186.234201 
L 335.807843 185.754795 
L 336.086395 185.754795 
L 336.643498 185.551893 
L 337.2006 185.527856 
L 338.314806 185.809942 
L 339.15046 186.152652 
L 340.264666 186.467804 
L 341.10032 186.403333 
L 341.378872 186.262292 
L 341.657423 186.262292 
L 341.935975 185.935959 
L 342.493077 185.744067 
L 343.885835 185.187562 
L 344.442937 185.202214 
L 344.721489 185.356696 
L 345.00004 185.356696 
L 345.557143 185.687476 
L 346.392797 186.185951 
L 346.9499 186.598326 
L 348.064106 187.008158 
L 349.178312 186.947717 
L 350.292517 186.429376 
L 351.685275 185.926368 
L 352.242377 185.886902 
L 353.356583 186.14792 
L 353.635134 186.346142 
L 353.913686 186.346142 
L 354.192237 186.656545 
L 355.027892 186.862964 
L 355.584994 186.975622 
L 356.420649 186.907178 
L 356.977752 186.662731 
L 358.091957 186.119578 
L 358.927612 185.618872 
L 359.763266 185.162893 
L 360.041817 185.162893 
L 360.59892 184.916596 
L 362.827332 183.855307 
L 363.105883 183.526918 
L 363.384434 183.526918 
L 364.220089 182.606246 
L 364.777191 182.346572 
L 365.334294 181.972091 
L 365.891397 181.637143 
L 368.39836 180.837002 
L 369.791117 179.675848 
L 370.34822 179.127921 
L 370.626771 178.728913 
L 372.019529 177.920807 
L 372.576631 177.829932 
L 373.969389 177.657437 
L 375.362146 176.858007 
L 375.919248 176.229663 
L 376.754903 175.506806 
L 377.033454 175.196392 
L 377.312006 175.196392 
L 377.590557 174.995406 
L 378.426211 174.919453 
L 379.818968 175.260908 
L 380.654623 175.265015 
L 381.768828 174.696606 
L 382.325931 174.073176 
L 383.99724 172.783054 
L 384.275791 172.589996 
L 385.111446 172.542101 
L 386.225651 172.881503 
L 386.782754 173.001646 
L 387.339857 172.99055 
L 388.175511 172.615553 
L 388.454063 172.373709 
L 389.011165 172.078547 
L 389.289717 171.634008 
L 390.125371 170.89399 
L 390.403923 170.569548 
L 390.682474 170.569548 
L 390.961025 170.353879 
L 391.79668 170.271178 
L 393.74654 170.839277 
L 394.303643 170.826953 
L 394.860745 170.643381 
L 396.253503 169.58574 
L 396.810605 168.932281 
L 397.367708 168.637649 
L 397.64626 168.300413 
L 397.924811 168.300413 
L 398.203362 167.967151 
L 399.59612 167.922167 
L 399.874671 168.083516 
L 401.54598 168.208572 
L 402.103082 168.085422 
L 402.381634 167.970486 
L 402.660185 167.572829 
L 402.938737 167.572829 
L 403.217288 167.184724 
L 404.888597 166.153947 
L 405.724251 166.096505 
L 407.674111 166.823911 
L 408.509765 166.878472 
L 409.623971 166.444424 
L 409.902522 165.992632 
L 410.181074 165.992632 
L 410.459625 165.608606 
L 412.130934 164.610155 
L 412.966588 164.585782 
L 413.523691 164.701639 
L 414.080794 164.922962 
L 415.194999 165.107277 
L 416.030654 164.93183 
L 416.587757 164.621011 
L 417.144859 164.170237 
L 418.259065 163.634042 
L 419.651822 163.702867 
L 421.323131 164.044135 
L 421.880234 163.988677 
L 422.158785 163.736655 
L 422.715888 163.536661 
L 422.994439 163.381467 
L 423.551542 162.8686 
L 424.108645 162.460649 
L 425.779954 162.262301 
L 426.337056 162.419075 
L 427.729814 163.111627 
L 428.565468 163.283093 
L 429.401122 163.170034 
L 431.350982 162.368193 
L 431.908085 162.34047 
L 432.186636 162.42439 
L 432.186636 162.42439 
" clip-path="url(#p1740656746)" style="fill: none; stroke: #0000ff; stroke-width: 1.5; stroke-linecap: square"/>
   </g>
   <g id="patch_8">
    <path d="M 58.106 190.3975 
L 58.106 139.92 
" style="fill: none; stroke: #000000; stroke-width: 0.8; stroke-linejoin: miter; stroke-linecap: square"/>
   </g>
   <g id="patch_9">
    <path d="M 450 190.3975 
L 450 139.92 
" style="fill: none; stroke: #000000; stroke-width: 0.8; stroke-linejoin: miter; stroke-linecap: square"/>
   </g>
   <g id="patch_10">
    <path d="M 58.106 190.3975 
L 450 190.3975 
" style="fill: none; stroke: #000000; stroke-width: 0.8; stroke-linejoin: miter; stroke-linecap: square"/>
   </g>
   <g id="patch_11">
    <path d="M 58.106 139.92 
L 450 139.92 
" style="fill: none; stroke: #000000; stroke-width: 0.8; stroke-linejoin: miter; stroke-linecap: square"/>
   </g>
   <g id="text_25">
    <!-- Error in $z$-position -->
    <g transform="translate(200.773 133.92)scale(0.12 -0.12)">
     <use xlink:href="#DejaVuSans-45" transform="translate(0 0.015625)"/>
     <use xlink:href="#DejaVuSans-72" transform="translate(63.183594 0.015625)"/>
     <use xlink:href="#DejaVuSans-72" transform="translate(104.296875 0.015625)"/>
     <use xlink:href="#DejaVuSans-6f" transform="translate(145.410156 0.015625)"/>
     <use xlink:href="#DejaVuSans-72" transform="translate(206.591797 0.015625)"/>
     <use xlink:href="#DejaVuSans-20" transform="translate(247.705078 0.015625)"/>
     <use xlink:href="#DejaVuSans-69" transform="translate(279.492188 0.015625)"/>
     <use xlink:href="#DejaVuSans-6e" transform="translate(307.275391 0.015625)"/>
     <use xlink:href="#DejaVuSans-20" transform="translate(370.654297 0.015625)"/>
     <use xlink:href="#DejaVuSans-Oblique-7a" transform="translate(402.441406 0.015625)"/>
     <use xlink:href="#DejaVuSans-2d" transform="translate(454.931641 0.015625)"/>
     <use xlink:href="#DejaVuSans-70" transform="translate(491.015625 0.015625)"/>
     <use xlink:href="#DejaVuSans-6f" transform="translate(554.492188 0.015625)"/>
     <use xlink:href="#DejaVuSans-73" transform="translate(615.673828 0.015625)"/>
     <use xlink:href="#DejaVuSans-69" transform="translate(667.773438 0.015625)"/>
     <use xlink:href="#DejaVuSans-74" transform="translate(695.556641 0.015625)"/>
     <use xlink:href="#DejaVuSans-69" transform="translate(734.765625 0.015625)"/>
     <use xlink:href="#DejaVuSans-6f" transform="translate(762.548828 0.015625)"/>
     <use xlink:href="#DejaVuSans-6e" transform="translate(823.730469 0.015625)"/>
    </g>
   </g>
  </g>
  <g id="axes_3">
   <g id="patch_12">
    <path d="M 58.106 301.9975 
L 450 301.9975 
L 450 251.52 
L 58.106 251.52 
z
" style="fill: #ffffff"/>
   </g>
   <g id="matplotlib.axis_5">
    <g id="xtick_15">
     <g id="line2d_41">
      <path d="M 75.919364 301.9975 
L 75.919364 251.52 
" clip-path="url(#pe34b4d0224)" style="fill: none; stroke: #b0b0b0; stroke-width: 0.8; stroke-linecap: square"/>
     </g>
     <g id="line2d_42">
      <g>
       <use xlink:href="#mcd5b354378" x="75.919364" y="301.9975" style="stroke: #000000; stroke-width: 0.8"/>
      </g>
     </g>
     <g id="text_26">
      <!-- 0 -->
      <g transform="translate(72.738114 316.595937)scale(0.1 -0.1)">
       <use xlink:href="#DejaVuSans-30"/>
      </g>
     </g>
    </g>
    <g id="xtick_16">
     <g id="line2d_43">
      <path d="M 131.586125 301.9975 
L 131.586125 251.52 
" clip-path="url(#pe34b4d0224)" style="fill: none; stroke: #b0b0b0; stroke-width: 0.8; stroke-linecap: square"/>
     </g>
     <g id="line2d_44">
      <g>
       <use xlink:href="#mcd5b354378" x="131.586125" y="301.9975" style="stroke: #000000; stroke-width: 0.8"/>
      </g>
     </g>
     <g id="text_27">
      <!-- 2 -->
      <g transform="translate(128.404875 316.595937)scale(0.1 -0.1)">
       <use xlink:href="#DejaVuSans-32"/>
      </g>
     </g>
    </g>
    <g id="xtick_17">
     <g id="line2d_45">
      <path d="M 187.252886 301.9975 
L 187.252886 251.52 
" clip-path="url(#pe34b4d0224)" style="fill: none; stroke: #b0b0b0; stroke-width: 0.8; stroke-linecap: square"/>
     </g>
     <g id="line2d_46">
      <g>
       <use xlink:href="#mcd5b354378" x="187.252886" y="301.9975" style="stroke: #000000; stroke-width: 0.8"/>
      </g>
     </g>
     <g id="text_28">
      <!-- 4 -->
      <g transform="translate(184.071636 316.595937)scale(0.1 -0.1)">
       <use xlink:href="#DejaVuSans-34"/>
      </g>
     </g>
    </g>
    <g id="xtick_18">
     <g id="line2d_47">
      <path d="M 242.919648 301.9975 
L 242.919648 251.52 
" clip-path="url(#pe34b4d0224)" style="fill: none; stroke: #b0b0b0; stroke-width: 0.8; stroke-linecap: square"/>
     </g>
     <g id="line2d_48">
      <g>
       <use xlink:href="#mcd5b354378" x="242.919648" y="301.9975" style="stroke: #000000; stroke-width: 0.8"/>
      </g>
     </g>
     <g id="text_29">
      <!-- 6 -->
      <g transform="translate(239.738398 316.595937)scale(0.1 -0.1)">
       <use xlink:href="#DejaVuSans-36"/>
      </g>
     </g>
    </g>
    <g id="xtick_19">
     <g id="line2d_49">
      <path d="M 298.586409 301.9975 
L 298.586409 251.52 
" clip-path="url(#pe34b4d0224)" style="fill: none; stroke: #b0b0b0; stroke-width: 0.8; stroke-linecap: square"/>
     </g>
     <g id="line2d_50">
      <g>
       <use xlink:href="#mcd5b354378" x="298.586409" y="301.9975" style="stroke: #000000; stroke-width: 0.8"/>
      </g>
     </g>
     <g id="text_30">
      <!-- 8 -->
      <g transform="translate(295.405159 316.595937)scale(0.1 -0.1)">
       <use xlink:href="#DejaVuSans-38"/>
      </g>
     </g>
    </g>
    <g id="xtick_20">
     <g id="line2d_51">
      <path d="M 354.25317 301.9975 
L 354.25317 251.52 
" clip-path="url(#pe34b4d0224)" style="fill: none; stroke: #b0b0b0; stroke-width: 0.8; stroke-linecap: square"/>
     </g>
     <g id="line2d_52">
      <g>
       <use xlink:href="#mcd5b354378" x="354.25317" y="301.9975" style="stroke: #000000; stroke-width: 0.8"/>
      </g>
     </g>
     <g id="text_31">
      <!-- 10 -->
      <g transform="translate(347.89067 316.595937)scale(0.1 -0.1)">
       <use xlink:href="#DejaVuSans-31"/>
       <use xlink:href="#DejaVuSans-30" x="63.623047"/>
      </g>
     </g>
    </g>
    <g id="xtick_21">
     <g id="line2d_53">
      <path d="M 409.919932 301.9975 
L 409.919932 251.52 
" clip-path="url(#pe34b4d0224)" style="fill: none; stroke: #b0b0b0; stroke-width: 0.8; stroke-linecap: square"/>
     </g>
     <g id="line2d_54">
      <g>
       <use xlink:href="#mcd5b354378" x="409.919932" y="301.9975" style="stroke: #000000; stroke-width: 0.8"/>
      </g>
     </g>
     <g id="text_32">
      <!-- 12 -->
      <g transform="translate(403.557432 316.595937)scale(0.1 -0.1)">
       <use xlink:href="#DejaVuSans-31"/>
       <use xlink:href="#DejaVuSans-32" x="63.623047"/>
      </g>
     </g>
    </g>
    <g id="text_33">
     <!-- $t$ [s] -->
     <g transform="translate(243.953 330.274063)scale(0.1 -0.1)">
      <use xlink:href="#DejaVuSans-Oblique-74" transform="translate(0 0.015625)"/>
      <use xlink:href="#DejaVuSans-20" transform="translate(39.208984 0.015625)"/>
      <use xlink:href="#DejaVuSans-5b" transform="translate(70.996094 0.015625)"/>
      <use xlink:href="#DejaVuSans-73" transform="translate(110.009766 0.015625)"/>
      <use xlink:href="#DejaVuSans-5d" transform="translate(162.109375 0.015625)"/>
     </g>
    </g>
   </g>
   <g id="matplotlib.axis_6">
    <g id="ytick_6">
     <g id="line2d_55">
      <path d="M 58.106 292.505984 
L 450 292.505984 
" clip-path="url(#pe34b4d0224)" style="fill: none; stroke: #b0b0b0; stroke-width: 0.8; stroke-linecap: square"/>
     </g>
     <g id="line2d_56">
      <g>
       <use xlink:href="#madbb54b7c2" x="58.106" y="292.505984" style="stroke: #000000; stroke-width: 0.8"/>
      </g>
     </g>
     <g id="text_34">
      <!-- −0.1 -->
      <g transform="translate(26.823188 296.305203)scale(0.1 -0.1)">
       <use xlink:href="#DejaVuSans-2212"/>
       <use xlink:href="#DejaVuSans-30" x="83.789062"/>
       <use xlink:href="#DejaVuSans-2e" x="147.412109"/>
       <use xlink:href="#DejaVuSans-31" x="179.199219"/>
      </g>
     </g>
    </g>
    <g id="ytick_7">
     <g id="line2d_57">
      <path d="M 58.106 276.25499 
L 450 276.25499 
" clip-path="url(#pe34b4d0224)" style="fill: none; stroke: #b0b0b0; stroke-width: 0.8; stroke-linecap: square"/>
     </g>
     <g id="line2d_58">
      <g>
       <use xlink:href="#madbb54b7c2" x="58.106" y="276.25499" style="stroke: #000000; stroke-width: 0.8"/>
      </g>
     </g>
     <g id="text_35">
      <!-- 0.0 -->
      <g transform="translate(35.202875 280.054208)scale(0.1 -0.1)">
       <use xlink:href="#DejaVuSans-30"/>
       <use xlink:href="#DejaVuSans-2e" x="63.623047"/>
       <use xlink:href="#DejaVuSans-30" x="95.410156"/>
      </g>
     </g>
    </g>
    <g id="ytick_8">
     <g id="line2d_59">
      <path d="M 58.106 260.003995 
L 450 260.003995 
" clip-path="url(#pe34b4d0224)" style="fill: none; stroke: #b0b0b0; stroke-width: 0.8; stroke-linecap: square"/>
     </g>
     <g id="line2d_60">
      <g>
       <use xlink:href="#madbb54b7c2" x="58.106" y="260.003995" style="stroke: #000000; stroke-width: 0.8"/>
      </g>
     </g>
     <g id="text_36">
      <!-- 0.1 -->
      <g transform="translate(35.202875 263.803214)scale(0.1 -0.1)">
       <use xlink:href="#DejaVuSans-30"/>
       <use xlink:href="#DejaVuSans-2e" x="63.623047"/>
       <use xlink:href="#DejaVuSans-31" x="95.410156"/>
      </g>
     </g>
    </g>
    <g id="text_37">
     <!-- $e_\theta$ [rad] -->
     <g transform="translate(20.7435 295.90875)rotate(-90)scale(0.1 -0.1)">
      <defs>
       <path id="DejaVuSans-Oblique-3b8" d="M 2913 2219 
L 925 2219 
Q 791 1284 928 888 
Q 1100 400 1566 400 
Q 2034 400 2391 891 
Q 2703 1322 2913 2219 
z
M 3009 2750 
Q 3094 3638 2984 3950 
Q 2813 4444 2353 4444 
Q 1875 4444 1525 3956 
Q 1250 3563 1034 2750 
L 3009 2750 
z
M 2444 4913 
Q 3194 4913 3494 4250 
Q 3794 3591 3566 2422 
Q 3341 1256 2781 594 
Q 2225 -72 1475 -72 
Q 722 -72 425 594 
Q 128 1256 353 2422 
Q 581 3591 1134 4250 
Q 1691 4913 2444 4913 
z
" transform="scale(0.015625)"/>
       <path id="DejaVuSans-61" d="M 2194 1759 
Q 1497 1759 1228 1600 
Q 959 1441 959 1056 
Q 959 750 1161 570 
Q 1363 391 1709 391 
Q 2188 391 2477 730 
Q 2766 1069 2766 1631 
L 2766 1759 
L 2194 1759 
z
M 3341 1997 
L 3341 0 
L 2766 0 
L 2766 531 
Q 2569 213 2275 61 
Q 1981 -91 1556 -91 
Q 1019 -91 701 211 
Q 384 513 384 1019 
Q 384 1609 779 1909 
Q 1175 2209 1959 2209 
L 2766 2209 
L 2766 2266 
Q 2766 2663 2505 2880 
Q 2244 3097 1772 3097 
Q 1472 3097 1187 3025 
Q 903 2953 641 2809 
L 641 3341 
Q 956 3463 1253 3523 
Q 1550 3584 1831 3584 
Q 2591 3584 2966 3190 
Q 3341 2797 3341 1997 
z
" transform="scale(0.015625)"/>
       <path id="DejaVuSans-64" d="M 2906 2969 
L 2906 4863 
L 3481 4863 
L 3481 0 
L 2906 0 
L 2906 525 
Q 2725 213 2448 61 
Q 2172 -91 1784 -91 
Q 1150 -91 751 415 
Q 353 922 353 1747 
Q 353 2572 751 3078 
Q 1150 3584 1784 3584 
Q 2172 3584 2448 3432 
Q 2725 3281 2906 2969 
z
M 947 1747 
Q 947 1113 1208 752 
Q 1469 391 1925 391 
Q 2381 391 2643 752 
Q 2906 1113 2906 1747 
Q 2906 2381 2643 2742 
Q 2381 3103 1925 3103 
Q 1469 3103 1208 2742 
Q 947 2381 947 1747 
z
" transform="scale(0.015625)"/>
      </defs>
      <use xlink:href="#DejaVuSans-Oblique-65" transform="translate(0 0.015625)"/>
      <use xlink:href="#DejaVuSans-Oblique-3b8" transform="translate(61.523438 -16.390625)scale(0.7)"/>
      <use xlink:href="#DejaVuSans-20" transform="translate(107.084961 0.015625)"/>
      <use xlink:href="#DejaVuSans-5b" transform="translate(138.87207 0.015625)"/>
      <use xlink:href="#DejaVuSans-72" transform="translate(177.885742 0.015625)"/>
      <use xlink:href="#DejaVuSans-61" transform="translate(218.999023 0.015625)"/>
      <use xlink:href="#DejaVuSans-64" transform="translate(280.27832 0.015625)"/>
      <use xlink:href="#DejaVuSans-5d" transform="translate(343.754883 0.015625)"/>
     </g>
    </g>
   </g>
   <g id="line2d_61">
    <path d="M 75.919364 276.23562 
L 76.197915 275.778858 
L 76.476466 275.778858 
L 76.755018 275.415623 
L 77.312121 274.997977 
L 77.869224 273.89394 
L 78.147775 272.527588 
L 78.426326 270.27439 
L 80.097635 263.087332 
L 80.654738 262.111664 
L 81.211841 261.523307 
L 81.490392 261.620601 
L 82.047495 262.226867 
L 83.161701 265.245928 
L 83.440252 267.268774 
L 83.997355 269.669911 
L 84.275906 271.747005 
L 84.554458 274.906302 
L 84.833009 274.906302 
L 85.111561 278.603763 
L 85.390112 280.635681 
L 85.947215 286.874438 
L 86.225766 287.861679 
L 86.504318 289.689209 
L 86.782869 292.560353 
L 87.618523 295.757146 
L 87.897075 296.011363 
L 88.175626 296.471342 
L 88.732729 297.6819 
L 89.011281 298.019806 
L 89.846935 298.226447 
L 90.125486 297.566921 
L 90.404038 297.566921 
L 90.682589 294.180976 
L 90.961141 293.346132 
L 91.518243 289.496375 
L 91.796795 285.174773 
L 92.075346 285.174773 
L 92.353898 278.697833 
L 92.632449 277.653519 
L 93.746655 269.247491 
L 94.025206 266.201279 
L 95.417963 259.391604 
L 95.975066 258.470343 
L 96.532169 257.967436 
L 97.089272 257.653654 
L 97.924926 257.613495 
L 98.203478 257.661929 
L 98.482029 257.84403 
L 98.76058 257.84403 
L 99.874786 259.242219 
L 100.153338 260.099362 
L 100.431889 260.099362 
L 100.71044 261.146153 
L 101.267543 262.397578 
L 101.546095 263.494239 
L 101.824646 265.194314 
L 102.103198 265.194314 
L 102.381749 267.232187 
L 102.938852 269.663264 
L 103.217403 271.735965 
L 103.495955 274.781124 
L 103.774506 274.781124 
L 104.053058 278.143189 
L 104.61016 281.707719 
L 105.167263 287.877603 
L 105.445815 287.877603 
L 105.724366 290.935009 
L 106.56002 294.380169 
L 106.838572 294.772004 
L 107.117123 294.772004 
L 107.952778 292.588294 
L 108.231329 291.146353 
L 108.50988 288.986301 
L 108.788432 288.986301 
L 109.066983 286.69941 
L 109.345535 285.555643 
L 109.902638 282.245723 
L 110.181189 281.733153 
L 110.45974 280.75638 
L 110.738292 279.043017 
L 111.573946 277.128985 
L 112.131049 277.003351 
L 112.966703 277.375539 
L 113.245255 277.432306 
L 113.523806 277.30886 
L 113.802357 277.30886 
L 114.35946 276.882679 
L 114.638012 276.732879 
L 115.195115 276.836437 
L 115.473666 277.079648 
L 116.30932 279.977741 
L 116.866423 282.760667 
L 117.144975 282.760667 
L 117.423526 284.164546 
L 117.702077 284.562115 
L 117.980629 284.626803 
L 118.25918 284.021243 
L 118.537732 282.771506 
L 118.816283 282.771506 
L 119.094835 280.326205 
L 119.651937 277.331391 
L 120.20904 271.687028 
L 120.487592 271.687028 
L 120.766143 268.545049 
L 121.880349 262.323283 
L 122.1589 260.165205 
L 122.994554 257.78341 
L 124.387312 254.813905 
L 125.222966 253.988062 
L 125.501517 253.814432 
L 126.05862 254.263082 
L 126.615723 255.217824 
L 126.894274 255.865082 
L 127.172826 256.984421 
L 127.451377 258.621696 
L 128.844134 262.750658 
L 129.401237 263.12206 
L 129.95834 263.096789 
L 130.236892 262.875141 
L 130.793994 262.196662 
L 131.629649 261.681307 
L 132.186752 261.793495 
L 133.579509 265.386971 
L 133.85806 266.886701 
L 134.972266 269.737901 
L 135.250817 271.197772 
L 135.529369 271.197772 
L 135.80792 272.081518 
L 136.922126 273.569645 
L 137.200677 273.569645 
L 137.479229 274.464901 
L 137.75778 274.653263 
L 138.314883 275.520117 
L 138.593434 276.474483 
L 139.150537 277.565844 
L 139.70764 278.542809 
L 139.986191 278.542809 
L 140.264743 278.979682 
L 140.821846 279.448065 
L 141.100397 279.781411 
L 141.378949 279.906374 
L 141.6575 280.179243 
L 141.936051 280.799403 
L 142.214603 280.799403 
L 142.493154 281.714815 
L 143.050257 282.080775 
L 143.60736 282.471804 
L 143.885911 282.459365 
L 145.000117 281.887662 
L 145.835771 280.539371 
L 146.114323 280.397825 
L 146.949977 279.665549 
L 147.50708 279.322773 
L 148.621286 279.067916 
L 148.899837 278.808052 
L 150.014043 276.231701 
L 150.292594 274.863801 
L 150.571146 272.676507 
L 151.685351 267.482829 
L 152.521006 262.115776 
L 153.913763 257.401073 
L 155.585071 254.762277 
L 156.420725 254.287174 
L 156.977828 254.176004 
L 158.092034 254.805197 
L 158.370585 255.050102 
L 158.649137 255.509826 
L 159.20624 256.815773 
L 160.041894 258.594874 
L 160.320445 259.605209 
L 160.598997 261.034507 
L 161.713203 264.195808 
L 161.991754 265.078372 
L 162.548857 265.448308 
L 162.827408 265.466052 
L 163.10596 265.302515 
L 163.663063 264.398572 
L 163.941614 264.398572 
L 164.220165 263.581277 
L 164.498717 263.581277 
L 164.777268 262.574963 
L 165.612923 262.261249 
L 166.170025 262.75677 
L 166.448577 263.154253 
L 166.727128 263.94844 
L 167.00568 265.320816 
L 167.284231 265.320816 
L 167.562783 266.939277 
L 168.95554 271.336181 
L 169.234091 271.558901 
L 169.512642 271.633473 
L 169.791194 271.575152 
L 170.348297 271.109417 
L 170.626848 270.563127 
L 170.9054 269.732667 
L 172.019605 268.050788 
L 172.576708 268.040437 
L 172.85526 268.24662 
L 173.133811 268.622996 
L 173.690914 269.966588 
L 173.969465 271.508043 
L 174.248017 274.159304 
L 175.083671 278.688836 
L 175.640774 282.772205 
L 175.919325 283.295682 
L 176.197877 283.494083 
L 176.476428 283.386408 
L 176.75498 283.00386 
L 177.033531 282.378001 
L 177.312082 281.088636 
L 177.590634 278.961389 
L 178.426288 275.582292 
L 178.70484 273.55385 
L 178.983391 273.55385 
L 179.261942 271.850497 
L 179.540494 271.787413 
L 179.819045 271.873915 
L 180.097597 272.249917 
L 181.490354 279.71986 
L 182.326008 283.020003 
L 182.604559 282.838616 
L 182.883111 281.907362 
L 183.161662 281.45825 
L 183.440214 280.386829 
L 183.718765 277.717343 
L 183.997317 277.717343 
L 184.275868 273.159287 
L 184.554419 272.38856 
L 185.111522 269.415807 
L 185.390074 266.780704 
L 185.668625 266.780704 
L 185.947177 264.346424 
L 186.504279 264.043983 
L 186.782831 264.233452 
L 187.061382 265.561204 
L 187.339934 265.561204 
L 187.618485 269.51163 
L 187.897037 270.327374 
L 189.289794 279.304221 
L 189.568345 279.617791 
L 189.846897 279.528961 
L 190.125448 279.052676 
L 190.403999 277.7081 
L 190.682551 275.023545 
L 191.796756 268.258635 
L 192.632411 260.847113 
L 193.468065 256.895609 
L 193.746616 255.690409 
L 194.025168 255.333692 
L 194.303719 255.71608 
L 194.582271 256.453724 
L 195.139374 258.862972 
L 195.417925 261.335083 
L 195.696476 265.15009 
L 196.810682 273.804683 
L 197.089234 276.290975 
L 197.367785 276.290975 
L 197.646336 277.182414 
L 197.924888 277.008716 
L 198.203439 276.062562 
L 198.481991 274.478394 
L 198.760542 273.844299 
L 199.039094 272.460517 
L 199.317645 269.477883 
L 199.874748 266.435832 
L 200.431851 261.570965 
L 200.710402 261.570965 
L 200.988954 259.502201 
L 201.546056 258.377646 
L 201.824608 258.385086 
L 202.103159 259.693177 
L 202.381711 259.693177 
L 202.938813 264.007639 
L 203.217365 265.880879 
L 203.774468 272.791458 
L 204.053019 272.791458 
L 204.331571 276.416889 
L 204.888673 279.165915 
L 205.167225 280.328502 
L 205.445776 280.435721 
L 205.724328 279.91569 
L 206.281431 278.0256 
L 206.559982 276.785834 
L 207.117085 271.903421 
L 207.395636 271.903421 
L 207.674188 269.118089 
L 208.788393 263.820137 
L 209.066945 263.820137 
L 209.345496 263.945251 
L 209.624048 264.512844 
L 209.902599 265.39545 
L 210.181151 267.251929 
L 210.459702 270.508209 
L 210.738253 270.508209 
L 211.016805 274.302034 
L 212.131011 282.399894 
L 212.409562 282.399894 
L 212.688113 282.703403 
L 212.966665 282.295093 
L 213.245216 281.580182 
L 213.523768 280.049418 
L 213.802319 277.47396 
L 214.916525 271.739687 
L 215.473628 267.365861 
L 216.03073 265.801845 
L 216.309282 265.416169 
L 216.587833 265.443967 
L 216.866385 266.266841 
L 217.144936 266.70878 
L 217.423488 267.819059 
L 218.259142 276.070028 
L 218.537693 276.96596 
L 219.373348 282.323626 
L 219.651899 282.768252 
L 219.93045 282.649353 
L 220.209002 281.698298 
L 220.487553 280.099861 
L 220.766105 280.099861 
L 221.044656 277.307019 
L 221.323208 275.751261 
L 221.88031 270.921818 
L 222.158862 270.121666 
L 222.994516 264.854468 
L 223.273068 262.48855 
L 223.83017 261.026235 
L 224.108722 260.736342 
L 224.387273 261.499396 
L 224.665825 261.499396 
L 225.222928 265.113696 
L 225.78003 268.635186 
L 226.058582 273.391367 
L 226.337133 273.391367 
L 226.615685 276.921161 
L 227.172787 279.519956 
L 227.451339 280.318747 
L 227.72989 280.661868 
L 228.008442 279.868945 
L 228.286993 278.345415 
L 228.565545 277.711797 
L 229.122647 274.750558 
L 229.401199 270.627602 
L 229.67975 270.627602 
L 229.958302 267.319421 
L 230.793956 262.71092 
L 231.072507 259.869105 
L 231.351059 259.869105 
L 231.62961 258.693835 
L 231.908162 258.560989 
L 232.186713 258.746432 
L 232.465265 259.263176 
L 232.743816 260.655959 
L 233.300919 265.27486 
L 233.858022 269.120999 
L 234.693676 276.919011 
L 235.250779 278.477921 
L 235.52933 278.655599 
L 235.807882 278.210306 
L 236.086433 276.521156 
L 236.364985 276.521156 
L 236.643536 274.004063 
L 236.922087 272.589421 
L 237.757742 266.017632 
L 238.036293 266.017632 
L 238.314844 263.358485 
L 238.871947 261.382573 
L 239.150499 260.677301 
L 239.42905 261.020826 
L 239.707602 261.020826 
L 240.821807 268.314537 
L 241.100359 272.121884 
L 241.37891 272.121884 
L 241.657462 275.859525 
L 242.493116 280.653938 
L 242.771667 280.930846 
L 243.050219 280.930846 
L 243.607322 279.121969 
L 244.164424 275.361325 
L 244.442976 273.202973 
L 244.721527 273.202973 
L 245.000079 270.279354 
L 246.114284 264.665754 
L 246.671387 264.65442 
L 246.949939 265.131598 
L 247.22849 266.430056 
L 247.785593 270.661422 
L 248.064144 270.661422 
L 248.342696 274.099618 
L 249.456901 280.828023 
L 249.735453 281.166479 
L 250.014004 281.226138 
L 250.292556 281.020642 
L 250.571107 280.572544 
L 250.849659 279.4952 
L 251.12821 277.461533 
L 252.242416 272.304118 
L 252.799519 268.31961 
L 253.356621 267.130305 
L 253.635173 266.940783 
L 253.913724 267.035132 
L 254.192276 267.720231 
L 254.749379 270.719299 
L 255.585033 274.821462 
L 256.142136 278.921194 
L 256.420687 278.921194 
L 256.699239 280.129215 
L 256.97779 280.349911 
L 257.256341 280.177112 
L 257.534893 279.42185 
L 257.813444 279.051514 
L 258.091996 278.155619 
L 258.370547 275.853303 
L 258.649099 274.5236 
L 259.484753 268.131533 
L 259.763304 268.131533 
L 260.041856 265.731941 
L 260.598958 264.239418 
L 260.87751 263.993625 
L 261.713164 266.836727 
L 262.270267 269.413076 
L 262.82737 274.195007 
L 263.105921 274.195007 
L 263.384473 276.503721 
L 263.941576 278.279892 
L 264.220127 278.449006 
L 264.498678 277.919086 
L 264.77723 277.919086 
L 265.334333 275.127224 
L 265.612884 273.8362 
L 265.891436 271.694032 
L 266.169987 268.627169 
L 266.448538 268.627169 
L 266.72709 265.618402 
L 267.562744 261.055873 
L 268.119847 260.631572 
L 268.67695 262.328595 
L 269.512604 267.384165 
L 269.791156 269.094438 
L 270.069707 272.468631 
L 271.183913 278.302569 
L 271.462464 278.988007 
L 271.741015 279.376486 
L 272.019567 279.073841 
L 272.298118 278.056082 
L 272.57667 276.470603 
L 272.855221 275.840252 
L 273.133773 274.470574 
L 273.412324 271.462063 
L 273.690875 269.876823 
L 274.247978 265.24747 
L 274.52653 264.528657 
L 274.805081 263.18257 
L 275.083633 260.794116 
L 275.362184 260.794116 
L 275.640735 260.362547 
L 275.919287 260.698477 
L 276.197838 261.374504 
L 276.47639 262.370873 
L 276.754941 264.403437 
L 277.033493 267.836868 
L 278.983353 280.725183 
L 279.261904 281.137471 
L 279.540455 281.243124 
L 279.819007 281.052779 
L 280.097558 280.58875 
L 280.37611 279.436937 
L 280.654661 277.209395 
L 281.490315 272.98728 
L 282.32597 266.379141 
L 282.883072 264.116935 
L 283.440175 262.784101 
L 283.718727 263.262843 
L 284.27583 265.00089 
L 284.832932 267.630383 
L 285.947138 276.217767 
L 287.061344 281.491855 
L 287.339895 281.70184 
L 287.618447 281.672968 
L 287.896998 281.420453 
L 288.17555 280.958681 
L 288.454101 279.915646 
L 289.011204 276.834938 
L 290.12541 271.680225 
L 290.682512 267.648734 
L 291.239615 266.162388 
L 291.796718 265.317368 
L 292.07527 265.317368 
L 292.353821 266.508888 
L 292.632372 266.89237 
L 293.189475 268.812435 
L 293.468027 271.134347 
L 293.746578 271.134347 
L 294.02513 274.660089 
L 294.303681 275.189528 
L 295.139335 278.187477 
L 295.696438 278.796274 
L 296.253541 278.7175 
L 296.532092 278.518077 
L 296.810644 277.806692 
L 297.089195 277.806692 
L 297.367747 276.007086 
L 297.646298 275.626674 
L 298.203401 273.917885 
L 298.481952 272.003444 
L 298.760504 272.003444 
L 299.039055 269.022026 
L 299.317607 268.554371 
L 300.153261 265.528573 
L 300.431812 265.528573 
L 300.710364 264.612074 
L 301.267467 264.651257 
L 301.546018 264.895324 
L 301.824569 266.054305 
L 302.103121 266.054305 
L 302.381672 269.531763 
L 302.660224 270.280628 
L 303.217327 273.589112 
L 303.495878 277.051511 
L 304.052981 281.070515 
L 304.331532 283.07291 
L 304.610084 283.645207 
L 305.167187 285.468717 
L 305.445738 285.355712 
L 305.724289 284.503381 
L 306.281392 280.883698 
L 306.559944 280.883698 
L 306.838495 277.647956 
L 307.117046 277.647956 
L 307.395598 272.339757 
L 307.674149 271.456904 
L 308.231252 267.974321 
L 308.509804 264.718036 
L 308.788355 264.718036 
L 309.066906 261.064806 
L 309.902561 259.988231 
L 310.181112 261.318757 
L 310.459664 261.318757 
L 311.016766 265.823908 
L 311.573869 269.870864 
L 312.409524 278.944054 
L 312.966626 281.696183 
L 313.245178 282.891217 
L 313.523729 283.303029 
L 313.802281 283.043122 
L 314.080832 282.506407 
L 314.637935 280.724503 
L 314.916486 278.866812 
L 315.195038 275.914516 
L 315.473589 275.914516 
L 315.752141 272.615085 
L 316.030692 270.910118 
L 316.866346 264.134694 
L 317.144898 264.134694 
L 317.423449 262.40086 
L 317.702001 261.992683 
L 317.980552 262.064056 
L 318.259103 262.973768 
L 318.537655 263.452843 
L 318.816206 264.645242 
L 319.094758 267.780323 
L 319.373309 269.622376 
L 320.208963 277.939582 
L 320.487515 277.939582 
L 320.766066 280.400892 
L 321.044618 281.355656 
L 321.323169 281.55415 
L 321.601721 281.466867 
L 321.880272 281.094759 
L 322.158823 280.493545 
L 322.994478 275.102105 
L 323.273029 274.417487 
L 323.830132 271.546239 
L 324.108683 268.678108 
L 324.387235 268.678108 
L 324.665786 265.017216 
L 324.944338 264.555373 
L 325.501441 263.269872 
L 325.779992 263.03045 
L 326.337095 264.583881 
L 326.894198 266.97833 
L 327.172749 269.297826 
L 327.451301 272.64813 
L 328.286955 277.091736 
L 328.844058 279.149532 
L 329.122609 279.555174 
L 329.40116 279.429541 
L 329.958263 278.681036 
L 330.236815 278.099454 
L 330.515366 276.991509 
L 330.793918 275.114607 
L 331.072469 275.114607 
L 331.35102 272.868452 
L 331.908123 270.474074 
L 332.465226 266.79945 
L 332.743778 266.79945 
L 333.022329 265.439021 
L 333.579432 264.812278 
L 333.857983 265.142477 
L 334.136535 266.027399 
L 334.415086 266.027399 
L 334.972189 269.114841 
L 335.807843 274.133663 
L 336.086395 274.133663 
L 336.364946 275.702583 
L 337.2006 277.406053 
L 337.479152 277.581143 
L 337.757703 277.581143 
L 338.314806 277.129526 
L 339.429012 274.456527 
L 339.986115 271.724309 
L 340.264666 270.735203 
L 340.543217 270.449001 
L 341.10032 269.587415 
L 341.378872 269.286848 
L 341.657423 269.286848 
L 341.935975 270.022544 
L 342.214526 270.270055 
L 342.771629 271.561872 
L 343.607283 276.226421 
L 343.885835 276.740365 
L 344.442937 278.73032 
L 344.721489 280.551954 
L 345.00004 280.551954 
L 345.278592 281.124109 
L 345.557143 281.067306 
L 345.835695 280.789714 
L 346.114246 280.294202 
L 346.392797 279.169667 
L 346.671349 277.124979 
L 347.785555 272.031681 
L 348.064106 270.411625 
L 348.342657 270.411625 
L 348.621209 269.542964 
L 348.89976 269.393663 
L 349.178312 269.426357 
L 349.456863 269.808845 
L 349.735415 270.863662 
L 350.013966 270.863662 
L 350.292517 272.347823 
L 350.571069 273.143596 
L 351.128172 275.300555 
L 351.406723 276.022377 
L 351.685275 276.022377 
L 351.963826 276.617046 
L 352.520929 276.822578 
L 353.356583 276.499457 
L 353.635134 276.071019 
L 353.913686 276.071019 
L 354.192237 275.30801 
L 354.470789 275.179413 
L 355.027892 274.687272 
L 355.306443 274.178149 
L 355.584994 274.178149 
L 355.863546 273.890571 
L 356.420649 273.730273 
L 356.6992 273.721105 
L 357.256303 274.20165 
L 357.534854 274.62802 
L 357.813406 274.786742 
L 358.927612 276.003382 
L 359.206163 276.01082 
L 359.484714 275.815489 
L 359.763266 275.429715 
L 360.041817 275.429715 
L 361.434574 271.436057 
L 361.713126 271.436057 
L 361.991677 270.05298 
L 362.54878 268.642228 
L 363.105883 266.357628 
L 363.384434 266.357628 
L 363.662986 265.373872 
L 363.941537 264.918665 
L 364.220089 264.783076 
L 364.49864 264.82582 
L 364.777191 265.046194 
L 365.055743 265.441891 
L 365.334294 266.346753 
L 365.612846 268.014641 
L 366.727051 272.043666 
L 367.284154 275.013409 
L 367.841257 275.941946 
L 368.119809 276.140776 
L 368.39836 276.146222 
L 368.676911 275.789167 
L 369.234014 273.89449 
L 370.069669 271.102549 
L 370.626771 268.389607 
L 371.183874 267.717682 
L 371.462426 267.642272 
L 371.740977 267.908975 
L 372.019529 268.510648 
L 372.29808 268.510648 
L 372.855183 270.537541 
L 373.133734 271.378329 
L 373.690837 274.377388 
L 373.969389 274.377388 
L 374.24794 275.806364 
L 374.805043 276.818762 
L 375.640697 277.689409 
L 376.754903 277.825744 
L 377.869108 278.009023 
L 378.426211 278.231189 
L 378.704763 278.418453 
L 378.983314 278.418453 
L 379.540417 278.659145 
L 380.376071 278.835175 
L 382.04738 279.061317 
L 382.604483 278.845168 
L 383.161586 278.468153 
L 383.718688 277.773996 
L 383.99724 277.773996 
L 384.275791 277.522601 
L 385.389997 277.243957 
L 385.9471 277.292649 
L 386.504203 277.51147 
L 387.339857 278.150018 
L 387.89696 279.266385 
L 388.454063 280.413447 
L 389.011165 280.731761 
L 389.289717 280.671957 
L 389.568268 280.385667 
L 389.84682 279.928693 
L 390.125371 278.976809 
L 390.403923 277.369109 
L 390.682474 277.369109 
L 390.961025 275.633533 
L 392.075231 272.014723 
L 392.353783 272.014723 
L 392.632334 271.72056 
L 392.910885 271.802871 
L 393.189437 272.161132 
L 393.467988 272.768596 
L 393.74654 273.023414 
L 394.025091 273.605722 
L 394.303643 275.003822 
L 394.582194 275.785772 
L 395.139297 278.122033 
L 395.417848 278.461515 
L 395.974951 279.809468 
L 396.253503 279.919415 
L 396.532054 279.680628 
L 396.810605 278.96063 
L 397.089157 278.622946 
L 397.367708 277.82128 
L 397.64626 275.821521 
L 397.924811 275.821521 
L 398.203362 272.367901 
L 398.481914 271.811204 
L 399.317568 268.519875 
L 399.59612 268.519875 
L 399.874671 268.190633 
L 400.153222 268.296101 
L 400.710325 269.018639 
L 400.988877 270.05838 
L 401.267428 270.05838 
L 401.54598 271.876423 
L 401.824531 272.182431 
L 402.381634 273.330291 
L 402.660185 274.448844 
L 402.938737 274.448844 
L 403.217288 275.079039 
L 404.331494 276.296352 
L 404.610045 276.278744 
L 405.167148 275.777418 
L 405.4457 275.400941 
L 406.002802 274.122768 
L 406.281354 274.122768 
L 406.559905 273.563978 
L 407.117008 272.939499 
L 407.39556 272.588656 
L 407.952662 272.296599 
L 408.231214 272.045141 
L 408.788317 272.049805 
L 409.902522 272.464142 
L 410.181074 272.464142 
L 410.738177 273.189867 
L 411.295279 274.484965 
L 411.573831 275.825892 
L 411.852382 277.799037 
L 412.688037 280.396628 
L 413.245139 281.396789 
L 413.523691 281.552843 
L 414.359345 279.569308 
L 414.637897 278.701501 
L 415.473551 274.499406 
L 416.030654 273.103309 
L 416.587757 272.133838 
L 416.866308 272.335577 
L 417.423411 273.431075 
L 417.980514 275.115251 
L 418.259065 277.239161 
L 418.537617 277.239161 
L 418.816168 278.396601 
L 419.094719 278.707336 
L 419.373271 278.840128 
L 419.651822 278.804075 
L 419.930374 278.611165 
L 420.208925 278.102746 
L 420.487477 277.269213 
L 421.044579 276.666785 
L 421.323131 276.567392 
L 421.601682 276.860179 
L 421.880234 276.860179 
L 422.158785 278.473842 
L 422.437336 278.812097 
L 423.272991 280.68353 
L 423.551542 280.746781 
L 424.387196 280.551943 
L 424.665748 280.584849 
L 424.944299 281.082248 
L 425.222851 281.082248 
L 425.501402 281.863087 
L 426.337056 282.957109 
L 426.615608 283.162273 
L 427.729814 282.511325 
L 428.008365 282.562592 
L 428.286916 283.013771 
L 428.844019 285.306306 
L 429.401122 287.52469 
L 429.958225 291.371114 
L 430.236776 291.371114 
L 430.515328 293.241743 
L 431.072431 295.110312 
L 431.629534 298.298603 
L 431.908085 298.298603 
L 432.186636 299.703068 
L 432.186636 299.703068 
" clip-path="url(#pe34b4d0224)" style="fill: none; stroke: #008000; stroke-width: 1.5; stroke-linecap: square"/>
   </g>
   <g id="patch_13">
    <path d="M 58.106 301.9975 
L 58.106 251.52 
" style="fill: none; stroke: #000000; stroke-width: 0.8; stroke-linejoin: miter; stroke-linecap: square"/>
   </g>
   <g id="patch_14">
    <path d="M 450 301.9975 
L 450 251.52 
" style="fill: none; stroke: #000000; stroke-width: 0.8; stroke-linejoin: miter; stroke-linecap: square"/>
   </g>
   <g id="patch_15">
    <path d="M 58.106 301.9975 
L 450 301.9975 
" style="fill: none; stroke: #000000; stroke-width: 0.8; stroke-linejoin: miter; stroke-linecap: square"/>
   </g>
   <g id="patch_16">
    <path d="M 58.106 251.52 
L 450 251.52 
" style="fill: none; stroke: #000000; stroke-width: 0.8; stroke-linejoin: miter; stroke-linecap: square"/>
   </g>
   <g id="text_38">
    <!-- Error in swing angle -->
    <g transform="translate(194.282688 245.52)scale(0.12 -0.12)">
     <defs>
      <path id="DejaVuSans-77" d="M 269 3500 
L 844 3500 
L 1563 769 
L 2278 3500 
L 2956 3500 
L 3675 769 
L 4391 3500 
L 4966 3500 
L 4050 0 
L 3372 0 
L 2619 2869 
L 1863 0 
L 1184 0 
L 269 3500 
z
" transform="scale(0.015625)"/>
      <path id="DejaVuSans-67" d="M 2906 1791 
Q 2906 2416 2648 2759 
Q 2391 3103 1925 3103 
Q 1463 3103 1205 2759 
Q 947 2416 947 1791 
Q 947 1169 1205 825 
Q 1463 481 1925 481 
Q 2391 481 2648 825 
Q 2906 1169 2906 1791 
z
M 3481 434 
Q 3481 -459 3084 -895 
Q 2688 -1331 1869 -1331 
Q 1566 -1331 1297 -1286 
Q 1028 -1241 775 -1147 
L 775 -588 
Q 1028 -725 1275 -790 
Q 1522 -856 1778 -856 
Q 2344 -856 2625 -561 
Q 2906 -266 2906 331 
L 2906 616 
Q 2728 306 2450 153 
Q 2172 0 1784 0 
Q 1141 0 747 490 
Q 353 981 353 1791 
Q 353 2603 747 3093 
Q 1141 3584 1784 3584 
Q 2172 3584 2450 3431 
Q 2728 3278 2906 2969 
L 2906 3500 
L 3481 3500 
L 3481 434 
z
" transform="scale(0.015625)"/>
      <path id="DejaVuSans-6c" d="M 603 4863 
L 1178 4863 
L 1178 0 
L 603 0 
L 603 4863 
z
" transform="scale(0.015625)"/>
      <path id="DejaVuSans-65" d="M 3597 1894 
L 3597 1613 
L 953 1613 
Q 991 1019 1311 708 
Q 1631 397 2203 397 
Q 2534 397 2845 478 
Q 3156 559 3463 722 
L 3463 178 
Q 3153 47 2828 -22 
Q 2503 -91 2169 -91 
Q 1331 -91 842 396 
Q 353 884 353 1716 
Q 353 2575 817 3079 
Q 1281 3584 2069 3584 
Q 2775 3584 3186 3129 
Q 3597 2675 3597 1894 
z
M 3022 2063 
Q 3016 2534 2758 2815 
Q 2500 3097 2075 3097 
Q 1594 3097 1305 2825 
Q 1016 2553 972 2059 
L 3022 2063 
z
" transform="scale(0.015625)"/>
     </defs>
     <use xlink:href="#DejaVuSans-45"/>
     <use xlink:href="#DejaVuSans-72" x="63.183594"/>
     <use xlink:href="#DejaVuSans-72" x="102.546875"/>
     <use xlink:href="#DejaVuSans-6f" x="141.410156"/>
     <use xlink:href="#DejaVuSans-72" x="202.591797"/>
     <use xlink:href="#DejaVuSans-20" x="243.705078"/>
     <use xlink:href="#DejaVuSans-69" x="275.492188"/>
     <use xlink:href="#DejaVuSans-6e" x="303.275391"/>
     <use xlink:href="#DejaVuSans-20" x="366.654297"/>
     <use xlink:href="#DejaVuSans-73" x="398.441406"/>
     <use xlink:href="#DejaVuSans-77" x="450.541016"/>
     <use xlink:href="#DejaVuSans-69" x="532.328125"/>
     <use xlink:href="#DejaVuSans-6e" x="560.111328"/>
     <use xlink:href="#DejaVuSans-67" x="623.490234"/>
     <use xlink:href="#DejaVuSans-20" x="686.966797"/>
     <use xlink:href="#DejaVuSans-61" x="718.753906"/>
     <use xlink:href="#DejaVuSans-6e" x="780.033203"/>
     <use xlink:href="#DejaVuSans-67" x="843.412109"/>
     <use xlink:href="#DejaVuSans-6c" x="906.888672"/>
     <use xlink:href="#DejaVuSans-65" x="934.671875"/>
    </g>
   </g>
  </g>
 </g>
 <defs>
  <clipPath id="pd947df7e0b">
   <rect x="58.106" y="28.32" width="391.894" height="50.4775"/>
  </clipPath>
  <clipPath id="p1740656746">
   <rect x="58.106" y="139.92" width="391.894" height="50.4775"/>
  </clipPath>
  <clipPath id="pe34b4d0224">
   <rect x="58.106" y="251.52" width="391.894" height="50.4775"/>
  </clipPath>
 </defs>
</svg>
