<?xml version="1.0" encoding="utf-8" standalone="no"?>
<!DOCTYPE svg PUBLIC "-//W3C//DTD SVG 1.1//EN"
  "http://www.w3.org/Graphics/SVG/1.1/DTD/svg11.dtd">
<svg xmlns:xlink="http://www.w3.org/1999/xlink" width="460.8pt" height="345.6pt" viewBox="0 0 460.8 345.6" xmlns="http://www.w3.org/2000/svg" version="1.1">
 <metadata>
  <rdf:RDF xmlns:dc="http://purl.org/dc/elements/1.1/" xmlns:cc="http://creativecommons.org/ns#" xmlns:rdf="http://www.w3.org/1999/02/22-rdf-syntax-ns#">
   <cc:Work>
    <dc:type rdf:resource="http://purl.org/dc/dcmitype/StillImage"/>
    <dc:date>2022-06-05T14:34:27.297415</dc:date>
    <dc:format>image/svg+xml</dc:format>
    <dc:creator>
     <cc:Agent>
      <dc:title>Matplotlib v3.5.1, https://matplotlib.org/</dc:title>
     </cc:Agent>
    </dc:creator>
   </cc:Work>
  </rdf:RDF>
 </metadata>
 <defs>
  <style type="text/css">*{stroke-linejoin: round; stroke-linecap: butt}</style>
 </defs>
 <g id="figure_1">
  <g id="patch_1">
   <path d="M 0 345.6 
L 460.8 345.6 
L 460.8 0 
L 0 0 
z
" style="fill: #ffffff"/>
  </g>
  <g id="axes_1">
   <g id="patch_2">
    <path d="M 58.106 78.7975 
L 450 78.7975 
L 450 28.32 
L 58.106 28.32 
z
" style="fill: #ffffff"/>
   </g>
   <g id="matplotlib.axis_1">
    <g id="xtick_1">
     <g id="line2d_1">
      <path d="M 75.919364 78.7975 
L 75.919364 28.32 
" clip-path="url(#pec691ee4f1)" style="fill: none; stroke: #b0b0b0; stroke-width: 0.8; stroke-linecap: square"/>
     </g>
     <g id="line2d_2">
      <defs>
       <path id="mff095707f7" d="M 0 0 
L 0 3.5 
" style="stroke: #000000; stroke-width: 0.8"/>
      </defs>
      <g>
       <use xlink:href="#mff095707f7" x="75.919364" y="78.7975" style="stroke: #000000; stroke-width: 0.8"/>
      </g>
     </g>
     <g id="text_1">
      <!-- 0 -->
      <g transform="translate(72.738114 93.395937)scale(0.1 -0.1)">
       <defs>
        <path id="DejaVuSans-30" d="M 2034 4250 
Q 1547 4250 1301 3770 
Q 1056 3291 1056 2328 
Q 1056 1369 1301 889 
Q 1547 409 2034 409 
Q 2525 409 2770 889 
Q 3016 1369 3016 2328 
Q 3016 3291 2770 3770 
Q 2525 4250 2034 4250 
z
M 2034 4750 
Q 2819 4750 3233 4129 
Q 3647 3509 3647 2328 
Q 3647 1150 3233 529 
Q 2819 -91 2034 -91 
Q 1250 -91 836 529 
Q 422 1150 422 2328 
Q 422 3509 836 4129 
Q 1250 4750 2034 4750 
z
" transform="scale(0.015625)"/>
       </defs>
       <use xlink:href="#DejaVuSans-30"/>
      </g>
     </g>
    </g>
    <g id="xtick_2">
     <g id="line2d_3">
      <path d="M 135.545685 78.7975 
L 135.545685 28.32 
" clip-path="url(#pec691ee4f1)" style="fill: none; stroke: #b0b0b0; stroke-width: 0.8; stroke-linecap: square"/>
     </g>
     <g id="line2d_4">
      <g>
       <use xlink:href="#mff095707f7" x="135.545685" y="78.7975" style="stroke: #000000; stroke-width: 0.8"/>
      </g>
     </g>
     <g id="text_2">
      <!-- 2 -->
      <g transform="translate(132.364435 93.395937)scale(0.1 -0.1)">
       <defs>
        <path id="DejaVuSans-32" d="M 1228 531 
L 3431 531 
L 3431 0 
L 469 0 
L 469 531 
Q 828 903 1448 1529 
Q 2069 2156 2228 2338 
Q 2531 2678 2651 2914 
Q 2772 3150 2772 3378 
Q 2772 3750 2511 3984 
Q 2250 4219 1831 4219 
Q 1534 4219 1204 4116 
Q 875 4013 500 3803 
L 500 4441 
Q 881 4594 1212 4672 
Q 1544 4750 1819 4750 
Q 2544 4750 2975 4387 
Q 3406 4025 3406 3419 
Q 3406 3131 3298 2873 
Q 3191 2616 2906 2266 
Q 2828 2175 2409 1742 
Q 1991 1309 1228 531 
z
" transform="scale(0.015625)"/>
       </defs>
       <use xlink:href="#DejaVuSans-32"/>
      </g>
     </g>
    </g>
    <g id="xtick_3">
     <g id="line2d_5">
      <path d="M 195.172007 78.7975 
L 195.172007 28.32 
" clip-path="url(#pec691ee4f1)" style="fill: none; stroke: #b0b0b0; stroke-width: 0.8; stroke-linecap: square"/>
     </g>
     <g id="line2d_6">
      <g>
       <use xlink:href="#mff095707f7" x="195.172007" y="78.7975" style="stroke: #000000; stroke-width: 0.8"/>
      </g>
     </g>
     <g id="text_3">
      <!-- 4 -->
      <g transform="translate(191.990757 93.395937)scale(0.1 -0.1)">
       <defs>
        <path id="DejaVuSans-34" d="M 2419 4116 
L 825 1625 
L 2419 1625 
L 2419 4116 
z
M 2253 4666 
L 3047 4666 
L 3047 1625 
L 3713 1625 
L 3713 1100 
L 3047 1100 
L 3047 0 
L 2419 0 
L 2419 1100 
L 313 1100 
L 313 1709 
L 2253 4666 
z
" transform="scale(0.015625)"/>
       </defs>
       <use xlink:href="#DejaVuSans-34"/>
      </g>
     </g>
    </g>
    <g id="xtick_4">
     <g id="line2d_7">
      <path d="M 254.798329 78.7975 
L 254.798329 28.32 
" clip-path="url(#pec691ee4f1)" style="fill: none; stroke: #b0b0b0; stroke-width: 0.8; stroke-linecap: square"/>
     </g>
     <g id="line2d_8">
      <g>
       <use xlink:href="#mff095707f7" x="254.798329" y="78.7975" style="stroke: #000000; stroke-width: 0.8"/>
      </g>
     </g>
     <g id="text_4">
      <!-- 6 -->
      <g transform="translate(251.617079 93.395937)scale(0.1 -0.1)">
       <defs>
        <path id="DejaVuSans-36" d="M 2113 2584 
Q 1688 2584 1439 2293 
Q 1191 2003 1191 1497 
Q 1191 994 1439 701 
Q 1688 409 2113 409 
Q 2538 409 2786 701 
Q 3034 994 3034 1497 
Q 3034 2003 2786 2293 
Q 2538 2584 2113 2584 
z
M 3366 4563 
L 3366 3988 
Q 3128 4100 2886 4159 
Q 2644 4219 2406 4219 
Q 1781 4219 1451 3797 
Q 1122 3375 1075 2522 
Q 1259 2794 1537 2939 
Q 1816 3084 2150 3084 
Q 2853 3084 3261 2657 
Q 3669 2231 3669 1497 
Q 3669 778 3244 343 
Q 2819 -91 2113 -91 
Q 1303 -91 875 529 
Q 447 1150 447 2328 
Q 447 3434 972 4092 
Q 1497 4750 2381 4750 
Q 2619 4750 2861 4703 
Q 3103 4656 3366 4563 
z
" transform="scale(0.015625)"/>
       </defs>
       <use xlink:href="#DejaVuSans-36"/>
      </g>
     </g>
    </g>
    <g id="xtick_5">
     <g id="line2d_9">
      <path d="M 314.424651 78.7975 
L 314.424651 28.32 
" clip-path="url(#pec691ee4f1)" style="fill: none; stroke: #b0b0b0; stroke-width: 0.8; stroke-linecap: square"/>
     </g>
     <g id="line2d_10">
      <g>
       <use xlink:href="#mff095707f7" x="314.424651" y="78.7975" style="stroke: #000000; stroke-width: 0.8"/>
      </g>
     </g>
     <g id="text_5">
      <!-- 8 -->
      <g transform="translate(311.243401 93.395937)scale(0.1 -0.1)">
       <defs>
        <path id="DejaVuSans-38" d="M 2034 2216 
Q 1584 2216 1326 1975 
Q 1069 1734 1069 1313 
Q 1069 891 1326 650 
Q 1584 409 2034 409 
Q 2484 409 2743 651 
Q 3003 894 3003 1313 
Q 3003 1734 2745 1975 
Q 2488 2216 2034 2216 
z
M 1403 2484 
Q 997 2584 770 2862 
Q 544 3141 544 3541 
Q 544 4100 942 4425 
Q 1341 4750 2034 4750 
Q 2731 4750 3128 4425 
Q 3525 4100 3525 3541 
Q 3525 3141 3298 2862 
Q 3072 2584 2669 2484 
Q 3125 2378 3379 2068 
Q 3634 1759 3634 1313 
Q 3634 634 3220 271 
Q 2806 -91 2034 -91 
Q 1263 -91 848 271 
Q 434 634 434 1313 
Q 434 1759 690 2068 
Q 947 2378 1403 2484 
z
M 1172 3481 
Q 1172 3119 1398 2916 
Q 1625 2713 2034 2713 
Q 2441 2713 2670 2916 
Q 2900 3119 2900 3481 
Q 2900 3844 2670 4047 
Q 2441 4250 2034 4250 
Q 1625 4250 1398 4047 
Q 1172 3844 1172 3481 
z
" transform="scale(0.015625)"/>
       </defs>
       <use xlink:href="#DejaVuSans-38"/>
      </g>
     </g>
    </g>
    <g id="xtick_6">
     <g id="line2d_11">
      <path d="M 374.050973 78.7975 
L 374.050973 28.32 
" clip-path="url(#pec691ee4f1)" style="fill: none; stroke: #b0b0b0; stroke-width: 0.8; stroke-linecap: square"/>
     </g>
     <g id="line2d_12">
      <g>
       <use xlink:href="#mff095707f7" x="374.050973" y="78.7975" style="stroke: #000000; stroke-width: 0.8"/>
      </g>
     </g>
     <g id="text_6">
      <!-- 10 -->
      <g transform="translate(367.688473 93.395937)scale(0.1 -0.1)">
       <defs>
        <path id="DejaVuSans-31" d="M 794 531 
L 1825 531 
L 1825 4091 
L 703 3866 
L 703 4441 
L 1819 4666 
L 2450 4666 
L 2450 531 
L 3481 531 
L 3481 0 
L 794 0 
L 794 531 
z
" transform="scale(0.015625)"/>
       </defs>
       <use xlink:href="#DejaVuSans-31"/>
       <use xlink:href="#DejaVuSans-30" x="63.623047"/>
      </g>
     </g>
    </g>
    <g id="xtick_7">
     <g id="line2d_13">
      <path d="M 433.677294 78.7975 
L 433.677294 28.32 
" clip-path="url(#pec691ee4f1)" style="fill: none; stroke: #b0b0b0; stroke-width: 0.8; stroke-linecap: square"/>
     </g>
     <g id="line2d_14">
      <g>
       <use xlink:href="#mff095707f7" x="433.677294" y="78.7975" style="stroke: #000000; stroke-width: 0.8"/>
      </g>
     </g>
     <g id="text_7">
      <!-- 12 -->
      <g transform="translate(427.314794 93.395937)scale(0.1 -0.1)">
       <use xlink:href="#DejaVuSans-31"/>
       <use xlink:href="#DejaVuSans-32" x="63.623047"/>
      </g>
     </g>
    </g>
    <g id="text_8">
     <!-- $t$ [s] -->
     <g transform="translate(243.953 107.074062)scale(0.1 -0.1)">
      <defs>
       <path id="DejaVuSans-Oblique-74" d="M 2706 3500 
L 2619 3053 
L 1472 3053 
L 1100 1153 
Q 1081 1047 1072 975 
Q 1063 903 1063 863 
Q 1063 663 1183 572 
Q 1303 481 1569 481 
L 2150 481 
L 2053 0 
L 1503 0 
Q 991 0 739 200 
Q 488 400 488 806 
Q 488 878 497 964 
Q 506 1050 525 1153 
L 897 3053 
L 409 3053 
L 500 3500 
L 978 3500 
L 1172 4494 
L 1747 4494 
L 1556 3500 
L 2706 3500 
z
" transform="scale(0.015625)"/>
       <path id="DejaVuSans-20" transform="scale(0.015625)"/>
       <path id="DejaVuSans-5b" d="M 550 4863 
L 1875 4863 
L 1875 4416 
L 1125 4416 
L 1125 -397 
L 1875 -397 
L 1875 -844 
L 550 -844 
L 550 4863 
z
" transform="scale(0.015625)"/>
       <path id="DejaVuSans-73" d="M 2834 3397 
L 2834 2853 
Q 2591 2978 2328 3040 
Q 2066 3103 1784 3103 
Q 1356 3103 1142 2972 
Q 928 2841 928 2578 
Q 928 2378 1081 2264 
Q 1234 2150 1697 2047 
L 1894 2003 
Q 2506 1872 2764 1633 
Q 3022 1394 3022 966 
Q 3022 478 2636 193 
Q 2250 -91 1575 -91 
Q 1294 -91 989 -36 
Q 684 19 347 128 
L 347 722 
Q 666 556 975 473 
Q 1284 391 1588 391 
Q 1994 391 2212 530 
Q 2431 669 2431 922 
Q 2431 1156 2273 1281 
Q 2116 1406 1581 1522 
L 1381 1569 
Q 847 1681 609 1914 
Q 372 2147 372 2553 
Q 372 3047 722 3315 
Q 1072 3584 1716 3584 
Q 2034 3584 2315 3537 
Q 2597 3491 2834 3397 
z
" transform="scale(0.015625)"/>
       <path id="DejaVuSans-5d" d="M 1947 4863 
L 1947 -844 
L 622 -844 
L 622 -397 
L 1369 -397 
L 1369 4416 
L 622 4416 
L 622 4863 
L 1947 4863 
z
" transform="scale(0.015625)"/>
      </defs>
      <use xlink:href="#DejaVuSans-Oblique-74" transform="translate(0 0.015625)"/>
      <use xlink:href="#DejaVuSans-20" transform="translate(39.208984 0.015625)"/>
      <use xlink:href="#DejaVuSans-5b" transform="translate(70.996094 0.015625)"/>
      <use xlink:href="#DejaVuSans-73" transform="translate(110.009766 0.015625)"/>
      <use xlink:href="#DejaVuSans-5d" transform="translate(162.109375 0.015625)"/>
     </g>
    </g>
   </g>
   <g id="matplotlib.axis_2">
    <g id="ytick_1">
     <g id="line2d_15">
      <path d="M 58.106 76.430623 
L 450 76.430623 
" clip-path="url(#pec691ee4f1)" style="fill: none; stroke: #b0b0b0; stroke-width: 0.8; stroke-linecap: square"/>
     </g>
     <g id="line2d_16">
      <defs>
       <path id="mc8a0249468" d="M 0 0 
L -3.5 0 
" style="stroke: #000000; stroke-width: 0.8"/>
      </defs>
      <g>
       <use xlink:href="#mc8a0249468" x="58.106" y="76.430623" style="stroke: #000000; stroke-width: 0.8"/>
      </g>
     </g>
     <g id="text_9">
      <!-- 0 -->
      <g transform="translate(44.7435 80.229841)scale(0.1 -0.1)">
       <use xlink:href="#DejaVuSans-30"/>
      </g>
     </g>
    </g>
    <g id="ytick_2">
     <g id="line2d_17">
      <path d="M 58.106 30.614432 
L 450 30.614432 
" clip-path="url(#pec691ee4f1)" style="fill: none; stroke: #b0b0b0; stroke-width: 0.8; stroke-linecap: square"/>
     </g>
     <g id="line2d_18">
      <g>
       <use xlink:href="#mc8a0249468" x="58.106" y="30.614432" style="stroke: #000000; stroke-width: 0.8"/>
      </g>
     </g>
     <g id="text_10">
      <!-- 10 -->
      <g transform="translate(38.381 34.413651)scale(0.1 -0.1)">
       <use xlink:href="#DejaVuSans-31"/>
       <use xlink:href="#DejaVuSans-30" x="63.623047"/>
      </g>
     </g>
    </g>
    <g id="text_11">
     <!-- $e_x$ [m] -->
     <g transform="translate(32.301313 69.20875)rotate(-90)scale(0.1 -0.1)">
      <defs>
       <path id="DejaVuSans-Oblique-65" d="M 3078 2063 
Q 3088 2113 3092 2166 
Q 3097 2219 3097 2272 
Q 3097 2653 2873 2875 
Q 2650 3097 2266 3097 
Q 1838 3097 1509 2826 
Q 1181 2556 1013 2059 
L 3078 2063 
z
M 3578 1613 
L 903 1613 
Q 884 1494 878 1425 
Q 872 1356 872 1306 
Q 872 872 1139 634 
Q 1406 397 1894 397 
Q 2269 397 2603 481 
Q 2938 566 3225 728 
L 3116 159 
Q 2806 34 2476 -28 
Q 2147 -91 1806 -91 
Q 1078 -91 686 257 
Q 294 606 294 1247 
Q 294 1794 489 2264 
Q 684 2734 1063 3103 
Q 1306 3334 1642 3459 
Q 1978 3584 2356 3584 
Q 2950 3584 3301 3228 
Q 3653 2872 3653 2272 
Q 3653 2128 3634 1964 
Q 3616 1800 3578 1613 
z
" transform="scale(0.015625)"/>
       <path id="DejaVuSans-Oblique-78" d="M 3841 3500 
L 2234 1784 
L 3219 0 
L 2559 0 
L 1819 1388 
L 531 0 
L -166 0 
L 1556 1844 
L 641 3500 
L 1300 3500 
L 1972 2234 
L 3144 3500 
L 3841 3500 
z
" transform="scale(0.015625)"/>
       <path id="DejaVuSans-6d" d="M 3328 2828 
Q 3544 3216 3844 3400 
Q 4144 3584 4550 3584 
Q 5097 3584 5394 3201 
Q 5691 2819 5691 2113 
L 5691 0 
L 5113 0 
L 5113 2094 
Q 5113 2597 4934 2840 
Q 4756 3084 4391 3084 
Q 3944 3084 3684 2787 
Q 3425 2491 3425 1978 
L 3425 0 
L 2847 0 
L 2847 2094 
Q 2847 2600 2669 2842 
Q 2491 3084 2119 3084 
Q 1678 3084 1418 2786 
Q 1159 2488 1159 1978 
L 1159 0 
L 581 0 
L 581 3500 
L 1159 3500 
L 1159 2956 
Q 1356 3278 1631 3431 
Q 1906 3584 2284 3584 
Q 2666 3584 2933 3390 
Q 3200 3197 3328 2828 
z
" transform="scale(0.015625)"/>
      </defs>
      <use xlink:href="#DejaVuSans-Oblique-65" transform="translate(0 0.015625)"/>
      <use xlink:href="#DejaVuSans-Oblique-78" transform="translate(61.523438 -16.390625)scale(0.7)"/>
      <use xlink:href="#DejaVuSans-20" transform="translate(105.683594 0.015625)"/>
      <use xlink:href="#DejaVuSans-5b" transform="translate(137.470703 0.015625)"/>
      <use xlink:href="#DejaVuSans-6d" transform="translate(176.484375 0.015625)"/>
      <use xlink:href="#DejaVuSans-5d" transform="translate(273.896484 0.015625)"/>
     </g>
    </g>
   </g>
   <g id="line2d_19">
    <path d="M 75.919364 30.614432 
L 82.782134 30.712682 
L 97.402817 31.461679 
L 98.894724 31.621795 
L 101.580155 31.958429 
L 103.072062 32.184181 
L 103.668825 32.280937 
L 105.160731 32.45818 
L 118.289508 34.668856 
L 119.184652 34.860125 
L 121.571703 35.358884 
L 124.853897 36.190673 
L 126.942566 36.723894 
L 129.627998 37.486424 
L 132.313429 38.161732 
L 134.70048 38.879021 
L 134.998861 38.879021 
L 135.894005 39.171542 
L 138.281055 39.844285 
L 138.579437 39.844285 
L 139.474581 40.157336 
L 140.369725 40.311522 
L 141.264868 40.584883 
L 142.756775 40.942068 
L 145.442207 41.583505 
L 146.337351 41.813474 
L 148.724401 42.352041 
L 149.022782 42.492379 
L 149.321164 42.492379 
L 150.216307 42.716171 
L 152.304977 43.189062 
L 152.603358 43.327339 
L 153.20012 43.437603 
L 155.885552 44.00859 
L 156.780696 44.274209 
L 157.67584 44.405362 
L 158.570984 44.664697 
L 159.466128 44.793093 
L 160.361272 45.047756 
L 161.256416 45.174081 
L 162.449941 45.474366 
L 163.345085 45.64745 
L 164.836991 45.916197 
L 166.92566 46.350919 
L 167.820804 46.54486 
L 170.804617 47.12948 
L 171.699761 47.32062 
L 173.78843 47.713532 
L 174.385193 47.826709 
L 175.280337 48.007532 
L 177.965768 48.506577 
L 178.860912 48.686078 
L 181.546344 49.149747 
L 182.143107 49.304868 
L 185.12692 49.817863 
L 185.723682 49.971879 
L 188.707495 50.518308 
L 191.392927 51.02012 
L 194.078359 51.495608 
L 194.675121 51.649642 
L 197.062172 52.068398 
L 198.554078 52.410992 
L 199.150841 52.503413 
L 202.134654 53.048647 
L 203.029798 53.224997 
L 205.416848 53.643679 
L 206.013611 53.755483 
L 206.908755 53.935621 
L 209.594186 54.448618 
L 211.981237 54.875396 
L 214.96505 55.387935 
L 215.860194 55.561351 
L 218.247244 55.986097 
L 219.142388 56.14999 
L 221.82782 56.599153 
L 222.722963 56.767324 
L 225.706776 57.25414 
L 226.303539 57.398466 
L 229.287352 57.865662 
L 229.884115 58.011212 
L 232.569546 58.498522 
L 234.956597 58.929751 
L 236.150122 59.111405 
L 238.835554 59.587008 
L 241.520985 60.04025 
L 244.206417 60.476188 
L 245.101561 60.636618 
L 247.786993 61.104035 
L 249.875662 61.456008 
L 250.472424 61.532727 
L 253.456237 61.999985 
L 254.351381 62.159485 
L 257.335194 62.604291 
L 257.931957 62.733088 
L 260.91577 63.156585 
L 261.512533 63.290635 
L 264.496346 63.739977 
L 265.093108 63.87201 
L 269.270446 64.47579 
L 270.16559 64.640138 
L 273.149403 65.097132 
L 274.044547 65.246254 
L 279.713792 66.037449 
L 284.487893 66.756552 
L 289.560375 67.410431 
L 290.7539 67.578399 
L 293.14095 67.901551 
L 293.737713 68.016008 
L 298.511814 68.600835 
L 299.108576 68.713022 
L 302.390771 69.173851 
L 305.374584 69.55282 
L 308.955159 70.016987 
L 313.430879 70.591924 
L 314.326023 70.722724 
L 317.906598 71.169275 
L 320.890411 71.576976 
L 321.785555 71.687977 
L 326.559656 72.292614 
L 330.736994 72.831788 
L 337.003002 73.582249 
L 338.793289 73.837677 
L 357.889693 75.661677 
L 359.978362 75.767657 
L 362.962175 75.929795 
L 375.494189 76.339701 
L 381.461815 76.339316 
L 396.38088 76.093695 
L 406.824226 75.915497 
L 418.162715 75.932855 
L 428.606061 76.348522 
L 431.589874 76.485914 
L 432.186636 76.503068 
L 432.186636 76.503068 
" clip-path="url(#pec691ee4f1)" style="fill: none; stroke: #ff0000; stroke-width: 1.5; stroke-linecap: square"/>
   </g>
   <g id="patch_3">
    <path d="M 58.106 78.7975 
L 58.106 28.32 
" style="fill: none; stroke: #000000; stroke-width: 0.8; stroke-linejoin: miter; stroke-linecap: square"/>
   </g>
   <g id="patch_4">
    <path d="M 450 78.7975 
L 450 28.32 
" style="fill: none; stroke: #000000; stroke-width: 0.8; stroke-linejoin: miter; stroke-linecap: square"/>
   </g>
   <g id="patch_5">
    <path d="M 58.106 78.7975 
L 450 78.7975 
" style="fill: none; stroke: #000000; stroke-width: 0.8; stroke-linejoin: miter; stroke-linecap: square"/>
   </g>
   <g id="patch_6">
    <path d="M 58.106 28.32 
L 450 28.32 
" style="fill: none; stroke: #000000; stroke-width: 0.8; stroke-linejoin: miter; stroke-linecap: square"/>
   </g>
   <g id="text_12">
    <!-- Error in $x$-position -->
    <g transform="translate(200.413 22.32)scale(0.12 -0.12)">
     <defs>
      <path id="DejaVuSans-45" d="M 628 4666 
L 3578 4666 
L 3578 4134 
L 1259 4134 
L 1259 2753 
L 3481 2753 
L 3481 2222 
L 1259 2222 
L 1259 531 
L 3634 531 
L 3634 0 
L 628 0 
L 628 4666 
z
" transform="scale(0.015625)"/>
      <path id="DejaVuSans-72" d="M 2631 2963 
Q 2534 3019 2420 3045 
Q 2306 3072 2169 3072 
Q 1681 3072 1420 2755 
Q 1159 2438 1159 1844 
L 1159 0 
L 581 0 
L 581 3500 
L 1159 3500 
L 1159 2956 
Q 1341 3275 1631 3429 
Q 1922 3584 2338 3584 
Q 2397 3584 2469 3576 
Q 2541 3569 2628 3553 
L 2631 2963 
z
" transform="scale(0.015625)"/>
      <path id="DejaVuSans-6f" d="M 1959 3097 
Q 1497 3097 1228 2736 
Q 959 2375 959 1747 
Q 959 1119 1226 758 
Q 1494 397 1959 397 
Q 2419 397 2687 759 
Q 2956 1122 2956 1747 
Q 2956 2369 2687 2733 
Q 2419 3097 1959 3097 
z
M 1959 3584 
Q 2709 3584 3137 3096 
Q 3566 2609 3566 1747 
Q 3566 888 3137 398 
Q 2709 -91 1959 -91 
Q 1206 -91 779 398 
Q 353 888 353 1747 
Q 353 2609 779 3096 
Q 1206 3584 1959 3584 
z
" transform="scale(0.015625)"/>
      <path id="DejaVuSans-69" d="M 603 3500 
L 1178 3500 
L 1178 0 
L 603 0 
L 603 3500 
z
M 603 4863 
L 1178 4863 
L 1178 4134 
L 603 4134 
L 603 4863 
z
" transform="scale(0.015625)"/>
      <path id="DejaVuSans-6e" d="M 3513 2113 
L 3513 0 
L 2938 0 
L 2938 2094 
Q 2938 2591 2744 2837 
Q 2550 3084 2163 3084 
Q 1697 3084 1428 2787 
Q 1159 2491 1159 1978 
L 1159 0 
L 581 0 
L 581 3500 
L 1159 3500 
L 1159 2956 
Q 1366 3272 1645 3428 
Q 1925 3584 2291 3584 
Q 2894 3584 3203 3211 
Q 3513 2838 3513 2113 
z
" transform="scale(0.015625)"/>
      <path id="DejaVuSans-2d" d="M 313 2009 
L 1997 2009 
L 1997 1497 
L 313 1497 
L 313 2009 
z
" transform="scale(0.015625)"/>
      <path id="DejaVuSans-70" d="M 1159 525 
L 1159 -1331 
L 581 -1331 
L 581 3500 
L 1159 3500 
L 1159 2969 
Q 1341 3281 1617 3432 
Q 1894 3584 2278 3584 
Q 2916 3584 3314 3078 
Q 3713 2572 3713 1747 
Q 3713 922 3314 415 
Q 2916 -91 2278 -91 
Q 1894 -91 1617 61 
Q 1341 213 1159 525 
z
M 3116 1747 
Q 3116 2381 2855 2742 
Q 2594 3103 2138 3103 
Q 1681 3103 1420 2742 
Q 1159 2381 1159 1747 
Q 1159 1113 1420 752 
Q 1681 391 2138 391 
Q 2594 391 2855 752 
Q 3116 1113 3116 1747 
z
" transform="scale(0.015625)"/>
      <path id="DejaVuSans-74" d="M 1172 4494 
L 1172 3500 
L 2356 3500 
L 2356 3053 
L 1172 3053 
L 1172 1153 
Q 1172 725 1289 603 
Q 1406 481 1766 481 
L 2356 481 
L 2356 0 
L 1766 0 
Q 1100 0 847 248 
Q 594 497 594 1153 
L 594 3053 
L 172 3053 
L 172 3500 
L 594 3500 
L 594 4494 
L 1172 4494 
z
" transform="scale(0.015625)"/>
     </defs>
     <use xlink:href="#DejaVuSans-45" transform="translate(0 0.015625)"/>
     <use xlink:href="#DejaVuSans-72" transform="translate(63.183594 0.015625)"/>
     <use xlink:href="#DejaVuSans-72" transform="translate(104.296875 0.015625)"/>
     <use xlink:href="#DejaVuSans-6f" transform="translate(145.410156 0.015625)"/>
     <use xlink:href="#DejaVuSans-72" transform="translate(206.591797 0.015625)"/>
     <use xlink:href="#DejaVuSans-20" transform="translate(247.705078 0.015625)"/>
     <use xlink:href="#DejaVuSans-69" transform="translate(279.492188 0.015625)"/>
     <use xlink:href="#DejaVuSans-6e" transform="translate(307.275391 0.015625)"/>
     <use xlink:href="#DejaVuSans-20" transform="translate(370.654297 0.015625)"/>
     <use xlink:href="#DejaVuSans-Oblique-78" transform="translate(402.441406 0.015625)"/>
     <use xlink:href="#DejaVuSans-2d" transform="translate(461.621094 0.015625)"/>
     <use xlink:href="#DejaVuSans-70" transform="translate(497.705078 0.015625)"/>
     <use xlink:href="#DejaVuSans-6f" transform="translate(561.181641 0.015625)"/>
     <use xlink:href="#DejaVuSans-73" transform="translate(622.363281 0.015625)"/>
     <use xlink:href="#DejaVuSans-69" transform="translate(674.462891 0.015625)"/>
     <use xlink:href="#DejaVuSans-74" transform="translate(702.246094 0.015625)"/>
     <use xlink:href="#DejaVuSans-69" transform="translate(741.455078 0.015625)"/>
     <use xlink:href="#DejaVuSans-6f" transform="translate(769.238281 0.015625)"/>
     <use xlink:href="#DejaVuSans-6e" transform="translate(830.419922 0.015625)"/>
    </g>
   </g>
  </g>
  <g id="axes_2">
   <g id="patch_7">
    <path d="M 58.106 190.3975 
L 450 190.3975 
L 450 139.92 
L 58.106 139.92 
z
" style="fill: #ffffff"/>
   </g>
   <g id="matplotlib.axis_3">
    <g id="xtick_8">
     <g id="line2d_20">
      <path d="M 75.919364 190.3975 
L 75.919364 139.92 
" clip-path="url(#p7c6a69a2ea)" style="fill: none; stroke: #b0b0b0; stroke-width: 0.8; stroke-linecap: square"/>
     </g>
     <g id="line2d_21">
      <g>
       <use xlink:href="#mff095707f7" x="75.919364" y="190.3975" style="stroke: #000000; stroke-width: 0.8"/>
      </g>
     </g>
     <g id="text_13">
      <!-- 0 -->
      <g transform="translate(72.738114 204.995937)scale(0.1 -0.1)">
       <use xlink:href="#DejaVuSans-30"/>
      </g>
     </g>
    </g>
    <g id="xtick_9">
     <g id="line2d_22">
      <path d="M 135.545685 190.3975 
L 135.545685 139.92 
" clip-path="url(#p7c6a69a2ea)" style="fill: none; stroke: #b0b0b0; stroke-width: 0.8; stroke-linecap: square"/>
     </g>
     <g id="line2d_23">
      <g>
       <use xlink:href="#mff095707f7" x="135.545685" y="190.3975" style="stroke: #000000; stroke-width: 0.8"/>
      </g>
     </g>
     <g id="text_14">
      <!-- 2 -->
      <g transform="translate(132.364435 204.995937)scale(0.1 -0.1)">
       <use xlink:href="#DejaVuSans-32"/>
      </g>
     </g>
    </g>
    <g id="xtick_10">
     <g id="line2d_24">
      <path d="M 195.172007 190.3975 
L 195.172007 139.92 
" clip-path="url(#p7c6a69a2ea)" style="fill: none; stroke: #b0b0b0; stroke-width: 0.8; stroke-linecap: square"/>
     </g>
     <g id="line2d_25">
      <g>
       <use xlink:href="#mff095707f7" x="195.172007" y="190.3975" style="stroke: #000000; stroke-width: 0.8"/>
      </g>
     </g>
     <g id="text_15">
      <!-- 4 -->
      <g transform="translate(191.990757 204.995937)scale(0.1 -0.1)">
       <use xlink:href="#DejaVuSans-34"/>
      </g>
     </g>
    </g>
    <g id="xtick_11">
     <g id="line2d_26">
      <path d="M 254.798329 190.3975 
L 254.798329 139.92 
" clip-path="url(#p7c6a69a2ea)" style="fill: none; stroke: #b0b0b0; stroke-width: 0.8; stroke-linecap: square"/>
     </g>
     <g id="line2d_27">
      <g>
       <use xlink:href="#mff095707f7" x="254.798329" y="190.3975" style="stroke: #000000; stroke-width: 0.8"/>
      </g>
     </g>
     <g id="text_16">
      <!-- 6 -->
      <g transform="translate(251.617079 204.995937)scale(0.1 -0.1)">
       <use xlink:href="#DejaVuSans-36"/>
      </g>
     </g>
    </g>
    <g id="xtick_12">
     <g id="line2d_28">
      <path d="M 314.424651 190.3975 
L 314.424651 139.92 
" clip-path="url(#p7c6a69a2ea)" style="fill: none; stroke: #b0b0b0; stroke-width: 0.8; stroke-linecap: square"/>
     </g>
     <g id="line2d_29">
      <g>
       <use xlink:href="#mff095707f7" x="314.424651" y="190.3975" style="stroke: #000000; stroke-width: 0.8"/>
      </g>
     </g>
     <g id="text_17">
      <!-- 8 -->
      <g transform="translate(311.243401 204.995937)scale(0.1 -0.1)">
       <use xlink:href="#DejaVuSans-38"/>
      </g>
     </g>
    </g>
    <g id="xtick_13">
     <g id="line2d_30">
      <path d="M 374.050973 190.3975 
L 374.050973 139.92 
" clip-path="url(#p7c6a69a2ea)" style="fill: none; stroke: #b0b0b0; stroke-width: 0.8; stroke-linecap: square"/>
     </g>
     <g id="line2d_31">
      <g>
       <use xlink:href="#mff095707f7" x="374.050973" y="190.3975" style="stroke: #000000; stroke-width: 0.8"/>
      </g>
     </g>
     <g id="text_18">
      <!-- 10 -->
      <g transform="translate(367.688473 204.995937)scale(0.1 -0.1)">
       <use xlink:href="#DejaVuSans-31"/>
       <use xlink:href="#DejaVuSans-30" x="63.623047"/>
      </g>
     </g>
    </g>
    <g id="xtick_14">
     <g id="line2d_32">
      <path d="M 433.677294 190.3975 
L 433.677294 139.92 
" clip-path="url(#p7c6a69a2ea)" style="fill: none; stroke: #b0b0b0; stroke-width: 0.8; stroke-linecap: square"/>
     </g>
     <g id="line2d_33">
      <g>
       <use xlink:href="#mff095707f7" x="433.677294" y="190.3975" style="stroke: #000000; stroke-width: 0.8"/>
      </g>
     </g>
     <g id="text_19">
      <!-- 12 -->
      <g transform="translate(427.314794 204.995937)scale(0.1 -0.1)">
       <use xlink:href="#DejaVuSans-31"/>
       <use xlink:href="#DejaVuSans-32" x="63.623047"/>
      </g>
     </g>
    </g>
    <g id="text_20">
     <!-- $t$ [s] -->
     <g transform="translate(243.953 218.674062)scale(0.1 -0.1)">
      <use xlink:href="#DejaVuSans-Oblique-74" transform="translate(0 0.015625)"/>
      <use xlink:href="#DejaVuSans-20" transform="translate(39.208984 0.015625)"/>
      <use xlink:href="#DejaVuSans-5b" transform="translate(70.996094 0.015625)"/>
      <use xlink:href="#DejaVuSans-73" transform="translate(110.009766 0.015625)"/>
      <use xlink:href="#DejaVuSans-5d" transform="translate(162.109375 0.015625)"/>
     </g>
    </g>
   </g>
   <g id="matplotlib.axis_4">
    <g id="ytick_3">
     <g id="line2d_34">
      <path d="M 58.106 181.10848 
L 450 181.10848 
" clip-path="url(#p7c6a69a2ea)" style="fill: none; stroke: #b0b0b0; stroke-width: 0.8; stroke-linecap: square"/>
     </g>
     <g id="line2d_35">
      <g>
       <use xlink:href="#mc8a0249468" x="58.106" y="181.10848" style="stroke: #000000; stroke-width: 0.8"/>
      </g>
     </g>
     <g id="text_21">
      <!-- −0.1 -->
      <g transform="translate(26.823188 184.907699)scale(0.1 -0.1)">
       <defs>
        <path id="DejaVuSans-2212" d="M 678 2272 
L 4684 2272 
L 4684 1741 
L 678 1741 
L 678 2272 
z
" transform="scale(0.015625)"/>
        <path id="DejaVuSans-2e" d="M 684 794 
L 1344 794 
L 1344 0 
L 684 0 
L 684 794 
z
" transform="scale(0.015625)"/>
       </defs>
       <use xlink:href="#DejaVuSans-2212"/>
       <use xlink:href="#DejaVuSans-30" x="83.789062"/>
       <use xlink:href="#DejaVuSans-2e" x="147.412109"/>
       <use xlink:href="#DejaVuSans-31" x="179.199219"/>
      </g>
     </g>
    </g>
    <g id="ytick_4">
     <g id="line2d_36">
      <path d="M 58.106 166.154182 
L 450 166.154182 
" clip-path="url(#p7c6a69a2ea)" style="fill: none; stroke: #b0b0b0; stroke-width: 0.8; stroke-linecap: square"/>
     </g>
     <g id="line2d_37">
      <g>
       <use xlink:href="#mc8a0249468" x="58.106" y="166.154182" style="stroke: #000000; stroke-width: 0.8"/>
      </g>
     </g>
     <g id="text_22">
      <!-- 0.0 -->
      <g transform="translate(35.202875 169.953401)scale(0.1 -0.1)">
       <use xlink:href="#DejaVuSans-30"/>
       <use xlink:href="#DejaVuSans-2e" x="63.623047"/>
       <use xlink:href="#DejaVuSans-30" x="95.410156"/>
      </g>
     </g>
    </g>
    <g id="ytick_5">
     <g id="line2d_38">
      <path d="M 58.106 151.199885 
L 450 151.199885 
" clip-path="url(#p7c6a69a2ea)" style="fill: none; stroke: #b0b0b0; stroke-width: 0.8; stroke-linecap: square"/>
     </g>
     <g id="line2d_39">
      <g>
       <use xlink:href="#mc8a0249468" x="58.106" y="151.199885" style="stroke: #000000; stroke-width: 0.8"/>
      </g>
     </g>
     <g id="text_23">
      <!-- 0.1 -->
      <g transform="translate(35.202875 154.999104)scale(0.1 -0.1)">
       <use xlink:href="#DejaVuSans-30"/>
       <use xlink:href="#DejaVuSans-2e" x="63.623047"/>
       <use xlink:href="#DejaVuSans-31" x="95.410156"/>
      </g>
     </g>
    </g>
    <g id="text_24">
     <!-- $e_z$ [m] -->
     <g transform="translate(20.7435 180.60875)rotate(-90)scale(0.1 -0.1)">
      <defs>
       <path id="DejaVuSans-Oblique-7a" d="M 744 3500 
L 3475 3500 
L 3372 2975 
L 738 459 
L 2913 459 
L 2822 0 
L -19 0 
L 84 525 
L 2719 3041 
L 653 3041 
L 744 3500 
z
" transform="scale(0.015625)"/>
      </defs>
      <use xlink:href="#DejaVuSans-Oblique-65" transform="translate(0 0.015625)"/>
      <use xlink:href="#DejaVuSans-Oblique-7a" transform="translate(61.523438 -16.390625)scale(0.7)"/>
      <use xlink:href="#DejaVuSans-20" transform="translate(101.000977 0.015625)"/>
      <use xlink:href="#DejaVuSans-5b" transform="translate(132.788086 0.015625)"/>
      <use xlink:href="#DejaVuSans-6d" transform="translate(171.801758 0.015625)"/>
      <use xlink:href="#DejaVuSans-5d" transform="translate(269.213867 0.015625)"/>
     </g>
    </g>
   </g>
   <g id="line2d_40">
    <path d="M 75.919364 167.596191 
L 76.516126 167.227362 
L 77.709651 166.57372 
L 78.604795 165.872697 
L 79.798321 165.461455 
L 80.693464 165.509789 
L 81.88699 165.707861 
L 82.483752 165.701317 
L 83.677277 165.338144 
L 84.870803 164.223855 
L 85.169184 164.10478 
L 85.467565 163.860471 
L 85.765947 163.365182 
L 86.362709 162.783665 
L 86.66109 162.470883 
L 87.257853 162.185674 
L 87.556234 161.832591 
L 88.152997 161.380402 
L 88.451378 161.072662 
L 88.74976 160.961278 
L 89.048141 160.723142 
L 89.346522 160.178608 
L 89.644903 159.869864 
L 90.241666 158.807879 
L 90.540047 158.614558 
L 90.838429 158.220995 
L 91.13681 157.425135 
L 91.435191 157.028797 
L 92.031954 155.891899 
L 92.330335 155.716809 
L 92.628716 155.384634 
L 92.927098 154.80497 
L 94.120623 153.96655 
L 95.015767 153.719739 
L 95.910911 153.768167 
L 96.507673 153.958911 
L 97.402817 154.288207 
L 97.701199 154.491301 
L 97.99958 154.491301 
L 98.596342 154.766747 
L 99.789868 155.02581 
L 100.983393 154.91831 
L 101.281774 154.701041 
L 101.580155 154.701041 
L 102.176918 154.280162 
L 102.773681 153.907147 
L 103.072062 153.480637 
L 103.370443 153.480637 
L 103.668825 152.760982 
L 103.967206 152.632871 
L 104.563968 152.102662 
L 104.86235 151.557368 
L 105.459112 150.896962 
L 106.055875 150.209457 
L 106.354256 150.209457 
L 106.652638 149.850597 
L 107.846163 149.332097 
L 109.338069 148.828786 
L 109.636451 148.637493 
L 109.934832 148.637493 
L 110.531594 148.286839 
L 111.128357 147.946893 
L 111.72512 147.503008 
L 112.918645 146.825879 
L 113.515407 146.424442 
L 114.708933 145.888723 
L 115.007314 145.646061 
L 115.305695 145.646061 
L 115.902458 145.227757 
L 116.49922 144.79713 
L 116.797602 144.383385 
L 117.095983 144.383385 
L 117.394364 143.930375 
L 118.289508 143.142082 
L 118.58789 142.755906 
L 119.483034 142.354413 
L 120.378177 142.228364 
L 120.676559 142.228364 
L 121.870084 142.763962 
L 122.168465 143.108204 
L 122.466847 143.108204 
L 123.063609 143.753772 
L 123.36199 144.001 
L 123.958753 144.969621 
L 124.257134 144.969621 
L 124.555516 145.576059 
L 125.152278 146.201184 
L 125.749041 147.299558 
L 126.047422 147.299558 
L 126.345803 147.907668 
L 127.240947 148.894308 
L 127.539329 149.398873 
L 127.83771 149.398873 
L 128.136091 149.850465 
L 129.031235 150.503865 
L 129.329616 150.809185 
L 130.821523 151.501351 
L 131.119904 151.759051 
L 131.418286 151.759051 
L 132.015048 152.211362 
L 132.611811 152.666271 
L 132.910192 153.082003 
L 133.208573 153.082003 
L 133.506955 153.536331 
L 134.402099 154.380626 
L 134.70048 154.855177 
L 134.998861 154.855177 
L 135.297242 155.297672 
L 137.08753 156.478767 
L 138.877818 157.179703 
L 140.966487 158.393536 
L 141.861631 159.183584 
L 142.160012 159.183584 
L 142.458394 159.51085 
L 143.353538 160.008737 
L 143.9503 160.367135 
L 145.442207 161.017243 
L 146.038969 161.488162 
L 147.232494 162.345466 
L 148.724401 164.24823 
L 149.022782 165.082443 
L 149.321164 165.082443 
L 149.619545 165.760674 
L 150.514689 166.769245 
L 150.81307 167.580159 
L 151.111451 167.580159 
L 151.409833 168.204091 
L 152.304977 169.102732 
L 152.603358 169.826383 
L 152.901739 169.826383 
L 153.20012 170.396805 
L 154.095264 171.250976 
L 154.692027 172.265656 
L 154.990408 172.707186 
L 155.28879 172.855 
L 155.885552 173.448644 
L 156.482315 174.493122 
L 156.780696 174.937195 
L 157.079077 175.084114 
L 157.67584 175.664653 
L 158.272603 176.647217 
L 158.570984 177.053147 
L 158.869365 177.186323 
L 159.466128 177.707706 
L 160.06289 178.571461 
L 160.361272 178.918693 
L 160.958034 179.248732 
L 161.256416 179.457612 
L 161.554797 179.84338 
L 163.345085 180.772516 
L 164.240229 180.907453 
L 166.92566 181.118345 
L 167.820804 181.449465 
L 169.909473 182.090362 
L 170.804617 182.087143 
L 172.296524 181.877156 
L 173.191668 181.850046 
L 173.78843 181.91808 
L 174.086811 182.064749 
L 174.385193 182.064749 
L 174.981955 182.251835 
L 176.175481 182.364621 
L 177.369006 182.169788 
L 179.159294 181.817159 
L 180.054437 181.966193 
L 180.949581 182.171591 
L 181.247963 182.365027 
L 181.546344 182.365027 
L 181.844725 182.624298 
L 183.635013 182.71772 
L 184.530157 182.580019 
L 185.425301 182.3492 
L 187.51397 182.259517 
L 188.110733 182.402741 
L 189.304258 183.283208 
L 189.90102 183.549254 
L 190.199402 183.883984 
L 191.691308 184.51618 
L 192.288071 184.657877 
L 193.779977 184.774329 
L 195.271884 184.884005 
L 197.062172 185.669962 
L 197.658934 186.135815 
L 198.255697 186.501808 
L 198.554078 186.748172 
L 198.852459 186.748172 
L 199.449222 187.002691 
L 200.642747 187.103663 
L 202.134654 186.917908 
L 203.029798 186.810659 
L 204.223323 186.862975 
L 205.715229 187.182676 
L 208.400661 187.076942 
L 210.787711 186.64568 
L 212.279618 186.913915 
L 214.368287 187.284802 
L 215.263431 187.189593 
L 216.755337 186.834253 
L 217.3521 186.704313 
L 218.247244 186.703255 
L 220.932676 187.280737 
L 223.021345 187.581624 
L 223.916489 187.523818 
L 224.811633 187.373437 
L 226.900302 187.263298 
L 228.392208 187.444103 
L 229.287352 187.62571 
L 229.585733 187.819928 
L 231.972784 187.953028 
L 234.359834 187.598437 
L 235.851741 187.764504 
L 237.045266 188.013212 
L 238.238791 188.103068 
L 239.432316 188.019349 
L 240.32746 187.886083 
L 241.520985 187.896247 
L 243.908036 188.078788 
L 247.19023 187.657048 
L 248.383755 187.783088 
L 249.278899 187.989673 
L 250.174043 188.100252 
L 251.069187 187.986097 
L 254.649763 186.873747 
L 255.544907 186.860258 
L 257.931957 187.263102 
L 258.827101 187.190295 
L 260.319007 186.76839 
L 260.617389 186.564742 
L 260.91577 186.564742 
L 261.214151 186.213667 
L 261.810914 186.024537 
L 263.601202 185.364498 
L 264.496346 185.345459 
L 265.391489 185.489692 
L 267.181777 185.619931 
L 268.076921 185.447304 
L 268.673684 185.170145 
L 269.270446 184.946207 
L 269.568828 184.661673 
L 269.867209 184.661673 
L 270.463972 184.282539 
L 271.657497 183.643623 
L 271.955878 183.4057 
L 273.149403 183.139703 
L 274.342928 183.271242 
L 276.431598 183.577954 
L 277.02836 183.448559 
L 277.923504 183.165175 
L 279.415411 182.284661 
L 280.012173 181.978345 
L 280.310554 181.726862 
L 280.608936 181.726862 
L 281.205698 181.353317 
L 282.399224 180.987868 
L 282.995986 180.977781 
L 283.89113 181.182442 
L 284.487893 181.459805 
L 286.27818 181.91686 
L 287.173324 181.829956 
L 287.770087 181.621962 
L 288.36685 181.271258 
L 291.649044 180.006491 
L 292.544188 180.022086 
L 295.229619 180.779626 
L 296.423145 180.711813 
L 296.721526 180.711813 
L 297.019907 180.507131 
L 297.915051 180.286454 
L 298.213432 180.110877 
L 298.511814 180.110877 
L 298.810195 179.844748 
L 299.705339 179.620363 
L 300.00372 179.462041 
L 300.302102 179.462041 
L 300.600483 179.314997 
L 301.794008 179.368748 
L 302.689152 179.631665 
L 303.584296 179.880897 
L 305.076202 180.098728 
L 306.269728 179.954605 
L 307.761634 179.60818 
L 310.447066 179.330335 
L 312.535735 179.540732 
L 314.624404 179.467732 
L 318.503361 179.357359 
L 319.398505 179.389009 
L 319.995267 179.523885 
L 322.97908 179.964827 
L 327.753181 180.272603 
L 328.349944 180.381378 
L 329.245088 180.585467 
L 332.527282 181.12406 
L 334.019189 181.313234 
L 336.107858 181.742288 
L 339.390052 182.189026 
L 340.881958 182.421647 
L 342.075484 182.716958 
L 343.56739 183.366678 
L 344.760915 183.631478 
L 345.656059 183.574535 
L 347.147966 183.087083 
L 348.341491 182.840206 
L 349.236635 182.95758 
L 349.833397 183.210163 
L 350.43016 183.66007 
L 351.325304 184.291103 
L 351.623685 184.629557 
L 351.922067 184.705596 
L 352.518829 185.09787 
L 354.010736 185.126235 
L 354.309117 184.978967 
L 354.607498 184.978967 
L 355.204261 184.673336 
L 357.29293 184.012663 
L 359.381599 183.618975 
L 359.67998 183.394235 
L 359.978362 183.394235 
L 360.575124 182.908562 
L 361.171887 182.500895 
L 362.067031 181.570954 
L 363.260556 180.964291 
L 363.857319 180.714418 
L 365.050844 180.696844 
L 365.945988 180.655224 
L 366.841132 180.429569 
L 367.139513 180.238957 
L 367.736275 179.708043 
L 368.333038 179.272698 
L 368.631419 178.817203 
L 368.929801 178.817203 
L 369.228182 178.184002 
L 369.824945 177.904412 
L 371.316851 177.049184 
L 373.40552 176.764903 
L 373.703901 176.697701 
L 374.897427 175.974127 
L 375.494189 175.752079 
L 375.792571 175.489725 
L 376.986096 175.17461 
L 377.582858 175.231115 
L 379.671527 175.561069 
L 380.26829 175.395232 
L 380.566671 175.139506 
L 380.865053 175.139506 
L 381.760197 174.216499 
L 382.058578 173.875201 
L 382.65534 173.566359 
L 382.953722 173.235446 
L 383.848866 172.91534 
L 384.445628 172.898217 
L 386.534297 173.43375 
L 387.13106 173.370339 
L 387.429441 173.251587 
L 387.727823 172.998566 
L 388.026204 172.998566 
L 388.622966 172.428299 
L 389.219729 171.842683 
L 389.51811 171.363543 
L 390.711636 170.563408 
L 391.60678 170.162983 
L 392.800305 170.163128 
L 393.99383 170.278112 
L 394.590593 170.162157 
L 394.888974 169.954192 
L 395.187355 169.954192 
L 395.784118 169.44413 
L 396.38088 169.003081 
L 397.276024 167.982079 
L 398.469549 167.266818 
L 399.364693 167.104109 
L 400.558219 167.239034 
L 401.154981 167.357761 
L 402.050125 167.306244 
L 402.348506 167.239231 
L 404.735557 165.626146 
L 405.630701 165.448211 
L 405.929082 165.448211 
L 407.420988 166.193581 
L 407.71937 166.450551 
L 408.614514 166.68066 
L 409.211276 166.697244 
L 410.703183 166.03641 
L 411.299945 165.538946 
L 411.598327 165.158415 
L 412.791852 164.467788 
L 413.090233 164.467788 
L 413.388614 164.32526 
L 414.283758 164.327208 
L 415.477284 164.56832 
L 416.372427 164.671963 
L 417.267571 164.505154 
L 417.864334 164.278558 
L 419.35624 163.264901 
L 420.549766 162.902071 
L 421.44491 162.998767 
L 422.340053 163.364369 
L 423.83196 163.423985 
L 424.130341 163.205873 
L 424.727104 163.012636 
L 425.025485 162.855909 
L 425.323866 162.48973 
L 425.622248 162.48973 
L 425.920629 161.938187 
L 426.517392 161.697596 
L 428.307679 160.908633 
L 428.904442 160.952676 
L 430.396349 161.685093 
L 430.69473 162.178826 
L 430.993111 162.178826 
L 431.291492 162.55276 
L 432.186636 162.995671 
L 432.186636 162.995671 
" clip-path="url(#p7c6a69a2ea)" style="fill: none; stroke: #0000ff; stroke-width: 1.5; stroke-linecap: square"/>
   </g>
   <g id="patch_8">
    <path d="M 58.106 190.3975 
L 58.106 139.92 
" style="fill: none; stroke: #000000; stroke-width: 0.8; stroke-linejoin: miter; stroke-linecap: square"/>
   </g>
   <g id="patch_9">
    <path d="M 450 190.3975 
L 450 139.92 
" style="fill: none; stroke: #000000; stroke-width: 0.8; stroke-linejoin: miter; stroke-linecap: square"/>
   </g>
   <g id="patch_10">
    <path d="M 58.106 190.3975 
L 450 190.3975 
" style="fill: none; stroke: #000000; stroke-width: 0.8; stroke-linejoin: miter; stroke-linecap: square"/>
   </g>
   <g id="patch_11">
    <path d="M 58.106 139.92 
L 450 139.92 
" style="fill: none; stroke: #000000; stroke-width: 0.8; stroke-linejoin: miter; stroke-linecap: square"/>
   </g>
   <g id="text_25">
    <!-- Error in $z$-position -->
    <g transform="translate(200.773 133.92)scale(0.12 -0.12)">
     <use xlink:href="#DejaVuSans-45" transform="translate(0 0.015625)"/>
     <use xlink:href="#DejaVuSans-72" transform="translate(63.183594 0.015625)"/>
     <use xlink:href="#DejaVuSans-72" transform="translate(104.296875 0.015625)"/>
     <use xlink:href="#DejaVuSans-6f" transform="translate(145.410156 0.015625)"/>
     <use xlink:href="#DejaVuSans-72" transform="translate(206.591797 0.015625)"/>
     <use xlink:href="#DejaVuSans-20" transform="translate(247.705078 0.015625)"/>
     <use xlink:href="#DejaVuSans-69" transform="translate(279.492188 0.015625)"/>
     <use xlink:href="#DejaVuSans-6e" transform="translate(307.275391 0.015625)"/>
     <use xlink:href="#DejaVuSans-20" transform="translate(370.654297 0.015625)"/>
     <use xlink:href="#DejaVuSans-Oblique-7a" transform="translate(402.441406 0.015625)"/>
     <use xlink:href="#DejaVuSans-2d" transform="translate(454.931641 0.015625)"/>
     <use xlink:href="#DejaVuSans-70" transform="translate(491.015625 0.015625)"/>
     <use xlink:href="#DejaVuSans-6f" transform="translate(554.492188 0.015625)"/>
     <use xlink:href="#DejaVuSans-73" transform="translate(615.673828 0.015625)"/>
     <use xlink:href="#DejaVuSans-69" transform="translate(667.773438 0.015625)"/>
     <use xlink:href="#DejaVuSans-74" transform="translate(695.556641 0.015625)"/>
     <use xlink:href="#DejaVuSans-69" transform="translate(734.765625 0.015625)"/>
     <use xlink:href="#DejaVuSans-6f" transform="translate(762.548828 0.015625)"/>
     <use xlink:href="#DejaVuSans-6e" transform="translate(823.730469 0.015625)"/>
    </g>
   </g>
  </g>
  <g id="axes_3">
   <g id="patch_12">
    <path d="M 58.106 301.9975 
L 450 301.9975 
L 450 251.52 
L 58.106 251.52 
z
" style="fill: #ffffff"/>
   </g>
   <g id="matplotlib.axis_5">
    <g id="xtick_15">
     <g id="line2d_41">
      <path d="M 75.919364 301.9975 
L 75.919364 251.52 
" clip-path="url(#pc65ed7f3c2)" style="fill: none; stroke: #b0b0b0; stroke-width: 0.8; stroke-linecap: square"/>
     </g>
     <g id="line2d_42">
      <g>
       <use xlink:href="#mff095707f7" x="75.919364" y="301.9975" style="stroke: #000000; stroke-width: 0.8"/>
      </g>
     </g>
     <g id="text_26">
      <!-- 0 -->
      <g transform="translate(72.738114 316.595937)scale(0.1 -0.1)">
       <use xlink:href="#DejaVuSans-30"/>
      </g>
     </g>
    </g>
    <g id="xtick_16">
     <g id="line2d_43">
      <path d="M 135.545685 301.9975 
L 135.545685 251.52 
" clip-path="url(#pc65ed7f3c2)" style="fill: none; stroke: #b0b0b0; stroke-width: 0.8; stroke-linecap: square"/>
     </g>
     <g id="line2d_44">
      <g>
       <use xlink:href="#mff095707f7" x="135.545685" y="301.9975" style="stroke: #000000; stroke-width: 0.8"/>
      </g>
     </g>
     <g id="text_27">
      <!-- 2 -->
      <g transform="translate(132.364435 316.595937)scale(0.1 -0.1)">
       <use xlink:href="#DejaVuSans-32"/>
      </g>
     </g>
    </g>
    <g id="xtick_17">
     <g id="line2d_45">
      <path d="M 195.172007 301.9975 
L 195.172007 251.52 
" clip-path="url(#pc65ed7f3c2)" style="fill: none; stroke: #b0b0b0; stroke-width: 0.8; stroke-linecap: square"/>
     </g>
     <g id="line2d_46">
      <g>
       <use xlink:href="#mff095707f7" x="195.172007" y="301.9975" style="stroke: #000000; stroke-width: 0.8"/>
      </g>
     </g>
     <g id="text_28">
      <!-- 4 -->
      <g transform="translate(191.990757 316.595937)scale(0.1 -0.1)">
       <use xlink:href="#DejaVuSans-34"/>
      </g>
     </g>
    </g>
    <g id="xtick_18">
     <g id="line2d_47">
      <path d="M 254.798329 301.9975 
L 254.798329 251.52 
" clip-path="url(#pc65ed7f3c2)" style="fill: none; stroke: #b0b0b0; stroke-width: 0.8; stroke-linecap: square"/>
     </g>
     <g id="line2d_48">
      <g>
       <use xlink:href="#mff095707f7" x="254.798329" y="301.9975" style="stroke: #000000; stroke-width: 0.8"/>
      </g>
     </g>
     <g id="text_29">
      <!-- 6 -->
      <g transform="translate(251.617079 316.595937)scale(0.1 -0.1)">
       <use xlink:href="#DejaVuSans-36"/>
      </g>
     </g>
    </g>
    <g id="xtick_19">
     <g id="line2d_49">
      <path d="M 314.424651 301.9975 
L 314.424651 251.52 
" clip-path="url(#pc65ed7f3c2)" style="fill: none; stroke: #b0b0b0; stroke-width: 0.8; stroke-linecap: square"/>
     </g>
     <g id="line2d_50">
      <g>
       <use xlink:href="#mff095707f7" x="314.424651" y="301.9975" style="stroke: #000000; stroke-width: 0.8"/>
      </g>
     </g>
     <g id="text_30">
      <!-- 8 -->
      <g transform="translate(311.243401 316.595937)scale(0.1 -0.1)">
       <use xlink:href="#DejaVuSans-38"/>
      </g>
     </g>
    </g>
    <g id="xtick_20">
     <g id="line2d_51">
      <path d="M 374.050973 301.9975 
L 374.050973 251.52 
" clip-path="url(#pc65ed7f3c2)" style="fill: none; stroke: #b0b0b0; stroke-width: 0.8; stroke-linecap: square"/>
     </g>
     <g id="line2d_52">
      <g>
       <use xlink:href="#mff095707f7" x="374.050973" y="301.9975" style="stroke: #000000; stroke-width: 0.8"/>
      </g>
     </g>
     <g id="text_31">
      <!-- 10 -->
      <g transform="translate(367.688473 316.595937)scale(0.1 -0.1)">
       <use xlink:href="#DejaVuSans-31"/>
       <use xlink:href="#DejaVuSans-30" x="63.623047"/>
      </g>
     </g>
    </g>
    <g id="xtick_21">
     <g id="line2d_53">
      <path d="M 433.677294 301.9975 
L 433.677294 251.52 
" clip-path="url(#pc65ed7f3c2)" style="fill: none; stroke: #b0b0b0; stroke-width: 0.8; stroke-linecap: square"/>
     </g>
     <g id="line2d_54">
      <g>
       <use xlink:href="#mff095707f7" x="433.677294" y="301.9975" style="stroke: #000000; stroke-width: 0.8"/>
      </g>
     </g>
     <g id="text_32">
      <!-- 12 -->
      <g transform="translate(427.314794 316.595937)scale(0.1 -0.1)">
       <use xlink:href="#DejaVuSans-31"/>
       <use xlink:href="#DejaVuSans-32" x="63.623047"/>
      </g>
     </g>
    </g>
    <g id="text_33">
     <!-- $t$ [s] -->
     <g transform="translate(243.953 330.274063)scale(0.1 -0.1)">
      <use xlink:href="#DejaVuSans-Oblique-74" transform="translate(0 0.015625)"/>
      <use xlink:href="#DejaVuSans-20" transform="translate(39.208984 0.015625)"/>
      <use xlink:href="#DejaVuSans-5b" transform="translate(70.996094 0.015625)"/>
      <use xlink:href="#DejaVuSans-73" transform="translate(110.009766 0.015625)"/>
      <use xlink:href="#DejaVuSans-5d" transform="translate(162.109375 0.015625)"/>
     </g>
    </g>
   </g>
   <g id="matplotlib.axis_6">
    <g id="ytick_6">
     <g id="line2d_55">
      <path d="M 58.106 296.718309 
L 450 296.718309 
" clip-path="url(#pc65ed7f3c2)" style="fill: none; stroke: #b0b0b0; stroke-width: 0.8; stroke-linecap: square"/>
     </g>
     <g id="line2d_56">
      <g>
       <use xlink:href="#mc8a0249468" x="58.106" y="296.718309" style="stroke: #000000; stroke-width: 0.8"/>
      </g>
     </g>
     <g id="text_34">
      <!-- −0.1 -->
      <g transform="translate(26.823188 300.517528)scale(0.1 -0.1)">
       <use xlink:href="#DejaVuSans-2212"/>
       <use xlink:href="#DejaVuSans-30" x="83.789062"/>
       <use xlink:href="#DejaVuSans-2e" x="147.412109"/>
       <use xlink:href="#DejaVuSans-31" x="179.199219"/>
      </g>
     </g>
    </g>
    <g id="ytick_7">
     <g id="line2d_57">
      <path d="M 58.106 279.771054 
L 450 279.771054 
" clip-path="url(#pc65ed7f3c2)" style="fill: none; stroke: #b0b0b0; stroke-width: 0.8; stroke-linecap: square"/>
     </g>
     <g id="line2d_58">
      <g>
       <use xlink:href="#mc8a0249468" x="58.106" y="279.771054" style="stroke: #000000; stroke-width: 0.8"/>
      </g>
     </g>
     <g id="text_35">
      <!-- 0.0 -->
      <g transform="translate(35.202875 283.570273)scale(0.1 -0.1)">
       <use xlink:href="#DejaVuSans-30"/>
       <use xlink:href="#DejaVuSans-2e" x="63.623047"/>
       <use xlink:href="#DejaVuSans-30" x="95.410156"/>
      </g>
     </g>
    </g>
    <g id="ytick_8">
     <g id="line2d_59">
      <path d="M 58.106 262.823798 
L 450 262.823798 
" clip-path="url(#pc65ed7f3c2)" style="fill: none; stroke: #b0b0b0; stroke-width: 0.8; stroke-linecap: square"/>
     </g>
     <g id="line2d_60">
      <g>
       <use xlink:href="#mc8a0249468" x="58.106" y="262.823798" style="stroke: #000000; stroke-width: 0.8"/>
      </g>
     </g>
     <g id="text_36">
      <!-- 0.1 -->
      <g transform="translate(35.202875 266.623017)scale(0.1 -0.1)">
       <use xlink:href="#DejaVuSans-30"/>
       <use xlink:href="#DejaVuSans-2e" x="63.623047"/>
       <use xlink:href="#DejaVuSans-31" x="95.410156"/>
      </g>
     </g>
    </g>
    <g id="text_37">
     <!-- $e_\theta$ [rad] -->
     <g transform="translate(20.7435 295.90875)rotate(-90)scale(0.1 -0.1)">
      <defs>
       <path id="DejaVuSans-Oblique-3b8" d="M 2913 2219 
L 925 2219 
Q 791 1284 928 888 
Q 1100 400 1566 400 
Q 2034 400 2391 891 
Q 2703 1322 2913 2219 
z
M 3009 2750 
Q 3094 3638 2984 3950 
Q 2813 4444 2353 4444 
Q 1875 4444 1525 3956 
Q 1250 3563 1034 2750 
L 3009 2750 
z
M 2444 4913 
Q 3194 4913 3494 4250 
Q 3794 3591 3566 2422 
Q 3341 1256 2781 594 
Q 2225 -72 1475 -72 
Q 722 -72 425 594 
Q 128 1256 353 2422 
Q 581 3591 1134 4250 
Q 1691 4913 2444 4913 
z
" transform="scale(0.015625)"/>
       <path id="DejaVuSans-61" d="M 2194 1759 
Q 1497 1759 1228 1600 
Q 959 1441 959 1056 
Q 959 750 1161 570 
Q 1363 391 1709 391 
Q 2188 391 2477 730 
Q 2766 1069 2766 1631 
L 2766 1759 
L 2194 1759 
z
M 3341 1997 
L 3341 0 
L 2766 0 
L 2766 531 
Q 2569 213 2275 61 
Q 1981 -91 1556 -91 
Q 1019 -91 701 211 
Q 384 513 384 1019 
Q 384 1609 779 1909 
Q 1175 2209 1959 2209 
L 2766 2209 
L 2766 2266 
Q 2766 2663 2505 2880 
Q 2244 3097 1772 3097 
Q 1472 3097 1187 3025 
Q 903 2953 641 2809 
L 641 3341 
Q 956 3463 1253 3523 
Q 1550 3584 1831 3584 
Q 2591 3584 2966 3190 
Q 3341 2797 3341 1997 
z
" transform="scale(0.015625)"/>
       <path id="DejaVuSans-64" d="M 2906 2969 
L 2906 4863 
L 3481 4863 
L 3481 0 
L 2906 0 
L 2906 525 
Q 2725 213 2448 61 
Q 2172 -91 1784 -91 
Q 1150 -91 751 415 
Q 353 922 353 1747 
Q 353 2572 751 3078 
Q 1150 3584 1784 3584 
Q 2172 3584 2448 3432 
Q 2725 3281 2906 2969 
z
M 947 1747 
Q 947 1113 1208 752 
Q 1469 391 1925 391 
Q 2381 391 2643 752 
Q 2906 1113 2906 1747 
Q 2906 2381 2643 2742 
Q 2381 3103 1925 3103 
Q 1469 3103 1208 2742 
Q 947 2381 947 1747 
z
" transform="scale(0.015625)"/>
      </defs>
      <use xlink:href="#DejaVuSans-Oblique-65" transform="translate(0 0.015625)"/>
      <use xlink:href="#DejaVuSans-Oblique-3b8" transform="translate(61.523438 -16.390625)scale(0.7)"/>
      <use xlink:href="#DejaVuSans-20" transform="translate(107.084961 0.015625)"/>
      <use xlink:href="#DejaVuSans-5b" transform="translate(138.87207 0.015625)"/>
      <use xlink:href="#DejaVuSans-72" transform="translate(177.885742 0.015625)"/>
      <use xlink:href="#DejaVuSans-61" transform="translate(218.999023 0.015625)"/>
      <use xlink:href="#DejaVuSans-64" transform="translate(280.27832 0.015625)"/>
      <use xlink:href="#DejaVuSans-5d" transform="translate(343.754883 0.015625)"/>
     </g>
    </g>
   </g>
   <g id="line2d_61">
    <path d="M 75.919364 279.749606 
L 76.217745 279.52028 
L 76.516126 278.713632 
L 77.112889 277.760062 
L 77.709651 276.172826 
L 78.008033 274.395329 
L 78.306414 271.504329 
L 79.499939 264.996821 
L 79.798321 262.97521 
L 80.096702 262.97521 
L 80.395083 261.841309 
L 80.693464 261.619894 
L 80.991846 261.762713 
L 81.290227 262.459137 
L 81.588608 263.676722 
L 81.88699 263.676722 
L 82.185371 265.863345 
L 82.483752 267.099988 
L 83.080515 270.971008 
L 83.378896 271.611665 
L 83.677277 272.893591 
L 83.975659 275.527131 
L 84.27404 276.920902 
L 84.870803 281.609118 
L 85.169184 282.454913 
L 85.467565 284.197989 
L 85.765947 287.765755 
L 86.66109 293.389421 
L 86.959472 293.802922 
L 87.556234 295.112515 
L 88.152997 295.313047 
L 89.048141 295.191985 
L 89.943285 294.410382 
L 90.241666 293.871049 
L 90.540047 293.640296 
L 90.838429 293.04579 
L 91.733573 287.317026 
L 92.031954 284.497613 
L 92.330335 283.502686 
L 92.628716 281.503322 
L 92.927098 277.596694 
L 93.225479 275.707488 
L 93.822242 270.676904 
L 94.120623 269.916024 
L 94.419004 268.51026 
L 94.717386 266.183398 
L 95.612529 263.459916 
L 96.209292 262.959798 
L 96.507673 262.660332 
L 97.104436 262.738837 
L 97.402817 263.079269 
L 97.701199 263.902109 
L 97.99958 263.902109 
L 98.596342 266.03508 
L 99.193105 268.131363 
L 99.491486 270.091404 
L 99.789868 273.204725 
L 100.983393 280.752323 
L 101.281774 285.878679 
L 101.580155 285.878679 
L 101.878537 289.920662 
L 103.072062 297.974317 
L 103.370443 297.974317 
L 103.668825 299.698701 
L 103.967206 299.703068 
L 104.265587 299.475458 
L 104.563968 298.948127 
L 105.757494 291.40405 
L 106.055875 288.918221 
L 106.354256 288.918221 
L 106.652638 285.530042 
L 106.951019 283.857867 
L 107.547781 279.037693 
L 107.846163 278.300789 
L 108.144544 276.894128 
L 108.442925 274.504984 
L 109.039688 273.013969 
L 109.338069 272.678098 
L 109.636451 273.391302 
L 109.934832 273.391302 
L 110.531594 276.492321 
L 110.829976 277.902526 
L 111.72512 284.645936 
L 112.321882 287.193729 
L 112.918645 289.245866 
L 113.217026 289.515701 
L 113.515407 289.153945 
L 113.813789 288.476245 
L 114.410551 286.291168 
L 114.708933 284.091919 
L 115.007314 280.726218 
L 115.305695 280.726218 
L 115.604077 277.111592 
L 116.200839 273.525371 
L 116.797602 267.76548 
L 117.095983 267.76548 
L 117.394364 264.968017 
L 118.289508 260.82228 
L 118.58789 258.785044 
L 119.483034 256.211556 
L 120.378177 253.913897 
L 121.273321 254.011726 
L 121.571703 254.387348 
L 121.870084 255.283933 
L 122.168465 257.050758 
L 122.466847 257.050758 
L 122.765228 259.206615 
L 123.36199 261.504203 
L 123.958753 265.421185 
L 124.257134 265.421185 
L 124.555516 267.593128 
L 125.152278 269.753749 
L 125.749041 273.191054 
L 126.047422 273.191054 
L 126.345803 274.848276 
L 127.240947 277.283327 
L 127.539329 278.356732 
L 127.83771 278.356732 
L 128.136091 279.231051 
L 129.031235 280.296995 
L 129.329616 280.45036 
L 129.926379 280.277576 
L 130.523142 279.905147 
L 131.119904 279.395343 
L 131.716667 279.491956 
L 132.313429 279.91975 
L 132.611811 280.417329 
L 132.910192 281.224994 
L 133.208573 281.224994 
L 133.506955 282.119697 
L 134.402099 283.671557 
L 134.70048 284.434873 
L 134.998861 284.434873 
L 135.297242 285.083913 
L 136.490768 286.124476 
L 137.385912 286.49244 
L 137.982674 286.47193 
L 138.877818 286.25331 
L 140.071343 285.464346 
L 140.369725 285.147814 
L 141.264868 282.595763 
L 141.861631 279.685666 
L 142.160012 279.685666 
L 142.458394 277.312407 
L 143.055156 274.770249 
L 143.9503 269.60223 
L 144.845444 267.076366 
L 145.442207 265.702518 
L 145.740588 264.911635 
L 146.934113 263.187928 
L 147.232494 262.659061 
L 147.530876 261.794465 
L 147.829257 260.514185 
L 148.724401 258.492802 
L 149.022782 256.91293 
L 149.321164 256.91293 
L 149.619545 255.891209 
L 150.81307 254.410278 
L 152.006595 254.467931 
L 152.304977 254.590559 
L 152.603358 255.172205 
L 152.901739 255.172205 
L 153.498502 256.369917 
L 154.095264 257.383424 
L 154.692027 259.258771 
L 154.990408 260.06375 
L 155.28879 260.332786 
L 155.885552 261.393312 
L 156.183933 262.309541 
L 156.780696 263.295745 
L 157.377459 263.644338 
L 158.272603 264.124478 
L 159.466128 264.441821 
L 160.06289 265.231026 
L 160.361272 265.766899 
L 160.659653 265.970407 
L 161.256416 266.905901 
L 161.554797 267.996487 
L 161.853178 268.580342 
L 162.449941 270.427395 
L 162.748322 270.741831 
L 163.046703 271.357655 
L 163.345085 272.477641 
L 163.941847 273.66699 
L 164.836991 274.04029 
L 165.135372 273.974288 
L 165.433754 273.64701 
L 165.732135 272.940303 
L 167.224042 271.048508 
L 167.522423 271.082058 
L 167.820804 271.243948 
L 168.417567 271.993222 
L 168.715948 272.994834 
L 169.312711 276.292812 
L 170.207855 281.011145 
L 170.506236 282.758749 
L 171.40138 289.498293 
L 171.998142 291.182444 
L 172.296524 291.613462 
L 172.594905 291.662523 
L 173.78843 287.36491 
L 174.086811 284.014119 
L 174.385193 284.014119 
L 174.683574 281.494034 
L 175.280337 279.411517 
L 175.877099 278.066644 
L 176.175481 278.26457 
L 176.772243 279.451948 
L 177.667387 282.315446 
L 178.26415 285.04415 
L 178.562531 285.335854 
L 178.860912 285.354489 
L 179.159294 285.106663 
L 179.457675 283.877742 
L 179.756056 283.877742 
L 180.054437 280.557347 
L 180.352819 279.89394 
L 180.949581 277.172315 
L 181.247963 274.554485 
L 181.546344 274.554485 
L 181.844725 271.662744 
L 182.739869 270.835702 
L 183.03825 271.40145 
L 183.336632 271.40145 
L 183.635013 273.880213 
L 183.933394 274.398941 
L 184.530157 276.474991 
L 184.828538 278.060404 
L 185.12692 278.060404 
L 185.425301 278.408036 
L 185.723682 278.188384 
L 186.022063 277.514256 
L 186.320445 276.554795 
L 186.618826 273.90288 
L 186.917207 273.90288 
L 187.215589 268.939534 
L 187.51397 268.07308 
L 188.110733 264.726721 
L 188.409114 261.836435 
L 189.005877 259.534023 
L 189.304258 259.027751 
L 189.602639 259.016871 
L 189.90102 259.244613 
L 190.796164 263.900036 
L 191.094546 266.340433 
L 191.392927 267.20032 
L 191.691308 268.945221 
L 191.98969 272.342097 
L 192.884833 277.037892 
L 193.481596 277.616321 
L 193.779977 277.135811 
L 194.078359 277.135811 
L 194.37674 273.998111 
L 194.675121 273.270447 
L 195.271884 270.076532 
L 195.570265 266.75301 
L 195.868646 265.148677 
L 196.465409 260.955347 
L 196.76379 260.389394 
L 197.360553 258.652157 
L 197.658934 258.818071 
L 197.957316 259.381487 
L 198.255697 260.893036 
L 198.554078 263.898025 
L 198.852459 263.898025 
L 199.150841 267.632463 
L 200.344366 276.147389 
L 200.642747 278.803605 
L 201.23951 280.426771 
L 201.537891 280.813554 
L 201.836272 280.910067 
L 202.134654 280.489063 
L 202.731416 277.99165 
L 203.924942 273.276152 
L 204.521704 269.923162 
L 205.118467 268.787633 
L 205.416848 268.487881 
L 205.715229 268.698403 
L 206.013611 268.698403 
L 207.207136 273.476815 
L 207.505517 276.396528 
L 207.803898 276.396528 
L 208.10228 280.811346 
L 208.400661 281.495964 
L 209.295805 285.420933 
L 209.594186 285.746905 
L 209.892568 285.722841 
L 210.190949 285.175906 
L 210.48933 284.893792 
L 210.787711 284.192438 
L 211.086093 282.260061 
L 211.384474 282.260061 
L 211.682855 278.471374 
L 211.981237 277.780607 
L 212.577999 274.985619 
L 212.876381 272.40974 
L 213.174762 272.40974 
L 213.473143 269.776234 
L 214.069906 269.31635 
L 214.368287 269.374947 
L 214.666668 269.747887 
L 214.96505 270.848908 
L 215.263431 273.149723 
L 216.456956 279.01661 
L 217.053719 283.13018 
L 217.650481 284.220299 
L 217.948863 284.363444 
L 218.247244 284.073233 
L 219.440769 278.724106 
L 219.73915 276.121244 
L 220.037532 272.363003 
L 221.231057 265.144544 
L 221.82782 262.445718 
L 222.126201 262.170541 
L 222.424582 262.64344 
L 223.021345 264.594389 
L 223.618107 267.491125 
L 224.513251 274.963105 
L 225.408395 279.383858 
L 225.706776 279.383858 
L 226.005158 279.57196 
L 226.303539 279.306739 
L 226.900302 277.487797 
L 227.795446 269.524157 
L 228.093827 268.621301 
L 228.690589 265.073899 
L 228.988971 262.205342 
L 229.287352 262.205342 
L 229.585733 260.49568 
L 229.884115 260.552566 
L 230.182496 260.949492 
L 230.480877 261.699417 
L 231.376021 269.332931 
L 231.674402 270.279285 
L 232.271165 274.015283 
L 232.569546 277.13974 
L 232.867928 278.75064 
L 233.166309 279.714866 
L 233.763072 280.071033 
L 234.061453 279.963631 
L 234.658215 277.514194 
L 234.956597 275.664492 
L 235.254978 274.984615 
L 235.851741 272.024586 
L 236.150122 268.998258 
L 237.045266 264.972364 
L 237.343647 264.722816 
L 237.642028 264.722816 
L 238.238791 266.693218 
L 238.835554 271.166199 
L 239.133935 273.865499 
L 239.432316 273.865499 
L 239.730698 277.492318 
L 240.625841 282.287194 
L 240.924223 283.460193 
L 241.222604 283.578938 
L 241.520985 283.396523 
L 241.819367 282.926662 
L 242.117748 282.18105 
L 242.416129 280.622126 
L 242.714511 277.913364 
L 244.206417 269.61186 
L 244.504798 267.99235 
L 244.80318 267.734669 
L 245.101561 267.8538 
L 245.399942 268.329522 
L 245.698324 269.118026 
L 245.996705 270.80569 
L 246.295086 273.73366 
L 246.593467 273.73366 
L 246.891849 277.057279 
L 247.19023 278.738775 
L 247.786993 283.180731 
L 248.085374 284.543901 
L 248.383755 284.543901 
L 248.682137 285.197014 
L 248.980518 284.999051 
L 249.278899 284.458347 
L 249.57728 283.071377 
L 249.875662 280.381883 
L 250.174043 280.381883 
L 250.472424 277.05069 
L 250.770806 275.299506 
L 251.66595 268.37911 
L 251.964331 268.37911 
L 252.262712 266.841926 
L 252.561093 266.585363 
L 252.859475 266.707135 
L 253.157856 267.191621 
L 253.456237 268.540833 
L 253.754619 271.234309 
L 255.246525 279.82769 
L 255.843288 284.690465 
L 256.141669 285.508016 
L 256.44005 285.986977 
L 256.738432 286.094904 
L 257.036813 285.150991 
L 257.335194 285.150991 
L 257.633576 281.156938 
L 257.931957 280.273681 
L 258.52872 276.338104 
L 259.125482 268.92798 
L 259.423863 265.898527 
L 259.722245 264.939448 
L 260.617389 259.568942 
L 260.91577 259.568942 
L 261.512533 260.332071 
L 262.109295 262.908864 
L 263.004439 272.901073 
L 263.30282 274.015194 
L 263.899583 278.406322 
L 264.197964 282.387438 
L 264.496346 282.387438 
L 264.794727 286.274132 
L 265.391489 287.002469 
L 265.689871 286.992964 
L 265.988252 286.573469 
L 266.286633 285.22365 
L 266.883396 280.424902 
L 267.77854 274.098748 
L 268.673684 264.462639 
L 269.270446 260.895336 
L 269.568828 257.968656 
L 269.867209 257.968656 
L 270.16559 257.511107 
L 270.463972 257.981093 
L 270.762353 258.882104 
L 271.359115 261.816639 
L 271.657497 264.742671 
L 271.955878 269.208773 
L 272.851022 276.333309 
L 273.746166 286.173755 
L 274.342928 289.452391 
L 274.939691 291.747773 
L 275.238072 291.628816 
L 275.536454 290.908918 
L 276.133216 288.338523 
L 276.431598 286.622 
L 276.729979 283.6999 
L 277.02836 279.372098 
L 277.923504 272.593194 
L 278.520267 265.248319 
L 278.818648 265.248319 
L 279.117029 262.105136 
L 279.713792 260.332429 
L 280.012173 260.062767 
L 280.310554 261.132651 
L 280.608936 261.132651 
L 281.205698 265.30546 
L 281.50408 267.187214 
L 281.802461 270.245085 
L 282.100842 274.546111 
L 282.399224 274.546111 
L 282.697605 278.813454 
L 284.189511 288.592445 
L 284.487893 289.037219 
L 284.786274 289.134792 
L 285.084655 288.884968 
L 285.383037 288.287999 
L 285.681418 286.809602 
L 285.979799 283.928006 
L 286.874943 278.297024 
L 287.471706 274.149458 
L 288.36685 265.667384 
L 288.963612 263.252328 
L 289.261993 262.517494 
L 289.560375 262.079467 
L 290.157137 263.724637 
L 290.7539 266.438334 
L 291.052281 268.127763 
L 291.350663 270.923009 
L 291.649044 274.939446 
L 292.544188 280.868611 
L 292.842569 284.335687 
L 293.14095 284.335687 
L 293.439332 287.627848 
L 294.334476 288.385818 
L 294.632857 287.494856 
L 294.931238 285.948497 
L 295.229619 283.748996 
L 295.528001 282.89728 
L 296.124763 279.076634 
L 296.423145 274.881806 
L 296.721526 274.881806 
L 297.019907 268.780863 
L 297.318289 267.846352 
L 298.213432 262.593663 
L 298.810195 262.490414 
L 299.108576 262.816886 
L 299.705339 264.960959 
L 300.00372 268.198528 
L 300.302102 268.198528 
L 300.600483 274.130182 
L 300.898864 275.172721 
L 301.495627 279.255789 
L 301.794008 282.944843 
L 302.689152 287.818425 
L 302.987533 288.565806 
L 303.285915 288.565806 
L 303.584296 288.30989 
L 303.882677 287.607091 
L 304.181058 286.549536 
L 304.47944 284.378103 
L 304.777821 280.683389 
L 305.076202 280.683389 
L 305.374584 276.47171 
L 306.568109 267.195936 
L 306.86649 264.083377 
L 307.463253 262.191234 
L 307.761634 261.779685 
L 308.060015 261.751869 
L 308.358397 262.440586 
L 308.955159 266.142707 
L 309.850303 271.817289 
L 310.148684 273.927969 
L 311.043828 283.237788 
L 312.237354 291.077509 
L 312.535735 291.392318 
L 312.834116 291.269215 
L 313.132497 290.710386 
L 313.430879 289.748424 
L 313.72926 285.917061 
L 314.027641 285.917061 
L 314.326023 281.884925 
L 315.221167 275.211087 
L 315.519548 270.823596 
L 315.817929 270.823596 
L 316.11631 265.006616 
L 316.414692 264.181917 
L 317.011454 261.53633 
L 317.309836 260.382122 
L 317.608217 260.440759 
L 317.906598 261.298382 
L 318.503361 265.246098 
L 318.801742 265.246098 
L 319.100123 268.980199 
L 319.398505 268.980199 
L 319.696886 275.254408 
L 319.995267 276.330054 
L 320.59203 280.566325 
L 320.890411 284.522902 
L 321.188793 284.522902 
L 321.487174 289.169355 
L 321.785555 289.70677 
L 322.083937 290.533226 
L 322.382318 290.978787 
L 322.680699 290.596484 
L 322.97908 290.596484 
L 323.277462 287.1111 
L 323.575843 286.264632 
L 324.172606 282.385294 
L 324.769368 274.845306 
L 325.06775 271.680278 
L 325.366131 270.667509 
L 326.559656 262.897141 
L 326.858037 262.587328 
L 327.156419 262.67424 
L 327.4548 263.11985 
L 327.753181 263.907041 
L 328.051563 267.127123 
L 328.349944 267.127123 
L 328.648325 270.58853 
L 329.543469 276.335032 
L 329.84185 281.007604 
L 330.140232 281.007604 
L 330.438613 284.475803 
L 331.632138 290.432228 
L 331.930519 290.432228 
L 332.228901 289.991759 
L 332.527282 289.200241 
L 333.124045 286.67188 
L 333.422426 282.206347 
L 333.720807 282.206347 
L 334.019189 278.071198 
L 335.212714 269.089029 
L 335.511095 266.142664 
L 336.107858 264.363694 
L 336.406239 263.984542 
L 336.70462 263.966257 
L 337.003002 264.615522 
L 337.599764 267.976499 
L 338.196527 271.166889 
L 339.390052 280.69237 
L 340.881958 288.578858 
L 341.18034 288.974684 
L 341.478721 289.111371 
L 341.777102 288.977045 
L 342.075484 288.561493 
L 342.373865 287.418023 
L 342.970628 283.450893 
L 343.865771 278.088326 
L 344.164153 273.477134 
L 344.462534 273.477134 
L 344.760915 270.263776 
L 345.656059 266.657923 
L 345.954441 265.323764 
L 346.252822 265.323764 
L 346.551203 265.192617 
L 346.849584 265.382284 
L 347.446347 266.681701 
L 348.341491 272.767168 
L 348.639872 273.484946 
L 349.833397 279.561827 
L 350.131779 281.591752 
L 350.728541 282.996936 
L 351.325304 283.720192 
L 351.922067 283.332972 
L 352.220448 282.740146 
L 352.518829 281.740357 
L 352.81721 281.740357 
L 353.115592 280.625155 
L 354.010736 278.756064 
L 354.309117 278.022774 
L 354.607498 278.022774 
L 354.90588 277.599067 
L 356.099405 277.16333 
L 356.397786 277.16333 
L 356.994549 276.795187 
L 357.591311 276.443043 
L 357.889693 276.075168 
L 358.188074 276.075168 
L 358.784836 275.229017 
L 359.083218 274.835413 
L 359.381599 274.113019 
L 359.67998 272.897519 
L 359.978362 272.897519 
L 360.276743 271.460879 
L 361.470268 268.570786 
L 361.768649 268.149827 
L 362.067031 268.247403 
L 362.365412 268.554371 
L 362.962175 269.707617 
L 363.260556 270.496728 
L 363.558937 271.867561 
L 363.857319 273.866253 
L 365.349225 278.788101 
L 365.647606 279.534544 
L 365.945988 279.55226 
L 366.244369 279.321677 
L 366.54275 278.849175 
L 366.841132 278.153252 
L 367.139513 276.737197 
L 367.437894 274.38162 
L 368.333038 270.723544 
L 368.631419 268.795377 
L 368.929801 268.795377 
L 369.228182 267.526486 
L 369.526563 267.537145 
L 369.824945 267.741126 
L 370.123326 268.177585 
L 371.913614 276.684836 
L 372.211995 279.654697 
L 372.510376 281.111074 
L 373.107139 284.958634 
L 373.40552 285.506088 
L 373.703901 286.484819 
L 374.002283 287.866872 
L 374.300664 288.215019 
L 374.599045 288.242237 
L 374.897427 287.763068 
L 375.195808 287.518259 
L 375.494189 286.935946 
L 375.792571 285.626249 
L 376.687714 283.972454 
L 376.986096 283.601362 
L 378.776384 283.588491 
L 379.969909 282.467574 
L 380.26829 281.943186 
L 380.566671 281.185651 
L 380.865053 281.185651 
L 381.163434 280.448911 
L 382.058578 279.548192 
L 382.65534 279.378318 
L 383.848866 277.898421 
L 384.147247 277.089198 
L 384.445628 277.089198 
L 384.74401 276.593071 
L 385.042391 276.566629 
L 385.340772 276.838095 
L 385.639153 277.459996 
L 385.937535 278.35961 
L 386.235916 278.35961 
L 386.534297 279.88506 
L 387.13106 281.660181 
L 387.727823 284.518064 
L 388.026204 284.518064 
L 388.324585 285.525587 
L 388.622966 285.760982 
L 388.921348 285.78799 
L 389.219729 285.356587 
L 389.816492 282.746416 
L 391.010017 277.480724 
L 391.60678 273.730835 
L 392.203542 272.615498 
L 392.501923 272.41267 
L 392.800305 272.463712 
L 393.098686 273.021951 
L 393.695449 275.475455 
L 394.292211 277.664071 
L 394.888974 281.431099 
L 395.187355 281.431099 
L 395.485736 283.179979 
L 396.082499 284.392114 
L 396.38088 284.694856 
L 396.679262 284.610957 
L 397.574406 281.562569 
L 398.171168 277.889351 
L 398.469549 277.252989 
L 398.767931 275.999853 
L 399.066312 273.745525 
L 399.663075 272.070514 
L 399.961456 271.889344 
L 400.259837 271.966527 
L 400.558219 272.307018 
L 401.751744 277.013518 
L 402.050125 277.408391 
L 402.945269 279.391438 
L 403.542032 279.903144 
L 403.840413 280.008969 
L 404.138794 280.269176 
L 404.735557 281.41667 
L 405.332319 282.429571 
L 405.630701 282.991467 
L 405.929082 282.991467 
L 406.227463 283.270504 
L 406.824226 283.315751 
L 407.122607 283.217432 
L 407.420988 282.860001 
L 408.017751 281.458072 
L 409.211276 279.272452 
L 409.509658 278.897321 
L 410.10642 278.851425 
L 411.001564 278.937315 
L 411.299945 279.176278 
L 412.493471 282.511563 
L 412.791852 284.466961 
L 413.090233 284.466961 
L 413.388614 286.373158 
L 413.985377 286.586548 
L 414.283758 286.434822 
L 414.58214 285.010269 
L 414.880521 285.010269 
L 415.178902 283.032472 
L 416.074046 279.5482 
L 416.670809 276.351455 
L 417.267571 275.305909 
L 417.565953 275.00901 
L 417.864334 274.899565 
L 418.162715 275.161414 
L 418.759478 276.918919 
L 419.953003 279.808748 
L 420.848147 279.74008 
L 421.44491 279.138129 
L 422.041672 277.534103 
L 422.340053 276.918524 
L 423.235197 276.547785 
L 423.533579 277.152146 
L 423.83196 277.152146 
L 424.130341 279.29812 
L 424.428723 279.716196 
L 425.323866 282.331008 
L 425.622248 282.331008 
L 425.920629 283.308138 
L 426.21901 283.533093 
L 426.815773 284.845185 
L 427.114154 286.898338 
L 427.412536 288.147086 
L 428.009298 292.298904 
L 428.307679 293.00194 
L 428.606061 294.35215 
L 428.904442 296.702079 
L 429.501205 298.939222 
L 430.396349 299.671233 
L 430.69473 299.544204 
L 430.993111 299.544204 
L 432.186636 295.255981 
L 432.186636 295.255981 
" clip-path="url(#pc65ed7f3c2)" style="fill: none; stroke: #008000; stroke-width: 1.5; stroke-linecap: square"/>
   </g>
   <g id="patch_13">
    <path d="M 58.106 301.9975 
L 58.106 251.52 
" style="fill: none; stroke: #000000; stroke-width: 0.8; stroke-linejoin: miter; stroke-linecap: square"/>
   </g>
   <g id="patch_14">
    <path d="M 450 301.9975 
L 450 251.52 
" style="fill: none; stroke: #000000; stroke-width: 0.8; stroke-linejoin: miter; stroke-linecap: square"/>
   </g>
   <g id="patch_15">
    <path d="M 58.106 301.9975 
L 450 301.9975 
" style="fill: none; stroke: #000000; stroke-width: 0.8; stroke-linejoin: miter; stroke-linecap: square"/>
   </g>
   <g id="patch_16">
    <path d="M 58.106 251.52 
L 450 251.52 
" style="fill: none; stroke: #000000; stroke-width: 0.8; stroke-linejoin: miter; stroke-linecap: square"/>
   </g>
   <g id="text_38">
    <!-- Error in swing angle -->
    <g transform="translate(194.282688 245.52)scale(0.12 -0.12)">
     <defs>
      <path id="DejaVuSans-77" d="M 269 3500 
L 844 3500 
L 1563 769 
L 2278 3500 
L 2956 3500 
L 3675 769 
L 4391 3500 
L 4966 3500 
L 4050 0 
L 3372 0 
L 2619 2869 
L 1863 0 
L 1184 0 
L 269 3500 
z
" transform="scale(0.015625)"/>
      <path id="DejaVuSans-67" d="M 2906 1791 
Q 2906 2416 2648 2759 
Q 2391 3103 1925 3103 
Q 1463 3103 1205 2759 
Q 947 2416 947 1791 
Q 947 1169 1205 825 
Q 1463 481 1925 481 
Q 2391 481 2648 825 
Q 2906 1169 2906 1791 
z
M 3481 434 
Q 3481 -459 3084 -895 
Q 2688 -1331 1869 -1331 
Q 1566 -1331 1297 -1286 
Q 1028 -1241 775 -1147 
L 775 -588 
Q 1028 -725 1275 -790 
Q 1522 -856 1778 -856 
Q 2344 -856 2625 -561 
Q 2906 -266 2906 331 
L 2906 616 
Q 2728 306 2450 153 
Q 2172 0 1784 0 
Q 1141 0 747 490 
Q 353 981 353 1791 
Q 353 2603 747 3093 
Q 1141 3584 1784 3584 
Q 2172 3584 2450 3431 
Q 2728 3278 2906 2969 
L 2906 3500 
L 3481 3500 
L 3481 434 
z
" transform="scale(0.015625)"/>
      <path id="DejaVuSans-6c" d="M 603 4863 
L 1178 4863 
L 1178 0 
L 603 0 
L 603 4863 
z
" transform="scale(0.015625)"/>
      <path id="DejaVuSans-65" d="M 3597 1894 
L 3597 1613 
L 953 1613 
Q 991 1019 1311 708 
Q 1631 397 2203 397 
Q 2534 397 2845 478 
Q 3156 559 3463 722 
L 3463 178 
Q 3153 47 2828 -22 
Q 2503 -91 2169 -91 
Q 1331 -91 842 396 
Q 353 884 353 1716 
Q 353 2575 817 3079 
Q 1281 3584 2069 3584 
Q 2775 3584 3186 3129 
Q 3597 2675 3597 1894 
z
M 3022 2063 
Q 3016 2534 2758 2815 
Q 2500 3097 2075 3097 
Q 1594 3097 1305 2825 
Q 1016 2553 972 2059 
L 3022 2063 
z
" transform="scale(0.015625)"/>
     </defs>
     <use xlink:href="#DejaVuSans-45"/>
     <use xlink:href="#DejaVuSans-72" x="63.183594"/>
     <use xlink:href="#DejaVuSans-72" x="102.546875"/>
     <use xlink:href="#DejaVuSans-6f" x="141.410156"/>
     <use xlink:href="#DejaVuSans-72" x="202.591797"/>
     <use xlink:href="#DejaVuSans-20" x="243.705078"/>
     <use xlink:href="#DejaVuSans-69" x="275.492188"/>
     <use xlink:href="#DejaVuSans-6e" x="303.275391"/>
     <use xlink:href="#DejaVuSans-20" x="366.654297"/>
     <use xlink:href="#DejaVuSans-73" x="398.441406"/>
     <use xlink:href="#DejaVuSans-77" x="450.541016"/>
     <use xlink:href="#DejaVuSans-69" x="532.328125"/>
     <use xlink:href="#DejaVuSans-6e" x="560.111328"/>
     <use xlink:href="#DejaVuSans-67" x="623.490234"/>
     <use xlink:href="#DejaVuSans-20" x="686.966797"/>
     <use xlink:href="#DejaVuSans-61" x="718.753906"/>
     <use xlink:href="#DejaVuSans-6e" x="780.033203"/>
     <use xlink:href="#DejaVuSans-67" x="843.412109"/>
     <use xlink:href="#DejaVuSans-6c" x="906.888672"/>
     <use xlink:href="#DejaVuSans-65" x="934.671875"/>
    </g>
   </g>
  </g>
 </g>
 <defs>
  <clipPath id="pec691ee4f1">
   <rect x="58.106" y="28.32" width="391.894" height="50.4775"/>
  </clipPath>
  <clipPath id="p7c6a69a2ea">
   <rect x="58.106" y="139.92" width="391.894" height="50.4775"/>
  </clipPath>
  <clipPath id="pc65ed7f3c2">
   <rect x="58.106" y="251.52" width="391.894" height="50.4775"/>
  </clipPath>
 </defs>
</svg>
