<?xml version="1.0" encoding="utf-8" standalone="no"?>
<!DOCTYPE svg PUBLIC "-//W3C//DTD SVG 1.1//EN"
  "http://www.w3.org/Graphics/SVG/1.1/DTD/svg11.dtd">
<svg xmlns:xlink="http://www.w3.org/1999/xlink" width="460.8pt" height="345.6pt" viewBox="0 0 460.8 345.6" xmlns="http://www.w3.org/2000/svg" version="1.1">
 <metadata>
  <rdf:RDF xmlns:dc="http://purl.org/dc/elements/1.1/" xmlns:cc="http://creativecommons.org/ns#" xmlns:rdf="http://www.w3.org/1999/02/22-rdf-syntax-ns#">
   <cc:Work>
    <dc:type rdf:resource="http://purl.org/dc/dcmitype/StillImage"/>
    <dc:date>2022-06-05T14:43:30.811065</dc:date>
    <dc:format>image/svg+xml</dc:format>
    <dc:creator>
     <cc:Agent>
      <dc:title>Matplotlib v3.5.1, https://matplotlib.org/</dc:title>
     </cc:Agent>
    </dc:creator>
   </cc:Work>
  </rdf:RDF>
 </metadata>
 <defs>
  <style type="text/css">*{stroke-linejoin: round; stroke-linecap: butt}</style>
 </defs>
 <g id="figure_1">
  <g id="patch_1">
   <path d="M 0 345.6 
L 460.8 345.6 
L 460.8 0 
L 0 0 
z
" style="fill: #ffffff"/>
  </g>
  <g id="axes_1">
   <g id="patch_2">
    <path d="M 58.106 78.7975 
L 450 78.7975 
L 450 28.32 
L 58.106 28.32 
z
" style="fill: #ffffff"/>
   </g>
   <g id="matplotlib.axis_1">
    <g id="xtick_1">
     <g id="line2d_1">
      <path d="M 75.919364 78.7975 
L 75.919364 28.32 
" clip-path="url(#p040949d89e)" style="fill: none; stroke: #b0b0b0; stroke-width: 0.8; stroke-linecap: square"/>
     </g>
     <g id="line2d_2">
      <defs>
       <path id="m35014f21e2" d="M 0 0 
L 0 3.5 
" style="stroke: #000000; stroke-width: 0.8"/>
      </defs>
      <g>
       <use xlink:href="#m35014f21e2" x="75.919364" y="78.7975" style="stroke: #000000; stroke-width: 0.8"/>
      </g>
     </g>
     <g id="text_1">
      <!-- 0 -->
      <g transform="translate(72.738114 93.395937)scale(0.1 -0.1)">
       <defs>
        <path id="DejaVuSans-30" d="M 2034 4250 
Q 1547 4250 1301 3770 
Q 1056 3291 1056 2328 
Q 1056 1369 1301 889 
Q 1547 409 2034 409 
Q 2525 409 2770 889 
Q 3016 1369 3016 2328 
Q 3016 3291 2770 3770 
Q 2525 4250 2034 4250 
z
M 2034 4750 
Q 2819 4750 3233 4129 
Q 3647 3509 3647 2328 
Q 3647 1150 3233 529 
Q 2819 -91 2034 -91 
Q 1250 -91 836 529 
Q 422 1150 422 2328 
Q 422 3509 836 4129 
Q 1250 4750 2034 4750 
z
" transform="scale(0.015625)"/>
       </defs>
       <use xlink:href="#DejaVuSans-30"/>
      </g>
     </g>
    </g>
    <g id="xtick_2">
     <g id="line2d_3">
      <path d="M 143.650784 78.7975 
L 143.650784 28.32 
" clip-path="url(#p040949d89e)" style="fill: none; stroke: #b0b0b0; stroke-width: 0.8; stroke-linecap: square"/>
     </g>
     <g id="line2d_4">
      <g>
       <use xlink:href="#m35014f21e2" x="143.650784" y="78.7975" style="stroke: #000000; stroke-width: 0.8"/>
      </g>
     </g>
     <g id="text_2">
      <!-- 2 -->
      <g transform="translate(140.469534 93.395937)scale(0.1 -0.1)">
       <defs>
        <path id="DejaVuSans-32" d="M 1228 531 
L 3431 531 
L 3431 0 
L 469 0 
L 469 531 
Q 828 903 1448 1529 
Q 2069 2156 2228 2338 
Q 2531 2678 2651 2914 
Q 2772 3150 2772 3378 
Q 2772 3750 2511 3984 
Q 2250 4219 1831 4219 
Q 1534 4219 1204 4116 
Q 875 4013 500 3803 
L 500 4441 
Q 881 4594 1212 4672 
Q 1544 4750 1819 4750 
Q 2544 4750 2975 4387 
Q 3406 4025 3406 3419 
Q 3406 3131 3298 2873 
Q 3191 2616 2906 2266 
Q 2828 2175 2409 1742 
Q 1991 1309 1228 531 
z
" transform="scale(0.015625)"/>
       </defs>
       <use xlink:href="#DejaVuSans-32"/>
      </g>
     </g>
    </g>
    <g id="xtick_3">
     <g id="line2d_5">
      <path d="M 211.382205 78.7975 
L 211.382205 28.32 
" clip-path="url(#p040949d89e)" style="fill: none; stroke: #b0b0b0; stroke-width: 0.8; stroke-linecap: square"/>
     </g>
     <g id="line2d_6">
      <g>
       <use xlink:href="#m35014f21e2" x="211.382205" y="78.7975" style="stroke: #000000; stroke-width: 0.8"/>
      </g>
     </g>
     <g id="text_3">
      <!-- 4 -->
      <g transform="translate(208.200955 93.395937)scale(0.1 -0.1)">
       <defs>
        <path id="DejaVuSans-34" d="M 2419 4116 
L 825 1625 
L 2419 1625 
L 2419 4116 
z
M 2253 4666 
L 3047 4666 
L 3047 1625 
L 3713 1625 
L 3713 1100 
L 3047 1100 
L 3047 0 
L 2419 0 
L 2419 1100 
L 313 1100 
L 313 1709 
L 2253 4666 
z
" transform="scale(0.015625)"/>
       </defs>
       <use xlink:href="#DejaVuSans-34"/>
      </g>
     </g>
    </g>
    <g id="xtick_4">
     <g id="line2d_7">
      <path d="M 279.113626 78.7975 
L 279.113626 28.32 
" clip-path="url(#p040949d89e)" style="fill: none; stroke: #b0b0b0; stroke-width: 0.8; stroke-linecap: square"/>
     </g>
     <g id="line2d_8">
      <g>
       <use xlink:href="#m35014f21e2" x="279.113626" y="78.7975" style="stroke: #000000; stroke-width: 0.8"/>
      </g>
     </g>
     <g id="text_4">
      <!-- 6 -->
      <g transform="translate(275.932376 93.395937)scale(0.1 -0.1)">
       <defs>
        <path id="DejaVuSans-36" d="M 2113 2584 
Q 1688 2584 1439 2293 
Q 1191 2003 1191 1497 
Q 1191 994 1439 701 
Q 1688 409 2113 409 
Q 2538 409 2786 701 
Q 3034 994 3034 1497 
Q 3034 2003 2786 2293 
Q 2538 2584 2113 2584 
z
M 3366 4563 
L 3366 3988 
Q 3128 4100 2886 4159 
Q 2644 4219 2406 4219 
Q 1781 4219 1451 3797 
Q 1122 3375 1075 2522 
Q 1259 2794 1537 2939 
Q 1816 3084 2150 3084 
Q 2853 3084 3261 2657 
Q 3669 2231 3669 1497 
Q 3669 778 3244 343 
Q 2819 -91 2113 -91 
Q 1303 -91 875 529 
Q 447 1150 447 2328 
Q 447 3434 972 4092 
Q 1497 4750 2381 4750 
Q 2619 4750 2861 4703 
Q 3103 4656 3366 4563 
z
" transform="scale(0.015625)"/>
       </defs>
       <use xlink:href="#DejaVuSans-36"/>
      </g>
     </g>
    </g>
    <g id="xtick_5">
     <g id="line2d_9">
      <path d="M 346.845046 78.7975 
L 346.845046 28.32 
" clip-path="url(#p040949d89e)" style="fill: none; stroke: #b0b0b0; stroke-width: 0.8; stroke-linecap: square"/>
     </g>
     <g id="line2d_10">
      <g>
       <use xlink:href="#m35014f21e2" x="346.845046" y="78.7975" style="stroke: #000000; stroke-width: 0.8"/>
      </g>
     </g>
     <g id="text_5">
      <!-- 8 -->
      <g transform="translate(343.663796 93.395937)scale(0.1 -0.1)">
       <defs>
        <path id="DejaVuSans-38" d="M 2034 2216 
Q 1584 2216 1326 1975 
Q 1069 1734 1069 1313 
Q 1069 891 1326 650 
Q 1584 409 2034 409 
Q 2484 409 2743 651 
Q 3003 894 3003 1313 
Q 3003 1734 2745 1975 
Q 2488 2216 2034 2216 
z
M 1403 2484 
Q 997 2584 770 2862 
Q 544 3141 544 3541 
Q 544 4100 942 4425 
Q 1341 4750 2034 4750 
Q 2731 4750 3128 4425 
Q 3525 4100 3525 3541 
Q 3525 3141 3298 2862 
Q 3072 2584 2669 2484 
Q 3125 2378 3379 2068 
Q 3634 1759 3634 1313 
Q 3634 634 3220 271 
Q 2806 -91 2034 -91 
Q 1263 -91 848 271 
Q 434 634 434 1313 
Q 434 1759 690 2068 
Q 947 2378 1403 2484 
z
M 1172 3481 
Q 1172 3119 1398 2916 
Q 1625 2713 2034 2713 
Q 2441 2713 2670 2916 
Q 2900 3119 2900 3481 
Q 2900 3844 2670 4047 
Q 2441 4250 2034 4250 
Q 1625 4250 1398 4047 
Q 1172 3844 1172 3481 
z
" transform="scale(0.015625)"/>
       </defs>
       <use xlink:href="#DejaVuSans-38"/>
      </g>
     </g>
    </g>
    <g id="xtick_6">
     <g id="line2d_11">
      <path d="M 414.576467 78.7975 
L 414.576467 28.32 
" clip-path="url(#p040949d89e)" style="fill: none; stroke: #b0b0b0; stroke-width: 0.8; stroke-linecap: square"/>
     </g>
     <g id="line2d_12">
      <g>
       <use xlink:href="#m35014f21e2" x="414.576467" y="78.7975" style="stroke: #000000; stroke-width: 0.8"/>
      </g>
     </g>
     <g id="text_6">
      <!-- 10 -->
      <g transform="translate(408.213967 93.395937)scale(0.1 -0.1)">
       <defs>
        <path id="DejaVuSans-31" d="M 794 531 
L 1825 531 
L 1825 4091 
L 703 3866 
L 703 4441 
L 1819 4666 
L 2450 4666 
L 2450 531 
L 3481 531 
L 3481 0 
L 794 0 
L 794 531 
z
" transform="scale(0.015625)"/>
       </defs>
       <use xlink:href="#DejaVuSans-31"/>
       <use xlink:href="#DejaVuSans-30" x="63.623047"/>
      </g>
     </g>
    </g>
    <g id="text_7">
     <!-- $t$ [s] -->
     <g transform="translate(243.953 107.074062)scale(0.1 -0.1)">
      <defs>
       <path id="DejaVuSans-Oblique-74" d="M 2706 3500 
L 2619 3053 
L 1472 3053 
L 1100 1153 
Q 1081 1047 1072 975 
Q 1063 903 1063 863 
Q 1063 663 1183 572 
Q 1303 481 1569 481 
L 2150 481 
L 2053 0 
L 1503 0 
Q 991 0 739 200 
Q 488 400 488 806 
Q 488 878 497 964 
Q 506 1050 525 1153 
L 897 3053 
L 409 3053 
L 500 3500 
L 978 3500 
L 1172 4494 
L 1747 4494 
L 1556 3500 
L 2706 3500 
z
" transform="scale(0.015625)"/>
       <path id="DejaVuSans-20" transform="scale(0.015625)"/>
       <path id="DejaVuSans-5b" d="M 550 4863 
L 1875 4863 
L 1875 4416 
L 1125 4416 
L 1125 -397 
L 1875 -397 
L 1875 -844 
L 550 -844 
L 550 4863 
z
" transform="scale(0.015625)"/>
       <path id="DejaVuSans-73" d="M 2834 3397 
L 2834 2853 
Q 2591 2978 2328 3040 
Q 2066 3103 1784 3103 
Q 1356 3103 1142 2972 
Q 928 2841 928 2578 
Q 928 2378 1081 2264 
Q 1234 2150 1697 2047 
L 1894 2003 
Q 2506 1872 2764 1633 
Q 3022 1394 3022 966 
Q 3022 478 2636 193 
Q 2250 -91 1575 -91 
Q 1294 -91 989 -36 
Q 684 19 347 128 
L 347 722 
Q 666 556 975 473 
Q 1284 391 1588 391 
Q 1994 391 2212 530 
Q 2431 669 2431 922 
Q 2431 1156 2273 1281 
Q 2116 1406 1581 1522 
L 1381 1569 
Q 847 1681 609 1914 
Q 372 2147 372 2553 
Q 372 3047 722 3315 
Q 1072 3584 1716 3584 
Q 2034 3584 2315 3537 
Q 2597 3491 2834 3397 
z
" transform="scale(0.015625)"/>
       <path id="DejaVuSans-5d" d="M 1947 4863 
L 1947 -844 
L 622 -844 
L 622 -397 
L 1369 -397 
L 1369 4416 
L 622 4416 
L 622 4863 
L 1947 4863 
z
" transform="scale(0.015625)"/>
      </defs>
      <use xlink:href="#DejaVuSans-Oblique-74" transform="translate(0 0.015625)"/>
      <use xlink:href="#DejaVuSans-20" transform="translate(39.208984 0.015625)"/>
      <use xlink:href="#DejaVuSans-5b" transform="translate(70.996094 0.015625)"/>
      <use xlink:href="#DejaVuSans-73" transform="translate(110.009766 0.015625)"/>
      <use xlink:href="#DejaVuSans-5d" transform="translate(162.109375 0.015625)"/>
     </g>
    </g>
   </g>
   <g id="matplotlib.axis_2">
    <g id="ytick_1">
     <g id="line2d_13">
      <path d="M 58.106 76.554628 
L 450 76.554628 
" clip-path="url(#p040949d89e)" style="fill: none; stroke: #b0b0b0; stroke-width: 0.8; stroke-linecap: square"/>
     </g>
     <g id="line2d_14">
      <defs>
       <path id="m82567016f0" d="M 0 0 
L -3.5 0 
" style="stroke: #000000; stroke-width: 0.8"/>
      </defs>
      <g>
       <use xlink:href="#m82567016f0" x="58.106" y="76.554628" style="stroke: #000000; stroke-width: 0.8"/>
      </g>
     </g>
     <g id="text_8">
      <!-- 0 -->
      <g transform="translate(44.7435 80.353847)scale(0.1 -0.1)">
       <use xlink:href="#DejaVuSans-30"/>
      </g>
     </g>
    </g>
    <g id="ytick_2">
     <g id="line2d_15">
      <path d="M 58.106 30.616666 
L 450 30.616666 
" clip-path="url(#p040949d89e)" style="fill: none; stroke: #b0b0b0; stroke-width: 0.8; stroke-linecap: square"/>
     </g>
     <g id="line2d_16">
      <g>
       <use xlink:href="#m82567016f0" x="58.106" y="30.616666" style="stroke: #000000; stroke-width: 0.8"/>
      </g>
     </g>
     <g id="text_9">
      <!-- 10 -->
      <g transform="translate(38.381 34.415885)scale(0.1 -0.1)">
       <use xlink:href="#DejaVuSans-31"/>
       <use xlink:href="#DejaVuSans-30" x="63.623047"/>
      </g>
     </g>
    </g>
    <g id="text_10">
     <!-- $e_x$ [m] -->
     <g transform="translate(32.301313 69.20875)rotate(-90)scale(0.1 -0.1)">
      <defs>
       <path id="DejaVuSans-Oblique-65" d="M 3078 2063 
Q 3088 2113 3092 2166 
Q 3097 2219 3097 2272 
Q 3097 2653 2873 2875 
Q 2650 3097 2266 3097 
Q 1838 3097 1509 2826 
Q 1181 2556 1013 2059 
L 3078 2063 
z
M 3578 1613 
L 903 1613 
Q 884 1494 878 1425 
Q 872 1356 872 1306 
Q 872 872 1139 634 
Q 1406 397 1894 397 
Q 2269 397 2603 481 
Q 2938 566 3225 728 
L 3116 159 
Q 2806 34 2476 -28 
Q 2147 -91 1806 -91 
Q 1078 -91 686 257 
Q 294 606 294 1247 
Q 294 1794 489 2264 
Q 684 2734 1063 3103 
Q 1306 3334 1642 3459 
Q 1978 3584 2356 3584 
Q 2950 3584 3301 3228 
Q 3653 2872 3653 2272 
Q 3653 2128 3634 1964 
Q 3616 1800 3578 1613 
z
" transform="scale(0.015625)"/>
       <path id="DejaVuSans-Oblique-78" d="M 3841 3500 
L 2234 1784 
L 3219 0 
L 2559 0 
L 1819 1388 
L 531 0 
L -166 0 
L 1556 1844 
L 641 3500 
L 1300 3500 
L 1972 2234 
L 3144 3500 
L 3841 3500 
z
" transform="scale(0.015625)"/>
       <path id="DejaVuSans-6d" d="M 3328 2828 
Q 3544 3216 3844 3400 
Q 4144 3584 4550 3584 
Q 5097 3584 5394 3201 
Q 5691 2819 5691 2113 
L 5691 0 
L 5113 0 
L 5113 2094 
Q 5113 2597 4934 2840 
Q 4756 3084 4391 3084 
Q 3944 3084 3684 2787 
Q 3425 2491 3425 1978 
L 3425 0 
L 2847 0 
L 2847 2094 
Q 2847 2600 2669 2842 
Q 2491 3084 2119 3084 
Q 1678 3084 1418 2786 
Q 1159 2488 1159 1978 
L 1159 0 
L 581 0 
L 581 3500 
L 1159 3500 
L 1159 2956 
Q 1356 3278 1631 3431 
Q 1906 3584 2284 3584 
Q 2666 3584 2933 3390 
Q 3200 3197 3328 2828 
z
" transform="scale(0.015625)"/>
      </defs>
      <use xlink:href="#DejaVuSans-Oblique-65" transform="translate(0 0.015625)"/>
      <use xlink:href="#DejaVuSans-Oblique-78" transform="translate(61.523438 -16.390625)scale(0.7)"/>
      <use xlink:href="#DejaVuSans-20" transform="translate(105.683594 0.015625)"/>
      <use xlink:href="#DejaVuSans-5b" transform="translate(137.470703 0.015625)"/>
      <use xlink:href="#DejaVuSans-6d" transform="translate(176.484375 0.015625)"/>
      <use xlink:href="#DejaVuSans-5d" transform="translate(273.896484 0.015625)"/>
     </g>
    </g>
   </g>
   <g id="line2d_17">
    <path d="M 75.919364 30.616662 
L 85.410785 30.718498 
L 99.986896 31.230736 
L 107.105462 31.860156 
L 109.139338 32.12889 
L 114.224028 32.722426 
L 131.172994 35.447101 
L 132.189932 35.669397 
L 134.562787 36.162472 
L 137.274622 36.825977 
L 137.613601 36.825977 
L 138.29156 37.010351 
L 140.664415 37.539973 
L 143.37625 38.244873 
L 143.715229 38.244873 
L 144.393188 38.440984 
L 146.766043 39.000869 
L 148.799919 39.493187 
L 151.172774 40.040718 
L 151.511754 40.198775 
L 151.850733 40.198775 
L 152.528692 40.386435 
L 153.884609 40.724629 
L 154.901547 40.905993 
L 157.274402 41.409447 
L 158.29134 41.698846 
L 159.308278 41.841493 
L 160.664195 42.178056 
L 163.037051 42.672284 
L 166.426844 43.328345 
L 168.799699 43.817145 
L 169.816637 44.005238 
L 172.867451 44.588518 
L 173.884389 44.797066 
L 176.935203 45.357666 
L 177.952141 45.557386 
L 181.680914 46.196732 
L 182.697852 46.390656 
L 185.070707 46.801498 
L 186.087645 47.044481 
L 187.104583 47.16604 
L 188.121521 47.407533 
L 189.138459 47.526648 
L 190.155397 47.759909 
L 191.172335 47.873999 
L 192.528252 48.121231 
L 195.240087 48.550971 
L 195.918045 48.665393 
L 196.934983 48.848001 
L 199.307839 49.226352 
L 199.985797 49.334479 
L 201.002735 49.505841 
L 203.71457 49.941671 
L 204.731508 50.121963 
L 207.782322 50.61767 
L 208.79926 50.792539 
L 211.850074 51.266038 
L 212.867012 51.443312 
L 215.917826 51.948068 
L 216.934764 52.131191 
L 220.324557 52.661435 
L 221.680474 52.901986 
L 225.070268 53.444446 
L 226.087206 53.625668 
L 229.138019 54.107087 
L 230.154957 54.277661 
L 232.527813 54.644573 
L 233.88373 54.886138 
L 237.273523 55.422658 
L 240.324337 55.914855 
L 241.002296 55.998048 
L 244.05311 56.464785 
L 245.070048 56.63324 
L 248.120862 57.081358 
L 249.1378 57.24338 
L 251.849634 57.661797 
L 254.561469 58.103804 
L 255.239428 58.185807 
L 258.290242 58.652092 
L 261.341056 59.113393 
L 264.391869 59.547737 
L 265.069828 59.647617 
L 266.086766 59.805838 
L 269.13758 60.246619 
L 270.154518 60.410971 
L 273.205332 60.835985 
L 273.883291 60.972385 
L 277.273084 61.416562 
L 277.951043 61.555153 
L 281.340836 62.034565 
L 282.357774 62.187963 
L 285.408588 62.576715 
L 286.086546 62.707238 
L 289.47634 63.195628 
L 294.56103 63.884379 
L 295.916947 64.060801 
L 298.289802 64.391736 
L 299.645719 64.582893 
L 305.069389 65.281497 
L 306.425306 65.481302 
L 307.781223 65.600269 
L 308.459182 65.722514 
L 311.509996 66.137648 
L 314.899789 66.576064 
L 315.916727 66.671516 
L 319.984479 67.16228 
L 325.408148 67.805162 
L 326.764066 67.957113 
L 330.831818 68.432063 
L 332.187735 68.616848 
L 338.967321 69.376159 
L 340.662218 69.613304 
L 341.340177 69.678709 
L 344.72997 70.067775 
L 349.81466 70.628938 
L 355.916288 71.345724 
L 360.661998 71.854116 
L 361.678936 71.99673 
L 366.763626 72.568066 
L 367.780564 72.697997 
L 371.848316 73.132805 
L 376.594027 73.681622 
L 377.949944 73.792343 
L 383.712593 74.377437 
L 403.034414 75.887099 
L 421.339298 76.484513 
L 432.186636 76.430993 
L 432.186636 76.430993 
" clip-path="url(#p040949d89e)" style="fill: none; stroke: #ff0000; stroke-width: 1.5; stroke-linecap: square"/>
   </g>
   <g id="patch_3">
    <path d="M 58.106 78.7975 
L 58.106 28.32 
" style="fill: none; stroke: #000000; stroke-width: 0.8; stroke-linejoin: miter; stroke-linecap: square"/>
   </g>
   <g id="patch_4">
    <path d="M 450 78.7975 
L 450 28.32 
" style="fill: none; stroke: #000000; stroke-width: 0.8; stroke-linejoin: miter; stroke-linecap: square"/>
   </g>
   <g id="patch_5">
    <path d="M 58.106 78.7975 
L 450 78.7975 
" style="fill: none; stroke: #000000; stroke-width: 0.8; stroke-linejoin: miter; stroke-linecap: square"/>
   </g>
   <g id="patch_6">
    <path d="M 58.106 28.32 
L 450 28.32 
" style="fill: none; stroke: #000000; stroke-width: 0.8; stroke-linejoin: miter; stroke-linecap: square"/>
   </g>
   <g id="text_11">
    <!-- Error in $x$-position -->
    <g transform="translate(200.413 22.32)scale(0.12 -0.12)">
     <defs>
      <path id="DejaVuSans-45" d="M 628 4666 
L 3578 4666 
L 3578 4134 
L 1259 4134 
L 1259 2753 
L 3481 2753 
L 3481 2222 
L 1259 2222 
L 1259 531 
L 3634 531 
L 3634 0 
L 628 0 
L 628 4666 
z
" transform="scale(0.015625)"/>
      <path id="DejaVuSans-72" d="M 2631 2963 
Q 2534 3019 2420 3045 
Q 2306 3072 2169 3072 
Q 1681 3072 1420 2755 
Q 1159 2438 1159 1844 
L 1159 0 
L 581 0 
L 581 3500 
L 1159 3500 
L 1159 2956 
Q 1341 3275 1631 3429 
Q 1922 3584 2338 3584 
Q 2397 3584 2469 3576 
Q 2541 3569 2628 3553 
L 2631 2963 
z
" transform="scale(0.015625)"/>
      <path id="DejaVuSans-6f" d="M 1959 3097 
Q 1497 3097 1228 2736 
Q 959 2375 959 1747 
Q 959 1119 1226 758 
Q 1494 397 1959 397 
Q 2419 397 2687 759 
Q 2956 1122 2956 1747 
Q 2956 2369 2687 2733 
Q 2419 3097 1959 3097 
z
M 1959 3584 
Q 2709 3584 3137 3096 
Q 3566 2609 3566 1747 
Q 3566 888 3137 398 
Q 2709 -91 1959 -91 
Q 1206 -91 779 398 
Q 353 888 353 1747 
Q 353 2609 779 3096 
Q 1206 3584 1959 3584 
z
" transform="scale(0.015625)"/>
      <path id="DejaVuSans-69" d="M 603 3500 
L 1178 3500 
L 1178 0 
L 603 0 
L 603 3500 
z
M 603 4863 
L 1178 4863 
L 1178 4134 
L 603 4134 
L 603 4863 
z
" transform="scale(0.015625)"/>
      <path id="DejaVuSans-6e" d="M 3513 2113 
L 3513 0 
L 2938 0 
L 2938 2094 
Q 2938 2591 2744 2837 
Q 2550 3084 2163 3084 
Q 1697 3084 1428 2787 
Q 1159 2491 1159 1978 
L 1159 0 
L 581 0 
L 581 3500 
L 1159 3500 
L 1159 2956 
Q 1366 3272 1645 3428 
Q 1925 3584 2291 3584 
Q 2894 3584 3203 3211 
Q 3513 2838 3513 2113 
z
" transform="scale(0.015625)"/>
      <path id="DejaVuSans-2d" d="M 313 2009 
L 1997 2009 
L 1997 1497 
L 313 1497 
L 313 2009 
z
" transform="scale(0.015625)"/>
      <path id="DejaVuSans-70" d="M 1159 525 
L 1159 -1331 
L 581 -1331 
L 581 3500 
L 1159 3500 
L 1159 2969 
Q 1341 3281 1617 3432 
Q 1894 3584 2278 3584 
Q 2916 3584 3314 3078 
Q 3713 2572 3713 1747 
Q 3713 922 3314 415 
Q 2916 -91 2278 -91 
Q 1894 -91 1617 61 
Q 1341 213 1159 525 
z
M 3116 1747 
Q 3116 2381 2855 2742 
Q 2594 3103 2138 3103 
Q 1681 3103 1420 2742 
Q 1159 2381 1159 1747 
Q 1159 1113 1420 752 
Q 1681 391 2138 391 
Q 2594 391 2855 752 
Q 3116 1113 3116 1747 
z
" transform="scale(0.015625)"/>
      <path id="DejaVuSans-74" d="M 1172 4494 
L 1172 3500 
L 2356 3500 
L 2356 3053 
L 1172 3053 
L 1172 1153 
Q 1172 725 1289 603 
Q 1406 481 1766 481 
L 2356 481 
L 2356 0 
L 1766 0 
Q 1100 0 847 248 
Q 594 497 594 1153 
L 594 3053 
L 172 3053 
L 172 3500 
L 594 3500 
L 594 4494 
L 1172 4494 
z
" transform="scale(0.015625)"/>
     </defs>
     <use xlink:href="#DejaVuSans-45" transform="translate(0 0.015625)"/>
     <use xlink:href="#DejaVuSans-72" transform="translate(63.183594 0.015625)"/>
     <use xlink:href="#DejaVuSans-72" transform="translate(104.296875 0.015625)"/>
     <use xlink:href="#DejaVuSans-6f" transform="translate(145.410156 0.015625)"/>
     <use xlink:href="#DejaVuSans-72" transform="translate(206.591797 0.015625)"/>
     <use xlink:href="#DejaVuSans-20" transform="translate(247.705078 0.015625)"/>
     <use xlink:href="#DejaVuSans-69" transform="translate(279.492188 0.015625)"/>
     <use xlink:href="#DejaVuSans-6e" transform="translate(307.275391 0.015625)"/>
     <use xlink:href="#DejaVuSans-20" transform="translate(370.654297 0.015625)"/>
     <use xlink:href="#DejaVuSans-Oblique-78" transform="translate(402.441406 0.015625)"/>
     <use xlink:href="#DejaVuSans-2d" transform="translate(461.621094 0.015625)"/>
     <use xlink:href="#DejaVuSans-70" transform="translate(497.705078 0.015625)"/>
     <use xlink:href="#DejaVuSans-6f" transform="translate(561.181641 0.015625)"/>
     <use xlink:href="#DejaVuSans-73" transform="translate(622.363281 0.015625)"/>
     <use xlink:href="#DejaVuSans-69" transform="translate(674.462891 0.015625)"/>
     <use xlink:href="#DejaVuSans-74" transform="translate(702.246094 0.015625)"/>
     <use xlink:href="#DejaVuSans-69" transform="translate(741.455078 0.015625)"/>
     <use xlink:href="#DejaVuSans-6f" transform="translate(769.238281 0.015625)"/>
     <use xlink:href="#DejaVuSans-6e" transform="translate(830.419922 0.015625)"/>
    </g>
   </g>
  </g>
  <g id="axes_2">
   <g id="patch_7">
    <path d="M 58.106 190.3975 
L 450 190.3975 
L 450 139.92 
L 58.106 139.92 
z
" style="fill: #ffffff"/>
   </g>
   <g id="matplotlib.axis_3">
    <g id="xtick_7">
     <g id="line2d_18">
      <path d="M 75.919364 190.3975 
L 75.919364 139.92 
" clip-path="url(#pd2cb86bef9)" style="fill: none; stroke: #b0b0b0; stroke-width: 0.8; stroke-linecap: square"/>
     </g>
     <g id="line2d_19">
      <g>
       <use xlink:href="#m35014f21e2" x="75.919364" y="190.3975" style="stroke: #000000; stroke-width: 0.8"/>
      </g>
     </g>
     <g id="text_12">
      <!-- 0 -->
      <g transform="translate(72.738114 204.995937)scale(0.1 -0.1)">
       <use xlink:href="#DejaVuSans-30"/>
      </g>
     </g>
    </g>
    <g id="xtick_8">
     <g id="line2d_20">
      <path d="M 143.650784 190.3975 
L 143.650784 139.92 
" clip-path="url(#pd2cb86bef9)" style="fill: none; stroke: #b0b0b0; stroke-width: 0.8; stroke-linecap: square"/>
     </g>
     <g id="line2d_21">
      <g>
       <use xlink:href="#m35014f21e2" x="143.650784" y="190.3975" style="stroke: #000000; stroke-width: 0.8"/>
      </g>
     </g>
     <g id="text_13">
      <!-- 2 -->
      <g transform="translate(140.469534 204.995937)scale(0.1 -0.1)">
       <use xlink:href="#DejaVuSans-32"/>
      </g>
     </g>
    </g>
    <g id="xtick_9">
     <g id="line2d_22">
      <path d="M 211.382205 190.3975 
L 211.382205 139.92 
" clip-path="url(#pd2cb86bef9)" style="fill: none; stroke: #b0b0b0; stroke-width: 0.8; stroke-linecap: square"/>
     </g>
     <g id="line2d_23">
      <g>
       <use xlink:href="#m35014f21e2" x="211.382205" y="190.3975" style="stroke: #000000; stroke-width: 0.8"/>
      </g>
     </g>
     <g id="text_14">
      <!-- 4 -->
      <g transform="translate(208.200955 204.995937)scale(0.1 -0.1)">
       <use xlink:href="#DejaVuSans-34"/>
      </g>
     </g>
    </g>
    <g id="xtick_10">
     <g id="line2d_24">
      <path d="M 279.113626 190.3975 
L 279.113626 139.92 
" clip-path="url(#pd2cb86bef9)" style="fill: none; stroke: #b0b0b0; stroke-width: 0.8; stroke-linecap: square"/>
     </g>
     <g id="line2d_25">
      <g>
       <use xlink:href="#m35014f21e2" x="279.113626" y="190.3975" style="stroke: #000000; stroke-width: 0.8"/>
      </g>
     </g>
     <g id="text_15">
      <!-- 6 -->
      <g transform="translate(275.932376 204.995937)scale(0.1 -0.1)">
       <use xlink:href="#DejaVuSans-36"/>
      </g>
     </g>
    </g>
    <g id="xtick_11">
     <g id="line2d_26">
      <path d="M 346.845046 190.3975 
L 346.845046 139.92 
" clip-path="url(#pd2cb86bef9)" style="fill: none; stroke: #b0b0b0; stroke-width: 0.8; stroke-linecap: square"/>
     </g>
     <g id="line2d_27">
      <g>
       <use xlink:href="#m35014f21e2" x="346.845046" y="190.3975" style="stroke: #000000; stroke-width: 0.8"/>
      </g>
     </g>
     <g id="text_16">
      <!-- 8 -->
      <g transform="translate(343.663796 204.995937)scale(0.1 -0.1)">
       <use xlink:href="#DejaVuSans-38"/>
      </g>
     </g>
    </g>
    <g id="xtick_12">
     <g id="line2d_28">
      <path d="M 414.576467 190.3975 
L 414.576467 139.92 
" clip-path="url(#pd2cb86bef9)" style="fill: none; stroke: #b0b0b0; stroke-width: 0.8; stroke-linecap: square"/>
     </g>
     <g id="line2d_29">
      <g>
       <use xlink:href="#m35014f21e2" x="414.576467" y="190.3975" style="stroke: #000000; stroke-width: 0.8"/>
      </g>
     </g>
     <g id="text_17">
      <!-- 10 -->
      <g transform="translate(408.213967 204.995937)scale(0.1 -0.1)">
       <use xlink:href="#DejaVuSans-31"/>
       <use xlink:href="#DejaVuSans-30" x="63.623047"/>
      </g>
     </g>
    </g>
    <g id="text_18">
     <!-- $t$ [s] -->
     <g transform="translate(243.953 218.674062)scale(0.1 -0.1)">
      <use xlink:href="#DejaVuSans-Oblique-74" transform="translate(0 0.015625)"/>
      <use xlink:href="#DejaVuSans-20" transform="translate(39.208984 0.015625)"/>
      <use xlink:href="#DejaVuSans-5b" transform="translate(70.996094 0.015625)"/>
      <use xlink:href="#DejaVuSans-73" transform="translate(110.009766 0.015625)"/>
      <use xlink:href="#DejaVuSans-5d" transform="translate(162.109375 0.015625)"/>
     </g>
    </g>
   </g>
   <g id="matplotlib.axis_4">
    <g id="ytick_3">
     <g id="line2d_30">
      <path d="M 58.106 180.707251 
L 450 180.707251 
" clip-path="url(#pd2cb86bef9)" style="fill: none; stroke: #b0b0b0; stroke-width: 0.8; stroke-linecap: square"/>
     </g>
     <g id="line2d_31">
      <g>
       <use xlink:href="#m82567016f0" x="58.106" y="180.707251" style="stroke: #000000; stroke-width: 0.8"/>
      </g>
     </g>
     <g id="text_19">
      <!-- −0.1 -->
      <g transform="translate(26.823188 184.50647)scale(0.1 -0.1)">
       <defs>
        <path id="DejaVuSans-2212" d="M 678 2272 
L 4684 2272 
L 4684 1741 
L 678 1741 
L 678 2272 
z
" transform="scale(0.015625)"/>
        <path id="DejaVuSans-2e" d="M 684 794 
L 1344 794 
L 1344 0 
L 684 0 
L 684 794 
z
" transform="scale(0.015625)"/>
       </defs>
       <use xlink:href="#DejaVuSans-2212"/>
       <use xlink:href="#DejaVuSans-30" x="83.789062"/>
       <use xlink:href="#DejaVuSans-2e" x="147.412109"/>
       <use xlink:href="#DejaVuSans-31" x="179.199219"/>
      </g>
     </g>
    </g>
    <g id="ytick_4">
     <g id="line2d_32">
      <path d="M 58.106 165.869387 
L 450 165.869387 
" clip-path="url(#pd2cb86bef9)" style="fill: none; stroke: #b0b0b0; stroke-width: 0.8; stroke-linecap: square"/>
     </g>
     <g id="line2d_33">
      <g>
       <use xlink:href="#m82567016f0" x="58.106" y="165.869387" style="stroke: #000000; stroke-width: 0.8"/>
      </g>
     </g>
     <g id="text_20">
      <!-- 0.0 -->
      <g transform="translate(35.202875 169.668605)scale(0.1 -0.1)">
       <use xlink:href="#DejaVuSans-30"/>
       <use xlink:href="#DejaVuSans-2e" x="63.623047"/>
       <use xlink:href="#DejaVuSans-30" x="95.410156"/>
      </g>
     </g>
    </g>
    <g id="ytick_5">
     <g id="line2d_34">
      <path d="M 58.106 151.031522 
L 450 151.031522 
" clip-path="url(#pd2cb86bef9)" style="fill: none; stroke: #b0b0b0; stroke-width: 0.8; stroke-linecap: square"/>
     </g>
     <g id="line2d_35">
      <g>
       <use xlink:href="#m82567016f0" x="58.106" y="151.031522" style="stroke: #000000; stroke-width: 0.8"/>
      </g>
     </g>
     <g id="text_21">
      <!-- 0.1 -->
      <g transform="translate(35.202875 154.830741)scale(0.1 -0.1)">
       <use xlink:href="#DejaVuSans-30"/>
       <use xlink:href="#DejaVuSans-2e" x="63.623047"/>
       <use xlink:href="#DejaVuSans-31" x="95.410156"/>
      </g>
     </g>
    </g>
    <g id="text_22">
     <!-- $e_z$ [m] -->
     <g transform="translate(20.7435 180.60875)rotate(-90)scale(0.1 -0.1)">
      <defs>
       <path id="DejaVuSans-Oblique-7a" d="M 744 3500 
L 3475 3500 
L 3372 2975 
L 738 459 
L 2913 459 
L 2822 0 
L -19 0 
L 84 525 
L 2719 3041 
L 653 3041 
L 744 3500 
z
" transform="scale(0.015625)"/>
      </defs>
      <use xlink:href="#DejaVuSans-Oblique-65" transform="translate(0 0.015625)"/>
      <use xlink:href="#DejaVuSans-Oblique-7a" transform="translate(61.523438 -16.390625)scale(0.7)"/>
      <use xlink:href="#DejaVuSans-20" transform="translate(101.000977 0.015625)"/>
      <use xlink:href="#DejaVuSans-5b" transform="translate(132.788086 0.015625)"/>
      <use xlink:href="#DejaVuSans-6d" transform="translate(171.801758 0.015625)"/>
      <use xlink:href="#DejaVuSans-5d" transform="translate(269.213867 0.015625)"/>
     </g>
    </g>
   </g>
   <g id="line2d_36">
    <path d="M 75.919364 167.29667 
L 77.95324 167.085185 
L 78.970178 166.794558 
L 81.343033 166.300834 
L 82.69895 166.438427 
L 83.376909 166.559213 
L 84.054867 166.57625 
L 85.749764 166.103478 
L 88.122619 164.386161 
L 88.461599 164.000751 
L 88.800578 164.000751 
L 89.139557 163.650084 
L 90.156495 163.055576 
L 90.495475 162.658399 
L 90.834454 162.658399 
L 91.173433 162.180355 
L 91.512413 161.905178 
L 92.529351 160.357383 
L 92.86833 160.357383 
L 93.207309 159.551489 
L 93.546289 159.136986 
L 94.224247 157.891687 
L 94.563227 157.690375 
L 94.902206 157.299393 
L 95.580165 156.110928 
L 95.919144 155.707315 
L 96.597103 155.372075 
L 97.95302 154.732605 
L 98.969958 154.69361 
L 102.020772 155.023915 
L 104.054648 155.270552 
L 105.749544 155.27706 
L 106.427503 155.190209 
L 108.800358 154.333942 
L 109.478317 153.787606 
L 110.156276 153.356014 
L 110.834234 152.508062 
L 111.173214 152.508062 
L 111.512193 152.004639 
L 112.86811 150.944211 
L 113.20709 150.551799 
L 114.901986 149.646144 
L 115.240966 149.646144 
L 115.918924 149.296624 
L 116.935862 148.835963 
L 117.613821 148.381903 
L 118.630759 147.831931 
L 118.969738 147.534807 
L 119.308717 147.534807 
L 119.647697 147.256685 
L 120.664635 146.808044 
L 121.003614 146.578299 
L 121.342593 146.578299 
L 122.020552 146.255653 
L 123.03749 145.871918 
L 123.715449 145.495048 
L 124.732387 144.949348 
L 125.071366 144.578094 
L 125.410345 144.578094 
L 125.749325 144.179864 
L 126.427283 143.675596 
L 126.766263 143.38047 
L 127.444221 143.098154 
L 127.783201 142.765684 
L 129.139118 142.242885 
L 130.834015 142.320401 
L 131.850953 142.7559 
L 132.528911 143.046116 
L 134.562787 144.65401 
L 135.240746 145.617479 
L 135.579725 145.617479 
L 135.918705 146.187197 
L 136.935643 147.149915 
L 137.274622 147.656734 
L 137.613601 147.656734 
L 137.95258 148.122064 
L 138.969518 148.830122 
L 139.308498 149.182493 
L 141.003394 150.063447 
L 141.342374 150.404269 
L 141.681353 150.404269 
L 142.020332 150.77832 
L 142.698291 151.190122 
L 143.37625 151.98994 
L 143.715229 151.98994 
L 144.054208 152.476324 
L 145.071146 153.331725 
L 145.410126 153.797679 
L 145.749105 153.797679 
L 146.088084 154.231903 
L 147.105022 154.898152 
L 147.444002 155.231529 
L 147.782981 155.231529 
L 148.12196 155.53861 
L 149.477878 156.198793 
L 150.155836 156.663306 
L 151.172774 157.150077 
L 151.511754 157.55834 
L 151.850733 157.55834 
L 152.189712 157.873995 
L 153.884609 158.752298 
L 154.562568 158.970206 
L 155.240526 159.16677 
L 155.579505 159.394838 
L 155.918485 159.394838 
L 156.596443 159.671441 
L 157.274402 159.871835 
L 158.29134 160.480373 
L 158.969299 160.706369 
L 159.308278 160.869603 
L 159.647257 161.224969 
L 160.325216 161.722984 
L 161.003175 162.390013 
L 161.342154 162.390013 
L 161.681133 162.862042 
L 162.698071 163.712701 
L 163.037051 164.211974 
L 164.392968 165.259722 
L 168.121741 170.010155 
L 168.799699 171.110485 
L 169.138679 171.287802 
L 169.477658 171.635861 
L 169.816637 172.302396 
L 170.494596 173.076315 
L 170.833575 173.510143 
L 171.172555 173.649941 
L 171.511534 173.923322 
L 171.850513 174.449301 
L 172.867451 175.331873 
L 173.20643 175.829009 
L 173.54541 175.829009 
L 173.884389 176.329705 
L 174.901327 177.208965 
L 175.240306 177.714792 
L 175.579286 177.714792 
L 175.918265 178.215716 
L 176.935203 179.050625 
L 177.274182 179.489368 
L 177.613162 179.489368 
L 177.952141 179.887718 
L 179.986017 180.847989 
L 181.341934 180.95163 
L 183.71479 180.935682 
L 185.748666 181.693496 
L 186.087645 182.118408 
L 187.104583 182.388939 
L 187.782542 182.55575 
L 189.138459 182.414402 
L 189.477438 182.263353 
L 189.816418 182.263353 
L 190.155397 182.023122 
L 192.528252 181.829917 
L 193.54519 182.082638 
L 194.901107 182.728224 
L 196.257025 182.994492 
L 197.612942 182.808915 
L 200.324777 181.978984 
L 201.341715 181.932788 
L 202.019673 182.055182 
L 202.697632 182.385938 
L 203.71457 182.904931 
L 204.053549 183.191598 
L 205.409467 183.600085 
L 206.087425 183.710211 
L 207.443343 183.614337 
L 210.833136 183.019411 
L 211.511094 183.14287 
L 211.850074 183.301402 
L 212.528032 183.766376 
L 213.54497 184.349295 
L 214.561908 185.19313 
L 216.256805 185.876329 
L 217.612722 185.948771 
L 219.985578 185.825441 
L 221.002516 185.949965 
L 221.341495 186.202281 
L 222.019454 186.364386 
L 223.036392 186.773161 
L 223.71435 187.079411 
L 225.070268 187.322406 
L 226.087206 187.271904 
L 226.765164 187.136444 
L 227.443123 186.930419 
L 229.138019 186.687977 
L 230.493937 186.862389 
L 230.832916 187.015886 
L 231.171895 187.015886 
L 231.510875 187.264291 
L 234.222709 187.512533 
L 235.239647 187.336689 
L 235.578627 187.108242 
L 236.595565 186.943511 
L 237.612503 186.740108 
L 238.629441 186.710866 
L 239.985358 186.958875 
L 240.324337 187.092447 
L 240.663317 187.092447 
L 241.341275 187.280303 
L 242.358213 187.449435 
L 243.714131 187.395953 
L 246.086986 187.065265 
L 247.442903 187.017734 
L 248.459841 187.165753 
L 250.154738 187.507288 
L 250.832696 187.622889 
L 251.510655 187.738251 
L 252.866572 187.704714 
L 254.561469 187.359497 
L 255.578407 187.261196 
L 256.934324 187.282094 
L 259.646159 187.889851 
L 261.002076 187.959209 
L 262.357994 187.764865 
L 263.374931 187.562214 
L 264.391869 187.545618 
L 266.425745 187.816205 
L 268.120642 187.881865 
L 272.527373 187.794444 
L 273.544311 188.037965 
L 275.239208 188.092305 
L 275.917167 187.924772 
L 277.273084 187.576091 
L 277.612063 187.285731 
L 278.629001 187.056396 
L 280.323898 186.7593 
L 281.679815 186.893181 
L 283.374712 186.952529 
L 285.408588 186.523416 
L 285.747567 186.205753 
L 286.764505 185.970983 
L 287.781443 185.554423 
L 288.459402 185.27349 
L 288.798381 185.27349 
L 289.47634 185.074883 
L 290.832257 184.97485 
L 293.544092 185.052797 
L 294.56103 184.891672 
L 295.577968 184.536079 
L 296.594906 184.145634 
L 297.272864 183.820705 
L 298.289802 183.414513 
L 298.628782 183.179837 
L 298.967761 183.179837 
L 299.645719 182.897056 
L 300.662657 182.75061 
L 302.018575 182.870537 
L 303.374492 183.1202 
L 304.730409 183.135436 
L 305.408368 182.984493 
L 306.086327 182.758377 
L 306.764285 182.530144 
L 307.781223 182.171711 
L 308.120203 181.818132 
L 308.798161 181.634173 
L 311.171017 180.880487 
L 311.848975 180.943802 
L 314.899789 181.668991 
L 316.255707 181.576748 
L 318.628562 180.699046 
L 319.984479 180.108319 
L 321.340396 179.816491 
L 322.696314 179.952435 
L 324.73019 180.533837 
L 325.747128 180.648233 
L 326.764066 180.521029 
L 327.442024 180.296465 
L 328.119983 179.967771 
L 331.170797 179.150867 
L 332.187735 179.078091 
L 333.204673 179.155212 
L 335.577528 179.49545 
L 336.933445 179.539693 
L 339.64528 179.108381 
L 342.696094 178.75386 
L 344.390991 178.939117 
L 347.102825 179.070892 
L 352.187515 178.814665 
L 354.221391 179.075771 
L 356.255267 179.333493 
L 358.628122 179.411919 
L 362.356895 179.227027 
L 363.373833 179.292684 
L 365.06873 179.714004 
L 365.407709 179.714004 
L 365.746688 179.941176 
L 366.763626 180.123281 
L 367.102606 180.287455 
L 367.780564 180.392641 
L 369.475461 180.508847 
L 373.882192 180.41461 
L 376.255047 181.075112 
L 376.594027 181.198189 
L 376.933006 181.198189 
L 377.610965 181.42828 
L 379.644841 181.726552 
L 382.017696 181.572462 
L 383.373613 181.563418 
L 384.390551 181.745758 
L 384.729531 181.919651 
L 385.06851 181.919651 
L 385.746469 182.242933 
L 386.424427 182.544785 
L 386.763407 182.802922 
L 387.102386 182.802922 
L 387.780345 183.173557 
L 389.475241 183.625739 
L 390.492179 183.607353 
L 391.848096 183.451867 
L 393.204014 183.475828 
L 394.559931 183.756281 
L 396.932786 184.262184 
L 397.949724 184.152366 
L 398.966662 183.790215 
L 399.9836 183.379262 
L 400.661559 183.057247 
L 402.356456 182.662572 
L 404.051352 182.498081 
L 404.390332 182.253941 
L 405.06829 182.065974 
L 405.40727 181.914114 
L 406.085228 181.342881 
L 406.763187 180.677267 
L 407.441145 180.345408 
L 407.780125 179.922545 
L 409.475021 179.045005 
L 410.15298 178.84916 
L 411.508897 178.906631 
L 412.525835 178.950969 
L 413.542773 178.805554 
L 415.23767 177.742665 
L 415.576649 177.742665 
L 415.915629 177.430758 
L 417.610525 176.845671 
L 419.644401 176.543767 
L 421.000319 175.778242 
L 421.339298 175.351443 
L 421.678277 175.351443 
L 422.017257 174.906049 
L 423.712153 173.985619 
L 424.051133 173.828313 
L 424.729091 173.793626 
L 425.746029 174.009278 
L 426.423988 174.356521 
L 427.779905 174.715903 
L 428.457864 174.702707 
L 429.813781 174.235623 
L 430.49174 173.627256 
L 431.169698 172.908622 
L 431.847657 172.571998 
L 432.186636 172.169136 
L 432.186636 172.169136 
" clip-path="url(#pd2cb86bef9)" style="fill: none; stroke: #0000ff; stroke-width: 1.5; stroke-linecap: square"/>
   </g>
   <g id="patch_8">
    <path d="M 58.106 190.3975 
L 58.106 139.92 
" style="fill: none; stroke: #000000; stroke-width: 0.8; stroke-linejoin: miter; stroke-linecap: square"/>
   </g>
   <g id="patch_9">
    <path d="M 450 190.3975 
L 450 139.92 
" style="fill: none; stroke: #000000; stroke-width: 0.8; stroke-linejoin: miter; stroke-linecap: square"/>
   </g>
   <g id="patch_10">
    <path d="M 58.106 190.3975 
L 450 190.3975 
" style="fill: none; stroke: #000000; stroke-width: 0.8; stroke-linejoin: miter; stroke-linecap: square"/>
   </g>
   <g id="patch_11">
    <path d="M 58.106 139.92 
L 450 139.92 
" style="fill: none; stroke: #000000; stroke-width: 0.8; stroke-linejoin: miter; stroke-linecap: square"/>
   </g>
   <g id="text_23">
    <!-- Error in $z$-position -->
    <g transform="translate(200.773 133.92)scale(0.12 -0.12)">
     <use xlink:href="#DejaVuSans-45" transform="translate(0 0.015625)"/>
     <use xlink:href="#DejaVuSans-72" transform="translate(63.183594 0.015625)"/>
     <use xlink:href="#DejaVuSans-72" transform="translate(104.296875 0.015625)"/>
     <use xlink:href="#DejaVuSans-6f" transform="translate(145.410156 0.015625)"/>
     <use xlink:href="#DejaVuSans-72" transform="translate(206.591797 0.015625)"/>
     <use xlink:href="#DejaVuSans-20" transform="translate(247.705078 0.015625)"/>
     <use xlink:href="#DejaVuSans-69" transform="translate(279.492188 0.015625)"/>
     <use xlink:href="#DejaVuSans-6e" transform="translate(307.275391 0.015625)"/>
     <use xlink:href="#DejaVuSans-20" transform="translate(370.654297 0.015625)"/>
     <use xlink:href="#DejaVuSans-Oblique-7a" transform="translate(402.441406 0.015625)"/>
     <use xlink:href="#DejaVuSans-2d" transform="translate(454.931641 0.015625)"/>
     <use xlink:href="#DejaVuSans-70" transform="translate(491.015625 0.015625)"/>
     <use xlink:href="#DejaVuSans-6f" transform="translate(554.492188 0.015625)"/>
     <use xlink:href="#DejaVuSans-73" transform="translate(615.673828 0.015625)"/>
     <use xlink:href="#DejaVuSans-69" transform="translate(667.773438 0.015625)"/>
     <use xlink:href="#DejaVuSans-74" transform="translate(695.556641 0.015625)"/>
     <use xlink:href="#DejaVuSans-69" transform="translate(734.765625 0.015625)"/>
     <use xlink:href="#DejaVuSans-6f" transform="translate(762.548828 0.015625)"/>
     <use xlink:href="#DejaVuSans-6e" transform="translate(823.730469 0.015625)"/>
    </g>
   </g>
  </g>
  <g id="axes_3">
   <g id="patch_12">
    <path d="M 58.106 301.9975 
L 450 301.9975 
L 450 251.52 
L 58.106 251.52 
z
" style="fill: #ffffff"/>
   </g>
   <g id="matplotlib.axis_5">
    <g id="xtick_13">
     <g id="line2d_37">
      <path d="M 75.919364 301.9975 
L 75.919364 251.52 
" clip-path="url(#pf5462d7f5b)" style="fill: none; stroke: #b0b0b0; stroke-width: 0.8; stroke-linecap: square"/>
     </g>
     <g id="line2d_38">
      <g>
       <use xlink:href="#m35014f21e2" x="75.919364" y="301.9975" style="stroke: #000000; stroke-width: 0.8"/>
      </g>
     </g>
     <g id="text_24">
      <!-- 0 -->
      <g transform="translate(72.738114 316.595937)scale(0.1 -0.1)">
       <use xlink:href="#DejaVuSans-30"/>
      </g>
     </g>
    </g>
    <g id="xtick_14">
     <g id="line2d_39">
      <path d="M 143.650784 301.9975 
L 143.650784 251.52 
" clip-path="url(#pf5462d7f5b)" style="fill: none; stroke: #b0b0b0; stroke-width: 0.8; stroke-linecap: square"/>
     </g>
     <g id="line2d_40">
      <g>
       <use xlink:href="#m35014f21e2" x="143.650784" y="301.9975" style="stroke: #000000; stroke-width: 0.8"/>
      </g>
     </g>
     <g id="text_25">
      <!-- 2 -->
      <g transform="translate(140.469534 316.595937)scale(0.1 -0.1)">
       <use xlink:href="#DejaVuSans-32"/>
      </g>
     </g>
    </g>
    <g id="xtick_15">
     <g id="line2d_41">
      <path d="M 211.382205 301.9975 
L 211.382205 251.52 
" clip-path="url(#pf5462d7f5b)" style="fill: none; stroke: #b0b0b0; stroke-width: 0.8; stroke-linecap: square"/>
     </g>
     <g id="line2d_42">
      <g>
       <use xlink:href="#m35014f21e2" x="211.382205" y="301.9975" style="stroke: #000000; stroke-width: 0.8"/>
      </g>
     </g>
     <g id="text_26">
      <!-- 4 -->
      <g transform="translate(208.200955 316.595937)scale(0.1 -0.1)">
       <use xlink:href="#DejaVuSans-34"/>
      </g>
     </g>
    </g>
    <g id="xtick_16">
     <g id="line2d_43">
      <path d="M 279.113626 301.9975 
L 279.113626 251.52 
" clip-path="url(#pf5462d7f5b)" style="fill: none; stroke: #b0b0b0; stroke-width: 0.8; stroke-linecap: square"/>
     </g>
     <g id="line2d_44">
      <g>
       <use xlink:href="#m35014f21e2" x="279.113626" y="301.9975" style="stroke: #000000; stroke-width: 0.8"/>
      </g>
     </g>
     <g id="text_27">
      <!-- 6 -->
      <g transform="translate(275.932376 316.595937)scale(0.1 -0.1)">
       <use xlink:href="#DejaVuSans-36"/>
      </g>
     </g>
    </g>
    <g id="xtick_17">
     <g id="line2d_45">
      <path d="M 346.845046 301.9975 
L 346.845046 251.52 
" clip-path="url(#pf5462d7f5b)" style="fill: none; stroke: #b0b0b0; stroke-width: 0.8; stroke-linecap: square"/>
     </g>
     <g id="line2d_46">
      <g>
       <use xlink:href="#m35014f21e2" x="346.845046" y="301.9975" style="stroke: #000000; stroke-width: 0.8"/>
      </g>
     </g>
     <g id="text_28">
      <!-- 8 -->
      <g transform="translate(343.663796 316.595937)scale(0.1 -0.1)">
       <use xlink:href="#DejaVuSans-38"/>
      </g>
     </g>
    </g>
    <g id="xtick_18">
     <g id="line2d_47">
      <path d="M 414.576467 301.9975 
L 414.576467 251.52 
" clip-path="url(#pf5462d7f5b)" style="fill: none; stroke: #b0b0b0; stroke-width: 0.8; stroke-linecap: square"/>
     </g>
     <g id="line2d_48">
      <g>
       <use xlink:href="#m35014f21e2" x="414.576467" y="301.9975" style="stroke: #000000; stroke-width: 0.8"/>
      </g>
     </g>
     <g id="text_29">
      <!-- 10 -->
      <g transform="translate(408.213967 316.595937)scale(0.1 -0.1)">
       <use xlink:href="#DejaVuSans-31"/>
       <use xlink:href="#DejaVuSans-30" x="63.623047"/>
      </g>
     </g>
    </g>
    <g id="text_30">
     <!-- $t$ [s] -->
     <g transform="translate(243.953 330.274063)scale(0.1 -0.1)">
      <use xlink:href="#DejaVuSans-Oblique-74" transform="translate(0 0.015625)"/>
      <use xlink:href="#DejaVuSans-20" transform="translate(39.208984 0.015625)"/>
      <use xlink:href="#DejaVuSans-5b" transform="translate(70.996094 0.015625)"/>
      <use xlink:href="#DejaVuSans-73" transform="translate(110.009766 0.015625)"/>
      <use xlink:href="#DejaVuSans-5d" transform="translate(162.109375 0.015625)"/>
     </g>
    </g>
   </g>
   <g id="matplotlib.axis_6">
    <g id="ytick_6">
     <g id="line2d_49">
      <path d="M 58.106 292.570111 
L 450 292.570111 
" clip-path="url(#pf5462d7f5b)" style="fill: none; stroke: #b0b0b0; stroke-width: 0.8; stroke-linecap: square"/>
     </g>
     <g id="line2d_50">
      <g>
       <use xlink:href="#m82567016f0" x="58.106" y="292.570111" style="stroke: #000000; stroke-width: 0.8"/>
      </g>
     </g>
     <g id="text_31">
      <!-- −0.1 -->
      <g transform="translate(26.823188 296.369329)scale(0.1 -0.1)">
       <use xlink:href="#DejaVuSans-2212"/>
       <use xlink:href="#DejaVuSans-30" x="83.789062"/>
       <use xlink:href="#DejaVuSans-2e" x="147.412109"/>
       <use xlink:href="#DejaVuSans-31" x="179.199219"/>
      </g>
     </g>
    </g>
    <g id="ytick_7">
     <g id="line2d_51">
      <path d="M 58.106 277.51359 
L 450 277.51359 
" clip-path="url(#pf5462d7f5b)" style="fill: none; stroke: #b0b0b0; stroke-width: 0.8; stroke-linecap: square"/>
     </g>
     <g id="line2d_52">
      <g>
       <use xlink:href="#m82567016f0" x="58.106" y="277.51359" style="stroke: #000000; stroke-width: 0.8"/>
      </g>
     </g>
     <g id="text_32">
      <!-- 0.0 -->
      <g transform="translate(35.202875 281.312809)scale(0.1 -0.1)">
       <use xlink:href="#DejaVuSans-30"/>
       <use xlink:href="#DejaVuSans-2e" x="63.623047"/>
       <use xlink:href="#DejaVuSans-30" x="95.410156"/>
      </g>
     </g>
    </g>
    <g id="ytick_8">
     <g id="line2d_53">
      <path d="M 58.106 262.457069 
L 450 262.457069 
" clip-path="url(#pf5462d7f5b)" style="fill: none; stroke: #b0b0b0; stroke-width: 0.8; stroke-linecap: square"/>
     </g>
     <g id="line2d_54">
      <g>
       <use xlink:href="#m82567016f0" x="58.106" y="262.457069" style="stroke: #000000; stroke-width: 0.8"/>
      </g>
     </g>
     <g id="text_33">
      <!-- 0.1 -->
      <g transform="translate(35.202875 266.256288)scale(0.1 -0.1)">
       <use xlink:href="#DejaVuSans-30"/>
       <use xlink:href="#DejaVuSans-2e" x="63.623047"/>
       <use xlink:href="#DejaVuSans-31" x="95.410156"/>
      </g>
     </g>
    </g>
    <g id="text_34">
     <!-- $e_\theta$ [rad] -->
     <g transform="translate(20.7435 295.90875)rotate(-90)scale(0.1 -0.1)">
      <defs>
       <path id="DejaVuSans-Oblique-3b8" d="M 2913 2219 
L 925 2219 
Q 791 1284 928 888 
Q 1100 400 1566 400 
Q 2034 400 2391 891 
Q 2703 1322 2913 2219 
z
M 3009 2750 
Q 3094 3638 2984 3950 
Q 2813 4444 2353 4444 
Q 1875 4444 1525 3956 
Q 1250 3563 1034 2750 
L 3009 2750 
z
M 2444 4913 
Q 3194 4913 3494 4250 
Q 3794 3591 3566 2422 
Q 3341 1256 2781 594 
Q 2225 -72 1475 -72 
Q 722 -72 425 594 
Q 128 1256 353 2422 
Q 581 3591 1134 4250 
Q 1691 4913 2444 4913 
z
" transform="scale(0.015625)"/>
       <path id="DejaVuSans-61" d="M 2194 1759 
Q 1497 1759 1228 1600 
Q 959 1441 959 1056 
Q 959 750 1161 570 
Q 1363 391 1709 391 
Q 2188 391 2477 730 
Q 2766 1069 2766 1631 
L 2766 1759 
L 2194 1759 
z
M 3341 1997 
L 3341 0 
L 2766 0 
L 2766 531 
Q 2569 213 2275 61 
Q 1981 -91 1556 -91 
Q 1019 -91 701 211 
Q 384 513 384 1019 
Q 384 1609 779 1909 
Q 1175 2209 1959 2209 
L 2766 2209 
L 2766 2266 
Q 2766 2663 2505 2880 
Q 2244 3097 1772 3097 
Q 1472 3097 1187 3025 
Q 903 2953 641 2809 
L 641 3341 
Q 956 3463 1253 3523 
Q 1550 3584 1831 3584 
Q 2591 3584 2966 3190 
Q 3341 2797 3341 1997 
z
" transform="scale(0.015625)"/>
       <path id="DejaVuSans-64" d="M 2906 2969 
L 2906 4863 
L 3481 4863 
L 3481 0 
L 2906 0 
L 2906 525 
Q 2725 213 2448 61 
Q 2172 -91 1784 -91 
Q 1150 -91 751 415 
Q 353 922 353 1747 
Q 353 2572 751 3078 
Q 1150 3584 1784 3584 
Q 2172 3584 2448 3432 
Q 2725 3281 2906 2969 
z
M 947 1747 
Q 947 1113 1208 752 
Q 1469 391 1925 391 
Q 2381 391 2643 752 
Q 2906 1113 2906 1747 
Q 2906 2381 2643 2742 
Q 2381 3103 1925 3103 
Q 1469 3103 1208 2742 
Q 947 2381 947 1747 
z
" transform="scale(0.015625)"/>
      </defs>
      <use xlink:href="#DejaVuSans-Oblique-65" transform="translate(0 0.015625)"/>
      <use xlink:href="#DejaVuSans-Oblique-3b8" transform="translate(61.523438 -16.390625)scale(0.7)"/>
      <use xlink:href="#DejaVuSans-20" transform="translate(107.084961 0.015625)"/>
      <use xlink:href="#DejaVuSans-5b" transform="translate(138.87207 0.015625)"/>
      <use xlink:href="#DejaVuSans-72" transform="translate(177.885742 0.015625)"/>
      <use xlink:href="#DejaVuSans-61" transform="translate(218.999023 0.015625)"/>
      <use xlink:href="#DejaVuSans-64" transform="translate(280.27832 0.015625)"/>
      <use xlink:href="#DejaVuSans-5d" transform="translate(343.754883 0.015625)"/>
     </g>
    </g>
   </g>
   <g id="line2d_55">
    <path d="M 75.919364 277.60423 
L 76.258343 278.080856 
L 76.597322 278.080856 
L 76.936302 279.027484 
L 77.275281 279.484821 
L 77.61426 279.730722 
L 77.95324 279.529634 
L 79.648136 272.178689 
L 80.326095 266.360406 
L 80.665074 266.360406 
L 81.004054 263.454289 
L 82.359971 258.703715 
L 83.03793 258.645873 
L 83.376909 258.94904 
L 83.715888 259.455115 
L 84.054867 260.577085 
L 84.393847 262.686016 
L 84.732826 262.686016 
L 85.071805 265.342216 
L 85.749764 268.377203 
L 86.088743 270.869636 
L 86.427723 274.497491 
L 86.766702 274.497491 
L 87.105681 278.422959 
L 87.78364 282.583554 
L 88.461599 289.67626 
L 88.800578 289.67626 
L 89.139557 293.069934 
L 90.495475 298.398888 
L 90.834454 298.398888 
L 91.173433 299.247071 
L 91.851392 299.703068 
L 92.190371 299.596933 
L 92.529351 299.086921 
L 92.86833 299.086921 
L 93.885268 293.733217 
L 94.224247 290.769565 
L 94.563227 289.708882 
L 94.902206 287.518129 
L 95.580165 279.644046 
L 95.919144 276.422734 
L 96.258123 275.378912 
L 96.936082 271.443256 
L 97.275061 267.888044 
L 97.614041 266.310103 
L 98.291999 262.420873 
L 98.630979 261.917342 
L 99.308937 259.929367 
L 99.647917 259.653265 
L 99.986896 259.541592 
L 101.003834 260.006833 
L 101.342813 260.638883 
L 101.681792 261.030863 
L 102.359751 262.476669 
L 102.69873 262.754171 
L 103.03771 263.337204 
L 103.376689 264.600851 
L 103.715668 265.277048 
L 104.393627 267.447156 
L 104.732606 267.828413 
L 105.071586 268.607984 
L 105.410565 270.25498 
L 106.088524 272.067095 
L 106.427503 273.576168 
L 106.766482 275.823489 
L 107.105462 275.823489 
L 107.444441 278.302313 
L 108.461379 282.318178 
L 109.478317 288.257002 
L 110.834234 292.5216 
L 111.173214 292.5216 
L 111.512193 292.354213 
L 111.851172 291.892747 
L 112.529131 290.354246 
L 112.86811 288.810765 
L 113.20709 286.444985 
L 114.224028 282.659416 
L 114.901986 278.423214 
L 115.240966 278.423214 
L 115.579945 276.430648 
L 116.257904 275.061527 
L 116.596883 274.681639 
L 116.935862 274.523704 
L 117.9528 276.374797 
L 118.29178 277.20968 
L 118.969738 280.416499 
L 119.308717 280.416499 
L 119.647697 282.039532 
L 120.664635 284.093449 
L 121.003614 284.622494 
L 121.681573 284.633593 
L 122.359531 284.178571 
L 122.698511 283.771789 
L 123.03749 282.943327 
L 123.376469 281.458384 
L 124.393407 278.544875 
L 124.732387 276.853625 
L 125.071366 274.427663 
L 125.410345 274.427663 
L 125.749325 271.881673 
L 126.088304 270.577177 
L 126.766263 266.723687 
L 127.105242 266.105428 
L 127.444221 264.894005 
L 127.783201 262.62419 
L 128.800139 259.327758 
L 129.139118 258.003994 
L 129.478097 258.003994 
L 129.817077 257.165306 
L 130.156056 256.952236 
L 130.495035 256.882696 
L 130.834015 256.973465 
L 131.172994 257.425372 
L 131.850953 259.351983 
L 132.528911 261.092065 
L 133.20687 264.094863 
L 133.545849 264.094863 
L 133.884829 265.501249 
L 135.240746 267.922837 
L 135.579725 267.922837 
L 135.918705 268.319494 
L 138.630539 269.537614 
L 139.647477 270.267137 
L 141.342374 270.747305 
L 141.681353 270.747305 
L 143.03727 271.498561 
L 143.37625 272.017685 
L 143.715229 272.017685 
L 144.054208 272.717296 
L 144.732167 273.622929 
L 145.071146 274.44226 
L 145.410126 275.684399 
L 145.749105 275.684399 
L 146.088084 277.070046 
L 146.766043 278.548786 
L 147.444002 281.008688 
L 147.782981 281.008688 
L 148.12196 282.224332 
L 149.477878 284.243605 
L 149.816857 284.656397 
L 150.833795 284.929789 
L 151.511754 284.884873 
L 151.850733 284.884873 
L 153.20665 283.974755 
L 155.240526 279.563319 
L 155.579505 277.545901 
L 155.918485 277.545901 
L 156.257464 276.064454 
L 158.29134 272.138931 
L 158.630319 271.969753 
L 159.308278 271.223636 
L 159.647257 270.296449 
L 159.986237 269.726086 
L 160.664195 267.415018 
L 161.003175 265.922834 
L 161.342154 265.922834 
L 161.681133 263.682428 
L 162.359092 261.293578 
L 163.37603 256.527416 
L 164.053989 255.038848 
L 164.731947 253.959866 
L 165.070927 253.814432 
L 165.748885 254.119449 
L 166.087865 254.378512 
L 166.765823 255.361183 
L 167.104803 255.537487 
L 167.443782 255.879584 
L 167.782761 256.504358 
L 169.138679 257.47986 
L 170.155617 258.023163 
L 171.511534 258.936126 
L 171.850513 259.63535 
L 172.528472 260.531346 
L 172.867451 261.305034 
L 173.20643 262.417959 
L 173.54541 262.417959 
L 173.884389 263.535363 
L 174.901327 265.321569 
L 175.240306 266.039797 
L 175.579286 266.039797 
L 175.918265 266.532814 
L 177.274182 267.206574 
L 177.613162 267.206574 
L 178.969079 267.786287 
L 179.308058 268.16006 
L 179.647038 268.838076 
L 180.663976 270.159358 
L 182.358872 272.395667 
L 183.036831 272.443038 
L 183.37581 272.384077 
L 184.731728 271.76261 
L 185.070707 271.772867 
L 185.409686 272.074206 
L 185.748666 272.074206 
L 186.087645 273.595855 
L 186.426624 274.00332 
L 187.104583 276.074272 
L 188.121521 283.28227 
L 188.4605 284.051439 
L 189.477438 288.840366 
L 189.816418 288.840366 
L 190.155397 289.216246 
L 190.494376 288.996542 
L 190.833356 288.347754 
L 191.172335 287.455207 
L 191.511314 285.101058 
L 191.850293 285.101058 
L 192.189273 280.781526 
L 192.528252 280.051475 
L 193.884169 274.553041 
L 194.223149 273.381235 
L 194.562128 273.209882 
L 194.901107 273.319788 
L 195.240087 273.710934 
L 195.579066 275.776634 
L 195.918045 275.776634 
L 196.257025 278.27734 
L 198.290901 286.2699 
L 198.62988 286.214633 
L 198.968859 285.821057 
L 199.307839 285.102812 
L 199.646818 282.124994 
L 199.985797 282.124994 
L 200.324777 278.838412 
L 201.680694 271.568828 
L 202.697632 264.86444 
L 203.375591 263.045399 
L 203.71457 262.394177 
L 204.053549 262.637966 
L 204.392529 263.230374 
L 205.070487 265.196158 
L 205.409467 266.483538 
L 205.748446 268.655783 
L 206.087425 271.721589 
L 207.104363 275.90648 
L 207.782322 277.929651 
L 208.121301 277.971591 
L 208.460281 277.444678 
L 209.138239 275.471325 
L 209.477218 274.115372 
L 209.816198 271.76887 
L 210.155177 268.36814 
L 211.850074 259.529723 
L 212.189053 257.342182 
L 212.528032 256.605569 
L 212.867012 256.158636 
L 213.205991 256.023181 
L 213.54497 256.203884 
L 213.88395 257.0796 
L 214.222929 259.258983 
L 215.239867 264.037052 
L 215.578846 265.833807 
L 216.595784 273.498696 
L 217.612722 277.277598 
L 217.951702 277.72152 
L 218.290681 277.41848 
L 218.62966 276.79662 
L 218.96864 275.90515 
L 219.646598 272.205257 
L 219.985578 271.501179 
L 220.324557 270.082362 
L 220.663536 267.321369 
L 221.002516 267.321369 
L 221.341495 263.836571 
L 221.680474 263.376613 
L 222.358433 262.027868 
L 222.697412 261.782284 
L 223.036392 262.03866 
L 224.731288 269.409821 
L 225.748226 277.171328 
L 226.765164 281.485651 
L 227.104143 282.533539 
L 227.443123 282.575026 
L 227.782102 282.329336 
L 228.121081 281.828471 
L 228.79904 280.212523 
L 229.138019 278.612493 
L 229.476999 276.189104 
L 230.493937 272.542264 
L 230.832916 270.39699 
L 231.171895 270.39699 
L 231.510875 268.383851 
L 232.188833 268.196019 
L 232.527813 268.411298 
L 232.866792 269.677095 
L 233.205771 269.677095 
L 233.544751 273.218611 
L 233.88373 273.932234 
L 234.561689 276.914747 
L 234.900668 279.774528 
L 235.239647 279.774528 
L 235.578627 282.93949 
L 235.917606 283.29169 
L 236.256585 283.824001 
L 236.595565 284.10101 
L 236.934544 283.807805 
L 237.273523 283.24373 
L 237.951482 280.173688 
L 238.290461 278.098241 
L 238.629441 278.098241 
L 238.96842 275.074243 
L 239.646379 271.980471 
L 240.324337 267.22958 
L 240.663317 267.22958 
L 241.002296 265.454493 
L 241.341275 264.999041 
L 241.680255 264.917814 
L 242.019234 265.588854 
L 242.358213 266.927648 
L 242.697193 266.927648 
L 243.036172 269.475065 
L 243.714131 272.46914 
L 244.392089 277.263057 
L 245.070048 279.007638 
L 245.409027 279.490864 
L 245.748006 279.691326 
L 246.086986 279.423039 
L 247.781882 272.852241 
L 248.79882 265.771877 
L 249.476779 263.024685 
L 250.154738 260.846986 
L 250.493717 260.728274 
L 250.832696 260.728274 
L 251.510655 263.172769 
L 252.188614 267.626625 
L 252.527593 270.128669 
L 252.866572 270.128669 
L 253.205552 273.371155 
L 254.22249 277.407586 
L 254.561469 277.671893 
L 254.900448 277.671893 
L 255.578407 276.333645 
L 256.595345 272.522056 
L 256.934324 271.200735 
L 257.273304 268.404353 
L 257.612283 267.030574 
L 258.290242 263.42967 
L 258.629221 262.244337 
L 258.9682 262.244337 
L 259.30718 261.803696 
L 259.646159 262.130855 
L 259.985138 262.811616 
L 260.324118 264.41056 
L 260.663097 267.351336 
L 263.035952 279.567289 
L 263.374931 280.023573 
L 263.713911 280.22727 
L 264.05289 280.198157 
L 264.391869 279.939702 
L 264.730849 278.326748 
L 265.069828 278.326748 
L 265.408807 276.138431 
L 266.764725 270.543578 
L 267.442683 266.246904 
L 267.781663 265.456469 
L 268.120642 264.973909 
L 268.459621 264.82531 
L 268.798601 265.003865 
L 269.13758 265.882036 
L 269.476559 268.035073 
L 270.493497 272.464035 
L 270.832477 274.066425 
L 271.510435 279.084371 
L 272.188394 281.091584 
L 272.866353 282.270847 
L 273.205332 282.270847 
L 273.544311 280.766694 
L 273.883291 280.281945 
L 274.561249 277.867383 
L 274.900229 274.890756 
L 275.239208 274.890756 
L 275.578187 270.210399 
L 275.917167 269.444196 
L 276.934105 265.181347 
L 277.273084 265.181347 
L 277.951043 265.694361 
L 278.629001 267.595029 
L 278.967981 268.876876 
L 279.30696 271.10959 
L 279.645939 274.40158 
L 281.679815 284.296084 
L 282.018794 284.403432 
L 282.357774 284.124333 
L 282.696753 283.488131 
L 283.035732 281.294426 
L 283.374712 281.294426 
L 283.713691 276.509439 
L 284.05267 275.602011 
L 284.730629 271.879127 
L 285.069608 268.245647 
L 285.408588 268.245647 
L 285.747567 263.587243 
L 286.086546 262.976057 
L 286.764505 261.181039 
L 287.103484 260.771608 
L 287.442464 261.118717 
L 287.781443 262.30118 
L 288.459402 266.516616 
L 288.798381 266.516616 
L 289.13736 270.163853 
L 289.815319 274.092036 
L 290.493278 280.586845 
L 290.832257 280.586845 
L 291.171236 283.475168 
L 291.849195 285.214224 
L 292.188174 285.538585 
L 292.527154 284.600044 
L 292.866133 284.600044 
L 293.544092 280.736225 
L 294.22205 277.145021 
L 294.56103 274.211863 
L 294.900009 270.213557 
L 296.594906 260.836088 
L 296.933885 259.216514 
L 297.272864 258.962924 
L 297.611844 259.100644 
L 297.950823 259.607526 
L 298.289802 261.018969 
L 298.628782 263.885401 
L 298.967761 263.885401 
L 299.30674 267.507096 
L 300.323678 273.539618 
L 301.340616 281.893782 
L 302.357554 285.877439 
L 302.696533 286.274624 
L 303.035513 286.274624 
L 303.713471 284.050381 
L 304.39143 279.40997 
L 304.730409 278.509502 
L 305.069389 276.639642 
L 305.408368 272.759518 
L 305.747347 270.816354 
L 306.425306 265.275726 
L 306.764285 264.424836 
L 307.103265 262.860279 
L 307.442244 260.518806 
L 307.781223 260.518806 
L 308.120203 259.646433 
L 308.459182 259.827866 
L 308.798161 260.452828 
L 309.137141 261.405926 
L 309.47612 264.096621 
L 309.815099 265.756088 
L 310.493058 271.394812 
L 310.832037 272.376275 
L 311.171017 274.327405 
L 311.509996 278.058908 
L 312.187955 282.646915 
L 312.526934 283.24261 
L 313.204893 285.036818 
L 313.543872 285.575934 
L 313.882851 285.315237 
L 314.221831 284.303437 
L 314.899789 280.525945 
L 315.238769 280.525945 
L 315.577748 277.215296 
L 316.255707 273.636494 
L 316.933665 267.510526 
L 317.272644 267.510526 
L 317.611624 264.657574 
L 318.289582 262.808916 
L 318.628562 262.366925 
L 318.967541 262.364712 
L 320.323458 267.241607 
L 320.662438 268.827805 
L 321.001417 271.35108 
L 321.340396 274.817609 
L 323.035293 282.774172 
L 323.374272 284.241202 
L 323.713252 284.614322 
L 324.052231 284.7137 
L 324.39121 284.536909 
L 324.73019 284.086128 
L 325.069169 283.363275 
L 325.408148 281.818134 
L 325.747128 279.065948 
L 327.103045 272.189753 
L 328.119983 264.871298 
L 328.797942 262.774619 
L 329.136921 262.115098 
L 329.4759 261.699839 
L 330.153859 263.091759 
L 330.831818 265.478232 
L 331.848756 274.169678 
L 332.187735 275.106218 
L 332.865694 278.713336 
L 333.204673 281.847 
L 333.882632 284.860467 
L 334.89957 285.700924 
L 335.577528 284.174944 
L 336.933445 277.523159 
L 337.272425 273.800837 
L 337.611404 271.930161 
L 338.289363 266.748425 
L 338.628342 265.985783 
L 338.967321 264.630314 
L 339.306301 262.770988 
L 339.64528 262.345396 
L 339.984259 262.284341 
L 340.323239 262.861484 
L 340.662218 264.723766 
L 341.001197 264.723766 
L 342.018135 272.805616 
L 342.357115 273.730717 
L 343.713032 281.570579 
L 344.052011 284.202934 
L 344.72997 285.983753 
L 345.068949 286.488763 
L 345.407929 286.680924 
L 345.746908 286.345732 
L 347.102825 280.299643 
L 347.780784 273.705721 
L 348.119763 270.841565 
L 348.458743 269.912066 
L 349.136701 266.369059 
L 349.475681 263.502946 
L 350.153639 261.51524 
L 350.492619 261.30788 
L 350.831598 261.869285 
L 351.170577 261.869285 
L 351.848536 265.058287 
L 352.187515 266.580759 
L 352.526495 269.095976 
L 352.865474 272.739035 
L 353.204453 272.739035 
L 353.543432 276.375546 
L 354.56037 282.05884 
L 354.89935 284.10804 
L 355.238329 284.68035 
L 355.577308 284.912472 
L 355.916288 284.814734 
L 356.255267 284.398885 
L 356.594246 283.672169 
L 356.933226 282.074306 
L 357.272205 279.217223 
L 358.628122 272.390233 
L 359.64506 265.555429 
L 360.323019 263.652893 
L 360.661998 263.102319 
L 361.339957 263.16984 
L 362.695874 268.938361 
L 363.034854 273.361131 
L 363.373833 273.361131 
L 363.712812 277.12111 
L 364.72975 282.53777 
L 365.06873 285.34866 
L 365.407709 285.34866 
L 365.746688 287.556747 
L 366.085668 287.647233 
L 366.424647 287.578755 
L 366.763626 287.174967 
L 367.102606 284.775213 
L 367.441585 284.775213 
L 367.780564 281.714748 
L 368.797502 276.081694 
L 369.136482 272.157276 
L 369.475461 272.157276 
L 369.81444 266.735261 
L 370.15342 265.941222 
L 371.170357 262.144558 
L 371.509337 262.103993 
L 371.848316 262.74126 
L 372.187295 264.099872 
L 372.526275 266.03989 
L 372.865254 266.03989 
L 373.204233 269.228777 
L 373.543213 270.962542 
L 374.560151 278.984538 
L 374.89913 278.984538 
L 375.238109 282.245242 
L 376.255047 286.488478 
L 376.594027 286.758267 
L 376.933006 286.758267 
L 377.610965 285.007279 
L 377.949944 283.835315 
L 378.288923 281.657512 
L 378.627903 278.231574 
L 379.644841 272.615737 
L 380.322799 267.480273 
L 380.661779 265.485598 
L 381.000758 265.485598 
L 381.339737 263.762603 
L 381.678717 263.366831 
L 382.017696 263.393968 
L 382.356675 264.145455 
L 382.695655 265.506635 
L 383.034634 265.506635 
L 383.373613 268.032826 
L 384.051572 270.933833 
L 384.729531 276.055655 
L 385.06851 276.055655 
L 385.407489 278.648734 
L 386.763407 283.001311 
L 387.441365 283.06477 
L 387.780345 282.786795 
L 388.119324 282.321934 
L 388.458303 281.327129 
L 388.797283 279.577459 
L 390.492179 274.517051 
L 390.831158 273.349557 
L 391.509117 272.642666 
L 392.187076 272.295362 
L 392.526055 272.242358 
L 392.865034 272.679345 
L 393.204014 272.679345 
L 393.542993 272.956725 
L 393.881972 272.956725 
L 394.220952 274.010455 
L 394.559931 274.205253 
L 395.23789 274.987855 
L 395.576869 275.725365 
L 395.915848 275.725365 
L 396.254828 276.673248 
L 396.932786 277.034911 
L 397.949724 277.552729 
L 398.627683 277.668288 
L 399.644621 277.635922 
L 399.9836 277.532781 
L 401.000538 276.726109 
L 401.339518 276.446951 
L 401.678497 275.860895 
L 402.017476 275.860895 
L 402.356456 274.823021 
L 402.695435 274.612718 
L 403.373394 273.612793 
L 403.712373 272.319897 
L 404.051352 272.319897 
L 404.390332 269.809485 
L 404.729311 269.333229 
L 405.40727 267.332021 
L 405.746249 265.367332 
L 406.763187 262.927656 
L 407.102166 262.864274 
L 407.441145 262.931186 
L 408.119104 264.642894 
L 408.797063 268.003913 
L 409.136042 268.65983 
L 409.475021 270.002267 
L 410.15298 274.853764 
L 410.491959 276.843138 
L 410.830939 277.484249 
L 411.847877 281.488671 
L 412.186856 281.932828 
L 412.525835 282.022808 
L 412.864815 281.441638 
L 413.203794 281.109914 
L 413.542773 280.262629 
L 413.881753 277.989018 
L 414.559711 275.274853 
L 415.23767 271.029779 
L 415.576649 271.029779 
L 415.915629 269.472431 
L 416.593587 268.647729 
L 416.932567 268.520163 
L 417.271546 268.70223 
L 418.627463 272.005196 
L 418.966443 273.519239 
L 419.305422 275.736701 
L 419.644401 275.736701 
L 419.983381 278.04006 
L 420.661339 280.342496 
L 421.339298 283.817173 
L 421.678277 283.817173 
L 422.017257 285.082335 
L 422.695215 285.642996 
L 423.373174 285.357393 
L 423.712153 285.018015 
L 424.051133 284.057769 
L 424.729091 282.951678 
L 425.40705 281.368549 
L 425.746029 281.368549 
L 426.085008 280.697594 
L 426.762967 279.904901 
L 427.440926 278.193355 
L 427.779905 278.193355 
L 428.118884 277.402325 
L 428.796843 276.92153 
L 429.474802 277.017632 
L 429.813781 277.207489 
L 430.15276 277.780963 
L 430.49174 278.12445 
L 431.169698 279.141843 
L 431.847657 279.469696 
L 432.186636 279.405403 
L 432.186636 279.405403 
" clip-path="url(#pf5462d7f5b)" style="fill: none; stroke: #008000; stroke-width: 1.5; stroke-linecap: square"/>
   </g>
   <g id="patch_13">
    <path d="M 58.106 301.9975 
L 58.106 251.52 
" style="fill: none; stroke: #000000; stroke-width: 0.8; stroke-linejoin: miter; stroke-linecap: square"/>
   </g>
   <g id="patch_14">
    <path d="M 450 301.9975 
L 450 251.52 
" style="fill: none; stroke: #000000; stroke-width: 0.8; stroke-linejoin: miter; stroke-linecap: square"/>
   </g>
   <g id="patch_15">
    <path d="M 58.106 301.9975 
L 450 301.9975 
" style="fill: none; stroke: #000000; stroke-width: 0.8; stroke-linejoin: miter; stroke-linecap: square"/>
   </g>
   <g id="patch_16">
    <path d="M 58.106 251.52 
L 450 251.52 
" style="fill: none; stroke: #000000; stroke-width: 0.8; stroke-linejoin: miter; stroke-linecap: square"/>
   </g>
   <g id="text_35">
    <!-- Error in swing angle -->
    <g transform="translate(194.282688 245.52)scale(0.12 -0.12)">
     <defs>
      <path id="DejaVuSans-77" d="M 269 3500 
L 844 3500 
L 1563 769 
L 2278 3500 
L 2956 3500 
L 3675 769 
L 4391 3500 
L 4966 3500 
L 4050 0 
L 3372 0 
L 2619 2869 
L 1863 0 
L 1184 0 
L 269 3500 
z
" transform="scale(0.015625)"/>
      <path id="DejaVuSans-67" d="M 2906 1791 
Q 2906 2416 2648 2759 
Q 2391 3103 1925 3103 
Q 1463 3103 1205 2759 
Q 947 2416 947 1791 
Q 947 1169 1205 825 
Q 1463 481 1925 481 
Q 2391 481 2648 825 
Q 2906 1169 2906 1791 
z
M 3481 434 
Q 3481 -459 3084 -895 
Q 2688 -1331 1869 -1331 
Q 1566 -1331 1297 -1286 
Q 1028 -1241 775 -1147 
L 775 -588 
Q 1028 -725 1275 -790 
Q 1522 -856 1778 -856 
Q 2344 -856 2625 -561 
Q 2906 -266 2906 331 
L 2906 616 
Q 2728 306 2450 153 
Q 2172 0 1784 0 
Q 1141 0 747 490 
Q 353 981 353 1791 
Q 353 2603 747 3093 
Q 1141 3584 1784 3584 
Q 2172 3584 2450 3431 
Q 2728 3278 2906 2969 
L 2906 3500 
L 3481 3500 
L 3481 434 
z
" transform="scale(0.015625)"/>
      <path id="DejaVuSans-6c" d="M 603 4863 
L 1178 4863 
L 1178 0 
L 603 0 
L 603 4863 
z
" transform="scale(0.015625)"/>
      <path id="DejaVuSans-65" d="M 3597 1894 
L 3597 1613 
L 953 1613 
Q 991 1019 1311 708 
Q 1631 397 2203 397 
Q 2534 397 2845 478 
Q 3156 559 3463 722 
L 3463 178 
Q 3153 47 2828 -22 
Q 2503 -91 2169 -91 
Q 1331 -91 842 396 
Q 353 884 353 1716 
Q 353 2575 817 3079 
Q 1281 3584 2069 3584 
Q 2775 3584 3186 3129 
Q 3597 2675 3597 1894 
z
M 3022 2063 
Q 3016 2534 2758 2815 
Q 2500 3097 2075 3097 
Q 1594 3097 1305 2825 
Q 1016 2553 972 2059 
L 3022 2063 
z
" transform="scale(0.015625)"/>
     </defs>
     <use xlink:href="#DejaVuSans-45"/>
     <use xlink:href="#DejaVuSans-72" x="63.183594"/>
     <use xlink:href="#DejaVuSans-72" x="102.546875"/>
     <use xlink:href="#DejaVuSans-6f" x="141.410156"/>
     <use xlink:href="#DejaVuSans-72" x="202.591797"/>
     <use xlink:href="#DejaVuSans-20" x="243.705078"/>
     <use xlink:href="#DejaVuSans-69" x="275.492188"/>
     <use xlink:href="#DejaVuSans-6e" x="303.275391"/>
     <use xlink:href="#DejaVuSans-20" x="366.654297"/>
     <use xlink:href="#DejaVuSans-73" x="398.441406"/>
     <use xlink:href="#DejaVuSans-77" x="450.541016"/>
     <use xlink:href="#DejaVuSans-69" x="532.328125"/>
     <use xlink:href="#DejaVuSans-6e" x="560.111328"/>
     <use xlink:href="#DejaVuSans-67" x="623.490234"/>
     <use xlink:href="#DejaVuSans-20" x="686.966797"/>
     <use xlink:href="#DejaVuSans-61" x="718.753906"/>
     <use xlink:href="#DejaVuSans-6e" x="780.033203"/>
     <use xlink:href="#DejaVuSans-67" x="843.412109"/>
     <use xlink:href="#DejaVuSans-6c" x="906.888672"/>
     <use xlink:href="#DejaVuSans-65" x="934.671875"/>
    </g>
   </g>
  </g>
 </g>
 <defs>
  <clipPath id="p040949d89e">
   <rect x="58.106" y="28.32" width="391.894" height="50.4775"/>
  </clipPath>
  <clipPath id="pd2cb86bef9">
   <rect x="58.106" y="139.92" width="391.894" height="50.4775"/>
  </clipPath>
  <clipPath id="pf5462d7f5b">
   <rect x="58.106" y="251.52" width="391.894" height="50.4775"/>
  </clipPath>
 </defs>
</svg>
