<?xml version="1.0" encoding="utf-8" standalone="no"?>
<!DOCTYPE svg PUBLIC "-//W3C//DTD SVG 1.1//EN"
  "http://www.w3.org/Graphics/SVG/1.1/DTD/svg11.dtd">
<svg xmlns:xlink="http://www.w3.org/1999/xlink" width="460.8pt" height="345.6pt" viewBox="0 0 460.8 345.6" xmlns="http://www.w3.org/2000/svg" version="1.1">
 <metadata>
  <rdf:RDF xmlns:dc="http://purl.org/dc/elements/1.1/" xmlns:cc="http://creativecommons.org/ns#" xmlns:rdf="http://www.w3.org/1999/02/22-rdf-syntax-ns#">
   <cc:Work>
    <dc:type rdf:resource="http://purl.org/dc/dcmitype/StillImage"/>
    <dc:date>2022-06-05T14:14:19.858222</dc:date>
    <dc:format>image/svg+xml</dc:format>
    <dc:creator>
     <cc:Agent>
      <dc:title>Matplotlib v3.5.1, https://matplotlib.org/</dc:title>
     </cc:Agent>
    </dc:creator>
   </cc:Work>
  </rdf:RDF>
 </metadata>
 <defs>
  <style type="text/css">*{stroke-linejoin: round; stroke-linecap: butt}</style>
 </defs>
 <g id="figure_1">
  <g id="patch_1">
   <path d="M 0 345.6 
L 460.8 345.6 
L 460.8 0 
L 0 0 
z
" style="fill: #ffffff"/>
  </g>
  <g id="axes_1">
   <g id="patch_2">
    <path d="M 58.106 78.7975 
L 450 78.7975 
L 450 28.32 
L 58.106 28.32 
z
" style="fill: #ffffff"/>
   </g>
   <g id="matplotlib.axis_1">
    <g id="xtick_1">
     <g id="line2d_1">
      <path d="M 75.919364 78.7975 
L 75.919364 28.32 
" clip-path="url(#p1d9b023cb3)" style="fill: none; stroke: #b0b0b0; stroke-width: 0.8; stroke-linecap: square"/>
     </g>
     <g id="line2d_2">
      <defs>
       <path id="m8e7c97886c" d="M 0 0 
L 0 3.5 
" style="stroke: #000000; stroke-width: 0.8"/>
      </defs>
      <g>
       <use xlink:href="#m8e7c97886c" x="75.919364" y="78.7975" style="stroke: #000000; stroke-width: 0.8"/>
      </g>
     </g>
     <g id="text_1">
      <!-- 0 -->
      <g transform="translate(72.738114 93.395937)scale(0.1 -0.1)">
       <defs>
        <path id="DejaVuSans-30" d="M 2034 4250 
Q 1547 4250 1301 3770 
Q 1056 3291 1056 2328 
Q 1056 1369 1301 889 
Q 1547 409 2034 409 
Q 2525 409 2770 889 
Q 3016 1369 3016 2328 
Q 3016 3291 2770 3770 
Q 2525 4250 2034 4250 
z
M 2034 4750 
Q 2819 4750 3233 4129 
Q 3647 3509 3647 2328 
Q 3647 1150 3233 529 
Q 2819 -91 2034 -91 
Q 1250 -91 836 529 
Q 422 1150 422 2328 
Q 422 3509 836 4129 
Q 1250 4750 2034 4750 
z
" transform="scale(0.015625)"/>
       </defs>
       <use xlink:href="#DejaVuSans-30"/>
      </g>
     </g>
    </g>
    <g id="xtick_2">
     <g id="line2d_3">
      <path d="M 130.519712 78.7975 
L 130.519712 28.32 
" clip-path="url(#p1d9b023cb3)" style="fill: none; stroke: #b0b0b0; stroke-width: 0.8; stroke-linecap: square"/>
     </g>
     <g id="line2d_4">
      <g>
       <use xlink:href="#m8e7c97886c" x="130.519712" y="78.7975" style="stroke: #000000; stroke-width: 0.8"/>
      </g>
     </g>
     <g id="text_2">
      <!-- 2 -->
      <g transform="translate(127.338462 93.395937)scale(0.1 -0.1)">
       <defs>
        <path id="DejaVuSans-32" d="M 1228 531 
L 3431 531 
L 3431 0 
L 469 0 
L 469 531 
Q 828 903 1448 1529 
Q 2069 2156 2228 2338 
Q 2531 2678 2651 2914 
Q 2772 3150 2772 3378 
Q 2772 3750 2511 3984 
Q 2250 4219 1831 4219 
Q 1534 4219 1204 4116 
Q 875 4013 500 3803 
L 500 4441 
Q 881 4594 1212 4672 
Q 1544 4750 1819 4750 
Q 2544 4750 2975 4387 
Q 3406 4025 3406 3419 
Q 3406 3131 3298 2873 
Q 3191 2616 2906 2266 
Q 2828 2175 2409 1742 
Q 1991 1309 1228 531 
z
" transform="scale(0.015625)"/>
       </defs>
       <use xlink:href="#DejaVuSans-32"/>
      </g>
     </g>
    </g>
    <g id="xtick_3">
     <g id="line2d_5">
      <path d="M 185.12006 78.7975 
L 185.12006 28.32 
" clip-path="url(#p1d9b023cb3)" style="fill: none; stroke: #b0b0b0; stroke-width: 0.8; stroke-linecap: square"/>
     </g>
     <g id="line2d_6">
      <g>
       <use xlink:href="#m8e7c97886c" x="185.12006" y="78.7975" style="stroke: #000000; stroke-width: 0.8"/>
      </g>
     </g>
     <g id="text_3">
      <!-- 4 -->
      <g transform="translate(181.93881 93.395937)scale(0.1 -0.1)">
       <defs>
        <path id="DejaVuSans-34" d="M 2419 4116 
L 825 1625 
L 2419 1625 
L 2419 4116 
z
M 2253 4666 
L 3047 4666 
L 3047 1625 
L 3713 1625 
L 3713 1100 
L 3047 1100 
L 3047 0 
L 2419 0 
L 2419 1100 
L 313 1100 
L 313 1709 
L 2253 4666 
z
" transform="scale(0.015625)"/>
       </defs>
       <use xlink:href="#DejaVuSans-34"/>
      </g>
     </g>
    </g>
    <g id="xtick_4">
     <g id="line2d_7">
      <path d="M 239.720409 78.7975 
L 239.720409 28.32 
" clip-path="url(#p1d9b023cb3)" style="fill: none; stroke: #b0b0b0; stroke-width: 0.8; stroke-linecap: square"/>
     </g>
     <g id="line2d_8">
      <g>
       <use xlink:href="#m8e7c97886c" x="239.720409" y="78.7975" style="stroke: #000000; stroke-width: 0.8"/>
      </g>
     </g>
     <g id="text_4">
      <!-- 6 -->
      <g transform="translate(236.539159 93.395937)scale(0.1 -0.1)">
       <defs>
        <path id="DejaVuSans-36" d="M 2113 2584 
Q 1688 2584 1439 2293 
Q 1191 2003 1191 1497 
Q 1191 994 1439 701 
Q 1688 409 2113 409 
Q 2538 409 2786 701 
Q 3034 994 3034 1497 
Q 3034 2003 2786 2293 
Q 2538 2584 2113 2584 
z
M 3366 4563 
L 3366 3988 
Q 3128 4100 2886 4159 
Q 2644 4219 2406 4219 
Q 1781 4219 1451 3797 
Q 1122 3375 1075 2522 
Q 1259 2794 1537 2939 
Q 1816 3084 2150 3084 
Q 2853 3084 3261 2657 
Q 3669 2231 3669 1497 
Q 3669 778 3244 343 
Q 2819 -91 2113 -91 
Q 1303 -91 875 529 
Q 447 1150 447 2328 
Q 447 3434 972 4092 
Q 1497 4750 2381 4750 
Q 2619 4750 2861 4703 
Q 3103 4656 3366 4563 
z
" transform="scale(0.015625)"/>
       </defs>
       <use xlink:href="#DejaVuSans-36"/>
      </g>
     </g>
    </g>
    <g id="xtick_5">
     <g id="line2d_9">
      <path d="M 294.320757 78.7975 
L 294.320757 28.32 
" clip-path="url(#p1d9b023cb3)" style="fill: none; stroke: #b0b0b0; stroke-width: 0.8; stroke-linecap: square"/>
     </g>
     <g id="line2d_10">
      <g>
       <use xlink:href="#m8e7c97886c" x="294.320757" y="78.7975" style="stroke: #000000; stroke-width: 0.8"/>
      </g>
     </g>
     <g id="text_5">
      <!-- 8 -->
      <g transform="translate(291.139507 93.395937)scale(0.1 -0.1)">
       <defs>
        <path id="DejaVuSans-38" d="M 2034 2216 
Q 1584 2216 1326 1975 
Q 1069 1734 1069 1313 
Q 1069 891 1326 650 
Q 1584 409 2034 409 
Q 2484 409 2743 651 
Q 3003 894 3003 1313 
Q 3003 1734 2745 1975 
Q 2488 2216 2034 2216 
z
M 1403 2484 
Q 997 2584 770 2862 
Q 544 3141 544 3541 
Q 544 4100 942 4425 
Q 1341 4750 2034 4750 
Q 2731 4750 3128 4425 
Q 3525 4100 3525 3541 
Q 3525 3141 3298 2862 
Q 3072 2584 2669 2484 
Q 3125 2378 3379 2068 
Q 3634 1759 3634 1313 
Q 3634 634 3220 271 
Q 2806 -91 2034 -91 
Q 1263 -91 848 271 
Q 434 634 434 1313 
Q 434 1759 690 2068 
Q 947 2378 1403 2484 
z
M 1172 3481 
Q 1172 3119 1398 2916 
Q 1625 2713 2034 2713 
Q 2441 2713 2670 2916 
Q 2900 3119 2900 3481 
Q 2900 3844 2670 4047 
Q 2441 4250 2034 4250 
Q 1625 4250 1398 4047 
Q 1172 3844 1172 3481 
z
" transform="scale(0.015625)"/>
       </defs>
       <use xlink:href="#DejaVuSans-38"/>
      </g>
     </g>
    </g>
    <g id="xtick_6">
     <g id="line2d_11">
      <path d="M 348.921105 78.7975 
L 348.921105 28.32 
" clip-path="url(#p1d9b023cb3)" style="fill: none; stroke: #b0b0b0; stroke-width: 0.8; stroke-linecap: square"/>
     </g>
     <g id="line2d_12">
      <g>
       <use xlink:href="#m8e7c97886c" x="348.921105" y="78.7975" style="stroke: #000000; stroke-width: 0.8"/>
      </g>
     </g>
     <g id="text_6">
      <!-- 10 -->
      <g transform="translate(342.558605 93.395937)scale(0.1 -0.1)">
       <defs>
        <path id="DejaVuSans-31" d="M 794 531 
L 1825 531 
L 1825 4091 
L 703 3866 
L 703 4441 
L 1819 4666 
L 2450 4666 
L 2450 531 
L 3481 531 
L 3481 0 
L 794 0 
L 794 531 
z
" transform="scale(0.015625)"/>
       </defs>
       <use xlink:href="#DejaVuSans-31"/>
       <use xlink:href="#DejaVuSans-30" x="63.623047"/>
      </g>
     </g>
    </g>
    <g id="xtick_7">
     <g id="line2d_13">
      <path d="M 403.521454 78.7975 
L 403.521454 28.32 
" clip-path="url(#p1d9b023cb3)" style="fill: none; stroke: #b0b0b0; stroke-width: 0.8; stroke-linecap: square"/>
     </g>
     <g id="line2d_14">
      <g>
       <use xlink:href="#m8e7c97886c" x="403.521454" y="78.7975" style="stroke: #000000; stroke-width: 0.8"/>
      </g>
     </g>
     <g id="text_7">
      <!-- 12 -->
      <g transform="translate(397.158954 93.395937)scale(0.1 -0.1)">
       <use xlink:href="#DejaVuSans-31"/>
       <use xlink:href="#DejaVuSans-32" x="63.623047"/>
      </g>
     </g>
    </g>
    <g id="text_8">
     <!-- $t$ [s] -->
     <g transform="translate(243.953 107.074062)scale(0.1 -0.1)">
      <defs>
       <path id="DejaVuSans-Oblique-74" d="M 2706 3500 
L 2619 3053 
L 1472 3053 
L 1100 1153 
Q 1081 1047 1072 975 
Q 1063 903 1063 863 
Q 1063 663 1183 572 
Q 1303 481 1569 481 
L 2150 481 
L 2053 0 
L 1503 0 
Q 991 0 739 200 
Q 488 400 488 806 
Q 488 878 497 964 
Q 506 1050 525 1153 
L 897 3053 
L 409 3053 
L 500 3500 
L 978 3500 
L 1172 4494 
L 1747 4494 
L 1556 3500 
L 2706 3500 
z
" transform="scale(0.015625)"/>
       <path id="DejaVuSans-20" transform="scale(0.015625)"/>
       <path id="DejaVuSans-5b" d="M 550 4863 
L 1875 4863 
L 1875 4416 
L 1125 4416 
L 1125 -397 
L 1875 -397 
L 1875 -844 
L 550 -844 
L 550 4863 
z
" transform="scale(0.015625)"/>
       <path id="DejaVuSans-73" d="M 2834 3397 
L 2834 2853 
Q 2591 2978 2328 3040 
Q 2066 3103 1784 3103 
Q 1356 3103 1142 2972 
Q 928 2841 928 2578 
Q 928 2378 1081 2264 
Q 1234 2150 1697 2047 
L 1894 2003 
Q 2506 1872 2764 1633 
Q 3022 1394 3022 966 
Q 3022 478 2636 193 
Q 2250 -91 1575 -91 
Q 1294 -91 989 -36 
Q 684 19 347 128 
L 347 722 
Q 666 556 975 473 
Q 1284 391 1588 391 
Q 1994 391 2212 530 
Q 2431 669 2431 922 
Q 2431 1156 2273 1281 
Q 2116 1406 1581 1522 
L 1381 1569 
Q 847 1681 609 1914 
Q 372 2147 372 2553 
Q 372 3047 722 3315 
Q 1072 3584 1716 3584 
Q 2034 3584 2315 3537 
Q 2597 3491 2834 3397 
z
" transform="scale(0.015625)"/>
       <path id="DejaVuSans-5d" d="M 1947 4863 
L 1947 -844 
L 622 -844 
L 622 -397 
L 1369 -397 
L 1369 4416 
L 622 4416 
L 622 4863 
L 1947 4863 
z
" transform="scale(0.015625)"/>
      </defs>
      <use xlink:href="#DejaVuSans-Oblique-74" transform="translate(0 0.015625)"/>
      <use xlink:href="#DejaVuSans-20" transform="translate(39.208984 0.015625)"/>
      <use xlink:href="#DejaVuSans-5b" transform="translate(70.996094 0.015625)"/>
      <use xlink:href="#DejaVuSans-73" transform="translate(110.009766 0.015625)"/>
      <use xlink:href="#DejaVuSans-5d" transform="translate(162.109375 0.015625)"/>
     </g>
    </g>
   </g>
   <g id="matplotlib.axis_2">
    <g id="ytick_1">
     <g id="line2d_15">
      <path d="M 58.106 76.734243 
L 450 76.734243 
" clip-path="url(#p1d9b023cb3)" style="fill: none; stroke: #b0b0b0; stroke-width: 0.8; stroke-linecap: square"/>
     </g>
     <g id="line2d_16">
      <defs>
       <path id="mead6520706" d="M 0 0 
L -3.5 0 
" style="stroke: #000000; stroke-width: 0.8"/>
      </defs>
      <g>
       <use xlink:href="#mead6520706" x="58.106" y="76.734243" style="stroke: #000000; stroke-width: 0.8"/>
      </g>
     </g>
     <g id="text_9">
      <!-- 0 -->
      <g transform="translate(44.7435 80.533461)scale(0.1 -0.1)">
       <use xlink:href="#DejaVuSans-30"/>
      </g>
     </g>
    </g>
    <g id="ytick_2">
     <g id="line2d_17">
      <path d="M 58.106 30.617444 
L 450 30.617444 
" clip-path="url(#p1d9b023cb3)" style="fill: none; stroke: #b0b0b0; stroke-width: 0.8; stroke-linecap: square"/>
     </g>
     <g id="line2d_18">
      <g>
       <use xlink:href="#mead6520706" x="58.106" y="30.617444" style="stroke: #000000; stroke-width: 0.8"/>
      </g>
     </g>
     <g id="text_10">
      <!-- 10 -->
      <g transform="translate(38.381 34.416663)scale(0.1 -0.1)">
       <use xlink:href="#DejaVuSans-31"/>
       <use xlink:href="#DejaVuSans-30" x="63.623047"/>
      </g>
     </g>
    </g>
    <g id="text_11">
     <!-- $e_x$ [m] -->
     <g transform="translate(32.301313 69.20875)rotate(-90)scale(0.1 -0.1)">
      <defs>
       <path id="DejaVuSans-Oblique-65" d="M 3078 2063 
Q 3088 2113 3092 2166 
Q 3097 2219 3097 2272 
Q 3097 2653 2873 2875 
Q 2650 3097 2266 3097 
Q 1838 3097 1509 2826 
Q 1181 2556 1013 2059 
L 3078 2063 
z
M 3578 1613 
L 903 1613 
Q 884 1494 878 1425 
Q 872 1356 872 1306 
Q 872 872 1139 634 
Q 1406 397 1894 397 
Q 2269 397 2603 481 
Q 2938 566 3225 728 
L 3116 159 
Q 2806 34 2476 -28 
Q 2147 -91 1806 -91 
Q 1078 -91 686 257 
Q 294 606 294 1247 
Q 294 1794 489 2264 
Q 684 2734 1063 3103 
Q 1306 3334 1642 3459 
Q 1978 3584 2356 3584 
Q 2950 3584 3301 3228 
Q 3653 2872 3653 2272 
Q 3653 2128 3634 1964 
Q 3616 1800 3578 1613 
z
" transform="scale(0.015625)"/>
       <path id="DejaVuSans-Oblique-78" d="M 3841 3500 
L 2234 1784 
L 3219 0 
L 2559 0 
L 1819 1388 
L 531 0 
L -166 0 
L 1556 1844 
L 641 3500 
L 1300 3500 
L 1972 2234 
L 3144 3500 
L 3841 3500 
z
" transform="scale(0.015625)"/>
       <path id="DejaVuSans-6d" d="M 3328 2828 
Q 3544 3216 3844 3400 
Q 4144 3584 4550 3584 
Q 5097 3584 5394 3201 
Q 5691 2819 5691 2113 
L 5691 0 
L 5113 0 
L 5113 2094 
Q 5113 2597 4934 2840 
Q 4756 3084 4391 3084 
Q 3944 3084 3684 2787 
Q 3425 2491 3425 1978 
L 3425 0 
L 2847 0 
L 2847 2094 
Q 2847 2600 2669 2842 
Q 2491 3084 2119 3084 
Q 1678 3084 1418 2786 
Q 1159 2488 1159 1978 
L 1159 0 
L 581 0 
L 581 3500 
L 1159 3500 
L 1159 2956 
Q 1356 3278 1631 3431 
Q 1906 3584 2284 3584 
Q 2666 3584 2933 3390 
Q 3200 3197 3328 2828 
z
" transform="scale(0.015625)"/>
      </defs>
      <use xlink:href="#DejaVuSans-Oblique-65" transform="translate(0 0.015625)"/>
      <use xlink:href="#DejaVuSans-Oblique-78" transform="translate(61.523438 -16.390625)scale(0.7)"/>
      <use xlink:href="#DejaVuSans-20" transform="translate(105.683594 0.015625)"/>
      <use xlink:href="#DejaVuSans-5b" transform="translate(137.470703 0.015625)"/>
      <use xlink:href="#DejaVuSans-6d" transform="translate(176.484375 0.015625)"/>
      <use xlink:href="#DejaVuSans-5d" transform="translate(273.896484 0.015625)"/>
     </g>
    </g>
   </g>
   <g id="line2d_19">
    <path d="M 75.919364 30.617444 
L 84.388908 30.720297 
L 102.147629 31.38868 
L 105.152951 31.758613 
L 105.972584 31.844054 
L 112.25644 32.74782 
L 114.71534 33.126601 
L 115.808184 33.31058 
L 118.267084 33.731248 
L 119.086717 33.888478 
L 121.545617 34.339313 
L 122.36525 34.512472 
L 124.550939 34.953789 
L 125.097361 35.127851 
L 128.102683 35.778316 
L 130.834794 36.469161 
L 133.020483 36.989321 
L 135.752594 37.72751 
L 137.665072 38.220452 
L 140.397183 38.993187 
L 142.856083 39.632997 
L 144.495349 40.153206 
L 144.768561 40.153206 
L 145.041772 40.336041 
L 145.861405 40.487813 
L 146.681038 40.759238 
L 147.773883 41.057423 
L 148.047094 41.057423 
L 148.320305 41.234139 
L 149.139938 41.37996 
L 150.232782 41.724599 
L 150.779205 41.809732 
L 151.598838 42.035237 
L 153.784527 42.646046 
L 154.330949 42.755291 
L 157.06306 43.398799 
L 157.882693 43.611121 
L 160.614804 44.245301 
L 161.434438 44.454056 
L 163.620126 44.967349 
L 164.43976 45.169595 
L 166.625448 45.643491 
L 166.89866 45.766537 
L 167.445082 45.864431 
L 170.177193 46.442454 
L 170.996826 46.632428 
L 173.182515 47.079761 
L 174.275359 47.336928 
L 176.461048 47.783925 
L 177.280681 48.020106 
L 178.100315 48.137248 
L 178.919948 48.367444 
L 180.286003 48.568606 
L 180.832426 48.721638 
L 183.564537 49.265722 
L 186.296648 49.829757 
L 189.30197 50.362404 
L 190.121603 50.527889 
L 192.853714 51.034369 
L 193.673347 51.200409 
L 196.132247 51.624954 
L 196.678669 51.767281 
L 198.864358 52.16637 
L 199.41078 52.272904 
L 200.230414 52.442215 
L 202.689313 52.931251 
L 205.148213 53.356381 
L 207.607113 53.83467 
L 210.066013 54.313166 
L 210.612435 54.391792 
L 213.071335 54.83379 
L 213.890968 54.996419 
L 218.262346 55.753729 
L 219.35519 55.948329 
L 222.360513 56.494853 
L 226.185468 57.125561 
L 229.464001 57.705273 
L 231.64969 58.054838 
L 232.196112 58.180842 
L 234.928223 58.647015 
L 237.387123 59.068554 
L 239.846023 59.451957 
L 240.392445 59.578928 
L 243.124556 60.030504 
L 243.944189 60.183061 
L 248.042356 60.855262 
L 249.1352 61.038518 
L 252.686945 61.695901 
L 253.506578 61.804396 
L 257.331533 62.415053 
L 260.883277 63.049605 
L 261.702911 63.151899 
L 265.801077 63.830493 
L 266.620711 63.938659 
L 270.445666 64.521208 
L 271.265299 64.673079 
L 275.363466 65.296127 
L 278.368788 65.746497 
L 280.827688 66.139252 
L 283.286588 66.509067 
L 284.106221 66.60017 
L 288.204387 67.18769 
L 289.570443 67.340755 
L 290.936498 67.533603 
L 295.034665 68.054393 
L 296.40072 68.226029 
L 300.498887 68.785362 
L 304.870264 69.270766 
L 305.416687 69.364775 
L 310.880909 70.003514 
L 311.973753 70.134635 
L 315.798708 70.568546 
L 316.618342 70.680533 
L 322.355775 71.274387 
L 323.995041 71.460288 
L 325.361097 71.614559 
L 330.552108 72.141916 
L 332.464585 72.359999 
L 338.748441 72.970524 
L 340.660918 73.180242 
L 341.753763 73.277822 
L 345.851929 73.673688 
L 346.671562 73.773195 
L 352.682207 74.365028 
L 357.053584 74.747417 
L 374.539095 75.784661 
L 377.544417 75.894359 
L 381.642583 76.007183 
L 398.854882 76.027444 
L 420.165348 75.899745 
L 431.913425 76.499693 
L 432.186636 76.503068 
L 432.186636 76.503068 
" clip-path="url(#p1d9b023cb3)" style="fill: none; stroke: #ff0000; stroke-width: 1.5; stroke-linecap: square"/>
   </g>
   <g id="patch_3">
    <path d="M 58.106 78.7975 
L 58.106 28.32 
" style="fill: none; stroke: #000000; stroke-width: 0.8; stroke-linejoin: miter; stroke-linecap: square"/>
   </g>
   <g id="patch_4">
    <path d="M 450 78.7975 
L 450 28.32 
" style="fill: none; stroke: #000000; stroke-width: 0.8; stroke-linejoin: miter; stroke-linecap: square"/>
   </g>
   <g id="patch_5">
    <path d="M 58.106 78.7975 
L 450 78.7975 
" style="fill: none; stroke: #000000; stroke-width: 0.8; stroke-linejoin: miter; stroke-linecap: square"/>
   </g>
   <g id="patch_6">
    <path d="M 58.106 28.32 
L 450 28.32 
" style="fill: none; stroke: #000000; stroke-width: 0.8; stroke-linejoin: miter; stroke-linecap: square"/>
   </g>
   <g id="text_12">
    <!-- Error in $x$-position -->
    <g transform="translate(200.413 22.32)scale(0.12 -0.12)">
     <defs>
      <path id="DejaVuSans-45" d="M 628 4666 
L 3578 4666 
L 3578 4134 
L 1259 4134 
L 1259 2753 
L 3481 2753 
L 3481 2222 
L 1259 2222 
L 1259 531 
L 3634 531 
L 3634 0 
L 628 0 
L 628 4666 
z
" transform="scale(0.015625)"/>
      <path id="DejaVuSans-72" d="M 2631 2963 
Q 2534 3019 2420 3045 
Q 2306 3072 2169 3072 
Q 1681 3072 1420 2755 
Q 1159 2438 1159 1844 
L 1159 0 
L 581 0 
L 581 3500 
L 1159 3500 
L 1159 2956 
Q 1341 3275 1631 3429 
Q 1922 3584 2338 3584 
Q 2397 3584 2469 3576 
Q 2541 3569 2628 3553 
L 2631 2963 
z
" transform="scale(0.015625)"/>
      <path id="DejaVuSans-6f" d="M 1959 3097 
Q 1497 3097 1228 2736 
Q 959 2375 959 1747 
Q 959 1119 1226 758 
Q 1494 397 1959 397 
Q 2419 397 2687 759 
Q 2956 1122 2956 1747 
Q 2956 2369 2687 2733 
Q 2419 3097 1959 3097 
z
M 1959 3584 
Q 2709 3584 3137 3096 
Q 3566 2609 3566 1747 
Q 3566 888 3137 398 
Q 2709 -91 1959 -91 
Q 1206 -91 779 398 
Q 353 888 353 1747 
Q 353 2609 779 3096 
Q 1206 3584 1959 3584 
z
" transform="scale(0.015625)"/>
      <path id="DejaVuSans-69" d="M 603 3500 
L 1178 3500 
L 1178 0 
L 603 0 
L 603 3500 
z
M 603 4863 
L 1178 4863 
L 1178 4134 
L 603 4134 
L 603 4863 
z
" transform="scale(0.015625)"/>
      <path id="DejaVuSans-6e" d="M 3513 2113 
L 3513 0 
L 2938 0 
L 2938 2094 
Q 2938 2591 2744 2837 
Q 2550 3084 2163 3084 
Q 1697 3084 1428 2787 
Q 1159 2491 1159 1978 
L 1159 0 
L 581 0 
L 581 3500 
L 1159 3500 
L 1159 2956 
Q 1366 3272 1645 3428 
Q 1925 3584 2291 3584 
Q 2894 3584 3203 3211 
Q 3513 2838 3513 2113 
z
" transform="scale(0.015625)"/>
      <path id="DejaVuSans-2d" d="M 313 2009 
L 1997 2009 
L 1997 1497 
L 313 1497 
L 313 2009 
z
" transform="scale(0.015625)"/>
      <path id="DejaVuSans-70" d="M 1159 525 
L 1159 -1331 
L 581 -1331 
L 581 3500 
L 1159 3500 
L 1159 2969 
Q 1341 3281 1617 3432 
Q 1894 3584 2278 3584 
Q 2916 3584 3314 3078 
Q 3713 2572 3713 1747 
Q 3713 922 3314 415 
Q 2916 -91 2278 -91 
Q 1894 -91 1617 61 
Q 1341 213 1159 525 
z
M 3116 1747 
Q 3116 2381 2855 2742 
Q 2594 3103 2138 3103 
Q 1681 3103 1420 2742 
Q 1159 2381 1159 1747 
Q 1159 1113 1420 752 
Q 1681 391 2138 391 
Q 2594 391 2855 752 
Q 3116 1113 3116 1747 
z
" transform="scale(0.015625)"/>
      <path id="DejaVuSans-74" d="M 1172 4494 
L 1172 3500 
L 2356 3500 
L 2356 3053 
L 1172 3053 
L 1172 1153 
Q 1172 725 1289 603 
Q 1406 481 1766 481 
L 2356 481 
L 2356 0 
L 1766 0 
Q 1100 0 847 248 
Q 594 497 594 1153 
L 594 3053 
L 172 3053 
L 172 3500 
L 594 3500 
L 594 4494 
L 1172 4494 
z
" transform="scale(0.015625)"/>
     </defs>
     <use xlink:href="#DejaVuSans-45" transform="translate(0 0.015625)"/>
     <use xlink:href="#DejaVuSans-72" transform="translate(63.183594 0.015625)"/>
     <use xlink:href="#DejaVuSans-72" transform="translate(104.296875 0.015625)"/>
     <use xlink:href="#DejaVuSans-6f" transform="translate(145.410156 0.015625)"/>
     <use xlink:href="#DejaVuSans-72" transform="translate(206.591797 0.015625)"/>
     <use xlink:href="#DejaVuSans-20" transform="translate(247.705078 0.015625)"/>
     <use xlink:href="#DejaVuSans-69" transform="translate(279.492188 0.015625)"/>
     <use xlink:href="#DejaVuSans-6e" transform="translate(307.275391 0.015625)"/>
     <use xlink:href="#DejaVuSans-20" transform="translate(370.654297 0.015625)"/>
     <use xlink:href="#DejaVuSans-Oblique-78" transform="translate(402.441406 0.015625)"/>
     <use xlink:href="#DejaVuSans-2d" transform="translate(461.621094 0.015625)"/>
     <use xlink:href="#DejaVuSans-70" transform="translate(497.705078 0.015625)"/>
     <use xlink:href="#DejaVuSans-6f" transform="translate(561.181641 0.015625)"/>
     <use xlink:href="#DejaVuSans-73" transform="translate(622.363281 0.015625)"/>
     <use xlink:href="#DejaVuSans-69" transform="translate(674.462891 0.015625)"/>
     <use xlink:href="#DejaVuSans-74" transform="translate(702.246094 0.015625)"/>
     <use xlink:href="#DejaVuSans-69" transform="translate(741.455078 0.015625)"/>
     <use xlink:href="#DejaVuSans-6f" transform="translate(769.238281 0.015625)"/>
     <use xlink:href="#DejaVuSans-6e" transform="translate(830.419922 0.015625)"/>
    </g>
   </g>
  </g>
  <g id="axes_2">
   <g id="patch_7">
    <path d="M 58.106 190.3975 
L 450 190.3975 
L 450 139.92 
L 58.106 139.92 
z
" style="fill: #ffffff"/>
   </g>
   <g id="matplotlib.axis_3">
    <g id="xtick_8">
     <g id="line2d_20">
      <path d="M 75.919364 190.3975 
L 75.919364 139.92 
" clip-path="url(#p6c756f1e5a)" style="fill: none; stroke: #b0b0b0; stroke-width: 0.8; stroke-linecap: square"/>
     </g>
     <g id="line2d_21">
      <g>
       <use xlink:href="#m8e7c97886c" x="75.919364" y="190.3975" style="stroke: #000000; stroke-width: 0.8"/>
      </g>
     </g>
     <g id="text_13">
      <!-- 0 -->
      <g transform="translate(72.738114 204.995937)scale(0.1 -0.1)">
       <use xlink:href="#DejaVuSans-30"/>
      </g>
     </g>
    </g>
    <g id="xtick_9">
     <g id="line2d_22">
      <path d="M 130.519712 190.3975 
L 130.519712 139.92 
" clip-path="url(#p6c756f1e5a)" style="fill: none; stroke: #b0b0b0; stroke-width: 0.8; stroke-linecap: square"/>
     </g>
     <g id="line2d_23">
      <g>
       <use xlink:href="#m8e7c97886c" x="130.519712" y="190.3975" style="stroke: #000000; stroke-width: 0.8"/>
      </g>
     </g>
     <g id="text_14">
      <!-- 2 -->
      <g transform="translate(127.338462 204.995937)scale(0.1 -0.1)">
       <use xlink:href="#DejaVuSans-32"/>
      </g>
     </g>
    </g>
    <g id="xtick_10">
     <g id="line2d_24">
      <path d="M 185.12006 190.3975 
L 185.12006 139.92 
" clip-path="url(#p6c756f1e5a)" style="fill: none; stroke: #b0b0b0; stroke-width: 0.8; stroke-linecap: square"/>
     </g>
     <g id="line2d_25">
      <g>
       <use xlink:href="#m8e7c97886c" x="185.12006" y="190.3975" style="stroke: #000000; stroke-width: 0.8"/>
      </g>
     </g>
     <g id="text_15">
      <!-- 4 -->
      <g transform="translate(181.93881 204.995937)scale(0.1 -0.1)">
       <use xlink:href="#DejaVuSans-34"/>
      </g>
     </g>
    </g>
    <g id="xtick_11">
     <g id="line2d_26">
      <path d="M 239.720409 190.3975 
L 239.720409 139.92 
" clip-path="url(#p6c756f1e5a)" style="fill: none; stroke: #b0b0b0; stroke-width: 0.8; stroke-linecap: square"/>
     </g>
     <g id="line2d_27">
      <g>
       <use xlink:href="#m8e7c97886c" x="239.720409" y="190.3975" style="stroke: #000000; stroke-width: 0.8"/>
      </g>
     </g>
     <g id="text_16">
      <!-- 6 -->
      <g transform="translate(236.539159 204.995937)scale(0.1 -0.1)">
       <use xlink:href="#DejaVuSans-36"/>
      </g>
     </g>
    </g>
    <g id="xtick_12">
     <g id="line2d_28">
      <path d="M 294.320757 190.3975 
L 294.320757 139.92 
" clip-path="url(#p6c756f1e5a)" style="fill: none; stroke: #b0b0b0; stroke-width: 0.8; stroke-linecap: square"/>
     </g>
     <g id="line2d_29">
      <g>
       <use xlink:href="#m8e7c97886c" x="294.320757" y="190.3975" style="stroke: #000000; stroke-width: 0.8"/>
      </g>
     </g>
     <g id="text_17">
      <!-- 8 -->
      <g transform="translate(291.139507 204.995937)scale(0.1 -0.1)">
       <use xlink:href="#DejaVuSans-38"/>
      </g>
     </g>
    </g>
    <g id="xtick_13">
     <g id="line2d_30">
      <path d="M 348.921105 190.3975 
L 348.921105 139.92 
" clip-path="url(#p6c756f1e5a)" style="fill: none; stroke: #b0b0b0; stroke-width: 0.8; stroke-linecap: square"/>
     </g>
     <g id="line2d_31">
      <g>
       <use xlink:href="#m8e7c97886c" x="348.921105" y="190.3975" style="stroke: #000000; stroke-width: 0.8"/>
      </g>
     </g>
     <g id="text_18">
      <!-- 10 -->
      <g transform="translate(342.558605 204.995937)scale(0.1 -0.1)">
       <use xlink:href="#DejaVuSans-31"/>
       <use xlink:href="#DejaVuSans-30" x="63.623047"/>
      </g>
     </g>
    </g>
    <g id="xtick_14">
     <g id="line2d_32">
      <path d="M 403.521454 190.3975 
L 403.521454 139.92 
" clip-path="url(#p6c756f1e5a)" style="fill: none; stroke: #b0b0b0; stroke-width: 0.8; stroke-linecap: square"/>
     </g>
     <g id="line2d_33">
      <g>
       <use xlink:href="#m8e7c97886c" x="403.521454" y="190.3975" style="stroke: #000000; stroke-width: 0.8"/>
      </g>
     </g>
     <g id="text_19">
      <!-- 12 -->
      <g transform="translate(397.158954 204.995937)scale(0.1 -0.1)">
       <use xlink:href="#DejaVuSans-31"/>
       <use xlink:href="#DejaVuSans-32" x="63.623047"/>
      </g>
     </g>
    </g>
    <g id="text_20">
     <!-- $t$ [s] -->
     <g transform="translate(243.953 218.674062)scale(0.1 -0.1)">
      <use xlink:href="#DejaVuSans-Oblique-74" transform="translate(0 0.015625)"/>
      <use xlink:href="#DejaVuSans-20" transform="translate(39.208984 0.015625)"/>
      <use xlink:href="#DejaVuSans-5b" transform="translate(70.996094 0.015625)"/>
      <use xlink:href="#DejaVuSans-73" transform="translate(110.009766 0.015625)"/>
      <use xlink:href="#DejaVuSans-5d" transform="translate(162.109375 0.015625)"/>
     </g>
    </g>
   </g>
   <g id="matplotlib.axis_4">
    <g id="ytick_3">
     <g id="line2d_34">
      <path d="M 58.106 177.824212 
L 450 177.824212 
" clip-path="url(#p6c756f1e5a)" style="fill: none; stroke: #b0b0b0; stroke-width: 0.8; stroke-linecap: square"/>
     </g>
     <g id="line2d_35">
      <g>
       <use xlink:href="#mead6520706" x="58.106" y="177.824212" style="stroke: #000000; stroke-width: 0.8"/>
      </g>
     </g>
     <g id="text_21">
      <!-- −0.1 -->
      <g transform="translate(26.823188 181.62343)scale(0.1 -0.1)">
       <defs>
        <path id="DejaVuSans-2212" d="M 678 2272 
L 4684 2272 
L 4684 1741 
L 678 1741 
L 678 2272 
z
" transform="scale(0.015625)"/>
        <path id="DejaVuSans-2e" d="M 684 794 
L 1344 794 
L 1344 0 
L 684 0 
L 684 794 
z
" transform="scale(0.015625)"/>
       </defs>
       <use xlink:href="#DejaVuSans-2212"/>
       <use xlink:href="#DejaVuSans-30" x="83.789062"/>
       <use xlink:href="#DejaVuSans-2e" x="147.412109"/>
       <use xlink:href="#DejaVuSans-31" x="179.199219"/>
      </g>
     </g>
    </g>
    <g id="ytick_4">
     <g id="line2d_36">
      <path d="M 58.106 164.253427 
L 450 164.253427 
" clip-path="url(#p6c756f1e5a)" style="fill: none; stroke: #b0b0b0; stroke-width: 0.8; stroke-linecap: square"/>
     </g>
     <g id="line2d_37">
      <g>
       <use xlink:href="#mead6520706" x="58.106" y="164.253427" style="stroke: #000000; stroke-width: 0.8"/>
      </g>
     </g>
     <g id="text_22">
      <!-- 0.0 -->
      <g transform="translate(35.202875 168.052646)scale(0.1 -0.1)">
       <use xlink:href="#DejaVuSans-30"/>
       <use xlink:href="#DejaVuSans-2e" x="63.623047"/>
       <use xlink:href="#DejaVuSans-30" x="95.410156"/>
      </g>
     </g>
    </g>
    <g id="ytick_5">
     <g id="line2d_38">
      <path d="M 58.106 150.682643 
L 450 150.682643 
" clip-path="url(#p6c756f1e5a)" style="fill: none; stroke: #b0b0b0; stroke-width: 0.8; stroke-linecap: square"/>
     </g>
     <g id="line2d_39">
      <g>
       <use xlink:href="#mead6520706" x="58.106" y="150.682643" style="stroke: #000000; stroke-width: 0.8"/>
      </g>
     </g>
     <g id="text_23">
      <!-- 0.1 -->
      <g transform="translate(35.202875 154.481862)scale(0.1 -0.1)">
       <use xlink:href="#DejaVuSans-30"/>
       <use xlink:href="#DejaVuSans-2e" x="63.623047"/>
       <use xlink:href="#DejaVuSans-31" x="95.410156"/>
      </g>
     </g>
    </g>
    <g id="text_24">
     <!-- $e_z$ [m] -->
     <g transform="translate(20.7435 180.60875)rotate(-90)scale(0.1 -0.1)">
      <defs>
       <path id="DejaVuSans-Oblique-7a" d="M 744 3500 
L 3475 3500 
L 3372 2975 
L 738 459 
L 2913 459 
L 2822 0 
L -19 0 
L 84 525 
L 2719 3041 
L 653 3041 
L 744 3500 
z
" transform="scale(0.015625)"/>
      </defs>
      <use xlink:href="#DejaVuSans-Oblique-65" transform="translate(0 0.015625)"/>
      <use xlink:href="#DejaVuSans-Oblique-7a" transform="translate(61.523438 -16.390625)scale(0.7)"/>
      <use xlink:href="#DejaVuSans-20" transform="translate(101.000977 0.015625)"/>
      <use xlink:href="#DejaVuSans-5b" transform="translate(132.788086 0.015625)"/>
      <use xlink:href="#DejaVuSans-6d" transform="translate(171.801758 0.015625)"/>
      <use xlink:href="#DejaVuSans-5d" transform="translate(269.213867 0.015625)"/>
     </g>
    </g>
   </g>
   <g id="line2d_40">
    <path d="M 75.919364 165.574464 
L 80.290741 165.715842 
L 82.203219 166.10795 
L 83.022852 166.12678 
L 83.842485 165.892704 
L 84.388908 165.501005 
L 85.208541 164.95834 
L 86.301385 163.878127 
L 87.121019 163.336136 
L 87.667441 162.887635 
L 88.213863 162.523707 
L 88.487074 162.200238 
L 89.033496 161.422557 
L 89.85313 160.472548 
L 90.945974 158.613835 
L 91.765607 157.645281 
L 92.038818 157.227756 
L 92.31203 157.227756 
L 92.585241 156.911136 
L 93.678085 156.501371 
L 94.770929 156.425747 
L 95.590563 156.245166 
L 97.50304 154.694597 
L 98.049463 154.214826 
L 98.869096 153.952309 
L 99.415518 153.823406 
L 100.508363 153.963346 
L 101.601207 154.440003 
L 102.42084 154.673183 
L 103.786896 154.833367 
L 104.87974 154.716912 
L 107.065429 154.125523 
L 107.611851 153.822049 
L 108.158273 153.501795 
L 108.704695 153.016153 
L 109.251118 152.62781 
L 110.070751 151.606112 
L 110.343962 151.606112 
L 110.617173 151.117054 
L 111.436806 150.308015 
L 111.710018 149.923036 
L 112.802862 149.38844 
L 113.895706 148.962667 
L 114.71534 148.615304 
L 115.261762 148.188825 
L 116.354606 147.448328 
L 117.447451 146.417948 
L 120.725984 144.36261 
L 121.545617 143.703862 
L 121.818828 143.313308 
L 123.458095 142.305779 
L 124.277728 142.214432 
L 124.82415 142.31607 
L 126.463417 142.755588 
L 128.922317 143.807011 
L 130.561583 144.14861 
L 133.293694 144.338434 
L 134.113328 144.764355 
L 134.65975 145.075513 
L 137.665072 147.926217 
L 138.484705 148.614849 
L 139.850761 149.335285 
L 140.397183 149.792585 
L 141.216816 150.357857 
L 143.948927 153.502917 
L 144.222138 153.707106 
L 144.495349 154.073415 
L 144.768561 154.073415 
L 145.041772 154.517185 
L 145.861405 154.803154 
L 146.407827 155.100692 
L 147.773883 155.867545 
L 148.047094 155.867545 
L 148.320305 156.321392 
L 148.866727 156.564715 
L 149.139938 156.730063 
L 149.68636 157.223188 
L 150.232782 157.673826 
L 150.779205 157.870851 
L 151.325627 158.197688 
L 153.511316 159.013714 
L 153.784527 159.252957 
L 154.057738 159.252957 
L 154.60416 159.727232 
L 155.150582 160.119661 
L 156.516638 161.658704 
L 157.06306 162.291996 
L 157.336271 162.805644 
L 158.429115 163.855534 
L 159.52196 165.386948 
L 160.341593 166.284049 
L 161.434438 168.009384 
L 162.254071 169.105973 
L 162.527282 169.714118 
L 163.620126 171.004357 
L 163.893337 171.54353 
L 165.532604 173.232255 
L 165.805815 173.752979 
L 166.625448 174.542248 
L 166.89866 175.202606 
L 167.171871 175.202606 
L 167.445082 175.72563 
L 168.264715 176.484189 
L 168.537926 177.079226 
L 168.811137 177.079226 
L 169.084348 177.522522 
L 170.996826 178.912357 
L 172.08967 179.185778 
L 173.182515 179.148079 
L 174.002148 179.100586 
L 174.821781 179.225213 
L 175.914626 179.926086 
L 176.461048 180.121227 
L 176.734259 180.347709 
L 177.00747 180.347709 
L 177.280681 180.570485 
L 178.646737 180.574137 
L 179.193159 180.389079 
L 180.832426 180.096971 
L 181.378848 180.153475 
L 182.744903 180.798049 
L 183.018114 180.798049 
L 183.564537 181.008812 
L 184.38417 181.085711 
L 185.203803 180.928223 
L 188.209125 180.294675 
L 189.028759 180.492939 
L 191.214447 181.629476 
L 192.307292 181.69501 
L 193.946558 181.442643 
L 194.49298 181.349031 
L 195.312614 181.333991 
L 196.132247 181.521606 
L 196.405458 181.894913 
L 196.95188 182.141128 
L 197.225091 182.320263 
L 197.498303 182.695178 
L 197.771514 182.695178 
L 198.044725 183.238894 
L 198.591147 183.476596 
L 198.864358 183.616213 
L 199.137569 183.888527 
L 199.41078 183.888527 
L 199.957202 184.065686 
L 201.050047 184.080867 
L 202.142891 183.951816 
L 202.689313 183.986078 
L 203.782158 184.26822 
L 204.601791 184.917312 
L 205.148213 185.135279 
L 206.78748 185.945418 
L 208.426747 185.854108 
L 209.792802 185.713609 
L 211.158858 186.005959 
L 212.524913 186.551374 
L 213.617757 186.72731 
L 214.710602 186.572181 
L 216.349868 186.071001 
L 217.169502 186.065608 
L 217.989135 186.276152 
L 219.901613 187.354072 
L 220.994457 187.467423 
L 221.540879 187.398469 
L 222.633724 187.120255 
L 224.27299 186.844662 
L 224.819412 186.908414 
L 227.278312 187.760183 
L 228.371157 187.850978 
L 229.737212 187.623205 
L 231.376479 187.075521 
L 232.742534 187.11387 
L 235.201434 188.022912 
L 236.021067 188.103068 
L 237.387123 187.899794 
L 239.846023 187.509869 
L 243.944189 187.840242 
L 246.6763 187.830562 
L 247.769145 187.558654 
L 248.861989 187.105355 
L 250.501256 186.866245 
L 251.320889 186.988229 
L 252.140522 187.335164 
L 252.413733 187.436325 
L 252.686945 187.674804 
L 252.960156 187.674804 
L 253.506578 187.887602 
L 254.599422 187.965427 
L 255.965478 187.592987 
L 257.877955 186.577873 
L 258.9708 186.383804 
L 259.790433 186.516026 
L 262.249333 186.978789 
L 263.068966 186.847839 
L 263.8886 186.6186 
L 264.161811 186.479944 
L 264.435022 186.479944 
L 264.981444 186.268696 
L 266.347499 185.977794 
L 267.167133 186.09052 
L 267.986766 186.357287 
L 269.626033 186.730218 
L 270.445666 186.702959 
L 271.265299 186.49799 
L 274.270621 186.005955 
L 277.002732 186.610218 
L 277.822366 186.538758 
L 278.641999 186.341049 
L 278.91521 186.126189 
L 279.188421 186.126189 
L 279.734843 185.858565 
L 281.647321 185.345475 
L 282.466954 185.493678 
L 284.106221 186.030634 
L 284.925854 186.097502 
L 285.472276 186.014717 
L 286.29191 185.731352 
L 286.838332 185.425884 
L 288.477598 184.88931 
L 289.297232 184.895571 
L 290.116865 185.120387 
L 290.936498 185.372795 
L 292.029343 185.557717 
L 292.848976 185.469149 
L 293.395398 185.278807 
L 293.94182 184.952821 
L 295.854298 184.197955 
L 296.673931 184.268863 
L 297.493565 184.570317 
L 299.406042 185.102695 
L 300.225676 185.025928 
L 301.591731 184.709225 
L 302.138153 184.525964 
L 303.230998 184.396236 
L 304.870264 184.535034 
L 305.416687 184.636464 
L 306.509531 184.655068 
L 310.061275 184.088139 
L 310.880909 184.187597 
L 311.15412 184.363998 
L 311.427331 184.363998 
L 311.973753 184.63519 
L 314.159442 185.260209 
L 314.979075 185.197595 
L 315.798708 185.015018 
L 316.071919 184.825863 
L 316.345131 184.825863 
L 316.891553 184.591518 
L 318.257608 184.296564 
L 319.077241 184.39296 
L 319.896875 184.860221 
L 322.355775 185.957906 
L 322.902197 185.995211 
L 326.18073 185.206141 
L 327.273574 185.456872 
L 327.546786 185.690319 
L 327.819997 185.690319 
L 328.093208 186.114178 
L 328.63963 186.324196 
L 330.005685 186.906247 
L 330.825319 186.847018 
L 331.371741 186.672041 
L 331.918163 186.371208 
L 332.191374 186.371208 
L 332.737796 186.063837 
L 334.103852 185.724758 
L 334.923485 185.868823 
L 335.196696 186.043366 
L 335.469907 186.043366 
L 336.01633 186.367883 
L 337.382385 186.846838 
L 337.928807 186.828169 
L 339.021652 186.444879 
L 340.934129 185.772035 
L 341.753763 185.79148 
L 342.573396 185.974383 
L 342.846607 186.198855 
L 344.485874 186.350278 
L 345.305507 186.175865 
L 345.578718 185.964245 
L 345.851929 185.964245 
L 346.12514 185.611019 
L 346.944774 185.360658 
L 347.217985 185.235402 
L 348.58404 185.329671 
L 349.676885 185.935769 
L 350.223307 186.084777 
L 350.769729 186.296214 
L 351.589362 186.314109 
L 351.862573 186.314109 
L 354.048262 185.480495 
L 354.867895 185.455416 
L 355.414318 185.553928 
L 356.233951 185.832689 
L 356.780373 186.095686 
L 357.873218 186.324663 
L 358.692851 186.228628 
L 359.512484 185.91041 
L 360.058906 185.543922 
L 363.064228 184.228284 
L 364.430284 183.847432 
L 365.796339 182.939774 
L 366.342762 182.455187 
L 366.615973 182.058161 
L 368.52845 180.826702 
L 370.98735 180.089987 
L 372.080195 179.154921 
L 372.899828 178.351968 
L 373.173039 177.911518 
L 374.539095 176.899357 
L 374.812306 176.899357 
L 375.358728 176.658918 
L 377.271206 176.22852 
L 377.544417 176.129154 
L 378.36405 175.367817 
L 378.910472 175.078113 
L 379.183683 174.884545 
L 379.730105 174.316462 
L 380.276528 174.111268 
L 381.096161 174.001945 
L 383.008639 174.226589 
L 384.101483 173.885638 
L 384.374694 173.56638 
L 384.647905 173.56638 
L 384.921116 172.949877 
L 385.467538 172.61739 
L 385.74075 172.404818 
L 386.013961 172.036012 
L 386.833594 171.618269 
L 387.380016 171.585346 
L 388.472861 171.911545 
L 389.019283 172.086435 
L 389.838916 172.085769 
L 390.385338 171.919684 
L 391.204972 171.324931 
L 391.751394 170.897291 
L 392.024605 170.333992 
L 392.297816 170.333992 
L 392.571027 169.937211 
L 393.663871 169.390331 
L 394.210294 169.366841 
L 395.029927 169.608275 
L 395.576349 169.90776 
L 396.122771 170.193012 
L 396.942405 170.29755 
L 398.035249 169.924211 
L 398.581671 169.508207 
L 399.128093 168.892425 
L 400.76736 167.681823 
L 401.586993 167.578326 
L 402.406627 167.771184 
L 403.772682 167.991277 
L 404.865526 167.645816 
L 405.138738 167.416186 
L 405.68516 166.821732 
L 407.324426 165.644744 
L 408.14406 165.464933 
L 408.690482 165.546606 
L 409.783326 165.936516 
L 410.056537 166.179237 
L 410.329748 166.179237 
L 410.876171 166.324794 
L 411.695804 166.25655 
L 411.969015 166.134357 
L 412.515437 165.710987 
L 413.061859 165.313751 
L 413.335071 164.883274 
L 413.608282 164.883274 
L 413.881493 164.267143 
L 414.427915 163.995625 
L 415.520759 163.423913 
L 416.613604 163.443171 
L 418.526081 163.890227 
L 419.618926 163.606428 
L 419.892137 163.333182 
L 420.165348 163.333182 
L 420.438559 162.79842 
L 420.984981 162.51924 
L 422.077826 161.885299 
L 422.897459 161.901426 
L 423.17067 162.056515 
L 423.443881 162.056515 
L 423.717092 162.396198 
L 424.536726 162.644898 
L 424.809937 162.768845 
L 426.175992 162.680592 
L 426.449203 162.478632 
L 426.722414 162.478632 
L 426.995625 162.045808 
L 427.542048 161.811144 
L 429.181314 160.999716 
L 430.000948 161.006329 
L 431.093792 161.608163 
L 431.367003 162.011423 
L 431.640214 162.011423 
L 431.913425 162.65569 
L 432.186636 162.757834 
L 432.186636 162.757834 
" clip-path="url(#p6c756f1e5a)" style="fill: none; stroke: #0000ff; stroke-width: 1.5; stroke-linecap: square"/>
   </g>
   <g id="patch_8">
    <path d="M 58.106 190.3975 
L 58.106 139.92 
" style="fill: none; stroke: #000000; stroke-width: 0.8; stroke-linejoin: miter; stroke-linecap: square"/>
   </g>
   <g id="patch_9">
    <path d="M 450 190.3975 
L 450 139.92 
" style="fill: none; stroke: #000000; stroke-width: 0.8; stroke-linejoin: miter; stroke-linecap: square"/>
   </g>
   <g id="patch_10">
    <path d="M 58.106 190.3975 
L 450 190.3975 
" style="fill: none; stroke: #000000; stroke-width: 0.8; stroke-linejoin: miter; stroke-linecap: square"/>
   </g>
   <g id="patch_11">
    <path d="M 58.106 139.92 
L 450 139.92 
" style="fill: none; stroke: #000000; stroke-width: 0.8; stroke-linejoin: miter; stroke-linecap: square"/>
   </g>
   <g id="text_25">
    <!-- Error in $z$-position -->
    <g transform="translate(200.773 133.92)scale(0.12 -0.12)">
     <use xlink:href="#DejaVuSans-45" transform="translate(0 0.015625)"/>
     <use xlink:href="#DejaVuSans-72" transform="translate(63.183594 0.015625)"/>
     <use xlink:href="#DejaVuSans-72" transform="translate(104.296875 0.015625)"/>
     <use xlink:href="#DejaVuSans-6f" transform="translate(145.410156 0.015625)"/>
     <use xlink:href="#DejaVuSans-72" transform="translate(206.591797 0.015625)"/>
     <use xlink:href="#DejaVuSans-20" transform="translate(247.705078 0.015625)"/>
     <use xlink:href="#DejaVuSans-69" transform="translate(279.492188 0.015625)"/>
     <use xlink:href="#DejaVuSans-6e" transform="translate(307.275391 0.015625)"/>
     <use xlink:href="#DejaVuSans-20" transform="translate(370.654297 0.015625)"/>
     <use xlink:href="#DejaVuSans-Oblique-7a" transform="translate(402.441406 0.015625)"/>
     <use xlink:href="#DejaVuSans-2d" transform="translate(454.931641 0.015625)"/>
     <use xlink:href="#DejaVuSans-70" transform="translate(491.015625 0.015625)"/>
     <use xlink:href="#DejaVuSans-6f" transform="translate(554.492188 0.015625)"/>
     <use xlink:href="#DejaVuSans-73" transform="translate(615.673828 0.015625)"/>
     <use xlink:href="#DejaVuSans-69" transform="translate(667.773438 0.015625)"/>
     <use xlink:href="#DejaVuSans-74" transform="translate(695.556641 0.015625)"/>
     <use xlink:href="#DejaVuSans-69" transform="translate(734.765625 0.015625)"/>
     <use xlink:href="#DejaVuSans-6f" transform="translate(762.548828 0.015625)"/>
     <use xlink:href="#DejaVuSans-6e" transform="translate(823.730469 0.015625)"/>
    </g>
   </g>
  </g>
  <g id="axes_3">
   <g id="patch_12">
    <path d="M 58.106 301.9975 
L 450 301.9975 
L 450 251.52 
L 58.106 251.52 
z
" style="fill: #ffffff"/>
   </g>
   <g id="matplotlib.axis_5">
    <g id="xtick_15">
     <g id="line2d_41">
      <path d="M 75.919364 301.9975 
L 75.919364 251.52 
" clip-path="url(#p4ef06307e6)" style="fill: none; stroke: #b0b0b0; stroke-width: 0.8; stroke-linecap: square"/>
     </g>
     <g id="line2d_42">
      <g>
       <use xlink:href="#m8e7c97886c" x="75.919364" y="301.9975" style="stroke: #000000; stroke-width: 0.8"/>
      </g>
     </g>
     <g id="text_26">
      <!-- 0 -->
      <g transform="translate(72.738114 316.595937)scale(0.1 -0.1)">
       <use xlink:href="#DejaVuSans-30"/>
      </g>
     </g>
    </g>
    <g id="xtick_16">
     <g id="line2d_43">
      <path d="M 130.519712 301.9975 
L 130.519712 251.52 
" clip-path="url(#p4ef06307e6)" style="fill: none; stroke: #b0b0b0; stroke-width: 0.8; stroke-linecap: square"/>
     </g>
     <g id="line2d_44">
      <g>
       <use xlink:href="#m8e7c97886c" x="130.519712" y="301.9975" style="stroke: #000000; stroke-width: 0.8"/>
      </g>
     </g>
     <g id="text_27">
      <!-- 2 -->
      <g transform="translate(127.338462 316.595937)scale(0.1 -0.1)">
       <use xlink:href="#DejaVuSans-32"/>
      </g>
     </g>
    </g>
    <g id="xtick_17">
     <g id="line2d_45">
      <path d="M 185.12006 301.9975 
L 185.12006 251.52 
" clip-path="url(#p4ef06307e6)" style="fill: none; stroke: #b0b0b0; stroke-width: 0.8; stroke-linecap: square"/>
     </g>
     <g id="line2d_46">
      <g>
       <use xlink:href="#m8e7c97886c" x="185.12006" y="301.9975" style="stroke: #000000; stroke-width: 0.8"/>
      </g>
     </g>
     <g id="text_28">
      <!-- 4 -->
      <g transform="translate(181.93881 316.595937)scale(0.1 -0.1)">
       <use xlink:href="#DejaVuSans-34"/>
      </g>
     </g>
    </g>
    <g id="xtick_18">
     <g id="line2d_47">
      <path d="M 239.720409 301.9975 
L 239.720409 251.52 
" clip-path="url(#p4ef06307e6)" style="fill: none; stroke: #b0b0b0; stroke-width: 0.8; stroke-linecap: square"/>
     </g>
     <g id="line2d_48">
      <g>
       <use xlink:href="#m8e7c97886c" x="239.720409" y="301.9975" style="stroke: #000000; stroke-width: 0.8"/>
      </g>
     </g>
     <g id="text_29">
      <!-- 6 -->
      <g transform="translate(236.539159 316.595937)scale(0.1 -0.1)">
       <use xlink:href="#DejaVuSans-36"/>
      </g>
     </g>
    </g>
    <g id="xtick_19">
     <g id="line2d_49">
      <path d="M 294.320757 301.9975 
L 294.320757 251.52 
" clip-path="url(#p4ef06307e6)" style="fill: none; stroke: #b0b0b0; stroke-width: 0.8; stroke-linecap: square"/>
     </g>
     <g id="line2d_50">
      <g>
       <use xlink:href="#m8e7c97886c" x="294.320757" y="301.9975" style="stroke: #000000; stroke-width: 0.8"/>
      </g>
     </g>
     <g id="text_30">
      <!-- 8 -->
      <g transform="translate(291.139507 316.595937)scale(0.1 -0.1)">
       <use xlink:href="#DejaVuSans-38"/>
      </g>
     </g>
    </g>
    <g id="xtick_20">
     <g id="line2d_51">
      <path d="M 348.921105 301.9975 
L 348.921105 251.52 
" clip-path="url(#p4ef06307e6)" style="fill: none; stroke: #b0b0b0; stroke-width: 0.8; stroke-linecap: square"/>
     </g>
     <g id="line2d_52">
      <g>
       <use xlink:href="#m8e7c97886c" x="348.921105" y="301.9975" style="stroke: #000000; stroke-width: 0.8"/>
      </g>
     </g>
     <g id="text_31">
      <!-- 10 -->
      <g transform="translate(342.558605 316.595937)scale(0.1 -0.1)">
       <use xlink:href="#DejaVuSans-31"/>
       <use xlink:href="#DejaVuSans-30" x="63.623047"/>
      </g>
     </g>
    </g>
    <g id="xtick_21">
     <g id="line2d_53">
      <path d="M 403.521454 301.9975 
L 403.521454 251.52 
" clip-path="url(#p4ef06307e6)" style="fill: none; stroke: #b0b0b0; stroke-width: 0.8; stroke-linecap: square"/>
     </g>
     <g id="line2d_54">
      <g>
       <use xlink:href="#m8e7c97886c" x="403.521454" y="301.9975" style="stroke: #000000; stroke-width: 0.8"/>
      </g>
     </g>
     <g id="text_32">
      <!-- 12 -->
      <g transform="translate(397.158954 316.595937)scale(0.1 -0.1)">
       <use xlink:href="#DejaVuSans-31"/>
       <use xlink:href="#DejaVuSans-32" x="63.623047"/>
      </g>
     </g>
    </g>
    <g id="text_33">
     <!-- $t$ [s] -->
     <g transform="translate(243.953 330.274063)scale(0.1 -0.1)">
      <use xlink:href="#DejaVuSans-Oblique-74" transform="translate(0 0.015625)"/>
      <use xlink:href="#DejaVuSans-20" transform="translate(39.208984 0.015625)"/>
      <use xlink:href="#DejaVuSans-5b" transform="translate(70.996094 0.015625)"/>
      <use xlink:href="#DejaVuSans-73" transform="translate(110.009766 0.015625)"/>
      <use xlink:href="#DejaVuSans-5d" transform="translate(162.109375 0.015625)"/>
     </g>
    </g>
   </g>
   <g id="matplotlib.axis_6">
    <g id="ytick_6">
     <g id="line2d_55">
      <path d="M 58.106 301.770266 
L 450 301.770266 
" clip-path="url(#p4ef06307e6)" style="fill: none; stroke: #b0b0b0; stroke-width: 0.8; stroke-linecap: square"/>
     </g>
     <g id="line2d_56">
      <g>
       <use xlink:href="#mead6520706" x="58.106" y="301.770266" style="stroke: #000000; stroke-width: 0.8"/>
      </g>
     </g>
     <g id="text_34">
      <!-- −0.2 -->
      <g transform="translate(26.823188 305.569485)scale(0.1 -0.1)">
       <use xlink:href="#DejaVuSans-2212"/>
       <use xlink:href="#DejaVuSans-30" x="83.789062"/>
       <use xlink:href="#DejaVuSans-2e" x="147.412109"/>
       <use xlink:href="#DejaVuSans-32" x="179.199219"/>
      </g>
     </g>
    </g>
    <g id="ytick_7">
     <g id="line2d_57">
      <path d="M 58.106 272.256508 
L 450 272.256508 
" clip-path="url(#p4ef06307e6)" style="fill: none; stroke: #b0b0b0; stroke-width: 0.8; stroke-linecap: square"/>
     </g>
     <g id="line2d_58">
      <g>
       <use xlink:href="#mead6520706" x="58.106" y="272.256508" style="stroke: #000000; stroke-width: 0.8"/>
      </g>
     </g>
     <g id="text_35">
      <!-- 0.0 -->
      <g transform="translate(35.202875 276.055727)scale(0.1 -0.1)">
       <use xlink:href="#DejaVuSans-30"/>
       <use xlink:href="#DejaVuSans-2e" x="63.623047"/>
       <use xlink:href="#DejaVuSans-30" x="95.410156"/>
      </g>
     </g>
    </g>
    <g id="text_36">
     <!-- $e_\theta$ [rad] -->
     <g transform="translate(20.7435 295.90875)rotate(-90)scale(0.1 -0.1)">
      <defs>
       <path id="DejaVuSans-Oblique-3b8" d="M 2913 2219 
L 925 2219 
Q 791 1284 928 888 
Q 1100 400 1566 400 
Q 2034 400 2391 891 
Q 2703 1322 2913 2219 
z
M 3009 2750 
Q 3094 3638 2984 3950 
Q 2813 4444 2353 4444 
Q 1875 4444 1525 3956 
Q 1250 3563 1034 2750 
L 3009 2750 
z
M 2444 4913 
Q 3194 4913 3494 4250 
Q 3794 3591 3566 2422 
Q 3341 1256 2781 594 
Q 2225 -72 1475 -72 
Q 722 -72 425 594 
Q 128 1256 353 2422 
Q 581 3591 1134 4250 
Q 1691 4913 2444 4913 
z
" transform="scale(0.015625)"/>
       <path id="DejaVuSans-61" d="M 2194 1759 
Q 1497 1759 1228 1600 
Q 959 1441 959 1056 
Q 959 750 1161 570 
Q 1363 391 1709 391 
Q 2188 391 2477 730 
Q 2766 1069 2766 1631 
L 2766 1759 
L 2194 1759 
z
M 3341 1997 
L 3341 0 
L 2766 0 
L 2766 531 
Q 2569 213 2275 61 
Q 1981 -91 1556 -91 
Q 1019 -91 701 211 
Q 384 513 384 1019 
Q 384 1609 779 1909 
Q 1175 2209 1959 2209 
L 2766 2209 
L 2766 2266 
Q 2766 2663 2505 2880 
Q 2244 3097 1772 3097 
Q 1472 3097 1187 3025 
Q 903 2953 641 2809 
L 641 3341 
Q 956 3463 1253 3523 
Q 1550 3584 1831 3584 
Q 2591 3584 2966 3190 
Q 3341 2797 3341 1997 
z
" transform="scale(0.015625)"/>
       <path id="DejaVuSans-64" d="M 2906 2969 
L 2906 4863 
L 3481 4863 
L 3481 0 
L 2906 0 
L 2906 525 
Q 2725 213 2448 61 
Q 2172 -91 1784 -91 
Q 1150 -91 751 415 
Q 353 922 353 1747 
Q 353 2572 751 3078 
Q 1150 3584 1784 3584 
Q 2172 3584 2448 3432 
Q 2725 3281 2906 2969 
z
M 947 1747 
Q 947 1113 1208 752 
Q 1469 391 1925 391 
Q 2381 391 2643 752 
Q 2906 1113 2906 1747 
Q 2906 2381 2643 2742 
Q 2381 3103 1925 3103 
Q 1469 3103 1208 2742 
Q 947 2381 947 1747 
z
" transform="scale(0.015625)"/>
      </defs>
      <use xlink:href="#DejaVuSans-Oblique-65" transform="translate(0 0.015625)"/>
      <use xlink:href="#DejaVuSans-Oblique-3b8" transform="translate(61.523438 -16.390625)scale(0.7)"/>
      <use xlink:href="#DejaVuSans-20" transform="translate(107.084961 0.015625)"/>
      <use xlink:href="#DejaVuSans-5b" transform="translate(138.87207 0.015625)"/>
      <use xlink:href="#DejaVuSans-72" transform="translate(177.885742 0.015625)"/>
      <use xlink:href="#DejaVuSans-61" transform="translate(218.999023 0.015625)"/>
      <use xlink:href="#DejaVuSans-64" transform="translate(280.27832 0.015625)"/>
      <use xlink:href="#DejaVuSans-5d" transform="translate(343.754883 0.015625)"/>
     </g>
    </g>
   </g>
   <g id="line2d_59">
    <path d="M 75.919364 272.264005 
L 76.192575 272.381377 
L 76.465786 272.639994 
L 77.55863 274.725143 
L 77.831841 274.262803 
L 78.378264 272.601437 
L 78.651475 271.438408 
L 78.924686 269.462433 
L 79.197897 266.645644 
L 80.290741 261.003737 
L 80.563952 259.087256 
L 80.837163 259.087256 
L 81.110375 257.562574 
L 81.656797 256.457161 
L 82.203219 255.805547 
L 82.749641 256.415052 
L 83.296063 257.635664 
L 83.569274 258.475065 
L 83.842485 260.019585 
L 84.388908 264.272102 
L 85.208541 269.980581 
L 85.481752 273.255995 
L 85.754963 277.91355 
L 87.121019 289.780837 
L 87.39423 293.006615 
L 88.487074 297.881309 
L 88.760285 298.74407 
L 89.033496 298.761497 
L 89.306707 298.500368 
L 89.579919 297.960993 
L 89.85313 297.137753 
L 90.126341 295.351969 
L 90.672763 290.078192 
L 91.492396 283.488773 
L 92.038818 275.85977 
L 92.31203 275.85977 
L 92.585241 272.010217 
L 93.404874 266.632067 
L 93.678085 264.164891 
L 93.951296 264.164891 
L 94.224507 261.950055 
L 95.317352 257.527531 
L 95.590563 257.527531 
L 95.863774 256.793183 
L 96.136985 256.551142 
L 96.683407 256.600357 
L 97.229829 256.95703 
L 97.776252 257.647243 
L 98.322674 257.782055 
L 98.869096 257.713708 
L 99.96194 256.863422 
L 100.508363 256.682201 
L 100.781574 256.543662 
L 101.327996 256.623651 
L 102.147629 257.136971 
L 103.240474 259.791709 
L 103.513685 260.79506 
L 103.786896 260.79506 
L 104.060107 262.320008 
L 104.333318 263.156784 
L 105.152951 267.454054 
L 105.426162 267.454054 
L 105.699373 269.597096 
L 105.972584 270.718596 
L 106.792218 276.273701 
L 107.065429 276.273701 
L 107.33864 278.975474 
L 107.885062 281.728085 
L 108.704695 287.392529 
L 109.524329 290.354016 
L 109.79754 290.956025 
L 110.070751 291.092458 
L 110.343962 291.092458 
L 111.163595 289.521348 
L 111.436806 288.406502 
L 111.710018 286.656661 
L 112.802862 282.715037 
L 113.622495 278.458943 
L 114.442129 276.405147 
L 114.71534 275.839643 
L 114.988551 275.758383 
L 115.261762 276.026753 
L 115.808184 277.107867 
L 116.354606 278.613152 
L 116.901028 280.653406 
L 117.17424 280.829095 
L 117.447451 280.772322 
L 117.720662 280.48056 
L 117.993873 279.970076 
L 118.267084 278.848865 
L 118.540295 276.855153 
L 119.359928 273.31745 
L 120.179562 268.017158 
L 120.999195 265.099639 
L 121.545617 263.142562 
L 121.818828 261.724777 
L 122.911673 258.916683 
L 123.731306 256.142493 
L 124.277728 255.307295 
L 124.550939 255.031655 
L 124.82415 254.945457 
L 125.097361 255.228092 
L 125.643784 256.386105 
L 126.190206 258.215841 
L 126.463417 259.296717 
L 127.28305 263.968085 
L 127.829472 265.322984 
L 128.375895 266.091296 
L 128.922317 265.544758 
L 129.468739 264.510127 
L 129.74195 263.86953 
L 130.561583 260.826507 
L 131.108006 259.77883 
L 131.654428 259.016708 
L 131.927639 258.976299 
L 132.474061 259.385637 
L 133.020483 260.077978 
L 134.113328 262.298156 
L 135.479383 263.989208 
L 136.025805 264.060675 
L 136.299016 264.000115 
L 136.572228 263.797926 
L 137.11865 263.100509 
L 138.211494 262.21368 
L 138.757916 262.485709 
L 139.304339 263.051479 
L 139.57755 263.413586 
L 139.850761 264.032661 
L 140.123972 264.952968 
L 141.216816 266.908524 
L 142.03645 268.830562 
L 143.129294 270.28215 
L 143.402505 270.874249 
L 144.222138 271.916956 
L 144.495349 272.748482 
L 144.768561 272.748482 
L 145.041772 274.00725 
L 145.314983 274.202605 
L 146.407827 275.605413 
L 147.22746 276.173417 
L 147.500672 276.359559 
L 147.773883 276.728955 
L 148.047094 276.728955 
L 148.320305 277.129137 
L 149.139938 277.121973 
L 149.68636 276.381691 
L 150.779205 273.594613 
L 151.052416 271.962946 
L 151.872049 269.355674 
L 152.14526 268.244104 
L 152.418471 268.244104 
L 152.691682 267.600795 
L 153.238105 267.327845 
L 154.057738 267.164754 
L 154.877371 266.146249 
L 155.150582 265.660954 
L 155.423793 264.764509 
L 155.697004 263.301795 
L 156.789849 259.89786 
L 157.336271 257.422519 
L 157.882693 256.512712 
L 158.429115 255.980503 
L 158.702327 255.860032 
L 159.52196 256.514255 
L 160.614804 257.755557 
L 160.888015 258.175793 
L 161.707649 258.539429 
L 162.254071 258.595296 
L 163.893337 257.995282 
L 164.712971 258.109772 
L 165.259393 258.373302 
L 165.532604 258.661998 
L 166.079026 259.401848 
L 166.625448 259.962338 
L 166.89866 260.679352 
L 167.171871 260.679352 
L 167.445082 261.193083 
L 168.537926 262.086498 
L 169.084348 262.193679 
L 170.177193 262.333119 
L 171.543248 263.08592 
L 171.816459 263.321869 
L 172.909304 264.796729 
L 173.455726 265.175211 
L 173.728937 265.175211 
L 174.002148 264.912426 
L 174.54857 264.649478 
L 175.368204 264.21008 
L 175.641415 264.378755 
L 175.914626 264.841517 
L 176.187837 265.075962 
L 176.461048 265.686775 
L 176.734259 267.492204 
L 177.00747 267.492204 
L 177.280681 271.483041 
L 177.553892 272.254673 
L 178.100315 275.473713 
L 178.373526 278.542619 
L 178.646737 278.542619 
L 178.919948 281.53048 
L 179.46637 281.960632 
L 179.739581 281.836552 
L 180.012792 280.694992 
L 180.286003 280.694992 
L 180.559214 277.44654 
L 180.832426 276.808422 
L 181.378848 274.181041 
L 181.652059 271.630943 
L 182.744903 266.792808 
L 183.291325 266.707054 
L 183.564537 267.12776 
L 183.837748 268.308352 
L 184.110959 270.039341 
L 184.38417 270.713294 
L 184.657381 272.162607 
L 184.930592 275.24294 
L 185.750225 279.513568 
L 186.023436 280.395241 
L 186.296648 280.312933 
L 186.569859 279.889817 
L 187.116281 278.148105 
L 187.389492 276.246487 
L 187.662703 273.238465 
L 187.935914 273.238465 
L 188.209125 270.026973 
L 189.30197 263.160992 
L 189.575181 260.784745 
L 190.121603 259.243468 
L 190.394814 258.877921 
L 190.668025 258.814019 
L 190.941236 259.289802 
L 191.487658 262.060218 
L 192.580503 267.751251 
L 193.126925 271.407222 
L 193.400136 271.795913 
L 193.673347 271.852341 
L 193.946558 271.584968 
L 194.219769 269.700614 
L 194.49298 269.700614 
L 194.766192 267.323176 
L 195.585825 263.191454 
L 195.859036 260.461133 
L 196.132247 260.461133 
L 196.405458 256.770912 
L 196.678669 256.234973 
L 197.225091 254.504401 
L 197.498303 253.814432 
L 197.771514 253.814432 
L 198.044725 255.171826 
L 198.317936 255.65773 
L 198.864358 258.195503 
L 199.137569 262.287338 
L 199.41078 262.287338 
L 199.683991 265.806118 
L 200.776836 272.50851 
L 201.323258 272.434406 
L 201.596469 271.896125 
L 202.142891 270.093223 
L 202.962525 263.874565 
L 203.235736 263.245606 
L 203.782158 260.865049 
L 204.055369 258.926608 
L 204.32858 257.969675 
L 204.601791 257.537558 
L 204.875002 257.521346 
L 205.148213 257.693406 
L 205.421424 258.16275 
L 206.241058 263.612642 
L 206.78748 268.905684 
L 207.060691 268.905684 
L 207.333902 272.210306 
L 208.153535 275.810608 
L 208.426747 275.867263 
L 208.699958 275.721537 
L 209.519591 272.049089 
L 210.066013 268.506302 
L 210.339224 268.506302 
L 210.612435 266.185912 
L 211.70528 262.258945 
L 211.978491 262.333853 
L 212.251702 262.703207 
L 212.798124 264.277377 
L 213.071335 266.099875 
L 213.344546 269.127479 
L 214.710602 276.884248 
L 214.983813 278.203842 
L 215.257024 278.679597 
L 215.530235 278.393825 
L 216.076657 277.001865 
L 216.623079 274.895128 
L 217.715924 268.008113 
L 218.262346 265.069077 
L 218.535557 263.378561 
L 218.808768 262.928034 
L 219.081979 262.782289 
L 219.35519 262.94951 
L 219.628402 263.790924 
L 220.174824 267.277903 
L 221.267668 273.675013 
L 221.81409 277.519413 
L 222.087301 277.892727 
L 222.360513 277.901186 
L 222.633724 277.560143 
L 222.906935 276.903647 
L 223.180146 275.435198 
L 223.453357 272.850194 
L 224.546201 266.88471 
L 225.365835 260.667526 
L 225.912257 258.631308 
L 226.458679 257.483335 
L 227.005101 258.947431 
L 227.551523 261.429932 
L 227.824735 262.989926 
L 228.917579 272.361151 
L 229.464001 274.70681 
L 229.737212 275.376576 
L 230.010423 275.667059 
L 230.830057 272.815546 
L 231.103268 271.553545 
L 231.376479 268.750337 
L 231.64969 268.750337 
L 231.922901 264.368013 
L 232.196112 263.652758 
L 232.742534 260.892852 
L 233.015745 258.430769 
L 233.288956 258.430769 
L 233.562168 256.058907 
L 234.10859 255.683218 
L 234.381801 255.797428 
L 234.928223 258.041108 
L 235.747856 263.513097 
L 236.021067 265.360786 
L 236.294279 269.043431 
L 237.113912 274.101636 
L 237.660334 274.728729 
L 237.933545 274.390794 
L 238.206756 274.390794 
L 238.479967 271.928196 
L 238.753178 271.368538 
L 239.299601 268.921248 
L 239.572812 266.329492 
L 239.846023 266.329492 
L 240.119234 262.568847 
L 240.392445 261.98055 
L 240.938867 259.911981 
L 241.485289 258.712379 
L 242.031712 260.014201 
L 242.578134 262.343513 
L 242.851345 263.824405 
L 243.944189 273.064719 
L 244.763823 277.03177 
L 245.037034 277.60105 
L 245.310245 277.388073 
L 245.583456 276.882334 
L 246.129878 275.175301 
L 246.403089 273.477684 
L 246.6763 270.926918 
L 248.042356 263.921259 
L 248.315567 262.286878 
L 248.588778 261.832805 
L 248.861989 261.629188 
L 249.1352 261.672911 
L 249.408411 262.175807 
L 249.954834 264.768569 
L 250.774467 268.85902 
L 251.047678 270.331558 
L 251.867311 275.843613 
L 252.686945 277.946886 
L 252.960156 277.946886 
L 253.506578 276.84617 
L 254.053 275.138333 
L 254.326211 274.070098 
L 254.599422 272.27968 
L 254.872633 269.695409 
L 256.5119 261.983198 
L 256.785111 261.886377 
L 257.058322 262.093535 
L 257.331533 262.592565 
L 257.604744 263.828738 
L 258.151166 267.715277 
L 258.9708 272.450311 
L 259.517222 277.002684 
L 260.063644 278.250873 
L 260.336855 278.397703 
L 260.610066 278.009997 
L 260.883277 276.468762 
L 261.156489 276.468762 
L 261.702911 272.596912 
L 262.249333 267.876836 
L 262.522544 267.075153 
L 262.795755 265.484963 
L 263.068966 262.425708 
L 264.161811 257.224273 
L 264.435022 257.224273 
L 264.708233 257.428051 
L 264.981444 258.017809 
L 265.254655 258.898927 
L 265.527866 260.687389 
L 265.801077 263.687396 
L 266.074288 263.687396 
L 266.347499 266.955946 
L 267.440344 273.675308 
L 267.713555 274.048066 
L 267.986766 274.113152 
L 268.259977 273.888584 
L 268.533188 273.401381 
L 268.806399 272.682201 
L 269.07961 271.245918 
L 269.352822 268.858332 
L 270.445666 263.470003 
L 270.718877 260.381019 
L 270.992088 260.381019 
L 271.265299 258.612978 
L 271.53851 258.085164 
L 271.811721 257.839041 
L 272.084933 257.908649 
L 272.358144 259.536041 
L 272.631355 259.536041 
L 273.177777 263.598179 
L 273.724199 266.852104 
L 273.99741 270.712882 
L 274.270621 270.712882 
L 274.543832 273.310723 
L 275.090255 275.170976 
L 275.363466 275.729657 
L 275.636677 276.034783 
L 276.183099 274.82228 
L 276.729521 272.939166 
L 277.002732 271.78145 
L 278.095577 264.579541 
L 278.641999 262.197748 
L 278.91521 260.163355 
L 279.188421 260.163355 
L 279.461632 259.836243 
L 279.734843 260.153738 
L 280.008054 260.775557 
L 280.281265 261.679199 
L 281.100899 269.002626 
L 281.37411 269.818574 
L 281.920532 272.909629 
L 282.193743 275.387834 
L 282.740165 277.132492 
L 283.013376 277.405705 
L 283.286588 277.13714 
L 283.559799 277.13714 
L 284.379432 273.708913 
L 284.925854 270.105001 
L 285.199065 270.105001 
L 285.472276 267.56109 
L 286.565121 262.567777 
L 286.838332 262.343599 
L 287.111543 262.385613 
L 287.384754 262.687662 
L 287.657965 263.231161 
L 287.931176 264.444604 
L 288.204387 266.576727 
L 288.477598 267.158053 
L 289.024021 270.617082 
L 289.297232 271.143414 
L 289.570443 272.103418 
L 289.843654 273.586136 
L 290.390076 274.59361 
L 290.663287 274.77694 
L 291.209709 274.681541 
L 291.482921 274.137429 
L 291.756132 274.137429 
L 292.029343 272.515116 
L 292.302554 272.165518 
L 293.122187 269.765416 
L 293.94182 266.090965 
L 295.034665 263.573184 
L 295.307876 263.016327 
L 295.854298 262.781964 
L 296.40072 262.856673 
L 296.673931 263.185827 
L 298.039987 267.753534 
L 298.313198 269.572743 
L 298.586409 272.163265 
L 300.225676 279.520864 
L 300.498887 279.614098 
L 300.772098 279.405914 
L 301.045309 278.910029 
L 301.31852 278.156571 
L 301.591731 276.621334 
L 301.864942 274.020831 
L 302.684576 269.505105 
L 302.957787 266.398714 
L 303.230998 266.398714 
L 303.504209 261.997312 
L 303.77742 261.320984 
L 304.597053 257.283238 
L 305.143475 257.251489 
L 305.416687 257.555937 
L 305.963109 259.595291 
L 306.23632 261.047405 
L 306.509531 263.630072 
L 306.782742 267.518541 
L 308.422009 278.773999 
L 308.69522 279.084946 
L 308.968431 279.077641 
L 309.241642 278.769215 
L 309.514853 278.190603 
L 309.788064 276.879103 
L 310.061275 274.48888 
L 310.880909 270.108033 
L 311.15412 266.231585 
L 311.427331 266.231585 
L 311.700542 263.257701 
L 312.520175 259.593921 
L 312.793386 258.548805 
L 313.066597 258.319513 
L 313.339808 258.716168 
L 313.886231 260.451876 
L 314.432653 263.22363 
L 314.705864 265.775306 
L 314.979075 269.494674 
L 315.798708 274.890979 
L 316.071919 278.131104 
L 316.345131 278.131104 
L 316.618342 279.276954 
L 316.891553 279.350908 
L 317.164764 279.126058 
L 317.437975 278.633535 
L 317.711186 277.907737 
L 317.984397 276.463626 
L 318.257608 274.045582 
L 319.077241 269.846848 
L 319.896875 263.479465 
L 320.716508 260.182789 
L 321.26293 258.932116 
L 321.536141 259.285681 
L 322.082564 260.778364 
L 322.355775 261.887095 
L 322.628986 264.659735 
L 322.902197 264.659735 
L 323.175408 269.688104 
L 323.448619 270.568689 
L 323.995041 273.964677 
L 324.268252 276.541665 
L 324.541463 276.541665 
L 324.814675 278.060533 
L 325.087886 278.053735 
L 325.361097 277.85892 
L 325.907519 276.853374 
L 326.18073 275.677446 
L 326.453941 273.690113 
L 327.273574 270.14646 
L 327.546786 267.636757 
L 327.819997 267.636757 
L 328.093208 264.361689 
L 328.366419 263.935371 
L 328.912841 262.707235 
L 329.186052 262.398086 
L 329.459263 262.602423 
L 329.732474 263.312934 
L 330.005685 264.4351 
L 330.278897 264.886221 
L 330.552108 265.891078 
L 330.825319 268.235383 
L 331.09853 269.504011 
L 331.918163 274.447316 
L 332.191374 274.447316 
L 332.464585 275.439519 
L 332.737796 275.553057 
L 333.011008 275.421152 
L 333.284219 274.815565 
L 333.55743 273.426842 
L 333.830641 273.426842 
L 334.103852 271.625881 
L 334.650274 269.650966 
L 335.196696 266.321595 
L 335.469907 266.321595 
L 335.743119 264.794153 
L 336.289541 263.774976 
L 336.562752 263.432661 
L 336.835963 263.592217 
L 337.382385 264.386751 
L 337.655596 264.981489 
L 338.202018 267.307027 
L 338.47523 267.7365 
L 338.748441 268.586615 
L 339.021652 270.092163 
L 339.568074 271.210438 
L 339.841285 271.419858 
L 340.387707 271.34612 
L 340.660918 270.893523 
L 340.934129 270.893523 
L 341.20734 269.843804 
L 341.480552 269.652351 
L 342.026974 268.875977 
L 342.300185 268.096568 
L 342.573396 268.096568 
L 342.846607 267.055671 
L 343.393029 266.674867 
L 343.939451 266.436787 
L 344.212663 266.653414 
L 344.485874 267.101556 
L 344.759085 267.299588 
L 345.305507 268.284644 
L 345.578718 269.41995 
L 345.851929 269.41995 
L 346.12514 271.012186 
L 346.398351 271.242663 
L 347.217985 272.492685 
L 347.491196 272.492685 
L 347.764407 272.675829 
L 348.310829 272.619096 
L 348.58404 272.529977 
L 349.403673 271.545313 
L 349.676885 271.050594 
L 349.950096 270.879763 
L 350.223307 270.545451 
L 350.496518 269.974516 
L 351.04294 269.660291 
L 351.316151 269.655514 
L 351.589362 269.967676 
L 351.862573 269.967676 
L 352.955418 272.566873 
L 353.228629 272.824694 
L 353.50184 273.325683 
L 353.775051 274.203954 
L 354.321473 274.739351 
L 354.594684 274.848444 
L 354.867895 274.657272 
L 355.141107 274.657272 
L 355.687529 273.856651 
L 355.96074 273.513864 
L 356.780373 271.959973 
L 357.600006 271.227402 
L 358.146429 270.855324 
L 358.966062 270.929878 
L 359.239273 271.031626 
L 359.512484 271.266776 
L 360.058906 272.006267 
L 360.87854 272.730085 
L 361.424962 272.903388 
L 362.244595 272.124656 
L 362.517806 271.765109 
L 362.791017 271.134475 
L 363.064228 270.161915 
L 364.430284 267.358727 
L 365.523128 264.110777 
L 366.615973 261.780476 
L 366.889184 261.65802 
L 367.162395 261.671053 
L 367.435606 261.821841 
L 367.708817 262.113803 
L 367.982028 262.806812 
L 368.52845 264.920148 
L 369.621295 268.578153 
L 369.894506 269.777794 
L 370.440928 270.437234 
L 370.714139 270.531449 
L 370.98735 270.461291 
L 371.260561 270.060139 
L 371.806984 268.385551 
L 372.626617 266.080865 
L 373.173039 263.844953 
L 373.719461 263.342536 
L 373.992672 263.329936 
L 374.265883 263.474034 
L 374.539095 264.544926 
L 374.812306 264.544926 
L 375.358728 267.053572 
L 376.178361 270.299811 
L 376.997994 274.922044 
L 377.817628 277.084432 
L 378.090839 277.234296 
L 378.910472 276.634845 
L 379.183683 276.244968 
L 379.730105 274.648338 
L 380.003317 274.092537 
L 380.549739 273.676435 
L 381.369372 273.043916 
L 382.189005 272.995187 
L 382.735427 273.135417 
L 383.555061 273.737783 
L 384.101483 274.335193 
L 384.374694 274.967175 
L 384.647905 274.967175 
L 384.921116 275.505546 
L 385.467538 275.503307 
L 385.74075 275.410967 
L 386.560383 274.53668 
L 387.106805 273.963959 
L 387.380016 273.963959 
L 387.926438 273.404481 
L 388.472861 272.910223 
L 388.746072 272.561234 
L 389.292494 272.358277 
L 389.838916 272.421831 
L 390.112127 272.574549 
L 390.385338 272.941342 
L 390.658549 273.580114 
L 391.478183 274.376461 
L 391.751394 274.485719 
L 392.024605 274.259199 
L 392.297816 274.259199 
L 392.844238 273.07195 
L 393.39066 271.953543 
L 394.210294 269.552011 
L 395.029927 268.453514 
L 395.576349 268.147622 
L 396.122771 268.656694 
L 396.669194 269.56837 
L 396.942405 270.540186 
L 397.215616 272.121959 
L 398.581671 276.072527 
L 398.854882 276.396838 
L 399.128093 276.219145 
L 399.401305 275.810454 
L 399.947727 274.401075 
L 400.220938 272.969711 
L 400.494149 270.854086 
L 401.586993 267.047677 
L 402.133416 265.483077 
L 402.406627 265.422183 
L 402.953049 265.666763 
L 403.499471 266.239949 
L 403.772682 266.809005 
L 404.045893 267.685774 
L 405.138738 269.767495 
L 405.411949 270.505557 
L 406.778004 272.097567 
L 407.051215 272.151788 
L 407.597637 271.608385 
L 408.14406 270.69074 
L 408.690482 269.322292 
L 409.236904 268.984664 
L 410.056537 268.832963 
L 411.422593 268.722499 
L 412.515437 268.5631 
L 413.335071 268.482409 
L 413.608282 268.482409 
L 413.881493 269.698393 
L 414.154704 270.048658 
L 414.701126 271.631533 
L 414.974337 273.124802 
L 415.247548 273.124802 
L 415.520759 274.505279 
L 416.067182 274.71232 
L 416.340393 274.659081 
L 416.613604 274.453485 
L 416.886815 273.890064 
L 417.160026 272.790467 
L 417.979659 270.847597 
L 418.25287 269.346561 
L 418.526081 269.346561 
L 418.799293 268.547435 
L 419.345715 268.261193 
L 419.618926 268.33803 
L 419.892137 268.980424 
L 420.165348 268.980424 
L 420.438559 270.543273 
L 420.71177 270.781131 
L 421.258192 271.523373 
L 421.804615 272.169295 
L 422.077826 272.612054 
L 422.897459 273.30026 
L 423.17067 273.726536 
L 423.443881 273.726536 
L 423.717092 273.894093 
L 424.263515 273.743835 
L 424.536726 273.645325 
L 425.083148 273.681417 
L 425.356359 274.925692 
L 425.62957 275.287739 
L 426.175992 277.044279 
L 426.449203 279.049574 
L 426.722414 279.049574 
L 426.995625 281.99987 
L 427.268837 282.481336 
L 428.08847 285.595228 
L 428.361681 287.394682 
L 428.634892 289.990099 
L 430.54737 298.966912 
L 431.093792 299.703068 
L 431.640214 299.618136 
L 431.913425 297.163059 
L 432.186636 296.460418 
L 432.186636 296.460418 
" clip-path="url(#p4ef06307e6)" style="fill: none; stroke: #008000; stroke-width: 1.5; stroke-linecap: square"/>
   </g>
   <g id="patch_13">
    <path d="M 58.106 301.9975 
L 58.106 251.52 
" style="fill: none; stroke: #000000; stroke-width: 0.8; stroke-linejoin: miter; stroke-linecap: square"/>
   </g>
   <g id="patch_14">
    <path d="M 450 301.9975 
L 450 251.52 
" style="fill: none; stroke: #000000; stroke-width: 0.8; stroke-linejoin: miter; stroke-linecap: square"/>
   </g>
   <g id="patch_15">
    <path d="M 58.106 301.9975 
L 450 301.9975 
" style="fill: none; stroke: #000000; stroke-width: 0.8; stroke-linejoin: miter; stroke-linecap: square"/>
   </g>
   <g id="patch_16">
    <path d="M 58.106 251.52 
L 450 251.52 
" style="fill: none; stroke: #000000; stroke-width: 0.8; stroke-linejoin: miter; stroke-linecap: square"/>
   </g>
   <g id="text_37">
    <!-- Error in swing angle -->
    <g transform="translate(194.282688 245.52)scale(0.12 -0.12)">
     <defs>
      <path id="DejaVuSans-77" d="M 269 3500 
L 844 3500 
L 1563 769 
L 2278 3500 
L 2956 3500 
L 3675 769 
L 4391 3500 
L 4966 3500 
L 4050 0 
L 3372 0 
L 2619 2869 
L 1863 0 
L 1184 0 
L 269 3500 
z
" transform="scale(0.015625)"/>
      <path id="DejaVuSans-67" d="M 2906 1791 
Q 2906 2416 2648 2759 
Q 2391 3103 1925 3103 
Q 1463 3103 1205 2759 
Q 947 2416 947 1791 
Q 947 1169 1205 825 
Q 1463 481 1925 481 
Q 2391 481 2648 825 
Q 2906 1169 2906 1791 
z
M 3481 434 
Q 3481 -459 3084 -895 
Q 2688 -1331 1869 -1331 
Q 1566 -1331 1297 -1286 
Q 1028 -1241 775 -1147 
L 775 -588 
Q 1028 -725 1275 -790 
Q 1522 -856 1778 -856 
Q 2344 -856 2625 -561 
Q 2906 -266 2906 331 
L 2906 616 
Q 2728 306 2450 153 
Q 2172 0 1784 0 
Q 1141 0 747 490 
Q 353 981 353 1791 
Q 353 2603 747 3093 
Q 1141 3584 1784 3584 
Q 2172 3584 2450 3431 
Q 2728 3278 2906 2969 
L 2906 3500 
L 3481 3500 
L 3481 434 
z
" transform="scale(0.015625)"/>
      <path id="DejaVuSans-6c" d="M 603 4863 
L 1178 4863 
L 1178 0 
L 603 0 
L 603 4863 
z
" transform="scale(0.015625)"/>
      <path id="DejaVuSans-65" d="M 3597 1894 
L 3597 1613 
L 953 1613 
Q 991 1019 1311 708 
Q 1631 397 2203 397 
Q 2534 397 2845 478 
Q 3156 559 3463 722 
L 3463 178 
Q 3153 47 2828 -22 
Q 2503 -91 2169 -91 
Q 1331 -91 842 396 
Q 353 884 353 1716 
Q 353 2575 817 3079 
Q 1281 3584 2069 3584 
Q 2775 3584 3186 3129 
Q 3597 2675 3597 1894 
z
M 3022 2063 
Q 3016 2534 2758 2815 
Q 2500 3097 2075 3097 
Q 1594 3097 1305 2825 
Q 1016 2553 972 2059 
L 3022 2063 
z
" transform="scale(0.015625)"/>
     </defs>
     <use xlink:href="#DejaVuSans-45"/>
     <use xlink:href="#DejaVuSans-72" x="63.183594"/>
     <use xlink:href="#DejaVuSans-72" x="102.546875"/>
     <use xlink:href="#DejaVuSans-6f" x="141.410156"/>
     <use xlink:href="#DejaVuSans-72" x="202.591797"/>
     <use xlink:href="#DejaVuSans-20" x="243.705078"/>
     <use xlink:href="#DejaVuSans-69" x="275.492188"/>
     <use xlink:href="#DejaVuSans-6e" x="303.275391"/>
     <use xlink:href="#DejaVuSans-20" x="366.654297"/>
     <use xlink:href="#DejaVuSans-73" x="398.441406"/>
     <use xlink:href="#DejaVuSans-77" x="450.541016"/>
     <use xlink:href="#DejaVuSans-69" x="532.328125"/>
     <use xlink:href="#DejaVuSans-6e" x="560.111328"/>
     <use xlink:href="#DejaVuSans-67" x="623.490234"/>
     <use xlink:href="#DejaVuSans-20" x="686.966797"/>
     <use xlink:href="#DejaVuSans-61" x="718.753906"/>
     <use xlink:href="#DejaVuSans-6e" x="780.033203"/>
     <use xlink:href="#DejaVuSans-67" x="843.412109"/>
     <use xlink:href="#DejaVuSans-6c" x="906.888672"/>
     <use xlink:href="#DejaVuSans-65" x="934.671875"/>
    </g>
   </g>
  </g>
 </g>
 <defs>
  <clipPath id="p1d9b023cb3">
   <rect x="58.106" y="28.32" width="391.894" height="50.4775"/>
  </clipPath>
  <clipPath id="p6c756f1e5a">
   <rect x="58.106" y="139.92" width="391.894" height="50.4775"/>
  </clipPath>
  <clipPath id="p4ef06307e6">
   <rect x="58.106" y="251.52" width="391.894" height="50.4775"/>
  </clipPath>
 </defs>
</svg>
