<?xml version="1.0" encoding="utf-8" standalone="no"?>
<!DOCTYPE svg PUBLIC "-//W3C//DTD SVG 1.1//EN"
  "http://www.w3.org/Graphics/SVG/1.1/DTD/svg11.dtd">
<svg xmlns:xlink="http://www.w3.org/1999/xlink" width="460.8pt" height="345.6pt" viewBox="0 0 460.8 345.6" xmlns="http://www.w3.org/2000/svg" version="1.1">
 <metadata>
  <rdf:RDF xmlns:dc="http://purl.org/dc/elements/1.1/" xmlns:cc="http://creativecommons.org/ns#" xmlns:rdf="http://www.w3.org/1999/02/22-rdf-syntax-ns#">
   <cc:Work>
    <dc:type rdf:resource="http://purl.org/dc/dcmitype/StillImage"/>
    <dc:date>2022-06-05T14:10:09.747003</dc:date>
    <dc:format>image/svg+xml</dc:format>
    <dc:creator>
     <cc:Agent>
      <dc:title>Matplotlib v3.5.1, https://matplotlib.org/</dc:title>
     </cc:Agent>
    </dc:creator>
   </cc:Work>
  </rdf:RDF>
 </metadata>
 <defs>
  <style type="text/css">*{stroke-linejoin: round; stroke-linecap: butt}</style>
 </defs>
 <g id="figure_1">
  <g id="patch_1">
   <path d="M 0 345.6 
L 460.8 345.6 
L 460.8 0 
L 0 0 
z
" style="fill: #ffffff"/>
  </g>
  <g id="axes_1">
   <g id="patch_2">
    <path d="M 58.106 78.7975 
L 450 78.7975 
L 450 28.32 
L 58.106 28.32 
z
" style="fill: #ffffff"/>
   </g>
   <g id="matplotlib.axis_1">
    <g id="xtick_1">
     <g id="line2d_1">
      <path d="M 75.919364 78.7975 
L 75.919364 28.32 
" clip-path="url(#pd8372e58c3)" style="fill: none; stroke: #b0b0b0; stroke-width: 0.8; stroke-linecap: square"/>
     </g>
     <g id="line2d_2">
      <defs>
       <path id="mf208d45481" d="M 0 0 
L 0 3.5 
" style="stroke: #000000; stroke-width: 0.8"/>
      </defs>
      <g>
       <use xlink:href="#mf208d45481" x="75.919364" y="78.7975" style="stroke: #000000; stroke-width: 0.8"/>
      </g>
     </g>
     <g id="text_1">
      <!-- 0 -->
      <g transform="translate(72.738114 93.395937)scale(0.1 -0.1)">
       <defs>
        <path id="DejaVuSans-30" d="M 2034 4250 
Q 1547 4250 1301 3770 
Q 1056 3291 1056 2328 
Q 1056 1369 1301 889 
Q 1547 409 2034 409 
Q 2525 409 2770 889 
Q 3016 1369 3016 2328 
Q 3016 3291 2770 3770 
Q 2525 4250 2034 4250 
z
M 2034 4750 
Q 2819 4750 3233 4129 
Q 3647 3509 3647 2328 
Q 3647 1150 3233 529 
Q 2819 -91 2034 -91 
Q 1250 -91 836 529 
Q 422 1150 422 2328 
Q 422 3509 836 4129 
Q 1250 4750 2034 4750 
z
" transform="scale(0.015625)"/>
       </defs>
       <use xlink:href="#DejaVuSans-30"/>
      </g>
     </g>
    </g>
    <g id="xtick_2">
     <g id="line2d_3">
      <path d="M 132.3354 78.7975 
L 132.3354 28.32 
" clip-path="url(#pd8372e58c3)" style="fill: none; stroke: #b0b0b0; stroke-width: 0.8; stroke-linecap: square"/>
     </g>
     <g id="line2d_4">
      <g>
       <use xlink:href="#mf208d45481" x="132.3354" y="78.7975" style="stroke: #000000; stroke-width: 0.8"/>
      </g>
     </g>
     <g id="text_2">
      <!-- 2 -->
      <g transform="translate(129.15415 93.395937)scale(0.1 -0.1)">
       <defs>
        <path id="DejaVuSans-32" d="M 1228 531 
L 3431 531 
L 3431 0 
L 469 0 
L 469 531 
Q 828 903 1448 1529 
Q 2069 2156 2228 2338 
Q 2531 2678 2651 2914 
Q 2772 3150 2772 3378 
Q 2772 3750 2511 3984 
Q 2250 4219 1831 4219 
Q 1534 4219 1204 4116 
Q 875 4013 500 3803 
L 500 4441 
Q 881 4594 1212 4672 
Q 1544 4750 1819 4750 
Q 2544 4750 2975 4387 
Q 3406 4025 3406 3419 
Q 3406 3131 3298 2873 
Q 3191 2616 2906 2266 
Q 2828 2175 2409 1742 
Q 1991 1309 1228 531 
z
" transform="scale(0.015625)"/>
       </defs>
       <use xlink:href="#DejaVuSans-32"/>
      </g>
     </g>
    </g>
    <g id="xtick_3">
     <g id="line2d_5">
      <path d="M 188.751437 78.7975 
L 188.751437 28.32 
" clip-path="url(#pd8372e58c3)" style="fill: none; stroke: #b0b0b0; stroke-width: 0.8; stroke-linecap: square"/>
     </g>
     <g id="line2d_6">
      <g>
       <use xlink:href="#mf208d45481" x="188.751437" y="78.7975" style="stroke: #000000; stroke-width: 0.8"/>
      </g>
     </g>
     <g id="text_3">
      <!-- 4 -->
      <g transform="translate(185.570187 93.395937)scale(0.1 -0.1)">
       <defs>
        <path id="DejaVuSans-34" d="M 2419 4116 
L 825 1625 
L 2419 1625 
L 2419 4116 
z
M 2253 4666 
L 3047 4666 
L 3047 1625 
L 3713 1625 
L 3713 1100 
L 3047 1100 
L 3047 0 
L 2419 0 
L 2419 1100 
L 313 1100 
L 313 1709 
L 2253 4666 
z
" transform="scale(0.015625)"/>
       </defs>
       <use xlink:href="#DejaVuSans-34"/>
      </g>
     </g>
    </g>
    <g id="xtick_4">
     <g id="line2d_7">
      <path d="M 245.167474 78.7975 
L 245.167474 28.32 
" clip-path="url(#pd8372e58c3)" style="fill: none; stroke: #b0b0b0; stroke-width: 0.8; stroke-linecap: square"/>
     </g>
     <g id="line2d_8">
      <g>
       <use xlink:href="#mf208d45481" x="245.167474" y="78.7975" style="stroke: #000000; stroke-width: 0.8"/>
      </g>
     </g>
     <g id="text_4">
      <!-- 6 -->
      <g transform="translate(241.986224 93.395937)scale(0.1 -0.1)">
       <defs>
        <path id="DejaVuSans-36" d="M 2113 2584 
Q 1688 2584 1439 2293 
Q 1191 2003 1191 1497 
Q 1191 994 1439 701 
Q 1688 409 2113 409 
Q 2538 409 2786 701 
Q 3034 994 3034 1497 
Q 3034 2003 2786 2293 
Q 2538 2584 2113 2584 
z
M 3366 4563 
L 3366 3988 
Q 3128 4100 2886 4159 
Q 2644 4219 2406 4219 
Q 1781 4219 1451 3797 
Q 1122 3375 1075 2522 
Q 1259 2794 1537 2939 
Q 1816 3084 2150 3084 
Q 2853 3084 3261 2657 
Q 3669 2231 3669 1497 
Q 3669 778 3244 343 
Q 2819 -91 2113 -91 
Q 1303 -91 875 529 
Q 447 1150 447 2328 
Q 447 3434 972 4092 
Q 1497 4750 2381 4750 
Q 2619 4750 2861 4703 
Q 3103 4656 3366 4563 
z
" transform="scale(0.015625)"/>
       </defs>
       <use xlink:href="#DejaVuSans-36"/>
      </g>
     </g>
    </g>
    <g id="xtick_5">
     <g id="line2d_9">
      <path d="M 301.583511 78.7975 
L 301.583511 28.32 
" clip-path="url(#pd8372e58c3)" style="fill: none; stroke: #b0b0b0; stroke-width: 0.8; stroke-linecap: square"/>
     </g>
     <g id="line2d_10">
      <g>
       <use xlink:href="#mf208d45481" x="301.583511" y="78.7975" style="stroke: #000000; stroke-width: 0.8"/>
      </g>
     </g>
     <g id="text_5">
      <!-- 8 -->
      <g transform="translate(298.402261 93.395937)scale(0.1 -0.1)">
       <defs>
        <path id="DejaVuSans-38" d="M 2034 2216 
Q 1584 2216 1326 1975 
Q 1069 1734 1069 1313 
Q 1069 891 1326 650 
Q 1584 409 2034 409 
Q 2484 409 2743 651 
Q 3003 894 3003 1313 
Q 3003 1734 2745 1975 
Q 2488 2216 2034 2216 
z
M 1403 2484 
Q 997 2584 770 2862 
Q 544 3141 544 3541 
Q 544 4100 942 4425 
Q 1341 4750 2034 4750 
Q 2731 4750 3128 4425 
Q 3525 4100 3525 3541 
Q 3525 3141 3298 2862 
Q 3072 2584 2669 2484 
Q 3125 2378 3379 2068 
Q 3634 1759 3634 1313 
Q 3634 634 3220 271 
Q 2806 -91 2034 -91 
Q 1263 -91 848 271 
Q 434 634 434 1313 
Q 434 1759 690 2068 
Q 947 2378 1403 2484 
z
M 1172 3481 
Q 1172 3119 1398 2916 
Q 1625 2713 2034 2713 
Q 2441 2713 2670 2916 
Q 2900 3119 2900 3481 
Q 2900 3844 2670 4047 
Q 2441 4250 2034 4250 
Q 1625 4250 1398 4047 
Q 1172 3844 1172 3481 
z
" transform="scale(0.015625)"/>
       </defs>
       <use xlink:href="#DejaVuSans-38"/>
      </g>
     </g>
    </g>
    <g id="xtick_6">
     <g id="line2d_11">
      <path d="M 357.999548 78.7975 
L 357.999548 28.32 
" clip-path="url(#pd8372e58c3)" style="fill: none; stroke: #b0b0b0; stroke-width: 0.8; stroke-linecap: square"/>
     </g>
     <g id="line2d_12">
      <g>
       <use xlink:href="#mf208d45481" x="357.999548" y="78.7975" style="stroke: #000000; stroke-width: 0.8"/>
      </g>
     </g>
     <g id="text_6">
      <!-- 10 -->
      <g transform="translate(351.637048 93.395937)scale(0.1 -0.1)">
       <defs>
        <path id="DejaVuSans-31" d="M 794 531 
L 1825 531 
L 1825 4091 
L 703 3866 
L 703 4441 
L 1819 4666 
L 2450 4666 
L 2450 531 
L 3481 531 
L 3481 0 
L 794 0 
L 794 531 
z
" transform="scale(0.015625)"/>
       </defs>
       <use xlink:href="#DejaVuSans-31"/>
       <use xlink:href="#DejaVuSans-30" x="63.623047"/>
      </g>
     </g>
    </g>
    <g id="xtick_7">
     <g id="line2d_13">
      <path d="M 414.415585 78.7975 
L 414.415585 28.32 
" clip-path="url(#pd8372e58c3)" style="fill: none; stroke: #b0b0b0; stroke-width: 0.8; stroke-linecap: square"/>
     </g>
     <g id="line2d_14">
      <g>
       <use xlink:href="#mf208d45481" x="414.415585" y="78.7975" style="stroke: #000000; stroke-width: 0.8"/>
      </g>
     </g>
     <g id="text_7">
      <!-- 12 -->
      <g transform="translate(408.053085 93.395937)scale(0.1 -0.1)">
       <use xlink:href="#DejaVuSans-31"/>
       <use xlink:href="#DejaVuSans-32" x="63.623047"/>
      </g>
     </g>
    </g>
    <g id="text_8">
     <!-- $t$ [s] -->
     <g transform="translate(243.953 107.074062)scale(0.1 -0.1)">
      <defs>
       <path id="DejaVuSans-Oblique-74" d="M 2706 3500 
L 2619 3053 
L 1472 3053 
L 1100 1153 
Q 1081 1047 1072 975 
Q 1063 903 1063 863 
Q 1063 663 1183 572 
Q 1303 481 1569 481 
L 2150 481 
L 2053 0 
L 1503 0 
Q 991 0 739 200 
Q 488 400 488 806 
Q 488 878 497 964 
Q 506 1050 525 1153 
L 897 3053 
L 409 3053 
L 500 3500 
L 978 3500 
L 1172 4494 
L 1747 4494 
L 1556 3500 
L 2706 3500 
z
" transform="scale(0.015625)"/>
       <path id="DejaVuSans-20" transform="scale(0.015625)"/>
       <path id="DejaVuSans-5b" d="M 550 4863 
L 1875 4863 
L 1875 4416 
L 1125 4416 
L 1125 -397 
L 1875 -397 
L 1875 -844 
L 550 -844 
L 550 4863 
z
" transform="scale(0.015625)"/>
       <path id="DejaVuSans-73" d="M 2834 3397 
L 2834 2853 
Q 2591 2978 2328 3040 
Q 2066 3103 1784 3103 
Q 1356 3103 1142 2972 
Q 928 2841 928 2578 
Q 928 2378 1081 2264 
Q 1234 2150 1697 2047 
L 1894 2003 
Q 2506 1872 2764 1633 
Q 3022 1394 3022 966 
Q 3022 478 2636 193 
Q 2250 -91 1575 -91 
Q 1294 -91 989 -36 
Q 684 19 347 128 
L 347 722 
Q 666 556 975 473 
Q 1284 391 1588 391 
Q 1994 391 2212 530 
Q 2431 669 2431 922 
Q 2431 1156 2273 1281 
Q 2116 1406 1581 1522 
L 1381 1569 
Q 847 1681 609 1914 
Q 372 2147 372 2553 
Q 372 3047 722 3315 
Q 1072 3584 1716 3584 
Q 2034 3584 2315 3537 
Q 2597 3491 2834 3397 
z
" transform="scale(0.015625)"/>
       <path id="DejaVuSans-5d" d="M 1947 4863 
L 1947 -844 
L 622 -844 
L 622 -397 
L 1369 -397 
L 1369 4416 
L 622 4416 
L 622 4863 
L 1947 4863 
z
" transform="scale(0.015625)"/>
      </defs>
      <use xlink:href="#DejaVuSans-Oblique-74" transform="translate(0 0.015625)"/>
      <use xlink:href="#DejaVuSans-20" transform="translate(39.208984 0.015625)"/>
      <use xlink:href="#DejaVuSans-5b" transform="translate(70.996094 0.015625)"/>
      <use xlink:href="#DejaVuSans-73" transform="translate(110.009766 0.015625)"/>
      <use xlink:href="#DejaVuSans-5d" transform="translate(162.109375 0.015625)"/>
     </g>
    </g>
   </g>
   <g id="matplotlib.axis_2">
    <g id="ytick_1">
     <g id="line2d_15">
      <path d="M 58.106 76.575584 
L 450 76.575584 
" clip-path="url(#pd8372e58c3)" style="fill: none; stroke: #b0b0b0; stroke-width: 0.8; stroke-linecap: square"/>
     </g>
     <g id="line2d_16">
      <defs>
       <path id="mcf4089eadd" d="M 0 0 
L -3.5 0 
" style="stroke: #000000; stroke-width: 0.8"/>
      </defs>
      <g>
       <use xlink:href="#mcf4089eadd" x="58.106" y="76.575584" style="stroke: #000000; stroke-width: 0.8"/>
      </g>
     </g>
     <g id="text_9">
      <!-- 0 -->
      <g transform="translate(44.7435 80.374803)scale(0.1 -0.1)">
       <use xlink:href="#DejaVuSans-30"/>
      </g>
     </g>
    </g>
    <g id="ytick_2">
     <g id="line2d_17">
      <path d="M 58.106 30.614432 
L 450 30.614432 
" clip-path="url(#pd8372e58c3)" style="fill: none; stroke: #b0b0b0; stroke-width: 0.8; stroke-linecap: square"/>
     </g>
     <g id="line2d_18">
      <g>
       <use xlink:href="#mcf4089eadd" x="58.106" y="30.614432" style="stroke: #000000; stroke-width: 0.8"/>
      </g>
     </g>
     <g id="text_10">
      <!-- 10 -->
      <g transform="translate(38.381 34.413651)scale(0.1 -0.1)">
       <use xlink:href="#DejaVuSans-31"/>
       <use xlink:href="#DejaVuSans-30" x="63.623047"/>
      </g>
     </g>
    </g>
    <g id="text_11">
     <!-- $e_x$ [m] -->
     <g transform="translate(32.301313 69.20875)rotate(-90)scale(0.1 -0.1)">
      <defs>
       <path id="DejaVuSans-Oblique-65" d="M 3078 2063 
Q 3088 2113 3092 2166 
Q 3097 2219 3097 2272 
Q 3097 2653 2873 2875 
Q 2650 3097 2266 3097 
Q 1838 3097 1509 2826 
Q 1181 2556 1013 2059 
L 3078 2063 
z
M 3578 1613 
L 903 1613 
Q 884 1494 878 1425 
Q 872 1356 872 1306 
Q 872 872 1139 634 
Q 1406 397 1894 397 
Q 2269 397 2603 481 
Q 2938 566 3225 728 
L 3116 159 
Q 2806 34 2476 -28 
Q 2147 -91 1806 -91 
Q 1078 -91 686 257 
Q 294 606 294 1247 
Q 294 1794 489 2264 
Q 684 2734 1063 3103 
Q 1306 3334 1642 3459 
Q 1978 3584 2356 3584 
Q 2950 3584 3301 3228 
Q 3653 2872 3653 2272 
Q 3653 2128 3634 1964 
Q 3616 1800 3578 1613 
z
" transform="scale(0.015625)"/>
       <path id="DejaVuSans-Oblique-78" d="M 3841 3500 
L 2234 1784 
L 3219 0 
L 2559 0 
L 1819 1388 
L 531 0 
L -166 0 
L 1556 1844 
L 641 3500 
L 1300 3500 
L 1972 2234 
L 3144 3500 
L 3841 3500 
z
" transform="scale(0.015625)"/>
       <path id="DejaVuSans-6d" d="M 3328 2828 
Q 3544 3216 3844 3400 
Q 4144 3584 4550 3584 
Q 5097 3584 5394 3201 
Q 5691 2819 5691 2113 
L 5691 0 
L 5113 0 
L 5113 2094 
Q 5113 2597 4934 2840 
Q 4756 3084 4391 3084 
Q 3944 3084 3684 2787 
Q 3425 2491 3425 1978 
L 3425 0 
L 2847 0 
L 2847 2094 
Q 2847 2600 2669 2842 
Q 2491 3084 2119 3084 
Q 1678 3084 1418 2786 
Q 1159 2488 1159 1978 
L 1159 0 
L 581 0 
L 581 3500 
L 1159 3500 
L 1159 2956 
Q 1356 3278 1631 3431 
Q 1906 3584 2284 3584 
Q 2666 3584 2933 3390 
Q 3200 3197 3328 2828 
z
" transform="scale(0.015625)"/>
      </defs>
      <use xlink:href="#DejaVuSans-Oblique-65" transform="translate(0 0.015625)"/>
      <use xlink:href="#DejaVuSans-Oblique-78" transform="translate(61.523438 -16.390625)scale(0.7)"/>
      <use xlink:href="#DejaVuSans-20" transform="translate(105.683594 0.015625)"/>
      <use xlink:href="#DejaVuSans-5b" transform="translate(137.470703 0.015625)"/>
      <use xlink:href="#DejaVuSans-6d" transform="translate(176.484375 0.015625)"/>
      <use xlink:href="#DejaVuSans-5d" transform="translate(273.896484 0.015625)"/>
     </g>
    </g>
   </g>
   <g id="line2d_19">
    <path d="M 75.919364 30.614432 
L 83.25926 30.725283 
L 87.493815 30.899322 
L 98.221356 31.275234 
L 104.432038 31.934204 
L 105.561252 32.087559 
L 108.101986 32.465057 
L 112.054238 33.026334 
L 114.877275 33.494937 
L 119.11183 34.268348 
L 119.676438 34.35109 
L 122.217171 34.834815 
L 123.064082 35.027202 
L 125.322512 35.517713 
L 128.145549 36.222491 
L 130.686282 36.802857 
L 133.509319 37.54751 
L 135.767749 38.103952 
L 136.61466 38.399428 
L 137.461571 38.548076 
L 138.308482 38.847461 
L 139.155393 38.9983 
L 139.437697 39.14991 
L 139.72 39.14991 
L 140.284608 39.332703 
L 142.543037 39.91439 
L 145.083771 40.645446 
L 147.624504 41.299242 
L 148.471415 41.530782 
L 151.012149 42.125814 
L 151.294452 42.265553 
L 151.576756 42.265553 
L 152.423667 42.487537 
L 154.399793 42.95069 
L 155.246704 43.217929 
L 156.093615 43.350666 
L 157.22283 43.668055 
L 158.352045 43.852561 
L 158.634349 44.010074 
L 159.48126 44.14066 
L 159.763563 44.270469 
L 160.328171 44.373693 
L 163.151208 44.982263 
L 163.998119 45.182119 
L 166.256548 45.675912 
L 167.10346 45.870246 
L 169.644193 46.394763 
L 170.491104 46.583041 
L 172.749534 47.054283 
L 175.007963 47.55457 
L 175.572571 47.649024 
L 178.113304 48.173824 
L 180.08943 48.528278 
L 182.912467 49.083212 
L 185.735504 49.637089 
L 188.276237 50.110099 
L 189.123148 50.283632 
L 191.663882 50.746219 
L 192.510793 50.90973 
L 195.051526 51.370496 
L 195.898437 51.544001 
L 198.439171 51.995446 
L 199.003778 52.099602 
L 199.850689 52.263746 
L 201.826815 52.61175 
L 202.391422 52.716377 
L 203.238334 52.886263 
L 205.214459 53.270165 
L 206.061371 53.436779 
L 208.602104 53.90275 
L 210.57823 54.233544 
L 212.554356 54.589582 
L 213.118963 54.692333 
L 213.965874 54.853794 
L 215.942 55.209305 
L 216.788911 55.368879 
L 219.894252 55.897416 
L 221.023467 56.114632 
L 224.128808 56.649507 
L 227.516452 57.261544 
L 228.645667 57.43408 
L 231.468704 57.918502 
L 232.033311 57.994688 
L 234.574045 58.426575 
L 235.703259 58.640921 
L 237.114778 58.867358 
L 237.397082 58.867358 
L 237.961689 58.997042 
L 240.220119 59.354347 
L 241.06703 59.529969 
L 244.17237 60.072558 
L 245.583889 60.293339 
L 246.148496 60.402825 
L 247.560015 60.568817 
L 248.124622 60.700654 
L 250.947659 61.179406 
L 253.488393 61.58267 
L 256.029126 62.007801 
L 258.569859 62.423139 
L 261.110593 62.801404 
L 261.6752 62.926578 
L 264.498237 63.349227 
L 265.062844 63.479046 
L 269.015096 64.074916 
L 270.426615 64.33682 
L 271.273526 64.444473 
L 275.508081 65.09098 
L 276.637296 65.254202 
L 279.742637 65.724815 
L 283.977192 66.33591 
L 285.671015 66.597179 
L 286.517926 66.691017 
L 290.187874 67.202876 
L 293.575518 67.658664 
L 297.810074 68.194638 
L 301.480022 68.693593 
L 302.609237 68.802338 
L 308.819918 69.604525 
L 313.619081 70.152938 
L 315.0306 70.338936 
L 320.958978 71.029314 
L 322.6528 71.266311 
L 329.428089 72.033869 
L 330.839607 72.212654 
L 336.203377 72.829396 
L 337.614896 73.002862 
L 343.543274 73.662889 
L 345.5194 73.899705 
L 364.998355 75.555927 
L 379.678148 76.117118 
L 389.558777 76.114022 
L 399.439407 75.94135 
L 409.884644 75.7583 
L 418.071451 75.803114 
L 428.234385 76.287166 
L 432.186636 76.503068 
L 432.186636 76.503068 
" clip-path="url(#pd8372e58c3)" style="fill: none; stroke: #ff0000; stroke-width: 1.5; stroke-linecap: square"/>
   </g>
   <g id="patch_3">
    <path d="M 58.106 78.7975 
L 58.106 28.32 
" style="fill: none; stroke: #000000; stroke-width: 0.8; stroke-linejoin: miter; stroke-linecap: square"/>
   </g>
   <g id="patch_4">
    <path d="M 450 78.7975 
L 450 28.32 
" style="fill: none; stroke: #000000; stroke-width: 0.8; stroke-linejoin: miter; stroke-linecap: square"/>
   </g>
   <g id="patch_5">
    <path d="M 58.106 78.7975 
L 450 78.7975 
" style="fill: none; stroke: #000000; stroke-width: 0.8; stroke-linejoin: miter; stroke-linecap: square"/>
   </g>
   <g id="patch_6">
    <path d="M 58.106 28.32 
L 450 28.32 
" style="fill: none; stroke: #000000; stroke-width: 0.8; stroke-linejoin: miter; stroke-linecap: square"/>
   </g>
   <g id="text_12">
    <!-- Error in $x$-position -->
    <g transform="translate(200.413 22.32)scale(0.12 -0.12)">
     <defs>
      <path id="DejaVuSans-45" d="M 628 4666 
L 3578 4666 
L 3578 4134 
L 1259 4134 
L 1259 2753 
L 3481 2753 
L 3481 2222 
L 1259 2222 
L 1259 531 
L 3634 531 
L 3634 0 
L 628 0 
L 628 4666 
z
" transform="scale(0.015625)"/>
      <path id="DejaVuSans-72" d="M 2631 2963 
Q 2534 3019 2420 3045 
Q 2306 3072 2169 3072 
Q 1681 3072 1420 2755 
Q 1159 2438 1159 1844 
L 1159 0 
L 581 0 
L 581 3500 
L 1159 3500 
L 1159 2956 
Q 1341 3275 1631 3429 
Q 1922 3584 2338 3584 
Q 2397 3584 2469 3576 
Q 2541 3569 2628 3553 
L 2631 2963 
z
" transform="scale(0.015625)"/>
      <path id="DejaVuSans-6f" d="M 1959 3097 
Q 1497 3097 1228 2736 
Q 959 2375 959 1747 
Q 959 1119 1226 758 
Q 1494 397 1959 397 
Q 2419 397 2687 759 
Q 2956 1122 2956 1747 
Q 2956 2369 2687 2733 
Q 2419 3097 1959 3097 
z
M 1959 3584 
Q 2709 3584 3137 3096 
Q 3566 2609 3566 1747 
Q 3566 888 3137 398 
Q 2709 -91 1959 -91 
Q 1206 -91 779 398 
Q 353 888 353 1747 
Q 353 2609 779 3096 
Q 1206 3584 1959 3584 
z
" transform="scale(0.015625)"/>
      <path id="DejaVuSans-69" d="M 603 3500 
L 1178 3500 
L 1178 0 
L 603 0 
L 603 3500 
z
M 603 4863 
L 1178 4863 
L 1178 4134 
L 603 4134 
L 603 4863 
z
" transform="scale(0.015625)"/>
      <path id="DejaVuSans-6e" d="M 3513 2113 
L 3513 0 
L 2938 0 
L 2938 2094 
Q 2938 2591 2744 2837 
Q 2550 3084 2163 3084 
Q 1697 3084 1428 2787 
Q 1159 2491 1159 1978 
L 1159 0 
L 581 0 
L 581 3500 
L 1159 3500 
L 1159 2956 
Q 1366 3272 1645 3428 
Q 1925 3584 2291 3584 
Q 2894 3584 3203 3211 
Q 3513 2838 3513 2113 
z
" transform="scale(0.015625)"/>
      <path id="DejaVuSans-2d" d="M 313 2009 
L 1997 2009 
L 1997 1497 
L 313 1497 
L 313 2009 
z
" transform="scale(0.015625)"/>
      <path id="DejaVuSans-70" d="M 1159 525 
L 1159 -1331 
L 581 -1331 
L 581 3500 
L 1159 3500 
L 1159 2969 
Q 1341 3281 1617 3432 
Q 1894 3584 2278 3584 
Q 2916 3584 3314 3078 
Q 3713 2572 3713 1747 
Q 3713 922 3314 415 
Q 2916 -91 2278 -91 
Q 1894 -91 1617 61 
Q 1341 213 1159 525 
z
M 3116 1747 
Q 3116 2381 2855 2742 
Q 2594 3103 2138 3103 
Q 1681 3103 1420 2742 
Q 1159 2381 1159 1747 
Q 1159 1113 1420 752 
Q 1681 391 2138 391 
Q 2594 391 2855 752 
Q 3116 1113 3116 1747 
z
" transform="scale(0.015625)"/>
      <path id="DejaVuSans-74" d="M 1172 4494 
L 1172 3500 
L 2356 3500 
L 2356 3053 
L 1172 3053 
L 1172 1153 
Q 1172 725 1289 603 
Q 1406 481 1766 481 
L 2356 481 
L 2356 0 
L 1766 0 
Q 1100 0 847 248 
Q 594 497 594 1153 
L 594 3053 
L 172 3053 
L 172 3500 
L 594 3500 
L 594 4494 
L 1172 4494 
z
" transform="scale(0.015625)"/>
     </defs>
     <use xlink:href="#DejaVuSans-45" transform="translate(0 0.015625)"/>
     <use xlink:href="#DejaVuSans-72" transform="translate(63.183594 0.015625)"/>
     <use xlink:href="#DejaVuSans-72" transform="translate(104.296875 0.015625)"/>
     <use xlink:href="#DejaVuSans-6f" transform="translate(145.410156 0.015625)"/>
     <use xlink:href="#DejaVuSans-72" transform="translate(206.591797 0.015625)"/>
     <use xlink:href="#DejaVuSans-20" transform="translate(247.705078 0.015625)"/>
     <use xlink:href="#DejaVuSans-69" transform="translate(279.492188 0.015625)"/>
     <use xlink:href="#DejaVuSans-6e" transform="translate(307.275391 0.015625)"/>
     <use xlink:href="#DejaVuSans-20" transform="translate(370.654297 0.015625)"/>
     <use xlink:href="#DejaVuSans-Oblique-78" transform="translate(402.441406 0.015625)"/>
     <use xlink:href="#DejaVuSans-2d" transform="translate(461.621094 0.015625)"/>
     <use xlink:href="#DejaVuSans-70" transform="translate(497.705078 0.015625)"/>
     <use xlink:href="#DejaVuSans-6f" transform="translate(561.181641 0.015625)"/>
     <use xlink:href="#DejaVuSans-73" transform="translate(622.363281 0.015625)"/>
     <use xlink:href="#DejaVuSans-69" transform="translate(674.462891 0.015625)"/>
     <use xlink:href="#DejaVuSans-74" transform="translate(702.246094 0.015625)"/>
     <use xlink:href="#DejaVuSans-69" transform="translate(741.455078 0.015625)"/>
     <use xlink:href="#DejaVuSans-6f" transform="translate(769.238281 0.015625)"/>
     <use xlink:href="#DejaVuSans-6e" transform="translate(830.419922 0.015625)"/>
    </g>
   </g>
  </g>
  <g id="axes_2">
   <g id="patch_7">
    <path d="M 58.106 190.3975 
L 450 190.3975 
L 450 139.92 
L 58.106 139.92 
z
" style="fill: #ffffff"/>
   </g>
   <g id="matplotlib.axis_3">
    <g id="xtick_8">
     <g id="line2d_20">
      <path d="M 75.919364 190.3975 
L 75.919364 139.92 
" clip-path="url(#p14093c8104)" style="fill: none; stroke: #b0b0b0; stroke-width: 0.8; stroke-linecap: square"/>
     </g>
     <g id="line2d_21">
      <g>
       <use xlink:href="#mf208d45481" x="75.919364" y="190.3975" style="stroke: #000000; stroke-width: 0.8"/>
      </g>
     </g>
     <g id="text_13">
      <!-- 0 -->
      <g transform="translate(72.738114 204.995937)scale(0.1 -0.1)">
       <use xlink:href="#DejaVuSans-30"/>
      </g>
     </g>
    </g>
    <g id="xtick_9">
     <g id="line2d_22">
      <path d="M 132.3354 190.3975 
L 132.3354 139.92 
" clip-path="url(#p14093c8104)" style="fill: none; stroke: #b0b0b0; stroke-width: 0.8; stroke-linecap: square"/>
     </g>
     <g id="line2d_23">
      <g>
       <use xlink:href="#mf208d45481" x="132.3354" y="190.3975" style="stroke: #000000; stroke-width: 0.8"/>
      </g>
     </g>
     <g id="text_14">
      <!-- 2 -->
      <g transform="translate(129.15415 204.995937)scale(0.1 -0.1)">
       <use xlink:href="#DejaVuSans-32"/>
      </g>
     </g>
    </g>
    <g id="xtick_10">
     <g id="line2d_24">
      <path d="M 188.751437 190.3975 
L 188.751437 139.92 
" clip-path="url(#p14093c8104)" style="fill: none; stroke: #b0b0b0; stroke-width: 0.8; stroke-linecap: square"/>
     </g>
     <g id="line2d_25">
      <g>
       <use xlink:href="#mf208d45481" x="188.751437" y="190.3975" style="stroke: #000000; stroke-width: 0.8"/>
      </g>
     </g>
     <g id="text_15">
      <!-- 4 -->
      <g transform="translate(185.570187 204.995937)scale(0.1 -0.1)">
       <use xlink:href="#DejaVuSans-34"/>
      </g>
     </g>
    </g>
    <g id="xtick_11">
     <g id="line2d_26">
      <path d="M 245.167474 190.3975 
L 245.167474 139.92 
" clip-path="url(#p14093c8104)" style="fill: none; stroke: #b0b0b0; stroke-width: 0.8; stroke-linecap: square"/>
     </g>
     <g id="line2d_27">
      <g>
       <use xlink:href="#mf208d45481" x="245.167474" y="190.3975" style="stroke: #000000; stroke-width: 0.8"/>
      </g>
     </g>
     <g id="text_16">
      <!-- 6 -->
      <g transform="translate(241.986224 204.995937)scale(0.1 -0.1)">
       <use xlink:href="#DejaVuSans-36"/>
      </g>
     </g>
    </g>
    <g id="xtick_12">
     <g id="line2d_28">
      <path d="M 301.583511 190.3975 
L 301.583511 139.92 
" clip-path="url(#p14093c8104)" style="fill: none; stroke: #b0b0b0; stroke-width: 0.8; stroke-linecap: square"/>
     </g>
     <g id="line2d_29">
      <g>
       <use xlink:href="#mf208d45481" x="301.583511" y="190.3975" style="stroke: #000000; stroke-width: 0.8"/>
      </g>
     </g>
     <g id="text_17">
      <!-- 8 -->
      <g transform="translate(298.402261 204.995937)scale(0.1 -0.1)">
       <use xlink:href="#DejaVuSans-38"/>
      </g>
     </g>
    </g>
    <g id="xtick_13">
     <g id="line2d_30">
      <path d="M 357.999548 190.3975 
L 357.999548 139.92 
" clip-path="url(#p14093c8104)" style="fill: none; stroke: #b0b0b0; stroke-width: 0.8; stroke-linecap: square"/>
     </g>
     <g id="line2d_31">
      <g>
       <use xlink:href="#mf208d45481" x="357.999548" y="190.3975" style="stroke: #000000; stroke-width: 0.8"/>
      </g>
     </g>
     <g id="text_18">
      <!-- 10 -->
      <g transform="translate(351.637048 204.995937)scale(0.1 -0.1)">
       <use xlink:href="#DejaVuSans-31"/>
       <use xlink:href="#DejaVuSans-30" x="63.623047"/>
      </g>
     </g>
    </g>
    <g id="xtick_14">
     <g id="line2d_32">
      <path d="M 414.415585 190.3975 
L 414.415585 139.92 
" clip-path="url(#p14093c8104)" style="fill: none; stroke: #b0b0b0; stroke-width: 0.8; stroke-linecap: square"/>
     </g>
     <g id="line2d_33">
      <g>
       <use xlink:href="#mf208d45481" x="414.415585" y="190.3975" style="stroke: #000000; stroke-width: 0.8"/>
      </g>
     </g>
     <g id="text_19">
      <!-- 12 -->
      <g transform="translate(408.053085 204.995937)scale(0.1 -0.1)">
       <use xlink:href="#DejaVuSans-31"/>
       <use xlink:href="#DejaVuSans-32" x="63.623047"/>
      </g>
     </g>
    </g>
    <g id="text_20">
     <!-- $t$ [s] -->
     <g transform="translate(243.953 218.674062)scale(0.1 -0.1)">
      <use xlink:href="#DejaVuSans-Oblique-74" transform="translate(0 0.015625)"/>
      <use xlink:href="#DejaVuSans-20" transform="translate(39.208984 0.015625)"/>
      <use xlink:href="#DejaVuSans-5b" transform="translate(70.996094 0.015625)"/>
      <use xlink:href="#DejaVuSans-73" transform="translate(110.009766 0.015625)"/>
      <use xlink:href="#DejaVuSans-5d" transform="translate(162.109375 0.015625)"/>
     </g>
    </g>
   </g>
   <g id="matplotlib.axis_4">
    <g id="ytick_3">
     <g id="line2d_34">
      <path d="M 58.106 178.952042 
L 450 178.952042 
" clip-path="url(#p14093c8104)" style="fill: none; stroke: #b0b0b0; stroke-width: 0.8; stroke-linecap: square"/>
     </g>
     <g id="line2d_35">
      <g>
       <use xlink:href="#mcf4089eadd" x="58.106" y="178.952042" style="stroke: #000000; stroke-width: 0.8"/>
      </g>
     </g>
     <g id="text_21">
      <!-- −0.1 -->
      <g transform="translate(26.823188 182.751261)scale(0.1 -0.1)">
       <defs>
        <path id="DejaVuSans-2212" d="M 678 2272 
L 4684 2272 
L 4684 1741 
L 678 1741 
L 678 2272 
z
" transform="scale(0.015625)"/>
        <path id="DejaVuSans-2e" d="M 684 794 
L 1344 794 
L 1344 0 
L 684 0 
L 684 794 
z
" transform="scale(0.015625)"/>
       </defs>
       <use xlink:href="#DejaVuSans-2212"/>
       <use xlink:href="#DejaVuSans-30" x="83.789062"/>
       <use xlink:href="#DejaVuSans-2e" x="147.412109"/>
       <use xlink:href="#DejaVuSans-31" x="179.199219"/>
      </g>
     </g>
    </g>
    <g id="ytick_4">
     <g id="line2d_36">
      <path d="M 58.106 164.975061 
L 450 164.975061 
" clip-path="url(#p14093c8104)" style="fill: none; stroke: #b0b0b0; stroke-width: 0.8; stroke-linecap: square"/>
     </g>
     <g id="line2d_37">
      <g>
       <use xlink:href="#mcf4089eadd" x="58.106" y="164.975061" style="stroke: #000000; stroke-width: 0.8"/>
      </g>
     </g>
     <g id="text_22">
      <!-- 0.0 -->
      <g transform="translate(35.202875 168.77428)scale(0.1 -0.1)">
       <use xlink:href="#DejaVuSans-30"/>
       <use xlink:href="#DejaVuSans-2e" x="63.623047"/>
       <use xlink:href="#DejaVuSans-30" x="95.410156"/>
      </g>
     </g>
    </g>
    <g id="ytick_5">
     <g id="line2d_38">
      <path d="M 58.106 150.99808 
L 450 150.99808 
" clip-path="url(#p14093c8104)" style="fill: none; stroke: #b0b0b0; stroke-width: 0.8; stroke-linecap: square"/>
     </g>
     <g id="line2d_39">
      <g>
       <use xlink:href="#mcf4089eadd" x="58.106" y="150.99808" style="stroke: #000000; stroke-width: 0.8"/>
      </g>
     </g>
     <g id="text_23">
      <!-- 0.1 -->
      <g transform="translate(35.202875 154.797299)scale(0.1 -0.1)">
       <use xlink:href="#DejaVuSans-30"/>
       <use xlink:href="#DejaVuSans-2e" x="63.623047"/>
       <use xlink:href="#DejaVuSans-31" x="95.410156"/>
      </g>
     </g>
    </g>
    <g id="text_24">
     <!-- $e_z$ [m] -->
     <g transform="translate(20.7435 180.60875)rotate(-90)scale(0.1 -0.1)">
      <defs>
       <path id="DejaVuSans-Oblique-7a" d="M 744 3500 
L 3475 3500 
L 3372 2975 
L 738 459 
L 2913 459 
L 2822 0 
L -19 0 
L 84 525 
L 2719 3041 
L 653 3041 
L 744 3500 
z
" transform="scale(0.015625)"/>
      </defs>
      <use xlink:href="#DejaVuSans-Oblique-65" transform="translate(0 0.015625)"/>
      <use xlink:href="#DejaVuSans-Oblique-7a" transform="translate(61.523438 -16.390625)scale(0.7)"/>
      <use xlink:href="#DejaVuSans-20" transform="translate(101.000977 0.015625)"/>
      <use xlink:href="#DejaVuSans-5b" transform="translate(132.788086 0.015625)"/>
      <use xlink:href="#DejaVuSans-6d" transform="translate(171.801758 0.015625)"/>
      <use xlink:href="#DejaVuSans-5d" transform="translate(269.213867 0.015625)"/>
     </g>
    </g>
   </g>
   <g id="line2d_40">
    <path d="M 75.919364 166.32792 
L 78.177793 165.633763 
L 79.024704 165.579601 
L 79.871615 165.668255 
L 80.718527 165.874062 
L 81.847741 165.950073 
L 82.694652 165.787195 
L 83.25926 165.495379 
L 83.823867 164.998003 
L 84.670778 164.388671 
L 85.51769 163.518597 
L 87.493815 162.295601 
L 87.776119 162.100562 
L 88.058423 161.521698 
L 88.340727 161.521698 
L 88.905334 160.64421 
L 89.469941 159.946181 
L 89.752245 159.202088 
L 90.034549 159.202088 
L 90.316852 158.100501 
L 90.599156 157.926352 
L 91.163764 157.275157 
L 91.446067 156.717471 
L 91.728371 156.717471 
L 92.010675 156.092612 
L 92.857586 155.774342 
L 93.422193 155.628997 
L 95.116015 155.482003 
L 96.24523 155.083875 
L 96.527534 154.757632 
L 96.809838 154.757632 
L 97.374445 154.416255 
L 98.50366 154.186761 
L 99.632875 154.37693 
L 100.479786 154.785758 
L 101.044393 155.054058 
L 101.326697 155.054058 
L 101.891304 155.262333 
L 103.020519 155.400512 
L 104.149734 155.265403 
L 105.278949 154.733368 
L 105.843556 154.446856 
L 106.12586 154.023772 
L 106.408164 154.023772 
L 106.972771 153.434354 
L 107.537378 153.002185 
L 108.384289 151.851413 
L 108.948897 151.50162 
L 109.795808 150.736819 
L 110.078112 150.363828 
L 111.771934 149.404534 
L 112.618845 149.165385 
L 113.465756 148.547395 
L 114.030363 148.315684 
L 114.312667 148.150432 
L 114.877275 147.624985 
L 115.724186 146.851744 
L 116.006489 146.851744 
L 116.571097 146.395975 
L 117.418008 145.778689 
L 117.700312 145.778689 
L 118.264919 145.355092 
L 119.11183 144.584913 
L 119.394134 144.584913 
L 119.958741 143.970327 
L 120.523349 143.434419 
L 120.805652 143.033591 
L 121.087956 143.033591 
L 121.37026 142.69417 
L 122.499475 142.215332 
L 123.346386 142.246529 
L 124.4756 142.586316 
L 125.040208 142.920524 
L 125.604815 143.240771 
L 126.169423 143.66512 
L 127.580941 144.471837 
L 128.145549 144.855343 
L 129.839371 145.385767 
L 131.533193 145.664141 
L 132.662408 146.054995 
L 134.35623 147.471676 
L 135.485445 148.787848 
L 135.767749 149.012046 
L 136.050052 149.428313 
L 136.332356 149.428313 
L 136.61466 149.961747 
L 137.179267 150.186675 
L 138.026178 150.565476 
L 138.308482 150.90032 
L 138.873089 151.078469 
L 139.155393 151.208662 
L 139.437697 151.588862 
L 139.72 151.588862 
L 140.284608 152.161786 
L 140.849215 152.611794 
L 141.97843 153.996425 
L 142.825341 154.829353 
L 143.107645 155.241177 
L 145.083771 156.400362 
L 146.212986 156.911185 
L 146.777593 157.335178 
L 147.624504 157.917384 
L 147.906808 158.274257 
L 148.189112 158.274257 
L 148.471415 158.628354 
L 150.729845 159.919122 
L 151.012149 160.011747 
L 151.294452 160.23933 
L 151.576756 160.23933 
L 152.141363 160.551242 
L 152.705971 160.809755 
L 153.552882 161.693385 
L 154.117489 162.026755 
L 154.399793 162.263434 
L 154.682097 162.76139 
L 154.9644 162.76139 
L 155.246704 163.538682 
L 155.529008 163.669646 
L 156.093615 164.194637 
L 156.375919 164.721776 
L 156.940526 165.387476 
L 157.22283 165.793149 
L 157.505134 165.929496 
L 157.787437 166.204051 
L 158.069741 166.761503 
L 158.352045 166.761503 
L 158.634349 167.624532 
L 158.916652 167.772138 
L 159.48126 168.373874 
L 159.763563 169.151027 
L 160.045867 169.151027 
L 160.328171 169.78734 
L 161.457386 171.228265 
L 161.739689 171.856284 
L 163.151208 173.477354 
L 163.433511 174.018655 
L 164.562726 175.146526 
L 164.84503 175.616374 
L 166.256548 176.84544 
L 166.538852 177.259253 
L 166.821156 177.259253 
L 167.10346 177.642495 
L 168.797282 178.658304 
L 169.926497 178.878312 
L 171.902623 178.980162 
L 175.007963 180.197666 
L 176.419482 180.089354 
L 177.548697 179.966444 
L 178.677911 180.086723 
L 179.807126 180.534045 
L 181.500948 180.650376 
L 182.630163 180.357718 
L 184.888593 180.004484 
L 185.4532 180.171399 
L 186.582415 180.606205 
L 187.429326 181.125732 
L 188.558541 181.389504 
L 189.405452 181.305845 
L 192.510793 180.482818 
L 193.0754 180.580575 
L 193.357704 180.719079 
L 193.640008 180.98179 
L 193.922311 180.98179 
L 194.486919 181.494957 
L 195.051526 181.956455 
L 195.33383 182.297757 
L 196.463045 182.806011 
L 197.592259 183.064809 
L 200.132993 183.156066 
L 200.415296 183.317003 
L 200.6976 183.317003 
L 201.262208 183.645133 
L 201.826815 183.936039 
L 202.109119 184.336228 
L 202.391422 184.336228 
L 202.673726 184.653836 
L 204.367548 185.43589 
L 205.214459 185.475939 
L 207.472889 185.194539 
L 208.3198 185.35977 
L 211.425141 186.54775 
L 212.554356 186.487663 
L 212.836659 186.360196 
L 213.118963 186.360196 
L 213.683571 186.170882 
L 214.812785 186.015523 
L 215.659696 186.160708 
L 217.918126 187.134816 
L 218.765037 187.276482 
L 219.894252 187.114091 
L 220.741163 186.706615 
L 221.588074 186.491668 
L 222.152682 186.32441 
L 223.281896 186.434614 
L 224.693415 187.190304 
L 224.975719 187.190304 
L 225.540326 187.477867 
L 226.104933 187.649176 
L 227.234148 187.597633 
L 230.057185 186.960719 
L 230.904096 187.001011 
L 232.597919 187.543378 
L 233.44483 187.906327 
L 234.574045 188.012955 
L 236.832474 187.580723 
L 237.397082 187.472165 
L 237.961689 187.372823 
L 238.8086 187.409866 
L 241.631637 188.084751 
L 242.478548 188.099498 
L 243.043156 187.98655 
L 244.17237 187.709419 
L 245.019282 187.554087 
L 246.995407 187.357398 
L 250.383052 187.469078 
L 252.359178 187.740246 
L 253.488393 187.642353 
L 254.335304 187.435013 
L 254.617607 187.175854 
L 255.464519 186.982839 
L 256.31143 186.681233 
L 257.158341 186.575184 
L 258.005252 186.688324 
L 259.981378 187.253455 
L 261.110593 187.300625 
L 261.6752 187.162188 
L 262.522111 186.860727 
L 264.498237 186.328224 
L 265.627452 186.444099 
L 266.756667 186.887523 
L 269.015096 187.048562 
L 270.426615 186.586868 
L 270.708918 186.586868 
L 271.273526 186.402538 
L 272.402741 186.266277 
L 273.531955 186.395138 
L 273.814259 186.531172 
L 274.378867 186.640763 
L 275.790385 186.830712 
L 276.9196 186.681385 
L 280.307244 185.455192 
L 280.871852 185.408477 
L 282.28337 185.69082 
L 282.847978 185.901505 
L 283.977192 186.103618 
L 284.824104 186.017901 
L 285.388711 185.823457 
L 285.671015 185.611243 
L 285.953318 185.611243 
L 286.517926 185.267447 
L 287.082533 184.987028 
L 287.364837 184.765835 
L 287.647141 184.765835 
L 288.211748 184.495669 
L 288.776355 184.387128 
L 289.623267 184.47736 
L 290.470178 184.709189 
L 290.752481 184.858404 
L 291.034785 184.858404 
L 291.599392 185.03934 
L 292.446304 185.094211 
L 292.728607 185.069656 
L 293.010911 184.92772 
L 293.293215 184.92772 
L 293.857822 184.627306 
L 295.833948 183.817298 
L 296.680859 183.801424 
L 299.7862 184.673472 
L 300.633111 184.602409 
L 302.044629 184.052516 
L 303.456148 183.592928 
L 304.303059 183.633578 
L 306.279185 183.990967 
L 307.690704 183.954438 
L 310.231437 183.772138 
L 314.748296 183.7889 
L 316.724422 183.689533 
L 318.418244 183.865157 
L 320.39437 183.954128 
L 321.523585 183.759767 
L 323.217407 183.534288 
L 323.782015 183.612443 
L 324.628926 183.868167 
L 326.605052 184.34887 
L 327.734266 184.272988 
L 328.863481 183.904384 
L 329.428089 183.809151 
L 330.275 183.581414 
L 331.404215 183.618508 
L 333.098037 184.202414 
L 333.944948 184.513343 
L 334.791859 184.516836 
L 335.074163 184.516836 
L 338.179503 183.351429 
L 339.026414 183.411603 
L 339.591022 183.570884 
L 339.873326 183.80224 
L 340.155629 183.80224 
L 340.437933 184.219882 
L 341.00254 184.427249 
L 342.414059 184.988727 
L 343.26097 184.969924 
L 344.107881 184.630087 
L 344.954792 184.227347 
L 345.5194 183.882367 
L 346.648614 183.573554 
L 347.495526 183.693607 
L 348.060133 183.889053 
L 350.318563 185.324289 
L 350.88317 185.556613 
L 351.730081 185.618531 
L 352.576992 185.447116 
L 353.988511 184.978801 
L 355.117726 184.881223 
L 355.964637 184.987078 
L 357.376155 185.30313 
L 358.50537 185.321954 
L 359.069977 185.182371 
L 359.634585 184.976574 
L 360.199192 184.651539 
L 360.481496 184.651539 
L 361.046103 184.278338 
L 361.610711 183.960495 
L 361.893014 183.713218 
L 362.175318 183.713218 
L 362.739926 183.366114 
L 363.586837 182.996668 
L 364.151444 182.687578 
L 365.280659 182.220081 
L 366.692177 181.210246 
L 366.974481 180.853617 
L 367.256785 180.853617 
L 367.539088 180.34156 
L 368.103696 180.112911 
L 368.386 179.9742 
L 368.668303 179.680588 
L 368.950607 179.680588 
L 369.515214 179.420975 
L 370.644429 179.042444 
L 372.338251 178.235507 
L 372.902859 177.69498 
L 374.032074 176.886703 
L 374.314377 176.591711 
L 375.443592 176.080699 
L 375.725896 176.080699 
L 376.0082 175.913669 
L 376.855111 175.786641 
L 377.137414 175.612186 
L 377.419718 175.612186 
L 378.266629 175.144431 
L 379.11354 174.565359 
L 379.395844 174.247545 
L 380.525059 173.834586 
L 381.089666 173.830994 
L 382.218881 174.092574 
L 383.065792 174.311116 
L 383.912703 174.186461 
L 385.606525 172.908797 
L 385.888829 172.463952 
L 386.73574 171.931702 
L 387.582651 171.627832 
L 388.147259 171.672643 
L 388.99417 171.987599 
L 389.558777 172.241104 
L 390.405688 172.32514 
L 391.534903 171.918241 
L 392.099511 171.487453 
L 392.381814 171.078087 
L 394.075637 169.758326 
L 394.35794 169.758326 
L 394.922548 169.559214 
L 396.051762 169.610009 
L 396.61637 169.717037 
L 397.463281 169.662563 
L 398.027888 169.456932 
L 398.592496 169.001099 
L 399.439407 168.365174 
L 400.286318 167.462813 
L 401.133229 167.071266 
L 401.98014 166.88271 
L 402.827051 166.97197 
L 403.956266 167.286403 
L 404.803177 167.25178 
L 406.214696 166.397228 
L 406.496999 165.989128 
L 406.779303 165.989128 
L 407.061607 165.618621 
L 408.190822 165.095104 
L 409.320036 165.193574 
L 409.60234 165.287306 
L 410.166948 165.642634 
L 411.013859 166.033524 
L 412.143073 165.964857 
L 413.272288 165.27629 
L 413.836896 164.820701 
L 414.119199 164.569007 
L 414.683807 164.342201 
L 414.966111 164.102116 
L 415.813022 163.903104 
L 416.942236 163.990409 
L 417.22454 164.198301 
L 418.918362 164.332073 
L 419.48297 164.215003 
L 419.765273 164.106501 
L 420.047577 163.737186 
L 420.329881 163.737186 
L 420.894488 163.194863 
L 422.306007 162.44253 
L 423.152918 162.406367 
L 423.999829 162.658709 
L 425.411348 162.921453 
L 426.540562 162.665985 
L 427.10517 162.355984 
L 427.669777 161.949079 
L 428.798992 161.500614 
L 429.645903 161.552428 
L 430.21051 161.718903 
L 431.339725 162.607033 
L 432.186636 163.298333 
L 432.186636 163.298333 
" clip-path="url(#p14093c8104)" style="fill: none; stroke: #0000ff; stroke-width: 1.5; stroke-linecap: square"/>
   </g>
   <g id="patch_8">
    <path d="M 58.106 190.3975 
L 58.106 139.92 
" style="fill: none; stroke: #000000; stroke-width: 0.8; stroke-linejoin: miter; stroke-linecap: square"/>
   </g>
   <g id="patch_9">
    <path d="M 450 190.3975 
L 450 139.92 
" style="fill: none; stroke: #000000; stroke-width: 0.8; stroke-linejoin: miter; stroke-linecap: square"/>
   </g>
   <g id="patch_10">
    <path d="M 58.106 190.3975 
L 450 190.3975 
" style="fill: none; stroke: #000000; stroke-width: 0.8; stroke-linejoin: miter; stroke-linecap: square"/>
   </g>
   <g id="patch_11">
    <path d="M 58.106 139.92 
L 450 139.92 
" style="fill: none; stroke: #000000; stroke-width: 0.8; stroke-linejoin: miter; stroke-linecap: square"/>
   </g>
   <g id="text_25">
    <!-- Error in $z$-position -->
    <g transform="translate(200.773 133.92)scale(0.12 -0.12)">
     <use xlink:href="#DejaVuSans-45" transform="translate(0 0.015625)"/>
     <use xlink:href="#DejaVuSans-72" transform="translate(63.183594 0.015625)"/>
     <use xlink:href="#DejaVuSans-72" transform="translate(104.296875 0.015625)"/>
     <use xlink:href="#DejaVuSans-6f" transform="translate(145.410156 0.015625)"/>
     <use xlink:href="#DejaVuSans-72" transform="translate(206.591797 0.015625)"/>
     <use xlink:href="#DejaVuSans-20" transform="translate(247.705078 0.015625)"/>
     <use xlink:href="#DejaVuSans-69" transform="translate(279.492188 0.015625)"/>
     <use xlink:href="#DejaVuSans-6e" transform="translate(307.275391 0.015625)"/>
     <use xlink:href="#DejaVuSans-20" transform="translate(370.654297 0.015625)"/>
     <use xlink:href="#DejaVuSans-Oblique-7a" transform="translate(402.441406 0.015625)"/>
     <use xlink:href="#DejaVuSans-2d" transform="translate(454.931641 0.015625)"/>
     <use xlink:href="#DejaVuSans-70" transform="translate(491.015625 0.015625)"/>
     <use xlink:href="#DejaVuSans-6f" transform="translate(554.492188 0.015625)"/>
     <use xlink:href="#DejaVuSans-73" transform="translate(615.673828 0.015625)"/>
     <use xlink:href="#DejaVuSans-69" transform="translate(667.773438 0.015625)"/>
     <use xlink:href="#DejaVuSans-74" transform="translate(695.556641 0.015625)"/>
     <use xlink:href="#DejaVuSans-69" transform="translate(734.765625 0.015625)"/>
     <use xlink:href="#DejaVuSans-6f" transform="translate(762.548828 0.015625)"/>
     <use xlink:href="#DejaVuSans-6e" transform="translate(823.730469 0.015625)"/>
    </g>
   </g>
  </g>
  <g id="axes_3">
   <g id="patch_12">
    <path d="M 58.106 301.9975 
L 450 301.9975 
L 450 251.52 
L 58.106 251.52 
z
" style="fill: #ffffff"/>
   </g>
   <g id="matplotlib.axis_5">
    <g id="xtick_15">
     <g id="line2d_41">
      <path d="M 75.919364 301.9975 
L 75.919364 251.52 
" clip-path="url(#pf529d9e4d9)" style="fill: none; stroke: #b0b0b0; stroke-width: 0.8; stroke-linecap: square"/>
     </g>
     <g id="line2d_42">
      <g>
       <use xlink:href="#mf208d45481" x="75.919364" y="301.9975" style="stroke: #000000; stroke-width: 0.8"/>
      </g>
     </g>
     <g id="text_26">
      <!-- 0 -->
      <g transform="translate(72.738114 316.595937)scale(0.1 -0.1)">
       <use xlink:href="#DejaVuSans-30"/>
      </g>
     </g>
    </g>
    <g id="xtick_16">
     <g id="line2d_43">
      <path d="M 132.3354 301.9975 
L 132.3354 251.52 
" clip-path="url(#pf529d9e4d9)" style="fill: none; stroke: #b0b0b0; stroke-width: 0.8; stroke-linecap: square"/>
     </g>
     <g id="line2d_44">
      <g>
       <use xlink:href="#mf208d45481" x="132.3354" y="301.9975" style="stroke: #000000; stroke-width: 0.8"/>
      </g>
     </g>
     <g id="text_27">
      <!-- 2 -->
      <g transform="translate(129.15415 316.595937)scale(0.1 -0.1)">
       <use xlink:href="#DejaVuSans-32"/>
      </g>
     </g>
    </g>
    <g id="xtick_17">
     <g id="line2d_45">
      <path d="M 188.751437 301.9975 
L 188.751437 251.52 
" clip-path="url(#pf529d9e4d9)" style="fill: none; stroke: #b0b0b0; stroke-width: 0.8; stroke-linecap: square"/>
     </g>
     <g id="line2d_46">
      <g>
       <use xlink:href="#mf208d45481" x="188.751437" y="301.9975" style="stroke: #000000; stroke-width: 0.8"/>
      </g>
     </g>
     <g id="text_28">
      <!-- 4 -->
      <g transform="translate(185.570187 316.595937)scale(0.1 -0.1)">
       <use xlink:href="#DejaVuSans-34"/>
      </g>
     </g>
    </g>
    <g id="xtick_18">
     <g id="line2d_47">
      <path d="M 245.167474 301.9975 
L 245.167474 251.52 
" clip-path="url(#pf529d9e4d9)" style="fill: none; stroke: #b0b0b0; stroke-width: 0.8; stroke-linecap: square"/>
     </g>
     <g id="line2d_48">
      <g>
       <use xlink:href="#mf208d45481" x="245.167474" y="301.9975" style="stroke: #000000; stroke-width: 0.8"/>
      </g>
     </g>
     <g id="text_29">
      <!-- 6 -->
      <g transform="translate(241.986224 316.595937)scale(0.1 -0.1)">
       <use xlink:href="#DejaVuSans-36"/>
      </g>
     </g>
    </g>
    <g id="xtick_19">
     <g id="line2d_49">
      <path d="M 301.583511 301.9975 
L 301.583511 251.52 
" clip-path="url(#pf529d9e4d9)" style="fill: none; stroke: #b0b0b0; stroke-width: 0.8; stroke-linecap: square"/>
     </g>
     <g id="line2d_50">
      <g>
       <use xlink:href="#mf208d45481" x="301.583511" y="301.9975" style="stroke: #000000; stroke-width: 0.8"/>
      </g>
     </g>
     <g id="text_30">
      <!-- 8 -->
      <g transform="translate(298.402261 316.595937)scale(0.1 -0.1)">
       <use xlink:href="#DejaVuSans-38"/>
      </g>
     </g>
    </g>
    <g id="xtick_20">
     <g id="line2d_51">
      <path d="M 357.999548 301.9975 
L 357.999548 251.52 
" clip-path="url(#pf529d9e4d9)" style="fill: none; stroke: #b0b0b0; stroke-width: 0.8; stroke-linecap: square"/>
     </g>
     <g id="line2d_52">
      <g>
       <use xlink:href="#mf208d45481" x="357.999548" y="301.9975" style="stroke: #000000; stroke-width: 0.8"/>
      </g>
     </g>
     <g id="text_31">
      <!-- 10 -->
      <g transform="translate(351.637048 316.595937)scale(0.1 -0.1)">
       <use xlink:href="#DejaVuSans-31"/>
       <use xlink:href="#DejaVuSans-30" x="63.623047"/>
      </g>
     </g>
    </g>
    <g id="xtick_21">
     <g id="line2d_53">
      <path d="M 414.415585 301.9975 
L 414.415585 251.52 
" clip-path="url(#pf529d9e4d9)" style="fill: none; stroke: #b0b0b0; stroke-width: 0.8; stroke-linecap: square"/>
     </g>
     <g id="line2d_54">
      <g>
       <use xlink:href="#mf208d45481" x="414.415585" y="301.9975" style="stroke: #000000; stroke-width: 0.8"/>
      </g>
     </g>
     <g id="text_32">
      <!-- 12 -->
      <g transform="translate(408.053085 316.595937)scale(0.1 -0.1)">
       <use xlink:href="#DejaVuSans-31"/>
       <use xlink:href="#DejaVuSans-32" x="63.623047"/>
      </g>
     </g>
    </g>
    <g id="text_33">
     <!-- $t$ [s] -->
     <g transform="translate(243.953 330.274063)scale(0.1 -0.1)">
      <use xlink:href="#DejaVuSans-Oblique-74" transform="translate(0 0.015625)"/>
      <use xlink:href="#DejaVuSans-20" transform="translate(39.208984 0.015625)"/>
      <use xlink:href="#DejaVuSans-5b" transform="translate(70.996094 0.015625)"/>
      <use xlink:href="#DejaVuSans-73" transform="translate(110.009766 0.015625)"/>
      <use xlink:href="#DejaVuSans-5d" transform="translate(162.109375 0.015625)"/>
     </g>
    </g>
   </g>
   <g id="matplotlib.axis_6">
    <g id="ytick_6">
     <g id="line2d_55">
      <path d="M 58.106 287.875658 
L 450 287.875658 
" clip-path="url(#pf529d9e4d9)" style="fill: none; stroke: #b0b0b0; stroke-width: 0.8; stroke-linecap: square"/>
     </g>
     <g id="line2d_56">
      <g>
       <use xlink:href="#mcf4089eadd" x="58.106" y="287.875658" style="stroke: #000000; stroke-width: 0.8"/>
      </g>
     </g>
     <g id="text_34">
      <!-- −0.1 -->
      <g transform="translate(26.823188 291.674876)scale(0.1 -0.1)">
       <use xlink:href="#DejaVuSans-2212"/>
       <use xlink:href="#DejaVuSans-30" x="83.789062"/>
       <use xlink:href="#DejaVuSans-2e" x="147.412109"/>
       <use xlink:href="#DejaVuSans-31" x="179.199219"/>
      </g>
     </g>
    </g>
    <g id="ytick_7">
     <g id="line2d_57">
      <path d="M 58.106 273.137529 
L 450 273.137529 
" clip-path="url(#pf529d9e4d9)" style="fill: none; stroke: #b0b0b0; stroke-width: 0.8; stroke-linecap: square"/>
     </g>
     <g id="line2d_58">
      <g>
       <use xlink:href="#mcf4089eadd" x="58.106" y="273.137529" style="stroke: #000000; stroke-width: 0.8"/>
      </g>
     </g>
     <g id="text_35">
      <!-- 0.0 -->
      <g transform="translate(35.202875 276.936747)scale(0.1 -0.1)">
       <use xlink:href="#DejaVuSans-30"/>
       <use xlink:href="#DejaVuSans-2e" x="63.623047"/>
       <use xlink:href="#DejaVuSans-30" x="95.410156"/>
      </g>
     </g>
    </g>
    <g id="ytick_8">
     <g id="line2d_59">
      <path d="M 58.106 258.3994 
L 450 258.3994 
" clip-path="url(#pf529d9e4d9)" style="fill: none; stroke: #b0b0b0; stroke-width: 0.8; stroke-linecap: square"/>
     </g>
     <g id="line2d_60">
      <g>
       <use xlink:href="#mcf4089eadd" x="58.106" y="258.3994" style="stroke: #000000; stroke-width: 0.8"/>
      </g>
     </g>
     <g id="text_36">
      <!-- 0.1 -->
      <g transform="translate(35.202875 262.198618)scale(0.1 -0.1)">
       <use xlink:href="#DejaVuSans-30"/>
       <use xlink:href="#DejaVuSans-2e" x="63.623047"/>
       <use xlink:href="#DejaVuSans-31" x="95.410156"/>
      </g>
     </g>
    </g>
    <g id="text_37">
     <!-- $e_\theta$ [rad] -->
     <g transform="translate(20.7435 295.90875)rotate(-90)scale(0.1 -0.1)">
      <defs>
       <path id="DejaVuSans-Oblique-3b8" d="M 2913 2219 
L 925 2219 
Q 791 1284 928 888 
Q 1100 400 1566 400 
Q 2034 400 2391 891 
Q 2703 1322 2913 2219 
z
M 3009 2750 
Q 3094 3638 2984 3950 
Q 2813 4444 2353 4444 
Q 1875 4444 1525 3956 
Q 1250 3563 1034 2750 
L 3009 2750 
z
M 2444 4913 
Q 3194 4913 3494 4250 
Q 3794 3591 3566 2422 
Q 3341 1256 2781 594 
Q 2225 -72 1475 -72 
Q 722 -72 425 594 
Q 128 1256 353 2422 
Q 581 3591 1134 4250 
Q 1691 4913 2444 4913 
z
" transform="scale(0.015625)"/>
       <path id="DejaVuSans-61" d="M 2194 1759 
Q 1497 1759 1228 1600 
Q 959 1441 959 1056 
Q 959 750 1161 570 
Q 1363 391 1709 391 
Q 2188 391 2477 730 
Q 2766 1069 2766 1631 
L 2766 1759 
L 2194 1759 
z
M 3341 1997 
L 3341 0 
L 2766 0 
L 2766 531 
Q 2569 213 2275 61 
Q 1981 -91 1556 -91 
Q 1019 -91 701 211 
Q 384 513 384 1019 
Q 384 1609 779 1909 
Q 1175 2209 1959 2209 
L 2766 2209 
L 2766 2266 
Q 2766 2663 2505 2880 
Q 2244 3097 1772 3097 
Q 1472 3097 1187 3025 
Q 903 2953 641 2809 
L 641 3341 
Q 956 3463 1253 3523 
Q 1550 3584 1831 3584 
Q 2591 3584 2966 3190 
Q 3341 2797 3341 1997 
z
" transform="scale(0.015625)"/>
       <path id="DejaVuSans-64" d="M 2906 2969 
L 2906 4863 
L 3481 4863 
L 3481 0 
L 2906 0 
L 2906 525 
Q 2725 213 2448 61 
Q 2172 -91 1784 -91 
Q 1150 -91 751 415 
Q 353 922 353 1747 
Q 353 2572 751 3078 
Q 1150 3584 1784 3584 
Q 2172 3584 2448 3432 
Q 2725 3281 2906 2969 
z
M 947 1747 
Q 947 1113 1208 752 
Q 1469 391 1925 391 
Q 2381 391 2643 752 
Q 2906 1113 2906 1747 
Q 2906 2381 2643 2742 
Q 2381 3103 1925 3103 
Q 1469 3103 1208 2742 
Q 947 2381 947 1747 
z
" transform="scale(0.015625)"/>
      </defs>
      <use xlink:href="#DejaVuSans-Oblique-65" transform="translate(0 0.015625)"/>
      <use xlink:href="#DejaVuSans-Oblique-3b8" transform="translate(61.523438 -16.390625)scale(0.7)"/>
      <use xlink:href="#DejaVuSans-20" transform="translate(107.084961 0.015625)"/>
      <use xlink:href="#DejaVuSans-5b" transform="translate(138.87207 0.015625)"/>
      <use xlink:href="#DejaVuSans-72" transform="translate(177.885742 0.015625)"/>
      <use xlink:href="#DejaVuSans-61" transform="translate(218.999023 0.015625)"/>
      <use xlink:href="#DejaVuSans-64" transform="translate(280.27832 0.015625)"/>
      <use xlink:href="#DejaVuSans-5d" transform="translate(343.754883 0.015625)"/>
     </g>
    </g>
   </g>
   <g id="line2d_61">
    <path d="M 75.919364 273.119126 
L 76.201667 272.780026 
L 76.483971 272.780026 
L 76.766275 271.815268 
L 77.048578 271.635305 
L 77.613186 270.589936 
L 78.460097 265.426381 
L 78.742401 264.807292 
L 80.153919 258.567133 
L 80.718527 257.649018 
L 81.283134 257.224084 
L 81.565438 257.224084 
L 81.847741 258.265215 
L 82.130045 258.598122 
L 82.694652 260.354606 
L 82.976956 261.481715 
L 83.25926 263.508304 
L 83.541564 266.808979 
L 84.670778 275.038913 
L 85.51769 285.215984 
L 86.929208 295.286096 
L 87.493815 296.968483 
L 88.058423 298.195954 
L 88.340727 298.195954 
L 89.187638 296.226331 
L 89.469941 295.238418 
L 89.752245 292.632905 
L 90.034549 292.632905 
L 90.316852 287.245632 
L 90.599156 286.221162 
L 91.163764 281.931253 
L 91.446067 277.57747 
L 91.728371 277.57747 
L 92.010675 271.433279 
L 92.292978 270.478362 
L 92.857586 266.944509 
L 93.139889 263.890296 
L 93.704497 260.761639 
L 93.986801 259.268764 
L 94.269104 258.843177 
L 95.116015 256.883253 
L 95.680623 256.937985 
L 96.24523 257.258741 
L 96.527534 257.727853 
L 96.809838 257.727853 
L 97.092141 257.975786 
L 97.939052 258.095262 
L 99.632875 257.977105 
L 100.197482 258.279889 
L 100.762089 259.035998 
L 101.044393 259.598324 
L 101.326697 259.598324 
L 101.891304 261.108808 
L 102.173608 261.727809 
L 102.455912 262.773476 
L 102.738215 264.392206 
L 103.585126 267.401329 
L 104.149734 269.812146 
L 104.432038 271.822033 
L 104.714341 274.687019 
L 105.843556 280.819062 
L 106.12586 284.490501 
L 106.408164 284.490501 
L 106.690467 286.974099 
L 107.255075 288.821663 
L 107.819682 289.999557 
L 108.101986 289.854352 
L 108.384289 289.301372 
L 108.666593 289.045586 
L 109.231201 287.742337 
L 109.513504 286.951976 
L 109.795808 285.665413 
L 110.078112 283.801568 
L 110.925023 280.871603 
L 111.48963 277.563047 
L 111.771934 276.324002 
L 112.054238 275.949673 
L 112.901149 274.170087 
L 113.183452 274.316769 
L 113.465756 274.968339 
L 113.74806 275.292834 
L 114.312667 277.017656 
L 114.594971 279.072317 
L 115.724186 282.862879 
L 116.006489 282.862879 
L 116.288793 282.666353 
L 116.571097 282.199765 
L 117.135704 279.608656 
L 117.418008 277.843495 
L 117.700312 277.843495 
L 117.982615 275.224292 
L 118.264919 273.871127 
L 119.11183 267.875113 
L 119.394134 267.875113 
L 119.676438 265.458371 
L 120.523349 261.728381 
L 120.805652 259.832297 
L 121.087956 259.832297 
L 121.37026 258.104263 
L 122.217171 255.569531 
L 122.499475 254.52022 
L 122.781778 254.52022 
L 123.064082 253.912677 
L 123.346386 253.814432 
L 123.628689 253.977389 
L 123.910993 254.576943 
L 124.193297 255.645775 
L 124.4756 255.645775 
L 124.757904 257.652308 
L 125.322512 260.061199 
L 126.169423 265.015752 
L 126.73403 266.496092 
L 127.298638 267.365362 
L 127.580941 267.537794 
L 128.427852 266.408257 
L 128.99246 265.361645 
L 129.839371 263.171137 
L 130.403978 262.691682 
L 130.686282 262.621218 
L 130.968586 262.744601 
L 131.533193 263.698373 
L 132.662408 265.506875 
L 133.509319 267.196828 
L 134.35623 267.977142 
L 134.638534 268.1807 
L 134.920837 268.153841 
L 135.485445 267.8049 
L 135.767749 267.539007 
L 136.050052 266.913015 
L 136.332356 266.913015 
L 136.61466 266.065584 
L 137.461571 265.761451 
L 138.026178 265.8686 
L 138.308482 266.433165 
L 138.590786 266.551962 
L 139.155393 267.068632 
L 139.437697 267.812184 
L 139.72 267.812184 
L 140.002304 268.478354 
L 141.131519 269.924667 
L 141.413823 270.391528 
L 142.825341 271.331754 
L 143.389949 271.931405 
L 144.23686 272.712704 
L 145.366074 274.386477 
L 146.495289 275.5663 
L 147.059897 275.679714 
L 147.3422 275.669213 
L 147.624504 275.536769 
L 147.906808 275.082996 
L 148.189112 275.082996 
L 148.753719 273.736917 
L 149.318326 272.444985 
L 150.447541 268.432094 
L 151.294452 266.405083 
L 151.576756 266.405083 
L 151.85906 266.207596 
L 152.705971 266.145224 
L 153.270578 265.756298 
L 153.552882 265.334614 
L 153.835186 265.152262 
L 154.399793 264.218287 
L 154.682097 263.010299 
L 154.9644 263.010299 
L 155.246704 260.901021 
L 155.529008 260.531934 
L 156.093615 259.084812 
L 156.375919 257.875808 
L 157.22283 256.719053 
L 157.787437 256.694385 
L 158.069741 257.015843 
L 158.352045 257.015843 
L 158.634349 257.992848 
L 158.916652 258.177821 
L 159.48126 258.895267 
L 159.763563 259.604849 
L 160.045867 259.604849 
L 160.328171 259.936059 
L 160.892778 260.050431 
L 161.175082 260.02803 
L 161.457386 259.893446 
L 162.021993 259.393435 
L 163.151208 258.701131 
L 163.433511 258.640192 
L 163.998119 258.834394 
L 164.280423 259.032424 
L 164.562726 259.449045 
L 165.127334 260.61612 
L 165.974245 262.030657 
L 166.538852 263.544338 
L 166.821156 263.544338 
L 167.10346 264.215566 
L 167.950371 265.017757 
L 168.514978 265.088769 
L 169.361889 264.885222 
L 170.773408 264.221634 
L 171.620319 263.432238 
L 171.902623 263.432238 
L 172.184926 263.16569 
L 172.46723 263.11274 
L 172.749534 263.175696 
L 173.031837 263.491636 
L 173.314141 264.122211 
L 173.596445 264.122211 
L 174.443356 268.267112 
L 175.007963 272.631955 
L 175.290267 272.631955 
L 175.572571 275.821599 
L 176.419482 280.387173 
L 176.701785 280.833476 
L 176.984089 280.833476 
L 177.548697 279.744106 
L 178.113304 276.930912 
L 178.395608 275.267595 
L 178.677911 275.267595 
L 178.960215 273.015122 
L 179.807126 269.645122 
L 180.371734 269.15371 
L 180.654037 269.38391 
L 180.936341 269.894285 
L 181.218645 270.651409 
L 181.500948 272.181797 
L 181.783252 274.641306 
L 182.630163 278.218137 
L 183.194771 279.781329 
L 183.477074 279.619361 
L 183.759378 279.076167 
L 184.323985 277.264531 
L 184.888593 274.811673 
L 186.017808 267.416277 
L 186.864719 263.816224 
L 187.147022 263.083415 
L 187.429326 263.186262 
L 187.71163 263.594452 
L 187.993934 264.28917 
L 188.276237 265.801094 
L 188.558541 268.395333 
L 188.840845 268.395333 
L 189.123148 271.334816 
L 189.97006 275.843978 
L 190.252363 276.244151 
L 190.534667 276.244151 
L 191.099274 274.601253 
L 191.381578 273.484285 
L 191.663882 271.460127 
L 191.946185 268.422345 
L 193.357704 260.0857 
L 193.640008 257.681275 
L 193.922311 257.681275 
L 194.204615 255.967481 
L 194.486919 255.459019 
L 194.769222 255.230035 
L 195.051526 255.482453 
L 196.745348 264.3409 
L 197.592259 271.275613 
L 198.156867 272.982433 
L 198.439171 273.322657 
L 198.721474 272.656191 
L 199.003778 272.656191 
L 199.568385 269.613417 
L 200.132993 266.925871 
L 200.415296 263.398524 
L 200.6976 263.398524 
L 200.979904 260.727452 
L 202.109119 256.165026 
L 202.391422 256.165026 
L 202.95603 257.378514 
L 203.520637 259.59274 
L 203.802941 261.83464 
L 204.085245 265.254731 
L 205.496763 274.877578 
L 205.779067 274.877578 
L 206.061371 275.420707 
L 206.343674 275.157034 
L 206.625978 274.211306 
L 207.190585 271.02632 
L 207.472889 271.02632 
L 207.755193 268.536627 
L 208.037496 267.268546 
L 208.884408 262.386567 
L 209.166711 262.386567 
L 209.449015 261.187921 
L 209.731319 260.986628 
L 210.57823 262.734801 
L 210.860533 263.904107 
L 211.707445 272.033082 
L 211.989748 272.888852 
L 212.554356 276.088091 
L 212.836659 278.595992 
L 213.118963 278.595992 
L 213.401267 278.939485 
L 213.683571 278.602016 
L 214.248178 277.147238 
L 214.530482 275.577205 
L 214.812785 273.135949 
L 215.659696 269.311452 
L 216.224304 265.338595 
L 216.788911 263.897179 
L 217.071215 263.551305 
L 217.353519 263.590834 
L 217.635822 264.351219 
L 217.918126 264.755797 
L 218.20043 265.774049 
L 219.047341 273.347287 
L 219.329645 274.178621 
L 220.176556 279.226675 
L 220.458859 279.774241 
L 221.023467 279.222476 
L 221.588074 277.522926 
L 222.434985 270.850681 
L 222.717289 270.121681 
L 223.281896 267.254515 
L 223.5642 264.535216 
L 224.411111 260.786133 
L 224.693415 260.377518 
L 224.975719 260.377518 
L 225.540326 261.771819 
L 226.669541 268.026268 
L 227.234148 273.592439 
L 227.516452 275.278454 
L 227.798756 275.701179 
L 228.081059 276.32432 
L 228.363363 276.610864 
L 228.645667 276.118588 
L 228.92797 274.920227 
L 229.210274 273.186429 
L 229.492578 272.521541 
L 230.057185 269.60242 
L 230.339489 266.521694 
L 230.621793 264.980928 
L 231.468704 258.688083 
L 231.751007 258.688083 
L 232.033311 256.832209 
L 232.315615 256.319055 
L 232.597919 256.147991 
L 232.880222 256.57039 
L 233.727133 261.176074 
L 234.291741 264.681094 
L 234.856348 270.803779 
L 235.138652 270.803779 
L 235.420956 273.457946 
L 235.703259 274.694318 
L 235.985563 275.146718 
L 236.267867 275.113774 
L 236.55017 274.792659 
L 236.832474 274.16202 
L 237.114778 272.183261 
L 237.397082 272.183261 
L 237.679385 268.248088 
L 237.961689 267.557283 
L 238.8086 262.848445 
L 239.090904 260.55898 
L 239.655511 258.888104 
L 239.937815 258.383177 
L 240.220119 258.154601 
L 240.502422 258.993735 
L 240.784726 258.993735 
L 241.349333 262.464199 
L 241.913941 265.8104 
L 242.196244 269.444094 
L 242.478548 269.444094 
L 242.760852 274.633762 
L 243.043156 275.362946 
L 243.607763 277.59285 
L 243.890067 278.465828 
L 244.17237 278.164252 
L 244.454674 277.172021 
L 244.736978 276.716427 
L 245.301585 274.454493 
L 245.583889 271.790222 
L 245.866193 271.790222 
L 246.148496 267.6322 
L 246.4308 266.959142 
L 246.995407 264.416725 
L 247.277711 262.435449 
L 247.560015 262.435449 
L 247.842319 261.496645 
L 248.124622 261.619286 
L 248.406926 262.099836 
L 248.68923 262.890778 
L 248.971533 265.28195 
L 249.253837 265.28195 
L 249.536141 270.201297 
L 249.818444 271.066305 
L 250.383052 274.373425 
L 250.665356 276.927591 
L 251.229963 278.374363 
L 251.79457 278.156843 
L 252.076874 277.639664 
L 252.359178 275.940591 
L 252.641481 275.940591 
L 252.923785 272.290243 
L 253.206089 271.612335 
L 253.770696 268.861213 
L 254.053 266.22962 
L 254.335304 266.22962 
L 254.617607 263.426361 
L 255.464519 262.7254 
L 256.029126 264.269884 
L 256.593733 267.945139 
L 256.876037 270.143043 
L 257.158341 270.143043 
L 257.440644 273.115993 
L 258.287556 277.31484 
L 258.852163 277.778295 
L 259.134467 277.713472 
L 259.41677 277.086318 
L 259.981378 274.319168 
L 260.545985 271.775144 
L 260.828289 268.985736 
L 261.110593 268.985736 
L 261.392896 264.978343 
L 261.6752 264.366046 
L 262.522111 261.328718 
L 262.804415 261.351347 
L 263.086718 261.983869 
L 263.369022 263.214705 
L 263.651326 263.72491 
L 263.93363 264.872633 
L 264.215933 267.594779 
L 264.498237 267.594779 
L 264.780541 271.949901 
L 265.062844 272.657418 
L 265.909756 276.816785 
L 266.192059 277.18579 
L 266.474363 277.120485 
L 266.756667 276.368832 
L 267.03897 275.981015 
L 267.321274 275.027633 
L 267.603578 272.550483 
L 267.885881 271.124196 
L 268.450489 266.492716 
L 268.732793 265.710145 
L 269.015096 264.187552 
L 269.2974 261.362319 
L 269.862007 259.192705 
L 270.144311 258.317201 
L 270.708918 258.252518 
L 271.838133 263.159812 
L 272.120437 265.547079 
L 272.402741 268.894381 
L 273.814259 277.282782 
L 274.096563 277.282782 
L 274.378867 277.496008 
L 274.66117 277.094023 
L 275.225778 275.43746 
L 275.508081 273.626977 
L 275.790385 270.798066 
L 276.9196 264.651122 
L 277.484207 259.969551 
L 278.048815 258.312475 
L 278.331118 257.896837 
L 278.613422 257.802726 
L 278.895726 258.281821 
L 279.460333 261.286904 
L 280.307244 266.087367 
L 280.589548 270.507233 
L 280.871852 270.507233 
L 281.154155 273.766392 
L 282.001067 277.568419 
L 282.28337 278.610342 
L 282.565674 278.913007 
L 282.847978 278.597936 
L 283.412585 277.165061 
L 283.694889 276.126597 
L 283.977192 274.259962 
L 284.259496 271.415751 
L 285.106407 266.952989 
L 285.671015 262.351445 
L 285.953318 262.351445 
L 286.235622 260.705409 
L 286.517926 260.312063 
L 286.80023 260.222527 
L 287.082533 260.684782 
L 287.364837 262.360041 
L 287.647141 262.360041 
L 287.929444 264.917836 
L 288.211748 266.383657 
L 288.776355 270.968202 
L 289.058659 271.694914 
L 289.340963 273.10034 
L 289.623267 275.562464 
L 290.187874 277.329159 
L 290.470178 278.100118 
L 290.752481 278.363795 
L 291.034785 278.363795 
L 291.599392 277.169024 
L 292.728607 272.725315 
L 293.010911 269.595809 
L 293.293215 269.595809 
L 293.575518 267.169778 
L 294.422429 264.133508 
L 294.987037 262.9751 
L 295.269341 262.998346 
L 295.551644 263.27641 
L 296.116252 264.297342 
L 296.398555 266.316151 
L 296.680859 266.316151 
L 296.963163 268.347212 
L 298.092378 273.126524 
L 298.374681 274.81822 
L 299.221592 276.638718 
L 299.503896 277.189242 
L 299.7862 277.3998 
L 300.068504 277.231407 
L 300.350807 276.869479 
L 300.633111 276.313732 
L 301.197718 273.635022 
L 301.480022 271.848653 
L 301.762326 271.848653 
L 302.044629 269.275308 
L 302.891541 264.824249 
L 303.173844 262.738138 
L 303.738452 261.195615 
L 304.303059 260.345768 
L 304.585363 260.355936 
L 304.867666 261.42873 
L 305.14997 261.42873 
L 305.714578 265.127008 
L 305.996881 266.777906 
L 307.126096 276.365473 
L 307.973007 280.274779 
L 308.255311 280.757981 
L 308.537615 280.4867 
L 308.819918 279.908498 
L 309.384526 277.979029 
L 309.666829 276.05012 
L 309.949133 273.090019 
L 310.231437 273.090019 
L 310.513741 269.908535 
L 310.796044 268.318689 
L 311.642955 261.801982 
L 311.925259 261.801982 
L 312.207563 259.864433 
L 312.489866 259.3053 
L 312.77217 259.092511 
L 313.619081 261.079492 
L 314.465992 269.391587 
L 314.748296 270.359004 
L 315.877511 277.604216 
L 316.159815 279.033682 
L 316.442118 279.270059 
L 316.724422 279.211158 
L 317.006726 278.891841 
L 317.289029 278.344318 
L 317.571333 277.155774 
L 317.853637 274.982944 
L 318.982852 269.412118 
L 319.829763 263.155464 
L 320.39437 261.201903 
L 320.958978 260.066845 
L 321.241281 260.566032 
L 321.805889 262.374694 
L 322.088192 263.683744 
L 322.370496 266.024089 
L 322.6528 269.48679 
L 324.064318 278.221079 
L 324.346622 278.221079 
L 324.628926 278.907604 
L 324.911229 278.819825 
L 325.193533 278.466392 
L 325.475837 277.489629 
L 325.75814 275.499732 
L 326.040444 275.499732 
L 326.322748 273.017944 
L 326.605052 271.655571 
L 327.169659 267.565286 
L 327.451963 266.932984 
L 327.734266 265.736502 
L 328.01657 263.777057 
L 328.581177 262.449954 
L 328.863481 262.316715 
L 329.145785 262.386879 
L 329.428089 262.715498 
L 329.710392 264.134499 
L 329.992696 264.134499 
L 330.275 267.772058 
L 330.557303 268.474528 
L 331.686518 274.50998 
L 331.968822 276.268831 
L 332.533429 277.110373 
L 332.815733 277.177535 
L 333.098037 277.019799 
L 333.38034 276.379588 
L 333.944948 273.885959 
L 334.509555 271.619588 
L 334.791859 268.528092 
L 335.074163 268.528092 
L 335.356466 266.227907 
L 335.921074 264.353714 
L 336.485681 263.165331 
L 336.767985 263.165331 
L 337.050289 264.531176 
L 337.332592 264.977672 
L 337.8972 267.199088 
L 338.179503 269.870707 
L 338.461807 269.870707 
L 338.744111 273.920614 
L 339.026414 274.553377 
L 339.873326 278.438536 
L 340.155629 278.438536 
L 340.437933 278.938476 
L 340.720237 278.788616 
L 341.00254 278.300078 
L 341.284844 277.573918 
L 341.567148 275.537106 
L 341.849452 275.537106 
L 342.131755 271.557605 
L 342.414059 270.84979 
L 343.543274 265.002066 
L 343.825577 263.207462 
L 344.390185 262.190775 
L 344.672489 262.033054 
L 344.954792 262.274024 
L 346.366311 268.388719 
L 347.213222 274.346653 
L 348.060133 277.334088 
L 348.342437 278.296206 
L 348.62474 278.754872 
L 348.907044 278.590713 
L 349.189348 278.168823 
L 349.471651 277.515501 
L 349.753955 276.176057 
L 350.036259 273.96666 
L 350.318563 273.96666 
L 350.600866 271.703552 
L 351.447777 268.24906 
L 352.012385 267.575105 
L 352.294689 267.123398 
L 352.576992 267.053912 
L 352.859296 267.116578 
L 353.706207 267.650383 
L 354.270814 268.568345 
L 354.553118 268.925504 
L 355.117726 270.216433 
L 355.400029 270.216433 
L 355.682333 270.906114 
L 356.811548 272.061114 
L 358.223066 272.82378 
L 358.787674 272.937175 
L 359.352281 273.089787 
L 359.916888 273.031413 
L 360.7638 272.626382 
L 361.328407 272.114203 
L 361.610711 271.568101 
L 361.893014 270.658201 
L 362.175318 270.658201 
L 362.457622 269.643028 
L 363.586837 267.402507 
L 363.86914 266.544124 
L 364.716051 265.52978 
L 365.562963 264.858984 
L 365.845266 264.795623 
L 366.409874 265.019928 
L 366.692177 265.24659 
L 366.974481 265.915165 
L 367.256785 265.915165 
L 367.539088 267.397178 
L 367.821392 267.686966 
L 368.386 268.914665 
L 368.668303 270.504295 
L 368.950607 270.504295 
L 369.232911 271.668812 
L 369.797518 272.577282 
L 370.362125 273.128213 
L 370.644429 272.940832 
L 370.926733 272.443437 
L 371.209037 272.211757 
L 371.773644 270.999357 
L 372.055948 270.266755 
L 372.902859 266.696829 
L 373.74977 264.927689 
L 374.032074 264.50179 
L 374.314377 264.593554 
L 374.596681 264.939971 
L 375.161288 266.174807 
L 375.443592 268.001892 
L 375.725896 268.001892 
L 376.0082 271.427246 
L 376.290503 272.034946 
L 376.855111 274.470361 
L 377.137414 277.183897 
L 377.419718 277.183897 
L 377.702022 278.851018 
L 378.266629 279.928342 
L 378.548933 280.198582 
L 378.831237 280.236236 
L 379.11354 279.858225 
L 379.678148 278.136906 
L 380.525059 276.050612 
L 380.807362 275.240542 
L 381.37197 274.748367 
L 383.065792 273.791912 
L 383.6304 273.738299 
L 383.912703 273.855209 
L 384.477311 274.42845 
L 385.324222 274.920877 
L 385.606525 274.934309 
L 386.73574 273.304218 
L 387.018044 272.793968 
L 387.300348 271.512952 
L 387.582651 271.512952 
L 387.864955 270.609386 
L 388.429562 269.922252 
L 388.99417 269.616489 
L 389.841081 270.84734 
L 390.123385 271.463802 
L 390.405688 272.592102 
L 390.687992 274.363639 
L 391.817207 277.878453 
L 392.099511 278.661169 
L 392.381814 278.870361 
L 392.664118 278.576704 
L 393.228725 277.26501 
L 394.075637 272.462335 
L 394.35794 272.462335 
L 394.640244 270.46424 
L 395.204851 268.568294 
L 395.769459 268.25588 
L 396.051762 268.286409 
L 396.61637 269.481188 
L 397.745585 271.661645 
L 398.310192 273.247502 
L 398.874799 273.762972 
L 399.157103 273.868503 
L 399.439407 273.85285 
L 399.721711 273.579738 
L 400.286318 272.200314 
L 401.133229 270.006076 
L 401.697836 267.989162 
L 401.98014 266.85319 
L 402.262444 266.537592 
L 402.544748 266.412715 
L 402.827051 266.475116 
L 403.109355 266.877552 
L 403.673962 268.42241 
L 405.085481 271.470579 
L 405.650088 271.720398 
L 406.214696 271.83834 
L 406.496999 272.039043 
L 406.779303 272.039043 
L 407.626214 273.501503 
L 407.908518 273.926158 
L 408.190822 274.095171 
L 409.60234 274.027009 
L 410.449251 273.137395 
L 411.013859 271.96372 
L 411.296162 271.96372 
L 411.578466 271.205708 
L 412.425377 270.352729 
L 413.554592 270.145691 
L 413.836896 270.445592 
L 414.119199 271.104648 
L 414.401503 271.405788 
L 414.683807 272.117265 
L 414.966111 273.797995 
L 415.813022 276.466917 
L 416.377629 276.847746 
L 416.942236 276.734744 
L 417.22454 275.554486 
L 417.506844 275.291727 
L 418.071451 274.216808 
L 418.353755 273.309335 
L 418.636059 273.309335 
L 418.918362 272.934839 
L 419.200666 273.015095 
L 419.765273 273.695466 
L 420.047577 274.986751 
L 420.329881 274.986751 
L 420.612185 275.770601 
L 420.894488 275.922945 
L 421.176792 275.910235 
L 421.459096 275.770677 
L 422.306007 274.921299 
L 422.58831 274.929346 
L 423.152918 275.271672 
L 423.999829 276.422438 
L 424.564436 276.464847 
L 425.129044 276.220699 
L 425.411348 276.005012 
L 425.693651 275.945664 
L 425.975955 276.073128 
L 426.540562 276.731179 
L 426.822866 277.282247 
L 427.10517 278.435485 
L 427.387473 280.63313 
L 428.234385 284.891133 
L 429.081296 291.508577 
L 430.775118 299.153942 
L 431.057422 299.545874 
L 431.339725 299.703068 
L 431.622029 299.565435 
L 431.904333 299.091585 
L 432.186636 297.685735 
L 432.186636 297.685735 
" clip-path="url(#pf529d9e4d9)" style="fill: none; stroke: #008000; stroke-width: 1.5; stroke-linecap: square"/>
   </g>
   <g id="patch_13">
    <path d="M 58.106 301.9975 
L 58.106 251.52 
" style="fill: none; stroke: #000000; stroke-width: 0.8; stroke-linejoin: miter; stroke-linecap: square"/>
   </g>
   <g id="patch_14">
    <path d="M 450 301.9975 
L 450 251.52 
" style="fill: none; stroke: #000000; stroke-width: 0.8; stroke-linejoin: miter; stroke-linecap: square"/>
   </g>
   <g id="patch_15">
    <path d="M 58.106 301.9975 
L 450 301.9975 
" style="fill: none; stroke: #000000; stroke-width: 0.8; stroke-linejoin: miter; stroke-linecap: square"/>
   </g>
   <g id="patch_16">
    <path d="M 58.106 251.52 
L 450 251.52 
" style="fill: none; stroke: #000000; stroke-width: 0.8; stroke-linejoin: miter; stroke-linecap: square"/>
   </g>
   <g id="text_38">
    <!-- Error in swing angle -->
    <g transform="translate(194.282688 245.52)scale(0.12 -0.12)">
     <defs>
      <path id="DejaVuSans-77" d="M 269 3500 
L 844 3500 
L 1563 769 
L 2278 3500 
L 2956 3500 
L 3675 769 
L 4391 3500 
L 4966 3500 
L 4050 0 
L 3372 0 
L 2619 2869 
L 1863 0 
L 1184 0 
L 269 3500 
z
" transform="scale(0.015625)"/>
      <path id="DejaVuSans-67" d="M 2906 1791 
Q 2906 2416 2648 2759 
Q 2391 3103 1925 3103 
Q 1463 3103 1205 2759 
Q 947 2416 947 1791 
Q 947 1169 1205 825 
Q 1463 481 1925 481 
Q 2391 481 2648 825 
Q 2906 1169 2906 1791 
z
M 3481 434 
Q 3481 -459 3084 -895 
Q 2688 -1331 1869 -1331 
Q 1566 -1331 1297 -1286 
Q 1028 -1241 775 -1147 
L 775 -588 
Q 1028 -725 1275 -790 
Q 1522 -856 1778 -856 
Q 2344 -856 2625 -561 
Q 2906 -266 2906 331 
L 2906 616 
Q 2728 306 2450 153 
Q 2172 0 1784 0 
Q 1141 0 747 490 
Q 353 981 353 1791 
Q 353 2603 747 3093 
Q 1141 3584 1784 3584 
Q 2172 3584 2450 3431 
Q 2728 3278 2906 2969 
L 2906 3500 
L 3481 3500 
L 3481 434 
z
" transform="scale(0.015625)"/>
      <path id="DejaVuSans-6c" d="M 603 4863 
L 1178 4863 
L 1178 0 
L 603 0 
L 603 4863 
z
" transform="scale(0.015625)"/>
      <path id="DejaVuSans-65" d="M 3597 1894 
L 3597 1613 
L 953 1613 
Q 991 1019 1311 708 
Q 1631 397 2203 397 
Q 2534 397 2845 478 
Q 3156 559 3463 722 
L 3463 178 
Q 3153 47 2828 -22 
Q 2503 -91 2169 -91 
Q 1331 -91 842 396 
Q 353 884 353 1716 
Q 353 2575 817 3079 
Q 1281 3584 2069 3584 
Q 2775 3584 3186 3129 
Q 3597 2675 3597 1894 
z
M 3022 2063 
Q 3016 2534 2758 2815 
Q 2500 3097 2075 3097 
Q 1594 3097 1305 2825 
Q 1016 2553 972 2059 
L 3022 2063 
z
" transform="scale(0.015625)"/>
     </defs>
     <use xlink:href="#DejaVuSans-45"/>
     <use xlink:href="#DejaVuSans-72" x="63.183594"/>
     <use xlink:href="#DejaVuSans-72" x="102.546875"/>
     <use xlink:href="#DejaVuSans-6f" x="141.410156"/>
     <use xlink:href="#DejaVuSans-72" x="202.591797"/>
     <use xlink:href="#DejaVuSans-20" x="243.705078"/>
     <use xlink:href="#DejaVuSans-69" x="275.492188"/>
     <use xlink:href="#DejaVuSans-6e" x="303.275391"/>
     <use xlink:href="#DejaVuSans-20" x="366.654297"/>
     <use xlink:href="#DejaVuSans-73" x="398.441406"/>
     <use xlink:href="#DejaVuSans-77" x="450.541016"/>
     <use xlink:href="#DejaVuSans-69" x="532.328125"/>
     <use xlink:href="#DejaVuSans-6e" x="560.111328"/>
     <use xlink:href="#DejaVuSans-67" x="623.490234"/>
     <use xlink:href="#DejaVuSans-20" x="686.966797"/>
     <use xlink:href="#DejaVuSans-61" x="718.753906"/>
     <use xlink:href="#DejaVuSans-6e" x="780.033203"/>
     <use xlink:href="#DejaVuSans-67" x="843.412109"/>
     <use xlink:href="#DejaVuSans-6c" x="906.888672"/>
     <use xlink:href="#DejaVuSans-65" x="934.671875"/>
    </g>
   </g>
  </g>
 </g>
 <defs>
  <clipPath id="pd8372e58c3">
   <rect x="58.106" y="28.32" width="391.894" height="50.4775"/>
  </clipPath>
  <clipPath id="p14093c8104">
   <rect x="58.106" y="139.92" width="391.894" height="50.4775"/>
  </clipPath>
  <clipPath id="pf529d9e4d9">
   <rect x="58.106" y="251.52" width="391.894" height="50.4775"/>
  </clipPath>
 </defs>
</svg>
