<?xml version="1.0" encoding="utf-8" standalone="no"?>
<!DOCTYPE svg PUBLIC "-//W3C//DTD SVG 1.1//EN"
  "http://www.w3.org/Graphics/SVG/1.1/DTD/svg11.dtd">
<svg xmlns:xlink="http://www.w3.org/1999/xlink" width="460.8pt" height="345.6pt" viewBox="0 0 460.8 345.6" xmlns="http://www.w3.org/2000/svg" version="1.1">
 <metadata>
  <rdf:RDF xmlns:dc="http://purl.org/dc/elements/1.1/" xmlns:cc="http://creativecommons.org/ns#" xmlns:rdf="http://www.w3.org/1999/02/22-rdf-syntax-ns#">
   <cc:Work>
    <dc:type rdf:resource="http://purl.org/dc/dcmitype/StillImage"/>
    <dc:date>2022-06-05T14:20:28.773506</dc:date>
    <dc:format>image/svg+xml</dc:format>
    <dc:creator>
     <cc:Agent>
      <dc:title>Matplotlib v3.5.1, https://matplotlib.org/</dc:title>
     </cc:Agent>
    </dc:creator>
   </cc:Work>
  </rdf:RDF>
 </metadata>
 <defs>
  <style type="text/css">*{stroke-linejoin: round; stroke-linecap: butt}</style>
 </defs>
 <g id="figure_1">
  <g id="patch_1">
   <path d="M 0 345.6 
L 460.8 345.6 
L 460.8 0 
L 0 0 
z
" style="fill: #ffffff"/>
  </g>
  <g id="axes_1">
   <g id="patch_2">
    <path d="M 58.106 78.7975 
L 450 78.7975 
L 450 28.32 
L 58.106 28.32 
z
" style="fill: #ffffff"/>
   </g>
   <g id="matplotlib.axis_1">
    <g id="xtick_1">
     <g id="line2d_1">
      <path d="M 75.919364 78.7975 
L 75.919364 28.32 
" clip-path="url(#p0260651d9f)" style="fill: none; stroke: #b0b0b0; stroke-width: 0.8; stroke-linecap: square"/>
     </g>
     <g id="line2d_2">
      <defs>
       <path id="m834fbab05c" d="M 0 0 
L 0 3.5 
" style="stroke: #000000; stroke-width: 0.8"/>
      </defs>
      <g>
       <use xlink:href="#m834fbab05c" x="75.919364" y="78.7975" style="stroke: #000000; stroke-width: 0.8"/>
      </g>
     </g>
     <g id="text_1">
      <!-- 0 -->
      <g transform="translate(72.738114 93.395937)scale(0.1 -0.1)">
       <defs>
        <path id="DejaVuSans-30" d="M 2034 4250 
Q 1547 4250 1301 3770 
Q 1056 3291 1056 2328 
Q 1056 1369 1301 889 
Q 1547 409 2034 409 
Q 2525 409 2770 889 
Q 3016 1369 3016 2328 
Q 3016 3291 2770 3770 
Q 2525 4250 2034 4250 
z
M 2034 4750 
Q 2819 4750 3233 4129 
Q 3647 3509 3647 2328 
Q 3647 1150 3233 529 
Q 2819 -91 2034 -91 
Q 1250 -91 836 529 
Q 422 1150 422 2328 
Q 422 3509 836 4129 
Q 1250 4750 2034 4750 
z
" transform="scale(0.015625)"/>
       </defs>
       <use xlink:href="#DejaVuSans-30"/>
      </g>
     </g>
    </g>
    <g id="xtick_2">
     <g id="line2d_3">
      <path d="M 132.7403 78.7975 
L 132.7403 28.32 
" clip-path="url(#p0260651d9f)" style="fill: none; stroke: #b0b0b0; stroke-width: 0.8; stroke-linecap: square"/>
     </g>
     <g id="line2d_4">
      <g>
       <use xlink:href="#m834fbab05c" x="132.7403" y="78.7975" style="stroke: #000000; stroke-width: 0.8"/>
      </g>
     </g>
     <g id="text_2">
      <!-- 2 -->
      <g transform="translate(129.55905 93.395937)scale(0.1 -0.1)">
       <defs>
        <path id="DejaVuSans-32" d="M 1228 531 
L 3431 531 
L 3431 0 
L 469 0 
L 469 531 
Q 828 903 1448 1529 
Q 2069 2156 2228 2338 
Q 2531 2678 2651 2914 
Q 2772 3150 2772 3378 
Q 2772 3750 2511 3984 
Q 2250 4219 1831 4219 
Q 1534 4219 1204 4116 
Q 875 4013 500 3803 
L 500 4441 
Q 881 4594 1212 4672 
Q 1544 4750 1819 4750 
Q 2544 4750 2975 4387 
Q 3406 4025 3406 3419 
Q 3406 3131 3298 2873 
Q 3191 2616 2906 2266 
Q 2828 2175 2409 1742 
Q 1991 1309 1228 531 
z
" transform="scale(0.015625)"/>
       </defs>
       <use xlink:href="#DejaVuSans-32"/>
      </g>
     </g>
    </g>
    <g id="xtick_3">
     <g id="line2d_5">
      <path d="M 189.561237 78.7975 
L 189.561237 28.32 
" clip-path="url(#p0260651d9f)" style="fill: none; stroke: #b0b0b0; stroke-width: 0.8; stroke-linecap: square"/>
     </g>
     <g id="line2d_6">
      <g>
       <use xlink:href="#m834fbab05c" x="189.561237" y="78.7975" style="stroke: #000000; stroke-width: 0.8"/>
      </g>
     </g>
     <g id="text_3">
      <!-- 4 -->
      <g transform="translate(186.379987 93.395937)scale(0.1 -0.1)">
       <defs>
        <path id="DejaVuSans-34" d="M 2419 4116 
L 825 1625 
L 2419 1625 
L 2419 4116 
z
M 2253 4666 
L 3047 4666 
L 3047 1625 
L 3713 1625 
L 3713 1100 
L 3047 1100 
L 3047 0 
L 2419 0 
L 2419 1100 
L 313 1100 
L 313 1709 
L 2253 4666 
z
" transform="scale(0.015625)"/>
       </defs>
       <use xlink:href="#DejaVuSans-34"/>
      </g>
     </g>
    </g>
    <g id="xtick_4">
     <g id="line2d_7">
      <path d="M 246.382174 78.7975 
L 246.382174 28.32 
" clip-path="url(#p0260651d9f)" style="fill: none; stroke: #b0b0b0; stroke-width: 0.8; stroke-linecap: square"/>
     </g>
     <g id="line2d_8">
      <g>
       <use xlink:href="#m834fbab05c" x="246.382174" y="78.7975" style="stroke: #000000; stroke-width: 0.8"/>
      </g>
     </g>
     <g id="text_4">
      <!-- 6 -->
      <g transform="translate(243.200924 93.395937)scale(0.1 -0.1)">
       <defs>
        <path id="DejaVuSans-36" d="M 2113 2584 
Q 1688 2584 1439 2293 
Q 1191 2003 1191 1497 
Q 1191 994 1439 701 
Q 1688 409 2113 409 
Q 2538 409 2786 701 
Q 3034 994 3034 1497 
Q 3034 2003 2786 2293 
Q 2538 2584 2113 2584 
z
M 3366 4563 
L 3366 3988 
Q 3128 4100 2886 4159 
Q 2644 4219 2406 4219 
Q 1781 4219 1451 3797 
Q 1122 3375 1075 2522 
Q 1259 2794 1537 2939 
Q 1816 3084 2150 3084 
Q 2853 3084 3261 2657 
Q 3669 2231 3669 1497 
Q 3669 778 3244 343 
Q 2819 -91 2113 -91 
Q 1303 -91 875 529 
Q 447 1150 447 2328 
Q 447 3434 972 4092 
Q 1497 4750 2381 4750 
Q 2619 4750 2861 4703 
Q 3103 4656 3366 4563 
z
" transform="scale(0.015625)"/>
       </defs>
       <use xlink:href="#DejaVuSans-36"/>
      </g>
     </g>
    </g>
    <g id="xtick_5">
     <g id="line2d_9">
      <path d="M 303.20311 78.7975 
L 303.20311 28.32 
" clip-path="url(#p0260651d9f)" style="fill: none; stroke: #b0b0b0; stroke-width: 0.8; stroke-linecap: square"/>
     </g>
     <g id="line2d_10">
      <g>
       <use xlink:href="#m834fbab05c" x="303.20311" y="78.7975" style="stroke: #000000; stroke-width: 0.8"/>
      </g>
     </g>
     <g id="text_5">
      <!-- 8 -->
      <g transform="translate(300.02186 93.395937)scale(0.1 -0.1)">
       <defs>
        <path id="DejaVuSans-38" d="M 2034 2216 
Q 1584 2216 1326 1975 
Q 1069 1734 1069 1313 
Q 1069 891 1326 650 
Q 1584 409 2034 409 
Q 2484 409 2743 651 
Q 3003 894 3003 1313 
Q 3003 1734 2745 1975 
Q 2488 2216 2034 2216 
z
M 1403 2484 
Q 997 2584 770 2862 
Q 544 3141 544 3541 
Q 544 4100 942 4425 
Q 1341 4750 2034 4750 
Q 2731 4750 3128 4425 
Q 3525 4100 3525 3541 
Q 3525 3141 3298 2862 
Q 3072 2584 2669 2484 
Q 3125 2378 3379 2068 
Q 3634 1759 3634 1313 
Q 3634 634 3220 271 
Q 2806 -91 2034 -91 
Q 1263 -91 848 271 
Q 434 634 434 1313 
Q 434 1759 690 2068 
Q 947 2378 1403 2484 
z
M 1172 3481 
Q 1172 3119 1398 2916 
Q 1625 2713 2034 2713 
Q 2441 2713 2670 2916 
Q 2900 3119 2900 3481 
Q 2900 3844 2670 4047 
Q 2441 4250 2034 4250 
Q 1625 4250 1398 4047 
Q 1172 3844 1172 3481 
z
" transform="scale(0.015625)"/>
       </defs>
       <use xlink:href="#DejaVuSans-38"/>
      </g>
     </g>
    </g>
    <g id="xtick_6">
     <g id="line2d_11">
      <path d="M 360.024047 78.7975 
L 360.024047 28.32 
" clip-path="url(#p0260651d9f)" style="fill: none; stroke: #b0b0b0; stroke-width: 0.8; stroke-linecap: square"/>
     </g>
     <g id="line2d_12">
      <g>
       <use xlink:href="#m834fbab05c" x="360.024047" y="78.7975" style="stroke: #000000; stroke-width: 0.8"/>
      </g>
     </g>
     <g id="text_6">
      <!-- 10 -->
      <g transform="translate(353.661547 93.395937)scale(0.1 -0.1)">
       <defs>
        <path id="DejaVuSans-31" d="M 794 531 
L 1825 531 
L 1825 4091 
L 703 3866 
L 703 4441 
L 1819 4666 
L 2450 4666 
L 2450 531 
L 3481 531 
L 3481 0 
L 794 0 
L 794 531 
z
" transform="scale(0.015625)"/>
       </defs>
       <use xlink:href="#DejaVuSans-31"/>
       <use xlink:href="#DejaVuSans-30" x="63.623047"/>
      </g>
     </g>
    </g>
    <g id="xtick_7">
     <g id="line2d_13">
      <path d="M 416.844983 78.7975 
L 416.844983 28.32 
" clip-path="url(#p0260651d9f)" style="fill: none; stroke: #b0b0b0; stroke-width: 0.8; stroke-linecap: square"/>
     </g>
     <g id="line2d_14">
      <g>
       <use xlink:href="#m834fbab05c" x="416.844983" y="78.7975" style="stroke: #000000; stroke-width: 0.8"/>
      </g>
     </g>
     <g id="text_7">
      <!-- 12 -->
      <g transform="translate(410.482483 93.395937)scale(0.1 -0.1)">
       <use xlink:href="#DejaVuSans-31"/>
       <use xlink:href="#DejaVuSans-32" x="63.623047"/>
      </g>
     </g>
    </g>
    <g id="text_8">
     <!-- $t$ [s] -->
     <g transform="translate(243.953 107.074062)scale(0.1 -0.1)">
      <defs>
       <path id="DejaVuSans-Oblique-74" d="M 2706 3500 
L 2619 3053 
L 1472 3053 
L 1100 1153 
Q 1081 1047 1072 975 
Q 1063 903 1063 863 
Q 1063 663 1183 572 
Q 1303 481 1569 481 
L 2150 481 
L 2053 0 
L 1503 0 
Q 991 0 739 200 
Q 488 400 488 806 
Q 488 878 497 964 
Q 506 1050 525 1153 
L 897 3053 
L 409 3053 
L 500 3500 
L 978 3500 
L 1172 4494 
L 1747 4494 
L 1556 3500 
L 2706 3500 
z
" transform="scale(0.015625)"/>
       <path id="DejaVuSans-20" transform="scale(0.015625)"/>
       <path id="DejaVuSans-5b" d="M 550 4863 
L 1875 4863 
L 1875 4416 
L 1125 4416 
L 1125 -397 
L 1875 -397 
L 1875 -844 
L 550 -844 
L 550 4863 
z
" transform="scale(0.015625)"/>
       <path id="DejaVuSans-73" d="M 2834 3397 
L 2834 2853 
Q 2591 2978 2328 3040 
Q 2066 3103 1784 3103 
Q 1356 3103 1142 2972 
Q 928 2841 928 2578 
Q 928 2378 1081 2264 
Q 1234 2150 1697 2047 
L 1894 2003 
Q 2506 1872 2764 1633 
Q 3022 1394 3022 966 
Q 3022 478 2636 193 
Q 2250 -91 1575 -91 
Q 1294 -91 989 -36 
Q 684 19 347 128 
L 347 722 
Q 666 556 975 473 
Q 1284 391 1588 391 
Q 1994 391 2212 530 
Q 2431 669 2431 922 
Q 2431 1156 2273 1281 
Q 2116 1406 1581 1522 
L 1381 1569 
Q 847 1681 609 1914 
Q 372 2147 372 2553 
Q 372 3047 722 3315 
Q 1072 3584 1716 3584 
Q 2034 3584 2315 3537 
Q 2597 3491 2834 3397 
z
" transform="scale(0.015625)"/>
       <path id="DejaVuSans-5d" d="M 1947 4863 
L 1947 -844 
L 622 -844 
L 622 -397 
L 1369 -397 
L 1369 4416 
L 622 4416 
L 622 4863 
L 1947 4863 
z
" transform="scale(0.015625)"/>
      </defs>
      <use xlink:href="#DejaVuSans-Oblique-74" transform="translate(0 0.015625)"/>
      <use xlink:href="#DejaVuSans-20" transform="translate(39.208984 0.015625)"/>
      <use xlink:href="#DejaVuSans-5b" transform="translate(70.996094 0.015625)"/>
      <use xlink:href="#DejaVuSans-73" transform="translate(110.009766 0.015625)"/>
      <use xlink:href="#DejaVuSans-5d" transform="translate(162.109375 0.015625)"/>
     </g>
    </g>
   </g>
   <g id="matplotlib.axis_2">
    <g id="ytick_1">
     <g id="line2d_15">
      <path d="M 58.106 76.578312 
L 450 76.578312 
" clip-path="url(#p0260651d9f)" style="fill: none; stroke: #b0b0b0; stroke-width: 0.8; stroke-linecap: square"/>
     </g>
     <g id="line2d_16">
      <defs>
       <path id="m5be8b5925a" d="M 0 0 
L -3.5 0 
" style="stroke: #000000; stroke-width: 0.8"/>
      </defs>
      <g>
       <use xlink:href="#m5be8b5925a" x="58.106" y="76.578312" style="stroke: #000000; stroke-width: 0.8"/>
      </g>
     </g>
     <g id="text_9">
      <!-- 0 -->
      <g transform="translate(44.7435 80.377531)scale(0.1 -0.1)">
       <use xlink:href="#DejaVuSans-30"/>
      </g>
     </g>
    </g>
    <g id="ytick_2">
     <g id="line2d_17">
      <path d="M 58.106 30.614432 
L 450 30.614432 
" clip-path="url(#p0260651d9f)" style="fill: none; stroke: #b0b0b0; stroke-width: 0.8; stroke-linecap: square"/>
     </g>
     <g id="line2d_18">
      <g>
       <use xlink:href="#m5be8b5925a" x="58.106" y="30.614432" style="stroke: #000000; stroke-width: 0.8"/>
      </g>
     </g>
     <g id="text_10">
      <!-- 10 -->
      <g transform="translate(38.381 34.413651)scale(0.1 -0.1)">
       <use xlink:href="#DejaVuSans-31"/>
       <use xlink:href="#DejaVuSans-30" x="63.623047"/>
      </g>
     </g>
    </g>
    <g id="text_11">
     <!-- $e_x$ [m] -->
     <g transform="translate(32.301313 69.20875)rotate(-90)scale(0.1 -0.1)">
      <defs>
       <path id="DejaVuSans-Oblique-65" d="M 3078 2063 
Q 3088 2113 3092 2166 
Q 3097 2219 3097 2272 
Q 3097 2653 2873 2875 
Q 2650 3097 2266 3097 
Q 1838 3097 1509 2826 
Q 1181 2556 1013 2059 
L 3078 2063 
z
M 3578 1613 
L 903 1613 
Q 884 1494 878 1425 
Q 872 1356 872 1306 
Q 872 872 1139 634 
Q 1406 397 1894 397 
Q 2269 397 2603 481 
Q 2938 566 3225 728 
L 3116 159 
Q 2806 34 2476 -28 
Q 2147 -91 1806 -91 
Q 1078 -91 686 257 
Q 294 606 294 1247 
Q 294 1794 489 2264 
Q 684 2734 1063 3103 
Q 1306 3334 1642 3459 
Q 1978 3584 2356 3584 
Q 2950 3584 3301 3228 
Q 3653 2872 3653 2272 
Q 3653 2128 3634 1964 
Q 3616 1800 3578 1613 
z
" transform="scale(0.015625)"/>
       <path id="DejaVuSans-Oblique-78" d="M 3841 3500 
L 2234 1784 
L 3219 0 
L 2559 0 
L 1819 1388 
L 531 0 
L -166 0 
L 1556 1844 
L 641 3500 
L 1300 3500 
L 1972 2234 
L 3144 3500 
L 3841 3500 
z
" transform="scale(0.015625)"/>
       <path id="DejaVuSans-6d" d="M 3328 2828 
Q 3544 3216 3844 3400 
Q 4144 3584 4550 3584 
Q 5097 3584 5394 3201 
Q 5691 2819 5691 2113 
L 5691 0 
L 5113 0 
L 5113 2094 
Q 5113 2597 4934 2840 
Q 4756 3084 4391 3084 
Q 3944 3084 3684 2787 
Q 3425 2491 3425 1978 
L 3425 0 
L 2847 0 
L 2847 2094 
Q 2847 2600 2669 2842 
Q 2491 3084 2119 3084 
Q 1678 3084 1418 2786 
Q 1159 2488 1159 1978 
L 1159 0 
L 581 0 
L 581 3500 
L 1159 3500 
L 1159 2956 
Q 1356 3278 1631 3431 
Q 1906 3584 2284 3584 
Q 2666 3584 2933 3390 
Q 3200 3197 3328 2828 
z
" transform="scale(0.015625)"/>
      </defs>
      <use xlink:href="#DejaVuSans-Oblique-65" transform="translate(0 0.015625)"/>
      <use xlink:href="#DejaVuSans-Oblique-78" transform="translate(61.523438 -16.390625)scale(0.7)"/>
      <use xlink:href="#DejaVuSans-20" transform="translate(105.683594 0.015625)"/>
      <use xlink:href="#DejaVuSans-5b" transform="translate(137.470703 0.015625)"/>
      <use xlink:href="#DejaVuSans-6d" transform="translate(176.484375 0.015625)"/>
      <use xlink:href="#DejaVuSans-5d" transform="translate(273.896484 0.015625)"/>
     </g>
    </g>
   </g>
   <g id="line2d_19">
    <path d="M 75.919364 30.614432 
L 82.458986 30.717404 
L 96.959889 31.238632 
L 98.950209 31.40967 
L 107.19582 32.431953 
L 108.048814 32.576551 
L 110.892129 32.976304 
L 112.029454 33.154544 
L 114.304106 33.557472 
L 116.294426 33.866501 
L 116.863089 34.014513 
L 119.706403 34.505162 
L 120.275066 34.655054 
L 122.549717 35.07115 
L 123.11838 35.184269 
L 123.971374 35.369681 
L 125.961694 35.785395 
L 126.814688 36.044001 
L 127.667683 36.176434 
L 128.520677 36.445727 
L 129.658003 36.636754 
L 132.501317 37.362023 
L 134.491637 37.853948 
L 137.334951 38.628996 
L 139.609602 39.202378 
L 139.893934 39.323257 
L 140.178265 39.323257 
L 140.462597 39.504543 
L 141.315591 39.655571 
L 141.599922 39.776357 
L 141.884254 39.776357 
L 142.168585 39.957442 
L 143.021579 40.108156 
L 143.874574 40.408487 
L 145.011899 40.617372 
L 147.570882 41.322315 
L 150.414196 42.00362 
L 151.267191 42.22337 
L 153.257511 42.681165 
L 154.394836 43.000997 
L 155.247831 43.187198 
L 157.522482 43.719268 
L 159.797133 44.278589 
L 160.365796 44.384701 
L 163.20911 45.012235 
L 164.062105 45.215993 
L 166.621087 45.762566 
L 167.474082 45.958518 
L 170.317396 46.540168 
L 171.17039 46.730289 
L 173.729373 47.264334 
L 176.288356 47.774582 
L 177.710013 48.077385 
L 178.563007 48.260313 
L 181.406321 48.785219 
L 182.259316 48.957539 
L 185.10263 49.483363 
L 185.955624 49.656751 
L 189.651933 50.316853 
L 193.916904 51.144189 
L 198.181875 51.880735 
L 199.319201 52.113942 
L 202.162515 52.650882 
L 204.437167 53.061143 
L 206.99615 53.51459 
L 207.849144 53.684346 
L 210.408127 54.145109 
L 211.261121 54.306387 
L 213.820104 54.744513 
L 214.673098 54.907861 
L 216.947749 55.29967 
L 217.516412 55.400886 
L 218.369406 55.559652 
L 220.928389 55.964416 
L 221.497052 56.100604 
L 224.340366 56.560343 
L 224.909029 56.6992 
L 228.036675 57.22957 
L 231.732983 57.871786 
L 232.585978 58.010121 
L 234.291966 58.29774 
L 234.576298 58.29774 
L 235.14496 58.428145 
L 237.988275 58.899894 
L 240.547257 59.333266 
L 243.10624 59.785322 
L 245.665223 60.17599 
L 248.508537 60.65605 
L 251.636183 61.167716 
L 254.195166 61.577675 
L 255.332491 61.768792 
L 259.313131 62.409599 
L 260.450457 62.591173 
L 263.00944 62.984628 
L 263.578103 63.115387 
L 266.99008 63.644354 
L 268.127405 63.818364 
L 272.392377 64.521916 
L 272.96104 64.590428 
L 275.804354 65.018587 
L 276.373017 65.084857 
L 280.069325 65.636662 
L 284.049965 66.215468 
L 287.177611 66.638377 
L 291.442582 67.244641 
L 295.707553 67.822324 
L 296.560548 67.915082 
L 299.972525 68.354297 
L 304.806159 69.002718 
L 305.659153 69.091959 
L 310.492787 69.69252 
L 314.473427 70.19509 
L 320.160056 70.878803 
L 324.425027 71.456181 
L 325.846684 71.617431 
L 331.533313 72.318022 
L 336.366947 72.89797 
L 337.788604 73.070142 
L 345.181221 73.920626 
L 346.88721 74.148336 
L 364.515758 75.68824 
L 378.732329 76.244668 
L 388.399597 76.29044 
L 400.057186 76.077625 
L 410.293117 75.890497 
L 419.391722 75.906917 
L 427.921665 76.2859 
L 432.186636 76.503068 
L 432.186636 76.503068 
" clip-path="url(#p0260651d9f)" style="fill: none; stroke: #ff0000; stroke-width: 1.5; stroke-linecap: square"/>
   </g>
   <g id="patch_3">
    <path d="M 58.106 78.7975 
L 58.106 28.32 
" style="fill: none; stroke: #000000; stroke-width: 0.8; stroke-linejoin: miter; stroke-linecap: square"/>
   </g>
   <g id="patch_4">
    <path d="M 450 78.7975 
L 450 28.32 
" style="fill: none; stroke: #000000; stroke-width: 0.8; stroke-linejoin: miter; stroke-linecap: square"/>
   </g>
   <g id="patch_5">
    <path d="M 58.106 78.7975 
L 450 78.7975 
" style="fill: none; stroke: #000000; stroke-width: 0.8; stroke-linejoin: miter; stroke-linecap: square"/>
   </g>
   <g id="patch_6">
    <path d="M 58.106 28.32 
L 450 28.32 
" style="fill: none; stroke: #000000; stroke-width: 0.8; stroke-linejoin: miter; stroke-linecap: square"/>
   </g>
   <g id="text_12">
    <!-- Error in $x$-position -->
    <g transform="translate(200.413 22.32)scale(0.12 -0.12)">
     <defs>
      <path id="DejaVuSans-45" d="M 628 4666 
L 3578 4666 
L 3578 4134 
L 1259 4134 
L 1259 2753 
L 3481 2753 
L 3481 2222 
L 1259 2222 
L 1259 531 
L 3634 531 
L 3634 0 
L 628 0 
L 628 4666 
z
" transform="scale(0.015625)"/>
      <path id="DejaVuSans-72" d="M 2631 2963 
Q 2534 3019 2420 3045 
Q 2306 3072 2169 3072 
Q 1681 3072 1420 2755 
Q 1159 2438 1159 1844 
L 1159 0 
L 581 0 
L 581 3500 
L 1159 3500 
L 1159 2956 
Q 1341 3275 1631 3429 
Q 1922 3584 2338 3584 
Q 2397 3584 2469 3576 
Q 2541 3569 2628 3553 
L 2631 2963 
z
" transform="scale(0.015625)"/>
      <path id="DejaVuSans-6f" d="M 1959 3097 
Q 1497 3097 1228 2736 
Q 959 2375 959 1747 
Q 959 1119 1226 758 
Q 1494 397 1959 397 
Q 2419 397 2687 759 
Q 2956 1122 2956 1747 
Q 2956 2369 2687 2733 
Q 2419 3097 1959 3097 
z
M 1959 3584 
Q 2709 3584 3137 3096 
Q 3566 2609 3566 1747 
Q 3566 888 3137 398 
Q 2709 -91 1959 -91 
Q 1206 -91 779 398 
Q 353 888 353 1747 
Q 353 2609 779 3096 
Q 1206 3584 1959 3584 
z
" transform="scale(0.015625)"/>
      <path id="DejaVuSans-69" d="M 603 3500 
L 1178 3500 
L 1178 0 
L 603 0 
L 603 3500 
z
M 603 4863 
L 1178 4863 
L 1178 4134 
L 603 4134 
L 603 4863 
z
" transform="scale(0.015625)"/>
      <path id="DejaVuSans-6e" d="M 3513 2113 
L 3513 0 
L 2938 0 
L 2938 2094 
Q 2938 2591 2744 2837 
Q 2550 3084 2163 3084 
Q 1697 3084 1428 2787 
Q 1159 2491 1159 1978 
L 1159 0 
L 581 0 
L 581 3500 
L 1159 3500 
L 1159 2956 
Q 1366 3272 1645 3428 
Q 1925 3584 2291 3584 
Q 2894 3584 3203 3211 
Q 3513 2838 3513 2113 
z
" transform="scale(0.015625)"/>
      <path id="DejaVuSans-2d" d="M 313 2009 
L 1997 2009 
L 1997 1497 
L 313 1497 
L 313 2009 
z
" transform="scale(0.015625)"/>
      <path id="DejaVuSans-70" d="M 1159 525 
L 1159 -1331 
L 581 -1331 
L 581 3500 
L 1159 3500 
L 1159 2969 
Q 1341 3281 1617 3432 
Q 1894 3584 2278 3584 
Q 2916 3584 3314 3078 
Q 3713 2572 3713 1747 
Q 3713 922 3314 415 
Q 2916 -91 2278 -91 
Q 1894 -91 1617 61 
Q 1341 213 1159 525 
z
M 3116 1747 
Q 3116 2381 2855 2742 
Q 2594 3103 2138 3103 
Q 1681 3103 1420 2742 
Q 1159 2381 1159 1747 
Q 1159 1113 1420 752 
Q 1681 391 2138 391 
Q 2594 391 2855 752 
Q 3116 1113 3116 1747 
z
" transform="scale(0.015625)"/>
      <path id="DejaVuSans-74" d="M 1172 4494 
L 1172 3500 
L 2356 3500 
L 2356 3053 
L 1172 3053 
L 1172 1153 
Q 1172 725 1289 603 
Q 1406 481 1766 481 
L 2356 481 
L 2356 0 
L 1766 0 
Q 1100 0 847 248 
Q 594 497 594 1153 
L 594 3053 
L 172 3053 
L 172 3500 
L 594 3500 
L 594 4494 
L 1172 4494 
z
" transform="scale(0.015625)"/>
     </defs>
     <use xlink:href="#DejaVuSans-45" transform="translate(0 0.015625)"/>
     <use xlink:href="#DejaVuSans-72" transform="translate(63.183594 0.015625)"/>
     <use xlink:href="#DejaVuSans-72" transform="translate(104.296875 0.015625)"/>
     <use xlink:href="#DejaVuSans-6f" transform="translate(145.410156 0.015625)"/>
     <use xlink:href="#DejaVuSans-72" transform="translate(206.591797 0.015625)"/>
     <use xlink:href="#DejaVuSans-20" transform="translate(247.705078 0.015625)"/>
     <use xlink:href="#DejaVuSans-69" transform="translate(279.492188 0.015625)"/>
     <use xlink:href="#DejaVuSans-6e" transform="translate(307.275391 0.015625)"/>
     <use xlink:href="#DejaVuSans-20" transform="translate(370.654297 0.015625)"/>
     <use xlink:href="#DejaVuSans-Oblique-78" transform="translate(402.441406 0.015625)"/>
     <use xlink:href="#DejaVuSans-2d" transform="translate(461.621094 0.015625)"/>
     <use xlink:href="#DejaVuSans-70" transform="translate(497.705078 0.015625)"/>
     <use xlink:href="#DejaVuSans-6f" transform="translate(561.181641 0.015625)"/>
     <use xlink:href="#DejaVuSans-73" transform="translate(622.363281 0.015625)"/>
     <use xlink:href="#DejaVuSans-69" transform="translate(674.462891 0.015625)"/>
     <use xlink:href="#DejaVuSans-74" transform="translate(702.246094 0.015625)"/>
     <use xlink:href="#DejaVuSans-69" transform="translate(741.455078 0.015625)"/>
     <use xlink:href="#DejaVuSans-6f" transform="translate(769.238281 0.015625)"/>
     <use xlink:href="#DejaVuSans-6e" transform="translate(830.419922 0.015625)"/>
    </g>
   </g>
  </g>
  <g id="axes_2">
   <g id="patch_7">
    <path d="M 58.106 190.3975 
L 450 190.3975 
L 450 139.92 
L 58.106 139.92 
z
" style="fill: #ffffff"/>
   </g>
   <g id="matplotlib.axis_3">
    <g id="xtick_8">
     <g id="line2d_20">
      <path d="M 75.919364 190.3975 
L 75.919364 139.92 
" clip-path="url(#pcd23e7b242)" style="fill: none; stroke: #b0b0b0; stroke-width: 0.8; stroke-linecap: square"/>
     </g>
     <g id="line2d_21">
      <g>
       <use xlink:href="#m834fbab05c" x="75.919364" y="190.3975" style="stroke: #000000; stroke-width: 0.8"/>
      </g>
     </g>
     <g id="text_13">
      <!-- 0 -->
      <g transform="translate(72.738114 204.995937)scale(0.1 -0.1)">
       <use xlink:href="#DejaVuSans-30"/>
      </g>
     </g>
    </g>
    <g id="xtick_9">
     <g id="line2d_22">
      <path d="M 132.7403 190.3975 
L 132.7403 139.92 
" clip-path="url(#pcd23e7b242)" style="fill: none; stroke: #b0b0b0; stroke-width: 0.8; stroke-linecap: square"/>
     </g>
     <g id="line2d_23">
      <g>
       <use xlink:href="#m834fbab05c" x="132.7403" y="190.3975" style="stroke: #000000; stroke-width: 0.8"/>
      </g>
     </g>
     <g id="text_14">
      <!-- 2 -->
      <g transform="translate(129.55905 204.995937)scale(0.1 -0.1)">
       <use xlink:href="#DejaVuSans-32"/>
      </g>
     </g>
    </g>
    <g id="xtick_10">
     <g id="line2d_24">
      <path d="M 189.561237 190.3975 
L 189.561237 139.92 
" clip-path="url(#pcd23e7b242)" style="fill: none; stroke: #b0b0b0; stroke-width: 0.8; stroke-linecap: square"/>
     </g>
     <g id="line2d_25">
      <g>
       <use xlink:href="#m834fbab05c" x="189.561237" y="190.3975" style="stroke: #000000; stroke-width: 0.8"/>
      </g>
     </g>
     <g id="text_15">
      <!-- 4 -->
      <g transform="translate(186.379987 204.995937)scale(0.1 -0.1)">
       <use xlink:href="#DejaVuSans-34"/>
      </g>
     </g>
    </g>
    <g id="xtick_11">
     <g id="line2d_26">
      <path d="M 246.382174 190.3975 
L 246.382174 139.92 
" clip-path="url(#pcd23e7b242)" style="fill: none; stroke: #b0b0b0; stroke-width: 0.8; stroke-linecap: square"/>
     </g>
     <g id="line2d_27">
      <g>
       <use xlink:href="#m834fbab05c" x="246.382174" y="190.3975" style="stroke: #000000; stroke-width: 0.8"/>
      </g>
     </g>
     <g id="text_16">
      <!-- 6 -->
      <g transform="translate(243.200924 204.995937)scale(0.1 -0.1)">
       <use xlink:href="#DejaVuSans-36"/>
      </g>
     </g>
    </g>
    <g id="xtick_12">
     <g id="line2d_28">
      <path d="M 303.20311 190.3975 
L 303.20311 139.92 
" clip-path="url(#pcd23e7b242)" style="fill: none; stroke: #b0b0b0; stroke-width: 0.8; stroke-linecap: square"/>
     </g>
     <g id="line2d_29">
      <g>
       <use xlink:href="#m834fbab05c" x="303.20311" y="190.3975" style="stroke: #000000; stroke-width: 0.8"/>
      </g>
     </g>
     <g id="text_17">
      <!-- 8 -->
      <g transform="translate(300.02186 204.995937)scale(0.1 -0.1)">
       <use xlink:href="#DejaVuSans-38"/>
      </g>
     </g>
    </g>
    <g id="xtick_13">
     <g id="line2d_30">
      <path d="M 360.024047 190.3975 
L 360.024047 139.92 
" clip-path="url(#pcd23e7b242)" style="fill: none; stroke: #b0b0b0; stroke-width: 0.8; stroke-linecap: square"/>
     </g>
     <g id="line2d_31">
      <g>
       <use xlink:href="#m834fbab05c" x="360.024047" y="190.3975" style="stroke: #000000; stroke-width: 0.8"/>
      </g>
     </g>
     <g id="text_18">
      <!-- 10 -->
      <g transform="translate(353.661547 204.995937)scale(0.1 -0.1)">
       <use xlink:href="#DejaVuSans-31"/>
       <use xlink:href="#DejaVuSans-30" x="63.623047"/>
      </g>
     </g>
    </g>
    <g id="xtick_14">
     <g id="line2d_32">
      <path d="M 416.844983 190.3975 
L 416.844983 139.92 
" clip-path="url(#pcd23e7b242)" style="fill: none; stroke: #b0b0b0; stroke-width: 0.8; stroke-linecap: square"/>
     </g>
     <g id="line2d_33">
      <g>
       <use xlink:href="#m834fbab05c" x="416.844983" y="190.3975" style="stroke: #000000; stroke-width: 0.8"/>
      </g>
     </g>
     <g id="text_19">
      <!-- 12 -->
      <g transform="translate(410.482483 204.995937)scale(0.1 -0.1)">
       <use xlink:href="#DejaVuSans-31"/>
       <use xlink:href="#DejaVuSans-32" x="63.623047"/>
      </g>
     </g>
    </g>
    <g id="text_20">
     <!-- $t$ [s] -->
     <g transform="translate(243.953 218.674062)scale(0.1 -0.1)">
      <use xlink:href="#DejaVuSans-Oblique-74" transform="translate(0 0.015625)"/>
      <use xlink:href="#DejaVuSans-20" transform="translate(39.208984 0.015625)"/>
      <use xlink:href="#DejaVuSans-5b" transform="translate(70.996094 0.015625)"/>
      <use xlink:href="#DejaVuSans-73" transform="translate(110.009766 0.015625)"/>
      <use xlink:href="#DejaVuSans-5d" transform="translate(162.109375 0.015625)"/>
     </g>
    </g>
   </g>
   <g id="matplotlib.axis_4">
    <g id="ytick_3">
     <g id="line2d_34">
      <path d="M 58.106 179.073171 
L 450 179.073171 
" clip-path="url(#pcd23e7b242)" style="fill: none; stroke: #b0b0b0; stroke-width: 0.8; stroke-linecap: square"/>
     </g>
     <g id="line2d_35">
      <g>
       <use xlink:href="#m5be8b5925a" x="58.106" y="179.073171" style="stroke: #000000; stroke-width: 0.8"/>
      </g>
     </g>
     <g id="text_21">
      <!-- −0.1 -->
      <g transform="translate(26.823188 182.87239)scale(0.1 -0.1)">
       <defs>
        <path id="DejaVuSans-2212" d="M 678 2272 
L 4684 2272 
L 4684 1741 
L 678 1741 
L 678 2272 
z
" transform="scale(0.015625)"/>
        <path id="DejaVuSans-2e" d="M 684 794 
L 1344 794 
L 1344 0 
L 684 0 
L 684 794 
z
" transform="scale(0.015625)"/>
       </defs>
       <use xlink:href="#DejaVuSans-2212"/>
       <use xlink:href="#DejaVuSans-30" x="83.789062"/>
       <use xlink:href="#DejaVuSans-2e" x="147.412109"/>
       <use xlink:href="#DejaVuSans-31" x="179.199219"/>
      </g>
     </g>
    </g>
    <g id="ytick_4">
     <g id="line2d_36">
      <path d="M 58.106 165.240744 
L 450 165.240744 
" clip-path="url(#pcd23e7b242)" style="fill: none; stroke: #b0b0b0; stroke-width: 0.8; stroke-linecap: square"/>
     </g>
     <g id="line2d_37">
      <g>
       <use xlink:href="#m5be8b5925a" x="58.106" y="165.240744" style="stroke: #000000; stroke-width: 0.8"/>
      </g>
     </g>
     <g id="text_22">
      <!-- 0.0 -->
      <g transform="translate(35.202875 169.039963)scale(0.1 -0.1)">
       <use xlink:href="#DejaVuSans-30"/>
       <use xlink:href="#DejaVuSans-2e" x="63.623047"/>
       <use xlink:href="#DejaVuSans-30" x="95.410156"/>
      </g>
     </g>
    </g>
    <g id="ytick_5">
     <g id="line2d_38">
      <path d="M 58.106 151.408317 
L 450 151.408317 
" clip-path="url(#pcd23e7b242)" style="fill: none; stroke: #b0b0b0; stroke-width: 0.8; stroke-linecap: square"/>
     </g>
     <g id="line2d_39">
      <g>
       <use xlink:href="#m5be8b5925a" x="58.106" y="151.408317" style="stroke: #000000; stroke-width: 0.8"/>
      </g>
     </g>
     <g id="text_23">
      <!-- 0.1 -->
      <g transform="translate(35.202875 155.207536)scale(0.1 -0.1)">
       <use xlink:href="#DejaVuSans-30"/>
       <use xlink:href="#DejaVuSans-2e" x="63.623047"/>
       <use xlink:href="#DejaVuSans-31" x="95.410156"/>
      </g>
     </g>
    </g>
    <g id="text_24">
     <!-- $e_z$ [m] -->
     <g transform="translate(20.7435 180.60875)rotate(-90)scale(0.1 -0.1)">
      <defs>
       <path id="DejaVuSans-Oblique-7a" d="M 744 3500 
L 3475 3500 
L 3372 2975 
L 738 459 
L 2913 459 
L 2822 0 
L -19 0 
L 84 525 
L 2719 3041 
L 653 3041 
L 744 3500 
z
" transform="scale(0.015625)"/>
      </defs>
      <use xlink:href="#DejaVuSans-Oblique-65" transform="translate(0 0.015625)"/>
      <use xlink:href="#DejaVuSans-Oblique-7a" transform="translate(61.523438 -16.390625)scale(0.7)"/>
      <use xlink:href="#DejaVuSans-20" transform="translate(101.000977 0.015625)"/>
      <use xlink:href="#DejaVuSans-5b" transform="translate(132.788086 0.015625)"/>
      <use xlink:href="#DejaVuSans-6d" transform="translate(171.801758 0.015625)"/>
      <use xlink:href="#DejaVuSans-5d" transform="translate(269.213867 0.015625)"/>
     </g>
    </g>
   </g>
   <g id="line2d_40">
    <path d="M 75.919364 166.539446 
L 76.488026 166.34697 
L 76.772358 166.038803 
L 77.056689 166.038803 
L 77.625352 165.654237 
L 79.047009 165.176183 
L 79.900004 165.26497 
L 81.321661 165.774419 
L 82.174655 165.808911 
L 83.027649 165.579927 
L 83.596312 165.234706 
L 84.164975 164.662326 
L 85.017969 163.961503 
L 85.870963 162.896163 
L 88.429946 160.906551 
L 88.714278 160.514291 
L 88.998609 159.904551 
L 90.135935 158.410925 
L 90.420266 157.388548 
L 90.704598 157.388548 
L 90.988929 156.578314 
L 92.979249 154.035206 
L 93.832243 153.558677 
L 96.959889 153.519929 
L 97.528552 153.42841 
L 98.381546 153.343104 
L 99.23454 153.45617 
L 102.930849 154.56359 
L 103.783843 154.485189 
L 105.489832 153.571988 
L 105.774163 153.0789 
L 106.058494 153.0789 
L 106.342826 152.647534 
L 107.19582 151.969666 
L 107.480152 151.415266 
L 107.764483 151.415266 
L 108.048814 151.000297 
L 112.313786 148.169687 
L 112.598117 147.715175 
L 112.882449 147.715175 
L 113.16678 147.369467 
L 115.1571 146.322726 
L 115.725763 146.206617 
L 116.010094 146.051063 
L 116.294426 146.051063 
L 116.578757 145.793465 
L 117.431751 145.540501 
L 118.000414 145.260235 
L 118.569077 144.922253 
L 119.706403 144.519034 
L 119.990734 144.265324 
L 120.843728 144.075169 
L 121.696723 143.645536 
L 122.265386 143.491173 
L 122.549717 143.380424 
L 122.834048 143.073168 
L 123.11838 143.073168 
L 123.687043 142.70643 
L 125.1087 142.218966 
L 125.961694 142.243723 
L 127.667683 142.920846 
L 127.952014 143.211391 
L 128.236345 143.211391 
L 128.520677 143.698925 
L 129.08934 143.956034 
L 129.942334 144.564205 
L 130.226665 144.898712 
L 134.775968 147.442667 
L 135.344631 148.089002 
L 136.197625 148.838554 
L 137.334951 150.285895 
L 137.903614 150.771472 
L 138.187945 151.320865 
L 138.472277 151.320865 
L 138.756608 151.707633 
L 141.031259 153.018148 
L 141.315591 153.142638 
L 141.599922 153.408244 
L 141.884254 153.408244 
L 142.168585 153.864385 
L 142.737248 154.121302 
L 143.021579 154.302393 
L 143.874574 155.285201 
L 144.443237 155.582883 
L 145.296231 156.230517 
L 145.580562 156.552661 
L 147.570882 157.478405 
L 148.708208 157.801517 
L 148.992539 158.085517 
L 149.561202 158.252573 
L 150.414196 158.716488 
L 150.982859 159.178365 
L 151.551522 159.501003 
L 151.835854 159.822493 
L 152.120185 159.822493 
L 152.404516 160.277532 
L 152.973179 160.488111 
L 153.257511 160.623062 
L 153.826173 161.0138 
L 154.679168 161.500568 
L 154.963499 161.656619 
L 155.532162 162.192646 
L 156.100825 162.733993 
L 156.385156 163.236305 
L 156.669488 163.236305 
L 156.953819 163.800482 
L 157.238151 164.105646 
L 157.806813 165.107219 
L 158.091145 165.28505 
L 158.375476 165.648046 
L 158.659808 166.395326 
L 159.512802 167.708259 
L 159.797133 168.424148 
L 160.081465 168.424148 
L 160.365796 169.094752 
L 161.503122 170.399953 
L 161.787453 170.895262 
L 163.20911 172.118395 
L 163.493442 172.570935 
L 164.630768 173.640149 
L 164.915099 174.131204 
L 165.19943 174.131204 
L 165.483762 174.628122 
L 166.621087 175.75513 
L 166.905419 176.248802 
L 168.327076 177.511171 
L 168.611407 177.911541 
L 169.748733 178.567626 
L 171.17039 179.094879 
L 172.023385 179.107237 
L 172.876379 179.010763 
L 173.729373 179.024734 
L 174.866699 179.348844 
L 175.435362 179.703057 
L 176.004024 180.041362 
L 177.710013 180.336075 
L 179.984664 179.835214 
L 181.12199 179.846688 
L 181.974984 180.189889 
L 183.965304 180.876391 
L 184.818299 180.881287 
L 186.239956 180.530045 
L 186.524287 180.372825 
L 186.808619 180.372825 
L 187.377281 180.172492 
L 188.514607 180.023877 
L 189.651933 180.350493 
L 191.926584 181.898459 
L 192.779578 182.061025 
L 193.632573 182.024193 
L 196.760218 181.839459 
L 197.328881 182.19492 
L 198.181875 182.691346 
L 198.750538 183.383523 
L 199.03487 183.673236 
L 199.603533 183.941096 
L 201.02519 184.671886 
L 202.162515 184.752946 
L 204.152835 184.697667 
L 205.00583 184.861938 
L 206.711818 185.695478 
L 207.564812 186.20739 
L 208.702138 186.445363 
L 209.839464 186.329563 
L 210.408127 186.183441 
L 210.976789 185.992059 
L 212.114115 185.884584 
L 213.535772 186.291235 
L 214.673098 186.903685 
L 215.810424 187.236735 
L 216.947749 187.141771 
L 217.232081 186.9708 
L 217.516412 186.9708 
L 218.085075 186.711712 
L 219.506732 186.309687 
L 220.359726 186.388125 
L 220.644058 186.536673 
L 220.928389 186.536673 
L 221.212721 186.843193 
L 221.781384 187.012625 
L 223.487372 187.648509 
L 224.340366 187.665834 
L 224.909029 187.51353 
L 226.046355 187.153351 
L 226.899349 186.890287 
L 227.752343 186.783792 
L 228.889669 186.986648 
L 229.174001 187.167545 
L 229.458332 187.167545 
L 229.742663 187.486463 
L 230.595658 187.740774 
L 231.16432 187.964037 
L 232.017315 188.041865 
L 232.585978 187.951408 
L 235.429292 187.222727 
L 236.282286 187.249213 
L 236.850949 187.431684 
L 237.988275 187.831409 
L 238.841269 188.044506 
L 239.694263 188.103068 
L 243.674903 187.214665 
L 244.812229 187.323367 
L 245.380892 187.501245 
L 247.371212 187.805061 
L 248.792869 187.669435 
L 249.930194 187.547567 
L 251.636183 187.306046 
L 254.479497 186.895142 
L 255.616823 187.015903 
L 257.891474 187.643282 
L 259.0288 187.571986 
L 261.303451 186.789819 
L 261.872114 186.568319 
L 263.00944 186.429749 
L 266.137085 187.156398 
L 266.99008 187.097336 
L 268.9804 186.400639 
L 269.264731 186.400639 
L 269.833394 186.119008 
L 270.402057 185.898291 
L 271.539383 185.844335 
L 272.96104 186.216463 
L 273.814034 186.414061 
L 274.667028 186.461592 
L 275.235691 186.364889 
L 277.794674 185.370558 
L 278.363337 185.055185 
L 279.216331 184.783104 
L 280.353657 184.87392 
L 282.628308 185.552203 
L 283.481302 185.507444 
L 284.902959 185.002534 
L 285.755954 184.662013 
L 286.324616 184.385009 
L 287.461942 184.210492 
L 288.314936 184.345175 
L 289.167931 184.543037 
L 289.452262 184.716154 
L 290.020925 184.826879 
L 290.873919 184.897191 
L 291.442582 184.78817 
L 293.432902 183.90842 
L 294.001565 183.673366 
L 294.570228 183.566279 
L 295.423222 183.500706 
L 296.844879 183.771772 
L 297.982205 184.069542 
L 298.835199 184.137254 
L 299.403862 184.090621 
L 302.247176 182.992002 
L 303.668833 182.886448 
L 304.521828 182.952244 
L 305.374822 183.167059 
L 307.649473 183.56188 
L 308.502467 183.436341 
L 311.06145 182.57461 
L 313.05177 182.243596 
L 314.757759 182.542736 
L 315.04209 182.667743 
L 315.326422 182.667743 
L 315.610753 182.835549 
L 317.03241 182.876831 
L 321.01305 182.038245 
L 322.150376 182.177911 
L 322.434707 182.394918 
L 323.287701 182.590393 
L 323.856364 182.808599 
L 324.709359 182.963817 
L 325.562353 182.931541 
L 327.837004 182.284663 
L 328.97433 182.044336 
L 329.827324 182.005495 
L 330.395987 182.141674 
L 330.96465 182.344142 
L 331.533313 182.534656 
L 333.523633 183.167257 
L 334.376627 183.079464 
L 337.788604 181.979786 
L 338.357267 181.97053 
L 340.063255 182.633497 
L 340.631918 183.006853 
L 342.053575 183.476195 
L 342.90657 183.432027 
L 343.475232 183.274934 
L 344.043895 183.017499 
L 346.602878 182.336003 
L 348.024535 182.74463 
L 349.730524 183.717502 
L 351.152181 184.152962 
L 352.289507 184.062468 
L 353.142501 183.848506 
L 354.564158 183.709245 
L 355.701484 183.861299 
L 355.985815 184.05124 
L 356.838809 184.209695 
L 357.407472 184.345208 
L 358.260466 184.377405 
L 359.113461 184.232967 
L 363.662763 182.690287 
L 365.368752 181.534478 
L 365.653083 181.207342 
L 365.937415 181.207342 
L 366.221746 180.903677 
L 367.927735 180.127472 
L 368.780729 179.876385 
L 369.633723 179.461522 
L 370.202386 179.167838 
L 371.624043 177.973769 
L 373.0457 177.193318 
L 375.604683 176.756957 
L 375.889015 176.566558 
L 376.457678 176.030059 
L 377.310672 175.341275 
L 377.595003 174.77464 
L 377.879335 174.77464 
L 378.163666 174.411161 
L 379.01666 174.069209 
L 379.585323 173.9877 
L 380.722649 174.27064 
L 381.291312 174.51269 
L 382.144306 174.546971 
L 382.428637 174.511021 
L 383.850294 173.659875 
L 384.134626 173.446201 
L 384.418957 173.008769 
L 385.556283 172.202447 
L 386.693609 172.215483 
L 388.115266 172.66573 
L 388.683929 172.705397 
L 389.821254 172.349907 
L 390.389917 171.939211 
L 390.674249 171.529529 
L 392.664569 170.063068 
L 393.517563 169.930959 
L 394.654889 170.139287 
L 395.507883 170.24755 
L 396.076546 170.201554 
L 396.360877 170.005897 
L 396.645209 170.005897 
L 397.213871 169.559579 
L 397.782534 169.145683 
L 398.351197 168.386161 
L 398.635528 168.094014 
L 399.204191 167.83793 
L 400.341517 167.314748 
L 401.194511 167.345069 
L 402.331837 167.594055 
L 402.9005 167.599822 
L 404.037826 167.220376 
L 404.322157 166.805496 
L 404.606488 166.805496 
L 404.89082 166.421955 
L 406.312477 165.613401 
L 406.88114 165.402928 
L 407.734134 165.4204 
L 408.302797 165.718967 
L 410.008785 166.32373 
L 410.86178 166.237132 
L 411.430443 165.982316 
L 411.999105 165.474351 
L 413.136431 164.602726 
L 413.420762 164.260871 
L 414.273757 163.882607 
L 415.126751 163.717573 
L 415.979745 163.792765 
L 416.264077 163.919029 
L 416.548408 163.919029 
L 416.83274 164.129408 
L 417.970065 164.227441 
L 419.107391 163.856053 
L 420.813379 162.576395 
L 421.382042 162.416542 
L 421.950705 162.404947 
L 422.519368 162.583905 
L 423.088031 162.78841 
L 424.509688 163.186075 
L 425.362682 163.016042 
L 426.215676 162.650408 
L 427.637334 161.556438 
L 428.774659 161.027132 
L 429.627654 161.091281 
L 430.196316 161.340676 
L 430.764979 161.843694 
L 431.617974 162.590864 
L 431.902305 163.006228 
L 432.186636 163.195006 
L 432.186636 163.195006 
" clip-path="url(#pcd23e7b242)" style="fill: none; stroke: #0000ff; stroke-width: 1.5; stroke-linecap: square"/>
   </g>
   <g id="patch_8">
    <path d="M 58.106 190.3975 
L 58.106 139.92 
" style="fill: none; stroke: #000000; stroke-width: 0.8; stroke-linejoin: miter; stroke-linecap: square"/>
   </g>
   <g id="patch_9">
    <path d="M 450 190.3975 
L 450 139.92 
" style="fill: none; stroke: #000000; stroke-width: 0.8; stroke-linejoin: miter; stroke-linecap: square"/>
   </g>
   <g id="patch_10">
    <path d="M 58.106 190.3975 
L 450 190.3975 
" style="fill: none; stroke: #000000; stroke-width: 0.8; stroke-linejoin: miter; stroke-linecap: square"/>
   </g>
   <g id="patch_11">
    <path d="M 58.106 139.92 
L 450 139.92 
" style="fill: none; stroke: #000000; stroke-width: 0.8; stroke-linejoin: miter; stroke-linecap: square"/>
   </g>
   <g id="text_25">
    <!-- Error in $z$-position -->
    <g transform="translate(200.773 133.92)scale(0.12 -0.12)">
     <use xlink:href="#DejaVuSans-45" transform="translate(0 0.015625)"/>
     <use xlink:href="#DejaVuSans-72" transform="translate(63.183594 0.015625)"/>
     <use xlink:href="#DejaVuSans-72" transform="translate(104.296875 0.015625)"/>
     <use xlink:href="#DejaVuSans-6f" transform="translate(145.410156 0.015625)"/>
     <use xlink:href="#DejaVuSans-72" transform="translate(206.591797 0.015625)"/>
     <use xlink:href="#DejaVuSans-20" transform="translate(247.705078 0.015625)"/>
     <use xlink:href="#DejaVuSans-69" transform="translate(279.492188 0.015625)"/>
     <use xlink:href="#DejaVuSans-6e" transform="translate(307.275391 0.015625)"/>
     <use xlink:href="#DejaVuSans-20" transform="translate(370.654297 0.015625)"/>
     <use xlink:href="#DejaVuSans-Oblique-7a" transform="translate(402.441406 0.015625)"/>
     <use xlink:href="#DejaVuSans-2d" transform="translate(454.931641 0.015625)"/>
     <use xlink:href="#DejaVuSans-70" transform="translate(491.015625 0.015625)"/>
     <use xlink:href="#DejaVuSans-6f" transform="translate(554.492188 0.015625)"/>
     <use xlink:href="#DejaVuSans-73" transform="translate(615.673828 0.015625)"/>
     <use xlink:href="#DejaVuSans-69" transform="translate(667.773438 0.015625)"/>
     <use xlink:href="#DejaVuSans-74" transform="translate(695.556641 0.015625)"/>
     <use xlink:href="#DejaVuSans-69" transform="translate(734.765625 0.015625)"/>
     <use xlink:href="#DejaVuSans-6f" transform="translate(762.548828 0.015625)"/>
     <use xlink:href="#DejaVuSans-6e" transform="translate(823.730469 0.015625)"/>
    </g>
   </g>
  </g>
  <g id="axes_3">
   <g id="patch_12">
    <path d="M 58.106 301.9975 
L 450 301.9975 
L 450 251.52 
L 58.106 251.52 
z
" style="fill: #ffffff"/>
   </g>
   <g id="matplotlib.axis_5">
    <g id="xtick_15">
     <g id="line2d_41">
      <path d="M 75.919364 301.9975 
L 75.919364 251.52 
" clip-path="url(#pfc9ad12a7d)" style="fill: none; stroke: #b0b0b0; stroke-width: 0.8; stroke-linecap: square"/>
     </g>
     <g id="line2d_42">
      <g>
       <use xlink:href="#m834fbab05c" x="75.919364" y="301.9975" style="stroke: #000000; stroke-width: 0.8"/>
      </g>
     </g>
     <g id="text_26">
      <!-- 0 -->
      <g transform="translate(72.738114 316.595937)scale(0.1 -0.1)">
       <use xlink:href="#DejaVuSans-30"/>
      </g>
     </g>
    </g>
    <g id="xtick_16">
     <g id="line2d_43">
      <path d="M 132.7403 301.9975 
L 132.7403 251.52 
" clip-path="url(#pfc9ad12a7d)" style="fill: none; stroke: #b0b0b0; stroke-width: 0.8; stroke-linecap: square"/>
     </g>
     <g id="line2d_44">
      <g>
       <use xlink:href="#m834fbab05c" x="132.7403" y="301.9975" style="stroke: #000000; stroke-width: 0.8"/>
      </g>
     </g>
     <g id="text_27">
      <!-- 2 -->
      <g transform="translate(129.55905 316.595937)scale(0.1 -0.1)">
       <use xlink:href="#DejaVuSans-32"/>
      </g>
     </g>
    </g>
    <g id="xtick_17">
     <g id="line2d_45">
      <path d="M 189.561237 301.9975 
L 189.561237 251.52 
" clip-path="url(#pfc9ad12a7d)" style="fill: none; stroke: #b0b0b0; stroke-width: 0.8; stroke-linecap: square"/>
     </g>
     <g id="line2d_46">
      <g>
       <use xlink:href="#m834fbab05c" x="189.561237" y="301.9975" style="stroke: #000000; stroke-width: 0.8"/>
      </g>
     </g>
     <g id="text_28">
      <!-- 4 -->
      <g transform="translate(186.379987 316.595937)scale(0.1 -0.1)">
       <use xlink:href="#DejaVuSans-34"/>
      </g>
     </g>
    </g>
    <g id="xtick_18">
     <g id="line2d_47">
      <path d="M 246.382174 301.9975 
L 246.382174 251.52 
" clip-path="url(#pfc9ad12a7d)" style="fill: none; stroke: #b0b0b0; stroke-width: 0.8; stroke-linecap: square"/>
     </g>
     <g id="line2d_48">
      <g>
       <use xlink:href="#m834fbab05c" x="246.382174" y="301.9975" style="stroke: #000000; stroke-width: 0.8"/>
      </g>
     </g>
     <g id="text_29">
      <!-- 6 -->
      <g transform="translate(243.200924 316.595937)scale(0.1 -0.1)">
       <use xlink:href="#DejaVuSans-36"/>
      </g>
     </g>
    </g>
    <g id="xtick_19">
     <g id="line2d_49">
      <path d="M 303.20311 301.9975 
L 303.20311 251.52 
" clip-path="url(#pfc9ad12a7d)" style="fill: none; stroke: #b0b0b0; stroke-width: 0.8; stroke-linecap: square"/>
     </g>
     <g id="line2d_50">
      <g>
       <use xlink:href="#m834fbab05c" x="303.20311" y="301.9975" style="stroke: #000000; stroke-width: 0.8"/>
      </g>
     </g>
     <g id="text_30">
      <!-- 8 -->
      <g transform="translate(300.02186 316.595937)scale(0.1 -0.1)">
       <use xlink:href="#DejaVuSans-38"/>
      </g>
     </g>
    </g>
    <g id="xtick_20">
     <g id="line2d_51">
      <path d="M 360.024047 301.9975 
L 360.024047 251.52 
" clip-path="url(#pfc9ad12a7d)" style="fill: none; stroke: #b0b0b0; stroke-width: 0.8; stroke-linecap: square"/>
     </g>
     <g id="line2d_52">
      <g>
       <use xlink:href="#m834fbab05c" x="360.024047" y="301.9975" style="stroke: #000000; stroke-width: 0.8"/>
      </g>
     </g>
     <g id="text_31">
      <!-- 10 -->
      <g transform="translate(353.661547 316.595937)scale(0.1 -0.1)">
       <use xlink:href="#DejaVuSans-31"/>
       <use xlink:href="#DejaVuSans-30" x="63.623047"/>
      </g>
     </g>
    </g>
    <g id="xtick_21">
     <g id="line2d_53">
      <path d="M 416.844983 301.9975 
L 416.844983 251.52 
" clip-path="url(#pfc9ad12a7d)" style="fill: none; stroke: #b0b0b0; stroke-width: 0.8; stroke-linecap: square"/>
     </g>
     <g id="line2d_54">
      <g>
       <use xlink:href="#m834fbab05c" x="416.844983" y="301.9975" style="stroke: #000000; stroke-width: 0.8"/>
      </g>
     </g>
     <g id="text_32">
      <!-- 12 -->
      <g transform="translate(410.482483 316.595937)scale(0.1 -0.1)">
       <use xlink:href="#DejaVuSans-31"/>
       <use xlink:href="#DejaVuSans-32" x="63.623047"/>
      </g>
     </g>
    </g>
    <g id="text_33">
     <!-- $t$ [s] -->
     <g transform="translate(243.953 330.274063)scale(0.1 -0.1)">
      <use xlink:href="#DejaVuSans-Oblique-74" transform="translate(0 0.015625)"/>
      <use xlink:href="#DejaVuSans-20" transform="translate(39.208984 0.015625)"/>
      <use xlink:href="#DejaVuSans-5b" transform="translate(70.996094 0.015625)"/>
      <use xlink:href="#DejaVuSans-73" transform="translate(110.009766 0.015625)"/>
      <use xlink:href="#DejaVuSans-5d" transform="translate(162.109375 0.015625)"/>
     </g>
    </g>
   </g>
   <g id="matplotlib.axis_6">
    <g id="ytick_6">
     <g id="line2d_55">
      <path d="M 58.106 288.881817 
L 450 288.881817 
" clip-path="url(#pfc9ad12a7d)" style="fill: none; stroke: #b0b0b0; stroke-width: 0.8; stroke-linecap: square"/>
     </g>
     <g id="line2d_56">
      <g>
       <use xlink:href="#m5be8b5925a" x="58.106" y="288.881817" style="stroke: #000000; stroke-width: 0.8"/>
      </g>
     </g>
     <g id="text_34">
      <!-- −0.1 -->
      <g transform="translate(26.823188 292.681036)scale(0.1 -0.1)">
       <use xlink:href="#DejaVuSans-2212"/>
       <use xlink:href="#DejaVuSans-30" x="83.789062"/>
       <use xlink:href="#DejaVuSans-2e" x="147.412109"/>
       <use xlink:href="#DejaVuSans-31" x="179.199219"/>
      </g>
     </g>
    </g>
    <g id="ytick_7">
     <g id="line2d_57">
      <path d="M 58.106 273.940756 
L 450 273.940756 
" clip-path="url(#pfc9ad12a7d)" style="fill: none; stroke: #b0b0b0; stroke-width: 0.8; stroke-linecap: square"/>
     </g>
     <g id="line2d_58">
      <g>
       <use xlink:href="#m5be8b5925a" x="58.106" y="273.940756" style="stroke: #000000; stroke-width: 0.8"/>
      </g>
     </g>
     <g id="text_35">
      <!-- 0.0 -->
      <g transform="translate(35.202875 277.739975)scale(0.1 -0.1)">
       <use xlink:href="#DejaVuSans-30"/>
       <use xlink:href="#DejaVuSans-2e" x="63.623047"/>
       <use xlink:href="#DejaVuSans-30" x="95.410156"/>
      </g>
     </g>
    </g>
    <g id="ytick_8">
     <g id="line2d_59">
      <path d="M 58.106 258.999695 
L 450 258.999695 
" clip-path="url(#pfc9ad12a7d)" style="fill: none; stroke: #b0b0b0; stroke-width: 0.8; stroke-linecap: square"/>
     </g>
     <g id="line2d_60">
      <g>
       <use xlink:href="#m5be8b5925a" x="58.106" y="258.999695" style="stroke: #000000; stroke-width: 0.8"/>
      </g>
     </g>
     <g id="text_36">
      <!-- 0.1 -->
      <g transform="translate(35.202875 262.798914)scale(0.1 -0.1)">
       <use xlink:href="#DejaVuSans-30"/>
       <use xlink:href="#DejaVuSans-2e" x="63.623047"/>
       <use xlink:href="#DejaVuSans-31" x="95.410156"/>
      </g>
     </g>
    </g>
    <g id="text_37">
     <!-- $e_\theta$ [rad] -->
     <g transform="translate(20.7435 295.90875)rotate(-90)scale(0.1 -0.1)">
      <defs>
       <path id="DejaVuSans-Oblique-3b8" d="M 2913 2219 
L 925 2219 
Q 791 1284 928 888 
Q 1100 400 1566 400 
Q 2034 400 2391 891 
Q 2703 1322 2913 2219 
z
M 3009 2750 
Q 3094 3638 2984 3950 
Q 2813 4444 2353 4444 
Q 1875 4444 1525 3956 
Q 1250 3563 1034 2750 
L 3009 2750 
z
M 2444 4913 
Q 3194 4913 3494 4250 
Q 3794 3591 3566 2422 
Q 3341 1256 2781 594 
Q 2225 -72 1475 -72 
Q 722 -72 425 594 
Q 128 1256 353 2422 
Q 581 3591 1134 4250 
Q 1691 4913 2444 4913 
z
" transform="scale(0.015625)"/>
       <path id="DejaVuSans-61" d="M 2194 1759 
Q 1497 1759 1228 1600 
Q 959 1441 959 1056 
Q 959 750 1161 570 
Q 1363 391 1709 391 
Q 2188 391 2477 730 
Q 2766 1069 2766 1631 
L 2766 1759 
L 2194 1759 
z
M 3341 1997 
L 3341 0 
L 2766 0 
L 2766 531 
Q 2569 213 2275 61 
Q 1981 -91 1556 -91 
Q 1019 -91 701 211 
Q 384 513 384 1019 
Q 384 1609 779 1909 
Q 1175 2209 1959 2209 
L 2766 2209 
L 2766 2266 
Q 2766 2663 2505 2880 
Q 2244 3097 1772 3097 
Q 1472 3097 1187 3025 
Q 903 2953 641 2809 
L 641 3341 
Q 956 3463 1253 3523 
Q 1550 3584 1831 3584 
Q 2591 3584 2966 3190 
Q 3341 2797 3341 1997 
z
" transform="scale(0.015625)"/>
       <path id="DejaVuSans-64" d="M 2906 2969 
L 2906 4863 
L 3481 4863 
L 3481 0 
L 2906 0 
L 2906 525 
Q 2725 213 2448 61 
Q 2172 -91 1784 -91 
Q 1150 -91 751 415 
Q 353 922 353 1747 
Q 353 2572 751 3078 
Q 1150 3584 1784 3584 
Q 2172 3584 2448 3432 
Q 2725 3281 2906 2969 
z
M 947 1747 
Q 947 1113 1208 752 
Q 1469 391 1925 391 
Q 2381 391 2643 752 
Q 2906 1113 2906 1747 
Q 2906 2381 2643 2742 
Q 2381 3103 1925 3103 
Q 1469 3103 1208 2742 
Q 947 2381 947 1747 
z
" transform="scale(0.015625)"/>
      </defs>
      <use xlink:href="#DejaVuSans-Oblique-65" transform="translate(0 0.015625)"/>
      <use xlink:href="#DejaVuSans-Oblique-3b8" transform="translate(61.523438 -16.390625)scale(0.7)"/>
      <use xlink:href="#DejaVuSans-20" transform="translate(107.084961 0.015625)"/>
      <use xlink:href="#DejaVuSans-5b" transform="translate(138.87207 0.015625)"/>
      <use xlink:href="#DejaVuSans-72" transform="translate(177.885742 0.015625)"/>
      <use xlink:href="#DejaVuSans-61" transform="translate(218.999023 0.015625)"/>
      <use xlink:href="#DejaVuSans-64" transform="translate(280.27832 0.015625)"/>
      <use xlink:href="#DejaVuSans-5d" transform="translate(343.754883 0.015625)"/>
     </g>
    </g>
   </g>
   <g id="line2d_61">
    <path d="M 75.919364 273.922073 
L 76.203695 273.855638 
L 76.488026 273.633866 
L 76.772358 272.022636 
L 77.056689 272.022636 
L 77.341021 269.821607 
L 78.762678 263.277344 
L 79.047009 261.622042 
L 79.615672 260.442518 
L 80.184335 259.707702 
L 80.468666 259.771657 
L 81.037329 260.41014 
L 81.605992 261.499618 
L 81.890324 262.580863 
L 82.174655 264.340895 
L 83.311981 268.780171 
L 83.596312 270.716375 
L 83.880643 273.617051 
L 85.017969 280.645876 
L 85.870963 288.886161 
L 86.439626 291.349129 
L 87.008289 292.842113 
L 87.292621 293.028248 
L 88.145615 292.596374 
L 89.282941 291.900163 
L 89.851603 291.313449 
L 90.135935 290.758002 
L 90.420266 288.246627 
L 90.704598 288.246627 
L 90.988929 285.129161 
L 92.126255 277.558359 
L 92.979249 269.482848 
L 93.547912 266.344523 
L 93.832243 262.96441 
L 94.116575 262.96441 
L 94.400906 260.726976 
L 94.969569 259.006367 
L 95.822563 257.152198 
L 96.391226 257.016623 
L 97.528552 257.079634 
L 98.665877 257.456569 
L 100.371866 259.53282 
L 101.22486 262.090917 
L 101.509192 262.413533 
L 102.077855 263.843948 
L 102.930849 268.622813 
L 103.21518 269.221852 
L 103.783843 271.839903 
L 104.636837 279.424811 
L 104.921169 280.230921 
L 105.489832 283.44029 
L 105.774163 287.090094 
L 106.058494 287.090094 
L 106.342826 289.232895 
L 106.911489 290.497718 
L 107.19582 290.764627 
L 107.480152 290.429899 
L 107.764483 290.429899 
L 108.333146 288.61197 
L 108.901809 286.901027 
L 110.039134 281.473665 
L 110.892129 278.192543 
L 111.17646 276.633486 
L 111.745123 275.467635 
L 112.313786 274.795011 
L 112.598117 274.658685 
L 112.882449 274.658685 
L 113.451111 275.125603 
L 114.588437 275.747528 
L 115.725763 275.942874 
L 116.010094 276.246406 
L 116.294426 276.246406 
L 116.578757 277.304334 
L 116.863089 277.541551 
L 118.284746 279.934203 
L 118.569077 279.801503 
L 118.853408 279.466214 
L 119.13774 278.926026 
L 119.422071 277.273212 
L 119.706403 277.273212 
L 119.990734 273.750173 
L 120.275066 273.089098 
L 120.843728 270.354974 
L 121.412391 265.611983 
L 121.696723 263.713002 
L 121.981054 263.108552 
L 122.549717 260.844286 
L 122.834048 258.460731 
L 123.11838 258.460731 
L 123.402711 256.973223 
L 124.540037 254.62686 
L 125.1087 253.939611 
L 125.961694 253.829435 
L 126.246025 254.153614 
L 127.383351 256.379364 
L 127.667683 257.062975 
L 127.952014 258.454268 
L 128.236345 258.454268 
L 128.520677 260.210555 
L 128.805008 260.446453 
L 129.373671 261.193891 
L 129.942334 261.593028 
L 130.510997 261.383141 
L 131.363991 260.826254 
L 131.932654 260.361389 
L 132.501317 260.43927 
L 132.785648 260.61323 
L 133.06998 261.060456 
L 133.638642 262.586869 
L 134.491637 264.541065 
L 135.344631 267.349165 
L 136.766288 270.136207 
L 137.903614 271.178857 
L 138.187945 271.945198 
L 138.472277 271.945198 
L 138.756608 272.709524 
L 139.609602 274.034147 
L 139.893934 274.812517 
L 140.178265 274.812517 
L 140.462597 275.610243 
L 141.031259 275.887517 
L 141.884254 276.303309 
L 142.168585 276.741219 
L 142.452917 276.838917 
L 143.021579 277.295851 
L 143.590242 278.121171 
L 143.874574 278.396899 
L 145.296231 278.729401 
L 146.433556 278.170994 
L 146.717888 277.710072 
L 147.002219 277.710072 
L 147.286551 277.338963 
L 148.423876 276.751332 
L 149.276871 276.654212 
L 149.845534 276.41998 
L 150.129865 276.199263 
L 150.414196 275.706403 
L 150.982859 273.987954 
L 151.551522 272.291774 
L 151.835854 270.241922 
L 152.120185 270.241922 
L 152.404516 266.846758 
L 152.688848 266.274545 
L 153.257511 264.039046 
L 153.541842 262.127836 
L 154.679168 259.213181 
L 154.963499 258.703684 
L 155.247831 257.816244 
L 156.100825 256.467435 
L 156.385156 255.705854 
L 156.669488 255.705854 
L 156.953819 255.028278 
L 157.806813 254.191137 
L 158.375476 254.1497 
L 159.228471 254.629772 
L 159.512802 254.966926 
L 159.797133 255.553182 
L 160.081465 255.553182 
L 160.650128 256.730168 
L 161.21879 257.700099 
L 161.503122 258.482529 
L 161.787453 259.596143 
L 163.777773 263.438169 
L 164.346436 263.599404 
L 164.630768 263.52743 
L 164.915099 263.173677 
L 165.19943 263.173677 
L 165.768093 262.298678 
L 166.905419 261.1411 
L 167.474082 261.252418 
L 168.042745 261.728355 
L 168.327076 262.329557 
L 168.611407 263.418788 
L 169.748733 266.28113 
L 170.033065 267.068557 
L 170.886059 270.132978 
L 171.739053 271.474354 
L 172.023385 271.474354 
L 172.307716 270.991604 
L 172.592047 270.789876 
L 173.16071 269.75831 
L 173.445042 268.578505 
L 174.013704 267.16765 
L 174.298036 266.475622 
L 174.582367 266.269905 
L 175.15103 265.559521 
L 175.435362 265.591885 
L 175.719693 266.00836 
L 176.004024 266.924847 
L 176.288356 267.341607 
L 176.572687 268.342754 
L 176.857019 270.939448 
L 177.425682 274.089021 
L 177.994344 279.888699 
L 178.278676 279.888699 
L 178.563007 282.304451 
L 178.847339 283.022824 
L 179.13167 283.378609 
L 179.416002 283.369834 
L 179.700333 282.719813 
L 180.268996 279.713045 
L 181.12199 275.616319 
L 181.974984 269.759287 
L 182.543647 267.785625 
L 183.11231 266.521117 
L 183.396641 266.90565 
L 183.965304 268.529076 
L 184.533967 271.106052 
L 184.818299 272.616437 
L 185.671293 279.422631 
L 186.239956 281.249151 
L 186.524287 281.607466 
L 186.808619 281.607466 
L 188.230276 274.844838 
L 189.367601 265.583157 
L 189.936264 261.78445 
L 190.220596 259.454345 
L 190.504927 258.728365 
L 190.789258 258.333552 
L 191.07359 258.266199 
L 191.357921 258.53053 
L 191.642253 259.520214 
L 192.210916 263.230592 
L 193.06391 268.232106 
L 193.632573 273.366024 
L 194.201236 274.776511 
L 194.485567 274.948022 
L 194.769898 274.76156 
L 195.05423 273.862488 
L 195.622893 270.412348 
L 196.760218 264.460416 
L 197.613213 258.218519 
L 198.466207 254.812891 
L 198.750538 254.684501 
L 199.603533 256.744159 
L 199.887864 258.031064 
L 200.740858 266.935931 
L 201.02519 267.897851 
L 201.593852 271.545246 
L 201.878184 274.330624 
L 202.446847 275.735952 
L 203.01551 275.20145 
L 203.299841 274.479284 
L 203.584172 271.808319 
L 203.868504 271.808319 
L 204.152835 269.191179 
L 205.290161 263.364235 
L 205.574492 261.361891 
L 206.143155 260.053445 
L 206.427487 259.767441 
L 206.711818 259.763964 
L 206.99615 260.329401 
L 207.564812 263.465216 
L 208.417807 268.427588 
L 209.270801 276.044335 
L 209.839464 278.327243 
L 210.123795 279.023596 
L 210.408127 279.414133 
L 210.976789 277.971034 
L 211.829784 274.623244 
L 212.967109 267.462293 
L 214.104435 262.991085 
L 214.388767 263.078222 
L 214.673098 263.498854 
L 215.241761 265.262312 
L 215.526092 267.262309 
L 215.810424 270.492075 
L 216.947749 277.329618 
L 217.232081 280.244869 
L 217.516412 280.244869 
L 217.800744 280.977833 
L 218.085075 280.787525 
L 218.369406 280.269866 
L 218.653738 279.476709 
L 219.506732 273.124678 
L 219.791064 272.392932 
L 220.359726 269.490446 
L 220.644058 266.721465 
L 220.928389 266.721465 
L 221.212721 263.309972 
L 221.497052 262.883975 
L 221.781384 262.202261 
L 222.065715 261.813067 
L 222.350046 262.063398 
L 222.634378 262.063398 
L 222.918709 264.844468 
L 223.203041 265.529084 
L 223.771703 268.636481 
L 224.056035 271.9858 
L 224.340366 271.9858 
L 224.624698 276.445665 
L 224.909029 277.005047 
L 225.477692 278.497055 
L 225.762023 278.544131 
L 226.046355 278.028402 
L 227.183681 272.657415 
L 227.468012 269.550946 
L 227.752343 267.958315 
L 228.321006 263.398028 
L 228.605338 262.667689 
L 228.889669 261.273974 
L 229.174001 258.95561 
L 229.458332 258.95561 
L 229.742663 257.397452 
L 230.026995 257.42835 
L 230.311326 257.736713 
L 230.595658 258.37208 
L 231.732983 267.262409 
L 232.017315 268.203488 
L 232.301646 270.075647 
L 232.585978 273.448811 
L 232.870309 275.332799 
L 233.15464 276.428532 
L 233.723303 276.667255 
L 234.007635 276.374201 
L 234.291966 274.883635 
L 234.576298 274.883635 
L 234.860629 271.185064 
L 235.14496 270.491656 
L 235.713623 267.621534 
L 235.997955 264.807259 
L 236.282286 264.807259 
L 236.566617 260.928212 
L 236.850949 260.35694 
L 237.419612 258.473793 
L 237.703943 257.714635 
L 237.988275 257.88413 
L 238.272606 258.815858 
L 238.556937 260.469284 
L 238.841269 261.155793 
L 239.1256 262.700373 
L 239.409932 266.251387 
L 239.694263 266.251387 
L 239.978595 271.901384 
L 240.262926 272.799665 
L 241.11592 277.926875 
L 241.400252 278.346236 
L 241.684583 278.279444 
L 241.968915 277.486095 
L 242.253246 277.091385 
L 242.537577 276.142011 
L 243.390572 269.818265 
L 243.674903 269.146722 
L 244.243566 266.543379 
L 244.527897 264.149136 
L 244.812229 264.149136 
L 245.09656 262.049142 
L 245.665223 261.895864 
L 245.949554 262.175277 
L 246.802549 266.982356 
L 247.08688 269.463827 
L 247.371212 270.323998 
L 247.655543 272.054784 
L 247.939874 275.394174 
L 248.508537 277.913229 
L 248.792869 278.997125 
L 249.0772 279.295452 
L 249.361532 278.960076 
L 249.930194 277.45858 
L 250.214526 276.376985 
L 250.498857 274.454059 
L 250.783189 271.613978 
L 252.489177 262.465797 
L 252.773509 262.16007 
L 253.05784 262.162008 
L 253.342171 262.467621 
L 253.626503 263.062883 
L 253.910834 263.93581 
L 254.195166 265.688643 
L 254.479497 268.566227 
L 256.185486 277.977011 
L 256.469817 278.353241 
L 256.754149 278.457692 
L 257.03848 278.30579 
L 257.322811 277.912115 
L 257.607143 276.908858 
L 258.175806 273.716331 
L 259.0288 269.652365 
L 259.881794 263.909161 
L 260.450457 262.395792 
L 260.734788 262.043883 
L 261.01912 261.990247 
L 261.303451 262.498049 
L 261.872114 265.35686 
L 262.440777 268.169688 
L 262.725108 271.323087 
L 263.00944 271.323087 
L 263.293771 275.793995 
L 263.578103 276.45456 
L 264.431097 279.643403 
L 264.715428 279.641421 
L 264.99976 279.002984 
L 265.568423 275.871534 
L 265.852754 275.871534 
L 266.137085 272.883608 
L 266.705748 269.636109 
L 267.274411 263.957525 
L 267.558743 263.957525 
L 267.843074 261.13367 
L 268.411737 258.765755 
L 268.696068 258.352205 
L 268.9804 258.784623 
L 269.264731 258.784623 
L 270.117725 264.124749 
L 270.402057 266.7419 
L 270.686388 267.650619 
L 270.97072 269.476849 
L 271.255051 273.105604 
L 272.392377 279.609594 
L 272.676708 279.609594 
L 272.96104 279.788536 
L 273.245371 279.035201 
L 273.529702 277.613157 
L 273.814034 277.011175 
L 274.382697 274.167518 
L 274.667028 270.868696 
L 274.95136 269.135826 
L 275.804354 261.697944 
L 276.088685 261.697944 
L 276.373017 259.104195 
L 276.657348 257.819886 
L 276.94168 257.30442 
L 277.226011 257.319938 
L 277.510342 257.620543 
L 277.794674 258.263601 
L 279.216331 269.788147 
L 279.500662 269.788147 
L 279.784994 273.21137 
L 280.637988 277.530699 
L 280.922319 278.443993 
L 281.206651 278.443993 
L 281.490982 278.128377 
L 282.059645 276.737598 
L 282.343977 275.150584 
L 282.628308 272.505432 
L 282.912639 272.505432 
L 283.196971 269.581669 
L 283.481302 268.074012 
L 284.334297 262.13229 
L 284.618628 262.13229 
L 284.902959 260.677884 
L 285.187291 260.416071 
L 285.471622 260.488848 
L 285.755954 261.223766 
L 286.324616 264.512856 
L 287.461942 270.601289 
L 288.314936 276.503408 
L 288.883599 278.14257 
L 289.452262 279.0551 
L 289.736594 279.0551 
L 290.589588 276.844907 
L 290.873919 275.852224 
L 291.726914 269.612116 
L 292.011245 268.960744 
L 292.579908 266.46633 
L 292.864239 264.453672 
L 293.432902 263.13682 
L 293.717233 262.997901 
L 294.001565 263.372032 
L 294.285896 263.372032 
L 295.138891 267.299711 
L 295.707553 271.093831 
L 295.991885 271.093831 
L 296.276216 273.552387 
L 297.129211 277.185457 
L 297.982205 278.154484 
L 298.266536 277.916101 
L 298.550868 277.296217 
L 298.835199 277.011028 
L 299.403862 275.498419 
L 299.688193 273.498237 
L 299.972525 272.373335 
L 300.825519 266.91623 
L 301.10985 266.91623 
L 301.394182 264.777451 
L 301.962845 262.773933 
L 302.531508 262.535 
L 302.815839 262.703181 
L 303.10017 263.124943 
L 303.384502 264.226631 
L 303.668833 266.427088 
L 304.521828 270.702305 
L 304.806159 274.448344 
L 305.09049 274.448344 
L 305.374822 277.027584 
L 305.943485 278.949552 
L 306.512148 280.060509 
L 306.796479 280.060509 
L 307.08081 278.731158 
L 307.365142 278.305603 
L 307.933805 276.15718 
L 308.218136 273.462999 
L 308.502467 272.012842 
L 309.355462 265.384559 
L 309.639793 265.384559 
L 309.924125 262.8886 
L 310.492787 260.893915 
L 310.777119 260.557406 
L 311.06145 260.604701 
L 311.345782 260.943973 
L 312.198776 265.871558 
L 312.483107 268.305452 
L 312.767439 269.152934 
L 313.05177 270.863708 
L 313.336102 274.159689 
L 313.620433 274.159689 
L 313.904764 278.064626 
L 314.189096 278.537812 
L 314.757759 279.839236 
L 315.04209 280.021904 
L 315.326422 280.021904 
L 315.610753 278.18851 
L 315.895084 277.674662 
L 316.463747 275.21962 
L 317.03241 270.03558 
L 317.316742 267.774925 
L 317.601073 267.038032 
L 318.738399 261.839785 
L 319.02273 261.034904 
L 319.307062 261.06985 
L 319.591393 261.393017 
L 319.875724 262.000735 
L 320.160056 262.876641 
L 320.444387 264.624692 
L 320.728719 267.593957 
L 321.581713 272.615576 
L 321.866044 275.848598 
L 322.150376 275.848598 
L 322.434707 279.561962 
L 322.719039 279.998228 
L 323.287701 281.076007 
L 323.572033 280.973764 
L 323.856364 280.480057 
L 324.99369 275.511255 
L 325.278021 272.48096 
L 325.562353 270.90422 
L 326.131016 266.31841 
L 326.415347 265.602817 
L 326.699679 264.27113 
L 326.98401 262.188434 
L 327.552673 261.116104 
L 327.837004 261.434426 
L 328.121336 262.44191 
L 328.405667 262.44191 
L 329.542993 271.113917 
L 329.827324 271.946425 
L 330.111656 273.569162 
L 330.395987 276.594419 
L 331.248981 280.654865 
L 331.817644 281.111272 
L 332.386307 279.898519 
L 333.523633 274.140574 
L 333.807964 270.904667 
L 334.092296 269.2573 
L 334.660958 264.618213 
L 334.94529 263.924907 
L 335.798284 260.537316 
L 336.082615 260.501848 
L 336.366947 261.094496 
L 336.651278 262.940146 
L 336.93561 262.940146 
L 337.219941 265.688495 
L 338.072935 270.672285 
L 338.92593 277.63401 
L 339.778924 281.05491 
L 340.063255 282.008049 
L 340.347587 282.129243 
L 340.631918 281.671898 
L 341.200581 279.843561 
L 341.484913 278.559224 
L 341.769244 276.318953 
L 342.053575 272.980932 
L 343.475232 263.950284 
L 343.759564 261.540179 
L 344.328227 260.181351 
L 344.612558 259.971251 
L 344.89689 260.085295 
L 345.181221 260.855693 
L 345.749884 264.186173 
L 346.318547 267.18156 
L 347.171541 274.058717 
L 348.308867 279.128707 
L 348.593198 280.052242 
L 348.877529 280.052242 
L 349.161861 279.920255 
L 349.446192 279.470366 
L 350.014855 277.932851 
L 350.299187 276.373558 
L 350.583518 274.054485 
L 351.720844 269.857691 
L 352.573838 267.388323 
L 353.142501 267.179329 
L 353.711164 267.420418 
L 353.995495 267.869465 
L 354.564158 269.355672 
L 355.132821 270.590513 
L 355.417152 271.816853 
L 355.701484 271.816853 
L 355.985815 273.398063 
L 356.270146 273.613064 
L 357.123141 274.803833 
L 357.691804 275.034381 
L 358.544798 275.060355 
L 360.250786 274.849269 
L 360.819449 274.480751 
L 361.103781 274.175445 
L 361.388112 274.049267 
L 362.241106 273.029315 
L 362.525438 272.350439 
L 362.809769 271.2843 
L 363.662763 269.480065 
L 364.515758 266.804757 
L 365.368752 265.434036 
L 365.653083 265.219869 
L 365.937415 265.219869 
L 366.506078 265.869228 
L 366.790409 266.31942 
L 367.074741 267.155734 
L 367.359072 268.464654 
L 367.643403 268.464654 
L 367.927735 269.851479 
L 369.065061 272.495306 
L 369.349392 272.599313 
L 369.633723 272.553354 
L 369.918055 272.356025 
L 370.202386 272.014736 
L 370.486718 271.256981 
L 370.771049 269.918954 
L 372.192706 266.56841 
L 372.477038 266.245258 
L 372.761369 266.30218 
L 373.330032 266.752491 
L 373.614363 267.10801 
L 373.898695 267.753696 
L 374.183026 268.747756 
L 375.320352 270.636943 
L 376.173346 271.691723 
L 377.310672 272.113158 
L 377.595003 272.47917 
L 377.879335 272.47917 
L 378.447997 273.114349 
L 379.300992 273.919312 
L 380.153986 275.106931 
L 381.291312 276.082042 
L 381.575643 276.319676 
L 382.144306 276.58603 
L 382.428637 276.782847 
L 382.9973 277.424798 
L 383.565963 277.547244 
L 384.134626 277.400631 
L 385.556283 275.321481 
L 385.840614 275.321481 
L 386.124946 274.752635 
L 386.97794 273.957842 
L 387.546603 273.941128 
L 388.115266 274.470064 
L 388.683929 275.770543 
L 388.96826 276.681426 
L 389.252592 276.681426 
L 389.536923 278.030854 
L 390.389917 279.845588 
L 390.674249 280.055644 
L 390.95858 279.867125 
L 391.242911 279.465039 
L 391.811574 278.100007 
L 392.095906 277.189204 
L 392.9489 272.568411 
L 393.801894 269.790278 
L 394.370557 269.429782 
L 394.654889 269.60714 
L 394.93922 270.149116 
L 395.223551 270.935196 
L 395.507883 271.233177 
L 396.076546 272.540454 
L 396.360877 274.189748 
L 396.645209 274.189748 
L 396.92954 275.309481 
L 397.498203 276.161672 
L 397.782534 276.410012 
L 398.066866 276.347839 
L 398.351197 275.793608 
L 398.635528 274.870526 
L 398.91986 274.492747 
L 399.488523 272.729348 
L 400.057186 269.225525 
L 400.341517 267.967496 
L 400.625848 267.612384 
L 401.194511 266.639224 
L 401.478843 266.546925 
L 401.763174 266.81653 
L 402.616168 269.205375 
L 402.9005 269.205375 
L 403.184831 271.412137 
L 403.469163 271.746541 
L 404.037826 272.919451 
L 404.322157 273.98286 
L 404.606488 273.98286 
L 404.89082 274.578344 
L 405.743814 275.276531 
L 406.028145 275.358007 
L 406.312477 275.212551 
L 406.88114 274.049028 
L 408.302797 271.46059 
L 409.155791 270.995278 
L 410.293117 270.579458 
L 411.146111 270.681957 
L 411.714774 270.775228 
L 412.567768 270.831344 
L 412.8521 271.01959 
L 413.136431 271.612497 
L 413.705094 273.934471 
L 415.126751 278.649484 
L 415.411082 278.738718 
L 415.695414 278.626532 
L 415.979745 278.334717 
L 416.264077 277.283392 
L 416.548408 277.283392 
L 416.83274 274.90084 
L 417.117071 274.452894 
L 417.970065 271.471769 
L 418.254397 270.292862 
L 418.823059 269.688511 
L 419.107391 269.615944 
L 419.391722 269.79819 
L 419.676054 270.540633 
L 419.960385 270.540633 
L 420.244717 271.510136 
L 420.813379 272.570963 
L 421.097711 273.087723 
L 421.382042 273.242302 
L 421.666374 273.528339 
L 421.950705 274.008129 
L 422.519368 274.251547 
L 423.372362 273.750471 
L 423.656694 273.162837 
L 423.941025 272.952513 
L 424.225357 272.888577 
L 424.509688 273.184533 
L 424.794019 274.344409 
L 425.078351 274.344409 
L 425.362682 276.164237 
L 426.215676 279.316187 
L 428.205996 289.585375 
L 428.490328 292.212699 
L 429.343322 295.506304 
L 430.480648 299.318495 
L 430.764979 299.594095 
L 431.049311 299.703068 
L 431.333642 299.617305 
L 431.617974 298.99093 
L 432.186636 295.648825 
L 432.186636 295.648825 
" clip-path="url(#pfc9ad12a7d)" style="fill: none; stroke: #008000; stroke-width: 1.5; stroke-linecap: square"/>
   </g>
   <g id="patch_13">
    <path d="M 58.106 301.9975 
L 58.106 251.52 
" style="fill: none; stroke: #000000; stroke-width: 0.8; stroke-linejoin: miter; stroke-linecap: square"/>
   </g>
   <g id="patch_14">
    <path d="M 450 301.9975 
L 450 251.52 
" style="fill: none; stroke: #000000; stroke-width: 0.8; stroke-linejoin: miter; stroke-linecap: square"/>
   </g>
   <g id="patch_15">
    <path d="M 58.106 301.9975 
L 450 301.9975 
" style="fill: none; stroke: #000000; stroke-width: 0.8; stroke-linejoin: miter; stroke-linecap: square"/>
   </g>
   <g id="patch_16">
    <path d="M 58.106 251.52 
L 450 251.52 
" style="fill: none; stroke: #000000; stroke-width: 0.8; stroke-linejoin: miter; stroke-linecap: square"/>
   </g>
   <g id="text_38">
    <!-- Error in swing angle -->
    <g transform="translate(194.282688 245.52)scale(0.12 -0.12)">
     <defs>
      <path id="DejaVuSans-77" d="M 269 3500 
L 844 3500 
L 1563 769 
L 2278 3500 
L 2956 3500 
L 3675 769 
L 4391 3500 
L 4966 3500 
L 4050 0 
L 3372 0 
L 2619 2869 
L 1863 0 
L 1184 0 
L 269 3500 
z
" transform="scale(0.015625)"/>
      <path id="DejaVuSans-67" d="M 2906 1791 
Q 2906 2416 2648 2759 
Q 2391 3103 1925 3103 
Q 1463 3103 1205 2759 
Q 947 2416 947 1791 
Q 947 1169 1205 825 
Q 1463 481 1925 481 
Q 2391 481 2648 825 
Q 2906 1169 2906 1791 
z
M 3481 434 
Q 3481 -459 3084 -895 
Q 2688 -1331 1869 -1331 
Q 1566 -1331 1297 -1286 
Q 1028 -1241 775 -1147 
L 775 -588 
Q 1028 -725 1275 -790 
Q 1522 -856 1778 -856 
Q 2344 -856 2625 -561 
Q 2906 -266 2906 331 
L 2906 616 
Q 2728 306 2450 153 
Q 2172 0 1784 0 
Q 1141 0 747 490 
Q 353 981 353 1791 
Q 353 2603 747 3093 
Q 1141 3584 1784 3584 
Q 2172 3584 2450 3431 
Q 2728 3278 2906 2969 
L 2906 3500 
L 3481 3500 
L 3481 434 
z
" transform="scale(0.015625)"/>
      <path id="DejaVuSans-6c" d="M 603 4863 
L 1178 4863 
L 1178 0 
L 603 0 
L 603 4863 
z
" transform="scale(0.015625)"/>
      <path id="DejaVuSans-65" d="M 3597 1894 
L 3597 1613 
L 953 1613 
Q 991 1019 1311 708 
Q 1631 397 2203 397 
Q 2534 397 2845 478 
Q 3156 559 3463 722 
L 3463 178 
Q 3153 47 2828 -22 
Q 2503 -91 2169 -91 
Q 1331 -91 842 396 
Q 353 884 353 1716 
Q 353 2575 817 3079 
Q 1281 3584 2069 3584 
Q 2775 3584 3186 3129 
Q 3597 2675 3597 1894 
z
M 3022 2063 
Q 3016 2534 2758 2815 
Q 2500 3097 2075 3097 
Q 1594 3097 1305 2825 
Q 1016 2553 972 2059 
L 3022 2063 
z
" transform="scale(0.015625)"/>
     </defs>
     <use xlink:href="#DejaVuSans-45"/>
     <use xlink:href="#DejaVuSans-72" x="63.183594"/>
     <use xlink:href="#DejaVuSans-72" x="102.546875"/>
     <use xlink:href="#DejaVuSans-6f" x="141.410156"/>
     <use xlink:href="#DejaVuSans-72" x="202.591797"/>
     <use xlink:href="#DejaVuSans-20" x="243.705078"/>
     <use xlink:href="#DejaVuSans-69" x="275.492188"/>
     <use xlink:href="#DejaVuSans-6e" x="303.275391"/>
     <use xlink:href="#DejaVuSans-20" x="366.654297"/>
     <use xlink:href="#DejaVuSans-73" x="398.441406"/>
     <use xlink:href="#DejaVuSans-77" x="450.541016"/>
     <use xlink:href="#DejaVuSans-69" x="532.328125"/>
     <use xlink:href="#DejaVuSans-6e" x="560.111328"/>
     <use xlink:href="#DejaVuSans-67" x="623.490234"/>
     <use xlink:href="#DejaVuSans-20" x="686.966797"/>
     <use xlink:href="#DejaVuSans-61" x="718.753906"/>
     <use xlink:href="#DejaVuSans-6e" x="780.033203"/>
     <use xlink:href="#DejaVuSans-67" x="843.412109"/>
     <use xlink:href="#DejaVuSans-6c" x="906.888672"/>
     <use xlink:href="#DejaVuSans-65" x="934.671875"/>
    </g>
   </g>
  </g>
 </g>
 <defs>
  <clipPath id="p0260651d9f">
   <rect x="58.106" y="28.32" width="391.894" height="50.4775"/>
  </clipPath>
  <clipPath id="pcd23e7b242">
   <rect x="58.106" y="139.92" width="391.894" height="50.4775"/>
  </clipPath>
  <clipPath id="pfc9ad12a7d">
   <rect x="58.106" y="251.52" width="391.894" height="50.4775"/>
  </clipPath>
 </defs>
</svg>
