<?xml version="1.0" encoding="utf-8" standalone="no"?>
<!DOCTYPE svg PUBLIC "-//W3C//DTD SVG 1.1//EN"
  "http://www.w3.org/Graphics/SVG/1.1/DTD/svg11.dtd">
<svg xmlns:xlink="http://www.w3.org/1999/xlink" width="460.8pt" height="345.6pt" viewBox="0 0 460.8 345.6" xmlns="http://www.w3.org/2000/svg" version="1.1">
 <metadata>
  <rdf:RDF xmlns:dc="http://purl.org/dc/elements/1.1/" xmlns:cc="http://creativecommons.org/ns#" xmlns:rdf="http://www.w3.org/1999/02/22-rdf-syntax-ns#">
   <cc:Work>
    <dc:type rdf:resource="http://purl.org/dc/dcmitype/StillImage"/>
    <dc:date>2022-06-05T14:22:29.627038</dc:date>
    <dc:format>image/svg+xml</dc:format>
    <dc:creator>
     <cc:Agent>
      <dc:title>Matplotlib v3.5.1, https://matplotlib.org/</dc:title>
     </cc:Agent>
    </dc:creator>
   </cc:Work>
  </rdf:RDF>
 </metadata>
 <defs>
  <style type="text/css">*{stroke-linejoin: round; stroke-linecap: butt}</style>
 </defs>
 <g id="figure_1">
  <g id="patch_1">
   <path d="M 0 345.6 
L 460.8 345.6 
L 460.8 0 
L 0 0 
z
" style="fill: #ffffff"/>
  </g>
  <g id="axes_1">
   <g id="patch_2">
    <path d="M 58.106 78.7975 
L 450 78.7975 
L 450 28.32 
L 58.106 28.32 
z
" style="fill: #ffffff"/>
   </g>
   <g id="matplotlib.axis_1">
    <g id="xtick_1">
     <g id="line2d_1">
      <path d="M 75.919364 78.7975 
L 75.919364 28.32 
" clip-path="url(#pdf0ed65a23)" style="fill: none; stroke: #b0b0b0; stroke-width: 0.8; stroke-linecap: square"/>
     </g>
     <g id="line2d_2">
      <defs>
       <path id="mbc99d4f889" d="M 0 0 
L 0 3.5 
" style="stroke: #000000; stroke-width: 0.8"/>
      </defs>
      <g>
       <use xlink:href="#mbc99d4f889" x="75.919364" y="78.7975" style="stroke: #000000; stroke-width: 0.8"/>
      </g>
     </g>
     <g id="text_1">
      <!-- 0 -->
      <g transform="translate(72.738114 93.395937)scale(0.1 -0.1)">
       <defs>
        <path id="DejaVuSans-30" d="M 2034 4250 
Q 1547 4250 1301 3770 
Q 1056 3291 1056 2328 
Q 1056 1369 1301 889 
Q 1547 409 2034 409 
Q 2525 409 2770 889 
Q 3016 1369 3016 2328 
Q 3016 3291 2770 3770 
Q 2525 4250 2034 4250 
z
M 2034 4750 
Q 2819 4750 3233 4129 
Q 3647 3509 3647 2328 
Q 3647 1150 3233 529 
Q 2819 -91 2034 -91 
Q 1250 -91 836 529 
Q 422 1150 422 2328 
Q 422 3509 836 4129 
Q 1250 4750 2034 4750 
z
" transform="scale(0.015625)"/>
       </defs>
       <use xlink:href="#DejaVuSans-30"/>
      </g>
     </g>
    </g>
    <g id="xtick_2">
     <g id="line2d_3">
      <path d="M 135.998162 78.7975 
L 135.998162 28.32 
" clip-path="url(#pdf0ed65a23)" style="fill: none; stroke: #b0b0b0; stroke-width: 0.8; stroke-linecap: square"/>
     </g>
     <g id="line2d_4">
      <g>
       <use xlink:href="#mbc99d4f889" x="135.998162" y="78.7975" style="stroke: #000000; stroke-width: 0.8"/>
      </g>
     </g>
     <g id="text_2">
      <!-- 2 -->
      <g transform="translate(132.816912 93.395937)scale(0.1 -0.1)">
       <defs>
        <path id="DejaVuSans-32" d="M 1228 531 
L 3431 531 
L 3431 0 
L 469 0 
L 469 531 
Q 828 903 1448 1529 
Q 2069 2156 2228 2338 
Q 2531 2678 2651 2914 
Q 2772 3150 2772 3378 
Q 2772 3750 2511 3984 
Q 2250 4219 1831 4219 
Q 1534 4219 1204 4116 
Q 875 4013 500 3803 
L 500 4441 
Q 881 4594 1212 4672 
Q 1544 4750 1819 4750 
Q 2544 4750 2975 4387 
Q 3406 4025 3406 3419 
Q 3406 3131 3298 2873 
Q 3191 2616 2906 2266 
Q 2828 2175 2409 1742 
Q 1991 1309 1228 531 
z
" transform="scale(0.015625)"/>
       </defs>
       <use xlink:href="#DejaVuSans-32"/>
      </g>
     </g>
    </g>
    <g id="xtick_3">
     <g id="line2d_5">
      <path d="M 196.07696 78.7975 
L 196.07696 28.32 
" clip-path="url(#pdf0ed65a23)" style="fill: none; stroke: #b0b0b0; stroke-width: 0.8; stroke-linecap: square"/>
     </g>
     <g id="line2d_6">
      <g>
       <use xlink:href="#mbc99d4f889" x="196.07696" y="78.7975" style="stroke: #000000; stroke-width: 0.8"/>
      </g>
     </g>
     <g id="text_3">
      <!-- 4 -->
      <g transform="translate(192.89571 93.395937)scale(0.1 -0.1)">
       <defs>
        <path id="DejaVuSans-34" d="M 2419 4116 
L 825 1625 
L 2419 1625 
L 2419 4116 
z
M 2253 4666 
L 3047 4666 
L 3047 1625 
L 3713 1625 
L 3713 1100 
L 3047 1100 
L 3047 0 
L 2419 0 
L 2419 1100 
L 313 1100 
L 313 1709 
L 2253 4666 
z
" transform="scale(0.015625)"/>
       </defs>
       <use xlink:href="#DejaVuSans-34"/>
      </g>
     </g>
    </g>
    <g id="xtick_4">
     <g id="line2d_7">
      <path d="M 256.155758 78.7975 
L 256.155758 28.32 
" clip-path="url(#pdf0ed65a23)" style="fill: none; stroke: #b0b0b0; stroke-width: 0.8; stroke-linecap: square"/>
     </g>
     <g id="line2d_8">
      <g>
       <use xlink:href="#mbc99d4f889" x="256.155758" y="78.7975" style="stroke: #000000; stroke-width: 0.8"/>
      </g>
     </g>
     <g id="text_4">
      <!-- 6 -->
      <g transform="translate(252.974508 93.395937)scale(0.1 -0.1)">
       <defs>
        <path id="DejaVuSans-36" d="M 2113 2584 
Q 1688 2584 1439 2293 
Q 1191 2003 1191 1497 
Q 1191 994 1439 701 
Q 1688 409 2113 409 
Q 2538 409 2786 701 
Q 3034 994 3034 1497 
Q 3034 2003 2786 2293 
Q 2538 2584 2113 2584 
z
M 3366 4563 
L 3366 3988 
Q 3128 4100 2886 4159 
Q 2644 4219 2406 4219 
Q 1781 4219 1451 3797 
Q 1122 3375 1075 2522 
Q 1259 2794 1537 2939 
Q 1816 3084 2150 3084 
Q 2853 3084 3261 2657 
Q 3669 2231 3669 1497 
Q 3669 778 3244 343 
Q 2819 -91 2113 -91 
Q 1303 -91 875 529 
Q 447 1150 447 2328 
Q 447 3434 972 4092 
Q 1497 4750 2381 4750 
Q 2619 4750 2861 4703 
Q 3103 4656 3366 4563 
z
" transform="scale(0.015625)"/>
       </defs>
       <use xlink:href="#DejaVuSans-36"/>
      </g>
     </g>
    </g>
    <g id="xtick_5">
     <g id="line2d_9">
      <path d="M 316.234556 78.7975 
L 316.234556 28.32 
" clip-path="url(#pdf0ed65a23)" style="fill: none; stroke: #b0b0b0; stroke-width: 0.8; stroke-linecap: square"/>
     </g>
     <g id="line2d_10">
      <g>
       <use xlink:href="#mbc99d4f889" x="316.234556" y="78.7975" style="stroke: #000000; stroke-width: 0.8"/>
      </g>
     </g>
     <g id="text_5">
      <!-- 8 -->
      <g transform="translate(313.053306 93.395937)scale(0.1 -0.1)">
       <defs>
        <path id="DejaVuSans-38" d="M 2034 2216 
Q 1584 2216 1326 1975 
Q 1069 1734 1069 1313 
Q 1069 891 1326 650 
Q 1584 409 2034 409 
Q 2484 409 2743 651 
Q 3003 894 3003 1313 
Q 3003 1734 2745 1975 
Q 2488 2216 2034 2216 
z
M 1403 2484 
Q 997 2584 770 2862 
Q 544 3141 544 3541 
Q 544 4100 942 4425 
Q 1341 4750 2034 4750 
Q 2731 4750 3128 4425 
Q 3525 4100 3525 3541 
Q 3525 3141 3298 2862 
Q 3072 2584 2669 2484 
Q 3125 2378 3379 2068 
Q 3634 1759 3634 1313 
Q 3634 634 3220 271 
Q 2806 -91 2034 -91 
Q 1263 -91 848 271 
Q 434 634 434 1313 
Q 434 1759 690 2068 
Q 947 2378 1403 2484 
z
M 1172 3481 
Q 1172 3119 1398 2916 
Q 1625 2713 2034 2713 
Q 2441 2713 2670 2916 
Q 2900 3119 2900 3481 
Q 2900 3844 2670 4047 
Q 2441 4250 2034 4250 
Q 1625 4250 1398 4047 
Q 1172 3844 1172 3481 
z
" transform="scale(0.015625)"/>
       </defs>
       <use xlink:href="#DejaVuSans-38"/>
      </g>
     </g>
    </g>
    <g id="xtick_6">
     <g id="line2d_11">
      <path d="M 376.313354 78.7975 
L 376.313354 28.32 
" clip-path="url(#pdf0ed65a23)" style="fill: none; stroke: #b0b0b0; stroke-width: 0.8; stroke-linecap: square"/>
     </g>
     <g id="line2d_12">
      <g>
       <use xlink:href="#mbc99d4f889" x="376.313354" y="78.7975" style="stroke: #000000; stroke-width: 0.8"/>
      </g>
     </g>
     <g id="text_6">
      <!-- 10 -->
      <g transform="translate(369.950854 93.395937)scale(0.1 -0.1)">
       <defs>
        <path id="DejaVuSans-31" d="M 794 531 
L 1825 531 
L 1825 4091 
L 703 3866 
L 703 4441 
L 1819 4666 
L 2450 4666 
L 2450 531 
L 3481 531 
L 3481 0 
L 794 0 
L 794 531 
z
" transform="scale(0.015625)"/>
       </defs>
       <use xlink:href="#DejaVuSans-31"/>
       <use xlink:href="#DejaVuSans-30" x="63.623047"/>
      </g>
     </g>
    </g>
    <g id="xtick_7">
     <g id="line2d_13">
      <path d="M 436.392152 78.7975 
L 436.392152 28.32 
" clip-path="url(#pdf0ed65a23)" style="fill: none; stroke: #b0b0b0; stroke-width: 0.8; stroke-linecap: square"/>
     </g>
     <g id="line2d_14">
      <g>
       <use xlink:href="#mbc99d4f889" x="436.392152" y="78.7975" style="stroke: #000000; stroke-width: 0.8"/>
      </g>
     </g>
     <g id="text_7">
      <!-- 12 -->
      <g transform="translate(430.029652 93.395937)scale(0.1 -0.1)">
       <use xlink:href="#DejaVuSans-31"/>
       <use xlink:href="#DejaVuSans-32" x="63.623047"/>
      </g>
     </g>
    </g>
    <g id="text_8">
     <!-- $t$ [s] -->
     <g transform="translate(243.953 107.074062)scale(0.1 -0.1)">
      <defs>
       <path id="DejaVuSans-Oblique-74" d="M 2706 3500 
L 2619 3053 
L 1472 3053 
L 1100 1153 
Q 1081 1047 1072 975 
Q 1063 903 1063 863 
Q 1063 663 1183 572 
Q 1303 481 1569 481 
L 2150 481 
L 2053 0 
L 1503 0 
Q 991 0 739 200 
Q 488 400 488 806 
Q 488 878 497 964 
Q 506 1050 525 1153 
L 897 3053 
L 409 3053 
L 500 3500 
L 978 3500 
L 1172 4494 
L 1747 4494 
L 1556 3500 
L 2706 3500 
z
" transform="scale(0.015625)"/>
       <path id="DejaVuSans-20" transform="scale(0.015625)"/>
       <path id="DejaVuSans-5b" d="M 550 4863 
L 1875 4863 
L 1875 4416 
L 1125 4416 
L 1125 -397 
L 1875 -397 
L 1875 -844 
L 550 -844 
L 550 4863 
z
" transform="scale(0.015625)"/>
       <path id="DejaVuSans-73" d="M 2834 3397 
L 2834 2853 
Q 2591 2978 2328 3040 
Q 2066 3103 1784 3103 
Q 1356 3103 1142 2972 
Q 928 2841 928 2578 
Q 928 2378 1081 2264 
Q 1234 2150 1697 2047 
L 1894 2003 
Q 2506 1872 2764 1633 
Q 3022 1394 3022 966 
Q 3022 478 2636 193 
Q 2250 -91 1575 -91 
Q 1294 -91 989 -36 
Q 684 19 347 128 
L 347 722 
Q 666 556 975 473 
Q 1284 391 1588 391 
Q 1994 391 2212 530 
Q 2431 669 2431 922 
Q 2431 1156 2273 1281 
Q 2116 1406 1581 1522 
L 1381 1569 
Q 847 1681 609 1914 
Q 372 2147 372 2553 
Q 372 3047 722 3315 
Q 1072 3584 1716 3584 
Q 2034 3584 2315 3537 
Q 2597 3491 2834 3397 
z
" transform="scale(0.015625)"/>
       <path id="DejaVuSans-5d" d="M 1947 4863 
L 1947 -844 
L 622 -844 
L 622 -397 
L 1369 -397 
L 1369 4416 
L 622 4416 
L 622 4863 
L 1947 4863 
z
" transform="scale(0.015625)"/>
      </defs>
      <use xlink:href="#DejaVuSans-Oblique-74" transform="translate(0 0.015625)"/>
      <use xlink:href="#DejaVuSans-20" transform="translate(39.208984 0.015625)"/>
      <use xlink:href="#DejaVuSans-5b" transform="translate(70.996094 0.015625)"/>
      <use xlink:href="#DejaVuSans-73" transform="translate(110.009766 0.015625)"/>
      <use xlink:href="#DejaVuSans-5d" transform="translate(162.109375 0.015625)"/>
     </g>
    </g>
   </g>
   <g id="matplotlib.axis_2">
    <g id="ytick_1">
     <g id="line2d_15">
      <path d="M 58.106 76.548256 
L 450 76.548256 
" clip-path="url(#pdf0ed65a23)" style="fill: none; stroke: #b0b0b0; stroke-width: 0.8; stroke-linecap: square"/>
     </g>
     <g id="line2d_16">
      <defs>
       <path id="m214848b5f9" d="M 0 0 
L -3.5 0 
" style="stroke: #000000; stroke-width: 0.8"/>
      </defs>
      <g>
       <use xlink:href="#m214848b5f9" x="58.106" y="76.548256" style="stroke: #000000; stroke-width: 0.8"/>
      </g>
     </g>
     <g id="text_9">
      <!-- 0 -->
      <g transform="translate(44.7435 80.347475)scale(0.1 -0.1)">
       <use xlink:href="#DejaVuSans-30"/>
      </g>
     </g>
    </g>
    <g id="ytick_2">
     <g id="line2d_17">
      <path d="M 58.106 30.614427 
L 450 30.614427 
" clip-path="url(#pdf0ed65a23)" style="fill: none; stroke: #b0b0b0; stroke-width: 0.8; stroke-linecap: square"/>
     </g>
     <g id="line2d_18">
      <g>
       <use xlink:href="#m214848b5f9" x="58.106" y="30.614427" style="stroke: #000000; stroke-width: 0.8"/>
      </g>
     </g>
     <g id="text_10">
      <!-- 10 -->
      <g transform="translate(38.381 34.413646)scale(0.1 -0.1)">
       <use xlink:href="#DejaVuSans-31"/>
       <use xlink:href="#DejaVuSans-30" x="63.623047"/>
      </g>
     </g>
    </g>
    <g id="text_11">
     <!-- $e_x$ [m] -->
     <g transform="translate(32.301313 69.20875)rotate(-90)scale(0.1 -0.1)">
      <defs>
       <path id="DejaVuSans-Oblique-65" d="M 3078 2063 
Q 3088 2113 3092 2166 
Q 3097 2219 3097 2272 
Q 3097 2653 2873 2875 
Q 2650 3097 2266 3097 
Q 1838 3097 1509 2826 
Q 1181 2556 1013 2059 
L 3078 2063 
z
M 3578 1613 
L 903 1613 
Q 884 1494 878 1425 
Q 872 1356 872 1306 
Q 872 872 1139 634 
Q 1406 397 1894 397 
Q 2269 397 2603 481 
Q 2938 566 3225 728 
L 3116 159 
Q 2806 34 2476 -28 
Q 2147 -91 1806 -91 
Q 1078 -91 686 257 
Q 294 606 294 1247 
Q 294 1794 489 2264 
Q 684 2734 1063 3103 
Q 1306 3334 1642 3459 
Q 1978 3584 2356 3584 
Q 2950 3584 3301 3228 
Q 3653 2872 3653 2272 
Q 3653 2128 3634 1964 
Q 3616 1800 3578 1613 
z
" transform="scale(0.015625)"/>
       <path id="DejaVuSans-Oblique-78" d="M 3841 3500 
L 2234 1784 
L 3219 0 
L 2559 0 
L 1819 1388 
L 531 0 
L -166 0 
L 1556 1844 
L 641 3500 
L 1300 3500 
L 1972 2234 
L 3144 3500 
L 3841 3500 
z
" transform="scale(0.015625)"/>
       <path id="DejaVuSans-6d" d="M 3328 2828 
Q 3544 3216 3844 3400 
Q 4144 3584 4550 3584 
Q 5097 3584 5394 3201 
Q 5691 2819 5691 2113 
L 5691 0 
L 5113 0 
L 5113 2094 
Q 5113 2597 4934 2840 
Q 4756 3084 4391 3084 
Q 3944 3084 3684 2787 
Q 3425 2491 3425 1978 
L 3425 0 
L 2847 0 
L 2847 2094 
Q 2847 2600 2669 2842 
Q 2491 3084 2119 3084 
Q 1678 3084 1418 2786 
Q 1159 2488 1159 1978 
L 1159 0 
L 581 0 
L 581 3500 
L 1159 3500 
L 1159 2956 
Q 1356 3278 1631 3431 
Q 1906 3584 2284 3584 
Q 2666 3584 2933 3390 
Q 3200 3197 3328 2828 
z
" transform="scale(0.015625)"/>
      </defs>
      <use xlink:href="#DejaVuSans-Oblique-65" transform="translate(0 0.015625)"/>
      <use xlink:href="#DejaVuSans-Oblique-78" transform="translate(61.523438 -16.390625)scale(0.7)"/>
      <use xlink:href="#DejaVuSans-20" transform="translate(105.683594 0.015625)"/>
      <use xlink:href="#DejaVuSans-5b" transform="translate(137.470703 0.015625)"/>
      <use xlink:href="#DejaVuSans-6d" transform="translate(176.484375 0.015625)"/>
      <use xlink:href="#DejaVuSans-5d" transform="translate(273.896484 0.015625)"/>
     </g>
    </g>
   </g>
   <g id="line2d_19">
    <path d="M 75.919364 30.614432 
L 82.232961 30.720591 
L 91.85368 31.1153 
L 101.775048 32.189027 
L 106.886055 32.904035 
L 108.990587 33.246541 
L 110.193177 33.478476 
L 113.199652 33.974827 
L 113.800947 34.128222 
L 116.807422 34.678547 
L 117.709364 34.8768 
L 119.813897 35.330454 
L 123.121019 36.156568 
L 125.225552 36.687105 
L 127.931379 37.454585 
L 130.637206 38.141234 
L 130.937854 38.27397 
L 131.238501 38.27397 
L 131.539149 38.473949 
L 132.441091 38.641068 
L 132.741739 38.774829 
L 133.042386 38.774829 
L 133.343034 38.975171 
L 134.244976 39.141533 
L 135.146919 39.438826 
L 136.650156 39.829282 
L 138.754689 40.367089 
L 141.460516 41.094491 
L 144.767638 41.854569 
L 145.669581 42.082905 
L 148.074761 42.616577 
L 148.375408 42.755806 
L 148.676056 42.755806 
L 149.577998 42.977972 
L 151.68253 43.447015 
L 152.88512 43.773851 
L 154.989653 44.255913 
L 155.590948 44.361814 
L 157.996128 44.884841 
L 160.401308 45.419867 
L 161.002603 45.52002 
L 164.009077 46.111759 
L 164.91102 46.30691 
L 167.917495 46.895701 
L 168.819437 47.092065 
L 171.525265 47.59405 
L 172.12656 47.755493 
L 174.53174 48.189285 
L 175.734329 48.443016 
L 178.440157 48.945143 
L 179.342099 49.121628 
L 182.348574 49.646848 
L 183.250517 49.826691 
L 185.956344 50.323893 
L 186.858287 50.500373 
L 189.263466 50.934746 
L 190.165409 51.112438 
L 193.171884 51.667978 
L 194.073826 51.853663 
L 196.779654 52.347612 
L 197.681596 52.523788 
L 200.387423 53.022173 
L 201.289366 53.207185 
L 203.995193 53.682845 
L 204.596488 53.836579 
L 207.602963 54.362423 
L 208.504906 54.540481 
L 210.910086 54.981926 
L 211.812028 55.153133 
L 214.217208 55.569611 
L 215.11915 55.736891 
L 218.426273 56.292604 
L 219.628863 56.523647 
L 222.635338 56.992359 
L 223.236633 57.136741 
L 226.243107 57.645847 
L 227.14505 57.814419 
L 229.850877 58.263022 
L 230.75282 58.425135 
L 232.857352 58.801401 
L 233.759295 58.971978 
L 236.465122 59.430351 
L 237.367064 59.590687 
L 240.674187 60.113432 
L 241.576129 60.278752 
L 244.281957 60.746395 
L 246.987784 61.213558 
L 247.589079 61.292335 
L 250.294906 61.754475 
L 252.700086 62.141613 
L 256.007209 62.628587 
L 257.209799 62.823542 
L 259.915626 63.237672 
L 260.516921 63.370081 
L 263.523396 63.783446 
L 264.124691 63.908695 
L 266.529871 64.263646 
L 267.431813 64.43757 
L 273.74541 65.356812 
L 274.948 65.531228 
L 277.653828 65.93075 
L 278.856418 66.108111 
L 282.16354 66.561665 
L 285.470662 67.017468 
L 289.980375 67.620126 
L 291.483612 67.819945 
L 294.18944 68.146346 
L 294.790735 68.260523 
L 298.999799 68.812031 
L 300.503037 69.006234 
L 303.509512 69.40105 
L 307.117282 69.862986 
L 310.725051 70.30202 
L 314.032174 70.736537 
L 320.345771 71.514766 
L 321.548361 71.666203 
L 325.156131 72.145543 
L 328.463253 72.557858 
L 332.371671 73.034107 
L 335.97944 73.483341 
L 340.489153 73.980184 
L 341.99239 74.193247 
L 342.894333 74.278462 
L 360.031239 75.767933 
L 366.645484 76.102541 
L 371.756491 76.249229 
L 383.181096 76.326196 
L 418.056204 75.842083 
L 422.565917 75.997483 
L 428.879514 76.330187 
L 432.186636 76.503068 
L 432.186636 76.503068 
" clip-path="url(#pdf0ed65a23)" style="fill: none; stroke: #ff0000; stroke-width: 1.5; stroke-linecap: square"/>
   </g>
   <g id="patch_3">
    <path d="M 58.106 78.7975 
L 58.106 28.32 
" style="fill: none; stroke: #000000; stroke-width: 0.8; stroke-linejoin: miter; stroke-linecap: square"/>
   </g>
   <g id="patch_4">
    <path d="M 450 78.7975 
L 450 28.32 
" style="fill: none; stroke: #000000; stroke-width: 0.8; stroke-linejoin: miter; stroke-linecap: square"/>
   </g>
   <g id="patch_5">
    <path d="M 58.106 78.7975 
L 450 78.7975 
" style="fill: none; stroke: #000000; stroke-width: 0.8; stroke-linejoin: miter; stroke-linecap: square"/>
   </g>
   <g id="patch_6">
    <path d="M 58.106 28.32 
L 450 28.32 
" style="fill: none; stroke: #000000; stroke-width: 0.8; stroke-linejoin: miter; stroke-linecap: square"/>
   </g>
   <g id="text_12">
    <!-- Error in $x$-position -->
    <g transform="translate(200.413 22.32)scale(0.12 -0.12)">
     <defs>
      <path id="DejaVuSans-45" d="M 628 4666 
L 3578 4666 
L 3578 4134 
L 1259 4134 
L 1259 2753 
L 3481 2753 
L 3481 2222 
L 1259 2222 
L 1259 531 
L 3634 531 
L 3634 0 
L 628 0 
L 628 4666 
z
" transform="scale(0.015625)"/>
      <path id="DejaVuSans-72" d="M 2631 2963 
Q 2534 3019 2420 3045 
Q 2306 3072 2169 3072 
Q 1681 3072 1420 2755 
Q 1159 2438 1159 1844 
L 1159 0 
L 581 0 
L 581 3500 
L 1159 3500 
L 1159 2956 
Q 1341 3275 1631 3429 
Q 1922 3584 2338 3584 
Q 2397 3584 2469 3576 
Q 2541 3569 2628 3553 
L 2631 2963 
z
" transform="scale(0.015625)"/>
      <path id="DejaVuSans-6f" d="M 1959 3097 
Q 1497 3097 1228 2736 
Q 959 2375 959 1747 
Q 959 1119 1226 758 
Q 1494 397 1959 397 
Q 2419 397 2687 759 
Q 2956 1122 2956 1747 
Q 2956 2369 2687 2733 
Q 2419 3097 1959 3097 
z
M 1959 3584 
Q 2709 3584 3137 3096 
Q 3566 2609 3566 1747 
Q 3566 888 3137 398 
Q 2709 -91 1959 -91 
Q 1206 -91 779 398 
Q 353 888 353 1747 
Q 353 2609 779 3096 
Q 1206 3584 1959 3584 
z
" transform="scale(0.015625)"/>
      <path id="DejaVuSans-69" d="M 603 3500 
L 1178 3500 
L 1178 0 
L 603 0 
L 603 3500 
z
M 603 4863 
L 1178 4863 
L 1178 4134 
L 603 4134 
L 603 4863 
z
" transform="scale(0.015625)"/>
      <path id="DejaVuSans-6e" d="M 3513 2113 
L 3513 0 
L 2938 0 
L 2938 2094 
Q 2938 2591 2744 2837 
Q 2550 3084 2163 3084 
Q 1697 3084 1428 2787 
Q 1159 2491 1159 1978 
L 1159 0 
L 581 0 
L 581 3500 
L 1159 3500 
L 1159 2956 
Q 1366 3272 1645 3428 
Q 1925 3584 2291 3584 
Q 2894 3584 3203 3211 
Q 3513 2838 3513 2113 
z
" transform="scale(0.015625)"/>
      <path id="DejaVuSans-2d" d="M 313 2009 
L 1997 2009 
L 1997 1497 
L 313 1497 
L 313 2009 
z
" transform="scale(0.015625)"/>
      <path id="DejaVuSans-70" d="M 1159 525 
L 1159 -1331 
L 581 -1331 
L 581 3500 
L 1159 3500 
L 1159 2969 
Q 1341 3281 1617 3432 
Q 1894 3584 2278 3584 
Q 2916 3584 3314 3078 
Q 3713 2572 3713 1747 
Q 3713 922 3314 415 
Q 2916 -91 2278 -91 
Q 1894 -91 1617 61 
Q 1341 213 1159 525 
z
M 3116 1747 
Q 3116 2381 2855 2742 
Q 2594 3103 2138 3103 
Q 1681 3103 1420 2742 
Q 1159 2381 1159 1747 
Q 1159 1113 1420 752 
Q 1681 391 2138 391 
Q 2594 391 2855 752 
Q 3116 1113 3116 1747 
z
" transform="scale(0.015625)"/>
      <path id="DejaVuSans-74" d="M 1172 4494 
L 1172 3500 
L 2356 3500 
L 2356 3053 
L 1172 3053 
L 1172 1153 
Q 1172 725 1289 603 
Q 1406 481 1766 481 
L 2356 481 
L 2356 0 
L 1766 0 
Q 1100 0 847 248 
Q 594 497 594 1153 
L 594 3053 
L 172 3053 
L 172 3500 
L 594 3500 
L 594 4494 
L 1172 4494 
z
" transform="scale(0.015625)"/>
     </defs>
     <use xlink:href="#DejaVuSans-45" transform="translate(0 0.015625)"/>
     <use xlink:href="#DejaVuSans-72" transform="translate(63.183594 0.015625)"/>
     <use xlink:href="#DejaVuSans-72" transform="translate(104.296875 0.015625)"/>
     <use xlink:href="#DejaVuSans-6f" transform="translate(145.410156 0.015625)"/>
     <use xlink:href="#DejaVuSans-72" transform="translate(206.591797 0.015625)"/>
     <use xlink:href="#DejaVuSans-20" transform="translate(247.705078 0.015625)"/>
     <use xlink:href="#DejaVuSans-69" transform="translate(279.492188 0.015625)"/>
     <use xlink:href="#DejaVuSans-6e" transform="translate(307.275391 0.015625)"/>
     <use xlink:href="#DejaVuSans-20" transform="translate(370.654297 0.015625)"/>
     <use xlink:href="#DejaVuSans-Oblique-78" transform="translate(402.441406 0.015625)"/>
     <use xlink:href="#DejaVuSans-2d" transform="translate(461.621094 0.015625)"/>
     <use xlink:href="#DejaVuSans-70" transform="translate(497.705078 0.015625)"/>
     <use xlink:href="#DejaVuSans-6f" transform="translate(561.181641 0.015625)"/>
     <use xlink:href="#DejaVuSans-73" transform="translate(622.363281 0.015625)"/>
     <use xlink:href="#DejaVuSans-69" transform="translate(674.462891 0.015625)"/>
     <use xlink:href="#DejaVuSans-74" transform="translate(702.246094 0.015625)"/>
     <use xlink:href="#DejaVuSans-69" transform="translate(741.455078 0.015625)"/>
     <use xlink:href="#DejaVuSans-6f" transform="translate(769.238281 0.015625)"/>
     <use xlink:href="#DejaVuSans-6e" transform="translate(830.419922 0.015625)"/>
    </g>
   </g>
  </g>
  <g id="axes_2">
   <g id="patch_7">
    <path d="M 58.106 190.3975 
L 450 190.3975 
L 450 139.92 
L 58.106 139.92 
z
" style="fill: #ffffff"/>
   </g>
   <g id="matplotlib.axis_3">
    <g id="xtick_8">
     <g id="line2d_20">
      <path d="M 75.919364 190.3975 
L 75.919364 139.92 
" clip-path="url(#p7d2901912a)" style="fill: none; stroke: #b0b0b0; stroke-width: 0.8; stroke-linecap: square"/>
     </g>
     <g id="line2d_21">
      <g>
       <use xlink:href="#mbc99d4f889" x="75.919364" y="190.3975" style="stroke: #000000; stroke-width: 0.8"/>
      </g>
     </g>
     <g id="text_13">
      <!-- 0 -->
      <g transform="translate(72.738114 204.995937)scale(0.1 -0.1)">
       <use xlink:href="#DejaVuSans-30"/>
      </g>
     </g>
    </g>
    <g id="xtick_9">
     <g id="line2d_22">
      <path d="M 135.998162 190.3975 
L 135.998162 139.92 
" clip-path="url(#p7d2901912a)" style="fill: none; stroke: #b0b0b0; stroke-width: 0.8; stroke-linecap: square"/>
     </g>
     <g id="line2d_23">
      <g>
       <use xlink:href="#mbc99d4f889" x="135.998162" y="190.3975" style="stroke: #000000; stroke-width: 0.8"/>
      </g>
     </g>
     <g id="text_14">
      <!-- 2 -->
      <g transform="translate(132.816912 204.995937)scale(0.1 -0.1)">
       <use xlink:href="#DejaVuSans-32"/>
      </g>
     </g>
    </g>
    <g id="xtick_10">
     <g id="line2d_24">
      <path d="M 196.07696 190.3975 
L 196.07696 139.92 
" clip-path="url(#p7d2901912a)" style="fill: none; stroke: #b0b0b0; stroke-width: 0.8; stroke-linecap: square"/>
     </g>
     <g id="line2d_25">
      <g>
       <use xlink:href="#mbc99d4f889" x="196.07696" y="190.3975" style="stroke: #000000; stroke-width: 0.8"/>
      </g>
     </g>
     <g id="text_15">
      <!-- 4 -->
      <g transform="translate(192.89571 204.995937)scale(0.1 -0.1)">
       <use xlink:href="#DejaVuSans-34"/>
      </g>
     </g>
    </g>
    <g id="xtick_11">
     <g id="line2d_26">
      <path d="M 256.155758 190.3975 
L 256.155758 139.92 
" clip-path="url(#p7d2901912a)" style="fill: none; stroke: #b0b0b0; stroke-width: 0.8; stroke-linecap: square"/>
     </g>
     <g id="line2d_27">
      <g>
       <use xlink:href="#mbc99d4f889" x="256.155758" y="190.3975" style="stroke: #000000; stroke-width: 0.8"/>
      </g>
     </g>
     <g id="text_16">
      <!-- 6 -->
      <g transform="translate(252.974508 204.995937)scale(0.1 -0.1)">
       <use xlink:href="#DejaVuSans-36"/>
      </g>
     </g>
    </g>
    <g id="xtick_12">
     <g id="line2d_28">
      <path d="M 316.234556 190.3975 
L 316.234556 139.92 
" clip-path="url(#p7d2901912a)" style="fill: none; stroke: #b0b0b0; stroke-width: 0.8; stroke-linecap: square"/>
     </g>
     <g id="line2d_29">
      <g>
       <use xlink:href="#mbc99d4f889" x="316.234556" y="190.3975" style="stroke: #000000; stroke-width: 0.8"/>
      </g>
     </g>
     <g id="text_17">
      <!-- 8 -->
      <g transform="translate(313.053306 204.995937)scale(0.1 -0.1)">
       <use xlink:href="#DejaVuSans-38"/>
      </g>
     </g>
    </g>
    <g id="xtick_13">
     <g id="line2d_30">
      <path d="M 376.313354 190.3975 
L 376.313354 139.92 
" clip-path="url(#p7d2901912a)" style="fill: none; stroke: #b0b0b0; stroke-width: 0.8; stroke-linecap: square"/>
     </g>
     <g id="line2d_31">
      <g>
       <use xlink:href="#mbc99d4f889" x="376.313354" y="190.3975" style="stroke: #000000; stroke-width: 0.8"/>
      </g>
     </g>
     <g id="text_18">
      <!-- 10 -->
      <g transform="translate(369.950854 204.995937)scale(0.1 -0.1)">
       <use xlink:href="#DejaVuSans-31"/>
       <use xlink:href="#DejaVuSans-30" x="63.623047"/>
      </g>
     </g>
    </g>
    <g id="xtick_14">
     <g id="line2d_32">
      <path d="M 436.392152 190.3975 
L 436.392152 139.92 
" clip-path="url(#p7d2901912a)" style="fill: none; stroke: #b0b0b0; stroke-width: 0.8; stroke-linecap: square"/>
     </g>
     <g id="line2d_33">
      <g>
       <use xlink:href="#mbc99d4f889" x="436.392152" y="190.3975" style="stroke: #000000; stroke-width: 0.8"/>
      </g>
     </g>
     <g id="text_19">
      <!-- 12 -->
      <g transform="translate(430.029652 204.995937)scale(0.1 -0.1)">
       <use xlink:href="#DejaVuSans-31"/>
       <use xlink:href="#DejaVuSans-32" x="63.623047"/>
      </g>
     </g>
    </g>
    <g id="text_20">
     <!-- $t$ [s] -->
     <g transform="translate(243.953 218.674062)scale(0.1 -0.1)">
      <use xlink:href="#DejaVuSans-Oblique-74" transform="translate(0 0.015625)"/>
      <use xlink:href="#DejaVuSans-20" transform="translate(39.208984 0.015625)"/>
      <use xlink:href="#DejaVuSans-5b" transform="translate(70.996094 0.015625)"/>
      <use xlink:href="#DejaVuSans-73" transform="translate(110.009766 0.015625)"/>
      <use xlink:href="#DejaVuSans-5d" transform="translate(162.109375 0.015625)"/>
     </g>
    </g>
   </g>
   <g id="matplotlib.axis_4">
    <g id="ytick_3">
     <g id="line2d_34">
      <path d="M 58.106 180.953201 
L 450 180.953201 
" clip-path="url(#p7d2901912a)" style="fill: none; stroke: #b0b0b0; stroke-width: 0.8; stroke-linecap: square"/>
     </g>
     <g id="line2d_35">
      <g>
       <use xlink:href="#m214848b5f9" x="58.106" y="180.953201" style="stroke: #000000; stroke-width: 0.8"/>
      </g>
     </g>
     <g id="text_21">
      <!-- −0.1 -->
      <g transform="translate(26.823188 184.75242)scale(0.1 -0.1)">
       <defs>
        <path id="DejaVuSans-2212" d="M 678 2272 
L 4684 2272 
L 4684 1741 
L 678 1741 
L 678 2272 
z
" transform="scale(0.015625)"/>
        <path id="DejaVuSans-2e" d="M 684 794 
L 1344 794 
L 1344 0 
L 684 0 
L 684 794 
z
" transform="scale(0.015625)"/>
       </defs>
       <use xlink:href="#DejaVuSans-2212"/>
       <use xlink:href="#DejaVuSans-30" x="83.789062"/>
       <use xlink:href="#DejaVuSans-2e" x="147.412109"/>
       <use xlink:href="#DejaVuSans-31" x="179.199219"/>
      </g>
     </g>
    </g>
    <g id="ytick_4">
     <g id="line2d_36">
      <path d="M 58.106 165.736526 
L 450 165.736526 
" clip-path="url(#p7d2901912a)" style="fill: none; stroke: #b0b0b0; stroke-width: 0.8; stroke-linecap: square"/>
     </g>
     <g id="line2d_37">
      <g>
       <use xlink:href="#m214848b5f9" x="58.106" y="165.736526" style="stroke: #000000; stroke-width: 0.8"/>
      </g>
     </g>
     <g id="text_22">
      <!-- 0.0 -->
      <g transform="translate(35.202875 169.535745)scale(0.1 -0.1)">
       <use xlink:href="#DejaVuSans-30"/>
       <use xlink:href="#DejaVuSans-2e" x="63.623047"/>
       <use xlink:href="#DejaVuSans-30" x="95.410156"/>
      </g>
     </g>
    </g>
    <g id="ytick_5">
     <g id="line2d_38">
      <path d="M 58.106 150.519851 
L 450 150.519851 
" clip-path="url(#p7d2901912a)" style="fill: none; stroke: #b0b0b0; stroke-width: 0.8; stroke-linecap: square"/>
     </g>
     <g id="line2d_39">
      <g>
       <use xlink:href="#m214848b5f9" x="58.106" y="150.519851" style="stroke: #000000; stroke-width: 0.8"/>
      </g>
     </g>
     <g id="text_23">
      <!-- 0.1 -->
      <g transform="translate(35.202875 154.31907)scale(0.1 -0.1)">
       <use xlink:href="#DejaVuSans-30"/>
       <use xlink:href="#DejaVuSans-2e" x="63.623047"/>
       <use xlink:href="#DejaVuSans-31" x="95.410156"/>
      </g>
     </g>
    </g>
    <g id="text_24">
     <!-- $e_z$ [m] -->
     <g transform="translate(20.7435 180.60875)rotate(-90)scale(0.1 -0.1)">
      <defs>
       <path id="DejaVuSans-Oblique-7a" d="M 744 3500 
L 3475 3500 
L 3372 2975 
L 738 459 
L 2913 459 
L 2822 0 
L -19 0 
L 84 525 
L 2719 3041 
L 653 3041 
L 744 3500 
z
" transform="scale(0.015625)"/>
      </defs>
      <use xlink:href="#DejaVuSans-Oblique-65" transform="translate(0 0.015625)"/>
      <use xlink:href="#DejaVuSans-Oblique-7a" transform="translate(61.523438 -16.390625)scale(0.7)"/>
      <use xlink:href="#DejaVuSans-20" transform="translate(101.000977 0.015625)"/>
      <use xlink:href="#DejaVuSans-5b" transform="translate(132.788086 0.015625)"/>
      <use xlink:href="#DejaVuSans-6d" transform="translate(171.801758 0.015625)"/>
      <use xlink:href="#DejaVuSans-5d" transform="translate(269.213867 0.015625)"/>
     </g>
    </g>
   </g>
   <g id="line2d_40">
    <path d="M 75.919364 167.144627 
L 76.520659 166.884406 
L 76.821306 166.588727 
L 77.121954 166.588727 
L 77.422601 166.266332 
L 78.925839 165.580673 
L 79.527133 165.409563 
L 81.932313 165.013581 
L 82.533608 164.783408 
L 82.834256 164.41139 
L 83.134903 164.41139 
L 83.736198 163.846706 
L 84.337493 163.404942 
L 84.638141 162.807599 
L 84.938788 162.807599 
L 85.239436 162.309589 
L 86.141378 161.547207 
L 86.442026 160.875437 
L 86.742673 160.875437 
L 87.043321 160.293397 
L 87.945263 159.334552 
L 89.147853 157.539968 
L 89.749148 156.970361 
L 90.049796 156.399369 
L 90.350443 156.399369 
L 90.651091 156.073757 
L 91.553033 155.799933 
L 92.755623 155.582662 
L 95.762098 155.384627 
L 97.265335 155.438111 
L 98.467925 155.307565 
L 98.768573 155.24254 
L 100.572458 154.22134 
L 100.873105 153.797703 
L 101.4744 153.209298 
L 102.075695 152.469683 
L 102.376343 152.469683 
L 102.67699 151.989011 
L 103.578932 151.253786 
L 103.87958 150.915222 
L 104.180227 150.915222 
L 104.480875 150.628893 
L 105.683465 150.061626 
L 106.28476 149.652212 
L 107.48735 149.006996 
L 108.68994 148.065053 
L 108.990587 147.910478 
L 109.291235 147.62279 
L 109.591882 147.62279 
L 109.89253 147.229163 
L 110.493825 147.037221 
L 111.395767 146.575898 
L 111.997062 146.144824 
L 112.598357 145.828205 
L 112.899005 145.486875 
L 113.199652 145.486875 
L 113.5003 144.936741 
L 114.101595 144.649722 
L 114.402242 144.456053 
L 114.70289 144.066889 
L 115.304185 143.594411 
L 115.604832 143.330798 
L 116.206127 143.085366 
L 116.807422 142.720609 
L 117.108069 142.485783 
L 118.310659 142.215978 
L 119.212602 142.283422 
L 120.114544 142.578731 
L 120.715839 143.009261 
L 121.617782 143.602878 
L 123.722314 146.130977 
L 124.022962 146.749869 
L 125.526199 148.323574 
L 125.826847 148.822431 
L 128.232026 150.584481 
L 129.434616 151.280113 
L 130.035911 151.818277 
L 130.637206 152.227591 
L 130.937854 152.677158 
L 131.238501 152.677158 
L 131.539149 153.408138 
L 131.839796 153.534038 
L 132.441091 154.040531 
L 132.741739 154.537815 
L 133.042386 154.537815 
L 133.343034 155.228033 
L 133.944329 155.534838 
L 134.244976 155.723112 
L 134.545624 156.060911 
L 137.552099 157.574965 
L 137.852746 157.574965 
L 138.454041 157.970249 
L 139.055336 158.336246 
L 139.355984 158.642294 
L 139.656631 158.642294 
L 140.257926 159.100854 
L 140.859221 159.462251 
L 141.460516 159.856553 
L 142.663106 160.385635 
L 143.264401 160.760847 
L 144.466991 161.390806 
L 146.571523 163.533786 
L 146.872171 164.112209 
L 148.074761 165.300858 
L 148.375408 166.048309 
L 148.676056 166.048309 
L 148.976703 166.645038 
L 149.878646 167.53957 
L 150.179293 168.14137 
L 150.479941 168.14137 
L 150.780588 169.06334 
L 151.081236 169.220099 
L 151.68253 169.856465 
L 151.983178 170.506705 
L 152.283825 170.836161 
L 153.185768 172.334707 
L 153.486415 172.334707 
L 153.787063 172.998459 
L 154.388358 173.812848 
L 154.989653 174.754186 
L 155.2903 174.754186 
L 155.590948 175.355193 
L 156.192243 176.075714 
L 156.793538 176.899231 
L 157.094185 176.899231 
L 157.394833 177.426095 
L 157.996128 178.065896 
L 158.597423 178.809633 
L 158.89807 178.809633 
L 159.198718 179.283213 
L 160.10066 180.038562 
L 160.401308 180.41095 
L 160.701955 180.41095 
L 161.002603 180.728675 
L 162.50584 181.307173 
L 164.009077 181.348464 
L 165.211667 181.42086 
L 165.812962 181.575768 
L 166.414257 181.87418 
L 168.819437 182.75385 
L 169.72138 182.711105 
L 170.623322 182.467149 
L 172.12656 182.195622 
L 173.028502 182.284512 
L 175.734329 183.181168 
L 176.636272 183.109946 
L 179.041452 182.416885 
L 180.244042 182.322569 
L 181.747279 182.724675 
L 182.348574 183.016773 
L 182.949869 183.336468 
L 184.152459 183.583479 
L 185.355049 183.479224 
L 186.557639 183.208072 
L 188.361524 182.87558 
L 188.962819 182.941288 
L 189.263466 183.056162 
L 189.864761 183.454225 
L 190.766704 184.032245 
L 191.067351 184.562001 
L 191.367999 184.562001 
L 191.668646 184.963269 
L 193.171884 185.762719 
L 193.773179 185.965712 
L 194.975769 186.0118 
L 196.779654 185.855483 
L 197.982244 186.089084 
L 198.282891 186.297006 
L 198.583539 186.297006 
L 198.884186 186.674919 
L 199.485481 186.87137 
L 201.289366 187.546604 
L 202.191308 187.557744 
L 205.197783 186.973589 
L 206.400373 187.098966 
L 208.805553 187.412148 
L 209.406848 187.339022 
L 211.511381 186.66513 
L 212.71397 186.520661 
L 213.91656 186.708326 
L 215.419798 187.196022 
L 216.32174 187.351269 
L 217.223683 187.360037 
L 217.824978 187.21477 
L 220.530805 186.707162 
L 221.733395 186.808198 
L 222.635338 187.001316 
L 222.935985 187.24251 
L 223.837928 187.439897 
L 224.138575 187.57172 
L 224.73987 187.681651 
L 225.94246 187.634425 
L 228.34764 187.107038 
L 229.55023 187.134971 
L 231.053467 187.555549 
L 233.158 188.103068 
L 234.059942 187.994713 
L 234.661237 187.821323 
L 234.961885 187.684128 
L 235.56318 187.579219 
L 236.765769 187.554871 
L 237.367064 187.628176 
L 240.072892 187.94786 
L 241.876777 187.822633 
L 243.079367 187.786018 
L 246.085842 187.871322 
L 248.190374 187.13276 
L 248.791669 186.954971 
L 250.294906 186.589406 
L 251.497496 186.692447 
L 253.301381 186.876322 
L 254.203324 186.750659 
L 255.105266 186.414712 
L 256.007209 186.044885 
L 256.608504 185.701117 
L 257.510446 185.338731 
L 257.811094 185.076622 
L 258.111741 185.076622 
L 258.713036 184.874283 
L 259.915626 184.821247 
L 260.817568 184.929323 
L 262.320806 184.970663 
L 263.523396 184.781199 
L 263.824043 184.527758 
L 264.725986 184.286331 
L 265.627928 183.751496 
L 266.229223 183.565504 
L 266.529871 183.441299 
L 266.830518 183.161987 
L 267.131166 183.161987 
L 267.732461 182.944811 
L 268.634403 182.90975 
L 271.941526 183.48253 
L 272.54282 183.308682 
L 273.444763 183.006966 
L 276.451238 181.280024 
L 277.35318 181.027014 
L 277.954475 180.992059 
L 278.856418 181.160053 
L 280.359655 181.729532 
L 281.562245 181.893145 
L 282.764835 181.60817 
L 283.36613 181.296637 
L 283.967425 180.905365 
L 286.673252 179.877026 
L 288.17649 179.98041 
L 288.777785 180.169794 
L 289.37908 180.434011 
L 290.58167 180.687973 
L 291.483612 180.661724 
L 292.385555 180.383081 
L 292.98685 180.061593 
L 295.091382 179.483976 
L 296.594619 179.352942 
L 297.797209 179.435837 
L 298.398504 179.56826 
L 300.503037 179.740474 
L 301.404979 179.616274 
L 303.810159 179.156607 
L 306.215339 179.095259 
L 308.319871 179.44069 
L 309.823109 179.48162 
L 312.829584 179.162298 
L 314.032174 179.141506 
L 315.836059 179.381273 
L 317.940591 179.447167 
L 321.548361 179.43542 
L 323.051598 179.741424 
L 328.162606 180.637865 
L 332.672318 181.149386 
L 333.874908 181.355758 
L 336.280088 181.776292 
L 338.083973 182.120151 
L 339.286563 182.228279 
L 342.293038 182.340959 
L 345.60016 183.513762 
L 346.201455 183.84255 
L 347.704692 184.202691 
L 348.606635 184.19758 
L 349.508577 183.998265 
L 351.312462 183.807008 
L 352.515052 183.921307 
L 354.619585 184.364971 
L 355.521527 184.369273 
L 356.42347 184.227693 
L 358.227354 183.463409 
L 359.429944 182.848741 
L 361.534477 182.166542 
L 361.835124 181.974679 
L 362.135772 181.974679 
L 362.737067 181.577971 
L 363.338362 181.231798 
L 364.841599 179.911498 
L 365.743542 179.237918 
L 366.645484 179.030348 
L 369.050664 178.749607 
L 369.952606 178.265063 
L 370.553901 177.937224 
L 370.854549 177.534269 
L 371.155196 177.534269 
L 371.455844 177.281522 
L 372.357786 177.073377 
L 373.259729 177.086408 
L 374.462319 177.044197 
L 376.266204 176.023159 
L 377.468794 174.627944 
L 378.972031 173.649186 
L 379.573326 173.569949 
L 380.174621 173.722434 
L 381.076563 174.15128 
L 381.377211 174.15128 
L 381.978506 174.390043 
L 382.579801 174.426119 
L 383.181096 174.355602 
L 384.083038 173.765422 
L 384.383686 173.446507 
L 384.684333 173.327889 
L 384.984981 173.078755 
L 385.285628 172.563904 
L 386.187571 171.716713 
L 386.488218 171.309252 
L 386.788866 171.309252 
L 387.089513 170.99686 
L 387.991456 170.751778 
L 388.592751 170.7149 
L 390.697283 170.806887 
L 391.599226 170.503861 
L 391.899873 170.264465 
L 392.501168 169.660839 
L 393.40311 168.942746 
L 393.703758 168.614644 
L 394.004405 168.614644 
L 394.305053 168.394802 
L 395.206995 168.289997 
L 396.108938 168.474224 
L 397.311528 168.686519 
L 398.21347 168.531327 
L 398.814765 168.290605 
L 399.115413 168.037042 
L 399.41606 167.627991 
L 401.219945 166.364977 
L 402.121888 166.245499 
L 403.02383 166.398771 
L 403.324478 166.730474 
L 404.22642 166.999855 
L 404.827715 167.173571 
L 405.729657 167.081186 
L 406.030305 166.990065 
L 407.232895 165.922301 
L 407.83419 165.616533 
L 408.134837 165.261469 
L 408.435485 165.261469 
L 408.736132 164.923116 
L 409.938722 164.891052 
L 410.23937 164.891052 
L 410.540017 165.147911 
L 411.141312 165.322017 
L 412.343902 165.75926 
L 413.245845 165.688629 
L 413.546492 165.508716 
L 413.84714 165.508716 
L 414.147787 165.039624 
L 414.749082 164.742502 
L 415.04973 164.540616 
L 415.350377 164.15878 
L 416.552967 163.591106 
L 417.454909 163.514428 
L 418.657499 163.754433 
L 419.258794 163.93924 
L 419.860089 163.983795 
L 421.062679 163.629658 
L 421.663974 163.233169 
L 421.964622 162.858496 
L 423.768507 161.842758 
L 424.069154 161.842758 
L 424.670449 161.665501 
L 425.271744 161.674894 
L 428.278219 162.724383 
L 429.480809 162.79445 
L 431.585341 162.758826 
L 432.186636 162.907382 
L 432.186636 162.907382 
" clip-path="url(#p7d2901912a)" style="fill: none; stroke: #0000ff; stroke-width: 1.5; stroke-linecap: square"/>
   </g>
   <g id="patch_8">
    <path d="M 58.106 190.3975 
L 58.106 139.92 
" style="fill: none; stroke: #000000; stroke-width: 0.8; stroke-linejoin: miter; stroke-linecap: square"/>
   </g>
   <g id="patch_9">
    <path d="M 450 190.3975 
L 450 139.92 
" style="fill: none; stroke: #000000; stroke-width: 0.8; stroke-linejoin: miter; stroke-linecap: square"/>
   </g>
   <g id="patch_10">
    <path d="M 58.106 190.3975 
L 450 190.3975 
" style="fill: none; stroke: #000000; stroke-width: 0.8; stroke-linejoin: miter; stroke-linecap: square"/>
   </g>
   <g id="patch_11">
    <path d="M 58.106 139.92 
L 450 139.92 
" style="fill: none; stroke: #000000; stroke-width: 0.8; stroke-linejoin: miter; stroke-linecap: square"/>
   </g>
   <g id="text_25">
    <!-- Error in $z$-position -->
    <g transform="translate(200.773 133.92)scale(0.12 -0.12)">
     <use xlink:href="#DejaVuSans-45" transform="translate(0 0.015625)"/>
     <use xlink:href="#DejaVuSans-72" transform="translate(63.183594 0.015625)"/>
     <use xlink:href="#DejaVuSans-72" transform="translate(104.296875 0.015625)"/>
     <use xlink:href="#DejaVuSans-6f" transform="translate(145.410156 0.015625)"/>
     <use xlink:href="#DejaVuSans-72" transform="translate(206.591797 0.015625)"/>
     <use xlink:href="#DejaVuSans-20" transform="translate(247.705078 0.015625)"/>
     <use xlink:href="#DejaVuSans-69" transform="translate(279.492188 0.015625)"/>
     <use xlink:href="#DejaVuSans-6e" transform="translate(307.275391 0.015625)"/>
     <use xlink:href="#DejaVuSans-20" transform="translate(370.654297 0.015625)"/>
     <use xlink:href="#DejaVuSans-Oblique-7a" transform="translate(402.441406 0.015625)"/>
     <use xlink:href="#DejaVuSans-2d" transform="translate(454.931641 0.015625)"/>
     <use xlink:href="#DejaVuSans-70" transform="translate(491.015625 0.015625)"/>
     <use xlink:href="#DejaVuSans-6f" transform="translate(554.492188 0.015625)"/>
     <use xlink:href="#DejaVuSans-73" transform="translate(615.673828 0.015625)"/>
     <use xlink:href="#DejaVuSans-69" transform="translate(667.773438 0.015625)"/>
     <use xlink:href="#DejaVuSans-74" transform="translate(695.556641 0.015625)"/>
     <use xlink:href="#DejaVuSans-69" transform="translate(734.765625 0.015625)"/>
     <use xlink:href="#DejaVuSans-6f" transform="translate(762.548828 0.015625)"/>
     <use xlink:href="#DejaVuSans-6e" transform="translate(823.730469 0.015625)"/>
    </g>
   </g>
  </g>
  <g id="axes_3">
   <g id="patch_12">
    <path d="M 58.106 301.9975 
L 450 301.9975 
L 450 251.52 
L 58.106 251.52 
z
" style="fill: #ffffff"/>
   </g>
   <g id="matplotlib.axis_5">
    <g id="xtick_15">
     <g id="line2d_41">
      <path d="M 75.919364 301.9975 
L 75.919364 251.52 
" clip-path="url(#p436f1b35e3)" style="fill: none; stroke: #b0b0b0; stroke-width: 0.8; stroke-linecap: square"/>
     </g>
     <g id="line2d_42">
      <g>
       <use xlink:href="#mbc99d4f889" x="75.919364" y="301.9975" style="stroke: #000000; stroke-width: 0.8"/>
      </g>
     </g>
     <g id="text_26">
      <!-- 0 -->
      <g transform="translate(72.738114 316.595937)scale(0.1 -0.1)">
       <use xlink:href="#DejaVuSans-30"/>
      </g>
     </g>
    </g>
    <g id="xtick_16">
     <g id="line2d_43">
      <path d="M 135.998162 301.9975 
L 135.998162 251.52 
" clip-path="url(#p436f1b35e3)" style="fill: none; stroke: #b0b0b0; stroke-width: 0.8; stroke-linecap: square"/>
     </g>
     <g id="line2d_44">
      <g>
       <use xlink:href="#mbc99d4f889" x="135.998162" y="301.9975" style="stroke: #000000; stroke-width: 0.8"/>
      </g>
     </g>
     <g id="text_27">
      <!-- 2 -->
      <g transform="translate(132.816912 316.595937)scale(0.1 -0.1)">
       <use xlink:href="#DejaVuSans-32"/>
      </g>
     </g>
    </g>
    <g id="xtick_17">
     <g id="line2d_45">
      <path d="M 196.07696 301.9975 
L 196.07696 251.52 
" clip-path="url(#p436f1b35e3)" style="fill: none; stroke: #b0b0b0; stroke-width: 0.8; stroke-linecap: square"/>
     </g>
     <g id="line2d_46">
      <g>
       <use xlink:href="#mbc99d4f889" x="196.07696" y="301.9975" style="stroke: #000000; stroke-width: 0.8"/>
      </g>
     </g>
     <g id="text_28">
      <!-- 4 -->
      <g transform="translate(192.89571 316.595937)scale(0.1 -0.1)">
       <use xlink:href="#DejaVuSans-34"/>
      </g>
     </g>
    </g>
    <g id="xtick_18">
     <g id="line2d_47">
      <path d="M 256.155758 301.9975 
L 256.155758 251.52 
" clip-path="url(#p436f1b35e3)" style="fill: none; stroke: #b0b0b0; stroke-width: 0.8; stroke-linecap: square"/>
     </g>
     <g id="line2d_48">
      <g>
       <use xlink:href="#mbc99d4f889" x="256.155758" y="301.9975" style="stroke: #000000; stroke-width: 0.8"/>
      </g>
     </g>
     <g id="text_29">
      <!-- 6 -->
      <g transform="translate(252.974508 316.595937)scale(0.1 -0.1)">
       <use xlink:href="#DejaVuSans-36"/>
      </g>
     </g>
    </g>
    <g id="xtick_19">
     <g id="line2d_49">
      <path d="M 316.234556 301.9975 
L 316.234556 251.52 
" clip-path="url(#p436f1b35e3)" style="fill: none; stroke: #b0b0b0; stroke-width: 0.8; stroke-linecap: square"/>
     </g>
     <g id="line2d_50">
      <g>
       <use xlink:href="#mbc99d4f889" x="316.234556" y="301.9975" style="stroke: #000000; stroke-width: 0.8"/>
      </g>
     </g>
     <g id="text_30">
      <!-- 8 -->
      <g transform="translate(313.053306 316.595937)scale(0.1 -0.1)">
       <use xlink:href="#DejaVuSans-38"/>
      </g>
     </g>
    </g>
    <g id="xtick_20">
     <g id="line2d_51">
      <path d="M 376.313354 301.9975 
L 376.313354 251.52 
" clip-path="url(#p436f1b35e3)" style="fill: none; stroke: #b0b0b0; stroke-width: 0.8; stroke-linecap: square"/>
     </g>
     <g id="line2d_52">
      <g>
       <use xlink:href="#mbc99d4f889" x="376.313354" y="301.9975" style="stroke: #000000; stroke-width: 0.8"/>
      </g>
     </g>
     <g id="text_31">
      <!-- 10 -->
      <g transform="translate(369.950854 316.595937)scale(0.1 -0.1)">
       <use xlink:href="#DejaVuSans-31"/>
       <use xlink:href="#DejaVuSans-30" x="63.623047"/>
      </g>
     </g>
    </g>
    <g id="xtick_21">
     <g id="line2d_53">
      <path d="M 436.392152 301.9975 
L 436.392152 251.52 
" clip-path="url(#p436f1b35e3)" style="fill: none; stroke: #b0b0b0; stroke-width: 0.8; stroke-linecap: square"/>
     </g>
     <g id="line2d_54">
      <g>
       <use xlink:href="#mbc99d4f889" x="436.392152" y="301.9975" style="stroke: #000000; stroke-width: 0.8"/>
      </g>
     </g>
     <g id="text_32">
      <!-- 12 -->
      <g transform="translate(430.029652 316.595937)scale(0.1 -0.1)">
       <use xlink:href="#DejaVuSans-31"/>
       <use xlink:href="#DejaVuSans-32" x="63.623047"/>
      </g>
     </g>
    </g>
    <g id="text_33">
     <!-- $t$ [s] -->
     <g transform="translate(243.953 330.274063)scale(0.1 -0.1)">
      <use xlink:href="#DejaVuSans-Oblique-74" transform="translate(0 0.015625)"/>
      <use xlink:href="#DejaVuSans-20" transform="translate(39.208984 0.015625)"/>
      <use xlink:href="#DejaVuSans-5b" transform="translate(70.996094 0.015625)"/>
      <use xlink:href="#DejaVuSans-73" transform="translate(110.009766 0.015625)"/>
      <use xlink:href="#DejaVuSans-5d" transform="translate(162.109375 0.015625)"/>
     </g>
    </g>
   </g>
   <g id="matplotlib.axis_6">
    <g id="ytick_6">
     <g id="line2d_55">
      <path d="M 58.106 291.728489 
L 450 291.728489 
" clip-path="url(#p436f1b35e3)" style="fill: none; stroke: #b0b0b0; stroke-width: 0.8; stroke-linecap: square"/>
     </g>
     <g id="line2d_56">
      <g>
       <use xlink:href="#m214848b5f9" x="58.106" y="291.728489" style="stroke: #000000; stroke-width: 0.8"/>
      </g>
     </g>
     <g id="text_34">
      <!-- −0.1 -->
      <g transform="translate(26.823188 295.527708)scale(0.1 -0.1)">
       <use xlink:href="#DejaVuSans-2212"/>
       <use xlink:href="#DejaVuSans-30" x="83.789062"/>
       <use xlink:href="#DejaVuSans-2e" x="147.412109"/>
       <use xlink:href="#DejaVuSans-31" x="179.199219"/>
      </g>
     </g>
    </g>
    <g id="ytick_7">
     <g id="line2d_57">
      <path d="M 58.106 276.587129 
L 450 276.587129 
" clip-path="url(#p436f1b35e3)" style="fill: none; stroke: #b0b0b0; stroke-width: 0.8; stroke-linecap: square"/>
     </g>
     <g id="line2d_58">
      <g>
       <use xlink:href="#m214848b5f9" x="58.106" y="276.587129" style="stroke: #000000; stroke-width: 0.8"/>
      </g>
     </g>
     <g id="text_35">
      <!-- 0.0 -->
      <g transform="translate(35.202875 280.386348)scale(0.1 -0.1)">
       <use xlink:href="#DejaVuSans-30"/>
       <use xlink:href="#DejaVuSans-2e" x="63.623047"/>
       <use xlink:href="#DejaVuSans-30" x="95.410156"/>
      </g>
     </g>
    </g>
    <g id="ytick_8">
     <g id="line2d_59">
      <path d="M 58.106 261.445769 
L 450 261.445769 
" clip-path="url(#p436f1b35e3)" style="fill: none; stroke: #b0b0b0; stroke-width: 0.8; stroke-linecap: square"/>
     </g>
     <g id="line2d_60">
      <g>
       <use xlink:href="#m214848b5f9" x="58.106" y="261.445769" style="stroke: #000000; stroke-width: 0.8"/>
      </g>
     </g>
     <g id="text_36">
      <!-- 0.1 -->
      <g transform="translate(35.202875 265.244988)scale(0.1 -0.1)">
       <use xlink:href="#DejaVuSans-30"/>
       <use xlink:href="#DejaVuSans-2e" x="63.623047"/>
       <use xlink:href="#DejaVuSans-31" x="95.410156"/>
      </g>
     </g>
    </g>
    <g id="text_37">
     <!-- $e_\theta$ [rad] -->
     <g transform="translate(20.7435 295.90875)rotate(-90)scale(0.1 -0.1)">
      <defs>
       <path id="DejaVuSans-Oblique-3b8" d="M 2913 2219 
L 925 2219 
Q 791 1284 928 888 
Q 1100 400 1566 400 
Q 2034 400 2391 891 
Q 2703 1322 2913 2219 
z
M 3009 2750 
Q 3094 3638 2984 3950 
Q 2813 4444 2353 4444 
Q 1875 4444 1525 3956 
Q 1250 3563 1034 2750 
L 3009 2750 
z
M 2444 4913 
Q 3194 4913 3494 4250 
Q 3794 3591 3566 2422 
Q 3341 1256 2781 594 
Q 2225 -72 1475 -72 
Q 722 -72 425 594 
Q 128 1256 353 2422 
Q 581 3591 1134 4250 
Q 1691 4913 2444 4913 
z
" transform="scale(0.015625)"/>
       <path id="DejaVuSans-61" d="M 2194 1759 
Q 1497 1759 1228 1600 
Q 959 1441 959 1056 
Q 959 750 1161 570 
Q 1363 391 1709 391 
Q 2188 391 2477 730 
Q 2766 1069 2766 1631 
L 2766 1759 
L 2194 1759 
z
M 3341 1997 
L 3341 0 
L 2766 0 
L 2766 531 
Q 2569 213 2275 61 
Q 1981 -91 1556 -91 
Q 1019 -91 701 211 
Q 384 513 384 1019 
Q 384 1609 779 1909 
Q 1175 2209 1959 2209 
L 2766 2209 
L 2766 2266 
Q 2766 2663 2505 2880 
Q 2244 3097 1772 3097 
Q 1472 3097 1187 3025 
Q 903 2953 641 2809 
L 641 3341 
Q 956 3463 1253 3523 
Q 1550 3584 1831 3584 
Q 2591 3584 2966 3190 
Q 3341 2797 3341 1997 
z
" transform="scale(0.015625)"/>
       <path id="DejaVuSans-64" d="M 2906 2969 
L 2906 4863 
L 3481 4863 
L 3481 0 
L 2906 0 
L 2906 525 
Q 2725 213 2448 61 
Q 2172 -91 1784 -91 
Q 1150 -91 751 415 
Q 353 922 353 1747 
Q 353 2572 751 3078 
Q 1150 3584 1784 3584 
Q 2172 3584 2448 3432 
Q 2725 3281 2906 2969 
z
M 947 1747 
Q 947 1113 1208 752 
Q 1469 391 1925 391 
Q 2381 391 2643 752 
Q 2906 1113 2906 1747 
Q 2906 2381 2643 2742 
Q 2381 3103 1925 3103 
Q 1469 3103 1208 2742 
Q 947 2381 947 1747 
z
" transform="scale(0.015625)"/>
      </defs>
      <use xlink:href="#DejaVuSans-Oblique-65" transform="translate(0 0.015625)"/>
      <use xlink:href="#DejaVuSans-Oblique-3b8" transform="translate(61.523438 -16.390625)scale(0.7)"/>
      <use xlink:href="#DejaVuSans-20" transform="translate(107.084961 0.015625)"/>
      <use xlink:href="#DejaVuSans-5b" transform="translate(138.87207 0.015625)"/>
      <use xlink:href="#DejaVuSans-72" transform="translate(177.885742 0.015625)"/>
      <use xlink:href="#DejaVuSans-61" transform="translate(218.999023 0.015625)"/>
      <use xlink:href="#DejaVuSans-64" transform="translate(280.27832 0.015625)"/>
      <use xlink:href="#DejaVuSans-5d" transform="translate(343.754883 0.015625)"/>
     </g>
    </g>
   </g>
   <g id="line2d_61">
    <path d="M 75.919364 276.490916 
L 76.220011 276.250733 
L 76.520659 275.354708 
L 76.821306 272.934908 
L 77.121954 272.934908 
L 77.422601 269.507419 
L 77.723249 267.628434 
L 78.625191 260.322538 
L 78.925839 260.322538 
L 79.226486 258.409055 
L 79.527133 257.712092 
L 79.827781 257.726306 
L 80.128428 257.898474 
L 80.429076 258.487925 
L 80.729723 259.372807 
L 81.030371 262.619327 
L 81.331018 262.619327 
L 81.631666 265.818472 
L 82.533608 270.886483 
L 82.834256 274.976829 
L 83.134903 274.976829 
L 83.435551 278.180748 
L 84.337493 282.867149 
L 84.638141 286.536343 
L 84.938788 286.536343 
L 85.239436 288.979911 
L 85.840731 290.635602 
L 86.141378 291.151432 
L 86.442026 291.909862 
L 86.742673 291.909862 
L 87.043321 292.062159 
L 87.343968 291.959564 
L 87.644616 291.708576 
L 87.945263 291.260967 
L 88.245911 290.128897 
L 88.847206 286.093547 
L 89.749148 280.561237 
L 90.049796 275.820125 
L 90.350443 275.820125 
L 90.651091 272.343194 
L 92.154328 264.287205 
L 92.755623 263.253313 
L 93.356918 262.862632 
L 93.657565 262.879711 
L 93.958213 263.160502 
L 94.559508 264.40604 
L 95.160803 265.61466 
L 95.46145 267.033684 
L 95.762098 267.033684 
L 96.062745 269.36348 
L 96.363393 269.765458 
L 96.964688 271.368555 
L 97.265335 272.961815 
L 97.565983 273.757369 
L 98.167278 276.242565 
L 98.467925 276.687261 
L 98.768573 277.60254 
L 99.06922 279.519543 
L 99.369868 280.526287 
L 99.971163 283.665851 
L 100.27181 284.191642 
L 100.572458 285.228292 
L 100.873105 287.150882 
L 101.775048 289.441785 
L 102.376343 289.478847 
L 103.278285 287.24789 
L 103.578932 285.758733 
L 103.87958 283.469943 
L 104.180227 283.469943 
L 104.480875 281.056819 
L 105.984112 274.755577 
L 106.28476 274.414498 
L 106.585407 274.304482 
L 106.886055 274.4243 
L 107.186702 274.751343 
L 107.48735 275.247325 
L 107.787997 276.216372 
L 108.088645 277.706444 
L 109.291235 280.868141 
L 109.591882 280.868141 
L 109.89253 281.960473 
L 110.493825 282.307064 
L 111.09512 282.582569 
L 111.395767 282.627782 
L 111.997062 282.16355 
L 112.598357 281.315035 
L 112.899005 279.963803 
L 113.199652 279.963803 
L 113.5003 276.910942 
L 113.800947 276.288944 
L 114.402242 273.550544 
L 114.70289 270.598276 
L 115.003537 269.08804 
L 115.604832 264.709956 
L 115.905479 264.014054 
L 116.807422 259.667774 
L 117.108069 257.764858 
L 117.709364 256.446278 
L 118.310659 255.582743 
L 118.611307 255.448919 
L 119.212602 255.756291 
L 119.813897 256.487407 
L 120.114544 257.298809 
L 120.415192 258.607812 
L 121.918429 262.381818 
L 122.219077 263.503781 
L 123.722314 266.088311 
L 124.022962 266.902188 
L 125.526199 269.01143 
L 125.826847 269.786079 
L 127.330084 271.936353 
L 127.630731 272.42898 
L 128.232026 272.654373 
L 129.133969 272.670957 
L 129.735264 272.719053 
L 130.336559 273.01346 
L 130.637206 273.254206 
L 130.937854 273.925526 
L 131.238501 273.925526 
L 131.539149 275.377996 
L 131.839796 275.671794 
L 132.441091 276.940179 
L 132.741739 278.300772 
L 133.042386 278.300772 
L 133.343034 280.333976 
L 133.643681 280.661358 
L 134.244976 281.920482 
L 134.545624 282.951108 
L 135.447566 284.242181 
L 136.650156 284.593598 
L 137.251451 284.382883 
L 137.552099 284.083637 
L 137.852746 284.083637 
L 138.454041 283.295063 
L 138.754689 282.898794 
L 139.055336 282.160727 
L 139.355984 280.883086 
L 139.656631 280.883086 
L 139.957278 279.250345 
L 140.558573 277.30643 
L 141.460516 272.808707 
L 143.264401 267.71025 
L 144.466991 266.150445 
L 144.767638 265.518903 
L 145.068286 264.538421 
L 145.970228 262.693824 
L 146.270876 261.98641 
L 147.473466 257.873741 
L 148.074761 256.442979 
L 148.375408 255.022307 
L 148.676056 255.022307 
L 148.976703 254.293921 
L 149.577998 253.895106 
L 149.878646 253.814432 
L 150.479941 253.933412 
L 150.780588 254.616394 
L 151.081236 254.758559 
L 151.68253 255.3435 
L 151.983178 255.901606 
L 153.787063 257.318131 
L 154.689005 257.703535 
L 154.989653 257.89727 
L 155.2903 257.89727 
L 156.49289 259.541519 
L 156.793538 260.198751 
L 157.094185 260.198751 
L 157.394833 261.197406 
L 157.69548 261.732489 
L 158.597423 264.170723 
L 158.89807 264.170723 
L 159.198718 265.192534 
L 160.10066 266.730793 
L 160.401308 267.402663 
L 160.701955 267.402663 
L 161.002603 267.949963 
L 161.904545 268.740919 
L 162.205193 269.101215 
L 163.407783 269.680772 
L 164.009077 269.785889 
L 165.512315 269.327119 
L 165.812962 269.321648 
L 166.714905 270.272694 
L 167.3162 271.420239 
L 167.616847 272.187417 
L 167.917495 273.59552 
L 168.218142 275.932915 
L 169.420732 281.59556 
L 170.022027 285.971387 
L 170.623322 287.35931 
L 170.92397 287.659785 
L 171.224617 287.452687 
L 171.525265 287.452687 
L 171.825912 285.200417 
L 172.12656 284.655089 
L 173.028502 280.913105 
L 173.930445 275.789086 
L 174.53174 274.392791 
L 174.832387 273.838476 
L 175.133035 273.838476 
L 175.433682 274.96897 
L 175.734329 275.370417 
L 176.335624 277.450077 
L 176.636272 278.711775 
L 177.538214 284.153693 
L 178.139509 285.321271 
L 178.440157 285.432901 
L 179.342099 282.366069 
L 179.943394 279.403587 
L 180.244042 276.870165 
L 180.544689 273.373959 
L 181.747279 266.965867 
L 182.649222 263.510286 
L 182.949869 263.61567 
L 183.250517 264.017698 
L 183.851812 265.60098 
L 184.152459 267.268071 
L 184.453107 269.851851 
L 185.655697 274.759056 
L 185.956344 275.931154 
L 186.256992 276.319422 
L 186.557639 275.991991 
L 186.858287 275.334198 
L 187.158934 274.380739 
L 187.459582 272.503538 
L 187.760229 269.411781 
L 188.962819 262.574033 
L 189.564114 257.4468 
L 190.165409 255.47218 
L 190.466056 254.862592 
L 190.766704 254.548887 
L 191.067351 255.211251 
L 191.367999 255.211251 
L 191.969294 258.502901 
L 192.871236 263.39516 
L 193.773179 271.01115 
L 194.675121 275.834413 
L 194.975769 275.834413 
L 195.276416 275.99206 
L 195.577064 275.549996 
L 196.178359 273.81359 
L 196.479006 272.608456 
L 196.779654 270.513879 
L 197.080301 267.530485 
L 197.982244 263.269764 
L 198.282891 260.998781 
L 198.583539 260.998781 
L 198.884186 259.561848 
L 199.184834 259.605719 
L 199.485481 259.940437 
L 199.786129 260.592667 
L 200.086776 261.543198 
L 200.387423 263.461966 
L 200.688071 266.649336 
L 201.590013 272.045083 
L 201.890661 276.216402 
L 202.191308 276.216402 
L 202.491956 278.679192 
L 203.093251 280.083612 
L 203.393898 280.375633 
L 203.694546 280.021067 
L 203.995193 280.021067 
L 204.295841 277.658505 
L 204.596488 277.134282 
L 205.197783 274.899221 
L 205.799078 271.2315 
L 206.099726 270.007961 
L 206.400373 269.661213 
L 207.001668 268.64065 
L 207.302316 268.420342 
L 207.602963 268.524175 
L 209.106201 273.592192 
L 210.008143 279.191176 
L 210.910086 282.333598 
L 211.210733 282.974781 
L 211.511381 282.893822 
L 211.812028 282.557792 
L 212.112675 281.998323 
L 212.413323 280.788277 
L 212.71397 278.586395 
L 213.91656 273.031815 
L 214.517855 268.217939 
L 214.818503 268.217939 
L 215.11915 266.168243 
L 215.720445 265.022118 
L 216.32174 265.541151 
L 216.622388 266.259269 
L 216.923035 268.41699 
L 217.223683 268.41699 
L 217.52433 272.587618 
L 217.824978 273.318206 
L 218.72692 278.078766 
L 219.027568 278.078766 
L 219.328215 279.054751 
L 219.628863 278.972556 
L 219.92951 278.612193 
L 220.230158 277.998582 
L 220.530805 276.08776 
L 220.831453 276.08776 
L 221.1321 271.935551 
L 221.432748 271.153745 
L 222.034043 267.941898 
L 222.33469 264.796993 
L 222.635338 264.796993 
L 222.935985 261.167928 
L 223.837928 259.992153 
L 224.138575 260.596082 
L 224.439222 260.596082 
L 224.73987 263.74015 
L 225.040517 264.450712 
L 225.94246 269.126568 
L 226.543755 274.077515 
L 227.14505 275.850862 
L 227.445697 276.353761 
L 227.746345 276.533528 
L 228.046992 276.533528 
L 228.34764 274.824846 
L 228.648287 274.348178 
L 229.55023 270.711798 
L 229.850877 268.575809 
L 230.151525 265.634208 
L 231.053467 261.49311 
L 231.654762 259.287543 
L 231.95541 259.126433 
L 232.256057 259.621706 
L 232.556705 260.466632 
L 232.857352 262.269883 
L 233.158 265.433435 
L 233.458647 265.433435 
L 233.759295 269.036909 
L 234.661237 275.131532 
L 234.961885 277.457941 
L 235.262532 277.457941 
L 235.56318 278.73019 
L 235.863827 278.998683 
L 236.164474 279.04875 
L 236.465122 278.69746 
L 236.765769 277.448994 
L 237.066417 277.448994 
L 237.367064 275.416163 
L 238.269007 271.402384 
L 239.170949 265.417233 
L 239.772244 263.883734 
L 240.072892 263.602019 
L 240.373539 263.678525 
L 240.674187 264.459779 
L 241.275482 267.920066 
L 241.876777 271.058044 
L 242.177424 274.340625 
L 242.478072 274.340625 
L 242.778719 278.634167 
L 243.079367 279.210932 
L 243.680662 280.990404 
L 243.981309 281.569211 
L 244.281957 281.351833 
L 244.582604 280.437017 
L 245.183899 277.027936 
L 245.484547 277.027936 
L 245.785194 274.08603 
L 246.085842 272.543264 
L 246.987784 266.546447 
L 247.288432 266.546447 
L 247.589079 265.15569 
L 247.889727 264.904069 
L 248.190374 265.147776 
L 248.491021 266.110587 
L 248.791669 266.578468 
L 249.092316 267.704951 
L 249.392964 270.506864 
L 249.693611 272.097199 
L 250.595554 279.387553 
L 250.896201 279.387553 
L 251.196849 281.823212 
L 251.497496 282.613415 
L 251.798144 283.058017 
L 252.098791 283.0129 
L 253.602029 275.907691 
L 253.902676 274.142286 
L 254.804619 266.191935 
L 255.706561 261.972816 
L 256.007209 260.785263 
L 256.307856 260.501541 
L 256.608504 260.923857 
L 256.909151 261.690448 
L 257.510446 264.12333 
L 257.811094 268.310102 
L 258.111741 268.310102 
L 258.412389 272.149973 
L 259.314331 277.95047 
L 259.614979 281.077548 
L 259.915626 281.077548 
L 260.216273 283.542039 
L 260.516921 283.636799 
L 260.817568 283.549134 
L 261.118216 283.100476 
L 261.418863 281.198659 
L 261.719511 281.198659 
L 262.020158 276.509545 
L 262.320806 275.593743 
L 262.922101 271.741379 
L 263.222748 267.841869 
L 263.523396 267.841869 
L 263.824043 262.433284 
L 264.124691 261.627067 
L 265.026633 257.449943 
L 265.327281 257.390173 
L 265.627928 258.228078 
L 265.928576 258.691531 
L 266.529871 261.315812 
L 266.830518 265.846202 
L 267.131166 265.846202 
L 267.431813 269.95845 
L 268.333756 276.192838 
L 268.634403 279.856921 
L 269.235698 283.737427 
L 270.137641 284.848954 
L 270.438288 283.708151 
L 270.738936 283.708151 
L 271.340231 279.870367 
L 271.941526 276.385866 
L 273.144115 265.881524 
L 273.74541 261.703562 
L 274.046058 259.319056 
L 274.346705 259.319056 
L 274.647353 258.309342 
L 274.948 258.375601 
L 275.248648 258.826251 
L 275.549295 260.169786 
L 275.849943 263.004461 
L 276.751885 268.587453 
L 277.35318 272.643886 
L 278.255123 280.866995 
L 279.157065 284.940524 
L 279.457713 285.646183 
L 279.75836 285.45474 
L 280.059008 284.905324 
L 280.660303 282.884682 
L 281.261598 279.95073 
L 281.562245 277.374241 
L 281.862893 273.715758 
L 283.36613 263.934441 
L 283.666778 261.376441 
L 284.268072 259.960633 
L 284.56872 259.714398 
L 284.869367 259.785013 
L 285.170015 260.485257 
L 285.77131 263.838368 
L 286.372605 267.134586 
L 286.673252 270.833336 
L 286.9739 270.833336 
L 287.274547 276.417282 
L 287.575195 277.282914 
L 288.477137 281.685594 
L 288.777785 283.039546 
L 289.078432 283.826144 
L 289.37908 283.795544 
L 289.679727 283.481595 
L 289.980375 282.899931 
L 290.281022 281.01326 
L 290.58167 281.01326 
L 290.882317 276.806303 
L 291.182965 276.003928 
L 292.084907 270.940088 
L 292.686202 265.588982 
L 293.287497 263.532241 
L 293.888792 262.337122 
L 294.18944 262.337122 
L 294.490087 263.766246 
L 294.790735 264.25915 
L 295.39203 266.813727 
L 296.293972 275.477544 
L 296.594619 276.371668 
L 297.195914 279.688915 
L 297.496562 282.289824 
L 297.797209 282.289824 
L 298.097857 284.16765 
L 298.398504 284.245351 
L 298.699152 284.195712 
L 298.999799 283.862329 
L 299.300447 282.35766 
L 299.601094 282.35766 
L 299.901742 278.344884 
L 300.202389 277.531132 
L 300.803684 274.093405 
L 301.404979 268.038771 
L 301.705627 265.826081 
L 302.006274 265.171557 
L 302.607569 263.152627 
L 302.908217 262.403228 
L 303.208864 262.562711 
L 303.509512 263.432922 
L 303.810159 264.955689 
L 304.110807 265.580997 
L 304.411454 266.968481 
L 304.712102 270.182955 
L 305.012749 271.923539 
L 305.614044 277.181034 
L 305.914692 278.030686 
L 306.215339 279.623542 
L 306.515987 282.230416 
L 307.117282 283.776065 
L 307.417929 284.076559 
L 307.718577 283.384185 
L 308.019224 283.384185 
L 308.620519 280.23121 
L 309.221814 277.142498 
L 310.424404 267.508593 
L 311.626994 261.178881 
L 311.927641 260.970543 
L 312.228289 261.106503 
L 312.528936 261.579459 
L 312.829584 262.869868 
L 313.130231 265.500231 
L 313.430879 265.500231 
L 313.731526 268.807547 
L 314.332821 272.473904 
L 315.234764 280.246555 
L 315.836059 282.871467 
L 316.437354 284.628566 
L 316.738001 284.375058 
L 317.038649 283.70902 
L 317.639944 281.493354 
L 318.241239 278.474117 
L 318.541886 275.933377 
L 318.842534 272.400688 
L 320.646418 261.709564 
L 320.947066 261.151742 
L 321.247713 260.899565 
L 321.548361 260.950736 
L 321.849008 261.312378 
L 322.149656 262.421997 
L 322.450303 264.835019 
L 323.352246 269.74342 
L 323.953541 276.095213 
L 324.254188 276.095213 
L 324.554836 279.556314 
L 325.757426 285.690006 
L 326.058073 285.690006 
L 326.358721 285.572855 
L 326.659368 285.012759 
L 326.960016 284.15552 
L 327.260663 282.402883 
L 327.561311 279.424991 
L 327.861958 279.424991 
L 328.162606 276.007205 
L 328.763901 272.478635 
L 329.365196 266.899181 
L 329.665843 266.899181 
L 329.966491 264.570077 
L 330.567786 263.235888 
L 330.868433 263.035876 
L 331.169081 263.390254 
L 331.770376 266.218281 
L 332.371671 269.146173 
L 332.672318 271.617387 
L 332.972965 275.018772 
L 334.77685 285.74396 
L 335.077498 285.74396 
L 335.378145 286.48245 
L 335.678793 286.354695 
L 335.97944 285.898419 
L 336.280088 285.12468 
L 336.580735 283.435845 
L 336.881383 280.414005 
L 338.083973 273.121524 
L 338.985915 265.533964 
L 339.887858 262.072289 
L 340.188505 261.843489 
L 340.489153 261.843489 
L 341.391095 265.163178 
L 341.691743 267.306826 
L 341.99239 270.553593 
L 342.293038 270.553593 
L 342.593685 273.881696 
L 343.495628 279.152408 
L 343.796275 281.437897 
L 344.096923 281.437897 
L 344.39757 282.994767 
L 344.698217 283.465533 
L 344.998865 283.70787 
L 345.299512 283.687106 
L 345.60016 283.133493 
L 346.201455 280.401719 
L 347.404045 275.033564 
L 348.00534 270.869673 
L 348.606635 269.213648 
L 349.508577 267.418445 
L 349.809225 267.408272 
L 350.109872 267.536435 
L 350.711167 268.158454 
L 351.011815 268.892663 
L 351.312462 270.135221 
L 352.515052 272.964513 
L 353.416995 275.773633 
L 354.619585 277.551396 
L 354.920232 277.92086 
L 355.521527 278.066776 
L 356.122822 278.035002 
L 356.42347 277.956893 
L 356.724117 277.763213 
L 357.325412 277.141433 
L 358.227354 276.177442 
L 358.528002 275.52871 
L 358.828649 274.551867 
L 360.331887 271.823866 
L 360.632534 270.841969 
L 361.233829 269.807065 
L 361.835124 267.869293 
L 362.135772 267.869293 
L 362.436419 266.759778 
L 363.338362 265.369628 
L 363.639009 264.981528 
L 363.939657 264.963531 
L 364.240304 265.212678 
L 364.841599 266.261648 
L 365.142247 267.501161 
L 365.442894 269.614272 
L 366.645484 274.56974 
L 367.246779 278.458657 
L 367.848074 279.909918 
L 368.148722 280.321457 
L 368.449369 280.490576 
L 368.750016 280.396633 
L 369.050664 279.758854 
L 369.651959 277.013137 
L 370.553901 273.391412 
L 370.854549 270.762806 
L 371.155196 270.762806 
L 371.455844 269.267327 
L 372.057139 268.289143 
L 372.658434 267.770135 
L 373.259729 268.313005 
L 373.861024 269.291892 
L 374.161671 269.942333 
L 374.462319 271.099005 
L 374.762966 272.947111 
L 376.266204 278.463453 
L 376.867499 281.618078 
L 377.468794 282.513756 
L 378.070089 282.785877 
L 378.370736 282.661869 
L 379.573326 280.438782 
L 380.174621 278.487683 
L 380.475269 277.859938 
L 380.775916 277.675154 
L 381.076563 277.013812 
L 381.377211 277.013812 
L 381.677858 276.495259 
L 382.279153 276.261077 
L 383.181096 276.931046 
L 383.481743 277.929833 
L 383.782391 278.517365 
L 384.383686 280.206326 
L 384.684333 280.441608 
L 385.285628 281.176419 
L 385.586276 281.064484 
L 385.886923 280.738706 
L 386.187571 279.886004 
L 386.488218 278.243069 
L 386.788866 278.243069 
L 387.089513 276.295935 
L 388.292103 272.697985 
L 388.592751 272.183325 
L 388.893398 272.229718 
L 389.194046 272.46319 
L 389.795341 273.393521 
L 390.095988 274.384602 
L 390.396636 275.914336 
L 391.899873 279.64389 
L 392.200521 280.100856 
L 392.501168 280.035274 
L 392.801815 279.764097 
L 393.102463 279.301599 
L 393.40311 278.29532 
L 393.703758 276.53104 
L 394.004405 276.53104 
L 394.305053 274.623638 
L 395.206995 272.20675 
L 395.507643 271.498487 
L 395.80829 271.240508 
L 396.108938 271.387693 
L 396.710233 272.098256 
L 397.01088 272.606317 
L 397.311528 273.486712 
L 397.612175 274.725609 
L 398.514118 276.325267 
L 399.41606 277.699868 
L 400.017355 277.853928 
L 400.61865 277.75178 
L 400.919298 277.452003 
L 401.520593 276.23358 
L 402.723183 274.129854 
L 403.02383 274.129854 
L 403.324478 273.88159 
L 403.925773 273.962753 
L 404.22642 274.052839 
L 405.128362 274.617454 
L 405.42901 274.808205 
L 406.030305 274.970571 
L 406.6316 275.142651 
L 406.932247 275.223441 
L 407.83419 275.890113 
L 408.134837 276.87706 
L 408.435485 276.87706 
L 408.736132 278.426405 
L 409.337427 278.952069 
L 409.938722 279.275626 
L 410.23937 279.275626 
L 410.540017 278.537279 
L 410.840665 278.314411 
L 411.44196 277.182367 
L 411.742607 275.774833 
L 412.043255 275.774833 
L 412.343902 273.591559 
L 412.64455 273.271137 
L 413.546492 271.70075 
L 414.147787 271.771516 
L 414.448435 271.864547 
L 415.04973 272.532631 
L 416.25232 277.25349 
L 416.552967 277.672299 
L 417.454909 279.66732 
L 417.755557 279.649334 
L 418.056204 279.263055 
L 418.356852 279.069784 
L 418.657499 278.615492 
L 418.958147 277.587482 
L 419.559442 276.743356 
L 419.860089 276.445938 
L 420.160737 276.585139 
L 420.461384 276.585139 
L 421.062679 277.787206 
L 421.964622 279.075701 
L 422.866564 278.971802 
L 423.167212 279.056967 
L 423.467859 279.445982 
L 423.768507 280.551163 
L 424.069154 280.551163 
L 424.369802 282.224498 
L 424.971097 284.150571 
L 425.572392 286.869831 
L 425.873039 286.869831 
L 426.173687 287.634061 
L 426.774982 287.855397 
L 427.075629 287.767021 
L 427.376277 287.55182 
L 427.977572 287.64693 
L 428.278219 287.922805 
L 428.879514 288.984213 
L 429.180161 290.176819 
L 429.480809 292.102962 
L 430.683399 296.494458 
L 430.984046 298.066373 
L 431.284694 298.066373 
L 431.585341 299.202479 
L 431.885989 299.543487 
L 432.186636 299.703068 
L 432.186636 299.703068 
" clip-path="url(#p436f1b35e3)" style="fill: none; stroke: #008000; stroke-width: 1.5; stroke-linecap: square"/>
   </g>
   <g id="patch_13">
    <path d="M 58.106 301.9975 
L 58.106 251.52 
" style="fill: none; stroke: #000000; stroke-width: 0.8; stroke-linejoin: miter; stroke-linecap: square"/>
   </g>
   <g id="patch_14">
    <path d="M 450 301.9975 
L 450 251.52 
" style="fill: none; stroke: #000000; stroke-width: 0.8; stroke-linejoin: miter; stroke-linecap: square"/>
   </g>
   <g id="patch_15">
    <path d="M 58.106 301.9975 
L 450 301.9975 
" style="fill: none; stroke: #000000; stroke-width: 0.8; stroke-linejoin: miter; stroke-linecap: square"/>
   </g>
   <g id="patch_16">
    <path d="M 58.106 251.52 
L 450 251.52 
" style="fill: none; stroke: #000000; stroke-width: 0.8; stroke-linejoin: miter; stroke-linecap: square"/>
   </g>
   <g id="text_38">
    <!-- Error in swing angle -->
    <g transform="translate(194.282688 245.52)scale(0.12 -0.12)">
     <defs>
      <path id="DejaVuSans-77" d="M 269 3500 
L 844 3500 
L 1563 769 
L 2278 3500 
L 2956 3500 
L 3675 769 
L 4391 3500 
L 4966 3500 
L 4050 0 
L 3372 0 
L 2619 2869 
L 1863 0 
L 1184 0 
L 269 3500 
z
" transform="scale(0.015625)"/>
      <path id="DejaVuSans-67" d="M 2906 1791 
Q 2906 2416 2648 2759 
Q 2391 3103 1925 3103 
Q 1463 3103 1205 2759 
Q 947 2416 947 1791 
Q 947 1169 1205 825 
Q 1463 481 1925 481 
Q 2391 481 2648 825 
Q 2906 1169 2906 1791 
z
M 3481 434 
Q 3481 -459 3084 -895 
Q 2688 -1331 1869 -1331 
Q 1566 -1331 1297 -1286 
Q 1028 -1241 775 -1147 
L 775 -588 
Q 1028 -725 1275 -790 
Q 1522 -856 1778 -856 
Q 2344 -856 2625 -561 
Q 2906 -266 2906 331 
L 2906 616 
Q 2728 306 2450 153 
Q 2172 0 1784 0 
Q 1141 0 747 490 
Q 353 981 353 1791 
Q 353 2603 747 3093 
Q 1141 3584 1784 3584 
Q 2172 3584 2450 3431 
Q 2728 3278 2906 2969 
L 2906 3500 
L 3481 3500 
L 3481 434 
z
" transform="scale(0.015625)"/>
      <path id="DejaVuSans-6c" d="M 603 4863 
L 1178 4863 
L 1178 0 
L 603 0 
L 603 4863 
z
" transform="scale(0.015625)"/>
      <path id="DejaVuSans-65" d="M 3597 1894 
L 3597 1613 
L 953 1613 
Q 991 1019 1311 708 
Q 1631 397 2203 397 
Q 2534 397 2845 478 
Q 3156 559 3463 722 
L 3463 178 
Q 3153 47 2828 -22 
Q 2503 -91 2169 -91 
Q 1331 -91 842 396 
Q 353 884 353 1716 
Q 353 2575 817 3079 
Q 1281 3584 2069 3584 
Q 2775 3584 3186 3129 
Q 3597 2675 3597 1894 
z
M 3022 2063 
Q 3016 2534 2758 2815 
Q 2500 3097 2075 3097 
Q 1594 3097 1305 2825 
Q 1016 2553 972 2059 
L 3022 2063 
z
" transform="scale(0.015625)"/>
     </defs>
     <use xlink:href="#DejaVuSans-45"/>
     <use xlink:href="#DejaVuSans-72" x="63.183594"/>
     <use xlink:href="#DejaVuSans-72" x="102.546875"/>
     <use xlink:href="#DejaVuSans-6f" x="141.410156"/>
     <use xlink:href="#DejaVuSans-72" x="202.591797"/>
     <use xlink:href="#DejaVuSans-20" x="243.705078"/>
     <use xlink:href="#DejaVuSans-69" x="275.492188"/>
     <use xlink:href="#DejaVuSans-6e" x="303.275391"/>
     <use xlink:href="#DejaVuSans-20" x="366.654297"/>
     <use xlink:href="#DejaVuSans-73" x="398.441406"/>
     <use xlink:href="#DejaVuSans-77" x="450.541016"/>
     <use xlink:href="#DejaVuSans-69" x="532.328125"/>
     <use xlink:href="#DejaVuSans-6e" x="560.111328"/>
     <use xlink:href="#DejaVuSans-67" x="623.490234"/>
     <use xlink:href="#DejaVuSans-20" x="686.966797"/>
     <use xlink:href="#DejaVuSans-61" x="718.753906"/>
     <use xlink:href="#DejaVuSans-6e" x="780.033203"/>
     <use xlink:href="#DejaVuSans-67" x="843.412109"/>
     <use xlink:href="#DejaVuSans-6c" x="906.888672"/>
     <use xlink:href="#DejaVuSans-65" x="934.671875"/>
    </g>
   </g>
  </g>
 </g>
 <defs>
  <clipPath id="pdf0ed65a23">
   <rect x="58.106" y="28.32" width="391.894" height="50.4775"/>
  </clipPath>
  <clipPath id="p7d2901912a">
   <rect x="58.106" y="139.92" width="391.894" height="50.4775"/>
  </clipPath>
  <clipPath id="p436f1b35e3">
   <rect x="58.106" y="251.52" width="391.894" height="50.4775"/>
  </clipPath>
 </defs>
</svg>
