<?xml version="1.0" encoding="utf-8" standalone="no"?>
<!DOCTYPE svg PUBLIC "-//W3C//DTD SVG 1.1//EN"
  "http://www.w3.org/Graphics/SVG/1.1/DTD/svg11.dtd">
<svg xmlns:xlink="http://www.w3.org/1999/xlink" width="460.8pt" height="345.6pt" viewBox="0 0 460.8 345.6" xmlns="http://www.w3.org/2000/svg" version="1.1">
 <metadata>
  <rdf:RDF xmlns:dc="http://purl.org/dc/elements/1.1/" xmlns:cc="http://creativecommons.org/ns#" xmlns:rdf="http://www.w3.org/1999/02/22-rdf-syntax-ns#">
   <cc:Work>
    <dc:type rdf:resource="http://purl.org/dc/dcmitype/StillImage"/>
    <dc:date>2022-06-05T18:05:09.593142</dc:date>
    <dc:format>image/svg+xml</dc:format>
    <dc:creator>
     <cc:Agent>
      <dc:title>Matplotlib v3.5.1, https://matplotlib.org/</dc:title>
     </cc:Agent>
    </dc:creator>
   </cc:Work>
  </rdf:RDF>
 </metadata>
 <defs>
  <style type="text/css">*{stroke-linejoin: round; stroke-linecap: butt}</style>
 </defs>
 <g id="figure_1">
  <g id="patch_1">
   <path d="M 0 345.6 
L 460.8 345.6 
L 460.8 0 
L 0 0 
z
" style="fill: #ffffff"/>
  </g>
  <g id="axes_1">
   <g id="patch_2">
    <path d="M 70.616 78.7975 
L 450 78.7975 
L 450 28.32 
L 70.616 28.32 
z
" style="fill: #ffffff"/>
   </g>
   <g id="matplotlib.axis_1">
    <g id="xtick_1">
     <g id="line2d_1">
      <path d="M 87.860727 78.7975 
L 87.860727 28.32 
" clip-path="url(#p0ee013ace6)" style="fill: none; stroke: #b0b0b0; stroke-width: 0.8; stroke-linecap: square"/>
     </g>
     <g id="line2d_2">
      <defs>
       <path id="mf0c0be186c" d="M 0 0 
L 0 3.5 
" style="stroke: #000000; stroke-width: 0.8"/>
      </defs>
      <g>
       <use xlink:href="#mf0c0be186c" x="87.860727" y="78.7975" style="stroke: #000000; stroke-width: 0.8"/>
      </g>
     </g>
     <g id="text_1">
      <!-- 0 -->
      <g transform="translate(84.679477 93.395937)scale(0.1 -0.1)">
       <defs>
        <path id="DejaVuSans-30" d="M 2034 4250 
Q 1547 4250 1301 3770 
Q 1056 3291 1056 2328 
Q 1056 1369 1301 889 
Q 1547 409 2034 409 
Q 2525 409 2770 889 
Q 3016 1369 3016 2328 
Q 3016 3291 2770 3770 
Q 2525 4250 2034 4250 
z
M 2034 4750 
Q 2819 4750 3233 4129 
Q 3647 3509 3647 2328 
Q 3647 1150 3233 529 
Q 2819 -91 2034 -91 
Q 1250 -91 836 529 
Q 422 1150 422 2328 
Q 422 3509 836 4129 
Q 1250 4750 2034 4750 
z
" transform="scale(0.015625)"/>
       </defs>
       <use xlink:href="#DejaVuSans-30"/>
      </g>
     </g>
    </g>
    <g id="xtick_2">
     <g id="line2d_3">
      <path d="M 136.097727 78.7975 
L 136.097727 28.32 
" clip-path="url(#p0ee013ace6)" style="fill: none; stroke: #b0b0b0; stroke-width: 0.8; stroke-linecap: square"/>
     </g>
     <g id="line2d_4">
      <g>
       <use xlink:href="#mf0c0be186c" x="136.097727" y="78.7975" style="stroke: #000000; stroke-width: 0.8"/>
      </g>
     </g>
     <g id="text_2">
      <!-- 1 -->
      <g transform="translate(132.916477 93.395937)scale(0.1 -0.1)">
       <defs>
        <path id="DejaVuSans-31" d="M 794 531 
L 1825 531 
L 1825 4091 
L 703 3866 
L 703 4441 
L 1819 4666 
L 2450 4666 
L 2450 531 
L 3481 531 
L 3481 0 
L 794 0 
L 794 531 
z
" transform="scale(0.015625)"/>
       </defs>
       <use xlink:href="#DejaVuSans-31"/>
      </g>
     </g>
    </g>
    <g id="xtick_3">
     <g id="line2d_5">
      <path d="M 184.334726 78.7975 
L 184.334726 28.32 
" clip-path="url(#p0ee013ace6)" style="fill: none; stroke: #b0b0b0; stroke-width: 0.8; stroke-linecap: square"/>
     </g>
     <g id="line2d_6">
      <g>
       <use xlink:href="#mf0c0be186c" x="184.334726" y="78.7975" style="stroke: #000000; stroke-width: 0.8"/>
      </g>
     </g>
     <g id="text_3">
      <!-- 2 -->
      <g transform="translate(181.153476 93.395937)scale(0.1 -0.1)">
       <defs>
        <path id="DejaVuSans-32" d="M 1228 531 
L 3431 531 
L 3431 0 
L 469 0 
L 469 531 
Q 828 903 1448 1529 
Q 2069 2156 2228 2338 
Q 2531 2678 2651 2914 
Q 2772 3150 2772 3378 
Q 2772 3750 2511 3984 
Q 2250 4219 1831 4219 
Q 1534 4219 1204 4116 
Q 875 4013 500 3803 
L 500 4441 
Q 881 4594 1212 4672 
Q 1544 4750 1819 4750 
Q 2544 4750 2975 4387 
Q 3406 4025 3406 3419 
Q 3406 3131 3298 2873 
Q 3191 2616 2906 2266 
Q 2828 2175 2409 1742 
Q 1991 1309 1228 531 
z
" transform="scale(0.015625)"/>
       </defs>
       <use xlink:href="#DejaVuSans-32"/>
      </g>
     </g>
    </g>
    <g id="xtick_4">
     <g id="line2d_7">
      <path d="M 232.571725 78.7975 
L 232.571725 28.32 
" clip-path="url(#p0ee013ace6)" style="fill: none; stroke: #b0b0b0; stroke-width: 0.8; stroke-linecap: square"/>
     </g>
     <g id="line2d_8">
      <g>
       <use xlink:href="#mf0c0be186c" x="232.571725" y="78.7975" style="stroke: #000000; stroke-width: 0.8"/>
      </g>
     </g>
     <g id="text_4">
      <!-- 3 -->
      <g transform="translate(229.390475 93.395937)scale(0.1 -0.1)">
       <defs>
        <path id="DejaVuSans-33" d="M 2597 2516 
Q 3050 2419 3304 2112 
Q 3559 1806 3559 1356 
Q 3559 666 3084 287 
Q 2609 -91 1734 -91 
Q 1441 -91 1130 -33 
Q 819 25 488 141 
L 488 750 
Q 750 597 1062 519 
Q 1375 441 1716 441 
Q 2309 441 2620 675 
Q 2931 909 2931 1356 
Q 2931 1769 2642 2001 
Q 2353 2234 1838 2234 
L 1294 2234 
L 1294 2753 
L 1863 2753 
Q 2328 2753 2575 2939 
Q 2822 3125 2822 3475 
Q 2822 3834 2567 4026 
Q 2313 4219 1838 4219 
Q 1578 4219 1281 4162 
Q 984 4106 628 3988 
L 628 4550 
Q 988 4650 1302 4700 
Q 1616 4750 1894 4750 
Q 2613 4750 3031 4423 
Q 3450 4097 3450 3541 
Q 3450 3153 3228 2886 
Q 3006 2619 2597 2516 
z
" transform="scale(0.015625)"/>
       </defs>
       <use xlink:href="#DejaVuSans-33"/>
      </g>
     </g>
    </g>
    <g id="xtick_5">
     <g id="line2d_9">
      <path d="M 280.808725 78.7975 
L 280.808725 28.32 
" clip-path="url(#p0ee013ace6)" style="fill: none; stroke: #b0b0b0; stroke-width: 0.8; stroke-linecap: square"/>
     </g>
     <g id="line2d_10">
      <g>
       <use xlink:href="#mf0c0be186c" x="280.808725" y="78.7975" style="stroke: #000000; stroke-width: 0.8"/>
      </g>
     </g>
     <g id="text_5">
      <!-- 4 -->
      <g transform="translate(277.627475 93.395937)scale(0.1 -0.1)">
       <defs>
        <path id="DejaVuSans-34" d="M 2419 4116 
L 825 1625 
L 2419 1625 
L 2419 4116 
z
M 2253 4666 
L 3047 4666 
L 3047 1625 
L 3713 1625 
L 3713 1100 
L 3047 1100 
L 3047 0 
L 2419 0 
L 2419 1100 
L 313 1100 
L 313 1709 
L 2253 4666 
z
" transform="scale(0.015625)"/>
       </defs>
       <use xlink:href="#DejaVuSans-34"/>
      </g>
     </g>
    </g>
    <g id="xtick_6">
     <g id="line2d_11">
      <path d="M 329.045724 78.7975 
L 329.045724 28.32 
" clip-path="url(#p0ee013ace6)" style="fill: none; stroke: #b0b0b0; stroke-width: 0.8; stroke-linecap: square"/>
     </g>
     <g id="line2d_12">
      <g>
       <use xlink:href="#mf0c0be186c" x="329.045724" y="78.7975" style="stroke: #000000; stroke-width: 0.8"/>
      </g>
     </g>
     <g id="text_6">
      <!-- 5 -->
      <g transform="translate(325.864474 93.395937)scale(0.1 -0.1)">
       <defs>
        <path id="DejaVuSans-35" d="M 691 4666 
L 3169 4666 
L 3169 4134 
L 1269 4134 
L 1269 2991 
Q 1406 3038 1543 3061 
Q 1681 3084 1819 3084 
Q 2600 3084 3056 2656 
Q 3513 2228 3513 1497 
Q 3513 744 3044 326 
Q 2575 -91 1722 -91 
Q 1428 -91 1123 -41 
Q 819 9 494 109 
L 494 744 
Q 775 591 1075 516 
Q 1375 441 1709 441 
Q 2250 441 2565 725 
Q 2881 1009 2881 1497 
Q 2881 1984 2565 2268 
Q 2250 2553 1709 2553 
Q 1456 2553 1204 2497 
Q 953 2441 691 2322 
L 691 4666 
z
" transform="scale(0.015625)"/>
       </defs>
       <use xlink:href="#DejaVuSans-35"/>
      </g>
     </g>
    </g>
    <g id="xtick_7">
     <g id="line2d_13">
      <path d="M 377.282723 78.7975 
L 377.282723 28.32 
" clip-path="url(#p0ee013ace6)" style="fill: none; stroke: #b0b0b0; stroke-width: 0.8; stroke-linecap: square"/>
     </g>
     <g id="line2d_14">
      <g>
       <use xlink:href="#mf0c0be186c" x="377.282723" y="78.7975" style="stroke: #000000; stroke-width: 0.8"/>
      </g>
     </g>
     <g id="text_7">
      <!-- 6 -->
      <g transform="translate(374.101473 93.395937)scale(0.1 -0.1)">
       <defs>
        <path id="DejaVuSans-36" d="M 2113 2584 
Q 1688 2584 1439 2293 
Q 1191 2003 1191 1497 
Q 1191 994 1439 701 
Q 1688 409 2113 409 
Q 2538 409 2786 701 
Q 3034 994 3034 1497 
Q 3034 2003 2786 2293 
Q 2538 2584 2113 2584 
z
M 3366 4563 
L 3366 3988 
Q 3128 4100 2886 4159 
Q 2644 4219 2406 4219 
Q 1781 4219 1451 3797 
Q 1122 3375 1075 2522 
Q 1259 2794 1537 2939 
Q 1816 3084 2150 3084 
Q 2853 3084 3261 2657 
Q 3669 2231 3669 1497 
Q 3669 778 3244 343 
Q 2819 -91 2113 -91 
Q 1303 -91 875 529 
Q 447 1150 447 2328 
Q 447 3434 972 4092 
Q 1497 4750 2381 4750 
Q 2619 4750 2861 4703 
Q 3103 4656 3366 4563 
z
" transform="scale(0.015625)"/>
       </defs>
       <use xlink:href="#DejaVuSans-36"/>
      </g>
     </g>
    </g>
    <g id="xtick_8">
     <g id="line2d_15">
      <path d="M 425.519723 78.7975 
L 425.519723 28.32 
" clip-path="url(#p0ee013ace6)" style="fill: none; stroke: #b0b0b0; stroke-width: 0.8; stroke-linecap: square"/>
     </g>
     <g id="line2d_16">
      <g>
       <use xlink:href="#mf0c0be186c" x="425.519723" y="78.7975" style="stroke: #000000; stroke-width: 0.8"/>
      </g>
     </g>
     <g id="text_8">
      <!-- 7 -->
      <g transform="translate(422.338473 93.395937)scale(0.1 -0.1)">
       <defs>
        <path id="DejaVuSans-37" d="M 525 4666 
L 3525 4666 
L 3525 4397 
L 1831 0 
L 1172 0 
L 2766 4134 
L 525 4134 
L 525 4666 
z
" transform="scale(0.015625)"/>
       </defs>
       <use xlink:href="#DejaVuSans-37"/>
      </g>
     </g>
    </g>
    <g id="text_9">
     <!-- $t$ [s] -->
     <g transform="translate(250.208 107.074062)scale(0.1 -0.1)">
      <defs>
       <path id="DejaVuSans-Oblique-74" d="M 2706 3500 
L 2619 3053 
L 1472 3053 
L 1100 1153 
Q 1081 1047 1072 975 
Q 1063 903 1063 863 
Q 1063 663 1183 572 
Q 1303 481 1569 481 
L 2150 481 
L 2053 0 
L 1503 0 
Q 991 0 739 200 
Q 488 400 488 806 
Q 488 878 497 964 
Q 506 1050 525 1153 
L 897 3053 
L 409 3053 
L 500 3500 
L 978 3500 
L 1172 4494 
L 1747 4494 
L 1556 3500 
L 2706 3500 
z
" transform="scale(0.015625)"/>
       <path id="DejaVuSans-20" transform="scale(0.015625)"/>
       <path id="DejaVuSans-5b" d="M 550 4863 
L 1875 4863 
L 1875 4416 
L 1125 4416 
L 1125 -397 
L 1875 -397 
L 1875 -844 
L 550 -844 
L 550 4863 
z
" transform="scale(0.015625)"/>
       <path id="DejaVuSans-73" d="M 2834 3397 
L 2834 2853 
Q 2591 2978 2328 3040 
Q 2066 3103 1784 3103 
Q 1356 3103 1142 2972 
Q 928 2841 928 2578 
Q 928 2378 1081 2264 
Q 1234 2150 1697 2047 
L 1894 2003 
Q 2506 1872 2764 1633 
Q 3022 1394 3022 966 
Q 3022 478 2636 193 
Q 2250 -91 1575 -91 
Q 1294 -91 989 -36 
Q 684 19 347 128 
L 347 722 
Q 666 556 975 473 
Q 1284 391 1588 391 
Q 1994 391 2212 530 
Q 2431 669 2431 922 
Q 2431 1156 2273 1281 
Q 2116 1406 1581 1522 
L 1381 1569 
Q 847 1681 609 1914 
Q 372 2147 372 2553 
Q 372 3047 722 3315 
Q 1072 3584 1716 3584 
Q 2034 3584 2315 3537 
Q 2597 3491 2834 3397 
z
" transform="scale(0.015625)"/>
       <path id="DejaVuSans-5d" d="M 1947 4863 
L 1947 -844 
L 622 -844 
L 622 -397 
L 1369 -397 
L 1369 4416 
L 622 4416 
L 622 4863 
L 1947 4863 
z
" transform="scale(0.015625)"/>
      </defs>
      <use xlink:href="#DejaVuSans-Oblique-74" transform="translate(0 0.015625)"/>
      <use xlink:href="#DejaVuSans-20" transform="translate(39.208984 0.015625)"/>
      <use xlink:href="#DejaVuSans-5b" transform="translate(70.996094 0.015625)"/>
      <use xlink:href="#DejaVuSans-73" transform="translate(110.009766 0.015625)"/>
      <use xlink:href="#DejaVuSans-5d" transform="translate(162.109375 0.015625)"/>
     </g>
    </g>
   </g>
   <g id="matplotlib.axis_2">
    <g id="ytick_1">
     <g id="line2d_17">
      <path d="M 70.616 67.538738 
L 450 67.538738 
" clip-path="url(#p0ee013ace6)" style="fill: none; stroke: #b0b0b0; stroke-width: 0.8; stroke-linecap: square"/>
     </g>
     <g id="line2d_18">
      <defs>
       <path id="m099d872173" d="M 0 0 
L -3.5 0 
" style="stroke: #000000; stroke-width: 0.8"/>
      </defs>
      <g>
       <use xlink:href="#m099d872173" x="70.616" y="67.538738" style="stroke: #000000; stroke-width: 0.8"/>
      </g>
     </g>
     <g id="text_10">
      <!-- 0 -->
      <g transform="translate(57.2535 71.337956)scale(0.1 -0.1)">
       <use xlink:href="#DejaVuSans-30"/>
      </g>
     </g>
    </g>
    <g id="ytick_2">
     <g id="line2d_19">
      <path d="M 70.616 30.614446 
L 450 30.614446 
" clip-path="url(#p0ee013ace6)" style="fill: none; stroke: #b0b0b0; stroke-width: 0.8; stroke-linecap: square"/>
     </g>
     <g id="line2d_20">
      <g>
       <use xlink:href="#m099d872173" x="70.616" y="30.614446" style="stroke: #000000; stroke-width: 0.8"/>
      </g>
     </g>
     <g id="text_11">
      <!-- 10 -->
      <g transform="translate(50.891 34.413665)scale(0.1 -0.1)">
       <use xlink:href="#DejaVuSans-31"/>
       <use xlink:href="#DejaVuSans-30" x="63.623047"/>
      </g>
     </g>
    </g>
    <g id="text_12">
     <!-- $e_x$ [m] -->
     <g transform="translate(44.811312 69.20875)rotate(-90)scale(0.1 -0.1)">
      <defs>
       <path id="DejaVuSans-Oblique-65" d="M 3078 2063 
Q 3088 2113 3092 2166 
Q 3097 2219 3097 2272 
Q 3097 2653 2873 2875 
Q 2650 3097 2266 3097 
Q 1838 3097 1509 2826 
Q 1181 2556 1013 2059 
L 3078 2063 
z
M 3578 1613 
L 903 1613 
Q 884 1494 878 1425 
Q 872 1356 872 1306 
Q 872 872 1139 634 
Q 1406 397 1894 397 
Q 2269 397 2603 481 
Q 2938 566 3225 728 
L 3116 159 
Q 2806 34 2476 -28 
Q 2147 -91 1806 -91 
Q 1078 -91 686 257 
Q 294 606 294 1247 
Q 294 1794 489 2264 
Q 684 2734 1063 3103 
Q 1306 3334 1642 3459 
Q 1978 3584 2356 3584 
Q 2950 3584 3301 3228 
Q 3653 2872 3653 2272 
Q 3653 2128 3634 1964 
Q 3616 1800 3578 1613 
z
" transform="scale(0.015625)"/>
       <path id="DejaVuSans-Oblique-78" d="M 3841 3500 
L 2234 1784 
L 3219 0 
L 2559 0 
L 1819 1388 
L 531 0 
L -166 0 
L 1556 1844 
L 641 3500 
L 1300 3500 
L 1972 2234 
L 3144 3500 
L 3841 3500 
z
" transform="scale(0.015625)"/>
       <path id="DejaVuSans-6d" d="M 3328 2828 
Q 3544 3216 3844 3400 
Q 4144 3584 4550 3584 
Q 5097 3584 5394 3201 
Q 5691 2819 5691 2113 
L 5691 0 
L 5113 0 
L 5113 2094 
Q 5113 2597 4934 2840 
Q 4756 3084 4391 3084 
Q 3944 3084 3684 2787 
Q 3425 2491 3425 1978 
L 3425 0 
L 2847 0 
L 2847 2094 
Q 2847 2600 2669 2842 
Q 2491 3084 2119 3084 
Q 1678 3084 1418 2786 
Q 1159 2488 1159 1978 
L 1159 0 
L 581 0 
L 581 3500 
L 1159 3500 
L 1159 2956 
Q 1356 3278 1631 3431 
Q 1906 3584 2284 3584 
Q 2666 3584 2933 3390 
Q 3200 3197 3328 2828 
z
" transform="scale(0.015625)"/>
      </defs>
      <use xlink:href="#DejaVuSans-Oblique-65" transform="translate(0 0.015625)"/>
      <use xlink:href="#DejaVuSans-Oblique-78" transform="translate(61.523438 -16.390625)scale(0.7)"/>
      <use xlink:href="#DejaVuSans-20" transform="translate(105.683594 0.015625)"/>
      <use xlink:href="#DejaVuSans-5b" transform="translate(137.470703 0.015625)"/>
      <use xlink:href="#DejaVuSans-6d" transform="translate(176.484375 0.015625)"/>
      <use xlink:href="#DejaVuSans-5d" transform="translate(273.896484 0.015625)"/>
     </g>
    </g>
   </g>
   <g id="line2d_21">
    <path d="M 87.860727 30.614446 
L 98.970776 30.720235 
L 103.318186 30.878405 
L 107.182551 31.107417 
L 108.148642 31.211079 
L 112.013006 31.542853 
L 113.945189 31.767189 
L 117.809553 32.206974 
L 119.25869 32.463583 
L 120.707827 32.598054 
L 122.156964 32.87881 
L 123.6061 33.02489 
L 124.089146 33.144399 
L 124.572191 33.144399 
L 125.055237 33.327958 
L 126.987419 33.548438 
L 131.817875 34.423866 
L 133.267012 34.6742 
L 134.233103 34.893652 
L 135.199194 35.042466 
L 135.68224 35.231324 
L 136.165285 35.231324 
L 137.131377 35.462192 
L 138.580513 35.73749 
L 139.546605 35.97869 
L 140.995741 36.266344 
L 141.478787 36.433814 
L 141.961832 36.433814 
L 142.927924 36.689339 
L 144.37706 36.994128 
L 145.826197 37.261214 
L 146.309243 37.533768 
L 147.758379 37.765126 
L 148.241425 37.953002 
L 148.724471 37.953002 
L 149.207516 38.239499 
L 150.656653 38.482553 
L 151.622744 38.779409 
L 153.071881 39.132898 
L 155.004063 39.651248 
L 157.419291 40.348519 
L 158.868428 40.734867 
L 159.834519 41.072045 
L 161.766701 41.58814 
L 162.732792 41.93902 
L 164.181929 42.355187 
L 164.664975 42.596255 
L 165.14802 42.596255 
L 166.114112 42.962233 
L 167.080203 43.271181 
L 167.563248 43.520899 
L 168.046294 43.520899 
L 169.012385 43.899679 
L 169.978476 44.219121 
L 170.461522 44.477116 
L 170.944567 44.477116 
L 171.427613 44.737253 
L 172.87675 45.197537 
L 173.359795 45.463394 
L 173.842841 45.463394 
L 174.325886 45.731266 
L 175.775023 46.204807 
L 176.258069 46.478071 
L 176.741114 46.478071 
L 177.22416 46.753234 
L 179.156342 47.379124 
L 179.639388 47.660231 
L 181.57157 48.227694 
L 182.054616 48.585816 
L 182.537661 48.585816 
L 183.020707 48.874173 
L 184.469844 49.309731 
L 184.952889 49.602071 
L 185.435935 49.602071 
L 185.91898 50.043445 
L 186.885072 50.265397 
L 187.368117 50.413823 
L 187.851163 50.711762 
L 188.334208 50.711762 
L 188.817254 51.161328 
L 189.783345 51.387286 
L 190.266391 51.538353 
L 191.232482 52.069739 
L 191.715527 52.29872 
L 192.681619 52.528439 
L 193.164664 52.681994 
L 194.130755 53.221968 
L 194.613801 53.454589 
L 195.579892 53.687928 
L 196.062938 53.843885 
L 197.029029 54.392247 
L 197.512074 54.628457 
L 198.478166 54.86539 
L 198.961211 55.023749 
L 199.444257 55.34144 
L 200.410348 55.740394 
L 201.376439 56.221873 
L 201.859485 56.221873 
L 202.34253 56.54454 
L 203.308621 56.949803 
L 204.274713 57.438972 
L 204.757758 57.438972 
L 205.240804 57.766765 
L 206.206895 58.178224 
L 206.68994 58.425898 
L 207.656032 58.674056 
L 208.139077 59.005489 
L 208.622123 59.005489 
L 209.105168 59.503201 
L 210.071259 59.751998 
L 210.554305 59.917733 
L 211.037351 60.248669 
L 211.520396 60.248669 
L 212.003442 60.742984 
L 212.969533 60.98883 
L 213.452579 61.152132 
L 213.935624 61.557973 
L 214.41867 61.557973 
L 214.901715 61.879835 
L 217.316943 62.749784 
L 217.799989 63.059973 
L 219.249126 63.518535 
L 220.215217 64.042755 
L 220.698262 64.263716 
L 221.664353 64.482397 
L 222.147399 64.626896 
L 222.630445 64.983569 
L 223.11349 64.983569 
L 223.596536 65.264179 
L 225.045673 65.677279 
L 225.528718 66.014471 
L 226.011764 66.014471 
L 226.494809 66.279673 
L 227.943946 66.670006 
L 228.426992 66.988536 
L 228.910037 66.988536 
L 229.393083 67.238992 
L 230.84222 67.607447 
L 231.325265 67.907895 
L 231.808311 67.907895 
L 232.774402 68.260512 
L 234.706584 68.773227 
L 235.672675 69.104195 
L 236.638766 69.320007 
L 237.121812 69.584329 
L 237.604858 69.584329 
L 238.570949 69.893551 
L 240.503131 70.390204 
L 241.952268 70.724833 
L 243.401405 71.095259 
L 244.850541 71.409693 
L 246.299678 71.758704 
L 247.748815 72.055447 
L 249.197952 72.384919 
L 250.647088 72.664736 
L 252.096225 72.898171 
L 252.579271 73.125518 
L 254.511453 73.382809 
L 257.409727 73.969848 
L 257.892772 73.969848 
L 258.375818 74.1635 
L 259.824954 74.319223 
L 261.274091 74.586238 
L 264.172365 74.992307 
L 266.104547 75.235526 
L 266.587593 75.235526 
L 267.553684 75.392641 
L 279.146778 76.312513 
L 292.672054 76.453336 
L 301.366874 76.112986 
L 306.19733 75.786363 
L 311.510832 75.372645 
L 313.443014 75.190371 
L 328.417427 73.312524 
L 328.900473 73.159598 
L 329.383518 73.159598 
L 330.349609 72.970964 
L 333.247883 72.474959 
L 335.180065 72.161092 
L 336.146156 71.945715 
L 338.078339 71.614873 
L 339.04443 71.39021 
L 340.493567 71.087279 
L 342.425749 70.744429 
L 343.39184 70.516231 
L 344.840977 70.251928 
L 347.256205 69.771753 
L 349.188387 69.41681 
L 353.052752 68.759706 
L 355.951025 68.322052 
L 357.883208 68.058962 
L 358.366253 68.058962 
L 358.849299 67.912297 
L 361.264527 67.707864 
L 362.230618 67.561535 
L 373.340666 66.737355 
L 383.484623 66.473277 
L 396.526854 66.530833 
L 406.670811 66.772534 
L 417.297814 67.12473 
L 419.229996 67.200113 
L 432.755273 67.596039 
L 432.755273 67.596039 
" clip-path="url(#p0ee013ace6)" style="fill: none; stroke: #ff0000; stroke-width: 1.5; stroke-linecap: square"/>
   </g>
   <g id="patch_3">
    <path d="M 70.616 78.7975 
L 70.616 28.32 
" style="fill: none; stroke: #000000; stroke-width: 0.8; stroke-linejoin: miter; stroke-linecap: square"/>
   </g>
   <g id="patch_4">
    <path d="M 450 78.7975 
L 450 28.32 
" style="fill: none; stroke: #000000; stroke-width: 0.8; stroke-linejoin: miter; stroke-linecap: square"/>
   </g>
   <g id="patch_5">
    <path d="M 70.616 78.7975 
L 450 78.7975 
" style="fill: none; stroke: #000000; stroke-width: 0.8; stroke-linejoin: miter; stroke-linecap: square"/>
   </g>
   <g id="patch_6">
    <path d="M 70.616 28.32 
L 450 28.32 
" style="fill: none; stroke: #000000; stroke-width: 0.8; stroke-linejoin: miter; stroke-linecap: square"/>
   </g>
   <g id="text_13">
    <!-- Error in $x$-position -->
    <g transform="translate(206.668 22.32)scale(0.12 -0.12)">
     <defs>
      <path id="DejaVuSans-45" d="M 628 4666 
L 3578 4666 
L 3578 4134 
L 1259 4134 
L 1259 2753 
L 3481 2753 
L 3481 2222 
L 1259 2222 
L 1259 531 
L 3634 531 
L 3634 0 
L 628 0 
L 628 4666 
z
" transform="scale(0.015625)"/>
      <path id="DejaVuSans-72" d="M 2631 2963 
Q 2534 3019 2420 3045 
Q 2306 3072 2169 3072 
Q 1681 3072 1420 2755 
Q 1159 2438 1159 1844 
L 1159 0 
L 581 0 
L 581 3500 
L 1159 3500 
L 1159 2956 
Q 1341 3275 1631 3429 
Q 1922 3584 2338 3584 
Q 2397 3584 2469 3576 
Q 2541 3569 2628 3553 
L 2631 2963 
z
" transform="scale(0.015625)"/>
      <path id="DejaVuSans-6f" d="M 1959 3097 
Q 1497 3097 1228 2736 
Q 959 2375 959 1747 
Q 959 1119 1226 758 
Q 1494 397 1959 397 
Q 2419 397 2687 759 
Q 2956 1122 2956 1747 
Q 2956 2369 2687 2733 
Q 2419 3097 1959 3097 
z
M 1959 3584 
Q 2709 3584 3137 3096 
Q 3566 2609 3566 1747 
Q 3566 888 3137 398 
Q 2709 -91 1959 -91 
Q 1206 -91 779 398 
Q 353 888 353 1747 
Q 353 2609 779 3096 
Q 1206 3584 1959 3584 
z
" transform="scale(0.015625)"/>
      <path id="DejaVuSans-69" d="M 603 3500 
L 1178 3500 
L 1178 0 
L 603 0 
L 603 3500 
z
M 603 4863 
L 1178 4863 
L 1178 4134 
L 603 4134 
L 603 4863 
z
" transform="scale(0.015625)"/>
      <path id="DejaVuSans-6e" d="M 3513 2113 
L 3513 0 
L 2938 0 
L 2938 2094 
Q 2938 2591 2744 2837 
Q 2550 3084 2163 3084 
Q 1697 3084 1428 2787 
Q 1159 2491 1159 1978 
L 1159 0 
L 581 0 
L 581 3500 
L 1159 3500 
L 1159 2956 
Q 1366 3272 1645 3428 
Q 1925 3584 2291 3584 
Q 2894 3584 3203 3211 
Q 3513 2838 3513 2113 
z
" transform="scale(0.015625)"/>
      <path id="DejaVuSans-2d" d="M 313 2009 
L 1997 2009 
L 1997 1497 
L 313 1497 
L 313 2009 
z
" transform="scale(0.015625)"/>
      <path id="DejaVuSans-70" d="M 1159 525 
L 1159 -1331 
L 581 -1331 
L 581 3500 
L 1159 3500 
L 1159 2969 
Q 1341 3281 1617 3432 
Q 1894 3584 2278 3584 
Q 2916 3584 3314 3078 
Q 3713 2572 3713 1747 
Q 3713 922 3314 415 
Q 2916 -91 2278 -91 
Q 1894 -91 1617 61 
Q 1341 213 1159 525 
z
M 3116 1747 
Q 3116 2381 2855 2742 
Q 2594 3103 2138 3103 
Q 1681 3103 1420 2742 
Q 1159 2381 1159 1747 
Q 1159 1113 1420 752 
Q 1681 391 2138 391 
Q 2594 391 2855 752 
Q 3116 1113 3116 1747 
z
" transform="scale(0.015625)"/>
      <path id="DejaVuSans-74" d="M 1172 4494 
L 1172 3500 
L 2356 3500 
L 2356 3053 
L 1172 3053 
L 1172 1153 
Q 1172 725 1289 603 
Q 1406 481 1766 481 
L 2356 481 
L 2356 0 
L 1766 0 
Q 1100 0 847 248 
Q 594 497 594 1153 
L 594 3053 
L 172 3053 
L 172 3500 
L 594 3500 
L 594 4494 
L 1172 4494 
z
" transform="scale(0.015625)"/>
     </defs>
     <use xlink:href="#DejaVuSans-45" transform="translate(0 0.015625)"/>
     <use xlink:href="#DejaVuSans-72" transform="translate(63.183594 0.015625)"/>
     <use xlink:href="#DejaVuSans-72" transform="translate(104.296875 0.015625)"/>
     <use xlink:href="#DejaVuSans-6f" transform="translate(145.410156 0.015625)"/>
     <use xlink:href="#DejaVuSans-72" transform="translate(206.591797 0.015625)"/>
     <use xlink:href="#DejaVuSans-20" transform="translate(247.705078 0.015625)"/>
     <use xlink:href="#DejaVuSans-69" transform="translate(279.492188 0.015625)"/>
     <use xlink:href="#DejaVuSans-6e" transform="translate(307.275391 0.015625)"/>
     <use xlink:href="#DejaVuSans-20" transform="translate(370.654297 0.015625)"/>
     <use xlink:href="#DejaVuSans-Oblique-78" transform="translate(402.441406 0.015625)"/>
     <use xlink:href="#DejaVuSans-2d" transform="translate(461.621094 0.015625)"/>
     <use xlink:href="#DejaVuSans-70" transform="translate(497.705078 0.015625)"/>
     <use xlink:href="#DejaVuSans-6f" transform="translate(561.181641 0.015625)"/>
     <use xlink:href="#DejaVuSans-73" transform="translate(622.363281 0.015625)"/>
     <use xlink:href="#DejaVuSans-69" transform="translate(674.462891 0.015625)"/>
     <use xlink:href="#DejaVuSans-74" transform="translate(702.246094 0.015625)"/>
     <use xlink:href="#DejaVuSans-69" transform="translate(741.455078 0.015625)"/>
     <use xlink:href="#DejaVuSans-6f" transform="translate(769.238281 0.015625)"/>
     <use xlink:href="#DejaVuSans-6e" transform="translate(830.419922 0.015625)"/>
    </g>
   </g>
  </g>
  <g id="axes_2">
   <g id="patch_7">
    <path d="M 70.616 190.3975 
L 450 190.3975 
L 450 139.92 
L 70.616 139.92 
z
" style="fill: #ffffff"/>
   </g>
   <g id="matplotlib.axis_3">
    <g id="xtick_9">
     <g id="line2d_22">
      <path d="M 87.860727 190.3975 
L 87.860727 139.92 
" clip-path="url(#p4071f5de18)" style="fill: none; stroke: #b0b0b0; stroke-width: 0.8; stroke-linecap: square"/>
     </g>
     <g id="line2d_23">
      <g>
       <use xlink:href="#mf0c0be186c" x="87.860727" y="190.3975" style="stroke: #000000; stroke-width: 0.8"/>
      </g>
     </g>
     <g id="text_14">
      <!-- 0 -->
      <g transform="translate(84.679477 204.995937)scale(0.1 -0.1)">
       <use xlink:href="#DejaVuSans-30"/>
      </g>
     </g>
    </g>
    <g id="xtick_10">
     <g id="line2d_24">
      <path d="M 136.097727 190.3975 
L 136.097727 139.92 
" clip-path="url(#p4071f5de18)" style="fill: none; stroke: #b0b0b0; stroke-width: 0.8; stroke-linecap: square"/>
     </g>
     <g id="line2d_25">
      <g>
       <use xlink:href="#mf0c0be186c" x="136.097727" y="190.3975" style="stroke: #000000; stroke-width: 0.8"/>
      </g>
     </g>
     <g id="text_15">
      <!-- 1 -->
      <g transform="translate(132.916477 204.995937)scale(0.1 -0.1)">
       <use xlink:href="#DejaVuSans-31"/>
      </g>
     </g>
    </g>
    <g id="xtick_11">
     <g id="line2d_26">
      <path d="M 184.334726 190.3975 
L 184.334726 139.92 
" clip-path="url(#p4071f5de18)" style="fill: none; stroke: #b0b0b0; stroke-width: 0.8; stroke-linecap: square"/>
     </g>
     <g id="line2d_27">
      <g>
       <use xlink:href="#mf0c0be186c" x="184.334726" y="190.3975" style="stroke: #000000; stroke-width: 0.8"/>
      </g>
     </g>
     <g id="text_16">
      <!-- 2 -->
      <g transform="translate(181.153476 204.995937)scale(0.1 -0.1)">
       <use xlink:href="#DejaVuSans-32"/>
      </g>
     </g>
    </g>
    <g id="xtick_12">
     <g id="line2d_28">
      <path d="M 232.571725 190.3975 
L 232.571725 139.92 
" clip-path="url(#p4071f5de18)" style="fill: none; stroke: #b0b0b0; stroke-width: 0.8; stroke-linecap: square"/>
     </g>
     <g id="line2d_29">
      <g>
       <use xlink:href="#mf0c0be186c" x="232.571725" y="190.3975" style="stroke: #000000; stroke-width: 0.8"/>
      </g>
     </g>
     <g id="text_17">
      <!-- 3 -->
      <g transform="translate(229.390475 204.995937)scale(0.1 -0.1)">
       <use xlink:href="#DejaVuSans-33"/>
      </g>
     </g>
    </g>
    <g id="xtick_13">
     <g id="line2d_30">
      <path d="M 280.808725 190.3975 
L 280.808725 139.92 
" clip-path="url(#p4071f5de18)" style="fill: none; stroke: #b0b0b0; stroke-width: 0.8; stroke-linecap: square"/>
     </g>
     <g id="line2d_31">
      <g>
       <use xlink:href="#mf0c0be186c" x="280.808725" y="190.3975" style="stroke: #000000; stroke-width: 0.8"/>
      </g>
     </g>
     <g id="text_18">
      <!-- 4 -->
      <g transform="translate(277.627475 204.995937)scale(0.1 -0.1)">
       <use xlink:href="#DejaVuSans-34"/>
      </g>
     </g>
    </g>
    <g id="xtick_14">
     <g id="line2d_32">
      <path d="M 329.045724 190.3975 
L 329.045724 139.92 
" clip-path="url(#p4071f5de18)" style="fill: none; stroke: #b0b0b0; stroke-width: 0.8; stroke-linecap: square"/>
     </g>
     <g id="line2d_33">
      <g>
       <use xlink:href="#mf0c0be186c" x="329.045724" y="190.3975" style="stroke: #000000; stroke-width: 0.8"/>
      </g>
     </g>
     <g id="text_19">
      <!-- 5 -->
      <g transform="translate(325.864474 204.995937)scale(0.1 -0.1)">
       <use xlink:href="#DejaVuSans-35"/>
      </g>
     </g>
    </g>
    <g id="xtick_15">
     <g id="line2d_34">
      <path d="M 377.282723 190.3975 
L 377.282723 139.92 
" clip-path="url(#p4071f5de18)" style="fill: none; stroke: #b0b0b0; stroke-width: 0.8; stroke-linecap: square"/>
     </g>
     <g id="line2d_35">
      <g>
       <use xlink:href="#mf0c0be186c" x="377.282723" y="190.3975" style="stroke: #000000; stroke-width: 0.8"/>
      </g>
     </g>
     <g id="text_20">
      <!-- 6 -->
      <g transform="translate(374.101473 204.995937)scale(0.1 -0.1)">
       <use xlink:href="#DejaVuSans-36"/>
      </g>
     </g>
    </g>
    <g id="xtick_16">
     <g id="line2d_36">
      <path d="M 425.519723 190.3975 
L 425.519723 139.92 
" clip-path="url(#p4071f5de18)" style="fill: none; stroke: #b0b0b0; stroke-width: 0.8; stroke-linecap: square"/>
     </g>
     <g id="line2d_37">
      <g>
       <use xlink:href="#mf0c0be186c" x="425.519723" y="190.3975" style="stroke: #000000; stroke-width: 0.8"/>
      </g>
     </g>
     <g id="text_21">
      <!-- 7 -->
      <g transform="translate(422.338473 204.995937)scale(0.1 -0.1)">
       <use xlink:href="#DejaVuSans-37"/>
      </g>
     </g>
    </g>
    <g id="text_22">
     <!-- $t$ [s] -->
     <g transform="translate(250.208 218.674062)scale(0.1 -0.1)">
      <use xlink:href="#DejaVuSans-Oblique-74" transform="translate(0 0.015625)"/>
      <use xlink:href="#DejaVuSans-20" transform="translate(39.208984 0.015625)"/>
      <use xlink:href="#DejaVuSans-5b" transform="translate(70.996094 0.015625)"/>
      <use xlink:href="#DejaVuSans-73" transform="translate(110.009766 0.015625)"/>
      <use xlink:href="#DejaVuSans-5d" transform="translate(162.109375 0.015625)"/>
     </g>
    </g>
   </g>
   <g id="matplotlib.axis_4">
    <g id="ytick_3">
     <g id="line2d_38">
      <path d="M 70.616 187.457592 
L 450 187.457592 
" clip-path="url(#p4071f5de18)" style="fill: none; stroke: #b0b0b0; stroke-width: 0.8; stroke-linecap: square"/>
     </g>
     <g id="line2d_39">
      <g>
       <use xlink:href="#m099d872173" x="70.616" y="187.457592" style="stroke: #000000; stroke-width: 0.8"/>
      </g>
     </g>
     <g id="text_23">
      <!-- −0.025 -->
      <g transform="translate(26.608187 191.256811)scale(0.1 -0.1)">
       <defs>
        <path id="DejaVuSans-2212" d="M 678 2272 
L 4684 2272 
L 4684 1741 
L 678 1741 
L 678 2272 
z
" transform="scale(0.015625)"/>
        <path id="DejaVuSans-2e" d="M 684 794 
L 1344 794 
L 1344 0 
L 684 0 
L 684 794 
z
" transform="scale(0.015625)"/>
       </defs>
       <use xlink:href="#DejaVuSans-2212"/>
       <use xlink:href="#DejaVuSans-30" x="83.789062"/>
       <use xlink:href="#DejaVuSans-2e" x="147.412109"/>
       <use xlink:href="#DejaVuSans-30" x="179.199219"/>
       <use xlink:href="#DejaVuSans-32" x="242.822266"/>
       <use xlink:href="#DejaVuSans-35" x="306.445312"/>
      </g>
     </g>
    </g>
    <g id="ytick_4">
     <g id="line2d_40">
      <path d="M 70.616 169.370242 
L 450 169.370242 
" clip-path="url(#p4071f5de18)" style="fill: none; stroke: #b0b0b0; stroke-width: 0.8; stroke-linecap: square"/>
     </g>
     <g id="line2d_41">
      <g>
       <use xlink:href="#m099d872173" x="70.616" y="169.370242" style="stroke: #000000; stroke-width: 0.8"/>
      </g>
     </g>
     <g id="text_24">
      <!-- 0.000 -->
      <g transform="translate(34.987875 173.16946)scale(0.1 -0.1)">
       <use xlink:href="#DejaVuSans-30"/>
       <use xlink:href="#DejaVuSans-2e" x="63.623047"/>
       <use xlink:href="#DejaVuSans-30" x="95.410156"/>
       <use xlink:href="#DejaVuSans-30" x="159.033203"/>
       <use xlink:href="#DejaVuSans-30" x="222.65625"/>
      </g>
     </g>
    </g>
    <g id="ytick_5">
     <g id="line2d_42">
      <path d="M 70.616 151.282891 
L 450 151.282891 
" clip-path="url(#p4071f5de18)" style="fill: none; stroke: #b0b0b0; stroke-width: 0.8; stroke-linecap: square"/>
     </g>
     <g id="line2d_43">
      <g>
       <use xlink:href="#m099d872173" x="70.616" y="151.282891" style="stroke: #000000; stroke-width: 0.8"/>
      </g>
     </g>
     <g id="text_25">
      <!-- 0.025 -->
      <g transform="translate(34.987875 155.08211)scale(0.1 -0.1)">
       <use xlink:href="#DejaVuSans-30"/>
       <use xlink:href="#DejaVuSans-2e" x="63.623047"/>
       <use xlink:href="#DejaVuSans-30" x="95.410156"/>
       <use xlink:href="#DejaVuSans-32" x="159.033203"/>
       <use xlink:href="#DejaVuSans-35" x="222.65625"/>
      </g>
     </g>
    </g>
    <g id="text_26">
     <!-- $e_z$ [m] -->
     <g transform="translate(20.5285 180.60875)rotate(-90)scale(0.1 -0.1)">
      <defs>
       <path id="DejaVuSans-Oblique-7a" d="M 744 3500 
L 3475 3500 
L 3372 2975 
L 738 459 
L 2913 459 
L 2822 0 
L -19 0 
L 84 525 
L 2719 3041 
L 653 3041 
L 744 3500 
z
" transform="scale(0.015625)"/>
      </defs>
      <use xlink:href="#DejaVuSans-Oblique-65" transform="translate(0 0.015625)"/>
      <use xlink:href="#DejaVuSans-Oblique-7a" transform="translate(61.523438 -16.390625)scale(0.7)"/>
      <use xlink:href="#DejaVuSans-20" transform="translate(101.000977 0.015625)"/>
      <use xlink:href="#DejaVuSans-5b" transform="translate(132.788086 0.015625)"/>
      <use xlink:href="#DejaVuSans-6d" transform="translate(171.801758 0.015625)"/>
      <use xlink:href="#DejaVuSans-5d" transform="translate(269.213867 0.015625)"/>
     </g>
    </g>
   </g>
   <g id="line2d_44">
    <path d="M 87.860727 176.270902 
L 89.309864 175.294298 
L 89.79291 175.294298 
L 90.275955 174.236609 
L 90.759001 174.039361 
L 91.725092 173.25438 
L 92.208138 172.519475 
L 92.691183 172.519475 
L 93.174229 171.580591 
L 93.657274 171.444321 
L 94.623365 170.950945 
L 95.106411 170.532819 
L 95.589457 170.532819 
L 96.072502 170.024461 
L 97.038593 169.817311 
L 99.936867 169.144159 
L 103.801231 168.804919 
L 106.699505 168.715517 
L 108.631687 168.79908 
L 110.080824 168.949083 
L 110.56387 169.203721 
L 111.529961 169.377901 
L 112.013006 169.513155 
L 112.496052 169.832778 
L 112.979098 169.832778 
L 113.462143 170.441261 
L 113.945189 170.558402 
L 114.91128 171.072883 
L 115.394325 171.66127 
L 115.877371 171.66127 
L 116.360417 172.676266 
L 116.843462 172.860256 
L 117.809553 173.635491 
L 118.292599 174.468886 
L 118.775645 174.468886 
L 119.25869 175.807031 
L 119.741736 176.038494 
L 120.707827 176.982443 
L 121.190872 177.946693 
L 121.673918 177.946693 
L 122.156964 179.400663 
L 122.640009 179.641521 
L 123.6061 180.594082 
L 124.089146 181.520332 
L 124.572191 181.520332 
L 125.055237 182.835085 
L 125.538283 183.043355 
L 127.470465 184.744923 
L 127.953511 185.386079 
L 130.851784 187.036855 
L 132.300921 187.338642 
L 133.750058 187.404295 
L 135.199194 187.195462 
L 135.68224 186.876447 
L 136.165285 186.876447 
L 136.648331 186.53614 
L 138.097468 185.900029 
L 138.580513 185.533337 
L 139.063559 185.002682 
L 140.512696 184.135257 
L 140.995741 183.677635 
L 141.478787 183.052738 
L 141.961832 183.052738 
L 142.444878 182.419916 
L 142.927924 182.103467 
L 143.894015 181.167771 
L 144.37706 181.0152 
L 144.860106 180.71391 
L 145.343152 180.129429 
L 145.826197 180.129429 
L 146.309243 179.309439 
L 146.792288 179.180536 
L 147.758379 178.690934 
L 148.241425 178.24641 
L 148.724471 178.24641 
L 149.207516 177.664725 
L 150.173607 177.412688 
L 150.656653 177.258909 
L 151.139698 176.984763 
L 154.521018 176.244772 
L 158.385382 175.945976 
L 164.181929 175.529463 
L 165.631066 175.317977 
L 168.046294 174.971682 
L 169.012385 174.773707 
L 173.842841 174.239667 
L 175.775023 174.297321 
L 179.156342 174.925758 
L 180.122433 175.305608 
L 181.57157 175.759938 
L 182.054616 176.187212 
L 182.537661 176.187212 
L 183.020707 176.554726 
L 184.469844 177.137535 
L 184.952889 177.539422 
L 185.435935 177.539422 
L 185.91898 178.147886 
L 186.885072 178.449547 
L 187.368117 178.648136 
L 187.851163 179.036257 
L 188.334208 179.036257 
L 188.817254 179.583858 
L 189.783345 179.836958 
L 190.266391 179.996587 
L 191.232482 180.489072 
L 191.715527 180.664941 
L 193.164664 180.906468 
L 194.130755 181.129533 
L 195.579892 181.208977 
L 197.029029 181.135308 
L 199.927302 180.599343 
L 201.376439 180.0344 
L 201.859485 180.0344 
L 202.34253 179.742986 
L 203.308621 179.361533 
L 204.274713 178.930032 
L 204.757758 178.930032 
L 205.240804 178.681373 
L 208.139077 178.131216 
L 209.588214 178.025984 
L 212.486487 177.783377 
L 213.452579 177.658584 
L 213.935624 177.420016 
L 214.41867 177.420016 
L 215.384761 176.93617 
L 216.833898 176.139242 
L 217.316943 175.598494 
L 217.799989 174.718273 
L 219.249126 173.050757 
L 220.215217 170.632596 
L 220.698262 169.471582 
L 221.181308 169.070832 
L 222.147399 167.416024 
L 222.630445 165.283623 
L 223.11349 165.283623 
L 223.596536 163.556216 
L 225.045673 160.946739 
L 225.528718 158.761918 
L 226.011764 158.761918 
L 226.494809 157.018829 
L 227.943946 154.434998 
L 228.426992 152.332591 
L 228.910037 152.332591 
L 229.393083 150.70535 
L 230.84222 148.402096 
L 231.325265 146.657718 
L 231.808311 146.657718 
L 232.291356 145.41512 
L 233.740493 143.866133 
L 234.706584 142.921128 
L 235.18963 142.43292 
L 236.155721 142.214432 
L 236.638766 142.215491 
L 237.121812 142.568363 
L 237.604858 142.568363 
L 238.087903 143.238739 
L 239.053994 144.26294 
L 239.53704 144.898591 
L 240.020086 146.390619 
L 240.503131 147.231509 
L 241.469222 150.039599 
L 241.952268 150.538273 
L 242.435313 151.551385 
L 242.918359 153.610141 
L 243.401405 154.638107 
L 244.367496 157.62868 
L 244.850541 158.105417 
L 245.333587 159.034003 
L 245.816633 160.775446 
L 246.299678 161.580376 
L 247.265769 163.696134 
L 247.748815 164.002995 
L 248.23186 164.576638 
L 248.714906 165.561641 
L 250.164043 166.898548 
L 251.130134 167.192148 
L 251.61318 167.423397 
L 253.545362 167.367655 
L 254.511453 167.126501 
L 254.994499 166.877032 
L 255.477544 166.471871 
L 256.926681 165.749028 
L 257.409727 165.219994 
L 257.892772 165.219994 
L 258.375818 164.409973 
L 258.858863 164.276737 
L 259.824954 163.758346 
L 260.308 163.27451 
L 261.274091 162.73831 
L 261.757137 162.461742 
L 262.723228 162.223067 
L 263.206273 161.968468 
L 265.138456 161.677549 
L 266.587593 161.702437 
L 267.070638 161.886385 
L 268.036729 162.031748 
L 268.519775 162.146256 
L 269.485866 162.563174 
L 270.451957 163.06182 
L 271.418048 163.331173 
L 271.901094 163.700747 
L 272.38414 163.700747 
L 272.867185 164.25677 
L 273.833276 164.527451 
L 274.316322 164.703176 
L 274.799367 165.039297 
L 275.282413 165.039297 
L 275.765459 165.494397 
L 276.73155 165.695605 
L 280.595914 166.604058 
L 285.909416 167.266131 
L 286.392461 167.442729 
L 286.875507 167.442729 
L 287.358553 167.789756 
L 288.324644 168.005593 
L 288.807689 168.166451 
L 289.290735 168.52983 
L 289.77378 168.732359 
L 290.739872 169.42421 
L 291.222917 169.551722 
L 291.705963 169.816799 
L 292.189008 170.385675 
L 292.672054 170.688029 
L 294.121191 172.180621 
L 294.604236 172.180621 
L 295.087282 172.902243 
L 295.570327 172.902243 
L 296.053373 174.02941 
L 296.536419 174.220828 
L 297.50251 174.992334 
L 297.985555 175.767706 
L 298.468601 176.154161 
L 299.434692 177.295602 
L 299.917738 177.482017 
L 300.400783 177.850393 
L 300.883829 178.565489 
L 302.332966 179.726563 
L 302.816011 180.327077 
L 303.299057 180.327077 
L 303.782102 180.874757 
L 306.680376 182.373814 
L 308.612558 182.806103 
L 309.578649 182.895917 
L 311.027786 182.827779 
L 312.476923 182.456975 
L 313.443014 182.198933 
L 316.824333 180.525039 
L 317.307379 180.081094 
L 319.239561 179.166473 
L 320.205652 178.371756 
L 320.688698 178.371756 
L 321.171743 177.934002 
L 323.103926 177.020298 
L 323.586971 176.654322 
L 327.451336 175.327181 
L 330.832655 174.718267 
L 333.247883 174.595148 
L 335.180065 174.721686 
L 336.629202 174.933795 
L 342.908794 175.643455 
L 345.324022 175.629873 
L 346.773159 175.499533 
L 349.671433 174.91206 
L 351.603615 174.272797 
L 352.086661 173.882288 
L 352.569706 173.659291 
L 354.018843 172.410267 
L 354.501888 172.410267 
L 354.984934 171.727412 
L 355.46798 171.359575 
L 356.434071 170.164888 
L 356.917116 169.953457 
L 357.400162 169.521831 
L 357.883208 168.629188 
L 358.366253 168.629188 
L 358.849299 167.249204 
L 359.332344 167.017395 
L 360.298435 166.095635 
L 360.781481 165.198024 
L 361.264527 165.198024 
L 361.747572 163.952143 
L 362.230618 163.760999 
L 363.196709 163.056742 
L 363.679755 162.466782 
L 364.1628 162.466782 
L 364.645846 161.842569 
L 366.578028 161.585939 
L 367.061074 161.648339 
L 368.51021 162.349394 
L 368.993256 162.817042 
L 369.476302 163.60803 
L 370.925438 165.12511 
L 371.408484 165.710684 
L 371.891529 166.653284 
L 372.374575 168.014299 
L 372.857621 168.014299 
L 373.340666 169.473625 
L 373.823712 170.232911 
L 375.272848 173.792354 
L 375.755894 173.792354 
L 376.23894 175.396976 
L 376.721985 176.192316 
L 378.171122 179.618328 
L 378.654168 179.618328 
L 379.137213 181.019419 
L 380.103304 182.931222 
L 380.58635 183.224868 
L 381.552441 184.32257 
L 382.035487 185.292061 
L 382.518532 185.726157 
L 383.484623 186.817019 
L 383.967669 186.967382 
L 384.450715 187.24048 
L 384.93376 187.675208 
L 385.416806 187.675208 
L 385.899851 188.04601 
L 387.348988 188.093625 
L 387.832034 187.960833 
L 388.315079 187.960833 
L 388.798125 187.487359 
L 389.28117 187.377108 
L 390.247262 186.850396 
L 390.730307 186.191624 
L 391.213353 185.816213 
L 392.662489 183.787252 
L 393.145535 183.787252 
L 394.111626 181.900467 
L 394.594672 181.034679 
L 395.077717 180.740339 
L 396.043809 179.541471 
L 396.526854 178.322154 
L 397.0099 177.710785 
L 397.975991 175.896412 
L 398.459036 175.599325 
L 398.942082 175.012114 
L 399.425128 173.8728 
L 399.908173 173.8728 
L 400.391219 172.281672 
L 400.874264 172.033363 
L 402.806447 170.060745 
L 403.289492 169.353203 
L 405.221675 168.099253 
L 405.70472 168.099253 
L 406.187766 167.705841 
L 408.119948 167.595606 
L 409.086039 167.752114 
L 411.501267 168.422935 
L 411.984313 168.977841 
L 412.950404 169.279389 
L 413.433449 169.485611 
L 413.916495 169.903653 
L 414.399541 169.903653 
L 414.882586 170.522046 
L 415.848677 170.817597 
L 416.331723 171.006998 
L 416.814769 171.362891 
L 417.297814 171.362891 
L 417.78086 171.82527 
L 419.229996 172.13258 
L 421.645224 172.55717 
L 423.094361 172.553017 
L 425.992635 172.060536 
L 426.958726 171.720379 
L 427.924817 171.396023 
L 428.407862 171.119198 
L 430.82309 170.340212 
L 431.306136 170.070291 
L 431.789182 170.070291 
L 432.272227 169.816325 
L 432.755273 169.696587 
L 432.755273 169.696587 
" clip-path="url(#p4071f5de18)" style="fill: none; stroke: #0000ff; stroke-width: 1.5; stroke-linecap: square"/>
   </g>
   <g id="patch_8">
    <path d="M 70.616 190.3975 
L 70.616 139.92 
" style="fill: none; stroke: #000000; stroke-width: 0.8; stroke-linejoin: miter; stroke-linecap: square"/>
   </g>
   <g id="patch_9">
    <path d="M 450 190.3975 
L 450 139.92 
" style="fill: none; stroke: #000000; stroke-width: 0.8; stroke-linejoin: miter; stroke-linecap: square"/>
   </g>
   <g id="patch_10">
    <path d="M 70.616 190.3975 
L 450 190.3975 
" style="fill: none; stroke: #000000; stroke-width: 0.8; stroke-linejoin: miter; stroke-linecap: square"/>
   </g>
   <g id="patch_11">
    <path d="M 70.616 139.92 
L 450 139.92 
" style="fill: none; stroke: #000000; stroke-width: 0.8; stroke-linejoin: miter; stroke-linecap: square"/>
   </g>
   <g id="text_27">
    <!-- Error in $z$-position -->
    <g transform="translate(207.028 133.92)scale(0.12 -0.12)">
     <use xlink:href="#DejaVuSans-45" transform="translate(0 0.015625)"/>
     <use xlink:href="#DejaVuSans-72" transform="translate(63.183594 0.015625)"/>
     <use xlink:href="#DejaVuSans-72" transform="translate(104.296875 0.015625)"/>
     <use xlink:href="#DejaVuSans-6f" transform="translate(145.410156 0.015625)"/>
     <use xlink:href="#DejaVuSans-72" transform="translate(206.591797 0.015625)"/>
     <use xlink:href="#DejaVuSans-20" transform="translate(247.705078 0.015625)"/>
     <use xlink:href="#DejaVuSans-69" transform="translate(279.492188 0.015625)"/>
     <use xlink:href="#DejaVuSans-6e" transform="translate(307.275391 0.015625)"/>
     <use xlink:href="#DejaVuSans-20" transform="translate(370.654297 0.015625)"/>
     <use xlink:href="#DejaVuSans-Oblique-7a" transform="translate(402.441406 0.015625)"/>
     <use xlink:href="#DejaVuSans-2d" transform="translate(454.931641 0.015625)"/>
     <use xlink:href="#DejaVuSans-70" transform="translate(491.015625 0.015625)"/>
     <use xlink:href="#DejaVuSans-6f" transform="translate(554.492188 0.015625)"/>
     <use xlink:href="#DejaVuSans-73" transform="translate(615.673828 0.015625)"/>
     <use xlink:href="#DejaVuSans-69" transform="translate(667.773438 0.015625)"/>
     <use xlink:href="#DejaVuSans-74" transform="translate(695.556641 0.015625)"/>
     <use xlink:href="#DejaVuSans-69" transform="translate(734.765625 0.015625)"/>
     <use xlink:href="#DejaVuSans-6f" transform="translate(762.548828 0.015625)"/>
     <use xlink:href="#DejaVuSans-6e" transform="translate(823.730469 0.015625)"/>
    </g>
   </g>
  </g>
  <g id="axes_3">
   <g id="patch_12">
    <path d="M 70.616 301.9975 
L 450 301.9975 
L 450 251.52 
L 70.616 251.52 
z
" style="fill: #ffffff"/>
   </g>
   <g id="matplotlib.axis_5">
    <g id="xtick_17">
     <g id="line2d_45">
      <path d="M 87.860727 301.9975 
L 87.860727 251.52 
" clip-path="url(#p9d90ce0707)" style="fill: none; stroke: #b0b0b0; stroke-width: 0.8; stroke-linecap: square"/>
     </g>
     <g id="line2d_46">
      <g>
       <use xlink:href="#mf0c0be186c" x="87.860727" y="301.9975" style="stroke: #000000; stroke-width: 0.8"/>
      </g>
     </g>
     <g id="text_28">
      <!-- 0 -->
      <g transform="translate(84.679477 316.595937)scale(0.1 -0.1)">
       <use xlink:href="#DejaVuSans-30"/>
      </g>
     </g>
    </g>
    <g id="xtick_18">
     <g id="line2d_47">
      <path d="M 136.097727 301.9975 
L 136.097727 251.52 
" clip-path="url(#p9d90ce0707)" style="fill: none; stroke: #b0b0b0; stroke-width: 0.8; stroke-linecap: square"/>
     </g>
     <g id="line2d_48">
      <g>
       <use xlink:href="#mf0c0be186c" x="136.097727" y="301.9975" style="stroke: #000000; stroke-width: 0.8"/>
      </g>
     </g>
     <g id="text_29">
      <!-- 1 -->
      <g transform="translate(132.916477 316.595937)scale(0.1 -0.1)">
       <use xlink:href="#DejaVuSans-31"/>
      </g>
     </g>
    </g>
    <g id="xtick_19">
     <g id="line2d_49">
      <path d="M 184.334726 301.9975 
L 184.334726 251.52 
" clip-path="url(#p9d90ce0707)" style="fill: none; stroke: #b0b0b0; stroke-width: 0.8; stroke-linecap: square"/>
     </g>
     <g id="line2d_50">
      <g>
       <use xlink:href="#mf0c0be186c" x="184.334726" y="301.9975" style="stroke: #000000; stroke-width: 0.8"/>
      </g>
     </g>
     <g id="text_30">
      <!-- 2 -->
      <g transform="translate(181.153476 316.595937)scale(0.1 -0.1)">
       <use xlink:href="#DejaVuSans-32"/>
      </g>
     </g>
    </g>
    <g id="xtick_20">
     <g id="line2d_51">
      <path d="M 232.571725 301.9975 
L 232.571725 251.52 
" clip-path="url(#p9d90ce0707)" style="fill: none; stroke: #b0b0b0; stroke-width: 0.8; stroke-linecap: square"/>
     </g>
     <g id="line2d_52">
      <g>
       <use xlink:href="#mf0c0be186c" x="232.571725" y="301.9975" style="stroke: #000000; stroke-width: 0.8"/>
      </g>
     </g>
     <g id="text_31">
      <!-- 3 -->
      <g transform="translate(229.390475 316.595937)scale(0.1 -0.1)">
       <use xlink:href="#DejaVuSans-33"/>
      </g>
     </g>
    </g>
    <g id="xtick_21">
     <g id="line2d_53">
      <path d="M 280.808725 301.9975 
L 280.808725 251.52 
" clip-path="url(#p9d90ce0707)" style="fill: none; stroke: #b0b0b0; stroke-width: 0.8; stroke-linecap: square"/>
     </g>
     <g id="line2d_54">
      <g>
       <use xlink:href="#mf0c0be186c" x="280.808725" y="301.9975" style="stroke: #000000; stroke-width: 0.8"/>
      </g>
     </g>
     <g id="text_32">
      <!-- 4 -->
      <g transform="translate(277.627475 316.595937)scale(0.1 -0.1)">
       <use xlink:href="#DejaVuSans-34"/>
      </g>
     </g>
    </g>
    <g id="xtick_22">
     <g id="line2d_55">
      <path d="M 329.045724 301.9975 
L 329.045724 251.52 
" clip-path="url(#p9d90ce0707)" style="fill: none; stroke: #b0b0b0; stroke-width: 0.8; stroke-linecap: square"/>
     </g>
     <g id="line2d_56">
      <g>
       <use xlink:href="#mf0c0be186c" x="329.045724" y="301.9975" style="stroke: #000000; stroke-width: 0.8"/>
      </g>
     </g>
     <g id="text_33">
      <!-- 5 -->
      <g transform="translate(325.864474 316.595937)scale(0.1 -0.1)">
       <use xlink:href="#DejaVuSans-35"/>
      </g>
     </g>
    </g>
    <g id="xtick_23">
     <g id="line2d_57">
      <path d="M 377.282723 301.9975 
L 377.282723 251.52 
" clip-path="url(#p9d90ce0707)" style="fill: none; stroke: #b0b0b0; stroke-width: 0.8; stroke-linecap: square"/>
     </g>
     <g id="line2d_58">
      <g>
       <use xlink:href="#mf0c0be186c" x="377.282723" y="301.9975" style="stroke: #000000; stroke-width: 0.8"/>
      </g>
     </g>
     <g id="text_34">
      <!-- 6 -->
      <g transform="translate(374.101473 316.595937)scale(0.1 -0.1)">
       <use xlink:href="#DejaVuSans-36"/>
      </g>
     </g>
    </g>
    <g id="xtick_24">
     <g id="line2d_59">
      <path d="M 425.519723 301.9975 
L 425.519723 251.52 
" clip-path="url(#p9d90ce0707)" style="fill: none; stroke: #b0b0b0; stroke-width: 0.8; stroke-linecap: square"/>
     </g>
     <g id="line2d_60">
      <g>
       <use xlink:href="#mf0c0be186c" x="425.519723" y="301.9975" style="stroke: #000000; stroke-width: 0.8"/>
      </g>
     </g>
     <g id="text_35">
      <!-- 7 -->
      <g transform="translate(422.338473 316.595937)scale(0.1 -0.1)">
       <use xlink:href="#DejaVuSans-37"/>
      </g>
     </g>
    </g>
    <g id="text_36">
     <!-- $t$ [s] -->
     <g transform="translate(250.208 330.274063)scale(0.1 -0.1)">
      <use xlink:href="#DejaVuSans-Oblique-74" transform="translate(0 0.015625)"/>
      <use xlink:href="#DejaVuSans-20" transform="translate(39.208984 0.015625)"/>
      <use xlink:href="#DejaVuSans-5b" transform="translate(70.996094 0.015625)"/>
      <use xlink:href="#DejaVuSans-73" transform="translate(110.009766 0.015625)"/>
      <use xlink:href="#DejaVuSans-5d" transform="translate(162.109375 0.015625)"/>
     </g>
    </g>
   </g>
   <g id="matplotlib.axis_6">
    <g id="ytick_6">
     <g id="line2d_61">
      <path d="M 70.616 296.474817 
L 450 296.474817 
" clip-path="url(#p9d90ce0707)" style="fill: none; stroke: #b0b0b0; stroke-width: 0.8; stroke-linecap: square"/>
     </g>
     <g id="line2d_62">
      <g>
       <use xlink:href="#m099d872173" x="70.616" y="296.474817" style="stroke: #000000; stroke-width: 0.8"/>
      </g>
     </g>
     <g id="text_37">
      <!-- −2.5 -->
      <g transform="translate(39.333187 300.274036)scale(0.1 -0.1)">
       <use xlink:href="#DejaVuSans-2212"/>
       <use xlink:href="#DejaVuSans-32" x="83.789062"/>
       <use xlink:href="#DejaVuSans-2e" x="147.412109"/>
       <use xlink:href="#DejaVuSans-35" x="179.199219"/>
      </g>
     </g>
    </g>
    <g id="ytick_7">
     <g id="line2d_63">
      <path d="M 70.616 276.945424 
L 450 276.945424 
" clip-path="url(#p9d90ce0707)" style="fill: none; stroke: #b0b0b0; stroke-width: 0.8; stroke-linecap: square"/>
     </g>
     <g id="line2d_64">
      <g>
       <use xlink:href="#m099d872173" x="70.616" y="276.945424" style="stroke: #000000; stroke-width: 0.8"/>
      </g>
     </g>
     <g id="text_38">
      <!-- 0.0 -->
      <g transform="translate(47.712875 280.744643)scale(0.1 -0.1)">
       <use xlink:href="#DejaVuSans-30"/>
       <use xlink:href="#DejaVuSans-2e" x="63.623047"/>
       <use xlink:href="#DejaVuSans-30" x="95.410156"/>
      </g>
     </g>
    </g>
    <g id="ytick_8">
     <g id="line2d_65">
      <path d="M 70.616 257.416032 
L 450 257.416032 
" clip-path="url(#p9d90ce0707)" style="fill: none; stroke: #b0b0b0; stroke-width: 0.8; stroke-linecap: square"/>
     </g>
     <g id="line2d_66">
      <g>
       <use xlink:href="#m099d872173" x="70.616" y="257.416032" style="stroke: #000000; stroke-width: 0.8"/>
      </g>
     </g>
     <g id="text_39">
      <!-- 2.5 -->
      <g transform="translate(47.712875 261.21525)scale(0.1 -0.1)">
       <use xlink:href="#DejaVuSans-32"/>
       <use xlink:href="#DejaVuSans-2e" x="63.623047"/>
       <use xlink:href="#DejaVuSans-35" x="95.410156"/>
      </g>
     </g>
    </g>
    <g id="text_40">
     <!-- $e_\theta$ [rad] -->
     <g transform="translate(33.2535 295.90875)rotate(-90)scale(0.1 -0.1)">
      <defs>
       <path id="DejaVuSans-Oblique-3b8" d="M 2913 2219 
L 925 2219 
Q 791 1284 928 888 
Q 1100 400 1566 400 
Q 2034 400 2391 891 
Q 2703 1322 2913 2219 
z
M 3009 2750 
Q 3094 3638 2984 3950 
Q 2813 4444 2353 4444 
Q 1875 4444 1525 3956 
Q 1250 3563 1034 2750 
L 3009 2750 
z
M 2444 4913 
Q 3194 4913 3494 4250 
Q 3794 3591 3566 2422 
Q 3341 1256 2781 594 
Q 2225 -72 1475 -72 
Q 722 -72 425 594 
Q 128 1256 353 2422 
Q 581 3591 1134 4250 
Q 1691 4913 2444 4913 
z
" transform="scale(0.015625)"/>
       <path id="DejaVuSans-61" d="M 2194 1759 
Q 1497 1759 1228 1600 
Q 959 1441 959 1056 
Q 959 750 1161 570 
Q 1363 391 1709 391 
Q 2188 391 2477 730 
Q 2766 1069 2766 1631 
L 2766 1759 
L 2194 1759 
z
M 3341 1997 
L 3341 0 
L 2766 0 
L 2766 531 
Q 2569 213 2275 61 
Q 1981 -91 1556 -91 
Q 1019 -91 701 211 
Q 384 513 384 1019 
Q 384 1609 779 1909 
Q 1175 2209 1959 2209 
L 2766 2209 
L 2766 2266 
Q 2766 2663 2505 2880 
Q 2244 3097 1772 3097 
Q 1472 3097 1187 3025 
Q 903 2953 641 2809 
L 641 3341 
Q 956 3463 1253 3523 
Q 1550 3584 1831 3584 
Q 2591 3584 2966 3190 
Q 3341 2797 3341 1997 
z
" transform="scale(0.015625)"/>
       <path id="DejaVuSans-64" d="M 2906 2969 
L 2906 4863 
L 3481 4863 
L 3481 0 
L 2906 0 
L 2906 525 
Q 2725 213 2448 61 
Q 2172 -91 1784 -91 
Q 1150 -91 751 415 
Q 353 922 353 1747 
Q 353 2572 751 3078 
Q 1150 3584 1784 3584 
Q 2172 3584 2448 3432 
Q 2725 3281 2906 2969 
z
M 947 1747 
Q 947 1113 1208 752 
Q 1469 391 1925 391 
Q 2381 391 2643 752 
Q 2906 1113 2906 1747 
Q 2906 2381 2643 2742 
Q 2381 3103 1925 3103 
Q 1469 3103 1208 2742 
Q 947 2381 947 1747 
z
" transform="scale(0.015625)"/>
      </defs>
      <use xlink:href="#DejaVuSans-Oblique-65" transform="translate(0 0.015625)"/>
      <use xlink:href="#DejaVuSans-Oblique-3b8" transform="translate(61.523438 -16.390625)scale(0.7)"/>
      <use xlink:href="#DejaVuSans-20" transform="translate(107.084961 0.015625)"/>
      <use xlink:href="#DejaVuSans-5b" transform="translate(138.87207 0.015625)"/>
      <use xlink:href="#DejaVuSans-72" transform="translate(177.885742 0.015625)"/>
      <use xlink:href="#DejaVuSans-61" transform="translate(218.999023 0.015625)"/>
      <use xlink:href="#DejaVuSans-64" transform="translate(280.27832 0.015625)"/>
      <use xlink:href="#DejaVuSans-5d" transform="translate(343.754883 0.015625)"/>
     </g>
    </g>
   </g>
   <g id="line2d_67">
    <path d="M 87.860727 264.683771 
L 89.79291 264.65779 
L 90.275955 264.501763 
L 91.725092 264.287421 
L 92.208138 264.089439 
L 92.691183 264.089439 
L 93.174229 263.788773 
L 94.623365 263.549231 
L 95.106411 263.367781 
L 95.589457 263.367781 
L 96.072502 263.113587 
L 97.521639 262.920721 
L 98.004684 262.780436 
L 98.48773 262.780436 
L 98.970776 262.592964 
L 100.419912 262.457568 
L 101.869049 262.232962 
L 104.284277 262.056854 
L 106.699505 261.867628 
L 108.631687 261.772752 
L 117.809553 261.527694 
L 124.572191 261.616082 
L 127.470465 261.718387 
L 132.783966 261.927776 
L 142.444878 262.294795 
L 151.622744 262.387367 
L 161.766701 262.142033 
L 167.563248 261.943192 
L 171.427613 261.838381 
L 182.537661 261.716591 
L 193.64771 261.98529 
L 206.206895 262.533028 
L 208.622123 262.928116 
L 209.105168 263.252031 
L 210.071259 263.434104 
L 210.554305 263.5627 
L 211.037351 263.837508 
L 211.520396 263.837508 
L 212.003442 264.271829 
L 212.969533 264.492339 
L 213.452579 264.636374 
L 213.935624 264.985243 
L 214.41867 264.985243 
L 214.901715 265.247589 
L 220.215217 266.532601 
L 221.664353 266.67934 
L 225.045673 266.868256 
L 227.4609 266.657589 
L 227.943946 266.556211 
L 228.426992 266.060558 
L 228.910037 266.060558 
L 229.393083 264.911307 
L 229.876128 263.315056 
L 230.359174 258.783778 
L 230.84222 299.703068 
L 231.325265 294.287965 
L 231.808311 294.287965 
L 232.291356 293.47895 
L 233.257447 293.110326 
L 235.672675 292.601167 
L 249.680997 291.273997 
L 254.028407 291.089191 
L 263.689319 290.926852 
L 270.935003 291.077915 
L 278.180687 291.391881 
L 286.392461 291.725415 
L 291.222917 291.83439 
L 298.468601 291.814541 
L 327.934381 291.211507 
L 335.180065 291.212175 
L 340.010521 290.579945 
L 341.459658 290.179643 
L 342.908794 289.955878 
L 344.357931 289.474062 
L 345.807068 289.221313 
L 346.773159 288.911772 
L 348.222296 288.548533 
L 349.671433 288.155801 
L 351.120569 287.850562 
L 356.434071 287.077368 
L 358.849299 287.114073 
L 359.81539 287.212264 
L 360.298435 287.319403 
L 360.781481 287.737143 
L 361.264527 287.737143 
L 361.747572 291.146046 
L 362.230618 293.69009 
L 362.713663 253.814432 
L 363.196709 258.006015 
L 363.679755 259.998306 
L 364.1628 259.998306 
L 364.645846 260.74168 
L 367.061074 261.150926 
L 368.51021 261.335907 
L 375.272848 262.134716 
L 376.23894 262.226747 
L 379.620259 262.658329 
L 383.484623 263.154137 
L 385.416806 263.320648 
L 386.382897 263.479332 
L 396.526854 264.281511 
L 410.535176 264.874906 
L 413.916495 265.128188 
L 415.365632 265.231447 
L 420.196088 265.612741 
L 422.12827 265.784147 
L 425.509589 266.131245 
L 427.441771 266.541393 
L 427.924817 266.75831 
L 428.890908 267.845111 
L 429.373954 268.992501 
L 429.856999 272.443113 
L 430.340045 282.1365 
L 430.82309 287.663768 
L 431.306136 289.026204 
L 431.789182 289.026204 
L 432.272227 289.482683 
L 432.755273 289.610681 
L 432.755273 289.610681 
" clip-path="url(#p9d90ce0707)" style="fill: none; stroke: #008000; stroke-width: 1.5; stroke-linecap: square"/>
   </g>
   <g id="patch_13">
    <path d="M 70.616 301.9975 
L 70.616 251.52 
" style="fill: none; stroke: #000000; stroke-width: 0.8; stroke-linejoin: miter; stroke-linecap: square"/>
   </g>
   <g id="patch_14">
    <path d="M 450 301.9975 
L 450 251.52 
" style="fill: none; stroke: #000000; stroke-width: 0.8; stroke-linejoin: miter; stroke-linecap: square"/>
   </g>
   <g id="patch_15">
    <path d="M 70.616 301.9975 
L 450 301.9975 
" style="fill: none; stroke: #000000; stroke-width: 0.8; stroke-linejoin: miter; stroke-linecap: square"/>
   </g>
   <g id="patch_16">
    <path d="M 70.616 251.52 
L 450 251.52 
" style="fill: none; stroke: #000000; stroke-width: 0.8; stroke-linejoin: miter; stroke-linecap: square"/>
   </g>
   <g id="text_41">
    <!-- Error in swing angle -->
    <g transform="translate(200.537688 245.52)scale(0.12 -0.12)">
     <defs>
      <path id="DejaVuSans-77" d="M 269 3500 
L 844 3500 
L 1563 769 
L 2278 3500 
L 2956 3500 
L 3675 769 
L 4391 3500 
L 4966 3500 
L 4050 0 
L 3372 0 
L 2619 2869 
L 1863 0 
L 1184 0 
L 269 3500 
z
" transform="scale(0.015625)"/>
      <path id="DejaVuSans-67" d="M 2906 1791 
Q 2906 2416 2648 2759 
Q 2391 3103 1925 3103 
Q 1463 3103 1205 2759 
Q 947 2416 947 1791 
Q 947 1169 1205 825 
Q 1463 481 1925 481 
Q 2391 481 2648 825 
Q 2906 1169 2906 1791 
z
M 3481 434 
Q 3481 -459 3084 -895 
Q 2688 -1331 1869 -1331 
Q 1566 -1331 1297 -1286 
Q 1028 -1241 775 -1147 
L 775 -588 
Q 1028 -725 1275 -790 
Q 1522 -856 1778 -856 
Q 2344 -856 2625 -561 
Q 2906 -266 2906 331 
L 2906 616 
Q 2728 306 2450 153 
Q 2172 0 1784 0 
Q 1141 0 747 490 
Q 353 981 353 1791 
Q 353 2603 747 3093 
Q 1141 3584 1784 3584 
Q 2172 3584 2450 3431 
Q 2728 3278 2906 2969 
L 2906 3500 
L 3481 3500 
L 3481 434 
z
" transform="scale(0.015625)"/>
      <path id="DejaVuSans-6c" d="M 603 4863 
L 1178 4863 
L 1178 0 
L 603 0 
L 603 4863 
z
" transform="scale(0.015625)"/>
      <path id="DejaVuSans-65" d="M 3597 1894 
L 3597 1613 
L 953 1613 
Q 991 1019 1311 708 
Q 1631 397 2203 397 
Q 2534 397 2845 478 
Q 3156 559 3463 722 
L 3463 178 
Q 3153 47 2828 -22 
Q 2503 -91 2169 -91 
Q 1331 -91 842 396 
Q 353 884 353 1716 
Q 353 2575 817 3079 
Q 1281 3584 2069 3584 
Q 2775 3584 3186 3129 
Q 3597 2675 3597 1894 
z
M 3022 2063 
Q 3016 2534 2758 2815 
Q 2500 3097 2075 3097 
Q 1594 3097 1305 2825 
Q 1016 2553 972 2059 
L 3022 2063 
z
" transform="scale(0.015625)"/>
     </defs>
     <use xlink:href="#DejaVuSans-45"/>
     <use xlink:href="#DejaVuSans-72" x="63.183594"/>
     <use xlink:href="#DejaVuSans-72" x="102.546875"/>
     <use xlink:href="#DejaVuSans-6f" x="141.410156"/>
     <use xlink:href="#DejaVuSans-72" x="202.591797"/>
     <use xlink:href="#DejaVuSans-20" x="243.705078"/>
     <use xlink:href="#DejaVuSans-69" x="275.492188"/>
     <use xlink:href="#DejaVuSans-6e" x="303.275391"/>
     <use xlink:href="#DejaVuSans-20" x="366.654297"/>
     <use xlink:href="#DejaVuSans-73" x="398.441406"/>
     <use xlink:href="#DejaVuSans-77" x="450.541016"/>
     <use xlink:href="#DejaVuSans-69" x="532.328125"/>
     <use xlink:href="#DejaVuSans-6e" x="560.111328"/>
     <use xlink:href="#DejaVuSans-67" x="623.490234"/>
     <use xlink:href="#DejaVuSans-20" x="686.966797"/>
     <use xlink:href="#DejaVuSans-61" x="718.753906"/>
     <use xlink:href="#DejaVuSans-6e" x="780.033203"/>
     <use xlink:href="#DejaVuSans-67" x="843.412109"/>
     <use xlink:href="#DejaVuSans-6c" x="906.888672"/>
     <use xlink:href="#DejaVuSans-65" x="934.671875"/>
    </g>
   </g>
  </g>
 </g>
 <defs>
  <clipPath id="p0ee013ace6">
   <rect x="70.616" y="28.32" width="379.384" height="50.4775"/>
  </clipPath>
  <clipPath id="p4071f5de18">
   <rect x="70.616" y="139.92" width="379.384" height="50.4775"/>
  </clipPath>
  <clipPath id="p9d90ce0707">
   <rect x="70.616" y="251.52" width="379.384" height="50.4775"/>
  </clipPath>
 </defs>
</svg>
