<?xml version="1.0" encoding="utf-8" standalone="no"?>
<!DOCTYPE svg PUBLIC "-//W3C//DTD SVG 1.1//EN"
  "http://www.w3.org/Graphics/SVG/1.1/DTD/svg11.dtd">
<svg xmlns:xlink="http://www.w3.org/1999/xlink" width="460.8pt" height="345.6pt" viewBox="0 0 460.8 345.6" xmlns="http://www.w3.org/2000/svg" version="1.1">
 <metadata>
  <rdf:RDF xmlns:dc="http://purl.org/dc/elements/1.1/" xmlns:cc="http://creativecommons.org/ns#" xmlns:rdf="http://www.w3.org/1999/02/22-rdf-syntax-ns#">
   <cc:Work>
    <dc:type rdf:resource="http://purl.org/dc/dcmitype/StillImage"/>
    <dc:date>2022-06-05T14:25:31.975575</dc:date>
    <dc:format>image/svg+xml</dc:format>
    <dc:creator>
     <cc:Agent>
      <dc:title>Matplotlib v3.5.1, https://matplotlib.org/</dc:title>
     </cc:Agent>
    </dc:creator>
   </cc:Work>
  </rdf:RDF>
 </metadata>
 <defs>
  <style type="text/css">*{stroke-linejoin: round; stroke-linecap: butt}</style>
 </defs>
 <g id="figure_1">
  <g id="patch_1">
   <path d="M 0 345.6 
L 460.8 345.6 
L 460.8 0 
L 0 0 
z
" style="fill: #ffffff"/>
  </g>
  <g id="axes_1">
   <g id="patch_2">
    <path d="M 58.106 78.7975 
L 450 78.7975 
L 450 28.32 
L 58.106 28.32 
z
" style="fill: #ffffff"/>
   </g>
   <g id="matplotlib.axis_1">
    <g id="xtick_1">
     <g id="line2d_1">
      <path d="M 75.919364 78.7975 
L 75.919364 28.32 
" clip-path="url(#pefb3e999f6)" style="fill: none; stroke: #b0b0b0; stroke-width: 0.8; stroke-linecap: square"/>
     </g>
     <g id="line2d_2">
      <defs>
       <path id="m8ab20d70e3" d="M 0 0 
L 0 3.5 
" style="stroke: #000000; stroke-width: 0.8"/>
      </defs>
      <g>
       <use xlink:href="#m8ab20d70e3" x="75.919364" y="78.7975" style="stroke: #000000; stroke-width: 0.8"/>
      </g>
     </g>
     <g id="text_1">
      <!-- 0 -->
      <g transform="translate(72.738114 93.395937)scale(0.1 -0.1)">
       <defs>
        <path id="DejaVuSans-30" d="M 2034 4250 
Q 1547 4250 1301 3770 
Q 1056 3291 1056 2328 
Q 1056 1369 1301 889 
Q 1547 409 2034 409 
Q 2525 409 2770 889 
Q 3016 1369 3016 2328 
Q 3016 3291 2770 3770 
Q 2525 4250 2034 4250 
z
M 2034 4750 
Q 2819 4750 3233 4129 
Q 3647 3509 3647 2328 
Q 3647 1150 3233 529 
Q 2819 -91 2034 -91 
Q 1250 -91 836 529 
Q 422 1150 422 2328 
Q 422 3509 836 4129 
Q 1250 4750 2034 4750 
z
" transform="scale(0.015625)"/>
       </defs>
       <use xlink:href="#DejaVuSans-30"/>
      </g>
     </g>
    </g>
    <g id="xtick_2">
     <g id="line2d_3">
      <path d="M 134.904011 78.7975 
L 134.904011 28.32 
" clip-path="url(#pefb3e999f6)" style="fill: none; stroke: #b0b0b0; stroke-width: 0.8; stroke-linecap: square"/>
     </g>
     <g id="line2d_4">
      <g>
       <use xlink:href="#m8ab20d70e3" x="134.904011" y="78.7975" style="stroke: #000000; stroke-width: 0.8"/>
      </g>
     </g>
     <g id="text_2">
      <!-- 2 -->
      <g transform="translate(131.722761 93.395937)scale(0.1 -0.1)">
       <defs>
        <path id="DejaVuSans-32" d="M 1228 531 
L 3431 531 
L 3431 0 
L 469 0 
L 469 531 
Q 828 903 1448 1529 
Q 2069 2156 2228 2338 
Q 2531 2678 2651 2914 
Q 2772 3150 2772 3378 
Q 2772 3750 2511 3984 
Q 2250 4219 1831 4219 
Q 1534 4219 1204 4116 
Q 875 4013 500 3803 
L 500 4441 
Q 881 4594 1212 4672 
Q 1544 4750 1819 4750 
Q 2544 4750 2975 4387 
Q 3406 4025 3406 3419 
Q 3406 3131 3298 2873 
Q 3191 2616 2906 2266 
Q 2828 2175 2409 1742 
Q 1991 1309 1228 531 
z
" transform="scale(0.015625)"/>
       </defs>
       <use xlink:href="#DejaVuSans-32"/>
      </g>
     </g>
    </g>
    <g id="xtick_3">
     <g id="line2d_5">
      <path d="M 193.888659 78.7975 
L 193.888659 28.32 
" clip-path="url(#pefb3e999f6)" style="fill: none; stroke: #b0b0b0; stroke-width: 0.8; stroke-linecap: square"/>
     </g>
     <g id="line2d_6">
      <g>
       <use xlink:href="#m8ab20d70e3" x="193.888659" y="78.7975" style="stroke: #000000; stroke-width: 0.8"/>
      </g>
     </g>
     <g id="text_3">
      <!-- 4 -->
      <g transform="translate(190.707409 93.395937)scale(0.1 -0.1)">
       <defs>
        <path id="DejaVuSans-34" d="M 2419 4116 
L 825 1625 
L 2419 1625 
L 2419 4116 
z
M 2253 4666 
L 3047 4666 
L 3047 1625 
L 3713 1625 
L 3713 1100 
L 3047 1100 
L 3047 0 
L 2419 0 
L 2419 1100 
L 313 1100 
L 313 1709 
L 2253 4666 
z
" transform="scale(0.015625)"/>
       </defs>
       <use xlink:href="#DejaVuSans-34"/>
      </g>
     </g>
    </g>
    <g id="xtick_4">
     <g id="line2d_7">
      <path d="M 252.873307 78.7975 
L 252.873307 28.32 
" clip-path="url(#pefb3e999f6)" style="fill: none; stroke: #b0b0b0; stroke-width: 0.8; stroke-linecap: square"/>
     </g>
     <g id="line2d_8">
      <g>
       <use xlink:href="#m8ab20d70e3" x="252.873307" y="78.7975" style="stroke: #000000; stroke-width: 0.8"/>
      </g>
     </g>
     <g id="text_4">
      <!-- 6 -->
      <g transform="translate(249.692057 93.395937)scale(0.1 -0.1)">
       <defs>
        <path id="DejaVuSans-36" d="M 2113 2584 
Q 1688 2584 1439 2293 
Q 1191 2003 1191 1497 
Q 1191 994 1439 701 
Q 1688 409 2113 409 
Q 2538 409 2786 701 
Q 3034 994 3034 1497 
Q 3034 2003 2786 2293 
Q 2538 2584 2113 2584 
z
M 3366 4563 
L 3366 3988 
Q 3128 4100 2886 4159 
Q 2644 4219 2406 4219 
Q 1781 4219 1451 3797 
Q 1122 3375 1075 2522 
Q 1259 2794 1537 2939 
Q 1816 3084 2150 3084 
Q 2853 3084 3261 2657 
Q 3669 2231 3669 1497 
Q 3669 778 3244 343 
Q 2819 -91 2113 -91 
Q 1303 -91 875 529 
Q 447 1150 447 2328 
Q 447 3434 972 4092 
Q 1497 4750 2381 4750 
Q 2619 4750 2861 4703 
Q 3103 4656 3366 4563 
z
" transform="scale(0.015625)"/>
       </defs>
       <use xlink:href="#DejaVuSans-36"/>
      </g>
     </g>
    </g>
    <g id="xtick_5">
     <g id="line2d_9">
      <path d="M 311.857955 78.7975 
L 311.857955 28.32 
" clip-path="url(#pefb3e999f6)" style="fill: none; stroke: #b0b0b0; stroke-width: 0.8; stroke-linecap: square"/>
     </g>
     <g id="line2d_10">
      <g>
       <use xlink:href="#m8ab20d70e3" x="311.857955" y="78.7975" style="stroke: #000000; stroke-width: 0.8"/>
      </g>
     </g>
     <g id="text_5">
      <!-- 8 -->
      <g transform="translate(308.676705 93.395937)scale(0.1 -0.1)">
       <defs>
        <path id="DejaVuSans-38" d="M 2034 2216 
Q 1584 2216 1326 1975 
Q 1069 1734 1069 1313 
Q 1069 891 1326 650 
Q 1584 409 2034 409 
Q 2484 409 2743 651 
Q 3003 894 3003 1313 
Q 3003 1734 2745 1975 
Q 2488 2216 2034 2216 
z
M 1403 2484 
Q 997 2584 770 2862 
Q 544 3141 544 3541 
Q 544 4100 942 4425 
Q 1341 4750 2034 4750 
Q 2731 4750 3128 4425 
Q 3525 4100 3525 3541 
Q 3525 3141 3298 2862 
Q 3072 2584 2669 2484 
Q 3125 2378 3379 2068 
Q 3634 1759 3634 1313 
Q 3634 634 3220 271 
Q 2806 -91 2034 -91 
Q 1263 -91 848 271 
Q 434 634 434 1313 
Q 434 1759 690 2068 
Q 947 2378 1403 2484 
z
M 1172 3481 
Q 1172 3119 1398 2916 
Q 1625 2713 2034 2713 
Q 2441 2713 2670 2916 
Q 2900 3119 2900 3481 
Q 2900 3844 2670 4047 
Q 2441 4250 2034 4250 
Q 1625 4250 1398 4047 
Q 1172 3844 1172 3481 
z
" transform="scale(0.015625)"/>
       </defs>
       <use xlink:href="#DejaVuSans-38"/>
      </g>
     </g>
    </g>
    <g id="xtick_6">
     <g id="line2d_11">
      <path d="M 370.842603 78.7975 
L 370.842603 28.32 
" clip-path="url(#pefb3e999f6)" style="fill: none; stroke: #b0b0b0; stroke-width: 0.8; stroke-linecap: square"/>
     </g>
     <g id="line2d_12">
      <g>
       <use xlink:href="#m8ab20d70e3" x="370.842603" y="78.7975" style="stroke: #000000; stroke-width: 0.8"/>
      </g>
     </g>
     <g id="text_6">
      <!-- 10 -->
      <g transform="translate(364.480103 93.395937)scale(0.1 -0.1)">
       <defs>
        <path id="DejaVuSans-31" d="M 794 531 
L 1825 531 
L 1825 4091 
L 703 3866 
L 703 4441 
L 1819 4666 
L 2450 4666 
L 2450 531 
L 3481 531 
L 3481 0 
L 794 0 
L 794 531 
z
" transform="scale(0.015625)"/>
       </defs>
       <use xlink:href="#DejaVuSans-31"/>
       <use xlink:href="#DejaVuSans-30" x="63.623047"/>
      </g>
     </g>
    </g>
    <g id="xtick_7">
     <g id="line2d_13">
      <path d="M 429.82725 78.7975 
L 429.82725 28.32 
" clip-path="url(#pefb3e999f6)" style="fill: none; stroke: #b0b0b0; stroke-width: 0.8; stroke-linecap: square"/>
     </g>
     <g id="line2d_14">
      <g>
       <use xlink:href="#m8ab20d70e3" x="429.82725" y="78.7975" style="stroke: #000000; stroke-width: 0.8"/>
      </g>
     </g>
     <g id="text_7">
      <!-- 12 -->
      <g transform="translate(423.46475 93.395937)scale(0.1 -0.1)">
       <use xlink:href="#DejaVuSans-31"/>
       <use xlink:href="#DejaVuSans-32" x="63.623047"/>
      </g>
     </g>
    </g>
    <g id="text_8">
     <!-- $t$ [s] -->
     <g transform="translate(243.953 107.074062)scale(0.1 -0.1)">
      <defs>
       <path id="DejaVuSans-Oblique-74" d="M 2706 3500 
L 2619 3053 
L 1472 3053 
L 1100 1153 
Q 1081 1047 1072 975 
Q 1063 903 1063 863 
Q 1063 663 1183 572 
Q 1303 481 1569 481 
L 2150 481 
L 2053 0 
L 1503 0 
Q 991 0 739 200 
Q 488 400 488 806 
Q 488 878 497 964 
Q 506 1050 525 1153 
L 897 3053 
L 409 3053 
L 500 3500 
L 978 3500 
L 1172 4494 
L 1747 4494 
L 1556 3500 
L 2706 3500 
z
" transform="scale(0.015625)"/>
       <path id="DejaVuSans-20" transform="scale(0.015625)"/>
       <path id="DejaVuSans-5b" d="M 550 4863 
L 1875 4863 
L 1875 4416 
L 1125 4416 
L 1125 -397 
L 1875 -397 
L 1875 -844 
L 550 -844 
L 550 4863 
z
" transform="scale(0.015625)"/>
       <path id="DejaVuSans-73" d="M 2834 3397 
L 2834 2853 
Q 2591 2978 2328 3040 
Q 2066 3103 1784 3103 
Q 1356 3103 1142 2972 
Q 928 2841 928 2578 
Q 928 2378 1081 2264 
Q 1234 2150 1697 2047 
L 1894 2003 
Q 2506 1872 2764 1633 
Q 3022 1394 3022 966 
Q 3022 478 2636 193 
Q 2250 -91 1575 -91 
Q 1294 -91 989 -36 
Q 684 19 347 128 
L 347 722 
Q 666 556 975 473 
Q 1284 391 1588 391 
Q 1994 391 2212 530 
Q 2431 669 2431 922 
Q 2431 1156 2273 1281 
Q 2116 1406 1581 1522 
L 1381 1569 
Q 847 1681 609 1914 
Q 372 2147 372 2553 
Q 372 3047 722 3315 
Q 1072 3584 1716 3584 
Q 2034 3584 2315 3537 
Q 2597 3491 2834 3397 
z
" transform="scale(0.015625)"/>
       <path id="DejaVuSans-5d" d="M 1947 4863 
L 1947 -844 
L 622 -844 
L 622 -397 
L 1369 -397 
L 1369 4416 
L 622 4416 
L 622 4863 
L 1947 4863 
z
" transform="scale(0.015625)"/>
      </defs>
      <use xlink:href="#DejaVuSans-Oblique-74" transform="translate(0 0.015625)"/>
      <use xlink:href="#DejaVuSans-20" transform="translate(39.208984 0.015625)"/>
      <use xlink:href="#DejaVuSans-5b" transform="translate(70.996094 0.015625)"/>
      <use xlink:href="#DejaVuSans-73" transform="translate(110.009766 0.015625)"/>
      <use xlink:href="#DejaVuSans-5d" transform="translate(162.109375 0.015625)"/>
     </g>
    </g>
   </g>
   <g id="matplotlib.axis_2">
    <g id="ytick_1">
     <g id="line2d_15">
      <path d="M 58.106 76.490025 
L 450 76.490025 
" clip-path="url(#pefb3e999f6)" style="fill: none; stroke: #b0b0b0; stroke-width: 0.8; stroke-linecap: square"/>
     </g>
     <g id="line2d_16">
      <defs>
       <path id="m18aaa7cb4c" d="M 0 0 
L -3.5 0 
" style="stroke: #000000; stroke-width: 0.8"/>
      </defs>
      <g>
       <use xlink:href="#m18aaa7cb4c" x="58.106" y="76.490025" style="stroke: #000000; stroke-width: 0.8"/>
      </g>
     </g>
     <g id="text_9">
      <!-- 0 -->
      <g transform="translate(44.7435 80.289244)scale(0.1 -0.1)">
       <use xlink:href="#DejaVuSans-30"/>
      </g>
     </g>
    </g>
    <g id="ytick_2">
     <g id="line2d_17">
      <path d="M 58.106 30.614427 
L 450 30.614427 
" clip-path="url(#pefb3e999f6)" style="fill: none; stroke: #b0b0b0; stroke-width: 0.8; stroke-linecap: square"/>
     </g>
     <g id="line2d_18">
      <g>
       <use xlink:href="#m18aaa7cb4c" x="58.106" y="30.614427" style="stroke: #000000; stroke-width: 0.8"/>
      </g>
     </g>
     <g id="text_10">
      <!-- 10 -->
      <g transform="translate(38.381 34.413646)scale(0.1 -0.1)">
       <use xlink:href="#DejaVuSans-31"/>
       <use xlink:href="#DejaVuSans-30" x="63.623047"/>
      </g>
     </g>
    </g>
    <g id="text_11">
     <!-- $e_x$ [m] -->
     <g transform="translate(32.301313 69.20875)rotate(-90)scale(0.1 -0.1)">
      <defs>
       <path id="DejaVuSans-Oblique-65" d="M 3078 2063 
Q 3088 2113 3092 2166 
Q 3097 2219 3097 2272 
Q 3097 2653 2873 2875 
Q 2650 3097 2266 3097 
Q 1838 3097 1509 2826 
Q 1181 2556 1013 2059 
L 3078 2063 
z
M 3578 1613 
L 903 1613 
Q 884 1494 878 1425 
Q 872 1356 872 1306 
Q 872 872 1139 634 
Q 1406 397 1894 397 
Q 2269 397 2603 481 
Q 2938 566 3225 728 
L 3116 159 
Q 2806 34 2476 -28 
Q 2147 -91 1806 -91 
Q 1078 -91 686 257 
Q 294 606 294 1247 
Q 294 1794 489 2264 
Q 684 2734 1063 3103 
Q 1306 3334 1642 3459 
Q 1978 3584 2356 3584 
Q 2950 3584 3301 3228 
Q 3653 2872 3653 2272 
Q 3653 2128 3634 1964 
Q 3616 1800 3578 1613 
z
" transform="scale(0.015625)"/>
       <path id="DejaVuSans-Oblique-78" d="M 3841 3500 
L 2234 1784 
L 3219 0 
L 2559 0 
L 1819 1388 
L 531 0 
L -166 0 
L 1556 1844 
L 641 3500 
L 1300 3500 
L 1972 2234 
L 3144 3500 
L 3841 3500 
z
" transform="scale(0.015625)"/>
       <path id="DejaVuSans-6d" d="M 3328 2828 
Q 3544 3216 3844 3400 
Q 4144 3584 4550 3584 
Q 5097 3584 5394 3201 
Q 5691 2819 5691 2113 
L 5691 0 
L 5113 0 
L 5113 2094 
Q 5113 2597 4934 2840 
Q 4756 3084 4391 3084 
Q 3944 3084 3684 2787 
Q 3425 2491 3425 1978 
L 3425 0 
L 2847 0 
L 2847 2094 
Q 2847 2600 2669 2842 
Q 2491 3084 2119 3084 
Q 1678 3084 1418 2786 
Q 1159 2488 1159 1978 
L 1159 0 
L 581 0 
L 581 3500 
L 1159 3500 
L 1159 2956 
Q 1356 3278 1631 3431 
Q 1906 3584 2284 3584 
Q 2666 3584 2933 3390 
Q 3200 3197 3328 2828 
z
" transform="scale(0.015625)"/>
      </defs>
      <use xlink:href="#DejaVuSans-Oblique-65" transform="translate(0 0.015625)"/>
      <use xlink:href="#DejaVuSans-Oblique-78" transform="translate(61.523438 -16.390625)scale(0.7)"/>
      <use xlink:href="#DejaVuSans-20" transform="translate(105.683594 0.015625)"/>
      <use xlink:href="#DejaVuSans-5b" transform="translate(137.470703 0.015625)"/>
      <use xlink:href="#DejaVuSans-6d" transform="translate(176.484375 0.015625)"/>
      <use xlink:href="#DejaVuSans-5d" transform="translate(273.896484 0.015625)"/>
     </g>
    </g>
   </g>
   <g id="line2d_19">
    <path d="M 75.919364 30.614432 
L 82.41305 30.715132 
L 87.726067 30.933788 
L 95.695592 31.252697 
L 101.894111 31.895373 
L 103.074781 32.054729 
L 106.616792 32.541426 
L 108.09263 32.757881 
L 110.158803 33.06325 
L 111.044306 33.236208 
L 114.291149 33.764022 
L 115.176652 33.930964 
L 117.242825 34.29418 
L 118.423496 34.53766 
L 121.080004 35.034537 
L 124.622015 35.889879 
L 124.917182 35.889879 
L 125.21235 36.057753 
L 126.097853 36.198485 
L 126.983356 36.482259 
L 128.164026 36.6832 
L 131.115702 37.453732 
L 133.181875 37.97759 
L 134.95288 38.44862 
L 137.019053 38.987349 
L 139.675562 39.747844 
L 142.036902 40.340347 
L 142.922405 40.646521 
L 143.807908 40.797919 
L 144.103075 40.948061 
L 144.398243 40.948061 
L 144.988578 41.126423 
L 147.349919 41.676501 
L 148.530589 42.012863 
L 150.596762 42.508585 
L 151.187097 42.618018 
L 154.138773 43.270493 
L 155.024276 43.48638 
L 157.680784 44.074962 
L 158.566287 44.286845 
L 160.927628 44.808724 
L 161.81313 45.012938 
L 164.174471 45.51239 
L 166.240644 45.9541 
L 167.126147 46.124245 
L 169.487487 46.603879 
L 171.553661 47.00976 
L 174.210169 47.535644 
L 175.095672 47.722256 
L 177.75218 48.220278 
L 178.637683 48.400337 
L 181.294191 48.894885 
L 182.179694 49.07163 
L 184.836202 49.554503 
L 185.721705 49.732204 
L 188.083045 50.152277 
L 188.67338 50.260338 
L 189.558883 50.430825 
L 191.920224 50.856162 
L 192.805727 51.032106 
L 195.462235 51.526914 
L 196.347738 51.704134 
L 199.299413 52.219393 
L 200.184916 52.392349 
L 202.251089 52.793899 
L 203.136592 52.9741 
L 206.383435 53.541271 
L 207.859273 53.862484 
L 208.449608 53.94944 
L 211.401284 54.477654 
L 212.286787 54.650475 
L 214.648128 55.068866 
L 215.53363 55.234722 
L 218.485306 55.742646 
L 219.370809 55.911555 
L 223.503155 56.597281 
L 227.930669 57.400289 
L 230.882345 57.878798 
L 231.767847 58.040772 
L 234.129188 58.456065 
L 235.014691 58.621096 
L 239.147037 59.294822 
L 242.984216 59.985162 
L 244.164886 60.123192 
L 244.755221 60.258476 
L 247.706897 60.739683 
L 250.95374 61.299519 
L 254.790919 61.906841 
L 258.923265 62.604265 
L 260.103935 62.789495 
L 262.760444 63.20267 
L 263.645946 63.312829 
L 267.187957 63.883808 
L 271.320304 64.516449 
L 274.862315 65.041583 
L 279.880164 65.782107 
L 284.01251 66.393725 
L 284.898012 66.497069 
L 289.030359 67.056924 
L 290.211029 67.21417 
L 294.048208 67.737392 
L 297.590218 68.22546 
L 298.475721 68.315939 
L 302.3129 68.824119 
L 307.921084 69.529831 
L 308.806587 69.670494 
L 313.529268 70.273214 
L 314.709938 70.415777 
L 318.547117 70.897246 
L 322.679463 71.44742 
L 328.877982 72.260531 
L 329.763485 72.354168 
L 335.962004 73.096184 
L 337.142675 73.247673 
L 344.817032 74.139694 
L 346.29287 74.299874 
L 350.720383 74.81155 
L 366.069098 75.902144 
L 373.743455 76.210429 
L 384.664655 76.30332 
L 395.881024 76.118813 
L 404.440884 75.943242 
L 417.428257 75.903362 
L 423.626776 76.078812 
L 432.186636 76.503068 
L 432.186636 76.503068 
" clip-path="url(#pefb3e999f6)" style="fill: none; stroke: #ff0000; stroke-width: 1.5; stroke-linecap: square"/>
   </g>
   <g id="patch_3">
    <path d="M 58.106 78.7975 
L 58.106 28.32 
" style="fill: none; stroke: #000000; stroke-width: 0.8; stroke-linejoin: miter; stroke-linecap: square"/>
   </g>
   <g id="patch_4">
    <path d="M 450 78.7975 
L 450 28.32 
" style="fill: none; stroke: #000000; stroke-width: 0.8; stroke-linejoin: miter; stroke-linecap: square"/>
   </g>
   <g id="patch_5">
    <path d="M 58.106 78.7975 
L 450 78.7975 
" style="fill: none; stroke: #000000; stroke-width: 0.8; stroke-linejoin: miter; stroke-linecap: square"/>
   </g>
   <g id="patch_6">
    <path d="M 58.106 28.32 
L 450 28.32 
" style="fill: none; stroke: #000000; stroke-width: 0.8; stroke-linejoin: miter; stroke-linecap: square"/>
   </g>
   <g id="text_12">
    <!-- Error in $x$-position -->
    <g transform="translate(200.413 22.32)scale(0.12 -0.12)">
     <defs>
      <path id="DejaVuSans-45" d="M 628 4666 
L 3578 4666 
L 3578 4134 
L 1259 4134 
L 1259 2753 
L 3481 2753 
L 3481 2222 
L 1259 2222 
L 1259 531 
L 3634 531 
L 3634 0 
L 628 0 
L 628 4666 
z
" transform="scale(0.015625)"/>
      <path id="DejaVuSans-72" d="M 2631 2963 
Q 2534 3019 2420 3045 
Q 2306 3072 2169 3072 
Q 1681 3072 1420 2755 
Q 1159 2438 1159 1844 
L 1159 0 
L 581 0 
L 581 3500 
L 1159 3500 
L 1159 2956 
Q 1341 3275 1631 3429 
Q 1922 3584 2338 3584 
Q 2397 3584 2469 3576 
Q 2541 3569 2628 3553 
L 2631 2963 
z
" transform="scale(0.015625)"/>
      <path id="DejaVuSans-6f" d="M 1959 3097 
Q 1497 3097 1228 2736 
Q 959 2375 959 1747 
Q 959 1119 1226 758 
Q 1494 397 1959 397 
Q 2419 397 2687 759 
Q 2956 1122 2956 1747 
Q 2956 2369 2687 2733 
Q 2419 3097 1959 3097 
z
M 1959 3584 
Q 2709 3584 3137 3096 
Q 3566 2609 3566 1747 
Q 3566 888 3137 398 
Q 2709 -91 1959 -91 
Q 1206 -91 779 398 
Q 353 888 353 1747 
Q 353 2609 779 3096 
Q 1206 3584 1959 3584 
z
" transform="scale(0.015625)"/>
      <path id="DejaVuSans-69" d="M 603 3500 
L 1178 3500 
L 1178 0 
L 603 0 
L 603 3500 
z
M 603 4863 
L 1178 4863 
L 1178 4134 
L 603 4134 
L 603 4863 
z
" transform="scale(0.015625)"/>
      <path id="DejaVuSans-6e" d="M 3513 2113 
L 3513 0 
L 2938 0 
L 2938 2094 
Q 2938 2591 2744 2837 
Q 2550 3084 2163 3084 
Q 1697 3084 1428 2787 
Q 1159 2491 1159 1978 
L 1159 0 
L 581 0 
L 581 3500 
L 1159 3500 
L 1159 2956 
Q 1366 3272 1645 3428 
Q 1925 3584 2291 3584 
Q 2894 3584 3203 3211 
Q 3513 2838 3513 2113 
z
" transform="scale(0.015625)"/>
      <path id="DejaVuSans-2d" d="M 313 2009 
L 1997 2009 
L 1997 1497 
L 313 1497 
L 313 2009 
z
" transform="scale(0.015625)"/>
      <path id="DejaVuSans-70" d="M 1159 525 
L 1159 -1331 
L 581 -1331 
L 581 3500 
L 1159 3500 
L 1159 2969 
Q 1341 3281 1617 3432 
Q 1894 3584 2278 3584 
Q 2916 3584 3314 3078 
Q 3713 2572 3713 1747 
Q 3713 922 3314 415 
Q 2916 -91 2278 -91 
Q 1894 -91 1617 61 
Q 1341 213 1159 525 
z
M 3116 1747 
Q 3116 2381 2855 2742 
Q 2594 3103 2138 3103 
Q 1681 3103 1420 2742 
Q 1159 2381 1159 1747 
Q 1159 1113 1420 752 
Q 1681 391 2138 391 
Q 2594 391 2855 752 
Q 3116 1113 3116 1747 
z
" transform="scale(0.015625)"/>
      <path id="DejaVuSans-74" d="M 1172 4494 
L 1172 3500 
L 2356 3500 
L 2356 3053 
L 1172 3053 
L 1172 1153 
Q 1172 725 1289 603 
Q 1406 481 1766 481 
L 2356 481 
L 2356 0 
L 1766 0 
Q 1100 0 847 248 
Q 594 497 594 1153 
L 594 3053 
L 172 3053 
L 172 3500 
L 594 3500 
L 594 4494 
L 1172 4494 
z
" transform="scale(0.015625)"/>
     </defs>
     <use xlink:href="#DejaVuSans-45" transform="translate(0 0.015625)"/>
     <use xlink:href="#DejaVuSans-72" transform="translate(63.183594 0.015625)"/>
     <use xlink:href="#DejaVuSans-72" transform="translate(104.296875 0.015625)"/>
     <use xlink:href="#DejaVuSans-6f" transform="translate(145.410156 0.015625)"/>
     <use xlink:href="#DejaVuSans-72" transform="translate(206.591797 0.015625)"/>
     <use xlink:href="#DejaVuSans-20" transform="translate(247.705078 0.015625)"/>
     <use xlink:href="#DejaVuSans-69" transform="translate(279.492188 0.015625)"/>
     <use xlink:href="#DejaVuSans-6e" transform="translate(307.275391 0.015625)"/>
     <use xlink:href="#DejaVuSans-20" transform="translate(370.654297 0.015625)"/>
     <use xlink:href="#DejaVuSans-Oblique-78" transform="translate(402.441406 0.015625)"/>
     <use xlink:href="#DejaVuSans-2d" transform="translate(461.621094 0.015625)"/>
     <use xlink:href="#DejaVuSans-70" transform="translate(497.705078 0.015625)"/>
     <use xlink:href="#DejaVuSans-6f" transform="translate(561.181641 0.015625)"/>
     <use xlink:href="#DejaVuSans-73" transform="translate(622.363281 0.015625)"/>
     <use xlink:href="#DejaVuSans-69" transform="translate(674.462891 0.015625)"/>
     <use xlink:href="#DejaVuSans-74" transform="translate(702.246094 0.015625)"/>
     <use xlink:href="#DejaVuSans-69" transform="translate(741.455078 0.015625)"/>
     <use xlink:href="#DejaVuSans-6f" transform="translate(769.238281 0.015625)"/>
     <use xlink:href="#DejaVuSans-6e" transform="translate(830.419922 0.015625)"/>
    </g>
   </g>
  </g>
  <g id="axes_2">
   <g id="patch_7">
    <path d="M 58.106 190.3975 
L 450 190.3975 
L 450 139.92 
L 58.106 139.92 
z
" style="fill: #ffffff"/>
   </g>
   <g id="matplotlib.axis_3">
    <g id="xtick_8">
     <g id="line2d_20">
      <path d="M 75.919364 190.3975 
L 75.919364 139.92 
" clip-path="url(#p95ee7c2dd7)" style="fill: none; stroke: #b0b0b0; stroke-width: 0.8; stroke-linecap: square"/>
     </g>
     <g id="line2d_21">
      <g>
       <use xlink:href="#m8ab20d70e3" x="75.919364" y="190.3975" style="stroke: #000000; stroke-width: 0.8"/>
      </g>
     </g>
     <g id="text_13">
      <!-- 0 -->
      <g transform="translate(72.738114 204.995937)scale(0.1 -0.1)">
       <use xlink:href="#DejaVuSans-30"/>
      </g>
     </g>
    </g>
    <g id="xtick_9">
     <g id="line2d_22">
      <path d="M 134.904011 190.3975 
L 134.904011 139.92 
" clip-path="url(#p95ee7c2dd7)" style="fill: none; stroke: #b0b0b0; stroke-width: 0.8; stroke-linecap: square"/>
     </g>
     <g id="line2d_23">
      <g>
       <use xlink:href="#m8ab20d70e3" x="134.904011" y="190.3975" style="stroke: #000000; stroke-width: 0.8"/>
      </g>
     </g>
     <g id="text_14">
      <!-- 2 -->
      <g transform="translate(131.722761 204.995937)scale(0.1 -0.1)">
       <use xlink:href="#DejaVuSans-32"/>
      </g>
     </g>
    </g>
    <g id="xtick_10">
     <g id="line2d_24">
      <path d="M 193.888659 190.3975 
L 193.888659 139.92 
" clip-path="url(#p95ee7c2dd7)" style="fill: none; stroke: #b0b0b0; stroke-width: 0.8; stroke-linecap: square"/>
     </g>
     <g id="line2d_25">
      <g>
       <use xlink:href="#m8ab20d70e3" x="193.888659" y="190.3975" style="stroke: #000000; stroke-width: 0.8"/>
      </g>
     </g>
     <g id="text_15">
      <!-- 4 -->
      <g transform="translate(190.707409 204.995937)scale(0.1 -0.1)">
       <use xlink:href="#DejaVuSans-34"/>
      </g>
     </g>
    </g>
    <g id="xtick_11">
     <g id="line2d_26">
      <path d="M 252.873307 190.3975 
L 252.873307 139.92 
" clip-path="url(#p95ee7c2dd7)" style="fill: none; stroke: #b0b0b0; stroke-width: 0.8; stroke-linecap: square"/>
     </g>
     <g id="line2d_27">
      <g>
       <use xlink:href="#m8ab20d70e3" x="252.873307" y="190.3975" style="stroke: #000000; stroke-width: 0.8"/>
      </g>
     </g>
     <g id="text_16">
      <!-- 6 -->
      <g transform="translate(249.692057 204.995937)scale(0.1 -0.1)">
       <use xlink:href="#DejaVuSans-36"/>
      </g>
     </g>
    </g>
    <g id="xtick_12">
     <g id="line2d_28">
      <path d="M 311.857955 190.3975 
L 311.857955 139.92 
" clip-path="url(#p95ee7c2dd7)" style="fill: none; stroke: #b0b0b0; stroke-width: 0.8; stroke-linecap: square"/>
     </g>
     <g id="line2d_29">
      <g>
       <use xlink:href="#m8ab20d70e3" x="311.857955" y="190.3975" style="stroke: #000000; stroke-width: 0.8"/>
      </g>
     </g>
     <g id="text_17">
      <!-- 8 -->
      <g transform="translate(308.676705 204.995937)scale(0.1 -0.1)">
       <use xlink:href="#DejaVuSans-38"/>
      </g>
     </g>
    </g>
    <g id="xtick_13">
     <g id="line2d_30">
      <path d="M 370.842603 190.3975 
L 370.842603 139.92 
" clip-path="url(#p95ee7c2dd7)" style="fill: none; stroke: #b0b0b0; stroke-width: 0.8; stroke-linecap: square"/>
     </g>
     <g id="line2d_31">
      <g>
       <use xlink:href="#m8ab20d70e3" x="370.842603" y="190.3975" style="stroke: #000000; stroke-width: 0.8"/>
      </g>
     </g>
     <g id="text_18">
      <!-- 10 -->
      <g transform="translate(364.480103 204.995937)scale(0.1 -0.1)">
       <use xlink:href="#DejaVuSans-31"/>
       <use xlink:href="#DejaVuSans-30" x="63.623047"/>
      </g>
     </g>
    </g>
    <g id="xtick_14">
     <g id="line2d_32">
      <path d="M 429.82725 190.3975 
L 429.82725 139.92 
" clip-path="url(#p95ee7c2dd7)" style="fill: none; stroke: #b0b0b0; stroke-width: 0.8; stroke-linecap: square"/>
     </g>
     <g id="line2d_33">
      <g>
       <use xlink:href="#m8ab20d70e3" x="429.82725" y="190.3975" style="stroke: #000000; stroke-width: 0.8"/>
      </g>
     </g>
     <g id="text_19">
      <!-- 12 -->
      <g transform="translate(423.46475 204.995937)scale(0.1 -0.1)">
       <use xlink:href="#DejaVuSans-31"/>
       <use xlink:href="#DejaVuSans-32" x="63.623047"/>
      </g>
     </g>
    </g>
    <g id="text_20">
     <!-- $t$ [s] -->
     <g transform="translate(243.953 218.674062)scale(0.1 -0.1)">
      <use xlink:href="#DejaVuSans-Oblique-74" transform="translate(0 0.015625)"/>
      <use xlink:href="#DejaVuSans-20" transform="translate(39.208984 0.015625)"/>
      <use xlink:href="#DejaVuSans-5b" transform="translate(70.996094 0.015625)"/>
      <use xlink:href="#DejaVuSans-73" transform="translate(110.009766 0.015625)"/>
      <use xlink:href="#DejaVuSans-5d" transform="translate(162.109375 0.015625)"/>
     </g>
    </g>
   </g>
   <g id="matplotlib.axis_4">
    <g id="ytick_3">
     <g id="line2d_34">
      <path d="M 58.106 180.237465 
L 450 180.237465 
" clip-path="url(#p95ee7c2dd7)" style="fill: none; stroke: #b0b0b0; stroke-width: 0.8; stroke-linecap: square"/>
     </g>
     <g id="line2d_35">
      <g>
       <use xlink:href="#m18aaa7cb4c" x="58.106" y="180.237465" style="stroke: #000000; stroke-width: 0.8"/>
      </g>
     </g>
     <g id="text_21">
      <!-- −0.1 -->
      <g transform="translate(26.823188 184.036684)scale(0.1 -0.1)">
       <defs>
        <path id="DejaVuSans-2212" d="M 678 2272 
L 4684 2272 
L 4684 1741 
L 678 1741 
L 678 2272 
z
" transform="scale(0.015625)"/>
        <path id="DejaVuSans-2e" d="M 684 794 
L 1344 794 
L 1344 0 
L 684 0 
L 684 794 
z
" transform="scale(0.015625)"/>
       </defs>
       <use xlink:href="#DejaVuSans-2212"/>
       <use xlink:href="#DejaVuSans-30" x="83.789062"/>
       <use xlink:href="#DejaVuSans-2e" x="147.412109"/>
       <use xlink:href="#DejaVuSans-31" x="179.199219"/>
      </g>
     </g>
    </g>
    <g id="ytick_4">
     <g id="line2d_36">
      <path d="M 58.106 165.608317 
L 450 165.608317 
" clip-path="url(#p95ee7c2dd7)" style="fill: none; stroke: #b0b0b0; stroke-width: 0.8; stroke-linecap: square"/>
     </g>
     <g id="line2d_37">
      <g>
       <use xlink:href="#m18aaa7cb4c" x="58.106" y="165.608317" style="stroke: #000000; stroke-width: 0.8"/>
      </g>
     </g>
     <g id="text_22">
      <!-- 0.0 -->
      <g transform="translate(35.202875 169.407535)scale(0.1 -0.1)">
       <use xlink:href="#DejaVuSans-30"/>
       <use xlink:href="#DejaVuSans-2e" x="63.623047"/>
       <use xlink:href="#DejaVuSans-30" x="95.410156"/>
      </g>
     </g>
    </g>
    <g id="ytick_5">
     <g id="line2d_38">
      <path d="M 58.106 150.979168 
L 450 150.979168 
" clip-path="url(#p95ee7c2dd7)" style="fill: none; stroke: #b0b0b0; stroke-width: 0.8; stroke-linecap: square"/>
     </g>
     <g id="line2d_39">
      <g>
       <use xlink:href="#m18aaa7cb4c" x="58.106" y="150.979168" style="stroke: #000000; stroke-width: 0.8"/>
      </g>
     </g>
     <g id="text_23">
      <!-- 0.1 -->
      <g transform="translate(35.202875 154.778387)scale(0.1 -0.1)">
       <use xlink:href="#DejaVuSans-30"/>
       <use xlink:href="#DejaVuSans-2e" x="63.623047"/>
       <use xlink:href="#DejaVuSans-31" x="95.410156"/>
      </g>
     </g>
    </g>
    <g id="text_24">
     <!-- $e_z$ [m] -->
     <g transform="translate(20.7435 180.60875)rotate(-90)scale(0.1 -0.1)">
      <defs>
       <path id="DejaVuSans-Oblique-7a" d="M 744 3500 
L 3475 3500 
L 3372 2975 
L 738 459 
L 2913 459 
L 2822 0 
L -19 0 
L 84 525 
L 2719 3041 
L 653 3041 
L 744 3500 
z
" transform="scale(0.015625)"/>
      </defs>
      <use xlink:href="#DejaVuSans-Oblique-65" transform="translate(0 0.015625)"/>
      <use xlink:href="#DejaVuSans-Oblique-7a" transform="translate(61.523438 -16.390625)scale(0.7)"/>
      <use xlink:href="#DejaVuSans-20" transform="translate(101.000977 0.015625)"/>
      <use xlink:href="#DejaVuSans-5b" transform="translate(132.788086 0.015625)"/>
      <use xlink:href="#DejaVuSans-6d" transform="translate(171.801758 0.015625)"/>
      <use xlink:href="#DejaVuSans-5d" transform="translate(269.213867 0.015625)"/>
     </g>
    </g>
   </g>
   <g id="line2d_40">
    <path d="M 75.919364 166.985832 
L 76.509699 166.742554 
L 76.804866 166.478146 
L 77.100034 166.478146 
L 77.690369 166.060001 
L 78.871039 165.623552 
L 79.461375 165.583167 
L 81.527548 165.90138 
L 82.41305 165.749105 
L 83.593721 164.969916 
L 84.184056 164.321157 
L 85.364726 163.226196 
L 85.659894 162.768889 
L 87.430899 161.454409 
L 88.021235 160.710489 
L 88.906737 159.757165 
L 90.382575 157.190367 
L 91.268078 155.81596 
L 91.563246 155.139785 
L 93.039083 153.769732 
L 93.924586 153.586455 
L 94.810089 153.635383 
L 97.466597 154.001728 
L 100.123105 154.423912 
L 101.303776 154.432232 
L 103.369949 153.744781 
L 105.140954 152.143526 
L 106.321625 150.647713 
L 106.616792 150.398787 
L 106.91196 149.954193 
L 107.207127 149.954193 
L 107.502295 149.453633 
L 108.682965 149.110002 
L 110.158803 148.628828 
L 110.453971 148.333787 
L 110.749138 148.333787 
L 111.339474 147.872166 
L 112.520144 147.056424 
L 112.815312 146.709114 
L 114.881485 145.693893 
L 116.062155 145.353391 
L 116.357323 145.009222 
L 116.947658 144.791571 
L 117.242825 144.627986 
L 117.537993 144.252858 
L 117.83316 144.252858 
L 118.128328 143.618093 
L 118.718663 143.304571 
L 119.013831 143.106553 
L 119.308998 142.753417 
L 119.604166 142.753417 
L 119.899334 142.376184 
L 121.375171 142.23137 
L 122.555842 142.574218 
L 122.851009 142.858884 
L 123.146177 142.858884 
L 123.736512 143.266756 
L 124.326847 143.577806 
L 124.622015 143.922928 
L 124.917182 143.922928 
L 125.21235 144.483468 
L 125.802685 144.769227 
L 126.097853 144.956998 
L 126.39302 145.318011 
L 126.688188 145.318011 
L 126.983356 145.800064 
L 127.573691 146.007542 
L 129.639864 146.95745 
L 129.935031 147.286041 
L 130.230199 147.286041 
L 130.820534 147.780459 
L 131.410869 148.181847 
L 134.657713 151.779083 
L 135.543215 152.467386 
L 135.838383 152.788369 
L 137.314221 153.519976 
L 137.904556 153.958856 
L 138.494891 154.308576 
L 140.265897 155.999136 
L 140.561064 156.591762 
L 140.856232 156.591762 
L 141.151399 157.02479 
L 142.922405 158.171211 
L 143.807908 158.369267 
L 144.103075 158.555466 
L 144.398243 158.555466 
L 144.988578 158.82713 
L 145.578913 159.056408 
L 146.464416 159.802941 
L 147.054751 160.065572 
L 147.349919 160.245937 
L 147.645086 160.60966 
L 148.235421 161.050913 
L 148.825757 161.537875 
L 149.120924 161.537875 
L 149.711259 161.974915 
L 150.301595 162.324333 
L 150.596762 162.613462 
L 150.89193 162.613462 
L 151.482265 163.10589 
L 152.0726 163.599579 
L 152.367768 164.056696 
L 153.843606 165.451791 
L 155.319443 167.677792 
L 155.614611 168.04344 
L 156.795281 170.015234 
L 157.680784 171.140886 
L 157.975952 171.72289 
L 159.156622 172.891411 
L 159.45179 173.3729 
L 159.746957 173.3729 
L 160.042125 173.850468 
L 160.927628 174.699927 
L 161.222795 175.201063 
L 161.517963 175.201063 
L 161.81313 175.707818 
L 162.698633 176.59074 
L 162.993801 177.089397 
L 164.174471 178.149809 
L 164.469639 178.470266 
L 165.059974 178.766818 
L 165.355141 179.11741 
L 166.535812 179.670898 
L 167.716482 179.87985 
L 169.487487 179.943899 
L 170.668158 180.348093 
L 171.553661 180.746529 
L 173.029498 181.173904 
L 173.915001 181.127054 
L 175.390839 180.9354 
L 176.276342 181.01213 
L 177.161845 181.279565 
L 178.637683 181.608887 
L 179.523185 181.525977 
L 180.408688 181.24908 
L 181.884526 180.958827 
L 182.770029 180.988179 
L 183.360364 181.240844 
L 184.836202 181.891608 
L 185.426537 182.173159 
L 186.31204 182.304635 
L 187.787878 182.075737 
L 188.67338 181.842888 
L 189.263716 181.607607 
L 190.444386 181.416716 
L 191.329889 181.59589 
L 191.920224 181.912721 
L 192.510559 182.416606 
L 193.691229 183.190243 
L 193.986397 183.462355 
L 195.167067 183.796346 
L 196.347738 183.923015 
L 198.709078 184.109816 
L 199.299413 184.322722 
L 199.889749 184.702195 
L 200.775251 185.264978 
L 201.070419 185.600886 
L 202.546257 186.402302 
L 203.136592 186.503568 
L 204.022095 186.51583 
L 205.7931 186.289891 
L 206.973771 186.379463 
L 207.564106 186.518587 
L 207.859273 186.6558 
L 208.154441 186.6558 
L 208.744776 186.873453 
L 210.220614 187.127945 
L 211.401284 186.991561 
L 212.286787 186.760702 
L 213.762625 186.541625 
L 214.648128 186.648371 
L 214.943295 186.768813 
L 215.238463 186.768813 
L 215.828798 186.972393 
L 217.599803 187.277064 
L 218.485306 187.198838 
L 219.370809 186.977566 
L 221.73215 186.649916 
L 223.503155 186.951717 
L 225.274161 187.502565 
L 225.864496 187.561151 
L 226.749999 187.500401 
L 229.111339 187.023325 
L 229.996842 187.030326 
L 230.882345 187.23293 
L 231.47268 187.496527 
L 233.538853 188.096215 
L 234.129188 188.079344 
L 236.195361 187.530682 
L 236.785696 187.425689 
L 237.671199 187.364568 
L 239.442205 187.71345 
L 239.737372 187.840474 
L 240.327707 187.945458 
L 241.508378 188.018117 
L 242.39388 187.859964 
L 243.869718 187.587931 
L 245.345556 187.481767 
L 248.002065 187.3249 
L 249.477902 187.163547 
L 250.658573 187.193872 
L 252.134411 187.476812 
L 253.610249 187.406438 
L 255.381254 186.715131 
L 255.676422 186.548557 
L 255.971589 186.548557 
L 256.561924 186.209986 
L 257.447427 185.812882 
L 261.579773 185.761789 
L 262.170109 185.583854 
L 262.760444 185.292781 
L 263.055611 185.292781 
L 263.645946 185.009089 
L 265.416952 184.303177 
L 266.597622 184.045799 
L 268.07346 184.143518 
L 269.254131 184.176406 
L 270.139633 184.067036 
L 273.091309 182.855441 
L 273.681644 182.70801 
L 274.271979 182.382528 
L 274.862315 182.250325 
L 276.042985 182.178955 
L 279.289828 182.636905 
L 279.880164 182.512269 
L 283.717342 181.044331 
L 284.307677 180.993191 
L 285.19318 181.099591 
L 287.259353 181.689771 
L 287.849688 181.745559 
L 288.735191 181.610367 
L 291.686867 180.395367 
L 292.867537 180.270685 
L 294.343375 180.539795 
L 294.93371 180.683246 
L 295.819213 180.821504 
L 296.704716 180.790974 
L 297.295051 180.650377 
L 297.590218 180.48288 
L 297.885386 180.48288 
L 298.475721 180.201173 
L 301.132229 179.492775 
L 302.903235 179.602579 
L 303.788738 179.793905 
L 305.264576 179.942509 
L 306.445246 179.793027 
L 307.330749 179.578037 
L 309.692089 179.325521 
L 311.463095 179.4289 
L 313.2341 179.526268 
L 315.005106 179.519663 
L 316.185776 179.41999 
L 319.137452 179.390193 
L 320.61329 179.717259 
L 320.908458 179.717259 
L 321.498793 179.85793 
L 323.564966 180.0098 
L 328.582815 179.956716 
L 328.877982 180.079256 
L 329.17315 180.079256 
L 329.763485 180.279792 
L 332.124826 180.694794 
L 335.076502 180.835019 
L 339.799183 181.434663 
L 342.455691 181.907052 
L 344.521864 182.284 
L 346.29287 182.187346 
L 347.47354 182.212536 
L 348.063875 182.335632 
L 348.949378 182.644712 
L 350.130048 183.130575 
L 350.720383 183.516453 
L 352.491389 184.1625 
L 353.376892 184.161716 
L 354.262394 183.911082 
L 356.0334 183.513656 
L 357.21407 183.556415 
L 358.689908 183.745081 
L 359.870579 183.55587 
L 360.460914 183.348965 
L 361.346416 182.542146 
L 361.936752 182.256194 
L 362.231919 182.068657 
L 362.527087 181.65121 
L 362.822254 181.65121 
L 363.117422 181.391 
L 364.298092 181.086432 
L 366.364265 180.808931 
L 367.249768 180.259466 
L 367.544936 180.063136 
L 368.430438 178.866571 
L 369.020774 178.511025 
L 369.315941 178.28383 
L 369.611109 177.753677 
L 369.906276 177.753677 
L 370.201444 177.386126 
L 371.382114 176.799974 
L 374.038623 176.733544 
L 374.628958 176.595683 
L 376.695131 175.407075 
L 377.285466 175.126155 
L 378.466136 175.025489 
L 379.646807 174.990281 
L 380.237142 174.81606 
L 380.827477 174.403036 
L 381.417812 174.00459 
L 382.598482 172.749033 
L 383.779153 172.067671 
L 384.369488 171.913555 
L 385.254991 172.024284 
L 386.730829 172.594359 
L 387.321164 172.642346 
L 388.501834 172.244009 
L 388.797002 172.082394 
L 389.092169 171.793035 
L 389.387337 171.345998 
L 391.158342 169.882664 
L 391.45351 169.531433 
L 392.339013 169.211946 
L 393.224515 169.142995 
L 395.585856 169.225432 
L 395.881024 169.142398 
L 396.176191 168.896729 
L 396.471359 168.896729 
L 396.766526 168.350364 
L 397.356862 168.028532 
L 398.242364 167.28257 
L 398.537532 166.90919 
L 399.423035 166.522418 
L 400.01337 166.41373 
L 401.19404 166.557645 
L 401.489208 166.697807 
L 401.784375 166.697807 
L 402.079543 166.862995 
L 402.965046 166.871919 
L 403.555381 166.632612 
L 404.145716 166.354234 
L 405.031219 165.789554 
L 405.916721 165.046856 
L 406.802224 164.820444 
L 407.097392 164.820444 
L 409.7539 165.953229 
L 410.344235 165.979108 
L 410.93457 165.817479 
L 412.410408 164.849379 
L 413.000743 164.33533 
L 413.591079 164.1173 
L 413.886246 163.904658 
L 414.771749 163.750967 
L 415.657252 163.840675 
L 418.018592 164.215577 
L 418.904095 163.968536 
L 420.084765 162.984691 
L 420.675101 162.750919 
L 420.970268 162.52068 
L 421.855771 162.40371 
L 423.921944 163.245166 
L 424.512279 163.438485 
L 425.397782 163.444662 
L 425.988117 163.178673 
L 427.168787 162.544082 
L 427.463955 162.081607 
L 427.759123 162.081607 
L 428.05429 161.742705 
L 429.234961 161.082498 
L 430.415631 161.132251 
L 431.005966 161.409147 
L 431.596301 161.921797 
L 432.186636 162.313968 
L 432.186636 162.313968 
" clip-path="url(#p95ee7c2dd7)" style="fill: none; stroke: #0000ff; stroke-width: 1.5; stroke-linecap: square"/>
   </g>
   <g id="patch_8">
    <path d="M 58.106 190.3975 
L 58.106 139.92 
" style="fill: none; stroke: #000000; stroke-width: 0.8; stroke-linejoin: miter; stroke-linecap: square"/>
   </g>
   <g id="patch_9">
    <path d="M 450 190.3975 
L 450 139.92 
" style="fill: none; stroke: #000000; stroke-width: 0.8; stroke-linejoin: miter; stroke-linecap: square"/>
   </g>
   <g id="patch_10">
    <path d="M 58.106 190.3975 
L 450 190.3975 
" style="fill: none; stroke: #000000; stroke-width: 0.8; stroke-linejoin: miter; stroke-linecap: square"/>
   </g>
   <g id="patch_11">
    <path d="M 58.106 139.92 
L 450 139.92 
" style="fill: none; stroke: #000000; stroke-width: 0.8; stroke-linejoin: miter; stroke-linecap: square"/>
   </g>
   <g id="text_25">
    <!-- Error in $z$-position -->
    <g transform="translate(200.773 133.92)scale(0.12 -0.12)">
     <use xlink:href="#DejaVuSans-45" transform="translate(0 0.015625)"/>
     <use xlink:href="#DejaVuSans-72" transform="translate(63.183594 0.015625)"/>
     <use xlink:href="#DejaVuSans-72" transform="translate(104.296875 0.015625)"/>
     <use xlink:href="#DejaVuSans-6f" transform="translate(145.410156 0.015625)"/>
     <use xlink:href="#DejaVuSans-72" transform="translate(206.591797 0.015625)"/>
     <use xlink:href="#DejaVuSans-20" transform="translate(247.705078 0.015625)"/>
     <use xlink:href="#DejaVuSans-69" transform="translate(279.492188 0.015625)"/>
     <use xlink:href="#DejaVuSans-6e" transform="translate(307.275391 0.015625)"/>
     <use xlink:href="#DejaVuSans-20" transform="translate(370.654297 0.015625)"/>
     <use xlink:href="#DejaVuSans-Oblique-7a" transform="translate(402.441406 0.015625)"/>
     <use xlink:href="#DejaVuSans-2d" transform="translate(454.931641 0.015625)"/>
     <use xlink:href="#DejaVuSans-70" transform="translate(491.015625 0.015625)"/>
     <use xlink:href="#DejaVuSans-6f" transform="translate(554.492188 0.015625)"/>
     <use xlink:href="#DejaVuSans-73" transform="translate(615.673828 0.015625)"/>
     <use xlink:href="#DejaVuSans-69" transform="translate(667.773438 0.015625)"/>
     <use xlink:href="#DejaVuSans-74" transform="translate(695.556641 0.015625)"/>
     <use xlink:href="#DejaVuSans-69" transform="translate(734.765625 0.015625)"/>
     <use xlink:href="#DejaVuSans-6f" transform="translate(762.548828 0.015625)"/>
     <use xlink:href="#DejaVuSans-6e" transform="translate(823.730469 0.015625)"/>
    </g>
   </g>
  </g>
  <g id="axes_3">
   <g id="patch_12">
    <path d="M 58.106 301.9975 
L 450 301.9975 
L 450 251.52 
L 58.106 251.52 
z
" style="fill: #ffffff"/>
   </g>
   <g id="matplotlib.axis_5">
    <g id="xtick_15">
     <g id="line2d_41">
      <path d="M 75.919364 301.9975 
L 75.919364 251.52 
" clip-path="url(#pd789becffd)" style="fill: none; stroke: #b0b0b0; stroke-width: 0.8; stroke-linecap: square"/>
     </g>
     <g id="line2d_42">
      <g>
       <use xlink:href="#m8ab20d70e3" x="75.919364" y="301.9975" style="stroke: #000000; stroke-width: 0.8"/>
      </g>
     </g>
     <g id="text_26">
      <!-- 0 -->
      <g transform="translate(72.738114 316.595937)scale(0.1 -0.1)">
       <use xlink:href="#DejaVuSans-30"/>
      </g>
     </g>
    </g>
    <g id="xtick_16">
     <g id="line2d_43">
      <path d="M 134.904011 301.9975 
L 134.904011 251.52 
" clip-path="url(#pd789becffd)" style="fill: none; stroke: #b0b0b0; stroke-width: 0.8; stroke-linecap: square"/>
     </g>
     <g id="line2d_44">
      <g>
       <use xlink:href="#m8ab20d70e3" x="134.904011" y="301.9975" style="stroke: #000000; stroke-width: 0.8"/>
      </g>
     </g>
     <g id="text_27">
      <!-- 2 -->
      <g transform="translate(131.722761 316.595937)scale(0.1 -0.1)">
       <use xlink:href="#DejaVuSans-32"/>
      </g>
     </g>
    </g>
    <g id="xtick_17">
     <g id="line2d_45">
      <path d="M 193.888659 301.9975 
L 193.888659 251.52 
" clip-path="url(#pd789becffd)" style="fill: none; stroke: #b0b0b0; stroke-width: 0.8; stroke-linecap: square"/>
     </g>
     <g id="line2d_46">
      <g>
       <use xlink:href="#m8ab20d70e3" x="193.888659" y="301.9975" style="stroke: #000000; stroke-width: 0.8"/>
      </g>
     </g>
     <g id="text_28">
      <!-- 4 -->
      <g transform="translate(190.707409 316.595937)scale(0.1 -0.1)">
       <use xlink:href="#DejaVuSans-34"/>
      </g>
     </g>
    </g>
    <g id="xtick_18">
     <g id="line2d_47">
      <path d="M 252.873307 301.9975 
L 252.873307 251.52 
" clip-path="url(#pd789becffd)" style="fill: none; stroke: #b0b0b0; stroke-width: 0.8; stroke-linecap: square"/>
     </g>
     <g id="line2d_48">
      <g>
       <use xlink:href="#m8ab20d70e3" x="252.873307" y="301.9975" style="stroke: #000000; stroke-width: 0.8"/>
      </g>
     </g>
     <g id="text_29">
      <!-- 6 -->
      <g transform="translate(249.692057 316.595937)scale(0.1 -0.1)">
       <use xlink:href="#DejaVuSans-36"/>
      </g>
     </g>
    </g>
    <g id="xtick_19">
     <g id="line2d_49">
      <path d="M 311.857955 301.9975 
L 311.857955 251.52 
" clip-path="url(#pd789becffd)" style="fill: none; stroke: #b0b0b0; stroke-width: 0.8; stroke-linecap: square"/>
     </g>
     <g id="line2d_50">
      <g>
       <use xlink:href="#m8ab20d70e3" x="311.857955" y="301.9975" style="stroke: #000000; stroke-width: 0.8"/>
      </g>
     </g>
     <g id="text_30">
      <!-- 8 -->
      <g transform="translate(308.676705 316.595937)scale(0.1 -0.1)">
       <use xlink:href="#DejaVuSans-38"/>
      </g>
     </g>
    </g>
    <g id="xtick_20">
     <g id="line2d_51">
      <path d="M 370.842603 301.9975 
L 370.842603 251.52 
" clip-path="url(#pd789becffd)" style="fill: none; stroke: #b0b0b0; stroke-width: 0.8; stroke-linecap: square"/>
     </g>
     <g id="line2d_52">
      <g>
       <use xlink:href="#m8ab20d70e3" x="370.842603" y="301.9975" style="stroke: #000000; stroke-width: 0.8"/>
      </g>
     </g>
     <g id="text_31">
      <!-- 10 -->
      <g transform="translate(364.480103 316.595937)scale(0.1 -0.1)">
       <use xlink:href="#DejaVuSans-31"/>
       <use xlink:href="#DejaVuSans-30" x="63.623047"/>
      </g>
     </g>
    </g>
    <g id="xtick_21">
     <g id="line2d_53">
      <path d="M 429.82725 301.9975 
L 429.82725 251.52 
" clip-path="url(#pd789becffd)" style="fill: none; stroke: #b0b0b0; stroke-width: 0.8; stroke-linecap: square"/>
     </g>
     <g id="line2d_54">
      <g>
       <use xlink:href="#m8ab20d70e3" x="429.82725" y="301.9975" style="stroke: #000000; stroke-width: 0.8"/>
      </g>
     </g>
     <g id="text_32">
      <!-- 12 -->
      <g transform="translate(423.46475 316.595937)scale(0.1 -0.1)">
       <use xlink:href="#DejaVuSans-31"/>
       <use xlink:href="#DejaVuSans-32" x="63.623047"/>
      </g>
     </g>
    </g>
    <g id="text_33">
     <!-- $t$ [s] -->
     <g transform="translate(243.953 330.274063)scale(0.1 -0.1)">
      <use xlink:href="#DejaVuSans-Oblique-74" transform="translate(0 0.015625)"/>
      <use xlink:href="#DejaVuSans-20" transform="translate(39.208984 0.015625)"/>
      <use xlink:href="#DejaVuSans-5b" transform="translate(70.996094 0.015625)"/>
      <use xlink:href="#DejaVuSans-73" transform="translate(110.009766 0.015625)"/>
      <use xlink:href="#DejaVuSans-5d" transform="translate(162.109375 0.015625)"/>
     </g>
    </g>
   </g>
   <g id="matplotlib.axis_6">
    <g id="ytick_6">
     <g id="line2d_55">
      <path d="M 58.106 291.039643 
L 450 291.039643 
" clip-path="url(#pd789becffd)" style="fill: none; stroke: #b0b0b0; stroke-width: 0.8; stroke-linecap: square"/>
     </g>
     <g id="line2d_56">
      <g>
       <use xlink:href="#m18aaa7cb4c" x="58.106" y="291.039643" style="stroke: #000000; stroke-width: 0.8"/>
      </g>
     </g>
     <g id="text_34">
      <!-- −0.1 -->
      <g transform="translate(26.823188 294.838862)scale(0.1 -0.1)">
       <use xlink:href="#DejaVuSans-2212"/>
       <use xlink:href="#DejaVuSans-30" x="83.789062"/>
       <use xlink:href="#DejaVuSans-2e" x="147.412109"/>
       <use xlink:href="#DejaVuSans-31" x="179.199219"/>
      </g>
     </g>
    </g>
    <g id="ytick_7">
     <g id="line2d_57">
      <path d="M 58.106 274.697478 
L 450 274.697478 
" clip-path="url(#pd789becffd)" style="fill: none; stroke: #b0b0b0; stroke-width: 0.8; stroke-linecap: square"/>
     </g>
     <g id="line2d_58">
      <g>
       <use xlink:href="#m18aaa7cb4c" x="58.106" y="274.697478" style="stroke: #000000; stroke-width: 0.8"/>
      </g>
     </g>
     <g id="text_35">
      <!-- 0.0 -->
      <g transform="translate(35.202875 278.496696)scale(0.1 -0.1)">
       <use xlink:href="#DejaVuSans-30"/>
       <use xlink:href="#DejaVuSans-2e" x="63.623047"/>
       <use xlink:href="#DejaVuSans-30" x="95.410156"/>
      </g>
     </g>
    </g>
    <g id="ytick_8">
     <g id="line2d_59">
      <path d="M 58.106 258.355312 
L 450 258.355312 
" clip-path="url(#pd789becffd)" style="fill: none; stroke: #b0b0b0; stroke-width: 0.8; stroke-linecap: square"/>
     </g>
     <g id="line2d_60">
      <g>
       <use xlink:href="#m18aaa7cb4c" x="58.106" y="258.355312" style="stroke: #000000; stroke-width: 0.8"/>
      </g>
     </g>
     <g id="text_36">
      <!-- 0.1 -->
      <g transform="translate(35.202875 262.15453)scale(0.1 -0.1)">
       <use xlink:href="#DejaVuSans-30"/>
       <use xlink:href="#DejaVuSans-2e" x="63.623047"/>
       <use xlink:href="#DejaVuSans-31" x="95.410156"/>
      </g>
     </g>
    </g>
    <g id="text_37">
     <!-- $e_\theta$ [rad] -->
     <g transform="translate(20.7435 295.90875)rotate(-90)scale(0.1 -0.1)">
      <defs>
       <path id="DejaVuSans-Oblique-3b8" d="M 2913 2219 
L 925 2219 
Q 791 1284 928 888 
Q 1100 400 1566 400 
Q 2034 400 2391 891 
Q 2703 1322 2913 2219 
z
M 3009 2750 
Q 3094 3638 2984 3950 
Q 2813 4444 2353 4444 
Q 1875 4444 1525 3956 
Q 1250 3563 1034 2750 
L 3009 2750 
z
M 2444 4913 
Q 3194 4913 3494 4250 
Q 3794 3591 3566 2422 
Q 3341 1256 2781 594 
Q 2225 -72 1475 -72 
Q 722 -72 425 594 
Q 128 1256 353 2422 
Q 581 3591 1134 4250 
Q 1691 4913 2444 4913 
z
" transform="scale(0.015625)"/>
       <path id="DejaVuSans-61" d="M 2194 1759 
Q 1497 1759 1228 1600 
Q 959 1441 959 1056 
Q 959 750 1161 570 
Q 1363 391 1709 391 
Q 2188 391 2477 730 
Q 2766 1069 2766 1631 
L 2766 1759 
L 2194 1759 
z
M 3341 1997 
L 3341 0 
L 2766 0 
L 2766 531 
Q 2569 213 2275 61 
Q 1981 -91 1556 -91 
Q 1019 -91 701 211 
Q 384 513 384 1019 
Q 384 1609 779 1909 
Q 1175 2209 1959 2209 
L 2766 2209 
L 2766 2266 
Q 2766 2663 2505 2880 
Q 2244 3097 1772 3097 
Q 1472 3097 1187 3025 
Q 903 2953 641 2809 
L 641 3341 
Q 956 3463 1253 3523 
Q 1550 3584 1831 3584 
Q 2591 3584 2966 3190 
Q 3341 2797 3341 1997 
z
" transform="scale(0.015625)"/>
       <path id="DejaVuSans-64" d="M 2906 2969 
L 2906 4863 
L 3481 4863 
L 3481 0 
L 2906 0 
L 2906 525 
Q 2725 213 2448 61 
Q 2172 -91 1784 -91 
Q 1150 -91 751 415 
Q 353 922 353 1747 
Q 353 2572 751 3078 
Q 1150 3584 1784 3584 
Q 2172 3584 2448 3432 
Q 2725 3281 2906 2969 
z
M 947 1747 
Q 947 1113 1208 752 
Q 1469 391 1925 391 
Q 2381 391 2643 752 
Q 2906 1113 2906 1747 
Q 2906 2381 2643 2742 
Q 2381 3103 1925 3103 
Q 1469 3103 1208 2742 
Q 947 2381 947 1747 
z
" transform="scale(0.015625)"/>
      </defs>
      <use xlink:href="#DejaVuSans-Oblique-65" transform="translate(0 0.015625)"/>
      <use xlink:href="#DejaVuSans-Oblique-3b8" transform="translate(61.523438 -16.390625)scale(0.7)"/>
      <use xlink:href="#DejaVuSans-20" transform="translate(107.084961 0.015625)"/>
      <use xlink:href="#DejaVuSans-5b" transform="translate(138.87207 0.015625)"/>
      <use xlink:href="#DejaVuSans-72" transform="translate(177.885742 0.015625)"/>
      <use xlink:href="#DejaVuSans-61" transform="translate(218.999023 0.015625)"/>
      <use xlink:href="#DejaVuSans-64" transform="translate(280.27832 0.015625)"/>
      <use xlink:href="#DejaVuSans-5d" transform="translate(343.754883 0.015625)"/>
     </g>
    </g>
   </g>
   <g id="line2d_61">
    <path d="M 75.919364 274.651845 
L 76.214531 274.523069 
L 76.509699 273.884467 
L 76.804866 271.896958 
L 77.100034 271.896958 
L 77.395202 268.907615 
L 77.985537 265.469032 
L 78.575872 260.248608 
L 78.871039 260.248608 
L 79.166207 258.201846 
L 79.756542 256.778436 
L 80.05171 256.713005 
L 80.346877 256.83393 
L 80.642045 257.274017 
L 82.117883 265.372196 
L 82.41305 265.372196 
L 82.708218 268.048795 
L 83.298553 270.867015 
L 83.593721 273.164976 
L 83.888888 276.523877 
L 85.069559 283.97622 
L 85.659894 289.63067 
L 86.250229 291.551482 
L 86.840564 292.497543 
L 88.61157 293.764989 
L 89.201905 294.092824 
L 89.79224 292.550257 
L 90.382575 289.81811 
L 90.97291 286.021425 
L 92.153581 274.065819 
L 92.448748 271.998544 
L 93.334251 263.764293 
L 94.810089 256.408944 
L 95.400424 255.588892 
L 95.695592 255.316535 
L 96.285927 255.30184 
L 96.581094 255.417232 
L 97.761765 257.127561 
L 98.056932 258.160528 
L 98.3521 258.160528 
L 98.647268 259.400872 
L 99.53277 261.659312 
L 99.827938 262.964924 
L 100.123105 264.920526 
L 101.008608 268.453166 
L 101.303776 269.820281 
L 101.598943 273.608372 
L 101.894111 273.608372 
L 102.189279 276.96858 
L 103.665116 286.403885 
L 103.960284 289.295087 
L 104.550619 291.620574 
L 105.140954 293.147692 
L 105.436122 293.594639 
L 106.026457 292.451104 
L 106.616792 290.435745 
L 106.91196 287.836081 
L 107.207127 287.836081 
L 107.502295 283.47892 
L 107.797463 282.741153 
L 108.978133 276.322408 
L 109.273301 273.925055 
L 109.863636 272.154731 
L 110.158803 271.590091 
L 110.453971 271.334225 
L 110.749138 271.334225 
L 112.224976 276.756527 
L 112.815312 280.509893 
L 113.405647 281.681363 
L 113.700814 281.926363 
L 113.995982 281.92453 
L 114.291149 281.466908 
L 114.881485 279.186888 
L 115.47182 277.00143 
L 115.766987 274.588437 
L 116.062155 274.588437 
L 116.357323 271.042089 
L 116.65249 270.495671 
L 117.242825 268.512233 
L 117.537993 266.849416 
L 117.83316 266.849416 
L 118.128328 264.733163 
L 118.423496 264.385427 
L 119.013831 262.914939 
L 119.308998 261.28204 
L 119.604166 261.28204 
L 119.899334 258.700133 
L 120.194501 258.282153 
L 121.375171 255.368273 
L 121.670339 254.991304 
L 121.965507 255.113371 
L 122.260674 255.455972 
L 122.555842 256.011083 
L 122.851009 258.152174 
L 123.146177 258.152174 
L 123.441345 260.336484 
L 124.622015 265.074682 
L 124.917182 265.074682 
L 125.21235 266.310093 
L 125.802685 266.476 
L 126.097853 266.424412 
L 126.39302 265.931182 
L 126.688188 265.931182 
L 126.983356 264.482834 
L 127.278523 264.206158 
L 128.459193 262.205127 
L 128.754361 261.980649 
L 129.344696 262.185768 
L 129.639864 262.415438 
L 129.935031 263.256034 
L 130.230199 263.256034 
L 130.525366 264.101993 
L 131.706037 266.001918 
L 132.001204 266.605055 
L 132.886707 267.143507 
L 133.477042 267.370505 
L 134.362545 268.073502 
L 134.95288 268.890753 
L 135.248048 269.425781 
L 136.133551 272.125792 
L 137.904556 275.251297 
L 138.494891 275.954038 
L 139.380394 277.618047 
L 140.561064 278.902377 
L 140.856232 278.902377 
L 141.446567 279.087343 
L 142.036902 279.064885 
L 142.627237 278.708293 
L 142.922405 278.44274 
L 143.51274 278.132954 
L 143.807908 277.905117 
L 144.103075 277.303479 
L 144.398243 277.303479 
L 144.69341 276.837262 
L 145.578913 276.138565 
L 146.464416 274.649562 
L 146.759584 274.420526 
L 147.349919 273.274844 
L 147.645086 271.736408 
L 147.940254 270.819209 
L 148.825757 265.632037 
L 149.120924 265.632037 
L 149.416092 263.163659 
L 150.596762 258.41703 
L 150.89193 258.41703 
L 151.187097 257.484169 
L 152.0726 256.137661 
L 152.367768 255.554132 
L 154.433941 253.892662 
L 155.319443 253.823191 
L 155.909779 253.923089 
L 156.795281 254.190077 
L 157.385617 254.390003 
L 157.680784 254.610328 
L 158.271119 255.380081 
L 158.861454 256.201236 
L 159.156622 256.980799 
L 159.45179 258.170315 
L 159.746957 258.170315 
L 160.042125 259.449204 
L 160.927628 261.585208 
L 161.222795 262.477258 
L 161.517963 262.477258 
L 161.81313 263.0703 
L 162.403465 263.39165 
L 162.698633 263.440887 
L 164.469639 262.335643 
L 165.059974 262.396413 
L 165.650309 263.127473 
L 166.830979 265.574632 
L 167.126147 266.892884 
L 168.01165 268.888417 
L 168.601985 269.19052 
L 168.897152 269.098525 
L 169.19232 268.870642 
L 170.077823 267.307435 
L 170.37299 267.307435 
L 170.668158 266.769504 
L 170.963325 266.571988 
L 171.553661 266.797222 
L 171.848828 267.205188 
L 172.143996 267.83757 
L 172.439163 270.40163 
L 172.734331 270.40163 
L 173.029498 273.291871 
L 173.915001 278.297567 
L 174.505336 282.423245 
L 174.800504 282.940281 
L 175.095672 283.151548 
L 175.390839 283.085016 
L 175.686007 282.755829 
L 175.981174 280.952026 
L 176.276342 280.952026 
L 176.571509 278.832901 
L 177.75218 273.92812 
L 178.047347 272.475715 
L 178.342515 272.042674 
L 178.637683 271.8406 
L 178.93285 271.879495 
L 179.228018 272.159783 
L 179.523185 273.006417 
L 179.818353 274.756969 
L 180.999023 278.434211 
L 181.294191 279.107986 
L 181.589358 279.019308 
L 181.884526 278.571829 
L 182.474861 277.051501 
L 182.770029 276.058932 
L 183.065196 274.395195 
L 183.360364 272.018909 
L 184.541034 267.656763 
L 184.836202 266.581388 
L 185.131369 266.119662 
L 185.426537 266.334946 
L 185.721705 266.837815 
L 186.31204 268.581381 
L 186.607207 271.637513 
L 186.902375 271.637513 
L 187.197542 274.240929 
L 187.787878 276.328179 
L 188.083045 276.998296 
L 188.67338 277.049129 
L 190.149218 268.460147 
L 190.444386 264.849479 
L 192.215391 254.443638 
L 192.510559 254.083119 
L 192.805727 254.075012 
L 193.100894 254.411087 
L 193.396062 255.075844 
L 193.691229 256.644493 
L 193.986397 259.604966 
L 195.167067 266.860559 
L 195.757402 272.254819 
L 196.347738 273.804286 
L 196.642905 274.032778 
L 196.938073 273.895186 
L 197.23324 273.39601 
L 197.528408 272.057526 
L 197.823575 269.444628 
L 199.004246 263.091746 
L 199.889749 256.903337 
L 200.480084 255.338124 
L 200.775251 254.906709 
L 201.365586 256.457795 
L 201.955922 259.127329 
L 202.251089 261.739804 
L 202.546257 265.630035 
L 202.841424 265.630035 
L 203.136592 269.619874 
L 204.317262 277.007453 
L 204.61243 277.184987 
L 204.907597 277.000136 
L 205.202765 276.494032 
L 206.383435 271.657074 
L 206.678603 268.974657 
L 207.564106 264.769063 
L 207.859273 263.005819 
L 208.154441 263.005819 
L 208.449608 262.253712 
L 208.744776 262.344794 
L 209.039944 262.759639 
L 209.335111 263.97625 
L 209.630279 266.536862 
L 209.925446 266.536862 
L 210.220614 269.829928 
L 211.401284 277.382474 
L 211.696452 279.565053 
L 212.286787 280.681531 
L 212.581955 280.839874 
L 212.877122 280.728174 
L 213.17229 280.065977 
L 213.762625 277.266597 
L 214.35296 274.729743 
L 214.943295 269.992529 
L 215.238463 269.992529 
L 215.53363 267.495835 
L 216.123966 265.46144 
L 216.419133 264.783725 
L 216.714301 264.397441 
L 217.304636 265.944226 
L 217.894971 268.369207 
L 218.190139 269.84075 
L 219.075641 276.846548 
L 219.961144 280.115621 
L 220.256312 280.284102 
L 220.551479 280.284102 
L 221.436982 276.881339 
L 221.73215 274.679078 
L 222.027317 271.320961 
L 222.322485 271.320961 
L 222.617652 267.770961 
L 224.09349 259.105253 
L 224.388658 258.840222 
L 224.683825 258.944927 
L 224.978993 259.398947 
L 225.274161 260.680606 
L 225.569328 263.318377 
L 225.864496 263.318377 
L 226.159663 266.578596 
L 227.045166 272.295096 
L 227.340334 274.313906 
L 227.635501 274.813933 
L 227.930669 274.953837 
L 228.225836 274.755744 
L 228.521004 274.246965 
L 228.816172 273.452225 
L 229.111339 271.830107 
L 229.406507 269.105049 
L 230.587177 263.039976 
L 231.177512 258.517764 
L 231.767847 257.140574 
L 232.063015 256.957689 
L 232.358183 257.138879 
L 232.65335 258.097222 
L 233.243685 262.04093 
L 233.834021 265.60757 
L 234.424356 272.010667 
L 234.719523 272.010667 
L 235.014691 274.782407 
L 235.605026 276.342166 
L 235.900194 276.593377 
L 236.195361 275.704704 
L 236.490529 275.704704 
L 237.080864 272.466708 
L 237.376032 271.098343 
L 237.966367 265.997165 
L 238.261534 265.997165 
L 238.556702 263.18423 
L 239.442205 259.462914 
L 239.737372 259.055058 
L 240.03254 259.055058 
L 240.622875 261.278093 
L 241.508378 266.926155 
L 241.803545 268.834356 
L 242.098713 272.711918 
L 242.984216 278.353194 
L 243.869718 279.404754 
L 244.164886 279.404754 
L 244.460054 277.176954 
L 244.755221 276.580015 
L 245.345556 273.794397 
L 245.640724 270.596499 
L 245.935891 268.943668 
L 246.526227 264.184335 
L 246.821394 263.455569 
L 247.411729 260.540847 
L 247.706897 260.29493 
L 248.002065 260.691286 
L 248.297232 261.902963 
L 248.5924 262.458067 
L 248.887567 263.766277 
L 249.182735 267.009891 
L 249.477902 268.820979 
L 250.363405 277.018085 
L 250.658573 277.018085 
L 250.95374 279.73504 
L 251.248908 280.652842 
L 251.544076 281.1993 
L 251.839243 281.300246 
L 252.134411 280.157328 
L 252.429578 280.157328 
L 253.905416 268.897912 
L 254.200584 268.897912 
L 254.495751 265.657834 
L 255.381254 261.667095 
L 255.971589 261.639481 
L 256.561924 263.953122 
L 257.15226 268.558998 
L 257.447427 271.322933 
L 257.742595 271.322933 
L 258.037762 275.085013 
L 258.923265 281.059587 
L 259.5136 281.984291 
L 259.808768 281.794858 
L 260.103935 280.633818 
L 260.399103 278.751099 
L 260.694271 277.994139 
L 261.284606 274.492048 
L 261.579773 270.601215 
L 261.874941 268.603457 
L 262.760444 260.210131 
L 263.055611 260.210131 
L 263.350779 257.626442 
L 263.645946 256.846578 
L 263.941114 256.399753 
L 264.236282 256.868473 
L 264.531449 258.197263 
L 264.826617 258.197263 
L 265.416952 262.855341 
L 265.71212 264.806568 
L 266.89279 276.143497 
L 267.483125 279.535987 
L 268.07346 281.932131 
L 268.368628 281.941637 
L 268.663795 281.31744 
L 269.254131 279.010193 
L 269.549298 276.591798 
L 269.844466 272.820746 
L 270.139633 272.820746 
L 270.434801 268.762574 
L 270.729968 266.728691 
L 271.615471 258.517858 
L 271.910639 258.517858 
L 272.205806 256.087054 
L 272.500974 255.359886 
L 272.796142 255.01099 
L 273.386477 255.969718 
L 273.681644 257.026643 
L 274.567147 266.069543 
L 274.862315 267.156276 
L 275.45265 271.523672 
L 275.747817 275.626615 
L 276.928488 282.208081 
L 277.518823 282.162604 
L 277.81399 281.592662 
L 278.109158 280.696163 
L 278.404326 278.82813 
L 278.699493 275.670889 
L 279.584996 270.171625 
L 280.470499 262.108117 
L 280.765666 262.108117 
L 281.060834 259.493831 
L 281.651169 257.953652 
L 281.946337 258.167815 
L 282.241504 259.210106 
L 282.536672 259.210106 
L 283.127007 263.267882 
L 283.422175 265.013456 
L 284.01251 271.640382 
L 284.307677 271.640382 
L 284.602845 275.278999 
L 285.783515 281.362374 
L 286.078683 281.51953 
L 286.37385 281.36212 
L 286.669018 280.904359 
L 287.259353 279.214631 
L 287.554521 277.385642 
L 287.849688 274.453841 
L 288.735191 269.48623 
L 289.620694 262.781516 
L 290.211029 261.167721 
L 290.506197 260.785397 
L 290.801364 260.717307 
L 291.096532 261.228246 
L 291.686867 264.168765 
L 292.57237 268.70786 
L 293.457872 275.757517 
L 294.638543 280.635987 
L 294.93371 280.738456 
L 295.228878 280.62467 
L 295.524045 279.872873 
L 295.819213 279.487907 
L 296.114381 278.536328 
L 296.409548 275.990669 
L 296.999883 272.847258 
L 297.590218 266.856158 
L 297.885386 266.856158 
L 298.180554 263.735661 
L 299.066056 260.229138 
L 299.361224 259.990034 
L 299.656392 259.990034 
L 300.541894 263.407079 
L 300.837062 265.693379 
L 301.132229 269.175496 
L 301.427397 269.175496 
L 301.722565 272.857617 
L 302.903235 279.606341 
L 303.198403 280.89294 
L 303.49357 281.105409 
L 303.788738 281.027888 
L 304.083905 280.669477 
L 304.379073 280.041276 
L 304.67424 278.611305 
L 304.969408 275.944219 
L 306.150078 269.138185 
L 307.035581 262.123505 
L 307.625916 260.352769 
L 307.921084 259.909899 
L 308.216251 260.27312 
L 308.511419 260.27312 
L 309.101754 263.361625 
L 309.692089 266.55409 
L 309.987257 269.301308 
L 310.282425 273.090107 
L 311.758262 282.947736 
L 312.05343 282.947736 
L 312.348598 283.590724 
L 312.643765 283.343173 
L 312.938933 282.730116 
L 313.2341 281.785822 
L 313.529268 279.846067 
L 313.824436 276.538372 
L 315.005106 268.879169 
L 315.300273 264.253174 
L 315.595441 264.253174 
L 315.890609 261.157138 
L 316.480944 258.970869 
L 316.776111 258.33509 
L 317.071279 258.079211 
L 317.366447 258.44254 
L 319.137452 269.616926 
L 319.43262 273.503518 
L 320.318122 278.997939 
L 320.61329 282.019697 
L 320.908458 282.019697 
L 321.203625 284.16979 
L 321.498793 284.17788 
L 321.79396 283.899482 
L 322.089128 283.239985 
L 323.269798 273.960961 
L 323.564966 272.97507 
L 323.860133 270.991741 
L 324.155301 267.113533 
L 325.040804 261.196394 
L 325.335971 258.805945 
L 325.631139 258.805945 
L 325.926306 257.671946 
L 326.221474 257.645583 
L 326.516642 258.290308 
L 326.811809 259.721653 
L 327.106977 261.832077 
L 327.402144 261.832077 
L 327.697312 265.353426 
L 328.287647 269.382273 
L 328.877982 276.625293 
L 329.17315 276.625293 
L 329.468317 280.498435 
L 330.35382 285.602481 
L 330.648988 286.516295 
L 330.944155 286.32881 
L 331.239323 285.720138 
L 331.534491 284.736367 
L 332.715161 277.13599 
L 333.010328 272.974972 
L 333.600664 268.829165 
L 334.190999 262.302935 
L 334.486166 262.302935 
L 334.781334 259.625902 
L 335.371669 258.190506 
L 335.666837 258.007487 
L 335.962004 258.456158 
L 336.552339 261.660063 
L 337.437842 266.713822 
L 337.73301 268.533 
L 338.618513 276.534464 
L 340.09435 284.771387 
L 340.389518 285.080732 
L 340.684686 285.046487 
L 340.979853 284.683881 
L 341.275021 283.554833 
L 341.865356 279.49342 
L 342.750859 273.890312 
L 343.636361 265.076083 
L 344.817032 258.539666 
L 345.112199 257.458722 
L 345.407367 257.462556 
L 345.702535 257.821144 
L 345.997702 258.50004 
L 346.29287 259.477412 
L 346.588037 261.433252 
L 346.883205 264.655137 
L 347.768708 270.070887 
L 348.65421 277.373874 
L 349.539713 281.003125 
L 350.130048 282.688155 
L 350.425216 282.849846 
L 350.720383 282.532352 
L 351.310719 281.217537 
L 351.901054 279.253262 
L 352.786557 274.404437 
L 353.376892 272.698049 
L 353.672059 271.186943 
L 353.967227 271.186943 
L 354.262394 270.483996 
L 354.85273 270.142827 
L 355.147897 270.094651 
L 355.443065 270.175635 
L 356.328568 271.071946 
L 357.21407 272.055641 
L 358.099573 273.458721 
L 358.985076 274.136543 
L 359.280243 274.136543 
L 359.870579 273.634682 
L 360.460914 272.801123 
L 361.346416 269.476886 
L 361.641584 269.102129 
L 362.231919 267.676394 
L 362.527087 266.448157 
L 362.822254 266.448157 
L 363.117422 266.197113 
L 363.41259 266.314497 
L 364.002925 266.916281 
L 364.888427 268.747719 
L 365.478763 269.169013 
L 365.77393 269.198639 
L 366.069098 269.084589 
L 366.364265 268.625652 
L 366.954601 266.732468 
L 367.544936 264.950046 
L 368.135271 261.869611 
L 368.430438 261.052932 
L 369.020774 260.773136 
L 369.315941 260.915062 
L 369.611109 262.388496 
L 369.906276 262.388496 
L 370.201444 264.478831 
L 371.086947 268.500268 
L 371.382114 272.158597 
L 371.677282 272.158597 
L 371.972449 275.053736 
L 373.15312 280.2226 
L 373.448287 281.235945 
L 373.743455 281.32867 
L 374.038623 281.132463 
L 374.33379 280.656697 
L 374.628958 279.918061 
L 374.924125 278.396779 
L 375.219293 275.890113 
L 376.104796 272.415101 
L 376.695131 270.781633 
L 376.990298 270.433144 
L 377.580634 270.621329 
L 378.170969 271.126627 
L 378.466136 271.686443 
L 379.056471 273.425029 
L 379.941974 275.965856 
L 380.827477 280.196079 
L 381.71298 282.385635 
L 382.008147 282.604239 
L 382.303315 282.411672 
L 382.89365 281.524688 
L 383.483985 280.10513 
L 383.779153 278.773625 
L 384.07432 276.878161 
L 384.959823 274.36317 
L 385.845326 272.69894 
L 386.140493 272.778589 
L 386.730829 273.356836 
L 387.025996 273.839439 
L 387.321164 274.780226 
L 387.616331 276.391455 
L 389.387337 282.040951 
L 389.682504 282.135983 
L 389.977672 281.97148 
L 390.27284 281.533616 
L 390.863175 279.883822 
L 391.158342 278.094888 
L 391.45351 275.335096 
L 392.929348 268.717575 
L 393.224515 267.691247 
L 393.519683 267.576146 
L 393.814851 267.713321 
L 394.110018 268.078407 
L 394.405186 268.630035 
L 394.700353 269.726402 
L 394.995521 271.535787 
L 395.881024 274.358652 
L 396.176191 276.042329 
L 396.471359 276.042329 
L 396.766526 277.657155 
L 397.356862 277.879541 
L 397.652029 277.754402 
L 397.947197 277.384218 
L 398.242364 276.383609 
L 398.537532 274.431545 
L 399.423035 270.995369 
L 399.718202 268.778296 
L 400.01337 268.778296 
L 400.308537 266.562873 
L 400.898873 266.213429 
L 401.19404 266.27565 
L 401.489208 267.037413 
L 401.784375 267.037413 
L 402.079543 269.148136 
L 402.37471 269.531469 
L 403.555381 272.329867 
L 403.850548 272.536004 
L 404.736051 272.769439 
L 405.031219 272.932222 
L 405.326386 273.355413 
L 405.916721 274.850022 
L 406.507057 275.98134 
L 406.802224 276.872486 
L 407.097392 276.872486 
L 407.392559 277.491502 
L 407.982895 277.508955 
L 408.278062 277.411188 
L 409.163565 275.689524 
L 409.458732 274.811427 
L 409.7539 274.518543 
L 410.049068 273.963541 
L 410.344235 273.094084 
L 410.93457 272.614189 
L 411.524906 272.490194 
L 412.115241 272.519453 
L 412.410408 272.710695 
L 412.705576 273.316838 
L 413.000743 274.335526 
L 413.295911 274.763271 
L 413.591079 275.713958 
L 413.886246 277.725298 
L 414.771749 280.305803 
L 415.362084 280.412549 
L 415.952419 279.207079 
L 416.542754 276.778609 
L 416.837922 276.327437 
L 417.13309 275.420092 
L 417.428257 273.706965 
L 418.31376 271.745919 
L 418.904095 271.729953 
L 420.084765 274.426957 
L 421.265436 274.903321 
L 421.855771 274.668415 
L 423.626776 272.848946 
L 423.921944 272.483163 
L 424.217112 272.713667 
L 424.512279 273.250064 
L 425.102614 275.145009 
L 425.397782 276.431092 
L 426.283285 282.754684 
L 426.87362 284.886729 
L 427.168787 285.727843 
L 427.463955 287.552725 
L 427.759123 287.552725 
L 428.349458 290.4291 
L 428.939793 292.907735 
L 429.234961 295.962887 
L 429.530128 295.962887 
L 429.825296 297.868658 
L 430.415631 299.138478 
L 430.710798 299.510244 
L 431.005966 299.703068 
L 431.596301 298.48989 
L 432.186636 296.252877 
L 432.186636 296.252877 
" clip-path="url(#pd789becffd)" style="fill: none; stroke: #008000; stroke-width: 1.5; stroke-linecap: square"/>
   </g>
   <g id="patch_13">
    <path d="M 58.106 301.9975 
L 58.106 251.52 
" style="fill: none; stroke: #000000; stroke-width: 0.8; stroke-linejoin: miter; stroke-linecap: square"/>
   </g>
   <g id="patch_14">
    <path d="M 450 301.9975 
L 450 251.52 
" style="fill: none; stroke: #000000; stroke-width: 0.8; stroke-linejoin: miter; stroke-linecap: square"/>
   </g>
   <g id="patch_15">
    <path d="M 58.106 301.9975 
L 450 301.9975 
" style="fill: none; stroke: #000000; stroke-width: 0.8; stroke-linejoin: miter; stroke-linecap: square"/>
   </g>
   <g id="patch_16">
    <path d="M 58.106 251.52 
L 450 251.52 
" style="fill: none; stroke: #000000; stroke-width: 0.8; stroke-linejoin: miter; stroke-linecap: square"/>
   </g>
   <g id="text_38">
    <!-- Error in swing angle -->
    <g transform="translate(194.282688 245.52)scale(0.12 -0.12)">
     <defs>
      <path id="DejaVuSans-77" d="M 269 3500 
L 844 3500 
L 1563 769 
L 2278 3500 
L 2956 3500 
L 3675 769 
L 4391 3500 
L 4966 3500 
L 4050 0 
L 3372 0 
L 2619 2869 
L 1863 0 
L 1184 0 
L 269 3500 
z
" transform="scale(0.015625)"/>
      <path id="DejaVuSans-67" d="M 2906 1791 
Q 2906 2416 2648 2759 
Q 2391 3103 1925 3103 
Q 1463 3103 1205 2759 
Q 947 2416 947 1791 
Q 947 1169 1205 825 
Q 1463 481 1925 481 
Q 2391 481 2648 825 
Q 2906 1169 2906 1791 
z
M 3481 434 
Q 3481 -459 3084 -895 
Q 2688 -1331 1869 -1331 
Q 1566 -1331 1297 -1286 
Q 1028 -1241 775 -1147 
L 775 -588 
Q 1028 -725 1275 -790 
Q 1522 -856 1778 -856 
Q 2344 -856 2625 -561 
Q 2906 -266 2906 331 
L 2906 616 
Q 2728 306 2450 153 
Q 2172 0 1784 0 
Q 1141 0 747 490 
Q 353 981 353 1791 
Q 353 2603 747 3093 
Q 1141 3584 1784 3584 
Q 2172 3584 2450 3431 
Q 2728 3278 2906 2969 
L 2906 3500 
L 3481 3500 
L 3481 434 
z
" transform="scale(0.015625)"/>
      <path id="DejaVuSans-6c" d="M 603 4863 
L 1178 4863 
L 1178 0 
L 603 0 
L 603 4863 
z
" transform="scale(0.015625)"/>
      <path id="DejaVuSans-65" d="M 3597 1894 
L 3597 1613 
L 953 1613 
Q 991 1019 1311 708 
Q 1631 397 2203 397 
Q 2534 397 2845 478 
Q 3156 559 3463 722 
L 3463 178 
Q 3153 47 2828 -22 
Q 2503 -91 2169 -91 
Q 1331 -91 842 396 
Q 353 884 353 1716 
Q 353 2575 817 3079 
Q 1281 3584 2069 3584 
Q 2775 3584 3186 3129 
Q 3597 2675 3597 1894 
z
M 3022 2063 
Q 3016 2534 2758 2815 
Q 2500 3097 2075 3097 
Q 1594 3097 1305 2825 
Q 1016 2553 972 2059 
L 3022 2063 
z
" transform="scale(0.015625)"/>
     </defs>
     <use xlink:href="#DejaVuSans-45"/>
     <use xlink:href="#DejaVuSans-72" x="63.183594"/>
     <use xlink:href="#DejaVuSans-72" x="102.546875"/>
     <use xlink:href="#DejaVuSans-6f" x="141.410156"/>
     <use xlink:href="#DejaVuSans-72" x="202.591797"/>
     <use xlink:href="#DejaVuSans-20" x="243.705078"/>
     <use xlink:href="#DejaVuSans-69" x="275.492188"/>
     <use xlink:href="#DejaVuSans-6e" x="303.275391"/>
     <use xlink:href="#DejaVuSans-20" x="366.654297"/>
     <use xlink:href="#DejaVuSans-73" x="398.441406"/>
     <use xlink:href="#DejaVuSans-77" x="450.541016"/>
     <use xlink:href="#DejaVuSans-69" x="532.328125"/>
     <use xlink:href="#DejaVuSans-6e" x="560.111328"/>
     <use xlink:href="#DejaVuSans-67" x="623.490234"/>
     <use xlink:href="#DejaVuSans-20" x="686.966797"/>
     <use xlink:href="#DejaVuSans-61" x="718.753906"/>
     <use xlink:href="#DejaVuSans-6e" x="780.033203"/>
     <use xlink:href="#DejaVuSans-67" x="843.412109"/>
     <use xlink:href="#DejaVuSans-6c" x="906.888672"/>
     <use xlink:href="#DejaVuSans-65" x="934.671875"/>
    </g>
   </g>
  </g>
 </g>
 <defs>
  <clipPath id="pefb3e999f6">
   <rect x="58.106" y="28.32" width="391.894" height="50.4775"/>
  </clipPath>
  <clipPath id="p95ee7c2dd7">
   <rect x="58.106" y="139.92" width="391.894" height="50.4775"/>
  </clipPath>
  <clipPath id="pd789becffd">
   <rect x="58.106" y="251.52" width="391.894" height="50.4775"/>
  </clipPath>
 </defs>
</svg>
