<?xml version="1.0" encoding="utf-8" standalone="no"?>
<!DOCTYPE svg PUBLIC "-//W3C//DTD SVG 1.1//EN"
  "http://www.w3.org/Graphics/SVG/1.1/DTD/svg11.dtd">
<svg xmlns:xlink="http://www.w3.org/1999/xlink" width="460.8pt" height="345.6pt" viewBox="0 0 460.8 345.6" xmlns="http://www.w3.org/2000/svg" version="1.1">
 <metadata>
  <rdf:RDF xmlns:dc="http://purl.org/dc/elements/1.1/" xmlns:cc="http://creativecommons.org/ns#" xmlns:rdf="http://www.w3.org/1999/02/22-rdf-syntax-ns#">
   <cc:Work>
    <dc:type rdf:resource="http://purl.org/dc/dcmitype/StillImage"/>
    <dc:date>2022-06-05T14:44:23.489602</dc:date>
    <dc:format>image/svg+xml</dc:format>
    <dc:creator>
     <cc:Agent>
      <dc:title>Matplotlib v3.5.1, https://matplotlib.org/</dc:title>
     </cc:Agent>
    </dc:creator>
   </cc:Work>
  </rdf:RDF>
 </metadata>
 <defs>
  <style type="text/css">*{stroke-linejoin: round; stroke-linecap: butt}</style>
 </defs>
 <g id="figure_1">
  <g id="patch_1">
   <path d="M 0 345.6 
L 460.8 345.6 
L 460.8 0 
L 0 0 
z
" style="fill: #ffffff"/>
  </g>
  <g id="axes_1">
   <g id="patch_2">
    <path d="M 58.106 78.7975 
L 450 78.7975 
L 450 28.32 
L 58.106 28.32 
z
" style="fill: #ffffff"/>
   </g>
   <g id="matplotlib.axis_1">
    <g id="xtick_1">
     <g id="line2d_1">
      <path d="M 75.919364 78.7975 
L 75.919364 28.32 
" clip-path="url(#p28f6c49c2b)" style="fill: none; stroke: #b0b0b0; stroke-width: 0.8; stroke-linecap: square"/>
     </g>
     <g id="line2d_2">
      <defs>
       <path id="m633bb1e1a9" d="M 0 0 
L 0 3.5 
" style="stroke: #000000; stroke-width: 0.8"/>
      </defs>
      <g>
       <use xlink:href="#m633bb1e1a9" x="75.919364" y="78.7975" style="stroke: #000000; stroke-width: 0.8"/>
      </g>
     </g>
     <g id="text_1">
      <!-- 0 -->
      <g transform="translate(72.738114 93.395937)scale(0.1 -0.1)">
       <defs>
        <path id="DejaVuSans-30" d="M 2034 4250 
Q 1547 4250 1301 3770 
Q 1056 3291 1056 2328 
Q 1056 1369 1301 889 
Q 1547 409 2034 409 
Q 2525 409 2770 889 
Q 3016 1369 3016 2328 
Q 3016 3291 2770 3770 
Q 2525 4250 2034 4250 
z
M 2034 4750 
Q 2819 4750 3233 4129 
Q 3647 3509 3647 2328 
Q 3647 1150 3233 529 
Q 2819 -91 2034 -91 
Q 1250 -91 836 529 
Q 422 1150 422 2328 
Q 422 3509 836 4129 
Q 1250 4750 2034 4750 
z
" transform="scale(0.015625)"/>
       </defs>
       <use xlink:href="#DejaVuSans-30"/>
      </g>
     </g>
    </g>
    <g id="xtick_2">
     <g id="line2d_3">
      <path d="M 144.039301 78.7975 
L 144.039301 28.32 
" clip-path="url(#p28f6c49c2b)" style="fill: none; stroke: #b0b0b0; stroke-width: 0.8; stroke-linecap: square"/>
     </g>
     <g id="line2d_4">
      <g>
       <use xlink:href="#m633bb1e1a9" x="144.039301" y="78.7975" style="stroke: #000000; stroke-width: 0.8"/>
      </g>
     </g>
     <g id="text_2">
      <!-- 2 -->
      <g transform="translate(140.858051 93.395937)scale(0.1 -0.1)">
       <defs>
        <path id="DejaVuSans-32" d="M 1228 531 
L 3431 531 
L 3431 0 
L 469 0 
L 469 531 
Q 828 903 1448 1529 
Q 2069 2156 2228 2338 
Q 2531 2678 2651 2914 
Q 2772 3150 2772 3378 
Q 2772 3750 2511 3984 
Q 2250 4219 1831 4219 
Q 1534 4219 1204 4116 
Q 875 4013 500 3803 
L 500 4441 
Q 881 4594 1212 4672 
Q 1544 4750 1819 4750 
Q 2544 4750 2975 4387 
Q 3406 4025 3406 3419 
Q 3406 3131 3298 2873 
Q 3191 2616 2906 2266 
Q 2828 2175 2409 1742 
Q 1991 1309 1228 531 
z
" transform="scale(0.015625)"/>
       </defs>
       <use xlink:href="#DejaVuSans-32"/>
      </g>
     </g>
    </g>
    <g id="xtick_3">
     <g id="line2d_5">
      <path d="M 212.159238 78.7975 
L 212.159238 28.32 
" clip-path="url(#p28f6c49c2b)" style="fill: none; stroke: #b0b0b0; stroke-width: 0.8; stroke-linecap: square"/>
     </g>
     <g id="line2d_6">
      <g>
       <use xlink:href="#m633bb1e1a9" x="212.159238" y="78.7975" style="stroke: #000000; stroke-width: 0.8"/>
      </g>
     </g>
     <g id="text_3">
      <!-- 4 -->
      <g transform="translate(208.977988 93.395937)scale(0.1 -0.1)">
       <defs>
        <path id="DejaVuSans-34" d="M 2419 4116 
L 825 1625 
L 2419 1625 
L 2419 4116 
z
M 2253 4666 
L 3047 4666 
L 3047 1625 
L 3713 1625 
L 3713 1100 
L 3047 1100 
L 3047 0 
L 2419 0 
L 2419 1100 
L 313 1100 
L 313 1709 
L 2253 4666 
z
" transform="scale(0.015625)"/>
       </defs>
       <use xlink:href="#DejaVuSans-34"/>
      </g>
     </g>
    </g>
    <g id="xtick_4">
     <g id="line2d_7">
      <path d="M 280.279176 78.7975 
L 280.279176 28.32 
" clip-path="url(#p28f6c49c2b)" style="fill: none; stroke: #b0b0b0; stroke-width: 0.8; stroke-linecap: square"/>
     </g>
     <g id="line2d_8">
      <g>
       <use xlink:href="#m633bb1e1a9" x="280.279176" y="78.7975" style="stroke: #000000; stroke-width: 0.8"/>
      </g>
     </g>
     <g id="text_4">
      <!-- 6 -->
      <g transform="translate(277.097926 93.395937)scale(0.1 -0.1)">
       <defs>
        <path id="DejaVuSans-36" d="M 2113 2584 
Q 1688 2584 1439 2293 
Q 1191 2003 1191 1497 
Q 1191 994 1439 701 
Q 1688 409 2113 409 
Q 2538 409 2786 701 
Q 3034 994 3034 1497 
Q 3034 2003 2786 2293 
Q 2538 2584 2113 2584 
z
M 3366 4563 
L 3366 3988 
Q 3128 4100 2886 4159 
Q 2644 4219 2406 4219 
Q 1781 4219 1451 3797 
Q 1122 3375 1075 2522 
Q 1259 2794 1537 2939 
Q 1816 3084 2150 3084 
Q 2853 3084 3261 2657 
Q 3669 2231 3669 1497 
Q 3669 778 3244 343 
Q 2819 -91 2113 -91 
Q 1303 -91 875 529 
Q 447 1150 447 2328 
Q 447 3434 972 4092 
Q 1497 4750 2381 4750 
Q 2619 4750 2861 4703 
Q 3103 4656 3366 4563 
z
" transform="scale(0.015625)"/>
       </defs>
       <use xlink:href="#DejaVuSans-36"/>
      </g>
     </g>
    </g>
    <g id="xtick_5">
     <g id="line2d_9">
      <path d="M 348.399113 78.7975 
L 348.399113 28.32 
" clip-path="url(#p28f6c49c2b)" style="fill: none; stroke: #b0b0b0; stroke-width: 0.8; stroke-linecap: square"/>
     </g>
     <g id="line2d_10">
      <g>
       <use xlink:href="#m633bb1e1a9" x="348.399113" y="78.7975" style="stroke: #000000; stroke-width: 0.8"/>
      </g>
     </g>
     <g id="text_5">
      <!-- 8 -->
      <g transform="translate(345.217863 93.395937)scale(0.1 -0.1)">
       <defs>
        <path id="DejaVuSans-38" d="M 2034 2216 
Q 1584 2216 1326 1975 
Q 1069 1734 1069 1313 
Q 1069 891 1326 650 
Q 1584 409 2034 409 
Q 2484 409 2743 651 
Q 3003 894 3003 1313 
Q 3003 1734 2745 1975 
Q 2488 2216 2034 2216 
z
M 1403 2484 
Q 997 2584 770 2862 
Q 544 3141 544 3541 
Q 544 4100 942 4425 
Q 1341 4750 2034 4750 
Q 2731 4750 3128 4425 
Q 3525 4100 3525 3541 
Q 3525 3141 3298 2862 
Q 3072 2584 2669 2484 
Q 3125 2378 3379 2068 
Q 3634 1759 3634 1313 
Q 3634 634 3220 271 
Q 2806 -91 2034 -91 
Q 1263 -91 848 271 
Q 434 634 434 1313 
Q 434 1759 690 2068 
Q 947 2378 1403 2484 
z
M 1172 3481 
Q 1172 3119 1398 2916 
Q 1625 2713 2034 2713 
Q 2441 2713 2670 2916 
Q 2900 3119 2900 3481 
Q 2900 3844 2670 4047 
Q 2441 4250 2034 4250 
Q 1625 4250 1398 4047 
Q 1172 3844 1172 3481 
z
" transform="scale(0.015625)"/>
       </defs>
       <use xlink:href="#DejaVuSans-38"/>
      </g>
     </g>
    </g>
    <g id="xtick_6">
     <g id="line2d_11">
      <path d="M 416.519051 78.7975 
L 416.519051 28.32 
" clip-path="url(#p28f6c49c2b)" style="fill: none; stroke: #b0b0b0; stroke-width: 0.8; stroke-linecap: square"/>
     </g>
     <g id="line2d_12">
      <g>
       <use xlink:href="#m633bb1e1a9" x="416.519051" y="78.7975" style="stroke: #000000; stroke-width: 0.8"/>
      </g>
     </g>
     <g id="text_6">
      <!-- 10 -->
      <g transform="translate(410.156551 93.395937)scale(0.1 -0.1)">
       <defs>
        <path id="DejaVuSans-31" d="M 794 531 
L 1825 531 
L 1825 4091 
L 703 3866 
L 703 4441 
L 1819 4666 
L 2450 4666 
L 2450 531 
L 3481 531 
L 3481 0 
L 794 0 
L 794 531 
z
" transform="scale(0.015625)"/>
       </defs>
       <use xlink:href="#DejaVuSans-31"/>
       <use xlink:href="#DejaVuSans-30" x="63.623047"/>
      </g>
     </g>
    </g>
    <g id="text_7">
     <!-- $t$ [s] -->
     <g transform="translate(243.953 107.074062)scale(0.1 -0.1)">
      <defs>
       <path id="DejaVuSans-Oblique-74" d="M 2706 3500 
L 2619 3053 
L 1472 3053 
L 1100 1153 
Q 1081 1047 1072 975 
Q 1063 903 1063 863 
Q 1063 663 1183 572 
Q 1303 481 1569 481 
L 2150 481 
L 2053 0 
L 1503 0 
Q 991 0 739 200 
Q 488 400 488 806 
Q 488 878 497 964 
Q 506 1050 525 1153 
L 897 3053 
L 409 3053 
L 500 3500 
L 978 3500 
L 1172 4494 
L 1747 4494 
L 1556 3500 
L 2706 3500 
z
" transform="scale(0.015625)"/>
       <path id="DejaVuSans-20" transform="scale(0.015625)"/>
       <path id="DejaVuSans-5b" d="M 550 4863 
L 1875 4863 
L 1875 4416 
L 1125 4416 
L 1125 -397 
L 1875 -397 
L 1875 -844 
L 550 -844 
L 550 4863 
z
" transform="scale(0.015625)"/>
       <path id="DejaVuSans-73" d="M 2834 3397 
L 2834 2853 
Q 2591 2978 2328 3040 
Q 2066 3103 1784 3103 
Q 1356 3103 1142 2972 
Q 928 2841 928 2578 
Q 928 2378 1081 2264 
Q 1234 2150 1697 2047 
L 1894 2003 
Q 2506 1872 2764 1633 
Q 3022 1394 3022 966 
Q 3022 478 2636 193 
Q 2250 -91 1575 -91 
Q 1294 -91 989 -36 
Q 684 19 347 128 
L 347 722 
Q 666 556 975 473 
Q 1284 391 1588 391 
Q 1994 391 2212 530 
Q 2431 669 2431 922 
Q 2431 1156 2273 1281 
Q 2116 1406 1581 1522 
L 1381 1569 
Q 847 1681 609 1914 
Q 372 2147 372 2553 
Q 372 3047 722 3315 
Q 1072 3584 1716 3584 
Q 2034 3584 2315 3537 
Q 2597 3491 2834 3397 
z
" transform="scale(0.015625)"/>
       <path id="DejaVuSans-5d" d="M 1947 4863 
L 1947 -844 
L 622 -844 
L 622 -397 
L 1369 -397 
L 1369 4416 
L 622 4416 
L 622 4863 
L 1947 4863 
z
" transform="scale(0.015625)"/>
      </defs>
      <use xlink:href="#DejaVuSans-Oblique-74" transform="translate(0 0.015625)"/>
      <use xlink:href="#DejaVuSans-20" transform="translate(39.208984 0.015625)"/>
      <use xlink:href="#DejaVuSans-5b" transform="translate(70.996094 0.015625)"/>
      <use xlink:href="#DejaVuSans-73" transform="translate(110.009766 0.015625)"/>
      <use xlink:href="#DejaVuSans-5d" transform="translate(162.109375 0.015625)"/>
     </g>
    </g>
   </g>
   <g id="matplotlib.axis_2">
    <g id="ytick_1">
     <g id="line2d_13">
      <path d="M 58.106 76.595003 
L 450 76.595003 
" clip-path="url(#p28f6c49c2b)" style="fill: none; stroke: #b0b0b0; stroke-width: 0.8; stroke-linecap: square"/>
     </g>
     <g id="line2d_14">
      <defs>
       <path id="m70709e4b89" d="M 0 0 
L -3.5 0 
" style="stroke: #000000; stroke-width: 0.8"/>
      </defs>
      <g>
       <use xlink:href="#m70709e4b89" x="58.106" y="76.595003" style="stroke: #000000; stroke-width: 0.8"/>
      </g>
     </g>
     <g id="text_8">
      <!-- 0 -->
      <g transform="translate(44.7435 80.394222)scale(0.1 -0.1)">
       <use xlink:href="#DejaVuSans-30"/>
      </g>
     </g>
    </g>
    <g id="ytick_2">
     <g id="line2d_15">
      <path d="M 58.106 30.614432 
L 450 30.614432 
" clip-path="url(#p28f6c49c2b)" style="fill: none; stroke: #b0b0b0; stroke-width: 0.8; stroke-linecap: square"/>
     </g>
     <g id="line2d_16">
      <g>
       <use xlink:href="#m70709e4b89" x="58.106" y="30.614432" style="stroke: #000000; stroke-width: 0.8"/>
      </g>
     </g>
     <g id="text_9">
      <!-- 10 -->
      <g transform="translate(38.381 34.413651)scale(0.1 -0.1)">
       <use xlink:href="#DejaVuSans-31"/>
       <use xlink:href="#DejaVuSans-30" x="63.623047"/>
      </g>
     </g>
    </g>
    <g id="text_10">
     <!-- $e_x$ [m] -->
     <g transform="translate(32.301313 69.20875)rotate(-90)scale(0.1 -0.1)">
      <defs>
       <path id="DejaVuSans-Oblique-65" d="M 3078 2063 
Q 3088 2113 3092 2166 
Q 3097 2219 3097 2272 
Q 3097 2653 2873 2875 
Q 2650 3097 2266 3097 
Q 1838 3097 1509 2826 
Q 1181 2556 1013 2059 
L 3078 2063 
z
M 3578 1613 
L 903 1613 
Q 884 1494 878 1425 
Q 872 1356 872 1306 
Q 872 872 1139 634 
Q 1406 397 1894 397 
Q 2269 397 2603 481 
Q 2938 566 3225 728 
L 3116 159 
Q 2806 34 2476 -28 
Q 2147 -91 1806 -91 
Q 1078 -91 686 257 
Q 294 606 294 1247 
Q 294 1794 489 2264 
Q 684 2734 1063 3103 
Q 1306 3334 1642 3459 
Q 1978 3584 2356 3584 
Q 2950 3584 3301 3228 
Q 3653 2872 3653 2272 
Q 3653 2128 3634 1964 
Q 3616 1800 3578 1613 
z
" transform="scale(0.015625)"/>
       <path id="DejaVuSans-Oblique-78" d="M 3841 3500 
L 2234 1784 
L 3219 0 
L 2559 0 
L 1819 1388 
L 531 0 
L -166 0 
L 1556 1844 
L 641 3500 
L 1300 3500 
L 1972 2234 
L 3144 3500 
L 3841 3500 
z
" transform="scale(0.015625)"/>
       <path id="DejaVuSans-6d" d="M 3328 2828 
Q 3544 3216 3844 3400 
Q 4144 3584 4550 3584 
Q 5097 3584 5394 3201 
Q 5691 2819 5691 2113 
L 5691 0 
L 5113 0 
L 5113 2094 
Q 5113 2597 4934 2840 
Q 4756 3084 4391 3084 
Q 3944 3084 3684 2787 
Q 3425 2491 3425 1978 
L 3425 0 
L 2847 0 
L 2847 2094 
Q 2847 2600 2669 2842 
Q 2491 3084 2119 3084 
Q 1678 3084 1418 2786 
Q 1159 2488 1159 1978 
L 1159 0 
L 581 0 
L 581 3500 
L 1159 3500 
L 1159 2956 
Q 1356 3278 1631 3431 
Q 1906 3584 2284 3584 
Q 2666 3584 2933 3390 
Q 3200 3197 3328 2828 
z
" transform="scale(0.015625)"/>
      </defs>
      <use xlink:href="#DejaVuSans-Oblique-65" transform="translate(0 0.015625)"/>
      <use xlink:href="#DejaVuSans-Oblique-78" transform="translate(61.523438 -16.390625)scale(0.7)"/>
      <use xlink:href="#DejaVuSans-20" transform="translate(105.683594 0.015625)"/>
      <use xlink:href="#DejaVuSans-5b" transform="translate(137.470703 0.015625)"/>
      <use xlink:href="#DejaVuSans-6d" transform="translate(176.484375 0.015625)"/>
      <use xlink:href="#DejaVuSans-5d" transform="translate(273.896484 0.015625)"/>
     </g>
    </g>
   </g>
   <g id="line2d_17">
    <path d="M 75.919364 30.614432 
L 84.78343 30.72034 
L 89.897314 30.906976 
L 103.193413 31.528447 
L 106.602669 31.872494 
L 123.308025 34.121278 
L 126.376355 34.618486 
L 126.717281 34.73861 
L 127.399132 34.834862 
L 130.126537 35.320037 
L 132.853942 35.800559 
L 135.240421 36.256547 
L 135.581347 36.394821 
L 135.922273 36.394821 
L 136.94505 36.619002 
L 139.331529 37.104725 
L 142.740785 37.875687 
L 145.127264 38.404449 
L 148.536521 39.242226 
L 151.263926 39.858762 
L 153.309479 40.338326 
L 155.695959 40.86788 
L 158.082438 41.470774 
L 158.423364 41.470774 
L 158.764289 41.58892 
L 159.105215 41.58892 
L 159.44614 41.76457 
L 160.468917 41.909386 
L 161.491694 42.165999 
L 163.196322 42.499752 
L 165.241876 42.853305 
L 165.582802 43.015173 
L 166.605579 43.149875 
L 167.628355 43.419194 
L 168.992058 43.607748 
L 172.401314 44.30662 
L 174.787793 44.785027 
L 175.81057 44.995088 
L 178.537975 45.510206 
L 180.924455 45.962377 
L 181.947231 46.136216 
L 184.674636 46.628359 
L 187.402041 47.142076 
L 188.083893 47.240139 
L 191.493149 47.823756 
L 192.515926 48.013381 
L 195.584256 48.52313 
L 196.607033 48.706793 
L 199.675364 49.209241 
L 200.69814 49.39115 
L 203.425545 49.843385 
L 204.448322 50.020696 
L 204.789248 50.020696 
L 205.471099 50.172914 
L 209.221281 50.751618 
L 212.971463 51.383423 
L 216.380719 51.911781 
L 217.403496 52.084914 
L 219.789975 52.463429 
L 221.153678 52.739017 
L 222.176455 52.899751 
L 225.244785 53.391126 
L 226.267562 53.565447 
L 229.335893 54.030815 
L 230.017744 54.143741 
L 231.040521 54.32435 
L 233.427 54.700723 
L 234.108851 54.808663 
L 235.131628 54.97941 
L 238.199959 55.471654 
L 241.95014 56.075776 
L 245.359397 56.569405 
L 246.382174 56.734445 
L 249.109579 57.157138 
L 250.132355 57.326157 
L 255.24624 58.059315 
L 260.019198 58.818239 
L 262.746603 59.225757 
L 263.76938 59.388718 
L 267.178636 59.891594 
L 268.201413 60.059 
L 272.974372 60.741161 
L 274.338074 60.964519 
L 277.406405 61.417756 
L 278.429182 61.576335 
L 282.520289 62.138205 
L 288.316025 62.986835 
L 293.088983 63.632841 
L 296.49824 64.11293 
L 296.839165 64.11293 
L 297.521017 64.249476 
L 303.657678 65.053702 
L 305.02138 65.233393 
L 307.748785 65.605412 
L 309.112488 65.787489 
L 314.226372 66.407505 
L 315.590074 66.578104 
L 320.022107 67.140642 
L 321.38581 67.320705 
L 326.158769 67.854572 
L 327.863397 68.107552 
L 328.886174 68.176353 
L 329.568025 68.296212 
L 335.022835 68.939604 
L 340.136719 69.552295 
L 341.159496 69.649364 
L 347.978008 70.390424 
L 349.000785 70.536057 
L 354.455595 71.167303 
L 359.910405 71.798982 
L 360.933182 71.896656 
L 367.751694 72.64906 
L 369.115397 72.801236 
L 373.888355 73.34433 
L 375.592983 73.528774 
L 380.365942 73.995076 
L 385.479826 74.523418 
L 387.184455 74.672526 
L 393.321116 75.205201 
L 394.684818 75.307034 
L 409.685545 76.174574 
L 422.640719 76.484519 
L 429.800157 76.481835 
L 432.186636 76.46067 
L 432.186636 76.46067 
" clip-path="url(#p28f6c49c2b)" style="fill: none; stroke: #ff0000; stroke-width: 1.5; stroke-linecap: square"/>
   </g>
   <g id="patch_3">
    <path d="M 58.106 78.7975 
L 58.106 28.32 
" style="fill: none; stroke: #000000; stroke-width: 0.8; stroke-linejoin: miter; stroke-linecap: square"/>
   </g>
   <g id="patch_4">
    <path d="M 450 78.7975 
L 450 28.32 
" style="fill: none; stroke: #000000; stroke-width: 0.8; stroke-linejoin: miter; stroke-linecap: square"/>
   </g>
   <g id="patch_5">
    <path d="M 58.106 78.7975 
L 450 78.7975 
" style="fill: none; stroke: #000000; stroke-width: 0.8; stroke-linejoin: miter; stroke-linecap: square"/>
   </g>
   <g id="patch_6">
    <path d="M 58.106 28.32 
L 450 28.32 
" style="fill: none; stroke: #000000; stroke-width: 0.8; stroke-linejoin: miter; stroke-linecap: square"/>
   </g>
   <g id="text_11">
    <!-- Error in $x$-position -->
    <g transform="translate(200.413 22.32)scale(0.12 -0.12)">
     <defs>
      <path id="DejaVuSans-45" d="M 628 4666 
L 3578 4666 
L 3578 4134 
L 1259 4134 
L 1259 2753 
L 3481 2753 
L 3481 2222 
L 1259 2222 
L 1259 531 
L 3634 531 
L 3634 0 
L 628 0 
L 628 4666 
z
" transform="scale(0.015625)"/>
      <path id="DejaVuSans-72" d="M 2631 2963 
Q 2534 3019 2420 3045 
Q 2306 3072 2169 3072 
Q 1681 3072 1420 2755 
Q 1159 2438 1159 1844 
L 1159 0 
L 581 0 
L 581 3500 
L 1159 3500 
L 1159 2956 
Q 1341 3275 1631 3429 
Q 1922 3584 2338 3584 
Q 2397 3584 2469 3576 
Q 2541 3569 2628 3553 
L 2631 2963 
z
" transform="scale(0.015625)"/>
      <path id="DejaVuSans-6f" d="M 1959 3097 
Q 1497 3097 1228 2736 
Q 959 2375 959 1747 
Q 959 1119 1226 758 
Q 1494 397 1959 397 
Q 2419 397 2687 759 
Q 2956 1122 2956 1747 
Q 2956 2369 2687 2733 
Q 2419 3097 1959 3097 
z
M 1959 3584 
Q 2709 3584 3137 3096 
Q 3566 2609 3566 1747 
Q 3566 888 3137 398 
Q 2709 -91 1959 -91 
Q 1206 -91 779 398 
Q 353 888 353 1747 
Q 353 2609 779 3096 
Q 1206 3584 1959 3584 
z
" transform="scale(0.015625)"/>
      <path id="DejaVuSans-69" d="M 603 3500 
L 1178 3500 
L 1178 0 
L 603 0 
L 603 3500 
z
M 603 4863 
L 1178 4863 
L 1178 4134 
L 603 4134 
L 603 4863 
z
" transform="scale(0.015625)"/>
      <path id="DejaVuSans-6e" d="M 3513 2113 
L 3513 0 
L 2938 0 
L 2938 2094 
Q 2938 2591 2744 2837 
Q 2550 3084 2163 3084 
Q 1697 3084 1428 2787 
Q 1159 2491 1159 1978 
L 1159 0 
L 581 0 
L 581 3500 
L 1159 3500 
L 1159 2956 
Q 1366 3272 1645 3428 
Q 1925 3584 2291 3584 
Q 2894 3584 3203 3211 
Q 3513 2838 3513 2113 
z
" transform="scale(0.015625)"/>
      <path id="DejaVuSans-2d" d="M 313 2009 
L 1997 2009 
L 1997 1497 
L 313 1497 
L 313 2009 
z
" transform="scale(0.015625)"/>
      <path id="DejaVuSans-70" d="M 1159 525 
L 1159 -1331 
L 581 -1331 
L 581 3500 
L 1159 3500 
L 1159 2969 
Q 1341 3281 1617 3432 
Q 1894 3584 2278 3584 
Q 2916 3584 3314 3078 
Q 3713 2572 3713 1747 
Q 3713 922 3314 415 
Q 2916 -91 2278 -91 
Q 1894 -91 1617 61 
Q 1341 213 1159 525 
z
M 3116 1747 
Q 3116 2381 2855 2742 
Q 2594 3103 2138 3103 
Q 1681 3103 1420 2742 
Q 1159 2381 1159 1747 
Q 1159 1113 1420 752 
Q 1681 391 2138 391 
Q 2594 391 2855 752 
Q 3116 1113 3116 1747 
z
" transform="scale(0.015625)"/>
      <path id="DejaVuSans-74" d="M 1172 4494 
L 1172 3500 
L 2356 3500 
L 2356 3053 
L 1172 3053 
L 1172 1153 
Q 1172 725 1289 603 
Q 1406 481 1766 481 
L 2356 481 
L 2356 0 
L 1766 0 
Q 1100 0 847 248 
Q 594 497 594 1153 
L 594 3053 
L 172 3053 
L 172 3500 
L 594 3500 
L 594 4494 
L 1172 4494 
z
" transform="scale(0.015625)"/>
     </defs>
     <use xlink:href="#DejaVuSans-45" transform="translate(0 0.015625)"/>
     <use xlink:href="#DejaVuSans-72" transform="translate(63.183594 0.015625)"/>
     <use xlink:href="#DejaVuSans-72" transform="translate(104.296875 0.015625)"/>
     <use xlink:href="#DejaVuSans-6f" transform="translate(145.410156 0.015625)"/>
     <use xlink:href="#DejaVuSans-72" transform="translate(206.591797 0.015625)"/>
     <use xlink:href="#DejaVuSans-20" transform="translate(247.705078 0.015625)"/>
     <use xlink:href="#DejaVuSans-69" transform="translate(279.492188 0.015625)"/>
     <use xlink:href="#DejaVuSans-6e" transform="translate(307.275391 0.015625)"/>
     <use xlink:href="#DejaVuSans-20" transform="translate(370.654297 0.015625)"/>
     <use xlink:href="#DejaVuSans-Oblique-78" transform="translate(402.441406 0.015625)"/>
     <use xlink:href="#DejaVuSans-2d" transform="translate(461.621094 0.015625)"/>
     <use xlink:href="#DejaVuSans-70" transform="translate(497.705078 0.015625)"/>
     <use xlink:href="#DejaVuSans-6f" transform="translate(561.181641 0.015625)"/>
     <use xlink:href="#DejaVuSans-73" transform="translate(622.363281 0.015625)"/>
     <use xlink:href="#DejaVuSans-69" transform="translate(674.462891 0.015625)"/>
     <use xlink:href="#DejaVuSans-74" transform="translate(702.246094 0.015625)"/>
     <use xlink:href="#DejaVuSans-69" transform="translate(741.455078 0.015625)"/>
     <use xlink:href="#DejaVuSans-6f" transform="translate(769.238281 0.015625)"/>
     <use xlink:href="#DejaVuSans-6e" transform="translate(830.419922 0.015625)"/>
    </g>
   </g>
  </g>
  <g id="axes_2">
   <g id="patch_7">
    <path d="M 58.106 190.3975 
L 450 190.3975 
L 450 139.92 
L 58.106 139.92 
z
" style="fill: #ffffff"/>
   </g>
   <g id="matplotlib.axis_3">
    <g id="xtick_7">
     <g id="line2d_18">
      <path d="M 75.919364 190.3975 
L 75.919364 139.92 
" clip-path="url(#p8e93cfd55d)" style="fill: none; stroke: #b0b0b0; stroke-width: 0.8; stroke-linecap: square"/>
     </g>
     <g id="line2d_19">
      <g>
       <use xlink:href="#m633bb1e1a9" x="75.919364" y="190.3975" style="stroke: #000000; stroke-width: 0.8"/>
      </g>
     </g>
     <g id="text_12">
      <!-- 0 -->
      <g transform="translate(72.738114 204.995937)scale(0.1 -0.1)">
       <use xlink:href="#DejaVuSans-30"/>
      </g>
     </g>
    </g>
    <g id="xtick_8">
     <g id="line2d_20">
      <path d="M 144.039301 190.3975 
L 144.039301 139.92 
" clip-path="url(#p8e93cfd55d)" style="fill: none; stroke: #b0b0b0; stroke-width: 0.8; stroke-linecap: square"/>
     </g>
     <g id="line2d_21">
      <g>
       <use xlink:href="#m633bb1e1a9" x="144.039301" y="190.3975" style="stroke: #000000; stroke-width: 0.8"/>
      </g>
     </g>
     <g id="text_13">
      <!-- 2 -->
      <g transform="translate(140.858051 204.995937)scale(0.1 -0.1)">
       <use xlink:href="#DejaVuSans-32"/>
      </g>
     </g>
    </g>
    <g id="xtick_9">
     <g id="line2d_22">
      <path d="M 212.159238 190.3975 
L 212.159238 139.92 
" clip-path="url(#p8e93cfd55d)" style="fill: none; stroke: #b0b0b0; stroke-width: 0.8; stroke-linecap: square"/>
     </g>
     <g id="line2d_23">
      <g>
       <use xlink:href="#m633bb1e1a9" x="212.159238" y="190.3975" style="stroke: #000000; stroke-width: 0.8"/>
      </g>
     </g>
     <g id="text_14">
      <!-- 4 -->
      <g transform="translate(208.977988 204.995937)scale(0.1 -0.1)">
       <use xlink:href="#DejaVuSans-34"/>
      </g>
     </g>
    </g>
    <g id="xtick_10">
     <g id="line2d_24">
      <path d="M 280.279176 190.3975 
L 280.279176 139.92 
" clip-path="url(#p8e93cfd55d)" style="fill: none; stroke: #b0b0b0; stroke-width: 0.8; stroke-linecap: square"/>
     </g>
     <g id="line2d_25">
      <g>
       <use xlink:href="#m633bb1e1a9" x="280.279176" y="190.3975" style="stroke: #000000; stroke-width: 0.8"/>
      </g>
     </g>
     <g id="text_15">
      <!-- 6 -->
      <g transform="translate(277.097926 204.995937)scale(0.1 -0.1)">
       <use xlink:href="#DejaVuSans-36"/>
      </g>
     </g>
    </g>
    <g id="xtick_11">
     <g id="line2d_26">
      <path d="M 348.399113 190.3975 
L 348.399113 139.92 
" clip-path="url(#p8e93cfd55d)" style="fill: none; stroke: #b0b0b0; stroke-width: 0.8; stroke-linecap: square"/>
     </g>
     <g id="line2d_27">
      <g>
       <use xlink:href="#m633bb1e1a9" x="348.399113" y="190.3975" style="stroke: #000000; stroke-width: 0.8"/>
      </g>
     </g>
     <g id="text_16">
      <!-- 8 -->
      <g transform="translate(345.217863 204.995937)scale(0.1 -0.1)">
       <use xlink:href="#DejaVuSans-38"/>
      </g>
     </g>
    </g>
    <g id="xtick_12">
     <g id="line2d_28">
      <path d="M 416.519051 190.3975 
L 416.519051 139.92 
" clip-path="url(#p8e93cfd55d)" style="fill: none; stroke: #b0b0b0; stroke-width: 0.8; stroke-linecap: square"/>
     </g>
     <g id="line2d_29">
      <g>
       <use xlink:href="#m633bb1e1a9" x="416.519051" y="190.3975" style="stroke: #000000; stroke-width: 0.8"/>
      </g>
     </g>
     <g id="text_17">
      <!-- 10 -->
      <g transform="translate(410.156551 204.995937)scale(0.1 -0.1)">
       <use xlink:href="#DejaVuSans-31"/>
       <use xlink:href="#DejaVuSans-30" x="63.623047"/>
      </g>
     </g>
    </g>
    <g id="text_18">
     <!-- $t$ [s] -->
     <g transform="translate(243.953 218.674062)scale(0.1 -0.1)">
      <use xlink:href="#DejaVuSans-Oblique-74" transform="translate(0 0.015625)"/>
      <use xlink:href="#DejaVuSans-20" transform="translate(39.208984 0.015625)"/>
      <use xlink:href="#DejaVuSans-5b" transform="translate(70.996094 0.015625)"/>
      <use xlink:href="#DejaVuSans-73" transform="translate(110.009766 0.015625)"/>
      <use xlink:href="#DejaVuSans-5d" transform="translate(162.109375 0.015625)"/>
     </g>
    </g>
   </g>
   <g id="matplotlib.axis_4">
    <g id="ytick_3">
     <g id="line2d_30">
      <path d="M 58.106 180.728237 
L 450 180.728237 
" clip-path="url(#p8e93cfd55d)" style="fill: none; stroke: #b0b0b0; stroke-width: 0.8; stroke-linecap: square"/>
     </g>
     <g id="line2d_31">
      <g>
       <use xlink:href="#m70709e4b89" x="58.106" y="180.728237" style="stroke: #000000; stroke-width: 0.8"/>
      </g>
     </g>
     <g id="text_19">
      <!-- −0.1 -->
      <g transform="translate(26.823188 184.527456)scale(0.1 -0.1)">
       <defs>
        <path id="DejaVuSans-2212" d="M 678 2272 
L 4684 2272 
L 4684 1741 
L 678 1741 
L 678 2272 
z
" transform="scale(0.015625)"/>
        <path id="DejaVuSans-2e" d="M 684 794 
L 1344 794 
L 1344 0 
L 684 0 
L 684 794 
z
" transform="scale(0.015625)"/>
       </defs>
       <use xlink:href="#DejaVuSans-2212"/>
       <use xlink:href="#DejaVuSans-30" x="83.789062"/>
       <use xlink:href="#DejaVuSans-2e" x="147.412109"/>
       <use xlink:href="#DejaVuSans-31" x="179.199219"/>
      </g>
     </g>
    </g>
    <g id="ytick_4">
     <g id="line2d_32">
      <path d="M 58.106 165.352125 
L 450 165.352125 
" clip-path="url(#p8e93cfd55d)" style="fill: none; stroke: #b0b0b0; stroke-width: 0.8; stroke-linecap: square"/>
     </g>
     <g id="line2d_33">
      <g>
       <use xlink:href="#m70709e4b89" x="58.106" y="165.352125" style="stroke: #000000; stroke-width: 0.8"/>
      </g>
     </g>
     <g id="text_20">
      <!-- 0.0 -->
      <g transform="translate(35.202875 169.151344)scale(0.1 -0.1)">
       <use xlink:href="#DejaVuSans-30"/>
       <use xlink:href="#DejaVuSans-2e" x="63.623047"/>
       <use xlink:href="#DejaVuSans-30" x="95.410156"/>
      </g>
     </g>
    </g>
    <g id="ytick_5">
     <g id="line2d_34">
      <path d="M 58.106 149.976014 
L 450 149.976014 
" clip-path="url(#p8e93cfd55d)" style="fill: none; stroke: #b0b0b0; stroke-width: 0.8; stroke-linecap: square"/>
     </g>
     <g id="line2d_35">
      <g>
       <use xlink:href="#m70709e4b89" x="58.106" y="149.976014" style="stroke: #000000; stroke-width: 0.8"/>
      </g>
     </g>
     <g id="text_21">
      <!-- 0.1 -->
      <g transform="translate(35.202875 153.775233)scale(0.1 -0.1)">
       <use xlink:href="#DejaVuSans-30"/>
       <use xlink:href="#DejaVuSans-2e" x="63.623047"/>
       <use xlink:href="#DejaVuSans-31" x="95.410156"/>
      </g>
     </g>
    </g>
    <g id="text_22">
     <!-- $e_z$ [m] -->
     <g transform="translate(20.7435 180.60875)rotate(-90)scale(0.1 -0.1)">
      <defs>
       <path id="DejaVuSans-Oblique-7a" d="M 744 3500 
L 3475 3500 
L 3372 2975 
L 738 459 
L 2913 459 
L 2822 0 
L -19 0 
L 84 525 
L 2719 3041 
L 653 3041 
L 744 3500 
z
" transform="scale(0.015625)"/>
      </defs>
      <use xlink:href="#DejaVuSans-Oblique-65" transform="translate(0 0.015625)"/>
      <use xlink:href="#DejaVuSans-Oblique-7a" transform="translate(61.523438 -16.390625)scale(0.7)"/>
      <use xlink:href="#DejaVuSans-20" transform="translate(101.000977 0.015625)"/>
      <use xlink:href="#DejaVuSans-5b" transform="translate(132.788086 0.015625)"/>
      <use xlink:href="#DejaVuSans-6d" transform="translate(171.801758 0.015625)"/>
      <use xlink:href="#DejaVuSans-5d" transform="translate(269.213867 0.015625)"/>
     </g>
    </g>
   </g>
   <g id="line2d_36">
    <path d="M 75.919364 166.84999 
L 79.32862 167.057765 
L 83.419727 167.491064 
L 84.78343 166.927893 
L 85.124355 166.579662 
L 87.85176 165.113106 
L 88.192686 165.113106 
L 88.533612 164.799902 
L 89.215463 164.612341 
L 89.897314 164.300953 
L 90.23824 164.010675 
L 90.579165 163.54359 
L 91.601942 162.651299 
L 91.942868 162.113252 
L 92.283793 161.311547 
L 93.30657 160.018488 
L 93.988421 158.564129 
L 94.329347 158.564129 
L 94.670273 157.831209 
L 96.033975 156.414842 
L 96.374901 156.414842 
L 96.715826 156.140844 
L 97.738603 155.960718 
L 99.102306 155.966365 
L 102.852488 156.127522 
L 103.875264 155.999904 
L 105.238967 155.501123 
L 105.920818 155.266041 
L 106.943595 154.613417 
L 107.625446 154.415608 
L 107.966372 154.285894 
L 108.307298 153.973029 
L 108.648223 153.973029 
L 109.330074 153.621349 
L 110.693777 153.097567 
L 111.375628 152.685361 
L 112.057479 152.35688 
L 112.398405 151.973925 
L 112.739331 151.973925 
L 113.080256 151.291908 
L 113.421182 151.166784 
L 114.103033 150.642029 
L 114.443959 150.100088 
L 114.784884 150.100088 
L 115.12581 149.305888 
L 115.807661 148.943054 
L 116.148587 148.720499 
L 116.489512 148.327831 
L 116.830438 148.327831 
L 117.171364 147.850966 
L 117.853215 147.646328 
L 118.19414 147.515226 
L 118.535066 147.249487 
L 118.875992 147.249487 
L 119.216917 146.813016 
L 119.898769 146.572682 
L 120.921545 145.964367 
L 121.262471 145.62037 
L 123.308025 144.778347 
L 127.058207 144.210906 
L 127.740058 143.923791 
L 128.421909 143.636211 
L 129.10376 143.276002 
L 132.172091 142.29638 
L 133.876719 142.214432 
L 135.240421 142.486076 
L 135.581347 142.774582 
L 135.922273 142.774582 
L 136.604124 143.245533 
L 137.285975 143.621985 
L 137.626901 144.144527 
L 137.967826 144.144527 
L 138.308752 144.584785 
L 139.672455 145.553254 
L 140.01338 145.946005 
L 141.718008 146.899056 
L 142.058934 147.226711 
L 143.422636 147.937713 
L 145.46819 149.905767 
L 145.809116 150.507657 
L 146.150041 150.507657 
L 146.490967 151.120248 
L 147.513744 152.15371 
L 147.854669 152.690194 
L 149.218372 153.591463 
L 149.900223 154.041773 
L 150.241149 154.35958 
L 151.604851 155.035811 
L 152.286702 155.542336 
L 153.650405 156.324673 
L 155.014107 157.441412 
L 156.036884 158.04246 
L 156.37781 158.323231 
L 158.764289 159.102654 
L 159.105215 159.102654 
L 159.44614 159.365031 
L 160.127992 159.52157 
L 160.468917 159.637899 
L 161.83262 160.570002 
L 162.514471 160.855681 
L 162.855397 161.252 
L 163.878174 161.946815 
L 164.219099 162.32496 
L 164.560025 162.32496 
L 164.90095 162.683936 
L 165.241876 162.683936 
L 165.582802 163.198278 
L 166.264653 163.45731 
L 166.605579 163.634767 
L 167.628355 164.671738 
L 167.969281 164.795633 
L 168.992058 165.63014 
L 169.332983 166.10569 
L 169.673909 166.796103 
L 171.037612 168.345962 
L 172.401314 170.605401 
L 172.74224 170.99585 
L 173.765017 172.580028 
L 174.787793 173.58903 
L 175.128719 174.094672 
L 175.469645 174.094672 
L 175.81057 174.574797 
L 176.492421 175.165672 
L 176.833347 175.522529 
L 177.174273 175.642006 
L 177.515198 175.88107 
L 177.856124 176.356046 
L 178.537975 176.934697 
L 178.878901 177.26782 
L 179.560752 177.587182 
L 179.901678 177.988544 
L 182.288157 179.230328 
L 183.310934 179.511652 
L 184.674636 179.858363 
L 188.424818 180.936256 
L 190.129446 181.114764 
L 192.175 181.207921 
L 193.538702 181.514034 
L 194.220554 181.745159 
L 195.584256 181.896977 
L 197.288884 181.591068 
L 198.652587 181.343418 
L 199.334438 181.431492 
L 199.675364 181.572234 
L 200.357215 182.010125 
L 201.379992 182.611401 
L 201.720917 182.9035 
L 202.061843 182.9035 
L 202.402769 183.116621 
L 203.425545 183.25565 
L 204.789248 183.0706 
L 205.130174 182.803676 
L 206.15295 182.542076 
L 206.834802 182.266272 
L 207.516653 182.156575 
L 208.198504 182.190319 
L 209.562207 182.775729 
L 209.903132 183.095166 
L 210.244058 183.095166 
L 210.584983 183.413791 
L 212.289612 184.09982 
L 213.653314 184.182261 
L 215.357942 184.017162 
L 216.380719 183.953854 
L 217.744421 184.259439 
L 218.767198 185.047677 
L 219.44905 185.325187 
L 219.789975 185.509731 
L 220.130901 185.85873 
L 221.494603 186.43147 
L 222.858306 186.631743 
L 226.608488 186.471427 
L 227.631264 186.72388 
L 228.313116 186.995161 
L 230.358669 187.411975 
L 231.381446 187.353077 
L 231.722372 187.225602 
L 232.063298 187.225602 
L 232.745149 187.018343 
L 234.790702 186.651029 
L 236.154405 186.776814 
L 236.495331 186.971481 
L 237.518107 187.13588 
L 238.199959 187.282649 
L 239.222736 187.299945 
L 239.904587 187.212978 
L 242.972917 186.769322 
L 245.359397 187.145439 
L 246.041248 187.300795 
L 247.745876 187.432314 
L 249.109579 187.314508 
L 250.132355 187.191204 
L 251.836983 187.240358 
L 253.882537 187.442533 
L 257.291793 187.683608 
L 259.337347 187.562654 
L 261.723826 187.624341 
L 264.792157 187.716443 
L 267.860488 187.663855 
L 269.22419 187.869501 
L 269.906041 188.025795 
L 271.269744 188.100227 
L 272.292521 187.893222 
L 272.974372 187.712967 
L 273.315298 187.505218 
L 273.656223 187.505218 
L 273.997149 187.160811 
L 274.679 186.976512 
L 276.724554 186.298268 
L 277.747331 186.307987 
L 279.792884 186.413264 
L 280.815661 186.282802 
L 282.861215 185.539185 
L 283.543066 185.352954 
L 284.906769 184.961674 
L 286.270471 184.58096 
L 287.975099 184.473115 
L 291.04343 184.529309 
L 292.407132 184.203291 
L 294.11176 183.688269 
L 294.793612 183.370033 
L 295.816388 182.973059 
L 297.521017 182.568623 
L 298.543793 182.619247 
L 300.930273 182.75924 
L 302.293975 182.583887 
L 302.975826 182.333 
L 303.657678 182.08467 
L 303.998603 181.894894 
L 304.339529 181.894894 
L 305.02138 181.610673 
L 305.703231 181.363574 
L 306.044157 181.17811 
L 306.385083 181.17811 
L 307.066934 180.978142 
L 308.430636 180.923529 
L 311.158041 181.330406 
L 312.180818 181.306268 
L 314.226372 180.666546 
L 314.908223 180.331136 
L 316.612851 179.739393 
L 317.294702 179.486938 
L 318.317479 179.3854 
L 318.999331 179.482402 
L 320.022107 179.688091 
L 321.044884 180.070183 
L 323.090438 180.150543 
L 324.113215 179.959984 
L 324.45414 179.757669 
L 324.795066 179.757669 
L 325.135992 179.474396 
L 326.158769 179.304135 
L 327.181545 179.045234 
L 328.545248 178.853144 
L 331.613579 178.953816 
L 334.340983 179.03939 
L 340.477645 178.480133 
L 342.864124 178.604024 
L 345.250603 178.501983 
L 347.637083 178.396417 
L 350.023562 178.527454 
L 351.046339 178.665428 
L 352.750967 178.690001 
L 356.842074 178.549298 
L 361.274107 179.18806 
L 362.63781 179.30062 
L 367.069843 179.320937 
L 367.751694 179.458833 
L 368.09262 179.59826 
L 368.433545 179.59826 
L 369.115397 179.83035 
L 371.842802 180.337521 
L 373.206504 180.385942 
L 375.592983 180.381968 
L 377.297612 180.667738 
L 377.638537 180.93007 
L 378.661314 181.147154 
L 379.00224 181.296176 
L 379.343165 181.296176 
L 379.684091 181.461853 
L 382.07057 181.509335 
L 384.116124 181.539755 
L 385.479826 181.792663 
L 386.161678 182.09602 
L 387.52538 182.649188 
L 388.207231 182.979444 
L 389.570934 183.210034 
L 390.934636 183.109032 
L 391.275562 182.969891 
L 391.616488 182.969891 
L 391.957413 182.718086 
L 392.98019 182.526698 
L 393.662041 182.427961 
L 394.684818 182.466053 
L 395.707595 182.670851 
L 396.048521 182.94213 
L 397.071298 183.154317 
L 397.753149 183.321628 
L 398.775926 183.328567 
L 399.457777 183.152478 
L 400.139628 182.89745 
L 400.821479 182.513741 
L 401.162405 182.513741 
L 401.503331 182.252943 
L 403.207959 181.758689 
L 404.230736 181.660648 
L 405.253512 181.535701 
L 406.276289 181.267763 
L 406.617215 181.057588 
L 406.95814 180.699033 
L 407.299066 180.699033 
L 407.639992 180.267332 
L 408.321843 179.680644 
L 408.662769 179.337883 
L 409.34462 179.01338 
L 409.685545 178.619455 
L 411.049248 178.012777 
L 412.072025 177.890995 
L 413.776653 177.951983 
L 414.458504 177.833857 
L 415.822207 177.205585 
L 416.504058 176.697451 
L 417.185909 176.469463 
L 418.549612 175.975551 
L 421.617942 175.50554 
L 423.32257 173.891016 
L 423.663496 173.891016 
L 424.004421 173.441846 
L 425.368124 172.630844 
L 426.049975 172.521197 
L 426.731826 172.530317 
L 427.754603 172.779565 
L 428.436455 173.064025 
L 429.459231 173.21671 
L 430.482008 173.006282 
L 431.16386 172.727913 
L 431.504785 172.443761 
L 431.845711 171.983509 
L 432.186636 171.732689 
L 432.186636 171.732689 
" clip-path="url(#p8e93cfd55d)" style="fill: none; stroke: #0000ff; stroke-width: 1.5; stroke-linecap: square"/>
   </g>
   <g id="patch_8">
    <path d="M 58.106 190.3975 
L 58.106 139.92 
" style="fill: none; stroke: #000000; stroke-width: 0.8; stroke-linejoin: miter; stroke-linecap: square"/>
   </g>
   <g id="patch_9">
    <path d="M 450 190.3975 
L 450 139.92 
" style="fill: none; stroke: #000000; stroke-width: 0.8; stroke-linejoin: miter; stroke-linecap: square"/>
   </g>
   <g id="patch_10">
    <path d="M 58.106 190.3975 
L 450 190.3975 
" style="fill: none; stroke: #000000; stroke-width: 0.8; stroke-linejoin: miter; stroke-linecap: square"/>
   </g>
   <g id="patch_11">
    <path d="M 58.106 139.92 
L 450 139.92 
" style="fill: none; stroke: #000000; stroke-width: 0.8; stroke-linejoin: miter; stroke-linecap: square"/>
   </g>
   <g id="text_23">
    <!-- Error in $z$-position -->
    <g transform="translate(200.773 133.92)scale(0.12 -0.12)">
     <use xlink:href="#DejaVuSans-45" transform="translate(0 0.015625)"/>
     <use xlink:href="#DejaVuSans-72" transform="translate(63.183594 0.015625)"/>
     <use xlink:href="#DejaVuSans-72" transform="translate(104.296875 0.015625)"/>
     <use xlink:href="#DejaVuSans-6f" transform="translate(145.410156 0.015625)"/>
     <use xlink:href="#DejaVuSans-72" transform="translate(206.591797 0.015625)"/>
     <use xlink:href="#DejaVuSans-20" transform="translate(247.705078 0.015625)"/>
     <use xlink:href="#DejaVuSans-69" transform="translate(279.492188 0.015625)"/>
     <use xlink:href="#DejaVuSans-6e" transform="translate(307.275391 0.015625)"/>
     <use xlink:href="#DejaVuSans-20" transform="translate(370.654297 0.015625)"/>
     <use xlink:href="#DejaVuSans-Oblique-7a" transform="translate(402.441406 0.015625)"/>
     <use xlink:href="#DejaVuSans-2d" transform="translate(454.931641 0.015625)"/>
     <use xlink:href="#DejaVuSans-70" transform="translate(491.015625 0.015625)"/>
     <use xlink:href="#DejaVuSans-6f" transform="translate(554.492188 0.015625)"/>
     <use xlink:href="#DejaVuSans-73" transform="translate(615.673828 0.015625)"/>
     <use xlink:href="#DejaVuSans-69" transform="translate(667.773438 0.015625)"/>
     <use xlink:href="#DejaVuSans-74" transform="translate(695.556641 0.015625)"/>
     <use xlink:href="#DejaVuSans-69" transform="translate(734.765625 0.015625)"/>
     <use xlink:href="#DejaVuSans-6f" transform="translate(762.548828 0.015625)"/>
     <use xlink:href="#DejaVuSans-6e" transform="translate(823.730469 0.015625)"/>
    </g>
   </g>
  </g>
  <g id="axes_3">
   <g id="patch_12">
    <path d="M 58.106 301.9975 
L 450 301.9975 
L 450 251.52 
L 58.106 251.52 
z
" style="fill: #ffffff"/>
   </g>
   <g id="matplotlib.axis_5">
    <g id="xtick_13">
     <g id="line2d_37">
      <path d="M 75.919364 301.9975 
L 75.919364 251.52 
" clip-path="url(#pa938d4aa5a)" style="fill: none; stroke: #b0b0b0; stroke-width: 0.8; stroke-linecap: square"/>
     </g>
     <g id="line2d_38">
      <g>
       <use xlink:href="#m633bb1e1a9" x="75.919364" y="301.9975" style="stroke: #000000; stroke-width: 0.8"/>
      </g>
     </g>
     <g id="text_24">
      <!-- 0 -->
      <g transform="translate(72.738114 316.595937)scale(0.1 -0.1)">
       <use xlink:href="#DejaVuSans-30"/>
      </g>
     </g>
    </g>
    <g id="xtick_14">
     <g id="line2d_39">
      <path d="M 144.039301 301.9975 
L 144.039301 251.52 
" clip-path="url(#pa938d4aa5a)" style="fill: none; stroke: #b0b0b0; stroke-width: 0.8; stroke-linecap: square"/>
     </g>
     <g id="line2d_40">
      <g>
       <use xlink:href="#m633bb1e1a9" x="144.039301" y="301.9975" style="stroke: #000000; stroke-width: 0.8"/>
      </g>
     </g>
     <g id="text_25">
      <!-- 2 -->
      <g transform="translate(140.858051 316.595937)scale(0.1 -0.1)">
       <use xlink:href="#DejaVuSans-32"/>
      </g>
     </g>
    </g>
    <g id="xtick_15">
     <g id="line2d_41">
      <path d="M 212.159238 301.9975 
L 212.159238 251.52 
" clip-path="url(#pa938d4aa5a)" style="fill: none; stroke: #b0b0b0; stroke-width: 0.8; stroke-linecap: square"/>
     </g>
     <g id="line2d_42">
      <g>
       <use xlink:href="#m633bb1e1a9" x="212.159238" y="301.9975" style="stroke: #000000; stroke-width: 0.8"/>
      </g>
     </g>
     <g id="text_26">
      <!-- 4 -->
      <g transform="translate(208.977988 316.595937)scale(0.1 -0.1)">
       <use xlink:href="#DejaVuSans-34"/>
      </g>
     </g>
    </g>
    <g id="xtick_16">
     <g id="line2d_43">
      <path d="M 280.279176 301.9975 
L 280.279176 251.52 
" clip-path="url(#pa938d4aa5a)" style="fill: none; stroke: #b0b0b0; stroke-width: 0.8; stroke-linecap: square"/>
     </g>
     <g id="line2d_44">
      <g>
       <use xlink:href="#m633bb1e1a9" x="280.279176" y="301.9975" style="stroke: #000000; stroke-width: 0.8"/>
      </g>
     </g>
     <g id="text_27">
      <!-- 6 -->
      <g transform="translate(277.097926 316.595937)scale(0.1 -0.1)">
       <use xlink:href="#DejaVuSans-36"/>
      </g>
     </g>
    </g>
    <g id="xtick_17">
     <g id="line2d_45">
      <path d="M 348.399113 301.9975 
L 348.399113 251.52 
" clip-path="url(#pa938d4aa5a)" style="fill: none; stroke: #b0b0b0; stroke-width: 0.8; stroke-linecap: square"/>
     </g>
     <g id="line2d_46">
      <g>
       <use xlink:href="#m633bb1e1a9" x="348.399113" y="301.9975" style="stroke: #000000; stroke-width: 0.8"/>
      </g>
     </g>
     <g id="text_28">
      <!-- 8 -->
      <g transform="translate(345.217863 316.595937)scale(0.1 -0.1)">
       <use xlink:href="#DejaVuSans-38"/>
      </g>
     </g>
    </g>
    <g id="xtick_18">
     <g id="line2d_47">
      <path d="M 416.519051 301.9975 
L 416.519051 251.52 
" clip-path="url(#pa938d4aa5a)" style="fill: none; stroke: #b0b0b0; stroke-width: 0.8; stroke-linecap: square"/>
     </g>
     <g id="line2d_48">
      <g>
       <use xlink:href="#m633bb1e1a9" x="416.519051" y="301.9975" style="stroke: #000000; stroke-width: 0.8"/>
      </g>
     </g>
     <g id="text_29">
      <!-- 10 -->
      <g transform="translate(410.156551 316.595937)scale(0.1 -0.1)">
       <use xlink:href="#DejaVuSans-31"/>
       <use xlink:href="#DejaVuSans-30" x="63.623047"/>
      </g>
     </g>
    </g>
    <g id="text_30">
     <!-- $t$ [s] -->
     <g transform="translate(243.953 330.274063)scale(0.1 -0.1)">
      <use xlink:href="#DejaVuSans-Oblique-74" transform="translate(0 0.015625)"/>
      <use xlink:href="#DejaVuSans-20" transform="translate(39.208984 0.015625)"/>
      <use xlink:href="#DejaVuSans-5b" transform="translate(70.996094 0.015625)"/>
      <use xlink:href="#DejaVuSans-73" transform="translate(110.009766 0.015625)"/>
      <use xlink:href="#DejaVuSans-5d" transform="translate(162.109375 0.015625)"/>
     </g>
    </g>
   </g>
   <g id="matplotlib.axis_6">
    <g id="ytick_6">
     <g id="line2d_49">
      <path d="M 58.106 290.078908 
L 450 290.078908 
" clip-path="url(#pa938d4aa5a)" style="fill: none; stroke: #b0b0b0; stroke-width: 0.8; stroke-linecap: square"/>
     </g>
     <g id="line2d_50">
      <g>
       <use xlink:href="#m70709e4b89" x="58.106" y="290.078908" style="stroke: #000000; stroke-width: 0.8"/>
      </g>
     </g>
     <g id="text_31">
      <!-- −0.1 -->
      <g transform="translate(26.823188 293.878127)scale(0.1 -0.1)">
       <use xlink:href="#DejaVuSans-2212"/>
       <use xlink:href="#DejaVuSans-30" x="83.789062"/>
       <use xlink:href="#DejaVuSans-2e" x="147.412109"/>
       <use xlink:href="#DejaVuSans-31" x="179.199219"/>
      </g>
     </g>
    </g>
    <g id="ytick_7">
     <g id="line2d_51">
      <path d="M 58.106 274.845916 
L 450 274.845916 
" clip-path="url(#pa938d4aa5a)" style="fill: none; stroke: #b0b0b0; stroke-width: 0.8; stroke-linecap: square"/>
     </g>
     <g id="line2d_52">
      <g>
       <use xlink:href="#m70709e4b89" x="58.106" y="274.845916" style="stroke: #000000; stroke-width: 0.8"/>
      </g>
     </g>
     <g id="text_32">
      <!-- 0.0 -->
      <g transform="translate(35.202875 278.645135)scale(0.1 -0.1)">
       <use xlink:href="#DejaVuSans-30"/>
       <use xlink:href="#DejaVuSans-2e" x="63.623047"/>
       <use xlink:href="#DejaVuSans-30" x="95.410156"/>
      </g>
     </g>
    </g>
    <g id="ytick_8">
     <g id="line2d_53">
      <path d="M 58.106 259.612924 
L 450 259.612924 
" clip-path="url(#pa938d4aa5a)" style="fill: none; stroke: #b0b0b0; stroke-width: 0.8; stroke-linecap: square"/>
     </g>
     <g id="line2d_54">
      <g>
       <use xlink:href="#m70709e4b89" x="58.106" y="259.612924" style="stroke: #000000; stroke-width: 0.8"/>
      </g>
     </g>
     <g id="text_33">
      <!-- 0.1 -->
      <g transform="translate(35.202875 263.412143)scale(0.1 -0.1)">
       <use xlink:href="#DejaVuSans-30"/>
       <use xlink:href="#DejaVuSans-2e" x="63.623047"/>
       <use xlink:href="#DejaVuSans-31" x="95.410156"/>
      </g>
     </g>
    </g>
    <g id="text_34">
     <!-- $e_\theta$ [rad] -->
     <g transform="translate(20.7435 295.90875)rotate(-90)scale(0.1 -0.1)">
      <defs>
       <path id="DejaVuSans-Oblique-3b8" d="M 2913 2219 
L 925 2219 
Q 791 1284 928 888 
Q 1100 400 1566 400 
Q 2034 400 2391 891 
Q 2703 1322 2913 2219 
z
M 3009 2750 
Q 3094 3638 2984 3950 
Q 2813 4444 2353 4444 
Q 1875 4444 1525 3956 
Q 1250 3563 1034 2750 
L 3009 2750 
z
M 2444 4913 
Q 3194 4913 3494 4250 
Q 3794 3591 3566 2422 
Q 3341 1256 2781 594 
Q 2225 -72 1475 -72 
Q 722 -72 425 594 
Q 128 1256 353 2422 
Q 581 3591 1134 4250 
Q 1691 4913 2444 4913 
z
" transform="scale(0.015625)"/>
       <path id="DejaVuSans-61" d="M 2194 1759 
Q 1497 1759 1228 1600 
Q 959 1441 959 1056 
Q 959 750 1161 570 
Q 1363 391 1709 391 
Q 2188 391 2477 730 
Q 2766 1069 2766 1631 
L 2766 1759 
L 2194 1759 
z
M 3341 1997 
L 3341 0 
L 2766 0 
L 2766 531 
Q 2569 213 2275 61 
Q 1981 -91 1556 -91 
Q 1019 -91 701 211 
Q 384 513 384 1019 
Q 384 1609 779 1909 
Q 1175 2209 1959 2209 
L 2766 2209 
L 2766 2266 
Q 2766 2663 2505 2880 
Q 2244 3097 1772 3097 
Q 1472 3097 1187 3025 
Q 903 2953 641 2809 
L 641 3341 
Q 956 3463 1253 3523 
Q 1550 3584 1831 3584 
Q 2591 3584 2966 3190 
Q 3341 2797 3341 1997 
z
" transform="scale(0.015625)"/>
       <path id="DejaVuSans-64" d="M 2906 2969 
L 2906 4863 
L 3481 4863 
L 3481 0 
L 2906 0 
L 2906 525 
Q 2725 213 2448 61 
Q 2172 -91 1784 -91 
Q 1150 -91 751 415 
Q 353 922 353 1747 
Q 353 2572 751 3078 
Q 1150 3584 1784 3584 
Q 2172 3584 2448 3432 
Q 2725 3281 2906 2969 
z
M 947 1747 
Q 947 1113 1208 752 
Q 1469 391 1925 391 
Q 2381 391 2643 752 
Q 2906 1113 2906 1747 
Q 2906 2381 2643 2742 
Q 2381 3103 1925 3103 
Q 1469 3103 1208 2742 
Q 947 2381 947 1747 
z
" transform="scale(0.015625)"/>
      </defs>
      <use xlink:href="#DejaVuSans-Oblique-65" transform="translate(0 0.015625)"/>
      <use xlink:href="#DejaVuSans-Oblique-3b8" transform="translate(61.523438 -16.390625)scale(0.7)"/>
      <use xlink:href="#DejaVuSans-20" transform="translate(107.084961 0.015625)"/>
      <use xlink:href="#DejaVuSans-5b" transform="translate(138.87207 0.015625)"/>
      <use xlink:href="#DejaVuSans-72" transform="translate(177.885742 0.015625)"/>
      <use xlink:href="#DejaVuSans-61" transform="translate(218.999023 0.015625)"/>
      <use xlink:href="#DejaVuSans-64" transform="translate(280.27832 0.015625)"/>
      <use xlink:href="#DejaVuSans-5d" transform="translate(343.754883 0.015625)"/>
     </g>
    </g>
   </g>
   <g id="line2d_55">
    <path d="M 75.919364 274.847681 
L 76.94214 274.840246 
L 77.283066 274.893516 
L 77.623992 274.525698 
L 77.964917 274.525698 
L 78.305843 272.041422 
L 78.646769 271.41127 
L 79.32862 268.447899 
L 79.669545 265.182161 
L 80.010471 263.571092 
L 80.692322 259.162596 
L 81.033248 257.36196 
L 81.374174 257.36196 
L 81.715099 255.538674 
L 82.39695 254.512474 
L 83.078802 254.832697 
L 83.419727 255.386952 
L 84.101579 258.465499 
L 84.442504 259.916028 
L 84.78343 262.435001 
L 85.124355 266.302531 
L 86.488058 275.403216 
L 87.169909 283.81987 
L 87.510835 283.81987 
L 87.85176 288.24891 
L 88.192686 288.24891 
L 88.533612 293.92869 
L 88.874537 294.711908 
L 89.556388 297.300652 
L 90.23824 299.247092 
L 90.579165 299.703068 
L 90.920091 299.569233 
L 91.261017 299.212624 
L 91.601942 298.658736 
L 91.942868 297.512061 
L 92.283793 295.375999 
L 92.965645 292.408792 
L 93.30657 290.614536 
L 93.647496 287.598968 
L 93.988421 283.115418 
L 94.329347 283.115418 
L 94.670273 278.473014 
L 95.352124 273.903887 
L 96.033975 266.791522 
L 96.374901 266.791522 
L 96.715826 263.412373 
L 97.397678 260.566442 
L 98.079529 258.272228 
L 98.420455 257.701844 
L 98.76138 257.772684 
L 99.443231 258.392204 
L 99.784157 258.861026 
L 100.125083 260.288296 
L 100.466008 260.288296 
L 100.806934 261.564463 
L 101.829711 263.567171 
L 102.170636 264.899629 
L 102.511562 264.899629 
L 102.852488 266.819956 
L 103.193413 267.127683 
L 103.875264 268.310316 
L 104.557116 270.091981 
L 104.898041 270.724386 
L 105.238967 270.919839 
L 105.920818 271.64398 
L 106.602669 272.792228 
L 106.943595 273.255464 
L 107.284521 273.40627 
L 107.966372 274.000347 
L 108.307298 274.786106 
L 108.648223 274.786106 
L 108.989149 275.5053 
L 110.011926 276.801964 
L 110.352851 277.328697 
L 110.693777 278.236392 
L 111.034702 279.676829 
L 112.057479 282.300658 
L 112.398405 284.225959 
L 112.739331 284.225959 
L 113.080256 286.966347 
L 113.421182 287.342491 
L 114.103033 288.446349 
L 114.443959 288.601625 
L 114.784884 288.601625 
L 115.12581 286.815741 
L 115.466736 286.314056 
L 116.148587 283.897295 
L 116.489512 281.093224 
L 116.830438 281.093224 
L 117.171364 276.660237 
L 117.512289 275.933993 
L 118.19414 273.121696 
L 118.535066 270.640475 
L 118.875992 270.640475 
L 119.216917 268.190059 
L 119.898769 267.772386 
L 120.239694 267.786228 
L 120.58062 267.988717 
L 120.921545 268.552307 
L 121.262471 269.524763 
L 122.285248 270.940351 
L 122.626174 271.771038 
L 124.330802 272.875539 
L 124.671727 273.695546 
L 125.012653 273.695546 
L 125.353579 274.574775 
L 126.717281 276.479724 
L 127.058207 276.479724 
L 127.399132 276.340298 
L 128.080983 275.617754 
L 128.421909 274.689635 
L 128.762835 272.957716 
L 129.785612 269.600475 
L 130.808388 264.1549 
L 131.149314 264.1549 
L 131.49024 262.052901 
L 132.172091 259.758542 
L 133.194868 258.924815 
L 133.876719 258.940105 
L 134.217645 259.767359 
L 134.55857 259.957343 
L 135.240421 260.762727 
L 135.581347 261.743122 
L 135.922273 261.743122 
L 136.263198 262.432127 
L 137.285975 263.222361 
L 137.626901 263.40655 
L 137.967826 263.40655 
L 138.990603 262.53293 
L 139.331529 262.138805 
L 139.672455 261.460624 
L 140.01338 260.520656 
L 140.695231 259.715321 
L 141.377083 259.205274 
L 141.718008 259.082009 
L 142.740785 259.738472 
L 143.422636 260.400665 
L 143.763562 260.982061 
L 144.104488 261.834094 
L 145.127264 263.204743 
L 145.809116 264.845442 
L 146.150041 264.845442 
L 146.490967 265.865404 
L 147.172818 267.029796 
L 147.513744 268.027216 
L 147.854669 269.529867 
L 149.218372 273.017303 
L 149.559298 273.919596 
L 150.582074 277.614602 
L 151.604851 280.110048 
L 151.945777 281.222194 
L 152.968554 282.422577 
L 153.991331 283.208797 
L 154.332256 283.337396 
L 155.014107 283.273554 
L 155.695959 283.010995 
L 156.036884 282.659452 
L 156.37781 281.959437 
L 157.400587 280.475822 
L 158.082438 278.553856 
L 158.423364 278.553856 
L 158.764289 277.657161 
L 159.105215 277.657161 
L 159.44614 276.69515 
L 160.127992 276.392029 
L 160.468917 276.227703 
L 161.491694 275.232999 
L 161.83262 274.589823 
L 162.173545 274.324597 
L 162.514471 273.711161 
L 162.855397 272.144327 
L 163.537248 270.121433 
L 163.878174 268.333202 
L 164.219099 265.673847 
L 164.560025 265.673847 
L 164.90095 262.978451 
L 165.241876 262.978451 
L 165.582802 259.345345 
L 165.923727 258.849439 
L 167.28743 255.66103 
L 167.628355 255.190293 
L 167.969281 255.043231 
L 169.332983 254.027291 
L 169.673909 253.847704 
L 170.696686 253.856861 
L 171.378537 254.078879 
L 172.060388 254.5222 
L 172.74224 254.898796 
L 173.083165 255.224421 
L 173.424091 255.720869 
L 174.446868 256.680091 
L 174.787793 257.292378 
L 175.128719 258.21885 
L 175.469645 258.21885 
L 175.81057 259.183117 
L 176.151496 259.649677 
L 176.833347 260.880812 
L 177.174273 261.046982 
L 177.515198 261.344484 
L 177.856124 261.811895 
L 178.878901 262.29766 
L 180.583529 262.505514 
L 181.606306 262.758157 
L 184.333711 265.528 
L 185.015562 265.790641 
L 186.72019 265.909108 
L 187.061116 266.132987 
L 187.402041 266.726016 
L 187.742967 266.726016 
L 188.424818 268.474173 
L 189.106669 270.238595 
L 189.447595 271.802669 
L 189.788521 274.076152 
L 191.493149 279.554243 
L 191.834074 280.435521 
L 192.175 280.61068 
L 192.515926 280.632684 
L 192.856851 280.525908 
L 193.197777 280.300126 
L 193.538702 279.760653 
L 193.879628 278.792149 
L 195.584256 276.197466 
L 195.925182 275.824775 
L 196.607033 275.859995 
L 197.288884 276.157468 
L 197.970736 276.650512 
L 198.311661 276.893786 
L 198.993512 276.836814 
L 199.334438 276.686705 
L 199.675364 276.332818 
L 200.016289 275.719037 
L 201.039066 274.897341 
L 201.379992 274.752874 
L 201.720917 275.077511 
L 202.061843 275.077511 
L 202.743694 276.723388 
L 203.08462 277.518747 
L 203.766471 280.382272 
L 204.107397 280.382272 
L 204.448322 281.415356 
L 204.789248 281.415356 
L 205.130174 280.774712 
L 205.471099 280.370589 
L 206.15295 277.996169 
L 206.493876 274.694579 
L 206.834802 272.857774 
L 207.516653 267.141863 
L 207.857579 266.217408 
L 208.198504 264.422873 
L 208.53943 261.182566 
L 209.221281 258.768089 
L 209.562207 257.655198 
L 209.903132 257.195536 
L 210.244058 257.195536 
L 210.925909 258.82533 
L 211.266835 259.908969 
L 211.60776 261.892478 
L 211.948686 264.979126 
L 213.312388 271.216166 
L 213.99424 273.65668 
L 214.335165 273.975399 
L 214.676091 273.582881 
L 215.017017 272.861764 
L 215.698868 270.625935 
L 216.039793 269.219881 
L 216.380719 266.92131 
L 216.721645 263.708774 
L 217.744421 259.15626 
L 218.085347 256.571235 
L 218.426273 255.178242 
L 218.767198 254.45959 
L 219.108124 254.387807 
L 219.44905 254.497683 
L 219.789975 254.942471 
L 220.812752 260.428848 
L 221.153678 263.02673 
L 221.494603 263.929301 
L 221.835529 265.744852 
L 222.176455 269.218208 
L 223.540157 275.009454 
L 224.222008 275.036334 
L 224.562934 274.585089 
L 224.90386 273.855276 
L 225.244785 272.346607 
L 225.585711 269.865296 
L 226.949413 264.748414 
L 227.97219 261.605298 
L 228.313116 261.581172 
L 228.654041 261.837205 
L 228.994967 262.364261 
L 229.335893 263.145869 
L 229.676818 266.064693 
L 230.017744 266.064693 
L 230.358669 269.058221 
L 231.381446 273.796792 
L 231.722372 276.882307 
L 232.063298 276.882307 
L 232.404223 278.413712 
L 232.745149 278.860481 
L 233.086074 279.107923 
L 233.427 279.138126 
L 233.767926 278.152473 
L 234.108851 278.152473 
L 234.449777 276.487074 
L 235.472554 273.346222 
L 235.813479 271.216474 
L 236.154405 271.216474 
L 236.495331 268.389217 
L 236.836256 267.985265 
L 237.518107 266.691021 
L 237.859033 266.240408 
L 238.199959 266.4234 
L 238.540884 267.20449 
L 239.222736 270.255346 
L 239.563661 270.255346 
L 239.904587 272.937626 
L 240.927364 277.354453 
L 241.268289 278.989233 
L 241.609215 279.480024 
L 241.95014 279.727416 
L 242.291066 279.730971 
L 242.631992 279.495079 
L 242.972917 278.6805 
L 243.313843 276.810932 
L 244.33662 272.788857 
L 245.018471 269.699248 
L 246.041248 263.524456 
L 246.723099 261.978452 
L 247.064025 261.670112 
L 247.40495 261.856696 
L 248.768653 267.047872 
L 249.79143 273.537404 
L 250.473281 275.555732 
L 251.155132 276.638051 
L 251.836983 275.369817 
L 252.518835 273.166809 
L 253.200686 270.241199 
L 253.541612 267.80481 
L 253.882537 264.484565 
L 254.905314 259.971151 
L 255.587165 257.621822 
L 255.928091 257.384417 
L 256.269017 257.834739 
L 256.609942 258.626416 
L 257.291793 261.041494 
L 257.632719 265.011624 
L 257.973645 265.011624 
L 258.31457 268.424071 
L 258.655496 269.249175 
L 259.337347 274.023953 
L 259.678273 274.792576 
L 260.019198 275.238692 
L 260.360124 275.388297 
L 260.70105 275.252282 
L 261.041975 274.528601 
L 261.382901 272.70587 
L 262.405678 268.789144 
L 263.087529 263.841032 
L 263.428455 263.841032 
L 263.76938 261.594158 
L 264.110306 260.813562 
L 264.451231 260.325751 
L 264.792157 260.174473 
L 265.133083 260.620097 
L 265.814934 263.619116 
L 266.837711 268.261448 
L 267.860488 275.093128 
L 268.542339 277.220867 
L 269.22419 278.482044 
L 269.565116 278.077896 
L 269.906041 277.433366 
L 270.587893 275.444243 
L 271.269744 272.811207 
L 271.610669 270.638117 
L 271.951595 267.699441 
L 273.315298 262.287951 
L 273.997149 262.345456 
L 274.338074 262.659271 
L 275.019926 264.673533 
L 275.360851 266.058991 
L 275.701777 268.470602 
L 276.042702 272.085827 
L 277.065479 277.620898 
L 277.747331 282.971496 
L 278.088256 283.888107 
L 278.429182 284.415088 
L 278.770107 284.539894 
L 279.111033 284.267079 
L 279.451959 283.140081 
L 279.792884 280.519254 
L 280.474736 277.013661 
L 281.156587 271.0204 
L 281.497512 270.002477 
L 281.838438 268.00345 
L 282.179364 264.183912 
L 283.20214 258.565657 
L 284.224917 257.449445 
L 284.565843 257.936296 
L 284.906769 258.7686 
L 285.247694 260.597559 
L 285.58862 263.835958 
L 286.952322 271.672015 
L 287.975099 279.516782 
L 288.65695 281.534685 
L 288.997876 282.025726 
L 289.338802 282.042936 
L 289.679727 280.752284 
L 290.020653 280.752284 
L 290.361579 278.195929 
L 291.04343 274.786268 
L 291.384355 271.948302 
L 291.725281 268.013462 
L 292.066207 268.013462 
L 292.407132 264.215169 
L 292.748058 262.407108 
L 293.429909 258.11933 
L 294.11176 257.076181 
L 294.452686 257.050933 
L 294.793612 257.620804 
L 295.134537 259.125168 
L 295.475463 261.270088 
L 295.816388 262.100397 
L 296.157314 263.887987 
L 296.49824 267.76257 
L 296.839165 267.76257 
L 297.180091 273.835154 
L 297.521017 274.818001 
L 298.202868 278.562405 
L 298.543793 281.478613 
L 299.225645 283.143432 
L 299.907496 282.688606 
L 300.248421 281.909139 
L 300.589347 279.466748 
L 300.930273 277.894306 
L 301.95305 269.408681 
L 302.293975 269.408681 
L 302.634901 265.491084 
L 303.998603 257.715628 
L 304.339529 257.715628 
L 304.680455 257.224035 
L 305.02138 257.537311 
L 305.362306 258.204742 
L 305.703231 259.806 
L 306.044157 262.833197 
L 306.385083 262.833197 
L 306.726008 266.508672 
L 307.40786 270.434673 
L 308.089711 276.900974 
L 308.430636 276.900974 
L 308.771562 279.860631 
L 309.453413 281.95166 
L 309.794339 282.570751 
L 310.135264 282.829559 
L 310.817116 280.938924 
L 311.498967 278.235091 
L 311.839893 276.589773 
L 312.180818 273.926579 
L 312.521744 270.188123 
L 314.567298 258.745018 
L 314.908223 258.25475 
L 315.249149 258.114132 
L 315.590074 258.326692 
L 315.931 258.880134 
L 316.271926 259.75145 
L 316.612851 261.579754 
L 316.953777 264.756889 
L 318.317479 272.18883 
L 319.340256 279.69394 
L 320.363033 283.389117 
L 320.703959 283.647789 
L 321.38581 282.781565 
L 322.067661 280.652817 
L 322.408587 277.565065 
L 322.749512 277.565065 
L 323.090438 272.007207 
L 323.431364 271.02577 
L 324.113215 267.142978 
L 324.45414 263.474437 
L 324.795066 263.474437 
L 325.135992 259.331695 
L 325.476917 258.867114 
L 325.817843 258.149783 
L 326.158769 257.754306 
L 326.499694 258.000948 
L 326.84062 258.635283 
L 327.181545 260.170311 
L 327.863397 264.791687 
L 328.204322 264.791687 
L 328.545248 268.532443 
L 328.886174 268.532443 
L 329.227099 274.220343 
L 329.568025 275.114888 
L 330.249876 278.382054 
L 330.590802 281.025608 
L 330.931727 281.025608 
L 331.272653 283.192261 
L 331.613579 283.295731 
L 331.954504 283.25696 
L 332.29543 282.887459 
L 332.636355 280.580382 
L 332.977281 280.580382 
L 333.318207 277.608265 
L 334.340983 272.11009 
L 335.022835 265.574468 
L 335.36376 263.097159 
L 335.704686 262.355922 
L 336.386537 259.966212 
L 336.727463 258.923063 
L 337.068388 258.979735 
L 337.409314 259.753729 
L 337.75024 261.243865 
L 338.091165 263.284833 
L 338.432091 263.284833 
L 338.773017 266.579293 
L 339.454868 270.228373 
L 340.136719 276.467221 
L 340.477645 276.467221 
L 340.81857 279.562417 
L 341.500421 282.027152 
L 342.182273 283.454733 
L 342.523198 282.954345 
L 342.864124 282.181786 
L 343.545975 279.769489 
L 343.886901 278.244983 
L 344.227826 275.694501 
L 344.568752 272.000387 
L 345.932455 264.770315 
L 346.27338 261.112979 
L 346.614306 261.112979 
L 346.955231 259.300422 
L 347.296157 258.878793 
L 347.637083 258.786486 
L 347.978008 259.03318 
L 348.318934 261.102162 
L 348.65986 261.102162 
L 349.000785 263.946683 
L 350.023562 269.261032 
L 350.364488 273.806327 
L 350.705413 273.806327 
L 351.046339 277.188051 
L 352.410041 282.808578 
L 352.750967 282.945495 
L 353.091893 282.281272 
L 353.432818 281.903557 
L 354.114669 279.751178 
L 355.137446 271.90042 
L 355.478372 271.050702 
L 356.160223 267.710188 
L 356.501149 264.70938 
L 356.842074 264.70938 
L 357.183 261.624354 
L 358.205777 260.836683 
L 358.887628 262.401969 
L 359.569479 266.177208 
L 359.910405 268.51832 
L 360.251331 268.51832 
L 360.592256 271.799122 
L 361.274107 275.052398 
L 361.955959 280.050177 
L 362.296884 280.050177 
L 362.63781 282.142521 
L 362.978736 282.852475 
L 363.319661 283.280534 
L 363.660587 283.296643 
L 365.024289 278.307187 
L 365.365215 276.700677 
L 365.70614 274.12873 
L 366.047066 270.647914 
L 366.387992 270.647914 
L 366.728917 267.255131 
L 368.09262 261.045435 
L 368.774471 260.946461 
L 369.115397 261.363731 
L 369.456322 262.059565 
L 369.797248 263.560143 
L 370.138174 266.205489 
L 370.479099 266.205489 
L 370.820025 269.219572 
L 371.501876 272.273159 
L 372.183727 277.198127 
L 372.524653 277.198127 
L 372.865579 279.626873 
L 373.888355 282.643107 
L 374.229281 282.956613 
L 374.570207 282.956613 
L 375.252058 281.285626 
L 376.61576 275.214631 
L 376.956686 271.737524 
L 377.297612 271.737524 
L 377.638537 266.435766 
L 377.979463 265.584085 
L 378.661314 262.396163 
L 379.00224 259.941966 
L 379.343165 259.941966 
L 379.684091 258.439943 
L 380.025017 258.481958 
L 380.365942 258.808484 
L 380.706868 259.455276 
L 381.047793 260.396044 
L 381.388719 262.264659 
L 381.729645 265.339998 
L 383.093347 272.122419 
L 384.116124 278.810295 
L 385.138901 282.165314 
L 385.479826 283.295954 
L 385.820752 283.943255 
L 386.161678 283.844835 
L 386.502603 283.45702 
L 386.843529 282.786469 
L 387.184455 281.85683 
L 387.52538 280.034113 
L 387.866306 277.008469 
L 388.889083 272.00357 
L 389.230008 268.864481 
L 389.570934 268.864481 
L 389.91186 265.333523 
L 390.252785 264.890875 
L 391.275562 262.730487 
L 391.957413 262.737715 
L 392.298339 262.874483 
L 392.98019 263.789651 
L 393.321116 265.265239 
L 393.662041 265.265239 
L 394.002967 268.208338 
L 394.343893 268.743068 
L 395.025744 270.883184 
L 395.366669 272.89332 
L 395.707595 272.89332 
L 396.048521 275.303077 
L 396.389446 275.616184 
L 397.412223 277.055303 
L 397.753149 277.111183 
L 398.094074 277.014474 
L 398.435 276.751223 
L 398.775926 276.634848 
L 399.116851 276.367453 
L 399.457777 275.727527 
L 399.798702 275.379603 
L 400.821479 273.797181 
L 401.162405 273.797181 
L 401.503331 273.058202 
L 402.526107 272.016984 
L 402.867033 271.820942 
L 403.548884 271.906699 
L 404.571661 272.210968 
L 405.253512 271.851483 
L 405.935364 271.038492 
L 406.276289 270.453472 
L 406.617215 269.37459 
L 406.95814 267.711416 
L 407.299066 267.711416 
L 407.639992 266.053404 
L 408.321843 264.515727 
L 408.662769 264.17076 
L 409.003694 264.169935 
L 409.34462 264.346467 
L 410.367397 267.473319 
L 410.708322 269.016169 
L 411.049248 269.55486 
L 411.390174 270.653117 
L 411.731099 272.871013 
L 412.072025 273.947523 
L 412.753876 276.702898 
L 413.094802 277.058959 
L 413.776653 278.112139 
L 414.117579 277.960515 
L 414.458504 277.239294 
L 414.79943 275.980913 
L 415.140355 275.466139 
L 415.481281 274.336573 
L 416.163132 270.055772 
L 416.504058 268.592833 
L 416.844983 268.182067 
L 417.526835 266.936199 
L 417.86776 266.390587 
L 418.208686 266.360441 
L 418.549612 266.596341 
L 418.890537 267.113608 
L 419.231463 267.341022 
L 419.572388 267.870556 
L 419.913314 269.190452 
L 420.25424 269.976463 
L 420.936091 272.749299 
L 421.277017 273.255349 
L 421.617942 274.292562 
L 421.958868 276.40903 
L 422.299793 277.438539 
L 422.981645 280.028717 
L 423.32257 280.853691 
L 423.663496 280.853691 
L 424.004421 281.371274 
L 424.345347 281.39148 
L 424.686273 281.136072 
L 425.027198 280.541473 
L 425.368124 279.653067 
L 425.70905 279.653067 
L 426.049975 278.231842 
L 427.413678 275.380502 
L 427.754603 275.380502 
L 428.095529 274.970406 
L 429.118306 274.572358 
L 429.459231 274.524408 
L 430.482008 275.234381 
L 431.16386 275.986288 
L 432.186636 277.721956 
L 432.186636 277.721956 
" clip-path="url(#pa938d4aa5a)" style="fill: none; stroke: #008000; stroke-width: 1.5; stroke-linecap: square"/>
   </g>
   <g id="patch_13">
    <path d="M 58.106 301.9975 
L 58.106 251.52 
" style="fill: none; stroke: #000000; stroke-width: 0.8; stroke-linejoin: miter; stroke-linecap: square"/>
   </g>
   <g id="patch_14">
    <path d="M 450 301.9975 
L 450 251.52 
" style="fill: none; stroke: #000000; stroke-width: 0.8; stroke-linejoin: miter; stroke-linecap: square"/>
   </g>
   <g id="patch_15">
    <path d="M 58.106 301.9975 
L 450 301.9975 
" style="fill: none; stroke: #000000; stroke-width: 0.8; stroke-linejoin: miter; stroke-linecap: square"/>
   </g>
   <g id="patch_16">
    <path d="M 58.106 251.52 
L 450 251.52 
" style="fill: none; stroke: #000000; stroke-width: 0.8; stroke-linejoin: miter; stroke-linecap: square"/>
   </g>
   <g id="text_35">
    <!-- Error in swing angle -->
    <g transform="translate(194.282688 245.52)scale(0.12 -0.12)">
     <defs>
      <path id="DejaVuSans-77" d="M 269 3500 
L 844 3500 
L 1563 769 
L 2278 3500 
L 2956 3500 
L 3675 769 
L 4391 3500 
L 4966 3500 
L 4050 0 
L 3372 0 
L 2619 2869 
L 1863 0 
L 1184 0 
L 269 3500 
z
" transform="scale(0.015625)"/>
      <path id="DejaVuSans-67" d="M 2906 1791 
Q 2906 2416 2648 2759 
Q 2391 3103 1925 3103 
Q 1463 3103 1205 2759 
Q 947 2416 947 1791 
Q 947 1169 1205 825 
Q 1463 481 1925 481 
Q 2391 481 2648 825 
Q 2906 1169 2906 1791 
z
M 3481 434 
Q 3481 -459 3084 -895 
Q 2688 -1331 1869 -1331 
Q 1566 -1331 1297 -1286 
Q 1028 -1241 775 -1147 
L 775 -588 
Q 1028 -725 1275 -790 
Q 1522 -856 1778 -856 
Q 2344 -856 2625 -561 
Q 2906 -266 2906 331 
L 2906 616 
Q 2728 306 2450 153 
Q 2172 0 1784 0 
Q 1141 0 747 490 
Q 353 981 353 1791 
Q 353 2603 747 3093 
Q 1141 3584 1784 3584 
Q 2172 3584 2450 3431 
Q 2728 3278 2906 2969 
L 2906 3500 
L 3481 3500 
L 3481 434 
z
" transform="scale(0.015625)"/>
      <path id="DejaVuSans-6c" d="M 603 4863 
L 1178 4863 
L 1178 0 
L 603 0 
L 603 4863 
z
" transform="scale(0.015625)"/>
      <path id="DejaVuSans-65" d="M 3597 1894 
L 3597 1613 
L 953 1613 
Q 991 1019 1311 708 
Q 1631 397 2203 397 
Q 2534 397 2845 478 
Q 3156 559 3463 722 
L 3463 178 
Q 3153 47 2828 -22 
Q 2503 -91 2169 -91 
Q 1331 -91 842 396 
Q 353 884 353 1716 
Q 353 2575 817 3079 
Q 1281 3584 2069 3584 
Q 2775 3584 3186 3129 
Q 3597 2675 3597 1894 
z
M 3022 2063 
Q 3016 2534 2758 2815 
Q 2500 3097 2075 3097 
Q 1594 3097 1305 2825 
Q 1016 2553 972 2059 
L 3022 2063 
z
" transform="scale(0.015625)"/>
     </defs>
     <use xlink:href="#DejaVuSans-45"/>
     <use xlink:href="#DejaVuSans-72" x="63.183594"/>
     <use xlink:href="#DejaVuSans-72" x="102.546875"/>
     <use xlink:href="#DejaVuSans-6f" x="141.410156"/>
     <use xlink:href="#DejaVuSans-72" x="202.591797"/>
     <use xlink:href="#DejaVuSans-20" x="243.705078"/>
     <use xlink:href="#DejaVuSans-69" x="275.492188"/>
     <use xlink:href="#DejaVuSans-6e" x="303.275391"/>
     <use xlink:href="#DejaVuSans-20" x="366.654297"/>
     <use xlink:href="#DejaVuSans-73" x="398.441406"/>
     <use xlink:href="#DejaVuSans-77" x="450.541016"/>
     <use xlink:href="#DejaVuSans-69" x="532.328125"/>
     <use xlink:href="#DejaVuSans-6e" x="560.111328"/>
     <use xlink:href="#DejaVuSans-67" x="623.490234"/>
     <use xlink:href="#DejaVuSans-20" x="686.966797"/>
     <use xlink:href="#DejaVuSans-61" x="718.753906"/>
     <use xlink:href="#DejaVuSans-6e" x="780.033203"/>
     <use xlink:href="#DejaVuSans-67" x="843.412109"/>
     <use xlink:href="#DejaVuSans-6c" x="906.888672"/>
     <use xlink:href="#DejaVuSans-65" x="934.671875"/>
    </g>
   </g>
  </g>
 </g>
 <defs>
  <clipPath id="p28f6c49c2b">
   <rect x="58.106" y="28.32" width="391.894" height="50.4775"/>
  </clipPath>
  <clipPath id="p8e93cfd55d">
   <rect x="58.106" y="139.92" width="391.894" height="50.4775"/>
  </clipPath>
  <clipPath id="pa938d4aa5a">
   <rect x="58.106" y="251.52" width="391.894" height="50.4775"/>
  </clipPath>
 </defs>
</svg>
