<?xml version="1.0" encoding="utf-8" standalone="no"?>
<!DOCTYPE svg PUBLIC "-//W3C//DTD SVG 1.1//EN"
  "http://www.w3.org/Graphics/SVG/1.1/DTD/svg11.dtd">
<svg xmlns:xlink="http://www.w3.org/1999/xlink" width="460.8pt" height="345.6pt" viewBox="0 0 460.8 345.6" xmlns="http://www.w3.org/2000/svg" version="1.1">
 <metadata>
  <rdf:RDF xmlns:dc="http://purl.org/dc/elements/1.1/" xmlns:cc="http://creativecommons.org/ns#" xmlns:rdf="http://www.w3.org/1999/02/22-rdf-syntax-ns#">
   <cc:Work>
    <dc:type rdf:resource="http://purl.org/dc/dcmitype/StillImage"/>
    <dc:date>2022-06-05T14:36:20.425618</dc:date>
    <dc:format>image/svg+xml</dc:format>
    <dc:creator>
     <cc:Agent>
      <dc:title>Matplotlib v3.5.1, https://matplotlib.org/</dc:title>
     </cc:Agent>
    </dc:creator>
   </cc:Work>
  </rdf:RDF>
 </metadata>
 <defs>
  <style type="text/css">*{stroke-linejoin: round; stroke-linecap: butt}</style>
 </defs>
 <g id="figure_1">
  <g id="patch_1">
   <path d="M 0 345.6 
L 460.8 345.6 
L 460.8 0 
L 0 0 
z
" style="fill: #ffffff"/>
  </g>
  <g id="axes_1">
   <g id="patch_2">
    <path d="M 58.106 78.7975 
L 450 78.7975 
L 450 28.32 
L 58.106 28.32 
z
" style="fill: #ffffff"/>
   </g>
   <g id="matplotlib.axis_1">
    <g id="xtick_1">
     <g id="line2d_1">
      <path d="M 75.919364 78.7975 
L 75.919364 28.32 
" clip-path="url(#pf21b7d372e)" style="fill: none; stroke: #b0b0b0; stroke-width: 0.8; stroke-linecap: square"/>
     </g>
     <g id="line2d_2">
      <defs>
       <path id="mcacedf7c65" d="M 0 0 
L 0 3.5 
" style="stroke: #000000; stroke-width: 0.8"/>
      </defs>
      <g>
       <use xlink:href="#mcacedf7c65" x="75.919364" y="78.7975" style="stroke: #000000; stroke-width: 0.8"/>
      </g>
     </g>
     <g id="text_1">
      <!-- 0 -->
      <g transform="translate(72.738114 93.395937)scale(0.1 -0.1)">
       <defs>
        <path id="DejaVuSans-30" d="M 2034 4250 
Q 1547 4250 1301 3770 
Q 1056 3291 1056 2328 
Q 1056 1369 1301 889 
Q 1547 409 2034 409 
Q 2525 409 2770 889 
Q 3016 1369 3016 2328 
Q 3016 3291 2770 3770 
Q 2525 4250 2034 4250 
z
M 2034 4750 
Q 2819 4750 3233 4129 
Q 3647 3509 3647 2328 
Q 3647 1150 3233 529 
Q 2819 -91 2034 -91 
Q 1250 -91 836 529 
Q 422 1150 422 2328 
Q 422 3509 836 4129 
Q 1250 4750 2034 4750 
z
" transform="scale(0.015625)"/>
       </defs>
       <use xlink:href="#DejaVuSans-30"/>
      </g>
     </g>
    </g>
    <g id="xtick_2">
     <g id="line2d_3">
      <path d="M 144.763281 78.7975 
L 144.763281 28.32 
" clip-path="url(#pf21b7d372e)" style="fill: none; stroke: #b0b0b0; stroke-width: 0.8; stroke-linecap: square"/>
     </g>
     <g id="line2d_4">
      <g>
       <use xlink:href="#mcacedf7c65" x="144.763281" y="78.7975" style="stroke: #000000; stroke-width: 0.8"/>
      </g>
     </g>
     <g id="text_2">
      <!-- 2 -->
      <g transform="translate(141.582031 93.395937)scale(0.1 -0.1)">
       <defs>
        <path id="DejaVuSans-32" d="M 1228 531 
L 3431 531 
L 3431 0 
L 469 0 
L 469 531 
Q 828 903 1448 1529 
Q 2069 2156 2228 2338 
Q 2531 2678 2651 2914 
Q 2772 3150 2772 3378 
Q 2772 3750 2511 3984 
Q 2250 4219 1831 4219 
Q 1534 4219 1204 4116 
Q 875 4013 500 3803 
L 500 4441 
Q 881 4594 1212 4672 
Q 1544 4750 1819 4750 
Q 2544 4750 2975 4387 
Q 3406 4025 3406 3419 
Q 3406 3131 3298 2873 
Q 3191 2616 2906 2266 
Q 2828 2175 2409 1742 
Q 1991 1309 1228 531 
z
" transform="scale(0.015625)"/>
       </defs>
       <use xlink:href="#DejaVuSans-32"/>
      </g>
     </g>
    </g>
    <g id="xtick_3">
     <g id="line2d_5">
      <path d="M 213.607199 78.7975 
L 213.607199 28.32 
" clip-path="url(#pf21b7d372e)" style="fill: none; stroke: #b0b0b0; stroke-width: 0.8; stroke-linecap: square"/>
     </g>
     <g id="line2d_6">
      <g>
       <use xlink:href="#mcacedf7c65" x="213.607199" y="78.7975" style="stroke: #000000; stroke-width: 0.8"/>
      </g>
     </g>
     <g id="text_3">
      <!-- 4 -->
      <g transform="translate(210.425949 93.395937)scale(0.1 -0.1)">
       <defs>
        <path id="DejaVuSans-34" d="M 2419 4116 
L 825 1625 
L 2419 1625 
L 2419 4116 
z
M 2253 4666 
L 3047 4666 
L 3047 1625 
L 3713 1625 
L 3713 1100 
L 3047 1100 
L 3047 0 
L 2419 0 
L 2419 1100 
L 313 1100 
L 313 1709 
L 2253 4666 
z
" transform="scale(0.015625)"/>
       </defs>
       <use xlink:href="#DejaVuSans-34"/>
      </g>
     </g>
    </g>
    <g id="xtick_4">
     <g id="line2d_7">
      <path d="M 282.451116 78.7975 
L 282.451116 28.32 
" clip-path="url(#pf21b7d372e)" style="fill: none; stroke: #b0b0b0; stroke-width: 0.8; stroke-linecap: square"/>
     </g>
     <g id="line2d_8">
      <g>
       <use xlink:href="#mcacedf7c65" x="282.451116" y="78.7975" style="stroke: #000000; stroke-width: 0.8"/>
      </g>
     </g>
     <g id="text_4">
      <!-- 6 -->
      <g transform="translate(279.269866 93.395937)scale(0.1 -0.1)">
       <defs>
        <path id="DejaVuSans-36" d="M 2113 2584 
Q 1688 2584 1439 2293 
Q 1191 2003 1191 1497 
Q 1191 994 1439 701 
Q 1688 409 2113 409 
Q 2538 409 2786 701 
Q 3034 994 3034 1497 
Q 3034 2003 2786 2293 
Q 2538 2584 2113 2584 
z
M 3366 4563 
L 3366 3988 
Q 3128 4100 2886 4159 
Q 2644 4219 2406 4219 
Q 1781 4219 1451 3797 
Q 1122 3375 1075 2522 
Q 1259 2794 1537 2939 
Q 1816 3084 2150 3084 
Q 2853 3084 3261 2657 
Q 3669 2231 3669 1497 
Q 3669 778 3244 343 
Q 2819 -91 2113 -91 
Q 1303 -91 875 529 
Q 447 1150 447 2328 
Q 447 3434 972 4092 
Q 1497 4750 2381 4750 
Q 2619 4750 2861 4703 
Q 3103 4656 3366 4563 
z
" transform="scale(0.015625)"/>
       </defs>
       <use xlink:href="#DejaVuSans-36"/>
      </g>
     </g>
    </g>
    <g id="xtick_5">
     <g id="line2d_9">
      <path d="M 351.295033 78.7975 
L 351.295033 28.32 
" clip-path="url(#pf21b7d372e)" style="fill: none; stroke: #b0b0b0; stroke-width: 0.8; stroke-linecap: square"/>
     </g>
     <g id="line2d_10">
      <g>
       <use xlink:href="#mcacedf7c65" x="351.295033" y="78.7975" style="stroke: #000000; stroke-width: 0.8"/>
      </g>
     </g>
     <g id="text_5">
      <!-- 8 -->
      <g transform="translate(348.113783 93.395937)scale(0.1 -0.1)">
       <defs>
        <path id="DejaVuSans-38" d="M 2034 2216 
Q 1584 2216 1326 1975 
Q 1069 1734 1069 1313 
Q 1069 891 1326 650 
Q 1584 409 2034 409 
Q 2484 409 2743 651 
Q 3003 894 3003 1313 
Q 3003 1734 2745 1975 
Q 2488 2216 2034 2216 
z
M 1403 2484 
Q 997 2584 770 2862 
Q 544 3141 544 3541 
Q 544 4100 942 4425 
Q 1341 4750 2034 4750 
Q 2731 4750 3128 4425 
Q 3525 4100 3525 3541 
Q 3525 3141 3298 2862 
Q 3072 2584 2669 2484 
Q 3125 2378 3379 2068 
Q 3634 1759 3634 1313 
Q 3634 634 3220 271 
Q 2806 -91 2034 -91 
Q 1263 -91 848 271 
Q 434 634 434 1313 
Q 434 1759 690 2068 
Q 947 2378 1403 2484 
z
M 1172 3481 
Q 1172 3119 1398 2916 
Q 1625 2713 2034 2713 
Q 2441 2713 2670 2916 
Q 2900 3119 2900 3481 
Q 2900 3844 2670 4047 
Q 2441 4250 2034 4250 
Q 1625 4250 1398 4047 
Q 1172 3844 1172 3481 
z
" transform="scale(0.015625)"/>
       </defs>
       <use xlink:href="#DejaVuSans-38"/>
      </g>
     </g>
    </g>
    <g id="xtick_6">
     <g id="line2d_11">
      <path d="M 420.138951 78.7975 
L 420.138951 28.32 
" clip-path="url(#pf21b7d372e)" style="fill: none; stroke: #b0b0b0; stroke-width: 0.8; stroke-linecap: square"/>
     </g>
     <g id="line2d_12">
      <g>
       <use xlink:href="#mcacedf7c65" x="420.138951" y="78.7975" style="stroke: #000000; stroke-width: 0.8"/>
      </g>
     </g>
     <g id="text_6">
      <!-- 10 -->
      <g transform="translate(413.776451 93.395937)scale(0.1 -0.1)">
       <defs>
        <path id="DejaVuSans-31" d="M 794 531 
L 1825 531 
L 1825 4091 
L 703 3866 
L 703 4441 
L 1819 4666 
L 2450 4666 
L 2450 531 
L 3481 531 
L 3481 0 
L 794 0 
L 794 531 
z
" transform="scale(0.015625)"/>
       </defs>
       <use xlink:href="#DejaVuSans-31"/>
       <use xlink:href="#DejaVuSans-30" x="63.623047"/>
      </g>
     </g>
    </g>
    <g id="text_7">
     <!-- $t$ [s] -->
     <g transform="translate(243.953 107.074062)scale(0.1 -0.1)">
      <defs>
       <path id="DejaVuSans-Oblique-74" d="M 2706 3500 
L 2619 3053 
L 1472 3053 
L 1100 1153 
Q 1081 1047 1072 975 
Q 1063 903 1063 863 
Q 1063 663 1183 572 
Q 1303 481 1569 481 
L 2150 481 
L 2053 0 
L 1503 0 
Q 991 0 739 200 
Q 488 400 488 806 
Q 488 878 497 964 
Q 506 1050 525 1153 
L 897 3053 
L 409 3053 
L 500 3500 
L 978 3500 
L 1172 4494 
L 1747 4494 
L 1556 3500 
L 2706 3500 
z
" transform="scale(0.015625)"/>
       <path id="DejaVuSans-20" transform="scale(0.015625)"/>
       <path id="DejaVuSans-5b" d="M 550 4863 
L 1875 4863 
L 1875 4416 
L 1125 4416 
L 1125 -397 
L 1875 -397 
L 1875 -844 
L 550 -844 
L 550 4863 
z
" transform="scale(0.015625)"/>
       <path id="DejaVuSans-73" d="M 2834 3397 
L 2834 2853 
Q 2591 2978 2328 3040 
Q 2066 3103 1784 3103 
Q 1356 3103 1142 2972 
Q 928 2841 928 2578 
Q 928 2378 1081 2264 
Q 1234 2150 1697 2047 
L 1894 2003 
Q 2506 1872 2764 1633 
Q 3022 1394 3022 966 
Q 3022 478 2636 193 
Q 2250 -91 1575 -91 
Q 1294 -91 989 -36 
Q 684 19 347 128 
L 347 722 
Q 666 556 975 473 
Q 1284 391 1588 391 
Q 1994 391 2212 530 
Q 2431 669 2431 922 
Q 2431 1156 2273 1281 
Q 2116 1406 1581 1522 
L 1381 1569 
Q 847 1681 609 1914 
Q 372 2147 372 2553 
Q 372 3047 722 3315 
Q 1072 3584 1716 3584 
Q 2034 3584 2315 3537 
Q 2597 3491 2834 3397 
z
" transform="scale(0.015625)"/>
       <path id="DejaVuSans-5d" d="M 1947 4863 
L 1947 -844 
L 622 -844 
L 622 -397 
L 1369 -397 
L 1369 4416 
L 622 4416 
L 622 4863 
L 1947 4863 
z
" transform="scale(0.015625)"/>
      </defs>
      <use xlink:href="#DejaVuSans-Oblique-74" transform="translate(0 0.015625)"/>
      <use xlink:href="#DejaVuSans-20" transform="translate(39.208984 0.015625)"/>
      <use xlink:href="#DejaVuSans-5b" transform="translate(70.996094 0.015625)"/>
      <use xlink:href="#DejaVuSans-73" transform="translate(110.009766 0.015625)"/>
      <use xlink:href="#DejaVuSans-5d" transform="translate(162.109375 0.015625)"/>
     </g>
    </g>
   </g>
   <g id="matplotlib.axis_2">
    <g id="ytick_1">
     <g id="line2d_13">
      <path d="M 58.106 76.534421 
L 450 76.534421 
" clip-path="url(#pf21b7d372e)" style="fill: none; stroke: #b0b0b0; stroke-width: 0.8; stroke-linecap: square"/>
     </g>
     <g id="line2d_14">
      <defs>
       <path id="mf2088a64af" d="M 0 0 
L -3.5 0 
" style="stroke: #000000; stroke-width: 0.8"/>
      </defs>
      <g>
       <use xlink:href="#mf2088a64af" x="58.106" y="76.534421" style="stroke: #000000; stroke-width: 0.8"/>
      </g>
     </g>
     <g id="text_8">
      <!-- 0 -->
      <g transform="translate(44.7435 80.333639)scale(0.1 -0.1)">
       <use xlink:href="#DejaVuSans-30"/>
      </g>
     </g>
    </g>
    <g id="ytick_2">
     <g id="line2d_15">
      <path d="M 58.106 30.614432 
L 450 30.614432 
" clip-path="url(#pf21b7d372e)" style="fill: none; stroke: #b0b0b0; stroke-width: 0.8; stroke-linecap: square"/>
     </g>
     <g id="line2d_16">
      <g>
       <use xlink:href="#mf2088a64af" x="58.106" y="30.614432" style="stroke: #000000; stroke-width: 0.8"/>
      </g>
     </g>
     <g id="text_9">
      <!-- 10 -->
      <g transform="translate(38.381 34.413651)scale(0.1 -0.1)">
       <use xlink:href="#DejaVuSans-31"/>
       <use xlink:href="#DejaVuSans-30" x="63.623047"/>
      </g>
     </g>
    </g>
    <g id="text_10">
     <!-- $e_x$ [m] -->
     <g transform="translate(32.301313 69.20875)rotate(-90)scale(0.1 -0.1)">
      <defs>
       <path id="DejaVuSans-Oblique-65" d="M 3078 2063 
Q 3088 2113 3092 2166 
Q 3097 2219 3097 2272 
Q 3097 2653 2873 2875 
Q 2650 3097 2266 3097 
Q 1838 3097 1509 2826 
Q 1181 2556 1013 2059 
L 3078 2063 
z
M 3578 1613 
L 903 1613 
Q 884 1494 878 1425 
Q 872 1356 872 1306 
Q 872 872 1139 634 
Q 1406 397 1894 397 
Q 2269 397 2603 481 
Q 2938 566 3225 728 
L 3116 159 
Q 2806 34 2476 -28 
Q 2147 -91 1806 -91 
Q 1078 -91 686 257 
Q 294 606 294 1247 
Q 294 1794 489 2264 
Q 684 2734 1063 3103 
Q 1306 3334 1642 3459 
Q 1978 3584 2356 3584 
Q 2950 3584 3301 3228 
Q 3653 2872 3653 2272 
Q 3653 2128 3634 1964 
Q 3616 1800 3578 1613 
z
" transform="scale(0.015625)"/>
       <path id="DejaVuSans-Oblique-78" d="M 3841 3500 
L 2234 1784 
L 3219 0 
L 2559 0 
L 1819 1388 
L 531 0 
L -166 0 
L 1556 1844 
L 641 3500 
L 1300 3500 
L 1972 2234 
L 3144 3500 
L 3841 3500 
z
" transform="scale(0.015625)"/>
       <path id="DejaVuSans-6d" d="M 3328 2828 
Q 3544 3216 3844 3400 
Q 4144 3584 4550 3584 
Q 5097 3584 5394 3201 
Q 5691 2819 5691 2113 
L 5691 0 
L 5113 0 
L 5113 2094 
Q 5113 2597 4934 2840 
Q 4756 3084 4391 3084 
Q 3944 3084 3684 2787 
Q 3425 2491 3425 1978 
L 3425 0 
L 2847 0 
L 2847 2094 
Q 2847 2600 2669 2842 
Q 2491 3084 2119 3084 
Q 1678 3084 1418 2786 
Q 1159 2488 1159 1978 
L 1159 0 
L 581 0 
L 581 3500 
L 1159 3500 
L 1159 2956 
Q 1356 3278 1631 3431 
Q 1906 3584 2284 3584 
Q 2666 3584 2933 3390 
Q 3200 3197 3328 2828 
z
" transform="scale(0.015625)"/>
      </defs>
      <use xlink:href="#DejaVuSans-Oblique-65" transform="translate(0 0.015625)"/>
      <use xlink:href="#DejaVuSans-Oblique-78" transform="translate(61.523438 -16.390625)scale(0.7)"/>
      <use xlink:href="#DejaVuSans-20" transform="translate(105.683594 0.015625)"/>
      <use xlink:href="#DejaVuSans-5b" transform="translate(137.470703 0.015625)"/>
      <use xlink:href="#DejaVuSans-6d" transform="translate(176.484375 0.015625)"/>
      <use xlink:href="#DejaVuSans-5d" transform="translate(273.896484 0.015625)"/>
     </g>
    </g>
   </g>
   <g id="line2d_17">
    <path d="M 75.919364 30.614432 
L 84.533176 30.724737 
L 90.735121 30.95824 
L 94.180646 31.063075 
L 101.071695 31.439303 
L 104.861773 31.792863 
L 106.584535 31.996333 
L 111.752822 32.60877 
L 115.198347 33.031098 
L 116.576557 33.225218 
L 119.332977 33.637145 
L 120.366635 33.806277 
L 123.467607 34.299317 
L 125.879474 34.700669 
L 126.568579 34.793733 
L 130.014104 35.452283 
L 130.703209 35.561572 
L 133.115077 36.041562 
L 136.216049 36.744203 
L 136.560602 36.744203 
L 137.938811 37.104332 
L 139.661574 37.502426 
L 140.695231 37.657982 
L 141.728889 37.973176 
L 142.762546 38.132647 
L 143.796204 38.422152 
L 145.518966 38.811154 
L 148.275386 39.427374 
L 150.342701 39.907563 
L 152.410016 40.377474 
L 152.754568 40.500854 
L 153.099121 40.500854 
L 153.443673 40.684382 
L 154.477331 40.835923 
L 155.510988 41.105432 
L 157.922856 41.630616 
L 158.611961 41.716213 
L 159.645618 41.941879 
L 161.712933 42.357325 
L 164.813906 42.960982 
L 165.847563 43.180359 
L 168.25943 43.64463 
L 169.293088 43.915488 
L 170.326745 44.050179 
L 171.360403 44.317938 
L 172.39406 44.450867 
L 173.427718 44.714173 
L 174.461375 44.844263 
L 175.495033 45.100948 
L 176.52869 45.227647 
L 177.562348 45.478476 
L 178.596005 45.602939 
L 179.629663 45.850534 
L 180.66332 45.973717 
L 181.696977 46.218884 
L 182.730635 46.340998 
L 183.764292 46.584923 
L 184.79795 46.706967 
L 185.831607 46.95119 
L 186.865265 47.07305 
L 187.898922 47.31495 
L 188.93258 47.434443 
L 189.966237 47.669706 
L 190.999895 47.785697 
L 192.378105 48.06162 
L 193.411762 48.221792 
L 196.512734 48.720659 
L 197.546392 48.900288 
L 200.991917 49.441051 
L 202.370127 49.685644 
L 204.781994 50.072343 
L 206.160204 50.263215 
L 208.916624 50.70421 
L 209.950282 50.887207 
L 213.051254 51.408342 
L 215.463121 51.801546 
L 216.152226 51.889191 
L 218.908646 52.340424 
L 221.665066 52.819114 
L 222.354171 52.908081 
L 226.144248 53.474296 
L 227.867011 53.808251 
L 228.556116 53.898343 
L 232.001641 54.429849 
L 233.035298 54.600614 
L 235.791718 55.02375 
L 236.825376 55.196066 
L 239.926348 55.672675 
L 240.960005 55.841439 
L 245.094635 56.435831 
L 246.128293 56.603117 
L 248.884713 57.026696 
L 249.91837 57.193307 
L 253.363895 57.679892 
L 254.397552 57.843872 
L 257.153972 58.265468 
L 258.18763 58.434289 
L 263.011365 59.125151 
L 267.8351 59.889384 
L 268.524205 59.970263 
L 273.003387 60.60123 
L 276.104359 61.047593 
L 279.549884 61.556314 
L 284.029066 62.195734 
L 285.407276 62.376028 
L 288.163696 62.781457 
L 289.886459 62.983227 
L 295.743851 63.80216 
L 300.912138 64.473975 
L 302.290348 64.650017 
L 305.046768 65.021025 
L 306.080426 65.17357 
L 310.904161 65.775938 
L 311.937818 65.92425 
L 315.727895 66.353004 
L 316.417 66.478536 
L 320.55163 66.993636 
L 321.92984 67.152279 
L 326.06447 67.639202 
L 330.543652 68.189214 
L 334.33373 68.603694 
L 337.779255 68.994727 
L 339.502017 69.225511 
L 342.947542 69.594648 
L 347.426724 70.094635 
L 352.250459 70.663105 
L 359.486061 71.500071 
L 360.519719 71.596496 
L 367.066216 72.299807 
L 371.889951 72.894742 
L 372.923608 72.985388 
L 378.091896 73.515349 
L 379.470106 73.666714 
L 386.361155 74.379489 
L 388.083918 74.529637 
L 394.285863 75.107903 
L 409.790725 76.087885 
L 424.261929 76.492896 
L 432.186636 76.479564 
L 432.186636 76.479564 
" clip-path="url(#pf21b7d372e)" style="fill: none; stroke: #ff0000; stroke-width: 1.5; stroke-linecap: square"/>
   </g>
   <g id="patch_3">
    <path d="M 58.106 78.7975 
L 58.106 28.32 
" style="fill: none; stroke: #000000; stroke-width: 0.8; stroke-linejoin: miter; stroke-linecap: square"/>
   </g>
   <g id="patch_4">
    <path d="M 450 78.7975 
L 450 28.32 
" style="fill: none; stroke: #000000; stroke-width: 0.8; stroke-linejoin: miter; stroke-linecap: square"/>
   </g>
   <g id="patch_5">
    <path d="M 58.106 78.7975 
L 450 78.7975 
" style="fill: none; stroke: #000000; stroke-width: 0.8; stroke-linejoin: miter; stroke-linecap: square"/>
   </g>
   <g id="patch_6">
    <path d="M 58.106 28.32 
L 450 28.32 
" style="fill: none; stroke: #000000; stroke-width: 0.8; stroke-linejoin: miter; stroke-linecap: square"/>
   </g>
   <g id="text_11">
    <!-- Error in $x$-position -->
    <g transform="translate(200.413 22.32)scale(0.12 -0.12)">
     <defs>
      <path id="DejaVuSans-45" d="M 628 4666 
L 3578 4666 
L 3578 4134 
L 1259 4134 
L 1259 2753 
L 3481 2753 
L 3481 2222 
L 1259 2222 
L 1259 531 
L 3634 531 
L 3634 0 
L 628 0 
L 628 4666 
z
" transform="scale(0.015625)"/>
      <path id="DejaVuSans-72" d="M 2631 2963 
Q 2534 3019 2420 3045 
Q 2306 3072 2169 3072 
Q 1681 3072 1420 2755 
Q 1159 2438 1159 1844 
L 1159 0 
L 581 0 
L 581 3500 
L 1159 3500 
L 1159 2956 
Q 1341 3275 1631 3429 
Q 1922 3584 2338 3584 
Q 2397 3584 2469 3576 
Q 2541 3569 2628 3553 
L 2631 2963 
z
" transform="scale(0.015625)"/>
      <path id="DejaVuSans-6f" d="M 1959 3097 
Q 1497 3097 1228 2736 
Q 959 2375 959 1747 
Q 959 1119 1226 758 
Q 1494 397 1959 397 
Q 2419 397 2687 759 
Q 2956 1122 2956 1747 
Q 2956 2369 2687 2733 
Q 2419 3097 1959 3097 
z
M 1959 3584 
Q 2709 3584 3137 3096 
Q 3566 2609 3566 1747 
Q 3566 888 3137 398 
Q 2709 -91 1959 -91 
Q 1206 -91 779 398 
Q 353 888 353 1747 
Q 353 2609 779 3096 
Q 1206 3584 1959 3584 
z
" transform="scale(0.015625)"/>
      <path id="DejaVuSans-69" d="M 603 3500 
L 1178 3500 
L 1178 0 
L 603 0 
L 603 3500 
z
M 603 4863 
L 1178 4863 
L 1178 4134 
L 603 4134 
L 603 4863 
z
" transform="scale(0.015625)"/>
      <path id="DejaVuSans-6e" d="M 3513 2113 
L 3513 0 
L 2938 0 
L 2938 2094 
Q 2938 2591 2744 2837 
Q 2550 3084 2163 3084 
Q 1697 3084 1428 2787 
Q 1159 2491 1159 1978 
L 1159 0 
L 581 0 
L 581 3500 
L 1159 3500 
L 1159 2956 
Q 1366 3272 1645 3428 
Q 1925 3584 2291 3584 
Q 2894 3584 3203 3211 
Q 3513 2838 3513 2113 
z
" transform="scale(0.015625)"/>
      <path id="DejaVuSans-2d" d="M 313 2009 
L 1997 2009 
L 1997 1497 
L 313 1497 
L 313 2009 
z
" transform="scale(0.015625)"/>
      <path id="DejaVuSans-70" d="M 1159 525 
L 1159 -1331 
L 581 -1331 
L 581 3500 
L 1159 3500 
L 1159 2969 
Q 1341 3281 1617 3432 
Q 1894 3584 2278 3584 
Q 2916 3584 3314 3078 
Q 3713 2572 3713 1747 
Q 3713 922 3314 415 
Q 2916 -91 2278 -91 
Q 1894 -91 1617 61 
Q 1341 213 1159 525 
z
M 3116 1747 
Q 3116 2381 2855 2742 
Q 2594 3103 2138 3103 
Q 1681 3103 1420 2742 
Q 1159 2381 1159 1747 
Q 1159 1113 1420 752 
Q 1681 391 2138 391 
Q 2594 391 2855 752 
Q 3116 1113 3116 1747 
z
" transform="scale(0.015625)"/>
      <path id="DejaVuSans-74" d="M 1172 4494 
L 1172 3500 
L 2356 3500 
L 2356 3053 
L 1172 3053 
L 1172 1153 
Q 1172 725 1289 603 
Q 1406 481 1766 481 
L 2356 481 
L 2356 0 
L 1766 0 
Q 1100 0 847 248 
Q 594 497 594 1153 
L 594 3053 
L 172 3053 
L 172 3500 
L 594 3500 
L 594 4494 
L 1172 4494 
z
" transform="scale(0.015625)"/>
     </defs>
     <use xlink:href="#DejaVuSans-45" transform="translate(0 0.015625)"/>
     <use xlink:href="#DejaVuSans-72" transform="translate(63.183594 0.015625)"/>
     <use xlink:href="#DejaVuSans-72" transform="translate(104.296875 0.015625)"/>
     <use xlink:href="#DejaVuSans-6f" transform="translate(145.410156 0.015625)"/>
     <use xlink:href="#DejaVuSans-72" transform="translate(206.591797 0.015625)"/>
     <use xlink:href="#DejaVuSans-20" transform="translate(247.705078 0.015625)"/>
     <use xlink:href="#DejaVuSans-69" transform="translate(279.492188 0.015625)"/>
     <use xlink:href="#DejaVuSans-6e" transform="translate(307.275391 0.015625)"/>
     <use xlink:href="#DejaVuSans-20" transform="translate(370.654297 0.015625)"/>
     <use xlink:href="#DejaVuSans-Oblique-78" transform="translate(402.441406 0.015625)"/>
     <use xlink:href="#DejaVuSans-2d" transform="translate(461.621094 0.015625)"/>
     <use xlink:href="#DejaVuSans-70" transform="translate(497.705078 0.015625)"/>
     <use xlink:href="#DejaVuSans-6f" transform="translate(561.181641 0.015625)"/>
     <use xlink:href="#DejaVuSans-73" transform="translate(622.363281 0.015625)"/>
     <use xlink:href="#DejaVuSans-69" transform="translate(674.462891 0.015625)"/>
     <use xlink:href="#DejaVuSans-74" transform="translate(702.246094 0.015625)"/>
     <use xlink:href="#DejaVuSans-69" transform="translate(741.455078 0.015625)"/>
     <use xlink:href="#DejaVuSans-6f" transform="translate(769.238281 0.015625)"/>
     <use xlink:href="#DejaVuSans-6e" transform="translate(830.419922 0.015625)"/>
    </g>
   </g>
  </g>
  <g id="axes_2">
   <g id="patch_7">
    <path d="M 58.106 190.3975 
L 450 190.3975 
L 450 139.92 
L 58.106 139.92 
z
" style="fill: #ffffff"/>
   </g>
   <g id="matplotlib.axis_3">
    <g id="xtick_7">
     <g id="line2d_18">
      <path d="M 75.919364 190.3975 
L 75.919364 139.92 
" clip-path="url(#p557f86b724)" style="fill: none; stroke: #b0b0b0; stroke-width: 0.8; stroke-linecap: square"/>
     </g>
     <g id="line2d_19">
      <g>
       <use xlink:href="#mcacedf7c65" x="75.919364" y="190.3975" style="stroke: #000000; stroke-width: 0.8"/>
      </g>
     </g>
     <g id="text_12">
      <!-- 0 -->
      <g transform="translate(72.738114 204.995937)scale(0.1 -0.1)">
       <use xlink:href="#DejaVuSans-30"/>
      </g>
     </g>
    </g>
    <g id="xtick_8">
     <g id="line2d_20">
      <path d="M 144.763281 190.3975 
L 144.763281 139.92 
" clip-path="url(#p557f86b724)" style="fill: none; stroke: #b0b0b0; stroke-width: 0.8; stroke-linecap: square"/>
     </g>
     <g id="line2d_21">
      <g>
       <use xlink:href="#mcacedf7c65" x="144.763281" y="190.3975" style="stroke: #000000; stroke-width: 0.8"/>
      </g>
     </g>
     <g id="text_13">
      <!-- 2 -->
      <g transform="translate(141.582031 204.995937)scale(0.1 -0.1)">
       <use xlink:href="#DejaVuSans-32"/>
      </g>
     </g>
    </g>
    <g id="xtick_9">
     <g id="line2d_22">
      <path d="M 213.607199 190.3975 
L 213.607199 139.92 
" clip-path="url(#p557f86b724)" style="fill: none; stroke: #b0b0b0; stroke-width: 0.8; stroke-linecap: square"/>
     </g>
     <g id="line2d_23">
      <g>
       <use xlink:href="#mcacedf7c65" x="213.607199" y="190.3975" style="stroke: #000000; stroke-width: 0.8"/>
      </g>
     </g>
     <g id="text_14">
      <!-- 4 -->
      <g transform="translate(210.425949 204.995937)scale(0.1 -0.1)">
       <use xlink:href="#DejaVuSans-34"/>
      </g>
     </g>
    </g>
    <g id="xtick_10">
     <g id="line2d_24">
      <path d="M 282.451116 190.3975 
L 282.451116 139.92 
" clip-path="url(#p557f86b724)" style="fill: none; stroke: #b0b0b0; stroke-width: 0.8; stroke-linecap: square"/>
     </g>
     <g id="line2d_25">
      <g>
       <use xlink:href="#mcacedf7c65" x="282.451116" y="190.3975" style="stroke: #000000; stroke-width: 0.8"/>
      </g>
     </g>
     <g id="text_15">
      <!-- 6 -->
      <g transform="translate(279.269866 204.995937)scale(0.1 -0.1)">
       <use xlink:href="#DejaVuSans-36"/>
      </g>
     </g>
    </g>
    <g id="xtick_11">
     <g id="line2d_26">
      <path d="M 351.295033 190.3975 
L 351.295033 139.92 
" clip-path="url(#p557f86b724)" style="fill: none; stroke: #b0b0b0; stroke-width: 0.8; stroke-linecap: square"/>
     </g>
     <g id="line2d_27">
      <g>
       <use xlink:href="#mcacedf7c65" x="351.295033" y="190.3975" style="stroke: #000000; stroke-width: 0.8"/>
      </g>
     </g>
     <g id="text_16">
      <!-- 8 -->
      <g transform="translate(348.113783 204.995937)scale(0.1 -0.1)">
       <use xlink:href="#DejaVuSans-38"/>
      </g>
     </g>
    </g>
    <g id="xtick_12">
     <g id="line2d_28">
      <path d="M 420.138951 190.3975 
L 420.138951 139.92 
" clip-path="url(#p557f86b724)" style="fill: none; stroke: #b0b0b0; stroke-width: 0.8; stroke-linecap: square"/>
     </g>
     <g id="line2d_29">
      <g>
       <use xlink:href="#mcacedf7c65" x="420.138951" y="190.3975" style="stroke: #000000; stroke-width: 0.8"/>
      </g>
     </g>
     <g id="text_17">
      <!-- 10 -->
      <g transform="translate(413.776451 204.995937)scale(0.1 -0.1)">
       <use xlink:href="#DejaVuSans-31"/>
       <use xlink:href="#DejaVuSans-30" x="63.623047"/>
      </g>
     </g>
    </g>
    <g id="text_18">
     <!-- $t$ [s] -->
     <g transform="translate(243.953 218.674062)scale(0.1 -0.1)">
      <use xlink:href="#DejaVuSans-Oblique-74" transform="translate(0 0.015625)"/>
      <use xlink:href="#DejaVuSans-20" transform="translate(39.208984 0.015625)"/>
      <use xlink:href="#DejaVuSans-5b" transform="translate(70.996094 0.015625)"/>
      <use xlink:href="#DejaVuSans-73" transform="translate(110.009766 0.015625)"/>
      <use xlink:href="#DejaVuSans-5d" transform="translate(162.109375 0.015625)"/>
     </g>
    </g>
   </g>
   <g id="matplotlib.axis_4">
    <g id="ytick_3">
     <g id="line2d_30">
      <path d="M 58.106 181.344357 
L 450 181.344357 
" clip-path="url(#p557f86b724)" style="fill: none; stroke: #b0b0b0; stroke-width: 0.8; stroke-linecap: square"/>
     </g>
     <g id="line2d_31">
      <g>
       <use xlink:href="#mf2088a64af" x="58.106" y="181.344357" style="stroke: #000000; stroke-width: 0.8"/>
      </g>
     </g>
     <g id="text_19">
      <!-- −0.1 -->
      <g transform="translate(26.823188 185.143575)scale(0.1 -0.1)">
       <defs>
        <path id="DejaVuSans-2212" d="M 678 2272 
L 4684 2272 
L 4684 1741 
L 678 1741 
L 678 2272 
z
" transform="scale(0.015625)"/>
        <path id="DejaVuSans-2e" d="M 684 794 
L 1344 794 
L 1344 0 
L 684 0 
L 684 794 
z
" transform="scale(0.015625)"/>
       </defs>
       <use xlink:href="#DejaVuSans-2212"/>
       <use xlink:href="#DejaVuSans-30" x="83.789062"/>
       <use xlink:href="#DejaVuSans-2e" x="147.412109"/>
       <use xlink:href="#DejaVuSans-31" x="179.199219"/>
      </g>
     </g>
    </g>
    <g id="ytick_4">
     <g id="line2d_32">
      <path d="M 58.106 166.281112 
L 450 166.281112 
" clip-path="url(#p557f86b724)" style="fill: none; stroke: #b0b0b0; stroke-width: 0.8; stroke-linecap: square"/>
     </g>
     <g id="line2d_33">
      <g>
       <use xlink:href="#mf2088a64af" x="58.106" y="166.281112" style="stroke: #000000; stroke-width: 0.8"/>
      </g>
     </g>
     <g id="text_20">
      <!-- 0.0 -->
      <g transform="translate(35.202875 170.080331)scale(0.1 -0.1)">
       <use xlink:href="#DejaVuSans-30"/>
       <use xlink:href="#DejaVuSans-2e" x="63.623047"/>
       <use xlink:href="#DejaVuSans-30" x="95.410156"/>
      </g>
     </g>
    </g>
    <g id="ytick_5">
     <g id="line2d_34">
      <path d="M 58.106 151.217867 
L 450 151.217867 
" clip-path="url(#p557f86b724)" style="fill: none; stroke: #b0b0b0; stroke-width: 0.8; stroke-linecap: square"/>
     </g>
     <g id="line2d_35">
      <g>
       <use xlink:href="#mf2088a64af" x="58.106" y="151.217867" style="stroke: #000000; stroke-width: 0.8"/>
      </g>
     </g>
     <g id="text_21">
      <!-- 0.1 -->
      <g transform="translate(35.202875 155.017086)scale(0.1 -0.1)">
       <use xlink:href="#DejaVuSans-30"/>
       <use xlink:href="#DejaVuSans-2e" x="63.623047"/>
       <use xlink:href="#DejaVuSans-31" x="95.410156"/>
      </g>
     </g>
    </g>
    <g id="text_22">
     <!-- $e_z$ [m] -->
     <g transform="translate(20.7435 180.60875)rotate(-90)scale(0.1 -0.1)">
      <defs>
       <path id="DejaVuSans-Oblique-7a" d="M 744 3500 
L 3475 3500 
L 3372 2975 
L 738 459 
L 2913 459 
L 2822 0 
L -19 0 
L 84 525 
L 2719 3041 
L 653 3041 
L 744 3500 
z
" transform="scale(0.015625)"/>
      </defs>
      <use xlink:href="#DejaVuSans-Oblique-65" transform="translate(0 0.015625)"/>
      <use xlink:href="#DejaVuSans-Oblique-7a" transform="translate(61.523438 -16.390625)scale(0.7)"/>
      <use xlink:href="#DejaVuSans-20" transform="translate(101.000977 0.015625)"/>
      <use xlink:href="#DejaVuSans-5b" transform="translate(132.788086 0.015625)"/>
      <use xlink:href="#DejaVuSans-6d" transform="translate(171.801758 0.015625)"/>
      <use xlink:href="#DejaVuSans-5d" transform="translate(269.213867 0.015625)"/>
     </g>
    </g>
   </g>
   <g id="line2d_36">
    <path d="M 75.919364 167.733125 
L 76.608469 167.486139 
L 77.297574 167.015846 
L 78.675784 166.233939 
L 79.020336 165.93021 
L 80.398546 165.500086 
L 81.087651 165.470841 
L 82.465861 165.700866 
L 83.154966 165.812898 
L 84.188623 165.751887 
L 84.533176 165.643352 
L 85.222281 165.270172 
L 85.911386 164.910465 
L 86.255938 164.588624 
L 86.600491 164.109622 
L 86.945043 164.109622 
L 87.289596 163.605469 
L 89.701463 161.922379 
L 90.390568 161.549516 
L 90.735121 161.198743 
L 91.079673 161.198743 
L 91.424226 160.764926 
L 92.113331 160.230964 
L 92.457883 159.760247 
L 92.802436 159.040229 
L 93.146988 159.040229 
L 93.491541 158.238497 
L 94.180646 157.408191 
L 94.86975 155.979679 
L 95.214303 155.979679 
L 95.558855 155.234707 
L 96.937065 153.763369 
L 97.281618 153.763369 
L 97.62617 153.469214 
L 98.659828 153.228014 
L 99.693485 153.251363 
L 100.727143 153.472577 
L 101.416248 153.760447 
L 104.51722 154.609655 
L 105.550878 154.595621 
L 106.929088 154.056245 
L 107.27364 153.816176 
L 107.618193 153.816176 
L 107.962745 153.432789 
L 108.307298 153.21699 
L 109.340955 152.112396 
L 109.685507 152.112396 
L 110.03006 151.580401 
L 111.063717 150.678061 
L 111.40827 150.226835 
L 112.78648 149.542604 
L 113.475585 149.155319 
L 113.820137 149.155319 
L 114.509242 148.873848 
L 115.198347 148.61649 
L 115.887452 148.248976 
L 117.265662 147.59645 
L 117.610215 147.300642 
L 117.954767 147.300642 
L 118.29932 147.017515 
L 119.332977 146.564643 
L 120.022082 146.248525 
L 121.400292 145.85025 
L 122.089397 145.561177 
L 123.123055 145.110938 
L 123.812159 144.594238 
L 124.156712 144.594238 
L 124.501264 144.19656 
L 125.190369 143.676271 
L 125.879474 143.0846 
L 126.224027 143.0846 
L 126.913132 142.546956 
L 127.602237 142.348288 
L 128.635894 142.214432 
L 129.324999 142.291062 
L 131.047762 142.861666 
L 131.736867 143.238997 
L 132.081419 143.599939 
L 132.425972 143.599939 
L 132.770524 144.007994 
L 133.459629 144.572091 
L 134.148734 145.296766 
L 134.493287 145.296766 
L 134.837839 145.784201 
L 135.871497 146.587684 
L 136.216049 146.997301 
L 136.560602 146.997301 
L 136.905154 147.366178 
L 137.594259 147.77498 
L 138.283364 148.220781 
L 138.627916 148.220781 
L 139.661574 148.992239 
L 140.350679 149.26331 
L 140.695231 149.458091 
L 141.728889 150.597725 
L 142.073441 150.724512 
L 142.762546 151.245771 
L 143.107099 151.774162 
L 143.796204 152.411927 
L 144.140756 152.769984 
L 144.829861 153.103522 
L 145.174414 153.504865 
L 146.208071 154.093614 
L 146.552624 154.382521 
L 146.897176 154.382521 
L 147.586281 154.808281 
L 148.619939 155.372285 
L 148.964491 155.748854 
L 150.687254 156.807326 
L 151.720911 157.727222 
L 153.788226 158.752597 
L 156.544646 159.512352 
L 157.922856 160.341429 
L 158.611961 160.607163 
L 158.956513 160.986895 
L 159.990171 161.693141 
L 160.334723 162.106338 
L 160.679276 162.106338 
L 161.023828 162.5161 
L 162.402038 163.425489 
L 162.746591 163.842509 
L 164.469353 165.01749 
L 164.813906 165.425381 
L 165.158458 166.020528 
L 166.536668 167.388785 
L 166.881221 167.957651 
L 167.225773 168.748163 
L 168.25943 169.960721 
L 168.603983 170.755338 
L 168.948535 170.755338 
L 169.293088 171.877112 
L 169.63764 172.05289 
L 170.326745 172.719141 
L 170.671298 173.325714 
L 171.01585 173.325714 
L 171.360403 174.137926 
L 171.704955 174.263871 
L 172.39406 174.748238 
L 172.738613 175.21568 
L 173.083165 175.21568 
L 173.427718 175.908063 
L 174.116823 176.250617 
L 174.461375 176.478403 
L 174.805928 176.934105 
L 175.15048 176.934105 
L 175.495033 177.602766 
L 176.184138 177.919968 
L 176.52869 178.12299 
L 176.873243 178.507145 
L 177.217795 178.507145 
L 177.562348 179.013542 
L 178.251453 179.227959 
L 180.318768 179.881961 
L 182.730635 180.242486 
L 183.075187 180.364008 
L 183.41974 180.364008 
L 183.764292 180.584065 
L 184.79795 180.779959 
L 185.142502 180.923604 
L 185.487055 180.923604 
L 185.831607 181.083256 
L 188.243475 181.099817 
L 189.621685 181.100643 
L 190.31079 181.278797 
L 191.689 181.712498 
L 192.378105 181.884514 
L 193.756315 181.826857 
L 194.44542 181.640811 
L 194.789972 181.459134 
L 195.134525 181.459134 
L 195.82363 181.261922 
L 196.512734 181.223821 
L 197.890944 181.568717 
L 198.924602 182.06605 
L 199.269154 182.334178 
L 200.647364 182.673923 
L 201.336469 182.681672 
L 202.370127 182.462126 
L 205.126547 181.518894 
L 206.160204 181.441373 
L 206.849309 181.619997 
L 207.193862 181.886329 
L 207.538414 181.886329 
L 208.227519 182.393204 
L 208.916624 182.835249 
L 209.261177 183.152114 
L 209.605729 183.152114 
L 209.950282 183.409176 
L 211.328491 183.733595 
L 213.395806 183.830306 
L 215.118569 183.927685 
L 215.463121 184.082551 
L 215.807674 184.082551 
L 217.530436 185.251899 
L 217.874989 185.251899 
L 218.219541 185.601266 
L 219.942304 186.304247 
L 220.631409 186.461674 
L 221.665066 186.441524 
L 222.698724 186.33048 
L 224.076934 186.167176 
L 225.110591 186.253934 
L 228.900668 187.242341 
L 229.934326 187.217711 
L 232.690746 186.643862 
L 233.724403 186.623454 
L 234.758061 186.854757 
L 235.791718 187.131801 
L 236.136271 187.280921 
L 236.480823 187.280921 
L 237.169928 187.44321 
L 238.548138 187.445706 
L 241.64911 186.574961 
L 243.371873 186.672099 
L 244.750083 186.981184 
L 246.128293 187.439522 
L 247.506503 187.575926 
L 248.54016 187.442584 
L 251.29658 186.699287 
L 253.019343 186.769442 
L 255.43121 187.610561 
L 256.120315 187.828507 
L 257.153972 187.889214 
L 259.910392 187.271119 
L 260.599497 187.089239 
L 261.633155 187.06155 
L 262.32226 187.215 
L 263.355917 187.515695 
L 263.70047 187.700841 
L 264.045022 187.700841 
L 264.734127 187.947327 
L 265.767785 188.098449 
L 266.801442 188.008981 
L 269.902414 187.273956 
L 270.936072 187.212492 
L 274.381597 187.774349 
L 275.415254 187.736456 
L 278.860779 187.13759 
L 285.062724 186.747703 
L 288.852801 186.322361 
L 290.575564 185.884642 
L 297.122061 184.702732 
L 299.189376 184.493919 
L 304.702216 182.904706 
L 305.735873 182.560489 
L 307.114083 182.482978 
L 308.147741 182.568132 
L 310.559608 182.712734 
L 310.904161 182.682103 
L 311.248713 182.539208 
L 311.593266 182.539208 
L 312.28237 182.250624 
L 312.971475 182.012771 
L 313.316028 181.779457 
L 313.66058 181.779457 
L 314.005133 181.451503 
L 315.03879 181.182668 
L 315.383343 180.975712 
L 315.727895 180.975712 
L 316.072448 180.73402 
L 317.79521 180.693913 
L 321.585288 181.396582 
L 322.618945 181.222656 
L 323.30805 180.93085 
L 324.68626 180.461336 
L 325.375365 180.156289 
L 327.44268 179.658973 
L 328.476337 179.739808 
L 331.232757 180.392417 
L 332.95552 180.299559 
L 333.989177 180.004472 
L 338.123807 179.122757 
L 339.157465 179.203174 
L 340.535675 179.540863 
L 342.602989 179.799738 
L 343.981199 179.664681 
L 345.014857 179.446549 
L 346.393067 179.135229 
L 348.115829 178.913983 
L 349.494039 179.021229 
L 350.872249 179.31549 
L 353.284117 179.578884 
L 354.662327 179.45479 
L 358.107851 179.044286 
L 359.141509 179.091101 
L 360.519719 179.342767 
L 362.931586 179.629892 
L 368.099874 179.849582 
L 371.889951 180.528757 
L 372.923608 180.638765 
L 376.024581 181.040893 
L 377.402791 181.2286 
L 383.260183 182.02478 
L 384.638393 182.310857 
L 385.327498 182.531084 
L 387.739365 182.993989 
L 388.773023 182.937577 
L 391.873995 182.67025 
L 392.218548 182.71101 
L 392.5631 182.871324 
L 392.907653 182.871324 
L 393.596758 183.157619 
L 394.630415 183.542318 
L 396.008625 184.424772 
L 397.731388 185.026954 
L 398.420493 185.0304 
L 400.487807 184.496725 
L 401.176912 184.270034 
L 402.21057 184.123679 
L 404.622437 183.913361 
L 404.96699 183.747592 
L 405.311542 183.747592 
L 405.656095 183.351948 
L 406.3452 183.086657 
L 406.689752 182.889572 
L 407.034305 182.466822 
L 407.378857 182.466822 
L 407.72341 181.851605 
L 408.412515 181.583992 
L 409.790725 180.987423 
L 410.824382 180.955687 
L 411.85804 181.028947 
L 412.891697 180.925157 
L 413.23625 180.750455 
L 413.580802 180.750455 
L 414.269907 180.312847 
L 414.959012 179.919626 
L 415.992669 178.987498 
L 417.026327 178.463818 
L 417.370879 178.11103 
L 417.715432 178.11103 
L 418.059984 177.896322 
L 420.127299 177.503009 
L 421.160957 177.299192 
L 421.505509 177.025598 
L 421.850062 177.025598 
L 422.539167 176.585715 
L 423.228272 176.2699 
L 423.572824 175.938793 
L 423.917377 175.938793 
L 424.606482 175.719551 
L 425.640139 175.713812 
L 428.052007 176.15676 
L 429.430216 175.769777 
L 429.774769 175.318005 
L 430.119321 175.318005 
L 430.463874 174.867888 
L 432.186636 173.606556 
L 432.186636 173.606556 
" clip-path="url(#p557f86b724)" style="fill: none; stroke: #0000ff; stroke-width: 1.5; stroke-linecap: square"/>
   </g>
   <g id="patch_8">
    <path d="M 58.106 190.3975 
L 58.106 139.92 
" style="fill: none; stroke: #000000; stroke-width: 0.8; stroke-linejoin: miter; stroke-linecap: square"/>
   </g>
   <g id="patch_9">
    <path d="M 450 190.3975 
L 450 139.92 
" style="fill: none; stroke: #000000; stroke-width: 0.8; stroke-linejoin: miter; stroke-linecap: square"/>
   </g>
   <g id="patch_10">
    <path d="M 58.106 190.3975 
L 450 190.3975 
" style="fill: none; stroke: #000000; stroke-width: 0.8; stroke-linejoin: miter; stroke-linecap: square"/>
   </g>
   <g id="patch_11">
    <path d="M 58.106 139.92 
L 450 139.92 
" style="fill: none; stroke: #000000; stroke-width: 0.8; stroke-linejoin: miter; stroke-linecap: square"/>
   </g>
   <g id="text_23">
    <!-- Error in $z$-position -->
    <g transform="translate(200.773 133.92)scale(0.12 -0.12)">
     <use xlink:href="#DejaVuSans-45" transform="translate(0 0.015625)"/>
     <use xlink:href="#DejaVuSans-72" transform="translate(63.183594 0.015625)"/>
     <use xlink:href="#DejaVuSans-72" transform="translate(104.296875 0.015625)"/>
     <use xlink:href="#DejaVuSans-6f" transform="translate(145.410156 0.015625)"/>
     <use xlink:href="#DejaVuSans-72" transform="translate(206.591797 0.015625)"/>
     <use xlink:href="#DejaVuSans-20" transform="translate(247.705078 0.015625)"/>
     <use xlink:href="#DejaVuSans-69" transform="translate(279.492188 0.015625)"/>
     <use xlink:href="#DejaVuSans-6e" transform="translate(307.275391 0.015625)"/>
     <use xlink:href="#DejaVuSans-20" transform="translate(370.654297 0.015625)"/>
     <use xlink:href="#DejaVuSans-Oblique-7a" transform="translate(402.441406 0.015625)"/>
     <use xlink:href="#DejaVuSans-2d" transform="translate(454.931641 0.015625)"/>
     <use xlink:href="#DejaVuSans-70" transform="translate(491.015625 0.015625)"/>
     <use xlink:href="#DejaVuSans-6f" transform="translate(554.492188 0.015625)"/>
     <use xlink:href="#DejaVuSans-73" transform="translate(615.673828 0.015625)"/>
     <use xlink:href="#DejaVuSans-69" transform="translate(667.773438 0.015625)"/>
     <use xlink:href="#DejaVuSans-74" transform="translate(695.556641 0.015625)"/>
     <use xlink:href="#DejaVuSans-69" transform="translate(734.765625 0.015625)"/>
     <use xlink:href="#DejaVuSans-6f" transform="translate(762.548828 0.015625)"/>
     <use xlink:href="#DejaVuSans-6e" transform="translate(823.730469 0.015625)"/>
    </g>
   </g>
  </g>
  <g id="axes_3">
   <g id="patch_12">
    <path d="M 58.106 301.9975 
L 450 301.9975 
L 450 251.52 
L 58.106 251.52 
z
" style="fill: #ffffff"/>
   </g>
   <g id="matplotlib.axis_5">
    <g id="xtick_13">
     <g id="line2d_37">
      <path d="M 75.919364 301.9975 
L 75.919364 251.52 
" clip-path="url(#p0004af95fb)" style="fill: none; stroke: #b0b0b0; stroke-width: 0.8; stroke-linecap: square"/>
     </g>
     <g id="line2d_38">
      <g>
       <use xlink:href="#mcacedf7c65" x="75.919364" y="301.9975" style="stroke: #000000; stroke-width: 0.8"/>
      </g>
     </g>
     <g id="text_24">
      <!-- 0 -->
      <g transform="translate(72.738114 316.595937)scale(0.1 -0.1)">
       <use xlink:href="#DejaVuSans-30"/>
      </g>
     </g>
    </g>
    <g id="xtick_14">
     <g id="line2d_39">
      <path d="M 144.763281 301.9975 
L 144.763281 251.52 
" clip-path="url(#p0004af95fb)" style="fill: none; stroke: #b0b0b0; stroke-width: 0.8; stroke-linecap: square"/>
     </g>
     <g id="line2d_40">
      <g>
       <use xlink:href="#mcacedf7c65" x="144.763281" y="301.9975" style="stroke: #000000; stroke-width: 0.8"/>
      </g>
     </g>
     <g id="text_25">
      <!-- 2 -->
      <g transform="translate(141.582031 316.595937)scale(0.1 -0.1)">
       <use xlink:href="#DejaVuSans-32"/>
      </g>
     </g>
    </g>
    <g id="xtick_15">
     <g id="line2d_41">
      <path d="M 213.607199 301.9975 
L 213.607199 251.52 
" clip-path="url(#p0004af95fb)" style="fill: none; stroke: #b0b0b0; stroke-width: 0.8; stroke-linecap: square"/>
     </g>
     <g id="line2d_42">
      <g>
       <use xlink:href="#mcacedf7c65" x="213.607199" y="301.9975" style="stroke: #000000; stroke-width: 0.8"/>
      </g>
     </g>
     <g id="text_26">
      <!-- 4 -->
      <g transform="translate(210.425949 316.595937)scale(0.1 -0.1)">
       <use xlink:href="#DejaVuSans-34"/>
      </g>
     </g>
    </g>
    <g id="xtick_16">
     <g id="line2d_43">
      <path d="M 282.451116 301.9975 
L 282.451116 251.52 
" clip-path="url(#p0004af95fb)" style="fill: none; stroke: #b0b0b0; stroke-width: 0.8; stroke-linecap: square"/>
     </g>
     <g id="line2d_44">
      <g>
       <use xlink:href="#mcacedf7c65" x="282.451116" y="301.9975" style="stroke: #000000; stroke-width: 0.8"/>
      </g>
     </g>
     <g id="text_27">
      <!-- 6 -->
      <g transform="translate(279.269866 316.595937)scale(0.1 -0.1)">
       <use xlink:href="#DejaVuSans-36"/>
      </g>
     </g>
    </g>
    <g id="xtick_17">
     <g id="line2d_45">
      <path d="M 351.295033 301.9975 
L 351.295033 251.52 
" clip-path="url(#p0004af95fb)" style="fill: none; stroke: #b0b0b0; stroke-width: 0.8; stroke-linecap: square"/>
     </g>
     <g id="line2d_46">
      <g>
       <use xlink:href="#mcacedf7c65" x="351.295033" y="301.9975" style="stroke: #000000; stroke-width: 0.8"/>
      </g>
     </g>
     <g id="text_28">
      <!-- 8 -->
      <g transform="translate(348.113783 316.595937)scale(0.1 -0.1)">
       <use xlink:href="#DejaVuSans-38"/>
      </g>
     </g>
    </g>
    <g id="xtick_18">
     <g id="line2d_47">
      <path d="M 420.138951 301.9975 
L 420.138951 251.52 
" clip-path="url(#p0004af95fb)" style="fill: none; stroke: #b0b0b0; stroke-width: 0.8; stroke-linecap: square"/>
     </g>
     <g id="line2d_48">
      <g>
       <use xlink:href="#mcacedf7c65" x="420.138951" y="301.9975" style="stroke: #000000; stroke-width: 0.8"/>
      </g>
     </g>
     <g id="text_29">
      <!-- 10 -->
      <g transform="translate(413.776451 316.595937)scale(0.1 -0.1)">
       <use xlink:href="#DejaVuSans-31"/>
       <use xlink:href="#DejaVuSans-30" x="63.623047"/>
      </g>
     </g>
    </g>
    <g id="text_30">
     <!-- $t$ [s] -->
     <g transform="translate(243.953 330.274063)scale(0.1 -0.1)">
      <use xlink:href="#DejaVuSans-Oblique-74" transform="translate(0 0.015625)"/>
      <use xlink:href="#DejaVuSans-20" transform="translate(39.208984 0.015625)"/>
      <use xlink:href="#DejaVuSans-5b" transform="translate(70.996094 0.015625)"/>
      <use xlink:href="#DejaVuSans-73" transform="translate(110.009766 0.015625)"/>
      <use xlink:href="#DejaVuSans-5d" transform="translate(162.109375 0.015625)"/>
     </g>
    </g>
   </g>
   <g id="matplotlib.axis_6">
    <g id="ytick_6">
     <g id="line2d_49">
      <path d="M 58.106 297.810898 
L 450 297.810898 
" clip-path="url(#p0004af95fb)" style="fill: none; stroke: #b0b0b0; stroke-width: 0.8; stroke-linecap: square"/>
     </g>
     <g id="line2d_50">
      <g>
       <use xlink:href="#mf2088a64af" x="58.106" y="297.810898" style="stroke: #000000; stroke-width: 0.8"/>
      </g>
     </g>
     <g id="text_31">
      <!-- −0.1 -->
      <g transform="translate(26.823188 301.610117)scale(0.1 -0.1)">
       <use xlink:href="#DejaVuSans-2212"/>
       <use xlink:href="#DejaVuSans-30" x="83.789062"/>
       <use xlink:href="#DejaVuSans-2e" x="147.412109"/>
       <use xlink:href="#DejaVuSans-31" x="179.199219"/>
      </g>
     </g>
    </g>
    <g id="ytick_7">
     <g id="line2d_51">
      <path d="M 58.106 280.045318 
L 450 280.045318 
" clip-path="url(#p0004af95fb)" style="fill: none; stroke: #b0b0b0; stroke-width: 0.8; stroke-linecap: square"/>
     </g>
     <g id="line2d_52">
      <g>
       <use xlink:href="#mf2088a64af" x="58.106" y="280.045318" style="stroke: #000000; stroke-width: 0.8"/>
      </g>
     </g>
     <g id="text_32">
      <!-- 0.0 -->
      <g transform="translate(35.202875 283.844536)scale(0.1 -0.1)">
       <use xlink:href="#DejaVuSans-30"/>
       <use xlink:href="#DejaVuSans-2e" x="63.623047"/>
       <use xlink:href="#DejaVuSans-30" x="95.410156"/>
      </g>
     </g>
    </g>
    <g id="ytick_8">
     <g id="line2d_53">
      <path d="M 58.106 262.279737 
L 450 262.279737 
" clip-path="url(#p0004af95fb)" style="fill: none; stroke: #b0b0b0; stroke-width: 0.8; stroke-linecap: square"/>
     </g>
     <g id="line2d_54">
      <g>
       <use xlink:href="#mf2088a64af" x="58.106" y="262.279737" style="stroke: #000000; stroke-width: 0.8"/>
      </g>
     </g>
     <g id="text_33">
      <!-- 0.1 -->
      <g transform="translate(35.202875 266.078956)scale(0.1 -0.1)">
       <use xlink:href="#DejaVuSans-30"/>
       <use xlink:href="#DejaVuSans-2e" x="63.623047"/>
       <use xlink:href="#DejaVuSans-31" x="95.410156"/>
      </g>
     </g>
    </g>
    <g id="text_34">
     <!-- $e_\theta$ [rad] -->
     <g transform="translate(20.7435 295.90875)rotate(-90)scale(0.1 -0.1)">
      <defs>
       <path id="DejaVuSans-Oblique-3b8" d="M 2913 2219 
L 925 2219 
Q 791 1284 928 888 
Q 1100 400 1566 400 
Q 2034 400 2391 891 
Q 2703 1322 2913 2219 
z
M 3009 2750 
Q 3094 3638 2984 3950 
Q 2813 4444 2353 4444 
Q 1875 4444 1525 3956 
Q 1250 3563 1034 2750 
L 3009 2750 
z
M 2444 4913 
Q 3194 4913 3494 4250 
Q 3794 3591 3566 2422 
Q 3341 1256 2781 594 
Q 2225 -72 1475 -72 
Q 722 -72 425 594 
Q 128 1256 353 2422 
Q 581 3591 1134 4250 
Q 1691 4913 2444 4913 
z
" transform="scale(0.015625)"/>
       <path id="DejaVuSans-61" d="M 2194 1759 
Q 1497 1759 1228 1600 
Q 959 1441 959 1056 
Q 959 750 1161 570 
Q 1363 391 1709 391 
Q 2188 391 2477 730 
Q 2766 1069 2766 1631 
L 2766 1759 
L 2194 1759 
z
M 3341 1997 
L 3341 0 
L 2766 0 
L 2766 531 
Q 2569 213 2275 61 
Q 1981 -91 1556 -91 
Q 1019 -91 701 211 
Q 384 513 384 1019 
Q 384 1609 779 1909 
Q 1175 2209 1959 2209 
L 2766 2209 
L 2766 2266 
Q 2766 2663 2505 2880 
Q 2244 3097 1772 3097 
Q 1472 3097 1187 3025 
Q 903 2953 641 2809 
L 641 3341 
Q 956 3463 1253 3523 
Q 1550 3584 1831 3584 
Q 2591 3584 2966 3190 
Q 3341 2797 3341 1997 
z
" transform="scale(0.015625)"/>
       <path id="DejaVuSans-64" d="M 2906 2969 
L 2906 4863 
L 3481 4863 
L 3481 0 
L 2906 0 
L 2906 525 
Q 2725 213 2448 61 
Q 2172 -91 1784 -91 
Q 1150 -91 751 415 
Q 353 922 353 1747 
Q 353 2572 751 3078 
Q 1150 3584 1784 3584 
Q 2172 3584 2448 3432 
Q 2725 3281 2906 2969 
z
M 947 1747 
Q 947 1113 1208 752 
Q 1469 391 1925 391 
Q 2381 391 2643 752 
Q 2906 1113 2906 1747 
Q 2906 2381 2643 2742 
Q 2381 3103 1925 3103 
Q 1469 3103 1208 2742 
Q 947 2381 947 1747 
z
" transform="scale(0.015625)"/>
      </defs>
      <use xlink:href="#DejaVuSans-Oblique-65" transform="translate(0 0.015625)"/>
      <use xlink:href="#DejaVuSans-Oblique-3b8" transform="translate(61.523438 -16.390625)scale(0.7)"/>
      <use xlink:href="#DejaVuSans-20" transform="translate(107.084961 0.015625)"/>
      <use xlink:href="#DejaVuSans-5b" transform="translate(138.87207 0.015625)"/>
      <use xlink:href="#DejaVuSans-72" transform="translate(177.885742 0.015625)"/>
      <use xlink:href="#DejaVuSans-61" transform="translate(218.999023 0.015625)"/>
      <use xlink:href="#DejaVuSans-64" transform="translate(280.27832 0.015625)"/>
      <use xlink:href="#DejaVuSans-5d" transform="translate(343.754883 0.015625)"/>
     </g>
    </g>
   </g>
   <g id="line2d_55">
    <path d="M 75.919364 280.025186 
L 76.263916 279.924581 
L 76.608469 279.481657 
L 76.953021 278.706279 
L 77.642126 277.608565 
L 78.331231 275.662161 
L 78.675784 273.64468 
L 79.020336 270.567468 
L 80.743098 262.782557 
L 81.087651 262.256907 
L 81.432203 261.972905 
L 81.776756 261.91622 
L 82.121308 262.07882 
L 82.465861 262.736748 
L 82.810413 264.273136 
L 83.844071 267.440577 
L 84.188623 268.625267 
L 84.533176 270.471191 
L 84.877728 272.984538 
L 85.911386 277.019014 
L 86.255938 279.285878 
L 86.600491 282.741601 
L 86.945043 282.741601 
L 87.289596 286.579081 
L 89.012358 296.033862 
L 89.701463 297.010047 
L 90.390568 297.289438 
L 91.424226 297.044723 
L 92.113331 296.662002 
L 92.457883 296.241897 
L 92.802436 295.560547 
L 93.146988 295.560547 
L 94.180646 292.844177 
L 94.525198 290.811534 
L 94.86975 287.283405 
L 95.214303 287.283405 
L 95.558855 283.198309 
L 95.903408 281.107019 
L 96.937065 272.514473 
L 97.281618 272.514473 
L 97.62617 269.349768 
L 99.00438 263.430273 
L 99.693485 262.373118 
L 100.38259 261.734397 
L 100.727143 261.476088 
L 101.071695 261.442642 
L 101.7608 261.780006 
L 102.449905 262.520962 
L 102.794458 263.368943 
L 103.13901 264.953587 
L 103.483563 264.953587 
L 103.828115 267.119731 
L 104.51722 269.929681 
L 104.861773 272.42746 
L 105.206325 276.215873 
L 105.550878 276.215873 
L 105.89543 280.355622 
L 106.239983 282.511676 
L 107.27364 291.889604 
L 107.618193 291.889604 
L 107.962745 295.381689 
L 108.996402 299.501624 
L 109.340955 299.703068 
L 109.685507 299.703068 
L 110.719165 296.849476 
L 111.063717 294.886651 
L 111.40827 291.869297 
L 112.78648 285.345598 
L 113.475585 279.883292 
L 113.820137 279.883292 
L 114.16469 277.171419 
L 115.198347 273.983072 
L 115.5429 273.526291 
L 115.887452 273.747573 
L 116.232005 274.271295 
L 116.92111 276.063211 
L 117.265662 277.854749 
L 117.610215 280.395101 
L 117.954767 280.395101 
L 118.29932 282.818002 
L 119.67753 286.850979 
L 120.022082 286.976367 
L 120.366635 286.929173 
L 120.711187 286.720157 
L 121.05574 286.354342 
L 121.400292 285.524247 
L 121.744845 283.949706 
L 122.778502 280.80681 
L 123.812159 275.155215 
L 124.156712 275.155215 
L 124.501264 272.531718 
L 124.845817 271.207111 
L 125.879474 265.256922 
L 126.224027 265.256922 
L 126.913132 260.983845 
L 127.257684 259.451235 
L 127.602237 259.001157 
L 128.635894 256.698885 
L 128.980447 256.556503 
L 129.324999 256.713323 
L 129.669552 257.310297 
L 130.014104 258.331911 
L 130.358657 258.331911 
L 130.703209 260.230918 
L 131.392314 262.494092 
L 132.081419 266.278981 
L 132.425972 266.278981 
L 132.770524 268.056481 
L 134.148734 270.903404 
L 135.182392 270.925647 
L 135.526944 270.770763 
L 136.216049 270.032629 
L 136.560602 270.032629 
L 136.905154 269.753036 
L 137.594259 269.746872 
L 138.627916 270.240274 
L 139.317021 271.092399 
L 139.661574 271.429269 
L 140.350679 271.741459 
L 140.695231 271.943428 
L 141.728889 273.025551 
L 142.073441 273.149319 
L 142.762546 273.68968 
L 143.107099 274.327407 
L 143.451651 274.700647 
L 144.140756 276.141324 
L 144.485309 276.428829 
L 144.829861 277.039752 
L 145.174414 278.383806 
L 145.863519 279.810429 
L 146.208071 280.917225 
L 146.552624 282.411842 
L 146.897176 282.411842 
L 147.241729 283.808839 
L 148.964491 287.033398 
L 149.998149 287.703634 
L 150.687254 287.938938 
L 151.031806 287.976972 
L 152.065464 287.453185 
L 152.410016 287.190676 
L 152.754568 286.489472 
L 153.099121 286.489472 
L 153.443673 284.991346 
L 153.788226 284.692624 
L 154.477331 283.403726 
L 154.821883 282.121216 
L 155.166436 281.529577 
L 155.855541 279.940158 
L 156.200093 279.692724 
L 156.544646 279.212029 
L 156.889198 278.309716 
L 157.233751 277.861924 
L 157.922856 276.380145 
L 158.267408 276.091355 
L 158.611961 275.465881 
L 158.956513 273.998631 
L 159.645618 272.165159 
L 159.990171 270.504797 
L 160.334723 267.902192 
L 160.679276 267.902192 
L 161.023828 265.036996 
L 162.402038 258.827248 
L 162.746591 256.890772 
L 163.435696 255.490752 
L 164.124801 254.507164 
L 164.813906 253.898877 
L 165.158458 253.814432 
L 166.192116 254.017621 
L 166.881221 254.373447 
L 167.225773 254.742247 
L 168.25943 255.335796 
L 168.603983 255.712493 
L 168.948535 255.712493 
L 169.293088 256.252646 
L 169.982193 256.553848 
L 170.326745 256.785985 
L 170.671298 257.365715 
L 171.01585 257.365715 
L 171.360403 258.703489 
L 171.704955 258.992242 
L 172.39406 260.310456 
L 172.738613 261.781117 
L 173.083165 261.781117 
L 173.427718 264.029577 
L 173.77227 264.401027 
L 174.461375 265.794549 
L 174.805928 266.859695 
L 175.15048 266.859695 
L 175.495033 267.701652 
L 176.52869 267.904389 
L 177.217795 267.801736 
L 177.562348 267.398569 
L 178.596005 267.245465 
L 178.940558 267.460044 
L 179.28511 267.460044 
L 179.629663 268.446667 
L 179.974215 268.672241 
L 180.66332 269.652002 
L 181.007873 270.579051 
L 181.352425 270.579051 
L 181.696977 271.515551 
L 184.453397 272.351118 
L 184.79795 272.62266 
L 185.142502 273.494763 
L 185.487055 273.494763 
L 185.831607 275.794449 
L 186.17616 276.297893 
L 186.865265 278.610154 
L 187.55437 283.073017 
L 187.898922 284.826688 
L 188.243475 285.360605 
L 189.277132 288.081636 
L 189.621685 288.081636 
L 190.655342 287.045954 
L 190.999895 286.482411 
L 191.344447 285.176454 
L 191.689 284.495481 
L 192.378105 282.717226 
L 193.411762 281.946449 
L 193.756315 282.103676 
L 194.100867 282.400258 
L 194.789972 283.731559 
L 195.134525 283.731559 
L 195.479077 284.070883 
L 195.82363 284.001739 
L 196.168182 283.758933 
L 196.512734 283.062579 
L 196.857287 281.625262 
L 198.924602 276.483279 
L 199.269154 276.087315 
L 199.613707 276.271725 
L 199.958259 276.705932 
L 200.647364 278.251271 
L 200.991917 279.877027 
L 201.336469 282.304097 
L 202.370127 285.817873 
L 202.714679 286.259298 
L 203.059232 286.204272 
L 203.403784 285.776607 
L 204.437442 279.366037 
L 204.781994 276.177178 
L 205.126547 275.070021 
L 205.471099 272.841597 
L 205.815652 268.433919 
L 206.849309 261.583595 
L 207.193862 258.434231 
L 207.538414 258.434231 
L 207.882967 256.483489 
L 208.227519 256.079501 
L 208.572072 256.087543 
L 208.916624 256.870907 
L 209.261177 259.215258 
L 209.605729 259.215258 
L 209.950282 262.656381 
L 210.294834 264.634341 
L 210.983939 270.728444 
L 211.328491 271.689944 
L 211.673044 273.496069 
L 212.017596 276.451008 
L 212.706701 278.233134 
L 213.051254 278.070176 
L 213.395806 277.047978 
L 213.740359 277.047978 
L 214.084911 274.572894 
L 214.774016 271.304491 
L 215.118569 268.646473 
L 215.463121 265.117534 
L 215.807674 265.117534 
L 216.152226 261.874756 
L 217.185884 257.547303 
L 217.530436 257.41343 
L 217.874989 257.41343 
L 218.564094 259.918052 
L 219.253199 265.137579 
L 219.597751 266.161239 
L 219.942304 268.26953 
L 220.286856 272.511217 
L 220.631409 274.537125 
L 221.320514 279.560888 
L 221.665066 281.25161 
L 222.009619 281.25161 
L 222.354171 282.204781 
L 222.698724 282.070828 
L 223.043276 281.157642 
L 223.732381 277.394881 
L 224.076934 277.394881 
L 224.421486 274.206167 
L 224.766039 272.587456 
L 225.455143 268.285098 
L 225.799696 267.694518 
L 226.488801 265.31705 
L 226.833353 265.108808 
L 227.177906 265.263596 
L 227.522458 266.174859 
L 227.867011 268.49993 
L 228.211563 268.49993 
L 228.556116 271.794315 
L 229.589773 277.586667 
L 230.278878 283.384283 
L 230.967983 285.560265 
L 231.312536 286.240666 
L 231.657088 286.621231 
L 232.001641 286.571658 
L 233.724403 280.539656 
L 234.068956 278.343295 
L 234.413508 275.397492 
L 236.136271 268.78152 
L 236.480823 268.78152 
L 236.825376 269.113723 
L 237.169928 269.801258 
L 237.514481 270.800791 
L 237.859033 272.785514 
L 238.203586 276.038937 
L 238.548138 276.038937 
L 238.892691 279.594486 
L 240.2709 286.318257 
L 240.960005 286.293752 
L 241.304558 285.795104 
L 241.64911 282.00248 
L 242.338215 282.00248 
L 242.682768 280.462959 
L 243.02732 277.945629 
L 243.371873 274.406786 
L 245.094635 265.913803 
L 245.439188 264.433555 
L 245.78374 264.231385 
L 246.128293 264.404088 
L 246.472845 264.926858 
L 246.817398 265.768274 
L 247.16195 267.557673 
L 247.506503 270.611308 
L 248.54016 275.710504 
L 249.229265 280.20244 
L 249.573818 280.20244 
L 249.91837 281.00631 
L 250.262923 280.870219 
L 250.607475 280.407816 
L 250.952028 279.149774 
L 251.29658 276.658631 
L 251.641133 276.658631 
L 251.985685 273.60412 
L 253.019343 268.74896 
L 254.053 262.453247 
L 254.742105 260.937333 
L 255.086657 260.689718 
L 255.43121 261.030372 
L 256.120315 264.093767 
L 256.80942 267.406712 
L 257.153972 270.221511 
L 257.498525 274.028861 
L 258.18763 277.36339 
L 258.876735 280.109594 
L 259.221287 280.691457 
L 259.56584 280.695957 
L 259.910392 280.44851 
L 260.94405 276.306888 
L 261.288602 274.304586 
L 261.633155 273.608685 
L 261.977707 272.211551 
L 262.32226 269.441104 
L 263.70047 263.803698 
L 264.389575 263.769163 
L 264.734127 264.302041 
L 265.07868 265.742244 
L 265.423232 267.827361 
L 265.767785 268.640137 
L 266.112337 270.398479 
L 266.45689 274.215159 
L 266.801442 276.154096 
L 267.490547 281.171249 
L 267.8351 282.894041 
L 268.179652 282.894041 
L 268.524205 283.963615 
L 268.868757 283.948457 
L 269.213309 283.28121 
L 269.557862 281.948178 
L 269.902414 281.380566 
L 270.246967 280.109661 
L 270.591519 277.2143 
L 270.936072 277.2143 
L 271.280624 272.479181 
L 271.625177 271.697088 
L 272.314282 268.680071 
L 272.658834 266.412348 
L 273.003387 265.745745 
L 273.347939 265.458684 
L 274.381597 267.412141 
L 274.726149 270.243929 
L 275.070702 271.970194 
L 275.759807 277.685718 
L 276.104359 278.643649 
L 276.448912 280.484572 
L 276.793464 283.568468 
L 277.482569 285.672441 
L 277.827122 285.912006 
L 278.171674 285.835133 
L 278.516227 285.441852 
L 279.549884 280.189972 
L 279.894437 277.565965 
L 280.238989 276.636012 
L 280.583542 274.721708 
L 280.928094 270.894181 
L 282.306304 263.894372 
L 282.650857 263.894372 
L 282.995409 264.008842 
L 283.339961 264.697257 
L 283.684514 266.423746 
L 284.029066 268.803597 
L 284.373619 269.703537 
L 284.718171 271.630399 
L 285.062724 275.76279 
L 285.407276 277.840316 
L 286.096381 283.670328 
L 286.440934 284.523371 
L 287.130039 288.018325 
L 287.474591 288.365509 
L 287.819144 288.035735 
L 288.163696 286.755755 
L 288.508249 286.144036 
L 288.852801 284.674895 
L 289.197354 280.991937 
L 289.886459 276.752554 
L 290.920116 267.071945 
L 291.609221 263.515534 
L 292.298326 261.072366 
L 292.642879 260.293304 
L 292.987431 260.829199 
L 293.331984 261.727975 
L 294.021089 264.56308 
L 294.365641 266.388858 
L 294.710194 269.471165 
L 295.054746 273.929802 
L 297.122061 288.233024 
L 297.466614 288.86339 
L 297.811166 289.042015 
L 298.155718 288.776822 
L 298.500271 287.586395 
L 298.844823 284.753233 
L 299.189376 284.753233 
L 299.533928 280.852078 
L 300.567586 274.071881 
L 301.601243 264.106796 
L 302.290348 260.529464 
L 302.979453 257.482452 
L 303.324006 257.482452 
L 303.668558 258.235469 
L 304.013111 259.272871 
L 304.702216 262.426653 
L 305.046768 265.484703 
L 305.391321 270.082892 
L 306.424978 277.338034 
L 307.114083 285.014642 
L 307.458636 285.014642 
L 307.803188 288.249938 
L 308.492293 290.190717 
L 308.836846 290.550036 
L 309.181398 290.2551 
L 310.904161 281.059434 
L 311.248713 275.394049 
L 311.593266 275.394049 
L 311.937818 270.800425 
L 313.316028 261.512884 
L 313.66058 261.512884 
L 314.005133 259.920884 
L 314.349685 260.022815 
L 314.694238 260.525015 
L 315.03879 261.411653 
L 315.383343 264.178596 
L 315.727895 264.178596 
L 316.072448 270.013412 
L 316.417 271.091425 
L 317.106105 275.504444 
L 317.450658 279.762056 
L 317.79521 281.734011 
L 318.484315 286.544267 
L 318.828868 287.15478 
L 319.517973 289.132349 
L 319.862525 289.047365 
L 320.207078 288.57223 
L 320.55163 287.175572 
L 320.896183 284.234072 
L 321.240735 284.234072 
L 321.585288 280.484326 
L 322.274393 276.263422 
L 323.30805 266.939429 
L 323.997155 263.842439 
L 324.68626 261.884416 
L 325.030813 262.190774 
L 325.375365 262.945204 
L 326.06447 265.456417 
L 326.409023 267.091788 
L 326.753575 269.879983 
L 327.098127 273.930245 
L 328.476337 282.862669 
L 329.165442 286.923196 
L 329.509995 286.923196 
L 329.854547 288.30112 
L 330.1991 288.533255 
L 330.543652 288.204919 
L 330.888205 287.064218 
L 331.232757 285.170668 
L 331.57731 285.170668 
L 331.921862 281.738458 
L 332.610967 277.671606 
L 333.644625 268.297967 
L 334.33373 264.970018 
L 335.022835 262.828348 
L 335.367387 262.250531 
L 336.056492 263.891079 
L 336.745597 266.690669 
L 337.09015 268.429196 
L 337.434702 273.387778 
L 337.779255 273.387778 
L 338.123807 277.571479 
L 339.84657 287.643255 
L 340.191122 288.261469 
L 340.535675 288.318418 
L 340.880227 288.203978 
L 341.224779 287.764222 
L 341.569332 285.915963 
L 341.913884 285.915963 
L 342.258437 281.063601 
L 342.602989 280.086156 
L 343.292094 275.932785 
L 343.636647 270.667325 
L 343.981199 270.667325 
L 344.325752 266.960111 
L 345.014857 264.196579 
L 345.359409 263.320462 
L 345.703962 262.965883 
L 346.048514 262.965883 
L 347.771277 271.124982 
L 348.115829 274.193442 
L 348.460382 278.393828 
L 349.494039 284.393844 
L 349.838592 287.805732 
L 350.183144 287.805732 
L 350.527697 290.533272 
L 350.872249 290.616165 
L 351.216802 290.455229 
L 351.561354 289.864963 
L 352.595012 282.910039 
L 352.939564 279.617934 
L 353.284117 278.474294 
L 353.628669 276.154342 
L 353.973222 271.555501 
L 354.317774 269.357654 
L 355.006879 263.772885 
L 355.351432 261.823556 
L 355.695984 261.823556 
L 356.040536 260.591303 
L 356.385089 260.618236 
L 356.729641 261.083024 
L 357.074194 262.53157 
L 357.418746 265.61139 
L 358.452404 271.67873 
L 358.796956 273.885497 
L 359.486061 281.428809 
L 359.830614 281.428809 
L 360.175166 285.317888 
L 360.864271 288.571303 
L 361.553376 290.705404 
L 361.897929 290.352274 
L 362.242481 289.507259 
L 362.931586 286.715085 
L 363.276139 284.893261 
L 363.620691 281.801006 
L 363.965244 277.323353 
L 365.343454 267.455704 
L 365.688006 263.967853 
L 366.032559 263.967853 
L 366.377111 261.697711 
L 366.721664 261.118322 
L 367.066216 260.933192 
L 367.410769 261.427142 
L 367.755321 263.428162 
L 368.099874 263.428162 
L 368.444426 266.639922 
L 369.133531 270.559854 
L 369.478084 273.761247 
L 369.822636 278.070249 
L 370.167189 278.070249 
L 370.511741 282.280919 
L 371.545398 288.710771 
L 371.889951 291.073833 
L 372.234503 291.073833 
L 372.579056 292.037094 
L 372.923608 291.957811 
L 373.268161 291.487788 
L 373.612713 290.075332 
L 373.957266 287.016993 
L 374.301818 287.016993 
L 374.646371 282.998175 
L 375.680028 276.177845 
L 376.713686 266.935754 
L 377.402791 264.117837 
L 378.091896 262.565389 
L 378.436448 263.205843 
L 378.781001 264.114349 
L 379.470106 266.825702 
L 379.814658 268.493174 
L 380.159211 271.250062 
L 380.503763 275.100798 
L 382.226526 285.263697 
L 382.571078 288.165532 
L 383.260183 290.189208 
L 383.604736 290.808895 
L 383.949288 291.105916 
L 384.293841 291.050464 
L 384.638393 290.299349 
L 385.327498 286.632603 
L 386.016603 283.044316 
L 386.361155 280.038249 
L 386.705708 275.945203 
L 387.739365 270.314341 
L 388.42847 266.659801 
L 388.773023 264.855856 
L 389.117575 264.386737 
L 389.462128 264.201877 
L 389.80668 264.290661 
L 390.151233 264.64664 
L 390.495785 265.656661 
L 390.840338 267.808032 
L 391.873995 272.046353 
L 392.218548 273.584982 
L 392.5631 277.35951 
L 392.907653 277.35951 
L 393.252205 280.174188 
L 394.285863 283.660129 
L 394.974968 285.212993 
L 395.31952 285.371497 
L 395.664073 285.134981 
L 396.353178 284.218644 
L 396.69773 282.960492 
L 397.042283 282.960492 
L 397.386835 281.019731 
L 397.731388 280.725679 
L 398.765045 279.045168 
L 399.109598 279.045168 
L 399.45415 278.596959 
L 401.176912 278.390106 
L 402.21057 277.842898 
L 402.555122 277.592137 
L 402.899675 276.955502 
L 403.244227 276.955502 
L 403.58878 275.660131 
L 403.933332 275.40261 
L 404.622437 274.244395 
L 404.96699 272.849306 
L 405.311542 272.849306 
L 405.656095 270.3994 
L 406.000647 269.971752 
L 406.689752 268.341239 
L 407.034305 267.117869 
L 407.378857 267.117869 
L 407.72341 266.75517 
L 408.067962 266.898735 
L 408.412515 267.347132 
L 409.10162 268.801253 
L 409.446172 270.219074 
L 409.790725 272.378952 
L 410.47983 274.611724 
L 411.168935 278.130783 
L 411.513487 278.130783 
L 411.85804 279.306349 
L 412.202592 279.513168 
L 412.547145 279.433843 
L 412.891697 278.773445 
L 413.23625 276.957711 
L 413.580802 276.957711 
L 413.925354 274.372019 
L 415.303564 268.119121 
L 415.648117 266.282026 
L 415.992669 265.747194 
L 416.337222 265.49322 
L 416.681774 265.515025 
L 417.026327 265.804618 
L 417.370879 267.624033 
L 417.715432 267.624033 
L 418.059984 269.993342 
L 419.093642 274.442575 
L 419.438194 278.456729 
L 419.782747 278.456729 
L 420.127299 281.528368 
L 421.505509 287.521385 
L 421.850062 287.521385 
L 422.194614 288.262265 
L 422.539167 288.300122 
L 422.883719 288.137232 
L 423.228272 287.802688 
L 423.572824 286.448136 
L 423.917377 286.448136 
L 424.261929 285.306542 
L 424.951034 284.478646 
L 425.640139 284.085455 
L 425.984692 284.065235 
L 426.673797 284.257276 
L 427.362902 284.254166 
L 427.707454 284.167203 
L 428.052007 283.942478 
L 428.396559 283.517714 
L 429.430216 282.737193 
L 429.774769 282.010394 
L 430.119321 282.010394 
L 430.463874 281.537965 
L 431.842084 280.858475 
L 432.186636 280.395003 
L 432.186636 280.395003 
" clip-path="url(#p0004af95fb)" style="fill: none; stroke: #008000; stroke-width: 1.5; stroke-linecap: square"/>
   </g>
   <g id="patch_13">
    <path d="M 58.106 301.9975 
L 58.106 251.52 
" style="fill: none; stroke: #000000; stroke-width: 0.8; stroke-linejoin: miter; stroke-linecap: square"/>
   </g>
   <g id="patch_14">
    <path d="M 450 301.9975 
L 450 251.52 
" style="fill: none; stroke: #000000; stroke-width: 0.8; stroke-linejoin: miter; stroke-linecap: square"/>
   </g>
   <g id="patch_15">
    <path d="M 58.106 301.9975 
L 450 301.9975 
" style="fill: none; stroke: #000000; stroke-width: 0.8; stroke-linejoin: miter; stroke-linecap: square"/>
   </g>
   <g id="patch_16">
    <path d="M 58.106 251.52 
L 450 251.52 
" style="fill: none; stroke: #000000; stroke-width: 0.8; stroke-linejoin: miter; stroke-linecap: square"/>
   </g>
   <g id="text_35">
    <!-- Error in swing angle -->
    <g transform="translate(194.282688 245.52)scale(0.12 -0.12)">
     <defs>
      <path id="DejaVuSans-77" d="M 269 3500 
L 844 3500 
L 1563 769 
L 2278 3500 
L 2956 3500 
L 3675 769 
L 4391 3500 
L 4966 3500 
L 4050 0 
L 3372 0 
L 2619 2869 
L 1863 0 
L 1184 0 
L 269 3500 
z
" transform="scale(0.015625)"/>
      <path id="DejaVuSans-67" d="M 2906 1791 
Q 2906 2416 2648 2759 
Q 2391 3103 1925 3103 
Q 1463 3103 1205 2759 
Q 947 2416 947 1791 
Q 947 1169 1205 825 
Q 1463 481 1925 481 
Q 2391 481 2648 825 
Q 2906 1169 2906 1791 
z
M 3481 434 
Q 3481 -459 3084 -895 
Q 2688 -1331 1869 -1331 
Q 1566 -1331 1297 -1286 
Q 1028 -1241 775 -1147 
L 775 -588 
Q 1028 -725 1275 -790 
Q 1522 -856 1778 -856 
Q 2344 -856 2625 -561 
Q 2906 -266 2906 331 
L 2906 616 
Q 2728 306 2450 153 
Q 2172 0 1784 0 
Q 1141 0 747 490 
Q 353 981 353 1791 
Q 353 2603 747 3093 
Q 1141 3584 1784 3584 
Q 2172 3584 2450 3431 
Q 2728 3278 2906 2969 
L 2906 3500 
L 3481 3500 
L 3481 434 
z
" transform="scale(0.015625)"/>
      <path id="DejaVuSans-6c" d="M 603 4863 
L 1178 4863 
L 1178 0 
L 603 0 
L 603 4863 
z
" transform="scale(0.015625)"/>
      <path id="DejaVuSans-65" d="M 3597 1894 
L 3597 1613 
L 953 1613 
Q 991 1019 1311 708 
Q 1631 397 2203 397 
Q 2534 397 2845 478 
Q 3156 559 3463 722 
L 3463 178 
Q 3153 47 2828 -22 
Q 2503 -91 2169 -91 
Q 1331 -91 842 396 
Q 353 884 353 1716 
Q 353 2575 817 3079 
Q 1281 3584 2069 3584 
Q 2775 3584 3186 3129 
Q 3597 2675 3597 1894 
z
M 3022 2063 
Q 3016 2534 2758 2815 
Q 2500 3097 2075 3097 
Q 1594 3097 1305 2825 
Q 1016 2553 972 2059 
L 3022 2063 
z
" transform="scale(0.015625)"/>
     </defs>
     <use xlink:href="#DejaVuSans-45"/>
     <use xlink:href="#DejaVuSans-72" x="63.183594"/>
     <use xlink:href="#DejaVuSans-72" x="102.546875"/>
     <use xlink:href="#DejaVuSans-6f" x="141.410156"/>
     <use xlink:href="#DejaVuSans-72" x="202.591797"/>
     <use xlink:href="#DejaVuSans-20" x="243.705078"/>
     <use xlink:href="#DejaVuSans-69" x="275.492188"/>
     <use xlink:href="#DejaVuSans-6e" x="303.275391"/>
     <use xlink:href="#DejaVuSans-20" x="366.654297"/>
     <use xlink:href="#DejaVuSans-73" x="398.441406"/>
     <use xlink:href="#DejaVuSans-77" x="450.541016"/>
     <use xlink:href="#DejaVuSans-69" x="532.328125"/>
     <use xlink:href="#DejaVuSans-6e" x="560.111328"/>
     <use xlink:href="#DejaVuSans-67" x="623.490234"/>
     <use xlink:href="#DejaVuSans-20" x="686.966797"/>
     <use xlink:href="#DejaVuSans-61" x="718.753906"/>
     <use xlink:href="#DejaVuSans-6e" x="780.033203"/>
     <use xlink:href="#DejaVuSans-67" x="843.412109"/>
     <use xlink:href="#DejaVuSans-6c" x="906.888672"/>
     <use xlink:href="#DejaVuSans-65" x="934.671875"/>
    </g>
   </g>
  </g>
 </g>
 <defs>
  <clipPath id="pf21b7d372e">
   <rect x="58.106" y="28.32" width="391.894" height="50.4775"/>
  </clipPath>
  <clipPath id="p557f86b724">
   <rect x="58.106" y="139.92" width="391.894" height="50.4775"/>
  </clipPath>
  <clipPath id="p0004af95fb">
   <rect x="58.106" y="251.52" width="391.894" height="50.4775"/>
  </clipPath>
 </defs>
</svg>
