<?xml version="1.0" encoding="utf-8" standalone="no"?>
<!DOCTYPE svg PUBLIC "-//W3C//DTD SVG 1.1//EN"
  "http://www.w3.org/Graphics/SVG/1.1/DTD/svg11.dtd">
<svg xmlns:xlink="http://www.w3.org/1999/xlink" width="460.8pt" height="345.6pt" viewBox="0 0 460.8 345.6" xmlns="http://www.w3.org/2000/svg" version="1.1">
 <metadata>
  <rdf:RDF xmlns:dc="http://purl.org/dc/elements/1.1/" xmlns:cc="http://creativecommons.org/ns#" xmlns:rdf="http://www.w3.org/1999/02/22-rdf-syntax-ns#">
   <cc:Work>
    <dc:type rdf:resource="http://purl.org/dc/dcmitype/StillImage"/>
    <dc:date>2022-06-05T18:02:43.606660</dc:date>
    <dc:format>image/svg+xml</dc:format>
    <dc:creator>
     <cc:Agent>
      <dc:title>Matplotlib v3.5.1, https://matplotlib.org/</dc:title>
     </cc:Agent>
    </dc:creator>
   </cc:Work>
  </rdf:RDF>
 </metadata>
 <defs>
  <style type="text/css">*{stroke-linejoin: round; stroke-linecap: butt}</style>
 </defs>
 <g id="figure_1">
  <g id="patch_1">
   <path d="M 0 345.6 
L 460.8 345.6 
L 460.8 0 
L 0 0 
z
" style="fill: #ffffff"/>
  </g>
  <g id="axes_1">
   <g id="patch_2">
    <path d="M 70.616 78.7975 
L 450 78.7975 
L 450 28.32 
L 70.616 28.32 
z
" style="fill: #ffffff"/>
   </g>
   <g id="matplotlib.axis_1">
    <g id="xtick_1">
     <g id="line2d_1">
      <path d="M 87.860727 78.7975 
L 87.860727 28.32 
" clip-path="url(#p3f5f0fcd0d)" style="fill: none; stroke: #b0b0b0; stroke-width: 0.8; stroke-linecap: square"/>
     </g>
     <g id="line2d_2">
      <defs>
       <path id="m305cae5d9b" d="M 0 0 
L 0 3.5 
" style="stroke: #000000; stroke-width: 0.8"/>
      </defs>
      <g>
       <use xlink:href="#m305cae5d9b" x="87.860727" y="78.7975" style="stroke: #000000; stroke-width: 0.8"/>
      </g>
     </g>
     <g id="text_1">
      <!-- 0 -->
      <g transform="translate(84.679477 93.395937)scale(0.1 -0.1)">
       <defs>
        <path id="DejaVuSans-30" d="M 2034 4250 
Q 1547 4250 1301 3770 
Q 1056 3291 1056 2328 
Q 1056 1369 1301 889 
Q 1547 409 2034 409 
Q 2525 409 2770 889 
Q 3016 1369 3016 2328 
Q 3016 3291 2770 3770 
Q 2525 4250 2034 4250 
z
M 2034 4750 
Q 2819 4750 3233 4129 
Q 3647 3509 3647 2328 
Q 3647 1150 3233 529 
Q 2819 -91 2034 -91 
Q 1250 -91 836 529 
Q 422 1150 422 2328 
Q 422 3509 836 4129 
Q 1250 4750 2034 4750 
z
" transform="scale(0.015625)"/>
       </defs>
       <use xlink:href="#DejaVuSans-30"/>
      </g>
     </g>
    </g>
    <g id="xtick_2">
     <g id="line2d_3">
      <path d="M 138.506035 78.7975 
L 138.506035 28.32 
" clip-path="url(#p3f5f0fcd0d)" style="fill: none; stroke: #b0b0b0; stroke-width: 0.8; stroke-linecap: square"/>
     </g>
     <g id="line2d_4">
      <g>
       <use xlink:href="#m305cae5d9b" x="138.506035" y="78.7975" style="stroke: #000000; stroke-width: 0.8"/>
      </g>
     </g>
     <g id="text_2">
      <!-- 1 -->
      <g transform="translate(135.324785 93.395937)scale(0.1 -0.1)">
       <defs>
        <path id="DejaVuSans-31" d="M 794 531 
L 1825 531 
L 1825 4091 
L 703 3866 
L 703 4441 
L 1819 4666 
L 2450 4666 
L 2450 531 
L 3481 531 
L 3481 0 
L 794 0 
L 794 531 
z
" transform="scale(0.015625)"/>
       </defs>
       <use xlink:href="#DejaVuSans-31"/>
      </g>
     </g>
    </g>
    <g id="xtick_3">
     <g id="line2d_5">
      <path d="M 189.151343 78.7975 
L 189.151343 28.32 
" clip-path="url(#p3f5f0fcd0d)" style="fill: none; stroke: #b0b0b0; stroke-width: 0.8; stroke-linecap: square"/>
     </g>
     <g id="line2d_6">
      <g>
       <use xlink:href="#m305cae5d9b" x="189.151343" y="78.7975" style="stroke: #000000; stroke-width: 0.8"/>
      </g>
     </g>
     <g id="text_3">
      <!-- 2 -->
      <g transform="translate(185.970093 93.395937)scale(0.1 -0.1)">
       <defs>
        <path id="DejaVuSans-32" d="M 1228 531 
L 3431 531 
L 3431 0 
L 469 0 
L 469 531 
Q 828 903 1448 1529 
Q 2069 2156 2228 2338 
Q 2531 2678 2651 2914 
Q 2772 3150 2772 3378 
Q 2772 3750 2511 3984 
Q 2250 4219 1831 4219 
Q 1534 4219 1204 4116 
Q 875 4013 500 3803 
L 500 4441 
Q 881 4594 1212 4672 
Q 1544 4750 1819 4750 
Q 2544 4750 2975 4387 
Q 3406 4025 3406 3419 
Q 3406 3131 3298 2873 
Q 3191 2616 2906 2266 
Q 2828 2175 2409 1742 
Q 1991 1309 1228 531 
z
" transform="scale(0.015625)"/>
       </defs>
       <use xlink:href="#DejaVuSans-32"/>
      </g>
     </g>
    </g>
    <g id="xtick_4">
     <g id="line2d_7">
      <path d="M 239.79665 78.7975 
L 239.79665 28.32 
" clip-path="url(#p3f5f0fcd0d)" style="fill: none; stroke: #b0b0b0; stroke-width: 0.8; stroke-linecap: square"/>
     </g>
     <g id="line2d_8">
      <g>
       <use xlink:href="#m305cae5d9b" x="239.79665" y="78.7975" style="stroke: #000000; stroke-width: 0.8"/>
      </g>
     </g>
     <g id="text_4">
      <!-- 3 -->
      <g transform="translate(236.6154 93.395937)scale(0.1 -0.1)">
       <defs>
        <path id="DejaVuSans-33" d="M 2597 2516 
Q 3050 2419 3304 2112 
Q 3559 1806 3559 1356 
Q 3559 666 3084 287 
Q 2609 -91 1734 -91 
Q 1441 -91 1130 -33 
Q 819 25 488 141 
L 488 750 
Q 750 597 1062 519 
Q 1375 441 1716 441 
Q 2309 441 2620 675 
Q 2931 909 2931 1356 
Q 2931 1769 2642 2001 
Q 2353 2234 1838 2234 
L 1294 2234 
L 1294 2753 
L 1863 2753 
Q 2328 2753 2575 2939 
Q 2822 3125 2822 3475 
Q 2822 3834 2567 4026 
Q 2313 4219 1838 4219 
Q 1578 4219 1281 4162 
Q 984 4106 628 3988 
L 628 4550 
Q 988 4650 1302 4700 
Q 1616 4750 1894 4750 
Q 2613 4750 3031 4423 
Q 3450 4097 3450 3541 
Q 3450 3153 3228 2886 
Q 3006 2619 2597 2516 
z
" transform="scale(0.015625)"/>
       </defs>
       <use xlink:href="#DejaVuSans-33"/>
      </g>
     </g>
    </g>
    <g id="xtick_5">
     <g id="line2d_9">
      <path d="M 290.441958 78.7975 
L 290.441958 28.32 
" clip-path="url(#p3f5f0fcd0d)" style="fill: none; stroke: #b0b0b0; stroke-width: 0.8; stroke-linecap: square"/>
     </g>
     <g id="line2d_10">
      <g>
       <use xlink:href="#m305cae5d9b" x="290.441958" y="78.7975" style="stroke: #000000; stroke-width: 0.8"/>
      </g>
     </g>
     <g id="text_5">
      <!-- 4 -->
      <g transform="translate(287.260708 93.395937)scale(0.1 -0.1)">
       <defs>
        <path id="DejaVuSans-34" d="M 2419 4116 
L 825 1625 
L 2419 1625 
L 2419 4116 
z
M 2253 4666 
L 3047 4666 
L 3047 1625 
L 3713 1625 
L 3713 1100 
L 3047 1100 
L 3047 0 
L 2419 0 
L 2419 1100 
L 313 1100 
L 313 1709 
L 2253 4666 
z
" transform="scale(0.015625)"/>
       </defs>
       <use xlink:href="#DejaVuSans-34"/>
      </g>
     </g>
    </g>
    <g id="xtick_6">
     <g id="line2d_11">
      <path d="M 341.087266 78.7975 
L 341.087266 28.32 
" clip-path="url(#p3f5f0fcd0d)" style="fill: none; stroke: #b0b0b0; stroke-width: 0.8; stroke-linecap: square"/>
     </g>
     <g id="line2d_12">
      <g>
       <use xlink:href="#m305cae5d9b" x="341.087266" y="78.7975" style="stroke: #000000; stroke-width: 0.8"/>
      </g>
     </g>
     <g id="text_6">
      <!-- 5 -->
      <g transform="translate(337.906016 93.395937)scale(0.1 -0.1)">
       <defs>
        <path id="DejaVuSans-35" d="M 691 4666 
L 3169 4666 
L 3169 4134 
L 1269 4134 
L 1269 2991 
Q 1406 3038 1543 3061 
Q 1681 3084 1819 3084 
Q 2600 3084 3056 2656 
Q 3513 2228 3513 1497 
Q 3513 744 3044 326 
Q 2575 -91 1722 -91 
Q 1428 -91 1123 -41 
Q 819 9 494 109 
L 494 744 
Q 775 591 1075 516 
Q 1375 441 1709 441 
Q 2250 441 2565 725 
Q 2881 1009 2881 1497 
Q 2881 1984 2565 2268 
Q 2250 2553 1709 2553 
Q 1456 2553 1204 2497 
Q 953 2441 691 2322 
L 691 4666 
z
" transform="scale(0.015625)"/>
       </defs>
       <use xlink:href="#DejaVuSans-35"/>
      </g>
     </g>
    </g>
    <g id="xtick_7">
     <g id="line2d_13">
      <path d="M 391.732573 78.7975 
L 391.732573 28.32 
" clip-path="url(#p3f5f0fcd0d)" style="fill: none; stroke: #b0b0b0; stroke-width: 0.8; stroke-linecap: square"/>
     </g>
     <g id="line2d_14">
      <g>
       <use xlink:href="#m305cae5d9b" x="391.732573" y="78.7975" style="stroke: #000000; stroke-width: 0.8"/>
      </g>
     </g>
     <g id="text_7">
      <!-- 6 -->
      <g transform="translate(388.551323 93.395937)scale(0.1 -0.1)">
       <defs>
        <path id="DejaVuSans-36" d="M 2113 2584 
Q 1688 2584 1439 2293 
Q 1191 2003 1191 1497 
Q 1191 994 1439 701 
Q 1688 409 2113 409 
Q 2538 409 2786 701 
Q 3034 994 3034 1497 
Q 3034 2003 2786 2293 
Q 2538 2584 2113 2584 
z
M 3366 4563 
L 3366 3988 
Q 3128 4100 2886 4159 
Q 2644 4219 2406 4219 
Q 1781 4219 1451 3797 
Q 1122 3375 1075 2522 
Q 1259 2794 1537 2939 
Q 1816 3084 2150 3084 
Q 2853 3084 3261 2657 
Q 3669 2231 3669 1497 
Q 3669 778 3244 343 
Q 2819 -91 2113 -91 
Q 1303 -91 875 529 
Q 447 1150 447 2328 
Q 447 3434 972 4092 
Q 1497 4750 2381 4750 
Q 2619 4750 2861 4703 
Q 3103 4656 3366 4563 
z
" transform="scale(0.015625)"/>
       </defs>
       <use xlink:href="#DejaVuSans-36"/>
      </g>
     </g>
    </g>
    <g id="xtick_8">
     <g id="line2d_15">
      <path d="M 442.377881 78.7975 
L 442.377881 28.32 
" clip-path="url(#p3f5f0fcd0d)" style="fill: none; stroke: #b0b0b0; stroke-width: 0.8; stroke-linecap: square"/>
     </g>
     <g id="line2d_16">
      <g>
       <use xlink:href="#m305cae5d9b" x="442.377881" y="78.7975" style="stroke: #000000; stroke-width: 0.8"/>
      </g>
     </g>
     <g id="text_8">
      <!-- 7 -->
      <g transform="translate(439.196631 93.395937)scale(0.1 -0.1)">
       <defs>
        <path id="DejaVuSans-37" d="M 525 4666 
L 3525 4666 
L 3525 4397 
L 1831 0 
L 1172 0 
L 2766 4134 
L 525 4134 
L 525 4666 
z
" transform="scale(0.015625)"/>
       </defs>
       <use xlink:href="#DejaVuSans-37"/>
      </g>
     </g>
    </g>
    <g id="text_9">
     <!-- $t$ [s] -->
     <g transform="translate(250.208 107.074062)scale(0.1 -0.1)">
      <defs>
       <path id="DejaVuSans-Oblique-74" d="M 2706 3500 
L 2619 3053 
L 1472 3053 
L 1100 1153 
Q 1081 1047 1072 975 
Q 1063 903 1063 863 
Q 1063 663 1183 572 
Q 1303 481 1569 481 
L 2150 481 
L 2053 0 
L 1503 0 
Q 991 0 739 200 
Q 488 400 488 806 
Q 488 878 497 964 
Q 506 1050 525 1153 
L 897 3053 
L 409 3053 
L 500 3500 
L 978 3500 
L 1172 4494 
L 1747 4494 
L 1556 3500 
L 2706 3500 
z
" transform="scale(0.015625)"/>
       <path id="DejaVuSans-20" transform="scale(0.015625)"/>
       <path id="DejaVuSans-5b" d="M 550 4863 
L 1875 4863 
L 1875 4416 
L 1125 4416 
L 1125 -397 
L 1875 -397 
L 1875 -844 
L 550 -844 
L 550 4863 
z
" transform="scale(0.015625)"/>
       <path id="DejaVuSans-73" d="M 2834 3397 
L 2834 2853 
Q 2591 2978 2328 3040 
Q 2066 3103 1784 3103 
Q 1356 3103 1142 2972 
Q 928 2841 928 2578 
Q 928 2378 1081 2264 
Q 1234 2150 1697 2047 
L 1894 2003 
Q 2506 1872 2764 1633 
Q 3022 1394 3022 966 
Q 3022 478 2636 193 
Q 2250 -91 1575 -91 
Q 1294 -91 989 -36 
Q 684 19 347 128 
L 347 722 
Q 666 556 975 473 
Q 1284 391 1588 391 
Q 1994 391 2212 530 
Q 2431 669 2431 922 
Q 2431 1156 2273 1281 
Q 2116 1406 1581 1522 
L 1381 1569 
Q 847 1681 609 1914 
Q 372 2147 372 2553 
Q 372 3047 722 3315 
Q 1072 3584 1716 3584 
Q 2034 3584 2315 3537 
Q 2597 3491 2834 3397 
z
" transform="scale(0.015625)"/>
       <path id="DejaVuSans-5d" d="M 1947 4863 
L 1947 -844 
L 622 -844 
L 622 -397 
L 1369 -397 
L 1369 4416 
L 622 4416 
L 622 4863 
L 1947 4863 
z
" transform="scale(0.015625)"/>
      </defs>
      <use xlink:href="#DejaVuSans-Oblique-74" transform="translate(0 0.015625)"/>
      <use xlink:href="#DejaVuSans-20" transform="translate(39.208984 0.015625)"/>
      <use xlink:href="#DejaVuSans-5b" transform="translate(70.996094 0.015625)"/>
      <use xlink:href="#DejaVuSans-73" transform="translate(110.009766 0.015625)"/>
      <use xlink:href="#DejaVuSans-5d" transform="translate(162.109375 0.015625)"/>
     </g>
    </g>
   </g>
   <g id="matplotlib.axis_2">
    <g id="ytick_1">
     <g id="line2d_17">
      <path d="M 70.616 70.113958 
L 450 70.113958 
" clip-path="url(#p3f5f0fcd0d)" style="fill: none; stroke: #b0b0b0; stroke-width: 0.8; stroke-linecap: square"/>
     </g>
     <g id="line2d_18">
      <defs>
       <path id="mbee622a7d7" d="M 0 0 
L -3.5 0 
" style="stroke: #000000; stroke-width: 0.8"/>
      </defs>
      <g>
       <use xlink:href="#mbee622a7d7" x="70.616" y="70.113958" style="stroke: #000000; stroke-width: 0.8"/>
      </g>
     </g>
     <g id="text_10">
      <!-- 0 -->
      <g transform="translate(57.2535 73.913176)scale(0.1 -0.1)">
       <use xlink:href="#DejaVuSans-30"/>
      </g>
     </g>
    </g>
    <g id="ytick_2">
     <g id="line2d_19">
      <path d="M 70.616 30.614447 
L 450 30.614447 
" clip-path="url(#p3f5f0fcd0d)" style="fill: none; stroke: #b0b0b0; stroke-width: 0.8; stroke-linecap: square"/>
     </g>
     <g id="line2d_20">
      <g>
       <use xlink:href="#mbee622a7d7" x="70.616" y="30.614447" style="stroke: #000000; stroke-width: 0.8"/>
      </g>
     </g>
     <g id="text_11">
      <!-- 10 -->
      <g transform="translate(50.891 34.413666)scale(0.1 -0.1)">
       <use xlink:href="#DejaVuSans-31"/>
       <use xlink:href="#DejaVuSans-30" x="63.623047"/>
      </g>
     </g>
    </g>
    <g id="text_12">
     <!-- $e_x$ [m] -->
     <g transform="translate(44.811312 69.20875)rotate(-90)scale(0.1 -0.1)">
      <defs>
       <path id="DejaVuSans-Oblique-65" d="M 3078 2063 
Q 3088 2113 3092 2166 
Q 3097 2219 3097 2272 
Q 3097 2653 2873 2875 
Q 2650 3097 2266 3097 
Q 1838 3097 1509 2826 
Q 1181 2556 1013 2059 
L 3078 2063 
z
M 3578 1613 
L 903 1613 
Q 884 1494 878 1425 
Q 872 1356 872 1306 
Q 872 872 1139 634 
Q 1406 397 1894 397 
Q 2269 397 2603 481 
Q 2938 566 3225 728 
L 3116 159 
Q 2806 34 2476 -28 
Q 2147 -91 1806 -91 
Q 1078 -91 686 257 
Q 294 606 294 1247 
Q 294 1794 489 2264 
Q 684 2734 1063 3103 
Q 1306 3334 1642 3459 
Q 1978 3584 2356 3584 
Q 2950 3584 3301 3228 
Q 3653 2872 3653 2272 
Q 3653 2128 3634 1964 
Q 3616 1800 3578 1613 
z
" transform="scale(0.015625)"/>
       <path id="DejaVuSans-Oblique-78" d="M 3841 3500 
L 2234 1784 
L 3219 0 
L 2559 0 
L 1819 1388 
L 531 0 
L -166 0 
L 1556 1844 
L 641 3500 
L 1300 3500 
L 1972 2234 
L 3144 3500 
L 3841 3500 
z
" transform="scale(0.015625)"/>
       <path id="DejaVuSans-6d" d="M 3328 2828 
Q 3544 3216 3844 3400 
Q 4144 3584 4550 3584 
Q 5097 3584 5394 3201 
Q 5691 2819 5691 2113 
L 5691 0 
L 5113 0 
L 5113 2094 
Q 5113 2597 4934 2840 
Q 4756 3084 4391 3084 
Q 3944 3084 3684 2787 
Q 3425 2491 3425 1978 
L 3425 0 
L 2847 0 
L 2847 2094 
Q 2847 2600 2669 2842 
Q 2491 3084 2119 3084 
Q 1678 3084 1418 2786 
Q 1159 2488 1159 1978 
L 1159 0 
L 581 0 
L 581 3500 
L 1159 3500 
L 1159 2956 
Q 1356 3278 1631 3431 
Q 1906 3584 2284 3584 
Q 2666 3584 2933 3390 
Q 3200 3197 3328 2828 
z
" transform="scale(0.015625)"/>
      </defs>
      <use xlink:href="#DejaVuSans-Oblique-65" transform="translate(0 0.015625)"/>
      <use xlink:href="#DejaVuSans-Oblique-78" transform="translate(61.523438 -16.390625)scale(0.7)"/>
      <use xlink:href="#DejaVuSans-20" transform="translate(105.683594 0.015625)"/>
      <use xlink:href="#DejaVuSans-5b" transform="translate(137.470703 0.015625)"/>
      <use xlink:href="#DejaVuSans-6d" transform="translate(176.484375 0.015625)"/>
      <use xlink:href="#DejaVuSans-5d" transform="translate(273.896484 0.015625)"/>
     </g>
    </g>
   </g>
   <g id="line2d_21">
    <path d="M 87.860727 30.614447 
L 100.033476 30.707751 
L 112.206225 31.319224 
L 114.742214 31.531229 
L 118.292599 31.847872 
L 119.814193 32.011555 
L 123.871775 32.435553 
L 141.623701 35.003675 
L 142.130898 35.141057 
L 142.638096 35.141057 
L 144.15969 35.457474 
L 145.681283 35.674131 
L 146.695679 35.858223 
L 147.710075 36.083439 
L 149.738866 36.391128 
L 150.246064 36.627509 
L 151.767658 36.828209 
L 152.274856 36.991217 
L 152.782053 36.991217 
L 153.289251 37.239833 
L 154.810845 37.450799 
L 155.318043 37.62206 
L 155.825241 37.62206 
L 156.332439 37.883115 
L 157.854032 38.10448 
L 159.375626 38.55766 
L 160.897219 38.789469 
L 161.404417 39.024756 
L 161.911615 39.024756 
L 162.926011 39.311667 
L 163.940406 39.505702 
L 164.447604 39.751327 
L 164.954802 39.751327 
L 165.969198 40.050569 
L 166.983594 40.252763 
L 167.490791 40.508517 
L 167.997989 40.508517 
L 169.012385 40.819791 
L 170.533979 41.188884 
L 171.548374 41.510255 
L 173.069968 41.890923 
L 173.577166 42.111173 
L 174.084364 42.111173 
L 175.098759 42.445194 
L 176.113155 42.726831 
L 176.620353 42.954254 
L 177.127551 42.954254 
L 178.141947 43.298834 
L 179.66354 43.705968 
L 180.170738 43.823286 
L 180.677936 44.059219 
L 181.185134 44.059219 
L 181.692332 44.416316 
L 182.706727 44.596279 
L 184.228321 45.019778 
L 185.242717 45.386685 
L 186.257112 45.63325 
L 186.76431 45.881352 
L 187.271508 45.881352 
L 187.778706 46.25634 
L 188.793102 46.445086 
L 189.300299 46.571375 
L 190.821893 47.20822 
L 191.836289 47.401001 
L 192.343487 47.529955 
L 193.357882 47.983999 
L 193.86508 48.179866 
L 194.879476 48.376487 
L 195.386674 48.507984 
L 196.40107 48.970835 
L 196.908267 49.170433 
L 197.922663 49.370766 
L 198.429861 49.504731 
L 199.444257 49.976163 
L 199.951455 50.179423 
L 200.96585 50.383412 
L 201.473048 50.519812 
L 201.980246 50.793586 
L 202.487444 50.793586 
L 202.994642 51.206694 
L 204.009037 51.414355 
L 204.516235 51.553206 
L 205.023433 51.901784 
L 205.530631 51.901784 
L 206.037829 52.182146 
L 207.559422 52.605214 
L 208.573818 53.10267 
L 209.081016 53.31716 
L 210.095412 53.532432 
L 210.60261 53.676385 
L 211.109807 53.965351 
L 211.617005 53.965351 
L 212.124203 54.401475 
L 213.138599 54.620749 
L 213.645797 54.767385 
L 214.152995 55.061751 
L 214.660193 55.061751 
L 215.16739 55.506052 
L 216.181786 55.729451 
L 216.688984 55.878848 
L 217.196182 56.253973 
L 217.70338 56.253973 
L 218.210578 56.555759 
L 219.732171 57.011259 
L 220.239369 57.393437 
L 220.746567 57.393437 
L 221.253765 57.70088 
L 222.775358 58.164885 
L 223.789754 58.710531 
L 224.296952 58.945797 
L 225.311348 59.181914 
L 225.818545 59.339798 
L 226.832941 59.895374 
L 227.340139 60.134876 
L 228.354535 60.375167 
L 228.861733 60.535778 
L 229.36893 60.85791 
L 230.383326 61.262023 
L 230.890524 61.505069 
L 231.90492 61.74839 
L 232.412118 62.073004 
L 233.426513 62.478556 
L 234.440909 62.963873 
L 234.948107 62.963873 
L 235.455305 63.285937 
L 236.976898 63.845212 
L 237.484096 64.161598 
L 239.512888 64.862703 
L 240.527283 65.320475 
L 241.034481 65.320475 
L 241.541679 65.620877 
L 242.556075 65.990627 
L 243.570471 66.425426 
L 244.077668 66.425426 
L 245.092064 66.919734 
L 245.599262 67.127131 
L 246.613658 67.331802 
L 247.120856 67.466713 
L 247.628053 67.732807 
L 248.135251 67.732807 
L 248.642449 68.12254 
L 249.656845 68.313164 
L 250.164043 68.438674 
L 250.671241 68.746963 
L 251.178439 68.746963 
L 252.192834 69.106694 
L 253.714428 69.512754 
L 254.728824 69.84956 
L 256.757615 70.336079 
L 257.772011 70.648357 
L 260.308 71.196401 
L 261.322396 71.482097 
L 262.336791 71.713046 
L 263.351187 71.98158 
L 267.40877 72.769466 
L 268.930364 73.109524 
L 269.437561 73.109524 
L 269.944759 73.254145 
L 270.451957 73.254145 
L 270.959155 73.464073 
L 272.480749 73.632991 
L 272.987947 73.796794 
L 273.495144 73.796794 
L 274.50954 73.987053 
L 278.567123 74.548383 
L 280.088717 74.767069 
L 287.696684 75.614453 
L 288.71108 75.750188 
L 298.855037 76.389604 
L 306.463005 76.49508 
L 312.042182 76.378512 
L 325.229326 75.499389 
L 326.243722 75.35763 
L 330.301305 74.932532 
L 330.808503 74.81131 
L 331.822898 74.711648 
L 336.894877 74.095326 
L 341.966856 73.331136 
L 343.488449 73.14965 
L 343.995647 72.967843 
L 345.517241 72.816658 
L 347.038834 72.546758 
L 349.574824 72.195012 
L 353.632406 71.642231 
L 355.154 71.436377 
L 370.877134 69.999579 
L 375.441914 69.794139 
L 391.165048 69.397127 
L 400.29461 69.344409 
L 412.467358 69.557404 
L 420.582524 69.817711 
L 432.755273 70.162295 
L 432.755273 70.162295 
" clip-path="url(#p3f5f0fcd0d)" style="fill: none; stroke: #ff0000; stroke-width: 1.5; stroke-linecap: square"/>
   </g>
   <g id="patch_3">
    <path d="M 70.616 78.7975 
L 70.616 28.32 
" style="fill: none; stroke: #000000; stroke-width: 0.8; stroke-linejoin: miter; stroke-linecap: square"/>
   </g>
   <g id="patch_4">
    <path d="M 450 78.7975 
L 450 28.32 
" style="fill: none; stroke: #000000; stroke-width: 0.8; stroke-linejoin: miter; stroke-linecap: square"/>
   </g>
   <g id="patch_5">
    <path d="M 70.616 78.7975 
L 450 78.7975 
" style="fill: none; stroke: #000000; stroke-width: 0.8; stroke-linejoin: miter; stroke-linecap: square"/>
   </g>
   <g id="patch_6">
    <path d="M 70.616 28.32 
L 450 28.32 
" style="fill: none; stroke: #000000; stroke-width: 0.8; stroke-linejoin: miter; stroke-linecap: square"/>
   </g>
   <g id="text_13">
    <!-- Error in $x$-position -->
    <g transform="translate(206.668 22.32)scale(0.12 -0.12)">
     <defs>
      <path id="DejaVuSans-45" d="M 628 4666 
L 3578 4666 
L 3578 4134 
L 1259 4134 
L 1259 2753 
L 3481 2753 
L 3481 2222 
L 1259 2222 
L 1259 531 
L 3634 531 
L 3634 0 
L 628 0 
L 628 4666 
z
" transform="scale(0.015625)"/>
      <path id="DejaVuSans-72" d="M 2631 2963 
Q 2534 3019 2420 3045 
Q 2306 3072 2169 3072 
Q 1681 3072 1420 2755 
Q 1159 2438 1159 1844 
L 1159 0 
L 581 0 
L 581 3500 
L 1159 3500 
L 1159 2956 
Q 1341 3275 1631 3429 
Q 1922 3584 2338 3584 
Q 2397 3584 2469 3576 
Q 2541 3569 2628 3553 
L 2631 2963 
z
" transform="scale(0.015625)"/>
      <path id="DejaVuSans-6f" d="M 1959 3097 
Q 1497 3097 1228 2736 
Q 959 2375 959 1747 
Q 959 1119 1226 758 
Q 1494 397 1959 397 
Q 2419 397 2687 759 
Q 2956 1122 2956 1747 
Q 2956 2369 2687 2733 
Q 2419 3097 1959 3097 
z
M 1959 3584 
Q 2709 3584 3137 3096 
Q 3566 2609 3566 1747 
Q 3566 888 3137 398 
Q 2709 -91 1959 -91 
Q 1206 -91 779 398 
Q 353 888 353 1747 
Q 353 2609 779 3096 
Q 1206 3584 1959 3584 
z
" transform="scale(0.015625)"/>
      <path id="DejaVuSans-69" d="M 603 3500 
L 1178 3500 
L 1178 0 
L 603 0 
L 603 3500 
z
M 603 4863 
L 1178 4863 
L 1178 4134 
L 603 4134 
L 603 4863 
z
" transform="scale(0.015625)"/>
      <path id="DejaVuSans-6e" d="M 3513 2113 
L 3513 0 
L 2938 0 
L 2938 2094 
Q 2938 2591 2744 2837 
Q 2550 3084 2163 3084 
Q 1697 3084 1428 2787 
Q 1159 2491 1159 1978 
L 1159 0 
L 581 0 
L 581 3500 
L 1159 3500 
L 1159 2956 
Q 1366 3272 1645 3428 
Q 1925 3584 2291 3584 
Q 2894 3584 3203 3211 
Q 3513 2838 3513 2113 
z
" transform="scale(0.015625)"/>
      <path id="DejaVuSans-2d" d="M 313 2009 
L 1997 2009 
L 1997 1497 
L 313 1497 
L 313 2009 
z
" transform="scale(0.015625)"/>
      <path id="DejaVuSans-70" d="M 1159 525 
L 1159 -1331 
L 581 -1331 
L 581 3500 
L 1159 3500 
L 1159 2969 
Q 1341 3281 1617 3432 
Q 1894 3584 2278 3584 
Q 2916 3584 3314 3078 
Q 3713 2572 3713 1747 
Q 3713 922 3314 415 
Q 2916 -91 2278 -91 
Q 1894 -91 1617 61 
Q 1341 213 1159 525 
z
M 3116 1747 
Q 3116 2381 2855 2742 
Q 2594 3103 2138 3103 
Q 1681 3103 1420 2742 
Q 1159 2381 1159 1747 
Q 1159 1113 1420 752 
Q 1681 391 2138 391 
Q 2594 391 2855 752 
Q 3116 1113 3116 1747 
z
" transform="scale(0.015625)"/>
      <path id="DejaVuSans-74" d="M 1172 4494 
L 1172 3500 
L 2356 3500 
L 2356 3053 
L 1172 3053 
L 1172 1153 
Q 1172 725 1289 603 
Q 1406 481 1766 481 
L 2356 481 
L 2356 0 
L 1766 0 
Q 1100 0 847 248 
Q 594 497 594 1153 
L 594 3053 
L 172 3053 
L 172 3500 
L 594 3500 
L 594 4494 
L 1172 4494 
z
" transform="scale(0.015625)"/>
     </defs>
     <use xlink:href="#DejaVuSans-45" transform="translate(0 0.015625)"/>
     <use xlink:href="#DejaVuSans-72" transform="translate(63.183594 0.015625)"/>
     <use xlink:href="#DejaVuSans-72" transform="translate(104.296875 0.015625)"/>
     <use xlink:href="#DejaVuSans-6f" transform="translate(145.410156 0.015625)"/>
     <use xlink:href="#DejaVuSans-72" transform="translate(206.591797 0.015625)"/>
     <use xlink:href="#DejaVuSans-20" transform="translate(247.705078 0.015625)"/>
     <use xlink:href="#DejaVuSans-69" transform="translate(279.492188 0.015625)"/>
     <use xlink:href="#DejaVuSans-6e" transform="translate(307.275391 0.015625)"/>
     <use xlink:href="#DejaVuSans-20" transform="translate(370.654297 0.015625)"/>
     <use xlink:href="#DejaVuSans-Oblique-78" transform="translate(402.441406 0.015625)"/>
     <use xlink:href="#DejaVuSans-2d" transform="translate(461.621094 0.015625)"/>
     <use xlink:href="#DejaVuSans-70" transform="translate(497.705078 0.015625)"/>
     <use xlink:href="#DejaVuSans-6f" transform="translate(561.181641 0.015625)"/>
     <use xlink:href="#DejaVuSans-73" transform="translate(622.363281 0.015625)"/>
     <use xlink:href="#DejaVuSans-69" transform="translate(674.462891 0.015625)"/>
     <use xlink:href="#DejaVuSans-74" transform="translate(702.246094 0.015625)"/>
     <use xlink:href="#DejaVuSans-69" transform="translate(741.455078 0.015625)"/>
     <use xlink:href="#DejaVuSans-6f" transform="translate(769.238281 0.015625)"/>
     <use xlink:href="#DejaVuSans-6e" transform="translate(830.419922 0.015625)"/>
    </g>
   </g>
  </g>
  <g id="axes_2">
   <g id="patch_7">
    <path d="M 70.616 190.3975 
L 450 190.3975 
L 450 139.92 
L 70.616 139.92 
z
" style="fill: #ffffff"/>
   </g>
   <g id="matplotlib.axis_3">
    <g id="xtick_9">
     <g id="line2d_22">
      <path d="M 87.860727 190.3975 
L 87.860727 139.92 
" clip-path="url(#pc3e89028d7)" style="fill: none; stroke: #b0b0b0; stroke-width: 0.8; stroke-linecap: square"/>
     </g>
     <g id="line2d_23">
      <g>
       <use xlink:href="#m305cae5d9b" x="87.860727" y="190.3975" style="stroke: #000000; stroke-width: 0.8"/>
      </g>
     </g>
     <g id="text_14">
      <!-- 0 -->
      <g transform="translate(84.679477 204.995937)scale(0.1 -0.1)">
       <use xlink:href="#DejaVuSans-30"/>
      </g>
     </g>
    </g>
    <g id="xtick_10">
     <g id="line2d_24">
      <path d="M 138.506035 190.3975 
L 138.506035 139.92 
" clip-path="url(#pc3e89028d7)" style="fill: none; stroke: #b0b0b0; stroke-width: 0.8; stroke-linecap: square"/>
     </g>
     <g id="line2d_25">
      <g>
       <use xlink:href="#m305cae5d9b" x="138.506035" y="190.3975" style="stroke: #000000; stroke-width: 0.8"/>
      </g>
     </g>
     <g id="text_15">
      <!-- 1 -->
      <g transform="translate(135.324785 204.995937)scale(0.1 -0.1)">
       <use xlink:href="#DejaVuSans-31"/>
      </g>
     </g>
    </g>
    <g id="xtick_11">
     <g id="line2d_26">
      <path d="M 189.151343 190.3975 
L 189.151343 139.92 
" clip-path="url(#pc3e89028d7)" style="fill: none; stroke: #b0b0b0; stroke-width: 0.8; stroke-linecap: square"/>
     </g>
     <g id="line2d_27">
      <g>
       <use xlink:href="#m305cae5d9b" x="189.151343" y="190.3975" style="stroke: #000000; stroke-width: 0.8"/>
      </g>
     </g>
     <g id="text_16">
      <!-- 2 -->
      <g transform="translate(185.970093 204.995937)scale(0.1 -0.1)">
       <use xlink:href="#DejaVuSans-32"/>
      </g>
     </g>
    </g>
    <g id="xtick_12">
     <g id="line2d_28">
      <path d="M 239.79665 190.3975 
L 239.79665 139.92 
" clip-path="url(#pc3e89028d7)" style="fill: none; stroke: #b0b0b0; stroke-width: 0.8; stroke-linecap: square"/>
     </g>
     <g id="line2d_29">
      <g>
       <use xlink:href="#m305cae5d9b" x="239.79665" y="190.3975" style="stroke: #000000; stroke-width: 0.8"/>
      </g>
     </g>
     <g id="text_17">
      <!-- 3 -->
      <g transform="translate(236.6154 204.995937)scale(0.1 -0.1)">
       <use xlink:href="#DejaVuSans-33"/>
      </g>
     </g>
    </g>
    <g id="xtick_13">
     <g id="line2d_30">
      <path d="M 290.441958 190.3975 
L 290.441958 139.92 
" clip-path="url(#pc3e89028d7)" style="fill: none; stroke: #b0b0b0; stroke-width: 0.8; stroke-linecap: square"/>
     </g>
     <g id="line2d_31">
      <g>
       <use xlink:href="#m305cae5d9b" x="290.441958" y="190.3975" style="stroke: #000000; stroke-width: 0.8"/>
      </g>
     </g>
     <g id="text_18">
      <!-- 4 -->
      <g transform="translate(287.260708 204.995937)scale(0.1 -0.1)">
       <use xlink:href="#DejaVuSans-34"/>
      </g>
     </g>
    </g>
    <g id="xtick_14">
     <g id="line2d_32">
      <path d="M 341.087266 190.3975 
L 341.087266 139.92 
" clip-path="url(#pc3e89028d7)" style="fill: none; stroke: #b0b0b0; stroke-width: 0.8; stroke-linecap: square"/>
     </g>
     <g id="line2d_33">
      <g>
       <use xlink:href="#m305cae5d9b" x="341.087266" y="190.3975" style="stroke: #000000; stroke-width: 0.8"/>
      </g>
     </g>
     <g id="text_19">
      <!-- 5 -->
      <g transform="translate(337.906016 204.995937)scale(0.1 -0.1)">
       <use xlink:href="#DejaVuSans-35"/>
      </g>
     </g>
    </g>
    <g id="xtick_15">
     <g id="line2d_34">
      <path d="M 391.732573 190.3975 
L 391.732573 139.92 
" clip-path="url(#pc3e89028d7)" style="fill: none; stroke: #b0b0b0; stroke-width: 0.8; stroke-linecap: square"/>
     </g>
     <g id="line2d_35">
      <g>
       <use xlink:href="#m305cae5d9b" x="391.732573" y="190.3975" style="stroke: #000000; stroke-width: 0.8"/>
      </g>
     </g>
     <g id="text_20">
      <!-- 6 -->
      <g transform="translate(388.551323 204.995937)scale(0.1 -0.1)">
       <use xlink:href="#DejaVuSans-36"/>
      </g>
     </g>
    </g>
    <g id="xtick_16">
     <g id="line2d_36">
      <path d="M 442.377881 190.3975 
L 442.377881 139.92 
" clip-path="url(#pc3e89028d7)" style="fill: none; stroke: #b0b0b0; stroke-width: 0.8; stroke-linecap: square"/>
     </g>
     <g id="line2d_37">
      <g>
       <use xlink:href="#m305cae5d9b" x="442.377881" y="190.3975" style="stroke: #000000; stroke-width: 0.8"/>
      </g>
     </g>
     <g id="text_21">
      <!-- 7 -->
      <g transform="translate(439.196631 204.995937)scale(0.1 -0.1)">
       <use xlink:href="#DejaVuSans-37"/>
      </g>
     </g>
    </g>
    <g id="text_22">
     <!-- $t$ [s] -->
     <g transform="translate(250.208 218.674062)scale(0.1 -0.1)">
      <use xlink:href="#DejaVuSans-Oblique-74" transform="translate(0 0.015625)"/>
      <use xlink:href="#DejaVuSans-20" transform="translate(39.208984 0.015625)"/>
      <use xlink:href="#DejaVuSans-5b" transform="translate(70.996094 0.015625)"/>
      <use xlink:href="#DejaVuSans-73" transform="translate(110.009766 0.015625)"/>
      <use xlink:href="#DejaVuSans-5d" transform="translate(162.109375 0.015625)"/>
     </g>
    </g>
   </g>
   <g id="matplotlib.axis_4">
    <g id="ytick_3">
     <g id="line2d_38">
      <path d="M 70.616 189.387938 
L 450 189.387938 
" clip-path="url(#pc3e89028d7)" style="fill: none; stroke: #b0b0b0; stroke-width: 0.8; stroke-linecap: square"/>
     </g>
     <g id="line2d_39">
      <g>
       <use xlink:href="#mbee622a7d7" x="70.616" y="189.387938" style="stroke: #000000; stroke-width: 0.8"/>
      </g>
     </g>
     <g id="text_23">
      <!-- −0.025 -->
      <g transform="translate(26.608187 193.187157)scale(0.1 -0.1)">
       <defs>
        <path id="DejaVuSans-2212" d="M 678 2272 
L 4684 2272 
L 4684 1741 
L 678 1741 
L 678 2272 
z
" transform="scale(0.015625)"/>
        <path id="DejaVuSans-2e" d="M 684 794 
L 1344 794 
L 1344 0 
L 684 0 
L 684 794 
z
" transform="scale(0.015625)"/>
       </defs>
       <use xlink:href="#DejaVuSans-2212"/>
       <use xlink:href="#DejaVuSans-30" x="83.789062"/>
       <use xlink:href="#DejaVuSans-2e" x="147.412109"/>
       <use xlink:href="#DejaVuSans-30" x="179.199219"/>
       <use xlink:href="#DejaVuSans-32" x="242.822266"/>
       <use xlink:href="#DejaVuSans-35" x="306.445312"/>
      </g>
     </g>
    </g>
    <g id="ytick_4">
     <g id="line2d_40">
      <path d="M 70.616 171.026514 
L 450 171.026514 
" clip-path="url(#pc3e89028d7)" style="fill: none; stroke: #b0b0b0; stroke-width: 0.8; stroke-linecap: square"/>
     </g>
     <g id="line2d_41">
      <g>
       <use xlink:href="#mbee622a7d7" x="70.616" y="171.026514" style="stroke: #000000; stroke-width: 0.8"/>
      </g>
     </g>
     <g id="text_24">
      <!-- 0.000 -->
      <g transform="translate(34.987875 174.825733)scale(0.1 -0.1)">
       <use xlink:href="#DejaVuSans-30"/>
       <use xlink:href="#DejaVuSans-2e" x="63.623047"/>
       <use xlink:href="#DejaVuSans-30" x="95.410156"/>
       <use xlink:href="#DejaVuSans-30" x="159.033203"/>
       <use xlink:href="#DejaVuSans-30" x="222.65625"/>
      </g>
     </g>
    </g>
    <g id="ytick_5">
     <g id="line2d_42">
      <path d="M 70.616 152.66509 
L 450 152.66509 
" clip-path="url(#pc3e89028d7)" style="fill: none; stroke: #b0b0b0; stroke-width: 0.8; stroke-linecap: square"/>
     </g>
     <g id="line2d_43">
      <g>
       <use xlink:href="#mbee622a7d7" x="70.616" y="152.66509" style="stroke: #000000; stroke-width: 0.8"/>
      </g>
     </g>
     <g id="text_25">
      <!-- 0.025 -->
      <g transform="translate(34.987875 156.464308)scale(0.1 -0.1)">
       <use xlink:href="#DejaVuSans-30"/>
       <use xlink:href="#DejaVuSans-2e" x="63.623047"/>
       <use xlink:href="#DejaVuSans-30" x="95.410156"/>
       <use xlink:href="#DejaVuSans-32" x="159.033203"/>
       <use xlink:href="#DejaVuSans-35" x="222.65625"/>
      </g>
     </g>
    </g>
    <g id="text_26">
     <!-- $e_z$ [m] -->
     <g transform="translate(20.5285 180.60875)rotate(-90)scale(0.1 -0.1)">
      <defs>
       <path id="DejaVuSans-Oblique-7a" d="M 744 3500 
L 3475 3500 
L 3372 2975 
L 738 459 
L 2913 459 
L 2822 0 
L -19 0 
L 84 525 
L 2719 3041 
L 653 3041 
L 744 3500 
z
" transform="scale(0.015625)"/>
      </defs>
      <use xlink:href="#DejaVuSans-Oblique-65" transform="translate(0 0.015625)"/>
      <use xlink:href="#DejaVuSans-Oblique-7a" transform="translate(61.523438 -16.390625)scale(0.7)"/>
      <use xlink:href="#DejaVuSans-20" transform="translate(101.000977 0.015625)"/>
      <use xlink:href="#DejaVuSans-5b" transform="translate(132.788086 0.015625)"/>
      <use xlink:href="#DejaVuSans-6d" transform="translate(171.801758 0.015625)"/>
      <use xlink:href="#DejaVuSans-5d" transform="translate(269.213867 0.015625)"/>
     </g>
    </g>
   </g>
   <g id="line2d_44">
    <path d="M 87.860727 177.938204 
L 89.382321 174.780301 
L 89.889519 174.359932 
L 91.411112 171.717315 
L 92.425508 168.971301 
L 93.439904 167.745011 
L 93.947102 167.234965 
L 94.454299 166.414725 
L 95.468695 165.640606 
L 97.497487 165.30654 
L 99.01908 165.51423 
L 100.033476 165.750761 
L 100.540674 166.039197 
L 101.55507 166.438587 
L 102.569465 166.932151 
L 103.076663 166.932151 
L 103.583861 167.252033 
L 104.598257 167.631155 
L 105.612652 168.050792 
L 106.11985 168.050792 
L 106.627048 168.311376 
L 107.641444 168.623355 
L 108.148642 168.806874 
L 109.163037 168.990955 
L 109.670235 169.306354 
L 112.206225 170.011189 
L 113.727818 170.874707 
L 114.742214 171.172767 
L 115.249412 171.38221 
L 116.263807 172.17958 
L 116.771005 172.550671 
L 117.785401 172.8072 
L 118.292599 173.204709 
L 118.799797 173.755512 
L 120.828588 174.911121 
L 121.335786 175.356756 
L 121.842984 175.95439 
L 124.378973 177.571925 
L 124.886171 178.13273 
L 126.407765 178.924602 
L 126.914963 179.529819 
L 127.42216 179.529819 
L 127.929358 179.972476 
L 131.479743 181.372078 
L 134.52293 181.924675 
L 136.551722 181.960913 
L 139.087711 181.738024 
L 140.609305 181.449759 
L 141.623701 181.22746 
L 142.130898 181.031255 
L 142.638096 181.031255 
L 143.652492 180.711989 
L 145.174086 180.311504 
L 146.695679 179.891749 
L 147.710075 179.523742 
L 148.724471 179.277183 
L 149.231668 179.030565 
L 149.738866 179.030565 
L 150.246064 178.66242 
L 151.26046 178.480094 
L 151.767658 178.359515 
L 152.274856 178.120854 
L 152.782053 178.120854 
L 153.289251 177.770331 
L 154.303647 177.598652 
L 155.825241 177.263274 
L 156.332439 176.939885 
L 157.854032 176.679829 
L 159.375626 176.186777 
L 160.897219 175.956321 
L 161.404417 175.738127 
L 161.911615 175.738127 
L 162.926011 175.493898 
L 169.519583 174.563411 
L 173.577166 174.375628 
L 176.113155 174.453468 
L 181.185134 175.003819 
L 181.692332 175.231651 
L 183.213925 175.445963 
L 184.228321 175.680342 
L 185.242717 175.984804 
L 186.257112 176.200163 
L 186.76431 176.423845 
L 187.271508 176.423845 
L 187.778706 176.769928 
L 188.793102 176.945716 
L 189.300299 177.06324 
L 190.821893 177.645506 
L 192.343487 177.925883 
L 193.357882 178.292531 
L 194.372278 178.483702 
L 198.937059 179.212207 
L 200.96585 179.289255 
L 203.50184 179.180312 
L 205.530631 178.962976 
L 207.052225 178.689309 
L 208.06662 178.443238 
L 209.588214 178.122362 
L 211.617005 177.726602 
L 212.124203 177.422369 
L 213.645797 177.170975 
L 214.152995 176.974384 
L 214.660193 176.974384 
L 215.16739 176.691823 
L 216.688984 176.471847 
L 217.196182 176.268839 
L 217.70338 176.268839 
L 218.717775 176.05036 
L 224.296952 175.396757 
L 227.847337 175.391143 
L 229.36893 175.62947 
L 230.383326 175.863643 
L 231.397722 176.079954 
L 231.90492 176.193343 
L 232.919316 176.537547 
L 234.440909 177.017225 
L 234.948107 177.017225 
L 235.962503 177.274723 
L 238.498492 177.577745 
L 239.512888 177.527097 
L 241.034481 177.252186 
L 243.063273 175.765015 
L 243.570471 175.174446 
L 244.077668 175.174446 
L 245.599262 172.598956 
L 246.10646 172.294383 
L 247.120856 170.999575 
L 247.628053 169.600649 
L 248.135251 169.600649 
L 248.642449 167.351048 
L 249.149647 166.961681 
L 250.164043 165.376976 
L 250.671241 163.365996 
L 251.178439 163.365996 
L 251.685636 161.757468 
L 253.20723 159.349574 
L 253.714428 158.14882 
L 254.221626 156.553809 
L 256.250417 153.402081 
L 256.757615 152.24308 
L 257.264813 150.729636 
L 260.308 146.261754 
L 260.815198 145.11132 
L 262.336791 143.477758 
L 262.843989 142.812976 
L 263.858385 142.382941 
L 264.872781 142.214432 
L 265.379979 142.279227 
L 267.40877 143.887976 
L 268.423166 145.987655 
L 268.930364 147.338519 
L 269.437561 147.338519 
L 269.944759 149.405032 
L 270.451957 149.405032 
L 270.959155 152.918359 
L 271.466353 153.536395 
L 272.480749 156.058634 
L 272.987947 159.241996 
L 273.495144 159.241996 
L 274.002342 161.724418 
L 275.523936 165.202072 
L 276.031134 167.285331 
L 276.538332 167.285331 
L 277.045529 169.969971 
L 278.059925 170.736937 
L 279.074321 172.898436 
L 280.088717 173.773139 
L 280.595914 174.11404 
L 281.103112 174.613185 
L 281.61031 174.613185 
L 282.117508 174.945876 
L 283.639102 174.884317 
L 284.146299 174.783672 
L 284.653497 174.56397 
L 285.160695 174.159393 
L 286.682289 173.36108 
L 287.189487 172.737946 
L 287.696684 172.737946 
L 288.203882 171.735774 
L 288.71108 171.565551 
L 289.725476 170.88821 
L 290.232674 170.073851 
L 290.739872 170.073851 
L 291.24707 169.47099 
L 294.290257 167.842634 
L 295.81185 167.544602 
L 296.826246 167.464236 
L 298.855037 167.734053 
L 299.869433 168.058579 
L 300.376631 168.389591 
L 301.898225 168.976874 
L 302.405422 169.410002 
L 302.91262 169.410002 
L 303.419818 170.084908 
L 304.434214 170.421347 
L 304.941412 170.641696 
L 305.44861 171.066559 
L 305.955807 171.066559 
L 306.463005 171.645944 
L 307.477401 171.901864 
L 308.491797 172.268683 
L 308.998995 172.505746 
L 311.534984 172.894979 
L 314.070973 172.953379 
L 320.157348 172.930402 
L 321.171743 173.060368 
L 321.678941 173.301328 
L 322.186139 173.301328 
L 323.200535 173.715718 
L 324.21493 174.072434 
L 324.722128 174.494038 
L 325.229326 174.494038 
L 325.736524 175.244281 
L 326.243722 175.382565 
L 327.258118 175.970886 
L 327.765316 176.611219 
L 328.272513 176.611219 
L 328.779711 177.650506 
L 329.286909 177.83124 
L 330.301305 178.570292 
L 330.808503 179.518749 
L 331.315701 179.518749 
L 331.822898 180.283233 
L 333.85169 181.793774 
L 334.358888 182.348159 
L 334.866086 183.070388 
L 337.402075 184.903433 
L 337.909273 185.498032 
L 339.430866 186.300515 
L 339.938064 186.769101 
L 340.95246 187.349446 
L 342.474053 187.702776 
L 342.981251 187.886447 
L 345.517241 187.858279 
L 347.038834 187.16344 
L 347.546032 186.777544 
L 348.05323 186.630653 
L 348.560428 186.309103 
L 349.067626 185.5536 
L 350.082021 184.648803 
L 350.589219 183.873498 
L 351.096417 182.714818 
L 351.603615 182.714818 
L 352.110813 181.418585 
L 353.125209 179.993977 
L 353.632406 178.850653 
L 354.139604 177.239196 
L 354.646802 177.239196 
L 355.154 175.548158 
L 356.168396 173.803284 
L 356.675594 172.479116 
L 357.182791 170.717539 
L 357.689989 170.717539 
L 358.197187 168.993354 
L 358.704385 168.153667 
L 359.718781 165.746508 
L 360.225979 165.363411 
L 360.733176 164.613408 
L 361.240374 163.179895 
L 361.747572 162.496305 
L 363.269166 159.736608 
L 363.776364 159.736608 
L 364.283561 158.702144 
L 364.790759 158.238 
L 365.805155 157.098343 
L 366.819551 156.695426 
L 367.326749 156.360662 
L 367.833947 156.278351 
L 369.35554 156.620751 
L 369.862738 156.900937 
L 370.877134 158.59282 
L 371.384332 159.65983 
L 371.891529 160.05945 
L 372.905925 161.857745 
L 373.920321 165.612095 
L 374.427519 167.382218 
L 374.934717 167.986332 
L 375.949112 170.441681 
L 376.45631 173.510864 
L 376.963508 173.510864 
L 377.470706 175.885042 
L 378.992299 179.191202 
L 379.499497 181.164328 
L 380.513893 183.702501 
L 381.021091 184.072198 
L 382.035487 185.39285 
L 382.542684 186.456849 
L 383.049882 186.456849 
L 383.55708 187.561326 
L 386.09307 188.103068 
L 388.121861 187.163647 
L 388.629059 186.628129 
L 389.136257 185.75678 
L 390.65785 184.149845 
L 391.165048 183.545402 
L 391.672246 182.588597 
L 392.179444 181.237232 
L 394.208235 178.368113 
L 394.715433 176.545627 
L 395.222631 176.545627 
L 395.729829 175.120763 
L 397.75862 172.174397 
L 398.265818 171.038557 
L 400.801807 168.354037 
L 401.309005 168.354037 
L 401.816203 167.875781 
L 402.830599 167.568012 
L 403.844995 167.415523 
L 405.366588 167.661428 
L 406.888182 168.181256 
L 407.39538 168.523259 
L 407.902578 169.043891 
L 409.424171 169.92149 
L 409.931369 170.54142 
L 410.438567 170.54142 
L 410.945765 171.469909 
L 411.452963 171.620872 
L 412.467358 172.204777 
L 412.974556 172.745978 
L 413.481754 172.745978 
L 413.988952 173.45178 
L 415.003348 173.748103 
L 417.539337 174.55889 
L 419.568128 174.552943 
L 421.59692 174.237841 
L 422.104118 173.995749 
L 422.611316 173.995749 
L 423.118513 173.552298 
L 424.132909 173.301224 
L 424.640107 173.125687 
L 425.147305 172.760197 
L 425.654503 172.760197 
L 426.161701 172.198 
L 427.176096 171.919098 
L 427.683294 171.736716 
L 428.190492 171.385722 
L 428.69769 171.385722 
L 429.204888 170.908377 
L 430.219283 170.697827 
L 432.755273 170.060572 
L 432.755273 170.060572 
" clip-path="url(#pc3e89028d7)" style="fill: none; stroke: #0000ff; stroke-width: 1.5; stroke-linecap: square"/>
   </g>
   <g id="patch_8">
    <path d="M 70.616 190.3975 
L 70.616 139.92 
" style="fill: none; stroke: #000000; stroke-width: 0.8; stroke-linejoin: miter; stroke-linecap: square"/>
   </g>
   <g id="patch_9">
    <path d="M 450 190.3975 
L 450 139.92 
" style="fill: none; stroke: #000000; stroke-width: 0.8; stroke-linejoin: miter; stroke-linecap: square"/>
   </g>
   <g id="patch_10">
    <path d="M 70.616 190.3975 
L 450 190.3975 
" style="fill: none; stroke: #000000; stroke-width: 0.8; stroke-linejoin: miter; stroke-linecap: square"/>
   </g>
   <g id="patch_11">
    <path d="M 70.616 139.92 
L 450 139.92 
" style="fill: none; stroke: #000000; stroke-width: 0.8; stroke-linejoin: miter; stroke-linecap: square"/>
   </g>
   <g id="text_27">
    <!-- Error in $z$-position -->
    <g transform="translate(207.028 133.92)scale(0.12 -0.12)">
     <use xlink:href="#DejaVuSans-45" transform="translate(0 0.015625)"/>
     <use xlink:href="#DejaVuSans-72" transform="translate(63.183594 0.015625)"/>
     <use xlink:href="#DejaVuSans-72" transform="translate(104.296875 0.015625)"/>
     <use xlink:href="#DejaVuSans-6f" transform="translate(145.410156 0.015625)"/>
     <use xlink:href="#DejaVuSans-72" transform="translate(206.591797 0.015625)"/>
     <use xlink:href="#DejaVuSans-20" transform="translate(247.705078 0.015625)"/>
     <use xlink:href="#DejaVuSans-69" transform="translate(279.492188 0.015625)"/>
     <use xlink:href="#DejaVuSans-6e" transform="translate(307.275391 0.015625)"/>
     <use xlink:href="#DejaVuSans-20" transform="translate(370.654297 0.015625)"/>
     <use xlink:href="#DejaVuSans-Oblique-7a" transform="translate(402.441406 0.015625)"/>
     <use xlink:href="#DejaVuSans-2d" transform="translate(454.931641 0.015625)"/>
     <use xlink:href="#DejaVuSans-70" transform="translate(491.015625 0.015625)"/>
     <use xlink:href="#DejaVuSans-6f" transform="translate(554.492188 0.015625)"/>
     <use xlink:href="#DejaVuSans-73" transform="translate(615.673828 0.015625)"/>
     <use xlink:href="#DejaVuSans-69" transform="translate(667.773438 0.015625)"/>
     <use xlink:href="#DejaVuSans-74" transform="translate(695.556641 0.015625)"/>
     <use xlink:href="#DejaVuSans-69" transform="translate(734.765625 0.015625)"/>
     <use xlink:href="#DejaVuSans-6f" transform="translate(762.548828 0.015625)"/>
     <use xlink:href="#DejaVuSans-6e" transform="translate(823.730469 0.015625)"/>
    </g>
   </g>
  </g>
  <g id="axes_3">
   <g id="patch_12">
    <path d="M 70.616 301.9975 
L 450 301.9975 
L 450 251.52 
L 70.616 251.52 
z
" style="fill: #ffffff"/>
   </g>
   <g id="matplotlib.axis_5">
    <g id="xtick_17">
     <g id="line2d_45">
      <path d="M 87.860727 301.9975 
L 87.860727 251.52 
" clip-path="url(#pb3093120ab)" style="fill: none; stroke: #b0b0b0; stroke-width: 0.8; stroke-linecap: square"/>
     </g>
     <g id="line2d_46">
      <g>
       <use xlink:href="#m305cae5d9b" x="87.860727" y="301.9975" style="stroke: #000000; stroke-width: 0.8"/>
      </g>
     </g>
     <g id="text_28">
      <!-- 0 -->
      <g transform="translate(84.679477 316.595937)scale(0.1 -0.1)">
       <use xlink:href="#DejaVuSans-30"/>
      </g>
     </g>
    </g>
    <g id="xtick_18">
     <g id="line2d_47">
      <path d="M 138.506035 301.9975 
L 138.506035 251.52 
" clip-path="url(#pb3093120ab)" style="fill: none; stroke: #b0b0b0; stroke-width: 0.8; stroke-linecap: square"/>
     </g>
     <g id="line2d_48">
      <g>
       <use xlink:href="#m305cae5d9b" x="138.506035" y="301.9975" style="stroke: #000000; stroke-width: 0.8"/>
      </g>
     </g>
     <g id="text_29">
      <!-- 1 -->
      <g transform="translate(135.324785 316.595937)scale(0.1 -0.1)">
       <use xlink:href="#DejaVuSans-31"/>
      </g>
     </g>
    </g>
    <g id="xtick_19">
     <g id="line2d_49">
      <path d="M 189.151343 301.9975 
L 189.151343 251.52 
" clip-path="url(#pb3093120ab)" style="fill: none; stroke: #b0b0b0; stroke-width: 0.8; stroke-linecap: square"/>
     </g>
     <g id="line2d_50">
      <g>
       <use xlink:href="#m305cae5d9b" x="189.151343" y="301.9975" style="stroke: #000000; stroke-width: 0.8"/>
      </g>
     </g>
     <g id="text_30">
      <!-- 2 -->
      <g transform="translate(185.970093 316.595937)scale(0.1 -0.1)">
       <use xlink:href="#DejaVuSans-32"/>
      </g>
     </g>
    </g>
    <g id="xtick_20">
     <g id="line2d_51">
      <path d="M 239.79665 301.9975 
L 239.79665 251.52 
" clip-path="url(#pb3093120ab)" style="fill: none; stroke: #b0b0b0; stroke-width: 0.8; stroke-linecap: square"/>
     </g>
     <g id="line2d_52">
      <g>
       <use xlink:href="#m305cae5d9b" x="239.79665" y="301.9975" style="stroke: #000000; stroke-width: 0.8"/>
      </g>
     </g>
     <g id="text_31">
      <!-- 3 -->
      <g transform="translate(236.6154 316.595937)scale(0.1 -0.1)">
       <use xlink:href="#DejaVuSans-33"/>
      </g>
     </g>
    </g>
    <g id="xtick_21">
     <g id="line2d_53">
      <path d="M 290.441958 301.9975 
L 290.441958 251.52 
" clip-path="url(#pb3093120ab)" style="fill: none; stroke: #b0b0b0; stroke-width: 0.8; stroke-linecap: square"/>
     </g>
     <g id="line2d_54">
      <g>
       <use xlink:href="#m305cae5d9b" x="290.441958" y="301.9975" style="stroke: #000000; stroke-width: 0.8"/>
      </g>
     </g>
     <g id="text_32">
      <!-- 4 -->
      <g transform="translate(287.260708 316.595937)scale(0.1 -0.1)">
       <use xlink:href="#DejaVuSans-34"/>
      </g>
     </g>
    </g>
    <g id="xtick_22">
     <g id="line2d_55">
      <path d="M 341.087266 301.9975 
L 341.087266 251.52 
" clip-path="url(#pb3093120ab)" style="fill: none; stroke: #b0b0b0; stroke-width: 0.8; stroke-linecap: square"/>
     </g>
     <g id="line2d_56">
      <g>
       <use xlink:href="#m305cae5d9b" x="341.087266" y="301.9975" style="stroke: #000000; stroke-width: 0.8"/>
      </g>
     </g>
     <g id="text_33">
      <!-- 5 -->
      <g transform="translate(337.906016 316.595937)scale(0.1 -0.1)">
       <use xlink:href="#DejaVuSans-35"/>
      </g>
     </g>
    </g>
    <g id="xtick_23">
     <g id="line2d_57">
      <path d="M 391.732573 301.9975 
L 391.732573 251.52 
" clip-path="url(#pb3093120ab)" style="fill: none; stroke: #b0b0b0; stroke-width: 0.8; stroke-linecap: square"/>
     </g>
     <g id="line2d_58">
      <g>
       <use xlink:href="#m305cae5d9b" x="391.732573" y="301.9975" style="stroke: #000000; stroke-width: 0.8"/>
      </g>
     </g>
     <g id="text_34">
      <!-- 6 -->
      <g transform="translate(388.551323 316.595937)scale(0.1 -0.1)">
       <use xlink:href="#DejaVuSans-36"/>
      </g>
     </g>
    </g>
    <g id="xtick_24">
     <g id="line2d_59">
      <path d="M 442.377881 301.9975 
L 442.377881 251.52 
" clip-path="url(#pb3093120ab)" style="fill: none; stroke: #b0b0b0; stroke-width: 0.8; stroke-linecap: square"/>
     </g>
     <g id="line2d_60">
      <g>
       <use xlink:href="#m305cae5d9b" x="442.377881" y="301.9975" style="stroke: #000000; stroke-width: 0.8"/>
      </g>
     </g>
     <g id="text_35">
      <!-- 7 -->
      <g transform="translate(439.196631 316.595937)scale(0.1 -0.1)">
       <use xlink:href="#DejaVuSans-37"/>
      </g>
     </g>
    </g>
    <g id="text_36">
     <!-- $t$ [s] -->
     <g transform="translate(250.208 330.274063)scale(0.1 -0.1)">
      <use xlink:href="#DejaVuSans-Oblique-74" transform="translate(0 0.015625)"/>
      <use xlink:href="#DejaVuSans-20" transform="translate(39.208984 0.015625)"/>
      <use xlink:href="#DejaVuSans-5b" transform="translate(70.996094 0.015625)"/>
      <use xlink:href="#DejaVuSans-73" transform="translate(110.009766 0.015625)"/>
      <use xlink:href="#DejaVuSans-5d" transform="translate(162.109375 0.015625)"/>
     </g>
    </g>
   </g>
   <g id="matplotlib.axis_6">
    <g id="ytick_6">
     <g id="line2d_61">
      <path d="M 70.616 296.631062 
L 450 296.631062 
" clip-path="url(#pb3093120ab)" style="fill: none; stroke: #b0b0b0; stroke-width: 0.8; stroke-linecap: square"/>
     </g>
     <g id="line2d_62">
      <g>
       <use xlink:href="#mbee622a7d7" x="70.616" y="296.631062" style="stroke: #000000; stroke-width: 0.8"/>
      </g>
     </g>
     <g id="text_37">
      <!-- −2.5 -->
      <g transform="translate(39.333187 300.430281)scale(0.1 -0.1)">
       <use xlink:href="#DejaVuSans-2212"/>
       <use xlink:href="#DejaVuSans-32" x="83.789062"/>
       <use xlink:href="#DejaVuSans-2e" x="147.412109"/>
       <use xlink:href="#DejaVuSans-35" x="179.199219"/>
      </g>
     </g>
    </g>
    <g id="ytick_7">
     <g id="line2d_63">
      <path d="M 70.616 278.622545 
L 450 278.622545 
" clip-path="url(#pb3093120ab)" style="fill: none; stroke: #b0b0b0; stroke-width: 0.8; stroke-linecap: square"/>
     </g>
     <g id="line2d_64">
      <g>
       <use xlink:href="#mbee622a7d7" x="70.616" y="278.622545" style="stroke: #000000; stroke-width: 0.8"/>
      </g>
     </g>
     <g id="text_38">
      <!-- 0.0 -->
      <g transform="translate(47.712875 282.421763)scale(0.1 -0.1)">
       <use xlink:href="#DejaVuSans-30"/>
       <use xlink:href="#DejaVuSans-2e" x="63.623047"/>
       <use xlink:href="#DejaVuSans-30" x="95.410156"/>
      </g>
     </g>
    </g>
    <g id="ytick_8">
     <g id="line2d_65">
      <path d="M 70.616 260.614027 
L 450 260.614027 
" clip-path="url(#pb3093120ab)" style="fill: none; stroke: #b0b0b0; stroke-width: 0.8; stroke-linecap: square"/>
     </g>
     <g id="line2d_66">
      <g>
       <use xlink:href="#mbee622a7d7" x="70.616" y="260.614027" style="stroke: #000000; stroke-width: 0.8"/>
      </g>
     </g>
     <g id="text_39">
      <!-- 2.5 -->
      <g transform="translate(47.712875 264.413246)scale(0.1 -0.1)">
       <use xlink:href="#DejaVuSans-32"/>
       <use xlink:href="#DejaVuSans-2e" x="63.623047"/>
       <use xlink:href="#DejaVuSans-35" x="95.410156"/>
      </g>
     </g>
    </g>
    <g id="text_40">
     <!-- $e_\theta$ [rad] -->
     <g transform="translate(33.2535 295.90875)rotate(-90)scale(0.1 -0.1)">
      <defs>
       <path id="DejaVuSans-Oblique-3b8" d="M 2913 2219 
L 925 2219 
Q 791 1284 928 888 
Q 1100 400 1566 400 
Q 2034 400 2391 891 
Q 2703 1322 2913 2219 
z
M 3009 2750 
Q 3094 3638 2984 3950 
Q 2813 4444 2353 4444 
Q 1875 4444 1525 3956 
Q 1250 3563 1034 2750 
L 3009 2750 
z
M 2444 4913 
Q 3194 4913 3494 4250 
Q 3794 3591 3566 2422 
Q 3341 1256 2781 594 
Q 2225 -72 1475 -72 
Q 722 -72 425 594 
Q 128 1256 353 2422 
Q 581 3591 1134 4250 
Q 1691 4913 2444 4913 
z
" transform="scale(0.015625)"/>
       <path id="DejaVuSans-61" d="M 2194 1759 
Q 1497 1759 1228 1600 
Q 959 1441 959 1056 
Q 959 750 1161 570 
Q 1363 391 1709 391 
Q 2188 391 2477 730 
Q 2766 1069 2766 1631 
L 2766 1759 
L 2194 1759 
z
M 3341 1997 
L 3341 0 
L 2766 0 
L 2766 531 
Q 2569 213 2275 61 
Q 1981 -91 1556 -91 
Q 1019 -91 701 211 
Q 384 513 384 1019 
Q 384 1609 779 1909 
Q 1175 2209 1959 2209 
L 2766 2209 
L 2766 2266 
Q 2766 2663 2505 2880 
Q 2244 3097 1772 3097 
Q 1472 3097 1187 3025 
Q 903 2953 641 2809 
L 641 3341 
Q 956 3463 1253 3523 
Q 1550 3584 1831 3584 
Q 2591 3584 2966 3190 
Q 3341 2797 3341 1997 
z
" transform="scale(0.015625)"/>
       <path id="DejaVuSans-64" d="M 2906 2969 
L 2906 4863 
L 3481 4863 
L 3481 0 
L 2906 0 
L 2906 525 
Q 2725 213 2448 61 
Q 2172 -91 1784 -91 
Q 1150 -91 751 415 
Q 353 922 353 1747 
Q 353 2572 751 3078 
Q 1150 3584 1784 3584 
Q 2172 3584 2448 3432 
Q 2725 3281 2906 2969 
z
M 947 1747 
Q 947 1113 1208 752 
Q 1469 391 1925 391 
Q 2381 391 2643 752 
Q 2906 1113 2906 1747 
Q 2906 2381 2643 2742 
Q 2381 3103 1925 3103 
Q 1469 3103 1208 2742 
Q 947 2381 947 1747 
z
" transform="scale(0.015625)"/>
      </defs>
      <use xlink:href="#DejaVuSans-Oblique-65" transform="translate(0 0.015625)"/>
      <use xlink:href="#DejaVuSans-Oblique-3b8" transform="translate(61.523438 -16.390625)scale(0.7)"/>
      <use xlink:href="#DejaVuSans-20" transform="translate(107.084961 0.015625)"/>
      <use xlink:href="#DejaVuSans-5b" transform="translate(138.87207 0.015625)"/>
      <use xlink:href="#DejaVuSans-72" transform="translate(177.885742 0.015625)"/>
      <use xlink:href="#DejaVuSans-61" transform="translate(218.999023 0.015625)"/>
      <use xlink:href="#DejaVuSans-64" transform="translate(280.27832 0.015625)"/>
      <use xlink:href="#DejaVuSans-5d" transform="translate(343.754883 0.015625)"/>
     </g>
    </g>
   </g>
   <g id="line2d_67">
    <path d="M 87.860727 267.315189 
L 90.396717 267.229709 
L 91.91831 267.019485 
L 92.932706 266.801181 
L 94.961497 266.420959 
L 96.483091 266.23125 
L 104.091059 265.434588 
L 108.148642 265.216903 
L 125.393369 265.046767 
L 136.044524 265.285892 
L 142.130898 265.445047 
L 165.969198 265.338185 
L 187.271508 265.008841 
L 225.818545 265.373439 
L 228.861733 265.430114 
L 232.412118 265.986351 
L 233.426513 266.224276 
L 234.440909 266.552764 
L 234.948107 266.552764 
L 235.962503 266.916509 
L 236.976898 267.229821 
L 237.484096 267.476291 
L 243.570471 268.9016 
L 244.077668 268.9016 
L 245.599262 269.178273 
L 251.685636 269.388295 
L 253.20723 269.201528 
L 253.714428 268.995304 
L 254.728824 267.720858 
L 255.236021 266.236933 
L 255.743219 261.965927 
L 256.250417 299.703068 
L 256.757615 295.683797 
L 257.264813 294.428238 
L 258.279209 293.982325 
L 259.800802 293.687674 
L 261.829594 293.457006 
L 281.103112 291.957183 
L 283.639102 291.859366 
L 293.783059 291.659825 
L 301.391027 291.771242 
L 309.506193 292.068174 
L 327.258118 292.516997 
L 334.358888 292.348154 
L 339.938064 291.624628 
L 341.966856 291.271626 
L 343.488449 291.012301 
L 343.995647 290.738662 
L 345.517241 290.506394 
L 346.531636 290.224084 
L 348.05323 289.897179 
L 350.082021 289.44899 
L 352.110813 289.003252 
L 357.182791 288.308505 
L 362.25477 288.390595 
L 364.283561 288.865166 
L 364.790759 289.026742 
L 366.819551 290.342057 
L 367.326749 291.576248 
L 367.833947 293.125527 
L 368.341144 295.607175 
L 368.848342 296.682344 
L 369.35554 253.814432 
L 369.862738 256.155838 
L 370.369936 259.530038 
L 370.877134 261.033515 
L 371.384332 262.046233 
L 371.891529 262.315466 
L 374.427519 264.562567 
L 375.441914 264.867174 
L 375.949112 265.052475 
L 376.45631 265.462723 
L 376.963508 265.462723 
L 377.470706 265.745343 
L 381.528289 266.670297 
L 385.585872 267.11431 
L 394.208235 267.006205 
L 396.744225 266.906106 
L 402.830599 266.84925 
L 407.39538 267.017993 
L 411.452963 267.295512 
L 425.654503 268.00622 
L 428.69769 267.844849 
L 429.204888 267.443546 
L 429.712086 267.26372 
L 430.219283 266.406442 
L 430.726481 257.749407 
L 431.233679 292.652215 
L 431.740877 291.515045 
L 432.248075 291.159536 
L 432.755273 291.071609 
L 432.755273 291.071609 
" clip-path="url(#pb3093120ab)" style="fill: none; stroke: #008000; stroke-width: 1.5; stroke-linecap: square"/>
   </g>
   <g id="patch_13">
    <path d="M 70.616 301.9975 
L 70.616 251.52 
" style="fill: none; stroke: #000000; stroke-width: 0.8; stroke-linejoin: miter; stroke-linecap: square"/>
   </g>
   <g id="patch_14">
    <path d="M 450 301.9975 
L 450 251.52 
" style="fill: none; stroke: #000000; stroke-width: 0.8; stroke-linejoin: miter; stroke-linecap: square"/>
   </g>
   <g id="patch_15">
    <path d="M 70.616 301.9975 
L 450 301.9975 
" style="fill: none; stroke: #000000; stroke-width: 0.8; stroke-linejoin: miter; stroke-linecap: square"/>
   </g>
   <g id="patch_16">
    <path d="M 70.616 251.52 
L 450 251.52 
" style="fill: none; stroke: #000000; stroke-width: 0.8; stroke-linejoin: miter; stroke-linecap: square"/>
   </g>
   <g id="text_41">
    <!-- Error in swing angle -->
    <g transform="translate(200.537688 245.52)scale(0.12 -0.12)">
     <defs>
      <path id="DejaVuSans-77" d="M 269 3500 
L 844 3500 
L 1563 769 
L 2278 3500 
L 2956 3500 
L 3675 769 
L 4391 3500 
L 4966 3500 
L 4050 0 
L 3372 0 
L 2619 2869 
L 1863 0 
L 1184 0 
L 269 3500 
z
" transform="scale(0.015625)"/>
      <path id="DejaVuSans-67" d="M 2906 1791 
Q 2906 2416 2648 2759 
Q 2391 3103 1925 3103 
Q 1463 3103 1205 2759 
Q 947 2416 947 1791 
Q 947 1169 1205 825 
Q 1463 481 1925 481 
Q 2391 481 2648 825 
Q 2906 1169 2906 1791 
z
M 3481 434 
Q 3481 -459 3084 -895 
Q 2688 -1331 1869 -1331 
Q 1566 -1331 1297 -1286 
Q 1028 -1241 775 -1147 
L 775 -588 
Q 1028 -725 1275 -790 
Q 1522 -856 1778 -856 
Q 2344 -856 2625 -561 
Q 2906 -266 2906 331 
L 2906 616 
Q 2728 306 2450 153 
Q 2172 0 1784 0 
Q 1141 0 747 490 
Q 353 981 353 1791 
Q 353 2603 747 3093 
Q 1141 3584 1784 3584 
Q 2172 3584 2450 3431 
Q 2728 3278 2906 2969 
L 2906 3500 
L 3481 3500 
L 3481 434 
z
" transform="scale(0.015625)"/>
      <path id="DejaVuSans-6c" d="M 603 4863 
L 1178 4863 
L 1178 0 
L 603 0 
L 603 4863 
z
" transform="scale(0.015625)"/>
      <path id="DejaVuSans-65" d="M 3597 1894 
L 3597 1613 
L 953 1613 
Q 991 1019 1311 708 
Q 1631 397 2203 397 
Q 2534 397 2845 478 
Q 3156 559 3463 722 
L 3463 178 
Q 3153 47 2828 -22 
Q 2503 -91 2169 -91 
Q 1331 -91 842 396 
Q 353 884 353 1716 
Q 353 2575 817 3079 
Q 1281 3584 2069 3584 
Q 2775 3584 3186 3129 
Q 3597 2675 3597 1894 
z
M 3022 2063 
Q 3016 2534 2758 2815 
Q 2500 3097 2075 3097 
Q 1594 3097 1305 2825 
Q 1016 2553 972 2059 
L 3022 2063 
z
" transform="scale(0.015625)"/>
     </defs>
     <use xlink:href="#DejaVuSans-45"/>
     <use xlink:href="#DejaVuSans-72" x="63.183594"/>
     <use xlink:href="#DejaVuSans-72" x="102.546875"/>
     <use xlink:href="#DejaVuSans-6f" x="141.410156"/>
     <use xlink:href="#DejaVuSans-72" x="202.591797"/>
     <use xlink:href="#DejaVuSans-20" x="243.705078"/>
     <use xlink:href="#DejaVuSans-69" x="275.492188"/>
     <use xlink:href="#DejaVuSans-6e" x="303.275391"/>
     <use xlink:href="#DejaVuSans-20" x="366.654297"/>
     <use xlink:href="#DejaVuSans-73" x="398.441406"/>
     <use xlink:href="#DejaVuSans-77" x="450.541016"/>
     <use xlink:href="#DejaVuSans-69" x="532.328125"/>
     <use xlink:href="#DejaVuSans-6e" x="560.111328"/>
     <use xlink:href="#DejaVuSans-67" x="623.490234"/>
     <use xlink:href="#DejaVuSans-20" x="686.966797"/>
     <use xlink:href="#DejaVuSans-61" x="718.753906"/>
     <use xlink:href="#DejaVuSans-6e" x="780.033203"/>
     <use xlink:href="#DejaVuSans-67" x="843.412109"/>
     <use xlink:href="#DejaVuSans-6c" x="906.888672"/>
     <use xlink:href="#DejaVuSans-65" x="934.671875"/>
    </g>
   </g>
  </g>
 </g>
 <defs>
  <clipPath id="p3f5f0fcd0d">
   <rect x="70.616" y="28.32" width="379.384" height="50.4775"/>
  </clipPath>
  <clipPath id="pc3e89028d7">
   <rect x="70.616" y="139.92" width="379.384" height="50.4775"/>
  </clipPath>
  <clipPath id="pb3093120ab">
   <rect x="70.616" y="251.52" width="379.384" height="50.4775"/>
  </clipPath>
 </defs>
</svg>
