<?xml version="1.0" encoding="utf-8" standalone="no"?>
<!DOCTYPE svg PUBLIC "-//W3C//DTD SVG 1.1//EN"
  "http://www.w3.org/Graphics/SVG/1.1/DTD/svg11.dtd">
<svg xmlns:xlink="http://www.w3.org/1999/xlink" width="460.8pt" height="345.6pt" viewBox="0 0 460.8 345.6" xmlns="http://www.w3.org/2000/svg" version="1.1">
 <metadata>
  <rdf:RDF xmlns:dc="http://purl.org/dc/elements/1.1/" xmlns:cc="http://creativecommons.org/ns#" xmlns:rdf="http://www.w3.org/1999/02/22-rdf-syntax-ns#">
   <cc:Work>
    <dc:type rdf:resource="http://purl.org/dc/dcmitype/StillImage"/>
    <dc:date>2022-06-05T14:21:29.909752</dc:date>
    <dc:format>image/svg+xml</dc:format>
    <dc:creator>
     <cc:Agent>
      <dc:title>Matplotlib v3.5.1, https://matplotlib.org/</dc:title>
     </cc:Agent>
    </dc:creator>
   </cc:Work>
  </rdf:RDF>
 </metadata>
 <defs>
  <style type="text/css">*{stroke-linejoin: round; stroke-linecap: butt}</style>
 </defs>
 <g id="figure_1">
  <g id="patch_1">
   <path d="M 0 345.6 
L 460.8 345.6 
L 460.8 0 
L 0 0 
z
" style="fill: #ffffff"/>
  </g>
  <g id="axes_1">
   <g id="patch_2">
    <path d="M 58.106 78.7975 
L 450 78.7975 
L 450 28.32 
L 58.106 28.32 
z
" style="fill: #ffffff"/>
   </g>
   <g id="matplotlib.axis_1">
    <g id="xtick_1">
     <g id="line2d_1">
      <path d="M 75.919364 78.7975 
L 75.919364 28.32 
" clip-path="url(#p328f63f5b9)" style="fill: none; stroke: #b0b0b0; stroke-width: 0.8; stroke-linecap: square"/>
     </g>
     <g id="line2d_2">
      <defs>
       <path id="mcbeaca9a22" d="M 0 0 
L 0 3.5 
" style="stroke: #000000; stroke-width: 0.8"/>
      </defs>
      <g>
       <use xlink:href="#mcbeaca9a22" x="75.919364" y="78.7975" style="stroke: #000000; stroke-width: 0.8"/>
      </g>
     </g>
     <g id="text_1">
      <!-- 0 -->
      <g transform="translate(72.738114 93.395937)scale(0.1 -0.1)">
       <defs>
        <path id="DejaVuSans-30" d="M 2034 4250 
Q 1547 4250 1301 3770 
Q 1056 3291 1056 2328 
Q 1056 1369 1301 889 
Q 1547 409 2034 409 
Q 2525 409 2770 889 
Q 3016 1369 3016 2328 
Q 3016 3291 2770 3770 
Q 2525 4250 2034 4250 
z
M 2034 4750 
Q 2819 4750 3233 4129 
Q 3647 3509 3647 2328 
Q 3647 1150 3233 529 
Q 2819 -91 2034 -91 
Q 1250 -91 836 529 
Q 422 1150 422 2328 
Q 422 3509 836 4129 
Q 1250 4750 2034 4750 
z
" transform="scale(0.015625)"/>
       </defs>
       <use xlink:href="#DejaVuSans-30"/>
      </g>
     </g>
    </g>
    <g id="xtick_2">
     <g id="line2d_3">
      <path d="M 134.564182 78.7975 
L 134.564182 28.32 
" clip-path="url(#p328f63f5b9)" style="fill: none; stroke: #b0b0b0; stroke-width: 0.8; stroke-linecap: square"/>
     </g>
     <g id="line2d_4">
      <g>
       <use xlink:href="#mcbeaca9a22" x="134.564182" y="78.7975" style="stroke: #000000; stroke-width: 0.8"/>
      </g>
     </g>
     <g id="text_2">
      <!-- 2 -->
      <g transform="translate(131.382932 93.395937)scale(0.1 -0.1)">
       <defs>
        <path id="DejaVuSans-32" d="M 1228 531 
L 3431 531 
L 3431 0 
L 469 0 
L 469 531 
Q 828 903 1448 1529 
Q 2069 2156 2228 2338 
Q 2531 2678 2651 2914 
Q 2772 3150 2772 3378 
Q 2772 3750 2511 3984 
Q 2250 4219 1831 4219 
Q 1534 4219 1204 4116 
Q 875 4013 500 3803 
L 500 4441 
Q 881 4594 1212 4672 
Q 1544 4750 1819 4750 
Q 2544 4750 2975 4387 
Q 3406 4025 3406 3419 
Q 3406 3131 3298 2873 
Q 3191 2616 2906 2266 
Q 2828 2175 2409 1742 
Q 1991 1309 1228 531 
z
" transform="scale(0.015625)"/>
       </defs>
       <use xlink:href="#DejaVuSans-32"/>
      </g>
     </g>
    </g>
    <g id="xtick_3">
     <g id="line2d_5">
      <path d="M 193.209001 78.7975 
L 193.209001 28.32 
" clip-path="url(#p328f63f5b9)" style="fill: none; stroke: #b0b0b0; stroke-width: 0.8; stroke-linecap: square"/>
     </g>
     <g id="line2d_6">
      <g>
       <use xlink:href="#mcbeaca9a22" x="193.209001" y="78.7975" style="stroke: #000000; stroke-width: 0.8"/>
      </g>
     </g>
     <g id="text_3">
      <!-- 4 -->
      <g transform="translate(190.027751 93.395937)scale(0.1 -0.1)">
       <defs>
        <path id="DejaVuSans-34" d="M 2419 4116 
L 825 1625 
L 2419 1625 
L 2419 4116 
z
M 2253 4666 
L 3047 4666 
L 3047 1625 
L 3713 1625 
L 3713 1100 
L 3047 1100 
L 3047 0 
L 2419 0 
L 2419 1100 
L 313 1100 
L 313 1709 
L 2253 4666 
z
" transform="scale(0.015625)"/>
       </defs>
       <use xlink:href="#DejaVuSans-34"/>
      </g>
     </g>
    </g>
    <g id="xtick_4">
     <g id="line2d_7">
      <path d="M 251.853819 78.7975 
L 251.853819 28.32 
" clip-path="url(#p328f63f5b9)" style="fill: none; stroke: #b0b0b0; stroke-width: 0.8; stroke-linecap: square"/>
     </g>
     <g id="line2d_8">
      <g>
       <use xlink:href="#mcbeaca9a22" x="251.853819" y="78.7975" style="stroke: #000000; stroke-width: 0.8"/>
      </g>
     </g>
     <g id="text_4">
      <!-- 6 -->
      <g transform="translate(248.672569 93.395937)scale(0.1 -0.1)">
       <defs>
        <path id="DejaVuSans-36" d="M 2113 2584 
Q 1688 2584 1439 2293 
Q 1191 2003 1191 1497 
Q 1191 994 1439 701 
Q 1688 409 2113 409 
Q 2538 409 2786 701 
Q 3034 994 3034 1497 
Q 3034 2003 2786 2293 
Q 2538 2584 2113 2584 
z
M 3366 4563 
L 3366 3988 
Q 3128 4100 2886 4159 
Q 2644 4219 2406 4219 
Q 1781 4219 1451 3797 
Q 1122 3375 1075 2522 
Q 1259 2794 1537 2939 
Q 1816 3084 2150 3084 
Q 2853 3084 3261 2657 
Q 3669 2231 3669 1497 
Q 3669 778 3244 343 
Q 2819 -91 2113 -91 
Q 1303 -91 875 529 
Q 447 1150 447 2328 
Q 447 3434 972 4092 
Q 1497 4750 2381 4750 
Q 2619 4750 2861 4703 
Q 3103 4656 3366 4563 
z
" transform="scale(0.015625)"/>
       </defs>
       <use xlink:href="#DejaVuSans-36"/>
      </g>
     </g>
    </g>
    <g id="xtick_5">
     <g id="line2d_9">
      <path d="M 310.498638 78.7975 
L 310.498638 28.32 
" clip-path="url(#p328f63f5b9)" style="fill: none; stroke: #b0b0b0; stroke-width: 0.8; stroke-linecap: square"/>
     </g>
     <g id="line2d_10">
      <g>
       <use xlink:href="#mcbeaca9a22" x="310.498638" y="78.7975" style="stroke: #000000; stroke-width: 0.8"/>
      </g>
     </g>
     <g id="text_5">
      <!-- 8 -->
      <g transform="translate(307.317388 93.395937)scale(0.1 -0.1)">
       <defs>
        <path id="DejaVuSans-38" d="M 2034 2216 
Q 1584 2216 1326 1975 
Q 1069 1734 1069 1313 
Q 1069 891 1326 650 
Q 1584 409 2034 409 
Q 2484 409 2743 651 
Q 3003 894 3003 1313 
Q 3003 1734 2745 1975 
Q 2488 2216 2034 2216 
z
M 1403 2484 
Q 997 2584 770 2862 
Q 544 3141 544 3541 
Q 544 4100 942 4425 
Q 1341 4750 2034 4750 
Q 2731 4750 3128 4425 
Q 3525 4100 3525 3541 
Q 3525 3141 3298 2862 
Q 3072 2584 2669 2484 
Q 3125 2378 3379 2068 
Q 3634 1759 3634 1313 
Q 3634 634 3220 271 
Q 2806 -91 2034 -91 
Q 1263 -91 848 271 
Q 434 634 434 1313 
Q 434 1759 690 2068 
Q 947 2378 1403 2484 
z
M 1172 3481 
Q 1172 3119 1398 2916 
Q 1625 2713 2034 2713 
Q 2441 2713 2670 2916 
Q 2900 3119 2900 3481 
Q 2900 3844 2670 4047 
Q 2441 4250 2034 4250 
Q 1625 4250 1398 4047 
Q 1172 3844 1172 3481 
z
" transform="scale(0.015625)"/>
       </defs>
       <use xlink:href="#DejaVuSans-38"/>
      </g>
     </g>
    </g>
    <g id="xtick_6">
     <g id="line2d_11">
      <path d="M 369.143456 78.7975 
L 369.143456 28.32 
" clip-path="url(#p328f63f5b9)" style="fill: none; stroke: #b0b0b0; stroke-width: 0.8; stroke-linecap: square"/>
     </g>
     <g id="line2d_12">
      <g>
       <use xlink:href="#mcbeaca9a22" x="369.143456" y="78.7975" style="stroke: #000000; stroke-width: 0.8"/>
      </g>
     </g>
     <g id="text_6">
      <!-- 10 -->
      <g transform="translate(362.780956 93.395937)scale(0.1 -0.1)">
       <defs>
        <path id="DejaVuSans-31" d="M 794 531 
L 1825 531 
L 1825 4091 
L 703 3866 
L 703 4441 
L 1819 4666 
L 2450 4666 
L 2450 531 
L 3481 531 
L 3481 0 
L 794 0 
L 794 531 
z
" transform="scale(0.015625)"/>
       </defs>
       <use xlink:href="#DejaVuSans-31"/>
       <use xlink:href="#DejaVuSans-30" x="63.623047"/>
      </g>
     </g>
    </g>
    <g id="xtick_7">
     <g id="line2d_13">
      <path d="M 427.788275 78.7975 
L 427.788275 28.32 
" clip-path="url(#p328f63f5b9)" style="fill: none; stroke: #b0b0b0; stroke-width: 0.8; stroke-linecap: square"/>
     </g>
     <g id="line2d_14">
      <g>
       <use xlink:href="#mcbeaca9a22" x="427.788275" y="78.7975" style="stroke: #000000; stroke-width: 0.8"/>
      </g>
     </g>
     <g id="text_7">
      <!-- 12 -->
      <g transform="translate(421.425775 93.395937)scale(0.1 -0.1)">
       <use xlink:href="#DejaVuSans-31"/>
       <use xlink:href="#DejaVuSans-32" x="63.623047"/>
      </g>
     </g>
    </g>
    <g id="text_8">
     <!-- $t$ [s] -->
     <g transform="translate(243.953 107.074062)scale(0.1 -0.1)">
      <defs>
       <path id="DejaVuSans-Oblique-74" d="M 2706 3500 
L 2619 3053 
L 1472 3053 
L 1100 1153 
Q 1081 1047 1072 975 
Q 1063 903 1063 863 
Q 1063 663 1183 572 
Q 1303 481 1569 481 
L 2150 481 
L 2053 0 
L 1503 0 
Q 991 0 739 200 
Q 488 400 488 806 
Q 488 878 497 964 
Q 506 1050 525 1153 
L 897 3053 
L 409 3053 
L 500 3500 
L 978 3500 
L 1172 4494 
L 1747 4494 
L 1556 3500 
L 2706 3500 
z
" transform="scale(0.015625)"/>
       <path id="DejaVuSans-20" transform="scale(0.015625)"/>
       <path id="DejaVuSans-5b" d="M 550 4863 
L 1875 4863 
L 1875 4416 
L 1125 4416 
L 1125 -397 
L 1875 -397 
L 1875 -844 
L 550 -844 
L 550 4863 
z
" transform="scale(0.015625)"/>
       <path id="DejaVuSans-73" d="M 2834 3397 
L 2834 2853 
Q 2591 2978 2328 3040 
Q 2066 3103 1784 3103 
Q 1356 3103 1142 2972 
Q 928 2841 928 2578 
Q 928 2378 1081 2264 
Q 1234 2150 1697 2047 
L 1894 2003 
Q 2506 1872 2764 1633 
Q 3022 1394 3022 966 
Q 3022 478 2636 193 
Q 2250 -91 1575 -91 
Q 1294 -91 989 -36 
Q 684 19 347 128 
L 347 722 
Q 666 556 975 473 
Q 1284 391 1588 391 
Q 1994 391 2212 530 
Q 2431 669 2431 922 
Q 2431 1156 2273 1281 
Q 2116 1406 1581 1522 
L 1381 1569 
Q 847 1681 609 1914 
Q 372 2147 372 2553 
Q 372 3047 722 3315 
Q 1072 3584 1716 3584 
Q 2034 3584 2315 3537 
Q 2597 3491 2834 3397 
z
" transform="scale(0.015625)"/>
       <path id="DejaVuSans-5d" d="M 1947 4863 
L 1947 -844 
L 622 -844 
L 622 -397 
L 1369 -397 
L 1369 4416 
L 622 4416 
L 622 4863 
L 1947 4863 
z
" transform="scale(0.015625)"/>
      </defs>
      <use xlink:href="#DejaVuSans-Oblique-74" transform="translate(0 0.015625)"/>
      <use xlink:href="#DejaVuSans-20" transform="translate(39.208984 0.015625)"/>
      <use xlink:href="#DejaVuSans-5b" transform="translate(70.996094 0.015625)"/>
      <use xlink:href="#DejaVuSans-73" transform="translate(110.009766 0.015625)"/>
      <use xlink:href="#DejaVuSans-5d" transform="translate(162.109375 0.015625)"/>
     </g>
    </g>
   </g>
   <g id="matplotlib.axis_2">
    <g id="ytick_1">
     <g id="line2d_15">
      <path d="M 58.106 76.392564 
L 450 76.392564 
" clip-path="url(#p328f63f5b9)" style="fill: none; stroke: #b0b0b0; stroke-width: 0.8; stroke-linecap: square"/>
     </g>
     <g id="line2d_16">
      <defs>
       <path id="m9ceb06af37" d="M 0 0 
L -3.5 0 
" style="stroke: #000000; stroke-width: 0.8"/>
      </defs>
      <g>
       <use xlink:href="#m9ceb06af37" x="58.106" y="76.392564" style="stroke: #000000; stroke-width: 0.8"/>
      </g>
     </g>
     <g id="text_9">
      <!-- 0 -->
      <g transform="translate(44.7435 80.191783)scale(0.1 -0.1)">
       <use xlink:href="#DejaVuSans-30"/>
      </g>
     </g>
    </g>
    <g id="ytick_2">
     <g id="line2d_17">
      <path d="M 58.106 30.614432 
L 450 30.614432 
" clip-path="url(#p328f63f5b9)" style="fill: none; stroke: #b0b0b0; stroke-width: 0.8; stroke-linecap: square"/>
     </g>
     <g id="line2d_18">
      <g>
       <use xlink:href="#m9ceb06af37" x="58.106" y="30.614432" style="stroke: #000000; stroke-width: 0.8"/>
      </g>
     </g>
     <g id="text_10">
      <!-- 10 -->
      <g transform="translate(38.381 34.413651)scale(0.1 -0.1)">
       <use xlink:href="#DejaVuSans-31"/>
       <use xlink:href="#DejaVuSans-30" x="63.623047"/>
      </g>
     </g>
    </g>
    <g id="text_11">
     <!-- $e_x$ [m] -->
     <g transform="translate(32.301313 69.20875)rotate(-90)scale(0.1 -0.1)">
      <defs>
       <path id="DejaVuSans-Oblique-65" d="M 3078 2063 
Q 3088 2113 3092 2166 
Q 3097 2219 3097 2272 
Q 3097 2653 2873 2875 
Q 2650 3097 2266 3097 
Q 1838 3097 1509 2826 
Q 1181 2556 1013 2059 
L 3078 2063 
z
M 3578 1613 
L 903 1613 
Q 884 1494 878 1425 
Q 872 1356 872 1306 
Q 872 872 1139 634 
Q 1406 397 1894 397 
Q 2269 397 2603 481 
Q 2938 566 3225 728 
L 3116 159 
Q 2806 34 2476 -28 
Q 2147 -91 1806 -91 
Q 1078 -91 686 257 
Q 294 606 294 1247 
Q 294 1794 489 2264 
Q 684 2734 1063 3103 
Q 1306 3334 1642 3459 
Q 1978 3584 2356 3584 
Q 2950 3584 3301 3228 
Q 3653 2872 3653 2272 
Q 3653 2128 3634 1964 
Q 3616 1800 3578 1613 
z
" transform="scale(0.015625)"/>
       <path id="DejaVuSans-Oblique-78" d="M 3841 3500 
L 2234 1784 
L 3219 0 
L 2559 0 
L 1819 1388 
L 531 0 
L -166 0 
L 1556 1844 
L 641 3500 
L 1300 3500 
L 1972 2234 
L 3144 3500 
L 3841 3500 
z
" transform="scale(0.015625)"/>
       <path id="DejaVuSans-6d" d="M 3328 2828 
Q 3544 3216 3844 3400 
Q 4144 3584 4550 3584 
Q 5097 3584 5394 3201 
Q 5691 2819 5691 2113 
L 5691 0 
L 5113 0 
L 5113 2094 
Q 5113 2597 4934 2840 
Q 4756 3084 4391 3084 
Q 3944 3084 3684 2787 
Q 3425 2491 3425 1978 
L 3425 0 
L 2847 0 
L 2847 2094 
Q 2847 2600 2669 2842 
Q 2491 3084 2119 3084 
Q 1678 3084 1418 2786 
Q 1159 2488 1159 1978 
L 1159 0 
L 581 0 
L 581 3500 
L 1159 3500 
L 1159 2956 
Q 1356 3278 1631 3431 
Q 1906 3584 2284 3584 
Q 2666 3584 2933 3390 
Q 3200 3197 3328 2828 
z
" transform="scale(0.015625)"/>
      </defs>
      <use xlink:href="#DejaVuSans-Oblique-65" transform="translate(0 0.015625)"/>
      <use xlink:href="#DejaVuSans-Oblique-78" transform="translate(61.523438 -16.390625)scale(0.7)"/>
      <use xlink:href="#DejaVuSans-20" transform="translate(105.683594 0.015625)"/>
      <use xlink:href="#DejaVuSans-5b" transform="translate(137.470703 0.015625)"/>
      <use xlink:href="#DejaVuSans-6d" transform="translate(176.484375 0.015625)"/>
      <use xlink:href="#DejaVuSans-5d" transform="translate(273.896484 0.015625)"/>
     </g>
    </g>
   </g>
   <g id="line2d_19">
    <path d="M 75.919364 30.614432 
L 82.962539 30.724584 
L 87.951454 30.956056 
L 91.473042 31.064156 
L 95.875026 31.248713 
L 97.048889 31.344017 
L 99.983545 31.648585 
L 102.624736 31.977133 
L 104.38553 32.252354 
L 105.265926 32.350452 
L 108.787514 32.848989 
L 124.047727 35.65136 
L 124.928124 35.866848 
L 126.982383 36.337742 
L 129.917039 37.079206 
L 131.677833 37.522604 
L 134.319024 38.260485 
L 134.612489 38.260485 
L 135.492886 38.543821 
L 137.547146 39.115293 
L 138.134077 39.21068 
L 139.014474 39.528179 
L 139.894871 39.686411 
L 140.775267 39.969682 
L 143.122993 40.619243 
L 143.416458 40.619243 
L 144.296855 40.891716 
L 145.764183 41.248596 
L 147.818443 41.768643 
L 149.872702 42.270433 
L 151.046564 42.461932 
L 151.34003 42.625136 
L 152.513893 42.841922 
L 153.39429 43.058166 
L 156.03548 43.651295 
L 156.915877 43.866162 
L 159.557068 44.45163 
L 160.437465 44.661637 
L 163.372121 45.276847 
L 164.252518 45.476741 
L 166.306777 45.896064 
L 167.187174 46.140408 
L 168.067571 46.261887 
L 169.241433 46.5511 
L 170.12183 46.718452 
L 173.056487 47.293102 
L 173.936883 47.485398 
L 176.87154 48.046688 
L 177.751937 48.226513 
L 180.393127 48.718685 
L 181.273524 48.898807 
L 183.914715 49.362813 
L 184.501646 49.513462 
L 187.142837 49.990251 
L 188.023234 50.167826 
L 190.370959 50.610163 
L 191.251356 50.782426 
L 193.892546 51.252154 
L 194.772943 51.428107 
L 197.414134 51.921051 
L 198.294531 52.097476 
L 200.935721 52.572086 
L 201.816118 52.746823 
L 204.457309 53.238943 
L 205.337706 53.416521 
L 208.565828 53.975653 
L 210.033156 54.300181 
L 210.620087 54.387958 
L 213.554743 54.910741 
L 214.43514 55.079014 
L 217.076331 55.532507 
L 217.956728 55.6997 
L 220.597918 56.1642 
L 221.478315 56.329339 
L 223.82604 56.728776 
L 224.706437 56.888136 
L 227.641093 57.382546 
L 228.52149 57.548204 
L 232.336544 58.185019 
L 236.445062 58.941032 
L 237.031994 59.021766 
L 241.140512 59.692565 
L 244.955566 60.379512 
L 246.129428 60.553546 
L 250.237947 61.253193 
L 251.118344 61.393307 
L 253.759534 61.83739 
L 254.933397 61.967008 
L 255.520328 62.096133 
L 258.454984 62.572301 
L 261.096175 62.99595 
L 264.911228 63.564612 
L 266.085091 63.765113 
L 269.019747 64.238915 
L 271.954403 64.697038 
L 275.475991 65.178938 
L 276.943319 65.452774 
L 277.823716 65.562153 
L 283.106097 66.276816 
L 283.693028 66.391366 
L 286.627685 66.783188 
L 287.214616 66.901967 
L 292.203532 67.577235 
L 296.898982 68.226249 
L 301.594432 68.814421 
L 302.768294 68.973367 
L 306.876813 69.522061 
L 308.050676 69.665964 
L 311.865729 70.143286 
L 313.333057 70.349975 
L 318.321973 70.983238 
L 319.495835 71.132471 
L 323.310888 71.63757 
L 326.53901 72.044573 
L 330.354063 72.521733 
L 336.516842 73.280665 
L 337.98417 73.474073 
L 338.864567 73.574853 
L 343.853482 74.175898 
L 347.962001 74.582533 
L 364.396076 75.846722 
L 376.721633 76.209965 
L 385.819067 76.151708 
L 398.731555 75.889419 
L 404.307402 75.773729 
L 419.86108 75.876064 
L 431.893171 76.503068 
L 432.186636 76.503068 
L 432.186636 76.503068 
" clip-path="url(#p328f63f5b9)" style="fill: none; stroke: #ff0000; stroke-width: 1.5; stroke-linecap: square"/>
   </g>
   <g id="patch_3">
    <path d="M 58.106 78.7975 
L 58.106 28.32 
" style="fill: none; stroke: #000000; stroke-width: 0.8; stroke-linejoin: miter; stroke-linecap: square"/>
   </g>
   <g id="patch_4">
    <path d="M 450 78.7975 
L 450 28.32 
" style="fill: none; stroke: #000000; stroke-width: 0.8; stroke-linejoin: miter; stroke-linecap: square"/>
   </g>
   <g id="patch_5">
    <path d="M 58.106 78.7975 
L 450 78.7975 
" style="fill: none; stroke: #000000; stroke-width: 0.8; stroke-linejoin: miter; stroke-linecap: square"/>
   </g>
   <g id="patch_6">
    <path d="M 58.106 28.32 
L 450 28.32 
" style="fill: none; stroke: #000000; stroke-width: 0.8; stroke-linejoin: miter; stroke-linecap: square"/>
   </g>
   <g id="text_12">
    <!-- Error in $x$-position -->
    <g transform="translate(200.413 22.32)scale(0.12 -0.12)">
     <defs>
      <path id="DejaVuSans-45" d="M 628 4666 
L 3578 4666 
L 3578 4134 
L 1259 4134 
L 1259 2753 
L 3481 2753 
L 3481 2222 
L 1259 2222 
L 1259 531 
L 3634 531 
L 3634 0 
L 628 0 
L 628 4666 
z
" transform="scale(0.015625)"/>
      <path id="DejaVuSans-72" d="M 2631 2963 
Q 2534 3019 2420 3045 
Q 2306 3072 2169 3072 
Q 1681 3072 1420 2755 
Q 1159 2438 1159 1844 
L 1159 0 
L 581 0 
L 581 3500 
L 1159 3500 
L 1159 2956 
Q 1341 3275 1631 3429 
Q 1922 3584 2338 3584 
Q 2397 3584 2469 3576 
Q 2541 3569 2628 3553 
L 2631 2963 
z
" transform="scale(0.015625)"/>
      <path id="DejaVuSans-6f" d="M 1959 3097 
Q 1497 3097 1228 2736 
Q 959 2375 959 1747 
Q 959 1119 1226 758 
Q 1494 397 1959 397 
Q 2419 397 2687 759 
Q 2956 1122 2956 1747 
Q 2956 2369 2687 2733 
Q 2419 3097 1959 3097 
z
M 1959 3584 
Q 2709 3584 3137 3096 
Q 3566 2609 3566 1747 
Q 3566 888 3137 398 
Q 2709 -91 1959 -91 
Q 1206 -91 779 398 
Q 353 888 353 1747 
Q 353 2609 779 3096 
Q 1206 3584 1959 3584 
z
" transform="scale(0.015625)"/>
      <path id="DejaVuSans-69" d="M 603 3500 
L 1178 3500 
L 1178 0 
L 603 0 
L 603 3500 
z
M 603 4863 
L 1178 4863 
L 1178 4134 
L 603 4134 
L 603 4863 
z
" transform="scale(0.015625)"/>
      <path id="DejaVuSans-6e" d="M 3513 2113 
L 3513 0 
L 2938 0 
L 2938 2094 
Q 2938 2591 2744 2837 
Q 2550 3084 2163 3084 
Q 1697 3084 1428 2787 
Q 1159 2491 1159 1978 
L 1159 0 
L 581 0 
L 581 3500 
L 1159 3500 
L 1159 2956 
Q 1366 3272 1645 3428 
Q 1925 3584 2291 3584 
Q 2894 3584 3203 3211 
Q 3513 2838 3513 2113 
z
" transform="scale(0.015625)"/>
      <path id="DejaVuSans-2d" d="M 313 2009 
L 1997 2009 
L 1997 1497 
L 313 1497 
L 313 2009 
z
" transform="scale(0.015625)"/>
      <path id="DejaVuSans-70" d="M 1159 525 
L 1159 -1331 
L 581 -1331 
L 581 3500 
L 1159 3500 
L 1159 2969 
Q 1341 3281 1617 3432 
Q 1894 3584 2278 3584 
Q 2916 3584 3314 3078 
Q 3713 2572 3713 1747 
Q 3713 922 3314 415 
Q 2916 -91 2278 -91 
Q 1894 -91 1617 61 
Q 1341 213 1159 525 
z
M 3116 1747 
Q 3116 2381 2855 2742 
Q 2594 3103 2138 3103 
Q 1681 3103 1420 2742 
Q 1159 2381 1159 1747 
Q 1159 1113 1420 752 
Q 1681 391 2138 391 
Q 2594 391 2855 752 
Q 3116 1113 3116 1747 
z
" transform="scale(0.015625)"/>
      <path id="DejaVuSans-74" d="M 1172 4494 
L 1172 3500 
L 2356 3500 
L 2356 3053 
L 1172 3053 
L 1172 1153 
Q 1172 725 1289 603 
Q 1406 481 1766 481 
L 2356 481 
L 2356 0 
L 1766 0 
Q 1100 0 847 248 
Q 594 497 594 1153 
L 594 3053 
L 172 3053 
L 172 3500 
L 594 3500 
L 594 4494 
L 1172 4494 
z
" transform="scale(0.015625)"/>
     </defs>
     <use xlink:href="#DejaVuSans-45" transform="translate(0 0.015625)"/>
     <use xlink:href="#DejaVuSans-72" transform="translate(63.183594 0.015625)"/>
     <use xlink:href="#DejaVuSans-72" transform="translate(104.296875 0.015625)"/>
     <use xlink:href="#DejaVuSans-6f" transform="translate(145.410156 0.015625)"/>
     <use xlink:href="#DejaVuSans-72" transform="translate(206.591797 0.015625)"/>
     <use xlink:href="#DejaVuSans-20" transform="translate(247.705078 0.015625)"/>
     <use xlink:href="#DejaVuSans-69" transform="translate(279.492188 0.015625)"/>
     <use xlink:href="#DejaVuSans-6e" transform="translate(307.275391 0.015625)"/>
     <use xlink:href="#DejaVuSans-20" transform="translate(370.654297 0.015625)"/>
     <use xlink:href="#DejaVuSans-Oblique-78" transform="translate(402.441406 0.015625)"/>
     <use xlink:href="#DejaVuSans-2d" transform="translate(461.621094 0.015625)"/>
     <use xlink:href="#DejaVuSans-70" transform="translate(497.705078 0.015625)"/>
     <use xlink:href="#DejaVuSans-6f" transform="translate(561.181641 0.015625)"/>
     <use xlink:href="#DejaVuSans-73" transform="translate(622.363281 0.015625)"/>
     <use xlink:href="#DejaVuSans-69" transform="translate(674.462891 0.015625)"/>
     <use xlink:href="#DejaVuSans-74" transform="translate(702.246094 0.015625)"/>
     <use xlink:href="#DejaVuSans-69" transform="translate(741.455078 0.015625)"/>
     <use xlink:href="#DejaVuSans-6f" transform="translate(769.238281 0.015625)"/>
     <use xlink:href="#DejaVuSans-6e" transform="translate(830.419922 0.015625)"/>
    </g>
   </g>
  </g>
  <g id="axes_2">
   <g id="patch_7">
    <path d="M 58.106 190.3975 
L 450 190.3975 
L 450 139.92 
L 58.106 139.92 
z
" style="fill: #ffffff"/>
   </g>
   <g id="matplotlib.axis_3">
    <g id="xtick_8">
     <g id="line2d_20">
      <path d="M 75.919364 190.3975 
L 75.919364 139.92 
" clip-path="url(#pd61e944ead)" style="fill: none; stroke: #b0b0b0; stroke-width: 0.8; stroke-linecap: square"/>
     </g>
     <g id="line2d_21">
      <g>
       <use xlink:href="#mcbeaca9a22" x="75.919364" y="190.3975" style="stroke: #000000; stroke-width: 0.8"/>
      </g>
     </g>
     <g id="text_13">
      <!-- 0 -->
      <g transform="translate(72.738114 204.995937)scale(0.1 -0.1)">
       <use xlink:href="#DejaVuSans-30"/>
      </g>
     </g>
    </g>
    <g id="xtick_9">
     <g id="line2d_22">
      <path d="M 134.564182 190.3975 
L 134.564182 139.92 
" clip-path="url(#pd61e944ead)" style="fill: none; stroke: #b0b0b0; stroke-width: 0.8; stroke-linecap: square"/>
     </g>
     <g id="line2d_23">
      <g>
       <use xlink:href="#mcbeaca9a22" x="134.564182" y="190.3975" style="stroke: #000000; stroke-width: 0.8"/>
      </g>
     </g>
     <g id="text_14">
      <!-- 2 -->
      <g transform="translate(131.382932 204.995937)scale(0.1 -0.1)">
       <use xlink:href="#DejaVuSans-32"/>
      </g>
     </g>
    </g>
    <g id="xtick_10">
     <g id="line2d_24">
      <path d="M 193.209001 190.3975 
L 193.209001 139.92 
" clip-path="url(#pd61e944ead)" style="fill: none; stroke: #b0b0b0; stroke-width: 0.8; stroke-linecap: square"/>
     </g>
     <g id="line2d_25">
      <g>
       <use xlink:href="#mcbeaca9a22" x="193.209001" y="190.3975" style="stroke: #000000; stroke-width: 0.8"/>
      </g>
     </g>
     <g id="text_15">
      <!-- 4 -->
      <g transform="translate(190.027751 204.995937)scale(0.1 -0.1)">
       <use xlink:href="#DejaVuSans-34"/>
      </g>
     </g>
    </g>
    <g id="xtick_11">
     <g id="line2d_26">
      <path d="M 251.853819 190.3975 
L 251.853819 139.92 
" clip-path="url(#pd61e944ead)" style="fill: none; stroke: #b0b0b0; stroke-width: 0.8; stroke-linecap: square"/>
     </g>
     <g id="line2d_27">
      <g>
       <use xlink:href="#mcbeaca9a22" x="251.853819" y="190.3975" style="stroke: #000000; stroke-width: 0.8"/>
      </g>
     </g>
     <g id="text_16">
      <!-- 6 -->
      <g transform="translate(248.672569 204.995937)scale(0.1 -0.1)">
       <use xlink:href="#DejaVuSans-36"/>
      </g>
     </g>
    </g>
    <g id="xtick_12">
     <g id="line2d_28">
      <path d="M 310.498638 190.3975 
L 310.498638 139.92 
" clip-path="url(#pd61e944ead)" style="fill: none; stroke: #b0b0b0; stroke-width: 0.8; stroke-linecap: square"/>
     </g>
     <g id="line2d_29">
      <g>
       <use xlink:href="#mcbeaca9a22" x="310.498638" y="190.3975" style="stroke: #000000; stroke-width: 0.8"/>
      </g>
     </g>
     <g id="text_17">
      <!-- 8 -->
      <g transform="translate(307.317388 204.995937)scale(0.1 -0.1)">
       <use xlink:href="#DejaVuSans-38"/>
      </g>
     </g>
    </g>
    <g id="xtick_13">
     <g id="line2d_30">
      <path d="M 369.143456 190.3975 
L 369.143456 139.92 
" clip-path="url(#pd61e944ead)" style="fill: none; stroke: #b0b0b0; stroke-width: 0.8; stroke-linecap: square"/>
     </g>
     <g id="line2d_31">
      <g>
       <use xlink:href="#mcbeaca9a22" x="369.143456" y="190.3975" style="stroke: #000000; stroke-width: 0.8"/>
      </g>
     </g>
     <g id="text_18">
      <!-- 10 -->
      <g transform="translate(362.780956 204.995937)scale(0.1 -0.1)">
       <use xlink:href="#DejaVuSans-31"/>
       <use xlink:href="#DejaVuSans-30" x="63.623047"/>
      </g>
     </g>
    </g>
    <g id="xtick_14">
     <g id="line2d_32">
      <path d="M 427.788275 190.3975 
L 427.788275 139.92 
" clip-path="url(#pd61e944ead)" style="fill: none; stroke: #b0b0b0; stroke-width: 0.8; stroke-linecap: square"/>
     </g>
     <g id="line2d_33">
      <g>
       <use xlink:href="#mcbeaca9a22" x="427.788275" y="190.3975" style="stroke: #000000; stroke-width: 0.8"/>
      </g>
     </g>
     <g id="text_19">
      <!-- 12 -->
      <g transform="translate(421.425775 204.995937)scale(0.1 -0.1)">
       <use xlink:href="#DejaVuSans-31"/>
       <use xlink:href="#DejaVuSans-32" x="63.623047"/>
      </g>
     </g>
    </g>
    <g id="text_20">
     <!-- $t$ [s] -->
     <g transform="translate(243.953 218.674062)scale(0.1 -0.1)">
      <use xlink:href="#DejaVuSans-Oblique-74" transform="translate(0 0.015625)"/>
      <use xlink:href="#DejaVuSans-20" transform="translate(39.208984 0.015625)"/>
      <use xlink:href="#DejaVuSans-5b" transform="translate(70.996094 0.015625)"/>
      <use xlink:href="#DejaVuSans-73" transform="translate(110.009766 0.015625)"/>
      <use xlink:href="#DejaVuSans-5d" transform="translate(162.109375 0.015625)"/>
     </g>
    </g>
   </g>
   <g id="matplotlib.axis_4">
    <g id="ytick_3">
     <g id="line2d_34">
      <path d="M 58.106 180.431321 
L 450 180.431321 
" clip-path="url(#pd61e944ead)" style="fill: none; stroke: #b0b0b0; stroke-width: 0.8; stroke-linecap: square"/>
     </g>
     <g id="line2d_35">
      <g>
       <use xlink:href="#m9ceb06af37" x="58.106" y="180.431321" style="stroke: #000000; stroke-width: 0.8"/>
      </g>
     </g>
     <g id="text_21">
      <!-- −0.1 -->
      <g transform="translate(26.823188 184.23054)scale(0.1 -0.1)">
       <defs>
        <path id="DejaVuSans-2212" d="M 678 2272 
L 4684 2272 
L 4684 1741 
L 678 1741 
L 678 2272 
z
" transform="scale(0.015625)"/>
        <path id="DejaVuSans-2e" d="M 684 794 
L 1344 794 
L 1344 0 
L 684 0 
L 684 794 
z
" transform="scale(0.015625)"/>
       </defs>
       <use xlink:href="#DejaVuSans-2212"/>
       <use xlink:href="#DejaVuSans-30" x="83.789062"/>
       <use xlink:href="#DejaVuSans-2e" x="147.412109"/>
       <use xlink:href="#DejaVuSans-31" x="179.199219"/>
      </g>
     </g>
    </g>
    <g id="ytick_4">
     <g id="line2d_36">
      <path d="M 58.106 165.542454 
L 450 165.542454 
" clip-path="url(#pd61e944ead)" style="fill: none; stroke: #b0b0b0; stroke-width: 0.8; stroke-linecap: square"/>
     </g>
     <g id="line2d_37">
      <g>
       <use xlink:href="#m9ceb06af37" x="58.106" y="165.542454" style="stroke: #000000; stroke-width: 0.8"/>
      </g>
     </g>
     <g id="text_22">
      <!-- 0.0 -->
      <g transform="translate(35.202875 169.341673)scale(0.1 -0.1)">
       <use xlink:href="#DejaVuSans-30"/>
       <use xlink:href="#DejaVuSans-2e" x="63.623047"/>
       <use xlink:href="#DejaVuSans-30" x="95.410156"/>
      </g>
     </g>
    </g>
    <g id="ytick_5">
     <g id="line2d_38">
      <path d="M 58.106 150.653586 
L 450 150.653586 
" clip-path="url(#pd61e944ead)" style="fill: none; stroke: #b0b0b0; stroke-width: 0.8; stroke-linecap: square"/>
     </g>
     <g id="line2d_39">
      <g>
       <use xlink:href="#m9ceb06af37" x="58.106" y="150.653586" style="stroke: #000000; stroke-width: 0.8"/>
      </g>
     </g>
     <g id="text_23">
      <!-- 0.1 -->
      <g transform="translate(35.202875 154.452805)scale(0.1 -0.1)">
       <use xlink:href="#DejaVuSans-30"/>
       <use xlink:href="#DejaVuSans-2e" x="63.623047"/>
       <use xlink:href="#DejaVuSans-31" x="95.410156"/>
      </g>
     </g>
    </g>
    <g id="text_24">
     <!-- $e_z$ [m] -->
     <g transform="translate(20.7435 180.60875)rotate(-90)scale(0.1 -0.1)">
      <defs>
       <path id="DejaVuSans-Oblique-7a" d="M 744 3500 
L 3475 3500 
L 3372 2975 
L 738 459 
L 2913 459 
L 2822 0 
L -19 0 
L 84 525 
L 2719 3041 
L 653 3041 
L 744 3500 
z
" transform="scale(0.015625)"/>
      </defs>
      <use xlink:href="#DejaVuSans-Oblique-65" transform="translate(0 0.015625)"/>
      <use xlink:href="#DejaVuSans-Oblique-7a" transform="translate(61.523438 -16.390625)scale(0.7)"/>
      <use xlink:href="#DejaVuSans-20" transform="translate(101.000977 0.015625)"/>
      <use xlink:href="#DejaVuSans-5b" transform="translate(132.788086 0.015625)"/>
      <use xlink:href="#DejaVuSans-6d" transform="translate(171.801758 0.015625)"/>
      <use xlink:href="#DejaVuSans-5d" transform="translate(269.213867 0.015625)"/>
     </g>
    </g>
   </g>
   <g id="line2d_40">
    <path d="M 75.919364 167.007751 
L 76.212829 166.738445 
L 76.799761 166.534161 
L 77.093226 166.388438 
L 77.386692 166.102883 
L 77.680157 166.102883 
L 77.973623 165.731249 
L 79.734417 165.435317 
L 80.614814 165.620365 
L 80.908279 165.819139 
L 81.201745 165.819139 
L 81.788676 165.971525 
L 82.375607 165.963916 
L 83.842936 165.364839 
L 85.897195 163.454587 
L 86.190661 163.035954 
L 86.484126 163.035954 
L 86.777592 162.658122 
L 87.657989 162.023745 
L 87.951454 161.603925 
L 88.24492 161.603925 
L 88.831851 160.816854 
L 89.125317 160.504501 
L 89.418783 159.989412 
L 89.712248 159.226044 
L 90.005714 159.226044 
L 90.299179 158.416448 
L 90.592645 158.004998 
L 91.179576 156.790526 
L 91.473042 156.597827 
L 91.766508 156.227024 
L 92.059973 155.55896 
L 93.233836 154.501098 
L 94.114233 154.157604 
L 94.701164 154.033165 
L 97.342355 154.071574 
L 99.103148 154.352201 
L 100.863942 154.815539 
L 102.624736 154.71516 
L 104.092064 153.88025 
L 104.38553 153.471936 
L 104.678995 153.471936 
L 104.972461 153.003071 
L 105.559392 152.486032 
L 106.146323 151.548764 
L 106.439789 151.548764 
L 106.733255 151.042366 
L 108.494048 149.725826 
L 109.961377 149.131183 
L 111.135239 148.245352 
L 111.72217 147.982425 
L 112.015636 147.632168 
L 112.896033 147.087405 
L 113.189498 146.832876 
L 113.482964 146.832876 
L 114.069895 146.514885 
L 114.950292 146.186563 
L 115.537223 145.896382 
L 116.41762 145.480522 
L 117.004552 145.042608 
L 118.47188 144.126939 
L 118.765345 143.801329 
L 121.406536 142.515187 
L 122.873864 142.215528 
L 124.047727 142.311383 
L 125.80852 143.095843 
L 126.395452 143.621546 
L 127.275849 144.321496 
L 127.569314 144.73257 
L 130.797436 146.869717 
L 131.677833 147.300868 
L 132.55823 148.156321 
L 132.851696 148.156321 
L 133.145161 148.62972 
L 133.438627 148.88568 
L 134.319024 150.137767 
L 134.612489 150.137767 
L 134.905955 150.705653 
L 135.492886 151.379411 
L 136.079817 152.09485 
L 136.373283 152.09485 
L 136.666749 152.502577 
L 138.721008 153.898141 
L 139.014474 154.137521 
L 139.601405 154.397135 
L 139.894871 154.58233 
L 140.188336 154.981345 
L 140.775267 155.518196 
L 141.068733 155.849518 
L 141.655664 156.179265 
L 141.94913 156.602426 
L 142.829527 157.33425 
L 143.122993 157.557415 
L 143.416458 157.557415 
L 144.003389 157.920785 
L 144.883786 158.250296 
L 146.057649 158.711324 
L 147.818443 159.77701 
L 148.111908 160.019173 
L 148.698839 160.266216 
L 149.285771 160.764464 
L 149.872702 161.251235 
L 150.459633 161.489672 
L 150.753099 161.805803 
L 151.046564 161.805803 
L 151.34003 162.293275 
L 151.926961 162.55412 
L 152.513893 163.025508 
L 153.100824 163.668466 
L 153.687755 164.16095 
L 154.274686 165.156248 
L 154.568152 165.156248 
L 154.861618 165.799057 
L 155.742015 166.854203 
L 156.915877 168.930067 
L 157.796274 170.206085 
L 158.08974 170.880756 
L 159.557068 172.481526 
L 159.850533 172.989493 
L 161.611327 174.58131 
L 161.904793 175.083115 
L 163.372121 176.459496 
L 163.665586 176.956862 
L 165.132915 178.260665 
L 165.42638 178.686782 
L 167.187174 179.881585 
L 169.534899 180.103021 
L 170.415296 180.194014 
L 171.002227 180.364799 
L 171.295693 180.566971 
L 171.589158 180.566971 
L 172.17609 180.926858 
L 173.936883 181.53619 
L 174.81728 181.488464 
L 175.697677 181.297279 
L 177.165005 181.211342 
L 178.045402 181.356375 
L 178.338868 181.50826 
L 178.632334 181.50826 
L 178.925799 181.741664 
L 180.686593 181.894572 
L 181.860455 181.667276 
L 183.034318 181.318078 
L 184.501646 181.168673 
L 185.382043 181.312578 
L 188.023234 182.472998 
L 188.903631 182.481753 
L 192.718684 182.061659 
L 193.892546 182.635486 
L 194.186012 182.969657 
L 194.479477 182.969657 
L 194.772943 183.322444 
L 196.533737 184.329026 
L 198.001065 184.583579 
L 199.761859 184.824019 
L 200.642256 185.063747 
L 202.696515 186.268121 
L 202.989981 186.513207 
L 203.283446 186.513207 
L 203.870378 186.772303 
L 205.04424 186.879318 
L 207.978896 186.529024 
L 208.565828 186.587706 
L 210.033156 187.060879 
L 210.620087 187.152783 
L 211.500484 187.192068 
L 213.554743 186.706171 
L 214.141675 186.510398 
L 215.022071 186.426879 
L 215.609003 186.542735 
L 216.782865 186.880113 
L 217.956728 187.357774 
L 219.13059 187.486234 
L 220.304453 187.271927 
L 221.478315 186.855781 
L 222.945643 186.599982 
L 223.82604 186.693838 
L 224.706437 186.976385 
L 227.054162 187.617629 
L 227.934559 187.535525 
L 229.108422 187.268816 
L 229.401887 187.140245 
L 229.695353 187.140245 
L 230.282284 186.950066 
L 231.162681 186.835263 
L 231.749612 186.894554 
L 232.630009 187.138994 
L 232.923475 187.327773 
L 233.21694 187.327773 
L 233.803872 187.626388 
L 235.2712 187.984139 
L 235.858131 187.947998 
L 236.445062 187.777819 
L 237.031994 187.669744 
L 238.792787 187.452957 
L 239.96665 187.612513 
L 240.847047 187.833593 
L 242.60784 188.103068 
L 244.075169 187.892222 
L 246.422894 187.652483 
L 248.183687 187.581439 
L 251.411809 187.208578 
L 254.346466 187.393844 
L 255.813794 186.970317 
L 256.694191 186.53266 
L 257.574588 186.044867 
L 257.868053 186.044867 
L 258.454984 185.731904 
L 259.041916 185.4957 
L 260.509244 185.411408 
L 262.563503 185.614724 
L 263.737366 185.494939 
L 264.030831 185.262648 
L 264.617763 185.110038 
L 265.49816 184.795651 
L 265.791625 184.501772 
L 266.672022 184.255317 
L 267.258953 183.967589 
L 267.845885 183.761167 
L 269.313213 183.734462 
L 271.367472 184.042584 
L 272.541335 183.924618 
L 273.128266 183.726681 
L 273.421731 183.521695 
L 273.715197 183.521695 
L 274.302128 183.19673 
L 274.88906 182.948803 
L 275.182525 182.739408 
L 275.475991 182.739408 
L 276.062922 182.405449 
L 277.53025 181.969899 
L 278.410647 182.02998 
L 279.291044 182.272801 
L 281.051838 182.627103 
L 281.638769 182.569719 
L 283.106097 182.142531 
L 283.399563 181.809116 
L 284.27996 181.563404 
L 285.160357 181.135487 
L 286.92115 181.011366 
L 287.801547 181.1309 
L 288.095013 181.256941 
L 288.388479 181.256941 
L 288.681944 181.452115 
L 290.149272 181.593395 
L 291.910066 180.981326 
L 292.496997 180.68284 
L 293.083929 180.560601 
L 293.67086 180.341891 
L 295.138188 180.086153 
L 296.31205 180.182873 
L 297.192447 180.371418 
L 298.659775 180.511279 
L 299.833638 180.326542 
L 300.420569 180.110755 
L 302.768294 179.631591 
L 304.529088 179.553778 
L 309.224538 179.598787 
L 313.333057 179.329134 
L 315.387316 179.653579 
L 316.267713 179.784135 
L 317.441576 179.768439 
L 320.082766 179.652029 
L 321.84356 179.863239 
L 323.310888 180.198118 
L 324.778216 180.334148 
L 328.886735 180.538302 
L 329.767132 180.71047 
L 331.23446 180.973964 
L 332.114857 181.187091 
L 335.342979 181.588435 
L 337.690704 181.873747 
L 338.864567 182.070098 
L 342.67962 182.52908 
L 343.560017 182.797348 
L 345.027345 183.339658 
L 346.201207 183.548049 
L 347.081604 183.491351 
L 348.842398 183.090967 
L 349.135864 182.896084 
L 350.603192 182.845845 
L 351.777054 183.197968 
L 352.07052 183.457823 
L 352.363985 183.457823 
L 352.657451 183.899351 
L 353.244382 184.110062 
L 354.418245 184.605723 
L 355.298642 184.584861 
L 357.059436 183.911402 
L 357.646367 183.577921 
L 360.287557 182.75733 
L 360.581023 182.75733 
L 362.341817 181.729735 
L 362.635282 181.317568 
L 363.515679 180.591277 
L 363.809145 180.234617 
L 364.102611 180.234617 
L 364.396076 179.942889 
L 365.569939 179.558176 
L 367.037267 179.474224 
L 367.624198 179.247149 
L 368.504595 178.844002 
L 370.265389 177.322144 
L 370.85232 176.907093 
L 371.145786 176.639567 
L 372.319648 176.309892 
L 374.373908 175.836396 
L 374.960839 175.409253 
L 376.134701 174.647151 
L 376.721633 174.107016 
L 377.60203 173.904666 
L 378.188961 173.941996 
L 379.069358 174.308977 
L 380.536686 174.774538 
L 381.123617 174.728563 
L 381.417083 174.518281 
L 381.710548 174.518281 
L 382.29748 174.034967 
L 383.177876 173.342283 
L 384.058273 172.331187 
L 385.232136 171.6208 
L 386.112533 171.591514 
L 386.99293 171.828804 
L 387.579861 172.043005 
L 388.460258 172.079687 
L 389.927586 171.384842 
L 391.68838 169.475782 
L 392.275311 169.205989 
L 392.568777 168.935203 
L 393.449173 168.723252 
L 394.623036 168.832484 
L 395.503433 168.90835 
L 396.090364 168.786283 
L 396.677295 168.578408 
L 396.970761 168.35268 
L 397.264227 167.965003 
L 397.557692 167.965003 
L 397.851158 167.532249 
L 398.731555 166.852358 
L 399.02502 166.53395 
L 399.905417 166.223403 
L 400.785814 166.177286 
L 402.840074 166.756595 
L 403.427005 166.764862 
L 404.013936 166.638908 
L 404.307402 166.39966 
L 404.600867 166.39966 
L 404.894333 165.84932 
L 405.481264 165.532177 
L 405.77473 165.325746 
L 406.361661 164.726091 
L 406.948592 164.525162 
L 407.828989 164.443102 
L 408.122455 164.443102 
L 408.41592 164.644267 
L 409.002852 164.812655 
L 410.47018 165.388273 
L 411.057111 165.38389 
L 411.350577 165.225988 
L 411.644042 165.225988 
L 412.230974 164.809162 
L 412.817905 164.424391 
L 413.111371 163.923572 
L 413.404836 163.923572 
L 413.698302 163.559998 
L 414.872164 163.040351 
L 415.16563 163.040351 
L 415.752561 162.920216 
L 416.339492 162.953421 
L 417.806821 163.456874 
L 418.687217 163.608062 
L 419.86108 163.347138 
L 420.741477 162.510453 
L 421.328408 162.229916 
L 422.795736 161.433098 
L 423.676133 161.314523 
L 424.263064 161.388171 
L 426.610789 162.092289 
L 427.784652 162.036096 
L 430.132377 161.73169 
L 431.599705 162.479128 
L 431.893171 162.956762 
L 432.186636 162.956762 
L 432.186636 162.956762 
" clip-path="url(#pd61e944ead)" style="fill: none; stroke: #0000ff; stroke-width: 1.5; stroke-linecap: square"/>
   </g>
   <g id="patch_8">
    <path d="M 58.106 190.3975 
L 58.106 139.92 
" style="fill: none; stroke: #000000; stroke-width: 0.8; stroke-linejoin: miter; stroke-linecap: square"/>
   </g>
   <g id="patch_9">
    <path d="M 450 190.3975 
L 450 139.92 
" style="fill: none; stroke: #000000; stroke-width: 0.8; stroke-linejoin: miter; stroke-linecap: square"/>
   </g>
   <g id="patch_10">
    <path d="M 58.106 190.3975 
L 450 190.3975 
" style="fill: none; stroke: #000000; stroke-width: 0.8; stroke-linejoin: miter; stroke-linecap: square"/>
   </g>
   <g id="patch_11">
    <path d="M 58.106 139.92 
L 450 139.92 
" style="fill: none; stroke: #000000; stroke-width: 0.8; stroke-linejoin: miter; stroke-linecap: square"/>
   </g>
   <g id="text_25">
    <!-- Error in $z$-position -->
    <g transform="translate(200.773 133.92)scale(0.12 -0.12)">
     <use xlink:href="#DejaVuSans-45" transform="translate(0 0.015625)"/>
     <use xlink:href="#DejaVuSans-72" transform="translate(63.183594 0.015625)"/>
     <use xlink:href="#DejaVuSans-72" transform="translate(104.296875 0.015625)"/>
     <use xlink:href="#DejaVuSans-6f" transform="translate(145.410156 0.015625)"/>
     <use xlink:href="#DejaVuSans-72" transform="translate(206.591797 0.015625)"/>
     <use xlink:href="#DejaVuSans-20" transform="translate(247.705078 0.015625)"/>
     <use xlink:href="#DejaVuSans-69" transform="translate(279.492188 0.015625)"/>
     <use xlink:href="#DejaVuSans-6e" transform="translate(307.275391 0.015625)"/>
     <use xlink:href="#DejaVuSans-20" transform="translate(370.654297 0.015625)"/>
     <use xlink:href="#DejaVuSans-Oblique-7a" transform="translate(402.441406 0.015625)"/>
     <use xlink:href="#DejaVuSans-2d" transform="translate(454.931641 0.015625)"/>
     <use xlink:href="#DejaVuSans-70" transform="translate(491.015625 0.015625)"/>
     <use xlink:href="#DejaVuSans-6f" transform="translate(554.492188 0.015625)"/>
     <use xlink:href="#DejaVuSans-73" transform="translate(615.673828 0.015625)"/>
     <use xlink:href="#DejaVuSans-69" transform="translate(667.773438 0.015625)"/>
     <use xlink:href="#DejaVuSans-74" transform="translate(695.556641 0.015625)"/>
     <use xlink:href="#DejaVuSans-69" transform="translate(734.765625 0.015625)"/>
     <use xlink:href="#DejaVuSans-6f" transform="translate(762.548828 0.015625)"/>
     <use xlink:href="#DejaVuSans-6e" transform="translate(823.730469 0.015625)"/>
    </g>
   </g>
  </g>
  <g id="axes_3">
   <g id="patch_12">
    <path d="M 58.106 301.9975 
L 450 301.9975 
L 450 251.52 
L 58.106 251.52 
z
" style="fill: #ffffff"/>
   </g>
   <g id="matplotlib.axis_5">
    <g id="xtick_15">
     <g id="line2d_41">
      <path d="M 75.919364 301.9975 
L 75.919364 251.52 
" clip-path="url(#p8be5d64c16)" style="fill: none; stroke: #b0b0b0; stroke-width: 0.8; stroke-linecap: square"/>
     </g>
     <g id="line2d_42">
      <g>
       <use xlink:href="#mcbeaca9a22" x="75.919364" y="301.9975" style="stroke: #000000; stroke-width: 0.8"/>
      </g>
     </g>
     <g id="text_26">
      <!-- 0 -->
      <g transform="translate(72.738114 316.595937)scale(0.1 -0.1)">
       <use xlink:href="#DejaVuSans-30"/>
      </g>
     </g>
    </g>
    <g id="xtick_16">
     <g id="line2d_43">
      <path d="M 134.564182 301.9975 
L 134.564182 251.52 
" clip-path="url(#p8be5d64c16)" style="fill: none; stroke: #b0b0b0; stroke-width: 0.8; stroke-linecap: square"/>
     </g>
     <g id="line2d_44">
      <g>
       <use xlink:href="#mcbeaca9a22" x="134.564182" y="301.9975" style="stroke: #000000; stroke-width: 0.8"/>
      </g>
     </g>
     <g id="text_27">
      <!-- 2 -->
      <g transform="translate(131.382932 316.595937)scale(0.1 -0.1)">
       <use xlink:href="#DejaVuSans-32"/>
      </g>
     </g>
    </g>
    <g id="xtick_17">
     <g id="line2d_45">
      <path d="M 193.209001 301.9975 
L 193.209001 251.52 
" clip-path="url(#p8be5d64c16)" style="fill: none; stroke: #b0b0b0; stroke-width: 0.8; stroke-linecap: square"/>
     </g>
     <g id="line2d_46">
      <g>
       <use xlink:href="#mcbeaca9a22" x="193.209001" y="301.9975" style="stroke: #000000; stroke-width: 0.8"/>
      </g>
     </g>
     <g id="text_28">
      <!-- 4 -->
      <g transform="translate(190.027751 316.595937)scale(0.1 -0.1)">
       <use xlink:href="#DejaVuSans-34"/>
      </g>
     </g>
    </g>
    <g id="xtick_18">
     <g id="line2d_47">
      <path d="M 251.853819 301.9975 
L 251.853819 251.52 
" clip-path="url(#p8be5d64c16)" style="fill: none; stroke: #b0b0b0; stroke-width: 0.8; stroke-linecap: square"/>
     </g>
     <g id="line2d_48">
      <g>
       <use xlink:href="#mcbeaca9a22" x="251.853819" y="301.9975" style="stroke: #000000; stroke-width: 0.8"/>
      </g>
     </g>
     <g id="text_29">
      <!-- 6 -->
      <g transform="translate(248.672569 316.595937)scale(0.1 -0.1)">
       <use xlink:href="#DejaVuSans-36"/>
      </g>
     </g>
    </g>
    <g id="xtick_19">
     <g id="line2d_49">
      <path d="M 310.498638 301.9975 
L 310.498638 251.52 
" clip-path="url(#p8be5d64c16)" style="fill: none; stroke: #b0b0b0; stroke-width: 0.8; stroke-linecap: square"/>
     </g>
     <g id="line2d_50">
      <g>
       <use xlink:href="#mcbeaca9a22" x="310.498638" y="301.9975" style="stroke: #000000; stroke-width: 0.8"/>
      </g>
     </g>
     <g id="text_30">
      <!-- 8 -->
      <g transform="translate(307.317388 316.595937)scale(0.1 -0.1)">
       <use xlink:href="#DejaVuSans-38"/>
      </g>
     </g>
    </g>
    <g id="xtick_20">
     <g id="line2d_51">
      <path d="M 369.143456 301.9975 
L 369.143456 251.52 
" clip-path="url(#p8be5d64c16)" style="fill: none; stroke: #b0b0b0; stroke-width: 0.8; stroke-linecap: square"/>
     </g>
     <g id="line2d_52">
      <g>
       <use xlink:href="#mcbeaca9a22" x="369.143456" y="301.9975" style="stroke: #000000; stroke-width: 0.8"/>
      </g>
     </g>
     <g id="text_31">
      <!-- 10 -->
      <g transform="translate(362.780956 316.595937)scale(0.1 -0.1)">
       <use xlink:href="#DejaVuSans-31"/>
       <use xlink:href="#DejaVuSans-30" x="63.623047"/>
      </g>
     </g>
    </g>
    <g id="xtick_21">
     <g id="line2d_53">
      <path d="M 427.788275 301.9975 
L 427.788275 251.52 
" clip-path="url(#p8be5d64c16)" style="fill: none; stroke: #b0b0b0; stroke-width: 0.8; stroke-linecap: square"/>
     </g>
     <g id="line2d_54">
      <g>
       <use xlink:href="#mcbeaca9a22" x="427.788275" y="301.9975" style="stroke: #000000; stroke-width: 0.8"/>
      </g>
     </g>
     <g id="text_32">
      <!-- 12 -->
      <g transform="translate(421.425775 316.595937)scale(0.1 -0.1)">
       <use xlink:href="#DejaVuSans-31"/>
       <use xlink:href="#DejaVuSans-32" x="63.623047"/>
      </g>
     </g>
    </g>
    <g id="text_33">
     <!-- $t$ [s] -->
     <g transform="translate(243.953 330.274063)scale(0.1 -0.1)">
      <use xlink:href="#DejaVuSans-Oblique-74" transform="translate(0 0.015625)"/>
      <use xlink:href="#DejaVuSans-20" transform="translate(39.208984 0.015625)"/>
      <use xlink:href="#DejaVuSans-5b" transform="translate(70.996094 0.015625)"/>
      <use xlink:href="#DejaVuSans-73" transform="translate(110.009766 0.015625)"/>
      <use xlink:href="#DejaVuSans-5d" transform="translate(162.109375 0.015625)"/>
     </g>
    </g>
   </g>
   <g id="matplotlib.axis_6">
    <g id="ytick_6">
     <g id="line2d_55">
      <path d="M 58.106 291.794361 
L 450 291.794361 
" clip-path="url(#p8be5d64c16)" style="fill: none; stroke: #b0b0b0; stroke-width: 0.8; stroke-linecap: square"/>
     </g>
     <g id="line2d_56">
      <g>
       <use xlink:href="#m9ceb06af37" x="58.106" y="291.794361" style="stroke: #000000; stroke-width: 0.8"/>
      </g>
     </g>
     <g id="text_34">
      <!-- −0.1 -->
      <g transform="translate(26.823188 295.59358)scale(0.1 -0.1)">
       <use xlink:href="#DejaVuSans-2212"/>
       <use xlink:href="#DejaVuSans-30" x="83.789062"/>
       <use xlink:href="#DejaVuSans-2e" x="147.412109"/>
       <use xlink:href="#DejaVuSans-31" x="179.199219"/>
      </g>
     </g>
    </g>
    <g id="ytick_7">
     <g id="line2d_57">
      <path d="M 58.106 275.783821 
L 450 275.783821 
" clip-path="url(#p8be5d64c16)" style="fill: none; stroke: #b0b0b0; stroke-width: 0.8; stroke-linecap: square"/>
     </g>
     <g id="line2d_58">
      <g>
       <use xlink:href="#m9ceb06af37" x="58.106" y="275.783821" style="stroke: #000000; stroke-width: 0.8"/>
      </g>
     </g>
     <g id="text_35">
      <!-- 0.0 -->
      <g transform="translate(35.202875 279.58304)scale(0.1 -0.1)">
       <use xlink:href="#DejaVuSans-30"/>
       <use xlink:href="#DejaVuSans-2e" x="63.623047"/>
       <use xlink:href="#DejaVuSans-30" x="95.410156"/>
      </g>
     </g>
    </g>
    <g id="ytick_8">
     <g id="line2d_59">
      <path d="M 58.106 259.773282 
L 450 259.773282 
" clip-path="url(#p8be5d64c16)" style="fill: none; stroke: #b0b0b0; stroke-width: 0.8; stroke-linecap: square"/>
     </g>
     <g id="line2d_60">
      <g>
       <use xlink:href="#m9ceb06af37" x="58.106" y="259.773282" style="stroke: #000000; stroke-width: 0.8"/>
      </g>
     </g>
     <g id="text_36">
      <!-- 0.1 -->
      <g transform="translate(35.202875 263.572501)scale(0.1 -0.1)">
       <use xlink:href="#DejaVuSans-30"/>
       <use xlink:href="#DejaVuSans-2e" x="63.623047"/>
       <use xlink:href="#DejaVuSans-31" x="95.410156"/>
      </g>
     </g>
    </g>
    <g id="text_37">
     <!-- $e_\theta$ [rad] -->
     <g transform="translate(20.7435 295.90875)rotate(-90)scale(0.1 -0.1)">
      <defs>
       <path id="DejaVuSans-Oblique-3b8" d="M 2913 2219 
L 925 2219 
Q 791 1284 928 888 
Q 1100 400 1566 400 
Q 2034 400 2391 891 
Q 2703 1322 2913 2219 
z
M 3009 2750 
Q 3094 3638 2984 3950 
Q 2813 4444 2353 4444 
Q 1875 4444 1525 3956 
Q 1250 3563 1034 2750 
L 3009 2750 
z
M 2444 4913 
Q 3194 4913 3494 4250 
Q 3794 3591 3566 2422 
Q 3341 1256 2781 594 
Q 2225 -72 1475 -72 
Q 722 -72 425 594 
Q 128 1256 353 2422 
Q 581 3591 1134 4250 
Q 1691 4913 2444 4913 
z
" transform="scale(0.015625)"/>
       <path id="DejaVuSans-61" d="M 2194 1759 
Q 1497 1759 1228 1600 
Q 959 1441 959 1056 
Q 959 750 1161 570 
Q 1363 391 1709 391 
Q 2188 391 2477 730 
Q 2766 1069 2766 1631 
L 2766 1759 
L 2194 1759 
z
M 3341 1997 
L 3341 0 
L 2766 0 
L 2766 531 
Q 2569 213 2275 61 
Q 1981 -91 1556 -91 
Q 1019 -91 701 211 
Q 384 513 384 1019 
Q 384 1609 779 1909 
Q 1175 2209 1959 2209 
L 2766 2209 
L 2766 2266 
Q 2766 2663 2505 2880 
Q 2244 3097 1772 3097 
Q 1472 3097 1187 3025 
Q 903 2953 641 2809 
L 641 3341 
Q 956 3463 1253 3523 
Q 1550 3584 1831 3584 
Q 2591 3584 2966 3190 
Q 3341 2797 3341 1997 
z
" transform="scale(0.015625)"/>
       <path id="DejaVuSans-64" d="M 2906 2969 
L 2906 4863 
L 3481 4863 
L 3481 0 
L 2906 0 
L 2906 525 
Q 2725 213 2448 61 
Q 2172 -91 1784 -91 
Q 1150 -91 751 415 
Q 353 922 353 1747 
Q 353 2572 751 3078 
Q 1150 3584 1784 3584 
Q 2172 3584 2448 3432 
Q 2725 3281 2906 2969 
z
M 947 1747 
Q 947 1113 1208 752 
Q 1469 391 1925 391 
Q 2381 391 2643 752 
Q 2906 1113 2906 1747 
Q 2906 2381 2643 2742 
Q 2381 3103 1925 3103 
Q 1469 3103 1208 2742 
Q 947 2381 947 1747 
z
" transform="scale(0.015625)"/>
      </defs>
      <use xlink:href="#DejaVuSans-Oblique-65" transform="translate(0 0.015625)"/>
      <use xlink:href="#DejaVuSans-Oblique-3b8" transform="translate(61.523438 -16.390625)scale(0.7)"/>
      <use xlink:href="#DejaVuSans-20" transform="translate(107.084961 0.015625)"/>
      <use xlink:href="#DejaVuSans-5b" transform="translate(138.87207 0.015625)"/>
      <use xlink:href="#DejaVuSans-72" transform="translate(177.885742 0.015625)"/>
      <use xlink:href="#DejaVuSans-61" transform="translate(218.999023 0.015625)"/>
      <use xlink:href="#DejaVuSans-64" transform="translate(280.27832 0.015625)"/>
      <use xlink:href="#DejaVuSans-5d" transform="translate(343.754883 0.015625)"/>
     </g>
    </g>
   </g>
   <g id="line2d_61">
    <path d="M 75.919364 275.785 
L 76.212829 275.210618 
L 76.506295 275.018816 
L 77.093226 273.905601 
L 77.386692 272.071202 
L 77.680157 272.071202 
L 77.973623 268.202949 
L 78.267089 267.488758 
L 80.027882 259.234295 
L 80.614814 258.418041 
L 81.201745 258.346441 
L 82.082142 260.635668 
L 82.375607 262.124113 
L 82.669073 264.499427 
L 82.962539 264.499427 
L 83.256004 267.18358 
L 83.842936 270.137926 
L 84.136401 272.575182 
L 84.429867 276.200616 
L 84.723332 276.200616 
L 85.016798 280.232754 
L 85.603729 284.419808 
L 86.190661 291.284962 
L 86.484126 291.284962 
L 86.777592 294.238147 
L 87.657989 297.08299 
L 87.951454 297.907827 
L 88.24492 297.907827 
L 88.538386 298.41643 
L 89.125317 298.639257 
L 89.418783 298.536486 
L 89.712248 297.808632 
L 90.005714 297.808632 
L 90.886111 291.906322 
L 91.179576 288.770799 
L 91.473042 287.655746 
L 91.766508 285.349897 
L 92.059973 280.666719 
L 92.353439 278.37418 
L 92.94037 271.881331 
L 93.233836 270.872065 
L 93.527301 268.912132 
L 93.820767 265.319447 
L 94.114233 265.319447 
L 94.407698 260.92559 
L 94.701164 260.342787 
L 95.581561 257.371996 
L 95.875026 257.371996 
L 96.168492 256.922086 
L 96.755423 256.987512 
L 97.342355 257.237879 
L 97.63582 257.54184 
L 98.222751 258.482405 
L 99.103148 259.82426 
L 99.396614 260.623401 
L 99.69008 261.828781 
L 100.570476 263.978128 
L 100.863942 266.172305 
L 101.157408 266.172305 
L 101.450873 268.32674 
L 102.33127 272.355782 
L 102.624736 274.68023 
L 102.918201 277.961098 
L 103.798598 282.981694 
L 104.38553 288.452711 
L 104.678995 288.452711 
L 104.972461 290.90532 
L 105.559392 292.47702 
L 105.852858 292.89524 
L 106.146323 292.348 
L 106.439789 292.348 
L 107.02672 289.629572 
L 107.320186 288.407122 
L 107.613651 286.40274 
L 107.907117 283.59496 
L 108.200583 283.59496 
L 108.494048 280.756742 
L 108.787514 279.364576 
L 109.374445 275.537075 
L 109.667911 274.97652 
L 109.961377 273.968945 
L 110.254842 272.53101 
L 110.548308 272.167071 
L 110.841773 272.128835 
L 111.135239 272.693176 
L 111.428705 272.994295 
L 111.72217 273.720033 
L 112.015636 275.464111 
L 113.189498 279.339938 
L 113.482964 279.339938 
L 113.77643 279.999455 
L 114.363361 280.306045 
L 114.950292 280.405214 
L 116.124155 280.162305 
L 116.41762 279.903519 
L 117.884948 276.489035 
L 118.178414 275.440776 
L 118.47188 273.637152 
L 118.765345 270.902109 
L 119.939208 265.084919 
L 120.819605 259.362019 
L 121.406536 257.534163 
L 121.700002 256.840721 
L 121.993467 255.847456 
L 122.580399 255.838586 
L 123.16733 256.424428 
L 123.754261 257.475254 
L 124.047727 258.485699 
L 124.341192 260.014068 
L 125.80852 264.155581 
L 126.101986 265.268821 
L 126.688917 266.043429 
L 127.275849 266.490536 
L 127.86278 266.13828 
L 128.449711 265.421214 
L 128.743177 264.974394 
L 129.623574 262.947356 
L 130.210505 262.446244 
L 130.50397 262.348628 
L 131.384367 263.264422 
L 131.677833 263.674993 
L 132.55823 265.720729 
L 132.851696 265.720729 
L 133.145161 266.564203 
L 134.319024 268.243352 
L 134.612489 268.243352 
L 135.786352 270.331435 
L 136.079817 271.249444 
L 136.373283 271.249444 
L 136.666749 272.69667 
L 136.960214 273.458222 
L 137.547146 275.573532 
L 137.840611 275.875895 
L 138.134077 276.442235 
L 138.721008 278.139014 
L 139.014474 278.755359 
L 139.307939 278.956538 
L 139.894871 279.732984 
L 140.188336 280.417866 
L 141.362199 281.478712 
L 142.242596 281.802807 
L 142.829527 281.69875 
L 143.122993 281.571768 
L 143.416458 281.571768 
L 145.177252 279.834411 
L 145.470718 279.093824 
L 146.351114 277.755638 
L 146.64458 276.979658 
L 146.938046 276.979658 
L 147.231511 276.185867 
L 147.524977 275.758213 
L 148.111908 274.231 
L 148.405374 273.936207 
L 148.698839 273.298159 
L 148.992305 271.790818 
L 149.285771 270.91633 
L 149.872702 267.862043 
L 150.166168 267.293917 
L 150.459633 266.143425 
L 150.753099 263.903433 
L 151.046564 263.903433 
L 151.34003 260.983442 
L 151.633496 260.550371 
L 152.513893 257.905205 
L 152.807358 256.8432 
L 154.274686 254.465684 
L 154.568152 254.465684 
L 154.861618 254.067064 
L 155.448549 253.848725 
L 156.03548 253.862209 
L 157.209343 254.59131 
L 157.796274 255.103227 
L 158.383205 255.843461 
L 159.263602 256.847295 
L 159.557068 257.479896 
L 159.850533 258.453789 
L 161.611327 261.831857 
L 161.904793 262.64559 
L 162.78519 263.570775 
L 163.372121 263.993256 
L 163.959052 263.950062 
L 165.42638 263.445951 
L 166.013312 263.618486 
L 166.306777 263.804722 
L 166.600243 264.402336 
L 166.893708 264.402336 
L 167.187174 265.82085 
L 167.48064 266.106843 
L 168.067571 267.323218 
L 168.361037 268.512222 
L 169.241433 269.93063 
L 169.828365 269.998296 
L 171.002227 268.715393 
L 171.295693 268.250469 
L 171.589158 268.250469 
L 171.882624 268.092216 
L 172.17609 268.171195 
L 172.469555 268.397146 
L 172.763021 268.807376 
L 173.056487 269.81497 
L 173.643418 273.233304 
L 174.523815 277.959955 
L 175.110746 283.254166 
L 175.697677 285.092883 
L 175.991143 285.567766 
L 176.284609 285.73899 
L 176.578074 285.602796 
L 176.87154 284.84243 
L 177.458471 281.872112 
L 178.045402 279.36577 
L 178.338868 276.798237 
L 178.632334 276.798237 
L 178.925799 273.647579 
L 179.219265 273.244352 
L 179.806196 272.150133 
L 180.099662 271.996493 
L 180.393127 272.305367 
L 180.980059 274.684091 
L 181.860455 278.364246 
L 182.447387 281.839831 
L 182.740852 282.247713 
L 183.034318 282.336902 
L 183.327784 282.111172 
L 183.621249 280.79212 
L 183.914715 280.79212 
L 184.20818 277.074387 
L 184.501646 276.323135 
L 185.382043 271.609214 
L 186.26244 265.469905 
L 186.849371 263.767497 
L 187.142837 263.162569 
L 187.436302 263.453399 
L 187.729768 264.067805 
L 188.316699 266.064952 
L 188.610165 268.050198 
L 188.903631 271.009921 
L 189.784027 274.940825 
L 190.370959 276.540177 
L 190.664424 276.164847 
L 190.95789 275.440349 
L 191.544821 273.13654 
L 191.838287 271.670314 
L 192.131752 269.259976 
L 192.425218 265.85113 
L 192.718684 265.85113 
L 193.012149 262.525093 
L 194.186012 256.036312 
L 194.479477 256.036312 
L 194.772943 255.890532 
L 195.066409 256.316982 
L 195.359874 257.054563 
L 195.65334 258.686355 
L 195.946806 261.620743 
L 196.240271 261.620743 
L 196.533737 265.038197 
L 197.414134 270.831031 
L 197.707599 272.930419 
L 198.001065 273.479594 
L 198.294531 273.68123 
L 198.587996 273.541274 
L 198.881462 273.074064 
L 199.174928 272.316546 
L 199.468393 270.724579 
L 199.761859 268.056218 
L 200.642256 263.707372 
L 201.229187 259.454113 
L 201.522653 259.454113 
L 201.816118 258.239455 
L 202.109584 258.096305 
L 202.403049 258.280113 
L 202.696515 259.191244 
L 202.989981 261.480968 
L 203.283446 261.480968 
L 203.576912 264.676215 
L 204.163843 268.351623 
L 204.750774 274.291566 
L 205.04424 274.291566 
L 205.337706 276.704229 
L 205.924637 278.116561 
L 206.511568 277.696148 
L 206.805034 277.01148 
L 207.098499 274.998177 
L 207.391965 273.793776 
L 207.978896 269.975508 
L 208.272362 269.366714 
L 208.565828 268.199989 
L 208.859293 266.214357 
L 209.446225 264.779282 
L 209.73969 264.656652 
L 210.033156 265.139246 
L 210.326621 265.139246 
L 210.913553 267.873259 
L 211.207018 269.214591 
L 211.500484 271.464568 
L 211.79395 274.66163 
L 212.087415 274.66163 
L 212.380881 277.752569 
L 212.967812 280.310173 
L 213.554743 282.046276 
L 213.848209 281.961255 
L 214.141675 281.490661 
L 214.728606 279.906258 
L 215.022071 278.863091 
L 215.315537 277.092219 
L 215.609003 274.440297 
L 217.076331 267.130441 
L 217.369796 265.483968 
L 217.663262 265.08763 
L 217.956728 265.01698 
L 218.250193 265.26726 
L 218.543659 265.824282 
L 218.837125 267.181331 
L 219.13059 269.761463 
L 220.304453 275.929173 
L 220.891384 279.795479 
L 221.18485 280.25639 
L 221.478315 280.396589 
L 221.771781 280.230238 
L 222.065247 279.443499 
L 222.652178 276.227658 
L 223.532575 271.662421 
L 224.412972 264.32013 
L 225.293368 260.439452 
L 225.586834 259.679242 
L 225.8803 259.259624 
L 226.467231 261.011916 
L 227.054162 263.64686 
L 227.347628 265.245391 
L 228.228025 272.775119 
L 229.108422 276.529959 
L 229.401887 276.894685 
L 229.695353 276.894685 
L 230.282284 274.966774 
L 230.869215 271.065646 
L 231.162681 268.777025 
L 231.456147 268.777025 
L 231.749612 265.653951 
L 232.630009 260.715503 
L 232.923475 258.839908 
L 233.21694 258.839908 
L 233.510406 258.200423 
L 233.803872 258.404145 
L 234.097337 258.958013 
L 234.390803 260.397867 
L 234.684269 263.234379 
L 234.977734 263.234379 
L 235.2712 266.747913 
L 235.858131 270.508601 
L 236.151597 275.123806 
L 236.445062 275.651712 
L 236.738528 275.651712 
L 237.031994 276.912645 
L 237.325459 277.046158 
L 237.618925 276.856171 
L 237.91239 276.368021 
L 238.205856 275.168645 
L 238.499322 272.951598 
L 239.673184 267.452145 
L 240.260115 262.92981 
L 240.847047 261.377345 
L 241.140512 261.071271 
L 241.433978 261.296661 
L 241.727444 262.839985 
L 242.020909 262.839985 
L 242.314375 265.548462 
L 242.60784 267.218284 
L 243.194772 272.693297 
L 243.488237 273.603009 
L 243.781703 275.351047 
L 244.075169 278.317355 
L 244.6621 280.457484 
L 244.955566 280.754906 
L 245.249031 280.702717 
L 245.542497 280.369861 
L 246.422894 275.767983 
L 246.716359 273.519583 
L 247.009825 272.728245 
L 247.303291 271.120071 
L 247.596756 267.9934 
L 248.477153 263.461125 
L 249.064084 262.911603 
L 249.35755 263.45615 
L 249.651016 264.261685 
L 250.824878 270.834177 
L 251.411809 276.959955 
L 251.705275 279.279486 
L 251.998741 279.97728 
L 252.879137 283.322524 
L 253.172603 283.253171 
L 253.466069 282.442062 
L 253.759534 280.906926 
L 254.053 280.263762 
L 254.346466 278.81484 
L 254.639931 275.487056 
L 254.933397 275.487056 
L 255.226863 270.032062 
L 255.520328 269.125665 
L 256.107259 265.692139 
L 256.400725 262.921247 
L 256.987656 261.213199 
L 257.281122 261.255436 
L 257.574588 262.088311 
L 257.868053 262.088311 
L 259.041916 271.243074 
L 259.335381 272.213566 
L 259.628847 274.175245 
L 259.922313 278.013144 
L 260.802709 283.168844 
L 261.389641 283.715485 
L 261.976572 282.206719 
L 263.150434 274.964936 
L 263.4439 270.860921 
L 263.737366 270.860921 
L 264.030831 264.763403 
L 264.324297 263.779366 
L 265.204694 257.442638 
L 265.49816 257.442638 
L 265.791625 256.072077 
L 266.085091 256.1841 
L 266.378556 256.690615 
L 266.672022 257.559585 
L 267.845885 268.059804 
L 268.13935 269.138572 
L 268.432816 271.281322 
L 268.726281 275.463174 
L 269.606678 281.684609 
L 270.487075 282.93162 
L 270.780541 282.412612 
L 271.074006 281.537357 
L 271.367472 279.637786 
L 271.660938 276.321652 
L 272.8348 268.45002 
L 273.421731 261.836766 
L 273.715197 261.836766 
L 274.008663 258.828805 
L 274.595594 256.819845 
L 274.88906 256.263085 
L 275.182525 256.938052 
L 275.475991 256.938052 
L 276.062922 260.668627 
L 276.356388 262.447792 
L 276.649853 265.415523 
L 276.943319 269.716377 
L 277.236785 269.716377 
L 277.53025 274.029234 
L 278.704113 283.191932 
L 278.997578 283.191932 
L 279.291044 284.274059 
L 279.58451 284.254246 
L 279.877975 283.868326 
L 280.171441 282.679677 
L 280.464907 280.185169 
L 280.758372 280.185169 
L 281.051838 277.029599 
L 281.345303 275.278547 
L 281.932235 269.779493 
L 282.2257 268.867761 
L 282.519166 267.072354 
L 282.812632 263.822685 
L 283.106097 263.822685 
L 283.399563 260.751275 
L 283.986494 260.237482 
L 284.27996 260.301928 
L 284.573425 261.422304 
L 286.040753 269.70815 
L 286.334219 273.456521 
L 286.627685 273.456521 
L 286.92115 278.479431 
L 287.214616 279.193839 
L 288.095013 282.94507 
L 288.388479 282.94507 
L 288.97541 282.301681 
L 289.562341 280.347224 
L 289.855807 277.572952 
L 290.149272 277.572952 
L 290.442738 272.579061 
L 290.736204 271.698692 
L 291.323135 268.24634 
L 291.6166 265.079547 
L 292.496997 261.43188 
L 293.083929 261.254648 
L 293.964325 264.260314 
L 294.257791 266.460827 
L 294.551257 269.892148 
L 294.844722 269.892148 
L 295.138188 273.544155 
L 296.605516 282.05225 
L 296.898982 282.46056 
L 297.192447 282.608572 
L 297.485913 282.496354 
L 297.779379 282.109133 
L 298.072844 281.01543 
L 298.659775 277.19966 
L 299.540172 272.05621 
L 300.420569 264.379837 
L 301.007501 261.946306 
L 301.594432 260.497328 
L 301.887897 260.85435 
L 302.181363 261.542164 
L 302.768294 263.80664 
L 303.355226 266.951362 
L 303.648691 269.655307 
L 303.942157 273.442146 
L 305.702951 284.07847 
L 305.996416 284.33383 
L 306.289882 284.221974 
L 306.583347 283.75998 
L 306.876813 282.457801 
L 307.170279 279.807177 
L 308.050676 274.515217 
L 308.344141 272.595982 
L 308.637607 267.766969 
L 308.931072 267.766969 
L 309.224538 264.199994 
L 309.811469 261.195305 
L 310.398401 259.27432 
L 310.691866 258.823544 
L 311.278798 260.528873 
L 311.865729 263.216592 
L 312.159194 266.657712 
L 312.45266 266.657712 
L 312.746126 272.410045 
L 313.039591 273.384514 
L 313.626523 277.167292 
L 313.919988 280.42325 
L 314.213454 282.210096 
L 314.506919 283.30128 
L 315.093851 283.618192 
L 315.387316 283.384791 
L 316.267713 278.491685 
L 316.854644 273.137286 
L 317.14811 273.137286 
L 317.441576 269.39773 
L 318.321973 263.514947 
L 318.615438 261.127234 
L 319.202369 259.844684 
L 319.495835 259.676741 
L 319.789301 259.836012 
L 320.082766 260.339601 
L 320.376232 261.702576 
L 320.669698 264.461095 
L 321.84356 271.673705 
L 322.723957 279.909159 
L 323.89782 285.875358 
L 324.191285 285.850569 
L 324.484751 285.435341 
L 324.778216 284.651446 
L 325.365148 282.180917 
L 325.658613 279.764739 
L 325.952079 276.106628 
L 327.125941 268.589039 
L 327.419407 264.498209 
L 327.712873 264.498209 
L 328.006338 262.062899 
L 328.59327 260.698004 
L 328.886735 260.477594 
L 329.180201 261.496801 
L 329.473666 261.496801 
L 330.060598 265.225019 
L 330.940995 270.391526 
L 331.821391 278.534283 
L 332.701788 284.065653 
L 332.995254 286.213519 
L 333.28872 286.776652 
L 333.582185 286.959481 
L 333.875651 286.762653 
L 334.169117 286.189091 
L 334.462582 284.696414 
L 334.756048 281.734322 
L 335.92991 274.067782 
L 336.223376 272.059286 
L 337.103773 264.113605 
L 337.98417 260.455765 
L 338.277635 260.455765 
L 338.571101 261.249882 
L 338.864567 261.686627 
L 339.451498 264.11256 
L 339.744963 268.192372 
L 340.038429 268.192372 
L 340.331895 271.807387 
L 341.212292 277.065018 
L 341.505757 279.998764 
L 341.799223 279.998764 
L 342.092688 283.120777 
L 342.386154 283.474993 
L 342.973085 284.354717 
L 343.266551 284.182102 
L 343.560017 283.664546 
L 343.853482 282.366194 
L 344.146948 280.540563 
L 344.440414 279.840666 
L 344.733879 278.323556 
L 345.027345 274.951458 
L 345.614276 271.483946 
L 346.201207 266.016962 
L 346.494673 266.016962 
L 346.788139 263.704636 
L 347.37507 261.983897 
L 347.668535 261.65915 
L 347.962001 261.663062 
L 348.255467 261.839626 
L 348.548932 262.808122 
L 348.842398 262.808122 
L 349.135864 265.560433 
L 349.429329 266.122698 
L 350.01626 268.530782 
L 350.309726 271.027471 
L 350.603192 272.243767 
L 351.190123 275.623213 
L 351.483589 276.124965 
L 351.777054 277.053662 
L 352.07052 278.531587 
L 352.363985 278.531587 
L 352.657451 279.558712 
L 353.244382 279.568006 
L 353.537848 279.415829 
L 354.124779 278.039214 
L 354.418245 277.175289 
L 354.71171 276.868767 
L 355.298642 275.615071 
L 355.592107 274.514389 
L 356.472504 273.248679 
L 357.059436 273.039351 
L 357.646367 272.699553 
L 358.820229 272.328775 
L 359.994092 272.268202 
L 360.287557 272.060012 
L 360.581023 272.060012 
L 361.754886 270.147563 
L 362.048351 269.002215 
L 362.341817 269.002215 
L 362.635282 267.818499 
L 363.222214 266.873592 
L 363.515679 266.512516 
L 363.809145 266.678637 
L 364.102611 266.678637 
L 364.689542 268.167703 
L 364.983007 268.882952 
L 365.569939 271.638036 
L 365.863404 271.638036 
L 366.15687 273.046056 
L 366.743801 274.040487 
L 367.037267 274.311651 
L 367.330733 274.35149 
L 368.211129 272.264778 
L 368.504595 271.327412 
L 369.091526 267.723812 
L 369.384992 267.723812 
L 369.678458 266.048668 
L 370.265389 265.034894 
L 370.558854 264.824089 
L 370.85232 264.9308 
L 372.319648 269.425041 
L 372.613114 271.206522 
L 372.906579 273.721179 
L 374.960839 282.182987 
L 375.254304 282.563403 
L 375.54777 282.750199 
L 375.841236 282.744076 
L 376.134701 282.563734 
L 376.428167 282.045922 
L 376.721633 281.190981 
L 377.895495 279.724226 
L 378.482426 278.965043 
L 379.362823 278.430013 
L 379.656289 278.170167 
L 379.949755 277.683068 
L 380.24322 276.962123 
L 380.830151 276.377165 
L 381.417083 276.050935 
L 381.710548 276.050935 
L 383.471342 277.435478 
L 383.764808 277.477334 
L 384.058273 277.303949 
L 384.645205 276.541552 
L 384.93867 275.680356 
L 385.232136 274.297603 
L 386.112533 272.360714 
L 386.699464 271.589027 
L 386.99293 271.498293 
L 387.873326 273.128126 
L 388.166792 273.850146 
L 388.460258 275.099601 
L 388.753723 276.944944 
L 389.927586 280.365697 
L 390.221052 281.19864 
L 390.514517 281.597613 
L 390.807983 281.445491 
L 391.101448 281.050432 
L 391.394914 280.027596 
L 391.68838 278.563606 
L 391.981845 278.008869 
L 392.275311 276.828224 
L 392.568777 274.314917 
L 393.155708 271.532437 
L 393.449173 270.270028 
L 394.32957 269.248063 
L 394.623036 269.514898 
L 394.916502 270.303984 
L 395.209967 271.444383 
L 395.503433 271.878275 
L 395.796898 272.794243 
L 396.090364 274.694678 
L 396.970761 277.597721 
L 397.264227 278.791275 
L 397.557692 278.791275 
L 397.851158 279.41821 
L 398.144623 279.486908 
L 398.438089 279.382595 
L 398.731555 278.853713 
L 399.318486 276.588811 
L 400.785814 272.022059 
L 401.07928 271.369672 
L 401.372745 271.285806 
L 401.959677 271.494395 
L 402.546608 272.003491 
L 403.427005 273.312667 
L 404.307402 273.879428 
L 404.894333 273.982623 
L 405.187799 274.030268 
L 405.77473 274.492441 
L 406.655127 277.205726 
L 406.948592 277.441943 
L 407.535524 278.115275 
L 407.828989 278.291004 
L 408.122455 278.291004 
L 408.41592 277.688511 
L 408.709386 277.509126 
L 409.296317 276.578167 
L 409.589783 275.98282 
L 409.883249 274.980996 
L 410.176714 273.558268 
L 411.350577 270.800807 
L 411.644042 270.800807 
L 411.937508 270.551558 
L 412.524439 270.580186 
L 412.817905 270.784707 
L 413.111371 272.244401 
L 413.404836 272.244401 
L 413.698302 274.234247 
L 414.872164 278.805113 
L 415.16563 278.805113 
L 415.459096 279.089066 
L 415.752561 278.956135 
L 416.339492 278.092329 
L 416.632958 276.859725 
L 416.926424 276.859725 
L 417.219889 275.039211 
L 418.100286 274.252624 
L 418.393752 274.460487 
L 418.687217 274.460487 
L 418.980683 276.163923 
L 419.274149 276.562796 
L 419.86108 278.24351 
L 420.154546 279.678779 
L 420.448011 280.314166 
L 420.741477 280.448319 
L 421.034942 280.384698 
L 421.621874 279.796887 
L 421.915339 279.121227 
L 422.208805 278.934394 
L 422.502271 278.967625 
L 422.795736 279.425293 
L 423.089202 280.268176 
L 423.382668 280.268176 
L 423.676133 281.758856 
L 424.55653 284.047803 
L 424.849996 284.251271 
L 425.143461 284.251271 
L 426.317324 283.466009 
L 426.904255 284.205652 
L 427.491186 285.536999 
L 428.078118 287.3198 
L 429.25198 293.153616 
L 430.132377 296.745785 
L 430.425843 298.380515 
L 431.012774 299.461627 
L 431.306239 299.703068 
L 431.599705 299.687492 
L 431.893171 298.265655 
L 432.186636 298.265655 
L 432.186636 298.265655 
" clip-path="url(#p8be5d64c16)" style="fill: none; stroke: #008000; stroke-width: 1.5; stroke-linecap: square"/>
   </g>
   <g id="patch_13">
    <path d="M 58.106 301.9975 
L 58.106 251.52 
" style="fill: none; stroke: #000000; stroke-width: 0.8; stroke-linejoin: miter; stroke-linecap: square"/>
   </g>
   <g id="patch_14">
    <path d="M 450 301.9975 
L 450 251.52 
" style="fill: none; stroke: #000000; stroke-width: 0.8; stroke-linejoin: miter; stroke-linecap: square"/>
   </g>
   <g id="patch_15">
    <path d="M 58.106 301.9975 
L 450 301.9975 
" style="fill: none; stroke: #000000; stroke-width: 0.8; stroke-linejoin: miter; stroke-linecap: square"/>
   </g>
   <g id="patch_16">
    <path d="M 58.106 251.52 
L 450 251.52 
" style="fill: none; stroke: #000000; stroke-width: 0.8; stroke-linejoin: miter; stroke-linecap: square"/>
   </g>
   <g id="text_38">
    <!-- Error in swing angle -->
    <g transform="translate(194.282688 245.52)scale(0.12 -0.12)">
     <defs>
      <path id="DejaVuSans-77" d="M 269 3500 
L 844 3500 
L 1563 769 
L 2278 3500 
L 2956 3500 
L 3675 769 
L 4391 3500 
L 4966 3500 
L 4050 0 
L 3372 0 
L 2619 2869 
L 1863 0 
L 1184 0 
L 269 3500 
z
" transform="scale(0.015625)"/>
      <path id="DejaVuSans-67" d="M 2906 1791 
Q 2906 2416 2648 2759 
Q 2391 3103 1925 3103 
Q 1463 3103 1205 2759 
Q 947 2416 947 1791 
Q 947 1169 1205 825 
Q 1463 481 1925 481 
Q 2391 481 2648 825 
Q 2906 1169 2906 1791 
z
M 3481 434 
Q 3481 -459 3084 -895 
Q 2688 -1331 1869 -1331 
Q 1566 -1331 1297 -1286 
Q 1028 -1241 775 -1147 
L 775 -588 
Q 1028 -725 1275 -790 
Q 1522 -856 1778 -856 
Q 2344 -856 2625 -561 
Q 2906 -266 2906 331 
L 2906 616 
Q 2728 306 2450 153 
Q 2172 0 1784 0 
Q 1141 0 747 490 
Q 353 981 353 1791 
Q 353 2603 747 3093 
Q 1141 3584 1784 3584 
Q 2172 3584 2450 3431 
Q 2728 3278 2906 2969 
L 2906 3500 
L 3481 3500 
L 3481 434 
z
" transform="scale(0.015625)"/>
      <path id="DejaVuSans-6c" d="M 603 4863 
L 1178 4863 
L 1178 0 
L 603 0 
L 603 4863 
z
" transform="scale(0.015625)"/>
      <path id="DejaVuSans-65" d="M 3597 1894 
L 3597 1613 
L 953 1613 
Q 991 1019 1311 708 
Q 1631 397 2203 397 
Q 2534 397 2845 478 
Q 3156 559 3463 722 
L 3463 178 
Q 3153 47 2828 -22 
Q 2503 -91 2169 -91 
Q 1331 -91 842 396 
Q 353 884 353 1716 
Q 353 2575 817 3079 
Q 1281 3584 2069 3584 
Q 2775 3584 3186 3129 
Q 3597 2675 3597 1894 
z
M 3022 2063 
Q 3016 2534 2758 2815 
Q 2500 3097 2075 3097 
Q 1594 3097 1305 2825 
Q 1016 2553 972 2059 
L 3022 2063 
z
" transform="scale(0.015625)"/>
     </defs>
     <use xlink:href="#DejaVuSans-45"/>
     <use xlink:href="#DejaVuSans-72" x="63.183594"/>
     <use xlink:href="#DejaVuSans-72" x="102.546875"/>
     <use xlink:href="#DejaVuSans-6f" x="141.410156"/>
     <use xlink:href="#DejaVuSans-72" x="202.591797"/>
     <use xlink:href="#DejaVuSans-20" x="243.705078"/>
     <use xlink:href="#DejaVuSans-69" x="275.492188"/>
     <use xlink:href="#DejaVuSans-6e" x="303.275391"/>
     <use xlink:href="#DejaVuSans-20" x="366.654297"/>
     <use xlink:href="#DejaVuSans-73" x="398.441406"/>
     <use xlink:href="#DejaVuSans-77" x="450.541016"/>
     <use xlink:href="#DejaVuSans-69" x="532.328125"/>
     <use xlink:href="#DejaVuSans-6e" x="560.111328"/>
     <use xlink:href="#DejaVuSans-67" x="623.490234"/>
     <use xlink:href="#DejaVuSans-20" x="686.966797"/>
     <use xlink:href="#DejaVuSans-61" x="718.753906"/>
     <use xlink:href="#DejaVuSans-6e" x="780.033203"/>
     <use xlink:href="#DejaVuSans-67" x="843.412109"/>
     <use xlink:href="#DejaVuSans-6c" x="906.888672"/>
     <use xlink:href="#DejaVuSans-65" x="934.671875"/>
    </g>
   </g>
  </g>
 </g>
 <defs>
  <clipPath id="p328f63f5b9">
   <rect x="58.106" y="28.32" width="391.894" height="50.4775"/>
  </clipPath>
  <clipPath id="pd61e944ead">
   <rect x="58.106" y="139.92" width="391.894" height="50.4775"/>
  </clipPath>
  <clipPath id="p8be5d64c16">
   <rect x="58.106" y="251.52" width="391.894" height="50.4775"/>
  </clipPath>
 </defs>
</svg>
