<?xml version="1.0" encoding="utf-8" standalone="no"?>
<!DOCTYPE svg PUBLIC "-//W3C//DTD SVG 1.1//EN"
  "http://www.w3.org/Graphics/SVG/1.1/DTD/svg11.dtd">
<svg xmlns:xlink="http://www.w3.org/1999/xlink" width="460.8pt" height="345.6pt" viewBox="0 0 460.8 345.6" xmlns="http://www.w3.org/2000/svg" version="1.1">
 <metadata>
  <rdf:RDF xmlns:dc="http://purl.org/dc/elements/1.1/" xmlns:cc="http://creativecommons.org/ns#" xmlns:rdf="http://www.w3.org/1999/02/22-rdf-syntax-ns#">
   <cc:Work>
    <dc:type rdf:resource="http://purl.org/dc/dcmitype/StillImage"/>
    <dc:date>2022-06-05T14:17:24.904489</dc:date>
    <dc:format>image/svg+xml</dc:format>
    <dc:creator>
     <cc:Agent>
      <dc:title>Matplotlib v3.5.1, https://matplotlib.org/</dc:title>
     </cc:Agent>
    </dc:creator>
   </cc:Work>
  </rdf:RDF>
 </metadata>
 <defs>
  <style type="text/css">*{stroke-linejoin: round; stroke-linecap: butt}</style>
 </defs>
 <g id="figure_1">
  <g id="patch_1">
   <path d="M 0 345.6 
L 460.8 345.6 
L 460.8 0 
L 0 0 
z
" style="fill: #ffffff"/>
  </g>
  <g id="axes_1">
   <g id="patch_2">
    <path d="M 58.106 78.7975 
L 450 78.7975 
L 450 28.32 
L 58.106 28.32 
z
" style="fill: #ffffff"/>
   </g>
   <g id="matplotlib.axis_1">
    <g id="xtick_1">
     <g id="line2d_1">
      <path d="M 75.919364 78.7975 
L 75.919364 28.32 
" clip-path="url(#pba5e282d6e)" style="fill: none; stroke: #b0b0b0; stroke-width: 0.8; stroke-linecap: square"/>
     </g>
     <g id="line2d_2">
      <defs>
       <path id="madb7bb1df7" d="M 0 0 
L 0 3.5 
" style="stroke: #000000; stroke-width: 0.8"/>
      </defs>
      <g>
       <use xlink:href="#madb7bb1df7" x="75.919364" y="78.7975" style="stroke: #000000; stroke-width: 0.8"/>
      </g>
     </g>
     <g id="text_1">
      <!-- 0 -->
      <g transform="translate(72.738114 93.395937)scale(0.1 -0.1)">
       <defs>
        <path id="DejaVuSans-30" d="M 2034 4250 
Q 1547 4250 1301 3770 
Q 1056 3291 1056 2328 
Q 1056 1369 1301 889 
Q 1547 409 2034 409 
Q 2525 409 2770 889 
Q 3016 1369 3016 2328 
Q 3016 3291 2770 3770 
Q 2525 4250 2034 4250 
z
M 2034 4750 
Q 2819 4750 3233 4129 
Q 3647 3509 3647 2328 
Q 3647 1150 3233 529 
Q 2819 -91 2034 -91 
Q 1250 -91 836 529 
Q 422 1150 422 2328 
Q 422 3509 836 4129 
Q 1250 4750 2034 4750 
z
" transform="scale(0.015625)"/>
       </defs>
       <use xlink:href="#DejaVuSans-30"/>
      </g>
     </g>
    </g>
    <g id="xtick_2">
     <g id="line2d_3">
      <path d="M 134.467806 78.7975 
L 134.467806 28.32 
" clip-path="url(#pba5e282d6e)" style="fill: none; stroke: #b0b0b0; stroke-width: 0.8; stroke-linecap: square"/>
     </g>
     <g id="line2d_4">
      <g>
       <use xlink:href="#madb7bb1df7" x="134.467806" y="78.7975" style="stroke: #000000; stroke-width: 0.8"/>
      </g>
     </g>
     <g id="text_2">
      <!-- 2 -->
      <g transform="translate(131.286556 93.395937)scale(0.1 -0.1)">
       <defs>
        <path id="DejaVuSans-32" d="M 1228 531 
L 3431 531 
L 3431 0 
L 469 0 
L 469 531 
Q 828 903 1448 1529 
Q 2069 2156 2228 2338 
Q 2531 2678 2651 2914 
Q 2772 3150 2772 3378 
Q 2772 3750 2511 3984 
Q 2250 4219 1831 4219 
Q 1534 4219 1204 4116 
Q 875 4013 500 3803 
L 500 4441 
Q 881 4594 1212 4672 
Q 1544 4750 1819 4750 
Q 2544 4750 2975 4387 
Q 3406 4025 3406 3419 
Q 3406 3131 3298 2873 
Q 3191 2616 2906 2266 
Q 2828 2175 2409 1742 
Q 1991 1309 1228 531 
z
" transform="scale(0.015625)"/>
       </defs>
       <use xlink:href="#DejaVuSans-32"/>
      </g>
     </g>
    </g>
    <g id="xtick_3">
     <g id="line2d_5">
      <path d="M 193.016249 78.7975 
L 193.016249 28.32 
" clip-path="url(#pba5e282d6e)" style="fill: none; stroke: #b0b0b0; stroke-width: 0.8; stroke-linecap: square"/>
     </g>
     <g id="line2d_6">
      <g>
       <use xlink:href="#madb7bb1df7" x="193.016249" y="78.7975" style="stroke: #000000; stroke-width: 0.8"/>
      </g>
     </g>
     <g id="text_3">
      <!-- 4 -->
      <g transform="translate(189.834999 93.395937)scale(0.1 -0.1)">
       <defs>
        <path id="DejaVuSans-34" d="M 2419 4116 
L 825 1625 
L 2419 1625 
L 2419 4116 
z
M 2253 4666 
L 3047 4666 
L 3047 1625 
L 3713 1625 
L 3713 1100 
L 3047 1100 
L 3047 0 
L 2419 0 
L 2419 1100 
L 313 1100 
L 313 1709 
L 2253 4666 
z
" transform="scale(0.015625)"/>
       </defs>
       <use xlink:href="#DejaVuSans-34"/>
      </g>
     </g>
    </g>
    <g id="xtick_4">
     <g id="line2d_7">
      <path d="M 251.564691 78.7975 
L 251.564691 28.32 
" clip-path="url(#pba5e282d6e)" style="fill: none; stroke: #b0b0b0; stroke-width: 0.8; stroke-linecap: square"/>
     </g>
     <g id="line2d_8">
      <g>
       <use xlink:href="#madb7bb1df7" x="251.564691" y="78.7975" style="stroke: #000000; stroke-width: 0.8"/>
      </g>
     </g>
     <g id="text_4">
      <!-- 6 -->
      <g transform="translate(248.383441 93.395937)scale(0.1 -0.1)">
       <defs>
        <path id="DejaVuSans-36" d="M 2113 2584 
Q 1688 2584 1439 2293 
Q 1191 2003 1191 1497 
Q 1191 994 1439 701 
Q 1688 409 2113 409 
Q 2538 409 2786 701 
Q 3034 994 3034 1497 
Q 3034 2003 2786 2293 
Q 2538 2584 2113 2584 
z
M 3366 4563 
L 3366 3988 
Q 3128 4100 2886 4159 
Q 2644 4219 2406 4219 
Q 1781 4219 1451 3797 
Q 1122 3375 1075 2522 
Q 1259 2794 1537 2939 
Q 1816 3084 2150 3084 
Q 2853 3084 3261 2657 
Q 3669 2231 3669 1497 
Q 3669 778 3244 343 
Q 2819 -91 2113 -91 
Q 1303 -91 875 529 
Q 447 1150 447 2328 
Q 447 3434 972 4092 
Q 1497 4750 2381 4750 
Q 2619 4750 2861 4703 
Q 3103 4656 3366 4563 
z
" transform="scale(0.015625)"/>
       </defs>
       <use xlink:href="#DejaVuSans-36"/>
      </g>
     </g>
    </g>
    <g id="xtick_5">
     <g id="line2d_9">
      <path d="M 310.113134 78.7975 
L 310.113134 28.32 
" clip-path="url(#pba5e282d6e)" style="fill: none; stroke: #b0b0b0; stroke-width: 0.8; stroke-linecap: square"/>
     </g>
     <g id="line2d_10">
      <g>
       <use xlink:href="#madb7bb1df7" x="310.113134" y="78.7975" style="stroke: #000000; stroke-width: 0.8"/>
      </g>
     </g>
     <g id="text_5">
      <!-- 8 -->
      <g transform="translate(306.931884 93.395937)scale(0.1 -0.1)">
       <defs>
        <path id="DejaVuSans-38" d="M 2034 2216 
Q 1584 2216 1326 1975 
Q 1069 1734 1069 1313 
Q 1069 891 1326 650 
Q 1584 409 2034 409 
Q 2484 409 2743 651 
Q 3003 894 3003 1313 
Q 3003 1734 2745 1975 
Q 2488 2216 2034 2216 
z
M 1403 2484 
Q 997 2584 770 2862 
Q 544 3141 544 3541 
Q 544 4100 942 4425 
Q 1341 4750 2034 4750 
Q 2731 4750 3128 4425 
Q 3525 4100 3525 3541 
Q 3525 3141 3298 2862 
Q 3072 2584 2669 2484 
Q 3125 2378 3379 2068 
Q 3634 1759 3634 1313 
Q 3634 634 3220 271 
Q 2806 -91 2034 -91 
Q 1263 -91 848 271 
Q 434 634 434 1313 
Q 434 1759 690 2068 
Q 947 2378 1403 2484 
z
M 1172 3481 
Q 1172 3119 1398 2916 
Q 1625 2713 2034 2713 
Q 2441 2713 2670 2916 
Q 2900 3119 2900 3481 
Q 2900 3844 2670 4047 
Q 2441 4250 2034 4250 
Q 1625 4250 1398 4047 
Q 1172 3844 1172 3481 
z
" transform="scale(0.015625)"/>
       </defs>
       <use xlink:href="#DejaVuSans-38"/>
      </g>
     </g>
    </g>
    <g id="xtick_6">
     <g id="line2d_11">
      <path d="M 368.661576 78.7975 
L 368.661576 28.32 
" clip-path="url(#pba5e282d6e)" style="fill: none; stroke: #b0b0b0; stroke-width: 0.8; stroke-linecap: square"/>
     </g>
     <g id="line2d_12">
      <g>
       <use xlink:href="#madb7bb1df7" x="368.661576" y="78.7975" style="stroke: #000000; stroke-width: 0.8"/>
      </g>
     </g>
     <g id="text_6">
      <!-- 10 -->
      <g transform="translate(362.299076 93.395937)scale(0.1 -0.1)">
       <defs>
        <path id="DejaVuSans-31" d="M 794 531 
L 1825 531 
L 1825 4091 
L 703 3866 
L 703 4441 
L 1819 4666 
L 2450 4666 
L 2450 531 
L 3481 531 
L 3481 0 
L 794 0 
L 794 531 
z
" transform="scale(0.015625)"/>
       </defs>
       <use xlink:href="#DejaVuSans-31"/>
       <use xlink:href="#DejaVuSans-30" x="63.623047"/>
      </g>
     </g>
    </g>
    <g id="xtick_7">
     <g id="line2d_13">
      <path d="M 427.210019 78.7975 
L 427.210019 28.32 
" clip-path="url(#pba5e282d6e)" style="fill: none; stroke: #b0b0b0; stroke-width: 0.8; stroke-linecap: square"/>
     </g>
     <g id="line2d_14">
      <g>
       <use xlink:href="#madb7bb1df7" x="427.210019" y="78.7975" style="stroke: #000000; stroke-width: 0.8"/>
      </g>
     </g>
     <g id="text_7">
      <!-- 12 -->
      <g transform="translate(420.847519 93.395937)scale(0.1 -0.1)">
       <use xlink:href="#DejaVuSans-31"/>
       <use xlink:href="#DejaVuSans-32" x="63.623047"/>
      </g>
     </g>
    </g>
    <g id="text_8">
     <!-- $t$ [s] -->
     <g transform="translate(243.953 107.074062)scale(0.1 -0.1)">
      <defs>
       <path id="DejaVuSans-Oblique-74" d="M 2706 3500 
L 2619 3053 
L 1472 3053 
L 1100 1153 
Q 1081 1047 1072 975 
Q 1063 903 1063 863 
Q 1063 663 1183 572 
Q 1303 481 1569 481 
L 2150 481 
L 2053 0 
L 1503 0 
Q 991 0 739 200 
Q 488 400 488 806 
Q 488 878 497 964 
Q 506 1050 525 1153 
L 897 3053 
L 409 3053 
L 500 3500 
L 978 3500 
L 1172 4494 
L 1747 4494 
L 1556 3500 
L 2706 3500 
z
" transform="scale(0.015625)"/>
       <path id="DejaVuSans-20" transform="scale(0.015625)"/>
       <path id="DejaVuSans-5b" d="M 550 4863 
L 1875 4863 
L 1875 4416 
L 1125 4416 
L 1125 -397 
L 1875 -397 
L 1875 -844 
L 550 -844 
L 550 4863 
z
" transform="scale(0.015625)"/>
       <path id="DejaVuSans-73" d="M 2834 3397 
L 2834 2853 
Q 2591 2978 2328 3040 
Q 2066 3103 1784 3103 
Q 1356 3103 1142 2972 
Q 928 2841 928 2578 
Q 928 2378 1081 2264 
Q 1234 2150 1697 2047 
L 1894 2003 
Q 2506 1872 2764 1633 
Q 3022 1394 3022 966 
Q 3022 478 2636 193 
Q 2250 -91 1575 -91 
Q 1294 -91 989 -36 
Q 684 19 347 128 
L 347 722 
Q 666 556 975 473 
Q 1284 391 1588 391 
Q 1994 391 2212 530 
Q 2431 669 2431 922 
Q 2431 1156 2273 1281 
Q 2116 1406 1581 1522 
L 1381 1569 
Q 847 1681 609 1914 
Q 372 2147 372 2553 
Q 372 3047 722 3315 
Q 1072 3584 1716 3584 
Q 2034 3584 2315 3537 
Q 2597 3491 2834 3397 
z
" transform="scale(0.015625)"/>
       <path id="DejaVuSans-5d" d="M 1947 4863 
L 1947 -844 
L 622 -844 
L 622 -397 
L 1369 -397 
L 1369 4416 
L 622 4416 
L 622 4863 
L 1947 4863 
z
" transform="scale(0.015625)"/>
      </defs>
      <use xlink:href="#DejaVuSans-Oblique-74" transform="translate(0 0.015625)"/>
      <use xlink:href="#DejaVuSans-20" transform="translate(39.208984 0.015625)"/>
      <use xlink:href="#DejaVuSans-5b" transform="translate(70.996094 0.015625)"/>
      <use xlink:href="#DejaVuSans-73" transform="translate(110.009766 0.015625)"/>
      <use xlink:href="#DejaVuSans-5d" transform="translate(162.109375 0.015625)"/>
     </g>
    </g>
   </g>
   <g id="matplotlib.axis_2">
    <g id="ytick_1">
     <g id="line2d_15">
      <path d="M 58.106 76.432661 
L 450 76.432661 
" clip-path="url(#pba5e282d6e)" style="fill: none; stroke: #b0b0b0; stroke-width: 0.8; stroke-linecap: square"/>
     </g>
     <g id="line2d_16">
      <defs>
       <path id="mbedefb56bc" d="M 0 0 
L -3.5 0 
" style="stroke: #000000; stroke-width: 0.8"/>
      </defs>
      <g>
       <use xlink:href="#mbedefb56bc" x="58.106" y="76.432661" style="stroke: #000000; stroke-width: 0.8"/>
      </g>
     </g>
     <g id="text_9">
      <!-- 0 -->
      <g transform="translate(44.7435 80.231879)scale(0.1 -0.1)">
       <use xlink:href="#DejaVuSans-30"/>
      </g>
     </g>
    </g>
    <g id="ytick_2">
     <g id="line2d_17">
      <path d="M 58.106 30.614427 
L 450 30.614427 
" clip-path="url(#pba5e282d6e)" style="fill: none; stroke: #b0b0b0; stroke-width: 0.8; stroke-linecap: square"/>
     </g>
     <g id="line2d_18">
      <g>
       <use xlink:href="#mbedefb56bc" x="58.106" y="30.614427" style="stroke: #000000; stroke-width: 0.8"/>
      </g>
     </g>
     <g id="text_10">
      <!-- 10 -->
      <g transform="translate(38.381 34.413646)scale(0.1 -0.1)">
       <use xlink:href="#DejaVuSans-31"/>
       <use xlink:href="#DejaVuSans-30" x="63.623047"/>
      </g>
     </g>
    </g>
    <g id="text_11">
     <!-- $e_x$ [m] -->
     <g transform="translate(32.301313 69.20875)rotate(-90)scale(0.1 -0.1)">
      <defs>
       <path id="DejaVuSans-Oblique-65" d="M 3078 2063 
Q 3088 2113 3092 2166 
Q 3097 2219 3097 2272 
Q 3097 2653 2873 2875 
Q 2650 3097 2266 3097 
Q 1838 3097 1509 2826 
Q 1181 2556 1013 2059 
L 3078 2063 
z
M 3578 1613 
L 903 1613 
Q 884 1494 878 1425 
Q 872 1356 872 1306 
Q 872 872 1139 634 
Q 1406 397 1894 397 
Q 2269 397 2603 481 
Q 2938 566 3225 728 
L 3116 159 
Q 2806 34 2476 -28 
Q 2147 -91 1806 -91 
Q 1078 -91 686 257 
Q 294 606 294 1247 
Q 294 1794 489 2264 
Q 684 2734 1063 3103 
Q 1306 3334 1642 3459 
Q 1978 3584 2356 3584 
Q 2950 3584 3301 3228 
Q 3653 2872 3653 2272 
Q 3653 2128 3634 1964 
Q 3616 1800 3578 1613 
z
" transform="scale(0.015625)"/>
       <path id="DejaVuSans-Oblique-78" d="M 3841 3500 
L 2234 1784 
L 3219 0 
L 2559 0 
L 1819 1388 
L 531 0 
L -166 0 
L 1556 1844 
L 641 3500 
L 1300 3500 
L 1972 2234 
L 3144 3500 
L 3841 3500 
z
" transform="scale(0.015625)"/>
       <path id="DejaVuSans-6d" d="M 3328 2828 
Q 3544 3216 3844 3400 
Q 4144 3584 4550 3584 
Q 5097 3584 5394 3201 
Q 5691 2819 5691 2113 
L 5691 0 
L 5113 0 
L 5113 2094 
Q 5113 2597 4934 2840 
Q 4756 3084 4391 3084 
Q 3944 3084 3684 2787 
Q 3425 2491 3425 1978 
L 3425 0 
L 2847 0 
L 2847 2094 
Q 2847 2600 2669 2842 
Q 2491 3084 2119 3084 
Q 1678 3084 1418 2786 
Q 1159 2488 1159 1978 
L 1159 0 
L 581 0 
L 581 3500 
L 1159 3500 
L 1159 2956 
Q 1356 3278 1631 3431 
Q 1906 3584 2284 3584 
Q 2666 3584 2933 3390 
Q 3200 3197 3328 2828 
z
" transform="scale(0.015625)"/>
      </defs>
      <use xlink:href="#DejaVuSans-Oblique-65" transform="translate(0 0.015625)"/>
      <use xlink:href="#DejaVuSans-Oblique-78" transform="translate(61.523438 -16.390625)scale(0.7)"/>
      <use xlink:href="#DejaVuSans-20" transform="translate(105.683594 0.015625)"/>
      <use xlink:href="#DejaVuSans-5b" transform="translate(137.470703 0.015625)"/>
      <use xlink:href="#DejaVuSans-6d" transform="translate(176.484375 0.015625)"/>
      <use xlink:href="#DejaVuSans-5d" transform="translate(273.896484 0.015625)"/>
     </g>
    </g>
   </g>
   <g id="line2d_19">
    <path d="M 75.919364 30.614432 
L 82.072006 30.709833 
L 87.345699 30.924361 
L 91.154477 31.02535 
L 98.186068 31.446415 
L 101.115898 31.805991 
L 102.580813 31.989644 
L 105.510642 32.38873 
L 106.096608 32.485262 
L 107.561523 32.64809 
L 108.733455 32.816598 
L 110.784335 33.1421 
L 111.956267 33.335606 
L 114.007148 33.700832 
L 114.886097 33.867562 
L 117.815926 34.37922 
L 118.694875 34.554501 
L 121.038739 34.990457 
L 122.21067 35.260287 
L 124.554534 35.75303 
L 128.363313 36.6986 
L 128.949278 36.809255 
L 131.000159 37.289134 
L 133.637006 37.989588 
L 133.929989 37.989588 
L 135.10192 38.34653 
L 136.859818 38.798391 
L 137.445784 38.889509 
L 138.324733 39.164386 
L 139.789648 39.533627 
L 141.840528 40.060414 
L 143.598426 40.525375 
L 145.649307 41.04676 
L 145.94229 41.198207 
L 146.235273 41.198207 
L 146.821239 41.378548 
L 149.165102 41.939797 
L 150.044051 42.231029 
L 150.923 42.376158 
L 152.094932 42.723381 
L 152.680898 42.809811 
L 153.85283 43.153311 
L 155.90371 43.663395 
L 156.196693 43.663395 
L 157.368625 44.003179 
L 157.954591 44.08839 
L 159.126523 44.430785 
L 159.712489 44.516815 
L 160.591438 44.804352 
L 161.470386 44.948039 
L 162.349335 45.233474 
L 163.228284 45.374625 
L 163.521267 45.514394 
L 164.107233 45.625084 
L 166.74408 46.188417 
L 167.623028 46.447808 
L 168.501977 46.575937 
L 168.79496 46.703141 
L 169.380926 46.804268 
L 172.017773 47.326357 
L 172.896722 47.57045 
L 173.77567 47.691802 
L 174.654619 47.933731 
L 175.533568 48.054406 
L 175.826551 48.174809 
L 176.412517 48.270826 
L 179.342347 48.8607 
L 182.272176 49.469263 
L 182.858142 49.562608 
L 185.787972 50.109654 
L 186.66692 50.289426 
L 189.303767 50.793141 
L 190.182716 50.977421 
L 192.819563 51.468934 
L 193.698511 51.641976 
L 195.749392 52.03445 
L 198.093256 52.461698 
L 200.730102 52.96706 
L 203.952915 53.565214 
L 206.882744 54.09622 
L 207.761693 54.270893 
L 210.105557 54.696764 
L 210.984506 54.867155 
L 213.621352 55.349311 
L 214.500301 55.526027 
L 217.137148 55.999378 
L 218.016097 56.167746 
L 220.652943 56.636596 
L 221.531892 56.809577 
L 224.461722 57.31893 
L 225.34067 57.483161 
L 227.977517 57.933816 
L 228.856466 58.100814 
L 231.786295 58.598446 
L 232.665244 58.758372 
L 235.302091 59.172661 
L 235.888057 59.313398 
L 238.817886 59.78435 
L 239.403852 59.925703 
L 242.333682 60.402198 
L 243.212631 60.563059 
L 245.849477 60.99084 
L 246.435443 61.131273 
L 250.830188 61.837415 
L 254.931949 62.565062 
L 259.326693 63.228484 
L 260.205642 63.400761 
L 264.01442 64.011362 
L 267.237233 64.496379 
L 268.409165 64.658568 
L 271.338994 65.094856 
L 274.561807 65.579109 
L 278.370585 66.135667 
L 278.956551 66.204657 
L 281.886381 66.633087 
L 282.76533 66.727366 
L 287.160074 67.319043 
L 292.140784 67.970977 
L 293.019733 68.105166 
L 296.535528 68.57496 
L 299.465358 68.952606 
L 303.567119 69.452304 
L 307.082915 69.914288 
L 310.891693 70.391024 
L 312.063625 70.542527 
L 316.165386 71.078555 
L 317.630301 71.265393 
L 323.196977 71.995497 
L 324.661892 72.16098 
L 328.47067 72.642632 
L 329.935585 72.820566 
L 333.158398 73.224365 
L 339.31104 73.930026 
L 340.482972 74.070715 
L 357.768966 75.613458 
L 370.367233 76.082431 
L 387.360244 75.976238 
L 414.021693 75.586876 
L 432.186636 76.503068 
L 432.186636 76.503068 
" clip-path="url(#pba5e282d6e)" style="fill: none; stroke: #ff0000; stroke-width: 1.5; stroke-linecap: square"/>
   </g>
   <g id="patch_3">
    <path d="M 58.106 78.7975 
L 58.106 28.32 
" style="fill: none; stroke: #000000; stroke-width: 0.8; stroke-linejoin: miter; stroke-linecap: square"/>
   </g>
   <g id="patch_4">
    <path d="M 450 78.7975 
L 450 28.32 
" style="fill: none; stroke: #000000; stroke-width: 0.8; stroke-linejoin: miter; stroke-linecap: square"/>
   </g>
   <g id="patch_5">
    <path d="M 58.106 78.7975 
L 450 78.7975 
" style="fill: none; stroke: #000000; stroke-width: 0.8; stroke-linejoin: miter; stroke-linecap: square"/>
   </g>
   <g id="patch_6">
    <path d="M 58.106 28.32 
L 450 28.32 
" style="fill: none; stroke: #000000; stroke-width: 0.8; stroke-linejoin: miter; stroke-linecap: square"/>
   </g>
   <g id="text_12">
    <!-- Error in $x$-position -->
    <g transform="translate(200.413 22.32)scale(0.12 -0.12)">
     <defs>
      <path id="DejaVuSans-45" d="M 628 4666 
L 3578 4666 
L 3578 4134 
L 1259 4134 
L 1259 2753 
L 3481 2753 
L 3481 2222 
L 1259 2222 
L 1259 531 
L 3634 531 
L 3634 0 
L 628 0 
L 628 4666 
z
" transform="scale(0.015625)"/>
      <path id="DejaVuSans-72" d="M 2631 2963 
Q 2534 3019 2420 3045 
Q 2306 3072 2169 3072 
Q 1681 3072 1420 2755 
Q 1159 2438 1159 1844 
L 1159 0 
L 581 0 
L 581 3500 
L 1159 3500 
L 1159 2956 
Q 1341 3275 1631 3429 
Q 1922 3584 2338 3584 
Q 2397 3584 2469 3576 
Q 2541 3569 2628 3553 
L 2631 2963 
z
" transform="scale(0.015625)"/>
      <path id="DejaVuSans-6f" d="M 1959 3097 
Q 1497 3097 1228 2736 
Q 959 2375 959 1747 
Q 959 1119 1226 758 
Q 1494 397 1959 397 
Q 2419 397 2687 759 
Q 2956 1122 2956 1747 
Q 2956 2369 2687 2733 
Q 2419 3097 1959 3097 
z
M 1959 3584 
Q 2709 3584 3137 3096 
Q 3566 2609 3566 1747 
Q 3566 888 3137 398 
Q 2709 -91 1959 -91 
Q 1206 -91 779 398 
Q 353 888 353 1747 
Q 353 2609 779 3096 
Q 1206 3584 1959 3584 
z
" transform="scale(0.015625)"/>
      <path id="DejaVuSans-69" d="M 603 3500 
L 1178 3500 
L 1178 0 
L 603 0 
L 603 3500 
z
M 603 4863 
L 1178 4863 
L 1178 4134 
L 603 4134 
L 603 4863 
z
" transform="scale(0.015625)"/>
      <path id="DejaVuSans-6e" d="M 3513 2113 
L 3513 0 
L 2938 0 
L 2938 2094 
Q 2938 2591 2744 2837 
Q 2550 3084 2163 3084 
Q 1697 3084 1428 2787 
Q 1159 2491 1159 1978 
L 1159 0 
L 581 0 
L 581 3500 
L 1159 3500 
L 1159 2956 
Q 1366 3272 1645 3428 
Q 1925 3584 2291 3584 
Q 2894 3584 3203 3211 
Q 3513 2838 3513 2113 
z
" transform="scale(0.015625)"/>
      <path id="DejaVuSans-2d" d="M 313 2009 
L 1997 2009 
L 1997 1497 
L 313 1497 
L 313 2009 
z
" transform="scale(0.015625)"/>
      <path id="DejaVuSans-70" d="M 1159 525 
L 1159 -1331 
L 581 -1331 
L 581 3500 
L 1159 3500 
L 1159 2969 
Q 1341 3281 1617 3432 
Q 1894 3584 2278 3584 
Q 2916 3584 3314 3078 
Q 3713 2572 3713 1747 
Q 3713 922 3314 415 
Q 2916 -91 2278 -91 
Q 1894 -91 1617 61 
Q 1341 213 1159 525 
z
M 3116 1747 
Q 3116 2381 2855 2742 
Q 2594 3103 2138 3103 
Q 1681 3103 1420 2742 
Q 1159 2381 1159 1747 
Q 1159 1113 1420 752 
Q 1681 391 2138 391 
Q 2594 391 2855 752 
Q 3116 1113 3116 1747 
z
" transform="scale(0.015625)"/>
      <path id="DejaVuSans-74" d="M 1172 4494 
L 1172 3500 
L 2356 3500 
L 2356 3053 
L 1172 3053 
L 1172 1153 
Q 1172 725 1289 603 
Q 1406 481 1766 481 
L 2356 481 
L 2356 0 
L 1766 0 
Q 1100 0 847 248 
Q 594 497 594 1153 
L 594 3053 
L 172 3053 
L 172 3500 
L 594 3500 
L 594 4494 
L 1172 4494 
z
" transform="scale(0.015625)"/>
     </defs>
     <use xlink:href="#DejaVuSans-45" transform="translate(0 0.015625)"/>
     <use xlink:href="#DejaVuSans-72" transform="translate(63.183594 0.015625)"/>
     <use xlink:href="#DejaVuSans-72" transform="translate(104.296875 0.015625)"/>
     <use xlink:href="#DejaVuSans-6f" transform="translate(145.410156 0.015625)"/>
     <use xlink:href="#DejaVuSans-72" transform="translate(206.591797 0.015625)"/>
     <use xlink:href="#DejaVuSans-20" transform="translate(247.705078 0.015625)"/>
     <use xlink:href="#DejaVuSans-69" transform="translate(279.492188 0.015625)"/>
     <use xlink:href="#DejaVuSans-6e" transform="translate(307.275391 0.015625)"/>
     <use xlink:href="#DejaVuSans-20" transform="translate(370.654297 0.015625)"/>
     <use xlink:href="#DejaVuSans-Oblique-78" transform="translate(402.441406 0.015625)"/>
     <use xlink:href="#DejaVuSans-2d" transform="translate(461.621094 0.015625)"/>
     <use xlink:href="#DejaVuSans-70" transform="translate(497.705078 0.015625)"/>
     <use xlink:href="#DejaVuSans-6f" transform="translate(561.181641 0.015625)"/>
     <use xlink:href="#DejaVuSans-73" transform="translate(622.363281 0.015625)"/>
     <use xlink:href="#DejaVuSans-69" transform="translate(674.462891 0.015625)"/>
     <use xlink:href="#DejaVuSans-74" transform="translate(702.246094 0.015625)"/>
     <use xlink:href="#DejaVuSans-69" transform="translate(741.455078 0.015625)"/>
     <use xlink:href="#DejaVuSans-6f" transform="translate(769.238281 0.015625)"/>
     <use xlink:href="#DejaVuSans-6e" transform="translate(830.419922 0.015625)"/>
    </g>
   </g>
  </g>
  <g id="axes_2">
   <g id="patch_7">
    <path d="M 58.106 190.3975 
L 450 190.3975 
L 450 139.92 
L 58.106 139.92 
z
" style="fill: #ffffff"/>
   </g>
   <g id="matplotlib.axis_3">
    <g id="xtick_8">
     <g id="line2d_20">
      <path d="M 75.919364 190.3975 
L 75.919364 139.92 
" clip-path="url(#p7274b4f1f2)" style="fill: none; stroke: #b0b0b0; stroke-width: 0.8; stroke-linecap: square"/>
     </g>
     <g id="line2d_21">
      <g>
       <use xlink:href="#madb7bb1df7" x="75.919364" y="190.3975" style="stroke: #000000; stroke-width: 0.8"/>
      </g>
     </g>
     <g id="text_13">
      <!-- 0 -->
      <g transform="translate(72.738114 204.995937)scale(0.1 -0.1)">
       <use xlink:href="#DejaVuSans-30"/>
      </g>
     </g>
    </g>
    <g id="xtick_9">
     <g id="line2d_22">
      <path d="M 134.467806 190.3975 
L 134.467806 139.92 
" clip-path="url(#p7274b4f1f2)" style="fill: none; stroke: #b0b0b0; stroke-width: 0.8; stroke-linecap: square"/>
     </g>
     <g id="line2d_23">
      <g>
       <use xlink:href="#madb7bb1df7" x="134.467806" y="190.3975" style="stroke: #000000; stroke-width: 0.8"/>
      </g>
     </g>
     <g id="text_14">
      <!-- 2 -->
      <g transform="translate(131.286556 204.995937)scale(0.1 -0.1)">
       <use xlink:href="#DejaVuSans-32"/>
      </g>
     </g>
    </g>
    <g id="xtick_10">
     <g id="line2d_24">
      <path d="M 193.016249 190.3975 
L 193.016249 139.92 
" clip-path="url(#p7274b4f1f2)" style="fill: none; stroke: #b0b0b0; stroke-width: 0.8; stroke-linecap: square"/>
     </g>
     <g id="line2d_25">
      <g>
       <use xlink:href="#madb7bb1df7" x="193.016249" y="190.3975" style="stroke: #000000; stroke-width: 0.8"/>
      </g>
     </g>
     <g id="text_15">
      <!-- 4 -->
      <g transform="translate(189.834999 204.995937)scale(0.1 -0.1)">
       <use xlink:href="#DejaVuSans-34"/>
      </g>
     </g>
    </g>
    <g id="xtick_11">
     <g id="line2d_26">
      <path d="M 251.564691 190.3975 
L 251.564691 139.92 
" clip-path="url(#p7274b4f1f2)" style="fill: none; stroke: #b0b0b0; stroke-width: 0.8; stroke-linecap: square"/>
     </g>
     <g id="line2d_27">
      <g>
       <use xlink:href="#madb7bb1df7" x="251.564691" y="190.3975" style="stroke: #000000; stroke-width: 0.8"/>
      </g>
     </g>
     <g id="text_16">
      <!-- 6 -->
      <g transform="translate(248.383441 204.995937)scale(0.1 -0.1)">
       <use xlink:href="#DejaVuSans-36"/>
      </g>
     </g>
    </g>
    <g id="xtick_12">
     <g id="line2d_28">
      <path d="M 310.113134 190.3975 
L 310.113134 139.92 
" clip-path="url(#p7274b4f1f2)" style="fill: none; stroke: #b0b0b0; stroke-width: 0.8; stroke-linecap: square"/>
     </g>
     <g id="line2d_29">
      <g>
       <use xlink:href="#madb7bb1df7" x="310.113134" y="190.3975" style="stroke: #000000; stroke-width: 0.8"/>
      </g>
     </g>
     <g id="text_17">
      <!-- 8 -->
      <g transform="translate(306.931884 204.995937)scale(0.1 -0.1)">
       <use xlink:href="#DejaVuSans-38"/>
      </g>
     </g>
    </g>
    <g id="xtick_13">
     <g id="line2d_30">
      <path d="M 368.661576 190.3975 
L 368.661576 139.92 
" clip-path="url(#p7274b4f1f2)" style="fill: none; stroke: #b0b0b0; stroke-width: 0.8; stroke-linecap: square"/>
     </g>
     <g id="line2d_31">
      <g>
       <use xlink:href="#madb7bb1df7" x="368.661576" y="190.3975" style="stroke: #000000; stroke-width: 0.8"/>
      </g>
     </g>
     <g id="text_18">
      <!-- 10 -->
      <g transform="translate(362.299076 204.995937)scale(0.1 -0.1)">
       <use xlink:href="#DejaVuSans-31"/>
       <use xlink:href="#DejaVuSans-30" x="63.623047"/>
      </g>
     </g>
    </g>
    <g id="xtick_14">
     <g id="line2d_32">
      <path d="M 427.210019 190.3975 
L 427.210019 139.92 
" clip-path="url(#p7274b4f1f2)" style="fill: none; stroke: #b0b0b0; stroke-width: 0.8; stroke-linecap: square"/>
     </g>
     <g id="line2d_33">
      <g>
       <use xlink:href="#madb7bb1df7" x="427.210019" y="190.3975" style="stroke: #000000; stroke-width: 0.8"/>
      </g>
     </g>
     <g id="text_19">
      <!-- 12 -->
      <g transform="translate(420.847519 204.995937)scale(0.1 -0.1)">
       <use xlink:href="#DejaVuSans-31"/>
       <use xlink:href="#DejaVuSans-32" x="63.623047"/>
      </g>
     </g>
    </g>
    <g id="text_20">
     <!-- $t$ [s] -->
     <g transform="translate(243.953 218.674062)scale(0.1 -0.1)">
      <use xlink:href="#DejaVuSans-Oblique-74" transform="translate(0 0.015625)"/>
      <use xlink:href="#DejaVuSans-20" transform="translate(39.208984 0.015625)"/>
      <use xlink:href="#DejaVuSans-5b" transform="translate(70.996094 0.015625)"/>
      <use xlink:href="#DejaVuSans-73" transform="translate(110.009766 0.015625)"/>
      <use xlink:href="#DejaVuSans-5d" transform="translate(162.109375 0.015625)"/>
     </g>
    </g>
   </g>
   <g id="matplotlib.axis_4">
    <g id="ytick_3">
     <g id="line2d_34">
      <path d="M 58.106 181.708048 
L 450 181.708048 
" clip-path="url(#p7274b4f1f2)" style="fill: none; stroke: #b0b0b0; stroke-width: 0.8; stroke-linecap: square"/>
     </g>
     <g id="line2d_35">
      <g>
       <use xlink:href="#mbedefb56bc" x="58.106" y="181.708048" style="stroke: #000000; stroke-width: 0.8"/>
      </g>
     </g>
     <g id="text_21">
      <!-- −0.1 -->
      <g transform="translate(26.823188 185.507267)scale(0.1 -0.1)">
       <defs>
        <path id="DejaVuSans-2212" d="M 678 2272 
L 4684 2272 
L 4684 1741 
L 678 1741 
L 678 2272 
z
" transform="scale(0.015625)"/>
        <path id="DejaVuSans-2e" d="M 684 794 
L 1344 794 
L 1344 0 
L 684 0 
L 684 794 
z
" transform="scale(0.015625)"/>
       </defs>
       <use xlink:href="#DejaVuSans-2212"/>
       <use xlink:href="#DejaVuSans-30" x="83.789062"/>
       <use xlink:href="#DejaVuSans-2e" x="147.412109"/>
       <use xlink:href="#DejaVuSans-31" x="179.199219"/>
      </g>
     </g>
    </g>
    <g id="ytick_4">
     <g id="line2d_36">
      <path d="M 58.106 166.436743 
L 450 166.436743 
" clip-path="url(#p7274b4f1f2)" style="fill: none; stroke: #b0b0b0; stroke-width: 0.8; stroke-linecap: square"/>
     </g>
     <g id="line2d_37">
      <g>
       <use xlink:href="#mbedefb56bc" x="58.106" y="166.436743" style="stroke: #000000; stroke-width: 0.8"/>
      </g>
     </g>
     <g id="text_22">
      <!-- 0.0 -->
      <g transform="translate(35.202875 170.235962)scale(0.1 -0.1)">
       <use xlink:href="#DejaVuSans-30"/>
       <use xlink:href="#DejaVuSans-2e" x="63.623047"/>
       <use xlink:href="#DejaVuSans-30" x="95.410156"/>
      </g>
     </g>
    </g>
    <g id="ytick_5">
     <g id="line2d_38">
      <path d="M 58.106 151.165438 
L 450 151.165438 
" clip-path="url(#p7274b4f1f2)" style="fill: none; stroke: #b0b0b0; stroke-width: 0.8; stroke-linecap: square"/>
     </g>
     <g id="line2d_39">
      <g>
       <use xlink:href="#mbedefb56bc" x="58.106" y="151.165438" style="stroke: #000000; stroke-width: 0.8"/>
      </g>
     </g>
     <g id="text_23">
      <!-- 0.1 -->
      <g transform="translate(35.202875 154.964656)scale(0.1 -0.1)">
       <use xlink:href="#DejaVuSans-30"/>
       <use xlink:href="#DejaVuSans-2e" x="63.623047"/>
       <use xlink:href="#DejaVuSans-31" x="95.410156"/>
      </g>
     </g>
    </g>
    <g id="text_24">
     <!-- $e_z$ [m] -->
     <g transform="translate(20.7435 180.60875)rotate(-90)scale(0.1 -0.1)">
      <defs>
       <path id="DejaVuSans-Oblique-7a" d="M 744 3500 
L 3475 3500 
L 3372 2975 
L 738 459 
L 2913 459 
L 2822 0 
L -19 0 
L 84 525 
L 2719 3041 
L 653 3041 
L 744 3500 
z
" transform="scale(0.015625)"/>
      </defs>
      <use xlink:href="#DejaVuSans-Oblique-65" transform="translate(0 0.015625)"/>
      <use xlink:href="#DejaVuSans-Oblique-7a" transform="translate(61.523438 -16.390625)scale(0.7)"/>
      <use xlink:href="#DejaVuSans-20" transform="translate(101.000977 0.015625)"/>
      <use xlink:href="#DejaVuSans-5b" transform="translate(132.788086 0.015625)"/>
      <use xlink:href="#DejaVuSans-6d" transform="translate(171.801758 0.015625)"/>
      <use xlink:href="#DejaVuSans-5d" transform="translate(269.213867 0.015625)"/>
     </g>
    </g>
   </g>
   <g id="line2d_40">
    <path d="M 75.919364 167.879117 
L 76.50533 167.710851 
L 76.798313 167.420151 
L 77.091295 167.420151 
L 77.677261 167.063329 
L 78.849193 166.705257 
L 79.728142 166.769291 
L 80.900074 167.046916 
L 81.779023 167.027012 
L 82.364989 166.746681 
L 83.243938 166.283301 
L 83.53692 166.08614 
L 83.829903 165.51773 
L 84.122886 165.51773 
L 84.415869 165.011911 
L 85.587801 163.868586 
L 85.880784 163.408101 
L 87.052716 162.452096 
L 87.345699 161.985491 
L 87.638682 161.985491 
L 87.931665 161.442635 
L 88.224648 161.135774 
L 88.810614 160.066394 
L 89.103597 159.869968 
L 89.39658 159.469065 
L 89.689563 158.650907 
L 89.982545 158.240654 
L 90.568511 157.059966 
L 90.861494 156.87773 
L 91.154477 156.531767 
L 91.740443 155.559949 
L 92.033426 155.26846 
L 94.084307 154.784702 
L 96.42817 154.651975 
L 97.600102 154.679333 
L 98.479051 154.814454 
L 101.408881 155.228175 
L 101.994847 155.101205 
L 102.580813 154.879125 
L 103.166778 154.622881 
L 103.459761 154.468966 
L 103.752744 154.110258 
L 104.045727 154.110258 
L 104.33871 153.458461 
L 104.631693 153.338602 
L 105.217659 152.834051 
L 105.510642 152.305019 
L 105.803625 152.305019 
L 106.096608 151.517424 
L 106.682574 151.148467 
L 107.561523 150.413557 
L 107.854506 150.085258 
L 110.784335 148.549046 
L 111.370301 148.021702 
L 112.542233 147.195203 
L 112.835216 146.87148 
L 115.17908 145.793733 
L 116.058028 145.406184 
L 116.643994 144.984463 
L 117.522943 144.471474 
L 118.694875 143.452034 
L 120.745756 142.409765 
L 121.917687 142.214432 
L 123.382602 142.31087 
L 124.847517 142.778729 
L 125.433483 143.146967 
L 126.312432 143.651367 
L 126.605415 143.941409 
L 126.898398 143.941409 
L 127.484364 144.326643 
L 128.363313 144.733653 
L 128.656295 144.733653 
L 129.535244 145.013889 
L 131.000159 145.576497 
L 132.465074 146.820798 
L 133.05104 147.325818 
L 133.637006 148.264532 
L 133.929989 148.264532 
L 134.222972 148.794403 
L 134.808938 149.415715 
L 135.394903 150.079611 
L 135.687886 150.079611 
L 135.980869 150.466401 
L 137.445784 151.351359 
L 138.03175 151.825831 
L 138.617716 152.298866 
L 139.203682 152.514212 
L 139.789648 152.886692 
L 141.547545 153.460226 
L 145.063341 154.108612 
L 145.649307 154.331565 
L 145.94229 154.736946 
L 146.235273 154.736946 
L 146.821239 155.407601 
L 147.700188 156.232936 
L 148.872119 157.831896 
L 149.165102 158.097769 
L 149.458085 158.585416 
L 149.751068 158.585416 
L 150.044051 159.195807 
L 150.630017 159.447428 
L 151.801949 160.157783 
L 152.387915 160.391749 
L 153.266864 160.84706 
L 154.145813 161.23943 
L 154.438795 161.23943 
L 155.024761 161.427919 
L 155.610727 161.583313 
L 155.90371 161.734886 
L 156.196693 161.734886 
L 157.368625 162.416673 
L 157.954591 162.664826 
L 158.540557 163.269805 
L 159.419506 164.190468 
L 159.712489 164.500762 
L 160.591438 166.271841 
L 160.88442 166.460246 
L 161.470386 167.211824 
L 161.763369 167.934387 
L 162.056352 167.934387 
L 162.349335 168.907073 
L 162.642318 169.052908 
L 163.228284 169.586066 
L 163.521267 170.150645 
L 163.81425 170.150645 
L 164.107233 170.539855 
L 165.572148 171.46164 
L 166.158114 171.96111 
L 166.74408 172.299252 
L 167.330045 172.887366 
L 167.623028 173.129833 
L 168.208994 173.363267 
L 168.501977 173.513122 
L 168.79496 173.865008 
L 169.087943 173.865008 
L 169.673909 174.246598 
L 170.259875 174.478166 
L 170.552858 174.744922 
L 170.845841 174.744922 
L 171.431807 175.047429 
L 172.310756 175.459065 
L 173.189705 175.858343 
L 173.77567 176.104304 
L 174.654619 176.720526 
L 175.533568 176.994142 
L 175.826551 177.223595 
L 176.119534 177.223595 
L 176.7055 177.434274 
L 177.584449 177.67095 
L 179.049364 178.197832 
L 179.928313 178.924955 
L 180.514278 179.145216 
L 182.272176 179.897739 
L 185.787972 179.896771 
L 187.545869 180.849478 
L 187.838852 181.197558 
L 189.303767 181.927975 
L 189.889733 182.078804 
L 190.768682 182.047362 
L 191.647631 181.828961 
L 193.991494 181.401697 
L 194.870443 181.638333 
L 196.042375 182.574098 
L 196.628341 182.83317 
L 196.921324 183.144259 
L 198.093256 183.595135 
L 199.265188 183.670706 
L 201.902034 183.569552 
L 203.073966 184.041501 
L 203.659932 184.479732 
L 204.831864 185.160222 
L 205.124847 185.399658 
L 205.41783 185.399658 
L 206.003795 185.624087 
L 206.882744 185.670099 
L 209.519591 185.330712 
L 210.105557 185.403608 
L 210.39854 185.538042 
L 210.691523 185.538042 
L 211.277489 185.838781 
L 211.863455 186.136723 
L 212.156438 186.361197 
L 212.44942 186.361197 
L 213.035386 186.616258 
L 213.914335 186.701523 
L 214.500301 186.614017 
L 215.37925 186.344062 
L 215.672233 186.163775 
L 215.965216 186.163775 
L 216.551182 185.923426 
L 217.430131 185.859127 
L 217.723114 185.859127 
L 218.895045 186.356191 
L 219.188028 186.600422 
L 219.481011 186.600422 
L 220.066977 186.919366 
L 221.238909 187.151926 
L 222.410841 186.95299 
L 223.582773 186.55425 
L 224.461722 186.485639 
L 225.926636 186.788119 
L 227.098568 187.243737 
L 228.563483 187.444357 
L 229.735415 187.328531 
L 230.907347 187.104332 
L 231.786295 187.137569 
L 234.423142 187.552407 
L 236.18104 187.547908 
L 238.524903 187.474329 
L 238.817886 187.474329 
L 239.403852 187.635625 
L 241.747716 187.996736 
L 242.919648 187.845368 
L 245.263511 187.582895 
L 247.021409 187.86735 
L 248.486324 188.103068 
L 249.365273 187.995569 
L 250.244222 187.703752 
L 251.12317 187.409792 
L 251.709136 187.170583 
L 253.174051 186.941808 
L 254.345983 187.057088 
L 255.224932 187.195494 
L 256.396864 187.190741 
L 257.861778 186.660594 
L 258.447744 186.31962 
L 259.326693 186.012801 
L 259.619676 185.766282 
L 259.912659 185.766282 
L 260.498625 185.493128 
L 261.670557 185.273007 
L 265.186352 185.396186 
L 266.651267 184.794508 
L 267.530216 184.428274 
L 268.116182 184.210897 
L 268.995131 183.63333 
L 271.046011 183.386982 
L 272.217943 183.655245 
L 272.510926 183.867195 
L 274.268824 184.005799 
L 275.733739 183.550831 
L 276.319705 183.30465 
L 276.612687 183.108483 
L 276.90567 183.108483 
L 277.491636 182.827876 
L 278.370585 182.559321 
L 279.8355 182.659515 
L 282.472347 183.087666 
L 283.058313 182.975326 
L 286.281125 181.851999 
L 287.453057 181.841044 
L 289.503938 182.1989 
L 290.675869 182.252158 
L 291.847801 182.066137 
L 292.140784 182.000539 
L 292.433767 181.807619 
L 292.72675 181.807619 
L 293.312716 181.585519 
L 295.363597 181.317037 
L 297.121494 181.372571 
L 300.63729 181.482695 
L 305.325017 181.133327 
L 309.719761 181.306445 
L 311.184676 181.154404 
L 313.821523 181.200909 
L 316.458369 181.688146 
L 318.50925 181.634882 
L 319.388199 181.516809 
L 320.853114 181.508506 
L 322.318028 181.675882 
L 326.712773 182.323513 
L 329.935585 182.461366 
L 331.986466 182.797218 
L 332.865415 182.993637 
L 336.967176 183.57789 
L 339.31104 183.72268 
L 343.705784 184.778125 
L 346.342631 185.544477 
L 347.514563 185.442704 
L 348.393511 185.290709 
L 348.686494 185.12953 
L 351.030358 185.052735 
L 351.909307 185.196957 
L 352.20229 185.375352 
L 354.25317 185.483079 
L 354.839136 185.339249 
L 356.304051 184.260529 
L 356.597034 184.260529 
L 357.183 183.704034 
L 357.475983 183.513382 
L 358.354932 183.282351 
L 359.233881 183.040813 
L 360.11283 182.903812 
L 361.284761 182.12966 
L 361.577744 181.813906 
L 361.870727 181.813906 
L 362.16371 181.336219 
L 362.749676 180.717604 
L 363.335642 180.042773 
L 363.628625 180.042773 
L 363.921608 179.661302 
L 365.09354 179.061672 
L 366.558455 178.96761 
L 368.023369 178.546296 
L 370.367233 176.74618 
L 370.660216 176.74618 
L 371.246182 176.554275 
L 373.00408 176.51086 
L 373.297063 176.312634 
L 373.883028 176.128226 
L 374.176011 175.97141 
L 374.761977 175.350059 
L 375.640926 174.288906 
L 375.933909 174.288906 
L 376.226892 173.898024 
L 377.398824 173.333174 
L 378.277773 173.411537 
L 378.863739 173.637276 
L 379.449705 173.909417 
L 380.328653 174.026833 
L 380.914619 173.951749 
L 382.379534 173.05345 
L 383.551466 171.673228 
L 384.137432 171.211759 
L 384.430415 170.736418 
L 384.723398 170.736418 
L 385.016381 170.479253 
L 385.89533 170.322421 
L 388.532176 170.216768 
L 389.411125 169.794158 
L 389.997091 169.295578 
L 390.290074 168.88178 
L 391.754989 168.016096 
L 392.340955 167.885997 
L 392.92692 167.94934 
L 394.977801 168.595877 
L 395.85675 168.418983 
L 396.735699 167.993105 
L 397.907631 166.913913 
L 398.78658 166.508838 
L 399.372545 166.444296 
L 400.251494 166.649734 
L 401.423426 167.356849 
L 402.302375 167.57207 
L 403.181324 167.447959 
L 403.474307 167.340567 
L 404.646239 166.256046 
L 405.232205 165.987356 
L 405.525188 165.61458 
L 405.81817 165.61458 
L 406.111153 165.424692 
L 406.990102 165.377734 
L 407.576068 165.496316 
L 408.162034 165.72507 
L 409.333966 165.922731 
L 410.212915 165.698562 
L 410.798881 165.419151 
L 412.556778 163.825281 
L 412.849761 163.825281 
L 413.142744 163.475151 
L 414.607659 163.364035 
L 415.486608 163.491152 
L 416.365557 163.506894 
L 417.537489 163.169017 
L 417.830472 162.912167 
L 418.123455 162.912167 
L 418.416438 162.482781 
L 419.002403 162.257422 
L 419.295386 162.099837 
L 419.881352 161.585065 
L 420.467318 161.059728 
L 421.053284 160.835029 
L 421.346267 160.620606 
L 422.225216 160.522817 
L 422.518199 160.643181 
L 422.811182 160.643181 
L 424.56908 162.184688 
L 424.862063 162.727688 
L 425.741011 163.560251 
L 426.033994 163.916813 
L 426.326977 163.916813 
L 426.61996 164.167926 
L 427.498909 164.343511 
L 428.084875 164.301386 
L 430.428739 164.02727 
L 431.014705 164.165819 
L 432.186636 164.933746 
L 432.186636 164.933746 
" clip-path="url(#p7274b4f1f2)" style="fill: none; stroke: #0000ff; stroke-width: 1.5; stroke-linecap: square"/>
   </g>
   <g id="patch_8">
    <path d="M 58.106 190.3975 
L 58.106 139.92 
" style="fill: none; stroke: #000000; stroke-width: 0.8; stroke-linejoin: miter; stroke-linecap: square"/>
   </g>
   <g id="patch_9">
    <path d="M 450 190.3975 
L 450 139.92 
" style="fill: none; stroke: #000000; stroke-width: 0.8; stroke-linejoin: miter; stroke-linecap: square"/>
   </g>
   <g id="patch_10">
    <path d="M 58.106 190.3975 
L 450 190.3975 
" style="fill: none; stroke: #000000; stroke-width: 0.8; stroke-linejoin: miter; stroke-linecap: square"/>
   </g>
   <g id="patch_11">
    <path d="M 58.106 139.92 
L 450 139.92 
" style="fill: none; stroke: #000000; stroke-width: 0.8; stroke-linejoin: miter; stroke-linecap: square"/>
   </g>
   <g id="text_25">
    <!-- Error in $z$-position -->
    <g transform="translate(200.773 133.92)scale(0.12 -0.12)">
     <use xlink:href="#DejaVuSans-45" transform="translate(0 0.015625)"/>
     <use xlink:href="#DejaVuSans-72" transform="translate(63.183594 0.015625)"/>
     <use xlink:href="#DejaVuSans-72" transform="translate(104.296875 0.015625)"/>
     <use xlink:href="#DejaVuSans-6f" transform="translate(145.410156 0.015625)"/>
     <use xlink:href="#DejaVuSans-72" transform="translate(206.591797 0.015625)"/>
     <use xlink:href="#DejaVuSans-20" transform="translate(247.705078 0.015625)"/>
     <use xlink:href="#DejaVuSans-69" transform="translate(279.492188 0.015625)"/>
     <use xlink:href="#DejaVuSans-6e" transform="translate(307.275391 0.015625)"/>
     <use xlink:href="#DejaVuSans-20" transform="translate(370.654297 0.015625)"/>
     <use xlink:href="#DejaVuSans-Oblique-7a" transform="translate(402.441406 0.015625)"/>
     <use xlink:href="#DejaVuSans-2d" transform="translate(454.931641 0.015625)"/>
     <use xlink:href="#DejaVuSans-70" transform="translate(491.015625 0.015625)"/>
     <use xlink:href="#DejaVuSans-6f" transform="translate(554.492188 0.015625)"/>
     <use xlink:href="#DejaVuSans-73" transform="translate(615.673828 0.015625)"/>
     <use xlink:href="#DejaVuSans-69" transform="translate(667.773438 0.015625)"/>
     <use xlink:href="#DejaVuSans-74" transform="translate(695.556641 0.015625)"/>
     <use xlink:href="#DejaVuSans-69" transform="translate(734.765625 0.015625)"/>
     <use xlink:href="#DejaVuSans-6f" transform="translate(762.548828 0.015625)"/>
     <use xlink:href="#DejaVuSans-6e" transform="translate(823.730469 0.015625)"/>
    </g>
   </g>
  </g>
  <g id="axes_3">
   <g id="patch_12">
    <path d="M 58.106 301.9975 
L 450 301.9975 
L 450 251.52 
L 58.106 251.52 
z
" style="fill: #ffffff"/>
   </g>
   <g id="matplotlib.axis_5">
    <g id="xtick_15">
     <g id="line2d_41">
      <path d="M 75.919364 301.9975 
L 75.919364 251.52 
" clip-path="url(#pb4893d3162)" style="fill: none; stroke: #b0b0b0; stroke-width: 0.8; stroke-linecap: square"/>
     </g>
     <g id="line2d_42">
      <g>
       <use xlink:href="#madb7bb1df7" x="75.919364" y="301.9975" style="stroke: #000000; stroke-width: 0.8"/>
      </g>
     </g>
     <g id="text_26">
      <!-- 0 -->
      <g transform="translate(72.738114 316.595937)scale(0.1 -0.1)">
       <use xlink:href="#DejaVuSans-30"/>
      </g>
     </g>
    </g>
    <g id="xtick_16">
     <g id="line2d_43">
      <path d="M 134.467806 301.9975 
L 134.467806 251.52 
" clip-path="url(#pb4893d3162)" style="fill: none; stroke: #b0b0b0; stroke-width: 0.8; stroke-linecap: square"/>
     </g>
     <g id="line2d_44">
      <g>
       <use xlink:href="#madb7bb1df7" x="134.467806" y="301.9975" style="stroke: #000000; stroke-width: 0.8"/>
      </g>
     </g>
     <g id="text_27">
      <!-- 2 -->
      <g transform="translate(131.286556 316.595937)scale(0.1 -0.1)">
       <use xlink:href="#DejaVuSans-32"/>
      </g>
     </g>
    </g>
    <g id="xtick_17">
     <g id="line2d_45">
      <path d="M 193.016249 301.9975 
L 193.016249 251.52 
" clip-path="url(#pb4893d3162)" style="fill: none; stroke: #b0b0b0; stroke-width: 0.8; stroke-linecap: square"/>
     </g>
     <g id="line2d_46">
      <g>
       <use xlink:href="#madb7bb1df7" x="193.016249" y="301.9975" style="stroke: #000000; stroke-width: 0.8"/>
      </g>
     </g>
     <g id="text_28">
      <!-- 4 -->
      <g transform="translate(189.834999 316.595937)scale(0.1 -0.1)">
       <use xlink:href="#DejaVuSans-34"/>
      </g>
     </g>
    </g>
    <g id="xtick_18">
     <g id="line2d_47">
      <path d="M 251.564691 301.9975 
L 251.564691 251.52 
" clip-path="url(#pb4893d3162)" style="fill: none; stroke: #b0b0b0; stroke-width: 0.8; stroke-linecap: square"/>
     </g>
     <g id="line2d_48">
      <g>
       <use xlink:href="#madb7bb1df7" x="251.564691" y="301.9975" style="stroke: #000000; stroke-width: 0.8"/>
      </g>
     </g>
     <g id="text_29">
      <!-- 6 -->
      <g transform="translate(248.383441 316.595937)scale(0.1 -0.1)">
       <use xlink:href="#DejaVuSans-36"/>
      </g>
     </g>
    </g>
    <g id="xtick_19">
     <g id="line2d_49">
      <path d="M 310.113134 301.9975 
L 310.113134 251.52 
" clip-path="url(#pb4893d3162)" style="fill: none; stroke: #b0b0b0; stroke-width: 0.8; stroke-linecap: square"/>
     </g>
     <g id="line2d_50">
      <g>
       <use xlink:href="#madb7bb1df7" x="310.113134" y="301.9975" style="stroke: #000000; stroke-width: 0.8"/>
      </g>
     </g>
     <g id="text_30">
      <!-- 8 -->
      <g transform="translate(306.931884 316.595937)scale(0.1 -0.1)">
       <use xlink:href="#DejaVuSans-38"/>
      </g>
     </g>
    </g>
    <g id="xtick_20">
     <g id="line2d_51">
      <path d="M 368.661576 301.9975 
L 368.661576 251.52 
" clip-path="url(#pb4893d3162)" style="fill: none; stroke: #b0b0b0; stroke-width: 0.8; stroke-linecap: square"/>
     </g>
     <g id="line2d_52">
      <g>
       <use xlink:href="#madb7bb1df7" x="368.661576" y="301.9975" style="stroke: #000000; stroke-width: 0.8"/>
      </g>
     </g>
     <g id="text_31">
      <!-- 10 -->
      <g transform="translate(362.299076 316.595937)scale(0.1 -0.1)">
       <use xlink:href="#DejaVuSans-31"/>
       <use xlink:href="#DejaVuSans-30" x="63.623047"/>
      </g>
     </g>
    </g>
    <g id="xtick_21">
     <g id="line2d_53">
      <path d="M 427.210019 301.9975 
L 427.210019 251.52 
" clip-path="url(#pb4893d3162)" style="fill: none; stroke: #b0b0b0; stroke-width: 0.8; stroke-linecap: square"/>
     </g>
     <g id="line2d_54">
      <g>
       <use xlink:href="#madb7bb1df7" x="427.210019" y="301.9975" style="stroke: #000000; stroke-width: 0.8"/>
      </g>
     </g>
     <g id="text_32">
      <!-- 12 -->
      <g transform="translate(420.847519 316.595937)scale(0.1 -0.1)">
       <use xlink:href="#DejaVuSans-31"/>
       <use xlink:href="#DejaVuSans-32" x="63.623047"/>
      </g>
     </g>
    </g>
    <g id="text_33">
     <!-- $t$ [s] -->
     <g transform="translate(243.953 330.274063)scale(0.1 -0.1)">
      <use xlink:href="#DejaVuSans-Oblique-74" transform="translate(0 0.015625)"/>
      <use xlink:href="#DejaVuSans-20" transform="translate(39.208984 0.015625)"/>
      <use xlink:href="#DejaVuSans-5b" transform="translate(70.996094 0.015625)"/>
      <use xlink:href="#DejaVuSans-73" transform="translate(110.009766 0.015625)"/>
      <use xlink:href="#DejaVuSans-5d" transform="translate(162.109375 0.015625)"/>
     </g>
    </g>
   </g>
   <g id="matplotlib.axis_6">
    <g id="ytick_6">
     <g id="line2d_55">
      <path d="M 58.106 300.290282 
L 450 300.290282 
" clip-path="url(#pb4893d3162)" style="fill: none; stroke: #b0b0b0; stroke-width: 0.8; stroke-linecap: square"/>
     </g>
     <g id="line2d_56">
      <g>
       <use xlink:href="#mbedefb56bc" x="58.106" y="300.290282" style="stroke: #000000; stroke-width: 0.8"/>
      </g>
     </g>
     <g id="text_34">
      <!-- −0.2 -->
      <g transform="translate(26.823188 304.089501)scale(0.1 -0.1)">
       <use xlink:href="#DejaVuSans-2212"/>
       <use xlink:href="#DejaVuSans-30" x="83.789062"/>
       <use xlink:href="#DejaVuSans-2e" x="147.412109"/>
       <use xlink:href="#DejaVuSans-32" x="179.199219"/>
      </g>
     </g>
    </g>
    <g id="ytick_7">
     <g id="line2d_57">
      <path d="M 58.106 271.274447 
L 450 271.274447 
" clip-path="url(#pb4893d3162)" style="fill: none; stroke: #b0b0b0; stroke-width: 0.8; stroke-linecap: square"/>
     </g>
     <g id="line2d_58">
      <g>
       <use xlink:href="#mbedefb56bc" x="58.106" y="271.274447" style="stroke: #000000; stroke-width: 0.8"/>
      </g>
     </g>
     <g id="text_35">
      <!-- 0.0 -->
      <g transform="translate(35.202875 275.073666)scale(0.1 -0.1)">
       <use xlink:href="#DejaVuSans-30"/>
       <use xlink:href="#DejaVuSans-2e" x="63.623047"/>
       <use xlink:href="#DejaVuSans-30" x="95.410156"/>
      </g>
     </g>
    </g>
    <g id="text_36">
     <!-- $e_\theta$ [rad] -->
     <g transform="translate(20.7435 295.90875)rotate(-90)scale(0.1 -0.1)">
      <defs>
       <path id="DejaVuSans-Oblique-3b8" d="M 2913 2219 
L 925 2219 
Q 791 1284 928 888 
Q 1100 400 1566 400 
Q 2034 400 2391 891 
Q 2703 1322 2913 2219 
z
M 3009 2750 
Q 3094 3638 2984 3950 
Q 2813 4444 2353 4444 
Q 1875 4444 1525 3956 
Q 1250 3563 1034 2750 
L 3009 2750 
z
M 2444 4913 
Q 3194 4913 3494 4250 
Q 3794 3591 3566 2422 
Q 3341 1256 2781 594 
Q 2225 -72 1475 -72 
Q 722 -72 425 594 
Q 128 1256 353 2422 
Q 581 3591 1134 4250 
Q 1691 4913 2444 4913 
z
" transform="scale(0.015625)"/>
       <path id="DejaVuSans-61" d="M 2194 1759 
Q 1497 1759 1228 1600 
Q 959 1441 959 1056 
Q 959 750 1161 570 
Q 1363 391 1709 391 
Q 2188 391 2477 730 
Q 2766 1069 2766 1631 
L 2766 1759 
L 2194 1759 
z
M 3341 1997 
L 3341 0 
L 2766 0 
L 2766 531 
Q 2569 213 2275 61 
Q 1981 -91 1556 -91 
Q 1019 -91 701 211 
Q 384 513 384 1019 
Q 384 1609 779 1909 
Q 1175 2209 1959 2209 
L 2766 2209 
L 2766 2266 
Q 2766 2663 2505 2880 
Q 2244 3097 1772 3097 
Q 1472 3097 1187 3025 
Q 903 2953 641 2809 
L 641 3341 
Q 956 3463 1253 3523 
Q 1550 3584 1831 3584 
Q 2591 3584 2966 3190 
Q 3341 2797 3341 1997 
z
" transform="scale(0.015625)"/>
       <path id="DejaVuSans-64" d="M 2906 2969 
L 2906 4863 
L 3481 4863 
L 3481 0 
L 2906 0 
L 2906 525 
Q 2725 213 2448 61 
Q 2172 -91 1784 -91 
Q 1150 -91 751 415 
Q 353 922 353 1747 
Q 353 2572 751 3078 
Q 1150 3584 1784 3584 
Q 2172 3584 2448 3432 
Q 2725 3281 2906 2969 
z
M 947 1747 
Q 947 1113 1208 752 
Q 1469 391 1925 391 
Q 2381 391 2643 752 
Q 2906 1113 2906 1747 
Q 2906 2381 2643 2742 
Q 2381 3103 1925 3103 
Q 1469 3103 1208 2742 
Q 947 2381 947 1747 
z
" transform="scale(0.015625)"/>
      </defs>
      <use xlink:href="#DejaVuSans-Oblique-65" transform="translate(0 0.015625)"/>
      <use xlink:href="#DejaVuSans-Oblique-3b8" transform="translate(61.523438 -16.390625)scale(0.7)"/>
      <use xlink:href="#DejaVuSans-20" transform="translate(107.084961 0.015625)"/>
      <use xlink:href="#DejaVuSans-5b" transform="translate(138.87207 0.015625)"/>
      <use xlink:href="#DejaVuSans-72" transform="translate(177.885742 0.015625)"/>
      <use xlink:href="#DejaVuSans-61" transform="translate(218.999023 0.015625)"/>
      <use xlink:href="#DejaVuSans-64" transform="translate(280.27832 0.015625)"/>
      <use xlink:href="#DejaVuSans-5d" transform="translate(343.754883 0.015625)"/>
     </g>
    </g>
   </g>
   <g id="line2d_59">
    <path d="M 75.919364 271.203263 
L 76.212347 271.012499 
L 76.50533 270.584554 
L 76.798313 268.202515 
L 77.091295 268.202515 
L 77.384278 265.298505 
L 79.142176 256.277918 
L 79.728142 255.517555 
L 80.021125 255.469919 
L 81.193057 258.544286 
L 81.779023 260.615802 
L 82.072006 262.321636 
L 82.364989 264.716517 
L 83.53692 269.936946 
L 83.829903 273.736455 
L 84.122886 273.736455 
L 84.415869 277.116534 
L 85.587801 284.455028 
L 85.880784 286.832434 
L 86.46675 288.3038 
L 87.052716 288.954706 
L 87.931665 288.609812 
L 88.517631 288.272424 
L 89.39658 287.188469 
L 90.275528 281.656487 
L 90.568511 278.944293 
L 90.861494 278.00504 
L 91.154477 276.109826 
L 91.740443 269.669105 
L 92.033426 267.150854 
L 92.326409 266.346751 
L 92.912375 263.364418 
L 93.205358 260.743621 
L 93.791324 257.853831 
L 94.084307 257.503264 
L 94.670273 256.495419 
L 94.963256 256.051538 
L 95.549222 256.008363 
L 96.721153 256.457832 
L 97.014136 256.612583 
L 98.186068 257.770469 
L 98.479051 258.512144 
L 98.772034 258.930729 
L 99.650983 261.261585 
L 99.943966 261.261585 
L 100.236949 262.561953 
L 100.529932 263.289539 
L 101.115898 265.900556 
L 101.408881 266.406706 
L 101.701864 267.483999 
L 101.994847 269.891398 
L 102.28783 271.204151 
L 102.873795 275.434671 
L 103.166778 276.160944 
L 103.459761 277.612595 
L 103.752744 280.457617 
L 104.045727 280.457617 
L 104.33871 284.094282 
L 104.631693 284.577004 
L 105.217659 286.024414 
L 105.510642 286.54299 
L 105.803625 286.54299 
L 106.096608 285.54444 
L 106.389591 285.202891 
L 106.975557 283.497758 
L 107.26854 282.495051 
L 107.561523 280.876715 
L 107.854506 278.623823 
L 109.31942 272.582553 
L 109.612403 270.80918 
L 110.198369 269.550474 
L 110.784335 268.979158 
L 111.370301 269.911127 
L 112.24925 272.0596 
L 112.835216 274.539175 
L 113.421182 275.402651 
L 114.007148 275.761228 
L 114.300131 275.509914 
L 114.593114 275.509914 
L 115.17908 274.590095 
L 115.765045 273.79806 
L 116.058028 273.152798 
L 116.351011 272.233936 
L 117.522943 270.084392 
L 117.815926 269.083215 
L 118.108909 267.477091 
L 119.280841 263.469472 
L 119.573824 262.389652 
L 120.452773 257.821762 
L 121.331722 254.930823 
L 121.624705 254.930823 
L 121.917687 254.28441 
L 122.21067 254.345507 
L 122.503653 254.609192 
L 123.089619 255.666552 
L 123.382602 256.823964 
L 123.675585 258.604795 
L 125.433483 263.76039 
L 126.019449 264.011233 
L 126.312432 263.876845 
L 126.605415 263.306222 
L 126.898398 263.306222 
L 127.191381 262.390538 
L 127.484364 261.854071 
L 128.363313 259.513943 
L 128.656295 259.513943 
L 128.949278 258.907811 
L 129.242261 258.766109 
L 129.535244 258.776335 
L 130.414193 259.509298 
L 130.707176 260.293611 
L 131.293142 261.316063 
L 131.879108 262.421448 
L 132.172091 262.421448 
L 132.465074 263.051832 
L 133.344023 263.768603 
L 133.929989 263.836923 
L 135.10192 263.429456 
L 135.687886 263.476323 
L 136.566835 264.298768 
L 136.859818 264.698251 
L 137.152801 264.83268 
L 137.445784 265.100891 
L 137.738767 265.643259 
L 139.496665 267.147958 
L 140.082631 267.482425 
L 140.375614 267.797009 
L 140.668597 268.34779 
L 140.96158 268.34779 
L 141.254563 269.037898 
L 141.840528 269.838621 
L 142.426494 271.23445 
L 142.719477 271.23445 
L 143.01246 271.932124 
L 144.477375 273.441932 
L 145.356324 273.691903 
L 146.235273 273.698572 
L 147.700188 273.003589 
L 147.99317 272.611057 
L 148.579136 271.283722 
L 149.165102 269.984751 
L 149.458085 268.46793 
L 149.751068 268.46793 
L 150.044051 266.237608 
L 150.337034 265.909918 
L 151.215983 264.301163 
L 151.508966 264.275036 
L 151.801949 264.449213 
L 152.094932 264.766157 
L 152.680898 265.11424 
L 152.973881 265.457308 
L 153.266864 265.519705 
L 153.559847 265.435349 
L 153.85283 265.124019 
L 154.145813 264.595778 
L 154.438795 264.595778 
L 154.731778 263.603159 
L 155.317744 262.392901 
L 155.90371 260.230946 
L 156.196693 260.230946 
L 156.489676 259.095497 
L 157.075642 257.812098 
L 157.368625 257.170102 
L 157.661608 256.985156 
L 157.954591 256.647708 
L 158.247574 256.063528 
L 159.126523 255.283237 
L 159.712489 255.208764 
L 160.005472 255.463857 
L 160.298455 255.99856 
L 160.591438 256.831341 
L 160.88442 257.168482 
L 161.470386 258.758634 
L 161.763369 260.586678 
L 162.056352 260.586678 
L 162.349335 263.41481 
L 162.642318 263.872905 
L 163.228284 265.607922 
L 163.521267 267.328866 
L 163.81425 267.328866 
L 164.107233 268.167899 
L 164.693199 268.625315 
L 164.986182 268.706445 
L 165.279165 268.643032 
L 165.572148 268.277933 
L 165.865131 267.457401 
L 166.74408 266.025827 
L 167.330045 264.623474 
L 167.623028 264.192017 
L 168.208994 263.839968 
L 169.087943 263.390614 
L 169.673909 263.3244 
L 171.431807 263.317473 
L 172.017773 263.100265 
L 172.896722 261.954854 
L 173.189705 261.818027 
L 174.361636 260.74906 
L 174.947602 260.825369 
L 175.533568 261.28586 
L 175.826551 262.494201 
L 176.119534 262.494201 
L 176.412517 263.886018 
L 177.877432 267.491081 
L 178.463398 267.169445 
L 179.049364 266.235844 
L 179.63533 263.829025 
L 179.928313 262.841579 
L 180.221295 262.55771 
L 180.807261 261.822924 
L 181.100244 261.975296 
L 181.393227 262.436908 
L 181.979193 265.15225 
L 182.272176 267.037043 
L 182.565159 267.037043 
L 182.858142 269.750639 
L 183.737091 273.529495 
L 184.030074 274.220563 
L 184.323057 274.105016 
L 184.61604 273.712264 
L 185.202006 272.268795 
L 185.494989 271.290539 
L 185.787972 269.659956 
L 186.080955 267.362933 
L 187.545869 262.118341 
L 187.838852 261.508627 
L 188.131835 261.633779 
L 188.424818 262.060192 
L 189.010784 263.731919 
L 189.303767 265.577174 
L 189.59675 268.549717 
L 190.768682 274.869983 
L 191.061665 277.722401 
L 191.354648 277.722401 
L 191.647631 278.499774 
L 191.940614 278.349365 
L 192.233597 277.870668 
L 192.52658 277.09386 
L 192.819563 275.455018 
L 193.112545 272.683324 
L 193.991494 267.948029 
L 194.57746 262.789033 
L 194.870443 262.789033 
L 195.163426 260.442326 
L 195.749392 258.481112 
L 196.042375 258.138281 
L 196.335358 258.1942 
L 196.628341 258.562508 
L 197.50729 263.591425 
L 197.800273 266.008484 
L 198.093256 266.842973 
L 198.386239 268.496029 
L 198.679222 271.588664 
L 199.55817 275.170572 
L 199.851153 275.257896 
L 200.144136 275.174227 
L 200.730102 273.042386 
L 201.316068 269.011423 
L 201.609051 268.240625 
L 201.902034 266.682189 
L 202.195017 263.587413 
L 203.073966 258.7662 
L 203.366949 256.652974 
L 203.659932 255.96818 
L 203.952915 255.585012 
L 204.245898 255.517816 
L 204.538881 255.780586 
L 204.831864 256.763627 
L 205.124847 259.004146 
L 205.41783 259.004146 
L 205.710813 261.953313 
L 206.882744 269.039729 
L 207.175727 271.32816 
L 207.761693 272.566924 
L 208.054676 272.731126 
L 208.347659 272.590968 
L 208.640642 271.835256 
L 209.226608 268.844933 
L 209.812574 266.256151 
L 210.39854 261.706661 
L 210.691523 261.706661 
L 210.984506 259.465291 
L 211.570472 257.744631 
L 211.863455 257.111686 
L 212.156438 257.409813 
L 212.44942 257.409813 
L 213.621352 263.736819 
L 213.914335 266.990965 
L 214.207318 266.990965 
L 214.500301 270.169981 
L 215.37925 274.176648 
L 215.672233 274.849509 
L 215.965216 274.849509 
L 216.551182 273.793821 
L 216.844165 273.058729 
L 217.137148 271.74941 
L 217.430131 269.752903 
L 217.723114 269.752903 
L 218.016097 267.645068 
L 218.895045 264.07668 
L 219.188028 262.517821 
L 219.481011 262.517821 
L 219.773994 261.63044 
L 220.066977 261.527741 
L 220.35996 261.670392 
L 220.652943 262.364732 
L 220.945926 264.11759 
L 221.238909 264.11759 
L 221.531892 266.558907 
L 222.703824 272.430596 
L 222.996807 274.135253 
L 223.582773 275.000398 
L 223.875756 275.121287 
L 224.168739 275.046874 
L 224.461722 274.575982 
L 225.047688 272.454937 
L 225.926636 269.134326 
L 227.098568 262.223896 
L 227.684534 260.381928 
L 227.977517 259.677707 
L 228.2705 259.92153 
L 228.563483 260.525531 
L 229.149449 262.503458 
L 229.735415 265.197681 
L 230.614364 271.33509 
L 231.20033 273.166819 
L 231.786295 274.200421 
L 232.079278 273.791912 
L 232.665244 272.311702 
L 233.25121 269.971911 
L 233.544193 267.860408 
L 233.837176 264.763358 
L 234.716125 260.178024 
L 235.009108 257.531494 
L 235.302091 257.531494 
L 235.595074 255.73238 
L 235.888057 255.74236 
L 236.18104 256.024319 
L 236.474023 256.636435 
L 237.352972 263.163899 
L 237.645955 263.946602 
L 238.23192 266.910087 
L 238.524903 269.22432 
L 238.817886 269.22432 
L 239.110869 270.6715 
L 239.403852 270.676388 
L 239.696835 270.494952 
L 239.989818 270.071107 
L 240.282801 268.592159 
L 240.575784 268.592159 
L 240.868767 265.262673 
L 241.16175 264.646359 
L 242.626665 258.673795 
L 242.919648 258.600702 
L 243.212631 258.815424 
L 243.505614 259.293585 
L 244.677545 265.322705 
L 245.263511 268.168701 
L 245.556494 270.74732 
L 245.849477 270.74732 
L 246.14246 273.096449 
L 246.728426 273.463895 
L 247.021409 273.390188 
L 247.314392 273.061956 
L 247.607375 272.134821 
L 247.900358 270.238445 
L 249.07229 265.424954 
L 249.658256 261.778182 
L 250.244222 260.745672 
L 250.537205 260.629349 
L 250.830188 260.792102 
L 251.12317 261.568106 
L 251.709136 264.842088 
L 252.588085 269.523942 
L 253.467034 276.562703 
L 254.053 278.687326 
L 254.345983 279.562432 
L 254.638966 279.553534 
L 254.931949 279.032883 
L 255.517915 277.092661 
L 255.810898 275.766666 
L 256.103881 271.768025 
L 256.396864 271.768025 
L 256.689847 268.303254 
L 257.861778 260.960535 
L 258.154761 258.713799 
L 258.447744 257.987905 
L 258.740727 257.559539 
L 259.03371 257.429441 
L 259.326693 257.612654 
L 259.619676 259.416058 
L 259.912659 259.416058 
L 260.205642 262.043686 
L 261.084591 267.190602 
L 261.670557 273.377378 
L 261.96354 275.594198 
L 262.256523 276.233625 
L 262.842489 278.103475 
L 263.135472 278.583563 
L 263.428455 278.275606 
L 263.721438 277.175054 
L 264.307403 273.197003 
L 264.600386 273.197003 
L 264.893369 269.806473 
L 265.186352 267.994738 
L 266.065301 260.052403 
L 266.358284 260.052403 
L 266.651267 257.006276 
L 267.237233 254.107485 
L 267.823199 253.814432 
L 268.116182 254.073791 
L 268.702148 257.551311 
L 268.995131 259.943123 
L 269.288114 260.809041 
L 269.87408 264.503974 
L 270.460045 270.802089 
L 270.753028 273.066096 
L 271.046011 273.725503 
L 271.631977 275.827606 
L 271.92496 276.767824 
L 272.217943 276.767824 
L 272.510926 275.727379 
L 272.803909 275.301749 
L 273.389875 273.054346 
L 273.682858 270.264926 
L 273.975841 268.744631 
L 274.85479 261.665169 
L 275.147773 261.665169 
L 275.440756 258.85075 
L 276.026722 256.812393 
L 276.319705 255.99844 
L 276.90567 256.042634 
L 277.784619 260.195622 
L 278.370585 264.829427 
L 278.663568 264.829427 
L 279.249534 270.392993 
L 279.542517 272.351258 
L 279.8355 272.908728 
L 280.714449 275.52844 
L 281.007432 275.630697 
L 281.300415 275.34278 
L 281.593398 274.563163 
L 281.886381 273.358933 
L 282.179364 273.358933 
L 282.472347 271.229538 
L 282.76533 270.023823 
L 283.644278 264.196489 
L 283.937261 264.196489 
L 284.230244 261.973267 
L 284.81621 260.239174 
L 285.109193 259.941753 
L 285.402176 259.970557 
L 285.695159 260.219777 
L 286.281125 262.819689 
L 286.574108 264.563326 
L 286.867091 265.196602 
L 287.453057 267.850251 
L 287.74604 270.428895 
L 288.039023 270.428895 
L 288.332006 273.732929 
L 288.624989 274.216164 
L 289.503938 276.922138 
L 289.79692 277.015547 
L 290.382886 276.204187 
L 290.675869 275.844747 
L 290.968852 274.459325 
L 291.261835 272.01248 
L 292.140784 267.713471 
L 292.433767 264.079782 
L 292.72675 264.079782 
L 293.019733 261.587367 
L 293.605699 259.774395 
L 293.898682 259.230151 
L 294.191665 259.014097 
L 294.484648 259.014097 
L 294.777631 260.838987 
L 295.070614 261.35632 
L 295.65658 263.886249 
L 295.949563 266.929917 
L 296.242545 268.536314 
L 296.828511 273.240256 
L 297.121494 273.96494 
L 297.414477 275.293487 
L 297.70746 277.308978 
L 298.293426 278.309609 
L 298.879392 277.749356 
L 299.172375 277.042995 
L 300.344307 268.905937 
L 300.63729 268.087967 
L 300.930273 266.46546 
L 301.223256 263.334793 
L 302.102205 258.689577 
L 302.68817 257.878297 
L 302.981153 257.899888 
L 303.274136 258.38691 
L 303.567119 259.182709 
L 303.860102 260.85871 
L 304.153085 263.76583 
L 304.446068 263.76583 
L 304.739051 267.096923 
L 305.618 272.836528 
L 305.910983 275.320591 
L 306.496949 276.907545 
L 306.789932 277.324 
L 307.082915 277.472447 
L 307.375898 277.336117 
L 307.668881 276.586601 
L 308.254847 273.464571 
L 308.840813 270.594954 
L 309.426778 265.16755 
L 309.719761 265.16755 
L 310.012744 262.275515 
L 310.891693 258.567297 
L 311.184676 257.904115 
L 311.477659 257.904115 
L 312.063625 259.23529 
L 312.356608 260.238659 
L 312.649591 262.154913 
L 312.942574 265.232824 
L 313.235557 265.232824 
L 313.52854 268.601725 
L 313.821523 270.306435 
L 314.407489 274.930124 
L 314.700472 276.598588 
L 314.993455 276.598588 
L 315.286438 277.921233 
L 315.57942 278.14275 
L 315.872403 278.045846 
L 316.165386 277.33644 
L 316.458369 275.466695 
L 316.751352 275.466695 
L 317.044335 272.886326 
L 317.337318 271.421806 
L 317.923284 266.828632 
L 318.216267 266.077038 
L 318.50925 264.607542 
L 318.802233 261.926888 
L 319.681182 258.889958 
L 319.974165 258.49463 
L 320.267148 258.49463 
L 320.853114 260.064172 
L 322.025045 266.23587 
L 322.318028 269.6436 
L 322.611011 271.369312 
L 323.196977 276.313544 
L 323.48996 277.067018 
L 323.782943 278.438378 
L 324.075926 280.385033 
L 324.368909 280.875444 
L 324.661892 281.007489 
L 324.954875 280.537369 
L 325.247858 278.831532 
L 325.540841 278.831532 
L 325.833824 276.213606 
L 326.41979 273.074357 
L 327.005756 267.206704 
L 327.298739 267.206704 
L 327.591722 264.016815 
L 328.47067 259.256793 
L 329.056636 258.582224 
L 329.349619 258.793219 
L 329.642602 259.363941 
L 330.814534 264.793471 
L 331.107517 268.001079 
L 331.693483 271.264134 
L 332.279449 276.485704 
L 332.572432 276.485704 
L 332.865415 278.622371 
L 333.158398 279.307294 
L 333.451381 279.702282 
L 333.744364 279.691155 
L 334.037347 278.56169 
L 334.33033 278.56169 
L 334.916295 274.94124 
L 335.502261 271.778195 
L 336.38121 264.375323 
L 337.260159 260.296214 
L 337.846125 258.252196 
L 338.139108 257.980871 
L 338.432091 258.302963 
L 339.018057 259.753215 
L 339.31104 261.393256 
L 339.604023 264.123191 
L 341.36192 273.492894 
L 341.654903 275.612508 
L 342.240869 277.101405 
L 342.826835 277.900997 
L 343.119818 277.94226 
L 343.998767 275.55658 
L 344.584733 273.352504 
L 345.756665 266.504014 
L 346.049648 265.455011 
L 346.342631 263.430415 
L 346.635614 263.430415 
L 346.928597 262.547648 
L 347.22158 262.357397 
L 347.514563 262.31376 
L 347.807545 262.414414 
L 348.100528 263.010155 
L 348.393511 263.010155 
L 348.686494 264.642175 
L 348.979477 264.965874 
L 349.565443 266.328859 
L 349.858426 267.749581 
L 350.151409 268.444668 
L 350.737375 270.424265 
L 351.030358 270.722471 
L 351.323341 271.281627 
L 351.616324 272.236667 
L 351.909307 272.236667 
L 352.20229 273.131176 
L 353.081239 273.391591 
L 353.374222 273.271999 
L 353.667205 272.992482 
L 353.960188 272.558813 
L 354.25317 272.383895 
L 354.839136 271.549852 
L 355.132119 270.566397 
L 355.425102 270.05564 
L 356.304051 267.658731 
L 356.597034 267.658731 
L 357.183 265.996187 
L 357.475983 265.576378 
L 358.354932 265.423017 
L 358.647915 265.675787 
L 358.940898 265.675787 
L 359.233881 266.139786 
L 360.11283 266.218789 
L 360.698795 265.598175 
L 361.284761 264.150624 
L 361.577744 263.212498 
L 361.870727 263.212498 
L 362.16371 261.941154 
L 362.749676 260.80225 
L 363.042659 260.613824 
L 363.335642 260.877821 
L 363.628625 260.877821 
L 364.800557 265.047393 
L 365.09354 266.418545 
L 365.386523 266.418545 
L 365.679506 268.206431 
L 366.558455 270.563282 
L 366.851438 271.11423 
L 367.14442 271.11423 
L 367.437403 270.921515 
L 368.023369 269.982948 
L 368.316352 268.902537 
L 368.609335 267.18918 
L 369.781267 263.825826 
L 370.07425 263.196226 
L 370.367233 262.886755 
L 370.953199 262.908925 
L 371.246182 263.210303 
L 371.539165 263.725631 
L 371.832148 263.947572 
L 372.418114 265.075944 
L 372.711097 266.606674 
L 373.00408 266.606674 
L 373.297063 269.525832 
L 373.590045 270.06695 
L 374.176011 272.304973 
L 374.468994 274.418242 
L 375.347943 276.928 
L 375.933909 277.042477 
L 376.519875 276.149756 
L 377.105841 274.250852 
L 377.398824 273.153876 
L 377.691807 273.153876 
L 377.98479 271.756034 
L 378.863739 270.111957 
L 379.156722 269.816717 
L 379.742688 269.944172 
L 380.328653 270.482524 
L 380.621636 270.909057 
L 380.914619 271.744443 
L 381.207602 273.122254 
L 382.672517 276.524851 
L 382.9655 276.749849 
L 383.258483 276.521546 
L 383.844449 275.415655 
L 384.137432 274.581514 
L 384.430415 272.018085 
L 384.723398 272.018085 
L 385.016381 269.784564 
L 386.188313 265.757084 
L 386.481295 265.757084 
L 386.774278 265.915949 
L 387.360244 266.843801 
L 387.653227 267.506455 
L 387.94621 268.674487 
L 388.239193 270.384253 
L 389.118142 272.778182 
L 389.704108 273.944305 
L 389.997091 274.373264 
L 390.290074 274.174286 
L 390.87604 273.154782 
L 391.169023 272.407677 
L 391.462006 270.230441 
L 391.754989 270.230441 
L 392.047972 268.485835 
L 392.92692 266.465342 
L 393.219903 265.932422 
L 393.512886 265.8152 
L 394.098852 266.180823 
L 394.684818 266.793247 
L 395.563767 268.117004 
L 396.149733 268.41871 
L 397.028682 268.686417 
L 398.493597 270.162188 
L 399.079563 271.074086 
L 399.665528 271.190283 
L 400.251494 271.109143 
L 400.544477 270.971903 
L 401.130443 270.463263 
L 401.716409 269.966721 
L 402.009392 269.367937 
L 402.302375 269.367937 
L 402.595358 268.562354 
L 403.181324 268.258632 
L 404.060273 267.921325 
L 404.353256 267.975247 
L 405.232205 268.676021 
L 405.525188 270.11049 
L 405.81817 270.11049 
L 406.111153 271.540674 
L 406.990102 273.463149 
L 407.576068 274.101543 
L 408.162034 273.209111 
L 408.748 271.853002 
L 409.040983 271.024319 
L 409.919932 267.161876 
L 410.798881 265.106781 
L 411.091864 264.479013 
L 411.384847 264.43552 
L 411.67783 264.775584 
L 412.263795 266.063005 
L 412.556778 267.971721 
L 412.849761 267.971721 
L 413.142744 271.395372 
L 413.435727 271.950135 
L 414.314676 275.060066 
L 414.607659 275.060066 
L 414.900642 275.172787 
L 415.193625 275.024242 
L 415.779591 274.130982 
L 416.072574 272.938193 
L 416.65854 271.514013 
L 416.951523 270.818854 
L 417.537489 270.29312 
L 417.830472 269.917258 
L 418.123455 269.917258 
L 418.416438 270.425742 
L 418.70942 270.701271 
L 419.295386 272.442064 
L 420.467318 282.92413 
L 420.760301 283.989568 
L 421.053284 286.092404 
L 421.346267 290.004803 
L 422.518199 297.384021 
L 422.811182 297.384021 
L 423.104165 298.794061 
L 423.690131 299.691794 
L 424.276097 299.617122 
L 424.56908 299.288127 
L 425.741011 293.610306 
L 426.033994 290.215088 
L 426.326977 290.215088 
L 426.61996 286.481711 
L 427.791892 278.3696 
L 428.084875 275.561376 
L 428.670841 273.54486 
L 429.256807 272.52306 
L 429.54979 272.398533 
L 430.721722 274.086088 
L 431.60067 275.186932 
L 431.893653 275.010117 
L 432.186636 274.609115 
L 432.186636 274.609115 
" clip-path="url(#pb4893d3162)" style="fill: none; stroke: #008000; stroke-width: 1.5; stroke-linecap: square"/>
   </g>
   <g id="patch_13">
    <path d="M 58.106 301.9975 
L 58.106 251.52 
" style="fill: none; stroke: #000000; stroke-width: 0.8; stroke-linejoin: miter; stroke-linecap: square"/>
   </g>
   <g id="patch_14">
    <path d="M 450 301.9975 
L 450 251.52 
" style="fill: none; stroke: #000000; stroke-width: 0.8; stroke-linejoin: miter; stroke-linecap: square"/>
   </g>
   <g id="patch_15">
    <path d="M 58.106 301.9975 
L 450 301.9975 
" style="fill: none; stroke: #000000; stroke-width: 0.8; stroke-linejoin: miter; stroke-linecap: square"/>
   </g>
   <g id="patch_16">
    <path d="M 58.106 251.52 
L 450 251.52 
" style="fill: none; stroke: #000000; stroke-width: 0.8; stroke-linejoin: miter; stroke-linecap: square"/>
   </g>
   <g id="text_37">
    <!-- Error in swing angle -->
    <g transform="translate(194.282688 245.52)scale(0.12 -0.12)">
     <defs>
      <path id="DejaVuSans-77" d="M 269 3500 
L 844 3500 
L 1563 769 
L 2278 3500 
L 2956 3500 
L 3675 769 
L 4391 3500 
L 4966 3500 
L 4050 0 
L 3372 0 
L 2619 2869 
L 1863 0 
L 1184 0 
L 269 3500 
z
" transform="scale(0.015625)"/>
      <path id="DejaVuSans-67" d="M 2906 1791 
Q 2906 2416 2648 2759 
Q 2391 3103 1925 3103 
Q 1463 3103 1205 2759 
Q 947 2416 947 1791 
Q 947 1169 1205 825 
Q 1463 481 1925 481 
Q 2391 481 2648 825 
Q 2906 1169 2906 1791 
z
M 3481 434 
Q 3481 -459 3084 -895 
Q 2688 -1331 1869 -1331 
Q 1566 -1331 1297 -1286 
Q 1028 -1241 775 -1147 
L 775 -588 
Q 1028 -725 1275 -790 
Q 1522 -856 1778 -856 
Q 2344 -856 2625 -561 
Q 2906 -266 2906 331 
L 2906 616 
Q 2728 306 2450 153 
Q 2172 0 1784 0 
Q 1141 0 747 490 
Q 353 981 353 1791 
Q 353 2603 747 3093 
Q 1141 3584 1784 3584 
Q 2172 3584 2450 3431 
Q 2728 3278 2906 2969 
L 2906 3500 
L 3481 3500 
L 3481 434 
z
" transform="scale(0.015625)"/>
      <path id="DejaVuSans-6c" d="M 603 4863 
L 1178 4863 
L 1178 0 
L 603 0 
L 603 4863 
z
" transform="scale(0.015625)"/>
      <path id="DejaVuSans-65" d="M 3597 1894 
L 3597 1613 
L 953 1613 
Q 991 1019 1311 708 
Q 1631 397 2203 397 
Q 2534 397 2845 478 
Q 3156 559 3463 722 
L 3463 178 
Q 3153 47 2828 -22 
Q 2503 -91 2169 -91 
Q 1331 -91 842 396 
Q 353 884 353 1716 
Q 353 2575 817 3079 
Q 1281 3584 2069 3584 
Q 2775 3584 3186 3129 
Q 3597 2675 3597 1894 
z
M 3022 2063 
Q 3016 2534 2758 2815 
Q 2500 3097 2075 3097 
Q 1594 3097 1305 2825 
Q 1016 2553 972 2059 
L 3022 2063 
z
" transform="scale(0.015625)"/>
     </defs>
     <use xlink:href="#DejaVuSans-45"/>
     <use xlink:href="#DejaVuSans-72" x="63.183594"/>
     <use xlink:href="#DejaVuSans-72" x="102.546875"/>
     <use xlink:href="#DejaVuSans-6f" x="141.410156"/>
     <use xlink:href="#DejaVuSans-72" x="202.591797"/>
     <use xlink:href="#DejaVuSans-20" x="243.705078"/>
     <use xlink:href="#DejaVuSans-69" x="275.492188"/>
     <use xlink:href="#DejaVuSans-6e" x="303.275391"/>
     <use xlink:href="#DejaVuSans-20" x="366.654297"/>
     <use xlink:href="#DejaVuSans-73" x="398.441406"/>
     <use xlink:href="#DejaVuSans-77" x="450.541016"/>
     <use xlink:href="#DejaVuSans-69" x="532.328125"/>
     <use xlink:href="#DejaVuSans-6e" x="560.111328"/>
     <use xlink:href="#DejaVuSans-67" x="623.490234"/>
     <use xlink:href="#DejaVuSans-20" x="686.966797"/>
     <use xlink:href="#DejaVuSans-61" x="718.753906"/>
     <use xlink:href="#DejaVuSans-6e" x="780.033203"/>
     <use xlink:href="#DejaVuSans-67" x="843.412109"/>
     <use xlink:href="#DejaVuSans-6c" x="906.888672"/>
     <use xlink:href="#DejaVuSans-65" x="934.671875"/>
    </g>
   </g>
  </g>
 </g>
 <defs>
  <clipPath id="pba5e282d6e">
   <rect x="58.106" y="28.32" width="391.894" height="50.4775"/>
  </clipPath>
  <clipPath id="p7274b4f1f2">
   <rect x="58.106" y="139.92" width="391.894" height="50.4775"/>
  </clipPath>
  <clipPath id="pb4893d3162">
   <rect x="58.106" y="251.52" width="391.894" height="50.4775"/>
  </clipPath>
 </defs>
</svg>
