<?xml version="1.0" encoding="utf-8" standalone="no"?>
<!DOCTYPE svg PUBLIC "-//W3C//DTD SVG 1.1//EN"
  "http://www.w3.org/Graphics/SVG/1.1/DTD/svg11.dtd">
<svg xmlns:xlink="http://www.w3.org/1999/xlink" width="460.8pt" height="345.6pt" viewBox="0 0 460.8 345.6" xmlns="http://www.w3.org/2000/svg" version="1.1">
 <metadata>
  <rdf:RDF xmlns:dc="http://purl.org/dc/elements/1.1/" xmlns:cc="http://creativecommons.org/ns#" xmlns:rdf="http://www.w3.org/1999/02/22-rdf-syntax-ns#">
   <cc:Work>
    <dc:type rdf:resource="http://purl.org/dc/dcmitype/StillImage"/>
    <dc:date>2022-06-05T18:12:06.050008</dc:date>
    <dc:format>image/svg+xml</dc:format>
    <dc:creator>
     <cc:Agent>
      <dc:title>Matplotlib v3.5.1, https://matplotlib.org/</dc:title>
     </cc:Agent>
    </dc:creator>
   </cc:Work>
  </rdf:RDF>
 </metadata>
 <defs>
  <style type="text/css">*{stroke-linejoin: round; stroke-linecap: butt}</style>
 </defs>
 <g id="figure_1">
  <g id="patch_1">
   <path d="M 0 345.6 
L 460.8 345.6 
L 460.8 0 
L 0 0 
z
" style="fill: #ffffff"/>
  </g>
  <g id="axes_1">
   <g id="patch_2">
    <path d="M 55.946 78.7975 
L 447.020358 78.7975 
L 447.020358 28.32 
L 55.946 28.32 
z
" style="fill: #ffffff"/>
   </g>
   <g id="matplotlib.axis_1">
    <g id="xtick_1">
     <g id="line2d_1">
      <path d="M 73.722107 78.7975 
L 73.722107 28.32 
" clip-path="url(#pa298e11b62)" style="fill: none; stroke: #b0b0b0; stroke-width: 0.8; stroke-linecap: square"/>
     </g>
     <g id="line2d_2">
      <defs>
       <path id="m64cf3aacd4" d="M 0 0 
L 0 3.5 
" style="stroke: #000000; stroke-width: 0.8"/>
      </defs>
      <g>
       <use xlink:href="#m64cf3aacd4" x="73.722107" y="78.7975" style="stroke: #000000; stroke-width: 0.8"/>
      </g>
     </g>
     <g id="text_1">
      <!-- 0 -->
      <g transform="translate(70.540857 93.395937)scale(0.1 -0.1)">
       <defs>
        <path id="DejaVuSans-30" d="M 2034 4250 
Q 1547 4250 1301 3770 
Q 1056 3291 1056 2328 
Q 1056 1369 1301 889 
Q 1547 409 2034 409 
Q 2525 409 2770 889 
Q 3016 1369 3016 2328 
Q 3016 3291 2770 3770 
Q 2525 4250 2034 4250 
z
M 2034 4750 
Q 2819 4750 3233 4129 
Q 3647 3509 3647 2328 
Q 3647 1150 3233 529 
Q 2819 -91 2034 -91 
Q 1250 -91 836 529 
Q 422 1150 422 2328 
Q 422 3509 836 4129 
Q 1250 4750 2034 4750 
z
" transform="scale(0.015625)"/>
       </defs>
       <use xlink:href="#DejaVuSans-30"/>
      </g>
     </g>
    </g>
    <g id="xtick_2">
     <g id="line2d_3">
      <path d="M 127.023778 78.7975 
L 127.023778 28.32 
" clip-path="url(#pa298e11b62)" style="fill: none; stroke: #b0b0b0; stroke-width: 0.8; stroke-linecap: square"/>
     </g>
     <g id="line2d_4">
      <g>
       <use xlink:href="#m64cf3aacd4" x="127.023778" y="78.7975" style="stroke: #000000; stroke-width: 0.8"/>
      </g>
     </g>
     <g id="text_2">
      <!-- 1 -->
      <g transform="translate(123.842528 93.395937)scale(0.1 -0.1)">
       <defs>
        <path id="DejaVuSans-31" d="M 794 531 
L 1825 531 
L 1825 4091 
L 703 3866 
L 703 4441 
L 1819 4666 
L 2450 4666 
L 2450 531 
L 3481 531 
L 3481 0 
L 794 0 
L 794 531 
z
" transform="scale(0.015625)"/>
       </defs>
       <use xlink:href="#DejaVuSans-31"/>
      </g>
     </g>
    </g>
    <g id="xtick_3">
     <g id="line2d_5">
      <path d="M 180.325449 78.7975 
L 180.325449 28.32 
" clip-path="url(#pa298e11b62)" style="fill: none; stroke: #b0b0b0; stroke-width: 0.8; stroke-linecap: square"/>
     </g>
     <g id="line2d_6">
      <g>
       <use xlink:href="#m64cf3aacd4" x="180.325449" y="78.7975" style="stroke: #000000; stroke-width: 0.8"/>
      </g>
     </g>
     <g id="text_3">
      <!-- 2 -->
      <g transform="translate(177.144199 93.395937)scale(0.1 -0.1)">
       <defs>
        <path id="DejaVuSans-32" d="M 1228 531 
L 3431 531 
L 3431 0 
L 469 0 
L 469 531 
Q 828 903 1448 1529 
Q 2069 2156 2228 2338 
Q 2531 2678 2651 2914 
Q 2772 3150 2772 3378 
Q 2772 3750 2511 3984 
Q 2250 4219 1831 4219 
Q 1534 4219 1204 4116 
Q 875 4013 500 3803 
L 500 4441 
Q 881 4594 1212 4672 
Q 1544 4750 1819 4750 
Q 2544 4750 2975 4387 
Q 3406 4025 3406 3419 
Q 3406 3131 3298 2873 
Q 3191 2616 2906 2266 
Q 2828 2175 2409 1742 
Q 1991 1309 1228 531 
z
" transform="scale(0.015625)"/>
       </defs>
       <use xlink:href="#DejaVuSans-32"/>
      </g>
     </g>
    </g>
    <g id="xtick_4">
     <g id="line2d_7">
      <path d="M 233.62712 78.7975 
L 233.62712 28.32 
" clip-path="url(#pa298e11b62)" style="fill: none; stroke: #b0b0b0; stroke-width: 0.8; stroke-linecap: square"/>
     </g>
     <g id="line2d_8">
      <g>
       <use xlink:href="#m64cf3aacd4" x="233.62712" y="78.7975" style="stroke: #000000; stroke-width: 0.8"/>
      </g>
     </g>
     <g id="text_4">
      <!-- 3 -->
      <g transform="translate(230.44587 93.395937)scale(0.1 -0.1)">
       <defs>
        <path id="DejaVuSans-33" d="M 2597 2516 
Q 3050 2419 3304 2112 
Q 3559 1806 3559 1356 
Q 3559 666 3084 287 
Q 2609 -91 1734 -91 
Q 1441 -91 1130 -33 
Q 819 25 488 141 
L 488 750 
Q 750 597 1062 519 
Q 1375 441 1716 441 
Q 2309 441 2620 675 
Q 2931 909 2931 1356 
Q 2931 1769 2642 2001 
Q 2353 2234 1838 2234 
L 1294 2234 
L 1294 2753 
L 1863 2753 
Q 2328 2753 2575 2939 
Q 2822 3125 2822 3475 
Q 2822 3834 2567 4026 
Q 2313 4219 1838 4219 
Q 1578 4219 1281 4162 
Q 984 4106 628 3988 
L 628 4550 
Q 988 4650 1302 4700 
Q 1616 4750 1894 4750 
Q 2613 4750 3031 4423 
Q 3450 4097 3450 3541 
Q 3450 3153 3228 2886 
Q 3006 2619 2597 2516 
z
" transform="scale(0.015625)"/>
       </defs>
       <use xlink:href="#DejaVuSans-33"/>
      </g>
     </g>
    </g>
    <g id="xtick_5">
     <g id="line2d_9">
      <path d="M 286.92879 78.7975 
L 286.92879 28.32 
" clip-path="url(#pa298e11b62)" style="fill: none; stroke: #b0b0b0; stroke-width: 0.8; stroke-linecap: square"/>
     </g>
     <g id="line2d_10">
      <g>
       <use xlink:href="#m64cf3aacd4" x="286.92879" y="78.7975" style="stroke: #000000; stroke-width: 0.8"/>
      </g>
     </g>
     <g id="text_5">
      <!-- 4 -->
      <g transform="translate(283.74754 93.395937)scale(0.1 -0.1)">
       <defs>
        <path id="DejaVuSans-34" d="M 2419 4116 
L 825 1625 
L 2419 1625 
L 2419 4116 
z
M 2253 4666 
L 3047 4666 
L 3047 1625 
L 3713 1625 
L 3713 1100 
L 3047 1100 
L 3047 0 
L 2419 0 
L 2419 1100 
L 313 1100 
L 313 1709 
L 2253 4666 
z
" transform="scale(0.015625)"/>
       </defs>
       <use xlink:href="#DejaVuSans-34"/>
      </g>
     </g>
    </g>
    <g id="xtick_6">
     <g id="line2d_11">
      <path d="M 340.230461 78.7975 
L 340.230461 28.32 
" clip-path="url(#pa298e11b62)" style="fill: none; stroke: #b0b0b0; stroke-width: 0.8; stroke-linecap: square"/>
     </g>
     <g id="line2d_12">
      <g>
       <use xlink:href="#m64cf3aacd4" x="340.230461" y="78.7975" style="stroke: #000000; stroke-width: 0.8"/>
      </g>
     </g>
     <g id="text_6">
      <!-- 5 -->
      <g transform="translate(337.049211 93.395937)scale(0.1 -0.1)">
       <defs>
        <path id="DejaVuSans-35" d="M 691 4666 
L 3169 4666 
L 3169 4134 
L 1269 4134 
L 1269 2991 
Q 1406 3038 1543 3061 
Q 1681 3084 1819 3084 
Q 2600 3084 3056 2656 
Q 3513 2228 3513 1497 
Q 3513 744 3044 326 
Q 2575 -91 1722 -91 
Q 1428 -91 1123 -41 
Q 819 9 494 109 
L 494 744 
Q 775 591 1075 516 
Q 1375 441 1709 441 
Q 2250 441 2565 725 
Q 2881 1009 2881 1497 
Q 2881 1984 2565 2268 
Q 2250 2553 1709 2553 
Q 1456 2553 1204 2497 
Q 953 2441 691 2322 
L 691 4666 
z
" transform="scale(0.015625)"/>
       </defs>
       <use xlink:href="#DejaVuSans-35"/>
      </g>
     </g>
    </g>
    <g id="xtick_7">
     <g id="line2d_13">
      <path d="M 393.532132 78.7975 
L 393.532132 28.32 
" clip-path="url(#pa298e11b62)" style="fill: none; stroke: #b0b0b0; stroke-width: 0.8; stroke-linecap: square"/>
     </g>
     <g id="line2d_14">
      <g>
       <use xlink:href="#m64cf3aacd4" x="393.532132" y="78.7975" style="stroke: #000000; stroke-width: 0.8"/>
      </g>
     </g>
     <g id="text_7">
      <!-- 6 -->
      <g transform="translate(390.350882 93.395937)scale(0.1 -0.1)">
       <defs>
        <path id="DejaVuSans-36" d="M 2113 2584 
Q 1688 2584 1439 2293 
Q 1191 2003 1191 1497 
Q 1191 994 1439 701 
Q 1688 409 2113 409 
Q 2538 409 2786 701 
Q 3034 994 3034 1497 
Q 3034 2003 2786 2293 
Q 2538 2584 2113 2584 
z
M 3366 4563 
L 3366 3988 
Q 3128 4100 2886 4159 
Q 2644 4219 2406 4219 
Q 1781 4219 1451 3797 
Q 1122 3375 1075 2522 
Q 1259 2794 1537 2939 
Q 1816 3084 2150 3084 
Q 2853 3084 3261 2657 
Q 3669 2231 3669 1497 
Q 3669 778 3244 343 
Q 2819 -91 2113 -91 
Q 1303 -91 875 529 
Q 447 1150 447 2328 
Q 447 3434 972 4092 
Q 1497 4750 2381 4750 
Q 2619 4750 2861 4703 
Q 3103 4656 3366 4563 
z
" transform="scale(0.015625)"/>
       </defs>
       <use xlink:href="#DejaVuSans-36"/>
      </g>
     </g>
    </g>
    <g id="xtick_8">
     <g id="line2d_15">
      <path d="M 446.833803 78.7975 
L 446.833803 28.32 
" clip-path="url(#pa298e11b62)" style="fill: none; stroke: #b0b0b0; stroke-width: 0.8; stroke-linecap: square"/>
     </g>
     <g id="line2d_16">
      <g>
       <use xlink:href="#m64cf3aacd4" x="446.833803" y="78.7975" style="stroke: #000000; stroke-width: 0.8"/>
      </g>
     </g>
     <g id="text_8">
      <!-- 7 -->
      <g transform="translate(443.652553 93.395937)scale(0.1 -0.1)">
       <defs>
        <path id="DejaVuSans-37" d="M 525 4666 
L 3525 4666 
L 3525 4397 
L 1831 0 
L 1172 0 
L 2766 4134 
L 525 4134 
L 525 4666 
z
" transform="scale(0.015625)"/>
       </defs>
       <use xlink:href="#DejaVuSans-37"/>
      </g>
     </g>
    </g>
    <g id="text_9">
     <!-- $t$ [s] -->
     <g transform="translate(241.383179 107.074062)scale(0.1 -0.1)">
      <defs>
       <path id="DejaVuSans-Oblique-74" d="M 2706 3500 
L 2619 3053 
L 1472 3053 
L 1100 1153 
Q 1081 1047 1072 975 
Q 1063 903 1063 863 
Q 1063 663 1183 572 
Q 1303 481 1569 481 
L 2150 481 
L 2053 0 
L 1503 0 
Q 991 0 739 200 
Q 488 400 488 806 
Q 488 878 497 964 
Q 506 1050 525 1153 
L 897 3053 
L 409 3053 
L 500 3500 
L 978 3500 
L 1172 4494 
L 1747 4494 
L 1556 3500 
L 2706 3500 
z
" transform="scale(0.015625)"/>
       <path id="DejaVuSans-20" transform="scale(0.015625)"/>
       <path id="DejaVuSans-5b" d="M 550 4863 
L 1875 4863 
L 1875 4416 
L 1125 4416 
L 1125 -397 
L 1875 -397 
L 1875 -844 
L 550 -844 
L 550 4863 
z
" transform="scale(0.015625)"/>
       <path id="DejaVuSans-73" d="M 2834 3397 
L 2834 2853 
Q 2591 2978 2328 3040 
Q 2066 3103 1784 3103 
Q 1356 3103 1142 2972 
Q 928 2841 928 2578 
Q 928 2378 1081 2264 
Q 1234 2150 1697 2047 
L 1894 2003 
Q 2506 1872 2764 1633 
Q 3022 1394 3022 966 
Q 3022 478 2636 193 
Q 2250 -91 1575 -91 
Q 1294 -91 989 -36 
Q 684 19 347 128 
L 347 722 
Q 666 556 975 473 
Q 1284 391 1588 391 
Q 1994 391 2212 530 
Q 2431 669 2431 922 
Q 2431 1156 2273 1281 
Q 2116 1406 1581 1522 
L 1381 1569 
Q 847 1681 609 1914 
Q 372 2147 372 2553 
Q 372 3047 722 3315 
Q 1072 3584 1716 3584 
Q 2034 3584 2315 3537 
Q 2597 3491 2834 3397 
z
" transform="scale(0.015625)"/>
       <path id="DejaVuSans-5d" d="M 1947 4863 
L 1947 -844 
L 622 -844 
L 622 -397 
L 1369 -397 
L 1369 4416 
L 622 4416 
L 622 4863 
L 1947 4863 
z
" transform="scale(0.015625)"/>
      </defs>
      <use xlink:href="#DejaVuSans-Oblique-74" transform="translate(0 0.015625)"/>
      <use xlink:href="#DejaVuSans-20" transform="translate(39.208984 0.015625)"/>
      <use xlink:href="#DejaVuSans-5b" transform="translate(70.996094 0.015625)"/>
      <use xlink:href="#DejaVuSans-73" transform="translate(110.009766 0.015625)"/>
      <use xlink:href="#DejaVuSans-5d" transform="translate(162.109375 0.015625)"/>
     </g>
    </g>
   </g>
   <g id="matplotlib.axis_2">
    <g id="ytick_1">
     <g id="line2d_17">
      <path d="M 55.946 71.782689 
L 447.020358 71.782689 
" clip-path="url(#pa298e11b62)" style="fill: none; stroke: #b0b0b0; stroke-width: 0.8; stroke-linecap: square"/>
     </g>
     <g id="line2d_18">
      <defs>
       <path id="mcce130299c" d="M 0 0 
L -3.5 0 
" style="stroke: #000000; stroke-width: 0.8"/>
      </defs>
      <g>
       <use xlink:href="#mcce130299c" x="55.946" y="71.782689" style="stroke: #000000; stroke-width: 0.8"/>
      </g>
     </g>
     <g id="text_10">
      <!-- 0 -->
      <g transform="translate(42.5835 75.581908)scale(0.1 -0.1)">
       <use xlink:href="#DejaVuSans-30"/>
      </g>
     </g>
    </g>
    <g id="ytick_2">
     <g id="line2d_19">
      <path d="M 55.946 30.614475 
L 447.020358 30.614475 
" clip-path="url(#pa298e11b62)" style="fill: none; stroke: #b0b0b0; stroke-width: 0.8; stroke-linecap: square"/>
     </g>
     <g id="line2d_20">
      <g>
       <use xlink:href="#mcce130299c" x="55.946" y="30.614475" style="stroke: #000000; stroke-width: 0.8"/>
      </g>
     </g>
     <g id="text_11">
      <!-- 10 -->
      <g transform="translate(36.221 34.413694)scale(0.1 -0.1)">
       <use xlink:href="#DejaVuSans-31"/>
       <use xlink:href="#DejaVuSans-30" x="63.623047"/>
      </g>
     </g>
    </g>
    <g id="text_12">
     <!-- $e_x$ [m] -->
     <g transform="translate(30.141313 69.20875)rotate(-90)scale(0.1 -0.1)">
      <defs>
       <path id="DejaVuSans-Oblique-65" d="M 3078 2063 
Q 3088 2113 3092 2166 
Q 3097 2219 3097 2272 
Q 3097 2653 2873 2875 
Q 2650 3097 2266 3097 
Q 1838 3097 1509 2826 
Q 1181 2556 1013 2059 
L 3078 2063 
z
M 3578 1613 
L 903 1613 
Q 884 1494 878 1425 
Q 872 1356 872 1306 
Q 872 872 1139 634 
Q 1406 397 1894 397 
Q 2269 397 2603 481 
Q 2938 566 3225 728 
L 3116 159 
Q 2806 34 2476 -28 
Q 2147 -91 1806 -91 
Q 1078 -91 686 257 
Q 294 606 294 1247 
Q 294 1794 489 2264 
Q 684 2734 1063 3103 
Q 1306 3334 1642 3459 
Q 1978 3584 2356 3584 
Q 2950 3584 3301 3228 
Q 3653 2872 3653 2272 
Q 3653 2128 3634 1964 
Q 3616 1800 3578 1613 
z
" transform="scale(0.015625)"/>
       <path id="DejaVuSans-Oblique-78" d="M 3841 3500 
L 2234 1784 
L 3219 0 
L 2559 0 
L 1819 1388 
L 531 0 
L -166 0 
L 1556 1844 
L 641 3500 
L 1300 3500 
L 1972 2234 
L 3144 3500 
L 3841 3500 
z
" transform="scale(0.015625)"/>
       <path id="DejaVuSans-6d" d="M 3328 2828 
Q 3544 3216 3844 3400 
Q 4144 3584 4550 3584 
Q 5097 3584 5394 3201 
Q 5691 2819 5691 2113 
L 5691 0 
L 5113 0 
L 5113 2094 
Q 5113 2597 4934 2840 
Q 4756 3084 4391 3084 
Q 3944 3084 3684 2787 
Q 3425 2491 3425 1978 
L 3425 0 
L 2847 0 
L 2847 2094 
Q 2847 2600 2669 2842 
Q 2491 3084 2119 3084 
Q 1678 3084 1418 2786 
Q 1159 2488 1159 1978 
L 1159 0 
L 581 0 
L 581 3500 
L 1159 3500 
L 1159 2956 
Q 1356 3278 1631 3431 
Q 1906 3584 2284 3584 
Q 2666 3584 2933 3390 
Q 3200 3197 3328 2828 
z
" transform="scale(0.015625)"/>
      </defs>
      <use xlink:href="#DejaVuSans-Oblique-65" transform="translate(0 0.015625)"/>
      <use xlink:href="#DejaVuSans-Oblique-78" transform="translate(61.523438 -16.390625)scale(0.7)"/>
      <use xlink:href="#DejaVuSans-20" transform="translate(105.683594 0.015625)"/>
      <use xlink:href="#DejaVuSans-5b" transform="translate(137.470703 0.015625)"/>
      <use xlink:href="#DejaVuSans-6d" transform="translate(176.484375 0.015625)"/>
      <use xlink:href="#DejaVuSans-5d" transform="translate(273.896484 0.015625)"/>
     </g>
    </g>
   </g>
   <g id="line2d_21">
    <path d="M 73.722107 30.614475 
L 87.067533 30.722565 
L 96.67624 31.140448 
L 108.954031 32.17277 
L 110.555482 32.356705 
L 114.826019 32.827649 
L 124.434725 34.180157 
L 124.968542 34.180157 
L 125.502359 34.371033 
L 127.637628 34.598947 
L 132.975798 35.496247 
L 134.577249 35.752037 
L 135.644883 35.976277 
L 136.712517 36.128362 
L 137.246334 36.321425 
L 137.780151 36.321425 
L 138.847785 36.557478 
L 139.915419 36.717522 
L 140.449236 36.920611 
L 140.983053 36.920611 
L 142.050687 37.168788 
L 143.652139 37.507321 
L 145.25359 37.810703 
L 146.321224 37.987068 
L 146.855041 38.210597 
L 147.388858 38.210597 
L 148.456492 38.483328 
L 150.057943 38.807683 
L 151.125577 39.090975 
L 153.260845 39.524959 
L 154.328479 39.820263 
L 156.997564 40.373923 
L 158.065198 40.682521 
L 159.66665 41.04834 
L 160.734284 41.366786 
L 162.335735 41.743908 
L 162.869552 41.96207 
L 163.403369 41.96207 
L 164.471003 42.292886 
L 166.072454 42.796971 
L 166.606271 42.796971 
L 167.673905 43.138132 
L 169.275356 43.657304 
L 169.809173 43.657304 
L 171.410624 44.244251 
L 172.478258 44.422342 
L 173.012075 44.541574 
L 174.079709 44.901645 
L 175.681161 45.448271 
L 176.214978 45.448271 
L 177.282612 45.816901 
L 178.884063 46.375933 
L 179.41788 46.375933 
L 179.951697 46.626674 
L 181.019331 46.942017 
L 182.086965 47.323185 
L 182.620782 47.323185 
L 183.154599 47.578931 
L 184.75605 48.029566 
L 185.289867 48.288795 
L 187.958952 49.007983 
L 188.492769 49.271763 
L 191.695672 50.137175 
L 192.229489 50.405937 
L 194.364757 51.014899 
L 194.898574 51.287444 
L 197.033842 51.904946 
L 198.101476 52.319939 
L 198.635293 52.319939 
L 199.16911 52.598094 
L 200.236744 52.947484 
L 200.770561 53.158031 
L 201.838195 53.369272 
L 202.372012 53.652006 
L 203.439646 54.007184 
L 204.50728 54.436003 
L 205.041097 54.436003 
L 205.574914 54.723482 
L 206.642548 55.084645 
L 207.176365 55.302318 
L 208.244 55.52073 
L 209.311634 56.03324 
L 209.845451 56.254133 
L 210.913085 56.475775 
L 211.446902 56.623955 
L 211.980719 56.921321 
L 212.514536 56.921321 
L 213.048353 57.369891 
L 214.115987 57.595313 
L 214.649804 57.746015 
L 215.183621 58.124252 
L 215.717438 58.124252 
L 216.251255 58.428361 
L 217.852706 58.887052 
L 218.386523 59.271606 
L 218.92034 59.271606 
L 219.454157 59.580759 
L 221.589425 60.281228 
L 222.123242 60.594702 
L 224.258511 61.225596 
L 224.792328 61.622565 
L 225.326145 61.622565 
L 225.859962 61.941565 
L 227.461413 62.422168 
L 227.99523 62.824206 
L 228.529047 62.824206 
L 229.062864 63.146493 
L 231.198132 63.872072 
L 231.731949 64.193916 
L 234.934851 65.231087 
L 235.468668 65.545884 
L 237.070119 66.012726 
L 238.137753 66.547779 
L 238.67157 66.773533 
L 239.739205 66.996993 
L 240.273022 67.144639 
L 240.806839 67.436619 
L 241.340656 67.436619 
L 241.874473 67.865917 
L 242.942107 68.076503 
L 243.475924 68.215339 
L 244.009741 68.4892 
L 244.543558 68.4892 
L 245.077375 68.89017 
L 246.145009 69.086128 
L 246.678826 69.215063 
L 247.212643 69.468816 
L 247.74646 69.468816 
L 248.280277 69.839032 
L 249.347911 70.019442 
L 249.881728 70.137977 
L 250.415545 70.370931 
L 250.949362 70.370931 
L 251.483179 70.710323 
L 253.08463 70.984262 
L 253.618447 71.197788 
L 254.152264 71.197788 
L 254.686081 71.508997 
L 256.287533 71.76024 
L 257.355167 72.052244 
L 258.956618 72.380045 
L 261.091886 72.824471 
L 263.760971 73.359847 
L 265.362422 73.627937 
L 267.49769 74.020079 
L 269.632958 74.345347 
L 270.166775 74.345347 
L 270.700592 74.526274 
L 272.302044 74.669123 
L 273.903495 74.93496 
L 276.038763 75.107068 
L 279.241665 75.484599 
L 279.775482 75.484599 
L 280.843116 75.624962 
L 293.120908 76.414817 
L 300.594346 76.493618 
L 306.466334 76.327653 
L 311.270687 76.056678 
L 313.405955 75.893748 
L 317.142674 75.56121 
L 333.157185 73.521648 
L 333.691002 73.378434 
L 334.224819 73.378434 
L 335.292453 73.209369 
L 339.56299 72.677694 
L 341.164441 72.483127 
L 353.97605 71.454717 
L 366.787658 71.012829 
L 391.877059 70.811597 
L 403.087217 70.933234 
L 410.560655 71.099142 
L 429.244251 71.570466 
L 429.244251 71.570466 
" clip-path="url(#pa298e11b62)" style="fill: none; stroke: #ff0000; stroke-width: 1.5; stroke-linecap: square"/>
   </g>
   <g id="patch_3">
    <path d="M 55.946 78.7975 
L 55.946 28.32 
" style="fill: none; stroke: #000000; stroke-width: 0.8; stroke-linejoin: miter; stroke-linecap: square"/>
   </g>
   <g id="patch_4">
    <path d="M 447.020358 78.7975 
L 447.020358 28.32 
" style="fill: none; stroke: #000000; stroke-width: 0.8; stroke-linejoin: miter; stroke-linecap: square"/>
   </g>
   <g id="patch_5">
    <path d="M 55.946 78.7975 
L 447.020358 78.7975 
" style="fill: none; stroke: #000000; stroke-width: 0.8; stroke-linejoin: miter; stroke-linecap: square"/>
   </g>
   <g id="patch_6">
    <path d="M 55.946 28.32 
L 447.020358 28.32 
" style="fill: none; stroke: #000000; stroke-width: 0.8; stroke-linejoin: miter; stroke-linecap: square"/>
   </g>
   <g id="text_13">
    <!-- Error in $x$-position -->
    <g transform="translate(197.843179 22.32)scale(0.12 -0.12)">
     <defs>
      <path id="DejaVuSans-45" d="M 628 4666 
L 3578 4666 
L 3578 4134 
L 1259 4134 
L 1259 2753 
L 3481 2753 
L 3481 2222 
L 1259 2222 
L 1259 531 
L 3634 531 
L 3634 0 
L 628 0 
L 628 4666 
z
" transform="scale(0.015625)"/>
      <path id="DejaVuSans-72" d="M 2631 2963 
Q 2534 3019 2420 3045 
Q 2306 3072 2169 3072 
Q 1681 3072 1420 2755 
Q 1159 2438 1159 1844 
L 1159 0 
L 581 0 
L 581 3500 
L 1159 3500 
L 1159 2956 
Q 1341 3275 1631 3429 
Q 1922 3584 2338 3584 
Q 2397 3584 2469 3576 
Q 2541 3569 2628 3553 
L 2631 2963 
z
" transform="scale(0.015625)"/>
      <path id="DejaVuSans-6f" d="M 1959 3097 
Q 1497 3097 1228 2736 
Q 959 2375 959 1747 
Q 959 1119 1226 758 
Q 1494 397 1959 397 
Q 2419 397 2687 759 
Q 2956 1122 2956 1747 
Q 2956 2369 2687 2733 
Q 2419 3097 1959 3097 
z
M 1959 3584 
Q 2709 3584 3137 3096 
Q 3566 2609 3566 1747 
Q 3566 888 3137 398 
Q 2709 -91 1959 -91 
Q 1206 -91 779 398 
Q 353 888 353 1747 
Q 353 2609 779 3096 
Q 1206 3584 1959 3584 
z
" transform="scale(0.015625)"/>
      <path id="DejaVuSans-69" d="M 603 3500 
L 1178 3500 
L 1178 0 
L 603 0 
L 603 3500 
z
M 603 4863 
L 1178 4863 
L 1178 4134 
L 603 4134 
L 603 4863 
z
" transform="scale(0.015625)"/>
      <path id="DejaVuSans-6e" d="M 3513 2113 
L 3513 0 
L 2938 0 
L 2938 2094 
Q 2938 2591 2744 2837 
Q 2550 3084 2163 3084 
Q 1697 3084 1428 2787 
Q 1159 2491 1159 1978 
L 1159 0 
L 581 0 
L 581 3500 
L 1159 3500 
L 1159 2956 
Q 1366 3272 1645 3428 
Q 1925 3584 2291 3584 
Q 2894 3584 3203 3211 
Q 3513 2838 3513 2113 
z
" transform="scale(0.015625)"/>
      <path id="DejaVuSans-2d" d="M 313 2009 
L 1997 2009 
L 1997 1497 
L 313 1497 
L 313 2009 
z
" transform="scale(0.015625)"/>
      <path id="DejaVuSans-70" d="M 1159 525 
L 1159 -1331 
L 581 -1331 
L 581 3500 
L 1159 3500 
L 1159 2969 
Q 1341 3281 1617 3432 
Q 1894 3584 2278 3584 
Q 2916 3584 3314 3078 
Q 3713 2572 3713 1747 
Q 3713 922 3314 415 
Q 2916 -91 2278 -91 
Q 1894 -91 1617 61 
Q 1341 213 1159 525 
z
M 3116 1747 
Q 3116 2381 2855 2742 
Q 2594 3103 2138 3103 
Q 1681 3103 1420 2742 
Q 1159 2381 1159 1747 
Q 1159 1113 1420 752 
Q 1681 391 2138 391 
Q 2594 391 2855 752 
Q 3116 1113 3116 1747 
z
" transform="scale(0.015625)"/>
      <path id="DejaVuSans-74" d="M 1172 4494 
L 1172 3500 
L 2356 3500 
L 2356 3053 
L 1172 3053 
L 1172 1153 
Q 1172 725 1289 603 
Q 1406 481 1766 481 
L 2356 481 
L 2356 0 
L 1766 0 
Q 1100 0 847 248 
Q 594 497 594 1153 
L 594 3053 
L 172 3053 
L 172 3500 
L 594 3500 
L 594 4494 
L 1172 4494 
z
" transform="scale(0.015625)"/>
     </defs>
     <use xlink:href="#DejaVuSans-45" transform="translate(0 0.015625)"/>
     <use xlink:href="#DejaVuSans-72" transform="translate(63.183594 0.015625)"/>
     <use xlink:href="#DejaVuSans-72" transform="translate(104.296875 0.015625)"/>
     <use xlink:href="#DejaVuSans-6f" transform="translate(145.410156 0.015625)"/>
     <use xlink:href="#DejaVuSans-72" transform="translate(206.591797 0.015625)"/>
     <use xlink:href="#DejaVuSans-20" transform="translate(247.705078 0.015625)"/>
     <use xlink:href="#DejaVuSans-69" transform="translate(279.492188 0.015625)"/>
     <use xlink:href="#DejaVuSans-6e" transform="translate(307.275391 0.015625)"/>
     <use xlink:href="#DejaVuSans-20" transform="translate(370.654297 0.015625)"/>
     <use xlink:href="#DejaVuSans-Oblique-78" transform="translate(402.441406 0.015625)"/>
     <use xlink:href="#DejaVuSans-2d" transform="translate(461.621094 0.015625)"/>
     <use xlink:href="#DejaVuSans-70" transform="translate(497.705078 0.015625)"/>
     <use xlink:href="#DejaVuSans-6f" transform="translate(561.181641 0.015625)"/>
     <use xlink:href="#DejaVuSans-73" transform="translate(622.363281 0.015625)"/>
     <use xlink:href="#DejaVuSans-69" transform="translate(674.462891 0.015625)"/>
     <use xlink:href="#DejaVuSans-74" transform="translate(702.246094 0.015625)"/>
     <use xlink:href="#DejaVuSans-69" transform="translate(741.455078 0.015625)"/>
     <use xlink:href="#DejaVuSans-6f" transform="translate(769.238281 0.015625)"/>
     <use xlink:href="#DejaVuSans-6e" transform="translate(830.419922 0.015625)"/>
    </g>
   </g>
  </g>
  <g id="axes_2">
   <g id="patch_7">
    <path d="M 55.946 190.3975 
L 447.020358 190.3975 
L 447.020358 139.92 
L 55.946 139.92 
z
" style="fill: #ffffff"/>
   </g>
   <g id="matplotlib.axis_3">
    <g id="xtick_9">
     <g id="line2d_22">
      <path d="M 73.722107 190.3975 
L 73.722107 139.92 
" clip-path="url(#p5b35ac274c)" style="fill: none; stroke: #b0b0b0; stroke-width: 0.8; stroke-linecap: square"/>
     </g>
     <g id="line2d_23">
      <g>
       <use xlink:href="#m64cf3aacd4" x="73.722107" y="190.3975" style="stroke: #000000; stroke-width: 0.8"/>
      </g>
     </g>
     <g id="text_14">
      <!-- 0 -->
      <g transform="translate(70.540857 204.995937)scale(0.1 -0.1)">
       <use xlink:href="#DejaVuSans-30"/>
      </g>
     </g>
    </g>
    <g id="xtick_10">
     <g id="line2d_24">
      <path d="M 127.023778 190.3975 
L 127.023778 139.92 
" clip-path="url(#p5b35ac274c)" style="fill: none; stroke: #b0b0b0; stroke-width: 0.8; stroke-linecap: square"/>
     </g>
     <g id="line2d_25">
      <g>
       <use xlink:href="#m64cf3aacd4" x="127.023778" y="190.3975" style="stroke: #000000; stroke-width: 0.8"/>
      </g>
     </g>
     <g id="text_15">
      <!-- 1 -->
      <g transform="translate(123.842528 204.995937)scale(0.1 -0.1)">
       <use xlink:href="#DejaVuSans-31"/>
      </g>
     </g>
    </g>
    <g id="xtick_11">
     <g id="line2d_26">
      <path d="M 180.325449 190.3975 
L 180.325449 139.92 
" clip-path="url(#p5b35ac274c)" style="fill: none; stroke: #b0b0b0; stroke-width: 0.8; stroke-linecap: square"/>
     </g>
     <g id="line2d_27">
      <g>
       <use xlink:href="#m64cf3aacd4" x="180.325449" y="190.3975" style="stroke: #000000; stroke-width: 0.8"/>
      </g>
     </g>
     <g id="text_16">
      <!-- 2 -->
      <g transform="translate(177.144199 204.995937)scale(0.1 -0.1)">
       <use xlink:href="#DejaVuSans-32"/>
      </g>
     </g>
    </g>
    <g id="xtick_12">
     <g id="line2d_28">
      <path d="M 233.62712 190.3975 
L 233.62712 139.92 
" clip-path="url(#p5b35ac274c)" style="fill: none; stroke: #b0b0b0; stroke-width: 0.8; stroke-linecap: square"/>
     </g>
     <g id="line2d_29">
      <g>
       <use xlink:href="#m64cf3aacd4" x="233.62712" y="190.3975" style="stroke: #000000; stroke-width: 0.8"/>
      </g>
     </g>
     <g id="text_17">
      <!-- 3 -->
      <g transform="translate(230.44587 204.995937)scale(0.1 -0.1)">
       <use xlink:href="#DejaVuSans-33"/>
      </g>
     </g>
    </g>
    <g id="xtick_13">
     <g id="line2d_30">
      <path d="M 286.92879 190.3975 
L 286.92879 139.92 
" clip-path="url(#p5b35ac274c)" style="fill: none; stroke: #b0b0b0; stroke-width: 0.8; stroke-linecap: square"/>
     </g>
     <g id="line2d_31">
      <g>
       <use xlink:href="#m64cf3aacd4" x="286.92879" y="190.3975" style="stroke: #000000; stroke-width: 0.8"/>
      </g>
     </g>
     <g id="text_18">
      <!-- 4 -->
      <g transform="translate(283.74754 204.995937)scale(0.1 -0.1)">
       <use xlink:href="#DejaVuSans-34"/>
      </g>
     </g>
    </g>
    <g id="xtick_14">
     <g id="line2d_32">
      <path d="M 340.230461 190.3975 
L 340.230461 139.92 
" clip-path="url(#p5b35ac274c)" style="fill: none; stroke: #b0b0b0; stroke-width: 0.8; stroke-linecap: square"/>
     </g>
     <g id="line2d_33">
      <g>
       <use xlink:href="#m64cf3aacd4" x="340.230461" y="190.3975" style="stroke: #000000; stroke-width: 0.8"/>
      </g>
     </g>
     <g id="text_19">
      <!-- 5 -->
      <g transform="translate(337.049211 204.995937)scale(0.1 -0.1)">
       <use xlink:href="#DejaVuSans-35"/>
      </g>
     </g>
    </g>
    <g id="xtick_15">
     <g id="line2d_34">
      <path d="M 393.532132 190.3975 
L 393.532132 139.92 
" clip-path="url(#p5b35ac274c)" style="fill: none; stroke: #b0b0b0; stroke-width: 0.8; stroke-linecap: square"/>
     </g>
     <g id="line2d_35">
      <g>
       <use xlink:href="#m64cf3aacd4" x="393.532132" y="190.3975" style="stroke: #000000; stroke-width: 0.8"/>
      </g>
     </g>
     <g id="text_20">
      <!-- 6 -->
      <g transform="translate(390.350882 204.995937)scale(0.1 -0.1)">
       <use xlink:href="#DejaVuSans-36"/>
      </g>
     </g>
    </g>
    <g id="xtick_16">
     <g id="line2d_36">
      <path d="M 446.833803 190.3975 
L 446.833803 139.92 
" clip-path="url(#p5b35ac274c)" style="fill: none; stroke: #b0b0b0; stroke-width: 0.8; stroke-linecap: square"/>
     </g>
     <g id="line2d_37">
      <g>
       <use xlink:href="#m64cf3aacd4" x="446.833803" y="190.3975" style="stroke: #000000; stroke-width: 0.8"/>
      </g>
     </g>
     <g id="text_21">
      <!-- 7 -->
      <g transform="translate(443.652553 204.995937)scale(0.1 -0.1)">
       <use xlink:href="#DejaVuSans-37"/>
      </g>
     </g>
    </g>
    <g id="text_22">
     <!-- $t$ [s] -->
     <g transform="translate(241.383179 218.674062)scale(0.1 -0.1)">
      <use xlink:href="#DejaVuSans-Oblique-74" transform="translate(0 0.015625)"/>
      <use xlink:href="#DejaVuSans-20" transform="translate(39.208984 0.015625)"/>
      <use xlink:href="#DejaVuSans-5b" transform="translate(70.996094 0.015625)"/>
      <use xlink:href="#DejaVuSans-73" transform="translate(110.009766 0.015625)"/>
      <use xlink:href="#DejaVuSans-5d" transform="translate(162.109375 0.015625)"/>
     </g>
    </g>
   </g>
   <g id="matplotlib.axis_4">
    <g id="ytick_3">
     <g id="line2d_38">
      <path d="M 55.946 173.613393 
L 447.020358 173.613393 
" clip-path="url(#p5b35ac274c)" style="fill: none; stroke: #b0b0b0; stroke-width: 0.8; stroke-linecap: square"/>
     </g>
     <g id="line2d_39">
      <g>
       <use xlink:href="#mcce130299c" x="55.946" y="173.613393" style="stroke: #000000; stroke-width: 0.8"/>
      </g>
     </g>
     <g id="text_23">
      <!-- 0.00 -->
      <g transform="translate(26.680375 177.412612)scale(0.1 -0.1)">
       <defs>
        <path id="DejaVuSans-2e" d="M 684 794 
L 1344 794 
L 1344 0 
L 684 0 
L 684 794 
z
" transform="scale(0.015625)"/>
       </defs>
       <use xlink:href="#DejaVuSans-30"/>
       <use xlink:href="#DejaVuSans-2e" x="63.623047"/>
       <use xlink:href="#DejaVuSans-30" x="95.410156"/>
       <use xlink:href="#DejaVuSans-30" x="159.033203"/>
      </g>
     </g>
    </g>
    <g id="ytick_4">
     <g id="line2d_40">
      <path d="M 55.946 143.512272 
L 447.020358 143.512272 
" clip-path="url(#p5b35ac274c)" style="fill: none; stroke: #b0b0b0; stroke-width: 0.8; stroke-linecap: square"/>
     </g>
     <g id="line2d_41">
      <g>
       <use xlink:href="#mcce130299c" x="55.946" y="143.512272" style="stroke: #000000; stroke-width: 0.8"/>
      </g>
     </g>
     <g id="text_24">
      <!-- 0.05 -->
      <g transform="translate(26.680375 147.311491)scale(0.1 -0.1)">
       <use xlink:href="#DejaVuSans-30"/>
       <use xlink:href="#DejaVuSans-2e" x="63.623047"/>
       <use xlink:href="#DejaVuSans-30" x="95.410156"/>
       <use xlink:href="#DejaVuSans-35" x="159.033203"/>
      </g>
     </g>
    </g>
    <g id="text_25">
     <!-- $e_z$ [m] -->
     <g transform="translate(20.600688 180.60875)rotate(-90)scale(0.1 -0.1)">
      <defs>
       <path id="DejaVuSans-Oblique-7a" d="M 744 3500 
L 3475 3500 
L 3372 2975 
L 738 459 
L 2913 459 
L 2822 0 
L -19 0 
L 84 525 
L 2719 3041 
L 653 3041 
L 744 3500 
z
" transform="scale(0.015625)"/>
      </defs>
      <use xlink:href="#DejaVuSans-Oblique-65" transform="translate(0 0.015625)"/>
      <use xlink:href="#DejaVuSans-Oblique-7a" transform="translate(61.523438 -16.390625)scale(0.7)"/>
      <use xlink:href="#DejaVuSans-20" transform="translate(101.000977 0.015625)"/>
      <use xlink:href="#DejaVuSans-5b" transform="translate(132.788086 0.015625)"/>
      <use xlink:href="#DejaVuSans-6d" transform="translate(171.801758 0.015625)"/>
      <use xlink:href="#DejaVuSans-5d" transform="translate(269.213867 0.015625)"/>
     </g>
    </g>
   </g>
   <g id="line2d_42">
    <path d="M 73.722107 179.353592 
L 74.789741 178.885829 
L 75.323558 178.512035 
L 75.857375 178.512035 
L 76.391192 178.117588 
L 76.925009 178.117588 
L 77.458826 177.54994 
L 78.526461 177.302225 
L 80.127912 176.889299 
L 80.661729 176.555991 
L 82.26318 176.30929 
L 83.330814 176.028963 
L 84.932265 175.713446 
L 86.533716 175.370171 
L 88.135167 175.093081 
L 95.074789 174.233665 
L 97.210057 174.135729 
L 99.879142 174.250616 
L 102.548227 174.655194 
L 105.751129 175.467569 
L 106.284946 175.97095 
L 107.35258 176.250069 
L 108.420214 176.648063 
L 110.555482 177.858432 
L 111.0893 178.090829 
L 111.623117 178.5617 
L 112.156934 178.5617 
L 112.690751 179.27091 
L 113.224568 179.388139 
L 115.359836 180.406873 
L 115.893653 180.826485 
L 120.164189 182.357716 
L 122.833274 182.838297 
L 124.968542 182.881825 
L 126.569993 182.71192 
L 128.171445 182.436182 
L 129.239079 182.116402 
L 130.84053 181.664452 
L 131.374347 181.377113 
L 134.577249 180.367296 
L 135.111066 180.051347 
L 136.712517 179.588657 
L 137.246334 179.220712 
L 137.780151 179.220712 
L 138.313968 178.942399 
L 139.915419 178.55802 
L 140.449236 178.272616 
L 140.983053 178.272616 
L 142.050687 177.975541 
L 146.855041 177.263669 
L 148.990309 177.159925 
L 161.801918 176.587424 
L 166.072454 176.259181 
L 173.012075 176.323911 
L 178.350246 177.172392 
L 178.884063 177.304722 
L 179.41788 177.304722 
L 180.485514 177.58206 
L 182.086965 178.012982 
L 182.620782 178.012982 
L 183.688416 178.29759 
L 184.75605 178.525693 
L 185.823684 178.780876 
L 190.628037 179.413897 
L 193.83094 179.532357 
L 196.500025 179.398366 
L 201.838195 178.702759 
L 203.439646 178.359051 
L 204.50728 178.12407 
L 205.041097 178.12407 
L 206.108731 177.892106 
L 207.710183 177.63353 
L 215.183621 176.717719 
L 217.852706 176.608069 
L 220.521791 176.517654 
L 225.859962 176.499654 
L 227.461413 176.63682 
L 227.99523 176.798319 
L 228.529047 176.798319 
L 229.596681 177.025803 
L 231.198132 177.30749 
L 232.265766 177.54562 
L 236.536302 178.07802 
L 238.137753 178.061538 
L 240.273022 177.698576 
L 240.806839 177.351816 
L 241.340656 177.351816 
L 241.874473 176.59875 
L 242.40829 176.444238 
L 243.475924 175.743038 
L 244.009741 174.909422 
L 244.543558 174.909422 
L 245.077375 173.438375 
L 245.611192 173.169472 
L 246.678826 172.036452 
L 247.212643 170.818314 
L 247.74646 170.818314 
L 248.280277 168.88397 
L 248.814094 168.552819 
L 249.881728 167.215789 
L 250.415545 165.862987 
L 250.949362 165.862987 
L 251.483179 163.79273 
L 252.016996 163.441355 
L 253.08463 162.014894 
L 253.618447 160.555546 
L 254.152264 160.555546 
L 254.686081 158.303781 
L 255.219898 157.921928 
L 256.287533 156.379689 
L 256.82135 154.821778 
L 257.355167 154.040959 
L 258.422801 151.713892 
L 258.956618 151.330976 
L 259.490435 150.57216 
L 260.024252 149.093836 
L 261.091886 147.689217 
L 262.15952 145.48762 
L 262.693337 145.48762 
L 263.227154 144.422849 
L 264.294788 143.341606 
L 264.828605 142.847425 
L 265.896239 142.486784 
L 266.430056 142.234334 
L 266.963873 142.214432 
L 267.49769 142.32807 
L 268.031507 142.624789 
L 268.565324 142.766313 
L 269.099141 143.11542 
L 269.632958 144.088392 
L 270.166775 144.088392 
L 270.700592 146.269881 
L 271.234409 146.717911 
L 272.302044 148.727826 
L 272.835861 151.039621 
L 273.369678 151.039621 
L 273.903495 154.875214 
L 274.437312 155.539235 
L 276.038763 159.542503 
L 276.57258 161.50207 
L 277.106397 164.000763 
L 278.707848 167.393972 
L 279.241665 169.362766 
L 279.775482 169.362766 
L 280.309299 171.816695 
L 280.843116 172.164952 
L 281.91075 173.385215 
L 282.444567 174.332799 
L 282.978384 174.332799 
L 283.512201 175.288174 
L 286.181286 175.806593 
L 288.316555 175.368495 
L 288.850372 175.023518 
L 289.384189 175.023518 
L 289.918006 174.418505 
L 290.98564 174.099054 
L 292.587091 173.375108 
L 293.120908 173.0064 
L 295.256176 172.439182 
L 296.32381 172.180594 
L 297.925261 172.16076 
L 298.992895 172.288761 
L 300.060529 172.59777 
L 301.128163 172.883533 
L 302.729614 173.78282 
L 303.797248 174.079478 
L 304.331066 174.278617 
L 305.3987 174.960144 
L 305.932517 175.234265 
L 307.000151 175.492276 
L 308.601602 176.017379 
L 309.135419 176.260024 
L 311.804504 176.713171 
L 314.473589 176.733895 
L 319.811759 176.458729 
L 320.879394 176.556109 
L 324.082296 177.475315 
L 324.616113 177.908935 
L 326.217564 178.719482 
L 326.751381 179.03125 
L 327.285198 179.534162 
L 327.819015 180.262251 
L 329.954283 181.875261 
L 330.4881 182.51238 
L 331.021917 183.367036 
L 333.157185 185.018227 
L 333.691002 185.953827 
L 334.224819 185.953827 
L 334.758636 186.61492 
L 337.427722 187.982011 
L 338.495356 188.103068 
L 339.56299 188.023485 
L 340.096807 187.768255 
L 340.630624 187.768255 
L 341.164441 187.332802 
L 341.698258 187.045304 
L 342.765892 185.90436 
L 343.299709 185.179294 
L 343.833526 185.179294 
L 344.367343 184.055611 
L 344.90116 184.055611 
L 345.434977 182.063561 
L 345.968794 181.698507 
L 347.036428 180.152762 
L 348.104062 177.182109 
L 348.637879 175.845044 
L 349.171696 175.393456 
L 350.23933 173.555854 
L 350.773147 171.659469 
L 351.306964 170.686884 
L 352.908416 166.114115 
L 353.442233 166.114115 
L 353.97605 163.991079 
L 355.043684 161.82831 
L 355.577501 160.193761 
L 356.111318 158.023212 
L 356.645135 158.023212 
L 357.178952 155.892613 
L 358.246586 153.8389 
L 358.780403 152.373039 
L 359.31422 150.555533 
L 359.848037 150.555533 
L 360.381854 148.935014 
L 360.915671 148.213199 
L 361.983305 146.468511 
L 362.517122 145.869522 
L 363.050939 145.869522 
L 363.584756 145.390786 
L 364.118573 145.299082 
L 364.65239 145.360965 
L 365.186207 145.679125 
L 365.720024 146.268367 
L 366.253841 146.268367 
L 366.787658 147.497891 
L 367.321475 148.301582 
L 368.389109 151.380221 
L 368.922927 153.224499 
L 369.456744 153.224499 
L 369.990561 155.897782 
L 371.058195 158.699235 
L 371.592012 160.818317 
L 372.125829 163.592196 
L 374.794914 170.318083 
L 375.328731 172.267273 
L 376.396365 173.895913 
L 378.531633 176.667957 
L 379.06545 176.667957 
L 379.599267 177.06631 
L 380.666901 177.138919 
L 381.200718 176.973442 
L 381.734535 176.664999 
L 382.268352 176.664999 
L 383.869803 174.807087 
L 384.40362 174.566463 
L 385.471255 173.533077 
L 386.538889 171.561776 
L 387.072706 170.697753 
L 387.606523 170.411442 
L 388.674157 169.291896 
L 389.207974 168.243896 
L 389.741791 167.75876 
L 390.809425 166.507865 
L 391.343242 166.01786 
L 391.877059 166.01786 
L 392.410876 165.525484 
L 393.47851 165.186699 
L 394.012327 165.137356 
L 395.079961 165.203255 
L 397.215229 166.350634 
L 397.749046 167.070615 
L 398.282863 167.070615 
L 398.81668 167.916093 
L 399.884314 168.859536 
L 400.418131 169.613036 
L 400.951948 170.656116 
L 401.485766 170.656116 
L 402.019583 171.716782 
L 403.087217 173.282748 
L 403.621034 173.535771 
L 404.688668 174.513357 
L 405.222485 175.422019 
L 405.756302 175.422019 
L 406.290119 176.62 
L 406.823936 176.797612 
L 407.89157 177.439728 
L 408.425387 177.96646 
L 409.493021 178.534057 
L 412.162106 178.876314 
L 414.297374 178.520465 
L 415.365008 178.002699 
L 416.966459 177.302951 
L 417.500277 176.898413 
L 418.034094 176.31852 
L 419.635545 175.392726 
L 420.169362 174.761381 
L 420.703179 174.761381 
L 421.236996 173.838803 
L 421.770813 173.69117 
L 423.906081 172.497254 
L 424.439898 172.069415 
L 426.041349 171.575572 
L 428.176617 171.17877 
L 429.244251 171.200018 
L 429.244251 171.200018 
" clip-path="url(#p5b35ac274c)" style="fill: none; stroke: #0000ff; stroke-width: 1.5; stroke-linecap: square"/>
   </g>
   <g id="patch_8">
    <path d="M 55.946 190.3975 
L 55.946 139.92 
" style="fill: none; stroke: #000000; stroke-width: 0.8; stroke-linejoin: miter; stroke-linecap: square"/>
   </g>
   <g id="patch_9">
    <path d="M 447.020358 190.3975 
L 447.020358 139.92 
" style="fill: none; stroke: #000000; stroke-width: 0.8; stroke-linejoin: miter; stroke-linecap: square"/>
   </g>
   <g id="patch_10">
    <path d="M 55.946 190.3975 
L 447.020358 190.3975 
" style="fill: none; stroke: #000000; stroke-width: 0.8; stroke-linejoin: miter; stroke-linecap: square"/>
   </g>
   <g id="patch_11">
    <path d="M 55.946 139.92 
L 447.020358 139.92 
" style="fill: none; stroke: #000000; stroke-width: 0.8; stroke-linejoin: miter; stroke-linecap: square"/>
   </g>
   <g id="text_26">
    <!-- Error in $z$-position -->
    <g transform="translate(198.203179 133.92)scale(0.12 -0.12)">
     <use xlink:href="#DejaVuSans-45" transform="translate(0 0.015625)"/>
     <use xlink:href="#DejaVuSans-72" transform="translate(63.183594 0.015625)"/>
     <use xlink:href="#DejaVuSans-72" transform="translate(104.296875 0.015625)"/>
     <use xlink:href="#DejaVuSans-6f" transform="translate(145.410156 0.015625)"/>
     <use xlink:href="#DejaVuSans-72" transform="translate(206.591797 0.015625)"/>
     <use xlink:href="#DejaVuSans-20" transform="translate(247.705078 0.015625)"/>
     <use xlink:href="#DejaVuSans-69" transform="translate(279.492188 0.015625)"/>
     <use xlink:href="#DejaVuSans-6e" transform="translate(307.275391 0.015625)"/>
     <use xlink:href="#DejaVuSans-20" transform="translate(370.654297 0.015625)"/>
     <use xlink:href="#DejaVuSans-Oblique-7a" transform="translate(402.441406 0.015625)"/>
     <use xlink:href="#DejaVuSans-2d" transform="translate(454.931641 0.015625)"/>
     <use xlink:href="#DejaVuSans-70" transform="translate(491.015625 0.015625)"/>
     <use xlink:href="#DejaVuSans-6f" transform="translate(554.492188 0.015625)"/>
     <use xlink:href="#DejaVuSans-73" transform="translate(615.673828 0.015625)"/>
     <use xlink:href="#DejaVuSans-69" transform="translate(667.773438 0.015625)"/>
     <use xlink:href="#DejaVuSans-74" transform="translate(695.556641 0.015625)"/>
     <use xlink:href="#DejaVuSans-69" transform="translate(734.765625 0.015625)"/>
     <use xlink:href="#DejaVuSans-6f" transform="translate(762.548828 0.015625)"/>
     <use xlink:href="#DejaVuSans-6e" transform="translate(823.730469 0.015625)"/>
    </g>
   </g>
  </g>
  <g id="axes_3">
   <g id="patch_12">
    <path d="M 55.946 301.9975 
L 447.020358 301.9975 
L 447.020358 251.52 
L 55.946 251.52 
z
" style="fill: #ffffff"/>
   </g>
   <g id="matplotlib.axis_5">
    <g id="xtick_17">
     <g id="line2d_43">
      <path d="M 73.722107 301.9975 
L 73.722107 251.52 
" clip-path="url(#pebafcd110f)" style="fill: none; stroke: #b0b0b0; stroke-width: 0.8; stroke-linecap: square"/>
     </g>
     <g id="line2d_44">
      <g>
       <use xlink:href="#m64cf3aacd4" x="73.722107" y="301.9975" style="stroke: #000000; stroke-width: 0.8"/>
      </g>
     </g>
     <g id="text_27">
      <!-- 0 -->
      <g transform="translate(70.540857 316.595937)scale(0.1 -0.1)">
       <use xlink:href="#DejaVuSans-30"/>
      </g>
     </g>
    </g>
    <g id="xtick_18">
     <g id="line2d_45">
      <path d="M 127.023778 301.9975 
L 127.023778 251.52 
" clip-path="url(#pebafcd110f)" style="fill: none; stroke: #b0b0b0; stroke-width: 0.8; stroke-linecap: square"/>
     </g>
     <g id="line2d_46">
      <g>
       <use xlink:href="#m64cf3aacd4" x="127.023778" y="301.9975" style="stroke: #000000; stroke-width: 0.8"/>
      </g>
     </g>
     <g id="text_28">
      <!-- 1 -->
      <g transform="translate(123.842528 316.595937)scale(0.1 -0.1)">
       <use xlink:href="#DejaVuSans-31"/>
      </g>
     </g>
    </g>
    <g id="xtick_19">
     <g id="line2d_47">
      <path d="M 180.325449 301.9975 
L 180.325449 251.52 
" clip-path="url(#pebafcd110f)" style="fill: none; stroke: #b0b0b0; stroke-width: 0.8; stroke-linecap: square"/>
     </g>
     <g id="line2d_48">
      <g>
       <use xlink:href="#m64cf3aacd4" x="180.325449" y="301.9975" style="stroke: #000000; stroke-width: 0.8"/>
      </g>
     </g>
     <g id="text_29">
      <!-- 2 -->
      <g transform="translate(177.144199 316.595937)scale(0.1 -0.1)">
       <use xlink:href="#DejaVuSans-32"/>
      </g>
     </g>
    </g>
    <g id="xtick_20">
     <g id="line2d_49">
      <path d="M 233.62712 301.9975 
L 233.62712 251.52 
" clip-path="url(#pebafcd110f)" style="fill: none; stroke: #b0b0b0; stroke-width: 0.8; stroke-linecap: square"/>
     </g>
     <g id="line2d_50">
      <g>
       <use xlink:href="#m64cf3aacd4" x="233.62712" y="301.9975" style="stroke: #000000; stroke-width: 0.8"/>
      </g>
     </g>
     <g id="text_30">
      <!-- 3 -->
      <g transform="translate(230.44587 316.595937)scale(0.1 -0.1)">
       <use xlink:href="#DejaVuSans-33"/>
      </g>
     </g>
    </g>
    <g id="xtick_21">
     <g id="line2d_51">
      <path d="M 286.92879 301.9975 
L 286.92879 251.52 
" clip-path="url(#pebafcd110f)" style="fill: none; stroke: #b0b0b0; stroke-width: 0.8; stroke-linecap: square"/>
     </g>
     <g id="line2d_52">
      <g>
       <use xlink:href="#m64cf3aacd4" x="286.92879" y="301.9975" style="stroke: #000000; stroke-width: 0.8"/>
      </g>
     </g>
     <g id="text_31">
      <!-- 4 -->
      <g transform="translate(283.74754 316.595937)scale(0.1 -0.1)">
       <use xlink:href="#DejaVuSans-34"/>
      </g>
     </g>
    </g>
    <g id="xtick_22">
     <g id="line2d_53">
      <path d="M 340.230461 301.9975 
L 340.230461 251.52 
" clip-path="url(#pebafcd110f)" style="fill: none; stroke: #b0b0b0; stroke-width: 0.8; stroke-linecap: square"/>
     </g>
     <g id="line2d_54">
      <g>
       <use xlink:href="#m64cf3aacd4" x="340.230461" y="301.9975" style="stroke: #000000; stroke-width: 0.8"/>
      </g>
     </g>
     <g id="text_32">
      <!-- 5 -->
      <g transform="translate(337.049211 316.595937)scale(0.1 -0.1)">
       <use xlink:href="#DejaVuSans-35"/>
      </g>
     </g>
    </g>
    <g id="xtick_23">
     <g id="line2d_55">
      <path d="M 393.532132 301.9975 
L 393.532132 251.52 
" clip-path="url(#pebafcd110f)" style="fill: none; stroke: #b0b0b0; stroke-width: 0.8; stroke-linecap: square"/>
     </g>
     <g id="line2d_56">
      <g>
       <use xlink:href="#m64cf3aacd4" x="393.532132" y="301.9975" style="stroke: #000000; stroke-width: 0.8"/>
      </g>
     </g>
     <g id="text_33">
      <!-- 6 -->
      <g transform="translate(390.350882 316.595937)scale(0.1 -0.1)">
       <use xlink:href="#DejaVuSans-36"/>
      </g>
     </g>
    </g>
    <g id="xtick_24">
     <g id="line2d_57">
      <path d="M 446.833803 301.9975 
L 446.833803 251.52 
" clip-path="url(#pebafcd110f)" style="fill: none; stroke: #b0b0b0; stroke-width: 0.8; stroke-linecap: square"/>
     </g>
     <g id="line2d_58">
      <g>
       <use xlink:href="#m64cf3aacd4" x="446.833803" y="301.9975" style="stroke: #000000; stroke-width: 0.8"/>
      </g>
     </g>
     <g id="text_34">
      <!-- 7 -->
      <g transform="translate(443.652553 316.595937)scale(0.1 -0.1)">
       <use xlink:href="#DejaVuSans-37"/>
      </g>
     </g>
    </g>
    <g id="text_35">
     <!-- $t$ [s] -->
     <g transform="translate(241.383179 330.274063)scale(0.1 -0.1)">
      <use xlink:href="#DejaVuSans-Oblique-74" transform="translate(0 0.015625)"/>
      <use xlink:href="#DejaVuSans-20" transform="translate(39.208984 0.015625)"/>
      <use xlink:href="#DejaVuSans-5b" transform="translate(70.996094 0.015625)"/>
      <use xlink:href="#DejaVuSans-73" transform="translate(110.009766 0.015625)"/>
      <use xlink:href="#DejaVuSans-5d" transform="translate(162.109375 0.015625)"/>
     </g>
    </g>
   </g>
   <g id="matplotlib.axis_6">
    <g id="ytick_5">
     <g id="line2d_59">
      <path d="M 55.946 298.625155 
L 447.020358 298.625155 
" clip-path="url(#pebafcd110f)" style="fill: none; stroke: #b0b0b0; stroke-width: 0.8; stroke-linecap: square"/>
     </g>
     <g id="line2d_60">
      <g>
       <use xlink:href="#mcce130299c" x="55.946" y="298.625155" style="stroke: #000000; stroke-width: 0.8"/>
      </g>
     </g>
     <g id="text_36">
      <!-- −2.5 -->
      <g transform="translate(24.663188 302.424374)scale(0.1 -0.1)">
       <defs>
        <path id="DejaVuSans-2212" d="M 678 2272 
L 4684 2272 
L 4684 1741 
L 678 1741 
L 678 2272 
z
" transform="scale(0.015625)"/>
       </defs>
       <use xlink:href="#DejaVuSans-2212"/>
       <use xlink:href="#DejaVuSans-32" x="83.789062"/>
       <use xlink:href="#DejaVuSans-2e" x="147.412109"/>
       <use xlink:href="#DejaVuSans-35" x="179.199219"/>
      </g>
     </g>
    </g>
    <g id="ytick_6">
     <g id="line2d_61">
      <path d="M 55.946 276.424625 
L 447.020358 276.424625 
" clip-path="url(#pebafcd110f)" style="fill: none; stroke: #b0b0b0; stroke-width: 0.8; stroke-linecap: square"/>
     </g>
     <g id="line2d_62">
      <g>
       <use xlink:href="#mcce130299c" x="55.946" y="276.424625" style="stroke: #000000; stroke-width: 0.8"/>
      </g>
     </g>
     <g id="text_37">
      <!-- 0.0 -->
      <g transform="translate(33.042875 280.223844)scale(0.1 -0.1)">
       <use xlink:href="#DejaVuSans-30"/>
       <use xlink:href="#DejaVuSans-2e" x="63.623047"/>
       <use xlink:href="#DejaVuSans-30" x="95.410156"/>
      </g>
     </g>
    </g>
    <g id="ytick_7">
     <g id="line2d_63">
      <path d="M 55.946 254.224095 
L 447.020358 254.224095 
" clip-path="url(#pebafcd110f)" style="fill: none; stroke: #b0b0b0; stroke-width: 0.8; stroke-linecap: square"/>
     </g>
     <g id="line2d_64">
      <g>
       <use xlink:href="#mcce130299c" x="55.946" y="254.224095" style="stroke: #000000; stroke-width: 0.8"/>
      </g>
     </g>
     <g id="text_38">
      <!-- 2.5 -->
      <g transform="translate(33.042875 258.023313)scale(0.1 -0.1)">
       <use xlink:href="#DejaVuSans-32"/>
       <use xlink:href="#DejaVuSans-2e" x="63.623047"/>
       <use xlink:href="#DejaVuSans-35" x="95.410156"/>
      </g>
     </g>
    </g>
    <g id="text_39">
     <!-- $e_\theta$ [rad] -->
     <g transform="translate(18.5835 295.90875)rotate(-90)scale(0.1 -0.1)">
      <defs>
       <path id="DejaVuSans-Oblique-3b8" d="M 2913 2219 
L 925 2219 
Q 791 1284 928 888 
Q 1100 400 1566 400 
Q 2034 400 2391 891 
Q 2703 1322 2913 2219 
z
M 3009 2750 
Q 3094 3638 2984 3950 
Q 2813 4444 2353 4444 
Q 1875 4444 1525 3956 
Q 1250 3563 1034 2750 
L 3009 2750 
z
M 2444 4913 
Q 3194 4913 3494 4250 
Q 3794 3591 3566 2422 
Q 3341 1256 2781 594 
Q 2225 -72 1475 -72 
Q 722 -72 425 594 
Q 128 1256 353 2422 
Q 581 3591 1134 4250 
Q 1691 4913 2444 4913 
z
" transform="scale(0.015625)"/>
       <path id="DejaVuSans-61" d="M 2194 1759 
Q 1497 1759 1228 1600 
Q 959 1441 959 1056 
Q 959 750 1161 570 
Q 1363 391 1709 391 
Q 2188 391 2477 730 
Q 2766 1069 2766 1631 
L 2766 1759 
L 2194 1759 
z
M 3341 1997 
L 3341 0 
L 2766 0 
L 2766 531 
Q 2569 213 2275 61 
Q 1981 -91 1556 -91 
Q 1019 -91 701 211 
Q 384 513 384 1019 
Q 384 1609 779 1909 
Q 1175 2209 1959 2209 
L 2766 2209 
L 2766 2266 
Q 2766 2663 2505 2880 
Q 2244 3097 1772 3097 
Q 1472 3097 1187 3025 
Q 903 2953 641 2809 
L 641 3341 
Q 956 3463 1253 3523 
Q 1550 3584 1831 3584 
Q 2591 3584 2966 3190 
Q 3341 2797 3341 1997 
z
" transform="scale(0.015625)"/>
       <path id="DejaVuSans-64" d="M 2906 2969 
L 2906 4863 
L 3481 4863 
L 3481 0 
L 2906 0 
L 2906 525 
Q 2725 213 2448 61 
Q 2172 -91 1784 -91 
Q 1150 -91 751 415 
Q 353 922 353 1747 
Q 353 2572 751 3078 
Q 1150 3584 1784 3584 
Q 2172 3584 2448 3432 
Q 2725 3281 2906 2969 
z
M 947 1747 
Q 947 1113 1208 752 
Q 1469 391 1925 391 
Q 2381 391 2643 752 
Q 2906 1113 2906 1747 
Q 2906 2381 2643 2742 
Q 2381 3103 1925 3103 
Q 1469 3103 1208 2742 
Q 947 2381 947 1747 
z
" transform="scale(0.015625)"/>
      </defs>
      <use xlink:href="#DejaVuSans-Oblique-65" transform="translate(0 0.015625)"/>
      <use xlink:href="#DejaVuSans-Oblique-3b8" transform="translate(61.523438 -16.390625)scale(0.7)"/>
      <use xlink:href="#DejaVuSans-20" transform="translate(107.084961 0.015625)"/>
      <use xlink:href="#DejaVuSans-5b" transform="translate(138.87207 0.015625)"/>
      <use xlink:href="#DejaVuSans-72" transform="translate(177.885742 0.015625)"/>
      <use xlink:href="#DejaVuSans-61" transform="translate(218.999023 0.015625)"/>
      <use xlink:href="#DejaVuSans-64" transform="translate(280.27832 0.015625)"/>
      <use xlink:href="#DejaVuSans-5d" transform="translate(343.754883 0.015625)"/>
     </g>
    </g>
   </g>
   <g id="line2d_65">
    <path d="M 73.722107 262.486496 
L 75.857375 262.466278 
L 80.127912 261.754372 
L 80.661729 261.496796 
L 82.26318 261.296367 
L 83.330814 261.076124 
L 84.932265 260.847452 
L 92.405703 260.121246 
L 103.082044 259.719759 
L 110.021665 259.686252 
L 118.562738 259.852017 
L 126.036176 260.088872 
L 143.118322 260.409122 
L 153.260845 260.275 
L 162.869552 260.024449 
L 168.207722 259.916159 
L 176.748795 259.841781 
L 186.891318 259.961497 
L 217.852706 260.365304 
L 225.859962 260.315662 
L 227.461413 260.414587 
L 227.99523 260.552644 
L 228.529047 260.552644 
L 229.596681 260.783965 
L 231.198132 261.133721 
L 232.265766 261.49653 
L 234.401034 262.05674 
L 236.536302 262.890995 
L 237.070119 263.039176 
L 238.137753 263.533449 
L 238.67157 263.728674 
L 239.739205 263.914216 
L 241.340656 264.249426 
L 241.874473 264.539004 
L 243.475924 264.746213 
L 244.009741 264.890724 
L 244.543558 264.890724 
L 245.077375 265.071457 
L 250.949362 265.336917 
L 253.08463 264.988881 
L 253.618447 264.587999 
L 254.152264 264.587999 
L 254.686081 262.779409 
L 255.219898 262.053227 
L 255.753715 259.45115 
L 256.287533 253.814432 
L 256.82135 299.703068 
L 257.355167 298.153617 
L 257.888984 297.037925 
L 258.422801 296.474642 
L 259.490435 296.141487 
L 260.024252 295.865924 
L 263.227154 295.388741 
L 269.099141 294.839809 
L 271.234409 294.555527 
L 273.369678 294.323697 
L 273.903495 294.142422 
L 276.038763 293.93285 
L 279.241665 293.480178 
L 279.775482 293.480178 
L 280.843116 293.328359 
L 287.782737 292.914679 
L 295.789993 292.809375 
L 304.331066 293.012789 
L 310.203053 293.282161 
L 319.811759 293.579504 
L 321.947028 293.389023 
L 324.082296 293.125818 
L 325.14993 292.899703 
L 327.285198 292.490195 
L 328.352832 292.173384 
L 330.4881 291.643668 
L 331.555734 291.259197 
L 333.157185 290.854298 
L 333.691002 290.504072 
L 334.224819 290.504072 
L 334.758636 290.217735 
L 336.893905 289.556465 
L 337.427722 289.258035 
L 339.56299 288.58432 
L 340.096807 288.286272 
L 340.630624 288.286272 
L 341.164441 287.989743 
L 342.232075 287.621726 
L 343.299709 287.178519 
L 343.833526 287.178519 
L 344.367343 286.874349 
L 344.90116 286.874349 
L 345.434977 286.36664 
L 345.968794 286.269675 
L 347.036428 285.798269 
L 347.570245 284.975818 
L 348.104062 283.23801 
L 348.637879 270.132158 
L 349.171696 264.414904 
L 349.705513 260.979679 
L 350.773147 259.021007 
L 352.908416 258.088538 
L 353.442233 258.088538 
L 354.509867 257.792076 
L 358.780403 257.235907 
L 360.915671 257.191812 
L 363.584756 257.398242 
L 365.186207 257.69203 
L 365.720024 257.837825 
L 366.253841 257.837825 
L 367.855292 258.392076 
L 368.922927 258.847688 
L 369.456744 258.847688 
L 369.990561 259.17662 
L 371.592012 259.771725 
L 372.125829 260.108745 
L 374.794914 260.956208 
L 375.328731 261.220223 
L 378.531633 261.94388 
L 379.06545 261.94388 
L 380.133084 262.113446 
L 382.268352 262.259829 
L 384.40362 262.302627 
L 389.741791 262.154417 
L 394.012327 262.109001 
L 399.350497 262.31948 
L 404.688668 262.684222 
L 406.823936 262.843682 
L 413.763557 263.096782 
L 417.500277 263.023026 
L 429.244251 262.078062 
L 429.244251 262.078062 
" clip-path="url(#pebafcd110f)" style="fill: none; stroke: #008000; stroke-width: 1.5; stroke-linecap: square"/>
   </g>
   <g id="patch_13">
    <path d="M 55.946 301.9975 
L 55.946 251.52 
" style="fill: none; stroke: #000000; stroke-width: 0.8; stroke-linejoin: miter; stroke-linecap: square"/>
   </g>
   <g id="patch_14">
    <path d="M 447.020358 301.9975 
L 447.020358 251.52 
" style="fill: none; stroke: #000000; stroke-width: 0.8; stroke-linejoin: miter; stroke-linecap: square"/>
   </g>
   <g id="patch_15">
    <path d="M 55.946 301.9975 
L 447.020358 301.9975 
" style="fill: none; stroke: #000000; stroke-width: 0.8; stroke-linejoin: miter; stroke-linecap: square"/>
   </g>
   <g id="patch_16">
    <path d="M 55.946 251.52 
L 447.020358 251.52 
" style="fill: none; stroke: #000000; stroke-width: 0.8; stroke-linejoin: miter; stroke-linecap: square"/>
   </g>
   <g id="text_40">
    <!-- Error in swing angle -->
    <g transform="translate(191.712867 245.52)scale(0.12 -0.12)">
     <defs>
      <path id="DejaVuSans-77" d="M 269 3500 
L 844 3500 
L 1563 769 
L 2278 3500 
L 2956 3500 
L 3675 769 
L 4391 3500 
L 4966 3500 
L 4050 0 
L 3372 0 
L 2619 2869 
L 1863 0 
L 1184 0 
L 269 3500 
z
" transform="scale(0.015625)"/>
      <path id="DejaVuSans-67" d="M 2906 1791 
Q 2906 2416 2648 2759 
Q 2391 3103 1925 3103 
Q 1463 3103 1205 2759 
Q 947 2416 947 1791 
Q 947 1169 1205 825 
Q 1463 481 1925 481 
Q 2391 481 2648 825 
Q 2906 1169 2906 1791 
z
M 3481 434 
Q 3481 -459 3084 -895 
Q 2688 -1331 1869 -1331 
Q 1566 -1331 1297 -1286 
Q 1028 -1241 775 -1147 
L 775 -588 
Q 1028 -725 1275 -790 
Q 1522 -856 1778 -856 
Q 2344 -856 2625 -561 
Q 2906 -266 2906 331 
L 2906 616 
Q 2728 306 2450 153 
Q 2172 0 1784 0 
Q 1141 0 747 490 
Q 353 981 353 1791 
Q 353 2603 747 3093 
Q 1141 3584 1784 3584 
Q 2172 3584 2450 3431 
Q 2728 3278 2906 2969 
L 2906 3500 
L 3481 3500 
L 3481 434 
z
" transform="scale(0.015625)"/>
      <path id="DejaVuSans-6c" d="M 603 4863 
L 1178 4863 
L 1178 0 
L 603 0 
L 603 4863 
z
" transform="scale(0.015625)"/>
      <path id="DejaVuSans-65" d="M 3597 1894 
L 3597 1613 
L 953 1613 
Q 991 1019 1311 708 
Q 1631 397 2203 397 
Q 2534 397 2845 478 
Q 3156 559 3463 722 
L 3463 178 
Q 3153 47 2828 -22 
Q 2503 -91 2169 -91 
Q 1331 -91 842 396 
Q 353 884 353 1716 
Q 353 2575 817 3079 
Q 1281 3584 2069 3584 
Q 2775 3584 3186 3129 
Q 3597 2675 3597 1894 
z
M 3022 2063 
Q 3016 2534 2758 2815 
Q 2500 3097 2075 3097 
Q 1594 3097 1305 2825 
Q 1016 2553 972 2059 
L 3022 2063 
z
" transform="scale(0.015625)"/>
     </defs>
     <use xlink:href="#DejaVuSans-45"/>
     <use xlink:href="#DejaVuSans-72" x="63.183594"/>
     <use xlink:href="#DejaVuSans-72" x="102.546875"/>
     <use xlink:href="#DejaVuSans-6f" x="141.410156"/>
     <use xlink:href="#DejaVuSans-72" x="202.591797"/>
     <use xlink:href="#DejaVuSans-20" x="243.705078"/>
     <use xlink:href="#DejaVuSans-69" x="275.492188"/>
     <use xlink:href="#DejaVuSans-6e" x="303.275391"/>
     <use xlink:href="#DejaVuSans-20" x="366.654297"/>
     <use xlink:href="#DejaVuSans-73" x="398.441406"/>
     <use xlink:href="#DejaVuSans-77" x="450.541016"/>
     <use xlink:href="#DejaVuSans-69" x="532.328125"/>
     <use xlink:href="#DejaVuSans-6e" x="560.111328"/>
     <use xlink:href="#DejaVuSans-67" x="623.490234"/>
     <use xlink:href="#DejaVuSans-20" x="686.966797"/>
     <use xlink:href="#DejaVuSans-61" x="718.753906"/>
     <use xlink:href="#DejaVuSans-6e" x="780.033203"/>
     <use xlink:href="#DejaVuSans-67" x="843.412109"/>
     <use xlink:href="#DejaVuSans-6c" x="906.888672"/>
     <use xlink:href="#DejaVuSans-65" x="934.671875"/>
    </g>
   </g>
  </g>
 </g>
 <defs>
  <clipPath id="pa298e11b62">
   <rect x="55.946" y="28.32" width="391.074358" height="50.4775"/>
  </clipPath>
  <clipPath id="p5b35ac274c">
   <rect x="55.946" y="139.92" width="391.074358" height="50.4775"/>
  </clipPath>
  <clipPath id="pebafcd110f">
   <rect x="55.946" y="251.52" width="391.074358" height="50.4775"/>
  </clipPath>
 </defs>
</svg>
