<?xml version="1.0" encoding="utf-8" standalone="no"?>
<!DOCTYPE svg PUBLIC "-//W3C//DTD SVG 1.1//EN"
  "http://www.w3.org/Graphics/SVG/1.1/DTD/svg11.dtd">
<svg xmlns:xlink="http://www.w3.org/1999/xlink" width="460.8pt" height="345.6pt" viewBox="0 0 460.8 345.6" xmlns="http://www.w3.org/2000/svg" version="1.1">
 <metadata>
  <rdf:RDF xmlns:dc="http://purl.org/dc/elements/1.1/" xmlns:cc="http://creativecommons.org/ns#" xmlns:rdf="http://www.w3.org/1999/02/22-rdf-syntax-ns#">
   <cc:Work>
    <dc:type rdf:resource="http://purl.org/dc/dcmitype/StillImage"/>
    <dc:date>2022-06-05T14:13:14.167632</dc:date>
    <dc:format>image/svg+xml</dc:format>
    <dc:creator>
     <cc:Agent>
      <dc:title>Matplotlib v3.5.1, https://matplotlib.org/</dc:title>
     </cc:Agent>
    </dc:creator>
   </cc:Work>
  </rdf:RDF>
 </metadata>
 <defs>
  <style type="text/css">*{stroke-linejoin: round; stroke-linecap: butt}</style>
 </defs>
 <g id="figure_1">
  <g id="patch_1">
   <path d="M 0 345.6 
L 460.8 345.6 
L 460.8 0 
L 0 0 
z
" style="fill: #ffffff"/>
  </g>
  <g id="axes_1">
   <g id="patch_2">
    <path d="M 58.106 78.7975 
L 450 78.7975 
L 450 28.32 
L 58.106 28.32 
z
" style="fill: #ffffff"/>
   </g>
   <g id="matplotlib.axis_1">
    <g id="xtick_1">
     <g id="line2d_1">
      <path d="M 75.919364 78.7975 
L 75.919364 28.32 
" clip-path="url(#peafa0b2cb0)" style="fill: none; stroke: #b0b0b0; stroke-width: 0.8; stroke-linecap: square"/>
     </g>
     <g id="line2d_2">
      <defs>
       <path id="mdc619541ea" d="M 0 0 
L 0 3.5 
" style="stroke: #000000; stroke-width: 0.8"/>
      </defs>
      <g>
       <use xlink:href="#mdc619541ea" x="75.919364" y="78.7975" style="stroke: #000000; stroke-width: 0.8"/>
      </g>
     </g>
     <g id="text_1">
      <!-- 0 -->
      <g transform="translate(72.738114 93.395937)scale(0.1 -0.1)">
       <defs>
        <path id="DejaVuSans-30" d="M 2034 4250 
Q 1547 4250 1301 3770 
Q 1056 3291 1056 2328 
Q 1056 1369 1301 889 
Q 1547 409 2034 409 
Q 2525 409 2770 889 
Q 3016 1369 3016 2328 
Q 3016 3291 2770 3770 
Q 2525 4250 2034 4250 
z
M 2034 4750 
Q 2819 4750 3233 4129 
Q 3647 3509 3647 2328 
Q 3647 1150 3233 529 
Q 2819 -91 2034 -91 
Q 1250 -91 836 529 
Q 422 1150 422 2328 
Q 422 3509 836 4129 
Q 1250 4750 2034 4750 
z
" transform="scale(0.015625)"/>
       </defs>
       <use xlink:href="#DejaVuSans-30"/>
      </g>
     </g>
    </g>
    <g id="xtick_2">
     <g id="line2d_3">
      <path d="M 136.099646 78.7975 
L 136.099646 28.32 
" clip-path="url(#peafa0b2cb0)" style="fill: none; stroke: #b0b0b0; stroke-width: 0.8; stroke-linecap: square"/>
     </g>
     <g id="line2d_4">
      <g>
       <use xlink:href="#mdc619541ea" x="136.099646" y="78.7975" style="stroke: #000000; stroke-width: 0.8"/>
      </g>
     </g>
     <g id="text_2">
      <!-- 2 -->
      <g transform="translate(132.918396 93.395937)scale(0.1 -0.1)">
       <defs>
        <path id="DejaVuSans-32" d="M 1228 531 
L 3431 531 
L 3431 0 
L 469 0 
L 469 531 
Q 828 903 1448 1529 
Q 2069 2156 2228 2338 
Q 2531 2678 2651 2914 
Q 2772 3150 2772 3378 
Q 2772 3750 2511 3984 
Q 2250 4219 1831 4219 
Q 1534 4219 1204 4116 
Q 875 4013 500 3803 
L 500 4441 
Q 881 4594 1212 4672 
Q 1544 4750 1819 4750 
Q 2544 4750 2975 4387 
Q 3406 4025 3406 3419 
Q 3406 3131 3298 2873 
Q 3191 2616 2906 2266 
Q 2828 2175 2409 1742 
Q 1991 1309 1228 531 
z
" transform="scale(0.015625)"/>
       </defs>
       <use xlink:href="#DejaVuSans-32"/>
      </g>
     </g>
    </g>
    <g id="xtick_3">
     <g id="line2d_5">
      <path d="M 196.279929 78.7975 
L 196.279929 28.32 
" clip-path="url(#peafa0b2cb0)" style="fill: none; stroke: #b0b0b0; stroke-width: 0.8; stroke-linecap: square"/>
     </g>
     <g id="line2d_6">
      <g>
       <use xlink:href="#mdc619541ea" x="196.279929" y="78.7975" style="stroke: #000000; stroke-width: 0.8"/>
      </g>
     </g>
     <g id="text_3">
      <!-- 4 -->
      <g transform="translate(193.098679 93.395937)scale(0.1 -0.1)">
       <defs>
        <path id="DejaVuSans-34" d="M 2419 4116 
L 825 1625 
L 2419 1625 
L 2419 4116 
z
M 2253 4666 
L 3047 4666 
L 3047 1625 
L 3713 1625 
L 3713 1100 
L 3047 1100 
L 3047 0 
L 2419 0 
L 2419 1100 
L 313 1100 
L 313 1709 
L 2253 4666 
z
" transform="scale(0.015625)"/>
       </defs>
       <use xlink:href="#DejaVuSans-34"/>
      </g>
     </g>
    </g>
    <g id="xtick_4">
     <g id="line2d_7">
      <path d="M 256.460211 78.7975 
L 256.460211 28.32 
" clip-path="url(#peafa0b2cb0)" style="fill: none; stroke: #b0b0b0; stroke-width: 0.8; stroke-linecap: square"/>
     </g>
     <g id="line2d_8">
      <g>
       <use xlink:href="#mdc619541ea" x="256.460211" y="78.7975" style="stroke: #000000; stroke-width: 0.8"/>
      </g>
     </g>
     <g id="text_4">
      <!-- 6 -->
      <g transform="translate(253.278961 93.395937)scale(0.1 -0.1)">
       <defs>
        <path id="DejaVuSans-36" d="M 2113 2584 
Q 1688 2584 1439 2293 
Q 1191 2003 1191 1497 
Q 1191 994 1439 701 
Q 1688 409 2113 409 
Q 2538 409 2786 701 
Q 3034 994 3034 1497 
Q 3034 2003 2786 2293 
Q 2538 2584 2113 2584 
z
M 3366 4563 
L 3366 3988 
Q 3128 4100 2886 4159 
Q 2644 4219 2406 4219 
Q 1781 4219 1451 3797 
Q 1122 3375 1075 2522 
Q 1259 2794 1537 2939 
Q 1816 3084 2150 3084 
Q 2853 3084 3261 2657 
Q 3669 2231 3669 1497 
Q 3669 778 3244 343 
Q 2819 -91 2113 -91 
Q 1303 -91 875 529 
Q 447 1150 447 2328 
Q 447 3434 972 4092 
Q 1497 4750 2381 4750 
Q 2619 4750 2861 4703 
Q 3103 4656 3366 4563 
z
" transform="scale(0.015625)"/>
       </defs>
       <use xlink:href="#DejaVuSans-36"/>
      </g>
     </g>
    </g>
    <g id="xtick_5">
     <g id="line2d_9">
      <path d="M 316.640494 78.7975 
L 316.640494 28.32 
" clip-path="url(#peafa0b2cb0)" style="fill: none; stroke: #b0b0b0; stroke-width: 0.8; stroke-linecap: square"/>
     </g>
     <g id="line2d_10">
      <g>
       <use xlink:href="#mdc619541ea" x="316.640494" y="78.7975" style="stroke: #000000; stroke-width: 0.8"/>
      </g>
     </g>
     <g id="text_5">
      <!-- 8 -->
      <g transform="translate(313.459244 93.395937)scale(0.1 -0.1)">
       <defs>
        <path id="DejaVuSans-38" d="M 2034 2216 
Q 1584 2216 1326 1975 
Q 1069 1734 1069 1313 
Q 1069 891 1326 650 
Q 1584 409 2034 409 
Q 2484 409 2743 651 
Q 3003 894 3003 1313 
Q 3003 1734 2745 1975 
Q 2488 2216 2034 2216 
z
M 1403 2484 
Q 997 2584 770 2862 
Q 544 3141 544 3541 
Q 544 4100 942 4425 
Q 1341 4750 2034 4750 
Q 2731 4750 3128 4425 
Q 3525 4100 3525 3541 
Q 3525 3141 3298 2862 
Q 3072 2584 2669 2484 
Q 3125 2378 3379 2068 
Q 3634 1759 3634 1313 
Q 3634 634 3220 271 
Q 2806 -91 2034 -91 
Q 1263 -91 848 271 
Q 434 634 434 1313 
Q 434 1759 690 2068 
Q 947 2378 1403 2484 
z
M 1172 3481 
Q 1172 3119 1398 2916 
Q 1625 2713 2034 2713 
Q 2441 2713 2670 2916 
Q 2900 3119 2900 3481 
Q 2900 3844 2670 4047 
Q 2441 4250 2034 4250 
Q 1625 4250 1398 4047 
Q 1172 3844 1172 3481 
z
" transform="scale(0.015625)"/>
       </defs>
       <use xlink:href="#DejaVuSans-38"/>
      </g>
     </g>
    </g>
    <g id="xtick_6">
     <g id="line2d_11">
      <path d="M 376.820776 78.7975 
L 376.820776 28.32 
" clip-path="url(#peafa0b2cb0)" style="fill: none; stroke: #b0b0b0; stroke-width: 0.8; stroke-linecap: square"/>
     </g>
     <g id="line2d_12">
      <g>
       <use xlink:href="#mdc619541ea" x="376.820776" y="78.7975" style="stroke: #000000; stroke-width: 0.8"/>
      </g>
     </g>
     <g id="text_6">
      <!-- 10 -->
      <g transform="translate(370.458276 93.395937)scale(0.1 -0.1)">
       <defs>
        <path id="DejaVuSans-31" d="M 794 531 
L 1825 531 
L 1825 4091 
L 703 3866 
L 703 4441 
L 1819 4666 
L 2450 4666 
L 2450 531 
L 3481 531 
L 3481 0 
L 794 0 
L 794 531 
z
" transform="scale(0.015625)"/>
       </defs>
       <use xlink:href="#DejaVuSans-31"/>
       <use xlink:href="#DejaVuSans-30" x="63.623047"/>
      </g>
     </g>
    </g>
    <g id="xtick_7">
     <g id="line2d_13">
      <path d="M 437.001059 78.7975 
L 437.001059 28.32 
" clip-path="url(#peafa0b2cb0)" style="fill: none; stroke: #b0b0b0; stroke-width: 0.8; stroke-linecap: square"/>
     </g>
     <g id="line2d_14">
      <g>
       <use xlink:href="#mdc619541ea" x="437.001059" y="78.7975" style="stroke: #000000; stroke-width: 0.8"/>
      </g>
     </g>
     <g id="text_7">
      <!-- 12 -->
      <g transform="translate(430.638559 93.395937)scale(0.1 -0.1)">
       <use xlink:href="#DejaVuSans-31"/>
       <use xlink:href="#DejaVuSans-32" x="63.623047"/>
      </g>
     </g>
    </g>
    <g id="text_8">
     <!-- $t$ [s] -->
     <g transform="translate(243.953 107.074062)scale(0.1 -0.1)">
      <defs>
       <path id="DejaVuSans-Oblique-74" d="M 2706 3500 
L 2619 3053 
L 1472 3053 
L 1100 1153 
Q 1081 1047 1072 975 
Q 1063 903 1063 863 
Q 1063 663 1183 572 
Q 1303 481 1569 481 
L 2150 481 
L 2053 0 
L 1503 0 
Q 991 0 739 200 
Q 488 400 488 806 
Q 488 878 497 964 
Q 506 1050 525 1153 
L 897 3053 
L 409 3053 
L 500 3500 
L 978 3500 
L 1172 4494 
L 1747 4494 
L 1556 3500 
L 2706 3500 
z
" transform="scale(0.015625)"/>
       <path id="DejaVuSans-20" transform="scale(0.015625)"/>
       <path id="DejaVuSans-5b" d="M 550 4863 
L 1875 4863 
L 1875 4416 
L 1125 4416 
L 1125 -397 
L 1875 -397 
L 1875 -844 
L 550 -844 
L 550 4863 
z
" transform="scale(0.015625)"/>
       <path id="DejaVuSans-73" d="M 2834 3397 
L 2834 2853 
Q 2591 2978 2328 3040 
Q 2066 3103 1784 3103 
Q 1356 3103 1142 2972 
Q 928 2841 928 2578 
Q 928 2378 1081 2264 
Q 1234 2150 1697 2047 
L 1894 2003 
Q 2506 1872 2764 1633 
Q 3022 1394 3022 966 
Q 3022 478 2636 193 
Q 2250 -91 1575 -91 
Q 1294 -91 989 -36 
Q 684 19 347 128 
L 347 722 
Q 666 556 975 473 
Q 1284 391 1588 391 
Q 1994 391 2212 530 
Q 2431 669 2431 922 
Q 2431 1156 2273 1281 
Q 2116 1406 1581 1522 
L 1381 1569 
Q 847 1681 609 1914 
Q 372 2147 372 2553 
Q 372 3047 722 3315 
Q 1072 3584 1716 3584 
Q 2034 3584 2315 3537 
Q 2597 3491 2834 3397 
z
" transform="scale(0.015625)"/>
       <path id="DejaVuSans-5d" d="M 1947 4863 
L 1947 -844 
L 622 -844 
L 622 -397 
L 1369 -397 
L 1369 4416 
L 622 4416 
L 622 4863 
L 1947 4863 
z
" transform="scale(0.015625)"/>
      </defs>
      <use xlink:href="#DejaVuSans-Oblique-74" transform="translate(0 0.015625)"/>
      <use xlink:href="#DejaVuSans-20" transform="translate(39.208984 0.015625)"/>
      <use xlink:href="#DejaVuSans-5b" transform="translate(70.996094 0.015625)"/>
      <use xlink:href="#DejaVuSans-73" transform="translate(110.009766 0.015625)"/>
      <use xlink:href="#DejaVuSans-5d" transform="translate(162.109375 0.015625)"/>
     </g>
    </g>
   </g>
   <g id="matplotlib.axis_2">
    <g id="ytick_1">
     <g id="line2d_15">
      <path d="M 58.106 76.732289 
L 450 76.732289 
" clip-path="url(#peafa0b2cb0)" style="fill: none; stroke: #b0b0b0; stroke-width: 0.8; stroke-linecap: square"/>
     </g>
     <g id="line2d_16">
      <defs>
       <path id="m68d9b4cdcc" d="M 0 0 
L -3.5 0 
" style="stroke: #000000; stroke-width: 0.8"/>
      </defs>
      <g>
       <use xlink:href="#m68d9b4cdcc" x="58.106" y="76.732289" style="stroke: #000000; stroke-width: 0.8"/>
      </g>
     </g>
     <g id="text_9">
      <!-- 0 -->
      <g transform="translate(44.7435 80.531508)scale(0.1 -0.1)">
       <use xlink:href="#DejaVuSans-30"/>
      </g>
     </g>
    </g>
    <g id="ytick_2">
     <g id="line2d_17">
      <path d="M 58.106 30.614414 
L 450 30.614414 
" clip-path="url(#peafa0b2cb0)" style="fill: none; stroke: #b0b0b0; stroke-width: 0.8; stroke-linecap: square"/>
     </g>
     <g id="line2d_18">
      <g>
       <use xlink:href="#m68d9b4cdcc" x="58.106" y="30.614414" style="stroke: #000000; stroke-width: 0.8"/>
      </g>
     </g>
     <g id="text_10">
      <!-- 10 -->
      <g transform="translate(38.381 34.413633)scale(0.1 -0.1)">
       <use xlink:href="#DejaVuSans-31"/>
       <use xlink:href="#DejaVuSans-30" x="63.623047"/>
      </g>
     </g>
    </g>
    <g id="text_11">
     <!-- $e_x$ [m] -->
     <g transform="translate(32.301313 69.20875)rotate(-90)scale(0.1 -0.1)">
      <defs>
       <path id="DejaVuSans-Oblique-65" d="M 3078 2063 
Q 3088 2113 3092 2166 
Q 3097 2219 3097 2272 
Q 3097 2653 2873 2875 
Q 2650 3097 2266 3097 
Q 1838 3097 1509 2826 
Q 1181 2556 1013 2059 
L 3078 2063 
z
M 3578 1613 
L 903 1613 
Q 884 1494 878 1425 
Q 872 1356 872 1306 
Q 872 872 1139 634 
Q 1406 397 1894 397 
Q 2269 397 2603 481 
Q 2938 566 3225 728 
L 3116 159 
Q 2806 34 2476 -28 
Q 2147 -91 1806 -91 
Q 1078 -91 686 257 
Q 294 606 294 1247 
Q 294 1794 489 2264 
Q 684 2734 1063 3103 
Q 1306 3334 1642 3459 
Q 1978 3584 2356 3584 
Q 2950 3584 3301 3228 
Q 3653 2872 3653 2272 
Q 3653 2128 3634 1964 
Q 3616 1800 3578 1613 
z
" transform="scale(0.015625)"/>
       <path id="DejaVuSans-Oblique-78" d="M 3841 3500 
L 2234 1784 
L 3219 0 
L 2559 0 
L 1819 1388 
L 531 0 
L -166 0 
L 1556 1844 
L 641 3500 
L 1300 3500 
L 1972 2234 
L 3144 3500 
L 3841 3500 
z
" transform="scale(0.015625)"/>
       <path id="DejaVuSans-6d" d="M 3328 2828 
Q 3544 3216 3844 3400 
Q 4144 3584 4550 3584 
Q 5097 3584 5394 3201 
Q 5691 2819 5691 2113 
L 5691 0 
L 5113 0 
L 5113 2094 
Q 5113 2597 4934 2840 
Q 4756 3084 4391 3084 
Q 3944 3084 3684 2787 
Q 3425 2491 3425 1978 
L 3425 0 
L 2847 0 
L 2847 2094 
Q 2847 2600 2669 2842 
Q 2491 3084 2119 3084 
Q 1678 3084 1418 2786 
Q 1159 2488 1159 1978 
L 1159 0 
L 581 0 
L 581 3500 
L 1159 3500 
L 1159 2956 
Q 1356 3278 1631 3431 
Q 1906 3584 2284 3584 
Q 2666 3584 2933 3390 
Q 3200 3197 3328 2828 
z
" transform="scale(0.015625)"/>
      </defs>
      <use xlink:href="#DejaVuSans-Oblique-65" transform="translate(0 0.015625)"/>
      <use xlink:href="#DejaVuSans-Oblique-78" transform="translate(61.523438 -16.390625)scale(0.7)"/>
      <use xlink:href="#DejaVuSans-20" transform="translate(105.683594 0.015625)"/>
      <use xlink:href="#DejaVuSans-5b" transform="translate(137.470703 0.015625)"/>
      <use xlink:href="#DejaVuSans-6d" transform="translate(176.484375 0.015625)"/>
      <use xlink:href="#DejaVuSans-5d" transform="translate(273.896484 0.015625)"/>
     </g>
    </g>
   </g>
   <g id="line2d_19">
    <path d="M 75.919364 30.614432 
L 82.544791 30.718171 
L 91.880619 31.136474 
L 97.000267 31.519117 
L 109.046498 33.172572 
L 109.64881 33.322153 
L 112.359211 33.805206 
L 113.563835 34.047275 
L 115.973081 34.519359 
L 116.575392 34.612903 
L 118.683483 35.034601 
L 120.189261 35.39206 
L 120.490417 35.39206 
L 120.791573 35.568144 
L 121.69504 35.719977 
L 121.996196 35.844528 
L 122.297352 35.844528 
L 122.598508 36.0359 
L 123.501975 36.198895 
L 124.405442 36.498123 
L 126.513533 37.105308 
L 127.115844 37.206316 
L 128.019311 37.507914 
L 129.223934 37.84077 
L 129.52509 37.84077 
L 129.826246 38.039848 
L 130.729713 38.205605 
L 131.030869 38.338148 
L 131.332025 38.338148 
L 131.633181 38.536719 
L 132.536648 38.70176 
L 133.440115 38.99713 
L 135.548206 39.579308 
L 136.150517 39.675245 
L 137.053984 39.961258 
L 138.860919 40.461923 
L 139.764386 40.61595 
L 140.667854 40.920418 
L 141.571321 41.071022 
L 142.474788 41.339933 
L 144.582879 41.872126 
L 145.18519 41.96019 
L 146.389813 42.309968 
L 146.992125 42.396686 
L 147.895592 42.683491 
L 148.799059 42.825674 
L 149.100215 42.967176 
L 149.401371 42.967176 
L 150.304838 43.192464 
L 152.412929 43.667683 
L 153.316396 43.944001 
L 154.521019 44.135052 
L 157.231421 44.772451 
L 159.640667 45.262444 
L 159.941823 45.389968 
L 160.544134 45.491574 
L 163.254536 46.019551 
L 163.555692 46.144641 
L 164.158003 46.244782 
L 166.868405 46.770624 
L 168.073028 47.066989 
L 168.976496 47.237019 
L 171.385742 47.714296 
L 173.794988 48.20909 
L 174.3973 48.302416 
L 176.806546 48.767214 
L 179.215792 49.254517 
L 180.119259 49.345985 
L 180.721571 49.504246 
L 183.733128 50.06471 
L 186.142374 50.532629 
L 187.045842 50.720986 
L 190.057399 51.27166 
L 191.262023 51.522503 
L 193.671269 51.970404 
L 195.779359 52.375292 
L 196.682826 52.608757 
L 197.586294 52.72412 
L 198.790917 52.976807 
L 201.200163 53.417294 
L 202.404786 53.696901 
L 203.308253 53.858621 
L 205.717499 54.332638 
L 206.620967 54.443524 
L 207.223278 54.554194 
L 208.126745 54.731466 
L 210.234836 55.110586 
L 211.740615 55.444277 
L 212.644082 55.532132 
L 213.246394 55.684257 
L 216.257951 56.178457 
L 216.860263 56.331002 
L 219.570665 56.814591 
L 220.474132 56.987196 
L 222.883378 57.40749 
L 223.786845 57.576073 
L 226.497247 58.052976 
L 227.400715 58.227394 
L 230.111116 58.692546 
L 231.014584 58.859097 
L 233.122674 59.177276 
L 233.724986 59.32901 
L 236.134232 59.760425 
L 237.037699 59.927342 
L 240.350413 60.463707 
L 241.555036 60.696742 
L 244.566593 61.178309 
L 245.168905 61.317738 
L 248.180463 61.785641 
L 249.08393 61.946329 
L 251.794332 62.402874 
L 252.697799 62.566395 
L 257.215136 63.265913 
L 258.720914 63.536168 
L 261.732472 64.057625 
L 262.334784 64.135326 
L 266.550964 64.771796 
L 271.068301 65.495182 
L 277.994884 66.464833 
L 279.199507 66.644768 
L 283.415687 67.248188 
L 284.62031 67.405585 
L 288.23418 67.89134 
L 291.848049 68.38507 
L 293.353828 68.59971 
L 294.558451 68.752563 
L 297.871164 69.182188 
L 298.473476 69.277628 
L 299.979255 69.43241 
L 301.485033 69.65464 
L 302.388501 69.742352 
L 306.604681 70.264208 
L 309.917395 70.685663 
L 313.83242 71.155101 
L 318.650912 71.793362 
L 319.855535 71.893512 
L 320.457847 71.99406 
L 324.071716 72.45151 
L 330.697143 73.220082 
L 331.299454 73.320251 
L 335.515635 73.828624 
L 339.129504 74.248979 
L 340.936439 74.423904 
L 345.453775 74.915459 
L 347.26071 75.11939 
L 348.465333 75.205634 
L 353.283825 75.59859 
L 367.136991 76.279345 
L 371.353171 76.386065 
L 378.58091 76.426485 
L 387.314427 76.32532 
L 396.047944 76.100362 
L 414.719602 75.801993 
L 419.83925 75.911344 
L 425.260054 76.173845 
L 427.970456 76.34311 
L 432.186636 76.503068 
L 432.186636 76.503068 
" clip-path="url(#peafa0b2cb0)" style="fill: none; stroke: #ff0000; stroke-width: 1.5; stroke-linecap: square"/>
   </g>
   <g id="patch_3">
    <path d="M 58.106 78.7975 
L 58.106 28.32 
" style="fill: none; stroke: #000000; stroke-width: 0.8; stroke-linejoin: miter; stroke-linecap: square"/>
   </g>
   <g id="patch_4">
    <path d="M 450 78.7975 
L 450 28.32 
" style="fill: none; stroke: #000000; stroke-width: 0.8; stroke-linejoin: miter; stroke-linecap: square"/>
   </g>
   <g id="patch_5">
    <path d="M 58.106 78.7975 
L 450 78.7975 
" style="fill: none; stroke: #000000; stroke-width: 0.8; stroke-linejoin: miter; stroke-linecap: square"/>
   </g>
   <g id="patch_6">
    <path d="M 58.106 28.32 
L 450 28.32 
" style="fill: none; stroke: #000000; stroke-width: 0.8; stroke-linejoin: miter; stroke-linecap: square"/>
   </g>
   <g id="text_12">
    <!-- Error in $x$-position -->
    <g transform="translate(200.413 22.32)scale(0.12 -0.12)">
     <defs>
      <path id="DejaVuSans-45" d="M 628 4666 
L 3578 4666 
L 3578 4134 
L 1259 4134 
L 1259 2753 
L 3481 2753 
L 3481 2222 
L 1259 2222 
L 1259 531 
L 3634 531 
L 3634 0 
L 628 0 
L 628 4666 
z
" transform="scale(0.015625)"/>
      <path id="DejaVuSans-72" d="M 2631 2963 
Q 2534 3019 2420 3045 
Q 2306 3072 2169 3072 
Q 1681 3072 1420 2755 
Q 1159 2438 1159 1844 
L 1159 0 
L 581 0 
L 581 3500 
L 1159 3500 
L 1159 2956 
Q 1341 3275 1631 3429 
Q 1922 3584 2338 3584 
Q 2397 3584 2469 3576 
Q 2541 3569 2628 3553 
L 2631 2963 
z
" transform="scale(0.015625)"/>
      <path id="DejaVuSans-6f" d="M 1959 3097 
Q 1497 3097 1228 2736 
Q 959 2375 959 1747 
Q 959 1119 1226 758 
Q 1494 397 1959 397 
Q 2419 397 2687 759 
Q 2956 1122 2956 1747 
Q 2956 2369 2687 2733 
Q 2419 3097 1959 3097 
z
M 1959 3584 
Q 2709 3584 3137 3096 
Q 3566 2609 3566 1747 
Q 3566 888 3137 398 
Q 2709 -91 1959 -91 
Q 1206 -91 779 398 
Q 353 888 353 1747 
Q 353 2609 779 3096 
Q 1206 3584 1959 3584 
z
" transform="scale(0.015625)"/>
      <path id="DejaVuSans-69" d="M 603 3500 
L 1178 3500 
L 1178 0 
L 603 0 
L 603 3500 
z
M 603 4863 
L 1178 4863 
L 1178 4134 
L 603 4134 
L 603 4863 
z
" transform="scale(0.015625)"/>
      <path id="DejaVuSans-6e" d="M 3513 2113 
L 3513 0 
L 2938 0 
L 2938 2094 
Q 2938 2591 2744 2837 
Q 2550 3084 2163 3084 
Q 1697 3084 1428 2787 
Q 1159 2491 1159 1978 
L 1159 0 
L 581 0 
L 581 3500 
L 1159 3500 
L 1159 2956 
Q 1366 3272 1645 3428 
Q 1925 3584 2291 3584 
Q 2894 3584 3203 3211 
Q 3513 2838 3513 2113 
z
" transform="scale(0.015625)"/>
      <path id="DejaVuSans-2d" d="M 313 2009 
L 1997 2009 
L 1997 1497 
L 313 1497 
L 313 2009 
z
" transform="scale(0.015625)"/>
      <path id="DejaVuSans-70" d="M 1159 525 
L 1159 -1331 
L 581 -1331 
L 581 3500 
L 1159 3500 
L 1159 2969 
Q 1341 3281 1617 3432 
Q 1894 3584 2278 3584 
Q 2916 3584 3314 3078 
Q 3713 2572 3713 1747 
Q 3713 922 3314 415 
Q 2916 -91 2278 -91 
Q 1894 -91 1617 61 
Q 1341 213 1159 525 
z
M 3116 1747 
Q 3116 2381 2855 2742 
Q 2594 3103 2138 3103 
Q 1681 3103 1420 2742 
Q 1159 2381 1159 1747 
Q 1159 1113 1420 752 
Q 1681 391 2138 391 
Q 2594 391 2855 752 
Q 3116 1113 3116 1747 
z
" transform="scale(0.015625)"/>
      <path id="DejaVuSans-74" d="M 1172 4494 
L 1172 3500 
L 2356 3500 
L 2356 3053 
L 1172 3053 
L 1172 1153 
Q 1172 725 1289 603 
Q 1406 481 1766 481 
L 2356 481 
L 2356 0 
L 1766 0 
Q 1100 0 847 248 
Q 594 497 594 1153 
L 594 3053 
L 172 3053 
L 172 3500 
L 594 3500 
L 594 4494 
L 1172 4494 
z
" transform="scale(0.015625)"/>
     </defs>
     <use xlink:href="#DejaVuSans-45" transform="translate(0 0.015625)"/>
     <use xlink:href="#DejaVuSans-72" transform="translate(63.183594 0.015625)"/>
     <use xlink:href="#DejaVuSans-72" transform="translate(104.296875 0.015625)"/>
     <use xlink:href="#DejaVuSans-6f" transform="translate(145.410156 0.015625)"/>
     <use xlink:href="#DejaVuSans-72" transform="translate(206.591797 0.015625)"/>
     <use xlink:href="#DejaVuSans-20" transform="translate(247.705078 0.015625)"/>
     <use xlink:href="#DejaVuSans-69" transform="translate(279.492188 0.015625)"/>
     <use xlink:href="#DejaVuSans-6e" transform="translate(307.275391 0.015625)"/>
     <use xlink:href="#DejaVuSans-20" transform="translate(370.654297 0.015625)"/>
     <use xlink:href="#DejaVuSans-Oblique-78" transform="translate(402.441406 0.015625)"/>
     <use xlink:href="#DejaVuSans-2d" transform="translate(461.621094 0.015625)"/>
     <use xlink:href="#DejaVuSans-70" transform="translate(497.705078 0.015625)"/>
     <use xlink:href="#DejaVuSans-6f" transform="translate(561.181641 0.015625)"/>
     <use xlink:href="#DejaVuSans-73" transform="translate(622.363281 0.015625)"/>
     <use xlink:href="#DejaVuSans-69" transform="translate(674.462891 0.015625)"/>
     <use xlink:href="#DejaVuSans-74" transform="translate(702.246094 0.015625)"/>
     <use xlink:href="#DejaVuSans-69" transform="translate(741.455078 0.015625)"/>
     <use xlink:href="#DejaVuSans-6f" transform="translate(769.238281 0.015625)"/>
     <use xlink:href="#DejaVuSans-6e" transform="translate(830.419922 0.015625)"/>
    </g>
   </g>
  </g>
  <g id="axes_2">
   <g id="patch_7">
    <path d="M 58.106 190.3975 
L 450 190.3975 
L 450 139.92 
L 58.106 139.92 
z
" style="fill: #ffffff"/>
   </g>
   <g id="matplotlib.axis_3">
    <g id="xtick_8">
     <g id="line2d_20">
      <path d="M 75.919364 190.3975 
L 75.919364 139.92 
" clip-path="url(#paced20cffa)" style="fill: none; stroke: #b0b0b0; stroke-width: 0.8; stroke-linecap: square"/>
     </g>
     <g id="line2d_21">
      <g>
       <use xlink:href="#mdc619541ea" x="75.919364" y="190.3975" style="stroke: #000000; stroke-width: 0.8"/>
      </g>
     </g>
     <g id="text_13">
      <!-- 0 -->
      <g transform="translate(72.738114 204.995937)scale(0.1 -0.1)">
       <use xlink:href="#DejaVuSans-30"/>
      </g>
     </g>
    </g>
    <g id="xtick_9">
     <g id="line2d_22">
      <path d="M 136.099646 190.3975 
L 136.099646 139.92 
" clip-path="url(#paced20cffa)" style="fill: none; stroke: #b0b0b0; stroke-width: 0.8; stroke-linecap: square"/>
     </g>
     <g id="line2d_23">
      <g>
       <use xlink:href="#mdc619541ea" x="136.099646" y="190.3975" style="stroke: #000000; stroke-width: 0.8"/>
      </g>
     </g>
     <g id="text_14">
      <!-- 2 -->
      <g transform="translate(132.918396 204.995937)scale(0.1 -0.1)">
       <use xlink:href="#DejaVuSans-32"/>
      </g>
     </g>
    </g>
    <g id="xtick_10">
     <g id="line2d_24">
      <path d="M 196.279929 190.3975 
L 196.279929 139.92 
" clip-path="url(#paced20cffa)" style="fill: none; stroke: #b0b0b0; stroke-width: 0.8; stroke-linecap: square"/>
     </g>
     <g id="line2d_25">
      <g>
       <use xlink:href="#mdc619541ea" x="196.279929" y="190.3975" style="stroke: #000000; stroke-width: 0.8"/>
      </g>
     </g>
     <g id="text_15">
      <!-- 4 -->
      <g transform="translate(193.098679 204.995937)scale(0.1 -0.1)">
       <use xlink:href="#DejaVuSans-34"/>
      </g>
     </g>
    </g>
    <g id="xtick_11">
     <g id="line2d_26">
      <path d="M 256.460211 190.3975 
L 256.460211 139.92 
" clip-path="url(#paced20cffa)" style="fill: none; stroke: #b0b0b0; stroke-width: 0.8; stroke-linecap: square"/>
     </g>
     <g id="line2d_27">
      <g>
       <use xlink:href="#mdc619541ea" x="256.460211" y="190.3975" style="stroke: #000000; stroke-width: 0.8"/>
      </g>
     </g>
     <g id="text_16">
      <!-- 6 -->
      <g transform="translate(253.278961 204.995937)scale(0.1 -0.1)">
       <use xlink:href="#DejaVuSans-36"/>
      </g>
     </g>
    </g>
    <g id="xtick_12">
     <g id="line2d_28">
      <path d="M 316.640494 190.3975 
L 316.640494 139.92 
" clip-path="url(#paced20cffa)" style="fill: none; stroke: #b0b0b0; stroke-width: 0.8; stroke-linecap: square"/>
     </g>
     <g id="line2d_29">
      <g>
       <use xlink:href="#mdc619541ea" x="316.640494" y="190.3975" style="stroke: #000000; stroke-width: 0.8"/>
      </g>
     </g>
     <g id="text_17">
      <!-- 8 -->
      <g transform="translate(313.459244 204.995937)scale(0.1 -0.1)">
       <use xlink:href="#DejaVuSans-38"/>
      </g>
     </g>
    </g>
    <g id="xtick_13">
     <g id="line2d_30">
      <path d="M 376.820776 190.3975 
L 376.820776 139.92 
" clip-path="url(#paced20cffa)" style="fill: none; stroke: #b0b0b0; stroke-width: 0.8; stroke-linecap: square"/>
     </g>
     <g id="line2d_31">
      <g>
       <use xlink:href="#mdc619541ea" x="376.820776" y="190.3975" style="stroke: #000000; stroke-width: 0.8"/>
      </g>
     </g>
     <g id="text_18">
      <!-- 10 -->
      <g transform="translate(370.458276 204.995937)scale(0.1 -0.1)">
       <use xlink:href="#DejaVuSans-31"/>
       <use xlink:href="#DejaVuSans-30" x="63.623047"/>
      </g>
     </g>
    </g>
    <g id="xtick_14">
     <g id="line2d_32">
      <path d="M 437.001059 190.3975 
L 437.001059 139.92 
" clip-path="url(#paced20cffa)" style="fill: none; stroke: #b0b0b0; stroke-width: 0.8; stroke-linecap: square"/>
     </g>
     <g id="line2d_33">
      <g>
       <use xlink:href="#mdc619541ea" x="437.001059" y="190.3975" style="stroke: #000000; stroke-width: 0.8"/>
      </g>
     </g>
     <g id="text_19">
      <!-- 12 -->
      <g transform="translate(430.638559 204.995937)scale(0.1 -0.1)">
       <use xlink:href="#DejaVuSans-31"/>
       <use xlink:href="#DejaVuSans-32" x="63.623047"/>
      </g>
     </g>
    </g>
    <g id="text_20">
     <!-- $t$ [s] -->
     <g transform="translate(243.953 218.674062)scale(0.1 -0.1)">
      <use xlink:href="#DejaVuSans-Oblique-74" transform="translate(0 0.015625)"/>
      <use xlink:href="#DejaVuSans-20" transform="translate(39.208984 0.015625)"/>
      <use xlink:href="#DejaVuSans-5b" transform="translate(70.996094 0.015625)"/>
      <use xlink:href="#DejaVuSans-73" transform="translate(110.009766 0.015625)"/>
      <use xlink:href="#DejaVuSans-5d" transform="translate(162.109375 0.015625)"/>
     </g>
    </g>
   </g>
   <g id="matplotlib.axis_4">
    <g id="ytick_3">
     <g id="line2d_34">
      <path d="M 58.106 181.317891 
L 450 181.317891 
" clip-path="url(#paced20cffa)" style="fill: none; stroke: #b0b0b0; stroke-width: 0.8; stroke-linecap: square"/>
     </g>
     <g id="line2d_35">
      <g>
       <use xlink:href="#m68d9b4cdcc" x="58.106" y="181.317891" style="stroke: #000000; stroke-width: 0.8"/>
      </g>
     </g>
     <g id="text_21">
      <!-- −0.1 -->
      <g transform="translate(26.823188 185.11711)scale(0.1 -0.1)">
       <defs>
        <path id="DejaVuSans-2212" d="M 678 2272 
L 4684 2272 
L 4684 1741 
L 678 1741 
L 678 2272 
z
" transform="scale(0.015625)"/>
        <path id="DejaVuSans-2e" d="M 684 794 
L 1344 794 
L 1344 0 
L 684 0 
L 684 794 
z
" transform="scale(0.015625)"/>
       </defs>
       <use xlink:href="#DejaVuSans-2212"/>
       <use xlink:href="#DejaVuSans-30" x="83.789062"/>
       <use xlink:href="#DejaVuSans-2e" x="147.412109"/>
       <use xlink:href="#DejaVuSans-31" x="179.199219"/>
      </g>
     </g>
    </g>
    <g id="ytick_4">
     <g id="line2d_36">
      <path d="M 58.106 165.600342 
L 450 165.600342 
" clip-path="url(#paced20cffa)" style="fill: none; stroke: #b0b0b0; stroke-width: 0.8; stroke-linecap: square"/>
     </g>
     <g id="line2d_37">
      <g>
       <use xlink:href="#m68d9b4cdcc" x="58.106" y="165.600342" style="stroke: #000000; stroke-width: 0.8"/>
      </g>
     </g>
     <g id="text_22">
      <!-- 0.0 -->
      <g transform="translate(35.202875 169.399561)scale(0.1 -0.1)">
       <use xlink:href="#DejaVuSans-30"/>
       <use xlink:href="#DejaVuSans-2e" x="63.623047"/>
       <use xlink:href="#DejaVuSans-30" x="95.410156"/>
      </g>
     </g>
    </g>
    <g id="ytick_5">
     <g id="line2d_38">
      <path d="M 58.106 149.882793 
L 450 149.882793 
" clip-path="url(#paced20cffa)" style="fill: none; stroke: #b0b0b0; stroke-width: 0.8; stroke-linecap: square"/>
     </g>
     <g id="line2d_39">
      <g>
       <use xlink:href="#m68d9b4cdcc" x="58.106" y="149.882793" style="stroke: #000000; stroke-width: 0.8"/>
      </g>
     </g>
     <g id="text_23">
      <!-- 0.1 -->
      <g transform="translate(35.202875 153.682011)scale(0.1 -0.1)">
       <use xlink:href="#DejaVuSans-30"/>
       <use xlink:href="#DejaVuSans-2e" x="63.623047"/>
       <use xlink:href="#DejaVuSans-31" x="95.410156"/>
      </g>
     </g>
    </g>
    <g id="text_24">
     <!-- $e_z$ [m] -->
     <g transform="translate(20.7435 180.60875)rotate(-90)scale(0.1 -0.1)">
      <defs>
       <path id="DejaVuSans-Oblique-7a" d="M 744 3500 
L 3475 3500 
L 3372 2975 
L 738 459 
L 2913 459 
L 2822 0 
L -19 0 
L 84 525 
L 2719 3041 
L 653 3041 
L 744 3500 
z
" transform="scale(0.015625)"/>
      </defs>
      <use xlink:href="#DejaVuSans-Oblique-65" transform="translate(0 0.015625)"/>
      <use xlink:href="#DejaVuSans-Oblique-7a" transform="translate(61.523438 -16.390625)scale(0.7)"/>
      <use xlink:href="#DejaVuSans-20" transform="translate(101.000977 0.015625)"/>
      <use xlink:href="#DejaVuSans-5b" transform="translate(132.788086 0.015625)"/>
      <use xlink:href="#DejaVuSans-6d" transform="translate(171.801758 0.015625)"/>
      <use xlink:href="#DejaVuSans-5d" transform="translate(269.213867 0.015625)"/>
     </g>
    </g>
   </g>
   <g id="line2d_40">
    <path d="M 75.919364 167.068552 
L 76.521675 166.976295 
L 77.123987 166.714496 
L 77.726298 166.482168 
L 78.32861 166.232656 
L 79.533233 166.095098 
L 81.641323 166.27433 
L 82.544791 166.07215 
L 83.147102 165.83598 
L 84.954037 164.399886 
L 85.255192 164.021797 
L 86.459815 163.251351 
L 87.062127 162.690985 
L 87.363283 162.690985 
L 87.965594 161.96647 
L 88.869062 160.4602 
L 89.170217 160.4602 
L 89.471373 159.650102 
L 89.772529 159.230865 
L 90.675996 157.329405 
L 90.977152 157.329405 
L 91.278308 156.557643 
L 92.482931 155.040615 
L 92.784087 155.040615 
L 93.085242 154.739731 
L 94.289865 154.435438 
L 95.494489 154.492015 
L 97.301423 154.953111 
L 97.903735 155.100805 
L 99.409513 155.340147 
L 100.011825 155.274507 
L 101.81876 154.242342 
L 102.722227 152.92579 
L 103.023383 152.777201 
L 103.625694 152.171882 
L 103.92685 151.582192 
L 104.529162 150.926212 
L 104.830317 150.600302 
L 105.432629 150.334782 
L 105.733785 150.075122 
L 106.03494 150.075122 
L 106.336096 149.839631 
L 107.239563 149.700989 
L 108.143031 149.422561 
L 108.444187 149.332485 
L 108.745342 149.123097 
L 109.046498 149.123097 
L 109.347654 148.749846 
L 109.949965 148.543622 
L 110.251121 148.400843 
L 110.552277 148.030625 
L 110.853433 148.030625 
L 111.455744 147.566046 
L 112.359211 147.014413 
L 112.961523 146.570084 
L 113.563835 146.213527 
L 113.86499 145.998585 
L 114.467302 145.77482 
L 115.069613 145.272281 
L 115.671925 144.774307 
L 115.973081 144.330779 
L 116.274236 144.330779 
L 116.575392 143.856874 
L 117.47886 143.066213 
L 117.780015 142.697452 
L 118.081171 142.697452 
L 118.382327 142.422708 
L 119.285794 142.214432 
L 119.888106 142.255522 
L 120.189261 142.407723 
L 120.490417 142.407723 
L 120.791573 142.833643 
L 121.393885 143.131503 
L 121.69504 143.36001 
L 121.996196 143.883008 
L 122.297352 143.883008 
L 122.598508 144.805173 
L 122.899663 144.97183 
L 123.501975 145.666079 
L 123.803131 146.390069 
L 124.104286 146.756767 
L 124.706598 147.841666 
L 125.007754 148.017428 
L 125.308909 148.362824 
L 125.610065 149.024472 
L 126.212377 149.781569 
L 126.513533 150.188546 
L 127.115844 150.556013 
L 127.417 150.987761 
L 129.223934 152.038913 
L 129.52509 152.038913 
L 129.826246 152.291926 
L 130.729713 152.504103 
L 131.030869 152.708879 
L 131.332025 152.708879 
L 131.633181 153.119264 
L 132.235492 153.381202 
L 132.536648 153.576495 
L 132.837804 154.012072 
L 133.440115 154.614164 
L 133.741271 154.986459 
L 134.343582 155.353447 
L 134.644738 155.813981 
L 136.451673 156.989241 
L 138.258607 157.634028 
L 139.764386 158.480088 
L 140.667854 159.610297 
L 140.969009 159.733157 
L 141.571321 160.230833 
L 141.872477 160.726107 
L 142.474788 161.321394 
L 142.775944 161.66081 
L 143.378256 161.987549 
L 143.679411 162.412685 
L 144.281723 162.945191 
L 144.582879 163.278015 
L 144.884034 163.392497 
L 145.18519 163.627759 
L 145.486346 164.127717 
L 145.787502 164.3946 
L 146.389813 165.267133 
L 146.690969 165.423101 
L 146.992125 165.743359 
L 147.594436 166.935004 
L 147.895592 167.465303 
L 148.196748 167.64282 
L 148.799059 168.349618 
L 149.100215 169.207583 
L 149.401371 169.207583 
L 149.702527 169.86058 
L 151.208305 171.490513 
L 151.509461 172.040402 
L 152.412929 172.849995 
L 153.01524 173.806067 
L 153.316396 174.229027 
L 153.617552 174.372083 
L 154.521019 175.24935 
L 155.725642 176.864916 
L 156.026798 177.146924 
L 156.629109 178.081204 
L 156.930265 178.451567 
L 157.532577 178.8021 
L 158.436044 179.533166 
L 158.7372 179.884603 
L 160.242978 180.540227 
L 160.84529 180.711018 
L 163.254536 181.080355 
L 163.555692 181.267754 
L 163.856848 181.267754 
L 164.459159 181.526489 
L 166.266094 181.963956 
L 167.771873 181.905062 
L 168.67534 181.918024 
L 169.879963 182.323853 
L 170.181119 182.467327 
L 170.482275 182.467327 
L 171.084586 182.700165 
L 171.988053 182.778049 
L 172.590365 182.641013 
L 173.493832 182.337649 
L 173.794988 182.191393 
L 175.300767 182.252407 
L 175.601923 182.412588 
L 175.903078 182.412588 
L 176.50539 182.856496 
L 177.408857 183.500388 
L 177.710013 183.500388 
L 178.312325 183.726908 
L 178.914636 183.736522 
L 181.022726 183.134909 
L 182.528505 182.797927 
L 183.733128 183.173618 
L 184.33544 183.54044 
L 184.636596 183.846633 
L 184.937751 183.846633 
L 185.238907 184.1282 
L 186.744686 184.642969 
L 188.250465 184.690869 
L 189.756244 184.665995 
L 190.358555 184.838447 
L 190.960867 185.039734 
L 192.767801 186.363 
L 193.068957 186.611745 
L 193.671269 186.831663 
L 195.177047 187.348918 
L 196.381671 187.314257 
L 198.489761 187.140981 
L 199.99554 187.241364 
L 201.501319 187.360157 
L 203.007097 187.270331 
L 204.512876 186.959096 
L 206.319811 186.746216 
L 209.93368 186.678 
L 210.837147 186.436696 
L 211.740615 186.200779 
L 213.246394 186.267269 
L 214.451017 186.537554 
L 214.752172 186.760194 
L 217.462574 186.941217 
L 218.968353 186.524239 
L 219.87182 186.396087 
L 221.076443 186.544964 
L 223.48569 187.257388 
L 224.389157 187.368626 
L 225.59378 187.284332 
L 227.70187 187.112213 
L 231.014584 187.694033 
L 232.520363 187.511555 
L 233.42383 187.272228 
L 234.929609 187.283182 
L 237.640011 188.087013 
L 238.543478 188.077797 
L 240.952724 187.330544 
L 241.25388 187.045571 
L 243.663126 186.770904 
L 245.771216 186.828904 
L 246.373528 186.742319 
L 247.578151 186.385262 
L 248.180463 186.145864 
L 248.782774 185.838401 
L 249.385086 185.615609 
L 249.686241 185.331507 
L 249.987397 185.331507 
L 250.589709 185.041282 
L 251.794332 184.822476 
L 252.998955 184.845485 
L 255.107045 184.946201 
L 256.311668 184.675843 
L 257.215136 184.361089 
L 257.817447 184.096493 
L 258.720914 183.773814 
L 259.624382 183.496056 
L 261.732472 183.11947 
L 263.238251 183.01195 
L 264.442874 182.881578 
L 265.045186 182.712582 
L 266.249809 182.382267 
L 267.153276 182.073757 
L 267.454432 182.073757 
L 268.96021 181.518332 
L 271.068301 181.075648 
L 275.886793 180.627064 
L 276.187949 180.476425 
L 276.79026 180.37327 
L 282.211064 179.680681 
L 287.933024 179.466126 
L 293.052672 179.166372 
L 294.859606 179.275563 
L 297.570008 179.187061 
L 300.28041 178.853261 
L 301.786189 178.900907 
L 303.291968 179.096863 
L 305.098903 179.317923 
L 306.604681 179.22699 
L 309.013928 178.881892 
L 310.218551 178.923686 
L 311.122018 179.10315 
L 314.735887 179.524598 
L 319.253224 179.539129 
L 320.457847 179.67073 
L 323.168249 179.918354 
L 325.276339 180.46288 
L 325.878651 180.648017 
L 329.49252 181.110913 
L 330.697143 181.25692 
L 331.299454 181.439982 
L 334.612168 182.017487 
L 337.924881 182.270199 
L 339.43066 182.708694 
L 340.936439 183.018929 
L 342.141062 182.933929 
L 343.044529 182.746216 
L 344.249152 182.686805 
L 345.15262 182.853456 
L 346.357243 183.481833 
L 346.959554 183.896372 
L 347.26071 184.25783 
L 347.561866 184.25783 
L 347.863022 184.598796 
L 349.067645 185.16698 
L 349.971112 185.175373 
L 350.573423 185.026873 
L 350.874579 184.838471 
L 351.175735 184.838471 
L 351.778046 184.522689 
L 353.283825 184.091092 
L 355.693071 183.821166 
L 356.295383 183.576002 
L 356.897695 183.120268 
L 357.500006 182.728481 
L 358.704629 181.582544 
L 360.210408 180.789182 
L 362.92081 180.294555 
L 363.523121 179.83393 
L 363.824277 179.83393 
L 364.125433 179.437948 
L 365.0289 178.716447 
L 365.330056 178.366567 
L 365.631212 178.366567 
L 365.932368 178.080287 
L 367.136991 177.664343 
L 368.040458 177.558319 
L 369.245081 177.200426 
L 370.75086 175.708975 
L 371.052016 175.708975 
L 371.654327 175.067119 
L 371.955483 174.896755 
L 373.160106 174.836723 
L 373.461262 174.836723 
L 374.063573 175.09209 
L 375.268196 175.398341 
L 376.171664 175.322622 
L 376.472819 175.228069 
L 376.773975 174.950232 
L 377.075131 174.950232 
L 377.376287 174.332186 
L 377.677442 174.209787 
L 378.279754 173.695901 
L 378.58091 173.095585 
L 378.882066 173.095585 
L 379.183221 172.707042 
L 380.086689 172.336108 
L 380.689 172.255979 
L 381.893623 172.669168 
L 382.194779 172.958013 
L 382.495935 172.958013 
L 383.098246 173.162498 
L 383.700558 173.172962 
L 384.302869 172.914588 
L 384.905181 172.608821 
L 385.507492 172.202256 
L 385.808648 171.612263 
L 386.109804 171.612263 
L 386.41096 171.128561 
L 387.615583 170.233879 
L 387.916739 170.233879 
L 388.217894 170.062523 
L 389.121362 170.101231 
L 390.024829 170.358006 
L 390.928296 170.375904 
L 391.831764 169.995368 
L 392.132919 169.739902 
L 392.735231 169.432987 
L 393.036387 168.986161 
L 393.638698 168.443662 
L 393.939854 168.162578 
L 394.542165 167.939444 
L 394.843321 167.753884 
L 395.445633 167.700369 
L 396.3491 167.874546 
L 396.951412 168.21201 
L 398.156035 168.57187 
L 399.059502 168.443982 
L 399.661813 168.134812 
L 400.264125 167.540423 
L 402.07106 166.144777 
L 402.974527 165.989828 
L 403.275683 166.019647 
L 405.684929 167.113772 
L 406.588396 167.093819 
L 406.889552 166.918878 
L 407.190708 166.918878 
L 408.395331 165.873295 
L 409.90111 164.732492 
L 411.105733 164.70203 
L 411.708044 164.893103 
L 412.310356 165.104509 
L 413.514979 165.455266 
L 414.418446 165.334081 
L 414.719602 165.107464 
L 415.020758 165.107464 
L 415.321913 164.575391 
L 415.924225 164.261082 
L 416.225381 164.053105 
L 416.827692 163.422142 
L 417.128848 163.228844 
L 418.634627 163.054603 
L 420.441561 163.474004 
L 421.043873 163.473722 
L 421.94734 163.25268 
L 422.248496 163.056063 
L 422.850808 162.536492 
L 423.453119 162.147275 
L 423.754275 161.759399 
L 424.055431 161.759399 
L 424.356586 161.17363 
L 424.958898 160.895108 
L 426.163521 160.337883 
L 427.066988 160.457377 
L 427.368144 160.70716 
L 427.6693 160.70716 
L 427.970456 161.288892 
L 428.271611 161.404744 
L 429.476234 162.509475 
L 429.77739 162.933373 
L 430.982013 163.583146 
L 432.186636 163.577816 
L 432.186636 163.577816 
" clip-path="url(#paced20cffa)" style="fill: none; stroke: #0000ff; stroke-width: 1.5; stroke-linecap: square"/>
   </g>
   <g id="patch_8">
    <path d="M 58.106 190.3975 
L 58.106 139.92 
" style="fill: none; stroke: #000000; stroke-width: 0.8; stroke-linejoin: miter; stroke-linecap: square"/>
   </g>
   <g id="patch_9">
    <path d="M 450 190.3975 
L 450 139.92 
" style="fill: none; stroke: #000000; stroke-width: 0.8; stroke-linejoin: miter; stroke-linecap: square"/>
   </g>
   <g id="patch_10">
    <path d="M 58.106 190.3975 
L 450 190.3975 
" style="fill: none; stroke: #000000; stroke-width: 0.8; stroke-linejoin: miter; stroke-linecap: square"/>
   </g>
   <g id="patch_11">
    <path d="M 58.106 139.92 
L 450 139.92 
" style="fill: none; stroke: #000000; stroke-width: 0.8; stroke-linejoin: miter; stroke-linecap: square"/>
   </g>
   <g id="text_25">
    <!-- Error in $z$-position -->
    <g transform="translate(200.773 133.92)scale(0.12 -0.12)">
     <use xlink:href="#DejaVuSans-45" transform="translate(0 0.015625)"/>
     <use xlink:href="#DejaVuSans-72" transform="translate(63.183594 0.015625)"/>
     <use xlink:href="#DejaVuSans-72" transform="translate(104.296875 0.015625)"/>
     <use xlink:href="#DejaVuSans-6f" transform="translate(145.410156 0.015625)"/>
     <use xlink:href="#DejaVuSans-72" transform="translate(206.591797 0.015625)"/>
     <use xlink:href="#DejaVuSans-20" transform="translate(247.705078 0.015625)"/>
     <use xlink:href="#DejaVuSans-69" transform="translate(279.492188 0.015625)"/>
     <use xlink:href="#DejaVuSans-6e" transform="translate(307.275391 0.015625)"/>
     <use xlink:href="#DejaVuSans-20" transform="translate(370.654297 0.015625)"/>
     <use xlink:href="#DejaVuSans-Oblique-7a" transform="translate(402.441406 0.015625)"/>
     <use xlink:href="#DejaVuSans-2d" transform="translate(454.931641 0.015625)"/>
     <use xlink:href="#DejaVuSans-70" transform="translate(491.015625 0.015625)"/>
     <use xlink:href="#DejaVuSans-6f" transform="translate(554.492188 0.015625)"/>
     <use xlink:href="#DejaVuSans-73" transform="translate(615.673828 0.015625)"/>
     <use xlink:href="#DejaVuSans-69" transform="translate(667.773438 0.015625)"/>
     <use xlink:href="#DejaVuSans-74" transform="translate(695.556641 0.015625)"/>
     <use xlink:href="#DejaVuSans-69" transform="translate(734.765625 0.015625)"/>
     <use xlink:href="#DejaVuSans-6f" transform="translate(762.548828 0.015625)"/>
     <use xlink:href="#DejaVuSans-6e" transform="translate(823.730469 0.015625)"/>
    </g>
   </g>
  </g>
  <g id="axes_3">
   <g id="patch_12">
    <path d="M 58.106 301.9975 
L 450 301.9975 
L 450 251.52 
L 58.106 251.52 
z
" style="fill: #ffffff"/>
   </g>
   <g id="matplotlib.axis_5">
    <g id="xtick_15">
     <g id="line2d_41">
      <path d="M 75.919364 301.9975 
L 75.919364 251.52 
" clip-path="url(#p81253bdf4a)" style="fill: none; stroke: #b0b0b0; stroke-width: 0.8; stroke-linecap: square"/>
     </g>
     <g id="line2d_42">
      <g>
       <use xlink:href="#mdc619541ea" x="75.919364" y="301.9975" style="stroke: #000000; stroke-width: 0.8"/>
      </g>
     </g>
     <g id="text_26">
      <!-- 0 -->
      <g transform="translate(72.738114 316.595937)scale(0.1 -0.1)">
       <use xlink:href="#DejaVuSans-30"/>
      </g>
     </g>
    </g>
    <g id="xtick_16">
     <g id="line2d_43">
      <path d="M 136.099646 301.9975 
L 136.099646 251.52 
" clip-path="url(#p81253bdf4a)" style="fill: none; stroke: #b0b0b0; stroke-width: 0.8; stroke-linecap: square"/>
     </g>
     <g id="line2d_44">
      <g>
       <use xlink:href="#mdc619541ea" x="136.099646" y="301.9975" style="stroke: #000000; stroke-width: 0.8"/>
      </g>
     </g>
     <g id="text_27">
      <!-- 2 -->
      <g transform="translate(132.918396 316.595937)scale(0.1 -0.1)">
       <use xlink:href="#DejaVuSans-32"/>
      </g>
     </g>
    </g>
    <g id="xtick_17">
     <g id="line2d_45">
      <path d="M 196.279929 301.9975 
L 196.279929 251.52 
" clip-path="url(#p81253bdf4a)" style="fill: none; stroke: #b0b0b0; stroke-width: 0.8; stroke-linecap: square"/>
     </g>
     <g id="line2d_46">
      <g>
       <use xlink:href="#mdc619541ea" x="196.279929" y="301.9975" style="stroke: #000000; stroke-width: 0.8"/>
      </g>
     </g>
     <g id="text_28">
      <!-- 4 -->
      <g transform="translate(193.098679 316.595937)scale(0.1 -0.1)">
       <use xlink:href="#DejaVuSans-34"/>
      </g>
     </g>
    </g>
    <g id="xtick_18">
     <g id="line2d_47">
      <path d="M 256.460211 301.9975 
L 256.460211 251.52 
" clip-path="url(#p81253bdf4a)" style="fill: none; stroke: #b0b0b0; stroke-width: 0.8; stroke-linecap: square"/>
     </g>
     <g id="line2d_48">
      <g>
       <use xlink:href="#mdc619541ea" x="256.460211" y="301.9975" style="stroke: #000000; stroke-width: 0.8"/>
      </g>
     </g>
     <g id="text_29">
      <!-- 6 -->
      <g transform="translate(253.278961 316.595937)scale(0.1 -0.1)">
       <use xlink:href="#DejaVuSans-36"/>
      </g>
     </g>
    </g>
    <g id="xtick_19">
     <g id="line2d_49">
      <path d="M 316.640494 301.9975 
L 316.640494 251.52 
" clip-path="url(#p81253bdf4a)" style="fill: none; stroke: #b0b0b0; stroke-width: 0.8; stroke-linecap: square"/>
     </g>
     <g id="line2d_50">
      <g>
       <use xlink:href="#mdc619541ea" x="316.640494" y="301.9975" style="stroke: #000000; stroke-width: 0.8"/>
      </g>
     </g>
     <g id="text_30">
      <!-- 8 -->
      <g transform="translate(313.459244 316.595937)scale(0.1 -0.1)">
       <use xlink:href="#DejaVuSans-38"/>
      </g>
     </g>
    </g>
    <g id="xtick_20">
     <g id="line2d_51">
      <path d="M 376.820776 301.9975 
L 376.820776 251.52 
" clip-path="url(#p81253bdf4a)" style="fill: none; stroke: #b0b0b0; stroke-width: 0.8; stroke-linecap: square"/>
     </g>
     <g id="line2d_52">
      <g>
       <use xlink:href="#mdc619541ea" x="376.820776" y="301.9975" style="stroke: #000000; stroke-width: 0.8"/>
      </g>
     </g>
     <g id="text_31">
      <!-- 10 -->
      <g transform="translate(370.458276 316.595937)scale(0.1 -0.1)">
       <use xlink:href="#DejaVuSans-31"/>
       <use xlink:href="#DejaVuSans-30" x="63.623047"/>
      </g>
     </g>
    </g>
    <g id="xtick_21">
     <g id="line2d_53">
      <path d="M 437.001059 301.9975 
L 437.001059 251.52 
" clip-path="url(#p81253bdf4a)" style="fill: none; stroke: #b0b0b0; stroke-width: 0.8; stroke-linecap: square"/>
     </g>
     <g id="line2d_54">
      <g>
       <use xlink:href="#mdc619541ea" x="437.001059" y="301.9975" style="stroke: #000000; stroke-width: 0.8"/>
      </g>
     </g>
     <g id="text_32">
      <!-- 12 -->
      <g transform="translate(430.638559 316.595937)scale(0.1 -0.1)">
       <use xlink:href="#DejaVuSans-31"/>
       <use xlink:href="#DejaVuSans-32" x="63.623047"/>
      </g>
     </g>
    </g>
    <g id="text_33">
     <!-- $t$ [s] -->
     <g transform="translate(243.953 330.274063)scale(0.1 -0.1)">
      <use xlink:href="#DejaVuSans-Oblique-74" transform="translate(0 0.015625)"/>
      <use xlink:href="#DejaVuSans-20" transform="translate(39.208984 0.015625)"/>
      <use xlink:href="#DejaVuSans-5b" transform="translate(70.996094 0.015625)"/>
      <use xlink:href="#DejaVuSans-73" transform="translate(110.009766 0.015625)"/>
      <use xlink:href="#DejaVuSans-5d" transform="translate(162.109375 0.015625)"/>
     </g>
    </g>
   </g>
   <g id="matplotlib.axis_6">
    <g id="ytick_6">
     <g id="line2d_55">
      <path d="M 58.106 291.030711 
L 450 291.030711 
" clip-path="url(#p81253bdf4a)" style="fill: none; stroke: #b0b0b0; stroke-width: 0.8; stroke-linecap: square"/>
     </g>
     <g id="line2d_56">
      <g>
       <use xlink:href="#m68d9b4cdcc" x="58.106" y="291.030711" style="stroke: #000000; stroke-width: 0.8"/>
      </g>
     </g>
     <g id="text_34">
      <!-- −0.1 -->
      <g transform="translate(26.823188 294.829929)scale(0.1 -0.1)">
       <use xlink:href="#DejaVuSans-2212"/>
       <use xlink:href="#DejaVuSans-30" x="83.789062"/>
       <use xlink:href="#DejaVuSans-2e" x="147.412109"/>
       <use xlink:href="#DejaVuSans-31" x="179.199219"/>
      </g>
     </g>
    </g>
    <g id="ytick_7">
     <g id="line2d_57">
      <path d="M 58.106 276.469659 
L 450 276.469659 
" clip-path="url(#p81253bdf4a)" style="fill: none; stroke: #b0b0b0; stroke-width: 0.8; stroke-linecap: square"/>
     </g>
     <g id="line2d_58">
      <g>
       <use xlink:href="#m68d9b4cdcc" x="58.106" y="276.469659" style="stroke: #000000; stroke-width: 0.8"/>
      </g>
     </g>
     <g id="text_35">
      <!-- 0.0 -->
      <g transform="translate(35.202875 280.268878)scale(0.1 -0.1)">
       <use xlink:href="#DejaVuSans-30"/>
       <use xlink:href="#DejaVuSans-2e" x="63.623047"/>
       <use xlink:href="#DejaVuSans-30" x="95.410156"/>
      </g>
     </g>
    </g>
    <g id="ytick_8">
     <g id="line2d_59">
      <path d="M 58.106 261.908608 
L 450 261.908608 
" clip-path="url(#p81253bdf4a)" style="fill: none; stroke: #b0b0b0; stroke-width: 0.8; stroke-linecap: square"/>
     </g>
     <g id="line2d_60">
      <g>
       <use xlink:href="#m68d9b4cdcc" x="58.106" y="261.908608" style="stroke: #000000; stroke-width: 0.8"/>
      </g>
     </g>
     <g id="text_36">
      <!-- 0.1 -->
      <g transform="translate(35.202875 265.707826)scale(0.1 -0.1)">
       <use xlink:href="#DejaVuSans-30"/>
       <use xlink:href="#DejaVuSans-2e" x="63.623047"/>
       <use xlink:href="#DejaVuSans-31" x="95.410156"/>
      </g>
     </g>
    </g>
    <g id="text_37">
     <!-- $e_\theta$ [rad] -->
     <g transform="translate(20.7435 295.90875)rotate(-90)scale(0.1 -0.1)">
      <defs>
       <path id="DejaVuSans-Oblique-3b8" d="M 2913 2219 
L 925 2219 
Q 791 1284 928 888 
Q 1100 400 1566 400 
Q 2034 400 2391 891 
Q 2703 1322 2913 2219 
z
M 3009 2750 
Q 3094 3638 2984 3950 
Q 2813 4444 2353 4444 
Q 1875 4444 1525 3956 
Q 1250 3563 1034 2750 
L 3009 2750 
z
M 2444 4913 
Q 3194 4913 3494 4250 
Q 3794 3591 3566 2422 
Q 3341 1256 2781 594 
Q 2225 -72 1475 -72 
Q 722 -72 425 594 
Q 128 1256 353 2422 
Q 581 3591 1134 4250 
Q 1691 4913 2444 4913 
z
" transform="scale(0.015625)"/>
       <path id="DejaVuSans-61" d="M 2194 1759 
Q 1497 1759 1228 1600 
Q 959 1441 959 1056 
Q 959 750 1161 570 
Q 1363 391 1709 391 
Q 2188 391 2477 730 
Q 2766 1069 2766 1631 
L 2766 1759 
L 2194 1759 
z
M 3341 1997 
L 3341 0 
L 2766 0 
L 2766 531 
Q 2569 213 2275 61 
Q 1981 -91 1556 -91 
Q 1019 -91 701 211 
Q 384 513 384 1019 
Q 384 1609 779 1909 
Q 1175 2209 1959 2209 
L 2766 2209 
L 2766 2266 
Q 2766 2663 2505 2880 
Q 2244 3097 1772 3097 
Q 1472 3097 1187 3025 
Q 903 2953 641 2809 
L 641 3341 
Q 956 3463 1253 3523 
Q 1550 3584 1831 3584 
Q 2591 3584 2966 3190 
Q 3341 2797 3341 1997 
z
" transform="scale(0.015625)"/>
       <path id="DejaVuSans-64" d="M 2906 2969 
L 2906 4863 
L 3481 4863 
L 3481 0 
L 2906 0 
L 2906 525 
Q 2725 213 2448 61 
Q 2172 -91 1784 -91 
Q 1150 -91 751 415 
Q 353 922 353 1747 
Q 353 2572 751 3078 
Q 1150 3584 1784 3584 
Q 2172 3584 2448 3432 
Q 2725 3281 2906 2969 
z
M 947 1747 
Q 947 1113 1208 752 
Q 1469 391 1925 391 
Q 2381 391 2643 752 
Q 2906 1113 2906 1747 
Q 2906 2381 2643 2742 
Q 2381 3103 1925 3103 
Q 1469 3103 1208 2742 
Q 947 2381 947 1747 
z
" transform="scale(0.015625)"/>
      </defs>
      <use xlink:href="#DejaVuSans-Oblique-65" transform="translate(0 0.015625)"/>
      <use xlink:href="#DejaVuSans-Oblique-3b8" transform="translate(61.523438 -16.390625)scale(0.7)"/>
      <use xlink:href="#DejaVuSans-20" transform="translate(107.084961 0.015625)"/>
      <use xlink:href="#DejaVuSans-5b" transform="translate(138.87207 0.015625)"/>
      <use xlink:href="#DejaVuSans-72" transform="translate(177.885742 0.015625)"/>
      <use xlink:href="#DejaVuSans-61" transform="translate(218.999023 0.015625)"/>
      <use xlink:href="#DejaVuSans-64" transform="translate(280.27832 0.015625)"/>
      <use xlink:href="#DejaVuSans-5d" transform="translate(343.754883 0.015625)"/>
     </g>
    </g>
   </g>
   <g id="line2d_61">
    <path d="M 75.919364 276.140308 
L 76.220519 275.923663 
L 76.521675 275.383171 
L 76.822831 274.231862 
L 77.425142 272.89721 
L 77.726298 271.507985 
L 78.027454 268.992231 
L 78.930921 264.427284 
L 79.533233 260.19324 
L 79.834389 258.638344 
L 80.135544 258.638344 
L 80.4367 257.329481 
L 80.737856 257.056101 
L 81.039012 257.058692 
L 81.340167 257.599417 
L 81.942479 260.328665 
L 82.845946 264.433396 
L 83.147102 265.964625 
L 83.448258 268.394673 
L 83.749414 271.873047 
L 84.652881 277.538783 
L 85.556348 286.161928 
L 87.062127 294.615548 
L 87.363283 294.615548 
L 87.664439 295.939703 
L 88.26675 296.763702 
L 88.567906 296.846075 
L 88.869062 296.631463 
L 89.170217 296.631463 
L 89.772529 294.707903 
L 90.37484 290.198198 
L 90.675996 287.170087 
L 90.977152 287.170087 
L 91.278308 282.798785 
L 91.579464 280.583273 
L 92.482931 271.272752 
L 92.784087 271.272752 
L 93.085242 267.724896 
L 94.289865 261.299057 
L 94.591021 261.299057 
L 94.892177 260.515076 
L 95.193333 260.390762 
L 95.494489 260.489435 
L 95.795644 260.909934 
L 96.0968 261.112603 
L 96.397956 261.604146 
L 96.699112 262.895976 
L 97.000267 263.67023 
L 97.602579 266.409978 
L 97.903735 266.911156 
L 98.20489 267.950209 
L 98.506046 270.187082 
L 98.807202 270.187082 
L 99.108358 273.934013 
L 99.409513 274.601804 
L 100.011825 277.334784 
L 100.614137 281.982609 
L 100.915292 283.789885 
L 101.216448 284.362717 
L 101.81876 286.486971 
L 102.119915 288.233861 
L 102.421071 289.145299 
L 102.722227 289.584475 
L 103.023383 289.609459 
L 103.324538 289.466349 
L 103.625694 289.06705 
L 105.432629 280.444578 
L 105.733785 277.635648 
L 106.03494 277.635648 
L 106.336096 273.807272 
L 106.938408 272.743202 
L 107.540719 270.513265 
L 107.841875 270.388595 
L 108.143031 270.543434 
L 108.444187 270.981052 
L 108.745342 272.63048 
L 109.046498 272.63048 
L 109.347654 276.310234 
L 109.64881 276.988372 
L 110.251121 279.658859 
L 110.552277 282.743816 
L 110.853433 282.743816 
L 111.154588 284.786898 
L 111.7569 286.377995 
L 112.359211 287.24095 
L 112.961523 285.948336 
L 113.262679 284.978143 
L 114.166146 280.104946 
L 114.467302 278.445455 
L 114.768458 275.045743 
L 115.370769 271.665842 
L 115.973081 266.334493 
L 116.274236 266.334493 
L 116.575392 263.783665 
L 117.47886 260.272976 
L 117.780015 258.5912 
L 118.081171 258.5912 
L 118.382327 257.033273 
L 119.58695 254.42807 
L 120.189261 253.814432 
L 120.490417 253.814432 
L 120.791573 254.361914 
L 121.092729 254.561612 
L 121.69504 255.59592 
L 121.996196 256.971061 
L 122.297352 256.971061 
L 122.598508 259.611868 
L 122.899663 260.119913 
L 123.501975 262.307085 
L 123.803131 264.772107 
L 124.104286 266.097778 
L 124.706598 270.46348 
L 125.007754 271.237758 
L 125.308909 272.78917 
L 125.610065 275.825823 
L 126.212377 279.229117 
L 126.513533 280.971536 
L 126.814688 281.501753 
L 127.115844 282.450144 
L 127.417 283.779985 
L 127.718156 284.134601 
L 128.019311 284.26795 
L 128.922779 283.410859 
L 129.223934 282.380907 
L 129.52509 282.380907 
L 129.826246 281.01863 
L 130.729713 280.514051 
L 131.332025 280.610004 
L 131.633181 281.281687 
L 131.934336 281.411884 
L 133.138959 282.319466 
L 133.440115 282.337434 
L 134.343582 281.899899 
L 135.548206 279.436971 
L 135.849361 279.182795 
L 136.150517 278.676796 
L 136.451673 277.719096 
L 137.053984 276.692239 
L 137.35514 276.155536 
L 137.656296 275.982714 
L 137.957452 275.644809 
L 138.860919 273.922214 
L 139.162075 273.717432 
L 139.764386 272.809896 
L 140.667854 269.945612 
L 140.969009 269.605426 
L 141.571321 268.127602 
L 141.872477 266.520486 
L 142.173632 265.696303 
L 142.775944 263.18872 
L 143.0771 262.778102 
L 143.378256 261.997224 
L 143.679411 260.696464 
L 144.582879 259.348488 
L 146.992125 258.698924 
L 148.799059 257.190153 
L 149.100215 256.376125 
L 149.401371 256.376125 
L 149.702527 255.724357 
L 150.605994 254.966695 
L 150.90715 254.858447 
L 151.208305 254.899395 
L 152.412929 256.776099 
L 153.01524 259.072318 
L 153.316396 260.105324 
L 153.617552 260.447853 
L 155.12333 263.902317 
L 156.026798 264.63625 
L 156.327954 264.898604 
L 156.930265 264.986377 
L 158.436044 265.045803 
L 159.640667 266.058765 
L 159.941823 267.01359 
L 160.242978 267.01359 
L 160.544134 267.885055 
L 161.748757 269.591432 
L 162.049913 269.705671 
L 163.254536 269.495613 
L 163.555692 269.374492 
L 163.856848 269.374492 
L 164.459159 269.719563 
L 165.061471 270.410798 
L 166.266094 274.653329 
L 166.868405 276.785247 
L 167.169561 278.84227 
L 168.073028 281.743587 
L 168.976496 282.405483 
L 169.277652 282.23748 
L 169.879963 281.101214 
L 170.181119 280.383205 
L 170.482275 280.383205 
L 170.78343 279.484788 
L 171.385742 278.747432 
L 171.686898 278.61603 
L 172.289209 278.736809 
L 172.891521 279.516102 
L 173.794988 280.413679 
L 174.096144 280.413679 
L 174.698455 279.760521 
L 175.300767 278.145157 
L 175.601923 277.163466 
L 175.903078 277.163466 
L 176.204234 275.894833 
L 177.107701 274.432588 
L 177.408857 274.561211 
L 177.710013 274.561211 
L 178.61348 276.965334 
L 179.215792 279.164437 
L 179.516948 279.164437 
L 179.818103 280.124191 
L 180.119259 280.124191 
L 181.022726 278.324012 
L 181.323882 277.14681 
L 181.625038 274.224803 
L 181.926194 272.577541 
L 182.829661 265.041442 
L 183.130817 265.041442 
L 183.431973 262.370626 
L 184.034284 260.569418 
L 184.33544 259.996863 
L 184.636596 260.333382 
L 184.937751 260.333382 
L 185.540063 262.7656 
L 185.841219 263.93291 
L 187.045842 270.989537 
L 187.648153 272.961276 
L 187.949309 273.592181 
L 188.250465 273.954578 
L 188.852776 272.537023 
L 189.455088 270.347413 
L 189.756244 269.017938 
L 190.659711 262.611148 
L 191.864334 257.570702 
L 192.16549 257.570702 
L 192.466646 257.711481 
L 192.767801 258.596651 
L 193.068957 260.055328 
L 193.370113 260.643366 
L 193.972424 263.33324 
L 194.27358 267.085395 
L 194.574736 267.085395 
L 194.875892 269.906327 
L 195.779359 273.399806 
L 196.080515 274.529119 
L 196.381671 274.598334 
L 196.682826 274.118105 
L 196.983982 273.862582 
L 197.586294 272.50621 
L 197.887449 270.812895 
L 198.188605 270.812895 
L 198.489761 268.403985 
L 198.790917 268.064409 
L 199.393228 266.995144 
L 199.694384 266.530589 
L 199.99554 266.632972 
L 200.296696 267.098997 
L 200.597851 267.32717 
L 201.200163 268.540754 
L 201.501319 270.141337 
L 201.802474 271.035495 
L 202.404786 273.813614 
L 202.705942 274.271933 
L 203.007097 275.14211 
L 203.308253 276.605471 
L 203.910565 277.917222 
L 204.814032 278.186148 
L 205.115188 277.795628 
L 206.620967 274.682923 
L 206.922122 273.022404 
L 207.223278 273.022404 
L 207.524434 271.865572 
L 208.427901 270.569834 
L 208.729057 270.24645 
L 209.030213 270.24645 
L 209.93368 271.386566 
L 210.234836 271.928692 
L 210.535992 273.2258 
L 210.837147 273.958538 
L 211.740615 277.158265 
L 212.04177 277.158265 
L 212.342926 278.01536 
L 212.945238 277.914522 
L 213.246394 277.713909 
L 213.848705 276.42433 
L 214.149861 274.485515 
L 214.451017 274.485515 
L 214.752172 270.892291 
L 215.053328 270.263213 
L 215.65564 267.850705 
L 215.956795 266.014365 
L 216.257951 266.014365 
L 216.559107 265.094943 
L 216.860263 265.169334 
L 217.161419 265.502432 
L 217.462574 266.069823 
L 218.366042 271.206238 
L 218.667197 271.800806 
L 220.172976 277.261285 
L 220.474132 277.408426 
L 220.775288 277.33729 
L 221.076443 277.041673 
L 221.377599 276.154687 
L 221.979911 272.921659 
L 222.582222 269.988372 
L 223.184534 264.587488 
L 223.48569 264.587488 
L 223.786845 262.156452 
L 224.389157 260.654918 
L 224.690313 260.808136 
L 224.991468 261.714166 
L 225.292624 261.714166 
L 225.59378 263.820007 
L 226.196092 266.49663 
L 226.798403 271.397563 
L 227.099559 271.397563 
L 227.400715 273.845525 
L 228.304182 276.781429 
L 228.605338 276.85853 
L 228.906493 276.781265 
L 229.809961 273.720013 
L 230.111116 271.747864 
L 230.412272 268.851737 
L 230.713428 268.851737 
L 231.014584 265.955012 
L 231.918051 261.868098 
L 232.520363 261.6039 
L 232.821518 262.451143 
L 233.122674 262.451143 
L 233.42383 265.70798 
L 233.724986 266.408757 
L 234.327297 269.39945 
L 234.628453 273.290982 
L 234.929609 273.290982 
L 235.230765 276.108077 
L 236.134232 279.455778 
L 236.435388 279.713976 
L 236.736543 279.713976 
L 237.338855 277.717549 
L 237.941166 273.871556 
L 238.242322 273.134793 
L 238.543478 271.630851 
L 238.844634 268.685627 
L 239.14579 268.685627 
L 239.446945 265.333448 
L 240.350413 264.344172 
L 240.651568 264.989556 
L 240.952724 264.989556 
L 241.25388 268.0996 
L 241.555036 268.789947 
L 242.157347 271.856958 
L 242.458503 275.110822 
L 242.759659 275.110822 
L 243.060814 279.788456 
L 243.36197 280.489285 
L 244.265438 284.099985 
L 244.566593 284.099985 
L 244.867749 283.08879 
L 245.168905 282.610437 
L 245.771216 280.008368 
L 246.072372 278.392014 
L 246.373528 275.735495 
L 246.674684 271.95385 
L 248.481618 260.784911 
L 248.782774 260.439085 
L 249.08393 260.470577 
L 249.385086 260.859979 
L 249.686241 263.194276 
L 249.987397 263.194276 
L 250.288553 266.124556 
L 251.493176 273.309939 
L 252.396643 281.145857 
L 252.998955 283.721359 
L 253.601266 285.298836 
L 253.902422 284.833569 
L 254.203578 284.028959 
L 254.805889 281.452154 
L 255.107045 279.780696 
L 255.408201 276.969569 
L 255.709357 272.940692 
L 257.215136 262.206643 
L 257.516291 259.511745 
L 257.817447 258.636876 
L 258.118603 258.104243 
L 258.419759 257.935062 
L 258.720914 258.659015 
L 259.02207 260.066436 
L 259.323226 262.074707 
L 259.624382 262.857304 
L 260.226693 266.354436 
L 260.527849 270.174588 
L 260.829005 272.131492 
L 261.732472 280.30659 
L 262.033628 280.30659 
L 262.334784 282.861247 
L 262.937095 284.205711 
L 263.539407 283.560931 
L 263.840562 282.710974 
L 264.141718 280.148691 
L 264.442874 280.148691 
L 264.74403 274.933958 
L 265.045186 273.986768 
L 265.647497 270.109518 
L 265.948653 266.379216 
L 266.550964 262.257517 
L 267.153276 258.968475 
L 267.454432 258.968475 
L 267.755587 258.41133 
L 268.056743 258.707555 
L 268.357899 259.37471 
L 268.659055 260.99108 
L 268.96021 264.045193 
L 270.164834 271.633643 
L 271.068301 279.903884 
L 271.971768 284.002821 
L 272.57408 285.678342 
L 272.875235 285.434458 
L 273.176391 284.78932 
L 273.778703 282.588827 
L 274.079859 281.128108 
L 274.381014 278.627645 
L 274.68217 274.892726 
L 275.886793 267.286659 
L 276.187949 263.248805 
L 276.489105 263.248805 
L 276.79026 261.033778 
L 277.091416 260.391848 
L 277.392572 260.080408 
L 277.693728 260.104724 
L 277.994884 260.77952 
L 278.597195 264.11223 
L 279.500662 269.105375 
L 280.40413 277.015011 
L 281.307597 281.094762 
L 281.909908 283.465385 
L 282.211064 283.574223 
L 282.51222 283.426023 
L 282.813376 283.022672 
L 283.114532 282.364346 
L 283.415687 280.922174 
L 283.716843 278.251045 
L 284.921466 271.437306 
L 285.824933 264.012683 
L 286.427245 261.914844 
L 286.728401 261.349137 
L 287.330712 261.430908 
L 288.535335 266.915757 
L 288.836491 271.019958 
L 289.137647 271.019958 
L 289.438803 274.291408 
L 289.739958 275.073158 
L 290.34227 279.427436 
L 290.643426 280.103672 
L 290.944581 280.492153 
L 291.245737 280.621594 
L 291.546893 280.515699 
L 291.848049 279.945104 
L 292.45036 277.485213 
L 292.751516 276.359901 
L 293.353828 272.37836 
L 293.654983 271.67098 
L 293.956139 270.257575 
L 294.558451 265.79642 
L 294.859606 264.567467 
L 295.763074 263.852598 
L 296.06423 264.984592 
L 296.365385 264.984592 
L 296.967697 268.307154 
L 297.570008 271.15734 
L 297.871164 274.079311 
L 298.17232 274.079311 
L 298.473476 277.967237 
L 298.774631 278.509954 
L 299.376943 280.222005 
L 299.678099 280.701 
L 299.979255 280.888871 
L 300.882722 278.533114 
L 301.183878 277.472407 
L 301.485033 274.330873 
L 301.786189 274.330873 
L 302.087345 271.566147 
L 303.593124 264.857487 
L 303.894279 263.830896 
L 304.195435 263.733103 
L 304.496591 263.914236 
L 304.797747 264.365248 
L 305.098903 265.496663 
L 305.400058 267.730748 
L 306.604681 273.531138 
L 307.508149 279.491059 
L 308.11046 281.098149 
L 308.411616 281.551618 
L 308.712772 281.737996 
L 309.013928 281.497617 
L 310.218551 276.99964 
L 310.519706 273.535037 
L 310.820862 273.535037 
L 311.122018 270.606197 
L 312.627797 263.804239 
L 312.928953 263.650774 
L 313.230108 263.783231 
L 313.531264 264.187522 
L 313.83242 264.850351 
L 314.133576 266.268575 
L 314.434731 268.776937 
L 314.735887 269.476568 
L 315.338199 274.605132 
L 315.639354 274.605132 
L 315.94051 277.383565 
L 316.843977 281.467967 
L 317.446289 282.005341 
L 317.747445 281.745091 
L 318.048601 281.226923 
L 319.253224 276.640408 
L 319.554379 273.955135 
L 319.855535 273.955135 
L 320.156691 269.792558 
L 320.457847 269.127969 
L 321.361314 264.867346 
L 321.66247 264.867346 
L 321.963626 264.10112 
L 322.264781 264.222755 
L 322.565937 264.673489 
L 323.168249 266.357561 
L 323.469404 268.175572 
L 323.77056 271.111596 
L 324.975183 277.514007 
L 325.878651 283.490928 
L 326.480962 285.037417 
L 326.782118 285.435282 
L 327.083274 285.453057 
L 328.287897 280.631336 
L 328.589052 279.042877 
L 329.793675 269.680808 
L 330.094831 268.09765 
L 330.395987 265.215915 
L 330.697143 265.215915 
L 330.998299 262.572582 
L 331.60061 262.216573 
L 331.901766 262.36573 
L 332.202922 264.09473 
L 332.504077 264.09473 
L 332.805233 266.612716 
L 334.009856 272.941937 
L 334.913324 279.782946 
L 336.117947 285.271652 
L 336.419102 285.48751 
L 336.720258 285.394733 
L 337.021414 285.001112 
L 337.32257 283.880736 
L 337.623725 281.549081 
L 337.924881 281.549081 
L 338.226037 278.554246 
L 338.527193 276.897783 
L 339.129504 271.760198 
L 339.43066 270.913681 
L 339.731816 269.245966 
L 340.032972 266.12181 
L 340.334127 266.12181 
L 340.635283 262.373266 
L 340.936439 261.898895 
L 341.53875 260.55298 
L 341.839906 260.277224 
L 342.141062 260.423844 
L 343.345685 265.30945 
L 343.646841 267.619822 
L 343.947997 270.848602 
L 345.453775 279.167772 
L 345.754931 281.522689 
L 346.357243 283.250224 
L 346.959554 284.184549 
L 347.26071 283.798128 
L 347.561866 283.798128 
L 348.164177 281.754598 
L 348.465333 280.855226 
L 349.3688 276.872547 
L 350.272268 274.938621 
L 350.874579 273.692258 
L 351.175735 273.692258 
L 351.476891 273.358434 
L 352.079202 273.235117 
L 352.380358 273.259421 
L 354.187293 274.207962 
L 354.488448 274.276385 
L 355.09076 274.109045 
L 355.693071 273.677939 
L 355.994227 273.353091 
L 356.295383 272.721147 
L 356.596539 271.642199 
L 357.500006 269.76606 
L 358.102318 268.006896 
L 358.403473 267.797536 
L 358.704629 267.767882 
L 359.005785 267.921131 
L 359.306941 268.250252 
L 359.608096 269.022771 
L 359.909252 270.427689 
L 361.716187 275.247105 
L 362.017343 275.327656 
L 362.318498 275.192872 
L 362.619654 274.843026 
L 362.92081 273.945717 
L 363.523121 271.166257 
L 363.824277 271.166257 
L 364.125433 269.071587 
L 365.330056 265.430668 
L 365.932368 265.478914 
L 366.233523 265.772181 
L 366.534679 266.501773 
L 367.136991 268.82367 
L 367.438146 268.82367 
L 367.739302 270.78624 
L 368.040458 271.813856 
L 368.642769 274.742451 
L 368.943925 275.17437 
L 369.245081 275.972763 
L 369.546237 277.269434 
L 370.148548 278.228155 
L 370.449704 278.457797 
L 371.052016 278.463152 
L 371.955483 277.779501 
L 374.063573 277.533667 
L 375.569352 277.423312 
L 376.171664 277.640625 
L 376.472819 277.856573 
L 376.773975 278.406068 
L 377.075131 278.406068 
L 377.376287 279.182072 
L 378.58091 279.491821 
L 378.882066 279.491821 
L 380.086689 277.915405 
L 380.387844 276.742267 
L 380.689 276.742267 
L 380.990156 275.883495 
L 381.592467 275.326256 
L 381.893623 275.22907 
L 382.194779 275.62389 
L 382.495935 275.62389 
L 383.098246 277.210979 
L 383.700558 278.821764 
L 384.302869 282.135145 
L 384.604025 283.42643 
L 384.905181 283.803758 
L 385.507492 284.855598 
L 386.109804 284.737301 
L 386.712115 282.443671 
L 387.314427 280.189238 
L 387.615583 277.816139 
L 387.916739 277.816139 
L 388.217894 274.656955 
L 388.51905 274.228482 
L 389.121362 272.921667 
L 389.422517 272.480241 
L 389.723673 272.480241 
L 390.024829 273.291984 
L 390.325985 273.543945 
L 390.928296 274.737825 
L 391.229452 276.080971 
L 391.831764 277.650864 
L 392.132919 278.439114 
L 393.036387 278.998028 
L 393.337542 278.705903 
L 394.542165 275.575975 
L 394.843321 273.963959 
L 395.746789 271.673605 
L 396.650256 271.196995 
L 397.252567 271.550687 
L 397.553723 271.991822 
L 397.854879 272.656594 
L 399.059502 273.849484 
L 399.661813 274.336363 
L 400.264125 274.811722 
L 401.167592 275.416255 
L 401.769904 276.124805 
L 402.372215 276.18509 
L 402.974527 275.944633 
L 403.877994 275.13814 
L 405.684929 274.451747 
L 406.889552 274.290229 
L 408.094175 274.353199 
L 408.395331 274.414802 
L 408.997642 274.961508 
L 409.298798 275.969257 
L 409.599954 275.969257 
L 409.90111 277.549734 
L 410.202265 277.75857 
L 410.804577 278.34835 
L 411.105733 278.447198 
L 411.406888 278.296817 
L 411.708044 277.824274 
L 412.0092 277.108491 
L 412.310356 276.826122 
L 412.611511 276.207669 
L 412.912667 274.831973 
L 413.213823 274.831973 
L 413.514979 272.81751 
L 413.816135 272.519662 
L 414.719602 270.97301 
L 415.321913 271.031266 
L 415.623069 271.135748 
L 416.225381 271.819497 
L 417.128848 275.543494 
L 417.430004 275.998337 
L 418.333471 278.43459 
L 418.634627 279.187308 
L 418.935783 279.528475 
L 419.236938 279.427959 
L 419.83925 278.823326 
L 420.140406 278.385891 
L 420.742717 276.860987 
L 421.345029 276.431721 
L 421.646185 276.402112 
L 421.94734 276.485127 
L 422.248496 276.773184 
L 422.549652 277.337963 
L 423.151963 278.002339 
L 423.453119 278.458671 
L 423.754275 279.89775 
L 424.055431 279.89775 
L 424.356586 283.702589 
L 424.657742 284.49932 
L 425.260054 287.910463 
L 425.862365 293.408736 
L 426.163521 295.205057 
L 426.464677 295.72837 
L 427.368144 298.691187 
L 427.6693 298.691187 
L 427.970456 299.49062 
L 428.873923 299.703068 
L 429.175079 299.626343 
L 429.476234 299.237022 
L 430.680858 294.979456 
L 430.982013 292.060994 
L 431.283169 292.060994 
L 431.584325 286.84862 
L 431.885481 285.924478 
L 432.186636 284.051531 
L 432.186636 284.051531 
" clip-path="url(#p81253bdf4a)" style="fill: none; stroke: #008000; stroke-width: 1.5; stroke-linecap: square"/>
   </g>
   <g id="patch_13">
    <path d="M 58.106 301.9975 
L 58.106 251.52 
" style="fill: none; stroke: #000000; stroke-width: 0.8; stroke-linejoin: miter; stroke-linecap: square"/>
   </g>
   <g id="patch_14">
    <path d="M 450 301.9975 
L 450 251.52 
" style="fill: none; stroke: #000000; stroke-width: 0.8; stroke-linejoin: miter; stroke-linecap: square"/>
   </g>
   <g id="patch_15">
    <path d="M 58.106 301.9975 
L 450 301.9975 
" style="fill: none; stroke: #000000; stroke-width: 0.8; stroke-linejoin: miter; stroke-linecap: square"/>
   </g>
   <g id="patch_16">
    <path d="M 58.106 251.52 
L 450 251.52 
" style="fill: none; stroke: #000000; stroke-width: 0.8; stroke-linejoin: miter; stroke-linecap: square"/>
   </g>
   <g id="text_38">
    <!-- Error in swing angle -->
    <g transform="translate(194.282688 245.52)scale(0.12 -0.12)">
     <defs>
      <path id="DejaVuSans-77" d="M 269 3500 
L 844 3500 
L 1563 769 
L 2278 3500 
L 2956 3500 
L 3675 769 
L 4391 3500 
L 4966 3500 
L 4050 0 
L 3372 0 
L 2619 2869 
L 1863 0 
L 1184 0 
L 269 3500 
z
" transform="scale(0.015625)"/>
      <path id="DejaVuSans-67" d="M 2906 1791 
Q 2906 2416 2648 2759 
Q 2391 3103 1925 3103 
Q 1463 3103 1205 2759 
Q 947 2416 947 1791 
Q 947 1169 1205 825 
Q 1463 481 1925 481 
Q 2391 481 2648 825 
Q 2906 1169 2906 1791 
z
M 3481 434 
Q 3481 -459 3084 -895 
Q 2688 -1331 1869 -1331 
Q 1566 -1331 1297 -1286 
Q 1028 -1241 775 -1147 
L 775 -588 
Q 1028 -725 1275 -790 
Q 1522 -856 1778 -856 
Q 2344 -856 2625 -561 
Q 2906 -266 2906 331 
L 2906 616 
Q 2728 306 2450 153 
Q 2172 0 1784 0 
Q 1141 0 747 490 
Q 353 981 353 1791 
Q 353 2603 747 3093 
Q 1141 3584 1784 3584 
Q 2172 3584 2450 3431 
Q 2728 3278 2906 2969 
L 2906 3500 
L 3481 3500 
L 3481 434 
z
" transform="scale(0.015625)"/>
      <path id="DejaVuSans-6c" d="M 603 4863 
L 1178 4863 
L 1178 0 
L 603 0 
L 603 4863 
z
" transform="scale(0.015625)"/>
      <path id="DejaVuSans-65" d="M 3597 1894 
L 3597 1613 
L 953 1613 
Q 991 1019 1311 708 
Q 1631 397 2203 397 
Q 2534 397 2845 478 
Q 3156 559 3463 722 
L 3463 178 
Q 3153 47 2828 -22 
Q 2503 -91 2169 -91 
Q 1331 -91 842 396 
Q 353 884 353 1716 
Q 353 2575 817 3079 
Q 1281 3584 2069 3584 
Q 2775 3584 3186 3129 
Q 3597 2675 3597 1894 
z
M 3022 2063 
Q 3016 2534 2758 2815 
Q 2500 3097 2075 3097 
Q 1594 3097 1305 2825 
Q 1016 2553 972 2059 
L 3022 2063 
z
" transform="scale(0.015625)"/>
     </defs>
     <use xlink:href="#DejaVuSans-45"/>
     <use xlink:href="#DejaVuSans-72" x="63.183594"/>
     <use xlink:href="#DejaVuSans-72" x="102.546875"/>
     <use xlink:href="#DejaVuSans-6f" x="141.410156"/>
     <use xlink:href="#DejaVuSans-72" x="202.591797"/>
     <use xlink:href="#DejaVuSans-20" x="243.705078"/>
     <use xlink:href="#DejaVuSans-69" x="275.492188"/>
     <use xlink:href="#DejaVuSans-6e" x="303.275391"/>
     <use xlink:href="#DejaVuSans-20" x="366.654297"/>
     <use xlink:href="#DejaVuSans-73" x="398.441406"/>
     <use xlink:href="#DejaVuSans-77" x="450.541016"/>
     <use xlink:href="#DejaVuSans-69" x="532.328125"/>
     <use xlink:href="#DejaVuSans-6e" x="560.111328"/>
     <use xlink:href="#DejaVuSans-67" x="623.490234"/>
     <use xlink:href="#DejaVuSans-20" x="686.966797"/>
     <use xlink:href="#DejaVuSans-61" x="718.753906"/>
     <use xlink:href="#DejaVuSans-6e" x="780.033203"/>
     <use xlink:href="#DejaVuSans-67" x="843.412109"/>
     <use xlink:href="#DejaVuSans-6c" x="906.888672"/>
     <use xlink:href="#DejaVuSans-65" x="934.671875"/>
    </g>
   </g>
  </g>
 </g>
 <defs>
  <clipPath id="peafa0b2cb0">
   <rect x="58.106" y="28.32" width="391.894" height="50.4775"/>
  </clipPath>
  <clipPath id="paced20cffa">
   <rect x="58.106" y="139.92" width="391.894" height="50.4775"/>
  </clipPath>
  <clipPath id="p81253bdf4a">
   <rect x="58.106" y="251.52" width="391.894" height="50.4775"/>
  </clipPath>
 </defs>
</svg>
