<?xml version="1.0" encoding="utf-8" standalone="no"?>
<!DOCTYPE svg PUBLIC "-//W3C//DTD SVG 1.1//EN"
  "http://www.w3.org/Graphics/SVG/1.1/DTD/svg11.dtd">
<svg xmlns:xlink="http://www.w3.org/1999/xlink" width="460.8pt" height="345.6pt" viewBox="0 0 460.8 345.6" xmlns="http://www.w3.org/2000/svg" version="1.1">
 <metadata>
  <rdf:RDF xmlns:dc="http://purl.org/dc/elements/1.1/" xmlns:cc="http://creativecommons.org/ns#" xmlns:rdf="http://www.w3.org/1999/02/22-rdf-syntax-ns#">
   <cc:Work>
    <dc:type rdf:resource="http://purl.org/dc/dcmitype/StillImage"/>
    <dc:date>2022-06-05T18:42:56.398858</dc:date>
    <dc:format>image/svg+xml</dc:format>
    <dc:creator>
     <cc:Agent>
      <dc:title>Matplotlib v3.5.1, https://matplotlib.org/</dc:title>
     </cc:Agent>
    </dc:creator>
   </cc:Work>
  </rdf:RDF>
 </metadata>
 <defs>
  <style type="text/css">*{stroke-linejoin: round; stroke-linecap: butt}</style>
 </defs>
 <g id="figure_1">
  <g id="patch_1">
   <path d="M 0 345.6 
L 460.8 345.6 
L 460.8 0 
L 0 0 
z
" style="fill: #ffffff"/>
  </g>
  <g id="axes_1">
   <g id="patch_2">
    <path d="M 70.616 78.7975 
L 450 78.7975 
L 450 28.32 
L 70.616 28.32 
z
" style="fill: #ffffff"/>
   </g>
   <g id="matplotlib.axis_1">
    <g id="xtick_1">
     <g id="line2d_1">
      <path d="M 87.860727 78.7975 
L 87.860727 28.32 
" clip-path="url(#pd27e79a6fc)" style="fill: none; stroke: #b0b0b0; stroke-width: 0.8; stroke-linecap: square"/>
     </g>
     <g id="line2d_2">
      <defs>
       <path id="m5cb7a1eee1" d="M 0 0 
L 0 3.5 
" style="stroke: #000000; stroke-width: 0.8"/>
      </defs>
      <g>
       <use xlink:href="#m5cb7a1eee1" x="87.860727" y="78.7975" style="stroke: #000000; stroke-width: 0.8"/>
      </g>
     </g>
     <g id="text_1">
      <!-- 0 -->
      <g transform="translate(84.679477 93.395937)scale(0.1 -0.1)">
       <defs>
        <path id="DejaVuSans-30" d="M 2034 4250 
Q 1547 4250 1301 3770 
Q 1056 3291 1056 2328 
Q 1056 1369 1301 889 
Q 1547 409 2034 409 
Q 2525 409 2770 889 
Q 3016 1369 3016 2328 
Q 3016 3291 2770 3770 
Q 2525 4250 2034 4250 
z
M 2034 4750 
Q 2819 4750 3233 4129 
Q 3647 3509 3647 2328 
Q 3647 1150 3233 529 
Q 2819 -91 2034 -91 
Q 1250 -91 836 529 
Q 422 1150 422 2328 
Q 422 3509 836 4129 
Q 1250 4750 2034 4750 
z
" transform="scale(0.015625)"/>
       </defs>
       <use xlink:href="#DejaVuSans-30"/>
      </g>
     </g>
    </g>
    <g id="xtick_2">
     <g id="line2d_3">
      <path d="M 136.712646 78.7975 
L 136.712646 28.32 
" clip-path="url(#pd27e79a6fc)" style="fill: none; stroke: #b0b0b0; stroke-width: 0.8; stroke-linecap: square"/>
     </g>
     <g id="line2d_4">
      <g>
       <use xlink:href="#m5cb7a1eee1" x="136.712646" y="78.7975" style="stroke: #000000; stroke-width: 0.8"/>
      </g>
     </g>
     <g id="text_2">
      <!-- 1 -->
      <g transform="translate(133.531396 93.395937)scale(0.1 -0.1)">
       <defs>
        <path id="DejaVuSans-31" d="M 794 531 
L 1825 531 
L 1825 4091 
L 703 3866 
L 703 4441 
L 1819 4666 
L 2450 4666 
L 2450 531 
L 3481 531 
L 3481 0 
L 794 0 
L 794 531 
z
" transform="scale(0.015625)"/>
       </defs>
       <use xlink:href="#DejaVuSans-31"/>
      </g>
     </g>
    </g>
    <g id="xtick_3">
     <g id="line2d_5">
      <path d="M 185.564565 78.7975 
L 185.564565 28.32 
" clip-path="url(#pd27e79a6fc)" style="fill: none; stroke: #b0b0b0; stroke-width: 0.8; stroke-linecap: square"/>
     </g>
     <g id="line2d_6">
      <g>
       <use xlink:href="#m5cb7a1eee1" x="185.564565" y="78.7975" style="stroke: #000000; stroke-width: 0.8"/>
      </g>
     </g>
     <g id="text_3">
      <!-- 2 -->
      <g transform="translate(182.383315 93.395937)scale(0.1 -0.1)">
       <defs>
        <path id="DejaVuSans-32" d="M 1228 531 
L 3431 531 
L 3431 0 
L 469 0 
L 469 531 
Q 828 903 1448 1529 
Q 2069 2156 2228 2338 
Q 2531 2678 2651 2914 
Q 2772 3150 2772 3378 
Q 2772 3750 2511 3984 
Q 2250 4219 1831 4219 
Q 1534 4219 1204 4116 
Q 875 4013 500 3803 
L 500 4441 
Q 881 4594 1212 4672 
Q 1544 4750 1819 4750 
Q 2544 4750 2975 4387 
Q 3406 4025 3406 3419 
Q 3406 3131 3298 2873 
Q 3191 2616 2906 2266 
Q 2828 2175 2409 1742 
Q 1991 1309 1228 531 
z
" transform="scale(0.015625)"/>
       </defs>
       <use xlink:href="#DejaVuSans-32"/>
      </g>
     </g>
    </g>
    <g id="xtick_4">
     <g id="line2d_7">
      <path d="M 234.416483 78.7975 
L 234.416483 28.32 
" clip-path="url(#pd27e79a6fc)" style="fill: none; stroke: #b0b0b0; stroke-width: 0.8; stroke-linecap: square"/>
     </g>
     <g id="line2d_8">
      <g>
       <use xlink:href="#m5cb7a1eee1" x="234.416483" y="78.7975" style="stroke: #000000; stroke-width: 0.8"/>
      </g>
     </g>
     <g id="text_4">
      <!-- 3 -->
      <g transform="translate(231.235233 93.395937)scale(0.1 -0.1)">
       <defs>
        <path id="DejaVuSans-33" d="M 2597 2516 
Q 3050 2419 3304 2112 
Q 3559 1806 3559 1356 
Q 3559 666 3084 287 
Q 2609 -91 1734 -91 
Q 1441 -91 1130 -33 
Q 819 25 488 141 
L 488 750 
Q 750 597 1062 519 
Q 1375 441 1716 441 
Q 2309 441 2620 675 
Q 2931 909 2931 1356 
Q 2931 1769 2642 2001 
Q 2353 2234 1838 2234 
L 1294 2234 
L 1294 2753 
L 1863 2753 
Q 2328 2753 2575 2939 
Q 2822 3125 2822 3475 
Q 2822 3834 2567 4026 
Q 2313 4219 1838 4219 
Q 1578 4219 1281 4162 
Q 984 4106 628 3988 
L 628 4550 
Q 988 4650 1302 4700 
Q 1616 4750 1894 4750 
Q 2613 4750 3031 4423 
Q 3450 4097 3450 3541 
Q 3450 3153 3228 2886 
Q 3006 2619 2597 2516 
z
" transform="scale(0.015625)"/>
       </defs>
       <use xlink:href="#DejaVuSans-33"/>
      </g>
     </g>
    </g>
    <g id="xtick_5">
     <g id="line2d_9">
      <path d="M 283.268402 78.7975 
L 283.268402 28.32 
" clip-path="url(#pd27e79a6fc)" style="fill: none; stroke: #b0b0b0; stroke-width: 0.8; stroke-linecap: square"/>
     </g>
     <g id="line2d_10">
      <g>
       <use xlink:href="#m5cb7a1eee1" x="283.268402" y="78.7975" style="stroke: #000000; stroke-width: 0.8"/>
      </g>
     </g>
     <g id="text_5">
      <!-- 4 -->
      <g transform="translate(280.087152 93.395937)scale(0.1 -0.1)">
       <defs>
        <path id="DejaVuSans-34" d="M 2419 4116 
L 825 1625 
L 2419 1625 
L 2419 4116 
z
M 2253 4666 
L 3047 4666 
L 3047 1625 
L 3713 1625 
L 3713 1100 
L 3047 1100 
L 3047 0 
L 2419 0 
L 2419 1100 
L 313 1100 
L 313 1709 
L 2253 4666 
z
" transform="scale(0.015625)"/>
       </defs>
       <use xlink:href="#DejaVuSans-34"/>
      </g>
     </g>
    </g>
    <g id="xtick_6">
     <g id="line2d_11">
      <path d="M 332.12032 78.7975 
L 332.12032 28.32 
" clip-path="url(#pd27e79a6fc)" style="fill: none; stroke: #b0b0b0; stroke-width: 0.8; stroke-linecap: square"/>
     </g>
     <g id="line2d_12">
      <g>
       <use xlink:href="#m5cb7a1eee1" x="332.12032" y="78.7975" style="stroke: #000000; stroke-width: 0.8"/>
      </g>
     </g>
     <g id="text_6">
      <!-- 5 -->
      <g transform="translate(328.93907 93.395937)scale(0.1 -0.1)">
       <defs>
        <path id="DejaVuSans-35" d="M 691 4666 
L 3169 4666 
L 3169 4134 
L 1269 4134 
L 1269 2991 
Q 1406 3038 1543 3061 
Q 1681 3084 1819 3084 
Q 2600 3084 3056 2656 
Q 3513 2228 3513 1497 
Q 3513 744 3044 326 
Q 2575 -91 1722 -91 
Q 1428 -91 1123 -41 
Q 819 9 494 109 
L 494 744 
Q 775 591 1075 516 
Q 1375 441 1709 441 
Q 2250 441 2565 725 
Q 2881 1009 2881 1497 
Q 2881 1984 2565 2268 
Q 2250 2553 1709 2553 
Q 1456 2553 1204 2497 
Q 953 2441 691 2322 
L 691 4666 
z
" transform="scale(0.015625)"/>
       </defs>
       <use xlink:href="#DejaVuSans-35"/>
      </g>
     </g>
    </g>
    <g id="xtick_7">
     <g id="line2d_13">
      <path d="M 380.972239 78.7975 
L 380.972239 28.32 
" clip-path="url(#pd27e79a6fc)" style="fill: none; stroke: #b0b0b0; stroke-width: 0.8; stroke-linecap: square"/>
     </g>
     <g id="line2d_14">
      <g>
       <use xlink:href="#m5cb7a1eee1" x="380.972239" y="78.7975" style="stroke: #000000; stroke-width: 0.8"/>
      </g>
     </g>
     <g id="text_7">
      <!-- 6 -->
      <g transform="translate(377.790989 93.395937)scale(0.1 -0.1)">
       <defs>
        <path id="DejaVuSans-36" d="M 2113 2584 
Q 1688 2584 1439 2293 
Q 1191 2003 1191 1497 
Q 1191 994 1439 701 
Q 1688 409 2113 409 
Q 2538 409 2786 701 
Q 3034 994 3034 1497 
Q 3034 2003 2786 2293 
Q 2538 2584 2113 2584 
z
M 3366 4563 
L 3366 3988 
Q 3128 4100 2886 4159 
Q 2644 4219 2406 4219 
Q 1781 4219 1451 3797 
Q 1122 3375 1075 2522 
Q 1259 2794 1537 2939 
Q 1816 3084 2150 3084 
Q 2853 3084 3261 2657 
Q 3669 2231 3669 1497 
Q 3669 778 3244 343 
Q 2819 -91 2113 -91 
Q 1303 -91 875 529 
Q 447 1150 447 2328 
Q 447 3434 972 4092 
Q 1497 4750 2381 4750 
Q 2619 4750 2861 4703 
Q 3103 4656 3366 4563 
z
" transform="scale(0.015625)"/>
       </defs>
       <use xlink:href="#DejaVuSans-36"/>
      </g>
     </g>
    </g>
    <g id="xtick_8">
     <g id="line2d_15">
      <path d="M 429.824158 78.7975 
L 429.824158 28.32 
" clip-path="url(#pd27e79a6fc)" style="fill: none; stroke: #b0b0b0; stroke-width: 0.8; stroke-linecap: square"/>
     </g>
     <g id="line2d_16">
      <g>
       <use xlink:href="#m5cb7a1eee1" x="429.824158" y="78.7975" style="stroke: #000000; stroke-width: 0.8"/>
      </g>
     </g>
     <g id="text_8">
      <!-- 7 -->
      <g transform="translate(426.642908 93.395937)scale(0.1 -0.1)">
       <defs>
        <path id="DejaVuSans-37" d="M 525 4666 
L 3525 4666 
L 3525 4397 
L 1831 0 
L 1172 0 
L 2766 4134 
L 525 4134 
L 525 4666 
z
" transform="scale(0.015625)"/>
       </defs>
       <use xlink:href="#DejaVuSans-37"/>
      </g>
     </g>
    </g>
    <g id="text_9">
     <!-- $t$ [s] -->
     <g transform="translate(250.208 107.074062)scale(0.1 -0.1)">
      <defs>
       <path id="DejaVuSans-Oblique-74" d="M 2706 3500 
L 2619 3053 
L 1472 3053 
L 1100 1153 
Q 1081 1047 1072 975 
Q 1063 903 1063 863 
Q 1063 663 1183 572 
Q 1303 481 1569 481 
L 2150 481 
L 2053 0 
L 1503 0 
Q 991 0 739 200 
Q 488 400 488 806 
Q 488 878 497 964 
Q 506 1050 525 1153 
L 897 3053 
L 409 3053 
L 500 3500 
L 978 3500 
L 1172 4494 
L 1747 4494 
L 1556 3500 
L 2706 3500 
z
" transform="scale(0.015625)"/>
       <path id="DejaVuSans-20" transform="scale(0.015625)"/>
       <path id="DejaVuSans-5b" d="M 550 4863 
L 1875 4863 
L 1875 4416 
L 1125 4416 
L 1125 -397 
L 1875 -397 
L 1875 -844 
L 550 -844 
L 550 4863 
z
" transform="scale(0.015625)"/>
       <path id="DejaVuSans-73" d="M 2834 3397 
L 2834 2853 
Q 2591 2978 2328 3040 
Q 2066 3103 1784 3103 
Q 1356 3103 1142 2972 
Q 928 2841 928 2578 
Q 928 2378 1081 2264 
Q 1234 2150 1697 2047 
L 1894 2003 
Q 2506 1872 2764 1633 
Q 3022 1394 3022 966 
Q 3022 478 2636 193 
Q 2250 -91 1575 -91 
Q 1294 -91 989 -36 
Q 684 19 347 128 
L 347 722 
Q 666 556 975 473 
Q 1284 391 1588 391 
Q 1994 391 2212 530 
Q 2431 669 2431 922 
Q 2431 1156 2273 1281 
Q 2116 1406 1581 1522 
L 1381 1569 
Q 847 1681 609 1914 
Q 372 2147 372 2553 
Q 372 3047 722 3315 
Q 1072 3584 1716 3584 
Q 2034 3584 2315 3537 
Q 2597 3491 2834 3397 
z
" transform="scale(0.015625)"/>
       <path id="DejaVuSans-5d" d="M 1947 4863 
L 1947 -844 
L 622 -844 
L 622 -397 
L 1369 -397 
L 1369 4416 
L 622 4416 
L 622 4863 
L 1947 4863 
z
" transform="scale(0.015625)"/>
      </defs>
      <use xlink:href="#DejaVuSans-Oblique-74" transform="translate(0 0.015625)"/>
      <use xlink:href="#DejaVuSans-20" transform="translate(39.208984 0.015625)"/>
      <use xlink:href="#DejaVuSans-5b" transform="translate(70.996094 0.015625)"/>
      <use xlink:href="#DejaVuSans-73" transform="translate(110.009766 0.015625)"/>
      <use xlink:href="#DejaVuSans-5d" transform="translate(162.109375 0.015625)"/>
     </g>
    </g>
   </g>
   <g id="matplotlib.axis_2">
    <g id="ytick_1">
     <g id="line2d_17">
      <path d="M 70.616 67.807028 
L 450 67.807028 
" clip-path="url(#pd27e79a6fc)" style="fill: none; stroke: #b0b0b0; stroke-width: 0.8; stroke-linecap: square"/>
     </g>
     <g id="line2d_18">
      <defs>
       <path id="m7ec78d3fd5" d="M 0 0 
L -3.5 0 
" style="stroke: #000000; stroke-width: 0.8"/>
      </defs>
      <g>
       <use xlink:href="#m7ec78d3fd5" x="70.616" y="67.807028" style="stroke: #000000; stroke-width: 0.8"/>
      </g>
     </g>
     <g id="text_10">
      <!-- 0 -->
      <g transform="translate(57.2535 71.606246)scale(0.1 -0.1)">
       <use xlink:href="#DejaVuSans-30"/>
      </g>
     </g>
    </g>
    <g id="ytick_2">
     <g id="line2d_19">
      <path d="M 70.616 30.614432 
L 450 30.614432 
" clip-path="url(#pd27e79a6fc)" style="fill: none; stroke: #b0b0b0; stroke-width: 0.8; stroke-linecap: square"/>
     </g>
     <g id="line2d_20">
      <g>
       <use xlink:href="#m7ec78d3fd5" x="70.616" y="30.614432" style="stroke: #000000; stroke-width: 0.8"/>
      </g>
     </g>
     <g id="text_11">
      <!-- 10 -->
      <g transform="translate(50.891 34.413651)scale(0.1 -0.1)">
       <use xlink:href="#DejaVuSans-31"/>
       <use xlink:href="#DejaVuSans-30" x="63.623047"/>
      </g>
     </g>
    </g>
    <g id="text_12">
     <!-- $e_x$ [m] -->
     <g transform="translate(44.811312 69.20875)rotate(-90)scale(0.1 -0.1)">
      <defs>
       <path id="DejaVuSans-Oblique-65" d="M 3078 2063 
Q 3088 2113 3092 2166 
Q 3097 2219 3097 2272 
Q 3097 2653 2873 2875 
Q 2650 3097 2266 3097 
Q 1838 3097 1509 2826 
Q 1181 2556 1013 2059 
L 3078 2063 
z
M 3578 1613 
L 903 1613 
Q 884 1494 878 1425 
Q 872 1356 872 1306 
Q 872 872 1139 634 
Q 1406 397 1894 397 
Q 2269 397 2603 481 
Q 2938 566 3225 728 
L 3116 159 
Q 2806 34 2476 -28 
Q 2147 -91 1806 -91 
Q 1078 -91 686 257 
Q 294 606 294 1247 
Q 294 1794 489 2264 
Q 684 2734 1063 3103 
Q 1306 3334 1642 3459 
Q 1978 3584 2356 3584 
Q 2950 3584 3301 3228 
Q 3653 2872 3653 2272 
Q 3653 2128 3634 1964 
Q 3616 1800 3578 1613 
z
" transform="scale(0.015625)"/>
       <path id="DejaVuSans-Oblique-78" d="M 3841 3500 
L 2234 1784 
L 3219 0 
L 2559 0 
L 1819 1388 
L 531 0 
L -166 0 
L 1556 1844 
L 641 3500 
L 1300 3500 
L 1972 2234 
L 3144 3500 
L 3841 3500 
z
" transform="scale(0.015625)"/>
       <path id="DejaVuSans-6d" d="M 3328 2828 
Q 3544 3216 3844 3400 
Q 4144 3584 4550 3584 
Q 5097 3584 5394 3201 
Q 5691 2819 5691 2113 
L 5691 0 
L 5113 0 
L 5113 2094 
Q 5113 2597 4934 2840 
Q 4756 3084 4391 3084 
Q 3944 3084 3684 2787 
Q 3425 2491 3425 1978 
L 3425 0 
L 2847 0 
L 2847 2094 
Q 2847 2600 2669 2842 
Q 2491 3084 2119 3084 
Q 1678 3084 1418 2786 
Q 1159 2488 1159 1978 
L 1159 0 
L 581 0 
L 581 3500 
L 1159 3500 
L 1159 2956 
Q 1356 3278 1631 3431 
Q 1906 3584 2284 3584 
Q 2666 3584 2933 3390 
Q 3200 3197 3328 2828 
z
" transform="scale(0.015625)"/>
      </defs>
      <use xlink:href="#DejaVuSans-Oblique-65" transform="translate(0 0.015625)"/>
      <use xlink:href="#DejaVuSans-Oblique-78" transform="translate(61.523438 -16.390625)scale(0.7)"/>
      <use xlink:href="#DejaVuSans-20" transform="translate(105.683594 0.015625)"/>
      <use xlink:href="#DejaVuSans-5b" transform="translate(137.470703 0.015625)"/>
      <use xlink:href="#DejaVuSans-6d" transform="translate(176.484375 0.015625)"/>
      <use xlink:href="#DejaVuSans-5d" transform="translate(273.896484 0.015625)"/>
     </g>
    </g>
   </g>
   <g id="line2d_21">
    <path d="M 87.860727 30.614432 
L 99.112606 30.720316 
L 104.983152 30.968103 
L 113.78897 31.715427 
L 125.040848 33.266371 
L 126.019273 33.454658 
L 128.954545 33.879467 
L 129.443758 34.014663 
L 129.93297 34.014663 
L 130.422182 34.221313 
L 131.889818 34.397012 
L 132.37903 34.539834 
L 132.868242 34.539834 
L 133.357455 34.757837 
L 134.825091 34.942953 
L 136.292727 35.284146 
L 137.271152 35.517391 
L 137.760364 35.517391 
L 139.228 35.876166 
L 140.206424 36.121446 
L 140.695636 36.121446 
L 141.674061 36.371748 
L 143.141697 36.670271 
L 144.120121 36.931859 
L 145.587758 37.24385 
L 147.055394 37.563303 
L 148.033818 37.843148 
L 149.990667 38.273455 
L 150.969091 38.567388 
L 153.415152 39.120971 
L 154.393576 39.430928 
L 156.350424 39.906402 
L 157.328848 40.230367 
L 159.285697 40.726694 
L 160.264121 41.064439 
L 161.242545 41.292626 
L 161.731758 41.523214 
L 162.22097 41.523214 
L 162.710182 41.873565 
L 163.688606 42.050739 
L 164.177818 42.169586 
L 164.66703 42.409036 
L 165.156242 42.409036 
L 165.645455 42.772551 
L 166.623879 42.956245 
L 167.113091 43.079419 
L 168.091515 43.452316 
L 169.069939 43.830217 
L 170.048364 44.021013 
L 170.537576 44.277299 
L 171.026788 44.277299 
L 171.516 44.665716 
L 172.494424 44.861691 
L 173.962061 45.323456 
L 174.451273 45.590093 
L 175.918909 45.993738 
L 176.408121 46.33342 
L 176.897333 46.33342 
L 177.386545 46.607286 
L 179.343394 47.230191 
L 179.832606 47.509944 
L 182.278667 48.288133 
L 182.767879 48.574238 
L 184.724727 49.151265 
L 185.213939 49.515073 
L 185.703152 49.515073 
L 186.192364 49.807824 
L 187.66 50.249711 
L 188.638424 50.769329 
L 189.127636 50.993332 
L 190.106061 51.218106 
L 191.573697 51.745527 
L 192.062909 52.048729 
L 193.530545 52.505968 
L 194.50897 53.043053 
L 194.998182 53.274422 
L 195.976606 53.506499 
L 196.465818 53.66161 
L 197.444242 54.206974 
L 197.933455 54.441882 
L 198.911879 54.677498 
L 199.401091 54.834971 
L 199.890303 55.230045 
L 200.379515 55.230045 
L 200.868727 55.547546 
L 202.336364 56.026225 
L 203.314788 56.588421 
L 203.804 56.830614 
L 204.782424 56.992496 
L 206.739273 57.888983 
L 208.206909 58.464564 
L 208.696121 58.794902 
L 210.65297 59.54056 
L 211.142182 59.872344 
L 213.588242 60.782295 
L 214.077455 61.111114 
L 216.034303 61.844036 
L 216.523515 62.165905 
L 217.012727 62.165905 
L 217.501939 62.484972 
L 218.969576 63.035878 
L 219.458788 63.346067 
L 219.948 63.346067 
L 220.437212 63.652679 
L 221.904848 64.180183 
L 222.394061 64.476206 
L 222.883273 64.476206 
L 223.372485 64.768161 
L 225.329333 65.409757 
L 225.818545 65.688035 
L 228.264606 66.431829 
L 228.753818 66.694653 
L 231.199879 67.396947 
L 231.689091 67.644994 
L 234.624364 68.424444 
L 235.602788 68.770414 
L 237.559636 69.272999 
L 238.538061 69.597087 
L 240.494909 70.066692 
L 241.473333 70.368719 
L 242.94097 70.710086 
L 243.919394 70.993706 
L 245.38703 71.314799 
L 245.876242 71.493844 
L 246.365455 71.493844 
L 247.343879 71.756733 
L 248.322303 71.970844 
L 248.811515 72.13901 
L 249.300727 72.13901 
L 249.789939 72.30447 
L 250.279152 72.30447 
L 250.768364 72.547663 
L 252.236 72.745776 
L 255.171273 73.314937 
L 255.660485 73.46014 
L 256.149697 73.46014 
L 256.638909 73.67251 
L 258.595758 73.911761 
L 262.509455 74.599833 
L 275.22897 75.996276 
L 285.013212 76.464937 
L 296.754303 76.357245 
L 302.624848 76.073596 
L 307.51697 75.751133 
L 309.473818 75.59341 
L 312.898303 75.294719 
L 314.365939 75.121048 
L 318.768848 74.650164 
L 320.236485 74.462056 
L 323.66097 74.031016 
L 328.063879 73.346986 
L 328.553091 73.346986 
L 330.020727 73.067037 
L 333.934424 72.364046 
L 334.423636 72.364046 
L 335.402061 72.151362 
L 336.869697 71.824371 
L 339.80497 71.339836 
L 340.783394 71.113484 
L 342.25103 70.886728 
L 342.740242 70.698154 
L 343.229455 70.698154 
L 344.207879 70.473171 
L 348.121576 69.7805 
L 348.610788 69.605697 
L 349.1 69.605697 
L 350.078424 69.40123 
L 353.992121 68.797797 
L 354.481333 68.651213 
L 354.970545 68.651213 
L 355.94897 68.482412 
L 369.646909 67.060775 
L 380.409576 66.586039 
L 390.68303 66.480605 
L 398.999636 66.6022 
L 402.424121 66.714847 
L 411.719152 67.050697 
L 416.122061 67.231587 
L 432.755273 67.761156 
L 432.755273 67.761156 
" clip-path="url(#pd27e79a6fc)" style="fill: none; stroke: #ff0000; stroke-width: 1.5; stroke-linecap: square"/>
   </g>
   <g id="patch_3">
    <path d="M 70.616 78.7975 
L 70.616 28.32 
" style="fill: none; stroke: #000000; stroke-width: 0.8; stroke-linejoin: miter; stroke-linecap: square"/>
   </g>
   <g id="patch_4">
    <path d="M 450 78.7975 
L 450 28.32 
" style="fill: none; stroke: #000000; stroke-width: 0.8; stroke-linejoin: miter; stroke-linecap: square"/>
   </g>
   <g id="patch_5">
    <path d="M 70.616 78.7975 
L 450 78.7975 
" style="fill: none; stroke: #000000; stroke-width: 0.8; stroke-linejoin: miter; stroke-linecap: square"/>
   </g>
   <g id="patch_6">
    <path d="M 70.616 28.32 
L 450 28.32 
" style="fill: none; stroke: #000000; stroke-width: 0.8; stroke-linejoin: miter; stroke-linecap: square"/>
   </g>
   <g id="text_13">
    <!-- Error in $x$-position -->
    <g transform="translate(206.668 22.32)scale(0.12 -0.12)">
     <defs>
      <path id="DejaVuSans-45" d="M 628 4666 
L 3578 4666 
L 3578 4134 
L 1259 4134 
L 1259 2753 
L 3481 2753 
L 3481 2222 
L 1259 2222 
L 1259 531 
L 3634 531 
L 3634 0 
L 628 0 
L 628 4666 
z
" transform="scale(0.015625)"/>
      <path id="DejaVuSans-72" d="M 2631 2963 
Q 2534 3019 2420 3045 
Q 2306 3072 2169 3072 
Q 1681 3072 1420 2755 
Q 1159 2438 1159 1844 
L 1159 0 
L 581 0 
L 581 3500 
L 1159 3500 
L 1159 2956 
Q 1341 3275 1631 3429 
Q 1922 3584 2338 3584 
Q 2397 3584 2469 3576 
Q 2541 3569 2628 3553 
L 2631 2963 
z
" transform="scale(0.015625)"/>
      <path id="DejaVuSans-6f" d="M 1959 3097 
Q 1497 3097 1228 2736 
Q 959 2375 959 1747 
Q 959 1119 1226 758 
Q 1494 397 1959 397 
Q 2419 397 2687 759 
Q 2956 1122 2956 1747 
Q 2956 2369 2687 2733 
Q 2419 3097 1959 3097 
z
M 1959 3584 
Q 2709 3584 3137 3096 
Q 3566 2609 3566 1747 
Q 3566 888 3137 398 
Q 2709 -91 1959 -91 
Q 1206 -91 779 398 
Q 353 888 353 1747 
Q 353 2609 779 3096 
Q 1206 3584 1959 3584 
z
" transform="scale(0.015625)"/>
      <path id="DejaVuSans-69" d="M 603 3500 
L 1178 3500 
L 1178 0 
L 603 0 
L 603 3500 
z
M 603 4863 
L 1178 4863 
L 1178 4134 
L 603 4134 
L 603 4863 
z
" transform="scale(0.015625)"/>
      <path id="DejaVuSans-6e" d="M 3513 2113 
L 3513 0 
L 2938 0 
L 2938 2094 
Q 2938 2591 2744 2837 
Q 2550 3084 2163 3084 
Q 1697 3084 1428 2787 
Q 1159 2491 1159 1978 
L 1159 0 
L 581 0 
L 581 3500 
L 1159 3500 
L 1159 2956 
Q 1366 3272 1645 3428 
Q 1925 3584 2291 3584 
Q 2894 3584 3203 3211 
Q 3513 2838 3513 2113 
z
" transform="scale(0.015625)"/>
      <path id="DejaVuSans-2d" d="M 313 2009 
L 1997 2009 
L 1997 1497 
L 313 1497 
L 313 2009 
z
" transform="scale(0.015625)"/>
      <path id="DejaVuSans-70" d="M 1159 525 
L 1159 -1331 
L 581 -1331 
L 581 3500 
L 1159 3500 
L 1159 2969 
Q 1341 3281 1617 3432 
Q 1894 3584 2278 3584 
Q 2916 3584 3314 3078 
Q 3713 2572 3713 1747 
Q 3713 922 3314 415 
Q 2916 -91 2278 -91 
Q 1894 -91 1617 61 
Q 1341 213 1159 525 
z
M 3116 1747 
Q 3116 2381 2855 2742 
Q 2594 3103 2138 3103 
Q 1681 3103 1420 2742 
Q 1159 2381 1159 1747 
Q 1159 1113 1420 752 
Q 1681 391 2138 391 
Q 2594 391 2855 752 
Q 3116 1113 3116 1747 
z
" transform="scale(0.015625)"/>
      <path id="DejaVuSans-74" d="M 1172 4494 
L 1172 3500 
L 2356 3500 
L 2356 3053 
L 1172 3053 
L 1172 1153 
Q 1172 725 1289 603 
Q 1406 481 1766 481 
L 2356 481 
L 2356 0 
L 1766 0 
Q 1100 0 847 248 
Q 594 497 594 1153 
L 594 3053 
L 172 3053 
L 172 3500 
L 594 3500 
L 594 4494 
L 1172 4494 
z
" transform="scale(0.015625)"/>
     </defs>
     <use xlink:href="#DejaVuSans-45" transform="translate(0 0.015625)"/>
     <use xlink:href="#DejaVuSans-72" transform="translate(63.183594 0.015625)"/>
     <use xlink:href="#DejaVuSans-72" transform="translate(104.296875 0.015625)"/>
     <use xlink:href="#DejaVuSans-6f" transform="translate(145.410156 0.015625)"/>
     <use xlink:href="#DejaVuSans-72" transform="translate(206.591797 0.015625)"/>
     <use xlink:href="#DejaVuSans-20" transform="translate(247.705078 0.015625)"/>
     <use xlink:href="#DejaVuSans-69" transform="translate(279.492188 0.015625)"/>
     <use xlink:href="#DejaVuSans-6e" transform="translate(307.275391 0.015625)"/>
     <use xlink:href="#DejaVuSans-20" transform="translate(370.654297 0.015625)"/>
     <use xlink:href="#DejaVuSans-Oblique-78" transform="translate(402.441406 0.015625)"/>
     <use xlink:href="#DejaVuSans-2d" transform="translate(461.621094 0.015625)"/>
     <use xlink:href="#DejaVuSans-70" transform="translate(497.705078 0.015625)"/>
     <use xlink:href="#DejaVuSans-6f" transform="translate(561.181641 0.015625)"/>
     <use xlink:href="#DejaVuSans-73" transform="translate(622.363281 0.015625)"/>
     <use xlink:href="#DejaVuSans-69" transform="translate(674.462891 0.015625)"/>
     <use xlink:href="#DejaVuSans-74" transform="translate(702.246094 0.015625)"/>
     <use xlink:href="#DejaVuSans-69" transform="translate(741.455078 0.015625)"/>
     <use xlink:href="#DejaVuSans-6f" transform="translate(769.238281 0.015625)"/>
     <use xlink:href="#DejaVuSans-6e" transform="translate(830.419922 0.015625)"/>
    </g>
   </g>
  </g>
  <g id="axes_2">
   <g id="patch_7">
    <path d="M 70.616 190.3975 
L 450 190.3975 
L 450 139.92 
L 70.616 139.92 
z
" style="fill: #ffffff"/>
   </g>
   <g id="matplotlib.axis_3">
    <g id="xtick_9">
     <g id="line2d_22">
      <path d="M 87.860727 190.3975 
L 87.860727 139.92 
" clip-path="url(#p787853089d)" style="fill: none; stroke: #b0b0b0; stroke-width: 0.8; stroke-linecap: square"/>
     </g>
     <g id="line2d_23">
      <g>
       <use xlink:href="#m5cb7a1eee1" x="87.860727" y="190.3975" style="stroke: #000000; stroke-width: 0.8"/>
      </g>
     </g>
     <g id="text_14">
      <!-- 0 -->
      <g transform="translate(84.679477 204.995937)scale(0.1 -0.1)">
       <use xlink:href="#DejaVuSans-30"/>
      </g>
     </g>
    </g>
    <g id="xtick_10">
     <g id="line2d_24">
      <path d="M 136.712646 190.3975 
L 136.712646 139.92 
" clip-path="url(#p787853089d)" style="fill: none; stroke: #b0b0b0; stroke-width: 0.8; stroke-linecap: square"/>
     </g>
     <g id="line2d_25">
      <g>
       <use xlink:href="#m5cb7a1eee1" x="136.712646" y="190.3975" style="stroke: #000000; stroke-width: 0.8"/>
      </g>
     </g>
     <g id="text_15">
      <!-- 1 -->
      <g transform="translate(133.531396 204.995937)scale(0.1 -0.1)">
       <use xlink:href="#DejaVuSans-31"/>
      </g>
     </g>
    </g>
    <g id="xtick_11">
     <g id="line2d_26">
      <path d="M 185.564565 190.3975 
L 185.564565 139.92 
" clip-path="url(#p787853089d)" style="fill: none; stroke: #b0b0b0; stroke-width: 0.8; stroke-linecap: square"/>
     </g>
     <g id="line2d_27">
      <g>
       <use xlink:href="#m5cb7a1eee1" x="185.564565" y="190.3975" style="stroke: #000000; stroke-width: 0.8"/>
      </g>
     </g>
     <g id="text_16">
      <!-- 2 -->
      <g transform="translate(182.383315 204.995937)scale(0.1 -0.1)">
       <use xlink:href="#DejaVuSans-32"/>
      </g>
     </g>
    </g>
    <g id="xtick_12">
     <g id="line2d_28">
      <path d="M 234.416483 190.3975 
L 234.416483 139.92 
" clip-path="url(#p787853089d)" style="fill: none; stroke: #b0b0b0; stroke-width: 0.8; stroke-linecap: square"/>
     </g>
     <g id="line2d_29">
      <g>
       <use xlink:href="#m5cb7a1eee1" x="234.416483" y="190.3975" style="stroke: #000000; stroke-width: 0.8"/>
      </g>
     </g>
     <g id="text_17">
      <!-- 3 -->
      <g transform="translate(231.235233 204.995937)scale(0.1 -0.1)">
       <use xlink:href="#DejaVuSans-33"/>
      </g>
     </g>
    </g>
    <g id="xtick_13">
     <g id="line2d_30">
      <path d="M 283.268402 190.3975 
L 283.268402 139.92 
" clip-path="url(#p787853089d)" style="fill: none; stroke: #b0b0b0; stroke-width: 0.8; stroke-linecap: square"/>
     </g>
     <g id="line2d_31">
      <g>
       <use xlink:href="#m5cb7a1eee1" x="283.268402" y="190.3975" style="stroke: #000000; stroke-width: 0.8"/>
      </g>
     </g>
     <g id="text_18">
      <!-- 4 -->
      <g transform="translate(280.087152 204.995937)scale(0.1 -0.1)">
       <use xlink:href="#DejaVuSans-34"/>
      </g>
     </g>
    </g>
    <g id="xtick_14">
     <g id="line2d_32">
      <path d="M 332.12032 190.3975 
L 332.12032 139.92 
" clip-path="url(#p787853089d)" style="fill: none; stroke: #b0b0b0; stroke-width: 0.8; stroke-linecap: square"/>
     </g>
     <g id="line2d_33">
      <g>
       <use xlink:href="#m5cb7a1eee1" x="332.12032" y="190.3975" style="stroke: #000000; stroke-width: 0.8"/>
      </g>
     </g>
     <g id="text_19">
      <!-- 5 -->
      <g transform="translate(328.93907 204.995937)scale(0.1 -0.1)">
       <use xlink:href="#DejaVuSans-35"/>
      </g>
     </g>
    </g>
    <g id="xtick_15">
     <g id="line2d_34">
      <path d="M 380.972239 190.3975 
L 380.972239 139.92 
" clip-path="url(#p787853089d)" style="fill: none; stroke: #b0b0b0; stroke-width: 0.8; stroke-linecap: square"/>
     </g>
     <g id="line2d_35">
      <g>
       <use xlink:href="#m5cb7a1eee1" x="380.972239" y="190.3975" style="stroke: #000000; stroke-width: 0.8"/>
      </g>
     </g>
     <g id="text_20">
      <!-- 6 -->
      <g transform="translate(377.790989 204.995937)scale(0.1 -0.1)">
       <use xlink:href="#DejaVuSans-36"/>
      </g>
     </g>
    </g>
    <g id="xtick_16">
     <g id="line2d_36">
      <path d="M 429.824158 190.3975 
L 429.824158 139.92 
" clip-path="url(#p787853089d)" style="fill: none; stroke: #b0b0b0; stroke-width: 0.8; stroke-linecap: square"/>
     </g>
     <g id="line2d_37">
      <g>
       <use xlink:href="#m5cb7a1eee1" x="429.824158" y="190.3975" style="stroke: #000000; stroke-width: 0.8"/>
      </g>
     </g>
     <g id="text_21">
      <!-- 7 -->
      <g transform="translate(426.642908 204.995937)scale(0.1 -0.1)">
       <use xlink:href="#DejaVuSans-37"/>
      </g>
     </g>
    </g>
    <g id="text_22">
     <!-- $t$ [s] -->
     <g transform="translate(250.208 218.674062)scale(0.1 -0.1)">
      <use xlink:href="#DejaVuSans-Oblique-74" transform="translate(0 0.015625)"/>
      <use xlink:href="#DejaVuSans-20" transform="translate(39.208984 0.015625)"/>
      <use xlink:href="#DejaVuSans-5b" transform="translate(70.996094 0.015625)"/>
      <use xlink:href="#DejaVuSans-73" transform="translate(110.009766 0.015625)"/>
      <use xlink:href="#DejaVuSans-5d" transform="translate(162.109375 0.015625)"/>
     </g>
    </g>
   </g>
   <g id="matplotlib.axis_4">
    <g id="ytick_3">
     <g id="line2d_38">
      <path d="M 70.616 187.94933 
L 450 187.94933 
" clip-path="url(#p787853089d)" style="fill: none; stroke: #b0b0b0; stroke-width: 0.8; stroke-linecap: square"/>
     </g>
     <g id="line2d_39">
      <g>
       <use xlink:href="#m7ec78d3fd5" x="70.616" y="187.94933" style="stroke: #000000; stroke-width: 0.8"/>
      </g>
     </g>
     <g id="text_23">
      <!-- −0.025 -->
      <g transform="translate(26.608187 191.748549)scale(0.1 -0.1)">
       <defs>
        <path id="DejaVuSans-2212" d="M 678 2272 
L 4684 2272 
L 4684 1741 
L 678 1741 
L 678 2272 
z
" transform="scale(0.015625)"/>
        <path id="DejaVuSans-2e" d="M 684 794 
L 1344 794 
L 1344 0 
L 684 0 
L 684 794 
z
" transform="scale(0.015625)"/>
       </defs>
       <use xlink:href="#DejaVuSans-2212"/>
       <use xlink:href="#DejaVuSans-30" x="83.789062"/>
       <use xlink:href="#DejaVuSans-2e" x="147.412109"/>
       <use xlink:href="#DejaVuSans-30" x="179.199219"/>
       <use xlink:href="#DejaVuSans-32" x="242.822266"/>
       <use xlink:href="#DejaVuSans-35" x="306.445312"/>
      </g>
     </g>
    </g>
    <g id="ytick_4">
     <g id="line2d_40">
      <path d="M 70.616 170.687599 
L 450 170.687599 
" clip-path="url(#p787853089d)" style="fill: none; stroke: #b0b0b0; stroke-width: 0.8; stroke-linecap: square"/>
     </g>
     <g id="line2d_41">
      <g>
       <use xlink:href="#m7ec78d3fd5" x="70.616" y="170.687599" style="stroke: #000000; stroke-width: 0.8"/>
      </g>
     </g>
     <g id="text_24">
      <!-- 0.000 -->
      <g transform="translate(34.987875 174.486817)scale(0.1 -0.1)">
       <use xlink:href="#DejaVuSans-30"/>
       <use xlink:href="#DejaVuSans-2e" x="63.623047"/>
       <use xlink:href="#DejaVuSans-30" x="95.410156"/>
       <use xlink:href="#DejaVuSans-30" x="159.033203"/>
       <use xlink:href="#DejaVuSans-30" x="222.65625"/>
      </g>
     </g>
    </g>
    <g id="ytick_5">
     <g id="line2d_42">
      <path d="M 70.616 153.425867 
L 450 153.425867 
" clip-path="url(#p787853089d)" style="fill: none; stroke: #b0b0b0; stroke-width: 0.8; stroke-linecap: square"/>
     </g>
     <g id="line2d_43">
      <g>
       <use xlink:href="#m7ec78d3fd5" x="70.616" y="153.425867" style="stroke: #000000; stroke-width: 0.8"/>
      </g>
     </g>
     <g id="text_25">
      <!-- 0.025 -->
      <g transform="translate(34.987875 157.225086)scale(0.1 -0.1)">
       <use xlink:href="#DejaVuSans-30"/>
       <use xlink:href="#DejaVuSans-2e" x="63.623047"/>
       <use xlink:href="#DejaVuSans-30" x="95.410156"/>
       <use xlink:href="#DejaVuSans-32" x="159.033203"/>
       <use xlink:href="#DejaVuSans-35" x="222.65625"/>
      </g>
     </g>
    </g>
    <g id="text_26">
     <!-- $e_z$ [m] -->
     <g transform="translate(20.5285 180.60875)rotate(-90)scale(0.1 -0.1)">
      <defs>
       <path id="DejaVuSans-Oblique-7a" d="M 744 3500 
L 3475 3500 
L 3372 2975 
L 738 459 
L 2913 459 
L 2822 0 
L -19 0 
L 84 525 
L 2719 3041 
L 653 3041 
L 744 3500 
z
" transform="scale(0.015625)"/>
      </defs>
      <use xlink:href="#DejaVuSans-Oblique-65" transform="translate(0 0.015625)"/>
      <use xlink:href="#DejaVuSans-Oblique-7a" transform="translate(61.523438 -16.390625)scale(0.7)"/>
      <use xlink:href="#DejaVuSans-20" transform="translate(101.000977 0.015625)"/>
      <use xlink:href="#DejaVuSans-5b" transform="translate(132.788086 0.015625)"/>
      <use xlink:href="#DejaVuSans-6d" transform="translate(171.801758 0.015625)"/>
      <use xlink:href="#DejaVuSans-5d" transform="translate(269.213867 0.015625)"/>
     </g>
    </g>
   </g>
   <g id="line2d_44">
    <path d="M 87.860727 177.163489 
L 89.328364 176.414375 
L 89.817576 176.09796 
L 90.306788 175.543178 
L 90.796 174.710283 
L 92.752848 172.927398 
L 93.242061 172.276099 
L 94.709697 171.480553 
L 97.64497 170.258651 
L 98.134182 170.078667 
L 98.623394 170.078667 
L 99.601818 169.892557 
L 101.558667 169.753535 
L 104.004727 169.708818 
L 107.918424 169.80835 
L 110.364485 170.149295 
L 110.853697 170.342715 
L 111.342909 170.342715 
L 111.832121 170.737387 
L 112.810545 170.986863 
L 113.78897 171.378037 
L 114.278182 171.716702 
L 114.767394 172.229444 
L 116.23503 173.131252 
L 116.724242 173.641072 
L 117.213455 174.377474 
L 119.170303 176.01995 
L 119.659515 176.68313 
L 120.148727 177.595285 
L 122.105576 179.475277 
L 122.594788 180.184261 
L 123.084 181.1184 
L 124.551636 182.47392 
L 126.019273 184.336574 
L 127.976121 185.896596 
L 128.465333 186.470728 
L 128.954545 186.470728 
L 129.443758 186.9632 
L 129.93297 186.9632 
L 130.422182 187.541 
L 131.889818 187.868471 
L 132.37903 188.029033 
L 134.825091 188.013235 
L 136.781939 187.29279 
L 137.271152 187.013772 
L 137.760364 187.013772 
L 138.249576 186.589754 
L 138.738788 186.357832 
L 140.206424 185.183431 
L 140.695636 185.183431 
L 141.184848 184.610483 
L 141.674061 184.316753 
L 142.652485 183.420401 
L 143.141697 183.270112 
L 143.630909 182.969763 
L 144.609333 181.934183 
L 145.098545 181.505028 
L 145.587758 181.364804 
L 147.055394 180.430952 
L 147.544606 179.942505 
L 151.458303 178.177214 
L 154.882788 177.364218 
L 158.796485 177.020058 
L 164.177818 176.629198 
L 166.134667 176.330624 
L 168.091515 175.995709 
L 170.537576 175.54835 
L 171.026788 175.54835 
L 171.516 175.370709 
L 176.897333 175.169695 
L 179.832606 175.755157 
L 181.789455 176.246402 
L 184.724727 177.454468 
L 185.213939 177.910748 
L 185.703152 177.910748 
L 186.192364 178.283328 
L 187.66 178.84262 
L 188.638424 179.474328 
L 189.127636 179.731618 
L 190.106061 179.977776 
L 191.573697 180.498064 
L 192.062909 180.754311 
L 194.998182 181.414599 
L 197.933455 181.447173 
L 199.401091 181.332081 
L 199.890303 181.160094 
L 200.379515 181.160094 
L 201.357939 180.886423 
L 202.336364 180.668406 
L 203.804 180.0264 
L 204.782424 179.885542 
L 206.250061 179.28429 
L 209.185333 178.706843 
L 212.609818 178.538454 
L 214.566667 178.38454 
L 216.034303 178.130194 
L 216.523515 177.873782 
L 217.012727 177.873782 
L 217.991152 177.259771 
L 218.480364 176.981544 
L 218.969576 176.487459 
L 219.458788 175.678757 
L 219.948 175.678757 
L 220.437212 174.698904 
L 221.415636 173.556356 
L 221.904848 172.60407 
L 222.394061 171.222558 
L 222.883273 171.222558 
L 223.372485 169.738747 
L 224.840121 167.3907 
L 225.329333 166.191113 
L 225.818545 164.572939 
L 227.775394 161.278917 
L 228.264606 160.026019 
L 228.753818 158.342237 
L 230.710667 154.961454 
L 231.199879 153.702836 
L 231.689091 152.049301 
L 234.624364 147.110606 
L 235.113576 145.820417 
L 236.581212 144.180325 
L 237.559636 143.145035 
L 238.048848 142.575005 
L 239.027273 142.263466 
L 240.005697 142.241713 
L 240.494909 142.435057 
L 241.473333 143.407227 
L 242.451758 144.502431 
L 242.94097 145.538777 
L 243.430182 147.159563 
L 244.897818 149.977082 
L 245.38703 151.495985 
L 245.876242 153.562755 
L 246.365455 153.562755 
L 246.854667 155.615209 
L 247.833091 157.59574 
L 248.811515 160.744715 
L 249.300727 160.744715 
L 249.789939 162.303259 
L 250.279152 162.303259 
L 250.768364 164.261016 
L 251.257576 164.540824 
L 253.703636 166.9848 
L 254.682061 167.322479 
L 255.660485 167.515137 
L 256.149697 167.515137 
L 259.08497 166.711469 
L 259.574182 166.329711 
L 261.041818 165.706807 
L 262.509455 164.778775 
L 265.933939 163.564052 
L 267.890788 163.383287 
L 269.847636 163.592875 
L 272.293697 164.402072 
L 273.272121 164.819236 
L 273.761333 165.174599 
L 276.207394 166.176153 
L 276.696606 166.525803 
L 281.099515 167.962371 
L 285.013212 168.682481 
L 285.502424 168.682481 
L 285.991636 168.84134 
L 287.459273 168.993036 
L 289.416121 169.520692 
L 290.394545 169.70435 
L 291.37297 170.1461 
L 292.840606 171.007346 
L 293.329818 171.007346 
L 293.81903 171.469504 
L 294.308242 171.718358 
L 295.286667 172.532133 
L 295.775879 172.67714 
L 296.265091 172.974651 
L 296.754303 173.597396 
L 297.732727 174.252852 
L 298.221939 174.762803 
L 298.711152 175.462808 
L 299.200364 175.462808 
L 299.689576 176.179279 
L 301.157212 177.26758 
L 301.646424 177.810071 
L 302.135636 178.524186 
L 304.581697 180.374972 
L 305.070909 180.985982 
L 308.984606 183.206447 
L 311.430667 183.922092 
L 312.898303 184.01324 
L 315.344364 183.71802 
L 316.322788 183.44376 
L 317.301212 183.017359 
L 318.279636 182.682539 
L 319.258061 182.02123 
L 319.747273 182.02123 
L 320.236485 181.612221 
L 321.704121 180.86555 
L 322.193333 180.432076 
L 322.682545 180.432076 
L 323.171758 180.000963 
L 324.150182 179.473585 
L 324.639394 179.167655 
L 325.617818 178.871856 
L 326.10703 178.495504 
L 327.085455 178.057723 
L 328.063879 177.587307 
L 328.553091 177.587307 
L 329.042303 177.309565 
L 331.977576 176.587566 
L 333.934424 176.473486 
L 335.891273 176.557 
L 340.783394 176.978871 
L 343.229455 176.939964 
L 346.164727 176.503667 
L 347.143152 176.177153 
L 348.121576 175.911839 
L 348.610788 175.525717 
L 349.1 175.525717 
L 349.589212 175.168513 
L 351.056848 174.537733 
L 351.546061 173.920824 
L 352.035273 173.920824 
L 352.524485 173.366937 
L 353.992121 172.438442 
L 354.481333 171.592517 
L 354.970545 171.592517 
L 355.459758 170.879815 
L 356.927394 169.769606 
L 357.416606 168.83323 
L 357.905818 168.83323 
L 358.39503 168.097142 
L 359.862667 167.046991 
L 360.351879 166.254199 
L 360.841091 166.254199 
L 361.330303 165.695933 
L 363.287152 164.632497 
L 363.776364 164.632497 
L 364.265576 164.454283 
L 365.733212 164.42809 
L 366.222424 164.529425 
L 368.668485 165.719132 
L 369.157697 166.206416 
L 369.646909 166.960761 
L 371.114545 168.298399 
L 371.603758 168.793262 
L 372.09297 169.574074 
L 372.582182 170.674768 
L 374.53903 173.017387 
L 375.028242 173.920574 
L 375.517455 175.12351 
L 377.474303 177.45975 
L 377.963515 178.826194 
L 378.452727 178.826194 
L 378.941939 179.843338 
L 382.366424 183.156585 
L 383.834061 184.03142 
L 384.323273 184.03142 
L 384.812485 184.381209 
L 387.258545 184.437289 
L 387.747758 184.192525 
L 388.726182 183.993212 
L 389.215394 183.833873 
L 389.704606 183.457035 
L 390.193818 183.457035 
L 390.68303 182.761156 
L 391.172242 182.631332 
L 392.150667 182.07741 
L 392.639879 181.474666 
L 393.129091 181.474666 
L 393.618303 180.497668 
L 394.107515 180.327998 
L 395.085939 179.634512 
L 395.575152 178.923829 
L 396.064364 178.923829 
L 396.553576 177.84509 
L 397.042788 177.665478 
L 398.021212 176.951839 
L 398.510424 176.252851 
L 398.999636 176.252851 
L 399.488848 175.247617 
L 399.978061 175.086564 
L 401.934909 173.743193 
L 402.424121 173.216408 
L 405.848606 171.545001 
L 408.783879 170.837521 
L 410.251515 170.7194 
L 412.697576 170.757872 
L 414.654424 170.894221 
L 415.632848 171.052403 
L 424.438667 171.825943 
L 428.352364 171.721255 
L 432.755273 171.337631 
L 432.755273 171.337631 
" clip-path="url(#p787853089d)" style="fill: none; stroke: #0000ff; stroke-width: 1.5; stroke-linecap: square"/>
   </g>
   <g id="patch_8">
    <path d="M 70.616 190.3975 
L 70.616 139.92 
" style="fill: none; stroke: #000000; stroke-width: 0.8; stroke-linejoin: miter; stroke-linecap: square"/>
   </g>
   <g id="patch_9">
    <path d="M 450 190.3975 
L 450 139.92 
" style="fill: none; stroke: #000000; stroke-width: 0.8; stroke-linejoin: miter; stroke-linecap: square"/>
   </g>
   <g id="patch_10">
    <path d="M 70.616 190.3975 
L 450 190.3975 
" style="fill: none; stroke: #000000; stroke-width: 0.8; stroke-linejoin: miter; stroke-linecap: square"/>
   </g>
   <g id="patch_11">
    <path d="M 70.616 139.92 
L 450 139.92 
" style="fill: none; stroke: #000000; stroke-width: 0.8; stroke-linejoin: miter; stroke-linecap: square"/>
   </g>
   <g id="text_27">
    <!-- Error in $z$-position -->
    <g transform="translate(207.028 133.92)scale(0.12 -0.12)">
     <use xlink:href="#DejaVuSans-45" transform="translate(0 0.015625)"/>
     <use xlink:href="#DejaVuSans-72" transform="translate(63.183594 0.015625)"/>
     <use xlink:href="#DejaVuSans-72" transform="translate(104.296875 0.015625)"/>
     <use xlink:href="#DejaVuSans-6f" transform="translate(145.410156 0.015625)"/>
     <use xlink:href="#DejaVuSans-72" transform="translate(206.591797 0.015625)"/>
     <use xlink:href="#DejaVuSans-20" transform="translate(247.705078 0.015625)"/>
     <use xlink:href="#DejaVuSans-69" transform="translate(279.492188 0.015625)"/>
     <use xlink:href="#DejaVuSans-6e" transform="translate(307.275391 0.015625)"/>
     <use xlink:href="#DejaVuSans-20" transform="translate(370.654297 0.015625)"/>
     <use xlink:href="#DejaVuSans-Oblique-7a" transform="translate(402.441406 0.015625)"/>
     <use xlink:href="#DejaVuSans-2d" transform="translate(454.931641 0.015625)"/>
     <use xlink:href="#DejaVuSans-70" transform="translate(491.015625 0.015625)"/>
     <use xlink:href="#DejaVuSans-6f" transform="translate(554.492188 0.015625)"/>
     <use xlink:href="#DejaVuSans-73" transform="translate(615.673828 0.015625)"/>
     <use xlink:href="#DejaVuSans-69" transform="translate(667.773438 0.015625)"/>
     <use xlink:href="#DejaVuSans-74" transform="translate(695.556641 0.015625)"/>
     <use xlink:href="#DejaVuSans-69" transform="translate(734.765625 0.015625)"/>
     <use xlink:href="#DejaVuSans-6f" transform="translate(762.548828 0.015625)"/>
     <use xlink:href="#DejaVuSans-6e" transform="translate(823.730469 0.015625)"/>
    </g>
   </g>
  </g>
  <g id="axes_3">
   <g id="patch_12">
    <path d="M 70.616 301.9975 
L 450 301.9975 
L 450 251.52 
L 70.616 251.52 
z
" style="fill: #ffffff"/>
   </g>
   <g id="matplotlib.axis_5">
    <g id="xtick_17">
     <g id="line2d_45">
      <path d="M 87.860727 301.9975 
L 87.860727 251.52 
" clip-path="url(#p040a037b3d)" style="fill: none; stroke: #b0b0b0; stroke-width: 0.8; stroke-linecap: square"/>
     </g>
     <g id="line2d_46">
      <g>
       <use xlink:href="#m5cb7a1eee1" x="87.860727" y="301.9975" style="stroke: #000000; stroke-width: 0.8"/>
      </g>
     </g>
     <g id="text_28">
      <!-- 0 -->
      <g transform="translate(84.679477 316.595937)scale(0.1 -0.1)">
       <use xlink:href="#DejaVuSans-30"/>
      </g>
     </g>
    </g>
    <g id="xtick_18">
     <g id="line2d_47">
      <path d="M 136.712646 301.9975 
L 136.712646 251.52 
" clip-path="url(#p040a037b3d)" style="fill: none; stroke: #b0b0b0; stroke-width: 0.8; stroke-linecap: square"/>
     </g>
     <g id="line2d_48">
      <g>
       <use xlink:href="#m5cb7a1eee1" x="136.712646" y="301.9975" style="stroke: #000000; stroke-width: 0.8"/>
      </g>
     </g>
     <g id="text_29">
      <!-- 1 -->
      <g transform="translate(133.531396 316.595937)scale(0.1 -0.1)">
       <use xlink:href="#DejaVuSans-31"/>
      </g>
     </g>
    </g>
    <g id="xtick_19">
     <g id="line2d_49">
      <path d="M 185.564565 301.9975 
L 185.564565 251.52 
" clip-path="url(#p040a037b3d)" style="fill: none; stroke: #b0b0b0; stroke-width: 0.8; stroke-linecap: square"/>
     </g>
     <g id="line2d_50">
      <g>
       <use xlink:href="#m5cb7a1eee1" x="185.564565" y="301.9975" style="stroke: #000000; stroke-width: 0.8"/>
      </g>
     </g>
     <g id="text_30">
      <!-- 2 -->
      <g transform="translate(182.383315 316.595937)scale(0.1 -0.1)">
       <use xlink:href="#DejaVuSans-32"/>
      </g>
     </g>
    </g>
    <g id="xtick_20">
     <g id="line2d_51">
      <path d="M 234.416483 301.9975 
L 234.416483 251.52 
" clip-path="url(#p040a037b3d)" style="fill: none; stroke: #b0b0b0; stroke-width: 0.8; stroke-linecap: square"/>
     </g>
     <g id="line2d_52">
      <g>
       <use xlink:href="#m5cb7a1eee1" x="234.416483" y="301.9975" style="stroke: #000000; stroke-width: 0.8"/>
      </g>
     </g>
     <g id="text_31">
      <!-- 3 -->
      <g transform="translate(231.235233 316.595937)scale(0.1 -0.1)">
       <use xlink:href="#DejaVuSans-33"/>
      </g>
     </g>
    </g>
    <g id="xtick_21">
     <g id="line2d_53">
      <path d="M 283.268402 301.9975 
L 283.268402 251.52 
" clip-path="url(#p040a037b3d)" style="fill: none; stroke: #b0b0b0; stroke-width: 0.8; stroke-linecap: square"/>
     </g>
     <g id="line2d_54">
      <g>
       <use xlink:href="#m5cb7a1eee1" x="283.268402" y="301.9975" style="stroke: #000000; stroke-width: 0.8"/>
      </g>
     </g>
     <g id="text_32">
      <!-- 4 -->
      <g transform="translate(280.087152 316.595937)scale(0.1 -0.1)">
       <use xlink:href="#DejaVuSans-34"/>
      </g>
     </g>
    </g>
    <g id="xtick_22">
     <g id="line2d_55">
      <path d="M 332.12032 301.9975 
L 332.12032 251.52 
" clip-path="url(#p040a037b3d)" style="fill: none; stroke: #b0b0b0; stroke-width: 0.8; stroke-linecap: square"/>
     </g>
     <g id="line2d_56">
      <g>
       <use xlink:href="#m5cb7a1eee1" x="332.12032" y="301.9975" style="stroke: #000000; stroke-width: 0.8"/>
      </g>
     </g>
     <g id="text_33">
      <!-- 5 -->
      <g transform="translate(328.93907 316.595937)scale(0.1 -0.1)">
       <use xlink:href="#DejaVuSans-35"/>
      </g>
     </g>
    </g>
    <g id="xtick_23">
     <g id="line2d_57">
      <path d="M 380.972239 301.9975 
L 380.972239 251.52 
" clip-path="url(#p040a037b3d)" style="fill: none; stroke: #b0b0b0; stroke-width: 0.8; stroke-linecap: square"/>
     </g>
     <g id="line2d_58">
      <g>
       <use xlink:href="#m5cb7a1eee1" x="380.972239" y="301.9975" style="stroke: #000000; stroke-width: 0.8"/>
      </g>
     </g>
     <g id="text_34">
      <!-- 6 -->
      <g transform="translate(377.790989 316.595937)scale(0.1 -0.1)">
       <use xlink:href="#DejaVuSans-36"/>
      </g>
     </g>
    </g>
    <g id="xtick_24">
     <g id="line2d_59">
      <path d="M 429.824158 301.9975 
L 429.824158 251.52 
" clip-path="url(#p040a037b3d)" style="fill: none; stroke: #b0b0b0; stroke-width: 0.8; stroke-linecap: square"/>
     </g>
     <g id="line2d_60">
      <g>
       <use xlink:href="#m5cb7a1eee1" x="429.824158" y="301.9975" style="stroke: #000000; stroke-width: 0.8"/>
      </g>
     </g>
     <g id="text_35">
      <!-- 7 -->
      <g transform="translate(426.642908 316.595937)scale(0.1 -0.1)">
       <use xlink:href="#DejaVuSans-37"/>
      </g>
     </g>
    </g>
    <g id="text_36">
     <!-- $t$ [s] -->
     <g transform="translate(250.208 330.274063)scale(0.1 -0.1)">
      <use xlink:href="#DejaVuSans-Oblique-74" transform="translate(0 0.015625)"/>
      <use xlink:href="#DejaVuSans-20" transform="translate(39.208984 0.015625)"/>
      <use xlink:href="#DejaVuSans-5b" transform="translate(70.996094 0.015625)"/>
      <use xlink:href="#DejaVuSans-73" transform="translate(110.009766 0.015625)"/>
      <use xlink:href="#DejaVuSans-5d" transform="translate(162.109375 0.015625)"/>
     </g>
    </g>
   </g>
   <g id="matplotlib.axis_6">
    <g id="ytick_6">
     <g id="line2d_61">
      <path d="M 70.616 297.082314 
L 450 297.082314 
" clip-path="url(#p040a037b3d)" style="fill: none; stroke: #b0b0b0; stroke-width: 0.8; stroke-linecap: square"/>
     </g>
     <g id="line2d_62">
      <g>
       <use xlink:href="#m7ec78d3fd5" x="70.616" y="297.082314" style="stroke: #000000; stroke-width: 0.8"/>
      </g>
     </g>
     <g id="text_37">
      <!-- −2.5 -->
      <g transform="translate(39.333187 300.881533)scale(0.1 -0.1)">
       <use xlink:href="#DejaVuSans-2212"/>
       <use xlink:href="#DejaVuSans-32" x="83.789062"/>
       <use xlink:href="#DejaVuSans-2e" x="147.412109"/>
       <use xlink:href="#DejaVuSans-35" x="179.199219"/>
      </g>
     </g>
    </g>
    <g id="ytick_7">
     <g id="line2d_63">
      <path d="M 70.616 277.890021 
L 450 277.890021 
" clip-path="url(#p040a037b3d)" style="fill: none; stroke: #b0b0b0; stroke-width: 0.8; stroke-linecap: square"/>
     </g>
     <g id="line2d_64">
      <g>
       <use xlink:href="#m7ec78d3fd5" x="70.616" y="277.890021" style="stroke: #000000; stroke-width: 0.8"/>
      </g>
     </g>
     <g id="text_38">
      <!-- 0.0 -->
      <g transform="translate(47.712875 281.68924)scale(0.1 -0.1)">
       <use xlink:href="#DejaVuSans-30"/>
       <use xlink:href="#DejaVuSans-2e" x="63.623047"/>
       <use xlink:href="#DejaVuSans-30" x="95.410156"/>
      </g>
     </g>
    </g>
    <g id="ytick_8">
     <g id="line2d_65">
      <path d="M 70.616 258.697728 
L 450 258.697728 
" clip-path="url(#p040a037b3d)" style="fill: none; stroke: #b0b0b0; stroke-width: 0.8; stroke-linecap: square"/>
     </g>
     <g id="line2d_66">
      <g>
       <use xlink:href="#m7ec78d3fd5" x="70.616" y="258.697728" style="stroke: #000000; stroke-width: 0.8"/>
      </g>
     </g>
     <g id="text_39">
      <!-- 2.5 -->
      <g transform="translate(47.712875 262.496947)scale(0.1 -0.1)">
       <use xlink:href="#DejaVuSans-32"/>
       <use xlink:href="#DejaVuSans-2e" x="63.623047"/>
       <use xlink:href="#DejaVuSans-35" x="95.410156"/>
      </g>
     </g>
    </g>
    <g id="text_40">
     <!-- $e_\theta$ [rad] -->
     <g transform="translate(33.2535 295.90875)rotate(-90)scale(0.1 -0.1)">
      <defs>
       <path id="DejaVuSans-Oblique-3b8" d="M 2913 2219 
L 925 2219 
Q 791 1284 928 888 
Q 1100 400 1566 400 
Q 2034 400 2391 891 
Q 2703 1322 2913 2219 
z
M 3009 2750 
Q 3094 3638 2984 3950 
Q 2813 4444 2353 4444 
Q 1875 4444 1525 3956 
Q 1250 3563 1034 2750 
L 3009 2750 
z
M 2444 4913 
Q 3194 4913 3494 4250 
Q 3794 3591 3566 2422 
Q 3341 1256 2781 594 
Q 2225 -72 1475 -72 
Q 722 -72 425 594 
Q 128 1256 353 2422 
Q 581 3591 1134 4250 
Q 1691 4913 2444 4913 
z
" transform="scale(0.015625)"/>
       <path id="DejaVuSans-61" d="M 2194 1759 
Q 1497 1759 1228 1600 
Q 959 1441 959 1056 
Q 959 750 1161 570 
Q 1363 391 1709 391 
Q 2188 391 2477 730 
Q 2766 1069 2766 1631 
L 2766 1759 
L 2194 1759 
z
M 3341 1997 
L 3341 0 
L 2766 0 
L 2766 531 
Q 2569 213 2275 61 
Q 1981 -91 1556 -91 
Q 1019 -91 701 211 
Q 384 513 384 1019 
Q 384 1609 779 1909 
Q 1175 2209 1959 2209 
L 2766 2209 
L 2766 2266 
Q 2766 2663 2505 2880 
Q 2244 3097 1772 3097 
Q 1472 3097 1187 3025 
Q 903 2953 641 2809 
L 641 3341 
Q 956 3463 1253 3523 
Q 1550 3584 1831 3584 
Q 2591 3584 2966 3190 
Q 3341 2797 3341 1997 
z
" transform="scale(0.015625)"/>
       <path id="DejaVuSans-64" d="M 2906 2969 
L 2906 4863 
L 3481 4863 
L 3481 0 
L 2906 0 
L 2906 525 
Q 2725 213 2448 61 
Q 2172 -91 1784 -91 
Q 1150 -91 751 415 
Q 353 922 353 1747 
Q 353 2572 751 3078 
Q 1150 3584 1784 3584 
Q 2172 3584 2448 3432 
Q 2725 3281 2906 2969 
z
M 947 1747 
Q 947 1113 1208 752 
Q 1469 391 1925 391 
Q 2381 391 2643 752 
Q 2906 1113 2906 1747 
Q 2906 2381 2643 2742 
Q 2381 3103 1925 3103 
Q 1469 3103 1208 2742 
Q 947 2381 947 1747 
z
" transform="scale(0.015625)"/>
      </defs>
      <use xlink:href="#DejaVuSans-Oblique-65" transform="translate(0 0.015625)"/>
      <use xlink:href="#DejaVuSans-Oblique-3b8" transform="translate(61.523438 -16.390625)scale(0.7)"/>
      <use xlink:href="#DejaVuSans-20" transform="translate(107.084961 0.015625)"/>
      <use xlink:href="#DejaVuSans-5b" transform="translate(138.87207 0.015625)"/>
      <use xlink:href="#DejaVuSans-72" transform="translate(177.885742 0.015625)"/>
      <use xlink:href="#DejaVuSans-61" transform="translate(218.999023 0.015625)"/>
      <use xlink:href="#DejaVuSans-64" transform="translate(280.27832 0.015625)"/>
      <use xlink:href="#DejaVuSans-5d" transform="translate(343.754883 0.015625)"/>
     </g>
    </g>
   </g>
   <g id="line2d_67">
    <path d="M 87.860727 265.839128 
L 89.817576 265.779486 
L 91.774424 265.369531 
L 92.752848 265.122395 
L 93.731273 264.829569 
L 100.580242 263.57466 
L 102.537091 263.423531 
L 103.515515 263.296468 
L 112.321333 262.820562 
L 120.148727 262.733528 
L 127.486909 262.909193 
L 143.141697 263.492843 
L 152.925939 263.597139 
L 162.22097 263.408892 
L 164.66703 263.319026 
L 168.091515 263.216497 
L 176.897333 263.009318 
L 183.257091 262.979958 
L 191.573697 263.126232 
L 199.890303 263.389998 
L 203.804 263.497454 
L 206.739273 263.607395 
L 208.206909 263.767451 
L 209.674545 264.057601 
L 210.65297 264.293776 
L 211.631394 264.628122 
L 213.588242 265.224273 
L 214.077455 265.509097 
L 216.034303 266.131641 
L 216.523515 266.387568 
L 217.012727 266.387568 
L 217.501939 266.627017 
L 222.394061 267.703969 
L 223.372485 267.797665 
L 226.79697 267.993864 
L 228.264606 267.950458 
L 230.221455 267.540851 
L 230.710667 267.325155 
L 231.199879 266.744439 
L 231.689091 264.199999 
L 232.178303 259.177638 
L 232.667515 299.703068 
L 233.156727 296.520302 
L 233.645939 295.298124 
L 234.624364 294.192506 
L 235.113576 293.844266 
L 237.070424 293.498484 
L 239.027273 293.237151 
L 244.897818 292.665992 
L 248.811515 292.272973 
L 250.279152 292.211713 
L 251.257576 292.113831 
L 260.063394 291.754066 
L 268.38 291.725746 
L 275.718182 291.925215 
L 290.394545 292.506784 
L 295.286667 292.600704 
L 304.092485 292.513643 
L 325.128606 291.98547 
L 334.423636 291.873369 
L 339.80497 291.097865 
L 340.783394 290.854027 
L 342.25103 290.592322 
L 342.740242 290.365426 
L 343.229455 290.365426 
L 344.207879 290.085927 
L 345.186303 289.893873 
L 345.675515 289.65222 
L 346.164727 289.65222 
L 347.143152 289.361182 
L 348.121576 289.171697 
L 348.610788 288.948374 
L 349.1 288.948374 
L 350.078424 288.704192 
L 354.970545 288.062024 
L 356.438182 287.984311 
L 357.905818 288.007918 
L 359.373455 288.289688 
L 359.862667 288.475525 
L 360.351879 289.901795 
L 360.841091 289.901795 
L 361.330303 253.814432 
L 361.819515 259.587083 
L 362.308727 261.082754 
L 363.287152 262.3144 
L 363.776364 262.3144 
L 364.265576 262.52274 
L 367.200848 262.862521 
L 375.028242 263.461352 
L 376.985091 263.62303 
L 396.064364 264.925754 
L 397.042788 265.027107 
L 404.870182 265.580054 
L 407.805455 265.810518 
L 432.755273 267.166062 
L 432.755273 267.166062 
" clip-path="url(#p040a037b3d)" style="fill: none; stroke: #008000; stroke-width: 1.5; stroke-linecap: square"/>
   </g>
   <g id="patch_13">
    <path d="M 70.616 301.9975 
L 70.616 251.52 
" style="fill: none; stroke: #000000; stroke-width: 0.8; stroke-linejoin: miter; stroke-linecap: square"/>
   </g>
   <g id="patch_14">
    <path d="M 450 301.9975 
L 450 251.52 
" style="fill: none; stroke: #000000; stroke-width: 0.8; stroke-linejoin: miter; stroke-linecap: square"/>
   </g>
   <g id="patch_15">
    <path d="M 70.616 301.9975 
L 450 301.9975 
" style="fill: none; stroke: #000000; stroke-width: 0.8; stroke-linejoin: miter; stroke-linecap: square"/>
   </g>
   <g id="patch_16">
    <path d="M 70.616 251.52 
L 450 251.52 
" style="fill: none; stroke: #000000; stroke-width: 0.8; stroke-linejoin: miter; stroke-linecap: square"/>
   </g>
   <g id="text_41">
    <!-- Error in swing angle -->
    <g transform="translate(200.537688 245.52)scale(0.12 -0.12)">
     <defs>
      <path id="DejaVuSans-77" d="M 269 3500 
L 844 3500 
L 1563 769 
L 2278 3500 
L 2956 3500 
L 3675 769 
L 4391 3500 
L 4966 3500 
L 4050 0 
L 3372 0 
L 2619 2869 
L 1863 0 
L 1184 0 
L 269 3500 
z
" transform="scale(0.015625)"/>
      <path id="DejaVuSans-67" d="M 2906 1791 
Q 2906 2416 2648 2759 
Q 2391 3103 1925 3103 
Q 1463 3103 1205 2759 
Q 947 2416 947 1791 
Q 947 1169 1205 825 
Q 1463 481 1925 481 
Q 2391 481 2648 825 
Q 2906 1169 2906 1791 
z
M 3481 434 
Q 3481 -459 3084 -895 
Q 2688 -1331 1869 -1331 
Q 1566 -1331 1297 -1286 
Q 1028 -1241 775 -1147 
L 775 -588 
Q 1028 -725 1275 -790 
Q 1522 -856 1778 -856 
Q 2344 -856 2625 -561 
Q 2906 -266 2906 331 
L 2906 616 
Q 2728 306 2450 153 
Q 2172 0 1784 0 
Q 1141 0 747 490 
Q 353 981 353 1791 
Q 353 2603 747 3093 
Q 1141 3584 1784 3584 
Q 2172 3584 2450 3431 
Q 2728 3278 2906 2969 
L 2906 3500 
L 3481 3500 
L 3481 434 
z
" transform="scale(0.015625)"/>
      <path id="DejaVuSans-6c" d="M 603 4863 
L 1178 4863 
L 1178 0 
L 603 0 
L 603 4863 
z
" transform="scale(0.015625)"/>
      <path id="DejaVuSans-65" d="M 3597 1894 
L 3597 1613 
L 953 1613 
Q 991 1019 1311 708 
Q 1631 397 2203 397 
Q 2534 397 2845 478 
Q 3156 559 3463 722 
L 3463 178 
Q 3153 47 2828 -22 
Q 2503 -91 2169 -91 
Q 1331 -91 842 396 
Q 353 884 353 1716 
Q 353 2575 817 3079 
Q 1281 3584 2069 3584 
Q 2775 3584 3186 3129 
Q 3597 2675 3597 1894 
z
M 3022 2063 
Q 3016 2534 2758 2815 
Q 2500 3097 2075 3097 
Q 1594 3097 1305 2825 
Q 1016 2553 972 2059 
L 3022 2063 
z
" transform="scale(0.015625)"/>
     </defs>
     <use xlink:href="#DejaVuSans-45"/>
     <use xlink:href="#DejaVuSans-72" x="63.183594"/>
     <use xlink:href="#DejaVuSans-72" x="102.546875"/>
     <use xlink:href="#DejaVuSans-6f" x="141.410156"/>
     <use xlink:href="#DejaVuSans-72" x="202.591797"/>
     <use xlink:href="#DejaVuSans-20" x="243.705078"/>
     <use xlink:href="#DejaVuSans-69" x="275.492188"/>
     <use xlink:href="#DejaVuSans-6e" x="303.275391"/>
     <use xlink:href="#DejaVuSans-20" x="366.654297"/>
     <use xlink:href="#DejaVuSans-73" x="398.441406"/>
     <use xlink:href="#DejaVuSans-77" x="450.541016"/>
     <use xlink:href="#DejaVuSans-69" x="532.328125"/>
     <use xlink:href="#DejaVuSans-6e" x="560.111328"/>
     <use xlink:href="#DejaVuSans-67" x="623.490234"/>
     <use xlink:href="#DejaVuSans-20" x="686.966797"/>
     <use xlink:href="#DejaVuSans-61" x="718.753906"/>
     <use xlink:href="#DejaVuSans-6e" x="780.033203"/>
     <use xlink:href="#DejaVuSans-67" x="843.412109"/>
     <use xlink:href="#DejaVuSans-6c" x="906.888672"/>
     <use xlink:href="#DejaVuSans-65" x="934.671875"/>
    </g>
   </g>
  </g>
 </g>
 <defs>
  <clipPath id="pd27e79a6fc">
   <rect x="70.616" y="28.32" width="379.384" height="50.4775"/>
  </clipPath>
  <clipPath id="p787853089d">
   <rect x="70.616" y="139.92" width="379.384" height="50.4775"/>
  </clipPath>
  <clipPath id="p040a037b3d">
   <rect x="70.616" y="251.52" width="379.384" height="50.4775"/>
  </clipPath>
 </defs>
</svg>
