<?xml version="1.0" encoding="utf-8" standalone="no"?>
<!DOCTYPE svg PUBLIC "-//W3C//DTD SVG 1.1//EN"
  "http://www.w3.org/Graphics/SVG/1.1/DTD/svg11.dtd">
<svg xmlns:xlink="http://www.w3.org/1999/xlink" width="460.8pt" height="345.6pt" viewBox="0 0 460.8 345.6" xmlns="http://www.w3.org/2000/svg" version="1.1">
 <metadata>
  <rdf:RDF xmlns:dc="http://purl.org/dc/elements/1.1/" xmlns:cc="http://creativecommons.org/ns#" xmlns:rdf="http://www.w3.org/1999/02/22-rdf-syntax-ns#">
   <cc:Work>
    <dc:type rdf:resource="http://purl.org/dc/dcmitype/StillImage"/>
    <dc:date>2022-06-05T14:30:25.903023</dc:date>
    <dc:format>image/svg+xml</dc:format>
    <dc:creator>
     <cc:Agent>
      <dc:title>Matplotlib v3.5.1, https://matplotlib.org/</dc:title>
     </cc:Agent>
    </dc:creator>
   </cc:Work>
  </rdf:RDF>
 </metadata>
 <defs>
  <style type="text/css">*{stroke-linejoin: round; stroke-linecap: butt}</style>
 </defs>
 <g id="figure_1">
  <g id="patch_1">
   <path d="M 0 345.6 
L 460.8 345.6 
L 460.8 0 
L 0 0 
z
" style="fill: #ffffff"/>
  </g>
  <g id="axes_1">
   <g id="patch_2">
    <path d="M 58.106 78.7975 
L 450 78.7975 
L 450 28.32 
L 58.106 28.32 
z
" style="fill: #ffffff"/>
   </g>
   <g id="matplotlib.axis_1">
    <g id="xtick_1">
     <g id="line2d_1">
      <path d="M 75.919364 78.7975 
L 75.919364 28.32 
" clip-path="url(#p5e019e8450)" style="fill: none; stroke: #b0b0b0; stroke-width: 0.8; stroke-linecap: square"/>
     </g>
     <g id="line2d_2">
      <defs>
       <path id="m123337118a" d="M 0 0 
L 0 3.5 
" style="stroke: #000000; stroke-width: 0.8"/>
      </defs>
      <g>
       <use xlink:href="#m123337118a" x="75.919364" y="78.7975" style="stroke: #000000; stroke-width: 0.8"/>
      </g>
     </g>
     <g id="text_1">
      <!-- 0 -->
      <g transform="translate(72.738114 93.395937)scale(0.1 -0.1)">
       <defs>
        <path id="DejaVuSans-30" d="M 2034 4250 
Q 1547 4250 1301 3770 
Q 1056 3291 1056 2328 
Q 1056 1369 1301 889 
Q 1547 409 2034 409 
Q 2525 409 2770 889 
Q 3016 1369 3016 2328 
Q 3016 3291 2770 3770 
Q 2525 4250 2034 4250 
z
M 2034 4750 
Q 2819 4750 3233 4129 
Q 3647 3509 3647 2328 
Q 3647 1150 3233 529 
Q 2819 -91 2034 -91 
Q 1250 -91 836 529 
Q 422 1150 422 2328 
Q 422 3509 836 4129 
Q 1250 4750 2034 4750 
z
" transform="scale(0.015625)"/>
       </defs>
       <use xlink:href="#DejaVuSans-30"/>
      </g>
     </g>
    </g>
    <g id="xtick_2">
     <g id="line2d_3">
      <path d="M 134.757889 78.7975 
L 134.757889 28.32 
" clip-path="url(#p5e019e8450)" style="fill: none; stroke: #b0b0b0; stroke-width: 0.8; stroke-linecap: square"/>
     </g>
     <g id="line2d_4">
      <g>
       <use xlink:href="#m123337118a" x="134.757889" y="78.7975" style="stroke: #000000; stroke-width: 0.8"/>
      </g>
     </g>
     <g id="text_2">
      <!-- 2 -->
      <g transform="translate(131.576639 93.395937)scale(0.1 -0.1)">
       <defs>
        <path id="DejaVuSans-32" d="M 1228 531 
L 3431 531 
L 3431 0 
L 469 0 
L 469 531 
Q 828 903 1448 1529 
Q 2069 2156 2228 2338 
Q 2531 2678 2651 2914 
Q 2772 3150 2772 3378 
Q 2772 3750 2511 3984 
Q 2250 4219 1831 4219 
Q 1534 4219 1204 4116 
Q 875 4013 500 3803 
L 500 4441 
Q 881 4594 1212 4672 
Q 1544 4750 1819 4750 
Q 2544 4750 2975 4387 
Q 3406 4025 3406 3419 
Q 3406 3131 3298 2873 
Q 3191 2616 2906 2266 
Q 2828 2175 2409 1742 
Q 1991 1309 1228 531 
z
" transform="scale(0.015625)"/>
       </defs>
       <use xlink:href="#DejaVuSans-32"/>
      </g>
     </g>
    </g>
    <g id="xtick_3">
     <g id="line2d_5">
      <path d="M 193.596415 78.7975 
L 193.596415 28.32 
" clip-path="url(#p5e019e8450)" style="fill: none; stroke: #b0b0b0; stroke-width: 0.8; stroke-linecap: square"/>
     </g>
     <g id="line2d_6">
      <g>
       <use xlink:href="#m123337118a" x="193.596415" y="78.7975" style="stroke: #000000; stroke-width: 0.8"/>
      </g>
     </g>
     <g id="text_3">
      <!-- 4 -->
      <g transform="translate(190.415165 93.395937)scale(0.1 -0.1)">
       <defs>
        <path id="DejaVuSans-34" d="M 2419 4116 
L 825 1625 
L 2419 1625 
L 2419 4116 
z
M 2253 4666 
L 3047 4666 
L 3047 1625 
L 3713 1625 
L 3713 1100 
L 3047 1100 
L 3047 0 
L 2419 0 
L 2419 1100 
L 313 1100 
L 313 1709 
L 2253 4666 
z
" transform="scale(0.015625)"/>
       </defs>
       <use xlink:href="#DejaVuSans-34"/>
      </g>
     </g>
    </g>
    <g id="xtick_4">
     <g id="line2d_7">
      <path d="M 252.434941 78.7975 
L 252.434941 28.32 
" clip-path="url(#p5e019e8450)" style="fill: none; stroke: #b0b0b0; stroke-width: 0.8; stroke-linecap: square"/>
     </g>
     <g id="line2d_8">
      <g>
       <use xlink:href="#m123337118a" x="252.434941" y="78.7975" style="stroke: #000000; stroke-width: 0.8"/>
      </g>
     </g>
     <g id="text_4">
      <!-- 6 -->
      <g transform="translate(249.253691 93.395937)scale(0.1 -0.1)">
       <defs>
        <path id="DejaVuSans-36" d="M 2113 2584 
Q 1688 2584 1439 2293 
Q 1191 2003 1191 1497 
Q 1191 994 1439 701 
Q 1688 409 2113 409 
Q 2538 409 2786 701 
Q 3034 994 3034 1497 
Q 3034 2003 2786 2293 
Q 2538 2584 2113 2584 
z
M 3366 4563 
L 3366 3988 
Q 3128 4100 2886 4159 
Q 2644 4219 2406 4219 
Q 1781 4219 1451 3797 
Q 1122 3375 1075 2522 
Q 1259 2794 1537 2939 
Q 1816 3084 2150 3084 
Q 2853 3084 3261 2657 
Q 3669 2231 3669 1497 
Q 3669 778 3244 343 
Q 2819 -91 2113 -91 
Q 1303 -91 875 529 
Q 447 1150 447 2328 
Q 447 3434 972 4092 
Q 1497 4750 2381 4750 
Q 2619 4750 2861 4703 
Q 3103 4656 3366 4563 
z
" transform="scale(0.015625)"/>
       </defs>
       <use xlink:href="#DejaVuSans-36"/>
      </g>
     </g>
    </g>
    <g id="xtick_5">
     <g id="line2d_9">
      <path d="M 311.273466 78.7975 
L 311.273466 28.32 
" clip-path="url(#p5e019e8450)" style="fill: none; stroke: #b0b0b0; stroke-width: 0.8; stroke-linecap: square"/>
     </g>
     <g id="line2d_10">
      <g>
       <use xlink:href="#m123337118a" x="311.273466" y="78.7975" style="stroke: #000000; stroke-width: 0.8"/>
      </g>
     </g>
     <g id="text_5">
      <!-- 8 -->
      <g transform="translate(308.092216 93.395937)scale(0.1 -0.1)">
       <defs>
        <path id="DejaVuSans-38" d="M 2034 2216 
Q 1584 2216 1326 1975 
Q 1069 1734 1069 1313 
Q 1069 891 1326 650 
Q 1584 409 2034 409 
Q 2484 409 2743 651 
Q 3003 894 3003 1313 
Q 3003 1734 2745 1975 
Q 2488 2216 2034 2216 
z
M 1403 2484 
Q 997 2584 770 2862 
Q 544 3141 544 3541 
Q 544 4100 942 4425 
Q 1341 4750 2034 4750 
Q 2731 4750 3128 4425 
Q 3525 4100 3525 3541 
Q 3525 3141 3298 2862 
Q 3072 2584 2669 2484 
Q 3125 2378 3379 2068 
Q 3634 1759 3634 1313 
Q 3634 634 3220 271 
Q 2806 -91 2034 -91 
Q 1263 -91 848 271 
Q 434 634 434 1313 
Q 434 1759 690 2068 
Q 947 2378 1403 2484 
z
M 1172 3481 
Q 1172 3119 1398 2916 
Q 1625 2713 2034 2713 
Q 2441 2713 2670 2916 
Q 2900 3119 2900 3481 
Q 2900 3844 2670 4047 
Q 2441 4250 2034 4250 
Q 1625 4250 1398 4047 
Q 1172 3844 1172 3481 
z
" transform="scale(0.015625)"/>
       </defs>
       <use xlink:href="#DejaVuSans-38"/>
      </g>
     </g>
    </g>
    <g id="xtick_6">
     <g id="line2d_11">
      <path d="M 370.111992 78.7975 
L 370.111992 28.32 
" clip-path="url(#p5e019e8450)" style="fill: none; stroke: #b0b0b0; stroke-width: 0.8; stroke-linecap: square"/>
     </g>
     <g id="line2d_12">
      <g>
       <use xlink:href="#m123337118a" x="370.111992" y="78.7975" style="stroke: #000000; stroke-width: 0.8"/>
      </g>
     </g>
     <g id="text_6">
      <!-- 10 -->
      <g transform="translate(363.749492 93.395937)scale(0.1 -0.1)">
       <defs>
        <path id="DejaVuSans-31" d="M 794 531 
L 1825 531 
L 1825 4091 
L 703 3866 
L 703 4441 
L 1819 4666 
L 2450 4666 
L 2450 531 
L 3481 531 
L 3481 0 
L 794 0 
L 794 531 
z
" transform="scale(0.015625)"/>
       </defs>
       <use xlink:href="#DejaVuSans-31"/>
       <use xlink:href="#DejaVuSans-30" x="63.623047"/>
      </g>
     </g>
    </g>
    <g id="xtick_7">
     <g id="line2d_13">
      <path d="M 428.950517 78.7975 
L 428.950517 28.32 
" clip-path="url(#p5e019e8450)" style="fill: none; stroke: #b0b0b0; stroke-width: 0.8; stroke-linecap: square"/>
     </g>
     <g id="line2d_14">
      <g>
       <use xlink:href="#m123337118a" x="428.950517" y="78.7975" style="stroke: #000000; stroke-width: 0.8"/>
      </g>
     </g>
     <g id="text_7">
      <!-- 12 -->
      <g transform="translate(422.588017 93.395937)scale(0.1 -0.1)">
       <use xlink:href="#DejaVuSans-31"/>
       <use xlink:href="#DejaVuSans-32" x="63.623047"/>
      </g>
     </g>
    </g>
    <g id="text_8">
     <!-- $t$ [s] -->
     <g transform="translate(243.953 107.074062)scale(0.1 -0.1)">
      <defs>
       <path id="DejaVuSans-Oblique-74" d="M 2706 3500 
L 2619 3053 
L 1472 3053 
L 1100 1153 
Q 1081 1047 1072 975 
Q 1063 903 1063 863 
Q 1063 663 1183 572 
Q 1303 481 1569 481 
L 2150 481 
L 2053 0 
L 1503 0 
Q 991 0 739 200 
Q 488 400 488 806 
Q 488 878 497 964 
Q 506 1050 525 1153 
L 897 3053 
L 409 3053 
L 500 3500 
L 978 3500 
L 1172 4494 
L 1747 4494 
L 1556 3500 
L 2706 3500 
z
" transform="scale(0.015625)"/>
       <path id="DejaVuSans-20" transform="scale(0.015625)"/>
       <path id="DejaVuSans-5b" d="M 550 4863 
L 1875 4863 
L 1875 4416 
L 1125 4416 
L 1125 -397 
L 1875 -397 
L 1875 -844 
L 550 -844 
L 550 4863 
z
" transform="scale(0.015625)"/>
       <path id="DejaVuSans-73" d="M 2834 3397 
L 2834 2853 
Q 2591 2978 2328 3040 
Q 2066 3103 1784 3103 
Q 1356 3103 1142 2972 
Q 928 2841 928 2578 
Q 928 2378 1081 2264 
Q 1234 2150 1697 2047 
L 1894 2003 
Q 2506 1872 2764 1633 
Q 3022 1394 3022 966 
Q 3022 478 2636 193 
Q 2250 -91 1575 -91 
Q 1294 -91 989 -36 
Q 684 19 347 128 
L 347 722 
Q 666 556 975 473 
Q 1284 391 1588 391 
Q 1994 391 2212 530 
Q 2431 669 2431 922 
Q 2431 1156 2273 1281 
Q 2116 1406 1581 1522 
L 1381 1569 
Q 847 1681 609 1914 
Q 372 2147 372 2553 
Q 372 3047 722 3315 
Q 1072 3584 1716 3584 
Q 2034 3584 2315 3537 
Q 2597 3491 2834 3397 
z
" transform="scale(0.015625)"/>
       <path id="DejaVuSans-5d" d="M 1947 4863 
L 1947 -844 
L 622 -844 
L 622 -397 
L 1369 -397 
L 1369 4416 
L 622 4416 
L 622 4863 
L 1947 4863 
z
" transform="scale(0.015625)"/>
      </defs>
      <use xlink:href="#DejaVuSans-Oblique-74" transform="translate(0 0.015625)"/>
      <use xlink:href="#DejaVuSans-20" transform="translate(39.208984 0.015625)"/>
      <use xlink:href="#DejaVuSans-5b" transform="translate(70.996094 0.015625)"/>
      <use xlink:href="#DejaVuSans-73" transform="translate(110.009766 0.015625)"/>
      <use xlink:href="#DejaVuSans-5d" transform="translate(162.109375 0.015625)"/>
     </g>
    </g>
   </g>
   <g id="matplotlib.axis_2">
    <g id="ytick_1">
     <g id="line2d_15">
      <path d="M 58.106 76.437339 
L 450 76.437339 
" clip-path="url(#p5e019e8450)" style="fill: none; stroke: #b0b0b0; stroke-width: 0.8; stroke-linecap: square"/>
     </g>
     <g id="line2d_16">
      <defs>
       <path id="m23bedca762" d="M 0 0 
L -3.5 0 
" style="stroke: #000000; stroke-width: 0.8"/>
      </defs>
      <g>
       <use xlink:href="#m23bedca762" x="58.106" y="76.437339" style="stroke: #000000; stroke-width: 0.8"/>
      </g>
     </g>
     <g id="text_9">
      <!-- 0 -->
      <g transform="translate(44.7435 80.236558)scale(0.1 -0.1)">
       <use xlink:href="#DejaVuSans-30"/>
      </g>
     </g>
    </g>
    <g id="ytick_2">
     <g id="line2d_17">
      <path d="M 58.106 30.614432 
L 450 30.614432 
" clip-path="url(#p5e019e8450)" style="fill: none; stroke: #b0b0b0; stroke-width: 0.8; stroke-linecap: square"/>
     </g>
     <g id="line2d_18">
      <g>
       <use xlink:href="#m23bedca762" x="58.106" y="30.614432" style="stroke: #000000; stroke-width: 0.8"/>
      </g>
     </g>
     <g id="text_10">
      <!-- 10 -->
      <g transform="translate(38.381 34.413651)scale(0.1 -0.1)">
       <use xlink:href="#DejaVuSans-31"/>
       <use xlink:href="#DejaVuSans-30" x="63.623047"/>
      </g>
     </g>
    </g>
    <g id="text_11">
     <!-- $e_x$ [m] -->
     <g transform="translate(32.301313 69.20875)rotate(-90)scale(0.1 -0.1)">
      <defs>
       <path id="DejaVuSans-Oblique-65" d="M 3078 2063 
Q 3088 2113 3092 2166 
Q 3097 2219 3097 2272 
Q 3097 2653 2873 2875 
Q 2650 3097 2266 3097 
Q 1838 3097 1509 2826 
Q 1181 2556 1013 2059 
L 3078 2063 
z
M 3578 1613 
L 903 1613 
Q 884 1494 878 1425 
Q 872 1356 872 1306 
Q 872 872 1139 634 
Q 1406 397 1894 397 
Q 2269 397 2603 481 
Q 2938 566 3225 728 
L 3116 159 
Q 2806 34 2476 -28 
Q 2147 -91 1806 -91 
Q 1078 -91 686 257 
Q 294 606 294 1247 
Q 294 1794 489 2264 
Q 684 2734 1063 3103 
Q 1306 3334 1642 3459 
Q 1978 3584 2356 3584 
Q 2950 3584 3301 3228 
Q 3653 2872 3653 2272 
Q 3653 2128 3634 1964 
Q 3616 1800 3578 1613 
z
" transform="scale(0.015625)"/>
       <path id="DejaVuSans-Oblique-78" d="M 3841 3500 
L 2234 1784 
L 3219 0 
L 2559 0 
L 1819 1388 
L 531 0 
L -166 0 
L 1556 1844 
L 641 3500 
L 1300 3500 
L 1972 2234 
L 3144 3500 
L 3841 3500 
z
" transform="scale(0.015625)"/>
       <path id="DejaVuSans-6d" d="M 3328 2828 
Q 3544 3216 3844 3400 
Q 4144 3584 4550 3584 
Q 5097 3584 5394 3201 
Q 5691 2819 5691 2113 
L 5691 0 
L 5113 0 
L 5113 2094 
Q 5113 2597 4934 2840 
Q 4756 3084 4391 3084 
Q 3944 3084 3684 2787 
Q 3425 2491 3425 1978 
L 3425 0 
L 2847 0 
L 2847 2094 
Q 2847 2600 2669 2842 
Q 2491 3084 2119 3084 
Q 1678 3084 1418 2786 
Q 1159 2488 1159 1978 
L 1159 0 
L 581 0 
L 581 3500 
L 1159 3500 
L 1159 2956 
Q 1356 3278 1631 3431 
Q 1906 3584 2284 3584 
Q 2666 3584 2933 3390 
Q 3200 3197 3328 2828 
z
" transform="scale(0.015625)"/>
      </defs>
      <use xlink:href="#DejaVuSans-Oblique-65" transform="translate(0 0.015625)"/>
      <use xlink:href="#DejaVuSans-Oblique-78" transform="translate(61.523438 -16.390625)scale(0.7)"/>
      <use xlink:href="#DejaVuSans-20" transform="translate(105.683594 0.015625)"/>
      <use xlink:href="#DejaVuSans-5b" transform="translate(137.470703 0.015625)"/>
      <use xlink:href="#DejaVuSans-6d" transform="translate(176.484375 0.015625)"/>
      <use xlink:href="#DejaVuSans-5d" transform="translate(273.896484 0.015625)"/>
     </g>
    </g>
   </g>
   <g id="line2d_19">
    <path d="M 75.919364 30.614432 
L 83.574693 30.72044 
L 100.063096 31.547416 
L 101.535275 31.712564 
L 104.185197 32.086213 
L 108.896169 32.70131 
L 122.73465 35.145226 
L 125.679008 35.836012 
L 125.973443 35.836012 
L 126.267879 36.003641 
L 127.151186 36.144644 
L 128.034494 36.429407 
L 128.917801 36.573049 
L 129.801108 36.863166 
L 130.684415 37.00992 
L 131.862159 37.367653 
L 132.45103 37.45837 
L 132.745466 37.580101 
L 133.039902 37.580101 
L 133.334337 37.764289 
L 134.217645 37.919092 
L 134.51208 38.04372 
L 134.806516 38.04372 
L 135.100952 38.231797 
L 136.278695 38.452614 
L 138.928617 39.214779 
L 141.284103 39.815638 
L 143.050718 40.282535 
L 144.817332 40.740303 
L 146.583947 41.188179 
L 148.939433 41.766185 
L 149.82274 41.990535 
L 151.88379 42.45841 
L 153.061533 42.785969 
L 153.944841 42.976805 
L 156.300327 43.519749 
L 158.361377 44.003203 
L 159.244684 44.1897 
L 161.894606 44.768192 
L 162.777914 44.973969 
L 165.722271 45.574721 
L 166.605579 45.771581 
L 169.549936 46.355892 
L 170.433243 46.547903 
L 172.78873 47.026531 
L 173.672037 47.218563 
L 176.321959 47.737996 
L 177.205266 47.920372 
L 179.855188 48.413724 
L 180.738495 48.593957 
L 183.093981 49.039486 
L 183.977289 49.212506 
L 186.62721 49.684609 
L 187.510518 49.86057 
L 190.16044 50.346933 
L 191.043747 50.519035 
L 193.988104 51.025449 
L 194.871412 51.199249 
L 197.226898 51.626462 
L 197.815769 51.739429 
L 198.699077 51.918134 
L 200.760127 52.285521 
L 201.348998 52.39129 
L 202.232306 52.560939 
L 204.587792 52.998414 
L 205.471099 53.176761 
L 207.826585 53.591722 
L 208.415457 53.69771 
L 209.298764 53.865534 
L 211.65425 54.31131 
L 214.893044 54.854994 
L 215.481915 55.002893 
L 219.015144 55.614577 
L 219.898452 55.780567 
L 223.137245 56.326719 
L 224.020552 56.489615 
L 226.670474 56.905603 
L 227.259346 57.045568 
L 230.203703 57.561741 
L 234.325804 58.241928 
L 238.153469 58.956289 
L 238.74234 59.038608 
L 243.158877 59.748604 
L 246.692106 60.350738 
L 249.930899 60.887861 
L 254.053 61.598124 
L 254.641872 61.676266 
L 259.058408 62.367287 
L 260.236151 62.555987 
L 263.180509 63.017879 
L 264.652687 63.293574 
L 265.535995 63.400321 
L 268.480352 63.812706 
L 269.069224 63.943569 
L 271.42471 64.304135 
L 272.308017 64.469135 
L 276.724554 65.105529 
L 277.902297 65.283499 
L 282.613269 65.967934 
L 283.791012 66.127276 
L 287.324241 66.614594 
L 288.501984 66.803532 
L 293.801828 67.520937 
L 294.979571 67.674802 
L 299.101672 68.225605 
L 302.340465 68.650205 
L 305.873694 69.116981 
L 309.995795 69.674184 
L 314.706767 70.263337 
L 319.712175 70.915104 
L 321.184354 71.089837 
L 326.484198 71.790885 
L 330.900734 72.329035 
L 332.372913 72.531893 
L 336.495014 73.080238 
L 340.028243 73.506729 
L 340.91155 73.593788 
L 346.211394 74.229334 
L 350.62793 74.68236 
L 365.93859 75.868658 
L 378.893763 76.289963 
L 391.848937 76.178872 
L 418.348156 75.894628 
L 423.059128 76.05052 
L 428.358971 76.349297 
L 432.186636 76.503068 
L 432.186636 76.503068 
" clip-path="url(#p5e019e8450)" style="fill: none; stroke: #ff0000; stroke-width: 1.5; stroke-linecap: square"/>
   </g>
   <g id="patch_3">
    <path d="M 58.106 78.7975 
L 58.106 28.32 
" style="fill: none; stroke: #000000; stroke-width: 0.8; stroke-linejoin: miter; stroke-linecap: square"/>
   </g>
   <g id="patch_4">
    <path d="M 450 78.7975 
L 450 28.32 
" style="fill: none; stroke: #000000; stroke-width: 0.8; stroke-linejoin: miter; stroke-linecap: square"/>
   </g>
   <g id="patch_5">
    <path d="M 58.106 78.7975 
L 450 78.7975 
" style="fill: none; stroke: #000000; stroke-width: 0.8; stroke-linejoin: miter; stroke-linecap: square"/>
   </g>
   <g id="patch_6">
    <path d="M 58.106 28.32 
L 450 28.32 
" style="fill: none; stroke: #000000; stroke-width: 0.8; stroke-linejoin: miter; stroke-linecap: square"/>
   </g>
   <g id="text_12">
    <!-- Error in $x$-position -->
    <g transform="translate(200.413 22.32)scale(0.12 -0.12)">
     <defs>
      <path id="DejaVuSans-45" d="M 628 4666 
L 3578 4666 
L 3578 4134 
L 1259 4134 
L 1259 2753 
L 3481 2753 
L 3481 2222 
L 1259 2222 
L 1259 531 
L 3634 531 
L 3634 0 
L 628 0 
L 628 4666 
z
" transform="scale(0.015625)"/>
      <path id="DejaVuSans-72" d="M 2631 2963 
Q 2534 3019 2420 3045 
Q 2306 3072 2169 3072 
Q 1681 3072 1420 2755 
Q 1159 2438 1159 1844 
L 1159 0 
L 581 0 
L 581 3500 
L 1159 3500 
L 1159 2956 
Q 1341 3275 1631 3429 
Q 1922 3584 2338 3584 
Q 2397 3584 2469 3576 
Q 2541 3569 2628 3553 
L 2631 2963 
z
" transform="scale(0.015625)"/>
      <path id="DejaVuSans-6f" d="M 1959 3097 
Q 1497 3097 1228 2736 
Q 959 2375 959 1747 
Q 959 1119 1226 758 
Q 1494 397 1959 397 
Q 2419 397 2687 759 
Q 2956 1122 2956 1747 
Q 2956 2369 2687 2733 
Q 2419 3097 1959 3097 
z
M 1959 3584 
Q 2709 3584 3137 3096 
Q 3566 2609 3566 1747 
Q 3566 888 3137 398 
Q 2709 -91 1959 -91 
Q 1206 -91 779 398 
Q 353 888 353 1747 
Q 353 2609 779 3096 
Q 1206 3584 1959 3584 
z
" transform="scale(0.015625)"/>
      <path id="DejaVuSans-69" d="M 603 3500 
L 1178 3500 
L 1178 0 
L 603 0 
L 603 3500 
z
M 603 4863 
L 1178 4863 
L 1178 4134 
L 603 4134 
L 603 4863 
z
" transform="scale(0.015625)"/>
      <path id="DejaVuSans-6e" d="M 3513 2113 
L 3513 0 
L 2938 0 
L 2938 2094 
Q 2938 2591 2744 2837 
Q 2550 3084 2163 3084 
Q 1697 3084 1428 2787 
Q 1159 2491 1159 1978 
L 1159 0 
L 581 0 
L 581 3500 
L 1159 3500 
L 1159 2956 
Q 1366 3272 1645 3428 
Q 1925 3584 2291 3584 
Q 2894 3584 3203 3211 
Q 3513 2838 3513 2113 
z
" transform="scale(0.015625)"/>
      <path id="DejaVuSans-2d" d="M 313 2009 
L 1997 2009 
L 1997 1497 
L 313 1497 
L 313 2009 
z
" transform="scale(0.015625)"/>
      <path id="DejaVuSans-70" d="M 1159 525 
L 1159 -1331 
L 581 -1331 
L 581 3500 
L 1159 3500 
L 1159 2969 
Q 1341 3281 1617 3432 
Q 1894 3584 2278 3584 
Q 2916 3584 3314 3078 
Q 3713 2572 3713 1747 
Q 3713 922 3314 415 
Q 2916 -91 2278 -91 
Q 1894 -91 1617 61 
Q 1341 213 1159 525 
z
M 3116 1747 
Q 3116 2381 2855 2742 
Q 2594 3103 2138 3103 
Q 1681 3103 1420 2742 
Q 1159 2381 1159 1747 
Q 1159 1113 1420 752 
Q 1681 391 2138 391 
Q 2594 391 2855 752 
Q 3116 1113 3116 1747 
z
" transform="scale(0.015625)"/>
      <path id="DejaVuSans-74" d="M 1172 4494 
L 1172 3500 
L 2356 3500 
L 2356 3053 
L 1172 3053 
L 1172 1153 
Q 1172 725 1289 603 
Q 1406 481 1766 481 
L 2356 481 
L 2356 0 
L 1766 0 
Q 1100 0 847 248 
Q 594 497 594 1153 
L 594 3053 
L 172 3053 
L 172 3500 
L 594 3500 
L 594 4494 
L 1172 4494 
z
" transform="scale(0.015625)"/>
     </defs>
     <use xlink:href="#DejaVuSans-45" transform="translate(0 0.015625)"/>
     <use xlink:href="#DejaVuSans-72" transform="translate(63.183594 0.015625)"/>
     <use xlink:href="#DejaVuSans-72" transform="translate(104.296875 0.015625)"/>
     <use xlink:href="#DejaVuSans-6f" transform="translate(145.410156 0.015625)"/>
     <use xlink:href="#DejaVuSans-72" transform="translate(206.591797 0.015625)"/>
     <use xlink:href="#DejaVuSans-20" transform="translate(247.705078 0.015625)"/>
     <use xlink:href="#DejaVuSans-69" transform="translate(279.492188 0.015625)"/>
     <use xlink:href="#DejaVuSans-6e" transform="translate(307.275391 0.015625)"/>
     <use xlink:href="#DejaVuSans-20" transform="translate(370.654297 0.015625)"/>
     <use xlink:href="#DejaVuSans-Oblique-78" transform="translate(402.441406 0.015625)"/>
     <use xlink:href="#DejaVuSans-2d" transform="translate(461.621094 0.015625)"/>
     <use xlink:href="#DejaVuSans-70" transform="translate(497.705078 0.015625)"/>
     <use xlink:href="#DejaVuSans-6f" transform="translate(561.181641 0.015625)"/>
     <use xlink:href="#DejaVuSans-73" transform="translate(622.363281 0.015625)"/>
     <use xlink:href="#DejaVuSans-69" transform="translate(674.462891 0.015625)"/>
     <use xlink:href="#DejaVuSans-74" transform="translate(702.246094 0.015625)"/>
     <use xlink:href="#DejaVuSans-69" transform="translate(741.455078 0.015625)"/>
     <use xlink:href="#DejaVuSans-6f" transform="translate(769.238281 0.015625)"/>
     <use xlink:href="#DejaVuSans-6e" transform="translate(830.419922 0.015625)"/>
    </g>
   </g>
  </g>
  <g id="axes_2">
   <g id="patch_7">
    <path d="M 58.106 190.3975 
L 450 190.3975 
L 450 139.92 
L 58.106 139.92 
z
" style="fill: #ffffff"/>
   </g>
   <g id="matplotlib.axis_3">
    <g id="xtick_8">
     <g id="line2d_20">
      <path d="M 75.919364 190.3975 
L 75.919364 139.92 
" clip-path="url(#p87574458f6)" style="fill: none; stroke: #b0b0b0; stroke-width: 0.8; stroke-linecap: square"/>
     </g>
     <g id="line2d_21">
      <g>
       <use xlink:href="#m123337118a" x="75.919364" y="190.3975" style="stroke: #000000; stroke-width: 0.8"/>
      </g>
     </g>
     <g id="text_13">
      <!-- 0 -->
      <g transform="translate(72.738114 204.995937)scale(0.1 -0.1)">
       <use xlink:href="#DejaVuSans-30"/>
      </g>
     </g>
    </g>
    <g id="xtick_9">
     <g id="line2d_22">
      <path d="M 134.757889 190.3975 
L 134.757889 139.92 
" clip-path="url(#p87574458f6)" style="fill: none; stroke: #b0b0b0; stroke-width: 0.8; stroke-linecap: square"/>
     </g>
     <g id="line2d_23">
      <g>
       <use xlink:href="#m123337118a" x="134.757889" y="190.3975" style="stroke: #000000; stroke-width: 0.8"/>
      </g>
     </g>
     <g id="text_14">
      <!-- 2 -->
      <g transform="translate(131.576639 204.995937)scale(0.1 -0.1)">
       <use xlink:href="#DejaVuSans-32"/>
      </g>
     </g>
    </g>
    <g id="xtick_10">
     <g id="line2d_24">
      <path d="M 193.596415 190.3975 
L 193.596415 139.92 
" clip-path="url(#p87574458f6)" style="fill: none; stroke: #b0b0b0; stroke-width: 0.8; stroke-linecap: square"/>
     </g>
     <g id="line2d_25">
      <g>
       <use xlink:href="#m123337118a" x="193.596415" y="190.3975" style="stroke: #000000; stroke-width: 0.8"/>
      </g>
     </g>
     <g id="text_15">
      <!-- 4 -->
      <g transform="translate(190.415165 204.995937)scale(0.1 -0.1)">
       <use xlink:href="#DejaVuSans-34"/>
      </g>
     </g>
    </g>
    <g id="xtick_11">
     <g id="line2d_26">
      <path d="M 252.434941 190.3975 
L 252.434941 139.92 
" clip-path="url(#p87574458f6)" style="fill: none; stroke: #b0b0b0; stroke-width: 0.8; stroke-linecap: square"/>
     </g>
     <g id="line2d_27">
      <g>
       <use xlink:href="#m123337118a" x="252.434941" y="190.3975" style="stroke: #000000; stroke-width: 0.8"/>
      </g>
     </g>
     <g id="text_16">
      <!-- 6 -->
      <g transform="translate(249.253691 204.995937)scale(0.1 -0.1)">
       <use xlink:href="#DejaVuSans-36"/>
      </g>
     </g>
    </g>
    <g id="xtick_12">
     <g id="line2d_28">
      <path d="M 311.273466 190.3975 
L 311.273466 139.92 
" clip-path="url(#p87574458f6)" style="fill: none; stroke: #b0b0b0; stroke-width: 0.8; stroke-linecap: square"/>
     </g>
     <g id="line2d_29">
      <g>
       <use xlink:href="#m123337118a" x="311.273466" y="190.3975" style="stroke: #000000; stroke-width: 0.8"/>
      </g>
     </g>
     <g id="text_17">
      <!-- 8 -->
      <g transform="translate(308.092216 204.995937)scale(0.1 -0.1)">
       <use xlink:href="#DejaVuSans-38"/>
      </g>
     </g>
    </g>
    <g id="xtick_13">
     <g id="line2d_30">
      <path d="M 370.111992 190.3975 
L 370.111992 139.92 
" clip-path="url(#p87574458f6)" style="fill: none; stroke: #b0b0b0; stroke-width: 0.8; stroke-linecap: square"/>
     </g>
     <g id="line2d_31">
      <g>
       <use xlink:href="#m123337118a" x="370.111992" y="190.3975" style="stroke: #000000; stroke-width: 0.8"/>
      </g>
     </g>
     <g id="text_18">
      <!-- 10 -->
      <g transform="translate(363.749492 204.995937)scale(0.1 -0.1)">
       <use xlink:href="#DejaVuSans-31"/>
       <use xlink:href="#DejaVuSans-30" x="63.623047"/>
      </g>
     </g>
    </g>
    <g id="xtick_14">
     <g id="line2d_32">
      <path d="M 428.950517 190.3975 
L 428.950517 139.92 
" clip-path="url(#p87574458f6)" style="fill: none; stroke: #b0b0b0; stroke-width: 0.8; stroke-linecap: square"/>
     </g>
     <g id="line2d_33">
      <g>
       <use xlink:href="#m123337118a" x="428.950517" y="190.3975" style="stroke: #000000; stroke-width: 0.8"/>
      </g>
     </g>
     <g id="text_19">
      <!-- 12 -->
      <g transform="translate(422.588017 204.995937)scale(0.1 -0.1)">
       <use xlink:href="#DejaVuSans-31"/>
       <use xlink:href="#DejaVuSans-32" x="63.623047"/>
      </g>
     </g>
    </g>
    <g id="text_20">
     <!-- $t$ [s] -->
     <g transform="translate(243.953 218.674062)scale(0.1 -0.1)">
      <use xlink:href="#DejaVuSans-Oblique-74" transform="translate(0 0.015625)"/>
      <use xlink:href="#DejaVuSans-20" transform="translate(39.208984 0.015625)"/>
      <use xlink:href="#DejaVuSans-5b" transform="translate(70.996094 0.015625)"/>
      <use xlink:href="#DejaVuSans-73" transform="translate(110.009766 0.015625)"/>
      <use xlink:href="#DejaVuSans-5d" transform="translate(162.109375 0.015625)"/>
     </g>
    </g>
   </g>
   <g id="matplotlib.axis_4">
    <g id="ytick_3">
     <g id="line2d_34">
      <path d="M 58.106 181.100574 
L 450 181.100574 
" clip-path="url(#p87574458f6)" style="fill: none; stroke: #b0b0b0; stroke-width: 0.8; stroke-linecap: square"/>
     </g>
     <g id="line2d_35">
      <g>
       <use xlink:href="#m23bedca762" x="58.106" y="181.100574" style="stroke: #000000; stroke-width: 0.8"/>
      </g>
     </g>
     <g id="text_21">
      <!-- −0.1 -->
      <g transform="translate(26.823188 184.899793)scale(0.1 -0.1)">
       <defs>
        <path id="DejaVuSans-2212" d="M 678 2272 
L 4684 2272 
L 4684 1741 
L 678 1741 
L 678 2272 
z
" transform="scale(0.015625)"/>
        <path id="DejaVuSans-2e" d="M 684 794 
L 1344 794 
L 1344 0 
L 684 0 
L 684 794 
z
" transform="scale(0.015625)"/>
       </defs>
       <use xlink:href="#DejaVuSans-2212"/>
       <use xlink:href="#DejaVuSans-30" x="83.789062"/>
       <use xlink:href="#DejaVuSans-2e" x="147.412109"/>
       <use xlink:href="#DejaVuSans-31" x="179.199219"/>
      </g>
     </g>
    </g>
    <g id="ytick_4">
     <g id="line2d_36">
      <path d="M 58.106 166.328022 
L 450 166.328022 
" clip-path="url(#p87574458f6)" style="fill: none; stroke: #b0b0b0; stroke-width: 0.8; stroke-linecap: square"/>
     </g>
     <g id="line2d_37">
      <g>
       <use xlink:href="#m23bedca762" x="58.106" y="166.328022" style="stroke: #000000; stroke-width: 0.8"/>
      </g>
     </g>
     <g id="text_22">
      <!-- 0.0 -->
      <g transform="translate(35.202875 170.127241)scale(0.1 -0.1)">
       <use xlink:href="#DejaVuSans-30"/>
       <use xlink:href="#DejaVuSans-2e" x="63.623047"/>
       <use xlink:href="#DejaVuSans-30" x="95.410156"/>
      </g>
     </g>
    </g>
    <g id="ytick_5">
     <g id="line2d_38">
      <path d="M 58.106 151.555471 
L 450 151.555471 
" clip-path="url(#p87574458f6)" style="fill: none; stroke: #b0b0b0; stroke-width: 0.8; stroke-linecap: square"/>
     </g>
     <g id="line2d_39">
      <g>
       <use xlink:href="#m23bedca762" x="58.106" y="151.555471" style="stroke: #000000; stroke-width: 0.8"/>
      </g>
     </g>
     <g id="text_23">
      <!-- 0.1 -->
      <g transform="translate(35.202875 155.35469)scale(0.1 -0.1)">
       <use xlink:href="#DejaVuSans-30"/>
       <use xlink:href="#DejaVuSans-2e" x="63.623047"/>
       <use xlink:href="#DejaVuSans-31" x="95.410156"/>
      </g>
     </g>
    </g>
    <g id="text_24">
     <!-- $e_z$ [m] -->
     <g transform="translate(20.7435 180.60875)rotate(-90)scale(0.1 -0.1)">
      <defs>
       <path id="DejaVuSans-Oblique-7a" d="M 744 3500 
L 3475 3500 
L 3372 2975 
L 738 459 
L 2913 459 
L 2822 0 
L -19 0 
L 84 525 
L 2719 3041 
L 653 3041 
L 744 3500 
z
" transform="scale(0.015625)"/>
      </defs>
      <use xlink:href="#DejaVuSans-Oblique-65" transform="translate(0 0.015625)"/>
      <use xlink:href="#DejaVuSans-Oblique-7a" transform="translate(61.523438 -16.390625)scale(0.7)"/>
      <use xlink:href="#DejaVuSans-20" transform="translate(101.000977 0.015625)"/>
      <use xlink:href="#DejaVuSans-5b" transform="translate(132.788086 0.015625)"/>
      <use xlink:href="#DejaVuSans-6d" transform="translate(171.801758 0.015625)"/>
      <use xlink:href="#DejaVuSans-5d" transform="translate(269.213867 0.015625)"/>
     </g>
    </g>
   </g>
   <g id="line2d_40">
    <path d="M 75.919364 167.752694 
L 77.097107 167.004465 
L 77.391542 166.755974 
L 77.685978 166.755974 
L 77.980414 166.423067 
L 79.747029 165.474891 
L 80.630336 165.412099 
L 82.102515 165.753209 
L 82.691386 165.816166 
L 83.574693 165.657575 
L 84.163565 165.28771 
L 84.458001 165.030128 
L 84.752437 165.030128 
L 85.341308 164.395178 
L 86.224615 163.344479 
L 86.519051 163.344479 
L 86.813487 162.939455 
L 87.402358 162.510885 
L 87.99123 162.018979 
L 88.285666 162.018979 
L 89.757844 160.136904 
L 90.05228 160.136904 
L 90.935588 158.16567 
L 91.230023 157.954413 
L 91.818895 157.103474 
L 92.113331 156.273285 
L 92.407766 156.273285 
L 92.702202 155.164863 
L 92.996638 155.00285 
L 94.468817 153.562599 
L 95.940995 153.407683 
L 98.002046 153.617143 
L 100.063096 154.120757 
L 100.651968 154.311143 
L 102.124147 154.536953 
L 103.007454 154.483697 
L 103.890761 154.224746 
L 104.479633 153.825537 
L 105.068504 153.468045 
L 108.307298 150.122689 
L 110.073912 149.144767 
L 110.662784 148.911148 
L 111.251655 148.584422 
L 112.429398 148.037888 
L 113.607141 147.193339 
L 114.196013 146.847921 
L 114.490449 146.60366 
L 114.784884 146.60366 
L 115.373756 146.277181 
L 115.962627 146.027659 
L 116.257063 145.835776 
L 116.551499 145.835776 
L 117.14037 145.529679 
L 117.729242 145.228383 
L 118.023678 144.942243 
L 118.318113 144.942243 
L 118.906985 144.440121 
L 119.495856 143.975805 
L 119.790292 143.591201 
L 120.084728 143.591201 
L 120.379164 143.222423 
L 122.145778 142.295131 
L 123.029086 142.214432 
L 124.501264 142.525039 
L 125.973443 143.213737 
L 126.267879 143.741437 
L 126.856751 144.041381 
L 127.151186 144.252176 
L 127.445622 144.690092 
L 127.740058 144.690092 
L 128.034494 145.351379 
L 128.623365 145.666768 
L 128.917801 145.867157 
L 129.212237 146.238652 
L 129.506672 146.238652 
L 129.801108 146.722637 
L 130.38998 146.935866 
L 130.684415 147.070569 
L 131.273287 147.462714 
L 132.156594 147.966414 
L 132.45103 148.12949 
L 132.745466 148.490468 
L 133.039902 148.490468 
L 133.334337 149.126555 
L 133.628773 149.243237 
L 134.217645 149.736504 
L 134.51208 150.264208 
L 134.806516 150.264208 
L 135.100952 151.079993 
L 135.395388 151.214364 
L 136.573131 152.337291 
L 136.867566 152.762538 
L 139.223053 154.187976 
L 139.517488 154.327208 
L 139.811924 154.713503 
L 140.10636 154.713503 
L 140.695231 155.268667 
L 141.284103 155.690036 
L 142.461846 156.930432 
L 144.522896 158.384379 
L 147.172818 159.369937 
L 147.76169 159.761912 
L 148.644997 160.256984 
L 150.411612 161.934076 
L 150.706047 161.934076 
L 151.000483 162.50121 
L 151.589355 162.768397 
L 151.88379 162.94258 
L 152.472662 163.464136 
L 153.061533 164.029997 
L 153.650405 164.345776 
L 153.944841 164.811944 
L 154.239276 165.067001 
L 154.828148 165.925667 
L 155.122584 166.082566 
L 155.41702 166.407422 
L 155.711455 167.098674 
L 156.005891 167.462831 
L 156.594763 168.60747 
L 156.889198 168.803242 
L 157.183634 169.195805 
L 157.47807 169.973298 
L 158.066941 170.903451 
L 158.361377 171.427289 
L 158.655813 171.595161 
L 158.950249 171.920357 
L 159.244684 172.527929 
L 160.127992 173.467481 
L 160.422427 173.950631 
L 160.716863 173.950631 
L 161.011299 174.415902 
L 161.894606 175.228446 
L 162.189042 175.704263 
L 162.483478 175.704263 
L 162.777914 176.183379 
L 163.955657 177.248615 
L 164.250092 177.71671 
L 165.722271 178.901791 
L 166.016707 179.268664 
L 167.19445 179.839659 
L 168.372193 180.1999 
L 171.022115 180.472671 
L 171.610986 180.757747 
L 172.78873 181.260072 
L 173.377601 181.512595 
L 174.260908 181.623733 
L 176.321959 181.284062 
L 176.91083 181.198555 
L 177.794137 181.251033 
L 179.560752 181.881684 
L 180.444059 182.120463 
L 181.327367 182.063232 
L 181.621802 181.940065 
L 181.916238 181.940065 
L 182.50511 181.720925 
L 184.860596 181.215724 
L 186.038339 181.540074 
L 186.62721 181.879259 
L 186.921646 182.166452 
L 187.216082 182.166452 
L 187.510518 182.427769 
L 188.688261 182.814586 
L 189.866004 182.737752 
L 191.338183 182.269219 
L 192.810361 181.894093 
L 193.693669 182.033273 
L 193.988104 182.192292 
L 194.576976 182.670635 
L 195.460283 183.28242 
L 196.343591 184.167235 
L 197.521334 184.817169 
L 198.110205 184.917025 
L 199.287948 184.930709 
L 200.171255 184.833097 
L 201.348998 184.803545 
L 202.526742 185.190766 
L 202.821177 185.532552 
L 203.115613 185.532552 
L 203.704485 185.992118 
L 205.471099 186.828101 
L 206.354406 186.890736 
L 209.298764 186.58821 
L 210.182071 186.74491 
L 210.770943 186.924665 
L 212.243122 187.41403 
L 213.420865 187.507194 
L 214.304172 187.365877 
L 214.598608 187.216793 
L 214.893044 187.216793 
L 215.187479 186.964682 
L 216.070787 186.757409 
L 216.659658 186.556939 
L 217.542965 186.500451 
L 218.131837 186.644318 
L 219.015144 186.954891 
L 219.30958 187.151643 
L 219.604016 187.151643 
L 220.192887 187.415388 
L 221.37063 187.5951 
L 222.548373 187.402779 
L 223.137245 187.203178 
L 223.726116 186.937404 
L 225.198295 186.515213 
L 226.081603 186.5689 
L 226.376038 186.69431 
L 226.670474 186.69431 
L 226.96491 186.970359 
L 227.848217 187.239138 
L 228.437089 187.540799 
L 229.02596 187.745578 
L 230.203703 187.761416 
L 230.792575 187.633385 
L 231.087011 187.492521 
L 231.381446 187.492521 
L 231.970318 187.242431 
L 233.736932 186.779537 
L 234.62024 186.895989 
L 235.503547 187.251196 
L 236.386854 187.636625 
L 236.975726 187.907984 
L 237.859033 188.045397 
L 239.036776 187.857922 
L 239.625648 187.659387 
L 239.920083 187.470316 
L 240.214519 187.470316 
L 240.803391 187.186063 
L 241.686698 187.002896 
L 242.570005 187.092788 
L 243.453313 187.378336 
L 244.042184 187.680482 
L 245.514363 188.078729 
L 246.39767 188.049942 
L 247.280977 187.801435 
L 247.869849 187.499677 
L 249.930899 186.796302 
L 250.814207 186.856689 
L 252.286385 187.351357 
L 252.875257 187.45264 
L 253.758564 187.502638 
L 255.525179 187.164587 
L 255.819615 187.0326 
L 256.11405 187.0326 
L 256.702922 186.821667 
L 258.175101 186.587391 
L 259.647279 186.649646 
L 260.825023 186.7698 
L 262.002766 186.742132 
L 263.180509 186.552866 
L 264.063816 186.359525 
L 266.713738 185.890961 
L 267.008174 185.708318 
L 267.891481 185.549623 
L 268.185917 185.420985 
L 268.480352 185.420985 
L 268.774788 185.196877 
L 269.658095 184.996941 
L 269.952531 184.859275 
L 270.246967 184.859275 
L 270.541403 184.719404 
L 272.308017 184.737859 
L 274.369068 184.804795 
L 274.957939 184.683125 
L 275.252375 184.526334 
L 275.546811 184.526334 
L 276.135682 184.219839 
L 276.724554 183.944665 
L 277.313425 183.591997 
L 279.668911 182.648899 
L 280.552219 182.664802 
L 282.318833 183.182388 
L 283.20214 183.401452 
L 284.085448 183.361983 
L 284.968755 182.990475 
L 285.557627 182.746681 
L 285.852062 182.435007 
L 286.146498 182.435007 
L 286.73537 182.05928 
L 287.913113 181.575103 
L 288.207548 181.308688 
L 289.385292 181.254988 
L 289.974163 181.40186 
L 291.740778 182.024608 
L 292.624085 182.133446 
L 293.507392 182.012716 
L 296.746186 180.78906 
L 297.923929 180.645106 
L 299.101672 180.775737 
L 300.57385 181.10253 
L 301.457158 181.133025 
L 302.634901 180.935119 
L 303.812644 180.553257 
L 305.873694 180.340183 
L 308.523616 180.427244 
L 310.290231 180.399493 
L 313.234588 180.199929 
L 315.590074 180.407396 
L 317.062253 180.559099 
L 319.123304 180.51393 
L 323.245404 180.339067 
L 324.128711 180.478736 
L 327.661941 181.021268 
L 333.550656 181.265046 
L 335.611706 181.781266 
L 340.322678 182.173762 
L 341.794857 182.391156 
L 342.678165 182.486291 
L 345.622522 183.085393 
L 346.505829 183.448832 
L 347.094701 183.680405 
L 347.683573 183.791465 
L 348.861316 183.851637 
L 349.744623 183.703986 
L 351.216802 183.367091 
L 352.394545 183.343163 
L 353.277852 183.493505 
L 353.572288 183.792793 
L 354.161159 183.992213 
L 354.455595 184.138187 
L 354.750031 184.445132 
L 355.044467 184.445132 
L 355.338902 184.872135 
L 356.22221 185.128128 
L 356.811081 185.261594 
L 357.694388 185.159924 
L 357.988824 185.084349 
L 359.166567 184.417771 
L 359.461003 184.24891 
L 359.755439 184.24891 
L 360.34431 183.971814 
L 361.227618 183.715339 
L 362.110925 183.632564 
L 362.699796 183.434805 
L 363.583104 183.133249 
L 365.349718 181.737667 
L 366.233026 180.820599 
L 367.705204 180.059566 
L 368.882947 180.016917 
L 370.06069 179.948155 
L 370.355126 179.88603 
L 372.121741 178.735841 
L 372.416177 178.310662 
L 373.299484 177.651998 
L 373.59392 177.351198 
L 374.771663 176.930243 
L 375.949406 176.637187 
L 376.538277 176.477492 
L 378.010456 175.695944 
L 378.599328 175.260336 
L 378.893763 174.961524 
L 379.188199 174.961524 
L 379.482635 174.755977 
L 380.365942 174.657846 
L 380.954814 174.841043 
L 383.015864 175.424777 
L 383.899171 175.285328 
L 384.193607 174.989742 
L 384.488043 174.989742 
L 385.076914 174.422693 
L 385.960222 173.588063 
L 386.254657 173.170213 
L 387.137965 172.715598 
L 388.315708 172.398161 
L 389.199015 172.546805 
L 389.787887 172.717383 
L 390.671194 172.74606 
L 390.96563 172.680427 
L 392.732244 171.575894 
L 393.615551 170.581571 
L 395.08773 169.709831 
L 395.971038 169.669038 
L 396.559909 169.775506 
L 397.148781 169.938854 
L 398.032088 169.985751 
L 398.620959 169.866023 
L 399.798702 169.120828 
L 400.093138 168.532708 
L 400.387574 168.532708 
L 400.68201 168.05963 
L 402.448624 166.772925 
L 403.331932 166.592593 
L 404.215239 166.589644 
L 406.276289 166.713407 
L 406.865161 166.513616 
L 407.454032 166.080913 
L 408.33734 165.471209 
L 408.631775 165.228227 
L 409.220647 165.002164 
L 409.809518 164.607478 
L 410.39839 164.518328 
L 411.281697 164.590317 
L 412.45944 164.897418 
L 413.637183 164.845426 
L 414.520491 164.512639 
L 415.109362 164.081822 
L 415.698234 163.725788 
L 415.992669 163.465917 
L 416.287105 163.465917 
L 416.875977 163.225069 
L 417.759284 163.156714 
L 418.642591 163.252707 
L 420.11477 163.387871 
L 420.998077 163.212728 
L 421.586949 162.906929 
L 422.17582 162.387296 
L 423.059128 161.745344 
L 423.353563 161.424393 
L 425.70905 160.22844 
L 426.297921 160.212207 
L 426.592357 160.334309 
L 426.886793 160.334309 
L 429.536715 162.35587 
L 430.125586 162.573952 
L 431.008893 162.73022 
L 431.597765 162.651362 
L 431.892201 162.525732 
L 432.186636 162.525732 
L 432.186636 162.525732 
" clip-path="url(#p87574458f6)" style="fill: none; stroke: #0000ff; stroke-width: 1.5; stroke-linecap: square"/>
   </g>
   <g id="patch_8">
    <path d="M 58.106 190.3975 
L 58.106 139.92 
" style="fill: none; stroke: #000000; stroke-width: 0.8; stroke-linejoin: miter; stroke-linecap: square"/>
   </g>
   <g id="patch_9">
    <path d="M 450 190.3975 
L 450 139.92 
" style="fill: none; stroke: #000000; stroke-width: 0.8; stroke-linejoin: miter; stroke-linecap: square"/>
   </g>
   <g id="patch_10">
    <path d="M 58.106 190.3975 
L 450 190.3975 
" style="fill: none; stroke: #000000; stroke-width: 0.8; stroke-linejoin: miter; stroke-linecap: square"/>
   </g>
   <g id="patch_11">
    <path d="M 58.106 139.92 
L 450 139.92 
" style="fill: none; stroke: #000000; stroke-width: 0.8; stroke-linejoin: miter; stroke-linecap: square"/>
   </g>
   <g id="text_25">
    <!-- Error in $z$-position -->
    <g transform="translate(200.773 133.92)scale(0.12 -0.12)">
     <use xlink:href="#DejaVuSans-45" transform="translate(0 0.015625)"/>
     <use xlink:href="#DejaVuSans-72" transform="translate(63.183594 0.015625)"/>
     <use xlink:href="#DejaVuSans-72" transform="translate(104.296875 0.015625)"/>
     <use xlink:href="#DejaVuSans-6f" transform="translate(145.410156 0.015625)"/>
     <use xlink:href="#DejaVuSans-72" transform="translate(206.591797 0.015625)"/>
     <use xlink:href="#DejaVuSans-20" transform="translate(247.705078 0.015625)"/>
     <use xlink:href="#DejaVuSans-69" transform="translate(279.492188 0.015625)"/>
     <use xlink:href="#DejaVuSans-6e" transform="translate(307.275391 0.015625)"/>
     <use xlink:href="#DejaVuSans-20" transform="translate(370.654297 0.015625)"/>
     <use xlink:href="#DejaVuSans-Oblique-7a" transform="translate(402.441406 0.015625)"/>
     <use xlink:href="#DejaVuSans-2d" transform="translate(454.931641 0.015625)"/>
     <use xlink:href="#DejaVuSans-70" transform="translate(491.015625 0.015625)"/>
     <use xlink:href="#DejaVuSans-6f" transform="translate(554.492188 0.015625)"/>
     <use xlink:href="#DejaVuSans-73" transform="translate(615.673828 0.015625)"/>
     <use xlink:href="#DejaVuSans-69" transform="translate(667.773438 0.015625)"/>
     <use xlink:href="#DejaVuSans-74" transform="translate(695.556641 0.015625)"/>
     <use xlink:href="#DejaVuSans-69" transform="translate(734.765625 0.015625)"/>
     <use xlink:href="#DejaVuSans-6f" transform="translate(762.548828 0.015625)"/>
     <use xlink:href="#DejaVuSans-6e" transform="translate(823.730469 0.015625)"/>
    </g>
   </g>
  </g>
  <g id="axes_3">
   <g id="patch_12">
    <path d="M 58.106 301.9975 
L 450 301.9975 
L 450 251.52 
L 58.106 251.52 
z
" style="fill: #ffffff"/>
   </g>
   <g id="matplotlib.axis_5">
    <g id="xtick_15">
     <g id="line2d_41">
      <path d="M 75.919364 301.9975 
L 75.919364 251.52 
" clip-path="url(#p7b77b8ffd2)" style="fill: none; stroke: #b0b0b0; stroke-width: 0.8; stroke-linecap: square"/>
     </g>
     <g id="line2d_42">
      <g>
       <use xlink:href="#m123337118a" x="75.919364" y="301.9975" style="stroke: #000000; stroke-width: 0.8"/>
      </g>
     </g>
     <g id="text_26">
      <!-- 0 -->
      <g transform="translate(72.738114 316.595937)scale(0.1 -0.1)">
       <use xlink:href="#DejaVuSans-30"/>
      </g>
     </g>
    </g>
    <g id="xtick_16">
     <g id="line2d_43">
      <path d="M 134.757889 301.9975 
L 134.757889 251.52 
" clip-path="url(#p7b77b8ffd2)" style="fill: none; stroke: #b0b0b0; stroke-width: 0.8; stroke-linecap: square"/>
     </g>
     <g id="line2d_44">
      <g>
       <use xlink:href="#m123337118a" x="134.757889" y="301.9975" style="stroke: #000000; stroke-width: 0.8"/>
      </g>
     </g>
     <g id="text_27">
      <!-- 2 -->
      <g transform="translate(131.576639 316.595937)scale(0.1 -0.1)">
       <use xlink:href="#DejaVuSans-32"/>
      </g>
     </g>
    </g>
    <g id="xtick_17">
     <g id="line2d_45">
      <path d="M 193.596415 301.9975 
L 193.596415 251.52 
" clip-path="url(#p7b77b8ffd2)" style="fill: none; stroke: #b0b0b0; stroke-width: 0.8; stroke-linecap: square"/>
     </g>
     <g id="line2d_46">
      <g>
       <use xlink:href="#m123337118a" x="193.596415" y="301.9975" style="stroke: #000000; stroke-width: 0.8"/>
      </g>
     </g>
     <g id="text_28">
      <!-- 4 -->
      <g transform="translate(190.415165 316.595937)scale(0.1 -0.1)">
       <use xlink:href="#DejaVuSans-34"/>
      </g>
     </g>
    </g>
    <g id="xtick_18">
     <g id="line2d_47">
      <path d="M 252.434941 301.9975 
L 252.434941 251.52 
" clip-path="url(#p7b77b8ffd2)" style="fill: none; stroke: #b0b0b0; stroke-width: 0.8; stroke-linecap: square"/>
     </g>
     <g id="line2d_48">
      <g>
       <use xlink:href="#m123337118a" x="252.434941" y="301.9975" style="stroke: #000000; stroke-width: 0.8"/>
      </g>
     </g>
     <g id="text_29">
      <!-- 6 -->
      <g transform="translate(249.253691 316.595937)scale(0.1 -0.1)">
       <use xlink:href="#DejaVuSans-36"/>
      </g>
     </g>
    </g>
    <g id="xtick_19">
     <g id="line2d_49">
      <path d="M 311.273466 301.9975 
L 311.273466 251.52 
" clip-path="url(#p7b77b8ffd2)" style="fill: none; stroke: #b0b0b0; stroke-width: 0.8; stroke-linecap: square"/>
     </g>
     <g id="line2d_50">
      <g>
       <use xlink:href="#m123337118a" x="311.273466" y="301.9975" style="stroke: #000000; stroke-width: 0.8"/>
      </g>
     </g>
     <g id="text_30">
      <!-- 8 -->
      <g transform="translate(308.092216 316.595937)scale(0.1 -0.1)">
       <use xlink:href="#DejaVuSans-38"/>
      </g>
     </g>
    </g>
    <g id="xtick_20">
     <g id="line2d_51">
      <path d="M 370.111992 301.9975 
L 370.111992 251.52 
" clip-path="url(#p7b77b8ffd2)" style="fill: none; stroke: #b0b0b0; stroke-width: 0.8; stroke-linecap: square"/>
     </g>
     <g id="line2d_52">
      <g>
       <use xlink:href="#m123337118a" x="370.111992" y="301.9975" style="stroke: #000000; stroke-width: 0.8"/>
      </g>
     </g>
     <g id="text_31">
      <!-- 10 -->
      <g transform="translate(363.749492 316.595937)scale(0.1 -0.1)">
       <use xlink:href="#DejaVuSans-31"/>
       <use xlink:href="#DejaVuSans-30" x="63.623047"/>
      </g>
     </g>
    </g>
    <g id="xtick_21">
     <g id="line2d_53">
      <path d="M 428.950517 301.9975 
L 428.950517 251.52 
" clip-path="url(#p7b77b8ffd2)" style="fill: none; stroke: #b0b0b0; stroke-width: 0.8; stroke-linecap: square"/>
     </g>
     <g id="line2d_54">
      <g>
       <use xlink:href="#m123337118a" x="428.950517" y="301.9975" style="stroke: #000000; stroke-width: 0.8"/>
      </g>
     </g>
     <g id="text_32">
      <!-- 12 -->
      <g transform="translate(422.588017 316.595937)scale(0.1 -0.1)">
       <use xlink:href="#DejaVuSans-31"/>
       <use xlink:href="#DejaVuSans-32" x="63.623047"/>
      </g>
     </g>
    </g>
    <g id="text_33">
     <!-- $t$ [s] -->
     <g transform="translate(243.953 330.274063)scale(0.1 -0.1)">
      <use xlink:href="#DejaVuSans-Oblique-74" transform="translate(0 0.015625)"/>
      <use xlink:href="#DejaVuSans-20" transform="translate(39.208984 0.015625)"/>
      <use xlink:href="#DejaVuSans-5b" transform="translate(70.996094 0.015625)"/>
      <use xlink:href="#DejaVuSans-73" transform="translate(110.009766 0.015625)"/>
      <use xlink:href="#DejaVuSans-5d" transform="translate(162.109375 0.015625)"/>
     </g>
    </g>
   </g>
   <g id="matplotlib.axis_6">
    <g id="ytick_6">
     <g id="line2d_55">
      <path d="M 58.106 294.835909 
L 450 294.835909 
" clip-path="url(#p7b77b8ffd2)" style="fill: none; stroke: #b0b0b0; stroke-width: 0.8; stroke-linecap: square"/>
     </g>
     <g id="line2d_56">
      <g>
       <use xlink:href="#m23bedca762" x="58.106" y="294.835909" style="stroke: #000000; stroke-width: 0.8"/>
      </g>
     </g>
     <g id="text_34">
      <!-- −0.1 -->
      <g transform="translate(26.823188 298.635127)scale(0.1 -0.1)">
       <use xlink:href="#DejaVuSans-2212"/>
       <use xlink:href="#DejaVuSans-30" x="83.789062"/>
       <use xlink:href="#DejaVuSans-2e" x="147.412109"/>
       <use xlink:href="#DejaVuSans-31" x="179.199219"/>
      </g>
     </g>
    </g>
    <g id="ytick_7">
     <g id="line2d_57">
      <path d="M 58.106 277.361954 
L 450 277.361954 
" clip-path="url(#p7b77b8ffd2)" style="fill: none; stroke: #b0b0b0; stroke-width: 0.8; stroke-linecap: square"/>
     </g>
     <g id="line2d_58">
      <g>
       <use xlink:href="#m23bedca762" x="58.106" y="277.361954" style="stroke: #000000; stroke-width: 0.8"/>
      </g>
     </g>
     <g id="text_35">
      <!-- 0.0 -->
      <g transform="translate(35.202875 281.161173)scale(0.1 -0.1)">
       <use xlink:href="#DejaVuSans-30"/>
       <use xlink:href="#DejaVuSans-2e" x="63.623047"/>
       <use xlink:href="#DejaVuSans-30" x="95.410156"/>
      </g>
     </g>
    </g>
    <g id="ytick_8">
     <g id="line2d_59">
      <path d="M 58.106 259.888 
L 450 259.888 
" clip-path="url(#p7b77b8ffd2)" style="fill: none; stroke: #b0b0b0; stroke-width: 0.8; stroke-linecap: square"/>
     </g>
     <g id="line2d_60">
      <g>
       <use xlink:href="#m23bedca762" x="58.106" y="259.888" style="stroke: #000000; stroke-width: 0.8"/>
      </g>
     </g>
     <g id="text_36">
      <!-- 0.1 -->
      <g transform="translate(35.202875 263.687218)scale(0.1 -0.1)">
       <use xlink:href="#DejaVuSans-30"/>
       <use xlink:href="#DejaVuSans-2e" x="63.623047"/>
       <use xlink:href="#DejaVuSans-31" x="95.410156"/>
      </g>
     </g>
    </g>
    <g id="text_37">
     <!-- $e_\theta$ [rad] -->
     <g transform="translate(20.7435 295.90875)rotate(-90)scale(0.1 -0.1)">
      <defs>
       <path id="DejaVuSans-Oblique-3b8" d="M 2913 2219 
L 925 2219 
Q 791 1284 928 888 
Q 1100 400 1566 400 
Q 2034 400 2391 891 
Q 2703 1322 2913 2219 
z
M 3009 2750 
Q 3094 3638 2984 3950 
Q 2813 4444 2353 4444 
Q 1875 4444 1525 3956 
Q 1250 3563 1034 2750 
L 3009 2750 
z
M 2444 4913 
Q 3194 4913 3494 4250 
Q 3794 3591 3566 2422 
Q 3341 1256 2781 594 
Q 2225 -72 1475 -72 
Q 722 -72 425 594 
Q 128 1256 353 2422 
Q 581 3591 1134 4250 
Q 1691 4913 2444 4913 
z
" transform="scale(0.015625)"/>
       <path id="DejaVuSans-61" d="M 2194 1759 
Q 1497 1759 1228 1600 
Q 959 1441 959 1056 
Q 959 750 1161 570 
Q 1363 391 1709 391 
Q 2188 391 2477 730 
Q 2766 1069 2766 1631 
L 2766 1759 
L 2194 1759 
z
M 3341 1997 
L 3341 0 
L 2766 0 
L 2766 531 
Q 2569 213 2275 61 
Q 1981 -91 1556 -91 
Q 1019 -91 701 211 
Q 384 513 384 1019 
Q 384 1609 779 1909 
Q 1175 2209 1959 2209 
L 2766 2209 
L 2766 2266 
Q 2766 2663 2505 2880 
Q 2244 3097 1772 3097 
Q 1472 3097 1187 3025 
Q 903 2953 641 2809 
L 641 3341 
Q 956 3463 1253 3523 
Q 1550 3584 1831 3584 
Q 2591 3584 2966 3190 
Q 3341 2797 3341 1997 
z
" transform="scale(0.015625)"/>
       <path id="DejaVuSans-64" d="M 2906 2969 
L 2906 4863 
L 3481 4863 
L 3481 0 
L 2906 0 
L 2906 525 
Q 2725 213 2448 61 
Q 2172 -91 1784 -91 
Q 1150 -91 751 415 
Q 353 922 353 1747 
Q 353 2572 751 3078 
Q 1150 3584 1784 3584 
Q 2172 3584 2448 3432 
Q 2725 3281 2906 2969 
z
M 947 1747 
Q 947 1113 1208 752 
Q 1469 391 1925 391 
Q 2381 391 2643 752 
Q 2906 1113 2906 1747 
Q 2906 2381 2643 2742 
Q 2381 3103 1925 3103 
Q 1469 3103 1208 2742 
Q 947 2381 947 1747 
z
" transform="scale(0.015625)"/>
      </defs>
      <use xlink:href="#DejaVuSans-Oblique-65" transform="translate(0 0.015625)"/>
      <use xlink:href="#DejaVuSans-Oblique-3b8" transform="translate(61.523438 -16.390625)scale(0.7)"/>
      <use xlink:href="#DejaVuSans-20" transform="translate(107.084961 0.015625)"/>
      <use xlink:href="#DejaVuSans-5b" transform="translate(138.87207 0.015625)"/>
      <use xlink:href="#DejaVuSans-72" transform="translate(177.885742 0.015625)"/>
      <use xlink:href="#DejaVuSans-61" transform="translate(218.999023 0.015625)"/>
      <use xlink:href="#DejaVuSans-64" transform="translate(280.27832 0.015625)"/>
      <use xlink:href="#DejaVuSans-5d" transform="translate(343.754883 0.015625)"/>
     </g>
    </g>
   </g>
   <g id="line2d_61">
    <path d="M 75.919364 277.350252 
L 77.097107 276.406036 
L 77.391542 275.646921 
L 77.685978 275.646921 
L 78.863721 268.20466 
L 79.158157 267.502749 
L 79.452593 266.160102 
L 79.747029 263.806746 
L 80.630336 261.039068 
L 80.924772 260.418136 
L 81.219207 260.415493 
L 81.513643 260.598235 
L 82.102515 261.419018 
L 82.39695 262.381359 
L 82.691386 264.050611 
L 83.574693 267.187776 
L 84.458001 273.032361 
L 84.752437 273.032361 
L 85.046872 276.294222 
L 85.341308 278.118051 
L 86.224615 287.288788 
L 86.519051 287.288788 
L 86.813487 290.850549 
L 87.99123 296.103546 
L 88.285666 296.103546 
L 88.580101 297.060391 
L 89.757844 298.619287 
L 90.05228 298.619287 
L 90.346716 298.786216 
L 90.641152 298.412736 
L 90.935588 297.305159 
L 91.230023 296.752939 
L 91.818895 293.676324 
L 92.113331 289.590884 
L 92.407766 289.590884 
L 92.702202 282.666066 
L 92.996638 281.518021 
L 93.585509 277.014407 
L 94.174381 269.916577 
L 94.468817 267.235936 
L 94.763252 266.398243 
L 95.352124 263.298702 
L 95.64656 260.840975 
L 96.529867 257.951668 
L 96.824303 257.437454 
L 97.118739 257.437454 
L 97.413174 257.100165 
L 98.002046 257.043628 
L 98.296482 257.158169 
L 99.76866 259.07353 
L 100.063096 259.944178 
L 100.357532 261.378995 
L 101.240839 264.172077 
L 101.829711 266.527171 
L 102.124147 268.612643 
L 102.418582 271.842684 
L 103.596325 279.640052 
L 104.479633 288.845567 
L 105.36294 294.852194 
L 105.657376 297.136239 
L 105.951811 297.812722 
L 106.246247 298.141372 
L 106.540683 298.120521 
L 106.835119 297.775417 
L 107.129554 297.135788 
L 107.42399 295.708523 
L 107.718426 293.201512 
L 108.896169 287.199745 
L 109.779476 280.299341 
L 110.662784 275.670839 
L 110.957219 273.770931 
L 111.251655 273.169417 
L 111.546091 272.86155 
L 111.840527 272.862139 
L 112.134962 273.166539 
L 112.429398 273.736034 
L 112.723834 274.956345 
L 113.01827 277.015676 
L 114.490449 282.819811 
L 114.784884 282.819811 
L 115.07932 283.489173 
L 115.373756 283.58787 
L 115.668192 283.545751 
L 115.962627 283.244045 
L 116.257063 282.410535 
L 116.551499 282.410535 
L 117.14037 280.352939 
L 117.434806 279.484323 
L 117.729242 278.044455 
L 118.023678 275.911913 
L 118.318113 275.911913 
L 118.612549 273.61297 
L 119.201421 271.204699 
L 119.790292 266.818493 
L 120.084728 266.818493 
L 120.379164 264.271702 
L 121.262471 260.008051 
L 121.556907 257.917643 
L 121.851343 257.917643 
L 122.145778 256.27002 
L 122.73465 255.173531 
L 123.029086 254.766931 
L 123.617957 254.841075 
L 124.501264 257.182793 
L 124.7957 258.682033 
L 125.090136 260.9095 
L 125.384572 260.9095 
L 125.679008 263.115495 
L 125.973443 263.115495 
L 126.267879 265.939883 
L 126.562315 266.312108 
L 127.445622 268.017008 
L 128.328929 267.915076 
L 128.917801 267.412317 
L 129.212237 266.722892 
L 129.506672 266.722892 
L 129.801108 265.726846 
L 130.684415 265.304769 
L 131.273287 265.638646 
L 132.745466 268.098246 
L 133.039902 268.098246 
L 133.334337 269.302414 
L 133.628773 269.484031 
L 134.51208 270.662646 
L 134.806516 270.662646 
L 135.100952 271.292492 
L 135.395388 271.405341 
L 135.984259 271.95611 
L 136.278695 272.312394 
L 136.573131 272.960527 
L 136.867566 274.058147 
L 138.04531 276.674581 
L 138.928617 279.04916 
L 139.517488 279.882462 
L 139.811924 280.851632 
L 140.10636 280.851632 
L 140.400796 281.532248 
L 141.872974 283.042276 
L 142.461846 283.066489 
L 143.050718 282.916869 
L 143.345153 282.775953 
L 143.639589 282.481567 
L 144.228461 281.638872 
L 144.817332 280.903606 
L 145.700639 279.110646 
L 148.644997 275.427956 
L 148.939433 274.643168 
L 149.528304 272.420907 
L 150.117176 270.338042 
L 150.411612 267.804896 
L 150.706047 267.804896 
L 151.000483 263.589485 
L 151.294919 262.875918 
L 151.88379 260.142031 
L 152.178226 257.912058 
L 153.061533 255.421165 
L 153.650405 254.926683 
L 153.944841 254.594704 
L 154.828148 254.494571 
L 156.889198 254.594113 
L 158.066941 254.787032 
L 158.950249 255.060215 
L 159.833556 256.160778 
L 160.127992 256.918255 
L 160.422427 258.20719 
L 160.716863 258.20719 
L 161.011299 259.701455 
L 161.600171 261.267211 
L 162.189042 263.669515 
L 162.483478 263.669515 
L 162.777914 264.699438 
L 163.366785 265.468041 
L 163.955657 265.853334 
L 165.1334 264.849167 
L 166.016707 263.98756 
L 166.605579 264.153788 
L 167.19445 264.760727 
L 167.488886 265.221217 
L 167.783322 266.087111 
L 168.077757 267.467815 
L 169.549936 270.995752 
L 169.844372 271.39641 
L 170.138808 271.375941 
L 170.727679 271.032385 
L 171.610986 269.946655 
L 172.199858 269.723827 
L 172.494294 269.742303 
L 172.78873 270.037351 
L 173.966473 274.476637 
L 174.260908 276.778782 
L 174.555344 280.146443 
L 175.438651 284.73507 
L 176.027523 286.646453 
L 176.321959 287.166284 
L 176.91083 286.016315 
L 177.499702 284.097509 
L 177.794137 282.925921 
L 178.677445 277.322078 
L 179.560752 274.502719 
L 179.855188 273.7509 
L 180.149624 273.797695 
L 180.444059 274.285924 
L 181.032931 276.07198 
L 181.327367 277.971807 
L 181.621802 280.822877 
L 181.916238 280.822877 
L 182.210674 283.42193 
L 182.799545 285.103877 
L 183.093981 285.436093 
L 183.682853 283.559527 
L 184.271724 280.815343 
L 184.56616 279.164743 
L 185.155032 272.882387 
L 185.449467 272.882387 
L 185.743903 269.388206 
L 186.921646 263.214697 
L 187.216082 263.214697 
L 187.510518 263.532867 
L 187.804953 264.22721 
L 188.099389 265.23243 
L 188.393825 267.238827 
L 188.688261 270.495691 
L 188.982696 270.495691 
L 189.277132 274.016185 
L 190.16044 278.955768 
L 190.454875 279.764323 
L 190.749311 279.485492 
L 191.043747 278.784221 
L 191.632618 276.338316 
L 191.927054 273.830274 
L 192.22149 270.013413 
L 194.576976 254.643356 
L 194.871412 254.061316 
L 195.165847 253.814432 
L 195.460283 253.919532 
L 195.754719 254.769501 
L 196.343591 258.717231 
L 197.226898 264.588526 
L 197.521334 269.90521 
L 197.815769 269.90521 
L 198.110205 273.756554 
L 198.699077 276.912757 
L 199.287948 278.958332 
L 199.582384 278.958332 
L 200.465691 275.236232 
L 200.760127 273.671264 
L 201.054563 269.28456 
L 201.348998 269.28456 
L 201.643434 265.7532 
L 202.821177 258.502456 
L 203.115613 258.502456 
L 203.410049 258.110526 
L 203.704485 258.471128 
L 203.99892 259.190888 
L 204.293356 260.246417 
L 204.587792 262.401225 
L 204.882228 266.083226 
L 206.059971 274.494959 
L 206.648842 280.219534 
L 206.943278 281.158242 
L 207.237714 281.713555 
L 207.53215 281.885798 
L 207.826585 281.68006 
L 208.121021 279.690341 
L 208.415457 279.690341 
L 208.709893 277.049686 
L 209.887636 270.844924 
L 210.476507 266.173601 
L 210.770943 265.660092 
L 211.065379 264.447399 
L 211.359814 263.872136 
L 211.65425 264.108684 
L 211.948686 264.715239 
L 212.537557 266.935413 
L 212.831993 268.473139 
L 213.126429 271.160762 
L 213.420865 275.083917 
L 214.304172 280.946159 
L 214.598608 284.117835 
L 214.893044 284.117835 
L 215.187479 286.332888 
L 215.481915 286.3529 
L 215.776351 286.117771 
L 216.070787 285.533291 
L 217.24853 277.066823 
L 217.542965 276.188383 
L 217.837401 274.44445 
L 218.131837 271.035947 
L 219.30958 264.124568 
L 219.604016 264.124568 
L 219.898452 263.678576 
L 220.192887 264.035739 
L 220.487323 264.756832 
L 220.781759 265.81252 
L 221.076195 267.934443 
L 221.37063 271.387301 
L 222.842809 280.242882 
L 223.137245 281.900672 
L 223.431681 282.727433 
L 223.726116 282.543007 
L 224.020552 281.999844 
L 224.314988 281.141907 
L 225.198295 273.865389 
L 225.492731 272.992768 
L 226.081603 269.497352 
L 226.376038 266.081499 
L 226.670474 266.081499 
L 226.96491 261.694483 
L 227.259346 261.098369 
L 227.848217 259.409415 
L 228.142653 259.217264 
L 228.437089 259.735151 
L 228.731524 261.196402 
L 229.02596 263.327453 
L 229.320396 264.1429 
L 229.614832 265.880291 
L 229.909267 269.654032 
L 231.087011 277.984828 
L 231.381446 277.984828 
L 231.675882 278.790513 
L 231.970318 278.600317 
L 232.264754 278.040701 
L 232.559189 276.600516 
L 232.853625 273.861123 
L 234.325804 265.852054 
L 235.209111 260.109419 
L 235.797983 258.728684 
L 236.092418 258.508708 
L 236.386854 258.880078 
L 237.859033 268.532432 
L 238.153469 272.68386 
L 238.447905 272.68386 
L 238.74234 276.476372 
L 239.625648 280.753699 
L 239.920083 280.972354 
L 240.214519 280.972354 
L 241.392262 275.974112 
L 242.570005 267.962878 
L 243.747748 262.730354 
L 244.042184 262.7251 
L 244.33662 263.092889 
L 244.631056 263.816046 
L 245.219927 266.2037 
L 245.514363 268.66916 
L 245.808799 272.446072 
L 247.575413 284.455236 
L 247.869849 284.67397 
L 248.164285 284.466163 
L 248.458721 283.875088 
L 248.753156 282.400376 
L 249.047592 279.653096 
L 249.930899 274.738328 
L 250.519771 268.93094 
L 250.814207 268.93094 
L 251.108642 265.896325 
L 251.99195 262.201067 
L 252.580821 262.101242 
L 253.169693 264.949522 
L 254.053 273.253511 
L 254.347436 273.253511 
L 254.641872 277.268319 
L 255.525179 282.206223 
L 255.819615 282.892795 
L 256.11405 282.892795 
L 256.997358 279.736497 
L 257.291793 277.489212 
L 257.586229 274.062328 
L 257.880665 274.062328 
L 258.175101 270.434103 
L 259.058408 264.533791 
L 259.352844 262.315373 
L 259.647279 262.315373 
L 259.941715 261.524988 
L 260.236151 261.71902 
L 260.530587 262.297044 
L 260.825023 263.238329 
L 261.119458 265.228237 
L 261.413894 268.73697 
L 263.474944 283.177273 
L 263.76938 283.660731 
L 264.063816 283.745469 
L 264.358252 283.449444 
L 264.652687 281.189578 
L 264.947123 281.189578 
L 265.241559 278.144424 
L 266.124866 272.453974 
L 266.419302 268.446802 
L 266.713738 268.446802 
L 267.008174 262.876674 
L 267.302609 262.05321 
L 268.185917 258.11325 
L 268.480352 258.11325 
L 268.774788 259.47051 
L 269.069224 260.045767 
L 269.658095 263.134059 
L 269.952531 267.177504 
L 270.246967 267.177504 
L 270.541403 274.016436 
L 270.835838 275.180579 
L 271.42471 279.570785 
L 271.719146 283.805566 
L 272.013582 283.805566 
L 272.308017 285.5475 
L 272.602453 285.824318 
L 272.896889 285.685547 
L 273.191325 285.151 
L 273.48576 283.680568 
L 273.780196 280.70326 
L 274.663503 274.844825 
L 275.252375 267.399745 
L 275.546811 267.399745 
L 275.841246 263.480071 
L 276.724554 258.546868 
L 277.018989 257.84573 
L 277.313425 258.161971 
L 277.607861 258.900886 
L 278.196733 261.489877 
L 278.491168 263.210674 
L 278.785604 266.189607 
L 279.08004 270.594501 
L 281.14109 286.001565 
L 281.435526 286.557433 
L 281.729962 286.720858 
L 282.024397 286.472402 
L 282.318833 285.832786 
L 282.613269 284.225459 
L 282.907705 281.14229 
L 284.085448 273.210759 
L 284.968755 263.978518 
L 285.852062 258.008163 
L 286.146498 258.008163 
L 286.440934 257.64106 
L 286.73537 258.062599 
L 287.029805 258.862035 
L 287.324241 260.010772 
L 287.618677 263.15981 
L 287.913113 263.15981 
L 288.207548 269.258301 
L 288.501984 270.329602 
L 289.090856 274.630289 
L 289.385292 278.488643 
L 290.268599 283.789664 
L 290.85747 284.725404 
L 291.151906 284.762697 
L 291.446342 284.2504 
L 291.740778 282.878572 
L 292.329649 278.455 
L 292.624085 278.455 
L 292.918521 274.770385 
L 293.507392 270.861015 
L 294.390699 262.978437 
L 294.979571 260.838512 
L 295.274007 260.247495 
L 295.568443 260.010025 
L 295.862878 260.365859 
L 297.335057 269.570068 
L 297.629493 273.513585 
L 298.807236 280.624103 
L 299.690543 284.194833 
L 299.984979 284.128775 
L 300.279415 283.748985 
L 300.57385 283.066122 
L 300.868286 282.098482 
L 301.162722 280.188375 
L 301.457158 276.953013 
L 302.634901 269.535686 
L 303.223772 264.118873 
L 303.812644 262.475489 
L 304.10708 262.113754 
L 304.401515 262.06537 
L 304.695951 262.614278 
L 305.284823 265.883163 
L 306.16813 271.222617 
L 306.462566 276.266556 
L 306.757002 276.266556 
L 307.051437 280.154157 
L 308.22918 287.045679 
L 308.523616 287.045679 
L 308.818052 286.870524 
L 309.112488 286.206116 
L 309.701359 283.920849 
L 310.584666 274.88119 
L 310.879102 273.872098 
L 311.467974 269.92324 
L 311.762409 266.269396 
L 312.351281 262.581597 
L 313.234588 261.690907 
L 313.82346 263.624209 
L 315.001203 271.127348 
L 315.295639 275.15676 
L 315.590074 277.111784 
L 316.473382 284.62023 
L 316.767817 284.62023 
L 317.062253 286.414172 
L 317.356689 286.744854 
L 317.651125 286.659659 
L 317.94556 285.77091 
L 318.534432 281.763449 
L 319.417739 276.08006 
L 320.006611 269.097025 
L 320.301047 269.097025 
L 320.595482 265.518095 
L 321.47879 261.077994 
L 321.773225 260.393768 
L 322.067661 260.393768 
L 322.656533 262.241149 
L 323.834276 269.437342 
L 324.128711 273.359396 
L 325.012019 280.055559 
L 325.306455 283.372336 
L 325.895326 285.573541 
L 326.189762 286.136475 
L 326.484198 286.2923 
L 326.778633 286.036263 
L 327.073069 284.908901 
L 327.661941 280.533418 
L 328.545248 274.587828 
L 329.428555 265.574164 
L 330.311863 259.955588 
L 330.900734 259.17453 
L 331.19517 259.569685 
L 331.489606 260.365178 
L 332.667349 267.517699 
L 332.961784 271.663082 
L 333.550656 275.97855 
L 334.139527 283.133888 
L 334.433963 283.133888 
L 334.728399 286.480321 
L 335.31727 289.119099 
L 335.611706 289.518382 
L 335.906142 289.433971 
L 336.200578 288.940223 
L 336.789449 284.280322 
L 337.083885 281.284448 
L 337.378321 280.218942 
L 337.967192 275.743436 
L 338.8505 266.167605 
L 339.733807 261.016829 
L 340.028243 259.870837 
L 340.322678 259.870837 
L 340.617114 260.348349 
L 340.91155 261.154293 
L 341.205986 262.293086 
L 341.500421 264.51776 
L 341.794857 268.127451 
L 342.089293 268.127451 
L 342.383729 272.096854 
L 342.678165 274.104162 
L 343.267036 279.707444 
L 343.561472 280.541353 
L 343.855908 282.075813 
L 344.150343 284.590671 
L 344.444779 284.590671 
L 344.739215 286.643877 
L 345.328086 286.771417 
L 345.622522 286.495355 
L 346.505829 281.747617 
L 347.094701 276.487005 
L 347.389137 276.487005 
L 347.683573 272.852745 
L 348.272444 268.780179 
L 348.56688 266.888952 
L 348.861316 266.361412 
L 349.450187 264.394584 
L 349.744623 264.221542 
L 350.039059 264.42064 
L 350.333494 265.122882 
L 350.62793 265.453853 
L 350.922366 266.253191 
L 351.216802 268.318766 
L 351.511237 269.525189 
L 352.100109 273.418651 
L 352.394545 274.077824 
L 352.68898 275.376847 
L 352.983416 277.780534 
L 353.277852 277.780534 
L 353.572288 280.605765 
L 353.866724 280.951654 
L 354.455595 281.949036 
L 354.750031 282.20788 
L 355.044467 282.20788 
L 355.338902 281.324334 
L 355.633338 281.076736 
L 356.22221 279.928645 
L 356.516645 278.62103 
L 356.811081 277.947744 
L 357.399953 276.006898 
L 357.694388 275.717969 
L 357.988824 275.195772 
L 358.28326 274.410776 
L 359.166567 273.688742 
L 359.461003 273.529716 
L 359.755439 273.529716 
L 360.34431 273.342642 
L 360.933182 273.433027 
L 361.816489 273.641775 
L 362.110925 273.641775 
L 363.288668 272.655412 
L 363.583104 272.167443 
L 363.877539 271.255014 
L 364.171975 269.774898 
L 365.644154 265.7258 
L 365.93859 265.280918 
L 366.233026 265.409326 
L 366.527461 265.764076 
L 367.116333 267.03176 
L 367.410769 268.324237 
L 367.705204 270.288551 
L 368.588512 273.279323 
L 368.882947 275.002955 
L 369.177383 275.002955 
L 369.471819 276.381752 
L 369.766255 276.409699 
L 370.06069 276.27762 
L 370.355126 275.891543 
L 371.827305 268.948308 
L 372.121741 267.73418 
L 372.416177 265.721221 
L 373.005048 264.56033 
L 373.299484 264.342721 
L 373.888355 265.445231 
L 374.477227 267.222228 
L 374.771663 268.371651 
L 375.066098 270.342839 
L 375.360534 273.287383 
L 375.65497 273.287383 
L 375.949406 276.358852 
L 376.243841 277.864425 
L 377.127149 283.792321 
L 377.421585 283.792321 
L 377.71602 285.636436 
L 378.304892 286.612429 
L 378.599328 286.689008 
L 378.893763 286.098079 
L 379.188199 286.098079 
L 379.482635 285.138303 
L 380.954814 282.758234 
L 381.543685 282.260916 
L 382.132557 281.449081 
L 382.426992 280.546341 
L 382.721428 279.103317 
L 383.604736 277.009358 
L 383.899171 276.45906 
L 384.193607 275.641551 
L 384.782479 275.59833 
L 385.37135 276.04258 
L 385.665786 276.418972 
L 385.960222 277.137731 
L 386.254657 278.161546 
L 386.843529 278.881562 
L 387.137965 279.043802 
L 387.4324 279.051932 
L 387.726836 278.766511 
L 388.315708 277.47439 
L 389.493451 275.671192 
L 390.082322 275.753037 
L 390.671194 276.211617 
L 390.96563 276.779726 
L 391.260065 277.751626 
L 392.437808 279.769282 
L 393.02668 280.44949 
L 393.321116 280.375854 
L 393.615551 280.090382 
L 394.204423 278.963946 
L 394.498859 277.672431 
L 394.793295 275.577056 
L 395.676602 272.612957 
L 396.265473 271.317668 
L 396.559909 270.95445 
L 397.148781 271.727305 
L 397.737652 273.017704 
L 398.326524 274.629322 
L 399.209831 278.164576 
L 400.093138 280.391254 
L 400.68201 280.398687 
L 400.976446 280.108019 
L 401.565317 278.943914 
L 401.859753 277.567744 
L 402.154189 275.237557 
L 403.037496 271.7773 
L 403.626367 270.0458 
L 403.920803 269.864209 
L 404.215239 270.169348 
L 404.80411 271.350371 
L 405.098546 272.126173 
L 405.981853 275.381673 
L 406.570725 275.987715 
L 406.865161 276.017435 
L 407.454032 275.278348 
L 408.042904 274.769981 
L 408.33734 274.757871 
L 409.220647 276.252407 
L 410.103954 281.537922 
L 410.39839 282.034619 
L 410.987261 283.616589 
L 411.281697 284.162946 
L 411.870569 283.529963 
L 412.165005 282.320291 
L 412.45944 280.06937 
L 412.753876 280.06937 
L 413.048312 277.464977 
L 414.226055 272.017953 
L 414.520491 272.017953 
L 414.814926 271.400715 
L 415.109362 271.436903 
L 415.403798 271.736715 
L 415.698234 272.70885 
L 415.992669 274.860196 
L 416.287105 274.860196 
L 416.581541 277.352353 
L 417.464848 280.53848 
L 417.759284 280.682425 
L 418.05372 280.682425 
L 418.348156 279.708077 
L 418.642591 279.399286 
L 420.11477 275.682065 
L 420.409206 275.570452 
L 420.703642 275.619536 
L 421.292513 276.082306 
L 421.881385 276.985683 
L 422.17582 277.006345 
L 422.764692 276.69646 
L 423.059128 276.461925 
L 423.353563 276.775979 
L 423.647999 277.335269 
L 424.236871 279.299967 
L 424.531307 280.673079 
L 424.825742 283.112631 
L 425.120178 286.741802 
L 426.297921 294.423249 
L 426.592357 296.90579 
L 426.886793 296.90579 
L 427.181228 298.588572 
L 427.7701 299.468104 
L 428.064536 299.703068 
L 428.653407 299.535416 
L 429.242279 299.182858 
L 430.420022 297.433413 
L 431.008893 294.947523 
L 431.303329 293.839498 
L 431.597765 291.970852 
L 431.892201 289.327087 
L 432.186636 289.327087 
L 432.186636 289.327087 
" clip-path="url(#p7b77b8ffd2)" style="fill: none; stroke: #008000; stroke-width: 1.5; stroke-linecap: square"/>
   </g>
   <g id="patch_13">
    <path d="M 58.106 301.9975 
L 58.106 251.52 
" style="fill: none; stroke: #000000; stroke-width: 0.8; stroke-linejoin: miter; stroke-linecap: square"/>
   </g>
   <g id="patch_14">
    <path d="M 450 301.9975 
L 450 251.52 
" style="fill: none; stroke: #000000; stroke-width: 0.8; stroke-linejoin: miter; stroke-linecap: square"/>
   </g>
   <g id="patch_15">
    <path d="M 58.106 301.9975 
L 450 301.9975 
" style="fill: none; stroke: #000000; stroke-width: 0.8; stroke-linejoin: miter; stroke-linecap: square"/>
   </g>
   <g id="patch_16">
    <path d="M 58.106 251.52 
L 450 251.52 
" style="fill: none; stroke: #000000; stroke-width: 0.8; stroke-linejoin: miter; stroke-linecap: square"/>
   </g>
   <g id="text_38">
    <!-- Error in swing angle -->
    <g transform="translate(194.282688 245.52)scale(0.12 -0.12)">
     <defs>
      <path id="DejaVuSans-77" d="M 269 3500 
L 844 3500 
L 1563 769 
L 2278 3500 
L 2956 3500 
L 3675 769 
L 4391 3500 
L 4966 3500 
L 4050 0 
L 3372 0 
L 2619 2869 
L 1863 0 
L 1184 0 
L 269 3500 
z
" transform="scale(0.015625)"/>
      <path id="DejaVuSans-67" d="M 2906 1791 
Q 2906 2416 2648 2759 
Q 2391 3103 1925 3103 
Q 1463 3103 1205 2759 
Q 947 2416 947 1791 
Q 947 1169 1205 825 
Q 1463 481 1925 481 
Q 2391 481 2648 825 
Q 2906 1169 2906 1791 
z
M 3481 434 
Q 3481 -459 3084 -895 
Q 2688 -1331 1869 -1331 
Q 1566 -1331 1297 -1286 
Q 1028 -1241 775 -1147 
L 775 -588 
Q 1028 -725 1275 -790 
Q 1522 -856 1778 -856 
Q 2344 -856 2625 -561 
Q 2906 -266 2906 331 
L 2906 616 
Q 2728 306 2450 153 
Q 2172 0 1784 0 
Q 1141 0 747 490 
Q 353 981 353 1791 
Q 353 2603 747 3093 
Q 1141 3584 1784 3584 
Q 2172 3584 2450 3431 
Q 2728 3278 2906 2969 
L 2906 3500 
L 3481 3500 
L 3481 434 
z
" transform="scale(0.015625)"/>
      <path id="DejaVuSans-6c" d="M 603 4863 
L 1178 4863 
L 1178 0 
L 603 0 
L 603 4863 
z
" transform="scale(0.015625)"/>
      <path id="DejaVuSans-65" d="M 3597 1894 
L 3597 1613 
L 953 1613 
Q 991 1019 1311 708 
Q 1631 397 2203 397 
Q 2534 397 2845 478 
Q 3156 559 3463 722 
L 3463 178 
Q 3153 47 2828 -22 
Q 2503 -91 2169 -91 
Q 1331 -91 842 396 
Q 353 884 353 1716 
Q 353 2575 817 3079 
Q 1281 3584 2069 3584 
Q 2775 3584 3186 3129 
Q 3597 2675 3597 1894 
z
M 3022 2063 
Q 3016 2534 2758 2815 
Q 2500 3097 2075 3097 
Q 1594 3097 1305 2825 
Q 1016 2553 972 2059 
L 3022 2063 
z
" transform="scale(0.015625)"/>
     </defs>
     <use xlink:href="#DejaVuSans-45"/>
     <use xlink:href="#DejaVuSans-72" x="63.183594"/>
     <use xlink:href="#DejaVuSans-72" x="102.546875"/>
     <use xlink:href="#DejaVuSans-6f" x="141.410156"/>
     <use xlink:href="#DejaVuSans-72" x="202.591797"/>
     <use xlink:href="#DejaVuSans-20" x="243.705078"/>
     <use xlink:href="#DejaVuSans-69" x="275.492188"/>
     <use xlink:href="#DejaVuSans-6e" x="303.275391"/>
     <use xlink:href="#DejaVuSans-20" x="366.654297"/>
     <use xlink:href="#DejaVuSans-73" x="398.441406"/>
     <use xlink:href="#DejaVuSans-77" x="450.541016"/>
     <use xlink:href="#DejaVuSans-69" x="532.328125"/>
     <use xlink:href="#DejaVuSans-6e" x="560.111328"/>
     <use xlink:href="#DejaVuSans-67" x="623.490234"/>
     <use xlink:href="#DejaVuSans-20" x="686.966797"/>
     <use xlink:href="#DejaVuSans-61" x="718.753906"/>
     <use xlink:href="#DejaVuSans-6e" x="780.033203"/>
     <use xlink:href="#DejaVuSans-67" x="843.412109"/>
     <use xlink:href="#DejaVuSans-6c" x="906.888672"/>
     <use xlink:href="#DejaVuSans-65" x="934.671875"/>
    </g>
   </g>
  </g>
 </g>
 <defs>
  <clipPath id="p5e019e8450">
   <rect x="58.106" y="28.32" width="391.894" height="50.4775"/>
  </clipPath>
  <clipPath id="p87574458f6">
   <rect x="58.106" y="139.92" width="391.894" height="50.4775"/>
  </clipPath>
  <clipPath id="p7b77b8ffd2">
   <rect x="58.106" y="251.52" width="391.894" height="50.4775"/>
  </clipPath>
 </defs>
</svg>
