<?xml version="1.0" encoding="utf-8" standalone="no"?>
<!DOCTYPE svg PUBLIC "-//W3C//DTD SVG 1.1//EN"
  "http://www.w3.org/Graphics/SVG/1.1/DTD/svg11.dtd">
<svg xmlns:xlink="http://www.w3.org/1999/xlink" width="460.8pt" height="345.6pt" viewBox="0 0 460.8 345.6" xmlns="http://www.w3.org/2000/svg" version="1.1">
 <metadata>
  <rdf:RDF xmlns:dc="http://purl.org/dc/elements/1.1/" xmlns:cc="http://creativecommons.org/ns#" xmlns:rdf="http://www.w3.org/1999/02/22-rdf-syntax-ns#">
   <cc:Work>
    <dc:type rdf:resource="http://purl.org/dc/dcmitype/StillImage"/>
    <dc:date>2022-06-05T14:40:54.297107</dc:date>
    <dc:format>image/svg+xml</dc:format>
    <dc:creator>
     <cc:Agent>
      <dc:title>Matplotlib v3.5.1, https://matplotlib.org/</dc:title>
     </cc:Agent>
    </dc:creator>
   </cc:Work>
  </rdf:RDF>
 </metadata>
 <defs>
  <style type="text/css">*{stroke-linejoin: round; stroke-linecap: butt}</style>
 </defs>
 <g id="figure_1">
  <g id="patch_1">
   <path d="M 0 345.6 
L 460.8 345.6 
L 460.8 0 
L 0 0 
z
" style="fill: #ffffff"/>
  </g>
  <g id="axes_1">
   <g id="patch_2">
    <path d="M 58.106 78.7975 
L 450 78.7975 
L 450 28.32 
L 58.106 28.32 
z
" style="fill: #ffffff"/>
   </g>
   <g id="matplotlib.axis_1">
    <g id="xtick_1">
     <g id="line2d_1">
      <path d="M 75.919364 78.7975 
L 75.919364 28.32 
" clip-path="url(#p6d99738587)" style="fill: none; stroke: #b0b0b0; stroke-width: 0.8; stroke-linecap: square"/>
     </g>
     <g id="line2d_2">
      <defs>
       <path id="m05a180c407" d="M 0 0 
L 0 3.5 
" style="stroke: #000000; stroke-width: 0.8"/>
      </defs>
      <g>
       <use xlink:href="#m05a180c407" x="75.919364" y="78.7975" style="stroke: #000000; stroke-width: 0.8"/>
      </g>
     </g>
     <g id="text_1">
      <!-- 0 -->
      <g transform="translate(72.738114 93.395937)scale(0.1 -0.1)">
       <defs>
        <path id="DejaVuSans-30" d="M 2034 4250 
Q 1547 4250 1301 3770 
Q 1056 3291 1056 2328 
Q 1056 1369 1301 889 
Q 1547 409 2034 409 
Q 2525 409 2770 889 
Q 3016 1369 3016 2328 
Q 3016 3291 2770 3770 
Q 2525 4250 2034 4250 
z
M 2034 4750 
Q 2819 4750 3233 4129 
Q 3647 3509 3647 2328 
Q 3647 1150 3233 529 
Q 2819 -91 2034 -91 
Q 1250 -91 836 529 
Q 422 1150 422 2328 
Q 422 3509 836 4129 
Q 1250 4750 2034 4750 
z
" transform="scale(0.015625)"/>
       </defs>
       <use xlink:href="#DejaVuSans-30"/>
      </g>
     </g>
    </g>
    <g id="xtick_2">
     <g id="line2d_3">
      <path d="M 135.050861 78.7975 
L 135.050861 28.32 
" clip-path="url(#p6d99738587)" style="fill: none; stroke: #b0b0b0; stroke-width: 0.8; stroke-linecap: square"/>
     </g>
     <g id="line2d_4">
      <g>
       <use xlink:href="#m05a180c407" x="135.050861" y="78.7975" style="stroke: #000000; stroke-width: 0.8"/>
      </g>
     </g>
     <g id="text_2">
      <!-- 2 -->
      <g transform="translate(131.869611 93.395937)scale(0.1 -0.1)">
       <defs>
        <path id="DejaVuSans-32" d="M 1228 531 
L 3431 531 
L 3431 0 
L 469 0 
L 469 531 
Q 828 903 1448 1529 
Q 2069 2156 2228 2338 
Q 2531 2678 2651 2914 
Q 2772 3150 2772 3378 
Q 2772 3750 2511 3984 
Q 2250 4219 1831 4219 
Q 1534 4219 1204 4116 
Q 875 4013 500 3803 
L 500 4441 
Q 881 4594 1212 4672 
Q 1544 4750 1819 4750 
Q 2544 4750 2975 4387 
Q 3406 4025 3406 3419 
Q 3406 3131 3298 2873 
Q 3191 2616 2906 2266 
Q 2828 2175 2409 1742 
Q 1991 1309 1228 531 
z
" transform="scale(0.015625)"/>
       </defs>
       <use xlink:href="#DejaVuSans-32"/>
      </g>
     </g>
    </g>
    <g id="xtick_3">
     <g id="line2d_5">
      <path d="M 194.182359 78.7975 
L 194.182359 28.32 
" clip-path="url(#p6d99738587)" style="fill: none; stroke: #b0b0b0; stroke-width: 0.8; stroke-linecap: square"/>
     </g>
     <g id="line2d_6">
      <g>
       <use xlink:href="#m05a180c407" x="194.182359" y="78.7975" style="stroke: #000000; stroke-width: 0.8"/>
      </g>
     </g>
     <g id="text_3">
      <!-- 4 -->
      <g transform="translate(191.001109 93.395937)scale(0.1 -0.1)">
       <defs>
        <path id="DejaVuSans-34" d="M 2419 4116 
L 825 1625 
L 2419 1625 
L 2419 4116 
z
M 2253 4666 
L 3047 4666 
L 3047 1625 
L 3713 1625 
L 3713 1100 
L 3047 1100 
L 3047 0 
L 2419 0 
L 2419 1100 
L 313 1100 
L 313 1709 
L 2253 4666 
z
" transform="scale(0.015625)"/>
       </defs>
       <use xlink:href="#DejaVuSans-34"/>
      </g>
     </g>
    </g>
    <g id="xtick_4">
     <g id="line2d_7">
      <path d="M 253.313856 78.7975 
L 253.313856 28.32 
" clip-path="url(#p6d99738587)" style="fill: none; stroke: #b0b0b0; stroke-width: 0.8; stroke-linecap: square"/>
     </g>
     <g id="line2d_8">
      <g>
       <use xlink:href="#m05a180c407" x="253.313856" y="78.7975" style="stroke: #000000; stroke-width: 0.8"/>
      </g>
     </g>
     <g id="text_4">
      <!-- 6 -->
      <g transform="translate(250.132606 93.395937)scale(0.1 -0.1)">
       <defs>
        <path id="DejaVuSans-36" d="M 2113 2584 
Q 1688 2584 1439 2293 
Q 1191 2003 1191 1497 
Q 1191 994 1439 701 
Q 1688 409 2113 409 
Q 2538 409 2786 701 
Q 3034 994 3034 1497 
Q 3034 2003 2786 2293 
Q 2538 2584 2113 2584 
z
M 3366 4563 
L 3366 3988 
Q 3128 4100 2886 4159 
Q 2644 4219 2406 4219 
Q 1781 4219 1451 3797 
Q 1122 3375 1075 2522 
Q 1259 2794 1537 2939 
Q 1816 3084 2150 3084 
Q 2853 3084 3261 2657 
Q 3669 2231 3669 1497 
Q 3669 778 3244 343 
Q 2819 -91 2113 -91 
Q 1303 -91 875 529 
Q 447 1150 447 2328 
Q 447 3434 972 4092 
Q 1497 4750 2381 4750 
Q 2619 4750 2861 4703 
Q 3103 4656 3366 4563 
z
" transform="scale(0.015625)"/>
       </defs>
       <use xlink:href="#DejaVuSans-36"/>
      </g>
     </g>
    </g>
    <g id="xtick_5">
     <g id="line2d_9">
      <path d="M 312.445354 78.7975 
L 312.445354 28.32 
" clip-path="url(#p6d99738587)" style="fill: none; stroke: #b0b0b0; stroke-width: 0.8; stroke-linecap: square"/>
     </g>
     <g id="line2d_10">
      <g>
       <use xlink:href="#m05a180c407" x="312.445354" y="78.7975" style="stroke: #000000; stroke-width: 0.8"/>
      </g>
     </g>
     <g id="text_5">
      <!-- 8 -->
      <g transform="translate(309.264104 93.395937)scale(0.1 -0.1)">
       <defs>
        <path id="DejaVuSans-38" d="M 2034 2216 
Q 1584 2216 1326 1975 
Q 1069 1734 1069 1313 
Q 1069 891 1326 650 
Q 1584 409 2034 409 
Q 2484 409 2743 651 
Q 3003 894 3003 1313 
Q 3003 1734 2745 1975 
Q 2488 2216 2034 2216 
z
M 1403 2484 
Q 997 2584 770 2862 
Q 544 3141 544 3541 
Q 544 4100 942 4425 
Q 1341 4750 2034 4750 
Q 2731 4750 3128 4425 
Q 3525 4100 3525 3541 
Q 3525 3141 3298 2862 
Q 3072 2584 2669 2484 
Q 3125 2378 3379 2068 
Q 3634 1759 3634 1313 
Q 3634 634 3220 271 
Q 2806 -91 2034 -91 
Q 1263 -91 848 271 
Q 434 634 434 1313 
Q 434 1759 690 2068 
Q 947 2378 1403 2484 
z
M 1172 3481 
Q 1172 3119 1398 2916 
Q 1625 2713 2034 2713 
Q 2441 2713 2670 2916 
Q 2900 3119 2900 3481 
Q 2900 3844 2670 4047 
Q 2441 4250 2034 4250 
Q 1625 4250 1398 4047 
Q 1172 3844 1172 3481 
z
" transform="scale(0.015625)"/>
       </defs>
       <use xlink:href="#DejaVuSans-38"/>
      </g>
     </g>
    </g>
    <g id="xtick_6">
     <g id="line2d_11">
      <path d="M 371.576851 78.7975 
L 371.576851 28.32 
" clip-path="url(#p6d99738587)" style="fill: none; stroke: #b0b0b0; stroke-width: 0.8; stroke-linecap: square"/>
     </g>
     <g id="line2d_12">
      <g>
       <use xlink:href="#m05a180c407" x="371.576851" y="78.7975" style="stroke: #000000; stroke-width: 0.8"/>
      </g>
     </g>
     <g id="text_6">
      <!-- 10 -->
      <g transform="translate(365.214351 93.395937)scale(0.1 -0.1)">
       <defs>
        <path id="DejaVuSans-31" d="M 794 531 
L 1825 531 
L 1825 4091 
L 703 3866 
L 703 4441 
L 1819 4666 
L 2450 4666 
L 2450 531 
L 3481 531 
L 3481 0 
L 794 0 
L 794 531 
z
" transform="scale(0.015625)"/>
       </defs>
       <use xlink:href="#DejaVuSans-31"/>
       <use xlink:href="#DejaVuSans-30" x="63.623047"/>
      </g>
     </g>
    </g>
    <g id="xtick_7">
     <g id="line2d_13">
      <path d="M 430.708349 78.7975 
L 430.708349 28.32 
" clip-path="url(#p6d99738587)" style="fill: none; stroke: #b0b0b0; stroke-width: 0.8; stroke-linecap: square"/>
     </g>
     <g id="line2d_14">
      <g>
       <use xlink:href="#m05a180c407" x="430.708349" y="78.7975" style="stroke: #000000; stroke-width: 0.8"/>
      </g>
     </g>
     <g id="text_7">
      <!-- 12 -->
      <g transform="translate(424.345849 93.395937)scale(0.1 -0.1)">
       <use xlink:href="#DejaVuSans-31"/>
       <use xlink:href="#DejaVuSans-32" x="63.623047"/>
      </g>
     </g>
    </g>
    <g id="text_8">
     <!-- $t$ [s] -->
     <g transform="translate(243.953 107.074062)scale(0.1 -0.1)">
      <defs>
       <path id="DejaVuSans-Oblique-74" d="M 2706 3500 
L 2619 3053 
L 1472 3053 
L 1100 1153 
Q 1081 1047 1072 975 
Q 1063 903 1063 863 
Q 1063 663 1183 572 
Q 1303 481 1569 481 
L 2150 481 
L 2053 0 
L 1503 0 
Q 991 0 739 200 
Q 488 400 488 806 
Q 488 878 497 964 
Q 506 1050 525 1153 
L 897 3053 
L 409 3053 
L 500 3500 
L 978 3500 
L 1172 4494 
L 1747 4494 
L 1556 3500 
L 2706 3500 
z
" transform="scale(0.015625)"/>
       <path id="DejaVuSans-20" transform="scale(0.015625)"/>
       <path id="DejaVuSans-5b" d="M 550 4863 
L 1875 4863 
L 1875 4416 
L 1125 4416 
L 1125 -397 
L 1875 -397 
L 1875 -844 
L 550 -844 
L 550 4863 
z
" transform="scale(0.015625)"/>
       <path id="DejaVuSans-73" d="M 2834 3397 
L 2834 2853 
Q 2591 2978 2328 3040 
Q 2066 3103 1784 3103 
Q 1356 3103 1142 2972 
Q 928 2841 928 2578 
Q 928 2378 1081 2264 
Q 1234 2150 1697 2047 
L 1894 2003 
Q 2506 1872 2764 1633 
Q 3022 1394 3022 966 
Q 3022 478 2636 193 
Q 2250 -91 1575 -91 
Q 1294 -91 989 -36 
Q 684 19 347 128 
L 347 722 
Q 666 556 975 473 
Q 1284 391 1588 391 
Q 1994 391 2212 530 
Q 2431 669 2431 922 
Q 2431 1156 2273 1281 
Q 2116 1406 1581 1522 
L 1381 1569 
Q 847 1681 609 1914 
Q 372 2147 372 2553 
Q 372 3047 722 3315 
Q 1072 3584 1716 3584 
Q 2034 3584 2315 3537 
Q 2597 3491 2834 3397 
z
" transform="scale(0.015625)"/>
       <path id="DejaVuSans-5d" d="M 1947 4863 
L 1947 -844 
L 622 -844 
L 622 -397 
L 1369 -397 
L 1369 4416 
L 622 4416 
L 622 4863 
L 1947 4863 
z
" transform="scale(0.015625)"/>
      </defs>
      <use xlink:href="#DejaVuSans-Oblique-74" transform="translate(0 0.015625)"/>
      <use xlink:href="#DejaVuSans-20" transform="translate(39.208984 0.015625)"/>
      <use xlink:href="#DejaVuSans-5b" transform="translate(70.996094 0.015625)"/>
      <use xlink:href="#DejaVuSans-73" transform="translate(110.009766 0.015625)"/>
      <use xlink:href="#DejaVuSans-5d" transform="translate(162.109375 0.015625)"/>
     </g>
    </g>
   </g>
   <g id="matplotlib.axis_2">
    <g id="ytick_1">
     <g id="line2d_15">
      <path d="M 58.106 76.390439 
L 450 76.390439 
" clip-path="url(#p6d99738587)" style="fill: none; stroke: #b0b0b0; stroke-width: 0.8; stroke-linecap: square"/>
     </g>
     <g id="line2d_16">
      <defs>
       <path id="m426e2a322c" d="M 0 0 
L -3.5 0 
" style="stroke: #000000; stroke-width: 0.8"/>
      </defs>
      <g>
       <use xlink:href="#m426e2a322c" x="58.106" y="76.390439" style="stroke: #000000; stroke-width: 0.8"/>
      </g>
     </g>
     <g id="text_9">
      <!-- 0 -->
      <g transform="translate(44.7435 80.189658)scale(0.1 -0.1)">
       <use xlink:href="#DejaVuSans-30"/>
      </g>
     </g>
    </g>
    <g id="ytick_2">
     <g id="line2d_17">
      <path d="M 58.106 30.614427 
L 450 30.614427 
" clip-path="url(#p6d99738587)" style="fill: none; stroke: #b0b0b0; stroke-width: 0.8; stroke-linecap: square"/>
     </g>
     <g id="line2d_18">
      <g>
       <use xlink:href="#m426e2a322c" x="58.106" y="30.614427" style="stroke: #000000; stroke-width: 0.8"/>
      </g>
     </g>
     <g id="text_10">
      <!-- 10 -->
      <g transform="translate(38.381 34.413646)scale(0.1 -0.1)">
       <use xlink:href="#DejaVuSans-31"/>
       <use xlink:href="#DejaVuSans-30" x="63.623047"/>
      </g>
     </g>
    </g>
    <g id="text_11">
     <!-- $e_x$ [m] -->
     <g transform="translate(32.301313 69.20875)rotate(-90)scale(0.1 -0.1)">
      <defs>
       <path id="DejaVuSans-Oblique-65" d="M 3078 2063 
Q 3088 2113 3092 2166 
Q 3097 2219 3097 2272 
Q 3097 2653 2873 2875 
Q 2650 3097 2266 3097 
Q 1838 3097 1509 2826 
Q 1181 2556 1013 2059 
L 3078 2063 
z
M 3578 1613 
L 903 1613 
Q 884 1494 878 1425 
Q 872 1356 872 1306 
Q 872 872 1139 634 
Q 1406 397 1894 397 
Q 2269 397 2603 481 
Q 2938 566 3225 728 
L 3116 159 
Q 2806 34 2476 -28 
Q 2147 -91 1806 -91 
Q 1078 -91 686 257 
Q 294 606 294 1247 
Q 294 1794 489 2264 
Q 684 2734 1063 3103 
Q 1306 3334 1642 3459 
Q 1978 3584 2356 3584 
Q 2950 3584 3301 3228 
Q 3653 2872 3653 2272 
Q 3653 2128 3634 1964 
Q 3616 1800 3578 1613 
z
" transform="scale(0.015625)"/>
       <path id="DejaVuSans-Oblique-78" d="M 3841 3500 
L 2234 1784 
L 3219 0 
L 2559 0 
L 1819 1388 
L 531 0 
L -166 0 
L 1556 1844 
L 641 3500 
L 1300 3500 
L 1972 2234 
L 3144 3500 
L 3841 3500 
z
" transform="scale(0.015625)"/>
       <path id="DejaVuSans-6d" d="M 3328 2828 
Q 3544 3216 3844 3400 
Q 4144 3584 4550 3584 
Q 5097 3584 5394 3201 
Q 5691 2819 5691 2113 
L 5691 0 
L 5113 0 
L 5113 2094 
Q 5113 2597 4934 2840 
Q 4756 3084 4391 3084 
Q 3944 3084 3684 2787 
Q 3425 2491 3425 1978 
L 3425 0 
L 2847 0 
L 2847 2094 
Q 2847 2600 2669 2842 
Q 2491 3084 2119 3084 
Q 1678 3084 1418 2786 
Q 1159 2488 1159 1978 
L 1159 0 
L 581 0 
L 581 3500 
L 1159 3500 
L 1159 2956 
Q 1356 3278 1631 3431 
Q 1906 3584 2284 3584 
Q 2666 3584 2933 3390 
Q 3200 3197 3328 2828 
z
" transform="scale(0.015625)"/>
      </defs>
      <use xlink:href="#DejaVuSans-Oblique-65" transform="translate(0 0.015625)"/>
      <use xlink:href="#DejaVuSans-Oblique-78" transform="translate(61.523438 -16.390625)scale(0.7)"/>
      <use xlink:href="#DejaVuSans-20" transform="translate(105.683594 0.015625)"/>
      <use xlink:href="#DejaVuSans-5b" transform="translate(137.470703 0.015625)"/>
      <use xlink:href="#DejaVuSans-6d" transform="translate(176.484375 0.015625)"/>
      <use xlink:href="#DejaVuSans-5d" transform="translate(273.896484 0.015625)"/>
     </g>
    </g>
   </g>
   <g id="line2d_19">
    <path d="M 75.919364 30.614432 
L 83.021037 30.715429 
L 88.939098 30.969909 
L 96.040771 31.295378 
L 98.999802 31.566744 
L 101.071123 31.844707 
L 105.805572 32.455162 
L 119.713015 34.81348 
L 120.896627 35.078769 
L 123.263852 35.574843 
L 124.151561 35.85174 
L 125.03927 35.992957 
L 125.926979 36.279319 
L 127.110591 36.482234 
L 130.069622 37.253703 
L 130.957331 37.528658 
L 131.84504 37.714547 
L 133.620458 38.187946 
L 134.212265 38.380192 
L 136.579489 38.99455 
L 138.946713 39.704125 
L 139.242616 39.704125 
L 140.130326 39.98988 
L 141.609841 40.364821 
L 144.272968 41.033629 
L 144.864774 41.211627 
L 148.119708 41.957128 
L 149.007417 42.179048 
L 151.670545 42.78261 
L 152.558254 43.001553 
L 154.629575 43.492912 
L 155.517284 43.710264 
L 158.476315 44.356167 
L 159.364024 44.56842 
L 162.323054 45.18837 
L 163.210764 45.389155 
L 165.873891 45.933199 
L 166.7616 46.129186 
L 169.128825 46.615129 
L 170.016534 46.809088 
L 172.383758 47.29341 
L 173.271467 47.484252 
L 176.230498 48.038001 
L 177.118207 48.21968 
L 179.781334 48.717681 
L 180.669043 48.895481 
L 183.036268 49.333325 
L 183.923977 49.509924 
L 187.178911 50.086703 
L 188.362523 50.323421 
L 191.321553 50.836749 
L 192.209262 51.014765 
L 194.87239 51.513244 
L 195.760099 51.691188 
L 198.423227 52.146071 
L 199.015033 52.298603 
L 201.382257 52.72521 
L 202.861772 53.06386 
L 206.412609 53.670284 
L 207.300318 53.843203 
L 209.963445 54.329481 
L 210.851155 54.505386 
L 213.514282 54.970918 
L 214.401991 55.135829 
L 217.065119 55.619409 
L 220.024149 56.165448 
L 220.615955 56.246477 
L 223.279083 56.688658 
L 224.166792 56.853425 
L 227.125822 57.353137 
L 228.013532 57.515465 
L 230.972562 57.974622 
L 231.564368 58.117514 
L 234.523399 58.617147 
L 235.411108 58.780546 
L 238.074235 59.195851 
L 238.666041 59.334064 
L 241.625072 59.843174 
L 244.288199 60.282554 
L 246.951327 60.72425 
L 251.389873 61.495278 
L 251.981679 61.571285 
L 255.236612 62.059172 
L 256.716127 62.351118 
L 257.307934 62.429903 
L 261.746479 63.121216 
L 262.930092 63.302092 
L 265.593219 63.717993 
L 266.480928 63.872097 
L 271.215377 64.546845 
L 271.807183 64.667124 
L 274.766214 65.120675 
L 277.429341 65.554896 
L 278.31705 65.656009 
L 282.16379 66.182581 
L 286.602336 66.85542 
L 291.336784 67.468561 
L 292.8163 67.683854 
L 295.77533 68.093866 
L 296.663039 68.201356 
L 300.805682 68.718319 
L 302.285197 68.963954 
L 302.877003 69.029994 
L 305.540131 69.377143 
L 309.090967 69.823291 
L 310.570483 70.029195 
L 313.825416 70.458033 
L 318.263962 71.018784 
L 322.406605 71.590014 
L 323.88612 71.724235 
L 324.477926 71.825788 
L 327.436957 72.163992 
L 328.028763 72.273016 
L 331.579599 72.761722 
L 334.53863 73.09896 
L 338.385369 73.561669 
L 339.568982 73.712581 
L 346.966558 74.546016 
L 348.446073 74.703445 
L 352.292813 75.104231 
L 354.660037 75.287112 
L 359.098583 75.62828 
L 362.353516 75.801284 
L 365.312547 75.952211 
L 368.863384 76.088042 
L 373.597832 76.2474 
L 386.02576 76.256556 
L 418.575096 75.923655 
L 426.564478 76.241311 
L 432.186636 76.503068 
L 432.186636 76.503068 
" clip-path="url(#p6d99738587)" style="fill: none; stroke: #ff0000; stroke-width: 1.5; stroke-linecap: square"/>
   </g>
   <g id="patch_3">
    <path d="M 58.106 78.7975 
L 58.106 28.32 
" style="fill: none; stroke: #000000; stroke-width: 0.8; stroke-linejoin: miter; stroke-linecap: square"/>
   </g>
   <g id="patch_4">
    <path d="M 450 78.7975 
L 450 28.32 
" style="fill: none; stroke: #000000; stroke-width: 0.8; stroke-linejoin: miter; stroke-linecap: square"/>
   </g>
   <g id="patch_5">
    <path d="M 58.106 78.7975 
L 450 78.7975 
" style="fill: none; stroke: #000000; stroke-width: 0.8; stroke-linejoin: miter; stroke-linecap: square"/>
   </g>
   <g id="patch_6">
    <path d="M 58.106 28.32 
L 450 28.32 
" style="fill: none; stroke: #000000; stroke-width: 0.8; stroke-linejoin: miter; stroke-linecap: square"/>
   </g>
   <g id="text_12">
    <!-- Error in $x$-position -->
    <g transform="translate(200.413 22.32)scale(0.12 -0.12)">
     <defs>
      <path id="DejaVuSans-45" d="M 628 4666 
L 3578 4666 
L 3578 4134 
L 1259 4134 
L 1259 2753 
L 3481 2753 
L 3481 2222 
L 1259 2222 
L 1259 531 
L 3634 531 
L 3634 0 
L 628 0 
L 628 4666 
z
" transform="scale(0.015625)"/>
      <path id="DejaVuSans-72" d="M 2631 2963 
Q 2534 3019 2420 3045 
Q 2306 3072 2169 3072 
Q 1681 3072 1420 2755 
Q 1159 2438 1159 1844 
L 1159 0 
L 581 0 
L 581 3500 
L 1159 3500 
L 1159 2956 
Q 1341 3275 1631 3429 
Q 1922 3584 2338 3584 
Q 2397 3584 2469 3576 
Q 2541 3569 2628 3553 
L 2631 2963 
z
" transform="scale(0.015625)"/>
      <path id="DejaVuSans-6f" d="M 1959 3097 
Q 1497 3097 1228 2736 
Q 959 2375 959 1747 
Q 959 1119 1226 758 
Q 1494 397 1959 397 
Q 2419 397 2687 759 
Q 2956 1122 2956 1747 
Q 2956 2369 2687 2733 
Q 2419 3097 1959 3097 
z
M 1959 3584 
Q 2709 3584 3137 3096 
Q 3566 2609 3566 1747 
Q 3566 888 3137 398 
Q 2709 -91 1959 -91 
Q 1206 -91 779 398 
Q 353 888 353 1747 
Q 353 2609 779 3096 
Q 1206 3584 1959 3584 
z
" transform="scale(0.015625)"/>
      <path id="DejaVuSans-69" d="M 603 3500 
L 1178 3500 
L 1178 0 
L 603 0 
L 603 3500 
z
M 603 4863 
L 1178 4863 
L 1178 4134 
L 603 4134 
L 603 4863 
z
" transform="scale(0.015625)"/>
      <path id="DejaVuSans-6e" d="M 3513 2113 
L 3513 0 
L 2938 0 
L 2938 2094 
Q 2938 2591 2744 2837 
Q 2550 3084 2163 3084 
Q 1697 3084 1428 2787 
Q 1159 2491 1159 1978 
L 1159 0 
L 581 0 
L 581 3500 
L 1159 3500 
L 1159 2956 
Q 1366 3272 1645 3428 
Q 1925 3584 2291 3584 
Q 2894 3584 3203 3211 
Q 3513 2838 3513 2113 
z
" transform="scale(0.015625)"/>
      <path id="DejaVuSans-2d" d="M 313 2009 
L 1997 2009 
L 1997 1497 
L 313 1497 
L 313 2009 
z
" transform="scale(0.015625)"/>
      <path id="DejaVuSans-70" d="M 1159 525 
L 1159 -1331 
L 581 -1331 
L 581 3500 
L 1159 3500 
L 1159 2969 
Q 1341 3281 1617 3432 
Q 1894 3584 2278 3584 
Q 2916 3584 3314 3078 
Q 3713 2572 3713 1747 
Q 3713 922 3314 415 
Q 2916 -91 2278 -91 
Q 1894 -91 1617 61 
Q 1341 213 1159 525 
z
M 3116 1747 
Q 3116 2381 2855 2742 
Q 2594 3103 2138 3103 
Q 1681 3103 1420 2742 
Q 1159 2381 1159 1747 
Q 1159 1113 1420 752 
Q 1681 391 2138 391 
Q 2594 391 2855 752 
Q 3116 1113 3116 1747 
z
" transform="scale(0.015625)"/>
      <path id="DejaVuSans-74" d="M 1172 4494 
L 1172 3500 
L 2356 3500 
L 2356 3053 
L 1172 3053 
L 1172 1153 
Q 1172 725 1289 603 
Q 1406 481 1766 481 
L 2356 481 
L 2356 0 
L 1766 0 
Q 1100 0 847 248 
Q 594 497 594 1153 
L 594 3053 
L 172 3053 
L 172 3500 
L 594 3500 
L 594 4494 
L 1172 4494 
z
" transform="scale(0.015625)"/>
     </defs>
     <use xlink:href="#DejaVuSans-45" transform="translate(0 0.015625)"/>
     <use xlink:href="#DejaVuSans-72" transform="translate(63.183594 0.015625)"/>
     <use xlink:href="#DejaVuSans-72" transform="translate(104.296875 0.015625)"/>
     <use xlink:href="#DejaVuSans-6f" transform="translate(145.410156 0.015625)"/>
     <use xlink:href="#DejaVuSans-72" transform="translate(206.591797 0.015625)"/>
     <use xlink:href="#DejaVuSans-20" transform="translate(247.705078 0.015625)"/>
     <use xlink:href="#DejaVuSans-69" transform="translate(279.492188 0.015625)"/>
     <use xlink:href="#DejaVuSans-6e" transform="translate(307.275391 0.015625)"/>
     <use xlink:href="#DejaVuSans-20" transform="translate(370.654297 0.015625)"/>
     <use xlink:href="#DejaVuSans-Oblique-78" transform="translate(402.441406 0.015625)"/>
     <use xlink:href="#DejaVuSans-2d" transform="translate(461.621094 0.015625)"/>
     <use xlink:href="#DejaVuSans-70" transform="translate(497.705078 0.015625)"/>
     <use xlink:href="#DejaVuSans-6f" transform="translate(561.181641 0.015625)"/>
     <use xlink:href="#DejaVuSans-73" transform="translate(622.363281 0.015625)"/>
     <use xlink:href="#DejaVuSans-69" transform="translate(674.462891 0.015625)"/>
     <use xlink:href="#DejaVuSans-74" transform="translate(702.246094 0.015625)"/>
     <use xlink:href="#DejaVuSans-69" transform="translate(741.455078 0.015625)"/>
     <use xlink:href="#DejaVuSans-6f" transform="translate(769.238281 0.015625)"/>
     <use xlink:href="#DejaVuSans-6e" transform="translate(830.419922 0.015625)"/>
    </g>
   </g>
  </g>
  <g id="axes_2">
   <g id="patch_7">
    <path d="M 58.106 190.3975 
L 450 190.3975 
L 450 139.92 
L 58.106 139.92 
z
" style="fill: #ffffff"/>
   </g>
   <g id="matplotlib.axis_3">
    <g id="xtick_8">
     <g id="line2d_20">
      <path d="M 75.919364 190.3975 
L 75.919364 139.92 
" clip-path="url(#pf10d5d72bc)" style="fill: none; stroke: #b0b0b0; stroke-width: 0.8; stroke-linecap: square"/>
     </g>
     <g id="line2d_21">
      <g>
       <use xlink:href="#m05a180c407" x="75.919364" y="190.3975" style="stroke: #000000; stroke-width: 0.8"/>
      </g>
     </g>
     <g id="text_13">
      <!-- 0 -->
      <g transform="translate(72.738114 204.995937)scale(0.1 -0.1)">
       <use xlink:href="#DejaVuSans-30"/>
      </g>
     </g>
    </g>
    <g id="xtick_9">
     <g id="line2d_22">
      <path d="M 135.050861 190.3975 
L 135.050861 139.92 
" clip-path="url(#pf10d5d72bc)" style="fill: none; stroke: #b0b0b0; stroke-width: 0.8; stroke-linecap: square"/>
     </g>
     <g id="line2d_23">
      <g>
       <use xlink:href="#m05a180c407" x="135.050861" y="190.3975" style="stroke: #000000; stroke-width: 0.8"/>
      </g>
     </g>
     <g id="text_14">
      <!-- 2 -->
      <g transform="translate(131.869611 204.995937)scale(0.1 -0.1)">
       <use xlink:href="#DejaVuSans-32"/>
      </g>
     </g>
    </g>
    <g id="xtick_10">
     <g id="line2d_24">
      <path d="M 194.182359 190.3975 
L 194.182359 139.92 
" clip-path="url(#pf10d5d72bc)" style="fill: none; stroke: #b0b0b0; stroke-width: 0.8; stroke-linecap: square"/>
     </g>
     <g id="line2d_25">
      <g>
       <use xlink:href="#m05a180c407" x="194.182359" y="190.3975" style="stroke: #000000; stroke-width: 0.8"/>
      </g>
     </g>
     <g id="text_15">
      <!-- 4 -->
      <g transform="translate(191.001109 204.995937)scale(0.1 -0.1)">
       <use xlink:href="#DejaVuSans-34"/>
      </g>
     </g>
    </g>
    <g id="xtick_11">
     <g id="line2d_26">
      <path d="M 253.313856 190.3975 
L 253.313856 139.92 
" clip-path="url(#pf10d5d72bc)" style="fill: none; stroke: #b0b0b0; stroke-width: 0.8; stroke-linecap: square"/>
     </g>
     <g id="line2d_27">
      <g>
       <use xlink:href="#m05a180c407" x="253.313856" y="190.3975" style="stroke: #000000; stroke-width: 0.8"/>
      </g>
     </g>
     <g id="text_16">
      <!-- 6 -->
      <g transform="translate(250.132606 204.995937)scale(0.1 -0.1)">
       <use xlink:href="#DejaVuSans-36"/>
      </g>
     </g>
    </g>
    <g id="xtick_12">
     <g id="line2d_28">
      <path d="M 312.445354 190.3975 
L 312.445354 139.92 
" clip-path="url(#pf10d5d72bc)" style="fill: none; stroke: #b0b0b0; stroke-width: 0.8; stroke-linecap: square"/>
     </g>
     <g id="line2d_29">
      <g>
       <use xlink:href="#m05a180c407" x="312.445354" y="190.3975" style="stroke: #000000; stroke-width: 0.8"/>
      </g>
     </g>
     <g id="text_17">
      <!-- 8 -->
      <g transform="translate(309.264104 204.995937)scale(0.1 -0.1)">
       <use xlink:href="#DejaVuSans-38"/>
      </g>
     </g>
    </g>
    <g id="xtick_13">
     <g id="line2d_30">
      <path d="M 371.576851 190.3975 
L 371.576851 139.92 
" clip-path="url(#pf10d5d72bc)" style="fill: none; stroke: #b0b0b0; stroke-width: 0.8; stroke-linecap: square"/>
     </g>
     <g id="line2d_31">
      <g>
       <use xlink:href="#m05a180c407" x="371.576851" y="190.3975" style="stroke: #000000; stroke-width: 0.8"/>
      </g>
     </g>
     <g id="text_18">
      <!-- 10 -->
      <g transform="translate(365.214351 204.995937)scale(0.1 -0.1)">
       <use xlink:href="#DejaVuSans-31"/>
       <use xlink:href="#DejaVuSans-30" x="63.623047"/>
      </g>
     </g>
    </g>
    <g id="xtick_14">
     <g id="line2d_32">
      <path d="M 430.708349 190.3975 
L 430.708349 139.92 
" clip-path="url(#pf10d5d72bc)" style="fill: none; stroke: #b0b0b0; stroke-width: 0.8; stroke-linecap: square"/>
     </g>
     <g id="line2d_33">
      <g>
       <use xlink:href="#m05a180c407" x="430.708349" y="190.3975" style="stroke: #000000; stroke-width: 0.8"/>
      </g>
     </g>
     <g id="text_19">
      <!-- 12 -->
      <g transform="translate(424.345849 204.995937)scale(0.1 -0.1)">
       <use xlink:href="#DejaVuSans-31"/>
       <use xlink:href="#DejaVuSans-32" x="63.623047"/>
      </g>
     </g>
    </g>
    <g id="text_20">
     <!-- $t$ [s] -->
     <g transform="translate(243.953 218.674062)scale(0.1 -0.1)">
      <use xlink:href="#DejaVuSans-Oblique-74" transform="translate(0 0.015625)"/>
      <use xlink:href="#DejaVuSans-20" transform="translate(39.208984 0.015625)"/>
      <use xlink:href="#DejaVuSans-5b" transform="translate(70.996094 0.015625)"/>
      <use xlink:href="#DejaVuSans-73" transform="translate(110.009766 0.015625)"/>
      <use xlink:href="#DejaVuSans-5d" transform="translate(162.109375 0.015625)"/>
     </g>
    </g>
   </g>
   <g id="matplotlib.axis_4">
    <g id="ytick_3">
     <g id="line2d_34">
      <path d="M 58.106 180.61806 
L 450 180.61806 
" clip-path="url(#pf10d5d72bc)" style="fill: none; stroke: #b0b0b0; stroke-width: 0.8; stroke-linecap: square"/>
     </g>
     <g id="line2d_35">
      <g>
       <use xlink:href="#m426e2a322c" x="58.106" y="180.61806" style="stroke: #000000; stroke-width: 0.8"/>
      </g>
     </g>
     <g id="text_21">
      <!-- −0.1 -->
      <g transform="translate(26.823188 184.417279)scale(0.1 -0.1)">
       <defs>
        <path id="DejaVuSans-2212" d="M 678 2272 
L 4684 2272 
L 4684 1741 
L 678 1741 
L 678 2272 
z
" transform="scale(0.015625)"/>
        <path id="DejaVuSans-2e" d="M 684 794 
L 1344 794 
L 1344 0 
L 684 0 
L 684 794 
z
" transform="scale(0.015625)"/>
       </defs>
       <use xlink:href="#DejaVuSans-2212"/>
       <use xlink:href="#DejaVuSans-30" x="83.789062"/>
       <use xlink:href="#DejaVuSans-2e" x="147.412109"/>
       <use xlink:href="#DejaVuSans-31" x="179.199219"/>
      </g>
     </g>
    </g>
    <g id="ytick_4">
     <g id="line2d_36">
      <path d="M 58.106 165.786196 
L 450 165.786196 
" clip-path="url(#pf10d5d72bc)" style="fill: none; stroke: #b0b0b0; stroke-width: 0.8; stroke-linecap: square"/>
     </g>
     <g id="line2d_37">
      <g>
       <use xlink:href="#m426e2a322c" x="58.106" y="165.786196" style="stroke: #000000; stroke-width: 0.8"/>
      </g>
     </g>
     <g id="text_22">
      <!-- 0.0 -->
      <g transform="translate(35.202875 169.585415)scale(0.1 -0.1)">
       <use xlink:href="#DejaVuSans-30"/>
       <use xlink:href="#DejaVuSans-2e" x="63.623047"/>
       <use xlink:href="#DejaVuSans-30" x="95.410156"/>
      </g>
     </g>
    </g>
    <g id="ytick_5">
     <g id="line2d_38">
      <path d="M 58.106 150.954333 
L 450 150.954333 
" clip-path="url(#pf10d5d72bc)" style="fill: none; stroke: #b0b0b0; stroke-width: 0.8; stroke-linecap: square"/>
     </g>
     <g id="line2d_39">
      <g>
       <use xlink:href="#m426e2a322c" x="58.106" y="150.954333" style="stroke: #000000; stroke-width: 0.8"/>
      </g>
     </g>
     <g id="text_23">
      <!-- 0.1 -->
      <g transform="translate(35.202875 154.753551)scale(0.1 -0.1)">
       <use xlink:href="#DejaVuSans-30"/>
       <use xlink:href="#DejaVuSans-2e" x="63.623047"/>
       <use xlink:href="#DejaVuSans-31" x="95.410156"/>
      </g>
     </g>
    </g>
    <g id="text_24">
     <!-- $e_z$ [m] -->
     <g transform="translate(20.7435 180.60875)rotate(-90)scale(0.1 -0.1)">
      <defs>
       <path id="DejaVuSans-Oblique-7a" d="M 744 3500 
L 3475 3500 
L 3372 2975 
L 738 459 
L 2913 459 
L 2822 0 
L -19 0 
L 84 525 
L 2719 3041 
L 653 3041 
L 744 3500 
z
" transform="scale(0.015625)"/>
      </defs>
      <use xlink:href="#DejaVuSans-Oblique-65" transform="translate(0 0.015625)"/>
      <use xlink:href="#DejaVuSans-Oblique-7a" transform="translate(61.523438 -16.390625)scale(0.7)"/>
      <use xlink:href="#DejaVuSans-20" transform="translate(101.000977 0.015625)"/>
      <use xlink:href="#DejaVuSans-5b" transform="translate(132.788086 0.015625)"/>
      <use xlink:href="#DejaVuSans-6d" transform="translate(171.801758 0.015625)"/>
      <use xlink:href="#DejaVuSans-5d" transform="translate(269.213867 0.015625)"/>
     </g>
    </g>
   </g>
   <g id="line2d_40">
    <path d="M 75.919364 167.142916 
L 77.102976 166.562527 
L 77.398879 166.232008 
L 77.990685 165.831446 
L 78.286588 165.612678 
L 78.878394 165.421544 
L 79.4702 165.174328 
L 80.062006 165.145897 
L 80.653812 165.209847 
L 80.949715 165.334799 
L 81.245619 165.334799 
L 81.541522 165.496969 
L 82.725134 165.499096 
L 83.31694 165.225765 
L 84.204649 164.770462 
L 84.500552 164.364308 
L 84.796455 164.364308 
L 85.092358 163.660152 
L 85.388261 163.538106 
L 85.980067 163.058033 
L 86.27597 162.623445 
L 88.051389 161.431245 
L 88.347292 161.431245 
L 88.643195 160.866404 
L 88.939098 160.752897 
L 89.826807 159.935903 
L 90.12271 159.435945 
L 90.418613 158.680042 
L 91.306322 157.423536 
L 91.898128 155.934273 
L 92.194031 155.327594 
L 92.489934 155.134382 
L 93.96945 153.272298 
L 94.857159 152.874041 
L 95.744868 152.754574 
L 96.632577 152.882157 
L 96.92848 153.086585 
L 97.224383 153.086585 
L 97.816189 153.410571 
L 98.999802 153.93039 
L 99.591608 154.216954 
L 100.77522 154.453851 
L 101.662929 154.369814 
L 102.254735 154.218369 
L 102.846541 153.761802 
L 104.030153 152.955766 
L 105.509669 151.255783 
L 106.101475 150.599617 
L 106.397378 150.132391 
L 107.58099 149.428409 
L 108.468699 148.973917 
L 109.652311 148.586742 
L 110.244117 148.246864 
L 110.835924 147.974544 
L 111.131827 147.668846 
L 111.42773 147.668846 
L 111.723633 147.19343 
L 112.315439 146.967337 
L 112.907245 146.56826 
L 113.499051 146.245708 
L 114.38676 146.015155 
L 114.682663 145.84756 
L 114.978566 145.84756 
L 115.274469 145.584942 
L 115.866275 145.432853 
L 116.162178 145.319933 
L 117.049888 144.584489 
L 117.641694 144.314959 
L 117.937597 144.126824 
L 118.2335 143.642704 
L 118.529403 143.642704 
L 118.825306 143.272509 
L 120.600724 142.295501 
L 122.08024 142.225062 
L 122.672046 142.385298 
L 123.263852 142.552052 
L 124.151561 143.200992 
L 124.743367 143.460871 
L 125.03927 143.650011 
L 125.926979 144.739832 
L 126.518785 145.089729 
L 127.406494 145.889088 
L 127.702397 146.311559 
L 128.590107 146.877064 
L 128.88601 147.28471 
L 129.181913 147.28471 
L 129.773719 147.727605 
L 130.365525 148.01678 
L 131.253234 148.834026 
L 131.84504 149.126354 
L 132.140943 149.335543 
L 132.436846 149.906687 
L 132.732749 149.906687 
L 133.028652 150.404203 
L 133.324555 150.53265 
L 134.508168 151.961424 
L 135.395877 152.777605 
L 135.69178 153.181521 
L 138.65081 155.035451 
L 138.946713 155.405558 
L 139.242616 155.405558 
L 139.538519 155.809799 
L 140.130326 156.341674 
L 140.426229 156.660421 
L 141.018035 156.969049 
L 141.313938 157.35219 
L 143.089356 158.352904 
L 145.160677 159.041365 
L 146.048387 159.471821 
L 146.640193 159.941029 
L 147.823805 160.670177 
L 149.007417 161.716532 
L 149.30332 161.901306 
L 149.599223 162.264787 
L 149.895126 162.264787 
L 150.191029 162.81124 
L 150.782835 163.094402 
L 151.670545 163.814967 
L 151.966448 164.285507 
L 152.854157 165.108352 
L 153.15006 165.575485 
L 153.445963 166.253726 
L 154.333672 167.375801 
L 154.925478 168.782813 
L 155.221381 168.782813 
L 155.517284 169.584291 
L 156.404993 170.900657 
L 156.700896 171.577978 
L 156.996799 171.577978 
L 157.292703 172.193107 
L 158.476315 173.376512 
L 158.772218 173.847424 
L 160.251733 175.116908 
L 160.547636 175.588029 
L 162.323054 177.084394 
L 162.618957 177.517897 
L 164.986182 179.106067 
L 166.465697 179.520793 
L 168.537018 179.788289 
L 169.128825 179.973509 
L 169.720631 180.266324 
L 171.791952 180.886516 
L 172.975564 180.812287 
L 173.863273 180.663011 
L 174.750982 180.638523 
L 176.230498 181.043187 
L 176.822304 181.281154 
L 178.005916 181.411635 
L 179.485431 181.07779 
L 180.37314 180.771949 
L 181.556753 180.666952 
L 182.740365 180.973651 
L 184.21988 181.758487 
L 184.811686 181.980468 
L 185.995298 182.018396 
L 186.587105 181.865336 
L 187.770717 181.627423 
L 188.06662 181.407863 
L 189.842038 181.265767 
L 190.433844 181.390843 
L 191.02565 181.645093 
L 193.392875 183.475257 
L 194.576487 183.774496 
L 196.056002 183.914103 
L 197.83142 184.164171 
L 198.127323 184.351977 
L 198.423227 184.351977 
L 198.71913 184.746712 
L 199.310936 184.984675 
L 199.606839 185.152012 
L 199.902742 185.488792 
L 201.67816 186.411034 
L 202.565869 186.516768 
L 206.116706 186.239256 
L 208.188027 186.881486 
L 208.779833 187.046195 
L 209.963445 187.065764 
L 212.922476 186.322423 
L 213.514282 186.310221 
L 214.993797 186.67537 
L 215.2897 186.898257 
L 215.585603 186.898257 
L 216.17741 187.132063 
L 217.361022 187.278351 
L 218.840537 186.936914 
L 220.911858 186.546291 
L 222.095471 186.64671 
L 223.574986 187.201699 
L 223.870889 187.201699 
L 224.462695 187.40511 
L 225.646307 187.484964 
L 226.829919 187.277977 
L 228.605338 186.750963 
L 229.493047 186.707355 
L 230.380756 186.890386 
L 230.676659 187.089903 
L 230.972562 187.089903 
L 231.268465 187.447206 
L 232.156174 187.740657 
L 232.452077 187.931609 
L 232.74798 187.931609 
L 233.043883 188.091111 
L 234.227496 188.049663 
L 237.186526 187.304543 
L 238.074235 187.36783 
L 238.370138 187.529429 
L 239.257847 187.697151 
L 239.553751 187.828863 
L 239.849654 187.828863 
L 240.145557 187.977416 
L 241.625072 187.953733 
L 244.584102 187.287731 
L 245.471812 187.263057 
L 248.726745 187.482276 
L 249.614454 187.353409 
L 251.389873 187.249266 
L 253.757097 187.168543 
L 254.644806 186.923509 
L 254.940709 186.762045 
L 255.236612 186.762045 
L 255.828418 186.515906 
L 256.716127 186.191659 
L 257.603837 186.081266 
L 258.787449 186.114484 
L 259.971061 186.339748 
L 261.450576 186.335602 
L 262.634188 185.941292 
L 263.521898 185.586153 
L 263.817801 185.368776 
L 264.113704 185.368776 
L 264.70551 185.012116 
L 266.480928 184.390602 
L 267.66454 184.431394 
L 268.552249 184.562388 
L 269.735862 184.577083 
L 270.623571 184.451904 
L 270.919474 184.287653 
L 271.215377 184.287653 
L 271.51128 183.963606 
L 272.103086 183.787874 
L 272.694892 183.4409 
L 273.286698 183.130825 
L 273.878504 182.86597 
L 275.653923 182.177697 
L 276.541632 182.256505 
L 278.31705 182.723929 
L 279.500662 182.786627 
L 280.980178 182.282729 
L 282.16379 181.720272 
L 283.347402 181.130498 
L 284.531014 180.843636 
L 285.418723 180.888954 
L 286.306432 181.103628 
L 286.898239 181.325494 
L 288.377754 181.549382 
L 289.265463 181.39503 
L 292.8163 179.898563 
L 293.704009 179.779224 
L 294.591718 179.861129 
L 296.958942 180.407986 
L 297.846651 180.444745 
L 298.734361 180.239404 
L 299.62207 179.989187 
L 299.917973 179.750746 
L 300.805682 179.586364 
L 301.693391 179.310842 
L 302.5811 179.194838 
L 303.468809 179.20913 
L 304.948325 179.372702 
L 305.540131 179.504183 
L 307.019646 179.561125 
L 311.458192 179.059649 
L 314.713125 179.32987 
L 316.192641 179.303084 
L 317.376253 179.173044 
L 320.335283 179.040878 
L 324.773829 179.859915 
L 326.253344 179.787486 
L 328.620569 179.515084 
L 329.508278 179.515593 
L 330.987793 179.923378 
L 331.875502 180.316386 
L 332.171405 180.316386 
L 332.763211 180.545181 
L 333.650921 180.756711 
L 338.681272 180.865619 
L 340.160788 181.210547 
L 342.528012 182.101679 
L 344.007527 182.334004 
L 345.487043 182.196692 
L 346.374752 182.064113 
L 347.262461 182.089963 
L 348.446073 182.332876 
L 352.884619 184.101105 
L 353.772328 184.089361 
L 354.95594 183.818964 
L 355.547746 183.615226 
L 357.027262 183.430865 
L 358.80268 183.365626 
L 359.394486 183.175317 
L 359.986292 182.969839 
L 360.282195 182.60367 
L 360.578098 182.60367 
L 361.169904 182.036481 
L 362.353516 181.146148 
L 362.64942 180.826809 
L 363.537129 180.487398 
L 364.424838 180.334808 
L 365.904353 180.314572 
L 366.496159 180.101669 
L 367.087965 179.862157 
L 367.383868 179.53252 
L 367.679771 179.53252 
L 367.975674 178.921427 
L 368.567481 178.598783 
L 368.863384 178.389315 
L 369.159287 177.999633 
L 369.45519 177.999633 
L 369.751093 177.50274 
L 370.638802 177.191811 
L 370.934705 177.025924 
L 371.230608 177.025924 
L 371.822414 176.878054 
L 373.006026 176.701964 
L 374.189638 176.223075 
L 374.781445 175.726221 
L 375.373251 175.318587 
L 375.669154 175.070546 
L 375.965057 175.070546 
L 376.556863 174.877735 
L 377.444572 174.944968 
L 378.036378 175.170684 
L 379.21999 175.3847 
L 379.811796 175.292004 
L 380.699506 174.949256 
L 380.995409 174.778777 
L 381.291312 174.475298 
L 381.587215 174.012611 
L 383.362633 172.604881 
L 384.250342 172.412046 
L 386.02576 172.830259 
L 386.617567 172.931717 
L 387.505276 172.777793 
L 388.097082 172.461006 
L 388.688888 171.875765 
L 389.576597 171.156837 
L 390.464306 170.097598 
L 391.352015 169.568589 
L 392.239725 169.241178 
L 393.127434 169.248151 
L 394.015143 169.385563 
L 394.902852 169.356567 
L 395.198755 169.172699 
L 395.494658 169.172699 
L 396.086464 168.734088 
L 396.974173 168.094613 
L 397.861883 167.112582 
L 399.045495 166.409392 
L 399.933204 166.375619 
L 400.52501 166.508323 
L 401.412719 166.703512 
L 402.300428 166.693198 
L 403.48404 166.208449 
L 403.779944 166.031593 
L 404.37175 165.367982 
L 404.667653 165.119922 
L 405.555362 164.808544 
L 406.147168 164.666155 
L 407.034877 164.835208 
L 407.33078 164.946978 
L 407.922586 165.414418 
L 408.514392 165.637781 
L 409.402101 165.821991 
L 409.993908 165.72905 
L 410.881617 165.390149 
L 411.473423 164.855011 
L 412.361132 164.083837 
L 412.657035 164.083837 
L 412.952938 163.843108 
L 414.13655 163.621943 
L 415.024259 163.678715 
L 417.095581 164.211469 
L 417.98329 164.114985 
L 419.758708 162.974992 
L 420.350514 162.358401 
L 420.646417 162.17257 
L 422.125933 162.011972 
L 422.421836 162.242622 
L 423.013642 162.432423 
L 423.309545 162.569726 
L 423.901351 162.997038 
L 424.493157 163.156761 
L 425.380866 163.213674 
L 426.564478 162.804412 
L 426.860381 162.648629 
L 427.452188 162.026959 
L 427.748091 161.777013 
L 428.339897 161.540794 
L 428.6358 161.393029 
L 428.931703 161.093437 
L 429.227606 161.093437 
L 429.819412 160.961008 
L 430.411218 161.035723 
L 430.707121 161.171018 
L 431.298927 161.61772 
L 432.186636 162.21657 
L 432.186636 162.21657 
" clip-path="url(#pf10d5d72bc)" style="fill: none; stroke: #0000ff; stroke-width: 1.5; stroke-linecap: square"/>
   </g>
   <g id="patch_8">
    <path d="M 58.106 190.3975 
L 58.106 139.92 
" style="fill: none; stroke: #000000; stroke-width: 0.8; stroke-linejoin: miter; stroke-linecap: square"/>
   </g>
   <g id="patch_9">
    <path d="M 450 190.3975 
L 450 139.92 
" style="fill: none; stroke: #000000; stroke-width: 0.8; stroke-linejoin: miter; stroke-linecap: square"/>
   </g>
   <g id="patch_10">
    <path d="M 58.106 190.3975 
L 450 190.3975 
" style="fill: none; stroke: #000000; stroke-width: 0.8; stroke-linejoin: miter; stroke-linecap: square"/>
   </g>
   <g id="patch_11">
    <path d="M 58.106 139.92 
L 450 139.92 
" style="fill: none; stroke: #000000; stroke-width: 0.8; stroke-linejoin: miter; stroke-linecap: square"/>
   </g>
   <g id="text_25">
    <!-- Error in $z$-position -->
    <g transform="translate(200.773 133.92)scale(0.12 -0.12)">
     <use xlink:href="#DejaVuSans-45" transform="translate(0 0.015625)"/>
     <use xlink:href="#DejaVuSans-72" transform="translate(63.183594 0.015625)"/>
     <use xlink:href="#DejaVuSans-72" transform="translate(104.296875 0.015625)"/>
     <use xlink:href="#DejaVuSans-6f" transform="translate(145.410156 0.015625)"/>
     <use xlink:href="#DejaVuSans-72" transform="translate(206.591797 0.015625)"/>
     <use xlink:href="#DejaVuSans-20" transform="translate(247.705078 0.015625)"/>
     <use xlink:href="#DejaVuSans-69" transform="translate(279.492188 0.015625)"/>
     <use xlink:href="#DejaVuSans-6e" transform="translate(307.275391 0.015625)"/>
     <use xlink:href="#DejaVuSans-20" transform="translate(370.654297 0.015625)"/>
     <use xlink:href="#DejaVuSans-Oblique-7a" transform="translate(402.441406 0.015625)"/>
     <use xlink:href="#DejaVuSans-2d" transform="translate(454.931641 0.015625)"/>
     <use xlink:href="#DejaVuSans-70" transform="translate(491.015625 0.015625)"/>
     <use xlink:href="#DejaVuSans-6f" transform="translate(554.492188 0.015625)"/>
     <use xlink:href="#DejaVuSans-73" transform="translate(615.673828 0.015625)"/>
     <use xlink:href="#DejaVuSans-69" transform="translate(667.773438 0.015625)"/>
     <use xlink:href="#DejaVuSans-74" transform="translate(695.556641 0.015625)"/>
     <use xlink:href="#DejaVuSans-69" transform="translate(734.765625 0.015625)"/>
     <use xlink:href="#DejaVuSans-6f" transform="translate(762.548828 0.015625)"/>
     <use xlink:href="#DejaVuSans-6e" transform="translate(823.730469 0.015625)"/>
    </g>
   </g>
  </g>
  <g id="axes_3">
   <g id="patch_12">
    <path d="M 58.106 301.9975 
L 450 301.9975 
L 450 251.52 
L 58.106 251.52 
z
" style="fill: #ffffff"/>
   </g>
   <g id="matplotlib.axis_5">
    <g id="xtick_15">
     <g id="line2d_41">
      <path d="M 75.919364 301.9975 
L 75.919364 251.52 
" clip-path="url(#p26be4e8a4b)" style="fill: none; stroke: #b0b0b0; stroke-width: 0.8; stroke-linecap: square"/>
     </g>
     <g id="line2d_42">
      <g>
       <use xlink:href="#m05a180c407" x="75.919364" y="301.9975" style="stroke: #000000; stroke-width: 0.8"/>
      </g>
     </g>
     <g id="text_26">
      <!-- 0 -->
      <g transform="translate(72.738114 316.595937)scale(0.1 -0.1)">
       <use xlink:href="#DejaVuSans-30"/>
      </g>
     </g>
    </g>
    <g id="xtick_16">
     <g id="line2d_43">
      <path d="M 135.050861 301.9975 
L 135.050861 251.52 
" clip-path="url(#p26be4e8a4b)" style="fill: none; stroke: #b0b0b0; stroke-width: 0.8; stroke-linecap: square"/>
     </g>
     <g id="line2d_44">
      <g>
       <use xlink:href="#m05a180c407" x="135.050861" y="301.9975" style="stroke: #000000; stroke-width: 0.8"/>
      </g>
     </g>
     <g id="text_27">
      <!-- 2 -->
      <g transform="translate(131.869611 316.595937)scale(0.1 -0.1)">
       <use xlink:href="#DejaVuSans-32"/>
      </g>
     </g>
    </g>
    <g id="xtick_17">
     <g id="line2d_45">
      <path d="M 194.182359 301.9975 
L 194.182359 251.52 
" clip-path="url(#p26be4e8a4b)" style="fill: none; stroke: #b0b0b0; stroke-width: 0.8; stroke-linecap: square"/>
     </g>
     <g id="line2d_46">
      <g>
       <use xlink:href="#m05a180c407" x="194.182359" y="301.9975" style="stroke: #000000; stroke-width: 0.8"/>
      </g>
     </g>
     <g id="text_28">
      <!-- 4 -->
      <g transform="translate(191.001109 316.595937)scale(0.1 -0.1)">
       <use xlink:href="#DejaVuSans-34"/>
      </g>
     </g>
    </g>
    <g id="xtick_18">
     <g id="line2d_47">
      <path d="M 253.313856 301.9975 
L 253.313856 251.52 
" clip-path="url(#p26be4e8a4b)" style="fill: none; stroke: #b0b0b0; stroke-width: 0.8; stroke-linecap: square"/>
     </g>
     <g id="line2d_48">
      <g>
       <use xlink:href="#m05a180c407" x="253.313856" y="301.9975" style="stroke: #000000; stroke-width: 0.8"/>
      </g>
     </g>
     <g id="text_29">
      <!-- 6 -->
      <g transform="translate(250.132606 316.595937)scale(0.1 -0.1)">
       <use xlink:href="#DejaVuSans-36"/>
      </g>
     </g>
    </g>
    <g id="xtick_19">
     <g id="line2d_49">
      <path d="M 312.445354 301.9975 
L 312.445354 251.52 
" clip-path="url(#p26be4e8a4b)" style="fill: none; stroke: #b0b0b0; stroke-width: 0.8; stroke-linecap: square"/>
     </g>
     <g id="line2d_50">
      <g>
       <use xlink:href="#m05a180c407" x="312.445354" y="301.9975" style="stroke: #000000; stroke-width: 0.8"/>
      </g>
     </g>
     <g id="text_30">
      <!-- 8 -->
      <g transform="translate(309.264104 316.595937)scale(0.1 -0.1)">
       <use xlink:href="#DejaVuSans-38"/>
      </g>
     </g>
    </g>
    <g id="xtick_20">
     <g id="line2d_51">
      <path d="M 371.576851 301.9975 
L 371.576851 251.52 
" clip-path="url(#p26be4e8a4b)" style="fill: none; stroke: #b0b0b0; stroke-width: 0.8; stroke-linecap: square"/>
     </g>
     <g id="line2d_52">
      <g>
       <use xlink:href="#m05a180c407" x="371.576851" y="301.9975" style="stroke: #000000; stroke-width: 0.8"/>
      </g>
     </g>
     <g id="text_31">
      <!-- 10 -->
      <g transform="translate(365.214351 316.595937)scale(0.1 -0.1)">
       <use xlink:href="#DejaVuSans-31"/>
       <use xlink:href="#DejaVuSans-30" x="63.623047"/>
      </g>
     </g>
    </g>
    <g id="xtick_21">
     <g id="line2d_53">
      <path d="M 430.708349 301.9975 
L 430.708349 251.52 
" clip-path="url(#p26be4e8a4b)" style="fill: none; stroke: #b0b0b0; stroke-width: 0.8; stroke-linecap: square"/>
     </g>
     <g id="line2d_54">
      <g>
       <use xlink:href="#m05a180c407" x="430.708349" y="301.9975" style="stroke: #000000; stroke-width: 0.8"/>
      </g>
     </g>
     <g id="text_32">
      <!-- 12 -->
      <g transform="translate(424.345849 316.595937)scale(0.1 -0.1)">
       <use xlink:href="#DejaVuSans-31"/>
       <use xlink:href="#DejaVuSans-32" x="63.623047"/>
      </g>
     </g>
    </g>
    <g id="text_33">
     <!-- $t$ [s] -->
     <g transform="translate(243.953 330.274063)scale(0.1 -0.1)">
      <use xlink:href="#DejaVuSans-Oblique-74" transform="translate(0 0.015625)"/>
      <use xlink:href="#DejaVuSans-20" transform="translate(39.208984 0.015625)"/>
      <use xlink:href="#DejaVuSans-5b" transform="translate(70.996094 0.015625)"/>
      <use xlink:href="#DejaVuSans-73" transform="translate(110.009766 0.015625)"/>
      <use xlink:href="#DejaVuSans-5d" transform="translate(162.109375 0.015625)"/>
     </g>
    </g>
   </g>
   <g id="matplotlib.axis_6">
    <g id="ytick_6">
     <g id="line2d_55">
      <path d="M 58.106 292.866951 
L 450 292.866951 
" clip-path="url(#p26be4e8a4b)" style="fill: none; stroke: #b0b0b0; stroke-width: 0.8; stroke-linecap: square"/>
     </g>
     <g id="line2d_56">
      <g>
       <use xlink:href="#m426e2a322c" x="58.106" y="292.866951" style="stroke: #000000; stroke-width: 0.8"/>
      </g>
     </g>
     <g id="text_34">
      <!-- −0.1 -->
      <g transform="translate(26.823188 296.66617)scale(0.1 -0.1)">
       <use xlink:href="#DejaVuSans-2212"/>
       <use xlink:href="#DejaVuSans-30" x="83.789062"/>
       <use xlink:href="#DejaVuSans-2e" x="147.412109"/>
       <use xlink:href="#DejaVuSans-31" x="179.199219"/>
      </g>
     </g>
    </g>
    <g id="ytick_7">
     <g id="line2d_57">
      <path d="M 58.106 276.974266 
L 450 276.974266 
" clip-path="url(#p26be4e8a4b)" style="fill: none; stroke: #b0b0b0; stroke-width: 0.8; stroke-linecap: square"/>
     </g>
     <g id="line2d_58">
      <g>
       <use xlink:href="#m426e2a322c" x="58.106" y="276.974266" style="stroke: #000000; stroke-width: 0.8"/>
      </g>
     </g>
     <g id="text_35">
      <!-- 0.0 -->
      <g transform="translate(35.202875 280.773485)scale(0.1 -0.1)">
       <use xlink:href="#DejaVuSans-30"/>
       <use xlink:href="#DejaVuSans-2e" x="63.623047"/>
       <use xlink:href="#DejaVuSans-30" x="95.410156"/>
      </g>
     </g>
    </g>
    <g id="ytick_8">
     <g id="line2d_59">
      <path d="M 58.106 261.081582 
L 450 261.081582 
" clip-path="url(#p26be4e8a4b)" style="fill: none; stroke: #b0b0b0; stroke-width: 0.8; stroke-linecap: square"/>
     </g>
     <g id="line2d_60">
      <g>
       <use xlink:href="#m426e2a322c" x="58.106" y="261.081582" style="stroke: #000000; stroke-width: 0.8"/>
      </g>
     </g>
     <g id="text_36">
      <!-- 0.1 -->
      <g transform="translate(35.202875 264.8808)scale(0.1 -0.1)">
       <use xlink:href="#DejaVuSans-30"/>
       <use xlink:href="#DejaVuSans-2e" x="63.623047"/>
       <use xlink:href="#DejaVuSans-31" x="95.410156"/>
      </g>
     </g>
    </g>
    <g id="text_37">
     <!-- $e_\theta$ [rad] -->
     <g transform="translate(20.7435 295.90875)rotate(-90)scale(0.1 -0.1)">
      <defs>
       <path id="DejaVuSans-Oblique-3b8" d="M 2913 2219 
L 925 2219 
Q 791 1284 928 888 
Q 1100 400 1566 400 
Q 2034 400 2391 891 
Q 2703 1322 2913 2219 
z
M 3009 2750 
Q 3094 3638 2984 3950 
Q 2813 4444 2353 4444 
Q 1875 4444 1525 3956 
Q 1250 3563 1034 2750 
L 3009 2750 
z
M 2444 4913 
Q 3194 4913 3494 4250 
Q 3794 3591 3566 2422 
Q 3341 1256 2781 594 
Q 2225 -72 1475 -72 
Q 722 -72 425 594 
Q 128 1256 353 2422 
Q 581 3591 1134 4250 
Q 1691 4913 2444 4913 
z
" transform="scale(0.015625)"/>
       <path id="DejaVuSans-61" d="M 2194 1759 
Q 1497 1759 1228 1600 
Q 959 1441 959 1056 
Q 959 750 1161 570 
Q 1363 391 1709 391 
Q 2188 391 2477 730 
Q 2766 1069 2766 1631 
L 2766 1759 
L 2194 1759 
z
M 3341 1997 
L 3341 0 
L 2766 0 
L 2766 531 
Q 2569 213 2275 61 
Q 1981 -91 1556 -91 
Q 1019 -91 701 211 
Q 384 513 384 1019 
Q 384 1609 779 1909 
Q 1175 2209 1959 2209 
L 2766 2209 
L 2766 2266 
Q 2766 2663 2505 2880 
Q 2244 3097 1772 3097 
Q 1472 3097 1187 3025 
Q 903 2953 641 2809 
L 641 3341 
Q 956 3463 1253 3523 
Q 1550 3584 1831 3584 
Q 2591 3584 2966 3190 
Q 3341 2797 3341 1997 
z
" transform="scale(0.015625)"/>
       <path id="DejaVuSans-64" d="M 2906 2969 
L 2906 4863 
L 3481 4863 
L 3481 0 
L 2906 0 
L 2906 525 
Q 2725 213 2448 61 
Q 2172 -91 1784 -91 
Q 1150 -91 751 415 
Q 353 922 353 1747 
Q 353 2572 751 3078 
Q 1150 3584 1784 3584 
Q 2172 3584 2448 3432 
Q 2725 3281 2906 2969 
z
M 947 1747 
Q 947 1113 1208 752 
Q 1469 391 1925 391 
Q 2381 391 2643 752 
Q 2906 1113 2906 1747 
Q 2906 2381 2643 2742 
Q 2381 3103 1925 3103 
Q 1469 3103 1208 2742 
Q 947 2381 947 1747 
z
" transform="scale(0.015625)"/>
      </defs>
      <use xlink:href="#DejaVuSans-Oblique-65" transform="translate(0 0.015625)"/>
      <use xlink:href="#DejaVuSans-Oblique-3b8" transform="translate(61.523438 -16.390625)scale(0.7)"/>
      <use xlink:href="#DejaVuSans-20" transform="translate(107.084961 0.015625)"/>
      <use xlink:href="#DejaVuSans-5b" transform="translate(138.87207 0.015625)"/>
      <use xlink:href="#DejaVuSans-72" transform="translate(177.885742 0.015625)"/>
      <use xlink:href="#DejaVuSans-61" transform="translate(218.999023 0.015625)"/>
      <use xlink:href="#DejaVuSans-64" transform="translate(280.27832 0.015625)"/>
      <use xlink:href="#DejaVuSans-5d" transform="translate(343.754883 0.015625)"/>
     </g>
    </g>
   </g>
   <g id="line2d_61">
    <path d="M 75.919364 276.843231 
L 76.215267 276.460617 
L 76.51117 275.835407 
L 76.807073 275.64081 
L 77.102976 275.231807 
L 77.990685 271.458223 
L 78.286588 269.478728 
L 78.582491 268.783146 
L 78.878394 267.394195 
L 79.174297 264.796626 
L 80.062006 261.186588 
L 80.949715 260.461112 
L 81.245619 260.461112 
L 81.541522 261.779713 
L 81.837425 262.131911 
L 82.725134 264.747896 
L 83.021037 266.303334 
L 83.31694 268.525658 
L 84.204649 272.190087 
L 84.500552 274.96403 
L 84.796455 274.96403 
L 85.092358 280.002723 
L 85.388261 280.929984 
L 85.980067 284.684981 
L 86.27597 288.192128 
L 87.16368 292.629939 
L 87.459583 293.238895 
L 87.755486 293.238895 
L 88.051389 293.583698 
L 88.347292 293.583698 
L 88.643195 293.720407 
L 89.235001 293.672372 
L 89.826807 293.44197 
L 90.12271 293.144114 
L 91.306322 290.883694 
L 92.194031 283.270996 
L 92.489934 282.293967 
L 93.377644 276.383425 
L 94.265353 268.551635 
L 95.744868 260.897646 
L 96.336674 259.786052 
L 96.92848 258.907746 
L 97.520286 258.90479 
L 98.112092 259.258347 
L 98.703899 260.005103 
L 98.999802 260.857963 
L 99.591608 263.398186 
L 100.183414 265.76206 
L 100.479317 267.870031 
L 100.77522 271.086826 
L 102.254735 280.415317 
L 103.142444 288.753007 
L 104.326056 294.969798 
L 104.62196 296.131575 
L 104.917863 296.191728 
L 105.213766 295.913866 
L 105.509669 295.322548 
L 105.805572 294.466445 
L 106.101475 292.788983 
L 106.397378 290.033743 
L 107.58099 283.841237 
L 108.468699 276.990132 
L 109.948214 270.593511 
L 110.244117 270.496641 
L 110.540021 270.710814 
L 110.835924 271.214627 
L 111.131827 272.919456 
L 111.42773 272.919456 
L 111.723633 276.266655 
L 112.019536 276.817421 
L 113.203148 281.173481 
L 113.499051 281.605103 
L 114.090857 281.712334 
L 114.38676 281.627248 
L 114.682663 281.10935 
L 114.978566 281.10935 
L 115.274469 279.618534 
L 115.570372 279.300098 
L 116.162178 277.863222 
L 117.049888 273.414969 
L 117.345791 272.916796 
L 117.937597 270.847665 
L 118.2335 268.05102 
L 118.529403 268.05102 
L 118.825306 265.702568 
L 119.713015 262.172343 
L 120.304821 258.679655 
L 120.600724 257.599872 
L 120.896627 257.305025 
L 121.488433 256.487093 
L 121.784336 256.282069 
L 122.08024 256.282069 
L 122.376143 257.236729 
L 122.672046 257.537569 
L 123.263852 259.080625 
L 123.855658 262.437633 
L 124.151561 263.840887 
L 124.447464 264.279269 
L 125.926979 268.153319 
L 126.814688 268.429735 
L 127.110591 268.391452 
L 127.406494 268.20145 
L 127.702397 267.791966 
L 128.88601 267.041348 
L 129.181913 267.041348 
L 130.365525 267.69788 
L 131.253234 268.818471 
L 131.84504 269.159598 
L 132.140943 269.387933 
L 132.436846 269.966805 
L 132.732749 269.966805 
L 133.028652 270.467409 
L 133.324555 270.601633 
L 133.620458 271.031127 
L 133.916362 271.68774 
L 134.804071 272.92133 
L 135.099974 273.43257 
L 135.395877 274.283324 
L 135.69178 275.553539 
L 136.579489 277.641342 
L 137.171295 280.035883 
L 137.467198 280.035883 
L 137.763101 281.262782 
L 138.946713 283.817353 
L 139.242616 283.817353 
L 139.538519 284.266414 
L 140.130326 284.56925 
L 140.722132 284.559337 
L 141.018035 284.466432 
L 142.201647 283.058829 
L 142.49755 282.210657 
L 142.793453 282.210657 
L 143.089356 281.263177 
L 144.272968 279.110955 
L 144.568871 278.367391 
L 145.752484 276.918845 
L 146.048387 276.283413 
L 146.34429 275.310791 
L 147.231999 273.415682 
L 147.823805 271.777501 
L 148.119708 270.351664 
L 148.415611 268.17313 
L 149.30332 264.393198 
L 149.599223 261.750791 
L 149.895126 261.750791 
L 150.191029 258.340172 
L 150.486932 257.869027 
L 151.078738 256.264969 
L 151.966448 254.616416 
L 153.741866 253.840532 
L 154.629575 253.870106 
L 154.925478 254.015937 
L 155.221381 254.015937 
L 155.813187 254.340512 
L 156.404993 254.711201 
L 156.700896 255.12353 
L 156.996799 255.12353 
L 157.588606 256.088365 
L 158.180412 257.048102 
L 158.476315 257.930281 
L 158.772218 259.271262 
L 159.95583 262.165411 
L 160.843539 264.870548 
L 161.731248 266.009895 
L 162.323054 266.382595 
L 162.91486 266.147167 
L 163.80257 265.570146 
L 164.394376 265.092173 
L 164.986182 265.192106 
L 165.577988 265.650066 
L 165.873891 266.22637 
L 166.169794 267.228912 
L 167.649309 269.873926 
L 167.945212 270.25941 
L 168.537018 270.344622 
L 169.424728 270.336644 
L 170.016534 270.584488 
L 170.312437 270.835927 
L 170.60834 271.441133 
L 170.904243 272.755554 
L 171.200146 272.755554 
L 171.496049 274.707401 
L 172.087855 277.183841 
L 172.679661 281.75043 
L 172.975564 281.75043 
L 173.271467 283.792006 
L 173.863273 285.083037 
L 174.159176 285.383043 
L 174.455079 284.837367 
L 174.750982 284.837367 
L 175.342789 282.635709 
L 175.934595 280.809712 
L 176.526401 277.995702 
L 177.118207 276.960213 
L 177.41411 276.666668 
L 177.710013 276.563398 
L 178.005916 276.810741 
L 178.597722 278.6366 
L 180.077237 283.068143 
L 180.37314 283.004746 
L 180.669043 282.675684 
L 181.26085 281.306794 
L 181.556753 279.772207 
L 181.852656 277.312652 
L 182.740365 273.373077 
L 183.332171 269.491616 
L 183.628074 269.491616 
L 183.923977 268.330437 
L 184.21988 268.152705 
L 184.515783 268.419915 
L 184.811686 269.306218 
L 185.107589 269.722853 
L 185.403492 270.704413 
L 185.699395 273.101926 
L 185.995298 273.101926 
L 186.291201 276.822466 
L 186.587105 277.340477 
L 187.178911 278.834027 
L 187.474814 278.971223 
L 187.770717 278.971223 
L 188.06662 276.519345 
L 188.362523 275.859756 
L 188.954329 272.73883 
L 189.250232 269.200474 
L 189.546135 269.200474 
L 189.842038 263.80909 
L 190.137941 262.948879 
L 191.321553 256.79323 
L 191.617456 255.807199 
L 191.913359 255.819106 
L 192.209262 256.159494 
L 192.505166 256.813824 
L 192.801069 257.761614 
L 193.096972 259.65469 
L 193.392875 262.807484 
L 194.576487 269.930058 
L 195.168293 274.527382 
L 195.464196 275.126323 
L 195.760099 275.373628 
L 196.056002 275.265917 
L 196.351905 274.073176 
L 196.647808 274.073176 
L 196.943711 270.424378 
L 197.239614 269.690046 
L 197.83142 266.599577 
L 198.127323 263.571549 
L 198.423227 263.571549 
L 198.71913 259.726284 
L 199.015033 259.225391 
L 199.606839 257.808355 
L 199.902742 257.721591 
L 200.198645 258.241553 
L 200.494548 259.667424 
L 200.790451 261.7464 
L 201.086354 262.552401 
L 201.382257 264.283582 
L 201.67816 268.03134 
L 202.565869 274.466693 
L 202.861772 277.483094 
L 203.453578 279.341583 
L 203.749481 279.732646 
L 204.045384 279.769653 
L 204.341288 279.455678 
L 204.637191 278.414887 
L 204.933094 276.247123 
L 206.116706 270.901456 
L 206.708512 266.841581 
L 207.300318 265.346907 
L 207.596221 264.93855 
L 207.892124 264.807137 
L 208.188027 265.201179 
L 209.075736 269.451893 
L 209.667542 272.739139 
L 210.555252 280.11428 
L 211.442961 283.722302 
L 211.738864 284.228825 
L 212.034767 284.011724 
L 212.33067 283.511207 
L 212.922476 281.821645 
L 213.218379 280.693357 
L 213.514282 278.756227 
L 213.810185 275.903769 
L 214.993797 270.114965 
L 215.2897 267.256765 
L 215.585603 267.256765 
L 215.881506 266.146567 
L 216.17741 266.07604 
L 216.473313 266.334977 
L 216.769216 266.908994 
L 217.952828 274.131026 
L 218.544634 277.314705 
L 218.840537 279.90432 
L 219.432343 281.505114 
L 219.728246 281.553242 
L 220.024149 280.959328 
L 220.320052 280.959328 
L 221.503664 273.679124 
L 221.799568 271.217027 
L 222.095471 271.217027 
L 222.391374 267.88238 
L 223.574986 261.71154 
L 223.870889 261.71154 
L 224.166792 261.841225 
L 224.462695 262.416779 
L 224.758598 263.29262 
L 225.054501 265.066222 
L 225.350404 268.041937 
L 226.829919 275.645909 
L 227.125822 276.924433 
L 227.421725 277.372669 
L 227.717629 277.080838 
L 228.309435 275.656105 
L 228.901241 273.412039 
L 229.197144 271.426235 
L 229.493047 268.589305 
L 230.380756 264.412808 
L 230.676659 261.890309 
L 230.972562 261.890309 
L 231.268465 259.702616 
L 231.564368 259.619815 
L 231.860271 259.718613 
L 232.156174 260.163025 
L 232.452077 262.010417 
L 232.74798 262.010417 
L 233.043883 266.547142 
L 233.339786 267.417836 
L 234.523399 275.145096 
L 234.819302 277.452966 
L 235.115205 278.164684 
L 235.411108 278.543915 
L 235.707011 278.59925 
L 236.002914 277.80411 
L 237.482429 271.489896 
L 237.778332 268.690292 
L 238.074235 268.690292 
L 238.370138 264.785849 
L 238.666041 264.199109 
L 239.257847 262.301121 
L 239.553751 261.610799 
L 239.849654 261.610799 
L 240.145557 263.409359 
L 240.44146 263.998575 
L 241.033266 266.959907 
L 241.329169 270.560488 
L 241.625072 272.438215 
L 242.216878 277.797373 
L 242.512781 278.56752 
L 243.104587 281.622179 
L 243.40049 281.948477 
L 243.696393 281.776097 
L 243.992296 280.916878 
L 244.288199 280.505605 
L 244.584102 279.52244 
L 244.880005 277.014203 
L 245.471812 274.076098 
L 246.063618 268.625721 
L 246.359521 268.625721 
L 246.655424 265.891325 
L 247.24723 263.709213 
L 247.543133 263.478244 
L 247.839036 263.602639 
L 248.134939 264.146417 
L 248.430842 266.250746 
L 248.726745 266.250746 
L 249.022648 271.051066 
L 249.318551 271.950673 
L 249.910357 275.535103 
L 250.20626 278.768638 
L 251.093969 282.613156 
L 251.389873 282.859214 
L 251.685776 282.859214 
L 252.277582 281.08999 
L 252.573485 279.916037 
L 252.869388 277.749517 
L 253.165291 274.390349 
L 254.940709 263.485574 
L 255.236612 263.485574 
L 255.532515 263.152084 
L 255.828418 263.515669 
L 256.124321 264.65627 
L 256.716127 268.693852 
L 257.012031 268.693852 
L 257.307934 272.191839 
L 257.603837 274.049971 
L 258.195643 279.306444 
L 258.491546 280.064378 
L 259.379255 283.63902 
L 259.675158 283.518467 
L 259.971061 282.570695 
L 260.266964 282.087652 
L 260.562867 280.906998 
L 260.85877 277.863823 
L 261.450576 274.230444 
L 262.042382 267.521348 
L 262.338285 267.521348 
L 262.634188 264.008583 
L 263.521898 259.699006 
L 263.817801 259.222302 
L 264.113704 259.222302 
L 265.001413 262.851513 
L 265.297316 264.478053 
L 265.593219 267.257935 
L 265.889122 271.320709 
L 267.66454 283.249931 
L 267.960443 284.78949 
L 268.256346 284.959584 
L 268.552249 284.723081 
L 268.848153 284.094111 
L 269.144056 281.817697 
L 269.439959 281.817697 
L 269.735862 276.634594 
L 270.031765 275.644438 
L 270.623571 271.529582 
L 270.919474 267.418952 
L 271.215377 267.418952 
L 271.51128 261.727974 
L 271.807183 260.899634 
L 272.694892 256.687272 
L 272.990795 256.589276 
L 273.286698 257.219915 
L 273.582601 258.7167 
L 273.878504 259.384092 
L 274.174407 260.927471 
L 274.47031 264.641037 
L 274.766214 266.723547 
L 275.653923 276.462429 
L 275.949826 276.462429 
L 276.245729 280.336469 
L 277.133438 285.204962 
L 277.429341 285.523488 
L 277.725244 285.523488 
L 278.612953 282.31856 
L 278.908856 280.045197 
L 279.204759 276.52105 
L 279.500662 276.52105 
L 279.796565 272.750324 
L 280.092468 270.845117 
L 280.684275 265.328838 
L 280.980178 264.502856 
L 281.276081 262.983793 
L 281.571984 260.667806 
L 281.867887 260.002544 
L 282.16379 259.715455 
L 282.459693 259.989084 
L 284.235111 269.761154 
L 285.12282 278.373567 
L 286.306432 284.467425 
L 286.602336 285.416543 
L 286.898239 285.384111 
L 287.194142 285.01444 
L 287.490045 284.327532 
L 287.785948 282.767815 
L 288.081851 279.929403 
L 288.377754 279.929403 
L 288.673657 276.482422 
L 289.265463 272.784105 
L 290.153172 264.940609 
L 290.744978 262.569754 
L 291.336784 261.361102 
L 291.92859 262.833688 
L 292.520397 265.319682 
L 293.112203 270.394178 
L 293.408106 271.312911 
L 293.704009 273.158732 
L 293.999912 276.812547 
L 294.591718 280.777516 
L 294.887621 282.663867 
L 295.183524 283.194701 
L 295.77533 284.900145 
L 296.071233 284.900145 
L 296.367136 283.619953 
L 296.663039 283.119943 
L 297.254845 280.480589 
L 297.550748 277.082298 
L 297.846651 277.082298 
L 298.142555 271.403569 
L 298.438458 270.449298 
L 299.030264 266.769505 
L 299.326167 263.658775 
L 299.62207 263.658775 
L 299.917973 260.848793 
L 300.509779 260.530667 
L 300.805682 260.748492 
L 301.693391 265.710432 
L 302.285197 271.346216 
L 302.5811 271.346216 
L 303.172906 278.20283 
L 303.468809 280.778689 
L 303.764712 281.542527 
L 304.652422 285.404642 
L 304.948325 285.404642 
L 305.836034 283.356904 
L 306.131937 282.040384 
L 306.42784 278.810818 
L 306.723743 276.971958 
L 307.611452 268.341361 
L 307.907355 268.341361 
L 308.203258 264.967181 
L 308.795064 262.489213 
L 309.090967 261.484938 
L 309.38687 261.492413 
L 309.682773 262.049033 
L 310.27458 264.108406 
L 310.866386 268.806573 
L 311.162289 271.562145 
L 311.458192 271.562145 
L 311.754095 275.326512 
L 312.641804 281.411682 
L 312.937707 283.887299 
L 313.529513 285.227066 
L 313.825416 285.385182 
L 314.121319 285.186749 
L 314.417222 284.628158 
L 314.713125 283.174711 
L 315.009028 280.295726 
L 316.192641 272.979798 
L 316.488544 268.336635 
L 316.784447 268.336635 
L 317.08035 264.987343 
L 317.672156 262.34263 
L 318.263962 260.60753 
L 318.559865 261.051089 
L 318.855768 262.298022 
L 319.151671 262.867014 
L 319.743477 265.718907 
L 320.631186 274.906345 
L 320.927089 275.859699 
L 321.518895 279.588317 
L 321.814799 282.782856 
L 322.110702 284.46484 
L 322.406605 285.392949 
L 322.702508 285.521046 
L 322.998411 285.508626 
L 323.294314 285.137626 
L 323.590217 283.397537 
L 323.88612 283.397537 
L 324.182023 278.863822 
L 324.477926 277.971333 
L 325.069732 274.19373 
L 325.661538 267.589994 
L 325.957441 265.066577 
L 326.253344 264.300939 
L 327.141053 260.626272 
L 327.436957 260.626272 
L 327.73286 261.826356 
L 328.028763 262.342267 
L 328.620569 265.101548 
L 328.916472 268.645218 
L 329.212375 270.584237 
L 330.100084 279.677036 
L 330.395987 279.677036 
L 330.69189 283.380816 
L 331.579599 288.252377 
L 331.875502 288.617798 
L 332.171405 288.617798 
L 332.763211 286.678106 
L 333.355018 281.919999 
L 333.650921 278.947076 
L 333.946824 278.947076 
L 334.242727 274.694262 
L 335.130436 267.548053 
L 335.426339 264.186181 
L 335.722242 263.493566 
L 336.018145 261.84521 
L 336.314048 260.921235 
L 336.905854 260.818636 
L 337.793563 264.319398 
L 338.089466 265.847407 
L 338.385369 268.420504 
L 338.681272 272.14602 
L 340.752594 285.102637 
L 341.048497 285.667677 
L 341.3444 285.94446 
L 341.640303 285.922379 
L 341.936206 285.600914 
L 342.232109 284.568304 
L 342.823915 280.782431 
L 343.415721 277.443581 
L 344.30343 269.709091 
L 345.19114 265.794052 
L 345.487043 264.484008 
L 345.782946 263.691346 
L 346.078849 263.738132 
L 346.374752 264.068599 
L 346.670655 264.659002 
L 346.966558 265.950823 
L 347.262461 268.24204 
L 348.446073 273.613026 
L 349.037879 277.932832 
L 349.333782 277.932832 
L 349.629685 279.914006 
L 350.517394 282.099458 
L 350.813297 282.139724 
L 351.109201 282.059193 
L 351.99691 279.78406 
L 352.292813 278.71334 
L 352.588716 278.359363 
L 353.772328 275.615837 
L 354.364134 275.244678 
L 354.95594 275.077137 
L 355.843649 275.265097 
L 357.323165 275.666885 
L 357.914971 275.50799 
L 358.210874 275.358623 
L 358.506777 274.919403 
L 358.80268 274.919403 
L 359.098583 273.771947 
L 359.394486 273.513338 
L 359.986292 272.276058 
L 360.282195 270.375975 
L 360.578098 270.375975 
L 360.874001 268.771248 
L 361.76171 266.840015 
L 362.057613 266.479554 
L 362.353516 266.306077 
L 363.241226 267.916119 
L 363.833032 269.480011 
L 364.720741 273.353192 
L 365.60845 275.445365 
L 365.904353 275.445365 
L 366.792062 273.943156 
L 367.087965 273.026522 
L 367.383868 270.808296 
L 367.679771 270.808296 
L 367.975674 267.31464 
L 368.271577 266.801369 
L 369.159287 264.306271 
L 369.45519 264.306271 
L 369.751093 264.857682 
L 370.046996 265.138261 
L 370.638802 266.684688 
L 370.934705 268.796983 
L 371.230608 268.796983 
L 371.526511 272.59319 
L 371.822414 273.265149 
L 372.41422 275.922707 
L 372.710123 278.363959 
L 373.597832 281.86794 
L 374.485542 282.70517 
L 374.781445 282.51383 
L 375.077348 282.17003 
L 375.669154 280.64573 
L 375.965057 280.64573 
L 376.26096 279.998048 
L 376.852766 279.634062 
L 377.444572 279.517329 
L 378.332281 279.575172 
L 379.21999 279.329642 
L 380.107699 278.812784 
L 381.587215 278.537854 
L 382.474924 278.404369 
L 382.770827 278.18206 
L 383.362633 277.159546 
L 383.954439 276.105402 
L 384.546245 274.307081 
L 384.842148 274.307081 
L 385.138051 273.924058 
L 385.433954 274.005268 
L 385.729857 274.260011 
L 386.02576 274.677704 
L 386.321664 275.570127 
L 386.617567 277.137959 
L 387.801179 280.985878 
L 388.392985 283.722553 
L 388.984791 284.385654 
L 389.280694 284.416511 
L 389.576597 284.210608 
L 389.8725 283.403691 
L 390.464306 280.217324 
L 391.647918 274.644568 
L 392.239725 270.776595 
L 392.831531 269.664906 
L 393.127434 269.479227 
L 393.423337 270.155688 
L 393.71924 270.155688 
L 394.311046 272.684117 
L 394.902852 274.889047 
L 395.198755 277.597828 
L 395.494658 277.597828 
L 395.790561 279.483286 
L 396.382367 280.981185 
L 396.67827 281.50537 
L 396.974173 281.779203 
L 397.270076 281.669275 
L 398.453689 277.85824 
L 399.045495 273.904552 
L 399.341398 272.375423 
L 399.637301 271.9377 
L 400.229107 270.641517 
L 400.52501 270.273372 
L 400.820913 270.590208 
L 401.116816 271.265191 
L 401.412719 271.544362 
L 402.004525 272.790222 
L 402.300428 274.032468 
L 402.892234 275.329175 
L 403.779944 275.849181 
L 404.37175 276.481199 
L 404.667653 277.114482 
L 404.963556 277.381304 
L 405.555362 278.589182 
L 405.851265 279.713836 
L 406.738974 280.900927 
L 407.33078 280.968288 
L 407.626683 280.615096 
L 407.922586 279.996542 
L 408.218489 279.103621 
L 408.514392 278.761803 
L 409.106198 277.310892 
L 409.402101 275.971033 
L 410.289811 274.557309 
L 410.585714 274.393159 
L 411.17752 274.398437 
L 411.473423 274.545886 
L 411.769326 275.067819 
L 412.361132 277.321102 
L 412.657035 277.321102 
L 412.952938 279.339817 
L 413.840647 282.068224 
L 414.432453 282.133367 
L 415.024259 280.885167 
L 415.616066 278.468604 
L 415.911969 278.026409 
L 416.207872 277.149613 
L 416.503775 275.48667 
L 417.391484 273.281491 
L 417.98329 273.003159 
L 418.575096 273.760217 
L 419.166902 275.5783 
L 419.462805 275.87638 
L 420.350514 277.288817 
L 421.238223 277.011371 
L 421.534127 276.800655 
L 421.83003 276.266074 
L 422.125933 276.266074 
L 422.421836 275.24175 
L 422.717739 275.03484 
L 423.309545 274.152666 
L 423.605448 273.439992 
L 423.901351 273.316223 
L 424.78906 274.776666 
L 425.084963 275.78585 
L 425.676769 280.538343 
L 425.972672 282.566618 
L 426.268575 283.189298 
L 427.748091 288.48824 
L 428.043994 288.904738 
L 428.6358 290.988578 
L 428.931703 294.059613 
L 429.227606 294.059613 
L 429.523509 296.359354 
L 430.115315 298.143292 
L 430.707121 299.488929 
L 431.003024 299.703068 
L 431.298927 299.489658 
L 431.59483 299.023524 
L 432.186636 297.286662 
L 432.186636 297.286662 
" clip-path="url(#p26be4e8a4b)" style="fill: none; stroke: #008000; stroke-width: 1.5; stroke-linecap: square"/>
   </g>
   <g id="patch_13">
    <path d="M 58.106 301.9975 
L 58.106 251.52 
" style="fill: none; stroke: #000000; stroke-width: 0.8; stroke-linejoin: miter; stroke-linecap: square"/>
   </g>
   <g id="patch_14">
    <path d="M 450 301.9975 
L 450 251.52 
" style="fill: none; stroke: #000000; stroke-width: 0.8; stroke-linejoin: miter; stroke-linecap: square"/>
   </g>
   <g id="patch_15">
    <path d="M 58.106 301.9975 
L 450 301.9975 
" style="fill: none; stroke: #000000; stroke-width: 0.8; stroke-linejoin: miter; stroke-linecap: square"/>
   </g>
   <g id="patch_16">
    <path d="M 58.106 251.52 
L 450 251.52 
" style="fill: none; stroke: #000000; stroke-width: 0.8; stroke-linejoin: miter; stroke-linecap: square"/>
   </g>
   <g id="text_38">
    <!-- Error in swing angle -->
    <g transform="translate(194.282688 245.52)scale(0.12 -0.12)">
     <defs>
      <path id="DejaVuSans-77" d="M 269 3500 
L 844 3500 
L 1563 769 
L 2278 3500 
L 2956 3500 
L 3675 769 
L 4391 3500 
L 4966 3500 
L 4050 0 
L 3372 0 
L 2619 2869 
L 1863 0 
L 1184 0 
L 269 3500 
z
" transform="scale(0.015625)"/>
      <path id="DejaVuSans-67" d="M 2906 1791 
Q 2906 2416 2648 2759 
Q 2391 3103 1925 3103 
Q 1463 3103 1205 2759 
Q 947 2416 947 1791 
Q 947 1169 1205 825 
Q 1463 481 1925 481 
Q 2391 481 2648 825 
Q 2906 1169 2906 1791 
z
M 3481 434 
Q 3481 -459 3084 -895 
Q 2688 -1331 1869 -1331 
Q 1566 -1331 1297 -1286 
Q 1028 -1241 775 -1147 
L 775 -588 
Q 1028 -725 1275 -790 
Q 1522 -856 1778 -856 
Q 2344 -856 2625 -561 
Q 2906 -266 2906 331 
L 2906 616 
Q 2728 306 2450 153 
Q 2172 0 1784 0 
Q 1141 0 747 490 
Q 353 981 353 1791 
Q 353 2603 747 3093 
Q 1141 3584 1784 3584 
Q 2172 3584 2450 3431 
Q 2728 3278 2906 2969 
L 2906 3500 
L 3481 3500 
L 3481 434 
z
" transform="scale(0.015625)"/>
      <path id="DejaVuSans-6c" d="M 603 4863 
L 1178 4863 
L 1178 0 
L 603 0 
L 603 4863 
z
" transform="scale(0.015625)"/>
      <path id="DejaVuSans-65" d="M 3597 1894 
L 3597 1613 
L 953 1613 
Q 991 1019 1311 708 
Q 1631 397 2203 397 
Q 2534 397 2845 478 
Q 3156 559 3463 722 
L 3463 178 
Q 3153 47 2828 -22 
Q 2503 -91 2169 -91 
Q 1331 -91 842 396 
Q 353 884 353 1716 
Q 353 2575 817 3079 
Q 1281 3584 2069 3584 
Q 2775 3584 3186 3129 
Q 3597 2675 3597 1894 
z
M 3022 2063 
Q 3016 2534 2758 2815 
Q 2500 3097 2075 3097 
Q 1594 3097 1305 2825 
Q 1016 2553 972 2059 
L 3022 2063 
z
" transform="scale(0.015625)"/>
     </defs>
     <use xlink:href="#DejaVuSans-45"/>
     <use xlink:href="#DejaVuSans-72" x="63.183594"/>
     <use xlink:href="#DejaVuSans-72" x="102.546875"/>
     <use xlink:href="#DejaVuSans-6f" x="141.410156"/>
     <use xlink:href="#DejaVuSans-72" x="202.591797"/>
     <use xlink:href="#DejaVuSans-20" x="243.705078"/>
     <use xlink:href="#DejaVuSans-69" x="275.492188"/>
     <use xlink:href="#DejaVuSans-6e" x="303.275391"/>
     <use xlink:href="#DejaVuSans-20" x="366.654297"/>
     <use xlink:href="#DejaVuSans-73" x="398.441406"/>
     <use xlink:href="#DejaVuSans-77" x="450.541016"/>
     <use xlink:href="#DejaVuSans-69" x="532.328125"/>
     <use xlink:href="#DejaVuSans-6e" x="560.111328"/>
     <use xlink:href="#DejaVuSans-67" x="623.490234"/>
     <use xlink:href="#DejaVuSans-20" x="686.966797"/>
     <use xlink:href="#DejaVuSans-61" x="718.753906"/>
     <use xlink:href="#DejaVuSans-6e" x="780.033203"/>
     <use xlink:href="#DejaVuSans-67" x="843.412109"/>
     <use xlink:href="#DejaVuSans-6c" x="906.888672"/>
     <use xlink:href="#DejaVuSans-65" x="934.671875"/>
    </g>
   </g>
  </g>
 </g>
 <defs>
  <clipPath id="p6d99738587">
   <rect x="58.106" y="28.32" width="391.894" height="50.4775"/>
  </clipPath>
  <clipPath id="pf10d5d72bc">
   <rect x="58.106" y="139.92" width="391.894" height="50.4775"/>
  </clipPath>
  <clipPath id="p26be4e8a4b">
   <rect x="58.106" y="251.52" width="391.894" height="50.4775"/>
  </clipPath>
 </defs>
</svg>
