<?xml version="1.0" encoding="utf-8" standalone="no"?>
<!DOCTYPE svg PUBLIC "-//W3C//DTD SVG 1.1//EN"
  "http://www.w3.org/Graphics/SVG/1.1/DTD/svg11.dtd">
<svg xmlns:xlink="http://www.w3.org/1999/xlink" width="460.8pt" height="345.6pt" viewBox="0 0 460.8 345.6" xmlns="http://www.w3.org/2000/svg" version="1.1">
 <metadata>
  <rdf:RDF xmlns:dc="http://purl.org/dc/elements/1.1/" xmlns:cc="http://creativecommons.org/ns#" xmlns:rdf="http://www.w3.org/1999/02/22-rdf-syntax-ns#">
   <cc:Work>
    <dc:type rdf:resource="http://purl.org/dc/dcmitype/StillImage"/>
    <dc:date>2022-06-05T18:23:04.576959</dc:date>
    <dc:format>image/svg+xml</dc:format>
    <dc:creator>
     <cc:Agent>
      <dc:title>Matplotlib v3.5.1, https://matplotlib.org/</dc:title>
     </cc:Agent>
    </dc:creator>
   </cc:Work>
  </rdf:RDF>
 </metadata>
 <defs>
  <style type="text/css">*{stroke-linejoin: round; stroke-linecap: butt}</style>
 </defs>
 <g id="figure_1">
  <g id="patch_1">
   <path d="M 0 345.6 
L 460.8 345.6 
L 460.8 0 
L 0 0 
z
" style="fill: #ffffff"/>
  </g>
  <g id="axes_1">
   <g id="patch_2">
    <path d="M 55.946 78.7975 
L 450 78.7975 
L 450 28.32 
L 55.946 28.32 
z
" style="fill: #ffffff"/>
   </g>
   <g id="matplotlib.axis_1">
    <g id="xtick_1">
     <g id="line2d_1">
      <path d="M 73.857545 78.7975 
L 73.857545 28.32 
" clip-path="url(#pa6103323df)" style="fill: none; stroke: #b0b0b0; stroke-width: 0.8; stroke-linecap: square"/>
     </g>
     <g id="line2d_2">
      <defs>
       <path id="me4fb83420b" d="M 0 0 
L 0 3.5 
" style="stroke: #000000; stroke-width: 0.8"/>
      </defs>
      <g>
       <use xlink:href="#me4fb83420b" x="73.857545" y="78.7975" style="stroke: #000000; stroke-width: 0.8"/>
      </g>
     </g>
     <g id="text_1">
      <!-- 0 -->
      <g transform="translate(70.676295 93.395937)scale(0.1 -0.1)">
       <defs>
        <path id="DejaVuSans-30" d="M 2034 4250 
Q 1547 4250 1301 3770 
Q 1056 3291 1056 2328 
Q 1056 1369 1301 889 
Q 1547 409 2034 409 
Q 2525 409 2770 889 
Q 3016 1369 3016 2328 
Q 3016 3291 2770 3770 
Q 2525 4250 2034 4250 
z
M 2034 4750 
Q 2819 4750 3233 4129 
Q 3647 3509 3647 2328 
Q 3647 1150 3233 529 
Q 2819 -91 2034 -91 
Q 1250 -91 836 529 
Q 422 1150 422 2328 
Q 422 3509 836 4129 
Q 1250 4750 2034 4750 
z
" transform="scale(0.015625)"/>
       </defs>
       <use xlink:href="#DejaVuSans-30"/>
      </g>
     </g>
    </g>
    <g id="xtick_2">
     <g id="line2d_3">
      <path d="M 127.807984 78.7975 
L 127.807984 28.32 
" clip-path="url(#pa6103323df)" style="fill: none; stroke: #b0b0b0; stroke-width: 0.8; stroke-linecap: square"/>
     </g>
     <g id="line2d_4">
      <g>
       <use xlink:href="#me4fb83420b" x="127.807984" y="78.7975" style="stroke: #000000; stroke-width: 0.8"/>
      </g>
     </g>
     <g id="text_2">
      <!-- 1 -->
      <g transform="translate(124.626734 93.395937)scale(0.1 -0.1)">
       <defs>
        <path id="DejaVuSans-31" d="M 794 531 
L 1825 531 
L 1825 4091 
L 703 3866 
L 703 4441 
L 1819 4666 
L 2450 4666 
L 2450 531 
L 3481 531 
L 3481 0 
L 794 0 
L 794 531 
z
" transform="scale(0.015625)"/>
       </defs>
       <use xlink:href="#DejaVuSans-31"/>
      </g>
     </g>
    </g>
    <g id="xtick_3">
     <g id="line2d_5">
      <path d="M 181.758422 78.7975 
L 181.758422 28.32 
" clip-path="url(#pa6103323df)" style="fill: none; stroke: #b0b0b0; stroke-width: 0.8; stroke-linecap: square"/>
     </g>
     <g id="line2d_6">
      <g>
       <use xlink:href="#me4fb83420b" x="181.758422" y="78.7975" style="stroke: #000000; stroke-width: 0.8"/>
      </g>
     </g>
     <g id="text_3">
      <!-- 2 -->
      <g transform="translate(178.577172 93.395937)scale(0.1 -0.1)">
       <defs>
        <path id="DejaVuSans-32" d="M 1228 531 
L 3431 531 
L 3431 0 
L 469 0 
L 469 531 
Q 828 903 1448 1529 
Q 2069 2156 2228 2338 
Q 2531 2678 2651 2914 
Q 2772 3150 2772 3378 
Q 2772 3750 2511 3984 
Q 2250 4219 1831 4219 
Q 1534 4219 1204 4116 
Q 875 4013 500 3803 
L 500 4441 
Q 881 4594 1212 4672 
Q 1544 4750 1819 4750 
Q 2544 4750 2975 4387 
Q 3406 4025 3406 3419 
Q 3406 3131 3298 2873 
Q 3191 2616 2906 2266 
Q 2828 2175 2409 1742 
Q 1991 1309 1228 531 
z
" transform="scale(0.015625)"/>
       </defs>
       <use xlink:href="#DejaVuSans-32"/>
      </g>
     </g>
    </g>
    <g id="xtick_4">
     <g id="line2d_7">
      <path d="M 235.70886 78.7975 
L 235.70886 28.32 
" clip-path="url(#pa6103323df)" style="fill: none; stroke: #b0b0b0; stroke-width: 0.8; stroke-linecap: square"/>
     </g>
     <g id="line2d_8">
      <g>
       <use xlink:href="#me4fb83420b" x="235.70886" y="78.7975" style="stroke: #000000; stroke-width: 0.8"/>
      </g>
     </g>
     <g id="text_4">
      <!-- 3 -->
      <g transform="translate(232.52761 93.395937)scale(0.1 -0.1)">
       <defs>
        <path id="DejaVuSans-33" d="M 2597 2516 
Q 3050 2419 3304 2112 
Q 3559 1806 3559 1356 
Q 3559 666 3084 287 
Q 2609 -91 1734 -91 
Q 1441 -91 1130 -33 
Q 819 25 488 141 
L 488 750 
Q 750 597 1062 519 
Q 1375 441 1716 441 
Q 2309 441 2620 675 
Q 2931 909 2931 1356 
Q 2931 1769 2642 2001 
Q 2353 2234 1838 2234 
L 1294 2234 
L 1294 2753 
L 1863 2753 
Q 2328 2753 2575 2939 
Q 2822 3125 2822 3475 
Q 2822 3834 2567 4026 
Q 2313 4219 1838 4219 
Q 1578 4219 1281 4162 
Q 984 4106 628 3988 
L 628 4550 
Q 988 4650 1302 4700 
Q 1616 4750 1894 4750 
Q 2613 4750 3031 4423 
Q 3450 4097 3450 3541 
Q 3450 3153 3228 2886 
Q 3006 2619 2597 2516 
z
" transform="scale(0.015625)"/>
       </defs>
       <use xlink:href="#DejaVuSans-33"/>
      </g>
     </g>
    </g>
    <g id="xtick_5">
     <g id="line2d_9">
      <path d="M 289.659298 78.7975 
L 289.659298 28.32 
" clip-path="url(#pa6103323df)" style="fill: none; stroke: #b0b0b0; stroke-width: 0.8; stroke-linecap: square"/>
     </g>
     <g id="line2d_10">
      <g>
       <use xlink:href="#me4fb83420b" x="289.659298" y="78.7975" style="stroke: #000000; stroke-width: 0.8"/>
      </g>
     </g>
     <g id="text_5">
      <!-- 4 -->
      <g transform="translate(286.478048 93.395937)scale(0.1 -0.1)">
       <defs>
        <path id="DejaVuSans-34" d="M 2419 4116 
L 825 1625 
L 2419 1625 
L 2419 4116 
z
M 2253 4666 
L 3047 4666 
L 3047 1625 
L 3713 1625 
L 3713 1100 
L 3047 1100 
L 3047 0 
L 2419 0 
L 2419 1100 
L 313 1100 
L 313 1709 
L 2253 4666 
z
" transform="scale(0.015625)"/>
       </defs>
       <use xlink:href="#DejaVuSans-34"/>
      </g>
     </g>
    </g>
    <g id="xtick_6">
     <g id="line2d_11">
      <path d="M 343.609736 78.7975 
L 343.609736 28.32 
" clip-path="url(#pa6103323df)" style="fill: none; stroke: #b0b0b0; stroke-width: 0.8; stroke-linecap: square"/>
     </g>
     <g id="line2d_12">
      <g>
       <use xlink:href="#me4fb83420b" x="343.609736" y="78.7975" style="stroke: #000000; stroke-width: 0.8"/>
      </g>
     </g>
     <g id="text_6">
      <!-- 5 -->
      <g transform="translate(340.428486 93.395937)scale(0.1 -0.1)">
       <defs>
        <path id="DejaVuSans-35" d="M 691 4666 
L 3169 4666 
L 3169 4134 
L 1269 4134 
L 1269 2991 
Q 1406 3038 1543 3061 
Q 1681 3084 1819 3084 
Q 2600 3084 3056 2656 
Q 3513 2228 3513 1497 
Q 3513 744 3044 326 
Q 2575 -91 1722 -91 
Q 1428 -91 1123 -41 
Q 819 9 494 109 
L 494 744 
Q 775 591 1075 516 
Q 1375 441 1709 441 
Q 2250 441 2565 725 
Q 2881 1009 2881 1497 
Q 2881 1984 2565 2268 
Q 2250 2553 1709 2553 
Q 1456 2553 1204 2497 
Q 953 2441 691 2322 
L 691 4666 
z
" transform="scale(0.015625)"/>
       </defs>
       <use xlink:href="#DejaVuSans-35"/>
      </g>
     </g>
    </g>
    <g id="xtick_7">
     <g id="line2d_13">
      <path d="M 397.560174 78.7975 
L 397.560174 28.32 
" clip-path="url(#pa6103323df)" style="fill: none; stroke: #b0b0b0; stroke-width: 0.8; stroke-linecap: square"/>
     </g>
     <g id="line2d_14">
      <g>
       <use xlink:href="#me4fb83420b" x="397.560174" y="78.7975" style="stroke: #000000; stroke-width: 0.8"/>
      </g>
     </g>
     <g id="text_7">
      <!-- 6 -->
      <g transform="translate(394.378924 93.395937)scale(0.1 -0.1)">
       <defs>
        <path id="DejaVuSans-36" d="M 2113 2584 
Q 1688 2584 1439 2293 
Q 1191 2003 1191 1497 
Q 1191 994 1439 701 
Q 1688 409 2113 409 
Q 2538 409 2786 701 
Q 3034 994 3034 1497 
Q 3034 2003 2786 2293 
Q 2538 2584 2113 2584 
z
M 3366 4563 
L 3366 3988 
Q 3128 4100 2886 4159 
Q 2644 4219 2406 4219 
Q 1781 4219 1451 3797 
Q 1122 3375 1075 2522 
Q 1259 2794 1537 2939 
Q 1816 3084 2150 3084 
Q 2853 3084 3261 2657 
Q 3669 2231 3669 1497 
Q 3669 778 3244 343 
Q 2819 -91 2113 -91 
Q 1303 -91 875 529 
Q 447 1150 447 2328 
Q 447 3434 972 4092 
Q 1497 4750 2381 4750 
Q 2619 4750 2861 4703 
Q 3103 4656 3366 4563 
z
" transform="scale(0.015625)"/>
       </defs>
       <use xlink:href="#DejaVuSans-36"/>
      </g>
     </g>
    </g>
    <g id="text_8">
     <!-- $t$ [s] -->
     <g transform="translate(242.873 107.074062)scale(0.1 -0.1)">
      <defs>
       <path id="DejaVuSans-Oblique-74" d="M 2706 3500 
L 2619 3053 
L 1472 3053 
L 1100 1153 
Q 1081 1047 1072 975 
Q 1063 903 1063 863 
Q 1063 663 1183 572 
Q 1303 481 1569 481 
L 2150 481 
L 2053 0 
L 1503 0 
Q 991 0 739 200 
Q 488 400 488 806 
Q 488 878 497 964 
Q 506 1050 525 1153 
L 897 3053 
L 409 3053 
L 500 3500 
L 978 3500 
L 1172 4494 
L 1747 4494 
L 1556 3500 
L 2706 3500 
z
" transform="scale(0.015625)"/>
       <path id="DejaVuSans-20" transform="scale(0.015625)"/>
       <path id="DejaVuSans-5b" d="M 550 4863 
L 1875 4863 
L 1875 4416 
L 1125 4416 
L 1125 -397 
L 1875 -397 
L 1875 -844 
L 550 -844 
L 550 4863 
z
" transform="scale(0.015625)"/>
       <path id="DejaVuSans-73" d="M 2834 3397 
L 2834 2853 
Q 2591 2978 2328 3040 
Q 2066 3103 1784 3103 
Q 1356 3103 1142 2972 
Q 928 2841 928 2578 
Q 928 2378 1081 2264 
Q 1234 2150 1697 2047 
L 1894 2003 
Q 2506 1872 2764 1633 
Q 3022 1394 3022 966 
Q 3022 478 2636 193 
Q 2250 -91 1575 -91 
Q 1294 -91 989 -36 
Q 684 19 347 128 
L 347 722 
Q 666 556 975 473 
Q 1284 391 1588 391 
Q 1994 391 2212 530 
Q 2431 669 2431 922 
Q 2431 1156 2273 1281 
Q 2116 1406 1581 1522 
L 1381 1569 
Q 847 1681 609 1914 
Q 372 2147 372 2553 
Q 372 3047 722 3315 
Q 1072 3584 1716 3584 
Q 2034 3584 2315 3537 
Q 2597 3491 2834 3397 
z
" transform="scale(0.015625)"/>
       <path id="DejaVuSans-5d" d="M 1947 4863 
L 1947 -844 
L 622 -844 
L 622 -397 
L 1369 -397 
L 1369 4416 
L 622 4416 
L 622 4863 
L 1947 4863 
z
" transform="scale(0.015625)"/>
      </defs>
      <use xlink:href="#DejaVuSans-Oblique-74" transform="translate(0 0.015625)"/>
      <use xlink:href="#DejaVuSans-20" transform="translate(39.208984 0.015625)"/>
      <use xlink:href="#DejaVuSans-5b" transform="translate(70.996094 0.015625)"/>
      <use xlink:href="#DejaVuSans-73" transform="translate(110.009766 0.015625)"/>
      <use xlink:href="#DejaVuSans-5d" transform="translate(162.109375 0.015625)"/>
     </g>
    </g>
   </g>
   <g id="matplotlib.axis_2">
    <g id="ytick_1">
     <g id="line2d_15">
      <path d="M 55.946 71.629084 
L 450 71.629084 
" clip-path="url(#pa6103323df)" style="fill: none; stroke: #b0b0b0; stroke-width: 0.8; stroke-linecap: square"/>
     </g>
     <g id="line2d_16">
      <defs>
       <path id="m966212bbb4" d="M 0 0 
L -3.5 0 
" style="stroke: #000000; stroke-width: 0.8"/>
      </defs>
      <g>
       <use xlink:href="#m966212bbb4" x="55.946" y="71.629084" style="stroke: #000000; stroke-width: 0.8"/>
      </g>
     </g>
     <g id="text_9">
      <!-- 0 -->
      <g transform="translate(42.5835 75.428303)scale(0.1 -0.1)">
       <use xlink:href="#DejaVuSans-30"/>
      </g>
     </g>
    </g>
    <g id="ytick_2">
     <g id="line2d_17">
      <path d="M 55.946 30.614479 
L 450 30.614479 
" clip-path="url(#pa6103323df)" style="fill: none; stroke: #b0b0b0; stroke-width: 0.8; stroke-linecap: square"/>
     </g>
     <g id="line2d_18">
      <g>
       <use xlink:href="#m966212bbb4" x="55.946" y="30.614479" style="stroke: #000000; stroke-width: 0.8"/>
      </g>
     </g>
     <g id="text_10">
      <!-- 10 -->
      <g transform="translate(36.221 34.413698)scale(0.1 -0.1)">
       <use xlink:href="#DejaVuSans-31"/>
       <use xlink:href="#DejaVuSans-30" x="63.623047"/>
      </g>
     </g>
    </g>
    <g id="text_11">
     <!-- $e_x$ [m] -->
     <g transform="translate(30.141313 69.20875)rotate(-90)scale(0.1 -0.1)">
      <defs>
       <path id="DejaVuSans-Oblique-65" d="M 3078 2063 
Q 3088 2113 3092 2166 
Q 3097 2219 3097 2272 
Q 3097 2653 2873 2875 
Q 2650 3097 2266 3097 
Q 1838 3097 1509 2826 
Q 1181 2556 1013 2059 
L 3078 2063 
z
M 3578 1613 
L 903 1613 
Q 884 1494 878 1425 
Q 872 1356 872 1306 
Q 872 872 1139 634 
Q 1406 397 1894 397 
Q 2269 397 2603 481 
Q 2938 566 3225 728 
L 3116 159 
Q 2806 34 2476 -28 
Q 2147 -91 1806 -91 
Q 1078 -91 686 257 
Q 294 606 294 1247 
Q 294 1794 489 2264 
Q 684 2734 1063 3103 
Q 1306 3334 1642 3459 
Q 1978 3584 2356 3584 
Q 2950 3584 3301 3228 
Q 3653 2872 3653 2272 
Q 3653 2128 3634 1964 
Q 3616 1800 3578 1613 
z
" transform="scale(0.015625)"/>
       <path id="DejaVuSans-Oblique-78" d="M 3841 3500 
L 2234 1784 
L 3219 0 
L 2559 0 
L 1819 1388 
L 531 0 
L -166 0 
L 1556 1844 
L 641 3500 
L 1300 3500 
L 1972 2234 
L 3144 3500 
L 3841 3500 
z
" transform="scale(0.015625)"/>
       <path id="DejaVuSans-6d" d="M 3328 2828 
Q 3544 3216 3844 3400 
Q 4144 3584 4550 3584 
Q 5097 3584 5394 3201 
Q 5691 2819 5691 2113 
L 5691 0 
L 5113 0 
L 5113 2094 
Q 5113 2597 4934 2840 
Q 4756 3084 4391 3084 
Q 3944 3084 3684 2787 
Q 3425 2491 3425 1978 
L 3425 0 
L 2847 0 
L 2847 2094 
Q 2847 2600 2669 2842 
Q 2491 3084 2119 3084 
Q 1678 3084 1418 2786 
Q 1159 2488 1159 1978 
L 1159 0 
L 581 0 
L 581 3500 
L 1159 3500 
L 1159 2956 
Q 1356 3278 1631 3431 
Q 1906 3584 2284 3584 
Q 2666 3584 2933 3390 
Q 3200 3197 3328 2828 
z
" transform="scale(0.015625)"/>
      </defs>
      <use xlink:href="#DejaVuSans-Oblique-65" transform="translate(0 0.015625)"/>
      <use xlink:href="#DejaVuSans-Oblique-78" transform="translate(61.523438 -16.390625)scale(0.7)"/>
      <use xlink:href="#DejaVuSans-20" transform="translate(105.683594 0.015625)"/>
      <use xlink:href="#DejaVuSans-5b" transform="translate(137.470703 0.015625)"/>
      <use xlink:href="#DejaVuSans-6d" transform="translate(176.484375 0.015625)"/>
      <use xlink:href="#DejaVuSans-5d" transform="translate(273.896484 0.015625)"/>
     </g>
    </g>
   </g>
   <g id="line2d_19">
    <path d="M 73.857545 30.614479 
L 87.365498 30.716599 
L 93.849316 30.955159 
L 104.655678 31.699893 
L 106.81695 31.896428 
L 111.139495 32.332289 
L 112.76045 32.52176 
L 116.002358 32.925024 
L 118.703949 33.275381 
L 119.244267 33.275381 
L 120.865221 33.500689 
L 124.10713 33.942582 
L 128.429675 34.571082 
L 131.671584 35.072715 
L 133.832856 35.457771 
L 135.994128 35.784021 
L 137.074765 36.007276 
L 138.695719 36.273654 
L 139.776355 36.507121 
L 143.018264 37.029473 
L 144.639218 37.446802 
L 146.260173 37.660555 
L 146.800491 37.8777 
L 147.340809 37.8777 
L 148.421445 38.142756 
L 150.582718 38.549481 
L 151.663354 38.826699 
L 152.74399 39.014195 
L 153.284308 39.251568 
L 153.824626 39.251568 
L 154.905262 39.540799 
L 155.985899 39.73626 
L 156.526217 39.983527 
L 157.066535 39.983527 
L 157.606853 40.183676 
L 158.687489 40.385889 
L 159.768125 40.693036 
L 161.929398 41.162248 
L 162.469716 41.374001 
L 163.550352 41.587705 
L 164.09067 41.803338 
L 164.630988 41.803338 
L 165.711625 42.130346 
L 167.332579 42.51715 
L 168.413215 42.853134 
L 170.574488 43.364577 
L 171.655124 43.710383 
L 173.816396 44.236126 
L 174.897033 44.591171 
L 176.517987 45.009846 
L 177.058305 45.25119 
L 177.598623 45.25119 
L 178.679259 45.615998 
L 179.759896 45.922508 
L 180.300214 46.169321 
L 180.840532 46.169321 
L 181.38085 46.41753 
L 183.001804 46.855183 
L 183.542122 47.107116 
L 184.082441 47.107116 
L 184.622759 47.360358 
L 186.243713 47.80663 
L 186.784031 48.063384 
L 187.324349 48.063384 
L 187.864667 48.321381 
L 189.485622 48.775836 
L 190.02594 49.037192 
L 190.566258 49.037192 
L 191.106576 49.299748 
L 192.72753 49.762096 
L 193.267848 50.027927 
L 196.509757 50.900059 
L 197.050075 51.170929 
L 199.211348 51.784772 
L 199.751666 52.059556 
L 200.291984 52.059556 
L 200.832302 52.33556 
L 202.453256 52.821541 
L 202.993575 53.10096 
L 203.533893 53.10096 
L 204.074211 53.381642 
L 206.235483 54.017856 
L 206.775801 54.302724 
L 209.477392 55.092897 
L 210.01771 55.38273 
L 212.719301 56.186723 
L 213.259619 56.48163 
L 215.420891 57.150167 
L 215.961209 57.449522 
L 216.501527 57.449522 
L 217.041845 57.750247 
L 218.122482 58.128086 
L 219.203118 58.584322 
L 219.743436 58.584322 
L 220.283754 58.890193 
L 221.36439 59.274453 
L 222.445027 59.738376 
L 222.985345 59.738376 
L 223.525663 60.049352 
L 225.146617 60.596803 
L 225.686935 60.911474 
L 226.227253 60.911474 
L 226.767572 61.227481 
L 227.30789 61.227481 
L 227.848208 61.703946 
L 228.928844 61.943216 
L 229.469162 62.103079 
L 230.00948 62.42353 
L 230.549798 62.42353 
L 231.090116 62.905603 
L 232.170753 63.147014 
L 232.711071 63.308007 
L 233.251389 63.629918 
L 234.332025 64.031692 
L 234.872343 64.272131 
L 235.952979 64.511885 
L 236.493298 64.830174 
L 237.573934 65.225198 
L 238.65457 65.693951 
L 239.194888 65.693951 
L 239.735206 66.002638 
L 240.815842 66.383594 
L 241.356161 66.609332 
L 242.436797 66.832807 
L 242.977115 67.127084 
L 244.057751 67.488682 
L 244.598069 67.702169 
L 245.678705 67.912953 
L 246.219024 68.189658 
L 246.759342 68.189658 
L 247.29966 68.595112 
L 248.380296 68.793418 
L 248.920614 68.923957 
L 250.00125 69.370213 
L 250.541568 69.556343 
L 251.622205 69.739384 
L 252.162523 69.859693 
L 253.243159 70.270061 
L 254.323795 70.497256 
L 256.485068 70.936377 
L 257.025386 71.252906 
L 258.64634 71.508622 
L 260.267295 71.99879 
L 261.888249 72.233449 
L 262.968885 72.505949 
L 264.589839 72.896023 
L 265.130158 72.896023 
L 266.210794 73.143492 
L 270.533339 73.8939 
L 271.613975 74.096315 
L 286.202564 75.754895 
L 297.549244 76.413816 
L 305.113698 76.489868 
L 312.678152 76.253348 
L 315.92006 76.057555 
L 317.541015 75.913981 
L 322.403878 75.505097 
L 324.56515 75.226872 
L 326.186104 75.05109 
L 329.428013 74.647249 
L 333.21024 74.159744 
L 336.992467 73.661926 
L 340.774693 73.119143 
L 342.395648 72.92789 
L 357.524555 71.528994 
L 362.927736 71.234076 
L 375.355053 70.904346 
L 388.322687 70.784723 
L 403.991913 70.761952 
L 414.798275 70.975835 
L 431.548136 71.423865 
L 432.088455 71.450022 
L 432.088455 71.450022 
" clip-path="url(#pa6103323df)" style="fill: none; stroke: #ff0000; stroke-width: 1.5; stroke-linecap: square"/>
   </g>
   <g id="patch_3">
    <path d="M 55.946 78.7975 
L 55.946 28.32 
" style="fill: none; stroke: #000000; stroke-width: 0.8; stroke-linejoin: miter; stroke-linecap: square"/>
   </g>
   <g id="patch_4">
    <path d="M 450 78.7975 
L 450 28.32 
" style="fill: none; stroke: #000000; stroke-width: 0.8; stroke-linejoin: miter; stroke-linecap: square"/>
   </g>
   <g id="patch_5">
    <path d="M 55.946 78.7975 
L 450 78.7975 
" style="fill: none; stroke: #000000; stroke-width: 0.8; stroke-linejoin: miter; stroke-linecap: square"/>
   </g>
   <g id="patch_6">
    <path d="M 55.946 28.32 
L 450 28.32 
" style="fill: none; stroke: #000000; stroke-width: 0.8; stroke-linejoin: miter; stroke-linecap: square"/>
   </g>
   <g id="text_12">
    <!-- Error in $x$-position -->
    <g transform="translate(199.333 22.32)scale(0.12 -0.12)">
     <defs>
      <path id="DejaVuSans-45" d="M 628 4666 
L 3578 4666 
L 3578 4134 
L 1259 4134 
L 1259 2753 
L 3481 2753 
L 3481 2222 
L 1259 2222 
L 1259 531 
L 3634 531 
L 3634 0 
L 628 0 
L 628 4666 
z
" transform="scale(0.015625)"/>
      <path id="DejaVuSans-72" d="M 2631 2963 
Q 2534 3019 2420 3045 
Q 2306 3072 2169 3072 
Q 1681 3072 1420 2755 
Q 1159 2438 1159 1844 
L 1159 0 
L 581 0 
L 581 3500 
L 1159 3500 
L 1159 2956 
Q 1341 3275 1631 3429 
Q 1922 3584 2338 3584 
Q 2397 3584 2469 3576 
Q 2541 3569 2628 3553 
L 2631 2963 
z
" transform="scale(0.015625)"/>
      <path id="DejaVuSans-6f" d="M 1959 3097 
Q 1497 3097 1228 2736 
Q 959 2375 959 1747 
Q 959 1119 1226 758 
Q 1494 397 1959 397 
Q 2419 397 2687 759 
Q 2956 1122 2956 1747 
Q 2956 2369 2687 2733 
Q 2419 3097 1959 3097 
z
M 1959 3584 
Q 2709 3584 3137 3096 
Q 3566 2609 3566 1747 
Q 3566 888 3137 398 
Q 2709 -91 1959 -91 
Q 1206 -91 779 398 
Q 353 888 353 1747 
Q 353 2609 779 3096 
Q 1206 3584 1959 3584 
z
" transform="scale(0.015625)"/>
      <path id="DejaVuSans-69" d="M 603 3500 
L 1178 3500 
L 1178 0 
L 603 0 
L 603 3500 
z
M 603 4863 
L 1178 4863 
L 1178 4134 
L 603 4134 
L 603 4863 
z
" transform="scale(0.015625)"/>
      <path id="DejaVuSans-6e" d="M 3513 2113 
L 3513 0 
L 2938 0 
L 2938 2094 
Q 2938 2591 2744 2837 
Q 2550 3084 2163 3084 
Q 1697 3084 1428 2787 
Q 1159 2491 1159 1978 
L 1159 0 
L 581 0 
L 581 3500 
L 1159 3500 
L 1159 2956 
Q 1366 3272 1645 3428 
Q 1925 3584 2291 3584 
Q 2894 3584 3203 3211 
Q 3513 2838 3513 2113 
z
" transform="scale(0.015625)"/>
      <path id="DejaVuSans-2d" d="M 313 2009 
L 1997 2009 
L 1997 1497 
L 313 1497 
L 313 2009 
z
" transform="scale(0.015625)"/>
      <path id="DejaVuSans-70" d="M 1159 525 
L 1159 -1331 
L 581 -1331 
L 581 3500 
L 1159 3500 
L 1159 2969 
Q 1341 3281 1617 3432 
Q 1894 3584 2278 3584 
Q 2916 3584 3314 3078 
Q 3713 2572 3713 1747 
Q 3713 922 3314 415 
Q 2916 -91 2278 -91 
Q 1894 -91 1617 61 
Q 1341 213 1159 525 
z
M 3116 1747 
Q 3116 2381 2855 2742 
Q 2594 3103 2138 3103 
Q 1681 3103 1420 2742 
Q 1159 2381 1159 1747 
Q 1159 1113 1420 752 
Q 1681 391 2138 391 
Q 2594 391 2855 752 
Q 3116 1113 3116 1747 
z
" transform="scale(0.015625)"/>
      <path id="DejaVuSans-74" d="M 1172 4494 
L 1172 3500 
L 2356 3500 
L 2356 3053 
L 1172 3053 
L 1172 1153 
Q 1172 725 1289 603 
Q 1406 481 1766 481 
L 2356 481 
L 2356 0 
L 1766 0 
Q 1100 0 847 248 
Q 594 497 594 1153 
L 594 3053 
L 172 3053 
L 172 3500 
L 594 3500 
L 594 4494 
L 1172 4494 
z
" transform="scale(0.015625)"/>
     </defs>
     <use xlink:href="#DejaVuSans-45" transform="translate(0 0.015625)"/>
     <use xlink:href="#DejaVuSans-72" transform="translate(63.183594 0.015625)"/>
     <use xlink:href="#DejaVuSans-72" transform="translate(104.296875 0.015625)"/>
     <use xlink:href="#DejaVuSans-6f" transform="translate(145.410156 0.015625)"/>
     <use xlink:href="#DejaVuSans-72" transform="translate(206.591797 0.015625)"/>
     <use xlink:href="#DejaVuSans-20" transform="translate(247.705078 0.015625)"/>
     <use xlink:href="#DejaVuSans-69" transform="translate(279.492188 0.015625)"/>
     <use xlink:href="#DejaVuSans-6e" transform="translate(307.275391 0.015625)"/>
     <use xlink:href="#DejaVuSans-20" transform="translate(370.654297 0.015625)"/>
     <use xlink:href="#DejaVuSans-Oblique-78" transform="translate(402.441406 0.015625)"/>
     <use xlink:href="#DejaVuSans-2d" transform="translate(461.621094 0.015625)"/>
     <use xlink:href="#DejaVuSans-70" transform="translate(497.705078 0.015625)"/>
     <use xlink:href="#DejaVuSans-6f" transform="translate(561.181641 0.015625)"/>
     <use xlink:href="#DejaVuSans-73" transform="translate(622.363281 0.015625)"/>
     <use xlink:href="#DejaVuSans-69" transform="translate(674.462891 0.015625)"/>
     <use xlink:href="#DejaVuSans-74" transform="translate(702.246094 0.015625)"/>
     <use xlink:href="#DejaVuSans-69" transform="translate(741.455078 0.015625)"/>
     <use xlink:href="#DejaVuSans-6f" transform="translate(769.238281 0.015625)"/>
     <use xlink:href="#DejaVuSans-6e" transform="translate(830.419922 0.015625)"/>
    </g>
   </g>
  </g>
  <g id="axes_2">
   <g id="patch_7">
    <path d="M 55.946 190.3975 
L 450 190.3975 
L 450 139.92 
L 55.946 139.92 
z
" style="fill: #ffffff"/>
   </g>
   <g id="matplotlib.axis_3">
    <g id="xtick_8">
     <g id="line2d_20">
      <path d="M 73.857545 190.3975 
L 73.857545 139.92 
" clip-path="url(#p35ec49c3d2)" style="fill: none; stroke: #b0b0b0; stroke-width: 0.8; stroke-linecap: square"/>
     </g>
     <g id="line2d_21">
      <g>
       <use xlink:href="#me4fb83420b" x="73.857545" y="190.3975" style="stroke: #000000; stroke-width: 0.8"/>
      </g>
     </g>
     <g id="text_13">
      <!-- 0 -->
      <g transform="translate(70.676295 204.995937)scale(0.1 -0.1)">
       <use xlink:href="#DejaVuSans-30"/>
      </g>
     </g>
    </g>
    <g id="xtick_9">
     <g id="line2d_22">
      <path d="M 127.807984 190.3975 
L 127.807984 139.92 
" clip-path="url(#p35ec49c3d2)" style="fill: none; stroke: #b0b0b0; stroke-width: 0.8; stroke-linecap: square"/>
     </g>
     <g id="line2d_23">
      <g>
       <use xlink:href="#me4fb83420b" x="127.807984" y="190.3975" style="stroke: #000000; stroke-width: 0.8"/>
      </g>
     </g>
     <g id="text_14">
      <!-- 1 -->
      <g transform="translate(124.626734 204.995937)scale(0.1 -0.1)">
       <use xlink:href="#DejaVuSans-31"/>
      </g>
     </g>
    </g>
    <g id="xtick_10">
     <g id="line2d_24">
      <path d="M 181.758422 190.3975 
L 181.758422 139.92 
" clip-path="url(#p35ec49c3d2)" style="fill: none; stroke: #b0b0b0; stroke-width: 0.8; stroke-linecap: square"/>
     </g>
     <g id="line2d_25">
      <g>
       <use xlink:href="#me4fb83420b" x="181.758422" y="190.3975" style="stroke: #000000; stroke-width: 0.8"/>
      </g>
     </g>
     <g id="text_15">
      <!-- 2 -->
      <g transform="translate(178.577172 204.995937)scale(0.1 -0.1)">
       <use xlink:href="#DejaVuSans-32"/>
      </g>
     </g>
    </g>
    <g id="xtick_11">
     <g id="line2d_26">
      <path d="M 235.70886 190.3975 
L 235.70886 139.92 
" clip-path="url(#p35ec49c3d2)" style="fill: none; stroke: #b0b0b0; stroke-width: 0.8; stroke-linecap: square"/>
     </g>
     <g id="line2d_27">
      <g>
       <use xlink:href="#me4fb83420b" x="235.70886" y="190.3975" style="stroke: #000000; stroke-width: 0.8"/>
      </g>
     </g>
     <g id="text_16">
      <!-- 3 -->
      <g transform="translate(232.52761 204.995937)scale(0.1 -0.1)">
       <use xlink:href="#DejaVuSans-33"/>
      </g>
     </g>
    </g>
    <g id="xtick_12">
     <g id="line2d_28">
      <path d="M 289.659298 190.3975 
L 289.659298 139.92 
" clip-path="url(#p35ec49c3d2)" style="fill: none; stroke: #b0b0b0; stroke-width: 0.8; stroke-linecap: square"/>
     </g>
     <g id="line2d_29">
      <g>
       <use xlink:href="#me4fb83420b" x="289.659298" y="190.3975" style="stroke: #000000; stroke-width: 0.8"/>
      </g>
     </g>
     <g id="text_17">
      <!-- 4 -->
      <g transform="translate(286.478048 204.995937)scale(0.1 -0.1)">
       <use xlink:href="#DejaVuSans-34"/>
      </g>
     </g>
    </g>
    <g id="xtick_13">
     <g id="line2d_30">
      <path d="M 343.609736 190.3975 
L 343.609736 139.92 
" clip-path="url(#p35ec49c3d2)" style="fill: none; stroke: #b0b0b0; stroke-width: 0.8; stroke-linecap: square"/>
     </g>
     <g id="line2d_31">
      <g>
       <use xlink:href="#me4fb83420b" x="343.609736" y="190.3975" style="stroke: #000000; stroke-width: 0.8"/>
      </g>
     </g>
     <g id="text_18">
      <!-- 5 -->
      <g transform="translate(340.428486 204.995937)scale(0.1 -0.1)">
       <use xlink:href="#DejaVuSans-35"/>
      </g>
     </g>
    </g>
    <g id="xtick_14">
     <g id="line2d_32">
      <path d="M 397.560174 190.3975 
L 397.560174 139.92 
" clip-path="url(#p35ec49c3d2)" style="fill: none; stroke: #b0b0b0; stroke-width: 0.8; stroke-linecap: square"/>
     </g>
     <g id="line2d_33">
      <g>
       <use xlink:href="#me4fb83420b" x="397.560174" y="190.3975" style="stroke: #000000; stroke-width: 0.8"/>
      </g>
     </g>
     <g id="text_19">
      <!-- 6 -->
      <g transform="translate(394.378924 204.995937)scale(0.1 -0.1)">
       <use xlink:href="#DejaVuSans-36"/>
      </g>
     </g>
    </g>
    <g id="text_20">
     <!-- $t$ [s] -->
     <g transform="translate(242.873 218.674062)scale(0.1 -0.1)">
      <use xlink:href="#DejaVuSans-Oblique-74" transform="translate(0 0.015625)"/>
      <use xlink:href="#DejaVuSans-20" transform="translate(39.208984 0.015625)"/>
      <use xlink:href="#DejaVuSans-5b" transform="translate(70.996094 0.015625)"/>
      <use xlink:href="#DejaVuSans-73" transform="translate(110.009766 0.015625)"/>
      <use xlink:href="#DejaVuSans-5d" transform="translate(162.109375 0.015625)"/>
     </g>
    </g>
   </g>
   <g id="matplotlib.axis_4">
    <g id="ytick_3">
     <g id="line2d_34">
      <path d="M 55.946 173.700304 
L 450 173.700304 
" clip-path="url(#p35ec49c3d2)" style="fill: none; stroke: #b0b0b0; stroke-width: 0.8; stroke-linecap: square"/>
     </g>
     <g id="line2d_35">
      <g>
       <use xlink:href="#m966212bbb4" x="55.946" y="173.700304" style="stroke: #000000; stroke-width: 0.8"/>
      </g>
     </g>
     <g id="text_21">
      <!-- 0.00 -->
      <g transform="translate(26.680375 177.499523)scale(0.1 -0.1)">
       <defs>
        <path id="DejaVuSans-2e" d="M 684 794 
L 1344 794 
L 1344 0 
L 684 0 
L 684 794 
z
" transform="scale(0.015625)"/>
       </defs>
       <use xlink:href="#DejaVuSans-30"/>
       <use xlink:href="#DejaVuSans-2e" x="63.623047"/>
       <use xlink:href="#DejaVuSans-30" x="95.410156"/>
       <use xlink:href="#DejaVuSans-30" x="159.033203"/>
      </g>
     </g>
    </g>
    <g id="ytick_4">
     <g id="line2d_36">
      <path d="M 55.946 144.941543 
L 450 144.941543 
" clip-path="url(#p35ec49c3d2)" style="fill: none; stroke: #b0b0b0; stroke-width: 0.8; stroke-linecap: square"/>
     </g>
     <g id="line2d_37">
      <g>
       <use xlink:href="#m966212bbb4" x="55.946" y="144.941543" style="stroke: #000000; stroke-width: 0.8"/>
      </g>
     </g>
     <g id="text_22">
      <!-- 0.05 -->
      <g transform="translate(26.680375 148.740761)scale(0.1 -0.1)">
       <use xlink:href="#DejaVuSans-30"/>
       <use xlink:href="#DejaVuSans-2e" x="63.623047"/>
       <use xlink:href="#DejaVuSans-30" x="95.410156"/>
       <use xlink:href="#DejaVuSans-35" x="159.033203"/>
      </g>
     </g>
    </g>
    <g id="text_23">
     <!-- $e_z$ [m] -->
     <g transform="translate(20.600688 180.60875)rotate(-90)scale(0.1 -0.1)">
      <defs>
       <path id="DejaVuSans-Oblique-7a" d="M 744 3500 
L 3475 3500 
L 3372 2975 
L 738 459 
L 2913 459 
L 2822 0 
L -19 0 
L 84 525 
L 2719 3041 
L 653 3041 
L 744 3500 
z
" transform="scale(0.015625)"/>
      </defs>
      <use xlink:href="#DejaVuSans-Oblique-65" transform="translate(0 0.015625)"/>
      <use xlink:href="#DejaVuSans-Oblique-7a" transform="translate(61.523438 -16.390625)scale(0.7)"/>
      <use xlink:href="#DejaVuSans-20" transform="translate(101.000977 0.015625)"/>
      <use xlink:href="#DejaVuSans-5b" transform="translate(132.788086 0.015625)"/>
      <use xlink:href="#DejaVuSans-6d" transform="translate(171.801758 0.015625)"/>
      <use xlink:href="#DejaVuSans-5d" transform="translate(269.213867 0.015625)"/>
     </g>
    </g>
   </g>
   <g id="line2d_38">
    <path d="M 73.857545 179.190855 
L 74.938182 178.830234 
L 75.4785 178.585271 
L 76.018818 178.585271 
L 76.559136 178.331455 
L 81.962317 177.104009 
L 82.502635 177.104009 
L 83.583271 176.829118 
L 85.744544 176.381446 
L 86.82518 176.075373 
L 88.446135 175.726356 
L 89.526771 175.447347 
L 96.010588 174.50391 
L 99.252497 174.430783 
L 101.413769 174.579969 
L 103.575042 174.94551 
L 104.655678 175.21225 
L 105.736314 175.604415 
L 107.357268 176.071013 
L 110.058859 177.290705 
L 111.139495 177.813272 
L 111.679813 178.241569 
L 113.841086 179.208866 
L 114.381404 179.627558 
L 114.921722 179.627558 
L 116.002358 180.320722 
L 116.542676 180.596912 
L 117.623313 180.857439 
L 118.163631 181.021646 
L 118.703949 181.395434 
L 119.244267 181.395434 
L 119.784585 181.653345 
L 123.026494 182.25391 
L 125.187766 182.3037 
L 127.349039 182.113009 
L 131.671584 181.175247 
L 133.292538 180.708686 
L 133.832856 180.427264 
L 135.994128 179.781737 
L 136.534447 179.498567 
L 138.695719 178.894624 
L 139.236037 178.647336 
L 144.639218 177.516901 
L 146.260173 177.381131 
L 147.340809 177.272012 
L 148.961763 177.144292 
L 172.195442 176.177979 
L 174.897033 176.381242 
L 176.517987 176.564325 
L 177.058305 176.690638 
L 177.598623 176.690638 
L 178.679259 176.906481 
L 179.759896 177.106946 
L 180.300214 177.277982 
L 180.840532 177.277982 
L 181.921168 177.546786 
L 183.001804 177.776832 
L 183.542122 177.961435 
L 184.082441 177.961435 
L 185.163077 178.233128 
L 186.243713 178.449313 
L 186.784031 178.611846 
L 187.324349 178.611846 
L 188.404985 178.8331 
L 193.267848 179.343775 
L 196.509757 179.326215 
L 201.912938 178.785682 
L 208.396756 177.723401 
L 217.041845 176.719464 
L 225.146617 176.442625 
L 227.848208 176.457134 
L 229.469162 176.5484 
L 232.170753 176.963769 
L 233.791707 177.277595 
L 235.412661 177.557572 
L 240.275524 178.149379 
L 241.896479 178.043306 
L 242.436797 177.961908 
L 245.678705 176.415402 
L 246.219024 175.705913 
L 246.759342 175.705913 
L 247.29966 174.423538 
L 247.839978 174.18483 
L 248.920614 173.163114 
L 250.00125 171.150089 
L 250.541568 170.222007 
L 251.081887 169.905939 
L 252.162523 168.618295 
L 252.702841 167.305424 
L 253.783477 165.291952 
L 254.323795 164.95016 
L 255.404432 163.563857 
L 255.94475 162.143436 
L 256.485068 162.143436 
L 257.025386 159.945117 
L 257.565704 159.571103 
L 258.64634 158.054891 
L 259.186658 156.512897 
L 260.267295 154.176595 
L 260.807613 153.787398 
L 261.888249 152.239413 
L 262.428567 150.720617 
L 262.968885 149.979787 
L 264.589839 146.892431 
L 265.130158 146.892431 
L 265.670476 145.702422 
L 267.29143 144.005384 
L 267.831748 143.307187 
L 268.912384 142.838217 
L 269.993021 142.627441 
L 270.533339 142.656238 
L 272.154293 143.61071 
L 272.694611 144.064629 
L 273.234929 144.917645 
L 273.775247 145.980618 
L 274.315565 146.380867 
L 274.855884 147.246717 
L 275.93652 150.856672 
L 276.476838 152.612001 
L 277.017156 153.216608 
L 278.097792 155.69692 
L 278.63811 158.831974 
L 279.178428 158.831974 
L 279.718747 161.272174 
L 281.880019 166.223021 
L 282.420337 168.084716 
L 284.041292 170.410748 
L 284.58161 171.058276 
L 285.662246 172.836994 
L 286.742882 173.524441 
L 288.363836 174.214315 
L 288.904155 174.363948 
L 290.525109 174.315129 
L 291.065427 174.239246 
L 291.605745 173.955208 
L 292.146063 173.955208 
L 292.686381 173.656753 
L 294.307336 173.145241 
L 294.847654 172.709909 
L 295.387972 172.709909 
L 295.92829 172.384016 
L 299.170199 171.599203 
L 300.791153 171.557521 
L 302.952425 171.933334 
L 304.033062 172.199569 
L 304.57338 172.517866 
L 305.654016 172.9693 
L 306.734652 173.558355 
L 307.27497 173.558355 
L 307.815288 173.959649 
L 309.436243 174.638411 
L 309.976561 174.99544 
L 312.678152 175.731583 
L 315.379742 176.272954 
L 317.541015 176.348747 
L 320.242605 176.195681 
L 320.782923 176.058198 
L 325.105468 175.988518 
L 326.186104 176.212333 
L 327.266741 176.524167 
L 328.347377 177.067091 
L 328.887695 177.067091 
L 330.508649 178.394408 
L 331.048967 178.554951 
L 332.129604 179.243397 
L 332.669922 179.996357 
L 333.750558 180.800791 
L 334.290876 181.430982 
L 334.831194 182.293704 
L 335.371512 182.293704 
L 335.91183 183.164104 
L 336.992467 184.022659 
L 338.073103 185.433784 
L 338.613421 185.433784 
L 339.153739 186.153021 
L 340.234375 186.930476 
L 340.774693 187.315688 
L 341.85533 187.631338 
L 342.395648 187.934286 
L 343.476284 188.103068 
L 345.097238 187.966948 
L 345.637556 187.658597 
L 346.177875 187.658597 
L 346.718193 186.858013 
L 347.258511 186.683292 
L 348.339147 185.866444 
L 348.879465 184.858708 
L 349.419783 184.858708 
L 349.960101 183.022815 
L 350.500419 182.680356 
L 352.121374 180.43133 
L 352.661692 179.19958 
L 353.20201 177.479608 
L 355.363282 173.849117 
L 355.903601 172.420351 
L 356.443919 170.449564 
L 357.524555 168.401899 
L 358.064873 166.815544 
L 358.605191 164.637257 
L 359.145509 164.637257 
L 359.685827 162.397656 
L 360.766464 160.115301 
L 361.306782 158.391065 
L 361.8471 156.099932 
L 362.387418 156.099932 
L 362.927736 153.848435 
L 364.008372 151.672813 
L 364.54869 150.116842 
L 365.089009 148.180733 
L 366.709963 145.661003 
L 367.250281 144.94529 
L 368.330917 143.029663 
L 368.871235 143.029663 
L 369.411553 142.414152 
L 369.951872 142.254924 
L 370.49219 142.214432 
L 372.113144 142.902828 
L 372.653462 143.96941 
L 373.19378 144.692263 
L 374.274416 147.585445 
L 374.814735 148.160328 
L 375.355053 149.373612 
L 375.895371 152.008739 
L 376.435689 152.008739 
L 376.976007 156.254575 
L 377.516325 156.974239 
L 378.596961 159.828074 
L 379.137279 162.573028 
L 379.677598 163.877955 
L 380.758234 167.421639 
L 381.298552 167.949765 
L 381.83887 168.947063 
L 382.379188 170.695207 
L 382.919506 170.695207 
L 383.459824 172.680154 
L 384.000142 172.934686 
L 385.621097 174.203329 
L 386.161415 174.203329 
L 386.701733 174.328987 
L 387.782369 174.155888 
L 388.863005 173.71115 
L 389.403324 173.240126 
L 389.943642 172.464156 
L 391.564596 171.059888 
L 392.104914 170.025207 
L 392.645232 170.025207 
L 393.18555 168.447592 
L 393.725869 168.190409 
L 394.806505 167.201922 
L 395.346823 166.306694 
L 396.427459 165.214005 
L 397.508095 164.80626 
L 399.12905 164.237158 
L 399.669368 164.23019 
L 401.290322 164.561762 
L 401.83064 165.023774 
L 402.370958 165.31966 
L 403.451595 166.435244 
L 403.991913 166.650699 
L 404.532231 167.102738 
L 405.072549 168.078711 
L 406.153185 169.123634 
L 406.693503 169.935155 
L 407.233821 171.031225 
L 407.774139 171.031225 
L 408.314458 172.119093 
L 408.854776 172.652351 
L 409.935412 174.17572 
L 410.47573 174.415184 
L 411.016048 174.879407 
L 411.556366 175.743031 
L 413.177321 177.018017 
L 413.717639 177.594509 
L 414.257957 177.594509 
L 414.798275 178.053675 
L 416.959547 178.699861 
L 418.580502 178.678014 
L 419.661138 178.528684 
L 420.201456 178.352774 
L 421.282092 177.850621 
L 422.903047 177.172677 
L 423.443365 176.782607 
L 423.983683 176.22483 
L 426.144955 175.034957 
L 427.76591 173.716486 
L 428.846546 173.056506 
L 429.386864 172.698748 
L 430.4675 172.375474 
L 431.007818 172.004902 
L 431.548136 172.004902 
L 432.088455 171.593078 
L 432.088455 171.593078 
" clip-path="url(#p35ec49c3d2)" style="fill: none; stroke: #0000ff; stroke-width: 1.5; stroke-linecap: square"/>
   </g>
   <g id="patch_8">
    <path d="M 55.946 190.3975 
L 55.946 139.92 
" style="fill: none; stroke: #000000; stroke-width: 0.8; stroke-linejoin: miter; stroke-linecap: square"/>
   </g>
   <g id="patch_9">
    <path d="M 450 190.3975 
L 450 139.92 
" style="fill: none; stroke: #000000; stroke-width: 0.8; stroke-linejoin: miter; stroke-linecap: square"/>
   </g>
   <g id="patch_10">
    <path d="M 55.946 190.3975 
L 450 190.3975 
" style="fill: none; stroke: #000000; stroke-width: 0.8; stroke-linejoin: miter; stroke-linecap: square"/>
   </g>
   <g id="patch_11">
    <path d="M 55.946 139.92 
L 450 139.92 
" style="fill: none; stroke: #000000; stroke-width: 0.8; stroke-linejoin: miter; stroke-linecap: square"/>
   </g>
   <g id="text_24">
    <!-- Error in $z$-position -->
    <g transform="translate(199.693 133.92)scale(0.12 -0.12)">
     <use xlink:href="#DejaVuSans-45" transform="translate(0 0.015625)"/>
     <use xlink:href="#DejaVuSans-72" transform="translate(63.183594 0.015625)"/>
     <use xlink:href="#DejaVuSans-72" transform="translate(104.296875 0.015625)"/>
     <use xlink:href="#DejaVuSans-6f" transform="translate(145.410156 0.015625)"/>
     <use xlink:href="#DejaVuSans-72" transform="translate(206.591797 0.015625)"/>
     <use xlink:href="#DejaVuSans-20" transform="translate(247.705078 0.015625)"/>
     <use xlink:href="#DejaVuSans-69" transform="translate(279.492188 0.015625)"/>
     <use xlink:href="#DejaVuSans-6e" transform="translate(307.275391 0.015625)"/>
     <use xlink:href="#DejaVuSans-20" transform="translate(370.654297 0.015625)"/>
     <use xlink:href="#DejaVuSans-Oblique-7a" transform="translate(402.441406 0.015625)"/>
     <use xlink:href="#DejaVuSans-2d" transform="translate(454.931641 0.015625)"/>
     <use xlink:href="#DejaVuSans-70" transform="translate(491.015625 0.015625)"/>
     <use xlink:href="#DejaVuSans-6f" transform="translate(554.492188 0.015625)"/>
     <use xlink:href="#DejaVuSans-73" transform="translate(615.673828 0.015625)"/>
     <use xlink:href="#DejaVuSans-69" transform="translate(667.773438 0.015625)"/>
     <use xlink:href="#DejaVuSans-74" transform="translate(695.556641 0.015625)"/>
     <use xlink:href="#DejaVuSans-69" transform="translate(734.765625 0.015625)"/>
     <use xlink:href="#DejaVuSans-6f" transform="translate(762.548828 0.015625)"/>
     <use xlink:href="#DejaVuSans-6e" transform="translate(823.730469 0.015625)"/>
    </g>
   </g>
  </g>
  <g id="axes_3">
   <g id="patch_12">
    <path d="M 55.946 301.9975 
L 450 301.9975 
L 450 251.52 
L 55.946 251.52 
z
" style="fill: #ffffff"/>
   </g>
   <g id="matplotlib.axis_5">
    <g id="xtick_15">
     <g id="line2d_39">
      <path d="M 73.857545 301.9975 
L 73.857545 251.52 
" clip-path="url(#p286d56d761)" style="fill: none; stroke: #b0b0b0; stroke-width: 0.8; stroke-linecap: square"/>
     </g>
     <g id="line2d_40">
      <g>
       <use xlink:href="#me4fb83420b" x="73.857545" y="301.9975" style="stroke: #000000; stroke-width: 0.8"/>
      </g>
     </g>
     <g id="text_25">
      <!-- 0 -->
      <g transform="translate(70.676295 316.595937)scale(0.1 -0.1)">
       <use xlink:href="#DejaVuSans-30"/>
      </g>
     </g>
    </g>
    <g id="xtick_16">
     <g id="line2d_41">
      <path d="M 127.807984 301.9975 
L 127.807984 251.52 
" clip-path="url(#p286d56d761)" style="fill: none; stroke: #b0b0b0; stroke-width: 0.8; stroke-linecap: square"/>
     </g>
     <g id="line2d_42">
      <g>
       <use xlink:href="#me4fb83420b" x="127.807984" y="301.9975" style="stroke: #000000; stroke-width: 0.8"/>
      </g>
     </g>
     <g id="text_26">
      <!-- 1 -->
      <g transform="translate(124.626734 316.595937)scale(0.1 -0.1)">
       <use xlink:href="#DejaVuSans-31"/>
      </g>
     </g>
    </g>
    <g id="xtick_17">
     <g id="line2d_43">
      <path d="M 181.758422 301.9975 
L 181.758422 251.52 
" clip-path="url(#p286d56d761)" style="fill: none; stroke: #b0b0b0; stroke-width: 0.8; stroke-linecap: square"/>
     </g>
     <g id="line2d_44">
      <g>
       <use xlink:href="#me4fb83420b" x="181.758422" y="301.9975" style="stroke: #000000; stroke-width: 0.8"/>
      </g>
     </g>
     <g id="text_27">
      <!-- 2 -->
      <g transform="translate(178.577172 316.595937)scale(0.1 -0.1)">
       <use xlink:href="#DejaVuSans-32"/>
      </g>
     </g>
    </g>
    <g id="xtick_18">
     <g id="line2d_45">
      <path d="M 235.70886 301.9975 
L 235.70886 251.52 
" clip-path="url(#p286d56d761)" style="fill: none; stroke: #b0b0b0; stroke-width: 0.8; stroke-linecap: square"/>
     </g>
     <g id="line2d_46">
      <g>
       <use xlink:href="#me4fb83420b" x="235.70886" y="301.9975" style="stroke: #000000; stroke-width: 0.8"/>
      </g>
     </g>
     <g id="text_28">
      <!-- 3 -->
      <g transform="translate(232.52761 316.595937)scale(0.1 -0.1)">
       <use xlink:href="#DejaVuSans-33"/>
      </g>
     </g>
    </g>
    <g id="xtick_19">
     <g id="line2d_47">
      <path d="M 289.659298 301.9975 
L 289.659298 251.52 
" clip-path="url(#p286d56d761)" style="fill: none; stroke: #b0b0b0; stroke-width: 0.8; stroke-linecap: square"/>
     </g>
     <g id="line2d_48">
      <g>
       <use xlink:href="#me4fb83420b" x="289.659298" y="301.9975" style="stroke: #000000; stroke-width: 0.8"/>
      </g>
     </g>
     <g id="text_29">
      <!-- 4 -->
      <g transform="translate(286.478048 316.595937)scale(0.1 -0.1)">
       <use xlink:href="#DejaVuSans-34"/>
      </g>
     </g>
    </g>
    <g id="xtick_20">
     <g id="line2d_49">
      <path d="M 343.609736 301.9975 
L 343.609736 251.52 
" clip-path="url(#p286d56d761)" style="fill: none; stroke: #b0b0b0; stroke-width: 0.8; stroke-linecap: square"/>
     </g>
     <g id="line2d_50">
      <g>
       <use xlink:href="#me4fb83420b" x="343.609736" y="301.9975" style="stroke: #000000; stroke-width: 0.8"/>
      </g>
     </g>
     <g id="text_30">
      <!-- 5 -->
      <g transform="translate(340.428486 316.595937)scale(0.1 -0.1)">
       <use xlink:href="#DejaVuSans-35"/>
      </g>
     </g>
    </g>
    <g id="xtick_21">
     <g id="line2d_51">
      <path d="M 397.560174 301.9975 
L 397.560174 251.52 
" clip-path="url(#p286d56d761)" style="fill: none; stroke: #b0b0b0; stroke-width: 0.8; stroke-linecap: square"/>
     </g>
     <g id="line2d_52">
      <g>
       <use xlink:href="#me4fb83420b" x="397.560174" y="301.9975" style="stroke: #000000; stroke-width: 0.8"/>
      </g>
     </g>
     <g id="text_31">
      <!-- 6 -->
      <g transform="translate(394.378924 316.595937)scale(0.1 -0.1)">
       <use xlink:href="#DejaVuSans-36"/>
      </g>
     </g>
    </g>
    <g id="text_32">
     <!-- $t$ [s] -->
     <g transform="translate(242.873 330.274063)scale(0.1 -0.1)">
      <use xlink:href="#DejaVuSans-Oblique-74" transform="translate(0 0.015625)"/>
      <use xlink:href="#DejaVuSans-20" transform="translate(39.208984 0.015625)"/>
      <use xlink:href="#DejaVuSans-5b" transform="translate(70.996094 0.015625)"/>
      <use xlink:href="#DejaVuSans-73" transform="translate(110.009766 0.015625)"/>
      <use xlink:href="#DejaVuSans-5d" transform="translate(162.109375 0.015625)"/>
     </g>
    </g>
   </g>
   <g id="matplotlib.axis_6">
    <g id="ytick_5">
     <g id="line2d_53">
      <path d="M 55.946 295.599357 
L 450 295.599357 
" clip-path="url(#p286d56d761)" style="fill: none; stroke: #b0b0b0; stroke-width: 0.8; stroke-linecap: square"/>
     </g>
     <g id="line2d_54">
      <g>
       <use xlink:href="#m966212bbb4" x="55.946" y="295.599357" style="stroke: #000000; stroke-width: 0.8"/>
      </g>
     </g>
     <g id="text_33">
      <!-- −2.5 -->
      <g transform="translate(24.663188 299.398576)scale(0.1 -0.1)">
       <defs>
        <path id="DejaVuSans-2212" d="M 678 2272 
L 4684 2272 
L 4684 1741 
L 678 1741 
L 678 2272 
z
" transform="scale(0.015625)"/>
       </defs>
       <use xlink:href="#DejaVuSans-2212"/>
       <use xlink:href="#DejaVuSans-32" x="83.789062"/>
       <use xlink:href="#DejaVuSans-2e" x="147.412109"/>
       <use xlink:href="#DejaVuSans-35" x="179.199219"/>
      </g>
     </g>
    </g>
    <g id="ytick_6">
     <g id="line2d_55">
      <path d="M 55.946 274.008179 
L 450 274.008179 
" clip-path="url(#p286d56d761)" style="fill: none; stroke: #b0b0b0; stroke-width: 0.8; stroke-linecap: square"/>
     </g>
     <g id="line2d_56">
      <g>
       <use xlink:href="#m966212bbb4" x="55.946" y="274.008179" style="stroke: #000000; stroke-width: 0.8"/>
      </g>
     </g>
     <g id="text_34">
      <!-- 0.0 -->
      <g transform="translate(33.042875 277.807397)scale(0.1 -0.1)">
       <use xlink:href="#DejaVuSans-30"/>
       <use xlink:href="#DejaVuSans-2e" x="63.623047"/>
       <use xlink:href="#DejaVuSans-30" x="95.410156"/>
      </g>
     </g>
    </g>
    <g id="ytick_7">
     <g id="line2d_57">
      <path d="M 55.946 252.417 
L 450 252.417 
" clip-path="url(#p286d56d761)" style="fill: none; stroke: #b0b0b0; stroke-width: 0.8; stroke-linecap: square"/>
     </g>
     <g id="line2d_58">
      <g>
       <use xlink:href="#m966212bbb4" x="55.946" y="252.417" style="stroke: #000000; stroke-width: 0.8"/>
      </g>
     </g>
     <g id="text_35">
      <!-- 2.5 -->
      <g transform="translate(33.042875 256.216219)scale(0.1 -0.1)">
       <use xlink:href="#DejaVuSans-32"/>
       <use xlink:href="#DejaVuSans-2e" x="63.623047"/>
       <use xlink:href="#DejaVuSans-35" x="95.410156"/>
      </g>
     </g>
    </g>
    <g id="text_36">
     <!-- $e_\theta$ [rad] -->
     <g transform="translate(18.5835 295.90875)rotate(-90)scale(0.1 -0.1)">
      <defs>
       <path id="DejaVuSans-Oblique-3b8" d="M 2913 2219 
L 925 2219 
Q 791 1284 928 888 
Q 1100 400 1566 400 
Q 2034 400 2391 891 
Q 2703 1322 2913 2219 
z
M 3009 2750 
Q 3094 3638 2984 3950 
Q 2813 4444 2353 4444 
Q 1875 4444 1525 3956 
Q 1250 3563 1034 2750 
L 3009 2750 
z
M 2444 4913 
Q 3194 4913 3494 4250 
Q 3794 3591 3566 2422 
Q 3341 1256 2781 594 
Q 2225 -72 1475 -72 
Q 722 -72 425 594 
Q 128 1256 353 2422 
Q 581 3591 1134 4250 
Q 1691 4913 2444 4913 
z
" transform="scale(0.015625)"/>
       <path id="DejaVuSans-61" d="M 2194 1759 
Q 1497 1759 1228 1600 
Q 959 1441 959 1056 
Q 959 750 1161 570 
Q 1363 391 1709 391 
Q 2188 391 2477 730 
Q 2766 1069 2766 1631 
L 2766 1759 
L 2194 1759 
z
M 3341 1997 
L 3341 0 
L 2766 0 
L 2766 531 
Q 2569 213 2275 61 
Q 1981 -91 1556 -91 
Q 1019 -91 701 211 
Q 384 513 384 1019 
Q 384 1609 779 1909 
Q 1175 2209 1959 2209 
L 2766 2209 
L 2766 2266 
Q 2766 2663 2505 2880 
Q 2244 3097 1772 3097 
Q 1472 3097 1187 3025 
Q 903 2953 641 2809 
L 641 3341 
Q 956 3463 1253 3523 
Q 1550 3584 1831 3584 
Q 2591 3584 2966 3190 
Q 3341 2797 3341 1997 
z
" transform="scale(0.015625)"/>
       <path id="DejaVuSans-64" d="M 2906 2969 
L 2906 4863 
L 3481 4863 
L 3481 0 
L 2906 0 
L 2906 525 
Q 2725 213 2448 61 
Q 2172 -91 1784 -91 
Q 1150 -91 751 415 
Q 353 922 353 1747 
Q 353 2572 751 3078 
Q 1150 3584 1784 3584 
Q 2172 3584 2448 3432 
Q 2725 3281 2906 2969 
z
M 947 1747 
Q 947 1113 1208 752 
Q 1469 391 1925 391 
Q 2381 391 2643 752 
Q 2906 1113 2906 1747 
Q 2906 2381 2643 2742 
Q 2381 3103 1925 3103 
Q 1469 3103 1208 2742 
Q 947 2381 947 1747 
z
" transform="scale(0.015625)"/>
      </defs>
      <use xlink:href="#DejaVuSans-Oblique-65" transform="translate(0 0.015625)"/>
      <use xlink:href="#DejaVuSans-Oblique-3b8" transform="translate(61.523438 -16.390625)scale(0.7)"/>
      <use xlink:href="#DejaVuSans-20" transform="translate(107.084961 0.015625)"/>
      <use xlink:href="#DejaVuSans-5b" transform="translate(138.87207 0.015625)"/>
      <use xlink:href="#DejaVuSans-72" transform="translate(177.885742 0.015625)"/>
      <use xlink:href="#DejaVuSans-61" transform="translate(218.999023 0.015625)"/>
      <use xlink:href="#DejaVuSans-64" transform="translate(280.27832 0.015625)"/>
      <use xlink:href="#DejaVuSans-5d" transform="translate(343.754883 0.015625)"/>
     </g>
    </g>
   </g>
   <g id="line2d_59">
    <path d="M 73.857545 260.453696 
L 76.018818 260.427229 
L 81.421999 259.487949 
L 81.962317 259.297183 
L 82.502635 259.297183 
L 83.583271 259.087075 
L 90.607407 258.330398 
L 100.333133 257.880483 
L 110.599177 257.76236 
L 119.784585 257.945244 
L 146.260173 258.428178 
L 183.542122 257.920648 
L 189.485622 258.014584 
L 199.751666 258.243206 
L 206.775801 258.354252 
L 219.743436 258.363411 
L 228.388526 258.305018 
L 230.549798 258.446975 
L 231.090116 258.633806 
L 232.711071 258.839545 
L 234.872343 259.49931 
L 235.952979 259.697337 
L 236.493298 259.978436 
L 237.573934 260.345718 
L 238.65457 260.791149 
L 239.194888 260.791149 
L 239.735206 261.079828 
L 246.219024 262.687893 
L 246.759342 262.687893 
L 247.29966 262.880423 
L 249.460932 263.091669 
L 251.622205 263.206898 
L 253.783477 263.15092 
L 255.404432 262.987754 
L 255.94475 262.714769 
L 256.485068 262.714769 
L 257.025386 261.625837 
L 257.565704 261.242667 
L 258.106022 260.017947 
L 258.64634 257.446118 
L 259.186658 299.703068 
L 259.726976 295.655371 
L 260.267295 294.256673 
L 261.888249 293.333311 
L 262.428567 292.992924 
L 264.589839 292.560479 
L 265.670476 292.467438 
L 272.154293 291.853274 
L 275.396202 291.459896 
L 278.63811 290.996117 
L 279.178428 290.996117 
L 280.259065 290.830358 
L 288.904155 290.0761 
L 297.008926 289.883298 
L 304.033062 289.960485 
L 324.024832 290.752187 
L 327.266741 290.540171 
L 332.129604 289.789145 
L 333.21024 289.487308 
L 334.290876 289.211897 
L 334.831194 288.977615 
L 335.371512 288.977615 
L 336.452148 288.608834 
L 337.532785 288.284743 
L 338.073103 288.020115 
L 338.613421 288.020115 
L 339.153739 287.746751 
L 340.234375 287.403356 
L 340.774693 287.19293 
L 341.85533 286.983195 
L 342.395648 286.703913 
L 343.476284 286.354975 
L 344.016602 286.149352 
L 345.097238 285.944339 
L 345.637556 285.67811 
L 346.177875 285.67811 
L 346.718193 285.292035 
L 347.798829 285.108928 
L 349.419783 284.764749 
L 349.960101 284.463069 
L 352.121374 284.187868 
L 353.20201 284.071558 
L 354.282646 284.193866 
L 354.822964 284.415233 
L 355.363282 284.969849 
L 355.903601 290.931819 
L 356.443919 253.814432 
L 356.984237 254.42811 
L 358.064873 254.813606 
L 359.685827 254.804025 
L 366.169645 254.544107 
L 368.871235 254.720294 
L 373.19378 255.684648 
L 374.814735 256.21335 
L 375.355053 256.380703 
L 375.895371 256.731674 
L 376.435689 256.731674 
L 376.976007 257.279645 
L 378.056643 257.555577 
L 378.596961 257.737065 
L 379.137279 258.091284 
L 380.217916 258.507082 
L 380.758234 258.737446 
L 381.83887 258.951917 
L 382.379188 259.209033 
L 382.919506 259.209033 
L 383.459824 259.531184 
L 385.080779 259.739007 
L 385.621097 259.868066 
L 386.161415 259.868066 
L 386.701733 260.005045 
L 392.645232 260.085776 
L 395.346823 259.985403 
L 399.669368 259.952256 
L 404.532231 260.145272 
L 407.233821 260.388223 
L 408.854776 260.494206 
L 413.717639 260.883216 
L 415.878911 260.981336 
L 419.661138 261.100072 
L 423.443365 261.035398 
L 430.4675 260.293801 
L 431.007818 260.160382 
L 431.548136 260.160382 
L 432.088455 259.962589 
L 432.088455 259.962589 
" clip-path="url(#p286d56d761)" style="fill: none; stroke: #008000; stroke-width: 1.5; stroke-linecap: square"/>
   </g>
   <g id="patch_13">
    <path d="M 55.946 301.9975 
L 55.946 251.52 
" style="fill: none; stroke: #000000; stroke-width: 0.8; stroke-linejoin: miter; stroke-linecap: square"/>
   </g>
   <g id="patch_14">
    <path d="M 450 301.9975 
L 450 251.52 
" style="fill: none; stroke: #000000; stroke-width: 0.8; stroke-linejoin: miter; stroke-linecap: square"/>
   </g>
   <g id="patch_15">
    <path d="M 55.946 301.9975 
L 450 301.9975 
" style="fill: none; stroke: #000000; stroke-width: 0.8; stroke-linejoin: miter; stroke-linecap: square"/>
   </g>
   <g id="patch_16">
    <path d="M 55.946 251.52 
L 450 251.52 
" style="fill: none; stroke: #000000; stroke-width: 0.8; stroke-linejoin: miter; stroke-linecap: square"/>
   </g>
   <g id="text_37">
    <!-- Error in swing angle -->
    <g transform="translate(193.202687 245.52)scale(0.12 -0.12)">
     <defs>
      <path id="DejaVuSans-77" d="M 269 3500 
L 844 3500 
L 1563 769 
L 2278 3500 
L 2956 3500 
L 3675 769 
L 4391 3500 
L 4966 3500 
L 4050 0 
L 3372 0 
L 2619 2869 
L 1863 0 
L 1184 0 
L 269 3500 
z
" transform="scale(0.015625)"/>
      <path id="DejaVuSans-67" d="M 2906 1791 
Q 2906 2416 2648 2759 
Q 2391 3103 1925 3103 
Q 1463 3103 1205 2759 
Q 947 2416 947 1791 
Q 947 1169 1205 825 
Q 1463 481 1925 481 
Q 2391 481 2648 825 
Q 2906 1169 2906 1791 
z
M 3481 434 
Q 3481 -459 3084 -895 
Q 2688 -1331 1869 -1331 
Q 1566 -1331 1297 -1286 
Q 1028 -1241 775 -1147 
L 775 -588 
Q 1028 -725 1275 -790 
Q 1522 -856 1778 -856 
Q 2344 -856 2625 -561 
Q 2906 -266 2906 331 
L 2906 616 
Q 2728 306 2450 153 
Q 2172 0 1784 0 
Q 1141 0 747 490 
Q 353 981 353 1791 
Q 353 2603 747 3093 
Q 1141 3584 1784 3584 
Q 2172 3584 2450 3431 
Q 2728 3278 2906 2969 
L 2906 3500 
L 3481 3500 
L 3481 434 
z
" transform="scale(0.015625)"/>
      <path id="DejaVuSans-6c" d="M 603 4863 
L 1178 4863 
L 1178 0 
L 603 0 
L 603 4863 
z
" transform="scale(0.015625)"/>
      <path id="DejaVuSans-65" d="M 3597 1894 
L 3597 1613 
L 953 1613 
Q 991 1019 1311 708 
Q 1631 397 2203 397 
Q 2534 397 2845 478 
Q 3156 559 3463 722 
L 3463 178 
Q 3153 47 2828 -22 
Q 2503 -91 2169 -91 
Q 1331 -91 842 396 
Q 353 884 353 1716 
Q 353 2575 817 3079 
Q 1281 3584 2069 3584 
Q 2775 3584 3186 3129 
Q 3597 2675 3597 1894 
z
M 3022 2063 
Q 3016 2534 2758 2815 
Q 2500 3097 2075 3097 
Q 1594 3097 1305 2825 
Q 1016 2553 972 2059 
L 3022 2063 
z
" transform="scale(0.015625)"/>
     </defs>
     <use xlink:href="#DejaVuSans-45"/>
     <use xlink:href="#DejaVuSans-72" x="63.183594"/>
     <use xlink:href="#DejaVuSans-72" x="102.546875"/>
     <use xlink:href="#DejaVuSans-6f" x="141.410156"/>
     <use xlink:href="#DejaVuSans-72" x="202.591797"/>
     <use xlink:href="#DejaVuSans-20" x="243.705078"/>
     <use xlink:href="#DejaVuSans-69" x="275.492188"/>
     <use xlink:href="#DejaVuSans-6e" x="303.275391"/>
     <use xlink:href="#DejaVuSans-20" x="366.654297"/>
     <use xlink:href="#DejaVuSans-73" x="398.441406"/>
     <use xlink:href="#DejaVuSans-77" x="450.541016"/>
     <use xlink:href="#DejaVuSans-69" x="532.328125"/>
     <use xlink:href="#DejaVuSans-6e" x="560.111328"/>
     <use xlink:href="#DejaVuSans-67" x="623.490234"/>
     <use xlink:href="#DejaVuSans-20" x="686.966797"/>
     <use xlink:href="#DejaVuSans-61" x="718.753906"/>
     <use xlink:href="#DejaVuSans-6e" x="780.033203"/>
     <use xlink:href="#DejaVuSans-67" x="843.412109"/>
     <use xlink:href="#DejaVuSans-6c" x="906.888672"/>
     <use xlink:href="#DejaVuSans-65" x="934.671875"/>
    </g>
   </g>
  </g>
 </g>
 <defs>
  <clipPath id="pa6103323df">
   <rect x="55.946" y="28.32" width="394.054" height="50.4775"/>
  </clipPath>
  <clipPath id="p35ec49c3d2">
   <rect x="55.946" y="139.92" width="394.054" height="50.4775"/>
  </clipPath>
  <clipPath id="p286d56d761">
   <rect x="55.946" y="251.52" width="394.054" height="50.4775"/>
  </clipPath>
 </defs>
</svg>
