<?xml version="1.0" encoding="utf-8" standalone="no"?>
<!DOCTYPE svg PUBLIC "-//W3C//DTD SVG 1.1//EN"
  "http://www.w3.org/Graphics/SVG/1.1/DTD/svg11.dtd">
<svg xmlns:xlink="http://www.w3.org/1999/xlink" width="460.8pt" height="345.6pt" viewBox="0 0 460.8 345.6" xmlns="http://www.w3.org/2000/svg" version="1.1">
 <metadata>
  <rdf:RDF xmlns:dc="http://purl.org/dc/elements/1.1/" xmlns:cc="http://creativecommons.org/ns#" xmlns:rdf="http://www.w3.org/1999/02/22-rdf-syntax-ns#">
   <cc:Work>
    <dc:type rdf:resource="http://purl.org/dc/dcmitype/StillImage"/>
    <dc:date>2022-06-05T18:21:57.210014</dc:date>
    <dc:format>image/svg+xml</dc:format>
    <dc:creator>
     <cc:Agent>
      <dc:title>Matplotlib v3.5.1, https://matplotlib.org/</dc:title>
     </cc:Agent>
    </dc:creator>
   </cc:Work>
  </rdf:RDF>
 </metadata>
 <defs>
  <style type="text/css">*{stroke-linejoin: round; stroke-linecap: butt}</style>
 </defs>
 <g id="figure_1">
  <g id="patch_1">
   <path d="M 0 345.6 
L 460.8 345.6 
L 460.8 0 
L 0 0 
z
" style="fill: #ffffff"/>
  </g>
  <g id="axes_1">
   <g id="patch_2">
    <path d="M 58.016 78.7975 
L 448.038944 78.7975 
L 448.038944 28.32 
L 58.016 28.32 
z
" style="fill: #ffffff"/>
   </g>
   <g id="matplotlib.axis_1">
    <g id="xtick_1">
     <g id="line2d_1">
      <path d="M 75.744316 78.7975 
L 75.744316 28.32 
" clip-path="url(#pa15f7b3ac3)" style="fill: none; stroke: #b0b0b0; stroke-width: 0.8; stroke-linecap: square"/>
     </g>
     <g id="line2d_2">
      <defs>
       <path id="m71a4ba3869" d="M 0 0 
L 0 3.5 
" style="stroke: #000000; stroke-width: 0.8"/>
      </defs>
      <g>
       <use xlink:href="#m71a4ba3869" x="75.744316" y="78.7975" style="stroke: #000000; stroke-width: 0.8"/>
      </g>
     </g>
     <g id="text_1">
      <!-- 0 -->
      <g transform="translate(72.563066 93.395937)scale(0.1 -0.1)">
       <defs>
        <path id="DejaVuSans-30" d="M 2034 4250 
Q 1547 4250 1301 3770 
Q 1056 3291 1056 2328 
Q 1056 1369 1301 889 
Q 1547 409 2034 409 
Q 2525 409 2770 889 
Q 3016 1369 3016 2328 
Q 3016 3291 2770 3770 
Q 2525 4250 2034 4250 
z
M 2034 4750 
Q 2819 4750 3233 4129 
Q 3647 3509 3647 2328 
Q 3647 1150 3233 529 
Q 2819 -91 2034 -91 
Q 1250 -91 836 529 
Q 422 1150 422 2328 
Q 422 3509 836 4129 
Q 1250 4750 2034 4750 
z
" transform="scale(0.015625)"/>
       </defs>
       <use xlink:href="#DejaVuSans-30"/>
      </g>
     </g>
    </g>
    <g id="xtick_2">
     <g id="line2d_3">
      <path d="M 128.743765 78.7975 
L 128.743765 28.32 
" clip-path="url(#pa15f7b3ac3)" style="fill: none; stroke: #b0b0b0; stroke-width: 0.8; stroke-linecap: square"/>
     </g>
     <g id="line2d_4">
      <g>
       <use xlink:href="#m71a4ba3869" x="128.743765" y="78.7975" style="stroke: #000000; stroke-width: 0.8"/>
      </g>
     </g>
     <g id="text_2">
      <!-- 1 -->
      <g transform="translate(125.562515 93.395937)scale(0.1 -0.1)">
       <defs>
        <path id="DejaVuSans-31" d="M 794 531 
L 1825 531 
L 1825 4091 
L 703 3866 
L 703 4441 
L 1819 4666 
L 2450 4666 
L 2450 531 
L 3481 531 
L 3481 0 
L 794 0 
L 794 531 
z
" transform="scale(0.015625)"/>
       </defs>
       <use xlink:href="#DejaVuSans-31"/>
      </g>
     </g>
    </g>
    <g id="xtick_3">
     <g id="line2d_5">
      <path d="M 181.743213 78.7975 
L 181.743213 28.32 
" clip-path="url(#pa15f7b3ac3)" style="fill: none; stroke: #b0b0b0; stroke-width: 0.8; stroke-linecap: square"/>
     </g>
     <g id="line2d_6">
      <g>
       <use xlink:href="#m71a4ba3869" x="181.743213" y="78.7975" style="stroke: #000000; stroke-width: 0.8"/>
      </g>
     </g>
     <g id="text_3">
      <!-- 2 -->
      <g transform="translate(178.561963 93.395937)scale(0.1 -0.1)">
       <defs>
        <path id="DejaVuSans-32" d="M 1228 531 
L 3431 531 
L 3431 0 
L 469 0 
L 469 531 
Q 828 903 1448 1529 
Q 2069 2156 2228 2338 
Q 2531 2678 2651 2914 
Q 2772 3150 2772 3378 
Q 2772 3750 2511 3984 
Q 2250 4219 1831 4219 
Q 1534 4219 1204 4116 
Q 875 4013 500 3803 
L 500 4441 
Q 881 4594 1212 4672 
Q 1544 4750 1819 4750 
Q 2544 4750 2975 4387 
Q 3406 4025 3406 3419 
Q 3406 3131 3298 2873 
Q 3191 2616 2906 2266 
Q 2828 2175 2409 1742 
Q 1991 1309 1228 531 
z
" transform="scale(0.015625)"/>
       </defs>
       <use xlink:href="#DejaVuSans-32"/>
      </g>
     </g>
    </g>
    <g id="xtick_4">
     <g id="line2d_7">
      <path d="M 234.742662 78.7975 
L 234.742662 28.32 
" clip-path="url(#pa15f7b3ac3)" style="fill: none; stroke: #b0b0b0; stroke-width: 0.8; stroke-linecap: square"/>
     </g>
     <g id="line2d_8">
      <g>
       <use xlink:href="#m71a4ba3869" x="234.742662" y="78.7975" style="stroke: #000000; stroke-width: 0.8"/>
      </g>
     </g>
     <g id="text_4">
      <!-- 3 -->
      <g transform="translate(231.561412 93.395937)scale(0.1 -0.1)">
       <defs>
        <path id="DejaVuSans-33" d="M 2597 2516 
Q 3050 2419 3304 2112 
Q 3559 1806 3559 1356 
Q 3559 666 3084 287 
Q 2609 -91 1734 -91 
Q 1441 -91 1130 -33 
Q 819 25 488 141 
L 488 750 
Q 750 597 1062 519 
Q 1375 441 1716 441 
Q 2309 441 2620 675 
Q 2931 909 2931 1356 
Q 2931 1769 2642 2001 
Q 2353 2234 1838 2234 
L 1294 2234 
L 1294 2753 
L 1863 2753 
Q 2328 2753 2575 2939 
Q 2822 3125 2822 3475 
Q 2822 3834 2567 4026 
Q 2313 4219 1838 4219 
Q 1578 4219 1281 4162 
Q 984 4106 628 3988 
L 628 4550 
Q 988 4650 1302 4700 
Q 1616 4750 1894 4750 
Q 2613 4750 3031 4423 
Q 3450 4097 3450 3541 
Q 3450 3153 3228 2886 
Q 3006 2619 2597 2516 
z
" transform="scale(0.015625)"/>
       </defs>
       <use xlink:href="#DejaVuSans-33"/>
      </g>
     </g>
    </g>
    <g id="xtick_5">
     <g id="line2d_9">
      <path d="M 287.742111 78.7975 
L 287.742111 28.32 
" clip-path="url(#pa15f7b3ac3)" style="fill: none; stroke: #b0b0b0; stroke-width: 0.8; stroke-linecap: square"/>
     </g>
     <g id="line2d_10">
      <g>
       <use xlink:href="#m71a4ba3869" x="287.742111" y="78.7975" style="stroke: #000000; stroke-width: 0.8"/>
      </g>
     </g>
     <g id="text_5">
      <!-- 4 -->
      <g transform="translate(284.560861 93.395937)scale(0.1 -0.1)">
       <defs>
        <path id="DejaVuSans-34" d="M 2419 4116 
L 825 1625 
L 2419 1625 
L 2419 4116 
z
M 2253 4666 
L 3047 4666 
L 3047 1625 
L 3713 1625 
L 3713 1100 
L 3047 1100 
L 3047 0 
L 2419 0 
L 2419 1100 
L 313 1100 
L 313 1709 
L 2253 4666 
z
" transform="scale(0.015625)"/>
       </defs>
       <use xlink:href="#DejaVuSans-34"/>
      </g>
     </g>
    </g>
    <g id="xtick_6">
     <g id="line2d_11">
      <path d="M 340.74156 78.7975 
L 340.74156 28.32 
" clip-path="url(#pa15f7b3ac3)" style="fill: none; stroke: #b0b0b0; stroke-width: 0.8; stroke-linecap: square"/>
     </g>
     <g id="line2d_12">
      <g>
       <use xlink:href="#m71a4ba3869" x="340.74156" y="78.7975" style="stroke: #000000; stroke-width: 0.8"/>
      </g>
     </g>
     <g id="text_6">
      <!-- 5 -->
      <g transform="translate(337.56031 93.395937)scale(0.1 -0.1)">
       <defs>
        <path id="DejaVuSans-35" d="M 691 4666 
L 3169 4666 
L 3169 4134 
L 1269 4134 
L 1269 2991 
Q 1406 3038 1543 3061 
Q 1681 3084 1819 3084 
Q 2600 3084 3056 2656 
Q 3513 2228 3513 1497 
Q 3513 744 3044 326 
Q 2575 -91 1722 -91 
Q 1428 -91 1123 -41 
Q 819 9 494 109 
L 494 744 
Q 775 591 1075 516 
Q 1375 441 1709 441 
Q 2250 441 2565 725 
Q 2881 1009 2881 1497 
Q 2881 1984 2565 2268 
Q 2250 2553 1709 2553 
Q 1456 2553 1204 2497 
Q 953 2441 691 2322 
L 691 4666 
z
" transform="scale(0.015625)"/>
       </defs>
       <use xlink:href="#DejaVuSans-35"/>
      </g>
     </g>
    </g>
    <g id="xtick_7">
     <g id="line2d_13">
      <path d="M 393.741009 78.7975 
L 393.741009 28.32 
" clip-path="url(#pa15f7b3ac3)" style="fill: none; stroke: #b0b0b0; stroke-width: 0.8; stroke-linecap: square"/>
     </g>
     <g id="line2d_14">
      <g>
       <use xlink:href="#m71a4ba3869" x="393.741009" y="78.7975" style="stroke: #000000; stroke-width: 0.8"/>
      </g>
     </g>
     <g id="text_7">
      <!-- 6 -->
      <g transform="translate(390.559759 93.395937)scale(0.1 -0.1)">
       <defs>
        <path id="DejaVuSans-36" d="M 2113 2584 
Q 1688 2584 1439 2293 
Q 1191 2003 1191 1497 
Q 1191 994 1439 701 
Q 1688 409 2113 409 
Q 2538 409 2786 701 
Q 3034 994 3034 1497 
Q 3034 2003 2786 2293 
Q 2538 2584 2113 2584 
z
M 3366 4563 
L 3366 3988 
Q 3128 4100 2886 4159 
Q 2644 4219 2406 4219 
Q 1781 4219 1451 3797 
Q 1122 3375 1075 2522 
Q 1259 2794 1537 2939 
Q 1816 3084 2150 3084 
Q 2853 3084 3261 2657 
Q 3669 2231 3669 1497 
Q 3669 778 3244 343 
Q 2819 -91 2113 -91 
Q 1303 -91 875 529 
Q 447 1150 447 2328 
Q 447 3434 972 4092 
Q 1497 4750 2381 4750 
Q 2619 4750 2861 4703 
Q 3103 4656 3366 4563 
z
" transform="scale(0.015625)"/>
       </defs>
       <use xlink:href="#DejaVuSans-36"/>
      </g>
     </g>
    </g>
    <g id="xtick_8">
     <g id="line2d_15">
      <path d="M 446.740458 78.7975 
L 446.740458 28.32 
" clip-path="url(#pa15f7b3ac3)" style="fill: none; stroke: #b0b0b0; stroke-width: 0.8; stroke-linecap: square"/>
     </g>
     <g id="line2d_16">
      <g>
       <use xlink:href="#m71a4ba3869" x="446.740458" y="78.7975" style="stroke: #000000; stroke-width: 0.8"/>
      </g>
     </g>
     <g id="text_8">
      <!-- 7 -->
      <g transform="translate(443.559208 93.395937)scale(0.1 -0.1)">
       <defs>
        <path id="DejaVuSans-37" d="M 525 4666 
L 3525 4666 
L 3525 4397 
L 1831 0 
L 1172 0 
L 2766 4134 
L 525 4134 
L 525 4666 
z
" transform="scale(0.015625)"/>
       </defs>
       <use xlink:href="#DejaVuSans-37"/>
      </g>
     </g>
    </g>
    <g id="text_9">
     <!-- $t$ [s] -->
     <g transform="translate(242.927472 107.074062)scale(0.1 -0.1)">
      <defs>
       <path id="DejaVuSans-Oblique-74" d="M 2706 3500 
L 2619 3053 
L 1472 3053 
L 1100 1153 
Q 1081 1047 1072 975 
Q 1063 903 1063 863 
Q 1063 663 1183 572 
Q 1303 481 1569 481 
L 2150 481 
L 2053 0 
L 1503 0 
Q 991 0 739 200 
Q 488 400 488 806 
Q 488 878 497 964 
Q 506 1050 525 1153 
L 897 3053 
L 409 3053 
L 500 3500 
L 978 3500 
L 1172 4494 
L 1747 4494 
L 1556 3500 
L 2706 3500 
z
" transform="scale(0.015625)"/>
       <path id="DejaVuSans-20" transform="scale(0.015625)"/>
       <path id="DejaVuSans-5b" d="M 550 4863 
L 1875 4863 
L 1875 4416 
L 1125 4416 
L 1125 -397 
L 1875 -397 
L 1875 -844 
L 550 -844 
L 550 4863 
z
" transform="scale(0.015625)"/>
       <path id="DejaVuSans-73" d="M 2834 3397 
L 2834 2853 
Q 2591 2978 2328 3040 
Q 2066 3103 1784 3103 
Q 1356 3103 1142 2972 
Q 928 2841 928 2578 
Q 928 2378 1081 2264 
Q 1234 2150 1697 2047 
L 1894 2003 
Q 2506 1872 2764 1633 
Q 3022 1394 3022 966 
Q 3022 478 2636 193 
Q 2250 -91 1575 -91 
Q 1294 -91 989 -36 
Q 684 19 347 128 
L 347 722 
Q 666 556 975 473 
Q 1284 391 1588 391 
Q 1994 391 2212 530 
Q 2431 669 2431 922 
Q 2431 1156 2273 1281 
Q 2116 1406 1581 1522 
L 1381 1569 
Q 847 1681 609 1914 
Q 372 2147 372 2553 
Q 372 3047 722 3315 
Q 1072 3584 1716 3584 
Q 2034 3584 2315 3537 
Q 2597 3491 2834 3397 
z
" transform="scale(0.015625)"/>
       <path id="DejaVuSans-5d" d="M 1947 4863 
L 1947 -844 
L 622 -844 
L 622 -397 
L 1369 -397 
L 1369 4416 
L 622 4416 
L 622 4863 
L 1947 4863 
z
" transform="scale(0.015625)"/>
      </defs>
      <use xlink:href="#DejaVuSans-Oblique-74" transform="translate(0 0.015625)"/>
      <use xlink:href="#DejaVuSans-20" transform="translate(39.208984 0.015625)"/>
      <use xlink:href="#DejaVuSans-5b" transform="translate(70.996094 0.015625)"/>
      <use xlink:href="#DejaVuSans-73" transform="translate(110.009766 0.015625)"/>
      <use xlink:href="#DejaVuSans-5d" transform="translate(162.109375 0.015625)"/>
     </g>
    </g>
   </g>
   <g id="matplotlib.axis_2">
    <g id="ytick_1">
     <g id="line2d_17">
      <path d="M 58.016 71.571698 
L 448.038944 71.571698 
" clip-path="url(#pa15f7b3ac3)" style="fill: none; stroke: #b0b0b0; stroke-width: 0.8; stroke-linecap: square"/>
     </g>
     <g id="line2d_18">
      <defs>
       <path id="m11013af8d4" d="M 0 0 
L -3.5 0 
" style="stroke: #000000; stroke-width: 0.8"/>
      </defs>
      <g>
       <use xlink:href="#m11013af8d4" x="58.016" y="71.571698" style="stroke: #000000; stroke-width: 0.8"/>
      </g>
     </g>
     <g id="text_10">
      <!-- 0 -->
      <g transform="translate(44.6535 75.370917)scale(0.1 -0.1)">
       <use xlink:href="#DejaVuSans-30"/>
      </g>
     </g>
    </g>
    <g id="ytick_2">
     <g id="line2d_19">
      <path d="M 58.016 30.614463 
L 448.038944 30.614463 
" clip-path="url(#pa15f7b3ac3)" style="fill: none; stroke: #b0b0b0; stroke-width: 0.8; stroke-linecap: square"/>
     </g>
     <g id="line2d_20">
      <g>
       <use xlink:href="#m11013af8d4" x="58.016" y="30.614463" style="stroke: #000000; stroke-width: 0.8"/>
      </g>
     </g>
     <g id="text_11">
      <!-- 10 -->
      <g transform="translate(38.291 34.413682)scale(0.1 -0.1)">
       <use xlink:href="#DejaVuSans-31"/>
       <use xlink:href="#DejaVuSans-30" x="63.623047"/>
      </g>
     </g>
    </g>
    <g id="text_12">
     <!-- $e_x$ [m] -->
     <g transform="translate(32.211313 69.20875)rotate(-90)scale(0.1 -0.1)">
      <defs>
       <path id="DejaVuSans-Oblique-65" d="M 3078 2063 
Q 3088 2113 3092 2166 
Q 3097 2219 3097 2272 
Q 3097 2653 2873 2875 
Q 2650 3097 2266 3097 
Q 1838 3097 1509 2826 
Q 1181 2556 1013 2059 
L 3078 2063 
z
M 3578 1613 
L 903 1613 
Q 884 1494 878 1425 
Q 872 1356 872 1306 
Q 872 872 1139 634 
Q 1406 397 1894 397 
Q 2269 397 2603 481 
Q 2938 566 3225 728 
L 3116 159 
Q 2806 34 2476 -28 
Q 2147 -91 1806 -91 
Q 1078 -91 686 257 
Q 294 606 294 1247 
Q 294 1794 489 2264 
Q 684 2734 1063 3103 
Q 1306 3334 1642 3459 
Q 1978 3584 2356 3584 
Q 2950 3584 3301 3228 
Q 3653 2872 3653 2272 
Q 3653 2128 3634 1964 
Q 3616 1800 3578 1613 
z
" transform="scale(0.015625)"/>
       <path id="DejaVuSans-Oblique-78" d="M 3841 3500 
L 2234 1784 
L 3219 0 
L 2559 0 
L 1819 1388 
L 531 0 
L -166 0 
L 1556 1844 
L 641 3500 
L 1300 3500 
L 1972 2234 
L 3144 3500 
L 3841 3500 
z
" transform="scale(0.015625)"/>
       <path id="DejaVuSans-6d" d="M 3328 2828 
Q 3544 3216 3844 3400 
Q 4144 3584 4550 3584 
Q 5097 3584 5394 3201 
Q 5691 2819 5691 2113 
L 5691 0 
L 5113 0 
L 5113 2094 
Q 5113 2597 4934 2840 
Q 4756 3084 4391 3084 
Q 3944 3084 3684 2787 
Q 3425 2491 3425 1978 
L 3425 0 
L 2847 0 
L 2847 2094 
Q 2847 2600 2669 2842 
Q 2491 3084 2119 3084 
Q 1678 3084 1418 2786 
Q 1159 2488 1159 1978 
L 1159 0 
L 581 0 
L 581 3500 
L 1159 3500 
L 1159 2956 
Q 1356 3278 1631 3431 
Q 1906 3584 2284 3584 
Q 2666 3584 2933 3390 
Q 3200 3197 3328 2828 
z
" transform="scale(0.015625)"/>
      </defs>
      <use xlink:href="#DejaVuSans-Oblique-65" transform="translate(0 0.015625)"/>
      <use xlink:href="#DejaVuSans-Oblique-78" transform="translate(61.523438 -16.390625)scale(0.7)"/>
      <use xlink:href="#DejaVuSans-20" transform="translate(105.683594 0.015625)"/>
      <use xlink:href="#DejaVuSans-5b" transform="translate(137.470703 0.015625)"/>
      <use xlink:href="#DejaVuSans-6d" transform="translate(176.484375 0.015625)"/>
      <use xlink:href="#DejaVuSans-5d" transform="translate(273.896484 0.015625)"/>
     </g>
    </g>
   </g>
   <g id="line2d_21">
    <path d="M 75.744316 30.614463 
L 89.014013 30.72212 
L 95.383468 30.966033 
L 100.160559 31.246084 
L 103.876074 31.553322 
L 105.468438 31.625317 
L 106.530013 31.757206 
L 111.307105 32.218429 
L 112.899468 32.402838 
L 117.676559 32.926155 
L 124.046014 33.824586 
L 124.576802 33.824586 
L 125.10759 34.005957 
L 126.699953 34.160177 
L 127.230741 34.285586 
L 127.761529 34.285586 
L 128.292317 34.477097 
L 129.884681 34.63984 
L 130.415469 34.772124 
L 130.946257 34.772124 
L 131.477044 34.974071 
L 133.069408 35.145638 
L 133.600196 35.320235 
L 134.130984 35.320235 
L 135.19256 35.533811 
L 136.784923 35.788684 
L 137.846499 36.012118 
L 139.438863 36.240212 
L 139.969651 36.433891 
L 140.500439 36.433891 
L 141.562014 36.670671 
L 143.685166 37.034862 
L 144.746742 37.283716 
L 146.869893 37.666139 
L 147.931469 37.9272 
L 148.993045 38.103954 
L 149.523833 38.32795 
L 150.054621 38.32795 
L 151.116197 38.601213 
L 152.70856 38.973108 
L 154.300924 39.305546 
L 155.893288 39.693438 
L 157.485651 40.039737 
L 159.608803 40.545455 
L 161.201166 41.011484 
L 161.731954 41.011484 
L 162.79353 41.327785 
L 164.385894 41.810487 
L 164.916682 41.810487 
L 165.978258 42.137677 
L 167.570621 42.636331 
L 168.101409 42.636331 
L 169.162985 42.973892 
L 170.224561 43.258248 
L 170.755349 43.487692 
L 171.286136 43.487692 
L 172.347712 43.835063 
L 173.940076 44.304056 
L 174.470864 44.304056 
L 175.001652 44.660058 
L 176.063228 44.839393 
L 176.594015 44.959436 
L 177.124803 45.261224 
L 177.655591 45.261224 
L 178.717167 45.626469 
L 179.778743 45.87181 
L 181.371106 46.491407 
L 182.432682 46.616371 
L 184.555834 47.309725 
L 185.61741 47.628186 
L 186.148197 47.884403 
L 188.271349 48.400628 
L 188.802137 48.725797 
L 189.332925 48.725797 
L 189.863713 48.987313 
L 191.456076 49.381858 
L 191.986864 49.646399 
L 192.517652 49.646399 
L 193.04844 50.045456 
L 194.110016 50.245991 
L 194.640804 50.380054 
L 195.171592 50.649083 
L 195.70238 50.649083 
L 196.233167 51.054864 
L 197.294743 51.258772 
L 197.825531 51.395087 
L 198.356319 51.668624 
L 198.887107 51.668624 
L 199.417895 52.081213 
L 200.479471 52.288543 
L 201.010259 52.427149 
L 201.541046 52.705294 
L 202.071834 52.705294 
L 202.602622 53.124863 
L 203.664198 53.335716 
L 204.194986 53.476683 
L 204.725774 53.75958 
L 205.256562 53.75958 
L 205.78735 54.186356 
L 206.848925 54.400847 
L 207.379713 54.544256 
L 207.910501 54.832062 
L 208.972077 55.193696 
L 209.502865 55.411685 
L 210.564441 55.630435 
L 211.095228 55.923292 
L 212.156804 56.291284 
L 213.21838 56.735706 
L 213.749168 56.735706 
L 214.810744 57.258121 
L 215.341532 57.483308 
L 216.403107 57.633866 
L 218.526259 58.46812 
L 219.587835 58.85078 
L 220.118623 59.158458 
L 222.241774 59.855742 
L 222.772562 60.167858 
L 225.95729 61.191557 
L 226.488077 61.509377 
L 228.611229 62.228806 
L 229.142017 62.550114 
L 231.795956 63.436153 
L 232.326744 63.758282 
L 232.857532 63.758282 
L 233.38832 64.079778 
L 234.980684 64.639616 
L 235.511472 64.957186 
L 236.042259 64.957186 
L 236.573047 65.272506 
L 238.165411 65.817657 
L 238.696199 66.124726 
L 239.226987 66.124726 
L 239.757775 66.428159 
L 240.819351 66.801919 
L 241.350138 67.023044 
L 242.411714 67.241704 
L 242.942502 67.52927 
L 244.534866 68.021026 
L 245.065654 68.295196 
L 245.596442 68.295196 
L 246.127229 68.564209 
L 247.719593 69.022244 
L 248.250381 69.27656 
L 248.781169 69.27656 
L 249.311957 69.525415 
L 249.842745 69.525415 
L 250.373533 69.88842 
L 251.435108 70.065325 
L 253.027472 70.466503 
L 254.089048 70.797894 
L 256.212199 71.274431 
L 257.273775 71.578998 
L 259.396927 72.016854 
L 260.458503 72.296303 
L 262.581654 72.65347 
L 263.112442 72.909708 
L 264.704806 73.115528 
L 267.889533 73.69014 
L 268.420321 73.867183 
L 268.951109 73.867183 
L 270.012685 74.069995 
L 284.874746 75.812559 
L 296.021291 76.441123 
L 301.32917 76.501637 
L 307.167837 76.375529 
L 313.006504 76.081863 
L 315.660444 75.89087 
L 325.214626 74.830969 
L 328.930141 74.323823 
L 329.460929 74.323823 
L 331.053292 74.060572 
L 333.707232 73.706859 
L 337.953535 73.128887 
L 339.545899 72.907611 
L 354.40796 71.455205 
L 356.000323 71.37777 
L 361.83899 71.081869 
L 374.047112 70.794033 
L 401.648082 70.675213 
L 412.26384 70.900925 
L 419.164083 71.111635 
L 422.879598 71.202161 
L 428.187477 71.333733 
L 430.310629 71.358559 
L 430.310629 71.358559 
" clip-path="url(#pa15f7b3ac3)" style="fill: none; stroke: #ff0000; stroke-width: 1.5; stroke-linecap: square"/>
   </g>
   <g id="patch_3">
    <path d="M 58.016 78.7975 
L 58.016 28.32 
" style="fill: none; stroke: #000000; stroke-width: 0.8; stroke-linejoin: miter; stroke-linecap: square"/>
   </g>
   <g id="patch_4">
    <path d="M 448.038944 78.7975 
L 448.038944 28.32 
" style="fill: none; stroke: #000000; stroke-width: 0.8; stroke-linejoin: miter; stroke-linecap: square"/>
   </g>
   <g id="patch_5">
    <path d="M 58.016 78.7975 
L 448.038944 78.7975 
" style="fill: none; stroke: #000000; stroke-width: 0.8; stroke-linejoin: miter; stroke-linecap: square"/>
   </g>
   <g id="patch_6">
    <path d="M 58.016 28.32 
L 448.038944 28.32 
" style="fill: none; stroke: #000000; stroke-width: 0.8; stroke-linejoin: miter; stroke-linecap: square"/>
   </g>
   <g id="text_13">
    <!-- Error in $x$-position -->
    <g transform="translate(199.387472 22.32)scale(0.12 -0.12)">
     <defs>
      <path id="DejaVuSans-45" d="M 628 4666 
L 3578 4666 
L 3578 4134 
L 1259 4134 
L 1259 2753 
L 3481 2753 
L 3481 2222 
L 1259 2222 
L 1259 531 
L 3634 531 
L 3634 0 
L 628 0 
L 628 4666 
z
" transform="scale(0.015625)"/>
      <path id="DejaVuSans-72" d="M 2631 2963 
Q 2534 3019 2420 3045 
Q 2306 3072 2169 3072 
Q 1681 3072 1420 2755 
Q 1159 2438 1159 1844 
L 1159 0 
L 581 0 
L 581 3500 
L 1159 3500 
L 1159 2956 
Q 1341 3275 1631 3429 
Q 1922 3584 2338 3584 
Q 2397 3584 2469 3576 
Q 2541 3569 2628 3553 
L 2631 2963 
z
" transform="scale(0.015625)"/>
      <path id="DejaVuSans-6f" d="M 1959 3097 
Q 1497 3097 1228 2736 
Q 959 2375 959 1747 
Q 959 1119 1226 758 
Q 1494 397 1959 397 
Q 2419 397 2687 759 
Q 2956 1122 2956 1747 
Q 2956 2369 2687 2733 
Q 2419 3097 1959 3097 
z
M 1959 3584 
Q 2709 3584 3137 3096 
Q 3566 2609 3566 1747 
Q 3566 888 3137 398 
Q 2709 -91 1959 -91 
Q 1206 -91 779 398 
Q 353 888 353 1747 
Q 353 2609 779 3096 
Q 1206 3584 1959 3584 
z
" transform="scale(0.015625)"/>
      <path id="DejaVuSans-69" d="M 603 3500 
L 1178 3500 
L 1178 0 
L 603 0 
L 603 3500 
z
M 603 4863 
L 1178 4863 
L 1178 4134 
L 603 4134 
L 603 4863 
z
" transform="scale(0.015625)"/>
      <path id="DejaVuSans-6e" d="M 3513 2113 
L 3513 0 
L 2938 0 
L 2938 2094 
Q 2938 2591 2744 2837 
Q 2550 3084 2163 3084 
Q 1697 3084 1428 2787 
Q 1159 2491 1159 1978 
L 1159 0 
L 581 0 
L 581 3500 
L 1159 3500 
L 1159 2956 
Q 1366 3272 1645 3428 
Q 1925 3584 2291 3584 
Q 2894 3584 3203 3211 
Q 3513 2838 3513 2113 
z
" transform="scale(0.015625)"/>
      <path id="DejaVuSans-2d" d="M 313 2009 
L 1997 2009 
L 1997 1497 
L 313 1497 
L 313 2009 
z
" transform="scale(0.015625)"/>
      <path id="DejaVuSans-70" d="M 1159 525 
L 1159 -1331 
L 581 -1331 
L 581 3500 
L 1159 3500 
L 1159 2969 
Q 1341 3281 1617 3432 
Q 1894 3584 2278 3584 
Q 2916 3584 3314 3078 
Q 3713 2572 3713 1747 
Q 3713 922 3314 415 
Q 2916 -91 2278 -91 
Q 1894 -91 1617 61 
Q 1341 213 1159 525 
z
M 3116 1747 
Q 3116 2381 2855 2742 
Q 2594 3103 2138 3103 
Q 1681 3103 1420 2742 
Q 1159 2381 1159 1747 
Q 1159 1113 1420 752 
Q 1681 391 2138 391 
Q 2594 391 2855 752 
Q 3116 1113 3116 1747 
z
" transform="scale(0.015625)"/>
      <path id="DejaVuSans-74" d="M 1172 4494 
L 1172 3500 
L 2356 3500 
L 2356 3053 
L 1172 3053 
L 1172 1153 
Q 1172 725 1289 603 
Q 1406 481 1766 481 
L 2356 481 
L 2356 0 
L 1766 0 
Q 1100 0 847 248 
Q 594 497 594 1153 
L 594 3053 
L 172 3053 
L 172 3500 
L 594 3500 
L 594 4494 
L 1172 4494 
z
" transform="scale(0.015625)"/>
     </defs>
     <use xlink:href="#DejaVuSans-45" transform="translate(0 0.015625)"/>
     <use xlink:href="#DejaVuSans-72" transform="translate(63.183594 0.015625)"/>
     <use xlink:href="#DejaVuSans-72" transform="translate(104.296875 0.015625)"/>
     <use xlink:href="#DejaVuSans-6f" transform="translate(145.410156 0.015625)"/>
     <use xlink:href="#DejaVuSans-72" transform="translate(206.591797 0.015625)"/>
     <use xlink:href="#DejaVuSans-20" transform="translate(247.705078 0.015625)"/>
     <use xlink:href="#DejaVuSans-69" transform="translate(279.492188 0.015625)"/>
     <use xlink:href="#DejaVuSans-6e" transform="translate(307.275391 0.015625)"/>
     <use xlink:href="#DejaVuSans-20" transform="translate(370.654297 0.015625)"/>
     <use xlink:href="#DejaVuSans-Oblique-78" transform="translate(402.441406 0.015625)"/>
     <use xlink:href="#DejaVuSans-2d" transform="translate(461.621094 0.015625)"/>
     <use xlink:href="#DejaVuSans-70" transform="translate(497.705078 0.015625)"/>
     <use xlink:href="#DejaVuSans-6f" transform="translate(561.181641 0.015625)"/>
     <use xlink:href="#DejaVuSans-73" transform="translate(622.363281 0.015625)"/>
     <use xlink:href="#DejaVuSans-69" transform="translate(674.462891 0.015625)"/>
     <use xlink:href="#DejaVuSans-74" transform="translate(702.246094 0.015625)"/>
     <use xlink:href="#DejaVuSans-69" transform="translate(741.455078 0.015625)"/>
     <use xlink:href="#DejaVuSans-6f" transform="translate(769.238281 0.015625)"/>
     <use xlink:href="#DejaVuSans-6e" transform="translate(830.419922 0.015625)"/>
    </g>
   </g>
  </g>
  <g id="axes_2">
   <g id="patch_7">
    <path d="M 58.016 190.3975 
L 448.038944 190.3975 
L 448.038944 139.92 
L 58.016 139.92 
z
" style="fill: #ffffff"/>
   </g>
   <g id="matplotlib.axis_3">
    <g id="xtick_9">
     <g id="line2d_22">
      <path d="M 75.744316 190.3975 
L 75.744316 139.92 
" clip-path="url(#p84c47c6020)" style="fill: none; stroke: #b0b0b0; stroke-width: 0.8; stroke-linecap: square"/>
     </g>
     <g id="line2d_23">
      <g>
       <use xlink:href="#m71a4ba3869" x="75.744316" y="190.3975" style="stroke: #000000; stroke-width: 0.8"/>
      </g>
     </g>
     <g id="text_14">
      <!-- 0 -->
      <g transform="translate(72.563066 204.995937)scale(0.1 -0.1)">
       <use xlink:href="#DejaVuSans-30"/>
      </g>
     </g>
    </g>
    <g id="xtick_10">
     <g id="line2d_24">
      <path d="M 128.743765 190.3975 
L 128.743765 139.92 
" clip-path="url(#p84c47c6020)" style="fill: none; stroke: #b0b0b0; stroke-width: 0.8; stroke-linecap: square"/>
     </g>
     <g id="line2d_25">
      <g>
       <use xlink:href="#m71a4ba3869" x="128.743765" y="190.3975" style="stroke: #000000; stroke-width: 0.8"/>
      </g>
     </g>
     <g id="text_15">
      <!-- 1 -->
      <g transform="translate(125.562515 204.995937)scale(0.1 -0.1)">
       <use xlink:href="#DejaVuSans-31"/>
      </g>
     </g>
    </g>
    <g id="xtick_11">
     <g id="line2d_26">
      <path d="M 181.743213 190.3975 
L 181.743213 139.92 
" clip-path="url(#p84c47c6020)" style="fill: none; stroke: #b0b0b0; stroke-width: 0.8; stroke-linecap: square"/>
     </g>
     <g id="line2d_27">
      <g>
       <use xlink:href="#m71a4ba3869" x="181.743213" y="190.3975" style="stroke: #000000; stroke-width: 0.8"/>
      </g>
     </g>
     <g id="text_16">
      <!-- 2 -->
      <g transform="translate(178.561963 204.995937)scale(0.1 -0.1)">
       <use xlink:href="#DejaVuSans-32"/>
      </g>
     </g>
    </g>
    <g id="xtick_12">
     <g id="line2d_28">
      <path d="M 234.742662 190.3975 
L 234.742662 139.92 
" clip-path="url(#p84c47c6020)" style="fill: none; stroke: #b0b0b0; stroke-width: 0.8; stroke-linecap: square"/>
     </g>
     <g id="line2d_29">
      <g>
       <use xlink:href="#m71a4ba3869" x="234.742662" y="190.3975" style="stroke: #000000; stroke-width: 0.8"/>
      </g>
     </g>
     <g id="text_17">
      <!-- 3 -->
      <g transform="translate(231.561412 204.995937)scale(0.1 -0.1)">
       <use xlink:href="#DejaVuSans-33"/>
      </g>
     </g>
    </g>
    <g id="xtick_13">
     <g id="line2d_30">
      <path d="M 287.742111 190.3975 
L 287.742111 139.92 
" clip-path="url(#p84c47c6020)" style="fill: none; stroke: #b0b0b0; stroke-width: 0.8; stroke-linecap: square"/>
     </g>
     <g id="line2d_31">
      <g>
       <use xlink:href="#m71a4ba3869" x="287.742111" y="190.3975" style="stroke: #000000; stroke-width: 0.8"/>
      </g>
     </g>
     <g id="text_18">
      <!-- 4 -->
      <g transform="translate(284.560861 204.995937)scale(0.1 -0.1)">
       <use xlink:href="#DejaVuSans-34"/>
      </g>
     </g>
    </g>
    <g id="xtick_14">
     <g id="line2d_32">
      <path d="M 340.74156 190.3975 
L 340.74156 139.92 
" clip-path="url(#p84c47c6020)" style="fill: none; stroke: #b0b0b0; stroke-width: 0.8; stroke-linecap: square"/>
     </g>
     <g id="line2d_33">
      <g>
       <use xlink:href="#m71a4ba3869" x="340.74156" y="190.3975" style="stroke: #000000; stroke-width: 0.8"/>
      </g>
     </g>
     <g id="text_19">
      <!-- 5 -->
      <g transform="translate(337.56031 204.995937)scale(0.1 -0.1)">
       <use xlink:href="#DejaVuSans-35"/>
      </g>
     </g>
    </g>
    <g id="xtick_15">
     <g id="line2d_34">
      <path d="M 393.741009 190.3975 
L 393.741009 139.92 
" clip-path="url(#p84c47c6020)" style="fill: none; stroke: #b0b0b0; stroke-width: 0.8; stroke-linecap: square"/>
     </g>
     <g id="line2d_35">
      <g>
       <use xlink:href="#m71a4ba3869" x="393.741009" y="190.3975" style="stroke: #000000; stroke-width: 0.8"/>
      </g>
     </g>
     <g id="text_20">
      <!-- 6 -->
      <g transform="translate(390.559759 204.995937)scale(0.1 -0.1)">
       <use xlink:href="#DejaVuSans-36"/>
      </g>
     </g>
    </g>
    <g id="xtick_16">
     <g id="line2d_36">
      <path d="M 446.740458 190.3975 
L 446.740458 139.92 
" clip-path="url(#p84c47c6020)" style="fill: none; stroke: #b0b0b0; stroke-width: 0.8; stroke-linecap: square"/>
     </g>
     <g id="line2d_37">
      <g>
       <use xlink:href="#m71a4ba3869" x="446.740458" y="190.3975" style="stroke: #000000; stroke-width: 0.8"/>
      </g>
     </g>
     <g id="text_21">
      <!-- 7 -->
      <g transform="translate(443.559208 204.995937)scale(0.1 -0.1)">
       <use xlink:href="#DejaVuSans-37"/>
      </g>
     </g>
    </g>
    <g id="text_22">
     <!-- $t$ [s] -->
     <g transform="translate(242.927472 218.674062)scale(0.1 -0.1)">
      <use xlink:href="#DejaVuSans-Oblique-74" transform="translate(0 0.015625)"/>
      <use xlink:href="#DejaVuSans-20" transform="translate(39.208984 0.015625)"/>
      <use xlink:href="#DejaVuSans-5b" transform="translate(70.996094 0.015625)"/>
      <use xlink:href="#DejaVuSans-73" transform="translate(110.009766 0.015625)"/>
      <use xlink:href="#DejaVuSans-5d" transform="translate(162.109375 0.015625)"/>
     </g>
    </g>
   </g>
   <g id="matplotlib.axis_4">
    <g id="ytick_3">
     <g id="line2d_38">
      <path d="M 58.016 173.297312 
L 448.038944 173.297312 
" clip-path="url(#p84c47c6020)" style="fill: none; stroke: #b0b0b0; stroke-width: 0.8; stroke-linecap: square"/>
     </g>
     <g id="line2d_39">
      <g>
       <use xlink:href="#m11013af8d4" x="58.016" y="173.297312" style="stroke: #000000; stroke-width: 0.8"/>
      </g>
     </g>
     <g id="text_23">
      <!-- 0.00 -->
      <g transform="translate(28.750375 177.096531)scale(0.1 -0.1)">
       <defs>
        <path id="DejaVuSans-2e" d="M 684 794 
L 1344 794 
L 1344 0 
L 684 0 
L 684 794 
z
" transform="scale(0.015625)"/>
       </defs>
       <use xlink:href="#DejaVuSans-30"/>
       <use xlink:href="#DejaVuSans-2e" x="63.623047"/>
       <use xlink:href="#DejaVuSans-30" x="95.410156"/>
       <use xlink:href="#DejaVuSans-30" x="159.033203"/>
      </g>
     </g>
    </g>
    <g id="ytick_4">
     <g id="line2d_40">
      <path d="M 58.016 144.067165 
L 448.038944 144.067165 
" clip-path="url(#p84c47c6020)" style="fill: none; stroke: #b0b0b0; stroke-width: 0.8; stroke-linecap: square"/>
     </g>
     <g id="line2d_41">
      <g>
       <use xlink:href="#m11013af8d4" x="58.016" y="144.067165" style="stroke: #000000; stroke-width: 0.8"/>
      </g>
     </g>
     <g id="text_24">
      <!-- 0.05 -->
      <g transform="translate(28.750375 147.866384)scale(0.1 -0.1)">
       <use xlink:href="#DejaVuSans-30"/>
       <use xlink:href="#DejaVuSans-2e" x="63.623047"/>
       <use xlink:href="#DejaVuSans-30" x="95.410156"/>
       <use xlink:href="#DejaVuSans-35" x="159.033203"/>
      </g>
     </g>
    </g>
    <g id="text_25">
     <!-- $e_z$ [m] -->
     <g transform="translate(22.670688 180.60875)rotate(-90)scale(0.1 -0.1)">
      <defs>
       <path id="DejaVuSans-Oblique-7a" d="M 744 3500 
L 3475 3500 
L 3372 2975 
L 738 459 
L 2913 459 
L 2822 0 
L -19 0 
L 84 525 
L 2719 3041 
L 653 3041 
L 744 3500 
z
" transform="scale(0.015625)"/>
      </defs>
      <use xlink:href="#DejaVuSans-Oblique-65" transform="translate(0 0.015625)"/>
      <use xlink:href="#DejaVuSans-Oblique-7a" transform="translate(61.523438 -16.390625)scale(0.7)"/>
      <use xlink:href="#DejaVuSans-20" transform="translate(101.000977 0.015625)"/>
      <use xlink:href="#DejaVuSans-5b" transform="translate(132.788086 0.015625)"/>
      <use xlink:href="#DejaVuSans-6d" transform="translate(171.801758 0.015625)"/>
      <use xlink:href="#DejaVuSans-5d" transform="translate(269.213867 0.015625)"/>
     </g>
    </g>
   </g>
   <g id="line2d_42">
    <path d="M 75.744316 178.95951 
L 76.275104 178.587866 
L 77.336679 178.142042 
L 77.867467 177.871625 
L 78.929043 177.596841 
L 79.459831 177.250196 
L 83.175346 176.216671 
L 84.236922 175.986218 
L 84.76771 175.806047 
L 85.298498 175.806047 
L 86.360074 175.538325 
L 87.421649 175.319668 
L 87.952437 175.14923 
L 88.483225 175.14923 
L 89.544801 174.904952 
L 91.137165 174.644549 
L 98.037407 173.859338 
L 101.222135 173.880673 
L 104.406862 174.288015 
L 104.93765 174.478058 
L 105.468438 174.478058 
L 105.999226 174.829366 
L 107.060801 175.034369 
L 108.653165 175.586012 
L 109.183953 175.943789 
L 110.776317 176.53083 
L 112.899468 177.721891 
L 114.491832 178.512289 
L 115.02262 178.959027 
L 118.207347 180.304505 
L 118.738135 180.66575 
L 122.45365 181.791368 
L 125.10759 182.124615 
L 127.761529 182.045869 
L 128.292317 181.877835 
L 129.884681 181.675148 
L 130.415469 181.476317 
L 130.946257 181.476317 
L 131.477044 181.127432 
L 132.53862 180.934229 
L 133.069408 180.799838 
L 133.600196 180.448216 
L 134.130984 180.448216 
L 134.661772 180.156145 
L 136.784923 179.4889 
L 137.315711 179.197612 
L 139.438863 178.643472 
L 139.969651 178.324107 
L 140.500439 178.324107 
L 141.031227 178.087155 
L 145.808318 177.16387 
L 150.585409 176.725262 
L 161.731954 176.285142 
L 164.385894 176.052551 
L 165.978258 175.964813 
L 169.162985 175.815166 
L 172.347712 175.834829 
L 176.063228 176.133121 
L 177.655591 176.343458 
L 178.717167 176.560033 
L 180.309531 176.892283 
L 181.901894 177.212311 
L 182.96347 177.402408 
L 184.025046 177.689443 
L 185.61741 178.01595 
L 186.678985 178.279248 
L 191.986864 179.038562 
L 198.887107 178.933011 
L 199.417895 178.787391 
L 201.010259 178.643222 
L 201.541046 178.51585 
L 202.071834 178.51585 
L 202.602622 178.309736 
L 204.194986 178.127792 
L 204.725774 177.978362 
L 205.256562 177.978362 
L 205.78735 177.752833 
L 207.379713 177.567434 
L 208.441289 177.351858 
L 210.033653 177.116628 
L 216.933895 176.396531 
L 219.587835 176.261522 
L 223.30335 176.150108 
L 227.018865 176.167068 
L 228.611229 176.30659 
L 230.203593 176.551215 
L 231.795956 176.811281 
L 232.326744 176.967637 
L 232.857532 176.967637 
L 233.919108 177.197293 
L 238.696199 177.750129 
L 240.288563 177.641226 
L 242.411714 177.056582 
L 242.942502 176.601646 
L 244.004078 176.021266 
L 244.534866 175.502039 
L 245.065654 174.698983 
L 245.596442 174.698983 
L 246.127229 173.779597 
L 247.188805 172.753867 
L 247.719593 171.923443 
L 248.250381 170.746156 
L 248.781169 170.746156 
L 249.311957 169.506028 
L 249.842745 169.506028 
L 250.373533 167.575132 
L 250.904321 167.248549 
L 252.496684 165.263219 
L 253.027472 164.250252 
L 253.55826 162.87505 
L 255.681412 160.032101 
L 256.212199 158.933778 
L 256.742987 157.445504 
L 258.866139 154.417484 
L 259.396927 153.281244 
L 259.927715 151.783087 
L 261.520078 149.612896 
L 262.050866 148.251193 
L 262.581654 148.251193 
L 263.112442 146.397593 
L 263.64323 146.116533 
L 266.297169 143.462952 
L 267.358745 143.11346 
L 267.889533 143.038308 
L 268.420321 143.170867 
L 268.951109 143.170867 
L 271.07426 144.97502 
L 271.605048 146.334445 
L 272.135836 146.334445 
L 272.666624 149.042065 
L 273.197412 149.562961 
L 274.789776 153.007856 
L 275.320564 154.877129 
L 275.851351 157.43381 
L 277.443715 161.246074 
L 277.974503 164.25354 
L 278.505291 164.25354 
L 279.036079 166.463366 
L 281.15923 170.581663 
L 281.690018 171.985029 
L 282.751594 173.117798 
L 284.874746 174.940677 
L 285.936321 175.196986 
L 286.997897 175.251429 
L 289.121049 174.805289 
L 290.713413 174.202226 
L 291.2442 174.008197 
L 291.774988 173.608612 
L 293.367352 172.92577 
L 293.89814 172.574477 
L 296.552079 171.845425 
L 297.613655 171.759105 
L 298.675231 171.71583 
L 299.736807 171.844477 
L 300.267595 171.970525 
L 300.798382 171.970525 
L 303.452322 173.054059 
L 303.98311 173.054059 
L 304.513898 173.417726 
L 306.106261 174.064416 
L 306.637049 174.420925 
L 310.883352 175.706466 
L 313.537292 176.040507 
L 316.191231 175.997804 
L 319.375959 175.681681 
L 322.560686 175.770517 
L 323.091474 175.839157 
L 325.214626 176.637645 
L 325.745413 176.950667 
L 326.276201 176.950667 
L 326.806989 177.442297 
L 327.868565 178.016008 
L 328.399353 178.498161 
L 328.930141 179.205973 
L 329.460929 179.205973 
L 329.991717 179.980009 
L 330.522505 180.388365 
L 331.58408 181.672645 
L 332.114868 181.892891 
L 332.645656 182.335734 
L 333.176444 183.221527 
L 334.23802 184.089639 
L 335.299596 185.50776 
L 335.830383 185.50776 
L 336.361171 186.226736 
L 337.953535 187.256316 
L 338.484323 187.681744 
L 339.015111 187.681744 
L 339.545899 187.968172 
L 340.607475 188.103068 
L 341.138262 188.098047 
L 341.66905 187.93977 
L 342.199838 187.93977 
L 343.261414 187.365389 
L 343.792202 187.081803 
L 344.32299 186.569418 
L 344.853778 185.720683 
L 345.384566 185.720683 
L 345.915353 184.685987 
L 346.976929 183.476107 
L 347.507717 182.464283 
L 348.038505 180.983201 
L 348.569293 180.983201 
L 349.100081 179.371316 
L 349.630869 178.524346 
L 351.223232 174.496526 
L 351.75402 174.496526 
L 352.284808 172.610226 
L 352.815596 171.641383 
L 354.40796 167.04911 
L 354.938748 167.04911 
L 355.469536 164.890556 
L 356.000323 163.786304 
L 357.592687 158.678393 
L 358.123475 158.678393 
L 358.654263 156.391965 
L 359.185051 155.258818 
L 360.777414 150.39143 
L 361.308202 150.39143 
L 361.83899 148.439125 
L 362.369778 147.530824 
L 363.431354 145.140179 
L 363.962142 144.167965 
L 364.49293 144.167965 
L 365.023718 143.142906 
L 366.085293 142.466862 
L 366.616081 142.214432 
L 367.146869 142.251215 
L 367.677657 142.439041 
L 368.739233 143.173265 
L 369.800809 144.403613 
L 370.331597 145.652632 
L 370.862384 147.717994 
L 372.454748 151.508269 
L 372.985536 152.903445 
L 373.516324 155.063006 
L 374.047112 157.986255 
L 375.639475 162.254139 
L 376.170263 164.253747 
L 376.701051 166.710149 
L 377.231839 166.710149 
L 377.762627 168.874202 
L 379.354991 171.863735 
L 379.885779 173.089213 
L 380.416567 173.089213 
L 380.947354 173.963745 
L 382.00893 174.4995 
L 382.539718 174.692292 
L 383.601294 174.686895 
L 385.193658 173.899724 
L 385.724445 173.386981 
L 386.255233 172.560085 
L 388.378385 170.578397 
L 388.909173 169.782147 
L 389.439961 168.725665 
L 389.970749 168.725665 
L 390.501536 167.7115 
L 392.0939 166.148241 
L 392.624688 165.43308 
L 393.155476 165.43308 
L 393.686264 164.880463 
L 395.278628 164.336016 
L 396.340203 164.338661 
L 397.401779 164.677124 
L 399.524931 165.939336 
L 400.586506 167.411503 
L 401.117294 168.132629 
L 401.648082 168.382157 
L 402.709658 169.413775 
L 403.240446 170.740809 
L 403.771234 170.740809 
L 404.302022 171.798568 
L 406.955961 174.501244 
L 407.486749 175.354061 
L 410.671476 177.650724 
L 412.794628 178.304037 
L 414.91778 178.234164 
L 415.979355 177.98016 
L 417.040931 177.483282 
L 418.102507 177.050086 
L 418.633295 176.681191 
L 419.164083 176.144599 
L 419.694871 176.144599 
L 420.225659 175.571778 
L 420.756446 175.276428 
L 421.818022 174.37956 
L 422.34881 174.231196 
L 422.879598 173.937767 
L 423.410386 173.37032 
L 424.471962 172.715511 
L 425.00275 172.360881 
L 426.064325 172.040098 
L 426.595113 171.672057 
L 428.718265 171.125413 
L 430.310629 170.994142 
L 430.310629 170.994142 
" clip-path="url(#p84c47c6020)" style="fill: none; stroke: #0000ff; stroke-width: 1.5; stroke-linecap: square"/>
   </g>
   <g id="patch_8">
    <path d="M 58.016 190.3975 
L 58.016 139.92 
" style="fill: none; stroke: #000000; stroke-width: 0.8; stroke-linejoin: miter; stroke-linecap: square"/>
   </g>
   <g id="patch_9">
    <path d="M 448.038944 190.3975 
L 448.038944 139.92 
" style="fill: none; stroke: #000000; stroke-width: 0.8; stroke-linejoin: miter; stroke-linecap: square"/>
   </g>
   <g id="patch_10">
    <path d="M 58.016 190.3975 
L 448.038944 190.3975 
" style="fill: none; stroke: #000000; stroke-width: 0.8; stroke-linejoin: miter; stroke-linecap: square"/>
   </g>
   <g id="patch_11">
    <path d="M 58.016 139.92 
L 448.038944 139.92 
" style="fill: none; stroke: #000000; stroke-width: 0.8; stroke-linejoin: miter; stroke-linecap: square"/>
   </g>
   <g id="text_26">
    <!-- Error in $z$-position -->
    <g transform="translate(199.747472 133.92)scale(0.12 -0.12)">
     <use xlink:href="#DejaVuSans-45" transform="translate(0 0.015625)"/>
     <use xlink:href="#DejaVuSans-72" transform="translate(63.183594 0.015625)"/>
     <use xlink:href="#DejaVuSans-72" transform="translate(104.296875 0.015625)"/>
     <use xlink:href="#DejaVuSans-6f" transform="translate(145.410156 0.015625)"/>
     <use xlink:href="#DejaVuSans-72" transform="translate(206.591797 0.015625)"/>
     <use xlink:href="#DejaVuSans-20" transform="translate(247.705078 0.015625)"/>
     <use xlink:href="#DejaVuSans-69" transform="translate(279.492188 0.015625)"/>
     <use xlink:href="#DejaVuSans-6e" transform="translate(307.275391 0.015625)"/>
     <use xlink:href="#DejaVuSans-20" transform="translate(370.654297 0.015625)"/>
     <use xlink:href="#DejaVuSans-Oblique-7a" transform="translate(402.441406 0.015625)"/>
     <use xlink:href="#DejaVuSans-2d" transform="translate(454.931641 0.015625)"/>
     <use xlink:href="#DejaVuSans-70" transform="translate(491.015625 0.015625)"/>
     <use xlink:href="#DejaVuSans-6f" transform="translate(554.492188 0.015625)"/>
     <use xlink:href="#DejaVuSans-73" transform="translate(615.673828 0.015625)"/>
     <use xlink:href="#DejaVuSans-69" transform="translate(667.773438 0.015625)"/>
     <use xlink:href="#DejaVuSans-74" transform="translate(695.556641 0.015625)"/>
     <use xlink:href="#DejaVuSans-69" transform="translate(734.765625 0.015625)"/>
     <use xlink:href="#DejaVuSans-6f" transform="translate(762.548828 0.015625)"/>
     <use xlink:href="#DejaVuSans-6e" transform="translate(823.730469 0.015625)"/>
    </g>
   </g>
  </g>
  <g id="axes_3">
   <g id="patch_12">
    <path d="M 58.016 301.9975 
L 448.038944 301.9975 
L 448.038944 251.52 
L 58.016 251.52 
z
" style="fill: #ffffff"/>
   </g>
   <g id="matplotlib.axis_5">
    <g id="xtick_17">
     <g id="line2d_43">
      <path d="M 75.744316 301.9975 
L 75.744316 251.52 
" clip-path="url(#pf75e1e9b98)" style="fill: none; stroke: #b0b0b0; stroke-width: 0.8; stroke-linecap: square"/>
     </g>
     <g id="line2d_44">
      <g>
       <use xlink:href="#m71a4ba3869" x="75.744316" y="301.9975" style="stroke: #000000; stroke-width: 0.8"/>
      </g>
     </g>
     <g id="text_27">
      <!-- 0 -->
      <g transform="translate(72.563066 316.595937)scale(0.1 -0.1)">
       <use xlink:href="#DejaVuSans-30"/>
      </g>
     </g>
    </g>
    <g id="xtick_18">
     <g id="line2d_45">
      <path d="M 128.743765 301.9975 
L 128.743765 251.52 
" clip-path="url(#pf75e1e9b98)" style="fill: none; stroke: #b0b0b0; stroke-width: 0.8; stroke-linecap: square"/>
     </g>
     <g id="line2d_46">
      <g>
       <use xlink:href="#m71a4ba3869" x="128.743765" y="301.9975" style="stroke: #000000; stroke-width: 0.8"/>
      </g>
     </g>
     <g id="text_28">
      <!-- 1 -->
      <g transform="translate(125.562515 316.595937)scale(0.1 -0.1)">
       <use xlink:href="#DejaVuSans-31"/>
      </g>
     </g>
    </g>
    <g id="xtick_19">
     <g id="line2d_47">
      <path d="M 181.743213 301.9975 
L 181.743213 251.52 
" clip-path="url(#pf75e1e9b98)" style="fill: none; stroke: #b0b0b0; stroke-width: 0.8; stroke-linecap: square"/>
     </g>
     <g id="line2d_48">
      <g>
       <use xlink:href="#m71a4ba3869" x="181.743213" y="301.9975" style="stroke: #000000; stroke-width: 0.8"/>
      </g>
     </g>
     <g id="text_29">
      <!-- 2 -->
      <g transform="translate(178.561963 316.595937)scale(0.1 -0.1)">
       <use xlink:href="#DejaVuSans-32"/>
      </g>
     </g>
    </g>
    <g id="xtick_20">
     <g id="line2d_49">
      <path d="M 234.742662 301.9975 
L 234.742662 251.52 
" clip-path="url(#pf75e1e9b98)" style="fill: none; stroke: #b0b0b0; stroke-width: 0.8; stroke-linecap: square"/>
     </g>
     <g id="line2d_50">
      <g>
       <use xlink:href="#m71a4ba3869" x="234.742662" y="301.9975" style="stroke: #000000; stroke-width: 0.8"/>
      </g>
     </g>
     <g id="text_30">
      <!-- 3 -->
      <g transform="translate(231.561412 316.595937)scale(0.1 -0.1)">
       <use xlink:href="#DejaVuSans-33"/>
      </g>
     </g>
    </g>
    <g id="xtick_21">
     <g id="line2d_51">
      <path d="M 287.742111 301.9975 
L 287.742111 251.52 
" clip-path="url(#pf75e1e9b98)" style="fill: none; stroke: #b0b0b0; stroke-width: 0.8; stroke-linecap: square"/>
     </g>
     <g id="line2d_52">
      <g>
       <use xlink:href="#m71a4ba3869" x="287.742111" y="301.9975" style="stroke: #000000; stroke-width: 0.8"/>
      </g>
     </g>
     <g id="text_31">
      <!-- 4 -->
      <g transform="translate(284.560861 316.595937)scale(0.1 -0.1)">
       <use xlink:href="#DejaVuSans-34"/>
      </g>
     </g>
    </g>
    <g id="xtick_22">
     <g id="line2d_53">
      <path d="M 340.74156 301.9975 
L 340.74156 251.52 
" clip-path="url(#pf75e1e9b98)" style="fill: none; stroke: #b0b0b0; stroke-width: 0.8; stroke-linecap: square"/>
     </g>
     <g id="line2d_54">
      <g>
       <use xlink:href="#m71a4ba3869" x="340.74156" y="301.9975" style="stroke: #000000; stroke-width: 0.8"/>
      </g>
     </g>
     <g id="text_32">
      <!-- 5 -->
      <g transform="translate(337.56031 316.595937)scale(0.1 -0.1)">
       <use xlink:href="#DejaVuSans-35"/>
      </g>
     </g>
    </g>
    <g id="xtick_23">
     <g id="line2d_55">
      <path d="M 393.741009 301.9975 
L 393.741009 251.52 
" clip-path="url(#pf75e1e9b98)" style="fill: none; stroke: #b0b0b0; stroke-width: 0.8; stroke-linecap: square"/>
     </g>
     <g id="line2d_56">
      <g>
       <use xlink:href="#m71a4ba3869" x="393.741009" y="301.9975" style="stroke: #000000; stroke-width: 0.8"/>
      </g>
     </g>
     <g id="text_33">
      <!-- 6 -->
      <g transform="translate(390.559759 316.595937)scale(0.1 -0.1)">
       <use xlink:href="#DejaVuSans-36"/>
      </g>
     </g>
    </g>
    <g id="xtick_24">
     <g id="line2d_57">
      <path d="M 446.740458 301.9975 
L 446.740458 251.52 
" clip-path="url(#pf75e1e9b98)" style="fill: none; stroke: #b0b0b0; stroke-width: 0.8; stroke-linecap: square"/>
     </g>
     <g id="line2d_58">
      <g>
       <use xlink:href="#m71a4ba3869" x="446.740458" y="301.9975" style="stroke: #000000; stroke-width: 0.8"/>
      </g>
     </g>
     <g id="text_34">
      <!-- 7 -->
      <g transform="translate(443.559208 316.595937)scale(0.1 -0.1)">
       <use xlink:href="#DejaVuSans-37"/>
      </g>
     </g>
    </g>
    <g id="text_35">
     <!-- $t$ [s] -->
     <g transform="translate(242.927472 330.274063)scale(0.1 -0.1)">
      <use xlink:href="#DejaVuSans-Oblique-74" transform="translate(0 0.015625)"/>
      <use xlink:href="#DejaVuSans-20" transform="translate(39.208984 0.015625)"/>
      <use xlink:href="#DejaVuSans-5b" transform="translate(70.996094 0.015625)"/>
      <use xlink:href="#DejaVuSans-73" transform="translate(110.009766 0.015625)"/>
      <use xlink:href="#DejaVuSans-5d" transform="translate(162.109375 0.015625)"/>
     </g>
    </g>
   </g>
   <g id="matplotlib.axis_6">
    <g id="ytick_5">
     <g id="line2d_59">
      <path d="M 58.016 292.116604 
L 448.038944 292.116604 
" clip-path="url(#pf75e1e9b98)" style="fill: none; stroke: #b0b0b0; stroke-width: 0.8; stroke-linecap: square"/>
     </g>
     <g id="line2d_60">
      <g>
       <use xlink:href="#m11013af8d4" x="58.016" y="292.116604" style="stroke: #000000; stroke-width: 0.8"/>
      </g>
     </g>
     <g id="text_36">
      <!-- −2.5 -->
      <g transform="translate(26.733188 295.915823)scale(0.1 -0.1)">
       <defs>
        <path id="DejaVuSans-2212" d="M 678 2272 
L 4684 2272 
L 4684 1741 
L 678 1741 
L 678 2272 
z
" transform="scale(0.015625)"/>
       </defs>
       <use xlink:href="#DejaVuSans-2212"/>
       <use xlink:href="#DejaVuSans-32" x="83.789062"/>
       <use xlink:href="#DejaVuSans-2e" x="147.412109"/>
       <use xlink:href="#DejaVuSans-35" x="179.199219"/>
      </g>
     </g>
    </g>
    <g id="ytick_6">
     <g id="line2d_61">
      <path d="M 58.016 272.77883 
L 448.038944 272.77883 
" clip-path="url(#pf75e1e9b98)" style="fill: none; stroke: #b0b0b0; stroke-width: 0.8; stroke-linecap: square"/>
     </g>
     <g id="line2d_62">
      <g>
       <use xlink:href="#m11013af8d4" x="58.016" y="272.77883" style="stroke: #000000; stroke-width: 0.8"/>
      </g>
     </g>
     <g id="text_37">
      <!-- 0.0 -->
      <g transform="translate(35.112875 276.578049)scale(0.1 -0.1)">
       <use xlink:href="#DejaVuSans-30"/>
       <use xlink:href="#DejaVuSans-2e" x="63.623047"/>
       <use xlink:href="#DejaVuSans-30" x="95.410156"/>
      </g>
     </g>
    </g>
    <g id="ytick_7">
     <g id="line2d_63">
      <path d="M 58.016 253.441056 
L 448.038944 253.441056 
" clip-path="url(#pf75e1e9b98)" style="fill: none; stroke: #b0b0b0; stroke-width: 0.8; stroke-linecap: square"/>
     </g>
     <g id="line2d_64">
      <g>
       <use xlink:href="#m11013af8d4" x="58.016" y="253.441056" style="stroke: #000000; stroke-width: 0.8"/>
      </g>
     </g>
     <g id="text_38">
      <!-- 2.5 -->
      <g transform="translate(35.112875 257.240275)scale(0.1 -0.1)">
       <use xlink:href="#DejaVuSans-32"/>
       <use xlink:href="#DejaVuSans-2e" x="63.623047"/>
       <use xlink:href="#DejaVuSans-35" x="95.410156"/>
      </g>
     </g>
    </g>
    <g id="text_39">
     <!-- $e_\theta$ [rad] -->
     <g transform="translate(20.6535 295.90875)rotate(-90)scale(0.1 -0.1)">
      <defs>
       <path id="DejaVuSans-Oblique-3b8" d="M 2913 2219 
L 925 2219 
Q 791 1284 928 888 
Q 1100 400 1566 400 
Q 2034 400 2391 891 
Q 2703 1322 2913 2219 
z
M 3009 2750 
Q 3094 3638 2984 3950 
Q 2813 4444 2353 4444 
Q 1875 4444 1525 3956 
Q 1250 3563 1034 2750 
L 3009 2750 
z
M 2444 4913 
Q 3194 4913 3494 4250 
Q 3794 3591 3566 2422 
Q 3341 1256 2781 594 
Q 2225 -72 1475 -72 
Q 722 -72 425 594 
Q 128 1256 353 2422 
Q 581 3591 1134 4250 
Q 1691 4913 2444 4913 
z
" transform="scale(0.015625)"/>
       <path id="DejaVuSans-61" d="M 2194 1759 
Q 1497 1759 1228 1600 
Q 959 1441 959 1056 
Q 959 750 1161 570 
Q 1363 391 1709 391 
Q 2188 391 2477 730 
Q 2766 1069 2766 1631 
L 2766 1759 
L 2194 1759 
z
M 3341 1997 
L 3341 0 
L 2766 0 
L 2766 531 
Q 2569 213 2275 61 
Q 1981 -91 1556 -91 
Q 1019 -91 701 211 
Q 384 513 384 1019 
Q 384 1609 779 1909 
Q 1175 2209 1959 2209 
L 2766 2209 
L 2766 2266 
Q 2766 2663 2505 2880 
Q 2244 3097 1772 3097 
Q 1472 3097 1187 3025 
Q 903 2953 641 2809 
L 641 3341 
Q 956 3463 1253 3523 
Q 1550 3584 1831 3584 
Q 2591 3584 2966 3190 
Q 3341 2797 3341 1997 
z
" transform="scale(0.015625)"/>
       <path id="DejaVuSans-64" d="M 2906 2969 
L 2906 4863 
L 3481 4863 
L 3481 0 
L 2906 0 
L 2906 525 
Q 2725 213 2448 61 
Q 2172 -91 1784 -91 
Q 1150 -91 751 415 
Q 353 922 353 1747 
Q 353 2572 751 3078 
Q 1150 3584 1784 3584 
Q 2172 3584 2448 3432 
Q 2725 3281 2906 2969 
z
M 947 1747 
Q 947 1113 1208 752 
Q 1469 391 1925 391 
Q 2381 391 2643 752 
Q 2906 1113 2906 1747 
Q 2906 2381 2643 2742 
Q 2381 3103 1925 3103 
Q 1469 3103 1208 2742 
Q 947 2381 947 1747 
z
" transform="scale(0.015625)"/>
      </defs>
      <use xlink:href="#DejaVuSans-Oblique-65" transform="translate(0 0.015625)"/>
      <use xlink:href="#DejaVuSans-Oblique-3b8" transform="translate(61.523438 -16.390625)scale(0.7)"/>
      <use xlink:href="#DejaVuSans-20" transform="translate(107.084961 0.015625)"/>
      <use xlink:href="#DejaVuSans-5b" transform="translate(138.87207 0.015625)"/>
      <use xlink:href="#DejaVuSans-72" transform="translate(177.885742 0.015625)"/>
      <use xlink:href="#DejaVuSans-61" transform="translate(218.999023 0.015625)"/>
      <use xlink:href="#DejaVuSans-64" transform="translate(280.27832 0.015625)"/>
      <use xlink:href="#DejaVuSans-5d" transform="translate(343.754883 0.015625)"/>
     </g>
    </g>
   </g>
   <g id="line2d_65">
    <path d="M 75.744316 260.636615 
L 78.398255 260.5608 
L 79.990619 260.308035 
L 81.052195 260.115049 
L 81.582982 259.960763 
L 82.11377 259.960763 
L 83.175346 259.742776 
L 91.137165 258.810979 
L 100.691347 258.343521 
L 106.530013 258.233011 
L 115.02262 258.261822 
L 126.169166 258.519336 
L 145.27753 258.832176 
L 155.3625 258.700604 
L 165.978258 258.461221 
L 176.063228 258.32553 
L 187.209773 258.402221 
L 221.180198 258.734901 
L 228.080441 258.757698 
L 231.265168 259.165027 
L 234.980684 260.118188 
L 235.511472 260.377061 
L 236.042259 260.377061 
L 236.573047 260.643728 
L 238.165411 261.10192 
L 238.696199 261.350812 
L 239.226987 261.350812 
L 239.757775 261.586512 
L 245.065654 262.706424 
L 246.127229 262.814428 
L 250.373533 263.104409 
L 253.027472 263.012508 
L 255.150624 262.39513 
L 255.681412 262.064222 
L 256.212199 261.14177 
L 256.742987 256.960005 
L 257.273775 299.703068 
L 257.804563 294.644557 
L 258.335351 292.373574 
L 258.866139 291.29449 
L 259.396927 290.485513 
L 259.927715 289.965135 
L 262.050866 289.452227 
L 262.581654 289.452227 
L 263.112442 289.304996 
L 265.766382 289.123782 
L 268.420321 288.86085 
L 269.481897 288.782698 
L 272.135836 288.566723 
L 272.666624 288.42269 
L 274.789776 288.24418 
L 279.036079 287.701342 
L 287.528685 287.120204 
L 292.836564 287.012411 
L 299.736807 287.042892 
L 311.944928 287.454386 
L 323.091474 287.749393 
L 327.868565 287.214841 
L 334.23802 285.783794 
L 336.891959 285.006551 
L 337.953535 284.696763 
L 338.484323 284.448254 
L 339.015111 284.448254 
L 339.545899 284.198357 
L 341.138262 283.766763 
L 341.66905 283.524373 
L 342.199838 283.524373 
L 343.261414 283.172315 
L 344.32299 282.893269 
L 344.853778 282.682203 
L 345.384566 282.682203 
L 346.446141 282.393766 
L 349.630869 281.911178 
L 350.692444 281.955336 
L 351.223232 282.174019 
L 351.75402 282.174019 
L 352.284808 283.631465 
L 352.815596 289.125086 
L 353.346384 253.814432 
L 353.877172 255.121807 
L 354.40796 255.456299 
L 354.938748 255.456299 
L 355.469536 255.585 
L 357.592687 255.536581 
L 360.246627 255.427301 
L 363.431354 255.46678 
L 366.616081 255.776267 
L 367.677657 256.007315 
L 369.800809 256.418465 
L 373.516324 257.725482 
L 374.047112 258.04914 
L 376.170263 258.747151 
L 376.701051 259.029058 
L 377.231839 259.029058 
L 377.762627 259.287464 
L 381.478142 260.058023 
L 385.193658 260.339764 
L 388.909173 260.327518 
L 394.217052 260.230286 
L 399.524931 260.344659 
L 405.894385 260.739975 
L 415.979355 261.167495 
L 420.225659 261.043501 
L 423.941174 260.768636 
L 428.187477 260.370352 
L 430.310629 260.290991 
L 430.310629 260.290991 
" clip-path="url(#pf75e1e9b98)" style="fill: none; stroke: #008000; stroke-width: 1.5; stroke-linecap: square"/>
   </g>
   <g id="patch_13">
    <path d="M 58.016 301.9975 
L 58.016 251.52 
" style="fill: none; stroke: #000000; stroke-width: 0.8; stroke-linejoin: miter; stroke-linecap: square"/>
   </g>
   <g id="patch_14">
    <path d="M 448.038944 301.9975 
L 448.038944 251.52 
" style="fill: none; stroke: #000000; stroke-width: 0.8; stroke-linejoin: miter; stroke-linecap: square"/>
   </g>
   <g id="patch_15">
    <path d="M 58.016 301.9975 
L 448.038944 301.9975 
" style="fill: none; stroke: #000000; stroke-width: 0.8; stroke-linejoin: miter; stroke-linecap: square"/>
   </g>
   <g id="patch_16">
    <path d="M 58.016 251.52 
L 448.038944 251.52 
" style="fill: none; stroke: #000000; stroke-width: 0.8; stroke-linejoin: miter; stroke-linecap: square"/>
   </g>
   <g id="text_40">
    <!-- Error in swing angle -->
    <g transform="translate(193.25716 245.52)scale(0.12 -0.12)">
     <defs>
      <path id="DejaVuSans-77" d="M 269 3500 
L 844 3500 
L 1563 769 
L 2278 3500 
L 2956 3500 
L 3675 769 
L 4391 3500 
L 4966 3500 
L 4050 0 
L 3372 0 
L 2619 2869 
L 1863 0 
L 1184 0 
L 269 3500 
z
" transform="scale(0.015625)"/>
      <path id="DejaVuSans-67" d="M 2906 1791 
Q 2906 2416 2648 2759 
Q 2391 3103 1925 3103 
Q 1463 3103 1205 2759 
Q 947 2416 947 1791 
Q 947 1169 1205 825 
Q 1463 481 1925 481 
Q 2391 481 2648 825 
Q 2906 1169 2906 1791 
z
M 3481 434 
Q 3481 -459 3084 -895 
Q 2688 -1331 1869 -1331 
Q 1566 -1331 1297 -1286 
Q 1028 -1241 775 -1147 
L 775 -588 
Q 1028 -725 1275 -790 
Q 1522 -856 1778 -856 
Q 2344 -856 2625 -561 
Q 2906 -266 2906 331 
L 2906 616 
Q 2728 306 2450 153 
Q 2172 0 1784 0 
Q 1141 0 747 490 
Q 353 981 353 1791 
Q 353 2603 747 3093 
Q 1141 3584 1784 3584 
Q 2172 3584 2450 3431 
Q 2728 3278 2906 2969 
L 2906 3500 
L 3481 3500 
L 3481 434 
z
" transform="scale(0.015625)"/>
      <path id="DejaVuSans-6c" d="M 603 4863 
L 1178 4863 
L 1178 0 
L 603 0 
L 603 4863 
z
" transform="scale(0.015625)"/>
      <path id="DejaVuSans-65" d="M 3597 1894 
L 3597 1613 
L 953 1613 
Q 991 1019 1311 708 
Q 1631 397 2203 397 
Q 2534 397 2845 478 
Q 3156 559 3463 722 
L 3463 178 
Q 3153 47 2828 -22 
Q 2503 -91 2169 -91 
Q 1331 -91 842 396 
Q 353 884 353 1716 
Q 353 2575 817 3079 
Q 1281 3584 2069 3584 
Q 2775 3584 3186 3129 
Q 3597 2675 3597 1894 
z
M 3022 2063 
Q 3016 2534 2758 2815 
Q 2500 3097 2075 3097 
Q 1594 3097 1305 2825 
Q 1016 2553 972 2059 
L 3022 2063 
z
" transform="scale(0.015625)"/>
     </defs>
     <use xlink:href="#DejaVuSans-45"/>
     <use xlink:href="#DejaVuSans-72" x="63.183594"/>
     <use xlink:href="#DejaVuSans-72" x="102.546875"/>
     <use xlink:href="#DejaVuSans-6f" x="141.410156"/>
     <use xlink:href="#DejaVuSans-72" x="202.591797"/>
     <use xlink:href="#DejaVuSans-20" x="243.705078"/>
     <use xlink:href="#DejaVuSans-69" x="275.492188"/>
     <use xlink:href="#DejaVuSans-6e" x="303.275391"/>
     <use xlink:href="#DejaVuSans-20" x="366.654297"/>
     <use xlink:href="#DejaVuSans-73" x="398.441406"/>
     <use xlink:href="#DejaVuSans-77" x="450.541016"/>
     <use xlink:href="#DejaVuSans-69" x="532.328125"/>
     <use xlink:href="#DejaVuSans-6e" x="560.111328"/>
     <use xlink:href="#DejaVuSans-67" x="623.490234"/>
     <use xlink:href="#DejaVuSans-20" x="686.966797"/>
     <use xlink:href="#DejaVuSans-61" x="718.753906"/>
     <use xlink:href="#DejaVuSans-6e" x="780.033203"/>
     <use xlink:href="#DejaVuSans-67" x="843.412109"/>
     <use xlink:href="#DejaVuSans-6c" x="906.888672"/>
     <use xlink:href="#DejaVuSans-65" x="934.671875"/>
    </g>
   </g>
  </g>
 </g>
 <defs>
  <clipPath id="pa15f7b3ac3">
   <rect x="58.016" y="28.32" width="390.022944" height="50.4775"/>
  </clipPath>
  <clipPath id="p84c47c6020">
   <rect x="58.016" y="139.92" width="390.022944" height="50.4775"/>
  </clipPath>
  <clipPath id="pf75e1e9b98">
   <rect x="58.016" y="251.52" width="390.022944" height="50.4775"/>
  </clipPath>
 </defs>
</svg>
