<?xml version="1.0" encoding="utf-8" standalone="no"?>
<!DOCTYPE svg PUBLIC "-//W3C//DTD SVG 1.1//EN"
  "http://www.w3.org/Graphics/SVG/1.1/DTD/svg11.dtd">
<svg xmlns:xlink="http://www.w3.org/1999/xlink" width="460.8pt" height="345.6pt" viewBox="0 0 460.8 345.6" xmlns="http://www.w3.org/2000/svg" version="1.1">
 <metadata>
  <rdf:RDF xmlns:dc="http://purl.org/dc/elements/1.1/" xmlns:cc="http://creativecommons.org/ns#" xmlns:rdf="http://www.w3.org/1999/02/22-rdf-syntax-ns#">
   <cc:Work>
    <dc:type rdf:resource="http://purl.org/dc/dcmitype/StillImage"/>
    <dc:date>2022-06-05T14:19:25.673126</dc:date>
    <dc:format>image/svg+xml</dc:format>
    <dc:creator>
     <cc:Agent>
      <dc:title>Matplotlib v3.5.1, https://matplotlib.org/</dc:title>
     </cc:Agent>
    </dc:creator>
   </cc:Work>
  </rdf:RDF>
 </metadata>
 <defs>
  <style type="text/css">*{stroke-linejoin: round; stroke-linecap: butt}</style>
 </defs>
 <g id="figure_1">
  <g id="patch_1">
   <path d="M 0 345.6 
L 460.8 345.6 
L 460.8 0 
L 0 0 
z
" style="fill: #ffffff"/>
  </g>
  <g id="axes_1">
   <g id="patch_2">
    <path d="M 58.106 78.7975 
L 450 78.7975 
L 450 28.32 
L 58.106 28.32 
z
" style="fill: #ffffff"/>
   </g>
   <g id="matplotlib.axis_1">
    <g id="xtick_1">
     <g id="line2d_1">
      <path d="M 75.919364 78.7975 
L 75.919364 28.32 
" clip-path="url(#p65cca6394e)" style="fill: none; stroke: #b0b0b0; stroke-width: 0.8; stroke-linecap: square"/>
     </g>
     <g id="line2d_2">
      <defs>
       <path id="mc3834fb527" d="M 0 0 
L 0 3.5 
" style="stroke: #000000; stroke-width: 0.8"/>
      </defs>
      <g>
       <use xlink:href="#mc3834fb527" x="75.919364" y="78.7975" style="stroke: #000000; stroke-width: 0.8"/>
      </g>
     </g>
     <g id="text_1">
      <!-- 0 -->
      <g transform="translate(72.738114 93.395937)scale(0.1 -0.1)">
       <defs>
        <path id="DejaVuSans-30" d="M 2034 4250 
Q 1547 4250 1301 3770 
Q 1056 3291 1056 2328 
Q 1056 1369 1301 889 
Q 1547 409 2034 409 
Q 2525 409 2770 889 
Q 3016 1369 3016 2328 
Q 3016 3291 2770 3770 
Q 2525 4250 2034 4250 
z
M 2034 4750 
Q 2819 4750 3233 4129 
Q 3647 3509 3647 2328 
Q 3647 1150 3233 529 
Q 2819 -91 2034 -91 
Q 1250 -91 836 529 
Q 422 1150 422 2328 
Q 422 3509 836 4129 
Q 1250 4750 2034 4750 
z
" transform="scale(0.015625)"/>
       </defs>
       <use xlink:href="#DejaVuSans-30"/>
      </g>
     </g>
    </g>
    <g id="xtick_2">
     <g id="line2d_3">
      <path d="M 134.564182 78.7975 
L 134.564182 28.32 
" clip-path="url(#p65cca6394e)" style="fill: none; stroke: #b0b0b0; stroke-width: 0.8; stroke-linecap: square"/>
     </g>
     <g id="line2d_4">
      <g>
       <use xlink:href="#mc3834fb527" x="134.564182" y="78.7975" style="stroke: #000000; stroke-width: 0.8"/>
      </g>
     </g>
     <g id="text_2">
      <!-- 2 -->
      <g transform="translate(131.382932 93.395937)scale(0.1 -0.1)">
       <defs>
        <path id="DejaVuSans-32" d="M 1228 531 
L 3431 531 
L 3431 0 
L 469 0 
L 469 531 
Q 828 903 1448 1529 
Q 2069 2156 2228 2338 
Q 2531 2678 2651 2914 
Q 2772 3150 2772 3378 
Q 2772 3750 2511 3984 
Q 2250 4219 1831 4219 
Q 1534 4219 1204 4116 
Q 875 4013 500 3803 
L 500 4441 
Q 881 4594 1212 4672 
Q 1544 4750 1819 4750 
Q 2544 4750 2975 4387 
Q 3406 4025 3406 3419 
Q 3406 3131 3298 2873 
Q 3191 2616 2906 2266 
Q 2828 2175 2409 1742 
Q 1991 1309 1228 531 
z
" transform="scale(0.015625)"/>
       </defs>
       <use xlink:href="#DejaVuSans-32"/>
      </g>
     </g>
    </g>
    <g id="xtick_3">
     <g id="line2d_5">
      <path d="M 193.209001 78.7975 
L 193.209001 28.32 
" clip-path="url(#p65cca6394e)" style="fill: none; stroke: #b0b0b0; stroke-width: 0.8; stroke-linecap: square"/>
     </g>
     <g id="line2d_6">
      <g>
       <use xlink:href="#mc3834fb527" x="193.209001" y="78.7975" style="stroke: #000000; stroke-width: 0.8"/>
      </g>
     </g>
     <g id="text_3">
      <!-- 4 -->
      <g transform="translate(190.027751 93.395937)scale(0.1 -0.1)">
       <defs>
        <path id="DejaVuSans-34" d="M 2419 4116 
L 825 1625 
L 2419 1625 
L 2419 4116 
z
M 2253 4666 
L 3047 4666 
L 3047 1625 
L 3713 1625 
L 3713 1100 
L 3047 1100 
L 3047 0 
L 2419 0 
L 2419 1100 
L 313 1100 
L 313 1709 
L 2253 4666 
z
" transform="scale(0.015625)"/>
       </defs>
       <use xlink:href="#DejaVuSans-34"/>
      </g>
     </g>
    </g>
    <g id="xtick_4">
     <g id="line2d_7">
      <path d="M 251.853819 78.7975 
L 251.853819 28.32 
" clip-path="url(#p65cca6394e)" style="fill: none; stroke: #b0b0b0; stroke-width: 0.8; stroke-linecap: square"/>
     </g>
     <g id="line2d_8">
      <g>
       <use xlink:href="#mc3834fb527" x="251.853819" y="78.7975" style="stroke: #000000; stroke-width: 0.8"/>
      </g>
     </g>
     <g id="text_4">
      <!-- 6 -->
      <g transform="translate(248.672569 93.395937)scale(0.1 -0.1)">
       <defs>
        <path id="DejaVuSans-36" d="M 2113 2584 
Q 1688 2584 1439 2293 
Q 1191 2003 1191 1497 
Q 1191 994 1439 701 
Q 1688 409 2113 409 
Q 2538 409 2786 701 
Q 3034 994 3034 1497 
Q 3034 2003 2786 2293 
Q 2538 2584 2113 2584 
z
M 3366 4563 
L 3366 3988 
Q 3128 4100 2886 4159 
Q 2644 4219 2406 4219 
Q 1781 4219 1451 3797 
Q 1122 3375 1075 2522 
Q 1259 2794 1537 2939 
Q 1816 3084 2150 3084 
Q 2853 3084 3261 2657 
Q 3669 2231 3669 1497 
Q 3669 778 3244 343 
Q 2819 -91 2113 -91 
Q 1303 -91 875 529 
Q 447 1150 447 2328 
Q 447 3434 972 4092 
Q 1497 4750 2381 4750 
Q 2619 4750 2861 4703 
Q 3103 4656 3366 4563 
z
" transform="scale(0.015625)"/>
       </defs>
       <use xlink:href="#DejaVuSans-36"/>
      </g>
     </g>
    </g>
    <g id="xtick_5">
     <g id="line2d_9">
      <path d="M 310.498638 78.7975 
L 310.498638 28.32 
" clip-path="url(#p65cca6394e)" style="fill: none; stroke: #b0b0b0; stroke-width: 0.8; stroke-linecap: square"/>
     </g>
     <g id="line2d_10">
      <g>
       <use xlink:href="#mc3834fb527" x="310.498638" y="78.7975" style="stroke: #000000; stroke-width: 0.8"/>
      </g>
     </g>
     <g id="text_5">
      <!-- 8 -->
      <g transform="translate(307.317388 93.395937)scale(0.1 -0.1)">
       <defs>
        <path id="DejaVuSans-38" d="M 2034 2216 
Q 1584 2216 1326 1975 
Q 1069 1734 1069 1313 
Q 1069 891 1326 650 
Q 1584 409 2034 409 
Q 2484 409 2743 651 
Q 3003 894 3003 1313 
Q 3003 1734 2745 1975 
Q 2488 2216 2034 2216 
z
M 1403 2484 
Q 997 2584 770 2862 
Q 544 3141 544 3541 
Q 544 4100 942 4425 
Q 1341 4750 2034 4750 
Q 2731 4750 3128 4425 
Q 3525 4100 3525 3541 
Q 3525 3141 3298 2862 
Q 3072 2584 2669 2484 
Q 3125 2378 3379 2068 
Q 3634 1759 3634 1313 
Q 3634 634 3220 271 
Q 2806 -91 2034 -91 
Q 1263 -91 848 271 
Q 434 634 434 1313 
Q 434 1759 690 2068 
Q 947 2378 1403 2484 
z
M 1172 3481 
Q 1172 3119 1398 2916 
Q 1625 2713 2034 2713 
Q 2441 2713 2670 2916 
Q 2900 3119 2900 3481 
Q 2900 3844 2670 4047 
Q 2441 4250 2034 4250 
Q 1625 4250 1398 4047 
Q 1172 3844 1172 3481 
z
" transform="scale(0.015625)"/>
       </defs>
       <use xlink:href="#DejaVuSans-38"/>
      </g>
     </g>
    </g>
    <g id="xtick_6">
     <g id="line2d_11">
      <path d="M 369.143456 78.7975 
L 369.143456 28.32 
" clip-path="url(#p65cca6394e)" style="fill: none; stroke: #b0b0b0; stroke-width: 0.8; stroke-linecap: square"/>
     </g>
     <g id="line2d_12">
      <g>
       <use xlink:href="#mc3834fb527" x="369.143456" y="78.7975" style="stroke: #000000; stroke-width: 0.8"/>
      </g>
     </g>
     <g id="text_6">
      <!-- 10 -->
      <g transform="translate(362.780956 93.395937)scale(0.1 -0.1)">
       <defs>
        <path id="DejaVuSans-31" d="M 794 531 
L 1825 531 
L 1825 4091 
L 703 3866 
L 703 4441 
L 1819 4666 
L 2450 4666 
L 2450 531 
L 3481 531 
L 3481 0 
L 794 0 
L 794 531 
z
" transform="scale(0.015625)"/>
       </defs>
       <use xlink:href="#DejaVuSans-31"/>
       <use xlink:href="#DejaVuSans-30" x="63.623047"/>
      </g>
     </g>
    </g>
    <g id="xtick_7">
     <g id="line2d_13">
      <path d="M 427.788275 78.7975 
L 427.788275 28.32 
" clip-path="url(#p65cca6394e)" style="fill: none; stroke: #b0b0b0; stroke-width: 0.8; stroke-linecap: square"/>
     </g>
     <g id="line2d_14">
      <g>
       <use xlink:href="#mc3834fb527" x="427.788275" y="78.7975" style="stroke: #000000; stroke-width: 0.8"/>
      </g>
     </g>
     <g id="text_7">
      <!-- 12 -->
      <g transform="translate(421.425775 93.395937)scale(0.1 -0.1)">
       <use xlink:href="#DejaVuSans-31"/>
       <use xlink:href="#DejaVuSans-32" x="63.623047"/>
      </g>
     </g>
    </g>
    <g id="text_8">
     <!-- $t$ [s] -->
     <g transform="translate(243.953 107.074062)scale(0.1 -0.1)">
      <defs>
       <path id="DejaVuSans-Oblique-74" d="M 2706 3500 
L 2619 3053 
L 1472 3053 
L 1100 1153 
Q 1081 1047 1072 975 
Q 1063 903 1063 863 
Q 1063 663 1183 572 
Q 1303 481 1569 481 
L 2150 481 
L 2053 0 
L 1503 0 
Q 991 0 739 200 
Q 488 400 488 806 
Q 488 878 497 964 
Q 506 1050 525 1153 
L 897 3053 
L 409 3053 
L 500 3500 
L 978 3500 
L 1172 4494 
L 1747 4494 
L 1556 3500 
L 2706 3500 
z
" transform="scale(0.015625)"/>
       <path id="DejaVuSans-20" transform="scale(0.015625)"/>
       <path id="DejaVuSans-5b" d="M 550 4863 
L 1875 4863 
L 1875 4416 
L 1125 4416 
L 1125 -397 
L 1875 -397 
L 1875 -844 
L 550 -844 
L 550 4863 
z
" transform="scale(0.015625)"/>
       <path id="DejaVuSans-73" d="M 2834 3397 
L 2834 2853 
Q 2591 2978 2328 3040 
Q 2066 3103 1784 3103 
Q 1356 3103 1142 2972 
Q 928 2841 928 2578 
Q 928 2378 1081 2264 
Q 1234 2150 1697 2047 
L 1894 2003 
Q 2506 1872 2764 1633 
Q 3022 1394 3022 966 
Q 3022 478 2636 193 
Q 2250 -91 1575 -91 
Q 1294 -91 989 -36 
Q 684 19 347 128 
L 347 722 
Q 666 556 975 473 
Q 1284 391 1588 391 
Q 1994 391 2212 530 
Q 2431 669 2431 922 
Q 2431 1156 2273 1281 
Q 2116 1406 1581 1522 
L 1381 1569 
Q 847 1681 609 1914 
Q 372 2147 372 2553 
Q 372 3047 722 3315 
Q 1072 3584 1716 3584 
Q 2034 3584 2315 3537 
Q 2597 3491 2834 3397 
z
" transform="scale(0.015625)"/>
       <path id="DejaVuSans-5d" d="M 1947 4863 
L 1947 -844 
L 622 -844 
L 622 -397 
L 1369 -397 
L 1369 4416 
L 622 4416 
L 622 4863 
L 1947 4863 
z
" transform="scale(0.015625)"/>
      </defs>
      <use xlink:href="#DejaVuSans-Oblique-74" transform="translate(0 0.015625)"/>
      <use xlink:href="#DejaVuSans-20" transform="translate(39.208984 0.015625)"/>
      <use xlink:href="#DejaVuSans-5b" transform="translate(70.996094 0.015625)"/>
      <use xlink:href="#DejaVuSans-73" transform="translate(110.009766 0.015625)"/>
      <use xlink:href="#DejaVuSans-5d" transform="translate(162.109375 0.015625)"/>
     </g>
    </g>
   </g>
   <g id="matplotlib.axis_2">
    <g id="ytick_1">
     <g id="line2d_15">
      <path d="M 58.106 76.685023 
L 450 76.685023 
" clip-path="url(#p65cca6394e)" style="fill: none; stroke: #b0b0b0; stroke-width: 0.8; stroke-linecap: square"/>
     </g>
     <g id="line2d_16">
      <defs>
       <path id="md84edc4a32" d="M 0 0 
L -3.5 0 
" style="stroke: #000000; stroke-width: 0.8"/>
      </defs>
      <g>
       <use xlink:href="#md84edc4a32" x="58.106" y="76.685023" style="stroke: #000000; stroke-width: 0.8"/>
      </g>
     </g>
     <g id="text_9">
      <!-- 0 -->
      <g transform="translate(44.7435 80.484242)scale(0.1 -0.1)">
       <use xlink:href="#DejaVuSans-30"/>
      </g>
     </g>
    </g>
    <g id="ytick_2">
     <g id="line2d_17">
      <path d="M 58.106 30.614432 
L 450 30.614432 
" clip-path="url(#p65cca6394e)" style="fill: none; stroke: #b0b0b0; stroke-width: 0.8; stroke-linecap: square"/>
     </g>
     <g id="line2d_18">
      <g>
       <use xlink:href="#md84edc4a32" x="58.106" y="30.614432" style="stroke: #000000; stroke-width: 0.8"/>
      </g>
     </g>
     <g id="text_10">
      <!-- 10 -->
      <g transform="translate(38.381 34.413651)scale(0.1 -0.1)">
       <use xlink:href="#DejaVuSans-31"/>
       <use xlink:href="#DejaVuSans-30" x="63.623047"/>
      </g>
     </g>
    </g>
    <g id="text_11">
     <!-- $e_x$ [m] -->
     <g transform="translate(32.301313 69.20875)rotate(-90)scale(0.1 -0.1)">
      <defs>
       <path id="DejaVuSans-Oblique-65" d="M 3078 2063 
Q 3088 2113 3092 2166 
Q 3097 2219 3097 2272 
Q 3097 2653 2873 2875 
Q 2650 3097 2266 3097 
Q 1838 3097 1509 2826 
Q 1181 2556 1013 2059 
L 3078 2063 
z
M 3578 1613 
L 903 1613 
Q 884 1494 878 1425 
Q 872 1356 872 1306 
Q 872 872 1139 634 
Q 1406 397 1894 397 
Q 2269 397 2603 481 
Q 2938 566 3225 728 
L 3116 159 
Q 2806 34 2476 -28 
Q 2147 -91 1806 -91 
Q 1078 -91 686 257 
Q 294 606 294 1247 
Q 294 1794 489 2264 
Q 684 2734 1063 3103 
Q 1306 3334 1642 3459 
Q 1978 3584 2356 3584 
Q 2950 3584 3301 3228 
Q 3653 2872 3653 2272 
Q 3653 2128 3634 1964 
Q 3616 1800 3578 1613 
z
" transform="scale(0.015625)"/>
       <path id="DejaVuSans-Oblique-78" d="M 3841 3500 
L 2234 1784 
L 3219 0 
L 2559 0 
L 1819 1388 
L 531 0 
L -166 0 
L 1556 1844 
L 641 3500 
L 1300 3500 
L 1972 2234 
L 3144 3500 
L 3841 3500 
z
" transform="scale(0.015625)"/>
       <path id="DejaVuSans-6d" d="M 3328 2828 
Q 3544 3216 3844 3400 
Q 4144 3584 4550 3584 
Q 5097 3584 5394 3201 
Q 5691 2819 5691 2113 
L 5691 0 
L 5113 0 
L 5113 2094 
Q 5113 2597 4934 2840 
Q 4756 3084 4391 3084 
Q 3944 3084 3684 2787 
Q 3425 2491 3425 1978 
L 3425 0 
L 2847 0 
L 2847 2094 
Q 2847 2600 2669 2842 
Q 2491 3084 2119 3084 
Q 1678 3084 1418 2786 
Q 1159 2488 1159 1978 
L 1159 0 
L 581 0 
L 581 3500 
L 1159 3500 
L 1159 2956 
Q 1356 3278 1631 3431 
Q 1906 3584 2284 3584 
Q 2666 3584 2933 3390 
Q 3200 3197 3328 2828 
z
" transform="scale(0.015625)"/>
      </defs>
      <use xlink:href="#DejaVuSans-Oblique-65" transform="translate(0 0.015625)"/>
      <use xlink:href="#DejaVuSans-Oblique-78" transform="translate(61.523438 -16.390625)scale(0.7)"/>
      <use xlink:href="#DejaVuSans-20" transform="translate(105.683594 0.015625)"/>
      <use xlink:href="#DejaVuSans-5b" transform="translate(137.470703 0.015625)"/>
      <use xlink:href="#DejaVuSans-6d" transform="translate(176.484375 0.015625)"/>
      <use xlink:href="#DejaVuSans-5d" transform="translate(273.896484 0.015625)"/>
     </g>
    </g>
   </g>
   <g id="line2d_19">
    <path d="M 75.919364 30.614432 
L 82.962539 30.710121 
L 87.951454 30.927768 
L 95.875026 31.233635 
L 99.103148 31.544942 
L 100.277011 31.642801 
L 111.135239 33.150046 
L 112.309102 33.330396 
L 114.950292 33.759439 
L 115.830689 33.930435 
L 117.884948 34.323981 
L 121.11307 35.01948 
L 123.754261 35.569643 
L 124.634658 35.77276 
L 127.275849 36.326692 
L 130.797436 37.230524 
L 131.090902 37.230524 
L 131.384367 37.404965 
L 132.264764 37.551374 
L 132.55823 37.698863 
L 132.851696 37.698863 
L 133.732092 37.937473 
L 134.612489 38.118807 
L 134.905955 38.302391 
L 135.786352 38.457152 
L 136.666749 38.739597 
L 138.134077 39.122401 
L 140.481802 39.734786 
L 143.122993 40.499968 
L 146.057649 41.236198 
L 146.64458 41.415267 
L 149.285771 42.058811 
L 150.166168 42.287197 
L 152.513893 42.841309 
L 155.155083 43.460756 
L 157.796274 44.047194 
L 159.850533 44.495262 
L 162.198258 44.990451 
L 163.078655 45.247913 
L 163.959052 45.375487 
L 164.839449 45.628046 
L 165.719846 45.753067 
L 166.893708 46.050281 
L 168.947968 46.490732 
L 169.534899 46.587859 
L 171.882624 47.070322 
L 174.523815 47.627189 
L 177.458471 48.220868 
L 179.219265 48.540039 
L 180.980059 48.903285 
L 183.034318 49.310562 
L 183.621249 49.399669 
L 186.26244 49.882966 
L 187.142837 50.059362 
L 190.077493 50.586049 
L 190.95789 50.757179 
L 193.599081 51.22864 
L 194.479477 51.405859 
L 197.414134 51.942498 
L 198.294531 52.11656 
L 200.935721 52.58635 
L 202.403049 52.916685 
L 202.989981 53.00659 
L 206.218103 53.585809 
L 207.685431 53.906863 
L 208.272362 53.992022 
L 210.620087 54.4261 
L 212.967812 54.843025 
L 215.609003 55.326945 
L 218.250193 55.785803 
L 220.891384 56.268929 
L 223.532575 56.747659 
L 224.119506 56.826795 
L 227.054162 57.314789 
L 227.934559 57.478459 
L 232.043078 58.142963 
L 237.325459 59.090332 
L 238.499322 59.265269 
L 242.60784 59.973338 
L 243.781703 60.155693 
L 248.183687 60.866561 
L 249.35755 61.057201 
L 252.879137 61.64491 
L 256.694191 62.237908 
L 261.389641 63.021051 
L 265.49816 63.642495 
L 266.672022 63.825829 
L 269.313213 64.239582 
L 270.487075 64.420258 
L 274.302128 64.986125 
L 275.475991 65.163728 
L 279.58451 65.767999 
L 280.464907 65.915243 
L 281.638769 66.075521 
L 284.866891 66.538543 
L 291.6166 67.43284 
L 292.790463 67.587089 
L 296.605516 68.104241 
L 299.833638 68.521515 
L 302.768294 68.911221 
L 305.996416 69.33505 
L 310.104935 69.83817 
L 311.278798 69.987772 
L 315.387316 70.527115 
L 316.854644 70.712144 
L 322.723957 71.47139 
L 323.604354 71.562574 
L 329.180201 72.239064 
L 332.995254 72.725737 
L 337.103773 73.193962 
L 337.690704 73.293231 
L 341.799223 73.790716 
L 343.266551 73.964457 
L 347.962001 74.474189 
L 351.777054 74.885501 
L 356.179039 75.292758 
L 370.558854 76.126555 
L 382.004014 76.37317 
L 392.275311 76.267196 
L 411.350577 75.874931 
L 421.915339 75.981132 
L 432.186636 76.503068 
L 432.186636 76.503068 
" clip-path="url(#p65cca6394e)" style="fill: none; stroke: #ff0000; stroke-width: 1.5; stroke-linecap: square"/>
   </g>
   <g id="patch_3">
    <path d="M 58.106 78.7975 
L 58.106 28.32 
" style="fill: none; stroke: #000000; stroke-width: 0.8; stroke-linejoin: miter; stroke-linecap: square"/>
   </g>
   <g id="patch_4">
    <path d="M 450 78.7975 
L 450 28.32 
" style="fill: none; stroke: #000000; stroke-width: 0.8; stroke-linejoin: miter; stroke-linecap: square"/>
   </g>
   <g id="patch_5">
    <path d="M 58.106 78.7975 
L 450 78.7975 
" style="fill: none; stroke: #000000; stroke-width: 0.8; stroke-linejoin: miter; stroke-linecap: square"/>
   </g>
   <g id="patch_6">
    <path d="M 58.106 28.32 
L 450 28.32 
" style="fill: none; stroke: #000000; stroke-width: 0.8; stroke-linejoin: miter; stroke-linecap: square"/>
   </g>
   <g id="text_12">
    <!-- Error in $x$-position -->
    <g transform="translate(200.413 22.32)scale(0.12 -0.12)">
     <defs>
      <path id="DejaVuSans-45" d="M 628 4666 
L 3578 4666 
L 3578 4134 
L 1259 4134 
L 1259 2753 
L 3481 2753 
L 3481 2222 
L 1259 2222 
L 1259 531 
L 3634 531 
L 3634 0 
L 628 0 
L 628 4666 
z
" transform="scale(0.015625)"/>
      <path id="DejaVuSans-72" d="M 2631 2963 
Q 2534 3019 2420 3045 
Q 2306 3072 2169 3072 
Q 1681 3072 1420 2755 
Q 1159 2438 1159 1844 
L 1159 0 
L 581 0 
L 581 3500 
L 1159 3500 
L 1159 2956 
Q 1341 3275 1631 3429 
Q 1922 3584 2338 3584 
Q 2397 3584 2469 3576 
Q 2541 3569 2628 3553 
L 2631 2963 
z
" transform="scale(0.015625)"/>
      <path id="DejaVuSans-6f" d="M 1959 3097 
Q 1497 3097 1228 2736 
Q 959 2375 959 1747 
Q 959 1119 1226 758 
Q 1494 397 1959 397 
Q 2419 397 2687 759 
Q 2956 1122 2956 1747 
Q 2956 2369 2687 2733 
Q 2419 3097 1959 3097 
z
M 1959 3584 
Q 2709 3584 3137 3096 
Q 3566 2609 3566 1747 
Q 3566 888 3137 398 
Q 2709 -91 1959 -91 
Q 1206 -91 779 398 
Q 353 888 353 1747 
Q 353 2609 779 3096 
Q 1206 3584 1959 3584 
z
" transform="scale(0.015625)"/>
      <path id="DejaVuSans-69" d="M 603 3500 
L 1178 3500 
L 1178 0 
L 603 0 
L 603 3500 
z
M 603 4863 
L 1178 4863 
L 1178 4134 
L 603 4134 
L 603 4863 
z
" transform="scale(0.015625)"/>
      <path id="DejaVuSans-6e" d="M 3513 2113 
L 3513 0 
L 2938 0 
L 2938 2094 
Q 2938 2591 2744 2837 
Q 2550 3084 2163 3084 
Q 1697 3084 1428 2787 
Q 1159 2491 1159 1978 
L 1159 0 
L 581 0 
L 581 3500 
L 1159 3500 
L 1159 2956 
Q 1366 3272 1645 3428 
Q 1925 3584 2291 3584 
Q 2894 3584 3203 3211 
Q 3513 2838 3513 2113 
z
" transform="scale(0.015625)"/>
      <path id="DejaVuSans-2d" d="M 313 2009 
L 1997 2009 
L 1997 1497 
L 313 1497 
L 313 2009 
z
" transform="scale(0.015625)"/>
      <path id="DejaVuSans-70" d="M 1159 525 
L 1159 -1331 
L 581 -1331 
L 581 3500 
L 1159 3500 
L 1159 2969 
Q 1341 3281 1617 3432 
Q 1894 3584 2278 3584 
Q 2916 3584 3314 3078 
Q 3713 2572 3713 1747 
Q 3713 922 3314 415 
Q 2916 -91 2278 -91 
Q 1894 -91 1617 61 
Q 1341 213 1159 525 
z
M 3116 1747 
Q 3116 2381 2855 2742 
Q 2594 3103 2138 3103 
Q 1681 3103 1420 2742 
Q 1159 2381 1159 1747 
Q 1159 1113 1420 752 
Q 1681 391 2138 391 
Q 2594 391 2855 752 
Q 3116 1113 3116 1747 
z
" transform="scale(0.015625)"/>
      <path id="DejaVuSans-74" d="M 1172 4494 
L 1172 3500 
L 2356 3500 
L 2356 3053 
L 1172 3053 
L 1172 1153 
Q 1172 725 1289 603 
Q 1406 481 1766 481 
L 2356 481 
L 2356 0 
L 1766 0 
Q 1100 0 847 248 
Q 594 497 594 1153 
L 594 3053 
L 172 3053 
L 172 3500 
L 594 3500 
L 594 4494 
L 1172 4494 
z
" transform="scale(0.015625)"/>
     </defs>
     <use xlink:href="#DejaVuSans-45" transform="translate(0 0.015625)"/>
     <use xlink:href="#DejaVuSans-72" transform="translate(63.183594 0.015625)"/>
     <use xlink:href="#DejaVuSans-72" transform="translate(104.296875 0.015625)"/>
     <use xlink:href="#DejaVuSans-6f" transform="translate(145.410156 0.015625)"/>
     <use xlink:href="#DejaVuSans-72" transform="translate(206.591797 0.015625)"/>
     <use xlink:href="#DejaVuSans-20" transform="translate(247.705078 0.015625)"/>
     <use xlink:href="#DejaVuSans-69" transform="translate(279.492188 0.015625)"/>
     <use xlink:href="#DejaVuSans-6e" transform="translate(307.275391 0.015625)"/>
     <use xlink:href="#DejaVuSans-20" transform="translate(370.654297 0.015625)"/>
     <use xlink:href="#DejaVuSans-Oblique-78" transform="translate(402.441406 0.015625)"/>
     <use xlink:href="#DejaVuSans-2d" transform="translate(461.621094 0.015625)"/>
     <use xlink:href="#DejaVuSans-70" transform="translate(497.705078 0.015625)"/>
     <use xlink:href="#DejaVuSans-6f" transform="translate(561.181641 0.015625)"/>
     <use xlink:href="#DejaVuSans-73" transform="translate(622.363281 0.015625)"/>
     <use xlink:href="#DejaVuSans-69" transform="translate(674.462891 0.015625)"/>
     <use xlink:href="#DejaVuSans-74" transform="translate(702.246094 0.015625)"/>
     <use xlink:href="#DejaVuSans-69" transform="translate(741.455078 0.015625)"/>
     <use xlink:href="#DejaVuSans-6f" transform="translate(769.238281 0.015625)"/>
     <use xlink:href="#DejaVuSans-6e" transform="translate(830.419922 0.015625)"/>
    </g>
   </g>
  </g>
  <g id="axes_2">
   <g id="patch_7">
    <path d="M 58.106 190.3975 
L 450 190.3975 
L 450 139.92 
L 58.106 139.92 
z
" style="fill: #ffffff"/>
   </g>
   <g id="matplotlib.axis_3">
    <g id="xtick_8">
     <g id="line2d_20">
      <path d="M 75.919364 190.3975 
L 75.919364 139.92 
" clip-path="url(#pb2f6b72694)" style="fill: none; stroke: #b0b0b0; stroke-width: 0.8; stroke-linecap: square"/>
     </g>
     <g id="line2d_21">
      <g>
       <use xlink:href="#mc3834fb527" x="75.919364" y="190.3975" style="stroke: #000000; stroke-width: 0.8"/>
      </g>
     </g>
     <g id="text_13">
      <!-- 0 -->
      <g transform="translate(72.738114 204.995937)scale(0.1 -0.1)">
       <use xlink:href="#DejaVuSans-30"/>
      </g>
     </g>
    </g>
    <g id="xtick_9">
     <g id="line2d_22">
      <path d="M 134.564182 190.3975 
L 134.564182 139.92 
" clip-path="url(#pb2f6b72694)" style="fill: none; stroke: #b0b0b0; stroke-width: 0.8; stroke-linecap: square"/>
     </g>
     <g id="line2d_23">
      <g>
       <use xlink:href="#mc3834fb527" x="134.564182" y="190.3975" style="stroke: #000000; stroke-width: 0.8"/>
      </g>
     </g>
     <g id="text_14">
      <!-- 2 -->
      <g transform="translate(131.382932 204.995937)scale(0.1 -0.1)">
       <use xlink:href="#DejaVuSans-32"/>
      </g>
     </g>
    </g>
    <g id="xtick_10">
     <g id="line2d_24">
      <path d="M 193.209001 190.3975 
L 193.209001 139.92 
" clip-path="url(#pb2f6b72694)" style="fill: none; stroke: #b0b0b0; stroke-width: 0.8; stroke-linecap: square"/>
     </g>
     <g id="line2d_25">
      <g>
       <use xlink:href="#mc3834fb527" x="193.209001" y="190.3975" style="stroke: #000000; stroke-width: 0.8"/>
      </g>
     </g>
     <g id="text_15">
      <!-- 4 -->
      <g transform="translate(190.027751 204.995937)scale(0.1 -0.1)">
       <use xlink:href="#DejaVuSans-34"/>
      </g>
     </g>
    </g>
    <g id="xtick_11">
     <g id="line2d_26">
      <path d="M 251.853819 190.3975 
L 251.853819 139.92 
" clip-path="url(#pb2f6b72694)" style="fill: none; stroke: #b0b0b0; stroke-width: 0.8; stroke-linecap: square"/>
     </g>
     <g id="line2d_27">
      <g>
       <use xlink:href="#mc3834fb527" x="251.853819" y="190.3975" style="stroke: #000000; stroke-width: 0.8"/>
      </g>
     </g>
     <g id="text_16">
      <!-- 6 -->
      <g transform="translate(248.672569 204.995937)scale(0.1 -0.1)">
       <use xlink:href="#DejaVuSans-36"/>
      </g>
     </g>
    </g>
    <g id="xtick_12">
     <g id="line2d_28">
      <path d="M 310.498638 190.3975 
L 310.498638 139.92 
" clip-path="url(#pb2f6b72694)" style="fill: none; stroke: #b0b0b0; stroke-width: 0.8; stroke-linecap: square"/>
     </g>
     <g id="line2d_29">
      <g>
       <use xlink:href="#mc3834fb527" x="310.498638" y="190.3975" style="stroke: #000000; stroke-width: 0.8"/>
      </g>
     </g>
     <g id="text_17">
      <!-- 8 -->
      <g transform="translate(307.317388 204.995937)scale(0.1 -0.1)">
       <use xlink:href="#DejaVuSans-38"/>
      </g>
     </g>
    </g>
    <g id="xtick_13">
     <g id="line2d_30">
      <path d="M 369.143456 190.3975 
L 369.143456 139.92 
" clip-path="url(#pb2f6b72694)" style="fill: none; stroke: #b0b0b0; stroke-width: 0.8; stroke-linecap: square"/>
     </g>
     <g id="line2d_31">
      <g>
       <use xlink:href="#mc3834fb527" x="369.143456" y="190.3975" style="stroke: #000000; stroke-width: 0.8"/>
      </g>
     </g>
     <g id="text_18">
      <!-- 10 -->
      <g transform="translate(362.780956 204.995937)scale(0.1 -0.1)">
       <use xlink:href="#DejaVuSans-31"/>
       <use xlink:href="#DejaVuSans-30" x="63.623047"/>
      </g>
     </g>
    </g>
    <g id="xtick_14">
     <g id="line2d_32">
      <path d="M 427.788275 190.3975 
L 427.788275 139.92 
" clip-path="url(#pb2f6b72694)" style="fill: none; stroke: #b0b0b0; stroke-width: 0.8; stroke-linecap: square"/>
     </g>
     <g id="line2d_33">
      <g>
       <use xlink:href="#mc3834fb527" x="427.788275" y="190.3975" style="stroke: #000000; stroke-width: 0.8"/>
      </g>
     </g>
     <g id="text_19">
      <!-- 12 -->
      <g transform="translate(421.425775 204.995937)scale(0.1 -0.1)">
       <use xlink:href="#DejaVuSans-31"/>
       <use xlink:href="#DejaVuSans-32" x="63.623047"/>
      </g>
     </g>
    </g>
    <g id="text_20">
     <!-- $t$ [s] -->
     <g transform="translate(243.953 218.674062)scale(0.1 -0.1)">
      <use xlink:href="#DejaVuSans-Oblique-74" transform="translate(0 0.015625)"/>
      <use xlink:href="#DejaVuSans-20" transform="translate(39.208984 0.015625)"/>
      <use xlink:href="#DejaVuSans-5b" transform="translate(70.996094 0.015625)"/>
      <use xlink:href="#DejaVuSans-73" transform="translate(110.009766 0.015625)"/>
      <use xlink:href="#DejaVuSans-5d" transform="translate(162.109375 0.015625)"/>
     </g>
    </g>
   </g>
   <g id="matplotlib.axis_4">
    <g id="ytick_3">
     <g id="line2d_34">
      <path d="M 58.106 179.428979 
L 450 179.428979 
" clip-path="url(#pb2f6b72694)" style="fill: none; stroke: #b0b0b0; stroke-width: 0.8; stroke-linecap: square"/>
     </g>
     <g id="line2d_35">
      <g>
       <use xlink:href="#md84edc4a32" x="58.106" y="179.428979" style="stroke: #000000; stroke-width: 0.8"/>
      </g>
     </g>
     <g id="text_21">
      <!-- −0.1 -->
      <g transform="translate(26.823188 183.228198)scale(0.1 -0.1)">
       <defs>
        <path id="DejaVuSans-2212" d="M 678 2272 
L 4684 2272 
L 4684 1741 
L 678 1741 
L 678 2272 
z
" transform="scale(0.015625)"/>
        <path id="DejaVuSans-2e" d="M 684 794 
L 1344 794 
L 1344 0 
L 684 0 
L 684 794 
z
" transform="scale(0.015625)"/>
       </defs>
       <use xlink:href="#DejaVuSans-2212"/>
       <use xlink:href="#DejaVuSans-30" x="83.789062"/>
       <use xlink:href="#DejaVuSans-2e" x="147.412109"/>
       <use xlink:href="#DejaVuSans-31" x="179.199219"/>
      </g>
     </g>
    </g>
    <g id="ytick_4">
     <g id="line2d_36">
      <path d="M 58.106 164.34934 
L 450 164.34934 
" clip-path="url(#pb2f6b72694)" style="fill: none; stroke: #b0b0b0; stroke-width: 0.8; stroke-linecap: square"/>
     </g>
     <g id="line2d_37">
      <g>
       <use xlink:href="#md84edc4a32" x="58.106" y="164.34934" style="stroke: #000000; stroke-width: 0.8"/>
      </g>
     </g>
     <g id="text_22">
      <!-- 0.0 -->
      <g transform="translate(35.202875 168.148559)scale(0.1 -0.1)">
       <use xlink:href="#DejaVuSans-30"/>
       <use xlink:href="#DejaVuSans-2e" x="63.623047"/>
       <use xlink:href="#DejaVuSans-30" x="95.410156"/>
      </g>
     </g>
    </g>
    <g id="ytick_5">
     <g id="line2d_38">
      <path d="M 58.106 149.2697 
L 450 149.2697 
" clip-path="url(#pb2f6b72694)" style="fill: none; stroke: #b0b0b0; stroke-width: 0.8; stroke-linecap: square"/>
     </g>
     <g id="line2d_39">
      <g>
       <use xlink:href="#md84edc4a32" x="58.106" y="149.2697" style="stroke: #000000; stroke-width: 0.8"/>
      </g>
     </g>
     <g id="text_23">
      <!-- 0.1 -->
      <g transform="translate(35.202875 153.068919)scale(0.1 -0.1)">
       <use xlink:href="#DejaVuSans-30"/>
       <use xlink:href="#DejaVuSans-2e" x="63.623047"/>
       <use xlink:href="#DejaVuSans-31" x="95.410156"/>
      </g>
     </g>
    </g>
    <g id="text_24">
     <!-- $e_z$ [m] -->
     <g transform="translate(20.7435 180.60875)rotate(-90)scale(0.1 -0.1)">
      <defs>
       <path id="DejaVuSans-Oblique-7a" d="M 744 3500 
L 3475 3500 
L 3372 2975 
L 738 459 
L 2913 459 
L 2822 0 
L -19 0 
L 84 525 
L 2719 3041 
L 653 3041 
L 744 3500 
z
" transform="scale(0.015625)"/>
      </defs>
      <use xlink:href="#DejaVuSans-Oblique-65" transform="translate(0 0.015625)"/>
      <use xlink:href="#DejaVuSans-Oblique-7a" transform="translate(61.523438 -16.390625)scale(0.7)"/>
      <use xlink:href="#DejaVuSans-20" transform="translate(101.000977 0.015625)"/>
      <use xlink:href="#DejaVuSans-5b" transform="translate(132.788086 0.015625)"/>
      <use xlink:href="#DejaVuSans-6d" transform="translate(171.801758 0.015625)"/>
      <use xlink:href="#DejaVuSans-5d" transform="translate(269.213867 0.015625)"/>
     </g>
    </g>
   </g>
   <g id="line2d_40">
    <path d="M 75.919364 165.81642 
L 77.093226 165.868478 
L 79.440951 166.226291 
L 80.321348 166.508752 
L 81.495211 166.515592 
L 82.669073 166.15659 
L 82.962539 166.023018 
L 83.842936 165.244953 
L 84.723332 164.915218 
L 86.777592 164.06709 
L 87.071058 163.578476 
L 87.657989 163.274649 
L 88.538386 162.515749 
L 88.831851 162.05421 
L 89.125317 161.350961 
L 90.299179 159.70441 
L 91.179576 157.843393 
L 92.059973 156.668763 
L 92.353439 156.16155 
L 93.233836 155.647352 
L 93.820767 155.39703 
L 96.461958 155.506921 
L 98.222751 155.533745 
L 98.809683 155.43848 
L 99.103148 155.312318 
L 99.396614 155.312318 
L 99.983545 155.049323 
L 100.570476 154.774306 
L 100.863942 154.521739 
L 101.157408 154.521739 
L 101.744339 154.1053 
L 102.33127 153.668162 
L 102.918201 153.452081 
L 103.505133 153.047107 
L 104.092064 152.752837 
L 104.38553 152.551115 
L 104.678995 152.551115 
L 105.265926 152.295611 
L 105.852858 152.097911 
L 106.146323 151.920528 
L 106.439789 151.920528 
L 107.907117 150.804363 
L 108.200583 150.804363 
L 108.494048 150.357009 
L 109.08098 149.741303 
L 109.667911 148.976911 
L 109.961377 148.976911 
L 110.254842 148.478573 
L 111.135239 147.701296 
L 111.428705 147.323919 
L 112.896033 146.445038 
L 113.189498 146.125452 
L 113.482964 146.125452 
L 114.069895 145.601767 
L 114.950292 144.95962 
L 115.243758 144.624858 
L 116.41762 144.111467 
L 117.004552 144.015896 
L 117.884948 144.012649 
L 119.939208 144.134333 
L 121.700002 143.931751 
L 122.580399 143.650399 
L 123.754261 143.193275 
L 124.341192 142.848808 
L 126.101986 142.238974 
L 126.982383 142.230905 
L 127.569314 142.357218 
L 128.449711 142.793528 
L 128.743177 142.943997 
L 129.036642 143.288722 
L 129.330108 143.288722 
L 129.623574 143.892192 
L 130.210505 144.220399 
L 130.50397 144.44509 
L 130.797436 144.900213 
L 131.090902 144.900213 
L 131.384367 145.566784 
L 131.971299 145.879765 
L 132.264764 146.07835 
L 132.55823 146.536179 
L 132.851696 146.536179 
L 133.145161 146.867335 
L 134.025558 147.322948 
L 134.319024 147.621239 
L 134.612489 147.621239 
L 134.905955 148.111334 
L 135.492886 148.392998 
L 135.786352 148.597952 
L 136.079817 149.052828 
L 136.373283 149.302249 
L 136.960214 150.124899 
L 137.25368 150.270804 
L 137.547146 150.567346 
L 137.840611 151.168851 
L 138.721008 152.181543 
L 139.014474 152.703277 
L 139.307939 152.703277 
L 139.601405 153.168697 
L 141.655664 154.568542 
L 142.536061 155.061307 
L 143.122993 155.552867 
L 144.296855 156.313702 
L 145.470718 157.390234 
L 146.057649 157.813936 
L 146.351114 158.103515 
L 148.698839 159.016095 
L 149.285771 159.268197 
L 149.579236 159.517494 
L 149.872702 159.517494 
L 150.459633 159.992617 
L 151.046564 160.474455 
L 151.34003 160.899499 
L 151.633496 160.899499 
L 151.926961 161.343641 
L 152.513893 161.899291 
L 153.100824 162.527065 
L 153.39429 162.527065 
L 153.687755 162.911943 
L 154.568152 163.55507 
L 155.155083 164.13646 
L 156.328946 165.056027 
L 157.796274 167.194464 
L 158.08974 167.736006 
L 158.383205 167.921583 
L 158.676671 168.298787 
L 159.263602 169.654901 
L 159.557068 170.232822 
L 159.850533 170.422671 
L 160.437465 171.161373 
L 161.024396 172.342727 
L 161.317861 172.79876 
L 161.611327 172.94393 
L 162.198258 173.493097 
L 162.78519 174.380194 
L 163.078655 174.752713 
L 163.372121 174.877355 
L 163.959052 175.379963 
L 164.545983 176.274073 
L 164.839449 176.654859 
L 165.132915 176.780549 
L 165.719846 177.27499 
L 166.013312 177.752596 
L 166.600243 178.312872 
L 167.187174 178.906231 
L 167.48064 178.906231 
L 167.774105 179.237674 
L 168.947968 179.811361 
L 169.828365 179.921283 
L 171.882624 180.174741 
L 174.81728 181.315639 
L 175.697677 181.340389 
L 177.165005 181.166606 
L 178.338868 181.243717 
L 180.393127 181.722825 
L 181.273524 181.70433 
L 181.860455 181.603619 
L 183.621249 181.299588 
L 184.501646 181.39195 
L 184.795112 181.528452 
L 185.088577 181.528452 
L 185.675509 181.811202 
L 187.436302 182.328973 
L 188.023234 182.308884 
L 189.490562 181.968544 
L 191.838287 181.57738 
L 193.305615 182.129513 
L 194.772943 183.232211 
L 196.240271 183.905552 
L 197.414134 183.992432 
L 199.468393 183.952846 
L 200.34879 184.130261 
L 200.935721 184.426293 
L 201.522653 184.909321 
L 202.109584 185.370416 
L 202.403049 185.737194 
L 202.696515 185.737194 
L 202.989981 186.067581 
L 204.163843 186.626393 
L 206.218103 186.54868 
L 207.098499 186.380545 
L 207.978896 186.36795 
L 209.152759 186.667885 
L 209.446225 186.834465 
L 209.73969 186.834465 
L 210.326621 187.075292 
L 211.207018 187.253992 
L 212.087415 187.262023 
L 212.674346 187.10893 
L 213.848209 186.740891 
L 214.728606 186.553686 
L 215.609003 186.601903 
L 218.837125 187.493765 
L 219.717521 187.352017 
L 220.304453 187.246426 
L 221.18485 186.93469 
L 222.065247 186.769155 
L 222.652178 186.692436 
L 223.82604 186.834323 
L 224.706437 187.14988 
L 225.8803 187.596632 
L 227.054162 187.731594 
L 228.814956 187.357385 
L 229.401887 187.10966 
L 230.869215 186.749493 
L 231.749612 186.807143 
L 232.336544 186.985583 
L 232.923475 187.291394 
L 234.977734 188.051957 
L 235.564665 188.06894 
L 237.91239 187.481905 
L 238.499322 187.276218 
L 239.379719 187.199292 
L 240.260115 187.345582 
L 240.847047 187.526785 
L 241.140512 187.695853 
L 241.433978 187.695853 
L 242.020909 187.932897 
L 242.901306 188.093397 
L 243.781703 188.029039 
L 244.955566 187.76694 
L 245.542497 187.562165 
L 247.303291 187.235755 
L 249.064084 187.337778 
L 251.411809 187.42592 
L 253.466069 187.462354 
L 254.639931 187.435162 
L 255.226863 187.327684 
L 256.107259 187.000629 
L 256.987656 186.627879 
L 257.574588 186.320787 
L 258.454984 185.960516 
L 259.041916 185.685494 
L 260.215778 185.506641 
L 261.096175 185.624968 
L 263.4439 185.985086 
L 264.030831 185.912129 
L 268.432816 184.201894 
L 269.313213 184.174262 
L 271.660938 184.626623 
L 272.541335 184.60336 
L 273.715197 184.233402 
L 274.302128 183.991805 
L 274.595594 183.796065 
L 274.88906 183.796065 
L 275.475991 183.484535 
L 276.062922 183.222885 
L 276.649853 182.973548 
L 277.823716 182.862606 
L 278.997578 183.085174 
L 280.758372 183.3932 
L 281.345303 183.309151 
L 282.2257 183.071791 
L 283.693028 182.352715 
L 284.27996 182.10411 
L 284.866891 181.826592 
L 286.040753 181.617184 
L 286.627685 181.627462 
L 288.97541 182.160811 
L 289.855807 182.184461 
L 290.442738 182.015611 
L 291.323135 181.70651 
L 292.496997 181.036347 
L 294.551257 180.497122 
L 295.725119 180.49369 
L 299.540172 180.784794 
L 300.127104 180.645048 
L 300.420569 180.46198 
L 300.714035 180.46198 
L 301.007501 180.1881 
L 301.887897 180.02558 
L 303.06176 179.731031 
L 305.116019 179.703547 
L 308.637607 180.018237 
L 310.104935 179.686075 
L 310.985332 179.5127 
L 313.333057 179.276966 
L 317.735041 179.694647 
L 319.202369 179.446157 
L 322.430491 179.496144 
L 324.484751 180.053842 
L 325.071682 180.147943 
L 326.245545 180.203795 
L 327.125941 180.108999 
L 328.299804 179.960197 
L 329.767132 179.993897 
L 331.23446 180.208608 
L 332.701788 180.586536 
L 335.049513 180.865851 
L 338.277635 180.99933 
L 339.744963 181.198298 
L 342.386154 181.589169 
L 342.973085 181.7413 
L 344.146948 182.039066 
L 345.027345 182.196317 
L 346.494673 182.294383 
L 348.842398 182.105914 
L 350.01626 182.266325 
L 351.483589 182.876545 
L 352.07052 183.223166 
L 352.657451 183.661454 
L 353.831314 184.185012 
L 355.298642 184.155167 
L 358.526764 183.182826 
L 360.581023 183.007846 
L 362.048351 182.287014 
L 362.635282 181.725757 
L 362.928748 181.725757 
L 363.222214 181.322531 
L 364.983007 180.194823 
L 367.624198 179.483755 
L 368.211129 179.015152 
L 369.091526 178.381175 
L 369.971923 177.408641 
L 371.439251 176.548475 
L 372.613114 176.39745 
L 373.786976 176.188074 
L 374.667373 175.845606 
L 376.721633 174.263055 
L 377.308564 173.896501 
L 378.188961 173.835898 
L 379.949755 174.16269 
L 381.123617 173.791436 
L 381.710548 173.355015 
L 382.004014 172.926236 
L 382.29748 172.926236 
L 382.590945 172.492585 
L 383.764808 171.801058 
L 384.645205 171.684824 
L 385.232136 171.890969 
L 386.99293 172.501318 
L 387.579861 172.472113 
L 388.753723 171.831604 
L 389.047189 171.402954 
L 389.340655 171.402954 
L 389.63412 170.917018 
L 390.807983 169.864771 
L 391.101448 169.49798 
L 391.981845 169.160911 
L 392.862242 169.060431 
L 394.916502 169.128313 
L 395.796898 168.821664 
L 396.677295 167.836272 
L 397.264227 167.508665 
L 397.557692 167.301684 
L 397.851158 166.931943 
L 398.144623 166.931943 
L 398.438089 166.561877 
L 399.611952 166.513502 
L 400.198883 166.668242 
L 400.785814 166.822174 
L 401.666211 166.992774 
L 402.546608 166.83675 
L 402.840074 166.730033 
L 404.013936 165.609338 
L 404.600867 165.30814 
L 404.894333 164.979553 
L 405.187799 164.979553 
L 405.481264 164.665435 
L 406.361661 164.594039 
L 407.242058 164.932656 
L 407.828989 165.309238 
L 408.122455 165.309238 
L 408.709386 165.579759 
L 409.296317 165.644675 
L 410.47018 165.244836 
L 411.057111 164.78965 
L 411.350577 164.380535 
L 411.644042 164.380535 
L 411.937508 163.985128 
L 413.698302 162.95361 
L 414.578699 162.880985 
L 417.219889 163.173008 
L 417.806821 163.022875 
L 420.154546 161.692279 
L 420.741477 161.619483 
L 421.621874 161.794436 
L 423.382668 162.259761 
L 423.969599 162.158147 
L 425.730393 160.936949 
L 426.023858 160.482166 
L 426.904255 159.827693 
L 427.197721 159.407688 
L 427.491186 159.407688 
L 427.784652 159.19931 
L 428.665049 159.097497 
L 428.958514 159.232579 
L 429.25198 159.232579 
L 430.132377 159.851362 
L 430.425843 160.070947 
L 430.719308 160.670323 
L 431.012774 160.670323 
L 431.306239 161.144706 
L 432.186636 161.742479 
L 432.186636 161.742479 
" clip-path="url(#pb2f6b72694)" style="fill: none; stroke: #0000ff; stroke-width: 1.5; stroke-linecap: square"/>
   </g>
   <g id="patch_8">
    <path d="M 58.106 190.3975 
L 58.106 139.92 
" style="fill: none; stroke: #000000; stroke-width: 0.8; stroke-linejoin: miter; stroke-linecap: square"/>
   </g>
   <g id="patch_9">
    <path d="M 450 190.3975 
L 450 139.92 
" style="fill: none; stroke: #000000; stroke-width: 0.8; stroke-linejoin: miter; stroke-linecap: square"/>
   </g>
   <g id="patch_10">
    <path d="M 58.106 190.3975 
L 450 190.3975 
" style="fill: none; stroke: #000000; stroke-width: 0.8; stroke-linejoin: miter; stroke-linecap: square"/>
   </g>
   <g id="patch_11">
    <path d="M 58.106 139.92 
L 450 139.92 
" style="fill: none; stroke: #000000; stroke-width: 0.8; stroke-linejoin: miter; stroke-linecap: square"/>
   </g>
   <g id="text_25">
    <!-- Error in $z$-position -->
    <g transform="translate(200.773 133.92)scale(0.12 -0.12)">
     <use xlink:href="#DejaVuSans-45" transform="translate(0 0.015625)"/>
     <use xlink:href="#DejaVuSans-72" transform="translate(63.183594 0.015625)"/>
     <use xlink:href="#DejaVuSans-72" transform="translate(104.296875 0.015625)"/>
     <use xlink:href="#DejaVuSans-6f" transform="translate(145.410156 0.015625)"/>
     <use xlink:href="#DejaVuSans-72" transform="translate(206.591797 0.015625)"/>
     <use xlink:href="#DejaVuSans-20" transform="translate(247.705078 0.015625)"/>
     <use xlink:href="#DejaVuSans-69" transform="translate(279.492188 0.015625)"/>
     <use xlink:href="#DejaVuSans-6e" transform="translate(307.275391 0.015625)"/>
     <use xlink:href="#DejaVuSans-20" transform="translate(370.654297 0.015625)"/>
     <use xlink:href="#DejaVuSans-Oblique-7a" transform="translate(402.441406 0.015625)"/>
     <use xlink:href="#DejaVuSans-2d" transform="translate(454.931641 0.015625)"/>
     <use xlink:href="#DejaVuSans-70" transform="translate(491.015625 0.015625)"/>
     <use xlink:href="#DejaVuSans-6f" transform="translate(554.492188 0.015625)"/>
     <use xlink:href="#DejaVuSans-73" transform="translate(615.673828 0.015625)"/>
     <use xlink:href="#DejaVuSans-69" transform="translate(667.773438 0.015625)"/>
     <use xlink:href="#DejaVuSans-74" transform="translate(695.556641 0.015625)"/>
     <use xlink:href="#DejaVuSans-69" transform="translate(734.765625 0.015625)"/>
     <use xlink:href="#DejaVuSans-6f" transform="translate(762.548828 0.015625)"/>
     <use xlink:href="#DejaVuSans-6e" transform="translate(823.730469 0.015625)"/>
    </g>
   </g>
  </g>
  <g id="axes_3">
   <g id="patch_12">
    <path d="M 58.106 301.9975 
L 450 301.9975 
L 450 251.52 
L 58.106 251.52 
z
" style="fill: #ffffff"/>
   </g>
   <g id="matplotlib.axis_5">
    <g id="xtick_15">
     <g id="line2d_41">
      <path d="M 75.919364 301.9975 
L 75.919364 251.52 
" clip-path="url(#p92bd77d8cf)" style="fill: none; stroke: #b0b0b0; stroke-width: 0.8; stroke-linecap: square"/>
     </g>
     <g id="line2d_42">
      <g>
       <use xlink:href="#mc3834fb527" x="75.919364" y="301.9975" style="stroke: #000000; stroke-width: 0.8"/>
      </g>
     </g>
     <g id="text_26">
      <!-- 0 -->
      <g transform="translate(72.738114 316.595937)scale(0.1 -0.1)">
       <use xlink:href="#DejaVuSans-30"/>
      </g>
     </g>
    </g>
    <g id="xtick_16">
     <g id="line2d_43">
      <path d="M 134.564182 301.9975 
L 134.564182 251.52 
" clip-path="url(#p92bd77d8cf)" style="fill: none; stroke: #b0b0b0; stroke-width: 0.8; stroke-linecap: square"/>
     </g>
     <g id="line2d_44">
      <g>
       <use xlink:href="#mc3834fb527" x="134.564182" y="301.9975" style="stroke: #000000; stroke-width: 0.8"/>
      </g>
     </g>
     <g id="text_27">
      <!-- 2 -->
      <g transform="translate(131.382932 316.595937)scale(0.1 -0.1)">
       <use xlink:href="#DejaVuSans-32"/>
      </g>
     </g>
    </g>
    <g id="xtick_17">
     <g id="line2d_45">
      <path d="M 193.209001 301.9975 
L 193.209001 251.52 
" clip-path="url(#p92bd77d8cf)" style="fill: none; stroke: #b0b0b0; stroke-width: 0.8; stroke-linecap: square"/>
     </g>
     <g id="line2d_46">
      <g>
       <use xlink:href="#mc3834fb527" x="193.209001" y="301.9975" style="stroke: #000000; stroke-width: 0.8"/>
      </g>
     </g>
     <g id="text_28">
      <!-- 4 -->
      <g transform="translate(190.027751 316.595937)scale(0.1 -0.1)">
       <use xlink:href="#DejaVuSans-34"/>
      </g>
     </g>
    </g>
    <g id="xtick_18">
     <g id="line2d_47">
      <path d="M 251.853819 301.9975 
L 251.853819 251.52 
" clip-path="url(#p92bd77d8cf)" style="fill: none; stroke: #b0b0b0; stroke-width: 0.8; stroke-linecap: square"/>
     </g>
     <g id="line2d_48">
      <g>
       <use xlink:href="#mc3834fb527" x="251.853819" y="301.9975" style="stroke: #000000; stroke-width: 0.8"/>
      </g>
     </g>
     <g id="text_29">
      <!-- 6 -->
      <g transform="translate(248.672569 316.595937)scale(0.1 -0.1)">
       <use xlink:href="#DejaVuSans-36"/>
      </g>
     </g>
    </g>
    <g id="xtick_19">
     <g id="line2d_49">
      <path d="M 310.498638 301.9975 
L 310.498638 251.52 
" clip-path="url(#p92bd77d8cf)" style="fill: none; stroke: #b0b0b0; stroke-width: 0.8; stroke-linecap: square"/>
     </g>
     <g id="line2d_50">
      <g>
       <use xlink:href="#mc3834fb527" x="310.498638" y="301.9975" style="stroke: #000000; stroke-width: 0.8"/>
      </g>
     </g>
     <g id="text_30">
      <!-- 8 -->
      <g transform="translate(307.317388 316.595937)scale(0.1 -0.1)">
       <use xlink:href="#DejaVuSans-38"/>
      </g>
     </g>
    </g>
    <g id="xtick_20">
     <g id="line2d_51">
      <path d="M 369.143456 301.9975 
L 369.143456 251.52 
" clip-path="url(#p92bd77d8cf)" style="fill: none; stroke: #b0b0b0; stroke-width: 0.8; stroke-linecap: square"/>
     </g>
     <g id="line2d_52">
      <g>
       <use xlink:href="#mc3834fb527" x="369.143456" y="301.9975" style="stroke: #000000; stroke-width: 0.8"/>
      </g>
     </g>
     <g id="text_31">
      <!-- 10 -->
      <g transform="translate(362.780956 316.595937)scale(0.1 -0.1)">
       <use xlink:href="#DejaVuSans-31"/>
       <use xlink:href="#DejaVuSans-30" x="63.623047"/>
      </g>
     </g>
    </g>
    <g id="xtick_21">
     <g id="line2d_53">
      <path d="M 427.788275 301.9975 
L 427.788275 251.52 
" clip-path="url(#p92bd77d8cf)" style="fill: none; stroke: #b0b0b0; stroke-width: 0.8; stroke-linecap: square"/>
     </g>
     <g id="line2d_54">
      <g>
       <use xlink:href="#mc3834fb527" x="427.788275" y="301.9975" style="stroke: #000000; stroke-width: 0.8"/>
      </g>
     </g>
     <g id="text_32">
      <!-- 12 -->
      <g transform="translate(421.425775 316.595937)scale(0.1 -0.1)">
       <use xlink:href="#DejaVuSans-31"/>
       <use xlink:href="#DejaVuSans-32" x="63.623047"/>
      </g>
     </g>
    </g>
    <g id="text_33">
     <!-- $t$ [s] -->
     <g transform="translate(243.953 330.274063)scale(0.1 -0.1)">
      <use xlink:href="#DejaVuSans-Oblique-74" transform="translate(0 0.015625)"/>
      <use xlink:href="#DejaVuSans-20" transform="translate(39.208984 0.015625)"/>
      <use xlink:href="#DejaVuSans-5b" transform="translate(70.996094 0.015625)"/>
      <use xlink:href="#DejaVuSans-73" transform="translate(110.009766 0.015625)"/>
      <use xlink:href="#DejaVuSans-5d" transform="translate(162.109375 0.015625)"/>
     </g>
    </g>
   </g>
   <g id="matplotlib.axis_6">
    <g id="ytick_6">
     <g id="line2d_55">
      <path d="M 58.106 288.737019 
L 450 288.737019 
" clip-path="url(#p92bd77d8cf)" style="fill: none; stroke: #b0b0b0; stroke-width: 0.8; stroke-linecap: square"/>
     </g>
     <g id="line2d_56">
      <g>
       <use xlink:href="#md84edc4a32" x="58.106" y="288.737019" style="stroke: #000000; stroke-width: 0.8"/>
      </g>
     </g>
     <g id="text_34">
      <!-- −0.1 -->
      <g transform="translate(26.823188 292.536238)scale(0.1 -0.1)">
       <use xlink:href="#DejaVuSans-2212"/>
       <use xlink:href="#DejaVuSans-30" x="83.789062"/>
       <use xlink:href="#DejaVuSans-2e" x="147.412109"/>
       <use xlink:href="#DejaVuSans-31" x="179.199219"/>
      </g>
     </g>
    </g>
    <g id="ytick_7">
     <g id="line2d_57">
      <path d="M 58.106 273.744708 
L 450 273.744708 
" clip-path="url(#p92bd77d8cf)" style="fill: none; stroke: #b0b0b0; stroke-width: 0.8; stroke-linecap: square"/>
     </g>
     <g id="line2d_58">
      <g>
       <use xlink:href="#md84edc4a32" x="58.106" y="273.744708" style="stroke: #000000; stroke-width: 0.8"/>
      </g>
     </g>
     <g id="text_35">
      <!-- 0.0 -->
      <g transform="translate(35.202875 277.543927)scale(0.1 -0.1)">
       <use xlink:href="#DejaVuSans-30"/>
       <use xlink:href="#DejaVuSans-2e" x="63.623047"/>
       <use xlink:href="#DejaVuSans-30" x="95.410156"/>
      </g>
     </g>
    </g>
    <g id="ytick_8">
     <g id="line2d_59">
      <path d="M 58.106 258.752398 
L 450 258.752398 
" clip-path="url(#p92bd77d8cf)" style="fill: none; stroke: #b0b0b0; stroke-width: 0.8; stroke-linecap: square"/>
     </g>
     <g id="line2d_60">
      <g>
       <use xlink:href="#md84edc4a32" x="58.106" y="258.752398" style="stroke: #000000; stroke-width: 0.8"/>
      </g>
     </g>
     <g id="text_36">
      <!-- 0.1 -->
      <g transform="translate(35.202875 262.551616)scale(0.1 -0.1)">
       <use xlink:href="#DejaVuSans-30"/>
       <use xlink:href="#DejaVuSans-2e" x="63.623047"/>
       <use xlink:href="#DejaVuSans-31" x="95.410156"/>
      </g>
     </g>
    </g>
    <g id="text_37">
     <!-- $e_\theta$ [rad] -->
     <g transform="translate(20.7435 295.90875)rotate(-90)scale(0.1 -0.1)">
      <defs>
       <path id="DejaVuSans-Oblique-3b8" d="M 2913 2219 
L 925 2219 
Q 791 1284 928 888 
Q 1100 400 1566 400 
Q 2034 400 2391 891 
Q 2703 1322 2913 2219 
z
M 3009 2750 
Q 3094 3638 2984 3950 
Q 2813 4444 2353 4444 
Q 1875 4444 1525 3956 
Q 1250 3563 1034 2750 
L 3009 2750 
z
M 2444 4913 
Q 3194 4913 3494 4250 
Q 3794 3591 3566 2422 
Q 3341 1256 2781 594 
Q 2225 -72 1475 -72 
Q 722 -72 425 594 
Q 128 1256 353 2422 
Q 581 3591 1134 4250 
Q 1691 4913 2444 4913 
z
" transform="scale(0.015625)"/>
       <path id="DejaVuSans-61" d="M 2194 1759 
Q 1497 1759 1228 1600 
Q 959 1441 959 1056 
Q 959 750 1161 570 
Q 1363 391 1709 391 
Q 2188 391 2477 730 
Q 2766 1069 2766 1631 
L 2766 1759 
L 2194 1759 
z
M 3341 1997 
L 3341 0 
L 2766 0 
L 2766 531 
Q 2569 213 2275 61 
Q 1981 -91 1556 -91 
Q 1019 -91 701 211 
Q 384 513 384 1019 
Q 384 1609 779 1909 
Q 1175 2209 1959 2209 
L 2766 2209 
L 2766 2266 
Q 2766 2663 2505 2880 
Q 2244 3097 1772 3097 
Q 1472 3097 1187 3025 
Q 903 2953 641 2809 
L 641 3341 
Q 956 3463 1253 3523 
Q 1550 3584 1831 3584 
Q 2591 3584 2966 3190 
Q 3341 2797 3341 1997 
z
" transform="scale(0.015625)"/>
       <path id="DejaVuSans-64" d="M 2906 2969 
L 2906 4863 
L 3481 4863 
L 3481 0 
L 2906 0 
L 2906 525 
Q 2725 213 2448 61 
Q 2172 -91 1784 -91 
Q 1150 -91 751 415 
Q 353 922 353 1747 
Q 353 2572 751 3078 
Q 1150 3584 1784 3584 
Q 2172 3584 2448 3432 
Q 2725 3281 2906 2969 
z
M 947 1747 
Q 947 1113 1208 752 
Q 1469 391 1925 391 
Q 2381 391 2643 752 
Q 2906 1113 2906 1747 
Q 2906 2381 2643 2742 
Q 2381 3103 1925 3103 
Q 1469 3103 1208 2742 
Q 947 2381 947 1747 
z
" transform="scale(0.015625)"/>
      </defs>
      <use xlink:href="#DejaVuSans-Oblique-65" transform="translate(0 0.015625)"/>
      <use xlink:href="#DejaVuSans-Oblique-3b8" transform="translate(61.523438 -16.390625)scale(0.7)"/>
      <use xlink:href="#DejaVuSans-20" transform="translate(107.084961 0.015625)"/>
      <use xlink:href="#DejaVuSans-5b" transform="translate(138.87207 0.015625)"/>
      <use xlink:href="#DejaVuSans-72" transform="translate(177.885742 0.015625)"/>
      <use xlink:href="#DejaVuSans-61" transform="translate(218.999023 0.015625)"/>
      <use xlink:href="#DejaVuSans-64" transform="translate(280.27832 0.015625)"/>
      <use xlink:href="#DejaVuSans-5d" transform="translate(343.754883 0.015625)"/>
     </g>
    </g>
   </g>
   <g id="line2d_61">
    <path d="M 75.919364 273.725112 
L 76.799761 273.014652 
L 77.093226 272.352285 
L 77.386692 271.204633 
L 77.680157 271.204633 
L 78.560554 264.554208 
L 78.85402 263.796297 
L 79.440951 260.893841 
L 80.027882 256.706977 
L 80.321348 255.397549 
L 80.614814 255.025086 
L 81.201745 253.934819 
L 81.495211 253.814432 
L 81.788676 254.483311 
L 82.082142 255.786127 
L 82.375607 256.352823 
L 82.962539 259.209539 
L 83.842936 269.690823 
L 84.136401 270.912726 
L 85.016798 278.425177 
L 85.897195 288.967634 
L 86.777592 294.614702 
L 87.071058 298.304622 
L 87.951454 299.210918 
L 88.24492 299.092258 
L 88.538386 298.744337 
L 88.831851 297.837442 
L 89.418783 294.972703 
L 90.005714 292.232695 
L 90.299179 290.594769 
L 90.592645 287.820578 
L 90.886111 283.6333 
L 91.766508 276.860602 
L 92.646904 267.385723 
L 93.527301 261.506063 
L 93.820767 259.042697 
L 94.114233 259.042697 
L 94.407698 257.544963 
L 94.701164 257.177816 
L 94.994629 257.049274 
L 95.288095 257.262798 
L 95.581561 258.169022 
L 95.875026 258.169022 
L 96.168492 259.455171 
L 96.755423 260.83555 
L 97.342355 263.16685 
L 97.63582 263.16685 
L 97.929286 264.425594 
L 98.809683 266.515529 
L 99.103148 267.596847 
L 99.396614 267.596847 
L 99.69008 268.551457 
L 100.863942 270.413611 
L 101.157408 270.413611 
L 101.450873 270.858839 
L 102.624736 271.507125 
L 103.505133 271.923558 
L 104.092064 272.301811 
L 104.38553 272.744786 
L 104.678995 272.744786 
L 105.265926 273.859376 
L 105.559392 274.400774 
L 105.852858 275.417061 
L 106.146323 277.189969 
L 106.439789 277.189969 
L 106.733255 279.425877 
L 107.02672 280.680165 
L 107.907117 286.886167 
L 108.200583 286.886167 
L 108.494048 289.380288 
L 109.08098 291.29695 
L 109.374445 291.448606 
L 109.667911 290.804228 
L 109.961377 290.804228 
L 110.548308 287.577192 
L 110.841773 286.106015 
L 111.135239 283.701422 
L 111.428705 280.292844 
L 112.896033 271.080783 
L 113.189498 268.199058 
L 113.482964 268.199058 
L 113.77643 265.813295 
L 114.363361 264.109289 
L 115.243758 262.566049 
L 116.124155 262.430257 
L 116.41762 262.446376 
L 116.711086 262.600381 
L 117.004552 262.600381 
L 117.884948 264.129108 
L 118.178414 265.336906 
L 118.47188 267.509182 
L 118.765345 267.509182 
L 119.058811 270.072964 
L 119.939208 274.442196 
L 120.232674 276.133427 
L 120.526139 276.133427 
L 120.819605 276.999094 
L 121.11307 277.115717 
L 121.406536 277.02816 
L 121.700002 276.506386 
L 122.286933 274.265058 
L 123.460795 270.012753 
L 124.341192 265.463024 
L 125.515055 262.297487 
L 126.101986 260.607851 
L 126.688917 260.184079 
L 127.275849 260.091603 
L 127.569314 260.218292 
L 128.156245 260.915483 
L 128.743177 261.591444 
L 129.036642 262.316111 
L 129.330108 262.316111 
L 129.623574 263.272307 
L 130.797436 263.700432 
L 131.090902 263.700432 
L 131.384367 262.954307 
L 131.677833 262.768849 
L 132.264764 261.95294 
L 132.55823 260.983021 
L 132.851696 260.983021 
L 133.145161 260.450314 
L 133.732092 260.212839 
L 134.025558 260.207845 
L 134.319024 260.428182 
L 134.612489 260.428182 
L 134.905955 261.178819 
L 135.199421 261.335024 
L 135.786352 262.012651 
L 136.079817 262.750903 
L 136.373283 263.134414 
L 136.960214 264.32548 
L 137.25368 264.530601 
L 137.547146 264.949901 
L 137.840611 265.841182 
L 138.427542 266.855163 
L 138.721008 267.739509 
L 139.014474 269.122705 
L 139.307939 269.122705 
L 139.601405 270.689692 
L 140.481802 273.224697 
L 141.362199 276.544164 
L 143.122993 280.212747 
L 144.003389 280.849682 
L 144.590321 281.006942 
L 145.470718 280.313636 
L 145.764183 279.947643 
L 146.057649 279.249634 
L 146.351114 278.062962 
L 147.231511 275.924463 
L 147.818443 273.638772 
L 148.405374 272.860111 
L 148.992305 272.474731 
L 149.579236 272.331248 
L 149.872702 272.331248 
L 150.753099 271.785706 
L 151.046564 271.275988 
L 151.34003 270.245685 
L 151.633496 270.245685 
L 151.926961 268.775166 
L 152.220427 267.876965 
L 153.100824 263.026718 
L 153.39429 263.026718 
L 153.687755 260.806083 
L 154.861618 256.844217 
L 155.448549 256.31616 
L 156.328946 255.863114 
L 158.08974 255.178041 
L 158.970136 254.979511 
L 159.850533 254.849761 
L 160.437465 254.870756 
L 161.024396 255.29537 
L 161.317861 255.692747 
L 161.611327 255.857277 
L 162.198258 256.660982 
L 162.78519 258.327651 
L 163.078655 259.01876 
L 163.372121 259.241729 
L 163.959052 260.08433 
L 164.252518 260.775272 
L 164.839449 261.469429 
L 165.719846 261.816009 
L 166.306777 262.010105 
L 167.48064 262.254269 
L 168.361037 263.117417 
L 168.947968 264.127736 
L 169.241433 264.127736 
L 169.534899 264.903772 
L 170.415296 266.09279 
L 170.708762 266.224276 
L 171.295693 266.157885 
L 171.882624 265.870941 
L 172.469555 265.675668 
L 172.763021 265.675668 
L 173.349952 266.094413 
L 173.643418 266.475732 
L 173.936883 267.362951 
L 174.523815 270.33673 
L 175.404212 274.542842 
L 175.991143 279.333917 
L 176.284609 279.333917 
L 176.578074 281.1329 
L 177.165005 281.985987 
L 177.458471 281.691581 
L 177.751937 280.840592 
L 178.045402 280.840592 
L 178.925799 276.090739 
L 179.219265 275.608894 
L 180.393127 272.297296 
L 180.686593 272.186826 
L 180.980059 272.558115 
L 181.273524 273.376849 
L 181.56699 273.376849 
L 181.860455 275.039987 
L 183.034318 279.256905 
L 183.621249 279.337991 
L 183.914715 279.029254 
L 184.20818 278.509794 
L 184.501646 277.376329 
L 184.795112 275.348854 
L 185.088577 275.348854 
L 185.382043 273.008725 
L 186.555905 267.948418 
L 186.849371 267.948418 
L 187.142837 267.723283 
L 187.436302 267.97816 
L 187.729768 268.455739 
L 188.023234 269.514406 
L 188.316699 271.361629 
L 188.610165 271.361629 
L 188.903631 273.279951 
L 189.490562 274.655801 
L 189.784027 274.987826 
L 190.077493 274.900513 
L 191.544821 268.695134 
L 192.425218 261.967998 
L 193.599081 256.698947 
L 193.892546 255.905834 
L 194.186012 255.993248 
L 194.479477 256.393828 
L 195.066409 258.036243 
L 195.359874 259.871408 
L 195.65334 262.849832 
L 197.414134 271.784065 
L 197.707599 272.494586 
L 198.001065 272.311753 
L 198.294531 271.796365 
L 198.587996 270.987317 
L 198.881462 268.710583 
L 199.174928 268.710583 
L 199.468393 264.388881 
L 199.761859 263.643608 
L 200.935721 257.45914 
L 201.229187 255.593582 
L 201.522653 255.021036 
L 201.816118 254.715027 
L 202.109584 254.796397 
L 202.403049 255.9529 
L 202.696515 255.9529 
L 203.283446 259.677388 
L 203.576912 261.302701 
L 204.163843 267.445632 
L 204.457309 267.445632 
L 204.750774 270.74292 
L 205.631171 274.970111 
L 206.218103 275.180849 
L 207.098499 272.47316 
L 207.391965 270.716705 
L 207.685431 268.232968 
L 207.978896 268.232968 
L 208.272362 265.81312 
L 209.446225 261.695786 
L 209.73969 261.695786 
L 210.033156 262.031814 
L 210.326621 262.622864 
L 211.500484 268.075564 
L 211.79395 271.329115 
L 212.087415 271.329115 
L 212.380881 275.792864 
L 212.674346 276.41253 
L 213.261278 278.389884 
L 213.554743 279.228976 
L 213.848209 279.179988 
L 214.141675 278.60578 
L 214.43514 277.576746 
L 214.728606 277.161366 
L 215.022071 276.249882 
L 215.315537 274.169457 
L 215.609003 273.058189 
L 216.4894 268.103046 
L 216.782865 268.103046 
L 217.076331 266.36656 
L 217.663262 265.395559 
L 218.250193 265.973656 
L 218.543659 266.705669 
L 219.717521 274.684328 
L 220.010987 275.427727 
L 220.304453 276.807377 
L 220.597918 278.835029 
L 220.891384 279.414985 
L 221.18485 279.664841 
L 222.065247 278.203115 
L 222.358712 276.078462 
L 222.652178 274.770561 
L 223.532575 267.950311 
L 223.82604 267.950311 
L 224.119506 264.89812 
L 224.999903 260.911407 
L 225.293368 260.331152 
L 225.586834 260.331152 
L 226.467231 263.16828 
L 226.760697 264.484041 
L 227.054162 266.737471 
L 227.347628 269.929956 
L 228.228025 274.184621 
L 228.814956 276.089902 
L 229.108422 276.024745 
L 229.401887 275.470517 
L 229.988818 273.520166 
L 230.282284 271.536967 
L 230.57575 268.497905 
L 230.869215 268.497905 
L 231.162681 265.358043 
L 232.336544 258.922694 
L 232.630009 256.877083 
L 232.923475 256.207786 
L 233.21694 255.823931 
L 233.510406 255.756359 
L 233.803872 256.023375 
L 234.097337 257.041373 
L 234.684269 260.919279 
L 235.2712 264.402631 
L 235.858131 270.644929 
L 236.151597 270.644929 
L 236.445062 273.464525 
L 237.031994 275.321893 
L 237.325459 275.377454 
L 237.618925 275.220758 
L 237.91239 274.671241 
L 239.086253 267.559785 
L 239.379719 266.869821 
L 239.673184 265.496514 
L 239.96665 262.912794 
L 240.847047 259.49584 
L 241.140512 258.725442 
L 241.433978 258.725442 
L 241.727444 259.223459 
L 242.020909 259.961153 
L 243.194772 266.394678 
L 243.488237 270.168334 
L 244.368634 276.121728 
L 244.6621 278.387434 
L 244.955566 278.387434 
L 245.249031 279.327605 
L 245.542497 279.266821 
L 245.835962 278.878431 
L 246.129428 278.195634 
L 246.422894 276.723932 
L 246.716359 274.174074 
L 247.890222 268.376172 
L 248.770619 262.826119 
L 249.35755 261.629361 
L 249.651016 261.560859 
L 250.531412 265.023914 
L 251.118344 268.17847 
L 251.998741 275.868364 
L 252.585672 278.570517 
L 253.172603 280.227692 
L 253.466069 280.587238 
L 254.053 279.013348 
L 254.639931 276.678077 
L 254.933397 275.263577 
L 256.107259 266.658931 
L 257.281122 261.00588 
L 257.574588 260.923427 
L 257.868053 261.182312 
L 258.161519 261.7648 
L 258.454984 263.200137 
L 258.74845 265.962877 
L 259.922313 273.047454 
L 260.509244 277.313174 
L 260.802709 279.825054 
L 261.389641 281.178937 
L 261.683106 281.333331 
L 261.976572 280.900973 
L 262.563503 277.932552 
L 263.4439 273.141297 
L 263.737366 271.371181 
L 264.617763 263.383681 
L 265.791625 256.950865 
L 266.085091 256.783626 
L 266.378556 256.981071 
L 266.672022 257.527799 
L 266.965488 258.400833 
L 267.258953 260.249271 
L 267.552419 263.538768 
L 269.019747 273.148981 
L 269.606678 277.942426 
L 269.900144 278.656684 
L 270.19361 279.048478 
L 270.487075 279.106637 
L 270.780541 278.829868 
L 271.074006 277.831686 
L 271.660938 274.169479 
L 272.541335 269.208868 
L 273.421731 261.61058 
L 274.302128 257.263749 
L 274.595594 256.34462 
L 274.88906 256.34462 
L 275.182525 256.876754 
L 275.769456 258.77583 
L 276.062922 260.929213 
L 276.356388 264.466965 
L 278.117182 276.685993 
L 278.410647 279.033003 
L 278.704113 279.75858 
L 278.997578 280.1556 
L 279.291044 280.230075 
L 279.58451 279.986961 
L 279.877975 278.162052 
L 280.171441 278.162052 
L 280.464907 275.738842 
L 280.758372 275.041454 
L 281.051838 272.771871 
L 281.345303 269.495915 
L 282.519166 262.373048 
L 282.812632 260.04108 
L 283.399563 258.770734 
L 283.693028 258.611131 
L 283.986494 258.767263 
L 284.27996 259.603725 
L 284.866891 263.161762 
L 286.040753 270.007594 
L 286.334219 271.732589 
L 286.92115 276.898008 
L 287.508082 278.901535 
L 288.095013 280.138603 
L 288.388479 280.461374 
L 288.97541 279.340808 
L 289.562341 277.423566 
L 289.855807 276.212624 
L 290.149272 274.162671 
L 290.442738 271.124369 
L 291.323135 266.495527 
L 291.910066 261.874872 
L 292.496997 260.281888 
L 292.790463 259.861604 
L 293.083929 259.705555 
L 293.377394 260.00378 
L 295.138188 268.639568 
L 296.018585 275.970777 
L 297.192447 281.243494 
L 297.485913 281.363046 
L 297.779379 281.157694 
L 298.072844 280.641329 
L 298.659775 278.772228 
L 298.953241 276.822349 
L 299.246707 273.728596 
L 300.127104 268.725058 
L 300.420569 265.462282 
L 300.714035 265.462282 
L 301.007501 261.472531 
L 301.300966 260.97339 
L 301.887897 259.631193 
L 302.181363 259.537698 
L 302.474829 259.993282 
L 302.768294 261.25879 
L 303.06176 263.112351 
L 303.355226 263.834276 
L 303.648691 265.400407 
L 303.942157 268.893251 
L 304.529088 272.499574 
L 305.409485 279.391215 
L 305.996416 281.047229 
L 306.289882 281.445109 
L 306.583347 281.522325 
L 306.876813 281.01984 
L 307.463744 278.054172 
L 308.344141 273.461774 
L 308.637607 271.753432 
L 309.518004 264.375614 
L 310.104935 261.142834 
L 310.398401 259.471432 
L 310.691866 259.471432 
L 310.985332 259.074523 
L 311.278798 259.375133 
L 311.572263 260.005308 
L 311.865729 261.520167 
L 312.159194 264.4133 
L 312.45266 264.4133 
L 312.746126 267.934261 
L 313.039591 269.820197 
L 313.626523 275.319103 
L 313.919988 276.153939 
L 314.213454 277.694689 
L 314.506919 280.167406 
L 315.093851 281.539816 
L 315.387316 281.692899 
L 315.680782 280.767203 
L 315.974248 280.767203 
L 317.14811 272.68472 
L 317.441576 271.837283 
L 317.735041 270.133585 
L 318.028507 266.822711 
L 318.615438 263.084325 
L 319.202369 259.929666 
L 319.495835 259.929666 
L 319.789301 259.115474 
L 320.082766 259.197525 
L 320.376232 259.948506 
L 320.669698 261.411084 
L 320.963163 262.033259 
L 321.256629 263.446134 
L 321.550095 266.746646 
L 321.84356 268.53876 
L 322.723957 276.546638 
L 323.017423 276.546638 
L 323.310888 279.402238 
L 323.89782 281.187552 
L 324.191285 281.606729 
L 324.484751 280.930142 
L 324.778216 280.930142 
L 325.365148 277.822878 
L 325.658613 276.401921 
L 325.952079 274.098101 
L 326.245545 270.853269 
L 326.53901 270.853269 
L 326.832476 267.602485 
L 327.125941 266.056203 
L 327.712873 262.126467 
L 328.006338 260.93648 
L 328.299804 260.93648 
L 328.59327 260.303978 
L 328.886735 260.443252 
L 329.180201 260.889648 
L 329.473666 262.121703 
L 329.767132 264.641729 
L 330.940995 271.276545 
L 331.23446 273.024125 
L 332.114857 279.842587 
L 332.701788 281.789116 
L 332.995254 282.345005 
L 333.28872 282.566443 
L 333.582185 282.245928 
L 335.342979 272.288709 
L 335.636445 268.838083 
L 336.516842 264.099391 
L 336.810307 261.521568 
L 337.103773 261.521568 
L 337.397238 259.629802 
L 337.690704 259.588643 
L 337.98417 259.748758 
L 338.277635 260.222813 
L 338.864567 264.144381 
L 339.158032 266.576905 
L 339.451498 267.440119 
L 340.038429 270.985001 
L 340.62536 276.726273 
L 340.918826 278.762898 
L 341.212292 279.370606 
L 342.092688 282.25155 
L 342.386154 282.25155 
L 342.67962 281.2917 
L 342.973085 280.878124 
L 343.560017 278.652648 
L 344.440414 270.743435 
L 344.733879 269.894518 
L 345.32081 266.623611 
L 345.614276 263.698108 
L 346.494673 260.217763 
L 346.788139 259.906959 
L 347.081604 259.906959 
L 347.668535 261.196518 
L 347.962001 262.157413 
L 348.255467 263.966877 
L 348.548932 266.848415 
L 350.309726 276.248164 
L 350.603192 278.404359 
L 351.190123 279.983252 
L 351.777054 280.824395 
L 352.07052 280.832992 
L 353.537848 276.449354 
L 353.831314 274.008757 
L 354.124779 274.008757 
L 354.418245 272.43757 
L 355.005176 271.28874 
L 355.885573 270.133668 
L 356.472504 270.075773 
L 357.059436 270.231673 
L 357.646367 270.628094 
L 357.939832 271.030282 
L 359.407161 271.934487 
L 359.994092 271.932533 
L 360.287557 271.817872 
L 360.581023 271.522382 
L 361.167954 270.394825 
L 361.754886 269.247552 
L 362.635282 266.038556 
L 362.928748 266.038556 
L 363.222214 264.787134 
L 363.809145 263.910047 
L 364.102611 263.893598 
L 364.396076 264.2587 
L 364.689542 264.2587 
L 366.15687 269.082041 
L 366.450336 269.082041 
L 366.743801 270.13294 
L 367.330733 270.638769 
L 367.624198 270.571729 
L 369.091526 267.181785 
L 369.678458 265.099031 
L 369.971923 264.835675 
L 370.265389 264.763148 
L 370.558854 264.874087 
L 370.85232 265.153234 
L 371.145786 265.865455 
L 371.439251 267.224134 
L 372.613114 270.614969 
L 373.200045 273.324275 
L 373.786976 274.342619 
L 374.373908 274.805539 
L 374.667373 274.817489 
L 374.960839 274.588768 
L 375.54777 273.575411 
L 377.015098 271.652656 
L 377.308564 271.434582 
L 377.895495 271.552313 
L 378.188961 271.713994 
L 378.482426 272.059913 
L 379.069358 273.167722 
L 379.656289 274.244492 
L 379.949755 275.222714 
L 380.24322 276.680946 
L 381.710548 280.404561 
L 382.004014 280.784637 
L 382.29748 280.784637 
L 382.884411 280.023305 
L 383.471342 278.482372 
L 383.764808 278.186705 
L 384.058273 277.573001 
L 384.351739 276.376442 
L 384.645205 276.376442 
L 384.93867 274.95814 
L 385.525601 274.489466 
L 386.112533 274.101794 
L 386.405998 274.169811 
L 386.699464 274.475634 
L 386.99293 275.02964 
L 387.286395 275.266218 
L 387.579861 275.810687 
L 387.873326 277.133848 
L 389.047189 280.175265 
L 389.63412 280.178964 
L 389.927586 279.842004 
L 390.514517 278.500253 
L 390.807983 277.034369 
L 391.101448 274.726828 
L 392.275311 270.495119 
L 392.862242 268.755377 
L 393.155708 268.723714 
L 393.449173 268.888893 
L 394.036105 269.697739 
L 394.32957 270.280825 
L 394.623036 271.277503 
L 394.916502 272.689858 
L 396.38383 275.899115 
L 396.970761 275.673397 
L 397.557692 274.664676 
L 397.851158 273.050998 
L 398.144623 273.050998 
L 398.438089 270.167909 
L 398.731555 269.701119 
L 399.611952 266.837181 
L 399.905417 266.53575 
L 400.198883 266.443074 
L 401.07928 267.241126 
L 401.372745 268.232244 
L 401.666211 268.782314 
L 402.253142 270.382655 
L 402.546608 270.621201 
L 402.840074 271.060937 
L 403.133539 271.793047 
L 404.894333 273.542634 
L 405.187799 273.542634 
L 406.361661 272.675296 
L 406.655127 272.145322 
L 407.828989 271.396435 
L 408.122455 271.396435 
L 408.709386 271.21441 
L 411.644042 270.764226 
L 412.230974 271.789043 
L 412.817905 273.398023 
L 413.698302 277.876587 
L 414.285233 279.139615 
L 414.578699 279.525758 
L 414.872164 279.223529 
L 415.16563 279.223529 
L 415.752561 277.341185 
L 416.046027 276.466768 
L 416.632958 273.175069 
L 416.926424 273.175069 
L 417.219889 271.427251 
L 418.100286 269.347206 
L 418.687217 269.269287 
L 419.274149 270.395886 
L 420.154546 271.998396 
L 420.448011 272.631872 
L 421.034942 272.983919 
L 421.621874 273.020382 
L 421.915339 272.922283 
L 422.208805 272.648709 
L 422.502271 272.176777 
L 423.089202 271.816501 
L 423.382668 271.779314 
L 423.676133 271.893464 
L 423.969599 272.370093 
L 424.55653 274.263609 
L 425.436927 277.03115 
L 425.730393 278.739884 
L 426.023858 281.613571 
L 426.904255 286.985228 
L 427.197721 291.570931 
L 427.491186 291.570931 
L 427.784652 294.585074 
L 428.371583 296.726806 
L 428.665049 297.492511 
L 428.958514 298.832313 
L 429.25198 298.832313 
L 429.545446 299.482047 
L 429.838911 299.662795 
L 430.132377 299.703068 
L 430.425843 299.570695 
L 430.719308 298.169131 
L 431.012774 298.169131 
L 431.599705 294.22622 
L 432.186636 290.49343 
L 432.186636 290.49343 
" clip-path="url(#p92bd77d8cf)" style="fill: none; stroke: #008000; stroke-width: 1.5; stroke-linecap: square"/>
   </g>
   <g id="patch_13">
    <path d="M 58.106 301.9975 
L 58.106 251.52 
" style="fill: none; stroke: #000000; stroke-width: 0.8; stroke-linejoin: miter; stroke-linecap: square"/>
   </g>
   <g id="patch_14">
    <path d="M 450 301.9975 
L 450 251.52 
" style="fill: none; stroke: #000000; stroke-width: 0.8; stroke-linejoin: miter; stroke-linecap: square"/>
   </g>
   <g id="patch_15">
    <path d="M 58.106 301.9975 
L 450 301.9975 
" style="fill: none; stroke: #000000; stroke-width: 0.8; stroke-linejoin: miter; stroke-linecap: square"/>
   </g>
   <g id="patch_16">
    <path d="M 58.106 251.52 
L 450 251.52 
" style="fill: none; stroke: #000000; stroke-width: 0.8; stroke-linejoin: miter; stroke-linecap: square"/>
   </g>
   <g id="text_38">
    <!-- Error in swing angle -->
    <g transform="translate(194.282688 245.52)scale(0.12 -0.12)">
     <defs>
      <path id="DejaVuSans-77" d="M 269 3500 
L 844 3500 
L 1563 769 
L 2278 3500 
L 2956 3500 
L 3675 769 
L 4391 3500 
L 4966 3500 
L 4050 0 
L 3372 0 
L 2619 2869 
L 1863 0 
L 1184 0 
L 269 3500 
z
" transform="scale(0.015625)"/>
      <path id="DejaVuSans-67" d="M 2906 1791 
Q 2906 2416 2648 2759 
Q 2391 3103 1925 3103 
Q 1463 3103 1205 2759 
Q 947 2416 947 1791 
Q 947 1169 1205 825 
Q 1463 481 1925 481 
Q 2391 481 2648 825 
Q 2906 1169 2906 1791 
z
M 3481 434 
Q 3481 -459 3084 -895 
Q 2688 -1331 1869 -1331 
Q 1566 -1331 1297 -1286 
Q 1028 -1241 775 -1147 
L 775 -588 
Q 1028 -725 1275 -790 
Q 1522 -856 1778 -856 
Q 2344 -856 2625 -561 
Q 2906 -266 2906 331 
L 2906 616 
Q 2728 306 2450 153 
Q 2172 0 1784 0 
Q 1141 0 747 490 
Q 353 981 353 1791 
Q 353 2603 747 3093 
Q 1141 3584 1784 3584 
Q 2172 3584 2450 3431 
Q 2728 3278 2906 2969 
L 2906 3500 
L 3481 3500 
L 3481 434 
z
" transform="scale(0.015625)"/>
      <path id="DejaVuSans-6c" d="M 603 4863 
L 1178 4863 
L 1178 0 
L 603 0 
L 603 4863 
z
" transform="scale(0.015625)"/>
      <path id="DejaVuSans-65" d="M 3597 1894 
L 3597 1613 
L 953 1613 
Q 991 1019 1311 708 
Q 1631 397 2203 397 
Q 2534 397 2845 478 
Q 3156 559 3463 722 
L 3463 178 
Q 3153 47 2828 -22 
Q 2503 -91 2169 -91 
Q 1331 -91 842 396 
Q 353 884 353 1716 
Q 353 2575 817 3079 
Q 1281 3584 2069 3584 
Q 2775 3584 3186 3129 
Q 3597 2675 3597 1894 
z
M 3022 2063 
Q 3016 2534 2758 2815 
Q 2500 3097 2075 3097 
Q 1594 3097 1305 2825 
Q 1016 2553 972 2059 
L 3022 2063 
z
" transform="scale(0.015625)"/>
     </defs>
     <use xlink:href="#DejaVuSans-45"/>
     <use xlink:href="#DejaVuSans-72" x="63.183594"/>
     <use xlink:href="#DejaVuSans-72" x="102.546875"/>
     <use xlink:href="#DejaVuSans-6f" x="141.410156"/>
     <use xlink:href="#DejaVuSans-72" x="202.591797"/>
     <use xlink:href="#DejaVuSans-20" x="243.705078"/>
     <use xlink:href="#DejaVuSans-69" x="275.492188"/>
     <use xlink:href="#DejaVuSans-6e" x="303.275391"/>
     <use xlink:href="#DejaVuSans-20" x="366.654297"/>
     <use xlink:href="#DejaVuSans-73" x="398.441406"/>
     <use xlink:href="#DejaVuSans-77" x="450.541016"/>
     <use xlink:href="#DejaVuSans-69" x="532.328125"/>
     <use xlink:href="#DejaVuSans-6e" x="560.111328"/>
     <use xlink:href="#DejaVuSans-67" x="623.490234"/>
     <use xlink:href="#DejaVuSans-20" x="686.966797"/>
     <use xlink:href="#DejaVuSans-61" x="718.753906"/>
     <use xlink:href="#DejaVuSans-6e" x="780.033203"/>
     <use xlink:href="#DejaVuSans-67" x="843.412109"/>
     <use xlink:href="#DejaVuSans-6c" x="906.888672"/>
     <use xlink:href="#DejaVuSans-65" x="934.671875"/>
    </g>
   </g>
  </g>
 </g>
 <defs>
  <clipPath id="p65cca6394e">
   <rect x="58.106" y="28.32" width="391.894" height="50.4775"/>
  </clipPath>
  <clipPath id="pb2f6b72694">
   <rect x="58.106" y="139.92" width="391.894" height="50.4775"/>
  </clipPath>
  <clipPath id="p92bd77d8cf">
   <rect x="58.106" y="251.52" width="391.894" height="50.4775"/>
  </clipPath>
 </defs>
</svg>
