<?xml version="1.0" encoding="utf-8" standalone="no"?>
<!DOCTYPE svg PUBLIC "-//W3C//DTD SVG 1.1//EN"
  "http://www.w3.org/Graphics/SVG/1.1/DTD/svg11.dtd">
<svg xmlns:xlink="http://www.w3.org/1999/xlink" width="460.8pt" height="345.6pt" viewBox="0 0 460.8 345.6" xmlns="http://www.w3.org/2000/svg" version="1.1">
 <metadata>
  <rdf:RDF xmlns:dc="http://purl.org/dc/elements/1.1/" xmlns:cc="http://creativecommons.org/ns#" xmlns:rdf="http://www.w3.org/1999/02/22-rdf-syntax-ns#">
   <cc:Work>
    <dc:type rdf:resource="http://purl.org/dc/dcmitype/StillImage"/>
    <dc:date>2022-06-05T14:11:10.075746</dc:date>
    <dc:format>image/svg+xml</dc:format>
    <dc:creator>
     <cc:Agent>
      <dc:title>Matplotlib v3.5.1, https://matplotlib.org/</dc:title>
     </cc:Agent>
    </dc:creator>
   </cc:Work>
  </rdf:RDF>
 </metadata>
 <defs>
  <style type="text/css">*{stroke-linejoin: round; stroke-linecap: butt}</style>
 </defs>
 <g id="figure_1">
  <g id="patch_1">
   <path d="M 0 345.6 
L 460.8 345.6 
L 460.8 0 
L 0 0 
z
" style="fill: #ffffff"/>
  </g>
  <g id="axes_1">
   <g id="patch_2">
    <path d="M 58.106 78.7975 
L 450 78.7975 
L 450 28.32 
L 58.106 28.32 
z
" style="fill: #ffffff"/>
   </g>
   <g id="matplotlib.axis_1">
    <g id="xtick_1">
     <g id="line2d_1">
      <path d="M 75.919364 78.7975 
L 75.919364 28.32 
" clip-path="url(#p58723cff00)" style="fill: none; stroke: #b0b0b0; stroke-width: 0.8; stroke-linecap: square"/>
     </g>
     <g id="line2d_2">
      <defs>
       <path id="m1ab8dc0cc7" d="M 0 0 
L 0 3.5 
" style="stroke: #000000; stroke-width: 0.8"/>
      </defs>
      <g>
       <use xlink:href="#m1ab8dc0cc7" x="75.919364" y="78.7975" style="stroke: #000000; stroke-width: 0.8"/>
      </g>
     </g>
     <g id="text_1">
      <!-- 0 -->
      <g transform="translate(72.738114 93.395937)scale(0.1 -0.1)">
       <defs>
        <path id="DejaVuSans-30" d="M 2034 4250 
Q 1547 4250 1301 3770 
Q 1056 3291 1056 2328 
Q 1056 1369 1301 889 
Q 1547 409 2034 409 
Q 2525 409 2770 889 
Q 3016 1369 3016 2328 
Q 3016 3291 2770 3770 
Q 2525 4250 2034 4250 
z
M 2034 4750 
Q 2819 4750 3233 4129 
Q 3647 3509 3647 2328 
Q 3647 1150 3233 529 
Q 2819 -91 2034 -91 
Q 1250 -91 836 529 
Q 422 1150 422 2328 
Q 422 3509 836 4129 
Q 1250 4750 2034 4750 
z
" transform="scale(0.015625)"/>
       </defs>
       <use xlink:href="#DejaVuSans-30"/>
      </g>
     </g>
    </g>
    <g id="xtick_2">
     <g id="line2d_3">
      <path d="M 135.396371 78.7975 
L 135.396371 28.32 
" clip-path="url(#p58723cff00)" style="fill: none; stroke: #b0b0b0; stroke-width: 0.8; stroke-linecap: square"/>
     </g>
     <g id="line2d_4">
      <g>
       <use xlink:href="#m1ab8dc0cc7" x="135.396371" y="78.7975" style="stroke: #000000; stroke-width: 0.8"/>
      </g>
     </g>
     <g id="text_2">
      <!-- 2 -->
      <g transform="translate(132.215121 93.395937)scale(0.1 -0.1)">
       <defs>
        <path id="DejaVuSans-32" d="M 1228 531 
L 3431 531 
L 3431 0 
L 469 0 
L 469 531 
Q 828 903 1448 1529 
Q 2069 2156 2228 2338 
Q 2531 2678 2651 2914 
Q 2772 3150 2772 3378 
Q 2772 3750 2511 3984 
Q 2250 4219 1831 4219 
Q 1534 4219 1204 4116 
Q 875 4013 500 3803 
L 500 4441 
Q 881 4594 1212 4672 
Q 1544 4750 1819 4750 
Q 2544 4750 2975 4387 
Q 3406 4025 3406 3419 
Q 3406 3131 3298 2873 
Q 3191 2616 2906 2266 
Q 2828 2175 2409 1742 
Q 1991 1309 1228 531 
z
" transform="scale(0.015625)"/>
       </defs>
       <use xlink:href="#DejaVuSans-32"/>
      </g>
     </g>
    </g>
    <g id="xtick_3">
     <g id="line2d_5">
      <path d="M 194.873378 78.7975 
L 194.873378 28.32 
" clip-path="url(#p58723cff00)" style="fill: none; stroke: #b0b0b0; stroke-width: 0.8; stroke-linecap: square"/>
     </g>
     <g id="line2d_6">
      <g>
       <use xlink:href="#m1ab8dc0cc7" x="194.873378" y="78.7975" style="stroke: #000000; stroke-width: 0.8"/>
      </g>
     </g>
     <g id="text_3">
      <!-- 4 -->
      <g transform="translate(191.692128 93.395937)scale(0.1 -0.1)">
       <defs>
        <path id="DejaVuSans-34" d="M 2419 4116 
L 825 1625 
L 2419 1625 
L 2419 4116 
z
M 2253 4666 
L 3047 4666 
L 3047 1625 
L 3713 1625 
L 3713 1100 
L 3047 1100 
L 3047 0 
L 2419 0 
L 2419 1100 
L 313 1100 
L 313 1709 
L 2253 4666 
z
" transform="scale(0.015625)"/>
       </defs>
       <use xlink:href="#DejaVuSans-34"/>
      </g>
     </g>
    </g>
    <g id="xtick_4">
     <g id="line2d_7">
      <path d="M 254.350385 78.7975 
L 254.350385 28.32 
" clip-path="url(#p58723cff00)" style="fill: none; stroke: #b0b0b0; stroke-width: 0.8; stroke-linecap: square"/>
     </g>
     <g id="line2d_8">
      <g>
       <use xlink:href="#m1ab8dc0cc7" x="254.350385" y="78.7975" style="stroke: #000000; stroke-width: 0.8"/>
      </g>
     </g>
     <g id="text_4">
      <!-- 6 -->
      <g transform="translate(251.169135 93.395937)scale(0.1 -0.1)">
       <defs>
        <path id="DejaVuSans-36" d="M 2113 2584 
Q 1688 2584 1439 2293 
Q 1191 2003 1191 1497 
Q 1191 994 1439 701 
Q 1688 409 2113 409 
Q 2538 409 2786 701 
Q 3034 994 3034 1497 
Q 3034 2003 2786 2293 
Q 2538 2584 2113 2584 
z
M 3366 4563 
L 3366 3988 
Q 3128 4100 2886 4159 
Q 2644 4219 2406 4219 
Q 1781 4219 1451 3797 
Q 1122 3375 1075 2522 
Q 1259 2794 1537 2939 
Q 1816 3084 2150 3084 
Q 2853 3084 3261 2657 
Q 3669 2231 3669 1497 
Q 3669 778 3244 343 
Q 2819 -91 2113 -91 
Q 1303 -91 875 529 
Q 447 1150 447 2328 
Q 447 3434 972 4092 
Q 1497 4750 2381 4750 
Q 2619 4750 2861 4703 
Q 3103 4656 3366 4563 
z
" transform="scale(0.015625)"/>
       </defs>
       <use xlink:href="#DejaVuSans-36"/>
      </g>
     </g>
    </g>
    <g id="xtick_5">
     <g id="line2d_9">
      <path d="M 313.827392 78.7975 
L 313.827392 28.32 
" clip-path="url(#p58723cff00)" style="fill: none; stroke: #b0b0b0; stroke-width: 0.8; stroke-linecap: square"/>
     </g>
     <g id="line2d_10">
      <g>
       <use xlink:href="#m1ab8dc0cc7" x="313.827392" y="78.7975" style="stroke: #000000; stroke-width: 0.8"/>
      </g>
     </g>
     <g id="text_5">
      <!-- 8 -->
      <g transform="translate(310.646142 93.395937)scale(0.1 -0.1)">
       <defs>
        <path id="DejaVuSans-38" d="M 2034 2216 
Q 1584 2216 1326 1975 
Q 1069 1734 1069 1313 
Q 1069 891 1326 650 
Q 1584 409 2034 409 
Q 2484 409 2743 651 
Q 3003 894 3003 1313 
Q 3003 1734 2745 1975 
Q 2488 2216 2034 2216 
z
M 1403 2484 
Q 997 2584 770 2862 
Q 544 3141 544 3541 
Q 544 4100 942 4425 
Q 1341 4750 2034 4750 
Q 2731 4750 3128 4425 
Q 3525 4100 3525 3541 
Q 3525 3141 3298 2862 
Q 3072 2584 2669 2484 
Q 3125 2378 3379 2068 
Q 3634 1759 3634 1313 
Q 3634 634 3220 271 
Q 2806 -91 2034 -91 
Q 1263 -91 848 271 
Q 434 634 434 1313 
Q 434 1759 690 2068 
Q 947 2378 1403 2484 
z
M 1172 3481 
Q 1172 3119 1398 2916 
Q 1625 2713 2034 2713 
Q 2441 2713 2670 2916 
Q 2900 3119 2900 3481 
Q 2900 3844 2670 4047 
Q 2441 4250 2034 4250 
Q 1625 4250 1398 4047 
Q 1172 3844 1172 3481 
z
" transform="scale(0.015625)"/>
       </defs>
       <use xlink:href="#DejaVuSans-38"/>
      </g>
     </g>
    </g>
    <g id="xtick_6">
     <g id="line2d_11">
      <path d="M 373.304399 78.7975 
L 373.304399 28.32 
" clip-path="url(#p58723cff00)" style="fill: none; stroke: #b0b0b0; stroke-width: 0.8; stroke-linecap: square"/>
     </g>
     <g id="line2d_12">
      <g>
       <use xlink:href="#m1ab8dc0cc7" x="373.304399" y="78.7975" style="stroke: #000000; stroke-width: 0.8"/>
      </g>
     </g>
     <g id="text_6">
      <!-- 10 -->
      <g transform="translate(366.941899 93.395937)scale(0.1 -0.1)">
       <defs>
        <path id="DejaVuSans-31" d="M 794 531 
L 1825 531 
L 1825 4091 
L 703 3866 
L 703 4441 
L 1819 4666 
L 2450 4666 
L 2450 531 
L 3481 531 
L 3481 0 
L 794 0 
L 794 531 
z
" transform="scale(0.015625)"/>
       </defs>
       <use xlink:href="#DejaVuSans-31"/>
       <use xlink:href="#DejaVuSans-30" x="63.623047"/>
      </g>
     </g>
    </g>
    <g id="xtick_7">
     <g id="line2d_13">
      <path d="M 432.781406 78.7975 
L 432.781406 28.32 
" clip-path="url(#p58723cff00)" style="fill: none; stroke: #b0b0b0; stroke-width: 0.8; stroke-linecap: square"/>
     </g>
     <g id="line2d_14">
      <g>
       <use xlink:href="#m1ab8dc0cc7" x="432.781406" y="78.7975" style="stroke: #000000; stroke-width: 0.8"/>
      </g>
     </g>
     <g id="text_7">
      <!-- 12 -->
      <g transform="translate(426.418906 93.395937)scale(0.1 -0.1)">
       <use xlink:href="#DejaVuSans-31"/>
       <use xlink:href="#DejaVuSans-32" x="63.623047"/>
      </g>
     </g>
    </g>
    <g id="text_8">
     <!-- $t$ [s] -->
     <g transform="translate(243.953 107.074062)scale(0.1 -0.1)">
      <defs>
       <path id="DejaVuSans-Oblique-74" d="M 2706 3500 
L 2619 3053 
L 1472 3053 
L 1100 1153 
Q 1081 1047 1072 975 
Q 1063 903 1063 863 
Q 1063 663 1183 572 
Q 1303 481 1569 481 
L 2150 481 
L 2053 0 
L 1503 0 
Q 991 0 739 200 
Q 488 400 488 806 
Q 488 878 497 964 
Q 506 1050 525 1153 
L 897 3053 
L 409 3053 
L 500 3500 
L 978 3500 
L 1172 4494 
L 1747 4494 
L 1556 3500 
L 2706 3500 
z
" transform="scale(0.015625)"/>
       <path id="DejaVuSans-20" transform="scale(0.015625)"/>
       <path id="DejaVuSans-5b" d="M 550 4863 
L 1875 4863 
L 1875 4416 
L 1125 4416 
L 1125 -397 
L 1875 -397 
L 1875 -844 
L 550 -844 
L 550 4863 
z
" transform="scale(0.015625)"/>
       <path id="DejaVuSans-73" d="M 2834 3397 
L 2834 2853 
Q 2591 2978 2328 3040 
Q 2066 3103 1784 3103 
Q 1356 3103 1142 2972 
Q 928 2841 928 2578 
Q 928 2378 1081 2264 
Q 1234 2150 1697 2047 
L 1894 2003 
Q 2506 1872 2764 1633 
Q 3022 1394 3022 966 
Q 3022 478 2636 193 
Q 2250 -91 1575 -91 
Q 1294 -91 989 -36 
Q 684 19 347 128 
L 347 722 
Q 666 556 975 473 
Q 1284 391 1588 391 
Q 1994 391 2212 530 
Q 2431 669 2431 922 
Q 2431 1156 2273 1281 
Q 2116 1406 1581 1522 
L 1381 1569 
Q 847 1681 609 1914 
Q 372 2147 372 2553 
Q 372 3047 722 3315 
Q 1072 3584 1716 3584 
Q 2034 3584 2315 3537 
Q 2597 3491 2834 3397 
z
" transform="scale(0.015625)"/>
       <path id="DejaVuSans-5d" d="M 1947 4863 
L 1947 -844 
L 622 -844 
L 622 -397 
L 1369 -397 
L 1369 4416 
L 622 4416 
L 622 4863 
L 1947 4863 
z
" transform="scale(0.015625)"/>
      </defs>
      <use xlink:href="#DejaVuSans-Oblique-74" transform="translate(0 0.015625)"/>
      <use xlink:href="#DejaVuSans-20" transform="translate(39.208984 0.015625)"/>
      <use xlink:href="#DejaVuSans-5b" transform="translate(70.996094 0.015625)"/>
      <use xlink:href="#DejaVuSans-73" transform="translate(110.009766 0.015625)"/>
      <use xlink:href="#DejaVuSans-5d" transform="translate(162.109375 0.015625)"/>
     </g>
    </g>
   </g>
   <g id="matplotlib.axis_2">
    <g id="ytick_1">
     <g id="line2d_15">
      <path d="M 58.106 76.669072 
L 450 76.669072 
" clip-path="url(#p58723cff00)" style="fill: none; stroke: #b0b0b0; stroke-width: 0.8; stroke-linecap: square"/>
     </g>
     <g id="line2d_16">
      <defs>
       <path id="m8598020207" d="M 0 0 
L -3.5 0 
" style="stroke: #000000; stroke-width: 0.8"/>
      </defs>
      <g>
       <use xlink:href="#m8598020207" x="58.106" y="76.669072" style="stroke: #000000; stroke-width: 0.8"/>
      </g>
     </g>
     <g id="text_9">
      <!-- 0 -->
      <g transform="translate(44.7435 80.468291)scale(0.1 -0.1)">
       <use xlink:href="#DejaVuSans-30"/>
      </g>
     </g>
    </g>
    <g id="ytick_2">
     <g id="line2d_17">
      <path d="M 58.106 30.614427 
L 450 30.614427 
" clip-path="url(#p58723cff00)" style="fill: none; stroke: #b0b0b0; stroke-width: 0.8; stroke-linecap: square"/>
     </g>
     <g id="line2d_18">
      <g>
       <use xlink:href="#m8598020207" x="58.106" y="30.614427" style="stroke: #000000; stroke-width: 0.8"/>
      </g>
     </g>
     <g id="text_10">
      <!-- 10 -->
      <g transform="translate(38.381 34.413646)scale(0.1 -0.1)">
       <use xlink:href="#DejaVuSans-31"/>
       <use xlink:href="#DejaVuSans-30" x="63.623047"/>
      </g>
     </g>
    </g>
    <g id="text_11">
     <!-- $e_x$ [m] -->
     <g transform="translate(32.301313 69.20875)rotate(-90)scale(0.1 -0.1)">
      <defs>
       <path id="DejaVuSans-Oblique-65" d="M 3078 2063 
Q 3088 2113 3092 2166 
Q 3097 2219 3097 2272 
Q 3097 2653 2873 2875 
Q 2650 3097 2266 3097 
Q 1838 3097 1509 2826 
Q 1181 2556 1013 2059 
L 3078 2063 
z
M 3578 1613 
L 903 1613 
Q 884 1494 878 1425 
Q 872 1356 872 1306 
Q 872 872 1139 634 
Q 1406 397 1894 397 
Q 2269 397 2603 481 
Q 2938 566 3225 728 
L 3116 159 
Q 2806 34 2476 -28 
Q 2147 -91 1806 -91 
Q 1078 -91 686 257 
Q 294 606 294 1247 
Q 294 1794 489 2264 
Q 684 2734 1063 3103 
Q 1306 3334 1642 3459 
Q 1978 3584 2356 3584 
Q 2950 3584 3301 3228 
Q 3653 2872 3653 2272 
Q 3653 2128 3634 1964 
Q 3616 1800 3578 1613 
z
" transform="scale(0.015625)"/>
       <path id="DejaVuSans-Oblique-78" d="M 3841 3500 
L 2234 1784 
L 3219 0 
L 2559 0 
L 1819 1388 
L 531 0 
L -166 0 
L 1556 1844 
L 641 3500 
L 1300 3500 
L 1972 2234 
L 3144 3500 
L 3841 3500 
z
" transform="scale(0.015625)"/>
       <path id="DejaVuSans-6d" d="M 3328 2828 
Q 3544 3216 3844 3400 
Q 4144 3584 4550 3584 
Q 5097 3584 5394 3201 
Q 5691 2819 5691 2113 
L 5691 0 
L 5113 0 
L 5113 2094 
Q 5113 2597 4934 2840 
Q 4756 3084 4391 3084 
Q 3944 3084 3684 2787 
Q 3425 2491 3425 1978 
L 3425 0 
L 2847 0 
L 2847 2094 
Q 2847 2600 2669 2842 
Q 2491 3084 2119 3084 
Q 1678 3084 1418 2786 
Q 1159 2488 1159 1978 
L 1159 0 
L 581 0 
L 581 3500 
L 1159 3500 
L 1159 2956 
Q 1356 3278 1631 3431 
Q 1906 3584 2284 3584 
Q 2666 3584 2933 3390 
Q 3200 3197 3328 2828 
z
" transform="scale(0.015625)"/>
      </defs>
      <use xlink:href="#DejaVuSans-Oblique-65" transform="translate(0 0.015625)"/>
      <use xlink:href="#DejaVuSans-Oblique-78" transform="translate(61.523438 -16.390625)scale(0.7)"/>
      <use xlink:href="#DejaVuSans-20" transform="translate(105.683594 0.015625)"/>
      <use xlink:href="#DejaVuSans-5b" transform="translate(137.470703 0.015625)"/>
      <use xlink:href="#DejaVuSans-6d" transform="translate(176.484375 0.015625)"/>
      <use xlink:href="#DejaVuSans-5d" transform="translate(273.896484 0.015625)"/>
     </g>
    </g>
   </g>
   <g id="line2d_19">
    <path d="M 75.919364 30.614432 
L 83.062567 30.720194 
L 88.717603 30.95938 
L 97.944241 31.516647 
L 110.444847 33.204637 
L 111.040114 33.346445 
L 113.421182 33.743957 
L 114.016449 33.849878 
L 114.909349 34.020217 
L 116.992784 34.411629 
L 117.885684 34.591903 
L 120.564385 35.101494 
L 125.624154 36.318812 
L 127.707589 36.830238 
L 130.683924 37.633586 
L 133.064991 38.242162 
L 133.362625 38.404951 
L 133.660258 38.404951 
L 134.255525 38.601178 
L 136.636593 39.224111 
L 137.529494 39.54969 
L 138.422394 39.711104 
L 140.208195 40.187613 
L 142.291629 40.712201 
L 144.97033 41.427975 
L 147.351398 42.00041 
L 148.244299 42.223351 
L 150.327733 42.637334 
L 150.625367 42.802708 
L 151.518267 42.940599 
L 152.708801 43.271178 
L 154.494602 43.680547 
L 155.089869 43.761689 
L 155.387502 43.896421 
L 155.982769 44.003802 
L 156.578036 44.110864 
L 157.470937 44.324112 
L 159.852004 44.850498 
L 160.744905 45.056862 
L 163.125973 45.560734 
L 165.804674 46.127881 
L 168.781009 46.713224 
L 169.673909 46.908693 
L 171.757343 47.273491 
L 172.35261 47.440925 
L 175.328945 47.993901 
L 176.221846 48.17533 
L 178.900547 48.681596 
L 179.793447 48.864578 
L 182.174515 49.347054 
L 182.769782 49.432061 
L 185.448483 49.908561 
L 186.341384 50.089699 
L 188.424818 50.432639 
L 189.020085 50.590525 
L 191.99642 51.11435 
L 192.88932 51.28915 
L 195.270388 51.744179 
L 196.163289 51.929801 
L 199.139623 52.473019 
L 200.330157 52.715816 
L 202.711225 53.143386 
L 203.901759 53.394421 
L 206.282827 53.818462 
L 206.878094 53.927321 
L 207.770994 54.100467 
L 209.854429 54.471345 
L 210.449696 54.581787 
L 211.342596 54.758805 
L 213.723664 55.192574 
L 214.616564 55.360263 
L 217.592899 55.860661 
L 218.485799 56.031433 
L 220.866867 56.457668 
L 221.759768 56.623281 
L 224.140835 57.009097 
L 224.736102 57.111756 
L 225.629003 57.278767 
L 228.307704 57.76628 
L 230.986405 58.216759 
L 233.06984 58.564842 
L 233.665107 58.669467 
L 234.558007 58.837956 
L 236.939075 59.252503 
L 238.129609 59.491974 
L 238.724876 59.571092 
L 241.403577 60.014102 
L 242.296478 60.178434 
L 246.463346 60.85495 
L 250.332582 61.513996 
L 254.797084 62.219107 
L 255.987618 62.411758 
L 259.856853 63.067653 
L 261.047387 63.231623 
L 261.642654 63.340135 
L 262.833188 63.467449 
L 263.428455 63.596843 
L 266.404789 64.03561 
L 267.000056 64.167399 
L 271.166925 64.779657 
L 272.357459 64.954899 
L 275.929061 65.503081 
L 280.095929 66.084917 
L 281.584097 66.299237 
L 285.155698 66.829599 
L 286.643866 66.991532 
L 288.132033 67.224514 
L 289.024934 67.31682 
L 292.596535 67.797885 
L 298.846838 68.593842 
L 300.037372 68.748033 
L 304.204241 69.30184 
L 305.394775 69.44778 
L 309.26401 69.921479 
L 310.752177 70.123694 
L 313.728512 70.505741 
L 314.621413 70.605569 
L 318.788281 71.090543 
L 319.681182 71.22916 
L 325.931485 71.977615 
L 326.824385 72.106761 
L 330.098354 72.488208 
L 330.69362 72.595401 
L 336.051023 73.201926 
L 336.64629 73.301913 
L 340.813159 73.789944 
L 341.706059 73.908319 
L 346.468195 74.408381 
L 347.956362 74.56835 
L 351.825597 74.985532 
L 353.016131 75.079492 
L 357.183 75.426737 
L 358.671167 75.519515 
L 361.052235 75.67849 
L 375.636276 76.264108 
L 386.648714 76.306326 
L 412.84046 75.852732 
L 421.174198 75.958781 
L 426.829234 76.236392 
L 432.186636 76.503068 
L 432.186636 76.503068 
" clip-path="url(#p58723cff00)" style="fill: none; stroke: #ff0000; stroke-width: 1.5; stroke-linecap: square"/>
   </g>
   <g id="patch_3">
    <path d="M 58.106 78.7975 
L 58.106 28.32 
" style="fill: none; stroke: #000000; stroke-width: 0.8; stroke-linejoin: miter; stroke-linecap: square"/>
   </g>
   <g id="patch_4">
    <path d="M 450 78.7975 
L 450 28.32 
" style="fill: none; stroke: #000000; stroke-width: 0.8; stroke-linejoin: miter; stroke-linecap: square"/>
   </g>
   <g id="patch_5">
    <path d="M 58.106 78.7975 
L 450 78.7975 
" style="fill: none; stroke: #000000; stroke-width: 0.8; stroke-linejoin: miter; stroke-linecap: square"/>
   </g>
   <g id="patch_6">
    <path d="M 58.106 28.32 
L 450 28.32 
" style="fill: none; stroke: #000000; stroke-width: 0.8; stroke-linejoin: miter; stroke-linecap: square"/>
   </g>
   <g id="text_12">
    <!-- Error in $x$-position -->
    <g transform="translate(200.413 22.32)scale(0.12 -0.12)">
     <defs>
      <path id="DejaVuSans-45" d="M 628 4666 
L 3578 4666 
L 3578 4134 
L 1259 4134 
L 1259 2753 
L 3481 2753 
L 3481 2222 
L 1259 2222 
L 1259 531 
L 3634 531 
L 3634 0 
L 628 0 
L 628 4666 
z
" transform="scale(0.015625)"/>
      <path id="DejaVuSans-72" d="M 2631 2963 
Q 2534 3019 2420 3045 
Q 2306 3072 2169 3072 
Q 1681 3072 1420 2755 
Q 1159 2438 1159 1844 
L 1159 0 
L 581 0 
L 581 3500 
L 1159 3500 
L 1159 2956 
Q 1341 3275 1631 3429 
Q 1922 3584 2338 3584 
Q 2397 3584 2469 3576 
Q 2541 3569 2628 3553 
L 2631 2963 
z
" transform="scale(0.015625)"/>
      <path id="DejaVuSans-6f" d="M 1959 3097 
Q 1497 3097 1228 2736 
Q 959 2375 959 1747 
Q 959 1119 1226 758 
Q 1494 397 1959 397 
Q 2419 397 2687 759 
Q 2956 1122 2956 1747 
Q 2956 2369 2687 2733 
Q 2419 3097 1959 3097 
z
M 1959 3584 
Q 2709 3584 3137 3096 
Q 3566 2609 3566 1747 
Q 3566 888 3137 398 
Q 2709 -91 1959 -91 
Q 1206 -91 779 398 
Q 353 888 353 1747 
Q 353 2609 779 3096 
Q 1206 3584 1959 3584 
z
" transform="scale(0.015625)"/>
      <path id="DejaVuSans-69" d="M 603 3500 
L 1178 3500 
L 1178 0 
L 603 0 
L 603 3500 
z
M 603 4863 
L 1178 4863 
L 1178 4134 
L 603 4134 
L 603 4863 
z
" transform="scale(0.015625)"/>
      <path id="DejaVuSans-6e" d="M 3513 2113 
L 3513 0 
L 2938 0 
L 2938 2094 
Q 2938 2591 2744 2837 
Q 2550 3084 2163 3084 
Q 1697 3084 1428 2787 
Q 1159 2491 1159 1978 
L 1159 0 
L 581 0 
L 581 3500 
L 1159 3500 
L 1159 2956 
Q 1366 3272 1645 3428 
Q 1925 3584 2291 3584 
Q 2894 3584 3203 3211 
Q 3513 2838 3513 2113 
z
" transform="scale(0.015625)"/>
      <path id="DejaVuSans-2d" d="M 313 2009 
L 1997 2009 
L 1997 1497 
L 313 1497 
L 313 2009 
z
" transform="scale(0.015625)"/>
      <path id="DejaVuSans-70" d="M 1159 525 
L 1159 -1331 
L 581 -1331 
L 581 3500 
L 1159 3500 
L 1159 2969 
Q 1341 3281 1617 3432 
Q 1894 3584 2278 3584 
Q 2916 3584 3314 3078 
Q 3713 2572 3713 1747 
Q 3713 922 3314 415 
Q 2916 -91 2278 -91 
Q 1894 -91 1617 61 
Q 1341 213 1159 525 
z
M 3116 1747 
Q 3116 2381 2855 2742 
Q 2594 3103 2138 3103 
Q 1681 3103 1420 2742 
Q 1159 2381 1159 1747 
Q 1159 1113 1420 752 
Q 1681 391 2138 391 
Q 2594 391 2855 752 
Q 3116 1113 3116 1747 
z
" transform="scale(0.015625)"/>
      <path id="DejaVuSans-74" d="M 1172 4494 
L 1172 3500 
L 2356 3500 
L 2356 3053 
L 1172 3053 
L 1172 1153 
Q 1172 725 1289 603 
Q 1406 481 1766 481 
L 2356 481 
L 2356 0 
L 1766 0 
Q 1100 0 847 248 
Q 594 497 594 1153 
L 594 3053 
L 172 3053 
L 172 3500 
L 594 3500 
L 594 4494 
L 1172 4494 
z
" transform="scale(0.015625)"/>
     </defs>
     <use xlink:href="#DejaVuSans-45" transform="translate(0 0.015625)"/>
     <use xlink:href="#DejaVuSans-72" transform="translate(63.183594 0.015625)"/>
     <use xlink:href="#DejaVuSans-72" transform="translate(104.296875 0.015625)"/>
     <use xlink:href="#DejaVuSans-6f" transform="translate(145.410156 0.015625)"/>
     <use xlink:href="#DejaVuSans-72" transform="translate(206.591797 0.015625)"/>
     <use xlink:href="#DejaVuSans-20" transform="translate(247.705078 0.015625)"/>
     <use xlink:href="#DejaVuSans-69" transform="translate(279.492188 0.015625)"/>
     <use xlink:href="#DejaVuSans-6e" transform="translate(307.275391 0.015625)"/>
     <use xlink:href="#DejaVuSans-20" transform="translate(370.654297 0.015625)"/>
     <use xlink:href="#DejaVuSans-Oblique-78" transform="translate(402.441406 0.015625)"/>
     <use xlink:href="#DejaVuSans-2d" transform="translate(461.621094 0.015625)"/>
     <use xlink:href="#DejaVuSans-70" transform="translate(497.705078 0.015625)"/>
     <use xlink:href="#DejaVuSans-6f" transform="translate(561.181641 0.015625)"/>
     <use xlink:href="#DejaVuSans-73" transform="translate(622.363281 0.015625)"/>
     <use xlink:href="#DejaVuSans-69" transform="translate(674.462891 0.015625)"/>
     <use xlink:href="#DejaVuSans-74" transform="translate(702.246094 0.015625)"/>
     <use xlink:href="#DejaVuSans-69" transform="translate(741.455078 0.015625)"/>
     <use xlink:href="#DejaVuSans-6f" transform="translate(769.238281 0.015625)"/>
     <use xlink:href="#DejaVuSans-6e" transform="translate(830.419922 0.015625)"/>
    </g>
   </g>
  </g>
  <g id="axes_2">
   <g id="patch_7">
    <path d="M 58.106 190.3975 
L 450 190.3975 
L 450 139.92 
L 58.106 139.92 
z
" style="fill: #ffffff"/>
   </g>
   <g id="matplotlib.axis_3">
    <g id="xtick_8">
     <g id="line2d_20">
      <path d="M 75.919364 190.3975 
L 75.919364 139.92 
" clip-path="url(#pf7d18b5c85)" style="fill: none; stroke: #b0b0b0; stroke-width: 0.8; stroke-linecap: square"/>
     </g>
     <g id="line2d_21">
      <g>
       <use xlink:href="#m1ab8dc0cc7" x="75.919364" y="190.3975" style="stroke: #000000; stroke-width: 0.8"/>
      </g>
     </g>
     <g id="text_13">
      <!-- 0 -->
      <g transform="translate(72.738114 204.995937)scale(0.1 -0.1)">
       <use xlink:href="#DejaVuSans-30"/>
      </g>
     </g>
    </g>
    <g id="xtick_9">
     <g id="line2d_22">
      <path d="M 135.396371 190.3975 
L 135.396371 139.92 
" clip-path="url(#pf7d18b5c85)" style="fill: none; stroke: #b0b0b0; stroke-width: 0.8; stroke-linecap: square"/>
     </g>
     <g id="line2d_23">
      <g>
       <use xlink:href="#m1ab8dc0cc7" x="135.396371" y="190.3975" style="stroke: #000000; stroke-width: 0.8"/>
      </g>
     </g>
     <g id="text_14">
      <!-- 2 -->
      <g transform="translate(132.215121 204.995937)scale(0.1 -0.1)">
       <use xlink:href="#DejaVuSans-32"/>
      </g>
     </g>
    </g>
    <g id="xtick_10">
     <g id="line2d_24">
      <path d="M 194.873378 190.3975 
L 194.873378 139.92 
" clip-path="url(#pf7d18b5c85)" style="fill: none; stroke: #b0b0b0; stroke-width: 0.8; stroke-linecap: square"/>
     </g>
     <g id="line2d_25">
      <g>
       <use xlink:href="#m1ab8dc0cc7" x="194.873378" y="190.3975" style="stroke: #000000; stroke-width: 0.8"/>
      </g>
     </g>
     <g id="text_15">
      <!-- 4 -->
      <g transform="translate(191.692128 204.995937)scale(0.1 -0.1)">
       <use xlink:href="#DejaVuSans-34"/>
      </g>
     </g>
    </g>
    <g id="xtick_11">
     <g id="line2d_26">
      <path d="M 254.350385 190.3975 
L 254.350385 139.92 
" clip-path="url(#pf7d18b5c85)" style="fill: none; stroke: #b0b0b0; stroke-width: 0.8; stroke-linecap: square"/>
     </g>
     <g id="line2d_27">
      <g>
       <use xlink:href="#m1ab8dc0cc7" x="254.350385" y="190.3975" style="stroke: #000000; stroke-width: 0.8"/>
      </g>
     </g>
     <g id="text_16">
      <!-- 6 -->
      <g transform="translate(251.169135 204.995937)scale(0.1 -0.1)">
       <use xlink:href="#DejaVuSans-36"/>
      </g>
     </g>
    </g>
    <g id="xtick_12">
     <g id="line2d_28">
      <path d="M 313.827392 190.3975 
L 313.827392 139.92 
" clip-path="url(#pf7d18b5c85)" style="fill: none; stroke: #b0b0b0; stroke-width: 0.8; stroke-linecap: square"/>
     </g>
     <g id="line2d_29">
      <g>
       <use xlink:href="#m1ab8dc0cc7" x="313.827392" y="190.3975" style="stroke: #000000; stroke-width: 0.8"/>
      </g>
     </g>
     <g id="text_17">
      <!-- 8 -->
      <g transform="translate(310.646142 204.995937)scale(0.1 -0.1)">
       <use xlink:href="#DejaVuSans-38"/>
      </g>
     </g>
    </g>
    <g id="xtick_13">
     <g id="line2d_30">
      <path d="M 373.304399 190.3975 
L 373.304399 139.92 
" clip-path="url(#pf7d18b5c85)" style="fill: none; stroke: #b0b0b0; stroke-width: 0.8; stroke-linecap: square"/>
     </g>
     <g id="line2d_31">
      <g>
       <use xlink:href="#m1ab8dc0cc7" x="373.304399" y="190.3975" style="stroke: #000000; stroke-width: 0.8"/>
      </g>
     </g>
     <g id="text_18">
      <!-- 10 -->
      <g transform="translate(366.941899 204.995937)scale(0.1 -0.1)">
       <use xlink:href="#DejaVuSans-31"/>
       <use xlink:href="#DejaVuSans-30" x="63.623047"/>
      </g>
     </g>
    </g>
    <g id="xtick_14">
     <g id="line2d_32">
      <path d="M 432.781406 190.3975 
L 432.781406 139.92 
" clip-path="url(#pf7d18b5c85)" style="fill: none; stroke: #b0b0b0; stroke-width: 0.8; stroke-linecap: square"/>
     </g>
     <g id="line2d_33">
      <g>
       <use xlink:href="#m1ab8dc0cc7" x="432.781406" y="190.3975" style="stroke: #000000; stroke-width: 0.8"/>
      </g>
     </g>
     <g id="text_19">
      <!-- 12 -->
      <g transform="translate(426.418906 204.995937)scale(0.1 -0.1)">
       <use xlink:href="#DejaVuSans-31"/>
       <use xlink:href="#DejaVuSans-32" x="63.623047"/>
      </g>
     </g>
    </g>
    <g id="text_20">
     <!-- $t$ [s] -->
     <g transform="translate(243.953 218.674062)scale(0.1 -0.1)">
      <use xlink:href="#DejaVuSans-Oblique-74" transform="translate(0 0.015625)"/>
      <use xlink:href="#DejaVuSans-20" transform="translate(39.208984 0.015625)"/>
      <use xlink:href="#DejaVuSans-5b" transform="translate(70.996094 0.015625)"/>
      <use xlink:href="#DejaVuSans-73" transform="translate(110.009766 0.015625)"/>
      <use xlink:href="#DejaVuSans-5d" transform="translate(162.109375 0.015625)"/>
     </g>
    </g>
   </g>
   <g id="matplotlib.axis_4">
    <g id="ytick_3">
     <g id="line2d_34">
      <path d="M 58.106 180.520394 
L 450 180.520394 
" clip-path="url(#pf7d18b5c85)" style="fill: none; stroke: #b0b0b0; stroke-width: 0.8; stroke-linecap: square"/>
     </g>
     <g id="line2d_35">
      <g>
       <use xlink:href="#m8598020207" x="58.106" y="180.520394" style="stroke: #000000; stroke-width: 0.8"/>
      </g>
     </g>
     <g id="text_21">
      <!-- −0.1 -->
      <g transform="translate(26.823188 184.319612)scale(0.1 -0.1)">
       <defs>
        <path id="DejaVuSans-2212" d="M 678 2272 
L 4684 2272 
L 4684 1741 
L 678 1741 
L 678 2272 
z
" transform="scale(0.015625)"/>
        <path id="DejaVuSans-2e" d="M 684 794 
L 1344 794 
L 1344 0 
L 684 0 
L 684 794 
z
" transform="scale(0.015625)"/>
       </defs>
       <use xlink:href="#DejaVuSans-2212"/>
       <use xlink:href="#DejaVuSans-30" x="83.789062"/>
       <use xlink:href="#DejaVuSans-2e" x="147.412109"/>
       <use xlink:href="#DejaVuSans-31" x="179.199219"/>
      </g>
     </g>
    </g>
    <g id="ytick_4">
     <g id="line2d_36">
      <path d="M 58.106 165.678335 
L 450 165.678335 
" clip-path="url(#pf7d18b5c85)" style="fill: none; stroke: #b0b0b0; stroke-width: 0.8; stroke-linecap: square"/>
     </g>
     <g id="line2d_37">
      <g>
       <use xlink:href="#m8598020207" x="58.106" y="165.678335" style="stroke: #000000; stroke-width: 0.8"/>
      </g>
     </g>
     <g id="text_22">
      <!-- 0.0 -->
      <g transform="translate(35.202875 169.477554)scale(0.1 -0.1)">
       <use xlink:href="#DejaVuSans-30"/>
       <use xlink:href="#DejaVuSans-2e" x="63.623047"/>
       <use xlink:href="#DejaVuSans-30" x="95.410156"/>
      </g>
     </g>
    </g>
    <g id="ytick_5">
     <g id="line2d_38">
      <path d="M 58.106 150.836276 
L 450 150.836276 
" clip-path="url(#pf7d18b5c85)" style="fill: none; stroke: #b0b0b0; stroke-width: 0.8; stroke-linecap: square"/>
     </g>
     <g id="line2d_39">
      <g>
       <use xlink:href="#m8598020207" x="58.106" y="150.836276" style="stroke: #000000; stroke-width: 0.8"/>
      </g>
     </g>
     <g id="text_23">
      <!-- 0.1 -->
      <g transform="translate(35.202875 154.635495)scale(0.1 -0.1)">
       <use xlink:href="#DejaVuSans-30"/>
       <use xlink:href="#DejaVuSans-2e" x="63.623047"/>
       <use xlink:href="#DejaVuSans-31" x="95.410156"/>
      </g>
     </g>
    </g>
    <g id="text_24">
     <!-- $e_z$ [m] -->
     <g transform="translate(20.7435 180.60875)rotate(-90)scale(0.1 -0.1)">
      <defs>
       <path id="DejaVuSans-Oblique-7a" d="M 744 3500 
L 3475 3500 
L 3372 2975 
L 738 459 
L 2913 459 
L 2822 0 
L -19 0 
L 84 525 
L 2719 3041 
L 653 3041 
L 744 3500 
z
" transform="scale(0.015625)"/>
      </defs>
      <use xlink:href="#DejaVuSans-Oblique-65" transform="translate(0 0.015625)"/>
      <use xlink:href="#DejaVuSans-Oblique-7a" transform="translate(61.523438 -16.390625)scale(0.7)"/>
      <use xlink:href="#DejaVuSans-20" transform="translate(101.000977 0.015625)"/>
      <use xlink:href="#DejaVuSans-5b" transform="translate(132.788086 0.015625)"/>
      <use xlink:href="#DejaVuSans-6d" transform="translate(171.801758 0.015625)"/>
      <use xlink:href="#DejaVuSans-5d" transform="translate(269.213867 0.015625)"/>
     </g>
    </g>
   </g>
   <g id="line2d_40">
    <path d="M 75.919364 167.073622 
L 78.895698 165.140494 
L 80.383866 165.026542 
L 81.5744 165.269335 
L 82.764934 165.210429 
L 83.062567 165.136589 
L 83.360201 164.920901 
L 83.657834 164.920901 
L 83.955468 164.437491 
L 84.550734 164.129903 
L 85.146001 163.670647 
L 86.038902 162.619294 
L 89.015237 160.597334 
L 89.610504 159.790522 
L 90.205771 159.121747 
L 90.503404 158.35361 
L 90.801038 158.35361 
L 91.098671 157.13394 
L 91.396304 156.93085 
L 91.991571 156.13132 
L 92.289205 155.380356 
L 92.586838 155.380356 
L 92.884472 154.431203 
L 93.479739 154.059744 
L 94.670273 153.304769 
L 95.563173 153.237489 
L 97.051341 153.62685 
L 97.646608 153.940337 
L 99.730042 154.638282 
L 100.622942 154.619987 
L 100.920576 154.619987 
L 102.11111 154.01988 
L 102.408743 153.76443 
L 102.706377 153.76443 
L 103.599277 152.647279 
L 103.896911 152.519944 
L 104.492177 151.993638 
L 104.789811 151.457365 
L 105.087444 151.457365 
L 105.385078 150.702587 
L 105.980345 150.369409 
L 106.277978 150.169067 
L 106.575612 149.827773 
L 106.873245 149.827773 
L 107.170879 149.448637 
L 108.063779 149.211253 
L 108.95668 148.74265 
L 109.551947 148.575779 
L 109.84958 148.454457 
L 110.147214 148.188277 
L 110.444847 148.188277 
L 110.742481 147.752585 
L 111.337747 147.528163 
L 111.635381 147.379168 
L 111.933014 147.01715 
L 112.230648 147.01715 
L 112.825915 146.612121 
L 113.421182 146.359413 
L 113.718815 146.08509 
L 114.016449 146.08509 
L 114.611716 145.794945 
L 115.504616 145.420758 
L 116.099883 144.998364 
L 116.69515 144.650333 
L 118.183317 143.257671 
L 118.778584 142.777805 
L 119.076218 142.484984 
L 119.969118 142.241352 
L 120.862019 142.256497 
L 122.64782 143.070203 
L 123.243087 143.611586 
L 124.135987 144.257438 
L 125.624154 145.898744 
L 125.921788 146.157132 
L 126.219421 146.779023 
L 126.517055 146.779023 
L 126.814688 147.236945 
L 129.195756 148.829468 
L 129.49339 148.962644 
L 129.791023 149.304431 
L 130.088657 149.304431 
L 130.683924 149.774665 
L 131.27919 150.143157 
L 133.064991 151.907358 
L 133.362625 152.549587 
L 133.660258 152.549587 
L 133.957892 153.038685 
L 134.850792 153.69563 
L 135.148426 154.157603 
L 135.446059 154.157603 
L 135.743693 154.472583 
L 136.934227 155.147036 
L 137.827127 155.664453 
L 138.720027 156.279593 
L 139.017661 156.664118 
L 140.803462 157.863746 
L 141.101095 158.163854 
L 142.886896 158.890883 
L 144.07743 159.201005 
L 144.672697 159.470361 
L 145.565597 159.845708 
L 147.053765 161.048985 
L 147.649032 161.858136 
L 147.946665 161.858136 
L 148.244299 162.33663 
L 148.839566 162.930782 
L 149.137199 163.284603 
L 149.732466 163.639483 
L 150.0301 164.119648 
L 150.327733 164.119648 
L 150.625367 164.879214 
L 150.923 165.013036 
L 151.220633 165.574146 
L 151.518267 165.574146 
L 151.8159 166.180171 
L 152.113534 166.500298 
L 153.006434 168.07635 
L 153.304068 168.07635 
L 153.601701 168.827511 
L 153.899335 169.208079 
L 154.494602 170.34364 
L 154.792235 170.52939 
L 155.089869 170.895892 
L 155.387502 171.774271 
L 155.685136 171.774271 
L 155.982769 172.430531 
L 156.280403 172.587735 
L 157.173303 173.885389 
L 158.363837 175.030006 
L 158.66147 175.518107 
L 159.852004 176.611743 
L 160.149638 177.098175 
L 160.447271 177.098175 
L 160.744905 177.580805 
L 161.637805 178.395554 
L 161.935439 178.836812 
L 162.233072 178.836812 
L 162.530706 179.247183 
L 164.316506 180.316158 
L 165.50704 180.518064 
L 167.590475 180.528512 
L 168.781009 181.018075 
L 169.078642 181.285391 
L 169.376276 181.285391 
L 169.971543 181.662041 
L 170.56681 181.91508 
L 171.757343 181.973789 
L 172.35261 181.796299 
L 173.543144 181.468998 
L 173.840778 181.254673 
L 175.031312 181.186976 
L 175.626579 181.408213 
L 176.817113 181.933099 
L 177.710013 182.497149 
L 178.602913 182.68635 
L 179.19818 182.653196 
L 180.091081 182.384415 
L 180.388714 182.177638 
L 180.686348 182.177638 
L 181.281615 181.812277 
L 181.876882 181.477814 
L 182.174515 181.233169 
L 182.472149 181.233169 
L 183.067416 180.99183 
L 183.960316 181.005037 
L 185.448483 181.879612 
L 185.746117 182.239117 
L 186.04375 182.239117 
L 186.341384 182.565101 
L 187.531918 183.046601 
L 188.424818 183.135637 
L 191.698786 182.737454 
L 192.294053 182.963301 
L 193.186954 183.385952 
L 193.484587 183.767176 
L 193.782221 183.767176 
L 194.079854 184.381866 
L 194.675121 184.677087 
L 195.270388 185.109621 
L 195.568022 185.380817 
L 196.758556 185.718645 
L 197.651456 185.810207 
L 199.437257 185.93719 
L 201.223058 186.454013 
L 203.604126 187.127673 
L 205.092293 187.028346 
L 206.282827 186.848649 
L 207.175727 186.804522 
L 208.663895 186.964932 
L 209.556795 187.097436 
L 210.747329 187.102301 
L 211.640229 186.98499 
L 211.937863 186.854598 
L 212.53313 186.754824 
L 214.021297 186.61201 
L 215.211831 186.69505 
L 215.807098 186.810301 
L 216.699999 187.014404 
L 218.485799 187.220195 
L 219.3787 187.104809 
L 222.355035 186.747703 
L 223.247935 186.849168 
L 224.140835 187.03041 
L 224.438469 187.220407 
L 224.736102 187.220407 
L 225.331369 187.454744 
L 226.819537 187.709633 
L 227.712437 187.624688 
L 228.605338 187.39528 
L 229.795872 187.257897 
L 230.986405 187.363447 
L 231.581672 187.547956 
L 232.772206 187.862948 
L 234.260374 188.103068 
L 235.450908 187.963467 
L 236.046175 187.814392 
L 237.831975 187.639573 
L 243.487012 187.904189 
L 247.356247 187.809155 
L 248.249147 187.574307 
L 250.332582 187.550411 
L 253.011283 187.792171 
L 253.60655 187.683058 
L 254.797084 187.271724 
L 255.392351 186.98522 
L 257.475785 186.440143 
L 258.666319 186.507026 
L 259.856853 186.819468 
L 261.642654 186.878683 
L 262.237921 186.801426 
L 262.535554 186.662011 
L 262.833188 186.662011 
L 263.130821 186.414842 
L 264.023722 186.226886 
L 264.321355 186.08713 
L 264.618988 186.08713 
L 264.916622 185.901165 
L 267.29769 185.798784 
L 269.083491 185.780814 
L 269.976391 185.615136 
L 271.464558 184.831974 
L 271.762192 184.831974 
L 272.357459 184.468208 
L 273.250359 184.042395 
L 275.03616 183.280797 
L 276.226694 183.365717 
L 278.012495 183.82475 
L 278.905395 183.881217 
L 280.095929 183.533399 
L 280.691196 183.19121 
L 281.88173 182.656365 
L 282.179364 182.499009 
L 282.476997 182.499009 
L 283.072264 182.213672 
L 283.667531 182.045871 
L 284.560431 182.06027 
L 287.536766 182.649675 
L 288.429667 182.524486 
L 289.917834 181.719402 
L 290.215468 181.719402 
L 290.810734 181.444819 
L 292.596535 181.094898 
L 293.489436 181.155846 
L 294.67997 181.346816 
L 296.465771 181.433231 
L 297.358671 181.285638 
L 298.251571 180.988979 
L 299.739739 180.658469 
L 301.227906 180.678536 
L 304.501874 180.794452 
L 308.37111 180.568799 
L 311.942711 180.803998 
L 318.193014 180.856897 
L 323.252784 181.276422 
L 327.717286 181.351712 
L 328.610186 181.532098 
L 330.098354 181.792998 
L 330.395987 181.956501 
L 331.586521 182.119233 
L 332.479421 182.250611 
L 333.967589 182.318874 
L 336.64629 182.386013 
L 339.027358 182.686137 
L 340.217892 182.875924 
L 342.301326 183.179575 
L 344.980027 183.519256 
L 348.551629 183.42346 
L 349.742163 183.710821 
L 351.527964 184.79251 
L 351.825597 185.031281 
L 352.123231 185.031281 
L 352.718498 185.260269 
L 353.313765 185.314598 
L 354.801932 185.025628 
L 355.992466 184.614661 
L 358.0759 184.325783 
L 359.266434 184.186583 
L 360.754602 183.588746 
L 361.349869 183.098256 
L 362.540403 182.228875 
L 362.838036 181.876624 
L 364.326203 181.183194 
L 366.409638 180.825168 
L 367.600172 180.048385 
L 367.897805 179.628666 
L 369.385973 178.457003 
L 369.683606 178.106886 
L 369.98124 178.106886 
L 370.278873 177.813709 
L 371.469407 177.430922 
L 372.362307 177.319169 
L 372.957574 177.262147 
L 373.255208 177.122372 
L 373.552841 177.122372 
L 374.445742 176.660143 
L 375.041009 176.234106 
L 375.338642 175.873645 
L 376.529176 175.33141 
L 376.82681 175.175429 
L 378.314977 175.281512 
L 379.207877 175.410066 
L 380.100778 175.268756 
L 380.398411 175.109152 
L 380.993678 174.61206 
L 381.886579 173.922197 
L 382.779479 172.916971 
L 383.67238 172.465485 
L 384.267646 172.383363 
L 384.862913 172.424392 
L 385.160547 172.679656 
L 386.053447 172.934746 
L 386.351081 173.081705 
L 387.839248 173.003945 
L 388.136882 172.841136 
L 388.732149 172.340471 
L 389.625049 171.658999 
L 390.517949 170.600475 
L 391.708483 169.927871 
L 392.30375 169.800569 
L 393.196651 169.881065 
L 394.387185 170.191 
L 395.280085 170.12182 
L 397.065886 168.888654 
L 397.363519 168.425322 
L 398.851687 167.399224 
L 400.339854 167.417521 
L 401.530388 167.74764 
L 402.125655 167.82402 
L 403.018556 167.630183 
L 403.613823 167.36727 
L 405.399623 165.936069 
L 405.99489 165.70918 
L 407.185424 165.800875 
L 408.673592 166.454501 
L 409.566492 166.530894 
L 410.459392 166.27365 
L 411.054659 165.962832 
L 412.245193 164.987168 
L 413.733361 164.300981 
L 414.923895 164.320441 
L 415.816795 164.495547 
L 417.007329 164.536817 
L 418.495496 163.90908 
L 419.388397 163.138585 
L 420.281297 162.773881 
L 421.174198 162.862934 
L 421.769465 163.034549 
L 422.067098 163.258569 
L 422.364732 163.258569 
L 422.959999 163.404562 
L 423.555266 163.391547 
L 424.150532 163.130969 
L 424.745799 162.84587 
L 425.341066 162.478814 
L 425.6387 161.982183 
L 425.936333 161.982183 
L 426.233967 161.583089 
L 427.424501 160.752028 
L 428.912668 160.777593 
L 430.698469 162.180075 
L 430.996102 162.653369 
L 432.186636 163.490623 
L 432.186636 163.490623 
" clip-path="url(#pf7d18b5c85)" style="fill: none; stroke: #0000ff; stroke-width: 1.5; stroke-linecap: square"/>
   </g>
   <g id="patch_8">
    <path d="M 58.106 190.3975 
L 58.106 139.92 
" style="fill: none; stroke: #000000; stroke-width: 0.8; stroke-linejoin: miter; stroke-linecap: square"/>
   </g>
   <g id="patch_9">
    <path d="M 450 190.3975 
L 450 139.92 
" style="fill: none; stroke: #000000; stroke-width: 0.8; stroke-linejoin: miter; stroke-linecap: square"/>
   </g>
   <g id="patch_10">
    <path d="M 58.106 190.3975 
L 450 190.3975 
" style="fill: none; stroke: #000000; stroke-width: 0.8; stroke-linejoin: miter; stroke-linecap: square"/>
   </g>
   <g id="patch_11">
    <path d="M 58.106 139.92 
L 450 139.92 
" style="fill: none; stroke: #000000; stroke-width: 0.8; stroke-linejoin: miter; stroke-linecap: square"/>
   </g>
   <g id="text_25">
    <!-- Error in $z$-position -->
    <g transform="translate(200.773 133.92)scale(0.12 -0.12)">
     <use xlink:href="#DejaVuSans-45" transform="translate(0 0.015625)"/>
     <use xlink:href="#DejaVuSans-72" transform="translate(63.183594 0.015625)"/>
     <use xlink:href="#DejaVuSans-72" transform="translate(104.296875 0.015625)"/>
     <use xlink:href="#DejaVuSans-6f" transform="translate(145.410156 0.015625)"/>
     <use xlink:href="#DejaVuSans-72" transform="translate(206.591797 0.015625)"/>
     <use xlink:href="#DejaVuSans-20" transform="translate(247.705078 0.015625)"/>
     <use xlink:href="#DejaVuSans-69" transform="translate(279.492188 0.015625)"/>
     <use xlink:href="#DejaVuSans-6e" transform="translate(307.275391 0.015625)"/>
     <use xlink:href="#DejaVuSans-20" transform="translate(370.654297 0.015625)"/>
     <use xlink:href="#DejaVuSans-Oblique-7a" transform="translate(402.441406 0.015625)"/>
     <use xlink:href="#DejaVuSans-2d" transform="translate(454.931641 0.015625)"/>
     <use xlink:href="#DejaVuSans-70" transform="translate(491.015625 0.015625)"/>
     <use xlink:href="#DejaVuSans-6f" transform="translate(554.492188 0.015625)"/>
     <use xlink:href="#DejaVuSans-73" transform="translate(615.673828 0.015625)"/>
     <use xlink:href="#DejaVuSans-69" transform="translate(667.773438 0.015625)"/>
     <use xlink:href="#DejaVuSans-74" transform="translate(695.556641 0.015625)"/>
     <use xlink:href="#DejaVuSans-69" transform="translate(734.765625 0.015625)"/>
     <use xlink:href="#DejaVuSans-6f" transform="translate(762.548828 0.015625)"/>
     <use xlink:href="#DejaVuSans-6e" transform="translate(823.730469 0.015625)"/>
    </g>
   </g>
  </g>
  <g id="axes_3">
   <g id="patch_12">
    <path d="M 58.106 301.9975 
L 450 301.9975 
L 450 251.52 
L 58.106 251.52 
z
" style="fill: #ffffff"/>
   </g>
   <g id="matplotlib.axis_5">
    <g id="xtick_15">
     <g id="line2d_41">
      <path d="M 75.919364 301.9975 
L 75.919364 251.52 
" clip-path="url(#pe56659d849)" style="fill: none; stroke: #b0b0b0; stroke-width: 0.8; stroke-linecap: square"/>
     </g>
     <g id="line2d_42">
      <g>
       <use xlink:href="#m1ab8dc0cc7" x="75.919364" y="301.9975" style="stroke: #000000; stroke-width: 0.8"/>
      </g>
     </g>
     <g id="text_26">
      <!-- 0 -->
      <g transform="translate(72.738114 316.595937)scale(0.1 -0.1)">
       <use xlink:href="#DejaVuSans-30"/>
      </g>
     </g>
    </g>
    <g id="xtick_16">
     <g id="line2d_43">
      <path d="M 135.396371 301.9975 
L 135.396371 251.52 
" clip-path="url(#pe56659d849)" style="fill: none; stroke: #b0b0b0; stroke-width: 0.8; stroke-linecap: square"/>
     </g>
     <g id="line2d_44">
      <g>
       <use xlink:href="#m1ab8dc0cc7" x="135.396371" y="301.9975" style="stroke: #000000; stroke-width: 0.8"/>
      </g>
     </g>
     <g id="text_27">
      <!-- 2 -->
      <g transform="translate(132.215121 316.595937)scale(0.1 -0.1)">
       <use xlink:href="#DejaVuSans-32"/>
      </g>
     </g>
    </g>
    <g id="xtick_17">
     <g id="line2d_45">
      <path d="M 194.873378 301.9975 
L 194.873378 251.52 
" clip-path="url(#pe56659d849)" style="fill: none; stroke: #b0b0b0; stroke-width: 0.8; stroke-linecap: square"/>
     </g>
     <g id="line2d_46">
      <g>
       <use xlink:href="#m1ab8dc0cc7" x="194.873378" y="301.9975" style="stroke: #000000; stroke-width: 0.8"/>
      </g>
     </g>
     <g id="text_28">
      <!-- 4 -->
      <g transform="translate(191.692128 316.595937)scale(0.1 -0.1)">
       <use xlink:href="#DejaVuSans-34"/>
      </g>
     </g>
    </g>
    <g id="xtick_18">
     <g id="line2d_47">
      <path d="M 254.350385 301.9975 
L 254.350385 251.52 
" clip-path="url(#pe56659d849)" style="fill: none; stroke: #b0b0b0; stroke-width: 0.8; stroke-linecap: square"/>
     </g>
     <g id="line2d_48">
      <g>
       <use xlink:href="#m1ab8dc0cc7" x="254.350385" y="301.9975" style="stroke: #000000; stroke-width: 0.8"/>
      </g>
     </g>
     <g id="text_29">
      <!-- 6 -->
      <g transform="translate(251.169135 316.595937)scale(0.1 -0.1)">
       <use xlink:href="#DejaVuSans-36"/>
      </g>
     </g>
    </g>
    <g id="xtick_19">
     <g id="line2d_49">
      <path d="M 313.827392 301.9975 
L 313.827392 251.52 
" clip-path="url(#pe56659d849)" style="fill: none; stroke: #b0b0b0; stroke-width: 0.8; stroke-linecap: square"/>
     </g>
     <g id="line2d_50">
      <g>
       <use xlink:href="#m1ab8dc0cc7" x="313.827392" y="301.9975" style="stroke: #000000; stroke-width: 0.8"/>
      </g>
     </g>
     <g id="text_30">
      <!-- 8 -->
      <g transform="translate(310.646142 316.595937)scale(0.1 -0.1)">
       <use xlink:href="#DejaVuSans-38"/>
      </g>
     </g>
    </g>
    <g id="xtick_20">
     <g id="line2d_51">
      <path d="M 373.304399 301.9975 
L 373.304399 251.52 
" clip-path="url(#pe56659d849)" style="fill: none; stroke: #b0b0b0; stroke-width: 0.8; stroke-linecap: square"/>
     </g>
     <g id="line2d_52">
      <g>
       <use xlink:href="#m1ab8dc0cc7" x="373.304399" y="301.9975" style="stroke: #000000; stroke-width: 0.8"/>
      </g>
     </g>
     <g id="text_31">
      <!-- 10 -->
      <g transform="translate(366.941899 316.595937)scale(0.1 -0.1)">
       <use xlink:href="#DejaVuSans-31"/>
       <use xlink:href="#DejaVuSans-30" x="63.623047"/>
      </g>
     </g>
    </g>
    <g id="xtick_21">
     <g id="line2d_53">
      <path d="M 432.781406 301.9975 
L 432.781406 251.52 
" clip-path="url(#pe56659d849)" style="fill: none; stroke: #b0b0b0; stroke-width: 0.8; stroke-linecap: square"/>
     </g>
     <g id="line2d_54">
      <g>
       <use xlink:href="#m1ab8dc0cc7" x="432.781406" y="301.9975" style="stroke: #000000; stroke-width: 0.8"/>
      </g>
     </g>
     <g id="text_32">
      <!-- 12 -->
      <g transform="translate(426.418906 316.595937)scale(0.1 -0.1)">
       <use xlink:href="#DejaVuSans-31"/>
       <use xlink:href="#DejaVuSans-32" x="63.623047"/>
      </g>
     </g>
    </g>
    <g id="text_33">
     <!-- $t$ [s] -->
     <g transform="translate(243.953 330.274063)scale(0.1 -0.1)">
      <use xlink:href="#DejaVuSans-Oblique-74" transform="translate(0 0.015625)"/>
      <use xlink:href="#DejaVuSans-20" transform="translate(39.208984 0.015625)"/>
      <use xlink:href="#DejaVuSans-5b" transform="translate(70.996094 0.015625)"/>
      <use xlink:href="#DejaVuSans-73" transform="translate(110.009766 0.015625)"/>
      <use xlink:href="#DejaVuSans-5d" transform="translate(162.109375 0.015625)"/>
     </g>
    </g>
   </g>
   <g id="matplotlib.axis_6">
    <g id="ytick_6">
     <g id="line2d_55">
      <path d="M 58.106 291.017037 
L 450 291.017037 
" clip-path="url(#pe56659d849)" style="fill: none; stroke: #b0b0b0; stroke-width: 0.8; stroke-linecap: square"/>
     </g>
     <g id="line2d_56">
      <g>
       <use xlink:href="#m8598020207" x="58.106" y="291.017037" style="stroke: #000000; stroke-width: 0.8"/>
      </g>
     </g>
     <g id="text_34">
      <!-- −0.1 -->
      <g transform="translate(26.823188 294.816255)scale(0.1 -0.1)">
       <use xlink:href="#DejaVuSans-2212"/>
       <use xlink:href="#DejaVuSans-30" x="83.789062"/>
       <use xlink:href="#DejaVuSans-2e" x="147.412109"/>
       <use xlink:href="#DejaVuSans-31" x="179.199219"/>
      </g>
     </g>
    </g>
    <g id="ytick_7">
     <g id="line2d_57">
      <path d="M 58.106 276.424512 
L 450 276.424512 
" clip-path="url(#pe56659d849)" style="fill: none; stroke: #b0b0b0; stroke-width: 0.8; stroke-linecap: square"/>
     </g>
     <g id="line2d_58">
      <g>
       <use xlink:href="#m8598020207" x="58.106" y="276.424512" style="stroke: #000000; stroke-width: 0.8"/>
      </g>
     </g>
     <g id="text_35">
      <!-- 0.0 -->
      <g transform="translate(35.202875 280.223731)scale(0.1 -0.1)">
       <use xlink:href="#DejaVuSans-30"/>
       <use xlink:href="#DejaVuSans-2e" x="63.623047"/>
       <use xlink:href="#DejaVuSans-30" x="95.410156"/>
      </g>
     </g>
    </g>
    <g id="ytick_8">
     <g id="line2d_59">
      <path d="M 58.106 261.831988 
L 450 261.831988 
" clip-path="url(#pe56659d849)" style="fill: none; stroke: #b0b0b0; stroke-width: 0.8; stroke-linecap: square"/>
     </g>
     <g id="line2d_60">
      <g>
       <use xlink:href="#m8598020207" x="58.106" y="261.831988" style="stroke: #000000; stroke-width: 0.8"/>
      </g>
     </g>
     <g id="text_36">
      <!-- 0.1 -->
      <g transform="translate(35.202875 265.631207)scale(0.1 -0.1)">
       <use xlink:href="#DejaVuSans-30"/>
       <use xlink:href="#DejaVuSans-2e" x="63.623047"/>
       <use xlink:href="#DejaVuSans-31" x="95.410156"/>
      </g>
     </g>
    </g>
    <g id="text_37">
     <!-- $e_\theta$ [rad] -->
     <g transform="translate(20.7435 295.90875)rotate(-90)scale(0.1 -0.1)">
      <defs>
       <path id="DejaVuSans-Oblique-3b8" d="M 2913 2219 
L 925 2219 
Q 791 1284 928 888 
Q 1100 400 1566 400 
Q 2034 400 2391 891 
Q 2703 1322 2913 2219 
z
M 3009 2750 
Q 3094 3638 2984 3950 
Q 2813 4444 2353 4444 
Q 1875 4444 1525 3956 
Q 1250 3563 1034 2750 
L 3009 2750 
z
M 2444 4913 
Q 3194 4913 3494 4250 
Q 3794 3591 3566 2422 
Q 3341 1256 2781 594 
Q 2225 -72 1475 -72 
Q 722 -72 425 594 
Q 128 1256 353 2422 
Q 581 3591 1134 4250 
Q 1691 4913 2444 4913 
z
" transform="scale(0.015625)"/>
       <path id="DejaVuSans-61" d="M 2194 1759 
Q 1497 1759 1228 1600 
Q 959 1441 959 1056 
Q 959 750 1161 570 
Q 1363 391 1709 391 
Q 2188 391 2477 730 
Q 2766 1069 2766 1631 
L 2766 1759 
L 2194 1759 
z
M 3341 1997 
L 3341 0 
L 2766 0 
L 2766 531 
Q 2569 213 2275 61 
Q 1981 -91 1556 -91 
Q 1019 -91 701 211 
Q 384 513 384 1019 
Q 384 1609 779 1909 
Q 1175 2209 1959 2209 
L 2766 2209 
L 2766 2266 
Q 2766 2663 2505 2880 
Q 2244 3097 1772 3097 
Q 1472 3097 1187 3025 
Q 903 2953 641 2809 
L 641 3341 
Q 956 3463 1253 3523 
Q 1550 3584 1831 3584 
Q 2591 3584 2966 3190 
Q 3341 2797 3341 1997 
z
" transform="scale(0.015625)"/>
       <path id="DejaVuSans-64" d="M 2906 2969 
L 2906 4863 
L 3481 4863 
L 3481 0 
L 2906 0 
L 2906 525 
Q 2725 213 2448 61 
Q 2172 -91 1784 -91 
Q 1150 -91 751 415 
Q 353 922 353 1747 
Q 353 2572 751 3078 
Q 1150 3584 1784 3584 
Q 2172 3584 2448 3432 
Q 2725 3281 2906 2969 
z
M 947 1747 
Q 947 1113 1208 752 
Q 1469 391 1925 391 
Q 2381 391 2643 752 
Q 2906 1113 2906 1747 
Q 2906 2381 2643 2742 
Q 2381 3103 1925 3103 
Q 1469 3103 1208 2742 
Q 947 2381 947 1747 
z
" transform="scale(0.015625)"/>
      </defs>
      <use xlink:href="#DejaVuSans-Oblique-65" transform="translate(0 0.015625)"/>
      <use xlink:href="#DejaVuSans-Oblique-3b8" transform="translate(61.523438 -16.390625)scale(0.7)"/>
      <use xlink:href="#DejaVuSans-20" transform="translate(107.084961 0.015625)"/>
      <use xlink:href="#DejaVuSans-5b" transform="translate(138.87207 0.015625)"/>
      <use xlink:href="#DejaVuSans-72" transform="translate(177.885742 0.015625)"/>
      <use xlink:href="#DejaVuSans-61" transform="translate(218.999023 0.015625)"/>
      <use xlink:href="#DejaVuSans-64" transform="translate(280.27832 0.015625)"/>
      <use xlink:href="#DejaVuSans-5d" transform="translate(343.754883 0.015625)"/>
     </g>
    </g>
   </g>
   <g id="line2d_61">
    <path d="M 75.919364 276.348352 
L 76.812264 274.7318 
L 77.109898 273.941351 
L 77.407531 273.610424 
L 77.705165 272.816775 
L 78.002798 270.727502 
L 78.300431 269.518713 
L 78.895698 265.799657 
L 79.193332 265.244521 
L 79.490965 264.211742 
L 79.788599 262.5678 
L 80.383866 261.527713 
L 80.681499 261.439931 
L 80.979133 261.493305 
L 81.276766 261.721429 
L 81.5744 262.645245 
L 81.872033 262.645245 
L 82.169667 264.904128 
L 82.4673 265.350551 
L 83.062567 267.262924 
L 83.360201 269.293519 
L 83.657834 269.293519 
L 83.955468 272.687114 
L 84.253101 273.318477 
L 85.146001 277.61019 
L 86.038902 284.805264 
L 86.931802 288.742643 
L 87.229436 288.742643 
L 87.527069 289.945528 
L 89.015237 290.505082 
L 89.610504 290.310226 
L 90.205771 289.864997 
L 90.503404 289.228224 
L 90.801038 289.228224 
L 91.098671 287.151211 
L 91.396304 286.606152 
L 91.991571 283.906233 
L 92.289205 280.588782 
L 92.586838 280.588782 
L 92.884472 275.406702 
L 93.182105 274.566783 
L 94.372639 267.964264 
L 94.670273 265.71899 
L 95.26554 263.942261 
L 95.563173 263.254861 
L 95.860807 262.211518 
L 96.15844 262.211518 
L 96.456074 261.453469 
L 97.051341 261.36833 
L 97.348974 261.419566 
L 97.944241 262.107054 
L 98.539508 263.686126 
L 98.837141 264.841165 
L 99.134775 264.841165 
L 99.432408 266.817773 
L 100.027675 269.301481 
L 100.325309 271.477976 
L 100.622942 274.689594 
L 100.920576 274.689594 
L 101.218209 278.115225 
L 101.515843 279.886321 
L 102.408743 287.288883 
L 102.706377 287.288883 
L 103.00401 289.926593 
L 103.599277 292.39637 
L 104.194544 292.708339 
L 104.492177 292.552283 
L 104.789811 291.440956 
L 105.087444 291.440956 
L 105.385078 288.301071 
L 105.682711 287.672012 
L 106.277978 285.005951 
L 106.575612 282.230592 
L 106.873245 282.230592 
L 107.170879 278.130462 
L 107.468512 277.473672 
L 108.063779 274.983807 
L 108.361413 272.822414 
L 108.659046 271.614013 
L 108.95668 270.913903 
L 109.551947 270.8018 
L 109.84958 271.051665 
L 110.147214 272.201094 
L 110.444847 272.201094 
L 110.742481 275.030691 
L 111.040114 275.564475 
L 111.635381 277.695437 
L 111.933014 280.130341 
L 112.230648 280.130341 
L 112.528281 281.562714 
L 113.123548 282.437197 
L 113.421182 282.601807 
L 113.718815 282.100521 
L 114.016449 282.100521 
L 114.611716 279.93604 
L 115.206983 277.845356 
L 115.504616 276.087118 
L 115.80225 273.647553 
L 116.992784 268.432745 
L 117.290417 266.42194 
L 118.778584 261.588569 
L 119.076218 260.022566 
L 119.969118 258.087576 
L 120.564385 257.244364 
L 120.862019 256.951804 
L 121.159652 257.119163 
L 121.457286 257.464693 
L 122.052553 258.667098 
L 122.350186 259.487667 
L 122.64782 260.900126 
L 122.945453 262.899588 
L 124.731254 268.60111 
L 125.326521 269.353825 
L 126.219421 270.118489 
L 128.005222 270.19485 
L 130.683924 270.721268 
L 131.27919 270.929822 
L 132.469724 271.860856 
L 133.064991 272.341942 
L 133.362625 273.09692 
L 133.660258 273.09692 
L 133.957892 273.883171 
L 134.850792 275.424091 
L 135.148426 276.924677 
L 135.446059 276.924677 
L 135.743693 278.19579 
L 136.636593 280.075215 
L 136.934227 281.107755 
L 137.529494 282.222948 
L 137.827127 282.379707 
L 139.017661 283.484793 
L 139.612928 283.504589 
L 140.208195 283.311569 
L 140.505828 283.120289 
L 140.803462 282.701519 
L 141.398729 281.358607 
L 142.291629 279.385755 
L 143.18453 276.109257 
L 144.672697 272.958043 
L 145.565597 272.076321 
L 145.863231 271.591026 
L 146.458498 270.331532 
L 147.053765 269.108112 
L 147.351398 267.943954 
L 147.649032 266.071324 
L 147.946665 266.071324 
L 148.244299 263.850026 
L 148.541932 262.630793 
L 149.137199 258.941448 
L 149.434833 258.37885 
L 149.732466 257.337467 
L 150.0301 255.615496 
L 150.327733 255.615496 
L 150.625367 254.160012 
L 151.518267 253.814432 
L 152.113534 254.289081 
L 153.006434 255.940912 
L 153.304068 255.940912 
L 153.601701 256.610751 
L 154.494602 257.300349 
L 155.089869 257.314888 
L 155.387502 257.151915 
L 155.685136 257.151915 
L 155.982769 256.993031 
L 156.578036 256.932888 
L 157.173303 257.324225 
L 157.76857 258.02059 
L 158.066203 258.496404 
L 158.363837 259.340612 
L 158.66147 260.640497 
L 159.554371 262.76943 
L 160.149638 265.138559 
L 160.447271 265.138559 
L 160.744905 266.208853 
L 161.637805 267.425448 
L 161.935439 267.616468 
L 162.530706 267.518827 
L 164.018873 267.066309 
L 164.61414 267.410899 
L 164.911773 267.673639 
L 165.209407 268.199393 
L 165.50704 269.055261 
L 166.399941 270.241994 
L 166.995208 270.803939 
L 167.292841 270.930739 
L 168.483375 271.004095 
L 168.781009 271.181722 
L 169.078642 271.714337 
L 169.376276 271.714337 
L 170.269176 274.717258 
L 170.56681 276.328837 
L 170.864443 276.924408 
L 171.162076 278.185803 
L 171.45971 280.875105 
L 171.757343 280.875105 
L 172.054977 284.52712 
L 172.35261 285.014227 
L 172.947877 286.427781 
L 173.245511 286.724902 
L 173.543144 286.724902 
L 173.840778 285.01169 
L 174.138411 284.528941 
L 175.031312 281.053105 
L 175.924212 275.650673 
L 176.519479 273.872661 
L 177.114746 272.637956 
L 177.41238 272.83189 
L 177.710013 273.348201 
L 178.30528 275.112866 
L 178.602913 276.28836 
L 178.900547 278.300177 
L 179.19818 281.160353 
L 180.388714 287.028454 
L 180.983981 286.92823 
L 181.281615 286.310066 
L 181.579248 285.344034 
L 181.876882 283.348837 
L 182.174515 279.952149 
L 182.472149 279.952149 
L 182.769782 276.116137 
L 183.960316 267.665637 
L 184.257949 264.487925 
L 184.853216 261.936653 
L 185.448483 260.101595 
L 186.04375 260.139778 
L 186.936651 264.608286 
L 187.234284 266.891788 
L 187.531918 267.690054 
L 187.829551 269.315994 
L 188.127185 272.495356 
L 188.424818 272.495356 
L 188.722452 276.068821 
L 189.615352 277.005454 
L 190.210619 275.218084 
L 191.103519 270.309901 
L 191.698786 267.016149 
L 192.591687 260.254889 
L 193.484587 256.273 
L 194.079854 256.182323 
L 194.377488 256.469681 
L 194.972755 258.388458 
L 195.270388 260.485452 
L 195.568022 263.843579 
L 196.758556 271.714948 
L 197.056189 274.200887 
L 197.353823 274.200887 
L 197.651456 275.498174 
L 197.949089 275.677031 
L 198.246723 275.381249 
L 198.544356 274.456339 
L 198.84199 274.025895 
L 199.139623 273.029392 
L 199.73489 268.757348 
L 200.032524 266.937174 
L 200.330157 266.36083 
L 201.223058 263.049578 
L 201.520691 262.830129 
L 201.818325 263.067901 
L 202.115958 263.945665 
L 202.413592 264.364071 
L 202.711225 265.372157 
L 203.604126 272.482752 
L 203.901759 273.249558 
L 204.497026 276.141476 
L 204.794659 278.667137 
L 205.092293 278.667137 
L 205.389926 279.447939 
L 205.68756 279.464544 
L 205.985193 279.269299 
L 206.282827 278.868863 
L 206.58046 277.040528 
L 206.878094 277.040528 
L 207.175727 275.002918 
L 208.068628 271.825296 
L 208.366261 269.75856 
L 208.663895 269.75856 
L 208.961528 268.717063 
L 209.259162 268.45434 
L 209.556795 268.383217 
L 209.854429 268.526452 
L 210.152062 269.906601 
L 210.449696 269.906601 
L 210.747329 271.886651 
L 211.640229 275.589929 
L 211.937863 278.485508 
L 212.235496 278.485508 
L 212.53313 280.289503 
L 213.128397 281.430853 
L 213.42603 281.692779 
L 213.723664 281.591717 
L 215.211831 276.199582 
L 215.509465 272.817085 
L 215.807098 272.817085 
L 216.104732 270.090269 
L 216.997632 266.568062 
L 217.592899 265.216654 
L 217.890532 265.590111 
L 218.485799 267.092818 
L 218.783433 268.164776 
L 219.081066 270.038472 
L 219.3787 272.777934 
L 220.2716 276.56913 
L 220.866867 278.543061 
L 221.164501 278.849231 
L 221.462134 278.553674 
L 221.759768 277.979439 
L 222.355035 276.125604 
L 222.652668 274.257255 
L 222.950302 271.382208 
L 224.140835 265.288803 
L 224.438469 262.159344 
L 224.736102 262.159344 
L 225.033736 260.823528 
L 225.331369 260.645682 
L 225.629003 260.806749 
L 225.926636 261.292793 
L 227.11717 268.218949 
L 227.712437 271.377362 
L 228.010071 274.003101 
L 228.605338 275.785655 
L 228.902971 276.036959 
L 229.200605 275.723936 
L 229.498238 275.723936 
L 230.093505 273.103269 
L 230.391139 271.392409 
L 230.688772 270.777508 
L 231.284039 268.186006 
L 231.879306 263.840698 
L 232.176939 262.517909 
L 233.06984 261.661131 
L 233.367473 262.884454 
L 233.665107 262.884454 
L 234.260374 266.582662 
L 234.855641 269.722739 
L 235.153274 273.58088 
L 235.450908 273.58088 
L 235.748541 276.09053 
L 236.343808 277.785444 
L 236.641442 278.251447 
L 236.939075 278.403927 
L 237.236709 277.607164 
L 237.534342 277.252241 
L 237.831975 275.880712 
L 238.129609 273.555178 
L 238.427242 273.555178 
L 238.724876 270.882514 
L 239.022509 269.515414 
L 239.617776 265.791665 
L 239.91541 265.32678 
L 240.510677 264.110943 
L 240.80831 264.363242 
L 241.105944 264.93997 
L 241.403577 266.321552 
L 241.701211 268.860401 
L 241.998844 268.860401 
L 242.296478 271.86847 
L 242.594111 273.410372 
L 243.189378 277.30872 
L 243.487012 278.416901 
L 243.784645 278.416901 
L 244.082278 278.92059 
L 244.379912 278.754929 
L 244.677545 278.325036 
L 244.975179 277.233319 
L 245.272812 275.160254 
L 246.463346 270.124506 
L 247.058613 266.903879 
L 247.356247 266.903879 
L 247.65388 266.470493 
L 247.951514 266.470493 
L 248.249147 267.952741 
L 248.546781 268.420364 
L 249.142048 270.756185 
L 249.737315 275.739978 
L 250.034948 277.819811 
L 250.332582 278.47432 
L 251.225482 281.833873 
L 251.523115 281.833873 
L 251.820749 280.99883 
L 252.118382 280.593199 
L 252.713649 278.424339 
L 253.011283 274.858744 
L 253.308916 274.858744 
L 253.60655 271.744606 
L 255.094717 264.217565 
L 255.392351 264.048593 
L 255.689984 264.188834 
L 255.987618 264.616752 
L 256.285251 265.761312 
L 256.582885 268.079146 
L 256.880518 268.079146 
L 257.178152 270.996367 
L 257.773418 274.207688 
L 258.368685 279.044759 
L 258.666319 279.044759 
L 258.963952 280.648068 
L 259.261586 281.021185 
L 259.559219 280.977543 
L 259.856853 280.215624 
L 260.154486 279.813013 
L 260.45212 278.810929 
L 260.749753 276.201971 
L 261.047387 274.674129 
L 261.34502 270.57008 
L 261.940287 268.90804 
L 262.237921 267.273978 
L 262.535554 264.287354 
L 262.833188 264.287354 
L 263.130821 261.629623 
L 263.726088 261.312367 
L 264.023722 261.486244 
L 264.321355 262.756878 
L 264.618988 262.756878 
L 264.916622 266.630519 
L 265.214255 267.435748 
L 265.809522 270.91549 
L 266.107156 274.520039 
L 266.404789 274.520039 
L 266.702423 279.361076 
L 267.000056 280.034344 
L 267.595323 282.101942 
L 267.892957 282.843457 
L 268.19059 282.434245 
L 268.488224 281.252509 
L 268.785857 280.713108 
L 269.381124 277.993103 
L 269.678758 276.378246 
L 269.976391 273.803835 
L 270.274025 270.258118 
L 271.166925 264.331931 
L 271.464558 261.470931 
L 271.762192 261.470931 
L 272.059825 259.633729 
L 272.357459 259.192934 
L 272.655092 259.183657 
L 272.952726 259.981609 
L 273.250359 260.416007 
L 273.547993 261.514742 
L 273.845626 264.483477 
L 274.440893 268.113396 
L 275.03616 274.938531 
L 275.333794 274.938531 
L 275.631427 278.508897 
L 276.524328 282.98421 
L 276.821961 283.84219 
L 277.119595 283.729595 
L 277.417228 283.27639 
L 278.012495 281.495254 
L 278.310128 279.590102 
L 278.607762 276.545618 
L 278.905395 276.545618 
L 279.203029 273.224761 
L 279.798296 269.812035 
L 280.691196 263.336423 
L 281.286463 261.801544 
L 281.584097 261.443895 
L 281.88173 261.839737 
L 282.179364 262.95832 
L 282.476997 262.95832 
L 283.965165 274.516038 
L 284.262798 274.516038 
L 284.858065 279.660939 
L 285.155698 281.170642 
L 285.453332 281.552067 
L 285.750965 282.132923 
L 286.048599 282.453161 
L 286.346232 282.498003 
L 286.643866 282.06986 
L 287.239133 279.655633 
L 287.8344 277.209356 
L 288.132033 273.653035 
L 288.429667 273.653035 
L 288.7273 270.697444 
L 289.917834 264.582253 
L 290.215468 264.582253 
L 290.513101 264.030538 
L 290.810734 264.140878 
L 291.108368 264.509489 
L 291.406001 265.540562 
L 291.703635 267.702371 
L 292.894169 273.527204 
L 293.489436 277.062061 
L 293.787069 279.33903 
L 294.382336 281.080748 
L 294.977603 282.192549 
L 295.275237 282.422845 
L 295.57287 282.246251 
L 296.763404 277.517646 
L 297.061038 273.70688 
L 297.358671 273.70688 
L 297.656304 270.550421 
L 299.144472 263.210824 
L 299.442105 262.909203 
L 299.739739 262.868659 
L 300.037372 263.090165 
L 300.335006 263.579328 
L 300.632639 264.798428 
L 300.930273 267.243635 
L 301.823173 272.110142 
L 302.41844 275.629587 
L 303.311341 282.39313 
L 303.906608 284.334366 
L 304.204241 285.119414 
L 304.501874 285.003723 
L 304.799508 284.428775 
L 305.394775 282.369285 
L 305.692408 280.990229 
L 305.990042 278.627353 
L 306.287675 275.16895 
L 307.180576 269.88262 
L 308.073476 263.114806 
L 308.668743 261.383205 
L 308.966377 260.959986 
L 309.26401 260.977181 
L 310.454544 266.329874 
L 311.049811 271.735454 
L 311.347444 272.663789 
L 311.645078 274.504017 
L 311.942711 277.979943 
L 313.133245 283.787276 
L 314.026146 283.842908 
L 314.323779 281.631853 
L 314.621413 281.044488 
L 315.21668 278.282852 
L 315.514313 275.10371 
L 315.811947 275.10371 
L 316.10958 270.15542 
L 316.407214 269.346657 
L 317.002481 266.289778 
L 317.300114 263.225514 
L 317.597747 263.225514 
L 317.895381 261.867486 
L 318.193014 261.623229 
L 318.490648 261.692015 
L 318.788281 262.088107 
L 319.085915 264.456179 
L 319.383548 264.456179 
L 319.681182 267.460431 
L 320.574082 272.718634 
L 320.871716 276.921923 
L 321.169349 276.921923 
L 321.466983 279.811445 
L 322.06225 282.138235 
L 322.657517 283.666813 
L 322.95515 283.428847 
L 323.252784 282.839728 
L 323.848051 280.903899 
L 324.145684 279.664614 
L 324.443317 277.58039 
L 324.740951 274.5815 
L 325.931485 268.60284 
L 326.229118 265.520165 
L 326.824385 263.915967 
L 327.122019 263.484705 
L 327.419652 263.312669 
L 327.717286 263.424984 
L 328.014919 265.008959 
L 328.312553 265.008959 
L 328.610186 267.417444 
L 329.503087 272.105345 
L 329.80072 275.389965 
L 330.098354 275.389965 
L 330.395987 279.924114 
L 330.69362 280.611535 
L 331.586521 284.243367 
L 331.884154 284.771558 
L 332.181788 284.538382 
L 332.479421 283.998451 
L 333.074688 280.883264 
L 333.372322 278.753534 
L 333.669955 278.753534 
L 333.967589 275.639035 
L 334.265222 274.057826 
L 335.158123 267.774979 
L 335.455756 267.774979 
L 335.75339 265.98642 
L 336.051023 265.98642 
L 336.348657 265.287033 
L 336.64629 265.429823 
L 336.943924 265.935037 
L 337.241557 266.7102 
L 337.53919 268.909945 
L 337.836824 268.909945 
L 338.134457 273.238289 
L 338.432091 274.000135 
L 339.027358 276.985611 
L 339.324991 279.63598 
L 339.920258 282.413073 
L 340.813159 283.309013 
L 341.110792 282.550915 
L 341.408426 282.550915 
L 342.003693 279.555925 
L 342.59896 276.777182 
L 342.896593 272.993058 
L 343.194227 272.993058 
L 343.49186 270.044364 
L 344.682394 264.711555 
L 344.980027 263.602639 
L 345.277661 263.42629 
L 345.575294 263.5017 
L 345.872928 263.815007 
L 346.170561 264.360669 
L 346.468195 265.584134 
L 346.765828 267.808251 
L 347.956362 273.189587 
L 348.849263 278.650964 
L 349.44453 280.473768 
L 350.039797 281.914867 
L 350.33743 282.131088 
L 350.635063 281.899471 
L 351.23033 280.821499 
L 351.527964 279.5937 
L 351.825597 277.659443 
L 352.123231 277.659443 
L 352.420864 275.757055 
L 353.611398 272.66353 
L 353.909032 272.66353 
L 354.206665 272.413178 
L 354.801932 272.403561 
L 355.099566 272.505062 
L 355.397199 272.759107 
L 355.694833 272.759107 
L 356.2901 273.300471 
L 357.183 274.156501 
L 357.480633 274.156501 
L 357.778267 274.415598 
L 358.373534 274.525915 
L 358.671167 274.487471 
L 358.968801 274.255063 
L 359.266434 274.255063 
L 359.861701 273.51683 
L 360.456968 272.762027 
L 360.754602 272.05469 
L 361.052235 270.96285 
L 362.540403 268.080381 
L 362.838036 267.701291 
L 363.13567 267.744199 
L 363.433303 267.940991 
L 363.730937 268.277251 
L 364.02857 268.992217 
L 364.326203 270.209958 
L 365.814371 273.395657 
L 366.112004 273.555541 
L 366.409638 273.555541 
L 367.004905 272.775459 
L 367.302538 272.223907 
L 367.600172 271.206372 
L 367.897805 269.69699 
L 368.790706 267.76198 
L 369.385973 267.151088 
L 369.683606 267.562756 
L 369.98124 267.562756 
L 370.576506 269.471769 
L 371.171773 271.292595 
L 372.362307 276.813208 
L 372.957574 278.49208 
L 373.255208 279.823232 
L 373.552841 279.823232 
L 373.850475 280.077217 
L 374.148108 279.928245 
L 374.743375 279.152562 
L 375.041009 278.236934 
L 375.338642 276.837078 
L 376.231543 275.073576 
L 376.82681 274.127546 
L 377.71971 274.164427 
L 378.314977 274.491503 
L 378.61261 274.927985 
L 379.207877 276.351126 
L 380.100778 278.441402 
L 380.993678 281.706694 
L 381.588945 282.525048 
L 381.886579 282.679524 
L 382.184212 282.548831 
L 382.779479 281.256396 
L 383.374746 279.972006 
L 383.970013 277.575546 
L 384.267646 277.575546 
L 384.56528 276.438824 
L 384.862913 276.438824 
L 385.160547 275.357044 
L 385.755814 275.223803 
L 386.053447 275.304559 
L 386.351081 275.831418 
L 386.648714 275.831418 
L 386.946348 277.498173 
L 387.243981 277.864901 
L 387.839248 279.486947 
L 388.434515 282.228913 
L 389.029782 283.111493 
L 389.327416 283.275485 
L 389.625049 283.219839 
L 389.922683 282.679469 
L 390.517949 280.15968 
L 391.41085 276.734711 
L 392.006117 273.131259 
L 392.601384 271.769633 
L 393.196651 271.054784 
L 393.494284 271.018694 
L 394.982452 273.814003 
L 395.875352 276.481896 
L 396.470619 277.340424 
L 397.065886 277.868856 
L 397.661153 277.243387 
L 398.25642 276.165605 
L 398.554053 275.10284 
L 398.851687 273.471687 
L 399.14932 273.471687 
L 399.446954 271.879854 
L 400.339854 270.117595 
L 400.935121 270.202843 
L 402.423289 273.437139 
L 402.720922 273.437139 
L 403.018556 274.200444 
L 404.506723 275.599779 
L 405.10199 276.128808 
L 405.697257 276.892108 
L 405.99489 277.029605 
L 406.590157 276.93071 
L 407.185424 276.682338 
L 408.971225 275.208584 
L 409.864126 274.202431 
L 411.352293 273.422071 
L 411.649926 273.436473 
L 411.94756 273.643109 
L 412.245193 274.021868 
L 412.542827 274.581712 
L 412.84046 275.753418 
L 413.138094 277.692269 
L 414.030994 280.268032 
L 414.626261 281.121965 
L 414.923895 281.135597 
L 416.709696 276.363708 
L 417.304962 273.595932 
L 417.900229 272.498064 
L 418.495496 271.929684 
L 418.79313 271.984007 
L 419.388397 273.274808 
L 419.983664 274.394553 
L 420.281297 275.641272 
L 420.578931 275.641272 
L 420.876564 276.397737 
L 421.471831 276.768994 
L 421.769465 276.780916 
L 422.067098 276.371343 
L 422.364732 276.371343 
L 422.662365 275.822825 
L 423.257632 275.465913 
L 423.555266 275.467048 
L 423.852899 275.893854 
L 425.341066 278.837376 
L 425.6387 281.045168 
L 425.936333 281.045168 
L 426.233967 283.643809 
L 427.126867 288.513885 
L 427.424501 292.402983 
L 427.722134 292.402983 
L 428.019768 294.881702 
L 429.210302 298.744159 
L 429.805569 299.563335 
L 430.698469 299.658018 
L 431.293736 298.438507 
L 432.186636 294.477487 
L 432.186636 294.477487 
" clip-path="url(#pe56659d849)" style="fill: none; stroke: #008000; stroke-width: 1.5; stroke-linecap: square"/>
   </g>
   <g id="patch_13">
    <path d="M 58.106 301.9975 
L 58.106 251.52 
" style="fill: none; stroke: #000000; stroke-width: 0.8; stroke-linejoin: miter; stroke-linecap: square"/>
   </g>
   <g id="patch_14">
    <path d="M 450 301.9975 
L 450 251.52 
" style="fill: none; stroke: #000000; stroke-width: 0.8; stroke-linejoin: miter; stroke-linecap: square"/>
   </g>
   <g id="patch_15">
    <path d="M 58.106 301.9975 
L 450 301.9975 
" style="fill: none; stroke: #000000; stroke-width: 0.8; stroke-linejoin: miter; stroke-linecap: square"/>
   </g>
   <g id="patch_16">
    <path d="M 58.106 251.52 
L 450 251.52 
" style="fill: none; stroke: #000000; stroke-width: 0.8; stroke-linejoin: miter; stroke-linecap: square"/>
   </g>
   <g id="text_38">
    <!-- Error in swing angle -->
    <g transform="translate(194.282688 245.52)scale(0.12 -0.12)">
     <defs>
      <path id="DejaVuSans-77" d="M 269 3500 
L 844 3500 
L 1563 769 
L 2278 3500 
L 2956 3500 
L 3675 769 
L 4391 3500 
L 4966 3500 
L 4050 0 
L 3372 0 
L 2619 2869 
L 1863 0 
L 1184 0 
L 269 3500 
z
" transform="scale(0.015625)"/>
      <path id="DejaVuSans-67" d="M 2906 1791 
Q 2906 2416 2648 2759 
Q 2391 3103 1925 3103 
Q 1463 3103 1205 2759 
Q 947 2416 947 1791 
Q 947 1169 1205 825 
Q 1463 481 1925 481 
Q 2391 481 2648 825 
Q 2906 1169 2906 1791 
z
M 3481 434 
Q 3481 -459 3084 -895 
Q 2688 -1331 1869 -1331 
Q 1566 -1331 1297 -1286 
Q 1028 -1241 775 -1147 
L 775 -588 
Q 1028 -725 1275 -790 
Q 1522 -856 1778 -856 
Q 2344 -856 2625 -561 
Q 2906 -266 2906 331 
L 2906 616 
Q 2728 306 2450 153 
Q 2172 0 1784 0 
Q 1141 0 747 490 
Q 353 981 353 1791 
Q 353 2603 747 3093 
Q 1141 3584 1784 3584 
Q 2172 3584 2450 3431 
Q 2728 3278 2906 2969 
L 2906 3500 
L 3481 3500 
L 3481 434 
z
" transform="scale(0.015625)"/>
      <path id="DejaVuSans-6c" d="M 603 4863 
L 1178 4863 
L 1178 0 
L 603 0 
L 603 4863 
z
" transform="scale(0.015625)"/>
      <path id="DejaVuSans-65" d="M 3597 1894 
L 3597 1613 
L 953 1613 
Q 991 1019 1311 708 
Q 1631 397 2203 397 
Q 2534 397 2845 478 
Q 3156 559 3463 722 
L 3463 178 
Q 3153 47 2828 -22 
Q 2503 -91 2169 -91 
Q 1331 -91 842 396 
Q 353 884 353 1716 
Q 353 2575 817 3079 
Q 1281 3584 2069 3584 
Q 2775 3584 3186 3129 
Q 3597 2675 3597 1894 
z
M 3022 2063 
Q 3016 2534 2758 2815 
Q 2500 3097 2075 3097 
Q 1594 3097 1305 2825 
Q 1016 2553 972 2059 
L 3022 2063 
z
" transform="scale(0.015625)"/>
     </defs>
     <use xlink:href="#DejaVuSans-45"/>
     <use xlink:href="#DejaVuSans-72" x="63.183594"/>
     <use xlink:href="#DejaVuSans-72" x="102.546875"/>
     <use xlink:href="#DejaVuSans-6f" x="141.410156"/>
     <use xlink:href="#DejaVuSans-72" x="202.591797"/>
     <use xlink:href="#DejaVuSans-20" x="243.705078"/>
     <use xlink:href="#DejaVuSans-69" x="275.492188"/>
     <use xlink:href="#DejaVuSans-6e" x="303.275391"/>
     <use xlink:href="#DejaVuSans-20" x="366.654297"/>
     <use xlink:href="#DejaVuSans-73" x="398.441406"/>
     <use xlink:href="#DejaVuSans-77" x="450.541016"/>
     <use xlink:href="#DejaVuSans-69" x="532.328125"/>
     <use xlink:href="#DejaVuSans-6e" x="560.111328"/>
     <use xlink:href="#DejaVuSans-67" x="623.490234"/>
     <use xlink:href="#DejaVuSans-20" x="686.966797"/>
     <use xlink:href="#DejaVuSans-61" x="718.753906"/>
     <use xlink:href="#DejaVuSans-6e" x="780.033203"/>
     <use xlink:href="#DejaVuSans-67" x="843.412109"/>
     <use xlink:href="#DejaVuSans-6c" x="906.888672"/>
     <use xlink:href="#DejaVuSans-65" x="934.671875"/>
    </g>
   </g>
  </g>
 </g>
 <defs>
  <clipPath id="p58723cff00">
   <rect x="58.106" y="28.32" width="391.894" height="50.4775"/>
  </clipPath>
  <clipPath id="pf7d18b5c85">
   <rect x="58.106" y="139.92" width="391.894" height="50.4775"/>
  </clipPath>
  <clipPath id="pe56659d849">
   <rect x="58.106" y="251.52" width="391.894" height="50.4775"/>
  </clipPath>
 </defs>
</svg>
