<?xml version="1.0" encoding="utf-8" standalone="no"?>
<!DOCTYPE svg PUBLIC "-//W3C//DTD SVG 1.1//EN"
  "http://www.w3.org/Graphics/SVG/1.1/DTD/svg11.dtd">
<svg xmlns:xlink="http://www.w3.org/1999/xlink" width="460.8pt" height="345.6pt" viewBox="0 0 460.8 345.6" xmlns="http://www.w3.org/2000/svg" version="1.1">
 <metadata>
  <rdf:RDF xmlns:dc="http://purl.org/dc/elements/1.1/" xmlns:cc="http://creativecommons.org/ns#" xmlns:rdf="http://www.w3.org/1999/02/22-rdf-syntax-ns#">
   <cc:Work>
    <dc:type rdf:resource="http://purl.org/dc/dcmitype/StillImage"/>
    <dc:date>2022-06-05T14:35:28.286435</dc:date>
    <dc:format>image/svg+xml</dc:format>
    <dc:creator>
     <cc:Agent>
      <dc:title>Matplotlib v3.5.1, https://matplotlib.org/</dc:title>
     </cc:Agent>
    </dc:creator>
   </cc:Work>
  </rdf:RDF>
 </metadata>
 <defs>
  <style type="text/css">*{stroke-linejoin: round; stroke-linecap: butt}</style>
 </defs>
 <g id="figure_1">
  <g id="patch_1">
   <path d="M 0 345.6 
L 460.8 345.6 
L 460.8 0 
L 0 0 
z
" style="fill: #ffffff"/>
  </g>
  <g id="axes_1">
   <g id="patch_2">
    <path d="M 58.106 78.7975 
L 450 78.7975 
L 450 28.32 
L 58.106 28.32 
z
" style="fill: #ffffff"/>
   </g>
   <g id="matplotlib.axis_1">
    <g id="xtick_1">
     <g id="line2d_1">
      <path d="M 75.919364 78.7975 
L 75.919364 28.32 
" clip-path="url(#p4a7ef16457)" style="fill: none; stroke: #b0b0b0; stroke-width: 0.8; stroke-linecap: square"/>
     </g>
     <g id="line2d_2">
      <defs>
       <path id="m0dfa1f1c3b" d="M 0 0 
L 0 3.5 
" style="stroke: #000000; stroke-width: 0.8"/>
      </defs>
      <g>
       <use xlink:href="#m0dfa1f1c3b" x="75.919364" y="78.7975" style="stroke: #000000; stroke-width: 0.8"/>
      </g>
     </g>
     <g id="text_1">
      <!-- 0 -->
      <g transform="translate(72.738114 93.395937)scale(0.1 -0.1)">
       <defs>
        <path id="DejaVuSans-30" d="M 2034 4250 
Q 1547 4250 1301 3770 
Q 1056 3291 1056 2328 
Q 1056 1369 1301 889 
Q 1547 409 2034 409 
Q 2525 409 2770 889 
Q 3016 1369 3016 2328 
Q 3016 3291 2770 3770 
Q 2525 4250 2034 4250 
z
M 2034 4750 
Q 2819 4750 3233 4129 
Q 3647 3509 3647 2328 
Q 3647 1150 3233 529 
Q 2819 -91 2034 -91 
Q 1250 -91 836 529 
Q 422 1150 422 2328 
Q 422 3509 836 4129 
Q 1250 4750 2034 4750 
z
" transform="scale(0.015625)"/>
       </defs>
       <use xlink:href="#DejaVuSans-30"/>
      </g>
     </g>
    </g>
    <g id="xtick_2">
     <g id="line2d_3">
      <path d="M 134.757889 78.7975 
L 134.757889 28.32 
" clip-path="url(#p4a7ef16457)" style="fill: none; stroke: #b0b0b0; stroke-width: 0.8; stroke-linecap: square"/>
     </g>
     <g id="line2d_4">
      <g>
       <use xlink:href="#m0dfa1f1c3b" x="134.757889" y="78.7975" style="stroke: #000000; stroke-width: 0.8"/>
      </g>
     </g>
     <g id="text_2">
      <!-- 2 -->
      <g transform="translate(131.576639 93.395937)scale(0.1 -0.1)">
       <defs>
        <path id="DejaVuSans-32" d="M 1228 531 
L 3431 531 
L 3431 0 
L 469 0 
L 469 531 
Q 828 903 1448 1529 
Q 2069 2156 2228 2338 
Q 2531 2678 2651 2914 
Q 2772 3150 2772 3378 
Q 2772 3750 2511 3984 
Q 2250 4219 1831 4219 
Q 1534 4219 1204 4116 
Q 875 4013 500 3803 
L 500 4441 
Q 881 4594 1212 4672 
Q 1544 4750 1819 4750 
Q 2544 4750 2975 4387 
Q 3406 4025 3406 3419 
Q 3406 3131 3298 2873 
Q 3191 2616 2906 2266 
Q 2828 2175 2409 1742 
Q 1991 1309 1228 531 
z
" transform="scale(0.015625)"/>
       </defs>
       <use xlink:href="#DejaVuSans-32"/>
      </g>
     </g>
    </g>
    <g id="xtick_3">
     <g id="line2d_5">
      <path d="M 193.596415 78.7975 
L 193.596415 28.32 
" clip-path="url(#p4a7ef16457)" style="fill: none; stroke: #b0b0b0; stroke-width: 0.8; stroke-linecap: square"/>
     </g>
     <g id="line2d_6">
      <g>
       <use xlink:href="#m0dfa1f1c3b" x="193.596415" y="78.7975" style="stroke: #000000; stroke-width: 0.8"/>
      </g>
     </g>
     <g id="text_3">
      <!-- 4 -->
      <g transform="translate(190.415165 93.395937)scale(0.1 -0.1)">
       <defs>
        <path id="DejaVuSans-34" d="M 2419 4116 
L 825 1625 
L 2419 1625 
L 2419 4116 
z
M 2253 4666 
L 3047 4666 
L 3047 1625 
L 3713 1625 
L 3713 1100 
L 3047 1100 
L 3047 0 
L 2419 0 
L 2419 1100 
L 313 1100 
L 313 1709 
L 2253 4666 
z
" transform="scale(0.015625)"/>
       </defs>
       <use xlink:href="#DejaVuSans-34"/>
      </g>
     </g>
    </g>
    <g id="xtick_4">
     <g id="line2d_7">
      <path d="M 252.434941 78.7975 
L 252.434941 28.32 
" clip-path="url(#p4a7ef16457)" style="fill: none; stroke: #b0b0b0; stroke-width: 0.8; stroke-linecap: square"/>
     </g>
     <g id="line2d_8">
      <g>
       <use xlink:href="#m0dfa1f1c3b" x="252.434941" y="78.7975" style="stroke: #000000; stroke-width: 0.8"/>
      </g>
     </g>
     <g id="text_4">
      <!-- 6 -->
      <g transform="translate(249.253691 93.395937)scale(0.1 -0.1)">
       <defs>
        <path id="DejaVuSans-36" d="M 2113 2584 
Q 1688 2584 1439 2293 
Q 1191 2003 1191 1497 
Q 1191 994 1439 701 
Q 1688 409 2113 409 
Q 2538 409 2786 701 
Q 3034 994 3034 1497 
Q 3034 2003 2786 2293 
Q 2538 2584 2113 2584 
z
M 3366 4563 
L 3366 3988 
Q 3128 4100 2886 4159 
Q 2644 4219 2406 4219 
Q 1781 4219 1451 3797 
Q 1122 3375 1075 2522 
Q 1259 2794 1537 2939 
Q 1816 3084 2150 3084 
Q 2853 3084 3261 2657 
Q 3669 2231 3669 1497 
Q 3669 778 3244 343 
Q 2819 -91 2113 -91 
Q 1303 -91 875 529 
Q 447 1150 447 2328 
Q 447 3434 972 4092 
Q 1497 4750 2381 4750 
Q 2619 4750 2861 4703 
Q 3103 4656 3366 4563 
z
" transform="scale(0.015625)"/>
       </defs>
       <use xlink:href="#DejaVuSans-36"/>
      </g>
     </g>
    </g>
    <g id="xtick_5">
     <g id="line2d_9">
      <path d="M 311.273466 78.7975 
L 311.273466 28.32 
" clip-path="url(#p4a7ef16457)" style="fill: none; stroke: #b0b0b0; stroke-width: 0.8; stroke-linecap: square"/>
     </g>
     <g id="line2d_10">
      <g>
       <use xlink:href="#m0dfa1f1c3b" x="311.273466" y="78.7975" style="stroke: #000000; stroke-width: 0.8"/>
      </g>
     </g>
     <g id="text_5">
      <!-- 8 -->
      <g transform="translate(308.092216 93.395937)scale(0.1 -0.1)">
       <defs>
        <path id="DejaVuSans-38" d="M 2034 2216 
Q 1584 2216 1326 1975 
Q 1069 1734 1069 1313 
Q 1069 891 1326 650 
Q 1584 409 2034 409 
Q 2484 409 2743 651 
Q 3003 894 3003 1313 
Q 3003 1734 2745 1975 
Q 2488 2216 2034 2216 
z
M 1403 2484 
Q 997 2584 770 2862 
Q 544 3141 544 3541 
Q 544 4100 942 4425 
Q 1341 4750 2034 4750 
Q 2731 4750 3128 4425 
Q 3525 4100 3525 3541 
Q 3525 3141 3298 2862 
Q 3072 2584 2669 2484 
Q 3125 2378 3379 2068 
Q 3634 1759 3634 1313 
Q 3634 634 3220 271 
Q 2806 -91 2034 -91 
Q 1263 -91 848 271 
Q 434 634 434 1313 
Q 434 1759 690 2068 
Q 947 2378 1403 2484 
z
M 1172 3481 
Q 1172 3119 1398 2916 
Q 1625 2713 2034 2713 
Q 2441 2713 2670 2916 
Q 2900 3119 2900 3481 
Q 2900 3844 2670 4047 
Q 2441 4250 2034 4250 
Q 1625 4250 1398 4047 
Q 1172 3844 1172 3481 
z
" transform="scale(0.015625)"/>
       </defs>
       <use xlink:href="#DejaVuSans-38"/>
      </g>
     </g>
    </g>
    <g id="xtick_6">
     <g id="line2d_11">
      <path d="M 370.111992 78.7975 
L 370.111992 28.32 
" clip-path="url(#p4a7ef16457)" style="fill: none; stroke: #b0b0b0; stroke-width: 0.8; stroke-linecap: square"/>
     </g>
     <g id="line2d_12">
      <g>
       <use xlink:href="#m0dfa1f1c3b" x="370.111992" y="78.7975" style="stroke: #000000; stroke-width: 0.8"/>
      </g>
     </g>
     <g id="text_6">
      <!-- 10 -->
      <g transform="translate(363.749492 93.395937)scale(0.1 -0.1)">
       <defs>
        <path id="DejaVuSans-31" d="M 794 531 
L 1825 531 
L 1825 4091 
L 703 3866 
L 703 4441 
L 1819 4666 
L 2450 4666 
L 2450 531 
L 3481 531 
L 3481 0 
L 794 0 
L 794 531 
z
" transform="scale(0.015625)"/>
       </defs>
       <use xlink:href="#DejaVuSans-31"/>
       <use xlink:href="#DejaVuSans-30" x="63.623047"/>
      </g>
     </g>
    </g>
    <g id="xtick_7">
     <g id="line2d_13">
      <path d="M 428.950517 78.7975 
L 428.950517 28.32 
" clip-path="url(#p4a7ef16457)" style="fill: none; stroke: #b0b0b0; stroke-width: 0.8; stroke-linecap: square"/>
     </g>
     <g id="line2d_14">
      <g>
       <use xlink:href="#m0dfa1f1c3b" x="428.950517" y="78.7975" style="stroke: #000000; stroke-width: 0.8"/>
      </g>
     </g>
     <g id="text_7">
      <!-- 12 -->
      <g transform="translate(422.588017 93.395937)scale(0.1 -0.1)">
       <use xlink:href="#DejaVuSans-31"/>
       <use xlink:href="#DejaVuSans-32" x="63.623047"/>
      </g>
     </g>
    </g>
    <g id="text_8">
     <!-- $t$ [s] -->
     <g transform="translate(243.953 107.074062)scale(0.1 -0.1)">
      <defs>
       <path id="DejaVuSans-Oblique-74" d="M 2706 3500 
L 2619 3053 
L 1472 3053 
L 1100 1153 
Q 1081 1047 1072 975 
Q 1063 903 1063 863 
Q 1063 663 1183 572 
Q 1303 481 1569 481 
L 2150 481 
L 2053 0 
L 1503 0 
Q 991 0 739 200 
Q 488 400 488 806 
Q 488 878 497 964 
Q 506 1050 525 1153 
L 897 3053 
L 409 3053 
L 500 3500 
L 978 3500 
L 1172 4494 
L 1747 4494 
L 1556 3500 
L 2706 3500 
z
" transform="scale(0.015625)"/>
       <path id="DejaVuSans-20" transform="scale(0.015625)"/>
       <path id="DejaVuSans-5b" d="M 550 4863 
L 1875 4863 
L 1875 4416 
L 1125 4416 
L 1125 -397 
L 1875 -397 
L 1875 -844 
L 550 -844 
L 550 4863 
z
" transform="scale(0.015625)"/>
       <path id="DejaVuSans-73" d="M 2834 3397 
L 2834 2853 
Q 2591 2978 2328 3040 
Q 2066 3103 1784 3103 
Q 1356 3103 1142 2972 
Q 928 2841 928 2578 
Q 928 2378 1081 2264 
Q 1234 2150 1697 2047 
L 1894 2003 
Q 2506 1872 2764 1633 
Q 3022 1394 3022 966 
Q 3022 478 2636 193 
Q 2250 -91 1575 -91 
Q 1294 -91 989 -36 
Q 684 19 347 128 
L 347 722 
Q 666 556 975 473 
Q 1284 391 1588 391 
Q 1994 391 2212 530 
Q 2431 669 2431 922 
Q 2431 1156 2273 1281 
Q 2116 1406 1581 1522 
L 1381 1569 
Q 847 1681 609 1914 
Q 372 2147 372 2553 
Q 372 3047 722 3315 
Q 1072 3584 1716 3584 
Q 2034 3584 2315 3537 
Q 2597 3491 2834 3397 
z
" transform="scale(0.015625)"/>
       <path id="DejaVuSans-5d" d="M 1947 4863 
L 1947 -844 
L 622 -844 
L 622 -397 
L 1369 -397 
L 1369 4416 
L 622 4416 
L 622 4863 
L 1947 4863 
z
" transform="scale(0.015625)"/>
      </defs>
      <use xlink:href="#DejaVuSans-Oblique-74" transform="translate(0 0.015625)"/>
      <use xlink:href="#DejaVuSans-20" transform="translate(39.208984 0.015625)"/>
      <use xlink:href="#DejaVuSans-5b" transform="translate(70.996094 0.015625)"/>
      <use xlink:href="#DejaVuSans-73" transform="translate(110.009766 0.015625)"/>
      <use xlink:href="#DejaVuSans-5d" transform="translate(162.109375 0.015625)"/>
     </g>
    </g>
   </g>
   <g id="matplotlib.axis_2">
    <g id="ytick_1">
     <g id="line2d_15">
      <path d="M 58.106 76.449189 
L 450 76.449189 
" clip-path="url(#p4a7ef16457)" style="fill: none; stroke: #b0b0b0; stroke-width: 0.8; stroke-linecap: square"/>
     </g>
     <g id="line2d_16">
      <defs>
       <path id="m1f2c9d60b6" d="M 0 0 
L -3.5 0 
" style="stroke: #000000; stroke-width: 0.8"/>
      </defs>
      <g>
       <use xlink:href="#m1f2c9d60b6" x="58.106" y="76.449189" style="stroke: #000000; stroke-width: 0.8"/>
      </g>
     </g>
     <g id="text_9">
      <!-- 0 -->
      <g transform="translate(44.7435 80.248408)scale(0.1 -0.1)">
       <use xlink:href="#DejaVuSans-30"/>
      </g>
     </g>
    </g>
    <g id="ytick_2">
     <g id="line2d_17">
      <path d="M 58.106 30.614432 
L 450 30.614432 
" clip-path="url(#p4a7ef16457)" style="fill: none; stroke: #b0b0b0; stroke-width: 0.8; stroke-linecap: square"/>
     </g>
     <g id="line2d_18">
      <g>
       <use xlink:href="#m1f2c9d60b6" x="58.106" y="30.614432" style="stroke: #000000; stroke-width: 0.8"/>
      </g>
     </g>
     <g id="text_10">
      <!-- 10 -->
      <g transform="translate(38.381 34.413651)scale(0.1 -0.1)">
       <use xlink:href="#DejaVuSans-31"/>
       <use xlink:href="#DejaVuSans-30" x="63.623047"/>
      </g>
     </g>
    </g>
    <g id="text_11">
     <!-- $e_x$ [m] -->
     <g transform="translate(32.301313 69.20875)rotate(-90)scale(0.1 -0.1)">
      <defs>
       <path id="DejaVuSans-Oblique-65" d="M 3078 2063 
Q 3088 2113 3092 2166 
Q 3097 2219 3097 2272 
Q 3097 2653 2873 2875 
Q 2650 3097 2266 3097 
Q 1838 3097 1509 2826 
Q 1181 2556 1013 2059 
L 3078 2063 
z
M 3578 1613 
L 903 1613 
Q 884 1494 878 1425 
Q 872 1356 872 1306 
Q 872 872 1139 634 
Q 1406 397 1894 397 
Q 2269 397 2603 481 
Q 2938 566 3225 728 
L 3116 159 
Q 2806 34 2476 -28 
Q 2147 -91 1806 -91 
Q 1078 -91 686 257 
Q 294 606 294 1247 
Q 294 1794 489 2264 
Q 684 2734 1063 3103 
Q 1306 3334 1642 3459 
Q 1978 3584 2356 3584 
Q 2950 3584 3301 3228 
Q 3653 2872 3653 2272 
Q 3653 2128 3634 1964 
Q 3616 1800 3578 1613 
z
" transform="scale(0.015625)"/>
       <path id="DejaVuSans-Oblique-78" d="M 3841 3500 
L 2234 1784 
L 3219 0 
L 2559 0 
L 1819 1388 
L 531 0 
L -166 0 
L 1556 1844 
L 641 3500 
L 1300 3500 
L 1972 2234 
L 3144 3500 
L 3841 3500 
z
" transform="scale(0.015625)"/>
       <path id="DejaVuSans-6d" d="M 3328 2828 
Q 3544 3216 3844 3400 
Q 4144 3584 4550 3584 
Q 5097 3584 5394 3201 
Q 5691 2819 5691 2113 
L 5691 0 
L 5113 0 
L 5113 2094 
Q 5113 2597 4934 2840 
Q 4756 3084 4391 3084 
Q 3944 3084 3684 2787 
Q 3425 2491 3425 1978 
L 3425 0 
L 2847 0 
L 2847 2094 
Q 2847 2600 2669 2842 
Q 2491 3084 2119 3084 
Q 1678 3084 1418 2786 
Q 1159 2488 1159 1978 
L 1159 0 
L 581 0 
L 581 3500 
L 1159 3500 
L 1159 2956 
Q 1356 3278 1631 3431 
Q 1906 3584 2284 3584 
Q 2666 3584 2933 3390 
Q 3200 3197 3328 2828 
z
" transform="scale(0.015625)"/>
      </defs>
      <use xlink:href="#DejaVuSans-Oblique-65" transform="translate(0 0.015625)"/>
      <use xlink:href="#DejaVuSans-Oblique-78" transform="translate(61.523438 -16.390625)scale(0.7)"/>
      <use xlink:href="#DejaVuSans-20" transform="translate(105.683594 0.015625)"/>
      <use xlink:href="#DejaVuSans-5b" transform="translate(137.470703 0.015625)"/>
      <use xlink:href="#DejaVuSans-6d" transform="translate(176.484375 0.015625)"/>
      <use xlink:href="#DejaVuSans-5d" transform="translate(273.896484 0.015625)"/>
     </g>
    </g>
   </g>
   <g id="line2d_19">
    <path d="M 75.919364 30.614432 
L 83.574693 30.720393 
L 99.179789 31.541062 
L 101.240839 31.810315 
L 105.36294 32.350877 
L 108.896169 32.844641 
L 111.840527 33.299673 
L 112.723834 33.463316 
L 115.373756 33.901807 
L 115.962627 34.048655 
L 118.318113 34.454901 
L 119.495856 34.700187 
L 122.145778 35.209408 
L 127.151186 36.431457 
L 129.212237 36.943445 
L 132.156594 37.741716 
L 133.923209 38.214923 
L 136.278695 38.921872 
L 136.573131 38.921872 
L 137.456438 39.212055 
L 139.517488 39.787691 
L 140.10636 39.882446 
L 140.695231 40.070504 
L 143.345153 40.742193 
L 143.934025 40.921161 
L 146.878382 41.623735 
L 147.76169 41.85202 
L 150.411612 42.463766 
L 151.294919 42.683488 
L 153.355969 43.17826 
L 155.711455 43.74907 
L 156.300327 43.856113 
L 158.950249 44.437103 
L 159.833556 44.645755 
L 162.189042 45.158394 
L 164.544528 45.679463 
L 165.1334 45.777239 
L 168.077757 46.358872 
L 168.961065 46.552279 
L 171.610986 47.086827 
L 172.494294 47.279373 
L 175.144216 47.7897 
L 176.027523 47.969548 
L 178.383009 48.399258 
L 179.560752 48.649051 
L 182.210674 49.15354 
L 185.155032 49.71521 
L 185.743903 49.804593 
L 188.393825 50.297927 
L 189.277132 50.472677 
L 191.927054 50.942533 
L 192.810361 51.117051 
L 195.460283 51.616758 
L 196.343591 51.799327 
L 199.287948 52.328277 
L 200.171255 52.501403 
L 202.821177 52.991777 
L 203.99892 53.24109 
L 205.176663 53.464053 
L 205.471099 53.464053 
L 206.059971 53.616825 
L 209.004328 54.153581 
L 211.65425 54.636757 
L 214.304172 55.085872 
L 214.893044 55.230402 
L 217.837401 55.706743 
L 218.426273 55.855468 
L 221.37063 56.341417 
L 221.959502 56.484225 
L 225.198295 57.028404 
L 228.437089 57.615959 
L 230.792575 58.022098 
L 231.675882 58.181749 
L 234.914675 58.715296 
L 236.386854 59.024917 
L 236.975726 59.105749 
L 241.097826 59.777522 
L 244.33662 60.345288 
L 248.164285 60.960708 
L 251.697514 61.552258 
L 255.525179 62.157345 
L 260.236151 62.949579 
L 264.358252 63.566019 
L 265.241559 63.731486 
L 268.185917 64.190445 
L 269.069224 64.340661 
L 273.780196 65.018259 
L 274.957939 65.214312 
L 278.491168 65.758367 
L 279.668911 65.927504 
L 283.791012 66.489326 
L 287.618677 67.057128 
L 292.329649 67.687041 
L 296.45175 68.296462 
L 297.335057 68.389143 
L 301.457158 68.904222 
L 302.929337 69.114973 
L 307.345873 69.677158 
L 307.934745 69.778702 
L 311.173538 70.203937 
L 314.412331 70.637056 
L 318.828868 71.185011 
L 320.006611 71.34063 
L 324.128711 71.895808 
L 325.306455 72.042361 
L 329.428555 72.545998 
L 333.845092 73.151846 
L 338.556064 73.686858 
L 339.144935 73.790779 
L 349.155751 74.913945 
L 352.68898 75.244052 
L 356.811081 75.56685 
L 370.355126 76.216742 
L 380.071506 76.352642 
L 391.554501 76.188436 
L 404.80411 75.91674 
L 416.875977 75.892457 
L 423.353563 76.078893 
L 428.064536 76.33501 
L 432.186636 76.503068 
L 432.186636 76.503068 
" clip-path="url(#p4a7ef16457)" style="fill: none; stroke: #ff0000; stroke-width: 1.5; stroke-linecap: square"/>
   </g>
   <g id="patch_3">
    <path d="M 58.106 78.7975 
L 58.106 28.32 
" style="fill: none; stroke: #000000; stroke-width: 0.8; stroke-linejoin: miter; stroke-linecap: square"/>
   </g>
   <g id="patch_4">
    <path d="M 450 78.7975 
L 450 28.32 
" style="fill: none; stroke: #000000; stroke-width: 0.8; stroke-linejoin: miter; stroke-linecap: square"/>
   </g>
   <g id="patch_5">
    <path d="M 58.106 78.7975 
L 450 78.7975 
" style="fill: none; stroke: #000000; stroke-width: 0.8; stroke-linejoin: miter; stroke-linecap: square"/>
   </g>
   <g id="patch_6">
    <path d="M 58.106 28.32 
L 450 28.32 
" style="fill: none; stroke: #000000; stroke-width: 0.8; stroke-linejoin: miter; stroke-linecap: square"/>
   </g>
   <g id="text_12">
    <!-- Error in $x$-position -->
    <g transform="translate(200.413 22.32)scale(0.12 -0.12)">
     <defs>
      <path id="DejaVuSans-45" d="M 628 4666 
L 3578 4666 
L 3578 4134 
L 1259 4134 
L 1259 2753 
L 3481 2753 
L 3481 2222 
L 1259 2222 
L 1259 531 
L 3634 531 
L 3634 0 
L 628 0 
L 628 4666 
z
" transform="scale(0.015625)"/>
      <path id="DejaVuSans-72" d="M 2631 2963 
Q 2534 3019 2420 3045 
Q 2306 3072 2169 3072 
Q 1681 3072 1420 2755 
Q 1159 2438 1159 1844 
L 1159 0 
L 581 0 
L 581 3500 
L 1159 3500 
L 1159 2956 
Q 1341 3275 1631 3429 
Q 1922 3584 2338 3584 
Q 2397 3584 2469 3576 
Q 2541 3569 2628 3553 
L 2631 2963 
z
" transform="scale(0.015625)"/>
      <path id="DejaVuSans-6f" d="M 1959 3097 
Q 1497 3097 1228 2736 
Q 959 2375 959 1747 
Q 959 1119 1226 758 
Q 1494 397 1959 397 
Q 2419 397 2687 759 
Q 2956 1122 2956 1747 
Q 2956 2369 2687 2733 
Q 2419 3097 1959 3097 
z
M 1959 3584 
Q 2709 3584 3137 3096 
Q 3566 2609 3566 1747 
Q 3566 888 3137 398 
Q 2709 -91 1959 -91 
Q 1206 -91 779 398 
Q 353 888 353 1747 
Q 353 2609 779 3096 
Q 1206 3584 1959 3584 
z
" transform="scale(0.015625)"/>
      <path id="DejaVuSans-69" d="M 603 3500 
L 1178 3500 
L 1178 0 
L 603 0 
L 603 3500 
z
M 603 4863 
L 1178 4863 
L 1178 4134 
L 603 4134 
L 603 4863 
z
" transform="scale(0.015625)"/>
      <path id="DejaVuSans-6e" d="M 3513 2113 
L 3513 0 
L 2938 0 
L 2938 2094 
Q 2938 2591 2744 2837 
Q 2550 3084 2163 3084 
Q 1697 3084 1428 2787 
Q 1159 2491 1159 1978 
L 1159 0 
L 581 0 
L 581 3500 
L 1159 3500 
L 1159 2956 
Q 1366 3272 1645 3428 
Q 1925 3584 2291 3584 
Q 2894 3584 3203 3211 
Q 3513 2838 3513 2113 
z
" transform="scale(0.015625)"/>
      <path id="DejaVuSans-2d" d="M 313 2009 
L 1997 2009 
L 1997 1497 
L 313 1497 
L 313 2009 
z
" transform="scale(0.015625)"/>
      <path id="DejaVuSans-70" d="M 1159 525 
L 1159 -1331 
L 581 -1331 
L 581 3500 
L 1159 3500 
L 1159 2969 
Q 1341 3281 1617 3432 
Q 1894 3584 2278 3584 
Q 2916 3584 3314 3078 
Q 3713 2572 3713 1747 
Q 3713 922 3314 415 
Q 2916 -91 2278 -91 
Q 1894 -91 1617 61 
Q 1341 213 1159 525 
z
M 3116 1747 
Q 3116 2381 2855 2742 
Q 2594 3103 2138 3103 
Q 1681 3103 1420 2742 
Q 1159 2381 1159 1747 
Q 1159 1113 1420 752 
Q 1681 391 2138 391 
Q 2594 391 2855 752 
Q 3116 1113 3116 1747 
z
" transform="scale(0.015625)"/>
      <path id="DejaVuSans-74" d="M 1172 4494 
L 1172 3500 
L 2356 3500 
L 2356 3053 
L 1172 3053 
L 1172 1153 
Q 1172 725 1289 603 
Q 1406 481 1766 481 
L 2356 481 
L 2356 0 
L 1766 0 
Q 1100 0 847 248 
Q 594 497 594 1153 
L 594 3053 
L 172 3053 
L 172 3500 
L 594 3500 
L 594 4494 
L 1172 4494 
z
" transform="scale(0.015625)"/>
     </defs>
     <use xlink:href="#DejaVuSans-45" transform="translate(0 0.015625)"/>
     <use xlink:href="#DejaVuSans-72" transform="translate(63.183594 0.015625)"/>
     <use xlink:href="#DejaVuSans-72" transform="translate(104.296875 0.015625)"/>
     <use xlink:href="#DejaVuSans-6f" transform="translate(145.410156 0.015625)"/>
     <use xlink:href="#DejaVuSans-72" transform="translate(206.591797 0.015625)"/>
     <use xlink:href="#DejaVuSans-20" transform="translate(247.705078 0.015625)"/>
     <use xlink:href="#DejaVuSans-69" transform="translate(279.492188 0.015625)"/>
     <use xlink:href="#DejaVuSans-6e" transform="translate(307.275391 0.015625)"/>
     <use xlink:href="#DejaVuSans-20" transform="translate(370.654297 0.015625)"/>
     <use xlink:href="#DejaVuSans-Oblique-78" transform="translate(402.441406 0.015625)"/>
     <use xlink:href="#DejaVuSans-2d" transform="translate(461.621094 0.015625)"/>
     <use xlink:href="#DejaVuSans-70" transform="translate(497.705078 0.015625)"/>
     <use xlink:href="#DejaVuSans-6f" transform="translate(561.181641 0.015625)"/>
     <use xlink:href="#DejaVuSans-73" transform="translate(622.363281 0.015625)"/>
     <use xlink:href="#DejaVuSans-69" transform="translate(674.462891 0.015625)"/>
     <use xlink:href="#DejaVuSans-74" transform="translate(702.246094 0.015625)"/>
     <use xlink:href="#DejaVuSans-69" transform="translate(741.455078 0.015625)"/>
     <use xlink:href="#DejaVuSans-6f" transform="translate(769.238281 0.015625)"/>
     <use xlink:href="#DejaVuSans-6e" transform="translate(830.419922 0.015625)"/>
    </g>
   </g>
  </g>
  <g id="axes_2">
   <g id="patch_7">
    <path d="M 58.106 190.3975 
L 450 190.3975 
L 450 139.92 
L 58.106 139.92 
z
" style="fill: #ffffff"/>
   </g>
   <g id="matplotlib.axis_3">
    <g id="xtick_8">
     <g id="line2d_20">
      <path d="M 75.919364 190.3975 
L 75.919364 139.92 
" clip-path="url(#p8b3ce7287d)" style="fill: none; stroke: #b0b0b0; stroke-width: 0.8; stroke-linecap: square"/>
     </g>
     <g id="line2d_21">
      <g>
       <use xlink:href="#m0dfa1f1c3b" x="75.919364" y="190.3975" style="stroke: #000000; stroke-width: 0.8"/>
      </g>
     </g>
     <g id="text_13">
      <!-- 0 -->
      <g transform="translate(72.738114 204.995937)scale(0.1 -0.1)">
       <use xlink:href="#DejaVuSans-30"/>
      </g>
     </g>
    </g>
    <g id="xtick_9">
     <g id="line2d_22">
      <path d="M 134.757889 190.3975 
L 134.757889 139.92 
" clip-path="url(#p8b3ce7287d)" style="fill: none; stroke: #b0b0b0; stroke-width: 0.8; stroke-linecap: square"/>
     </g>
     <g id="line2d_23">
      <g>
       <use xlink:href="#m0dfa1f1c3b" x="134.757889" y="190.3975" style="stroke: #000000; stroke-width: 0.8"/>
      </g>
     </g>
     <g id="text_14">
      <!-- 2 -->
      <g transform="translate(131.576639 204.995937)scale(0.1 -0.1)">
       <use xlink:href="#DejaVuSans-32"/>
      </g>
     </g>
    </g>
    <g id="xtick_10">
     <g id="line2d_24">
      <path d="M 193.596415 190.3975 
L 193.596415 139.92 
" clip-path="url(#p8b3ce7287d)" style="fill: none; stroke: #b0b0b0; stroke-width: 0.8; stroke-linecap: square"/>
     </g>
     <g id="line2d_25">
      <g>
       <use xlink:href="#m0dfa1f1c3b" x="193.596415" y="190.3975" style="stroke: #000000; stroke-width: 0.8"/>
      </g>
     </g>
     <g id="text_15">
      <!-- 4 -->
      <g transform="translate(190.415165 204.995937)scale(0.1 -0.1)">
       <use xlink:href="#DejaVuSans-34"/>
      </g>
     </g>
    </g>
    <g id="xtick_11">
     <g id="line2d_26">
      <path d="M 252.434941 190.3975 
L 252.434941 139.92 
" clip-path="url(#p8b3ce7287d)" style="fill: none; stroke: #b0b0b0; stroke-width: 0.8; stroke-linecap: square"/>
     </g>
     <g id="line2d_27">
      <g>
       <use xlink:href="#m0dfa1f1c3b" x="252.434941" y="190.3975" style="stroke: #000000; stroke-width: 0.8"/>
      </g>
     </g>
     <g id="text_16">
      <!-- 6 -->
      <g transform="translate(249.253691 204.995937)scale(0.1 -0.1)">
       <use xlink:href="#DejaVuSans-36"/>
      </g>
     </g>
    </g>
    <g id="xtick_12">
     <g id="line2d_28">
      <path d="M 311.273466 190.3975 
L 311.273466 139.92 
" clip-path="url(#p8b3ce7287d)" style="fill: none; stroke: #b0b0b0; stroke-width: 0.8; stroke-linecap: square"/>
     </g>
     <g id="line2d_29">
      <g>
       <use xlink:href="#m0dfa1f1c3b" x="311.273466" y="190.3975" style="stroke: #000000; stroke-width: 0.8"/>
      </g>
     </g>
     <g id="text_17">
      <!-- 8 -->
      <g transform="translate(308.092216 204.995937)scale(0.1 -0.1)">
       <use xlink:href="#DejaVuSans-38"/>
      </g>
     </g>
    </g>
    <g id="xtick_13">
     <g id="line2d_30">
      <path d="M 370.111992 190.3975 
L 370.111992 139.92 
" clip-path="url(#p8b3ce7287d)" style="fill: none; stroke: #b0b0b0; stroke-width: 0.8; stroke-linecap: square"/>
     </g>
     <g id="line2d_31">
      <g>
       <use xlink:href="#m0dfa1f1c3b" x="370.111992" y="190.3975" style="stroke: #000000; stroke-width: 0.8"/>
      </g>
     </g>
     <g id="text_18">
      <!-- 10 -->
      <g transform="translate(363.749492 204.995937)scale(0.1 -0.1)">
       <use xlink:href="#DejaVuSans-31"/>
       <use xlink:href="#DejaVuSans-30" x="63.623047"/>
      </g>
     </g>
    </g>
    <g id="xtick_14">
     <g id="line2d_32">
      <path d="M 428.950517 190.3975 
L 428.950517 139.92 
" clip-path="url(#p8b3ce7287d)" style="fill: none; stroke: #b0b0b0; stroke-width: 0.8; stroke-linecap: square"/>
     </g>
     <g id="line2d_33">
      <g>
       <use xlink:href="#m0dfa1f1c3b" x="428.950517" y="190.3975" style="stroke: #000000; stroke-width: 0.8"/>
      </g>
     </g>
     <g id="text_19">
      <!-- 12 -->
      <g transform="translate(422.588017 204.995937)scale(0.1 -0.1)">
       <use xlink:href="#DejaVuSans-31"/>
       <use xlink:href="#DejaVuSans-32" x="63.623047"/>
      </g>
     </g>
    </g>
    <g id="text_20">
     <!-- $t$ [s] -->
     <g transform="translate(243.953 218.674062)scale(0.1 -0.1)">
      <use xlink:href="#DejaVuSans-Oblique-74" transform="translate(0 0.015625)"/>
      <use xlink:href="#DejaVuSans-20" transform="translate(39.208984 0.015625)"/>
      <use xlink:href="#DejaVuSans-5b" transform="translate(70.996094 0.015625)"/>
      <use xlink:href="#DejaVuSans-73" transform="translate(110.009766 0.015625)"/>
      <use xlink:href="#DejaVuSans-5d" transform="translate(162.109375 0.015625)"/>
     </g>
    </g>
   </g>
   <g id="matplotlib.axis_4">
    <g id="ytick_3">
     <g id="line2d_34">
      <path d="M 58.106 180.88177 
L 450 180.88177 
" clip-path="url(#p8b3ce7287d)" style="fill: none; stroke: #b0b0b0; stroke-width: 0.8; stroke-linecap: square"/>
     </g>
     <g id="line2d_35">
      <g>
       <use xlink:href="#m1f2c9d60b6" x="58.106" y="180.88177" style="stroke: #000000; stroke-width: 0.8"/>
      </g>
     </g>
     <g id="text_21">
      <!-- −0.1 -->
      <g transform="translate(26.823188 184.680988)scale(0.1 -0.1)">
       <defs>
        <path id="DejaVuSans-2212" d="M 678 2272 
L 4684 2272 
L 4684 1741 
L 678 1741 
L 678 2272 
z
" transform="scale(0.015625)"/>
        <path id="DejaVuSans-2e" d="M 684 794 
L 1344 794 
L 1344 0 
L 684 0 
L 684 794 
z
" transform="scale(0.015625)"/>
       </defs>
       <use xlink:href="#DejaVuSans-2212"/>
       <use xlink:href="#DejaVuSans-30" x="83.789062"/>
       <use xlink:href="#DejaVuSans-2e" x="147.412109"/>
       <use xlink:href="#DejaVuSans-31" x="179.199219"/>
      </g>
     </g>
    </g>
    <g id="ytick_4">
     <g id="line2d_36">
      <path d="M 58.106 166.15973 
L 450 166.15973 
" clip-path="url(#p8b3ce7287d)" style="fill: none; stroke: #b0b0b0; stroke-width: 0.8; stroke-linecap: square"/>
     </g>
     <g id="line2d_37">
      <g>
       <use xlink:href="#m1f2c9d60b6" x="58.106" y="166.15973" style="stroke: #000000; stroke-width: 0.8"/>
      </g>
     </g>
     <g id="text_22">
      <!-- 0.0 -->
      <g transform="translate(35.202875 169.958948)scale(0.1 -0.1)">
       <use xlink:href="#DejaVuSans-30"/>
       <use xlink:href="#DejaVuSans-2e" x="63.623047"/>
       <use xlink:href="#DejaVuSans-30" x="95.410156"/>
      </g>
     </g>
    </g>
    <g id="ytick_5">
     <g id="line2d_38">
      <path d="M 58.106 151.43769 
L 450 151.43769 
" clip-path="url(#p8b3ce7287d)" style="fill: none; stroke: #b0b0b0; stroke-width: 0.8; stroke-linecap: square"/>
     </g>
     <g id="line2d_39">
      <g>
       <use xlink:href="#m1f2c9d60b6" x="58.106" y="151.43769" style="stroke: #000000; stroke-width: 0.8"/>
      </g>
     </g>
     <g id="text_23">
      <!-- 0.1 -->
      <g transform="translate(35.202875 155.236908)scale(0.1 -0.1)">
       <use xlink:href="#DejaVuSans-30"/>
       <use xlink:href="#DejaVuSans-2e" x="63.623047"/>
       <use xlink:href="#DejaVuSans-31" x="95.410156"/>
      </g>
     </g>
    </g>
    <g id="text_24">
     <!-- $e_z$ [m] -->
     <g transform="translate(20.7435 180.60875)rotate(-90)scale(0.1 -0.1)">
      <defs>
       <path id="DejaVuSans-Oblique-7a" d="M 744 3500 
L 3475 3500 
L 3372 2975 
L 738 459 
L 2913 459 
L 2822 0 
L -19 0 
L 84 525 
L 2719 3041 
L 653 3041 
L 744 3500 
z
" transform="scale(0.015625)"/>
      </defs>
      <use xlink:href="#DejaVuSans-Oblique-65" transform="translate(0 0.015625)"/>
      <use xlink:href="#DejaVuSans-Oblique-7a" transform="translate(61.523438 -16.390625)scale(0.7)"/>
      <use xlink:href="#DejaVuSans-20" transform="translate(101.000977 0.015625)"/>
      <use xlink:href="#DejaVuSans-5b" transform="translate(132.788086 0.015625)"/>
      <use xlink:href="#DejaVuSans-6d" transform="translate(171.801758 0.015625)"/>
      <use xlink:href="#DejaVuSans-5d" transform="translate(269.213867 0.015625)"/>
     </g>
    </g>
   </g>
   <g id="line2d_40">
    <path d="M 75.919364 167.579782 
L 77.391542 166.746308 
L 77.980414 166.233123 
L 80.041464 165.106486 
L 80.630336 165.053753 
L 82.691386 165.372991 
L 83.280258 165.291608 
L 83.869129 165.062097 
L 84.458001 164.779827 
L 84.752437 164.607643 
L 85.635744 163.513833 
L 86.224615 163.153693 
L 86.519051 162.918937 
L 86.813487 162.484257 
L 88.580101 161.224037 
L 90.05228 159.947464 
L 90.935588 158.156347 
L 91.230023 157.955299 
L 91.818895 157.14484 
L 92.113331 156.144303 
L 92.407766 156.144303 
L 92.702202 155.394861 
L 94.468817 153.490976 
L 95.940995 153.273954 
L 97.118739 153.452053 
L 97.413174 153.628327 
L 97.70761 153.628327 
L 98.296482 153.875511 
L 100.946403 154.519494 
L 102.124147 154.393996 
L 102.713018 154.188721 
L 103.30189 153.805805 
L 104.185197 153.274019 
L 107.42399 149.914309 
L 108.896169 149.004628 
L 111.251655 148.240059 
L 111.840527 147.952748 
L 112.429398 147.547228 
L 113.607141 146.876104 
L 114.196013 146.466354 
L 116.845935 145.400163 
L 117.14037 145.400163 
L 117.434806 145.020089 
L 118.023678 144.783501 
L 118.318113 144.606667 
L 118.612549 144.203507 
L 118.906985 144.203507 
L 119.201421 143.532413 
L 119.790292 143.208036 
L 121.262471 142.276048 
L 122.145778 142.226868 
L 122.73465 142.465786 
L 123.617957 142.858882 
L 125.384572 144.375831 
L 126.856751 146.10868 
L 127.740058 147.061586 
L 128.034494 147.569012 
L 130.095544 149.188087 
L 130.684415 149.453152 
L 130.978851 149.761329 
L 131.273287 149.761329 
L 131.862159 150.154376 
L 132.45103 150.458746 
L 133.923209 151.795763 
L 134.51208 152.687591 
L 134.806516 152.687591 
L 135.100952 153.199471 
L 135.984259 154.020768 
L 136.278695 154.421067 
L 136.573131 154.421067 
L 136.867566 154.762113 
L 139.223053 156.045588 
L 139.517488 156.278733 
L 140.10636 156.534981 
L 140.695231 157.106937 
L 141.284103 157.609921 
L 141.578539 158.002494 
L 141.872974 158.002494 
L 142.16741 158.366521 
L 143.934025 159.313912 
L 145.995075 159.963875 
L 146.583947 160.202045 
L 148.350561 161.639424 
L 149.528304 163.07015 
L 150.411612 163.981136 
L 150.706047 164.483618 
L 151.88379 165.603048 
L 152.178226 166.126372 
L 152.472662 166.126372 
L 152.767098 166.685425 
L 153.061533 166.980954 
L 153.650405 167.934244 
L 153.944841 168.102462 
L 154.239276 168.446082 
L 154.533712 169.157863 
L 155.122584 169.891589 
L 155.711455 171.181958 
L 156.005891 171.181958 
L 156.300327 171.898816 
L 157.47807 173.387802 
L 157.772506 173.985132 
L 158.950249 175.200081 
L 159.244684 175.698507 
L 159.53912 175.698507 
L 159.833556 176.185117 
L 160.422427 176.78771 
L 161.011299 177.50832 
L 161.305735 177.50832 
L 161.600171 177.981538 
L 162.189042 178.558511 
L 162.483478 178.893394 
L 163.072349 179.215689 
L 163.366785 179.617324 
L 165.1334 180.669884 
L 166.311143 180.888131 
L 168.077757 180.925249 
L 169.549936 181.402944 
L 169.844372 181.644417 
L 170.138808 181.644417 
L 170.727679 181.989078 
L 171.905422 182.298387 
L 173.083165 182.164512 
L 174.555344 181.759287 
L 175.438651 181.753542 
L 176.616394 182.076042 
L 176.91083 182.357444 
L 177.205266 182.357444 
L 177.794137 182.64045 
L 178.677445 182.792498 
L 179.855188 182.587333 
L 180.738495 182.223858 
L 181.621802 181.755476 
L 181.916238 181.755476 
L 182.50511 181.469594 
L 183.388417 181.415496 
L 183.682853 181.450048 
L 184.860596 182.138924 
L 185.155032 182.375916 
L 185.449467 182.375916 
L 185.743903 182.673121 
L 186.921646 183.170337 
L 187.804953 183.185324 
L 188.393825 183.093622 
L 189.571568 182.724841 
L 191.043747 182.31466 
L 191.632618 182.356539 
L 191.927054 182.457451 
L 192.810361 183.004925 
L 193.693669 183.695922 
L 193.988104 184.089964 
L 195.754719 185.07179 
L 196.932462 185.212776 
L 198.404641 185.145281 
L 199.287948 185.15657 
L 200.760127 185.59433 
L 202.232306 186.443732 
L 203.704485 186.956695 
L 204.587792 186.917403 
L 205.471099 186.839707 
L 206.059971 186.679523 
L 207.237714 186.593677 
L 208.415457 186.77546 
L 209.298764 187.069011 
L 210.182071 187.224542 
L 210.770943 187.28068 
L 211.948686 187.13302 
L 212.831993 186.840972 
L 213.715301 186.695441 
L 214.598608 186.647604 
L 215.481915 186.744094 
L 215.776351 186.865784 
L 216.070787 186.865784 
L 216.365222 187.073557 
L 217.24853 187.230989 
L 218.131837 187.423509 
L 219.30958 187.352846 
L 221.37063 186.965652 
L 221.959502 186.800592 
L 223.137245 186.725792 
L 224.314988 186.960431 
L 224.90386 187.22572 
L 226.96491 187.792448 
L 227.848217 187.721607 
L 229.614832 187.106443 
L 230.792575 186.880587 
L 231.675882 186.983165 
L 232.559189 187.284269 
L 232.853625 187.50063 
L 233.148061 187.50063 
L 233.736932 187.817483 
L 234.325804 188.04285 
L 235.503547 188.077107 
L 236.092418 187.9451 
L 236.386854 187.78885 
L 236.68129 187.78885 
L 237.270162 187.512049 
L 239.036776 187.036905 
L 239.625648 187.09715 
L 239.920083 187.219114 
L 240.214519 187.219114 
L 240.803391 187.472721 
L 242.864441 188.025703 
L 243.747748 187.942771 
L 245.219927 187.399976 
L 245.514363 187.399976 
L 246.103234 187.174182 
L 247.280977 187.047683 
L 249.047592 187.323684 
L 249.930899 187.47662 
L 250.814207 187.457749 
L 252.286385 187.205004 
L 253.169693 186.997536 
L 254.936307 186.793318 
L 259.352844 186.582662 
L 263.76938 185.631544 
L 266.124866 184.905576 
L 266.419302 184.724927 
L 266.713738 184.724927 
L 267.302609 184.553972 
L 268.774788 184.443871 
L 271.130274 184.429622 
L 272.308017 184.100577 
L 272.896889 183.845593 
L 273.48576 183.628371 
L 274.369068 183.340635 
L 274.663503 183.065756 
L 275.546811 182.837271 
L 276.135682 182.617663 
L 277.018989 182.500152 
L 278.196733 182.592639 
L 279.963347 182.885458 
L 280.846654 182.835264 
L 282.024397 182.540128 
L 283.20214 182.03056 
L 285.557627 181.464861 
L 286.73537 181.570787 
L 288.207548 181.745306 
L 289.385292 181.698986 
L 289.974163 181.593235 
L 290.563035 181.399491 
L 291.151906 181.13468 
L 291.446342 181.13468 
L 292.035213 180.918844 
L 294.979571 180.378935 
L 296.746186 180.504 
L 297.923929 180.614082 
L 299.101672 180.560237 
L 303.518208 180.075026 
L 306.757002 180.008211 
L 309.995795 179.785714 
L 312.056845 179.859732 
L 313.82346 180.040567 
L 315.295639 180.080384 
L 317.062253 179.99239 
L 318.534432 179.835205 
L 320.595482 179.817055 
L 325.306455 180.490694 
L 329.134119 180.573351 
L 330.311863 180.728296 
L 330.900734 180.837791 
L 331.19517 181.008182 
L 331.489606 181.008182 
L 332.078477 181.219638 
L 334.728399 181.691252 
L 337.378321 181.788348 
L 338.556064 181.915619 
L 339.144935 182.073976 
L 340.322678 182.285792 
L 340.617114 182.452947 
L 341.500421 182.584389 
L 342.678165 182.898729 
L 343.855908 183.197986 
L 344.150343 183.447838 
L 346.800265 183.7267 
L 348.861316 183.246203 
L 349.744623 183.21372 
L 350.333494 183.28518 
L 352.100109 184.154649 
L 352.394545 184.461956 
L 353.572288 185.030173 
L 354.750031 185.014261 
L 355.927774 184.563122 
L 356.811081 184.165988 
L 358.872131 183.544342 
L 359.755439 183.405824 
L 360.049875 183.189942 
L 360.638746 183.030767 
L 360.933182 182.902109 
L 362.405361 181.447784 
L 362.699796 181.447784 
L 362.994232 181.039799 
L 364.466411 180.247935 
L 365.055282 180.089151 
L 367.116333 179.876518 
L 367.410769 179.732251 
L 367.99964 179.294106 
L 369.177383 178.48333 
L 370.06069 177.644338 
L 371.238434 177.050746 
L 371.827305 176.959934 
L 373.299484 176.784544 
L 374.477227 176.257193 
L 374.771663 175.799181 
L 375.066098 175.799181 
L 375.360534 175.391255 
L 376.538277 174.644775 
L 378.010456 174.665665 
L 378.893763 175.196219 
L 380.365942 175.40304 
L 381.543685 174.992222 
L 381.838121 174.631055 
L 382.132557 174.631055 
L 382.426992 173.946058 
L 383.015864 173.59194 
L 383.3103 173.366856 
L 383.604736 172.95772 
L 384.782479 172.252407 
L 386.549093 172.360518 
L 387.4324 172.467658 
L 388.021272 172.327024 
L 388.315708 172.167215 
L 388.610144 172.167215 
L 389.199015 171.669045 
L 389.787887 171.129056 
L 390.082322 170.698463 
L 391.554501 169.802654 
L 392.143373 169.519452 
L 393.02668 169.523751 
L 393.615551 169.653318 
L 394.204423 169.827941 
L 395.08773 169.850804 
L 395.382166 169.730253 
L 395.676602 169.730253 
L 396.854345 168.747056 
L 397.148781 168.422926 
L 397.443216 168.422926 
L 397.737652 168.027447 
L 398.915395 167.28624 
L 400.387574 167.304581 
L 400.976446 167.539844 
L 402.154189 167.754115 
L 402.74306 167.651241 
L 403.626367 167.297386 
L 403.920803 167.123959 
L 404.215239 166.613913 
L 404.509675 166.613913 
L 404.80411 166.223431 
L 405.981853 165.662791 
L 406.570725 165.562646 
L 407.454032 165.714339 
L 408.926211 166.433535 
L 409.515083 166.557726 
L 410.39839 166.409065 
L 410.987261 166.170701 
L 412.45944 165.077595 
L 413.637183 164.564755 
L 414.520491 164.588828 
L 415.109362 164.735326 
L 415.698234 164.983106 
L 416.875977 165.171246 
L 417.759284 164.992222 
L 418.348156 164.681779 
L 418.937027 164.176352 
L 420.703642 163.216043 
L 421.586949 163.227087 
L 422.17582 163.433524 
L 422.764692 163.782643 
L 423.942435 164.16761 
L 424.825742 164.111346 
L 425.120178 164.042962 
L 427.181228 162.557322 
L 427.475664 162.557322 
L 427.7701 162.109052 
L 429.536715 161.811303 
L 430.420022 162.16706 
L 431.008893 162.770739 
L 431.597765 163.456593 
L 432.186636 163.776236 
L 432.186636 163.776236 
" clip-path="url(#p8b3ce7287d)" style="fill: none; stroke: #0000ff; stroke-width: 1.5; stroke-linecap: square"/>
   </g>
   <g id="patch_8">
    <path d="M 58.106 190.3975 
L 58.106 139.92 
" style="fill: none; stroke: #000000; stroke-width: 0.8; stroke-linejoin: miter; stroke-linecap: square"/>
   </g>
   <g id="patch_9">
    <path d="M 450 190.3975 
L 450 139.92 
" style="fill: none; stroke: #000000; stroke-width: 0.8; stroke-linejoin: miter; stroke-linecap: square"/>
   </g>
   <g id="patch_10">
    <path d="M 58.106 190.3975 
L 450 190.3975 
" style="fill: none; stroke: #000000; stroke-width: 0.8; stroke-linejoin: miter; stroke-linecap: square"/>
   </g>
   <g id="patch_11">
    <path d="M 58.106 139.92 
L 450 139.92 
" style="fill: none; stroke: #000000; stroke-width: 0.8; stroke-linejoin: miter; stroke-linecap: square"/>
   </g>
   <g id="text_25">
    <!-- Error in $z$-position -->
    <g transform="translate(200.773 133.92)scale(0.12 -0.12)">
     <use xlink:href="#DejaVuSans-45" transform="translate(0 0.015625)"/>
     <use xlink:href="#DejaVuSans-72" transform="translate(63.183594 0.015625)"/>
     <use xlink:href="#DejaVuSans-72" transform="translate(104.296875 0.015625)"/>
     <use xlink:href="#DejaVuSans-6f" transform="translate(145.410156 0.015625)"/>
     <use xlink:href="#DejaVuSans-72" transform="translate(206.591797 0.015625)"/>
     <use xlink:href="#DejaVuSans-20" transform="translate(247.705078 0.015625)"/>
     <use xlink:href="#DejaVuSans-69" transform="translate(279.492188 0.015625)"/>
     <use xlink:href="#DejaVuSans-6e" transform="translate(307.275391 0.015625)"/>
     <use xlink:href="#DejaVuSans-20" transform="translate(370.654297 0.015625)"/>
     <use xlink:href="#DejaVuSans-Oblique-7a" transform="translate(402.441406 0.015625)"/>
     <use xlink:href="#DejaVuSans-2d" transform="translate(454.931641 0.015625)"/>
     <use xlink:href="#DejaVuSans-70" transform="translate(491.015625 0.015625)"/>
     <use xlink:href="#DejaVuSans-6f" transform="translate(554.492188 0.015625)"/>
     <use xlink:href="#DejaVuSans-73" transform="translate(615.673828 0.015625)"/>
     <use xlink:href="#DejaVuSans-69" transform="translate(667.773438 0.015625)"/>
     <use xlink:href="#DejaVuSans-74" transform="translate(695.556641 0.015625)"/>
     <use xlink:href="#DejaVuSans-69" transform="translate(734.765625 0.015625)"/>
     <use xlink:href="#DejaVuSans-6f" transform="translate(762.548828 0.015625)"/>
     <use xlink:href="#DejaVuSans-6e" transform="translate(823.730469 0.015625)"/>
    </g>
   </g>
  </g>
  <g id="axes_3">
   <g id="patch_12">
    <path d="M 58.106 301.9975 
L 450 301.9975 
L 450 251.52 
L 58.106 251.52 
z
" style="fill: #ffffff"/>
   </g>
   <g id="matplotlib.axis_5">
    <g id="xtick_15">
     <g id="line2d_41">
      <path d="M 75.919364 301.9975 
L 75.919364 251.52 
" clip-path="url(#pc132a2902f)" style="fill: none; stroke: #b0b0b0; stroke-width: 0.8; stroke-linecap: square"/>
     </g>
     <g id="line2d_42">
      <g>
       <use xlink:href="#m0dfa1f1c3b" x="75.919364" y="301.9975" style="stroke: #000000; stroke-width: 0.8"/>
      </g>
     </g>
     <g id="text_26">
      <!-- 0 -->
      <g transform="translate(72.738114 316.595937)scale(0.1 -0.1)">
       <use xlink:href="#DejaVuSans-30"/>
      </g>
     </g>
    </g>
    <g id="xtick_16">
     <g id="line2d_43">
      <path d="M 134.757889 301.9975 
L 134.757889 251.52 
" clip-path="url(#pc132a2902f)" style="fill: none; stroke: #b0b0b0; stroke-width: 0.8; stroke-linecap: square"/>
     </g>
     <g id="line2d_44">
      <g>
       <use xlink:href="#m0dfa1f1c3b" x="134.757889" y="301.9975" style="stroke: #000000; stroke-width: 0.8"/>
      </g>
     </g>
     <g id="text_27">
      <!-- 2 -->
      <g transform="translate(131.576639 316.595937)scale(0.1 -0.1)">
       <use xlink:href="#DejaVuSans-32"/>
      </g>
     </g>
    </g>
    <g id="xtick_17">
     <g id="line2d_45">
      <path d="M 193.596415 301.9975 
L 193.596415 251.52 
" clip-path="url(#pc132a2902f)" style="fill: none; stroke: #b0b0b0; stroke-width: 0.8; stroke-linecap: square"/>
     </g>
     <g id="line2d_46">
      <g>
       <use xlink:href="#m0dfa1f1c3b" x="193.596415" y="301.9975" style="stroke: #000000; stroke-width: 0.8"/>
      </g>
     </g>
     <g id="text_28">
      <!-- 4 -->
      <g transform="translate(190.415165 316.595937)scale(0.1 -0.1)">
       <use xlink:href="#DejaVuSans-34"/>
      </g>
     </g>
    </g>
    <g id="xtick_18">
     <g id="line2d_47">
      <path d="M 252.434941 301.9975 
L 252.434941 251.52 
" clip-path="url(#pc132a2902f)" style="fill: none; stroke: #b0b0b0; stroke-width: 0.8; stroke-linecap: square"/>
     </g>
     <g id="line2d_48">
      <g>
       <use xlink:href="#m0dfa1f1c3b" x="252.434941" y="301.9975" style="stroke: #000000; stroke-width: 0.8"/>
      </g>
     </g>
     <g id="text_29">
      <!-- 6 -->
      <g transform="translate(249.253691 316.595937)scale(0.1 -0.1)">
       <use xlink:href="#DejaVuSans-36"/>
      </g>
     </g>
    </g>
    <g id="xtick_19">
     <g id="line2d_49">
      <path d="M 311.273466 301.9975 
L 311.273466 251.52 
" clip-path="url(#pc132a2902f)" style="fill: none; stroke: #b0b0b0; stroke-width: 0.8; stroke-linecap: square"/>
     </g>
     <g id="line2d_50">
      <g>
       <use xlink:href="#m0dfa1f1c3b" x="311.273466" y="301.9975" style="stroke: #000000; stroke-width: 0.8"/>
      </g>
     </g>
     <g id="text_30">
      <!-- 8 -->
      <g transform="translate(308.092216 316.595937)scale(0.1 -0.1)">
       <use xlink:href="#DejaVuSans-38"/>
      </g>
     </g>
    </g>
    <g id="xtick_20">
     <g id="line2d_51">
      <path d="M 370.111992 301.9975 
L 370.111992 251.52 
" clip-path="url(#pc132a2902f)" style="fill: none; stroke: #b0b0b0; stroke-width: 0.8; stroke-linecap: square"/>
     </g>
     <g id="line2d_52">
      <g>
       <use xlink:href="#m0dfa1f1c3b" x="370.111992" y="301.9975" style="stroke: #000000; stroke-width: 0.8"/>
      </g>
     </g>
     <g id="text_31">
      <!-- 10 -->
      <g transform="translate(363.749492 316.595937)scale(0.1 -0.1)">
       <use xlink:href="#DejaVuSans-31"/>
       <use xlink:href="#DejaVuSans-30" x="63.623047"/>
      </g>
     </g>
    </g>
    <g id="xtick_21">
     <g id="line2d_53">
      <path d="M 428.950517 301.9975 
L 428.950517 251.52 
" clip-path="url(#pc132a2902f)" style="fill: none; stroke: #b0b0b0; stroke-width: 0.8; stroke-linecap: square"/>
     </g>
     <g id="line2d_54">
      <g>
       <use xlink:href="#m0dfa1f1c3b" x="428.950517" y="301.9975" style="stroke: #000000; stroke-width: 0.8"/>
      </g>
     </g>
     <g id="text_32">
      <!-- 12 -->
      <g transform="translate(422.588017 316.595937)scale(0.1 -0.1)">
       <use xlink:href="#DejaVuSans-31"/>
       <use xlink:href="#DejaVuSans-32" x="63.623047"/>
      </g>
     </g>
    </g>
    <g id="text_33">
     <!-- $t$ [s] -->
     <g transform="translate(243.953 330.274063)scale(0.1 -0.1)">
      <use xlink:href="#DejaVuSans-Oblique-74" transform="translate(0 0.015625)"/>
      <use xlink:href="#DejaVuSans-20" transform="translate(39.208984 0.015625)"/>
      <use xlink:href="#DejaVuSans-5b" transform="translate(70.996094 0.015625)"/>
      <use xlink:href="#DejaVuSans-73" transform="translate(110.009766 0.015625)"/>
      <use xlink:href="#DejaVuSans-5d" transform="translate(162.109375 0.015625)"/>
     </g>
    </g>
   </g>
   <g id="matplotlib.axis_6">
    <g id="ytick_6">
     <g id="line2d_55">
      <path d="M 58.106 292.583687 
L 450 292.583687 
" clip-path="url(#pc132a2902f)" style="fill: none; stroke: #b0b0b0; stroke-width: 0.8; stroke-linecap: square"/>
     </g>
     <g id="line2d_56">
      <g>
       <use xlink:href="#m1f2c9d60b6" x="58.106" y="292.583687" style="stroke: #000000; stroke-width: 0.8"/>
      </g>
     </g>
     <g id="text_34">
      <!-- −0.1 -->
      <g transform="translate(26.823188 296.382905)scale(0.1 -0.1)">
       <use xlink:href="#DejaVuSans-2212"/>
       <use xlink:href="#DejaVuSans-30" x="83.789062"/>
       <use xlink:href="#DejaVuSans-2e" x="147.412109"/>
       <use xlink:href="#DejaVuSans-31" x="179.199219"/>
      </g>
     </g>
    </g>
    <g id="ytick_7">
     <g id="line2d_57">
      <path d="M 58.106 277.3659 
L 450 277.3659 
" clip-path="url(#pc132a2902f)" style="fill: none; stroke: #b0b0b0; stroke-width: 0.8; stroke-linecap: square"/>
     </g>
     <g id="line2d_58">
      <g>
       <use xlink:href="#m1f2c9d60b6" x="58.106" y="277.3659" style="stroke: #000000; stroke-width: 0.8"/>
      </g>
     </g>
     <g id="text_35">
      <!-- 0.0 -->
      <g transform="translate(35.202875 281.165119)scale(0.1 -0.1)">
       <use xlink:href="#DejaVuSans-30"/>
       <use xlink:href="#DejaVuSans-2e" x="63.623047"/>
       <use xlink:href="#DejaVuSans-30" x="95.410156"/>
      </g>
     </g>
    </g>
    <g id="ytick_8">
     <g id="line2d_59">
      <path d="M 58.106 262.148114 
L 450 262.148114 
" clip-path="url(#pc132a2902f)" style="fill: none; stroke: #b0b0b0; stroke-width: 0.8; stroke-linecap: square"/>
     </g>
     <g id="line2d_60">
      <g>
       <use xlink:href="#m1f2c9d60b6" x="58.106" y="262.148114" style="stroke: #000000; stroke-width: 0.8"/>
      </g>
     </g>
     <g id="text_36">
      <!-- 0.1 -->
      <g transform="translate(35.202875 265.947333)scale(0.1 -0.1)">
       <use xlink:href="#DejaVuSans-30"/>
       <use xlink:href="#DejaVuSans-2e" x="63.623047"/>
       <use xlink:href="#DejaVuSans-31" x="95.410156"/>
      </g>
     </g>
    </g>
    <g id="text_37">
     <!-- $e_\theta$ [rad] -->
     <g transform="translate(20.7435 295.90875)rotate(-90)scale(0.1 -0.1)">
      <defs>
       <path id="DejaVuSans-Oblique-3b8" d="M 2913 2219 
L 925 2219 
Q 791 1284 928 888 
Q 1100 400 1566 400 
Q 2034 400 2391 891 
Q 2703 1322 2913 2219 
z
M 3009 2750 
Q 3094 3638 2984 3950 
Q 2813 4444 2353 4444 
Q 1875 4444 1525 3956 
Q 1250 3563 1034 2750 
L 3009 2750 
z
M 2444 4913 
Q 3194 4913 3494 4250 
Q 3794 3591 3566 2422 
Q 3341 1256 2781 594 
Q 2225 -72 1475 -72 
Q 722 -72 425 594 
Q 128 1256 353 2422 
Q 581 3591 1134 4250 
Q 1691 4913 2444 4913 
z
" transform="scale(0.015625)"/>
       <path id="DejaVuSans-61" d="M 2194 1759 
Q 1497 1759 1228 1600 
Q 959 1441 959 1056 
Q 959 750 1161 570 
Q 1363 391 1709 391 
Q 2188 391 2477 730 
Q 2766 1069 2766 1631 
L 2766 1759 
L 2194 1759 
z
M 3341 1997 
L 3341 0 
L 2766 0 
L 2766 531 
Q 2569 213 2275 61 
Q 1981 -91 1556 -91 
Q 1019 -91 701 211 
Q 384 513 384 1019 
Q 384 1609 779 1909 
Q 1175 2209 1959 2209 
L 2766 2209 
L 2766 2266 
Q 2766 2663 2505 2880 
Q 2244 3097 1772 3097 
Q 1472 3097 1187 3025 
Q 903 2953 641 2809 
L 641 3341 
Q 956 3463 1253 3523 
Q 1550 3584 1831 3584 
Q 2591 3584 2966 3190 
Q 3341 2797 3341 1997 
z
" transform="scale(0.015625)"/>
       <path id="DejaVuSans-64" d="M 2906 2969 
L 2906 4863 
L 3481 4863 
L 3481 0 
L 2906 0 
L 2906 525 
Q 2725 213 2448 61 
Q 2172 -91 1784 -91 
Q 1150 -91 751 415 
Q 353 922 353 1747 
Q 353 2572 751 3078 
Q 1150 3584 1784 3584 
Q 2172 3584 2448 3432 
Q 2725 3281 2906 2969 
z
M 947 1747 
Q 947 1113 1208 752 
Q 1469 391 1925 391 
Q 2381 391 2643 752 
Q 2906 1113 2906 1747 
Q 2906 2381 2643 2742 
Q 2381 3103 1925 3103 
Q 1469 3103 1208 2742 
Q 947 2381 947 1747 
z
" transform="scale(0.015625)"/>
      </defs>
      <use xlink:href="#DejaVuSans-Oblique-65" transform="translate(0 0.015625)"/>
      <use xlink:href="#DejaVuSans-Oblique-3b8" transform="translate(61.523438 -16.390625)scale(0.7)"/>
      <use xlink:href="#DejaVuSans-20" transform="translate(107.084961 0.015625)"/>
      <use xlink:href="#DejaVuSans-5b" transform="translate(138.87207 0.015625)"/>
      <use xlink:href="#DejaVuSans-72" transform="translate(177.885742 0.015625)"/>
      <use xlink:href="#DejaVuSans-61" transform="translate(218.999023 0.015625)"/>
      <use xlink:href="#DejaVuSans-64" transform="translate(280.27832 0.015625)"/>
      <use xlink:href="#DejaVuSans-5d" transform="translate(343.754883 0.015625)"/>
     </g>
    </g>
   </g>
   <g id="line2d_61">
    <path d="M 75.919364 277.361842 
L 76.802671 277.050767 
L 77.097107 277.002513 
L 77.391542 276.685845 
L 78.863721 270.813717 
L 79.747029 265.41003 
L 80.924772 261.985196 
L 81.219207 261.950726 
L 81.513643 262.10245 
L 81.808079 262.419406 
L 82.39695 264.206136 
L 82.691386 265.460272 
L 82.985822 265.460272 
L 83.280258 267.384424 
L 83.574693 268.418594 
L 84.163565 271.74306 
L 84.458001 272.340621 
L 84.752437 273.586886 
L 85.635744 281.165562 
L 85.93018 282.02573 
L 86.519051 285.406021 
L 86.813487 288.387174 
L 87.696794 291.763227 
L 88.874537 292.349333 
L 89.757844 292.341283 
L 90.05228 292.273476 
L 90.641152 291.735412 
L 90.935588 291.206902 
L 91.230023 290.944534 
L 91.818895 289.307028 
L 92.113331 285.921603 
L 92.407766 285.921603 
L 92.702202 282.48042 
L 93.585509 277.092348 
L 94.174381 271.435501 
L 94.468817 269.307667 
L 94.763252 268.642358 
L 95.352124 266.189652 
L 95.64656 263.850376 
L 95.940995 263.850376 
L 96.235431 262.581728 
L 96.824303 261.774036 
L 97.413174 261.224165 
L 97.70761 261.224165 
L 98.296482 261.54135 
L 98.885353 262.129787 
L 99.179789 262.782133 
L 99.76866 264.682163 
L 100.651968 267.459897 
L 100.946403 269.205081 
L 101.240839 271.9508 
L 102.418582 278.664032 
L 103.30189 286.673207 
L 104.774068 294.354064 
L 105.068504 294.614069 
L 105.36294 294.576704 
L 105.657376 294.261672 
L 105.951811 293.694625 
L 106.246247 292.456727 
L 106.540683 290.253461 
L 108.012862 283.460164 
L 108.896169 277.26193 
L 109.485041 274.806531 
L 109.779476 272.306325 
L 110.073912 272.306325 
L 110.368348 271.127645 
L 110.662784 270.938867 
L 110.957219 271.044674 
L 111.251655 271.435612 
L 111.546091 272.086207 
L 111.840527 273.471318 
L 112.134962 275.849377 
L 113.312705 281.189697 
L 113.901577 284.66936 
L 114.196013 285.161432 
L 114.490449 285.401878 
L 114.784884 285.393015 
L 115.07932 284.631572 
L 115.373756 284.631572 
L 115.668192 281.853914 
L 115.962627 281.245858 
L 116.551499 278.552941 
L 116.845935 275.645116 
L 117.14037 275.645116 
L 117.434806 271.343645 
L 117.729242 270.662585 
L 118.318113 268.109072 
L 118.612549 265.860974 
L 118.906985 265.860974 
L 119.201421 263.064691 
L 119.495856 262.645863 
L 120.6736 259.217062 
L 120.968035 257.894394 
L 121.851343 256.407461 
L 122.440214 255.866639 
L 122.73465 256.070133 
L 123.029086 256.428618 
L 123.617957 257.683418 
L 123.912393 259.029408 
L 124.206829 261.157474 
L 125.679008 266.840719 
L 125.973443 268.465944 
L 126.856751 270.41602 
L 128.034494 272.451033 
L 128.917801 272.860346 
L 130.095544 273.084372 
L 132.156594 273.142609 
L 132.45103 273.246119 
L 132.745466 273.467821 
L 133.334337 274.072614 
L 134.217645 274.863945 
L 134.51208 275.330652 
L 134.806516 275.330652 
L 135.395388 276.160416 
L 135.689823 276.491222 
L 135.984259 277.048798 
L 136.278695 277.899887 
L 136.573131 277.899887 
L 136.867566 278.849517 
L 137.162002 279.357851 
L 137.750874 280.893783 
L 138.04531 281.13202 
L 138.339745 281.591953 
L 138.634181 282.438762 
L 139.223053 283.321538 
L 139.517488 283.77855 
L 140.10636 284.168107 
L 140.400796 284.520348 
L 140.989667 284.599784 
L 141.284103 284.463724 
L 141.578539 283.99994 
L 141.872974 283.99994 
L 142.461846 282.542738 
L 143.050718 281.040503 
L 143.345153 279.69581 
L 143.639589 277.733511 
L 145.111768 272.467278 
L 145.406204 272.467278 
L 145.700639 271.813871 
L 146.878382 271.047551 
L 148.350561 268.922528 
L 148.644997 267.913062 
L 148.939433 266.194737 
L 149.82274 262.890862 
L 150.117176 261.654085 
L 151.000483 256.529439 
L 151.88379 254.137988 
L 152.178226 253.814432 
L 152.472662 253.814432 
L 153.061533 254.555608 
L 153.650405 256.020629 
L 153.944841 256.292998 
L 154.239276 256.837521 
L 154.533712 257.84652 
L 155.41702 259.022595 
L 155.711455 259.293832 
L 156.594763 259.207178 
L 157.183634 258.936948 
L 157.772506 258.484025 
L 158.361377 258.47138 
L 158.655813 258.578761 
L 158.950249 258.908416 
L 159.244684 259.687934 
L 159.53912 259.687934 
L 159.833556 260.801477 
L 160.127992 261.449782 
L 161.011299 264.610711 
L 161.305735 264.610711 
L 161.600171 265.935268 
L 162.483478 267.898478 
L 163.072349 268.294994 
L 163.366785 268.574756 
L 163.955657 268.613029 
L 165.1334 268.421773 
L 165.722271 268.548672 
L 166.016707 268.779859 
L 166.311143 269.206081 
L 166.605579 269.206081 
L 166.900014 269.637582 
L 167.488886 269.934364 
L 168.077757 270.059952 
L 168.961065 270.12082 
L 169.2555 270.229701 
L 169.549936 270.530076 
L 169.844372 271.272268 
L 170.138808 271.272268 
L 170.727679 273.40182 
L 171.316551 275.579075 
L 171.610986 277.560523 
L 171.905422 280.48912 
L 173.377601 287.515924 
L 173.672037 288.249374 
L 173.966473 288.128513 
L 174.260908 287.71617 
L 174.84978 286.168534 
L 175.144216 284.544674 
L 175.438651 282.015419 
L 176.616394 277.003255 
L 176.91083 274.808584 
L 177.205266 274.808584 
L 177.499702 274.092241 
L 177.794137 274.156951 
L 178.088573 274.502607 
L 178.383009 275.116385 
L 179.266316 281.094103 
L 179.560752 281.812379 
L 180.444059 286.355929 
L 180.738495 286.739671 
L 181.032931 286.609109 
L 181.327367 285.679853 
L 181.621802 284.067249 
L 181.916238 284.067249 
L 182.799545 275.822853 
L 183.093981 274.919124 
L 183.682853 271.372856 
L 183.977289 268.125443 
L 184.860596 263.831007 
L 185.155032 263.321264 
L 185.449467 263.321264 
L 185.743903 263.783076 
L 186.332775 265.432279 
L 186.62721 267.278911 
L 186.921646 270.252918 
L 188.393825 278.081438 
L 188.688261 279.052131 
L 188.982696 278.941888 
L 189.277132 278.447337 
L 189.866004 276.484225 
L 190.16044 275.115944 
L 190.454875 272.749554 
L 190.749311 269.265943 
L 191.927054 261.622466 
L 192.22149 258.854363 
L 192.810361 256.877669 
L 193.104797 256.273433 
L 193.399233 255.965725 
L 193.693669 256.141362 
L 195.165847 263.498778 
L 196.049155 271.567765 
L 196.932462 275.837147 
L 197.521334 277.436722 
L 197.815769 277.03753 
L 198.404641 275.385936 
L 198.993512 272.91695 
L 200.171255 265.169535 
L 201.054563 261.523428 
L 201.348998 260.838402 
L 201.643434 260.992732 
L 201.93787 261.482738 
L 202.526742 263.368531 
L 202.821177 265.441536 
L 203.115613 268.792161 
L 203.704485 272.42317 
L 204.587792 279.561657 
L 204.882228 279.561657 
L 205.176663 281.166997 
L 205.765535 281.125807 
L 206.059971 280.846336 
L 206.648842 279.144968 
L 206.943278 276.816741 
L 207.237714 275.54487 
L 207.826585 271.767386 
L 208.121021 271.182008 
L 208.415457 270.095823 
L 208.709893 268.365147 
L 209.004328 267.8055 
L 209.298764 267.487546 
L 209.887636 268.060979 
L 210.182071 268.754275 
L 211.359814 276.665186 
L 211.65425 277.440851 
L 211.948686 278.936592 
L 212.243122 281.521184 
L 212.831993 283.464929 
L 213.126429 283.836193 
L 213.420865 283.835257 
L 213.715301 283.639182 
L 214.009736 282.501038 
L 214.304172 282.501038 
L 214.598608 279.265336 
L 214.893044 278.597862 
L 215.481915 275.730526 
L 215.776351 272.760424 
L 216.070787 272.760424 
L 216.365222 268.659182 
L 216.659658 268.071217 
L 217.24853 266.210617 
L 217.542965 265.573747 
L 217.837401 265.573747 
L 218.131837 267.180922 
L 218.426273 267.701924 
L 219.015144 270.269954 
L 219.30958 273.314796 
L 219.604016 274.876757 
L 220.192887 279.028195 
L 220.487323 279.575927 
L 221.076195 281.326386 
L 221.37063 281.326386 
L 221.665066 280.155915 
L 221.959502 279.707403 
L 222.548373 277.365941 
L 222.842809 274.415224 
L 223.137245 272.799923 
L 223.726116 267.830915 
L 224.020552 267.016593 
L 224.314988 265.44718 
L 224.609424 262.739182 
L 225.198295 261.053837 
L 225.492731 260.699755 
L 225.787167 261.417354 
L 226.081603 261.417354 
L 226.670474 264.652847 
L 226.96491 266.122979 
L 227.553781 271.765157 
L 227.848217 271.765157 
L 228.142653 274.712247 
L 228.731524 276.881902 
L 229.02596 277.724248 
L 229.320396 277.66168 
L 229.614832 277.168091 
L 230.203703 275.488321 
L 230.498139 274.390084 
L 230.792575 272.558526 
L 231.087011 269.95534 
L 231.381446 269.95534 
L 231.675882 267.361271 
L 232.853625 262.119155 
L 233.442497 262.100988 
L 233.736932 262.56342 
L 234.031368 263.786898 
L 234.325804 265.559208 
L 234.62024 266.24865 
L 234.914675 267.738538 
L 235.209111 270.993846 
L 236.092418 276.375327 
L 236.386854 278.550333 
L 236.68129 278.550333 
L 236.975726 279.477676 
L 237.270162 279.431035 
L 237.564597 279.069601 
L 237.859033 278.423782 
L 238.153469 277.027787 
L 238.447905 274.643536 
L 239.331212 270.794843 
L 239.920083 266.830383 
L 240.214519 266.830383 
L 240.508955 265.156709 
L 240.803391 264.609343 
L 241.097826 264.318398 
L 241.392262 264.454187 
L 241.686698 265.74824 
L 241.981134 265.74824 
L 242.570005 269.607335 
L 242.864441 271.222808 
L 243.453313 277.105001 
L 243.747748 277.105001 
L 244.042184 280.010183 
L 244.631056 281.961348 
L 244.925491 282.540379 
L 245.219927 282.046356 
L 245.514363 282.046356 
L 246.103234 279.190734 
L 246.39767 277.89006 
L 246.986542 272.863875 
L 247.280977 272.863875 
L 247.575413 270.027557 
L 248.753156 264.951169 
L 249.047592 264.951169 
L 249.342028 265.361259 
L 249.930899 267.027637 
L 250.225335 268.926777 
L 250.519771 272.032851 
L 252.286385 281.624647 
L 252.580821 282.517377 
L 252.875257 282.444785 
L 253.169693 282.044767 
L 253.758564 280.403246 
L 254.053 278.581307 
L 254.347436 275.654159 
L 255.525179 269.20321 
L 256.11405 264.702515 
L 256.408486 264.017419 
L 256.702922 263.671943 
L 256.997358 263.680063 
L 257.291793 264.035922 
L 257.586229 265.179193 
L 257.880665 267.654873 
L 259.058408 274.371157 
L 259.941715 281.418706 
L 260.530587 283.387587 
L 260.825023 283.942479 
L 261.119458 284.126973 
L 262.002766 280.836282 
L 262.591637 277.674872 
L 262.886073 274.969836 
L 263.180509 271.216014 
L 264.358252 264.220796 
L 264.652687 261.191223 
L 264.947123 261.191223 
L 265.241559 260.201698 
L 265.535995 260.24784 
L 265.830431 260.647349 
L 266.124866 261.391344 
L 266.419302 264.55338 
L 266.713738 264.55338 
L 267.008174 268.041416 
L 267.891481 273.937854 
L 268.774788 281.771728 
L 269.36366 284.088284 
L 269.658095 284.789315 
L 269.952531 285.152417 
L 270.541403 283.350089 
L 271.130274 280.593575 
L 271.42471 278.00761 
L 271.719146 274.195304 
L 272.602453 268.313979 
L 273.191325 263.10112 
L 273.48576 262.403367 
L 274.074632 259.788086 
L 274.369068 259.788086 
L 274.957939 260.74503 
L 275.546811 263.067995 
L 275.841246 266.284013 
L 276.135682 268.110332 
L 276.724554 273.936719 
L 277.018989 274.908932 
L 277.313425 276.793536 
L 277.607861 280.172157 
L 278.196733 282.691149 
L 278.491168 283.810414 
L 278.785604 284.152443 
L 279.08004 284.152443 
L 279.963347 280.980073 
L 280.257783 278.804842 
L 280.552219 275.482253 
L 282.907705 262.011471 
L 283.20214 261.781802 
L 283.496576 261.877653 
L 283.791012 262.293761 
L 284.085448 263.489231 
L 284.379884 266.001124 
L 284.968755 269.226135 
L 285.557627 274.612163 
L 285.852062 275.499802 
L 286.146498 277.210454 
L 286.440934 280.248324 
L 287.029805 283.40226 
L 287.324241 283.745876 
L 287.618677 284.27707 
L 287.913113 284.562849 
L 288.207548 284.227913 
L 288.501984 283.586852 
L 289.090856 280.043148 
L 289.385292 277.625138 
L 289.679727 277.625138 
L 289.974163 274.106189 
L 290.268599 272.310074 
L 291.151906 265.1607 
L 291.446342 265.1607 
L 291.740778 263.185656 
L 292.035213 262.639068 
L 292.329649 262.423888 
L 292.624085 262.763757 
L 294.390699 272.086093 
L 295.274007 279.657894 
L 296.45175 284.948726 
L 296.746186 284.948726 
L 297.040621 284.727653 
L 297.335057 284.11984 
L 297.923929 282.035008 
L 298.807236 273.671007 
L 299.101672 272.740366 
L 299.690543 269.078112 
L 299.984979 265.796951 
L 300.868286 262.297032 
L 301.162722 262.213912 
L 301.457158 262.295069 
L 301.751594 263.430551 
L 302.046029 263.430551 
L 302.340465 267.171957 
L 302.634901 267.965583 
L 303.223772 271.418804 
L 303.518208 275.058264 
L 303.812644 276.835016 
L 304.401515 281.660961 
L 304.695951 282.356993 
L 305.284823 285.207764 
L 305.579258 285.524499 
L 305.873694 285.337387 
L 306.16813 284.413727 
L 306.462566 283.959703 
L 306.757002 282.860116 
L 307.051437 280.052394 
L 307.345873 280.052394 
L 307.640309 274.906485 
L 307.934745 274.000344 
L 308.523616 270.389797 
L 308.818052 266.948918 
L 309.701359 262.163671 
L 309.995795 261.51487 
L 310.290231 261.51487 
L 310.584666 261.859604 
L 310.879102 262.548539 
L 312.056845 268.84247 
L 312.351281 272.509476 
L 312.645717 274.359564 
L 313.234588 279.604295 
L 313.529024 280.40781 
L 313.82346 281.885658 
L 314.117896 284.162353 
L 314.412331 284.875466 
L 314.706767 285.239114 
L 315.001203 285.12936 
L 315.295639 283.879704 
L 315.590074 283.879704 
L 316.178946 280.141717 
L 316.767817 276.913449 
L 317.651125 269.255893 
L 318.828868 263.519514 
L 319.123304 262.658639 
L 319.417739 262.73226 
L 319.712175 263.14201 
L 320.301047 264.861031 
L 320.595482 266.796547 
L 320.889918 269.929682 
L 321.773225 275.198455 
L 322.362097 281.204147 
L 322.656533 281.204147 
L 322.950968 284.060369 
L 323.53984 286.070991 
L 323.834276 286.603318 
L 324.128711 286.693995 
L 325.306455 281.529853 
L 325.895326 278.018474 
L 326.778633 269.691257 
L 327.956376 263.161657 
L 328.250812 261.97184 
L 328.545248 261.919421 
L 328.839684 262.222892 
L 329.134119 262.858707 
L 329.428555 263.782973 
L 329.722991 265.635402 
L 330.017427 268.729384 
L 330.900734 274.062014 
L 331.19517 278.579629 
L 331.489606 278.579629 
L 331.784041 281.937321 
L 332.667349 286.090104 
L 333.25622 287.694728 
L 333.550656 287.307435 
L 333.845092 286.573161 
L 334.433963 284.21148 
L 334.728399 280.070924 
L 335.022835 280.070924 
L 335.31727 276.274397 
L 337.083885 264.514995 
L 337.378321 263.902419 
L 337.672757 263.603536 
L 337.967192 263.616553 
L 338.261628 264.53442 
L 338.556064 264.53442 
L 338.8505 267.841243 
L 339.144935 268.55134 
L 339.733807 271.652271 
L 340.028243 274.875362 
L 340.322678 274.875362 
L 340.617114 279.393752 
L 340.91155 280.074395 
L 341.794857 284.193734 
L 342.089293 284.193734 
L 342.383729 284.952704 
L 342.678165 284.855472 
L 342.9726 284.47056 
L 343.267036 283.834885 
L 343.561472 281.863063 
L 343.855908 281.863063 
L 344.150343 277.652124 
L 344.444779 276.877515 
L 345.622522 270.255612 
L 345.916958 268.080438 
L 346.505829 266.535726 
L 347.094701 265.533001 
L 347.389137 265.533001 
L 347.683573 266.228104 
L 347.978008 266.498755 
L 348.56688 267.930025 
L 349.450187 273.085583 
L 349.744623 273.642765 
L 350.333494 275.792889 
L 350.62793 277.713157 
L 351.216802 279.825512 
L 351.511237 280.07594 
L 352.100109 280.752489 
L 352.394545 280.860803 
L 352.68898 280.720062 
L 353.277852 279.769868 
L 353.572288 279.105329 
L 353.866724 279.105329 
L 354.161159 278.091703 
L 354.455595 277.561239 
L 355.044467 276.103956 
L 355.338902 275.9043 
L 356.516645 274.541369 
L 357.105517 274.267663 
L 357.399953 274.068931 
L 357.988824 273.450176 
L 358.28326 273.260549 
L 359.166567 273.015642 
L 359.461003 272.783005 
L 359.755439 272.783005 
L 360.049875 272.127474 
L 360.34431 271.971063 
L 360.933182 271.208987 
L 361.227618 270.251279 
L 361.522053 269.733858 
L 362.110925 268.295126 
L 362.405361 267.801685 
L 362.699796 267.801685 
L 362.994232 267.652981 
L 363.288668 267.839537 
L 363.583104 268.439859 
L 364.171975 270.488105 
L 364.466411 270.488105 
L 364.760847 272.142679 
L 365.055282 272.980968 
L 365.644154 275.159093 
L 365.93859 275.898497 
L 366.233026 275.898497 
L 366.527461 276.290762 
L 366.821897 276.190777 
L 367.116333 275.884055 
L 367.410769 275.049202 
L 367.705204 273.357719 
L 369.471819 267.497667 
L 369.766255 266.953081 
L 370.06069 266.992295 
L 370.355126 267.219022 
L 370.943998 268.169036 
L 371.238434 270.163717 
L 371.532869 270.163717 
L 371.827305 272.266606 
L 373.005048 277.079684 
L 373.888355 281.954143 
L 374.771663 284.716104 
L 375.360534 284.758375 
L 375.949406 284.216966 
L 376.243841 283.835584 
L 376.538277 282.940462 
L 376.832713 282.940462 
L 377.127149 281.551438 
L 377.421585 281.345294 
L 378.304892 280.30052 
L 379.777071 279.353482 
L 380.071506 278.976656 
L 380.660378 278.838131 
L 381.543685 279.138733 
L 381.838121 279.436596 
L 382.132557 279.436596 
L 382.426992 279.719857 
L 383.015864 279.67472 
L 383.3103 279.519461 
L 384.193607 277.211161 
L 384.782479 274.832588 
L 385.076914 274.832588 
L 385.37135 273.485098 
L 385.960222 272.631373 
L 386.549093 272.864941 
L 386.843529 273.278371 
L 388.315708 279.295004 
L 388.610144 279.295004 
L 388.904579 280.820053 
L 389.493451 281.870823 
L 389.787887 282.144201 
L 390.376758 281.147916 
L 390.96563 279.453592 
L 391.554501 277.276531 
L 392.437808 272.82621 
L 393.02668 271.696607 
L 393.321116 271.405313 
L 393.615551 271.371219 
L 394.793295 274.021198 
L 395.382166 276.845014 
L 395.676602 276.845014 
L 395.971038 278.266487 
L 396.854345 280.21173 
L 397.148781 280.410046 
L 397.443216 280.410046 
L 398.032088 279.807325 
L 398.326524 279.287583 
L 398.620959 278.240053 
L 398.915395 276.553333 
L 399.209831 276.553333 
L 399.504267 274.871037 
L 400.387574 272.98284 
L 400.68201 272.887894 
L 401.270881 273.378518 
L 402.154189 274.615185 
L 403.037496 276.431231 
L 404.215239 277.700613 
L 404.509675 277.700613 
L 405.098546 278.761346 
L 405.981853 280.118302 
L 406.276289 280.30564 
L 406.865161 280.079975 
L 407.454032 279.680566 
L 407.748468 279.332657 
L 408.33734 278.381283 
L 408.926211 277.491898 
L 409.809518 275.545655 
L 410.39839 275.110314 
L 411.281697 274.811042 
L 411.576133 274.892492 
L 411.870569 275.092227 
L 412.45944 275.939165 
L 413.048312 277.395129 
L 413.931619 280.969032 
L 414.520491 281.739285 
L 414.814926 281.845096 
L 415.109362 281.62724 
L 415.698234 279.9211 
L 416.287105 278.189783 
L 417.170412 274.430214 
L 417.759284 273.633989 
L 418.05372 273.535439 
L 418.348156 273.821106 
L 418.937027 275.512529 
L 419.820334 277.167497 
L 420.11477 277.603349 
L 420.409206 277.763831 
L 420.998077 277.607388 
L 421.881385 277.071754 
L 422.17582 276.654463 
L 422.470256 275.917195 
L 423.353563 274.872077 
L 423.647999 274.769981 
L 423.942435 275.283744 
L 424.236871 276.3269 
L 424.531307 276.779124 
L 425.120178 278.922449 
L 425.70905 282.660045 
L 426.003485 283.82349 
L 426.297921 284.153775 
L 426.886793 285.383807 
L 427.181228 286.809077 
L 427.475664 286.809077 
L 427.7701 289.906496 
L 428.064536 290.508518 
L 428.653407 292.99073 
L 428.947843 295.281345 
L 429.83115 298.590158 
L 430.125586 298.86994 
L 430.714458 299.703068 
L 431.008893 299.567185 
L 431.303329 298.795475 
L 431.597765 297.259757 
L 431.892201 296.5807 
L 432.186636 294.987869 
L 432.186636 294.987869 
" clip-path="url(#pc132a2902f)" style="fill: none; stroke: #008000; stroke-width: 1.5; stroke-linecap: square"/>
   </g>
   <g id="patch_13">
    <path d="M 58.106 301.9975 
L 58.106 251.52 
" style="fill: none; stroke: #000000; stroke-width: 0.8; stroke-linejoin: miter; stroke-linecap: square"/>
   </g>
   <g id="patch_14">
    <path d="M 450 301.9975 
L 450 251.52 
" style="fill: none; stroke: #000000; stroke-width: 0.8; stroke-linejoin: miter; stroke-linecap: square"/>
   </g>
   <g id="patch_15">
    <path d="M 58.106 301.9975 
L 450 301.9975 
" style="fill: none; stroke: #000000; stroke-width: 0.8; stroke-linejoin: miter; stroke-linecap: square"/>
   </g>
   <g id="patch_16">
    <path d="M 58.106 251.52 
L 450 251.52 
" style="fill: none; stroke: #000000; stroke-width: 0.8; stroke-linejoin: miter; stroke-linecap: square"/>
   </g>
   <g id="text_38">
    <!-- Error in swing angle -->
    <g transform="translate(194.282688 245.52)scale(0.12 -0.12)">
     <defs>
      <path id="DejaVuSans-77" d="M 269 3500 
L 844 3500 
L 1563 769 
L 2278 3500 
L 2956 3500 
L 3675 769 
L 4391 3500 
L 4966 3500 
L 4050 0 
L 3372 0 
L 2619 2869 
L 1863 0 
L 1184 0 
L 269 3500 
z
" transform="scale(0.015625)"/>
      <path id="DejaVuSans-67" d="M 2906 1791 
Q 2906 2416 2648 2759 
Q 2391 3103 1925 3103 
Q 1463 3103 1205 2759 
Q 947 2416 947 1791 
Q 947 1169 1205 825 
Q 1463 481 1925 481 
Q 2391 481 2648 825 
Q 2906 1169 2906 1791 
z
M 3481 434 
Q 3481 -459 3084 -895 
Q 2688 -1331 1869 -1331 
Q 1566 -1331 1297 -1286 
Q 1028 -1241 775 -1147 
L 775 -588 
Q 1028 -725 1275 -790 
Q 1522 -856 1778 -856 
Q 2344 -856 2625 -561 
Q 2906 -266 2906 331 
L 2906 616 
Q 2728 306 2450 153 
Q 2172 0 1784 0 
Q 1141 0 747 490 
Q 353 981 353 1791 
Q 353 2603 747 3093 
Q 1141 3584 1784 3584 
Q 2172 3584 2450 3431 
Q 2728 3278 2906 2969 
L 2906 3500 
L 3481 3500 
L 3481 434 
z
" transform="scale(0.015625)"/>
      <path id="DejaVuSans-6c" d="M 603 4863 
L 1178 4863 
L 1178 0 
L 603 0 
L 603 4863 
z
" transform="scale(0.015625)"/>
      <path id="DejaVuSans-65" d="M 3597 1894 
L 3597 1613 
L 953 1613 
Q 991 1019 1311 708 
Q 1631 397 2203 397 
Q 2534 397 2845 478 
Q 3156 559 3463 722 
L 3463 178 
Q 3153 47 2828 -22 
Q 2503 -91 2169 -91 
Q 1331 -91 842 396 
Q 353 884 353 1716 
Q 353 2575 817 3079 
Q 1281 3584 2069 3584 
Q 2775 3584 3186 3129 
Q 3597 2675 3597 1894 
z
M 3022 2063 
Q 3016 2534 2758 2815 
Q 2500 3097 2075 3097 
Q 1594 3097 1305 2825 
Q 1016 2553 972 2059 
L 3022 2063 
z
" transform="scale(0.015625)"/>
     </defs>
     <use xlink:href="#DejaVuSans-45"/>
     <use xlink:href="#DejaVuSans-72" x="63.183594"/>
     <use xlink:href="#DejaVuSans-72" x="102.546875"/>
     <use xlink:href="#DejaVuSans-6f" x="141.410156"/>
     <use xlink:href="#DejaVuSans-72" x="202.591797"/>
     <use xlink:href="#DejaVuSans-20" x="243.705078"/>
     <use xlink:href="#DejaVuSans-69" x="275.492188"/>
     <use xlink:href="#DejaVuSans-6e" x="303.275391"/>
     <use xlink:href="#DejaVuSans-20" x="366.654297"/>
     <use xlink:href="#DejaVuSans-73" x="398.441406"/>
     <use xlink:href="#DejaVuSans-77" x="450.541016"/>
     <use xlink:href="#DejaVuSans-69" x="532.328125"/>
     <use xlink:href="#DejaVuSans-6e" x="560.111328"/>
     <use xlink:href="#DejaVuSans-67" x="623.490234"/>
     <use xlink:href="#DejaVuSans-20" x="686.966797"/>
     <use xlink:href="#DejaVuSans-61" x="718.753906"/>
     <use xlink:href="#DejaVuSans-6e" x="780.033203"/>
     <use xlink:href="#DejaVuSans-67" x="843.412109"/>
     <use xlink:href="#DejaVuSans-6c" x="906.888672"/>
     <use xlink:href="#DejaVuSans-65" x="934.671875"/>
    </g>
   </g>
  </g>
 </g>
 <defs>
  <clipPath id="p4a7ef16457">
   <rect x="58.106" y="28.32" width="391.894" height="50.4775"/>
  </clipPath>
  <clipPath id="p8b3ce7287d">
   <rect x="58.106" y="139.92" width="391.894" height="50.4775"/>
  </clipPath>
  <clipPath id="pc132a2902f">
   <rect x="58.106" y="251.52" width="391.894" height="50.4775"/>
  </clipPath>
 </defs>
</svg>
