<?xml version="1.0" encoding="utf-8" standalone="no"?>
<!DOCTYPE svg PUBLIC "-//W3C//DTD SVG 1.1//EN"
  "http://www.w3.org/Graphics/SVG/1.1/DTD/svg11.dtd">
<svg xmlns:xlink="http://www.w3.org/1999/xlink" width="460.8pt" height="345.6pt" viewBox="0 0 460.8 345.6" xmlns="http://www.w3.org/2000/svg" version="1.1">
 <metadata>
  <rdf:RDF xmlns:dc="http://purl.org/dc/elements/1.1/" xmlns:cc="http://creativecommons.org/ns#" xmlns:rdf="http://www.w3.org/1999/02/22-rdf-syntax-ns#">
   <cc:Work>
    <dc:type rdf:resource="http://purl.org/dc/dcmitype/StillImage"/>
    <dc:date>2022-06-05T14:16:23.673096</dc:date>
    <dc:format>image/svg+xml</dc:format>
    <dc:creator>
     <cc:Agent>
      <dc:title>Matplotlib v3.5.1, https://matplotlib.org/</dc:title>
     </cc:Agent>
    </dc:creator>
   </cc:Work>
  </rdf:RDF>
 </metadata>
 <defs>
  <style type="text/css">*{stroke-linejoin: round; stroke-linecap: butt}</style>
 </defs>
 <g id="figure_1">
  <g id="patch_1">
   <path d="M 0 345.6 
L 460.8 345.6 
L 460.8 0 
L 0 0 
z
" style="fill: #ffffff"/>
  </g>
  <g id="axes_1">
   <g id="patch_2">
    <path d="M 58.106 78.7975 
L 450 78.7975 
L 450 28.32 
L 58.106 28.32 
z
" style="fill: #ffffff"/>
   </g>
   <g id="matplotlib.axis_1">
    <g id="xtick_1">
     <g id="line2d_1">
      <path d="M 75.919364 78.7975 
L 75.919364 28.32 
" clip-path="url(#p4b6437d8fb)" style="fill: none; stroke: #b0b0b0; stroke-width: 0.8; stroke-linecap: square"/>
     </g>
     <g id="line2d_2">
      <defs>
       <path id="m5361090f36" d="M 0 0 
L 0 3.5 
" style="stroke: #000000; stroke-width: 0.8"/>
      </defs>
      <g>
       <use xlink:href="#m5361090f36" x="75.919364" y="78.7975" style="stroke: #000000; stroke-width: 0.8"/>
      </g>
     </g>
     <g id="text_1">
      <!-- 0 -->
      <g transform="translate(72.738114 93.395937)scale(0.1 -0.1)">
       <defs>
        <path id="DejaVuSans-30" d="M 2034 4250 
Q 1547 4250 1301 3770 
Q 1056 3291 1056 2328 
Q 1056 1369 1301 889 
Q 1547 409 2034 409 
Q 2525 409 2770 889 
Q 3016 1369 3016 2328 
Q 3016 3291 2770 3770 
Q 2525 4250 2034 4250 
z
M 2034 4750 
Q 2819 4750 3233 4129 
Q 3647 3509 3647 2328 
Q 3647 1150 3233 529 
Q 2819 -91 2034 -91 
Q 1250 -91 836 529 
Q 422 1150 422 2328 
Q 422 3509 836 4129 
Q 1250 4750 2034 4750 
z
" transform="scale(0.015625)"/>
       </defs>
       <use xlink:href="#DejaVuSans-30"/>
      </g>
     </g>
    </g>
    <g id="xtick_2">
     <g id="line2d_3">
      <path d="M 135.149168 78.7975 
L 135.149168 28.32 
" clip-path="url(#p4b6437d8fb)" style="fill: none; stroke: #b0b0b0; stroke-width: 0.8; stroke-linecap: square"/>
     </g>
     <g id="line2d_4">
      <g>
       <use xlink:href="#m5361090f36" x="135.149168" y="78.7975" style="stroke: #000000; stroke-width: 0.8"/>
      </g>
     </g>
     <g id="text_2">
      <!-- 2 -->
      <g transform="translate(131.967918 93.395937)scale(0.1 -0.1)">
       <defs>
        <path id="DejaVuSans-32" d="M 1228 531 
L 3431 531 
L 3431 0 
L 469 0 
L 469 531 
Q 828 903 1448 1529 
Q 2069 2156 2228 2338 
Q 2531 2678 2651 2914 
Q 2772 3150 2772 3378 
Q 2772 3750 2511 3984 
Q 2250 4219 1831 4219 
Q 1534 4219 1204 4116 
Q 875 4013 500 3803 
L 500 4441 
Q 881 4594 1212 4672 
Q 1544 4750 1819 4750 
Q 2544 4750 2975 4387 
Q 3406 4025 3406 3419 
Q 3406 3131 3298 2873 
Q 3191 2616 2906 2266 
Q 2828 2175 2409 1742 
Q 1991 1309 1228 531 
z
" transform="scale(0.015625)"/>
       </defs>
       <use xlink:href="#DejaVuSans-32"/>
      </g>
     </g>
    </g>
    <g id="xtick_3">
     <g id="line2d_5">
      <path d="M 194.378972 78.7975 
L 194.378972 28.32 
" clip-path="url(#p4b6437d8fb)" style="fill: none; stroke: #b0b0b0; stroke-width: 0.8; stroke-linecap: square"/>
     </g>
     <g id="line2d_6">
      <g>
       <use xlink:href="#m5361090f36" x="194.378972" y="78.7975" style="stroke: #000000; stroke-width: 0.8"/>
      </g>
     </g>
     <g id="text_3">
      <!-- 4 -->
      <g transform="translate(191.197722 93.395937)scale(0.1 -0.1)">
       <defs>
        <path id="DejaVuSans-34" d="M 2419 4116 
L 825 1625 
L 2419 1625 
L 2419 4116 
z
M 2253 4666 
L 3047 4666 
L 3047 1625 
L 3713 1625 
L 3713 1100 
L 3047 1100 
L 3047 0 
L 2419 0 
L 2419 1100 
L 313 1100 
L 313 1709 
L 2253 4666 
z
" transform="scale(0.015625)"/>
       </defs>
       <use xlink:href="#DejaVuSans-34"/>
      </g>
     </g>
    </g>
    <g id="xtick_4">
     <g id="line2d_7">
      <path d="M 253.608776 78.7975 
L 253.608776 28.32 
" clip-path="url(#p4b6437d8fb)" style="fill: none; stroke: #b0b0b0; stroke-width: 0.8; stroke-linecap: square"/>
     </g>
     <g id="line2d_8">
      <g>
       <use xlink:href="#m5361090f36" x="253.608776" y="78.7975" style="stroke: #000000; stroke-width: 0.8"/>
      </g>
     </g>
     <g id="text_4">
      <!-- 6 -->
      <g transform="translate(250.427526 93.395937)scale(0.1 -0.1)">
       <defs>
        <path id="DejaVuSans-36" d="M 2113 2584 
Q 1688 2584 1439 2293 
Q 1191 2003 1191 1497 
Q 1191 994 1439 701 
Q 1688 409 2113 409 
Q 2538 409 2786 701 
Q 3034 994 3034 1497 
Q 3034 2003 2786 2293 
Q 2538 2584 2113 2584 
z
M 3366 4563 
L 3366 3988 
Q 3128 4100 2886 4159 
Q 2644 4219 2406 4219 
Q 1781 4219 1451 3797 
Q 1122 3375 1075 2522 
Q 1259 2794 1537 2939 
Q 1816 3084 2150 3084 
Q 2853 3084 3261 2657 
Q 3669 2231 3669 1497 
Q 3669 778 3244 343 
Q 2819 -91 2113 -91 
Q 1303 -91 875 529 
Q 447 1150 447 2328 
Q 447 3434 972 4092 
Q 1497 4750 2381 4750 
Q 2619 4750 2861 4703 
Q 3103 4656 3366 4563 
z
" transform="scale(0.015625)"/>
       </defs>
       <use xlink:href="#DejaVuSans-36"/>
      </g>
     </g>
    </g>
    <g id="xtick_5">
     <g id="line2d_9">
      <path d="M 312.838581 78.7975 
L 312.838581 28.32 
" clip-path="url(#p4b6437d8fb)" style="fill: none; stroke: #b0b0b0; stroke-width: 0.8; stroke-linecap: square"/>
     </g>
     <g id="line2d_10">
      <g>
       <use xlink:href="#m5361090f36" x="312.838581" y="78.7975" style="stroke: #000000; stroke-width: 0.8"/>
      </g>
     </g>
     <g id="text_5">
      <!-- 8 -->
      <g transform="translate(309.657331 93.395937)scale(0.1 -0.1)">
       <defs>
        <path id="DejaVuSans-38" d="M 2034 2216 
Q 1584 2216 1326 1975 
Q 1069 1734 1069 1313 
Q 1069 891 1326 650 
Q 1584 409 2034 409 
Q 2484 409 2743 651 
Q 3003 894 3003 1313 
Q 3003 1734 2745 1975 
Q 2488 2216 2034 2216 
z
M 1403 2484 
Q 997 2584 770 2862 
Q 544 3141 544 3541 
Q 544 4100 942 4425 
Q 1341 4750 2034 4750 
Q 2731 4750 3128 4425 
Q 3525 4100 3525 3541 
Q 3525 3141 3298 2862 
Q 3072 2584 2669 2484 
Q 3125 2378 3379 2068 
Q 3634 1759 3634 1313 
Q 3634 634 3220 271 
Q 2806 -91 2034 -91 
Q 1263 -91 848 271 
Q 434 634 434 1313 
Q 434 1759 690 2068 
Q 947 2378 1403 2484 
z
M 1172 3481 
Q 1172 3119 1398 2916 
Q 1625 2713 2034 2713 
Q 2441 2713 2670 2916 
Q 2900 3119 2900 3481 
Q 2900 3844 2670 4047 
Q 2441 4250 2034 4250 
Q 1625 4250 1398 4047 
Q 1172 3844 1172 3481 
z
" transform="scale(0.015625)"/>
       </defs>
       <use xlink:href="#DejaVuSans-38"/>
      </g>
     </g>
    </g>
    <g id="xtick_6">
     <g id="line2d_11">
      <path d="M 372.068385 78.7975 
L 372.068385 28.32 
" clip-path="url(#p4b6437d8fb)" style="fill: none; stroke: #b0b0b0; stroke-width: 0.8; stroke-linecap: square"/>
     </g>
     <g id="line2d_12">
      <g>
       <use xlink:href="#m5361090f36" x="372.068385" y="78.7975" style="stroke: #000000; stroke-width: 0.8"/>
      </g>
     </g>
     <g id="text_6">
      <!-- 10 -->
      <g transform="translate(365.705885 93.395937)scale(0.1 -0.1)">
       <defs>
        <path id="DejaVuSans-31" d="M 794 531 
L 1825 531 
L 1825 4091 
L 703 3866 
L 703 4441 
L 1819 4666 
L 2450 4666 
L 2450 531 
L 3481 531 
L 3481 0 
L 794 0 
L 794 531 
z
" transform="scale(0.015625)"/>
       </defs>
       <use xlink:href="#DejaVuSans-31"/>
       <use xlink:href="#DejaVuSans-30" x="63.623047"/>
      </g>
     </g>
    </g>
    <g id="xtick_7">
     <g id="line2d_13">
      <path d="M 431.298189 78.7975 
L 431.298189 28.32 
" clip-path="url(#p4b6437d8fb)" style="fill: none; stroke: #b0b0b0; stroke-width: 0.8; stroke-linecap: square"/>
     </g>
     <g id="line2d_14">
      <g>
       <use xlink:href="#m5361090f36" x="431.298189" y="78.7975" style="stroke: #000000; stroke-width: 0.8"/>
      </g>
     </g>
     <g id="text_7">
      <!-- 12 -->
      <g transform="translate(424.935689 93.395937)scale(0.1 -0.1)">
       <use xlink:href="#DejaVuSans-31"/>
       <use xlink:href="#DejaVuSans-32" x="63.623047"/>
      </g>
     </g>
    </g>
    <g id="text_8">
     <!-- $t$ [s] -->
     <g transform="translate(243.953 107.074062)scale(0.1 -0.1)">
      <defs>
       <path id="DejaVuSans-Oblique-74" d="M 2706 3500 
L 2619 3053 
L 1472 3053 
L 1100 1153 
Q 1081 1047 1072 975 
Q 1063 903 1063 863 
Q 1063 663 1183 572 
Q 1303 481 1569 481 
L 2150 481 
L 2053 0 
L 1503 0 
Q 991 0 739 200 
Q 488 400 488 806 
Q 488 878 497 964 
Q 506 1050 525 1153 
L 897 3053 
L 409 3053 
L 500 3500 
L 978 3500 
L 1172 4494 
L 1747 4494 
L 1556 3500 
L 2706 3500 
z
" transform="scale(0.015625)"/>
       <path id="DejaVuSans-20" transform="scale(0.015625)"/>
       <path id="DejaVuSans-5b" d="M 550 4863 
L 1875 4863 
L 1875 4416 
L 1125 4416 
L 1125 -397 
L 1875 -397 
L 1875 -844 
L 550 -844 
L 550 4863 
z
" transform="scale(0.015625)"/>
       <path id="DejaVuSans-73" d="M 2834 3397 
L 2834 2853 
Q 2591 2978 2328 3040 
Q 2066 3103 1784 3103 
Q 1356 3103 1142 2972 
Q 928 2841 928 2578 
Q 928 2378 1081 2264 
Q 1234 2150 1697 2047 
L 1894 2003 
Q 2506 1872 2764 1633 
Q 3022 1394 3022 966 
Q 3022 478 2636 193 
Q 2250 -91 1575 -91 
Q 1294 -91 989 -36 
Q 684 19 347 128 
L 347 722 
Q 666 556 975 473 
Q 1284 391 1588 391 
Q 1994 391 2212 530 
Q 2431 669 2431 922 
Q 2431 1156 2273 1281 
Q 2116 1406 1581 1522 
L 1381 1569 
Q 847 1681 609 1914 
Q 372 2147 372 2553 
Q 372 3047 722 3315 
Q 1072 3584 1716 3584 
Q 2034 3584 2315 3537 
Q 2597 3491 2834 3397 
z
" transform="scale(0.015625)"/>
       <path id="DejaVuSans-5d" d="M 1947 4863 
L 1947 -844 
L 622 -844 
L 622 -397 
L 1369 -397 
L 1369 4416 
L 622 4416 
L 622 4863 
L 1947 4863 
z
" transform="scale(0.015625)"/>
      </defs>
      <use xlink:href="#DejaVuSans-Oblique-74" transform="translate(0 0.015625)"/>
      <use xlink:href="#DejaVuSans-20" transform="translate(39.208984 0.015625)"/>
      <use xlink:href="#DejaVuSans-5b" transform="translate(70.996094 0.015625)"/>
      <use xlink:href="#DejaVuSans-73" transform="translate(110.009766 0.015625)"/>
      <use xlink:href="#DejaVuSans-5d" transform="translate(162.109375 0.015625)"/>
     </g>
    </g>
   </g>
   <g id="matplotlib.axis_2">
    <g id="ytick_1">
     <g id="line2d_15">
      <path d="M 58.106 76.629878 
L 450 76.629878 
" clip-path="url(#p4b6437d8fb)" style="fill: none; stroke: #b0b0b0; stroke-width: 0.8; stroke-linecap: square"/>
     </g>
     <g id="line2d_16">
      <defs>
       <path id="mf353b181f8" d="M 0 0 
L -3.5 0 
" style="stroke: #000000; stroke-width: 0.8"/>
      </defs>
      <g>
       <use xlink:href="#mf353b181f8" x="58.106" y="76.629878" style="stroke: #000000; stroke-width: 0.8"/>
      </g>
     </g>
     <g id="text_9">
      <!-- 0 -->
      <g transform="translate(44.7435 80.429097)scale(0.1 -0.1)">
       <use xlink:href="#DejaVuSans-30"/>
      </g>
     </g>
    </g>
    <g id="ytick_2">
     <g id="line2d_17">
      <path d="M 58.106 30.614432 
L 450 30.614432 
" clip-path="url(#p4b6437d8fb)" style="fill: none; stroke: #b0b0b0; stroke-width: 0.8; stroke-linecap: square"/>
     </g>
     <g id="line2d_18">
      <g>
       <use xlink:href="#mf353b181f8" x="58.106" y="30.614432" style="stroke: #000000; stroke-width: 0.8"/>
      </g>
     </g>
     <g id="text_10">
      <!-- 10 -->
      <g transform="translate(38.381 34.413651)scale(0.1 -0.1)">
       <use xlink:href="#DejaVuSans-31"/>
       <use xlink:href="#DejaVuSans-30" x="63.623047"/>
      </g>
     </g>
    </g>
    <g id="text_11">
     <!-- $e_x$ [m] -->
     <g transform="translate(32.301313 69.20875)rotate(-90)scale(0.1 -0.1)">
      <defs>
       <path id="DejaVuSans-Oblique-65" d="M 3078 2063 
Q 3088 2113 3092 2166 
Q 3097 2219 3097 2272 
Q 3097 2653 2873 2875 
Q 2650 3097 2266 3097 
Q 1838 3097 1509 2826 
Q 1181 2556 1013 2059 
L 3078 2063 
z
M 3578 1613 
L 903 1613 
Q 884 1494 878 1425 
Q 872 1356 872 1306 
Q 872 872 1139 634 
Q 1406 397 1894 397 
Q 2269 397 2603 481 
Q 2938 566 3225 728 
L 3116 159 
Q 2806 34 2476 -28 
Q 2147 -91 1806 -91 
Q 1078 -91 686 257 
Q 294 606 294 1247 
Q 294 1794 489 2264 
Q 684 2734 1063 3103 
Q 1306 3334 1642 3459 
Q 1978 3584 2356 3584 
Q 2950 3584 3301 3228 
Q 3653 2872 3653 2272 
Q 3653 2128 3634 1964 
Q 3616 1800 3578 1613 
z
" transform="scale(0.015625)"/>
       <path id="DejaVuSans-Oblique-78" d="M 3841 3500 
L 2234 1784 
L 3219 0 
L 2559 0 
L 1819 1388 
L 531 0 
L -166 0 
L 1556 1844 
L 641 3500 
L 1300 3500 
L 1972 2234 
L 3144 3500 
L 3841 3500 
z
" transform="scale(0.015625)"/>
       <path id="DejaVuSans-6d" d="M 3328 2828 
Q 3544 3216 3844 3400 
Q 4144 3584 4550 3584 
Q 5097 3584 5394 3201 
Q 5691 2819 5691 2113 
L 5691 0 
L 5113 0 
L 5113 2094 
Q 5113 2597 4934 2840 
Q 4756 3084 4391 3084 
Q 3944 3084 3684 2787 
Q 3425 2491 3425 1978 
L 3425 0 
L 2847 0 
L 2847 2094 
Q 2847 2600 2669 2842 
Q 2491 3084 2119 3084 
Q 1678 3084 1418 2786 
Q 1159 2488 1159 1978 
L 1159 0 
L 581 0 
L 581 3500 
L 1159 3500 
L 1159 2956 
Q 1356 3278 1631 3431 
Q 1906 3584 2284 3584 
Q 2666 3584 2933 3390 
Q 3200 3197 3328 2828 
z
" transform="scale(0.015625)"/>
      </defs>
      <use xlink:href="#DejaVuSans-Oblique-65" transform="translate(0 0.015625)"/>
      <use xlink:href="#DejaVuSans-Oblique-78" transform="translate(61.523438 -16.390625)scale(0.7)"/>
      <use xlink:href="#DejaVuSans-20" transform="translate(105.683594 0.015625)"/>
      <use xlink:href="#DejaVuSans-5b" transform="translate(137.470703 0.015625)"/>
      <use xlink:href="#DejaVuSans-6d" transform="translate(176.484375 0.015625)"/>
      <use xlink:href="#DejaVuSans-5d" transform="translate(273.896484 0.015625)"/>
     </g>
    </g>
   </g>
   <g id="line2d_19">
    <path d="M 75.919364 30.614432 
L 84.218435 30.722741 
L 95.185065 31.203422 
L 98.149019 31.466123 
L 101.409368 31.833079 
L 102.002159 31.94694 
L 106.44809 32.55021 
L 118.600301 34.727607 
L 119.785883 34.998875 
L 121.26786 35.340839 
L 123.639023 35.942805 
L 123.935419 35.942805 
L 124.824605 36.184605 
L 127.788559 36.999504 
L 130.456118 37.679676 
L 133.123676 38.481972 
L 135.791235 39.192595 
L 137.866003 39.855779 
L 138.162398 39.855779 
L 138.755189 40.050223 
L 141.126352 40.649348 
L 142.015538 40.955275 
L 142.904724 41.106299 
L 143.793911 41.37535 
L 144.979492 41.670199 
L 145.275888 41.670199 
L 145.572283 41.844944 
L 146.461469 41.989277 
L 147.350655 42.274704 
L 148.239842 42.416034 
L 149.129028 42.696637 
L 150.018214 42.836124 
L 150.9074 43.113744 
L 152.092982 43.306946 
L 154.76054 43.960654 
L 157.131704 44.469076 
L 158.02089 44.73369 
L 158.910076 44.865054 
L 159.799262 45.125506 
L 160.688448 45.254481 
L 161.87403 45.560449 
L 162.763216 45.736737 
L 165.13438 46.233141 
L 167.209147 46.675491 
L 168.098334 46.848215 
L 170.765892 47.389166 
L 171.655078 47.581515 
L 174.619032 48.140219 
L 175.508219 48.325917 
L 178.175777 48.839232 
L 179.064963 49.022183 
L 182.028917 49.553278 
L 182.918104 49.731404 
L 185.289267 50.190551 
L 186.178453 50.375319 
L 188.846012 50.869042 
L 189.735198 51.044908 
L 192.402756 51.543599 
L 193.291943 51.730974 
L 195.959501 52.241256 
L 196.848687 52.421732 
L 199.812642 52.963458 
L 200.701828 53.148779 
L 203.072991 53.61295 
L 203.962177 53.794715 
L 206.629736 54.282877 
L 207.518922 54.459843 
L 209.890085 54.904618 
L 210.779271 55.081423 
L 214.039621 55.638449 
L 214.928807 55.806648 
L 217.003575 56.168819 
L 217.596366 56.276648 
L 218.485552 56.449087 
L 220.856715 56.890068 
L 223.524274 57.342211 
L 225.895437 57.743236 
L 226.488228 57.848818 
L 227.377414 58.015772 
L 229.748577 58.444677 
L 232.712531 58.988391 
L 233.305322 59.073071 
L 236.269276 59.608462 
L 236.862067 59.689456 
L 239.529625 60.141729 
L 240.418812 60.308106 
L 244.271952 60.926982 
L 245.161138 61.083963 
L 247.532301 61.507553 
L 250.19986 61.964287 
L 251.385441 62.095692 
L 251.978232 62.225026 
L 254.942186 62.676099 
L 255.831372 62.833744 
L 260.277303 63.542737 
L 261.462885 63.719314 
L 263.834048 64.07865 
L 265.316025 64.364628 
L 265.908816 64.442099 
L 270.354747 65.095165 
L 271.243933 65.247548 
L 274.207887 65.686339 
L 276.875446 66.07861 
L 281.617772 66.694354 
L 282.210563 66.809695 
L 285.174517 67.198501 
L 285.767308 67.313777 
L 290.509634 67.898582 
L 291.102425 68.008441 
L 295.251961 68.558551 
L 296.733938 68.754829 
L 300.883473 69.262702 
L 304.440218 69.763117 
L 305.329404 69.864898 
L 309.47894 70.354991 
L 310.960917 70.556566 
L 315.406848 71.089347 
L 315.999639 71.186427 
L 318.963593 71.566153 
L 321.927547 71.923175 
L 326.077083 72.453178 
L 329.337432 72.857547 
L 330.226618 72.963753 
L 336.450922 73.681328 
L 337.932899 73.852049 
L 341.786039 74.323188 
L 342.97162 74.418683 
L 347.121156 74.849487 
L 350.677901 75.205135 
L 352.159878 75.304686 
L 356.902204 75.659788 
L 370.239997 76.224087 
L 391.284071 76.114553 
L 414.106517 75.726442 
L 422.701984 75.966969 
L 427.44431 76.255697 
L 430.704659 76.442421 
L 432.186636 76.503068 
L 432.186636 76.503068 
" clip-path="url(#p4b6437d8fb)" style="fill: none; stroke: #ff0000; stroke-width: 1.5; stroke-linecap: square"/>
   </g>
   <g id="patch_3">
    <path d="M 58.106 78.7975 
L 58.106 28.32 
" style="fill: none; stroke: #000000; stroke-width: 0.8; stroke-linejoin: miter; stroke-linecap: square"/>
   </g>
   <g id="patch_4">
    <path d="M 450 78.7975 
L 450 28.32 
" style="fill: none; stroke: #000000; stroke-width: 0.8; stroke-linejoin: miter; stroke-linecap: square"/>
   </g>
   <g id="patch_5">
    <path d="M 58.106 78.7975 
L 450 78.7975 
" style="fill: none; stroke: #000000; stroke-width: 0.8; stroke-linejoin: miter; stroke-linecap: square"/>
   </g>
   <g id="patch_6">
    <path d="M 58.106 28.32 
L 450 28.32 
" style="fill: none; stroke: #000000; stroke-width: 0.8; stroke-linejoin: miter; stroke-linecap: square"/>
   </g>
   <g id="text_12">
    <!-- Error in $x$-position -->
    <g transform="translate(200.413 22.32)scale(0.12 -0.12)">
     <defs>
      <path id="DejaVuSans-45" d="M 628 4666 
L 3578 4666 
L 3578 4134 
L 1259 4134 
L 1259 2753 
L 3481 2753 
L 3481 2222 
L 1259 2222 
L 1259 531 
L 3634 531 
L 3634 0 
L 628 0 
L 628 4666 
z
" transform="scale(0.015625)"/>
      <path id="DejaVuSans-72" d="M 2631 2963 
Q 2534 3019 2420 3045 
Q 2306 3072 2169 3072 
Q 1681 3072 1420 2755 
Q 1159 2438 1159 1844 
L 1159 0 
L 581 0 
L 581 3500 
L 1159 3500 
L 1159 2956 
Q 1341 3275 1631 3429 
Q 1922 3584 2338 3584 
Q 2397 3584 2469 3576 
Q 2541 3569 2628 3553 
L 2631 2963 
z
" transform="scale(0.015625)"/>
      <path id="DejaVuSans-6f" d="M 1959 3097 
Q 1497 3097 1228 2736 
Q 959 2375 959 1747 
Q 959 1119 1226 758 
Q 1494 397 1959 397 
Q 2419 397 2687 759 
Q 2956 1122 2956 1747 
Q 2956 2369 2687 2733 
Q 2419 3097 1959 3097 
z
M 1959 3584 
Q 2709 3584 3137 3096 
Q 3566 2609 3566 1747 
Q 3566 888 3137 398 
Q 2709 -91 1959 -91 
Q 1206 -91 779 398 
Q 353 888 353 1747 
Q 353 2609 779 3096 
Q 1206 3584 1959 3584 
z
" transform="scale(0.015625)"/>
      <path id="DejaVuSans-69" d="M 603 3500 
L 1178 3500 
L 1178 0 
L 603 0 
L 603 3500 
z
M 603 4863 
L 1178 4863 
L 1178 4134 
L 603 4134 
L 603 4863 
z
" transform="scale(0.015625)"/>
      <path id="DejaVuSans-6e" d="M 3513 2113 
L 3513 0 
L 2938 0 
L 2938 2094 
Q 2938 2591 2744 2837 
Q 2550 3084 2163 3084 
Q 1697 3084 1428 2787 
Q 1159 2491 1159 1978 
L 1159 0 
L 581 0 
L 581 3500 
L 1159 3500 
L 1159 2956 
Q 1366 3272 1645 3428 
Q 1925 3584 2291 3584 
Q 2894 3584 3203 3211 
Q 3513 2838 3513 2113 
z
" transform="scale(0.015625)"/>
      <path id="DejaVuSans-2d" d="M 313 2009 
L 1997 2009 
L 1997 1497 
L 313 1497 
L 313 2009 
z
" transform="scale(0.015625)"/>
      <path id="DejaVuSans-70" d="M 1159 525 
L 1159 -1331 
L 581 -1331 
L 581 3500 
L 1159 3500 
L 1159 2969 
Q 1341 3281 1617 3432 
Q 1894 3584 2278 3584 
Q 2916 3584 3314 3078 
Q 3713 2572 3713 1747 
Q 3713 922 3314 415 
Q 2916 -91 2278 -91 
Q 1894 -91 1617 61 
Q 1341 213 1159 525 
z
M 3116 1747 
Q 3116 2381 2855 2742 
Q 2594 3103 2138 3103 
Q 1681 3103 1420 2742 
Q 1159 2381 1159 1747 
Q 1159 1113 1420 752 
Q 1681 391 2138 391 
Q 2594 391 2855 752 
Q 3116 1113 3116 1747 
z
" transform="scale(0.015625)"/>
      <path id="DejaVuSans-74" d="M 1172 4494 
L 1172 3500 
L 2356 3500 
L 2356 3053 
L 1172 3053 
L 1172 1153 
Q 1172 725 1289 603 
Q 1406 481 1766 481 
L 2356 481 
L 2356 0 
L 1766 0 
Q 1100 0 847 248 
Q 594 497 594 1153 
L 594 3053 
L 172 3053 
L 172 3500 
L 594 3500 
L 594 4494 
L 1172 4494 
z
" transform="scale(0.015625)"/>
     </defs>
     <use xlink:href="#DejaVuSans-45" transform="translate(0 0.015625)"/>
     <use xlink:href="#DejaVuSans-72" transform="translate(63.183594 0.015625)"/>
     <use xlink:href="#DejaVuSans-72" transform="translate(104.296875 0.015625)"/>
     <use xlink:href="#DejaVuSans-6f" transform="translate(145.410156 0.015625)"/>
     <use xlink:href="#DejaVuSans-72" transform="translate(206.591797 0.015625)"/>
     <use xlink:href="#DejaVuSans-20" transform="translate(247.705078 0.015625)"/>
     <use xlink:href="#DejaVuSans-69" transform="translate(279.492188 0.015625)"/>
     <use xlink:href="#DejaVuSans-6e" transform="translate(307.275391 0.015625)"/>
     <use xlink:href="#DejaVuSans-20" transform="translate(370.654297 0.015625)"/>
     <use xlink:href="#DejaVuSans-Oblique-78" transform="translate(402.441406 0.015625)"/>
     <use xlink:href="#DejaVuSans-2d" transform="translate(461.621094 0.015625)"/>
     <use xlink:href="#DejaVuSans-70" transform="translate(497.705078 0.015625)"/>
     <use xlink:href="#DejaVuSans-6f" transform="translate(561.181641 0.015625)"/>
     <use xlink:href="#DejaVuSans-73" transform="translate(622.363281 0.015625)"/>
     <use xlink:href="#DejaVuSans-69" transform="translate(674.462891 0.015625)"/>
     <use xlink:href="#DejaVuSans-74" transform="translate(702.246094 0.015625)"/>
     <use xlink:href="#DejaVuSans-69" transform="translate(741.455078 0.015625)"/>
     <use xlink:href="#DejaVuSans-6f" transform="translate(769.238281 0.015625)"/>
     <use xlink:href="#DejaVuSans-6e" transform="translate(830.419922 0.015625)"/>
    </g>
   </g>
  </g>
  <g id="axes_2">
   <g id="patch_7">
    <path d="M 58.106 190.3975 
L 450 190.3975 
L 450 139.92 
L 58.106 139.92 
z
" style="fill: #ffffff"/>
   </g>
   <g id="matplotlib.axis_3">
    <g id="xtick_8">
     <g id="line2d_20">
      <path d="M 75.919364 190.3975 
L 75.919364 139.92 
" clip-path="url(#pc967edbeef)" style="fill: none; stroke: #b0b0b0; stroke-width: 0.8; stroke-linecap: square"/>
     </g>
     <g id="line2d_21">
      <g>
       <use xlink:href="#m5361090f36" x="75.919364" y="190.3975" style="stroke: #000000; stroke-width: 0.8"/>
      </g>
     </g>
     <g id="text_13">
      <!-- 0 -->
      <g transform="translate(72.738114 204.995937)scale(0.1 -0.1)">
       <use xlink:href="#DejaVuSans-30"/>
      </g>
     </g>
    </g>
    <g id="xtick_9">
     <g id="line2d_22">
      <path d="M 135.149168 190.3975 
L 135.149168 139.92 
" clip-path="url(#pc967edbeef)" style="fill: none; stroke: #b0b0b0; stroke-width: 0.8; stroke-linecap: square"/>
     </g>
     <g id="line2d_23">
      <g>
       <use xlink:href="#m5361090f36" x="135.149168" y="190.3975" style="stroke: #000000; stroke-width: 0.8"/>
      </g>
     </g>
     <g id="text_14">
      <!-- 2 -->
      <g transform="translate(131.967918 204.995937)scale(0.1 -0.1)">
       <use xlink:href="#DejaVuSans-32"/>
      </g>
     </g>
    </g>
    <g id="xtick_10">
     <g id="line2d_24">
      <path d="M 194.378972 190.3975 
L 194.378972 139.92 
" clip-path="url(#pc967edbeef)" style="fill: none; stroke: #b0b0b0; stroke-width: 0.8; stroke-linecap: square"/>
     </g>
     <g id="line2d_25">
      <g>
       <use xlink:href="#m5361090f36" x="194.378972" y="190.3975" style="stroke: #000000; stroke-width: 0.8"/>
      </g>
     </g>
     <g id="text_15">
      <!-- 4 -->
      <g transform="translate(191.197722 204.995937)scale(0.1 -0.1)">
       <use xlink:href="#DejaVuSans-34"/>
      </g>
     </g>
    </g>
    <g id="xtick_11">
     <g id="line2d_26">
      <path d="M 253.608776 190.3975 
L 253.608776 139.92 
" clip-path="url(#pc967edbeef)" style="fill: none; stroke: #b0b0b0; stroke-width: 0.8; stroke-linecap: square"/>
     </g>
     <g id="line2d_27">
      <g>
       <use xlink:href="#m5361090f36" x="253.608776" y="190.3975" style="stroke: #000000; stroke-width: 0.8"/>
      </g>
     </g>
     <g id="text_16">
      <!-- 6 -->
      <g transform="translate(250.427526 204.995937)scale(0.1 -0.1)">
       <use xlink:href="#DejaVuSans-36"/>
      </g>
     </g>
    </g>
    <g id="xtick_12">
     <g id="line2d_28">
      <path d="M 312.838581 190.3975 
L 312.838581 139.92 
" clip-path="url(#pc967edbeef)" style="fill: none; stroke: #b0b0b0; stroke-width: 0.8; stroke-linecap: square"/>
     </g>
     <g id="line2d_29">
      <g>
       <use xlink:href="#m5361090f36" x="312.838581" y="190.3975" style="stroke: #000000; stroke-width: 0.8"/>
      </g>
     </g>
     <g id="text_17">
      <!-- 8 -->
      <g transform="translate(309.657331 204.995937)scale(0.1 -0.1)">
       <use xlink:href="#DejaVuSans-38"/>
      </g>
     </g>
    </g>
    <g id="xtick_13">
     <g id="line2d_30">
      <path d="M 372.068385 190.3975 
L 372.068385 139.92 
" clip-path="url(#pc967edbeef)" style="fill: none; stroke: #b0b0b0; stroke-width: 0.8; stroke-linecap: square"/>
     </g>
     <g id="line2d_31">
      <g>
       <use xlink:href="#m5361090f36" x="372.068385" y="190.3975" style="stroke: #000000; stroke-width: 0.8"/>
      </g>
     </g>
     <g id="text_18">
      <!-- 10 -->
      <g transform="translate(365.705885 204.995937)scale(0.1 -0.1)">
       <use xlink:href="#DejaVuSans-31"/>
       <use xlink:href="#DejaVuSans-30" x="63.623047"/>
      </g>
     </g>
    </g>
    <g id="xtick_14">
     <g id="line2d_32">
      <path d="M 431.298189 190.3975 
L 431.298189 139.92 
" clip-path="url(#pc967edbeef)" style="fill: none; stroke: #b0b0b0; stroke-width: 0.8; stroke-linecap: square"/>
     </g>
     <g id="line2d_33">
      <g>
       <use xlink:href="#m5361090f36" x="431.298189" y="190.3975" style="stroke: #000000; stroke-width: 0.8"/>
      </g>
     </g>
     <g id="text_19">
      <!-- 12 -->
      <g transform="translate(424.935689 204.995937)scale(0.1 -0.1)">
       <use xlink:href="#DejaVuSans-31"/>
       <use xlink:href="#DejaVuSans-32" x="63.623047"/>
      </g>
     </g>
    </g>
    <g id="text_20">
     <!-- $t$ [s] -->
     <g transform="translate(243.953 218.674062)scale(0.1 -0.1)">
      <use xlink:href="#DejaVuSans-Oblique-74" transform="translate(0 0.015625)"/>
      <use xlink:href="#DejaVuSans-20" transform="translate(39.208984 0.015625)"/>
      <use xlink:href="#DejaVuSans-5b" transform="translate(70.996094 0.015625)"/>
      <use xlink:href="#DejaVuSans-73" transform="translate(110.009766 0.015625)"/>
      <use xlink:href="#DejaVuSans-5d" transform="translate(162.109375 0.015625)"/>
     </g>
    </g>
   </g>
   <g id="matplotlib.axis_4">
    <g id="ytick_3">
     <g id="line2d_34">
      <path d="M 58.106 179.821397 
L 450 179.821397 
" clip-path="url(#pc967edbeef)" style="fill: none; stroke: #b0b0b0; stroke-width: 0.8; stroke-linecap: square"/>
     </g>
     <g id="line2d_35">
      <g>
       <use xlink:href="#mf353b181f8" x="58.106" y="179.821397" style="stroke: #000000; stroke-width: 0.8"/>
      </g>
     </g>
     <g id="text_21">
      <!-- −0.1 -->
      <g transform="translate(26.823188 183.620616)scale(0.1 -0.1)">
       <defs>
        <path id="DejaVuSans-2212" d="M 678 2272 
L 4684 2272 
L 4684 1741 
L 678 1741 
L 678 2272 
z
" transform="scale(0.015625)"/>
        <path id="DejaVuSans-2e" d="M 684 794 
L 1344 794 
L 1344 0 
L 684 0 
L 684 794 
z
" transform="scale(0.015625)"/>
       </defs>
       <use xlink:href="#DejaVuSans-2212"/>
       <use xlink:href="#DejaVuSans-30" x="83.789062"/>
       <use xlink:href="#DejaVuSans-2e" x="147.412109"/>
       <use xlink:href="#DejaVuSans-31" x="179.199219"/>
      </g>
     </g>
    </g>
    <g id="ytick_4">
     <g id="line2d_36">
      <path d="M 58.106 164.790337 
L 450 164.790337 
" clip-path="url(#pc967edbeef)" style="fill: none; stroke: #b0b0b0; stroke-width: 0.8; stroke-linecap: square"/>
     </g>
     <g id="line2d_37">
      <g>
       <use xlink:href="#mf353b181f8" x="58.106" y="164.790337" style="stroke: #000000; stroke-width: 0.8"/>
      </g>
     </g>
     <g id="text_22">
      <!-- 0.0 -->
      <g transform="translate(35.202875 168.589556)scale(0.1 -0.1)">
       <use xlink:href="#DejaVuSans-30"/>
       <use xlink:href="#DejaVuSans-2e" x="63.623047"/>
       <use xlink:href="#DejaVuSans-30" x="95.410156"/>
      </g>
     </g>
    </g>
    <g id="ytick_5">
     <g id="line2d_38">
      <path d="M 58.106 149.759277 
L 450 149.759277 
" clip-path="url(#pc967edbeef)" style="fill: none; stroke: #b0b0b0; stroke-width: 0.8; stroke-linecap: square"/>
     </g>
     <g id="line2d_39">
      <g>
       <use xlink:href="#mf353b181f8" x="58.106" y="149.759277" style="stroke: #000000; stroke-width: 0.8"/>
      </g>
     </g>
     <g id="text_23">
      <!-- 0.1 -->
      <g transform="translate(35.202875 153.558496)scale(0.1 -0.1)">
       <use xlink:href="#DejaVuSans-30"/>
       <use xlink:href="#DejaVuSans-2e" x="63.623047"/>
       <use xlink:href="#DejaVuSans-31" x="95.410156"/>
      </g>
     </g>
    </g>
    <g id="text_24">
     <!-- $e_z$ [m] -->
     <g transform="translate(20.7435 180.60875)rotate(-90)scale(0.1 -0.1)">
      <defs>
       <path id="DejaVuSans-Oblique-7a" d="M 744 3500 
L 3475 3500 
L 3372 2975 
L 738 459 
L 2913 459 
L 2822 0 
L -19 0 
L 84 525 
L 2719 3041 
L 653 3041 
L 744 3500 
z
" transform="scale(0.015625)"/>
      </defs>
      <use xlink:href="#DejaVuSans-Oblique-65" transform="translate(0 0.015625)"/>
      <use xlink:href="#DejaVuSans-Oblique-7a" transform="translate(61.523438 -16.390625)scale(0.7)"/>
      <use xlink:href="#DejaVuSans-20" transform="translate(101.000977 0.015625)"/>
      <use xlink:href="#DejaVuSans-5b" transform="translate(132.788086 0.015625)"/>
      <use xlink:href="#DejaVuSans-6d" transform="translate(171.801758 0.015625)"/>
      <use xlink:href="#DejaVuSans-5d" transform="translate(269.213867 0.015625)"/>
     </g>
    </g>
   </g>
   <g id="line2d_40">
    <path d="M 75.919364 166.269738 
L 78.883318 165.8883 
L 79.476108 165.657375 
L 80.66169 165.452075 
L 81.847272 165.555455 
L 82.736458 165.634036 
L 83.329249 165.5554 
L 84.811226 164.952346 
L 85.404016 164.427212 
L 86.589598 163.531461 
L 86.885993 163.144529 
L 88.071575 162.376304 
L 88.664366 161.843148 
L 89.257157 161.406624 
L 89.553552 161.020264 
L 89.849948 160.416198 
L 90.146343 160.416198 
L 90.442738 159.705566 
L 91.035529 158.899732 
L 91.62832 157.392553 
L 91.924715 157.392553 
L 92.221111 156.52548 
L 92.813902 155.510254 
L 93.110297 154.970392 
L 93.406692 154.804934 
L 93.703088 154.497006 
L 93.999483 153.975877 
L 94.295879 153.975877 
L 94.592274 153.436043 
L 96.667042 153.100194 
L 97.259833 153.178068 
L 97.556228 153.351776 
L 97.852623 153.351776 
L 98.445414 153.643824 
L 99.630996 154.079079 
L 99.927391 154.346241 
L 101.409368 154.503679 
L 103.187741 153.813774 
L 103.484136 153.188352 
L 103.780531 153.066551 
L 104.669718 152.25197 
L 105.855299 150.629525 
L 106.744485 149.736704 
L 107.040881 149.353953 
L 108.226462 148.827514 
L 108.522858 148.827514 
L 108.819253 148.668402 
L 109.708439 148.509327 
L 110.004835 148.334775 
L 110.30123 148.334775 
L 110.597626 147.984996 
L 111.190416 147.774753 
L 111.486812 147.624875 
L 112.079603 147.151432 
L 112.968789 146.459281 
L 113.265184 146.459281 
L 113.857975 146.090092 
L 115.932743 145.270963 
L 116.525534 144.848462 
L 116.821929 144.848462 
L 117.41472 144.283528 
L 118.007511 143.630166 
L 118.600301 143.306112 
L 119.193092 142.669228 
L 119.489488 142.470804 
L 120.971465 142.225281 
L 121.564255 142.389936 
L 121.860651 142.538565 
L 122.157046 142.538565 
L 123.639023 143.843001 
L 123.935419 143.843001 
L 124.231814 144.334004 
L 124.824605 144.868837 
L 126.010187 146.439157 
L 127.195768 147.659916 
L 127.492164 148.146794 
L 128.677745 149.087801 
L 128.974141 149.445939 
L 130.752513 150.533562 
L 131.345304 151.105707 
L 132.23449 151.763009 
L 134.605653 154.490021 
L 136.680421 155.953513 
L 139.34798 157.100052 
L 139.644375 157.425749 
L 139.94077 157.425749 
L 140.533561 157.85602 
L 141.126352 158.155464 
L 141.719143 158.669097 
L 142.015538 158.876913 
L 142.608329 159.074884 
L 143.497515 159.57059 
L 144.386701 160.013143 
L 144.683097 160.148836 
L 144.979492 160.439212 
L 145.275888 160.439212 
L 145.572283 160.94015 
L 146.165074 161.226895 
L 146.461469 161.431564 
L 146.757865 161.870847 
L 147.05426 161.870847 
L 147.350655 162.592062 
L 147.647051 162.717869 
L 148.239842 163.232417 
L 148.536237 163.761108 
L 148.832632 163.761108 
L 149.129028 164.571016 
L 149.425423 164.70744 
L 150.018214 165.256826 
L 150.314609 165.815653 
L 150.611005 165.815653 
L 150.9074 166.676899 
L 151.203796 166.823767 
L 152.092982 167.725945 
L 153.278563 169.468318 
L 153.574959 169.795973 
L 153.871354 170.457521 
L 154.16775 170.457521 
L 154.464145 171.453918 
L 154.76054 171.619121 
L 155.353331 172.273971 
L 155.649727 172.91525 
L 155.946122 172.91525 
L 156.242517 173.84351 
L 156.538913 173.993692 
L 157.131704 174.58053 
L 157.428099 175.145824 
L 157.724494 175.145824 
L 158.02089 175.958692 
L 158.317285 176.090561 
L 158.910076 176.609724 
L 159.206471 177.120236 
L 159.502867 177.120236 
L 159.799262 177.869909 
L 160.392053 178.232137 
L 160.688448 178.467302 
L 160.984844 178.920669 
L 161.577635 179.442209 
L 161.87403 179.722362 
L 162.466821 179.973319 
L 162.763216 180.256358 
L 163.948798 180.681197 
L 166.616357 180.759375 
L 167.801938 181.113767 
L 168.394729 181.480688 
L 168.98752 181.827956 
L 170.765892 182.078423 
L 171.951474 181.761424 
L 173.433451 181.480926 
L 174.322637 181.605513 
L 176.101009 182.483006 
L 176.397405 182.70583 
L 178.175777 182.676993 
L 178.768568 182.441124 
L 181.436127 181.787666 
L 182.028917 181.876127 
L 182.918104 182.308481 
L 183.80729 182.830481 
L 184.103685 183.101426 
L 185.289267 183.470218 
L 186.178453 183.469629 
L 187.364035 183.278181 
L 188.253221 183.048099 
L 189.438802 182.901575 
L 190.327989 183.070054 
L 190.624384 183.231257 
L 191.217175 183.687649 
L 192.402756 184.526207 
L 192.699152 184.874505 
L 194.181129 185.530816 
L 194.77392 185.680988 
L 196.255897 185.704376 
L 197.737874 185.765073 
L 201.887409 186.985852 
L 203.072991 186.89469 
L 203.962177 186.677364 
L 206.036945 186.361803 
L 209.59369 186.356502 
L 211.668458 185.848129 
L 212.557644 185.835266 
L 213.743225 186.044672 
L 214.928807 186.400948 
L 216.114389 186.51501 
L 217.003575 186.444519 
L 217.29997 186.318794 
L 217.596366 186.318794 
L 218.189156 186.150827 
L 219.374738 186.04699 
L 220.56032 186.245627 
L 221.449506 186.631007 
L 222.338692 186.801223 
L 222.931483 186.917133 
L 223.820669 186.975122 
L 224.709855 186.898661 
L 225.599041 186.73714 
L 226.488228 186.686769 
L 228.2666 187.13152 
L 228.859391 187.345836 
L 230.044972 187.476947 
L 233.601717 187.294598 
L 235.972881 188.073169 
L 236.862067 188.078986 
L 237.751253 187.896484 
L 238.047648 187.758385 
L 238.344044 187.758385 
L 238.936835 187.559826 
L 240.122416 187.39956 
L 241.011602 187.509684 
L 242.197184 187.809197 
L 242.493579 187.809197 
L 243.08637 187.93821 
L 243.975556 187.905567 
L 244.864743 187.580623 
L 246.050324 187.071485 
L 246.643115 186.702831 
L 248.421487 185.998445 
L 249.310674 185.99739 
L 251.385441 186.121748 
L 253.163814 185.627318 
L 253.756605 185.300515 
L 257.313349 184.22933 
L 261.16649 183.988314 
L 262.055676 183.6885 
L 262.648467 183.373304 
L 266.501607 182.151194 
L 267.390793 182.138557 
L 269.761956 182.494568 
L 270.651142 182.401447 
L 270.947538 182.401447 
L 271.836724 182.073718 
L 272.72591 181.750031 
L 273.022306 181.412541 
L 273.615097 181.239047 
L 274.207887 180.90879 
L 274.800678 180.673452 
L 276.282655 180.640572 
L 276.579051 180.809682 
L 277.468237 181.001388 
L 278.061028 181.239863 
L 278.950214 181.425585 
L 279.8394 181.384868 
L 281.024982 181.005264 
L 281.321377 180.782156 
L 281.617772 180.782156 
L 281.914168 180.459227 
L 282.803354 180.222879 
L 283.099749 180.063896 
L 283.396145 180.063896 
L 283.69254 179.91286 
L 285.174517 179.957965 
L 285.470913 180.123737 
L 286.360099 180.274203 
L 287.249285 180.504085 
L 288.731262 180.443628 
L 289.027657 180.230961 
L 289.916844 179.984564 
L 290.213239 179.791845 
L 290.509634 179.791845 
L 290.80603 179.562343 
L 294.066379 179.293164 
L 295.844752 179.407259 
L 297.030333 179.437876 
L 298.808706 179.265248 
L 299.401496 179.182597 
L 300.587078 179.095236 
L 303.847427 179.049819 
L 307.107777 178.995819 
L 308.886149 178.98073 
L 311.257313 179.106587 
L 313.628476 179.268754 
L 316.59243 179.186578 
L 318.370802 179.375153 
L 319.556384 179.564582 
L 324.891501 180.014229 
L 327.262664 180.138565 
L 334.672549 181.249324 
L 336.747317 181.357061 
L 338.822085 181.520522 
L 340.304062 181.801995 
L 341.489643 182.087373 
L 341.786039 182.317663 
L 342.082434 182.317663 
L 342.675225 182.597846 
L 344.157202 182.903631 
L 345.046388 182.837211 
L 347.121156 182.168836 
L 348.010342 182.093441 
L 348.603133 182.158244 
L 350.381506 183.025799 
L 350.677901 183.41032 
L 350.974296 183.41032 
L 351.270692 183.67058 
L 352.159878 183.921395 
L 352.752669 183.951809 
L 353.641855 183.758839 
L 354.531041 183.360526 
L 355.123832 182.987575 
L 357.1986 182.287103 
L 358.384181 181.990403 
L 359.273368 181.693126 
L 359.569763 181.407636 
L 359.866158 181.407636 
L 360.162554 180.849033 
L 360.755345 180.525251 
L 361.644531 179.769912 
L 361.940926 179.390641 
L 363.126508 178.822751 
L 363.719299 178.593217 
L 366.090462 178.30817 
L 366.386857 178.202771 
L 366.683253 177.9211 
L 366.979648 177.9211 
L 367.276043 177.345266 
L 367.868834 177.015681 
L 368.16523 176.795148 
L 368.461625 176.386129 
L 369.943602 175.583427 
L 370.239997 175.420618 
L 370.536393 175.420618 
L 370.832788 175.2782 
L 371.721974 175.188169 
L 373.203951 174.585434 
L 373.796742 174.234741 
L 374.685928 173.389747 
L 375.575115 173.046177 
L 376.167905 172.972508 
L 377.057092 173.181386 
L 378.242673 173.760184 
L 379.131859 173.867049 
L 380.317441 173.46384 
L 380.613836 173.298945 
L 380.910232 172.775755 
L 381.206627 172.775755 
L 381.503023 172.294906 
L 383.281395 170.896504 
L 384.170581 170.714391 
L 384.763372 170.777749 
L 385.652558 171.113646 
L 386.83814 171.325769 
L 387.727326 171.124366 
L 388.320117 170.764815 
L 388.912908 170.134627 
L 390.098489 169.047411 
L 390.394885 168.62326 
L 391.284071 168.168196 
L 392.173257 167.976848 
L 393.062443 168.068764 
L 394.248025 168.301301 
L 394.840816 168.260147 
L 395.137211 168.163631 
L 398.101165 165.992518 
L 398.990351 165.825225 
L 399.879538 166.035947 
L 400.472328 166.337413 
L 401.065119 166.661168 
L 401.954305 166.806236 
L 402.547096 166.747472 
L 403.732678 166.09046 
L 404.029073 165.536837 
L 404.325469 165.536837 
L 404.621864 165.116696 
L 405.807446 164.432932 
L 407.289423 164.496122 
L 408.178609 165.073781 
L 409.956981 165.312119 
L 410.846167 165.003117 
L 411.438958 164.47262 
L 412.031749 164.011603 
L 412.328144 163.682228 
L 413.513726 163.163438 
L 414.699308 162.951733 
L 415.588494 163.069567 
L 416.181285 163.275711 
L 417.366866 163.417572 
L 417.959657 163.261076 
L 418.848843 162.873337 
L 419.145239 162.694015 
L 419.441634 162.178971 
L 419.738029 162.178971 
L 420.034425 161.78203 
L 421.516402 161.034274 
L 422.109193 160.814499 
L 422.998379 160.804677 
L 425.369542 161.387273 
L 426.258728 161.362066 
L 428.333496 160.867285 
L 428.926287 160.868192 
L 429.815473 161.057918 
L 431.001055 161.867805 
L 431.593846 162.092616 
L 431.890241 162.370167 
L 432.186636 162.492727 
L 432.186636 162.492727 
" clip-path="url(#pc967edbeef)" style="fill: none; stroke: #0000ff; stroke-width: 1.5; stroke-linecap: square"/>
   </g>
   <g id="patch_8">
    <path d="M 58.106 190.3975 
L 58.106 139.92 
" style="fill: none; stroke: #000000; stroke-width: 0.8; stroke-linejoin: miter; stroke-linecap: square"/>
   </g>
   <g id="patch_9">
    <path d="M 450 190.3975 
L 450 139.92 
" style="fill: none; stroke: #000000; stroke-width: 0.8; stroke-linejoin: miter; stroke-linecap: square"/>
   </g>
   <g id="patch_10">
    <path d="M 58.106 190.3975 
L 450 190.3975 
" style="fill: none; stroke: #000000; stroke-width: 0.8; stroke-linejoin: miter; stroke-linecap: square"/>
   </g>
   <g id="patch_11">
    <path d="M 58.106 139.92 
L 450 139.92 
" style="fill: none; stroke: #000000; stroke-width: 0.8; stroke-linejoin: miter; stroke-linecap: square"/>
   </g>
   <g id="text_25">
    <!-- Error in $z$-position -->
    <g transform="translate(200.773 133.92)scale(0.12 -0.12)">
     <use xlink:href="#DejaVuSans-45" transform="translate(0 0.015625)"/>
     <use xlink:href="#DejaVuSans-72" transform="translate(63.183594 0.015625)"/>
     <use xlink:href="#DejaVuSans-72" transform="translate(104.296875 0.015625)"/>
     <use xlink:href="#DejaVuSans-6f" transform="translate(145.410156 0.015625)"/>
     <use xlink:href="#DejaVuSans-72" transform="translate(206.591797 0.015625)"/>
     <use xlink:href="#DejaVuSans-20" transform="translate(247.705078 0.015625)"/>
     <use xlink:href="#DejaVuSans-69" transform="translate(279.492188 0.015625)"/>
     <use xlink:href="#DejaVuSans-6e" transform="translate(307.275391 0.015625)"/>
     <use xlink:href="#DejaVuSans-20" transform="translate(370.654297 0.015625)"/>
     <use xlink:href="#DejaVuSans-Oblique-7a" transform="translate(402.441406 0.015625)"/>
     <use xlink:href="#DejaVuSans-2d" transform="translate(454.931641 0.015625)"/>
     <use xlink:href="#DejaVuSans-70" transform="translate(491.015625 0.015625)"/>
     <use xlink:href="#DejaVuSans-6f" transform="translate(554.492188 0.015625)"/>
     <use xlink:href="#DejaVuSans-73" transform="translate(615.673828 0.015625)"/>
     <use xlink:href="#DejaVuSans-69" transform="translate(667.773438 0.015625)"/>
     <use xlink:href="#DejaVuSans-74" transform="translate(695.556641 0.015625)"/>
     <use xlink:href="#DejaVuSans-69" transform="translate(734.765625 0.015625)"/>
     <use xlink:href="#DejaVuSans-6f" transform="translate(762.548828 0.015625)"/>
     <use xlink:href="#DejaVuSans-6e" transform="translate(823.730469 0.015625)"/>
    </g>
   </g>
  </g>
  <g id="axes_3">
   <g id="patch_12">
    <path d="M 58.106 301.9975 
L 450 301.9975 
L 450 251.52 
L 58.106 251.52 
z
" style="fill: #ffffff"/>
   </g>
   <g id="matplotlib.axis_5">
    <g id="xtick_15">
     <g id="line2d_41">
      <path d="M 75.919364 301.9975 
L 75.919364 251.52 
" clip-path="url(#p61931ceb82)" style="fill: none; stroke: #b0b0b0; stroke-width: 0.8; stroke-linecap: square"/>
     </g>
     <g id="line2d_42">
      <g>
       <use xlink:href="#m5361090f36" x="75.919364" y="301.9975" style="stroke: #000000; stroke-width: 0.8"/>
      </g>
     </g>
     <g id="text_26">
      <!-- 0 -->
      <g transform="translate(72.738114 316.595937)scale(0.1 -0.1)">
       <use xlink:href="#DejaVuSans-30"/>
      </g>
     </g>
    </g>
    <g id="xtick_16">
     <g id="line2d_43">
      <path d="M 135.149168 301.9975 
L 135.149168 251.52 
" clip-path="url(#p61931ceb82)" style="fill: none; stroke: #b0b0b0; stroke-width: 0.8; stroke-linecap: square"/>
     </g>
     <g id="line2d_44">
      <g>
       <use xlink:href="#m5361090f36" x="135.149168" y="301.9975" style="stroke: #000000; stroke-width: 0.8"/>
      </g>
     </g>
     <g id="text_27">
      <!-- 2 -->
      <g transform="translate(131.967918 316.595937)scale(0.1 -0.1)">
       <use xlink:href="#DejaVuSans-32"/>
      </g>
     </g>
    </g>
    <g id="xtick_17">
     <g id="line2d_45">
      <path d="M 194.378972 301.9975 
L 194.378972 251.52 
" clip-path="url(#p61931ceb82)" style="fill: none; stroke: #b0b0b0; stroke-width: 0.8; stroke-linecap: square"/>
     </g>
     <g id="line2d_46">
      <g>
       <use xlink:href="#m5361090f36" x="194.378972" y="301.9975" style="stroke: #000000; stroke-width: 0.8"/>
      </g>
     </g>
     <g id="text_28">
      <!-- 4 -->
      <g transform="translate(191.197722 316.595937)scale(0.1 -0.1)">
       <use xlink:href="#DejaVuSans-34"/>
      </g>
     </g>
    </g>
    <g id="xtick_18">
     <g id="line2d_47">
      <path d="M 253.608776 301.9975 
L 253.608776 251.52 
" clip-path="url(#p61931ceb82)" style="fill: none; stroke: #b0b0b0; stroke-width: 0.8; stroke-linecap: square"/>
     </g>
     <g id="line2d_48">
      <g>
       <use xlink:href="#m5361090f36" x="253.608776" y="301.9975" style="stroke: #000000; stroke-width: 0.8"/>
      </g>
     </g>
     <g id="text_29">
      <!-- 6 -->
      <g transform="translate(250.427526 316.595937)scale(0.1 -0.1)">
       <use xlink:href="#DejaVuSans-36"/>
      </g>
     </g>
    </g>
    <g id="xtick_19">
     <g id="line2d_49">
      <path d="M 312.838581 301.9975 
L 312.838581 251.52 
" clip-path="url(#p61931ceb82)" style="fill: none; stroke: #b0b0b0; stroke-width: 0.8; stroke-linecap: square"/>
     </g>
     <g id="line2d_50">
      <g>
       <use xlink:href="#m5361090f36" x="312.838581" y="301.9975" style="stroke: #000000; stroke-width: 0.8"/>
      </g>
     </g>
     <g id="text_30">
      <!-- 8 -->
      <g transform="translate(309.657331 316.595937)scale(0.1 -0.1)">
       <use xlink:href="#DejaVuSans-38"/>
      </g>
     </g>
    </g>
    <g id="xtick_20">
     <g id="line2d_51">
      <path d="M 372.068385 301.9975 
L 372.068385 251.52 
" clip-path="url(#p61931ceb82)" style="fill: none; stroke: #b0b0b0; stroke-width: 0.8; stroke-linecap: square"/>
     </g>
     <g id="line2d_52">
      <g>
       <use xlink:href="#m5361090f36" x="372.068385" y="301.9975" style="stroke: #000000; stroke-width: 0.8"/>
      </g>
     </g>
     <g id="text_31">
      <!-- 10 -->
      <g transform="translate(365.705885 316.595937)scale(0.1 -0.1)">
       <use xlink:href="#DejaVuSans-31"/>
       <use xlink:href="#DejaVuSans-30" x="63.623047"/>
      </g>
     </g>
    </g>
    <g id="xtick_21">
     <g id="line2d_53">
      <path d="M 431.298189 301.9975 
L 431.298189 251.52 
" clip-path="url(#p61931ceb82)" style="fill: none; stroke: #b0b0b0; stroke-width: 0.8; stroke-linecap: square"/>
     </g>
     <g id="line2d_54">
      <g>
       <use xlink:href="#m5361090f36" x="431.298189" y="301.9975" style="stroke: #000000; stroke-width: 0.8"/>
      </g>
     </g>
     <g id="text_32">
      <!-- 12 -->
      <g transform="translate(424.935689 316.595937)scale(0.1 -0.1)">
       <use xlink:href="#DejaVuSans-31"/>
       <use xlink:href="#DejaVuSans-32" x="63.623047"/>
      </g>
     </g>
    </g>
    <g id="text_33">
     <!-- $t$ [s] -->
     <g transform="translate(243.953 330.274063)scale(0.1 -0.1)">
      <use xlink:href="#DejaVuSans-Oblique-74" transform="translate(0 0.015625)"/>
      <use xlink:href="#DejaVuSans-20" transform="translate(39.208984 0.015625)"/>
      <use xlink:href="#DejaVuSans-5b" transform="translate(70.996094 0.015625)"/>
      <use xlink:href="#DejaVuSans-73" transform="translate(110.009766 0.015625)"/>
      <use xlink:href="#DejaVuSans-5d" transform="translate(162.109375 0.015625)"/>
     </g>
    </g>
   </g>
   <g id="matplotlib.axis_6">
    <g id="ytick_6">
     <g id="line2d_55">
      <path d="M 58.106 290.068103 
L 450 290.068103 
" clip-path="url(#p61931ceb82)" style="fill: none; stroke: #b0b0b0; stroke-width: 0.8; stroke-linecap: square"/>
     </g>
     <g id="line2d_56">
      <g>
       <use xlink:href="#mf353b181f8" x="58.106" y="290.068103" style="stroke: #000000; stroke-width: 0.8"/>
      </g>
     </g>
     <g id="text_34">
      <!-- −0.1 -->
      <g transform="translate(26.823188 293.867322)scale(0.1 -0.1)">
       <use xlink:href="#DejaVuSans-2212"/>
       <use xlink:href="#DejaVuSans-30" x="83.789062"/>
       <use xlink:href="#DejaVuSans-2e" x="147.412109"/>
       <use xlink:href="#DejaVuSans-31" x="179.199219"/>
      </g>
     </g>
    </g>
    <g id="ytick_7">
     <g id="line2d_57">
      <path d="M 58.106 275.148011 
L 450 275.148011 
" clip-path="url(#p61931ceb82)" style="fill: none; stroke: #b0b0b0; stroke-width: 0.8; stroke-linecap: square"/>
     </g>
     <g id="line2d_58">
      <g>
       <use xlink:href="#mf353b181f8" x="58.106" y="275.148011" style="stroke: #000000; stroke-width: 0.8"/>
      </g>
     </g>
     <g id="text_35">
      <!-- 0.0 -->
      <g transform="translate(35.202875 278.94723)scale(0.1 -0.1)">
       <use xlink:href="#DejaVuSans-30"/>
       <use xlink:href="#DejaVuSans-2e" x="63.623047"/>
       <use xlink:href="#DejaVuSans-30" x="95.410156"/>
      </g>
     </g>
    </g>
    <g id="ytick_8">
     <g id="line2d_59">
      <path d="M 58.106 260.227918 
L 450 260.227918 
" clip-path="url(#p61931ceb82)" style="fill: none; stroke: #b0b0b0; stroke-width: 0.8; stroke-linecap: square"/>
     </g>
     <g id="line2d_60">
      <g>
       <use xlink:href="#mf353b181f8" x="58.106" y="260.227918" style="stroke: #000000; stroke-width: 0.8"/>
      </g>
     </g>
     <g id="text_36">
      <!-- 0.1 -->
      <g transform="translate(35.202875 264.027137)scale(0.1 -0.1)">
       <use xlink:href="#DejaVuSans-30"/>
       <use xlink:href="#DejaVuSans-2e" x="63.623047"/>
       <use xlink:href="#DejaVuSans-31" x="95.410156"/>
      </g>
     </g>
    </g>
    <g id="text_37">
     <!-- $e_\theta$ [rad] -->
     <g transform="translate(20.7435 295.90875)rotate(-90)scale(0.1 -0.1)">
      <defs>
       <path id="DejaVuSans-Oblique-3b8" d="M 2913 2219 
L 925 2219 
Q 791 1284 928 888 
Q 1100 400 1566 400 
Q 2034 400 2391 891 
Q 2703 1322 2913 2219 
z
M 3009 2750 
Q 3094 3638 2984 3950 
Q 2813 4444 2353 4444 
Q 1875 4444 1525 3956 
Q 1250 3563 1034 2750 
L 3009 2750 
z
M 2444 4913 
Q 3194 4913 3494 4250 
Q 3794 3591 3566 2422 
Q 3341 1256 2781 594 
Q 2225 -72 1475 -72 
Q 722 -72 425 594 
Q 128 1256 353 2422 
Q 581 3591 1134 4250 
Q 1691 4913 2444 4913 
z
" transform="scale(0.015625)"/>
       <path id="DejaVuSans-61" d="M 2194 1759 
Q 1497 1759 1228 1600 
Q 959 1441 959 1056 
Q 959 750 1161 570 
Q 1363 391 1709 391 
Q 2188 391 2477 730 
Q 2766 1069 2766 1631 
L 2766 1759 
L 2194 1759 
z
M 3341 1997 
L 3341 0 
L 2766 0 
L 2766 531 
Q 2569 213 2275 61 
Q 1981 -91 1556 -91 
Q 1019 -91 701 211 
Q 384 513 384 1019 
Q 384 1609 779 1909 
Q 1175 2209 1959 2209 
L 2766 2209 
L 2766 2266 
Q 2766 2663 2505 2880 
Q 2244 3097 1772 3097 
Q 1472 3097 1187 3025 
Q 903 2953 641 2809 
L 641 3341 
Q 956 3463 1253 3523 
Q 1550 3584 1831 3584 
Q 2591 3584 2966 3190 
Q 3341 2797 3341 1997 
z
" transform="scale(0.015625)"/>
       <path id="DejaVuSans-64" d="M 2906 2969 
L 2906 4863 
L 3481 4863 
L 3481 0 
L 2906 0 
L 2906 525 
Q 2725 213 2448 61 
Q 2172 -91 1784 -91 
Q 1150 -91 751 415 
Q 353 922 353 1747 
Q 353 2572 751 3078 
Q 1150 3584 1784 3584 
Q 2172 3584 2448 3432 
Q 2725 3281 2906 2969 
z
M 947 1747 
Q 947 1113 1208 752 
Q 1469 391 1925 391 
Q 2381 391 2643 752 
Q 2906 1113 2906 1747 
Q 2906 2381 2643 2742 
Q 2381 3103 1925 3103 
Q 1469 3103 1208 2742 
Q 947 2381 947 1747 
z
" transform="scale(0.015625)"/>
      </defs>
      <use xlink:href="#DejaVuSans-Oblique-65" transform="translate(0 0.015625)"/>
      <use xlink:href="#DejaVuSans-Oblique-3b8" transform="translate(61.523438 -16.390625)scale(0.7)"/>
      <use xlink:href="#DejaVuSans-20" transform="translate(107.084961 0.015625)"/>
      <use xlink:href="#DejaVuSans-5b" transform="translate(138.87207 0.015625)"/>
      <use xlink:href="#DejaVuSans-72" transform="translate(177.885742 0.015625)"/>
      <use xlink:href="#DejaVuSans-61" transform="translate(218.999023 0.015625)"/>
      <use xlink:href="#DejaVuSans-64" transform="translate(280.27832 0.015625)"/>
      <use xlink:href="#DejaVuSans-5d" transform="translate(343.754883 0.015625)"/>
     </g>
    </g>
   </g>
   <g id="line2d_61">
    <path d="M 75.919364 275.147946 
L 76.215759 274.752759 
L 76.80855 274.755839 
L 77.104945 274.87903 
L 77.401341 275.392692 
L 77.697736 275.577154 
L 77.994131 275.402231 
L 78.290527 274.523252 
L 78.586922 274.063757 
L 78.883318 272.913023 
L 79.179713 269.91226 
L 79.772504 266.441307 
L 80.365295 260.540244 
L 80.66169 260.540244 
L 80.958085 257.828196 
L 81.550876 255.849799 
L 81.847272 255.009249 
L 82.440062 255.048968 
L 83.329249 259.109859 
L 83.625644 261.246596 
L 83.922039 262.004201 
L 84.51483 265.183909 
L 84.811226 267.722492 
L 85.107621 271.309417 
L 86.293203 279.019955 
L 87.182389 287.401238 
L 88.367971 293.431903 
L 88.960761 294.381292 
L 89.553552 294.856339 
L 90.146343 294.772118 
L 91.035529 293.434887 
L 91.331925 292.148867 
L 91.62832 289.414311 
L 91.924715 289.414311 
L 92.221111 285.653032 
L 92.517506 283.507433 
L 93.110297 276.815554 
L 93.406692 275.711841 
L 93.703088 273.559446 
L 93.999483 269.499576 
L 94.295879 269.499576 
L 94.592274 264.157878 
L 94.888669 263.369831 
L 95.777856 258.376973 
L 96.074251 258.376973 
L 96.370646 257.659906 
L 96.963437 257.54455 
L 97.259833 257.645002 
L 97.556228 258.323319 
L 97.852623 258.323319 
L 98.445414 259.886279 
L 99.038205 261.344668 
L 99.3346 263.122089 
L 99.630996 263.122089 
L 99.927391 266.441539 
L 100.223787 267.069273 
L 100.816577 269.779525 
L 101.112973 272.682145 
L 101.409368 272.682145 
L 101.705764 277.235707 
L 102.002159 278.011361 
L 102.59495 281.1227 
L 102.891345 284.179786 
L 103.187741 284.179786 
L 103.484136 288.364418 
L 103.780531 288.997041 
L 104.373322 291.197472 
L 104.966113 292.657414 
L 105.262508 292.402712 
L 105.558904 291.78132 
L 106.151695 289.738664 
L 106.44809 288.407839 
L 106.744485 286.19408 
L 107.040881 283.032671 
L 107.930067 278.233457 
L 108.226462 275.166829 
L 108.522858 275.166829 
L 108.819253 271.402762 
L 109.115649 270.947715 
L 109.412044 270.248453 
L 109.708439 269.837207 
L 110.30123 269.832982 
L 110.597626 271.727381 
L 110.894021 272.230698 
L 111.486812 274.55876 
L 111.783207 277.108061 
L 112.375998 280.004518 
L 112.968789 282.438282 
L 113.265184 282.438282 
L 113.56158 283.039303 
L 113.857975 283.00944 
L 114.15437 282.755334 
L 114.450766 281.968206 
L 114.747161 280.271171 
L 115.043557 280.271171 
L 115.339952 278.046674 
L 115.636347 276.824221 
L 116.525534 271.286502 
L 116.821929 271.286502 
L 117.118324 269.181495 
L 117.711115 266.979017 
L 118.007511 265.808757 
L 118.303906 265.427311 
L 118.600301 264.658084 
L 119.489488 260.337785 
L 119.785883 259.880097 
L 120.378674 258.114271 
L 120.675069 256.650067 
L 121.26786 255.595169 
L 121.564255 255.472604 
L 121.860651 255.719609 
L 122.157046 255.719609 
L 123.639023 259.705725 
L 123.935419 259.705725 
L 124.231814 260.720845 
L 125.121 262.262812 
L 125.417396 263.042023 
L 127.195768 265.283023 
L 127.492164 265.870275 
L 128.677745 267.160683 
L 128.974141 267.602778 
L 129.863327 267.94848 
L 130.752513 268.175903 
L 132.23449 269.875228 
L 132.530885 270.663835 
L 132.827281 271.930718 
L 133.716467 274.180688 
L 134.605653 277.817706 
L 136.384026 282.406521 
L 137.273212 283.334975 
L 137.866003 283.715996 
L 138.458793 283.634644 
L 139.34798 283.227144 
L 139.644375 282.508358 
L 139.94077 282.508358 
L 140.533561 281.069289 
L 141.126352 279.748198 
L 142.015538 275.703342 
L 142.311934 275.259351 
L 142.904724 273.47728 
L 143.20112 271.863687 
L 143.793911 270.233762 
L 144.090306 269.381923 
L 144.386701 269.112327 
L 144.683097 268.598569 
L 144.979492 267.670144 
L 145.275888 267.670144 
L 145.572283 266.316435 
L 145.868678 266.065583 
L 146.461469 264.953835 
L 146.757865 263.706788 
L 147.05426 263.706788 
L 147.350655 261.643273 
L 147.647051 261.274342 
L 148.239842 259.75626 
L 148.536237 258.324885 
L 148.832632 258.324885 
L 149.129028 256.512575 
L 149.425423 256.238616 
L 150.314609 254.489569 
L 150.611005 254.489569 
L 150.9074 253.950569 
L 152.092982 253.816911 
L 154.76054 254.271253 
L 155.353331 254.303513 
L 155.946122 254.415532 
L 156.242517 254.887038 
L 156.538913 255.011196 
L 157.131704 255.639983 
L 157.428099 256.455153 
L 157.724494 256.455153 
L 158.02089 257.942543 
L 158.317285 258.214192 
L 158.910076 259.338029 
L 159.206471 260.456335 
L 159.502867 260.456335 
L 159.799262 262.062263 
L 160.095658 262.327712 
L 160.688448 263.377906 
L 160.984844 264.320076 
L 161.577635 265.285622 
L 161.87403 265.799198 
L 162.170426 265.964312 
L 162.466821 266.281675 
L 162.763216 266.861502 
L 163.356007 267.515601 
L 163.948798 268.246158 
L 164.245193 268.246158 
L 164.541589 268.660265 
L 165.13438 268.931323 
L 166.023566 268.841716 
L 166.616357 268.657456 
L 166.912752 268.685803 
L 167.801938 269.230791 
L 168.691124 271.728374 
L 168.98752 273.093368 
L 169.283915 273.604993 
L 169.580311 274.70658 
L 169.876706 277.138862 
L 170.469497 279.68947 
L 171.062288 283.753206 
L 171.358683 283.753206 
L 171.655078 285.178741 
L 171.951474 285.503009 
L 172.247869 285.544042 
L 172.544265 285.060999 
L 172.84066 283.482872 
L 173.137055 283.482872 
L 173.433451 281.226498 
L 174.619032 275.918187 
L 174.915428 274.313389 
L 175.508219 273.452835 
L 175.804614 273.334859 
L 176.101009 273.447449 
L 176.397405 274.725941 
L 176.6938 274.725941 
L 176.990196 276.625561 
L 177.879382 280.277574 
L 178.472173 284.02521 
L 178.768568 284.624891 
L 179.064963 284.913237 
L 179.361359 284.871857 
L 179.657754 284.502299 
L 179.95415 283.810407 
L 180.250545 282.206775 
L 180.54694 279.27205 
L 181.732522 272.155596 
L 182.621708 265.070653 
L 183.214499 262.971361 
L 183.80729 261.809194 
L 184.400081 262.908989 
L 184.992871 264.898093 
L 185.289267 266.789997 
L 185.585662 269.549345 
L 186.474848 273.392411 
L 187.067639 275.119173 
L 187.364035 275.622676 
L 187.956825 274.348996 
L 188.549616 272.073082 
L 188.846012 269.871009 
L 189.142407 266.568915 
L 190.624384 257.776988 
L 190.920779 255.633418 
L 191.217175 254.944247 
L 191.51357 254.555387 
L 191.809966 254.47165 
L 192.106361 254.703525 
L 192.402756 255.620569 
L 192.995547 259.111063 
L 193.884733 263.718849 
L 194.77392 269.96763 
L 195.36671 271.698803 
L 195.663106 272.187118 
L 195.959501 272.347984 
L 196.848687 269.689094 
L 197.441478 267.331677 
L 198.330664 261.925648 
L 198.923455 260.171224 
L 199.516246 259.173549 
L 199.812642 259.099732 
L 200.701828 261.773632 
L 201.294619 264.302349 
L 202.4802 272.251375 
L 203.072991 275.123186 
L 203.369386 276.527361 
L 203.665782 276.835668 
L 203.962177 276.904295 
L 204.258573 276.767088 
L 204.554968 276.234705 
L 204.851363 275.047365 
L 205.147759 275.047365 
L 205.444154 273.544031 
L 206.926131 269.46064 
L 207.518922 269.021463 
L 208.111713 269.023706 
L 208.408108 269.329575 
L 209.000899 270.735224 
L 209.59369 272.141745 
L 210.779271 276.52561 
L 211.668458 278.34192 
L 211.964853 278.756789 
L 212.261248 278.663867 
L 212.557644 278.343537 
L 213.150435 277.220123 
L 213.743225 275.549128 
L 214.039621 274.026648 
L 214.336016 271.770875 
L 215.817993 265.454156 
L 216.114389 265.192292 
L 216.410784 265.209868 
L 216.707179 265.499513 
L 217.003575 266.039987 
L 217.29997 268.283344 
L 217.596366 268.283344 
L 217.892761 270.641461 
L 219.374738 276.346554 
L 219.671133 277.089023 
L 219.967529 277.095006 
L 220.263924 276.858845 
L 220.56032 276.382469 
L 222.338692 267.099894 
L 222.635087 263.593963 
L 222.931483 263.593963 
L 223.227878 261.693377 
L 223.524274 261.130823 
L 223.820669 260.849418 
L 224.117064 260.87688 
L 224.41346 262.287578 
L 224.709855 262.287578 
L 225.006251 264.484256 
L 225.895437 268.476534 
L 226.191832 271.369505 
L 226.488228 271.369505 
L 226.784623 272.979295 
L 227.081018 273.469227 
L 227.377414 273.733246 
L 227.673809 273.734911 
L 227.970205 273.451734 
L 228.2666 272.512029 
L 228.562995 270.468728 
L 229.452182 266.415298 
L 230.044972 261.776955 
L 230.341368 260.443615 
L 231.230554 259.675164 
L 231.823345 261.446486 
L 232.416136 265.293289 
L 232.712531 267.545448 
L 233.008926 267.545448 
L 233.601717 272.46054 
L 233.898113 274.012082 
L 234.194508 274.400329 
L 234.490903 274.974493 
L 234.787299 275.273681 
L 235.083694 275.052257 
L 235.38009 274.564087 
L 235.972881 271.950607 
L 236.269276 270.223549 
L 236.565671 270.223549 
L 236.862067 267.801785 
L 237.751253 264.384366 
L 238.047648 263.742591 
L 238.344044 263.742591 
L 238.936835 264.935006 
L 239.23323 265.840328 
L 239.529625 267.551859 
L 239.826021 270.322155 
L 240.122416 270.322155 
L 240.418812 273.311108 
L 240.715207 274.790722 
L 241.307998 278.375981 
L 241.900789 279.228889 
L 242.493579 279.239448 
L 242.789975 277.130586 
L 243.08637 276.587124 
L 243.975556 272.660758 
L 244.864743 266.420597 
L 245.457533 264.307782 
L 246.050324 263.041326 
L 246.34672 263.531698 
L 246.93951 265.321478 
L 247.235906 266.615042 
L 248.125092 275.039336 
L 248.421487 275.928063 
L 249.014278 279.329031 
L 249.310674 282.06466 
L 249.903464 283.54985 
L 250.496255 283.028072 
L 250.792651 282.22654 
L 251.089046 279.751744 
L 251.385441 279.751744 
L 251.681837 274.631285 
L 251.978232 273.696281 
L 252.867418 268.06531 
L 253.460209 262.323982 
L 254.053 260.03021 
L 254.349395 259.295432 
L 254.645791 258.877222 
L 254.942186 258.912455 
L 256.127768 264.313271 
L 256.424163 266.069552 
L 257.609745 276.635783 
L 258.795326 283.473936 
L 259.091722 283.556591 
L 259.388117 283.235363 
L 259.684513 282.532782 
L 259.980908 281.492344 
L 260.277303 279.414022 
L 260.573699 275.987391 
L 261.75928 268.201537 
L 262.648467 260.21567 
L 263.241257 257.635383 
L 263.834048 256.00208 
L 264.130444 256.336152 
L 264.426839 257.067015 
L 265.01963 259.521588 
L 265.316025 263.905959 
L 265.612421 263.905959 
L 265.908816 267.986863 
L 267.983584 281.922599 
L 268.279979 282.428212 
L 268.576375 282.59984 
L 268.87277 281.921847 
L 269.169165 281.921847 
L 269.465561 278.721113 
L 269.761956 277.9953 
L 270.354747 274.725664 
L 270.651142 270.26341 
L 270.947538 270.26341 
L 271.243933 266.658872 
L 272.429515 259.801495 
L 272.72591 259.801495 
L 273.022306 259.350803 
L 273.318701 259.58807 
L 273.615097 260.304933 
L 273.911492 261.322778 
L 274.800678 269.406941 
L 275.097074 270.341711 
L 275.689864 274.039164 
L 275.98626 277.372053 
L 276.282655 277.372053 
L 276.579051 280.86855 
L 277.468237 282.064255 
L 277.764632 281.660436 
L 278.061028 281.009883 
L 279.246609 275.428502 
L 279.543005 272.184007 
L 279.8394 270.53611 
L 280.432191 265.74435 
L 280.728586 265.010929 
L 281.024982 263.672231 
L 281.321377 261.652208 
L 281.617772 261.652208 
L 281.914168 260.870105 
L 282.210563 261.007753 
L 282.506959 261.491431 
L 282.803354 262.239959 
L 283.099749 264.460265 
L 283.396145 264.460265 
L 283.69254 269.013477 
L 283.988936 269.848431 
L 284.581726 273.14495 
L 284.878122 276.114056 
L 285.174517 276.114056 
L 285.470913 279.32405 
L 285.767308 279.713061 
L 286.360099 280.820122 
L 286.656494 280.925293 
L 286.95289 280.262349 
L 287.249285 279.007586 
L 287.54568 278.475727 
L 288.138471 275.930867 
L 288.434867 272.91677 
L 288.731262 272.91677 
L 289.027657 268.171824 
L 289.324053 267.403577 
L 289.916844 264.526576 
L 290.213239 262.32202 
L 290.509634 262.32202 
L 290.80603 260.797985 
L 291.102425 260.774523 
L 291.398821 260.930176 
L 291.695216 261.365169 
L 291.991611 262.080355 
L 292.288007 263.647386 
L 292.584402 266.485229 
L 293.473588 271.601331 
L 293.769984 275.819448 
L 294.066379 275.819448 
L 294.362775 278.633417 
L 294.955565 280.773171 
L 295.548356 282.176323 
L 295.844752 282.176323 
L 296.141147 280.689133 
L 296.437542 280.184319 
L 297.030333 277.631024 
L 297.326729 274.548375 
L 297.623124 274.548375 
L 297.919519 269.586287 
L 298.215915 268.780365 
L 298.808706 265.700484 
L 299.105101 262.628696 
L 299.401496 262.628696 
L 299.697892 261.249959 
L 299.994287 261.014049 
L 300.290683 261.094116 
L 300.587078 261.501959 
L 300.883473 262.237639 
L 301.179869 263.896848 
L 301.476264 266.927777 
L 302.36545 272.371027 
L 302.958241 278.49758 
L 303.254637 280.558951 
L 303.551032 281.139067 
L 304.143823 282.840212 
L 304.440218 283.314162 
L 304.736614 283.314162 
L 305.033009 281.54956 
L 305.329404 281.01014 
L 305.922195 278.338399 
L 306.218591 275.155841 
L 306.514986 273.479877 
L 307.404172 266.038523 
L 307.700568 266.038523 
L 307.996963 263.270112 
L 308.589754 261.079942 
L 308.886149 260.696601 
L 309.182545 260.744942 
L 309.47894 261.10016 
L 310.071731 264.727602 
L 310.368126 267.09739 
L 310.664522 267.945469 
L 311.553708 273.2265 
L 312.442894 279.928835 
L 313.33208 282.72703 
L 313.628476 282.72703 
L 314.221267 281.122109 
L 314.814057 278.742114 
L 315.110453 275.734026 
L 315.406848 275.734026 
L 315.703244 270.824 
L 315.999639 269.994761 
L 316.59243 266.798469 
L 316.888825 263.919112 
L 317.481616 260.845651 
L 318.370802 259.930756 
L 318.667198 260.635461 
L 318.963593 262.016503 
L 319.259988 263.977289 
L 319.556384 264.731265 
L 320.149175 268.04714 
L 320.44557 272.434939 
L 320.741965 272.434939 
L 321.038361 275.780829 
L 321.927547 280.167302 
L 322.520338 282.204769 
L 322.816733 282.336995 
L 323.113129 281.924519 
L 323.705919 280.322315 
L 324.595106 273.660773 
L 324.891501 272.906067 
L 325.484292 269.882056 
L 326.077083 265.296655 
L 326.373478 263.894462 
L 326.669873 263.524723 
L 326.966269 262.945841 
L 327.262664 262.638596 
L 327.55906 262.965824 
L 327.855455 264.032313 
L 328.15185 265.6865 
L 328.448246 266.33941 
L 329.041037 269.300308 
L 329.337432 272.526273 
L 329.633827 272.526273 
L 329.930223 277.345896 
L 330.226618 278.107842 
L 331.115804 282.986094 
L 331.4122 282.986094 
L 331.708595 283.761606 
L 332.004991 283.607532 
L 332.301386 283.070004 
L 332.597781 282.249976 
L 332.894177 279.214461 
L 333.190572 279.214461 
L 333.486968 276.098519 
L 334.376154 271.081991 
L 334.672549 267.174543 
L 334.968945 267.174543 
L 335.26534 264.557936 
L 335.858131 262.725118 
L 336.154526 262.196535 
L 336.450922 262.016399 
L 337.340108 264.96627 
L 337.932899 267.749767 
L 339.11848 276.333462 
L 340.304062 282.008608 
L 340.600457 282.355707 
L 340.896853 282.447637 
L 341.193248 282.283956 
L 341.489643 281.861838 
L 341.786039 279.745591 
L 342.082434 279.745591 
L 342.37883 277.163736 
L 343.564411 271.042386 
L 344.453597 265.405351 
L 345.342784 262.824427 
L 345.639179 262.637539 
L 346.23197 263.128026 
L 346.824761 264.402449 
L 347.713947 270.009631 
L 348.010342 270.656928 
L 348.603133 273.205132 
L 349.195924 276.961649 
L 349.492319 278.081746 
L 349.788715 278.380991 
L 350.381506 279.179954 
L 350.974296 279.220783 
L 351.567087 278.191847 
L 352.159878 277.18907 
L 353.049064 274.727597 
L 353.93825 273.48174 
L 354.827437 272.619827 
L 356.013018 272.284621 
L 356.309414 272.284621 
L 356.902204 272.484176 
L 358.087786 272.862412 
L 358.680577 272.625896 
L 359.273368 272.079468 
L 359.569763 271.196638 
L 359.866158 271.196638 
L 360.162554 269.354385 
L 360.458949 269.017321 
L 361.348135 267.172122 
L 361.644531 266.603739 
L 361.940926 266.454696 
L 362.237322 266.65968 
L 362.830112 267.557497 
L 363.126508 268.194231 
L 363.422903 269.288 
L 363.719299 270.841053 
L 364.608485 272.895986 
L 365.201276 273.906485 
L 365.497671 273.947874 
L 365.794066 273.676096 
L 366.386857 272.578143 
L 366.683253 270.887353 
L 366.979648 270.887353 
L 367.276043 267.891336 
L 367.572439 267.420259 
L 368.461625 264.702546 
L 368.75802 264.43868 
L 369.054416 264.394394 
L 369.943602 265.512257 
L 370.239997 267.061987 
L 370.536393 267.061987 
L 370.832788 270.253191 
L 371.129184 270.845564 
L 371.721974 273.274228 
L 372.01837 275.671728 
L 372.314765 275.671728 
L 372.611161 278.836857 
L 372.907556 279.284506 
L 373.500347 280.738733 
L 374.093138 281.428393 
L 375.575115 279.543067 
L 376.167905 278.489911 
L 377.649882 277.400801 
L 378.539069 276.437256 
L 379.428255 275.270417 
L 380.021046 275.272619 
L 380.613836 275.581428 
L 380.910232 276.218621 
L 381.206627 276.218621 
L 381.503023 276.724573 
L 382.095813 277.028418 
L 382.392209 277.037315 
L 382.688604 276.914994 
L 382.985 276.479743 
L 383.281395 275.513313 
L 385.059768 272.116446 
L 385.356163 272.165435 
L 385.652558 272.371937 
L 386.245349 273.18249 
L 386.541745 274.070877 
L 386.83814 275.562244 
L 388.023722 278.978594 
L 388.616512 281.084891 
L 388.912908 281.295314 
L 389.209303 281.296184 
L 389.505699 281.078503 
L 389.802094 280.64392 
L 390.098489 279.60411 
L 390.394885 277.641092 
L 391.580466 273.101598 
L 392.173257 270.123382 
L 392.469653 269.682588 
L 392.766048 269.457828 
L 393.062443 269.445304 
L 393.358839 269.805473 
L 393.95163 271.593018 
L 394.840816 274.013509 
L 395.433607 276.362387 
L 396.026397 277.225533 
L 396.619188 277.69036 
L 396.915584 277.730672 
L 397.211979 277.512132 
L 397.80477 276.314551 
L 398.397561 275.199377 
L 398.990351 273.306996 
L 399.583142 272.665561 
L 400.175933 272.446532 
L 400.472328 272.498792 
L 401.065119 272.858466 
L 404.325469 274.339467 
L 404.918259 275.350491 
L 405.807446 276.740334 
L 406.400236 276.655815 
L 407.289423 276.210815 
L 409.067795 274.405916 
L 409.36419 273.626653 
L 409.956981 272.681695 
L 410.253377 272.15393 
L 410.549772 271.979999 
L 410.846167 271.633032 
L 411.142563 270.969389 
L 411.735354 270.54104 
L 412.031749 270.568446 
L 412.920935 272.744174 
L 414.402912 277.593197 
L 414.699308 277.66879 
L 414.995703 277.54437 
L 415.292098 277.254184 
L 415.588494 276.572603 
L 415.884889 275.377234 
L 417.070471 272.924033 
L 417.663262 272.089292 
L 417.959657 272.077194 
L 418.552448 272.496103 
L 419.738029 273.497422 
L 420.627216 273.72395 
L 421.220007 274.372443 
L 421.516402 275.241505 
L 421.812797 276.932955 
L 422.701984 280.200324 
L 422.998379 282.143069 
L 423.294774 283.079943 
L 423.59117 283.438549 
L 423.887565 283.434998 
L 424.183961 283.264219 
L 424.480356 282.909393 
L 424.776751 281.871326 
L 425.665938 280.445399 
L 425.962333 280.436672 
L 426.258728 280.572321 
L 427.147915 283.583432 
L 427.44431 285.220351 
L 427.740705 285.800189 
L 428.037101 286.985255 
L 428.333496 289.415845 
L 428.629892 290.618481 
L 429.519078 295.527517 
L 429.815473 295.527517 
L 430.111869 297.306006 
L 431.001055 299.615111 
L 431.29745 299.703068 
L 431.593846 299.664399 
L 432.186636 297.534938 
L 432.186636 297.534938 
" clip-path="url(#p61931ceb82)" style="fill: none; stroke: #008000; stroke-width: 1.5; stroke-linecap: square"/>
   </g>
   <g id="patch_13">
    <path d="M 58.106 301.9975 
L 58.106 251.52 
" style="fill: none; stroke: #000000; stroke-width: 0.8; stroke-linejoin: miter; stroke-linecap: square"/>
   </g>
   <g id="patch_14">
    <path d="M 450 301.9975 
L 450 251.52 
" style="fill: none; stroke: #000000; stroke-width: 0.8; stroke-linejoin: miter; stroke-linecap: square"/>
   </g>
   <g id="patch_15">
    <path d="M 58.106 301.9975 
L 450 301.9975 
" style="fill: none; stroke: #000000; stroke-width: 0.8; stroke-linejoin: miter; stroke-linecap: square"/>
   </g>
   <g id="patch_16">
    <path d="M 58.106 251.52 
L 450 251.52 
" style="fill: none; stroke: #000000; stroke-width: 0.8; stroke-linejoin: miter; stroke-linecap: square"/>
   </g>
   <g id="text_38">
    <!-- Error in swing angle -->
    <g transform="translate(194.282688 245.52)scale(0.12 -0.12)">
     <defs>
      <path id="DejaVuSans-77" d="M 269 3500 
L 844 3500 
L 1563 769 
L 2278 3500 
L 2956 3500 
L 3675 769 
L 4391 3500 
L 4966 3500 
L 4050 0 
L 3372 0 
L 2619 2869 
L 1863 0 
L 1184 0 
L 269 3500 
z
" transform="scale(0.015625)"/>
      <path id="DejaVuSans-67" d="M 2906 1791 
Q 2906 2416 2648 2759 
Q 2391 3103 1925 3103 
Q 1463 3103 1205 2759 
Q 947 2416 947 1791 
Q 947 1169 1205 825 
Q 1463 481 1925 481 
Q 2391 481 2648 825 
Q 2906 1169 2906 1791 
z
M 3481 434 
Q 3481 -459 3084 -895 
Q 2688 -1331 1869 -1331 
Q 1566 -1331 1297 -1286 
Q 1028 -1241 775 -1147 
L 775 -588 
Q 1028 -725 1275 -790 
Q 1522 -856 1778 -856 
Q 2344 -856 2625 -561 
Q 2906 -266 2906 331 
L 2906 616 
Q 2728 306 2450 153 
Q 2172 0 1784 0 
Q 1141 0 747 490 
Q 353 981 353 1791 
Q 353 2603 747 3093 
Q 1141 3584 1784 3584 
Q 2172 3584 2450 3431 
Q 2728 3278 2906 2969 
L 2906 3500 
L 3481 3500 
L 3481 434 
z
" transform="scale(0.015625)"/>
      <path id="DejaVuSans-6c" d="M 603 4863 
L 1178 4863 
L 1178 0 
L 603 0 
L 603 4863 
z
" transform="scale(0.015625)"/>
      <path id="DejaVuSans-65" d="M 3597 1894 
L 3597 1613 
L 953 1613 
Q 991 1019 1311 708 
Q 1631 397 2203 397 
Q 2534 397 2845 478 
Q 3156 559 3463 722 
L 3463 178 
Q 3153 47 2828 -22 
Q 2503 -91 2169 -91 
Q 1331 -91 842 396 
Q 353 884 353 1716 
Q 353 2575 817 3079 
Q 1281 3584 2069 3584 
Q 2775 3584 3186 3129 
Q 3597 2675 3597 1894 
z
M 3022 2063 
Q 3016 2534 2758 2815 
Q 2500 3097 2075 3097 
Q 1594 3097 1305 2825 
Q 1016 2553 972 2059 
L 3022 2063 
z
" transform="scale(0.015625)"/>
     </defs>
     <use xlink:href="#DejaVuSans-45"/>
     <use xlink:href="#DejaVuSans-72" x="63.183594"/>
     <use xlink:href="#DejaVuSans-72" x="102.546875"/>
     <use xlink:href="#DejaVuSans-6f" x="141.410156"/>
     <use xlink:href="#DejaVuSans-72" x="202.591797"/>
     <use xlink:href="#DejaVuSans-20" x="243.705078"/>
     <use xlink:href="#DejaVuSans-69" x="275.492188"/>
     <use xlink:href="#DejaVuSans-6e" x="303.275391"/>
     <use xlink:href="#DejaVuSans-20" x="366.654297"/>
     <use xlink:href="#DejaVuSans-73" x="398.441406"/>
     <use xlink:href="#DejaVuSans-77" x="450.541016"/>
     <use xlink:href="#DejaVuSans-69" x="532.328125"/>
     <use xlink:href="#DejaVuSans-6e" x="560.111328"/>
     <use xlink:href="#DejaVuSans-67" x="623.490234"/>
     <use xlink:href="#DejaVuSans-20" x="686.966797"/>
     <use xlink:href="#DejaVuSans-61" x="718.753906"/>
     <use xlink:href="#DejaVuSans-6e" x="780.033203"/>
     <use xlink:href="#DejaVuSans-67" x="843.412109"/>
     <use xlink:href="#DejaVuSans-6c" x="906.888672"/>
     <use xlink:href="#DejaVuSans-65" x="934.671875"/>
    </g>
   </g>
  </g>
 </g>
 <defs>
  <clipPath id="p4b6437d8fb">
   <rect x="58.106" y="28.32" width="391.894" height="50.4775"/>
  </clipPath>
  <clipPath id="pc967edbeef">
   <rect x="58.106" y="139.92" width="391.894" height="50.4775"/>
  </clipPath>
  <clipPath id="p61931ceb82">
   <rect x="58.106" y="251.52" width="391.894" height="50.4775"/>
  </clipPath>
 </defs>
</svg>
