<?xml version="1.0" encoding="utf-8" standalone="no"?>
<!DOCTYPE svg PUBLIC "-//W3C//DTD SVG 1.1//EN"
  "http://www.w3.org/Graphics/SVG/1.1/DTD/svg11.dtd">
<svg xmlns:xlink="http://www.w3.org/1999/xlink" width="460.8pt" height="345.6pt" viewBox="0 0 460.8 345.6" xmlns="http://www.w3.org/2000/svg" version="1.1">
 <metadata>
  <rdf:RDF xmlns:dc="http://purl.org/dc/elements/1.1/" xmlns:cc="http://creativecommons.org/ns#" xmlns:rdf="http://www.w3.org/1999/02/22-rdf-syntax-ns#">
   <cc:Work>
    <dc:type rdf:resource="http://purl.org/dc/dcmitype/StillImage"/>
    <dc:date>2022-06-05T14:39:53.640786</dc:date>
    <dc:format>image/svg+xml</dc:format>
    <dc:creator>
     <cc:Agent>
      <dc:title>Matplotlib v3.5.1, https://matplotlib.org/</dc:title>
     </cc:Agent>
    </dc:creator>
   </cc:Work>
  </rdf:RDF>
 </metadata>
 <defs>
  <style type="text/css">*{stroke-linejoin: round; stroke-linecap: butt}</style>
 </defs>
 <g id="figure_1">
  <g id="patch_1">
   <path d="M 0 345.6 
L 460.8 345.6 
L 460.8 0 
L 0 0 
z
" style="fill: #ffffff"/>
  </g>
  <g id="axes_1">
   <g id="patch_2">
    <path d="M 58.106 78.7975 
L 450 78.7975 
L 450 28.32 
L 58.106 28.32 
z
" style="fill: #ffffff"/>
   </g>
   <g id="matplotlib.axis_1">
    <g id="xtick_1">
     <g id="line2d_1">
      <path d="M 75.919364 78.7975 
L 75.919364 28.32 
" clip-path="url(#p4bff8d26c5)" style="fill: none; stroke: #b0b0b0; stroke-width: 0.8; stroke-linecap: square"/>
     </g>
     <g id="line2d_2">
      <defs>
       <path id="m8f44aae2b9" d="M 0 0 
L 0 3.5 
" style="stroke: #000000; stroke-width: 0.8"/>
      </defs>
      <g>
       <use xlink:href="#m8f44aae2b9" x="75.919364" y="78.7975" style="stroke: #000000; stroke-width: 0.8"/>
      </g>
     </g>
     <g id="text_1">
      <!-- 0 -->
      <g transform="translate(72.738114 93.395937)scale(0.1 -0.1)">
       <defs>
        <path id="DejaVuSans-30" d="M 2034 4250 
Q 1547 4250 1301 3770 
Q 1056 3291 1056 2328 
Q 1056 1369 1301 889 
Q 1547 409 2034 409 
Q 2525 409 2770 889 
Q 3016 1369 3016 2328 
Q 3016 3291 2770 3770 
Q 2525 4250 2034 4250 
z
M 2034 4750 
Q 2819 4750 3233 4129 
Q 3647 3509 3647 2328 
Q 3647 1150 3233 529 
Q 2819 -91 2034 -91 
Q 1250 -91 836 529 
Q 422 1150 422 2328 
Q 422 3509 836 4129 
Q 1250 4750 2034 4750 
z
" transform="scale(0.015625)"/>
       </defs>
       <use xlink:href="#DejaVuSans-30"/>
      </g>
     </g>
    </g>
    <g id="xtick_2">
     <g id="line2d_3">
      <path d="M 135.796216 78.7975 
L 135.796216 28.32 
" clip-path="url(#p4bff8d26c5)" style="fill: none; stroke: #b0b0b0; stroke-width: 0.8; stroke-linecap: square"/>
     </g>
     <g id="line2d_4">
      <g>
       <use xlink:href="#m8f44aae2b9" x="135.796216" y="78.7975" style="stroke: #000000; stroke-width: 0.8"/>
      </g>
     </g>
     <g id="text_2">
      <!-- 2 -->
      <g transform="translate(132.614966 93.395937)scale(0.1 -0.1)">
       <defs>
        <path id="DejaVuSans-32" d="M 1228 531 
L 3431 531 
L 3431 0 
L 469 0 
L 469 531 
Q 828 903 1448 1529 
Q 2069 2156 2228 2338 
Q 2531 2678 2651 2914 
Q 2772 3150 2772 3378 
Q 2772 3750 2511 3984 
Q 2250 4219 1831 4219 
Q 1534 4219 1204 4116 
Q 875 4013 500 3803 
L 500 4441 
Q 881 4594 1212 4672 
Q 1544 4750 1819 4750 
Q 2544 4750 2975 4387 
Q 3406 4025 3406 3419 
Q 3406 3131 3298 2873 
Q 3191 2616 2906 2266 
Q 2828 2175 2409 1742 
Q 1991 1309 1228 531 
z
" transform="scale(0.015625)"/>
       </defs>
       <use xlink:href="#DejaVuSans-32"/>
      </g>
     </g>
    </g>
    <g id="xtick_3">
     <g id="line2d_5">
      <path d="M 195.673069 78.7975 
L 195.673069 28.32 
" clip-path="url(#p4bff8d26c5)" style="fill: none; stroke: #b0b0b0; stroke-width: 0.8; stroke-linecap: square"/>
     </g>
     <g id="line2d_6">
      <g>
       <use xlink:href="#m8f44aae2b9" x="195.673069" y="78.7975" style="stroke: #000000; stroke-width: 0.8"/>
      </g>
     </g>
     <g id="text_3">
      <!-- 4 -->
      <g transform="translate(192.491819 93.395937)scale(0.1 -0.1)">
       <defs>
        <path id="DejaVuSans-34" d="M 2419 4116 
L 825 1625 
L 2419 1625 
L 2419 4116 
z
M 2253 4666 
L 3047 4666 
L 3047 1625 
L 3713 1625 
L 3713 1100 
L 3047 1100 
L 3047 0 
L 2419 0 
L 2419 1100 
L 313 1100 
L 313 1709 
L 2253 4666 
z
" transform="scale(0.015625)"/>
       </defs>
       <use xlink:href="#DejaVuSans-34"/>
      </g>
     </g>
    </g>
    <g id="xtick_4">
     <g id="line2d_7">
      <path d="M 255.549921 78.7975 
L 255.549921 28.32 
" clip-path="url(#p4bff8d26c5)" style="fill: none; stroke: #b0b0b0; stroke-width: 0.8; stroke-linecap: square"/>
     </g>
     <g id="line2d_8">
      <g>
       <use xlink:href="#m8f44aae2b9" x="255.549921" y="78.7975" style="stroke: #000000; stroke-width: 0.8"/>
      </g>
     </g>
     <g id="text_4">
      <!-- 6 -->
      <g transform="translate(252.368671 93.395937)scale(0.1 -0.1)">
       <defs>
        <path id="DejaVuSans-36" d="M 2113 2584 
Q 1688 2584 1439 2293 
Q 1191 2003 1191 1497 
Q 1191 994 1439 701 
Q 1688 409 2113 409 
Q 2538 409 2786 701 
Q 3034 994 3034 1497 
Q 3034 2003 2786 2293 
Q 2538 2584 2113 2584 
z
M 3366 4563 
L 3366 3988 
Q 3128 4100 2886 4159 
Q 2644 4219 2406 4219 
Q 1781 4219 1451 3797 
Q 1122 3375 1075 2522 
Q 1259 2794 1537 2939 
Q 1816 3084 2150 3084 
Q 2853 3084 3261 2657 
Q 3669 2231 3669 1497 
Q 3669 778 3244 343 
Q 2819 -91 2113 -91 
Q 1303 -91 875 529 
Q 447 1150 447 2328 
Q 447 3434 972 4092 
Q 1497 4750 2381 4750 
Q 2619 4750 2861 4703 
Q 3103 4656 3366 4563 
z
" transform="scale(0.015625)"/>
       </defs>
       <use xlink:href="#DejaVuSans-36"/>
      </g>
     </g>
    </g>
    <g id="xtick_5">
     <g id="line2d_9">
      <path d="M 315.426774 78.7975 
L 315.426774 28.32 
" clip-path="url(#p4bff8d26c5)" style="fill: none; stroke: #b0b0b0; stroke-width: 0.8; stroke-linecap: square"/>
     </g>
     <g id="line2d_10">
      <g>
       <use xlink:href="#m8f44aae2b9" x="315.426774" y="78.7975" style="stroke: #000000; stroke-width: 0.8"/>
      </g>
     </g>
     <g id="text_5">
      <!-- 8 -->
      <g transform="translate(312.245524 93.395937)scale(0.1 -0.1)">
       <defs>
        <path id="DejaVuSans-38" d="M 2034 2216 
Q 1584 2216 1326 1975 
Q 1069 1734 1069 1313 
Q 1069 891 1326 650 
Q 1584 409 2034 409 
Q 2484 409 2743 651 
Q 3003 894 3003 1313 
Q 3003 1734 2745 1975 
Q 2488 2216 2034 2216 
z
M 1403 2484 
Q 997 2584 770 2862 
Q 544 3141 544 3541 
Q 544 4100 942 4425 
Q 1341 4750 2034 4750 
Q 2731 4750 3128 4425 
Q 3525 4100 3525 3541 
Q 3525 3141 3298 2862 
Q 3072 2584 2669 2484 
Q 3125 2378 3379 2068 
Q 3634 1759 3634 1313 
Q 3634 634 3220 271 
Q 2806 -91 2034 -91 
Q 1263 -91 848 271 
Q 434 634 434 1313 
Q 434 1759 690 2068 
Q 947 2378 1403 2484 
z
M 1172 3481 
Q 1172 3119 1398 2916 
Q 1625 2713 2034 2713 
Q 2441 2713 2670 2916 
Q 2900 3119 2900 3481 
Q 2900 3844 2670 4047 
Q 2441 4250 2034 4250 
Q 1625 4250 1398 4047 
Q 1172 3844 1172 3481 
z
" transform="scale(0.015625)"/>
       </defs>
       <use xlink:href="#DejaVuSans-38"/>
      </g>
     </g>
    </g>
    <g id="xtick_6">
     <g id="line2d_11">
      <path d="M 375.303626 78.7975 
L 375.303626 28.32 
" clip-path="url(#p4bff8d26c5)" style="fill: none; stroke: #b0b0b0; stroke-width: 0.8; stroke-linecap: square"/>
     </g>
     <g id="line2d_12">
      <g>
       <use xlink:href="#m8f44aae2b9" x="375.303626" y="78.7975" style="stroke: #000000; stroke-width: 0.8"/>
      </g>
     </g>
     <g id="text_6">
      <!-- 10 -->
      <g transform="translate(368.941126 93.395937)scale(0.1 -0.1)">
       <defs>
        <path id="DejaVuSans-31" d="M 794 531 
L 1825 531 
L 1825 4091 
L 703 3866 
L 703 4441 
L 1819 4666 
L 2450 4666 
L 2450 531 
L 3481 531 
L 3481 0 
L 794 0 
L 794 531 
z
" transform="scale(0.015625)"/>
       </defs>
       <use xlink:href="#DejaVuSans-31"/>
       <use xlink:href="#DejaVuSans-30" x="63.623047"/>
      </g>
     </g>
    </g>
    <g id="xtick_7">
     <g id="line2d_13">
      <path d="M 435.180479 78.7975 
L 435.180479 28.32 
" clip-path="url(#p4bff8d26c5)" style="fill: none; stroke: #b0b0b0; stroke-width: 0.8; stroke-linecap: square"/>
     </g>
     <g id="line2d_14">
      <g>
       <use xlink:href="#m8f44aae2b9" x="435.180479" y="78.7975" style="stroke: #000000; stroke-width: 0.8"/>
      </g>
     </g>
     <g id="text_7">
      <!-- 12 -->
      <g transform="translate(428.817979 93.395937)scale(0.1 -0.1)">
       <use xlink:href="#DejaVuSans-31"/>
       <use xlink:href="#DejaVuSans-32" x="63.623047"/>
      </g>
     </g>
    </g>
    <g id="text_8">
     <!-- $t$ [s] -->
     <g transform="translate(243.953 107.074062)scale(0.1 -0.1)">
      <defs>
       <path id="DejaVuSans-Oblique-74" d="M 2706 3500 
L 2619 3053 
L 1472 3053 
L 1100 1153 
Q 1081 1047 1072 975 
Q 1063 903 1063 863 
Q 1063 663 1183 572 
Q 1303 481 1569 481 
L 2150 481 
L 2053 0 
L 1503 0 
Q 991 0 739 200 
Q 488 400 488 806 
Q 488 878 497 964 
Q 506 1050 525 1153 
L 897 3053 
L 409 3053 
L 500 3500 
L 978 3500 
L 1172 4494 
L 1747 4494 
L 1556 3500 
L 2706 3500 
z
" transform="scale(0.015625)"/>
       <path id="DejaVuSans-20" transform="scale(0.015625)"/>
       <path id="DejaVuSans-5b" d="M 550 4863 
L 1875 4863 
L 1875 4416 
L 1125 4416 
L 1125 -397 
L 1875 -397 
L 1875 -844 
L 550 -844 
L 550 4863 
z
" transform="scale(0.015625)"/>
       <path id="DejaVuSans-73" d="M 2834 3397 
L 2834 2853 
Q 2591 2978 2328 3040 
Q 2066 3103 1784 3103 
Q 1356 3103 1142 2972 
Q 928 2841 928 2578 
Q 928 2378 1081 2264 
Q 1234 2150 1697 2047 
L 1894 2003 
Q 2506 1872 2764 1633 
Q 3022 1394 3022 966 
Q 3022 478 2636 193 
Q 2250 -91 1575 -91 
Q 1294 -91 989 -36 
Q 684 19 347 128 
L 347 722 
Q 666 556 975 473 
Q 1284 391 1588 391 
Q 1994 391 2212 530 
Q 2431 669 2431 922 
Q 2431 1156 2273 1281 
Q 2116 1406 1581 1522 
L 1381 1569 
Q 847 1681 609 1914 
Q 372 2147 372 2553 
Q 372 3047 722 3315 
Q 1072 3584 1716 3584 
Q 2034 3584 2315 3537 
Q 2597 3491 2834 3397 
z
" transform="scale(0.015625)"/>
       <path id="DejaVuSans-5d" d="M 1947 4863 
L 1947 -844 
L 622 -844 
L 622 -397 
L 1369 -397 
L 1369 4416 
L 622 4416 
L 622 4863 
L 1947 4863 
z
" transform="scale(0.015625)"/>
      </defs>
      <use xlink:href="#DejaVuSans-Oblique-74" transform="translate(0 0.015625)"/>
      <use xlink:href="#DejaVuSans-20" transform="translate(39.208984 0.015625)"/>
      <use xlink:href="#DejaVuSans-5b" transform="translate(70.996094 0.015625)"/>
      <use xlink:href="#DejaVuSans-73" transform="translate(110.009766 0.015625)"/>
      <use xlink:href="#DejaVuSans-5d" transform="translate(162.109375 0.015625)"/>
     </g>
    </g>
   </g>
   <g id="matplotlib.axis_2">
    <g id="ytick_1">
     <g id="line2d_15">
      <path d="M 58.106 76.421178 
L 450 76.421178 
" clip-path="url(#p4bff8d26c5)" style="fill: none; stroke: #b0b0b0; stroke-width: 0.8; stroke-linecap: square"/>
     </g>
     <g id="line2d_16">
      <defs>
       <path id="m36e673e7c8" d="M 0 0 
L -3.5 0 
" style="stroke: #000000; stroke-width: 0.8"/>
      </defs>
      <g>
       <use xlink:href="#m36e673e7c8" x="58.106" y="76.421178" style="stroke: #000000; stroke-width: 0.8"/>
      </g>
     </g>
     <g id="text_9">
      <!-- 0 -->
      <g transform="translate(44.7435 80.220396)scale(0.1 -0.1)">
       <use xlink:href="#DejaVuSans-30"/>
      </g>
     </g>
    </g>
    <g id="ytick_2">
     <g id="line2d_17">
      <path d="M 58.106 30.614803 
L 450 30.614803 
" clip-path="url(#p4bff8d26c5)" style="fill: none; stroke: #b0b0b0; stroke-width: 0.8; stroke-linecap: square"/>
     </g>
     <g id="line2d_18">
      <g>
       <use xlink:href="#m36e673e7c8" x="58.106" y="30.614803" style="stroke: #000000; stroke-width: 0.8"/>
      </g>
     </g>
     <g id="text_10">
      <!-- 10 -->
      <g transform="translate(38.381 34.414022)scale(0.1 -0.1)">
       <use xlink:href="#DejaVuSans-31"/>
       <use xlink:href="#DejaVuSans-30" x="63.623047"/>
      </g>
     </g>
    </g>
    <g id="text_11">
     <!-- $e_x$ [m] -->
     <g transform="translate(32.301313 69.20875)rotate(-90)scale(0.1 -0.1)">
      <defs>
       <path id="DejaVuSans-Oblique-65" d="M 3078 2063 
Q 3088 2113 3092 2166 
Q 3097 2219 3097 2272 
Q 3097 2653 2873 2875 
Q 2650 3097 2266 3097 
Q 1838 3097 1509 2826 
Q 1181 2556 1013 2059 
L 3078 2063 
z
M 3578 1613 
L 903 1613 
Q 884 1494 878 1425 
Q 872 1356 872 1306 
Q 872 872 1139 634 
Q 1406 397 1894 397 
Q 2269 397 2603 481 
Q 2938 566 3225 728 
L 3116 159 
Q 2806 34 2476 -28 
Q 2147 -91 1806 -91 
Q 1078 -91 686 257 
Q 294 606 294 1247 
Q 294 1794 489 2264 
Q 684 2734 1063 3103 
Q 1306 3334 1642 3459 
Q 1978 3584 2356 3584 
Q 2950 3584 3301 3228 
Q 3653 2872 3653 2272 
Q 3653 2128 3634 1964 
Q 3616 1800 3578 1613 
z
" transform="scale(0.015625)"/>
       <path id="DejaVuSans-Oblique-78" d="M 3841 3500 
L 2234 1784 
L 3219 0 
L 2559 0 
L 1819 1388 
L 531 0 
L -166 0 
L 1556 1844 
L 641 3500 
L 1300 3500 
L 1972 2234 
L 3144 3500 
L 3841 3500 
z
" transform="scale(0.015625)"/>
       <path id="DejaVuSans-6d" d="M 3328 2828 
Q 3544 3216 3844 3400 
Q 4144 3584 4550 3584 
Q 5097 3584 5394 3201 
Q 5691 2819 5691 2113 
L 5691 0 
L 5113 0 
L 5113 2094 
Q 5113 2597 4934 2840 
Q 4756 3084 4391 3084 
Q 3944 3084 3684 2787 
Q 3425 2491 3425 1978 
L 3425 0 
L 2847 0 
L 2847 2094 
Q 2847 2600 2669 2842 
Q 2491 3084 2119 3084 
Q 1678 3084 1418 2786 
Q 1159 2488 1159 1978 
L 1159 0 
L 581 0 
L 581 3500 
L 1159 3500 
L 1159 2956 
Q 1356 3278 1631 3431 
Q 1906 3584 2284 3584 
Q 2666 3584 2933 3390 
Q 3200 3197 3328 2828 
z
" transform="scale(0.015625)"/>
      </defs>
      <use xlink:href="#DejaVuSans-Oblique-65" transform="translate(0 0.015625)"/>
      <use xlink:href="#DejaVuSans-Oblique-78" transform="translate(61.523438 -16.390625)scale(0.7)"/>
      <use xlink:href="#DejaVuSans-20" transform="translate(105.683594 0.015625)"/>
      <use xlink:href="#DejaVuSans-5b" transform="translate(137.470703 0.015625)"/>
      <use xlink:href="#DejaVuSans-6d" transform="translate(176.484375 0.015625)"/>
      <use xlink:href="#DejaVuSans-5d" transform="translate(273.896484 0.015625)"/>
     </g>
    </g>
   </g>
   <g id="line2d_19">
    <path d="M 75.919364 30.614799 
L 83.709901 30.713897 
L 88.803714 30.946062 
L 96.594252 31.292977 
L 100.48952 31.696205 
L 104.085153 32.108057 
L 105.583333 32.353445 
L 106.482242 32.456357 
L 109.178966 32.852989 
L 110.37751 33.041216 
L 124.760041 35.905421 
L 126.857493 36.396935 
L 127.456766 36.481185 
L 128.65531 36.824059 
L 130.752762 37.353321 
L 131.052398 37.353321 
L 131.951306 37.593922 
L 134.947667 38.402096 
L 137.644392 39.086739 
L 139.442208 39.584155 
L 141.240024 40.077876 
L 143.037841 40.560894 
L 144.835657 41.029339 
L 145.135293 41.151712 
L 145.434929 41.151712 
L 145.734565 41.333349 
L 146.633473 41.483053 
L 147.532381 41.778416 
L 148.43129 41.924296 
L 149.629834 42.269747 
L 150.828378 42.52403 
L 153.525103 43.128405 
L 154.424011 43.344042 
L 157.120735 43.931684 
L 158.019643 44.14375 
L 160.716368 44.721936 
L 161.615276 44.93016 
L 164.012365 45.418905 
L 164.911273 45.672253 
L 165.810181 45.797957 
L 166.709089 46.047632 
L 167.607997 46.171644 
L 168.806542 46.466998 
L 169.70545 46.63781 
L 172.402174 47.171351 
L 173.301082 47.366254 
L 175.997807 47.900858 
L 176.896715 48.091006 
L 179.59344 48.600442 
L 180.492348 48.784292 
L 183.189072 49.265073 
L 183.788344 49.378281 
L 184.687253 49.558328 
L 187.383977 50.071976 
L 190.380338 50.638664 
L 193.376698 51.148599 
L 193.97597 51.262261 
L 194.874879 51.444023 
L 197.571603 51.910408 
L 198.170875 52.06296 
L 200.567964 52.485227 
L 201.766508 52.760174 
L 202.665416 52.920755 
L 205.961413 53.501803 
L 207.159957 53.744094 
L 209.557045 54.170945 
L 210.75559 54.419992 
L 213.75195 54.926553 
L 214.351222 55.076063 
L 216.748311 55.480873 
L 217.347583 55.58869 
L 218.246491 55.762325 
L 220.943216 56.213198 
L 221.542488 56.358151 
L 223.939576 56.743504 
L 224.538848 56.845826 
L 225.437756 57.012156 
L 228.134481 57.477519 
L 229.033389 57.643435 
L 231.430478 58.048472 
L 232.329386 58.211576 
L 234.726474 58.630971 
L 235.625382 58.799818 
L 239.820287 59.492099 
L 244.015192 60.260601 
L 244.614464 60.341088 
L 248.509733 60.964946 
L 251.80573 61.553571 
L 252.405002 61.633502 
L 255.700998 62.106291 
L 256.000634 62.235385 
L 256.599906 62.291142 
L 259.596267 62.778156 
L 259.895903 62.778156 
L 260.495175 62.919654 
L 265.588988 63.716148 
L 269.783893 64.378321 
L 270.383165 64.455152 
L 276.375886 65.318436 
L 280.570791 65.986741 
L 281.170063 66.057393 
L 283.866788 66.423938 
L 286.863148 66.801363 
L 287.46242 66.921105 
L 291.058053 67.429267 
L 292.256597 67.586401 
L 296.151866 68.086727 
L 300.346771 68.695505 
L 301.245679 68.787518 
L 305.440584 69.321452 
L 306.938764 69.534182 
L 309.935125 69.931481 
L 314.13003 70.449512 
L 318.324934 71.022083 
L 319.223843 71.11311 
L 323.718383 71.657623 
L 324.916928 71.815261 
L 328.812196 72.318255 
L 330.310377 72.504016 
L 334.205645 72.965784 
L 335.703826 73.167785 
L 344.393271 74.176153 
L 345.891452 74.345833 
L 349.187448 74.71366 
L 365.667432 75.894866 
L 380.049962 76.276388 
L 389.33868 76.206665 
L 399.22667 76.000374 
L 415.107381 75.838999 
L 423.197555 76.030156 
L 428.89064 76.350911 
L 430.688456 76.444118 
L 432.186636 76.503068 
L 432.186636 76.503068 
" clip-path="url(#p4bff8d26c5)" style="fill: none; stroke: #ff0000; stroke-width: 1.5; stroke-linecap: square"/>
   </g>
   <g id="patch_3">
    <path d="M 58.106 78.7975 
L 58.106 28.32 
" style="fill: none; stroke: #000000; stroke-width: 0.8; stroke-linejoin: miter; stroke-linecap: square"/>
   </g>
   <g id="patch_4">
    <path d="M 450 78.7975 
L 450 28.32 
" style="fill: none; stroke: #000000; stroke-width: 0.8; stroke-linejoin: miter; stroke-linecap: square"/>
   </g>
   <g id="patch_5">
    <path d="M 58.106 78.7975 
L 450 78.7975 
" style="fill: none; stroke: #000000; stroke-width: 0.8; stroke-linejoin: miter; stroke-linecap: square"/>
   </g>
   <g id="patch_6">
    <path d="M 58.106 28.32 
L 450 28.32 
" style="fill: none; stroke: #000000; stroke-width: 0.8; stroke-linejoin: miter; stroke-linecap: square"/>
   </g>
   <g id="text_12">
    <!-- Error in $x$-position -->
    <g transform="translate(200.413 22.32)scale(0.12 -0.12)">
     <defs>
      <path id="DejaVuSans-45" d="M 628 4666 
L 3578 4666 
L 3578 4134 
L 1259 4134 
L 1259 2753 
L 3481 2753 
L 3481 2222 
L 1259 2222 
L 1259 531 
L 3634 531 
L 3634 0 
L 628 0 
L 628 4666 
z
" transform="scale(0.015625)"/>
      <path id="DejaVuSans-72" d="M 2631 2963 
Q 2534 3019 2420 3045 
Q 2306 3072 2169 3072 
Q 1681 3072 1420 2755 
Q 1159 2438 1159 1844 
L 1159 0 
L 581 0 
L 581 3500 
L 1159 3500 
L 1159 2956 
Q 1341 3275 1631 3429 
Q 1922 3584 2338 3584 
Q 2397 3584 2469 3576 
Q 2541 3569 2628 3553 
L 2631 2963 
z
" transform="scale(0.015625)"/>
      <path id="DejaVuSans-6f" d="M 1959 3097 
Q 1497 3097 1228 2736 
Q 959 2375 959 1747 
Q 959 1119 1226 758 
Q 1494 397 1959 397 
Q 2419 397 2687 759 
Q 2956 1122 2956 1747 
Q 2956 2369 2687 2733 
Q 2419 3097 1959 3097 
z
M 1959 3584 
Q 2709 3584 3137 3096 
Q 3566 2609 3566 1747 
Q 3566 888 3137 398 
Q 2709 -91 1959 -91 
Q 1206 -91 779 398 
Q 353 888 353 1747 
Q 353 2609 779 3096 
Q 1206 3584 1959 3584 
z
" transform="scale(0.015625)"/>
      <path id="DejaVuSans-69" d="M 603 3500 
L 1178 3500 
L 1178 0 
L 603 0 
L 603 3500 
z
M 603 4863 
L 1178 4863 
L 1178 4134 
L 603 4134 
L 603 4863 
z
" transform="scale(0.015625)"/>
      <path id="DejaVuSans-6e" d="M 3513 2113 
L 3513 0 
L 2938 0 
L 2938 2094 
Q 2938 2591 2744 2837 
Q 2550 3084 2163 3084 
Q 1697 3084 1428 2787 
Q 1159 2491 1159 1978 
L 1159 0 
L 581 0 
L 581 3500 
L 1159 3500 
L 1159 2956 
Q 1366 3272 1645 3428 
Q 1925 3584 2291 3584 
Q 2894 3584 3203 3211 
Q 3513 2838 3513 2113 
z
" transform="scale(0.015625)"/>
      <path id="DejaVuSans-2d" d="M 313 2009 
L 1997 2009 
L 1997 1497 
L 313 1497 
L 313 2009 
z
" transform="scale(0.015625)"/>
      <path id="DejaVuSans-70" d="M 1159 525 
L 1159 -1331 
L 581 -1331 
L 581 3500 
L 1159 3500 
L 1159 2969 
Q 1341 3281 1617 3432 
Q 1894 3584 2278 3584 
Q 2916 3584 3314 3078 
Q 3713 2572 3713 1747 
Q 3713 922 3314 415 
Q 2916 -91 2278 -91 
Q 1894 -91 1617 61 
Q 1341 213 1159 525 
z
M 3116 1747 
Q 3116 2381 2855 2742 
Q 2594 3103 2138 3103 
Q 1681 3103 1420 2742 
Q 1159 2381 1159 1747 
Q 1159 1113 1420 752 
Q 1681 391 2138 391 
Q 2594 391 2855 752 
Q 3116 1113 3116 1747 
z
" transform="scale(0.015625)"/>
      <path id="DejaVuSans-74" d="M 1172 4494 
L 1172 3500 
L 2356 3500 
L 2356 3053 
L 1172 3053 
L 1172 1153 
Q 1172 725 1289 603 
Q 1406 481 1766 481 
L 2356 481 
L 2356 0 
L 1766 0 
Q 1100 0 847 248 
Q 594 497 594 1153 
L 594 3053 
L 172 3053 
L 172 3500 
L 594 3500 
L 594 4494 
L 1172 4494 
z
" transform="scale(0.015625)"/>
     </defs>
     <use xlink:href="#DejaVuSans-45" transform="translate(0 0.015625)"/>
     <use xlink:href="#DejaVuSans-72" transform="translate(63.183594 0.015625)"/>
     <use xlink:href="#DejaVuSans-72" transform="translate(104.296875 0.015625)"/>
     <use xlink:href="#DejaVuSans-6f" transform="translate(145.410156 0.015625)"/>
     <use xlink:href="#DejaVuSans-72" transform="translate(206.591797 0.015625)"/>
     <use xlink:href="#DejaVuSans-20" transform="translate(247.705078 0.015625)"/>
     <use xlink:href="#DejaVuSans-69" transform="translate(279.492188 0.015625)"/>
     <use xlink:href="#DejaVuSans-6e" transform="translate(307.275391 0.015625)"/>
     <use xlink:href="#DejaVuSans-20" transform="translate(370.654297 0.015625)"/>
     <use xlink:href="#DejaVuSans-Oblique-78" transform="translate(402.441406 0.015625)"/>
     <use xlink:href="#DejaVuSans-2d" transform="translate(461.621094 0.015625)"/>
     <use xlink:href="#DejaVuSans-70" transform="translate(497.705078 0.015625)"/>
     <use xlink:href="#DejaVuSans-6f" transform="translate(561.181641 0.015625)"/>
     <use xlink:href="#DejaVuSans-73" transform="translate(622.363281 0.015625)"/>
     <use xlink:href="#DejaVuSans-69" transform="translate(674.462891 0.015625)"/>
     <use xlink:href="#DejaVuSans-74" transform="translate(702.246094 0.015625)"/>
     <use xlink:href="#DejaVuSans-69" transform="translate(741.455078 0.015625)"/>
     <use xlink:href="#DejaVuSans-6f" transform="translate(769.238281 0.015625)"/>
     <use xlink:href="#DejaVuSans-6e" transform="translate(830.419922 0.015625)"/>
    </g>
   </g>
  </g>
  <g id="axes_2">
   <g id="patch_7">
    <path d="M 58.106 190.3975 
L 450 190.3975 
L 450 139.92 
L 58.106 139.92 
z
" style="fill: #ffffff"/>
   </g>
   <g id="matplotlib.axis_3">
    <g id="xtick_8">
     <g id="line2d_20">
      <path d="M 75.919364 190.3975 
L 75.919364 139.92 
" clip-path="url(#p6775ef915b)" style="fill: none; stroke: #b0b0b0; stroke-width: 0.8; stroke-linecap: square"/>
     </g>
     <g id="line2d_21">
      <g>
       <use xlink:href="#m8f44aae2b9" x="75.919364" y="190.3975" style="stroke: #000000; stroke-width: 0.8"/>
      </g>
     </g>
     <g id="text_13">
      <!-- 0 -->
      <g transform="translate(72.738114 204.995937)scale(0.1 -0.1)">
       <use xlink:href="#DejaVuSans-30"/>
      </g>
     </g>
    </g>
    <g id="xtick_9">
     <g id="line2d_22">
      <path d="M 135.796216 190.3975 
L 135.796216 139.92 
" clip-path="url(#p6775ef915b)" style="fill: none; stroke: #b0b0b0; stroke-width: 0.8; stroke-linecap: square"/>
     </g>
     <g id="line2d_23">
      <g>
       <use xlink:href="#m8f44aae2b9" x="135.796216" y="190.3975" style="stroke: #000000; stroke-width: 0.8"/>
      </g>
     </g>
     <g id="text_14">
      <!-- 2 -->
      <g transform="translate(132.614966 204.995937)scale(0.1 -0.1)">
       <use xlink:href="#DejaVuSans-32"/>
      </g>
     </g>
    </g>
    <g id="xtick_10">
     <g id="line2d_24">
      <path d="M 195.673069 190.3975 
L 195.673069 139.92 
" clip-path="url(#p6775ef915b)" style="fill: none; stroke: #b0b0b0; stroke-width: 0.8; stroke-linecap: square"/>
     </g>
     <g id="line2d_25">
      <g>
       <use xlink:href="#m8f44aae2b9" x="195.673069" y="190.3975" style="stroke: #000000; stroke-width: 0.8"/>
      </g>
     </g>
     <g id="text_15">
      <!-- 4 -->
      <g transform="translate(192.491819 204.995937)scale(0.1 -0.1)">
       <use xlink:href="#DejaVuSans-34"/>
      </g>
     </g>
    </g>
    <g id="xtick_11">
     <g id="line2d_26">
      <path d="M 255.549921 190.3975 
L 255.549921 139.92 
" clip-path="url(#p6775ef915b)" style="fill: none; stroke: #b0b0b0; stroke-width: 0.8; stroke-linecap: square"/>
     </g>
     <g id="line2d_27">
      <g>
       <use xlink:href="#m8f44aae2b9" x="255.549921" y="190.3975" style="stroke: #000000; stroke-width: 0.8"/>
      </g>
     </g>
     <g id="text_16">
      <!-- 6 -->
      <g transform="translate(252.368671 204.995937)scale(0.1 -0.1)">
       <use xlink:href="#DejaVuSans-36"/>
      </g>
     </g>
    </g>
    <g id="xtick_12">
     <g id="line2d_28">
      <path d="M 315.426774 190.3975 
L 315.426774 139.92 
" clip-path="url(#p6775ef915b)" style="fill: none; stroke: #b0b0b0; stroke-width: 0.8; stroke-linecap: square"/>
     </g>
     <g id="line2d_29">
      <g>
       <use xlink:href="#m8f44aae2b9" x="315.426774" y="190.3975" style="stroke: #000000; stroke-width: 0.8"/>
      </g>
     </g>
     <g id="text_17">
      <!-- 8 -->
      <g transform="translate(312.245524 204.995937)scale(0.1 -0.1)">
       <use xlink:href="#DejaVuSans-38"/>
      </g>
     </g>
    </g>
    <g id="xtick_13">
     <g id="line2d_30">
      <path d="M 375.303626 190.3975 
L 375.303626 139.92 
" clip-path="url(#p6775ef915b)" style="fill: none; stroke: #b0b0b0; stroke-width: 0.8; stroke-linecap: square"/>
     </g>
     <g id="line2d_31">
      <g>
       <use xlink:href="#m8f44aae2b9" x="375.303626" y="190.3975" style="stroke: #000000; stroke-width: 0.8"/>
      </g>
     </g>
     <g id="text_18">
      <!-- 10 -->
      <g transform="translate(368.941126 204.995937)scale(0.1 -0.1)">
       <use xlink:href="#DejaVuSans-31"/>
       <use xlink:href="#DejaVuSans-30" x="63.623047"/>
      </g>
     </g>
    </g>
    <g id="xtick_14">
     <g id="line2d_32">
      <path d="M 435.180479 190.3975 
L 435.180479 139.92 
" clip-path="url(#p6775ef915b)" style="fill: none; stroke: #b0b0b0; stroke-width: 0.8; stroke-linecap: square"/>
     </g>
     <g id="line2d_33">
      <g>
       <use xlink:href="#m8f44aae2b9" x="435.180479" y="190.3975" style="stroke: #000000; stroke-width: 0.8"/>
      </g>
     </g>
     <g id="text_19">
      <!-- 12 -->
      <g transform="translate(428.817979 204.995937)scale(0.1 -0.1)">
       <use xlink:href="#DejaVuSans-31"/>
       <use xlink:href="#DejaVuSans-32" x="63.623047"/>
      </g>
     </g>
    </g>
    <g id="text_20">
     <!-- $t$ [s] -->
     <g transform="translate(243.953 218.674062)scale(0.1 -0.1)">
      <use xlink:href="#DejaVuSans-Oblique-74" transform="translate(0 0.015625)"/>
      <use xlink:href="#DejaVuSans-20" transform="translate(39.208984 0.015625)"/>
      <use xlink:href="#DejaVuSans-5b" transform="translate(70.996094 0.015625)"/>
      <use xlink:href="#DejaVuSans-73" transform="translate(110.009766 0.015625)"/>
      <use xlink:href="#DejaVuSans-5d" transform="translate(162.109375 0.015625)"/>
     </g>
    </g>
   </g>
   <g id="matplotlib.axis_4">
    <g id="ytick_3">
     <g id="line2d_34">
      <path d="M 58.106 179.619288 
L 450 179.619288 
" clip-path="url(#p6775ef915b)" style="fill: none; stroke: #b0b0b0; stroke-width: 0.8; stroke-linecap: square"/>
     </g>
     <g id="line2d_35">
      <g>
       <use xlink:href="#m36e673e7c8" x="58.106" y="179.619288" style="stroke: #000000; stroke-width: 0.8"/>
      </g>
     </g>
     <g id="text_21">
      <!-- −0.1 -->
      <g transform="translate(26.823188 183.418507)scale(0.1 -0.1)">
       <defs>
        <path id="DejaVuSans-2212" d="M 678 2272 
L 4684 2272 
L 4684 1741 
L 678 1741 
L 678 2272 
z
" transform="scale(0.015625)"/>
        <path id="DejaVuSans-2e" d="M 684 794 
L 1344 794 
L 1344 0 
L 684 0 
L 684 794 
z
" transform="scale(0.015625)"/>
       </defs>
       <use xlink:href="#DejaVuSans-2212"/>
       <use xlink:href="#DejaVuSans-30" x="83.789062"/>
       <use xlink:href="#DejaVuSans-2e" x="147.412109"/>
       <use xlink:href="#DejaVuSans-31" x="179.199219"/>
      </g>
     </g>
    </g>
    <g id="ytick_4">
     <g id="line2d_36">
      <path d="M 58.106 164.471044 
L 450 164.471044 
" clip-path="url(#p6775ef915b)" style="fill: none; stroke: #b0b0b0; stroke-width: 0.8; stroke-linecap: square"/>
     </g>
     <g id="line2d_37">
      <g>
       <use xlink:href="#m36e673e7c8" x="58.106" y="164.471044" style="stroke: #000000; stroke-width: 0.8"/>
      </g>
     </g>
     <g id="text_22">
      <!-- 0.0 -->
      <g transform="translate(35.202875 168.270263)scale(0.1 -0.1)">
       <use xlink:href="#DejaVuSans-30"/>
       <use xlink:href="#DejaVuSans-2e" x="63.623047"/>
       <use xlink:href="#DejaVuSans-30" x="95.410156"/>
      </g>
     </g>
    </g>
    <g id="ytick_5">
     <g id="line2d_38">
      <path d="M 58.106 149.3228 
L 450 149.3228 
" clip-path="url(#p6775ef915b)" style="fill: none; stroke: #b0b0b0; stroke-width: 0.8; stroke-linecap: square"/>
     </g>
     <g id="line2d_39">
      <g>
       <use xlink:href="#m36e673e7c8" x="58.106" y="149.3228" style="stroke: #000000; stroke-width: 0.8"/>
      </g>
     </g>
     <g id="text_23">
      <!-- 0.1 -->
      <g transform="translate(35.202875 153.122019)scale(0.1 -0.1)">
       <use xlink:href="#DejaVuSans-30"/>
       <use xlink:href="#DejaVuSans-2e" x="63.623047"/>
       <use xlink:href="#DejaVuSans-31" x="95.410156"/>
      </g>
     </g>
    </g>
    <g id="text_24">
     <!-- $e_z$ [m] -->
     <g transform="translate(20.7435 180.60875)rotate(-90)scale(0.1 -0.1)">
      <defs>
       <path id="DejaVuSans-Oblique-7a" d="M 744 3500 
L 3475 3500 
L 3372 2975 
L 738 459 
L 2913 459 
L 2822 0 
L -19 0 
L 84 525 
L 2719 3041 
L 653 3041 
L 744 3500 
z
" transform="scale(0.015625)"/>
      </defs>
      <use xlink:href="#DejaVuSans-Oblique-65" transform="translate(0 0.015625)"/>
      <use xlink:href="#DejaVuSans-Oblique-7a" transform="translate(61.523438 -16.390625)scale(0.7)"/>
      <use xlink:href="#DejaVuSans-20" transform="translate(101.000977 0.015625)"/>
      <use xlink:href="#DejaVuSans-5b" transform="translate(132.788086 0.015625)"/>
      <use xlink:href="#DejaVuSans-6d" transform="translate(171.801758 0.015625)"/>
      <use xlink:href="#DejaVuSans-5d" transform="translate(269.213867 0.015625)"/>
     </g>
    </g>
   </g>
   <g id="line2d_40">
    <path d="M 75.919364 165.910906 
L 77.71718 165.965251 
L 79.514996 165.833924 
L 81.312813 166.100597 
L 81.912085 166.202292 
L 82.810993 166.136435 
L 84.009537 165.608047 
L 84.608809 165.197095 
L 84.908445 164.93723 
L 85.507717 164.680829 
L 86.10699 164.13617 
L 86.406626 163.926529 
L 87.005898 163.727913 
L 87.305534 163.594818 
L 88.204442 162.728471 
L 88.504078 162.613518 
L 89.10335 162.091289 
L 89.402986 161.466713 
L 89.702622 161.466713 
L 90.002258 160.353898 
L 90.301894 160.153157 
L 90.901167 159.32834 
L 91.200803 158.285866 
L 91.500439 158.285866 
L 91.800075 157.488306 
L 93.597891 155.386292 
L 94.496799 155.038794 
L 95.096071 154.932334 
L 96.294616 154.965819 
L 99.290976 155.279686 
L 100.189884 155.145915 
L 101.388429 154.828268 
L 103.485881 153.547191 
L 103.785517 153.212899 
L 104.085153 153.212899 
L 104.384789 152.877835 
L 105.283697 152.29972 
L 105.583333 151.972962 
L 105.882969 151.972962 
L 106.482242 151.477189 
L 107.081514 151.045301 
L 107.38115 150.677458 
L 107.680786 150.677458 
L 107.980422 150.284085 
L 108.87933 149.645424 
L 110.077874 148.400116 
L 110.677146 147.844044 
L 110.976782 147.41778 
L 111.276418 147.41778 
L 111.576055 147.011218 
L 112.175327 146.528524 
L 112.474963 146.248719 
L 113.074235 145.973126 
L 113.373871 145.610157 
L 113.673507 145.610157 
L 113.973143 145.076243 
L 114.572415 144.823737 
L 114.872051 144.664717 
L 115.171687 144.37513 
L 116.669867 143.843226 
L 117.26914 143.704743 
L 118.76732 143.579833 
L 121.164408 143.371758 
L 123.261861 142.828665 
L 123.861133 142.576671 
L 125.359313 142.23691 
L 126.258221 142.254412 
L 127.456766 142.626425 
L 128.954946 143.977339 
L 129.254582 143.977339 
L 129.554218 144.445266 
L 130.453126 145.308509 
L 130.752762 145.801537 
L 131.052398 145.801537 
L 131.352034 146.279547 
L 132.250943 147.06002 
L 132.550579 147.471796 
L 134.048759 148.538793 
L 134.348395 148.947395 
L 135.846575 150.1206 
L 137.344755 151.935583 
L 137.944028 152.654175 
L 138.243664 153.206119 
L 140.640752 155.239821 
L 141.53966 155.7516 
L 142.138932 156.161234 
L 143.637113 156.985367 
L 144.236385 157.482448 
L 144.835657 157.818725 
L 145.135293 158.148683 
L 145.434929 158.148683 
L 145.734565 158.612373 
L 146.333837 158.82548 
L 147.232745 159.21106 
L 147.532381 159.55395 
L 148.43129 159.826674 
L 149.030562 160.172402 
L 149.92947 160.804935 
L 150.229106 160.804935 
L 150.828378 161.332133 
L 151.42765 161.828751 
L 151.727286 162.251224 
L 153.525103 163.647147 
L 153.824739 164.061837 
L 155.322919 165.205568 
L 155.622555 165.658381 
L 156.821099 166.687279 
L 158.618916 169.10544 
L 158.918552 169.469396 
L 160.117096 171.511945 
L 160.716368 172.401153 
L 161.016004 173.069619 
L 162.214548 174.265648 
L 162.514184 174.930534 
L 162.81382 174.930534 
L 163.113456 175.439284 
L 164.012365 176.191171 
L 164.611637 177.073593 
L 164.911273 177.444881 
L 165.510545 177.806082 
L 165.810181 178.039721 
L 166.109817 178.485317 
L 166.409453 178.485317 
L 166.709089 179.078092 
L 167.308361 179.331931 
L 168.806542 180.062614 
L 170.903994 180.333633 
L 172.102538 180.603636 
L 174.199991 181.486766 
L 175.098899 181.600555 
L 177.795623 181.635235 
L 178.694531 181.901873 
L 180.192712 182.201625 
L 181.391256 182.086027 
L 182.5898 181.798777 
L 183.189072 181.799685 
L 183.488708 181.926194 
L 183.788344 181.926194 
L 184.687253 182.386838 
L 184.986889 182.530199 
L 185.286525 182.805896 
L 185.586161 182.805896 
L 185.885797 183.119494 
L 187.383977 183.187486 
L 190.380338 182.303615 
L 191.279246 182.420487 
L 191.878518 182.61415 
L 194.275606 184.071912 
L 195.474151 184.308262 
L 196.972331 184.419021 
L 198.770147 184.804205 
L 199.968692 185.595374 
L 200.567964 185.825188 
L 200.8676 186.117226 
L 202.36578 186.671252 
L 202.965052 186.771242 
L 204.163596 186.716237 
L 205.362141 186.545608 
L 206.560685 186.534574 
L 207.459593 186.677087 
L 210.156318 186.987359 
L 211.055226 186.80336 
L 212.25377 186.423715 
L 213.152678 186.285724 
L 214.051586 186.310067 
L 214.950494 186.412452 
L 215.849403 186.622707 
L 217.647219 186.597324 
L 219.145399 186.346765 
L 219.744671 186.202939 
L 220.943216 186.204102 
L 221.842124 186.322051 
L 225.13812 186.640553 
L 228.434117 186.673595 
L 229.632661 186.98744 
L 230.231933 187.20267 
L 231.430478 187.351866 
L 232.928658 187.20309 
L 234.426838 186.982025 
L 235.325746 187.060939 
L 237.722835 187.990697 
L 238.621743 188.103068 
L 239.820287 187.879351 
L 241.91774 187.106421 
L 242.816648 186.886432 
L 243.715556 186.933789 
L 244.614464 187.126154 
L 246.112644 187.279483 
L 247.011553 187.153494 
L 248.809369 186.352517 
L 249.408641 186.136278 
L 250.307549 185.793286 
L 250.607185 185.503851 
L 252.405002 185.367551 
L 255.101726 185.68613 
L 255.700998 185.605195 
L 256.000634 185.311049 
L 256.30027 185.311049 
L 257.798451 184.428806 
L 258.098087 184.428806 
L 258.397723 183.921297 
L 258.996995 183.642524 
L 259.296631 183.454643 
L 259.596267 183.095412 
L 259.895903 183.095412 
L 260.195539 182.667043 
L 261.693719 182.425629 
L 264.69008 182.942287 
L 265.588988 182.695506 
L 266.18826 182.365518 
L 266.487896 182.365518 
L 267.087169 181.989155 
L 267.986077 181.425155 
L 268.285713 181.425155 
L 268.884985 181.0138 
L 269.783893 180.51533 
L 270.383165 180.407558 
L 271.282073 180.433671 
L 273.978798 181.097223 
L 274.877706 181.070828 
L 275.776614 180.752245 
L 276.675522 180.380893 
L 276.975158 180.158414 
L 277.274794 180.158414 
L 277.874067 179.796395 
L 278.772975 179.285948 
L 279.072611 179.285948 
L 279.671883 179.109749 
L 280.271155 179.12303 
L 282.668244 179.768113 
L 283.267516 179.92499 
L 284.46606 179.841326 
L 284.765696 179.688548 
L 285.065332 179.688548 
L 285.364968 179.379237 
L 286.263876 179.11076 
L 286.563512 178.89421 
L 286.863148 178.89421 
L 287.162784 178.571211 
L 288.061693 178.353891 
L 288.660965 178.22292 
L 289.859509 178.345978 
L 290.458781 178.574371 
L 292.256597 179.014636 
L 292.855869 178.98925 
L 296.751138 177.751833 
L 300.646407 177.861727 
L 301.844951 177.904567 
L 306.639128 177.626861 
L 308.736581 177.668678 
L 312.631849 177.462884 
L 314.13003 177.613762 
L 316.227482 177.803036 
L 318.62457 177.800201 
L 320.122751 177.634125 
L 321.620931 177.710272 
L 323.119111 177.93056 
L 328.51256 178.615288 
L 331.209285 178.839046 
L 331.808557 178.984558 
L 333.007101 179.252101 
L 334.205645 179.500066 
L 335.104554 179.655025 
L 338.40055 179.8184 
L 339.299458 179.928954 
L 340.198367 180.088927 
L 342.595455 180.643654 
L 343.793999 180.693078 
L 346.191088 180.735165 
L 348.28854 181.395166 
L 348.887812 181.813737 
L 349.78672 182.332843 
L 350.086357 182.582311 
L 350.385993 182.582311 
L 350.985265 182.826466 
L 351.884173 182.870362 
L 352.483445 182.784179 
L 353.382353 182.548875 
L 353.681989 182.417191 
L 354.281261 182.318898 
L 355.479806 182.27651 
L 357.577258 182.572565 
L 358.775802 182.444883 
L 359.375074 182.210726 
L 359.974346 181.778828 
L 360.573619 181.417907 
L 361.172891 180.755228 
L 361.472527 180.511962 
L 362.371435 180.198318 
L 362.970707 179.978317 
L 365.667432 179.646522 
L 365.967068 179.522489 
L 367.465248 177.998086 
L 367.764884 177.998086 
L 368.06452 177.541526 
L 368.963428 176.805133 
L 369.263064 176.443524 
L 369.5627 176.443524 
L 369.862336 176.156083 
L 371.060881 175.830998 
L 373.158333 175.731828 
L 376.154694 174.362945 
L 379.151054 174.104116 
L 379.750326 173.649108 
L 380.349598 173.222228 
L 380.649234 172.631045 
L 380.94887 172.631045 
L 381.248507 172.198564 
L 382.447051 171.556413 
L 383.046323 171.527961 
L 383.645595 171.619218 
L 383.945231 171.710243 
L 384.244867 171.975444 
L 384.544503 171.975444 
L 385.143775 172.213436 
L 386.042683 172.253683 
L 386.34232 172.183728 
L 387.540864 171.491079 
L 387.8405 170.901362 
L 388.140136 170.901362 
L 388.439772 170.385116 
L 389.33868 169.624242 
L 389.937952 168.854264 
L 390.237588 168.608133 
L 392.634677 168.170869 
L 393.833221 168.064643 
L 394.732129 167.773062 
L 395.031765 167.545868 
L 395.631037 166.9783 
L 396.829582 166.136639 
L 397.129218 165.83176 
L 398.028126 165.56392 
L 398.627398 165.546035 
L 401.324122 166.327947 
L 401.923395 166.256826 
L 402.223031 166.128877 
L 402.822303 165.678883 
L 403.721211 165.028212 
L 404.020847 164.507411 
L 404.320483 164.507411 
L 404.620119 164.193643 
L 405.818663 163.821858 
L 406.417935 163.845702 
L 407.316844 164.113397 
L 408.215752 164.656324 
L 409.11466 164.837635 
L 410.013568 164.656391 
L 410.912476 164.217315 
L 411.511748 163.741822 
L 411.811384 163.366153 
L 413.609201 162.407834 
L 414.807745 162.312963 
L 415.706653 162.434003 
L 417.50447 162.750632 
L 418.403378 162.605601 
L 418.703014 162.451845 
L 419.302286 161.982733 
L 419.901558 161.575067 
L 420.201194 161.142115 
L 420.50083 161.142115 
L 420.800466 160.619142 
L 422.298646 160.335116 
L 422.897919 160.572503 
L 423.497191 160.835033 
L 423.796827 161.103598 
L 424.096463 161.103598 
L 424.396099 161.402831 
L 425.894279 161.491322 
L 427.392459 160.784466 
L 428.291368 159.942257 
L 429.489912 159.39344 
L 430.089184 159.350702 
L 430.688456 159.481337 
L 431.887 160.277267 
L 432.186636 160.454792 
L 432.186636 160.454792 
" clip-path="url(#p6775ef915b)" style="fill: none; stroke: #0000ff; stroke-width: 1.5; stroke-linecap: square"/>
   </g>
   <g id="patch_8">
    <path d="M 58.106 190.3975 
L 58.106 139.92 
" style="fill: none; stroke: #000000; stroke-width: 0.8; stroke-linejoin: miter; stroke-linecap: square"/>
   </g>
   <g id="patch_9">
    <path d="M 450 190.3975 
L 450 139.92 
" style="fill: none; stroke: #000000; stroke-width: 0.8; stroke-linejoin: miter; stroke-linecap: square"/>
   </g>
   <g id="patch_10">
    <path d="M 58.106 190.3975 
L 450 190.3975 
" style="fill: none; stroke: #000000; stroke-width: 0.8; stroke-linejoin: miter; stroke-linecap: square"/>
   </g>
   <g id="patch_11">
    <path d="M 58.106 139.92 
L 450 139.92 
" style="fill: none; stroke: #000000; stroke-width: 0.8; stroke-linejoin: miter; stroke-linecap: square"/>
   </g>
   <g id="text_25">
    <!-- Error in $z$-position -->
    <g transform="translate(200.773 133.92)scale(0.12 -0.12)">
     <use xlink:href="#DejaVuSans-45" transform="translate(0 0.015625)"/>
     <use xlink:href="#DejaVuSans-72" transform="translate(63.183594 0.015625)"/>
     <use xlink:href="#DejaVuSans-72" transform="translate(104.296875 0.015625)"/>
     <use xlink:href="#DejaVuSans-6f" transform="translate(145.410156 0.015625)"/>
     <use xlink:href="#DejaVuSans-72" transform="translate(206.591797 0.015625)"/>
     <use xlink:href="#DejaVuSans-20" transform="translate(247.705078 0.015625)"/>
     <use xlink:href="#DejaVuSans-69" transform="translate(279.492188 0.015625)"/>
     <use xlink:href="#DejaVuSans-6e" transform="translate(307.275391 0.015625)"/>
     <use xlink:href="#DejaVuSans-20" transform="translate(370.654297 0.015625)"/>
     <use xlink:href="#DejaVuSans-Oblique-7a" transform="translate(402.441406 0.015625)"/>
     <use xlink:href="#DejaVuSans-2d" transform="translate(454.931641 0.015625)"/>
     <use xlink:href="#DejaVuSans-70" transform="translate(491.015625 0.015625)"/>
     <use xlink:href="#DejaVuSans-6f" transform="translate(554.492188 0.015625)"/>
     <use xlink:href="#DejaVuSans-73" transform="translate(615.673828 0.015625)"/>
     <use xlink:href="#DejaVuSans-69" transform="translate(667.773438 0.015625)"/>
     <use xlink:href="#DejaVuSans-74" transform="translate(695.556641 0.015625)"/>
     <use xlink:href="#DejaVuSans-69" transform="translate(734.765625 0.015625)"/>
     <use xlink:href="#DejaVuSans-6f" transform="translate(762.548828 0.015625)"/>
     <use xlink:href="#DejaVuSans-6e" transform="translate(823.730469 0.015625)"/>
    </g>
   </g>
  </g>
  <g id="axes_3">
   <g id="patch_12">
    <path d="M 58.106 301.9975 
L 450 301.9975 
L 450 251.52 
L 58.106 251.52 
z
" style="fill: #ffffff"/>
   </g>
   <g id="matplotlib.axis_5">
    <g id="xtick_15">
     <g id="line2d_41">
      <path d="M 75.919364 301.9975 
L 75.919364 251.52 
" clip-path="url(#pec0eeb2432)" style="fill: none; stroke: #b0b0b0; stroke-width: 0.8; stroke-linecap: square"/>
     </g>
     <g id="line2d_42">
      <g>
       <use xlink:href="#m8f44aae2b9" x="75.919364" y="301.9975" style="stroke: #000000; stroke-width: 0.8"/>
      </g>
     </g>
     <g id="text_26">
      <!-- 0 -->
      <g transform="translate(72.738114 316.595937)scale(0.1 -0.1)">
       <use xlink:href="#DejaVuSans-30"/>
      </g>
     </g>
    </g>
    <g id="xtick_16">
     <g id="line2d_43">
      <path d="M 135.796216 301.9975 
L 135.796216 251.52 
" clip-path="url(#pec0eeb2432)" style="fill: none; stroke: #b0b0b0; stroke-width: 0.8; stroke-linecap: square"/>
     </g>
     <g id="line2d_44">
      <g>
       <use xlink:href="#m8f44aae2b9" x="135.796216" y="301.9975" style="stroke: #000000; stroke-width: 0.8"/>
      </g>
     </g>
     <g id="text_27">
      <!-- 2 -->
      <g transform="translate(132.614966 316.595937)scale(0.1 -0.1)">
       <use xlink:href="#DejaVuSans-32"/>
      </g>
     </g>
    </g>
    <g id="xtick_17">
     <g id="line2d_45">
      <path d="M 195.673069 301.9975 
L 195.673069 251.52 
" clip-path="url(#pec0eeb2432)" style="fill: none; stroke: #b0b0b0; stroke-width: 0.8; stroke-linecap: square"/>
     </g>
     <g id="line2d_46">
      <g>
       <use xlink:href="#m8f44aae2b9" x="195.673069" y="301.9975" style="stroke: #000000; stroke-width: 0.8"/>
      </g>
     </g>
     <g id="text_28">
      <!-- 4 -->
      <g transform="translate(192.491819 316.595937)scale(0.1 -0.1)">
       <use xlink:href="#DejaVuSans-34"/>
      </g>
     </g>
    </g>
    <g id="xtick_18">
     <g id="line2d_47">
      <path d="M 255.549921 301.9975 
L 255.549921 251.52 
" clip-path="url(#pec0eeb2432)" style="fill: none; stroke: #b0b0b0; stroke-width: 0.8; stroke-linecap: square"/>
     </g>
     <g id="line2d_48">
      <g>
       <use xlink:href="#m8f44aae2b9" x="255.549921" y="301.9975" style="stroke: #000000; stroke-width: 0.8"/>
      </g>
     </g>
     <g id="text_29">
      <!-- 6 -->
      <g transform="translate(252.368671 316.595937)scale(0.1 -0.1)">
       <use xlink:href="#DejaVuSans-36"/>
      </g>
     </g>
    </g>
    <g id="xtick_19">
     <g id="line2d_49">
      <path d="M 315.426774 301.9975 
L 315.426774 251.52 
" clip-path="url(#pec0eeb2432)" style="fill: none; stroke: #b0b0b0; stroke-width: 0.8; stroke-linecap: square"/>
     </g>
     <g id="line2d_50">
      <g>
       <use xlink:href="#m8f44aae2b9" x="315.426774" y="301.9975" style="stroke: #000000; stroke-width: 0.8"/>
      </g>
     </g>
     <g id="text_30">
      <!-- 8 -->
      <g transform="translate(312.245524 316.595937)scale(0.1 -0.1)">
       <use xlink:href="#DejaVuSans-38"/>
      </g>
     </g>
    </g>
    <g id="xtick_20">
     <g id="line2d_51">
      <path d="M 375.303626 301.9975 
L 375.303626 251.52 
" clip-path="url(#pec0eeb2432)" style="fill: none; stroke: #b0b0b0; stroke-width: 0.8; stroke-linecap: square"/>
     </g>
     <g id="line2d_52">
      <g>
       <use xlink:href="#m8f44aae2b9" x="375.303626" y="301.9975" style="stroke: #000000; stroke-width: 0.8"/>
      </g>
     </g>
     <g id="text_31">
      <!-- 10 -->
      <g transform="translate(368.941126 316.595937)scale(0.1 -0.1)">
       <use xlink:href="#DejaVuSans-31"/>
       <use xlink:href="#DejaVuSans-30" x="63.623047"/>
      </g>
     </g>
    </g>
    <g id="xtick_21">
     <g id="line2d_53">
      <path d="M 435.180479 301.9975 
L 435.180479 251.52 
" clip-path="url(#pec0eeb2432)" style="fill: none; stroke: #b0b0b0; stroke-width: 0.8; stroke-linecap: square"/>
     </g>
     <g id="line2d_54">
      <g>
       <use xlink:href="#m8f44aae2b9" x="435.180479" y="301.9975" style="stroke: #000000; stroke-width: 0.8"/>
      </g>
     </g>
     <g id="text_32">
      <!-- 12 -->
      <g transform="translate(428.817979 316.595937)scale(0.1 -0.1)">
       <use xlink:href="#DejaVuSans-31"/>
       <use xlink:href="#DejaVuSans-32" x="63.623047"/>
      </g>
     </g>
    </g>
    <g id="text_33">
     <!-- $t$ [s] -->
     <g transform="translate(243.953 330.274063)scale(0.1 -0.1)">
      <use xlink:href="#DejaVuSans-Oblique-74" transform="translate(0 0.015625)"/>
      <use xlink:href="#DejaVuSans-20" transform="translate(39.208984 0.015625)"/>
      <use xlink:href="#DejaVuSans-5b" transform="translate(70.996094 0.015625)"/>
      <use xlink:href="#DejaVuSans-73" transform="translate(110.009766 0.015625)"/>
      <use xlink:href="#DejaVuSans-5d" transform="translate(162.109375 0.015625)"/>
     </g>
    </g>
   </g>
   <g id="matplotlib.axis_6">
    <g id="ytick_6">
     <g id="line2d_55">
      <path d="M 58.106 289.195496 
L 450 289.195496 
" clip-path="url(#pec0eeb2432)" style="fill: none; stroke: #b0b0b0; stroke-width: 0.8; stroke-linecap: square"/>
     </g>
     <g id="line2d_56">
      <g>
       <use xlink:href="#m36e673e7c8" x="58.106" y="289.195496" style="stroke: #000000; stroke-width: 0.8"/>
      </g>
     </g>
     <g id="text_34">
      <!-- −0.1 -->
      <g transform="translate(26.823188 292.994715)scale(0.1 -0.1)">
       <use xlink:href="#DejaVuSans-2212"/>
       <use xlink:href="#DejaVuSans-30" x="83.789062"/>
       <use xlink:href="#DejaVuSans-2e" x="147.412109"/>
       <use xlink:href="#DejaVuSans-31" x="179.199219"/>
      </g>
     </g>
    </g>
    <g id="ytick_7">
     <g id="line2d_57">
      <path d="M 58.106 274.396137 
L 450 274.396137 
" clip-path="url(#pec0eeb2432)" style="fill: none; stroke: #b0b0b0; stroke-width: 0.8; stroke-linecap: square"/>
     </g>
     <g id="line2d_58">
      <g>
       <use xlink:href="#m36e673e7c8" x="58.106" y="274.396137" style="stroke: #000000; stroke-width: 0.8"/>
      </g>
     </g>
     <g id="text_35">
      <!-- 0.0 -->
      <g transform="translate(35.202875 278.195356)scale(0.1 -0.1)">
       <use xlink:href="#DejaVuSans-30"/>
       <use xlink:href="#DejaVuSans-2e" x="63.623047"/>
       <use xlink:href="#DejaVuSans-30" x="95.410156"/>
      </g>
     </g>
    </g>
    <g id="ytick_8">
     <g id="line2d_59">
      <path d="M 58.106 259.596778 
L 450 259.596778 
" clip-path="url(#pec0eeb2432)" style="fill: none; stroke: #b0b0b0; stroke-width: 0.8; stroke-linecap: square"/>
     </g>
     <g id="line2d_60">
      <g>
       <use xlink:href="#m36e673e7c8" x="58.106" y="259.596778" style="stroke: #000000; stroke-width: 0.8"/>
      </g>
     </g>
     <g id="text_36">
      <!-- 0.1 -->
      <g transform="translate(35.202875 263.395997)scale(0.1 -0.1)">
       <use xlink:href="#DejaVuSans-30"/>
       <use xlink:href="#DejaVuSans-2e" x="63.623047"/>
       <use xlink:href="#DejaVuSans-31" x="95.410156"/>
      </g>
     </g>
    </g>
    <g id="text_37">
     <!-- $e_\theta$ [rad] -->
     <g transform="translate(20.7435 295.90875)rotate(-90)scale(0.1 -0.1)">
      <defs>
       <path id="DejaVuSans-Oblique-3b8" d="M 2913 2219 
L 925 2219 
Q 791 1284 928 888 
Q 1100 400 1566 400 
Q 2034 400 2391 891 
Q 2703 1322 2913 2219 
z
M 3009 2750 
Q 3094 3638 2984 3950 
Q 2813 4444 2353 4444 
Q 1875 4444 1525 3956 
Q 1250 3563 1034 2750 
L 3009 2750 
z
M 2444 4913 
Q 3194 4913 3494 4250 
Q 3794 3591 3566 2422 
Q 3341 1256 2781 594 
Q 2225 -72 1475 -72 
Q 722 -72 425 594 
Q 128 1256 353 2422 
Q 581 3591 1134 4250 
Q 1691 4913 2444 4913 
z
" transform="scale(0.015625)"/>
       <path id="DejaVuSans-61" d="M 2194 1759 
Q 1497 1759 1228 1600 
Q 959 1441 959 1056 
Q 959 750 1161 570 
Q 1363 391 1709 391 
Q 2188 391 2477 730 
Q 2766 1069 2766 1631 
L 2766 1759 
L 2194 1759 
z
M 3341 1997 
L 3341 0 
L 2766 0 
L 2766 531 
Q 2569 213 2275 61 
Q 1981 -91 1556 -91 
Q 1019 -91 701 211 
Q 384 513 384 1019 
Q 384 1609 779 1909 
Q 1175 2209 1959 2209 
L 2766 2209 
L 2766 2266 
Q 2766 2663 2505 2880 
Q 2244 3097 1772 3097 
Q 1472 3097 1187 3025 
Q 903 2953 641 2809 
L 641 3341 
Q 956 3463 1253 3523 
Q 1550 3584 1831 3584 
Q 2591 3584 2966 3190 
Q 3341 2797 3341 1997 
z
" transform="scale(0.015625)"/>
       <path id="DejaVuSans-64" d="M 2906 2969 
L 2906 4863 
L 3481 4863 
L 3481 0 
L 2906 0 
L 2906 525 
Q 2725 213 2448 61 
Q 2172 -91 1784 -91 
Q 1150 -91 751 415 
Q 353 922 353 1747 
Q 353 2572 751 3078 
Q 1150 3584 1784 3584 
Q 2172 3584 2448 3432 
Q 2725 3281 2906 2969 
z
M 947 1747 
Q 947 1113 1208 752 
Q 1469 391 1925 391 
Q 2381 391 2643 752 
Q 2906 1113 2906 1747 
Q 2906 2381 2643 2742 
Q 2381 3103 1925 3103 
Q 1469 3103 1208 2742 
Q 947 2381 947 1747 
z
" transform="scale(0.015625)"/>
      </defs>
      <use xlink:href="#DejaVuSans-Oblique-65" transform="translate(0 0.015625)"/>
      <use xlink:href="#DejaVuSans-Oblique-3b8" transform="translate(61.523438 -16.390625)scale(0.7)"/>
      <use xlink:href="#DejaVuSans-20" transform="translate(107.084961 0.015625)"/>
      <use xlink:href="#DejaVuSans-5b" transform="translate(138.87207 0.015625)"/>
      <use xlink:href="#DejaVuSans-72" transform="translate(177.885742 0.015625)"/>
      <use xlink:href="#DejaVuSans-61" transform="translate(218.999023 0.015625)"/>
      <use xlink:href="#DejaVuSans-64" transform="translate(280.27832 0.015625)"/>
      <use xlink:href="#DejaVuSans-5d" transform="translate(343.754883 0.015625)"/>
     </g>
    </g>
   </g>
   <g id="line2d_61">
    <path d="M 75.919364 274.473751 
L 76.219 274.609261 
L 76.518636 274.609261 
L 76.818272 275.006304 
L 77.117908 275.155687 
L 77.417544 275.099025 
L 77.71718 274.487799 
L 78.016816 272.598097 
L 78.316452 272.598097 
L 78.616088 269.703807 
L 79.21536 266.277745 
L 79.814632 260.462179 
L 80.114268 260.462179 
L 80.413905 257.722945 
L 81.312813 254.32346 
L 81.612449 253.814432 
L 81.912085 253.997898 
L 82.211721 254.442693 
L 82.511357 255.125667 
L 83.110629 258.404523 
L 83.410265 260.615626 
L 83.709901 260.615626 
L 84.009537 263.981237 
L 84.309173 265.816037 
L 84.908445 271.905997 
L 85.208081 272.981272 
L 85.507717 275.172921 
L 86.10699 282.82756 
L 86.406626 285.910653 
L 86.706262 286.869245 
L 87.305534 290.291349 
L 87.60517 293.09763 
L 88.204442 296.097909 
L 88.504078 296.457839 
L 89.10335 297.485855 
L 89.402986 297.799465 
L 89.702622 297.799465 
L 90.002258 296.719177 
L 90.301894 296.308303 
L 90.901167 293.907322 
L 91.200803 289.349911 
L 91.500439 289.349911 
L 91.800075 284.910174 
L 92.698983 277.89562 
L 93.597891 268.296164 
L 94.496799 262.968962 
L 94.796435 259.653096 
L 95.096071 259.653096 
L 95.395707 258.085934 
L 95.695343 257.668139 
L 95.99498 257.463647 
L 96.294616 257.473657 
L 96.594252 257.885907 
L 97.193524 259.720279 
L 98.092432 262.235031 
L 99.290976 267.105628 
L 99.590612 267.930638 
L 100.48952 271.117929 
L 101.987701 274.119384 
L 102.287337 274.119384 
L 102.586973 274.876983 
L 103.485881 276.017706 
L 103.785517 276.534729 
L 104.085153 276.534729 
L 104.384789 276.941518 
L 106.781878 278.28612 
L 107.081514 278.620971 
L 107.38115 279.206958 
L 107.680786 279.206958 
L 107.980422 279.927858 
L 109.178966 281.452183 
L 109.478602 281.682297 
L 109.778238 281.617532 
L 110.077874 281.419911 
L 110.37751 281.084596 
L 110.677146 280.327322 
L 110.976782 278.898691 
L 111.276418 278.898691 
L 111.576055 277.112141 
L 111.875691 276.149166 
L 112.474963 273.246726 
L 112.774599 272.798211 
L 113.074235 271.956791 
L 113.373871 270.542631 
L 113.673507 270.542631 
L 113.973143 269.185991 
L 115.471323 268.516722 
L 116.070595 268.703364 
L 116.669867 268.954453 
L 117.568776 270.700974 
L 117.868412 271.661258 
L 118.168048 272.021515 
L 118.467684 272.77391 
L 118.76732 274.277912 
L 119.666228 276.636728 
L 120.565136 277.114018 
L 120.864772 276.867704 
L 121.164408 276.45676 
L 121.464044 275.564567 
L 121.76368 273.990704 
L 122.063317 273.990704 
L 122.362953 272.124424 
L 122.962225 270.128442 
L 123.861133 266.011172 
L 125.059677 262.87522 
L 125.359313 262.660751 
L 125.658949 262.282726 
L 125.958585 261.708485 
L 126.857493 261.1941 
L 128.056038 261.218516 
L 128.954946 261.318695 
L 129.554218 261.222927 
L 130.15349 260.947897 
L 130.453126 260.618545 
L 130.752762 260.06718 
L 131.052398 260.06718 
L 131.352034 259.484424 
L 132.250943 258.713412 
L 132.550579 258.555591 
L 133.449487 258.631668 
L 134.048759 258.832636 
L 135.846575 260.513715 
L 136.146211 261.224952 
L 136.445847 262.427934 
L 137.344755 264.752393 
L 137.644392 265.645185 
L 137.944028 267.053549 
L 138.243664 269.032662 
L 139.741844 274.148731 
L 140.640752 278.098817 
L 141.53966 280.510519 
L 141.839296 281.464683 
L 142.438568 282.027165 
L 143.037841 282.326919 
L 143.637113 282.397011 
L 144.835657 281.74677 
L 145.135293 281.230851 
L 145.434929 281.230851 
L 145.734565 280.07029 
L 146.034201 279.821161 
L 146.633473 278.664697 
L 146.933109 277.327798 
L 147.232745 277.327798 
L 147.532381 275.213739 
L 147.832018 274.860379 
L 149.030562 272.187304 
L 149.92947 271.046086 
L 150.229106 271.046086 
L 150.828378 270.165019 
L 151.128014 269.775554 
L 151.42765 269.068622 
L 151.727286 267.877219 
L 152.626194 265.57456 
L 153.225467 263.814084 
L 154.124375 260.122326 
L 155.622555 256.730121 
L 156.821099 255.795659 
L 157.420371 255.306689 
L 158.31928 255.141241 
L 159.218188 255.1552 
L 160.716368 255.605842 
L 161.31564 256.209047 
L 162.214548 257.182124 
L 162.514184 258.145429 
L 162.81382 258.145429 
L 163.113456 258.882657 
L 165.210909 261.15094 
L 165.810181 261.549718 
L 166.109817 261.980677 
L 166.409453 261.980677 
L 166.709089 262.766048 
L 167.008725 262.921801 
L 167.607997 263.60788 
L 167.907633 264.362743 
L 168.207269 264.747044 
L 168.806542 265.857851 
L 169.106178 266.030867 
L 170.005086 266.946543 
L 170.604358 266.955085 
L 171.20363 266.597238 
L 172.102538 266.21929 
L 172.402174 266.202469 
L 172.70181 266.502857 
L 173.001446 266.502857 
L 173.900355 269.083905 
L 174.499627 272.317 
L 174.799263 272.317 
L 175.098899 274.903679 
L 175.997807 279.160763 
L 176.297443 280.732036 
L 176.597079 281.19705 
L 176.896715 281.446002 
L 177.196351 281.489522 
L 177.495987 281.342575 
L 177.795623 280.782475 
L 178.095259 279.546915 
L 179.293804 276.492751 
L 179.893076 274.682677 
L 180.192712 274.48793 
L 180.492348 274.453887 
L 180.791984 274.579817 
L 181.391256 275.274949 
L 181.690892 276.082 
L 181.990528 277.220078 
L 182.5898 278.09202 
L 183.189072 278.481034 
L 183.488708 278.185514 
L 183.788344 278.185514 
L 184.387617 276.928136 
L 184.986889 275.824919 
L 185.286525 274.805631 
L 185.586161 274.805631 
L 185.885797 273.923476 
L 186.485069 273.889248 
L 186.784705 274.021616 
L 187.683613 275.551792 
L 187.983249 275.938702 
L 188.582521 275.959093 
L 189.48143 273.462472 
L 189.781066 271.674585 
L 190.080702 268.899255 
L 191.578882 261.971262 
L 192.47779 259.153668 
L 192.777426 259.25863 
L 193.077062 259.624725 
L 193.376698 260.229092 
L 193.676334 262.604862 
L 193.97597 262.604862 
L 194.275606 265.09169 
L 195.174515 269.031623 
L 195.474151 270.962244 
L 195.773787 270.962244 
L 196.073423 271.848478 
L 196.373059 271.734863 
L 196.672695 271.289612 
L 196.972331 270.570627 
L 197.271967 268.425469 
L 197.571603 268.425469 
L 197.871239 264.135858 
L 198.170875 263.377197 
L 198.770147 260.386312 
L 199.069783 257.803456 
L 199.669056 255.688932 
L 199.968692 255.25296 
L 200.268328 255.252259 
L 200.567964 255.481504 
L 201.466872 259.825809 
L 201.766508 262.070343 
L 202.066144 262.861552 
L 202.36578 264.459101 
L 202.665416 267.516126 
L 203.564324 271.855858 
L 204.163596 272.563884 
L 204.762868 272.530224 
L 205.062505 270.659839 
L 205.362141 270.207757 
L 205.961413 268.187409 
L 206.261049 266.140474 
L 206.560685 266.140474 
L 206.860321 263.519271 
L 207.159957 263.180714 
L 207.759229 262.166915 
L 208.058865 261.925723 
L 208.358501 261.925723 
L 208.658137 263.230649 
L 208.957773 263.622076 
L 209.557045 265.568022 
L 209.856681 267.953127 
L 210.156318 267.953127 
L 210.455954 271.80877 
L 210.75559 272.436488 
L 211.954134 277.108837 
L 212.25377 277.639153 
L 212.553406 277.82166 
L 212.853042 277.689528 
L 213.152678 277.689528 
L 213.452314 276.972616 
L 213.75195 276.972616 
L 214.051586 274.902662 
L 214.351222 274.47504 
L 214.950494 272.608139 
L 215.250131 270.626254 
L 215.549767 270.626254 
L 215.849403 267.863769 
L 216.149039 267.466075 
L 216.748311 266.260061 
L 217.047947 266.02943 
L 217.347583 266.02943 
L 218.546127 270.06451 
L 218.845763 272.630385 
L 219.145399 272.630385 
L 219.445035 276.467116 
L 219.744671 277.056478 
L 220.64358 280.154229 
L 220.943216 280.154229 
L 221.842124 278.390884 
L 222.14176 277.274513 
L 222.441396 273.681729 
L 222.741032 273.681729 
L 223.040668 270.322003 
L 223.939576 265.227131 
L 224.239212 261.96378 
L 224.538848 261.96378 
L 224.838484 260.651262 
L 225.13812 260.491286 
L 225.437756 260.664333 
L 225.737393 261.157457 
L 226.037029 263.619855 
L 226.336665 263.619855 
L 226.636301 266.417279 
L 228.434117 275.128208 
L 228.733753 275.377676 
L 229.033389 275.357317 
L 229.333025 275.067885 
L 229.632661 274.150877 
L 230.231933 270.853444 
L 231.130842 266.407965 
L 232.02975 260.357428 
L 232.629022 259.009184 
L 232.928658 258.797486 
L 233.228294 259.104482 
L 233.827566 261.669197 
L 234.426838 264.324609 
L 235.02611 269.474793 
L 235.325746 269.474793 
L 235.625382 272.090751 
L 236.224655 274.124056 
L 236.823927 275.160238 
L 237.423199 273.853601 
L 238.022471 271.804848 
L 238.322107 270.575198 
L 238.621743 268.556292 
L 238.921379 265.750062 
L 240.119923 260.772268 
L 240.419559 260.161192 
L 240.719195 260.161192 
L 241.318468 261.681759 
L 241.91774 264.034785 
L 242.217376 266.273363 
L 242.517012 269.631715 
L 243.715556 277.112472 
L 244.015192 279.449387 
L 244.314828 279.449387 
L 244.614464 280.473139 
L 244.9141 280.435018 
L 245.213736 280.037212 
L 245.513372 279.311403 
L 245.813008 277.691485 
L 246.112644 274.784572 
L 247.011553 269.708797 
L 247.610825 263.957594 
L 247.910461 263.957594 
L 248.210097 261.48851 
L 248.809369 259.982839 
L 249.408641 260.320266 
L 249.708277 261.01706 
L 250.007913 263.294918 
L 250.307549 263.294918 
L 250.607185 268.173948 
L 250.906821 269.078511 
L 251.506094 272.741699 
L 251.80573 277.152994 
L 252.105366 277.152994 
L 252.405002 280.044179 
L 253.004274 282.021657 
L 253.30391 282.527319 
L 253.603546 282.406493 
L 253.903182 282.406493 
L 254.202818 279.555602 
L 254.502454 278.834075 
L 255.101726 275.512662 
L 255.401362 271.725402 
L 255.700998 271.725402 
L 256.000634 265.038358 
L 256.30027 265.038358 
L 256.899543 259.908227 
L 257.199179 259.156214 
L 257.798451 256.172716 
L 258.098087 256.172716 
L 258.697359 257.219144 
L 259.296631 259.790014 
L 259.596267 263.291834 
L 259.895903 263.291834 
L 260.195539 269.367592 
L 260.495175 270.400347 
L 261.094447 274.50557 
L 261.394083 278.369825 
L 262.292992 284.081407 
L 262.892264 285.012248 
L 263.1919 284.867542 
L 263.491536 284.197278 
L 263.791172 282.517405 
L 264.090808 280.203301 
L 264.390444 279.317534 
L 264.69008 277.411965 
L 264.989716 273.293 
L 265.289352 271.16853 
L 266.18826 261.897785 
L 266.487896 261.897785 
L 266.787532 258.449165 
L 267.386805 255.628834 
L 267.686441 255.032366 
L 267.986077 255.327992 
L 268.285713 255.327992 
L 269.184621 260.662054 
L 269.783893 266.321047 
L 270.083529 266.321047 
L 270.383165 270.340614 
L 270.682801 272.318475 
L 271.282073 277.659261 
L 271.581709 279.695689 
L 271.881345 279.695689 
L 272.180981 281.417313 
L 272.480618 281.761911 
L 272.780254 281.739809 
L 273.07989 281.018801 
L 273.679162 277.556355 
L 274.57807 272.426855 
L 274.877706 270.552616 
L 275.776614 262.307443 
L 276.675522 257.711763 
L 276.975158 256.723124 
L 277.274794 256.723124 
L 277.574431 257.239654 
L 277.874067 258.026662 
L 278.473339 262.058072 
L 278.772975 264.687439 
L 279.072611 264.687439 
L 279.372247 268.485574 
L 279.671883 270.415044 
L 280.570791 278.212802 
L 280.870427 278.212802 
L 281.170063 280.688624 
L 281.469699 281.866955 
L 281.769335 282.303947 
L 282.068971 282.271151 
L 282.368607 281.936823 
L 282.668244 281.27286 
L 283.567152 274.442664 
L 283.866788 273.576444 
L 284.46606 270.011316 
L 284.765696 266.488313 
L 285.065332 266.488313 
L 285.364968 262.11493 
L 285.664604 261.576817 
L 286.263876 260.182342 
L 286.863148 260.135239 
L 287.162784 262.4576 
L 287.46242 263.069059 
L 288.061693 265.908372 
L 288.660965 271.676319 
L 288.960601 274.13369 
L 289.260237 274.925207 
L 290.458781 280.649124 
L 290.758417 281.114996 
L 291.058053 281.35718 
L 291.357689 280.797028 
L 291.657325 280.797028 
L 292.256597 278.085668 
L 292.556233 276.74806 
L 292.855869 274.454483 
L 293.155506 271.046033 
L 293.455142 271.046033 
L 293.754778 267.531075 
L 295.252958 259.574566 
L 295.552594 259.314995 
L 295.85223 259.36378 
L 296.151866 259.719429 
L 296.451502 260.805139 
L 296.751138 263.170093 
L 297.050774 263.170093 
L 297.35041 266.231611 
L 297.650046 267.937025 
L 298.249319 273.115865 
L 298.548955 273.937686 
L 298.848591 275.510357 
L 299.148227 278.239212 
L 299.747499 280.233826 
L 300.047135 281.109021 
L 300.346771 281.417917 
L 300.646407 281.417917 
L 301.545315 278.568012 
L 301.844951 276.468296 
L 302.144587 273.157039 
L 304.24204 260.339444 
L 304.541676 259.779474 
L 304.841312 259.532582 
L 305.140948 259.602727 
L 305.440584 260.289547 
L 305.74022 262.214006 
L 306.039856 262.214006 
L 306.339492 265.020772 
L 306.639128 266.647504 
L 307.2384 271.894187 
L 307.538036 272.752394 
L 307.837672 274.432342 
L 308.137308 277.548403 
L 309.036217 281.306435 
L 309.335853 282.158498 
L 309.635489 282.158498 
L 309.935125 281.815155 
L 310.234761 281.183561 
L 310.534397 280.28062 
L 310.834033 278.488749 
L 311.133669 275.511771 
L 311.433305 275.511771 
L 311.732941 272.15191 
L 312.032577 270.423712 
L 312.631849 265.350723 
L 312.931485 264.565786 
L 313.231121 263.09905 
L 313.530757 260.722139 
L 314.13003 259.385746 
L 314.729302 259.843121 
L 315.028938 260.545928 
L 316.227482 269.049448 
L 316.527118 269.89614 
L 316.826754 271.568418 
L 317.12639 274.782764 
L 318.324934 281.097181 
L 318.62457 281.097181 
L 318.924207 281.679037 
L 319.223843 281.498888 
L 319.523479 281.007156 
L 319.823115 279.751292 
L 320.122751 277.311027 
L 320.422387 277.311027 
L 320.722023 274.3136 
L 321.321295 271.040199 
L 321.920567 265.37146 
L 322.220203 265.37146 
L 322.519839 262.568089 
L 323.119111 260.423764 
L 323.418747 259.746538 
L 323.718383 259.367966 
L 324.317656 260.899501 
L 324.916928 263.240628 
L 325.5162 266.212217 
L 326.714744 275.383517 
L 327.01438 277.005668 
L 327.314016 280.056583 
L 327.613652 280.056583 
L 327.913288 283.222641 
L 328.51256 283.890125 
L 328.812196 283.929561 
L 329.411469 282.039442 
L 330.310377 276.84209 
L 330.610013 275.030759 
L 330.909649 271.262066 
L 331.209285 271.262066 
L 331.508921 265.752211 
L 331.808557 264.891463 
L 333.007101 258.892067 
L 333.306737 258.603637 
L 334.205645 260.297643 
L 334.505282 262.766082 
L 334.804918 262.766082 
L 335.104554 267.470106 
L 335.40419 268.298481 
L 336.003462 271.634159 
L 336.303098 274.836665 
L 336.602734 274.836665 
L 336.90237 279.270919 
L 337.202006 279.943165 
L 338.100914 283.882203 
L 338.700186 283.873721 
L 338.999822 283.595494 
L 339.599095 281.771741 
L 339.898731 278.965596 
L 340.198367 277.300833 
L 340.797639 271.7445 
L 341.097275 270.790731 
L 341.396911 268.89309 
L 341.696547 265.266894 
L 342.895091 258.325428 
L 343.194727 258.325428 
L 343.494363 257.747933 
L 343.793999 257.954932 
L 344.093635 258.48871 
L 344.393271 259.855332 
L 344.692907 262.553602 
L 345.891452 269.417564 
L 346.490724 275.102244 
L 346.79036 275.102244 
L 347.089996 277.845676 
L 347.988904 281.048335 
L 348.28854 282.030331 
L 348.588176 282.45233 
L 348.887812 282.277945 
L 349.187448 281.852889 
L 349.487084 281.205674 
L 349.78672 279.877494 
L 350.086357 277.659768 
L 350.385993 277.659768 
L 350.685629 275.324973 
L 351.884173 270.776561 
L 352.183809 270.776561 
L 352.483445 270.11342 
L 353.382353 269.582271 
L 353.981625 269.565782 
L 355.18017 270.497666 
L 356.378714 272.242162 
L 357.577258 273.387038 
L 358.17653 273.399662 
L 358.775802 273.117744 
L 359.075438 272.859953 
L 359.375074 272.331124 
L 359.67471 271.407133 
L 360.573619 269.800459 
L 360.873255 268.735869 
L 361.472527 267.711301 
L 362.071799 267.642675 
L 362.371435 267.772233 
L 363.569979 269.976102 
L 364.468887 271.080183 
L 364.768523 270.992134 
L 365.068159 270.509294 
L 365.367795 269.613668 
L 365.667432 269.231485 
L 365.967068 268.362717 
L 366.266704 266.311418 
L 366.56634 265.212549 
L 367.165612 262.239502 
L 367.465248 261.176468 
L 367.764884 261.176468 
L 368.06452 260.556259 
L 368.364156 260.63882 
L 368.663792 260.984382 
L 368.963428 261.964468 
L 369.263064 263.939663 
L 369.5627 263.939663 
L 369.862336 266.432554 
L 370.161972 267.775586 
L 371.060881 274.05487 
L 371.360517 274.05487 
L 371.660153 276.650967 
L 372.559061 280.150583 
L 372.858697 280.521884 
L 373.158333 280.521884 
L 373.757605 279.504235 
L 374.356877 276.803694 
L 374.656513 275.304293 
L 374.956149 275.304293 
L 375.255785 273.647621 
L 375.855057 272.468951 
L 376.154694 272.241862 
L 376.753966 272.273966 
L 377.053602 272.585128 
L 377.353238 272.585128 
L 377.652874 273.50553 
L 377.95251 273.708338 
L 378.551782 274.637885 
L 378.851418 276.007108 
L 379.151054 276.007108 
L 379.45069 277.127346 
L 380.349598 278.511777 
L 380.649234 278.901303 
L 380.94887 278.901303 
L 381.847779 278.032685 
L 382.147415 277.610469 
L 383.046323 274.78116 
L 383.345959 274.510862 
L 384.244867 273.104251 
L 384.544503 273.104251 
L 385.143775 273.539194 
L 385.743047 274.367144 
L 386.042683 274.931831 
L 386.34232 275.952983 
L 386.641956 277.499452 
L 387.8405 280.842257 
L 388.439772 280.89004 
L 388.739408 280.539535 
L 389.33868 279.138674 
L 390.237588 272.980969 
L 390.537224 272.314582 
L 391.735769 267.325095 
L 392.035405 267.246872 
L 392.335041 267.3534 
L 392.634677 267.750251 
L 392.934313 268.36058 
L 393.233949 269.60736 
L 393.533585 271.663734 
L 395.331401 278.473261 
L 395.631037 278.808145 
L 395.930673 278.920587 
L 396.230309 278.813049 
L 396.529945 278.481501 
L 396.829582 277.559241 
L 397.129218 275.741671 
L 398.927034 269.205278 
L 399.526306 268.700849 
L 399.825942 268.664569 
L 400.125578 268.741761 
L 400.425214 269.035862 
L 401.024486 270.102081 
L 401.923395 271.477507 
L 402.822303 273.401252 
L 403.721211 274.538927 
L 404.020847 275.478523 
L 404.320483 275.478523 
L 404.620119 275.962446 
L 404.919755 276.043019 
L 405.219391 275.997698 
L 405.519027 275.820324 
L 405.818663 275.293957 
L 406.118299 274.347865 
L 407.017208 273.17343 
L 408.515388 272.039502 
L 409.414296 271.590326 
L 411.511748 271.597104 
L 412.410657 273.530031 
L 412.710293 274.439286 
L 413.009929 277.059549 
L 413.309565 277.059549 
L 413.609201 278.829048 
L 414.208473 279.840253 
L 414.508109 279.989771 
L 414.807745 279.880677 
L 415.107381 279.252243 
L 415.407017 277.81778 
L 416.305925 275.083647 
L 416.905197 272.170034 
L 417.50447 271.067588 
L 418.103742 270.476255 
L 418.403378 270.432086 
L 418.703014 270.720135 
L 419.00265 271.534332 
L 420.201194 273.210914 
L 420.50083 273.210914 
L 420.800466 273.425996 
L 421.399738 273.55284 
L 421.699374 273.663545 
L 421.99901 273.897732 
L 422.298646 273.897732 
L 422.598283 274.17156 
L 423.197555 274.151076 
L 423.497191 274.039125 
L 423.796827 273.607355 
L 424.096463 273.607355 
L 424.396099 273.21262 
L 424.695735 273.289083 
L 424.995371 273.618925 
L 425.594643 274.998985 
L 425.894279 276.574102 
L 426.193915 279.103873 
L 427.392459 284.513294 
L 428.591004 291.308835 
L 428.89064 292.619216 
L 429.190276 295.781344 
L 429.489912 295.781344 
L 429.789548 297.788738 
L 430.38882 299.141889 
L 430.688456 299.544368 
L 430.988092 299.703068 
L 431.287728 299.156918 
L 431.587364 298.00776 
L 431.887 297.480613 
L 432.186636 296.208737 
L 432.186636 296.208737 
" clip-path="url(#pec0eeb2432)" style="fill: none; stroke: #008000; stroke-width: 1.5; stroke-linecap: square"/>
   </g>
   <g id="patch_13">
    <path d="M 58.106 301.9975 
L 58.106 251.52 
" style="fill: none; stroke: #000000; stroke-width: 0.8; stroke-linejoin: miter; stroke-linecap: square"/>
   </g>
   <g id="patch_14">
    <path d="M 450 301.9975 
L 450 251.52 
" style="fill: none; stroke: #000000; stroke-width: 0.8; stroke-linejoin: miter; stroke-linecap: square"/>
   </g>
   <g id="patch_15">
    <path d="M 58.106 301.9975 
L 450 301.9975 
" style="fill: none; stroke: #000000; stroke-width: 0.8; stroke-linejoin: miter; stroke-linecap: square"/>
   </g>
   <g id="patch_16">
    <path d="M 58.106 251.52 
L 450 251.52 
" style="fill: none; stroke: #000000; stroke-width: 0.8; stroke-linejoin: miter; stroke-linecap: square"/>
   </g>
   <g id="text_38">
    <!-- Error in swing angle -->
    <g transform="translate(194.282688 245.52)scale(0.12 -0.12)">
     <defs>
      <path id="DejaVuSans-77" d="M 269 3500 
L 844 3500 
L 1563 769 
L 2278 3500 
L 2956 3500 
L 3675 769 
L 4391 3500 
L 4966 3500 
L 4050 0 
L 3372 0 
L 2619 2869 
L 1863 0 
L 1184 0 
L 269 3500 
z
" transform="scale(0.015625)"/>
      <path id="DejaVuSans-67" d="M 2906 1791 
Q 2906 2416 2648 2759 
Q 2391 3103 1925 3103 
Q 1463 3103 1205 2759 
Q 947 2416 947 1791 
Q 947 1169 1205 825 
Q 1463 481 1925 481 
Q 2391 481 2648 825 
Q 2906 1169 2906 1791 
z
M 3481 434 
Q 3481 -459 3084 -895 
Q 2688 -1331 1869 -1331 
Q 1566 -1331 1297 -1286 
Q 1028 -1241 775 -1147 
L 775 -588 
Q 1028 -725 1275 -790 
Q 1522 -856 1778 -856 
Q 2344 -856 2625 -561 
Q 2906 -266 2906 331 
L 2906 616 
Q 2728 306 2450 153 
Q 2172 0 1784 0 
Q 1141 0 747 490 
Q 353 981 353 1791 
Q 353 2603 747 3093 
Q 1141 3584 1784 3584 
Q 2172 3584 2450 3431 
Q 2728 3278 2906 2969 
L 2906 3500 
L 3481 3500 
L 3481 434 
z
" transform="scale(0.015625)"/>
      <path id="DejaVuSans-6c" d="M 603 4863 
L 1178 4863 
L 1178 0 
L 603 0 
L 603 4863 
z
" transform="scale(0.015625)"/>
      <path id="DejaVuSans-65" d="M 3597 1894 
L 3597 1613 
L 953 1613 
Q 991 1019 1311 708 
Q 1631 397 2203 397 
Q 2534 397 2845 478 
Q 3156 559 3463 722 
L 3463 178 
Q 3153 47 2828 -22 
Q 2503 -91 2169 -91 
Q 1331 -91 842 396 
Q 353 884 353 1716 
Q 353 2575 817 3079 
Q 1281 3584 2069 3584 
Q 2775 3584 3186 3129 
Q 3597 2675 3597 1894 
z
M 3022 2063 
Q 3016 2534 2758 2815 
Q 2500 3097 2075 3097 
Q 1594 3097 1305 2825 
Q 1016 2553 972 2059 
L 3022 2063 
z
" transform="scale(0.015625)"/>
     </defs>
     <use xlink:href="#DejaVuSans-45"/>
     <use xlink:href="#DejaVuSans-72" x="63.183594"/>
     <use xlink:href="#DejaVuSans-72" x="102.546875"/>
     <use xlink:href="#DejaVuSans-6f" x="141.410156"/>
     <use xlink:href="#DejaVuSans-72" x="202.591797"/>
     <use xlink:href="#DejaVuSans-20" x="243.705078"/>
     <use xlink:href="#DejaVuSans-69" x="275.492188"/>
     <use xlink:href="#DejaVuSans-6e" x="303.275391"/>
     <use xlink:href="#DejaVuSans-20" x="366.654297"/>
     <use xlink:href="#DejaVuSans-73" x="398.441406"/>
     <use xlink:href="#DejaVuSans-77" x="450.541016"/>
     <use xlink:href="#DejaVuSans-69" x="532.328125"/>
     <use xlink:href="#DejaVuSans-6e" x="560.111328"/>
     <use xlink:href="#DejaVuSans-67" x="623.490234"/>
     <use xlink:href="#DejaVuSans-20" x="686.966797"/>
     <use xlink:href="#DejaVuSans-61" x="718.753906"/>
     <use xlink:href="#DejaVuSans-6e" x="780.033203"/>
     <use xlink:href="#DejaVuSans-67" x="843.412109"/>
     <use xlink:href="#DejaVuSans-6c" x="906.888672"/>
     <use xlink:href="#DejaVuSans-65" x="934.671875"/>
    </g>
   </g>
  </g>
 </g>
 <defs>
  <clipPath id="p4bff8d26c5">
   <rect x="58.106" y="28.32" width="391.894" height="50.4775"/>
  </clipPath>
  <clipPath id="p6775ef915b">
   <rect x="58.106" y="139.92" width="391.894" height="50.4775"/>
  </clipPath>
  <clipPath id="pec0eeb2432">
   <rect x="58.106" y="251.52" width="391.894" height="50.4775"/>
  </clipPath>
 </defs>
</svg>
