<?xml version="1.0" encoding="utf-8" standalone="no"?>
<!DOCTYPE svg PUBLIC "-//W3C//DTD SVG 1.1//EN"
  "http://www.w3.org/Graphics/SVG/1.1/DTD/svg11.dtd">
<svg xmlns:xlink="http://www.w3.org/1999/xlink" width="460.8pt" height="345.6pt" viewBox="0 0 460.8 345.6" xmlns="http://www.w3.org/2000/svg" version="1.1">
 <metadata>
  <rdf:RDF xmlns:dc="http://purl.org/dc/elements/1.1/" xmlns:cc="http://creativecommons.org/ns#" xmlns:rdf="http://www.w3.org/1999/02/22-rdf-syntax-ns#">
   <cc:Work>
    <dc:type rdf:resource="http://purl.org/dc/dcmitype/StillImage"/>
    <dc:date>2022-06-05T14:42:37.821543</dc:date>
    <dc:format>image/svg+xml</dc:format>
    <dc:creator>
     <cc:Agent>
      <dc:title>Matplotlib v3.5.1, https://matplotlib.org/</dc:title>
     </cc:Agent>
    </dc:creator>
   </cc:Work>
  </rdf:RDF>
 </metadata>
 <defs>
  <style type="text/css">*{stroke-linejoin: round; stroke-linecap: butt}</style>
 </defs>
 <g id="figure_1">
  <g id="patch_1">
   <path d="M 0 345.6 
L 460.8 345.6 
L 460.8 0 
L 0 0 
z
" style="fill: #ffffff"/>
  </g>
  <g id="axes_1">
   <g id="patch_2">
    <path d="M 58.106 78.7975 
L 450 78.7975 
L 450 28.32 
L 58.106 28.32 
z
" style="fill: #ffffff"/>
   </g>
   <g id="matplotlib.axis_1">
    <g id="xtick_1">
     <g id="line2d_1">
      <path d="M 75.919364 78.7975 
L 75.919364 28.32 
" clip-path="url(#pa7d3e29ae8)" style="fill: none; stroke: #b0b0b0; stroke-width: 0.8; stroke-linecap: square"/>
     </g>
     <g id="line2d_2">
      <defs>
       <path id="me70b15840b" d="M 0 0 
L 0 3.5 
" style="stroke: #000000; stroke-width: 0.8"/>
      </defs>
      <g>
       <use xlink:href="#me70b15840b" x="75.919364" y="78.7975" style="stroke: #000000; stroke-width: 0.8"/>
      </g>
     </g>
     <g id="text_1">
      <!-- 0 -->
      <g transform="translate(72.738114 93.395937)scale(0.1 -0.1)">
       <defs>
        <path id="DejaVuSans-30" d="M 2034 4250 
Q 1547 4250 1301 3770 
Q 1056 3291 1056 2328 
Q 1056 1369 1301 889 
Q 1547 409 2034 409 
Q 2525 409 2770 889 
Q 3016 1369 3016 2328 
Q 3016 3291 2770 3770 
Q 2525 4250 2034 4250 
z
M 2034 4750 
Q 2819 4750 3233 4129 
Q 3647 3509 3647 2328 
Q 3647 1150 3233 529 
Q 2819 -91 2034 -91 
Q 1250 -91 836 529 
Q 422 1150 422 2328 
Q 422 3509 836 4129 
Q 1250 4750 2034 4750 
z
" transform="scale(0.015625)"/>
       </defs>
       <use xlink:href="#DejaVuSans-30"/>
      </g>
     </g>
    </g>
    <g id="xtick_2">
     <g id="line2d_3">
      <path d="M 144.89657 78.7975 
L 144.89657 28.32 
" clip-path="url(#pa7d3e29ae8)" style="fill: none; stroke: #b0b0b0; stroke-width: 0.8; stroke-linecap: square"/>
     </g>
     <g id="line2d_4">
      <g>
       <use xlink:href="#me70b15840b" x="144.89657" y="78.7975" style="stroke: #000000; stroke-width: 0.8"/>
      </g>
     </g>
     <g id="text_2">
      <!-- 2 -->
      <g transform="translate(141.71532 93.395937)scale(0.1 -0.1)">
       <defs>
        <path id="DejaVuSans-32" d="M 1228 531 
L 3431 531 
L 3431 0 
L 469 0 
L 469 531 
Q 828 903 1448 1529 
Q 2069 2156 2228 2338 
Q 2531 2678 2651 2914 
Q 2772 3150 2772 3378 
Q 2772 3750 2511 3984 
Q 2250 4219 1831 4219 
Q 1534 4219 1204 4116 
Q 875 4013 500 3803 
L 500 4441 
Q 881 4594 1212 4672 
Q 1544 4750 1819 4750 
Q 2544 4750 2975 4387 
Q 3406 4025 3406 3419 
Q 3406 3131 3298 2873 
Q 3191 2616 2906 2266 
Q 2828 2175 2409 1742 
Q 1991 1309 1228 531 
z
" transform="scale(0.015625)"/>
       </defs>
       <use xlink:href="#DejaVuSans-32"/>
      </g>
     </g>
    </g>
    <g id="xtick_3">
     <g id="line2d_5">
      <path d="M 213.873777 78.7975 
L 213.873777 28.32 
" clip-path="url(#pa7d3e29ae8)" style="fill: none; stroke: #b0b0b0; stroke-width: 0.8; stroke-linecap: square"/>
     </g>
     <g id="line2d_6">
      <g>
       <use xlink:href="#me70b15840b" x="213.873777" y="78.7975" style="stroke: #000000; stroke-width: 0.8"/>
      </g>
     </g>
     <g id="text_3">
      <!-- 4 -->
      <g transform="translate(210.692527 93.395937)scale(0.1 -0.1)">
       <defs>
        <path id="DejaVuSans-34" d="M 2419 4116 
L 825 1625 
L 2419 1625 
L 2419 4116 
z
M 2253 4666 
L 3047 4666 
L 3047 1625 
L 3713 1625 
L 3713 1100 
L 3047 1100 
L 3047 0 
L 2419 0 
L 2419 1100 
L 313 1100 
L 313 1709 
L 2253 4666 
z
" transform="scale(0.015625)"/>
       </defs>
       <use xlink:href="#DejaVuSans-34"/>
      </g>
     </g>
    </g>
    <g id="xtick_4">
     <g id="line2d_7">
      <path d="M 282.850984 78.7975 
L 282.850984 28.32 
" clip-path="url(#pa7d3e29ae8)" style="fill: none; stroke: #b0b0b0; stroke-width: 0.8; stroke-linecap: square"/>
     </g>
     <g id="line2d_8">
      <g>
       <use xlink:href="#me70b15840b" x="282.850984" y="78.7975" style="stroke: #000000; stroke-width: 0.8"/>
      </g>
     </g>
     <g id="text_4">
      <!-- 6 -->
      <g transform="translate(279.669734 93.395937)scale(0.1 -0.1)">
       <defs>
        <path id="DejaVuSans-36" d="M 2113 2584 
Q 1688 2584 1439 2293 
Q 1191 2003 1191 1497 
Q 1191 994 1439 701 
Q 1688 409 2113 409 
Q 2538 409 2786 701 
Q 3034 994 3034 1497 
Q 3034 2003 2786 2293 
Q 2538 2584 2113 2584 
z
M 3366 4563 
L 3366 3988 
Q 3128 4100 2886 4159 
Q 2644 4219 2406 4219 
Q 1781 4219 1451 3797 
Q 1122 3375 1075 2522 
Q 1259 2794 1537 2939 
Q 1816 3084 2150 3084 
Q 2853 3084 3261 2657 
Q 3669 2231 3669 1497 
Q 3669 778 3244 343 
Q 2819 -91 2113 -91 
Q 1303 -91 875 529 
Q 447 1150 447 2328 
Q 447 3434 972 4092 
Q 1497 4750 2381 4750 
Q 2619 4750 2861 4703 
Q 3103 4656 3366 4563 
z
" transform="scale(0.015625)"/>
       </defs>
       <use xlink:href="#DejaVuSans-36"/>
      </g>
     </g>
    </g>
    <g id="xtick_5">
     <g id="line2d_9">
      <path d="M 351.828191 78.7975 
L 351.828191 28.32 
" clip-path="url(#pa7d3e29ae8)" style="fill: none; stroke: #b0b0b0; stroke-width: 0.8; stroke-linecap: square"/>
     </g>
     <g id="line2d_10">
      <g>
       <use xlink:href="#me70b15840b" x="351.828191" y="78.7975" style="stroke: #000000; stroke-width: 0.8"/>
      </g>
     </g>
     <g id="text_5">
      <!-- 8 -->
      <g transform="translate(348.646941 93.395937)scale(0.1 -0.1)">
       <defs>
        <path id="DejaVuSans-38" d="M 2034 2216 
Q 1584 2216 1326 1975 
Q 1069 1734 1069 1313 
Q 1069 891 1326 650 
Q 1584 409 2034 409 
Q 2484 409 2743 651 
Q 3003 894 3003 1313 
Q 3003 1734 2745 1975 
Q 2488 2216 2034 2216 
z
M 1403 2484 
Q 997 2584 770 2862 
Q 544 3141 544 3541 
Q 544 4100 942 4425 
Q 1341 4750 2034 4750 
Q 2731 4750 3128 4425 
Q 3525 4100 3525 3541 
Q 3525 3141 3298 2862 
Q 3072 2584 2669 2484 
Q 3125 2378 3379 2068 
Q 3634 1759 3634 1313 
Q 3634 634 3220 271 
Q 2806 -91 2034 -91 
Q 1263 -91 848 271 
Q 434 634 434 1313 
Q 434 1759 690 2068 
Q 947 2378 1403 2484 
z
M 1172 3481 
Q 1172 3119 1398 2916 
Q 1625 2713 2034 2713 
Q 2441 2713 2670 2916 
Q 2900 3119 2900 3481 
Q 2900 3844 2670 4047 
Q 2441 4250 2034 4250 
Q 1625 4250 1398 4047 
Q 1172 3844 1172 3481 
z
" transform="scale(0.015625)"/>
       </defs>
       <use xlink:href="#DejaVuSans-38"/>
      </g>
     </g>
    </g>
    <g id="xtick_6">
     <g id="line2d_11">
      <path d="M 420.805397 78.7975 
L 420.805397 28.32 
" clip-path="url(#pa7d3e29ae8)" style="fill: none; stroke: #b0b0b0; stroke-width: 0.8; stroke-linecap: square"/>
     </g>
     <g id="line2d_12">
      <g>
       <use xlink:href="#me70b15840b" x="420.805397" y="78.7975" style="stroke: #000000; stroke-width: 0.8"/>
      </g>
     </g>
     <g id="text_6">
      <!-- 10 -->
      <g transform="translate(414.442897 93.395937)scale(0.1 -0.1)">
       <defs>
        <path id="DejaVuSans-31" d="M 794 531 
L 1825 531 
L 1825 4091 
L 703 3866 
L 703 4441 
L 1819 4666 
L 2450 4666 
L 2450 531 
L 3481 531 
L 3481 0 
L 794 0 
L 794 531 
z
" transform="scale(0.015625)"/>
       </defs>
       <use xlink:href="#DejaVuSans-31"/>
       <use xlink:href="#DejaVuSans-30" x="63.623047"/>
      </g>
     </g>
    </g>
    <g id="text_7">
     <!-- $t$ [s] -->
     <g transform="translate(243.953 107.074062)scale(0.1 -0.1)">
      <defs>
       <path id="DejaVuSans-Oblique-74" d="M 2706 3500 
L 2619 3053 
L 1472 3053 
L 1100 1153 
Q 1081 1047 1072 975 
Q 1063 903 1063 863 
Q 1063 663 1183 572 
Q 1303 481 1569 481 
L 2150 481 
L 2053 0 
L 1503 0 
Q 991 0 739 200 
Q 488 400 488 806 
Q 488 878 497 964 
Q 506 1050 525 1153 
L 897 3053 
L 409 3053 
L 500 3500 
L 978 3500 
L 1172 4494 
L 1747 4494 
L 1556 3500 
L 2706 3500 
z
" transform="scale(0.015625)"/>
       <path id="DejaVuSans-20" transform="scale(0.015625)"/>
       <path id="DejaVuSans-5b" d="M 550 4863 
L 1875 4863 
L 1875 4416 
L 1125 4416 
L 1125 -397 
L 1875 -397 
L 1875 -844 
L 550 -844 
L 550 4863 
z
" transform="scale(0.015625)"/>
       <path id="DejaVuSans-73" d="M 2834 3397 
L 2834 2853 
Q 2591 2978 2328 3040 
Q 2066 3103 1784 3103 
Q 1356 3103 1142 2972 
Q 928 2841 928 2578 
Q 928 2378 1081 2264 
Q 1234 2150 1697 2047 
L 1894 2003 
Q 2506 1872 2764 1633 
Q 3022 1394 3022 966 
Q 3022 478 2636 193 
Q 2250 -91 1575 -91 
Q 1294 -91 989 -36 
Q 684 19 347 128 
L 347 722 
Q 666 556 975 473 
Q 1284 391 1588 391 
Q 1994 391 2212 530 
Q 2431 669 2431 922 
Q 2431 1156 2273 1281 
Q 2116 1406 1581 1522 
L 1381 1569 
Q 847 1681 609 1914 
Q 372 2147 372 2553 
Q 372 3047 722 3315 
Q 1072 3584 1716 3584 
Q 2034 3584 2315 3537 
Q 2597 3491 2834 3397 
z
" transform="scale(0.015625)"/>
       <path id="DejaVuSans-5d" d="M 1947 4863 
L 1947 -844 
L 622 -844 
L 622 -397 
L 1369 -397 
L 1369 4416 
L 622 4416 
L 622 4863 
L 1947 4863 
z
" transform="scale(0.015625)"/>
      </defs>
      <use xlink:href="#DejaVuSans-Oblique-74" transform="translate(0 0.015625)"/>
      <use xlink:href="#DejaVuSans-20" transform="translate(39.208984 0.015625)"/>
      <use xlink:href="#DejaVuSans-5b" transform="translate(70.996094 0.015625)"/>
      <use xlink:href="#DejaVuSans-73" transform="translate(110.009766 0.015625)"/>
      <use xlink:href="#DejaVuSans-5d" transform="translate(162.109375 0.015625)"/>
     </g>
    </g>
   </g>
   <g id="matplotlib.axis_2">
    <g id="ytick_1">
     <g id="line2d_13">
      <path d="M 58.106 76.574414 
L 450 76.574414 
" clip-path="url(#pa7d3e29ae8)" style="fill: none; stroke: #b0b0b0; stroke-width: 0.8; stroke-linecap: square"/>
     </g>
     <g id="line2d_14">
      <defs>
       <path id="mbb4d085fab" d="M 0 0 
L -3.5 0 
" style="stroke: #000000; stroke-width: 0.8"/>
      </defs>
      <g>
       <use xlink:href="#mbb4d085fab" x="58.106" y="76.574414" style="stroke: #000000; stroke-width: 0.8"/>
      </g>
     </g>
     <g id="text_8">
      <!-- 0 -->
      <g transform="translate(44.7435 80.373632)scale(0.1 -0.1)">
       <use xlink:href="#DejaVuSans-30"/>
      </g>
     </g>
    </g>
    <g id="ytick_2">
     <g id="line2d_15">
      <path d="M 58.106 30.615839 
L 450 30.615839 
" clip-path="url(#pa7d3e29ae8)" style="fill: none; stroke: #b0b0b0; stroke-width: 0.8; stroke-linecap: square"/>
     </g>
     <g id="line2d_16">
      <g>
       <use xlink:href="#mbb4d085fab" x="58.106" y="30.615839" style="stroke: #000000; stroke-width: 0.8"/>
      </g>
     </g>
     <g id="text_9">
      <!-- 10 -->
      <g transform="translate(38.381 34.415057)scale(0.1 -0.1)">
       <use xlink:href="#DejaVuSans-31"/>
       <use xlink:href="#DejaVuSans-30" x="63.623047"/>
      </g>
     </g>
    </g>
    <g id="text_10">
     <!-- $e_x$ [m] -->
     <g transform="translate(32.301313 69.20875)rotate(-90)scale(0.1 -0.1)">
      <defs>
       <path id="DejaVuSans-Oblique-65" d="M 3078 2063 
Q 3088 2113 3092 2166 
Q 3097 2219 3097 2272 
Q 3097 2653 2873 2875 
Q 2650 3097 2266 3097 
Q 1838 3097 1509 2826 
Q 1181 2556 1013 2059 
L 3078 2063 
z
M 3578 1613 
L 903 1613 
Q 884 1494 878 1425 
Q 872 1356 872 1306 
Q 872 872 1139 634 
Q 1406 397 1894 397 
Q 2269 397 2603 481 
Q 2938 566 3225 728 
L 3116 159 
Q 2806 34 2476 -28 
Q 2147 -91 1806 -91 
Q 1078 -91 686 257 
Q 294 606 294 1247 
Q 294 1794 489 2264 
Q 684 2734 1063 3103 
Q 1306 3334 1642 3459 
Q 1978 3584 2356 3584 
Q 2950 3584 3301 3228 
Q 3653 2872 3653 2272 
Q 3653 2128 3634 1964 
Q 3616 1800 3578 1613 
z
" transform="scale(0.015625)"/>
       <path id="DejaVuSans-Oblique-78" d="M 3841 3500 
L 2234 1784 
L 3219 0 
L 2559 0 
L 1819 1388 
L 531 0 
L -166 0 
L 1556 1844 
L 641 3500 
L 1300 3500 
L 1972 2234 
L 3144 3500 
L 3841 3500 
z
" transform="scale(0.015625)"/>
       <path id="DejaVuSans-6d" d="M 3328 2828 
Q 3544 3216 3844 3400 
Q 4144 3584 4550 3584 
Q 5097 3584 5394 3201 
Q 5691 2819 5691 2113 
L 5691 0 
L 5113 0 
L 5113 2094 
Q 5113 2597 4934 2840 
Q 4756 3084 4391 3084 
Q 3944 3084 3684 2787 
Q 3425 2491 3425 1978 
L 3425 0 
L 2847 0 
L 2847 2094 
Q 2847 2600 2669 2842 
Q 2491 3084 2119 3084 
Q 1678 3084 1418 2786 
Q 1159 2488 1159 1978 
L 1159 0 
L 581 0 
L 581 3500 
L 1159 3500 
L 1159 2956 
Q 1356 3278 1631 3431 
Q 1906 3584 2284 3584 
Q 2666 3584 2933 3390 
Q 3200 3197 3328 2828 
z
" transform="scale(0.015625)"/>
      </defs>
      <use xlink:href="#DejaVuSans-Oblique-65" transform="translate(0 0.015625)"/>
      <use xlink:href="#DejaVuSans-Oblique-78" transform="translate(61.523438 -16.390625)scale(0.7)"/>
      <use xlink:href="#DejaVuSans-20" transform="translate(105.683594 0.015625)"/>
      <use xlink:href="#DejaVuSans-5b" transform="translate(137.470703 0.015625)"/>
      <use xlink:href="#DejaVuSans-6d" transform="translate(176.484375 0.015625)"/>
      <use xlink:href="#DejaVuSans-5d" transform="translate(273.896484 0.015625)"/>
     </g>
    </g>
   </g>
   <g id="line2d_17">
    <path d="M 75.919364 30.615834 
L 85.24031 30.716967 
L 104.572642 31.660173 
L 107.679624 31.970521 
L 108.370065 32.080827 
L 112.167487 32.541304 
L 117.691011 33.300151 
L 118.036231 33.300151 
L 118.726672 33.450302 
L 121.488433 33.86812 
L 122.869314 34.110256 
L 125.631076 34.531659 
L 127.011957 34.784591 
L 129.773719 35.254369 
L 131.1546 35.580785 
L 131.84504 35.666029 
L 133.225921 36.019479 
L 133.916362 36.110517 
L 134.952022 36.388505 
L 137.713784 37.054342 
L 138.059004 37.054342 
L 138.404224 37.182517 
L 138.749445 37.182517 
L 139.094665 37.375112 
L 140.130326 37.535844 
L 141.165986 37.858091 
L 142.201647 38.019897 
L 142.546867 38.149821 
L 142.892087 38.149821 
L 143.237308 38.345594 
L 144.272968 38.509473 
L 144.618189 38.640926 
L 144.963409 38.640926 
L 145.308629 38.838369 
L 146.34429 39.002831 
L 146.68951 39.134166 
L 147.03473 39.134166 
L 147.37995 39.33054 
L 148.415611 39.493428 
L 149.451272 39.784456 
L 152.213033 40.448258 
L 152.558254 40.448258 
L 153.593914 40.724222 
L 156.355676 41.349973 
L 156.700896 41.349973 
L 157.736557 41.613288 
L 160.498319 42.218839 
L 160.843539 42.218839 
L 162.22442 42.558121 
L 164.640962 43.059734 
L 165.331402 43.170281 
L 168.093164 43.717731 
L 170.854926 44.27844 
L 171.545366 44.383302 
L 174.652348 44.951499 
L 175.688009 45.155267 
L 179.140211 45.755712 
L 180.175872 45.951746 
L 183.282854 46.484862 
L 184.318514 46.679701 
L 186.735056 47.121904 
L 189.496818 47.62636 
L 190.187258 47.719377 
L 193.984681 48.314952 
L 195.020341 48.545515 
L 196.401222 48.706406 
L 199.853425 49.287082 
L 202.615186 49.731169 
L 203.650847 49.91165 
L 206.757829 50.402661 
L 207.79349 50.577346 
L 210.555252 51.019686 
L 211.590912 51.202675 
L 214.352674 51.663798 
L 217.114436 52.132895 
L 217.804876 52.221191 
L 221.257079 52.764149 
L 222.292739 52.94877 
L 225.744942 53.490494 
L 226.780602 53.666641 
L 229.197144 54.044063 
L 230.578025 54.292272 
L 234.030227 54.827419 
L 235.065888 54.999529 
L 238.17287 55.464589 
L 239.20853 55.635403 
L 242.315512 56.087165 
L 243.005953 56.235214 
L 246.458155 56.74754 
L 249.910357 57.249197 
L 252.672119 57.669206 
L 253.70778 57.832428 
L 256.124321 58.177773 
L 256.814762 58.28122 
L 257.850422 58.449512 
L 260.612184 58.876396 
L 261.647845 59.043299 
L 264.754827 59.489656 
L 265.790488 59.65288 
L 268.89747 60.114011 
L 269.93313 60.280859 
L 274.766214 60.951954 
L 276.147094 61.170679 
L 279.599297 61.682406 
L 282.706279 62.140527 
L 283.741939 62.213368 
L 284.43238 62.340611 
L 287.884582 62.815605 
L 290.646344 63.216887 
L 291.682005 63.372411 
L 296.515088 64.011738 
L 300.65773 64.56853 
L 305.490814 65.197462 
L 306.871695 65.368112 
L 309.978677 65.762868 
L 311.359557 65.949447 
L 315.5022 66.506044 
L 319.990063 67.044232 
L 321.025724 67.148067 
L 325.858807 67.743131 
L 326.894468 67.868676 
L 327.930128 67.977137 
L 331.727551 68.429203 
L 335.524973 68.884508 
L 340.358056 69.404774 
L 341.393717 69.546157 
L 345.19114 69.960575 
L 345.88158 70.075227 
L 351.405104 70.648583 
L 352.095544 70.755912 
L 355.547746 71.18043 
L 363.142591 72.009983 
L 364.523472 72.169642 
L 370.046996 72.791272 
L 371.773097 72.990509 
L 372.808758 73.088606 
L 376.60618 73.506652 
L 380.403603 73.918309 
L 389.379328 74.760976 
L 393.521971 75.148744 
L 398.009834 75.509989 
L 400.081155 75.619334 
L 405.604679 75.931007 
L 422.17525 76.479165 
L 431.841416 76.477194 
L 432.186636 76.474576 
L 432.186636 76.474576 
" clip-path="url(#pa7d3e29ae8)" style="fill: none; stroke: #ff0000; stroke-width: 1.5; stroke-linecap: square"/>
   </g>
   <g id="patch_3">
    <path d="M 58.106 78.7975 
L 58.106 28.32 
" style="fill: none; stroke: #000000; stroke-width: 0.8; stroke-linejoin: miter; stroke-linecap: square"/>
   </g>
   <g id="patch_4">
    <path d="M 450 78.7975 
L 450 28.32 
" style="fill: none; stroke: #000000; stroke-width: 0.8; stroke-linejoin: miter; stroke-linecap: square"/>
   </g>
   <g id="patch_5">
    <path d="M 58.106 78.7975 
L 450 78.7975 
" style="fill: none; stroke: #000000; stroke-width: 0.8; stroke-linejoin: miter; stroke-linecap: square"/>
   </g>
   <g id="patch_6">
    <path d="M 58.106 28.32 
L 450 28.32 
" style="fill: none; stroke: #000000; stroke-width: 0.8; stroke-linejoin: miter; stroke-linecap: square"/>
   </g>
   <g id="text_11">
    <!-- Error in $x$-position -->
    <g transform="translate(200.413 22.32)scale(0.12 -0.12)">
     <defs>
      <path id="DejaVuSans-45" d="M 628 4666 
L 3578 4666 
L 3578 4134 
L 1259 4134 
L 1259 2753 
L 3481 2753 
L 3481 2222 
L 1259 2222 
L 1259 531 
L 3634 531 
L 3634 0 
L 628 0 
L 628 4666 
z
" transform="scale(0.015625)"/>
      <path id="DejaVuSans-72" d="M 2631 2963 
Q 2534 3019 2420 3045 
Q 2306 3072 2169 3072 
Q 1681 3072 1420 2755 
Q 1159 2438 1159 1844 
L 1159 0 
L 581 0 
L 581 3500 
L 1159 3500 
L 1159 2956 
Q 1341 3275 1631 3429 
Q 1922 3584 2338 3584 
Q 2397 3584 2469 3576 
Q 2541 3569 2628 3553 
L 2631 2963 
z
" transform="scale(0.015625)"/>
      <path id="DejaVuSans-6f" d="M 1959 3097 
Q 1497 3097 1228 2736 
Q 959 2375 959 1747 
Q 959 1119 1226 758 
Q 1494 397 1959 397 
Q 2419 397 2687 759 
Q 2956 1122 2956 1747 
Q 2956 2369 2687 2733 
Q 2419 3097 1959 3097 
z
M 1959 3584 
Q 2709 3584 3137 3096 
Q 3566 2609 3566 1747 
Q 3566 888 3137 398 
Q 2709 -91 1959 -91 
Q 1206 -91 779 398 
Q 353 888 353 1747 
Q 353 2609 779 3096 
Q 1206 3584 1959 3584 
z
" transform="scale(0.015625)"/>
      <path id="DejaVuSans-69" d="M 603 3500 
L 1178 3500 
L 1178 0 
L 603 0 
L 603 3500 
z
M 603 4863 
L 1178 4863 
L 1178 4134 
L 603 4134 
L 603 4863 
z
" transform="scale(0.015625)"/>
      <path id="DejaVuSans-6e" d="M 3513 2113 
L 3513 0 
L 2938 0 
L 2938 2094 
Q 2938 2591 2744 2837 
Q 2550 3084 2163 3084 
Q 1697 3084 1428 2787 
Q 1159 2491 1159 1978 
L 1159 0 
L 581 0 
L 581 3500 
L 1159 3500 
L 1159 2956 
Q 1366 3272 1645 3428 
Q 1925 3584 2291 3584 
Q 2894 3584 3203 3211 
Q 3513 2838 3513 2113 
z
" transform="scale(0.015625)"/>
      <path id="DejaVuSans-2d" d="M 313 2009 
L 1997 2009 
L 1997 1497 
L 313 1497 
L 313 2009 
z
" transform="scale(0.015625)"/>
      <path id="DejaVuSans-70" d="M 1159 525 
L 1159 -1331 
L 581 -1331 
L 581 3500 
L 1159 3500 
L 1159 2969 
Q 1341 3281 1617 3432 
Q 1894 3584 2278 3584 
Q 2916 3584 3314 3078 
Q 3713 2572 3713 1747 
Q 3713 922 3314 415 
Q 2916 -91 2278 -91 
Q 1894 -91 1617 61 
Q 1341 213 1159 525 
z
M 3116 1747 
Q 3116 2381 2855 2742 
Q 2594 3103 2138 3103 
Q 1681 3103 1420 2742 
Q 1159 2381 1159 1747 
Q 1159 1113 1420 752 
Q 1681 391 2138 391 
Q 2594 391 2855 752 
Q 3116 1113 3116 1747 
z
" transform="scale(0.015625)"/>
      <path id="DejaVuSans-74" d="M 1172 4494 
L 1172 3500 
L 2356 3500 
L 2356 3053 
L 1172 3053 
L 1172 1153 
Q 1172 725 1289 603 
Q 1406 481 1766 481 
L 2356 481 
L 2356 0 
L 1766 0 
Q 1100 0 847 248 
Q 594 497 594 1153 
L 594 3053 
L 172 3053 
L 172 3500 
L 594 3500 
L 594 4494 
L 1172 4494 
z
" transform="scale(0.015625)"/>
     </defs>
     <use xlink:href="#DejaVuSans-45" transform="translate(0 0.015625)"/>
     <use xlink:href="#DejaVuSans-72" transform="translate(63.183594 0.015625)"/>
     <use xlink:href="#DejaVuSans-72" transform="translate(104.296875 0.015625)"/>
     <use xlink:href="#DejaVuSans-6f" transform="translate(145.410156 0.015625)"/>
     <use xlink:href="#DejaVuSans-72" transform="translate(206.591797 0.015625)"/>
     <use xlink:href="#DejaVuSans-20" transform="translate(247.705078 0.015625)"/>
     <use xlink:href="#DejaVuSans-69" transform="translate(279.492188 0.015625)"/>
     <use xlink:href="#DejaVuSans-6e" transform="translate(307.275391 0.015625)"/>
     <use xlink:href="#DejaVuSans-20" transform="translate(370.654297 0.015625)"/>
     <use xlink:href="#DejaVuSans-Oblique-78" transform="translate(402.441406 0.015625)"/>
     <use xlink:href="#DejaVuSans-2d" transform="translate(461.621094 0.015625)"/>
     <use xlink:href="#DejaVuSans-70" transform="translate(497.705078 0.015625)"/>
     <use xlink:href="#DejaVuSans-6f" transform="translate(561.181641 0.015625)"/>
     <use xlink:href="#DejaVuSans-73" transform="translate(622.363281 0.015625)"/>
     <use xlink:href="#DejaVuSans-69" transform="translate(674.462891 0.015625)"/>
     <use xlink:href="#DejaVuSans-74" transform="translate(702.246094 0.015625)"/>
     <use xlink:href="#DejaVuSans-69" transform="translate(741.455078 0.015625)"/>
     <use xlink:href="#DejaVuSans-6f" transform="translate(769.238281 0.015625)"/>
     <use xlink:href="#DejaVuSans-6e" transform="translate(830.419922 0.015625)"/>
    </g>
   </g>
  </g>
  <g id="axes_2">
   <g id="patch_7">
    <path d="M 58.106 190.3975 
L 450 190.3975 
L 450 139.92 
L 58.106 139.92 
z
" style="fill: #ffffff"/>
   </g>
   <g id="matplotlib.axis_3">
    <g id="xtick_7">
     <g id="line2d_18">
      <path d="M 75.919364 190.3975 
L 75.919364 139.92 
" clip-path="url(#p044cc1ec8c)" style="fill: none; stroke: #b0b0b0; stroke-width: 0.8; stroke-linecap: square"/>
     </g>
     <g id="line2d_19">
      <g>
       <use xlink:href="#me70b15840b" x="75.919364" y="190.3975" style="stroke: #000000; stroke-width: 0.8"/>
      </g>
     </g>
     <g id="text_12">
      <!-- 0 -->
      <g transform="translate(72.738114 204.995937)scale(0.1 -0.1)">
       <use xlink:href="#DejaVuSans-30"/>
      </g>
     </g>
    </g>
    <g id="xtick_8">
     <g id="line2d_20">
      <path d="M 144.89657 190.3975 
L 144.89657 139.92 
" clip-path="url(#p044cc1ec8c)" style="fill: none; stroke: #b0b0b0; stroke-width: 0.8; stroke-linecap: square"/>
     </g>
     <g id="line2d_21">
      <g>
       <use xlink:href="#me70b15840b" x="144.89657" y="190.3975" style="stroke: #000000; stroke-width: 0.8"/>
      </g>
     </g>
     <g id="text_13">
      <!-- 2 -->
      <g transform="translate(141.71532 204.995937)scale(0.1 -0.1)">
       <use xlink:href="#DejaVuSans-32"/>
      </g>
     </g>
    </g>
    <g id="xtick_9">
     <g id="line2d_22">
      <path d="M 213.873777 190.3975 
L 213.873777 139.92 
" clip-path="url(#p044cc1ec8c)" style="fill: none; stroke: #b0b0b0; stroke-width: 0.8; stroke-linecap: square"/>
     </g>
     <g id="line2d_23">
      <g>
       <use xlink:href="#me70b15840b" x="213.873777" y="190.3975" style="stroke: #000000; stroke-width: 0.8"/>
      </g>
     </g>
     <g id="text_14">
      <!-- 4 -->
      <g transform="translate(210.692527 204.995937)scale(0.1 -0.1)">
       <use xlink:href="#DejaVuSans-34"/>
      </g>
     </g>
    </g>
    <g id="xtick_10">
     <g id="line2d_24">
      <path d="M 282.850984 190.3975 
L 282.850984 139.92 
" clip-path="url(#p044cc1ec8c)" style="fill: none; stroke: #b0b0b0; stroke-width: 0.8; stroke-linecap: square"/>
     </g>
     <g id="line2d_25">
      <g>
       <use xlink:href="#me70b15840b" x="282.850984" y="190.3975" style="stroke: #000000; stroke-width: 0.8"/>
      </g>
     </g>
     <g id="text_15">
      <!-- 6 -->
      <g transform="translate(279.669734 204.995937)scale(0.1 -0.1)">
       <use xlink:href="#DejaVuSans-36"/>
      </g>
     </g>
    </g>
    <g id="xtick_11">
     <g id="line2d_26">
      <path d="M 351.828191 190.3975 
L 351.828191 139.92 
" clip-path="url(#p044cc1ec8c)" style="fill: none; stroke: #b0b0b0; stroke-width: 0.8; stroke-linecap: square"/>
     </g>
     <g id="line2d_27">
      <g>
       <use xlink:href="#me70b15840b" x="351.828191" y="190.3975" style="stroke: #000000; stroke-width: 0.8"/>
      </g>
     </g>
     <g id="text_16">
      <!-- 8 -->
      <g transform="translate(348.646941 204.995937)scale(0.1 -0.1)">
       <use xlink:href="#DejaVuSans-38"/>
      </g>
     </g>
    </g>
    <g id="xtick_12">
     <g id="line2d_28">
      <path d="M 420.805397 190.3975 
L 420.805397 139.92 
" clip-path="url(#p044cc1ec8c)" style="fill: none; stroke: #b0b0b0; stroke-width: 0.8; stroke-linecap: square"/>
     </g>
     <g id="line2d_29">
      <g>
       <use xlink:href="#me70b15840b" x="420.805397" y="190.3975" style="stroke: #000000; stroke-width: 0.8"/>
      </g>
     </g>
     <g id="text_17">
      <!-- 10 -->
      <g transform="translate(414.442897 204.995937)scale(0.1 -0.1)">
       <use xlink:href="#DejaVuSans-31"/>
       <use xlink:href="#DejaVuSans-30" x="63.623047"/>
      </g>
     </g>
    </g>
    <g id="text_18">
     <!-- $t$ [s] -->
     <g transform="translate(243.953 218.674062)scale(0.1 -0.1)">
      <use xlink:href="#DejaVuSans-Oblique-74" transform="translate(0 0.015625)"/>
      <use xlink:href="#DejaVuSans-20" transform="translate(39.208984 0.015625)"/>
      <use xlink:href="#DejaVuSans-5b" transform="translate(70.996094 0.015625)"/>
      <use xlink:href="#DejaVuSans-73" transform="translate(110.009766 0.015625)"/>
      <use xlink:href="#DejaVuSans-5d" transform="translate(162.109375 0.015625)"/>
     </g>
    </g>
   </g>
   <g id="matplotlib.axis_4">
    <g id="ytick_3">
     <g id="line2d_30">
      <path d="M 58.106 180.161409 
L 450 180.161409 
" clip-path="url(#p044cc1ec8c)" style="fill: none; stroke: #b0b0b0; stroke-width: 0.8; stroke-linecap: square"/>
     </g>
     <g id="line2d_31">
      <g>
       <use xlink:href="#mbb4d085fab" x="58.106" y="180.161409" style="stroke: #000000; stroke-width: 0.8"/>
      </g>
     </g>
     <g id="text_19">
      <!-- −0.1 -->
      <g transform="translate(26.823188 183.960627)scale(0.1 -0.1)">
       <defs>
        <path id="DejaVuSans-2212" d="M 678 2272 
L 4684 2272 
L 4684 1741 
L 678 1741 
L 678 2272 
z
" transform="scale(0.015625)"/>
        <path id="DejaVuSans-2e" d="M 684 794 
L 1344 794 
L 1344 0 
L 684 0 
L 684 794 
z
" transform="scale(0.015625)"/>
       </defs>
       <use xlink:href="#DejaVuSans-2212"/>
       <use xlink:href="#DejaVuSans-30" x="83.789062"/>
       <use xlink:href="#DejaVuSans-2e" x="147.412109"/>
       <use xlink:href="#DejaVuSans-31" x="179.199219"/>
      </g>
     </g>
    </g>
    <g id="ytick_4">
     <g id="line2d_32">
      <path d="M 58.106 165.404332 
L 450 165.404332 
" clip-path="url(#p044cc1ec8c)" style="fill: none; stroke: #b0b0b0; stroke-width: 0.8; stroke-linecap: square"/>
     </g>
     <g id="line2d_33">
      <g>
       <use xlink:href="#mbb4d085fab" x="58.106" y="165.404332" style="stroke: #000000; stroke-width: 0.8"/>
      </g>
     </g>
     <g id="text_20">
      <!-- 0.0 -->
      <g transform="translate(35.202875 169.20355)scale(0.1 -0.1)">
       <use xlink:href="#DejaVuSans-30"/>
       <use xlink:href="#DejaVuSans-2e" x="63.623047"/>
       <use xlink:href="#DejaVuSans-30" x="95.410156"/>
      </g>
     </g>
    </g>
    <g id="ytick_5">
     <g id="line2d_34">
      <path d="M 58.106 150.647255 
L 450 150.647255 
" clip-path="url(#p044cc1ec8c)" style="fill: none; stroke: #b0b0b0; stroke-width: 0.8; stroke-linecap: square"/>
     </g>
     <g id="line2d_35">
      <g>
       <use xlink:href="#mbb4d085fab" x="58.106" y="150.647255" style="stroke: #000000; stroke-width: 0.8"/>
      </g>
     </g>
     <g id="text_21">
      <!-- 0.1 -->
      <g transform="translate(35.202875 154.446473)scale(0.1 -0.1)">
       <use xlink:href="#DejaVuSans-30"/>
       <use xlink:href="#DejaVuSans-2e" x="63.623047"/>
       <use xlink:href="#DejaVuSans-31" x="95.410156"/>
      </g>
     </g>
    </g>
    <g id="text_22">
     <!-- $e_z$ [m] -->
     <g transform="translate(20.7435 180.60875)rotate(-90)scale(0.1 -0.1)">
      <defs>
       <path id="DejaVuSans-Oblique-7a" d="M 744 3500 
L 3475 3500 
L 3372 2975 
L 738 459 
L 2913 459 
L 2822 0 
L -19 0 
L 84 525 
L 2719 3041 
L 653 3041 
L 744 3500 
z
" transform="scale(0.015625)"/>
      </defs>
      <use xlink:href="#DejaVuSans-Oblique-65" transform="translate(0 0.015625)"/>
      <use xlink:href="#DejaVuSans-Oblique-7a" transform="translate(61.523438 -16.390625)scale(0.7)"/>
      <use xlink:href="#DejaVuSans-20" transform="translate(101.000977 0.015625)"/>
      <use xlink:href="#DejaVuSans-5b" transform="translate(132.788086 0.015625)"/>
      <use xlink:href="#DejaVuSans-6d" transform="translate(171.801758 0.015625)"/>
      <use xlink:href="#DejaVuSans-5d" transform="translate(269.213867 0.015625)"/>
     </g>
    </g>
   </g>
   <g id="line2d_36">
    <path d="M 75.919364 166.819333 
L 77.990685 166.722919 
L 80.062006 166.231282 
L 81.442887 166.144315 
L 84.204649 166.317134 
L 85.24031 166.092301 
L 87.311631 164.914037 
L 88.002072 164.450683 
L 88.347292 164.099951 
L 90.073393 163.21842 
L 90.763833 162.629485 
L 91.799494 161.846286 
L 92.144714 161.534956 
L 92.489934 161.021165 
L 92.835155 160.262308 
L 94.216036 158.634213 
L 95.251696 156.920182 
L 96.977797 155.333172 
L 98.013458 155.012669 
L 99.049119 154.948828 
L 100.77522 155.098012 
L 104.917863 155.44106 
L 106.643964 155.086197 
L 106.989184 154.986166 
L 107.334404 154.746903 
L 107.679624 154.746903 
L 108.024845 154.296046 
L 108.715285 154.034797 
L 109.060505 153.848875 
L 109.405726 153.45186 
L 109.750946 153.45186 
L 110.096166 152.812278 
L 110.786606 152.480725 
L 111.131827 152.257607 
L 111.477047 151.811835 
L 112.167487 151.267869 
L 112.512708 150.955255 
L 113.203148 150.656038 
L 113.548368 150.280061 
L 114.238809 149.845797 
L 114.584029 149.602708 
L 115.274469 149.371523 
L 115.61969 149.082185 
L 115.96491 149.082185 
L 116.31013 148.68483 
L 117.345791 148.386652 
L 117.691011 148.165683 
L 118.036231 148.165683 
L 118.381451 147.846389 
L 119.071892 147.683391 
L 119.417112 147.57066 
L 119.762332 147.33149 
L 120.107553 147.33149 
L 120.452773 146.934731 
L 121.143213 146.72355 
L 121.488433 146.582702 
L 121.833654 146.313547 
L 122.178874 146.313547 
L 122.524094 145.936871 
L 123.214535 145.755973 
L 123.559755 145.637208 
L 123.904975 145.400805 
L 124.250195 145.400805 
L 124.595415 145.022234 
L 125.285856 144.80874 
L 125.631076 144.652876 
L 126.666737 143.690626 
L 127.357177 143.379546 
L 127.702397 143.177359 
L 128.047618 142.803395 
L 128.392838 142.803395 
L 128.738058 142.391273 
L 130.464159 142.247731 
L 131.84504 142.685971 
L 133.225921 143.889163 
L 133.571141 144.017207 
L 133.916362 144.284022 
L 134.261582 144.85509 
L 134.606802 145.155509 
L 135.297242 146.09089 
L 135.642463 146.248877 
L 135.987683 146.564598 
L 136.332903 147.189635 
L 137.023344 147.942047 
L 137.713784 148.775755 
L 138.059004 148.775755 
L 138.404224 149.277525 
L 138.749445 149.277525 
L 139.094665 149.931402 
L 139.785105 150.212533 
L 140.130326 150.3832 
L 140.820766 150.886654 
L 141.165986 151.074124 
L 141.856427 151.256794 
L 142.201647 151.380623 
L 142.546867 151.646713 
L 142.892087 151.646713 
L 143.237308 152.125704 
L 143.927748 152.409493 
L 144.272968 152.615816 
L 144.618189 153.067478 
L 144.963409 153.067478 
L 145.308629 153.816426 
L 145.653849 153.945642 
L 146.34429 154.461895 
L 146.68951 154.958961 
L 147.03473 154.958961 
L 147.37995 155.623418 
L 148.070391 155.905592 
L 150.141712 156.826088 
L 151.177373 157.184015 
L 153.248694 158.225563 
L 154.284355 159.064433 
L 154.629575 159.064433 
L 154.974795 159.434572 
L 155.665236 159.863655 
L 156.355676 160.313871 
L 156.700896 160.313871 
L 157.391337 160.705615 
L 158.426998 161.307783 
L 158.772218 161.307783 
L 159.462658 161.81071 
L 160.498319 162.812265 
L 160.843539 162.812265 
L 161.188759 163.348361 
L 161.53398 163.632396 
L 162.56964 164.979576 
L 162.91486 164.979576 
L 163.260081 165.58518 
L 163.950521 166.325417 
L 164.640962 167.180408 
L 164.986182 167.180408 
L 165.331402 167.73275 
L 166.367063 168.684336 
L 166.712283 169.230492 
L 167.057503 169.230492 
L 167.402723 169.785104 
L 167.747944 170.066879 
L 168.783604 171.377796 
L 169.128825 171.377796 
L 169.474045 171.980236 
L 169.819265 172.284394 
L 170.854926 173.658437 
L 171.200146 173.658437 
L 171.545366 174.261077 
L 172.235807 174.997746 
L 172.926247 175.851328 
L 173.271467 175.851328 
L 173.616687 176.400019 
L 174.652348 177.316612 
L 174.997568 177.812756 
L 176.723669 179.047812 
L 177.06889 179.429891 
L 178.449771 180.035862 
L 180.175872 180.496961 
L 183.628074 180.762638 
L 185.008955 181.230871 
L 185.354175 181.45551 
L 185.699395 181.45551 
L 186.389836 181.727604 
L 187.080276 181.862426 
L 188.461157 181.778758 
L 190.187258 181.515227 
L 191.222919 181.569112 
L 191.913359 181.654787 
L 192.94902 182.042343 
L 195.020341 182.182015 
L 196.056002 182.037632 
L 198.472544 181.630616 
L 199.508204 181.693463 
L 200.543865 181.940977 
L 201.234305 182.221694 
L 202.960407 182.593494 
L 204.341288 182.520182 
L 205.722168 182.319743 
L 208.13871 182.293221 
L 208.82915 182.44767 
L 209.519591 182.790351 
L 210.210031 183.100449 
L 210.900472 183.712691 
L 211.245692 183.712691 
L 211.590912 184.045879 
L 213.317013 184.696586 
L 214.007454 184.858902 
L 215.733555 184.98925 
L 217.459656 185.098907 
L 219.185757 185.65923 
L 219.876198 186.059426 
L 222.292739 186.943773 
L 223.67362 186.998395 
L 227.125822 186.635481 
L 228.506703 186.765686 
L 230.923245 186.897908 
L 231.958906 186.792072 
L 232.304126 186.616567 
L 233.685007 186.386271 
L 234.720667 186.222399 
L 236.101548 186.317414 
L 237.137209 186.54817 
L 239.20853 186.805261 
L 240.244191 186.706844 
L 241.279852 186.442032 
L 242.660733 186.226121 
L 243.696393 186.30678 
L 245.422494 186.77556 
L 246.112935 186.882846 
L 248.184256 187.026546 
L 249.910357 186.919834 
L 251.636458 186.900774 
L 252.672119 187.076043 
L 253.36256 187.258767 
L 255.433881 187.514761 
L 256.814762 187.430518 
L 258.195643 187.260568 
L 259.576524 187.248887 
L 260.612184 187.443569 
L 261.302625 187.701553 
L 263.028726 188.071566 
L 264.064387 188.063808 
L 264.754827 187.928681 
L 265.445267 187.692073 
L 268.552249 187.01454 
L 269.58791 187.050322 
L 270.968791 187.295061 
L 271.659232 187.457959 
L 273.040112 187.522512 
L 273.730553 187.36428 
L 274.766214 187.074255 
L 275.801874 186.42881 
L 276.492315 186.210104 
L 276.837535 186.058599 
L 277.527975 185.534911 
L 277.873196 185.34378 
L 279.944517 185.024344 
L 282.706279 185.354801 
L 283.741939 185.286466 
L 284.08716 185.06561 
L 284.7776 184.9114 
L 285.12282 184.797253 
L 285.813261 184.436571 
L 286.848921 183.924486 
L 287.194142 183.924486 
L 287.884582 183.568327 
L 289.955903 182.919352 
L 290.991564 182.928038 
L 294.098546 183.190666 
L 295.479427 182.978547 
L 296.860308 182.447559 
L 297.205528 182.297609 
L 297.550748 182.297609 
L 298.241189 181.963334 
L 299.27685 181.49147 
L 299.62207 181.49147 
L 300.31251 181.317314 
L 301.348171 181.290179 
L 304.109933 181.634684 
L 305.490814 181.543985 
L 306.871695 181.125861 
L 307.216915 181.017351 
L 307.562135 180.742354 
L 307.907355 180.742354 
L 308.597796 180.388974 
L 309.978677 179.807848 
L 310.323897 179.589502 
L 311.359557 179.395047 
L 312.049998 179.38154 
L 313.430879 179.734375 
L 313.776099 179.917062 
L 314.121319 179.917062 
L 314.81176 180.162446 
L 315.84742 180.322971 
L 316.883081 180.222811 
L 319.299623 179.325883 
L 320.680504 178.741659 
L 322.061384 178.398583 
L 323.442265 178.478067 
L 326.549247 179.217396 
L 327.239688 179.238814 
L 328.965789 178.782278 
L 329.311009 178.782278 
L 329.656229 178.523776 
L 330.69189 178.364899 
L 331.727551 178.117827 
L 333.108432 177.960506 
L 334.834533 178.00392 
L 336.560634 178.106809 
L 338.631955 178.043075 
L 340.703277 177.759156 
L 342.084158 177.661319 
L 344.500699 177.564661 
L 346.57202 177.691769 
L 348.643342 177.604172 
L 350.369443 177.478154 
L 352.095544 177.495686 
L 358.309508 177.912337 
L 361.07127 177.914505 
L 365.213913 178.359478 
L 368.320895 178.87317 
L 373.499198 179.183131 
L 374.880079 179.591743 
L 375.570519 179.694274 
L 376.26096 179.858986 
L 377.641841 179.993235 
L 379.367942 180.06018 
L 381.439263 180.157619 
L 383.165364 180.373603 
L 384.201025 180.656829 
L 386.617567 181.110498 
L 387.653227 181.058709 
L 388.688888 180.905801 
L 389.724549 180.851808 
L 391.45065 181.135962 
L 392.831531 181.821434 
L 393.867191 182.426964 
L 394.212412 182.762673 
L 395.593292 183.244173 
L 396.283733 183.376059 
L 397.319394 183.266253 
L 397.664614 183.190002 
L 398.009834 182.943204 
L 398.355054 182.943204 
L 399.045495 182.633417 
L 400.426376 182.342376 
L 401.462036 182.328491 
L 403.533358 182.342759 
L 403.878578 182.284532 
L 405.949899 181.16097 
L 406.295119 180.616485 
L 406.64034 180.616485 
L 406.98556 180.205698 
L 408.711661 179.262799 
L 409.747322 179.142461 
L 412.163863 179.151288 
L 412.509084 178.961588 
L 412.854304 178.961588 
L 413.544744 178.551896 
L 414.235185 178.184657 
L 414.580405 177.698734 
L 414.925625 177.698734 
L 415.270845 177.342129 
L 417.342167 176.492968 
L 419.068268 176.165276 
L 420.449149 175.744978 
L 420.794369 175.332104 
L 421.139589 175.332104 
L 421.484809 174.956061 
L 422.86569 174.200391 
L 423.210911 174.200391 
L 423.556131 174.060089 
L 424.591791 174.145125 
L 425.282232 174.382134 
L 425.972672 174.70302 
L 427.008333 174.909511 
L 427.698773 174.843486 
L 428.734434 174.541291 
L 429.079654 174.298494 
L 429.424875 173.893746 
L 430.805755 172.864664 
L 431.150976 172.486758 
L 431.496196 172.486758 
L 431.841416 172.188104 
L 432.186636 172.071057 
L 432.186636 172.071057 
" clip-path="url(#p044cc1ec8c)" style="fill: none; stroke: #0000ff; stroke-width: 1.5; stroke-linecap: square"/>
   </g>
   <g id="patch_8">
    <path d="M 58.106 190.3975 
L 58.106 139.92 
" style="fill: none; stroke: #000000; stroke-width: 0.8; stroke-linejoin: miter; stroke-linecap: square"/>
   </g>
   <g id="patch_9">
    <path d="M 450 190.3975 
L 450 139.92 
" style="fill: none; stroke: #000000; stroke-width: 0.8; stroke-linejoin: miter; stroke-linecap: square"/>
   </g>
   <g id="patch_10">
    <path d="M 58.106 190.3975 
L 450 190.3975 
" style="fill: none; stroke: #000000; stroke-width: 0.8; stroke-linejoin: miter; stroke-linecap: square"/>
   </g>
   <g id="patch_11">
    <path d="M 58.106 139.92 
L 450 139.92 
" style="fill: none; stroke: #000000; stroke-width: 0.8; stroke-linejoin: miter; stroke-linecap: square"/>
   </g>
   <g id="text_23">
    <!-- Error in $z$-position -->
    <g transform="translate(200.773 133.92)scale(0.12 -0.12)">
     <use xlink:href="#DejaVuSans-45" transform="translate(0 0.015625)"/>
     <use xlink:href="#DejaVuSans-72" transform="translate(63.183594 0.015625)"/>
     <use xlink:href="#DejaVuSans-72" transform="translate(104.296875 0.015625)"/>
     <use xlink:href="#DejaVuSans-6f" transform="translate(145.410156 0.015625)"/>
     <use xlink:href="#DejaVuSans-72" transform="translate(206.591797 0.015625)"/>
     <use xlink:href="#DejaVuSans-20" transform="translate(247.705078 0.015625)"/>
     <use xlink:href="#DejaVuSans-69" transform="translate(279.492188 0.015625)"/>
     <use xlink:href="#DejaVuSans-6e" transform="translate(307.275391 0.015625)"/>
     <use xlink:href="#DejaVuSans-20" transform="translate(370.654297 0.015625)"/>
     <use xlink:href="#DejaVuSans-Oblique-7a" transform="translate(402.441406 0.015625)"/>
     <use xlink:href="#DejaVuSans-2d" transform="translate(454.931641 0.015625)"/>
     <use xlink:href="#DejaVuSans-70" transform="translate(491.015625 0.015625)"/>
     <use xlink:href="#DejaVuSans-6f" transform="translate(554.492188 0.015625)"/>
     <use xlink:href="#DejaVuSans-73" transform="translate(615.673828 0.015625)"/>
     <use xlink:href="#DejaVuSans-69" transform="translate(667.773438 0.015625)"/>
     <use xlink:href="#DejaVuSans-74" transform="translate(695.556641 0.015625)"/>
     <use xlink:href="#DejaVuSans-69" transform="translate(734.765625 0.015625)"/>
     <use xlink:href="#DejaVuSans-6f" transform="translate(762.548828 0.015625)"/>
     <use xlink:href="#DejaVuSans-6e" transform="translate(823.730469 0.015625)"/>
    </g>
   </g>
  </g>
  <g id="axes_3">
   <g id="patch_12">
    <path d="M 58.106 301.9975 
L 450 301.9975 
L 450 251.52 
L 58.106 251.52 
z
" style="fill: #ffffff"/>
   </g>
   <g id="matplotlib.axis_5">
    <g id="xtick_13">
     <g id="line2d_37">
      <path d="M 75.919364 301.9975 
L 75.919364 251.52 
" clip-path="url(#p1654c9890f)" style="fill: none; stroke: #b0b0b0; stroke-width: 0.8; stroke-linecap: square"/>
     </g>
     <g id="line2d_38">
      <g>
       <use xlink:href="#me70b15840b" x="75.919364" y="301.9975" style="stroke: #000000; stroke-width: 0.8"/>
      </g>
     </g>
     <g id="text_24">
      <!-- 0 -->
      <g transform="translate(72.738114 316.595937)scale(0.1 -0.1)">
       <use xlink:href="#DejaVuSans-30"/>
      </g>
     </g>
    </g>
    <g id="xtick_14">
     <g id="line2d_39">
      <path d="M 144.89657 301.9975 
L 144.89657 251.52 
" clip-path="url(#p1654c9890f)" style="fill: none; stroke: #b0b0b0; stroke-width: 0.8; stroke-linecap: square"/>
     </g>
     <g id="line2d_40">
      <g>
       <use xlink:href="#me70b15840b" x="144.89657" y="301.9975" style="stroke: #000000; stroke-width: 0.8"/>
      </g>
     </g>
     <g id="text_25">
      <!-- 2 -->
      <g transform="translate(141.71532 316.595937)scale(0.1 -0.1)">
       <use xlink:href="#DejaVuSans-32"/>
      </g>
     </g>
    </g>
    <g id="xtick_15">
     <g id="line2d_41">
      <path d="M 213.873777 301.9975 
L 213.873777 251.52 
" clip-path="url(#p1654c9890f)" style="fill: none; stroke: #b0b0b0; stroke-width: 0.8; stroke-linecap: square"/>
     </g>
     <g id="line2d_42">
      <g>
       <use xlink:href="#me70b15840b" x="213.873777" y="301.9975" style="stroke: #000000; stroke-width: 0.8"/>
      </g>
     </g>
     <g id="text_26">
      <!-- 4 -->
      <g transform="translate(210.692527 316.595937)scale(0.1 -0.1)">
       <use xlink:href="#DejaVuSans-34"/>
      </g>
     </g>
    </g>
    <g id="xtick_16">
     <g id="line2d_43">
      <path d="M 282.850984 301.9975 
L 282.850984 251.52 
" clip-path="url(#p1654c9890f)" style="fill: none; stroke: #b0b0b0; stroke-width: 0.8; stroke-linecap: square"/>
     </g>
     <g id="line2d_44">
      <g>
       <use xlink:href="#me70b15840b" x="282.850984" y="301.9975" style="stroke: #000000; stroke-width: 0.8"/>
      </g>
     </g>
     <g id="text_27">
      <!-- 6 -->
      <g transform="translate(279.669734 316.595937)scale(0.1 -0.1)">
       <use xlink:href="#DejaVuSans-36"/>
      </g>
     </g>
    </g>
    <g id="xtick_17">
     <g id="line2d_45">
      <path d="M 351.828191 301.9975 
L 351.828191 251.52 
" clip-path="url(#p1654c9890f)" style="fill: none; stroke: #b0b0b0; stroke-width: 0.8; stroke-linecap: square"/>
     </g>
     <g id="line2d_46">
      <g>
       <use xlink:href="#me70b15840b" x="351.828191" y="301.9975" style="stroke: #000000; stroke-width: 0.8"/>
      </g>
     </g>
     <g id="text_28">
      <!-- 8 -->
      <g transform="translate(348.646941 316.595937)scale(0.1 -0.1)">
       <use xlink:href="#DejaVuSans-38"/>
      </g>
     </g>
    </g>
    <g id="xtick_18">
     <g id="line2d_47">
      <path d="M 420.805397 301.9975 
L 420.805397 251.52 
" clip-path="url(#p1654c9890f)" style="fill: none; stroke: #b0b0b0; stroke-width: 0.8; stroke-linecap: square"/>
     </g>
     <g id="line2d_48">
      <g>
       <use xlink:href="#me70b15840b" x="420.805397" y="301.9975" style="stroke: #000000; stroke-width: 0.8"/>
      </g>
     </g>
     <g id="text_29">
      <!-- 10 -->
      <g transform="translate(414.442897 316.595937)scale(0.1 -0.1)">
       <use xlink:href="#DejaVuSans-31"/>
       <use xlink:href="#DejaVuSans-30" x="63.623047"/>
      </g>
     </g>
    </g>
    <g id="text_30">
     <!-- $t$ [s] -->
     <g transform="translate(243.953 330.274063)scale(0.1 -0.1)">
      <use xlink:href="#DejaVuSans-Oblique-74" transform="translate(0 0.015625)"/>
      <use xlink:href="#DejaVuSans-20" transform="translate(39.208984 0.015625)"/>
      <use xlink:href="#DejaVuSans-5b" transform="translate(70.996094 0.015625)"/>
      <use xlink:href="#DejaVuSans-73" transform="translate(110.009766 0.015625)"/>
      <use xlink:href="#DejaVuSans-5d" transform="translate(162.109375 0.015625)"/>
     </g>
    </g>
   </g>
   <g id="matplotlib.axis_6">
    <g id="ytick_6">
     <g id="line2d_49">
      <path d="M 58.106 291.232672 
L 450 291.232672 
" clip-path="url(#p1654c9890f)" style="fill: none; stroke: #b0b0b0; stroke-width: 0.8; stroke-linecap: square"/>
     </g>
     <g id="line2d_50">
      <g>
       <use xlink:href="#mbb4d085fab" x="58.106" y="291.232672" style="stroke: #000000; stroke-width: 0.8"/>
      </g>
     </g>
     <g id="text_31">
      <!-- −0.1 -->
      <g transform="translate(26.823188 295.031891)scale(0.1 -0.1)">
       <use xlink:href="#DejaVuSans-2212"/>
       <use xlink:href="#DejaVuSans-30" x="83.789062"/>
       <use xlink:href="#DejaVuSans-2e" x="147.412109"/>
       <use xlink:href="#DejaVuSans-31" x="179.199219"/>
      </g>
     </g>
    </g>
    <g id="ytick_7">
     <g id="line2d_51">
      <path d="M 58.106 275.824342 
L 450 275.824342 
" clip-path="url(#p1654c9890f)" style="fill: none; stroke: #b0b0b0; stroke-width: 0.8; stroke-linecap: square"/>
     </g>
     <g id="line2d_52">
      <g>
       <use xlink:href="#mbb4d085fab" x="58.106" y="275.824342" style="stroke: #000000; stroke-width: 0.8"/>
      </g>
     </g>
     <g id="text_32">
      <!-- 0.0 -->
      <g transform="translate(35.202875 279.623561)scale(0.1 -0.1)">
       <use xlink:href="#DejaVuSans-30"/>
       <use xlink:href="#DejaVuSans-2e" x="63.623047"/>
       <use xlink:href="#DejaVuSans-30" x="95.410156"/>
      </g>
     </g>
    </g>
    <g id="ytick_8">
     <g id="line2d_53">
      <path d="M 58.106 260.416012 
L 450 260.416012 
" clip-path="url(#p1654c9890f)" style="fill: none; stroke: #b0b0b0; stroke-width: 0.8; stroke-linecap: square"/>
     </g>
     <g id="line2d_54">
      <g>
       <use xlink:href="#mbb4d085fab" x="58.106" y="260.416012" style="stroke: #000000; stroke-width: 0.8"/>
      </g>
     </g>
     <g id="text_33">
      <!-- 0.1 -->
      <g transform="translate(35.202875 264.215231)scale(0.1 -0.1)">
       <use xlink:href="#DejaVuSans-30"/>
       <use xlink:href="#DejaVuSans-2e" x="63.623047"/>
       <use xlink:href="#DejaVuSans-31" x="95.410156"/>
      </g>
     </g>
    </g>
    <g id="text_34">
     <!-- $e_\theta$ [rad] -->
     <g transform="translate(20.7435 295.90875)rotate(-90)scale(0.1 -0.1)">
      <defs>
       <path id="DejaVuSans-Oblique-3b8" d="M 2913 2219 
L 925 2219 
Q 791 1284 928 888 
Q 1100 400 1566 400 
Q 2034 400 2391 891 
Q 2703 1322 2913 2219 
z
M 3009 2750 
Q 3094 3638 2984 3950 
Q 2813 4444 2353 4444 
Q 1875 4444 1525 3956 
Q 1250 3563 1034 2750 
L 3009 2750 
z
M 2444 4913 
Q 3194 4913 3494 4250 
Q 3794 3591 3566 2422 
Q 3341 1256 2781 594 
Q 2225 -72 1475 -72 
Q 722 -72 425 594 
Q 128 1256 353 2422 
Q 581 3591 1134 4250 
Q 1691 4913 2444 4913 
z
" transform="scale(0.015625)"/>
       <path id="DejaVuSans-61" d="M 2194 1759 
Q 1497 1759 1228 1600 
Q 959 1441 959 1056 
Q 959 750 1161 570 
Q 1363 391 1709 391 
Q 2188 391 2477 730 
Q 2766 1069 2766 1631 
L 2766 1759 
L 2194 1759 
z
M 3341 1997 
L 3341 0 
L 2766 0 
L 2766 531 
Q 2569 213 2275 61 
Q 1981 -91 1556 -91 
Q 1019 -91 701 211 
Q 384 513 384 1019 
Q 384 1609 779 1909 
Q 1175 2209 1959 2209 
L 2766 2209 
L 2766 2266 
Q 2766 2663 2505 2880 
Q 2244 3097 1772 3097 
Q 1472 3097 1187 3025 
Q 903 2953 641 2809 
L 641 3341 
Q 956 3463 1253 3523 
Q 1550 3584 1831 3584 
Q 2591 3584 2966 3190 
Q 3341 2797 3341 1997 
z
" transform="scale(0.015625)"/>
       <path id="DejaVuSans-64" d="M 2906 2969 
L 2906 4863 
L 3481 4863 
L 3481 0 
L 2906 0 
L 2906 525 
Q 2725 213 2448 61 
Q 2172 -91 1784 -91 
Q 1150 -91 751 415 
Q 353 922 353 1747 
Q 353 2572 751 3078 
Q 1150 3584 1784 3584 
Q 2172 3584 2448 3432 
Q 2725 3281 2906 2969 
z
M 947 1747 
Q 947 1113 1208 752 
Q 1469 391 1925 391 
Q 2381 391 2643 752 
Q 2906 1113 2906 1747 
Q 2906 2381 2643 2742 
Q 2381 3103 1925 3103 
Q 1469 3103 1208 2742 
Q 947 2381 947 1747 
z
" transform="scale(0.015625)"/>
      </defs>
      <use xlink:href="#DejaVuSans-Oblique-65" transform="translate(0 0.015625)"/>
      <use xlink:href="#DejaVuSans-Oblique-3b8" transform="translate(61.523438 -16.390625)scale(0.7)"/>
      <use xlink:href="#DejaVuSans-20" transform="translate(107.084961 0.015625)"/>
      <use xlink:href="#DejaVuSans-5b" transform="translate(138.87207 0.015625)"/>
      <use xlink:href="#DejaVuSans-72" transform="translate(177.885742 0.015625)"/>
      <use xlink:href="#DejaVuSans-61" transform="translate(218.999023 0.015625)"/>
      <use xlink:href="#DejaVuSans-64" transform="translate(280.27832 0.015625)"/>
      <use xlink:href="#DejaVuSans-5d" transform="translate(343.754883 0.015625)"/>
     </g>
    </g>
   </g>
   <g id="line2d_55">
    <path d="M 75.919364 275.977601 
L 76.609804 276.459055 
L 76.955024 276.865017 
L 77.300245 277.443612 
L 77.990685 277.411996 
L 79.371566 271.804181 
L 79.716786 269.170484 
L 80.062006 265.555345 
L 81.097667 260.640137 
L 81.788107 257.431227 
L 82.133328 255.762242 
L 82.478548 255.259441 
L 82.823768 255.00301 
L 83.168988 254.987572 
L 83.514209 255.219036 
L 83.859429 256.058514 
L 84.204649 258.042391 
L 84.895089 260.817453 
L 85.24031 262.416382 
L 85.58553 265.006513 
L 85.93075 268.75829 
L 86.27597 268.75829 
L 86.621191 272.829607 
L 87.656851 279.375978 
L 88.692512 289.103406 
L 90.418613 297.865423 
L 91.109054 299.065893 
L 91.799494 299.639156 
L 92.144714 299.703068 
L 92.489934 299.494438 
L 93.525595 296.254315 
L 94.216036 292.847947 
L 94.561256 289.723659 
L 94.906476 285.084742 
L 95.942137 278.011405 
L 96.977797 268.467218 
L 98.013458 262.611276 
L 98.358678 260.199221 
L 98.703899 260.199221 
L 99.049119 258.651393 
L 99.394339 258.205183 
L 99.739559 257.950799 
L 100.084779 257.904183 
L 101.810881 260.612269 
L 102.156101 261.645835 
L 102.501321 263.120508 
L 102.846541 263.120508 
L 103.191761 264.66662 
L 103.536982 265.458079 
L 104.227422 267.823977 
L 104.572642 268.210919 
L 104.917863 268.980323 
L 105.263083 270.526631 
L 105.608303 270.526631 
L 105.953523 272.992098 
L 106.298743 273.436148 
L 106.989184 275.321691 
L 107.334404 277.346627 
L 107.679624 277.346627 
L 108.024845 280.48615 
L 108.370065 281.000563 
L 109.060505 282.962446 
L 109.405726 284.651318 
L 109.750946 284.651318 
L 110.096166 286.20236 
L 110.786606 286.404752 
L 111.131827 286.309506 
L 111.822267 284.971131 
L 112.512708 282.449896 
L 112.857928 281.963139 
L 113.203148 280.955408 
L 113.548368 278.881038 
L 113.893588 277.85947 
L 114.584029 275.069951 
L 114.929249 274.673971 
L 115.274469 273.962713 
L 115.61969 272.921427 
L 115.96491 272.921427 
L 116.31013 272.546627 
L 116.65535 272.632784 
L 117.00057 272.926203 
L 117.345791 273.369758 
L 117.691011 274.629455 
L 118.036231 274.629455 
L 118.381451 277.222666 
L 118.726672 277.719734 
L 119.417112 279.831123 
L 119.762332 282.084158 
L 120.107553 282.084158 
L 120.452773 285.253876 
L 120.797993 285.711403 
L 121.488433 287.149007 
L 121.833654 287.62513 
L 122.178874 287.62513 
L 122.524094 286.133073 
L 122.869314 285.638869 
L 123.559755 283.11376 
L 123.904975 279.970487 
L 124.250195 279.970487 
L 124.595415 274.802379 
L 124.940636 273.931225 
L 125.631076 270.523197 
L 125.976296 267.352429 
L 126.666737 263.336156 
L 127.011957 262.766762 
L 127.702397 260.749 
L 128.047618 259.05258 
L 128.392838 259.05258 
L 128.738058 256.823484 
L 129.083278 256.485054 
L 130.464159 254.022596 
L 130.809379 253.814432 
L 131.49982 254.077712 
L 131.84504 254.448214 
L 132.19026 255.603286 
L 132.535481 256.330493 
L 133.225921 258.733157 
L 133.571141 259.140259 
L 133.916362 259.952575 
L 134.261582 261.558218 
L 134.606802 262.357805 
L 135.297242 264.774741 
L 135.642463 265.182701 
L 135.987683 265.995941 
L 136.332903 267.564304 
L 136.678123 268.304995 
L 137.713784 271.288828 
L 138.059004 271.288828 
L 138.404224 272.405379 
L 138.749445 272.405379 
L 139.094665 273.677453 
L 140.475546 274.21088 
L 142.546867 273.087533 
L 142.892087 273.087533 
L 143.237308 273.50146 
L 143.582528 273.641798 
L 144.272968 274.339557 
L 144.618189 275.183715 
L 144.963409 275.183715 
L 145.308629 276.548891 
L 145.653849 276.77791 
L 146.34429 277.660299 
L 146.68951 278.436374 
L 147.03473 278.436374 
L 147.37995 279.346584 
L 148.070391 279.729716 
L 148.415611 279.957962 
L 148.760831 280.321784 
L 149.796492 280.689566 
L 150.832153 280.669029 
L 151.522593 280.482343 
L 152.558254 280.061044 
L 153.593914 278.497546 
L 154.284355 276.453057 
L 154.629575 276.453057 
L 154.974795 274.605977 
L 155.320016 273.559772 
L 156.355676 268.603416 
L 156.700896 268.603416 
L 157.046117 266.631135 
L 158.081777 264.050969 
L 158.426998 263.615256 
L 158.772218 263.615256 
L 159.117438 263.226454 
L 159.462658 263.042858 
L 160.153099 262.291041 
L 160.498319 261.748831 
L 160.843539 261.748831 
L 161.188759 260.880313 
L 161.53398 260.409865 
L 162.56964 258.286359 
L 162.91486 258.286359 
L 163.260081 257.385086 
L 163.950521 256.360978 
L 164.640962 255.451646 
L 164.986182 255.451646 
L 165.331402 255.08547 
L 166.021842 254.950482 
L 166.367063 255.02876 
L 166.712283 255.370112 
L 167.057503 255.370112 
L 167.402723 255.912836 
L 167.747944 256.233744 
L 168.783604 257.776814 
L 169.128825 257.776814 
L 169.474045 258.411886 
L 170.854926 259.53837 
L 171.200146 259.53837 
L 171.890586 259.672881 
L 173.271467 259.622542 
L 174.307128 260.036576 
L 174.652348 260.434064 
L 174.997568 261.180598 
L 176.033229 262.691702 
L 176.378449 263.271872 
L 177.41411 265.956556 
L 179.485431 269.144173 
L 180.175872 269.428208 
L 180.866312 269.468231 
L 181.211532 269.299798 
L 181.901973 268.531449 
L 183.628074 267.014953 
L 183.973294 267.063402 
L 184.318514 267.230138 
L 184.663735 267.522543 
L 185.008955 268.238044 
L 185.354175 269.773423 
L 185.699395 269.773423 
L 186.044616 272.010986 
L 186.389836 273.361066 
L 187.425496 280.432969 
L 187.770717 280.432969 
L 188.115937 283.42965 
L 188.806377 286.108085 
L 189.151598 286.803448 
L 189.842038 286.761494 
L 190.532479 284.816508 
L 191.222919 281.357237 
L 191.568139 280.723997 
L 191.913359 279.453382 
L 192.25858 277.044009 
L 192.94902 274.407298 
L 193.984681 273.524731 
L 194.329901 273.939785 
L 194.675121 274.913381 
L 195.020341 276.347238 
L 195.365562 276.904061 
L 197.091663 283.186897 
L 197.436883 283.324481 
L 197.782103 283.180035 
L 198.127323 282.766672 
L 198.472544 282.108683 
L 198.817764 280.701844 
L 199.162984 278.188803 
L 200.198645 273.768069 
L 201.234305 267.805936 
L 201.924746 266.247103 
L 202.269966 265.840496 
L 202.615186 265.755139 
L 203.996067 269.324317 
L 204.341288 270.437273 
L 205.031728 273.883617 
L 205.376948 274.451766 
L 205.722168 274.757185 
L 206.067389 274.784611 
L 206.412609 274.522661 
L 206.757829 273.589563 
L 207.103049 271.454357 
L 208.13871 267.06114 
L 208.48393 265.471735 
L 209.519591 258.927781 
L 210.210031 256.878707 
L 210.555252 255.986774 
L 211.245692 255.93178 
L 211.936132 258.226572 
L 212.626573 262.450446 
L 212.971793 263.248877 
L 213.317013 264.868458 
L 213.662234 268.038686 
L 214.697894 272.444445 
L 215.388335 273.030746 
L 215.733555 272.699572 
L 216.078775 272.07238 
L 216.423995 271.178763 
L 216.769216 269.455256 
L 217.114436 266.732636 
L 217.459656 266.732636 
L 217.804876 263.893556 
L 219.185757 258.784633 
L 219.530977 258.015331 
L 219.876198 258.085349 
L 220.221418 258.454199 
L 220.566638 259.105391 
L 220.911858 260.014617 
L 221.257079 261.800398 
L 221.602299 264.76295 
L 222.98318 271.317035 
L 223.3284 274.640668 
L 223.67362 274.640668 
L 224.01884 276.192471 
L 224.364061 276.556446 
L 224.709281 276.650783 
L 225.054501 276.456636 
L 225.399721 275.978095 
L 225.744942 274.798471 
L 226.090162 272.701617 
L 228.161483 266.112372 
L 228.506703 265.885241 
L 228.851924 265.8515 
L 229.197144 266.010636 
L 229.542364 266.889556 
L 229.887584 266.889556 
L 230.232804 269.51102 
L 230.578025 270.067924 
L 231.268465 272.502617 
L 231.613685 275.049237 
L 231.958906 275.049237 
L 232.304126 278.546766 
L 232.649346 279.054899 
L 233.339786 280.758649 
L 234.030227 281.678652 
L 234.720667 280.809763 
L 235.411108 279.355501 
L 235.756328 276.878102 
L 236.101548 276.878102 
L 236.446768 274.561067 
L 238.51809 267.27727 
L 238.86331 267.027071 
L 239.20853 267.018104 
L 239.553751 267.252355 
L 239.898971 268.818797 
L 240.244191 268.818797 
L 240.589411 270.884871 
L 241.625072 274.499318 
L 241.970292 276.610853 
L 242.315512 276.610853 
L 242.660733 278.631064 
L 243.351173 278.99451 
L 243.696393 278.952148 
L 244.386834 277.267764 
L 245.077274 273.477683 
L 245.422494 271.068717 
L 245.767715 271.068717 
L 246.112935 267.667794 
L 246.458155 266.00181 
L 247.148595 261.994046 
L 247.493816 261.557151 
L 247.839036 260.928125 
L 248.184256 260.685522 
L 248.529476 260.685522 
L 248.874697 262.671445 
L 249.219917 263.213523 
L 250.255578 267.155536 
L 251.291238 273.011651 
L 251.981679 274.640693 
L 252.326899 275.10566 
L 252.672119 275.275444 
L 253.70778 272.502188 
L 254.053 271.211999 
L 254.39822 269.011137 
L 254.74344 265.829636 
L 256.469542 257.989755 
L 257.159982 258.062498 
L 257.505202 258.628428 
L 258.195643 260.626299 
L 258.540863 261.982908 
L 258.886083 264.332887 
L 259.231303 267.785972 
L 260.612184 275.062094 
L 260.957405 277.122022 
L 261.302625 277.673993 
L 261.647845 277.891391 
L 261.993065 277.785813 
L 262.338285 277.069004 
L 262.683506 275.233406 
L 263.028726 275.233406 
L 263.373946 272.683648 
L 264.409607 268.274199 
L 265.100047 263.872321 
L 265.790488 262.450297 
L 266.135708 262.158322 
L 266.480928 262.174176 
L 266.826148 262.790565 
L 267.516589 265.941883 
L 268.552249 270.713859 
L 269.58791 278.307053 
L 270.278351 281.001909 
L 270.968791 282.845863 
L 271.314011 282.667793 
L 271.659232 282.036524 
L 272.349672 279.883585 
L 273.040112 276.888371 
L 273.385333 274.326974 
L 273.730553 270.779545 
L 274.766214 265.719019 
L 275.111434 263.012427 
L 275.456654 261.765758 
L 275.801874 261.368984 
L 276.147094 261.431027 
L 276.492315 261.837465 
L 276.837535 262.600722 
L 277.873196 270.214764 
L 278.218416 271.169543 
L 278.908856 275.059586 
L 279.254076 278.830772 
L 279.599297 280.576236 
L 280.289737 284.784234 
L 280.634957 285.279098 
L 280.980178 286.011404 
L 281.325398 286.296547 
L 281.670618 285.822895 
L 282.015838 284.382303 
L 282.706279 279.478348 
L 283.051499 279.478348 
L 283.396719 275.349394 
L 283.741939 275.349394 
L 284.08716 268.83326 
L 284.43238 267.770033 
L 285.12282 263.694008 
L 285.468041 260.064823 
L 286.503701 255.977845 
L 287.194142 255.935665 
L 288.229802 259.788781 
L 288.575023 262.369806 
L 288.920243 266.327998 
L 290.301124 274.717179 
L 290.991564 280.80474 
L 291.682005 282.802796 
L 292.027225 283.261686 
L 292.372445 283.335162 
L 292.717665 282.714707 
L 293.062885 280.642155 
L 293.408106 280.642155 
L 293.753326 277.482008 
L 294.098546 275.631597 
L 295.134207 266.586983 
L 295.479427 266.586983 
L 295.824647 262.760162 
L 296.860308 257.526752 
L 297.205528 257.055995 
L 297.550748 257.055995 
L 298.241189 258.784856 
L 298.931629 263.271309 
L 299.27685 266.103281 
L 299.62207 266.103281 
L 299.96729 270.140523 
L 301.348171 278.881638 
L 301.693391 281.944241 
L 302.383832 283.997909 
L 302.729052 284.522807 
L 303.074272 284.606548 
L 303.419492 283.394472 
L 303.764712 283.394472 
L 304.109933 280.881743 
L 305.145593 275.565796 
L 305.490814 272.56879 
L 305.836034 268.507489 
L 307.562135 257.921258 
L 307.907355 257.921258 
L 308.252575 257.059256 
L 308.597796 257.232682 
L 308.943016 257.795191 
L 309.633456 259.953536 
L 309.978677 262.275048 
L 310.323897 265.973394 
L 311.704778 274.068032 
L 312.740438 282.069295 
L 313.776099 286.038502 
L 314.121319 286.038502 
L 314.466539 285.64909 
L 314.81176 284.897869 
L 315.15698 283.164787 
L 315.84742 278.151497 
L 316.192641 278.151497 
L 316.537861 274.215492 
L 316.883081 272.173691 
L 317.573521 266.175644 
L 317.918742 265.230094 
L 318.263962 263.438699 
L 318.609182 260.504566 
L 319.299623 258.801739 
L 319.644843 258.467009 
L 319.990063 259.221382 
L 320.335283 259.221382 
L 321.025724 262.56756 
L 321.370944 264.116172 
L 321.716164 266.672678 
L 322.061384 270.329404 
L 322.406605 270.329404 
L 322.751825 273.989805 
L 323.787486 279.607689 
L 324.132706 281.686336 
L 324.477926 281.686336 
L 324.823146 282.775213 
L 325.168366 282.946524 
L 325.513587 282.848723 
L 325.858807 282.15895 
L 326.204027 280.264638 
L 326.549247 280.264638 
L 326.894468 277.441267 
L 327.239688 277.441267 
L 327.584908 272.112756 
L 327.930128 271.171605 
L 328.620569 267.444823 
L 328.965789 264.003388 
L 329.311009 264.003388 
L 329.656229 260.373643 
L 330.69189 259.305386 
L 331.382331 260.760907 
L 332.072771 264.780832 
L 332.417991 267.381876 
L 332.763211 267.381876 
L 333.108432 271.125685 
L 333.798872 274.854633 
L 334.489313 280.527375 
L 334.834533 280.527375 
L 335.179753 282.949808 
L 335.870193 284.477432 
L 336.215414 284.788005 
L 336.560634 284.583525 
L 338.286735 276.89944 
L 338.631955 274.034189 
L 338.977175 270.169835 
L 340.703277 260.289794 
L 341.048497 260.289794 
L 341.393717 259.507927 
L 341.738937 259.662066 
L 342.084158 260.167327 
L 342.429378 261.001335 
L 342.774598 263.52233 
L 343.119818 263.52233 
L 343.465038 268.703884 
L 343.810259 269.650673 
L 344.500699 273.481039 
L 344.845919 277.205249 
L 345.19114 277.205249 
L 345.53636 282.0271 
L 345.88158 282.713669 
L 346.57202 284.907791 
L 346.917241 285.816927 
L 347.262461 285.696066 
L 347.607681 284.808194 
L 347.952901 283.175881 
L 348.298122 282.496801 
L 348.643342 280.973722 
L 348.988562 277.429805 
L 349.333782 277.429805 
L 349.679002 271.615333 
L 350.024223 270.636015 
L 350.714663 266.85716 
L 351.059883 263.480203 
L 351.405104 263.480203 
L 351.750324 260.042014 
L 352.440764 259.328213 
L 352.785984 259.283629 
L 353.131205 259.594563 
L 353.476425 260.70034 
L 353.821645 263.184341 
L 354.857306 268.218545 
L 355.892967 276.302086 
L 357.619068 284.085272 
L 357.964288 284.242645 
L 358.309508 284.056843 
L 358.654728 283.548909 
L 358.999949 282.244247 
L 359.345169 279.67319 
L 359.690389 279.67319 
L 360.035609 276.471312 
L 361.07127 271.148583 
L 362.106931 263.852168 
L 362.797371 261.573672 
L 363.142591 260.540985 
L 363.487811 260.346556 
L 363.833032 260.346556 
L 365.213913 265.229475 
L 365.559133 267.666621 
L 365.904353 271.231689 
L 367.975674 282.372928 
L 368.320895 284.812833 
L 369.011335 286.313774 
L 369.356555 286.620526 
L 369.701776 286.59265 
L 370.046996 285.890536 
L 370.737436 282.27923 
L 371.427877 278.696461 
L 371.773097 274.660185 
L 372.118317 274.660185 
L 372.463537 268.53082 
L 372.808758 267.556875 
L 373.499198 263.94013 
L 373.844418 261.048715 
L 374.534859 259.126323 
L 374.880079 258.99668 
L 375.225299 259.128907 
L 375.570519 259.643041 
L 376.9514 267.554347 
L 377.296621 270.054279 
L 377.641841 270.054279 
L 377.987061 273.366668 
L 378.677501 276.519198 
L 379.367942 281.354851 
L 379.713162 281.354851 
L 380.058382 283.460965 
L 380.748823 284.876148 
L 381.094043 285.284255 
L 381.439263 284.771147 
L 381.784483 284.055782 
L 382.474924 281.806493 
L 382.820144 280.349401 
L 383.165364 277.84804 
L 383.510585 274.195656 
L 385.236686 264.263021 
L 385.581906 261.449064 
L 385.927126 261.449064 
L 386.272346 259.516574 
L 386.617567 258.919463 
L 386.962787 258.59295 
L 387.308007 258.566747 
L 387.653227 259.104718 
L 388.343668 261.980661 
L 389.379328 266.341912 
L 390.414989 273.435594 
L 391.79587 279.70474 
L 392.14109 281.812117 
L 392.831531 283.233734 
L 393.176751 283.646892 
L 393.521971 283.829683 
L 393.867191 283.658033 
L 394.557632 282.024 
L 395.593292 279.596414 
L 396.628953 276.243975 
L 398.009834 273.825015 
L 398.355054 273.825015 
L 398.700274 273.399728 
L 399.735935 273.017045 
L 400.426376 272.948407 
L 401.807257 273.35231 
L 402.497697 273.400541 
L 403.533358 272.398764 
L 403.878578 271.870656 
L 404.914239 267.777278 
L 405.259459 267.298879 
L 405.949899 265.461846 
L 406.295119 263.877268 
L 406.64034 263.877268 
L 406.98556 263.623423 
L 407.33078 263.858377 
L 407.676 264.305628 
L 408.021221 264.934893 
L 408.366441 266.144955 
L 408.711661 268.088433 
L 410.092542 272.358975 
L 410.437762 274.728262 
L 410.782982 274.728262 
L 411.128203 275.954603 
L 411.473423 276.226808 
L 411.818643 276.245556 
L 412.163863 275.999094 
L 412.509084 274.283071 
L 412.854304 274.283071 
L 413.199524 272.026843 
L 414.235185 268.184411 
L 414.580405 265.53594 
L 414.925625 265.53594 
L 415.270845 264.246715 
L 415.616066 263.924874 
L 415.961286 263.826402 
L 416.306506 263.944431 
L 416.651726 265.158486 
L 416.996946 265.158486 
L 417.342167 266.939176 
L 418.377827 270.483241 
L 419.068268 274.955482 
L 419.413488 276.728257 
L 419.758708 277.283271 
L 420.449149 279.281033 
L 420.794369 281.105377 
L 421.139589 281.105377 
L 421.484809 281.831675 
L 421.83003 281.948459 
L 422.17525 281.924001 
L 422.52047 281.782641 
L 422.86569 281.254283 
L 423.210911 281.254283 
L 423.556131 280.294408 
L 424.246571 279.898836 
L 426.663113 278.383433 
L 427.008333 277.488846 
L 427.353553 277.488846 
L 427.698773 276.918748 
L 428.389214 276.591992 
L 429.079654 276.544008 
L 430.805755 277.493983 
L 431.496196 277.437276 
L 432.186636 276.46631 
L 432.186636 276.46631 
" clip-path="url(#p1654c9890f)" style="fill: none; stroke: #008000; stroke-width: 1.5; stroke-linecap: square"/>
   </g>
   <g id="patch_13">
    <path d="M 58.106 301.9975 
L 58.106 251.52 
" style="fill: none; stroke: #000000; stroke-width: 0.8; stroke-linejoin: miter; stroke-linecap: square"/>
   </g>
   <g id="patch_14">
    <path d="M 450 301.9975 
L 450 251.52 
" style="fill: none; stroke: #000000; stroke-width: 0.8; stroke-linejoin: miter; stroke-linecap: square"/>
   </g>
   <g id="patch_15">
    <path d="M 58.106 301.9975 
L 450 301.9975 
" style="fill: none; stroke: #000000; stroke-width: 0.8; stroke-linejoin: miter; stroke-linecap: square"/>
   </g>
   <g id="patch_16">
    <path d="M 58.106 251.52 
L 450 251.52 
" style="fill: none; stroke: #000000; stroke-width: 0.8; stroke-linejoin: miter; stroke-linecap: square"/>
   </g>
   <g id="text_35">
    <!-- Error in swing angle -->
    <g transform="translate(194.282688 245.52)scale(0.12 -0.12)">
     <defs>
      <path id="DejaVuSans-77" d="M 269 3500 
L 844 3500 
L 1563 769 
L 2278 3500 
L 2956 3500 
L 3675 769 
L 4391 3500 
L 4966 3500 
L 4050 0 
L 3372 0 
L 2619 2869 
L 1863 0 
L 1184 0 
L 269 3500 
z
" transform="scale(0.015625)"/>
      <path id="DejaVuSans-67" d="M 2906 1791 
Q 2906 2416 2648 2759 
Q 2391 3103 1925 3103 
Q 1463 3103 1205 2759 
Q 947 2416 947 1791 
Q 947 1169 1205 825 
Q 1463 481 1925 481 
Q 2391 481 2648 825 
Q 2906 1169 2906 1791 
z
M 3481 434 
Q 3481 -459 3084 -895 
Q 2688 -1331 1869 -1331 
Q 1566 -1331 1297 -1286 
Q 1028 -1241 775 -1147 
L 775 -588 
Q 1028 -725 1275 -790 
Q 1522 -856 1778 -856 
Q 2344 -856 2625 -561 
Q 2906 -266 2906 331 
L 2906 616 
Q 2728 306 2450 153 
Q 2172 0 1784 0 
Q 1141 0 747 490 
Q 353 981 353 1791 
Q 353 2603 747 3093 
Q 1141 3584 1784 3584 
Q 2172 3584 2450 3431 
Q 2728 3278 2906 2969 
L 2906 3500 
L 3481 3500 
L 3481 434 
z
" transform="scale(0.015625)"/>
      <path id="DejaVuSans-6c" d="M 603 4863 
L 1178 4863 
L 1178 0 
L 603 0 
L 603 4863 
z
" transform="scale(0.015625)"/>
      <path id="DejaVuSans-65" d="M 3597 1894 
L 3597 1613 
L 953 1613 
Q 991 1019 1311 708 
Q 1631 397 2203 397 
Q 2534 397 2845 478 
Q 3156 559 3463 722 
L 3463 178 
Q 3153 47 2828 -22 
Q 2503 -91 2169 -91 
Q 1331 -91 842 396 
Q 353 884 353 1716 
Q 353 2575 817 3079 
Q 1281 3584 2069 3584 
Q 2775 3584 3186 3129 
Q 3597 2675 3597 1894 
z
M 3022 2063 
Q 3016 2534 2758 2815 
Q 2500 3097 2075 3097 
Q 1594 3097 1305 2825 
Q 1016 2553 972 2059 
L 3022 2063 
z
" transform="scale(0.015625)"/>
     </defs>
     <use xlink:href="#DejaVuSans-45"/>
     <use xlink:href="#DejaVuSans-72" x="63.183594"/>
     <use xlink:href="#DejaVuSans-72" x="102.546875"/>
     <use xlink:href="#DejaVuSans-6f" x="141.410156"/>
     <use xlink:href="#DejaVuSans-72" x="202.591797"/>
     <use xlink:href="#DejaVuSans-20" x="243.705078"/>
     <use xlink:href="#DejaVuSans-69" x="275.492188"/>
     <use xlink:href="#DejaVuSans-6e" x="303.275391"/>
     <use xlink:href="#DejaVuSans-20" x="366.654297"/>
     <use xlink:href="#DejaVuSans-73" x="398.441406"/>
     <use xlink:href="#DejaVuSans-77" x="450.541016"/>
     <use xlink:href="#DejaVuSans-69" x="532.328125"/>
     <use xlink:href="#DejaVuSans-6e" x="560.111328"/>
     <use xlink:href="#DejaVuSans-67" x="623.490234"/>
     <use xlink:href="#DejaVuSans-20" x="686.966797"/>
     <use xlink:href="#DejaVuSans-61" x="718.753906"/>
     <use xlink:href="#DejaVuSans-6e" x="780.033203"/>
     <use xlink:href="#DejaVuSans-67" x="843.412109"/>
     <use xlink:href="#DejaVuSans-6c" x="906.888672"/>
     <use xlink:href="#DejaVuSans-65" x="934.671875"/>
    </g>
   </g>
  </g>
 </g>
 <defs>
  <clipPath id="pa7d3e29ae8">
   <rect x="58.106" y="28.32" width="391.894" height="50.4775"/>
  </clipPath>
  <clipPath id="p044cc1ec8c">
   <rect x="58.106" y="139.92" width="391.894" height="50.4775"/>
  </clipPath>
  <clipPath id="p1654c9890f">
   <rect x="58.106" y="251.52" width="391.894" height="50.4775"/>
  </clipPath>
 </defs>
</svg>
