<?xml version="1.0" encoding="utf-8" standalone="no"?>
<!DOCTYPE svg PUBLIC "-//W3C//DTD SVG 1.1//EN"
  "http://www.w3.org/Graphics/SVG/1.1/DTD/svg11.dtd">
<svg xmlns:xlink="http://www.w3.org/1999/xlink" width="460.8pt" height="345.6pt" viewBox="0 0 460.8 345.6" xmlns="http://www.w3.org/2000/svg" version="1.1">
 <metadata>
  <rdf:RDF xmlns:dc="http://purl.org/dc/elements/1.1/" xmlns:cc="http://creativecommons.org/ns#" xmlns:rdf="http://www.w3.org/1999/02/22-rdf-syntax-ns#">
   <cc:Work>
    <dc:type rdf:resource="http://purl.org/dc/dcmitype/StillImage"/>
    <dc:date>2022-06-05T14:37:11.979861</dc:date>
    <dc:format>image/svg+xml</dc:format>
    <dc:creator>
     <cc:Agent>
      <dc:title>Matplotlib v3.5.1, https://matplotlib.org/</dc:title>
     </cc:Agent>
    </dc:creator>
   </cc:Work>
  </rdf:RDF>
 </metadata>
 <defs>
  <style type="text/css">*{stroke-linejoin: round; stroke-linecap: butt}</style>
 </defs>
 <g id="figure_1">
  <g id="patch_1">
   <path d="M 0 345.6 
L 460.8 345.6 
L 460.8 0 
L 0 0 
z
" style="fill: #ffffff"/>
  </g>
  <g id="axes_1">
   <g id="patch_2">
    <path d="M 58.106 78.7975 
L 450 78.7975 
L 450 28.32 
L 58.106 28.32 
z
" style="fill: #ffffff"/>
   </g>
   <g id="matplotlib.axis_1">
    <g id="xtick_1">
     <g id="line2d_1">
      <path d="M 75.919364 78.7975 
L 75.919364 28.32 
" clip-path="url(#pedd1ea2933)" style="fill: none; stroke: #b0b0b0; stroke-width: 0.8; stroke-linecap: square"/>
     </g>
     <g id="line2d_2">
      <defs>
       <path id="m69b6828dde" d="M 0 0 
L 0 3.5 
" style="stroke: #000000; stroke-width: 0.8"/>
      </defs>
      <g>
       <use xlink:href="#m69b6828dde" x="75.919364" y="78.7975" style="stroke: #000000; stroke-width: 0.8"/>
      </g>
     </g>
     <g id="text_1">
      <!-- 0 -->
      <g transform="translate(72.738114 93.395937)scale(0.1 -0.1)">
       <defs>
        <path id="DejaVuSans-30" d="M 2034 4250 
Q 1547 4250 1301 3770 
Q 1056 3291 1056 2328 
Q 1056 1369 1301 889 
Q 1547 409 2034 409 
Q 2525 409 2770 889 
Q 3016 1369 3016 2328 
Q 3016 3291 2770 3770 
Q 2525 4250 2034 4250 
z
M 2034 4750 
Q 2819 4750 3233 4129 
Q 3647 3509 3647 2328 
Q 3647 1150 3233 529 
Q 2819 -91 2034 -91 
Q 1250 -91 836 529 
Q 422 1150 422 2328 
Q 422 3509 836 4129 
Q 1250 4750 2034 4750 
z
" transform="scale(0.015625)"/>
       </defs>
       <use xlink:href="#DejaVuSans-30"/>
      </g>
     </g>
    </g>
    <g id="xtick_2">
     <g id="line2d_3">
      <path d="M 145.570834 78.7975 
L 145.570834 28.32 
" clip-path="url(#pedd1ea2933)" style="fill: none; stroke: #b0b0b0; stroke-width: 0.8; stroke-linecap: square"/>
     </g>
     <g id="line2d_4">
      <g>
       <use xlink:href="#m69b6828dde" x="145.570834" y="78.7975" style="stroke: #000000; stroke-width: 0.8"/>
      </g>
     </g>
     <g id="text_2">
      <!-- 2 -->
      <g transform="translate(142.389584 93.395937)scale(0.1 -0.1)">
       <defs>
        <path id="DejaVuSans-32" d="M 1228 531 
L 3431 531 
L 3431 0 
L 469 0 
L 469 531 
Q 828 903 1448 1529 
Q 2069 2156 2228 2338 
Q 2531 2678 2651 2914 
Q 2772 3150 2772 3378 
Q 2772 3750 2511 3984 
Q 2250 4219 1831 4219 
Q 1534 4219 1204 4116 
Q 875 4013 500 3803 
L 500 4441 
Q 881 4594 1212 4672 
Q 1544 4750 1819 4750 
Q 2544 4750 2975 4387 
Q 3406 4025 3406 3419 
Q 3406 3131 3298 2873 
Q 3191 2616 2906 2266 
Q 2828 2175 2409 1742 
Q 1991 1309 1228 531 
z
" transform="scale(0.015625)"/>
       </defs>
       <use xlink:href="#DejaVuSans-32"/>
      </g>
     </g>
    </g>
    <g id="xtick_3">
     <g id="line2d_5">
      <path d="M 215.222305 78.7975 
L 215.222305 28.32 
" clip-path="url(#pedd1ea2933)" style="fill: none; stroke: #b0b0b0; stroke-width: 0.8; stroke-linecap: square"/>
     </g>
     <g id="line2d_6">
      <g>
       <use xlink:href="#m69b6828dde" x="215.222305" y="78.7975" style="stroke: #000000; stroke-width: 0.8"/>
      </g>
     </g>
     <g id="text_3">
      <!-- 4 -->
      <g transform="translate(212.041055 93.395937)scale(0.1 -0.1)">
       <defs>
        <path id="DejaVuSans-34" d="M 2419 4116 
L 825 1625 
L 2419 1625 
L 2419 4116 
z
M 2253 4666 
L 3047 4666 
L 3047 1625 
L 3713 1625 
L 3713 1100 
L 3047 1100 
L 3047 0 
L 2419 0 
L 2419 1100 
L 313 1100 
L 313 1709 
L 2253 4666 
z
" transform="scale(0.015625)"/>
       </defs>
       <use xlink:href="#DejaVuSans-34"/>
      </g>
     </g>
    </g>
    <g id="xtick_4">
     <g id="line2d_7">
      <path d="M 284.873776 78.7975 
L 284.873776 28.32 
" clip-path="url(#pedd1ea2933)" style="fill: none; stroke: #b0b0b0; stroke-width: 0.8; stroke-linecap: square"/>
     </g>
     <g id="line2d_8">
      <g>
       <use xlink:href="#m69b6828dde" x="284.873776" y="78.7975" style="stroke: #000000; stroke-width: 0.8"/>
      </g>
     </g>
     <g id="text_4">
      <!-- 6 -->
      <g transform="translate(281.692526 93.395937)scale(0.1 -0.1)">
       <defs>
        <path id="DejaVuSans-36" d="M 2113 2584 
Q 1688 2584 1439 2293 
Q 1191 2003 1191 1497 
Q 1191 994 1439 701 
Q 1688 409 2113 409 
Q 2538 409 2786 701 
Q 3034 994 3034 1497 
Q 3034 2003 2786 2293 
Q 2538 2584 2113 2584 
z
M 3366 4563 
L 3366 3988 
Q 3128 4100 2886 4159 
Q 2644 4219 2406 4219 
Q 1781 4219 1451 3797 
Q 1122 3375 1075 2522 
Q 1259 2794 1537 2939 
Q 1816 3084 2150 3084 
Q 2853 3084 3261 2657 
Q 3669 2231 3669 1497 
Q 3669 778 3244 343 
Q 2819 -91 2113 -91 
Q 1303 -91 875 529 
Q 447 1150 447 2328 
Q 447 3434 972 4092 
Q 1497 4750 2381 4750 
Q 2619 4750 2861 4703 
Q 3103 4656 3366 4563 
z
" transform="scale(0.015625)"/>
       </defs>
       <use xlink:href="#DejaVuSans-36"/>
      </g>
     </g>
    </g>
    <g id="xtick_5">
     <g id="line2d_9">
      <path d="M 354.525247 78.7975 
L 354.525247 28.32 
" clip-path="url(#pedd1ea2933)" style="fill: none; stroke: #b0b0b0; stroke-width: 0.8; stroke-linecap: square"/>
     </g>
     <g id="line2d_10">
      <g>
       <use xlink:href="#m69b6828dde" x="354.525247" y="78.7975" style="stroke: #000000; stroke-width: 0.8"/>
      </g>
     </g>
     <g id="text_5">
      <!-- 8 -->
      <g transform="translate(351.343997 93.395937)scale(0.1 -0.1)">
       <defs>
        <path id="DejaVuSans-38" d="M 2034 2216 
Q 1584 2216 1326 1975 
Q 1069 1734 1069 1313 
Q 1069 891 1326 650 
Q 1584 409 2034 409 
Q 2484 409 2743 651 
Q 3003 894 3003 1313 
Q 3003 1734 2745 1975 
Q 2488 2216 2034 2216 
z
M 1403 2484 
Q 997 2584 770 2862 
Q 544 3141 544 3541 
Q 544 4100 942 4425 
Q 1341 4750 2034 4750 
Q 2731 4750 3128 4425 
Q 3525 4100 3525 3541 
Q 3525 3141 3298 2862 
Q 3072 2584 2669 2484 
Q 3125 2378 3379 2068 
Q 3634 1759 3634 1313 
Q 3634 634 3220 271 
Q 2806 -91 2034 -91 
Q 1263 -91 848 271 
Q 434 634 434 1313 
Q 434 1759 690 2068 
Q 947 2378 1403 2484 
z
M 1172 3481 
Q 1172 3119 1398 2916 
Q 1625 2713 2034 2713 
Q 2441 2713 2670 2916 
Q 2900 3119 2900 3481 
Q 2900 3844 2670 4047 
Q 2441 4250 2034 4250 
Q 1625 4250 1398 4047 
Q 1172 3844 1172 3481 
z
" transform="scale(0.015625)"/>
       </defs>
       <use xlink:href="#DejaVuSans-38"/>
      </g>
     </g>
    </g>
    <g id="xtick_6">
     <g id="line2d_11">
      <path d="M 424.176717 78.7975 
L 424.176717 28.32 
" clip-path="url(#pedd1ea2933)" style="fill: none; stroke: #b0b0b0; stroke-width: 0.8; stroke-linecap: square"/>
     </g>
     <g id="line2d_12">
      <g>
       <use xlink:href="#m69b6828dde" x="424.176717" y="78.7975" style="stroke: #000000; stroke-width: 0.8"/>
      </g>
     </g>
     <g id="text_6">
      <!-- 10 -->
      <g transform="translate(417.814217 93.395937)scale(0.1 -0.1)">
       <defs>
        <path id="DejaVuSans-31" d="M 794 531 
L 1825 531 
L 1825 4091 
L 703 3866 
L 703 4441 
L 1819 4666 
L 2450 4666 
L 2450 531 
L 3481 531 
L 3481 0 
L 794 0 
L 794 531 
z
" transform="scale(0.015625)"/>
       </defs>
       <use xlink:href="#DejaVuSans-31"/>
       <use xlink:href="#DejaVuSans-30" x="63.623047"/>
      </g>
     </g>
    </g>
    <g id="text_7">
     <!-- $t$ [s] -->
     <g transform="translate(243.953 107.074062)scale(0.1 -0.1)">
      <defs>
       <path id="DejaVuSans-Oblique-74" d="M 2706 3500 
L 2619 3053 
L 1472 3053 
L 1100 1153 
Q 1081 1047 1072 975 
Q 1063 903 1063 863 
Q 1063 663 1183 572 
Q 1303 481 1569 481 
L 2150 481 
L 2053 0 
L 1503 0 
Q 991 0 739 200 
Q 488 400 488 806 
Q 488 878 497 964 
Q 506 1050 525 1153 
L 897 3053 
L 409 3053 
L 500 3500 
L 978 3500 
L 1172 4494 
L 1747 4494 
L 1556 3500 
L 2706 3500 
z
" transform="scale(0.015625)"/>
       <path id="DejaVuSans-20" transform="scale(0.015625)"/>
       <path id="DejaVuSans-5b" d="M 550 4863 
L 1875 4863 
L 1875 4416 
L 1125 4416 
L 1125 -397 
L 1875 -397 
L 1875 -844 
L 550 -844 
L 550 4863 
z
" transform="scale(0.015625)"/>
       <path id="DejaVuSans-73" d="M 2834 3397 
L 2834 2853 
Q 2591 2978 2328 3040 
Q 2066 3103 1784 3103 
Q 1356 3103 1142 2972 
Q 928 2841 928 2578 
Q 928 2378 1081 2264 
Q 1234 2150 1697 2047 
L 1894 2003 
Q 2506 1872 2764 1633 
Q 3022 1394 3022 966 
Q 3022 478 2636 193 
Q 2250 -91 1575 -91 
Q 1294 -91 989 -36 
Q 684 19 347 128 
L 347 722 
Q 666 556 975 473 
Q 1284 391 1588 391 
Q 1994 391 2212 530 
Q 2431 669 2431 922 
Q 2431 1156 2273 1281 
Q 2116 1406 1581 1522 
L 1381 1569 
Q 847 1681 609 1914 
Q 372 2147 372 2553 
Q 372 3047 722 3315 
Q 1072 3584 1716 3584 
Q 2034 3584 2315 3537 
Q 2597 3491 2834 3397 
z
" transform="scale(0.015625)"/>
       <path id="DejaVuSans-5d" d="M 1947 4863 
L 1947 -844 
L 622 -844 
L 622 -397 
L 1369 -397 
L 1369 4416 
L 622 4416 
L 622 4863 
L 1947 4863 
z
" transform="scale(0.015625)"/>
      </defs>
      <use xlink:href="#DejaVuSans-Oblique-74" transform="translate(0 0.015625)"/>
      <use xlink:href="#DejaVuSans-20" transform="translate(39.208984 0.015625)"/>
      <use xlink:href="#DejaVuSans-5b" transform="translate(70.996094 0.015625)"/>
      <use xlink:href="#DejaVuSans-73" transform="translate(110.009766 0.015625)"/>
      <use xlink:href="#DejaVuSans-5d" transform="translate(162.109375 0.015625)"/>
     </g>
    </g>
   </g>
   <g id="matplotlib.axis_2">
    <g id="ytick_1">
     <g id="line2d_13">
      <path d="M 58.106 76.495429 
L 450 76.495429 
" clip-path="url(#pedd1ea2933)" style="fill: none; stroke: #b0b0b0; stroke-width: 0.8; stroke-linecap: square"/>
     </g>
     <g id="line2d_14">
      <defs>
       <path id="m1a8baf8cc4" d="M 0 0 
L -3.5 0 
" style="stroke: #000000; stroke-width: 0.8"/>
      </defs>
      <g>
       <use xlink:href="#m1a8baf8cc4" x="58.106" y="76.495429" style="stroke: #000000; stroke-width: 0.8"/>
      </g>
     </g>
     <g id="text_8">
      <!-- 0 -->
      <g transform="translate(44.7435 80.294648)scale(0.1 -0.1)">
       <use xlink:href="#DejaVuSans-30"/>
      </g>
     </g>
    </g>
    <g id="ytick_2">
     <g id="line2d_15">
      <path d="M 58.106 30.614572 
L 450 30.614572 
" clip-path="url(#pedd1ea2933)" style="fill: none; stroke: #b0b0b0; stroke-width: 0.8; stroke-linecap: square"/>
     </g>
     <g id="line2d_16">
      <g>
       <use xlink:href="#m1a8baf8cc4" x="58.106" y="30.614572" style="stroke: #000000; stroke-width: 0.8"/>
      </g>
     </g>
     <g id="text_9">
      <!-- 10 -->
      <g transform="translate(38.381 34.413791)scale(0.1 -0.1)">
       <use xlink:href="#DejaVuSans-31"/>
       <use xlink:href="#DejaVuSans-30" x="63.623047"/>
      </g>
     </g>
    </g>
    <g id="text_10">
     <!-- $e_x$ [m] -->
     <g transform="translate(32.301313 69.20875)rotate(-90)scale(0.1 -0.1)">
      <defs>
       <path id="DejaVuSans-Oblique-65" d="M 3078 2063 
Q 3088 2113 3092 2166 
Q 3097 2219 3097 2272 
Q 3097 2653 2873 2875 
Q 2650 3097 2266 3097 
Q 1838 3097 1509 2826 
Q 1181 2556 1013 2059 
L 3078 2063 
z
M 3578 1613 
L 903 1613 
Q 884 1494 878 1425 
Q 872 1356 872 1306 
Q 872 872 1139 634 
Q 1406 397 1894 397 
Q 2269 397 2603 481 
Q 2938 566 3225 728 
L 3116 159 
Q 2806 34 2476 -28 
Q 2147 -91 1806 -91 
Q 1078 -91 686 257 
Q 294 606 294 1247 
Q 294 1794 489 2264 
Q 684 2734 1063 3103 
Q 1306 3334 1642 3459 
Q 1978 3584 2356 3584 
Q 2950 3584 3301 3228 
Q 3653 2872 3653 2272 
Q 3653 2128 3634 1964 
Q 3616 1800 3578 1613 
z
" transform="scale(0.015625)"/>
       <path id="DejaVuSans-Oblique-78" d="M 3841 3500 
L 2234 1784 
L 3219 0 
L 2559 0 
L 1819 1388 
L 531 0 
L -166 0 
L 1556 1844 
L 641 3500 
L 1300 3500 
L 1972 2234 
L 3144 3500 
L 3841 3500 
z
" transform="scale(0.015625)"/>
       <path id="DejaVuSans-6d" d="M 3328 2828 
Q 3544 3216 3844 3400 
Q 4144 3584 4550 3584 
Q 5097 3584 5394 3201 
Q 5691 2819 5691 2113 
L 5691 0 
L 5113 0 
L 5113 2094 
Q 5113 2597 4934 2840 
Q 4756 3084 4391 3084 
Q 3944 3084 3684 2787 
Q 3425 2491 3425 1978 
L 3425 0 
L 2847 0 
L 2847 2094 
Q 2847 2600 2669 2842 
Q 2491 3084 2119 3084 
Q 1678 3084 1418 2786 
Q 1159 2488 1159 1978 
L 1159 0 
L 581 0 
L 581 3500 
L 1159 3500 
L 1159 2956 
Q 1356 3278 1631 3431 
Q 1906 3584 2284 3584 
Q 2666 3584 2933 3390 
Q 3200 3197 3328 2828 
z
" transform="scale(0.015625)"/>
      </defs>
      <use xlink:href="#DejaVuSans-Oblique-65" transform="translate(0 0.015625)"/>
      <use xlink:href="#DejaVuSans-Oblique-78" transform="translate(61.523438 -16.390625)scale(0.7)"/>
      <use xlink:href="#DejaVuSans-20" transform="translate(105.683594 0.015625)"/>
      <use xlink:href="#DejaVuSans-5b" transform="translate(137.470703 0.015625)"/>
      <use xlink:href="#DejaVuSans-6d" transform="translate(176.484375 0.015625)"/>
      <use xlink:href="#DejaVuSans-5d" transform="translate(273.896484 0.015625)"/>
     </g>
    </g>
   </g>
   <g id="line2d_17">
    <path d="M 75.919364 30.614567 
L 84.285718 30.718718 
L 95.440858 31.082107 
L 99.972634 31.290903 
L 103.807213 31.603986 
L 107.293194 31.927374 
L 107.99039 32.035638 
L 111.476371 32.44689 
L 115.310951 32.931893 
L 116.008147 33.042913 
L 117.402539 33.21702 
L 120.539922 33.656075 
L 121.934315 33.89781 
L 124.7231 34.321227 
L 126.117492 34.56953 
L 128.906277 35.012072 
L 130.300669 35.309005 
L 131.346464 35.491268 
L 133.786651 35.961739 
L 136.575436 36.582348 
L 137.272632 36.673342 
L 138.318426 36.9488 
L 140.410015 37.446067 
L 141.455809 37.603254 
L 142.501603 37.888565 
L 144.94179 38.470363 
L 145.638986 38.56873 
L 146.684781 38.865229 
L 149.124968 39.457992 
L 149.822164 39.556022 
L 150.867958 39.847857 
L 153.308145 40.41836 
L 154.005341 40.511434 
L 154.702537 40.695754 
L 156.794126 41.146552 
L 158.885715 41.586377 
L 161.325902 42.102468 
L 163.766088 42.604985 
L 164.811883 42.797715 
L 167.600668 43.345071 
L 170.040854 43.833307 
L 171.435247 44.021124 
L 171.783845 44.181055 
L 172.829639 44.313609 
L 173.875434 44.576831 
L 174.921228 44.707493 
L 176.315621 45.018233 
L 177.361415 45.197414 
L 180.1502 45.700253 
L 182.938985 46.216175 
L 183.636181 46.313472 
L 186.424966 46.79976 
L 189.562349 47.36207 
L 193.396928 47.973466 
L 194.442722 48.15597 
L 197.928704 48.707688 
L 198.974498 48.89068 
L 201.414685 49.268304 
L 202.111881 49.37685 
L 203.157675 49.550286 
L 205.597862 49.92772 
L 207.340853 50.268511 
L 208.038049 50.358883 
L 211.175432 50.864945 
L 213.615619 51.216579 
L 216.055806 51.60584 
L 216.753002 51.721606 
L 217.798796 51.905774 
L 220.238983 52.287943 
L 220.936179 52.398537 
L 221.981973 52.576026 
L 224.42216 52.962485 
L 225.467955 53.193627 
L 226.513749 53.30871 
L 227.559543 53.535915 
L 228.953936 53.736456 
L 231.045524 54.066265 
L 231.394123 54.066265 
L 232.091319 54.220787 
L 233.137113 54.398681 
L 236.274496 54.888147 
L 237.320291 55.062304 
L 240.806272 55.570945 
L 241.852066 55.740937 
L 245.338047 56.258283 
L 246.73244 56.512069 
L 248.126832 56.697627 
L 250.915617 57.108365 
L 251.961411 57.27706 
L 255.098794 57.747168 
L 256.144589 57.914449 
L 259.281972 58.366776 
L 260.327766 58.534487 
L 263.813747 59.047869 
L 264.859542 59.215692 
L 268.345523 59.706829 
L 269.391317 59.872499 
L 272.5287 60.358645 
L 275.317485 60.784775 
L 276.711877 60.961635 
L 280.197859 61.443722 
L 281.940849 61.752849 
L 282.638045 61.833771 
L 287.169821 62.458929 
L 290.307204 62.862861 
L 293.095989 63.266931 
L 294.141783 63.424512 
L 299.022157 64.045695 
L 300.416549 64.249597 
L 303.90253 64.715313 
L 304.948325 64.868004 
L 310.177296 65.513194 
L 311.920287 65.760225 
L 312.617483 65.870481 
L 314.011876 66.038925 
L 319.240847 66.693304 
L 320.63524 66.853065 
L 324.121221 67.24637 
L 325.864212 67.505874 
L 333.881968 68.389089 
L 334.927762 68.536074 
L 340.156734 69.121125 
L 341.202529 69.257956 
L 345.385706 69.724864 
L 348.871687 70.127718 
L 349.917481 70.235085 
L 354.797855 70.745448 
L 356.540846 70.95395 
L 360.375425 71.399694 
L 361.769817 71.549053 
L 366.998789 72.100526 
L 371.879163 72.698845 
L 373.622153 72.827606 
L 374.319349 72.926937 
L 378.502527 73.379792 
L 387.914676 74.323261 
L 390.006265 74.55854 
L 391.052059 74.642981 
L 407.43617 75.856617 
L 424.16888 76.436071 
L 432.186636 76.50231 
L 432.186636 76.50231 
" clip-path="url(#pedd1ea2933)" style="fill: none; stroke: #ff0000; stroke-width: 1.5; stroke-linecap: square"/>
   </g>
   <g id="patch_3">
    <path d="M 58.106 78.7975 
L 58.106 28.32 
" style="fill: none; stroke: #000000; stroke-width: 0.8; stroke-linejoin: miter; stroke-linecap: square"/>
   </g>
   <g id="patch_4">
    <path d="M 450 78.7975 
L 450 28.32 
" style="fill: none; stroke: #000000; stroke-width: 0.8; stroke-linejoin: miter; stroke-linecap: square"/>
   </g>
   <g id="patch_5">
    <path d="M 58.106 78.7975 
L 450 78.7975 
" style="fill: none; stroke: #000000; stroke-width: 0.8; stroke-linejoin: miter; stroke-linecap: square"/>
   </g>
   <g id="patch_6">
    <path d="M 58.106 28.32 
L 450 28.32 
" style="fill: none; stroke: #000000; stroke-width: 0.8; stroke-linejoin: miter; stroke-linecap: square"/>
   </g>
   <g id="text_11">
    <!-- Error in $x$-position -->
    <g transform="translate(200.413 22.32)scale(0.12 -0.12)">
     <defs>
      <path id="DejaVuSans-45" d="M 628 4666 
L 3578 4666 
L 3578 4134 
L 1259 4134 
L 1259 2753 
L 3481 2753 
L 3481 2222 
L 1259 2222 
L 1259 531 
L 3634 531 
L 3634 0 
L 628 0 
L 628 4666 
z
" transform="scale(0.015625)"/>
      <path id="DejaVuSans-72" d="M 2631 2963 
Q 2534 3019 2420 3045 
Q 2306 3072 2169 3072 
Q 1681 3072 1420 2755 
Q 1159 2438 1159 1844 
L 1159 0 
L 581 0 
L 581 3500 
L 1159 3500 
L 1159 2956 
Q 1341 3275 1631 3429 
Q 1922 3584 2338 3584 
Q 2397 3584 2469 3576 
Q 2541 3569 2628 3553 
L 2631 2963 
z
" transform="scale(0.015625)"/>
      <path id="DejaVuSans-6f" d="M 1959 3097 
Q 1497 3097 1228 2736 
Q 959 2375 959 1747 
Q 959 1119 1226 758 
Q 1494 397 1959 397 
Q 2419 397 2687 759 
Q 2956 1122 2956 1747 
Q 2956 2369 2687 2733 
Q 2419 3097 1959 3097 
z
M 1959 3584 
Q 2709 3584 3137 3096 
Q 3566 2609 3566 1747 
Q 3566 888 3137 398 
Q 2709 -91 1959 -91 
Q 1206 -91 779 398 
Q 353 888 353 1747 
Q 353 2609 779 3096 
Q 1206 3584 1959 3584 
z
" transform="scale(0.015625)"/>
      <path id="DejaVuSans-69" d="M 603 3500 
L 1178 3500 
L 1178 0 
L 603 0 
L 603 3500 
z
M 603 4863 
L 1178 4863 
L 1178 4134 
L 603 4134 
L 603 4863 
z
" transform="scale(0.015625)"/>
      <path id="DejaVuSans-6e" d="M 3513 2113 
L 3513 0 
L 2938 0 
L 2938 2094 
Q 2938 2591 2744 2837 
Q 2550 3084 2163 3084 
Q 1697 3084 1428 2787 
Q 1159 2491 1159 1978 
L 1159 0 
L 581 0 
L 581 3500 
L 1159 3500 
L 1159 2956 
Q 1366 3272 1645 3428 
Q 1925 3584 2291 3584 
Q 2894 3584 3203 3211 
Q 3513 2838 3513 2113 
z
" transform="scale(0.015625)"/>
      <path id="DejaVuSans-2d" d="M 313 2009 
L 1997 2009 
L 1997 1497 
L 313 1497 
L 313 2009 
z
" transform="scale(0.015625)"/>
      <path id="DejaVuSans-70" d="M 1159 525 
L 1159 -1331 
L 581 -1331 
L 581 3500 
L 1159 3500 
L 1159 2969 
Q 1341 3281 1617 3432 
Q 1894 3584 2278 3584 
Q 2916 3584 3314 3078 
Q 3713 2572 3713 1747 
Q 3713 922 3314 415 
Q 2916 -91 2278 -91 
Q 1894 -91 1617 61 
Q 1341 213 1159 525 
z
M 3116 1747 
Q 3116 2381 2855 2742 
Q 2594 3103 2138 3103 
Q 1681 3103 1420 2742 
Q 1159 2381 1159 1747 
Q 1159 1113 1420 752 
Q 1681 391 2138 391 
Q 2594 391 2855 752 
Q 3116 1113 3116 1747 
z
" transform="scale(0.015625)"/>
      <path id="DejaVuSans-74" d="M 1172 4494 
L 1172 3500 
L 2356 3500 
L 2356 3053 
L 1172 3053 
L 1172 1153 
Q 1172 725 1289 603 
Q 1406 481 1766 481 
L 2356 481 
L 2356 0 
L 1766 0 
Q 1100 0 847 248 
Q 594 497 594 1153 
L 594 3053 
L 172 3053 
L 172 3500 
L 594 3500 
L 594 4494 
L 1172 4494 
z
" transform="scale(0.015625)"/>
     </defs>
     <use xlink:href="#DejaVuSans-45" transform="translate(0 0.015625)"/>
     <use xlink:href="#DejaVuSans-72" transform="translate(63.183594 0.015625)"/>
     <use xlink:href="#DejaVuSans-72" transform="translate(104.296875 0.015625)"/>
     <use xlink:href="#DejaVuSans-6f" transform="translate(145.410156 0.015625)"/>
     <use xlink:href="#DejaVuSans-72" transform="translate(206.591797 0.015625)"/>
     <use xlink:href="#DejaVuSans-20" transform="translate(247.705078 0.015625)"/>
     <use xlink:href="#DejaVuSans-69" transform="translate(279.492188 0.015625)"/>
     <use xlink:href="#DejaVuSans-6e" transform="translate(307.275391 0.015625)"/>
     <use xlink:href="#DejaVuSans-20" transform="translate(370.654297 0.015625)"/>
     <use xlink:href="#DejaVuSans-Oblique-78" transform="translate(402.441406 0.015625)"/>
     <use xlink:href="#DejaVuSans-2d" transform="translate(461.621094 0.015625)"/>
     <use xlink:href="#DejaVuSans-70" transform="translate(497.705078 0.015625)"/>
     <use xlink:href="#DejaVuSans-6f" transform="translate(561.181641 0.015625)"/>
     <use xlink:href="#DejaVuSans-73" transform="translate(622.363281 0.015625)"/>
     <use xlink:href="#DejaVuSans-69" transform="translate(674.462891 0.015625)"/>
     <use xlink:href="#DejaVuSans-74" transform="translate(702.246094 0.015625)"/>
     <use xlink:href="#DejaVuSans-69" transform="translate(741.455078 0.015625)"/>
     <use xlink:href="#DejaVuSans-6f" transform="translate(769.238281 0.015625)"/>
     <use xlink:href="#DejaVuSans-6e" transform="translate(830.419922 0.015625)"/>
    </g>
   </g>
  </g>
  <g id="axes_2">
   <g id="patch_7">
    <path d="M 58.106 190.3975 
L 450 190.3975 
L 450 139.92 
L 58.106 139.92 
z
" style="fill: #ffffff"/>
   </g>
   <g id="matplotlib.axis_3">
    <g id="xtick_7">
     <g id="line2d_18">
      <path d="M 75.919364 190.3975 
L 75.919364 139.92 
" clip-path="url(#pd026bf528e)" style="fill: none; stroke: #b0b0b0; stroke-width: 0.8; stroke-linecap: square"/>
     </g>
     <g id="line2d_19">
      <g>
       <use xlink:href="#m69b6828dde" x="75.919364" y="190.3975" style="stroke: #000000; stroke-width: 0.8"/>
      </g>
     </g>
     <g id="text_12">
      <!-- 0 -->
      <g transform="translate(72.738114 204.995937)scale(0.1 -0.1)">
       <use xlink:href="#DejaVuSans-30"/>
      </g>
     </g>
    </g>
    <g id="xtick_8">
     <g id="line2d_20">
      <path d="M 145.570834 190.3975 
L 145.570834 139.92 
" clip-path="url(#pd026bf528e)" style="fill: none; stroke: #b0b0b0; stroke-width: 0.8; stroke-linecap: square"/>
     </g>
     <g id="line2d_21">
      <g>
       <use xlink:href="#m69b6828dde" x="145.570834" y="190.3975" style="stroke: #000000; stroke-width: 0.8"/>
      </g>
     </g>
     <g id="text_13">
      <!-- 2 -->
      <g transform="translate(142.389584 204.995937)scale(0.1 -0.1)">
       <use xlink:href="#DejaVuSans-32"/>
      </g>
     </g>
    </g>
    <g id="xtick_9">
     <g id="line2d_22">
      <path d="M 215.222305 190.3975 
L 215.222305 139.92 
" clip-path="url(#pd026bf528e)" style="fill: none; stroke: #b0b0b0; stroke-width: 0.8; stroke-linecap: square"/>
     </g>
     <g id="line2d_23">
      <g>
       <use xlink:href="#m69b6828dde" x="215.222305" y="190.3975" style="stroke: #000000; stroke-width: 0.8"/>
      </g>
     </g>
     <g id="text_14">
      <!-- 4 -->
      <g transform="translate(212.041055 204.995937)scale(0.1 -0.1)">
       <use xlink:href="#DejaVuSans-34"/>
      </g>
     </g>
    </g>
    <g id="xtick_10">
     <g id="line2d_24">
      <path d="M 284.873776 190.3975 
L 284.873776 139.92 
" clip-path="url(#pd026bf528e)" style="fill: none; stroke: #b0b0b0; stroke-width: 0.8; stroke-linecap: square"/>
     </g>
     <g id="line2d_25">
      <g>
       <use xlink:href="#m69b6828dde" x="284.873776" y="190.3975" style="stroke: #000000; stroke-width: 0.8"/>
      </g>
     </g>
     <g id="text_15">
      <!-- 6 -->
      <g transform="translate(281.692526 204.995937)scale(0.1 -0.1)">
       <use xlink:href="#DejaVuSans-36"/>
      </g>
     </g>
    </g>
    <g id="xtick_11">
     <g id="line2d_26">
      <path d="M 354.525247 190.3975 
L 354.525247 139.92 
" clip-path="url(#pd026bf528e)" style="fill: none; stroke: #b0b0b0; stroke-width: 0.8; stroke-linecap: square"/>
     </g>
     <g id="line2d_27">
      <g>
       <use xlink:href="#m69b6828dde" x="354.525247" y="190.3975" style="stroke: #000000; stroke-width: 0.8"/>
      </g>
     </g>
     <g id="text_16">
      <!-- 8 -->
      <g transform="translate(351.343997 204.995937)scale(0.1 -0.1)">
       <use xlink:href="#DejaVuSans-38"/>
      </g>
     </g>
    </g>
    <g id="xtick_12">
     <g id="line2d_28">
      <path d="M 424.176717 190.3975 
L 424.176717 139.92 
" clip-path="url(#pd026bf528e)" style="fill: none; stroke: #b0b0b0; stroke-width: 0.8; stroke-linecap: square"/>
     </g>
     <g id="line2d_29">
      <g>
       <use xlink:href="#m69b6828dde" x="424.176717" y="190.3975" style="stroke: #000000; stroke-width: 0.8"/>
      </g>
     </g>
     <g id="text_17">
      <!-- 10 -->
      <g transform="translate(417.814217 204.995937)scale(0.1 -0.1)">
       <use xlink:href="#DejaVuSans-31"/>
       <use xlink:href="#DejaVuSans-30" x="63.623047"/>
      </g>
     </g>
    </g>
    <g id="text_18">
     <!-- $t$ [s] -->
     <g transform="translate(243.953 218.674062)scale(0.1 -0.1)">
      <use xlink:href="#DejaVuSans-Oblique-74" transform="translate(0 0.015625)"/>
      <use xlink:href="#DejaVuSans-20" transform="translate(39.208984 0.015625)"/>
      <use xlink:href="#DejaVuSans-5b" transform="translate(70.996094 0.015625)"/>
      <use xlink:href="#DejaVuSans-73" transform="translate(110.009766 0.015625)"/>
      <use xlink:href="#DejaVuSans-5d" transform="translate(162.109375 0.015625)"/>
     </g>
    </g>
   </g>
   <g id="matplotlib.axis_4">
    <g id="ytick_3">
     <g id="line2d_30">
      <path d="M 58.106 180.83427 
L 450 180.83427 
" clip-path="url(#pd026bf528e)" style="fill: none; stroke: #b0b0b0; stroke-width: 0.8; stroke-linecap: square"/>
     </g>
     <g id="line2d_31">
      <g>
       <use xlink:href="#m1a8baf8cc4" x="58.106" y="180.83427" style="stroke: #000000; stroke-width: 0.8"/>
      </g>
     </g>
     <g id="text_19">
      <!-- −0.1 -->
      <g transform="translate(26.823188 184.633489)scale(0.1 -0.1)">
       <defs>
        <path id="DejaVuSans-2212" d="M 678 2272 
L 4684 2272 
L 4684 1741 
L 678 1741 
L 678 2272 
z
" transform="scale(0.015625)"/>
        <path id="DejaVuSans-2e" d="M 684 794 
L 1344 794 
L 1344 0 
L 684 0 
L 684 794 
z
" transform="scale(0.015625)"/>
       </defs>
       <use xlink:href="#DejaVuSans-2212"/>
       <use xlink:href="#DejaVuSans-30" x="83.789062"/>
       <use xlink:href="#DejaVuSans-2e" x="147.412109"/>
       <use xlink:href="#DejaVuSans-31" x="179.199219"/>
      </g>
     </g>
    </g>
    <g id="ytick_4">
     <g id="line2d_32">
      <path d="M 58.106 165.60954 
L 450 165.60954 
" clip-path="url(#pd026bf528e)" style="fill: none; stroke: #b0b0b0; stroke-width: 0.8; stroke-linecap: square"/>
     </g>
     <g id="line2d_33">
      <g>
       <use xlink:href="#m1a8baf8cc4" x="58.106" y="165.60954" style="stroke: #000000; stroke-width: 0.8"/>
      </g>
     </g>
     <g id="text_20">
      <!-- 0.0 -->
      <g transform="translate(35.202875 169.408759)scale(0.1 -0.1)">
       <use xlink:href="#DejaVuSans-30"/>
       <use xlink:href="#DejaVuSans-2e" x="63.623047"/>
       <use xlink:href="#DejaVuSans-30" x="95.410156"/>
      </g>
     </g>
    </g>
    <g id="ytick_5">
     <g id="line2d_34">
      <path d="M 58.106 150.384809 
L 450 150.384809 
" clip-path="url(#pd026bf528e)" style="fill: none; stroke: #b0b0b0; stroke-width: 0.8; stroke-linecap: square"/>
     </g>
     <g id="line2d_35">
      <g>
       <use xlink:href="#m1a8baf8cc4" x="58.106" y="150.384809" style="stroke: #000000; stroke-width: 0.8"/>
      </g>
     </g>
     <g id="text_21">
      <!-- 0.1 -->
      <g transform="translate(35.202875 154.184028)scale(0.1 -0.1)">
       <use xlink:href="#DejaVuSans-30"/>
       <use xlink:href="#DejaVuSans-2e" x="63.623047"/>
       <use xlink:href="#DejaVuSans-31" x="95.410156"/>
      </g>
     </g>
    </g>
    <g id="text_22">
     <!-- $e_z$ [m] -->
     <g transform="translate(20.7435 180.60875)rotate(-90)scale(0.1 -0.1)">
      <defs>
       <path id="DejaVuSans-Oblique-7a" d="M 744 3500 
L 3475 3500 
L 3372 2975 
L 738 459 
L 2913 459 
L 2822 0 
L -19 0 
L 84 525 
L 2719 3041 
L 653 3041 
L 744 3500 
z
" transform="scale(0.015625)"/>
      </defs>
      <use xlink:href="#DejaVuSans-Oblique-65" transform="translate(0 0.015625)"/>
      <use xlink:href="#DejaVuSans-Oblique-7a" transform="translate(61.523438 -16.390625)scale(0.7)"/>
      <use xlink:href="#DejaVuSans-20" transform="translate(101.000977 0.015625)"/>
      <use xlink:href="#DejaVuSans-5b" transform="translate(132.788086 0.015625)"/>
      <use xlink:href="#DejaVuSans-6d" transform="translate(171.801758 0.015625)"/>
      <use xlink:href="#DejaVuSans-5d" transform="translate(269.213867 0.015625)"/>
     </g>
    </g>
   </g>
   <g id="line2d_36">
    <path d="M 75.919364 167.064665 
L 80.102541 166.958786 
L 82.542728 167.282733 
L 83.588522 167.175601 
L 85.680111 166.124884 
L 86.377307 165.485216 
L 86.725905 165.24299 
L 87.423101 165.029679 
L 88.468896 164.59189 
L 89.166092 164.138741 
L 89.863288 163.739117 
L 90.909083 162.325491 
L 91.257681 162.150285 
L 91.954877 161.392554 
L 92.652073 159.952196 
L 93.000671 159.326411 
L 93.349269 159.121093 
L 94.046466 158.334308 
L 94.395064 157.631754 
L 94.743662 157.631754 
L 95.09226 156.788443 
L 95.789456 156.469663 
L 97.183849 155.88815 
L 98.926839 155.849 
L 104.853007 155.820936 
L 105.898801 155.55811 
L 106.595998 155.385233 
L 106.944596 155.191347 
L 107.293194 155.191347 
L 107.641792 154.870127 
L 108.338988 154.697201 
L 108.687586 154.57657 
L 109.384783 154.178252 
L 110.430577 153.615913 
L 110.779175 153.430681 
L 111.127773 153.022762 
L 111.476371 152.800276 
L 112.522166 151.674817 
L 112.870764 151.674817 
L 113.219362 151.142667 
L 113.916558 150.511268 
L 114.265156 150.172096 
L 114.962352 149.872011 
L 115.310951 149.536941 
L 115.659549 149.536941 
L 116.008147 149.148005 
L 117.053941 148.873765 
L 117.751137 148.533132 
L 118.796932 148.006437 
L 119.14553 148.006437 
L 119.494128 147.564648 
L 120.191324 147.342449 
L 120.539922 147.197148 
L 120.88852 146.915652 
L 121.237118 146.915652 
L 121.585717 146.525306 
L 122.631511 146.231873 
L 123.328707 145.94496 
L 124.374502 145.665919 
L 125.420296 145.399122 
L 125.768894 145.031588 
L 126.46609 144.798113 
L 126.814688 144.623363 
L 127.163286 144.228393 
L 127.511885 144.228393 
L 127.860483 143.579656 
L 128.557679 143.266884 
L 128.906277 143.071403 
L 129.254875 142.722936 
L 130.649268 142.250914 
L 131.695062 142.248473 
L 133.089454 142.646319 
L 134.483847 143.705791 
L 134.832445 143.819058 
L 135.181043 144.056184 
L 135.529641 144.569495 
L 135.878239 144.842808 
L 136.575436 145.706923 
L 136.924034 145.854574 
L 137.272632 146.150589 
L 137.62123 146.73848 
L 138.318426 147.4458 
L 138.667024 147.846303 
L 139.015622 147.974974 
L 139.36422 148.224506 
L 140.061417 149.009559 
L 140.410015 149.303649 
L 141.107211 149.574104 
L 141.455809 149.743441 
L 141.804407 150.065934 
L 142.501603 150.465562 
L 143.1988 150.979237 
L 143.547398 150.979237 
L 143.895996 151.36275 
L 144.593192 151.89943 
L 144.94179 152.24983 
L 145.290388 152.370782 
L 145.638986 152.617862 
L 145.987585 153.127196 
L 146.684781 153.771543 
L 147.033379 154.149115 
L 147.730575 154.51207 
L 148.079173 154.963869 
L 148.77637 155.46394 
L 149.124968 155.726298 
L 149.822164 155.961023 
L 150.170762 156.239633 
L 151.913753 156.904019 
L 152.610949 157.276214 
L 153.656743 157.75775 
L 154.005341 157.904333 
L 154.353939 158.206411 
L 155.399734 158.743212 
L 155.748332 159.040969 
L 156.09693 159.040969 
L 156.445528 159.322258 
L 159.582911 160.612393 
L 159.931509 160.876012 
L 160.280107 160.876012 
L 160.977304 161.345197 
L 162.023098 162.031394 
L 162.371696 162.25424 
L 162.720294 162.733574 
L 163.068892 162.987656 
L 163.766088 163.789801 
L 164.114687 163.927798 
L 164.463285 164.206513 
L 164.811883 164.771846 
L 165.160481 165.056936 
L 165.857677 165.922316 
L 166.206275 166.068671 
L 166.554873 166.363421 
L 166.903471 166.961118 
L 167.25207 167.264588 
L 167.949266 168.197134 
L 168.297864 168.356591 
L 168.646462 168.678624 
L 168.99506 169.333564 
L 169.343658 169.666081 
L 170.040854 170.677758 
L 170.389453 170.847538 
L 170.738051 171.187322 
L 171.086649 171.865351 
L 171.435247 171.865351 
L 171.783845 172.866475 
L 172.132443 173.030222 
L 172.829639 173.673521 
L 173.178238 174.296607 
L 173.526836 174.296607 
L 173.875434 175.190987 
L 174.224032 175.335293 
L 174.921228 175.89981 
L 175.269826 176.447317 
L 175.967022 177.113656 
L 176.315621 177.505801 
L 176.664219 177.635461 
L 177.012817 177.893663 
L 177.361415 178.405244 
L 178.058611 179.025826 
L 178.755807 179.718191 
L 179.104405 179.718191 
L 179.453004 180.134927 
L 181.544592 181.19049 
L 182.938985 181.370111 
L 185.379171 181.435111 
L 189.213751 182.839926 
L 190.259545 182.809524 
L 191.305339 182.614867 
L 192.002536 182.45706 
L 193.396928 182.420138 
L 196.882909 183.427206 
L 197.928704 183.402227 
L 200.36889 182.669752 
L 202.460479 182.26922 
L 203.506273 182.406468 
L 204.552068 183.01397 
L 205.249264 183.221857 
L 206.992255 183.796044 
L 208.386647 183.713556 
L 211.872628 183.175089 
L 212.918423 183.492227 
L 213.615619 183.768043 
L 213.964217 183.924425 
L 214.312815 184.257635 
L 214.661413 184.257635 
L 215.010011 184.749832 
L 215.707207 184.968111 
L 216.055806 185.098094 
L 216.404404 185.359195 
L 216.753002 185.359195 
L 217.450198 185.547661 
L 218.84459 185.609995 
L 220.238983 185.553106 
L 221.981973 185.865862 
L 223.027768 186.27383 
L 223.724964 186.674744 
L 225.816553 187.339639 
L 226.862347 187.339049 
L 230.696926 186.882474 
L 234.182907 187.094008 
L 237.668889 186.483761 
L 238.366085 186.506532 
L 241.503468 187.151635 
L 242.549262 187.179219 
L 246.383841 186.672323 
L 248.824028 187.101009 
L 249.521225 187.206684 
L 250.567019 187.343119 
L 251.961411 187.354986 
L 255.098794 187.244402 
L 256.841785 187.460924 
L 258.584775 187.643759 
L 261.722159 187.589965 
L 263.465149 187.608346 
L 267.648326 188.053221 
L 268.345523 187.917394 
L 269.042719 187.711 
L 271.831504 187.249269 
L 273.225896 187.396298 
L 273.923093 187.478345 
L 274.968887 187.694872 
L 276.014681 187.725204 
L 277.409074 187.398969 
L 277.757672 187.174845 
L 278.10627 187.174845 
L 278.803466 186.795915 
L 279.84926 186.310474 
L 280.197859 186.168757 
L 280.546457 185.905633 
L 281.940849 185.508845 
L 283.335242 185.585811 
L 284.729634 185.709233 
L 286.124027 185.603997 
L 286.821223 185.386863 
L 288.215615 184.915444 
L 288.912811 184.656667 
L 289.610008 184.328282 
L 291.0044 183.783417 
L 291.701596 183.50548 
L 293.095989 183.339373 
L 295.187577 183.534052 
L 296.233372 183.579941 
L 297.627764 183.434892 
L 298.673559 183.123124 
L 299.719353 182.844447 
L 300.067951 182.586014 
L 301.113745 182.359704 
L 301.462344 182.17316 
L 301.810942 182.17316 
L 302.15954 181.934382 
L 305.296923 181.731539 
L 307.388511 181.650431 
L 309.828698 181.166997 
L 311.223091 180.791833 
L 313.663278 180.364045 
L 315.05767 180.101296 
L 317.149259 179.861437 
L 318.892249 179.759601 
L 322.029632 179.479691 
L 330.047389 178.868623 
L 332.138978 178.924039 
L 338.413744 178.556704 
L 339.808136 178.461348 
L 342.248323 178.523125 
L 345.385706 178.604737 
L 348.174491 178.522884 
L 351.311874 178.343397 
L 354.100659 178.600307 
L 360.724023 178.758252 
L 365.255798 178.851254 
L 367.347387 179.038127 
L 368.393181 179.271221 
L 371.530564 179.794354 
L 375.016546 180.006881 
L 376.06234 180.238371 
L 379.896919 180.786919 
L 381.63991 180.889578 
L 382.685704 180.969705 
L 384.080097 181.191333 
L 385.125891 181.463577 
L 387.21748 181.821634 
L 389.309068 181.753406 
L 390.354863 181.796807 
L 392.097853 182.3458 
L 392.795049 182.723947 
L 394.189442 183.320984 
L 394.53804 183.571352 
L 396.281031 184.01621 
L 397.326825 184.037471 
L 398.721217 183.831749 
L 399.418414 183.69666 
L 400.464208 183.662096 
L 404.298787 184.15007 
L 404.995983 183.889568 
L 406.041778 183.455694 
L 406.738974 182.775361 
L 407.087572 182.775361 
L 407.43617 182.386633 
L 408.830563 181.664029 
L 411.27075 181.587454 
L 411.967946 181.552505 
L 412.316544 181.356453 
L 413.01374 181.180538 
L 413.362338 181.032842 
L 414.059534 180.453688 
L 414.756731 179.748616 
L 415.105329 179.62834 
L 415.453927 179.390432 
L 415.802525 178.930587 
L 416.499721 178.39366 
L 416.848319 178.103706 
L 417.545516 177.851261 
L 417.894114 177.589212 
L 418.939908 177.363334 
L 420.682899 177.419068 
L 421.380095 177.393343 
L 423.123085 176.881317 
L 424.517478 176.107606 
L 425.91187 175.751578 
L 426.957665 175.709623 
L 428.003459 175.683246 
L 429.397851 175.246625 
L 429.74645 174.792012 
L 430.095048 174.792012 
L 430.443646 174.344319 
L 432.186636 173.293148 
L 432.186636 173.293148 
" clip-path="url(#pd026bf528e)" style="fill: none; stroke: #0000ff; stroke-width: 1.5; stroke-linecap: square"/>
   </g>
   <g id="patch_8">
    <path d="M 58.106 190.3975 
L 58.106 139.92 
" style="fill: none; stroke: #000000; stroke-width: 0.8; stroke-linejoin: miter; stroke-linecap: square"/>
   </g>
   <g id="patch_9">
    <path d="M 450 190.3975 
L 450 139.92 
" style="fill: none; stroke: #000000; stroke-width: 0.8; stroke-linejoin: miter; stroke-linecap: square"/>
   </g>
   <g id="patch_10">
    <path d="M 58.106 190.3975 
L 450 190.3975 
" style="fill: none; stroke: #000000; stroke-width: 0.8; stroke-linejoin: miter; stroke-linecap: square"/>
   </g>
   <g id="patch_11">
    <path d="M 58.106 139.92 
L 450 139.92 
" style="fill: none; stroke: #000000; stroke-width: 0.8; stroke-linejoin: miter; stroke-linecap: square"/>
   </g>
   <g id="text_23">
    <!-- Error in $z$-position -->
    <g transform="translate(200.773 133.92)scale(0.12 -0.12)">
     <use xlink:href="#DejaVuSans-45" transform="translate(0 0.015625)"/>
     <use xlink:href="#DejaVuSans-72" transform="translate(63.183594 0.015625)"/>
     <use xlink:href="#DejaVuSans-72" transform="translate(104.296875 0.015625)"/>
     <use xlink:href="#DejaVuSans-6f" transform="translate(145.410156 0.015625)"/>
     <use xlink:href="#DejaVuSans-72" transform="translate(206.591797 0.015625)"/>
     <use xlink:href="#DejaVuSans-20" transform="translate(247.705078 0.015625)"/>
     <use xlink:href="#DejaVuSans-69" transform="translate(279.492188 0.015625)"/>
     <use xlink:href="#DejaVuSans-6e" transform="translate(307.275391 0.015625)"/>
     <use xlink:href="#DejaVuSans-20" transform="translate(370.654297 0.015625)"/>
     <use xlink:href="#DejaVuSans-Oblique-7a" transform="translate(402.441406 0.015625)"/>
     <use xlink:href="#DejaVuSans-2d" transform="translate(454.931641 0.015625)"/>
     <use xlink:href="#DejaVuSans-70" transform="translate(491.015625 0.015625)"/>
     <use xlink:href="#DejaVuSans-6f" transform="translate(554.492188 0.015625)"/>
     <use xlink:href="#DejaVuSans-73" transform="translate(615.673828 0.015625)"/>
     <use xlink:href="#DejaVuSans-69" transform="translate(667.773438 0.015625)"/>
     <use xlink:href="#DejaVuSans-74" transform="translate(695.556641 0.015625)"/>
     <use xlink:href="#DejaVuSans-69" transform="translate(734.765625 0.015625)"/>
     <use xlink:href="#DejaVuSans-6f" transform="translate(762.548828 0.015625)"/>
     <use xlink:href="#DejaVuSans-6e" transform="translate(823.730469 0.015625)"/>
    </g>
   </g>
  </g>
  <g id="axes_3">
   <g id="patch_12">
    <path d="M 58.106 301.9975 
L 450 301.9975 
L 450 251.52 
L 58.106 251.52 
z
" style="fill: #ffffff"/>
   </g>
   <g id="matplotlib.axis_5">
    <g id="xtick_13">
     <g id="line2d_37">
      <path d="M 75.919364 301.9975 
L 75.919364 251.52 
" clip-path="url(#p8f14605537)" style="fill: none; stroke: #b0b0b0; stroke-width: 0.8; stroke-linecap: square"/>
     </g>
     <g id="line2d_38">
      <g>
       <use xlink:href="#m69b6828dde" x="75.919364" y="301.9975" style="stroke: #000000; stroke-width: 0.8"/>
      </g>
     </g>
     <g id="text_24">
      <!-- 0 -->
      <g transform="translate(72.738114 316.595937)scale(0.1 -0.1)">
       <use xlink:href="#DejaVuSans-30"/>
      </g>
     </g>
    </g>
    <g id="xtick_14">
     <g id="line2d_39">
      <path d="M 145.570834 301.9975 
L 145.570834 251.52 
" clip-path="url(#p8f14605537)" style="fill: none; stroke: #b0b0b0; stroke-width: 0.8; stroke-linecap: square"/>
     </g>
     <g id="line2d_40">
      <g>
       <use xlink:href="#m69b6828dde" x="145.570834" y="301.9975" style="stroke: #000000; stroke-width: 0.8"/>
      </g>
     </g>
     <g id="text_25">
      <!-- 2 -->
      <g transform="translate(142.389584 316.595937)scale(0.1 -0.1)">
       <use xlink:href="#DejaVuSans-32"/>
      </g>
     </g>
    </g>
    <g id="xtick_15">
     <g id="line2d_41">
      <path d="M 215.222305 301.9975 
L 215.222305 251.52 
" clip-path="url(#p8f14605537)" style="fill: none; stroke: #b0b0b0; stroke-width: 0.8; stroke-linecap: square"/>
     </g>
     <g id="line2d_42">
      <g>
       <use xlink:href="#m69b6828dde" x="215.222305" y="301.9975" style="stroke: #000000; stroke-width: 0.8"/>
      </g>
     </g>
     <g id="text_26">
      <!-- 4 -->
      <g transform="translate(212.041055 316.595937)scale(0.1 -0.1)">
       <use xlink:href="#DejaVuSans-34"/>
      </g>
     </g>
    </g>
    <g id="xtick_16">
     <g id="line2d_43">
      <path d="M 284.873776 301.9975 
L 284.873776 251.52 
" clip-path="url(#p8f14605537)" style="fill: none; stroke: #b0b0b0; stroke-width: 0.8; stroke-linecap: square"/>
     </g>
     <g id="line2d_44">
      <g>
       <use xlink:href="#m69b6828dde" x="284.873776" y="301.9975" style="stroke: #000000; stroke-width: 0.8"/>
      </g>
     </g>
     <g id="text_27">
      <!-- 6 -->
      <g transform="translate(281.692526 316.595937)scale(0.1 -0.1)">
       <use xlink:href="#DejaVuSans-36"/>
      </g>
     </g>
    </g>
    <g id="xtick_17">
     <g id="line2d_45">
      <path d="M 354.525247 301.9975 
L 354.525247 251.52 
" clip-path="url(#p8f14605537)" style="fill: none; stroke: #b0b0b0; stroke-width: 0.8; stroke-linecap: square"/>
     </g>
     <g id="line2d_46">
      <g>
       <use xlink:href="#m69b6828dde" x="354.525247" y="301.9975" style="stroke: #000000; stroke-width: 0.8"/>
      </g>
     </g>
     <g id="text_28">
      <!-- 8 -->
      <g transform="translate(351.343997 316.595937)scale(0.1 -0.1)">
       <use xlink:href="#DejaVuSans-38"/>
      </g>
     </g>
    </g>
    <g id="xtick_18">
     <g id="line2d_47">
      <path d="M 424.176717 301.9975 
L 424.176717 251.52 
" clip-path="url(#p8f14605537)" style="fill: none; stroke: #b0b0b0; stroke-width: 0.8; stroke-linecap: square"/>
     </g>
     <g id="line2d_48">
      <g>
       <use xlink:href="#m69b6828dde" x="424.176717" y="301.9975" style="stroke: #000000; stroke-width: 0.8"/>
      </g>
     </g>
     <g id="text_29">
      <!-- 10 -->
      <g transform="translate(417.814217 316.595937)scale(0.1 -0.1)">
       <use xlink:href="#DejaVuSans-31"/>
       <use xlink:href="#DejaVuSans-30" x="63.623047"/>
      </g>
     </g>
    </g>
    <g id="text_30">
     <!-- $t$ [s] -->
     <g transform="translate(243.953 330.274063)scale(0.1 -0.1)">
      <use xlink:href="#DejaVuSans-Oblique-74" transform="translate(0 0.015625)"/>
      <use xlink:href="#DejaVuSans-20" transform="translate(39.208984 0.015625)"/>
      <use xlink:href="#DejaVuSans-5b" transform="translate(70.996094 0.015625)"/>
      <use xlink:href="#DejaVuSans-73" transform="translate(110.009766 0.015625)"/>
      <use xlink:href="#DejaVuSans-5d" transform="translate(162.109375 0.015625)"/>
     </g>
    </g>
   </g>
   <g id="matplotlib.axis_6">
    <g id="ytick_6">
     <g id="line2d_49">
      <path d="M 58.106 289.415046 
L 450 289.415046 
" clip-path="url(#p8f14605537)" style="fill: none; stroke: #b0b0b0; stroke-width: 0.8; stroke-linecap: square"/>
     </g>
     <g id="line2d_50">
      <g>
       <use xlink:href="#m1a8baf8cc4" x="58.106" y="289.415046" style="stroke: #000000; stroke-width: 0.8"/>
      </g>
     </g>
     <g id="text_31">
      <!-- −0.1 -->
      <g transform="translate(26.823188 293.214265)scale(0.1 -0.1)">
       <use xlink:href="#DejaVuSans-2212"/>
       <use xlink:href="#DejaVuSans-30" x="83.789062"/>
       <use xlink:href="#DejaVuSans-2e" x="147.412109"/>
       <use xlink:href="#DejaVuSans-31" x="179.199219"/>
      </g>
     </g>
    </g>
    <g id="ytick_7">
     <g id="line2d_51">
      <path d="M 58.106 274.855333 
L 450 274.855333 
" clip-path="url(#p8f14605537)" style="fill: none; stroke: #b0b0b0; stroke-width: 0.8; stroke-linecap: square"/>
     </g>
     <g id="line2d_52">
      <g>
       <use xlink:href="#m1a8baf8cc4" x="58.106" y="274.855333" style="stroke: #000000; stroke-width: 0.8"/>
      </g>
     </g>
     <g id="text_32">
      <!-- 0.0 -->
      <g transform="translate(35.202875 278.654552)scale(0.1 -0.1)">
       <use xlink:href="#DejaVuSans-30"/>
       <use xlink:href="#DejaVuSans-2e" x="63.623047"/>
       <use xlink:href="#DejaVuSans-30" x="95.410156"/>
      </g>
     </g>
    </g>
    <g id="ytick_8">
     <g id="line2d_53">
      <path d="M 58.106 260.29562 
L 450 260.29562 
" clip-path="url(#p8f14605537)" style="fill: none; stroke: #b0b0b0; stroke-width: 0.8; stroke-linecap: square"/>
     </g>
     <g id="line2d_54">
      <g>
       <use xlink:href="#m1a8baf8cc4" x="58.106" y="260.29562" style="stroke: #000000; stroke-width: 0.8"/>
      </g>
     </g>
     <g id="text_33">
      <!-- 0.1 -->
      <g transform="translate(35.202875 264.094839)scale(0.1 -0.1)">
       <use xlink:href="#DejaVuSans-30"/>
       <use xlink:href="#DejaVuSans-2e" x="63.623047"/>
       <use xlink:href="#DejaVuSans-31" x="95.410156"/>
      </g>
     </g>
    </g>
    <g id="text_34">
     <!-- $e_\theta$ [rad] -->
     <g transform="translate(20.7435 295.90875)rotate(-90)scale(0.1 -0.1)">
      <defs>
       <path id="DejaVuSans-Oblique-3b8" d="M 2913 2219 
L 925 2219 
Q 791 1284 928 888 
Q 1100 400 1566 400 
Q 2034 400 2391 891 
Q 2703 1322 2913 2219 
z
M 3009 2750 
Q 3094 3638 2984 3950 
Q 2813 4444 2353 4444 
Q 1875 4444 1525 3956 
Q 1250 3563 1034 2750 
L 3009 2750 
z
M 2444 4913 
Q 3194 4913 3494 4250 
Q 3794 3591 3566 2422 
Q 3341 1256 2781 594 
Q 2225 -72 1475 -72 
Q 722 -72 425 594 
Q 128 1256 353 2422 
Q 581 3591 1134 4250 
Q 1691 4913 2444 4913 
z
" transform="scale(0.015625)"/>
       <path id="DejaVuSans-61" d="M 2194 1759 
Q 1497 1759 1228 1600 
Q 959 1441 959 1056 
Q 959 750 1161 570 
Q 1363 391 1709 391 
Q 2188 391 2477 730 
Q 2766 1069 2766 1631 
L 2766 1759 
L 2194 1759 
z
M 3341 1997 
L 3341 0 
L 2766 0 
L 2766 531 
Q 2569 213 2275 61 
Q 1981 -91 1556 -91 
Q 1019 -91 701 211 
Q 384 513 384 1019 
Q 384 1609 779 1909 
Q 1175 2209 1959 2209 
L 2766 2209 
L 2766 2266 
Q 2766 2663 2505 2880 
Q 2244 3097 1772 3097 
Q 1472 3097 1187 3025 
Q 903 2953 641 2809 
L 641 3341 
Q 956 3463 1253 3523 
Q 1550 3584 1831 3584 
Q 2591 3584 2966 3190 
Q 3341 2797 3341 1997 
z
" transform="scale(0.015625)"/>
       <path id="DejaVuSans-64" d="M 2906 2969 
L 2906 4863 
L 3481 4863 
L 3481 0 
L 2906 0 
L 2906 525 
Q 2725 213 2448 61 
Q 2172 -91 1784 -91 
Q 1150 -91 751 415 
Q 353 922 353 1747 
Q 353 2572 751 3078 
Q 1150 3584 1784 3584 
Q 2172 3584 2448 3432 
Q 2725 3281 2906 2969 
z
M 947 1747 
Q 947 1113 1208 752 
Q 1469 391 1925 391 
Q 2381 391 2643 752 
Q 2906 1113 2906 1747 
Q 2906 2381 2643 2742 
Q 2381 3103 1925 3103 
Q 1469 3103 1208 2742 
Q 947 2381 947 1747 
z
" transform="scale(0.015625)"/>
      </defs>
      <use xlink:href="#DejaVuSans-Oblique-65" transform="translate(0 0.015625)"/>
      <use xlink:href="#DejaVuSans-Oblique-3b8" transform="translate(61.523438 -16.390625)scale(0.7)"/>
      <use xlink:href="#DejaVuSans-20" transform="translate(107.084961 0.015625)"/>
      <use xlink:href="#DejaVuSans-5b" transform="translate(138.87207 0.015625)"/>
      <use xlink:href="#DejaVuSans-72" transform="translate(177.885742 0.015625)"/>
      <use xlink:href="#DejaVuSans-61" transform="translate(218.999023 0.015625)"/>
      <use xlink:href="#DejaVuSans-64" transform="translate(280.27832 0.015625)"/>
      <use xlink:href="#DejaVuSans-5d" transform="translate(343.754883 0.015625)"/>
     </g>
    </g>
   </g>
   <g id="line2d_55">
    <path d="M 75.919364 275.020504 
L 76.267962 275.284902 
L 76.61656 275.315263 
L 76.965158 275.218164 
L 77.313756 274.861005 
L 78.010952 271.442783 
L 78.35955 269.21622 
L 78.708149 268.42565 
L 79.405345 265.182311 
L 79.753943 262.16047 
L 80.102541 260.799021 
L 80.799737 257.435473 
L 81.148335 256.983913 
L 81.845532 255.339923 
L 82.19413 255.33146 
L 82.542728 255.885046 
L 82.891326 256.184438 
L 83.588522 257.908673 
L 83.93712 260.406911 
L 84.285718 261.910502 
L 84.982915 267.25829 
L 85.331513 268.242949 
L 85.680111 270.280991 
L 86.377307 277.945139 
L 86.725905 281.280053 
L 87.074503 282.366028 
L 88.468896 291.016267 
L 88.817494 294.085868 
L 89.51469 296.588864 
L 89.863288 297.615012 
L 90.211886 299.114693 
L 90.560484 299.660874 
L 90.909083 299.703068 
L 91.257681 299.61105 
L 91.606279 299.263842 
L 91.954877 298.661078 
L 92.652073 294.141448 
L 93.000671 291.1949 
L 93.349269 290.118028 
L 94.046466 285.53605 
L 94.395064 280.792482 
L 94.743662 280.792482 
L 95.09226 273.959005 
L 95.440858 272.879355 
L 96.138054 268.784148 
L 96.486652 264.293261 
L 96.83525 264.293261 
L 97.183849 261.387754 
L 97.881045 259.23226 
L 98.229643 258.496705 
L 98.578241 258.022784 
L 98.926839 257.792456 
L 99.972634 258.965608 
L 100.321232 259.449804 
L 100.66983 260.752347 
L 101.018428 260.752347 
L 101.367026 261.863125 
L 102.41282 263.601134 
L 102.761418 265.035339 
L 103.110017 265.035339 
L 103.458615 266.126773 
L 104.853007 268.372272 
L 105.201605 269.29521 
L 106.595998 271.247397 
L 106.944596 272.392828 
L 107.293194 272.392828 
L 107.641792 274.450596 
L 107.99039 274.831547 
L 108.687586 276.455169 
L 109.036184 278.202174 
L 109.384783 279.109684 
L 110.081979 281.864887 
L 110.430577 282.312351 
L 110.779175 283.18413 
L 111.127773 284.772539 
L 112.173568 286.574456 
L 112.870764 286.550815 
L 113.56796 285.09137 
L 114.265156 282.114262 
L 114.613754 281.528818 
L 114.962352 280.32516 
L 115.310951 277.851839 
L 115.659549 277.851839 
L 116.008147 274.278926 
L 116.356745 273.729288 
L 117.402539 270.398589 
L 117.751137 269.997103 
L 118.099735 269.862056 
L 118.796932 270.915982 
L 119.14553 270.915982 
L 119.494128 273.659372 
L 119.842726 274.181164 
L 120.539922 276.253316 
L 120.88852 278.145708 
L 121.237118 278.145708 
L 121.585717 280.323421 
L 121.934315 280.599903 
L 122.631511 281.396115 
L 122.980109 281.578054 
L 123.328707 281.400713 
L 123.677305 280.816108 
L 124.025903 279.887694 
L 124.374502 279.511564 
L 124.7231 278.673297 
L 125.071698 276.71196 
L 125.420296 276.71196 
L 125.768894 273.409173 
L 126.117492 272.845279 
L 126.814688 270.623049 
L 127.163286 268.533922 
L 127.511885 268.533922 
L 127.860483 265.637358 
L 128.209081 265.170146 
L 128.906277 263.313006 
L 129.254875 261.496104 
L 129.603473 260.614126 
L 130.300669 258.238564 
L 130.649268 257.896619 
L 130.997866 257.275672 
L 131.346464 256.353783 
L 131.695062 256.091672 
L 132.04366 255.994382 
L 133.089454 256.886018 
L 133.438052 258.102325 
L 133.786651 258.803022 
L 134.483847 260.904178 
L 134.832445 261.226002 
L 135.181043 261.834511 
L 135.529641 262.888042 
L 136.226837 263.926209 
L 136.575436 264.445773 
L 136.924034 264.608868 
L 137.272632 264.919587 
L 137.62123 265.472718 
L 138.318426 266.047243 
L 138.667024 266.352158 
L 139.36422 266.644903 
L 140.061417 267.288969 
L 140.410015 267.543313 
L 141.107211 267.781462 
L 142.501603 268.208661 
L 143.547398 268.341925 
L 144.244594 268.767582 
L 145.638986 270.438648 
L 145.987585 271.594622 
L 146.336183 272.244718 
L 147.033379 274.392132 
L 147.381977 274.768612 
L 147.730575 275.51748 
L 148.079173 276.968559 
L 148.427771 277.659799 
L 149.124968 279.488319 
L 149.473566 279.763221 
L 149.822164 280.274564 
L 150.170762 281.092864 
L 151.216556 281.956741 
L 152.610949 282.071256 
L 154.005341 281.461133 
L 154.702537 280.558182 
L 155.051136 280.120775 
L 155.399734 279.31611 
L 155.748332 277.958575 
L 156.09693 277.958575 
L 156.445528 276.324779 
L 156.794126 275.42001 
L 157.491322 272.624469 
L 157.83992 272.189551 
L 158.188519 271.366863 
L 158.537117 269.915513 
L 159.931509 267.342437 
L 160.280107 267.342437 
L 160.628705 266.645344 
L 160.977304 266.279035 
L 161.6745 265.01299 
L 162.023098 264.773965 
L 162.371696 264.264199 
L 162.720294 263.084789 
L 163.068892 262.415947 
L 163.766088 260.169959 
L 164.114687 259.766786 
L 164.463285 258.957888 
L 164.811883 257.4086 
L 165.509079 255.782836 
L 165.857677 255.001831 
L 166.206275 254.772091 
L 166.903471 253.897155 
L 167.25207 253.814432 
L 167.600668 253.871307 
L 168.646462 254.382474 
L 168.99506 254.866687 
L 169.692256 255.488087 
L 170.040854 255.829204 
L 170.738051 256.129997 
L 171.086649 256.443462 
L 171.435247 256.443462 
L 171.783845 256.767348 
L 172.481041 256.913809 
L 172.829639 257.02323 
L 173.178238 257.302139 
L 173.526836 257.302139 
L 173.875434 257.95326 
L 174.224032 258.095154 
L 174.921228 258.754345 
L 175.269826 259.521513 
L 175.618424 259.932413 
L 176.315621 261.256808 
L 176.664219 261.488984 
L 177.012817 261.952675 
L 177.361415 262.844178 
L 178.058611 263.839531 
L 178.755807 264.879884 
L 179.104405 264.879884 
L 179.453004 265.455059 
L 180.498798 266.322935 
L 180.847396 266.5914 
L 181.195994 266.5914 
L 181.544592 266.942452 
L 182.241788 267.404424 
L 182.938985 267.874376 
L 183.287583 267.874376 
L 183.636181 268.039028 
L 184.333377 268.001442 
L 185.379171 267.743048 
L 185.72777 267.668981 
L 186.076368 267.71991 
L 186.424966 267.960624 
L 186.773564 268.42684 
L 187.122162 268.633448 
L 187.47076 269.135872 
L 187.819358 270.5343 
L 188.516555 272.474872 
L 188.865153 274.257959 
L 189.213751 276.929439 
L 190.608143 282.208322 
L 191.305339 284.255911 
L 191.653938 284.590219 
L 192.002536 284.330772 
L 192.351134 283.82021 
L 193.04833 282.215893 
L 193.396928 280.650116 
L 193.745526 278.343757 
L 194.791321 275.036005 
L 195.837115 272.427375 
L 196.185713 272.507038 
L 196.534311 272.842679 
L 197.231507 274.198539 
L 197.580105 275.166057 
L 197.928704 276.866064 
L 198.277302 279.323542 
L 199.323096 282.551694 
L 199.671694 283.46491 
L 200.020292 283.617012 
L 200.36889 283.198404 
L 200.717489 282.472628 
L 201.414685 280.227363 
L 201.763283 276.391355 
L 202.111881 276.391355 
L 202.460479 272.954738 
L 203.506273 267.910514 
L 203.854872 265.186468 
L 204.20347 263.698511 
L 204.552068 262.810905 
L 205.249264 262.565452 
L 205.597862 262.76257 
L 206.643656 266.591182 
L 207.340853 270.573921 
L 207.689451 270.573921 
L 208.038049 273.057817 
L 208.735245 275.057533 
L 209.083843 275.297607 
L 209.432441 274.756252 
L 209.781039 274.756252 
L 211.175432 267.092995 
L 211.52403 264.621485 
L 211.872628 264.621485 
L 212.221226 261.435448 
L 213.267021 256.505874 
L 214.312815 255.534269 
L 214.661413 255.534269 
L 215.010011 257.570445 
L 215.358609 258.123377 
L 216.055806 260.736968 
L 216.404404 264.52329 
L 216.753002 264.52329 
L 217.1016 267.51122 
L 218.495992 272.714143 
L 218.84459 272.714143 
L 219.193189 272.311762 
L 219.890385 270.806104 
L 220.238983 269.754444 
L 220.587581 266.624365 
L 220.936179 266.624365 
L 221.284777 263.954819 
L 222.330572 260.451221 
L 223.027768 258.916906 
L 223.376366 258.977465 
L 223.724964 259.44861 
L 224.42216 261.154165 
L 224.770758 263.673006 
L 225.119357 263.673006 
L 225.467955 268.246784 
L 225.816553 269.03732 
L 226.513749 272.097058 
L 226.862347 274.53716 
L 227.210945 275.745395 
L 227.559543 276.396953 
L 228.25674 276.542638 
L 228.605338 276.37005 
L 229.302534 274.240702 
L 229.651132 272.891372 
L 229.99973 272.427319 
L 230.696926 270.601274 
L 231.045524 269.042679 
L 231.394123 269.042679 
L 231.742721 267.635853 
L 232.439917 267.397121 
L 232.788515 267.397121 
L 233.834309 269.128412 
L 234.182907 270.367863 
L 234.531506 272.328778 
L 234.880104 272.328778 
L 235.228702 274.397114 
L 236.623094 278.635994 
L 236.971692 278.635994 
L 237.320291 278.951905 
L 237.668889 278.855681 
L 238.017487 278.595515 
L 238.366085 277.880801 
L 238.714683 276.353589 
L 239.063281 276.353589 
L 239.411879 274.305392 
L 240.457674 270.762136 
L 241.15487 267.096349 
L 241.852066 265.836047 
L 242.200664 265.545152 
L 242.549262 265.575939 
L 242.89786 266.509023 
L 243.246458 266.509023 
L 243.595057 268.266288 
L 243.943655 269.353267 
L 244.640851 272.886369 
L 244.989449 273.446086 
L 245.338047 274.507731 
L 245.686645 276.303716 
L 246.383841 277.519191 
L 246.73244 277.543993 
L 247.081038 277.429692 
L 247.429636 277.012345 
L 248.126832 274.309986 
L 248.47543 273.00145 
L 248.824028 270.769229 
L 249.172626 267.544582 
L 249.521225 267.544582 
L 249.869823 264.346905 
L 250.915617 260.129782 
L 251.264215 259.420365 
L 251.612813 259.420365 
L 252.310009 260.947786 
L 252.658608 261.9966 
L 253.007206 263.888979 
L 253.355804 266.740344 
L 255.098794 273.711025 
L 255.447392 274.685112 
L 255.795991 274.685112 
L 256.144589 274.46722 
L 256.493187 273.92697 
L 256.841785 273.13214 
L 257.190383 271.518555 
L 257.538981 268.824019 
L 257.887579 268.824019 
L 258.236177 265.808289 
L 259.63057 259.475257 
L 259.979168 259.475257 
L 260.327766 259.316238 
L 260.676364 259.725176 
L 261.024962 260.429211 
L 261.37356 261.390232 
L 261.722159 263.216224 
L 262.070757 266.141897 
L 264.162345 275.587442 
L 264.510943 276.011504 
L 264.859542 276.162969 
L 265.20814 276.054871 
L 265.556738 275.691887 
L 265.905336 275.084043 
L 266.253934 273.778138 
L 266.602532 271.465113 
L 267.996925 266.092903 
L 268.694121 262.677112 
L 269.042719 262.310656 
L 269.391317 262.252436 
L 269.739915 262.500885 
L 270.088513 263.823519 
L 270.437111 263.823519 
L 270.785709 267.495893 
L 271.134308 268.235775 
L 271.831504 271.397304 
L 272.180102 274.60559 
L 272.5287 276.080743 
L 273.225896 279.629037 
L 273.574494 280.036861 
L 273.923093 280.640978 
L 274.271691 280.85187 
L 274.620289 280.443788 
L 274.968887 279.244919 
L 275.317485 277.476698 
L 275.666083 276.794626 
L 276.014681 275.321947 
L 276.363279 272.093138 
L 277.060476 268.817545 
L 277.757672 263.829708 
L 278.10627 263.829708 
L 278.454868 262.227482 
L 278.803466 261.924886 
L 279.152064 262.132512 
L 279.500662 263.102136 
L 279.84926 263.574726 
L 280.197859 264.717244 
L 280.546457 267.606939 
L 281.243653 270.930637 
L 281.940849 276.947427 
L 282.289447 276.947427 
L 282.638045 280.022013 
L 283.68384 283.610952 
L 284.032438 283.66649 
L 284.381036 283.478037 
L 285.078232 280.70029 
L 285.775428 275.571401 
L 286.124027 274.593001 
L 286.472625 272.592347 
L 287.169821 265.508802 
L 287.518419 262.719939 
L 287.867017 261.836142 
L 288.912811 257.116349 
L 289.26141 256.272004 
L 289.610008 256.435457 
L 289.958606 256.975525 
L 290.655802 259.020097 
L 291.0044 261.220284 
L 291.352998 264.716588 
L 292.747391 272.392119 
L 293.793185 280.023021 
L 294.490381 282.136461 
L 294.838979 282.702408 
L 295.187577 282.830857 
L 296.233372 279.196415 
L 296.930568 275.779876 
L 297.279166 270.851904 
L 297.627764 270.851904 
L 297.976362 266.764839 
L 299.022157 261.041456 
L 299.370755 258.181829 
L 299.719353 258.181829 
L 300.067951 256.353098 
L 300.416549 256.367766 
L 300.765147 256.669248 
L 301.113745 257.318587 
L 301.462344 259.514681 
L 301.810942 259.514681 
L 302.15954 264.397274 
L 302.508138 265.311069 
L 303.553932 271.040873 
L 304.599727 278.949976 
L 305.296923 281.659955 
L 305.994119 283.651553 
L 306.342717 283.65277 
L 306.691315 283.091791 
L 307.388511 280.974537 
L 307.73711 278.687634 
L 308.085708 275.053928 
L 309.828698 265.108563 
L 310.525895 259.344971 
L 311.223091 257.302727 
L 311.571689 256.769064 
L 312.268885 256.740535 
L 312.617483 259.23729 
L 312.966081 259.900506 
L 313.663278 263.053847 
L 314.011876 266.77152 
L 314.360474 268.704654 
L 315.05767 274.567365 
L 315.406268 275.501985 
L 315.754866 277.270219 
L 316.103464 280.361482 
L 317.149259 283.739886 
L 317.497857 284.436096 
L 317.846455 284.384843 
L 318.195053 284.047888 
L 318.543651 283.416735 
L 318.892249 282.502277 
L 319.240847 280.635725 
L 319.589445 277.418467 
L 320.983838 269.739286 
L 322.029632 261.93432 
L 322.726829 259.876628 
L 323.075427 259.33244 
L 323.424025 259.177636 
L 323.772623 260.164422 
L 324.121221 260.164422 
L 324.469819 262.294041 
L 325.167015 265.182747 
L 325.515613 267.621385 
L 325.864212 270.979599 
L 327.607202 278.565272 
L 327.9558 279.928789 
L 328.304398 280.265094 
L 328.652996 280.381181 
L 329.001595 280.281293 
L 329.350193 279.955003 
L 329.698791 279.390472 
L 330.047389 278.101286 
L 330.395987 275.656058 
L 331.441781 270.947361 
L 331.790379 269.267807 
L 332.836174 262.367836 
L 333.53337 260.582287 
L 333.881968 260.154501 
L 334.230566 260.528469 
L 334.579164 260.528469 
L 335.276361 263.335014 
L 335.973557 266.116746 
L 336.322155 270.027026 
L 336.670753 270.027026 
L 337.019351 273.114128 
L 338.413744 278.433345 
L 338.762342 279.212171 
L 339.11094 279.20104 
L 339.459538 278.954256 
L 339.808136 278.49827 
L 340.156734 277.849934 
L 340.505332 275.503268 
L 340.85393 275.503268 
L 341.202529 273.017011 
L 342.248323 268.692204 
L 342.596921 265.842116 
L 343.294117 262.506748 
L 344.339912 261.453241 
L 345.037108 262.723735 
L 346.4315 268.446441 
L 346.780098 271.514102 
L 347.128696 271.514102 
L 347.477295 275.92378 
L 347.825893 276.589327 
L 348.871687 280.484324 
L 349.568883 280.466389 
L 349.917481 280.212105 
L 350.614678 278.613192 
L 350.963276 276.271919 
L 351.311874 276.271919 
L 351.660472 271.89974 
L 352.00907 271.125173 
L 352.706266 267.979939 
L 353.054864 265.01288 
L 354.100659 261.263348 
L 354.797855 261.016683 
L 355.495051 262.614141 
L 356.192247 266.284144 
L 356.540846 267.013052 
L 356.889444 268.531151 
L 357.238042 271.614125 
L 357.935238 274.608464 
L 358.632434 279.180646 
L 358.981032 279.180646 
L 359.32963 280.957953 
L 359.678229 281.48917 
L 360.026827 281.756308 
L 360.375425 281.605937 
L 360.724023 280.36433 
L 361.072621 280.36433 
L 361.421219 278.158322 
L 362.467014 273.793913 
L 362.815612 271.427418 
L 363.16421 268.286929 
L 364.210004 264.099788 
L 364.9072 261.795565 
L 365.255798 261.34849 
L 365.604397 261.618219 
L 365.952995 262.187294 
L 366.650191 264.079906 
L 366.998789 265.311245 
L 367.347387 267.420371 
L 367.695985 270.581352 
L 368.74178 275.518662 
L 369.090378 278.688495 
L 369.438976 278.688495 
L 369.787574 282.589196 
L 370.136172 283.095963 
L 370.833368 284.53702 
L 371.181966 284.7694 
L 371.530564 284.021475 
L 371.879163 282.530167 
L 372.227761 281.888857 
L 372.924957 278.771121 
L 373.273555 275.069169 
L 373.622153 275.069169 
L 373.970751 269.282998 
L 374.319349 268.344711 
L 375.713742 261.540525 
L 376.06234 260.208599 
L 376.410938 260.021903 
L 376.759536 260.15396 
L 377.108134 260.588525 
L 377.456732 261.748554 
L 377.805331 264.036052 
L 378.851125 268.386685 
L 379.199723 270.663406 
L 379.548321 273.6813 
L 379.896919 273.6813 
L 380.245517 276.536308 
L 381.291312 280.945627 
L 381.63991 282.541599 
L 381.988508 282.541599 
L 382.337106 283.20674 
L 382.685704 283.164089 
L 383.034302 282.8697 
L 383.3829 281.931729 
L 383.731498 279.807054 
L 384.080097 279.807054 
L 384.428695 276.885025 
L 385.474489 271.694073 
L 386.520283 264.191128 
L 387.21748 261.575642 
L 387.914676 259.479613 
L 388.263274 259.1274 
L 388.611872 259.414387 
L 388.96047 259.98735 
L 389.309068 260.814543 
L 389.657666 262.431712 
L 390.006265 265.11703 
L 390.354863 265.11703 
L 390.703461 268.074488 
L 392.097853 274.49445 
L 392.446451 276.895635 
L 393.492246 279.690441 
L 394.189442 281.071515 
L 394.53804 281.284009 
L 394.886638 281.110493 
L 395.583834 280.296664 
L 395.932432 279.708589 
L 396.281031 278.671023 
L 396.629629 277.171121 
L 398.372619 273.292059 
L 398.721217 273.292059 
L 399.069816 272.798285 
L 400.11561 272.471699 
L 400.812806 272.382552 
L 402.207199 272.551324 
L 403.252993 272.779618 
L 403.950189 272.649502 
L 404.298787 272.499615 
L 404.647385 272.163744 
L 404.995983 271.515807 
L 406.041778 270.236638 
L 406.738974 268.716886 
L 407.087572 268.716886 
L 407.43617 268.19017 
L 407.784768 268.094784 
L 408.133366 268.122817 
L 408.481965 268.395394 
L 408.830563 269.100057 
L 409.179161 269.100057 
L 409.527759 270.047576 
L 409.876357 270.543638 
L 410.573553 271.78133 
L 411.27075 272.031419 
L 411.619348 271.766925 
L 411.967946 271.766925 
L 412.316544 269.933771 
L 412.665142 269.475207 
L 413.362338 267.352954 
L 413.710936 264.960591 
L 414.059534 263.770235 
L 414.756731 260.864634 
L 415.105329 260.520753 
L 415.453927 260.011821 
L 415.802525 259.78658 
L 416.151123 260.074054 
L 416.499721 260.969374 
L 416.848319 262.326802 
L 417.196917 262.858723 
L 417.545516 264.013372 
L 417.894114 266.606952 
L 418.59131 269.386336 
L 419.288506 274.341203 
L 419.637104 274.341203 
L 419.985702 276.955866 
L 420.682899 279.163459 
L 421.380095 280.864294 
L 421.728693 281.07207 
L 422.077291 280.773109 
L 422.774487 279.481829 
L 423.123085 278.578443 
L 424.16888 274.448639 
L 424.866076 273.511176 
L 425.214674 273.297795 
L 425.91187 273.373464 
L 426.609067 274.318403 
L 427.306263 275.307679 
L 427.654861 275.899292 
L 428.003459 276.887362 
L 428.352057 278.344408 
L 429.397851 280.61453 
L 429.74645 282.219957 
L 430.095048 282.219957 
L 430.443646 282.930659 
L 430.792244 283.024121 
L 431.140842 282.956816 
L 431.48944 282.732078 
L 431.838038 281.820686 
L 432.186636 281.820686 
L 432.186636 281.820686 
" clip-path="url(#p8f14605537)" style="fill: none; stroke: #008000; stroke-width: 1.5; stroke-linecap: square"/>
   </g>
   <g id="patch_13">
    <path d="M 58.106 301.9975 
L 58.106 251.52 
" style="fill: none; stroke: #000000; stroke-width: 0.8; stroke-linejoin: miter; stroke-linecap: square"/>
   </g>
   <g id="patch_14">
    <path d="M 450 301.9975 
L 450 251.52 
" style="fill: none; stroke: #000000; stroke-width: 0.8; stroke-linejoin: miter; stroke-linecap: square"/>
   </g>
   <g id="patch_15">
    <path d="M 58.106 301.9975 
L 450 301.9975 
" style="fill: none; stroke: #000000; stroke-width: 0.8; stroke-linejoin: miter; stroke-linecap: square"/>
   </g>
   <g id="patch_16">
    <path d="M 58.106 251.52 
L 450 251.52 
" style="fill: none; stroke: #000000; stroke-width: 0.8; stroke-linejoin: miter; stroke-linecap: square"/>
   </g>
   <g id="text_35">
    <!-- Error in swing angle -->
    <g transform="translate(194.282688 245.52)scale(0.12 -0.12)">
     <defs>
      <path id="DejaVuSans-77" d="M 269 3500 
L 844 3500 
L 1563 769 
L 2278 3500 
L 2956 3500 
L 3675 769 
L 4391 3500 
L 4966 3500 
L 4050 0 
L 3372 0 
L 2619 2869 
L 1863 0 
L 1184 0 
L 269 3500 
z
" transform="scale(0.015625)"/>
      <path id="DejaVuSans-67" d="M 2906 1791 
Q 2906 2416 2648 2759 
Q 2391 3103 1925 3103 
Q 1463 3103 1205 2759 
Q 947 2416 947 1791 
Q 947 1169 1205 825 
Q 1463 481 1925 481 
Q 2391 481 2648 825 
Q 2906 1169 2906 1791 
z
M 3481 434 
Q 3481 -459 3084 -895 
Q 2688 -1331 1869 -1331 
Q 1566 -1331 1297 -1286 
Q 1028 -1241 775 -1147 
L 775 -588 
Q 1028 -725 1275 -790 
Q 1522 -856 1778 -856 
Q 2344 -856 2625 -561 
Q 2906 -266 2906 331 
L 2906 616 
Q 2728 306 2450 153 
Q 2172 0 1784 0 
Q 1141 0 747 490 
Q 353 981 353 1791 
Q 353 2603 747 3093 
Q 1141 3584 1784 3584 
Q 2172 3584 2450 3431 
Q 2728 3278 2906 2969 
L 2906 3500 
L 3481 3500 
L 3481 434 
z
" transform="scale(0.015625)"/>
      <path id="DejaVuSans-6c" d="M 603 4863 
L 1178 4863 
L 1178 0 
L 603 0 
L 603 4863 
z
" transform="scale(0.015625)"/>
      <path id="DejaVuSans-65" d="M 3597 1894 
L 3597 1613 
L 953 1613 
Q 991 1019 1311 708 
Q 1631 397 2203 397 
Q 2534 397 2845 478 
Q 3156 559 3463 722 
L 3463 178 
Q 3153 47 2828 -22 
Q 2503 -91 2169 -91 
Q 1331 -91 842 396 
Q 353 884 353 1716 
Q 353 2575 817 3079 
Q 1281 3584 2069 3584 
Q 2775 3584 3186 3129 
Q 3597 2675 3597 1894 
z
M 3022 2063 
Q 3016 2534 2758 2815 
Q 2500 3097 2075 3097 
Q 1594 3097 1305 2825 
Q 1016 2553 972 2059 
L 3022 2063 
z
" transform="scale(0.015625)"/>
     </defs>
     <use xlink:href="#DejaVuSans-45"/>
     <use xlink:href="#DejaVuSans-72" x="63.183594"/>
     <use xlink:href="#DejaVuSans-72" x="102.546875"/>
     <use xlink:href="#DejaVuSans-6f" x="141.410156"/>
     <use xlink:href="#DejaVuSans-72" x="202.591797"/>
     <use xlink:href="#DejaVuSans-20" x="243.705078"/>
     <use xlink:href="#DejaVuSans-69" x="275.492188"/>
     <use xlink:href="#DejaVuSans-6e" x="303.275391"/>
     <use xlink:href="#DejaVuSans-20" x="366.654297"/>
     <use xlink:href="#DejaVuSans-73" x="398.441406"/>
     <use xlink:href="#DejaVuSans-77" x="450.541016"/>
     <use xlink:href="#DejaVuSans-69" x="532.328125"/>
     <use xlink:href="#DejaVuSans-6e" x="560.111328"/>
     <use xlink:href="#DejaVuSans-67" x="623.490234"/>
     <use xlink:href="#DejaVuSans-20" x="686.966797"/>
     <use xlink:href="#DejaVuSans-61" x="718.753906"/>
     <use xlink:href="#DejaVuSans-6e" x="780.033203"/>
     <use xlink:href="#DejaVuSans-67" x="843.412109"/>
     <use xlink:href="#DejaVuSans-6c" x="906.888672"/>
     <use xlink:href="#DejaVuSans-65" x="934.671875"/>
    </g>
   </g>
  </g>
 </g>
 <defs>
  <clipPath id="pedd1ea2933">
   <rect x="58.106" y="28.32" width="391.894" height="50.4775"/>
  </clipPath>
  <clipPath id="pd026bf528e">
   <rect x="58.106" y="139.92" width="391.894" height="50.4775"/>
  </clipPath>
  <clipPath id="p8f14605537">
   <rect x="58.106" y="251.52" width="391.894" height="50.4775"/>
  </clipPath>
 </defs>
</svg>
