<?xml version="1.0" encoding="utf-8" standalone="no"?>
<!DOCTYPE svg PUBLIC "-//W3C//DTD SVG 1.1//EN"
  "http://www.w3.org/Graphics/SVG/1.1/DTD/svg11.dtd">
<svg xmlns:xlink="http://www.w3.org/1999/xlink" width="460.8pt" height="345.6pt" viewBox="0 0 460.8 345.6" xmlns="http://www.w3.org/2000/svg" version="1.1">
 <metadata>
  <rdf:RDF xmlns:dc="http://purl.org/dc/elements/1.1/" xmlns:cc="http://creativecommons.org/ns#" xmlns:rdf="http://www.w3.org/1999/02/22-rdf-syntax-ns#">
   <cc:Work>
    <dc:type rdf:resource="http://purl.org/dc/dcmitype/StillImage"/>
    <dc:date>2022-06-05T18:20:15.548387</dc:date>
    <dc:format>image/svg+xml</dc:format>
    <dc:creator>
     <cc:Agent>
      <dc:title>Matplotlib v3.5.1, https://matplotlib.org/</dc:title>
     </cc:Agent>
    </dc:creator>
   </cc:Work>
  </rdf:RDF>
 </metadata>
 <defs>
  <style type="text/css">*{stroke-linejoin: round; stroke-linecap: butt}</style>
 </defs>
 <g id="figure_1">
  <g id="patch_1">
   <path d="M 0 345.6 
L 460.8 345.6 
L 460.8 0 
L 0 0 
z
" style="fill: #ffffff"/>
  </g>
  <g id="axes_1">
   <g id="patch_2">
    <path d="M 70.616 78.7975 
L 450 78.7975 
L 450 28.32 
L 70.616 28.32 
z
" style="fill: #ffffff"/>
   </g>
   <g id="matplotlib.axis_1">
    <g id="xtick_1">
     <g id="line2d_1">
      <path d="M 87.860727 78.7975 
L 87.860727 28.32 
" clip-path="url(#p9f05cf7831)" style="fill: none; stroke: #b0b0b0; stroke-width: 0.8; stroke-linecap: square"/>
     </g>
     <g id="line2d_2">
      <defs>
       <path id="m66ab077350" d="M 0 0 
L 0 3.5 
" style="stroke: #000000; stroke-width: 0.8"/>
      </defs>
      <g>
       <use xlink:href="#m66ab077350" x="87.860727" y="78.7975" style="stroke: #000000; stroke-width: 0.8"/>
      </g>
     </g>
     <g id="text_1">
      <!-- 0 -->
      <g transform="translate(84.679477 93.395937)scale(0.1 -0.1)">
       <defs>
        <path id="DejaVuSans-30" d="M 2034 4250 
Q 1547 4250 1301 3770 
Q 1056 3291 1056 2328 
Q 1056 1369 1301 889 
Q 1547 409 2034 409 
Q 2525 409 2770 889 
Q 3016 1369 3016 2328 
Q 3016 3291 2770 3770 
Q 2525 4250 2034 4250 
z
M 2034 4750 
Q 2819 4750 3233 4129 
Q 3647 3509 3647 2328 
Q 3647 1150 3233 529 
Q 2819 -91 2034 -91 
Q 1250 -91 836 529 
Q 422 1150 422 2328 
Q 422 3509 836 4129 
Q 1250 4750 2034 4750 
z
" transform="scale(0.015625)"/>
       </defs>
       <use xlink:href="#DejaVuSans-30"/>
      </g>
     </g>
    </g>
    <g id="xtick_2">
     <g id="line2d_3">
      <path d="M 137.414541 78.7975 
L 137.414541 28.32 
" clip-path="url(#p9f05cf7831)" style="fill: none; stroke: #b0b0b0; stroke-width: 0.8; stroke-linecap: square"/>
     </g>
     <g id="line2d_4">
      <g>
       <use xlink:href="#m66ab077350" x="137.414541" y="78.7975" style="stroke: #000000; stroke-width: 0.8"/>
      </g>
     </g>
     <g id="text_2">
      <!-- 1 -->
      <g transform="translate(134.233291 93.395937)scale(0.1 -0.1)">
       <defs>
        <path id="DejaVuSans-31" d="M 794 531 
L 1825 531 
L 1825 4091 
L 703 3866 
L 703 4441 
L 1819 4666 
L 2450 4666 
L 2450 531 
L 3481 531 
L 3481 0 
L 794 0 
L 794 531 
z
" transform="scale(0.015625)"/>
       </defs>
       <use xlink:href="#DejaVuSans-31"/>
      </g>
     </g>
    </g>
    <g id="xtick_3">
     <g id="line2d_5">
      <path d="M 186.968355 78.7975 
L 186.968355 28.32 
" clip-path="url(#p9f05cf7831)" style="fill: none; stroke: #b0b0b0; stroke-width: 0.8; stroke-linecap: square"/>
     </g>
     <g id="line2d_6">
      <g>
       <use xlink:href="#m66ab077350" x="186.968355" y="78.7975" style="stroke: #000000; stroke-width: 0.8"/>
      </g>
     </g>
     <g id="text_3">
      <!-- 2 -->
      <g transform="translate(183.787105 93.395937)scale(0.1 -0.1)">
       <defs>
        <path id="DejaVuSans-32" d="M 1228 531 
L 3431 531 
L 3431 0 
L 469 0 
L 469 531 
Q 828 903 1448 1529 
Q 2069 2156 2228 2338 
Q 2531 2678 2651 2914 
Q 2772 3150 2772 3378 
Q 2772 3750 2511 3984 
Q 2250 4219 1831 4219 
Q 1534 4219 1204 4116 
Q 875 4013 500 3803 
L 500 4441 
Q 881 4594 1212 4672 
Q 1544 4750 1819 4750 
Q 2544 4750 2975 4387 
Q 3406 4025 3406 3419 
Q 3406 3131 3298 2873 
Q 3191 2616 2906 2266 
Q 2828 2175 2409 1742 
Q 1991 1309 1228 531 
z
" transform="scale(0.015625)"/>
       </defs>
       <use xlink:href="#DejaVuSans-32"/>
      </g>
     </g>
    </g>
    <g id="xtick_4">
     <g id="line2d_7">
      <path d="M 236.522169 78.7975 
L 236.522169 28.32 
" clip-path="url(#p9f05cf7831)" style="fill: none; stroke: #b0b0b0; stroke-width: 0.8; stroke-linecap: square"/>
     </g>
     <g id="line2d_8">
      <g>
       <use xlink:href="#m66ab077350" x="236.522169" y="78.7975" style="stroke: #000000; stroke-width: 0.8"/>
      </g>
     </g>
     <g id="text_4">
      <!-- 3 -->
      <g transform="translate(233.340919 93.395937)scale(0.1 -0.1)">
       <defs>
        <path id="DejaVuSans-33" d="M 2597 2516 
Q 3050 2419 3304 2112 
Q 3559 1806 3559 1356 
Q 3559 666 3084 287 
Q 2609 -91 1734 -91 
Q 1441 -91 1130 -33 
Q 819 25 488 141 
L 488 750 
Q 750 597 1062 519 
Q 1375 441 1716 441 
Q 2309 441 2620 675 
Q 2931 909 2931 1356 
Q 2931 1769 2642 2001 
Q 2353 2234 1838 2234 
L 1294 2234 
L 1294 2753 
L 1863 2753 
Q 2328 2753 2575 2939 
Q 2822 3125 2822 3475 
Q 2822 3834 2567 4026 
Q 2313 4219 1838 4219 
Q 1578 4219 1281 4162 
Q 984 4106 628 3988 
L 628 4550 
Q 988 4650 1302 4700 
Q 1616 4750 1894 4750 
Q 2613 4750 3031 4423 
Q 3450 4097 3450 3541 
Q 3450 3153 3228 2886 
Q 3006 2619 2597 2516 
z
" transform="scale(0.015625)"/>
       </defs>
       <use xlink:href="#DejaVuSans-33"/>
      </g>
     </g>
    </g>
    <g id="xtick_5">
     <g id="line2d_9">
      <path d="M 286.075983 78.7975 
L 286.075983 28.32 
" clip-path="url(#p9f05cf7831)" style="fill: none; stroke: #b0b0b0; stroke-width: 0.8; stroke-linecap: square"/>
     </g>
     <g id="line2d_10">
      <g>
       <use xlink:href="#m66ab077350" x="286.075983" y="78.7975" style="stroke: #000000; stroke-width: 0.8"/>
      </g>
     </g>
     <g id="text_5">
      <!-- 4 -->
      <g transform="translate(282.894733 93.395937)scale(0.1 -0.1)">
       <defs>
        <path id="DejaVuSans-34" d="M 2419 4116 
L 825 1625 
L 2419 1625 
L 2419 4116 
z
M 2253 4666 
L 3047 4666 
L 3047 1625 
L 3713 1625 
L 3713 1100 
L 3047 1100 
L 3047 0 
L 2419 0 
L 2419 1100 
L 313 1100 
L 313 1709 
L 2253 4666 
z
" transform="scale(0.015625)"/>
       </defs>
       <use xlink:href="#DejaVuSans-34"/>
      </g>
     </g>
    </g>
    <g id="xtick_6">
     <g id="line2d_11">
      <path d="M 335.629797 78.7975 
L 335.629797 28.32 
" clip-path="url(#p9f05cf7831)" style="fill: none; stroke: #b0b0b0; stroke-width: 0.8; stroke-linecap: square"/>
     </g>
     <g id="line2d_12">
      <g>
       <use xlink:href="#m66ab077350" x="335.629797" y="78.7975" style="stroke: #000000; stroke-width: 0.8"/>
      </g>
     </g>
     <g id="text_6">
      <!-- 5 -->
      <g transform="translate(332.448547 93.395937)scale(0.1 -0.1)">
       <defs>
        <path id="DejaVuSans-35" d="M 691 4666 
L 3169 4666 
L 3169 4134 
L 1269 4134 
L 1269 2991 
Q 1406 3038 1543 3061 
Q 1681 3084 1819 3084 
Q 2600 3084 3056 2656 
Q 3513 2228 3513 1497 
Q 3513 744 3044 326 
Q 2575 -91 1722 -91 
Q 1428 -91 1123 -41 
Q 819 9 494 109 
L 494 744 
Q 775 591 1075 516 
Q 1375 441 1709 441 
Q 2250 441 2565 725 
Q 2881 1009 2881 1497 
Q 2881 1984 2565 2268 
Q 2250 2553 1709 2553 
Q 1456 2553 1204 2497 
Q 953 2441 691 2322 
L 691 4666 
z
" transform="scale(0.015625)"/>
       </defs>
       <use xlink:href="#DejaVuSans-35"/>
      </g>
     </g>
    </g>
    <g id="xtick_7">
     <g id="line2d_13">
      <path d="M 385.183611 78.7975 
L 385.183611 28.32 
" clip-path="url(#p9f05cf7831)" style="fill: none; stroke: #b0b0b0; stroke-width: 0.8; stroke-linecap: square"/>
     </g>
     <g id="line2d_14">
      <g>
       <use xlink:href="#m66ab077350" x="385.183611" y="78.7975" style="stroke: #000000; stroke-width: 0.8"/>
      </g>
     </g>
     <g id="text_7">
      <!-- 6 -->
      <g transform="translate(382.002361 93.395937)scale(0.1 -0.1)">
       <defs>
        <path id="DejaVuSans-36" d="M 2113 2584 
Q 1688 2584 1439 2293 
Q 1191 2003 1191 1497 
Q 1191 994 1439 701 
Q 1688 409 2113 409 
Q 2538 409 2786 701 
Q 3034 994 3034 1497 
Q 3034 2003 2786 2293 
Q 2538 2584 2113 2584 
z
M 3366 4563 
L 3366 3988 
Q 3128 4100 2886 4159 
Q 2644 4219 2406 4219 
Q 1781 4219 1451 3797 
Q 1122 3375 1075 2522 
Q 1259 2794 1537 2939 
Q 1816 3084 2150 3084 
Q 2853 3084 3261 2657 
Q 3669 2231 3669 1497 
Q 3669 778 3244 343 
Q 2819 -91 2113 -91 
Q 1303 -91 875 529 
Q 447 1150 447 2328 
Q 447 3434 972 4092 
Q 1497 4750 2381 4750 
Q 2619 4750 2861 4703 
Q 3103 4656 3366 4563 
z
" transform="scale(0.015625)"/>
       </defs>
       <use xlink:href="#DejaVuSans-36"/>
      </g>
     </g>
    </g>
    <g id="xtick_8">
     <g id="line2d_15">
      <path d="M 434.737425 78.7975 
L 434.737425 28.32 
" clip-path="url(#p9f05cf7831)" style="fill: none; stroke: #b0b0b0; stroke-width: 0.8; stroke-linecap: square"/>
     </g>
     <g id="line2d_16">
      <g>
       <use xlink:href="#m66ab077350" x="434.737425" y="78.7975" style="stroke: #000000; stroke-width: 0.8"/>
      </g>
     </g>
     <g id="text_8">
      <!-- 7 -->
      <g transform="translate(431.556175 93.395937)scale(0.1 -0.1)">
       <defs>
        <path id="DejaVuSans-37" d="M 525 4666 
L 3525 4666 
L 3525 4397 
L 1831 0 
L 1172 0 
L 2766 4134 
L 525 4134 
L 525 4666 
z
" transform="scale(0.015625)"/>
       </defs>
       <use xlink:href="#DejaVuSans-37"/>
      </g>
     </g>
    </g>
    <g id="text_9">
     <!-- $t$ [s] -->
     <g transform="translate(250.208 107.074062)scale(0.1 -0.1)">
      <defs>
       <path id="DejaVuSans-Oblique-74" d="M 2706 3500 
L 2619 3053 
L 1472 3053 
L 1100 1153 
Q 1081 1047 1072 975 
Q 1063 903 1063 863 
Q 1063 663 1183 572 
Q 1303 481 1569 481 
L 2150 481 
L 2053 0 
L 1503 0 
Q 991 0 739 200 
Q 488 400 488 806 
Q 488 878 497 964 
Q 506 1050 525 1153 
L 897 3053 
L 409 3053 
L 500 3500 
L 978 3500 
L 1172 4494 
L 1747 4494 
L 1556 3500 
L 2706 3500 
z
" transform="scale(0.015625)"/>
       <path id="DejaVuSans-20" transform="scale(0.015625)"/>
       <path id="DejaVuSans-5b" d="M 550 4863 
L 1875 4863 
L 1875 4416 
L 1125 4416 
L 1125 -397 
L 1875 -397 
L 1875 -844 
L 550 -844 
L 550 4863 
z
" transform="scale(0.015625)"/>
       <path id="DejaVuSans-73" d="M 2834 3397 
L 2834 2853 
Q 2591 2978 2328 3040 
Q 2066 3103 1784 3103 
Q 1356 3103 1142 2972 
Q 928 2841 928 2578 
Q 928 2378 1081 2264 
Q 1234 2150 1697 2047 
L 1894 2003 
Q 2506 1872 2764 1633 
Q 3022 1394 3022 966 
Q 3022 478 2636 193 
Q 2250 -91 1575 -91 
Q 1294 -91 989 -36 
Q 684 19 347 128 
L 347 722 
Q 666 556 975 473 
Q 1284 391 1588 391 
Q 1994 391 2212 530 
Q 2431 669 2431 922 
Q 2431 1156 2273 1281 
Q 2116 1406 1581 1522 
L 1381 1569 
Q 847 1681 609 1914 
Q 372 2147 372 2553 
Q 372 3047 722 3315 
Q 1072 3584 1716 3584 
Q 2034 3584 2315 3537 
Q 2597 3491 2834 3397 
z
" transform="scale(0.015625)"/>
       <path id="DejaVuSans-5d" d="M 1947 4863 
L 1947 -844 
L 622 -844 
L 622 -397 
L 1369 -397 
L 1369 4416 
L 622 4416 
L 622 4863 
L 1947 4863 
z
" transform="scale(0.015625)"/>
      </defs>
      <use xlink:href="#DejaVuSans-Oblique-74" transform="translate(0 0.015625)"/>
      <use xlink:href="#DejaVuSans-20" transform="translate(39.208984 0.015625)"/>
      <use xlink:href="#DejaVuSans-5b" transform="translate(70.996094 0.015625)"/>
      <use xlink:href="#DejaVuSans-73" transform="translate(110.009766 0.015625)"/>
      <use xlink:href="#DejaVuSans-5d" transform="translate(162.109375 0.015625)"/>
     </g>
    </g>
   </g>
   <g id="matplotlib.axis_2">
    <g id="ytick_1">
     <g id="line2d_17">
      <path d="M 70.616 68.744771 
L 450 68.744771 
" clip-path="url(#p9f05cf7831)" style="fill: none; stroke: #b0b0b0; stroke-width: 0.8; stroke-linecap: square"/>
     </g>
     <g id="line2d_18">
      <defs>
       <path id="mc3012bfc72" d="M 0 0 
L -3.5 0 
" style="stroke: #000000; stroke-width: 0.8"/>
      </defs>
      <g>
       <use xlink:href="#mc3012bfc72" x="70.616" y="68.744771" style="stroke: #000000; stroke-width: 0.8"/>
      </g>
     </g>
     <g id="text_10">
      <!-- 0 -->
      <g transform="translate(57.2535 72.54399)scale(0.1 -0.1)">
       <use xlink:href="#DejaVuSans-30"/>
      </g>
     </g>
    </g>
    <g id="ytick_2">
     <g id="line2d_19">
      <path d="M 70.616 30.614432 
L 450 30.614432 
" clip-path="url(#p9f05cf7831)" style="fill: none; stroke: #b0b0b0; stroke-width: 0.8; stroke-linecap: square"/>
     </g>
     <g id="line2d_20">
      <g>
       <use xlink:href="#mc3012bfc72" x="70.616" y="30.614432" style="stroke: #000000; stroke-width: 0.8"/>
      </g>
     </g>
     <g id="text_11">
      <!-- 10 -->
      <g transform="translate(50.891 34.413651)scale(0.1 -0.1)">
       <use xlink:href="#DejaVuSans-31"/>
       <use xlink:href="#DejaVuSans-30" x="63.623047"/>
      </g>
     </g>
    </g>
    <g id="text_12">
     <!-- $e_x$ [m] -->
     <g transform="translate(44.811312 69.20875)rotate(-90)scale(0.1 -0.1)">
      <defs>
       <path id="DejaVuSans-Oblique-65" d="M 3078 2063 
Q 3088 2113 3092 2166 
Q 3097 2219 3097 2272 
Q 3097 2653 2873 2875 
Q 2650 3097 2266 3097 
Q 1838 3097 1509 2826 
Q 1181 2556 1013 2059 
L 3078 2063 
z
M 3578 1613 
L 903 1613 
Q 884 1494 878 1425 
Q 872 1356 872 1306 
Q 872 872 1139 634 
Q 1406 397 1894 397 
Q 2269 397 2603 481 
Q 2938 566 3225 728 
L 3116 159 
Q 2806 34 2476 -28 
Q 2147 -91 1806 -91 
Q 1078 -91 686 257 
Q 294 606 294 1247 
Q 294 1794 489 2264 
Q 684 2734 1063 3103 
Q 1306 3334 1642 3459 
Q 1978 3584 2356 3584 
Q 2950 3584 3301 3228 
Q 3653 2872 3653 2272 
Q 3653 2128 3634 1964 
Q 3616 1800 3578 1613 
z
" transform="scale(0.015625)"/>
       <path id="DejaVuSans-Oblique-78" d="M 3841 3500 
L 2234 1784 
L 3219 0 
L 2559 0 
L 1819 1388 
L 531 0 
L -166 0 
L 1556 1844 
L 641 3500 
L 1300 3500 
L 1972 2234 
L 3144 3500 
L 3841 3500 
z
" transform="scale(0.015625)"/>
       <path id="DejaVuSans-6d" d="M 3328 2828 
Q 3544 3216 3844 3400 
Q 4144 3584 4550 3584 
Q 5097 3584 5394 3201 
Q 5691 2819 5691 2113 
L 5691 0 
L 5113 0 
L 5113 2094 
Q 5113 2597 4934 2840 
Q 4756 3084 4391 3084 
Q 3944 3084 3684 2787 
Q 3425 2491 3425 1978 
L 3425 0 
L 2847 0 
L 2847 2094 
Q 2847 2600 2669 2842 
Q 2491 3084 2119 3084 
Q 1678 3084 1418 2786 
Q 1159 2488 1159 1978 
L 1159 0 
L 581 0 
L 581 3500 
L 1159 3500 
L 1159 2956 
Q 1356 3278 1631 3431 
Q 1906 3584 2284 3584 
Q 2666 3584 2933 3390 
Q 3200 3197 3328 2828 
z
" transform="scale(0.015625)"/>
      </defs>
      <use xlink:href="#DejaVuSans-Oblique-65" transform="translate(0 0.015625)"/>
      <use xlink:href="#DejaVuSans-Oblique-78" transform="translate(61.523438 -16.390625)scale(0.7)"/>
      <use xlink:href="#DejaVuSans-20" transform="translate(105.683594 0.015625)"/>
      <use xlink:href="#DejaVuSans-5b" transform="translate(137.470703 0.015625)"/>
      <use xlink:href="#DejaVuSans-6d" transform="translate(176.484375 0.015625)"/>
      <use xlink:href="#DejaVuSans-5d" transform="translate(273.896484 0.015625)"/>
     </g>
    </g>
   </g>
   <g id="line2d_21">
    <path d="M 87.860727 30.614432 
L 99.274504 30.719084 
L 110.192029 31.363387 
L 122.598307 32.81438 
L 128.05707 33.676234 
L 131.034577 34.182162 
L 134.508335 34.864098 
L 135.500837 34.975903 
L 136.989591 35.318138 
L 137.982093 35.473565 
L 139.470846 35.7106 
L 139.967097 35.952409 
L 141.455851 36.157643 
L 141.952102 36.324314 
L 142.448353 36.324314 
L 142.944604 36.578548 
L 144.433358 36.794365 
L 145.922111 37.237023 
L 147.410865 37.463981 
L 148.403367 37.741358 
L 149.89212 38.071975 
L 151.877125 38.557473 
L 154.358381 39.2119 
L 155.350883 39.470595 
L 155.847134 39.680338 
L 156.343385 39.680338 
L 157.335888 39.999572 
L 158.824641 40.378986 
L 160.313394 40.821717 
L 161.305897 41.103322 
L 162.298399 41.446172 
L 164.779655 42.088516 
L 165.772157 42.446304 
L 167.757162 42.992603 
L 168.749664 43.363108 
L 170.238417 43.801606 
L 170.734668 44.05514 
L 171.23092 44.05514 
L 171.727171 44.310799 
L 172.719673 44.633307 
L 173.215924 44.828356 
L 174.208426 45.024544 
L 174.704678 45.287879 
L 175.69718 45.619822 
L 176.193431 45.82044 
L 177.185933 46.022127 
L 177.682184 46.292685 
L 178.178436 46.292685 
L 178.674687 46.701974 
L 179.667189 46.908136 
L 180.16344 47.04613 
L 180.659691 47.32343 
L 181.652194 47.672467 
L 182.148445 47.883149 
L 183.140947 48.09476 
L 183.637198 48.378327 
L 185.125952 48.878379 
L 185.622203 49.166243 
L 186.118454 49.166243 
L 186.614705 49.455607 
L 188.59971 50.111996 
L 189.095961 50.406018 
L 191.577216 51.221566 
L 192.073468 51.520594 
L 195.050974 52.501168 
L 195.547226 52.805508 
L 197.035979 53.264294 
L 197.53223 53.648688 
L 198.028481 53.648688 
L 198.524733 53.957555 
L 200.013486 54.423112 
L 200.509737 54.734993 
L 201.005988 54.734993 
L 201.502239 55.205098 
L 202.494742 55.441187 
L 202.990993 55.598967 
L 203.487244 55.915462 
L 203.983495 55.915462 
L 204.479746 56.392577 
L 205.472249 56.632215 
L 205.9685 56.792377 
L 206.464751 57.113683 
L 207.457253 57.517176 
L 207.953504 57.760276 
L 208.946007 58.004138 
L 209.442258 58.330488 
L 210.43476 58.740337 
L 210.931011 58.98721 
L 211.923513 59.234733 
L 212.419765 59.565647 
L 213.908518 60.146531 
L 214.404769 60.478996 
L 217.382276 61.557375 
L 217.878527 61.887064 
L 219.863532 62.621983 
L 220.359783 62.944697 
L 222.344787 63.659921 
L 223.33729 64.127272 
L 223.833541 64.127272 
L 224.329792 64.43423 
L 225.322294 64.812426 
L 225.818545 65.036298 
L 226.811048 65.257821 
L 227.307299 65.549442 
L 228.299801 65.907808 
L 229.292303 66.328636 
L 229.788555 66.328636 
L 230.284806 66.603537 
L 231.773559 67.073787 
L 232.26981 67.336396 
L 234.751066 68.036206 
L 235.247317 68.282697 
L 235.743568 68.282697 
L 236.736071 68.644583 
L 237.728573 68.939011 
L 238.721075 69.283793 
L 241.202331 69.891736 
L 242.194833 70.210161 
L 243.683587 70.569852 
L 244.676089 70.868015 
L 247.157345 71.390771 
L 248.149847 71.663573 
L 250.134852 72.057664 
L 251.127354 72.310989 
L 252.616107 72.5976 
L 253.60861 72.83593 
L 259.067372 73.793352 
L 260.059874 73.996748 
L 265.022386 74.768101 
L 267.00739 75.013717 
L 278.917418 76.173636 
L 287.849939 76.497234 
L 296.286208 76.386793 
L 309.188738 75.539543 
L 324.076272 73.77154 
L 326.557528 73.377702 
L 327.053779 73.377702 
L 327.55003 73.187363 
L 329.038784 73.024835 
L 330.527537 72.72414 
L 333.505044 72.169376 
L 334.993797 71.99253 
L 339.460058 71.141197 
L 342.933816 70.556948 
L 345.911322 70.07072 
L 348.888829 69.62136 
L 351.866336 69.21378 
L 366.257619 67.822369 
L 379.160149 67.249134 
L 388.588921 67.175249 
L 396.032688 67.337442 
L 427.29651 68.482039 
L 432.755273 68.553152 
L 432.755273 68.553152 
" clip-path="url(#p9f05cf7831)" style="fill: none; stroke: #ff0000; stroke-width: 1.5; stroke-linecap: square"/>
   </g>
   <g id="patch_3">
    <path d="M 70.616 78.7975 
L 70.616 28.32 
" style="fill: none; stroke: #000000; stroke-width: 0.8; stroke-linejoin: miter; stroke-linecap: square"/>
   </g>
   <g id="patch_4">
    <path d="M 450 78.7975 
L 450 28.32 
" style="fill: none; stroke: #000000; stroke-width: 0.8; stroke-linejoin: miter; stroke-linecap: square"/>
   </g>
   <g id="patch_5">
    <path d="M 70.616 78.7975 
L 450 78.7975 
" style="fill: none; stroke: #000000; stroke-width: 0.8; stroke-linejoin: miter; stroke-linecap: square"/>
   </g>
   <g id="patch_6">
    <path d="M 70.616 28.32 
L 450 28.32 
" style="fill: none; stroke: #000000; stroke-width: 0.8; stroke-linejoin: miter; stroke-linecap: square"/>
   </g>
   <g id="text_13">
    <!-- Error in $x$-position -->
    <g transform="translate(206.668 22.32)scale(0.12 -0.12)">
     <defs>
      <path id="DejaVuSans-45" d="M 628 4666 
L 3578 4666 
L 3578 4134 
L 1259 4134 
L 1259 2753 
L 3481 2753 
L 3481 2222 
L 1259 2222 
L 1259 531 
L 3634 531 
L 3634 0 
L 628 0 
L 628 4666 
z
" transform="scale(0.015625)"/>
      <path id="DejaVuSans-72" d="M 2631 2963 
Q 2534 3019 2420 3045 
Q 2306 3072 2169 3072 
Q 1681 3072 1420 2755 
Q 1159 2438 1159 1844 
L 1159 0 
L 581 0 
L 581 3500 
L 1159 3500 
L 1159 2956 
Q 1341 3275 1631 3429 
Q 1922 3584 2338 3584 
Q 2397 3584 2469 3576 
Q 2541 3569 2628 3553 
L 2631 2963 
z
" transform="scale(0.015625)"/>
      <path id="DejaVuSans-6f" d="M 1959 3097 
Q 1497 3097 1228 2736 
Q 959 2375 959 1747 
Q 959 1119 1226 758 
Q 1494 397 1959 397 
Q 2419 397 2687 759 
Q 2956 1122 2956 1747 
Q 2956 2369 2687 2733 
Q 2419 3097 1959 3097 
z
M 1959 3584 
Q 2709 3584 3137 3096 
Q 3566 2609 3566 1747 
Q 3566 888 3137 398 
Q 2709 -91 1959 -91 
Q 1206 -91 779 398 
Q 353 888 353 1747 
Q 353 2609 779 3096 
Q 1206 3584 1959 3584 
z
" transform="scale(0.015625)"/>
      <path id="DejaVuSans-69" d="M 603 3500 
L 1178 3500 
L 1178 0 
L 603 0 
L 603 3500 
z
M 603 4863 
L 1178 4863 
L 1178 4134 
L 603 4134 
L 603 4863 
z
" transform="scale(0.015625)"/>
      <path id="DejaVuSans-6e" d="M 3513 2113 
L 3513 0 
L 2938 0 
L 2938 2094 
Q 2938 2591 2744 2837 
Q 2550 3084 2163 3084 
Q 1697 3084 1428 2787 
Q 1159 2491 1159 1978 
L 1159 0 
L 581 0 
L 581 3500 
L 1159 3500 
L 1159 2956 
Q 1366 3272 1645 3428 
Q 1925 3584 2291 3584 
Q 2894 3584 3203 3211 
Q 3513 2838 3513 2113 
z
" transform="scale(0.015625)"/>
      <path id="DejaVuSans-2d" d="M 313 2009 
L 1997 2009 
L 1997 1497 
L 313 1497 
L 313 2009 
z
" transform="scale(0.015625)"/>
      <path id="DejaVuSans-70" d="M 1159 525 
L 1159 -1331 
L 581 -1331 
L 581 3500 
L 1159 3500 
L 1159 2969 
Q 1341 3281 1617 3432 
Q 1894 3584 2278 3584 
Q 2916 3584 3314 3078 
Q 3713 2572 3713 1747 
Q 3713 922 3314 415 
Q 2916 -91 2278 -91 
Q 1894 -91 1617 61 
Q 1341 213 1159 525 
z
M 3116 1747 
Q 3116 2381 2855 2742 
Q 2594 3103 2138 3103 
Q 1681 3103 1420 2742 
Q 1159 2381 1159 1747 
Q 1159 1113 1420 752 
Q 1681 391 2138 391 
Q 2594 391 2855 752 
Q 3116 1113 3116 1747 
z
" transform="scale(0.015625)"/>
      <path id="DejaVuSans-74" d="M 1172 4494 
L 1172 3500 
L 2356 3500 
L 2356 3053 
L 1172 3053 
L 1172 1153 
Q 1172 725 1289 603 
Q 1406 481 1766 481 
L 2356 481 
L 2356 0 
L 1766 0 
Q 1100 0 847 248 
Q 594 497 594 1153 
L 594 3053 
L 172 3053 
L 172 3500 
L 594 3500 
L 594 4494 
L 1172 4494 
z
" transform="scale(0.015625)"/>
     </defs>
     <use xlink:href="#DejaVuSans-45" transform="translate(0 0.015625)"/>
     <use xlink:href="#DejaVuSans-72" transform="translate(63.183594 0.015625)"/>
     <use xlink:href="#DejaVuSans-72" transform="translate(104.296875 0.015625)"/>
     <use xlink:href="#DejaVuSans-6f" transform="translate(145.410156 0.015625)"/>
     <use xlink:href="#DejaVuSans-72" transform="translate(206.591797 0.015625)"/>
     <use xlink:href="#DejaVuSans-20" transform="translate(247.705078 0.015625)"/>
     <use xlink:href="#DejaVuSans-69" transform="translate(279.492188 0.015625)"/>
     <use xlink:href="#DejaVuSans-6e" transform="translate(307.275391 0.015625)"/>
     <use xlink:href="#DejaVuSans-20" transform="translate(370.654297 0.015625)"/>
     <use xlink:href="#DejaVuSans-Oblique-78" transform="translate(402.441406 0.015625)"/>
     <use xlink:href="#DejaVuSans-2d" transform="translate(461.621094 0.015625)"/>
     <use xlink:href="#DejaVuSans-70" transform="translate(497.705078 0.015625)"/>
     <use xlink:href="#DejaVuSans-6f" transform="translate(561.181641 0.015625)"/>
     <use xlink:href="#DejaVuSans-73" transform="translate(622.363281 0.015625)"/>
     <use xlink:href="#DejaVuSans-69" transform="translate(674.462891 0.015625)"/>
     <use xlink:href="#DejaVuSans-74" transform="translate(702.246094 0.015625)"/>
     <use xlink:href="#DejaVuSans-69" transform="translate(741.455078 0.015625)"/>
     <use xlink:href="#DejaVuSans-6f" transform="translate(769.238281 0.015625)"/>
     <use xlink:href="#DejaVuSans-6e" transform="translate(830.419922 0.015625)"/>
    </g>
   </g>
  </g>
  <g id="axes_2">
   <g id="patch_7">
    <path d="M 70.616 190.3975 
L 450 190.3975 
L 450 139.92 
L 70.616 139.92 
z
" style="fill: #ffffff"/>
   </g>
   <g id="matplotlib.axis_3">
    <g id="xtick_9">
     <g id="line2d_22">
      <path d="M 87.860727 190.3975 
L 87.860727 139.92 
" clip-path="url(#pd164d6519d)" style="fill: none; stroke: #b0b0b0; stroke-width: 0.8; stroke-linecap: square"/>
     </g>
     <g id="line2d_23">
      <g>
       <use xlink:href="#m66ab077350" x="87.860727" y="190.3975" style="stroke: #000000; stroke-width: 0.8"/>
      </g>
     </g>
     <g id="text_14">
      <!-- 0 -->
      <g transform="translate(84.679477 204.995937)scale(0.1 -0.1)">
       <use xlink:href="#DejaVuSans-30"/>
      </g>
     </g>
    </g>
    <g id="xtick_10">
     <g id="line2d_24">
      <path d="M 137.414541 190.3975 
L 137.414541 139.92 
" clip-path="url(#pd164d6519d)" style="fill: none; stroke: #b0b0b0; stroke-width: 0.8; stroke-linecap: square"/>
     </g>
     <g id="line2d_25">
      <g>
       <use xlink:href="#m66ab077350" x="137.414541" y="190.3975" style="stroke: #000000; stroke-width: 0.8"/>
      </g>
     </g>
     <g id="text_15">
      <!-- 1 -->
      <g transform="translate(134.233291 204.995937)scale(0.1 -0.1)">
       <use xlink:href="#DejaVuSans-31"/>
      </g>
     </g>
    </g>
    <g id="xtick_11">
     <g id="line2d_26">
      <path d="M 186.968355 190.3975 
L 186.968355 139.92 
" clip-path="url(#pd164d6519d)" style="fill: none; stroke: #b0b0b0; stroke-width: 0.8; stroke-linecap: square"/>
     </g>
     <g id="line2d_27">
      <g>
       <use xlink:href="#m66ab077350" x="186.968355" y="190.3975" style="stroke: #000000; stroke-width: 0.8"/>
      </g>
     </g>
     <g id="text_16">
      <!-- 2 -->
      <g transform="translate(183.787105 204.995937)scale(0.1 -0.1)">
       <use xlink:href="#DejaVuSans-32"/>
      </g>
     </g>
    </g>
    <g id="xtick_12">
     <g id="line2d_28">
      <path d="M 236.522169 190.3975 
L 236.522169 139.92 
" clip-path="url(#pd164d6519d)" style="fill: none; stroke: #b0b0b0; stroke-width: 0.8; stroke-linecap: square"/>
     </g>
     <g id="line2d_29">
      <g>
       <use xlink:href="#m66ab077350" x="236.522169" y="190.3975" style="stroke: #000000; stroke-width: 0.8"/>
      </g>
     </g>
     <g id="text_17">
      <!-- 3 -->
      <g transform="translate(233.340919 204.995937)scale(0.1 -0.1)">
       <use xlink:href="#DejaVuSans-33"/>
      </g>
     </g>
    </g>
    <g id="xtick_13">
     <g id="line2d_30">
      <path d="M 286.075983 190.3975 
L 286.075983 139.92 
" clip-path="url(#pd164d6519d)" style="fill: none; stroke: #b0b0b0; stroke-width: 0.8; stroke-linecap: square"/>
     </g>
     <g id="line2d_31">
      <g>
       <use xlink:href="#m66ab077350" x="286.075983" y="190.3975" style="stroke: #000000; stroke-width: 0.8"/>
      </g>
     </g>
     <g id="text_18">
      <!-- 4 -->
      <g transform="translate(282.894733 204.995937)scale(0.1 -0.1)">
       <use xlink:href="#DejaVuSans-34"/>
      </g>
     </g>
    </g>
    <g id="xtick_14">
     <g id="line2d_32">
      <path d="M 335.629797 190.3975 
L 335.629797 139.92 
" clip-path="url(#pd164d6519d)" style="fill: none; stroke: #b0b0b0; stroke-width: 0.8; stroke-linecap: square"/>
     </g>
     <g id="line2d_33">
      <g>
       <use xlink:href="#m66ab077350" x="335.629797" y="190.3975" style="stroke: #000000; stroke-width: 0.8"/>
      </g>
     </g>
     <g id="text_19">
      <!-- 5 -->
      <g transform="translate(332.448547 204.995937)scale(0.1 -0.1)">
       <use xlink:href="#DejaVuSans-35"/>
      </g>
     </g>
    </g>
    <g id="xtick_15">
     <g id="line2d_34">
      <path d="M 385.183611 190.3975 
L 385.183611 139.92 
" clip-path="url(#pd164d6519d)" style="fill: none; stroke: #b0b0b0; stroke-width: 0.8; stroke-linecap: square"/>
     </g>
     <g id="line2d_35">
      <g>
       <use xlink:href="#m66ab077350" x="385.183611" y="190.3975" style="stroke: #000000; stroke-width: 0.8"/>
      </g>
     </g>
     <g id="text_20">
      <!-- 6 -->
      <g transform="translate(382.002361 204.995937)scale(0.1 -0.1)">
       <use xlink:href="#DejaVuSans-36"/>
      </g>
     </g>
    </g>
    <g id="xtick_16">
     <g id="line2d_36">
      <path d="M 434.737425 190.3975 
L 434.737425 139.92 
" clip-path="url(#pd164d6519d)" style="fill: none; stroke: #b0b0b0; stroke-width: 0.8; stroke-linecap: square"/>
     </g>
     <g id="line2d_37">
      <g>
       <use xlink:href="#m66ab077350" x="434.737425" y="190.3975" style="stroke: #000000; stroke-width: 0.8"/>
      </g>
     </g>
     <g id="text_21">
      <!-- 7 -->
      <g transform="translate(431.556175 204.995937)scale(0.1 -0.1)">
       <use xlink:href="#DejaVuSans-37"/>
      </g>
     </g>
    </g>
    <g id="text_22">
     <!-- $t$ [s] -->
     <g transform="translate(250.208 218.674062)scale(0.1 -0.1)">
      <use xlink:href="#DejaVuSans-Oblique-74" transform="translate(0 0.015625)"/>
      <use xlink:href="#DejaVuSans-20" transform="translate(39.208984 0.015625)"/>
      <use xlink:href="#DejaVuSans-5b" transform="translate(70.996094 0.015625)"/>
      <use xlink:href="#DejaVuSans-73" transform="translate(110.009766 0.015625)"/>
      <use xlink:href="#DejaVuSans-5d" transform="translate(162.109375 0.015625)"/>
     </g>
    </g>
   </g>
   <g id="matplotlib.axis_4">
    <g id="ytick_3">
     <g id="line2d_38">
      <path d="M 70.616 188.798377 
L 450 188.798377 
" clip-path="url(#pd164d6519d)" style="fill: none; stroke: #b0b0b0; stroke-width: 0.8; stroke-linecap: square"/>
     </g>
     <g id="line2d_39">
      <g>
       <use xlink:href="#mc3012bfc72" x="70.616" y="188.798377" style="stroke: #000000; stroke-width: 0.8"/>
      </g>
     </g>
     <g id="text_23">
      <!-- −0.025 -->
      <g transform="translate(26.608187 192.597595)scale(0.1 -0.1)">
       <defs>
        <path id="DejaVuSans-2212" d="M 678 2272 
L 4684 2272 
L 4684 1741 
L 678 1741 
L 678 2272 
z
" transform="scale(0.015625)"/>
        <path id="DejaVuSans-2e" d="M 684 794 
L 1344 794 
L 1344 0 
L 684 0 
L 684 794 
z
" transform="scale(0.015625)"/>
       </defs>
       <use xlink:href="#DejaVuSans-2212"/>
       <use xlink:href="#DejaVuSans-30" x="83.789062"/>
       <use xlink:href="#DejaVuSans-2e" x="147.412109"/>
       <use xlink:href="#DejaVuSans-30" x="179.199219"/>
       <use xlink:href="#DejaVuSans-32" x="242.822266"/>
       <use xlink:href="#DejaVuSans-35" x="306.445312"/>
      </g>
     </g>
    </g>
    <g id="ytick_4">
     <g id="line2d_40">
      <path d="M 70.616 169.038119 
L 450 169.038119 
" clip-path="url(#pd164d6519d)" style="fill: none; stroke: #b0b0b0; stroke-width: 0.8; stroke-linecap: square"/>
     </g>
     <g id="line2d_41">
      <g>
       <use xlink:href="#mc3012bfc72" x="70.616" y="169.038119" style="stroke: #000000; stroke-width: 0.8"/>
      </g>
     </g>
     <g id="text_24">
      <!-- 0.000 -->
      <g transform="translate(34.987875 172.837337)scale(0.1 -0.1)">
       <use xlink:href="#DejaVuSans-30"/>
       <use xlink:href="#DejaVuSans-2e" x="63.623047"/>
       <use xlink:href="#DejaVuSans-30" x="95.410156"/>
       <use xlink:href="#DejaVuSans-30" x="159.033203"/>
       <use xlink:href="#DejaVuSans-30" x="222.65625"/>
      </g>
     </g>
    </g>
    <g id="ytick_5">
     <g id="line2d_42">
      <path d="M 70.616 149.27786 
L 450 149.27786 
" clip-path="url(#pd164d6519d)" style="fill: none; stroke: #b0b0b0; stroke-width: 0.8; stroke-linecap: square"/>
     </g>
     <g id="line2d_43">
      <g>
       <use xlink:href="#mc3012bfc72" x="70.616" y="149.27786" style="stroke: #000000; stroke-width: 0.8"/>
      </g>
     </g>
     <g id="text_25">
      <!-- 0.025 -->
      <g transform="translate(34.987875 153.077079)scale(0.1 -0.1)">
       <use xlink:href="#DejaVuSans-30"/>
       <use xlink:href="#DejaVuSans-2e" x="63.623047"/>
       <use xlink:href="#DejaVuSans-30" x="95.410156"/>
       <use xlink:href="#DejaVuSans-32" x="159.033203"/>
       <use xlink:href="#DejaVuSans-35" x="222.65625"/>
      </g>
     </g>
    </g>
    <g id="text_26">
     <!-- $e_z$ [m] -->
     <g transform="translate(20.5285 180.60875)rotate(-90)scale(0.1 -0.1)">
      <defs>
       <path id="DejaVuSans-Oblique-7a" d="M 744 3500 
L 3475 3500 
L 3372 2975 
L 738 459 
L 2913 459 
L 2822 0 
L -19 0 
L 84 525 
L 2719 3041 
L 653 3041 
L 744 3500 
z
" transform="scale(0.015625)"/>
      </defs>
      <use xlink:href="#DejaVuSans-Oblique-65" transform="translate(0 0.015625)"/>
      <use xlink:href="#DejaVuSans-Oblique-7a" transform="translate(61.523438 -16.390625)scale(0.7)"/>
      <use xlink:href="#DejaVuSans-20" transform="translate(101.000977 0.015625)"/>
      <use xlink:href="#DejaVuSans-5b" transform="translate(132.788086 0.015625)"/>
      <use xlink:href="#DejaVuSans-6d" transform="translate(171.801758 0.015625)"/>
      <use xlink:href="#DejaVuSans-5d" transform="translate(269.213867 0.015625)"/>
     </g>
    </g>
   </g>
   <g id="line2d_44">
    <path d="M 87.860727 176.45167 
L 88.356978 176.057783 
L 88.85323 175.913354 
L 89.845732 175.24897 
L 90.341983 174.439367 
L 90.838234 174.008732 
L 92.326988 172.202424 
L 92.823239 172.202424 
L 93.31949 171.544712 
L 94.311992 170.856553 
L 95.304494 170.197137 
L 95.800746 170.197137 
L 96.296997 169.841409 
L 96.793248 169.841409 
L 97.289499 169.416566 
L 98.778252 169.148931 
L 100.267006 168.815864 
L 104.237015 168.476314 
L 107.710773 168.428598 
L 109.695778 168.625926 
L 110.68828 168.822415 
L 111.680782 169.174666 
L 113.169536 169.673769 
L 113.665787 169.983201 
L 114.162038 170.460529 
L 116.147043 171.642803 
L 116.643294 171.984637 
L 117.139545 172.530155 
L 117.635796 173.315295 
L 119.620801 175.066454 
L 120.117052 176.25847 
L 120.613303 176.25847 
L 121.109554 177.246762 
L 122.598307 178.760911 
L 123.094559 179.520761 
L 123.59081 180.525298 
L 126.072065 183.142769 
L 126.568317 184.006031 
L 129.049572 186.024948 
L 129.545823 186.60769 
L 132.027079 187.851526 
L 132.52333 187.851526 
L 133.019581 188.025485 
L 134.508335 188.076416 
L 135.500837 187.996032 
L 138.478344 186.868879 
L 138.974595 186.39225 
L 139.470846 186.39225 
L 139.967097 185.573147 
L 140.463349 185.426126 
L 141.455851 184.813327 
L 141.952102 184.168545 
L 142.448353 184.168545 
L 142.944604 183.165878 
L 143.440855 182.996698 
L 144.433358 182.319292 
L 145.42586 181.153062 
L 145.922111 180.671003 
L 146.418362 180.513597 
L 147.410865 179.903277 
L 147.907116 179.327756 
L 148.899618 178.666145 
L 149.395869 178.303515 
L 150.388371 177.967667 
L 150.884623 177.562477 
L 152.373376 176.970188 
L 152.869627 176.696932 
L 153.365878 176.696932 
L 153.862129 176.468651 
L 156.839636 175.946876 
L 162.298399 175.630506 
L 164.779655 175.456506 
L 166.764659 175.210799 
L 168.253413 174.921192 
L 170.238417 174.592672 
L 170.734668 174.445111 
L 171.23092 174.445111 
L 172.223422 174.235421 
L 173.712175 174.025782 
L 176.689682 173.815297 
L 178.178436 173.855925 
L 179.170938 174.007524 
L 180.16344 174.146945 
L 182.148445 174.79347 
L 183.140947 175.005889 
L 183.637198 175.317003 
L 185.125952 175.925926 
L 185.622203 176.303123 
L 186.118454 176.303123 
L 186.614705 176.695141 
L 188.59971 177.601294 
L 189.095961 178.00052 
L 191.577216 179.02881 
L 192.073468 179.360859 
L 195.547226 180.382442 
L 198.028481 180.630719 
L 200.013486 180.554685 
L 203.983495 179.69725 
L 204.479746 179.279498 
L 205.472249 179.052516 
L 205.9685 178.895868 
L 206.464751 178.572305 
L 207.457253 178.15552 
L 207.953504 177.902715 
L 208.946007 177.652968 
L 209.442258 177.345155 
L 211.427262 176.854751 
L 213.908518 176.620198 
L 218.374778 176.624824 
L 219.863532 176.417754 
L 222.344787 175.186375 
L 223.33729 174.048582 
L 223.833541 174.048582 
L 224.329792 173.062483 
L 224.826043 172.504026 
L 225.818545 170.590089 
L 226.314797 170.238409 
L 226.811048 169.510746 
L 227.307299 167.969501 
L 227.80355 167.16532 
L 229.292303 163.383536 
L 229.788555 163.383536 
L 230.284806 161.678365 
L 231.277308 159.983263 
L 231.773559 158.720029 
L 232.26981 157.049541 
L 234.254815 153.765679 
L 234.751066 152.565574 
L 235.247317 151.003236 
L 235.743568 151.003236 
L 236.239819 149.495947 
L 237.232322 148.063984 
L 238.721075 145.230797 
L 240.209829 143.760081 
L 241.202331 142.870121 
L 241.698582 142.411979 
L 242.691084 142.214432 
L 243.187336 142.22409 
L 243.683587 142.385069 
L 246.164842 144.957531 
L 246.661094 145.675269 
L 247.157345 146.876829 
L 247.653596 148.673222 
L 249.6386 152.708558 
L 250.134852 154.287296 
L 250.631103 156.377125 
L 252.119856 159.376426 
L 253.60861 163.301537 
L 255.097363 165.396811 
L 255.593614 165.993451 
L 256.586116 167.670079 
L 257.578619 168.342991 
L 259.067372 169.0568 
L 259.563623 169.22669 
L 261.052377 169.193673 
L 261.548628 169.11527 
L 262.044879 168.799638 
L 262.54113 168.799638 
L 263.037381 168.444162 
L 264.526135 167.78382 
L 265.518637 166.901938 
L 266.014888 166.510353 
L 266.511139 166.379861 
L 267.503642 165.864779 
L 267.999893 165.372615 
L 268.496144 165.372615 
L 268.992395 164.707275 
L 269.984897 164.417222 
L 270.481148 164.242134 
L 270.9774 163.940418 
L 271.473651 163.940418 
L 271.969902 163.617698 
L 274.451158 163.445841 
L 277.428664 163.936478 
L 277.924916 164.345428 
L 278.917418 164.581459 
L 279.413669 164.747779 
L 279.90992 165.096551 
L 280.902422 165.550657 
L 281.398674 165.826397 
L 282.391176 166.100546 
L 282.887427 166.458595 
L 283.879929 166.886689 
L 284.872432 167.359641 
L 285.368683 167.359641 
L 285.864934 167.646863 
L 287.353687 168.156498 
L 287.849939 168.326845 
L 288.34619 168.326845 
L 289.338692 168.63894 
L 290.827445 169.064026 
L 291.323697 169.064026 
L 292.316199 169.342108 
L 293.804952 169.688119 
L 294.797455 170.024371 
L 296.286208 170.489661 
L 296.782459 170.800129 
L 297.27871 170.800129 
L 297.774961 171.148107 
L 299.263715 171.748451 
L 299.759966 172.085926 
L 300.256217 172.57529 
L 302.241222 173.688253 
L 302.737473 174.149204 
L 303.233724 174.796082 
L 305.71498 176.5436 
L 306.211231 177.092244 
L 306.707482 177.831161 
L 308.196235 178.939533 
L 309.188738 180.201363 
L 309.684989 180.720904 
L 310.18124 180.890319 
L 311.173742 181.54616 
L 311.669993 182.16136 
L 312.166245 182.16136 
L 312.662496 182.992613 
L 313.158747 183.119246 
L 314.151249 183.589338 
L 314.6475 183.998499 
L 316.632505 184.67939 
L 318.617509 185.043006 
L 320.106263 185.011459 
L 323.08377 184.328406 
L 323.580021 184.01812 
L 324.572523 183.573647 
L 325.068774 183.285498 
L 326.061277 182.98897 
L 326.557528 182.589875 
L 327.053779 182.589875 
L 327.55003 182.001086 
L 328.542532 181.715054 
L 329.038784 181.528792 
L 329.535035 181.169035 
L 330.527537 180.746107 
L 331.023788 180.506473 
L 332.01629 180.276038 
L 333.008793 179.764757 
L 333.505044 179.55162 
L 334.497546 179.339039 
L 335.490048 178.976361 
L 335.9863 178.670261 
L 337.971304 177.990374 
L 338.467555 177.700431 
L 338.963806 177.272899 
L 340.45256 176.528483 
L 340.948811 176.107703 
L 341.445062 175.494315 
L 341.941313 175.494315 
L 342.437564 174.820836 
L 342.933816 174.461455 
L 343.926318 173.306005 
L 344.422569 173.102829 
L 344.91882 172.687841 
L 345.415071 171.826491 
L 345.911322 171.382385 
L 346.903825 170.006795 
L 347.400076 169.772849 
L 347.896327 169.303343 
L 348.392578 168.364714 
L 348.888829 167.901013 
L 349.881332 166.559023 
L 350.377583 166.345191 
L 350.873834 165.928927 
L 351.370085 165.149962 
L 352.858838 164.008434 
L 353.35509 163.508613 
L 354.843843 163.000385 
L 355.836345 162.817625 
L 356.828848 162.836652 
L 358.813852 163.543369 
L 359.310103 163.934126 
L 359.806354 164.573921 
L 361.295108 165.766266 
L 361.791359 166.45393 
L 362.28761 167.446817 
L 362.783861 167.446817 
L 363.280112 168.508636 
L 363.776364 169.059404 
L 364.768866 170.759475 
L 365.265117 171.046407 
L 365.761368 171.620266 
L 366.257619 172.759859 
L 366.753871 173.32089 
L 367.746373 174.943409 
L 368.242624 175.202656 
L 368.738875 175.709582 
L 369.235126 176.671437 
L 369.731377 177.123346 
L 370.72388 178.346995 
L 371.220131 178.530328 
L 372.708884 179.636098 
L 373.205135 180.122048 
L 374.693889 180.639452 
L 376.182642 180.939538 
L 377.671396 180.836442 
L 378.167647 180.69899 
L 379.160149 180.271821 
L 380.648903 179.66558 
L 381.145154 179.050667 
L 381.641405 179.050667 
L 382.137656 178.503311 
L 384.122661 177.304718 
L 384.618912 176.83491 
L 385.115163 176.204669 
L 386.603916 175.273674 
L 387.100167 174.678928 
L 387.596419 174.678928 
L 388.09267 173.852322 
L 388.588921 173.723853 
L 389.581423 173.240237 
L 390.077674 172.810283 
L 390.573925 172.810283 
L 391.070177 172.272821 
L 392.062679 172.052354 
L 395.040186 171.388682 
L 398.017693 171.229138 
L 404.468957 171.151332 
L 410.920222 170.30477 
L 416.378985 169.486586 
L 417.867738 169.284473 
L 423.822752 168.83186 
L 428.289012 168.793783 
L 432.755273 168.996345 
L 432.755273 168.996345 
" clip-path="url(#pd164d6519d)" style="fill: none; stroke: #0000ff; stroke-width: 1.5; stroke-linecap: square"/>
   </g>
   <g id="patch_8">
    <path d="M 70.616 190.3975 
L 70.616 139.92 
" style="fill: none; stroke: #000000; stroke-width: 0.8; stroke-linejoin: miter; stroke-linecap: square"/>
   </g>
   <g id="patch_9">
    <path d="M 450 190.3975 
L 450 139.92 
" style="fill: none; stroke: #000000; stroke-width: 0.8; stroke-linejoin: miter; stroke-linecap: square"/>
   </g>
   <g id="patch_10">
    <path d="M 70.616 190.3975 
L 450 190.3975 
" style="fill: none; stroke: #000000; stroke-width: 0.8; stroke-linejoin: miter; stroke-linecap: square"/>
   </g>
   <g id="patch_11">
    <path d="M 70.616 139.92 
L 450 139.92 
" style="fill: none; stroke: #000000; stroke-width: 0.8; stroke-linejoin: miter; stroke-linecap: square"/>
   </g>
   <g id="text_27">
    <!-- Error in $z$-position -->
    <g transform="translate(207.028 133.92)scale(0.12 -0.12)">
     <use xlink:href="#DejaVuSans-45" transform="translate(0 0.015625)"/>
     <use xlink:href="#DejaVuSans-72" transform="translate(63.183594 0.015625)"/>
     <use xlink:href="#DejaVuSans-72" transform="translate(104.296875 0.015625)"/>
     <use xlink:href="#DejaVuSans-6f" transform="translate(145.410156 0.015625)"/>
     <use xlink:href="#DejaVuSans-72" transform="translate(206.591797 0.015625)"/>
     <use xlink:href="#DejaVuSans-20" transform="translate(247.705078 0.015625)"/>
     <use xlink:href="#DejaVuSans-69" transform="translate(279.492188 0.015625)"/>
     <use xlink:href="#DejaVuSans-6e" transform="translate(307.275391 0.015625)"/>
     <use xlink:href="#DejaVuSans-20" transform="translate(370.654297 0.015625)"/>
     <use xlink:href="#DejaVuSans-Oblique-7a" transform="translate(402.441406 0.015625)"/>
     <use xlink:href="#DejaVuSans-2d" transform="translate(454.931641 0.015625)"/>
     <use xlink:href="#DejaVuSans-70" transform="translate(491.015625 0.015625)"/>
     <use xlink:href="#DejaVuSans-6f" transform="translate(554.492188 0.015625)"/>
     <use xlink:href="#DejaVuSans-73" transform="translate(615.673828 0.015625)"/>
     <use xlink:href="#DejaVuSans-69" transform="translate(667.773438 0.015625)"/>
     <use xlink:href="#DejaVuSans-74" transform="translate(695.556641 0.015625)"/>
     <use xlink:href="#DejaVuSans-69" transform="translate(734.765625 0.015625)"/>
     <use xlink:href="#DejaVuSans-6f" transform="translate(762.548828 0.015625)"/>
     <use xlink:href="#DejaVuSans-6e" transform="translate(823.730469 0.015625)"/>
    </g>
   </g>
  </g>
  <g id="axes_3">
   <g id="patch_12">
    <path d="M 70.616 301.9975 
L 450 301.9975 
L 450 251.52 
L 70.616 251.52 
z
" style="fill: #ffffff"/>
   </g>
   <g id="matplotlib.axis_5">
    <g id="xtick_17">
     <g id="line2d_45">
      <path d="M 87.860727 301.9975 
L 87.860727 251.52 
" clip-path="url(#pe42c7bdae2)" style="fill: none; stroke: #b0b0b0; stroke-width: 0.8; stroke-linecap: square"/>
     </g>
     <g id="line2d_46">
      <g>
       <use xlink:href="#m66ab077350" x="87.860727" y="301.9975" style="stroke: #000000; stroke-width: 0.8"/>
      </g>
     </g>
     <g id="text_28">
      <!-- 0 -->
      <g transform="translate(84.679477 316.595937)scale(0.1 -0.1)">
       <use xlink:href="#DejaVuSans-30"/>
      </g>
     </g>
    </g>
    <g id="xtick_18">
     <g id="line2d_47">
      <path d="M 137.414541 301.9975 
L 137.414541 251.52 
" clip-path="url(#pe42c7bdae2)" style="fill: none; stroke: #b0b0b0; stroke-width: 0.8; stroke-linecap: square"/>
     </g>
     <g id="line2d_48">
      <g>
       <use xlink:href="#m66ab077350" x="137.414541" y="301.9975" style="stroke: #000000; stroke-width: 0.8"/>
      </g>
     </g>
     <g id="text_29">
      <!-- 1 -->
      <g transform="translate(134.233291 316.595937)scale(0.1 -0.1)">
       <use xlink:href="#DejaVuSans-31"/>
      </g>
     </g>
    </g>
    <g id="xtick_19">
     <g id="line2d_49">
      <path d="M 186.968355 301.9975 
L 186.968355 251.52 
" clip-path="url(#pe42c7bdae2)" style="fill: none; stroke: #b0b0b0; stroke-width: 0.8; stroke-linecap: square"/>
     </g>
     <g id="line2d_50">
      <g>
       <use xlink:href="#m66ab077350" x="186.968355" y="301.9975" style="stroke: #000000; stroke-width: 0.8"/>
      </g>
     </g>
     <g id="text_30">
      <!-- 2 -->
      <g transform="translate(183.787105 316.595937)scale(0.1 -0.1)">
       <use xlink:href="#DejaVuSans-32"/>
      </g>
     </g>
    </g>
    <g id="xtick_20">
     <g id="line2d_51">
      <path d="M 236.522169 301.9975 
L 236.522169 251.52 
" clip-path="url(#pe42c7bdae2)" style="fill: none; stroke: #b0b0b0; stroke-width: 0.8; stroke-linecap: square"/>
     </g>
     <g id="line2d_52">
      <g>
       <use xlink:href="#m66ab077350" x="236.522169" y="301.9975" style="stroke: #000000; stroke-width: 0.8"/>
      </g>
     </g>
     <g id="text_31">
      <!-- 3 -->
      <g transform="translate(233.340919 316.595937)scale(0.1 -0.1)">
       <use xlink:href="#DejaVuSans-33"/>
      </g>
     </g>
    </g>
    <g id="xtick_21">
     <g id="line2d_53">
      <path d="M 286.075983 301.9975 
L 286.075983 251.52 
" clip-path="url(#pe42c7bdae2)" style="fill: none; stroke: #b0b0b0; stroke-width: 0.8; stroke-linecap: square"/>
     </g>
     <g id="line2d_54">
      <g>
       <use xlink:href="#m66ab077350" x="286.075983" y="301.9975" style="stroke: #000000; stroke-width: 0.8"/>
      </g>
     </g>
     <g id="text_32">
      <!-- 4 -->
      <g transform="translate(282.894733 316.595937)scale(0.1 -0.1)">
       <use xlink:href="#DejaVuSans-34"/>
      </g>
     </g>
    </g>
    <g id="xtick_22">
     <g id="line2d_55">
      <path d="M 335.629797 301.9975 
L 335.629797 251.52 
" clip-path="url(#pe42c7bdae2)" style="fill: none; stroke: #b0b0b0; stroke-width: 0.8; stroke-linecap: square"/>
     </g>
     <g id="line2d_56">
      <g>
       <use xlink:href="#m66ab077350" x="335.629797" y="301.9975" style="stroke: #000000; stroke-width: 0.8"/>
      </g>
     </g>
     <g id="text_33">
      <!-- 5 -->
      <g transform="translate(332.448547 316.595937)scale(0.1 -0.1)">
       <use xlink:href="#DejaVuSans-35"/>
      </g>
     </g>
    </g>
    <g id="xtick_23">
     <g id="line2d_57">
      <path d="M 385.183611 301.9975 
L 385.183611 251.52 
" clip-path="url(#pe42c7bdae2)" style="fill: none; stroke: #b0b0b0; stroke-width: 0.8; stroke-linecap: square"/>
     </g>
     <g id="line2d_58">
      <g>
       <use xlink:href="#m66ab077350" x="385.183611" y="301.9975" style="stroke: #000000; stroke-width: 0.8"/>
      </g>
     </g>
     <g id="text_34">
      <!-- 6 -->
      <g transform="translate(382.002361 316.595937)scale(0.1 -0.1)">
       <use xlink:href="#DejaVuSans-36"/>
      </g>
     </g>
    </g>
    <g id="xtick_24">
     <g id="line2d_59">
      <path d="M 434.737425 301.9975 
L 434.737425 251.52 
" clip-path="url(#pe42c7bdae2)" style="fill: none; stroke: #b0b0b0; stroke-width: 0.8; stroke-linecap: square"/>
     </g>
     <g id="line2d_60">
      <g>
       <use xlink:href="#m66ab077350" x="434.737425" y="301.9975" style="stroke: #000000; stroke-width: 0.8"/>
      </g>
     </g>
     <g id="text_35">
      <!-- 7 -->
      <g transform="translate(431.556175 316.595937)scale(0.1 -0.1)">
       <use xlink:href="#DejaVuSans-37"/>
      </g>
     </g>
    </g>
    <g id="text_36">
     <!-- $t$ [s] -->
     <g transform="translate(250.208 330.274063)scale(0.1 -0.1)">
      <use xlink:href="#DejaVuSans-Oblique-74" transform="translate(0 0.015625)"/>
      <use xlink:href="#DejaVuSans-20" transform="translate(39.208984 0.015625)"/>
      <use xlink:href="#DejaVuSans-5b" transform="translate(70.996094 0.015625)"/>
      <use xlink:href="#DejaVuSans-73" transform="translate(110.009766 0.015625)"/>
      <use xlink:href="#DejaVuSans-5d" transform="translate(162.109375 0.015625)"/>
     </g>
    </g>
   </g>
   <g id="matplotlib.axis_6">
    <g id="ytick_6">
     <g id="line2d_61">
      <path d="M 70.616 293.955592 
L 450 293.955592 
" clip-path="url(#pe42c7bdae2)" style="fill: none; stroke: #b0b0b0; stroke-width: 0.8; stroke-linecap: square"/>
     </g>
     <g id="line2d_62">
      <g>
       <use xlink:href="#mc3012bfc72" x="70.616" y="293.955592" style="stroke: #000000; stroke-width: 0.8"/>
      </g>
     </g>
     <g id="text_37">
      <!-- −2.5 -->
      <g transform="translate(39.333187 297.75481)scale(0.1 -0.1)">
       <use xlink:href="#DejaVuSans-2212"/>
       <use xlink:href="#DejaVuSans-32" x="83.789062"/>
       <use xlink:href="#DejaVuSans-2e" x="147.412109"/>
       <use xlink:href="#DejaVuSans-35" x="179.199219"/>
      </g>
     </g>
    </g>
    <g id="ytick_7">
     <g id="line2d_63">
      <path d="M 70.616 276.395279 
L 450 276.395279 
" clip-path="url(#pe42c7bdae2)" style="fill: none; stroke: #b0b0b0; stroke-width: 0.8; stroke-linecap: square"/>
     </g>
     <g id="line2d_64">
      <g>
       <use xlink:href="#mc3012bfc72" x="70.616" y="276.395279" style="stroke: #000000; stroke-width: 0.8"/>
      </g>
     </g>
     <g id="text_38">
      <!-- 0.0 -->
      <g transform="translate(47.712875 280.194497)scale(0.1 -0.1)">
       <use xlink:href="#DejaVuSans-30"/>
       <use xlink:href="#DejaVuSans-2e" x="63.623047"/>
       <use xlink:href="#DejaVuSans-30" x="95.410156"/>
      </g>
     </g>
    </g>
    <g id="ytick_8">
     <g id="line2d_65">
      <path d="M 70.616 258.834966 
L 450 258.834966 
" clip-path="url(#pe42c7bdae2)" style="fill: none; stroke: #b0b0b0; stroke-width: 0.8; stroke-linecap: square"/>
     </g>
     <g id="line2d_66">
      <g>
       <use xlink:href="#mc3012bfc72" x="70.616" y="258.834966" style="stroke: #000000; stroke-width: 0.8"/>
      </g>
     </g>
     <g id="text_39">
      <!-- 2.5 -->
      <g transform="translate(47.712875 262.634185)scale(0.1 -0.1)">
       <use xlink:href="#DejaVuSans-32"/>
       <use xlink:href="#DejaVuSans-2e" x="63.623047"/>
       <use xlink:href="#DejaVuSans-35" x="95.410156"/>
      </g>
     </g>
    </g>
    <g id="text_40">
     <!-- $e_\theta$ [rad] -->
     <g transform="translate(33.2535 295.90875)rotate(-90)scale(0.1 -0.1)">
      <defs>
       <path id="DejaVuSans-Oblique-3b8" d="M 2913 2219 
L 925 2219 
Q 791 1284 928 888 
Q 1100 400 1566 400 
Q 2034 400 2391 891 
Q 2703 1322 2913 2219 
z
M 3009 2750 
Q 3094 3638 2984 3950 
Q 2813 4444 2353 4444 
Q 1875 4444 1525 3956 
Q 1250 3563 1034 2750 
L 3009 2750 
z
M 2444 4913 
Q 3194 4913 3494 4250 
Q 3794 3591 3566 2422 
Q 3341 1256 2781 594 
Q 2225 -72 1475 -72 
Q 722 -72 425 594 
Q 128 1256 353 2422 
Q 581 3591 1134 4250 
Q 1691 4913 2444 4913 
z
" transform="scale(0.015625)"/>
       <path id="DejaVuSans-61" d="M 2194 1759 
Q 1497 1759 1228 1600 
Q 959 1441 959 1056 
Q 959 750 1161 570 
Q 1363 391 1709 391 
Q 2188 391 2477 730 
Q 2766 1069 2766 1631 
L 2766 1759 
L 2194 1759 
z
M 3341 1997 
L 3341 0 
L 2766 0 
L 2766 531 
Q 2569 213 2275 61 
Q 1981 -91 1556 -91 
Q 1019 -91 701 211 
Q 384 513 384 1019 
Q 384 1609 779 1909 
Q 1175 2209 1959 2209 
L 2766 2209 
L 2766 2266 
Q 2766 2663 2505 2880 
Q 2244 3097 1772 3097 
Q 1472 3097 1187 3025 
Q 903 2953 641 2809 
L 641 3341 
Q 956 3463 1253 3523 
Q 1550 3584 1831 3584 
Q 2591 3584 2966 3190 
Q 3341 2797 3341 1997 
z
" transform="scale(0.015625)"/>
       <path id="DejaVuSans-64" d="M 2906 2969 
L 2906 4863 
L 3481 4863 
L 3481 0 
L 2906 0 
L 2906 525 
Q 2725 213 2448 61 
Q 2172 -91 1784 -91 
Q 1150 -91 751 415 
Q 353 922 353 1747 
Q 353 2572 751 3078 
Q 1150 3584 1784 3584 
Q 2172 3584 2448 3432 
Q 2725 3281 2906 2969 
z
M 947 1747 
Q 947 1113 1208 752 
Q 1469 391 1925 391 
Q 2381 391 2643 752 
Q 2906 1113 2906 1747 
Q 2906 2381 2643 2742 
Q 2381 3103 1925 3103 
Q 1469 3103 1208 2742 
Q 947 2381 947 1747 
z
" transform="scale(0.015625)"/>
      </defs>
      <use xlink:href="#DejaVuSans-Oblique-65" transform="translate(0 0.015625)"/>
      <use xlink:href="#DejaVuSans-Oblique-3b8" transform="translate(61.523438 -16.390625)scale(0.7)"/>
      <use xlink:href="#DejaVuSans-20" transform="translate(107.084961 0.015625)"/>
      <use xlink:href="#DejaVuSans-5b" transform="translate(138.87207 0.015625)"/>
      <use xlink:href="#DejaVuSans-72" transform="translate(177.885742 0.015625)"/>
      <use xlink:href="#DejaVuSans-61" transform="translate(218.999023 0.015625)"/>
      <use xlink:href="#DejaVuSans-64" transform="translate(280.27832 0.015625)"/>
      <use xlink:href="#DejaVuSans-5d" transform="translate(343.754883 0.015625)"/>
     </g>
    </g>
   </g>
   <g id="line2d_67">
    <path d="M 87.860727 265.367241 
L 89.845732 265.299277 
L 96.296997 263.962295 
L 96.793248 263.962295 
L 97.289499 263.760375 
L 99.274504 263.529927 
L 100.763257 263.341156 
L 108.703275 262.785748 
L 118.132047 262.581595 
L 125.575814 262.679109 
L 149.89212 263.386191 
L 158.32839 263.317445 
L 164.779655 263.168856 
L 171.727171 262.982048 
L 184.6297 262.845594 
L 195.050974 263.038706 
L 201.998491 263.23227 
L 211.427262 263.523282 
L 213.412267 263.807555 
L 217.382276 264.821711 
L 217.878527 265.076311 
L 219.863532 265.644108 
L 220.856034 265.992832 
L 225.818545 267.027526 
L 227.80355 267.234728 
L 230.284806 267.395798 
L 232.766061 267.350731 
L 234.254815 267.176655 
L 234.751066 266.995667 
L 235.247317 266.505081 
L 235.743568 266.505081 
L 236.239819 264.993815 
L 236.736071 262.421038 
L 237.232322 299.703068 
L 237.728573 293.455786 
L 238.224824 291.771615 
L 239.217326 291.224405 
L 240.70608 290.861699 
L 242.194833 290.597638 
L 255.097363 289.590119 
L 265.518637 289.226181 
L 272.962404 289.196985 
L 280.406171 289.356061 
L 298.271213 289.92511 
L 307.203733 289.944761 
L 316.632505 289.727665 
L 327.053779 289.443519 
L 328.542532 289.307792 
L 330.527537 289.049638 
L 338.467555 287.569047 
L 339.460058 287.305594 
L 340.948811 287.000408 
L 341.445062 286.830307 
L 341.941313 286.830307 
L 342.933816 286.581241 
L 344.422569 286.316213 
L 348.888829 285.78072 
L 350.873834 285.739344 
L 352.858838 285.921931 
L 354.347592 286.661976 
L 354.843843 287.240743 
L 355.340094 288.565635 
L 355.836345 253.814432 
L 356.332596 261.035049 
L 356.828848 261.035049 
L 357.325099 262.054666 
L 358.317601 262.441388 
L 360.798857 262.932985 
L 369.235126 263.612548 
L 379.6564 264.000905 
L 392.062679 264.29026 
L 396.032688 264.552842 
L 405.46146 265.287539 
L 419.852743 266.009953 
L 430.274017 266.090742 
L 432.755273 266.087029 
L 432.755273 266.087029 
" clip-path="url(#pe42c7bdae2)" style="fill: none; stroke: #008000; stroke-width: 1.5; stroke-linecap: square"/>
   </g>
   <g id="patch_13">
    <path d="M 70.616 301.9975 
L 70.616 251.52 
" style="fill: none; stroke: #000000; stroke-width: 0.8; stroke-linejoin: miter; stroke-linecap: square"/>
   </g>
   <g id="patch_14">
    <path d="M 450 301.9975 
L 450 251.52 
" style="fill: none; stroke: #000000; stroke-width: 0.8; stroke-linejoin: miter; stroke-linecap: square"/>
   </g>
   <g id="patch_15">
    <path d="M 70.616 301.9975 
L 450 301.9975 
" style="fill: none; stroke: #000000; stroke-width: 0.8; stroke-linejoin: miter; stroke-linecap: square"/>
   </g>
   <g id="patch_16">
    <path d="M 70.616 251.52 
L 450 251.52 
" style="fill: none; stroke: #000000; stroke-width: 0.8; stroke-linejoin: miter; stroke-linecap: square"/>
   </g>
   <g id="text_41">
    <!-- Error in swing angle -->
    <g transform="translate(200.537688 245.52)scale(0.12 -0.12)">
     <defs>
      <path id="DejaVuSans-77" d="M 269 3500 
L 844 3500 
L 1563 769 
L 2278 3500 
L 2956 3500 
L 3675 769 
L 4391 3500 
L 4966 3500 
L 4050 0 
L 3372 0 
L 2619 2869 
L 1863 0 
L 1184 0 
L 269 3500 
z
" transform="scale(0.015625)"/>
      <path id="DejaVuSans-67" d="M 2906 1791 
Q 2906 2416 2648 2759 
Q 2391 3103 1925 3103 
Q 1463 3103 1205 2759 
Q 947 2416 947 1791 
Q 947 1169 1205 825 
Q 1463 481 1925 481 
Q 2391 481 2648 825 
Q 2906 1169 2906 1791 
z
M 3481 434 
Q 3481 -459 3084 -895 
Q 2688 -1331 1869 -1331 
Q 1566 -1331 1297 -1286 
Q 1028 -1241 775 -1147 
L 775 -588 
Q 1028 -725 1275 -790 
Q 1522 -856 1778 -856 
Q 2344 -856 2625 -561 
Q 2906 -266 2906 331 
L 2906 616 
Q 2728 306 2450 153 
Q 2172 0 1784 0 
Q 1141 0 747 490 
Q 353 981 353 1791 
Q 353 2603 747 3093 
Q 1141 3584 1784 3584 
Q 2172 3584 2450 3431 
Q 2728 3278 2906 2969 
L 2906 3500 
L 3481 3500 
L 3481 434 
z
" transform="scale(0.015625)"/>
      <path id="DejaVuSans-6c" d="M 603 4863 
L 1178 4863 
L 1178 0 
L 603 0 
L 603 4863 
z
" transform="scale(0.015625)"/>
      <path id="DejaVuSans-65" d="M 3597 1894 
L 3597 1613 
L 953 1613 
Q 991 1019 1311 708 
Q 1631 397 2203 397 
Q 2534 397 2845 478 
Q 3156 559 3463 722 
L 3463 178 
Q 3153 47 2828 -22 
Q 2503 -91 2169 -91 
Q 1331 -91 842 396 
Q 353 884 353 1716 
Q 353 2575 817 3079 
Q 1281 3584 2069 3584 
Q 2775 3584 3186 3129 
Q 3597 2675 3597 1894 
z
M 3022 2063 
Q 3016 2534 2758 2815 
Q 2500 3097 2075 3097 
Q 1594 3097 1305 2825 
Q 1016 2553 972 2059 
L 3022 2063 
z
" transform="scale(0.015625)"/>
     </defs>
     <use xlink:href="#DejaVuSans-45"/>
     <use xlink:href="#DejaVuSans-72" x="63.183594"/>
     <use xlink:href="#DejaVuSans-72" x="102.546875"/>
     <use xlink:href="#DejaVuSans-6f" x="141.410156"/>
     <use xlink:href="#DejaVuSans-72" x="202.591797"/>
     <use xlink:href="#DejaVuSans-20" x="243.705078"/>
     <use xlink:href="#DejaVuSans-69" x="275.492188"/>
     <use xlink:href="#DejaVuSans-6e" x="303.275391"/>
     <use xlink:href="#DejaVuSans-20" x="366.654297"/>
     <use xlink:href="#DejaVuSans-73" x="398.441406"/>
     <use xlink:href="#DejaVuSans-77" x="450.541016"/>
     <use xlink:href="#DejaVuSans-69" x="532.328125"/>
     <use xlink:href="#DejaVuSans-6e" x="560.111328"/>
     <use xlink:href="#DejaVuSans-67" x="623.490234"/>
     <use xlink:href="#DejaVuSans-20" x="686.966797"/>
     <use xlink:href="#DejaVuSans-61" x="718.753906"/>
     <use xlink:href="#DejaVuSans-6e" x="780.033203"/>
     <use xlink:href="#DejaVuSans-67" x="843.412109"/>
     <use xlink:href="#DejaVuSans-6c" x="906.888672"/>
     <use xlink:href="#DejaVuSans-65" x="934.671875"/>
    </g>
   </g>
  </g>
 </g>
 <defs>
  <clipPath id="p9f05cf7831">
   <rect x="70.616" y="28.32" width="379.384" height="50.4775"/>
  </clipPath>
  <clipPath id="pd164d6519d">
   <rect x="70.616" y="139.92" width="379.384" height="50.4775"/>
  </clipPath>
  <clipPath id="pe42c7bdae2">
   <rect x="70.616" y="251.52" width="379.384" height="50.4775"/>
  </clipPath>
 </defs>
</svg>
