<?xml version="1.0" encoding="utf-8" standalone="no"?>
<!DOCTYPE svg PUBLIC "-//W3C//DTD SVG 1.1//EN"
  "http://www.w3.org/Graphics/SVG/1.1/DTD/svg11.dtd">
<svg xmlns:xlink="http://www.w3.org/1999/xlink" width="460.8pt" height="345.6pt" viewBox="0 0 460.8 345.6" xmlns="http://www.w3.org/2000/svg" version="1.1">
 <metadata>
  <rdf:RDF xmlns:dc="http://purl.org/dc/elements/1.1/" xmlns:cc="http://creativecommons.org/ns#" xmlns:rdf="http://www.w3.org/1999/02/22-rdf-syntax-ns#">
   <cc:Work>
    <dc:type rdf:resource="http://purl.org/dc/dcmitype/StillImage"/>
    <dc:date>2022-06-05T14:32:26.208350</dc:date>
    <dc:format>image/svg+xml</dc:format>
    <dc:creator>
     <cc:Agent>
      <dc:title>Matplotlib v3.5.1, https://matplotlib.org/</dc:title>
     </cc:Agent>
    </dc:creator>
   </cc:Work>
  </rdf:RDF>
 </metadata>
 <defs>
  <style type="text/css">*{stroke-linejoin: round; stroke-linecap: butt}</style>
 </defs>
 <g id="figure_1">
  <g id="patch_1">
   <path d="M 0 345.6 
L 460.8 345.6 
L 460.8 0 
L 0 0 
z
" style="fill: #ffffff"/>
  </g>
  <g id="axes_1">
   <g id="patch_2">
    <path d="M 58.106 78.7975 
L 450 78.7975 
L 450 28.32 
L 58.106 28.32 
z
" style="fill: #ffffff"/>
   </g>
   <g id="matplotlib.axis_1">
    <g id="xtick_1">
     <g id="line2d_1">
      <path d="M 75.919364 78.7975 
L 75.919364 28.32 
" clip-path="url(#p11755cb901)" style="fill: none; stroke: #b0b0b0; stroke-width: 0.8; stroke-linecap: square"/>
     </g>
     <g id="line2d_2">
      <defs>
       <path id="m00ad63eae0" d="M 0 0 
L 0 3.5 
" style="stroke: #000000; stroke-width: 0.8"/>
      </defs>
      <g>
       <use xlink:href="#m00ad63eae0" x="75.919364" y="78.7975" style="stroke: #000000; stroke-width: 0.8"/>
      </g>
     </g>
     <g id="text_1">
      <!-- 0 -->
      <g transform="translate(72.738114 93.395937)scale(0.1 -0.1)">
       <defs>
        <path id="DejaVuSans-30" d="M 2034 4250 
Q 1547 4250 1301 3770 
Q 1056 3291 1056 2328 
Q 1056 1369 1301 889 
Q 1547 409 2034 409 
Q 2525 409 2770 889 
Q 3016 1369 3016 2328 
Q 3016 3291 2770 3770 
Q 2525 4250 2034 4250 
z
M 2034 4750 
Q 2819 4750 3233 4129 
Q 3647 3509 3647 2328 
Q 3647 1150 3233 529 
Q 2819 -91 2034 -91 
Q 1250 -91 836 529 
Q 422 1150 422 2328 
Q 422 3509 836 4129 
Q 1250 4750 2034 4750 
z
" transform="scale(0.015625)"/>
       </defs>
       <use xlink:href="#DejaVuSans-30"/>
      </g>
     </g>
    </g>
    <g id="xtick_2">
     <g id="line2d_3">
      <path d="M 135.050861 78.7975 
L 135.050861 28.32 
" clip-path="url(#p11755cb901)" style="fill: none; stroke: #b0b0b0; stroke-width: 0.8; stroke-linecap: square"/>
     </g>
     <g id="line2d_4">
      <g>
       <use xlink:href="#m00ad63eae0" x="135.050861" y="78.7975" style="stroke: #000000; stroke-width: 0.8"/>
      </g>
     </g>
     <g id="text_2">
      <!-- 2 -->
      <g transform="translate(131.869611 93.395937)scale(0.1 -0.1)">
       <defs>
        <path id="DejaVuSans-32" d="M 1228 531 
L 3431 531 
L 3431 0 
L 469 0 
L 469 531 
Q 828 903 1448 1529 
Q 2069 2156 2228 2338 
Q 2531 2678 2651 2914 
Q 2772 3150 2772 3378 
Q 2772 3750 2511 3984 
Q 2250 4219 1831 4219 
Q 1534 4219 1204 4116 
Q 875 4013 500 3803 
L 500 4441 
Q 881 4594 1212 4672 
Q 1544 4750 1819 4750 
Q 2544 4750 2975 4387 
Q 3406 4025 3406 3419 
Q 3406 3131 3298 2873 
Q 3191 2616 2906 2266 
Q 2828 2175 2409 1742 
Q 1991 1309 1228 531 
z
" transform="scale(0.015625)"/>
       </defs>
       <use xlink:href="#DejaVuSans-32"/>
      </g>
     </g>
    </g>
    <g id="xtick_3">
     <g id="line2d_5">
      <path d="M 194.182359 78.7975 
L 194.182359 28.32 
" clip-path="url(#p11755cb901)" style="fill: none; stroke: #b0b0b0; stroke-width: 0.8; stroke-linecap: square"/>
     </g>
     <g id="line2d_6">
      <g>
       <use xlink:href="#m00ad63eae0" x="194.182359" y="78.7975" style="stroke: #000000; stroke-width: 0.8"/>
      </g>
     </g>
     <g id="text_3">
      <!-- 4 -->
      <g transform="translate(191.001109 93.395937)scale(0.1 -0.1)">
       <defs>
        <path id="DejaVuSans-34" d="M 2419 4116 
L 825 1625 
L 2419 1625 
L 2419 4116 
z
M 2253 4666 
L 3047 4666 
L 3047 1625 
L 3713 1625 
L 3713 1100 
L 3047 1100 
L 3047 0 
L 2419 0 
L 2419 1100 
L 313 1100 
L 313 1709 
L 2253 4666 
z
" transform="scale(0.015625)"/>
       </defs>
       <use xlink:href="#DejaVuSans-34"/>
      </g>
     </g>
    </g>
    <g id="xtick_4">
     <g id="line2d_7">
      <path d="M 253.313856 78.7975 
L 253.313856 28.32 
" clip-path="url(#p11755cb901)" style="fill: none; stroke: #b0b0b0; stroke-width: 0.8; stroke-linecap: square"/>
     </g>
     <g id="line2d_8">
      <g>
       <use xlink:href="#m00ad63eae0" x="253.313856" y="78.7975" style="stroke: #000000; stroke-width: 0.8"/>
      </g>
     </g>
     <g id="text_4">
      <!-- 6 -->
      <g transform="translate(250.132606 93.395937)scale(0.1 -0.1)">
       <defs>
        <path id="DejaVuSans-36" d="M 2113 2584 
Q 1688 2584 1439 2293 
Q 1191 2003 1191 1497 
Q 1191 994 1439 701 
Q 1688 409 2113 409 
Q 2538 409 2786 701 
Q 3034 994 3034 1497 
Q 3034 2003 2786 2293 
Q 2538 2584 2113 2584 
z
M 3366 4563 
L 3366 3988 
Q 3128 4100 2886 4159 
Q 2644 4219 2406 4219 
Q 1781 4219 1451 3797 
Q 1122 3375 1075 2522 
Q 1259 2794 1537 2939 
Q 1816 3084 2150 3084 
Q 2853 3084 3261 2657 
Q 3669 2231 3669 1497 
Q 3669 778 3244 343 
Q 2819 -91 2113 -91 
Q 1303 -91 875 529 
Q 447 1150 447 2328 
Q 447 3434 972 4092 
Q 1497 4750 2381 4750 
Q 2619 4750 2861 4703 
Q 3103 4656 3366 4563 
z
" transform="scale(0.015625)"/>
       </defs>
       <use xlink:href="#DejaVuSans-36"/>
      </g>
     </g>
    </g>
    <g id="xtick_5">
     <g id="line2d_9">
      <path d="M 312.445354 78.7975 
L 312.445354 28.32 
" clip-path="url(#p11755cb901)" style="fill: none; stroke: #b0b0b0; stroke-width: 0.8; stroke-linecap: square"/>
     </g>
     <g id="line2d_10">
      <g>
       <use xlink:href="#m00ad63eae0" x="312.445354" y="78.7975" style="stroke: #000000; stroke-width: 0.8"/>
      </g>
     </g>
     <g id="text_5">
      <!-- 8 -->
      <g transform="translate(309.264104 93.395937)scale(0.1 -0.1)">
       <defs>
        <path id="DejaVuSans-38" d="M 2034 2216 
Q 1584 2216 1326 1975 
Q 1069 1734 1069 1313 
Q 1069 891 1326 650 
Q 1584 409 2034 409 
Q 2484 409 2743 651 
Q 3003 894 3003 1313 
Q 3003 1734 2745 1975 
Q 2488 2216 2034 2216 
z
M 1403 2484 
Q 997 2584 770 2862 
Q 544 3141 544 3541 
Q 544 4100 942 4425 
Q 1341 4750 2034 4750 
Q 2731 4750 3128 4425 
Q 3525 4100 3525 3541 
Q 3525 3141 3298 2862 
Q 3072 2584 2669 2484 
Q 3125 2378 3379 2068 
Q 3634 1759 3634 1313 
Q 3634 634 3220 271 
Q 2806 -91 2034 -91 
Q 1263 -91 848 271 
Q 434 634 434 1313 
Q 434 1759 690 2068 
Q 947 2378 1403 2484 
z
M 1172 3481 
Q 1172 3119 1398 2916 
Q 1625 2713 2034 2713 
Q 2441 2713 2670 2916 
Q 2900 3119 2900 3481 
Q 2900 3844 2670 4047 
Q 2441 4250 2034 4250 
Q 1625 4250 1398 4047 
Q 1172 3844 1172 3481 
z
" transform="scale(0.015625)"/>
       </defs>
       <use xlink:href="#DejaVuSans-38"/>
      </g>
     </g>
    </g>
    <g id="xtick_6">
     <g id="line2d_11">
      <path d="M 371.576851 78.7975 
L 371.576851 28.32 
" clip-path="url(#p11755cb901)" style="fill: none; stroke: #b0b0b0; stroke-width: 0.8; stroke-linecap: square"/>
     </g>
     <g id="line2d_12">
      <g>
       <use xlink:href="#m00ad63eae0" x="371.576851" y="78.7975" style="stroke: #000000; stroke-width: 0.8"/>
      </g>
     </g>
     <g id="text_6">
      <!-- 10 -->
      <g transform="translate(365.214351 93.395937)scale(0.1 -0.1)">
       <defs>
        <path id="DejaVuSans-31" d="M 794 531 
L 1825 531 
L 1825 4091 
L 703 3866 
L 703 4441 
L 1819 4666 
L 2450 4666 
L 2450 531 
L 3481 531 
L 3481 0 
L 794 0 
L 794 531 
z
" transform="scale(0.015625)"/>
       </defs>
       <use xlink:href="#DejaVuSans-31"/>
       <use xlink:href="#DejaVuSans-30" x="63.623047"/>
      </g>
     </g>
    </g>
    <g id="xtick_7">
     <g id="line2d_13">
      <path d="M 430.708349 78.7975 
L 430.708349 28.32 
" clip-path="url(#p11755cb901)" style="fill: none; stroke: #b0b0b0; stroke-width: 0.8; stroke-linecap: square"/>
     </g>
     <g id="line2d_14">
      <g>
       <use xlink:href="#m00ad63eae0" x="430.708349" y="78.7975" style="stroke: #000000; stroke-width: 0.8"/>
      </g>
     </g>
     <g id="text_7">
      <!-- 12 -->
      <g transform="translate(424.345849 93.395937)scale(0.1 -0.1)">
       <use xlink:href="#DejaVuSans-31"/>
       <use xlink:href="#DejaVuSans-32" x="63.623047"/>
      </g>
     </g>
    </g>
    <g id="text_8">
     <!-- $t$ [s] -->
     <g transform="translate(243.953 107.074062)scale(0.1 -0.1)">
      <defs>
       <path id="DejaVuSans-Oblique-74" d="M 2706 3500 
L 2619 3053 
L 1472 3053 
L 1100 1153 
Q 1081 1047 1072 975 
Q 1063 903 1063 863 
Q 1063 663 1183 572 
Q 1303 481 1569 481 
L 2150 481 
L 2053 0 
L 1503 0 
Q 991 0 739 200 
Q 488 400 488 806 
Q 488 878 497 964 
Q 506 1050 525 1153 
L 897 3053 
L 409 3053 
L 500 3500 
L 978 3500 
L 1172 4494 
L 1747 4494 
L 1556 3500 
L 2706 3500 
z
" transform="scale(0.015625)"/>
       <path id="DejaVuSans-20" transform="scale(0.015625)"/>
       <path id="DejaVuSans-5b" d="M 550 4863 
L 1875 4863 
L 1875 4416 
L 1125 4416 
L 1125 -397 
L 1875 -397 
L 1875 -844 
L 550 -844 
L 550 4863 
z
" transform="scale(0.015625)"/>
       <path id="DejaVuSans-73" d="M 2834 3397 
L 2834 2853 
Q 2591 2978 2328 3040 
Q 2066 3103 1784 3103 
Q 1356 3103 1142 2972 
Q 928 2841 928 2578 
Q 928 2378 1081 2264 
Q 1234 2150 1697 2047 
L 1894 2003 
Q 2506 1872 2764 1633 
Q 3022 1394 3022 966 
Q 3022 478 2636 193 
Q 2250 -91 1575 -91 
Q 1294 -91 989 -36 
Q 684 19 347 128 
L 347 722 
Q 666 556 975 473 
Q 1284 391 1588 391 
Q 1994 391 2212 530 
Q 2431 669 2431 922 
Q 2431 1156 2273 1281 
Q 2116 1406 1581 1522 
L 1381 1569 
Q 847 1681 609 1914 
Q 372 2147 372 2553 
Q 372 3047 722 3315 
Q 1072 3584 1716 3584 
Q 2034 3584 2315 3537 
Q 2597 3491 2834 3397 
z
" transform="scale(0.015625)"/>
       <path id="DejaVuSans-5d" d="M 1947 4863 
L 1947 -844 
L 622 -844 
L 622 -397 
L 1369 -397 
L 1369 4416 
L 622 4416 
L 622 4863 
L 1947 4863 
z
" transform="scale(0.015625)"/>
      </defs>
      <use xlink:href="#DejaVuSans-Oblique-74" transform="translate(0 0.015625)"/>
      <use xlink:href="#DejaVuSans-20" transform="translate(39.208984 0.015625)"/>
      <use xlink:href="#DejaVuSans-5b" transform="translate(70.996094 0.015625)"/>
      <use xlink:href="#DejaVuSans-73" transform="translate(110.009766 0.015625)"/>
      <use xlink:href="#DejaVuSans-5d" transform="translate(162.109375 0.015625)"/>
     </g>
    </g>
   </g>
   <g id="matplotlib.axis_2">
    <g id="ytick_1">
     <g id="line2d_15">
      <path d="M 58.106 76.488436 
L 450 76.488436 
" clip-path="url(#p11755cb901)" style="fill: none; stroke: #b0b0b0; stroke-width: 0.8; stroke-linecap: square"/>
     </g>
     <g id="line2d_16">
      <defs>
       <path id="m66c10cb54b" d="M 0 0 
L -3.5 0 
" style="stroke: #000000; stroke-width: 0.8"/>
      </defs>
      <g>
       <use xlink:href="#m66c10cb54b" x="58.106" y="76.488436" style="stroke: #000000; stroke-width: 0.8"/>
      </g>
     </g>
     <g id="text_9">
      <!-- 0 -->
      <g transform="translate(44.7435 80.287655)scale(0.1 -0.1)">
       <use xlink:href="#DejaVuSans-30"/>
      </g>
     </g>
    </g>
    <g id="ytick_2">
     <g id="line2d_17">
      <path d="M 58.106 30.614432 
L 450 30.614432 
" clip-path="url(#p11755cb901)" style="fill: none; stroke: #b0b0b0; stroke-width: 0.8; stroke-linecap: square"/>
     </g>
     <g id="line2d_18">
      <g>
       <use xlink:href="#m66c10cb54b" x="58.106" y="30.614432" style="stroke: #000000; stroke-width: 0.8"/>
      </g>
     </g>
     <g id="text_10">
      <!-- 10 -->
      <g transform="translate(38.381 34.413651)scale(0.1 -0.1)">
       <use xlink:href="#DejaVuSans-31"/>
       <use xlink:href="#DejaVuSans-30" x="63.623047"/>
      </g>
     </g>
    </g>
    <g id="text_11">
     <!-- $e_x$ [m] -->
     <g transform="translate(32.301313 69.20875)rotate(-90)scale(0.1 -0.1)">
      <defs>
       <path id="DejaVuSans-Oblique-65" d="M 3078 2063 
Q 3088 2113 3092 2166 
Q 3097 2219 3097 2272 
Q 3097 2653 2873 2875 
Q 2650 3097 2266 3097 
Q 1838 3097 1509 2826 
Q 1181 2556 1013 2059 
L 3078 2063 
z
M 3578 1613 
L 903 1613 
Q 884 1494 878 1425 
Q 872 1356 872 1306 
Q 872 872 1139 634 
Q 1406 397 1894 397 
Q 2269 397 2603 481 
Q 2938 566 3225 728 
L 3116 159 
Q 2806 34 2476 -28 
Q 2147 -91 1806 -91 
Q 1078 -91 686 257 
Q 294 606 294 1247 
Q 294 1794 489 2264 
Q 684 2734 1063 3103 
Q 1306 3334 1642 3459 
Q 1978 3584 2356 3584 
Q 2950 3584 3301 3228 
Q 3653 2872 3653 2272 
Q 3653 2128 3634 1964 
Q 3616 1800 3578 1613 
z
" transform="scale(0.015625)"/>
       <path id="DejaVuSans-Oblique-78" d="M 3841 3500 
L 2234 1784 
L 3219 0 
L 2559 0 
L 1819 1388 
L 531 0 
L -166 0 
L 1556 1844 
L 641 3500 
L 1300 3500 
L 1972 2234 
L 3144 3500 
L 3841 3500 
z
" transform="scale(0.015625)"/>
       <path id="DejaVuSans-6d" d="M 3328 2828 
Q 3544 3216 3844 3400 
Q 4144 3584 4550 3584 
Q 5097 3584 5394 3201 
Q 5691 2819 5691 2113 
L 5691 0 
L 5113 0 
L 5113 2094 
Q 5113 2597 4934 2840 
Q 4756 3084 4391 3084 
Q 3944 3084 3684 2787 
Q 3425 2491 3425 1978 
L 3425 0 
L 2847 0 
L 2847 2094 
Q 2847 2600 2669 2842 
Q 2491 3084 2119 3084 
Q 1678 3084 1418 2786 
Q 1159 2488 1159 1978 
L 1159 0 
L 581 0 
L 581 3500 
L 1159 3500 
L 1159 2956 
Q 1356 3278 1631 3431 
Q 1906 3584 2284 3584 
Q 2666 3584 2933 3390 
Q 3200 3197 3328 2828 
z
" transform="scale(0.015625)"/>
      </defs>
      <use xlink:href="#DejaVuSans-Oblique-65" transform="translate(0 0.015625)"/>
      <use xlink:href="#DejaVuSans-Oblique-78" transform="translate(61.523438 -16.390625)scale(0.7)"/>
      <use xlink:href="#DejaVuSans-20" transform="translate(105.683594 0.015625)"/>
      <use xlink:href="#DejaVuSans-5b" transform="translate(137.470703 0.015625)"/>
      <use xlink:href="#DejaVuSans-6d" transform="translate(176.484375 0.015625)"/>
      <use xlink:href="#DejaVuSans-5d" transform="translate(273.896484 0.015625)"/>
     </g>
    </g>
   </g>
   <g id="line2d_19">
    <path d="M 75.919364 30.614432 
L 82.725134 30.725252 
L 92.785838 31.070295 
L 96.336674 31.265918 
L 102.254735 31.914512 
L 105.213766 32.317654 
L 105.805572 32.414225 
L 107.285087 32.592108 
L 122.08024 35.149496 
L 125.926979 36.081119 
L 126.222882 36.081119 
L 127.110591 36.306386 
L 128.88601 36.735344 
L 131.253234 37.384122 
L 131.549137 37.384122 
L 132.732749 37.75044 
L 133.324555 37.843323 
L 133.620458 37.967889 
L 133.916362 37.967889 
L 134.212265 38.15614 
L 135.099974 38.314144 
L 135.987683 38.600541 
L 137.171295 38.920512 
L 137.467198 38.920512 
L 137.763101 39.112757 
L 138.65081 39.272874 
L 138.946713 39.400813 
L 139.242616 39.400813 
L 139.538519 39.592284 
L 140.426229 39.751259 
L 141.313938 40.035484 
L 143.385259 40.594157 
L 143.977065 40.685831 
L 144.864774 40.958145 
L 147.231999 41.575842 
L 147.527902 41.575842 
L 148.415611 41.860291 
L 149.30332 42.000243 
L 150.191029 42.276546 
L 151.078738 42.413442 
L 152.262351 42.740356 
L 153.15006 42.9306 
L 155.517284 43.473729 
L 157.588606 43.960975 
L 158.476315 44.149305 
L 161.139442 44.733556 
L 162.027151 44.941606 
L 162.323054 44.941606 
L 162.618957 45.09572 
L 163.80257 45.273507 
L 166.7616 45.921324 
L 168.832921 46.336967 
L 170.016534 46.625053 
L 172.087855 47.052239 
L 172.679661 47.147434 
L 175.046886 47.625507 
L 177.41411 48.113792 
L 178.005916 48.20384 
L 180.669043 48.716734 
L 182.740365 49.120267 
L 183.332171 49.20904 
L 185.995298 49.688064 
L 186.883008 49.862189 
L 189.250232 50.30365 
L 191.913359 50.80429 
L 194.576487 51.284933 
L 196.943711 51.710071 
L 199.606839 52.209788 
L 202.269966 52.733617 
L 202.861772 52.823344 
L 205.5249 53.313362 
L 206.412609 53.486128 
L 209.667542 54.041605 
L 211.147058 54.372117 
L 211.738864 54.46061 
L 214.697894 54.977706 
L 215.585603 55.144457 
L 218.248731 55.606852 
L 219.13644 55.778203 
L 222.095471 56.282439 
L 222.98318 56.44328 
L 225.646307 56.862781 
L 226.238113 57.006489 
L 229.197144 57.484524 
L 229.78895 57.626452 
L 233.043883 58.162771 
L 236.890623 58.863729 
L 238.074235 59.043862 
L 240.44146 59.437827 
L 241.329169 59.598804 
L 243.992296 60.049308 
L 244.880005 60.209824 
L 249.022648 60.8746 
L 252.573485 61.511709 
L 253.757097 61.682909 
L 256.716127 62.13771 
L 259.379255 62.568784 
L 260.266964 62.721944 
L 263.521898 63.230412 
L 267.960443 63.964308 
L 268.848153 64.074987 
L 271.51128 64.494457 
L 272.398989 64.598064 
L 276.837535 65.308361 
L 277.725244 65.414855 
L 281.867887 66.010754 
L 285.714626 66.582535 
L 286.602336 66.684715 
L 290.744978 67.223491 
L 291.632687 67.366551 
L 296.071233 67.957882 
L 299.917973 68.489717 
L 300.805682 68.583762 
L 303.764712 68.955709 
L 304.356519 69.066442 
L 309.38687 69.694373 
L 313.529513 70.278764 
L 314.417222 70.367479 
L 318.559865 70.876478 
L 321.814799 71.323969 
L 324.773829 71.698269 
L 328.620569 72.141617 
L 329.212375 72.252764 
L 333.946824 72.867749 
L 338.385369 73.403909 
L 343.415721 74.010323 
L 344.895236 74.162016 
L 350.813297 74.816216 
L 365.60845 75.915272 
L 368.271577 76.022638 
L 375.669154 76.264674 
L 384.842148 76.291127 
L 394.311046 76.149078 
L 405.259459 75.909573 
L 422.717739 76.001954 
L 425.380866 76.151009 
L 432.186636 76.503068 
L 432.186636 76.503068 
" clip-path="url(#p11755cb901)" style="fill: none; stroke: #ff0000; stroke-width: 1.5; stroke-linecap: square"/>
   </g>
   <g id="patch_3">
    <path d="M 58.106 78.7975 
L 58.106 28.32 
" style="fill: none; stroke: #000000; stroke-width: 0.8; stroke-linejoin: miter; stroke-linecap: square"/>
   </g>
   <g id="patch_4">
    <path d="M 450 78.7975 
L 450 28.32 
" style="fill: none; stroke: #000000; stroke-width: 0.8; stroke-linejoin: miter; stroke-linecap: square"/>
   </g>
   <g id="patch_5">
    <path d="M 58.106 78.7975 
L 450 78.7975 
" style="fill: none; stroke: #000000; stroke-width: 0.8; stroke-linejoin: miter; stroke-linecap: square"/>
   </g>
   <g id="patch_6">
    <path d="M 58.106 28.32 
L 450 28.32 
" style="fill: none; stroke: #000000; stroke-width: 0.8; stroke-linejoin: miter; stroke-linecap: square"/>
   </g>
   <g id="text_12">
    <!-- Error in $x$-position -->
    <g transform="translate(200.413 22.32)scale(0.12 -0.12)">
     <defs>
      <path id="DejaVuSans-45" d="M 628 4666 
L 3578 4666 
L 3578 4134 
L 1259 4134 
L 1259 2753 
L 3481 2753 
L 3481 2222 
L 1259 2222 
L 1259 531 
L 3634 531 
L 3634 0 
L 628 0 
L 628 4666 
z
" transform="scale(0.015625)"/>
      <path id="DejaVuSans-72" d="M 2631 2963 
Q 2534 3019 2420 3045 
Q 2306 3072 2169 3072 
Q 1681 3072 1420 2755 
Q 1159 2438 1159 1844 
L 1159 0 
L 581 0 
L 581 3500 
L 1159 3500 
L 1159 2956 
Q 1341 3275 1631 3429 
Q 1922 3584 2338 3584 
Q 2397 3584 2469 3576 
Q 2541 3569 2628 3553 
L 2631 2963 
z
" transform="scale(0.015625)"/>
      <path id="DejaVuSans-6f" d="M 1959 3097 
Q 1497 3097 1228 2736 
Q 959 2375 959 1747 
Q 959 1119 1226 758 
Q 1494 397 1959 397 
Q 2419 397 2687 759 
Q 2956 1122 2956 1747 
Q 2956 2369 2687 2733 
Q 2419 3097 1959 3097 
z
M 1959 3584 
Q 2709 3584 3137 3096 
Q 3566 2609 3566 1747 
Q 3566 888 3137 398 
Q 2709 -91 1959 -91 
Q 1206 -91 779 398 
Q 353 888 353 1747 
Q 353 2609 779 3096 
Q 1206 3584 1959 3584 
z
" transform="scale(0.015625)"/>
      <path id="DejaVuSans-69" d="M 603 3500 
L 1178 3500 
L 1178 0 
L 603 0 
L 603 3500 
z
M 603 4863 
L 1178 4863 
L 1178 4134 
L 603 4134 
L 603 4863 
z
" transform="scale(0.015625)"/>
      <path id="DejaVuSans-6e" d="M 3513 2113 
L 3513 0 
L 2938 0 
L 2938 2094 
Q 2938 2591 2744 2837 
Q 2550 3084 2163 3084 
Q 1697 3084 1428 2787 
Q 1159 2491 1159 1978 
L 1159 0 
L 581 0 
L 581 3500 
L 1159 3500 
L 1159 2956 
Q 1366 3272 1645 3428 
Q 1925 3584 2291 3584 
Q 2894 3584 3203 3211 
Q 3513 2838 3513 2113 
z
" transform="scale(0.015625)"/>
      <path id="DejaVuSans-2d" d="M 313 2009 
L 1997 2009 
L 1997 1497 
L 313 1497 
L 313 2009 
z
" transform="scale(0.015625)"/>
      <path id="DejaVuSans-70" d="M 1159 525 
L 1159 -1331 
L 581 -1331 
L 581 3500 
L 1159 3500 
L 1159 2969 
Q 1341 3281 1617 3432 
Q 1894 3584 2278 3584 
Q 2916 3584 3314 3078 
Q 3713 2572 3713 1747 
Q 3713 922 3314 415 
Q 2916 -91 2278 -91 
Q 1894 -91 1617 61 
Q 1341 213 1159 525 
z
M 3116 1747 
Q 3116 2381 2855 2742 
Q 2594 3103 2138 3103 
Q 1681 3103 1420 2742 
Q 1159 2381 1159 1747 
Q 1159 1113 1420 752 
Q 1681 391 2138 391 
Q 2594 391 2855 752 
Q 3116 1113 3116 1747 
z
" transform="scale(0.015625)"/>
      <path id="DejaVuSans-74" d="M 1172 4494 
L 1172 3500 
L 2356 3500 
L 2356 3053 
L 1172 3053 
L 1172 1153 
Q 1172 725 1289 603 
Q 1406 481 1766 481 
L 2356 481 
L 2356 0 
L 1766 0 
Q 1100 0 847 248 
Q 594 497 594 1153 
L 594 3053 
L 172 3053 
L 172 3500 
L 594 3500 
L 594 4494 
L 1172 4494 
z
" transform="scale(0.015625)"/>
     </defs>
     <use xlink:href="#DejaVuSans-45" transform="translate(0 0.015625)"/>
     <use xlink:href="#DejaVuSans-72" transform="translate(63.183594 0.015625)"/>
     <use xlink:href="#DejaVuSans-72" transform="translate(104.296875 0.015625)"/>
     <use xlink:href="#DejaVuSans-6f" transform="translate(145.410156 0.015625)"/>
     <use xlink:href="#DejaVuSans-72" transform="translate(206.591797 0.015625)"/>
     <use xlink:href="#DejaVuSans-20" transform="translate(247.705078 0.015625)"/>
     <use xlink:href="#DejaVuSans-69" transform="translate(279.492188 0.015625)"/>
     <use xlink:href="#DejaVuSans-6e" transform="translate(307.275391 0.015625)"/>
     <use xlink:href="#DejaVuSans-20" transform="translate(370.654297 0.015625)"/>
     <use xlink:href="#DejaVuSans-Oblique-78" transform="translate(402.441406 0.015625)"/>
     <use xlink:href="#DejaVuSans-2d" transform="translate(461.621094 0.015625)"/>
     <use xlink:href="#DejaVuSans-70" transform="translate(497.705078 0.015625)"/>
     <use xlink:href="#DejaVuSans-6f" transform="translate(561.181641 0.015625)"/>
     <use xlink:href="#DejaVuSans-73" transform="translate(622.363281 0.015625)"/>
     <use xlink:href="#DejaVuSans-69" transform="translate(674.462891 0.015625)"/>
     <use xlink:href="#DejaVuSans-74" transform="translate(702.246094 0.015625)"/>
     <use xlink:href="#DejaVuSans-69" transform="translate(741.455078 0.015625)"/>
     <use xlink:href="#DejaVuSans-6f" transform="translate(769.238281 0.015625)"/>
     <use xlink:href="#DejaVuSans-6e" transform="translate(830.419922 0.015625)"/>
    </g>
   </g>
  </g>
  <g id="axes_2">
   <g id="patch_7">
    <path d="M 58.106 190.3975 
L 450 190.3975 
L 450 139.92 
L 58.106 139.92 
z
" style="fill: #ffffff"/>
   </g>
   <g id="matplotlib.axis_3">
    <g id="xtick_8">
     <g id="line2d_20">
      <path d="M 75.919364 190.3975 
L 75.919364 139.92 
" clip-path="url(#pae98af5718)" style="fill: none; stroke: #b0b0b0; stroke-width: 0.8; stroke-linecap: square"/>
     </g>
     <g id="line2d_21">
      <g>
       <use xlink:href="#m00ad63eae0" x="75.919364" y="190.3975" style="stroke: #000000; stroke-width: 0.8"/>
      </g>
     </g>
     <g id="text_13">
      <!-- 0 -->
      <g transform="translate(72.738114 204.995937)scale(0.1 -0.1)">
       <use xlink:href="#DejaVuSans-30"/>
      </g>
     </g>
    </g>
    <g id="xtick_9">
     <g id="line2d_22">
      <path d="M 135.050861 190.3975 
L 135.050861 139.92 
" clip-path="url(#pae98af5718)" style="fill: none; stroke: #b0b0b0; stroke-width: 0.8; stroke-linecap: square"/>
     </g>
     <g id="line2d_23">
      <g>
       <use xlink:href="#m00ad63eae0" x="135.050861" y="190.3975" style="stroke: #000000; stroke-width: 0.8"/>
      </g>
     </g>
     <g id="text_14">
      <!-- 2 -->
      <g transform="translate(131.869611 204.995937)scale(0.1 -0.1)">
       <use xlink:href="#DejaVuSans-32"/>
      </g>
     </g>
    </g>
    <g id="xtick_10">
     <g id="line2d_24">
      <path d="M 194.182359 190.3975 
L 194.182359 139.92 
" clip-path="url(#pae98af5718)" style="fill: none; stroke: #b0b0b0; stroke-width: 0.8; stroke-linecap: square"/>
     </g>
     <g id="line2d_25">
      <g>
       <use xlink:href="#m00ad63eae0" x="194.182359" y="190.3975" style="stroke: #000000; stroke-width: 0.8"/>
      </g>
     </g>
     <g id="text_15">
      <!-- 4 -->
      <g transform="translate(191.001109 204.995937)scale(0.1 -0.1)">
       <use xlink:href="#DejaVuSans-34"/>
      </g>
     </g>
    </g>
    <g id="xtick_11">
     <g id="line2d_26">
      <path d="M 253.313856 190.3975 
L 253.313856 139.92 
" clip-path="url(#pae98af5718)" style="fill: none; stroke: #b0b0b0; stroke-width: 0.8; stroke-linecap: square"/>
     </g>
     <g id="line2d_27">
      <g>
       <use xlink:href="#m00ad63eae0" x="253.313856" y="190.3975" style="stroke: #000000; stroke-width: 0.8"/>
      </g>
     </g>
     <g id="text_16">
      <!-- 6 -->
      <g transform="translate(250.132606 204.995937)scale(0.1 -0.1)">
       <use xlink:href="#DejaVuSans-36"/>
      </g>
     </g>
    </g>
    <g id="xtick_12">
     <g id="line2d_28">
      <path d="M 312.445354 190.3975 
L 312.445354 139.92 
" clip-path="url(#pae98af5718)" style="fill: none; stroke: #b0b0b0; stroke-width: 0.8; stroke-linecap: square"/>
     </g>
     <g id="line2d_29">
      <g>
       <use xlink:href="#m00ad63eae0" x="312.445354" y="190.3975" style="stroke: #000000; stroke-width: 0.8"/>
      </g>
     </g>
     <g id="text_17">
      <!-- 8 -->
      <g transform="translate(309.264104 204.995937)scale(0.1 -0.1)">
       <use xlink:href="#DejaVuSans-38"/>
      </g>
     </g>
    </g>
    <g id="xtick_13">
     <g id="line2d_30">
      <path d="M 371.576851 190.3975 
L 371.576851 139.92 
" clip-path="url(#pae98af5718)" style="fill: none; stroke: #b0b0b0; stroke-width: 0.8; stroke-linecap: square"/>
     </g>
     <g id="line2d_31">
      <g>
       <use xlink:href="#m00ad63eae0" x="371.576851" y="190.3975" style="stroke: #000000; stroke-width: 0.8"/>
      </g>
     </g>
     <g id="text_18">
      <!-- 10 -->
      <g transform="translate(365.214351 204.995937)scale(0.1 -0.1)">
       <use xlink:href="#DejaVuSans-31"/>
       <use xlink:href="#DejaVuSans-30" x="63.623047"/>
      </g>
     </g>
    </g>
    <g id="xtick_14">
     <g id="line2d_32">
      <path d="M 430.708349 190.3975 
L 430.708349 139.92 
" clip-path="url(#pae98af5718)" style="fill: none; stroke: #b0b0b0; stroke-width: 0.8; stroke-linecap: square"/>
     </g>
     <g id="line2d_33">
      <g>
       <use xlink:href="#m00ad63eae0" x="430.708349" y="190.3975" style="stroke: #000000; stroke-width: 0.8"/>
      </g>
     </g>
     <g id="text_19">
      <!-- 12 -->
      <g transform="translate(424.345849 204.995937)scale(0.1 -0.1)">
       <use xlink:href="#DejaVuSans-31"/>
       <use xlink:href="#DejaVuSans-32" x="63.623047"/>
      </g>
     </g>
    </g>
    <g id="text_20">
     <!-- $t$ [s] -->
     <g transform="translate(243.953 218.674062)scale(0.1 -0.1)">
      <use xlink:href="#DejaVuSans-Oblique-74" transform="translate(0 0.015625)"/>
      <use xlink:href="#DejaVuSans-20" transform="translate(39.208984 0.015625)"/>
      <use xlink:href="#DejaVuSans-5b" transform="translate(70.996094 0.015625)"/>
      <use xlink:href="#DejaVuSans-73" transform="translate(110.009766 0.015625)"/>
      <use xlink:href="#DejaVuSans-5d" transform="translate(162.109375 0.015625)"/>
     </g>
    </g>
   </g>
   <g id="matplotlib.axis_4">
    <g id="ytick_3">
     <g id="line2d_34">
      <path d="M 58.106 180.692816 
L 450 180.692816 
" clip-path="url(#pae98af5718)" style="fill: none; stroke: #b0b0b0; stroke-width: 0.8; stroke-linecap: square"/>
     </g>
     <g id="line2d_35">
      <g>
       <use xlink:href="#m66c10cb54b" x="58.106" y="180.692816" style="stroke: #000000; stroke-width: 0.8"/>
      </g>
     </g>
     <g id="text_21">
      <!-- −0.1 -->
      <g transform="translate(26.823188 184.492034)scale(0.1 -0.1)">
       <defs>
        <path id="DejaVuSans-2212" d="M 678 2272 
L 4684 2272 
L 4684 1741 
L 678 1741 
L 678 2272 
z
" transform="scale(0.015625)"/>
        <path id="DejaVuSans-2e" d="M 684 794 
L 1344 794 
L 1344 0 
L 684 0 
L 684 794 
z
" transform="scale(0.015625)"/>
       </defs>
       <use xlink:href="#DejaVuSans-2212"/>
       <use xlink:href="#DejaVuSans-30" x="83.789062"/>
       <use xlink:href="#DejaVuSans-2e" x="147.412109"/>
       <use xlink:href="#DejaVuSans-31" x="179.199219"/>
      </g>
     </g>
    </g>
    <g id="ytick_4">
     <g id="line2d_36">
      <path d="M 58.106 165.996021 
L 450 165.996021 
" clip-path="url(#pae98af5718)" style="fill: none; stroke: #b0b0b0; stroke-width: 0.8; stroke-linecap: square"/>
     </g>
     <g id="line2d_37">
      <g>
       <use xlink:href="#m66c10cb54b" x="58.106" y="165.996021" style="stroke: #000000; stroke-width: 0.8"/>
      </g>
     </g>
     <g id="text_22">
      <!-- 0.0 -->
      <g transform="translate(35.202875 169.795239)scale(0.1 -0.1)">
       <use xlink:href="#DejaVuSans-30"/>
       <use xlink:href="#DejaVuSans-2e" x="63.623047"/>
       <use xlink:href="#DejaVuSans-30" x="95.410156"/>
      </g>
     </g>
    </g>
    <g id="ytick_5">
     <g id="line2d_38">
      <path d="M 58.106 151.299225 
L 450 151.299225 
" clip-path="url(#pae98af5718)" style="fill: none; stroke: #b0b0b0; stroke-width: 0.8; stroke-linecap: square"/>
     </g>
     <g id="line2d_39">
      <g>
       <use xlink:href="#m66c10cb54b" x="58.106" y="151.299225" style="stroke: #000000; stroke-width: 0.8"/>
      </g>
     </g>
     <g id="text_23">
      <!-- 0.1 -->
      <g transform="translate(35.202875 155.098444)scale(0.1 -0.1)">
       <use xlink:href="#DejaVuSans-30"/>
       <use xlink:href="#DejaVuSans-2e" x="63.623047"/>
       <use xlink:href="#DejaVuSans-31" x="95.410156"/>
      </g>
     </g>
    </g>
    <g id="text_24">
     <!-- $e_z$ [m] -->
     <g transform="translate(20.7435 180.60875)rotate(-90)scale(0.1 -0.1)">
      <defs>
       <path id="DejaVuSans-Oblique-7a" d="M 744 3500 
L 3475 3500 
L 3372 2975 
L 738 459 
L 2913 459 
L 2822 0 
L -19 0 
L 84 525 
L 2719 3041 
L 653 3041 
L 744 3500 
z
" transform="scale(0.015625)"/>
      </defs>
      <use xlink:href="#DejaVuSans-Oblique-65" transform="translate(0 0.015625)"/>
      <use xlink:href="#DejaVuSans-Oblique-7a" transform="translate(61.523438 -16.390625)scale(0.7)"/>
      <use xlink:href="#DejaVuSans-20" transform="translate(101.000977 0.015625)"/>
      <use xlink:href="#DejaVuSans-5b" transform="translate(132.788086 0.015625)"/>
      <use xlink:href="#DejaVuSans-6d" transform="translate(171.801758 0.015625)"/>
      <use xlink:href="#DejaVuSans-5d" transform="translate(269.213867 0.015625)"/>
     </g>
    </g>
   </g>
   <g id="line2d_40">
    <path d="M 75.919364 167.378835 
L 76.51117 167.187051 
L 77.398879 166.484149 
L 77.990685 166.272226 
L 79.174297 165.789385 
L 80.062006 165.805117 
L 80.949715 166.007748 
L 81.837425 166.017523 
L 82.725134 165.707852 
L 83.31694 165.253282 
L 83.612843 165.253282 
L 84.204649 164.627602 
L 85.092358 163.540173 
L 85.388261 163.540173 
L 85.684164 163.089906 
L 86.27597 162.594517 
L 86.867777 162.031193 
L 87.16368 162.031193 
L 87.755486 161.381406 
L 88.643195 160.043684 
L 88.939098 160.043684 
L 89.235001 159.293911 
L 89.826807 158.48825 
L 91.010419 156.206121 
L 91.898128 154.975577 
L 92.194031 154.430615 
L 93.377644 153.663786 
L 93.96945 153.475825 
L 96.632577 153.566812 
L 98.407995 153.86149 
L 98.703899 154.068177 
L 99.591608 154.245935 
L 100.183414 154.436667 
L 101.071123 154.591638 
L 101.958832 154.547714 
L 103.142444 154.185522 
L 104.030153 153.341981 
L 104.326056 153.233934 
L 104.917863 152.76451 
L 105.213766 152.254948 
L 105.509669 152.254948 
L 105.805572 151.469669 
L 106.101475 151.340201 
L 106.693281 150.840301 
L 106.989184 150.390585 
L 108.764602 149.29536 
L 109.652311 148.944558 
L 109.948214 148.712279 
L 110.244117 148.712279 
L 110.835924 148.295142 
L 111.723633 147.725328 
L 112.019536 147.392167 
L 114.38676 146.221471 
L 115.570372 145.78773 
L 116.162178 145.467945 
L 117.049888 145.018911 
L 117.641694 144.568197 
L 119.121209 143.682816 
L 119.417112 143.379929 
L 121.488433 142.440347 
L 122.967949 142.214432 
L 123.855658 142.312127 
L 124.151561 142.443917 
L 124.447464 142.443917 
L 127.406494 144.476077 
L 128.590107 145.606186 
L 129.181913 146.048508 
L 129.477816 146.365454 
L 130.957331 147.163284 
L 131.253234 147.474436 
L 131.549137 147.474436 
L 132.140943 148.007853 
L 132.732749 148.643157 
L 133.028652 148.759559 
L 133.324555 149.000646 
L 133.620458 149.511453 
L 133.916362 149.511453 
L 134.212265 150.323602 
L 134.508168 150.460865 
L 135.099974 151.005062 
L 135.395877 151.528636 
L 135.987683 152.132329 
L 136.283586 152.459424 
L 136.875392 152.758557 
L 137.171295 153.116521 
L 137.467198 153.116521 
L 137.763101 153.585735 
L 138.354907 153.803297 
L 138.65081 153.947516 
L 138.946713 154.247793 
L 139.242616 154.247793 
L 139.538519 154.755708 
L 140.130326 155.04048 
L 140.426229 155.241037 
L 140.722132 155.664409 
L 141.313938 156.214418 
L 141.609841 156.540539 
L 142.201647 156.85474 
L 142.49755 157.242772 
L 144.272968 158.256698 
L 146.34429 158.97067 
L 147.823805 159.793203 
L 148.119708 159.793203 
L 148.415611 160.269032 
L 149.007417 160.515389 
L 149.30332 160.680153 
L 149.895126 161.247349 
L 150.191029 161.48234 
L 150.782835 161.713037 
L 151.078738 161.865744 
L 151.670545 162.332243 
L 152.558254 162.942462 
L 152.854157 163.138575 
L 153.445963 163.799827 
L 154.037769 164.587422 
L 154.333672 164.732204 
L 154.629575 165.033075 
L 154.925478 165.678289 
L 155.221381 166.021774 
L 156.10909 167.70257 
L 156.404993 167.70257 
L 156.700896 168.486287 
L 157.292703 169.448044 
L 157.588606 169.99974 
L 157.884509 170.177977 
L 158.180412 170.524916 
L 158.476315 171.177364 
L 159.364024 172.18525 
L 159.659927 172.694021 
L 159.95583 172.694021 
L 160.251733 173.173525 
L 161.139442 173.993268 
L 161.435345 174.47591 
L 161.731248 174.47591 
L 162.027151 174.97022 
L 162.323054 174.97022 
L 162.618957 175.723528 
L 162.91486 175.85074 
L 164.098473 177.010982 
L 164.394376 177.523896 
L 165.873891 178.857016 
L 166.169794 179.287336 
L 167.945212 180.468302 
L 170.016534 180.650529 
L 171.496049 180.736346 
L 172.975564 181.289506 
L 173.863273 181.707287 
L 174.455079 181.817429 
L 175.638692 181.827417 
L 178.301819 181.606574 
L 178.893625 181.738359 
L 179.485431 181.935363 
L 180.964947 182.131697 
L 181.852656 182.039843 
L 183.923977 181.760996 
L 185.107589 181.903893 
L 185.995298 182.141989 
L 186.291201 182.293684 
L 186.587105 182.293684 
L 187.178911 182.480648 
L 188.06662 182.583773 
L 188.954329 182.521242 
L 190.137941 182.422498 
L 191.617456 182.563873 
L 192.801069 182.863157 
L 195.168293 184.205018 
L 196.647808 184.608437 
L 198.127323 184.601341 
L 199.310936 184.570397 
L 199.902742 184.671888 
L 201.382257 185.35155 
L 201.974063 185.748628 
L 202.269966 186.059848 
L 202.565869 186.059848 
L 202.861772 186.337053 
L 204.045384 186.782191 
L 205.228997 186.78725 
L 207.596221 186.503559 
L 208.48393 186.678195 
L 210.555252 187.369232 
L 211.442961 187.510861 
L 212.33067 187.441482 
L 214.401991 186.983669 
L 215.2897 186.978045 
L 216.473313 187.188085 
L 217.656925 187.52198 
L 218.840537 187.597609 
L 220.024149 187.381831 
L 220.615955 187.201547 
L 222.095471 187.088499 
L 223.870889 187.222332 
L 224.462695 187.384282 
L 227.125822 187.753103 
L 228.013532 187.660812 
L 231.268465 187.305869 
L 232.74798 187.581379 
L 235.115205 188.068024 
L 236.002914 187.953728 
L 238.666041 187.585211 
L 240.145557 187.717351 
L 242.216878 188.091993 
L 243.40049 188.03059 
L 246.359521 187.692037 
L 248.430842 187.770459 
L 250.502163 187.62542 
L 251.981679 187.610068 
L 253.757097 187.675844 
L 255.236612 187.413244 
L 255.532515 187.191722 
L 255.828418 187.191722 
L 256.420224 186.939096 
L 258.787449 186.42808 
L 259.675158 186.487105 
L 262.634188 186.778125 
L 262.930092 186.778125 
L 267.072734 185.283929 
L 267.960443 185.229653 
L 269.144056 185.331628 
L 270.327668 185.333231 
L 271.215377 185.185853 
L 271.51128 185.034474 
L 271.807183 185.034474 
L 272.694892 184.562147 
L 273.286698 184.335162 
L 273.582601 184.219798 
L 274.174407 183.854561 
L 274.766214 183.473577 
L 275.35802 183.303745 
L 275.949826 183.068394 
L 276.541632 183.009356 
L 278.021147 183.276965 
L 279.204759 183.56061 
L 280.092468 183.559061 
L 280.684275 183.462664 
L 282.16379 182.691837 
L 282.459693 182.691837 
L 283.051499 182.347889 
L 283.643305 182.043006 
L 284.235111 181.694825 
L 285.418723 181.421527 
L 286.602336 181.596634 
L 287.194142 181.789195 
L 287.785948 182.023184 
L 288.96956 182.195862 
L 289.561366 182.113892 
L 290.744978 181.748268 
L 291.040881 181.444962 
L 291.336784 181.444962 
L 291.92859 181.098983 
L 292.520397 180.884678 
L 292.8163 180.634241 
L 293.112203 180.634241 
L 293.704009 180.410402 
L 294.591718 180.37496 
L 295.183524 180.475942 
L 296.367136 180.819533 
L 296.958942 181.042308 
L 298.142555 181.158988 
L 299.62207 180.783311 
L 299.917973 180.536918 
L 300.213876 180.536918 
L 300.805682 180.270083 
L 303.172906 179.728979 
L 304.356519 179.904014 
L 305.836034 180.312481 
L 306.723743 180.420259 
L 307.611452 180.376565 
L 311.162289 179.668964 
L 312.345901 179.703894 
L 315.896738 179.897984 
L 319.743477 179.74502 
L 323.88612 180.2811 
L 328.028763 180.271463 
L 329.508278 180.589069 
L 330.395987 180.779554 
L 330.69189 180.971356 
L 332.171405 181.229146 
L 333.650921 181.412909 
L 337.49766 181.689988 
L 338.089466 181.800518 
L 341.640303 182.252684 
L 344.895236 182.967774 
L 345.782946 182.989404 
L 348.15017 182.774501 
L 349.333782 183.027403 
L 349.629685 183.22134 
L 349.925588 183.22134 
L 350.221491 183.590506 
L 350.813297 183.800268 
L 351.701007 184.318582 
L 351.99691 184.594542 
L 353.180522 184.971665 
L 353.772328 185.058415 
L 354.95594 184.893791 
L 356.435455 184.430932 
L 357.027262 184.359242 
L 358.210874 184.393726 
L 359.098583 184.496189 
L 359.986292 184.443537 
L 360.578098 184.171849 
L 361.465807 183.735221 
L 362.057613 183.244001 
L 362.353516 182.816958 
L 363.833032 181.697438 
L 364.128935 181.697438 
L 364.720741 181.441217 
L 365.60845 181.308929 
L 366.200256 181.249153 
L 367.679771 180.765558 
L 368.567481 179.951033 
L 369.159287 179.317298 
L 369.45519 179.317298 
L 369.751093 178.925061 
L 370.638802 178.33896 
L 370.934705 178.070836 
L 372.118317 177.729223 
L 373.893735 177.311901 
L 374.485542 177.034856 
L 375.077348 176.580561 
L 376.852766 175.585248 
L 377.740475 175.552783 
L 378.924087 175.897053 
L 379.515893 176.028616 
L 380.699506 175.926305 
L 380.995409 175.578551 
L 381.587215 175.314983 
L 381.883118 175.109635 
L 382.179021 174.645329 
L 382.474924 174.645329 
L 382.770827 173.955618 
L 383.362633 173.671573 
L 384.546245 173.102867 
L 385.433954 173.161012 
L 385.729857 173.316572 
L 386.02576 173.316572 
L 386.321664 173.566268 
L 387.801179 173.657052 
L 388.097082 173.431618 
L 388.688888 173.225909 
L 388.984791 173.055669 
L 389.8725 171.937522 
L 390.464306 171.585498 
L 390.760209 171.356197 
L 391.056112 170.823523 
L 391.352015 170.823523 
L 391.647918 170.485654 
L 392.831531 170.063502 
L 394.902852 170.020506 
L 396.67827 169.303243 
L 396.974173 168.932275 
L 397.861883 168.376958 
L 398.157786 167.995535 
L 398.453689 167.995535 
L 398.749592 167.789841 
L 399.637301 167.699059 
L 401.708622 168.188338 
L 402.596331 168.080825 
L 403.48404 167.730916 
L 405.259459 166.203645 
L 405.555362 166.203645 
L 405.851265 165.96483 
L 406.738974 165.920023 
L 408.514392 166.509384 
L 408.810295 166.640485 
L 409.993908 166.592427 
L 410.585714 166.39398 
L 410.881617 166.173359 
L 411.473423 165.616597 
L 412.361132 164.997649 
L 412.657035 164.701273 
L 413.544744 164.399089 
L 414.432453 164.326547 
L 415.616066 164.488489 
L 416.503775 164.692215 
L 417.391484 164.639351 
L 417.98329 164.322763 
L 419.166902 163.668797 
L 419.758708 163.227568 
L 420.054611 162.959983 
L 420.94232 162.757292 
L 421.534127 162.779785 
L 423.013642 163.348866 
L 424.78906 163.246735 
L 425.380866 162.825503 
L 426.268575 162.308038 
L 427.156285 161.576541 
L 428.043994 161.314508 
L 428.6358 161.357216 
L 429.523509 161.67613 
L 430.115315 162.021887 
L 431.298927 163.192595 
L 432.186636 163.81762 
L 432.186636 163.81762 
" clip-path="url(#pae98af5718)" style="fill: none; stroke: #0000ff; stroke-width: 1.5; stroke-linecap: square"/>
   </g>
   <g id="patch_8">
    <path d="M 58.106 190.3975 
L 58.106 139.92 
" style="fill: none; stroke: #000000; stroke-width: 0.8; stroke-linejoin: miter; stroke-linecap: square"/>
   </g>
   <g id="patch_9">
    <path d="M 450 190.3975 
L 450 139.92 
" style="fill: none; stroke: #000000; stroke-width: 0.8; stroke-linejoin: miter; stroke-linecap: square"/>
   </g>
   <g id="patch_10">
    <path d="M 58.106 190.3975 
L 450 190.3975 
" style="fill: none; stroke: #000000; stroke-width: 0.8; stroke-linejoin: miter; stroke-linecap: square"/>
   </g>
   <g id="patch_11">
    <path d="M 58.106 139.92 
L 450 139.92 
" style="fill: none; stroke: #000000; stroke-width: 0.8; stroke-linejoin: miter; stroke-linecap: square"/>
   </g>
   <g id="text_25">
    <!-- Error in $z$-position -->
    <g transform="translate(200.773 133.92)scale(0.12 -0.12)">
     <use xlink:href="#DejaVuSans-45" transform="translate(0 0.015625)"/>
     <use xlink:href="#DejaVuSans-72" transform="translate(63.183594 0.015625)"/>
     <use xlink:href="#DejaVuSans-72" transform="translate(104.296875 0.015625)"/>
     <use xlink:href="#DejaVuSans-6f" transform="translate(145.410156 0.015625)"/>
     <use xlink:href="#DejaVuSans-72" transform="translate(206.591797 0.015625)"/>
     <use xlink:href="#DejaVuSans-20" transform="translate(247.705078 0.015625)"/>
     <use xlink:href="#DejaVuSans-69" transform="translate(279.492188 0.015625)"/>
     <use xlink:href="#DejaVuSans-6e" transform="translate(307.275391 0.015625)"/>
     <use xlink:href="#DejaVuSans-20" transform="translate(370.654297 0.015625)"/>
     <use xlink:href="#DejaVuSans-Oblique-7a" transform="translate(402.441406 0.015625)"/>
     <use xlink:href="#DejaVuSans-2d" transform="translate(454.931641 0.015625)"/>
     <use xlink:href="#DejaVuSans-70" transform="translate(491.015625 0.015625)"/>
     <use xlink:href="#DejaVuSans-6f" transform="translate(554.492188 0.015625)"/>
     <use xlink:href="#DejaVuSans-73" transform="translate(615.673828 0.015625)"/>
     <use xlink:href="#DejaVuSans-69" transform="translate(667.773438 0.015625)"/>
     <use xlink:href="#DejaVuSans-74" transform="translate(695.556641 0.015625)"/>
     <use xlink:href="#DejaVuSans-69" transform="translate(734.765625 0.015625)"/>
     <use xlink:href="#DejaVuSans-6f" transform="translate(762.548828 0.015625)"/>
     <use xlink:href="#DejaVuSans-6e" transform="translate(823.730469 0.015625)"/>
    </g>
   </g>
  </g>
  <g id="axes_3">
   <g id="patch_12">
    <path d="M 58.106 301.9975 
L 450 301.9975 
L 450 251.52 
L 58.106 251.52 
z
" style="fill: #ffffff"/>
   </g>
   <g id="matplotlib.axis_5">
    <g id="xtick_15">
     <g id="line2d_41">
      <path d="M 75.919364 301.9975 
L 75.919364 251.52 
" clip-path="url(#p6c525cc982)" style="fill: none; stroke: #b0b0b0; stroke-width: 0.8; stroke-linecap: square"/>
     </g>
     <g id="line2d_42">
      <g>
       <use xlink:href="#m00ad63eae0" x="75.919364" y="301.9975" style="stroke: #000000; stroke-width: 0.8"/>
      </g>
     </g>
     <g id="text_26">
      <!-- 0 -->
      <g transform="translate(72.738114 316.595937)scale(0.1 -0.1)">
       <use xlink:href="#DejaVuSans-30"/>
      </g>
     </g>
    </g>
    <g id="xtick_16">
     <g id="line2d_43">
      <path d="M 135.050861 301.9975 
L 135.050861 251.52 
" clip-path="url(#p6c525cc982)" style="fill: none; stroke: #b0b0b0; stroke-width: 0.8; stroke-linecap: square"/>
     </g>
     <g id="line2d_44">
      <g>
       <use xlink:href="#m00ad63eae0" x="135.050861" y="301.9975" style="stroke: #000000; stroke-width: 0.8"/>
      </g>
     </g>
     <g id="text_27">
      <!-- 2 -->
      <g transform="translate(131.869611 316.595937)scale(0.1 -0.1)">
       <use xlink:href="#DejaVuSans-32"/>
      </g>
     </g>
    </g>
    <g id="xtick_17">
     <g id="line2d_45">
      <path d="M 194.182359 301.9975 
L 194.182359 251.52 
" clip-path="url(#p6c525cc982)" style="fill: none; stroke: #b0b0b0; stroke-width: 0.8; stroke-linecap: square"/>
     </g>
     <g id="line2d_46">
      <g>
       <use xlink:href="#m00ad63eae0" x="194.182359" y="301.9975" style="stroke: #000000; stroke-width: 0.8"/>
      </g>
     </g>
     <g id="text_28">
      <!-- 4 -->
      <g transform="translate(191.001109 316.595937)scale(0.1 -0.1)">
       <use xlink:href="#DejaVuSans-34"/>
      </g>
     </g>
    </g>
    <g id="xtick_18">
     <g id="line2d_47">
      <path d="M 253.313856 301.9975 
L 253.313856 251.52 
" clip-path="url(#p6c525cc982)" style="fill: none; stroke: #b0b0b0; stroke-width: 0.8; stroke-linecap: square"/>
     </g>
     <g id="line2d_48">
      <g>
       <use xlink:href="#m00ad63eae0" x="253.313856" y="301.9975" style="stroke: #000000; stroke-width: 0.8"/>
      </g>
     </g>
     <g id="text_29">
      <!-- 6 -->
      <g transform="translate(250.132606 316.595937)scale(0.1 -0.1)">
       <use xlink:href="#DejaVuSans-36"/>
      </g>
     </g>
    </g>
    <g id="xtick_19">
     <g id="line2d_49">
      <path d="M 312.445354 301.9975 
L 312.445354 251.52 
" clip-path="url(#p6c525cc982)" style="fill: none; stroke: #b0b0b0; stroke-width: 0.8; stroke-linecap: square"/>
     </g>
     <g id="line2d_50">
      <g>
       <use xlink:href="#m00ad63eae0" x="312.445354" y="301.9975" style="stroke: #000000; stroke-width: 0.8"/>
      </g>
     </g>
     <g id="text_30">
      <!-- 8 -->
      <g transform="translate(309.264104 316.595937)scale(0.1 -0.1)">
       <use xlink:href="#DejaVuSans-38"/>
      </g>
     </g>
    </g>
    <g id="xtick_20">
     <g id="line2d_51">
      <path d="M 371.576851 301.9975 
L 371.576851 251.52 
" clip-path="url(#p6c525cc982)" style="fill: none; stroke: #b0b0b0; stroke-width: 0.8; stroke-linecap: square"/>
     </g>
     <g id="line2d_52">
      <g>
       <use xlink:href="#m00ad63eae0" x="371.576851" y="301.9975" style="stroke: #000000; stroke-width: 0.8"/>
      </g>
     </g>
     <g id="text_31">
      <!-- 10 -->
      <g transform="translate(365.214351 316.595937)scale(0.1 -0.1)">
       <use xlink:href="#DejaVuSans-31"/>
       <use xlink:href="#DejaVuSans-30" x="63.623047"/>
      </g>
     </g>
    </g>
    <g id="xtick_21">
     <g id="line2d_53">
      <path d="M 430.708349 301.9975 
L 430.708349 251.52 
" clip-path="url(#p6c525cc982)" style="fill: none; stroke: #b0b0b0; stroke-width: 0.8; stroke-linecap: square"/>
     </g>
     <g id="line2d_54">
      <g>
       <use xlink:href="#m00ad63eae0" x="430.708349" y="301.9975" style="stroke: #000000; stroke-width: 0.8"/>
      </g>
     </g>
     <g id="text_32">
      <!-- 12 -->
      <g transform="translate(424.345849 316.595937)scale(0.1 -0.1)">
       <use xlink:href="#DejaVuSans-31"/>
       <use xlink:href="#DejaVuSans-32" x="63.623047"/>
      </g>
     </g>
    </g>
    <g id="text_33">
     <!-- $t$ [s] -->
     <g transform="translate(243.953 330.274063)scale(0.1 -0.1)">
      <use xlink:href="#DejaVuSans-Oblique-74" transform="translate(0 0.015625)"/>
      <use xlink:href="#DejaVuSans-20" transform="translate(39.208984 0.015625)"/>
      <use xlink:href="#DejaVuSans-5b" transform="translate(70.996094 0.015625)"/>
      <use xlink:href="#DejaVuSans-73" transform="translate(110.009766 0.015625)"/>
      <use xlink:href="#DejaVuSans-5d" transform="translate(162.109375 0.015625)"/>
     </g>
    </g>
   </g>
   <g id="matplotlib.axis_6">
    <g id="ytick_6">
     <g id="line2d_55">
      <path d="M 58.106 288.448401 
L 450 288.448401 
" clip-path="url(#p6c525cc982)" style="fill: none; stroke: #b0b0b0; stroke-width: 0.8; stroke-linecap: square"/>
     </g>
     <g id="line2d_56">
      <g>
       <use xlink:href="#m66c10cb54b" x="58.106" y="288.448401" style="stroke: #000000; stroke-width: 0.8"/>
      </g>
     </g>
     <g id="text_34">
      <!-- −0.1 -->
      <g transform="translate(26.823188 292.24762)scale(0.1 -0.1)">
       <use xlink:href="#DejaVuSans-2212"/>
       <use xlink:href="#DejaVuSans-30" x="83.789062"/>
       <use xlink:href="#DejaVuSans-2e" x="147.412109"/>
       <use xlink:href="#DejaVuSans-31" x="179.199219"/>
      </g>
     </g>
    </g>
    <g id="ytick_7">
     <g id="line2d_57">
      <path d="M 58.106 274.159897 
L 450 274.159897 
" clip-path="url(#p6c525cc982)" style="fill: none; stroke: #b0b0b0; stroke-width: 0.8; stroke-linecap: square"/>
     </g>
     <g id="line2d_58">
      <g>
       <use xlink:href="#m66c10cb54b" x="58.106" y="274.159897" style="stroke: #000000; stroke-width: 0.8"/>
      </g>
     </g>
     <g id="text_35">
      <!-- 0.0 -->
      <g transform="translate(35.202875 277.959116)scale(0.1 -0.1)">
       <use xlink:href="#DejaVuSans-30"/>
       <use xlink:href="#DejaVuSans-2e" x="63.623047"/>
       <use xlink:href="#DejaVuSans-30" x="95.410156"/>
      </g>
     </g>
    </g>
    <g id="ytick_8">
     <g id="line2d_59">
      <path d="M 58.106 259.871394 
L 450 259.871394 
" clip-path="url(#p6c525cc982)" style="fill: none; stroke: #b0b0b0; stroke-width: 0.8; stroke-linecap: square"/>
     </g>
     <g id="line2d_60">
      <g>
       <use xlink:href="#m66c10cb54b" x="58.106" y="259.871394" style="stroke: #000000; stroke-width: 0.8"/>
      </g>
     </g>
     <g id="text_36">
      <!-- 0.1 -->
      <g transform="translate(35.202875 263.670613)scale(0.1 -0.1)">
       <use xlink:href="#DejaVuSans-30"/>
       <use xlink:href="#DejaVuSans-2e" x="63.623047"/>
       <use xlink:href="#DejaVuSans-31" x="95.410156"/>
      </g>
     </g>
    </g>
    <g id="text_37">
     <!-- $e_\theta$ [rad] -->
     <g transform="translate(20.7435 295.90875)rotate(-90)scale(0.1 -0.1)">
      <defs>
       <path id="DejaVuSans-Oblique-3b8" d="M 2913 2219 
L 925 2219 
Q 791 1284 928 888 
Q 1100 400 1566 400 
Q 2034 400 2391 891 
Q 2703 1322 2913 2219 
z
M 3009 2750 
Q 3094 3638 2984 3950 
Q 2813 4444 2353 4444 
Q 1875 4444 1525 3956 
Q 1250 3563 1034 2750 
L 3009 2750 
z
M 2444 4913 
Q 3194 4913 3494 4250 
Q 3794 3591 3566 2422 
Q 3341 1256 2781 594 
Q 2225 -72 1475 -72 
Q 722 -72 425 594 
Q 128 1256 353 2422 
Q 581 3591 1134 4250 
Q 1691 4913 2444 4913 
z
" transform="scale(0.015625)"/>
       <path id="DejaVuSans-61" d="M 2194 1759 
Q 1497 1759 1228 1600 
Q 959 1441 959 1056 
Q 959 750 1161 570 
Q 1363 391 1709 391 
Q 2188 391 2477 730 
Q 2766 1069 2766 1631 
L 2766 1759 
L 2194 1759 
z
M 3341 1997 
L 3341 0 
L 2766 0 
L 2766 531 
Q 2569 213 2275 61 
Q 1981 -91 1556 -91 
Q 1019 -91 701 211 
Q 384 513 384 1019 
Q 384 1609 779 1909 
Q 1175 2209 1959 2209 
L 2766 2209 
L 2766 2266 
Q 2766 2663 2505 2880 
Q 2244 3097 1772 3097 
Q 1472 3097 1187 3025 
Q 903 2953 641 2809 
L 641 3341 
Q 956 3463 1253 3523 
Q 1550 3584 1831 3584 
Q 2591 3584 2966 3190 
Q 3341 2797 3341 1997 
z
" transform="scale(0.015625)"/>
       <path id="DejaVuSans-64" d="M 2906 2969 
L 2906 4863 
L 3481 4863 
L 3481 0 
L 2906 0 
L 2906 525 
Q 2725 213 2448 61 
Q 2172 -91 1784 -91 
Q 1150 -91 751 415 
Q 353 922 353 1747 
Q 353 2572 751 3078 
Q 1150 3584 1784 3584 
Q 2172 3584 2448 3432 
Q 2725 3281 2906 2969 
z
M 947 1747 
Q 947 1113 1208 752 
Q 1469 391 1925 391 
Q 2381 391 2643 752 
Q 2906 1113 2906 1747 
Q 2906 2381 2643 2742 
Q 2381 3103 1925 3103 
Q 1469 3103 1208 2742 
Q 947 2381 947 1747 
z
" transform="scale(0.015625)"/>
      </defs>
      <use xlink:href="#DejaVuSans-Oblique-65" transform="translate(0 0.015625)"/>
      <use xlink:href="#DejaVuSans-Oblique-3b8" transform="translate(61.523438 -16.390625)scale(0.7)"/>
      <use xlink:href="#DejaVuSans-20" transform="translate(107.084961 0.015625)"/>
      <use xlink:href="#DejaVuSans-5b" transform="translate(138.87207 0.015625)"/>
      <use xlink:href="#DejaVuSans-72" transform="translate(177.885742 0.015625)"/>
      <use xlink:href="#DejaVuSans-61" transform="translate(218.999023 0.015625)"/>
      <use xlink:href="#DejaVuSans-64" transform="translate(280.27832 0.015625)"/>
      <use xlink:href="#DejaVuSans-5d" transform="translate(343.754883 0.015625)"/>
     </g>
    </g>
   </g>
   <g id="line2d_61">
    <path d="M 75.919364 274.170701 
L 76.215267 274.16128 
L 76.51117 273.996489 
L 77.102976 271.285592 
L 77.398879 269.26363 
L 77.694782 268.533025 
L 78.286588 265.572756 
L 78.582491 262.337501 
L 78.878394 262.337501 
L 79.174297 260.436724 
L 79.766103 259.1846 
L 80.062006 258.849564 
L 80.357909 258.930418 
L 80.653812 259.6283 
L 80.949715 260.735438 
L 81.245619 261.17251 
L 81.837425 263.125914 
L 82.133328 265.26961 
L 82.429231 266.380615 
L 83.31694 271.505964 
L 83.612843 271.505964 
L 83.908746 274.044653 
L 84.204649 275.427489 
L 85.092358 282.463641 
L 85.388261 282.463641 
L 85.684164 285.26419 
L 86.867777 289.317296 
L 87.16368 289.317296 
L 87.459583 290.068968 
L 88.051389 290.88648 
L 88.643195 291.741115 
L 88.939098 291.741115 
L 89.235001 291.959276 
L 89.530904 291.753346 
L 89.826807 291.250771 
L 90.12271 289.89499 
L 90.418613 287.104249 
L 91.602225 279.605699 
L 92.489934 271.136792 
L 93.377644 265.455695 
L 93.96945 261.57135 
L 94.265353 261.57135 
L 94.561256 259.638549 
L 95.448965 257.536145 
L 96.632577 257.147504 
L 97.816189 257.662217 
L 98.112092 258.208611 
L 98.407995 258.208611 
L 98.703899 259.463676 
L 98.999802 259.726321 
L 99.591608 260.927267 
L 99.887511 262.366378 
L 100.183414 263.191778 
L 100.77522 266.240779 
L 101.071123 268.121242 
L 101.367026 268.121242 
L 101.662929 270.988095 
L 101.958832 272.546474 
L 102.550638 277.598215 
L 102.846541 278.46428 
L 103.142444 280.192895 
L 103.73425 285.948846 
L 104.030153 288.074871 
L 104.326056 288.71634 
L 105.213766 291.983455 
L 105.509669 291.983455 
L 106.397378 290.411288 
L 106.693281 289.471871 
L 106.989184 287.232661 
L 107.285087 286.021462 
L 107.876893 282.178257 
L 108.172796 281.535983 
L 108.468699 280.255975 
L 108.764602 277.732695 
L 109.652311 273.918563 
L 109.948214 272.346585 
L 110.244117 272.346585 
L 110.540021 271.515751 
L 110.835924 271.449147 
L 111.131827 271.618159 
L 111.42773 271.990009 
L 111.723633 272.839013 
L 112.019536 274.249891 
L 113.499051 277.931874 
L 113.794954 277.931874 
L 114.090857 278.36129 
L 114.682663 278.506245 
L 115.274469 278.462682 
L 115.570372 278.336107 
L 116.753985 277.150999 
L 117.049888 276.457934 
L 117.641694 274.408891 
L 118.529403 271.428976 
L 118.825306 270.271153 
L 120.008918 263.423373 
L 120.304821 262.227684 
L 121.19253 257.585677 
L 121.784336 256.219238 
L 122.376143 255.357844 
L 122.672046 255.366844 
L 123.263852 255.910174 
L 123.559755 256.346851 
L 123.855658 257.170572 
L 124.151561 258.484384 
L 124.447464 258.484384 
L 124.743367 259.93725 
L 125.631076 262.340864 
L 125.926979 263.407525 
L 126.222882 263.407525 
L 126.518785 264.191127 
L 127.110591 264.657108 
L 127.406494 264.758601 
L 127.702397 264.72222 
L 129.773719 262.244689 
L 130.365525 262.181647 
L 130.661428 262.271106 
L 130.957331 262.557827 
L 131.253234 263.162635 
L 131.549137 263.162635 
L 131.84504 263.918251 
L 132.140943 264.321943 
L 132.732749 265.52504 
L 133.028652 265.710092 
L 133.324555 266.062581 
L 133.620458 266.691595 
L 133.916362 266.691595 
L 134.212265 267.472865 
L 134.508168 267.599688 
L 135.099974 268.159265 
L 136.283586 270.929186 
L 136.579489 271.252992 
L 136.875392 271.915513 
L 137.171295 273.226714 
L 137.467198 273.226714 
L 137.763101 275.000089 
L 138.059004 275.268192 
L 138.65081 276.29656 
L 138.946713 277.16932 
L 139.242616 277.16932 
L 139.538519 278.236397 
L 139.834423 278.403384 
L 140.426229 279.056653 
L 140.722132 279.631116 
L 141.609841 280.330978 
L 142.793453 280.475916 
L 143.977065 279.991436 
L 145.45658 277.835425 
L 145.752484 277.835425 
L 146.048387 277.135485 
L 146.640193 276.321262 
L 147.231999 275.354557 
L 147.527902 275.354557 
L 147.823805 274.585141 
L 148.119708 274.585141 
L 148.415611 272.969439 
L 148.711514 272.63344 
L 149.30332 271.081694 
L 150.191029 265.886218 
L 150.486932 265.299068 
L 151.078738 262.962082 
L 151.374641 260.909122 
L 151.966448 258.901651 
L 152.262351 257.89503 
L 152.558254 257.584133 
L 152.854157 257.013586 
L 153.15006 256.084511 
L 154.333672 254.685194 
L 155.517284 253.817579 
L 156.404993 253.89211 
L 158.180412 255.067621 
L 158.772218 255.85043 
L 159.068121 256.178677 
L 159.364024 256.75333 
L 159.659927 257.676253 
L 159.95583 257.676253 
L 160.251733 258.715698 
L 160.843539 259.812213 
L 161.435345 261.526462 
L 161.731248 261.526462 
L 162.027151 262.30273 
L 162.323054 262.30273 
L 162.618957 263.150986 
L 163.506667 263.362034 
L 164.098473 263.184732 
L 164.394376 262.932115 
L 165.282085 262.710765 
L 165.577988 262.724724 
L 165.873891 262.859371 
L 167.057503 264.480496 
L 167.945212 267.491684 
L 168.241115 267.815449 
L 168.832921 269.048492 
L 169.128825 270.004775 
L 169.720631 270.5026 
L 170.016534 270.433152 
L 170.312437 270.135918 
L 170.60834 270.135918 
L 170.904243 269.478318 
L 171.791952 268.199213 
L 172.087855 267.69745 
L 172.383758 267.69745 
L 172.679661 267.486736 
L 172.975564 267.522404 
L 173.271467 267.807767 
L 173.56737 268.475265 
L 173.863273 269.574604 
L 174.159176 269.574604 
L 174.455079 271.684804 
L 174.750982 272.96336 
L 175.342789 277.267234 
L 175.638692 277.975331 
L 175.934595 279.3215 
L 176.230498 281.556065 
L 176.822304 282.879181 
L 177.118207 282.834977 
L 177.41411 282.245744 
L 177.710013 282.245744 
L 178.301819 279.739483 
L 178.597722 278.648269 
L 179.485431 273.681937 
L 180.37314 271.064861 
L 180.669043 270.700169 
L 180.964947 270.910225 
L 181.26085 270.910225 
L 181.852656 272.836068 
L 182.148559 273.784281 
L 182.740365 277.094515 
L 183.036268 277.094515 
L 183.332171 278.288225 
L 183.628074 278.543838 
L 183.923977 278.549869 
L 184.21988 278.081398 
L 184.811686 275.595444 
L 185.699395 271.943421 
L 186.291201 267.786603 
L 186.587105 267.786603 
L 186.883008 266.032693 
L 187.474814 264.916494 
L 187.770717 265.002049 
L 188.06662 265.664346 
L 188.362523 265.664346 
L 188.658426 267.256811 
L 188.954329 268.234573 
L 189.546135 271.162606 
L 189.842038 272.157449 
L 190.137941 272.157449 
L 190.433844 272.712659 
L 190.729747 272.596921 
L 191.02565 272.216218 
L 191.321553 271.181998 
L 191.617456 269.111718 
L 192.801069 263.943417 
L 193.392875 260.131301 
L 193.688778 260.131301 
L 193.984681 258.959137 
L 194.280584 258.722309 
L 194.576487 258.850078 
L 194.87239 259.571586 
L 195.168293 259.939354 
L 195.464196 260.850917 
L 196.351905 267.346982 
L 196.647808 268.033831 
L 197.535517 272.097217 
L 197.83142 272.401767 
L 198.127323 272.235642 
L 198.423227 271.402207 
L 198.71913 270.998355 
L 199.015033 270.036986 
L 199.310936 267.679223 
L 199.606839 266.382517 
L 200.494548 260.647967 
L 200.790451 260.647967 
L 201.086354 258.704632 
L 201.67816 257.664186 
L 201.974063 257.673449 
L 202.269966 258.786455 
L 202.565869 258.786455 
L 203.157675 262.351141 
L 203.453578 263.87593 
L 204.341288 270.977672 
L 205.228997 274.656399 
L 205.5249 275.652771 
L 205.820803 275.813427 
L 206.116706 275.813427 
L 207.004415 272.26683 
L 207.300318 270.455934 
L 207.596221 269.834038 
L 207.892124 268.585388 
L 208.188027 266.158712 
L 209.075736 262.547157 
L 209.667542 261.928893 
L 209.963445 262.09775 
L 210.259349 262.636189 
L 210.555252 263.459376 
L 210.851155 265.161851 
L 211.147058 268.020488 
L 211.442961 268.020488 
L 211.738864 271.234817 
L 212.922476 278.252776 
L 213.218379 278.252776 
L 213.514282 278.971249 
L 213.810185 278.958821 
L 214.106088 278.718744 
L 214.401991 278.261118 
L 214.697894 277.207517 
L 214.993797 275.270753 
L 216.473313 269.549413 
L 217.065119 266.321252 
L 217.656925 265.403979 
L 217.952828 265.30094 
L 218.248731 265.639214 
L 220.024149 274.105913 
L 220.320052 276.681398 
L 220.911858 278.626548 
L 221.503664 279.702753 
L 221.799568 279.855307 
L 222.095471 279.567566 
L 223.279083 274.649598 
L 223.574986 271.605744 
L 223.870889 271.605744 
L 224.166792 266.773421 
L 224.462695 265.98482 
L 225.350404 260.969172 
L 225.646307 260.969172 
L 225.94221 260.262616 
L 226.238113 260.444145 
L 226.534016 261.037058 
L 226.829919 261.909557 
L 227.125822 264.358395 
L 227.421725 264.358395 
L 227.717629 268.932483 
L 228.013532 269.71766 
L 228.901241 274.691934 
L 229.197144 274.691934 
L 229.493047 275.506064 
L 229.78895 275.36906 
L 230.084853 274.884589 
L 230.380756 274.137081 
L 230.676659 271.999776 
L 230.972562 270.693594 
L 231.860271 264.02881 
L 232.156174 264.02881 
L 232.452077 261.210089 
L 233.043883 259.015913 
L 233.339786 258.11004 
L 233.931593 258.141771 
L 234.819302 262.650096 
L 235.115205 264.990614 
L 235.411108 265.807396 
L 235.707011 267.451666 
L 236.002914 270.638747 
L 236.890623 274.645654 
L 237.482429 275.036878 
L 238.074235 273.933479 
L 238.370138 273.081013 
L 238.666041 271.471703 
L 238.961944 268.942437 
L 239.257847 268.942437 
L 239.553751 266.203211 
L 240.737363 260.404392 
L 241.329169 260.29627 
L 241.625072 260.727437 
L 241.920975 261.450231 
L 242.216878 263.025078 
L 242.512781 265.823116 
L 242.808684 265.823116 
L 243.104587 269.062748 
L 244.288199 276.366559 
L 244.584102 276.366559 
L 244.880005 277.084765 
L 245.175908 277.02169 
L 245.471812 276.6997 
L 245.767715 275.765769 
L 246.063618 273.843541 
L 246.359521 273.843541 
L 246.655424 271.385179 
L 247.24723 268.712895 
L 247.839036 264.608155 
L 248.134939 264.608155 
L 248.430842 263.308482 
L 248.726745 263.093852 
L 249.022648 263.200329 
L 249.318551 263.956317 
L 249.614454 265.961209 
L 249.910357 265.961209 
L 250.20626 268.723629 
L 250.502163 270.255859 
L 251.093969 274.757438 
L 251.389873 275.430385 
L 251.685776 276.66363 
L 251.981679 278.598492 
L 252.277582 279.416739 
L 252.573485 279.552539 
L 252.869388 279.448558 
L 253.165291 279.03052 
L 253.461194 278.348311 
L 254.348903 272.185028 
L 254.644806 271.435417 
L 255.236612 268.422791 
L 255.532515 265.200966 
L 255.828418 265.200966 
L 256.124321 263.655437 
L 256.420224 263.289539 
L 256.716127 263.196045 
L 257.012031 263.38679 
L 257.307934 263.864161 
L 257.603837 265.08485 
L 257.89974 267.470441 
L 259.083352 273.491528 
L 259.675158 278.255451 
L 260.266964 279.88352 
L 260.562867 280.283907 
L 260.85877 280.291196 
L 262.042382 275.531168 
L 262.338285 273.140204 
L 262.634188 269.704223 
L 262.930092 269.704223 
L 263.225995 266.207062 
L 263.521898 264.513197 
L 264.113704 260.232491 
L 264.409607 259.004915 
L 264.70551 259.004915 
L 265.001413 258.531484 
L 265.297316 258.80436 
L 265.593219 259.816027 
L 265.889122 261.475713 
L 266.185025 262.144996 
L 266.480928 263.617558 
L 266.776831 266.97321 
L 267.072734 268.752137 
L 267.960443 276.463413 
L 268.256346 276.463413 
L 268.552249 278.865242 
L 268.848153 279.59931 
L 269.144056 280.01135 
L 269.735862 279.28076 
L 270.031765 278.418242 
L 270.327668 275.913113 
L 270.919474 272.726593 
L 271.51128 266.505525 
L 271.807183 266.505525 
L 272.103086 263.052616 
L 272.990795 257.642688 
L 273.582601 256.779104 
L 273.878504 256.900988 
L 274.174407 257.494072 
L 274.47031 258.978191 
L 274.766214 261.03529 
L 275.062117 261.824192 
L 275.35802 263.513459 
L 275.653923 267.155722 
L 275.949826 269.050176 
L 276.837535 277.03696 
L 277.133438 277.03696 
L 277.429341 279.620971 
L 278.021147 281.053505 
L 278.31705 281.205333 
L 278.612953 280.212665 
L 278.908856 280.212665 
L 279.796565 273.655 
L 280.092468 272.830507 
L 280.684275 269.412644 
L 280.980178 266.00414 
L 281.571984 262.17815 
L 282.16379 259.020009 
L 282.459693 259.020009 
L 282.755596 258.350922 
L 283.051499 258.53037 
L 283.347402 259.04912 
L 283.643305 260.421896 
L 283.939208 263.133124 
L 284.826917 268.285241 
L 285.714626 276.003776 
L 286.010529 276.003776 
L 286.306432 278.663653 
L 286.898239 280.494124 
L 287.194142 281.169269 
L 287.490045 280.994867 
L 287.785948 280.469436 
L 288.377754 278.674834 
L 288.96956 276.138129 
L 289.265463 273.941134 
L 289.561366 270.805593 
L 290.744978 264.768203 
L 291.040881 262.103297 
L 291.336784 262.103297 
L 291.632687 261.173667 
L 291.92859 261.153091 
L 292.224494 261.423037 
L 292.520397 261.975656 
L 292.8163 264.47769 
L 293.112203 264.47769 
L 293.408106 267.323011 
L 294.295815 272.123548 
L 294.591718 275.755535 
L 294.887621 275.755535 
L 295.183524 278.046342 
L 295.77533 279.660711 
L 296.071233 280.16036 
L 296.367136 280.399645 
L 296.958942 278.935055 
L 297.550748 276.756029 
L 297.846651 275.407934 
L 298.142555 273.181109 
L 298.438458 270.048377 
L 299.917973 261.731573 
L 300.213876 261.731573 
L 300.509779 261.009742 
L 300.805682 261.081346 
L 301.101585 261.443683 
L 301.397488 262.091869 
L 302.285197 268.638003 
L 302.5811 269.466512 
L 303.172906 272.786838 
L 303.468809 275.822397 
L 303.764712 275.822397 
L 304.060616 279.053832 
L 304.356519 279.414084 
L 304.652422 279.972434 
L 304.948325 280.283546 
L 305.244228 280.059098 
L 305.540131 279.516255 
L 306.723743 274.205411 
L 307.019646 270.959664 
L 307.611452 267.644133 
L 308.203258 262.555979 
L 308.795064 260.738792 
L 309.090967 260.253883 
L 309.38687 260.081972 
L 309.682773 260.437426 
L 309.978677 261.991104 
L 310.27458 261.991104 
L 310.570483 264.511562 
L 311.458192 269.309381 
L 312.345901 276.71964 
L 313.529513 282.122961 
L 313.825416 282.122961 
L 314.121319 281.772668 
L 314.417222 281.092019 
L 315.600834 275.034448 
L 315.896738 271.53396 
L 316.192641 269.739635 
L 316.784447 264.564444 
L 317.08035 263.760455 
L 317.376253 262.250742 
L 317.672156 259.829192 
L 317.968059 258.711218 
L 318.263962 258.326263 
L 318.559865 258.361511 
L 318.855768 258.668694 
L 319.151671 259.288162 
L 319.447574 261.373995 
L 319.743477 261.373995 
L 320.03938 265.985841 
L 320.335283 266.848605 
L 320.927089 270.40419 
L 321.222992 273.920554 
L 321.518895 275.594365 
L 322.110702 280.003807 
L 322.406605 280.60925 
L 322.998411 282.754495 
L 323.294314 282.782914 
L 323.590217 282.160962 
L 323.88612 280.836144 
L 324.182023 280.263445 
L 324.477926 278.959742 
L 324.773829 275.909 
L 325.069732 274.252367 
L 325.661538 269.163267 
L 325.957441 268.336406 
L 326.253344 266.734277 
L 326.549247 263.845066 
L 327.436957 260.545032 
L 328.028763 260.404797 
L 328.324666 261.243736 
L 328.620569 261.243736 
L 328.916472 264.410566 
L 329.212375 265.103868 
L 329.804181 268.139968 
L 330.100084 271.400662 
L 330.395987 271.400662 
L 330.69189 276.178932 
L 330.987793 276.934371 
L 332.171405 282.544634 
L 332.467308 283.050162 
L 333.059114 282.693752 
L 333.355018 282.082224 
L 334.53863 274.027958 
L 334.834533 273.180685 
L 335.130436 271.489108 
L 335.426339 268.235524 
L 335.722242 268.235524 
L 336.018145 264.400989 
L 336.314048 263.948154 
L 336.905854 262.786667 
L 337.49766 262.822287 
L 337.793563 265.037405 
L 338.089466 265.603162 
L 338.681272 268.205031 
L 338.977175 271.077101 
L 339.273079 271.077101 
L 339.568982 275.382498 
L 339.864885 276.069227 
L 340.456691 278.640568 
L 340.752594 280.639006 
L 341.3444 281.871073 
L 341.640303 281.839008 
L 341.936206 281.222304 
L 342.232109 281.222304 
L 342.823915 278.353025 
L 343.119818 277.004628 
L 343.415721 274.725549 
L 343.711624 271.422113 
L 344.007527 271.422113 
L 344.30343 268.089152 
L 345.487043 261.136461 
L 345.782946 261.136461 
L 346.078849 260.252487 
L 346.374752 260.189448 
L 346.670655 260.567856 
L 346.966558 261.514572 
L 347.262461 261.946701 
L 347.558364 262.95958 
L 347.854267 265.401943 
L 348.15017 266.740367 
L 348.741976 270.798711 
L 349.037879 271.450405 
L 349.333782 272.71547 
L 349.629685 275.020098 
L 349.925588 275.020098 
L 350.221491 277.610203 
L 350.517394 277.918603 
L 351.109201 278.740156 
L 351.405104 278.858658 
L 351.701007 278.642813 
L 352.292813 277.092224 
L 353.180522 274.953969 
L 353.772328 272.933207 
L 354.364134 272.243447 
L 355.251843 271.678864 
L 355.843649 271.596004 
L 357.027262 271.775971 
L 357.323165 271.939744 
L 358.80268 271.927398 
L 359.098583 271.571893 
L 359.394486 271.470666 
L 359.986292 270.926294 
L 360.282195 270.366724 
L 360.578098 269.427888 
L 361.76171 267.052417 
L 362.353516 265.206907 
L 362.945323 264.788413 
L 363.241226 264.81203 
L 363.537129 265.139567 
L 363.833032 266.069608 
L 364.128935 266.069608 
L 364.424838 267.411116 
L 364.720741 268.180437 
L 365.60845 271.56113 
L 365.904353 271.56113 
L 366.200256 272.52841 
L 366.496159 272.81769 
L 367.087965 272.501264 
L 367.679771 271.402695 
L 367.975674 269.714432 
L 368.271577 268.751824 
L 369.159287 264.756977 
L 369.45519 264.756977 
L 369.751093 263.832721 
L 370.046996 263.684891 
L 370.342899 263.75861 
L 370.638802 264.273336 
L 371.230608 266.484461 
L 372.118317 269.681005 
L 372.41422 270.84704 
L 373.301929 275.886595 
L 374.189638 278.38577 
L 374.485542 279.176113 
L 374.781445 279.607485 
L 375.077348 279.552233 
L 375.669154 278.984994 
L 375.965057 278.542005 
L 376.852766 276.430238 
L 377.740475 275.506794 
L 378.036378 275.26824 
L 378.332281 275.26824 
L 378.924087 275.0538 
L 379.515893 274.926871 
L 380.107699 274.986467 
L 380.403603 275.254503 
L 380.699506 275.254503 
L 380.995409 275.964053 
L 381.587215 276.304823 
L 382.179021 276.67817 
L 382.474924 276.67817 
L 383.658536 275.722593 
L 383.954439 274.777668 
L 384.250342 274.207927 
L 384.842148 272.42667 
L 385.138051 272.153363 
L 385.729857 271.098964 
L 386.02576 271.098964 
L 386.91347 272.065538 
L 387.209373 272.634579 
L 387.505276 274.065564 
L 387.801179 274.065564 
L 388.097082 276.686315 
L 388.392985 277.137367 
L 389.576597 280.490581 
L 390.168403 280.275404 
L 390.464306 279.79891 
L 390.760209 279.091346 
L 391.056112 276.527099 
L 391.352015 276.527099 
L 391.647918 274.082309 
L 392.831531 269.087604 
L 393.127434 269.087604 
L 393.423337 268.821831 
L 393.71924 269.014239 
L 394.311046 269.936027 
L 394.606949 271.396581 
L 394.902852 271.396581 
L 395.198755 274.025601 
L 395.494658 274.460017 
L 396.382367 276.701987 
L 396.67827 277.422885 
L 396.974173 277.704962 
L 397.270076 277.531837 
L 397.565979 277.151203 
L 397.861883 276.585446 
L 398.157786 274.555204 
L 398.453689 274.555204 
L 398.749592 272.610242 
L 399.933204 268.72069 
L 400.229107 268.55039 
L 400.52501 268.54946 
L 401.116816 268.939009 
L 401.412719 269.27775 
L 401.708622 270.377456 
L 402.004525 270.377456 
L 402.300428 271.321981 
L 403.188137 272.541239 
L 403.779944 273.26118 
L 404.075847 273.750445 
L 404.963556 274.650528 
L 405.259459 275.265241 
L 405.555362 275.265241 
L 405.851265 275.499606 
L 406.147168 275.429445 
L 406.738974 274.901558 
L 407.33078 273.567226 
L 407.626683 272.982651 
L 407.922586 272.791339 
L 408.514392 272.042735 
L 408.810295 271.382922 
L 409.106198 271.382922 
L 409.402101 270.753044 
L 410.585714 270.572567 
L 411.473423 270.730741 
L 412.065229 271.149483 
L 412.361132 271.831479 
L 412.952938 274.200926 
L 414.432453 278.7147 
L 414.728356 278.705916 
L 415.024259 278.482269 
L 415.616066 277.477906 
L 415.911969 276.346707 
L 416.207872 274.561867 
L 417.687387 270.091304 
L 417.98329 269.492754 
L 418.279193 269.496334 
L 418.575096 269.67248 
L 419.166902 270.383835 
L 419.462805 270.834037 
L 420.350514 272.731178 
L 421.238223 274.105254 
L 421.83003 275.36964 
L 422.125933 275.441259 
L 422.421836 275.359549 
L 422.717739 275.139594 
L 423.013642 274.211132 
L 423.309545 274.211132 
L 423.605448 273.527279 
L 423.901351 273.365896 
L 424.197254 273.367528 
L 424.493157 273.556744 
L 424.78906 273.950933 
L 425.084963 274.906308 
L 425.380866 276.721118 
L 426.268575 280.174291 
L 426.564478 282.173543 
L 426.860381 285.065833 
L 428.339897 292.601523 
L 428.6358 294.72361 
L 429.523509 297.401047 
L 430.411218 299.443122 
L 430.707121 299.703068 
L 431.003024 299.473303 
L 431.298927 298.957579 
L 431.890733 297.022541 
L 432.186636 294.821992 
L 432.186636 294.821992 
" clip-path="url(#p6c525cc982)" style="fill: none; stroke: #008000; stroke-width: 1.5; stroke-linecap: square"/>
   </g>
   <g id="patch_13">
    <path d="M 58.106 301.9975 
L 58.106 251.52 
" style="fill: none; stroke: #000000; stroke-width: 0.8; stroke-linejoin: miter; stroke-linecap: square"/>
   </g>
   <g id="patch_14">
    <path d="M 450 301.9975 
L 450 251.52 
" style="fill: none; stroke: #000000; stroke-width: 0.8; stroke-linejoin: miter; stroke-linecap: square"/>
   </g>
   <g id="patch_15">
    <path d="M 58.106 301.9975 
L 450 301.9975 
" style="fill: none; stroke: #000000; stroke-width: 0.8; stroke-linejoin: miter; stroke-linecap: square"/>
   </g>
   <g id="patch_16">
    <path d="M 58.106 251.52 
L 450 251.52 
" style="fill: none; stroke: #000000; stroke-width: 0.8; stroke-linejoin: miter; stroke-linecap: square"/>
   </g>
   <g id="text_38">
    <!-- Error in swing angle -->
    <g transform="translate(194.282688 245.52)scale(0.12 -0.12)">
     <defs>
      <path id="DejaVuSans-77" d="M 269 3500 
L 844 3500 
L 1563 769 
L 2278 3500 
L 2956 3500 
L 3675 769 
L 4391 3500 
L 4966 3500 
L 4050 0 
L 3372 0 
L 2619 2869 
L 1863 0 
L 1184 0 
L 269 3500 
z
" transform="scale(0.015625)"/>
      <path id="DejaVuSans-67" d="M 2906 1791 
Q 2906 2416 2648 2759 
Q 2391 3103 1925 3103 
Q 1463 3103 1205 2759 
Q 947 2416 947 1791 
Q 947 1169 1205 825 
Q 1463 481 1925 481 
Q 2391 481 2648 825 
Q 2906 1169 2906 1791 
z
M 3481 434 
Q 3481 -459 3084 -895 
Q 2688 -1331 1869 -1331 
Q 1566 -1331 1297 -1286 
Q 1028 -1241 775 -1147 
L 775 -588 
Q 1028 -725 1275 -790 
Q 1522 -856 1778 -856 
Q 2344 -856 2625 -561 
Q 2906 -266 2906 331 
L 2906 616 
Q 2728 306 2450 153 
Q 2172 0 1784 0 
Q 1141 0 747 490 
Q 353 981 353 1791 
Q 353 2603 747 3093 
Q 1141 3584 1784 3584 
Q 2172 3584 2450 3431 
Q 2728 3278 2906 2969 
L 2906 3500 
L 3481 3500 
L 3481 434 
z
" transform="scale(0.015625)"/>
      <path id="DejaVuSans-6c" d="M 603 4863 
L 1178 4863 
L 1178 0 
L 603 0 
L 603 4863 
z
" transform="scale(0.015625)"/>
      <path id="DejaVuSans-65" d="M 3597 1894 
L 3597 1613 
L 953 1613 
Q 991 1019 1311 708 
Q 1631 397 2203 397 
Q 2534 397 2845 478 
Q 3156 559 3463 722 
L 3463 178 
Q 3153 47 2828 -22 
Q 2503 -91 2169 -91 
Q 1331 -91 842 396 
Q 353 884 353 1716 
Q 353 2575 817 3079 
Q 1281 3584 2069 3584 
Q 2775 3584 3186 3129 
Q 3597 2675 3597 1894 
z
M 3022 2063 
Q 3016 2534 2758 2815 
Q 2500 3097 2075 3097 
Q 1594 3097 1305 2825 
Q 1016 2553 972 2059 
L 3022 2063 
z
" transform="scale(0.015625)"/>
     </defs>
     <use xlink:href="#DejaVuSans-45"/>
     <use xlink:href="#DejaVuSans-72" x="63.183594"/>
     <use xlink:href="#DejaVuSans-72" x="102.546875"/>
     <use xlink:href="#DejaVuSans-6f" x="141.410156"/>
     <use xlink:href="#DejaVuSans-72" x="202.591797"/>
     <use xlink:href="#DejaVuSans-20" x="243.705078"/>
     <use xlink:href="#DejaVuSans-69" x="275.492188"/>
     <use xlink:href="#DejaVuSans-6e" x="303.275391"/>
     <use xlink:href="#DejaVuSans-20" x="366.654297"/>
     <use xlink:href="#DejaVuSans-73" x="398.441406"/>
     <use xlink:href="#DejaVuSans-77" x="450.541016"/>
     <use xlink:href="#DejaVuSans-69" x="532.328125"/>
     <use xlink:href="#DejaVuSans-6e" x="560.111328"/>
     <use xlink:href="#DejaVuSans-67" x="623.490234"/>
     <use xlink:href="#DejaVuSans-20" x="686.966797"/>
     <use xlink:href="#DejaVuSans-61" x="718.753906"/>
     <use xlink:href="#DejaVuSans-6e" x="780.033203"/>
     <use xlink:href="#DejaVuSans-67" x="843.412109"/>
     <use xlink:href="#DejaVuSans-6c" x="906.888672"/>
     <use xlink:href="#DejaVuSans-65" x="934.671875"/>
    </g>
   </g>
  </g>
 </g>
 <defs>
  <clipPath id="p11755cb901">
   <rect x="58.106" y="28.32" width="391.894" height="50.4775"/>
  </clipPath>
  <clipPath id="pae98af5718">
   <rect x="58.106" y="139.92" width="391.894" height="50.4775"/>
  </clipPath>
  <clipPath id="p6c525cc982">
   <rect x="58.106" y="251.52" width="391.894" height="50.4775"/>
  </clipPath>
 </defs>
</svg>
