<?xml version="1.0" encoding="utf-8" standalone="no"?>
<!DOCTYPE svg PUBLIC "-//W3C//DTD SVG 1.1//EN"
  "http://www.w3.org/Graphics/SVG/1.1/DTD/svg11.dtd">
<svg xmlns:xlink="http://www.w3.org/1999/xlink" width="460.8pt" height="345.6pt" viewBox="0 0 460.8 345.6" xmlns="http://www.w3.org/2000/svg" version="1.1">
 <metadata>
  <rdf:RDF xmlns:dc="http://purl.org/dc/elements/1.1/" xmlns:cc="http://creativecommons.org/ns#" xmlns:rdf="http://www.w3.org/1999/02/22-rdf-syntax-ns#">
   <cc:Work>
    <dc:type rdf:resource="http://purl.org/dc/dcmitype/StillImage"/>
    <dc:date>2022-06-05T14:49:26.431413</dc:date>
    <dc:format>image/svg+xml</dc:format>
    <dc:creator>
     <cc:Agent>
      <dc:title>Matplotlib v3.5.1, https://matplotlib.org/</dc:title>
     </cc:Agent>
    </dc:creator>
   </cc:Work>
  </rdf:RDF>
 </metadata>
 <defs>
  <style type="text/css">*{stroke-linejoin: round; stroke-linecap: butt}</style>
 </defs>
 <g id="figure_1">
  <g id="patch_1">
   <path d="M 0 345.6 
L 460.8 345.6 
L 460.8 0 
L 0 0 
z
" style="fill: #ffffff"/>
  </g>
  <g id="axes_1">
   <g id="patch_2">
    <path d="M 58.106 78.7975 
L 450 78.7975 
L 450 28.32 
L 58.106 28.32 
z
" style="fill: #ffffff"/>
   </g>
   <g id="matplotlib.axis_1">
    <g id="xtick_1">
     <g id="line2d_1">
      <path d="M 75.919364 78.7975 
L 75.919364 28.32 
" clip-path="url(#p2a7e0c4976)" style="fill: none; stroke: #b0b0b0; stroke-width: 0.8; stroke-linecap: square"/>
     </g>
     <g id="line2d_2">
      <defs>
       <path id="m358edf13ee" d="M 0 0 
L 0 3.5 
" style="stroke: #000000; stroke-width: 0.8"/>
      </defs>
      <g>
       <use xlink:href="#m358edf13ee" x="75.919364" y="78.7975" style="stroke: #000000; stroke-width: 0.8"/>
      </g>
     </g>
     <g id="text_1">
      <!-- 0 -->
      <g transform="translate(72.738114 93.395937)scale(0.1 -0.1)">
       <defs>
        <path id="DejaVuSans-30" d="M 2034 4250 
Q 1547 4250 1301 3770 
Q 1056 3291 1056 2328 
Q 1056 1369 1301 889 
Q 1547 409 2034 409 
Q 2525 409 2770 889 
Q 3016 1369 3016 2328 
Q 3016 3291 2770 3770 
Q 2525 4250 2034 4250 
z
M 2034 4750 
Q 2819 4750 3233 4129 
Q 3647 3509 3647 2328 
Q 3647 1150 3233 529 
Q 2819 -91 2034 -91 
Q 1250 -91 836 529 
Q 422 1150 422 2328 
Q 422 3509 836 4129 
Q 1250 4750 2034 4750 
z
" transform="scale(0.015625)"/>
       </defs>
       <use xlink:href="#DejaVuSans-30"/>
      </g>
     </g>
    </g>
    <g id="xtick_2">
     <g id="line2d_3">
      <path d="M 135.346765 78.7975 
L 135.346765 28.32 
" clip-path="url(#p2a7e0c4976)" style="fill: none; stroke: #b0b0b0; stroke-width: 0.8; stroke-linecap: square"/>
     </g>
     <g id="line2d_4">
      <g>
       <use xlink:href="#m358edf13ee" x="135.346765" y="78.7975" style="stroke: #000000; stroke-width: 0.8"/>
      </g>
     </g>
     <g id="text_2">
      <!-- 2 -->
      <g transform="translate(132.165515 93.395937)scale(0.1 -0.1)">
       <defs>
        <path id="DejaVuSans-32" d="M 1228 531 
L 3431 531 
L 3431 0 
L 469 0 
L 469 531 
Q 828 903 1448 1529 
Q 2069 2156 2228 2338 
Q 2531 2678 2651 2914 
Q 2772 3150 2772 3378 
Q 2772 3750 2511 3984 
Q 2250 4219 1831 4219 
Q 1534 4219 1204 4116 
Q 875 4013 500 3803 
L 500 4441 
Q 881 4594 1212 4672 
Q 1544 4750 1819 4750 
Q 2544 4750 2975 4387 
Q 3406 4025 3406 3419 
Q 3406 3131 3298 2873 
Q 3191 2616 2906 2266 
Q 2828 2175 2409 1742 
Q 1991 1309 1228 531 
z
" transform="scale(0.015625)"/>
       </defs>
       <use xlink:href="#DejaVuSans-32"/>
      </g>
     </g>
    </g>
    <g id="xtick_3">
     <g id="line2d_5">
      <path d="M 194.774167 78.7975 
L 194.774167 28.32 
" clip-path="url(#p2a7e0c4976)" style="fill: none; stroke: #b0b0b0; stroke-width: 0.8; stroke-linecap: square"/>
     </g>
     <g id="line2d_6">
      <g>
       <use xlink:href="#m358edf13ee" x="194.774167" y="78.7975" style="stroke: #000000; stroke-width: 0.8"/>
      </g>
     </g>
     <g id="text_3">
      <!-- 4 -->
      <g transform="translate(191.592917 93.395937)scale(0.1 -0.1)">
       <defs>
        <path id="DejaVuSans-34" d="M 2419 4116 
L 825 1625 
L 2419 1625 
L 2419 4116 
z
M 2253 4666 
L 3047 4666 
L 3047 1625 
L 3713 1625 
L 3713 1100 
L 3047 1100 
L 3047 0 
L 2419 0 
L 2419 1100 
L 313 1100 
L 313 1709 
L 2253 4666 
z
" transform="scale(0.015625)"/>
       </defs>
       <use xlink:href="#DejaVuSans-34"/>
      </g>
     </g>
    </g>
    <g id="xtick_4">
     <g id="line2d_7">
      <path d="M 254.201569 78.7975 
L 254.201569 28.32 
" clip-path="url(#p2a7e0c4976)" style="fill: none; stroke: #b0b0b0; stroke-width: 0.8; stroke-linecap: square"/>
     </g>
     <g id="line2d_8">
      <g>
       <use xlink:href="#m358edf13ee" x="254.201569" y="78.7975" style="stroke: #000000; stroke-width: 0.8"/>
      </g>
     </g>
     <g id="text_4">
      <!-- 6 -->
      <g transform="translate(251.020319 93.395937)scale(0.1 -0.1)">
       <defs>
        <path id="DejaVuSans-36" d="M 2113 2584 
Q 1688 2584 1439 2293 
Q 1191 2003 1191 1497 
Q 1191 994 1439 701 
Q 1688 409 2113 409 
Q 2538 409 2786 701 
Q 3034 994 3034 1497 
Q 3034 2003 2786 2293 
Q 2538 2584 2113 2584 
z
M 3366 4563 
L 3366 3988 
Q 3128 4100 2886 4159 
Q 2644 4219 2406 4219 
Q 1781 4219 1451 3797 
Q 1122 3375 1075 2522 
Q 1259 2794 1537 2939 
Q 1816 3084 2150 3084 
Q 2853 3084 3261 2657 
Q 3669 2231 3669 1497 
Q 3669 778 3244 343 
Q 2819 -91 2113 -91 
Q 1303 -91 875 529 
Q 447 1150 447 2328 
Q 447 3434 972 4092 
Q 1497 4750 2381 4750 
Q 2619 4750 2861 4703 
Q 3103 4656 3366 4563 
z
" transform="scale(0.015625)"/>
       </defs>
       <use xlink:href="#DejaVuSans-36"/>
      </g>
     </g>
    </g>
    <g id="xtick_5">
     <g id="line2d_9">
      <path d="M 313.62897 78.7975 
L 313.62897 28.32 
" clip-path="url(#p2a7e0c4976)" style="fill: none; stroke: #b0b0b0; stroke-width: 0.8; stroke-linecap: square"/>
     </g>
     <g id="line2d_10">
      <g>
       <use xlink:href="#m358edf13ee" x="313.62897" y="78.7975" style="stroke: #000000; stroke-width: 0.8"/>
      </g>
     </g>
     <g id="text_5">
      <!-- 8 -->
      <g transform="translate(310.44772 93.395937)scale(0.1 -0.1)">
       <defs>
        <path id="DejaVuSans-38" d="M 2034 2216 
Q 1584 2216 1326 1975 
Q 1069 1734 1069 1313 
Q 1069 891 1326 650 
Q 1584 409 2034 409 
Q 2484 409 2743 651 
Q 3003 894 3003 1313 
Q 3003 1734 2745 1975 
Q 2488 2216 2034 2216 
z
M 1403 2484 
Q 997 2584 770 2862 
Q 544 3141 544 3541 
Q 544 4100 942 4425 
Q 1341 4750 2034 4750 
Q 2731 4750 3128 4425 
Q 3525 4100 3525 3541 
Q 3525 3141 3298 2862 
Q 3072 2584 2669 2484 
Q 3125 2378 3379 2068 
Q 3634 1759 3634 1313 
Q 3634 634 3220 271 
Q 2806 -91 2034 -91 
Q 1263 -91 848 271 
Q 434 634 434 1313 
Q 434 1759 690 2068 
Q 947 2378 1403 2484 
z
M 1172 3481 
Q 1172 3119 1398 2916 
Q 1625 2713 2034 2713 
Q 2441 2713 2670 2916 
Q 2900 3119 2900 3481 
Q 2900 3844 2670 4047 
Q 2441 4250 2034 4250 
Q 1625 4250 1398 4047 
Q 1172 3844 1172 3481 
z
" transform="scale(0.015625)"/>
       </defs>
       <use xlink:href="#DejaVuSans-38"/>
      </g>
     </g>
    </g>
    <g id="xtick_6">
     <g id="line2d_11">
      <path d="M 373.056372 78.7975 
L 373.056372 28.32 
" clip-path="url(#p2a7e0c4976)" style="fill: none; stroke: #b0b0b0; stroke-width: 0.8; stroke-linecap: square"/>
     </g>
     <g id="line2d_12">
      <g>
       <use xlink:href="#m358edf13ee" x="373.056372" y="78.7975" style="stroke: #000000; stroke-width: 0.8"/>
      </g>
     </g>
     <g id="text_6">
      <!-- 10 -->
      <g transform="translate(366.693872 93.395937)scale(0.1 -0.1)">
       <defs>
        <path id="DejaVuSans-31" d="M 794 531 
L 1825 531 
L 1825 4091 
L 703 3866 
L 703 4441 
L 1819 4666 
L 2450 4666 
L 2450 531 
L 3481 531 
L 3481 0 
L 794 0 
L 794 531 
z
" transform="scale(0.015625)"/>
       </defs>
       <use xlink:href="#DejaVuSans-31"/>
       <use xlink:href="#DejaVuSans-30" x="63.623047"/>
      </g>
     </g>
    </g>
    <g id="xtick_7">
     <g id="line2d_13">
      <path d="M 432.483773 78.7975 
L 432.483773 28.32 
" clip-path="url(#p2a7e0c4976)" style="fill: none; stroke: #b0b0b0; stroke-width: 0.8; stroke-linecap: square"/>
     </g>
     <g id="line2d_14">
      <g>
       <use xlink:href="#m358edf13ee" x="432.483773" y="78.7975" style="stroke: #000000; stroke-width: 0.8"/>
      </g>
     </g>
     <g id="text_7">
      <!-- 12 -->
      <g transform="translate(426.121273 93.395937)scale(0.1 -0.1)">
       <use xlink:href="#DejaVuSans-31"/>
       <use xlink:href="#DejaVuSans-32" x="63.623047"/>
      </g>
     </g>
    </g>
    <g id="text_8">
     <!-- $t$ [s] -->
     <g transform="translate(243.953 107.074062)scale(0.1 -0.1)">
      <defs>
       <path id="DejaVuSans-Oblique-74" d="M 2706 3500 
L 2619 3053 
L 1472 3053 
L 1100 1153 
Q 1081 1047 1072 975 
Q 1063 903 1063 863 
Q 1063 663 1183 572 
Q 1303 481 1569 481 
L 2150 481 
L 2053 0 
L 1503 0 
Q 991 0 739 200 
Q 488 400 488 806 
Q 488 878 497 964 
Q 506 1050 525 1153 
L 897 3053 
L 409 3053 
L 500 3500 
L 978 3500 
L 1172 4494 
L 1747 4494 
L 1556 3500 
L 2706 3500 
z
" transform="scale(0.015625)"/>
       <path id="DejaVuSans-20" transform="scale(0.015625)"/>
       <path id="DejaVuSans-5b" d="M 550 4863 
L 1875 4863 
L 1875 4416 
L 1125 4416 
L 1125 -397 
L 1875 -397 
L 1875 -844 
L 550 -844 
L 550 4863 
z
" transform="scale(0.015625)"/>
       <path id="DejaVuSans-73" d="M 2834 3397 
L 2834 2853 
Q 2591 2978 2328 3040 
Q 2066 3103 1784 3103 
Q 1356 3103 1142 2972 
Q 928 2841 928 2578 
Q 928 2378 1081 2264 
Q 1234 2150 1697 2047 
L 1894 2003 
Q 2506 1872 2764 1633 
Q 3022 1394 3022 966 
Q 3022 478 2636 193 
Q 2250 -91 1575 -91 
Q 1294 -91 989 -36 
Q 684 19 347 128 
L 347 722 
Q 666 556 975 473 
Q 1284 391 1588 391 
Q 1994 391 2212 530 
Q 2431 669 2431 922 
Q 2431 1156 2273 1281 
Q 2116 1406 1581 1522 
L 1381 1569 
Q 847 1681 609 1914 
Q 372 2147 372 2553 
Q 372 3047 722 3315 
Q 1072 3584 1716 3584 
Q 2034 3584 2315 3537 
Q 2597 3491 2834 3397 
z
" transform="scale(0.015625)"/>
       <path id="DejaVuSans-5d" d="M 1947 4863 
L 1947 -844 
L 622 -844 
L 622 -397 
L 1369 -397 
L 1369 4416 
L 622 4416 
L 622 4863 
L 1947 4863 
z
" transform="scale(0.015625)"/>
      </defs>
      <use xlink:href="#DejaVuSans-Oblique-74" transform="translate(0 0.015625)"/>
      <use xlink:href="#DejaVuSans-20" transform="translate(39.208984 0.015625)"/>
      <use xlink:href="#DejaVuSans-5b" transform="translate(70.996094 0.015625)"/>
      <use xlink:href="#DejaVuSans-73" transform="translate(110.009766 0.015625)"/>
      <use xlink:href="#DejaVuSans-5d" transform="translate(162.109375 0.015625)"/>
     </g>
    </g>
   </g>
   <g id="matplotlib.axis_2">
    <g id="ytick_1">
     <g id="line2d_15">
      <path d="M 58.106 76.404042 
L 450 76.404042 
" clip-path="url(#p2a7e0c4976)" style="fill: none; stroke: #b0b0b0; stroke-width: 0.8; stroke-linecap: square"/>
     </g>
     <g id="line2d_16">
      <defs>
       <path id="m6ddd745f55" d="M 0 0 
L -3.5 0 
" style="stroke: #000000; stroke-width: 0.8"/>
      </defs>
      <g>
       <use xlink:href="#m6ddd745f55" x="58.106" y="76.404042" style="stroke: #000000; stroke-width: 0.8"/>
      </g>
     </g>
     <g id="text_9">
      <!-- 0 -->
      <g transform="translate(44.7435 80.203261)scale(0.1 -0.1)">
       <use xlink:href="#DejaVuSans-30"/>
      </g>
     </g>
    </g>
    <g id="ytick_2">
     <g id="line2d_17">
      <path d="M 58.106 30.614427 
L 450 30.614427 
" clip-path="url(#p2a7e0c4976)" style="fill: none; stroke: #b0b0b0; stroke-width: 0.8; stroke-linecap: square"/>
     </g>
     <g id="line2d_18">
      <g>
       <use xlink:href="#m6ddd745f55" x="58.106" y="30.614427" style="stroke: #000000; stroke-width: 0.8"/>
      </g>
     </g>
     <g id="text_10">
      <!-- 10 -->
      <g transform="translate(38.381 34.413646)scale(0.1 -0.1)">
       <use xlink:href="#DejaVuSans-31"/>
       <use xlink:href="#DejaVuSans-30" x="63.623047"/>
      </g>
     </g>
    </g>
    <g id="text_11">
     <!-- $e_x$ [m] -->
     <g transform="translate(32.301313 69.20875)rotate(-90)scale(0.1 -0.1)">
      <defs>
       <path id="DejaVuSans-Oblique-65" d="M 3078 2063 
Q 3088 2113 3092 2166 
Q 3097 2219 3097 2272 
Q 3097 2653 2873 2875 
Q 2650 3097 2266 3097 
Q 1838 3097 1509 2826 
Q 1181 2556 1013 2059 
L 3078 2063 
z
M 3578 1613 
L 903 1613 
Q 884 1494 878 1425 
Q 872 1356 872 1306 
Q 872 872 1139 634 
Q 1406 397 1894 397 
Q 2269 397 2603 481 
Q 2938 566 3225 728 
L 3116 159 
Q 2806 34 2476 -28 
Q 2147 -91 1806 -91 
Q 1078 -91 686 257 
Q 294 606 294 1247 
Q 294 1794 489 2264 
Q 684 2734 1063 3103 
Q 1306 3334 1642 3459 
Q 1978 3584 2356 3584 
Q 2950 3584 3301 3228 
Q 3653 2872 3653 2272 
Q 3653 2128 3634 1964 
Q 3616 1800 3578 1613 
z
" transform="scale(0.015625)"/>
       <path id="DejaVuSans-Oblique-78" d="M 3841 3500 
L 2234 1784 
L 3219 0 
L 2559 0 
L 1819 1388 
L 531 0 
L -166 0 
L 1556 1844 
L 641 3500 
L 1300 3500 
L 1972 2234 
L 3144 3500 
L 3841 3500 
z
" transform="scale(0.015625)"/>
       <path id="DejaVuSans-6d" d="M 3328 2828 
Q 3544 3216 3844 3400 
Q 4144 3584 4550 3584 
Q 5097 3584 5394 3201 
Q 5691 2819 5691 2113 
L 5691 0 
L 5113 0 
L 5113 2094 
Q 5113 2597 4934 2840 
Q 4756 3084 4391 3084 
Q 3944 3084 3684 2787 
Q 3425 2491 3425 1978 
L 3425 0 
L 2847 0 
L 2847 2094 
Q 2847 2600 2669 2842 
Q 2491 3084 2119 3084 
Q 1678 3084 1418 2786 
Q 1159 2488 1159 1978 
L 1159 0 
L 581 0 
L 581 3500 
L 1159 3500 
L 1159 2956 
Q 1356 3278 1631 3431 
Q 1906 3584 2284 3584 
Q 2666 3584 2933 3390 
Q 3200 3197 3328 2828 
z
" transform="scale(0.015625)"/>
      </defs>
      <use xlink:href="#DejaVuSans-Oblique-65" transform="translate(0 0.015625)"/>
      <use xlink:href="#DejaVuSans-Oblique-78" transform="translate(61.523438 -16.390625)scale(0.7)"/>
      <use xlink:href="#DejaVuSans-20" transform="translate(105.683594 0.015625)"/>
      <use xlink:href="#DejaVuSans-5b" transform="translate(137.470703 0.015625)"/>
      <use xlink:href="#DejaVuSans-6d" transform="translate(176.484375 0.015625)"/>
      <use xlink:href="#DejaVuSans-5d" transform="translate(273.896484 0.015625)"/>
     </g>
    </g>
   </g>
   <g id="line2d_19">
    <path d="M 75.919364 30.614432 
L 83.35399 30.717406 
L 91.978156 31.072941 
L 97.925856 31.509743 
L 100.602322 31.85457 
L 105.063097 32.419464 
L 106.550022 32.62964 
L 109.226488 33.042739 
L 113.687263 33.838543 
L 114.282033 33.921757 
L 116.661114 34.346729 
L 120.229734 35.034056 
L 122.311429 35.499762 
L 122.608814 35.644025 
L 122.906199 35.644025 
L 123.798354 35.879725 
L 125.88005 36.393916 
L 126.177435 36.547371 
L 126.47482 36.547371 
L 127.06959 36.73242 
L 128.25913 37.073872 
L 129.151285 37.261309 
L 130.340825 37.607687 
L 131.82775 37.990755 
L 133.909446 38.541561 
L 136.288526 39.255312 
L 136.585911 39.255312 
L 137.180681 39.447733 
L 138.964991 39.921294 
L 140.749301 40.381773 
L 143.425767 41.034096 
L 144.317922 41.265905 
L 146.994387 41.888651 
L 147.886542 42.110203 
L 150.860393 42.771281 
L 151.752548 42.992596 
L 154.429013 43.599063 
L 155.321168 43.816656 
L 157.402863 44.270949 
L 158.295019 44.532542 
L 159.484559 44.713124 
L 162.458409 45.368418 
L 164.540104 45.786307 
L 165.729644 46.0767 
L 166.6218 46.245229 
L 169.00088 46.728902 
L 171.082575 47.161617 
L 171.97473 47.325615 
L 175.245966 47.914743 
L 176.435506 48.186734 
L 177.625046 48.345816 
L 178.219816 48.50381 
L 181.193666 49.005651 
L 181.788436 49.15543 
L 184.167517 49.573668 
L 185.357057 49.845619 
L 186.249212 50.003646 
L 188.925677 50.484929 
L 189.817832 50.656615 
L 193.089068 51.236815 
L 193.981223 51.420345 
L 196.360303 51.869834 
L 197.252458 52.044532 
L 199.631538 52.4621 
L 200.226309 52.574871 
L 201.118464 52.757313 
L 203.794929 53.233072 
L 204.389699 53.386666 
L 207.363549 53.879741 
L 207.958319 54.031738 
L 210.93217 54.538175 
L 211.52694 54.689702 
L 214.203405 55.169598 
L 215.987715 55.481928 
L 216.2851 55.481928 
L 216.879871 55.630896 
L 219.258951 56.036699 
L 219.853721 56.141359 
L 220.745876 56.305913 
L 222.827571 56.649074 
L 223.422341 56.750896 
L 224.314496 56.916602 
L 226.693577 57.340246 
L 227.585732 57.508188 
L 229.964812 57.895077 
L 230.559582 57.995462 
L 231.451737 58.157256 
L 233.830818 58.594177 
L 236.804668 59.127581 
L 237.399438 59.206822 
L 240.075903 59.643083 
L 240.968058 59.805736 
L 243.644524 60.252591 
L 244.536679 60.40981 
L 247.213144 60.833763 
L 248.105299 60.991017 
L 251.07915 61.468985 
L 251.971305 61.623745 
L 255.83731 62.22657 
L 260.000701 62.947462 
L 260.892856 63.058157 
L 265.353631 63.714448 
L 268.624867 64.250586 
L 272.490872 64.825234 
L 273.680412 64.998908 
L 276.356878 65.398884 
L 277.546418 65.579485 
L 281.709808 66.13602 
L 282.304578 66.246054 
L 285.278429 66.642952 
L 286.765354 66.878155 
L 287.360124 66.975592 
L 288.847049 67.131977 
L 290.036589 67.28288 
L 293.60521 67.747993 
L 294.79475 67.927632 
L 299.850295 68.582694 
L 304.905841 69.238935 
L 309.366617 69.781528 
L 310.556157 69.935015 
L 314.719547 70.480442 
L 315.909087 70.624846 
L 319.775093 71.094425 
L 321.262018 71.332622 
L 322.154173 71.427524 
L 325.425409 71.858684 
L 326.317564 71.945763 
L 329.588799 72.375892 
L 332.562649 72.755815 
L 337.023425 73.290525 
L 341.186815 73.803227 
L 348.324056 74.56039 
L 349.810981 74.739598 
L 351.000522 74.846511 
L 366.167158 75.903105 
L 373.007014 76.162159 
L 383.415491 76.284849 
L 397.689972 76.047151 
L 403.340288 75.92807 
L 417.317385 75.866904 
L 429.212786 76.369551 
L 431.889251 76.491584 
L 432.186636 76.503068 
L 432.186636 76.503068 
" clip-path="url(#p2a7e0c4976)" style="fill: none; stroke: #ff0000; stroke-width: 1.5; stroke-linecap: square"/>
   </g>
   <g id="patch_3">
    <path d="M 58.106 78.7975 
L 58.106 28.32 
" style="fill: none; stroke: #000000; stroke-width: 0.8; stroke-linejoin: miter; stroke-linecap: square"/>
   </g>
   <g id="patch_4">
    <path d="M 450 78.7975 
L 450 28.32 
" style="fill: none; stroke: #000000; stroke-width: 0.8; stroke-linejoin: miter; stroke-linecap: square"/>
   </g>
   <g id="patch_5">
    <path d="M 58.106 78.7975 
L 450 78.7975 
" style="fill: none; stroke: #000000; stroke-width: 0.8; stroke-linejoin: miter; stroke-linecap: square"/>
   </g>
   <g id="patch_6">
    <path d="M 58.106 28.32 
L 450 28.32 
" style="fill: none; stroke: #000000; stroke-width: 0.8; stroke-linejoin: miter; stroke-linecap: square"/>
   </g>
   <g id="text_12">
    <!-- Error in $x$-position -->
    <g transform="translate(200.413 22.32)scale(0.12 -0.12)">
     <defs>
      <path id="DejaVuSans-45" d="M 628 4666 
L 3578 4666 
L 3578 4134 
L 1259 4134 
L 1259 2753 
L 3481 2753 
L 3481 2222 
L 1259 2222 
L 1259 531 
L 3634 531 
L 3634 0 
L 628 0 
L 628 4666 
z
" transform="scale(0.015625)"/>
      <path id="DejaVuSans-72" d="M 2631 2963 
Q 2534 3019 2420 3045 
Q 2306 3072 2169 3072 
Q 1681 3072 1420 2755 
Q 1159 2438 1159 1844 
L 1159 0 
L 581 0 
L 581 3500 
L 1159 3500 
L 1159 2956 
Q 1341 3275 1631 3429 
Q 1922 3584 2338 3584 
Q 2397 3584 2469 3576 
Q 2541 3569 2628 3553 
L 2631 2963 
z
" transform="scale(0.015625)"/>
      <path id="DejaVuSans-6f" d="M 1959 3097 
Q 1497 3097 1228 2736 
Q 959 2375 959 1747 
Q 959 1119 1226 758 
Q 1494 397 1959 397 
Q 2419 397 2687 759 
Q 2956 1122 2956 1747 
Q 2956 2369 2687 2733 
Q 2419 3097 1959 3097 
z
M 1959 3584 
Q 2709 3584 3137 3096 
Q 3566 2609 3566 1747 
Q 3566 888 3137 398 
Q 2709 -91 1959 -91 
Q 1206 -91 779 398 
Q 353 888 353 1747 
Q 353 2609 779 3096 
Q 1206 3584 1959 3584 
z
" transform="scale(0.015625)"/>
      <path id="DejaVuSans-69" d="M 603 3500 
L 1178 3500 
L 1178 0 
L 603 0 
L 603 3500 
z
M 603 4863 
L 1178 4863 
L 1178 4134 
L 603 4134 
L 603 4863 
z
" transform="scale(0.015625)"/>
      <path id="DejaVuSans-6e" d="M 3513 2113 
L 3513 0 
L 2938 0 
L 2938 2094 
Q 2938 2591 2744 2837 
Q 2550 3084 2163 3084 
Q 1697 3084 1428 2787 
Q 1159 2491 1159 1978 
L 1159 0 
L 581 0 
L 581 3500 
L 1159 3500 
L 1159 2956 
Q 1366 3272 1645 3428 
Q 1925 3584 2291 3584 
Q 2894 3584 3203 3211 
Q 3513 2838 3513 2113 
z
" transform="scale(0.015625)"/>
      <path id="DejaVuSans-2d" d="M 313 2009 
L 1997 2009 
L 1997 1497 
L 313 1497 
L 313 2009 
z
" transform="scale(0.015625)"/>
      <path id="DejaVuSans-70" d="M 1159 525 
L 1159 -1331 
L 581 -1331 
L 581 3500 
L 1159 3500 
L 1159 2969 
Q 1341 3281 1617 3432 
Q 1894 3584 2278 3584 
Q 2916 3584 3314 3078 
Q 3713 2572 3713 1747 
Q 3713 922 3314 415 
Q 2916 -91 2278 -91 
Q 1894 -91 1617 61 
Q 1341 213 1159 525 
z
M 3116 1747 
Q 3116 2381 2855 2742 
Q 2594 3103 2138 3103 
Q 1681 3103 1420 2742 
Q 1159 2381 1159 1747 
Q 1159 1113 1420 752 
Q 1681 391 2138 391 
Q 2594 391 2855 752 
Q 3116 1113 3116 1747 
z
" transform="scale(0.015625)"/>
      <path id="DejaVuSans-74" d="M 1172 4494 
L 1172 3500 
L 2356 3500 
L 2356 3053 
L 1172 3053 
L 1172 1153 
Q 1172 725 1289 603 
Q 1406 481 1766 481 
L 2356 481 
L 2356 0 
L 1766 0 
Q 1100 0 847 248 
Q 594 497 594 1153 
L 594 3053 
L 172 3053 
L 172 3500 
L 594 3500 
L 594 4494 
L 1172 4494 
z
" transform="scale(0.015625)"/>
     </defs>
     <use xlink:href="#DejaVuSans-45" transform="translate(0 0.015625)"/>
     <use xlink:href="#DejaVuSans-72" transform="translate(63.183594 0.015625)"/>
     <use xlink:href="#DejaVuSans-72" transform="translate(104.296875 0.015625)"/>
     <use xlink:href="#DejaVuSans-6f" transform="translate(145.410156 0.015625)"/>
     <use xlink:href="#DejaVuSans-72" transform="translate(206.591797 0.015625)"/>
     <use xlink:href="#DejaVuSans-20" transform="translate(247.705078 0.015625)"/>
     <use xlink:href="#DejaVuSans-69" transform="translate(279.492188 0.015625)"/>
     <use xlink:href="#DejaVuSans-6e" transform="translate(307.275391 0.015625)"/>
     <use xlink:href="#DejaVuSans-20" transform="translate(370.654297 0.015625)"/>
     <use xlink:href="#DejaVuSans-Oblique-78" transform="translate(402.441406 0.015625)"/>
     <use xlink:href="#DejaVuSans-2d" transform="translate(461.621094 0.015625)"/>
     <use xlink:href="#DejaVuSans-70" transform="translate(497.705078 0.015625)"/>
     <use xlink:href="#DejaVuSans-6f" transform="translate(561.181641 0.015625)"/>
     <use xlink:href="#DejaVuSans-73" transform="translate(622.363281 0.015625)"/>
     <use xlink:href="#DejaVuSans-69" transform="translate(674.462891 0.015625)"/>
     <use xlink:href="#DejaVuSans-74" transform="translate(702.246094 0.015625)"/>
     <use xlink:href="#DejaVuSans-69" transform="translate(741.455078 0.015625)"/>
     <use xlink:href="#DejaVuSans-6f" transform="translate(769.238281 0.015625)"/>
     <use xlink:href="#DejaVuSans-6e" transform="translate(830.419922 0.015625)"/>
    </g>
   </g>
  </g>
  <g id="axes_2">
   <g id="patch_7">
    <path d="M 58.106 190.3975 
L 450 190.3975 
L 450 139.92 
L 58.106 139.92 
z
" style="fill: #ffffff"/>
   </g>
   <g id="matplotlib.axis_3">
    <g id="xtick_8">
     <g id="line2d_20">
      <path d="M 75.919364 190.3975 
L 75.919364 139.92 
" clip-path="url(#p1e66897fbc)" style="fill: none; stroke: #b0b0b0; stroke-width: 0.8; stroke-linecap: square"/>
     </g>
     <g id="line2d_21">
      <g>
       <use xlink:href="#m358edf13ee" x="75.919364" y="190.3975" style="stroke: #000000; stroke-width: 0.8"/>
      </g>
     </g>
     <g id="text_13">
      <!-- 0 -->
      <g transform="translate(72.738114 204.995937)scale(0.1 -0.1)">
       <use xlink:href="#DejaVuSans-30"/>
      </g>
     </g>
    </g>
    <g id="xtick_9">
     <g id="line2d_22">
      <path d="M 135.346765 190.3975 
L 135.346765 139.92 
" clip-path="url(#p1e66897fbc)" style="fill: none; stroke: #b0b0b0; stroke-width: 0.8; stroke-linecap: square"/>
     </g>
     <g id="line2d_23">
      <g>
       <use xlink:href="#m358edf13ee" x="135.346765" y="190.3975" style="stroke: #000000; stroke-width: 0.8"/>
      </g>
     </g>
     <g id="text_14">
      <!-- 2 -->
      <g transform="translate(132.165515 204.995937)scale(0.1 -0.1)">
       <use xlink:href="#DejaVuSans-32"/>
      </g>
     </g>
    </g>
    <g id="xtick_10">
     <g id="line2d_24">
      <path d="M 194.774167 190.3975 
L 194.774167 139.92 
" clip-path="url(#p1e66897fbc)" style="fill: none; stroke: #b0b0b0; stroke-width: 0.8; stroke-linecap: square"/>
     </g>
     <g id="line2d_25">
      <g>
       <use xlink:href="#m358edf13ee" x="194.774167" y="190.3975" style="stroke: #000000; stroke-width: 0.8"/>
      </g>
     </g>
     <g id="text_15">
      <!-- 4 -->
      <g transform="translate(191.592917 204.995937)scale(0.1 -0.1)">
       <use xlink:href="#DejaVuSans-34"/>
      </g>
     </g>
    </g>
    <g id="xtick_11">
     <g id="line2d_26">
      <path d="M 254.201569 190.3975 
L 254.201569 139.92 
" clip-path="url(#p1e66897fbc)" style="fill: none; stroke: #b0b0b0; stroke-width: 0.8; stroke-linecap: square"/>
     </g>
     <g id="line2d_27">
      <g>
       <use xlink:href="#m358edf13ee" x="254.201569" y="190.3975" style="stroke: #000000; stroke-width: 0.8"/>
      </g>
     </g>
     <g id="text_16">
      <!-- 6 -->
      <g transform="translate(251.020319 204.995937)scale(0.1 -0.1)">
       <use xlink:href="#DejaVuSans-36"/>
      </g>
     </g>
    </g>
    <g id="xtick_12">
     <g id="line2d_28">
      <path d="M 313.62897 190.3975 
L 313.62897 139.92 
" clip-path="url(#p1e66897fbc)" style="fill: none; stroke: #b0b0b0; stroke-width: 0.8; stroke-linecap: square"/>
     </g>
     <g id="line2d_29">
      <g>
       <use xlink:href="#m358edf13ee" x="313.62897" y="190.3975" style="stroke: #000000; stroke-width: 0.8"/>
      </g>
     </g>
     <g id="text_17">
      <!-- 8 -->
      <g transform="translate(310.44772 204.995937)scale(0.1 -0.1)">
       <use xlink:href="#DejaVuSans-38"/>
      </g>
     </g>
    </g>
    <g id="xtick_13">
     <g id="line2d_30">
      <path d="M 373.056372 190.3975 
L 373.056372 139.92 
" clip-path="url(#p1e66897fbc)" style="fill: none; stroke: #b0b0b0; stroke-width: 0.8; stroke-linecap: square"/>
     </g>
     <g id="line2d_31">
      <g>
       <use xlink:href="#m358edf13ee" x="373.056372" y="190.3975" style="stroke: #000000; stroke-width: 0.8"/>
      </g>
     </g>
     <g id="text_18">
      <!-- 10 -->
      <g transform="translate(366.693872 204.995937)scale(0.1 -0.1)">
       <use xlink:href="#DejaVuSans-31"/>
       <use xlink:href="#DejaVuSans-30" x="63.623047"/>
      </g>
     </g>
    </g>
    <g id="xtick_14">
     <g id="line2d_32">
      <path d="M 432.483773 190.3975 
L 432.483773 139.92 
" clip-path="url(#p1e66897fbc)" style="fill: none; stroke: #b0b0b0; stroke-width: 0.8; stroke-linecap: square"/>
     </g>
     <g id="line2d_33">
      <g>
       <use xlink:href="#m358edf13ee" x="432.483773" y="190.3975" style="stroke: #000000; stroke-width: 0.8"/>
      </g>
     </g>
     <g id="text_19">
      <!-- 12 -->
      <g transform="translate(426.121273 204.995937)scale(0.1 -0.1)">
       <use xlink:href="#DejaVuSans-31"/>
       <use xlink:href="#DejaVuSans-32" x="63.623047"/>
      </g>
     </g>
    </g>
    <g id="text_20">
     <!-- $t$ [s] -->
     <g transform="translate(243.953 218.674062)scale(0.1 -0.1)">
      <use xlink:href="#DejaVuSans-Oblique-74" transform="translate(0 0.015625)"/>
      <use xlink:href="#DejaVuSans-20" transform="translate(39.208984 0.015625)"/>
      <use xlink:href="#DejaVuSans-5b" transform="translate(70.996094 0.015625)"/>
      <use xlink:href="#DejaVuSans-73" transform="translate(110.009766 0.015625)"/>
      <use xlink:href="#DejaVuSans-5d" transform="translate(162.109375 0.015625)"/>
     </g>
    </g>
   </g>
   <g id="matplotlib.axis_4">
    <g id="ytick_3">
     <g id="line2d_34">
      <path d="M 58.106 181.009111 
L 450 181.009111 
" clip-path="url(#p1e66897fbc)" style="fill: none; stroke: #b0b0b0; stroke-width: 0.8; stroke-linecap: square"/>
     </g>
     <g id="line2d_35">
      <g>
       <use xlink:href="#m6ddd745f55" x="58.106" y="181.009111" style="stroke: #000000; stroke-width: 0.8"/>
      </g>
     </g>
     <g id="text_21">
      <!-- −0.1 -->
      <g transform="translate(26.823188 184.80833)scale(0.1 -0.1)">
       <defs>
        <path id="DejaVuSans-2212" d="M 678 2272 
L 4684 2272 
L 4684 1741 
L 678 1741 
L 678 2272 
z
" transform="scale(0.015625)"/>
        <path id="DejaVuSans-2e" d="M 684 794 
L 1344 794 
L 1344 0 
L 684 0 
L 684 794 
z
" transform="scale(0.015625)"/>
       </defs>
       <use xlink:href="#DejaVuSans-2212"/>
       <use xlink:href="#DejaVuSans-30" x="83.789062"/>
       <use xlink:href="#DejaVuSans-2e" x="147.412109"/>
       <use xlink:href="#DejaVuSans-31" x="179.199219"/>
      </g>
     </g>
    </g>
    <g id="ytick_4">
     <g id="line2d_36">
      <path d="M 58.106 166.030632 
L 450 166.030632 
" clip-path="url(#p1e66897fbc)" style="fill: none; stroke: #b0b0b0; stroke-width: 0.8; stroke-linecap: square"/>
     </g>
     <g id="line2d_37">
      <g>
       <use xlink:href="#m6ddd745f55" x="58.106" y="166.030632" style="stroke: #000000; stroke-width: 0.8"/>
      </g>
     </g>
     <g id="text_22">
      <!-- 0.0 -->
      <g transform="translate(35.202875 169.829851)scale(0.1 -0.1)">
       <use xlink:href="#DejaVuSans-30"/>
       <use xlink:href="#DejaVuSans-2e" x="63.623047"/>
       <use xlink:href="#DejaVuSans-30" x="95.410156"/>
      </g>
     </g>
    </g>
    <g id="ytick_5">
     <g id="line2d_38">
      <path d="M 58.106 151.052153 
L 450 151.052153 
" clip-path="url(#p1e66897fbc)" style="fill: none; stroke: #b0b0b0; stroke-width: 0.8; stroke-linecap: square"/>
     </g>
     <g id="line2d_39">
      <g>
       <use xlink:href="#m6ddd745f55" x="58.106" y="151.052153" style="stroke: #000000; stroke-width: 0.8"/>
      </g>
     </g>
     <g id="text_23">
      <!-- 0.1 -->
      <g transform="translate(35.202875 154.851372)scale(0.1 -0.1)">
       <use xlink:href="#DejaVuSans-30"/>
       <use xlink:href="#DejaVuSans-2e" x="63.623047"/>
       <use xlink:href="#DejaVuSans-31" x="95.410156"/>
      </g>
     </g>
    </g>
    <g id="text_24">
     <!-- $e_z$ [m] -->
     <g transform="translate(20.7435 180.60875)rotate(-90)scale(0.1 -0.1)">
      <defs>
       <path id="DejaVuSans-Oblique-7a" d="M 744 3500 
L 3475 3500 
L 3372 2975 
L 738 459 
L 2913 459 
L 2822 0 
L -19 0 
L 84 525 
L 2719 3041 
L 653 3041 
L 744 3500 
z
" transform="scale(0.015625)"/>
      </defs>
      <use xlink:href="#DejaVuSans-Oblique-65" transform="translate(0 0.015625)"/>
      <use xlink:href="#DejaVuSans-Oblique-7a" transform="translate(61.523438 -16.390625)scale(0.7)"/>
      <use xlink:href="#DejaVuSans-20" transform="translate(101.000977 0.015625)"/>
      <use xlink:href="#DejaVuSans-5b" transform="translate(132.788086 0.015625)"/>
      <use xlink:href="#DejaVuSans-6d" transform="translate(171.801758 0.015625)"/>
      <use xlink:href="#DejaVuSans-5d" transform="translate(269.213867 0.015625)"/>
     </g>
    </g>
   </g>
   <g id="line2d_40">
    <path d="M 75.919364 167.437454 
L 76.514134 167.225796 
L 78.298444 165.804547 
L 78.595829 165.469545 
L 79.487984 165.094866 
L 80.380139 164.915535 
L 81.272294 164.995866 
L 82.461834 165.084017 
L 83.35399 164.893338 
L 83.94876 164.573707 
L 84.54353 164.009912 
L 85.435685 163.285079 
L 86.32784 162.164206 
L 89.30169 159.986523 
L 89.89646 159.179426 
L 90.788615 158.160128 
L 91.680771 156.519711 
L 92.275541 155.70461 
L 92.870311 154.917358 
L 93.167696 154.917358 
L 93.465081 154.544897 
L 94.654621 154.102225 
L 96.141546 154.212042 
L 98.818011 155.016185 
L 100.007552 155.006973 
L 100.602322 154.783831 
L 101.791862 154.275891 
L 103.576172 152.686661 
L 104.765712 151.218551 
L 105.063097 150.956536 
L 105.360482 150.463318 
L 105.657867 150.463318 
L 105.955252 149.852318 
L 106.847407 149.489045 
L 107.442177 149.209603 
L 110.416028 148.150164 
L 110.713413 147.866671 
L 111.010798 147.866671 
L 111.308183 147.412361 
L 111.902953 147.179198 
L 112.200338 147.025993 
L 112.497723 146.740737 
L 113.389878 146.252407 
L 113.687263 146.088417 
L 113.984648 146.088417 
L 114.579418 145.761506 
L 116.363728 144.596086 
L 116.958499 143.937285 
L 117.553269 143.597694 
L 117.850654 143.156708 
L 119.040194 142.327224 
L 119.634964 142.223429 
L 120.527119 142.277284 
L 121.121889 142.599248 
L 122.311429 143.223636 
L 122.608814 143.733721 
L 122.906199 143.733721 
L 123.203584 144.200972 
L 124.095739 144.982636 
L 125.28528 146.591181 
L 125.88005 147.180106 
L 126.177435 147.881342 
L 126.47482 147.881342 
L 126.772205 148.398329 
L 129.151285 150.201058 
L 129.44867 150.340761 
L 130.04344 150.751506 
L 130.935595 151.441836 
L 131.23298 151.441836 
L 131.82775 151.996056 
L 132.42252 152.51523 
L 132.719905 152.955887 
L 133.01729 152.955887 
L 133.314676 153.40625 
L 134.206831 154.176941 
L 134.504216 154.584969 
L 136.288526 155.786251 
L 136.585911 155.786251 
L 137.180681 156.161566 
L 137.775451 156.463666 
L 138.072836 156.711559 
L 138.370221 156.711559 
L 138.964991 157.100625 
L 139.857146 157.707274 
L 140.154531 157.707274 
L 140.749301 158.106446 
L 141.344071 158.419957 
L 141.938842 158.757968 
L 144.912692 159.895659 
L 146.697002 161.132795 
L 149.076082 163.777857 
L 149.373467 164.389039 
L 150.563008 165.680802 
L 151.752548 167.589718 
L 152.347318 168.308552 
L 153.536858 170.252966 
L 154.429013 171.401385 
L 154.726398 172.020123 
L 156.213323 173.592064 
L 156.510708 174.131604 
L 157.402863 174.92288 
L 157.997633 175.827636 
L 158.295019 176.211728 
L 158.592404 176.339183 
L 159.781944 177.470719 
L 160.079329 177.956001 
L 160.971484 178.64094 
L 161.268869 179.057396 
L 161.566254 179.057396 
L 161.863639 179.597747 
L 162.458409 179.819845 
L 163.945334 180.349588 
L 166.919185 180.531956 
L 169.59565 181.558033 
L 170.487805 181.582549 
L 173.461655 181.006822 
L 174.056425 181.056813 
L 174.35381 181.274208 
L 174.948581 181.426179 
L 176.732891 182.002516 
L 177.625046 181.968938 
L 177.922431 181.778118 
L 178.814586 181.567091 
L 179.706741 181.099685 
L 180.598896 180.871751 
L 180.896281 180.739294 
L 182.383206 180.849336 
L 183.572747 181.701992 
L 184.167517 181.928482 
L 184.464902 182.187725 
L 185.654442 182.494999 
L 186.546597 182.452532 
L 187.736137 182.282327 
L 188.628292 182.080807 
L 189.520447 182.024052 
L 190.709987 182.416097 
L 193.386453 184.398726 
L 194.575993 184.716811 
L 195.765533 184.814702 
L 197.549843 184.985633 
L 198.441998 185.269416 
L 199.036768 185.632211 
L 199.631538 185.913765 
L 199.928924 186.277944 
L 200.226309 186.277944 
L 200.523694 186.547454 
L 201.713234 186.933499 
L 202.308004 187.046776 
L 203.200159 186.981023 
L 204.389699 186.65774 
L 205.579239 186.469509 
L 206.768779 186.629117 
L 207.066164 186.783243 
L 207.363549 186.783243 
L 207.660934 187.040471 
L 210.3374 187.320598 
L 210.634785 187.198717 
L 210.93217 187.198717 
L 211.229555 186.970057 
L 212.12171 186.791502 
L 213.013865 186.546869 
L 214.203405 186.620799 
L 217.177256 187.38889 
L 218.069411 187.393041 
L 218.664181 187.227405 
L 219.258951 187.080021 
L 219.556336 186.881725 
L 219.853721 186.881725 
L 220.448491 186.64052 
L 221.638031 186.413279 
L 222.530186 186.501627 
L 222.827571 186.570843 
L 223.124956 186.808574 
L 223.422341 186.808574 
L 224.017111 187.157526 
L 225.801422 187.75847 
L 226.693577 187.6951 
L 227.585732 187.417066 
L 229.667427 186.919485 
L 230.559582 187.005083 
L 231.451737 187.333943 
L 232.343892 187.698426 
L 232.938662 187.960137 
L 233.830818 188.103068 
L 235.020358 187.911072 
L 235.912513 187.553536 
L 236.804668 187.191218 
L 238.291593 187.190747 
L 239.183748 187.474022 
L 241.562829 188.065734 
L 242.454984 187.994885 
L 243.941909 187.504153 
L 244.239294 187.504153 
L 244.834064 187.302446 
L 246.023604 187.210496 
L 247.213144 187.392818 
L 248.105299 187.599708 
L 249.294839 187.706988 
L 250.781765 187.493681 
L 252.566075 187.079062 
L 253.755615 186.915775 
L 259.108546 186.626385 
L 260.298086 186.415542 
L 261.190241 186.155268 
L 264.758861 185.41942 
L 267.435327 185.23943 
L 268.030097 185.060899 
L 269.219637 184.723111 
L 269.814407 184.443881 
L 271.598717 183.912107 
L 272.788257 183.910804 
L 275.762108 184.047793 
L 276.356878 183.92825 
L 277.249033 183.614448 
L 278.141188 183.283439 
L 278.735958 183.019034 
L 280.520268 182.575073 
L 281.709808 182.573213 
L 282.601963 182.658399 
L 284.386274 182.687121 
L 285.575814 182.49777 
L 289.144434 181.990966 
L 292.41567 181.877275 
L 294.497365 181.619254 
L 297.17383 181.66541 
L 298.36337 181.684304 
L 303.121531 181.290768 
L 306.987536 181.543683 
L 308.474462 181.347655 
L 311.448312 180.956348 
L 312.935237 181.114347 
L 314.422162 181.388288 
L 315.909087 181.460319 
L 317.098628 181.311051 
L 319.477708 181.057359 
L 320.667248 181.090803 
L 322.748943 181.585494 
L 323.938483 181.812887 
L 325.128024 181.928913 
L 326.912334 181.763998 
L 328.101874 181.541081 
L 329.588799 181.396145 
L 330.778339 181.65324 
L 332.265264 182.09568 
L 332.860034 182.309603 
L 333.75219 182.47528 
L 335.5365 182.367357 
L 337.618195 182.367638 
L 339.10512 182.615676 
L 341.186815 183.122083 
L 344.458051 183.728288 
L 347.729286 183.61506 
L 348.324056 183.750637 
L 349.216211 184.06269 
L 350.108367 184.352244 
L 350.405752 184.699898 
L 351.000522 184.883074 
L 351.595292 185.174187 
L 352.190062 185.452696 
L 353.379602 185.613505 
L 353.974372 185.524548 
L 354.866527 185.375033 
L 355.758682 185.071655 
L 356.650837 184.94464 
L 357.840377 184.89122 
L 359.029918 184.818505 
L 360.219458 184.526168 
L 360.516843 184.271386 
L 360.814228 184.271386 
L 361.111613 183.760264 
L 361.706383 183.460335 
L 362.598538 182.755545 
L 362.895923 182.409259 
L 364.085463 181.856699 
L 364.382848 181.856699 
L 364.977618 181.735777 
L 365.869773 181.630463 
L 367.356699 181.054129 
L 367.654084 180.675749 
L 367.951469 180.675749 
L 368.248854 179.996403 
L 368.843624 179.640354 
L 369.141009 179.409426 
L 369.438394 178.976764 
L 371.222704 177.903412 
L 372.412244 177.785047 
L 373.601784 177.675885 
L 375.08871 177.128023 
L 375.386095 176.61747 
L 375.980865 176.363632 
L 377.46779 175.710778 
L 378.359945 175.800049 
L 379.549485 175.928179 
L 380.144255 175.799172 
L 380.739025 175.511062 
L 381.03641 175.256946 
L 381.63118 174.946657 
L 381.928565 174.478101 
L 382.523335 173.908621 
L 382.82072 173.620532 
L 383.415491 173.389262 
L 383.712876 173.173589 
L 384.307646 173.075485 
L 385.199801 173.214283 
L 385.794571 173.528958 
L 386.984111 173.859798 
L 387.578881 173.822366 
L 388.768421 173.302435 
L 389.363191 172.672224 
L 389.957961 171.947679 
L 390.552731 171.595556 
L 390.850116 171.161994 
L 392.039657 170.459211 
L 393.229197 170.404705 
L 395.013507 170.460618 
L 395.310892 170.352287 
L 395.608277 170.115888 
L 395.905662 170.115888 
L 396.500432 169.569074 
L 397.095202 169.002263 
L 397.392587 168.538284 
L 397.689972 168.538284 
L 397.987357 168.102218 
L 399.176897 167.331501 
L 400.069053 167.26369 
L 401.258593 167.419182 
L 401.853363 167.500579 
L 402.745518 167.379803 
L 404.529828 166.170108 
L 404.827213 165.808094 
L 405.719368 165.465667 
L 406.314138 165.40065 
L 406.611523 165.40065 
L 408.098448 166.116577 
L 408.395834 166.35064 
L 409.287989 166.541741 
L 409.882759 166.521951 
L 411.667069 165.563753 
L 412.559224 164.680939 
L 413.451379 164.127704 
L 413.748764 164.127704 
L 414.046149 163.946432 
L 415.533074 163.931019 
L 416.127844 164.100608 
L 417.61477 164.345932 
L 418.506925 164.198157 
L 420.886005 162.434794 
L 421.77816 162.126484 
L 422.37293 162.202995 
L 422.9677 162.399649 
L 424.15724 163.049495 
L 425.049396 163.204267 
L 425.644166 163.118194 
L 426.536321 162.790399 
L 428.320631 161.391371 
L 428.915401 161.108219 
L 429.807556 161.120203 
L 430.402326 161.434191 
L 430.699711 161.688377 
L 430.997096 161.688377 
L 431.591866 162.329942 
L 432.186636 162.894988 
L 432.186636 162.894988 
" clip-path="url(#p1e66897fbc)" style="fill: none; stroke: #0000ff; stroke-width: 1.5; stroke-linecap: square"/>
   </g>
   <g id="patch_8">
    <path d="M 58.106 190.3975 
L 58.106 139.92 
" style="fill: none; stroke: #000000; stroke-width: 0.8; stroke-linejoin: miter; stroke-linecap: square"/>
   </g>
   <g id="patch_9">
    <path d="M 450 190.3975 
L 450 139.92 
" style="fill: none; stroke: #000000; stroke-width: 0.8; stroke-linejoin: miter; stroke-linecap: square"/>
   </g>
   <g id="patch_10">
    <path d="M 58.106 190.3975 
L 450 190.3975 
" style="fill: none; stroke: #000000; stroke-width: 0.8; stroke-linejoin: miter; stroke-linecap: square"/>
   </g>
   <g id="patch_11">
    <path d="M 58.106 139.92 
L 450 139.92 
" style="fill: none; stroke: #000000; stroke-width: 0.8; stroke-linejoin: miter; stroke-linecap: square"/>
   </g>
   <g id="text_25">
    <!-- Error in $z$-position -->
    <g transform="translate(200.773 133.92)scale(0.12 -0.12)">
     <use xlink:href="#DejaVuSans-45" transform="translate(0 0.015625)"/>
     <use xlink:href="#DejaVuSans-72" transform="translate(63.183594 0.015625)"/>
     <use xlink:href="#DejaVuSans-72" transform="translate(104.296875 0.015625)"/>
     <use xlink:href="#DejaVuSans-6f" transform="translate(145.410156 0.015625)"/>
     <use xlink:href="#DejaVuSans-72" transform="translate(206.591797 0.015625)"/>
     <use xlink:href="#DejaVuSans-20" transform="translate(247.705078 0.015625)"/>
     <use xlink:href="#DejaVuSans-69" transform="translate(279.492188 0.015625)"/>
     <use xlink:href="#DejaVuSans-6e" transform="translate(307.275391 0.015625)"/>
     <use xlink:href="#DejaVuSans-20" transform="translate(370.654297 0.015625)"/>
     <use xlink:href="#DejaVuSans-Oblique-7a" transform="translate(402.441406 0.015625)"/>
     <use xlink:href="#DejaVuSans-2d" transform="translate(454.931641 0.015625)"/>
     <use xlink:href="#DejaVuSans-70" transform="translate(491.015625 0.015625)"/>
     <use xlink:href="#DejaVuSans-6f" transform="translate(554.492188 0.015625)"/>
     <use xlink:href="#DejaVuSans-73" transform="translate(615.673828 0.015625)"/>
     <use xlink:href="#DejaVuSans-69" transform="translate(667.773438 0.015625)"/>
     <use xlink:href="#DejaVuSans-74" transform="translate(695.556641 0.015625)"/>
     <use xlink:href="#DejaVuSans-69" transform="translate(734.765625 0.015625)"/>
     <use xlink:href="#DejaVuSans-6f" transform="translate(762.548828 0.015625)"/>
     <use xlink:href="#DejaVuSans-6e" transform="translate(823.730469 0.015625)"/>
    </g>
   </g>
  </g>
  <g id="axes_3">
   <g id="patch_12">
    <path d="M 58.106 301.9975 
L 450 301.9975 
L 450 251.52 
L 58.106 251.52 
z
" style="fill: #ffffff"/>
   </g>
   <g id="matplotlib.axis_5">
    <g id="xtick_15">
     <g id="line2d_41">
      <path d="M 75.919364 301.9975 
L 75.919364 251.52 
" clip-path="url(#p60430b5255)" style="fill: none; stroke: #b0b0b0; stroke-width: 0.8; stroke-linecap: square"/>
     </g>
     <g id="line2d_42">
      <g>
       <use xlink:href="#m358edf13ee" x="75.919364" y="301.9975" style="stroke: #000000; stroke-width: 0.8"/>
      </g>
     </g>
     <g id="text_26">
      <!-- 0 -->
      <g transform="translate(72.738114 316.595937)scale(0.1 -0.1)">
       <use xlink:href="#DejaVuSans-30"/>
      </g>
     </g>
    </g>
    <g id="xtick_16">
     <g id="line2d_43">
      <path d="M 135.346765 301.9975 
L 135.346765 251.52 
" clip-path="url(#p60430b5255)" style="fill: none; stroke: #b0b0b0; stroke-width: 0.8; stroke-linecap: square"/>
     </g>
     <g id="line2d_44">
      <g>
       <use xlink:href="#m358edf13ee" x="135.346765" y="301.9975" style="stroke: #000000; stroke-width: 0.8"/>
      </g>
     </g>
     <g id="text_27">
      <!-- 2 -->
      <g transform="translate(132.165515 316.595937)scale(0.1 -0.1)">
       <use xlink:href="#DejaVuSans-32"/>
      </g>
     </g>
    </g>
    <g id="xtick_17">
     <g id="line2d_45">
      <path d="M 194.774167 301.9975 
L 194.774167 251.52 
" clip-path="url(#p60430b5255)" style="fill: none; stroke: #b0b0b0; stroke-width: 0.8; stroke-linecap: square"/>
     </g>
     <g id="line2d_46">
      <g>
       <use xlink:href="#m358edf13ee" x="194.774167" y="301.9975" style="stroke: #000000; stroke-width: 0.8"/>
      </g>
     </g>
     <g id="text_28">
      <!-- 4 -->
      <g transform="translate(191.592917 316.595937)scale(0.1 -0.1)">
       <use xlink:href="#DejaVuSans-34"/>
      </g>
     </g>
    </g>
    <g id="xtick_18">
     <g id="line2d_47">
      <path d="M 254.201569 301.9975 
L 254.201569 251.52 
" clip-path="url(#p60430b5255)" style="fill: none; stroke: #b0b0b0; stroke-width: 0.8; stroke-linecap: square"/>
     </g>
     <g id="line2d_48">
      <g>
       <use xlink:href="#m358edf13ee" x="254.201569" y="301.9975" style="stroke: #000000; stroke-width: 0.8"/>
      </g>
     </g>
     <g id="text_29">
      <!-- 6 -->
      <g transform="translate(251.020319 316.595937)scale(0.1 -0.1)">
       <use xlink:href="#DejaVuSans-36"/>
      </g>
     </g>
    </g>
    <g id="xtick_19">
     <g id="line2d_49">
      <path d="M 313.62897 301.9975 
L 313.62897 251.52 
" clip-path="url(#p60430b5255)" style="fill: none; stroke: #b0b0b0; stroke-width: 0.8; stroke-linecap: square"/>
     </g>
     <g id="line2d_50">
      <g>
       <use xlink:href="#m358edf13ee" x="313.62897" y="301.9975" style="stroke: #000000; stroke-width: 0.8"/>
      </g>
     </g>
     <g id="text_30">
      <!-- 8 -->
      <g transform="translate(310.44772 316.595937)scale(0.1 -0.1)">
       <use xlink:href="#DejaVuSans-38"/>
      </g>
     </g>
    </g>
    <g id="xtick_20">
     <g id="line2d_51">
      <path d="M 373.056372 301.9975 
L 373.056372 251.52 
" clip-path="url(#p60430b5255)" style="fill: none; stroke: #b0b0b0; stroke-width: 0.8; stroke-linecap: square"/>
     </g>
     <g id="line2d_52">
      <g>
       <use xlink:href="#m358edf13ee" x="373.056372" y="301.9975" style="stroke: #000000; stroke-width: 0.8"/>
      </g>
     </g>
     <g id="text_31">
      <!-- 10 -->
      <g transform="translate(366.693872 316.595937)scale(0.1 -0.1)">
       <use xlink:href="#DejaVuSans-31"/>
       <use xlink:href="#DejaVuSans-30" x="63.623047"/>
      </g>
     </g>
    </g>
    <g id="xtick_21">
     <g id="line2d_53">
      <path d="M 432.483773 301.9975 
L 432.483773 251.52 
" clip-path="url(#p60430b5255)" style="fill: none; stroke: #b0b0b0; stroke-width: 0.8; stroke-linecap: square"/>
     </g>
     <g id="line2d_54">
      <g>
       <use xlink:href="#m358edf13ee" x="432.483773" y="301.9975" style="stroke: #000000; stroke-width: 0.8"/>
      </g>
     </g>
     <g id="text_32">
      <!-- 12 -->
      <g transform="translate(426.121273 316.595937)scale(0.1 -0.1)">
       <use xlink:href="#DejaVuSans-31"/>
       <use xlink:href="#DejaVuSans-32" x="63.623047"/>
      </g>
     </g>
    </g>
    <g id="text_33">
     <!-- $t$ [s] -->
     <g transform="translate(243.953 330.274063)scale(0.1 -0.1)">
      <use xlink:href="#DejaVuSans-Oblique-74" transform="translate(0 0.015625)"/>
      <use xlink:href="#DejaVuSans-20" transform="translate(39.208984 0.015625)"/>
      <use xlink:href="#DejaVuSans-5b" transform="translate(70.996094 0.015625)"/>
      <use xlink:href="#DejaVuSans-73" transform="translate(110.009766 0.015625)"/>
      <use xlink:href="#DejaVuSans-5d" transform="translate(162.109375 0.015625)"/>
     </g>
    </g>
   </g>
   <g id="matplotlib.axis_6">
    <g id="ytick_6">
     <g id="line2d_55">
      <path d="M 58.106 291.00265 
L 450 291.00265 
" clip-path="url(#p60430b5255)" style="fill: none; stroke: #b0b0b0; stroke-width: 0.8; stroke-linecap: square"/>
     </g>
     <g id="line2d_56">
      <g>
       <use xlink:href="#m6ddd745f55" x="58.106" y="291.00265" style="stroke: #000000; stroke-width: 0.8"/>
      </g>
     </g>
     <g id="text_34">
      <!-- −0.1 -->
      <g transform="translate(26.823188 294.801869)scale(0.1 -0.1)">
       <use xlink:href="#DejaVuSans-2212"/>
       <use xlink:href="#DejaVuSans-30" x="83.789062"/>
       <use xlink:href="#DejaVuSans-2e" x="147.412109"/>
       <use xlink:href="#DejaVuSans-31" x="179.199219"/>
      </g>
     </g>
    </g>
    <g id="ytick_7">
     <g id="line2d_57">
      <path d="M 58.106 277.518029 
L 450 277.518029 
" clip-path="url(#p60430b5255)" style="fill: none; stroke: #b0b0b0; stroke-width: 0.8; stroke-linecap: square"/>
     </g>
     <g id="line2d_58">
      <g>
       <use xlink:href="#m6ddd745f55" x="58.106" y="277.518029" style="stroke: #000000; stroke-width: 0.8"/>
      </g>
     </g>
     <g id="text_35">
      <!-- 0.0 -->
      <g transform="translate(35.202875 281.317248)scale(0.1 -0.1)">
       <use xlink:href="#DejaVuSans-30"/>
       <use xlink:href="#DejaVuSans-2e" x="63.623047"/>
       <use xlink:href="#DejaVuSans-30" x="95.410156"/>
      </g>
     </g>
    </g>
    <g id="ytick_8">
     <g id="line2d_59">
      <path d="M 58.106 264.033407 
L 450 264.033407 
" clip-path="url(#p60430b5255)" style="fill: none; stroke: #b0b0b0; stroke-width: 0.8; stroke-linecap: square"/>
     </g>
     <g id="line2d_60">
      <g>
       <use xlink:href="#m6ddd745f55" x="58.106" y="264.033407" style="stroke: #000000; stroke-width: 0.8"/>
      </g>
     </g>
     <g id="text_36">
      <!-- 0.1 -->
      <g transform="translate(35.202875 267.832626)scale(0.1 -0.1)">
       <use xlink:href="#DejaVuSans-30"/>
       <use xlink:href="#DejaVuSans-2e" x="63.623047"/>
       <use xlink:href="#DejaVuSans-31" x="95.410156"/>
      </g>
     </g>
    </g>
    <g id="text_37">
     <!-- $e_\theta$ [rad] -->
     <g transform="translate(20.7435 295.90875)rotate(-90)scale(0.1 -0.1)">
      <defs>
       <path id="DejaVuSans-Oblique-3b8" d="M 2913 2219 
L 925 2219 
Q 791 1284 928 888 
Q 1100 400 1566 400 
Q 2034 400 2391 891 
Q 2703 1322 2913 2219 
z
M 3009 2750 
Q 3094 3638 2984 3950 
Q 2813 4444 2353 4444 
Q 1875 4444 1525 3956 
Q 1250 3563 1034 2750 
L 3009 2750 
z
M 2444 4913 
Q 3194 4913 3494 4250 
Q 3794 3591 3566 2422 
Q 3341 1256 2781 594 
Q 2225 -72 1475 -72 
Q 722 -72 425 594 
Q 128 1256 353 2422 
Q 581 3591 1134 4250 
Q 1691 4913 2444 4913 
z
" transform="scale(0.015625)"/>
       <path id="DejaVuSans-61" d="M 2194 1759 
Q 1497 1759 1228 1600 
Q 959 1441 959 1056 
Q 959 750 1161 570 
Q 1363 391 1709 391 
Q 2188 391 2477 730 
Q 2766 1069 2766 1631 
L 2766 1759 
L 2194 1759 
z
M 3341 1997 
L 3341 0 
L 2766 0 
L 2766 531 
Q 2569 213 2275 61 
Q 1981 -91 1556 -91 
Q 1019 -91 701 211 
Q 384 513 384 1019 
Q 384 1609 779 1909 
Q 1175 2209 1959 2209 
L 2766 2209 
L 2766 2266 
Q 2766 2663 2505 2880 
Q 2244 3097 1772 3097 
Q 1472 3097 1187 3025 
Q 903 2953 641 2809 
L 641 3341 
Q 956 3463 1253 3523 
Q 1550 3584 1831 3584 
Q 2591 3584 2966 3190 
Q 3341 2797 3341 1997 
z
" transform="scale(0.015625)"/>
       <path id="DejaVuSans-64" d="M 2906 2969 
L 2906 4863 
L 3481 4863 
L 3481 0 
L 2906 0 
L 2906 525 
Q 2725 213 2448 61 
Q 2172 -91 1784 -91 
Q 1150 -91 751 415 
Q 353 922 353 1747 
Q 353 2572 751 3078 
Q 1150 3584 1784 3584 
Q 2172 3584 2448 3432 
Q 2725 3281 2906 2969 
z
M 947 1747 
Q 947 1113 1208 752 
Q 1469 391 1925 391 
Q 2381 391 2643 752 
Q 2906 1113 2906 1747 
Q 2906 2381 2643 2742 
Q 2381 3103 1925 3103 
Q 1469 3103 1208 2742 
Q 947 2381 947 1747 
z
" transform="scale(0.015625)"/>
      </defs>
      <use xlink:href="#DejaVuSans-Oblique-65" transform="translate(0 0.015625)"/>
      <use xlink:href="#DejaVuSans-Oblique-3b8" transform="translate(61.523438 -16.390625)scale(0.7)"/>
      <use xlink:href="#DejaVuSans-20" transform="translate(107.084961 0.015625)"/>
      <use xlink:href="#DejaVuSans-5b" transform="translate(138.87207 0.015625)"/>
      <use xlink:href="#DejaVuSans-72" transform="translate(177.885742 0.015625)"/>
      <use xlink:href="#DejaVuSans-61" transform="translate(218.999023 0.015625)"/>
      <use xlink:href="#DejaVuSans-64" transform="translate(280.27832 0.015625)"/>
      <use xlink:href="#DejaVuSans-5d" transform="translate(343.754883 0.015625)"/>
     </g>
    </g>
   </g>
   <g id="line2d_61">
    <path d="M 75.919364 277.463544 
L 76.514134 277.139833 
L 76.811519 276.837509 
L 77.703674 275.098009 
L 78.001059 274.207211 
L 78.298444 272.576091 
L 78.595829 270.206509 
L 79.487984 267.010403 
L 80.380139 264.450813 
L 80.974909 264.462761 
L 81.569679 265.087763 
L 81.867064 265.584133 
L 82.164449 266.514361 
L 82.461834 268.002752 
L 83.651375 271.347247 
L 83.94876 272.650688 
L 84.246145 274.506472 
L 85.1383 277.782312 
L 85.435685 279.029991 
L 86.32784 284.823674 
L 86.92261 286.526841 
L 87.51738 287.479827 
L 87.814765 287.661698 
L 88.409535 287.588393 
L 89.004305 287.389195 
L 89.30169 287.180044 
L 89.89646 286.534382 
L 90.49123 285.876194 
L 90.788615 285.450727 
L 91.086 284.625219 
L 91.680771 282.036434 
L 91.978156 280.899047 
L 92.870311 275.070609 
L 93.167696 275.070609 
L 93.465081 272.62699 
L 94.654621 267.814293 
L 94.952006 267.814293 
L 95.249391 266.907648 
L 95.844161 266.361552 
L 96.438931 266.096202 
L 97.033701 266.407514 
L 97.628471 267.011124 
L 98.223241 267.935987 
L 98.520626 268.855174 
L 98.818011 270.417811 
L 99.710166 273.52469 
L 100.007552 274.764427 
L 100.304937 276.782024 
L 100.602322 279.672226 
L 102.089247 287.793874 
L 102.386632 290.206421 
L 102.981402 291.949816 
L 103.576172 292.884871 
L 103.873557 292.966539 
L 104.765712 290.667073 
L 105.063097 289.65751 
L 105.360482 287.338626 
L 105.657867 287.338626 
L 105.955252 283.485057 
L 106.252637 282.827787 
L 106.847407 280.208952 
L 107.144792 277.681525 
L 107.739562 274.823687 
L 108.036947 273.400768 
L 108.334333 272.988788 
L 108.929103 271.476557 
L 109.226488 271.432 
L 109.523873 271.838046 
L 109.821258 272.788278 
L 110.118643 273.216227 
L 110.416028 274.203017 
L 110.713413 276.490245 
L 111.010798 276.490245 
L 111.308183 280.087153 
L 111.605568 280.638178 
L 112.497723 283.772247 
L 112.795108 284.006736 
L 113.092493 283.905616 
L 113.389878 283.276456 
L 113.687263 282.178863 
L 113.984648 282.178863 
L 114.282033 280.130662 
L 114.579418 278.924156 
L 115.174188 274.93524 
L 115.471573 274.247025 
L 115.768958 272.872128 
L 116.066343 270.190096 
L 116.363728 268.913313 
L 116.958499 265.45567 
L 117.255884 264.939861 
L 117.553269 263.959501 
L 117.850654 262.185907 
L 118.742809 259.606552 
L 119.040194 258.449838 
L 119.337579 258.449838 
L 119.634964 257.575805 
L 120.229734 257.087051 
L 120.527119 257.019 
L 120.824504 257.169827 
L 122.311429 261.006386 
L 122.608814 263.505963 
L 122.906199 263.505963 
L 123.203584 265.465239 
L 124.393124 269.277689 
L 124.690509 270.537359 
L 126.177435 273.478252 
L 126.47482 273.478252 
L 126.772205 274.132605 
L 128.556515 275.931673 
L 130.340825 276.111628 
L 131.23298 276.173521 
L 132.42252 277.041729 
L 132.719905 277.639731 
L 133.01729 277.639731 
L 133.314676 278.379278 
L 133.909446 279.234809 
L 135.098986 281.807226 
L 135.991141 283.254902 
L 136.288526 283.860843 
L 136.585911 283.860843 
L 136.883296 284.279671 
L 137.775451 284.630987 
L 138.667606 284.385459 
L 138.964991 284.237993 
L 139.559761 283.611184 
L 139.857146 283.155799 
L 140.154531 283.155799 
L 140.749301 281.851951 
L 141.046686 281.287557 
L 141.344071 280.328315 
L 141.641457 278.864896 
L 143.128382 274.684182 
L 143.723152 272.33545 
L 145.210077 269.765395 
L 145.507462 268.890447 
L 146.399617 267.270281 
L 146.697002 266.619347 
L 146.994387 265.54723 
L 147.291772 263.948326 
L 148.778697 259.23207 
L 149.670852 255.573995 
L 150.265623 254.506351 
L 150.860393 253.814432 
L 151.157778 253.879533 
L 151.752548 254.381844 
L 152.347318 255.150969 
L 152.644703 255.835805 
L 152.942088 256.825009 
L 154.131628 258.894543 
L 155.023783 261.029713 
L 156.213323 262.824311 
L 156.510708 263.482619 
L 157.402863 264.425863 
L 157.997633 265.576503 
L 158.295019 266.036174 
L 158.592404 266.183503 
L 160.376714 267.805798 
L 160.971484 268.142175 
L 161.268869 268.520369 
L 161.566254 268.520369 
L 161.863639 269.212225 
L 162.161024 269.348268 
L 162.755794 269.970743 
L 163.053179 270.694022 
L 163.350564 271.081055 
L 163.945334 272.269367 
L 164.242719 272.456078 
L 165.134874 273.298425 
L 165.432259 273.228115 
L 167.21657 271.968128 
L 167.81134 271.9684 
L 168.108725 272.091947 
L 168.703495 273.193443 
L 169.893035 277.364676 
L 170.19042 279.960462 
L 170.487805 281.297695 
L 171.082575 284.876663 
L 171.37996 285.360358 
L 171.97473 286.984614 
L 172.272115 286.977535 
L 172.5695 286.45389 
L 172.866885 285.44252 
L 173.16427 285.022515 
L 173.461655 284.077008 
L 173.75904 281.919862 
L 174.056425 281.919862 
L 174.35381 278.597947 
L 174.651195 278.092668 
L 175.543351 275.150948 
L 175.840736 274.884702 
L 176.138121 274.941294 
L 176.435506 275.540622 
L 176.732891 275.850695 
L 177.030276 276.620223 
L 177.327661 278.634145 
L 177.625046 278.634145 
L 177.922431 282.067282 
L 178.219816 282.608111 
L 178.814586 284.346665 
L 179.111971 285.024522 
L 179.409356 284.695059 
L 179.706741 283.684541 
L 180.004126 283.214785 
L 180.598896 280.807138 
L 180.896281 277.801083 
L 181.193666 277.801083 
L 181.491051 272.969107 
L 181.788436 272.17368 
L 182.383206 269.167677 
L 182.680591 266.630666 
L 183.275362 264.73764 
L 183.572747 264.42617 
L 183.870132 264.465521 
L 184.167517 264.753738 
L 185.059672 268.883897 
L 185.357057 270.907575 
L 185.654442 271.604419 
L 185.951827 272.992979 
L 186.249212 275.623625 
L 186.843982 277.558232 
L 187.141367 278.259559 
L 187.438752 278.107803 
L 187.736137 278.107803 
L 188.925677 272.304675 
L 189.223062 269.249385 
L 189.520447 269.249385 
L 189.817832 266.174003 
L 191.304757 259.3342 
L 191.602143 259.162588 
L 191.899528 259.280273 
L 192.196913 259.674685 
L 192.791683 261.235049 
L 193.089068 262.967504 
L 193.386453 265.783055 
L 194.278608 270.394558 
L 194.873378 275.036898 
L 195.468148 276.388087 
L 195.765533 276.622856 
L 196.062918 276.557124 
L 196.360303 275.919885 
L 196.955073 273.158206 
L 198.144613 268.221324 
L 198.739383 264.485217 
L 199.334153 263.155817 
L 199.631538 262.83364 
L 199.928924 263.194936 
L 200.226309 263.194936 
L 200.821079 265.877872 
L 201.713234 270.205667 
L 202.605389 277.268469 
L 203.497544 281.583493 
L 203.794929 281.583493 
L 204.092314 281.973775 
L 204.389699 281.782891 
L 204.984469 280.446812 
L 205.281854 277.790734 
L 205.579239 277.790734 
L 205.876624 275.313276 
L 207.066164 269.778052 
L 207.363549 269.778052 
L 207.660934 268.312473 
L 207.958319 268.2679 
L 208.255705 268.366955 
L 208.55309 268.720314 
L 208.850475 269.319524 
L 209.14786 270.642961 
L 209.445245 273.003395 
L 210.3374 277.167071 
L 210.634785 279.843999 
L 210.93217 279.843999 
L 211.229555 282.624925 
L 212.12171 283.31207 
L 212.419095 282.712144 
L 213.90602 277.119683 
L 214.50079 272.571869 
L 214.798175 270.752176 
L 215.09556 270.173845 
L 215.987715 266.996954 
L 216.2851 266.996954 
L 217.177256 268.757537 
L 217.474641 269.802751 
L 217.772026 272.284984 
L 218.069411 272.284984 
L 218.366796 276.342194 
L 218.664181 276.976703 
L 219.556336 280.585288 
L 219.853721 280.585288 
L 220.151106 280.374954 
L 220.448491 279.876666 
L 221.043261 278.254219 
L 221.340646 277.193543 
L 221.638031 275.369193 
L 221.935416 272.710681 
L 222.827571 268.651186 
L 223.124956 265.562833 
L 223.422341 265.562833 
L 223.719726 263.791244 
L 224.017111 263.282158 
L 224.314496 263.047847 
L 224.611881 263.109132 
L 224.909267 263.758296 
L 225.504037 266.723047 
L 226.396192 270.906541 
L 226.990962 275.551353 
L 227.585732 277.273518 
L 227.883117 277.756288 
L 228.180502 277.967852 
L 228.477887 277.780339 
L 229.370042 274.926819 
L 229.964812 272.773324 
L 230.262197 269.909325 
L 230.559582 269.909325 
L 230.856967 267.632931 
L 231.749122 264.635617 
L 232.343892 263.600073 
L 232.938662 264.895343 
L 233.533433 266.998653 
L 234.425588 274.103335 
L 234.722973 274.813255 
L 235.615128 278.915719 
L 235.912513 279.258836 
L 236.209898 279.239739 
L 236.507283 278.703858 
L 236.804668 277.774126 
L 237.102053 277.774126 
L 237.399438 276.095483 
L 237.994208 274.113138 
L 239.183748 268.333922 
L 239.778518 266.632841 
L 240.075903 265.942174 
L 240.373288 266.106174 
L 240.670673 266.644334 
L 241.265443 268.477877 
L 241.562829 269.691752 
L 241.860214 271.757062 
L 242.157599 274.690861 
L 242.454984 274.690861 
L 242.752369 277.531169 
L 243.644524 280.851517 
L 243.941909 281.15894 
L 244.239294 281.15894 
L 245.131449 278.658865 
L 245.428834 277.045324 
L 245.726219 274.637625 
L 247.510529 266.83796 
L 247.807914 266.641706 
L 248.105299 266.749121 
L 248.402684 267.143544 
L 248.997454 268.697733 
L 249.294839 270.397754 
L 249.592224 273.096993 
L 251.376535 281.668357 
L 251.67392 281.889466 
L 251.971305 281.816801 
L 252.26869 281.463424 
L 252.566075 280.850703 
L 252.86346 279.512292 
L 253.160845 277.112132 
L 254.350385 271.394575 
L 254.945155 266.835671 
L 255.539925 265.203469 
L 255.83731 264.812833 
L 256.134695 264.802063 
L 256.43208 265.867658 
L 256.729465 265.867658 
L 257.324235 269.302849 
L 257.919005 272.299593 
L 258.811161 279.156712 
L 259.703316 282.979446 
L 260.000701 283.734385 
L 260.298086 283.734385 
L 260.892856 282.398726 
L 261.487626 280.128777 
L 261.785011 277.945239 
L 262.082396 274.722765 
L 264.164091 263.026636 
L 264.461476 262.573853 
L 264.758861 262.42108 
L 265.056246 262.568935 
L 265.353631 263.007276 
L 265.651016 264.193316 
L 265.948401 266.613094 
L 266.840557 271.438702 
L 267.137942 274.973152 
L 267.435327 274.973152 
L 267.732712 279.894499 
L 268.030097 280.626021 
L 268.624867 283.109502 
L 269.219637 284.59503 
L 269.517022 284.276712 
L 269.814407 283.643844 
L 270.409177 281.623696 
L 270.706562 280.315307 
L 271.003947 278.09574 
L 271.301332 274.896392 
L 272.193487 269.977829 
L 273.085642 263.609367 
L 273.680412 261.979687 
L 273.977797 261.620471 
L 274.275182 261.605998 
L 274.572567 262.2267 
L 275.167338 265.472323 
L 276.059493 270.372058 
L 276.951648 278.170568 
L 278.141188 283.760867 
L 278.438573 284.677195 
L 278.735958 284.705351 
L 279.033343 284.452836 
L 279.330728 283.941002 
L 279.628113 282.237655 
L 279.925498 282.237655 
L 280.222883 278.351034 
L 280.520268 277.595611 
L 281.115038 274.373722 
L 281.412423 271.036559 
L 281.709808 271.036559 
L 282.007193 266.193508 
L 282.304578 265.461879 
L 283.196733 261.641702 
L 283.494119 261.641702 
L 284.386274 263.697333 
L 284.981044 266.343068 
L 285.278429 268.702517 
L 285.575814 272.079846 
L 286.467969 276.964704 
L 286.765354 279.682439 
L 287.062739 279.682439 
L 287.360124 281.984956 
L 287.954894 282.273329 
L 288.252279 282.151896 
L 288.549664 281.782039 
L 288.847049 280.792593 
L 289.144434 278.757633 
L 290.036589 274.719806 
L 290.333974 273.225349 
L 291.226129 266.684995 
L 292.118285 263.151327 
L 292.41567 263.151327 
L 292.713055 263.539624 
L 293.307825 265.140526 
L 293.60521 266.303827 
L 293.902595 269.17465 
L 294.19998 269.17465 
L 294.497365 274.0993 
L 294.79475 274.92675 
L 295.38952 278.035702 
L 295.686905 280.549065 
L 296.281675 282.453808 
L 296.57906 282.952156 
L 297.17383 282.965365 
L 297.7686 281.364516 
L 298.36337 277.912547 
L 298.660755 275.795688 
L 298.95814 275.795688 
L 299.255525 272.823193 
L 299.850295 269.349505 
L 300.147681 267.704036 
L 300.445066 267.264959 
L 301.039836 266.021187 
L 301.337221 266.156212 
L 301.634606 266.876556 
L 301.931991 268.142749 
L 302.229376 268.668531 
L 302.526761 269.846513 
L 302.824146 272.603505 
L 303.121531 274.10742 
L 304.013686 280.729596 
L 304.311071 280.729596 
L 304.608456 282.990398 
L 305.203226 284.408907 
L 305.500611 284.722849 
L 305.797996 284.065341 
L 306.095381 284.065341 
L 306.690151 281.10894 
L 306.987536 279.764659 
L 307.284921 277.544636 
L 307.582306 274.409923 
L 307.879691 274.409923 
L 308.177076 271.34546 
L 309.069232 267.39273 
L 309.366617 266.116643 
L 309.664002 265.41857 
L 309.961387 265.527013 
L 310.258772 265.927804 
L 310.853542 267.510971 
L 311.150927 270.58959 
L 311.448312 270.58959 
L 311.745697 273.545204 
L 313.827392 284.195673 
L 314.124777 284.730786 
L 314.422162 285.023151 
L 314.719547 284.944114 
L 315.909087 280.246485 
L 316.206472 278.73432 
L 316.503857 274.636471 
L 316.801243 274.636471 
L 317.098628 271.335299 
L 318.288168 264.870759 
L 318.585553 264.870759 
L 318.882938 263.900457 
L 319.180323 263.993262 
L 319.477708 264.38804 
L 319.775093 265.055427 
L 321.262018 275.286883 
L 321.559403 275.286883 
L 321.856788 278.347371 
L 323.046328 283.612686 
L 323.343713 283.612686 
L 323.641098 283.376552 
L 323.938483 282.811503 
L 325.128024 277.614059 
L 325.425409 273.789734 
L 325.722794 273.789734 
L 326.020179 270.713374 
L 327.209719 265.060284 
L 327.507104 264.660788 
L 328.101874 265.219066 
L 328.696644 266.876083 
L 328.994029 269.376948 
L 329.291414 270.829708 
L 330.183569 278.037622 
L 330.480954 278.037622 
L 330.778339 281.093438 
L 331.670494 285.415081 
L 332.265264 285.867821 
L 332.860034 284.558417 
L 333.454805 280.878724 
L 333.75219 278.504576 
L 334.049575 278.504576 
L 334.34696 275.10434 
L 335.239115 269.438199 
L 335.5365 266.891011 
L 336.13127 265.242931 
L 336.428655 264.834353 
L 336.72604 264.770747 
L 337.023425 265.379302 
L 337.32081 266.590889 
L 337.618195 266.590889 
L 337.91558 268.94106 
L 338.51035 271.783089 
L 339.402505 278.424742 
L 340.592045 283.543773 
L 340.88943 284.532632 
L 341.186815 284.61684 
L 341.4842 284.427257 
L 341.781586 283.975102 
L 342.376356 282.343054 
L 342.673741 280.603109 
L 342.971126 277.832595 
L 344.458051 269.991187 
L 344.755436 267.953734 
L 345.350206 266.704898 
L 345.647591 266.408646 
L 345.944976 266.341219 
L 346.242361 266.680473 
L 346.837131 268.787171 
L 348.026671 273.226277 
L 348.918826 278.245876 
L 349.513596 280.144612 
L 349.810981 281.715825 
L 350.108367 281.715825 
L 350.405752 283.008361 
L 351.000522 283.070526 
L 351.297907 282.893296 
L 351.595292 282.302786 
L 351.892677 281.038241 
L 353.082217 278.040491 
L 353.379602 276.81025 
L 353.676987 276.81025 
L 353.974372 275.688892 
L 355.461297 275.10918 
L 356.353452 275.305957 
L 356.650837 275.41509 
L 356.948222 275.64942 
L 357.245607 275.64942 
L 357.542992 275.956557 
L 358.732533 276.012156 
L 359.029918 275.840552 
L 359.327303 275.521591 
L 359.624688 275.378839 
L 360.219458 274.625032 
L 360.516843 273.585196 
L 360.814228 273.585196 
L 361.111613 271.642219 
L 361.408998 271.298207 
L 362.598538 268.686776 
L 362.895923 268.267703 
L 363.193308 268.298045 
L 363.490693 268.47723 
L 363.788078 268.790364 
L 364.085463 269.710387 
L 364.382848 269.710387 
L 364.680233 271.477304 
L 364.977618 271.773077 
L 366.167158 273.881591 
L 366.761929 273.69943 
L 367.356699 272.95171 
L 367.654084 271.779672 
L 367.951469 271.779672 
L 368.248854 269.81539 
L 368.546239 269.523554 
L 369.141009 268.613587 
L 369.438394 268.350951 
L 369.735779 268.498906 
L 370.033164 269.049197 
L 370.330549 269.919092 
L 370.627934 270.266096 
L 370.925319 271.032004 
L 371.222704 272.766913 
L 371.817474 274.693115 
L 372.412244 278.0515 
L 372.709629 278.0515 
L 373.007014 279.658589 
L 373.601784 280.980495 
L 373.899169 281.267117 
L 374.196554 281.266572 
L 374.493939 281.125757 
L 374.791324 280.349226 
L 375.08871 280.349226 
L 375.386095 278.546444 
L 375.68348 278.253039 
L 376.575635 276.669262 
L 377.170405 276.437179 
L 378.06256 276.629045 
L 378.954715 277.822752 
L 379.2521 278.506374 
L 379.549485 278.76334 
L 379.84687 279.317088 
L 380.144255 280.536245 
L 380.44164 281.16599 
L 381.03641 282.902429 
L 381.333795 283.141883 
L 381.928565 283.892962 
L 382.22595 283.829497 
L 382.523335 283.460171 
L 382.82072 282.851266 
L 383.118105 282.606839 
L 383.415491 282.062493 
L 383.712876 280.785035 
L 384.010261 280.084834 
L 384.605031 278.108342 
L 384.902416 277.817113 
L 385.794571 276.475336 
L 386.091956 276.460259 
L 386.389341 276.665835 
L 386.686726 277.313066 
L 386.984111 277.313066 
L 388.173651 281.085706 
L 388.471036 281.410124 
L 388.768421 281.995091 
L 389.065806 282.837619 
L 389.363191 283.040751 
L 389.660576 282.980519 
L 389.957961 282.447624 
L 390.255346 282.166229 
L 390.552731 281.453229 
L 390.850116 279.563136 
L 391.444886 277.329386 
L 392.337042 272.8832 
L 392.931812 271.836866 
L 393.229197 271.599541 
L 393.526582 271.577255 
L 393.823967 271.926248 
L 394.418737 273.639065 
L 395.013507 275.169226 
L 395.608277 277.83717 
L 395.905662 277.83717 
L 396.203047 279.04047 
L 396.797817 279.792478 
L 397.095202 279.881562 
L 397.392587 279.21315 
L 397.689972 279.21315 
L 398.284742 276.889581 
L 398.582127 275.912444 
L 399.474282 271.32414 
L 400.069053 269.734196 
L 400.663823 268.843448 
L 400.961208 269.207254 
L 401.258593 269.207254 
L 401.853363 271.03523 
L 402.448133 272.629576 
L 403.042903 274.981358 
L 403.935058 276.268582 
L 404.529828 277.073217 
L 404.827213 277.683402 
L 406.016753 278.761838 
L 406.611523 278.819441 
L 408.098448 278.216698 
L 408.693219 277.471875 
L 409.585374 276.741711 
L 409.882759 276.554775 
L 410.477529 276.577601 
L 411.964454 276.881547 
L 413.153994 279.776622 
L 413.451379 281.431596 
L 413.748764 281.431596 
L 414.046149 282.999804 
L 414.640919 283.144113 
L 414.938304 282.990336 
L 415.235689 282.120217 
L 415.533074 282.120217 
L 415.830459 279.858846 
L 416.127844 279.445726 
L 416.722615 277.827944 
L 417.02 276.494218 
L 417.317385 276.494218 
L 417.61477 275.286845 
L 418.20954 275.079391 
L 418.506925 275.110967 
L 419.99385 277.666308 
L 420.886005 277.580042 
L 421.18339 277.409883 
L 421.77816 276.643118 
L 422.075545 276.643118 
L 422.37293 276.2784 
L 423.265085 275.728417 
L 423.56247 275.348965 
L 423.859855 275.348965 
L 424.15724 275.170117 
L 424.454625 275.276099 
L 424.75201 275.572537 
L 425.049396 276.074924 
L 425.346781 277.19008 
L 425.644166 279.204414 
L 426.536321 282.73844 
L 427.131091 286.7444 
L 427.428476 286.7444 
L 427.725861 289.015817 
L 428.023246 290.207229 
L 428.915401 295.594131 
L 429.212786 295.594131 
L 429.510171 297.483714 
L 430.402326 299.599656 
L 430.997096 299.703068 
L 431.591866 298.531564 
L 431.889251 297.619073 
L 432.186636 295.730001 
L 432.186636 295.730001 
" clip-path="url(#p60430b5255)" style="fill: none; stroke: #008000; stroke-width: 1.5; stroke-linecap: square"/>
   </g>
   <g id="patch_13">
    <path d="M 58.106 301.9975 
L 58.106 251.52 
" style="fill: none; stroke: #000000; stroke-width: 0.8; stroke-linejoin: miter; stroke-linecap: square"/>
   </g>
   <g id="patch_14">
    <path d="M 450 301.9975 
L 450 251.52 
" style="fill: none; stroke: #000000; stroke-width: 0.8; stroke-linejoin: miter; stroke-linecap: square"/>
   </g>
   <g id="patch_15">
    <path d="M 58.106 301.9975 
L 450 301.9975 
" style="fill: none; stroke: #000000; stroke-width: 0.8; stroke-linejoin: miter; stroke-linecap: square"/>
   </g>
   <g id="patch_16">
    <path d="M 58.106 251.52 
L 450 251.52 
" style="fill: none; stroke: #000000; stroke-width: 0.8; stroke-linejoin: miter; stroke-linecap: square"/>
   </g>
   <g id="text_38">
    <!-- Error in swing angle -->
    <g transform="translate(194.282688 245.52)scale(0.12 -0.12)">
     <defs>
      <path id="DejaVuSans-77" d="M 269 3500 
L 844 3500 
L 1563 769 
L 2278 3500 
L 2956 3500 
L 3675 769 
L 4391 3500 
L 4966 3500 
L 4050 0 
L 3372 0 
L 2619 2869 
L 1863 0 
L 1184 0 
L 269 3500 
z
" transform="scale(0.015625)"/>
      <path id="DejaVuSans-67" d="M 2906 1791 
Q 2906 2416 2648 2759 
Q 2391 3103 1925 3103 
Q 1463 3103 1205 2759 
Q 947 2416 947 1791 
Q 947 1169 1205 825 
Q 1463 481 1925 481 
Q 2391 481 2648 825 
Q 2906 1169 2906 1791 
z
M 3481 434 
Q 3481 -459 3084 -895 
Q 2688 -1331 1869 -1331 
Q 1566 -1331 1297 -1286 
Q 1028 -1241 775 -1147 
L 775 -588 
Q 1028 -725 1275 -790 
Q 1522 -856 1778 -856 
Q 2344 -856 2625 -561 
Q 2906 -266 2906 331 
L 2906 616 
Q 2728 306 2450 153 
Q 2172 0 1784 0 
Q 1141 0 747 490 
Q 353 981 353 1791 
Q 353 2603 747 3093 
Q 1141 3584 1784 3584 
Q 2172 3584 2450 3431 
Q 2728 3278 2906 2969 
L 2906 3500 
L 3481 3500 
L 3481 434 
z
" transform="scale(0.015625)"/>
      <path id="DejaVuSans-6c" d="M 603 4863 
L 1178 4863 
L 1178 0 
L 603 0 
L 603 4863 
z
" transform="scale(0.015625)"/>
      <path id="DejaVuSans-65" d="M 3597 1894 
L 3597 1613 
L 953 1613 
Q 991 1019 1311 708 
Q 1631 397 2203 397 
Q 2534 397 2845 478 
Q 3156 559 3463 722 
L 3463 178 
Q 3153 47 2828 -22 
Q 2503 -91 2169 -91 
Q 1331 -91 842 396 
Q 353 884 353 1716 
Q 353 2575 817 3079 
Q 1281 3584 2069 3584 
Q 2775 3584 3186 3129 
Q 3597 2675 3597 1894 
z
M 3022 2063 
Q 3016 2534 2758 2815 
Q 2500 3097 2075 3097 
Q 1594 3097 1305 2825 
Q 1016 2553 972 2059 
L 3022 2063 
z
" transform="scale(0.015625)"/>
     </defs>
     <use xlink:href="#DejaVuSans-45"/>
     <use xlink:href="#DejaVuSans-72" x="63.183594"/>
     <use xlink:href="#DejaVuSans-72" x="102.546875"/>
     <use xlink:href="#DejaVuSans-6f" x="141.410156"/>
     <use xlink:href="#DejaVuSans-72" x="202.591797"/>
     <use xlink:href="#DejaVuSans-20" x="243.705078"/>
     <use xlink:href="#DejaVuSans-69" x="275.492188"/>
     <use xlink:href="#DejaVuSans-6e" x="303.275391"/>
     <use xlink:href="#DejaVuSans-20" x="366.654297"/>
     <use xlink:href="#DejaVuSans-73" x="398.441406"/>
     <use xlink:href="#DejaVuSans-77" x="450.541016"/>
     <use xlink:href="#DejaVuSans-69" x="532.328125"/>
     <use xlink:href="#DejaVuSans-6e" x="560.111328"/>
     <use xlink:href="#DejaVuSans-67" x="623.490234"/>
     <use xlink:href="#DejaVuSans-20" x="686.966797"/>
     <use xlink:href="#DejaVuSans-61" x="718.753906"/>
     <use xlink:href="#DejaVuSans-6e" x="780.033203"/>
     <use xlink:href="#DejaVuSans-67" x="843.412109"/>
     <use xlink:href="#DejaVuSans-6c" x="906.888672"/>
     <use xlink:href="#DejaVuSans-65" x="934.671875"/>
    </g>
   </g>
  </g>
 </g>
 <defs>
  <clipPath id="p2a7e0c4976">
   <rect x="58.106" y="28.32" width="391.894" height="50.4775"/>
  </clipPath>
  <clipPath id="p1e66897fbc">
   <rect x="58.106" y="139.92" width="391.894" height="50.4775"/>
  </clipPath>
  <clipPath id="p60430b5255">
   <rect x="58.106" y="251.52" width="391.894" height="50.4775"/>
  </clipPath>
 </defs>
</svg>
