<?xml version="1.0" encoding="utf-8" standalone="no"?>
<!DOCTYPE svg PUBLIC "-//W3C//DTD SVG 1.1//EN"
  "http://www.w3.org/Graphics/SVG/1.1/DTD/svg11.dtd">
<svg xmlns:xlink="http://www.w3.org/1999/xlink" width="460.8pt" height="345.6pt" viewBox="0 0 460.8 345.6" xmlns="http://www.w3.org/2000/svg" version="1.1">
 <metadata>
  <rdf:RDF xmlns:dc="http://purl.org/dc/elements/1.1/" xmlns:cc="http://creativecommons.org/ns#" xmlns:rdf="http://www.w3.org/1999/02/22-rdf-syntax-ns#">
   <cc:Work>
    <dc:type rdf:resource="http://purl.org/dc/dcmitype/StillImage"/>
    <dc:date>2022-06-05T14:46:24.170051</dc:date>
    <dc:format>image/svg+xml</dc:format>
    <dc:creator>
     <cc:Agent>
      <dc:title>Matplotlib v3.5.1, https://matplotlib.org/</dc:title>
     </cc:Agent>
    </dc:creator>
   </cc:Work>
  </rdf:RDF>
 </metadata>
 <defs>
  <style type="text/css">*{stroke-linejoin: round; stroke-linecap: butt}</style>
 </defs>
 <g id="figure_1">
  <g id="patch_1">
   <path d="M 0 345.6 
L 460.8 345.6 
L 460.8 0 
L 0 0 
z
" style="fill: #ffffff"/>
  </g>
  <g id="axes_1">
   <g id="patch_2">
    <path d="M 58.106 78.7975 
L 450 78.7975 
L 450 28.32 
L 58.106 28.32 
z
" style="fill: #ffffff"/>
   </g>
   <g id="matplotlib.axis_1">
    <g id="xtick_1">
     <g id="line2d_1">
      <path d="M 75.919364 78.7975 
L 75.919364 28.32 
" clip-path="url(#pe07ece2776)" style="fill: none; stroke: #b0b0b0; stroke-width: 0.8; stroke-linecap: square"/>
     </g>
     <g id="line2d_2">
      <defs>
       <path id="mc194f36d86" d="M 0 0 
L 0 3.5 
" style="stroke: #000000; stroke-width: 0.8"/>
      </defs>
      <g>
       <use xlink:href="#mc194f36d86" x="75.919364" y="78.7975" style="stroke: #000000; stroke-width: 0.8"/>
      </g>
     </g>
     <g id="text_1">
      <!-- 0 -->
      <g transform="translate(72.738114 93.395937)scale(0.1 -0.1)">
       <defs>
        <path id="DejaVuSans-30" d="M 2034 4250 
Q 1547 4250 1301 3770 
Q 1056 3291 1056 2328 
Q 1056 1369 1301 889 
Q 1547 409 2034 409 
Q 2525 409 2770 889 
Q 3016 1369 3016 2328 
Q 3016 3291 2770 3770 
Q 2525 4250 2034 4250 
z
M 2034 4750 
Q 2819 4750 3233 4129 
Q 3647 3509 3647 2328 
Q 3647 1150 3233 529 
Q 2819 -91 2034 -91 
Q 1250 -91 836 529 
Q 422 1150 422 2328 
Q 422 3509 836 4129 
Q 1250 4750 2034 4750 
z
" transform="scale(0.015625)"/>
       </defs>
       <use xlink:href="#DejaVuSans-30"/>
      </g>
     </g>
    </g>
    <g id="xtick_2">
     <g id="line2d_3">
      <path d="M 135.050861 78.7975 
L 135.050861 28.32 
" clip-path="url(#pe07ece2776)" style="fill: none; stroke: #b0b0b0; stroke-width: 0.8; stroke-linecap: square"/>
     </g>
     <g id="line2d_4">
      <g>
       <use xlink:href="#mc194f36d86" x="135.050861" y="78.7975" style="stroke: #000000; stroke-width: 0.8"/>
      </g>
     </g>
     <g id="text_2">
      <!-- 2 -->
      <g transform="translate(131.869611 93.395937)scale(0.1 -0.1)">
       <defs>
        <path id="DejaVuSans-32" d="M 1228 531 
L 3431 531 
L 3431 0 
L 469 0 
L 469 531 
Q 828 903 1448 1529 
Q 2069 2156 2228 2338 
Q 2531 2678 2651 2914 
Q 2772 3150 2772 3378 
Q 2772 3750 2511 3984 
Q 2250 4219 1831 4219 
Q 1534 4219 1204 4116 
Q 875 4013 500 3803 
L 500 4441 
Q 881 4594 1212 4672 
Q 1544 4750 1819 4750 
Q 2544 4750 2975 4387 
Q 3406 4025 3406 3419 
Q 3406 3131 3298 2873 
Q 3191 2616 2906 2266 
Q 2828 2175 2409 1742 
Q 1991 1309 1228 531 
z
" transform="scale(0.015625)"/>
       </defs>
       <use xlink:href="#DejaVuSans-32"/>
      </g>
     </g>
    </g>
    <g id="xtick_3">
     <g id="line2d_5">
      <path d="M 194.182359 78.7975 
L 194.182359 28.32 
" clip-path="url(#pe07ece2776)" style="fill: none; stroke: #b0b0b0; stroke-width: 0.8; stroke-linecap: square"/>
     </g>
     <g id="line2d_6">
      <g>
       <use xlink:href="#mc194f36d86" x="194.182359" y="78.7975" style="stroke: #000000; stroke-width: 0.8"/>
      </g>
     </g>
     <g id="text_3">
      <!-- 4 -->
      <g transform="translate(191.001109 93.395937)scale(0.1 -0.1)">
       <defs>
        <path id="DejaVuSans-34" d="M 2419 4116 
L 825 1625 
L 2419 1625 
L 2419 4116 
z
M 2253 4666 
L 3047 4666 
L 3047 1625 
L 3713 1625 
L 3713 1100 
L 3047 1100 
L 3047 0 
L 2419 0 
L 2419 1100 
L 313 1100 
L 313 1709 
L 2253 4666 
z
" transform="scale(0.015625)"/>
       </defs>
       <use xlink:href="#DejaVuSans-34"/>
      </g>
     </g>
    </g>
    <g id="xtick_4">
     <g id="line2d_7">
      <path d="M 253.313856 78.7975 
L 253.313856 28.32 
" clip-path="url(#pe07ece2776)" style="fill: none; stroke: #b0b0b0; stroke-width: 0.8; stroke-linecap: square"/>
     </g>
     <g id="line2d_8">
      <g>
       <use xlink:href="#mc194f36d86" x="253.313856" y="78.7975" style="stroke: #000000; stroke-width: 0.8"/>
      </g>
     </g>
     <g id="text_4">
      <!-- 6 -->
      <g transform="translate(250.132606 93.395937)scale(0.1 -0.1)">
       <defs>
        <path id="DejaVuSans-36" d="M 2113 2584 
Q 1688 2584 1439 2293 
Q 1191 2003 1191 1497 
Q 1191 994 1439 701 
Q 1688 409 2113 409 
Q 2538 409 2786 701 
Q 3034 994 3034 1497 
Q 3034 2003 2786 2293 
Q 2538 2584 2113 2584 
z
M 3366 4563 
L 3366 3988 
Q 3128 4100 2886 4159 
Q 2644 4219 2406 4219 
Q 1781 4219 1451 3797 
Q 1122 3375 1075 2522 
Q 1259 2794 1537 2939 
Q 1816 3084 2150 3084 
Q 2853 3084 3261 2657 
Q 3669 2231 3669 1497 
Q 3669 778 3244 343 
Q 2819 -91 2113 -91 
Q 1303 -91 875 529 
Q 447 1150 447 2328 
Q 447 3434 972 4092 
Q 1497 4750 2381 4750 
Q 2619 4750 2861 4703 
Q 3103 4656 3366 4563 
z
" transform="scale(0.015625)"/>
       </defs>
       <use xlink:href="#DejaVuSans-36"/>
      </g>
     </g>
    </g>
    <g id="xtick_5">
     <g id="line2d_9">
      <path d="M 312.445354 78.7975 
L 312.445354 28.32 
" clip-path="url(#pe07ece2776)" style="fill: none; stroke: #b0b0b0; stroke-width: 0.8; stroke-linecap: square"/>
     </g>
     <g id="line2d_10">
      <g>
       <use xlink:href="#mc194f36d86" x="312.445354" y="78.7975" style="stroke: #000000; stroke-width: 0.8"/>
      </g>
     </g>
     <g id="text_5">
      <!-- 8 -->
      <g transform="translate(309.264104 93.395937)scale(0.1 -0.1)">
       <defs>
        <path id="DejaVuSans-38" d="M 2034 2216 
Q 1584 2216 1326 1975 
Q 1069 1734 1069 1313 
Q 1069 891 1326 650 
Q 1584 409 2034 409 
Q 2484 409 2743 651 
Q 3003 894 3003 1313 
Q 3003 1734 2745 1975 
Q 2488 2216 2034 2216 
z
M 1403 2484 
Q 997 2584 770 2862 
Q 544 3141 544 3541 
Q 544 4100 942 4425 
Q 1341 4750 2034 4750 
Q 2731 4750 3128 4425 
Q 3525 4100 3525 3541 
Q 3525 3141 3298 2862 
Q 3072 2584 2669 2484 
Q 3125 2378 3379 2068 
Q 3634 1759 3634 1313 
Q 3634 634 3220 271 
Q 2806 -91 2034 -91 
Q 1263 -91 848 271 
Q 434 634 434 1313 
Q 434 1759 690 2068 
Q 947 2378 1403 2484 
z
M 1172 3481 
Q 1172 3119 1398 2916 
Q 1625 2713 2034 2713 
Q 2441 2713 2670 2916 
Q 2900 3119 2900 3481 
Q 2900 3844 2670 4047 
Q 2441 4250 2034 4250 
Q 1625 4250 1398 4047 
Q 1172 3844 1172 3481 
z
" transform="scale(0.015625)"/>
       </defs>
       <use xlink:href="#DejaVuSans-38"/>
      </g>
     </g>
    </g>
    <g id="xtick_6">
     <g id="line2d_11">
      <path d="M 371.576851 78.7975 
L 371.576851 28.32 
" clip-path="url(#pe07ece2776)" style="fill: none; stroke: #b0b0b0; stroke-width: 0.8; stroke-linecap: square"/>
     </g>
     <g id="line2d_12">
      <g>
       <use xlink:href="#mc194f36d86" x="371.576851" y="78.7975" style="stroke: #000000; stroke-width: 0.8"/>
      </g>
     </g>
     <g id="text_6">
      <!-- 10 -->
      <g transform="translate(365.214351 93.395937)scale(0.1 -0.1)">
       <defs>
        <path id="DejaVuSans-31" d="M 794 531 
L 1825 531 
L 1825 4091 
L 703 3866 
L 703 4441 
L 1819 4666 
L 2450 4666 
L 2450 531 
L 3481 531 
L 3481 0 
L 794 0 
L 794 531 
z
" transform="scale(0.015625)"/>
       </defs>
       <use xlink:href="#DejaVuSans-31"/>
       <use xlink:href="#DejaVuSans-30" x="63.623047"/>
      </g>
     </g>
    </g>
    <g id="xtick_7">
     <g id="line2d_13">
      <path d="M 430.708349 78.7975 
L 430.708349 28.32 
" clip-path="url(#pe07ece2776)" style="fill: none; stroke: #b0b0b0; stroke-width: 0.8; stroke-linecap: square"/>
     </g>
     <g id="line2d_14">
      <g>
       <use xlink:href="#mc194f36d86" x="430.708349" y="78.7975" style="stroke: #000000; stroke-width: 0.8"/>
      </g>
     </g>
     <g id="text_7">
      <!-- 12 -->
      <g transform="translate(424.345849 93.395937)scale(0.1 -0.1)">
       <use xlink:href="#DejaVuSans-31"/>
       <use xlink:href="#DejaVuSans-32" x="63.623047"/>
      </g>
     </g>
    </g>
    <g id="text_8">
     <!-- $t$ [s] -->
     <g transform="translate(243.953 107.074062)scale(0.1 -0.1)">
      <defs>
       <path id="DejaVuSans-Oblique-74" d="M 2706 3500 
L 2619 3053 
L 1472 3053 
L 1100 1153 
Q 1081 1047 1072 975 
Q 1063 903 1063 863 
Q 1063 663 1183 572 
Q 1303 481 1569 481 
L 2150 481 
L 2053 0 
L 1503 0 
Q 991 0 739 200 
Q 488 400 488 806 
Q 488 878 497 964 
Q 506 1050 525 1153 
L 897 3053 
L 409 3053 
L 500 3500 
L 978 3500 
L 1172 4494 
L 1747 4494 
L 1556 3500 
L 2706 3500 
z
" transform="scale(0.015625)"/>
       <path id="DejaVuSans-20" transform="scale(0.015625)"/>
       <path id="DejaVuSans-5b" d="M 550 4863 
L 1875 4863 
L 1875 4416 
L 1125 4416 
L 1125 -397 
L 1875 -397 
L 1875 -844 
L 550 -844 
L 550 4863 
z
" transform="scale(0.015625)"/>
       <path id="DejaVuSans-73" d="M 2834 3397 
L 2834 2853 
Q 2591 2978 2328 3040 
Q 2066 3103 1784 3103 
Q 1356 3103 1142 2972 
Q 928 2841 928 2578 
Q 928 2378 1081 2264 
Q 1234 2150 1697 2047 
L 1894 2003 
Q 2506 1872 2764 1633 
Q 3022 1394 3022 966 
Q 3022 478 2636 193 
Q 2250 -91 1575 -91 
Q 1294 -91 989 -36 
Q 684 19 347 128 
L 347 722 
Q 666 556 975 473 
Q 1284 391 1588 391 
Q 1994 391 2212 530 
Q 2431 669 2431 922 
Q 2431 1156 2273 1281 
Q 2116 1406 1581 1522 
L 1381 1569 
Q 847 1681 609 1914 
Q 372 2147 372 2553 
Q 372 3047 722 3315 
Q 1072 3584 1716 3584 
Q 2034 3584 2315 3537 
Q 2597 3491 2834 3397 
z
" transform="scale(0.015625)"/>
       <path id="DejaVuSans-5d" d="M 1947 4863 
L 1947 -844 
L 622 -844 
L 622 -397 
L 1369 -397 
L 1369 4416 
L 622 4416 
L 622 4863 
L 1947 4863 
z
" transform="scale(0.015625)"/>
      </defs>
      <use xlink:href="#DejaVuSans-Oblique-74" transform="translate(0 0.015625)"/>
      <use xlink:href="#DejaVuSans-20" transform="translate(39.208984 0.015625)"/>
      <use xlink:href="#DejaVuSans-5b" transform="translate(70.996094 0.015625)"/>
      <use xlink:href="#DejaVuSans-73" transform="translate(110.009766 0.015625)"/>
      <use xlink:href="#DejaVuSans-5d" transform="translate(162.109375 0.015625)"/>
     </g>
    </g>
   </g>
   <g id="matplotlib.axis_2">
    <g id="ytick_1">
     <g id="line2d_15">
      <path d="M 58.106 76.318673 
L 450 76.318673 
" clip-path="url(#pe07ece2776)" style="fill: none; stroke: #b0b0b0; stroke-width: 0.8; stroke-linecap: square"/>
     </g>
     <g id="line2d_16">
      <defs>
       <path id="m0120e11555" d="M 0 0 
L -3.5 0 
" style="stroke: #000000; stroke-width: 0.8"/>
      </defs>
      <g>
       <use xlink:href="#m0120e11555" x="58.106" y="76.318673" style="stroke: #000000; stroke-width: 0.8"/>
      </g>
     </g>
     <g id="text_9">
      <!-- 0 -->
      <g transform="translate(44.7435 80.117892)scale(0.1 -0.1)">
       <use xlink:href="#DejaVuSans-30"/>
      </g>
     </g>
    </g>
    <g id="ytick_2">
     <g id="line2d_17">
      <path d="M 58.106 30.614427 
L 450 30.614427 
" clip-path="url(#pe07ece2776)" style="fill: none; stroke: #b0b0b0; stroke-width: 0.8; stroke-linecap: square"/>
     </g>
     <g id="line2d_18">
      <g>
       <use xlink:href="#m0120e11555" x="58.106" y="30.614427" style="stroke: #000000; stroke-width: 0.8"/>
      </g>
     </g>
     <g id="text_10">
      <!-- 10 -->
      <g transform="translate(38.381 34.413646)scale(0.1 -0.1)">
       <use xlink:href="#DejaVuSans-31"/>
       <use xlink:href="#DejaVuSans-30" x="63.623047"/>
      </g>
     </g>
    </g>
    <g id="text_11">
     <!-- $e_x$ [m] -->
     <g transform="translate(32.301313 69.20875)rotate(-90)scale(0.1 -0.1)">
      <defs>
       <path id="DejaVuSans-Oblique-65" d="M 3078 2063 
Q 3088 2113 3092 2166 
Q 3097 2219 3097 2272 
Q 3097 2653 2873 2875 
Q 2650 3097 2266 3097 
Q 1838 3097 1509 2826 
Q 1181 2556 1013 2059 
L 3078 2063 
z
M 3578 1613 
L 903 1613 
Q 884 1494 878 1425 
Q 872 1356 872 1306 
Q 872 872 1139 634 
Q 1406 397 1894 397 
Q 2269 397 2603 481 
Q 2938 566 3225 728 
L 3116 159 
Q 2806 34 2476 -28 
Q 2147 -91 1806 -91 
Q 1078 -91 686 257 
Q 294 606 294 1247 
Q 294 1794 489 2264 
Q 684 2734 1063 3103 
Q 1306 3334 1642 3459 
Q 1978 3584 2356 3584 
Q 2950 3584 3301 3228 
Q 3653 2872 3653 2272 
Q 3653 2128 3634 1964 
Q 3616 1800 3578 1613 
z
" transform="scale(0.015625)"/>
       <path id="DejaVuSans-Oblique-78" d="M 3841 3500 
L 2234 1784 
L 3219 0 
L 2559 0 
L 1819 1388 
L 531 0 
L -166 0 
L 1556 1844 
L 641 3500 
L 1300 3500 
L 1972 2234 
L 3144 3500 
L 3841 3500 
z
" transform="scale(0.015625)"/>
       <path id="DejaVuSans-6d" d="M 3328 2828 
Q 3544 3216 3844 3400 
Q 4144 3584 4550 3584 
Q 5097 3584 5394 3201 
Q 5691 2819 5691 2113 
L 5691 0 
L 5113 0 
L 5113 2094 
Q 5113 2597 4934 2840 
Q 4756 3084 4391 3084 
Q 3944 3084 3684 2787 
Q 3425 2491 3425 1978 
L 3425 0 
L 2847 0 
L 2847 2094 
Q 2847 2600 2669 2842 
Q 2491 3084 2119 3084 
Q 1678 3084 1418 2786 
Q 1159 2488 1159 1978 
L 1159 0 
L 581 0 
L 581 3500 
L 1159 3500 
L 1159 2956 
Q 1356 3278 1631 3431 
Q 1906 3584 2284 3584 
Q 2666 3584 2933 3390 
Q 3200 3197 3328 2828 
z
" transform="scale(0.015625)"/>
      </defs>
      <use xlink:href="#DejaVuSans-Oblique-65" transform="translate(0 0.015625)"/>
      <use xlink:href="#DejaVuSans-Oblique-78" transform="translate(61.523438 -16.390625)scale(0.7)"/>
      <use xlink:href="#DejaVuSans-20" transform="translate(105.683594 0.015625)"/>
      <use xlink:href="#DejaVuSans-5b" transform="translate(137.470703 0.015625)"/>
      <use xlink:href="#DejaVuSans-6d" transform="translate(176.484375 0.015625)"/>
      <use xlink:href="#DejaVuSans-5d" transform="translate(273.896484 0.015625)"/>
     </g>
    </g>
   </g>
   <g id="line2d_19">
    <path d="M 75.919364 30.614432 
L 83.021037 30.719638 
L 95.153062 31.196941 
L 100.479317 31.694604 
L 103.142444 32.057845 
L 106.693281 32.547919 
L 109.652311 32.960034 
L 111.131827 33.247137 
L 111.723633 33.327372 
L 114.38676 33.785819 
L 115.274469 33.956493 
L 117.641694 34.391273 
L 120.008918 34.823241 
L 122.08024 35.241624 
L 122.967949 35.505085 
L 123.855658 35.640889 
L 125.03927 35.975031 
L 125.631076 36.059943 
L 126.518785 36.288343 
L 129.477816 37.048635 
L 132.140943 37.689324 
L 135.099974 38.517952 
L 137.467198 39.135505 
L 138.354907 39.459665 
L 139.242616 39.62082 
L 140.130326 39.940231 
L 141.018035 40.09818 
L 141.313938 40.254838 
L 141.609841 40.254838 
L 142.201647 40.441078 
L 143.385259 40.777537 
L 144.272968 40.958325 
L 145.160677 41.22577 
L 146.048387 41.401397 
L 148.119708 41.886762 
L 149.007417 42.164701 
L 149.895126 42.302205 
L 151.078738 42.630014 
L 152.854157 43.038018 
L 153.741866 43.228086 
L 155.221381 43.526022 
L 157.292703 44.010241 
L 158.180412 44.223791 
L 159.95583 44.62041 
L 160.843539 44.828954 
L 163.506667 45.388609 
L 164.394376 45.587906 
L 166.7616 46.104385 
L 167.353406 46.201649 
L 170.312437 46.779013 
L 171.200146 46.97148 
L 173.863273 47.500218 
L 174.750982 47.688348 
L 177.41411 48.233948 
L 178.005916 48.323973 
L 180.669043 48.819251 
L 181.556753 48.996979 
L 184.21988 49.480361 
L 185.107589 49.657527 
L 188.06662 50.185705 
L 188.954329 50.357109 
L 191.913359 50.874063 
L 192.801069 51.0529 
L 195.464196 51.569604 
L 198.127323 52.089636 
L 198.71913 52.176649 
L 201.382257 52.669258 
L 202.269966 52.85008 
L 205.228997 53.376258 
L 206.412609 53.612843 
L 208.779833 54.030919 
L 211.442961 54.536715 
L 213.810185 54.957551 
L 216.769216 55.485823 
L 219.432343 55.99138 
L 220.024149 56.07275 
L 222.98318 56.55475 
L 223.870889 56.719254 
L 226.534016 57.177385 
L 227.421725 57.340202 
L 229.78895 57.718101 
L 230.380756 57.81819 
L 231.268465 57.981118 
L 233.931593 58.419407 
L 234.523399 58.564103 
L 237.778332 59.122494 
L 241.033266 59.673942 
L 243.992296 60.13765 
L 244.584102 60.272954 
L 247.543133 60.758747 
L 250.20626 61.242456 
L 250.798066 61.321294 
L 254.940709 61.963022 
L 259.379255 62.724031 
L 264.113704 63.427541 
L 265.297316 63.615654 
L 269.439959 64.256472 
L 270.623571 64.446705 
L 273.582601 64.841599 
L 274.174407 64.967584 
L 277.133438 65.413492 
L 278.31705 65.592095 
L 281.571984 66.048329 
L 287.490045 66.891852 
L 292.520397 67.566218 
L 293.704009 67.728533 
L 298.142555 68.326829 
L 299.326167 68.476694 
L 303.468809 69.004243 
L 307.019646 69.510582 
L 307.907355 69.613069 
L 310.866386 69.952067 
L 311.458192 70.061163 
L 314.713125 70.508899 
L 317.672156 70.878871 
L 318.559865 70.981649 
L 321.518895 71.388609 
L 324.182023 71.72065 
L 329.212375 72.334076 
L 333.946824 72.973324 
L 339.568982 73.632517 
L 343.119818 74.064205 
L 349.925588 74.777518 
L 351.405104 74.921332 
L 354.95594 75.23522 
L 368.567481 75.998858 
L 376.556863 76.198679 
L 382.474924 76.19441 
L 412.952938 75.741194 
L 419.758708 75.862844 
L 423.013642 76.003804 
L 432.186636 76.503068 
L 432.186636 76.503068 
" clip-path="url(#pe07ece2776)" style="fill: none; stroke: #ff0000; stroke-width: 1.5; stroke-linecap: square"/>
   </g>
   <g id="patch_3">
    <path d="M 58.106 78.7975 
L 58.106 28.32 
" style="fill: none; stroke: #000000; stroke-width: 0.8; stroke-linejoin: miter; stroke-linecap: square"/>
   </g>
   <g id="patch_4">
    <path d="M 450 78.7975 
L 450 28.32 
" style="fill: none; stroke: #000000; stroke-width: 0.8; stroke-linejoin: miter; stroke-linecap: square"/>
   </g>
   <g id="patch_5">
    <path d="M 58.106 78.7975 
L 450 78.7975 
" style="fill: none; stroke: #000000; stroke-width: 0.8; stroke-linejoin: miter; stroke-linecap: square"/>
   </g>
   <g id="patch_6">
    <path d="M 58.106 28.32 
L 450 28.32 
" style="fill: none; stroke: #000000; stroke-width: 0.8; stroke-linejoin: miter; stroke-linecap: square"/>
   </g>
   <g id="text_12">
    <!-- Error in $x$-position -->
    <g transform="translate(200.413 22.32)scale(0.12 -0.12)">
     <defs>
      <path id="DejaVuSans-45" d="M 628 4666 
L 3578 4666 
L 3578 4134 
L 1259 4134 
L 1259 2753 
L 3481 2753 
L 3481 2222 
L 1259 2222 
L 1259 531 
L 3634 531 
L 3634 0 
L 628 0 
L 628 4666 
z
" transform="scale(0.015625)"/>
      <path id="DejaVuSans-72" d="M 2631 2963 
Q 2534 3019 2420 3045 
Q 2306 3072 2169 3072 
Q 1681 3072 1420 2755 
Q 1159 2438 1159 1844 
L 1159 0 
L 581 0 
L 581 3500 
L 1159 3500 
L 1159 2956 
Q 1341 3275 1631 3429 
Q 1922 3584 2338 3584 
Q 2397 3584 2469 3576 
Q 2541 3569 2628 3553 
L 2631 2963 
z
" transform="scale(0.015625)"/>
      <path id="DejaVuSans-6f" d="M 1959 3097 
Q 1497 3097 1228 2736 
Q 959 2375 959 1747 
Q 959 1119 1226 758 
Q 1494 397 1959 397 
Q 2419 397 2687 759 
Q 2956 1122 2956 1747 
Q 2956 2369 2687 2733 
Q 2419 3097 1959 3097 
z
M 1959 3584 
Q 2709 3584 3137 3096 
Q 3566 2609 3566 1747 
Q 3566 888 3137 398 
Q 2709 -91 1959 -91 
Q 1206 -91 779 398 
Q 353 888 353 1747 
Q 353 2609 779 3096 
Q 1206 3584 1959 3584 
z
" transform="scale(0.015625)"/>
      <path id="DejaVuSans-69" d="M 603 3500 
L 1178 3500 
L 1178 0 
L 603 0 
L 603 3500 
z
M 603 4863 
L 1178 4863 
L 1178 4134 
L 603 4134 
L 603 4863 
z
" transform="scale(0.015625)"/>
      <path id="DejaVuSans-6e" d="M 3513 2113 
L 3513 0 
L 2938 0 
L 2938 2094 
Q 2938 2591 2744 2837 
Q 2550 3084 2163 3084 
Q 1697 3084 1428 2787 
Q 1159 2491 1159 1978 
L 1159 0 
L 581 0 
L 581 3500 
L 1159 3500 
L 1159 2956 
Q 1366 3272 1645 3428 
Q 1925 3584 2291 3584 
Q 2894 3584 3203 3211 
Q 3513 2838 3513 2113 
z
" transform="scale(0.015625)"/>
      <path id="DejaVuSans-2d" d="M 313 2009 
L 1997 2009 
L 1997 1497 
L 313 1497 
L 313 2009 
z
" transform="scale(0.015625)"/>
      <path id="DejaVuSans-70" d="M 1159 525 
L 1159 -1331 
L 581 -1331 
L 581 3500 
L 1159 3500 
L 1159 2969 
Q 1341 3281 1617 3432 
Q 1894 3584 2278 3584 
Q 2916 3584 3314 3078 
Q 3713 2572 3713 1747 
Q 3713 922 3314 415 
Q 2916 -91 2278 -91 
Q 1894 -91 1617 61 
Q 1341 213 1159 525 
z
M 3116 1747 
Q 3116 2381 2855 2742 
Q 2594 3103 2138 3103 
Q 1681 3103 1420 2742 
Q 1159 2381 1159 1747 
Q 1159 1113 1420 752 
Q 1681 391 2138 391 
Q 2594 391 2855 752 
Q 3116 1113 3116 1747 
z
" transform="scale(0.015625)"/>
      <path id="DejaVuSans-74" d="M 1172 4494 
L 1172 3500 
L 2356 3500 
L 2356 3053 
L 1172 3053 
L 1172 1153 
Q 1172 725 1289 603 
Q 1406 481 1766 481 
L 2356 481 
L 2356 0 
L 1766 0 
Q 1100 0 847 248 
Q 594 497 594 1153 
L 594 3053 
L 172 3053 
L 172 3500 
L 594 3500 
L 594 4494 
L 1172 4494 
z
" transform="scale(0.015625)"/>
     </defs>
     <use xlink:href="#DejaVuSans-45" transform="translate(0 0.015625)"/>
     <use xlink:href="#DejaVuSans-72" transform="translate(63.183594 0.015625)"/>
     <use xlink:href="#DejaVuSans-72" transform="translate(104.296875 0.015625)"/>
     <use xlink:href="#DejaVuSans-6f" transform="translate(145.410156 0.015625)"/>
     <use xlink:href="#DejaVuSans-72" transform="translate(206.591797 0.015625)"/>
     <use xlink:href="#DejaVuSans-20" transform="translate(247.705078 0.015625)"/>
     <use xlink:href="#DejaVuSans-69" transform="translate(279.492188 0.015625)"/>
     <use xlink:href="#DejaVuSans-6e" transform="translate(307.275391 0.015625)"/>
     <use xlink:href="#DejaVuSans-20" transform="translate(370.654297 0.015625)"/>
     <use xlink:href="#DejaVuSans-Oblique-78" transform="translate(402.441406 0.015625)"/>
     <use xlink:href="#DejaVuSans-2d" transform="translate(461.621094 0.015625)"/>
     <use xlink:href="#DejaVuSans-70" transform="translate(497.705078 0.015625)"/>
     <use xlink:href="#DejaVuSans-6f" transform="translate(561.181641 0.015625)"/>
     <use xlink:href="#DejaVuSans-73" transform="translate(622.363281 0.015625)"/>
     <use xlink:href="#DejaVuSans-69" transform="translate(674.462891 0.015625)"/>
     <use xlink:href="#DejaVuSans-74" transform="translate(702.246094 0.015625)"/>
     <use xlink:href="#DejaVuSans-69" transform="translate(741.455078 0.015625)"/>
     <use xlink:href="#DejaVuSans-6f" transform="translate(769.238281 0.015625)"/>
     <use xlink:href="#DejaVuSans-6e" transform="translate(830.419922 0.015625)"/>
    </g>
   </g>
  </g>
  <g id="axes_2">
   <g id="patch_7">
    <path d="M 58.106 190.3975 
L 450 190.3975 
L 450 139.92 
L 58.106 139.92 
z
" style="fill: #ffffff"/>
   </g>
   <g id="matplotlib.axis_3">
    <g id="xtick_8">
     <g id="line2d_20">
      <path d="M 75.919364 190.3975 
L 75.919364 139.92 
" clip-path="url(#p724537bb84)" style="fill: none; stroke: #b0b0b0; stroke-width: 0.8; stroke-linecap: square"/>
     </g>
     <g id="line2d_21">
      <g>
       <use xlink:href="#mc194f36d86" x="75.919364" y="190.3975" style="stroke: #000000; stroke-width: 0.8"/>
      </g>
     </g>
     <g id="text_13">
      <!-- 0 -->
      <g transform="translate(72.738114 204.995937)scale(0.1 -0.1)">
       <use xlink:href="#DejaVuSans-30"/>
      </g>
     </g>
    </g>
    <g id="xtick_9">
     <g id="line2d_22">
      <path d="M 135.050861 190.3975 
L 135.050861 139.92 
" clip-path="url(#p724537bb84)" style="fill: none; stroke: #b0b0b0; stroke-width: 0.8; stroke-linecap: square"/>
     </g>
     <g id="line2d_23">
      <g>
       <use xlink:href="#mc194f36d86" x="135.050861" y="190.3975" style="stroke: #000000; stroke-width: 0.8"/>
      </g>
     </g>
     <g id="text_14">
      <!-- 2 -->
      <g transform="translate(131.869611 204.995937)scale(0.1 -0.1)">
       <use xlink:href="#DejaVuSans-32"/>
      </g>
     </g>
    </g>
    <g id="xtick_10">
     <g id="line2d_24">
      <path d="M 194.182359 190.3975 
L 194.182359 139.92 
" clip-path="url(#p724537bb84)" style="fill: none; stroke: #b0b0b0; stroke-width: 0.8; stroke-linecap: square"/>
     </g>
     <g id="line2d_25">
      <g>
       <use xlink:href="#mc194f36d86" x="194.182359" y="190.3975" style="stroke: #000000; stroke-width: 0.8"/>
      </g>
     </g>
     <g id="text_15">
      <!-- 4 -->
      <g transform="translate(191.001109 204.995937)scale(0.1 -0.1)">
       <use xlink:href="#DejaVuSans-34"/>
      </g>
     </g>
    </g>
    <g id="xtick_11">
     <g id="line2d_26">
      <path d="M 253.313856 190.3975 
L 253.313856 139.92 
" clip-path="url(#p724537bb84)" style="fill: none; stroke: #b0b0b0; stroke-width: 0.8; stroke-linecap: square"/>
     </g>
     <g id="line2d_27">
      <g>
       <use xlink:href="#mc194f36d86" x="253.313856" y="190.3975" style="stroke: #000000; stroke-width: 0.8"/>
      </g>
     </g>
     <g id="text_16">
      <!-- 6 -->
      <g transform="translate(250.132606 204.995937)scale(0.1 -0.1)">
       <use xlink:href="#DejaVuSans-36"/>
      </g>
     </g>
    </g>
    <g id="xtick_12">
     <g id="line2d_28">
      <path d="M 312.445354 190.3975 
L 312.445354 139.92 
" clip-path="url(#p724537bb84)" style="fill: none; stroke: #b0b0b0; stroke-width: 0.8; stroke-linecap: square"/>
     </g>
     <g id="line2d_29">
      <g>
       <use xlink:href="#mc194f36d86" x="312.445354" y="190.3975" style="stroke: #000000; stroke-width: 0.8"/>
      </g>
     </g>
     <g id="text_17">
      <!-- 8 -->
      <g transform="translate(309.264104 204.995937)scale(0.1 -0.1)">
       <use xlink:href="#DejaVuSans-38"/>
      </g>
     </g>
    </g>
    <g id="xtick_13">
     <g id="line2d_30">
      <path d="M 371.576851 190.3975 
L 371.576851 139.92 
" clip-path="url(#p724537bb84)" style="fill: none; stroke: #b0b0b0; stroke-width: 0.8; stroke-linecap: square"/>
     </g>
     <g id="line2d_31">
      <g>
       <use xlink:href="#mc194f36d86" x="371.576851" y="190.3975" style="stroke: #000000; stroke-width: 0.8"/>
      </g>
     </g>
     <g id="text_18">
      <!-- 10 -->
      <g transform="translate(365.214351 204.995937)scale(0.1 -0.1)">
       <use xlink:href="#DejaVuSans-31"/>
       <use xlink:href="#DejaVuSans-30" x="63.623047"/>
      </g>
     </g>
    </g>
    <g id="xtick_14">
     <g id="line2d_32">
      <path d="M 430.708349 190.3975 
L 430.708349 139.92 
" clip-path="url(#p724537bb84)" style="fill: none; stroke: #b0b0b0; stroke-width: 0.8; stroke-linecap: square"/>
     </g>
     <g id="line2d_33">
      <g>
       <use xlink:href="#mc194f36d86" x="430.708349" y="190.3975" style="stroke: #000000; stroke-width: 0.8"/>
      </g>
     </g>
     <g id="text_19">
      <!-- 12 -->
      <g transform="translate(424.345849 204.995937)scale(0.1 -0.1)">
       <use xlink:href="#DejaVuSans-31"/>
       <use xlink:href="#DejaVuSans-32" x="63.623047"/>
      </g>
     </g>
    </g>
    <g id="text_20">
     <!-- $t$ [s] -->
     <g transform="translate(243.953 218.674062)scale(0.1 -0.1)">
      <use xlink:href="#DejaVuSans-Oblique-74" transform="translate(0 0.015625)"/>
      <use xlink:href="#DejaVuSans-20" transform="translate(39.208984 0.015625)"/>
      <use xlink:href="#DejaVuSans-5b" transform="translate(70.996094 0.015625)"/>
      <use xlink:href="#DejaVuSans-73" transform="translate(110.009766 0.015625)"/>
      <use xlink:href="#DejaVuSans-5d" transform="translate(162.109375 0.015625)"/>
     </g>
    </g>
   </g>
   <g id="matplotlib.axis_4">
    <g id="ytick_3">
     <g id="line2d_34">
      <path d="M 58.106 180.530281 
L 450 180.530281 
" clip-path="url(#p724537bb84)" style="fill: none; stroke: #b0b0b0; stroke-width: 0.8; stroke-linecap: square"/>
     </g>
     <g id="line2d_35">
      <g>
       <use xlink:href="#m0120e11555" x="58.106" y="180.530281" style="stroke: #000000; stroke-width: 0.8"/>
      </g>
     </g>
     <g id="text_21">
      <!-- −0.1 -->
      <g transform="translate(26.823188 184.3295)scale(0.1 -0.1)">
       <defs>
        <path id="DejaVuSans-2212" d="M 678 2272 
L 4684 2272 
L 4684 1741 
L 678 1741 
L 678 2272 
z
" transform="scale(0.015625)"/>
        <path id="DejaVuSans-2e" d="M 684 794 
L 1344 794 
L 1344 0 
L 684 0 
L 684 794 
z
" transform="scale(0.015625)"/>
       </defs>
       <use xlink:href="#DejaVuSans-2212"/>
       <use xlink:href="#DejaVuSans-30" x="83.789062"/>
       <use xlink:href="#DejaVuSans-2e" x="147.412109"/>
       <use xlink:href="#DejaVuSans-31" x="179.199219"/>
      </g>
     </g>
    </g>
    <g id="ytick_4">
     <g id="line2d_36">
      <path d="M 58.106 165.762242 
L 450 165.762242 
" clip-path="url(#p724537bb84)" style="fill: none; stroke: #b0b0b0; stroke-width: 0.8; stroke-linecap: square"/>
     </g>
     <g id="line2d_37">
      <g>
       <use xlink:href="#m0120e11555" x="58.106" y="165.762242" style="stroke: #000000; stroke-width: 0.8"/>
      </g>
     </g>
     <g id="text_22">
      <!-- 0.0 -->
      <g transform="translate(35.202875 169.561461)scale(0.1 -0.1)">
       <use xlink:href="#DejaVuSans-30"/>
       <use xlink:href="#DejaVuSans-2e" x="63.623047"/>
       <use xlink:href="#DejaVuSans-30" x="95.410156"/>
      </g>
     </g>
    </g>
    <g id="ytick_5">
     <g id="line2d_38">
      <path d="M 58.106 150.994202 
L 450 150.994202 
" clip-path="url(#p724537bb84)" style="fill: none; stroke: #b0b0b0; stroke-width: 0.8; stroke-linecap: square"/>
     </g>
     <g id="line2d_39">
      <g>
       <use xlink:href="#m0120e11555" x="58.106" y="150.994202" style="stroke: #000000; stroke-width: 0.8"/>
      </g>
     </g>
     <g id="text_23">
      <!-- 0.1 -->
      <g transform="translate(35.202875 154.793421)scale(0.1 -0.1)">
       <use xlink:href="#DejaVuSans-30"/>
       <use xlink:href="#DejaVuSans-2e" x="63.623047"/>
       <use xlink:href="#DejaVuSans-31" x="95.410156"/>
      </g>
     </g>
    </g>
    <g id="text_24">
     <!-- $e_z$ [m] -->
     <g transform="translate(20.7435 180.60875)rotate(-90)scale(0.1 -0.1)">
      <defs>
       <path id="DejaVuSans-Oblique-7a" d="M 744 3500 
L 3475 3500 
L 3372 2975 
L 738 459 
L 2913 459 
L 2822 0 
L -19 0 
L 84 525 
L 2719 3041 
L 653 3041 
L 744 3500 
z
" transform="scale(0.015625)"/>
      </defs>
      <use xlink:href="#DejaVuSans-Oblique-65" transform="translate(0 0.015625)"/>
      <use xlink:href="#DejaVuSans-Oblique-7a" transform="translate(61.523438 -16.390625)scale(0.7)"/>
      <use xlink:href="#DejaVuSans-20" transform="translate(101.000977 0.015625)"/>
      <use xlink:href="#DejaVuSans-5b" transform="translate(132.788086 0.015625)"/>
      <use xlink:href="#DejaVuSans-6d" transform="translate(171.801758 0.015625)"/>
      <use xlink:href="#DejaVuSans-5d" transform="translate(269.213867 0.015625)"/>
     </g>
    </g>
   </g>
   <g id="line2d_40">
    <path d="M 75.919364 167.120205 
L 76.215267 166.936575 
L 76.51117 166.936575 
L 77.102976 166.536924 
L 77.694782 166.165602 
L 78.286588 165.745683 
L 79.4702 165.331615 
L 80.062006 165.284031 
L 82.429231 165.641949 
L 84.204649 164.915848 
L 84.796455 164.322885 
L 85.388261 163.855578 
L 85.684164 163.358395 
L 85.980067 163.358395 
L 86.27597 162.642097 
L 86.867777 162.324197 
L 87.16368 162.127047 
L 87.459583 161.754971 
L 88.051389 161.28001 
L 88.347292 160.959117 
L 88.643195 160.843276 
L 88.939098 160.59607 
L 89.235001 160.032356 
L 89.826807 159.368746 
L 90.12271 158.808033 
L 90.418613 157.997932 
L 91.602225 156.296036 
L 92.489934 154.5327 
L 93.96945 152.968913 
L 94.857159 152.701176 
L 95.744868 152.667578 
L 97.224383 152.901358 
L 100.77522 154.168 
L 101.367026 154.259528 
L 102.550638 154.123426 
L 104.326056 153.020647 
L 104.62196 152.557965 
L 105.213766 152.052516 
L 105.805572 151.119702 
L 106.101475 151.119702 
L 106.397378 150.598517 
L 108.172796 149.177836 
L 110.835924 148.031145 
L 111.131827 147.743611 
L 111.42773 147.743611 
L 112.019536 147.268188 
L 112.611342 146.871168 
L 112.907245 146.575566 
L 113.203148 146.575566 
L 113.794954 146.179615 
L 117.345791 144.684204 
L 118.2335 144.076587 
L 118.529403 143.885178 
L 118.825306 143.49321 
L 119.121209 143.49321 
L 119.417112 142.947833 
L 120.008918 142.719672 
L 121.19253 142.223756 
L 122.08024 142.231579 
L 123.855658 142.780376 
L 125.03927 143.693589 
L 125.631076 143.984204 
L 125.926979 144.402931 
L 126.814688 145.178228 
L 127.110591 145.616816 
L 127.406494 145.616816 
L 127.702397 146.034461 
L 128.88601 146.859874 
L 129.181913 147.179321 
L 130.661428 148.01076 
L 131.253234 148.512896 
L 132.140943 149.10284 
L 135.395877 152.669637 
L 135.69178 152.897691 
L 135.987683 153.413647 
L 136.283586 153.413647 
L 136.579489 153.771191 
L 137.763101 154.530791 
L 138.65081 155.083983 
L 139.242616 155.440386 
L 140.130326 156.447125 
L 140.722132 156.757922 
L 141.018035 156.961309 
L 141.313938 157.441358 
L 141.609841 157.441358 
L 141.905744 157.782163 
L 143.681162 158.680303 
L 144.568871 158.863141 
L 145.752484 159.350072 
L 146.34429 159.597273 
L 146.640193 159.883846 
L 146.936096 159.883846 
L 147.231999 160.373668 
L 147.823805 160.639063 
L 148.119708 160.820223 
L 148.711514 161.456763 
L 149.007417 161.724638 
L 149.599223 161.98741 
L 149.895126 162.15999 
L 150.191029 162.502643 
L 150.782835 162.939607 
L 151.374641 163.504816 
L 151.670545 163.504816 
L 152.262351 164.148921 
L 152.854157 164.904634 
L 153.15006 165.042731 
L 153.445963 165.32977 
L 154.333672 166.972088 
L 154.629575 167.153466 
L 155.517284 168.288813 
L 156.700896 170.386824 
L 157.292703 171.260471 
L 157.588606 171.902753 
L 158.772218 173.032485 
L 159.068121 173.655457 
L 159.95583 174.369174 
L 160.251733 174.844282 
L 160.547636 174.844282 
L 160.843539 175.329659 
L 161.731248 176.185736 
L 162.027151 176.679441 
L 162.323054 176.679441 
L 162.618957 177.170149 
L 163.506667 177.997694 
L 163.80257 178.440488 
L 164.098473 178.546473 
L 164.986182 179.383473 
L 165.282085 179.383473 
L 165.577988 179.667616 
L 166.7616 180.100067 
L 168.832921 180.184478 
L 170.312437 180.579872 
L 170.904243 180.902956 
L 172.679661 181.457182 
L 173.863273 181.380255 
L 174.750982 181.22943 
L 175.934595 181.264121 
L 177.41411 181.772961 
L 178.005916 181.863432 
L 178.893625 181.868613 
L 180.964947 181.321902 
L 182.444462 181.365501 
L 184.21988 182.070545 
L 184.811686 182.338647 
L 185.995298 182.465182 
L 187.178911 182.244178 
L 189.842038 181.88643 
L 191.321553 182.455318 
L 191.913359 182.874383 
L 192.209262 183.218489 
L 193.984681 184.149877 
L 197.83142 184.467776 
L 198.127323 184.650675 
L 198.423227 184.650675 
L 199.015033 185.044835 
L 199.606839 185.44787 
L 199.902742 185.77351 
L 201.67816 186.615701 
L 202.861772 186.685843 
L 205.5249 186.498573 
L 206.412609 186.680016 
L 208.188027 187.243431 
L 209.667542 187.327228 
L 210.555252 187.14077 
L 212.922476 186.69345 
L 213.218379 186.69345 
L 213.810185 186.854101 
L 214.993797 187.234956 
L 215.881506 187.375375 
L 216.769216 187.393028 
L 217.952828 187.163947 
L 218.544634 186.966502 
L 220.024149 186.815131 
L 220.911858 186.88858 
L 222.391374 187.194375 
L 224.758598 187.599043 
L 226.534016 187.350658 
L 227.421725 187.189518 
L 228.901241 187.088169 
L 229.78895 187.211476 
L 230.084853 187.388321 
L 230.380756 187.388321 
L 230.972562 187.644426 
L 232.74798 188.101391 
L 233.931593 188.016182 
L 234.227496 187.84267 
L 235.115205 187.701391 
L 236.002914 187.477849 
L 237.186526 187.496202 
L 238.666041 187.773283 
L 239.553751 188.021351 
L 241.033266 188.009126 
L 242.216878 187.809245 
L 242.512781 187.654307 
L 247.839036 187.224072 
L 249.022648 187.010879 
L 250.502163 187.024435 
L 252.277582 187.271238 
L 253.461194 187.187729 
L 254.644806 186.71464 
L 255.236612 186.439132 
L 255.532515 186.213579 
L 255.828418 186.213579 
L 256.420224 185.847857 
L 257.012031 185.544497 
L 257.307934 185.342413 
L 257.603837 185.342413 
L 258.195643 185.154452 
L 259.083352 185.137144 
L 261.154673 185.224497 
L 262.338285 184.980793 
L 262.634188 184.807125 
L 262.930092 184.807125 
L 263.521898 184.500587 
L 264.113704 184.250215 
L 264.409607 184.044295 
L 264.70551 184.044295 
L 265.297316 183.705378 
L 267.072734 183.085047 
L 268.256346 183.115459 
L 269.144056 183.28055 
L 270.623571 183.392631 
L 271.51128 183.28101 
L 272.990795 182.673195 
L 273.286698 182.461294 
L 273.582601 182.461294 
L 273.878504 182.129068 
L 274.47031 181.945364 
L 275.35802 181.508272 
L 275.949826 181.226458 
L 276.837535 181.109472 
L 277.429341 181.196446 
L 278.612953 181.525639 
L 279.204759 181.763279 
L 280.388371 181.952805 
L 280.980178 181.886559 
L 281.867887 181.585789 
L 282.16379 181.341002 
L 282.459693 181.341002 
L 283.051499 180.975294 
L 283.939208 180.481701 
L 284.235111 180.481701 
L 284.826917 180.157037 
L 285.714626 179.849942 
L 286.898239 179.926046 
L 289.265463 180.58692 
L 290.153172 180.612173 
L 291.336784 180.299727 
L 291.92859 179.977058 
L 292.520397 179.732432 
L 293.112203 179.455664 
L 294.887621 179.005958 
L 295.77533 179.014481 
L 296.367136 179.13722 
L 296.958942 179.348629 
L 298.734361 179.674315 
L 299.62207 179.599356 
L 303.468809 178.610723 
L 304.356519 178.556414 
L 305.540131 178.649963 
L 306.131937 178.788223 
L 308.499161 179.020912 
L 310.866386 178.737129 
L 311.458192 178.592755 
L 312.937707 178.451462 
L 314.713125 178.738687 
L 316.192641 178.971199 
L 317.376253 179.001803 
L 321.814799 178.653456 
L 322.702508 178.759341 
L 323.590217 179.035036 
L 324.773829 179.250079 
L 326.84515 179.444505 
L 328.916472 179.568 
L 330.987793 179.881528 
L 333.355018 180.432594 
L 341.936206 181.592943 
L 342.823915 181.829656 
L 343.711624 182.103979 
L 344.007527 182.287667 
L 344.599333 182.474035 
L 344.895236 182.643817 
L 345.19114 182.643817 
L 345.782946 182.822194 
L 346.966558 182.85555 
L 349.333782 182.426278 
L 350.517394 182.440501 
L 351.701007 182.794909 
L 351.99691 183.021616 
L 352.292813 183.021616 
L 352.884619 183.408948 
L 354.364134 184.002604 
L 355.251843 184.015596 
L 356.139552 183.728382 
L 357.027262 183.357227 
L 357.323165 183.141799 
L 357.619068 183.141799 
L 358.210874 182.867118 
L 361.169904 182.059103 
L 362.353516 181.452187 
L 362.945323 180.948767 
L 363.241226 180.532497 
L 364.424838 179.683907 
L 364.720741 179.683907 
L 365.016644 179.389008 
L 367.975674 179.018938 
L 368.567481 178.690553 
L 368.863384 178.427833 
L 369.45519 178.126979 
L 369.751093 177.705401 
L 371.526511 176.545214 
L 372.710123 176.290307 
L 373.597832 176.200494 
L 374.781445 175.803876 
L 375.669154 174.996185 
L 375.965057 174.695941 
L 376.556863 174.422802 
L 377.148669 174.005438 
L 377.740475 173.935894 
L 378.332281 173.992097 
L 379.515893 174.556939 
L 380.699506 174.718233 
L 381.883118 174.351588 
L 382.179021 174.014392 
L 382.474924 174.014392 
L 382.770827 173.36113 
L 383.362633 173.006789 
L 383.658536 172.778111 
L 383.954439 172.364711 
L 385.138051 171.603672 
L 386.617567 171.593468 
L 386.91347 171.736864 
L 387.209373 171.736864 
L 387.505276 171.876581 
L 388.984791 171.881394 
L 390.760209 170.63175 
L 391.056112 170.143485 
L 391.647918 169.550278 
L 392.239725 168.944357 
L 392.535628 168.944357 
L 392.831531 168.655108 
L 393.71924 168.393482 
L 396.382367 168.200354 
L 396.974173 167.993425 
L 397.270076 167.777715 
L 397.565979 167.418997 
L 397.861883 167.418997 
L 398.157786 167.039077 
L 399.933204 166.030149 
L 400.820913 165.989406 
L 402.892234 166.578067 
L 403.48404 166.588109 
L 404.075847 166.417546 
L 405.555362 165.397005 
L 406.443071 164.627479 
L 406.738974 164.627479 
L 407.034877 164.42707 
L 407.922586 164.333957 
L 409.106198 164.679501 
L 409.698005 164.985952 
L 411.17752 165.111266 
L 412.065229 164.829945 
L 412.361132 164.516794 
L 412.657035 164.516794 
L 412.952938 163.989263 
L 413.544744 163.749623 
L 414.728356 163.257824 
L 415.616066 163.277852 
L 417.095581 163.671649 
L 417.98329 163.738291 
L 419.758708 163.051436 
L 420.054611 162.527636 
L 420.646417 162.279156 
L 421.83003 161.795642 
L 422.717739 161.856759 
L 423.901351 162.34702 
L 425.084963 162.550501 
L 426.268575 162.239352 
L 426.564478 161.866292 
L 426.860381 161.866292 
L 427.156285 161.534602 
L 428.339897 160.914198 
L 429.523509 160.967903 
L 430.115315 161.182472 
L 430.411218 161.42227 
L 431.003024 162.05711 
L 431.890733 162.898955 
L 432.186636 163.343079 
L 432.186636 163.343079 
" clip-path="url(#p724537bb84)" style="fill: none; stroke: #0000ff; stroke-width: 1.5; stroke-linecap: square"/>
   </g>
   <g id="patch_8">
    <path d="M 58.106 190.3975 
L 58.106 139.92 
" style="fill: none; stroke: #000000; stroke-width: 0.8; stroke-linejoin: miter; stroke-linecap: square"/>
   </g>
   <g id="patch_9">
    <path d="M 450 190.3975 
L 450 139.92 
" style="fill: none; stroke: #000000; stroke-width: 0.8; stroke-linejoin: miter; stroke-linecap: square"/>
   </g>
   <g id="patch_10">
    <path d="M 58.106 190.3975 
L 450 190.3975 
" style="fill: none; stroke: #000000; stroke-width: 0.8; stroke-linejoin: miter; stroke-linecap: square"/>
   </g>
   <g id="patch_11">
    <path d="M 58.106 139.92 
L 450 139.92 
" style="fill: none; stroke: #000000; stroke-width: 0.8; stroke-linejoin: miter; stroke-linecap: square"/>
   </g>
   <g id="text_25">
    <!-- Error in $z$-position -->
    <g transform="translate(200.773 133.92)scale(0.12 -0.12)">
     <use xlink:href="#DejaVuSans-45" transform="translate(0 0.015625)"/>
     <use xlink:href="#DejaVuSans-72" transform="translate(63.183594 0.015625)"/>
     <use xlink:href="#DejaVuSans-72" transform="translate(104.296875 0.015625)"/>
     <use xlink:href="#DejaVuSans-6f" transform="translate(145.410156 0.015625)"/>
     <use xlink:href="#DejaVuSans-72" transform="translate(206.591797 0.015625)"/>
     <use xlink:href="#DejaVuSans-20" transform="translate(247.705078 0.015625)"/>
     <use xlink:href="#DejaVuSans-69" transform="translate(279.492188 0.015625)"/>
     <use xlink:href="#DejaVuSans-6e" transform="translate(307.275391 0.015625)"/>
     <use xlink:href="#DejaVuSans-20" transform="translate(370.654297 0.015625)"/>
     <use xlink:href="#DejaVuSans-Oblique-7a" transform="translate(402.441406 0.015625)"/>
     <use xlink:href="#DejaVuSans-2d" transform="translate(454.931641 0.015625)"/>
     <use xlink:href="#DejaVuSans-70" transform="translate(491.015625 0.015625)"/>
     <use xlink:href="#DejaVuSans-6f" transform="translate(554.492188 0.015625)"/>
     <use xlink:href="#DejaVuSans-73" transform="translate(615.673828 0.015625)"/>
     <use xlink:href="#DejaVuSans-69" transform="translate(667.773438 0.015625)"/>
     <use xlink:href="#DejaVuSans-74" transform="translate(695.556641 0.015625)"/>
     <use xlink:href="#DejaVuSans-69" transform="translate(734.765625 0.015625)"/>
     <use xlink:href="#DejaVuSans-6f" transform="translate(762.548828 0.015625)"/>
     <use xlink:href="#DejaVuSans-6e" transform="translate(823.730469 0.015625)"/>
    </g>
   </g>
  </g>
  <g id="axes_3">
   <g id="patch_12">
    <path d="M 58.106 301.9975 
L 450 301.9975 
L 450 251.52 
L 58.106 251.52 
z
" style="fill: #ffffff"/>
   </g>
   <g id="matplotlib.axis_5">
    <g id="xtick_15">
     <g id="line2d_41">
      <path d="M 75.919364 301.9975 
L 75.919364 251.52 
" clip-path="url(#p7fcded1a1f)" style="fill: none; stroke: #b0b0b0; stroke-width: 0.8; stroke-linecap: square"/>
     </g>
     <g id="line2d_42">
      <g>
       <use xlink:href="#mc194f36d86" x="75.919364" y="301.9975" style="stroke: #000000; stroke-width: 0.8"/>
      </g>
     </g>
     <g id="text_26">
      <!-- 0 -->
      <g transform="translate(72.738114 316.595937)scale(0.1 -0.1)">
       <use xlink:href="#DejaVuSans-30"/>
      </g>
     </g>
    </g>
    <g id="xtick_16">
     <g id="line2d_43">
      <path d="M 135.050861 301.9975 
L 135.050861 251.52 
" clip-path="url(#p7fcded1a1f)" style="fill: none; stroke: #b0b0b0; stroke-width: 0.8; stroke-linecap: square"/>
     </g>
     <g id="line2d_44">
      <g>
       <use xlink:href="#mc194f36d86" x="135.050861" y="301.9975" style="stroke: #000000; stroke-width: 0.8"/>
      </g>
     </g>
     <g id="text_27">
      <!-- 2 -->
      <g transform="translate(131.869611 316.595937)scale(0.1 -0.1)">
       <use xlink:href="#DejaVuSans-32"/>
      </g>
     </g>
    </g>
    <g id="xtick_17">
     <g id="line2d_45">
      <path d="M 194.182359 301.9975 
L 194.182359 251.52 
" clip-path="url(#p7fcded1a1f)" style="fill: none; stroke: #b0b0b0; stroke-width: 0.8; stroke-linecap: square"/>
     </g>
     <g id="line2d_46">
      <g>
       <use xlink:href="#mc194f36d86" x="194.182359" y="301.9975" style="stroke: #000000; stroke-width: 0.8"/>
      </g>
     </g>
     <g id="text_28">
      <!-- 4 -->
      <g transform="translate(191.001109 316.595937)scale(0.1 -0.1)">
       <use xlink:href="#DejaVuSans-34"/>
      </g>
     </g>
    </g>
    <g id="xtick_18">
     <g id="line2d_47">
      <path d="M 253.313856 301.9975 
L 253.313856 251.52 
" clip-path="url(#p7fcded1a1f)" style="fill: none; stroke: #b0b0b0; stroke-width: 0.8; stroke-linecap: square"/>
     </g>
     <g id="line2d_48">
      <g>
       <use xlink:href="#mc194f36d86" x="253.313856" y="301.9975" style="stroke: #000000; stroke-width: 0.8"/>
      </g>
     </g>
     <g id="text_29">
      <!-- 6 -->
      <g transform="translate(250.132606 316.595937)scale(0.1 -0.1)">
       <use xlink:href="#DejaVuSans-36"/>
      </g>
     </g>
    </g>
    <g id="xtick_19">
     <g id="line2d_49">
      <path d="M 312.445354 301.9975 
L 312.445354 251.52 
" clip-path="url(#p7fcded1a1f)" style="fill: none; stroke: #b0b0b0; stroke-width: 0.8; stroke-linecap: square"/>
     </g>
     <g id="line2d_50">
      <g>
       <use xlink:href="#mc194f36d86" x="312.445354" y="301.9975" style="stroke: #000000; stroke-width: 0.8"/>
      </g>
     </g>
     <g id="text_30">
      <!-- 8 -->
      <g transform="translate(309.264104 316.595937)scale(0.1 -0.1)">
       <use xlink:href="#DejaVuSans-38"/>
      </g>
     </g>
    </g>
    <g id="xtick_20">
     <g id="line2d_51">
      <path d="M 371.576851 301.9975 
L 371.576851 251.52 
" clip-path="url(#p7fcded1a1f)" style="fill: none; stroke: #b0b0b0; stroke-width: 0.8; stroke-linecap: square"/>
     </g>
     <g id="line2d_52">
      <g>
       <use xlink:href="#mc194f36d86" x="371.576851" y="301.9975" style="stroke: #000000; stroke-width: 0.8"/>
      </g>
     </g>
     <g id="text_31">
      <!-- 10 -->
      <g transform="translate(365.214351 316.595937)scale(0.1 -0.1)">
       <use xlink:href="#DejaVuSans-31"/>
       <use xlink:href="#DejaVuSans-30" x="63.623047"/>
      </g>
     </g>
    </g>
    <g id="xtick_21">
     <g id="line2d_53">
      <path d="M 430.708349 301.9975 
L 430.708349 251.52 
" clip-path="url(#p7fcded1a1f)" style="fill: none; stroke: #b0b0b0; stroke-width: 0.8; stroke-linecap: square"/>
     </g>
     <g id="line2d_54">
      <g>
       <use xlink:href="#mc194f36d86" x="430.708349" y="301.9975" style="stroke: #000000; stroke-width: 0.8"/>
      </g>
     </g>
     <g id="text_32">
      <!-- 12 -->
      <g transform="translate(424.345849 316.595937)scale(0.1 -0.1)">
       <use xlink:href="#DejaVuSans-31"/>
       <use xlink:href="#DejaVuSans-32" x="63.623047"/>
      </g>
     </g>
    </g>
    <g id="text_33">
     <!-- $t$ [s] -->
     <g transform="translate(243.953 330.274063)scale(0.1 -0.1)">
      <use xlink:href="#DejaVuSans-Oblique-74" transform="translate(0 0.015625)"/>
      <use xlink:href="#DejaVuSans-20" transform="translate(39.208984 0.015625)"/>
      <use xlink:href="#DejaVuSans-5b" transform="translate(70.996094 0.015625)"/>
      <use xlink:href="#DejaVuSans-73" transform="translate(110.009766 0.015625)"/>
      <use xlink:href="#DejaVuSans-5d" transform="translate(162.109375 0.015625)"/>
     </g>
    </g>
   </g>
   <g id="matplotlib.axis_6">
    <g id="ytick_6">
     <g id="line2d_55">
      <path d="M 58.106 289.130752 
L 450 289.130752 
" clip-path="url(#p7fcded1a1f)" style="fill: none; stroke: #b0b0b0; stroke-width: 0.8; stroke-linecap: square"/>
     </g>
     <g id="line2d_56">
      <g>
       <use xlink:href="#m0120e11555" x="58.106" y="289.130752" style="stroke: #000000; stroke-width: 0.8"/>
      </g>
     </g>
     <g id="text_34">
      <!-- −0.1 -->
      <g transform="translate(26.823188 292.92997)scale(0.1 -0.1)">
       <use xlink:href="#DejaVuSans-2212"/>
       <use xlink:href="#DejaVuSans-30" x="83.789062"/>
       <use xlink:href="#DejaVuSans-2e" x="147.412109"/>
       <use xlink:href="#DejaVuSans-31" x="179.199219"/>
      </g>
     </g>
    </g>
    <g id="ytick_7">
     <g id="line2d_57">
      <path d="M 58.106 274.563638 
L 450 274.563638 
" clip-path="url(#p7fcded1a1f)" style="fill: none; stroke: #b0b0b0; stroke-width: 0.8; stroke-linecap: square"/>
     </g>
     <g id="line2d_58">
      <g>
       <use xlink:href="#m0120e11555" x="58.106" y="274.563638" style="stroke: #000000; stroke-width: 0.8"/>
      </g>
     </g>
     <g id="text_35">
      <!-- 0.0 -->
      <g transform="translate(35.202875 278.362857)scale(0.1 -0.1)">
       <use xlink:href="#DejaVuSans-30"/>
       <use xlink:href="#DejaVuSans-2e" x="63.623047"/>
       <use xlink:href="#DejaVuSans-30" x="95.410156"/>
      </g>
     </g>
    </g>
    <g id="ytick_8">
     <g id="line2d_59">
      <path d="M 58.106 259.996525 
L 450 259.996525 
" clip-path="url(#p7fcded1a1f)" style="fill: none; stroke: #b0b0b0; stroke-width: 0.8; stroke-linecap: square"/>
     </g>
     <g id="line2d_60">
      <g>
       <use xlink:href="#m0120e11555" x="58.106" y="259.996525" style="stroke: #000000; stroke-width: 0.8"/>
      </g>
     </g>
     <g id="text_36">
      <!-- 0.1 -->
      <g transform="translate(35.202875 263.795743)scale(0.1 -0.1)">
       <use xlink:href="#DejaVuSans-30"/>
       <use xlink:href="#DejaVuSans-2e" x="63.623047"/>
       <use xlink:href="#DejaVuSans-31" x="95.410156"/>
      </g>
     </g>
    </g>
    <g id="text_37">
     <!-- $e_\theta$ [rad] -->
     <g transform="translate(20.7435 295.90875)rotate(-90)scale(0.1 -0.1)">
      <defs>
       <path id="DejaVuSans-Oblique-3b8" d="M 2913 2219 
L 925 2219 
Q 791 1284 928 888 
Q 1100 400 1566 400 
Q 2034 400 2391 891 
Q 2703 1322 2913 2219 
z
M 3009 2750 
Q 3094 3638 2984 3950 
Q 2813 4444 2353 4444 
Q 1875 4444 1525 3956 
Q 1250 3563 1034 2750 
L 3009 2750 
z
M 2444 4913 
Q 3194 4913 3494 4250 
Q 3794 3591 3566 2422 
Q 3341 1256 2781 594 
Q 2225 -72 1475 -72 
Q 722 -72 425 594 
Q 128 1256 353 2422 
Q 581 3591 1134 4250 
Q 1691 4913 2444 4913 
z
" transform="scale(0.015625)"/>
       <path id="DejaVuSans-61" d="M 2194 1759 
Q 1497 1759 1228 1600 
Q 959 1441 959 1056 
Q 959 750 1161 570 
Q 1363 391 1709 391 
Q 2188 391 2477 730 
Q 2766 1069 2766 1631 
L 2766 1759 
L 2194 1759 
z
M 3341 1997 
L 3341 0 
L 2766 0 
L 2766 531 
Q 2569 213 2275 61 
Q 1981 -91 1556 -91 
Q 1019 -91 701 211 
Q 384 513 384 1019 
Q 384 1609 779 1909 
Q 1175 2209 1959 2209 
L 2766 2209 
L 2766 2266 
Q 2766 2663 2505 2880 
Q 2244 3097 1772 3097 
Q 1472 3097 1187 3025 
Q 903 2953 641 2809 
L 641 3341 
Q 956 3463 1253 3523 
Q 1550 3584 1831 3584 
Q 2591 3584 2966 3190 
Q 3341 2797 3341 1997 
z
" transform="scale(0.015625)"/>
       <path id="DejaVuSans-64" d="M 2906 2969 
L 2906 4863 
L 3481 4863 
L 3481 0 
L 2906 0 
L 2906 525 
Q 2725 213 2448 61 
Q 2172 -91 1784 -91 
Q 1150 -91 751 415 
Q 353 922 353 1747 
Q 353 2572 751 3078 
Q 1150 3584 1784 3584 
Q 2172 3584 2448 3432 
Q 2725 3281 2906 2969 
z
M 947 1747 
Q 947 1113 1208 752 
Q 1469 391 1925 391 
Q 2381 391 2643 752 
Q 2906 1113 2906 1747 
Q 2906 2381 2643 2742 
Q 2381 3103 1925 3103 
Q 1469 3103 1208 2742 
Q 947 2381 947 1747 
z
" transform="scale(0.015625)"/>
      </defs>
      <use xlink:href="#DejaVuSans-Oblique-65" transform="translate(0 0.015625)"/>
      <use xlink:href="#DejaVuSans-Oblique-3b8" transform="translate(61.523438 -16.390625)scale(0.7)"/>
      <use xlink:href="#DejaVuSans-20" transform="translate(107.084961 0.015625)"/>
      <use xlink:href="#DejaVuSans-5b" transform="translate(138.87207 0.015625)"/>
      <use xlink:href="#DejaVuSans-72" transform="translate(177.885742 0.015625)"/>
      <use xlink:href="#DejaVuSans-61" transform="translate(218.999023 0.015625)"/>
      <use xlink:href="#DejaVuSans-64" transform="translate(280.27832 0.015625)"/>
      <use xlink:href="#DejaVuSans-5d" transform="translate(343.754883 0.015625)"/>
     </g>
    </g>
   </g>
   <g id="line2d_61">
    <path d="M 75.919364 274.474615 
L 76.215267 274.014687 
L 76.51117 274.014687 
L 76.807073 273.345126 
L 77.398879 272.426627 
L 77.694782 271.285093 
L 77.990685 269.113569 
L 79.174297 263.838232 
L 79.766103 260.222383 
L 80.062006 260.222383 
L 80.357909 259.080792 
L 80.653812 258.785839 
L 80.949715 258.719231 
L 81.837425 260.042555 
L 82.133328 261.796374 
L 82.429231 261.796374 
L 82.725134 265.054479 
L 83.021037 265.629602 
L 83.908746 269.172938 
L 84.204649 271.058301 
L 84.500552 273.816569 
L 85.388261 278.496741 
L 85.684164 281.832446 
L 85.980067 281.832446 
L 86.27597 286.420228 
L 86.571873 287.035921 
L 87.459583 289.979336 
L 88.347292 291.13801 
L 88.939098 291.409005 
L 89.235001 291.681074 
L 89.826807 291.836021 
L 90.12271 291.778825 
L 90.714516 290.44784 
L 91.306322 288.152677 
L 91.602225 286.609381 
L 91.898128 283.937774 
L 92.194031 280.001745 
L 93.673547 269.535493 
L 93.96945 266.269979 
L 94.857159 262.079134 
L 95.448965 259.431168 
L 95.744868 257.992863 
L 96.336674 257.085891 
L 96.92848 256.571682 
L 97.520286 256.39666 
L 98.407995 257.108431 
L 98.999802 257.927464 
L 99.295705 258.461616 
L 99.591608 259.437984 
L 99.887511 261.109393 
L 100.77522 264.515079 
L 101.662929 272.303004 
L 101.958832 273.18713 
L 102.550638 276.843097 
L 102.846541 280.514092 
L 103.142444 282.28928 
L 103.73425 287.215693 
L 104.030153 287.958941 
L 104.326056 289.333599 
L 104.62196 291.492343 
L 104.917863 292.194495 
L 105.213766 292.594486 
L 105.509669 292.608613 
L 105.805572 291.628976 
L 106.101475 291.628976 
L 106.693281 288.599401 
L 107.285087 286.003651 
L 108.468699 278.331381 
L 110.244117 270.613092 
L 110.540021 270.377557 
L 110.835924 270.522044 
L 111.131827 271.553009 
L 111.42773 271.553009 
L 111.723633 273.251355 
L 112.315439 275.244681 
L 112.907245 278.427453 
L 113.203148 278.427453 
L 113.499051 279.701078 
L 114.090857 280.430939 
L 114.38676 280.546428 
L 114.682663 280.125523 
L 114.978566 280.125523 
L 116.162178 276.113078 
L 116.458082 275.67988 
L 116.753985 274.797442 
L 117.049888 273.010821 
L 117.345791 272.129078 
L 117.937597 269.582253 
L 118.2335 269.168465 
L 118.529403 268.340272 
L 118.825306 266.641394 
L 119.121209 266.641394 
L 119.417112 263.849796 
L 119.713015 263.358743 
L 120.304821 261.383876 
L 120.600724 259.517026 
L 120.896627 259.517026 
L 121.19253 257.329378 
L 121.488433 257.066957 
L 122.08024 256.361235 
L 122.376143 256.27658 
L 122.672046 256.660374 
L 122.967949 257.406021 
L 123.263852 257.723309 
L 123.855658 259.239383 
L 124.151561 260.918608 
L 124.743367 262.852207 
L 125.03927 263.834387 
L 125.335173 264.130096 
L 125.631076 264.658963 
L 125.926979 265.425716 
L 126.518785 265.783646 
L 126.814688 265.799472 
L 127.110591 265.552225 
L 127.406494 265.552225 
L 127.998301 264.742107 
L 129.181913 263.415774 
L 129.773719 263.353862 
L 130.365525 263.507052 
L 130.661428 263.734036 
L 131.253234 264.361192 
L 132.140943 265.107406 
L 133.324555 266.572555 
L 133.916362 267.162437 
L 134.212265 267.655653 
L 134.508168 268.44398 
L 135.395877 270.038828 
L 135.69178 270.686726 
L 135.987683 272.467335 
L 136.283586 272.467335 
L 136.579489 273.971157 
L 137.467198 276.185119 
L 138.059004 278.20689 
L 138.354907 278.918489 
L 138.65081 279.147711 
L 139.242616 280.020401 
L 139.538519 280.75251 
L 140.130326 281.502768 
L 141.313938 281.818578 
L 141.609841 281.818578 
L 142.793453 280.822657 
L 143.681162 278.777401 
L 143.977065 278.536982 
L 144.568871 277.564553 
L 145.160677 276.1223 
L 145.45658 275.590373 
L 145.752484 275.413044 
L 146.34429 274.671663 
L 146.640193 273.878944 
L 146.936096 273.878944 
L 147.231999 272.422293 
L 147.527902 272.123351 
L 148.119708 270.733685 
L 149.007417 266.12384 
L 149.30332 265.578485 
L 149.895126 263.310966 
L 150.191029 261.14772 
L 150.782835 258.869854 
L 151.374641 256.671317 
L 151.670545 256.671317 
L 151.966448 255.595129 
L 152.854157 254.33841 
L 153.445963 254.106448 
L 154.037769 253.832589 
L 154.925478 253.844671 
L 155.813187 254.037607 
L 156.404993 254.270843 
L 157.292703 254.644687 
L 158.772218 256.242612 
L 159.068121 257.484748 
L 159.364024 258.052906 
L 159.659927 258.34708 
L 160.251733 260.471108 
L 160.547636 260.471108 
L 160.843539 261.554606 
L 162.027151 263.614622 
L 162.323054 263.614622 
L 162.618957 263.876054 
L 163.506667 264.00398 
L 164.394376 264.034298 
L 165.282085 264.388881 
L 165.873891 265.265139 
L 166.169794 265.675055 
L 166.465697 266.36948 
L 166.7616 267.376294 
L 167.057503 267.376294 
L 167.353406 268.358193 
L 168.241115 269.4852 
L 168.832921 269.500573 
L 169.424728 268.920137 
L 170.60834 268.090268 
L 171.200146 268.37645 
L 171.496049 268.70819 
L 171.791952 269.495428 
L 172.087855 271.136572 
L 172.383758 271.136572 
L 172.679661 273.411908 
L 173.56737 277.530487 
L 174.159176 281.51661 
L 174.750982 282.694332 
L 175.046886 282.959633 
L 175.638692 282.489691 
L 175.934595 281.929542 
L 176.230498 280.352814 
L 176.822304 278.432784 
L 177.41411 275.157652 
L 177.710013 275.157652 
L 178.005916 273.801315 
L 178.301819 273.372062 
L 178.597722 273.142591 
L 178.893625 273.219856 
L 179.189528 274.086781 
L 179.485431 274.086781 
L 179.781334 275.554067 
L 180.964947 278.73631 
L 181.26085 278.73631 
L 181.556753 278.429445 
L 181.852656 277.960137 
L 182.444462 275.59942 
L 182.740365 274.063039 
L 183.036268 274.063039 
L 183.332171 271.897232 
L 184.515783 267.84908 
L 184.811686 267.792577 
L 185.107589 267.976161 
L 185.403492 268.384771 
L 185.995298 269.767961 
L 186.291201 271.15112 
L 186.587105 273.100432 
L 187.178911 274.678601 
L 187.474814 275.189398 
L 187.770717 275.445515 
L 188.06662 275.28668 
L 189.546135 268.998354 
L 190.433844 262.196974 
L 191.321553 258.277637 
L 191.913359 256.437503 
L 192.209262 256.418967 
L 192.505166 256.890922 
L 193.096972 258.663787 
L 193.392875 261.274994 
L 193.688778 261.274994 
L 193.984681 265.908267 
L 194.280584 266.693099 
L 195.464196 272.364297 
L 195.760099 272.622611 
L 196.647808 271.036702 
L 196.943711 268.814305 
L 197.535517 266.120086 
L 198.127323 261.301141 
L 198.423227 261.301141 
L 198.71913 258.959811 
L 199.310936 257.257411 
L 199.606839 256.67787 
L 199.902742 257.077064 
L 200.198645 257.773239 
L 200.790451 259.993941 
L 201.086354 261.422728 
L 201.382257 263.820224 
L 201.67816 267.20911 
L 202.861772 273.34324 
L 203.157675 274.889236 
L 203.453578 275.809521 
L 203.749481 275.809521 
L 204.045384 275.447316 
L 204.637191 274.084121 
L 204.933094 273.138089 
L 205.228997 271.498351 
L 205.5249 269.114716 
L 207.004415 263.651644 
L 207.300318 263.182252 
L 207.596221 263.068452 
L 207.892124 263.746292 
L 208.188027 265.026972 
L 208.48393 265.568247 
L 209.075736 268.166348 
L 209.371639 271.170332 
L 209.667542 271.170332 
L 209.963445 275.552822 
L 210.259349 276.20554 
L 211.147058 279.690968 
L 211.442961 279.878084 
L 211.738864 279.66558 
L 212.034767 278.984011 
L 212.33067 278.675046 
L 212.626573 277.945662 
L 212.922476 276.135459 
L 213.218379 276.135459 
L 213.514282 272.906534 
L 213.810185 272.34408 
L 214.401991 270.116676 
L 214.697894 268.100735 
L 214.993797 266.96268 
L 215.2897 266.28896 
L 215.881506 266.166309 
L 216.17741 266.412431 
L 217.065119 270.407137 
L 217.361022 272.390325 
L 217.656925 273.073226 
L 217.952828 274.421405 
L 218.248731 276.839941 
L 218.840537 278.521507 
L 219.13644 279.161248 
L 219.728246 279.179377 
L 220.615955 276.316941 
L 220.911858 274.415025 
L 221.207761 271.448485 
L 223.279083 260.781654 
L 223.574986 260.706125 
L 223.870889 260.962754 
L 224.166792 261.525434 
L 224.462695 262.358979 
L 224.758598 264.028004 
L 225.054501 266.78233 
L 226.829919 275.200194 
L 227.125822 275.297598 
L 227.421725 275.088951 
L 227.717629 274.601515 
L 228.013532 273.859152 
L 228.309435 272.339494 
L 228.605338 269.764404 
L 229.78895 263.860657 
L 230.084853 260.462906 
L 230.380756 260.462906 
L 230.676659 258.531576 
L 230.972562 257.978166 
L 231.268465 257.747355 
L 231.564368 257.857418 
L 231.860271 259.590605 
L 232.156174 259.590605 
L 232.452077 262.1765 
L 233.339786 267.061437 
L 233.63569 270.291514 
L 233.931593 270.291514 
L 234.227496 274.020692 
L 234.523399 274.447471 
L 234.819302 275.103797 
L 235.115205 275.479713 
L 235.411108 275.335445 
L 235.707011 275.335445 
L 236.002914 273.157998 
L 236.298817 272.632616 
L 236.890623 270.265222 
L 237.186526 267.657928 
L 237.482429 266.344835 
L 238.074235 262.603112 
L 238.370138 262.052734 
L 238.961944 260.082221 
L 239.257847 260.239353 
L 239.553751 261.187131 
L 240.145557 262.19396 
L 240.44146 264.151361 
L 240.737363 267.330299 
L 241.625072 272.447726 
L 241.920975 275.612895 
L 242.216878 275.612895 
L 242.512781 278.67308 
L 243.104587 279.248125 
L 243.40049 279.276072 
L 243.696393 278.482149 
L 243.992296 278.482149 
L 244.288199 275.491512 
L 244.584102 274.844071 
L 245.175908 272.002773 
L 245.471812 268.984582 
L 245.767715 268.984582 
L 246.063618 264.785678 
L 246.359521 264.179371 
L 246.951327 262.294913 
L 247.24723 261.675115 
L 247.543133 261.917663 
L 247.839036 262.916867 
L 248.134939 264.535061 
L 248.430842 265.182597 
L 248.726745 266.606127 
L 249.022648 269.802818 
L 249.614454 273.187342 
L 250.20626 278.714453 
L 250.502163 278.714453 
L 250.798066 280.847226 
L 251.093969 281.445147 
L 251.389873 281.701523 
L 251.685776 281.602119 
L 251.981679 280.810532 
L 252.573485 277.372969 
L 253.461194 272.573837 
L 254.348903 265.246195 
L 255.236612 261.281014 
L 255.532515 260.618504 
L 255.828418 260.618504 
L 256.420224 262.272232 
L 256.716127 263.434427 
L 257.012031 265.604259 
L 257.307934 269.015709 
L 257.603837 269.015709 
L 257.89974 272.704444 
L 258.787449 278.843331 
L 259.083352 281.312152 
L 259.379255 282.069841 
L 259.675158 282.470584 
L 259.971061 282.496105 
L 260.266964 282.151993 
L 260.562867 280.979566 
L 260.85877 278.396215 
L 261.154673 278.396215 
L 261.450576 275.011788 
L 262.042382 271.22706 
L 262.634188 264.579216 
L 262.930092 264.579216 
L 263.225995 261.167569 
L 264.113704 256.976091 
L 264.409607 256.40291 
L 264.70551 256.40291 
L 265.297316 258.314885 
L 265.889122 261.083717 
L 266.185025 263.675017 
L 266.480928 267.484667 
L 268.552249 281.284905 
L 268.848153 281.745501 
L 269.144056 281.828608 
L 269.439959 281.54143 
L 269.735862 279.945456 
L 270.031765 279.945456 
L 270.327668 275.666605 
L 270.623571 274.806576 
L 271.51128 269.27461 
L 272.398989 261.139789 
L 273.286698 256.108564 
L 273.582601 256.108564 
L 273.878504 255.615918 
L 274.174407 255.870574 
L 274.47031 256.649537 
L 275.062117 259.152516 
L 275.35802 261.668648 
L 275.653923 265.517242 
L 276.837535 273.702617 
L 277.725244 281.398053 
L 278.31705 283.482064 
L 278.612953 284.26003 
L 278.908856 284.086911 
L 279.204759 283.483149 
L 279.796565 281.388526 
L 280.092468 279.214437 
L 280.388371 275.831314 
L 280.684275 275.831314 
L 280.980178 272.150423 
L 281.571984 268.416253 
L 282.16379 262.356119 
L 282.459693 262.356119 
L 282.755596 259.733128 
L 283.347402 257.993383 
L 283.643305 257.957599 
L 283.939208 258.691773 
L 284.235111 258.691773 
L 285.418723 267.249817 
L 285.714626 270.02383 
L 286.010529 270.02383 
L 286.306432 273.690852 
L 286.898239 277.747626 
L 287.194142 279.653069 
L 287.490045 280.17423 
L 288.081851 282.057724 
L 288.377754 282.151711 
L 288.673657 281.737018 
L 288.96956 280.682572 
L 289.265463 280.203271 
L 289.561366 279.080703 
L 289.857269 276.296975 
L 290.153172 274.708275 
L 291.040881 267.048774 
L 291.336784 267.048774 
L 291.632687 263.952151 
L 292.224494 261.599251 
L 292.520397 260.570046 
L 292.8163 260.3458 
L 293.112203 260.720865 
L 293.704009 262.344308 
L 293.999912 263.516131 
L 294.295815 265.624202 
L 294.591718 268.837887 
L 294.887621 268.837887 
L 295.183524 272.224607 
L 296.663039 280.360478 
L 296.958942 280.813064 
L 297.254845 281.036185 
L 297.550748 281.02235 
L 297.846651 280.761992 
L 298.142555 279.898089 
L 298.734361 276.626422 
L 299.62207 271.979678 
L 300.509779 264.763 
L 301.101585 262.318223 
L 301.693391 260.794771 
L 301.989294 260.436037 
L 302.5811 261.868486 
L 303.172906 264.171276 
L 303.468809 265.614896 
L 303.764712 268.02267 
L 304.060616 271.447533 
L 304.948325 276.536587 
L 305.244228 279.511173 
L 305.540131 279.511173 
L 305.836034 282.243928 
L 306.42784 282.634753 
L 306.723743 282.487753 
L 307.019646 281.229815 
L 307.315549 281.229815 
L 307.611452 277.345971 
L 307.907355 276.535623 
L 308.499161 273.04573 
L 309.090967 266.75755 
L 309.38687 264.30613 
L 309.682773 263.550597 
L 310.570483 259.559043 
L 310.866386 259.559043 
L 311.458192 260.432372 
L 312.049998 262.600795 
L 312.345901 265.569693 
L 312.641804 267.256305 
L 313.529513 275.255266 
L 313.825416 275.255266 
L 314.121319 278.445115 
L 315.009028 282.118961 
L 315.600834 282.081537 
L 316.192641 279.136584 
L 316.488544 276.990367 
L 316.784447 276.203561 
L 317.376253 272.835491 
L 317.672156 269.378865 
L 317.968059 269.378865 
L 318.263962 264.576491 
L 318.559865 263.869052 
L 319.447574 260.12921 
L 319.743477 260.000883 
L 320.03938 260.640813 
L 320.335283 261.013277 
L 320.927089 263.191303 
L 321.814799 271.423493 
L 322.110702 272.325554 
L 322.702508 275.908921 
L 322.998411 279.194322 
L 323.590217 282.648945 
L 324.477926 283.567603 
L 325.069732 281.891127 
L 325.661538 277.74732 
L 325.957441 275.1488 
L 326.253344 275.1488 
L 326.549247 271.477924 
L 327.436957 265.320083 
L 327.73286 262.457656 
L 328.324666 260.42745 
L 328.620569 259.825276 
L 328.916472 259.533207 
L 329.212375 259.574145 
L 329.508278 260.257428 
L 330.100084 263.492916 
L 330.987793 268.219219 
L 332.171405 277.560702 
L 333.355018 284.123526 
L 333.650921 284.466722 
L 333.946824 284.46867 
L 334.242727 284.131042 
L 334.53863 283.026125 
L 335.130436 279.04832 
L 336.018145 273.710045 
L 336.905854 265.711404 
L 337.793563 261.706554 
L 338.089466 260.566677 
L 338.385369 260.25357 
L 338.681272 260.610627 
L 339.273079 262.222918 
L 339.568982 263.384494 
L 339.864885 265.458339 
L 340.160788 268.578216 
L 342.528012 281.170648 
L 343.119818 282.073975 
L 343.415721 282.186051 
L 343.711624 281.888954 
L 344.007527 280.600213 
L 344.30343 280.133384 
L 344.599333 278.444323 
L 344.895236 275.689613 
L 345.19114 275.689613 
L 345.487043 272.646023 
L 346.374752 267.54406 
L 346.670655 265.296122 
L 346.966558 265.296122 
L 347.262461 263.763962 
L 347.854267 262.927408 
L 348.446073 263.181395 
L 348.741976 263.60945 
L 349.333782 265.877083 
L 349.629685 266.858563 
L 349.925588 268.449257 
L 350.221491 270.663243 
L 350.517394 270.663243 
L 350.813297 272.785406 
L 351.99691 276.983702 
L 352.292813 276.983702 
L 352.588716 277.545164 
L 352.884619 277.636748 
L 353.180522 277.611031 
L 353.476425 277.367295 
L 354.068231 276.29849 
L 355.547746 273.825023 
L 355.843649 273.201413 
L 356.731359 272.649407 
L 358.210874 271.932909 
L 359.394486 271.722647 
L 360.282195 271.510729 
L 360.578098 271.354194 
L 360.874001 270.989076 
L 361.465807 269.72905 
L 362.353516 267.846903 
L 362.64942 267.150436 
L 363.241226 265.184644 
L 363.537129 264.918387 
L 363.833032 264.828928 
L 364.128935 264.922245 
L 364.424838 265.622563 
L 364.720741 265.622563 
L 365.016644 267.623865 
L 365.312547 268.027965 
L 365.904353 269.705789 
L 366.200256 271.349256 
L 366.496159 271.349256 
L 366.792062 273.163086 
L 367.679771 273.574157 
L 368.271577 272.443994 
L 369.159287 269.441088 
L 369.45519 268.483102 
L 369.751093 266.797422 
L 370.342899 265.504593 
L 370.638802 265.267356 
L 370.934705 265.411053 
L 371.230608 265.411053 
L 372.118317 267.439242 
L 372.41422 268.700645 
L 372.710123 270.642046 
L 373.006026 270.642046 
L 373.301929 272.717672 
L 373.597832 273.755155 
L 374.189638 276.633078 
L 374.485542 277.069906 
L 374.781445 277.891373 
L 375.077348 279.251567 
L 375.669154 280.172253 
L 375.965057 280.258539 
L 376.26096 280.223253 
L 376.556863 280.074846 
L 377.444572 278.712947 
L 377.740475 278.573084 
L 380.107699 276.368603 
L 380.403603 275.618585 
L 380.699506 275.618585 
L 380.995409 274.810352 
L 381.883118 274.61456 
L 382.179021 274.769209 
L 382.474924 274.769209 
L 382.770827 275.439488 
L 383.06673 275.583955 
L 383.954439 276.384099 
L 384.250342 276.316355 
L 384.546245 275.952984 
L 385.138051 274.438546 
L 385.433954 274.438546 
L 385.729857 273.140211 
L 386.617567 271.489114 
L 387.209373 271.420997 
L 387.505276 271.998963 
L 387.801179 271.998963 
L 388.097082 273.688124 
L 388.392985 274.036235 
L 388.984791 275.558968 
L 389.280694 277.135093 
L 390.168403 279.552799 
L 390.760209 279.917618 
L 391.056112 279.658309 
L 391.352015 279.174424 
L 391.943822 276.520829 
L 392.239725 274.787923 
L 392.535628 274.787923 
L 392.831531 272.333646 
L 393.71924 268.288444 
L 394.311046 267.613581 
L 394.606949 267.630443 
L 394.902852 268.017117 
L 396.086464 271.804713 
L 396.382367 273.878485 
L 397.565979 278.186904 
L 397.861883 278.186904 
L 398.157786 278.677233 
L 398.453689 278.632734 
L 398.749592 278.206357 
L 399.045495 277.33781 
L 399.341398 276.109443 
L 399.637301 276.109443 
L 399.933204 274.199024 
L 401.116816 270.436909 
L 401.412719 270.436909 
L 401.708622 270.159209 
L 402.004525 270.188066 
L 402.892234 270.825441 
L 403.188137 271.108486 
L 403.48404 271.706416 
L 404.37175 272.551233 
L 404.963556 272.687994 
L 405.555362 273.008369 
L 405.851265 273.498517 
L 406.443071 275.32099 
L 406.738974 275.32099 
L 407.034877 276.661021 
L 407.626683 277.672667 
L 407.922586 278.100146 
L 408.514392 278.182786 
L 409.106198 277.301361 
L 410.289811 274.267449 
L 410.585714 272.746205 
L 411.473423 270.664806 
L 412.065229 270.25868 
L 412.361132 270.030916 
L 412.657035 270.030916 
L 412.952938 270.832273 
L 413.248841 271.11819 
L 413.840647 272.598307 
L 414.13655 274.426181 
L 415.320162 277.885757 
L 415.911969 277.80254 
L 416.207872 277.483783 
L 417.687387 273.634803 
L 417.98329 273.634803 
L 418.279193 272.997173 
L 418.575096 273.069213 
L 419.166902 273.791253 
L 419.462805 274.928776 
L 419.758708 274.928776 
L 420.054611 276.120303 
L 420.646417 276.120402 
L 420.94232 275.935471 
L 421.238223 275.170482 
L 421.534127 275.170482 
L 421.83003 274.644196 
L 422.421836 274.447681 
L 422.717739 274.476039 
L 423.309545 274.661474 
L 424.493157 274.398121 
L 424.78906 274.529992 
L 425.084963 274.529992 
L 425.380866 275.828001 
L 425.676769 276.177348 
L 426.268575 277.905296 
L 426.564478 280.692204 
L 426.860381 280.692204 
L 427.156285 283.386293 
L 428.043994 287.882203 
L 428.339897 291.561008 
L 428.6358 291.561008 
L 428.931703 294.213589 
L 429.819412 297.426021 
L 430.707121 299.703068 
L 431.003024 299.583529 
L 431.298927 299.170544 
L 431.59483 298.437075 
L 431.890733 296.69886 
L 432.186636 293.269778 
L 432.186636 293.269778 
" clip-path="url(#p7fcded1a1f)" style="fill: none; stroke: #008000; stroke-width: 1.5; stroke-linecap: square"/>
   </g>
   <g id="patch_13">
    <path d="M 58.106 301.9975 
L 58.106 251.52 
" style="fill: none; stroke: #000000; stroke-width: 0.8; stroke-linejoin: miter; stroke-linecap: square"/>
   </g>
   <g id="patch_14">
    <path d="M 450 301.9975 
L 450 251.52 
" style="fill: none; stroke: #000000; stroke-width: 0.8; stroke-linejoin: miter; stroke-linecap: square"/>
   </g>
   <g id="patch_15">
    <path d="M 58.106 301.9975 
L 450 301.9975 
" style="fill: none; stroke: #000000; stroke-width: 0.8; stroke-linejoin: miter; stroke-linecap: square"/>
   </g>
   <g id="patch_16">
    <path d="M 58.106 251.52 
L 450 251.52 
" style="fill: none; stroke: #000000; stroke-width: 0.8; stroke-linejoin: miter; stroke-linecap: square"/>
   </g>
   <g id="text_38">
    <!-- Error in swing angle -->
    <g transform="translate(194.282688 245.52)scale(0.12 -0.12)">
     <defs>
      <path id="DejaVuSans-77" d="M 269 3500 
L 844 3500 
L 1563 769 
L 2278 3500 
L 2956 3500 
L 3675 769 
L 4391 3500 
L 4966 3500 
L 4050 0 
L 3372 0 
L 2619 2869 
L 1863 0 
L 1184 0 
L 269 3500 
z
" transform="scale(0.015625)"/>
      <path id="DejaVuSans-67" d="M 2906 1791 
Q 2906 2416 2648 2759 
Q 2391 3103 1925 3103 
Q 1463 3103 1205 2759 
Q 947 2416 947 1791 
Q 947 1169 1205 825 
Q 1463 481 1925 481 
Q 2391 481 2648 825 
Q 2906 1169 2906 1791 
z
M 3481 434 
Q 3481 -459 3084 -895 
Q 2688 -1331 1869 -1331 
Q 1566 -1331 1297 -1286 
Q 1028 -1241 775 -1147 
L 775 -588 
Q 1028 -725 1275 -790 
Q 1522 -856 1778 -856 
Q 2344 -856 2625 -561 
Q 2906 -266 2906 331 
L 2906 616 
Q 2728 306 2450 153 
Q 2172 0 1784 0 
Q 1141 0 747 490 
Q 353 981 353 1791 
Q 353 2603 747 3093 
Q 1141 3584 1784 3584 
Q 2172 3584 2450 3431 
Q 2728 3278 2906 2969 
L 2906 3500 
L 3481 3500 
L 3481 434 
z
" transform="scale(0.015625)"/>
      <path id="DejaVuSans-6c" d="M 603 4863 
L 1178 4863 
L 1178 0 
L 603 0 
L 603 4863 
z
" transform="scale(0.015625)"/>
      <path id="DejaVuSans-65" d="M 3597 1894 
L 3597 1613 
L 953 1613 
Q 991 1019 1311 708 
Q 1631 397 2203 397 
Q 2534 397 2845 478 
Q 3156 559 3463 722 
L 3463 178 
Q 3153 47 2828 -22 
Q 2503 -91 2169 -91 
Q 1331 -91 842 396 
Q 353 884 353 1716 
Q 353 2575 817 3079 
Q 1281 3584 2069 3584 
Q 2775 3584 3186 3129 
Q 3597 2675 3597 1894 
z
M 3022 2063 
Q 3016 2534 2758 2815 
Q 2500 3097 2075 3097 
Q 1594 3097 1305 2825 
Q 1016 2553 972 2059 
L 3022 2063 
z
" transform="scale(0.015625)"/>
     </defs>
     <use xlink:href="#DejaVuSans-45"/>
     <use xlink:href="#DejaVuSans-72" x="63.183594"/>
     <use xlink:href="#DejaVuSans-72" x="102.546875"/>
     <use xlink:href="#DejaVuSans-6f" x="141.410156"/>
     <use xlink:href="#DejaVuSans-72" x="202.591797"/>
     <use xlink:href="#DejaVuSans-20" x="243.705078"/>
     <use xlink:href="#DejaVuSans-69" x="275.492188"/>
     <use xlink:href="#DejaVuSans-6e" x="303.275391"/>
     <use xlink:href="#DejaVuSans-20" x="366.654297"/>
     <use xlink:href="#DejaVuSans-73" x="398.441406"/>
     <use xlink:href="#DejaVuSans-77" x="450.541016"/>
     <use xlink:href="#DejaVuSans-69" x="532.328125"/>
     <use xlink:href="#DejaVuSans-6e" x="560.111328"/>
     <use xlink:href="#DejaVuSans-67" x="623.490234"/>
     <use xlink:href="#DejaVuSans-20" x="686.966797"/>
     <use xlink:href="#DejaVuSans-61" x="718.753906"/>
     <use xlink:href="#DejaVuSans-6e" x="780.033203"/>
     <use xlink:href="#DejaVuSans-67" x="843.412109"/>
     <use xlink:href="#DejaVuSans-6c" x="906.888672"/>
     <use xlink:href="#DejaVuSans-65" x="934.671875"/>
    </g>
   </g>
  </g>
 </g>
 <defs>
  <clipPath id="pe07ece2776">
   <rect x="58.106" y="28.32" width="391.894" height="50.4775"/>
  </clipPath>
  <clipPath id="p724537bb84">
   <rect x="58.106" y="139.92" width="391.894" height="50.4775"/>
  </clipPath>
  <clipPath id="p7fcded1a1f">
   <rect x="58.106" y="251.52" width="391.894" height="50.4775"/>
  </clipPath>
 </defs>
</svg>
