<?xml version="1.0" encoding="utf-8" standalone="no"?>
<!DOCTYPE svg PUBLIC "-//W3C//DTD SVG 1.1//EN"
  "http://www.w3.org/Graphics/SVG/1.1/DTD/svg11.dtd">
<svg xmlns:xlink="http://www.w3.org/1999/xlink" width="460.8pt" height="345.6pt" viewBox="0 0 460.8 345.6" xmlns="http://www.w3.org/2000/svg" version="1.1">
 <metadata>
  <rdf:RDF xmlns:dc="http://purl.org/dc/elements/1.1/" xmlns:cc="http://creativecommons.org/ns#" xmlns:rdf="http://www.w3.org/1999/02/22-rdf-syntax-ns#">
   <cc:Work>
    <dc:type rdf:resource="http://purl.org/dc/dcmitype/StillImage"/>
    <dc:date>2022-06-05T18:14:22.405509</dc:date>
    <dc:format>image/svg+xml</dc:format>
    <dc:creator>
     <cc:Agent>
      <dc:title>Matplotlib v3.5.1, https://matplotlib.org/</dc:title>
     </cc:Agent>
    </dc:creator>
   </cc:Work>
  </rdf:RDF>
 </metadata>
 <defs>
  <style type="text/css">*{stroke-linejoin: round; stroke-linecap: butt}</style>
 </defs>
 <g id="figure_1">
  <g id="patch_1">
   <path d="M 0 345.6 
L 460.8 345.6 
L 460.8 0 
L 0 0 
z
" style="fill: #ffffff"/>
  </g>
  <g id="axes_1">
   <g id="patch_2">
    <path d="M 64.316 78.7975 
L 450 78.7975 
L 450 28.32 
L 64.316 28.32 
z
" style="fill: #ffffff"/>
   </g>
   <g id="matplotlib.axis_1">
    <g id="xtick_1">
     <g id="line2d_1">
      <path d="M 81.847091 78.7975 
L 81.847091 28.32 
" clip-path="url(#pc495db2114)" style="fill: none; stroke: #b0b0b0; stroke-width: 0.8; stroke-linecap: square"/>
     </g>
     <g id="line2d_2">
      <defs>
       <path id="mab8f4c6c8e" d="M 0 0 
L 0 3.5 
" style="stroke: #000000; stroke-width: 0.8"/>
      </defs>
      <g>
       <use xlink:href="#mab8f4c6c8e" x="81.847091" y="78.7975" style="stroke: #000000; stroke-width: 0.8"/>
      </g>
     </g>
     <g id="text_1">
      <!-- 0 -->
      <g transform="translate(78.665841 93.395937)scale(0.1 -0.1)">
       <defs>
        <path id="DejaVuSans-30" d="M 2034 4250 
Q 1547 4250 1301 3770 
Q 1056 3291 1056 2328 
Q 1056 1369 1301 889 
Q 1547 409 2034 409 
Q 2525 409 2770 889 
Q 3016 1369 3016 2328 
Q 3016 3291 2770 3770 
Q 2525 4250 2034 4250 
z
M 2034 4750 
Q 2819 4750 3233 4129 
Q 3647 3509 3647 2328 
Q 3647 1150 3233 529 
Q 2819 -91 2034 -91 
Q 1250 -91 836 529 
Q 422 1150 422 2328 
Q 422 3509 836 4129 
Q 1250 4750 2034 4750 
z
" transform="scale(0.015625)"/>
       </defs>
       <use xlink:href="#DejaVuSans-30"/>
      </g>
     </g>
    </g>
    <g id="xtick_2">
     <g id="line2d_3">
      <path d="M 133.485061 78.7975 
L 133.485061 28.32 
" clip-path="url(#pc495db2114)" style="fill: none; stroke: #b0b0b0; stroke-width: 0.8; stroke-linecap: square"/>
     </g>
     <g id="line2d_4">
      <g>
       <use xlink:href="#mab8f4c6c8e" x="133.485061" y="78.7975" style="stroke: #000000; stroke-width: 0.8"/>
      </g>
     </g>
     <g id="text_2">
      <!-- 1 -->
      <g transform="translate(130.303811 93.395937)scale(0.1 -0.1)">
       <defs>
        <path id="DejaVuSans-31" d="M 794 531 
L 1825 531 
L 1825 4091 
L 703 3866 
L 703 4441 
L 1819 4666 
L 2450 4666 
L 2450 531 
L 3481 531 
L 3481 0 
L 794 0 
L 794 531 
z
" transform="scale(0.015625)"/>
       </defs>
       <use xlink:href="#DejaVuSans-31"/>
      </g>
     </g>
    </g>
    <g id="xtick_3">
     <g id="line2d_5">
      <path d="M 185.123031 78.7975 
L 185.123031 28.32 
" clip-path="url(#pc495db2114)" style="fill: none; stroke: #b0b0b0; stroke-width: 0.8; stroke-linecap: square"/>
     </g>
     <g id="line2d_6">
      <g>
       <use xlink:href="#mab8f4c6c8e" x="185.123031" y="78.7975" style="stroke: #000000; stroke-width: 0.8"/>
      </g>
     </g>
     <g id="text_3">
      <!-- 2 -->
      <g transform="translate(181.941781 93.395937)scale(0.1 -0.1)">
       <defs>
        <path id="DejaVuSans-32" d="M 1228 531 
L 3431 531 
L 3431 0 
L 469 0 
L 469 531 
Q 828 903 1448 1529 
Q 2069 2156 2228 2338 
Q 2531 2678 2651 2914 
Q 2772 3150 2772 3378 
Q 2772 3750 2511 3984 
Q 2250 4219 1831 4219 
Q 1534 4219 1204 4116 
Q 875 4013 500 3803 
L 500 4441 
Q 881 4594 1212 4672 
Q 1544 4750 1819 4750 
Q 2544 4750 2975 4387 
Q 3406 4025 3406 3419 
Q 3406 3131 3298 2873 
Q 3191 2616 2906 2266 
Q 2828 2175 2409 1742 
Q 1991 1309 1228 531 
z
" transform="scale(0.015625)"/>
       </defs>
       <use xlink:href="#DejaVuSans-32"/>
      </g>
     </g>
    </g>
    <g id="xtick_4">
     <g id="line2d_7">
      <path d="M 236.761002 78.7975 
L 236.761002 28.32 
" clip-path="url(#pc495db2114)" style="fill: none; stroke: #b0b0b0; stroke-width: 0.8; stroke-linecap: square"/>
     </g>
     <g id="line2d_8">
      <g>
       <use xlink:href="#mab8f4c6c8e" x="236.761002" y="78.7975" style="stroke: #000000; stroke-width: 0.8"/>
      </g>
     </g>
     <g id="text_4">
      <!-- 3 -->
      <g transform="translate(233.579752 93.395937)scale(0.1 -0.1)">
       <defs>
        <path id="DejaVuSans-33" d="M 2597 2516 
Q 3050 2419 3304 2112 
Q 3559 1806 3559 1356 
Q 3559 666 3084 287 
Q 2609 -91 1734 -91 
Q 1441 -91 1130 -33 
Q 819 25 488 141 
L 488 750 
Q 750 597 1062 519 
Q 1375 441 1716 441 
Q 2309 441 2620 675 
Q 2931 909 2931 1356 
Q 2931 1769 2642 2001 
Q 2353 2234 1838 2234 
L 1294 2234 
L 1294 2753 
L 1863 2753 
Q 2328 2753 2575 2939 
Q 2822 3125 2822 3475 
Q 2822 3834 2567 4026 
Q 2313 4219 1838 4219 
Q 1578 4219 1281 4162 
Q 984 4106 628 3988 
L 628 4550 
Q 988 4650 1302 4700 
Q 1616 4750 1894 4750 
Q 2613 4750 3031 4423 
Q 3450 4097 3450 3541 
Q 3450 3153 3228 2886 
Q 3006 2619 2597 2516 
z
" transform="scale(0.015625)"/>
       </defs>
       <use xlink:href="#DejaVuSans-33"/>
      </g>
     </g>
    </g>
    <g id="xtick_5">
     <g id="line2d_9">
      <path d="M 288.398972 78.7975 
L 288.398972 28.32 
" clip-path="url(#pc495db2114)" style="fill: none; stroke: #b0b0b0; stroke-width: 0.8; stroke-linecap: square"/>
     </g>
     <g id="line2d_10">
      <g>
       <use xlink:href="#mab8f4c6c8e" x="288.398972" y="78.7975" style="stroke: #000000; stroke-width: 0.8"/>
      </g>
     </g>
     <g id="text_5">
      <!-- 4 -->
      <g transform="translate(285.217722 93.395937)scale(0.1 -0.1)">
       <defs>
        <path id="DejaVuSans-34" d="M 2419 4116 
L 825 1625 
L 2419 1625 
L 2419 4116 
z
M 2253 4666 
L 3047 4666 
L 3047 1625 
L 3713 1625 
L 3713 1100 
L 3047 1100 
L 3047 0 
L 2419 0 
L 2419 1100 
L 313 1100 
L 313 1709 
L 2253 4666 
z
" transform="scale(0.015625)"/>
       </defs>
       <use xlink:href="#DejaVuSans-34"/>
      </g>
     </g>
    </g>
    <g id="xtick_6">
     <g id="line2d_11">
      <path d="M 340.036942 78.7975 
L 340.036942 28.32 
" clip-path="url(#pc495db2114)" style="fill: none; stroke: #b0b0b0; stroke-width: 0.8; stroke-linecap: square"/>
     </g>
     <g id="line2d_12">
      <g>
       <use xlink:href="#mab8f4c6c8e" x="340.036942" y="78.7975" style="stroke: #000000; stroke-width: 0.8"/>
      </g>
     </g>
     <g id="text_6">
      <!-- 5 -->
      <g transform="translate(336.855692 93.395937)scale(0.1 -0.1)">
       <defs>
        <path id="DejaVuSans-35" d="M 691 4666 
L 3169 4666 
L 3169 4134 
L 1269 4134 
L 1269 2991 
Q 1406 3038 1543 3061 
Q 1681 3084 1819 3084 
Q 2600 3084 3056 2656 
Q 3513 2228 3513 1497 
Q 3513 744 3044 326 
Q 2575 -91 1722 -91 
Q 1428 -91 1123 -41 
Q 819 9 494 109 
L 494 744 
Q 775 591 1075 516 
Q 1375 441 1709 441 
Q 2250 441 2565 725 
Q 2881 1009 2881 1497 
Q 2881 1984 2565 2268 
Q 2250 2553 1709 2553 
Q 1456 2553 1204 2497 
Q 953 2441 691 2322 
L 691 4666 
z
" transform="scale(0.015625)"/>
       </defs>
       <use xlink:href="#DejaVuSans-35"/>
      </g>
     </g>
    </g>
    <g id="xtick_7">
     <g id="line2d_13">
      <path d="M 391.674913 78.7975 
L 391.674913 28.32 
" clip-path="url(#pc495db2114)" style="fill: none; stroke: #b0b0b0; stroke-width: 0.8; stroke-linecap: square"/>
     </g>
     <g id="line2d_14">
      <g>
       <use xlink:href="#mab8f4c6c8e" x="391.674913" y="78.7975" style="stroke: #000000; stroke-width: 0.8"/>
      </g>
     </g>
     <g id="text_7">
      <!-- 6 -->
      <g transform="translate(388.493663 93.395937)scale(0.1 -0.1)">
       <defs>
        <path id="DejaVuSans-36" d="M 2113 2584 
Q 1688 2584 1439 2293 
Q 1191 2003 1191 1497 
Q 1191 994 1439 701 
Q 1688 409 2113 409 
Q 2538 409 2786 701 
Q 3034 994 3034 1497 
Q 3034 2003 2786 2293 
Q 2538 2584 2113 2584 
z
M 3366 4563 
L 3366 3988 
Q 3128 4100 2886 4159 
Q 2644 4219 2406 4219 
Q 1781 4219 1451 3797 
Q 1122 3375 1075 2522 
Q 1259 2794 1537 2939 
Q 1816 3084 2150 3084 
Q 2853 3084 3261 2657 
Q 3669 2231 3669 1497 
Q 3669 778 3244 343 
Q 2819 -91 2113 -91 
Q 1303 -91 875 529 
Q 447 1150 447 2328 
Q 447 3434 972 4092 
Q 1497 4750 2381 4750 
Q 2619 4750 2861 4703 
Q 3103 4656 3366 4563 
z
" transform="scale(0.015625)"/>
       </defs>
       <use xlink:href="#DejaVuSans-36"/>
      </g>
     </g>
    </g>
    <g id="xtick_8">
     <g id="line2d_15">
      <path d="M 443.312883 78.7975 
L 443.312883 28.32 
" clip-path="url(#pc495db2114)" style="fill: none; stroke: #b0b0b0; stroke-width: 0.8; stroke-linecap: square"/>
     </g>
     <g id="line2d_16">
      <g>
       <use xlink:href="#mab8f4c6c8e" x="443.312883" y="78.7975" style="stroke: #000000; stroke-width: 0.8"/>
      </g>
     </g>
     <g id="text_8">
      <!-- 7 -->
      <g transform="translate(440.131633 93.395937)scale(0.1 -0.1)">
       <defs>
        <path id="DejaVuSans-37" d="M 525 4666 
L 3525 4666 
L 3525 4397 
L 1831 0 
L 1172 0 
L 2766 4134 
L 525 4134 
L 525 4666 
z
" transform="scale(0.015625)"/>
       </defs>
       <use xlink:href="#DejaVuSans-37"/>
      </g>
     </g>
    </g>
    <g id="text_9">
     <!-- $t$ [s] -->
     <g transform="translate(247.058 107.074062)scale(0.1 -0.1)">
      <defs>
       <path id="DejaVuSans-Oblique-74" d="M 2706 3500 
L 2619 3053 
L 1472 3053 
L 1100 1153 
Q 1081 1047 1072 975 
Q 1063 903 1063 863 
Q 1063 663 1183 572 
Q 1303 481 1569 481 
L 2150 481 
L 2053 0 
L 1503 0 
Q 991 0 739 200 
Q 488 400 488 806 
Q 488 878 497 964 
Q 506 1050 525 1153 
L 897 3053 
L 409 3053 
L 500 3500 
L 978 3500 
L 1172 4494 
L 1747 4494 
L 1556 3500 
L 2706 3500 
z
" transform="scale(0.015625)"/>
       <path id="DejaVuSans-20" transform="scale(0.015625)"/>
       <path id="DejaVuSans-5b" d="M 550 4863 
L 1875 4863 
L 1875 4416 
L 1125 4416 
L 1125 -397 
L 1875 -397 
L 1875 -844 
L 550 -844 
L 550 4863 
z
" transform="scale(0.015625)"/>
       <path id="DejaVuSans-73" d="M 2834 3397 
L 2834 2853 
Q 2591 2978 2328 3040 
Q 2066 3103 1784 3103 
Q 1356 3103 1142 2972 
Q 928 2841 928 2578 
Q 928 2378 1081 2264 
Q 1234 2150 1697 2047 
L 1894 2003 
Q 2506 1872 2764 1633 
Q 3022 1394 3022 966 
Q 3022 478 2636 193 
Q 2250 -91 1575 -91 
Q 1294 -91 989 -36 
Q 684 19 347 128 
L 347 722 
Q 666 556 975 473 
Q 1284 391 1588 391 
Q 1994 391 2212 530 
Q 2431 669 2431 922 
Q 2431 1156 2273 1281 
Q 2116 1406 1581 1522 
L 1381 1569 
Q 847 1681 609 1914 
Q 372 2147 372 2553 
Q 372 3047 722 3315 
Q 1072 3584 1716 3584 
Q 2034 3584 2315 3537 
Q 2597 3491 2834 3397 
z
" transform="scale(0.015625)"/>
       <path id="DejaVuSans-5d" d="M 1947 4863 
L 1947 -844 
L 622 -844 
L 622 -397 
L 1369 -397 
L 1369 4416 
L 622 4416 
L 622 4863 
L 1947 4863 
z
" transform="scale(0.015625)"/>
      </defs>
      <use xlink:href="#DejaVuSans-Oblique-74" transform="translate(0 0.015625)"/>
      <use xlink:href="#DejaVuSans-20" transform="translate(39.208984 0.015625)"/>
      <use xlink:href="#DejaVuSans-5b" transform="translate(70.996094 0.015625)"/>
      <use xlink:href="#DejaVuSans-73" transform="translate(110.009766 0.015625)"/>
      <use xlink:href="#DejaVuSans-5d" transform="translate(162.109375 0.015625)"/>
     </g>
    </g>
   </g>
   <g id="matplotlib.axis_2">
    <g id="ytick_1">
     <g id="line2d_17">
      <path d="M 64.316 69.435037 
L 450 69.435037 
" clip-path="url(#pc495db2114)" style="fill: none; stroke: #b0b0b0; stroke-width: 0.8; stroke-linecap: square"/>
     </g>
     <g id="line2d_18">
      <defs>
       <path id="m6703106a1b" d="M 0 0 
L -3.5 0 
" style="stroke: #000000; stroke-width: 0.8"/>
      </defs>
      <g>
       <use xlink:href="#m6703106a1b" x="64.316" y="69.435037" style="stroke: #000000; stroke-width: 0.8"/>
      </g>
     </g>
     <g id="text_10">
      <!-- 0 -->
      <g transform="translate(50.9535 73.234256)scale(0.1 -0.1)">
       <use xlink:href="#DejaVuSans-30"/>
      </g>
     </g>
    </g>
    <g id="ytick_2">
     <g id="line2d_19">
      <path d="M 64.316 30.614454 
L 450 30.614454 
" clip-path="url(#pc495db2114)" style="fill: none; stroke: #b0b0b0; stroke-width: 0.8; stroke-linecap: square"/>
     </g>
     <g id="line2d_20">
      <g>
       <use xlink:href="#m6703106a1b" x="64.316" y="30.614454" style="stroke: #000000; stroke-width: 0.8"/>
      </g>
     </g>
     <g id="text_11">
      <!-- 10 -->
      <g transform="translate(44.591 34.413673)scale(0.1 -0.1)">
       <use xlink:href="#DejaVuSans-31"/>
       <use xlink:href="#DejaVuSans-30" x="63.623047"/>
      </g>
     </g>
    </g>
    <g id="text_12">
     <!-- $e_x$ [m] -->
     <g transform="translate(38.511313 69.20875)rotate(-90)scale(0.1 -0.1)">
      <defs>
       <path id="DejaVuSans-Oblique-65" d="M 3078 2063 
Q 3088 2113 3092 2166 
Q 3097 2219 3097 2272 
Q 3097 2653 2873 2875 
Q 2650 3097 2266 3097 
Q 1838 3097 1509 2826 
Q 1181 2556 1013 2059 
L 3078 2063 
z
M 3578 1613 
L 903 1613 
Q 884 1494 878 1425 
Q 872 1356 872 1306 
Q 872 872 1139 634 
Q 1406 397 1894 397 
Q 2269 397 2603 481 
Q 2938 566 3225 728 
L 3116 159 
Q 2806 34 2476 -28 
Q 2147 -91 1806 -91 
Q 1078 -91 686 257 
Q 294 606 294 1247 
Q 294 1794 489 2264 
Q 684 2734 1063 3103 
Q 1306 3334 1642 3459 
Q 1978 3584 2356 3584 
Q 2950 3584 3301 3228 
Q 3653 2872 3653 2272 
Q 3653 2128 3634 1964 
Q 3616 1800 3578 1613 
z
" transform="scale(0.015625)"/>
       <path id="DejaVuSans-Oblique-78" d="M 3841 3500 
L 2234 1784 
L 3219 0 
L 2559 0 
L 1819 1388 
L 531 0 
L -166 0 
L 1556 1844 
L 641 3500 
L 1300 3500 
L 1972 2234 
L 3144 3500 
L 3841 3500 
z
" transform="scale(0.015625)"/>
       <path id="DejaVuSans-6d" d="M 3328 2828 
Q 3544 3216 3844 3400 
Q 4144 3584 4550 3584 
Q 5097 3584 5394 3201 
Q 5691 2819 5691 2113 
L 5691 0 
L 5113 0 
L 5113 2094 
Q 5113 2597 4934 2840 
Q 4756 3084 4391 3084 
Q 3944 3084 3684 2787 
Q 3425 2491 3425 1978 
L 3425 0 
L 2847 0 
L 2847 2094 
Q 2847 2600 2669 2842 
Q 2491 3084 2119 3084 
Q 1678 3084 1418 2786 
Q 1159 2488 1159 1978 
L 1159 0 
L 581 0 
L 581 3500 
L 1159 3500 
L 1159 2956 
Q 1356 3278 1631 3431 
Q 1906 3584 2284 3584 
Q 2666 3584 2933 3390 
Q 3200 3197 3328 2828 
z
" transform="scale(0.015625)"/>
      </defs>
      <use xlink:href="#DejaVuSans-Oblique-65" transform="translate(0 0.015625)"/>
      <use xlink:href="#DejaVuSans-Oblique-78" transform="translate(61.523438 -16.390625)scale(0.7)"/>
      <use xlink:href="#DejaVuSans-20" transform="translate(105.683594 0.015625)"/>
      <use xlink:href="#DejaVuSans-5b" transform="translate(137.470703 0.015625)"/>
      <use xlink:href="#DejaVuSans-6d" transform="translate(176.484375 0.015625)"/>
      <use xlink:href="#DejaVuSans-5d" transform="translate(273.896484 0.015625)"/>
     </g>
    </g>
   </g>
   <g id="line2d_21">
    <path d="M 81.847091 30.614454 
L 94.258483 30.71401 
L 106.152733 31.349008 
L 119.081266 32.688282 
L 120.63269 32.903507 
L 124.769821 33.44874 
L 128.906951 34.136509 
L 129.424093 34.136509 
L 130.975517 34.434704 
L 135.112647 35.16865 
L 135.629789 35.16865 
L 137.181213 35.500014 
L 140.801202 36.194583 
L 141.835485 36.314617 
L 142.352626 36.476596 
L 142.869767 36.476596 
L 143.386909 36.723786 
L 144.938333 36.933691 
L 145.455474 37.104193 
L 145.972615 37.104193 
L 146.489757 37.364288 
L 148.04118 37.585041 
L 149.075463 37.854773 
L 150.626887 38.269277 
L 151.144028 38.269277 
L 152.178311 38.552219 
L 153.729735 38.986525 
L 154.246876 38.986525 
L 155.281159 39.282634 
L 156.832583 39.736595 
L 157.349724 39.736595 
L 158.384007 40.045726 
L 159.41829 40.307273 
L 159.935431 40.519072 
L 160.452572 40.519072 
L 161.486855 40.841005 
L 162.521138 41.113137 
L 163.55542 41.444275 
L 165.106844 41.836834 
L 166.141127 42.06413 
L 166.658268 42.178584 
L 168.209692 42.758759 
L 169.243975 42.935345 
L 170.795399 43.351832 
L 171.829681 43.713702 
L 173.898247 44.264712 
L 174.415388 44.512696 
L 176.483953 45.077414 
L 177.001095 45.331335 
L 178.552519 45.779927 
L 179.06966 45.973796 
L 180.103943 46.168614 
L 180.621084 46.429826 
L 181.138225 46.429826 
L 181.655367 46.82471 
L 182.689649 47.023501 
L 183.206791 47.156523 
L 183.723932 47.423731 
L 184.241073 47.423731 
L 184.758215 47.827404 
L 185.792497 48.030504 
L 186.309639 48.166365 
L 186.82678 48.507604 
L 187.343921 48.507604 
L 187.861062 48.782203 
L 190.446769 49.544512 
L 190.96391 49.824259 
L 193.032476 50.45851 
L 193.549617 50.742511 
L 196.652465 51.674336 
L 197.169606 51.963744 
L 198.72103 52.400223 
L 199.238172 52.692792 
L 199.755313 52.692792 
L 200.272454 53.134032 
L 201.306737 53.35573 
L 201.823878 53.503932 
L 202.34102 53.801309 
L 202.858161 53.801309 
L 203.375302 54.249827 
L 204.409585 54.475202 
L 204.926726 54.625867 
L 205.443868 54.928206 
L 206.47815 55.308038 
L 207.512433 55.766669 
L 208.029574 55.766669 
L 208.546715 56.074161 
L 210.098139 56.615659 
L 210.615281 56.927044 
L 211.132422 56.927044 
L 211.649563 57.239863 
L 212.683846 57.632918 
L 213.200987 57.869841 
L 214.23527 58.107583 
L 214.752411 58.425854 
L 215.786694 58.825759 
L 216.303835 59.066809 
L 217.338118 59.308679 
L 217.855259 59.632412 
L 219.406683 60.202031 
L 219.923825 60.528974 
L 221.99239 61.266857 
L 223.026673 61.759069 
L 223.543814 61.759069 
L 224.060955 62.086593 
L 225.612379 62.657137 
L 226.129521 62.98092 
L 226.646662 62.98092 
L 227.163803 63.302551 
L 227.680944 63.302551 
L 228.198086 63.780146 
L 229.232368 64.01646 
L 229.74951 64.173 
L 230.266651 64.560602 
L 230.783792 64.560602 
L 231.300934 64.866595 
L 232.852358 65.318298 
L 233.369499 65.614313 
L 233.88664 65.614313 
L 234.403782 66.050265 
L 235.438064 66.264493 
L 235.955206 66.405892 
L 236.472347 66.685232 
L 236.989488 66.685232 
L 237.50663 67.095432 
L 238.540912 67.296522 
L 239.058054 67.429086 
L 239.575195 67.755253 
L 240.092336 67.755253 
L 240.609478 68.010795 
L 242.160902 68.385239 
L 242.678043 68.689309 
L 243.195184 68.689309 
L 244.229467 69.044865 
L 246.298032 69.55963 
L 247.332315 69.890699 
L 248.366597 70.106107 
L 248.883739 70.369444 
L 249.40088 70.369444 
L 250.435163 70.67678 
L 251.986587 71.071869 
L 253.538011 71.403783 
L 255.089435 71.767356 
L 256.640859 72.072043 
L 260.777989 72.840853 
L 262.329413 73.214759 
L 263.880837 73.394478 
L 265.432261 73.706393 
L 267.500826 74.035981 
L 268.017968 74.035981 
L 268.535109 74.225216 
L 270.603674 74.437854 
L 273.706522 74.943051 
L 274.740805 75.046835 
L 287.669338 76.210337 
L 296.460741 76.4982 
L 304.217861 76.418188 
L 312.492122 76.005225 
L 317.663535 75.618543 
L 319.7321 75.408477 
L 323.869231 75.000183 
L 325.937796 74.714168 
L 327.48922 74.53769 
L 331.109209 74.080447 
L 333.694916 73.704287 
L 334.212057 73.704287 
L 334.729199 73.523547 
L 336.797764 73.307701 
L 341.969177 72.474222 
L 343.520601 72.181246 
L 345.072025 71.986794 
L 346.623449 71.793903 
L 347.140591 71.603298 
L 348.692014 71.44671 
L 349.209156 71.323193 
L 349.726297 71.323193 
L 350.243438 71.141275 
L 351.794862 70.993128 
L 352.312004 70.848453 
L 352.829145 70.848453 
L 353.863428 70.679846 
L 369.377667 69.13282 
L 382.306201 68.570777 
L 394.717592 68.422846 
L 404.026136 68.530308 
L 413.851821 68.793745 
L 419.540376 68.979738 
L 432.468909 69.328327 
L 432.468909 69.328327 
" clip-path="url(#pc495db2114)" style="fill: none; stroke: #ff0000; stroke-width: 1.5; stroke-linecap: square"/>
   </g>
   <g id="patch_3">
    <path d="M 64.316 78.7975 
L 64.316 28.32 
" style="fill: none; stroke: #000000; stroke-width: 0.8; stroke-linejoin: miter; stroke-linecap: square"/>
   </g>
   <g id="patch_4">
    <path d="M 450 78.7975 
L 450 28.32 
" style="fill: none; stroke: #000000; stroke-width: 0.8; stroke-linejoin: miter; stroke-linecap: square"/>
   </g>
   <g id="patch_5">
    <path d="M 64.316 78.7975 
L 450 78.7975 
" style="fill: none; stroke: #000000; stroke-width: 0.8; stroke-linejoin: miter; stroke-linecap: square"/>
   </g>
   <g id="patch_6">
    <path d="M 64.316 28.32 
L 450 28.32 
" style="fill: none; stroke: #000000; stroke-width: 0.8; stroke-linejoin: miter; stroke-linecap: square"/>
   </g>
   <g id="text_13">
    <!-- Error in $x$-position -->
    <g transform="translate(203.518 22.32)scale(0.12 -0.12)">
     <defs>
      <path id="DejaVuSans-45" d="M 628 4666 
L 3578 4666 
L 3578 4134 
L 1259 4134 
L 1259 2753 
L 3481 2753 
L 3481 2222 
L 1259 2222 
L 1259 531 
L 3634 531 
L 3634 0 
L 628 0 
L 628 4666 
z
" transform="scale(0.015625)"/>
      <path id="DejaVuSans-72" d="M 2631 2963 
Q 2534 3019 2420 3045 
Q 2306 3072 2169 3072 
Q 1681 3072 1420 2755 
Q 1159 2438 1159 1844 
L 1159 0 
L 581 0 
L 581 3500 
L 1159 3500 
L 1159 2956 
Q 1341 3275 1631 3429 
Q 1922 3584 2338 3584 
Q 2397 3584 2469 3576 
Q 2541 3569 2628 3553 
L 2631 2963 
z
" transform="scale(0.015625)"/>
      <path id="DejaVuSans-6f" d="M 1959 3097 
Q 1497 3097 1228 2736 
Q 959 2375 959 1747 
Q 959 1119 1226 758 
Q 1494 397 1959 397 
Q 2419 397 2687 759 
Q 2956 1122 2956 1747 
Q 2956 2369 2687 2733 
Q 2419 3097 1959 3097 
z
M 1959 3584 
Q 2709 3584 3137 3096 
Q 3566 2609 3566 1747 
Q 3566 888 3137 398 
Q 2709 -91 1959 -91 
Q 1206 -91 779 398 
Q 353 888 353 1747 
Q 353 2609 779 3096 
Q 1206 3584 1959 3584 
z
" transform="scale(0.015625)"/>
      <path id="DejaVuSans-69" d="M 603 3500 
L 1178 3500 
L 1178 0 
L 603 0 
L 603 3500 
z
M 603 4863 
L 1178 4863 
L 1178 4134 
L 603 4134 
L 603 4863 
z
" transform="scale(0.015625)"/>
      <path id="DejaVuSans-6e" d="M 3513 2113 
L 3513 0 
L 2938 0 
L 2938 2094 
Q 2938 2591 2744 2837 
Q 2550 3084 2163 3084 
Q 1697 3084 1428 2787 
Q 1159 2491 1159 1978 
L 1159 0 
L 581 0 
L 581 3500 
L 1159 3500 
L 1159 2956 
Q 1366 3272 1645 3428 
Q 1925 3584 2291 3584 
Q 2894 3584 3203 3211 
Q 3513 2838 3513 2113 
z
" transform="scale(0.015625)"/>
      <path id="DejaVuSans-2d" d="M 313 2009 
L 1997 2009 
L 1997 1497 
L 313 1497 
L 313 2009 
z
" transform="scale(0.015625)"/>
      <path id="DejaVuSans-70" d="M 1159 525 
L 1159 -1331 
L 581 -1331 
L 581 3500 
L 1159 3500 
L 1159 2969 
Q 1341 3281 1617 3432 
Q 1894 3584 2278 3584 
Q 2916 3584 3314 3078 
Q 3713 2572 3713 1747 
Q 3713 922 3314 415 
Q 2916 -91 2278 -91 
Q 1894 -91 1617 61 
Q 1341 213 1159 525 
z
M 3116 1747 
Q 3116 2381 2855 2742 
Q 2594 3103 2138 3103 
Q 1681 3103 1420 2742 
Q 1159 2381 1159 1747 
Q 1159 1113 1420 752 
Q 1681 391 2138 391 
Q 2594 391 2855 752 
Q 3116 1113 3116 1747 
z
" transform="scale(0.015625)"/>
      <path id="DejaVuSans-74" d="M 1172 4494 
L 1172 3500 
L 2356 3500 
L 2356 3053 
L 1172 3053 
L 1172 1153 
Q 1172 725 1289 603 
Q 1406 481 1766 481 
L 2356 481 
L 2356 0 
L 1766 0 
Q 1100 0 847 248 
Q 594 497 594 1153 
L 594 3053 
L 172 3053 
L 172 3500 
L 594 3500 
L 594 4494 
L 1172 4494 
z
" transform="scale(0.015625)"/>
     </defs>
     <use xlink:href="#DejaVuSans-45" transform="translate(0 0.015625)"/>
     <use xlink:href="#DejaVuSans-72" transform="translate(63.183594 0.015625)"/>
     <use xlink:href="#DejaVuSans-72" transform="translate(104.296875 0.015625)"/>
     <use xlink:href="#DejaVuSans-6f" transform="translate(145.410156 0.015625)"/>
     <use xlink:href="#DejaVuSans-72" transform="translate(206.591797 0.015625)"/>
     <use xlink:href="#DejaVuSans-20" transform="translate(247.705078 0.015625)"/>
     <use xlink:href="#DejaVuSans-69" transform="translate(279.492188 0.015625)"/>
     <use xlink:href="#DejaVuSans-6e" transform="translate(307.275391 0.015625)"/>
     <use xlink:href="#DejaVuSans-20" transform="translate(370.654297 0.015625)"/>
     <use xlink:href="#DejaVuSans-Oblique-78" transform="translate(402.441406 0.015625)"/>
     <use xlink:href="#DejaVuSans-2d" transform="translate(461.621094 0.015625)"/>
     <use xlink:href="#DejaVuSans-70" transform="translate(497.705078 0.015625)"/>
     <use xlink:href="#DejaVuSans-6f" transform="translate(561.181641 0.015625)"/>
     <use xlink:href="#DejaVuSans-73" transform="translate(622.363281 0.015625)"/>
     <use xlink:href="#DejaVuSans-69" transform="translate(674.462891 0.015625)"/>
     <use xlink:href="#DejaVuSans-74" transform="translate(702.246094 0.015625)"/>
     <use xlink:href="#DejaVuSans-69" transform="translate(741.455078 0.015625)"/>
     <use xlink:href="#DejaVuSans-6f" transform="translate(769.238281 0.015625)"/>
     <use xlink:href="#DejaVuSans-6e" transform="translate(830.419922 0.015625)"/>
    </g>
   </g>
  </g>
  <g id="axes_2">
   <g id="patch_7">
    <path d="M 64.316 190.3975 
L 450 190.3975 
L 450 139.92 
L 64.316 139.92 
z
" style="fill: #ffffff"/>
   </g>
   <g id="matplotlib.axis_3">
    <g id="xtick_9">
     <g id="line2d_22">
      <path d="M 81.847091 190.3975 
L 81.847091 139.92 
" clip-path="url(#p9ab2035be6)" style="fill: none; stroke: #b0b0b0; stroke-width: 0.8; stroke-linecap: square"/>
     </g>
     <g id="line2d_23">
      <g>
       <use xlink:href="#mab8f4c6c8e" x="81.847091" y="190.3975" style="stroke: #000000; stroke-width: 0.8"/>
      </g>
     </g>
     <g id="text_14">
      <!-- 0 -->
      <g transform="translate(78.665841 204.995937)scale(0.1 -0.1)">
       <use xlink:href="#DejaVuSans-30"/>
      </g>
     </g>
    </g>
    <g id="xtick_10">
     <g id="line2d_24">
      <path d="M 133.485061 190.3975 
L 133.485061 139.92 
" clip-path="url(#p9ab2035be6)" style="fill: none; stroke: #b0b0b0; stroke-width: 0.8; stroke-linecap: square"/>
     </g>
     <g id="line2d_25">
      <g>
       <use xlink:href="#mab8f4c6c8e" x="133.485061" y="190.3975" style="stroke: #000000; stroke-width: 0.8"/>
      </g>
     </g>
     <g id="text_15">
      <!-- 1 -->
      <g transform="translate(130.303811 204.995937)scale(0.1 -0.1)">
       <use xlink:href="#DejaVuSans-31"/>
      </g>
     </g>
    </g>
    <g id="xtick_11">
     <g id="line2d_26">
      <path d="M 185.123031 190.3975 
L 185.123031 139.92 
" clip-path="url(#p9ab2035be6)" style="fill: none; stroke: #b0b0b0; stroke-width: 0.8; stroke-linecap: square"/>
     </g>
     <g id="line2d_27">
      <g>
       <use xlink:href="#mab8f4c6c8e" x="185.123031" y="190.3975" style="stroke: #000000; stroke-width: 0.8"/>
      </g>
     </g>
     <g id="text_16">
      <!-- 2 -->
      <g transform="translate(181.941781 204.995937)scale(0.1 -0.1)">
       <use xlink:href="#DejaVuSans-32"/>
      </g>
     </g>
    </g>
    <g id="xtick_12">
     <g id="line2d_28">
      <path d="M 236.761002 190.3975 
L 236.761002 139.92 
" clip-path="url(#p9ab2035be6)" style="fill: none; stroke: #b0b0b0; stroke-width: 0.8; stroke-linecap: square"/>
     </g>
     <g id="line2d_29">
      <g>
       <use xlink:href="#mab8f4c6c8e" x="236.761002" y="190.3975" style="stroke: #000000; stroke-width: 0.8"/>
      </g>
     </g>
     <g id="text_17">
      <!-- 3 -->
      <g transform="translate(233.579752 204.995937)scale(0.1 -0.1)">
       <use xlink:href="#DejaVuSans-33"/>
      </g>
     </g>
    </g>
    <g id="xtick_13">
     <g id="line2d_30">
      <path d="M 288.398972 190.3975 
L 288.398972 139.92 
" clip-path="url(#p9ab2035be6)" style="fill: none; stroke: #b0b0b0; stroke-width: 0.8; stroke-linecap: square"/>
     </g>
     <g id="line2d_31">
      <g>
       <use xlink:href="#mab8f4c6c8e" x="288.398972" y="190.3975" style="stroke: #000000; stroke-width: 0.8"/>
      </g>
     </g>
     <g id="text_18">
      <!-- 4 -->
      <g transform="translate(285.217722 204.995937)scale(0.1 -0.1)">
       <use xlink:href="#DejaVuSans-34"/>
      </g>
     </g>
    </g>
    <g id="xtick_14">
     <g id="line2d_32">
      <path d="M 340.036942 190.3975 
L 340.036942 139.92 
" clip-path="url(#p9ab2035be6)" style="fill: none; stroke: #b0b0b0; stroke-width: 0.8; stroke-linecap: square"/>
     </g>
     <g id="line2d_33">
      <g>
       <use xlink:href="#mab8f4c6c8e" x="340.036942" y="190.3975" style="stroke: #000000; stroke-width: 0.8"/>
      </g>
     </g>
     <g id="text_19">
      <!-- 5 -->
      <g transform="translate(336.855692 204.995937)scale(0.1 -0.1)">
       <use xlink:href="#DejaVuSans-35"/>
      </g>
     </g>
    </g>
    <g id="xtick_15">
     <g id="line2d_34">
      <path d="M 391.674913 190.3975 
L 391.674913 139.92 
" clip-path="url(#p9ab2035be6)" style="fill: none; stroke: #b0b0b0; stroke-width: 0.8; stroke-linecap: square"/>
     </g>
     <g id="line2d_35">
      <g>
       <use xlink:href="#mab8f4c6c8e" x="391.674913" y="190.3975" style="stroke: #000000; stroke-width: 0.8"/>
      </g>
     </g>
     <g id="text_20">
      <!-- 6 -->
      <g transform="translate(388.493663 204.995937)scale(0.1 -0.1)">
       <use xlink:href="#DejaVuSans-36"/>
      </g>
     </g>
    </g>
    <g id="xtick_16">
     <g id="line2d_36">
      <path d="M 443.312883 190.3975 
L 443.312883 139.92 
" clip-path="url(#p9ab2035be6)" style="fill: none; stroke: #b0b0b0; stroke-width: 0.8; stroke-linecap: square"/>
     </g>
     <g id="line2d_37">
      <g>
       <use xlink:href="#mab8f4c6c8e" x="443.312883" y="190.3975" style="stroke: #000000; stroke-width: 0.8"/>
      </g>
     </g>
     <g id="text_21">
      <!-- 7 -->
      <g transform="translate(440.131633 204.995937)scale(0.1 -0.1)">
       <use xlink:href="#DejaVuSans-37"/>
      </g>
     </g>
    </g>
    <g id="text_22">
     <!-- $t$ [s] -->
     <g transform="translate(247.058 218.674062)scale(0.1 -0.1)">
      <use xlink:href="#DejaVuSans-Oblique-74" transform="translate(0 0.015625)"/>
      <use xlink:href="#DejaVuSans-20" transform="translate(39.208984 0.015625)"/>
      <use xlink:href="#DejaVuSans-5b" transform="translate(70.996094 0.015625)"/>
      <use xlink:href="#DejaVuSans-73" transform="translate(110.009766 0.015625)"/>
      <use xlink:href="#DejaVuSans-5d" transform="translate(162.109375 0.015625)"/>
     </g>
    </g>
   </g>
   <g id="matplotlib.axis_4">
    <g id="ytick_3">
     <g id="line2d_38">
      <path d="M 64.316 190.257677 
L 450 190.257677 
" clip-path="url(#p9ab2035be6)" style="fill: none; stroke: #b0b0b0; stroke-width: 0.8; stroke-linecap: square"/>
     </g>
     <g id="line2d_39">
      <g>
       <use xlink:href="#m6703106a1b" x="64.316" y="190.257677" style="stroke: #000000; stroke-width: 0.8"/>
      </g>
     </g>
     <g id="text_23">
      <!-- −0.025 -->
      <g transform="translate(20.308188 194.056896)scale(0.1 -0.1)">
       <defs>
        <path id="DejaVuSans-2212" d="M 678 2272 
L 4684 2272 
L 4684 1741 
L 678 1741 
L 678 2272 
z
" transform="scale(0.015625)"/>
        <path id="DejaVuSans-2e" d="M 684 794 
L 1344 794 
L 1344 0 
L 684 0 
L 684 794 
z
" transform="scale(0.015625)"/>
       </defs>
       <use xlink:href="#DejaVuSans-2212"/>
       <use xlink:href="#DejaVuSans-30" x="83.789062"/>
       <use xlink:href="#DejaVuSans-2e" x="147.412109"/>
       <use xlink:href="#DejaVuSans-30" x="179.199219"/>
       <use xlink:href="#DejaVuSans-32" x="242.822266"/>
       <use xlink:href="#DejaVuSans-35" x="306.445312"/>
      </g>
     </g>
    </g>
    <g id="ytick_4">
     <g id="line2d_40">
      <path d="M 64.316 168.429826 
L 450 168.429826 
" clip-path="url(#p9ab2035be6)" style="fill: none; stroke: #b0b0b0; stroke-width: 0.8; stroke-linecap: square"/>
     </g>
     <g id="line2d_41">
      <g>
       <use xlink:href="#m6703106a1b" x="64.316" y="168.429826" style="stroke: #000000; stroke-width: 0.8"/>
      </g>
     </g>
     <g id="text_24">
      <!-- 0.000 -->
      <g transform="translate(28.687875 172.229044)scale(0.1 -0.1)">
       <use xlink:href="#DejaVuSans-30"/>
       <use xlink:href="#DejaVuSans-2e" x="63.623047"/>
       <use xlink:href="#DejaVuSans-30" x="95.410156"/>
       <use xlink:href="#DejaVuSans-30" x="159.033203"/>
       <use xlink:href="#DejaVuSans-30" x="222.65625"/>
      </g>
     </g>
    </g>
    <g id="ytick_5">
     <g id="line2d_42">
      <path d="M 64.316 146.601974 
L 450 146.601974 
" clip-path="url(#p9ab2035be6)" style="fill: none; stroke: #b0b0b0; stroke-width: 0.8; stroke-linecap: square"/>
     </g>
     <g id="line2d_43">
      <g>
       <use xlink:href="#m6703106a1b" x="64.316" y="146.601974" style="stroke: #000000; stroke-width: 0.8"/>
      </g>
     </g>
     <g id="text_25">
      <!-- 0.025 -->
      <g transform="translate(28.687875 150.401193)scale(0.1 -0.1)">
       <use xlink:href="#DejaVuSans-30"/>
       <use xlink:href="#DejaVuSans-2e" x="63.623047"/>
       <use xlink:href="#DejaVuSans-30" x="95.410156"/>
       <use xlink:href="#DejaVuSans-32" x="159.033203"/>
       <use xlink:href="#DejaVuSans-35" x="222.65625"/>
      </g>
     </g>
    </g>
    <g id="text_26">
     <!-- $e_z$ [m] -->
     <g transform="translate(14.2285 180.60875)rotate(-90)scale(0.1 -0.1)">
      <defs>
       <path id="DejaVuSans-Oblique-7a" d="M 744 3500 
L 3475 3500 
L 3372 2975 
L 738 459 
L 2913 459 
L 2822 0 
L -19 0 
L 84 525 
L 2719 3041 
L 653 3041 
L 744 3500 
z
" transform="scale(0.015625)"/>
      </defs>
      <use xlink:href="#DejaVuSans-Oblique-65" transform="translate(0 0.015625)"/>
      <use xlink:href="#DejaVuSans-Oblique-7a" transform="translate(61.523438 -16.390625)scale(0.7)"/>
      <use xlink:href="#DejaVuSans-20" transform="translate(101.000977 0.015625)"/>
      <use xlink:href="#DejaVuSans-5b" transform="translate(132.788086 0.015625)"/>
      <use xlink:href="#DejaVuSans-6d" transform="translate(171.801758 0.015625)"/>
      <use xlink:href="#DejaVuSans-5d" transform="translate(269.213867 0.015625)"/>
     </g>
    </g>
   </g>
   <g id="line2d_44">
    <path d="M 81.847091 176.757041 
L 82.364232 176.222169 
L 84.432798 175.012622 
L 85.46708 173.809464 
L 85.984222 173.809464 
L 86.501363 173.195454 
L 88.052787 172.313873 
L 88.569928 171.901817 
L 89.087069 171.901817 
L 89.604211 171.535895 
L 91.155635 170.975548 
L 91.672776 170.692805 
L 96.327048 169.577652 
L 102.015603 168.832888 
L 104.601309 168.793032 
L 106.669874 169.073988 
L 107.187016 169.214624 
L 107.704157 169.214624 
L 110.289864 170.435413 
L 110.807005 170.435413 
L 111.324146 170.916862 
L 111.841288 171.182333 
L 113.392712 172.569659 
L 113.909853 172.569659 
L 114.426994 173.279769 
L 114.944136 173.653422 
L 115.978418 174.834801 
L 116.49556 175.03929 
L 117.012701 175.453467 
L 117.529842 176.298611 
L 118.564125 177.156666 
L 119.081266 177.802336 
L 119.598408 178.658651 
L 120.115549 178.658651 
L 120.63269 179.500172 
L 121.666973 180.316508 
L 123.218397 182.006228 
L 125.286962 183.410041 
L 125.804104 183.920975 
L 128.38981 184.97266 
L 128.906951 185.117561 
L 129.424093 185.117561 
L 130.458375 185.262932 
L 131.492658 185.21944 
L 133.561223 184.819578 
L 136.664071 183.418223 
L 138.215495 182.274958 
L 138.732637 182.274958 
L 139.249778 181.724677 
L 139.766919 181.443674 
L 140.801202 180.590885 
L 141.318343 180.44865 
L 141.835485 180.165165 
L 142.352626 179.605534 
L 142.869767 179.605534 
L 143.386909 178.797086 
L 143.90405 178.667242 
L 144.938333 178.165062 
L 145.455474 177.694145 
L 145.972615 177.694145 
L 146.489757 177.053925 
L 147.524039 176.766443 
L 148.04118 176.587251 
L 148.558322 176.259541 
L 152.178311 175.301743 
L 153.729735 175.030641 
L 154.764018 174.947811 
L 165.106844 174.161405 
L 169.243975 173.631971 
L 173.898247 173.237658 
L 175.966812 173.27928 
L 178.035377 173.556197 
L 181.138225 174.207026 
L 181.655367 174.612713 
L 182.689649 174.837182 
L 183.206791 174.994002 
L 183.723932 175.322512 
L 184.241073 175.322512 
L 184.758215 175.843938 
L 185.792497 176.113575 
L 186.309639 176.295317 
L 186.82678 176.752642 
L 187.343921 176.752642 
L 187.861062 177.116098 
L 190.446769 178.059665 
L 190.96391 178.366943 
L 195.101041 179.410291 
L 197.686748 179.63105 
L 199.755313 179.550763 
L 200.272454 179.389441 
L 201.823878 179.194726 
L 202.34102 179.003884 
L 202.858161 179.003884 
L 203.375302 178.66875 
L 204.409585 178.482369 
L 204.926726 178.352175 
L 205.443868 178.07963 
L 206.47815 177.721946 
L 207.512433 177.278728 
L 208.029574 177.278728 
L 208.546715 176.9812 
L 210.098139 176.47217 
L 210.615281 176.193956 
L 211.132422 176.193956 
L 211.649563 175.927719 
L 216.820977 174.718438 
L 218.372401 174.655288 
L 219.406683 174.764881 
L 220.958107 175.107039 
L 221.99239 175.37537 
L 223.026673 175.701844 
L 223.543814 175.701844 
L 224.578097 175.97976 
L 227.163803 176.244791 
L 227.680944 176.244791 
L 229.74951 175.812772 
L 230.266651 175.264092 
L 230.783792 175.264092 
L 231.300934 174.627808 
L 232.335216 173.803084 
L 232.852358 173.321206 
L 233.369499 172.219406 
L 233.88664 172.219406 
L 234.403782 170.251964 
L 234.920923 169.889799 
L 235.955206 168.356493 
L 236.472347 166.703139 
L 236.989488 166.703139 
L 237.50663 164.07542 
L 238.023771 163.625714 
L 239.058054 161.811956 
L 239.575195 159.548457 
L 240.092336 159.548457 
L 240.609478 157.778336 
L 242.160902 155.220274 
L 242.678043 153.18545 
L 243.195184 153.18545 
L 243.712326 151.625957 
L 246.298032 147.701209 
L 246.815174 146.442026 
L 248.366597 144.780035 
L 248.883739 143.649869 
L 249.40088 143.649869 
L 249.918021 142.952392 
L 250.952304 142.469003 
L 251.986587 142.214432 
L 252.503728 142.32518 
L 253.020869 142.614513 
L 253.538011 142.753455 
L 254.572293 143.531278 
L 256.123717 146.951278 
L 256.640859 147.396247 
L 258.192283 150.365191 
L 258.709424 151.992276 
L 259.226565 154.247914 
L 260.777989 157.702359 
L 261.295131 159.975104 
L 262.329413 163.208826 
L 262.846555 163.718516 
L 263.880837 165.653806 
L 264.397979 167.402273 
L 264.91512 168.199143 
L 265.949403 170.258509 
L 266.466544 171.098085 
L 266.983685 171.098085 
L 267.500826 172.020907 
L 268.017968 172.020907 
L 268.535109 172.99952 
L 271.120816 173.614125 
L 272.67224 173.326961 
L 273.189381 173.164237 
L 273.706522 172.626838 
L 274.223664 172.626838 
L 274.740805 172.087474 
L 276.292229 171.144626 
L 276.80937 170.633418 
L 277.326512 169.931884 
L 279.395077 168.52823 
L 280.946501 167.083196 
L 284.049349 165.361874 
L 286.117914 164.875071 
L 287.152197 164.78852 
L 288.703621 164.885371 
L 289.737903 165.090065 
L 290.772186 165.459627 
L 291.806469 165.767986 
L 293.357893 166.679356 
L 294.392175 166.973201 
L 294.909317 167.170504 
L 295.943599 167.852344 
L 296.460741 168.132403 
L 297.495023 168.401017 
L 298.012165 168.572667 
L 298.529306 168.971868 
L 299.046447 168.971868 
L 299.563589 169.257261 
L 303.183578 170.110016 
L 308.872132 170.944291 
L 310.423556 171.226709 
L 313.526404 172.367812 
L 314.043546 172.683319 
L 314.560687 173.150878 
L 315.59497 173.671518 
L 316.629252 174.547996 
L 317.146394 174.704339 
L 317.663535 175.025029 
L 318.697818 176.221184 
L 319.214959 176.761972 
L 319.7321 176.945186 
L 320.766383 177.689284 
L 321.283524 178.443654 
L 321.800666 178.82128 
L 322.834948 179.943332 
L 323.35209 180.127416 
L 323.869231 180.491695 
L 324.386372 181.201085 
L 324.903514 181.543878 
L 325.937796 182.511921 
L 326.454938 182.66345 
L 326.972079 182.957194 
L 327.48922 183.504678 
L 328.523503 184.106554 
L 329.040644 184.419406 
L 330.074927 184.694382 
L 330.592068 185.003217 
L 333.177775 185.546751 
L 334.212057 185.638146 
L 335.763481 185.653425 
L 337.314905 185.500465 
L 338.866329 185.160191 
L 339.383471 185.047452 
L 339.900612 184.714649 
L 340.417753 184.714649 
L 340.934895 184.388089 
L 342.486319 183.779919 
L 344.037743 182.407361 
L 344.554884 182.242476 
L 345.589167 181.528164 
L 346.106308 180.721571 
L 346.623449 180.721571 
L 347.140591 179.331934 
L 347.657732 179.079107 
L 348.692014 178.010765 
L 349.209156 176.851388 
L 349.726297 176.851388 
L 350.243438 174.959555 
L 350.76058 174.627323 
L 351.794862 173.255019 
L 352.312004 171.457607 
L 352.829145 171.457607 
L 353.346286 169.979555 
L 354.89771 167.744118 
L 355.414852 165.923451 
L 355.931993 165.923451 
L 356.449134 164.534033 
L 358.5177 161.780514 
L 359.034841 160.789627 
L 360.586265 159.641723 
L 362.137689 158.803401 
L 363.171972 158.812362 
L 364.206254 159.071007 
L 364.723396 159.293754 
L 365.240537 159.742545 
L 365.757678 160.550079 
L 366.791961 161.586061 
L 367.826243 162.836195 
L 368.343385 163.898875 
L 368.860526 165.45721 
L 370.41195 168.036306 
L 370.929091 170.336642 
L 371.446233 170.336642 
L 371.963374 172.221482 
L 373.514798 175.039926 
L 374.031939 176.863711 
L 374.549081 176.863711 
L 375.066222 179.444141 
L 375.583363 179.851134 
L 376.617646 181.401378 
L 377.134787 182.814514 
L 377.651929 182.814514 
L 378.16907 184.647379 
L 378.686211 184.917116 
L 379.720494 185.89034 
L 380.237635 186.862088 
L 380.754777 186.862088 
L 381.271918 187.44001 
L 382.306201 187.837526 
L 383.340483 188.055548 
L 383.857625 188.103068 
L 385.409049 187.756653 
L 385.92619 187.56524 
L 387.477614 186.034235 
L 387.994755 185.832976 
L 389.029038 184.953426 
L 389.546179 183.971185 
L 390.06332 183.44681 
L 391.097603 181.760519 
L 391.614744 181.465399 
L 392.131886 180.865892 
L 392.649027 179.637854 
L 393.166168 179.01432 
L 394.717592 176.20595 
L 395.234734 176.20595 
L 395.751875 174.995145 
L 396.269016 174.407026 
L 397.82044 171.971326 
L 398.337582 171.971326 
L 398.854723 171.028945 
L 399.371864 170.59481 
L 400.406147 169.451818 
L 400.923288 168.976219 
L 401.44043 168.976219 
L 401.957571 168.443488 
L 402.474712 168.443488 
L 402.991854 167.857626 
L 404.543278 167.561006 
L 405.57756 167.421604 
L 407.128984 167.517117 
L 407.646126 167.587807 
L 409.197549 168.150482 
L 410.231832 168.367202 
L 410.748973 168.518963 
L 411.266115 168.832434 
L 412.300397 169.22713 
L 413.33468 169.677932 
L 413.851821 169.677932 
L 414.886104 170.138727 
L 415.403245 170.30722 
L 416.954669 170.540646 
L 417.988952 170.758411 
L 419.540376 170.836597 
L 421.0918 170.81871 
L 422.126083 170.691529 
L 424.194648 170.37742 
L 425.228931 170.097518 
L 426.263213 169.889124 
L 427.814637 169.332831 
L 429.366061 169.057888 
L 430.400344 168.700934 
L 431.434626 168.51865 
L 432.468909 168.355752 
L 432.468909 168.355752 
" clip-path="url(#p9ab2035be6)" style="fill: none; stroke: #0000ff; stroke-width: 1.5; stroke-linecap: square"/>
   </g>
   <g id="patch_8">
    <path d="M 64.316 190.3975 
L 64.316 139.92 
" style="fill: none; stroke: #000000; stroke-width: 0.8; stroke-linejoin: miter; stroke-linecap: square"/>
   </g>
   <g id="patch_9">
    <path d="M 450 190.3975 
L 450 139.92 
" style="fill: none; stroke: #000000; stroke-width: 0.8; stroke-linejoin: miter; stroke-linecap: square"/>
   </g>
   <g id="patch_10">
    <path d="M 64.316 190.3975 
L 450 190.3975 
" style="fill: none; stroke: #000000; stroke-width: 0.8; stroke-linejoin: miter; stroke-linecap: square"/>
   </g>
   <g id="patch_11">
    <path d="M 64.316 139.92 
L 450 139.92 
" style="fill: none; stroke: #000000; stroke-width: 0.8; stroke-linejoin: miter; stroke-linecap: square"/>
   </g>
   <g id="text_27">
    <!-- Error in $z$-position -->
    <g transform="translate(203.878 133.92)scale(0.12 -0.12)">
     <use xlink:href="#DejaVuSans-45" transform="translate(0 0.015625)"/>
     <use xlink:href="#DejaVuSans-72" transform="translate(63.183594 0.015625)"/>
     <use xlink:href="#DejaVuSans-72" transform="translate(104.296875 0.015625)"/>
     <use xlink:href="#DejaVuSans-6f" transform="translate(145.410156 0.015625)"/>
     <use xlink:href="#DejaVuSans-72" transform="translate(206.591797 0.015625)"/>
     <use xlink:href="#DejaVuSans-20" transform="translate(247.705078 0.015625)"/>
     <use xlink:href="#DejaVuSans-69" transform="translate(279.492188 0.015625)"/>
     <use xlink:href="#DejaVuSans-6e" transform="translate(307.275391 0.015625)"/>
     <use xlink:href="#DejaVuSans-20" transform="translate(370.654297 0.015625)"/>
     <use xlink:href="#DejaVuSans-Oblique-7a" transform="translate(402.441406 0.015625)"/>
     <use xlink:href="#DejaVuSans-2d" transform="translate(454.931641 0.015625)"/>
     <use xlink:href="#DejaVuSans-70" transform="translate(491.015625 0.015625)"/>
     <use xlink:href="#DejaVuSans-6f" transform="translate(554.492188 0.015625)"/>
     <use xlink:href="#DejaVuSans-73" transform="translate(615.673828 0.015625)"/>
     <use xlink:href="#DejaVuSans-69" transform="translate(667.773438 0.015625)"/>
     <use xlink:href="#DejaVuSans-74" transform="translate(695.556641 0.015625)"/>
     <use xlink:href="#DejaVuSans-69" transform="translate(734.765625 0.015625)"/>
     <use xlink:href="#DejaVuSans-6f" transform="translate(762.548828 0.015625)"/>
     <use xlink:href="#DejaVuSans-6e" transform="translate(823.730469 0.015625)"/>
    </g>
   </g>
  </g>
  <g id="axes_3">
   <g id="patch_12">
    <path d="M 64.316 301.9975 
L 450 301.9975 
L 450 251.52 
L 64.316 251.52 
z
" style="fill: #ffffff"/>
   </g>
   <g id="matplotlib.axis_5">
    <g id="xtick_17">
     <g id="line2d_45">
      <path d="M 81.847091 301.9975 
L 81.847091 251.52 
" clip-path="url(#pa6378e3252)" style="fill: none; stroke: #b0b0b0; stroke-width: 0.8; stroke-linecap: square"/>
     </g>
     <g id="line2d_46">
      <g>
       <use xlink:href="#mab8f4c6c8e" x="81.847091" y="301.9975" style="stroke: #000000; stroke-width: 0.8"/>
      </g>
     </g>
     <g id="text_28">
      <!-- 0 -->
      <g transform="translate(78.665841 316.595937)scale(0.1 -0.1)">
       <use xlink:href="#DejaVuSans-30"/>
      </g>
     </g>
    </g>
    <g id="xtick_18">
     <g id="line2d_47">
      <path d="M 133.485061 301.9975 
L 133.485061 251.52 
" clip-path="url(#pa6378e3252)" style="fill: none; stroke: #b0b0b0; stroke-width: 0.8; stroke-linecap: square"/>
     </g>
     <g id="line2d_48">
      <g>
       <use xlink:href="#mab8f4c6c8e" x="133.485061" y="301.9975" style="stroke: #000000; stroke-width: 0.8"/>
      </g>
     </g>
     <g id="text_29">
      <!-- 1 -->
      <g transform="translate(130.303811 316.595937)scale(0.1 -0.1)">
       <use xlink:href="#DejaVuSans-31"/>
      </g>
     </g>
    </g>
    <g id="xtick_19">
     <g id="line2d_49">
      <path d="M 185.123031 301.9975 
L 185.123031 251.52 
" clip-path="url(#pa6378e3252)" style="fill: none; stroke: #b0b0b0; stroke-width: 0.8; stroke-linecap: square"/>
     </g>
     <g id="line2d_50">
      <g>
       <use xlink:href="#mab8f4c6c8e" x="185.123031" y="301.9975" style="stroke: #000000; stroke-width: 0.8"/>
      </g>
     </g>
     <g id="text_30">
      <!-- 2 -->
      <g transform="translate(181.941781 316.595937)scale(0.1 -0.1)">
       <use xlink:href="#DejaVuSans-32"/>
      </g>
     </g>
    </g>
    <g id="xtick_20">
     <g id="line2d_51">
      <path d="M 236.761002 301.9975 
L 236.761002 251.52 
" clip-path="url(#pa6378e3252)" style="fill: none; stroke: #b0b0b0; stroke-width: 0.8; stroke-linecap: square"/>
     </g>
     <g id="line2d_52">
      <g>
       <use xlink:href="#mab8f4c6c8e" x="236.761002" y="301.9975" style="stroke: #000000; stroke-width: 0.8"/>
      </g>
     </g>
     <g id="text_31">
      <!-- 3 -->
      <g transform="translate(233.579752 316.595937)scale(0.1 -0.1)">
       <use xlink:href="#DejaVuSans-33"/>
      </g>
     </g>
    </g>
    <g id="xtick_21">
     <g id="line2d_53">
      <path d="M 288.398972 301.9975 
L 288.398972 251.52 
" clip-path="url(#pa6378e3252)" style="fill: none; stroke: #b0b0b0; stroke-width: 0.8; stroke-linecap: square"/>
     </g>
     <g id="line2d_54">
      <g>
       <use xlink:href="#mab8f4c6c8e" x="288.398972" y="301.9975" style="stroke: #000000; stroke-width: 0.8"/>
      </g>
     </g>
     <g id="text_32">
      <!-- 4 -->
      <g transform="translate(285.217722 316.595937)scale(0.1 -0.1)">
       <use xlink:href="#DejaVuSans-34"/>
      </g>
     </g>
    </g>
    <g id="xtick_22">
     <g id="line2d_55">
      <path d="M 340.036942 301.9975 
L 340.036942 251.52 
" clip-path="url(#pa6378e3252)" style="fill: none; stroke: #b0b0b0; stroke-width: 0.8; stroke-linecap: square"/>
     </g>
     <g id="line2d_56">
      <g>
       <use xlink:href="#mab8f4c6c8e" x="340.036942" y="301.9975" style="stroke: #000000; stroke-width: 0.8"/>
      </g>
     </g>
     <g id="text_33">
      <!-- 5 -->
      <g transform="translate(336.855692 316.595937)scale(0.1 -0.1)">
       <use xlink:href="#DejaVuSans-35"/>
      </g>
     </g>
    </g>
    <g id="xtick_23">
     <g id="line2d_57">
      <path d="M 391.674913 301.9975 
L 391.674913 251.52 
" clip-path="url(#pa6378e3252)" style="fill: none; stroke: #b0b0b0; stroke-width: 0.8; stroke-linecap: square"/>
     </g>
     <g id="line2d_58">
      <g>
       <use xlink:href="#mab8f4c6c8e" x="391.674913" y="301.9975" style="stroke: #000000; stroke-width: 0.8"/>
      </g>
     </g>
     <g id="text_34">
      <!-- 6 -->
      <g transform="translate(388.493663 316.595937)scale(0.1 -0.1)">
       <use xlink:href="#DejaVuSans-36"/>
      </g>
     </g>
    </g>
    <g id="xtick_24">
     <g id="line2d_59">
      <path d="M 443.312883 301.9975 
L 443.312883 251.52 
" clip-path="url(#pa6378e3252)" style="fill: none; stroke: #b0b0b0; stroke-width: 0.8; stroke-linecap: square"/>
     </g>
     <g id="line2d_60">
      <g>
       <use xlink:href="#mab8f4c6c8e" x="443.312883" y="301.9975" style="stroke: #000000; stroke-width: 0.8"/>
      </g>
     </g>
     <g id="text_35">
      <!-- 7 -->
      <g transform="translate(440.131633 316.595937)scale(0.1 -0.1)">
       <use xlink:href="#DejaVuSans-37"/>
      </g>
     </g>
    </g>
    <g id="text_36">
     <!-- $t$ [s] -->
     <g transform="translate(247.058 330.274063)scale(0.1 -0.1)">
      <use xlink:href="#DejaVuSans-Oblique-74" transform="translate(0 0.015625)"/>
      <use xlink:href="#DejaVuSans-20" transform="translate(39.208984 0.015625)"/>
      <use xlink:href="#DejaVuSans-5b" transform="translate(70.996094 0.015625)"/>
      <use xlink:href="#DejaVuSans-73" transform="translate(110.009766 0.015625)"/>
      <use xlink:href="#DejaVuSans-5d" transform="translate(162.109375 0.015625)"/>
     </g>
    </g>
   </g>
   <g id="matplotlib.axis_6">
    <g id="ytick_6">
     <g id="line2d_61">
      <path d="M 64.316 299.13403 
L 450 299.13403 
" clip-path="url(#pa6378e3252)" style="fill: none; stroke: #b0b0b0; stroke-width: 0.8; stroke-linecap: square"/>
     </g>
     <g id="line2d_62">
      <g>
       <use xlink:href="#m6703106a1b" x="64.316" y="299.13403" style="stroke: #000000; stroke-width: 0.8"/>
      </g>
     </g>
     <g id="text_37">
      <!-- −2.5 -->
      <g transform="translate(33.033188 302.933249)scale(0.1 -0.1)">
       <use xlink:href="#DejaVuSans-2212"/>
       <use xlink:href="#DejaVuSans-32" x="83.789062"/>
       <use xlink:href="#DejaVuSans-2e" x="147.412109"/>
       <use xlink:href="#DejaVuSans-35" x="179.199219"/>
      </g>
     </g>
    </g>
    <g id="ytick_7">
     <g id="line2d_63">
      <path d="M 64.316 276.778952 
L 450 276.778952 
" clip-path="url(#pa6378e3252)" style="fill: none; stroke: #b0b0b0; stroke-width: 0.8; stroke-linecap: square"/>
     </g>
     <g id="line2d_64">
      <g>
       <use xlink:href="#m6703106a1b" x="64.316" y="276.778952" style="stroke: #000000; stroke-width: 0.8"/>
      </g>
     </g>
     <g id="text_38">
      <!-- 0.0 -->
      <g transform="translate(41.412875 280.578171)scale(0.1 -0.1)">
       <use xlink:href="#DejaVuSans-30"/>
       <use xlink:href="#DejaVuSans-2e" x="63.623047"/>
       <use xlink:href="#DejaVuSans-30" x="95.410156"/>
      </g>
     </g>
    </g>
    <g id="ytick_8">
     <g id="line2d_65">
      <path d="M 64.316 254.423874 
L 450 254.423874 
" clip-path="url(#pa6378e3252)" style="fill: none; stroke: #b0b0b0; stroke-width: 0.8; stroke-linecap: square"/>
     </g>
     <g id="line2d_66">
      <g>
       <use xlink:href="#m6703106a1b" x="64.316" y="254.423874" style="stroke: #000000; stroke-width: 0.8"/>
      </g>
     </g>
     <g id="text_39">
      <!-- 2.5 -->
      <g transform="translate(41.412875 258.223093)scale(0.1 -0.1)">
       <use xlink:href="#DejaVuSans-32"/>
       <use xlink:href="#DejaVuSans-2e" x="63.623047"/>
       <use xlink:href="#DejaVuSans-35" x="95.410156"/>
      </g>
     </g>
    </g>
    <g id="text_40">
     <!-- $e_\theta$ [rad] -->
     <g transform="translate(26.9535 295.90875)rotate(-90)scale(0.1 -0.1)">
      <defs>
       <path id="DejaVuSans-Oblique-3b8" d="M 2913 2219 
L 925 2219 
Q 791 1284 928 888 
Q 1100 400 1566 400 
Q 2034 400 2391 891 
Q 2703 1322 2913 2219 
z
M 3009 2750 
Q 3094 3638 2984 3950 
Q 2813 4444 2353 4444 
Q 1875 4444 1525 3956 
Q 1250 3563 1034 2750 
L 3009 2750 
z
M 2444 4913 
Q 3194 4913 3494 4250 
Q 3794 3591 3566 2422 
Q 3341 1256 2781 594 
Q 2225 -72 1475 -72 
Q 722 -72 425 594 
Q 128 1256 353 2422 
Q 581 3591 1134 4250 
Q 1691 4913 2444 4913 
z
" transform="scale(0.015625)"/>
       <path id="DejaVuSans-61" d="M 2194 1759 
Q 1497 1759 1228 1600 
Q 959 1441 959 1056 
Q 959 750 1161 570 
Q 1363 391 1709 391 
Q 2188 391 2477 730 
Q 2766 1069 2766 1631 
L 2766 1759 
L 2194 1759 
z
M 3341 1997 
L 3341 0 
L 2766 0 
L 2766 531 
Q 2569 213 2275 61 
Q 1981 -91 1556 -91 
Q 1019 -91 701 211 
Q 384 513 384 1019 
Q 384 1609 779 1909 
Q 1175 2209 1959 2209 
L 2766 2209 
L 2766 2266 
Q 2766 2663 2505 2880 
Q 2244 3097 1772 3097 
Q 1472 3097 1187 3025 
Q 903 2953 641 2809 
L 641 3341 
Q 956 3463 1253 3523 
Q 1550 3584 1831 3584 
Q 2591 3584 2966 3190 
Q 3341 2797 3341 1997 
z
" transform="scale(0.015625)"/>
       <path id="DejaVuSans-64" d="M 2906 2969 
L 2906 4863 
L 3481 4863 
L 3481 0 
L 2906 0 
L 2906 525 
Q 2725 213 2448 61 
Q 2172 -91 1784 -91 
Q 1150 -91 751 415 
Q 353 922 353 1747 
Q 353 2572 751 3078 
Q 1150 3584 1784 3584 
Q 2172 3584 2448 3432 
Q 2725 3281 2906 2969 
z
M 947 1747 
Q 947 1113 1208 752 
Q 1469 391 1925 391 
Q 2381 391 2643 752 
Q 2906 1113 2906 1747 
Q 2906 2381 2643 2742 
Q 2381 3103 1925 3103 
Q 1469 3103 1208 2742 
Q 947 2381 947 1747 
z
" transform="scale(0.015625)"/>
      </defs>
      <use xlink:href="#DejaVuSans-Oblique-65" transform="translate(0 0.015625)"/>
      <use xlink:href="#DejaVuSans-Oblique-3b8" transform="translate(61.523438 -16.390625)scale(0.7)"/>
      <use xlink:href="#DejaVuSans-20" transform="translate(107.084961 0.015625)"/>
      <use xlink:href="#DejaVuSans-5b" transform="translate(138.87207 0.015625)"/>
      <use xlink:href="#DejaVuSans-72" transform="translate(177.885742 0.015625)"/>
      <use xlink:href="#DejaVuSans-61" transform="translate(218.999023 0.015625)"/>
      <use xlink:href="#DejaVuSans-64" transform="translate(280.27832 0.015625)"/>
      <use xlink:href="#DejaVuSans-5d" transform="translate(343.754883 0.015625)"/>
     </g>
    </g>
   </g>
   <g id="line2d_67">
    <path d="M 81.847091 262.743421 
L 83.915656 262.692261 
L 84.949939 262.537993 
L 85.46708 262.362303 
L 85.984222 262.362303 
L 87.018504 262.060759 
L 88.052787 261.809966 
L 88.569928 261.619911 
L 89.087069 261.619911 
L 90.121352 261.349879 
L 97.361331 260.279633 
L 98.912755 260.137271 
L 108.73844 259.650836 
L 114.944136 259.561147 
L 122.184114 259.667345 
L 132.009799 260.020721 
L 135.629789 260.130776 
L 140.284061 260.278137 
L 147.524039 260.379785 
L 155.7983 260.288961 
L 180.103943 259.713249 
L 188.378204 259.77959 
L 198.72103 260.037083 
L 204.409585 260.186481 
L 219.406683 260.559145 
L 220.958107 260.862714 
L 221.99239 261.116861 
L 223.026673 261.484397 
L 223.543814 261.484397 
L 224.060955 261.764033 
L 225.612379 262.302749 
L 226.129521 262.620627 
L 226.646662 262.620627 
L 227.163803 262.930232 
L 227.680944 262.930232 
L 228.198086 263.371154 
L 229.232368 263.576238 
L 229.74951 263.707618 
L 230.266651 264.012115 
L 230.783792 264.012115 
L 231.818075 264.333061 
L 236.472347 265.128236 
L 237.50663 265.232109 
L 241.64376 265.228359 
L 242.160902 265.177466 
L 242.678043 264.936366 
L 243.195184 264.936366 
L 244.229467 264.055852 
L 244.746608 263.262555 
L 245.26375 261.488134 
L 245.780891 256.045373 
L 246.298032 299.703068 
L 246.815174 296.502106 
L 247.332315 295.996313 
L 248.883739 295.160698 
L 249.40088 295.160698 
L 250.435163 294.955126 
L 263.363696 293.810376 
L 274.740805 293.202196 
L 285.083632 293.068422 
L 291.806469 293.198531 
L 300.08073 293.530391 
L 317.663535 294.008724 
L 325.420655 293.859103 
L 334.212057 293.432209 
L 334.729199 293.270921 
L 336.280623 293.109153 
L 337.314905 292.925053 
L 338.349188 292.674101 
L 339.383471 292.493126 
L 339.900612 292.253145 
L 340.417753 292.253145 
L 341.452036 291.95085 
L 343.00346 291.526129 
L 344.554884 291.142964 
L 346.623449 290.703193 
L 347.140591 290.375652 
L 348.692014 290.111317 
L 349.209156 289.907404 
L 349.726297 289.907404 
L 350.243438 289.618479 
L 351.794862 289.398108 
L 352.312004 289.196526 
L 352.829145 289.196526 
L 353.863428 288.986599 
L 357.483417 288.652919 
L 359.551982 288.712453 
L 361.103406 288.885111 
L 361.620548 289.032221 
L 363.689113 290.312055 
L 364.206254 291.001752 
L 364.723396 292.209601 
L 365.240537 297.090308 
L 365.757678 253.814432 
L 366.27482 256.131412 
L 366.791961 257.275295 
L 367.309102 257.94828 
L 368.860526 259.256213 
L 371.963374 260.093236 
L 379.203353 261.090351 
L 388.511896 261.768553 
L 406.094702 262.457136 
L 418.506093 263.255084 
L 430.400344 263.391889 
L 432.468909 263.304262 
L 432.468909 263.304262 
" clip-path="url(#pa6378e3252)" style="fill: none; stroke: #008000; stroke-width: 1.5; stroke-linecap: square"/>
   </g>
   <g id="patch_13">
    <path d="M 64.316 301.9975 
L 64.316 251.52 
" style="fill: none; stroke: #000000; stroke-width: 0.8; stroke-linejoin: miter; stroke-linecap: square"/>
   </g>
   <g id="patch_14">
    <path d="M 450 301.9975 
L 450 251.52 
" style="fill: none; stroke: #000000; stroke-width: 0.8; stroke-linejoin: miter; stroke-linecap: square"/>
   </g>
   <g id="patch_15">
    <path d="M 64.316 301.9975 
L 450 301.9975 
" style="fill: none; stroke: #000000; stroke-width: 0.8; stroke-linejoin: miter; stroke-linecap: square"/>
   </g>
   <g id="patch_16">
    <path d="M 64.316 251.52 
L 450 251.52 
" style="fill: none; stroke: #000000; stroke-width: 0.8; stroke-linejoin: miter; stroke-linecap: square"/>
   </g>
   <g id="text_41">
    <!-- Error in swing angle -->
    <g transform="translate(197.387688 245.52)scale(0.12 -0.12)">
     <defs>
      <path id="DejaVuSans-77" d="M 269 3500 
L 844 3500 
L 1563 769 
L 2278 3500 
L 2956 3500 
L 3675 769 
L 4391 3500 
L 4966 3500 
L 4050 0 
L 3372 0 
L 2619 2869 
L 1863 0 
L 1184 0 
L 269 3500 
z
" transform="scale(0.015625)"/>
      <path id="DejaVuSans-67" d="M 2906 1791 
Q 2906 2416 2648 2759 
Q 2391 3103 1925 3103 
Q 1463 3103 1205 2759 
Q 947 2416 947 1791 
Q 947 1169 1205 825 
Q 1463 481 1925 481 
Q 2391 481 2648 825 
Q 2906 1169 2906 1791 
z
M 3481 434 
Q 3481 -459 3084 -895 
Q 2688 -1331 1869 -1331 
Q 1566 -1331 1297 -1286 
Q 1028 -1241 775 -1147 
L 775 -588 
Q 1028 -725 1275 -790 
Q 1522 -856 1778 -856 
Q 2344 -856 2625 -561 
Q 2906 -266 2906 331 
L 2906 616 
Q 2728 306 2450 153 
Q 2172 0 1784 0 
Q 1141 0 747 490 
Q 353 981 353 1791 
Q 353 2603 747 3093 
Q 1141 3584 1784 3584 
Q 2172 3584 2450 3431 
Q 2728 3278 2906 2969 
L 2906 3500 
L 3481 3500 
L 3481 434 
z
" transform="scale(0.015625)"/>
      <path id="DejaVuSans-6c" d="M 603 4863 
L 1178 4863 
L 1178 0 
L 603 0 
L 603 4863 
z
" transform="scale(0.015625)"/>
      <path id="DejaVuSans-65" d="M 3597 1894 
L 3597 1613 
L 953 1613 
Q 991 1019 1311 708 
Q 1631 397 2203 397 
Q 2534 397 2845 478 
Q 3156 559 3463 722 
L 3463 178 
Q 3153 47 2828 -22 
Q 2503 -91 2169 -91 
Q 1331 -91 842 396 
Q 353 884 353 1716 
Q 353 2575 817 3079 
Q 1281 3584 2069 3584 
Q 2775 3584 3186 3129 
Q 3597 2675 3597 1894 
z
M 3022 2063 
Q 3016 2534 2758 2815 
Q 2500 3097 2075 3097 
Q 1594 3097 1305 2825 
Q 1016 2553 972 2059 
L 3022 2063 
z
" transform="scale(0.015625)"/>
     </defs>
     <use xlink:href="#DejaVuSans-45"/>
     <use xlink:href="#DejaVuSans-72" x="63.183594"/>
     <use xlink:href="#DejaVuSans-72" x="102.546875"/>
     <use xlink:href="#DejaVuSans-6f" x="141.410156"/>
     <use xlink:href="#DejaVuSans-72" x="202.591797"/>
     <use xlink:href="#DejaVuSans-20" x="243.705078"/>
     <use xlink:href="#DejaVuSans-69" x="275.492188"/>
     <use xlink:href="#DejaVuSans-6e" x="303.275391"/>
     <use xlink:href="#DejaVuSans-20" x="366.654297"/>
     <use xlink:href="#DejaVuSans-73" x="398.441406"/>
     <use xlink:href="#DejaVuSans-77" x="450.541016"/>
     <use xlink:href="#DejaVuSans-69" x="532.328125"/>
     <use xlink:href="#DejaVuSans-6e" x="560.111328"/>
     <use xlink:href="#DejaVuSans-67" x="623.490234"/>
     <use xlink:href="#DejaVuSans-20" x="686.966797"/>
     <use xlink:href="#DejaVuSans-61" x="718.753906"/>
     <use xlink:href="#DejaVuSans-6e" x="780.033203"/>
     <use xlink:href="#DejaVuSans-67" x="843.412109"/>
     <use xlink:href="#DejaVuSans-6c" x="906.888672"/>
     <use xlink:href="#DejaVuSans-65" x="934.671875"/>
    </g>
   </g>
  </g>
 </g>
 <defs>
  <clipPath id="pc495db2114">
   <rect x="64.316" y="28.32" width="385.684" height="50.4775"/>
  </clipPath>
  <clipPath id="p9ab2035be6">
   <rect x="64.316" y="139.92" width="385.684" height="50.4775"/>
  </clipPath>
  <clipPath id="pa6378e3252">
   <rect x="64.316" y="251.52" width="385.684" height="50.4775"/>
  </clipPath>
 </defs>
</svg>
