<?xml version="1.0" encoding="utf-8" standalone="no"?>
<!DOCTYPE svg PUBLIC "-//W3C//DTD SVG 1.1//EN"
  "http://www.w3.org/Graphics/SVG/1.1/DTD/svg11.dtd">
<svg xmlns:xlink="http://www.w3.org/1999/xlink" width="460.8pt" height="345.6pt" viewBox="0 0 460.8 345.6" xmlns="http://www.w3.org/2000/svg" version="1.1">
 <metadata>
  <rdf:RDF xmlns:dc="http://purl.org/dc/elements/1.1/" xmlns:cc="http://creativecommons.org/ns#" xmlns:rdf="http://www.w3.org/1999/02/22-rdf-syntax-ns#">
   <cc:Work>
    <dc:type rdf:resource="http://purl.org/dc/dcmitype/StillImage"/>
    <dc:date>2022-06-05T14:41:45.798460</dc:date>
    <dc:format>image/svg+xml</dc:format>
    <dc:creator>
     <cc:Agent>
      <dc:title>Matplotlib v3.5.1, https://matplotlib.org/</dc:title>
     </cc:Agent>
    </dc:creator>
   </cc:Work>
  </rdf:RDF>
 </metadata>
 <defs>
  <style type="text/css">*{stroke-linejoin: round; stroke-linecap: butt}</style>
 </defs>
 <g id="figure_1">
  <g id="patch_1">
   <path d="M 0 345.6 
L 460.8 345.6 
L 460.8 0 
L 0 0 
z
" style="fill: #ffffff"/>
  </g>
  <g id="axes_1">
   <g id="patch_2">
    <path d="M 58.106 78.7975 
L 450 78.7975 
L 450 28.32 
L 58.106 28.32 
z
" style="fill: #ffffff"/>
   </g>
   <g id="matplotlib.axis_1">
    <g id="xtick_1">
     <g id="line2d_1">
      <path d="M 75.919364 78.7975 
L 75.919364 28.32 
" clip-path="url(#p57b7ae5cab)" style="fill: none; stroke: #b0b0b0; stroke-width: 0.8; stroke-linecap: square"/>
     </g>
     <g id="line2d_2">
      <defs>
       <path id="m99ff208a94" d="M 0 0 
L 0 3.5 
" style="stroke: #000000; stroke-width: 0.8"/>
      </defs>
      <g>
       <use xlink:href="#m99ff208a94" x="75.919364" y="78.7975" style="stroke: #000000; stroke-width: 0.8"/>
      </g>
     </g>
     <g id="text_1">
      <!-- 0 -->
      <g transform="translate(72.738114 93.395937)scale(0.1 -0.1)">
       <defs>
        <path id="DejaVuSans-30" d="M 2034 4250 
Q 1547 4250 1301 3770 
Q 1056 3291 1056 2328 
Q 1056 1369 1301 889 
Q 1547 409 2034 409 
Q 2525 409 2770 889 
Q 3016 1369 3016 2328 
Q 3016 3291 2770 3770 
Q 2525 4250 2034 4250 
z
M 2034 4750 
Q 2819 4750 3233 4129 
Q 3647 3509 3647 2328 
Q 3647 1150 3233 529 
Q 2819 -91 2034 -91 
Q 1250 -91 836 529 
Q 422 1150 422 2328 
Q 422 3509 836 4129 
Q 1250 4750 2034 4750 
z
" transform="scale(0.015625)"/>
       </defs>
       <use xlink:href="#DejaVuSans-30"/>
      </g>
     </g>
    </g>
    <g id="xtick_2">
     <g id="line2d_3">
      <path d="M 145.638986 78.7975 
L 145.638986 28.32 
" clip-path="url(#p57b7ae5cab)" style="fill: none; stroke: #b0b0b0; stroke-width: 0.8; stroke-linecap: square"/>
     </g>
     <g id="line2d_4">
      <g>
       <use xlink:href="#m99ff208a94" x="145.638986" y="78.7975" style="stroke: #000000; stroke-width: 0.8"/>
      </g>
     </g>
     <g id="text_2">
      <!-- 2 -->
      <g transform="translate(142.457736 93.395937)scale(0.1 -0.1)">
       <defs>
        <path id="DejaVuSans-32" d="M 1228 531 
L 3431 531 
L 3431 0 
L 469 0 
L 469 531 
Q 828 903 1448 1529 
Q 2069 2156 2228 2338 
Q 2531 2678 2651 2914 
Q 2772 3150 2772 3378 
Q 2772 3750 2511 3984 
Q 2250 4219 1831 4219 
Q 1534 4219 1204 4116 
Q 875 4013 500 3803 
L 500 4441 
Q 881 4594 1212 4672 
Q 1544 4750 1819 4750 
Q 2544 4750 2975 4387 
Q 3406 4025 3406 3419 
Q 3406 3131 3298 2873 
Q 3191 2616 2906 2266 
Q 2828 2175 2409 1742 
Q 1991 1309 1228 531 
z
" transform="scale(0.015625)"/>
       </defs>
       <use xlink:href="#DejaVuSans-32"/>
      </g>
     </g>
    </g>
    <g id="xtick_3">
     <g id="line2d_5">
      <path d="M 215.358609 78.7975 
L 215.358609 28.32 
" clip-path="url(#p57b7ae5cab)" style="fill: none; stroke: #b0b0b0; stroke-width: 0.8; stroke-linecap: square"/>
     </g>
     <g id="line2d_6">
      <g>
       <use xlink:href="#m99ff208a94" x="215.358609" y="78.7975" style="stroke: #000000; stroke-width: 0.8"/>
      </g>
     </g>
     <g id="text_3">
      <!-- 4 -->
      <g transform="translate(212.177359 93.395937)scale(0.1 -0.1)">
       <defs>
        <path id="DejaVuSans-34" d="M 2419 4116 
L 825 1625 
L 2419 1625 
L 2419 4116 
z
M 2253 4666 
L 3047 4666 
L 3047 1625 
L 3713 1625 
L 3713 1100 
L 3047 1100 
L 3047 0 
L 2419 0 
L 2419 1100 
L 313 1100 
L 313 1709 
L 2253 4666 
z
" transform="scale(0.015625)"/>
       </defs>
       <use xlink:href="#DejaVuSans-34"/>
      </g>
     </g>
    </g>
    <g id="xtick_4">
     <g id="line2d_7">
      <path d="M 285.078232 78.7975 
L 285.078232 28.32 
" clip-path="url(#p57b7ae5cab)" style="fill: none; stroke: #b0b0b0; stroke-width: 0.8; stroke-linecap: square"/>
     </g>
     <g id="line2d_8">
      <g>
       <use xlink:href="#m99ff208a94" x="285.078232" y="78.7975" style="stroke: #000000; stroke-width: 0.8"/>
      </g>
     </g>
     <g id="text_4">
      <!-- 6 -->
      <g transform="translate(281.896982 93.395937)scale(0.1 -0.1)">
       <defs>
        <path id="DejaVuSans-36" d="M 2113 2584 
Q 1688 2584 1439 2293 
Q 1191 2003 1191 1497 
Q 1191 994 1439 701 
Q 1688 409 2113 409 
Q 2538 409 2786 701 
Q 3034 994 3034 1497 
Q 3034 2003 2786 2293 
Q 2538 2584 2113 2584 
z
M 3366 4563 
L 3366 3988 
Q 3128 4100 2886 4159 
Q 2644 4219 2406 4219 
Q 1781 4219 1451 3797 
Q 1122 3375 1075 2522 
Q 1259 2794 1537 2939 
Q 1816 3084 2150 3084 
Q 2853 3084 3261 2657 
Q 3669 2231 3669 1497 
Q 3669 778 3244 343 
Q 2819 -91 2113 -91 
Q 1303 -91 875 529 
Q 447 1150 447 2328 
Q 447 3434 972 4092 
Q 1497 4750 2381 4750 
Q 2619 4750 2861 4703 
Q 3103 4656 3366 4563 
z
" transform="scale(0.015625)"/>
       </defs>
       <use xlink:href="#DejaVuSans-36"/>
      </g>
     </g>
    </g>
    <g id="xtick_5">
     <g id="line2d_9">
      <path d="M 354.797855 78.7975 
L 354.797855 28.32 
" clip-path="url(#p57b7ae5cab)" style="fill: none; stroke: #b0b0b0; stroke-width: 0.8; stroke-linecap: square"/>
     </g>
     <g id="line2d_10">
      <g>
       <use xlink:href="#m99ff208a94" x="354.797855" y="78.7975" style="stroke: #000000; stroke-width: 0.8"/>
      </g>
     </g>
     <g id="text_5">
      <!-- 8 -->
      <g transform="translate(351.616605 93.395937)scale(0.1 -0.1)">
       <defs>
        <path id="DejaVuSans-38" d="M 2034 2216 
Q 1584 2216 1326 1975 
Q 1069 1734 1069 1313 
Q 1069 891 1326 650 
Q 1584 409 2034 409 
Q 2484 409 2743 651 
Q 3003 894 3003 1313 
Q 3003 1734 2745 1975 
Q 2488 2216 2034 2216 
z
M 1403 2484 
Q 997 2584 770 2862 
Q 544 3141 544 3541 
Q 544 4100 942 4425 
Q 1341 4750 2034 4750 
Q 2731 4750 3128 4425 
Q 3525 4100 3525 3541 
Q 3525 3141 3298 2862 
Q 3072 2584 2669 2484 
Q 3125 2378 3379 2068 
Q 3634 1759 3634 1313 
Q 3634 634 3220 271 
Q 2806 -91 2034 -91 
Q 1263 -91 848 271 
Q 434 634 434 1313 
Q 434 1759 690 2068 
Q 947 2378 1403 2484 
z
M 1172 3481 
Q 1172 3119 1398 2916 
Q 1625 2713 2034 2713 
Q 2441 2713 2670 2916 
Q 2900 3119 2900 3481 
Q 2900 3844 2670 4047 
Q 2441 4250 2034 4250 
Q 1625 4250 1398 4047 
Q 1172 3844 1172 3481 
z
" transform="scale(0.015625)"/>
       </defs>
       <use xlink:href="#DejaVuSans-38"/>
      </g>
     </g>
    </g>
    <g id="xtick_6">
     <g id="line2d_11">
      <path d="M 424.517478 78.7975 
L 424.517478 28.32 
" clip-path="url(#p57b7ae5cab)" style="fill: none; stroke: #b0b0b0; stroke-width: 0.8; stroke-linecap: square"/>
     </g>
     <g id="line2d_12">
      <g>
       <use xlink:href="#m99ff208a94" x="424.517478" y="78.7975" style="stroke: #000000; stroke-width: 0.8"/>
      </g>
     </g>
     <g id="text_6">
      <!-- 10 -->
      <g transform="translate(418.154978 93.395937)scale(0.1 -0.1)">
       <defs>
        <path id="DejaVuSans-31" d="M 794 531 
L 1825 531 
L 1825 4091 
L 703 3866 
L 703 4441 
L 1819 4666 
L 2450 4666 
L 2450 531 
L 3481 531 
L 3481 0 
L 794 0 
L 794 531 
z
" transform="scale(0.015625)"/>
       </defs>
       <use xlink:href="#DejaVuSans-31"/>
       <use xlink:href="#DejaVuSans-30" x="63.623047"/>
      </g>
     </g>
    </g>
    <g id="text_7">
     <!-- $t$ [s] -->
     <g transform="translate(243.953 107.074062)scale(0.1 -0.1)">
      <defs>
       <path id="DejaVuSans-Oblique-74" d="M 2706 3500 
L 2619 3053 
L 1472 3053 
L 1100 1153 
Q 1081 1047 1072 975 
Q 1063 903 1063 863 
Q 1063 663 1183 572 
Q 1303 481 1569 481 
L 2150 481 
L 2053 0 
L 1503 0 
Q 991 0 739 200 
Q 488 400 488 806 
Q 488 878 497 964 
Q 506 1050 525 1153 
L 897 3053 
L 409 3053 
L 500 3500 
L 978 3500 
L 1172 4494 
L 1747 4494 
L 1556 3500 
L 2706 3500 
z
" transform="scale(0.015625)"/>
       <path id="DejaVuSans-20" transform="scale(0.015625)"/>
       <path id="DejaVuSans-5b" d="M 550 4863 
L 1875 4863 
L 1875 4416 
L 1125 4416 
L 1125 -397 
L 1875 -397 
L 1875 -844 
L 550 -844 
L 550 4863 
z
" transform="scale(0.015625)"/>
       <path id="DejaVuSans-73" d="M 2834 3397 
L 2834 2853 
Q 2591 2978 2328 3040 
Q 2066 3103 1784 3103 
Q 1356 3103 1142 2972 
Q 928 2841 928 2578 
Q 928 2378 1081 2264 
Q 1234 2150 1697 2047 
L 1894 2003 
Q 2506 1872 2764 1633 
Q 3022 1394 3022 966 
Q 3022 478 2636 193 
Q 2250 -91 1575 -91 
Q 1294 -91 989 -36 
Q 684 19 347 128 
L 347 722 
Q 666 556 975 473 
Q 1284 391 1588 391 
Q 1994 391 2212 530 
Q 2431 669 2431 922 
Q 2431 1156 2273 1281 
Q 2116 1406 1581 1522 
L 1381 1569 
Q 847 1681 609 1914 
Q 372 2147 372 2553 
Q 372 3047 722 3315 
Q 1072 3584 1716 3584 
Q 2034 3584 2315 3537 
Q 2597 3491 2834 3397 
z
" transform="scale(0.015625)"/>
       <path id="DejaVuSans-5d" d="M 1947 4863 
L 1947 -844 
L 622 -844 
L 622 -397 
L 1369 -397 
L 1369 4416 
L 622 4416 
L 622 4863 
L 1947 4863 
z
" transform="scale(0.015625)"/>
      </defs>
      <use xlink:href="#DejaVuSans-Oblique-74" transform="translate(0 0.015625)"/>
      <use xlink:href="#DejaVuSans-20" transform="translate(39.208984 0.015625)"/>
      <use xlink:href="#DejaVuSans-5b" transform="translate(70.996094 0.015625)"/>
      <use xlink:href="#DejaVuSans-73" transform="translate(110.009766 0.015625)"/>
      <use xlink:href="#DejaVuSans-5d" transform="translate(162.109375 0.015625)"/>
     </g>
    </g>
   </g>
   <g id="matplotlib.axis_2">
    <g id="ytick_1">
     <g id="line2d_13">
      <path d="M 58.106 76.561149 
L 450 76.561149 
" clip-path="url(#p57b7ae5cab)" style="fill: none; stroke: #b0b0b0; stroke-width: 0.8; stroke-linecap: square"/>
     </g>
     <g id="line2d_14">
      <defs>
       <path id="mbd299a4be8" d="M 0 0 
L -3.5 0 
" style="stroke: #000000; stroke-width: 0.8"/>
      </defs>
      <g>
       <use xlink:href="#mbd299a4be8" x="58.106" y="76.561149" style="stroke: #000000; stroke-width: 0.8"/>
      </g>
     </g>
     <g id="text_8">
      <!-- 0 -->
      <g transform="translate(44.7435 80.360368)scale(0.1 -0.1)">
       <use xlink:href="#DejaVuSans-30"/>
      </g>
     </g>
    </g>
    <g id="ytick_2">
     <g id="line2d_15">
      <path d="M 58.106 30.614432 
L 450 30.614432 
" clip-path="url(#p57b7ae5cab)" style="fill: none; stroke: #b0b0b0; stroke-width: 0.8; stroke-linecap: square"/>
     </g>
     <g id="line2d_16">
      <g>
       <use xlink:href="#mbd299a4be8" x="58.106" y="30.614432" style="stroke: #000000; stroke-width: 0.8"/>
      </g>
     </g>
     <g id="text_9">
      <!-- 10 -->
      <g transform="translate(38.381 34.413651)scale(0.1 -0.1)">
       <use xlink:href="#DejaVuSans-31"/>
       <use xlink:href="#DejaVuSans-30" x="63.623047"/>
      </g>
     </g>
    </g>
    <g id="text_10">
     <!-- $e_x$ [m] -->
     <g transform="translate(32.301313 69.20875)rotate(-90)scale(0.1 -0.1)">
      <defs>
       <path id="DejaVuSans-Oblique-65" d="M 3078 2063 
Q 3088 2113 3092 2166 
Q 3097 2219 3097 2272 
Q 3097 2653 2873 2875 
Q 2650 3097 2266 3097 
Q 1838 3097 1509 2826 
Q 1181 2556 1013 2059 
L 3078 2063 
z
M 3578 1613 
L 903 1613 
Q 884 1494 878 1425 
Q 872 1356 872 1306 
Q 872 872 1139 634 
Q 1406 397 1894 397 
Q 2269 397 2603 481 
Q 2938 566 3225 728 
L 3116 159 
Q 2806 34 2476 -28 
Q 2147 -91 1806 -91 
Q 1078 -91 686 257 
Q 294 606 294 1247 
Q 294 1794 489 2264 
Q 684 2734 1063 3103 
Q 1306 3334 1642 3459 
Q 1978 3584 2356 3584 
Q 2950 3584 3301 3228 
Q 3653 2872 3653 2272 
Q 3653 2128 3634 1964 
Q 3616 1800 3578 1613 
z
" transform="scale(0.015625)"/>
       <path id="DejaVuSans-Oblique-78" d="M 3841 3500 
L 2234 1784 
L 3219 0 
L 2559 0 
L 1819 1388 
L 531 0 
L -166 0 
L 1556 1844 
L 641 3500 
L 1300 3500 
L 1972 2234 
L 3144 3500 
L 3841 3500 
z
" transform="scale(0.015625)"/>
       <path id="DejaVuSans-6d" d="M 3328 2828 
Q 3544 3216 3844 3400 
Q 4144 3584 4550 3584 
Q 5097 3584 5394 3201 
Q 5691 2819 5691 2113 
L 5691 0 
L 5113 0 
L 5113 2094 
Q 5113 2597 4934 2840 
Q 4756 3084 4391 3084 
Q 3944 3084 3684 2787 
Q 3425 2491 3425 1978 
L 3425 0 
L 2847 0 
L 2847 2094 
Q 2847 2600 2669 2842 
Q 2491 3084 2119 3084 
Q 1678 3084 1418 2786 
Q 1159 2488 1159 1978 
L 1159 0 
L 581 0 
L 581 3500 
L 1159 3500 
L 1159 2956 
Q 1356 3278 1631 3431 
Q 1906 3584 2284 3584 
Q 2666 3584 2933 3390 
Q 3200 3197 3328 2828 
z
" transform="scale(0.015625)"/>
      </defs>
      <use xlink:href="#DejaVuSans-Oblique-65" transform="translate(0 0.015625)"/>
      <use xlink:href="#DejaVuSans-Oblique-78" transform="translate(61.523438 -16.390625)scale(0.7)"/>
      <use xlink:href="#DejaVuSans-20" transform="translate(105.683594 0.015625)"/>
      <use xlink:href="#DejaVuSans-5b" transform="translate(137.470703 0.015625)"/>
      <use xlink:href="#DejaVuSans-6d" transform="translate(176.484375 0.015625)"/>
      <use xlink:href="#DejaVuSans-5d" transform="translate(273.896484 0.015625)"/>
     </g>
    </g>
   </g>
   <g id="line2d_17">
    <path d="M 75.919364 30.614432 
L 84.293913 30.721703 
L 90.923764 30.978938 
L 98.949373 31.315576 
L 102.089829 31.599369 
L 105.928164 31.982099 
L 106.626043 32.09639 
L 110.464378 32.55436 
L 126.864537 34.99053 
L 132.09863 36.05508 
L 132.447569 36.05508 
L 133.145449 36.233126 
L 135.588025 36.748884 
L 138.030602 37.339448 
L 138.728481 37.433806 
L 139.7753 37.718813 
L 141.868937 38.233861 
L 142.915756 38.397044 
L 143.962574 38.692664 
L 145.707272 39.088079 
L 148.498788 39.708146 
L 151.639244 40.466162 
L 154.7797 41.099876 
L 155.826519 41.393618 
L 156.873337 41.538889 
L 157.920156 41.797613 
L 159.664854 42.136672 
L 162.80531 42.745447 
L 163.852128 42.96562 
L 166.992584 43.57101 
L 168.039403 43.789869 
L 171.528798 44.436819 
L 172.575617 44.648331 
L 175.716073 45.217087 
L 176.762891 45.419365 
L 179.205468 45.843059 
L 180.252287 46.089026 
L 181.648045 46.259814 
L 185.13744 46.889985 
L 188.277896 47.425452 
L 189.324715 47.616561 
L 193.16305 48.232546 
L 197.001385 48.871683 
L 199.443962 49.280825 
L 200.49078 49.456264 
L 204.329115 50.018009 
L 205.375934 50.197179 
L 208.16745 50.652238 
L 209.214269 50.831349 
L 212.703664 51.354795 
L 213.750483 51.532151 
L 216.19306 51.923812 
L 217.239878 52.157882 
L 218.286697 52.274064 
L 219.333516 52.502709 
L 221.078213 52.704128 
L 221.776092 52.859256 
L 224.567609 53.285822 
L 225.963367 53.561256 
L 227.010185 53.721653 
L 230.84852 54.298403 
L 232.244279 54.535534 
L 235.035795 54.950567 
L 236.780493 55.28019 
L 237.478372 55.366834 
L 240.618828 55.828268 
L 241.665646 55.99348 
L 244.806102 56.459793 
L 245.852921 56.631697 
L 248.993377 57.092077 
L 250.040195 57.255567 
L 253.529591 57.757947 
L 254.576409 57.929294 
L 258.065805 58.432178 
L 259.112623 58.594931 
L 261.5552 58.943488 
L 262.253079 59.048074 
L 263.299898 59.216655 
L 266.091414 59.633164 
L 267.138233 59.793933 
L 269.929749 60.188822 
L 270.976568 60.349679 
L 274.117024 60.800679 
L 275.163842 60.961739 
L 280.048996 61.628674 
L 283.887331 62.189219 
L 288.423545 62.788338 
L 294.006578 63.583068 
L 298.891731 64.214413 
L 303.776885 64.896682 
L 304.474764 64.970139 
L 306.568401 65.233243 
L 307.26628 65.33487 
L 308.662038 65.486859 
L 313.896132 66.150734 
L 319.479164 66.790661 
L 320.177043 66.902697 
L 323.666439 67.322242 
L 326.806895 67.69473 
L 332.040988 68.266187 
L 334.134625 68.543329 
L 337.275081 68.891867 
L 343.207053 69.532268 
L 348.790086 70.189883 
L 353.675239 70.690412 
L 355.419937 70.928005 
L 356.466756 71.025805 
L 363.445547 71.783179 
L 364.841305 71.935027 
L 369.726458 72.48286 
L 370.773277 72.619249 
L 376.00737 73.129002 
L 377.054189 73.264941 
L 382.288282 73.819535 
L 384.03298 74.024739 
L 385.079798 74.10301 
L 391.709649 74.73862 
L 408.109808 75.907532 
L 424.509966 76.448531 
L 432.186636 76.500001 
L 432.186636 76.500001 
" clip-path="url(#p57b7ae5cab)" style="fill: none; stroke: #ff0000; stroke-width: 1.5; stroke-linecap: square"/>
   </g>
   <g id="patch_3">
    <path d="M 58.106 78.7975 
L 58.106 28.32 
" style="fill: none; stroke: #000000; stroke-width: 0.8; stroke-linejoin: miter; stroke-linecap: square"/>
   </g>
   <g id="patch_4">
    <path d="M 450 78.7975 
L 450 28.32 
" style="fill: none; stroke: #000000; stroke-width: 0.8; stroke-linejoin: miter; stroke-linecap: square"/>
   </g>
   <g id="patch_5">
    <path d="M 58.106 78.7975 
L 450 78.7975 
" style="fill: none; stroke: #000000; stroke-width: 0.8; stroke-linejoin: miter; stroke-linecap: square"/>
   </g>
   <g id="patch_6">
    <path d="M 58.106 28.32 
L 450 28.32 
" style="fill: none; stroke: #000000; stroke-width: 0.8; stroke-linejoin: miter; stroke-linecap: square"/>
   </g>
   <g id="text_11">
    <!-- Error in $x$-position -->
    <g transform="translate(200.413 22.32)scale(0.12 -0.12)">
     <defs>
      <path id="DejaVuSans-45" d="M 628 4666 
L 3578 4666 
L 3578 4134 
L 1259 4134 
L 1259 2753 
L 3481 2753 
L 3481 2222 
L 1259 2222 
L 1259 531 
L 3634 531 
L 3634 0 
L 628 0 
L 628 4666 
z
" transform="scale(0.015625)"/>
      <path id="DejaVuSans-72" d="M 2631 2963 
Q 2534 3019 2420 3045 
Q 2306 3072 2169 3072 
Q 1681 3072 1420 2755 
Q 1159 2438 1159 1844 
L 1159 0 
L 581 0 
L 581 3500 
L 1159 3500 
L 1159 2956 
Q 1341 3275 1631 3429 
Q 1922 3584 2338 3584 
Q 2397 3584 2469 3576 
Q 2541 3569 2628 3553 
L 2631 2963 
z
" transform="scale(0.015625)"/>
      <path id="DejaVuSans-6f" d="M 1959 3097 
Q 1497 3097 1228 2736 
Q 959 2375 959 1747 
Q 959 1119 1226 758 
Q 1494 397 1959 397 
Q 2419 397 2687 759 
Q 2956 1122 2956 1747 
Q 2956 2369 2687 2733 
Q 2419 3097 1959 3097 
z
M 1959 3584 
Q 2709 3584 3137 3096 
Q 3566 2609 3566 1747 
Q 3566 888 3137 398 
Q 2709 -91 1959 -91 
Q 1206 -91 779 398 
Q 353 888 353 1747 
Q 353 2609 779 3096 
Q 1206 3584 1959 3584 
z
" transform="scale(0.015625)"/>
      <path id="DejaVuSans-69" d="M 603 3500 
L 1178 3500 
L 1178 0 
L 603 0 
L 603 3500 
z
M 603 4863 
L 1178 4863 
L 1178 4134 
L 603 4134 
L 603 4863 
z
" transform="scale(0.015625)"/>
      <path id="DejaVuSans-6e" d="M 3513 2113 
L 3513 0 
L 2938 0 
L 2938 2094 
Q 2938 2591 2744 2837 
Q 2550 3084 2163 3084 
Q 1697 3084 1428 2787 
Q 1159 2491 1159 1978 
L 1159 0 
L 581 0 
L 581 3500 
L 1159 3500 
L 1159 2956 
Q 1366 3272 1645 3428 
Q 1925 3584 2291 3584 
Q 2894 3584 3203 3211 
Q 3513 2838 3513 2113 
z
" transform="scale(0.015625)"/>
      <path id="DejaVuSans-2d" d="M 313 2009 
L 1997 2009 
L 1997 1497 
L 313 1497 
L 313 2009 
z
" transform="scale(0.015625)"/>
      <path id="DejaVuSans-70" d="M 1159 525 
L 1159 -1331 
L 581 -1331 
L 581 3500 
L 1159 3500 
L 1159 2969 
Q 1341 3281 1617 3432 
Q 1894 3584 2278 3584 
Q 2916 3584 3314 3078 
Q 3713 2572 3713 1747 
Q 3713 922 3314 415 
Q 2916 -91 2278 -91 
Q 1894 -91 1617 61 
Q 1341 213 1159 525 
z
M 3116 1747 
Q 3116 2381 2855 2742 
Q 2594 3103 2138 3103 
Q 1681 3103 1420 2742 
Q 1159 2381 1159 1747 
Q 1159 1113 1420 752 
Q 1681 391 2138 391 
Q 2594 391 2855 752 
Q 3116 1113 3116 1747 
z
" transform="scale(0.015625)"/>
      <path id="DejaVuSans-74" d="M 1172 4494 
L 1172 3500 
L 2356 3500 
L 2356 3053 
L 1172 3053 
L 1172 1153 
Q 1172 725 1289 603 
Q 1406 481 1766 481 
L 2356 481 
L 2356 0 
L 1766 0 
Q 1100 0 847 248 
Q 594 497 594 1153 
L 594 3053 
L 172 3053 
L 172 3500 
L 594 3500 
L 594 4494 
L 1172 4494 
z
" transform="scale(0.015625)"/>
     </defs>
     <use xlink:href="#DejaVuSans-45" transform="translate(0 0.015625)"/>
     <use xlink:href="#DejaVuSans-72" transform="translate(63.183594 0.015625)"/>
     <use xlink:href="#DejaVuSans-72" transform="translate(104.296875 0.015625)"/>
     <use xlink:href="#DejaVuSans-6f" transform="translate(145.410156 0.015625)"/>
     <use xlink:href="#DejaVuSans-72" transform="translate(206.591797 0.015625)"/>
     <use xlink:href="#DejaVuSans-20" transform="translate(247.705078 0.015625)"/>
     <use xlink:href="#DejaVuSans-69" transform="translate(279.492188 0.015625)"/>
     <use xlink:href="#DejaVuSans-6e" transform="translate(307.275391 0.015625)"/>
     <use xlink:href="#DejaVuSans-20" transform="translate(370.654297 0.015625)"/>
     <use xlink:href="#DejaVuSans-Oblique-78" transform="translate(402.441406 0.015625)"/>
     <use xlink:href="#DejaVuSans-2d" transform="translate(461.621094 0.015625)"/>
     <use xlink:href="#DejaVuSans-70" transform="translate(497.705078 0.015625)"/>
     <use xlink:href="#DejaVuSans-6f" transform="translate(561.181641 0.015625)"/>
     <use xlink:href="#DejaVuSans-73" transform="translate(622.363281 0.015625)"/>
     <use xlink:href="#DejaVuSans-69" transform="translate(674.462891 0.015625)"/>
     <use xlink:href="#DejaVuSans-74" transform="translate(702.246094 0.015625)"/>
     <use xlink:href="#DejaVuSans-69" transform="translate(741.455078 0.015625)"/>
     <use xlink:href="#DejaVuSans-6f" transform="translate(769.238281 0.015625)"/>
     <use xlink:href="#DejaVuSans-6e" transform="translate(830.419922 0.015625)"/>
    </g>
   </g>
  </g>
  <g id="axes_2">
   <g id="patch_7">
    <path d="M 58.106 190.3975 
L 450 190.3975 
L 450 139.92 
L 58.106 139.92 
z
" style="fill: #ffffff"/>
   </g>
   <g id="matplotlib.axis_3">
    <g id="xtick_7">
     <g id="line2d_18">
      <path d="M 75.919364 190.3975 
L 75.919364 139.92 
" clip-path="url(#pf93936571d)" style="fill: none; stroke: #b0b0b0; stroke-width: 0.8; stroke-linecap: square"/>
     </g>
     <g id="line2d_19">
      <g>
       <use xlink:href="#m99ff208a94" x="75.919364" y="190.3975" style="stroke: #000000; stroke-width: 0.8"/>
      </g>
     </g>
     <g id="text_12">
      <!-- 0 -->
      <g transform="translate(72.738114 204.995937)scale(0.1 -0.1)">
       <use xlink:href="#DejaVuSans-30"/>
      </g>
     </g>
    </g>
    <g id="xtick_8">
     <g id="line2d_20">
      <path d="M 145.638986 190.3975 
L 145.638986 139.92 
" clip-path="url(#pf93936571d)" style="fill: none; stroke: #b0b0b0; stroke-width: 0.8; stroke-linecap: square"/>
     </g>
     <g id="line2d_21">
      <g>
       <use xlink:href="#m99ff208a94" x="145.638986" y="190.3975" style="stroke: #000000; stroke-width: 0.8"/>
      </g>
     </g>
     <g id="text_13">
      <!-- 2 -->
      <g transform="translate(142.457736 204.995937)scale(0.1 -0.1)">
       <use xlink:href="#DejaVuSans-32"/>
      </g>
     </g>
    </g>
    <g id="xtick_9">
     <g id="line2d_22">
      <path d="M 215.358609 190.3975 
L 215.358609 139.92 
" clip-path="url(#pf93936571d)" style="fill: none; stroke: #b0b0b0; stroke-width: 0.8; stroke-linecap: square"/>
     </g>
     <g id="line2d_23">
      <g>
       <use xlink:href="#m99ff208a94" x="215.358609" y="190.3975" style="stroke: #000000; stroke-width: 0.8"/>
      </g>
     </g>
     <g id="text_14">
      <!-- 4 -->
      <g transform="translate(212.177359 204.995937)scale(0.1 -0.1)">
       <use xlink:href="#DejaVuSans-34"/>
      </g>
     </g>
    </g>
    <g id="xtick_10">
     <g id="line2d_24">
      <path d="M 285.078232 190.3975 
L 285.078232 139.92 
" clip-path="url(#pf93936571d)" style="fill: none; stroke: #b0b0b0; stroke-width: 0.8; stroke-linecap: square"/>
     </g>
     <g id="line2d_25">
      <g>
       <use xlink:href="#m99ff208a94" x="285.078232" y="190.3975" style="stroke: #000000; stroke-width: 0.8"/>
      </g>
     </g>
     <g id="text_15">
      <!-- 6 -->
      <g transform="translate(281.896982 204.995937)scale(0.1 -0.1)">
       <use xlink:href="#DejaVuSans-36"/>
      </g>
     </g>
    </g>
    <g id="xtick_11">
     <g id="line2d_26">
      <path d="M 354.797855 190.3975 
L 354.797855 139.92 
" clip-path="url(#pf93936571d)" style="fill: none; stroke: #b0b0b0; stroke-width: 0.8; stroke-linecap: square"/>
     </g>
     <g id="line2d_27">
      <g>
       <use xlink:href="#m99ff208a94" x="354.797855" y="190.3975" style="stroke: #000000; stroke-width: 0.8"/>
      </g>
     </g>
     <g id="text_16">
      <!-- 8 -->
      <g transform="translate(351.616605 204.995937)scale(0.1 -0.1)">
       <use xlink:href="#DejaVuSans-38"/>
      </g>
     </g>
    </g>
    <g id="xtick_12">
     <g id="line2d_28">
      <path d="M 424.517478 190.3975 
L 424.517478 139.92 
" clip-path="url(#pf93936571d)" style="fill: none; stroke: #b0b0b0; stroke-width: 0.8; stroke-linecap: square"/>
     </g>
     <g id="line2d_29">
      <g>
       <use xlink:href="#m99ff208a94" x="424.517478" y="190.3975" style="stroke: #000000; stroke-width: 0.8"/>
      </g>
     </g>
     <g id="text_17">
      <!-- 10 -->
      <g transform="translate(418.154978 204.995937)scale(0.1 -0.1)">
       <use xlink:href="#DejaVuSans-31"/>
       <use xlink:href="#DejaVuSans-30" x="63.623047"/>
      </g>
     </g>
    </g>
    <g id="text_18">
     <!-- $t$ [s] -->
     <g transform="translate(243.953 218.674062)scale(0.1 -0.1)">
      <use xlink:href="#DejaVuSans-Oblique-74" transform="translate(0 0.015625)"/>
      <use xlink:href="#DejaVuSans-20" transform="translate(39.208984 0.015625)"/>
      <use xlink:href="#DejaVuSans-5b" transform="translate(70.996094 0.015625)"/>
      <use xlink:href="#DejaVuSans-73" transform="translate(110.009766 0.015625)"/>
      <use xlink:href="#DejaVuSans-5d" transform="translate(162.109375 0.015625)"/>
     </g>
    </g>
   </g>
   <g id="matplotlib.axis_4">
    <g id="ytick_3">
     <g id="line2d_30">
      <path d="M 58.106 180.868287 
L 450 180.868287 
" clip-path="url(#pf93936571d)" style="fill: none; stroke: #b0b0b0; stroke-width: 0.8; stroke-linecap: square"/>
     </g>
     <g id="line2d_31">
      <g>
       <use xlink:href="#mbd299a4be8" x="58.106" y="180.868287" style="stroke: #000000; stroke-width: 0.8"/>
      </g>
     </g>
     <g id="text_19">
      <!-- −0.1 -->
      <g transform="translate(26.823188 184.667506)scale(0.1 -0.1)">
       <defs>
        <path id="DejaVuSans-2212" d="M 678 2272 
L 4684 2272 
L 4684 1741 
L 678 1741 
L 678 2272 
z
" transform="scale(0.015625)"/>
        <path id="DejaVuSans-2e" d="M 684 794 
L 1344 794 
L 1344 0 
L 684 0 
L 684 794 
z
" transform="scale(0.015625)"/>
       </defs>
       <use xlink:href="#DejaVuSans-2212"/>
       <use xlink:href="#DejaVuSans-30" x="83.789062"/>
       <use xlink:href="#DejaVuSans-2e" x="147.412109"/>
       <use xlink:href="#DejaVuSans-31" x="179.199219"/>
      </g>
     </g>
    </g>
    <g id="ytick_4">
     <g id="line2d_32">
      <path d="M 58.106 165.828492 
L 450 165.828492 
" clip-path="url(#pf93936571d)" style="fill: none; stroke: #b0b0b0; stroke-width: 0.8; stroke-linecap: square"/>
     </g>
     <g id="line2d_33">
      <g>
       <use xlink:href="#mbd299a4be8" x="58.106" y="165.828492" style="stroke: #000000; stroke-width: 0.8"/>
      </g>
     </g>
     <g id="text_20">
      <!-- 0.0 -->
      <g transform="translate(35.202875 169.62771)scale(0.1 -0.1)">
       <use xlink:href="#DejaVuSans-30"/>
       <use xlink:href="#DejaVuSans-2e" x="63.623047"/>
       <use xlink:href="#DejaVuSans-30" x="95.410156"/>
      </g>
     </g>
    </g>
    <g id="ytick_5">
     <g id="line2d_34">
      <path d="M 58.106 150.788696 
L 450 150.788696 
" clip-path="url(#pf93936571d)" style="fill: none; stroke: #b0b0b0; stroke-width: 0.8; stroke-linecap: square"/>
     </g>
     <g id="line2d_35">
      <g>
       <use xlink:href="#mbd299a4be8" x="58.106" y="150.788696" style="stroke: #000000; stroke-width: 0.8"/>
      </g>
     </g>
     <g id="text_21">
      <!-- 0.1 -->
      <g transform="translate(35.202875 154.587915)scale(0.1 -0.1)">
       <use xlink:href="#DejaVuSans-30"/>
       <use xlink:href="#DejaVuSans-2e" x="63.623047"/>
       <use xlink:href="#DejaVuSans-31" x="95.410156"/>
      </g>
     </g>
    </g>
    <g id="text_22">
     <!-- $e_z$ [m] -->
     <g transform="translate(20.7435 180.60875)rotate(-90)scale(0.1 -0.1)">
      <defs>
       <path id="DejaVuSans-Oblique-7a" d="M 744 3500 
L 3475 3500 
L 3372 2975 
L 738 459 
L 2913 459 
L 2822 0 
L -19 0 
L 84 525 
L 2719 3041 
L 653 3041 
L 744 3500 
z
" transform="scale(0.015625)"/>
      </defs>
      <use xlink:href="#DejaVuSans-Oblique-65" transform="translate(0 0.015625)"/>
      <use xlink:href="#DejaVuSans-Oblique-7a" transform="translate(61.523438 -16.390625)scale(0.7)"/>
      <use xlink:href="#DejaVuSans-20" transform="translate(101.000977 0.015625)"/>
      <use xlink:href="#DejaVuSans-5b" transform="translate(132.788086 0.015625)"/>
      <use xlink:href="#DejaVuSans-6d" transform="translate(171.801758 0.015625)"/>
      <use xlink:href="#DejaVuSans-5d" transform="translate(269.213867 0.015625)"/>
     </g>
    </g>
   </g>
   <g id="line2d_36">
    <path d="M 75.919364 167.254701 
L 77.664061 166.380343 
L 78.013001 166.035589 
L 80.106638 165.128041 
L 81.153457 165.115013 
L 81.851336 165.236185 
L 82.549215 165.395405 
L 83.596034 165.394653 
L 84.293913 165.305744 
L 86.38755 164.159413 
L 86.736489 163.705206 
L 87.434369 163.121592 
L 87.783308 162.793738 
L 88.481187 162.496924 
L 88.830127 162.148143 
L 89.528006 161.753012 
L 89.876945 161.505903 
L 90.574824 161.231807 
L 90.923764 160.800461 
L 91.621643 160.275852 
L 91.970583 159.815008 
L 92.319522 159.109791 
L 92.668462 159.109791 
L 93.017401 158.323489 
L 93.366341 157.916757 
L 94.06422 156.69938 
L 94.413159 156.500521 
L 94.762099 156.110816 
L 95.459978 154.897684 
L 95.808918 154.482747 
L 96.506797 154.141009 
L 97.902555 153.462907 
L 99.298313 153.462988 
L 100.694071 153.791955 
L 101.74089 154.119825 
L 102.438769 154.392101 
L 104.183467 154.675367 
L 105.230285 154.580189 
L 105.579225 154.421759 
L 105.928164 154.421759 
L 106.277104 154.032203 
L 106.974983 153.769671 
L 107.323922 153.571503 
L 107.672862 153.127538 
L 108.021802 152.88608 
L 108.719681 152.10441 
L 109.06862 151.967787 
L 109.41756 151.692413 
L 109.766499 151.144159 
L 110.464378 150.503676 
L 110.813318 150.16451 
L 111.511197 149.867695 
L 111.860136 149.544656 
L 116.396351 147.706984 
L 117.09423 147.268195 
L 117.792109 147.059496 
L 118.489988 146.676746 
L 119.187867 146.337667 
L 119.885746 146.180359 
L 120.583625 145.895428 
L 123.375141 144.728449 
L 123.724081 144.380936 
L 124.07302 144.380936 
L 124.42196 143.99758 
L 125.468779 143.315397 
L 125.817718 142.949944 
L 127.213476 142.362757 
L 127.911355 142.214432 
L 128.958174 142.268344 
L 129.656053 142.4493 
L 130.004993 142.671678 
L 130.353932 142.671678 
L 131.051811 143.125187 
L 131.74969 143.610978 
L 132.09863 144.06817 
L 132.447569 144.06817 
L 132.796509 144.577941 
L 133.494388 145.129546 
L 134.890146 146.731973 
L 135.936965 147.697702 
L 136.285904 148.201179 
L 136.634844 148.201179 
L 136.983784 148.661064 
L 137.681663 149.171437 
L 138.030602 149.447914 
L 138.728481 149.706574 
L 139.077421 150.031882 
L 139.7753 150.430056 
L 140.124239 150.675501 
L 140.822119 150.93132 
L 141.868937 151.902303 
L 142.566816 152.230212 
L 142.915756 152.456359 
L 143.264695 152.92084 
L 143.962574 153.507021 
L 144.660453 154.186534 
L 145.009393 154.186534 
L 145.358333 154.608669 
L 146.405151 155.266309 
L 146.754091 155.595136 
L 150.941365 157.463733 
L 151.639244 157.862332 
L 152.686063 158.259038 
L 153.035002 158.580231 
L 153.383942 158.580231 
L 154.081821 158.942161 
L 155.12864 159.379182 
L 156.175458 159.742723 
L 156.873337 159.95873 
L 158.618035 161.022167 
L 158.966975 161.022167 
L 159.315914 161.412578 
L 160.013793 161.851518 
L 161.758491 163.529388 
L 162.45637 164.097446 
L 163.852128 165.774764 
L 164.550007 166.424367 
L 164.898947 167.259928 
L 165.247886 167.259928 
L 165.596826 167.94426 
L 166.643645 168.990097 
L 167.690463 170.548025 
L 168.737282 171.540502 
L 169.086221 172.326749 
L 169.435161 172.326749 
L 169.784101 172.928602 
L 171.528798 174.485319 
L 171.877738 175.032425 
L 173.622435 176.51077 
L 173.971375 177.044185 
L 175.716073 178.483865 
L 176.065012 178.984889 
L 177.111831 179.685536 
L 177.46077 180.10493 
L 177.80971 180.10493 
L 178.15865 180.636619 
L 179.205468 180.970068 
L 179.554408 181.154125 
L 179.903347 181.154125 
L 180.252287 181.288771 
L 181.996985 181.229233 
L 183.043803 181.184887 
L 184.090622 181.352428 
L 184.788501 181.687269 
L 185.835319 182.20478 
L 186.184259 182.485711 
L 187.580017 182.855597 
L 188.277896 182.908777 
L 190.022594 182.535045 
L 191.767292 181.87063 
L 192.81411 181.825549 
L 193.511989 181.966056 
L 194.209868 182.315475 
L 195.256687 182.803239 
L 195.605627 183.039358 
L 195.954566 183.039358 
L 196.652445 183.260686 
L 197.699264 183.271677 
L 201.886538 182.088704 
L 202.933357 182.138676 
L 203.980176 182.413446 
L 205.724873 183.31758 
L 207.120632 183.758015 
L 208.16745 183.760426 
L 211.656846 183.229817 
L 212.354725 183.279904 
L 212.703664 183.381435 
L 213.750483 183.916514 
L 214.099422 184.103442 
L 214.448362 184.622731 
L 214.797301 184.622731 
L 215.146241 185.046572 
L 216.541999 185.92374 
L 216.890939 185.92374 
L 217.239878 186.232067 
L 219.682455 186.372976 
L 221.776092 186.389264 
L 222.822911 186.597208 
L 224.567609 187.021283 
L 225.265488 187.211008 
L 226.312306 187.306786 
L 227.359125 187.227635 
L 228.057004 187.103265 
L 228.405944 186.978473 
L 228.754883 186.978473 
L 229.452762 186.799185 
L 230.499581 186.679156 
L 231.5464 186.710639 
L 232.244279 186.869952 
L 235.035795 187.224096 
L 236.431553 186.937071 
L 236.780493 186.819639 
L 237.129432 186.819639 
L 237.827311 186.621057 
L 239.572009 186.456988 
L 240.618828 186.557883 
L 241.665646 186.795725 
L 244.457163 187.234728 
L 245.503981 187.174491 
L 247.248679 186.783809 
L 247.946558 186.68972 
L 249.342316 186.611609 
L 250.040195 186.688521 
L 251.435953 187.032293 
L 252.133833 187.304112 
L 253.87853 187.634828 
L 255.274288 187.4963 
L 257.716865 187.054471 
L 258.763684 187.180659 
L 259.461563 187.324986 
L 259.810502 187.499409 
L 260.159442 187.499409 
L 260.508382 187.761089 
L 261.5552 187.942511 
L 261.90414 188.065707 
L 263.997777 187.996416 
L 265.742475 187.637799 
L 267.138233 187.597822 
L 271.325507 187.6925 
L 274.117024 187.615238 
L 276.90854 187.930685 
L 277.955359 187.847002 
L 280.397935 187.170509 
L 281.095815 186.916988 
L 282.491573 186.715036 
L 283.887331 186.775978 
L 285.980968 186.963153 
L 287.376726 186.788634 
L 288.074605 186.526581 
L 288.772484 186.272844 
L 289.121424 186.069293 
L 289.470364 186.069293 
L 290.168243 185.758022 
L 292.610819 185.145068 
L 293.657638 185.198333 
L 296.449154 185.476053 
L 297.147033 185.394261 
L 297.495973 185.268479 
L 297.844913 185.268479 
L 299.58961 184.536596 
L 299.93855 184.536596 
L 300.636429 184.165418 
L 301.334308 183.850198 
L 302.032187 183.560072 
L 303.079006 183.416254 
L 304.474764 183.542305 
L 305.870522 183.731084 
L 306.917341 183.781536 
L 308.662038 183.343241 
L 309.708857 182.918274 
L 310.755676 182.451166 
L 311.802494 182.002457 
L 313.547192 181.431486 
L 314.594011 181.441067 
L 317.734466 182.335993 
L 318.781285 182.347854 
L 320.525983 181.78223 
L 320.874922 181.651044 
L 321.921741 180.976181 
L 322.61962 180.770231 
L 324.364318 180.109061 
L 325.411136 180.162203 
L 326.109015 180.345298 
L 326.806895 180.532623 
L 329.249471 181.094768 
L 329.94735 181.037595 
L 335.181444 179.14003 
L 336.228262 179.116599 
L 336.926141 179.313902 
L 337.62402 179.492415 
L 338.321899 179.789213 
L 339.019779 180.045745 
L 340.764476 180.164785 
L 342.160234 179.808368 
L 343.555993 179.453716 
L 344.253872 179.195673 
L 345.998569 178.89008 
L 347.045388 178.962037 
L 347.743267 179.162089 
L 348.790086 179.449804 
L 350.534783 179.784465 
L 351.581602 179.746877 
L 353.3263 179.347244 
L 354.024179 179.258 
L 356.815695 179.006617 
L 357.513574 179.096878 
L 358.560393 179.311715 
L 361.351909 179.6134 
L 363.096607 179.517321 
L 366.237063 179.175316 
L 367.632821 179.17581 
L 369.377519 179.566544 
L 372.866914 180.193807 
L 378.101007 180.628185 
L 381.939342 181.206272 
L 384.381919 181.55974 
L 385.777677 181.817875 
L 390.313891 182.132466 
L 392.058589 182.512673 
L 395.896924 184.035346 
L 396.943743 184.147169 
L 397.990561 184.076067 
L 400.084198 183.707522 
L 401.131017 183.702553 
L 404.271473 183.871052 
L 405.318292 183.608707 
L 406.016171 183.200099 
L 406.71405 182.759947 
L 407.062989 182.393919 
L 408.458747 181.788473 
L 409.854506 181.461484 
L 411.948143 181.318147 
L 412.646022 181.131998 
L 412.994962 180.930403 
L 413.692841 180.374067 
L 415.437538 179.193425 
L 416.484357 178.193657 
L 418.229055 177.320256 
L 419.973752 177.33305 
L 420.671631 177.382591 
L 421.369511 177.335716 
L 423.463148 176.532656 
L 423.812087 176.241825 
L 424.161027 176.241825 
L 424.509966 175.873655 
L 426.952543 175.648341 
L 427.999362 175.578397 
L 428.697241 175.369961 
L 429.39512 175.086577 
L 429.74406 174.906653 
L 430.092999 174.485308 
L 430.441939 174.485308 
L 430.790878 173.818185 
L 431.488757 173.532413 
L 432.186636 173.121643 
L 432.186636 173.121643 
" clip-path="url(#pf93936571d)" style="fill: none; stroke: #0000ff; stroke-width: 1.5; stroke-linecap: square"/>
   </g>
   <g id="patch_8">
    <path d="M 58.106 190.3975 
L 58.106 139.92 
" style="fill: none; stroke: #000000; stroke-width: 0.8; stroke-linejoin: miter; stroke-linecap: square"/>
   </g>
   <g id="patch_9">
    <path d="M 450 190.3975 
L 450 139.92 
" style="fill: none; stroke: #000000; stroke-width: 0.8; stroke-linejoin: miter; stroke-linecap: square"/>
   </g>
   <g id="patch_10">
    <path d="M 58.106 190.3975 
L 450 190.3975 
" style="fill: none; stroke: #000000; stroke-width: 0.8; stroke-linejoin: miter; stroke-linecap: square"/>
   </g>
   <g id="patch_11">
    <path d="M 58.106 139.92 
L 450 139.92 
" style="fill: none; stroke: #000000; stroke-width: 0.8; stroke-linejoin: miter; stroke-linecap: square"/>
   </g>
   <g id="text_23">
    <!-- Error in $z$-position -->
    <g transform="translate(200.773 133.92)scale(0.12 -0.12)">
     <use xlink:href="#DejaVuSans-45" transform="translate(0 0.015625)"/>
     <use xlink:href="#DejaVuSans-72" transform="translate(63.183594 0.015625)"/>
     <use xlink:href="#DejaVuSans-72" transform="translate(104.296875 0.015625)"/>
     <use xlink:href="#DejaVuSans-6f" transform="translate(145.410156 0.015625)"/>
     <use xlink:href="#DejaVuSans-72" transform="translate(206.591797 0.015625)"/>
     <use xlink:href="#DejaVuSans-20" transform="translate(247.705078 0.015625)"/>
     <use xlink:href="#DejaVuSans-69" transform="translate(279.492188 0.015625)"/>
     <use xlink:href="#DejaVuSans-6e" transform="translate(307.275391 0.015625)"/>
     <use xlink:href="#DejaVuSans-20" transform="translate(370.654297 0.015625)"/>
     <use xlink:href="#DejaVuSans-Oblique-7a" transform="translate(402.441406 0.015625)"/>
     <use xlink:href="#DejaVuSans-2d" transform="translate(454.931641 0.015625)"/>
     <use xlink:href="#DejaVuSans-70" transform="translate(491.015625 0.015625)"/>
     <use xlink:href="#DejaVuSans-6f" transform="translate(554.492188 0.015625)"/>
     <use xlink:href="#DejaVuSans-73" transform="translate(615.673828 0.015625)"/>
     <use xlink:href="#DejaVuSans-69" transform="translate(667.773438 0.015625)"/>
     <use xlink:href="#DejaVuSans-74" transform="translate(695.556641 0.015625)"/>
     <use xlink:href="#DejaVuSans-69" transform="translate(734.765625 0.015625)"/>
     <use xlink:href="#DejaVuSans-6f" transform="translate(762.548828 0.015625)"/>
     <use xlink:href="#DejaVuSans-6e" transform="translate(823.730469 0.015625)"/>
    </g>
   </g>
  </g>
  <g id="axes_3">
   <g id="patch_12">
    <path d="M 58.106 301.9975 
L 450 301.9975 
L 450 251.52 
L 58.106 251.52 
z
" style="fill: #ffffff"/>
   </g>
   <g id="matplotlib.axis_5">
    <g id="xtick_13">
     <g id="line2d_37">
      <path d="M 75.919364 301.9975 
L 75.919364 251.52 
" clip-path="url(#pb317e4a146)" style="fill: none; stroke: #b0b0b0; stroke-width: 0.8; stroke-linecap: square"/>
     </g>
     <g id="line2d_38">
      <g>
       <use xlink:href="#m99ff208a94" x="75.919364" y="301.9975" style="stroke: #000000; stroke-width: 0.8"/>
      </g>
     </g>
     <g id="text_24">
      <!-- 0 -->
      <g transform="translate(72.738114 316.595937)scale(0.1 -0.1)">
       <use xlink:href="#DejaVuSans-30"/>
      </g>
     </g>
    </g>
    <g id="xtick_14">
     <g id="line2d_39">
      <path d="M 145.638986 301.9975 
L 145.638986 251.52 
" clip-path="url(#pb317e4a146)" style="fill: none; stroke: #b0b0b0; stroke-width: 0.8; stroke-linecap: square"/>
     </g>
     <g id="line2d_40">
      <g>
       <use xlink:href="#m99ff208a94" x="145.638986" y="301.9975" style="stroke: #000000; stroke-width: 0.8"/>
      </g>
     </g>
     <g id="text_25">
      <!-- 2 -->
      <g transform="translate(142.457736 316.595937)scale(0.1 -0.1)">
       <use xlink:href="#DejaVuSans-32"/>
      </g>
     </g>
    </g>
    <g id="xtick_15">
     <g id="line2d_41">
      <path d="M 215.358609 301.9975 
L 215.358609 251.52 
" clip-path="url(#pb317e4a146)" style="fill: none; stroke: #b0b0b0; stroke-width: 0.8; stroke-linecap: square"/>
     </g>
     <g id="line2d_42">
      <g>
       <use xlink:href="#m99ff208a94" x="215.358609" y="301.9975" style="stroke: #000000; stroke-width: 0.8"/>
      </g>
     </g>
     <g id="text_26">
      <!-- 4 -->
      <g transform="translate(212.177359 316.595937)scale(0.1 -0.1)">
       <use xlink:href="#DejaVuSans-34"/>
      </g>
     </g>
    </g>
    <g id="xtick_16">
     <g id="line2d_43">
      <path d="M 285.078232 301.9975 
L 285.078232 251.52 
" clip-path="url(#pb317e4a146)" style="fill: none; stroke: #b0b0b0; stroke-width: 0.8; stroke-linecap: square"/>
     </g>
     <g id="line2d_44">
      <g>
       <use xlink:href="#m99ff208a94" x="285.078232" y="301.9975" style="stroke: #000000; stroke-width: 0.8"/>
      </g>
     </g>
     <g id="text_27">
      <!-- 6 -->
      <g transform="translate(281.896982 316.595937)scale(0.1 -0.1)">
       <use xlink:href="#DejaVuSans-36"/>
      </g>
     </g>
    </g>
    <g id="xtick_17">
     <g id="line2d_45">
      <path d="M 354.797855 301.9975 
L 354.797855 251.52 
" clip-path="url(#pb317e4a146)" style="fill: none; stroke: #b0b0b0; stroke-width: 0.8; stroke-linecap: square"/>
     </g>
     <g id="line2d_46">
      <g>
       <use xlink:href="#m99ff208a94" x="354.797855" y="301.9975" style="stroke: #000000; stroke-width: 0.8"/>
      </g>
     </g>
     <g id="text_28">
      <!-- 8 -->
      <g transform="translate(351.616605 316.595937)scale(0.1 -0.1)">
       <use xlink:href="#DejaVuSans-38"/>
      </g>
     </g>
    </g>
    <g id="xtick_18">
     <g id="line2d_47">
      <path d="M 424.517478 301.9975 
L 424.517478 251.52 
" clip-path="url(#pb317e4a146)" style="fill: none; stroke: #b0b0b0; stroke-width: 0.8; stroke-linecap: square"/>
     </g>
     <g id="line2d_48">
      <g>
       <use xlink:href="#m99ff208a94" x="424.517478" y="301.9975" style="stroke: #000000; stroke-width: 0.8"/>
      </g>
     </g>
     <g id="text_29">
      <!-- 10 -->
      <g transform="translate(418.154978 316.595937)scale(0.1 -0.1)">
       <use xlink:href="#DejaVuSans-31"/>
       <use xlink:href="#DejaVuSans-30" x="63.623047"/>
      </g>
     </g>
    </g>
    <g id="text_30">
     <!-- $t$ [s] -->
     <g transform="translate(243.953 330.274063)scale(0.1 -0.1)">
      <use xlink:href="#DejaVuSans-Oblique-74" transform="translate(0 0.015625)"/>
      <use xlink:href="#DejaVuSans-20" transform="translate(39.208984 0.015625)"/>
      <use xlink:href="#DejaVuSans-5b" transform="translate(70.996094 0.015625)"/>
      <use xlink:href="#DejaVuSans-73" transform="translate(110.009766 0.015625)"/>
      <use xlink:href="#DejaVuSans-5d" transform="translate(162.109375 0.015625)"/>
     </g>
    </g>
   </g>
   <g id="matplotlib.axis_6">
    <g id="ytick_6">
     <g id="line2d_49">
      <path d="M 58.106 296.591597 
L 450 296.591597 
" clip-path="url(#pb317e4a146)" style="fill: none; stroke: #b0b0b0; stroke-width: 0.8; stroke-linecap: square"/>
     </g>
     <g id="line2d_50">
      <g>
       <use xlink:href="#mbd299a4be8" x="58.106" y="296.591597" style="stroke: #000000; stroke-width: 0.8"/>
      </g>
     </g>
     <g id="text_31">
      <!-- −0.1 -->
      <g transform="translate(26.823188 300.390816)scale(0.1 -0.1)">
       <use xlink:href="#DejaVuSans-2212"/>
       <use xlink:href="#DejaVuSans-30" x="83.789062"/>
       <use xlink:href="#DejaVuSans-2e" x="147.412109"/>
       <use xlink:href="#DejaVuSans-31" x="179.199219"/>
      </g>
     </g>
    </g>
    <g id="ytick_7">
     <g id="line2d_51">
      <path d="M 58.106 280.275675 
L 450 280.275675 
" clip-path="url(#pb317e4a146)" style="fill: none; stroke: #b0b0b0; stroke-width: 0.8; stroke-linecap: square"/>
     </g>
     <g id="line2d_52">
      <g>
       <use xlink:href="#mbd299a4be8" x="58.106" y="280.275675" style="stroke: #000000; stroke-width: 0.8"/>
      </g>
     </g>
     <g id="text_32">
      <!-- 0.0 -->
      <g transform="translate(35.202875 284.074894)scale(0.1 -0.1)">
       <use xlink:href="#DejaVuSans-30"/>
       <use xlink:href="#DejaVuSans-2e" x="63.623047"/>
       <use xlink:href="#DejaVuSans-30" x="95.410156"/>
      </g>
     </g>
    </g>
    <g id="ytick_8">
     <g id="line2d_53">
      <path d="M 58.106 263.959753 
L 450 263.959753 
" clip-path="url(#pb317e4a146)" style="fill: none; stroke: #b0b0b0; stroke-width: 0.8; stroke-linecap: square"/>
     </g>
     <g id="line2d_54">
      <g>
       <use xlink:href="#mbd299a4be8" x="58.106" y="263.959753" style="stroke: #000000; stroke-width: 0.8"/>
      </g>
     </g>
     <g id="text_33">
      <!-- 0.1 -->
      <g transform="translate(35.202875 267.758972)scale(0.1 -0.1)">
       <use xlink:href="#DejaVuSans-30"/>
       <use xlink:href="#DejaVuSans-2e" x="63.623047"/>
       <use xlink:href="#DejaVuSans-31" x="95.410156"/>
      </g>
     </g>
    </g>
    <g id="text_34">
     <!-- $e_\theta$ [rad] -->
     <g transform="translate(20.7435 295.90875)rotate(-90)scale(0.1 -0.1)">
      <defs>
       <path id="DejaVuSans-Oblique-3b8" d="M 2913 2219 
L 925 2219 
Q 791 1284 928 888 
Q 1100 400 1566 400 
Q 2034 400 2391 891 
Q 2703 1322 2913 2219 
z
M 3009 2750 
Q 3094 3638 2984 3950 
Q 2813 4444 2353 4444 
Q 1875 4444 1525 3956 
Q 1250 3563 1034 2750 
L 3009 2750 
z
M 2444 4913 
Q 3194 4913 3494 4250 
Q 3794 3591 3566 2422 
Q 3341 1256 2781 594 
Q 2225 -72 1475 -72 
Q 722 -72 425 594 
Q 128 1256 353 2422 
Q 581 3591 1134 4250 
Q 1691 4913 2444 4913 
z
" transform="scale(0.015625)"/>
       <path id="DejaVuSans-61" d="M 2194 1759 
Q 1497 1759 1228 1600 
Q 959 1441 959 1056 
Q 959 750 1161 570 
Q 1363 391 1709 391 
Q 2188 391 2477 730 
Q 2766 1069 2766 1631 
L 2766 1759 
L 2194 1759 
z
M 3341 1997 
L 3341 0 
L 2766 0 
L 2766 531 
Q 2569 213 2275 61 
Q 1981 -91 1556 -91 
Q 1019 -91 701 211 
Q 384 513 384 1019 
Q 384 1609 779 1909 
Q 1175 2209 1959 2209 
L 2766 2209 
L 2766 2266 
Q 2766 2663 2505 2880 
Q 2244 3097 1772 3097 
Q 1472 3097 1187 3025 
Q 903 2953 641 2809 
L 641 3341 
Q 956 3463 1253 3523 
Q 1550 3584 1831 3584 
Q 2591 3584 2966 3190 
Q 3341 2797 3341 1997 
z
" transform="scale(0.015625)"/>
       <path id="DejaVuSans-64" d="M 2906 2969 
L 2906 4863 
L 3481 4863 
L 3481 0 
L 2906 0 
L 2906 525 
Q 2725 213 2448 61 
Q 2172 -91 1784 -91 
Q 1150 -91 751 415 
Q 353 922 353 1747 
Q 353 2572 751 3078 
Q 1150 3584 1784 3584 
Q 2172 3584 2448 3432 
Q 2725 3281 2906 2969 
z
M 947 1747 
Q 947 1113 1208 752 
Q 1469 391 1925 391 
Q 2381 391 2643 752 
Q 2906 1113 2906 1747 
Q 2906 2381 2643 2742 
Q 2381 3103 1925 3103 
Q 1469 3103 1208 2742 
Q 947 2381 947 1747 
z
" transform="scale(0.015625)"/>
      </defs>
      <use xlink:href="#DejaVuSans-Oblique-65" transform="translate(0 0.015625)"/>
      <use xlink:href="#DejaVuSans-Oblique-3b8" transform="translate(61.523438 -16.390625)scale(0.7)"/>
      <use xlink:href="#DejaVuSans-20" transform="translate(107.084961 0.015625)"/>
      <use xlink:href="#DejaVuSans-5b" transform="translate(138.87207 0.015625)"/>
      <use xlink:href="#DejaVuSans-72" transform="translate(177.885742 0.015625)"/>
      <use xlink:href="#DejaVuSans-61" transform="translate(218.999023 0.015625)"/>
      <use xlink:href="#DejaVuSans-64" transform="translate(280.27832 0.015625)"/>
      <use xlink:href="#DejaVuSans-5d" transform="translate(343.754883 0.015625)"/>
     </g>
    </g>
   </g>
   <g id="line2d_55">
    <path d="M 75.919364 280.248676 
L 77.315122 278.462984 
L 77.664061 277.478873 
L 78.013001 275.483374 
L 79.05982 271.219544 
L 79.408759 269.703963 
L 80.106638 265.092174 
L 80.804517 263.32347 
L 81.153457 262.741558 
L 81.502396 262.393706 
L 81.851336 262.329371 
L 82.898154 264.688914 
L 83.596034 267.928338 
L 83.944973 268.519693 
L 84.293913 269.724708 
L 84.642852 272.191037 
L 84.991792 273.450578 
L 85.689671 277.559511 
L 86.03861 278.317877 
L 86.38755 279.917004 
L 86.736489 283.419518 
L 87.085429 285.276548 
L 87.783308 290.618554 
L 88.132248 291.373971 
L 88.481187 292.732129 
L 88.830127 294.793908 
L 89.528006 296.225092 
L 89.876945 296.611489 
L 90.574824 296.740201 
L 91.272703 296.578356 
L 91.621643 296.423945 
L 91.970583 296.092714 
L 92.319522 295.458495 
L 92.668462 295.458495 
L 93.366341 293.75419 
L 93.71528 292.197886 
L 94.06422 290.090842 
L 94.413159 289.268454 
L 94.762099 287.481181 
L 95.459978 280.6313 
L 95.808918 277.755535 
L 96.157857 276.837137 
L 96.855736 273.330847 
L 97.204676 270.307226 
L 97.553615 270.307226 
L 97.902555 266.854035 
L 98.251494 266.421581 
L 98.949373 265.041683 
L 99.647253 264.146316 
L 99.996192 263.945239 
L 100.694071 264.132474 
L 101.39195 264.659192 
L 101.74089 265.301827 
L 102.089829 266.536558 
L 102.787708 268.261723 
L 103.485587 270.519164 
L 103.834527 272.566449 
L 104.183467 275.709943 
L 105.230285 281.127053 
L 105.579225 285.015656 
L 105.928164 285.015656 
L 106.277104 290.71127 
L 106.626043 291.618568 
L 107.323922 294.977448 
L 107.672862 297.668254 
L 108.370741 299.557206 
L 108.719681 299.703068 
L 109.06862 299.58282 
L 109.41756 299.098951 
L 110.813318 291.422785 
L 111.162257 290.582616 
L 111.511197 288.89243 
L 111.860136 285.477678 
L 112.209076 283.77082 
L 112.906955 278.943149 
L 113.255895 278.189415 
L 113.604834 276.780799 
L 113.953774 274.457466 
L 114.651653 272.849694 
L 115.000592 272.789163 
L 115.349532 272.923847 
L 115.698471 273.401245 
L 116.047411 275.018296 
L 116.396351 276.052926 
L 117.09423 279.377652 
L 117.443169 279.920436 
L 117.792109 280.951282 
L 118.141048 282.737968 
L 119.187867 284.95462 
L 119.885746 285.254471 
L 120.234686 285.135894 
L 120.583625 284.856112 
L 120.932565 284.16097 
L 121.281504 283.157945 
L 121.630444 282.760921 
L 121.979383 281.881668 
L 122.328323 279.836419 
L 123.026202 277.493621 
L 123.375141 275.639477 
L 123.724081 273.11556 
L 124.07302 273.11556 
L 124.42196 270.599299 
L 125.119839 268.137232 
L 126.166658 263.107705 
L 127.911355 258.459951 
L 128.260295 258.459951 
L 128.609235 258.028241 
L 128.958174 258.040325 
L 129.307114 258.209023 
L 129.656053 258.769477 
L 130.004993 260.030855 
L 130.353932 260.030855 
L 130.702872 261.722049 
L 131.400751 263.550883 
L 132.09863 266.40931 
L 132.447569 266.40931 
L 132.796509 267.690002 
L 133.843328 269.436877 
L 134.192267 270.177636 
L 135.936965 271.825684 
L 136.285904 272.435314 
L 136.634844 272.435314 
L 136.983784 273.088078 
L 137.332723 273.428087 
L 138.030602 274.391906 
L 138.728481 274.761802 
L 139.077421 275.117031 
L 140.473179 275.526078 
L 140.822119 275.610229 
L 141.519998 276.08916 
L 141.868937 276.449621 
L 142.217877 276.59631 
L 142.915756 277.320648 
L 143.264695 278.268578 
L 143.613635 278.836128 
L 144.660453 281.9677 
L 145.009393 281.9677 
L 145.358333 283.496144 
L 146.405151 285.984625 
L 146.754091 287.136003 
L 147.800909 288.463796 
L 148.498788 289.041654 
L 148.847728 289.271052 
L 149.545607 289.336624 
L 150.592426 289.077988 
L 150.941365 288.835201 
L 151.639244 288.008512 
L 152.337123 287.136349 
L 152.686063 286.57819 
L 153.035002 284.821797 
L 153.383942 284.821797 
L 153.732882 283.046408 
L 154.7797 279.925034 
L 155.12864 277.945363 
L 155.826519 275.490188 
L 156.175458 275.132953 
L 156.873337 273.835319 
L 157.222277 272.769902 
L 157.571217 272.288979 
L 158.618035 269.884528 
L 158.966975 269.884528 
L 159.315914 268.510923 
L 160.013793 266.893072 
L 160.362733 265.524983 
L 160.711672 263.533264 
L 162.45637 258.100044 
L 163.154249 255.286374 
L 163.852128 254.320083 
L 164.550007 253.814432 
L 165.247886 253.835793 
L 165.945766 254.530866 
L 166.643645 255.180101 
L 166.992584 255.706578 
L 167.341524 256.441982 
L 168.737282 257.954978 
L 169.086221 258.923203 
L 169.435161 258.923203 
L 169.784101 259.725029 
L 171.179859 261.470968 
L 172.575617 263.96344 
L 173.273496 264.934882 
L 174.320315 266.863801 
L 176.413952 268.992097 
L 177.111831 269.379937 
L 177.46077 269.784795 
L 177.80971 269.784795 
L 178.15865 270.496661 
L 178.507589 270.638833 
L 179.205468 271.293066 
L 179.554408 272.062756 
L 179.903347 272.062756 
L 180.252287 273.346848 
L 180.601226 273.564634 
L 181.648045 274.681214 
L 181.996985 274.9594 
L 182.345924 274.983843 
L 183.043803 274.739761 
L 184.439561 273.972213 
L 185.13744 274.182112 
L 185.48638 274.457045 
L 185.835319 275.144801 
L 186.533199 277.714685 
L 187.231078 280.297874 
L 187.928957 283.372389 
L 188.975775 290.449885 
L 189.673654 292.757058 
L 190.371534 294.015777 
L 190.720473 293.403548 
L 191.069413 293.034885 
L 191.418352 291.499512 
L 191.767292 288.674265 
L 193.16305 281.967253 
L 193.860929 276.818608 
L 194.558808 274.891862 
L 194.907748 274.304498 
L 195.256687 273.998275 
L 195.605627 274.7299 
L 195.954566 274.7299 
L 196.652445 277.946522 
L 197.350324 280.971268 
L 198.397143 287.932656 
L 199.095022 289.94135 
L 199.443962 290.534227 
L 199.792901 289.921049 
L 200.141841 289.921049 
L 200.83972 286.255856 
L 201.188659 284.486154 
L 201.537599 281.5074 
L 201.886538 277.255867 
L 203.631236 267.13069 
L 204.678055 262.501582 
L 205.026994 262.437556 
L 205.375934 262.720297 
L 205.724873 263.326086 
L 206.073813 264.228739 
L 206.422752 266.027753 
L 206.771692 268.993054 
L 207.818511 273.926629 
L 208.51639 278.579186 
L 208.865329 279.229315 
L 209.214269 279.493702 
L 209.563208 279.380316 
L 209.912148 278.889839 
L 210.261087 278.044265 
L 210.610027 276.215633 
L 210.958967 273.026197 
L 212.354725 265.807324 
L 213.052604 260.324974 
L 213.750483 258.10733 
L 214.448362 256.834378 
L 214.797301 256.834378 
L 215.84412 260.516821 
L 216.19306 262.120422 
L 216.541999 265.833249 
L 216.890939 265.833249 
L 217.239878 271.831184 
L 217.588818 272.806068 
L 218.635636 279.045775 
L 218.984576 279.045775 
L 219.333516 280.310297 
L 219.682455 280.226146 
L 220.031395 279.842141 
L 220.380334 279.185807 
L 220.729274 277.16196 
L 221.078213 277.16196 
L 221.427153 273.090567 
L 221.776092 272.379392 
L 222.473971 269.648805 
L 222.822911 267.428994 
L 223.52079 265.871137 
L 223.86973 265.72107 
L 224.218669 265.809607 
L 224.567609 266.204059 
L 225.614427 271.112338 
L 225.963367 273.501414 
L 226.312306 274.341326 
L 226.661246 276.038356 
L 227.010185 279.268811 
L 228.405944 284.925873 
L 228.754883 284.925873 
L 229.103823 285.270479 
L 229.452762 285.069308 
L 229.801702 284.347767 
L 230.150641 283.154304 
L 230.499581 282.670411 
L 230.84852 281.604453 
L 231.19746 279.204061 
L 231.5464 279.204061 
L 231.895339 275.58552 
L 232.244279 275.027127 
L 233.291097 271.687612 
L 233.640037 271.687612 
L 233.988976 271.525531 
L 234.337916 271.731898 
L 234.686855 272.33142 
L 235.035795 273.167967 
L 235.384734 275.404932 
L 235.733674 276.72057 
L 236.780493 282.853507 
L 237.129432 282.853507 
L 237.478372 284.852866 
L 237.827311 285.499582 
L 238.176251 285.874389 
L 238.52519 285.90306 
L 238.87413 284.940585 
L 239.223069 284.940585 
L 239.572009 282.983407 
L 240.269888 280.291251 
L 240.618828 277.962341 
L 240.967767 274.666965 
L 241.316707 274.666965 
L 241.665646 271.395798 
L 242.712465 266.763245 
L 243.061404 265.795883 
L 243.410344 265.893745 
L 243.759284 266.350729 
L 244.108223 267.128481 
L 244.457163 268.1887 
L 244.806102 270.174386 
L 245.155042 273.23326 
L 245.503981 273.23326 
L 245.852921 276.369151 
L 246.899739 280.571135 
L 247.248679 281.384121 
L 247.597618 281.384121 
L 248.295498 280.201871 
L 248.644437 279.284743 
L 248.993377 277.537263 
L 249.342316 274.683784 
L 249.691256 274.683784 
L 250.040195 271.53492 
L 251.784893 263.224936 
L 252.133833 262.880206 
L 252.482772 262.878704 
L 252.831712 263.216326 
L 253.180651 263.877378 
L 253.529591 265.392385 
L 253.87853 268.183652 
L 256.321107 279.381489 
L 256.670047 279.641782 
L 257.018986 279.638146 
L 257.367926 279.408017 
L 257.716865 278.980113 
L 258.065805 277.989813 
L 258.414744 276.101486 
L 259.461563 272.311742 
L 259.810502 269.461288 
L 260.159442 269.461288 
L 260.508382 265.783993 
L 260.857321 265.348202 
L 261.206261 264.688193 
L 261.5552 264.366862 
L 261.90414 265.178083 
L 262.253079 265.178083 
L 262.602019 267.302837 
L 263.648837 271.959098 
L 263.997777 273.664794 
L 265.044596 280.444263 
L 265.742475 282.328502 
L 266.091414 283.144964 
L 266.440354 283.276727 
L 266.789293 282.91089 
L 267.138233 282.265603 
L 267.487172 281.359041 
L 267.836112 279.589499 
L 268.185051 276.631139 
L 269.58081 269.986525 
L 270.278689 266.154651 
L 270.627628 265.864772 
L 270.976568 265.963974 
L 271.325507 266.431987 
L 271.674447 267.225593 
L 272.023386 268.953211 
L 272.372326 271.952177 
L 273.768084 278.708967 
L 274.465963 283.055312 
L 274.814903 283.055312 
L 275.163842 284.024515 
L 275.512782 284.054573 
L 275.861721 283.527896 
L 276.210661 282.37267 
L 276.5596 280.677333 
L 276.90854 280.677333 
L 277.25748 277.833872 
L 277.606419 276.288094 
L 278.653238 269.887376 
L 279.002177 269.887376 
L 279.351117 268.240816 
L 279.700056 267.892814 
L 280.048996 267.904964 
L 280.397935 268.586058 
L 281.095815 271.961892 
L 282.142633 276.89156 
L 283.189452 284.264571 
L 283.887331 286.573607 
L 284.23627 287.294243 
L 284.58521 287.651083 
L 285.283089 285.713291 
L 285.980968 282.825529 
L 287.027787 274.153157 
L 287.376726 274.153157 
L 287.725666 270.197397 
L 289.121424 263.338565 
L 289.470364 263.338565 
L 289.819303 263.546854 
L 290.168243 264.207374 
L 290.517182 265.203554 
L 290.866122 267.215678 
L 291.215061 270.65157 
L 291.564001 270.65157 
L 291.91294 274.560103 
L 292.610819 278.619011 
L 293.308699 284.583368 
L 294.006578 286.535766 
L 294.355517 286.975104 
L 294.704457 287.038949 
L 295.053396 286.402599 
L 295.751275 282.801799 
L 296.798094 277.170556 
L 297.147033 274.058344 
L 297.495973 269.92579 
L 297.844913 269.92579 
L 298.193852 266.025148 
L 299.240671 260.634856 
L 299.58961 260.181063 
L 299.93855 260.181063 
L 300.636429 262.14195 
L 300.985368 263.52132 
L 301.334308 266.090804 
L 301.683248 270.081168 
L 302.730066 276.564225 
L 303.776885 285.213149 
L 304.125824 285.213149 
L 304.474764 287.716607 
L 304.823703 288.682166 
L 305.172643 288.738877 
L 305.521582 288.554077 
L 305.870522 287.887514 
L 306.219462 286.860496 
L 306.568401 283.943847 
L 306.917341 283.943847 
L 307.26628 278.188632 
L 307.61522 277.145867 
L 308.313099 272.938212 
L 309.010978 266.021354 
L 309.359917 263.641455 
L 309.708857 262.969319 
L 310.406736 261.085034 
L 310.755676 260.774929 
L 311.104615 261.638783 
L 311.453555 263.333375 
L 311.802494 264.05974 
L 312.500373 267.556727 
L 312.849313 272.709099 
L 313.198252 272.709099 
L 313.547192 277.010468 
L 314.594011 283.16721 
L 314.94295 286.463856 
L 315.29189 288.294699 
L 315.640829 289.445458 
L 316.338708 289.849904 
L 316.687648 289.674427 
L 317.385527 287.149279 
L 318.083406 282.344162 
L 318.432346 281.404426 
L 318.781285 279.457267 
L 319.130225 275.426049 
L 319.479164 275.426049 
L 319.828104 269.48737 
L 320.177043 268.586278 
L 321.223862 263.566997 
L 321.572801 263.144066 
L 322.270681 263.929338 
L 322.96856 266.050275 
L 323.317499 269.147096 
L 323.666439 270.93342 
L 324.364318 276.705121 
L 324.713257 277.67432 
L 325.062197 279.583886 
L 325.411136 283.062096 
L 326.457955 287.744051 
L 327.155834 288.466686 
L 327.504774 288.259315 
L 327.853713 288.259315 
L 328.202653 285.445081 
L 328.551592 284.729015 
L 329.598411 279.457219 
L 329.94735 276.47467 
L 330.29629 272.439835 
L 331.343109 266.841564 
L 332.389927 262.247778 
L 332.738867 262.241388 
L 333.087806 262.622486 
L 333.436746 263.362961 
L 334.483565 271.022806 
L 334.832504 272.011349 
L 335.530383 276.019528 
L 335.879323 279.930219 
L 336.228262 279.930219 
L 336.577202 284.771741 
L 336.926141 285.43697 
L 337.62402 287.524931 
L 337.97296 288.393893 
L 338.321899 288.280796 
L 338.670839 287.418691 
L 339.019779 285.81449 
L 339.368718 285.138739 
L 339.717658 283.61193 
L 340.066597 280.021708 
L 340.764476 276.094822 
L 341.462355 269.308601 
L 341.811295 269.308601 
L 342.160234 266.202181 
L 342.858114 264.206965 
L 343.207053 263.758913 
L 343.555993 263.832864 
L 345.30069 271.490804 
L 345.64963 273.427313 
L 346.696448 282.242278 
L 347.394328 285.674374 
L 347.743267 288.456185 
L 348.092207 289.735941 
L 348.441146 290.142917 
L 348.790086 290.077729 
L 349.139025 289.644677 
L 349.487965 288.828765 
L 349.836904 286.219945 
L 350.185844 284.538137 
L 351.232663 275.413027 
L 351.581602 275.413027 
L 351.930542 271.283251 
L 353.3263 263.450141 
L 353.675239 263.450141 
L 354.024179 263.059294 
L 354.373118 263.433487 
L 354.722058 264.170362 
L 355.070998 265.888053 
L 355.419937 269.080789 
L 355.768877 269.080789 
L 356.117816 272.889169 
L 357.164635 278.960153 
L 358.211453 286.700106 
L 358.909332 288.975816 
L 359.258272 289.651857 
L 359.956151 289.666363 
L 361.700849 281.201157 
L 362.049788 278.113677 
L 362.398728 273.996395 
L 363.445547 267.334284 
L 363.794486 264.38289 
L 364.143426 264.38289 
L 364.492365 262.710158 
L 364.841305 262.452029 
L 365.190244 262.585401 
L 365.539184 263.516857 
L 365.888123 265.972578 
L 366.934942 271.386413 
L 367.632821 275.566474 
L 367.981761 278.737605 
L 368.3307 282.930828 
L 370.075398 292.984262 
L 370.424337 292.984262 
L 370.773277 293.30745 
L 371.122216 292.806229 
L 371.471156 291.894146 
L 372.169035 289.036343 
L 372.517975 286.201748 
L 372.866914 281.883877 
L 373.913733 275.035909 
L 374.960551 265.834491 
L 375.658431 263.070635 
L 376.00737 262.152894 
L 376.35631 261.557846 
L 376.705249 261.557846 
L 378.101007 267.086244 
L 378.449947 270.770252 
L 378.798886 270.770252 
L 379.147826 276.752114 
L 379.496765 277.741306 
L 380.194645 281.596528 
L 380.543584 285.136074 
L 381.590403 290.24037 
L 382.288282 291.160238 
L 382.637221 291.209203 
L 382.986161 290.693726 
L 383.3351 289.277782 
L 384.03298 284.661367 
L 384.381919 284.661367 
L 384.730859 280.795702 
L 385.079798 278.800797 
L 385.777677 272.961199 
L 386.126617 272.067817 
L 386.475556 270.38277 
L 386.824496 267.473588 
L 387.522375 265.262203 
L 387.871314 264.843582 
L 388.220254 265.113043 
L 388.569194 265.113043 
L 389.964952 271.089164 
L 390.313891 274.243894 
L 391.709649 280.326848 
L 392.058589 281.662678 
L 392.756468 285.440486 
L 393.454347 286.849677 
L 394.152226 287.60392 
L 394.501166 287.207118 
L 394.850105 287.207118 
L 396.594803 280.685156 
L 396.943743 280.685156 
L 397.292682 278.944398 
L 398.339501 276.916149 
L 398.68844 276.345667 
L 399.386319 276.084792 
L 400.084198 276.055091 
L 400.433138 276.162887 
L 401.131017 276.654001 
L 402.177836 277.339479 
L 403.224654 278.247196 
L 403.922533 278.378033 
L 404.271473 278.338036 
L 404.620413 278.117018 
L 404.969352 277.502903 
L 405.318292 277.502903 
L 405.667231 276.564969 
L 406.36511 275.415289 
L 407.411929 272.918318 
L 408.109808 272.338676 
L 408.458747 272.260012 
L 408.807687 272.325925 
L 409.156627 272.656856 
L 409.505566 273.400906 
L 410.901324 275.075146 
L 411.250264 275.174827 
L 411.599203 274.962628 
L 411.948143 274.561647 
L 412.646022 273.224616 
L 412.994962 271.836881 
L 413.343901 269.65553 
L 414.39072 266.486311 
L 415.088599 265.027675 
L 415.437538 264.688391 
L 415.786478 264.731413 
L 417.182236 268.962039 
L 417.531176 271.674507 
L 417.880115 271.674507 
L 418.229055 276.114446 
L 418.577994 276.873616 
L 419.275873 279.877238 
L 419.624813 282.650305 
L 419.973752 282.650305 
L 420.322692 285.731517 
L 421.369511 286.689798 
L 422.06739 285.432045 
L 422.765269 282.208295 
L 423.114208 281.586776 
L 423.463148 280.390848 
L 423.812087 278.449573 
L 424.161027 278.449573 
L 424.509966 277.118879 
L 425.207846 277.050721 
L 425.556785 277.157254 
L 426.603604 278.969713 
L 426.952543 280.01594 
L 427.301483 280.408951 
L 427.650422 281.249397 
L 427.999362 283.087978 
L 428.348301 284.053852 
L 429.04618 286.84779 
L 429.39512 287.272881 
L 429.74406 288.04596 
L 430.092999 289.133744 
L 430.790878 289.147812 
L 431.139818 288.995532 
L 431.837697 288.111276 
L 432.186636 286.797149 
L 432.186636 286.797149 
" clip-path="url(#pb317e4a146)" style="fill: none; stroke: #008000; stroke-width: 1.5; stroke-linecap: square"/>
   </g>
   <g id="patch_13">
    <path d="M 58.106 301.9975 
L 58.106 251.52 
" style="fill: none; stroke: #000000; stroke-width: 0.8; stroke-linejoin: miter; stroke-linecap: square"/>
   </g>
   <g id="patch_14">
    <path d="M 450 301.9975 
L 450 251.52 
" style="fill: none; stroke: #000000; stroke-width: 0.8; stroke-linejoin: miter; stroke-linecap: square"/>
   </g>
   <g id="patch_15">
    <path d="M 58.106 301.9975 
L 450 301.9975 
" style="fill: none; stroke: #000000; stroke-width: 0.8; stroke-linejoin: miter; stroke-linecap: square"/>
   </g>
   <g id="patch_16">
    <path d="M 58.106 251.52 
L 450 251.52 
" style="fill: none; stroke: #000000; stroke-width: 0.8; stroke-linejoin: miter; stroke-linecap: square"/>
   </g>
   <g id="text_35">
    <!-- Error in swing angle -->
    <g transform="translate(194.282688 245.52)scale(0.12 -0.12)">
     <defs>
      <path id="DejaVuSans-77" d="M 269 3500 
L 844 3500 
L 1563 769 
L 2278 3500 
L 2956 3500 
L 3675 769 
L 4391 3500 
L 4966 3500 
L 4050 0 
L 3372 0 
L 2619 2869 
L 1863 0 
L 1184 0 
L 269 3500 
z
" transform="scale(0.015625)"/>
      <path id="DejaVuSans-67" d="M 2906 1791 
Q 2906 2416 2648 2759 
Q 2391 3103 1925 3103 
Q 1463 3103 1205 2759 
Q 947 2416 947 1791 
Q 947 1169 1205 825 
Q 1463 481 1925 481 
Q 2391 481 2648 825 
Q 2906 1169 2906 1791 
z
M 3481 434 
Q 3481 -459 3084 -895 
Q 2688 -1331 1869 -1331 
Q 1566 -1331 1297 -1286 
Q 1028 -1241 775 -1147 
L 775 -588 
Q 1028 -725 1275 -790 
Q 1522 -856 1778 -856 
Q 2344 -856 2625 -561 
Q 2906 -266 2906 331 
L 2906 616 
Q 2728 306 2450 153 
Q 2172 0 1784 0 
Q 1141 0 747 490 
Q 353 981 353 1791 
Q 353 2603 747 3093 
Q 1141 3584 1784 3584 
Q 2172 3584 2450 3431 
Q 2728 3278 2906 2969 
L 2906 3500 
L 3481 3500 
L 3481 434 
z
" transform="scale(0.015625)"/>
      <path id="DejaVuSans-6c" d="M 603 4863 
L 1178 4863 
L 1178 0 
L 603 0 
L 603 4863 
z
" transform="scale(0.015625)"/>
      <path id="DejaVuSans-65" d="M 3597 1894 
L 3597 1613 
L 953 1613 
Q 991 1019 1311 708 
Q 1631 397 2203 397 
Q 2534 397 2845 478 
Q 3156 559 3463 722 
L 3463 178 
Q 3153 47 2828 -22 
Q 2503 -91 2169 -91 
Q 1331 -91 842 396 
Q 353 884 353 1716 
Q 353 2575 817 3079 
Q 1281 3584 2069 3584 
Q 2775 3584 3186 3129 
Q 3597 2675 3597 1894 
z
M 3022 2063 
Q 3016 2534 2758 2815 
Q 2500 3097 2075 3097 
Q 1594 3097 1305 2825 
Q 1016 2553 972 2059 
L 3022 2063 
z
" transform="scale(0.015625)"/>
     </defs>
     <use xlink:href="#DejaVuSans-45"/>
     <use xlink:href="#DejaVuSans-72" x="63.183594"/>
     <use xlink:href="#DejaVuSans-72" x="102.546875"/>
     <use xlink:href="#DejaVuSans-6f" x="141.410156"/>
     <use xlink:href="#DejaVuSans-72" x="202.591797"/>
     <use xlink:href="#DejaVuSans-20" x="243.705078"/>
     <use xlink:href="#DejaVuSans-69" x="275.492188"/>
     <use xlink:href="#DejaVuSans-6e" x="303.275391"/>
     <use xlink:href="#DejaVuSans-20" x="366.654297"/>
     <use xlink:href="#DejaVuSans-73" x="398.441406"/>
     <use xlink:href="#DejaVuSans-77" x="450.541016"/>
     <use xlink:href="#DejaVuSans-69" x="532.328125"/>
     <use xlink:href="#DejaVuSans-6e" x="560.111328"/>
     <use xlink:href="#DejaVuSans-67" x="623.490234"/>
     <use xlink:href="#DejaVuSans-20" x="686.966797"/>
     <use xlink:href="#DejaVuSans-61" x="718.753906"/>
     <use xlink:href="#DejaVuSans-6e" x="780.033203"/>
     <use xlink:href="#DejaVuSans-67" x="843.412109"/>
     <use xlink:href="#DejaVuSans-6c" x="906.888672"/>
     <use xlink:href="#DejaVuSans-65" x="934.671875"/>
    </g>
   </g>
  </g>
 </g>
 <defs>
  <clipPath id="p57b7ae5cab">
   <rect x="58.106" y="28.32" width="391.894" height="50.4775"/>
  </clipPath>
  <clipPath id="pf93936571d">
   <rect x="58.106" y="139.92" width="391.894" height="50.4775"/>
  </clipPath>
  <clipPath id="pb317e4a146">
   <rect x="58.106" y="251.52" width="391.894" height="50.4775"/>
  </clipPath>
 </defs>
</svg>
