<?xml version="1.0" encoding="utf-8" standalone="no"?>
<!DOCTYPE svg PUBLIC "-//W3C//DTD SVG 1.1//EN"
  "http://www.w3.org/Graphics/SVG/1.1/DTD/svg11.dtd">
<svg xmlns:xlink="http://www.w3.org/1999/xlink" width="460.8pt" height="345.6pt" viewBox="0 0 460.8 345.6" xmlns="http://www.w3.org/2000/svg" version="1.1">
 <metadata>
  <rdf:RDF xmlns:dc="http://purl.org/dc/elements/1.1/" xmlns:cc="http://creativecommons.org/ns#" xmlns:rdf="http://www.w3.org/1999/02/22-rdf-syntax-ns#">
   <cc:Work>
    <dc:type rdf:resource="http://purl.org/dc/dcmitype/StillImage"/>
    <dc:date>2022-06-05T14:45:23.528892</dc:date>
    <dc:format>image/svg+xml</dc:format>
    <dc:creator>
     <cc:Agent>
      <dc:title>Matplotlib v3.5.1, https://matplotlib.org/</dc:title>
     </cc:Agent>
    </dc:creator>
   </cc:Work>
  </rdf:RDF>
 </metadata>
 <defs>
  <style type="text/css">*{stroke-linejoin: round; stroke-linecap: butt}</style>
 </defs>
 <g id="figure_1">
  <g id="patch_1">
   <path d="M 0 345.6 
L 460.8 345.6 
L 460.8 0 
L 0 0 
z
" style="fill: #ffffff"/>
  </g>
  <g id="axes_1">
   <g id="patch_2">
    <path d="M 58.106 78.7975 
L 450 78.7975 
L 450 28.32 
L 58.106 28.32 
z
" style="fill: #ffffff"/>
   </g>
   <g id="matplotlib.axis_1">
    <g id="xtick_1">
     <g id="line2d_1">
      <path d="M 75.919364 78.7975 
L 75.919364 28.32 
" clip-path="url(#pd70b541343)" style="fill: none; stroke: #b0b0b0; stroke-width: 0.8; stroke-linecap: square"/>
     </g>
     <g id="line2d_2">
      <defs>
       <path id="m0f83304a50" d="M 0 0 
L 0 3.5 
" style="stroke: #000000; stroke-width: 0.8"/>
      </defs>
      <g>
       <use xlink:href="#m0f83304a50" x="75.919364" y="78.7975" style="stroke: #000000; stroke-width: 0.8"/>
      </g>
     </g>
     <g id="text_1">
      <!-- 0 -->
      <g transform="translate(72.738114 93.395937)scale(0.1 -0.1)">
       <defs>
        <path id="DejaVuSans-30" d="M 2034 4250 
Q 1547 4250 1301 3770 
Q 1056 3291 1056 2328 
Q 1056 1369 1301 889 
Q 1547 409 2034 409 
Q 2525 409 2770 889 
Q 3016 1369 3016 2328 
Q 3016 3291 2770 3770 
Q 2525 4250 2034 4250 
z
M 2034 4750 
Q 2819 4750 3233 4129 
Q 3647 3509 3647 2328 
Q 3647 1150 3233 529 
Q 2819 -91 2034 -91 
Q 1250 -91 836 529 
Q 422 1150 422 2328 
Q 422 3509 836 4129 
Q 1250 4750 2034 4750 
z
" transform="scale(0.015625)"/>
       </defs>
       <use xlink:href="#DejaVuSans-30"/>
      </g>
     </g>
    </g>
    <g id="xtick_2">
     <g id="line2d_3">
      <path d="M 135.645646 78.7975 
L 135.645646 28.32 
" clip-path="url(#pd70b541343)" style="fill: none; stroke: #b0b0b0; stroke-width: 0.8; stroke-linecap: square"/>
     </g>
     <g id="line2d_4">
      <g>
       <use xlink:href="#m0f83304a50" x="135.645646" y="78.7975" style="stroke: #000000; stroke-width: 0.8"/>
      </g>
     </g>
     <g id="text_2">
      <!-- 2 -->
      <g transform="translate(132.464396 93.395937)scale(0.1 -0.1)">
       <defs>
        <path id="DejaVuSans-32" d="M 1228 531 
L 3431 531 
L 3431 0 
L 469 0 
L 469 531 
Q 828 903 1448 1529 
Q 2069 2156 2228 2338 
Q 2531 2678 2651 2914 
Q 2772 3150 2772 3378 
Q 2772 3750 2511 3984 
Q 2250 4219 1831 4219 
Q 1534 4219 1204 4116 
Q 875 4013 500 3803 
L 500 4441 
Q 881 4594 1212 4672 
Q 1544 4750 1819 4750 
Q 2544 4750 2975 4387 
Q 3406 4025 3406 3419 
Q 3406 3131 3298 2873 
Q 3191 2616 2906 2266 
Q 2828 2175 2409 1742 
Q 1991 1309 1228 531 
z
" transform="scale(0.015625)"/>
       </defs>
       <use xlink:href="#DejaVuSans-32"/>
      </g>
     </g>
    </g>
    <g id="xtick_3">
     <g id="line2d_5">
      <path d="M 195.371928 78.7975 
L 195.371928 28.32 
" clip-path="url(#pd70b541343)" style="fill: none; stroke: #b0b0b0; stroke-width: 0.8; stroke-linecap: square"/>
     </g>
     <g id="line2d_6">
      <g>
       <use xlink:href="#m0f83304a50" x="195.371928" y="78.7975" style="stroke: #000000; stroke-width: 0.8"/>
      </g>
     </g>
     <g id="text_3">
      <!-- 4 -->
      <g transform="translate(192.190678 93.395937)scale(0.1 -0.1)">
       <defs>
        <path id="DejaVuSans-34" d="M 2419 4116 
L 825 1625 
L 2419 1625 
L 2419 4116 
z
M 2253 4666 
L 3047 4666 
L 3047 1625 
L 3713 1625 
L 3713 1100 
L 3047 1100 
L 3047 0 
L 2419 0 
L 2419 1100 
L 313 1100 
L 313 1709 
L 2253 4666 
z
" transform="scale(0.015625)"/>
       </defs>
       <use xlink:href="#DejaVuSans-34"/>
      </g>
     </g>
    </g>
    <g id="xtick_4">
     <g id="line2d_7">
      <path d="M 255.09821 78.7975 
L 255.09821 28.32 
" clip-path="url(#pd70b541343)" style="fill: none; stroke: #b0b0b0; stroke-width: 0.8; stroke-linecap: square"/>
     </g>
     <g id="line2d_8">
      <g>
       <use xlink:href="#m0f83304a50" x="255.09821" y="78.7975" style="stroke: #000000; stroke-width: 0.8"/>
      </g>
     </g>
     <g id="text_4">
      <!-- 6 -->
      <g transform="translate(251.91696 93.395937)scale(0.1 -0.1)">
       <defs>
        <path id="DejaVuSans-36" d="M 2113 2584 
Q 1688 2584 1439 2293 
Q 1191 2003 1191 1497 
Q 1191 994 1439 701 
Q 1688 409 2113 409 
Q 2538 409 2786 701 
Q 3034 994 3034 1497 
Q 3034 2003 2786 2293 
Q 2538 2584 2113 2584 
z
M 3366 4563 
L 3366 3988 
Q 3128 4100 2886 4159 
Q 2644 4219 2406 4219 
Q 1781 4219 1451 3797 
Q 1122 3375 1075 2522 
Q 1259 2794 1537 2939 
Q 1816 3084 2150 3084 
Q 2853 3084 3261 2657 
Q 3669 2231 3669 1497 
Q 3669 778 3244 343 
Q 2819 -91 2113 -91 
Q 1303 -91 875 529 
Q 447 1150 447 2328 
Q 447 3434 972 4092 
Q 1497 4750 2381 4750 
Q 2619 4750 2861 4703 
Q 3103 4656 3366 4563 
z
" transform="scale(0.015625)"/>
       </defs>
       <use xlink:href="#DejaVuSans-36"/>
      </g>
     </g>
    </g>
    <g id="xtick_5">
     <g id="line2d_9">
      <path d="M 314.824492 78.7975 
L 314.824492 28.32 
" clip-path="url(#pd70b541343)" style="fill: none; stroke: #b0b0b0; stroke-width: 0.8; stroke-linecap: square"/>
     </g>
     <g id="line2d_10">
      <g>
       <use xlink:href="#m0f83304a50" x="314.824492" y="78.7975" style="stroke: #000000; stroke-width: 0.8"/>
      </g>
     </g>
     <g id="text_5">
      <!-- 8 -->
      <g transform="translate(311.643242 93.395937)scale(0.1 -0.1)">
       <defs>
        <path id="DejaVuSans-38" d="M 2034 2216 
Q 1584 2216 1326 1975 
Q 1069 1734 1069 1313 
Q 1069 891 1326 650 
Q 1584 409 2034 409 
Q 2484 409 2743 651 
Q 3003 894 3003 1313 
Q 3003 1734 2745 1975 
Q 2488 2216 2034 2216 
z
M 1403 2484 
Q 997 2584 770 2862 
Q 544 3141 544 3541 
Q 544 4100 942 4425 
Q 1341 4750 2034 4750 
Q 2731 4750 3128 4425 
Q 3525 4100 3525 3541 
Q 3525 3141 3298 2862 
Q 3072 2584 2669 2484 
Q 3125 2378 3379 2068 
Q 3634 1759 3634 1313 
Q 3634 634 3220 271 
Q 2806 -91 2034 -91 
Q 1263 -91 848 271 
Q 434 634 434 1313 
Q 434 1759 690 2068 
Q 947 2378 1403 2484 
z
M 1172 3481 
Q 1172 3119 1398 2916 
Q 1625 2713 2034 2713 
Q 2441 2713 2670 2916 
Q 2900 3119 2900 3481 
Q 2900 3844 2670 4047 
Q 2441 4250 2034 4250 
Q 1625 4250 1398 4047 
Q 1172 3844 1172 3481 
z
" transform="scale(0.015625)"/>
       </defs>
       <use xlink:href="#DejaVuSans-38"/>
      </g>
     </g>
    </g>
    <g id="xtick_6">
     <g id="line2d_11">
      <path d="M 374.550774 78.7975 
L 374.550774 28.32 
" clip-path="url(#pd70b541343)" style="fill: none; stroke: #b0b0b0; stroke-width: 0.8; stroke-linecap: square"/>
     </g>
     <g id="line2d_12">
      <g>
       <use xlink:href="#m0f83304a50" x="374.550774" y="78.7975" style="stroke: #000000; stroke-width: 0.8"/>
      </g>
     </g>
     <g id="text_6">
      <!-- 10 -->
      <g transform="translate(368.188274 93.395937)scale(0.1 -0.1)">
       <defs>
        <path id="DejaVuSans-31" d="M 794 531 
L 1825 531 
L 1825 4091 
L 703 3866 
L 703 4441 
L 1819 4666 
L 2450 4666 
L 2450 531 
L 3481 531 
L 3481 0 
L 794 0 
L 794 531 
z
" transform="scale(0.015625)"/>
       </defs>
       <use xlink:href="#DejaVuSans-31"/>
       <use xlink:href="#DejaVuSans-30" x="63.623047"/>
      </g>
     </g>
    </g>
    <g id="xtick_7">
     <g id="line2d_13">
      <path d="M 434.277056 78.7975 
L 434.277056 28.32 
" clip-path="url(#pd70b541343)" style="fill: none; stroke: #b0b0b0; stroke-width: 0.8; stroke-linecap: square"/>
     </g>
     <g id="line2d_14">
      <g>
       <use xlink:href="#m0f83304a50" x="434.277056" y="78.7975" style="stroke: #000000; stroke-width: 0.8"/>
      </g>
     </g>
     <g id="text_7">
      <!-- 12 -->
      <g transform="translate(427.914556 93.395937)scale(0.1 -0.1)">
       <use xlink:href="#DejaVuSans-31"/>
       <use xlink:href="#DejaVuSans-32" x="63.623047"/>
      </g>
     </g>
    </g>
    <g id="text_8">
     <!-- $t$ [s] -->
     <g transform="translate(243.953 107.074062)scale(0.1 -0.1)">
      <defs>
       <path id="DejaVuSans-Oblique-74" d="M 2706 3500 
L 2619 3053 
L 1472 3053 
L 1100 1153 
Q 1081 1047 1072 975 
Q 1063 903 1063 863 
Q 1063 663 1183 572 
Q 1303 481 1569 481 
L 2150 481 
L 2053 0 
L 1503 0 
Q 991 0 739 200 
Q 488 400 488 806 
Q 488 878 497 964 
Q 506 1050 525 1153 
L 897 3053 
L 409 3053 
L 500 3500 
L 978 3500 
L 1172 4494 
L 1747 4494 
L 1556 3500 
L 2706 3500 
z
" transform="scale(0.015625)"/>
       <path id="DejaVuSans-20" transform="scale(0.015625)"/>
       <path id="DejaVuSans-5b" d="M 550 4863 
L 1875 4863 
L 1875 4416 
L 1125 4416 
L 1125 -397 
L 1875 -397 
L 1875 -844 
L 550 -844 
L 550 4863 
z
" transform="scale(0.015625)"/>
       <path id="DejaVuSans-73" d="M 2834 3397 
L 2834 2853 
Q 2591 2978 2328 3040 
Q 2066 3103 1784 3103 
Q 1356 3103 1142 2972 
Q 928 2841 928 2578 
Q 928 2378 1081 2264 
Q 1234 2150 1697 2047 
L 1894 2003 
Q 2506 1872 2764 1633 
Q 3022 1394 3022 966 
Q 3022 478 2636 193 
Q 2250 -91 1575 -91 
Q 1294 -91 989 -36 
Q 684 19 347 128 
L 347 722 
Q 666 556 975 473 
Q 1284 391 1588 391 
Q 1994 391 2212 530 
Q 2431 669 2431 922 
Q 2431 1156 2273 1281 
Q 2116 1406 1581 1522 
L 1381 1569 
Q 847 1681 609 1914 
Q 372 2147 372 2553 
Q 372 3047 722 3315 
Q 1072 3584 1716 3584 
Q 2034 3584 2315 3537 
Q 2597 3491 2834 3397 
z
" transform="scale(0.015625)"/>
       <path id="DejaVuSans-5d" d="M 1947 4863 
L 1947 -844 
L 622 -844 
L 622 -397 
L 1369 -397 
L 1369 4416 
L 622 4416 
L 622 4863 
L 1947 4863 
z
" transform="scale(0.015625)"/>
      </defs>
      <use xlink:href="#DejaVuSans-Oblique-74" transform="translate(0 0.015625)"/>
      <use xlink:href="#DejaVuSans-20" transform="translate(39.208984 0.015625)"/>
      <use xlink:href="#DejaVuSans-5b" transform="translate(70.996094 0.015625)"/>
      <use xlink:href="#DejaVuSans-73" transform="translate(110.009766 0.015625)"/>
      <use xlink:href="#DejaVuSans-5d" transform="translate(162.109375 0.015625)"/>
     </g>
    </g>
   </g>
   <g id="matplotlib.axis_2">
    <g id="ytick_1">
     <g id="line2d_15">
      <path d="M 58.106 76.371442 
L 450 76.371442 
" clip-path="url(#pd70b541343)" style="fill: none; stroke: #b0b0b0; stroke-width: 0.8; stroke-linecap: square"/>
     </g>
     <g id="line2d_16">
      <defs>
       <path id="m87a9af5b31" d="M 0 0 
L -3.5 0 
" style="stroke: #000000; stroke-width: 0.8"/>
      </defs>
      <g>
       <use xlink:href="#m87a9af5b31" x="58.106" y="76.371442" style="stroke: #000000; stroke-width: 0.8"/>
      </g>
     </g>
     <g id="text_9">
      <!-- 0 -->
      <g transform="translate(44.7435 80.17066)scale(0.1 -0.1)">
       <use xlink:href="#DejaVuSans-30"/>
      </g>
     </g>
    </g>
    <g id="ytick_2">
     <g id="line2d_17">
      <path d="M 58.106 30.614427 
L 450 30.614427 
" clip-path="url(#pd70b541343)" style="fill: none; stroke: #b0b0b0; stroke-width: 0.8; stroke-linecap: square"/>
     </g>
     <g id="line2d_18">
      <g>
       <use xlink:href="#m87a9af5b31" x="58.106" y="30.614427" style="stroke: #000000; stroke-width: 0.8"/>
      </g>
     </g>
     <g id="text_10">
      <!-- 10 -->
      <g transform="translate(38.381 34.413646)scale(0.1 -0.1)">
       <use xlink:href="#DejaVuSans-31"/>
       <use xlink:href="#DejaVuSans-30" x="63.623047"/>
      </g>
     </g>
    </g>
    <g id="text_11">
     <!-- $e_x$ [m] -->
     <g transform="translate(32.301313 69.20875)rotate(-90)scale(0.1 -0.1)">
      <defs>
       <path id="DejaVuSans-Oblique-65" d="M 3078 2063 
Q 3088 2113 3092 2166 
Q 3097 2219 3097 2272 
Q 3097 2653 2873 2875 
Q 2650 3097 2266 3097 
Q 1838 3097 1509 2826 
Q 1181 2556 1013 2059 
L 3078 2063 
z
M 3578 1613 
L 903 1613 
Q 884 1494 878 1425 
Q 872 1356 872 1306 
Q 872 872 1139 634 
Q 1406 397 1894 397 
Q 2269 397 2603 481 
Q 2938 566 3225 728 
L 3116 159 
Q 2806 34 2476 -28 
Q 2147 -91 1806 -91 
Q 1078 -91 686 257 
Q 294 606 294 1247 
Q 294 1794 489 2264 
Q 684 2734 1063 3103 
Q 1306 3334 1642 3459 
Q 1978 3584 2356 3584 
Q 2950 3584 3301 3228 
Q 3653 2872 3653 2272 
Q 3653 2128 3634 1964 
Q 3616 1800 3578 1613 
z
" transform="scale(0.015625)"/>
       <path id="DejaVuSans-Oblique-78" d="M 3841 3500 
L 2234 1784 
L 3219 0 
L 2559 0 
L 1819 1388 
L 531 0 
L -166 0 
L 1556 1844 
L 641 3500 
L 1300 3500 
L 1972 2234 
L 3144 3500 
L 3841 3500 
z
" transform="scale(0.015625)"/>
       <path id="DejaVuSans-6d" d="M 3328 2828 
Q 3544 3216 3844 3400 
Q 4144 3584 4550 3584 
Q 5097 3584 5394 3201 
Q 5691 2819 5691 2113 
L 5691 0 
L 5113 0 
L 5113 2094 
Q 5113 2597 4934 2840 
Q 4756 3084 4391 3084 
Q 3944 3084 3684 2787 
Q 3425 2491 3425 1978 
L 3425 0 
L 2847 0 
L 2847 2094 
Q 2847 2600 2669 2842 
Q 2491 3084 2119 3084 
Q 1678 3084 1418 2786 
Q 1159 2488 1159 1978 
L 1159 0 
L 581 0 
L 581 3500 
L 1159 3500 
L 1159 2956 
Q 1356 3278 1631 3431 
Q 1906 3584 2284 3584 
Q 2666 3584 2933 3390 
Q 3200 3197 3328 2828 
z
" transform="scale(0.015625)"/>
      </defs>
      <use xlink:href="#DejaVuSans-Oblique-65" transform="translate(0 0.015625)"/>
      <use xlink:href="#DejaVuSans-Oblique-78" transform="translate(61.523438 -16.390625)scale(0.7)"/>
      <use xlink:href="#DejaVuSans-20" transform="translate(105.683594 0.015625)"/>
      <use xlink:href="#DejaVuSans-5b" transform="translate(137.470703 0.015625)"/>
      <use xlink:href="#DejaVuSans-6d" transform="translate(176.484375 0.015625)"/>
      <use xlink:href="#DejaVuSans-5d" transform="translate(273.896484 0.015625)"/>
     </g>
    </g>
   </g>
   <g id="line2d_19">
    <path d="M 75.919364 30.614432 
L 82.494766 30.724799 
L 94.151162 31.220157 
L 100.427683 31.815016 
L 101.324329 31.945072 
L 104.014266 32.304888 
L 109.394141 33.126286 
L 110.290787 33.259192 
L 113.279606 33.770647 
L 113.87737 33.854614 
L 115.969544 34.238439 
L 133.005814 38.520453 
L 133.603578 38.718391 
L 136.293516 39.401162 
L 136.592397 39.528775 
L 136.891279 39.528775 
L 137.190161 39.718619 
L 138.086807 39.875419 
L 138.385689 39.999957 
L 138.684571 39.999957 
L 138.983453 40.185276 
L 139.880099 40.338341 
L 140.776745 40.610591 
L 143.1678 41.228194 
L 143.466682 41.228194 
L 144.66221 41.571079 
L 145.259974 41.656036 
L 146.15662 41.881665 
L 148.846557 42.552839 
L 152.134258 43.261566 
L 153.030904 43.476095 
L 155.720842 44.061173 
L 156.617487 44.270141 
L 159.008543 44.75313 
L 159.905189 45.001336 
L 160.801835 45.124601 
L 161.997362 45.419405 
L 164.089536 45.863299 
L 164.6873 45.962622 
L 167.078355 46.456884 
L 169.170529 46.886179 
L 170.366057 47.048257 
L 170.963821 47.209318 
L 173.354876 47.650554 
L 174.550404 47.929809 
L 175.745932 48.090036 
L 176.343696 48.247191 
L 179.332515 48.796207 
L 182.022452 49.299304 
L 184.71239 49.822886 
L 187.402327 50.349981 
L 188.000091 50.439766 
L 190.092265 50.78521 
L 190.690029 50.948573 
L 193.678848 51.519661 
L 196.368786 52.059513 
L 196.966549 52.151468 
L 199.955369 52.702179 
L 200.852015 52.880821 
L 203.24307 53.298587 
L 203.840834 53.409186 
L 204.73748 53.587739 
L 207.427417 54.103154 
L 210.117355 54.620721 
L 210.715119 54.705499 
L 213.106174 55.134484 
L 215.49723 55.589239 
L 216.094994 55.674168 
L 219.382695 56.213903 
L 220.578223 56.467082 
L 221.77375 56.660225 
L 224.164806 57.106412 
L 225.360334 57.29191 
L 227.751389 57.725383 
L 229.843563 58.109518 
L 230.441327 58.194994 
L 233.131264 58.651789 
L 234.02791 58.813745 
L 237.315611 59.352898 
L 238.212257 59.521334 
L 241.201077 60.048931 
L 243.592132 60.428602 
L 246.28207 60.901652 
L 248.673125 61.296004 
L 251.661944 61.756711 
L 252.55859 61.91561 
L 255.248528 62.378827 
L 257.639583 62.75389 
L 260.628403 63.168782 
L 261.226167 63.300308 
L 264.214986 63.787664 
L 266.606041 64.15733 
L 269.893743 64.647417 
L 273.480326 65.189374 
L 277.365791 65.762152 
L 278.561319 65.927079 
L 280.952375 66.27085 
L 282.147902 66.448717 
L 287.826659 67.230408 
L 293.505416 68.018274 
L 294.700944 68.172874 
L 298.885291 68.714546 
L 300.080819 68.862271 
L 303.36852 69.305369 
L 307.253985 69.789208 
L 311.737214 70.405862 
L 312.63386 70.508646 
L 317.117089 71.054929 
L 321.600318 71.615566 
L 322.198082 71.717169 
L 326.083548 72.204531 
L 330.566777 72.76416 
L 331.164541 72.861907 
L 335.348888 73.344288 
L 336.843297 73.54321 
L 345.211992 74.500703 
L 349.097457 74.920749 
L 350.890749 75.074515 
L 352.68404 75.237761 
L 355.075096 75.405611 
L 357.466151 75.575558 
L 362.846026 75.875583 
L 375.996832 76.254913 
L 384.664408 76.219006 
L 394.527512 76.027818 
L 407.080553 75.776151 
L 417.242539 75.787925 
L 425.910116 76.171195 
L 432.186636 76.503068 
L 432.186636 76.503068 
" clip-path="url(#pd70b541343)" style="fill: none; stroke: #ff0000; stroke-width: 1.5; stroke-linecap: square"/>
   </g>
   <g id="patch_3">
    <path d="M 58.106 78.7975 
L 58.106 28.32 
" style="fill: none; stroke: #000000; stroke-width: 0.8; stroke-linejoin: miter; stroke-linecap: square"/>
   </g>
   <g id="patch_4">
    <path d="M 450 78.7975 
L 450 28.32 
" style="fill: none; stroke: #000000; stroke-width: 0.8; stroke-linejoin: miter; stroke-linecap: square"/>
   </g>
   <g id="patch_5">
    <path d="M 58.106 78.7975 
L 450 78.7975 
" style="fill: none; stroke: #000000; stroke-width: 0.8; stroke-linejoin: miter; stroke-linecap: square"/>
   </g>
   <g id="patch_6">
    <path d="M 58.106 28.32 
L 450 28.32 
" style="fill: none; stroke: #000000; stroke-width: 0.8; stroke-linejoin: miter; stroke-linecap: square"/>
   </g>
   <g id="text_12">
    <!-- Error in $x$-position -->
    <g transform="translate(200.413 22.32)scale(0.12 -0.12)">
     <defs>
      <path id="DejaVuSans-45" d="M 628 4666 
L 3578 4666 
L 3578 4134 
L 1259 4134 
L 1259 2753 
L 3481 2753 
L 3481 2222 
L 1259 2222 
L 1259 531 
L 3634 531 
L 3634 0 
L 628 0 
L 628 4666 
z
" transform="scale(0.015625)"/>
      <path id="DejaVuSans-72" d="M 2631 2963 
Q 2534 3019 2420 3045 
Q 2306 3072 2169 3072 
Q 1681 3072 1420 2755 
Q 1159 2438 1159 1844 
L 1159 0 
L 581 0 
L 581 3500 
L 1159 3500 
L 1159 2956 
Q 1341 3275 1631 3429 
Q 1922 3584 2338 3584 
Q 2397 3584 2469 3576 
Q 2541 3569 2628 3553 
L 2631 2963 
z
" transform="scale(0.015625)"/>
      <path id="DejaVuSans-6f" d="M 1959 3097 
Q 1497 3097 1228 2736 
Q 959 2375 959 1747 
Q 959 1119 1226 758 
Q 1494 397 1959 397 
Q 2419 397 2687 759 
Q 2956 1122 2956 1747 
Q 2956 2369 2687 2733 
Q 2419 3097 1959 3097 
z
M 1959 3584 
Q 2709 3584 3137 3096 
Q 3566 2609 3566 1747 
Q 3566 888 3137 398 
Q 2709 -91 1959 -91 
Q 1206 -91 779 398 
Q 353 888 353 1747 
Q 353 2609 779 3096 
Q 1206 3584 1959 3584 
z
" transform="scale(0.015625)"/>
      <path id="DejaVuSans-69" d="M 603 3500 
L 1178 3500 
L 1178 0 
L 603 0 
L 603 3500 
z
M 603 4863 
L 1178 4863 
L 1178 4134 
L 603 4134 
L 603 4863 
z
" transform="scale(0.015625)"/>
      <path id="DejaVuSans-6e" d="M 3513 2113 
L 3513 0 
L 2938 0 
L 2938 2094 
Q 2938 2591 2744 2837 
Q 2550 3084 2163 3084 
Q 1697 3084 1428 2787 
Q 1159 2491 1159 1978 
L 1159 0 
L 581 0 
L 581 3500 
L 1159 3500 
L 1159 2956 
Q 1366 3272 1645 3428 
Q 1925 3584 2291 3584 
Q 2894 3584 3203 3211 
Q 3513 2838 3513 2113 
z
" transform="scale(0.015625)"/>
      <path id="DejaVuSans-2d" d="M 313 2009 
L 1997 2009 
L 1997 1497 
L 313 1497 
L 313 2009 
z
" transform="scale(0.015625)"/>
      <path id="DejaVuSans-70" d="M 1159 525 
L 1159 -1331 
L 581 -1331 
L 581 3500 
L 1159 3500 
L 1159 2969 
Q 1341 3281 1617 3432 
Q 1894 3584 2278 3584 
Q 2916 3584 3314 3078 
Q 3713 2572 3713 1747 
Q 3713 922 3314 415 
Q 2916 -91 2278 -91 
Q 1894 -91 1617 61 
Q 1341 213 1159 525 
z
M 3116 1747 
Q 3116 2381 2855 2742 
Q 2594 3103 2138 3103 
Q 1681 3103 1420 2742 
Q 1159 2381 1159 1747 
Q 1159 1113 1420 752 
Q 1681 391 2138 391 
Q 2594 391 2855 752 
Q 3116 1113 3116 1747 
z
" transform="scale(0.015625)"/>
      <path id="DejaVuSans-74" d="M 1172 4494 
L 1172 3500 
L 2356 3500 
L 2356 3053 
L 1172 3053 
L 1172 1153 
Q 1172 725 1289 603 
Q 1406 481 1766 481 
L 2356 481 
L 2356 0 
L 1766 0 
Q 1100 0 847 248 
Q 594 497 594 1153 
L 594 3053 
L 172 3053 
L 172 3500 
L 594 3500 
L 594 4494 
L 1172 4494 
z
" transform="scale(0.015625)"/>
     </defs>
     <use xlink:href="#DejaVuSans-45" transform="translate(0 0.015625)"/>
     <use xlink:href="#DejaVuSans-72" transform="translate(63.183594 0.015625)"/>
     <use xlink:href="#DejaVuSans-72" transform="translate(104.296875 0.015625)"/>
     <use xlink:href="#DejaVuSans-6f" transform="translate(145.410156 0.015625)"/>
     <use xlink:href="#DejaVuSans-72" transform="translate(206.591797 0.015625)"/>
     <use xlink:href="#DejaVuSans-20" transform="translate(247.705078 0.015625)"/>
     <use xlink:href="#DejaVuSans-69" transform="translate(279.492188 0.015625)"/>
     <use xlink:href="#DejaVuSans-6e" transform="translate(307.275391 0.015625)"/>
     <use xlink:href="#DejaVuSans-20" transform="translate(370.654297 0.015625)"/>
     <use xlink:href="#DejaVuSans-Oblique-78" transform="translate(402.441406 0.015625)"/>
     <use xlink:href="#DejaVuSans-2d" transform="translate(461.621094 0.015625)"/>
     <use xlink:href="#DejaVuSans-70" transform="translate(497.705078 0.015625)"/>
     <use xlink:href="#DejaVuSans-6f" transform="translate(561.181641 0.015625)"/>
     <use xlink:href="#DejaVuSans-73" transform="translate(622.363281 0.015625)"/>
     <use xlink:href="#DejaVuSans-69" transform="translate(674.462891 0.015625)"/>
     <use xlink:href="#DejaVuSans-74" transform="translate(702.246094 0.015625)"/>
     <use xlink:href="#DejaVuSans-69" transform="translate(741.455078 0.015625)"/>
     <use xlink:href="#DejaVuSans-6f" transform="translate(769.238281 0.015625)"/>
     <use xlink:href="#DejaVuSans-6e" transform="translate(830.419922 0.015625)"/>
    </g>
   </g>
  </g>
  <g id="axes_2">
   <g id="patch_7">
    <path d="M 58.106 190.3975 
L 450 190.3975 
L 450 139.92 
L 58.106 139.92 
z
" style="fill: #ffffff"/>
   </g>
   <g id="matplotlib.axis_3">
    <g id="xtick_8">
     <g id="line2d_20">
      <path d="M 75.919364 190.3975 
L 75.919364 139.92 
" clip-path="url(#p92e356ffea)" style="fill: none; stroke: #b0b0b0; stroke-width: 0.8; stroke-linecap: square"/>
     </g>
     <g id="line2d_21">
      <g>
       <use xlink:href="#m0f83304a50" x="75.919364" y="190.3975" style="stroke: #000000; stroke-width: 0.8"/>
      </g>
     </g>
     <g id="text_13">
      <!-- 0 -->
      <g transform="translate(72.738114 204.995937)scale(0.1 -0.1)">
       <use xlink:href="#DejaVuSans-30"/>
      </g>
     </g>
    </g>
    <g id="xtick_9">
     <g id="line2d_22">
      <path d="M 135.645646 190.3975 
L 135.645646 139.92 
" clip-path="url(#p92e356ffea)" style="fill: none; stroke: #b0b0b0; stroke-width: 0.8; stroke-linecap: square"/>
     </g>
     <g id="line2d_23">
      <g>
       <use xlink:href="#m0f83304a50" x="135.645646" y="190.3975" style="stroke: #000000; stroke-width: 0.8"/>
      </g>
     </g>
     <g id="text_14">
      <!-- 2 -->
      <g transform="translate(132.464396 204.995937)scale(0.1 -0.1)">
       <use xlink:href="#DejaVuSans-32"/>
      </g>
     </g>
    </g>
    <g id="xtick_10">
     <g id="line2d_24">
      <path d="M 195.371928 190.3975 
L 195.371928 139.92 
" clip-path="url(#p92e356ffea)" style="fill: none; stroke: #b0b0b0; stroke-width: 0.8; stroke-linecap: square"/>
     </g>
     <g id="line2d_25">
      <g>
       <use xlink:href="#m0f83304a50" x="195.371928" y="190.3975" style="stroke: #000000; stroke-width: 0.8"/>
      </g>
     </g>
     <g id="text_15">
      <!-- 4 -->
      <g transform="translate(192.190678 204.995937)scale(0.1 -0.1)">
       <use xlink:href="#DejaVuSans-34"/>
      </g>
     </g>
    </g>
    <g id="xtick_11">
     <g id="line2d_26">
      <path d="M 255.09821 190.3975 
L 255.09821 139.92 
" clip-path="url(#p92e356ffea)" style="fill: none; stroke: #b0b0b0; stroke-width: 0.8; stroke-linecap: square"/>
     </g>
     <g id="line2d_27">
      <g>
       <use xlink:href="#m0f83304a50" x="255.09821" y="190.3975" style="stroke: #000000; stroke-width: 0.8"/>
      </g>
     </g>
     <g id="text_16">
      <!-- 6 -->
      <g transform="translate(251.91696 204.995937)scale(0.1 -0.1)">
       <use xlink:href="#DejaVuSans-36"/>
      </g>
     </g>
    </g>
    <g id="xtick_12">
     <g id="line2d_28">
      <path d="M 314.824492 190.3975 
L 314.824492 139.92 
" clip-path="url(#p92e356ffea)" style="fill: none; stroke: #b0b0b0; stroke-width: 0.8; stroke-linecap: square"/>
     </g>
     <g id="line2d_29">
      <g>
       <use xlink:href="#m0f83304a50" x="314.824492" y="190.3975" style="stroke: #000000; stroke-width: 0.8"/>
      </g>
     </g>
     <g id="text_17">
      <!-- 8 -->
      <g transform="translate(311.643242 204.995937)scale(0.1 -0.1)">
       <use xlink:href="#DejaVuSans-38"/>
      </g>
     </g>
    </g>
    <g id="xtick_13">
     <g id="line2d_30">
      <path d="M 374.550774 190.3975 
L 374.550774 139.92 
" clip-path="url(#p92e356ffea)" style="fill: none; stroke: #b0b0b0; stroke-width: 0.8; stroke-linecap: square"/>
     </g>
     <g id="line2d_31">
      <g>
       <use xlink:href="#m0f83304a50" x="374.550774" y="190.3975" style="stroke: #000000; stroke-width: 0.8"/>
      </g>
     </g>
     <g id="text_18">
      <!-- 10 -->
      <g transform="translate(368.188274 204.995937)scale(0.1 -0.1)">
       <use xlink:href="#DejaVuSans-31"/>
       <use xlink:href="#DejaVuSans-30" x="63.623047"/>
      </g>
     </g>
    </g>
    <g id="xtick_14">
     <g id="line2d_32">
      <path d="M 434.277056 190.3975 
L 434.277056 139.92 
" clip-path="url(#p92e356ffea)" style="fill: none; stroke: #b0b0b0; stroke-width: 0.8; stroke-linecap: square"/>
     </g>
     <g id="line2d_33">
      <g>
       <use xlink:href="#m0f83304a50" x="434.277056" y="190.3975" style="stroke: #000000; stroke-width: 0.8"/>
      </g>
     </g>
     <g id="text_19">
      <!-- 12 -->
      <g transform="translate(427.914556 204.995937)scale(0.1 -0.1)">
       <use xlink:href="#DejaVuSans-31"/>
       <use xlink:href="#DejaVuSans-32" x="63.623047"/>
      </g>
     </g>
    </g>
    <g id="text_20">
     <!-- $t$ [s] -->
     <g transform="translate(243.953 218.674062)scale(0.1 -0.1)">
      <use xlink:href="#DejaVuSans-Oblique-74" transform="translate(0 0.015625)"/>
      <use xlink:href="#DejaVuSans-20" transform="translate(39.208984 0.015625)"/>
      <use xlink:href="#DejaVuSans-5b" transform="translate(70.996094 0.015625)"/>
      <use xlink:href="#DejaVuSans-73" transform="translate(110.009766 0.015625)"/>
      <use xlink:href="#DejaVuSans-5d" transform="translate(162.109375 0.015625)"/>
     </g>
    </g>
   </g>
   <g id="matplotlib.axis_4">
    <g id="ytick_3">
     <g id="line2d_34">
      <path d="M 58.106 180.725293 
L 450 180.725293 
" clip-path="url(#p92e356ffea)" style="fill: none; stroke: #b0b0b0; stroke-width: 0.8; stroke-linecap: square"/>
     </g>
     <g id="line2d_35">
      <g>
       <use xlink:href="#m87a9af5b31" x="58.106" y="180.725293" style="stroke: #000000; stroke-width: 0.8"/>
      </g>
     </g>
     <g id="text_21">
      <!-- −0.1 -->
      <g transform="translate(26.823188 184.524511)scale(0.1 -0.1)">
       <defs>
        <path id="DejaVuSans-2212" d="M 678 2272 
L 4684 2272 
L 4684 1741 
L 678 1741 
L 678 2272 
z
" transform="scale(0.015625)"/>
        <path id="DejaVuSans-2e" d="M 684 794 
L 1344 794 
L 1344 0 
L 684 0 
L 684 794 
z
" transform="scale(0.015625)"/>
       </defs>
       <use xlink:href="#DejaVuSans-2212"/>
       <use xlink:href="#DejaVuSans-30" x="83.789062"/>
       <use xlink:href="#DejaVuSans-2e" x="147.412109"/>
       <use xlink:href="#DejaVuSans-31" x="179.199219"/>
      </g>
     </g>
    </g>
    <g id="ytick_4">
     <g id="line2d_36">
      <path d="M 58.106 164.663725 
L 450 164.663725 
" clip-path="url(#p92e356ffea)" style="fill: none; stroke: #b0b0b0; stroke-width: 0.8; stroke-linecap: square"/>
     </g>
     <g id="line2d_37">
      <g>
       <use xlink:href="#m87a9af5b31" x="58.106" y="164.663725" style="stroke: #000000; stroke-width: 0.8"/>
      </g>
     </g>
     <g id="text_22">
      <!-- 0.0 -->
      <g transform="translate(35.202875 168.462944)scale(0.1 -0.1)">
       <use xlink:href="#DejaVuSans-30"/>
       <use xlink:href="#DejaVuSans-2e" x="63.623047"/>
       <use xlink:href="#DejaVuSans-30" x="95.410156"/>
      </g>
     </g>
    </g>
    <g id="ytick_5">
     <g id="line2d_38">
      <path d="M 58.106 148.602158 
L 450 148.602158 
" clip-path="url(#p92e356ffea)" style="fill: none; stroke: #b0b0b0; stroke-width: 0.8; stroke-linecap: square"/>
     </g>
     <g id="line2d_39">
      <g>
       <use xlink:href="#m87a9af5b31" x="58.106" y="148.602158" style="stroke: #000000; stroke-width: 0.8"/>
      </g>
     </g>
     <g id="text_23">
      <!-- 0.1 -->
      <g transform="translate(35.202875 152.401377)scale(0.1 -0.1)">
       <use xlink:href="#DejaVuSans-30"/>
       <use xlink:href="#DejaVuSans-2e" x="63.623047"/>
       <use xlink:href="#DejaVuSans-31" x="95.410156"/>
      </g>
     </g>
    </g>
    <g id="text_24">
     <!-- $e_z$ [m] -->
     <g transform="translate(20.7435 180.60875)rotate(-90)scale(0.1 -0.1)">
      <defs>
       <path id="DejaVuSans-Oblique-7a" d="M 744 3500 
L 3475 3500 
L 3372 2975 
L 738 459 
L 2913 459 
L 2822 0 
L -19 0 
L 84 525 
L 2719 3041 
L 653 3041 
L 744 3500 
z
" transform="scale(0.015625)"/>
      </defs>
      <use xlink:href="#DejaVuSans-Oblique-65" transform="translate(0 0.015625)"/>
      <use xlink:href="#DejaVuSans-Oblique-7a" transform="translate(61.523438 -16.390625)scale(0.7)"/>
      <use xlink:href="#DejaVuSans-20" transform="translate(101.000977 0.015625)"/>
      <use xlink:href="#DejaVuSans-5b" transform="translate(132.788086 0.015625)"/>
      <use xlink:href="#DejaVuSans-6d" transform="translate(171.801758 0.015625)"/>
      <use xlink:href="#DejaVuSans-5d" transform="translate(269.213867 0.015625)"/>
     </g>
    </g>
   </g>
   <g id="line2d_40">
    <path d="M 75.919364 166.217706 
L 78.011537 166.346699 
L 81.299239 166.750664 
L 81.897002 166.604343 
L 83.09253 165.813786 
L 83.989176 165.219449 
L 84.288058 164.93624 
L 86.679113 163.862061 
L 88.173523 162.305636 
L 88.472405 161.981724 
L 89.369051 160.21887 
L 89.667933 160.21887 
L 89.966815 159.340394 
L 90.265697 158.904889 
L 90.863461 157.665065 
L 91.162343 157.474185 
L 91.461225 157.111433 
L 91.760106 156.472604 
L 92.955634 155.517186 
L 94.151162 155.115888 
L 95.34669 155.11343 
L 96.841099 155.329004 
L 97.737745 155.48217 
L 98.933273 155.385965 
L 100.427683 154.864782 
L 100.726565 154.482347 
L 101.025447 154.482347 
L 101.62321 153.932564 
L 102.519856 153.219652 
L 102.818738 152.805549 
L 104.014266 151.88049 
L 104.313148 151.650744 
L 104.61203 151.650744 
L 105.209794 151.185012 
L 105.807558 150.936907 
L 106.405322 150.677324 
L 107.301967 149.869569 
L 107.899731 149.565137 
L 108.198613 149.345628 
L 108.497495 148.873029 
L 109.095259 148.24625 
L 109.394141 147.864379 
L 109.693023 147.737561 
L 109.991905 147.485209 
L 110.589669 146.633267 
L 110.888551 146.294245 
L 111.486315 145.971908 
L 111.785196 145.76463 
L 112.084078 145.359458 
L 112.681842 144.846878 
L 113.279606 144.193776 
L 113.578488 144.193776 
L 113.87737 143.734505 
L 114.475134 143.171757 
L 114.774016 142.872381 
L 115.37178 142.619599 
L 115.670662 142.372465 
L 116.567308 142.214432 
L 117.165071 142.265719 
L 118.958363 143.01004 
L 119.556127 143.495468 
L 120.153891 143.877602 
L 121.6483 145.326901 
L 122.246064 145.889397 
L 122.544946 146.303862 
L 124.338238 147.395566 
L 126.430412 148.16354 
L 127.327057 148.586904 
L 127.625939 148.856035 
L 128.223703 149.50898 
L 129.120349 150.290142 
L 130.315877 151.813341 
L 131.212523 152.655321 
L 131.511405 153.055875 
L 135.097988 155.277811 
L 135.39687 155.716462 
L 136.293516 156.410886 
L 136.592397 156.869173 
L 136.891279 156.869173 
L 137.190161 157.495719 
L 137.787925 157.766897 
L 139.581217 158.67463 
L 140.477863 159.033701 
L 141.972272 159.950663 
L 142.570036 160.454812 
L 143.1678 161.157655 
L 143.466682 161.157655 
L 143.765564 161.668082 
L 144.363328 162.327047 
L 144.66221 162.72241 
L 144.961092 162.853171 
L 145.259974 163.112685 
L 145.558856 163.623534 
L 146.455502 164.515 
L 146.754383 165.040104 
L 147.053265 165.040104 
L 147.352147 165.591498 
L 147.949911 166.178705 
L 149.444321 168.370035 
L 149.743203 168.738674 
L 150.340967 170.052984 
L 150.639849 170.052984 
L 150.938731 170.79736 
L 152.134258 172.377962 
L 152.43314 173.023975 
L 154.226432 174.894826 
L 154.525314 175.41764 
L 155.720842 176.560939 
L 156.019724 177.065301 
L 157.813015 178.624469 
L 158.111897 179.049715 
L 159.307425 179.867436 
L 159.606307 179.867436 
L 159.905189 180.140247 
L 161.69848 180.210884 
L 162.894008 180.236435 
L 163.491772 180.362474 
L 165.285064 181.355003 
L 165.882828 181.761168 
L 166.18171 181.761168 
L 166.779473 181.91014 
L 167.676119 181.826541 
L 168.273883 181.605055 
L 169.768293 181.237586 
L 170.366057 181.219014 
L 170.963821 181.423641 
L 171.561585 181.662993 
L 172.159348 182.152136 
L 172.45823 182.336814 
L 174.251522 182.604532 
L 175.745932 182.189119 
L 176.044814 181.865208 
L 176.941459 181.585611 
L 177.539223 181.303001 
L 178.136987 181.178441 
L 178.734751 181.20634 
L 179.631397 181.669691 
L 179.930279 181.907115 
L 180.528043 182.156574 
L 180.826925 182.471455 
L 181.125807 182.471455 
L 181.424689 182.835642 
L 182.919098 183.009067 
L 184.71239 182.656519 
L 185.609036 182.406235 
L 186.505682 182.279826 
L 187.103445 182.437768 
L 187.402327 182.605282 
L 187.701209 182.605282 
L 188.298973 183.075933 
L 188.896737 183.612105 
L 189.494501 183.867556 
L 189.793383 184.170005 
L 190.092265 184.170005 
L 190.391147 184.514373 
L 193.678848 185.09214 
L 194.874376 185.446623 
L 195.47214 185.811249 
L 196.069904 186.166445 
L 196.368786 186.458473 
L 196.667667 186.458473 
L 196.966549 186.732903 
L 198.460959 187.277905 
L 199.656487 187.290235 
L 202.645306 187.035883 
L 204.139716 187.215144 
L 205.634126 187.311967 
L 207.427417 187.035299 
L 208.622945 186.808007 
L 209.519591 186.723911 
L 211.014001 186.918027 
L 213.106174 187.144633 
L 214.600584 186.886334 
L 215.49723 186.695272 
L 216.692757 186.757373 
L 220.877105 187.533348 
L 221.77375 187.457605 
L 223.567042 187.183044 
L 224.76257 187.220052 
L 228.349153 187.912131 
L 229.245799 187.908828 
L 231.935736 187.625646 
L 233.729028 187.754755 
L 234.924556 187.8718 
L 237.016729 187.938302 
L 239.108903 187.87877 
L 240.304431 188.013887 
L 241.201077 188.103068 
L 242.396604 187.946313 
L 244.488778 187.472061 
L 244.78766 187.330939 
L 246.28207 187.309279 
L 249.270889 187.696168 
L 249.868653 187.584317 
L 250.765299 187.196171 
L 251.661944 186.742936 
L 252.259708 186.311437 
L 252.857472 186.000918 
L 253.156354 185.69823 
L 253.455236 185.69823 
L 253.754118 185.332208 
L 255.54741 185.15392 
L 257.041819 185.352248 
L 257.938465 185.377807 
L 258.536229 185.239152 
L 259.133993 185.026078 
L 259.731757 184.806466 
L 260.628403 184.466511 
L 260.927285 184.153348 
L 261.82393 183.882617 
L 262.421694 183.561994 
L 263.019458 183.325791 
L 264.513868 183.24575 
L 266.606041 183.480899 
L 267.801569 183.397156 
L 268.100451 183.209817 
L 268.997097 182.981291 
L 269.594861 182.656384 
L 270.491507 182.278387 
L 270.790389 182.168499 
L 271.388153 181.822015 
L 272.882562 181.284857 
L 273.779208 181.266873 
L 275.5725 181.655645 
L 276.469146 181.851612 
L 277.365791 181.806615 
L 277.664673 181.679521 
L 277.963555 181.679521 
L 278.561319 181.367959 
L 279.159083 181.048417 
L 279.457965 180.780828 
L 279.756847 180.780828 
L 280.354611 180.357656 
L 280.952375 180.004592 
L 281.251257 179.757028 
L 281.550138 179.757028 
L 282.147902 179.522585 
L 282.745666 179.495924 
L 284.240076 180.011233 
L 284.83784 180.229887 
L 286.33225 180.656855 
L 286.930013 180.622064 
L 288.125541 180.066336 
L 288.424423 179.882739 
L 288.723305 179.882739 
L 289.321069 179.522151 
L 289.918833 179.223298 
L 290.217715 179.001188 
L 290.516597 179.001188 
L 291.114361 178.771453 
L 291.712124 178.723975 
L 293.206534 179.147151 
L 293.804298 179.337337 
L 295.298708 179.713646 
L 295.896472 179.684667 
L 300.080819 178.33843 
L 300.977465 178.397 
L 301.276347 178.397 
L 302.770756 178.912147 
L 303.069638 178.912147 
L 303.667402 179.088693 
L 304.86293 179.147434 
L 309.047277 178.328781 
L 310.242805 178.464244 
L 311.438333 178.806522 
L 312.63386 178.989878 
L 313.829388 178.969934 
L 315.323798 178.746066 
L 318.013735 178.583495 
L 321.8992 179.5006 
L 323.39361 179.449332 
L 324.589138 179.330777 
L 326.681311 179.278928 
L 331.762304 180.564428 
L 332.957832 180.601171 
L 335.946652 180.659959 
L 336.843297 180.831663 
L 337.739943 181.115518 
L 338.636589 181.385006 
L 339.533235 181.700058 
L 340.429881 181.971782 
L 342.223172 182.317588 
L 343.4187 182.237005 
L 344.91311 182.10457 
L 346.108638 182.22735 
L 347.304165 182.67516 
L 347.901929 182.879038 
L 348.798575 183.446595 
L 349.097457 183.651793 
L 349.695221 183.849457 
L 350.292985 184.17717 
L 351.488513 184.382938 
L 352.385158 184.222116 
L 353.879568 183.794882 
L 354.776214 183.676074 
L 357.167269 183.629765 
L 357.765033 183.424234 
L 358.362797 183.162651 
L 358.661679 182.999287 
L 359.259443 182.407221 
L 359.857207 181.870507 
L 360.156089 181.471893 
L 360.454971 181.471893 
L 360.753853 181.13076 
L 361.94938 180.620309 
L 364.340436 180.332228 
L 365.237082 179.923389 
L 365.535964 179.42401 
L 365.834846 179.42401 
L 366.133728 178.962192 
L 367.030373 178.270542 
L 367.628137 177.565322 
L 367.927019 177.310331 
L 368.823665 176.979492 
L 369.122547 176.808341 
L 369.421429 176.808341 
L 369.720311 176.66826 
L 371.214721 176.492341 
L 373.008012 175.627844 
L 373.306894 175.097946 
L 374.20354 174.757093 
L 374.801304 174.530716 
L 375.69795 174.602087 
L 376.295714 174.827835 
L 376.893477 174.986187 
L 377.790123 174.965871 
L 378.089005 174.824638 
L 378.387887 174.824638 
L 378.686769 174.389876 
L 378.985651 174.291559 
L 379.583415 173.833499 
L 379.882297 173.310567 
L 380.181179 173.310567 
L 380.480061 172.577021 
L 381.077825 172.284029 
L 382.273352 171.735751 
L 383.169998 171.847347 
L 383.46888 172.038483 
L 383.767762 172.038483 
L 384.066644 172.336791 
L 385.561054 172.459063 
L 385.859936 172.22348 
L 386.4577 172.00373 
L 386.756581 171.821216 
L 387.653227 170.621251 
L 387.952109 170.49342 
L 388.549873 169.990827 
L 388.848755 169.523756 
L 389.147637 169.523756 
L 389.446519 168.996032 
L 391.538692 168.64198 
L 392.73422 168.629245 
L 393.331984 168.413352 
L 393.630866 168.217458 
L 393.929748 168.217458 
L 394.527512 167.665254 
L 395.125276 167.018526 
L 395.72304 166.703475 
L 396.021922 166.329727 
L 396.918567 165.931454 
L 397.516331 165.890024 
L 398.711859 166.131565 
L 399.608505 166.418098 
L 400.206269 166.412323 
L 400.505151 166.335447 
L 402.597324 164.838488 
L 402.896206 164.500181 
L 403.792852 164.215438 
L 404.390616 164.204848 
L 405.287262 164.479892 
L 405.885026 164.809229 
L 406.183908 165.035766 
L 407.080553 165.211907 
L 407.678317 165.167872 
L 409.471609 164.088065 
L 410.368255 163.141387 
L 411.563782 162.389506 
L 411.862664 162.389506 
L 412.460428 162.236321 
L 413.655956 162.245546 
L 414.851484 162.541789 
L 415.74813 162.667469 
L 416.644775 162.486077 
L 416.943657 162.139744 
L 417.242539 162.139744 
L 417.840303 161.510894 
L 418.438067 161.024492 
L 418.736949 160.491812 
L 419.035831 160.491812 
L 419.334713 160.152089 
L 420.530241 159.664617 
L 421.426887 159.698166 
L 422.622414 160.017265 
L 423.220178 160.106924 
L 424.116824 159.985753 
L 425.01347 159.689786 
L 426.507879 158.832898 
L 427.404525 158.550486 
L 428.002289 158.57383 
L 428.898935 158.880564 
L 429.197817 159.134736 
L 429.795581 159.780385 
L 430.991109 160.864983 
L 431.289991 161.296556 
L 432.186636 161.812901 
L 432.186636 161.812901 
" clip-path="url(#p92e356ffea)" style="fill: none; stroke: #0000ff; stroke-width: 1.5; stroke-linecap: square"/>
   </g>
   <g id="patch_8">
    <path d="M 58.106 190.3975 
L 58.106 139.92 
" style="fill: none; stroke: #000000; stroke-width: 0.8; stroke-linejoin: miter; stroke-linecap: square"/>
   </g>
   <g id="patch_9">
    <path d="M 450 190.3975 
L 450 139.92 
" style="fill: none; stroke: #000000; stroke-width: 0.8; stroke-linejoin: miter; stroke-linecap: square"/>
   </g>
   <g id="patch_10">
    <path d="M 58.106 190.3975 
L 450 190.3975 
" style="fill: none; stroke: #000000; stroke-width: 0.8; stroke-linejoin: miter; stroke-linecap: square"/>
   </g>
   <g id="patch_11">
    <path d="M 58.106 139.92 
L 450 139.92 
" style="fill: none; stroke: #000000; stroke-width: 0.8; stroke-linejoin: miter; stroke-linecap: square"/>
   </g>
   <g id="text_25">
    <!-- Error in $z$-position -->
    <g transform="translate(200.773 133.92)scale(0.12 -0.12)">
     <use xlink:href="#DejaVuSans-45" transform="translate(0 0.015625)"/>
     <use xlink:href="#DejaVuSans-72" transform="translate(63.183594 0.015625)"/>
     <use xlink:href="#DejaVuSans-72" transform="translate(104.296875 0.015625)"/>
     <use xlink:href="#DejaVuSans-6f" transform="translate(145.410156 0.015625)"/>
     <use xlink:href="#DejaVuSans-72" transform="translate(206.591797 0.015625)"/>
     <use xlink:href="#DejaVuSans-20" transform="translate(247.705078 0.015625)"/>
     <use xlink:href="#DejaVuSans-69" transform="translate(279.492188 0.015625)"/>
     <use xlink:href="#DejaVuSans-6e" transform="translate(307.275391 0.015625)"/>
     <use xlink:href="#DejaVuSans-20" transform="translate(370.654297 0.015625)"/>
     <use xlink:href="#DejaVuSans-Oblique-7a" transform="translate(402.441406 0.015625)"/>
     <use xlink:href="#DejaVuSans-2d" transform="translate(454.931641 0.015625)"/>
     <use xlink:href="#DejaVuSans-70" transform="translate(491.015625 0.015625)"/>
     <use xlink:href="#DejaVuSans-6f" transform="translate(554.492188 0.015625)"/>
     <use xlink:href="#DejaVuSans-73" transform="translate(615.673828 0.015625)"/>
     <use xlink:href="#DejaVuSans-69" transform="translate(667.773438 0.015625)"/>
     <use xlink:href="#DejaVuSans-74" transform="translate(695.556641 0.015625)"/>
     <use xlink:href="#DejaVuSans-69" transform="translate(734.765625 0.015625)"/>
     <use xlink:href="#DejaVuSans-6f" transform="translate(762.548828 0.015625)"/>
     <use xlink:href="#DejaVuSans-6e" transform="translate(823.730469 0.015625)"/>
    </g>
   </g>
  </g>
  <g id="axes_3">
   <g id="patch_12">
    <path d="M 58.106 301.9975 
L 450 301.9975 
L 450 251.52 
L 58.106 251.52 
z
" style="fill: #ffffff"/>
   </g>
   <g id="matplotlib.axis_5">
    <g id="xtick_15">
     <g id="line2d_41">
      <path d="M 75.919364 301.9975 
L 75.919364 251.52 
" clip-path="url(#p70762975b0)" style="fill: none; stroke: #b0b0b0; stroke-width: 0.8; stroke-linecap: square"/>
     </g>
     <g id="line2d_42">
      <g>
       <use xlink:href="#m0f83304a50" x="75.919364" y="301.9975" style="stroke: #000000; stroke-width: 0.8"/>
      </g>
     </g>
     <g id="text_26">
      <!-- 0 -->
      <g transform="translate(72.738114 316.595937)scale(0.1 -0.1)">
       <use xlink:href="#DejaVuSans-30"/>
      </g>
     </g>
    </g>
    <g id="xtick_16">
     <g id="line2d_43">
      <path d="M 135.645646 301.9975 
L 135.645646 251.52 
" clip-path="url(#p70762975b0)" style="fill: none; stroke: #b0b0b0; stroke-width: 0.8; stroke-linecap: square"/>
     </g>
     <g id="line2d_44">
      <g>
       <use xlink:href="#m0f83304a50" x="135.645646" y="301.9975" style="stroke: #000000; stroke-width: 0.8"/>
      </g>
     </g>
     <g id="text_27">
      <!-- 2 -->
      <g transform="translate(132.464396 316.595937)scale(0.1 -0.1)">
       <use xlink:href="#DejaVuSans-32"/>
      </g>
     </g>
    </g>
    <g id="xtick_17">
     <g id="line2d_45">
      <path d="M 195.371928 301.9975 
L 195.371928 251.52 
" clip-path="url(#p70762975b0)" style="fill: none; stroke: #b0b0b0; stroke-width: 0.8; stroke-linecap: square"/>
     </g>
     <g id="line2d_46">
      <g>
       <use xlink:href="#m0f83304a50" x="195.371928" y="301.9975" style="stroke: #000000; stroke-width: 0.8"/>
      </g>
     </g>
     <g id="text_28">
      <!-- 4 -->
      <g transform="translate(192.190678 316.595937)scale(0.1 -0.1)">
       <use xlink:href="#DejaVuSans-34"/>
      </g>
     </g>
    </g>
    <g id="xtick_18">
     <g id="line2d_47">
      <path d="M 255.09821 301.9975 
L 255.09821 251.52 
" clip-path="url(#p70762975b0)" style="fill: none; stroke: #b0b0b0; stroke-width: 0.8; stroke-linecap: square"/>
     </g>
     <g id="line2d_48">
      <g>
       <use xlink:href="#m0f83304a50" x="255.09821" y="301.9975" style="stroke: #000000; stroke-width: 0.8"/>
      </g>
     </g>
     <g id="text_29">
      <!-- 6 -->
      <g transform="translate(251.91696 316.595937)scale(0.1 -0.1)">
       <use xlink:href="#DejaVuSans-36"/>
      </g>
     </g>
    </g>
    <g id="xtick_19">
     <g id="line2d_49">
      <path d="M 314.824492 301.9975 
L 314.824492 251.52 
" clip-path="url(#p70762975b0)" style="fill: none; stroke: #b0b0b0; stroke-width: 0.8; stroke-linecap: square"/>
     </g>
     <g id="line2d_50">
      <g>
       <use xlink:href="#m0f83304a50" x="314.824492" y="301.9975" style="stroke: #000000; stroke-width: 0.8"/>
      </g>
     </g>
     <g id="text_30">
      <!-- 8 -->
      <g transform="translate(311.643242 316.595937)scale(0.1 -0.1)">
       <use xlink:href="#DejaVuSans-38"/>
      </g>
     </g>
    </g>
    <g id="xtick_20">
     <g id="line2d_51">
      <path d="M 374.550774 301.9975 
L 374.550774 251.52 
" clip-path="url(#p70762975b0)" style="fill: none; stroke: #b0b0b0; stroke-width: 0.8; stroke-linecap: square"/>
     </g>
     <g id="line2d_52">
      <g>
       <use xlink:href="#m0f83304a50" x="374.550774" y="301.9975" style="stroke: #000000; stroke-width: 0.8"/>
      </g>
     </g>
     <g id="text_31">
      <!-- 10 -->
      <g transform="translate(368.188274 316.595937)scale(0.1 -0.1)">
       <use xlink:href="#DejaVuSans-31"/>
       <use xlink:href="#DejaVuSans-30" x="63.623047"/>
      </g>
     </g>
    </g>
    <g id="xtick_21">
     <g id="line2d_53">
      <path d="M 434.277056 301.9975 
L 434.277056 251.52 
" clip-path="url(#p70762975b0)" style="fill: none; stroke: #b0b0b0; stroke-width: 0.8; stroke-linecap: square"/>
     </g>
     <g id="line2d_54">
      <g>
       <use xlink:href="#m0f83304a50" x="434.277056" y="301.9975" style="stroke: #000000; stroke-width: 0.8"/>
      </g>
     </g>
     <g id="text_32">
      <!-- 12 -->
      <g transform="translate(427.914556 316.595937)scale(0.1 -0.1)">
       <use xlink:href="#DejaVuSans-31"/>
       <use xlink:href="#DejaVuSans-32" x="63.623047"/>
      </g>
     </g>
    </g>
    <g id="text_33">
     <!-- $t$ [s] -->
     <g transform="translate(243.953 330.274063)scale(0.1 -0.1)">
      <use xlink:href="#DejaVuSans-Oblique-74" transform="translate(0 0.015625)"/>
      <use xlink:href="#DejaVuSans-20" transform="translate(39.208984 0.015625)"/>
      <use xlink:href="#DejaVuSans-5b" transform="translate(70.996094 0.015625)"/>
      <use xlink:href="#DejaVuSans-73" transform="translate(110.009766 0.015625)"/>
      <use xlink:href="#DejaVuSans-5d" transform="translate(162.109375 0.015625)"/>
     </g>
    </g>
   </g>
   <g id="matplotlib.axis_6">
    <g id="ytick_6">
     <g id="line2d_55">
      <path d="M 58.106 288.137096 
L 450 288.137096 
" clip-path="url(#p70762975b0)" style="fill: none; stroke: #b0b0b0; stroke-width: 0.8; stroke-linecap: square"/>
     </g>
     <g id="line2d_56">
      <g>
       <use xlink:href="#m87a9af5b31" x="58.106" y="288.137096" style="stroke: #000000; stroke-width: 0.8"/>
      </g>
     </g>
     <g id="text_34">
      <!-- −0.1 -->
      <g transform="translate(26.823188 291.936315)scale(0.1 -0.1)">
       <use xlink:href="#DejaVuSans-2212"/>
       <use xlink:href="#DejaVuSans-30" x="83.789062"/>
       <use xlink:href="#DejaVuSans-2e" x="147.412109"/>
       <use xlink:href="#DejaVuSans-31" x="179.199219"/>
      </g>
     </g>
    </g>
    <g id="ytick_7">
     <g id="line2d_57">
      <path d="M 58.106 274.083204 
L 450 274.083204 
" clip-path="url(#p70762975b0)" style="fill: none; stroke: #b0b0b0; stroke-width: 0.8; stroke-linecap: square"/>
     </g>
     <g id="line2d_58">
      <g>
       <use xlink:href="#m87a9af5b31" x="58.106" y="274.083204" style="stroke: #000000; stroke-width: 0.8"/>
      </g>
     </g>
     <g id="text_35">
      <!-- 0.0 -->
      <g transform="translate(35.202875 277.882422)scale(0.1 -0.1)">
       <use xlink:href="#DejaVuSans-30"/>
       <use xlink:href="#DejaVuSans-2e" x="63.623047"/>
       <use xlink:href="#DejaVuSans-30" x="95.410156"/>
      </g>
     </g>
    </g>
    <g id="ytick_8">
     <g id="line2d_59">
      <path d="M 58.106 260.029311 
L 450 260.029311 
" clip-path="url(#p70762975b0)" style="fill: none; stroke: #b0b0b0; stroke-width: 0.8; stroke-linecap: square"/>
     </g>
     <g id="line2d_60">
      <g>
       <use xlink:href="#m87a9af5b31" x="58.106" y="260.029311" style="stroke: #000000; stroke-width: 0.8"/>
      </g>
     </g>
     <g id="text_36">
      <!-- 0.1 -->
      <g transform="translate(35.202875 263.82853)scale(0.1 -0.1)">
       <use xlink:href="#DejaVuSans-30"/>
       <use xlink:href="#DejaVuSans-2e" x="63.623047"/>
       <use xlink:href="#DejaVuSans-31" x="95.410156"/>
      </g>
     </g>
    </g>
    <g id="text_37">
     <!-- $e_\theta$ [rad] -->
     <g transform="translate(20.7435 295.90875)rotate(-90)scale(0.1 -0.1)">
      <defs>
       <path id="DejaVuSans-Oblique-3b8" d="M 2913 2219 
L 925 2219 
Q 791 1284 928 888 
Q 1100 400 1566 400 
Q 2034 400 2391 891 
Q 2703 1322 2913 2219 
z
M 3009 2750 
Q 3094 3638 2984 3950 
Q 2813 4444 2353 4444 
Q 1875 4444 1525 3956 
Q 1250 3563 1034 2750 
L 3009 2750 
z
M 2444 4913 
Q 3194 4913 3494 4250 
Q 3794 3591 3566 2422 
Q 3341 1256 2781 594 
Q 2225 -72 1475 -72 
Q 722 -72 425 594 
Q 128 1256 353 2422 
Q 581 3591 1134 4250 
Q 1691 4913 2444 4913 
z
" transform="scale(0.015625)"/>
       <path id="DejaVuSans-61" d="M 2194 1759 
Q 1497 1759 1228 1600 
Q 959 1441 959 1056 
Q 959 750 1161 570 
Q 1363 391 1709 391 
Q 2188 391 2477 730 
Q 2766 1069 2766 1631 
L 2766 1759 
L 2194 1759 
z
M 3341 1997 
L 3341 0 
L 2766 0 
L 2766 531 
Q 2569 213 2275 61 
Q 1981 -91 1556 -91 
Q 1019 -91 701 211 
Q 384 513 384 1019 
Q 384 1609 779 1909 
Q 1175 2209 1959 2209 
L 2766 2209 
L 2766 2266 
Q 2766 2663 2505 2880 
Q 2244 3097 1772 3097 
Q 1472 3097 1187 3025 
Q 903 2953 641 2809 
L 641 3341 
Q 956 3463 1253 3523 
Q 1550 3584 1831 3584 
Q 2591 3584 2966 3190 
Q 3341 2797 3341 1997 
z
" transform="scale(0.015625)"/>
       <path id="DejaVuSans-64" d="M 2906 2969 
L 2906 4863 
L 3481 4863 
L 3481 0 
L 2906 0 
L 2906 525 
Q 2725 213 2448 61 
Q 2172 -91 1784 -91 
Q 1150 -91 751 415 
Q 353 922 353 1747 
Q 353 2572 751 3078 
Q 1150 3584 1784 3584 
Q 2172 3584 2448 3432 
Q 2725 3281 2906 2969 
z
M 947 1747 
Q 947 1113 1208 752 
Q 1469 391 1925 391 
Q 2381 391 2643 752 
Q 2906 1113 2906 1747 
Q 2906 2381 2643 2742 
Q 2381 3103 1925 3103 
Q 1469 3103 1208 2742 
Q 947 2381 947 1747 
z
" transform="scale(0.015625)"/>
      </defs>
      <use xlink:href="#DejaVuSans-Oblique-65" transform="translate(0 0.015625)"/>
      <use xlink:href="#DejaVuSans-Oblique-3b8" transform="translate(61.523438 -16.390625)scale(0.7)"/>
      <use xlink:href="#DejaVuSans-20" transform="translate(107.084961 0.015625)"/>
      <use xlink:href="#DejaVuSans-5b" transform="translate(138.87207 0.015625)"/>
      <use xlink:href="#DejaVuSans-72" transform="translate(177.885742 0.015625)"/>
      <use xlink:href="#DejaVuSans-61" transform="translate(218.999023 0.015625)"/>
      <use xlink:href="#DejaVuSans-64" transform="translate(280.27832 0.015625)"/>
      <use xlink:href="#DejaVuSans-5d" transform="translate(343.754883 0.015625)"/>
     </g>
    </g>
   </g>
   <g id="line2d_61">
    <path d="M 75.919364 274.037092 
L 76.218246 273.927816 
L 76.517128 273.445554 
L 77.413773 269.482593 
L 78.011537 266.430562 
L 78.908183 259.576878 
L 80.103711 254.918949 
L 80.402593 254.267173 
L 80.701475 254.317074 
L 81.000357 254.612012 
L 81.598121 255.884186 
L 81.897002 256.857581 
L 82.195884 258.708483 
L 82.494766 261.818658 
L 83.391412 267.573285 
L 83.690294 269.694219 
L 84.885822 281.744915 
L 85.184704 283.801481 
L 85.782468 290.248243 
L 86.08135 290.248243 
L 86.380232 293.288929 
L 87.276877 297.226398 
L 87.874641 297.527719 
L 88.472405 296.3916 
L 89.070169 293.646435 
L 89.369051 291.738582 
L 89.667933 291.738582 
L 89.966815 288.612691 
L 90.265697 286.777276 
L 90.863461 280.558217 
L 91.162343 279.464539 
L 91.461225 277.264842 
L 91.760106 272.993646 
L 92.058988 270.951525 
L 92.656752 265.424619 
L 92.955634 264.596609 
L 93.254516 263.048408 
L 93.553398 260.54752 
L 94.151162 258.751784 
L 94.450044 258.420783 
L 94.748926 258.410061 
L 95.047808 258.530593 
L 95.944454 260.837149 
L 96.542218 263.224074 
L 96.841099 263.224074 
L 97.438863 266.230453 
L 97.737745 267.483139 
L 98.036627 267.889245 
L 98.634391 269.421784 
L 99.232155 271.714499 
L 99.531037 272.501055 
L 99.829919 272.73761 
L 100.427683 273.576281 
L 100.726565 274.465196 
L 101.025447 274.465196 
L 101.324329 275.098262 
L 102.519856 276.047531 
L 102.818738 276.216892 
L 103.416502 276.191519 
L 104.014266 275.852031 
L 104.313148 275.625479 
L 104.61203 275.625479 
L 104.910912 275.388682 
L 105.209794 275.328677 
L 106.10644 275.819436 
L 106.405322 276.212066 
L 107.600849 280.423028 
L 108.198613 282.547852 
L 108.497495 284.598631 
L 109.095259 286.391488 
L 109.394141 286.773474 
L 109.693023 286.762023 
L 109.991905 286.519228 
L 110.589669 283.558271 
L 110.888551 281.544573 
L 111.187433 280.811603 
L 111.785196 277.668076 
L 112.084078 274.437468 
L 112.38296 272.836033 
L 113.279606 266.324781 
L 113.578488 266.324781 
L 113.87737 264.050846 
L 114.774016 260.996806 
L 115.072898 260.71421 
L 115.37178 260.180357 
L 115.670662 259.194831 
L 116.567308 257.810804 
L 117.165071 257.707242 
L 117.762835 258.676487 
L 118.360599 261.277425 
L 118.659481 262.939527 
L 118.958363 262.939527 
L 119.257245 265.249551 
L 121.050537 271.780493 
L 121.6483 272.726752 
L 122.246064 273.330073 
L 122.544946 273.302956 
L 123.14271 272.923901 
L 123.740474 272.327206 
L 124.63712 270.808408 
L 126.13153 269.414203 
L 127.327057 269.061707 
L 129.419231 268.5673 
L 130.016995 268.661637 
L 130.614759 269.022009 
L 130.913641 269.301556 
L 131.212523 269.855306 
L 131.511405 270.821456 
L 132.706932 273.137212 
L 133.603578 275.451071 
L 134.500224 276.509265 
L 135.39687 277.110733 
L 135.994634 277.002259 
L 136.293516 276.877114 
L 136.592397 276.498547 
L 136.891279 276.498547 
L 137.190161 275.597784 
L 137.489043 275.415154 
L 138.086807 274.595226 
L 138.385689 273.671788 
L 138.684571 273.671788 
L 138.983453 272.172606 
L 139.282335 271.909214 
L 139.880099 270.853813 
L 140.178981 269.911664 
L 140.776745 268.929947 
L 141.075627 268.349005 
L 141.374509 268.149918 
L 141.67339 267.747228 
L 141.972272 266.921109 
L 142.271154 266.494304 
L 142.868918 265.074922 
L 143.1678 264.206592 
L 143.466682 264.206592 
L 143.765564 262.869646 
L 144.064446 262.12357 
L 144.66221 259.674194 
L 144.961092 259.255871 
L 145.259974 258.425738 
L 145.558856 256.824869 
L 146.754383 254.033985 
L 147.053265 254.033985 
L 147.352147 253.814432 
L 147.949911 253.989733 
L 148.248793 254.320299 
L 148.547675 254.963292 
L 150.340967 256.996508 
L 150.639849 256.996508 
L 151.237613 256.65245 
L 151.835376 256.097986 
L 152.732022 254.816045 
L 153.030904 254.713138 
L 153.329786 254.72789 
L 153.628668 254.875926 
L 153.92755 255.163957 
L 154.226432 255.867256 
L 154.525314 257.236716 
L 155.42196 259.876002 
L 156.318606 263.994006 
L 157.215251 266.176693 
L 158.111897 267.677453 
L 158.709661 267.645673 
L 159.008543 267.522178 
L 159.307425 267.120179 
L 159.606307 267.120179 
L 159.905189 266.354994 
L 160.502953 266.036844 
L 161.100717 265.752481 
L 161.69848 265.808681 
L 163.491772 266.241518 
L 163.790654 266.551794 
L 164.089536 267.259777 
L 164.388418 267.259777 
L 164.986182 269.083123 
L 165.285064 269.919845 
L 165.583946 271.384462 
L 165.882828 273.679152 
L 166.18171 273.679152 
L 166.480592 276.259161 
L 166.779473 277.584653 
L 167.377237 281.278621 
L 167.676119 281.773456 
L 168.273883 283.6304 
L 168.572765 283.767028 
L 168.871647 283.467434 
L 169.170529 282.63303 
L 169.469411 282.254543 
L 169.768293 281.369081 
L 170.067175 279.224226 
L 170.366057 279.224226 
L 170.664939 275.713005 
L 170.963821 275.155237 
L 172.159348 271.275007 
L 172.757112 271.535188 
L 173.055994 272.034471 
L 173.354876 272.757593 
L 173.653758 274.757256 
L 173.95264 275.937632 
L 174.550404 279.792424 
L 174.849286 280.424213 
L 175.44705 283.154085 
L 176.044814 283.090379 
L 176.343696 282.789552 
L 176.941459 280.884601 
L 177.240341 278.071582 
L 177.539223 276.437475 
L 178.136987 271.136152 
L 178.435869 270.250975 
L 178.734751 268.530047 
L 179.033633 265.386698 
L 179.930279 261.366638 
L 180.528043 260.934788 
L 180.826925 261.399953 
L 181.125807 261.399953 
L 181.424689 263.998953 
L 181.72357 264.599894 
L 182.321334 267.240025 
L 182.620216 270.060697 
L 183.815744 275.484068 
L 184.413508 275.430302 
L 184.71239 274.901923 
L 185.011272 273.537819 
L 185.310154 271.613251 
L 185.609036 270.87834 
L 185.907918 269.311442 
L 186.2068 265.94296 
L 186.505682 264.231909 
L 187.402327 257.409705 
L 187.701209 257.409705 
L 188.000091 255.446173 
L 188.298973 254.861708 
L 188.597855 254.5812 
L 189.195619 255.33931 
L 189.494501 256.158064 
L 189.793383 258.493321 
L 190.092265 258.493321 
L 190.391147 262.964642 
L 190.690029 263.750654 
L 191.287793 266.825169 
L 191.586674 269.387968 
L 192.184438 271.313865 
L 192.48332 271.650858 
L 192.782202 271.627083 
L 193.081084 271.376547 
L 193.97773 267.602445 
L 194.575494 263.97509 
L 194.874376 263.97509 
L 195.173258 261.765394 
L 195.771022 260.095941 
L 196.069904 259.466506 
L 196.368786 259.626426 
L 196.667667 259.626426 
L 197.863195 265.008947 
L 198.162077 267.933412 
L 199.357605 273.436099 
L 199.955369 275.451463 
L 200.254251 275.776945 
L 200.553133 275.551345 
L 201.150897 274.506466 
L 201.449779 273.759187 
L 201.74866 272.435174 
L 202.047542 270.49074 
L 203.541952 265.617468 
L 203.840834 265.617468 
L 204.139716 265.393291 
L 204.438598 265.570927 
L 204.73748 265.936725 
L 205.036362 266.482351 
L 205.933008 271.311863 
L 206.23189 271.892214 
L 206.829653 274.183545 
L 207.128535 276.133577 
L 208.025181 278.247474 
L 208.622945 278.365602 
L 209.220709 277.274931 
L 209.818473 274.70093 
L 210.117355 273.100354 
L 210.416237 273.100354 
L 210.715119 270.855157 
L 211.611764 267.314373 
L 211.910646 265.999456 
L 212.209528 265.636165 
L 212.50841 265.489152 
L 212.807292 265.570582 
L 213.106174 266.123173 
L 213.703938 268.576867 
L 214.00282 268.576867 
L 214.301702 270.783526 
L 214.600584 271.934184 
L 215.198348 274.913324 
L 215.49723 275.907414 
L 215.796112 275.907414 
L 216.094994 276.533483 
L 216.393876 276.513417 
L 216.692757 276.042731 
L 216.991639 275.04705 
L 217.290521 274.610067 
L 217.589403 273.59732 
L 217.888285 271.123214 
L 218.187167 269.74047 
L 218.784931 265.473426 
L 219.083813 264.778358 
L 219.382695 263.477846 
L 219.681577 261.456652 
L 219.980459 260.834563 
L 220.279341 260.504509 
L 220.877105 261.116038 
L 221.175987 261.818121 
L 221.474869 263.823984 
L 221.77375 265.050894 
L 222.371514 268.9959 
L 222.670396 269.641594 
L 222.969278 270.860982 
L 223.26816 272.782725 
L 223.865924 273.910853 
L 224.463688 273.6962 
L 224.76257 273.238271 
L 225.360334 270.5892 
L 225.659216 269.377003 
L 225.958098 267.366618 
L 226.25698 264.508401 
L 226.555862 264.508401 
L 226.854743 261.82465 
L 227.751389 258.550414 
L 228.349153 258.642501 
L 229.245799 262.230699 
L 229.544681 264.353293 
L 229.843563 267.396998 
L 230.142445 267.396998 
L 230.441327 270.339736 
L 231.337973 274.261584 
L 231.636854 275.138556 
L 231.935736 275.138556 
L 232.234618 274.898032 
L 232.5335 274.386579 
L 232.832382 273.649145 
L 233.131264 272.17178 
L 233.430146 269.679197 
L 233.729028 269.679197 
L 234.02791 266.914 
L 235.223438 261.630661 
L 235.52232 260.938751 
L 235.821202 261.090899 
L 236.120084 261.550815 
L 236.717847 263.266595 
L 237.016729 264.437269 
L 237.315611 266.478063 
L 237.614493 269.433892 
L 238.511139 273.702685 
L 238.810021 275.98873 
L 239.108903 275.98873 
L 239.407785 277.574628 
L 239.706667 277.58324 
L 240.005549 277.389008 
L 240.304431 276.922556 
L 241.499959 270.090097 
L 241.79884 269.373122 
L 242.097722 267.965282 
L 242.396604 265.429513 
L 242.994368 263.326108 
L 243.29325 262.891084 
L 243.592132 262.885501 
L 243.891014 263.095409 
L 244.189896 264.3511 
L 244.488778 264.3511 
L 244.78766 267.865212 
L 245.086542 268.572516 
L 245.684306 271.590451 
L 245.983188 274.602041 
L 246.879833 279.218677 
L 247.776479 280.190853 
L 248.075361 279.796883 
L 248.673125 277.045651 
L 249.569771 272.639953 
L 250.466417 265.442291 
L 251.363063 261.580556 
L 251.661944 260.403713 
L 251.960826 260.016482 
L 252.259708 260.353332 
L 252.55859 261.018442 
L 252.857472 261.980437 
L 253.156354 264.617172 
L 253.455236 264.617172 
L 253.754118 269.630009 
L 254.053 270.518991 
L 254.650764 274.081425 
L 254.949646 277.465644 
L 255.846292 281.978557 
L 256.444056 282.417492 
L 256.742937 281.734824 
L 257.041819 281.734824 
L 257.340701 278.261617 
L 257.639583 277.469812 
L 258.237347 273.925126 
L 258.536229 270.031088 
L 258.835111 268.071725 
L 259.432875 262.395554 
L 259.731757 261.504003 
L 260.030639 259.851148 
L 260.329521 257.245488 
L 260.628403 257.245488 
L 260.927285 255.738654 
L 261.226167 255.796785 
L 261.525049 256.171419 
L 261.82393 256.872726 
L 263.019458 265.877968 
L 263.31834 266.823144 
L 263.617222 268.718194 
L 263.916104 272.485271 
L 264.513868 276.690392 
L 264.81275 278.717721 
L 265.111632 279.285747 
L 265.709396 280.979035 
L 266.008278 280.979035 
L 266.30716 279.455919 
L 266.606041 278.918952 
L 267.203805 276.190424 
L 267.502687 272.821655 
L 267.801569 272.821655 
L 268.100451 267.339941 
L 268.399333 266.433429 
L 268.997097 262.904166 
L 269.295979 259.802748 
L 269.893743 257.192333 
L 270.192625 256.582327 
L 270.491507 256.549451 
L 270.790389 256.745855 
L 271.687034 260.699728 
L 271.985916 263.135895 
L 272.284798 266.803219 
L 274.675854 281.694199 
L 274.974736 282.205888 
L 275.273618 282.400528 
L 275.5725 282.264216 
L 275.871382 281.447711 
L 276.469146 278.026679 
L 277.066909 274.862685 
L 277.664673 268.774537 
L 277.963555 268.774537 
L 278.262437 265.351744 
L 279.457965 259.37712 
L 279.756847 259.37712 
L 280.055729 259.541023 
L 280.354611 260.120596 
L 280.653493 260.990528 
L 280.952375 262.769284 
L 281.251257 265.757138 
L 281.550138 265.757138 
L 281.84902 269.149635 
L 282.446784 272.611544 
L 283.044548 278.01886 
L 283.34343 278.01886 
L 283.642312 280.315736 
L 284.240076 281.994085 
L 284.538958 282.166178 
L 284.83784 282.062449 
L 285.136722 281.616877 
L 285.435604 279.873185 
L 285.734486 279.873185 
L 286.033368 275.669972 
L 286.33225 274.850995 
L 286.930013 271.433068 
L 287.228895 267.926531 
L 287.527777 266.220099 
L 288.125541 261.853437 
L 288.424423 260.375707 
L 288.723305 260.375707 
L 289.022187 259.477386 
L 289.321069 259.505907 
L 289.619951 259.856725 
L 289.918833 260.939541 
L 290.217715 263.239254 
L 290.516597 263.239254 
L 290.815479 266.155936 
L 291.413243 269.360368 
L 292.309888 275.921561 
L 293.206534 279.136699 
L 293.505416 279.665499 
L 293.804298 279.697523 
L 294.10318 279.5369 
L 294.700944 276.814519 
L 294.999826 274.850655 
L 295.298708 274.121363 
L 295.896472 270.969458 
L 296.494236 265.368104 
L 296.793117 263.274298 
L 297.091999 262.657452 
L 297.689763 260.707153 
L 297.988645 259.889188 
L 298.287527 259.966938 
L 298.586409 260.670378 
L 298.885291 261.983245 
L 299.184173 262.534849 
L 299.483055 263.785426 
L 299.781937 266.699162 
L 300.080819 268.284818 
L 300.977465 275.399244 
L 301.276347 275.399244 
L 301.575228 277.92659 
L 302.172992 279.846085 
L 302.471874 280.128908 
L 302.770756 279.712415 
L 303.069638 279.712415 
L 303.667402 277.021176 
L 303.966284 275.697322 
L 304.265166 273.471085 
L 304.564048 270.238923 
L 304.86293 270.238923 
L 305.460694 264.708973 
L 305.759576 262.760456 
L 306.058458 262.230365 
L 306.656221 260.85337 
L 306.955103 260.737164 
L 307.253985 261.165719 
L 307.552867 262.356364 
L 307.851749 264.087285 
L 308.150631 264.754557 
L 308.449513 266.199737 
L 308.748395 269.395789 
L 309.047277 271.052665 
L 309.943923 278.131945 
L 310.242805 278.131945 
L 310.541687 280.411861 
L 311.139451 281.670989 
L 311.438333 281.417452 
L 311.737214 280.430869 
L 312.036096 280.430869 
L 312.932742 273.582451 
L 313.231624 272.742532 
L 313.829388 269.370479 
L 314.427152 264.020463 
L 314.726034 262.326897 
L 315.024916 261.87116 
L 315.323798 261.151741 
L 315.62268 260.726145 
L 315.921562 260.840843 
L 316.220444 261.767996 
L 316.519326 263.30566 
L 316.818207 263.931448 
L 317.415971 266.814661 
L 317.714853 270.919976 
L 318.013735 270.919976 
L 318.312617 274.255694 
L 319.807027 281.819514 
L 320.105909 281.908392 
L 320.404791 281.66578 
L 320.703673 281.116864 
L 321.002555 280.288257 
L 321.301437 277.940814 
L 321.600318 277.940814 
L 321.8992 273.334342 
L 322.198082 272.495761 
L 323.39361 265.094065 
L 323.692492 262.4637 
L 324.290256 260.698498 
L 324.589138 260.216623 
L 324.88802 260.034811 
L 325.186902 260.345745 
L 326.38243 265.864808 
L 326.681311 268.353959 
L 326.980193 271.895268 
L 329.072367 284.233243 
L 329.371249 284.675965 
L 329.670131 284.775765 
L 329.969013 284.528297 
L 330.267895 283.038734 
L 330.566777 283.038734 
L 330.865659 278.820883 
L 331.164541 277.95861 
L 331.762304 274.243564 
L 332.061186 270.379002 
L 332.360068 270.379002 
L 332.65895 264.867519 
L 332.957832 264.023959 
L 333.854478 259.027868 
L 334.15336 259.027868 
L 334.452242 258.549312 
L 334.751124 258.76412 
L 335.050006 259.421413 
L 335.348888 260.360418 
L 335.64777 262.931903 
L 335.946652 262.931903 
L 336.245534 267.817313 
L 336.544415 268.681642 
L 337.142179 272.120013 
L 337.441061 275.392462 
L 338.038825 278.883965 
L 338.337707 280.552725 
L 338.636589 281.008672 
L 339.234353 282.332589 
L 339.533235 282.172284 
L 339.832117 281.35997 
L 340.130999 279.95112 
L 340.429881 279.37124 
L 340.728763 278.074193 
L 341.027645 275.08613 
L 341.326527 273.48484 
L 341.92429 268.646867 
L 342.223172 267.875763 
L 342.522054 266.405864 
L 342.820936 263.830409 
L 343.717582 261.13587 
L 344.315346 261.152088 
L 344.91311 262.882061 
L 345.510874 266.251641 
L 345.809756 266.89712 
L 346.108638 268.207631 
L 346.706401 272.73654 
L 347.005283 274.490505 
L 347.304165 275.045267 
L 348.499693 278.998694 
L 348.798575 279.355472 
L 349.396339 279.210112 
L 349.695221 278.89936 
L 350.292985 277.276462 
L 350.591867 276.620803 
L 351.189631 274.443076 
L 351.488513 274.443076 
L 351.787394 273.52564 
L 352.68404 272.591023 
L 353.580686 272.489789 
L 354.17845 272.643132 
L 354.776214 272.930748 
L 355.075096 272.930748 
L 355.67286 273.124672 
L 356.270624 273.020147 
L 356.868387 272.801591 
L 357.765033 271.238769 
L 358.063915 270.398087 
L 358.362797 270.086029 
L 358.661679 269.428525 
L 358.960561 268.062684 
L 360.156089 265.649046 
L 360.454971 265.649046 
L 361.052735 266.18167 
L 361.351617 266.641541 
L 361.650498 267.503546 
L 361.94938 268.848258 
L 363.144908 271.350502 
L 363.742672 272.078716 
L 364.041554 271.818317 
L 364.639318 270.78022 
L 365.237082 269.11518 
L 365.535964 266.583249 
L 365.834846 266.583249 
L 366.133728 264.6787 
L 366.731491 263.237133 
L 367.329255 262.513311 
L 367.628137 262.897742 
L 367.927019 263.71367 
L 368.225901 264.065446 
L 368.823665 265.784775 
L 369.122547 267.875865 
L 369.421429 267.875865 
L 369.720311 271.35832 
L 370.019193 271.94499 
L 371.513603 277.832999 
L 371.812484 278.210398 
L 372.111366 278.407488 
L 372.410248 278.424834 
L 372.70913 277.96104 
L 373.008012 277.96104 
L 373.306894 276.453371 
L 373.605776 276.186484 
L 374.502422 274.692166 
L 375.100186 274.396816 
L 375.996832 274.432076 
L 377.790123 275.244351 
L 378.089005 275.704498 
L 378.387887 275.704498 
L 378.686769 276.50121 
L 379.284533 276.831282 
L 379.882297 277.084619 
L 380.181179 277.084619 
L 380.480061 276.601947 
L 380.778943 276.445279 
L 381.376707 275.601148 
L 381.675588 274.445197 
L 381.97447 274.445197 
L 382.273352 272.568705 
L 382.572234 272.285444 
L 383.169998 271.368929 
L 383.46888 271.037739 
L 383.767762 271.037739 
L 384.066644 271.807209 
L 384.365526 272.058935 
L 384.96329 273.336877 
L 385.262172 274.966314 
L 385.561054 274.966314 
L 385.859936 277.773745 
L 386.158818 278.238202 
L 387.354345 281.506858 
L 387.952109 281.137701 
L 388.549873 279.772461 
L 388.848755 277.634579 
L 389.147637 277.634579 
L 389.446519 273.872184 
L 389.745401 273.263536 
L 390.940929 269.02934 
L 391.538692 269.18021 
L 392.136456 270.157439 
L 392.435338 271.69588 
L 392.73422 272.585332 
L 393.630866 276.523206 
L 393.929748 276.523206 
L 394.22863 277.775582 
L 394.527512 278.158425 
L 394.826394 278.330642 
L 395.72304 277.067852 
L 396.021922 275.316459 
L 396.619685 273.288187 
L 397.217449 270.126365 
L 397.815213 269.009062 
L 398.114095 268.710684 
L 398.412977 268.596833 
L 398.711859 268.654747 
L 399.010741 269.011824 
L 399.309623 269.822944 
L 400.206269 271.272689 
L 400.804033 272.657617 
L 401.99956 273.65655 
L 402.597324 274.263387 
L 402.896206 274.751793 
L 403.49397 275.065554 
L 403.792852 275.098829 
L 404.091734 274.963668 
L 404.689498 274.259574 
L 405.885026 273.126963 
L 406.183908 272.593693 
L 407.379435 271.623289 
L 407.977199 271.313838 
L 409.471609 271.123101 
L 409.770491 271.344812 
L 411.264901 275.913127 
L 411.563782 278.116574 
L 411.862664 278.116574 
L 412.161546 279.051994 
L 412.460428 279.188838 
L 412.75931 279.11155 
L 413.058192 278.829279 
L 413.357074 277.280507 
L 413.655956 277.280507 
L 413.954838 275.478756 
L 416.047012 268.868408 
L 416.644775 268.34567 
L 417.242539 268.407046 
L 417.840303 269.209432 
L 418.438067 269.773895 
L 418.736949 270.608982 
L 419.035831 270.608982 
L 419.633595 272.390124 
L 420.231359 274.086977 
L 420.530241 275.739037 
L 421.128005 277.30816 
L 421.725768 277.498516 
L 422.02465 277.388665 
L 423.51906 273.874251 
L 423.817942 273.874251 
L 424.116824 273.604668 
L 424.415706 273.716007 
L 424.714588 274.007166 
L 425.01347 274.485908 
L 425.312352 275.523492 
L 425.611234 277.467539 
L 426.507879 281.453094 
L 427.105643 284.561274 
L 428.002289 291.235368 
L 429.795581 298.64477 
L 430.393345 299.522434 
L 430.692227 299.703068 
L 430.991109 299.518059 
L 432.186636 293.844448 
L 432.186636 293.844448 
" clip-path="url(#p70762975b0)" style="fill: none; stroke: #008000; stroke-width: 1.5; stroke-linecap: square"/>
   </g>
   <g id="patch_13">
    <path d="M 58.106 301.9975 
L 58.106 251.52 
" style="fill: none; stroke: #000000; stroke-width: 0.8; stroke-linejoin: miter; stroke-linecap: square"/>
   </g>
   <g id="patch_14">
    <path d="M 450 301.9975 
L 450 251.52 
" style="fill: none; stroke: #000000; stroke-width: 0.8; stroke-linejoin: miter; stroke-linecap: square"/>
   </g>
   <g id="patch_15">
    <path d="M 58.106 301.9975 
L 450 301.9975 
" style="fill: none; stroke: #000000; stroke-width: 0.8; stroke-linejoin: miter; stroke-linecap: square"/>
   </g>
   <g id="patch_16">
    <path d="M 58.106 251.52 
L 450 251.52 
" style="fill: none; stroke: #000000; stroke-width: 0.8; stroke-linejoin: miter; stroke-linecap: square"/>
   </g>
   <g id="text_38">
    <!-- Error in swing angle -->
    <g transform="translate(194.282688 245.52)scale(0.12 -0.12)">
     <defs>
      <path id="DejaVuSans-77" d="M 269 3500 
L 844 3500 
L 1563 769 
L 2278 3500 
L 2956 3500 
L 3675 769 
L 4391 3500 
L 4966 3500 
L 4050 0 
L 3372 0 
L 2619 2869 
L 1863 0 
L 1184 0 
L 269 3500 
z
" transform="scale(0.015625)"/>
      <path id="DejaVuSans-67" d="M 2906 1791 
Q 2906 2416 2648 2759 
Q 2391 3103 1925 3103 
Q 1463 3103 1205 2759 
Q 947 2416 947 1791 
Q 947 1169 1205 825 
Q 1463 481 1925 481 
Q 2391 481 2648 825 
Q 2906 1169 2906 1791 
z
M 3481 434 
Q 3481 -459 3084 -895 
Q 2688 -1331 1869 -1331 
Q 1566 -1331 1297 -1286 
Q 1028 -1241 775 -1147 
L 775 -588 
Q 1028 -725 1275 -790 
Q 1522 -856 1778 -856 
Q 2344 -856 2625 -561 
Q 2906 -266 2906 331 
L 2906 616 
Q 2728 306 2450 153 
Q 2172 0 1784 0 
Q 1141 0 747 490 
Q 353 981 353 1791 
Q 353 2603 747 3093 
Q 1141 3584 1784 3584 
Q 2172 3584 2450 3431 
Q 2728 3278 2906 2969 
L 2906 3500 
L 3481 3500 
L 3481 434 
z
" transform="scale(0.015625)"/>
      <path id="DejaVuSans-6c" d="M 603 4863 
L 1178 4863 
L 1178 0 
L 603 0 
L 603 4863 
z
" transform="scale(0.015625)"/>
      <path id="DejaVuSans-65" d="M 3597 1894 
L 3597 1613 
L 953 1613 
Q 991 1019 1311 708 
Q 1631 397 2203 397 
Q 2534 397 2845 478 
Q 3156 559 3463 722 
L 3463 178 
Q 3153 47 2828 -22 
Q 2503 -91 2169 -91 
Q 1331 -91 842 396 
Q 353 884 353 1716 
Q 353 2575 817 3079 
Q 1281 3584 2069 3584 
Q 2775 3584 3186 3129 
Q 3597 2675 3597 1894 
z
M 3022 2063 
Q 3016 2534 2758 2815 
Q 2500 3097 2075 3097 
Q 1594 3097 1305 2825 
Q 1016 2553 972 2059 
L 3022 2063 
z
" transform="scale(0.015625)"/>
     </defs>
     <use xlink:href="#DejaVuSans-45"/>
     <use xlink:href="#DejaVuSans-72" x="63.183594"/>
     <use xlink:href="#DejaVuSans-72" x="102.546875"/>
     <use xlink:href="#DejaVuSans-6f" x="141.410156"/>
     <use xlink:href="#DejaVuSans-72" x="202.591797"/>
     <use xlink:href="#DejaVuSans-20" x="243.705078"/>
     <use xlink:href="#DejaVuSans-69" x="275.492188"/>
     <use xlink:href="#DejaVuSans-6e" x="303.275391"/>
     <use xlink:href="#DejaVuSans-20" x="366.654297"/>
     <use xlink:href="#DejaVuSans-73" x="398.441406"/>
     <use xlink:href="#DejaVuSans-77" x="450.541016"/>
     <use xlink:href="#DejaVuSans-69" x="532.328125"/>
     <use xlink:href="#DejaVuSans-6e" x="560.111328"/>
     <use xlink:href="#DejaVuSans-67" x="623.490234"/>
     <use xlink:href="#DejaVuSans-20" x="686.966797"/>
     <use xlink:href="#DejaVuSans-61" x="718.753906"/>
     <use xlink:href="#DejaVuSans-6e" x="780.033203"/>
     <use xlink:href="#DejaVuSans-67" x="843.412109"/>
     <use xlink:href="#DejaVuSans-6c" x="906.888672"/>
     <use xlink:href="#DejaVuSans-65" x="934.671875"/>
    </g>
   </g>
  </g>
 </g>
 <defs>
  <clipPath id="pd70b541343">
   <rect x="58.106" y="28.32" width="391.894" height="50.4775"/>
  </clipPath>
  <clipPath id="p92e356ffea">
   <rect x="58.106" y="139.92" width="391.894" height="50.4775"/>
  </clipPath>
  <clipPath id="p70762975b0">
   <rect x="58.106" y="251.52" width="391.894" height="50.4775"/>
  </clipPath>
 </defs>
</svg>
