<?xml version="1.0" encoding="utf-8" standalone="no"?>
<!DOCTYPE svg PUBLIC "-//W3C//DTD SVG 1.1//EN"
  "http://www.w3.org/Graphics/SVG/1.1/DTD/svg11.dtd">
<svg xmlns:xlink="http://www.w3.org/1999/xlink" width="460.8pt" height="345.6pt" viewBox="0 0 460.8 345.6" xmlns="http://www.w3.org/2000/svg" version="1.1">
 <metadata>
  <rdf:RDF xmlns:dc="http://purl.org/dc/elements/1.1/" xmlns:cc="http://creativecommons.org/ns#" xmlns:rdf="http://www.w3.org/1999/02/22-rdf-syntax-ns#">
   <cc:Work>
    <dc:type rdf:resource="http://purl.org/dc/dcmitype/StillImage"/>
    <dc:date>2022-06-05T18:21:23.357295</dc:date>
    <dc:format>image/svg+xml</dc:format>
    <dc:creator>
     <cc:Agent>
      <dc:title>Matplotlib v3.5.1, https://matplotlib.org/</dc:title>
     </cc:Agent>
    </dc:creator>
   </cc:Work>
  </rdf:RDF>
 </metadata>
 <defs>
  <style type="text/css">*{stroke-linejoin: round; stroke-linecap: butt}</style>
 </defs>
 <g id="figure_1">
  <g id="patch_1">
   <path d="M 0 345.6 
L 460.8 345.6 
L 460.8 0 
L 0 0 
z
" style="fill: #ffffff"/>
  </g>
  <g id="axes_1">
   <g id="patch_2">
    <path d="M 58.016 78.7975 
L 450 78.7975 
L 450 28.32 
L 58.016 28.32 
z
" style="fill: #ffffff"/>
   </g>
   <g id="matplotlib.axis_1">
    <g id="xtick_1">
     <g id="line2d_1">
      <path d="M 75.833455 78.7975 
L 75.833455 28.32 
" clip-path="url(#pa2d52a1849)" style="fill: none; stroke: #b0b0b0; stroke-width: 0.8; stroke-linecap: square"/>
     </g>
     <g id="line2d_2">
      <defs>
       <path id="md8059ce55b" d="M 0 0 
L 0 3.5 
" style="stroke: #000000; stroke-width: 0.8"/>
      </defs>
      <g>
       <use xlink:href="#md8059ce55b" x="75.833455" y="78.7975" style="stroke: #000000; stroke-width: 0.8"/>
      </g>
     </g>
     <g id="text_1">
      <!-- 0 -->
      <g transform="translate(72.652205 93.395937)scale(0.1 -0.1)">
       <defs>
        <path id="DejaVuSans-30" d="M 2034 4250 
Q 1547 4250 1301 3770 
Q 1056 3291 1056 2328 
Q 1056 1369 1301 889 
Q 1547 409 2034 409 
Q 2525 409 2770 889 
Q 3016 1369 3016 2328 
Q 3016 3291 2770 3770 
Q 2525 4250 2034 4250 
z
M 2034 4750 
Q 2819 4750 3233 4129 
Q 3647 3509 3647 2328 
Q 3647 1150 3233 529 
Q 2819 -91 2034 -91 
Q 1250 -91 836 529 
Q 422 1150 422 2328 
Q 422 3509 836 4129 
Q 1250 4750 2034 4750 
z
" transform="scale(0.015625)"/>
       </defs>
       <use xlink:href="#DejaVuSans-30"/>
      </g>
     </g>
    </g>
    <g id="xtick_2">
     <g id="line2d_3">
      <path d="M 129.419784 78.7975 
L 129.419784 28.32 
" clip-path="url(#pa2d52a1849)" style="fill: none; stroke: #b0b0b0; stroke-width: 0.8; stroke-linecap: square"/>
     </g>
     <g id="line2d_4">
      <g>
       <use xlink:href="#md8059ce55b" x="129.419784" y="78.7975" style="stroke: #000000; stroke-width: 0.8"/>
      </g>
     </g>
     <g id="text_2">
      <!-- 1 -->
      <g transform="translate(126.238534 93.395937)scale(0.1 -0.1)">
       <defs>
        <path id="DejaVuSans-31" d="M 794 531 
L 1825 531 
L 1825 4091 
L 703 3866 
L 703 4441 
L 1819 4666 
L 2450 4666 
L 2450 531 
L 3481 531 
L 3481 0 
L 794 0 
L 794 531 
z
" transform="scale(0.015625)"/>
       </defs>
       <use xlink:href="#DejaVuSans-31"/>
      </g>
     </g>
    </g>
    <g id="xtick_3">
     <g id="line2d_5">
      <path d="M 183.006113 78.7975 
L 183.006113 28.32 
" clip-path="url(#pa2d52a1849)" style="fill: none; stroke: #b0b0b0; stroke-width: 0.8; stroke-linecap: square"/>
     </g>
     <g id="line2d_6">
      <g>
       <use xlink:href="#md8059ce55b" x="183.006113" y="78.7975" style="stroke: #000000; stroke-width: 0.8"/>
      </g>
     </g>
     <g id="text_3">
      <!-- 2 -->
      <g transform="translate(179.824863 93.395937)scale(0.1 -0.1)">
       <defs>
        <path id="DejaVuSans-32" d="M 1228 531 
L 3431 531 
L 3431 0 
L 469 0 
L 469 531 
Q 828 903 1448 1529 
Q 2069 2156 2228 2338 
Q 2531 2678 2651 2914 
Q 2772 3150 2772 3378 
Q 2772 3750 2511 3984 
Q 2250 4219 1831 4219 
Q 1534 4219 1204 4116 
Q 875 4013 500 3803 
L 500 4441 
Q 881 4594 1212 4672 
Q 1544 4750 1819 4750 
Q 2544 4750 2975 4387 
Q 3406 4025 3406 3419 
Q 3406 3131 3298 2873 
Q 3191 2616 2906 2266 
Q 2828 2175 2409 1742 
Q 1991 1309 1228 531 
z
" transform="scale(0.015625)"/>
       </defs>
       <use xlink:href="#DejaVuSans-32"/>
      </g>
     </g>
    </g>
    <g id="xtick_4">
     <g id="line2d_7">
      <path d="M 236.592443 78.7975 
L 236.592443 28.32 
" clip-path="url(#pa2d52a1849)" style="fill: none; stroke: #b0b0b0; stroke-width: 0.8; stroke-linecap: square"/>
     </g>
     <g id="line2d_8">
      <g>
       <use xlink:href="#md8059ce55b" x="236.592443" y="78.7975" style="stroke: #000000; stroke-width: 0.8"/>
      </g>
     </g>
     <g id="text_4">
      <!-- 3 -->
      <g transform="translate(233.411193 93.395937)scale(0.1 -0.1)">
       <defs>
        <path id="DejaVuSans-33" d="M 2597 2516 
Q 3050 2419 3304 2112 
Q 3559 1806 3559 1356 
Q 3559 666 3084 287 
Q 2609 -91 1734 -91 
Q 1441 -91 1130 -33 
Q 819 25 488 141 
L 488 750 
Q 750 597 1062 519 
Q 1375 441 1716 441 
Q 2309 441 2620 675 
Q 2931 909 2931 1356 
Q 2931 1769 2642 2001 
Q 2353 2234 1838 2234 
L 1294 2234 
L 1294 2753 
L 1863 2753 
Q 2328 2753 2575 2939 
Q 2822 3125 2822 3475 
Q 2822 3834 2567 4026 
Q 2313 4219 1838 4219 
Q 1578 4219 1281 4162 
Q 984 4106 628 3988 
L 628 4550 
Q 988 4650 1302 4700 
Q 1616 4750 1894 4750 
Q 2613 4750 3031 4423 
Q 3450 4097 3450 3541 
Q 3450 3153 3228 2886 
Q 3006 2619 2597 2516 
z
" transform="scale(0.015625)"/>
       </defs>
       <use xlink:href="#DejaVuSans-33"/>
      </g>
     </g>
    </g>
    <g id="xtick_5">
     <g id="line2d_9">
      <path d="M 290.178772 78.7975 
L 290.178772 28.32 
" clip-path="url(#pa2d52a1849)" style="fill: none; stroke: #b0b0b0; stroke-width: 0.8; stroke-linecap: square"/>
     </g>
     <g id="line2d_10">
      <g>
       <use xlink:href="#md8059ce55b" x="290.178772" y="78.7975" style="stroke: #000000; stroke-width: 0.8"/>
      </g>
     </g>
     <g id="text_5">
      <!-- 4 -->
      <g transform="translate(286.997522 93.395937)scale(0.1 -0.1)">
       <defs>
        <path id="DejaVuSans-34" d="M 2419 4116 
L 825 1625 
L 2419 1625 
L 2419 4116 
z
M 2253 4666 
L 3047 4666 
L 3047 1625 
L 3713 1625 
L 3713 1100 
L 3047 1100 
L 3047 0 
L 2419 0 
L 2419 1100 
L 313 1100 
L 313 1709 
L 2253 4666 
z
" transform="scale(0.015625)"/>
       </defs>
       <use xlink:href="#DejaVuSans-34"/>
      </g>
     </g>
    </g>
    <g id="xtick_6">
     <g id="line2d_11">
      <path d="M 343.765102 78.7975 
L 343.765102 28.32 
" clip-path="url(#pa2d52a1849)" style="fill: none; stroke: #b0b0b0; stroke-width: 0.8; stroke-linecap: square"/>
     </g>
     <g id="line2d_12">
      <g>
       <use xlink:href="#md8059ce55b" x="343.765102" y="78.7975" style="stroke: #000000; stroke-width: 0.8"/>
      </g>
     </g>
     <g id="text_6">
      <!-- 5 -->
      <g transform="translate(340.583852 93.395937)scale(0.1 -0.1)">
       <defs>
        <path id="DejaVuSans-35" d="M 691 4666 
L 3169 4666 
L 3169 4134 
L 1269 4134 
L 1269 2991 
Q 1406 3038 1543 3061 
Q 1681 3084 1819 3084 
Q 2600 3084 3056 2656 
Q 3513 2228 3513 1497 
Q 3513 744 3044 326 
Q 2575 -91 1722 -91 
Q 1428 -91 1123 -41 
Q 819 9 494 109 
L 494 744 
Q 775 591 1075 516 
Q 1375 441 1709 441 
Q 2250 441 2565 725 
Q 2881 1009 2881 1497 
Q 2881 1984 2565 2268 
Q 2250 2553 1709 2553 
Q 1456 2553 1204 2497 
Q 953 2441 691 2322 
L 691 4666 
z
" transform="scale(0.015625)"/>
       </defs>
       <use xlink:href="#DejaVuSans-35"/>
      </g>
     </g>
    </g>
    <g id="xtick_7">
     <g id="line2d_13">
      <path d="M 397.351431 78.7975 
L 397.351431 28.32 
" clip-path="url(#pa2d52a1849)" style="fill: none; stroke: #b0b0b0; stroke-width: 0.8; stroke-linecap: square"/>
     </g>
     <g id="line2d_14">
      <g>
       <use xlink:href="#md8059ce55b" x="397.351431" y="78.7975" style="stroke: #000000; stroke-width: 0.8"/>
      </g>
     </g>
     <g id="text_7">
      <!-- 6 -->
      <g transform="translate(394.170181 93.395937)scale(0.1 -0.1)">
       <defs>
        <path id="DejaVuSans-36" d="M 2113 2584 
Q 1688 2584 1439 2293 
Q 1191 2003 1191 1497 
Q 1191 994 1439 701 
Q 1688 409 2113 409 
Q 2538 409 2786 701 
Q 3034 994 3034 1497 
Q 3034 2003 2786 2293 
Q 2538 2584 2113 2584 
z
M 3366 4563 
L 3366 3988 
Q 3128 4100 2886 4159 
Q 2644 4219 2406 4219 
Q 1781 4219 1451 3797 
Q 1122 3375 1075 2522 
Q 1259 2794 1537 2939 
Q 1816 3084 2150 3084 
Q 2853 3084 3261 2657 
Q 3669 2231 3669 1497 
Q 3669 778 3244 343 
Q 2819 -91 2113 -91 
Q 1303 -91 875 529 
Q 447 1150 447 2328 
Q 447 3434 972 4092 
Q 1497 4750 2381 4750 
Q 2619 4750 2861 4703 
Q 3103 4656 3366 4563 
z
" transform="scale(0.015625)"/>
       </defs>
       <use xlink:href="#DejaVuSans-36"/>
      </g>
     </g>
    </g>
    <g id="text_8">
     <!-- $t$ [s] -->
     <g transform="translate(243.908 107.074062)scale(0.1 -0.1)">
      <defs>
       <path id="DejaVuSans-Oblique-74" d="M 2706 3500 
L 2619 3053 
L 1472 3053 
L 1100 1153 
Q 1081 1047 1072 975 
Q 1063 903 1063 863 
Q 1063 663 1183 572 
Q 1303 481 1569 481 
L 2150 481 
L 2053 0 
L 1503 0 
Q 991 0 739 200 
Q 488 400 488 806 
Q 488 878 497 964 
Q 506 1050 525 1153 
L 897 3053 
L 409 3053 
L 500 3500 
L 978 3500 
L 1172 4494 
L 1747 4494 
L 1556 3500 
L 2706 3500 
z
" transform="scale(0.015625)"/>
       <path id="DejaVuSans-20" transform="scale(0.015625)"/>
       <path id="DejaVuSans-5b" d="M 550 4863 
L 1875 4863 
L 1875 4416 
L 1125 4416 
L 1125 -397 
L 1875 -397 
L 1875 -844 
L 550 -844 
L 550 4863 
z
" transform="scale(0.015625)"/>
       <path id="DejaVuSans-73" d="M 2834 3397 
L 2834 2853 
Q 2591 2978 2328 3040 
Q 2066 3103 1784 3103 
Q 1356 3103 1142 2972 
Q 928 2841 928 2578 
Q 928 2378 1081 2264 
Q 1234 2150 1697 2047 
L 1894 2003 
Q 2506 1872 2764 1633 
Q 3022 1394 3022 966 
Q 3022 478 2636 193 
Q 2250 -91 1575 -91 
Q 1294 -91 989 -36 
Q 684 19 347 128 
L 347 722 
Q 666 556 975 473 
Q 1284 391 1588 391 
Q 1994 391 2212 530 
Q 2431 669 2431 922 
Q 2431 1156 2273 1281 
Q 2116 1406 1581 1522 
L 1381 1569 
Q 847 1681 609 1914 
Q 372 2147 372 2553 
Q 372 3047 722 3315 
Q 1072 3584 1716 3584 
Q 2034 3584 2315 3537 
Q 2597 3491 2834 3397 
z
" transform="scale(0.015625)"/>
       <path id="DejaVuSans-5d" d="M 1947 4863 
L 1947 -844 
L 622 -844 
L 622 -397 
L 1369 -397 
L 1369 4416 
L 622 4416 
L 622 4863 
L 1947 4863 
z
" transform="scale(0.015625)"/>
      </defs>
      <use xlink:href="#DejaVuSans-Oblique-74" transform="translate(0 0.015625)"/>
      <use xlink:href="#DejaVuSans-20" transform="translate(39.208984 0.015625)"/>
      <use xlink:href="#DejaVuSans-5b" transform="translate(70.996094 0.015625)"/>
      <use xlink:href="#DejaVuSans-73" transform="translate(110.009766 0.015625)"/>
      <use xlink:href="#DejaVuSans-5d" transform="translate(162.109375 0.015625)"/>
     </g>
    </g>
   </g>
   <g id="matplotlib.axis_2">
    <g id="ytick_1">
     <g id="line2d_15">
      <path d="M 58.016 71.014223 
L 450 71.014223 
" clip-path="url(#pa2d52a1849)" style="fill: none; stroke: #b0b0b0; stroke-width: 0.8; stroke-linecap: square"/>
     </g>
     <g id="line2d_16">
      <defs>
       <path id="m23a8b9a603" d="M 0 0 
L -3.5 0 
" style="stroke: #000000; stroke-width: 0.8"/>
      </defs>
      <g>
       <use xlink:href="#m23a8b9a603" x="58.016" y="71.014223" style="stroke: #000000; stroke-width: 0.8"/>
      </g>
     </g>
     <g id="text_9">
      <!-- 0 -->
      <g transform="translate(44.6535 74.813442)scale(0.1 -0.1)">
       <use xlink:href="#DejaVuSans-30"/>
      </g>
     </g>
    </g>
    <g id="ytick_2">
     <g id="line2d_17">
      <path d="M 58.016 30.614432 
L 450 30.614432 
" clip-path="url(#pa2d52a1849)" style="fill: none; stroke: #b0b0b0; stroke-width: 0.8; stroke-linecap: square"/>
     </g>
     <g id="line2d_18">
      <g>
       <use xlink:href="#m23a8b9a603" x="58.016" y="30.614432" style="stroke: #000000; stroke-width: 0.8"/>
      </g>
     </g>
     <g id="text_10">
      <!-- 10 -->
      <g transform="translate(38.291 34.413651)scale(0.1 -0.1)">
       <use xlink:href="#DejaVuSans-31"/>
       <use xlink:href="#DejaVuSans-30" x="63.623047"/>
      </g>
     </g>
    </g>
    <g id="text_11">
     <!-- $e_x$ [m] -->
     <g transform="translate(32.211313 69.20875)rotate(-90)scale(0.1 -0.1)">
      <defs>
       <path id="DejaVuSans-Oblique-65" d="M 3078 2063 
Q 3088 2113 3092 2166 
Q 3097 2219 3097 2272 
Q 3097 2653 2873 2875 
Q 2650 3097 2266 3097 
Q 1838 3097 1509 2826 
Q 1181 2556 1013 2059 
L 3078 2063 
z
M 3578 1613 
L 903 1613 
Q 884 1494 878 1425 
Q 872 1356 872 1306 
Q 872 872 1139 634 
Q 1406 397 1894 397 
Q 2269 397 2603 481 
Q 2938 566 3225 728 
L 3116 159 
Q 2806 34 2476 -28 
Q 2147 -91 1806 -91 
Q 1078 -91 686 257 
Q 294 606 294 1247 
Q 294 1794 489 2264 
Q 684 2734 1063 3103 
Q 1306 3334 1642 3459 
Q 1978 3584 2356 3584 
Q 2950 3584 3301 3228 
Q 3653 2872 3653 2272 
Q 3653 2128 3634 1964 
Q 3616 1800 3578 1613 
z
" transform="scale(0.015625)"/>
       <path id="DejaVuSans-Oblique-78" d="M 3841 3500 
L 2234 1784 
L 3219 0 
L 2559 0 
L 1819 1388 
L 531 0 
L -166 0 
L 1556 1844 
L 641 3500 
L 1300 3500 
L 1972 2234 
L 3144 3500 
L 3841 3500 
z
" transform="scale(0.015625)"/>
       <path id="DejaVuSans-6d" d="M 3328 2828 
Q 3544 3216 3844 3400 
Q 4144 3584 4550 3584 
Q 5097 3584 5394 3201 
Q 5691 2819 5691 2113 
L 5691 0 
L 5113 0 
L 5113 2094 
Q 5113 2597 4934 2840 
Q 4756 3084 4391 3084 
Q 3944 3084 3684 2787 
Q 3425 2491 3425 1978 
L 3425 0 
L 2847 0 
L 2847 2094 
Q 2847 2600 2669 2842 
Q 2491 3084 2119 3084 
Q 1678 3084 1418 2786 
Q 1159 2488 1159 1978 
L 1159 0 
L 581 0 
L 581 3500 
L 1159 3500 
L 1159 2956 
Q 1356 3278 1631 3431 
Q 1906 3584 2284 3584 
Q 2666 3584 2933 3390 
Q 3200 3197 3328 2828 
z
" transform="scale(0.015625)"/>
      </defs>
      <use xlink:href="#DejaVuSans-Oblique-65" transform="translate(0 0.015625)"/>
      <use xlink:href="#DejaVuSans-Oblique-78" transform="translate(61.523438 -16.390625)scale(0.7)"/>
      <use xlink:href="#DejaVuSans-20" transform="translate(105.683594 0.015625)"/>
      <use xlink:href="#DejaVuSans-5b" transform="translate(137.470703 0.015625)"/>
      <use xlink:href="#DejaVuSans-6d" transform="translate(176.484375 0.015625)"/>
      <use xlink:href="#DejaVuSans-5d" transform="translate(273.896484 0.015625)"/>
     </g>
    </g>
   </g>
   <g id="line2d_19">
    <path d="M 75.833455 30.614432 
L 88.713542 30.717957 
L 100.520289 31.316154 
L 103.203641 31.578478 
L 104.276981 31.65508 
L 108.033674 31.966137 
L 109.107014 32.12371 
L 113.400377 32.588947 
L 115.010388 32.854649 
L 116.620399 32.992599 
L 118.76708 33.336999 
L 119.840421 33.425953 
L 121.450432 33.699458 
L 124.133783 34.0793 
L 127.353805 34.578036 
L 130.037157 35.031876 
L 131.647168 35.321354 
L 133.793849 35.656569 
L 134.867189 35.847284 
L 135.40386 36.002202 
L 135.94053 36.002202 
L 137.550541 36.358554 
L 138.623882 36.602214 
L 139.160552 36.602214 
L 140.233893 36.850837 
L 141.843904 37.147246 
L 143.453915 37.49447 
L 145.063926 37.805752 
L 146.673936 38.078127 
L 147.210607 38.355642 
L 148.820618 38.59083 
L 149.357288 38.829578 
L 149.893958 38.829578 
L 150.967299 39.120763 
L 153.11398 39.516924 
L 153.650651 39.819945 
L 155.260662 40.076292 
L 155.797332 40.283865 
L 156.334002 40.283865 
L 156.870673 40.59935 
L 158.480683 40.865998 
L 159.017354 41.081748 
L 159.554024 41.081748 
L 160.090694 41.409391 
L 161.700705 41.68606 
L 162.774046 42.022367 
L 164.384057 42.420564 
L 164.920727 42.535473 
L 165.457398 42.766787 
L 165.994068 42.766787 
L 166.530738 43.117448 
L 167.604079 43.294414 
L 168.140749 43.41299 
L 168.677419 43.71149 
L 169.21409 43.71149 
L 170.28743 44.073515 
L 172.434112 44.624168 
L 172.970782 44.871754 
L 174.580793 45.246339 
L 175.117463 45.561358 
L 175.654134 45.561358 
L 176.190804 45.815203 
L 177.800815 46.19896 
L 178.874156 46.651079 
L 179.410826 46.846258 
L 180.484166 47.04227 
L 181.020837 47.173401 
L 182.094177 47.63517 
L 182.630848 47.834382 
L 183.704188 48.034368 
L 184.240859 48.168115 
L 184.777529 48.436615 
L 185.85087 48.774084 
L 186.92421 49.181697 
L 187.460881 49.181697 
L 187.997551 49.455015 
L 189.070892 49.798396 
L 190.144232 50.212959 
L 190.680903 50.212959 
L 191.217573 50.490827 
L 192.290913 50.839828 
L 193.364254 51.261039 
L 193.900924 51.261039 
L 194.437595 51.543299 
L 195.510935 51.897755 
L 196.584276 52.32549 
L 197.120946 52.32549 
L 197.657617 52.612098 
L 199.267628 53.116475 
L 199.804298 53.406307 
L 200.340968 53.406307 
L 200.877639 53.697329 
L 202.48765 54.209508 
L 203.02432 54.503854 
L 205.171001 55.170658 
L 206.244342 55.618736 
L 206.781012 55.618736 
L 207.317682 55.919054 
L 208.391023 56.296272 
L 209.464364 56.751636 
L 210.001034 56.751636 
L 210.537704 57.056865 
L 212.147715 57.594229 
L 212.684386 57.903144 
L 213.221056 57.903144 
L 213.757726 58.213412 
L 214.294396 58.213412 
L 214.831067 58.681361 
L 215.904407 58.916486 
L 216.441078 59.073662 
L 216.977748 59.389038 
L 218.051089 59.785178 
L 218.587759 60.023888 
L 219.6611 60.263366 
L 220.19777 60.583871 
L 221.271111 60.986398 
L 221.807781 61.228871 
L 222.881122 61.471996 
L 223.417792 61.79705 
L 224.491133 62.204478 
L 225.027803 62.449328 
L 226.101143 62.69431 
L 226.637814 63.020911 
L 227.711154 63.42857 
L 228.784495 63.915838 
L 229.321165 63.915838 
L 229.857836 64.238846 
L 231.467847 64.799076 
L 232.004517 65.115612 
L 232.541187 65.115612 
L 233.077858 65.429064 
L 234.687869 65.969223 
L 235.224539 66.272625 
L 237.37122 66.939847 
L 237.90789 67.157192 
L 238.981231 67.371878 
L 239.517901 67.653881 
L 240.054572 67.653881 
L 240.591242 68.067513 
L 241.664583 68.270025 
L 243.274594 68.731175 
L 243.811264 68.987437 
L 246.494616 69.664829 
L 247.567956 70.0177 
L 249.714637 70.525852 
L 250.787978 70.851024 
L 252.397989 71.217079 
L 253.47133 71.519657 
L 255.618011 71.954425 
L 256.691352 72.23158 
L 258.838033 72.628227 
L 259.911373 72.879855 
L 264.741406 73.67907 
L 265.278077 73.817198 
L 265.814747 73.817198 
L 266.351417 74.016593 
L 267.961428 74.176017 
L 268.498099 74.299409 
L 269.034769 74.299409 
L 269.571439 74.478002 
L 271.71812 74.67708 
L 276.011483 75.242413 
L 289.428241 76.30931 
L 297.478296 76.503068 
L 303.91834 76.402944 
L 308.748372 76.201138 
L 309.821713 76.110485 
L 314.115076 75.807263 
L 316.261757 75.573957 
L 317.871768 75.423421 
L 321.09179 75.066195 
L 326.458493 74.406946 
L 328.605174 74.078372 
L 331.288526 73.709789 
L 335.045218 73.18394 
L 338.26524 72.731193 
L 341.485262 72.275271 
L 345.241954 71.812155 
L 346.851965 71.649143 
L 361.342064 70.542781 
L 366.708767 70.329155 
L 373.685481 70.172238 
L 390.322261 69.987935 
L 400.518997 70.037965 
L 410.715733 70.268074 
L 432.182545 70.805528 
L 432.182545 70.805528 
" clip-path="url(#pa2d52a1849)" style="fill: none; stroke: #ff0000; stroke-width: 1.5; stroke-linecap: square"/>
   </g>
   <g id="patch_3">
    <path d="M 58.016 78.7975 
L 58.016 28.32 
" style="fill: none; stroke: #000000; stroke-width: 0.8; stroke-linejoin: miter; stroke-linecap: square"/>
   </g>
   <g id="patch_4">
    <path d="M 450 78.7975 
L 450 28.32 
" style="fill: none; stroke: #000000; stroke-width: 0.8; stroke-linejoin: miter; stroke-linecap: square"/>
   </g>
   <g id="patch_5">
    <path d="M 58.016 78.7975 
L 450 78.7975 
" style="fill: none; stroke: #000000; stroke-width: 0.8; stroke-linejoin: miter; stroke-linecap: square"/>
   </g>
   <g id="patch_6">
    <path d="M 58.016 28.32 
L 450 28.32 
" style="fill: none; stroke: #000000; stroke-width: 0.8; stroke-linejoin: miter; stroke-linecap: square"/>
   </g>
   <g id="text_12">
    <!-- Error in $x$-position -->
    <g transform="translate(200.368 22.32)scale(0.12 -0.12)">
     <defs>
      <path id="DejaVuSans-45" d="M 628 4666 
L 3578 4666 
L 3578 4134 
L 1259 4134 
L 1259 2753 
L 3481 2753 
L 3481 2222 
L 1259 2222 
L 1259 531 
L 3634 531 
L 3634 0 
L 628 0 
L 628 4666 
z
" transform="scale(0.015625)"/>
      <path id="DejaVuSans-72" d="M 2631 2963 
Q 2534 3019 2420 3045 
Q 2306 3072 2169 3072 
Q 1681 3072 1420 2755 
Q 1159 2438 1159 1844 
L 1159 0 
L 581 0 
L 581 3500 
L 1159 3500 
L 1159 2956 
Q 1341 3275 1631 3429 
Q 1922 3584 2338 3584 
Q 2397 3584 2469 3576 
Q 2541 3569 2628 3553 
L 2631 2963 
z
" transform="scale(0.015625)"/>
      <path id="DejaVuSans-6f" d="M 1959 3097 
Q 1497 3097 1228 2736 
Q 959 2375 959 1747 
Q 959 1119 1226 758 
Q 1494 397 1959 397 
Q 2419 397 2687 759 
Q 2956 1122 2956 1747 
Q 2956 2369 2687 2733 
Q 2419 3097 1959 3097 
z
M 1959 3584 
Q 2709 3584 3137 3096 
Q 3566 2609 3566 1747 
Q 3566 888 3137 398 
Q 2709 -91 1959 -91 
Q 1206 -91 779 398 
Q 353 888 353 1747 
Q 353 2609 779 3096 
Q 1206 3584 1959 3584 
z
" transform="scale(0.015625)"/>
      <path id="DejaVuSans-69" d="M 603 3500 
L 1178 3500 
L 1178 0 
L 603 0 
L 603 3500 
z
M 603 4863 
L 1178 4863 
L 1178 4134 
L 603 4134 
L 603 4863 
z
" transform="scale(0.015625)"/>
      <path id="DejaVuSans-6e" d="M 3513 2113 
L 3513 0 
L 2938 0 
L 2938 2094 
Q 2938 2591 2744 2837 
Q 2550 3084 2163 3084 
Q 1697 3084 1428 2787 
Q 1159 2491 1159 1978 
L 1159 0 
L 581 0 
L 581 3500 
L 1159 3500 
L 1159 2956 
Q 1366 3272 1645 3428 
Q 1925 3584 2291 3584 
Q 2894 3584 3203 3211 
Q 3513 2838 3513 2113 
z
" transform="scale(0.015625)"/>
      <path id="DejaVuSans-2d" d="M 313 2009 
L 1997 2009 
L 1997 1497 
L 313 1497 
L 313 2009 
z
" transform="scale(0.015625)"/>
      <path id="DejaVuSans-70" d="M 1159 525 
L 1159 -1331 
L 581 -1331 
L 581 3500 
L 1159 3500 
L 1159 2969 
Q 1341 3281 1617 3432 
Q 1894 3584 2278 3584 
Q 2916 3584 3314 3078 
Q 3713 2572 3713 1747 
Q 3713 922 3314 415 
Q 2916 -91 2278 -91 
Q 1894 -91 1617 61 
Q 1341 213 1159 525 
z
M 3116 1747 
Q 3116 2381 2855 2742 
Q 2594 3103 2138 3103 
Q 1681 3103 1420 2742 
Q 1159 2381 1159 1747 
Q 1159 1113 1420 752 
Q 1681 391 2138 391 
Q 2594 391 2855 752 
Q 3116 1113 3116 1747 
z
" transform="scale(0.015625)"/>
      <path id="DejaVuSans-74" d="M 1172 4494 
L 1172 3500 
L 2356 3500 
L 2356 3053 
L 1172 3053 
L 1172 1153 
Q 1172 725 1289 603 
Q 1406 481 1766 481 
L 2356 481 
L 2356 0 
L 1766 0 
Q 1100 0 847 248 
Q 594 497 594 1153 
L 594 3053 
L 172 3053 
L 172 3500 
L 594 3500 
L 594 4494 
L 1172 4494 
z
" transform="scale(0.015625)"/>
     </defs>
     <use xlink:href="#DejaVuSans-45" transform="translate(0 0.015625)"/>
     <use xlink:href="#DejaVuSans-72" transform="translate(63.183594 0.015625)"/>
     <use xlink:href="#DejaVuSans-72" transform="translate(104.296875 0.015625)"/>
     <use xlink:href="#DejaVuSans-6f" transform="translate(145.410156 0.015625)"/>
     <use xlink:href="#DejaVuSans-72" transform="translate(206.591797 0.015625)"/>
     <use xlink:href="#DejaVuSans-20" transform="translate(247.705078 0.015625)"/>
     <use xlink:href="#DejaVuSans-69" transform="translate(279.492188 0.015625)"/>
     <use xlink:href="#DejaVuSans-6e" transform="translate(307.275391 0.015625)"/>
     <use xlink:href="#DejaVuSans-20" transform="translate(370.654297 0.015625)"/>
     <use xlink:href="#DejaVuSans-Oblique-78" transform="translate(402.441406 0.015625)"/>
     <use xlink:href="#DejaVuSans-2d" transform="translate(461.621094 0.015625)"/>
     <use xlink:href="#DejaVuSans-70" transform="translate(497.705078 0.015625)"/>
     <use xlink:href="#DejaVuSans-6f" transform="translate(561.181641 0.015625)"/>
     <use xlink:href="#DejaVuSans-73" transform="translate(622.363281 0.015625)"/>
     <use xlink:href="#DejaVuSans-69" transform="translate(674.462891 0.015625)"/>
     <use xlink:href="#DejaVuSans-74" transform="translate(702.246094 0.015625)"/>
     <use xlink:href="#DejaVuSans-69" transform="translate(741.455078 0.015625)"/>
     <use xlink:href="#DejaVuSans-6f" transform="translate(769.238281 0.015625)"/>
     <use xlink:href="#DejaVuSans-6e" transform="translate(830.419922 0.015625)"/>
    </g>
   </g>
  </g>
  <g id="axes_2">
   <g id="patch_7">
    <path d="M 58.016 190.3975 
L 450 190.3975 
L 450 139.92 
L 58.016 139.92 
z
" style="fill: #ffffff"/>
   </g>
   <g id="matplotlib.axis_3">
    <g id="xtick_8">
     <g id="line2d_20">
      <path d="M 75.833455 190.3975 
L 75.833455 139.92 
" clip-path="url(#p355d469601)" style="fill: none; stroke: #b0b0b0; stroke-width: 0.8; stroke-linecap: square"/>
     </g>
     <g id="line2d_21">
      <g>
       <use xlink:href="#md8059ce55b" x="75.833455" y="190.3975" style="stroke: #000000; stroke-width: 0.8"/>
      </g>
     </g>
     <g id="text_13">
      <!-- 0 -->
      <g transform="translate(72.652205 204.995937)scale(0.1 -0.1)">
       <use xlink:href="#DejaVuSans-30"/>
      </g>
     </g>
    </g>
    <g id="xtick_9">
     <g id="line2d_22">
      <path d="M 129.419784 190.3975 
L 129.419784 139.92 
" clip-path="url(#p355d469601)" style="fill: none; stroke: #b0b0b0; stroke-width: 0.8; stroke-linecap: square"/>
     </g>
     <g id="line2d_23">
      <g>
       <use xlink:href="#md8059ce55b" x="129.419784" y="190.3975" style="stroke: #000000; stroke-width: 0.8"/>
      </g>
     </g>
     <g id="text_14">
      <!-- 1 -->
      <g transform="translate(126.238534 204.995937)scale(0.1 -0.1)">
       <use xlink:href="#DejaVuSans-31"/>
      </g>
     </g>
    </g>
    <g id="xtick_10">
     <g id="line2d_24">
      <path d="M 183.006113 190.3975 
L 183.006113 139.92 
" clip-path="url(#p355d469601)" style="fill: none; stroke: #b0b0b0; stroke-width: 0.8; stroke-linecap: square"/>
     </g>
     <g id="line2d_25">
      <g>
       <use xlink:href="#md8059ce55b" x="183.006113" y="190.3975" style="stroke: #000000; stroke-width: 0.8"/>
      </g>
     </g>
     <g id="text_15">
      <!-- 2 -->
      <g transform="translate(179.824863 204.995937)scale(0.1 -0.1)">
       <use xlink:href="#DejaVuSans-32"/>
      </g>
     </g>
    </g>
    <g id="xtick_11">
     <g id="line2d_26">
      <path d="M 236.592443 190.3975 
L 236.592443 139.92 
" clip-path="url(#p355d469601)" style="fill: none; stroke: #b0b0b0; stroke-width: 0.8; stroke-linecap: square"/>
     </g>
     <g id="line2d_27">
      <g>
       <use xlink:href="#md8059ce55b" x="236.592443" y="190.3975" style="stroke: #000000; stroke-width: 0.8"/>
      </g>
     </g>
     <g id="text_16">
      <!-- 3 -->
      <g transform="translate(233.411193 204.995937)scale(0.1 -0.1)">
       <use xlink:href="#DejaVuSans-33"/>
      </g>
     </g>
    </g>
    <g id="xtick_12">
     <g id="line2d_28">
      <path d="M 290.178772 190.3975 
L 290.178772 139.92 
" clip-path="url(#p355d469601)" style="fill: none; stroke: #b0b0b0; stroke-width: 0.8; stroke-linecap: square"/>
     </g>
     <g id="line2d_29">
      <g>
       <use xlink:href="#md8059ce55b" x="290.178772" y="190.3975" style="stroke: #000000; stroke-width: 0.8"/>
      </g>
     </g>
     <g id="text_17">
      <!-- 4 -->
      <g transform="translate(286.997522 204.995937)scale(0.1 -0.1)">
       <use xlink:href="#DejaVuSans-34"/>
      </g>
     </g>
    </g>
    <g id="xtick_13">
     <g id="line2d_30">
      <path d="M 343.765102 190.3975 
L 343.765102 139.92 
" clip-path="url(#p355d469601)" style="fill: none; stroke: #b0b0b0; stroke-width: 0.8; stroke-linecap: square"/>
     </g>
     <g id="line2d_31">
      <g>
       <use xlink:href="#md8059ce55b" x="343.765102" y="190.3975" style="stroke: #000000; stroke-width: 0.8"/>
      </g>
     </g>
     <g id="text_18">
      <!-- 5 -->
      <g transform="translate(340.583852 204.995937)scale(0.1 -0.1)">
       <use xlink:href="#DejaVuSans-35"/>
      </g>
     </g>
    </g>
    <g id="xtick_14">
     <g id="line2d_32">
      <path d="M 397.351431 190.3975 
L 397.351431 139.92 
" clip-path="url(#p355d469601)" style="fill: none; stroke: #b0b0b0; stroke-width: 0.8; stroke-linecap: square"/>
     </g>
     <g id="line2d_33">
      <g>
       <use xlink:href="#md8059ce55b" x="397.351431" y="190.3975" style="stroke: #000000; stroke-width: 0.8"/>
      </g>
     </g>
     <g id="text_19">
      <!-- 6 -->
      <g transform="translate(394.170181 204.995937)scale(0.1 -0.1)">
       <use xlink:href="#DejaVuSans-36"/>
      </g>
     </g>
    </g>
    <g id="text_20">
     <!-- $t$ [s] -->
     <g transform="translate(243.908 218.674062)scale(0.1 -0.1)">
      <use xlink:href="#DejaVuSans-Oblique-74" transform="translate(0 0.015625)"/>
      <use xlink:href="#DejaVuSans-20" transform="translate(39.208984 0.015625)"/>
      <use xlink:href="#DejaVuSans-5b" transform="translate(70.996094 0.015625)"/>
      <use xlink:href="#DejaVuSans-73" transform="translate(110.009766 0.015625)"/>
      <use xlink:href="#DejaVuSans-5d" transform="translate(162.109375 0.015625)"/>
     </g>
    </g>
   </g>
   <g id="matplotlib.axis_4">
    <g id="ytick_3">
     <g id="line2d_34">
      <path d="M 58.016 172.361664 
L 450 172.361664 
" clip-path="url(#p355d469601)" style="fill: none; stroke: #b0b0b0; stroke-width: 0.8; stroke-linecap: square"/>
     </g>
     <g id="line2d_35">
      <g>
       <use xlink:href="#m23a8b9a603" x="58.016" y="172.361664" style="stroke: #000000; stroke-width: 0.8"/>
      </g>
     </g>
     <g id="text_21">
      <!-- 0.00 -->
      <g transform="translate(28.750375 176.160882)scale(0.1 -0.1)">
       <defs>
        <path id="DejaVuSans-2e" d="M 684 794 
L 1344 794 
L 1344 0 
L 684 0 
L 684 794 
z
" transform="scale(0.015625)"/>
       </defs>
       <use xlink:href="#DejaVuSans-30"/>
       <use xlink:href="#DejaVuSans-2e" x="63.623047"/>
       <use xlink:href="#DejaVuSans-30" x="95.410156"/>
       <use xlink:href="#DejaVuSans-30" x="159.033203"/>
      </g>
     </g>
    </g>
    <g id="ytick_4">
     <g id="line2d_36">
      <path d="M 58.016 142.191144 
L 450 142.191144 
" clip-path="url(#p355d469601)" style="fill: none; stroke: #b0b0b0; stroke-width: 0.8; stroke-linecap: square"/>
     </g>
     <g id="line2d_37">
      <g>
       <use xlink:href="#m23a8b9a603" x="58.016" y="142.191144" style="stroke: #000000; stroke-width: 0.8"/>
      </g>
     </g>
     <g id="text_22">
      <!-- 0.05 -->
      <g transform="translate(28.750375 145.990363)scale(0.1 -0.1)">
       <use xlink:href="#DejaVuSans-30"/>
       <use xlink:href="#DejaVuSans-2e" x="63.623047"/>
       <use xlink:href="#DejaVuSans-30" x="95.410156"/>
       <use xlink:href="#DejaVuSans-35" x="159.033203"/>
      </g>
     </g>
    </g>
    <g id="text_23">
     <!-- $e_z$ [m] -->
     <g transform="translate(22.670688 180.60875)rotate(-90)scale(0.1 -0.1)">
      <defs>
       <path id="DejaVuSans-Oblique-7a" d="M 744 3500 
L 3475 3500 
L 3372 2975 
L 738 459 
L 2913 459 
L 2822 0 
L -19 0 
L 84 525 
L 2719 3041 
L 653 3041 
L 744 3500 
z
" transform="scale(0.015625)"/>
      </defs>
      <use xlink:href="#DejaVuSans-Oblique-65" transform="translate(0 0.015625)"/>
      <use xlink:href="#DejaVuSans-Oblique-7a" transform="translate(61.523438 -16.390625)scale(0.7)"/>
      <use xlink:href="#DejaVuSans-20" transform="translate(101.000977 0.015625)"/>
      <use xlink:href="#DejaVuSans-5b" transform="translate(132.788086 0.015625)"/>
      <use xlink:href="#DejaVuSans-6d" transform="translate(171.801758 0.015625)"/>
      <use xlink:href="#DejaVuSans-5d" transform="translate(269.213867 0.015625)"/>
     </g>
    </g>
   </g>
   <g id="line2d_38">
    <path d="M 75.833455 178.11163 
L 76.370125 177.720896 
L 77.980136 177.039469 
L 78.516806 176.648696 
L 79.053476 176.117148 
L 82.810169 174.422351 
L 87.103531 173.419323 
L 93.006905 172.65927 
L 97.836938 172.424446 
L 100.520289 172.518405 
L 103.740311 173.037583 
L 105.886992 173.865437 
L 106.960333 174.132903 
L 107.497003 174.526192 
L 108.033674 174.526192 
L 108.570344 175.188956 
L 109.107014 175.307341 
L 110.180355 175.801488 
L 110.717025 176.324443 
L 111.253696 176.324443 
L 111.790366 177.148927 
L 112.327036 177.289812 
L 113.400377 177.859454 
L 113.937047 178.433771 
L 114.473717 178.433771 
L 115.010388 179.285905 
L 115.547058 179.425325 
L 116.620399 179.971737 
L 117.157069 180.494916 
L 118.23041 181.105983 
L 118.76708 181.445045 
L 119.840421 181.760859 
L 120.377091 182.142091 
L 123.597113 183.113068 
L 125.743794 183.324855 
L 127.890475 183.213778 
L 130.037157 182.732534 
L 131.110497 182.408227 
L 132.183838 181.950969 
L 132.720508 181.950969 
L 133.257179 181.613354 
L 134.867189 180.980405 
L 135.40386 180.604707 
L 135.94053 180.604707 
L 136.4772 180.225689 
L 137.550541 179.754361 
L 138.623882 179.204548 
L 139.160552 179.204548 
L 139.697222 178.854321 
L 140.770563 178.441693 
L 141.307233 178.210393 
L 142.380574 177.992748 
L 142.917244 177.725018 
L 147.210607 176.757416 
L 148.820618 176.627308 
L 149.893958 176.528445 
L 151.503969 176.42099 
L 161.700705 175.961098 
L 163.847387 175.722567 
L 165.994068 175.575074 
L 167.067409 175.436558 
L 171.897441 175.197923 
L 174.580793 175.285066 
L 176.190804 175.478775 
L 178.337485 175.820418 
L 180.484166 176.226757 
L 181.557507 176.538164 
L 183.167518 176.926407 
L 184.240859 177.155123 
L 185.314199 177.499123 
L 186.92421 177.99426 
L 187.460881 177.99426 
L 188.534221 178.294603 
L 190.144232 178.675351 
L 190.680903 178.675351 
L 191.754243 178.871396 
L 193.364254 179.065119 
L 198.730957 178.976398 
L 202.48765 178.405899 
L 203.56099 178.151413 
L 205.707671 177.691187 
L 206.244342 177.549819 
L 206.781012 177.549819 
L 207.854353 177.269318 
L 209.464364 176.868541 
L 210.001034 176.868541 
L 211.074375 176.623608 
L 217.514418 175.796181 
L 220.19777 175.652672 
L 222.344451 175.743946 
L 223.954462 175.979479 
L 228.247825 176.783324 
L 229.857836 176.952928 
L 232.541187 176.998506 
L 234.687869 176.5744 
L 235.761209 176.026416 
L 236.83455 175.516739 
L 237.90789 174.537771 
L 238.444561 174.350774 
L 238.981231 173.95715 
L 239.517901 173.092988 
L 240.054572 173.092988 
L 240.591242 171.626979 
L 241.127912 171.364177 
L 242.737923 169.694061 
L 243.274594 168.811248 
L 243.811264 167.606574 
L 245.957945 165.171853 
L 246.494616 164.266765 
L 247.031286 163.072131 
L 249.177967 160.730627 
L 249.714637 159.868746 
L 250.251308 158.733436 
L 251.861319 157.070858 
L 252.397989 156.265844 
L 252.934659 155.229283 
L 255.618011 152.715474 
L 256.154681 151.982048 
L 257.764692 151.133739 
L 259.374703 150.580617 
L 260.448044 150.679388 
L 261.521384 151.026495 
L 262.058055 151.300556 
L 262.594725 151.845826 
L 263.131395 152.837309 
L 264.204736 154.128683 
L 264.741406 154.879792 
L 265.278077 156.565815 
L 265.814747 156.565815 
L 266.351417 159.437346 
L 266.888088 159.943735 
L 267.961428 162.011795 
L 268.498099 164.103092 
L 269.034769 164.103092 
L 269.571439 167.151116 
L 270.10811 167.638665 
L 272.254791 171.618355 
L 272.791461 173.097967 
L 274.401472 174.932671 
L 274.938142 175.439283 
L 276.011483 176.807026 
L 277.084824 177.313435 
L 278.694835 177.800571 
L 280.304846 177.711883 
L 281.378186 177.439263 
L 281.914857 177.120221 
L 283.524867 176.513328 
L 284.061538 176.168317 
L 284.598208 175.683784 
L 287.81823 174.094907 
L 288.3549 173.653815 
L 290.501582 172.907277 
L 293.184933 172.196045 
L 294.794944 172.109467 
L 296.941625 172.326672 
L 299.624977 173.062481 
L 300.698318 173.559135 
L 301.234988 173.559135 
L 301.771658 173.844397 
L 302.844999 174.186256 
L 303.381669 174.377832 
L 304.45501 174.556337 
L 305.52835 174.912663 
L 306.601691 175.074184 
L 309.821713 175.405413 
L 313.578405 175.408914 
L 317.335097 175.448918 
L 319.481779 175.783942 
L 320.018449 175.937516 
L 320.555119 175.937516 
L 322.16513 176.725656 
L 322.701801 176.829059 
L 323.775141 177.286628 
L 324.311812 177.811899 
L 324.848482 178.098969 
L 325.921823 179.054373 
L 326.458493 179.22695 
L 326.995163 179.582389 
L 327.531834 180.331024 
L 328.068504 180.721287 
L 329.141844 181.937102 
L 329.678515 182.14454 
L 330.215185 182.561027 
L 330.751855 183.393467 
L 331.825196 184.210588 
L 333.435207 185.901231 
L 336.655229 187.802988 
L 338.26524 188.083115 
L 339.338581 188.059097 
L 340.948591 187.477974 
L 343.095273 185.972253 
L 343.631943 185.012901 
L 344.168613 184.470047 
L 345.241954 182.588994 
L 345.778624 182.239314 
L 346.315295 181.511851 
L 346.851965 179.951495 
L 347.388635 179.12603 
L 348.461976 176.504988 
L 348.998646 176.051418 
L 349.535317 175.135672 
L 350.071987 173.277097 
L 350.608657 172.333105 
L 351.681998 169.437747 
L 352.218668 168.945369 
L 352.755338 167.951195 
L 353.292009 165.925251 
L 353.828679 164.892692 
L 355.43869 160.113902 
L 355.97536 160.113902 
L 356.512031 157.947656 
L 357.048701 156.863358 
L 358.658712 152.094603 
L 359.195382 152.094603 
L 359.732053 150.10883 
L 360.268723 149.162956 
L 361.342064 146.571437 
L 361.878734 145.448093 
L 362.415404 145.448093 
L 362.952074 144.167263 
L 364.562085 142.494311 
L 366.172096 142.214432 
L 366.708767 142.367049 
L 367.245437 142.806993 
L 367.782107 143.513436 
L 368.318778 143.809646 
L 368.855448 144.494759 
L 370.465459 149.646126 
L 371.002129 150.290784 
L 372.07547 153.024618 
L 372.61214 155.909923 
L 373.148811 157.371278 
L 374.758821 163.725951 
L 375.295492 163.725951 
L 375.832162 166.267277 
L 377.442173 170.0491 
L 377.978843 171.766689 
L 378.515514 171.766689 
L 379.052184 173.141426 
L 380.125525 174.172045 
L 381.735536 175.280054 
L 382.808876 175.273232 
L 383.345547 175.164888 
L 383.882217 174.886172 
L 384.418887 174.324654 
L 386.028898 173.14589 
L 387.102239 172.194131 
L 387.638909 171.425303 
L 388.175579 170.359426 
L 390.322261 168.229186 
L 391.932272 166.142554 
L 394.078953 164.729017 
L 394.615623 164.380133 
L 395.688964 164.221745 
L 396.762304 164.258803 
L 397.298975 164.410708 
L 398.372315 165.011884 
L 398.908986 165.293648 
L 399.982326 166.346358 
L 400.518997 166.547315 
L 401.055667 166.966958 
L 401.592337 167.865565 
L 402.129008 168.336985 
L 403.202348 169.799527 
L 403.739019 170.046336 
L 404.275689 170.538952 
L 404.812359 171.509869 
L 405.8857 172.442781 
L 406.959041 173.929563 
L 407.495711 173.929563 
L 408.032381 174.671708 
L 411.252403 176.571184 
L 412.862414 176.897546 
L 413.935755 176.97131 
L 415.009095 176.872355 
L 417.155777 176.31437 
L 417.692447 175.942499 
L 418.229117 175.733676 
L 419.302458 175.032308 
L 419.839128 174.906345 
L 420.375798 174.64884 
L 420.912469 174.117692 
L 421.985809 173.578095 
L 423.59582 172.403603 
L 427.352513 170.755284 
L 429.499194 170.36608 
L 430.572535 170.31522 
L 432.182545 170.424995 
L 432.182545 170.424995 
" clip-path="url(#p355d469601)" style="fill: none; stroke: #0000ff; stroke-width: 1.5; stroke-linecap: square"/>
   </g>
   <g id="patch_8">
    <path d="M 58.016 190.3975 
L 58.016 139.92 
" style="fill: none; stroke: #000000; stroke-width: 0.8; stroke-linejoin: miter; stroke-linecap: square"/>
   </g>
   <g id="patch_9">
    <path d="M 450 190.3975 
L 450 139.92 
" style="fill: none; stroke: #000000; stroke-width: 0.8; stroke-linejoin: miter; stroke-linecap: square"/>
   </g>
   <g id="patch_10">
    <path d="M 58.016 190.3975 
L 450 190.3975 
" style="fill: none; stroke: #000000; stroke-width: 0.8; stroke-linejoin: miter; stroke-linecap: square"/>
   </g>
   <g id="patch_11">
    <path d="M 58.016 139.92 
L 450 139.92 
" style="fill: none; stroke: #000000; stroke-width: 0.8; stroke-linejoin: miter; stroke-linecap: square"/>
   </g>
   <g id="text_24">
    <!-- Error in $z$-position -->
    <g transform="translate(200.728 133.92)scale(0.12 -0.12)">
     <use xlink:href="#DejaVuSans-45" transform="translate(0 0.015625)"/>
     <use xlink:href="#DejaVuSans-72" transform="translate(63.183594 0.015625)"/>
     <use xlink:href="#DejaVuSans-72" transform="translate(104.296875 0.015625)"/>
     <use xlink:href="#DejaVuSans-6f" transform="translate(145.410156 0.015625)"/>
     <use xlink:href="#DejaVuSans-72" transform="translate(206.591797 0.015625)"/>
     <use xlink:href="#DejaVuSans-20" transform="translate(247.705078 0.015625)"/>
     <use xlink:href="#DejaVuSans-69" transform="translate(279.492188 0.015625)"/>
     <use xlink:href="#DejaVuSans-6e" transform="translate(307.275391 0.015625)"/>
     <use xlink:href="#DejaVuSans-20" transform="translate(370.654297 0.015625)"/>
     <use xlink:href="#DejaVuSans-Oblique-7a" transform="translate(402.441406 0.015625)"/>
     <use xlink:href="#DejaVuSans-2d" transform="translate(454.931641 0.015625)"/>
     <use xlink:href="#DejaVuSans-70" transform="translate(491.015625 0.015625)"/>
     <use xlink:href="#DejaVuSans-6f" transform="translate(554.492188 0.015625)"/>
     <use xlink:href="#DejaVuSans-73" transform="translate(615.673828 0.015625)"/>
     <use xlink:href="#DejaVuSans-69" transform="translate(667.773438 0.015625)"/>
     <use xlink:href="#DejaVuSans-74" transform="translate(695.556641 0.015625)"/>
     <use xlink:href="#DejaVuSans-69" transform="translate(734.765625 0.015625)"/>
     <use xlink:href="#DejaVuSans-6f" transform="translate(762.548828 0.015625)"/>
     <use xlink:href="#DejaVuSans-6e" transform="translate(823.730469 0.015625)"/>
    </g>
   </g>
  </g>
  <g id="axes_3">
   <g id="patch_12">
    <path d="M 58.016 301.9975 
L 450 301.9975 
L 450 251.52 
L 58.016 251.52 
z
" style="fill: #ffffff"/>
   </g>
   <g id="matplotlib.axis_5">
    <g id="xtick_15">
     <g id="line2d_39">
      <path d="M 75.833455 301.9975 
L 75.833455 251.52 
" clip-path="url(#p1609964df3)" style="fill: none; stroke: #b0b0b0; stroke-width: 0.8; stroke-linecap: square"/>
     </g>
     <g id="line2d_40">
      <g>
       <use xlink:href="#md8059ce55b" x="75.833455" y="301.9975" style="stroke: #000000; stroke-width: 0.8"/>
      </g>
     </g>
     <g id="text_25">
      <!-- 0 -->
      <g transform="translate(72.652205 316.595937)scale(0.1 -0.1)">
       <use xlink:href="#DejaVuSans-30"/>
      </g>
     </g>
    </g>
    <g id="xtick_16">
     <g id="line2d_41">
      <path d="M 129.419784 301.9975 
L 129.419784 251.52 
" clip-path="url(#p1609964df3)" style="fill: none; stroke: #b0b0b0; stroke-width: 0.8; stroke-linecap: square"/>
     </g>
     <g id="line2d_42">
      <g>
       <use xlink:href="#md8059ce55b" x="129.419784" y="301.9975" style="stroke: #000000; stroke-width: 0.8"/>
      </g>
     </g>
     <g id="text_26">
      <!-- 1 -->
      <g transform="translate(126.238534 316.595937)scale(0.1 -0.1)">
       <use xlink:href="#DejaVuSans-31"/>
      </g>
     </g>
    </g>
    <g id="xtick_17">
     <g id="line2d_43">
      <path d="M 183.006113 301.9975 
L 183.006113 251.52 
" clip-path="url(#p1609964df3)" style="fill: none; stroke: #b0b0b0; stroke-width: 0.8; stroke-linecap: square"/>
     </g>
     <g id="line2d_44">
      <g>
       <use xlink:href="#md8059ce55b" x="183.006113" y="301.9975" style="stroke: #000000; stroke-width: 0.8"/>
      </g>
     </g>
     <g id="text_27">
      <!-- 2 -->
      <g transform="translate(179.824863 316.595937)scale(0.1 -0.1)">
       <use xlink:href="#DejaVuSans-32"/>
      </g>
     </g>
    </g>
    <g id="xtick_18">
     <g id="line2d_45">
      <path d="M 236.592443 301.9975 
L 236.592443 251.52 
" clip-path="url(#p1609964df3)" style="fill: none; stroke: #b0b0b0; stroke-width: 0.8; stroke-linecap: square"/>
     </g>
     <g id="line2d_46">
      <g>
       <use xlink:href="#md8059ce55b" x="236.592443" y="301.9975" style="stroke: #000000; stroke-width: 0.8"/>
      </g>
     </g>
     <g id="text_28">
      <!-- 3 -->
      <g transform="translate(233.411193 316.595937)scale(0.1 -0.1)">
       <use xlink:href="#DejaVuSans-33"/>
      </g>
     </g>
    </g>
    <g id="xtick_19">
     <g id="line2d_47">
      <path d="M 290.178772 301.9975 
L 290.178772 251.52 
" clip-path="url(#p1609964df3)" style="fill: none; stroke: #b0b0b0; stroke-width: 0.8; stroke-linecap: square"/>
     </g>
     <g id="line2d_48">
      <g>
       <use xlink:href="#md8059ce55b" x="290.178772" y="301.9975" style="stroke: #000000; stroke-width: 0.8"/>
      </g>
     </g>
     <g id="text_29">
      <!-- 4 -->
      <g transform="translate(286.997522 316.595937)scale(0.1 -0.1)">
       <use xlink:href="#DejaVuSans-34"/>
      </g>
     </g>
    </g>
    <g id="xtick_20">
     <g id="line2d_49">
      <path d="M 343.765102 301.9975 
L 343.765102 251.52 
" clip-path="url(#p1609964df3)" style="fill: none; stroke: #b0b0b0; stroke-width: 0.8; stroke-linecap: square"/>
     </g>
     <g id="line2d_50">
      <g>
       <use xlink:href="#md8059ce55b" x="343.765102" y="301.9975" style="stroke: #000000; stroke-width: 0.8"/>
      </g>
     </g>
     <g id="text_30">
      <!-- 5 -->
      <g transform="translate(340.583852 316.595937)scale(0.1 -0.1)">
       <use xlink:href="#DejaVuSans-35"/>
      </g>
     </g>
    </g>
    <g id="xtick_21">
     <g id="line2d_51">
      <path d="M 397.351431 301.9975 
L 397.351431 251.52 
" clip-path="url(#p1609964df3)" style="fill: none; stroke: #b0b0b0; stroke-width: 0.8; stroke-linecap: square"/>
     </g>
     <g id="line2d_52">
      <g>
       <use xlink:href="#md8059ce55b" x="397.351431" y="301.9975" style="stroke: #000000; stroke-width: 0.8"/>
      </g>
     </g>
     <g id="text_31">
      <!-- 6 -->
      <g transform="translate(394.170181 316.595937)scale(0.1 -0.1)">
       <use xlink:href="#DejaVuSans-36"/>
      </g>
     </g>
    </g>
    <g id="text_32">
     <!-- $t$ [s] -->
     <g transform="translate(243.908 330.274063)scale(0.1 -0.1)">
      <use xlink:href="#DejaVuSans-Oblique-74" transform="translate(0 0.015625)"/>
      <use xlink:href="#DejaVuSans-20" transform="translate(39.208984 0.015625)"/>
      <use xlink:href="#DejaVuSans-5b" transform="translate(70.996094 0.015625)"/>
      <use xlink:href="#DejaVuSans-73" transform="translate(110.009766 0.015625)"/>
      <use xlink:href="#DejaVuSans-5d" transform="translate(162.109375 0.015625)"/>
     </g>
    </g>
   </g>
   <g id="matplotlib.axis_6">
    <g id="ytick_5">
     <g id="line2d_53">
      <path d="M 58.016 295.231116 
L 450 295.231116 
" clip-path="url(#p1609964df3)" style="fill: none; stroke: #b0b0b0; stroke-width: 0.8; stroke-linecap: square"/>
     </g>
     <g id="line2d_54">
      <g>
       <use xlink:href="#m23a8b9a603" x="58.016" y="295.231116" style="stroke: #000000; stroke-width: 0.8"/>
      </g>
     </g>
     <g id="text_33">
      <!-- −2.5 -->
      <g transform="translate(26.733188 299.030335)scale(0.1 -0.1)">
       <defs>
        <path id="DejaVuSans-2212" d="M 678 2272 
L 4684 2272 
L 4684 1741 
L 678 1741 
L 678 2272 
z
" transform="scale(0.015625)"/>
       </defs>
       <use xlink:href="#DejaVuSans-2212"/>
       <use xlink:href="#DejaVuSans-32" x="83.789062"/>
       <use xlink:href="#DejaVuSans-2e" x="147.412109"/>
       <use xlink:href="#DejaVuSans-35" x="179.199219"/>
      </g>
     </g>
    </g>
    <g id="ytick_6">
     <g id="line2d_55">
      <path d="M 58.016 276.366234 
L 450 276.366234 
" clip-path="url(#p1609964df3)" style="fill: none; stroke: #b0b0b0; stroke-width: 0.8; stroke-linecap: square"/>
     </g>
     <g id="line2d_56">
      <g>
       <use xlink:href="#m23a8b9a603" x="58.016" y="276.366234" style="stroke: #000000; stroke-width: 0.8"/>
      </g>
     </g>
     <g id="text_34">
      <!-- 0.0 -->
      <g transform="translate(35.112875 280.165453)scale(0.1 -0.1)">
       <use xlink:href="#DejaVuSans-30"/>
       <use xlink:href="#DejaVuSans-2e" x="63.623047"/>
       <use xlink:href="#DejaVuSans-30" x="95.410156"/>
      </g>
     </g>
    </g>
    <g id="ytick_7">
     <g id="line2d_57">
      <path d="M 58.016 257.501352 
L 450 257.501352 
" clip-path="url(#p1609964df3)" style="fill: none; stroke: #b0b0b0; stroke-width: 0.8; stroke-linecap: square"/>
     </g>
     <g id="line2d_58">
      <g>
       <use xlink:href="#m23a8b9a603" x="58.016" y="257.501352" style="stroke: #000000; stroke-width: 0.8"/>
      </g>
     </g>
     <g id="text_35">
      <!-- 2.5 -->
      <g transform="translate(35.112875 261.300571)scale(0.1 -0.1)">
       <use xlink:href="#DejaVuSans-32"/>
       <use xlink:href="#DejaVuSans-2e" x="63.623047"/>
       <use xlink:href="#DejaVuSans-35" x="95.410156"/>
      </g>
     </g>
    </g>
    <g id="text_36">
     <!-- $e_\theta$ [rad] -->
     <g transform="translate(20.6535 295.90875)rotate(-90)scale(0.1 -0.1)">
      <defs>
       <path id="DejaVuSans-Oblique-3b8" d="M 2913 2219 
L 925 2219 
Q 791 1284 928 888 
Q 1100 400 1566 400 
Q 2034 400 2391 891 
Q 2703 1322 2913 2219 
z
M 3009 2750 
Q 3094 3638 2984 3950 
Q 2813 4444 2353 4444 
Q 1875 4444 1525 3956 
Q 1250 3563 1034 2750 
L 3009 2750 
z
M 2444 4913 
Q 3194 4913 3494 4250 
Q 3794 3591 3566 2422 
Q 3341 1256 2781 594 
Q 2225 -72 1475 -72 
Q 722 -72 425 594 
Q 128 1256 353 2422 
Q 581 3591 1134 4250 
Q 1691 4913 2444 4913 
z
" transform="scale(0.015625)"/>
       <path id="DejaVuSans-61" d="M 2194 1759 
Q 1497 1759 1228 1600 
Q 959 1441 959 1056 
Q 959 750 1161 570 
Q 1363 391 1709 391 
Q 2188 391 2477 730 
Q 2766 1069 2766 1631 
L 2766 1759 
L 2194 1759 
z
M 3341 1997 
L 3341 0 
L 2766 0 
L 2766 531 
Q 2569 213 2275 61 
Q 1981 -91 1556 -91 
Q 1019 -91 701 211 
Q 384 513 384 1019 
Q 384 1609 779 1909 
Q 1175 2209 1959 2209 
L 2766 2209 
L 2766 2266 
Q 2766 2663 2505 2880 
Q 2244 3097 1772 3097 
Q 1472 3097 1187 3025 
Q 903 2953 641 2809 
L 641 3341 
Q 956 3463 1253 3523 
Q 1550 3584 1831 3584 
Q 2591 3584 2966 3190 
Q 3341 2797 3341 1997 
z
" transform="scale(0.015625)"/>
       <path id="DejaVuSans-64" d="M 2906 2969 
L 2906 4863 
L 3481 4863 
L 3481 0 
L 2906 0 
L 2906 525 
Q 2725 213 2448 61 
Q 2172 -91 1784 -91 
Q 1150 -91 751 415 
Q 353 922 353 1747 
Q 353 2572 751 3078 
Q 1150 3584 1784 3584 
Q 2172 3584 2448 3432 
Q 2725 3281 2906 2969 
z
M 947 1747 
Q 947 1113 1208 752 
Q 1469 391 1925 391 
Q 2381 391 2643 752 
Q 2906 1113 2906 1747 
Q 2906 2381 2643 2742 
Q 2381 3103 1925 3103 
Q 1469 3103 1208 2742 
Q 947 2381 947 1747 
z
" transform="scale(0.015625)"/>
      </defs>
      <use xlink:href="#DejaVuSans-Oblique-65" transform="translate(0 0.015625)"/>
      <use xlink:href="#DejaVuSans-Oblique-3b8" transform="translate(61.523438 -16.390625)scale(0.7)"/>
      <use xlink:href="#DejaVuSans-20" transform="translate(107.084961 0.015625)"/>
      <use xlink:href="#DejaVuSans-5b" transform="translate(138.87207 0.015625)"/>
      <use xlink:href="#DejaVuSans-72" transform="translate(177.885742 0.015625)"/>
      <use xlink:href="#DejaVuSans-61" transform="translate(218.999023 0.015625)"/>
      <use xlink:href="#DejaVuSans-64" transform="translate(280.27832 0.015625)"/>
      <use xlink:href="#DejaVuSans-5d" transform="translate(343.754883 0.015625)"/>
     </g>
    </g>
   </g>
   <g id="line2d_59">
    <path d="M 75.833455 264.520454 
L 77.980136 264.467978 
L 80.663487 264.03102 
L 81.736828 263.822982 
L 82.810169 263.585264 
L 90.323553 262.611711 
L 99.446949 262.093726 
L 115.547058 261.987574 
L 124.670453 262.230836 
L 136.4772 262.565713 
L 148.283947 262.642957 
L 158.480683 262.469551 
L 166.530738 262.274472 
L 186.38754 262.208832 
L 214.831067 262.673399 
L 222.881122 262.756177 
L 227.174484 263.488346 
L 228.784495 263.999532 
L 229.321165 263.999532 
L 230.394506 264.381954 
L 231.467847 264.704638 
L 232.004517 264.957788 
L 232.541187 264.957788 
L 233.077858 265.198423 
L 234.687869 265.586131 
L 235.761209 265.876456 
L 241.127912 266.652199 
L 245.421275 266.856353 
L 247.031286 266.770316 
L 248.641297 266.544566 
L 249.177967 266.401542 
L 249.714637 266.049753 
L 250.251308 264.918565 
L 250.787978 263.417496 
L 251.324648 259.52306 
L 251.861319 299.703068 
L 252.397989 294.852713 
L 252.934659 293.279202 
L 254.008 292.723346 
L 256.154681 292.191694 
L 264.204736 291.574334 
L 269.034769 291.167294 
L 270.10811 291.03606 
L 280.304846 290.46295 
L 291.038252 290.304161 
L 299.088307 290.4291 
L 308.748372 290.740079 
L 310.895054 290.828053 
L 315.725087 291.006019 
L 321.09179 291.095203 
L 324.311812 290.900955 
L 326.995163 290.593742 
L 329.141844 290.125255 
L 330.215185 289.989498 
L 331.288526 289.697954 
L 332.361866 289.437275 
L 333.435207 289.110488 
L 335.581888 288.598255 
L 336.655229 288.249477 
L 339.338581 287.613855 
L 340.411921 287.277813 
L 347.388635 285.973209 
L 348.998646 285.926382 
L 350.071987 286.052227 
L 350.608657 286.154385 
L 351.145327 286.408895 
L 351.681998 286.876641 
L 352.218668 287.11402 
L 352.755338 287.802987 
L 353.828679 295.200273 
L 354.365349 253.814432 
L 354.90202 256.454092 
L 355.43869 257.573093 
L 355.97536 257.573093 
L 356.512031 258.270816 
L 358.122042 258.824785 
L 359.732053 259.038289 
L 364.025415 259.507619 
L 368.855448 260.392657 
L 370.465459 261.033196 
L 371.5388 261.24706 
L 372.07547 261.393123 
L 372.61214 261.689219 
L 373.685481 262.05727 
L 374.758821 262.480988 
L 375.295492 262.480988 
L 375.832162 262.744701 
L 377.442173 263.156681 
L 377.978843 263.359798 
L 378.515514 263.359798 
L 379.588854 263.6154 
L 383.345547 264.044246 
L 386.028898 264.145811 
L 402.129008 264.374602 
L 409.642392 264.803152 
L 414.472425 264.985422 
L 419.839128 264.945867 
L 423.59582 264.735431 
L 432.182545 264.366128 
L 432.182545 264.366128 
" clip-path="url(#p1609964df3)" style="fill: none; stroke: #008000; stroke-width: 1.5; stroke-linecap: square"/>
   </g>
   <g id="patch_13">
    <path d="M 58.016 301.9975 
L 58.016 251.52 
" style="fill: none; stroke: #000000; stroke-width: 0.8; stroke-linejoin: miter; stroke-linecap: square"/>
   </g>
   <g id="patch_14">
    <path d="M 450 301.9975 
L 450 251.52 
" style="fill: none; stroke: #000000; stroke-width: 0.8; stroke-linejoin: miter; stroke-linecap: square"/>
   </g>
   <g id="patch_15">
    <path d="M 58.016 301.9975 
L 450 301.9975 
" style="fill: none; stroke: #000000; stroke-width: 0.8; stroke-linejoin: miter; stroke-linecap: square"/>
   </g>
   <g id="patch_16">
    <path d="M 58.016 251.52 
L 450 251.52 
" style="fill: none; stroke: #000000; stroke-width: 0.8; stroke-linejoin: miter; stroke-linecap: square"/>
   </g>
   <g id="text_37">
    <!-- Error in swing angle -->
    <g transform="translate(194.237688 245.52)scale(0.12 -0.12)">
     <defs>
      <path id="DejaVuSans-77" d="M 269 3500 
L 844 3500 
L 1563 769 
L 2278 3500 
L 2956 3500 
L 3675 769 
L 4391 3500 
L 4966 3500 
L 4050 0 
L 3372 0 
L 2619 2869 
L 1863 0 
L 1184 0 
L 269 3500 
z
" transform="scale(0.015625)"/>
      <path id="DejaVuSans-67" d="M 2906 1791 
Q 2906 2416 2648 2759 
Q 2391 3103 1925 3103 
Q 1463 3103 1205 2759 
Q 947 2416 947 1791 
Q 947 1169 1205 825 
Q 1463 481 1925 481 
Q 2391 481 2648 825 
Q 2906 1169 2906 1791 
z
M 3481 434 
Q 3481 -459 3084 -895 
Q 2688 -1331 1869 -1331 
Q 1566 -1331 1297 -1286 
Q 1028 -1241 775 -1147 
L 775 -588 
Q 1028 -725 1275 -790 
Q 1522 -856 1778 -856 
Q 2344 -856 2625 -561 
Q 2906 -266 2906 331 
L 2906 616 
Q 2728 306 2450 153 
Q 2172 0 1784 0 
Q 1141 0 747 490 
Q 353 981 353 1791 
Q 353 2603 747 3093 
Q 1141 3584 1784 3584 
Q 2172 3584 2450 3431 
Q 2728 3278 2906 2969 
L 2906 3500 
L 3481 3500 
L 3481 434 
z
" transform="scale(0.015625)"/>
      <path id="DejaVuSans-6c" d="M 603 4863 
L 1178 4863 
L 1178 0 
L 603 0 
L 603 4863 
z
" transform="scale(0.015625)"/>
      <path id="DejaVuSans-65" d="M 3597 1894 
L 3597 1613 
L 953 1613 
Q 991 1019 1311 708 
Q 1631 397 2203 397 
Q 2534 397 2845 478 
Q 3156 559 3463 722 
L 3463 178 
Q 3153 47 2828 -22 
Q 2503 -91 2169 -91 
Q 1331 -91 842 396 
Q 353 884 353 1716 
Q 353 2575 817 3079 
Q 1281 3584 2069 3584 
Q 2775 3584 3186 3129 
Q 3597 2675 3597 1894 
z
M 3022 2063 
Q 3016 2534 2758 2815 
Q 2500 3097 2075 3097 
Q 1594 3097 1305 2825 
Q 1016 2553 972 2059 
L 3022 2063 
z
" transform="scale(0.015625)"/>
     </defs>
     <use xlink:href="#DejaVuSans-45"/>
     <use xlink:href="#DejaVuSans-72" x="63.183594"/>
     <use xlink:href="#DejaVuSans-72" x="102.546875"/>
     <use xlink:href="#DejaVuSans-6f" x="141.410156"/>
     <use xlink:href="#DejaVuSans-72" x="202.591797"/>
     <use xlink:href="#DejaVuSans-20" x="243.705078"/>
     <use xlink:href="#DejaVuSans-69" x="275.492188"/>
     <use xlink:href="#DejaVuSans-6e" x="303.275391"/>
     <use xlink:href="#DejaVuSans-20" x="366.654297"/>
     <use xlink:href="#DejaVuSans-73" x="398.441406"/>
     <use xlink:href="#DejaVuSans-77" x="450.541016"/>
     <use xlink:href="#DejaVuSans-69" x="532.328125"/>
     <use xlink:href="#DejaVuSans-6e" x="560.111328"/>
     <use xlink:href="#DejaVuSans-67" x="623.490234"/>
     <use xlink:href="#DejaVuSans-20" x="686.966797"/>
     <use xlink:href="#DejaVuSans-61" x="718.753906"/>
     <use xlink:href="#DejaVuSans-6e" x="780.033203"/>
     <use xlink:href="#DejaVuSans-67" x="843.412109"/>
     <use xlink:href="#DejaVuSans-6c" x="906.888672"/>
     <use xlink:href="#DejaVuSans-65" x="934.671875"/>
    </g>
   </g>
  </g>
 </g>
 <defs>
  <clipPath id="pa2d52a1849">
   <rect x="58.016" y="28.32" width="391.984" height="50.4775"/>
  </clipPath>
  <clipPath id="p355d469601">
   <rect x="58.016" y="139.92" width="391.984" height="50.4775"/>
  </clipPath>
  <clipPath id="p1609964df3">
   <rect x="58.016" y="251.52" width="391.984" height="50.4775"/>
  </clipPath>
 </defs>
</svg>
