<?xml version="1.0" encoding="utf-8" standalone="no"?>
<!DOCTYPE svg PUBLIC "-//W3C//DTD SVG 1.1//EN"
  "http://www.w3.org/Graphics/SVG/1.1/DTD/svg11.dtd">
<svg xmlns:xlink="http://www.w3.org/1999/xlink" width="460.8pt" height="345.6pt" viewBox="0 0 460.8 345.6" xmlns="http://www.w3.org/2000/svg" version="1.1">
 <metadata>
  <rdf:RDF xmlns:dc="http://purl.org/dc/elements/1.1/" xmlns:cc="http://creativecommons.org/ns#" xmlns:rdf="http://www.w3.org/1999/02/22-rdf-syntax-ns#">
   <cc:Work>
    <dc:type rdf:resource="http://purl.org/dc/dcmitype/StillImage"/>
    <dc:date>2022-06-05T14:18:24.547146</dc:date>
    <dc:format>image/svg+xml</dc:format>
    <dc:creator>
     <cc:Agent>
      <dc:title>Matplotlib v3.5.1, https://matplotlib.org/</dc:title>
     </cc:Agent>
    </dc:creator>
   </cc:Work>
  </rdf:RDF>
 </metadata>
 <defs>
  <style type="text/css">*{stroke-linejoin: round; stroke-linecap: butt}</style>
 </defs>
 <g id="figure_1">
  <g id="patch_1">
   <path d="M 0 345.6 
L 460.8 345.6 
L 460.8 0 
L 0 0 
z
" style="fill: #ffffff"/>
  </g>
  <g id="axes_1">
   <g id="patch_2">
    <path d="M 58.106 78.7975 
L 450 78.7975 
L 450 28.32 
L 58.106 28.32 
z
" style="fill: #ffffff"/>
   </g>
   <g id="matplotlib.axis_1">
    <g id="xtick_1">
     <g id="line2d_1">
      <path d="M 75.919364 78.7975 
L 75.919364 28.32 
" clip-path="url(#p81bbcfce69)" style="fill: none; stroke: #b0b0b0; stroke-width: 0.8; stroke-linecap: square"/>
     </g>
     <g id="line2d_2">
      <defs>
       <path id="m0ef4995665" d="M 0 0 
L 0 3.5 
" style="stroke: #000000; stroke-width: 0.8"/>
      </defs>
      <g>
       <use xlink:href="#m0ef4995665" x="75.919364" y="78.7975" style="stroke: #000000; stroke-width: 0.8"/>
      </g>
     </g>
     <g id="text_1">
      <!-- 0 -->
      <g transform="translate(72.738114 93.395937)scale(0.1 -0.1)">
       <defs>
        <path id="DejaVuSans-30" d="M 2034 4250 
Q 1547 4250 1301 3770 
Q 1056 3291 1056 2328 
Q 1056 1369 1301 889 
Q 1547 409 2034 409 
Q 2525 409 2770 889 
Q 3016 1369 3016 2328 
Q 3016 3291 2770 3770 
Q 2525 4250 2034 4250 
z
M 2034 4750 
Q 2819 4750 3233 4129 
Q 3647 3509 3647 2328 
Q 3647 1150 3233 529 
Q 2819 -91 2034 -91 
Q 1250 -91 836 529 
Q 422 1150 422 2328 
Q 422 3509 836 4129 
Q 1250 4750 2034 4750 
z
" transform="scale(0.015625)"/>
       </defs>
       <use xlink:href="#DejaVuSans-30"/>
      </g>
     </g>
    </g>
    <g id="xtick_2">
     <g id="line2d_3">
      <path d="M 136.048861 78.7975 
L 136.048861 28.32 
" clip-path="url(#p81bbcfce69)" style="fill: none; stroke: #b0b0b0; stroke-width: 0.8; stroke-linecap: square"/>
     </g>
     <g id="line2d_4">
      <g>
       <use xlink:href="#m0ef4995665" x="136.048861" y="78.7975" style="stroke: #000000; stroke-width: 0.8"/>
      </g>
     </g>
     <g id="text_2">
      <!-- 2 -->
      <g transform="translate(132.867611 93.395937)scale(0.1 -0.1)">
       <defs>
        <path id="DejaVuSans-32" d="M 1228 531 
L 3431 531 
L 3431 0 
L 469 0 
L 469 531 
Q 828 903 1448 1529 
Q 2069 2156 2228 2338 
Q 2531 2678 2651 2914 
Q 2772 3150 2772 3378 
Q 2772 3750 2511 3984 
Q 2250 4219 1831 4219 
Q 1534 4219 1204 4116 
Q 875 4013 500 3803 
L 500 4441 
Q 881 4594 1212 4672 
Q 1544 4750 1819 4750 
Q 2544 4750 2975 4387 
Q 3406 4025 3406 3419 
Q 3406 3131 3298 2873 
Q 3191 2616 2906 2266 
Q 2828 2175 2409 1742 
Q 1991 1309 1228 531 
z
" transform="scale(0.015625)"/>
       </defs>
       <use xlink:href="#DejaVuSans-32"/>
      </g>
     </g>
    </g>
    <g id="xtick_3">
     <g id="line2d_5">
      <path d="M 196.178359 78.7975 
L 196.178359 28.32 
" clip-path="url(#p81bbcfce69)" style="fill: none; stroke: #b0b0b0; stroke-width: 0.8; stroke-linecap: square"/>
     </g>
     <g id="line2d_6">
      <g>
       <use xlink:href="#m0ef4995665" x="196.178359" y="78.7975" style="stroke: #000000; stroke-width: 0.8"/>
      </g>
     </g>
     <g id="text_3">
      <!-- 4 -->
      <g transform="translate(192.997109 93.395937)scale(0.1 -0.1)">
       <defs>
        <path id="DejaVuSans-34" d="M 2419 4116 
L 825 1625 
L 2419 1625 
L 2419 4116 
z
M 2253 4666 
L 3047 4666 
L 3047 1625 
L 3713 1625 
L 3713 1100 
L 3047 1100 
L 3047 0 
L 2419 0 
L 2419 1100 
L 313 1100 
L 313 1709 
L 2253 4666 
z
" transform="scale(0.015625)"/>
       </defs>
       <use xlink:href="#DejaVuSans-34"/>
      </g>
     </g>
    </g>
    <g id="xtick_4">
     <g id="line2d_7">
      <path d="M 256.307856 78.7975 
L 256.307856 28.32 
" clip-path="url(#p81bbcfce69)" style="fill: none; stroke: #b0b0b0; stroke-width: 0.8; stroke-linecap: square"/>
     </g>
     <g id="line2d_8">
      <g>
       <use xlink:href="#m0ef4995665" x="256.307856" y="78.7975" style="stroke: #000000; stroke-width: 0.8"/>
      </g>
     </g>
     <g id="text_4">
      <!-- 6 -->
      <g transform="translate(253.126606 93.395937)scale(0.1 -0.1)">
       <defs>
        <path id="DejaVuSans-36" d="M 2113 2584 
Q 1688 2584 1439 2293 
Q 1191 2003 1191 1497 
Q 1191 994 1439 701 
Q 1688 409 2113 409 
Q 2538 409 2786 701 
Q 3034 994 3034 1497 
Q 3034 2003 2786 2293 
Q 2538 2584 2113 2584 
z
M 3366 4563 
L 3366 3988 
Q 3128 4100 2886 4159 
Q 2644 4219 2406 4219 
Q 1781 4219 1451 3797 
Q 1122 3375 1075 2522 
Q 1259 2794 1537 2939 
Q 1816 3084 2150 3084 
Q 2853 3084 3261 2657 
Q 3669 2231 3669 1497 
Q 3669 778 3244 343 
Q 2819 -91 2113 -91 
Q 1303 -91 875 529 
Q 447 1150 447 2328 
Q 447 3434 972 4092 
Q 1497 4750 2381 4750 
Q 2619 4750 2861 4703 
Q 3103 4656 3366 4563 
z
" transform="scale(0.015625)"/>
       </defs>
       <use xlink:href="#DejaVuSans-36"/>
      </g>
     </g>
    </g>
    <g id="xtick_5">
     <g id="line2d_9">
      <path d="M 316.437354 78.7975 
L 316.437354 28.32 
" clip-path="url(#p81bbcfce69)" style="fill: none; stroke: #b0b0b0; stroke-width: 0.8; stroke-linecap: square"/>
     </g>
     <g id="line2d_10">
      <g>
       <use xlink:href="#m0ef4995665" x="316.437354" y="78.7975" style="stroke: #000000; stroke-width: 0.8"/>
      </g>
     </g>
     <g id="text_5">
      <!-- 8 -->
      <g transform="translate(313.256104 93.395937)scale(0.1 -0.1)">
       <defs>
        <path id="DejaVuSans-38" d="M 2034 2216 
Q 1584 2216 1326 1975 
Q 1069 1734 1069 1313 
Q 1069 891 1326 650 
Q 1584 409 2034 409 
Q 2484 409 2743 651 
Q 3003 894 3003 1313 
Q 3003 1734 2745 1975 
Q 2488 2216 2034 2216 
z
M 1403 2484 
Q 997 2584 770 2862 
Q 544 3141 544 3541 
Q 544 4100 942 4425 
Q 1341 4750 2034 4750 
Q 2731 4750 3128 4425 
Q 3525 4100 3525 3541 
Q 3525 3141 3298 2862 
Q 3072 2584 2669 2484 
Q 3125 2378 3379 2068 
Q 3634 1759 3634 1313 
Q 3634 634 3220 271 
Q 2806 -91 2034 -91 
Q 1263 -91 848 271 
Q 434 634 434 1313 
Q 434 1759 690 2068 
Q 947 2378 1403 2484 
z
M 1172 3481 
Q 1172 3119 1398 2916 
Q 1625 2713 2034 2713 
Q 2441 2713 2670 2916 
Q 2900 3119 2900 3481 
Q 2900 3844 2670 4047 
Q 2441 4250 2034 4250 
Q 1625 4250 1398 4047 
Q 1172 3844 1172 3481 
z
" transform="scale(0.015625)"/>
       </defs>
       <use xlink:href="#DejaVuSans-38"/>
      </g>
     </g>
    </g>
    <g id="xtick_6">
     <g id="line2d_11">
      <path d="M 376.566851 78.7975 
L 376.566851 28.32 
" clip-path="url(#p81bbcfce69)" style="fill: none; stroke: #b0b0b0; stroke-width: 0.8; stroke-linecap: square"/>
     </g>
     <g id="line2d_12">
      <g>
       <use xlink:href="#m0ef4995665" x="376.566851" y="78.7975" style="stroke: #000000; stroke-width: 0.8"/>
      </g>
     </g>
     <g id="text_6">
      <!-- 10 -->
      <g transform="translate(370.204351 93.395937)scale(0.1 -0.1)">
       <defs>
        <path id="DejaVuSans-31" d="M 794 531 
L 1825 531 
L 1825 4091 
L 703 3866 
L 703 4441 
L 1819 4666 
L 2450 4666 
L 2450 531 
L 3481 531 
L 3481 0 
L 794 0 
L 794 531 
z
" transform="scale(0.015625)"/>
       </defs>
       <use xlink:href="#DejaVuSans-31"/>
       <use xlink:href="#DejaVuSans-30" x="63.623047"/>
      </g>
     </g>
    </g>
    <g id="xtick_7">
     <g id="line2d_13">
      <path d="M 436.696349 78.7975 
L 436.696349 28.32 
" clip-path="url(#p81bbcfce69)" style="fill: none; stroke: #b0b0b0; stroke-width: 0.8; stroke-linecap: square"/>
     </g>
     <g id="line2d_14">
      <g>
       <use xlink:href="#m0ef4995665" x="436.696349" y="78.7975" style="stroke: #000000; stroke-width: 0.8"/>
      </g>
     </g>
     <g id="text_7">
      <!-- 12 -->
      <g transform="translate(430.333849 93.395937)scale(0.1 -0.1)">
       <use xlink:href="#DejaVuSans-31"/>
       <use xlink:href="#DejaVuSans-32" x="63.623047"/>
      </g>
     </g>
    </g>
    <g id="text_8">
     <!-- $t$ [s] -->
     <g transform="translate(243.953 107.074062)scale(0.1 -0.1)">
      <defs>
       <path id="DejaVuSans-Oblique-74" d="M 2706 3500 
L 2619 3053 
L 1472 3053 
L 1100 1153 
Q 1081 1047 1072 975 
Q 1063 903 1063 863 
Q 1063 663 1183 572 
Q 1303 481 1569 481 
L 2150 481 
L 2053 0 
L 1503 0 
Q 991 0 739 200 
Q 488 400 488 806 
Q 488 878 497 964 
Q 506 1050 525 1153 
L 897 3053 
L 409 3053 
L 500 3500 
L 978 3500 
L 1172 4494 
L 1747 4494 
L 1556 3500 
L 2706 3500 
z
" transform="scale(0.015625)"/>
       <path id="DejaVuSans-20" transform="scale(0.015625)"/>
       <path id="DejaVuSans-5b" d="M 550 4863 
L 1875 4863 
L 1875 4416 
L 1125 4416 
L 1125 -397 
L 1875 -397 
L 1875 -844 
L 550 -844 
L 550 4863 
z
" transform="scale(0.015625)"/>
       <path id="DejaVuSans-73" d="M 2834 3397 
L 2834 2853 
Q 2591 2978 2328 3040 
Q 2066 3103 1784 3103 
Q 1356 3103 1142 2972 
Q 928 2841 928 2578 
Q 928 2378 1081 2264 
Q 1234 2150 1697 2047 
L 1894 2003 
Q 2506 1872 2764 1633 
Q 3022 1394 3022 966 
Q 3022 478 2636 193 
Q 2250 -91 1575 -91 
Q 1294 -91 989 -36 
Q 684 19 347 128 
L 347 722 
Q 666 556 975 473 
Q 1284 391 1588 391 
Q 1994 391 2212 530 
Q 2431 669 2431 922 
Q 2431 1156 2273 1281 
Q 2116 1406 1581 1522 
L 1381 1569 
Q 847 1681 609 1914 
Q 372 2147 372 2553 
Q 372 3047 722 3315 
Q 1072 3584 1716 3584 
Q 2034 3584 2315 3537 
Q 2597 3491 2834 3397 
z
" transform="scale(0.015625)"/>
       <path id="DejaVuSans-5d" d="M 1947 4863 
L 1947 -844 
L 622 -844 
L 622 -397 
L 1369 -397 
L 1369 4416 
L 622 4416 
L 622 4863 
L 1947 4863 
z
" transform="scale(0.015625)"/>
      </defs>
      <use xlink:href="#DejaVuSans-Oblique-74" transform="translate(0 0.015625)"/>
      <use xlink:href="#DejaVuSans-20" transform="translate(39.208984 0.015625)"/>
      <use xlink:href="#DejaVuSans-5b" transform="translate(70.996094 0.015625)"/>
      <use xlink:href="#DejaVuSans-73" transform="translate(110.009766 0.015625)"/>
      <use xlink:href="#DejaVuSans-5d" transform="translate(162.109375 0.015625)"/>
     </g>
    </g>
   </g>
   <g id="matplotlib.axis_2">
    <g id="ytick_1">
     <g id="line2d_15">
      <path d="M 58.106 76.592907 
L 450 76.592907 
" clip-path="url(#p81bbcfce69)" style="fill: none; stroke: #b0b0b0; stroke-width: 0.8; stroke-linecap: square"/>
     </g>
     <g id="line2d_16">
      <defs>
       <path id="m8898ebd84e" d="M 0 0 
L -3.5 0 
" style="stroke: #000000; stroke-width: 0.8"/>
      </defs>
      <g>
       <use xlink:href="#m8898ebd84e" x="58.106" y="76.592907" style="stroke: #000000; stroke-width: 0.8"/>
      </g>
     </g>
     <g id="text_9">
      <!-- 0 -->
      <g transform="translate(44.7435 80.392125)scale(0.1 -0.1)">
       <use xlink:href="#DejaVuSans-30"/>
      </g>
     </g>
    </g>
    <g id="ytick_2">
     <g id="line2d_17">
      <path d="M 58.106 30.614423 
L 450 30.614423 
" clip-path="url(#p81bbcfce69)" style="fill: none; stroke: #b0b0b0; stroke-width: 0.8; stroke-linecap: square"/>
     </g>
     <g id="line2d_18">
      <g>
       <use xlink:href="#m8898ebd84e" x="58.106" y="30.614423" style="stroke: #000000; stroke-width: 0.8"/>
      </g>
     </g>
     <g id="text_10">
      <!-- 10 -->
      <g transform="translate(38.381 34.413642)scale(0.1 -0.1)">
       <use xlink:href="#DejaVuSans-31"/>
       <use xlink:href="#DejaVuSans-30" x="63.623047"/>
      </g>
     </g>
    </g>
    <g id="text_11">
     <!-- $e_x$ [m] -->
     <g transform="translate(32.301313 69.20875)rotate(-90)scale(0.1 -0.1)">
      <defs>
       <path id="DejaVuSans-Oblique-65" d="M 3078 2063 
Q 3088 2113 3092 2166 
Q 3097 2219 3097 2272 
Q 3097 2653 2873 2875 
Q 2650 3097 2266 3097 
Q 1838 3097 1509 2826 
Q 1181 2556 1013 2059 
L 3078 2063 
z
M 3578 1613 
L 903 1613 
Q 884 1494 878 1425 
Q 872 1356 872 1306 
Q 872 872 1139 634 
Q 1406 397 1894 397 
Q 2269 397 2603 481 
Q 2938 566 3225 728 
L 3116 159 
Q 2806 34 2476 -28 
Q 2147 -91 1806 -91 
Q 1078 -91 686 257 
Q 294 606 294 1247 
Q 294 1794 489 2264 
Q 684 2734 1063 3103 
Q 1306 3334 1642 3459 
Q 1978 3584 2356 3584 
Q 2950 3584 3301 3228 
Q 3653 2872 3653 2272 
Q 3653 2128 3634 1964 
Q 3616 1800 3578 1613 
z
" transform="scale(0.015625)"/>
       <path id="DejaVuSans-Oblique-78" d="M 3841 3500 
L 2234 1784 
L 3219 0 
L 2559 0 
L 1819 1388 
L 531 0 
L -166 0 
L 1556 1844 
L 641 3500 
L 1300 3500 
L 1972 2234 
L 3144 3500 
L 3841 3500 
z
" transform="scale(0.015625)"/>
       <path id="DejaVuSans-6d" d="M 3328 2828 
Q 3544 3216 3844 3400 
Q 4144 3584 4550 3584 
Q 5097 3584 5394 3201 
Q 5691 2819 5691 2113 
L 5691 0 
L 5113 0 
L 5113 2094 
Q 5113 2597 4934 2840 
Q 4756 3084 4391 3084 
Q 3944 3084 3684 2787 
Q 3425 2491 3425 1978 
L 3425 0 
L 2847 0 
L 2847 2094 
Q 2847 2600 2669 2842 
Q 2491 3084 2119 3084 
Q 1678 3084 1418 2786 
Q 1159 2488 1159 1978 
L 1159 0 
L 581 0 
L 581 3500 
L 1159 3500 
L 1159 2956 
Q 1356 3278 1631 3431 
Q 1906 3584 2284 3584 
Q 2666 3584 2933 3390 
Q 3200 3197 3328 2828 
z
" transform="scale(0.015625)"/>
      </defs>
      <use xlink:href="#DejaVuSans-Oblique-65" transform="translate(0 0.015625)"/>
      <use xlink:href="#DejaVuSans-Oblique-78" transform="translate(61.523438 -16.390625)scale(0.7)"/>
      <use xlink:href="#DejaVuSans-20" transform="translate(105.683594 0.015625)"/>
      <use xlink:href="#DejaVuSans-5b" transform="translate(137.470703 0.015625)"/>
      <use xlink:href="#DejaVuSans-6d" transform="translate(176.484375 0.015625)"/>
      <use xlink:href="#DejaVuSans-5d" transform="translate(273.896484 0.015625)"/>
     </g>
    </g>
   </g>
   <g id="line2d_19">
    <path d="M 75.919364 30.614432 
L 82.840096 30.71948 
L 95.477955 31.415939 
L 97.283364 31.650524 
L 98.186068 31.742926 
L 101.495984 32.20077 
L 105.708604 32.773067 
L 107.814913 33.116033 
L 108.717618 33.279947 
L 111.726632 33.798289 
L 112.629336 33.975428 
L 115.036547 34.402433 
L 116.240153 34.657412 
L 118.647364 35.128157 
L 119.550068 35.397268 
L 120.452773 35.537544 
L 121.656378 35.888121 
L 122.258181 35.978498 
L 123.461787 36.348789 
L 124.364491 36.569891 
L 124.665393 36.569891 
L 124.966294 36.761518 
L 125.868998 36.922328 
L 126.771702 37.213539 
L 128.276209 37.603909 
L 130.382519 38.161425 
L 132.789731 38.891257 
L 133.090632 38.891257 
L 133.993336 39.188927 
L 135.497843 39.581555 
L 137.604153 40.125732 
L 138.807759 40.468178 
L 139.10866 40.468178 
L 139.409562 40.6515 
L 140.312266 40.802554 
L 141.21497 41.071137 
L 142.719477 41.424201 
L 145.42759 42.058509 
L 146.330294 42.284833 
L 149.038407 42.899481 
L 149.941111 43.121464 
L 152.348322 43.673225 
L 153.251027 43.891928 
L 156.560942 44.589632 
L 157.463646 44.799423 
L 160.171759 45.364405 
L 161.074463 45.566143 
L 163.481675 46.063622 
L 164.384379 46.260107 
L 167.092492 46.7989 
L 167.995196 46.995486 
L 170.402407 47.480639 
L 171.305111 47.668924 
L 174.615027 48.267228 
L 175.818633 48.545416 
L 177.022238 48.707013 
L 177.624041 48.866554 
L 180.633055 49.41664 
L 183.341168 49.908254 
L 186.049281 50.384516 
L 186.651084 50.539271 
L 189.058295 50.953155 
L 189.660098 51.063758 
L 190.562802 51.24448 
L 192.669112 51.639535 
L 193.270915 51.756095 
L 194.173619 51.940768 
L 196.881732 52.433921 
L 197.784436 52.612402 
L 199.890746 53.025031 
L 200.79345 53.211304 
L 202.598858 53.578465 
L 203.200661 53.668317 
L 206.510577 54.24334 
L 207.413281 54.421387 
L 209.519591 54.82205 
L 210.422295 54.997012 
L 213.431309 55.505021 
L 214.334014 55.673419 
L 217.042126 56.14572 
L 217.94483 56.317308 
L 220.352042 56.711914 
L 220.953845 56.813544 
L 221.856549 56.976599 
L 223.962859 57.332057 
L 224.564662 57.438628 
L 225.467366 57.609063 
L 227.874577 58.045283 
L 230.58269 58.498729 
L 233.591704 58.986603 
L 234.193507 59.132346 
L 237.202521 59.616648 
L 238.105225 59.77863 
L 240.211535 60.151458 
L 241.114239 60.317162 
L 244.424155 60.814548 
L 245.025958 60.951193 
L 248.034972 61.412561 
L 248.636775 61.555222 
L 251.645789 62.004572 
L 252.247592 62.135459 
L 255.256606 62.57101 
L 255.858408 62.708789 
L 259.469225 63.291046 
L 260.672831 63.471074 
L 263.681845 63.899853 
L 264.885451 64.08793 
L 266.991761 64.434519 
L 267.894465 64.584276 
L 272.708888 65.255849 
L 273.912493 65.431997 
L 276.319705 65.796549 
L 277.824212 66.060024 
L 278.726916 66.159974 
L 283.541338 66.79458 
L 284.744944 66.966688 
L 288.05486 67.432792 
L 292.568381 68.005553 
L 293.771986 68.169859 
L 297.683705 68.69769 
L 298.887311 68.844942 
L 302.799029 69.332377 
L 306.710747 69.86259 
L 307.613451 69.963318 
L 311.826071 70.465757 
L 312.728775 70.608153 
L 319.649508 71.445102 
L 321.454916 71.711707 
L 324.163029 72.036472 
L 328.67655 72.552691 
L 329.278353 72.658039 
L 334.092776 73.227762 
L 334.694579 73.322543 
L 338.606297 73.755428 
L 339.809903 73.899488 
L 350.040551 74.994745 
L 353.651368 75.327392 
L 367.492833 76.115756 
L 379.829791 76.35807 
L 390.060439 76.231221 
L 397.282072 76.068924 
L 405.707312 75.888551 
L 419.247876 75.906513 
L 427.974017 76.298274 
L 430.080326 76.424415 
L 432.186636 76.503068 
L 432.186636 76.503068 
" clip-path="url(#p81bbcfce69)" style="fill: none; stroke: #ff0000; stroke-width: 1.5; stroke-linecap: square"/>
   </g>
   <g id="patch_3">
    <path d="M 58.106 78.7975 
L 58.106 28.32 
" style="fill: none; stroke: #000000; stroke-width: 0.8; stroke-linejoin: miter; stroke-linecap: square"/>
   </g>
   <g id="patch_4">
    <path d="M 450 78.7975 
L 450 28.32 
" style="fill: none; stroke: #000000; stroke-width: 0.8; stroke-linejoin: miter; stroke-linecap: square"/>
   </g>
   <g id="patch_5">
    <path d="M 58.106 78.7975 
L 450 78.7975 
" style="fill: none; stroke: #000000; stroke-width: 0.8; stroke-linejoin: miter; stroke-linecap: square"/>
   </g>
   <g id="patch_6">
    <path d="M 58.106 28.32 
L 450 28.32 
" style="fill: none; stroke: #000000; stroke-width: 0.8; stroke-linejoin: miter; stroke-linecap: square"/>
   </g>
   <g id="text_12">
    <!-- Error in $x$-position -->
    <g transform="translate(200.413 22.32)scale(0.12 -0.12)">
     <defs>
      <path id="DejaVuSans-45" d="M 628 4666 
L 3578 4666 
L 3578 4134 
L 1259 4134 
L 1259 2753 
L 3481 2753 
L 3481 2222 
L 1259 2222 
L 1259 531 
L 3634 531 
L 3634 0 
L 628 0 
L 628 4666 
z
" transform="scale(0.015625)"/>
      <path id="DejaVuSans-72" d="M 2631 2963 
Q 2534 3019 2420 3045 
Q 2306 3072 2169 3072 
Q 1681 3072 1420 2755 
Q 1159 2438 1159 1844 
L 1159 0 
L 581 0 
L 581 3500 
L 1159 3500 
L 1159 2956 
Q 1341 3275 1631 3429 
Q 1922 3584 2338 3584 
Q 2397 3584 2469 3576 
Q 2541 3569 2628 3553 
L 2631 2963 
z
" transform="scale(0.015625)"/>
      <path id="DejaVuSans-6f" d="M 1959 3097 
Q 1497 3097 1228 2736 
Q 959 2375 959 1747 
Q 959 1119 1226 758 
Q 1494 397 1959 397 
Q 2419 397 2687 759 
Q 2956 1122 2956 1747 
Q 2956 2369 2687 2733 
Q 2419 3097 1959 3097 
z
M 1959 3584 
Q 2709 3584 3137 3096 
Q 3566 2609 3566 1747 
Q 3566 888 3137 398 
Q 2709 -91 1959 -91 
Q 1206 -91 779 398 
Q 353 888 353 1747 
Q 353 2609 779 3096 
Q 1206 3584 1959 3584 
z
" transform="scale(0.015625)"/>
      <path id="DejaVuSans-69" d="M 603 3500 
L 1178 3500 
L 1178 0 
L 603 0 
L 603 3500 
z
M 603 4863 
L 1178 4863 
L 1178 4134 
L 603 4134 
L 603 4863 
z
" transform="scale(0.015625)"/>
      <path id="DejaVuSans-6e" d="M 3513 2113 
L 3513 0 
L 2938 0 
L 2938 2094 
Q 2938 2591 2744 2837 
Q 2550 3084 2163 3084 
Q 1697 3084 1428 2787 
Q 1159 2491 1159 1978 
L 1159 0 
L 581 0 
L 581 3500 
L 1159 3500 
L 1159 2956 
Q 1366 3272 1645 3428 
Q 1925 3584 2291 3584 
Q 2894 3584 3203 3211 
Q 3513 2838 3513 2113 
z
" transform="scale(0.015625)"/>
      <path id="DejaVuSans-2d" d="M 313 2009 
L 1997 2009 
L 1997 1497 
L 313 1497 
L 313 2009 
z
" transform="scale(0.015625)"/>
      <path id="DejaVuSans-70" d="M 1159 525 
L 1159 -1331 
L 581 -1331 
L 581 3500 
L 1159 3500 
L 1159 2969 
Q 1341 3281 1617 3432 
Q 1894 3584 2278 3584 
Q 2916 3584 3314 3078 
Q 3713 2572 3713 1747 
Q 3713 922 3314 415 
Q 2916 -91 2278 -91 
Q 1894 -91 1617 61 
Q 1341 213 1159 525 
z
M 3116 1747 
Q 3116 2381 2855 2742 
Q 2594 3103 2138 3103 
Q 1681 3103 1420 2742 
Q 1159 2381 1159 1747 
Q 1159 1113 1420 752 
Q 1681 391 2138 391 
Q 2594 391 2855 752 
Q 3116 1113 3116 1747 
z
" transform="scale(0.015625)"/>
      <path id="DejaVuSans-74" d="M 1172 4494 
L 1172 3500 
L 2356 3500 
L 2356 3053 
L 1172 3053 
L 1172 1153 
Q 1172 725 1289 603 
Q 1406 481 1766 481 
L 2356 481 
L 2356 0 
L 1766 0 
Q 1100 0 847 248 
Q 594 497 594 1153 
L 594 3053 
L 172 3053 
L 172 3500 
L 594 3500 
L 594 4494 
L 1172 4494 
z
" transform="scale(0.015625)"/>
     </defs>
     <use xlink:href="#DejaVuSans-45" transform="translate(0 0.015625)"/>
     <use xlink:href="#DejaVuSans-72" transform="translate(63.183594 0.015625)"/>
     <use xlink:href="#DejaVuSans-72" transform="translate(104.296875 0.015625)"/>
     <use xlink:href="#DejaVuSans-6f" transform="translate(145.410156 0.015625)"/>
     <use xlink:href="#DejaVuSans-72" transform="translate(206.591797 0.015625)"/>
     <use xlink:href="#DejaVuSans-20" transform="translate(247.705078 0.015625)"/>
     <use xlink:href="#DejaVuSans-69" transform="translate(279.492188 0.015625)"/>
     <use xlink:href="#DejaVuSans-6e" transform="translate(307.275391 0.015625)"/>
     <use xlink:href="#DejaVuSans-20" transform="translate(370.654297 0.015625)"/>
     <use xlink:href="#DejaVuSans-Oblique-78" transform="translate(402.441406 0.015625)"/>
     <use xlink:href="#DejaVuSans-2d" transform="translate(461.621094 0.015625)"/>
     <use xlink:href="#DejaVuSans-70" transform="translate(497.705078 0.015625)"/>
     <use xlink:href="#DejaVuSans-6f" transform="translate(561.181641 0.015625)"/>
     <use xlink:href="#DejaVuSans-73" transform="translate(622.363281 0.015625)"/>
     <use xlink:href="#DejaVuSans-69" transform="translate(674.462891 0.015625)"/>
     <use xlink:href="#DejaVuSans-74" transform="translate(702.246094 0.015625)"/>
     <use xlink:href="#DejaVuSans-69" transform="translate(741.455078 0.015625)"/>
     <use xlink:href="#DejaVuSans-6f" transform="translate(769.238281 0.015625)"/>
     <use xlink:href="#DejaVuSans-6e" transform="translate(830.419922 0.015625)"/>
    </g>
   </g>
  </g>
  <g id="axes_2">
   <g id="patch_7">
    <path d="M 58.106 190.3975 
L 450 190.3975 
L 450 139.92 
L 58.106 139.92 
z
" style="fill: #ffffff"/>
   </g>
   <g id="matplotlib.axis_3">
    <g id="xtick_8">
     <g id="line2d_20">
      <path d="M 75.919364 190.3975 
L 75.919364 139.92 
" clip-path="url(#pc15015802b)" style="fill: none; stroke: #b0b0b0; stroke-width: 0.8; stroke-linecap: square"/>
     </g>
     <g id="line2d_21">
      <g>
       <use xlink:href="#m0ef4995665" x="75.919364" y="190.3975" style="stroke: #000000; stroke-width: 0.8"/>
      </g>
     </g>
     <g id="text_13">
      <!-- 0 -->
      <g transform="translate(72.738114 204.995937)scale(0.1 -0.1)">
       <use xlink:href="#DejaVuSans-30"/>
      </g>
     </g>
    </g>
    <g id="xtick_9">
     <g id="line2d_22">
      <path d="M 136.048861 190.3975 
L 136.048861 139.92 
" clip-path="url(#pc15015802b)" style="fill: none; stroke: #b0b0b0; stroke-width: 0.8; stroke-linecap: square"/>
     </g>
     <g id="line2d_23">
      <g>
       <use xlink:href="#m0ef4995665" x="136.048861" y="190.3975" style="stroke: #000000; stroke-width: 0.8"/>
      </g>
     </g>
     <g id="text_14">
      <!-- 2 -->
      <g transform="translate(132.867611 204.995937)scale(0.1 -0.1)">
       <use xlink:href="#DejaVuSans-32"/>
      </g>
     </g>
    </g>
    <g id="xtick_10">
     <g id="line2d_24">
      <path d="M 196.178359 190.3975 
L 196.178359 139.92 
" clip-path="url(#pc15015802b)" style="fill: none; stroke: #b0b0b0; stroke-width: 0.8; stroke-linecap: square"/>
     </g>
     <g id="line2d_25">
      <g>
       <use xlink:href="#m0ef4995665" x="196.178359" y="190.3975" style="stroke: #000000; stroke-width: 0.8"/>
      </g>
     </g>
     <g id="text_15">
      <!-- 4 -->
      <g transform="translate(192.997109 204.995937)scale(0.1 -0.1)">
       <use xlink:href="#DejaVuSans-34"/>
      </g>
     </g>
    </g>
    <g id="xtick_11">
     <g id="line2d_26">
      <path d="M 256.307856 190.3975 
L 256.307856 139.92 
" clip-path="url(#pc15015802b)" style="fill: none; stroke: #b0b0b0; stroke-width: 0.8; stroke-linecap: square"/>
     </g>
     <g id="line2d_27">
      <g>
       <use xlink:href="#m0ef4995665" x="256.307856" y="190.3975" style="stroke: #000000; stroke-width: 0.8"/>
      </g>
     </g>
     <g id="text_16">
      <!-- 6 -->
      <g transform="translate(253.126606 204.995937)scale(0.1 -0.1)">
       <use xlink:href="#DejaVuSans-36"/>
      </g>
     </g>
    </g>
    <g id="xtick_12">
     <g id="line2d_28">
      <path d="M 316.437354 190.3975 
L 316.437354 139.92 
" clip-path="url(#pc15015802b)" style="fill: none; stroke: #b0b0b0; stroke-width: 0.8; stroke-linecap: square"/>
     </g>
     <g id="line2d_29">
      <g>
       <use xlink:href="#m0ef4995665" x="316.437354" y="190.3975" style="stroke: #000000; stroke-width: 0.8"/>
      </g>
     </g>
     <g id="text_17">
      <!-- 8 -->
      <g transform="translate(313.256104 204.995937)scale(0.1 -0.1)">
       <use xlink:href="#DejaVuSans-38"/>
      </g>
     </g>
    </g>
    <g id="xtick_13">
     <g id="line2d_30">
      <path d="M 376.566851 190.3975 
L 376.566851 139.92 
" clip-path="url(#pc15015802b)" style="fill: none; stroke: #b0b0b0; stroke-width: 0.8; stroke-linecap: square"/>
     </g>
     <g id="line2d_31">
      <g>
       <use xlink:href="#m0ef4995665" x="376.566851" y="190.3975" style="stroke: #000000; stroke-width: 0.8"/>
      </g>
     </g>
     <g id="text_18">
      <!-- 10 -->
      <g transform="translate(370.204351 204.995937)scale(0.1 -0.1)">
       <use xlink:href="#DejaVuSans-31"/>
       <use xlink:href="#DejaVuSans-30" x="63.623047"/>
      </g>
     </g>
    </g>
    <g id="xtick_14">
     <g id="line2d_32">
      <path d="M 436.696349 190.3975 
L 436.696349 139.92 
" clip-path="url(#pc15015802b)" style="fill: none; stroke: #b0b0b0; stroke-width: 0.8; stroke-linecap: square"/>
     </g>
     <g id="line2d_33">
      <g>
       <use xlink:href="#m0ef4995665" x="436.696349" y="190.3975" style="stroke: #000000; stroke-width: 0.8"/>
      </g>
     </g>
     <g id="text_19">
      <!-- 12 -->
      <g transform="translate(430.333849 204.995937)scale(0.1 -0.1)">
       <use xlink:href="#DejaVuSans-31"/>
       <use xlink:href="#DejaVuSans-32" x="63.623047"/>
      </g>
     </g>
    </g>
    <g id="text_20">
     <!-- $t$ [s] -->
     <g transform="translate(243.953 218.674062)scale(0.1 -0.1)">
      <use xlink:href="#DejaVuSans-Oblique-74" transform="translate(0 0.015625)"/>
      <use xlink:href="#DejaVuSans-20" transform="translate(39.208984 0.015625)"/>
      <use xlink:href="#DejaVuSans-5b" transform="translate(70.996094 0.015625)"/>
      <use xlink:href="#DejaVuSans-73" transform="translate(110.009766 0.015625)"/>
      <use xlink:href="#DejaVuSans-5d" transform="translate(162.109375 0.015625)"/>
     </g>
    </g>
   </g>
   <g id="matplotlib.axis_4">
    <g id="ytick_3">
     <g id="line2d_34">
      <path d="M 58.106 180.907907 
L 450 180.907907 
" clip-path="url(#pc15015802b)" style="fill: none; stroke: #b0b0b0; stroke-width: 0.8; stroke-linecap: square"/>
     </g>
     <g id="line2d_35">
      <g>
       <use xlink:href="#m8898ebd84e" x="58.106" y="180.907907" style="stroke: #000000; stroke-width: 0.8"/>
      </g>
     </g>
     <g id="text_21">
      <!-- −0.1 -->
      <g transform="translate(26.823188 184.707126)scale(0.1 -0.1)">
       <defs>
        <path id="DejaVuSans-2212" d="M 678 2272 
L 4684 2272 
L 4684 1741 
L 678 1741 
L 678 2272 
z
" transform="scale(0.015625)"/>
        <path id="DejaVuSans-2e" d="M 684 794 
L 1344 794 
L 1344 0 
L 684 0 
L 684 794 
z
" transform="scale(0.015625)"/>
       </defs>
       <use xlink:href="#DejaVuSans-2212"/>
       <use xlink:href="#DejaVuSans-30" x="83.789062"/>
       <use xlink:href="#DejaVuSans-2e" x="147.412109"/>
       <use xlink:href="#DejaVuSans-31" x="179.199219"/>
      </g>
     </g>
    </g>
    <g id="ytick_4">
     <g id="line2d_36">
      <path d="M 58.106 165.425519 
L 450 165.425519 
" clip-path="url(#pc15015802b)" style="fill: none; stroke: #b0b0b0; stroke-width: 0.8; stroke-linecap: square"/>
     </g>
     <g id="line2d_37">
      <g>
       <use xlink:href="#m8898ebd84e" x="58.106" y="165.425519" style="stroke: #000000; stroke-width: 0.8"/>
      </g>
     </g>
     <g id="text_22">
      <!-- 0.0 -->
      <g transform="translate(35.202875 169.224738)scale(0.1 -0.1)">
       <use xlink:href="#DejaVuSans-30"/>
       <use xlink:href="#DejaVuSans-2e" x="63.623047"/>
       <use xlink:href="#DejaVuSans-30" x="95.410156"/>
      </g>
     </g>
    </g>
    <g id="ytick_5">
     <g id="line2d_38">
      <path d="M 58.106 149.943132 
L 450 149.943132 
" clip-path="url(#pc15015802b)" style="fill: none; stroke: #b0b0b0; stroke-width: 0.8; stroke-linecap: square"/>
     </g>
     <g id="line2d_39">
      <g>
       <use xlink:href="#m8898ebd84e" x="58.106" y="149.943132" style="stroke: #000000; stroke-width: 0.8"/>
      </g>
     </g>
     <g id="text_23">
      <!-- 0.1 -->
      <g transform="translate(35.202875 153.74235)scale(0.1 -0.1)">
       <use xlink:href="#DejaVuSans-30"/>
       <use xlink:href="#DejaVuSans-2e" x="63.623047"/>
       <use xlink:href="#DejaVuSans-31" x="95.410156"/>
      </g>
     </g>
    </g>
    <g id="text_24">
     <!-- $e_z$ [m] -->
     <g transform="translate(20.7435 180.60875)rotate(-90)scale(0.1 -0.1)">
      <defs>
       <path id="DejaVuSans-Oblique-7a" d="M 744 3500 
L 3475 3500 
L 3372 2975 
L 738 459 
L 2913 459 
L 2822 0 
L -19 0 
L 84 525 
L 2719 3041 
L 653 3041 
L 744 3500 
z
" transform="scale(0.015625)"/>
      </defs>
      <use xlink:href="#DejaVuSans-Oblique-65" transform="translate(0 0.015625)"/>
      <use xlink:href="#DejaVuSans-Oblique-7a" transform="translate(61.523438 -16.390625)scale(0.7)"/>
      <use xlink:href="#DejaVuSans-20" transform="translate(101.000977 0.015625)"/>
      <use xlink:href="#DejaVuSans-5b" transform="translate(132.788086 0.015625)"/>
      <use xlink:href="#DejaVuSans-6d" transform="translate(171.801758 0.015625)"/>
      <use xlink:href="#DejaVuSans-5d" transform="translate(269.213867 0.015625)"/>
     </g>
    </g>
   </g>
   <g id="line2d_40">
    <path d="M 75.919364 166.839274 
L 76.521166 166.537998 
L 76.822068 166.205281 
L 77.122969 166.205281 
L 77.423871 165.841082 
L 78.025674 165.387196 
L 78.326575 165.137233 
L 78.928378 164.928166 
L 79.229279 164.735524 
L 79.530181 164.735524 
L 80.131983 164.614196 
L 82.539195 164.542895 
L 83.140998 164.293365 
L 83.7428 163.826881 
L 84.645505 163.195878 
L 85.84911 161.876 
L 86.150012 161.66071 
L 86.450913 161.275531 
L 86.751814 161.275531 
L 87.052716 160.779584 
L 87.654519 160.539736 
L 87.95542 160.371211 
L 88.256322 159.991027 
L 88.557223 159.991027 
L 88.858124 159.267343 
L 89.159026 159.126102 
L 89.760829 158.501658 
L 90.964434 156.528741 
L 91.867139 155.432072 
L 92.16804 154.932823 
L 93.070744 154.409115 
L 93.973448 154.08949 
L 94.876153 154.118596 
L 95.477955 154.256653 
L 96.079758 154.507182 
L 98.48697 155.171951 
L 99.389674 155.087427 
L 100.593279 154.385906 
L 101.195082 153.716113 
L 102.398688 152.587491 
L 103.602294 150.96291 
L 105.106801 149.707669 
L 107.814913 148.691357 
L 108.115815 148.404585 
L 108.416716 148.404585 
L 109.018519 147.92325 
L 109.620322 147.518121 
L 109.921223 147.217145 
L 113.231139 145.774839 
L 113.832942 145.457882 
L 114.434744 144.989494 
L 115.036547 144.620234 
L 115.939252 143.574215 
L 116.541054 143.270676 
L 116.841956 143.080948 
L 117.142857 142.666204 
L 117.443759 142.666204 
L 117.74466 142.421532 
L 118.647364 142.232002 
L 119.249167 142.254277 
L 120.452773 142.586385 
L 121.656378 143.677352 
L 121.95728 143.799545 
L 122.258181 144.056902 
L 122.559083 144.618326 
L 122.859984 144.918363 
L 123.762688 146.354824 
L 124.06359 146.354824 
L 124.364491 147.000444 
L 124.665393 147.000444 
L 124.966294 147.929336 
L 125.267195 148.077143 
L 125.868998 148.64352 
L 126.1699 149.164596 
L 126.771702 149.743464 
L 127.072604 150.049828 
L 127.674407 150.327999 
L 127.975308 150.664924 
L 128.878012 151.19884 
L 129.178914 151.500087 
L 129.479815 151.500087 
L 130.081618 151.988373 
L 130.683421 152.449053 
L 130.984322 152.856666 
L 131.285224 152.856666 
L 131.586125 153.294454 
L 132.488829 154.103264 
L 132.789731 154.563367 
L 133.090632 154.563367 
L 133.391533 155.002533 
L 133.993336 155.50114 
L 134.294238 155.767856 
L 134.896041 156.008353 
L 135.196942 156.28788 
L 139.10866 157.889543 
L 139.409562 158.320577 
L 140.011365 158.547144 
L 140.312266 158.698908 
L 140.914069 159.143088 
L 141.515872 159.551325 
L 142.117674 159.741662 
L 142.719477 160.111436 
L 143.32128 160.4307 
L 143.622182 160.714909 
L 143.923083 160.714909 
L 144.524886 161.212616 
L 145.126689 161.606877 
L 147.232998 163.972461 
L 147.5339 164.591707 
L 148.737506 165.869939 
L 149.941111 167.652134 
L 150.542914 168.46419 
L 150.843815 169.113046 
L 151.144717 169.113046 
L 151.445618 169.761497 
L 152.348322 170.894774 
L 152.649224 171.539787 
L 152.950125 171.539787 
L 153.251027 172.180668 
L 154.454632 173.597419 
L 154.755534 174.213272 
L 156.560942 176.132561 
L 156.861844 176.697814 
L 157.764548 177.52043 
L 158.065449 178.181423 
L 158.366351 178.181423 
L 158.667252 178.692568 
L 160.171759 179.967156 
L 160.472661 180.358519 
L 162.278069 181.289167 
L 163.481675 181.401084 
L 165.287083 181.433519 
L 167.092492 182.159259 
L 167.694295 182.536421 
L 168.8979 182.879246 
L 169.800604 182.799212 
L 170.402407 182.626434 
L 170.703309 182.478579 
L 171.00421 182.478579 
L 171.606013 182.300495 
L 172.508717 182.297206 
L 172.809619 182.297206 
L 175.21683 183.361839 
L 175.818633 183.462763 
L 176.420436 183.437404 
L 179.730351 182.348981 
L 180.633055 182.376187 
L 181.836661 182.814944 
L 182.137562 183.097987 
L 182.438464 183.097987 
L 182.739365 183.496167 
L 183.642069 183.736386 
L 184.243872 183.840633 
L 185.146576 183.800466 
L 186.049281 183.647641 
L 186.350182 183.432532 
L 187.252886 183.225521 
L 187.854689 183.008036 
L 188.757393 183.013945 
L 189.058295 183.067722 
L 189.359196 183.315344 
L 189.660098 183.315344 
L 190.2619 183.776451 
L 190.863703 184.1464 
L 191.465506 184.788614 
L 191.766408 185.029888 
L 192.669112 185.35841 
L 192.970013 185.585196 
L 193.270915 185.585196 
L 193.872717 185.73416 
L 195.377225 185.750151 
L 196.881732 185.818345 
L 199.589844 187.015841 
L 200.191647 187.338012 
L 200.79345 187.438313 
L 201.696154 187.458698 
L 202.89976 187.308636 
L 203.802464 187.15589 
L 205.306971 187.09207 
L 208.315985 187.143776 
L 209.820492 186.708778 
L 210.422295 186.622448 
L 211.324999 186.586804 
L 213.431309 187.001322 
L 214.033112 187.146951 
L 215.236718 187.21999 
L 217.042126 186.959809 
L 217.643929 186.843388 
L 218.847535 186.880176 
L 220.652943 187.260631 
L 221.254746 187.357386 
L 223.661957 187.621992 
L 224.865563 187.533954 
L 227.573676 187.332715 
L 229.078183 187.532245 
L 229.980887 187.815242 
L 230.883591 187.992408 
L 232.087197 188.08729 
L 235.397112 187.602737 
L 238.105225 188.009508 
L 239.609732 188.060784 
L 245.025958 187.650366 
L 246.229563 187.29582 
L 246.831366 187.031785 
L 248.636775 186.606553 
L 249.84038 186.672565 
L 250.442183 186.836352 
L 251.94669 186.978787 
L 252.849394 186.868955 
L 253.150296 186.713079 
L 253.451197 186.713079 
L 253.752099 186.409371 
L 254.654803 186.153387 
L 254.955704 185.94721 
L 255.256606 185.94721 
L 255.557507 185.61095 
L 256.460211 185.343368 
L 257.062014 185.114333 
L 257.964718 185.010096 
L 260.672831 184.914078 
L 261.575535 184.694503 
L 262.177338 184.425062 
L 266.690859 182.976848 
L 267.593564 182.970991 
L 270.602578 183.169095 
L 270.903479 183.169095 
L 273.912493 182.063505 
L 276.319705 181.486461 
L 277.52331 181.60933 
L 278.125113 181.724418 
L 279.027817 181.884116 
L 279.930521 181.911805 
L 285.045846 180.247148 
L 285.94855 180.273634 
L 286.851254 180.436072 
L 287.453057 180.609531 
L 288.656662 180.761744 
L 289.860268 180.59762 
L 290.16117 180.517729 
L 290.462071 180.274117 
L 290.762972 180.274117 
L 291.364775 179.982329 
L 293.771986 179.482506 
L 295.276494 179.452346 
L 297.683705 179.696421 
L 298.887311 179.720761 
L 300.090916 179.560291 
L 303.701733 179.208153 
L 307.011649 179.295442 
L 308.215254 179.332866 
L 312.728775 179.292268 
L 313.932381 179.487893 
L 315.135987 179.671063 
L 317.242297 179.781575 
L 320.853114 179.591271 
L 322.658522 179.916186 
L 323.561226 180.202694 
L 324.764832 180.472446 
L 325.065733 180.472446 
L 325.667536 180.597673 
L 327.172043 180.591257 
L 331.083762 180.544743 
L 331.986466 180.840185 
L 333.490973 181.324854 
L 333.791874 181.48962 
L 334.092776 181.48962 
L 334.393677 181.687583 
L 336.499987 181.757812 
L 338.907198 181.644045 
L 340.411705 181.752387 
L 342.518015 182.366663 
L 343.119818 182.622713 
L 345.527029 183.273435 
L 346.429734 183.215667 
L 347.332438 183.101225 
L 348.235142 182.843744 
L 350.040551 182.800531 
L 351.545058 183.137197 
L 352.146861 183.486057 
L 353.049565 183.96856 
L 353.350466 184.22312 
L 354.554072 184.558733 
L 355.456776 184.480835 
L 356.058579 184.256684 
L 356.660382 184.012713 
L 356.961283 183.878296 
L 357.262185 183.601883 
L 357.563086 183.601883 
L 357.863987 183.22715 
L 358.766692 182.991582 
L 359.067593 182.863455 
L 359.368494 182.863455 
L 359.970297 182.727685 
L 360.873002 182.544167 
L 361.474804 182.322133 
L 362.076607 182.059525 
L 362.377509 181.89786 
L 362.979311 181.307224 
L 363.581114 180.754433 
L 363.882016 180.325289 
L 364.182917 180.325289 
L 364.483818 179.936176 
L 365.988326 179.165176 
L 366.590128 178.98678 
L 368.395537 178.675644 
L 369.599143 178.064452 
L 369.900044 177.672316 
L 370.501847 177.176562 
L 371.10365 176.718825 
L 371.404551 176.718825 
L 371.705452 176.535399 
L 372.608157 176.451812 
L 373.811762 176.524868 
L 374.413565 176.463469 
L 374.714467 176.353797 
L 375.617171 175.754281 
L 376.519875 175.021188 
L 377.422579 173.890554 
L 378.626185 173.2461 
L 379.227988 173.156584 
L 380.130692 173.357295 
L 381.334298 174.014226 
L 382.237002 174.177185 
L 383.440607 173.87059 
L 384.644213 172.613419 
L 384.945115 172.481489 
L 385.246016 172.218215 
L 385.546917 171.712472 
L 386.14872 171.137328 
L 386.750523 170.594709 
L 387.051424 170.594709 
L 387.352326 170.376156 
L 388.25503 170.278376 
L 388.856833 170.329489 
L 389.759537 170.557153 
L 390.662241 170.547007 
L 391.865847 169.902181 
L 392.166748 169.466204 
L 392.46765 169.466204 
L 392.768551 168.987365 
L 394.57396 167.650376 
L 395.476664 167.534566 
L 396.078467 167.605924 
L 396.981171 167.864916 
L 397.883875 167.981419 
L 399.087481 167.632958 
L 399.388382 167.296702 
L 399.689284 167.296702 
L 399.990185 166.667217 
L 400.591988 166.359922 
L 402.096495 165.544577 
L 402.698298 165.52392 
L 404.503706 166.234775 
L 405.105509 166.464848 
L 405.707312 166.472181 
L 406.309115 166.379516 
L 406.610016 166.151453 
L 406.910918 166.151453 
L 407.211819 165.6061 
L 407.813622 165.283053 
L 408.114523 165.068959 
L 408.716326 164.412446 
L 409.017228 164.219968 
L 410.521735 164.060658 
L 413.229847 165.056014 
L 413.83165 165.028108 
L 414.132552 164.933878 
L 415.336157 164.170726 
L 415.637059 163.633926 
L 415.93796 163.633926 
L 416.238861 163.226173 
L 417.442467 162.55021 
L 418.04427 162.401531 
L 418.946974 162.411933 
L 420.451481 162.822019 
L 421.354186 162.87732 
L 422.557791 162.513065 
L 423.460495 161.620101 
L 424.062298 161.361857 
L 425.867707 160.459831 
L 426.46951 160.37723 
L 427.372214 160.583126 
L 427.974017 160.836744 
L 428.274918 161.216176 
L 428.575819 161.216176 
L 429.177622 161.676245 
L 430.682129 162.376284 
L 431.584834 162.446301 
L 432.186636 162.39806 
L 432.186636 162.39806 
" clip-path="url(#pc15015802b)" style="fill: none; stroke: #0000ff; stroke-width: 1.5; stroke-linecap: square"/>
   </g>
   <g id="patch_8">
    <path d="M 58.106 190.3975 
L 58.106 139.92 
" style="fill: none; stroke: #000000; stroke-width: 0.8; stroke-linejoin: miter; stroke-linecap: square"/>
   </g>
   <g id="patch_9">
    <path d="M 450 190.3975 
L 450 139.92 
" style="fill: none; stroke: #000000; stroke-width: 0.8; stroke-linejoin: miter; stroke-linecap: square"/>
   </g>
   <g id="patch_10">
    <path d="M 58.106 190.3975 
L 450 190.3975 
" style="fill: none; stroke: #000000; stroke-width: 0.8; stroke-linejoin: miter; stroke-linecap: square"/>
   </g>
   <g id="patch_11">
    <path d="M 58.106 139.92 
L 450 139.92 
" style="fill: none; stroke: #000000; stroke-width: 0.8; stroke-linejoin: miter; stroke-linecap: square"/>
   </g>
   <g id="text_25">
    <!-- Error in $z$-position -->
    <g transform="translate(200.773 133.92)scale(0.12 -0.12)">
     <use xlink:href="#DejaVuSans-45" transform="translate(0 0.015625)"/>
     <use xlink:href="#DejaVuSans-72" transform="translate(63.183594 0.015625)"/>
     <use xlink:href="#DejaVuSans-72" transform="translate(104.296875 0.015625)"/>
     <use xlink:href="#DejaVuSans-6f" transform="translate(145.410156 0.015625)"/>
     <use xlink:href="#DejaVuSans-72" transform="translate(206.591797 0.015625)"/>
     <use xlink:href="#DejaVuSans-20" transform="translate(247.705078 0.015625)"/>
     <use xlink:href="#DejaVuSans-69" transform="translate(279.492188 0.015625)"/>
     <use xlink:href="#DejaVuSans-6e" transform="translate(307.275391 0.015625)"/>
     <use xlink:href="#DejaVuSans-20" transform="translate(370.654297 0.015625)"/>
     <use xlink:href="#DejaVuSans-Oblique-7a" transform="translate(402.441406 0.015625)"/>
     <use xlink:href="#DejaVuSans-2d" transform="translate(454.931641 0.015625)"/>
     <use xlink:href="#DejaVuSans-70" transform="translate(491.015625 0.015625)"/>
     <use xlink:href="#DejaVuSans-6f" transform="translate(554.492188 0.015625)"/>
     <use xlink:href="#DejaVuSans-73" transform="translate(615.673828 0.015625)"/>
     <use xlink:href="#DejaVuSans-69" transform="translate(667.773438 0.015625)"/>
     <use xlink:href="#DejaVuSans-74" transform="translate(695.556641 0.015625)"/>
     <use xlink:href="#DejaVuSans-69" transform="translate(734.765625 0.015625)"/>
     <use xlink:href="#DejaVuSans-6f" transform="translate(762.548828 0.015625)"/>
     <use xlink:href="#DejaVuSans-6e" transform="translate(823.730469 0.015625)"/>
    </g>
   </g>
  </g>
  <g id="axes_3">
   <g id="patch_12">
    <path d="M 58.106 301.9975 
L 450 301.9975 
L 450 251.52 
L 58.106 251.52 
z
" style="fill: #ffffff"/>
   </g>
   <g id="matplotlib.axis_5">
    <g id="xtick_15">
     <g id="line2d_41">
      <path d="M 75.919364 301.9975 
L 75.919364 251.52 
" clip-path="url(#p552d9b8844)" style="fill: none; stroke: #b0b0b0; stroke-width: 0.8; stroke-linecap: square"/>
     </g>
     <g id="line2d_42">
      <g>
       <use xlink:href="#m0ef4995665" x="75.919364" y="301.9975" style="stroke: #000000; stroke-width: 0.8"/>
      </g>
     </g>
     <g id="text_26">
      <!-- 0 -->
      <g transform="translate(72.738114 316.595937)scale(0.1 -0.1)">
       <use xlink:href="#DejaVuSans-30"/>
      </g>
     </g>
    </g>
    <g id="xtick_16">
     <g id="line2d_43">
      <path d="M 136.048861 301.9975 
L 136.048861 251.52 
" clip-path="url(#p552d9b8844)" style="fill: none; stroke: #b0b0b0; stroke-width: 0.8; stroke-linecap: square"/>
     </g>
     <g id="line2d_44">
      <g>
       <use xlink:href="#m0ef4995665" x="136.048861" y="301.9975" style="stroke: #000000; stroke-width: 0.8"/>
      </g>
     </g>
     <g id="text_27">
      <!-- 2 -->
      <g transform="translate(132.867611 316.595937)scale(0.1 -0.1)">
       <use xlink:href="#DejaVuSans-32"/>
      </g>
     </g>
    </g>
    <g id="xtick_17">
     <g id="line2d_45">
      <path d="M 196.178359 301.9975 
L 196.178359 251.52 
" clip-path="url(#p552d9b8844)" style="fill: none; stroke: #b0b0b0; stroke-width: 0.8; stroke-linecap: square"/>
     </g>
     <g id="line2d_46">
      <g>
       <use xlink:href="#m0ef4995665" x="196.178359" y="301.9975" style="stroke: #000000; stroke-width: 0.8"/>
      </g>
     </g>
     <g id="text_28">
      <!-- 4 -->
      <g transform="translate(192.997109 316.595937)scale(0.1 -0.1)">
       <use xlink:href="#DejaVuSans-34"/>
      </g>
     </g>
    </g>
    <g id="xtick_18">
     <g id="line2d_47">
      <path d="M 256.307856 301.9975 
L 256.307856 251.52 
" clip-path="url(#p552d9b8844)" style="fill: none; stroke: #b0b0b0; stroke-width: 0.8; stroke-linecap: square"/>
     </g>
     <g id="line2d_48">
      <g>
       <use xlink:href="#m0ef4995665" x="256.307856" y="301.9975" style="stroke: #000000; stroke-width: 0.8"/>
      </g>
     </g>
     <g id="text_29">
      <!-- 6 -->
      <g transform="translate(253.126606 316.595937)scale(0.1 -0.1)">
       <use xlink:href="#DejaVuSans-36"/>
      </g>
     </g>
    </g>
    <g id="xtick_19">
     <g id="line2d_49">
      <path d="M 316.437354 301.9975 
L 316.437354 251.52 
" clip-path="url(#p552d9b8844)" style="fill: none; stroke: #b0b0b0; stroke-width: 0.8; stroke-linecap: square"/>
     </g>
     <g id="line2d_50">
      <g>
       <use xlink:href="#m0ef4995665" x="316.437354" y="301.9975" style="stroke: #000000; stroke-width: 0.8"/>
      </g>
     </g>
     <g id="text_30">
      <!-- 8 -->
      <g transform="translate(313.256104 316.595937)scale(0.1 -0.1)">
       <use xlink:href="#DejaVuSans-38"/>
      </g>
     </g>
    </g>
    <g id="xtick_20">
     <g id="line2d_51">
      <path d="M 376.566851 301.9975 
L 376.566851 251.52 
" clip-path="url(#p552d9b8844)" style="fill: none; stroke: #b0b0b0; stroke-width: 0.8; stroke-linecap: square"/>
     </g>
     <g id="line2d_52">
      <g>
       <use xlink:href="#m0ef4995665" x="376.566851" y="301.9975" style="stroke: #000000; stroke-width: 0.8"/>
      </g>
     </g>
     <g id="text_31">
      <!-- 10 -->
      <g transform="translate(370.204351 316.595937)scale(0.1 -0.1)">
       <use xlink:href="#DejaVuSans-31"/>
       <use xlink:href="#DejaVuSans-30" x="63.623047"/>
      </g>
     </g>
    </g>
    <g id="xtick_21">
     <g id="line2d_53">
      <path d="M 436.696349 301.9975 
L 436.696349 251.52 
" clip-path="url(#p552d9b8844)" style="fill: none; stroke: #b0b0b0; stroke-width: 0.8; stroke-linecap: square"/>
     </g>
     <g id="line2d_54">
      <g>
       <use xlink:href="#m0ef4995665" x="436.696349" y="301.9975" style="stroke: #000000; stroke-width: 0.8"/>
      </g>
     </g>
     <g id="text_32">
      <!-- 12 -->
      <g transform="translate(430.333849 316.595937)scale(0.1 -0.1)">
       <use xlink:href="#DejaVuSans-31"/>
       <use xlink:href="#DejaVuSans-32" x="63.623047"/>
      </g>
     </g>
    </g>
    <g id="text_33">
     <!-- $t$ [s] -->
     <g transform="translate(243.953 330.274063)scale(0.1 -0.1)">
      <use xlink:href="#DejaVuSans-Oblique-74" transform="translate(0 0.015625)"/>
      <use xlink:href="#DejaVuSans-20" transform="translate(39.208984 0.015625)"/>
      <use xlink:href="#DejaVuSans-5b" transform="translate(70.996094 0.015625)"/>
      <use xlink:href="#DejaVuSans-73" transform="translate(110.009766 0.015625)"/>
      <use xlink:href="#DejaVuSans-5d" transform="translate(162.109375 0.015625)"/>
     </g>
    </g>
   </g>
   <g id="matplotlib.axis_6">
    <g id="ytick_6">
     <g id="line2d_55">
      <path d="M 58.106 293.078519 
L 450 293.078519 
" clip-path="url(#p552d9b8844)" style="fill: none; stroke: #b0b0b0; stroke-width: 0.8; stroke-linecap: square"/>
     </g>
     <g id="line2d_56">
      <g>
       <use xlink:href="#m8898ebd84e" x="58.106" y="293.078519" style="stroke: #000000; stroke-width: 0.8"/>
      </g>
     </g>
     <g id="text_34">
      <!-- −0.1 -->
      <g transform="translate(26.823188 296.877738)scale(0.1 -0.1)">
       <use xlink:href="#DejaVuSans-2212"/>
       <use xlink:href="#DejaVuSans-30" x="83.789062"/>
       <use xlink:href="#DejaVuSans-2e" x="147.412109"/>
       <use xlink:href="#DejaVuSans-31" x="179.199219"/>
      </g>
     </g>
    </g>
    <g id="ytick_7">
     <g id="line2d_57">
      <path d="M 58.106 277.825401 
L 450 277.825401 
" clip-path="url(#p552d9b8844)" style="fill: none; stroke: #b0b0b0; stroke-width: 0.8; stroke-linecap: square"/>
     </g>
     <g id="line2d_58">
      <g>
       <use xlink:href="#m8898ebd84e" x="58.106" y="277.825401" style="stroke: #000000; stroke-width: 0.8"/>
      </g>
     </g>
     <g id="text_35">
      <!-- 0.0 -->
      <g transform="translate(35.202875 281.62462)scale(0.1 -0.1)">
       <use xlink:href="#DejaVuSans-30"/>
       <use xlink:href="#DejaVuSans-2e" x="63.623047"/>
       <use xlink:href="#DejaVuSans-30" x="95.410156"/>
      </g>
     </g>
    </g>
    <g id="ytick_8">
     <g id="line2d_59">
      <path d="M 58.106 262.572283 
L 450 262.572283 
" clip-path="url(#p552d9b8844)" style="fill: none; stroke: #b0b0b0; stroke-width: 0.8; stroke-linecap: square"/>
     </g>
     <g id="line2d_60">
      <g>
       <use xlink:href="#m8898ebd84e" x="58.106" y="262.572283" style="stroke: #000000; stroke-width: 0.8"/>
      </g>
     </g>
     <g id="text_36">
      <!-- 0.1 -->
      <g transform="translate(35.202875 266.371502)scale(0.1 -0.1)">
       <use xlink:href="#DejaVuSans-30"/>
       <use xlink:href="#DejaVuSans-2e" x="63.623047"/>
       <use xlink:href="#DejaVuSans-31" x="95.410156"/>
      </g>
     </g>
    </g>
    <g id="text_37">
     <!-- $e_\theta$ [rad] -->
     <g transform="translate(20.7435 295.90875)rotate(-90)scale(0.1 -0.1)">
      <defs>
       <path id="DejaVuSans-Oblique-3b8" d="M 2913 2219 
L 925 2219 
Q 791 1284 928 888 
Q 1100 400 1566 400 
Q 2034 400 2391 891 
Q 2703 1322 2913 2219 
z
M 3009 2750 
Q 3094 3638 2984 3950 
Q 2813 4444 2353 4444 
Q 1875 4444 1525 3956 
Q 1250 3563 1034 2750 
L 3009 2750 
z
M 2444 4913 
Q 3194 4913 3494 4250 
Q 3794 3591 3566 2422 
Q 3341 1256 2781 594 
Q 2225 -72 1475 -72 
Q 722 -72 425 594 
Q 128 1256 353 2422 
Q 581 3591 1134 4250 
Q 1691 4913 2444 4913 
z
" transform="scale(0.015625)"/>
       <path id="DejaVuSans-61" d="M 2194 1759 
Q 1497 1759 1228 1600 
Q 959 1441 959 1056 
Q 959 750 1161 570 
Q 1363 391 1709 391 
Q 2188 391 2477 730 
Q 2766 1069 2766 1631 
L 2766 1759 
L 2194 1759 
z
M 3341 1997 
L 3341 0 
L 2766 0 
L 2766 531 
Q 2569 213 2275 61 
Q 1981 -91 1556 -91 
Q 1019 -91 701 211 
Q 384 513 384 1019 
Q 384 1609 779 1909 
Q 1175 2209 1959 2209 
L 2766 2209 
L 2766 2266 
Q 2766 2663 2505 2880 
Q 2244 3097 1772 3097 
Q 1472 3097 1187 3025 
Q 903 2953 641 2809 
L 641 3341 
Q 956 3463 1253 3523 
Q 1550 3584 1831 3584 
Q 2591 3584 2966 3190 
Q 3341 2797 3341 1997 
z
" transform="scale(0.015625)"/>
       <path id="DejaVuSans-64" d="M 2906 2969 
L 2906 4863 
L 3481 4863 
L 3481 0 
L 2906 0 
L 2906 525 
Q 2725 213 2448 61 
Q 2172 -91 1784 -91 
Q 1150 -91 751 415 
Q 353 922 353 1747 
Q 353 2572 751 3078 
Q 1150 3584 1784 3584 
Q 2172 3584 2448 3432 
Q 2725 3281 2906 2969 
z
M 947 1747 
Q 947 1113 1208 752 
Q 1469 391 1925 391 
Q 2381 391 2643 752 
Q 2906 1113 2906 1747 
Q 2906 2381 2643 2742 
Q 2381 3103 1925 3103 
Q 1469 3103 1208 2742 
Q 947 2381 947 1747 
z
" transform="scale(0.015625)"/>
      </defs>
      <use xlink:href="#DejaVuSans-Oblique-65" transform="translate(0 0.015625)"/>
      <use xlink:href="#DejaVuSans-Oblique-3b8" transform="translate(61.523438 -16.390625)scale(0.7)"/>
      <use xlink:href="#DejaVuSans-20" transform="translate(107.084961 0.015625)"/>
      <use xlink:href="#DejaVuSans-5b" transform="translate(138.87207 0.015625)"/>
      <use xlink:href="#DejaVuSans-72" transform="translate(177.885742 0.015625)"/>
      <use xlink:href="#DejaVuSans-61" transform="translate(218.999023 0.015625)"/>
      <use xlink:href="#DejaVuSans-64" transform="translate(280.27832 0.015625)"/>
      <use xlink:href="#DejaVuSans-5d" transform="translate(343.754883 0.015625)"/>
     </g>
    </g>
   </g>
   <g id="line2d_61">
    <path d="M 75.919364 277.569445 
L 76.220265 277.18986 
L 76.822068 275.182464 
L 77.122969 275.182464 
L 78.025674 270.793365 
L 78.326575 268.625437 
L 78.627476 267.875954 
L 78.928378 266.37955 
L 79.229279 263.590902 
L 79.530181 263.590902 
L 79.831082 260.715132 
L 80.733786 260.039786 
L 81.034688 260.742183 
L 81.335589 260.742183 
L 81.63649 263.529854 
L 81.937392 264.130291 
L 82.840096 268.061465 
L 84.043702 275.371829 
L 84.645505 278.206139 
L 84.946406 280.465441 
L 85.247307 283.567145 
L 86.450913 289.157911 
L 86.751814 289.157911 
L 87.052716 290.083569 
L 87.654519 290.029428 
L 87.95542 289.867109 
L 88.256322 289.40575 
L 88.557223 289.40575 
L 88.858124 288.471225 
L 89.159026 288.266744 
L 89.760829 287.267273 
L 90.06173 286.276033 
L 90.362631 284.516656 
L 91.265336 280.871762 
L 91.566237 279.434913 
L 92.468941 272.64149 
L 93.973448 265.830217 
L 94.575251 265.067054 
L 95.177054 264.795374 
L 95.477955 264.891163 
L 96.681561 267.285391 
L 96.982463 268.65369 
L 97.283364 270.906752 
L 97.584265 270.906752 
L 97.885167 273.635585 
L 98.48697 276.710337 
L 99.088772 282.508281 
L 99.389674 282.508281 
L 99.690575 285.852819 
L 100.292378 289.128596 
L 101.195082 295.457192 
L 101.796885 297.279668 
L 102.097787 297.814488 
L 102.398688 298.037575 
L 102.699589 297.721036 
L 104.504998 287.771756 
L 104.805899 284.25737 
L 106.310406 275.121036 
L 106.611308 272.643748 
L 107.213111 271.227241 
L 107.514012 270.973658 
L 107.814913 271.145357 
L 108.115815 272.219157 
L 108.416716 272.219157 
L 108.717618 273.966896 
L 109.31942 276.007992 
L 109.921223 279.186075 
L 110.523026 280.462304 
L 111.124829 281.299662 
L 111.726632 281.662389 
L 112.328435 281.024155 
L 112.930237 280.005886 
L 113.53204 278.565787 
L 113.832942 277.241897 
L 114.133843 275.206439 
L 115.036547 271.71368 
L 115.63835 267.343952 
L 115.939252 265.47337 
L 116.240153 264.858787 
L 116.841956 262.461381 
L 117.142857 259.721268 
L 117.443759 259.721268 
L 117.74466 257.849553 
L 118.346463 256.365094 
L 118.647364 255.782786 
L 118.948266 254.94838 
L 119.249167 254.652997 
L 119.85097 254.785063 
L 120.452773 255.513021 
L 120.753674 256.689124 
L 121.054576 257.362348 
L 121.656378 259.415681 
L 121.95728 259.739767 
L 122.258181 260.370648 
L 122.559083 261.586231 
L 122.859984 262.190444 
L 123.762688 265.190569 
L 124.06359 265.190569 
L 124.364491 266.680253 
L 124.665393 266.680253 
L 124.966294 268.976419 
L 125.267195 269.362947 
L 125.868998 270.906446 
L 126.1699 272.445977 
L 126.470801 273.204723 
L 127.072604 275.317392 
L 127.373505 275.627775 
L 128.276209 277.140736 
L 128.878012 277.28958 
L 129.780717 277.3261 
L 130.382519 277.557359 
L 130.683421 277.899607 
L 130.984322 278.589417 
L 131.285224 278.589417 
L 131.586125 279.517452 
L 132.187928 280.614461 
L 132.789731 282.680899 
L 133.090632 282.680899 
L 133.391533 283.805913 
L 133.993336 285.072339 
L 134.294238 285.672506 
L 134.896041 286.13167 
L 135.196942 286.53184 
L 135.798745 286.712849 
L 136.400548 286.645196 
L 136.701449 286.645196 
L 137.905055 285.813464 
L 138.205956 285.177946 
L 138.506857 285.177946 
L 138.807759 284.253961 
L 139.10866 284.253961 
L 139.409562 282.256621 
L 139.710463 281.859855 
L 140.312266 280.130501 
L 140.613167 278.197948 
L 140.914069 277.180835 
L 141.515872 274.016429 
L 141.816773 273.492722 
L 142.117674 272.493392 
L 142.418576 270.757866 
L 143.622182 267.583912 
L 143.923083 267.583912 
L 144.223984 266.655468 
L 145.126689 265.134981 
L 145.42759 264.288482 
L 145.728491 263.053011 
L 146.932097 260.194373 
L 147.834801 257.113023 
L 149.339308 254.240626 
L 149.941111 253.924151 
L 150.542914 253.814432 
L 150.843815 253.955512 
L 151.144717 253.955512 
L 151.74652 254.50818 
L 152.047421 254.763735 
L 152.348322 255.200655 
L 152.649224 255.859416 
L 152.950125 255.859416 
L 153.251027 256.594628 
L 154.153731 257.808994 
L 155.357337 260.156132 
L 156.560942 262.05242 
L 156.861844 262.788244 
L 157.764548 263.826793 
L 158.065449 264.669862 
L 158.366351 264.669862 
L 158.667252 265.276232 
L 160.171759 266.699608 
L 160.472661 267.160001 
L 161.375365 267.998793 
L 161.676266 268.521324 
L 161.977168 269.302431 
L 163.481675 271.515556 
L 163.782576 271.992927 
L 164.384379 272.176384 
L 164.986182 272.154737 
L 165.888886 271.945752 
L 166.490689 272.132807 
L 166.79159 272.346701 
L 167.092492 272.85436 
L 167.694295 274.738211 
L 168.296097 276.689191 
L 168.596999 278.470302 
L 168.8979 281.132412 
L 169.198802 281.132412 
L 169.499703 283.856666 
L 170.402407 287.728672 
L 170.703309 288.533318 
L 171.00421 288.533318 
L 171.606013 287.498429 
L 171.906914 286.674078 
L 172.207816 285.121297 
L 172.508717 282.701596 
L 172.809619 282.701596 
L 173.11052 280.207401 
L 174.013224 276.363579 
L 174.615027 275.755761 
L 174.915928 275.879737 
L 175.21683 276.342721 
L 175.517731 277.478467 
L 175.818633 279.048908 
L 176.119534 279.646696 
L 176.420436 280.911604 
L 176.721337 283.550395 
L 177.022238 283.550395 
L 177.32314 286.734071 
L 177.924943 287.436371 
L 178.225844 287.501158 
L 178.827647 285.656146 
L 179.42945 281.351321 
L 179.730351 278.701576 
L 180.031252 278.701576 
L 180.332154 275.039418 
L 180.633055 273.23788 
L 181.234858 268.459365 
L 181.53576 267.793829 
L 182.137562 265.072418 
L 182.739365 265.080253 
L 183.040267 265.347165 
L 183.642069 267.032939 
L 183.942971 269.442634 
L 184.243872 269.442634 
L 184.544774 273.601493 
L 184.845675 274.272552 
L 185.748379 278.008587 
L 186.049281 278.008587 
L 186.951985 275.908769 
L 187.252886 274.618593 
L 188.155591 266.176133 
L 188.456492 265.294972 
L 189.058295 261.916193 
L 189.359196 258.485452 
L 189.660098 258.485452 
L 189.960999 256.769925 
L 190.2619 256.313599 
L 190.562802 256.141123 
L 190.863703 256.275851 
L 191.465506 259.169149 
L 191.766408 261.319407 
L 192.067309 262.110549 
L 192.669112 265.497315 
L 192.970013 269.696322 
L 193.270915 269.696322 
L 193.571816 272.562339 
L 194.173619 274.776819 
L 194.47452 275.522208 
L 194.775422 275.941352 
L 195.076323 275.908954 
L 196.58083 269.976732 
L 197.483534 264.12265 
L 198.386239 260.874589 
L 198.68714 260.874589 
L 198.988041 261.178401 
L 199.288943 261.810489 
L 199.589844 262.733715 
L 199.890746 264.598014 
L 200.191647 267.756822 
L 200.492549 267.756822 
L 201.094351 273.997559 
L 201.395253 276.462799 
L 201.696154 277.187946 
L 202.598858 280.703223 
L 202.89976 280.703223 
L 203.200661 280.415046 
L 203.802464 279.377655 
L 204.103365 278.675133 
L 205.00607 274.214434 
L 205.306971 273.78153 
L 205.908774 272.284351 
L 206.510577 271.240594 
L 206.811478 271.234291 
L 207.11238 271.494791 
L 207.714182 272.495555 
L 208.015084 274.483625 
L 208.315985 274.483625 
L 208.616887 276.475789 
L 209.218689 278.593315 
L 209.820492 281.667074 
L 210.121394 281.667074 
L 210.422295 282.63549 
L 210.723197 282.867358 
L 211.024098 282.916837 
L 211.324999 282.603119 
L 212.227704 279.514763 
L 213.130408 275.781544 
L 214.033112 270.030656 
L 214.634915 268.187162 
L 215.236718 267.238399 
L 215.838521 268.551725 
L 216.440323 270.602494 
L 216.741225 271.846606 
L 217.643929 277.596088 
L 218.245732 279.502502 
L 218.847535 280.684275 
L 219.148436 280.333471 
L 219.449338 279.714942 
L 220.05114 277.691154 
L 220.352042 276.362711 
L 220.652943 272.429593 
L 220.953845 272.429593 
L 221.254746 268.99864 
L 222.458352 261.659381 
L 222.759253 261.659381 
L 223.060154 261.271303 
L 223.361056 261.609484 
L 223.661957 262.259166 
L 223.962859 263.189625 
L 224.26376 266.468653 
L 224.564662 266.468653 
L 224.865563 269.618157 
L 226.069169 275.978347 
L 226.37007 276.607624 
L 226.971873 276.378762 
L 227.272774 275.851321 
L 227.573676 275.084687 
L 228.47638 268.844372 
L 228.777281 268.116367 
L 229.379084 265.245056 
L 229.679986 262.880564 
L 229.980887 261.811533 
L 230.281788 261.490727 
L 230.58269 261.556334 
L 230.883591 261.934391 
L 231.184493 262.628201 
L 232.388098 271.145331 
L 232.689 271.98647 
L 232.989901 273.61119 
L 233.290803 276.397149 
L 233.591704 276.397149 
L 233.892605 278.75117 
L 234.494408 279.08553 
L 234.79531 279.016216 
L 235.096211 278.175233 
L 235.397112 278.175233 
L 235.698014 275.368171 
L 235.998915 274.768495 
L 236.901619 270.747014 
L 237.503422 266.345947 
L 238.105225 264.814952 
L 238.406127 264.494025 
L 238.707028 264.648934 
L 239.910634 270.020188 
L 240.512436 275.846025 
L 240.813338 275.846025 
L 241.114239 278.877405 
L 242.016943 282.548303 
L 242.317845 282.686491 
L 242.618746 282.686491 
L 242.919648 281.157952 
L 243.220549 280.664439 
L 243.822352 278.202477 
L 244.123253 275.27748 
L 244.424155 275.27748 
L 244.725056 270.749125 
L 245.025958 270.033406 
L 245.62776 267.505065 
L 246.229563 265.81211 
L 246.530465 266.017428 
L 246.831366 266.611579 
L 247.433169 268.616745 
L 247.73407 271.438838 
L 248.034972 271.438838 
L 248.335873 276.494914 
L 248.636775 277.371626 
L 249.238577 280.768335 
L 249.539479 283.55014 
L 249.84038 283.55014 
L 250.141282 285.392633 
L 250.442183 285.381132 
L 250.743084 285.085505 
L 251.043986 284.442604 
L 251.344887 282.269607 
L 251.645789 282.269607 
L 251.94669 277.504045 
L 252.247592 276.612798 
L 252.849394 272.973166 
L 253.150296 269.404593 
L 253.451197 269.404593 
L 253.752099 264.911271 
L 254.053 264.319533 
L 254.654803 262.648812 
L 254.955704 262.366718 
L 255.256606 262.366718 
L 255.557507 264.638322 
L 255.858408 265.284495 
L 256.460211 268.40915 
L 256.761113 272.10439 
L 257.062014 274.047939 
L 257.964718 282.400144 
L 258.26562 282.400144 
L 258.566521 284.887935 
L 258.867423 285.585039 
L 259.168324 285.873653 
L 259.469225 285.530923 
L 259.770127 283.753034 
L 260.071028 283.753034 
L 260.37193 280.805577 
L 261.274634 275.198003 
L 262.177338 266.34505 
L 263.380944 258.641977 
L 263.681845 258.641977 
L 263.982747 258.144043 
L 264.283648 258.467994 
L 264.584549 259.160512 
L 265.186352 261.536279 
L 265.487254 264.013254 
L 265.788155 267.910411 
L 266.690859 274.257701 
L 267.593564 282.605259 
L 268.195366 284.747187 
L 268.496268 285.310018 
L 268.797169 285.460684 
L 269.699873 282.049626 
L 270.301676 278.873522 
L 270.602578 274.287016 
L 270.903479 274.287016 
L 271.204381 270.485673 
L 272.708888 261.630854 
L 273.009789 260.100164 
L 273.31069 259.832962 
L 273.611592 259.90904 
L 273.912493 260.327821 
L 274.213395 261.077138 
L 274.514296 262.767497 
L 274.815197 265.904902 
L 276.018803 273.798321 
L 276.921507 282.058345 
L 277.824212 286.059433 
L 278.125113 286.059433 
L 278.426014 285.709683 
L 278.726916 285.02673 
L 279.328719 282.821816 
L 279.62962 279.853826 
L 279.930521 279.853826 
L 280.231423 274.720887 
L 280.532324 273.836973 
L 281.134127 270.331215 
L 281.435029 266.335159 
L 281.73593 266.335159 
L 282.036831 263.99681 
L 282.638634 262.773855 
L 282.939536 262.624651 
L 283.240437 262.805471 
L 283.541338 263.688863 
L 284.143141 267.340445 
L 284.744944 270.714677 
L 285.647648 278.795999 
L 286.851254 284.574557 
L 287.152155 285.657006 
L 287.453057 285.782334 
L 287.753958 285.618603 
L 288.05486 285.169613 
L 288.355761 284.444279 
L 288.656662 282.895175 
L 288.957564 280.135549 
L 290.16117 273.36307 
L 290.462071 269.12715 
L 290.762972 269.12715 
L 291.063874 266.259233 
L 291.665677 264.214165 
L 291.966578 263.577768 
L 292.267479 263.250216 
L 292.568381 263.368017 
L 294.072888 270.134242 
L 295.276494 279.681988 
L 295.878296 283.209765 
L 296.179198 285.058455 
L 296.480099 285.549865 
L 296.781001 285.725508 
L 297.081902 285.585689 
L 297.382803 285.133335 
L 297.683705 283.895549 
L 297.984606 281.366573 
L 298.887311 276.360428 
L 299.188212 274.544184 
L 300.090916 266.780038 
L 300.692719 264.160459 
L 301.294522 262.349176 
L 301.595423 262.416387 
L 301.896325 262.96945 
L 302.498127 264.985866 
L 302.799029 266.374751 
L 303.09993 268.803482 
L 303.400832 272.412337 
L 305.20624 283.234254 
L 305.507142 284.840336 
L 305.808043 285.183384 
L 306.108944 285.207431 
L 306.409846 284.920888 
L 306.710747 283.489906 
L 307.011649 283.489906 
L 307.31255 279.62311 
L 307.613451 278.835022 
L 308.215254 275.465724 
L 308.817057 269.364757 
L 309.117959 266.956226 
L 309.41886 266.208238 
L 310.321564 262.17266 
L 310.622466 261.97592 
L 311.52517 263.909352 
L 311.826071 265.139144 
L 312.126973 269.101735 
L 312.427874 269.101735 
L 312.728775 272.724927 
L 313.63148 278.081702 
L 313.932381 280.860745 
L 314.534184 283.270702 
L 315.135987 283.630214 
L 315.436888 283.527516 
L 315.73779 282.05066 
L 316.038691 282.05066 
L 316.339592 279.806436 
L 317.242297 275.44877 
L 318.145001 268.801304 
L 318.746804 266.449915 
L 319.348607 264.869531 
L 319.649508 264.428708 
L 320.251311 265.665095 
L 320.853114 267.892902 
L 321.755818 276.085531 
L 322.056719 276.979133 
L 322.658522 280.504457 
L 322.959424 283.606105 
L 323.561226 286.177333 
L 323.862128 286.81312 
L 324.163029 286.859304 
L 324.463931 286.695974 
L 324.764832 285.40143 
L 325.065733 285.40143 
L 325.366635 281.581004 
L 325.667536 280.800094 
L 326.269339 277.451263 
L 326.871142 271.462176 
L 327.172043 269.100079 
L 327.472945 268.367975 
L 328.375649 264.405261 
L 328.67655 264.405261 
L 329.278353 265.203749 
L 329.880156 267.37865 
L 330.78286 275.814286 
L 331.083762 276.749255 
L 331.685564 280.444496 
L 331.986466 283.796133 
L 332.88917 287.787842 
L 333.490973 288.010741 
L 333.791874 287.08914 
L 334.092776 287.08914 
L 334.393677 283.458916 
L 334.694579 282.658096 
L 335.296381 279.125039 
L 335.597283 275.304661 
L 335.898184 275.304661 
L 336.199086 269.733499 
L 336.499987 268.862395 
L 337.10179 265.758586 
L 337.402691 263.235273 
L 337.703593 263.235273 
L 338.004494 262.638277 
L 338.305396 262.695697 
L 338.606297 263.342009 
L 339.2081 266.630854 
L 340.110804 271.630224 
L 340.411705 273.410773 
L 341.31441 280.59998 
L 341.916213 282.984678 
L 342.518015 284.83244 
L 342.818917 285.043465 
L 343.119818 284.68294 
L 343.721621 283.114516 
L 344.022522 281.972994 
L 344.323424 279.939063 
L 344.624325 276.826958 
L 345.527029 271.950623 
L 346.128832 267.041242 
L 346.429734 265.544446 
L 346.730635 265.146612 
L 347.332438 264.109132 
L 347.934241 264.050078 
L 348.235142 265.890603 
L 348.536044 266.382118 
L 349.137846 268.696578 
L 349.438748 271.35932 
L 349.739649 272.735108 
L 350.341452 276.841131 
L 350.642354 277.49543 
L 351.845959 282.791761 
L 352.447762 283.526015 
L 352.748663 283.647351 
L 353.049565 283.551257 
L 354.554072 280.392688 
L 354.854973 279.10942 
L 355.155875 279.10942 
L 355.456776 277.880651 
L 356.660382 275.866848 
L 356.961283 275.592032 
L 357.262185 275.153849 
L 357.563086 275.153849 
L 357.863987 274.826672 
L 358.46579 274.887031 
L 358.766692 275.01964 
L 359.067593 275.459992 
L 359.368494 275.459992 
L 359.669396 276.316119 
L 360.271199 276.690169 
L 360.873002 276.968539 
L 361.173903 276.834728 
L 361.474804 276.358748 
L 361.775706 275.54062 
L 362.076607 275.196064 
L 362.377509 274.409653 
L 362.67841 272.530559 
L 363.581114 269.113624 
L 363.882016 267.673972 
L 364.182917 267.673972 
L 364.483818 267.027474 
L 364.78472 267.040252 
L 365.085621 267.460477 
L 365.386523 268.286274 
L 365.687424 268.632494 
L 365.988326 269.405646 
L 366.289227 271.161415 
L 366.590128 272.092154 
L 367.191931 274.735733 
L 367.492833 275.12222 
L 368.395537 276.919637 
L 368.696438 276.802607 
L 368.99734 276.235642 
L 369.298241 275.959294 
L 369.599143 275.301039 
L 369.900044 273.712032 
L 370.200945 272.888863 
L 370.802748 270.753497 
L 371.10365 270.012291 
L 371.404551 270.012291 
L 371.705452 269.437834 
L 372.307255 269.305963 
L 372.608157 269.452686 
L 372.909058 269.937786 
L 373.209959 269.937786 
L 373.811762 271.211411 
L 374.413565 272.4011 
L 374.714467 273.470561 
L 375.015368 275.104726 
L 376.820776 280.656814 
L 377.121678 281.734186 
L 377.723481 282.324366 
L 378.325283 282.502781 
L 378.626185 282.388432 
L 379.227988 281.648032 
L 380.431593 280.311068 
L 380.732495 279.746399 
L 381.635199 278.718269 
L 381.9361 278.108983 
L 382.838805 278.119709 
L 383.440607 278.833897 
L 383.741509 279.908115 
L 384.04241 280.505057 
L 384.644213 282.157204 
L 385.546917 282.862371 
L 385.847819 282.629548 
L 386.14872 281.902299 
L 386.750523 279.548338 
L 387.051424 279.548338 
L 387.352326 277.787088 
L 388.25503 275.301098 
L 388.856833 275.021973 
L 389.458636 275.618828 
L 390.36134 277.612145 
L 390.662241 278.291336 
L 390.963143 279.640463 
L 392.166748 282.117841 
L 392.46765 282.117841 
L 392.768551 281.993492 
L 393.069453 281.639832 
L 393.671256 280.403036 
L 393.972157 279.096701 
L 394.273058 277.076427 
L 395.476664 273.232435 
L 396.078467 271.917654 
L 396.379368 271.832952 
L 396.68027 272.078753 
L 397.282072 272.993363 
L 397.582974 274.256748 
L 397.883875 274.256748 
L 398.184777 276.268391 
L 398.485678 276.575106 
L 399.388382 278.46978 
L 399.689284 278.46978 
L 399.990185 279.194674 
L 400.892889 279.443878 
L 401.193791 279.218066 
L 401.494692 279.218066 
L 401.795594 278.020793 
L 402.096495 277.75723 
L 402.698298 276.698735 
L 402.999199 275.848985 
L 403.601002 275.171335 
L 405.105509 274.929321 
L 407.512721 275.54835 
L 408.114523 275.862887 
L 409.318129 278.846467 
L 409.919932 279.878563 
L 410.521735 280.542982 
L 410.822636 280.454857 
L 411.424439 279.838076 
L 412.026242 278.760169 
L 412.327143 277.7226 
L 412.628045 276.205249 
L 413.530749 274.078142 
L 414.433453 272.499033 
L 415.035256 272.414119 
L 415.336157 272.489749 
L 415.637059 273.263509 
L 415.93796 273.263509 
L 416.539763 275.552957 
L 417.141566 277.496105 
L 417.442467 279.117103 
L 417.743369 279.901655 
L 418.04427 280.255529 
L 418.646073 280.209055 
L 418.946974 279.995275 
L 419.849678 277.787739 
L 420.15058 277.561129 
L 420.752383 276.854195 
L 421.053284 276.697225 
L 421.354186 276.998117 
L 421.655087 277.58887 
L 421.955988 277.830657 
L 422.557791 278.863497 
L 422.858693 279.67961 
L 423.159594 279.969637 
L 424.3632 280.320113 
L 424.965002 281.884017 
L 425.566805 284.898196 
L 425.867707 285.477538 
L 426.168608 286.664516 
L 426.770411 290.766723 
L 427.071312 292.266298 
L 427.372214 292.712337 
L 428.274918 295.229111 
L 428.575819 295.229111 
L 429.177622 296.002128 
L 429.779425 296.80041 
L 430.080326 298.095752 
L 430.381228 298.095752 
L 430.682129 299.060756 
L 431.283932 299.654521 
L 431.584834 299.703068 
L 431.885735 298.761336 
L 432.186636 298.761336 
L 432.186636 298.761336 
" clip-path="url(#p552d9b8844)" style="fill: none; stroke: #008000; stroke-width: 1.5; stroke-linecap: square"/>
   </g>
   <g id="patch_13">
    <path d="M 58.106 301.9975 
L 58.106 251.52 
" style="fill: none; stroke: #000000; stroke-width: 0.8; stroke-linejoin: miter; stroke-linecap: square"/>
   </g>
   <g id="patch_14">
    <path d="M 450 301.9975 
L 450 251.52 
" style="fill: none; stroke: #000000; stroke-width: 0.8; stroke-linejoin: miter; stroke-linecap: square"/>
   </g>
   <g id="patch_15">
    <path d="M 58.106 301.9975 
L 450 301.9975 
" style="fill: none; stroke: #000000; stroke-width: 0.8; stroke-linejoin: miter; stroke-linecap: square"/>
   </g>
   <g id="patch_16">
    <path d="M 58.106 251.52 
L 450 251.52 
" style="fill: none; stroke: #000000; stroke-width: 0.8; stroke-linejoin: miter; stroke-linecap: square"/>
   </g>
   <g id="text_38">
    <!-- Error in swing angle -->
    <g transform="translate(194.282688 245.52)scale(0.12 -0.12)">
     <defs>
      <path id="DejaVuSans-77" d="M 269 3500 
L 844 3500 
L 1563 769 
L 2278 3500 
L 2956 3500 
L 3675 769 
L 4391 3500 
L 4966 3500 
L 4050 0 
L 3372 0 
L 2619 2869 
L 1863 0 
L 1184 0 
L 269 3500 
z
" transform="scale(0.015625)"/>
      <path id="DejaVuSans-67" d="M 2906 1791 
Q 2906 2416 2648 2759 
Q 2391 3103 1925 3103 
Q 1463 3103 1205 2759 
Q 947 2416 947 1791 
Q 947 1169 1205 825 
Q 1463 481 1925 481 
Q 2391 481 2648 825 
Q 2906 1169 2906 1791 
z
M 3481 434 
Q 3481 -459 3084 -895 
Q 2688 -1331 1869 -1331 
Q 1566 -1331 1297 -1286 
Q 1028 -1241 775 -1147 
L 775 -588 
Q 1028 -725 1275 -790 
Q 1522 -856 1778 -856 
Q 2344 -856 2625 -561 
Q 2906 -266 2906 331 
L 2906 616 
Q 2728 306 2450 153 
Q 2172 0 1784 0 
Q 1141 0 747 490 
Q 353 981 353 1791 
Q 353 2603 747 3093 
Q 1141 3584 1784 3584 
Q 2172 3584 2450 3431 
Q 2728 3278 2906 2969 
L 2906 3500 
L 3481 3500 
L 3481 434 
z
" transform="scale(0.015625)"/>
      <path id="DejaVuSans-6c" d="M 603 4863 
L 1178 4863 
L 1178 0 
L 603 0 
L 603 4863 
z
" transform="scale(0.015625)"/>
      <path id="DejaVuSans-65" d="M 3597 1894 
L 3597 1613 
L 953 1613 
Q 991 1019 1311 708 
Q 1631 397 2203 397 
Q 2534 397 2845 478 
Q 3156 559 3463 722 
L 3463 178 
Q 3153 47 2828 -22 
Q 2503 -91 2169 -91 
Q 1331 -91 842 396 
Q 353 884 353 1716 
Q 353 2575 817 3079 
Q 1281 3584 2069 3584 
Q 2775 3584 3186 3129 
Q 3597 2675 3597 1894 
z
M 3022 2063 
Q 3016 2534 2758 2815 
Q 2500 3097 2075 3097 
Q 1594 3097 1305 2825 
Q 1016 2553 972 2059 
L 3022 2063 
z
" transform="scale(0.015625)"/>
     </defs>
     <use xlink:href="#DejaVuSans-45"/>
     <use xlink:href="#DejaVuSans-72" x="63.183594"/>
     <use xlink:href="#DejaVuSans-72" x="102.546875"/>
     <use xlink:href="#DejaVuSans-6f" x="141.410156"/>
     <use xlink:href="#DejaVuSans-72" x="202.591797"/>
     <use xlink:href="#DejaVuSans-20" x="243.705078"/>
     <use xlink:href="#DejaVuSans-69" x="275.492188"/>
     <use xlink:href="#DejaVuSans-6e" x="303.275391"/>
     <use xlink:href="#DejaVuSans-20" x="366.654297"/>
     <use xlink:href="#DejaVuSans-73" x="398.441406"/>
     <use xlink:href="#DejaVuSans-77" x="450.541016"/>
     <use xlink:href="#DejaVuSans-69" x="532.328125"/>
     <use xlink:href="#DejaVuSans-6e" x="560.111328"/>
     <use xlink:href="#DejaVuSans-67" x="623.490234"/>
     <use xlink:href="#DejaVuSans-20" x="686.966797"/>
     <use xlink:href="#DejaVuSans-61" x="718.753906"/>
     <use xlink:href="#DejaVuSans-6e" x="780.033203"/>
     <use xlink:href="#DejaVuSans-67" x="843.412109"/>
     <use xlink:href="#DejaVuSans-6c" x="906.888672"/>
     <use xlink:href="#DejaVuSans-65" x="934.671875"/>
    </g>
   </g>
  </g>
 </g>
 <defs>
  <clipPath id="p81bbcfce69">
   <rect x="58.106" y="28.32" width="391.894" height="50.4775"/>
  </clipPath>
  <clipPath id="pc15015802b">
   <rect x="58.106" y="139.92" width="391.894" height="50.4775"/>
  </clipPath>
  <clipPath id="p552d9b8844">
   <rect x="58.106" y="251.52" width="391.894" height="50.4775"/>
  </clipPath>
 </defs>
</svg>
