<?xml version="1.0" encoding="utf-8" standalone="no"?>
<!DOCTYPE svg PUBLIC "-//W3C//DTD SVG 1.1//EN"
  "http://www.w3.org/Graphics/SVG/1.1/DTD/svg11.dtd">
<svg xmlns:xlink="http://www.w3.org/1999/xlink" width="460.8pt" height="345.6pt" viewBox="0 0 460.8 345.6" xmlns="http://www.w3.org/2000/svg" version="1.1">
 <metadata>
  <rdf:RDF xmlns:dc="http://purl.org/dc/elements/1.1/" xmlns:cc="http://creativecommons.org/ns#" xmlns:rdf="http://www.w3.org/1999/02/22-rdf-syntax-ns#">
   <cc:Work>
    <dc:type rdf:resource="http://purl.org/dc/dcmitype/StillImage"/>
    <dc:date>2022-06-05T14:33:27.140093</dc:date>
    <dc:format>image/svg+xml</dc:format>
    <dc:creator>
     <cc:Agent>
      <dc:title>Matplotlib v3.5.1, https://matplotlib.org/</dc:title>
     </cc:Agent>
    </dc:creator>
   </cc:Work>
  </rdf:RDF>
 </metadata>
 <defs>
  <style type="text/css">*{stroke-linejoin: round; stroke-linecap: butt}</style>
 </defs>
 <g id="figure_1">
  <g id="patch_1">
   <path d="M 0 345.6 
L 460.8 345.6 
L 460.8 0 
L 0 0 
z
" style="fill: #ffffff"/>
  </g>
  <g id="axes_1">
   <g id="patch_2">
    <path d="M 58.106 78.7975 
L 450 78.7975 
L 450 28.32 
L 58.106 28.32 
z
" style="fill: #ffffff"/>
   </g>
   <g id="matplotlib.axis_1">
    <g id="xtick_1">
     <g id="line2d_1">
      <path d="M 75.919364 78.7975 
L 75.919364 28.32 
" clip-path="url(#p4e9ed60d87)" style="fill: none; stroke: #b0b0b0; stroke-width: 0.8; stroke-linecap: square"/>
     </g>
     <g id="line2d_2">
      <defs>
       <path id="m19d7335c64" d="M 0 0 
L 0 3.5 
" style="stroke: #000000; stroke-width: 0.8"/>
      </defs>
      <g>
       <use xlink:href="#m19d7335c64" x="75.919364" y="78.7975" style="stroke: #000000; stroke-width: 0.8"/>
      </g>
     </g>
     <g id="text_1">
      <!-- 0 -->
      <g transform="translate(72.738114 93.395937)scale(0.1 -0.1)">
       <defs>
        <path id="DejaVuSans-30" d="M 2034 4250 
Q 1547 4250 1301 3770 
Q 1056 3291 1056 2328 
Q 1056 1369 1301 889 
Q 1547 409 2034 409 
Q 2525 409 2770 889 
Q 3016 1369 3016 2328 
Q 3016 3291 2770 3770 
Q 2525 4250 2034 4250 
z
M 2034 4750 
Q 2819 4750 3233 4129 
Q 3647 3509 3647 2328 
Q 3647 1150 3233 529 
Q 2819 -91 2034 -91 
Q 1250 -91 836 529 
Q 422 1150 422 2328 
Q 422 3509 836 4129 
Q 1250 4750 2034 4750 
z
" transform="scale(0.015625)"/>
       </defs>
       <use xlink:href="#DejaVuSans-30"/>
      </g>
     </g>
    </g>
    <g id="xtick_2">
     <g id="line2d_3">
      <path d="M 134.757889 78.7975 
L 134.757889 28.32 
" clip-path="url(#p4e9ed60d87)" style="fill: none; stroke: #b0b0b0; stroke-width: 0.8; stroke-linecap: square"/>
     </g>
     <g id="line2d_4">
      <g>
       <use xlink:href="#m19d7335c64" x="134.757889" y="78.7975" style="stroke: #000000; stroke-width: 0.8"/>
      </g>
     </g>
     <g id="text_2">
      <!-- 2 -->
      <g transform="translate(131.576639 93.395937)scale(0.1 -0.1)">
       <defs>
        <path id="DejaVuSans-32" d="M 1228 531 
L 3431 531 
L 3431 0 
L 469 0 
L 469 531 
Q 828 903 1448 1529 
Q 2069 2156 2228 2338 
Q 2531 2678 2651 2914 
Q 2772 3150 2772 3378 
Q 2772 3750 2511 3984 
Q 2250 4219 1831 4219 
Q 1534 4219 1204 4116 
Q 875 4013 500 3803 
L 500 4441 
Q 881 4594 1212 4672 
Q 1544 4750 1819 4750 
Q 2544 4750 2975 4387 
Q 3406 4025 3406 3419 
Q 3406 3131 3298 2873 
Q 3191 2616 2906 2266 
Q 2828 2175 2409 1742 
Q 1991 1309 1228 531 
z
" transform="scale(0.015625)"/>
       </defs>
       <use xlink:href="#DejaVuSans-32"/>
      </g>
     </g>
    </g>
    <g id="xtick_3">
     <g id="line2d_5">
      <path d="M 193.596415 78.7975 
L 193.596415 28.32 
" clip-path="url(#p4e9ed60d87)" style="fill: none; stroke: #b0b0b0; stroke-width: 0.8; stroke-linecap: square"/>
     </g>
     <g id="line2d_6">
      <g>
       <use xlink:href="#m19d7335c64" x="193.596415" y="78.7975" style="stroke: #000000; stroke-width: 0.8"/>
      </g>
     </g>
     <g id="text_3">
      <!-- 4 -->
      <g transform="translate(190.415165 93.395937)scale(0.1 -0.1)">
       <defs>
        <path id="DejaVuSans-34" d="M 2419 4116 
L 825 1625 
L 2419 1625 
L 2419 4116 
z
M 2253 4666 
L 3047 4666 
L 3047 1625 
L 3713 1625 
L 3713 1100 
L 3047 1100 
L 3047 0 
L 2419 0 
L 2419 1100 
L 313 1100 
L 313 1709 
L 2253 4666 
z
" transform="scale(0.015625)"/>
       </defs>
       <use xlink:href="#DejaVuSans-34"/>
      </g>
     </g>
    </g>
    <g id="xtick_4">
     <g id="line2d_7">
      <path d="M 252.434941 78.7975 
L 252.434941 28.32 
" clip-path="url(#p4e9ed60d87)" style="fill: none; stroke: #b0b0b0; stroke-width: 0.8; stroke-linecap: square"/>
     </g>
     <g id="line2d_8">
      <g>
       <use xlink:href="#m19d7335c64" x="252.434941" y="78.7975" style="stroke: #000000; stroke-width: 0.8"/>
      </g>
     </g>
     <g id="text_4">
      <!-- 6 -->
      <g transform="translate(249.253691 93.395937)scale(0.1 -0.1)">
       <defs>
        <path id="DejaVuSans-36" d="M 2113 2584 
Q 1688 2584 1439 2293 
Q 1191 2003 1191 1497 
Q 1191 994 1439 701 
Q 1688 409 2113 409 
Q 2538 409 2786 701 
Q 3034 994 3034 1497 
Q 3034 2003 2786 2293 
Q 2538 2584 2113 2584 
z
M 3366 4563 
L 3366 3988 
Q 3128 4100 2886 4159 
Q 2644 4219 2406 4219 
Q 1781 4219 1451 3797 
Q 1122 3375 1075 2522 
Q 1259 2794 1537 2939 
Q 1816 3084 2150 3084 
Q 2853 3084 3261 2657 
Q 3669 2231 3669 1497 
Q 3669 778 3244 343 
Q 2819 -91 2113 -91 
Q 1303 -91 875 529 
Q 447 1150 447 2328 
Q 447 3434 972 4092 
Q 1497 4750 2381 4750 
Q 2619 4750 2861 4703 
Q 3103 4656 3366 4563 
z
" transform="scale(0.015625)"/>
       </defs>
       <use xlink:href="#DejaVuSans-36"/>
      </g>
     </g>
    </g>
    <g id="xtick_5">
     <g id="line2d_9">
      <path d="M 311.273466 78.7975 
L 311.273466 28.32 
" clip-path="url(#p4e9ed60d87)" style="fill: none; stroke: #b0b0b0; stroke-width: 0.8; stroke-linecap: square"/>
     </g>
     <g id="line2d_10">
      <g>
       <use xlink:href="#m19d7335c64" x="311.273466" y="78.7975" style="stroke: #000000; stroke-width: 0.8"/>
      </g>
     </g>
     <g id="text_5">
      <!-- 8 -->
      <g transform="translate(308.092216 93.395937)scale(0.1 -0.1)">
       <defs>
        <path id="DejaVuSans-38" d="M 2034 2216 
Q 1584 2216 1326 1975 
Q 1069 1734 1069 1313 
Q 1069 891 1326 650 
Q 1584 409 2034 409 
Q 2484 409 2743 651 
Q 3003 894 3003 1313 
Q 3003 1734 2745 1975 
Q 2488 2216 2034 2216 
z
M 1403 2484 
Q 997 2584 770 2862 
Q 544 3141 544 3541 
Q 544 4100 942 4425 
Q 1341 4750 2034 4750 
Q 2731 4750 3128 4425 
Q 3525 4100 3525 3541 
Q 3525 3141 3298 2862 
Q 3072 2584 2669 2484 
Q 3125 2378 3379 2068 
Q 3634 1759 3634 1313 
Q 3634 634 3220 271 
Q 2806 -91 2034 -91 
Q 1263 -91 848 271 
Q 434 634 434 1313 
Q 434 1759 690 2068 
Q 947 2378 1403 2484 
z
M 1172 3481 
Q 1172 3119 1398 2916 
Q 1625 2713 2034 2713 
Q 2441 2713 2670 2916 
Q 2900 3119 2900 3481 
Q 2900 3844 2670 4047 
Q 2441 4250 2034 4250 
Q 1625 4250 1398 4047 
Q 1172 3844 1172 3481 
z
" transform="scale(0.015625)"/>
       </defs>
       <use xlink:href="#DejaVuSans-38"/>
      </g>
     </g>
    </g>
    <g id="xtick_6">
     <g id="line2d_11">
      <path d="M 370.111992 78.7975 
L 370.111992 28.32 
" clip-path="url(#p4e9ed60d87)" style="fill: none; stroke: #b0b0b0; stroke-width: 0.8; stroke-linecap: square"/>
     </g>
     <g id="line2d_12">
      <g>
       <use xlink:href="#m19d7335c64" x="370.111992" y="78.7975" style="stroke: #000000; stroke-width: 0.8"/>
      </g>
     </g>
     <g id="text_6">
      <!-- 10 -->
      <g transform="translate(363.749492 93.395937)scale(0.1 -0.1)">
       <defs>
        <path id="DejaVuSans-31" d="M 794 531 
L 1825 531 
L 1825 4091 
L 703 3866 
L 703 4441 
L 1819 4666 
L 2450 4666 
L 2450 531 
L 3481 531 
L 3481 0 
L 794 0 
L 794 531 
z
" transform="scale(0.015625)"/>
       </defs>
       <use xlink:href="#DejaVuSans-31"/>
       <use xlink:href="#DejaVuSans-30" x="63.623047"/>
      </g>
     </g>
    </g>
    <g id="xtick_7">
     <g id="line2d_13">
      <path d="M 428.950517 78.7975 
L 428.950517 28.32 
" clip-path="url(#p4e9ed60d87)" style="fill: none; stroke: #b0b0b0; stroke-width: 0.8; stroke-linecap: square"/>
     </g>
     <g id="line2d_14">
      <g>
       <use xlink:href="#m19d7335c64" x="428.950517" y="78.7975" style="stroke: #000000; stroke-width: 0.8"/>
      </g>
     </g>
     <g id="text_7">
      <!-- 12 -->
      <g transform="translate(422.588017 93.395937)scale(0.1 -0.1)">
       <use xlink:href="#DejaVuSans-31"/>
       <use xlink:href="#DejaVuSans-32" x="63.623047"/>
      </g>
     </g>
    </g>
    <g id="text_8">
     <!-- $t$ [s] -->
     <g transform="translate(243.953 107.074062)scale(0.1 -0.1)">
      <defs>
       <path id="DejaVuSans-Oblique-74" d="M 2706 3500 
L 2619 3053 
L 1472 3053 
L 1100 1153 
Q 1081 1047 1072 975 
Q 1063 903 1063 863 
Q 1063 663 1183 572 
Q 1303 481 1569 481 
L 2150 481 
L 2053 0 
L 1503 0 
Q 991 0 739 200 
Q 488 400 488 806 
Q 488 878 497 964 
Q 506 1050 525 1153 
L 897 3053 
L 409 3053 
L 500 3500 
L 978 3500 
L 1172 4494 
L 1747 4494 
L 1556 3500 
L 2706 3500 
z
" transform="scale(0.015625)"/>
       <path id="DejaVuSans-20" transform="scale(0.015625)"/>
       <path id="DejaVuSans-5b" d="M 550 4863 
L 1875 4863 
L 1875 4416 
L 1125 4416 
L 1125 -397 
L 1875 -397 
L 1875 -844 
L 550 -844 
L 550 4863 
z
" transform="scale(0.015625)"/>
       <path id="DejaVuSans-73" d="M 2834 3397 
L 2834 2853 
Q 2591 2978 2328 3040 
Q 2066 3103 1784 3103 
Q 1356 3103 1142 2972 
Q 928 2841 928 2578 
Q 928 2378 1081 2264 
Q 1234 2150 1697 2047 
L 1894 2003 
Q 2506 1872 2764 1633 
Q 3022 1394 3022 966 
Q 3022 478 2636 193 
Q 2250 -91 1575 -91 
Q 1294 -91 989 -36 
Q 684 19 347 128 
L 347 722 
Q 666 556 975 473 
Q 1284 391 1588 391 
Q 1994 391 2212 530 
Q 2431 669 2431 922 
Q 2431 1156 2273 1281 
Q 2116 1406 1581 1522 
L 1381 1569 
Q 847 1681 609 1914 
Q 372 2147 372 2553 
Q 372 3047 722 3315 
Q 1072 3584 1716 3584 
Q 2034 3584 2315 3537 
Q 2597 3491 2834 3397 
z
" transform="scale(0.015625)"/>
       <path id="DejaVuSans-5d" d="M 1947 4863 
L 1947 -844 
L 622 -844 
L 622 -397 
L 1369 -397 
L 1369 4416 
L 622 4416 
L 622 4863 
L 1947 4863 
z
" transform="scale(0.015625)"/>
      </defs>
      <use xlink:href="#DejaVuSans-Oblique-74" transform="translate(0 0.015625)"/>
      <use xlink:href="#DejaVuSans-20" transform="translate(39.208984 0.015625)"/>
      <use xlink:href="#DejaVuSans-5b" transform="translate(70.996094 0.015625)"/>
      <use xlink:href="#DejaVuSans-73" transform="translate(110.009766 0.015625)"/>
      <use xlink:href="#DejaVuSans-5d" transform="translate(162.109375 0.015625)"/>
     </g>
    </g>
   </g>
   <g id="matplotlib.axis_2">
    <g id="ytick_1">
     <g id="line2d_15">
      <path d="M 58.106 76.377349 
L 450 76.377349 
" clip-path="url(#p4e9ed60d87)" style="fill: none; stroke: #b0b0b0; stroke-width: 0.8; stroke-linecap: square"/>
     </g>
     <g id="line2d_16">
      <defs>
       <path id="mcfd33cee48" d="M 0 0 
L -3.5 0 
" style="stroke: #000000; stroke-width: 0.8"/>
      </defs>
      <g>
       <use xlink:href="#mcfd33cee48" x="58.106" y="76.377349" style="stroke: #000000; stroke-width: 0.8"/>
      </g>
     </g>
     <g id="text_9">
      <!-- 0 -->
      <g transform="translate(44.7435 80.176568)scale(0.1 -0.1)">
       <use xlink:href="#DejaVuSans-30"/>
      </g>
     </g>
    </g>
    <g id="ytick_2">
     <g id="line2d_17">
      <path d="M 58.106 30.614427 
L 450 30.614427 
" clip-path="url(#p4e9ed60d87)" style="fill: none; stroke: #b0b0b0; stroke-width: 0.8; stroke-linecap: square"/>
     </g>
     <g id="line2d_18">
      <g>
       <use xlink:href="#mcfd33cee48" x="58.106" y="30.614427" style="stroke: #000000; stroke-width: 0.8"/>
      </g>
     </g>
     <g id="text_10">
      <!-- 10 -->
      <g transform="translate(38.381 34.413646)scale(0.1 -0.1)">
       <use xlink:href="#DejaVuSans-31"/>
       <use xlink:href="#DejaVuSans-30" x="63.623047"/>
      </g>
     </g>
    </g>
    <g id="text_11">
     <!-- $e_x$ [m] -->
     <g transform="translate(32.301313 69.20875)rotate(-90)scale(0.1 -0.1)">
      <defs>
       <path id="DejaVuSans-Oblique-65" d="M 3078 2063 
Q 3088 2113 3092 2166 
Q 3097 2219 3097 2272 
Q 3097 2653 2873 2875 
Q 2650 3097 2266 3097 
Q 1838 3097 1509 2826 
Q 1181 2556 1013 2059 
L 3078 2063 
z
M 3578 1613 
L 903 1613 
Q 884 1494 878 1425 
Q 872 1356 872 1306 
Q 872 872 1139 634 
Q 1406 397 1894 397 
Q 2269 397 2603 481 
Q 2938 566 3225 728 
L 3116 159 
Q 2806 34 2476 -28 
Q 2147 -91 1806 -91 
Q 1078 -91 686 257 
Q 294 606 294 1247 
Q 294 1794 489 2264 
Q 684 2734 1063 3103 
Q 1306 3334 1642 3459 
Q 1978 3584 2356 3584 
Q 2950 3584 3301 3228 
Q 3653 2872 3653 2272 
Q 3653 2128 3634 1964 
Q 3616 1800 3578 1613 
z
" transform="scale(0.015625)"/>
       <path id="DejaVuSans-Oblique-78" d="M 3841 3500 
L 2234 1784 
L 3219 0 
L 2559 0 
L 1819 1388 
L 531 0 
L -166 0 
L 1556 1844 
L 641 3500 
L 1300 3500 
L 1972 2234 
L 3144 3500 
L 3841 3500 
z
" transform="scale(0.015625)"/>
       <path id="DejaVuSans-6d" d="M 3328 2828 
Q 3544 3216 3844 3400 
Q 4144 3584 4550 3584 
Q 5097 3584 5394 3201 
Q 5691 2819 5691 2113 
L 5691 0 
L 5113 0 
L 5113 2094 
Q 5113 2597 4934 2840 
Q 4756 3084 4391 3084 
Q 3944 3084 3684 2787 
Q 3425 2491 3425 1978 
L 3425 0 
L 2847 0 
L 2847 2094 
Q 2847 2600 2669 2842 
Q 2491 3084 2119 3084 
Q 1678 3084 1418 2786 
Q 1159 2488 1159 1978 
L 1159 0 
L 581 0 
L 581 3500 
L 1159 3500 
L 1159 2956 
Q 1356 3278 1631 3431 
Q 1906 3584 2284 3584 
Q 2666 3584 2933 3390 
Q 3200 3197 3328 2828 
z
" transform="scale(0.015625)"/>
      </defs>
      <use xlink:href="#DejaVuSans-Oblique-65" transform="translate(0 0.015625)"/>
      <use xlink:href="#DejaVuSans-Oblique-78" transform="translate(61.523438 -16.390625)scale(0.7)"/>
      <use xlink:href="#DejaVuSans-20" transform="translate(105.683594 0.015625)"/>
      <use xlink:href="#DejaVuSans-5b" transform="translate(137.470703 0.015625)"/>
      <use xlink:href="#DejaVuSans-6d" transform="translate(176.484375 0.015625)"/>
      <use xlink:href="#DejaVuSans-5d" transform="translate(273.896484 0.015625)"/>
     </g>
    </g>
   </g>
   <g id="line2d_19">
    <path d="M 75.919364 30.614432 
L 82.985822 30.724146 
L 87.99123 30.929163 
L 91.524459 31.036463 
L 97.118739 31.349907 
L 100.357532 31.725589 
L 101.240839 31.814507 
L 105.068504 32.321066 
L 108.601733 32.815244 
L 110.662784 33.127544 
L 111.546091 33.303582 
L 114.196013 33.728961 
L 114.784884 33.831452 
L 115.668192 33.996606 
L 117.729242 34.379009 
L 118.612549 34.556706 
L 120.968035 35.012268 
L 124.501264 35.828814 
L 126.856751 36.374473 
L 129.801108 37.143225 
L 131.862159 37.664505 
L 132.156594 37.820385 
L 132.45103 37.820385 
L 133.039902 38.008647 
L 134.217645 38.356403 
L 135.100952 38.547009 
L 135.984259 38.73789 
L 136.278695 38.928806 
L 137.162002 39.087793 
L 138.04531 39.404902 
L 139.223053 39.625626 
L 140.989667 40.15429 
L 141.284103 40.15429 
L 141.578539 40.33794 
L 142.461846 40.489804 
L 143.345153 40.760523 
L 144.817332 41.116041 
L 146.878382 41.634975 
L 148.056125 41.915278 
L 148.350561 41.915278 
L 148.644997 42.081435 
L 149.82274 42.274221 
L 152.767098 42.98707 
L 155.41702 43.582324 
L 156.300327 43.795825 
L 158.655813 44.32423 
L 159.53912 44.533046 
L 161.894606 45.042961 
L 162.777914 45.241493 
L 165.427835 45.779645 
L 166.311143 45.974057 
L 169.549936 46.602216 
L 170.433243 46.795707 
L 172.494294 47.204259 
L 173.377601 47.438722 
L 174.260908 47.553612 
L 175.438651 47.802398 
L 178.383009 48.34538 
L 179.266316 48.526635 
L 181.916238 49.02984 
L 184.56616 49.542669 
L 185.155032 49.630847 
L 187.510518 50.076683 
L 189.866004 50.530016 
L 190.454875 50.614539 
L 192.810361 51.045452 
L 195.165847 51.473497 
L 197.815769 51.937836 
L 198.404641 52.087841 
L 200.760127 52.496884 
L 201.93787 52.763778 
L 202.821177 52.920906 
L 205.765535 53.488451 
L 206.354406 53.57273 
L 209.004328 54.038745 
L 209.887636 54.212597 
L 212.831993 54.729879 
L 213.715301 54.895715 
L 216.365222 55.344358 
L 217.24853 55.511024 
L 219.898452 55.975243 
L 220.781759 56.140457 
L 223.726116 56.602603 
L 224.314988 56.744541 
L 227.259346 57.244523 
L 228.142653 57.409969 
L 232.264754 58.08909 
L 236.68129 58.895107 
L 240.803391 59.563511 
L 244.042184 60.1316 
L 247.869849 60.747114 
L 251.403078 61.33856 
L 255.525179 62.003659 
L 256.997358 62.268812 
L 257.291793 62.268812 
L 257.880665 62.405244 
L 262.297201 63.09385 
L 267.008174 63.840086 
L 270.246967 64.365361 
L 271.42471 64.539095 
L 274.957939 65.055794 
L 278.491168 65.598261 
L 283.20214 66.221222 
L 283.791012 66.337754 
L 287.029805 66.820292 
L 289.385292 67.158072 
L 290.268599 67.265263 
L 294.390699 67.803548 
L 298.807236 68.40815 
L 302.340465 68.86712 
L 302.929337 68.964072 
L 304.401515 69.110194 
L 304.990387 69.222178 
L 309.701359 69.829321 
L 314.117896 70.396383 
L 319.712175 71.093856 
L 324.423147 71.73772 
L 329.134119 72.314857 
L 330.606298 72.535926 
L 331.489606 72.646089 
L 337.967192 73.405937 
L 338.556064 73.509015 
L 345.622522 74.317357 
L 347.683573 74.558848 
L 348.861316 74.662381 
L 352.394545 75.01924 
L 366.527461 75.940292 
L 379.482635 76.247619 
L 390.376758 76.139961 
L 398.915395 75.960877 
L 413.342748 75.801141 
L 422.764692 76.004157 
L 424.825742 76.129337 
L 428.064536 76.297663 
L 429.536715 76.398795 
L 432.186636 76.503068 
L 432.186636 76.503068 
" clip-path="url(#p4e9ed60d87)" style="fill: none; stroke: #ff0000; stroke-width: 1.5; stroke-linecap: square"/>
   </g>
   <g id="patch_3">
    <path d="M 58.106 78.7975 
L 58.106 28.32 
" style="fill: none; stroke: #000000; stroke-width: 0.8; stroke-linejoin: miter; stroke-linecap: square"/>
   </g>
   <g id="patch_4">
    <path d="M 450 78.7975 
L 450 28.32 
" style="fill: none; stroke: #000000; stroke-width: 0.8; stroke-linejoin: miter; stroke-linecap: square"/>
   </g>
   <g id="patch_5">
    <path d="M 58.106 78.7975 
L 450 78.7975 
" style="fill: none; stroke: #000000; stroke-width: 0.8; stroke-linejoin: miter; stroke-linecap: square"/>
   </g>
   <g id="patch_6">
    <path d="M 58.106 28.32 
L 450 28.32 
" style="fill: none; stroke: #000000; stroke-width: 0.8; stroke-linejoin: miter; stroke-linecap: square"/>
   </g>
   <g id="text_12">
    <!-- Error in $x$-position -->
    <g transform="translate(200.413 22.32)scale(0.12 -0.12)">
     <defs>
      <path id="DejaVuSans-45" d="M 628 4666 
L 3578 4666 
L 3578 4134 
L 1259 4134 
L 1259 2753 
L 3481 2753 
L 3481 2222 
L 1259 2222 
L 1259 531 
L 3634 531 
L 3634 0 
L 628 0 
L 628 4666 
z
" transform="scale(0.015625)"/>
      <path id="DejaVuSans-72" d="M 2631 2963 
Q 2534 3019 2420 3045 
Q 2306 3072 2169 3072 
Q 1681 3072 1420 2755 
Q 1159 2438 1159 1844 
L 1159 0 
L 581 0 
L 581 3500 
L 1159 3500 
L 1159 2956 
Q 1341 3275 1631 3429 
Q 1922 3584 2338 3584 
Q 2397 3584 2469 3576 
Q 2541 3569 2628 3553 
L 2631 2963 
z
" transform="scale(0.015625)"/>
      <path id="DejaVuSans-6f" d="M 1959 3097 
Q 1497 3097 1228 2736 
Q 959 2375 959 1747 
Q 959 1119 1226 758 
Q 1494 397 1959 397 
Q 2419 397 2687 759 
Q 2956 1122 2956 1747 
Q 2956 2369 2687 2733 
Q 2419 3097 1959 3097 
z
M 1959 3584 
Q 2709 3584 3137 3096 
Q 3566 2609 3566 1747 
Q 3566 888 3137 398 
Q 2709 -91 1959 -91 
Q 1206 -91 779 398 
Q 353 888 353 1747 
Q 353 2609 779 3096 
Q 1206 3584 1959 3584 
z
" transform="scale(0.015625)"/>
      <path id="DejaVuSans-69" d="M 603 3500 
L 1178 3500 
L 1178 0 
L 603 0 
L 603 3500 
z
M 603 4863 
L 1178 4863 
L 1178 4134 
L 603 4134 
L 603 4863 
z
" transform="scale(0.015625)"/>
      <path id="DejaVuSans-6e" d="M 3513 2113 
L 3513 0 
L 2938 0 
L 2938 2094 
Q 2938 2591 2744 2837 
Q 2550 3084 2163 3084 
Q 1697 3084 1428 2787 
Q 1159 2491 1159 1978 
L 1159 0 
L 581 0 
L 581 3500 
L 1159 3500 
L 1159 2956 
Q 1366 3272 1645 3428 
Q 1925 3584 2291 3584 
Q 2894 3584 3203 3211 
Q 3513 2838 3513 2113 
z
" transform="scale(0.015625)"/>
      <path id="DejaVuSans-2d" d="M 313 2009 
L 1997 2009 
L 1997 1497 
L 313 1497 
L 313 2009 
z
" transform="scale(0.015625)"/>
      <path id="DejaVuSans-70" d="M 1159 525 
L 1159 -1331 
L 581 -1331 
L 581 3500 
L 1159 3500 
L 1159 2969 
Q 1341 3281 1617 3432 
Q 1894 3584 2278 3584 
Q 2916 3584 3314 3078 
Q 3713 2572 3713 1747 
Q 3713 922 3314 415 
Q 2916 -91 2278 -91 
Q 1894 -91 1617 61 
Q 1341 213 1159 525 
z
M 3116 1747 
Q 3116 2381 2855 2742 
Q 2594 3103 2138 3103 
Q 1681 3103 1420 2742 
Q 1159 2381 1159 1747 
Q 1159 1113 1420 752 
Q 1681 391 2138 391 
Q 2594 391 2855 752 
Q 3116 1113 3116 1747 
z
" transform="scale(0.015625)"/>
      <path id="DejaVuSans-74" d="M 1172 4494 
L 1172 3500 
L 2356 3500 
L 2356 3053 
L 1172 3053 
L 1172 1153 
Q 1172 725 1289 603 
Q 1406 481 1766 481 
L 2356 481 
L 2356 0 
L 1766 0 
Q 1100 0 847 248 
Q 594 497 594 1153 
L 594 3053 
L 172 3053 
L 172 3500 
L 594 3500 
L 594 4494 
L 1172 4494 
z
" transform="scale(0.015625)"/>
     </defs>
     <use xlink:href="#DejaVuSans-45" transform="translate(0 0.015625)"/>
     <use xlink:href="#DejaVuSans-72" transform="translate(63.183594 0.015625)"/>
     <use xlink:href="#DejaVuSans-72" transform="translate(104.296875 0.015625)"/>
     <use xlink:href="#DejaVuSans-6f" transform="translate(145.410156 0.015625)"/>
     <use xlink:href="#DejaVuSans-72" transform="translate(206.591797 0.015625)"/>
     <use xlink:href="#DejaVuSans-20" transform="translate(247.705078 0.015625)"/>
     <use xlink:href="#DejaVuSans-69" transform="translate(279.492188 0.015625)"/>
     <use xlink:href="#DejaVuSans-6e" transform="translate(307.275391 0.015625)"/>
     <use xlink:href="#DejaVuSans-20" transform="translate(370.654297 0.015625)"/>
     <use xlink:href="#DejaVuSans-Oblique-78" transform="translate(402.441406 0.015625)"/>
     <use xlink:href="#DejaVuSans-2d" transform="translate(461.621094 0.015625)"/>
     <use xlink:href="#DejaVuSans-70" transform="translate(497.705078 0.015625)"/>
     <use xlink:href="#DejaVuSans-6f" transform="translate(561.181641 0.015625)"/>
     <use xlink:href="#DejaVuSans-73" transform="translate(622.363281 0.015625)"/>
     <use xlink:href="#DejaVuSans-69" transform="translate(674.462891 0.015625)"/>
     <use xlink:href="#DejaVuSans-74" transform="translate(702.246094 0.015625)"/>
     <use xlink:href="#DejaVuSans-69" transform="translate(741.455078 0.015625)"/>
     <use xlink:href="#DejaVuSans-6f" transform="translate(769.238281 0.015625)"/>
     <use xlink:href="#DejaVuSans-6e" transform="translate(830.419922 0.015625)"/>
    </g>
   </g>
  </g>
  <g id="axes_2">
   <g id="patch_7">
    <path d="M 58.106 190.3975 
L 450 190.3975 
L 450 139.92 
L 58.106 139.92 
z
" style="fill: #ffffff"/>
   </g>
   <g id="matplotlib.axis_3">
    <g id="xtick_8">
     <g id="line2d_20">
      <path d="M 75.919364 190.3975 
L 75.919364 139.92 
" clip-path="url(#pf4148e9f4a)" style="fill: none; stroke: #b0b0b0; stroke-width: 0.8; stroke-linecap: square"/>
     </g>
     <g id="line2d_21">
      <g>
       <use xlink:href="#m19d7335c64" x="75.919364" y="190.3975" style="stroke: #000000; stroke-width: 0.8"/>
      </g>
     </g>
     <g id="text_13">
      <!-- 0 -->
      <g transform="translate(72.738114 204.995937)scale(0.1 -0.1)">
       <use xlink:href="#DejaVuSans-30"/>
      </g>
     </g>
    </g>
    <g id="xtick_9">
     <g id="line2d_22">
      <path d="M 134.757889 190.3975 
L 134.757889 139.92 
" clip-path="url(#pf4148e9f4a)" style="fill: none; stroke: #b0b0b0; stroke-width: 0.8; stroke-linecap: square"/>
     </g>
     <g id="line2d_23">
      <g>
       <use xlink:href="#m19d7335c64" x="134.757889" y="190.3975" style="stroke: #000000; stroke-width: 0.8"/>
      </g>
     </g>
     <g id="text_14">
      <!-- 2 -->
      <g transform="translate(131.576639 204.995937)scale(0.1 -0.1)">
       <use xlink:href="#DejaVuSans-32"/>
      </g>
     </g>
    </g>
    <g id="xtick_10">
     <g id="line2d_24">
      <path d="M 193.596415 190.3975 
L 193.596415 139.92 
" clip-path="url(#pf4148e9f4a)" style="fill: none; stroke: #b0b0b0; stroke-width: 0.8; stroke-linecap: square"/>
     </g>
     <g id="line2d_25">
      <g>
       <use xlink:href="#m19d7335c64" x="193.596415" y="190.3975" style="stroke: #000000; stroke-width: 0.8"/>
      </g>
     </g>
     <g id="text_15">
      <!-- 4 -->
      <g transform="translate(190.415165 204.995937)scale(0.1 -0.1)">
       <use xlink:href="#DejaVuSans-34"/>
      </g>
     </g>
    </g>
    <g id="xtick_11">
     <g id="line2d_26">
      <path d="M 252.434941 190.3975 
L 252.434941 139.92 
" clip-path="url(#pf4148e9f4a)" style="fill: none; stroke: #b0b0b0; stroke-width: 0.8; stroke-linecap: square"/>
     </g>
     <g id="line2d_27">
      <g>
       <use xlink:href="#m19d7335c64" x="252.434941" y="190.3975" style="stroke: #000000; stroke-width: 0.8"/>
      </g>
     </g>
     <g id="text_16">
      <!-- 6 -->
      <g transform="translate(249.253691 204.995937)scale(0.1 -0.1)">
       <use xlink:href="#DejaVuSans-36"/>
      </g>
     </g>
    </g>
    <g id="xtick_12">
     <g id="line2d_28">
      <path d="M 311.273466 190.3975 
L 311.273466 139.92 
" clip-path="url(#pf4148e9f4a)" style="fill: none; stroke: #b0b0b0; stroke-width: 0.8; stroke-linecap: square"/>
     </g>
     <g id="line2d_29">
      <g>
       <use xlink:href="#m19d7335c64" x="311.273466" y="190.3975" style="stroke: #000000; stroke-width: 0.8"/>
      </g>
     </g>
     <g id="text_17">
      <!-- 8 -->
      <g transform="translate(308.092216 204.995937)scale(0.1 -0.1)">
       <use xlink:href="#DejaVuSans-38"/>
      </g>
     </g>
    </g>
    <g id="xtick_13">
     <g id="line2d_30">
      <path d="M 370.111992 190.3975 
L 370.111992 139.92 
" clip-path="url(#pf4148e9f4a)" style="fill: none; stroke: #b0b0b0; stroke-width: 0.8; stroke-linecap: square"/>
     </g>
     <g id="line2d_31">
      <g>
       <use xlink:href="#m19d7335c64" x="370.111992" y="190.3975" style="stroke: #000000; stroke-width: 0.8"/>
      </g>
     </g>
     <g id="text_18">
      <!-- 10 -->
      <g transform="translate(363.749492 204.995937)scale(0.1 -0.1)">
       <use xlink:href="#DejaVuSans-31"/>
       <use xlink:href="#DejaVuSans-30" x="63.623047"/>
      </g>
     </g>
    </g>
    <g id="xtick_14">
     <g id="line2d_32">
      <path d="M 428.950517 190.3975 
L 428.950517 139.92 
" clip-path="url(#pf4148e9f4a)" style="fill: none; stroke: #b0b0b0; stroke-width: 0.8; stroke-linecap: square"/>
     </g>
     <g id="line2d_33">
      <g>
       <use xlink:href="#m19d7335c64" x="428.950517" y="190.3975" style="stroke: #000000; stroke-width: 0.8"/>
      </g>
     </g>
     <g id="text_19">
      <!-- 12 -->
      <g transform="translate(422.588017 204.995937)scale(0.1 -0.1)">
       <use xlink:href="#DejaVuSans-31"/>
       <use xlink:href="#DejaVuSans-32" x="63.623047"/>
      </g>
     </g>
    </g>
    <g id="text_20">
     <!-- $t$ [s] -->
     <g transform="translate(243.953 218.674062)scale(0.1 -0.1)">
      <use xlink:href="#DejaVuSans-Oblique-74" transform="translate(0 0.015625)"/>
      <use xlink:href="#DejaVuSans-20" transform="translate(39.208984 0.015625)"/>
      <use xlink:href="#DejaVuSans-5b" transform="translate(70.996094 0.015625)"/>
      <use xlink:href="#DejaVuSans-73" transform="translate(110.009766 0.015625)"/>
      <use xlink:href="#DejaVuSans-5d" transform="translate(162.109375 0.015625)"/>
     </g>
    </g>
   </g>
   <g id="matplotlib.axis_4">
    <g id="ytick_3">
     <g id="line2d_34">
      <path d="M 58.106 180.721391 
L 450 180.721391 
" clip-path="url(#pf4148e9f4a)" style="fill: none; stroke: #b0b0b0; stroke-width: 0.8; stroke-linecap: square"/>
     </g>
     <g id="line2d_35">
      <g>
       <use xlink:href="#mcfd33cee48" x="58.106" y="180.721391" style="stroke: #000000; stroke-width: 0.8"/>
      </g>
     </g>
     <g id="text_21">
      <!-- −0.1 -->
      <g transform="translate(26.823188 184.52061)scale(0.1 -0.1)">
       <defs>
        <path id="DejaVuSans-2212" d="M 678 2272 
L 4684 2272 
L 4684 1741 
L 678 1741 
L 678 2272 
z
" transform="scale(0.015625)"/>
        <path id="DejaVuSans-2e" d="M 684 794 
L 1344 794 
L 1344 0 
L 684 0 
L 684 794 
z
" transform="scale(0.015625)"/>
       </defs>
       <use xlink:href="#DejaVuSans-2212"/>
       <use xlink:href="#DejaVuSans-30" x="83.789062"/>
       <use xlink:href="#DejaVuSans-2e" x="147.412109"/>
       <use xlink:href="#DejaVuSans-31" x="179.199219"/>
      </g>
     </g>
    </g>
    <g id="ytick_4">
     <g id="line2d_36">
      <path d="M 58.106 166.065813 
L 450 166.065813 
" clip-path="url(#pf4148e9f4a)" style="fill: none; stroke: #b0b0b0; stroke-width: 0.8; stroke-linecap: square"/>
     </g>
     <g id="line2d_37">
      <g>
       <use xlink:href="#mcfd33cee48" x="58.106" y="166.065813" style="stroke: #000000; stroke-width: 0.8"/>
      </g>
     </g>
     <g id="text_22">
      <!-- 0.0 -->
      <g transform="translate(35.202875 169.865031)scale(0.1 -0.1)">
       <use xlink:href="#DejaVuSans-30"/>
       <use xlink:href="#DejaVuSans-2e" x="63.623047"/>
       <use xlink:href="#DejaVuSans-30" x="95.410156"/>
      </g>
     </g>
    </g>
    <g id="ytick_5">
     <g id="line2d_38">
      <path d="M 58.106 151.410234 
L 450 151.410234 
" clip-path="url(#pf4148e9f4a)" style="fill: none; stroke: #b0b0b0; stroke-width: 0.8; stroke-linecap: square"/>
     </g>
     <g id="line2d_39">
      <g>
       <use xlink:href="#mcfd33cee48" x="58.106" y="151.410234" style="stroke: #000000; stroke-width: 0.8"/>
      </g>
     </g>
     <g id="text_23">
      <!-- 0.1 -->
      <g transform="translate(35.202875 155.209453)scale(0.1 -0.1)">
       <use xlink:href="#DejaVuSans-30"/>
       <use xlink:href="#DejaVuSans-2e" x="63.623047"/>
       <use xlink:href="#DejaVuSans-31" x="95.410156"/>
      </g>
     </g>
    </g>
    <g id="text_24">
     <!-- $e_z$ [m] -->
     <g transform="translate(20.7435 180.60875)rotate(-90)scale(0.1 -0.1)">
      <defs>
       <path id="DejaVuSans-Oblique-7a" d="M 744 3500 
L 3475 3500 
L 3372 2975 
L 738 459 
L 2913 459 
L 2822 0 
L -19 0 
L 84 525 
L 2719 3041 
L 653 3041 
L 744 3500 
z
" transform="scale(0.015625)"/>
      </defs>
      <use xlink:href="#DejaVuSans-Oblique-65" transform="translate(0 0.015625)"/>
      <use xlink:href="#DejaVuSans-Oblique-7a" transform="translate(61.523438 -16.390625)scale(0.7)"/>
      <use xlink:href="#DejaVuSans-20" transform="translate(101.000977 0.015625)"/>
      <use xlink:href="#DejaVuSans-5b" transform="translate(132.788086 0.015625)"/>
      <use xlink:href="#DejaVuSans-6d" transform="translate(171.801758 0.015625)"/>
      <use xlink:href="#DejaVuSans-5d" transform="translate(269.213867 0.015625)"/>
     </g>
    </g>
   </g>
   <g id="line2d_40">
    <path d="M 75.919364 167.446364 
L 77.097107 166.953012 
L 77.391542 166.656216 
L 77.685978 166.656216 
L 77.980414 166.231658 
L 78.863721 165.954669 
L 79.158157 165.80043 
L 80.630336 165.860971 
L 81.219207 165.972632 
L 81.808079 166.015222 
L 82.691386 165.883879 
L 82.985822 165.745195 
L 83.574693 165.319487 
L 84.163565 164.930339 
L 86.224615 162.486089 
L 86.519051 162.486089 
L 86.813487 162.095594 
L 87.696794 161.487659 
L 87.99123 161.104609 
L 88.285666 161.104609 
L 88.874537 160.389824 
L 89.463409 159.796036 
L 89.757844 159.289754 
L 90.05228 158.547704 
L 91.818895 156.045366 
L 92.113331 155.36737 
L 93.585509 153.964721 
L 94.468817 153.767741 
L 95.352124 153.833145 
L 97.118739 154.191002 
L 98.002046 154.446466 
L 99.179789 154.64475 
L 100.946403 154.690194 
L 101.829711 154.555736 
L 103.890761 153.520521 
L 104.479633 152.895205 
L 105.36294 152.154466 
L 105.657376 151.484564 
L 105.951811 151.484564 
L 106.246247 150.953519 
L 107.129554 150.240705 
L 107.42399 149.784848 
L 107.718426 149.784848 
L 108.012862 149.521306 
L 109.190605 149.136666 
L 109.485041 149.136666 
L 109.779476 148.923917 
L 110.368348 148.788037 
L 110.662784 148.683292 
L 110.957219 148.364774 
L 111.251655 148.364774 
L 111.840527 147.888396 
L 112.429398 147.534683 
L 113.01827 146.923604 
L 113.312705 146.683271 
L 113.901577 146.461337 
L 114.196013 146.323818 
L 114.490449 146.014742 
L 114.784884 146.014742 
L 115.373756 145.675343 
L 116.257063 145.23678 
L 116.845935 144.75455 
L 117.434806 144.37328 
L 118.612549 143.182529 
L 120.084728 142.27449 
L 120.968035 142.224434 
L 121.851343 142.428454 
L 122.440214 142.757536 
L 123.029086 143.111488 
L 123.323521 143.441619 
L 123.617957 143.441619 
L 124.206829 144.00847 
L 125.090136 144.758125 
L 125.384572 145.210034 
L 128.034494 147.167518 
L 128.328929 147.296486 
L 128.623365 147.589989 
L 128.917801 147.589989 
L 129.506672 147.938473 
L 130.38998 148.343099 
L 131.862159 149.611197 
L 132.156594 150.244411 
L 132.45103 150.244411 
L 132.745466 150.785989 
L 133.628773 151.60283 
L 134.217645 152.470392 
L 134.51208 152.793895 
L 135.100952 153.082981 
L 135.395388 153.256421 
L 135.689823 153.561776 
L 135.984259 153.561776 
L 136.278695 153.951217 
L 136.867566 154.133375 
L 137.162002 154.257763 
L 138.04531 155.017682 
L 138.634181 155.302875 
L 139.223053 155.719843 
L 140.400796 156.940355 
L 140.695231 157.151221 
L 140.989667 157.544797 
L 141.284103 157.544797 
L 141.578539 158.043203 
L 142.461846 158.363533 
L 143.050718 158.649118 
L 143.934025 158.920242 
L 144.522896 159.17513 
L 145.406204 159.579765 
L 145.700639 159.880428 
L 145.995075 159.880428 
L 146.583947 160.418132 
L 147.172818 161.028399 
L 147.76169 161.345405 
L 148.056125 161.768284 
L 148.350561 161.768284 
L 148.644997 162.379954 
L 149.233869 162.669864 
L 150.117176 163.323147 
L 150.411612 163.703878 
L 151.589355 164.543644 
L 153.061533 166.293541 
L 153.355969 167.117286 
L 153.650405 167.117286 
L 153.944841 167.824828 
L 155.122584 169.315793 
L 156.005891 170.962536 
L 156.594763 171.636045 
L 156.889198 172.408717 
L 157.183634 172.408717 
L 157.47807 172.971937 
L 158.655813 174.098209 
L 158.950249 174.563562 
L 160.127992 175.59743 
L 160.422427 176.05869 
L 160.716863 176.05869 
L 161.011299 176.517386 
L 161.894606 177.296926 
L 162.189042 177.729971 
L 162.483478 177.729971 
L 162.777914 178.141986 
L 163.661221 178.775257 
L 163.955657 179.069496 
L 164.250092 179.069496 
L 164.838964 179.397118 
L 166.311143 179.67171 
L 167.783322 179.82092 
L 168.961065 180.136866 
L 169.549936 180.415026 
L 170.138808 180.740771 
L 171.316551 181.039511 
L 172.199858 181.008201 
L 173.083165 180.8336 
L 173.377601 180.639959 
L 175.438651 180.552371 
L 176.027523 180.701641 
L 176.321959 180.903504 
L 176.616394 180.903504 
L 176.91083 181.217771 
L 178.971881 181.452316 
L 179.560752 181.328716 
L 179.855188 181.16016 
L 180.149624 181.16016 
L 180.444059 180.871125 
L 181.327367 180.602783 
L 181.916238 180.289599 
L 182.50511 180.084127 
L 183.093981 180.053528 
L 183.682853 180.174234 
L 186.038339 181.500896 
L 186.332775 181.670704 
L 188.688261 181.559758 
L 190.749311 181.198191 
L 191.338183 181.385863 
L 191.632618 181.565404 
L 191.927054 181.565404 
L 192.810361 182.369717 
L 193.104797 182.665957 
L 193.693669 182.950171 
L 193.988104 183.289445 
L 194.28254 183.289445 
L 194.576976 183.675475 
L 197.521334 184.064961 
L 198.699077 184.16282 
L 199.287948 184.370143 
L 199.87682 184.642773 
L 200.465691 185.062584 
L 200.760127 185.062584 
L 201.348998 185.503132 
L 201.93787 185.880932 
L 202.526742 186.023839 
L 203.115613 186.207987 
L 204.293356 186.168237 
L 205.765535 185.788537 
L 207.237714 185.843249 
L 207.53215 185.976637 
L 207.826585 185.976637 
L 208.415457 186.241097 
L 209.004328 186.478366 
L 209.5932 186.718605 
L 210.770943 186.859756 
L 211.65425 186.721706 
L 212.831993 186.413676 
L 213.420865 186.200829 
L 214.598608 186.056212 
L 216.070787 186.417425 
L 217.24853 186.974301 
L 218.426273 187.245924 
L 219.604016 187.110748 
L 221.076195 186.715919 
L 222.253938 186.583234 
L 223.137245 186.702265 
L 223.431681 186.845904 
L 223.726116 186.845904 
L 224.020552 187.106605 
L 224.90386 187.326198 
L 225.198295 187.47979 
L 225.492731 187.47979 
L 225.787167 187.629814 
L 226.96491 187.630618 
L 230.498139 187.067274 
L 231.381446 187.277035 
L 232.559189 187.667054 
L 233.148061 187.916615 
L 234.325804 188.103068 
L 235.503547 187.926305 
L 235.797983 187.741481 
L 236.092418 187.741481 
L 236.68129 187.523887 
L 238.153469 187.258416 
L 239.331212 187.356184 
L 241.981134 188.018507 
L 242.864441 187.993076 
L 244.042184 187.755216 
L 246.986542 187.34164 
L 254.936307 187.37713 
L 255.525179 187.246881 
L 256.11405 187.011108 
L 257.291793 186.672512 
L 257.586229 186.412293 
L 258.469536 186.201054 
L 258.763972 186.068557 
L 259.352844 185.957895 
L 261.413894 186.003489 
L 262.591637 185.948089 
L 264.358252 185.451486 
L 264.652687 185.120117 
L 265.535995 184.881368 
L 266.419302 184.469314 
L 267.008174 184.277529 
L 268.480352 183.900606 
L 269.952531 183.987648 
L 271.130274 184.029686 
L 272.013582 183.908335 
L 272.308017 183.768251 
L 272.602453 183.768251 
L 273.780196 183.12081 
L 274.369068 182.949423 
L 274.957939 182.603202 
L 275.841246 182.076486 
L 276.135682 182.076486 
L 276.724554 181.829827 
L 277.607861 181.781876 
L 278.196733 181.876708 
L 279.374476 182.195854 
L 279.963347 182.38262 
L 281.14109 182.462966 
L 281.729962 182.310041 
L 282.613269 182.023075 
L 282.907705 181.783553 
L 283.20214 181.783553 
L 283.496576 181.409697 
L 284.085448 181.221413 
L 284.379884 181.095743 
L 284.968755 180.728925 
L 285.852062 180.357602 
L 287.029805 180.401793 
L 289.679727 181.159965 
L 290.268599 181.158326 
L 291.446342 180.883341 
L 291.740778 180.621614 
L 292.035213 180.621614 
L 292.624085 180.345093 
L 294.979571 179.861238 
L 296.157314 179.896558 
L 299.984979 180.126161 
L 303.518208 179.62936 
L 308.523616 179.544392 
L 310.584666 179.487554 
L 315.590074 179.740604 
L 318.828868 179.630356 
L 321.184354 179.850027 
L 325.895326 180.341977 
L 329.134119 180.35814 
L 332.078477 180.943932 
L 332.961784 181.149239 
L 334.433963 181.347947 
L 340.028243 181.938744 
L 342.678165 182.424393 
L 343.267036 182.663544 
L 345.328086 183.145899 
L 346.211394 183.093038 
L 347.683573 182.70538 
L 349.155751 182.767477 
L 349.450187 182.913838 
L 349.744623 182.913838 
L 350.333494 183.230235 
L 351.216802 183.731589 
L 351.511237 184.062546 
L 353.277852 184.93898 
L 354.161159 184.978134 
L 354.455595 184.94884 
L 354.750031 184.799375 
L 355.044467 184.799375 
L 355.633338 184.541903 
L 357.399953 184.107578 
L 359.755439 183.881823 
L 360.933182 183.191259 
L 361.522053 182.591935 
L 362.405361 181.863899 
L 362.994232 181.335895 
L 363.288668 181.335895 
L 363.877539 180.920264 
L 364.466411 180.796566 
L 366.821897 180.449448 
L 367.410769 180.150617 
L 367.99964 179.630945 
L 369.177383 178.694437 
L 369.471819 178.317802 
L 370.649562 177.613533 
L 370.943998 177.613533 
L 371.238434 177.385244 
L 372.710612 177.198123 
L 373.888355 176.802909 
L 374.182791 176.419885 
L 374.477227 176.419885 
L 375.066098 175.839102 
L 376.538277 174.927065 
L 377.421585 174.885083 
L 378.010456 175.132014 
L 379.482635 175.564967 
L 380.071506 175.552522 
L 380.954814 175.29996 
L 381.249249 175.081134 
L 381.838121 174.480954 
L 382.721428 173.773224 
L 383.015864 173.243983 
L 383.3103 173.243983 
L 383.604736 172.903623 
L 384.488043 172.579437 
L 385.076914 172.500991 
L 386.254657 172.755046 
L 386.549093 172.895047 
L 388.021272 172.900182 
L 389.787887 171.668416 
L 390.082322 171.063279 
L 390.376758 171.063279 
L 390.671194 170.58859 
L 391.848937 169.819344 
L 392.437808 169.511561 
L 393.321116 169.5043 
L 395.382166 169.7118 
L 396.854345 168.961854 
L 398.032088 167.802218 
L 398.620959 167.377495 
L 398.915395 167.102692 
L 399.798702 166.876118 
L 400.68201 166.913592 
L 401.270881 167.119773 
L 402.154189 167.365244 
L 403.037496 167.367447 
L 403.331932 167.367447 
L 403.626367 167.096046 
L 404.215239 166.866054 
L 404.509675 166.682247 
L 404.80411 166.267465 
L 406.570725 165.111332 
L 407.454032 165.026108 
L 408.926211 165.553294 
L 409.809518 165.964557 
L 410.692826 165.972731 
L 411.576133 165.719414 
L 412.45944 164.975462 
L 412.753876 164.71404 
L 413.342748 164.469361 
L 413.637183 164.188796 
L 414.520491 163.910879 
L 415.698234 163.972681 
L 417.464848 164.401687 
L 418.348156 164.329426 
L 418.642591 164.255772 
L 420.703642 162.754265 
L 420.998077 162.754265 
L 421.292513 162.417489 
L 422.17582 162.337737 
L 422.764692 162.407204 
L 423.059128 162.689233 
L 423.647999 162.866315 
L 425.120178 163.31995 
L 425.70905 163.287033 
L 426.592357 162.855237 
L 426.886793 162.610213 
L 427.475664 162.335409 
L 427.7701 161.977656 
L 428.064536 161.977656 
L 428.358971 161.526929 
L 429.83115 161.225821 
L 431.597765 162.178326 
L 431.892201 162.581204 
L 432.186636 162.777261 
L 432.186636 162.777261 
" clip-path="url(#pf4148e9f4a)" style="fill: none; stroke: #0000ff; stroke-width: 1.5; stroke-linecap: square"/>
   </g>
   <g id="patch_8">
    <path d="M 58.106 190.3975 
L 58.106 139.92 
" style="fill: none; stroke: #000000; stroke-width: 0.8; stroke-linejoin: miter; stroke-linecap: square"/>
   </g>
   <g id="patch_9">
    <path d="M 450 190.3975 
L 450 139.92 
" style="fill: none; stroke: #000000; stroke-width: 0.8; stroke-linejoin: miter; stroke-linecap: square"/>
   </g>
   <g id="patch_10">
    <path d="M 58.106 190.3975 
L 450 190.3975 
" style="fill: none; stroke: #000000; stroke-width: 0.8; stroke-linejoin: miter; stroke-linecap: square"/>
   </g>
   <g id="patch_11">
    <path d="M 58.106 139.92 
L 450 139.92 
" style="fill: none; stroke: #000000; stroke-width: 0.8; stroke-linejoin: miter; stroke-linecap: square"/>
   </g>
   <g id="text_25">
    <!-- Error in $z$-position -->
    <g transform="translate(200.773 133.92)scale(0.12 -0.12)">
     <use xlink:href="#DejaVuSans-45" transform="translate(0 0.015625)"/>
     <use xlink:href="#DejaVuSans-72" transform="translate(63.183594 0.015625)"/>
     <use xlink:href="#DejaVuSans-72" transform="translate(104.296875 0.015625)"/>
     <use xlink:href="#DejaVuSans-6f" transform="translate(145.410156 0.015625)"/>
     <use xlink:href="#DejaVuSans-72" transform="translate(206.591797 0.015625)"/>
     <use xlink:href="#DejaVuSans-20" transform="translate(247.705078 0.015625)"/>
     <use xlink:href="#DejaVuSans-69" transform="translate(279.492188 0.015625)"/>
     <use xlink:href="#DejaVuSans-6e" transform="translate(307.275391 0.015625)"/>
     <use xlink:href="#DejaVuSans-20" transform="translate(370.654297 0.015625)"/>
     <use xlink:href="#DejaVuSans-Oblique-7a" transform="translate(402.441406 0.015625)"/>
     <use xlink:href="#DejaVuSans-2d" transform="translate(454.931641 0.015625)"/>
     <use xlink:href="#DejaVuSans-70" transform="translate(491.015625 0.015625)"/>
     <use xlink:href="#DejaVuSans-6f" transform="translate(554.492188 0.015625)"/>
     <use xlink:href="#DejaVuSans-73" transform="translate(615.673828 0.015625)"/>
     <use xlink:href="#DejaVuSans-69" transform="translate(667.773438 0.015625)"/>
     <use xlink:href="#DejaVuSans-74" transform="translate(695.556641 0.015625)"/>
     <use xlink:href="#DejaVuSans-69" transform="translate(734.765625 0.015625)"/>
     <use xlink:href="#DejaVuSans-6f" transform="translate(762.548828 0.015625)"/>
     <use xlink:href="#DejaVuSans-6e" transform="translate(823.730469 0.015625)"/>
    </g>
   </g>
  </g>
  <g id="axes_3">
   <g id="patch_12">
    <path d="M 58.106 301.9975 
L 450 301.9975 
L 450 251.52 
L 58.106 251.52 
z
" style="fill: #ffffff"/>
   </g>
   <g id="matplotlib.axis_5">
    <g id="xtick_15">
     <g id="line2d_41">
      <path d="M 75.919364 301.9975 
L 75.919364 251.52 
" clip-path="url(#peea2921736)" style="fill: none; stroke: #b0b0b0; stroke-width: 0.8; stroke-linecap: square"/>
     </g>
     <g id="line2d_42">
      <g>
       <use xlink:href="#m19d7335c64" x="75.919364" y="301.9975" style="stroke: #000000; stroke-width: 0.8"/>
      </g>
     </g>
     <g id="text_26">
      <!-- 0 -->
      <g transform="translate(72.738114 316.595937)scale(0.1 -0.1)">
       <use xlink:href="#DejaVuSans-30"/>
      </g>
     </g>
    </g>
    <g id="xtick_16">
     <g id="line2d_43">
      <path d="M 134.757889 301.9975 
L 134.757889 251.52 
" clip-path="url(#peea2921736)" style="fill: none; stroke: #b0b0b0; stroke-width: 0.8; stroke-linecap: square"/>
     </g>
     <g id="line2d_44">
      <g>
       <use xlink:href="#m19d7335c64" x="134.757889" y="301.9975" style="stroke: #000000; stroke-width: 0.8"/>
      </g>
     </g>
     <g id="text_27">
      <!-- 2 -->
      <g transform="translate(131.576639 316.595937)scale(0.1 -0.1)">
       <use xlink:href="#DejaVuSans-32"/>
      </g>
     </g>
    </g>
    <g id="xtick_17">
     <g id="line2d_45">
      <path d="M 193.596415 301.9975 
L 193.596415 251.52 
" clip-path="url(#peea2921736)" style="fill: none; stroke: #b0b0b0; stroke-width: 0.8; stroke-linecap: square"/>
     </g>
     <g id="line2d_46">
      <g>
       <use xlink:href="#m19d7335c64" x="193.596415" y="301.9975" style="stroke: #000000; stroke-width: 0.8"/>
      </g>
     </g>
     <g id="text_28">
      <!-- 4 -->
      <g transform="translate(190.415165 316.595937)scale(0.1 -0.1)">
       <use xlink:href="#DejaVuSans-34"/>
      </g>
     </g>
    </g>
    <g id="xtick_18">
     <g id="line2d_47">
      <path d="M 252.434941 301.9975 
L 252.434941 251.52 
" clip-path="url(#peea2921736)" style="fill: none; stroke: #b0b0b0; stroke-width: 0.8; stroke-linecap: square"/>
     </g>
     <g id="line2d_48">
      <g>
       <use xlink:href="#m19d7335c64" x="252.434941" y="301.9975" style="stroke: #000000; stroke-width: 0.8"/>
      </g>
     </g>
     <g id="text_29">
      <!-- 6 -->
      <g transform="translate(249.253691 316.595937)scale(0.1 -0.1)">
       <use xlink:href="#DejaVuSans-36"/>
      </g>
     </g>
    </g>
    <g id="xtick_19">
     <g id="line2d_49">
      <path d="M 311.273466 301.9975 
L 311.273466 251.52 
" clip-path="url(#peea2921736)" style="fill: none; stroke: #b0b0b0; stroke-width: 0.8; stroke-linecap: square"/>
     </g>
     <g id="line2d_50">
      <g>
       <use xlink:href="#m19d7335c64" x="311.273466" y="301.9975" style="stroke: #000000; stroke-width: 0.8"/>
      </g>
     </g>
     <g id="text_30">
      <!-- 8 -->
      <g transform="translate(308.092216 316.595937)scale(0.1 -0.1)">
       <use xlink:href="#DejaVuSans-38"/>
      </g>
     </g>
    </g>
    <g id="xtick_20">
     <g id="line2d_51">
      <path d="M 370.111992 301.9975 
L 370.111992 251.52 
" clip-path="url(#peea2921736)" style="fill: none; stroke: #b0b0b0; stroke-width: 0.8; stroke-linecap: square"/>
     </g>
     <g id="line2d_52">
      <g>
       <use xlink:href="#m19d7335c64" x="370.111992" y="301.9975" style="stroke: #000000; stroke-width: 0.8"/>
      </g>
     </g>
     <g id="text_31">
      <!-- 10 -->
      <g transform="translate(363.749492 316.595937)scale(0.1 -0.1)">
       <use xlink:href="#DejaVuSans-31"/>
       <use xlink:href="#DejaVuSans-30" x="63.623047"/>
      </g>
     </g>
    </g>
    <g id="xtick_21">
     <g id="line2d_53">
      <path d="M 428.950517 301.9975 
L 428.950517 251.52 
" clip-path="url(#peea2921736)" style="fill: none; stroke: #b0b0b0; stroke-width: 0.8; stroke-linecap: square"/>
     </g>
     <g id="line2d_54">
      <g>
       <use xlink:href="#m19d7335c64" x="428.950517" y="301.9975" style="stroke: #000000; stroke-width: 0.8"/>
      </g>
     </g>
     <g id="text_32">
      <!-- 12 -->
      <g transform="translate(422.588017 316.595937)scale(0.1 -0.1)">
       <use xlink:href="#DejaVuSans-31"/>
       <use xlink:href="#DejaVuSans-32" x="63.623047"/>
      </g>
     </g>
    </g>
    <g id="text_33">
     <!-- $t$ [s] -->
     <g transform="translate(243.953 330.274063)scale(0.1 -0.1)">
      <use xlink:href="#DejaVuSans-Oblique-74" transform="translate(0 0.015625)"/>
      <use xlink:href="#DejaVuSans-20" transform="translate(39.208984 0.015625)"/>
      <use xlink:href="#DejaVuSans-5b" transform="translate(70.996094 0.015625)"/>
      <use xlink:href="#DejaVuSans-73" transform="translate(110.009766 0.015625)"/>
      <use xlink:href="#DejaVuSans-5d" transform="translate(162.109375 0.015625)"/>
     </g>
    </g>
   </g>
   <g id="matplotlib.axis_6">
    <g id="ytick_6">
     <g id="line2d_55">
      <path d="M 58.106 289.992043 
L 450 289.992043 
" clip-path="url(#peea2921736)" style="fill: none; stroke: #b0b0b0; stroke-width: 0.8; stroke-linecap: square"/>
     </g>
     <g id="line2d_56">
      <g>
       <use xlink:href="#mcfd33cee48" x="58.106" y="289.992043" style="stroke: #000000; stroke-width: 0.8"/>
      </g>
     </g>
     <g id="text_34">
      <!-- −0.1 -->
      <g transform="translate(26.823188 293.791262)scale(0.1 -0.1)">
       <use xlink:href="#DejaVuSans-2212"/>
       <use xlink:href="#DejaVuSans-30" x="83.789062"/>
       <use xlink:href="#DejaVuSans-2e" x="147.412109"/>
       <use xlink:href="#DejaVuSans-31" x="179.199219"/>
      </g>
     </g>
    </g>
    <g id="ytick_7">
     <g id="line2d_57">
      <path d="M 58.106 274.551936 
L 450 274.551936 
" clip-path="url(#peea2921736)" style="fill: none; stroke: #b0b0b0; stroke-width: 0.8; stroke-linecap: square"/>
     </g>
     <g id="line2d_58">
      <g>
       <use xlink:href="#mcfd33cee48" x="58.106" y="274.551936" style="stroke: #000000; stroke-width: 0.8"/>
      </g>
     </g>
     <g id="text_35">
      <!-- 0.0 -->
      <g transform="translate(35.202875 278.351154)scale(0.1 -0.1)">
       <use xlink:href="#DejaVuSans-30"/>
       <use xlink:href="#DejaVuSans-2e" x="63.623047"/>
       <use xlink:href="#DejaVuSans-30" x="95.410156"/>
      </g>
     </g>
    </g>
    <g id="ytick_8">
     <g id="line2d_59">
      <path d="M 58.106 259.111828 
L 450 259.111828 
" clip-path="url(#peea2921736)" style="fill: none; stroke: #b0b0b0; stroke-width: 0.8; stroke-linecap: square"/>
     </g>
     <g id="line2d_60">
      <g>
       <use xlink:href="#mcfd33cee48" x="58.106" y="259.111828" style="stroke: #000000; stroke-width: 0.8"/>
      </g>
     </g>
     <g id="text_36">
      <!-- 0.1 -->
      <g transform="translate(35.202875 262.911047)scale(0.1 -0.1)">
       <use xlink:href="#DejaVuSans-30"/>
       <use xlink:href="#DejaVuSans-2e" x="63.623047"/>
       <use xlink:href="#DejaVuSans-31" x="95.410156"/>
      </g>
     </g>
    </g>
    <g id="text_37">
     <!-- $e_\theta$ [rad] -->
     <g transform="translate(20.7435 295.90875)rotate(-90)scale(0.1 -0.1)">
      <defs>
       <path id="DejaVuSans-Oblique-3b8" d="M 2913 2219 
L 925 2219 
Q 791 1284 928 888 
Q 1100 400 1566 400 
Q 2034 400 2391 891 
Q 2703 1322 2913 2219 
z
M 3009 2750 
Q 3094 3638 2984 3950 
Q 2813 4444 2353 4444 
Q 1875 4444 1525 3956 
Q 1250 3563 1034 2750 
L 3009 2750 
z
M 2444 4913 
Q 3194 4913 3494 4250 
Q 3794 3591 3566 2422 
Q 3341 1256 2781 594 
Q 2225 -72 1475 -72 
Q 722 -72 425 594 
Q 128 1256 353 2422 
Q 581 3591 1134 4250 
Q 1691 4913 2444 4913 
z
" transform="scale(0.015625)"/>
       <path id="DejaVuSans-61" d="M 2194 1759 
Q 1497 1759 1228 1600 
Q 959 1441 959 1056 
Q 959 750 1161 570 
Q 1363 391 1709 391 
Q 2188 391 2477 730 
Q 2766 1069 2766 1631 
L 2766 1759 
L 2194 1759 
z
M 3341 1997 
L 3341 0 
L 2766 0 
L 2766 531 
Q 2569 213 2275 61 
Q 1981 -91 1556 -91 
Q 1019 -91 701 211 
Q 384 513 384 1019 
Q 384 1609 779 1909 
Q 1175 2209 1959 2209 
L 2766 2209 
L 2766 2266 
Q 2766 2663 2505 2880 
Q 2244 3097 1772 3097 
Q 1472 3097 1187 3025 
Q 903 2953 641 2809 
L 641 3341 
Q 956 3463 1253 3523 
Q 1550 3584 1831 3584 
Q 2591 3584 2966 3190 
Q 3341 2797 3341 1997 
z
" transform="scale(0.015625)"/>
       <path id="DejaVuSans-64" d="M 2906 2969 
L 2906 4863 
L 3481 4863 
L 3481 0 
L 2906 0 
L 2906 525 
Q 2725 213 2448 61 
Q 2172 -91 1784 -91 
Q 1150 -91 751 415 
Q 353 922 353 1747 
Q 353 2572 751 3078 
Q 1150 3584 1784 3584 
Q 2172 3584 2448 3432 
Q 2725 3281 2906 2969 
z
M 947 1747 
Q 947 1113 1208 752 
Q 1469 391 1925 391 
Q 2381 391 2643 752 
Q 2906 1113 2906 1747 
Q 2906 2381 2643 2742 
Q 2381 3103 1925 3103 
Q 1469 3103 1208 2742 
Q 947 2381 947 1747 
z
" transform="scale(0.015625)"/>
      </defs>
      <use xlink:href="#DejaVuSans-Oblique-65" transform="translate(0 0.015625)"/>
      <use xlink:href="#DejaVuSans-Oblique-3b8" transform="translate(61.523438 -16.390625)scale(0.7)"/>
      <use xlink:href="#DejaVuSans-20" transform="translate(107.084961 0.015625)"/>
      <use xlink:href="#DejaVuSans-5b" transform="translate(138.87207 0.015625)"/>
      <use xlink:href="#DejaVuSans-72" transform="translate(177.885742 0.015625)"/>
      <use xlink:href="#DejaVuSans-61" transform="translate(218.999023 0.015625)"/>
      <use xlink:href="#DejaVuSans-64" transform="translate(280.27832 0.015625)"/>
      <use xlink:href="#DejaVuSans-5d" transform="translate(343.754883 0.015625)"/>
     </g>
    </g>
   </g>
   <g id="line2d_61">
    <path d="M 75.919364 274.517611 
L 76.213799 274.305436 
L 76.508235 273.686938 
L 76.802671 273.369455 
L 77.097107 272.567266 
L 77.391542 270.354356 
L 77.685978 270.354356 
L 77.980414 266.18508 
L 78.27485 265.475676 
L 78.863721 262.805059 
L 79.158157 260.223829 
L 79.452593 260.223829 
L 79.747029 259.010185 
L 80.041464 258.71554 
L 80.3359 258.63183 
L 80.630336 258.771472 
L 80.924772 260.151578 
L 81.219207 260.151578 
L 81.513643 262.057327 
L 82.691386 266.602284 
L 83.869129 272.957392 
L 84.163565 274.210966 
L 84.458001 276.214771 
L 84.752437 279.196957 
L 85.93018 285.984128 
L 86.224615 288.002789 
L 86.519051 288.002789 
L 86.813487 289.010187 
L 87.107923 289.118329 
L 87.402358 289.020184 
L 87.99123 288.280872 
L 88.285666 288.280872 
L 88.580101 288.162958 
L 89.757844 288.377731 
L 90.346716 287.647575 
L 90.935588 286.017216 
L 91.524459 283.367361 
L 91.818895 280.895669 
L 92.113331 277.311271 
L 93.291074 269.516684 
L 93.585509 266.481489 
L 94.468817 262.599356 
L 95.057688 260.166303 
L 95.352124 258.868044 
L 95.940995 258.091075 
L 96.235431 257.780888 
L 96.824303 257.663543 
L 97.118739 257.718789 
L 98.002046 258.817636 
L 98.296482 259.48495 
L 98.590917 259.739763 
L 98.885353 260.298663 
L 99.179789 261.607572 
L 99.76866 263.169554 
L 100.063096 264.522322 
L 100.357532 266.580759 
L 100.651968 266.580759 
L 100.946403 268.941674 
L 101.535275 271.622665 
L 101.829711 273.816348 
L 102.124147 276.899285 
L 103.890761 286.791695 
L 104.185197 289.026128 
L 104.774068 290.494831 
L 105.068504 290.892491 
L 105.36294 291.045906 
L 105.657376 290.351606 
L 105.951811 290.351606 
L 106.540683 287.811369 
L 107.129554 285.473204 
L 107.42399 282.234187 
L 107.718426 282.234187 
L 108.012862 279.586499 
L 108.896169 275.775265 
L 109.190605 273.546009 
L 109.485041 273.546009 
L 109.779476 271.269295 
L 110.368348 270.890457 
L 110.662784 270.973775 
L 110.957219 272.286747 
L 111.251655 272.286747 
L 111.546091 274.272014 
L 112.429398 278.002213 
L 112.723834 280.307294 
L 113.01827 281.611813 
L 113.312705 282.401396 
L 113.901577 282.591425 
L 114.196013 282.380518 
L 114.490449 280.762971 
L 114.784884 280.762971 
L 115.07932 278.587905 
L 115.962627 274.558036 
L 116.845935 268.328139 
L 117.729242 264.232257 
L 118.023678 262.291055 
L 119.495856 257.813109 
L 119.790292 256.446084 
L 120.379164 255.345596 
L 120.968035 254.65352 
L 121.262471 254.502183 
L 121.556907 254.92153 
L 121.851343 254.92153 
L 122.440214 256.990627 
L 122.73465 258.001584 
L 123.323521 261.996319 
L 123.617957 261.996319 
L 123.912393 264.144736 
L 124.7957 266.699869 
L 125.384572 268.044354 
L 125.973443 268.065972 
L 126.562315 267.721614 
L 126.856751 267.450973 
L 127.740058 266.055086 
L 128.328929 265.672908 
L 128.917801 265.597991 
L 130.38998 267.012861 
L 131.567723 268.833834 
L 131.862159 269.123346 
L 132.156594 269.70968 
L 132.45103 269.70968 
L 132.745466 270.014895 
L 133.628773 270.347831 
L 134.217645 271.013862 
L 134.51208 271.523321 
L 134.806516 271.727411 
L 135.395388 272.674759 
L 135.689823 273.676246 
L 135.984259 273.676246 
L 136.278695 275.011802 
L 136.573131 275.211459 
L 137.162002 275.95089 
L 137.750874 276.915022 
L 138.04531 277.282434 
L 138.339745 277.40867 
L 140.10636 278.837549 
L 140.695231 278.79516 
L 140.989667 278.544191 
L 141.284103 278.544191 
L 141.578539 277.718504 
L 141.872974 277.529314 
L 142.461846 276.649912 
L 142.756282 275.656375 
L 143.050718 275.155442 
L 143.639589 273.736478 
L 143.934025 273.522549 
L 144.228461 273.133975 
L 144.522896 272.536679 
L 145.406204 271.873664 
L 145.700639 271.464005 
L 145.995075 271.464005 
L 146.878382 269.862436 
L 147.172818 268.954358 
L 147.467254 268.601841 
L 147.76169 267.816981 
L 148.056125 265.925664 
L 148.350561 265.925664 
L 148.644997 262.474597 
L 148.939433 261.856665 
L 150.411612 255.479438 
L 151.000483 254.674459 
L 151.589355 254.26353 
L 151.88379 254.182808 
L 153.061533 254.876212 
L 153.355969 255.317025 
L 153.650405 255.317025 
L 153.944841 255.620368 
L 154.828148 255.943129 
L 155.41702 255.962051 
L 156.300327 255.611179 
L 157.183634 255.422374 
L 157.772506 255.850144 
L 158.361377 256.593811 
L 158.655813 257.413343 
L 158.950249 258.78773 
L 159.833556 261.166536 
L 160.422427 263.825351 
L 160.716863 263.825351 
L 161.011299 264.973959 
L 161.600171 265.770646 
L 161.894606 266.052196 
L 162.189042 265.928875 
L 162.483478 265.928875 
L 163.072349 264.969385 
L 163.366785 264.55656 
L 163.955657 263.306449 
L 164.250092 263.306449 
L 164.544528 263.026017 
L 164.838964 263.055116 
L 165.1334 263.208229 
L 165.427835 263.671714 
L 165.722271 264.650108 
L 166.016707 264.650108 
L 166.311143 265.806091 
L 167.19445 267.250936 
L 167.488886 267.638215 
L 167.783322 267.818756 
L 169.2555 267.812445 
L 169.549936 267.970734 
L 170.727679 270.295154 
L 171.022115 271.202061 
L 171.316551 272.838107 
L 171.610986 275.428784 
L 172.494294 279.59407 
L 172.78873 281.954058 
L 173.083165 281.954058 
L 173.377601 283.561013 
L 173.672037 283.569235 
L 173.966473 283.377666 
L 174.260908 282.909716 
L 174.555344 281.25608 
L 174.84978 281.25608 
L 175.144216 277.69041 
L 175.438651 277.060812 
L 176.027523 274.639923 
L 176.321959 272.669714 
L 176.616394 272.669714 
L 176.91083 271.096536 
L 177.205266 271.029629 
L 177.499702 271.080946 
L 177.794137 271.38763 
L 178.088573 271.950034 
L 178.383009 273.237052 
L 178.677445 275.616739 
L 179.560752 279.819216 
L 179.855188 282.374652 
L 180.149624 282.374652 
L 180.444059 284.023782 
L 180.738495 283.973199 
L 181.032931 283.593511 
L 181.327367 282.862714 
L 182.799545 270.824494 
L 183.093981 270.824494 
L 183.388417 267.222414 
L 183.977289 263.296664 
L 184.56616 260.434399 
L 184.860596 260.434399 
L 185.155032 260.095894 
L 185.449467 260.428876 
L 185.743903 261.076937 
L 186.038339 262.567325 
L 186.332775 265.301346 
L 186.62721 265.301346 
L 186.921646 268.525712 
L 187.216082 270.183587 
L 187.804953 274.497938 
L 188.688261 275.831874 
L 188.982696 275.347412 
L 189.277132 273.994995 
L 189.866004 269.76042 
L 190.16044 269.76042 
L 190.454875 266.383541 
L 190.749311 264.675388 
L 191.632618 257.647715 
L 191.927054 257.647715 
L 192.22149 255.285874 
L 192.810361 253.814432 
L 193.399233 254.22837 
L 193.693669 254.973244 
L 193.988104 257.362865 
L 194.28254 257.362865 
L 194.576976 262.431136 
L 194.871412 263.361971 
L 195.460283 267.082234 
L 195.754719 270.507914 
L 196.638026 274.41943 
L 196.932462 274.543679 
L 197.226898 274.523248 
L 197.521334 273.460909 
L 197.815769 273.460909 
L 198.110205 270.000739 
L 198.404641 269.293375 
L 198.993512 266.361213 
L 199.287948 263.463356 
L 199.87682 260.327719 
L 200.465691 257.915669 
L 200.760127 257.915669 
L 201.054563 257.777672 
L 201.348998 258.237123 
L 201.643434 259.564208 
L 201.93787 261.546713 
L 202.232306 262.324543 
L 202.526742 264.011905 
L 203.115613 270.589006 
L 203.410049 273.285504 
L 203.704485 274.141664 
L 204.587792 278.989635 
L 204.882228 279.325015 
L 205.176663 279.138574 
L 205.471099 278.249465 
L 205.765535 276.824842 
L 206.059971 276.824842 
L 206.354406 274.372404 
L 206.943278 271.617421 
L 207.53215 267.00108 
L 207.826585 267.00108 
L 208.121021 264.856082 
L 208.709893 263.420856 
L 209.004328 263.119596 
L 209.5932 264.84867 
L 210.182071 267.441939 
L 210.770943 270.687326 
L 211.65425 278.072946 
L 212.243122 280.36034 
L 212.831993 281.553501 
L 213.420865 280.276688 
L 214.009736 278.169051 
L 214.304172 276.883274 
L 214.598608 274.769777 
L 214.893044 271.799352 
L 216.659658 262.817402 
L 216.954094 262.548116 
L 217.24853 262.610622 
L 217.542965 262.994554 
L 217.837401 264.125908 
L 218.131837 266.498024 
L 219.604016 274.193687 
L 220.192887 277.558502 
L 220.487323 277.834914 
L 220.781759 277.796338 
L 221.076195 277.463942 
L 221.37063 276.859966 
L 221.665066 274.375766 
L 221.959502 274.375766 
L 222.253938 271.722129 
L 223.137245 267.276313 
L 223.431681 264.375863 
L 223.726116 264.375863 
L 224.020552 260.746372 
L 224.314988 260.305384 
L 224.609424 259.615528 
L 224.90386 259.237991 
L 225.198295 259.558891 
L 225.492731 259.558891 
L 225.787167 262.465359 
L 226.081603 263.161207 
L 226.96491 267.949459 
L 227.553781 273.134181 
L 228.142653 275.010896 
L 228.437089 275.536751 
L 229.02596 275.516866 
L 230.792575 266.991341 
L 231.087011 263.976348 
L 232.264754 258.640679 
L 232.559189 257.421191 
L 232.853625 257.072031 
L 233.148061 257.490653 
L 233.442497 258.277725 
L 233.736932 259.389447 
L 234.031368 261.53889 
L 234.325804 265.04693 
L 235.503547 272.566071 
L 235.797983 276.115328 
L 236.092418 276.115328 
L 236.386854 277.544782 
L 236.68129 277.77612 
L 236.975726 277.712368 
L 237.270162 277.372743 
L 237.564597 276.767595 
L 237.859033 275.434318 
L 238.153469 273.057429 
L 239.331212 267.370998 
L 240.214519 261.57134 
L 240.803391 260.231798 
L 241.097826 260.088403 
L 241.981134 263.476368 
L 242.570005 266.668285 
L 243.453313 274.714924 
L 244.042184 277.599379 
L 244.631056 279.645936 
L 244.925491 279.727698 
L 245.219927 279.269383 
L 245.808799 277.525559 
L 246.103234 276.33014 
L 246.39767 274.24587 
L 246.692106 271.170713 
L 248.458721 261.219184 
L 248.753156 260.889063 
L 249.047592 260.924226 
L 249.342028 261.313212 
L 249.636464 262.03602 
L 249.930899 263.677638 
L 250.225335 266.61809 
L 251.99195 277.235032 
L 252.286385 279.151195 
L 252.580821 279.679117 
L 252.875257 279.884299 
L 253.169693 279.758766 
L 253.464128 279.316258 
L 253.758564 278.099995 
L 254.053 275.63855 
L 255.230743 269.181675 
L 256.11405 262.363061 
L 256.702922 260.507023 
L 256.997358 259.88351 
L 257.291793 259.88351 
L 257.586229 261.562039 
L 257.880665 262.123309 
L 258.469536 264.959323 
L 258.763972 268.487153 
L 259.058408 268.487153 
L 259.352844 274.261203 
L 259.647279 275.224709 
L 260.530587 280.31066 
L 260.825023 281.94177 
L 261.119458 282.739426 
L 261.413894 282.533168 
L 261.70833 281.945409 
L 262.297201 279.782081 
L 262.591637 277.488475 
L 262.886073 273.903352 
L 263.76938 268.032127 
L 264.063816 264.21733 
L 264.358252 264.21733 
L 264.652687 259.383656 
L 264.947123 258.770229 
L 265.535995 257.030371 
L 265.830431 256.699991 
L 266.124866 257.101186 
L 266.419302 258.375733 
L 266.713738 260.352631 
L 267.008174 261.144631 
L 267.302609 262.880785 
L 267.597045 266.74132 
L 267.891481 268.80598 
L 268.774788 277.806369 
L 269.069224 277.806369 
L 269.36366 280.777449 
L 269.952531 282.420055 
L 270.246967 282.596687 
L 270.541403 281.458464 
L 270.835838 281.458464 
L 271.42471 277.433847 
L 271.719146 275.676782 
L 272.013582 272.866466 
L 272.308017 268.947226 
L 272.602453 268.947226 
L 272.896889 265.058376 
L 273.191325 263.213486 
L 273.780196 258.537361 
L 274.074632 258.003129 
L 274.663503 256.679047 
L 274.957939 256.992757 
L 275.252375 258.140562 
L 275.841246 262.347551 
L 276.135682 262.347551 
L 276.430118 266.041668 
L 277.018989 269.974326 
L 277.607861 276.410292 
L 277.902297 276.410292 
L 278.196733 279.309044 
L 278.785604 281.271215 
L 279.08004 281.802591 
L 279.374476 281.91819 
L 280.257783 278.580852 
L 281.14109 273.820956 
L 282.318833 264.05001 
L 282.613269 262.43341 
L 282.907705 259.652633 
L 283.20214 259.652633 
L 283.496576 257.727843 
L 283.791012 257.712541 
L 284.085448 257.94944 
L 284.379884 258.529612 
L 285.557627 267.3193 
L 285.852062 270.182709 
L 286.146498 270.182709 
L 286.440934 273.931491 
L 287.029805 277.992704 
L 287.324241 279.863648 
L 287.618677 280.368077 
L 288.207548 282.085483 
L 288.501984 282.089004 
L 288.79642 281.518707 
L 289.090856 280.306385 
L 289.385292 278.545924 
L 289.679727 278.545924 
L 290.563035 270.408084 
L 290.85747 269.514651 
L 291.446342 266.056557 
L 291.740778 262.367982 
L 292.035213 262.367982 
L 292.329649 260.468137 
L 292.624085 259.909419 
L 292.918521 259.618186 
L 293.212956 259.638095 
L 293.507392 260.62479 
L 294.979571 268.307314 
L 295.274007 271.849598 
L 295.568443 271.849598 
L 295.862878 276.643149 
L 296.157314 277.343995 
L 297.040621 281.121552 
L 297.335057 281.343613 
L 298.218364 279.700836 
L 298.5128 278.620991 
L 299.396107 270.780768 
L 299.690543 269.897508 
L 300.279415 266.428673 
L 300.57385 263.429841 
L 300.868286 263.429841 
L 301.162722 260.798659 
L 301.751594 260.528801 
L 302.046029 260.737173 
L 302.340465 262.072359 
L 302.634901 262.072359 
L 302.929337 265.958797 
L 303.223772 266.761968 
L 303.812644 270.204045 
L 304.10708 273.719379 
L 304.401515 273.719379 
L 304.695951 278.510137 
L 304.990387 279.206092 
L 305.873694 282.837429 
L 306.16813 282.837429 
L 306.462566 282.075212 
L 306.757002 281.655643 
L 307.345873 279.310494 
L 308.22918 270.86199 
L 308.523616 269.952401 
L 309.112488 266.340928 
L 309.406923 263.074996 
L 309.995795 259.770936 
L 310.584666 259.105696 
L 310.879102 259.062179 
L 311.173538 260.441679 
L 311.467974 260.441679 
L 312.056845 264.431868 
L 312.645717 267.910146 
L 312.940153 272.417417 
L 313.234588 272.417417 
L 313.529024 275.840261 
L 314.706767 281.971834 
L 315.001203 281.971834 
L 315.295639 281.810475 
L 315.590074 281.230403 
L 316.178946 279.273015 
L 316.473382 277.287956 
L 316.767817 274.225034 
L 317.651125 269.196363 
L 318.534432 262.379094 
L 319.123304 260.432902 
L 319.417739 259.870769 
L 319.712175 259.638386 
L 320.006611 259.933577 
L 321.47879 267.100466 
L 321.773225 271.310087 
L 322.067661 271.310087 
L 322.362097 274.655708 
L 323.53984 280.829005 
L 323.834276 281.861301 
L 324.128711 281.886098 
L 324.423147 281.593818 
L 324.717583 281.015251 
L 325.012019 279.661714 
L 325.306455 277.11976 
L 326.484198 270.688688 
L 326.778633 269.034551 
L 327.367505 263.954186 
L 327.956376 262.06228 
L 328.250812 261.492197 
L 328.545248 261.224982 
L 328.839684 261.273456 
L 329.134119 261.938792 
L 329.722991 265.128718 
L 330.311863 268.169472 
L 330.606298 271.544393 
L 330.900734 271.544393 
L 331.19517 276.622717 
L 331.489606 277.440082 
L 332.667349 283.51748 
L 332.961784 283.993848 
L 333.25622 283.701567 
L 333.550656 282.663251 
L 333.845092 282.663251 
L 334.433963 278.7089 
L 334.728399 277.011951 
L 335.022835 274.270065 
L 335.31727 270.47019 
L 335.611706 270.47019 
L 335.906142 266.83937 
L 336.789449 261.41082 
L 337.378321 260.6456 
L 337.672757 260.859004 
L 337.967192 260.859004 
L 338.261628 263.463002 
L 338.556064 264.099556 
L 339.144935 266.997442 
L 339.439371 270.1908 
L 339.733807 271.811619 
L 340.322678 276.417473 
L 340.617114 277.126412 
L 340.91155 278.44826 
L 341.205986 280.547117 
L 341.794857 281.849666 
L 342.089293 281.835912 
L 342.383729 281.219116 
L 342.678165 281.219116 
L 343.267036 278.293474 
L 343.561472 276.906557 
L 343.855908 274.593847 
L 344.150343 271.226707 
L 344.444779 271.226707 
L 344.739215 267.879316 
L 345.916958 261.172607 
L 346.211394 261.172607 
L 346.505829 260.426613 
L 346.800265 260.42515 
L 347.094701 260.657955 
L 347.389137 261.462168 
L 347.683573 263.304755 
L 347.978008 263.304755 
L 348.272444 265.764057 
L 348.861316 268.509167 
L 349.450187 273.187709 
L 349.744623 273.187709 
L 350.039059 275.530083 
L 350.922366 278.254856 
L 351.216802 278.99261 
L 351.511237 279.186587 
L 351.805673 278.984368 
L 352.394545 278.150358 
L 352.68898 277.595763 
L 353.572288 274.994778 
L 354.161159 274.1553 
L 354.750031 273.439519 
L 356.22221 273.547601 
L 356.811081 273.66681 
L 357.399953 273.642364 
L 357.988824 273.419126 
L 358.872131 272.152422 
L 359.166567 271.475229 
L 359.461003 271.218333 
L 359.755439 270.657152 
L 360.049875 269.366477 
L 360.638746 267.865996 
L 361.522053 264.548722 
L 362.110925 263.724453 
L 362.405361 263.585165 
L 362.699796 263.904322 
L 362.994232 264.650467 
L 363.288668 264.650467 
L 364.171975 269.003367 
L 364.466411 269.501834 
L 365.055282 271.44446 
L 365.349718 273.457967 
L 365.644154 273.457967 
L 365.93859 274.345476 
L 366.233026 274.466422 
L 366.527461 274.360794 
L 366.821897 274.020726 
L 367.116333 273.455307 
L 367.410769 272.246619 
L 367.705204 270.137071 
L 369.471819 263.392018 
L 369.766255 263.198253 
L 370.06069 263.230701 
L 370.355126 263.474734 
L 370.649562 264.509615 
L 370.943998 264.509615 
L 371.238434 267.209804 
L 371.532869 267.766549 
L 372.416177 271.423317 
L 373.299484 276.650951 
L 373.888355 278.384575 
L 374.182791 279.80107 
L 374.477227 279.80107 
L 374.771663 280.169383 
L 375.066098 280.094397 
L 375.65497 279.561824 
L 375.949406 279.166193 
L 376.832713 277.387073 
L 377.71602 276.637492 
L 378.304892 276.444633 
L 380.071506 276.202465 
L 380.660378 276.481591 
L 381.249249 277.007305 
L 381.543685 277.333951 
L 382.132557 277.443993 
L 382.721428 277.246902 
L 383.015864 276.409226 
L 383.3103 276.409226 
L 383.899171 274.523688 
L 385.37135 270.658822 
L 385.665786 270.511954 
L 385.960222 270.544111 
L 386.254657 270.750862 
L 386.549093 271.627089 
L 386.843529 271.627089 
L 387.137965 273.810475 
L 387.4324 274.24533 
L 388.021272 276.103231 
L 388.315708 277.972559 
L 389.199015 280.657732 
L 389.787887 281.015687 
L 390.082322 280.401073 
L 390.376758 280.401073 
L 390.96563 277.660703 
L 391.848937 273.819763 
L 392.732244 268.530221 
L 393.321116 267.107028 
L 393.615551 266.746456 
L 393.909987 266.690266 
L 395.08773 270.141515 
L 395.971038 274.957856 
L 397.148781 278.557487 
L 397.443216 279.242061 
L 397.737652 279.307448 
L 398.032088 279.175949 
L 398.326524 278.843307 
L 398.620959 277.978988 
L 398.915395 276.230627 
L 400.387574 270.901928 
L 401.270881 270.130187 
L 401.565317 270.336197 
L 401.859753 270.727846 
L 402.154189 270.882541 
L 402.74306 271.556549 
L 403.037496 272.257158 
L 403.331932 272.257158 
L 403.626367 273.118063 
L 404.215239 273.439693 
L 404.509675 273.631112 
L 405.392982 274.861827 
L 405.981853 276.372251 
L 406.276289 276.372251 
L 406.570725 277.129499 
L 406.865161 277.325298 
L 407.159597 277.386977 
L 407.454032 277.253782 
L 407.748468 276.785699 
L 408.042904 276.785699 
L 408.33734 276.143614 
L 408.926211 275.361484 
L 409.220647 274.674119 
L 409.515083 273.675725 
L 410.692826 271.811438 
L 411.281697 271.312927 
L 411.576133 271.312927 
L 411.870569 271.063346 
L 412.165005 270.978401 
L 412.45944 271.055088 
L 412.753876 271.520028 
L 413.048312 271.77194 
L 413.342748 272.415659 
L 413.637183 274.142643 
L 414.226055 276.43881 
L 414.520491 277.507327 
L 415.403798 278.312705 
L 415.698234 278.073916 
L 416.875977 275.311482 
L 417.170412 273.801706 
L 418.05372 271.76974 
L 418.642591 271.616908 
L 418.937027 272.13631 
L 419.525899 273.779967 
L 419.820334 274.037861 
L 420.409206 274.738921 
L 420.998077 274.849617 
L 421.292513 274.434736 
L 423.353563 273.813501 
L 423.942435 273.269871 
L 424.236871 272.764686 
L 424.531307 272.764686 
L 425.414614 274.141084 
L 425.70905 275.047054 
L 426.003485 277.30714 
L 426.297921 278.555508 
L 426.886793 282.433729 
L 427.181228 283.069168 
L 427.475664 284.309786 
L 427.7701 286.790836 
L 428.064536 286.790836 
L 428.358971 290.888053 
L 428.653407 291.597924 
L 429.242279 294.353837 
L 429.536715 296.681571 
L 429.83115 296.681571 
L 430.125586 298.987623 
L 431.008893 299.703068 
L 431.303329 299.598041 
L 431.597765 298.956722 
L 432.186636 295.440029 
L 432.186636 295.440029 
" clip-path="url(#peea2921736)" style="fill: none; stroke: #008000; stroke-width: 1.5; stroke-linecap: square"/>
   </g>
   <g id="patch_13">
    <path d="M 58.106 301.9975 
L 58.106 251.52 
" style="fill: none; stroke: #000000; stroke-width: 0.8; stroke-linejoin: miter; stroke-linecap: square"/>
   </g>
   <g id="patch_14">
    <path d="M 450 301.9975 
L 450 251.52 
" style="fill: none; stroke: #000000; stroke-width: 0.8; stroke-linejoin: miter; stroke-linecap: square"/>
   </g>
   <g id="patch_15">
    <path d="M 58.106 301.9975 
L 450 301.9975 
" style="fill: none; stroke: #000000; stroke-width: 0.8; stroke-linejoin: miter; stroke-linecap: square"/>
   </g>
   <g id="patch_16">
    <path d="M 58.106 251.52 
L 450 251.52 
" style="fill: none; stroke: #000000; stroke-width: 0.8; stroke-linejoin: miter; stroke-linecap: square"/>
   </g>
   <g id="text_38">
    <!-- Error in swing angle -->
    <g transform="translate(194.282688 245.52)scale(0.12 -0.12)">
     <defs>
      <path id="DejaVuSans-77" d="M 269 3500 
L 844 3500 
L 1563 769 
L 2278 3500 
L 2956 3500 
L 3675 769 
L 4391 3500 
L 4966 3500 
L 4050 0 
L 3372 0 
L 2619 2869 
L 1863 0 
L 1184 0 
L 269 3500 
z
" transform="scale(0.015625)"/>
      <path id="DejaVuSans-67" d="M 2906 1791 
Q 2906 2416 2648 2759 
Q 2391 3103 1925 3103 
Q 1463 3103 1205 2759 
Q 947 2416 947 1791 
Q 947 1169 1205 825 
Q 1463 481 1925 481 
Q 2391 481 2648 825 
Q 2906 1169 2906 1791 
z
M 3481 434 
Q 3481 -459 3084 -895 
Q 2688 -1331 1869 -1331 
Q 1566 -1331 1297 -1286 
Q 1028 -1241 775 -1147 
L 775 -588 
Q 1028 -725 1275 -790 
Q 1522 -856 1778 -856 
Q 2344 -856 2625 -561 
Q 2906 -266 2906 331 
L 2906 616 
Q 2728 306 2450 153 
Q 2172 0 1784 0 
Q 1141 0 747 490 
Q 353 981 353 1791 
Q 353 2603 747 3093 
Q 1141 3584 1784 3584 
Q 2172 3584 2450 3431 
Q 2728 3278 2906 2969 
L 2906 3500 
L 3481 3500 
L 3481 434 
z
" transform="scale(0.015625)"/>
      <path id="DejaVuSans-6c" d="M 603 4863 
L 1178 4863 
L 1178 0 
L 603 0 
L 603 4863 
z
" transform="scale(0.015625)"/>
      <path id="DejaVuSans-65" d="M 3597 1894 
L 3597 1613 
L 953 1613 
Q 991 1019 1311 708 
Q 1631 397 2203 397 
Q 2534 397 2845 478 
Q 3156 559 3463 722 
L 3463 178 
Q 3153 47 2828 -22 
Q 2503 -91 2169 -91 
Q 1331 -91 842 396 
Q 353 884 353 1716 
Q 353 2575 817 3079 
Q 1281 3584 2069 3584 
Q 2775 3584 3186 3129 
Q 3597 2675 3597 1894 
z
M 3022 2063 
Q 3016 2534 2758 2815 
Q 2500 3097 2075 3097 
Q 1594 3097 1305 2825 
Q 1016 2553 972 2059 
L 3022 2063 
z
" transform="scale(0.015625)"/>
     </defs>
     <use xlink:href="#DejaVuSans-45"/>
     <use xlink:href="#DejaVuSans-72" x="63.183594"/>
     <use xlink:href="#DejaVuSans-72" x="102.546875"/>
     <use xlink:href="#DejaVuSans-6f" x="141.410156"/>
     <use xlink:href="#DejaVuSans-72" x="202.591797"/>
     <use xlink:href="#DejaVuSans-20" x="243.705078"/>
     <use xlink:href="#DejaVuSans-69" x="275.492188"/>
     <use xlink:href="#DejaVuSans-6e" x="303.275391"/>
     <use xlink:href="#DejaVuSans-20" x="366.654297"/>
     <use xlink:href="#DejaVuSans-73" x="398.441406"/>
     <use xlink:href="#DejaVuSans-77" x="450.541016"/>
     <use xlink:href="#DejaVuSans-69" x="532.328125"/>
     <use xlink:href="#DejaVuSans-6e" x="560.111328"/>
     <use xlink:href="#DejaVuSans-67" x="623.490234"/>
     <use xlink:href="#DejaVuSans-20" x="686.966797"/>
     <use xlink:href="#DejaVuSans-61" x="718.753906"/>
     <use xlink:href="#DejaVuSans-6e" x="780.033203"/>
     <use xlink:href="#DejaVuSans-67" x="843.412109"/>
     <use xlink:href="#DejaVuSans-6c" x="906.888672"/>
     <use xlink:href="#DejaVuSans-65" x="934.671875"/>
    </g>
   </g>
  </g>
 </g>
 <defs>
  <clipPath id="p4e9ed60d87">
   <rect x="58.106" y="28.32" width="391.894" height="50.4775"/>
  </clipPath>
  <clipPath id="pf4148e9f4a">
   <rect x="58.106" y="139.92" width="391.894" height="50.4775"/>
  </clipPath>
  <clipPath id="peea2921736">
   <rect x="58.106" y="251.52" width="391.894" height="50.4775"/>
  </clipPath>
 </defs>
</svg>
