<?xml version="1.0" encoding="utf-8" standalone="no"?>
<!DOCTYPE svg PUBLIC "-//W3C//DTD SVG 1.1//EN"
  "http://www.w3.org/Graphics/SVG/1.1/DTD/svg11.dtd">
<svg xmlns:xlink="http://www.w3.org/1999/xlink" width="460.8pt" height="345.6pt" viewBox="0 0 460.8 345.6" xmlns="http://www.w3.org/2000/svg" version="1.1">
 <metadata>
  <rdf:RDF xmlns:dc="http://purl.org/dc/elements/1.1/" xmlns:cc="http://creativecommons.org/ns#" xmlns:rdf="http://www.w3.org/1999/02/22-rdf-syntax-ns#">
   <cc:Work>
    <dc:type rdf:resource="http://purl.org/dc/dcmitype/StillImage"/>
    <dc:date>2022-06-05T14:24:31.170675</dc:date>
    <dc:format>image/svg+xml</dc:format>
    <dc:creator>
     <cc:Agent>
      <dc:title>Matplotlib v3.5.1, https://matplotlib.org/</dc:title>
     </cc:Agent>
    </dc:creator>
   </cc:Work>
  </rdf:RDF>
 </metadata>
 <defs>
  <style type="text/css">*{stroke-linejoin: round; stroke-linecap: butt}</style>
 </defs>
 <g id="figure_1">
  <g id="patch_1">
   <path d="M 0 345.6 
L 460.8 345.6 
L 460.8 0 
L 0 0 
z
" style="fill: #ffffff"/>
  </g>
  <g id="axes_1">
   <g id="patch_2">
    <path d="M 58.106 78.7975 
L 450 78.7975 
L 450 28.32 
L 58.106 28.32 
z
" style="fill: #ffffff"/>
   </g>
   <g id="matplotlib.axis_1">
    <g id="xtick_1">
     <g id="line2d_1">
      <path d="M 75.919364 78.7975 
L 75.919364 28.32 
" clip-path="url(#pf494760194)" style="fill: none; stroke: #b0b0b0; stroke-width: 0.8; stroke-linecap: square"/>
     </g>
     <g id="line2d_2">
      <defs>
       <path id="m777a3f5d1b" d="M 0 0 
L 0 3.5 
" style="stroke: #000000; stroke-width: 0.8"/>
      </defs>
      <g>
       <use xlink:href="#m777a3f5d1b" x="75.919364" y="78.7975" style="stroke: #000000; stroke-width: 0.8"/>
      </g>
     </g>
     <g id="text_1">
      <!-- 0 -->
      <g transform="translate(72.738114 93.395937)scale(0.1 -0.1)">
       <defs>
        <path id="DejaVuSans-30" d="M 2034 4250 
Q 1547 4250 1301 3770 
Q 1056 3291 1056 2328 
Q 1056 1369 1301 889 
Q 1547 409 2034 409 
Q 2525 409 2770 889 
Q 3016 1369 3016 2328 
Q 3016 3291 2770 3770 
Q 2525 4250 2034 4250 
z
M 2034 4750 
Q 2819 4750 3233 4129 
Q 3647 3509 3647 2328 
Q 3647 1150 3233 529 
Q 2819 -91 2034 -91 
Q 1250 -91 836 529 
Q 422 1150 422 2328 
Q 422 3509 836 4129 
Q 1250 4750 2034 4750 
z
" transform="scale(0.015625)"/>
       </defs>
       <use xlink:href="#DejaVuSans-30"/>
      </g>
     </g>
    </g>
    <g id="xtick_2">
     <g id="line2d_3">
      <path d="M 133.521186 78.7975 
L 133.521186 28.32 
" clip-path="url(#pf494760194)" style="fill: none; stroke: #b0b0b0; stroke-width: 0.8; stroke-linecap: square"/>
     </g>
     <g id="line2d_4">
      <g>
       <use xlink:href="#m777a3f5d1b" x="133.521186" y="78.7975" style="stroke: #000000; stroke-width: 0.8"/>
      </g>
     </g>
     <g id="text_2">
      <!-- 2 -->
      <g transform="translate(130.339936 93.395937)scale(0.1 -0.1)">
       <defs>
        <path id="DejaVuSans-32" d="M 1228 531 
L 3431 531 
L 3431 0 
L 469 0 
L 469 531 
Q 828 903 1448 1529 
Q 2069 2156 2228 2338 
Q 2531 2678 2651 2914 
Q 2772 3150 2772 3378 
Q 2772 3750 2511 3984 
Q 2250 4219 1831 4219 
Q 1534 4219 1204 4116 
Q 875 4013 500 3803 
L 500 4441 
Q 881 4594 1212 4672 
Q 1544 4750 1819 4750 
Q 2544 4750 2975 4387 
Q 3406 4025 3406 3419 
Q 3406 3131 3298 2873 
Q 3191 2616 2906 2266 
Q 2828 2175 2409 1742 
Q 1991 1309 1228 531 
z
" transform="scale(0.015625)"/>
       </defs>
       <use xlink:href="#DejaVuSans-32"/>
      </g>
     </g>
    </g>
    <g id="xtick_3">
     <g id="line2d_5">
      <path d="M 191.123009 78.7975 
L 191.123009 28.32 
" clip-path="url(#pf494760194)" style="fill: none; stroke: #b0b0b0; stroke-width: 0.8; stroke-linecap: square"/>
     </g>
     <g id="line2d_6">
      <g>
       <use xlink:href="#m777a3f5d1b" x="191.123009" y="78.7975" style="stroke: #000000; stroke-width: 0.8"/>
      </g>
     </g>
     <g id="text_3">
      <!-- 4 -->
      <g transform="translate(187.941759 93.395937)scale(0.1 -0.1)">
       <defs>
        <path id="DejaVuSans-34" d="M 2419 4116 
L 825 1625 
L 2419 1625 
L 2419 4116 
z
M 2253 4666 
L 3047 4666 
L 3047 1625 
L 3713 1625 
L 3713 1100 
L 3047 1100 
L 3047 0 
L 2419 0 
L 2419 1100 
L 313 1100 
L 313 1709 
L 2253 4666 
z
" transform="scale(0.015625)"/>
       </defs>
       <use xlink:href="#DejaVuSans-34"/>
      </g>
     </g>
    </g>
    <g id="xtick_4">
     <g id="line2d_7">
      <path d="M 248.724831 78.7975 
L 248.724831 28.32 
" clip-path="url(#pf494760194)" style="fill: none; stroke: #b0b0b0; stroke-width: 0.8; stroke-linecap: square"/>
     </g>
     <g id="line2d_8">
      <g>
       <use xlink:href="#m777a3f5d1b" x="248.724831" y="78.7975" style="stroke: #000000; stroke-width: 0.8"/>
      </g>
     </g>
     <g id="text_4">
      <!-- 6 -->
      <g transform="translate(245.543581 93.395937)scale(0.1 -0.1)">
       <defs>
        <path id="DejaVuSans-36" d="M 2113 2584 
Q 1688 2584 1439 2293 
Q 1191 2003 1191 1497 
Q 1191 994 1439 701 
Q 1688 409 2113 409 
Q 2538 409 2786 701 
Q 3034 994 3034 1497 
Q 3034 2003 2786 2293 
Q 2538 2584 2113 2584 
z
M 3366 4563 
L 3366 3988 
Q 3128 4100 2886 4159 
Q 2644 4219 2406 4219 
Q 1781 4219 1451 3797 
Q 1122 3375 1075 2522 
Q 1259 2794 1537 2939 
Q 1816 3084 2150 3084 
Q 2853 3084 3261 2657 
Q 3669 2231 3669 1497 
Q 3669 778 3244 343 
Q 2819 -91 2113 -91 
Q 1303 -91 875 529 
Q 447 1150 447 2328 
Q 447 3434 972 4092 
Q 1497 4750 2381 4750 
Q 2619 4750 2861 4703 
Q 3103 4656 3366 4563 
z
" transform="scale(0.015625)"/>
       </defs>
       <use xlink:href="#DejaVuSans-36"/>
      </g>
     </g>
    </g>
    <g id="xtick_5">
     <g id="line2d_9">
      <path d="M 306.326654 78.7975 
L 306.326654 28.32 
" clip-path="url(#pf494760194)" style="fill: none; stroke: #b0b0b0; stroke-width: 0.8; stroke-linecap: square"/>
     </g>
     <g id="line2d_10">
      <g>
       <use xlink:href="#m777a3f5d1b" x="306.326654" y="78.7975" style="stroke: #000000; stroke-width: 0.8"/>
      </g>
     </g>
     <g id="text_5">
      <!-- 8 -->
      <g transform="translate(303.145404 93.395937)scale(0.1 -0.1)">
       <defs>
        <path id="DejaVuSans-38" d="M 2034 2216 
Q 1584 2216 1326 1975 
Q 1069 1734 1069 1313 
Q 1069 891 1326 650 
Q 1584 409 2034 409 
Q 2484 409 2743 651 
Q 3003 894 3003 1313 
Q 3003 1734 2745 1975 
Q 2488 2216 2034 2216 
z
M 1403 2484 
Q 997 2584 770 2862 
Q 544 3141 544 3541 
Q 544 4100 942 4425 
Q 1341 4750 2034 4750 
Q 2731 4750 3128 4425 
Q 3525 4100 3525 3541 
Q 3525 3141 3298 2862 
Q 3072 2584 2669 2484 
Q 3125 2378 3379 2068 
Q 3634 1759 3634 1313 
Q 3634 634 3220 271 
Q 2806 -91 2034 -91 
Q 1263 -91 848 271 
Q 434 634 434 1313 
Q 434 1759 690 2068 
Q 947 2378 1403 2484 
z
M 1172 3481 
Q 1172 3119 1398 2916 
Q 1625 2713 2034 2713 
Q 2441 2713 2670 2916 
Q 2900 3119 2900 3481 
Q 2900 3844 2670 4047 
Q 2441 4250 2034 4250 
Q 1625 4250 1398 4047 
Q 1172 3844 1172 3481 
z
" transform="scale(0.015625)"/>
       </defs>
       <use xlink:href="#DejaVuSans-38"/>
      </g>
     </g>
    </g>
    <g id="xtick_6">
     <g id="line2d_11">
      <path d="M 363.928477 78.7975 
L 363.928477 28.32 
" clip-path="url(#pf494760194)" style="fill: none; stroke: #b0b0b0; stroke-width: 0.8; stroke-linecap: square"/>
     </g>
     <g id="line2d_12">
      <g>
       <use xlink:href="#m777a3f5d1b" x="363.928477" y="78.7975" style="stroke: #000000; stroke-width: 0.8"/>
      </g>
     </g>
     <g id="text_6">
      <!-- 10 -->
      <g transform="translate(357.565977 93.395937)scale(0.1 -0.1)">
       <defs>
        <path id="DejaVuSans-31" d="M 794 531 
L 1825 531 
L 1825 4091 
L 703 3866 
L 703 4441 
L 1819 4666 
L 2450 4666 
L 2450 531 
L 3481 531 
L 3481 0 
L 794 0 
L 794 531 
z
" transform="scale(0.015625)"/>
       </defs>
       <use xlink:href="#DejaVuSans-31"/>
       <use xlink:href="#DejaVuSans-30" x="63.623047"/>
      </g>
     </g>
    </g>
    <g id="xtick_7">
     <g id="line2d_13">
      <path d="M 421.530299 78.7975 
L 421.530299 28.32 
" clip-path="url(#pf494760194)" style="fill: none; stroke: #b0b0b0; stroke-width: 0.8; stroke-linecap: square"/>
     </g>
     <g id="line2d_14">
      <g>
       <use xlink:href="#m777a3f5d1b" x="421.530299" y="78.7975" style="stroke: #000000; stroke-width: 0.8"/>
      </g>
     </g>
     <g id="text_7">
      <!-- 12 -->
      <g transform="translate(415.167799 93.395937)scale(0.1 -0.1)">
       <use xlink:href="#DejaVuSans-31"/>
       <use xlink:href="#DejaVuSans-32" x="63.623047"/>
      </g>
     </g>
    </g>
    <g id="text_8">
     <!-- $t$ [s] -->
     <g transform="translate(243.953 107.074062)scale(0.1 -0.1)">
      <defs>
       <path id="DejaVuSans-Oblique-74" d="M 2706 3500 
L 2619 3053 
L 1472 3053 
L 1100 1153 
Q 1081 1047 1072 975 
Q 1063 903 1063 863 
Q 1063 663 1183 572 
Q 1303 481 1569 481 
L 2150 481 
L 2053 0 
L 1503 0 
Q 991 0 739 200 
Q 488 400 488 806 
Q 488 878 497 964 
Q 506 1050 525 1153 
L 897 3053 
L 409 3053 
L 500 3500 
L 978 3500 
L 1172 4494 
L 1747 4494 
L 1556 3500 
L 2706 3500 
z
" transform="scale(0.015625)"/>
       <path id="DejaVuSans-20" transform="scale(0.015625)"/>
       <path id="DejaVuSans-5b" d="M 550 4863 
L 1875 4863 
L 1875 4416 
L 1125 4416 
L 1125 -397 
L 1875 -397 
L 1875 -844 
L 550 -844 
L 550 4863 
z
" transform="scale(0.015625)"/>
       <path id="DejaVuSans-73" d="M 2834 3397 
L 2834 2853 
Q 2591 2978 2328 3040 
Q 2066 3103 1784 3103 
Q 1356 3103 1142 2972 
Q 928 2841 928 2578 
Q 928 2378 1081 2264 
Q 1234 2150 1697 2047 
L 1894 2003 
Q 2506 1872 2764 1633 
Q 3022 1394 3022 966 
Q 3022 478 2636 193 
Q 2250 -91 1575 -91 
Q 1294 -91 989 -36 
Q 684 19 347 128 
L 347 722 
Q 666 556 975 473 
Q 1284 391 1588 391 
Q 1994 391 2212 530 
Q 2431 669 2431 922 
Q 2431 1156 2273 1281 
Q 2116 1406 1581 1522 
L 1381 1569 
Q 847 1681 609 1914 
Q 372 2147 372 2553 
Q 372 3047 722 3315 
Q 1072 3584 1716 3584 
Q 2034 3584 2315 3537 
Q 2597 3491 2834 3397 
z
" transform="scale(0.015625)"/>
       <path id="DejaVuSans-5d" d="M 1947 4863 
L 1947 -844 
L 622 -844 
L 622 -397 
L 1369 -397 
L 1369 4416 
L 622 4416 
L 622 4863 
L 1947 4863 
z
" transform="scale(0.015625)"/>
      </defs>
      <use xlink:href="#DejaVuSans-Oblique-74" transform="translate(0 0.015625)"/>
      <use xlink:href="#DejaVuSans-20" transform="translate(39.208984 0.015625)"/>
      <use xlink:href="#DejaVuSans-5b" transform="translate(70.996094 0.015625)"/>
      <use xlink:href="#DejaVuSans-73" transform="translate(110.009766 0.015625)"/>
      <use xlink:href="#DejaVuSans-5d" transform="translate(162.109375 0.015625)"/>
     </g>
    </g>
   </g>
   <g id="matplotlib.axis_2">
    <g id="ytick_1">
     <g id="line2d_15">
      <path d="M 58.106 76.523136 
L 450 76.523136 
" clip-path="url(#pf494760194)" style="fill: none; stroke: #b0b0b0; stroke-width: 0.8; stroke-linecap: square"/>
     </g>
     <g id="line2d_16">
      <defs>
       <path id="m088aacd8e9" d="M 0 0 
L -3.5 0 
" style="stroke: #000000; stroke-width: 0.8"/>
      </defs>
      <g>
       <use xlink:href="#m088aacd8e9" x="58.106" y="76.523136" style="stroke: #000000; stroke-width: 0.8"/>
      </g>
     </g>
     <g id="text_9">
      <!-- 0 -->
      <g transform="translate(44.7435 80.322355)scale(0.1 -0.1)">
       <use xlink:href="#DejaVuSans-30"/>
      </g>
     </g>
    </g>
    <g id="ytick_2">
     <g id="line2d_17">
      <path d="M 58.106 30.614427 
L 450 30.614427 
" clip-path="url(#pf494760194)" style="fill: none; stroke: #b0b0b0; stroke-width: 0.8; stroke-linecap: square"/>
     </g>
     <g id="line2d_18">
      <g>
       <use xlink:href="#m088aacd8e9" x="58.106" y="30.614427" style="stroke: #000000; stroke-width: 0.8"/>
      </g>
     </g>
     <g id="text_10">
      <!-- 10 -->
      <g transform="translate(38.381 34.413646)scale(0.1 -0.1)">
       <use xlink:href="#DejaVuSans-31"/>
       <use xlink:href="#DejaVuSans-30" x="63.623047"/>
      </g>
     </g>
    </g>
    <g id="text_11">
     <!-- $e_x$ [m] -->
     <g transform="translate(32.301313 69.20875)rotate(-90)scale(0.1 -0.1)">
      <defs>
       <path id="DejaVuSans-Oblique-65" d="M 3078 2063 
Q 3088 2113 3092 2166 
Q 3097 2219 3097 2272 
Q 3097 2653 2873 2875 
Q 2650 3097 2266 3097 
Q 1838 3097 1509 2826 
Q 1181 2556 1013 2059 
L 3078 2063 
z
M 3578 1613 
L 903 1613 
Q 884 1494 878 1425 
Q 872 1356 872 1306 
Q 872 872 1139 634 
Q 1406 397 1894 397 
Q 2269 397 2603 481 
Q 2938 566 3225 728 
L 3116 159 
Q 2806 34 2476 -28 
Q 2147 -91 1806 -91 
Q 1078 -91 686 257 
Q 294 606 294 1247 
Q 294 1794 489 2264 
Q 684 2734 1063 3103 
Q 1306 3334 1642 3459 
Q 1978 3584 2356 3584 
Q 2950 3584 3301 3228 
Q 3653 2872 3653 2272 
Q 3653 2128 3634 1964 
Q 3616 1800 3578 1613 
z
" transform="scale(0.015625)"/>
       <path id="DejaVuSans-Oblique-78" d="M 3841 3500 
L 2234 1784 
L 3219 0 
L 2559 0 
L 1819 1388 
L 531 0 
L -166 0 
L 1556 1844 
L 641 3500 
L 1300 3500 
L 1972 2234 
L 3144 3500 
L 3841 3500 
z
" transform="scale(0.015625)"/>
       <path id="DejaVuSans-6d" d="M 3328 2828 
Q 3544 3216 3844 3400 
Q 4144 3584 4550 3584 
Q 5097 3584 5394 3201 
Q 5691 2819 5691 2113 
L 5691 0 
L 5113 0 
L 5113 2094 
Q 5113 2597 4934 2840 
Q 4756 3084 4391 3084 
Q 3944 3084 3684 2787 
Q 3425 2491 3425 1978 
L 3425 0 
L 2847 0 
L 2847 2094 
Q 2847 2600 2669 2842 
Q 2491 3084 2119 3084 
Q 1678 3084 1418 2786 
Q 1159 2488 1159 1978 
L 1159 0 
L 581 0 
L 581 3500 
L 1159 3500 
L 1159 2956 
Q 1356 3278 1631 3431 
Q 1906 3584 2284 3584 
Q 2666 3584 2933 3390 
Q 3200 3197 3328 2828 
z
" transform="scale(0.015625)"/>
      </defs>
      <use xlink:href="#DejaVuSans-Oblique-65" transform="translate(0 0.015625)"/>
      <use xlink:href="#DejaVuSans-Oblique-78" transform="translate(61.523438 -16.390625)scale(0.7)"/>
      <use xlink:href="#DejaVuSans-20" transform="translate(105.683594 0.015625)"/>
      <use xlink:href="#DejaVuSans-5b" transform="translate(137.470703 0.015625)"/>
      <use xlink:href="#DejaVuSans-6d" transform="translate(176.484375 0.015625)"/>
      <use xlink:href="#DejaVuSans-5d" transform="translate(273.896484 0.015625)"/>
     </g>
    </g>
   </g>
   <g id="line2d_19">
    <path d="M 75.919364 30.614432 
L 83.413659 30.725988 
L 96.384555 31.22023 
L 106.473029 32.390714 
L 107.625998 32.552247 
L 110.508419 32.953176 
L 111.94963 33.22673 
L 112.526114 33.302872 
L 115.120293 33.740069 
L 115.98502 33.904869 
L 118.579199 34.35053 
L 119.155683 34.459333 
L 120.02041 34.635993 
L 122.038104 35.026164 
L 122.614589 35.145851 
L 123.479315 35.34188 
L 125.49701 35.771438 
L 126.361736 36.028425 
L 127.226463 36.157652 
L 128.379431 36.470483 
L 129.244158 36.655462 
L 131.550095 37.170683 
L 134.432516 37.906352 
L 135.873727 38.225194 
L 136.161969 38.371504 
L 136.450211 38.371504 
L 137.314937 38.607524 
L 138.179664 38.786049 
L 138.467906 38.965792 
L 139.332632 39.116454 
L 140.485601 39.480935 
L 142.503296 40.032088 
L 142.791538 40.032088 
L 143.368022 40.215896 
L 145.673959 40.794341 
L 147.691654 41.390404 
L 147.979896 41.390404 
L 148.844623 41.623378 
L 151.15056 42.194243 
L 152.015286 42.419223 
L 154.321223 42.943391 
L 155.185949 43.212674 
L 156.050676 43.346177 
L 157.203644 43.665106 
L 158.933097 44.035674 
L 159.509581 44.141086 
L 160.374308 44.350843 
L 162.392003 44.791001 
L 163.256729 45.047009 
L 164.121455 45.174434 
L 164.986182 45.428026 
L 165.850908 45.554024 
L 166.715635 45.803942 
L 167.580361 45.927727 
L 168.73333 46.221605 
L 169.886298 46.391247 
L 170.462782 46.559899 
L 172.768719 47.013774 
L 173.633446 47.250179 
L 174.498172 47.367694 
L 175.651141 47.648879 
L 176.515867 47.813383 
L 178.821804 48.285199 
L 181.127741 48.765122 
L 181.704225 48.853369 
L 184.586647 49.377743 
L 185.451373 49.554622 
L 188.045552 50.033853 
L 188.910279 50.201181 
L 191.7927 50.695788 
L 192.945668 50.929049 
L 195.82809 51.457975 
L 198.422269 51.90484 
L 200.439964 52.260404 
L 201.592932 52.498118 
L 204.475354 52.988005 
L 205.051838 53.131842 
L 207.646017 53.583063 
L 208.510743 53.75216 
L 211.393165 54.240736 
L 211.969649 54.385077 
L 214.85207 54.888287 
L 217.446249 55.384614 
L 218.022734 55.46722 
L 221.769881 56.10085 
L 226.093513 56.878021 
L 226.669998 56.956021 
L 230.417145 57.565838 
L 233.876051 58.160662 
L 237.334956 58.72582 
L 241.082104 59.34888 
L 244.829252 59.956415 
L 245.693978 60.126236 
L 248.864642 60.653157 
L 251.458821 61.067229 
L 254.053 61.455431 
L 254.629484 61.588738 
L 257.800148 62.122193 
L 260.106085 62.459812 
L 263.276748 62.94585 
L 266.447412 63.463121 
L 270.482801 64.065287 
L 271.63577 64.244629 
L 275.382918 64.817097 
L 279.130065 65.39638 
L 279.994792 65.499876 
L 284.606666 66.161083 
L 286.336119 66.42307 
L 289.795024 66.869808 
L 291.236235 67.113869 
L 292.100961 67.207886 
L 296.424593 67.77092 
L 300.748225 68.357038 
L 302.189436 68.531972 
L 306.224826 69.026593 
L 310.548457 69.58409 
L 312.27791 69.822004 
L 316.025058 70.298034 
L 322.078143 71.033597 
L 322.942869 71.163905 
L 326.113533 71.590588 
L 328.707712 71.91625 
L 329.572438 71.997365 
L 337.354976 72.984986 
L 338.219702 73.065153 
L 343.696302 73.722059 
L 350.325871 74.451825 
L 353.784777 74.815158 
L 369.349852 75.905997 
L 375.114695 76.116724 
L 380.303053 76.234854 
L 385.491411 76.276054 
L 399.615276 76.051738 
L 405.380118 75.954036 
L 417.77453 75.910162 
L 424.692341 76.121046 
L 432.186636 76.503068 
L 432.186636 76.503068 
" clip-path="url(#pf494760194)" style="fill: none; stroke: #ff0000; stroke-width: 1.5; stroke-linecap: square"/>
   </g>
   <g id="patch_3">
    <path d="M 58.106 78.7975 
L 58.106 28.32 
" style="fill: none; stroke: #000000; stroke-width: 0.8; stroke-linejoin: miter; stroke-linecap: square"/>
   </g>
   <g id="patch_4">
    <path d="M 450 78.7975 
L 450 28.32 
" style="fill: none; stroke: #000000; stroke-width: 0.8; stroke-linejoin: miter; stroke-linecap: square"/>
   </g>
   <g id="patch_5">
    <path d="M 58.106 78.7975 
L 450 78.7975 
" style="fill: none; stroke: #000000; stroke-width: 0.8; stroke-linejoin: miter; stroke-linecap: square"/>
   </g>
   <g id="patch_6">
    <path d="M 58.106 28.32 
L 450 28.32 
" style="fill: none; stroke: #000000; stroke-width: 0.8; stroke-linejoin: miter; stroke-linecap: square"/>
   </g>
   <g id="text_12">
    <!-- Error in $x$-position -->
    <g transform="translate(200.413 22.32)scale(0.12 -0.12)">
     <defs>
      <path id="DejaVuSans-45" d="M 628 4666 
L 3578 4666 
L 3578 4134 
L 1259 4134 
L 1259 2753 
L 3481 2753 
L 3481 2222 
L 1259 2222 
L 1259 531 
L 3634 531 
L 3634 0 
L 628 0 
L 628 4666 
z
" transform="scale(0.015625)"/>
      <path id="DejaVuSans-72" d="M 2631 2963 
Q 2534 3019 2420 3045 
Q 2306 3072 2169 3072 
Q 1681 3072 1420 2755 
Q 1159 2438 1159 1844 
L 1159 0 
L 581 0 
L 581 3500 
L 1159 3500 
L 1159 2956 
Q 1341 3275 1631 3429 
Q 1922 3584 2338 3584 
Q 2397 3584 2469 3576 
Q 2541 3569 2628 3553 
L 2631 2963 
z
" transform="scale(0.015625)"/>
      <path id="DejaVuSans-6f" d="M 1959 3097 
Q 1497 3097 1228 2736 
Q 959 2375 959 1747 
Q 959 1119 1226 758 
Q 1494 397 1959 397 
Q 2419 397 2687 759 
Q 2956 1122 2956 1747 
Q 2956 2369 2687 2733 
Q 2419 3097 1959 3097 
z
M 1959 3584 
Q 2709 3584 3137 3096 
Q 3566 2609 3566 1747 
Q 3566 888 3137 398 
Q 2709 -91 1959 -91 
Q 1206 -91 779 398 
Q 353 888 353 1747 
Q 353 2609 779 3096 
Q 1206 3584 1959 3584 
z
" transform="scale(0.015625)"/>
      <path id="DejaVuSans-69" d="M 603 3500 
L 1178 3500 
L 1178 0 
L 603 0 
L 603 3500 
z
M 603 4863 
L 1178 4863 
L 1178 4134 
L 603 4134 
L 603 4863 
z
" transform="scale(0.015625)"/>
      <path id="DejaVuSans-6e" d="M 3513 2113 
L 3513 0 
L 2938 0 
L 2938 2094 
Q 2938 2591 2744 2837 
Q 2550 3084 2163 3084 
Q 1697 3084 1428 2787 
Q 1159 2491 1159 1978 
L 1159 0 
L 581 0 
L 581 3500 
L 1159 3500 
L 1159 2956 
Q 1366 3272 1645 3428 
Q 1925 3584 2291 3584 
Q 2894 3584 3203 3211 
Q 3513 2838 3513 2113 
z
" transform="scale(0.015625)"/>
      <path id="DejaVuSans-2d" d="M 313 2009 
L 1997 2009 
L 1997 1497 
L 313 1497 
L 313 2009 
z
" transform="scale(0.015625)"/>
      <path id="DejaVuSans-70" d="M 1159 525 
L 1159 -1331 
L 581 -1331 
L 581 3500 
L 1159 3500 
L 1159 2969 
Q 1341 3281 1617 3432 
Q 1894 3584 2278 3584 
Q 2916 3584 3314 3078 
Q 3713 2572 3713 1747 
Q 3713 922 3314 415 
Q 2916 -91 2278 -91 
Q 1894 -91 1617 61 
Q 1341 213 1159 525 
z
M 3116 1747 
Q 3116 2381 2855 2742 
Q 2594 3103 2138 3103 
Q 1681 3103 1420 2742 
Q 1159 2381 1159 1747 
Q 1159 1113 1420 752 
Q 1681 391 2138 391 
Q 2594 391 2855 752 
Q 3116 1113 3116 1747 
z
" transform="scale(0.015625)"/>
      <path id="DejaVuSans-74" d="M 1172 4494 
L 1172 3500 
L 2356 3500 
L 2356 3053 
L 1172 3053 
L 1172 1153 
Q 1172 725 1289 603 
Q 1406 481 1766 481 
L 2356 481 
L 2356 0 
L 1766 0 
Q 1100 0 847 248 
Q 594 497 594 1153 
L 594 3053 
L 172 3053 
L 172 3500 
L 594 3500 
L 594 4494 
L 1172 4494 
z
" transform="scale(0.015625)"/>
     </defs>
     <use xlink:href="#DejaVuSans-45" transform="translate(0 0.015625)"/>
     <use xlink:href="#DejaVuSans-72" transform="translate(63.183594 0.015625)"/>
     <use xlink:href="#DejaVuSans-72" transform="translate(104.296875 0.015625)"/>
     <use xlink:href="#DejaVuSans-6f" transform="translate(145.410156 0.015625)"/>
     <use xlink:href="#DejaVuSans-72" transform="translate(206.591797 0.015625)"/>
     <use xlink:href="#DejaVuSans-20" transform="translate(247.705078 0.015625)"/>
     <use xlink:href="#DejaVuSans-69" transform="translate(279.492188 0.015625)"/>
     <use xlink:href="#DejaVuSans-6e" transform="translate(307.275391 0.015625)"/>
     <use xlink:href="#DejaVuSans-20" transform="translate(370.654297 0.015625)"/>
     <use xlink:href="#DejaVuSans-Oblique-78" transform="translate(402.441406 0.015625)"/>
     <use xlink:href="#DejaVuSans-2d" transform="translate(461.621094 0.015625)"/>
     <use xlink:href="#DejaVuSans-70" transform="translate(497.705078 0.015625)"/>
     <use xlink:href="#DejaVuSans-6f" transform="translate(561.181641 0.015625)"/>
     <use xlink:href="#DejaVuSans-73" transform="translate(622.363281 0.015625)"/>
     <use xlink:href="#DejaVuSans-69" transform="translate(674.462891 0.015625)"/>
     <use xlink:href="#DejaVuSans-74" transform="translate(702.246094 0.015625)"/>
     <use xlink:href="#DejaVuSans-69" transform="translate(741.455078 0.015625)"/>
     <use xlink:href="#DejaVuSans-6f" transform="translate(769.238281 0.015625)"/>
     <use xlink:href="#DejaVuSans-6e" transform="translate(830.419922 0.015625)"/>
    </g>
   </g>
  </g>
  <g id="axes_2">
   <g id="patch_7">
    <path d="M 58.106 190.3975 
L 450 190.3975 
L 450 139.92 
L 58.106 139.92 
z
" style="fill: #ffffff"/>
   </g>
   <g id="matplotlib.axis_3">
    <g id="xtick_8">
     <g id="line2d_20">
      <path d="M 75.919364 190.3975 
L 75.919364 139.92 
" clip-path="url(#pe280bc4f4a)" style="fill: none; stroke: #b0b0b0; stroke-width: 0.8; stroke-linecap: square"/>
     </g>
     <g id="line2d_21">
      <g>
       <use xlink:href="#m777a3f5d1b" x="75.919364" y="190.3975" style="stroke: #000000; stroke-width: 0.8"/>
      </g>
     </g>
     <g id="text_13">
      <!-- 0 -->
      <g transform="translate(72.738114 204.995937)scale(0.1 -0.1)">
       <use xlink:href="#DejaVuSans-30"/>
      </g>
     </g>
    </g>
    <g id="xtick_9">
     <g id="line2d_22">
      <path d="M 133.521186 190.3975 
L 133.521186 139.92 
" clip-path="url(#pe280bc4f4a)" style="fill: none; stroke: #b0b0b0; stroke-width: 0.8; stroke-linecap: square"/>
     </g>
     <g id="line2d_23">
      <g>
       <use xlink:href="#m777a3f5d1b" x="133.521186" y="190.3975" style="stroke: #000000; stroke-width: 0.8"/>
      </g>
     </g>
     <g id="text_14">
      <!-- 2 -->
      <g transform="translate(130.339936 204.995937)scale(0.1 -0.1)">
       <use xlink:href="#DejaVuSans-32"/>
      </g>
     </g>
    </g>
    <g id="xtick_10">
     <g id="line2d_24">
      <path d="M 191.123009 190.3975 
L 191.123009 139.92 
" clip-path="url(#pe280bc4f4a)" style="fill: none; stroke: #b0b0b0; stroke-width: 0.8; stroke-linecap: square"/>
     </g>
     <g id="line2d_25">
      <g>
       <use xlink:href="#m777a3f5d1b" x="191.123009" y="190.3975" style="stroke: #000000; stroke-width: 0.8"/>
      </g>
     </g>
     <g id="text_15">
      <!-- 4 -->
      <g transform="translate(187.941759 204.995937)scale(0.1 -0.1)">
       <use xlink:href="#DejaVuSans-34"/>
      </g>
     </g>
    </g>
    <g id="xtick_11">
     <g id="line2d_26">
      <path d="M 248.724831 190.3975 
L 248.724831 139.92 
" clip-path="url(#pe280bc4f4a)" style="fill: none; stroke: #b0b0b0; stroke-width: 0.8; stroke-linecap: square"/>
     </g>
     <g id="line2d_27">
      <g>
       <use xlink:href="#m777a3f5d1b" x="248.724831" y="190.3975" style="stroke: #000000; stroke-width: 0.8"/>
      </g>
     </g>
     <g id="text_16">
      <!-- 6 -->
      <g transform="translate(245.543581 204.995937)scale(0.1 -0.1)">
       <use xlink:href="#DejaVuSans-36"/>
      </g>
     </g>
    </g>
    <g id="xtick_12">
     <g id="line2d_28">
      <path d="M 306.326654 190.3975 
L 306.326654 139.92 
" clip-path="url(#pe280bc4f4a)" style="fill: none; stroke: #b0b0b0; stroke-width: 0.8; stroke-linecap: square"/>
     </g>
     <g id="line2d_29">
      <g>
       <use xlink:href="#m777a3f5d1b" x="306.326654" y="190.3975" style="stroke: #000000; stroke-width: 0.8"/>
      </g>
     </g>
     <g id="text_17">
      <!-- 8 -->
      <g transform="translate(303.145404 204.995937)scale(0.1 -0.1)">
       <use xlink:href="#DejaVuSans-38"/>
      </g>
     </g>
    </g>
    <g id="xtick_13">
     <g id="line2d_30">
      <path d="M 363.928477 190.3975 
L 363.928477 139.92 
" clip-path="url(#pe280bc4f4a)" style="fill: none; stroke: #b0b0b0; stroke-width: 0.8; stroke-linecap: square"/>
     </g>
     <g id="line2d_31">
      <g>
       <use xlink:href="#m777a3f5d1b" x="363.928477" y="190.3975" style="stroke: #000000; stroke-width: 0.8"/>
      </g>
     </g>
     <g id="text_18">
      <!-- 10 -->
      <g transform="translate(357.565977 204.995937)scale(0.1 -0.1)">
       <use xlink:href="#DejaVuSans-31"/>
       <use xlink:href="#DejaVuSans-30" x="63.623047"/>
      </g>
     </g>
    </g>
    <g id="xtick_14">
     <g id="line2d_32">
      <path d="M 421.530299 190.3975 
L 421.530299 139.92 
" clip-path="url(#pe280bc4f4a)" style="fill: none; stroke: #b0b0b0; stroke-width: 0.8; stroke-linecap: square"/>
     </g>
     <g id="line2d_33">
      <g>
       <use xlink:href="#m777a3f5d1b" x="421.530299" y="190.3975" style="stroke: #000000; stroke-width: 0.8"/>
      </g>
     </g>
     <g id="text_19">
      <!-- 12 -->
      <g transform="translate(415.167799 204.995937)scale(0.1 -0.1)">
       <use xlink:href="#DejaVuSans-31"/>
       <use xlink:href="#DejaVuSans-32" x="63.623047"/>
      </g>
     </g>
    </g>
    <g id="text_20">
     <!-- $t$ [s] -->
     <g transform="translate(243.953 218.674062)scale(0.1 -0.1)">
      <use xlink:href="#DejaVuSans-Oblique-74" transform="translate(0 0.015625)"/>
      <use xlink:href="#DejaVuSans-20" transform="translate(39.208984 0.015625)"/>
      <use xlink:href="#DejaVuSans-5b" transform="translate(70.996094 0.015625)"/>
      <use xlink:href="#DejaVuSans-73" transform="translate(110.009766 0.015625)"/>
      <use xlink:href="#DejaVuSans-5d" transform="translate(162.109375 0.015625)"/>
     </g>
    </g>
   </g>
   <g id="matplotlib.axis_4">
    <g id="ytick_3">
     <g id="line2d_34">
      <path d="M 58.106 178.521101 
L 450 178.521101 
" clip-path="url(#pe280bc4f4a)" style="fill: none; stroke: #b0b0b0; stroke-width: 0.8; stroke-linecap: square"/>
     </g>
     <g id="line2d_35">
      <g>
       <use xlink:href="#m088aacd8e9" x="58.106" y="178.521101" style="stroke: #000000; stroke-width: 0.8"/>
      </g>
     </g>
     <g id="text_21">
      <!-- −0.1 -->
      <g transform="translate(26.823188 182.32032)scale(0.1 -0.1)">
       <defs>
        <path id="DejaVuSans-2212" d="M 678 2272 
L 4684 2272 
L 4684 1741 
L 678 1741 
L 678 2272 
z
" transform="scale(0.015625)"/>
        <path id="DejaVuSans-2e" d="M 684 794 
L 1344 794 
L 1344 0 
L 684 0 
L 684 794 
z
" transform="scale(0.015625)"/>
       </defs>
       <use xlink:href="#DejaVuSans-2212"/>
       <use xlink:href="#DejaVuSans-30" x="83.789062"/>
       <use xlink:href="#DejaVuSans-2e" x="147.412109"/>
       <use xlink:href="#DejaVuSans-31" x="179.199219"/>
      </g>
     </g>
    </g>
    <g id="ytick_4">
     <g id="line2d_36">
      <path d="M 58.106 164.525352 
L 450 164.525352 
" clip-path="url(#pe280bc4f4a)" style="fill: none; stroke: #b0b0b0; stroke-width: 0.8; stroke-linecap: square"/>
     </g>
     <g id="line2d_37">
      <g>
       <use xlink:href="#m088aacd8e9" x="58.106" y="164.525352" style="stroke: #000000; stroke-width: 0.8"/>
      </g>
     </g>
     <g id="text_22">
      <!-- 0.0 -->
      <g transform="translate(35.202875 168.324571)scale(0.1 -0.1)">
       <use xlink:href="#DejaVuSans-30"/>
       <use xlink:href="#DejaVuSans-2e" x="63.623047"/>
       <use xlink:href="#DejaVuSans-30" x="95.410156"/>
      </g>
     </g>
    </g>
    <g id="ytick_5">
     <g id="line2d_38">
      <path d="M 58.106 150.529603 
L 450 150.529603 
" clip-path="url(#pe280bc4f4a)" style="fill: none; stroke: #b0b0b0; stroke-width: 0.8; stroke-linecap: square"/>
     </g>
     <g id="line2d_39">
      <g>
       <use xlink:href="#m088aacd8e9" x="58.106" y="150.529603" style="stroke: #000000; stroke-width: 0.8"/>
      </g>
     </g>
     <g id="text_23">
      <!-- 0.1 -->
      <g transform="translate(35.202875 154.328821)scale(0.1 -0.1)">
       <use xlink:href="#DejaVuSans-30"/>
       <use xlink:href="#DejaVuSans-2e" x="63.623047"/>
       <use xlink:href="#DejaVuSans-31" x="95.410156"/>
      </g>
     </g>
    </g>
    <g id="text_24">
     <!-- $e_z$ [m] -->
     <g transform="translate(20.7435 180.60875)rotate(-90)scale(0.1 -0.1)">
      <defs>
       <path id="DejaVuSans-Oblique-7a" d="M 744 3500 
L 3475 3500 
L 3372 2975 
L 738 459 
L 2913 459 
L 2822 0 
L -19 0 
L 84 525 
L 2719 3041 
L 653 3041 
L 744 3500 
z
" transform="scale(0.015625)"/>
      </defs>
      <use xlink:href="#DejaVuSans-Oblique-65" transform="translate(0 0.015625)"/>
      <use xlink:href="#DejaVuSans-Oblique-7a" transform="translate(61.523438 -16.390625)scale(0.7)"/>
      <use xlink:href="#DejaVuSans-20" transform="translate(101.000977 0.015625)"/>
      <use xlink:href="#DejaVuSans-5b" transform="translate(132.788086 0.015625)"/>
      <use xlink:href="#DejaVuSans-6d" transform="translate(171.801758 0.015625)"/>
      <use xlink:href="#DejaVuSans-5d" transform="translate(269.213867 0.015625)"/>
     </g>
    </g>
   </g>
   <g id="line2d_40">
    <path d="M 75.919364 165.841578 
L 76.207606 165.59535 
L 76.495848 165.59535 
L 77.072332 165.152649 
L 77.648816 164.83451 
L 77.937059 164.461071 
L 78.225301 164.461071 
L 78.513543 164.201526 
L 79.090027 163.992941 
L 79.666511 163.81931 
L 80.531238 163.848002 
L 82.26069 164.200255 
L 82.837175 164.094723 
L 83.701901 163.785716 
L 83.990143 163.637702 
L 84.278385 163.181793 
L 84.566628 163.181793 
L 84.85487 162.749887 
L 85.719596 162.061391 
L 86.007838 161.640679 
L 86.29608 161.640679 
L 86.584322 161.128503 
L 87.160807 160.92308 
L 87.737291 160.609284 
L 88.313775 160.162851 
L 89.178502 159.537098 
L 89.466744 159.279464 
L 89.754986 158.84378 
L 90.043228 158.169694 
L 90.907954 156.986323 
L 91.196197 155.932054 
L 91.484439 155.932054 
L 91.772681 155.087571 
L 92.925649 153.388111 
L 93.213891 152.798322 
L 94.36686 151.916928 
L 94.655102 151.726795 
L 96.672797 151.806742 
L 98.690492 152.187556 
L 100.131703 152.50184 
L 100.708187 152.680731 
L 102.725882 152.991734 
L 103.302366 152.948983 
L 104.743577 152.434101 
L 106.184787 151.205807 
L 106.761272 150.337562 
L 107.049514 150.337562 
L 107.337756 149.830815 
L 108.202482 149.025499 
L 108.490724 148.659235 
L 108.778966 148.659235 
L 109.067209 148.374807 
L 111.661388 147.302503 
L 111.94963 147.086746 
L 112.237872 147.086746 
L 112.814356 146.584729 
L 113.390841 146.140282 
L 113.679083 145.808551 
L 113.967325 145.808551 
L 114.255567 145.520044 
L 115.98502 144.85029 
L 117.137988 144.520418 
L 117.714472 144.198187 
L 118.579199 143.774935 
L 118.867441 143.369465 
L 119.155683 143.369465 
L 119.443925 143.053584 
L 121.173378 142.287724 
L 122.326347 142.239341 
L 123.767557 142.338293 
L 126.938221 142.641043 
L 128.091189 142.982805 
L 129.244158 143.221753 
L 131.261853 143.580424 
L 131.838337 143.791492 
L 132.126579 144.022281 
L 132.414821 144.022281 
L 132.991305 144.475306 
L 133.56779 144.942681 
L 133.856032 145.363531 
L 135.009 146.381909 
L 135.297242 146.71964 
L 135.873727 147.046987 
L 136.161969 147.561734 
L 136.450211 147.561734 
L 136.738453 147.944171 
L 138.179664 148.80192 
L 138.467906 149.290859 
L 139.04439 149.545825 
L 139.332632 149.723488 
L 139.909117 150.307105 
L 140.773843 151.317056 
L 141.062085 151.317056 
L 141.350327 151.796018 
L 141.926811 152.387644 
L 142.503296 153.045674 
L 142.791538 153.045674 
L 143.07978 153.434833 
L 143.944506 154.006018 
L 144.520991 154.405056 
L 145.962201 155.10097 
L 146.538685 155.559304 
L 147.403412 156.08347 
L 147.691654 156.551301 
L 147.979896 156.551301 
L 148.268138 156.925553 
L 150.574075 158.282796 
L 152.59177 158.990223 
L 152.880012 159.297403 
L 153.168254 159.297403 
L 153.744739 159.791766 
L 154.321223 160.196774 
L 155.185949 161.374598 
L 155.474192 161.497341 
L 156.050676 161.986618 
L 156.338918 162.470004 
L 156.915402 163.070491 
L 157.491886 163.801008 
L 157.780129 163.801008 
L 158.644855 165.108315 
L 159.221339 165.39175 
L 160.66255 167.441522 
L 160.950792 167.783931 
L 162.103761 169.69821 
L 162.392003 170.038027 
L 162.680245 170.698134 
L 162.968487 170.698134 
L 163.256729 171.62367 
L 163.544971 171.769559 
L 164.121455 172.329112 
L 164.409698 172.852535 
L 164.69794 172.852535 
L 164.986182 173.595833 
L 165.274424 173.717828 
L 165.850908 174.207505 
L 166.13915 174.708069 
L 166.427392 174.708069 
L 166.715635 175.480772 
L 167.003877 175.611058 
L 167.580361 176.135095 
L 167.868603 176.66567 
L 168.445087 177.330792 
L 168.73333 177.723768 
L 169.021572 177.85297 
L 169.309814 178.10775 
L 169.598056 178.59851 
L 169.886298 178.59851 
L 170.17454 179.266079 
L 170.751024 179.559576 
L 171.039267 179.738073 
L 171.327509 180.050343 
L 171.615751 180.050343 
L 171.903993 180.394381 
L 173.633446 180.575905 
L 175.362898 180.54812 
L 176.515867 181.025239 
L 177.092351 181.370835 
L 177.380593 181.571051 
L 177.957078 181.749531 
L 178.533562 182.000574 
L 179.110046 182.070961 
L 179.68653 182.036253 
L 181.127741 181.61477 
L 182.857194 181.665276 
L 183.72192 182.020387 
L 185.451373 182.548176 
L 186.316099 182.519627 
L 188.045552 182.016647 
L 188.622036 181.814567 
L 189.775005 181.641152 
L 190.351489 181.718047 
L 190.927974 181.929994 
L 191.504458 182.16374 
L 191.7927 182.290563 
L 192.080942 182.542762 
L 192.369184 182.542762 
L 192.657426 182.861869 
L 194.386879 183.050346 
L 196.116332 182.68976 
L 196.981058 182.514605 
L 197.557543 182.466183 
L 198.710511 182.764587 
L 199.86348 183.752775 
L 200.439964 184.038414 
L 200.728206 184.399183 
L 201.016448 184.399183 
L 201.30469 184.846216 
L 203.898869 185.289558 
L 205.34008 185.22972 
L 206.204806 185.347613 
L 207.069533 185.680951 
L 207.646017 185.961776 
L 208.222501 186.294706 
L 209.663712 186.692877 
L 210.528438 186.68944 
L 211.393165 186.540248 
L 211.681407 186.328765 
L 212.546133 186.150456 
L 213.122618 186.053289 
L 213.987344 186.117978 
L 214.275586 186.187814 
L 215.428555 186.816447 
L 216.005039 186.971829 
L 216.581523 187.210841 
L 217.158007 187.306079 
L 218.310976 187.152186 
L 220.328671 186.530277 
L 221.193397 186.516811 
L 222.92285 187.109764 
L 223.499334 187.413544 
L 224.652303 187.704244 
L 225.228787 187.712177 
L 226.95824 187.289895 
L 228.687693 186.970313 
L 229.264177 187.039281 
L 231.281872 187.789901 
L 231.570114 187.789901 
L 232.146598 187.957423 
L 233.011325 187.953671 
L 234.452535 187.655032 
L 235.029019 187.423624 
L 236.47023 187.108515 
L 237.334956 187.164236 
L 238.776167 187.647557 
L 240.50562 188.103068 
L 241.658588 187.992531 
L 242.523315 187.789868 
L 244.252768 187.527704 
L 245.405736 187.57954 
L 247.423431 187.912457 
L 249.729368 187.839672 
L 251.747063 187.750635 
L 256.358937 186.331641 
L 257.223663 186.433535 
L 259.5296 186.769712 
L 260.682569 186.508785 
L 261.547295 186.174237 
L 261.835538 185.985601 
L 262.12378 185.985601 
L 262.700264 185.710405 
L 264.717959 185.127923 
L 265.294443 185.154645 
L 267.023896 185.54326 
L 267.60038 185.648319 
L 268.753349 185.590902 
L 269.906317 185.241455 
L 270.482801 185.021474 
L 271.059286 184.745195 
L 273.076981 184.187283 
L 273.941707 184.252904 
L 274.806433 184.462785 
L 276.535886 184.711445 
L 277.400613 184.579721 
L 278.265339 184.238923 
L 278.841823 183.980106 
L 279.130065 183.769614 
L 279.418307 183.769614 
L 279.994792 183.440029 
L 281.724244 182.820565 
L 282.588971 182.853499 
L 283.741939 183.163282 
L 285.471392 183.479767 
L 286.047876 183.3883 
L 286.912603 183.020748 
L 287.489087 182.716205 
L 287.777329 182.472959 
L 288.065571 182.472959 
L 288.642056 182.122031 
L 289.21854 181.814528 
L 290.947993 181.594647 
L 293.25393 182.273885 
L 294.406898 182.283714 
L 294.983382 182.138006 
L 295.559867 181.833687 
L 296.424593 181.347879 
L 297.001077 181.03249 
L 297.865804 180.808936 
L 298.442288 180.607348 
L 299.307014 180.537699 
L 300.171741 180.680775 
L 301.612951 181.07369 
L 302.477678 181.139012 
L 303.630646 180.903518 
L 304.495373 180.588818 
L 305.936583 180.249072 
L 307.377794 180.306424 
L 310.548457 180.784676 
L 311.701426 180.717786 
L 314.583847 180.081126 
L 316.3133 180.013818 
L 317.178026 180.156972 
L 318.042753 180.404605 
L 320.060448 180.746061 
L 320.925174 180.651252 
L 321.789901 180.405329 
L 325.248806 179.656684 
L 325.82529 179.749367 
L 328.707712 180.585402 
L 329.86068 180.528506 
L 332.166617 180.084935 
L 332.743102 180.006134 
L 333.89607 179.981358 
L 334.472554 180.088081 
L 335.049039 180.28943 
L 335.625523 180.480965 
L 336.490249 180.87675 
L 337.354976 181.173588 
L 338.796186 181.09259 
L 341.678608 180.359098 
L 342.543334 180.364941 
L 343.696302 180.688241 
L 344.272787 180.980528 
L 344.849271 181.354196 
L 346.290482 181.852551 
L 346.866966 181.918083 
L 348.019934 181.735191 
L 348.884661 181.417508 
L 349.749387 181.229547 
L 350.325871 181.127864 
L 351.190598 181.216008 
L 351.767082 181.448801 
L 352.343566 181.722687 
L 352.920051 182.114229 
L 353.208293 182.114229 
L 353.784777 182.525448 
L 355.225988 183.068845 
L 356.090714 183.057817 
L 358.108409 182.506638 
L 360.126104 182.44051 
L 361.279072 182.46917 
L 362.143799 182.257174 
L 363.585009 181.449964 
L 364.161494 180.909179 
L 364.737978 180.644211 
L 365.314462 180.135069 
L 365.890946 179.934038 
L 367.620399 179.558231 
L 368.196883 179.453708 
L 369.926336 178.270967 
L 370.214578 177.806338 
L 370.502821 177.806338 
L 370.791063 177.145651 
L 371.367547 176.859492 
L 372.808758 176.124295 
L 373.961726 176.095585 
L 375.114695 176.003065 
L 375.402937 175.842868 
L 375.691179 175.842868 
L 375.979421 175.436835 
L 376.555905 175.165324 
L 376.844147 174.967879 
L 377.13239 174.563047 
L 378.5736 173.701705 
L 379.150084 173.481865 
L 380.014811 173.418235 
L 380.879537 173.409057 
L 382.60899 172.754591 
L 382.897232 172.198181 
L 383.473716 171.913343 
L 384.626685 171.223554 
L 385.491411 171.240496 
L 386.64438 171.72172 
L 388.08559 171.788524 
L 388.950317 171.486161 
L 390.391528 169.963387 
L 390.67977 169.963387 
L 390.968012 169.568328 
L 392.12098 168.953242 
L 392.985707 168.870096 
L 395.003402 169.254574 
L 395.868128 169.116109 
L 396.15637 168.8221 
L 396.444612 168.8221 
L 397.021096 168.267222 
L 397.885823 167.475198 
L 398.174065 167.043013 
L 399.327034 166.382524 
L 399.903518 166.110941 
L 401.056486 166.100106 
L 402.497697 166.213418 
L 403.074181 166.09588 
L 405.66836 164.384506 
L 406.533087 164.239299 
L 406.821329 164.239299 
L 407.686055 164.651123 
L 407.974297 164.850269 
L 408.550782 165.033148 
L 409.127266 165.282715 
L 409.70375 165.321541 
L 410.280234 165.252141 
L 410.568477 165.064464 
L 410.856719 165.064464 
L 411.144961 164.596525 
L 411.721445 164.30906 
L 412.009687 164.115772 
L 412.297929 163.747303 
L 412.586172 163.747303 
L 412.874414 163.270202 
L 414.892109 162.924794 
L 415.468593 163.006366 
L 416.333319 163.349584 
L 416.909803 163.446009 
L 417.486288 163.439513 
L 418.062772 163.275745 
L 420.656951 161.769562 
L 421.521678 161.736167 
L 422.962888 162.141474 
L 423.539372 162.245626 
L 424.404099 162.143116 
L 424.980583 161.897574 
L 425.557067 161.441396 
L 425.84531 161.441396 
L 426.421794 160.847447 
L 426.710036 160.623076 
L 427.28652 160.417167 
L 428.727731 159.885613 
L 429.304215 159.903175 
L 430.168941 160.317177 
L 430.745426 160.81213 
L 431.033668 160.81213 
L 431.32191 161.171853 
L 432.186636 161.780017 
L 432.186636 161.780017 
" clip-path="url(#pe280bc4f4a)" style="fill: none; stroke: #0000ff; stroke-width: 1.5; stroke-linecap: square"/>
   </g>
   <g id="patch_8">
    <path d="M 58.106 190.3975 
L 58.106 139.92 
" style="fill: none; stroke: #000000; stroke-width: 0.8; stroke-linejoin: miter; stroke-linecap: square"/>
   </g>
   <g id="patch_9">
    <path d="M 450 190.3975 
L 450 139.92 
" style="fill: none; stroke: #000000; stroke-width: 0.8; stroke-linejoin: miter; stroke-linecap: square"/>
   </g>
   <g id="patch_10">
    <path d="M 58.106 190.3975 
L 450 190.3975 
" style="fill: none; stroke: #000000; stroke-width: 0.8; stroke-linejoin: miter; stroke-linecap: square"/>
   </g>
   <g id="patch_11">
    <path d="M 58.106 139.92 
L 450 139.92 
" style="fill: none; stroke: #000000; stroke-width: 0.8; stroke-linejoin: miter; stroke-linecap: square"/>
   </g>
   <g id="text_25">
    <!-- Error in $z$-position -->
    <g transform="translate(200.773 133.92)scale(0.12 -0.12)">
     <use xlink:href="#DejaVuSans-45" transform="translate(0 0.015625)"/>
     <use xlink:href="#DejaVuSans-72" transform="translate(63.183594 0.015625)"/>
     <use xlink:href="#DejaVuSans-72" transform="translate(104.296875 0.015625)"/>
     <use xlink:href="#DejaVuSans-6f" transform="translate(145.410156 0.015625)"/>
     <use xlink:href="#DejaVuSans-72" transform="translate(206.591797 0.015625)"/>
     <use xlink:href="#DejaVuSans-20" transform="translate(247.705078 0.015625)"/>
     <use xlink:href="#DejaVuSans-69" transform="translate(279.492188 0.015625)"/>
     <use xlink:href="#DejaVuSans-6e" transform="translate(307.275391 0.015625)"/>
     <use xlink:href="#DejaVuSans-20" transform="translate(370.654297 0.015625)"/>
     <use xlink:href="#DejaVuSans-Oblique-7a" transform="translate(402.441406 0.015625)"/>
     <use xlink:href="#DejaVuSans-2d" transform="translate(454.931641 0.015625)"/>
     <use xlink:href="#DejaVuSans-70" transform="translate(491.015625 0.015625)"/>
     <use xlink:href="#DejaVuSans-6f" transform="translate(554.492188 0.015625)"/>
     <use xlink:href="#DejaVuSans-73" transform="translate(615.673828 0.015625)"/>
     <use xlink:href="#DejaVuSans-69" transform="translate(667.773438 0.015625)"/>
     <use xlink:href="#DejaVuSans-74" transform="translate(695.556641 0.015625)"/>
     <use xlink:href="#DejaVuSans-69" transform="translate(734.765625 0.015625)"/>
     <use xlink:href="#DejaVuSans-6f" transform="translate(762.548828 0.015625)"/>
     <use xlink:href="#DejaVuSans-6e" transform="translate(823.730469 0.015625)"/>
    </g>
   </g>
  </g>
  <g id="axes_3">
   <g id="patch_12">
    <path d="M 58.106 301.9975 
L 450 301.9975 
L 450 251.52 
L 58.106 251.52 
z
" style="fill: #ffffff"/>
   </g>
   <g id="matplotlib.axis_5">
    <g id="xtick_15">
     <g id="line2d_41">
      <path d="M 75.919364 301.9975 
L 75.919364 251.52 
" clip-path="url(#p23ece4fa76)" style="fill: none; stroke: #b0b0b0; stroke-width: 0.8; stroke-linecap: square"/>
     </g>
     <g id="line2d_42">
      <g>
       <use xlink:href="#m777a3f5d1b" x="75.919364" y="301.9975" style="stroke: #000000; stroke-width: 0.8"/>
      </g>
     </g>
     <g id="text_26">
      <!-- 0 -->
      <g transform="translate(72.738114 316.595937)scale(0.1 -0.1)">
       <use xlink:href="#DejaVuSans-30"/>
      </g>
     </g>
    </g>
    <g id="xtick_16">
     <g id="line2d_43">
      <path d="M 133.521186 301.9975 
L 133.521186 251.52 
" clip-path="url(#p23ece4fa76)" style="fill: none; stroke: #b0b0b0; stroke-width: 0.8; stroke-linecap: square"/>
     </g>
     <g id="line2d_44">
      <g>
       <use xlink:href="#m777a3f5d1b" x="133.521186" y="301.9975" style="stroke: #000000; stroke-width: 0.8"/>
      </g>
     </g>
     <g id="text_27">
      <!-- 2 -->
      <g transform="translate(130.339936 316.595937)scale(0.1 -0.1)">
       <use xlink:href="#DejaVuSans-32"/>
      </g>
     </g>
    </g>
    <g id="xtick_17">
     <g id="line2d_45">
      <path d="M 191.123009 301.9975 
L 191.123009 251.52 
" clip-path="url(#p23ece4fa76)" style="fill: none; stroke: #b0b0b0; stroke-width: 0.8; stroke-linecap: square"/>
     </g>
     <g id="line2d_46">
      <g>
       <use xlink:href="#m777a3f5d1b" x="191.123009" y="301.9975" style="stroke: #000000; stroke-width: 0.8"/>
      </g>
     </g>
     <g id="text_28">
      <!-- 4 -->
      <g transform="translate(187.941759 316.595937)scale(0.1 -0.1)">
       <use xlink:href="#DejaVuSans-34"/>
      </g>
     </g>
    </g>
    <g id="xtick_18">
     <g id="line2d_47">
      <path d="M 248.724831 301.9975 
L 248.724831 251.52 
" clip-path="url(#p23ece4fa76)" style="fill: none; stroke: #b0b0b0; stroke-width: 0.8; stroke-linecap: square"/>
     </g>
     <g id="line2d_48">
      <g>
       <use xlink:href="#m777a3f5d1b" x="248.724831" y="301.9975" style="stroke: #000000; stroke-width: 0.8"/>
      </g>
     </g>
     <g id="text_29">
      <!-- 6 -->
      <g transform="translate(245.543581 316.595937)scale(0.1 -0.1)">
       <use xlink:href="#DejaVuSans-36"/>
      </g>
     </g>
    </g>
    <g id="xtick_19">
     <g id="line2d_49">
      <path d="M 306.326654 301.9975 
L 306.326654 251.52 
" clip-path="url(#p23ece4fa76)" style="fill: none; stroke: #b0b0b0; stroke-width: 0.8; stroke-linecap: square"/>
     </g>
     <g id="line2d_50">
      <g>
       <use xlink:href="#m777a3f5d1b" x="306.326654" y="301.9975" style="stroke: #000000; stroke-width: 0.8"/>
      </g>
     </g>
     <g id="text_30">
      <!-- 8 -->
      <g transform="translate(303.145404 316.595937)scale(0.1 -0.1)">
       <use xlink:href="#DejaVuSans-38"/>
      </g>
     </g>
    </g>
    <g id="xtick_20">
     <g id="line2d_51">
      <path d="M 363.928477 301.9975 
L 363.928477 251.52 
" clip-path="url(#p23ece4fa76)" style="fill: none; stroke: #b0b0b0; stroke-width: 0.8; stroke-linecap: square"/>
     </g>
     <g id="line2d_52">
      <g>
       <use xlink:href="#m777a3f5d1b" x="363.928477" y="301.9975" style="stroke: #000000; stroke-width: 0.8"/>
      </g>
     </g>
     <g id="text_31">
      <!-- 10 -->
      <g transform="translate(357.565977 316.595937)scale(0.1 -0.1)">
       <use xlink:href="#DejaVuSans-31"/>
       <use xlink:href="#DejaVuSans-30" x="63.623047"/>
      </g>
     </g>
    </g>
    <g id="xtick_21">
     <g id="line2d_53">
      <path d="M 421.530299 301.9975 
L 421.530299 251.52 
" clip-path="url(#p23ece4fa76)" style="fill: none; stroke: #b0b0b0; stroke-width: 0.8; stroke-linecap: square"/>
     </g>
     <g id="line2d_54">
      <g>
       <use xlink:href="#m777a3f5d1b" x="421.530299" y="301.9975" style="stroke: #000000; stroke-width: 0.8"/>
      </g>
     </g>
     <g id="text_32">
      <!-- 12 -->
      <g transform="translate(415.167799 316.595937)scale(0.1 -0.1)">
       <use xlink:href="#DejaVuSans-31"/>
       <use xlink:href="#DejaVuSans-32" x="63.623047"/>
      </g>
     </g>
    </g>
    <g id="text_33">
     <!-- $t$ [s] -->
     <g transform="translate(243.953 330.274063)scale(0.1 -0.1)">
      <use xlink:href="#DejaVuSans-Oblique-74" transform="translate(0 0.015625)"/>
      <use xlink:href="#DejaVuSans-20" transform="translate(39.208984 0.015625)"/>
      <use xlink:href="#DejaVuSans-5b" transform="translate(70.996094 0.015625)"/>
      <use xlink:href="#DejaVuSans-73" transform="translate(110.009766 0.015625)"/>
      <use xlink:href="#DejaVuSans-5d" transform="translate(162.109375 0.015625)"/>
     </g>
    </g>
   </g>
   <g id="matplotlib.axis_6">
    <g id="ytick_6">
     <g id="line2d_55">
      <path d="M 58.106 293.277086 
L 450 293.277086 
" clip-path="url(#p23ece4fa76)" style="fill: none; stroke: #b0b0b0; stroke-width: 0.8; stroke-linecap: square"/>
     </g>
     <g id="line2d_56">
      <g>
       <use xlink:href="#m088aacd8e9" x="58.106" y="293.277086" style="stroke: #000000; stroke-width: 0.8"/>
      </g>
     </g>
     <g id="text_34">
      <!-- −0.1 -->
      <g transform="translate(26.823188 297.076304)scale(0.1 -0.1)">
       <use xlink:href="#DejaVuSans-2212"/>
       <use xlink:href="#DejaVuSans-30" x="83.789062"/>
       <use xlink:href="#DejaVuSans-2e" x="147.412109"/>
       <use xlink:href="#DejaVuSans-31" x="179.199219"/>
      </g>
     </g>
    </g>
    <g id="ytick_7">
     <g id="line2d_57">
      <path d="M 58.106 276.560681 
L 450 276.560681 
" clip-path="url(#p23ece4fa76)" style="fill: none; stroke: #b0b0b0; stroke-width: 0.8; stroke-linecap: square"/>
     </g>
     <g id="line2d_58">
      <g>
       <use xlink:href="#m088aacd8e9" x="58.106" y="276.560681" style="stroke: #000000; stroke-width: 0.8"/>
      </g>
     </g>
     <g id="text_35">
      <!-- 0.0 -->
      <g transform="translate(35.202875 280.359899)scale(0.1 -0.1)">
       <use xlink:href="#DejaVuSans-30"/>
       <use xlink:href="#DejaVuSans-2e" x="63.623047"/>
       <use xlink:href="#DejaVuSans-30" x="95.410156"/>
      </g>
     </g>
    </g>
    <g id="ytick_8">
     <g id="line2d_59">
      <path d="M 58.106 259.844275 
L 450 259.844275 
" clip-path="url(#p23ece4fa76)" style="fill: none; stroke: #b0b0b0; stroke-width: 0.8; stroke-linecap: square"/>
     </g>
     <g id="line2d_60">
      <g>
       <use xlink:href="#m088aacd8e9" x="58.106" y="259.844275" style="stroke: #000000; stroke-width: 0.8"/>
      </g>
     </g>
     <g id="text_36">
      <!-- 0.1 -->
      <g transform="translate(35.202875 263.643494)scale(0.1 -0.1)">
       <use xlink:href="#DejaVuSans-30"/>
       <use xlink:href="#DejaVuSans-2e" x="63.623047"/>
       <use xlink:href="#DejaVuSans-31" x="95.410156"/>
      </g>
     </g>
    </g>
    <g id="text_37">
     <!-- $e_\theta$ [rad] -->
     <g transform="translate(20.7435 295.90875)rotate(-90)scale(0.1 -0.1)">
      <defs>
       <path id="DejaVuSans-Oblique-3b8" d="M 2913 2219 
L 925 2219 
Q 791 1284 928 888 
Q 1100 400 1566 400 
Q 2034 400 2391 891 
Q 2703 1322 2913 2219 
z
M 3009 2750 
Q 3094 3638 2984 3950 
Q 2813 4444 2353 4444 
Q 1875 4444 1525 3956 
Q 1250 3563 1034 2750 
L 3009 2750 
z
M 2444 4913 
Q 3194 4913 3494 4250 
Q 3794 3591 3566 2422 
Q 3341 1256 2781 594 
Q 2225 -72 1475 -72 
Q 722 -72 425 594 
Q 128 1256 353 2422 
Q 581 3591 1134 4250 
Q 1691 4913 2444 4913 
z
" transform="scale(0.015625)"/>
       <path id="DejaVuSans-61" d="M 2194 1759 
Q 1497 1759 1228 1600 
Q 959 1441 959 1056 
Q 959 750 1161 570 
Q 1363 391 1709 391 
Q 2188 391 2477 730 
Q 2766 1069 2766 1631 
L 2766 1759 
L 2194 1759 
z
M 3341 1997 
L 3341 0 
L 2766 0 
L 2766 531 
Q 2569 213 2275 61 
Q 1981 -91 1556 -91 
Q 1019 -91 701 211 
Q 384 513 384 1019 
Q 384 1609 779 1909 
Q 1175 2209 1959 2209 
L 2766 2209 
L 2766 2266 
Q 2766 2663 2505 2880 
Q 2244 3097 1772 3097 
Q 1472 3097 1187 3025 
Q 903 2953 641 2809 
L 641 3341 
Q 956 3463 1253 3523 
Q 1550 3584 1831 3584 
Q 2591 3584 2966 3190 
Q 3341 2797 3341 1997 
z
" transform="scale(0.015625)"/>
       <path id="DejaVuSans-64" d="M 2906 2969 
L 2906 4863 
L 3481 4863 
L 3481 0 
L 2906 0 
L 2906 525 
Q 2725 213 2448 61 
Q 2172 -91 1784 -91 
Q 1150 -91 751 415 
Q 353 922 353 1747 
Q 353 2572 751 3078 
Q 1150 3584 1784 3584 
Q 2172 3584 2448 3432 
Q 2725 3281 2906 2969 
z
M 947 1747 
Q 947 1113 1208 752 
Q 1469 391 1925 391 
Q 2381 391 2643 752 
Q 2906 1113 2906 1747 
Q 2906 2381 2643 2742 
Q 2381 3103 1925 3103 
Q 1469 3103 1208 2742 
Q 947 2381 947 1747 
z
" transform="scale(0.015625)"/>
      </defs>
      <use xlink:href="#DejaVuSans-Oblique-65" transform="translate(0 0.015625)"/>
      <use xlink:href="#DejaVuSans-Oblique-3b8" transform="translate(61.523438 -16.390625)scale(0.7)"/>
      <use xlink:href="#DejaVuSans-20" transform="translate(107.084961 0.015625)"/>
      <use xlink:href="#DejaVuSans-5b" transform="translate(138.87207 0.015625)"/>
      <use xlink:href="#DejaVuSans-72" transform="translate(177.885742 0.015625)"/>
      <use xlink:href="#DejaVuSans-61" transform="translate(218.999023 0.015625)"/>
      <use xlink:href="#DejaVuSans-64" transform="translate(280.27832 0.015625)"/>
      <use xlink:href="#DejaVuSans-5d" transform="translate(343.754883 0.015625)"/>
     </g>
    </g>
   </g>
   <g id="line2d_61">
    <path d="M 75.919364 276.511593 
L 76.207606 275.935433 
L 76.495848 275.935433 
L 76.78409 275.253352 
L 77.360574 274.410898 
L 77.648816 273.740615 
L 77.937059 271.263134 
L 78.225301 271.263134 
L 78.513543 268.762061 
L 78.801785 268.131487 
L 79.378269 264.270295 
L 79.954753 262.802232 
L 80.531238 261.832902 
L 80.81948 261.477557 
L 81.107722 261.480243 
L 81.684206 261.942338 
L 82.26069 262.759803 
L 82.548933 263.615851 
L 82.837175 265.103273 
L 83.701901 268.052218 
L 83.990143 269.213163 
L 84.278385 272.658415 
L 84.566628 272.658415 
L 84.85487 276.109183 
L 85.719596 282.28538 
L 86.007838 286.580799 
L 86.29608 286.580799 
L 86.584322 291.726089 
L 86.872565 292.341614 
L 87.449049 294.113536 
L 88.025533 295.822296 
L 88.890259 296.723754 
L 89.466744 296.987469 
L 89.754986 297.008013 
L 90.33147 296.736453 
L 90.619712 296.456218 
L 90.907954 295.953036 
L 91.196197 293.387967 
L 91.484439 293.387967 
L 91.772681 289.994452 
L 92.637407 283.66665 
L 93.502134 274.072313 
L 94.36686 267.601332 
L 94.655102 264.450588 
L 94.943344 264.450588 
L 95.231586 261.739216 
L 96.096313 258.747963 
L 96.672797 256.970389 
L 97.249281 256.551956 
L 97.825766 256.384347 
L 98.114008 256.372175 
L 98.978734 256.900668 
L 99.555218 257.521187 
L 99.84346 258.670212 
L 100.131703 258.670212 
L 100.419945 259.906965 
L 101.284671 262.282524 
L 101.572913 263.715495 
L 101.861155 265.947109 
L 102.725882 270.132184 
L 103.014124 271.75896 
L 103.302366 274.369126 
L 103.590608 278.104546 
L 104.743577 285.889018 
L 105.608303 293.332387 
L 106.184787 295.460802 
L 106.473029 296.376852 
L 106.761272 296.554835 
L 107.049514 296.554835 
L 107.91424 293.768706 
L 108.202482 292.014088 
L 108.490724 289.419113 
L 108.778966 289.419113 
L 109.067209 286.658978 
L 109.643693 283.897117 
L 110.220177 279.321494 
L 110.508419 279.321494 
L 110.796661 277.110121 
L 111.661388 274.562132 
L 112.237872 274.59246 
L 113.390841 278.628095 
L 113.679083 280.285311 
L 113.967325 280.285311 
L 114.255567 281.323782 
L 114.543809 281.549719 
L 114.832051 281.56488 
L 115.120293 281.217535 
L 115.696778 279.533419 
L 117.137988 275.679182 
L 117.42623 274.59234 
L 118.290957 273.420467 
L 118.579199 273.11789 
L 118.867441 272.333565 
L 119.155683 272.333565 
L 119.732167 270.770101 
L 120.308652 269.168743 
L 120.596894 268.22039 
L 121.749862 262.528786 
L 122.038104 261.63528 
L 122.326347 259.895049 
L 122.614589 259.895049 
L 122.902831 259.286674 
L 123.191073 259.303015 
L 123.479315 259.535024 
L 123.767557 259.977076 
L 124.055799 261.425885 
L 124.344041 261.425885 
L 124.632284 264.35131 
L 124.920526 264.836818 
L 125.785252 267.631229 
L 126.073494 267.929543 
L 126.649979 267.723102 
L 127.226463 266.974115 
L 127.514705 265.826578 
L 127.802947 265.161125 
L 128.379431 263.044664 
L 128.667673 262.697747 
L 128.955916 262.042197 
L 129.244158 260.926461 
L 129.820642 260.169568 
L 130.108884 259.893881 
L 130.685368 259.87733 
L 131.838337 261.655963 
L 132.126579 262.578921 
L 132.414821 262.578921 
L 132.703063 263.484251 
L 133.56779 264.895734 
L 133.856032 265.47432 
L 134.432516 265.812767 
L 135.009 265.891702 
L 136.161969 265.506287 
L 136.450211 265.506287 
L 137.026695 265.920707 
L 137.603179 266.622723 
L 137.891422 267.562426 
L 138.179664 267.562426 
L 138.467906 269.100698 
L 138.756148 269.350754 
L 139.332632 270.319852 
L 139.620874 271.209131 
L 139.909117 271.629473 
L 140.773843 273.484656 
L 141.062085 273.484656 
L 141.350327 274.306003 
L 141.638569 274.715255 
L 142.503296 276.61837 
L 142.791538 276.61837 
L 143.07978 277.53341 
L 143.656264 278.465922 
L 144.520991 280.408684 
L 146.538685 283.094473 
L 147.403412 283.62997 
L 147.979896 283.697754 
L 148.844623 282.531803 
L 149.132865 281.973504 
L 149.421107 280.945523 
L 149.709349 279.284881 
L 151.438802 273.623835 
L 152.015286 273.236555 
L 153.168254 273.030599 
L 154.032981 271.855568 
L 154.321223 271.28063 
L 155.185949 266.830199 
L 155.474192 266.280125 
L 156.050676 264.041927 
L 156.338918 262.016704 
L 157.491886 258.498907 
L 157.780129 258.498907 
L 158.068371 258.032132 
L 158.356613 257.952917 
L 159.509581 258.422561 
L 159.797823 258.751786 
L 160.374308 258.947331 
L 160.950792 258.960562 
L 161.239034 258.83721 
L 161.815518 258.280026 
L 162.392003 257.757629 
L 162.680245 257.202637 
L 162.968487 257.202637 
L 163.256729 256.636198 
L 163.833213 256.596045 
L 164.121455 256.690792 
L 164.409698 257.169195 
L 164.69794 257.169195 
L 164.986182 258.404185 
L 165.274424 258.640423 
L 165.850908 259.608396 
L 166.13915 260.541651 
L 166.427392 260.541651 
L 166.715635 261.79886 
L 167.003877 261.989256 
L 168.156845 263.375481 
L 168.73333 263.685355 
L 169.886298 263.864708 
L 170.17454 264.071654 
L 170.751024 264.259979 
L 171.039267 264.438344 
L 171.327509 264.939948 
L 171.615751 264.939948 
L 171.903993 266.075431 
L 172.192235 266.308153 
L 172.768719 267.321818 
L 173.056961 268.365297 
L 173.345204 268.365297 
L 173.633446 269.645488 
L 174.498172 270.188235 
L 175.074656 269.968956 
L 175.651141 269.285699 
L 176.515867 268.906393 
L 176.804109 269.025719 
L 177.092351 269.510784 
L 177.380593 270.42911 
L 177.668836 270.839585 
L 177.957078 271.816117 
L 178.24532 274.345273 
L 178.533562 275.865793 
L 179.110046 280.959289 
L 179.398288 281.834946 
L 179.68653 283.524748 
L 179.974773 286.318428 
L 180.263015 287.231989 
L 180.551257 287.765283 
L 180.839499 287.858037 
L 181.127741 286.839508 
L 181.415983 286.839508 
L 181.992467 283.511006 
L 182.568952 280.714796 
L 183.433678 274.564594 
L 184.010162 272.474652 
L 184.586647 271.17131 
L 184.874889 271.630705 
L 185.451373 273.381953 
L 186.027857 276.107601 
L 186.316099 277.703811 
L 187.180826 284.498453 
L 187.75731 286.03423 
L 188.045552 286.209877 
L 188.910279 282.66766 
L 189.198521 281.106239 
L 189.486763 278.481945 
L 189.775005 274.701335 
L 190.063247 274.701335 
L 190.351489 270.908491 
L 190.639731 269.045484 
L 191.216216 264.135523 
L 191.504458 263.491212 
L 192.080942 261.307048 
L 192.369184 261.307048 
L 192.657426 262.276725 
L 192.945668 262.719915 
L 193.522153 265.121995 
L 193.810395 268.216613 
L 194.098637 269.879282 
L 194.675121 274.415277 
L 194.963363 275.006897 
L 195.539848 276.686444 
L 195.82809 276.442815 
L 196.116332 275.362232 
L 196.692816 271.350048 
L 196.981058 271.350048 
L 197.2693 267.99756 
L 197.557543 266.252063 
L 198.134027 261.185718 
L 198.422269 260.38321 
L 198.710511 258.839995 
L 198.998753 256.142234 
L 199.575237 254.087937 
L 199.86348 253.814432 
L 200.151722 253.880915 
L 200.439964 254.269217 
L 200.728206 256.044968 
L 201.016448 256.044968 
L 201.30469 260.748501 
L 201.592932 261.695277 
L 202.457659 267.710585 
L 203.034143 273.707186 
L 203.610627 275.748344 
L 203.898869 276.245937 
L 204.187112 276.116499 
L 204.475354 276.116499 
L 204.763596 273.480285 
L 205.051838 272.848042 
L 205.628322 270.01149 
L 205.916564 266.261572 
L 206.204806 266.261572 
L 206.493049 263.397474 
L 207.357775 259.883181 
L 207.646017 258.974405 
L 207.934259 259.10135 
L 208.222501 259.732167 
L 208.798986 262.01756 
L 209.37547 265.363819 
L 209.663712 268.320763 
L 209.951954 272.448769 
L 211.104923 280.773399 
L 211.393165 280.773399 
L 211.681407 281.920415 
L 211.969649 281.767778 
L 212.257891 281.22065 
L 212.546133 280.38734 
L 212.834375 278.103323 
L 213.122618 278.103323 
L 213.41086 274.005555 
L 213.699102 273.309034 
L 214.275586 270.61449 
L 214.563828 268.151703 
L 215.428555 265.507329 
L 215.716797 265.501706 
L 216.005039 265.752122 
L 216.869765 270.913019 
L 217.446249 276.53029 
L 217.734492 276.53029 
L 218.022734 280.244492 
L 218.88746 284.624533 
L 219.175702 284.73536 
L 219.463944 284.665663 
L 220.040429 282.531463 
L 220.616913 278.5901 
L 220.905155 277.857916 
L 221.193397 276.367757 
L 221.481639 273.330187 
L 221.769881 271.857769 
L 222.346366 267.840566 
L 222.634608 267.275399 
L 223.211092 265.413167 
L 223.499334 265.524406 
L 223.787576 266.021799 
L 224.075818 267.421291 
L 224.364061 270.223387 
L 224.652303 270.223387 
L 224.940545 273.695587 
L 225.228787 275.521805 
L 225.805271 280.284419 
L 226.093513 281.638997 
L 226.381756 281.638997 
L 226.669998 282.029195 
L 226.95824 281.625961 
L 227.246482 280.871257 
L 227.534724 279.179476 
L 227.822966 276.219086 
L 228.975935 269.336437 
L 229.552419 263.633496 
L 229.840661 263.633496 
L 230.128903 261.095822 
L 230.705387 259.400468 
L 230.99363 259.487682 
L 231.281872 260.469396 
L 231.570114 260.469396 
L 232.146598 264.607489 
L 232.43484 266.410789 
L 233.299567 274.926302 
L 233.876051 277.799199 
L 234.452535 279.386138 
L 235.029019 277.932832 
L 235.605504 275.399269 
L 235.893746 273.864141 
L 236.181988 271.388368 
L 236.47023 267.948045 
L 238.199683 257.886802 
L 238.487925 257.886802 
L 238.776167 257.587236 
L 239.064409 257.982199 
L 239.352651 258.739375 
L 239.640893 260.484047 
L 239.929136 263.730424 
L 241.370346 273.708404 
L 241.946831 278.03304 
L 242.235073 278.405941 
L 242.523315 278.389046 
L 242.811557 278.014415 
L 243.388041 276.394645 
L 243.676283 274.603942 
L 243.964525 271.840887 
L 244.829252 267.393985 
L 245.117494 263.93997 
L 245.405736 263.93997 
L 245.693978 261.988986 
L 245.98222 261.446898 
L 246.270462 261.227932 
L 246.558705 261.379236 
L 247.135189 264.82892 
L 247.423431 267.396334 
L 247.711673 268.346945 
L 248.288157 272.390928 
L 248.5764 276.356122 
L 249.441126 281.746975 
L 250.01761 282.526639 
L 250.305852 282.358966 
L 250.594094 282.358966 
L 250.882337 279.844842 
L 251.170579 279.220571 
L 251.747063 276.373919 
L 252.035305 273.2596 
L 252.323547 271.666469 
L 252.900031 267.282199 
L 253.188274 266.648551 
L 253.764758 264.294271 
L 254.053 264.294271 
L 254.341242 265.142376 
L 254.629484 265.588077 
L 255.205969 268.074535 
L 255.494211 271.444906 
L 255.782453 271.444906 
L 256.070695 277.333608 
L 256.358937 278.323425 
L 256.935421 282.122595 
L 257.223663 285.010653 
L 257.800148 286.590873 
L 258.376632 286.015502 
L 258.664874 285.170953 
L 259.817843 275.46923 
L 260.106085 274.498273 
L 260.394327 272.542074 
L 260.682569 268.738352 
L 261.835538 261.405336 
L 262.12378 261.405336 
L 262.412022 260.9584 
L 262.700264 261.298747 
L 262.988506 261.993594 
L 263.276748 263.030654 
L 263.56499 265.139769 
L 263.853232 268.70499 
L 265.006201 276.644592 
L 265.582685 281.967336 
L 265.870927 282.799662 
L 266.159169 283.255456 
L 266.447412 283.319397 
L 266.735654 282.994572 
L 267.023896 281.833926 
L 267.60038 277.602267 
L 268.465107 271.97128 
L 269.329833 263.359404 
L 270.194559 258.814219 
L 270.482801 257.527618 
L 270.771044 257.252205 
L 271.059286 257.707978 
L 271.63577 259.681056 
L 271.924012 261.106779 
L 272.212254 263.69053 
L 272.500496 267.690334 
L 273.941707 278.881665 
L 274.229949 281.51421 
L 274.518191 282.279132 
L 274.806433 282.648946 
L 275.094675 282.624505 
L 275.382918 282.211823 
L 275.67116 280.951367 
L 276.247644 276.65486 
L 277.11237 271.180812 
L 277.977097 263.003839 
L 278.841823 258.508786 
L 279.130065 257.673576 
L 279.418307 257.673576 
L 279.994792 259.388141 
L 280.571276 262.243107 
L 280.859518 265.01193 
L 281.14776 269.209741 
L 283.165455 284.048004 
L 283.453697 284.529572 
L 283.741939 284.648185 
L 284.030182 284.413227 
L 284.318424 283.84609 
L 284.606666 282.471205 
L 284.894908 279.825511 
L 285.759634 274.770928 
L 286.624361 266.670505 
L 287.489087 262.0123 
L 287.777329 260.973028 
L 288.065571 260.973028 
L 288.353813 261.342561 
L 288.642056 262.024717 
L 289.795024 268.252086 
L 290.083266 271.963373 
L 290.947993 278.12676 
L 291.236235 280.904546 
L 291.524477 280.904546 
L 291.812719 282.703555 
L 292.100961 283.206604 
L 292.389203 283.429653 
L 292.677445 283.374191 
L 292.965688 282.782717 
L 293.542172 280.042307 
L 294.406898 275.850856 
L 294.69514 274.292639 
L 295.559867 267.370692 
L 296.712835 262.583433 
L 297.28932 262.906452 
L 297.577562 263.521575 
L 297.865804 264.414258 
L 298.154046 266.946412 
L 298.442288 268.468595 
L 299.018772 273.536393 
L 299.307014 274.389323 
L 299.595257 276.030981 
L 299.883499 278.907613 
L 300.748225 281.9289 
L 301.324709 282.065274 
L 301.901194 280.655709 
L 302.477678 277.356734 
L 302.76592 275.222013 
L 303.054162 275.222013 
L 303.342404 272.147191 
L 303.630646 270.593626 
L 304.207131 266.371088 
L 304.495373 265.790299 
L 305.360099 263.033464 
L 305.648341 263.079959 
L 305.936583 263.76334 
L 306.224826 264.123155 
L 306.513068 265.029984 
L 306.80131 267.552228 
L 307.089552 269.090032 
L 307.666036 274.293238 
L 307.954278 275.195255 
L 308.24252 276.937718 
L 308.530763 280.062097 
L 308.819005 280.062097 
L 309.107247 283.161384 
L 309.683731 283.781213 
L 309.971973 283.825072 
L 310.260215 283.551282 
L 310.548457 282.582386 
L 311.124942 278.918239 
L 311.701426 275.644557 
L 312.566152 267.763094 
L 313.719121 261.90339 
L 314.007363 261.074976 
L 314.295605 261.19513 
L 314.583847 261.669218 
L 315.160332 263.620021 
L 315.448574 265.015861 
L 315.736816 267.522122 
L 316.025058 271.350879 
L 316.889784 277.332427 
L 317.466269 283.22103 
L 318.042753 285.136064 
L 318.330995 285.607352 
L 318.619237 285.746299 
L 318.907479 285.535847 
L 319.195721 284.592933 
L 319.772206 280.84095 
L 320.636932 275.585707 
L 321.501658 267.324301 
L 322.078143 264.16943 
L 322.366385 261.275231 
L 322.654627 261.275231 
L 322.942869 260.456178 
L 323.231111 260.630682 
L 323.519353 261.181082 
L 324.095838 263.350373 
L 324.38408 265.731093 
L 324.672322 269.573842 
L 325.537048 275.807509 
L 326.113533 282.372158 
L 326.401775 284.47138 
L 326.690017 285.038553 
L 327.266501 286.460428 
L 327.554743 286.381968 
L 327.842985 285.761372 
L 328.131227 284.198096 
L 328.707712 279.40822 
L 328.995954 279.40822 
L 329.284196 275.542564 
L 329.572438 273.555773 
L 330.437164 265.136999 
L 330.725407 265.136999 
L 331.013649 262.226042 
L 331.590133 260.390139 
L 331.878375 259.986848 
L 332.166617 260.817171 
L 332.454859 260.817171 
L 333.031344 264.546443 
L 333.319586 266.239819 
L 333.607828 269.059914 
L 333.89607 273.008416 
L 334.184312 273.008416 
L 334.472554 276.927723 
L 335.049039 281.30918 
L 335.337281 283.306127 
L 336.202007 284.760681 
L 336.490249 284.314969 
L 336.778491 283.010274 
L 337.354976 278.699659 
L 337.643218 278.699659 
L 337.93146 275.10356 
L 338.219702 273.207672 
L 339.084428 265.369672 
L 339.37267 265.369672 
L 339.660913 262.98363 
L 339.949155 262.253878 
L 340.237397 261.896974 
L 340.525639 262.10227 
L 340.813881 263.694016 
L 341.102123 263.694016 
L 341.678608 268.149684 
L 341.96685 269.949649 
L 342.831576 278.103161 
L 343.696302 282.71277 
L 344.272787 285.128953 
L 344.561029 285.528928 
L 344.849271 285.162032 
L 345.137513 284.444458 
L 345.713997 280.613725 
L 346.002239 278.083268 
L 346.290482 278.083268 
L 346.578724 274.520471 
L 346.866966 272.74373 
L 347.731692 265.914112 
L 348.019934 265.914112 
L 348.308177 263.959359 
L 348.596419 263.38453 
L 348.884661 263.129722 
L 349.172903 263.628422 
L 349.461145 264.817546 
L 349.749387 264.817546 
L 350.037629 267.173959 
L 350.325871 268.564579 
L 350.902356 272.956132 
L 351.190598 273.666343 
L 351.47884 275.056218 
L 351.767082 277.583136 
L 352.920051 281.675469 
L 353.496535 281.596212 
L 353.784777 281.209106 
L 354.073019 280.624924 
L 354.361261 279.482616 
L 354.649503 277.731096 
L 355.51423 275.35141 
L 356.378956 273.58341 
L 356.95544 273.386339 
L 357.531925 273.434155 
L 357.820167 273.623919 
L 358.108409 274.061164 
L 358.396651 274.197902 
L 358.973135 275.116648 
L 359.261377 275.278511 
L 359.54962 275.600792 
L 359.837862 276.198947 
L 360.126104 276.198947 
L 360.414346 276.897859 
L 361.279072 277.128699 
L 361.855557 276.729961 
L 363.008525 274.442584 
L 363.296767 272.899041 
L 363.585009 272.054505 
L 364.161494 269.530594 
L 364.449736 269.145486 
L 365.314462 267.172152 
L 365.890946 267.372971 
L 366.467431 268.115375 
L 366.755673 269.148485 
L 367.332157 270.436576 
L 367.620399 271.04335 
L 368.485126 271.520839 
L 368.773368 271.349485 
L 369.06161 270.837356 
L 369.349852 270.073239 
L 369.638094 269.779394 
L 369.926336 269.159851 
L 370.214578 267.927669 
L 370.502821 267.927669 
L 370.791063 266.900253 
L 371.079305 266.881657 
L 371.367547 266.978959 
L 371.655789 267.24767 
L 371.944031 268.226632 
L 372.232273 268.226632 
L 372.520515 270.502071 
L 372.808758 270.943328 
L 373.385242 272.794553 
L 373.673484 274.59887 
L 374.53821 277.144225 
L 375.114695 277.45372 
L 375.402937 277.179967 
L 375.691179 277.179967 
L 375.979421 275.431275 
L 376.267663 275.039399 
L 376.844147 273.411826 
L 377.13239 271.96581 
L 377.708874 270.859785 
L 377.997116 270.629414 
L 378.5736 270.719062 
L 379.150084 271.818848 
L 380.303053 275.40776 
L 380.591295 277.495719 
L 380.879537 277.495719 
L 381.167779 280.881715 
L 381.456021 281.442897 
L 382.032506 283.560805 
L 382.320748 285.209665 
L 382.60899 285.209665 
L 382.897232 286.022786 
L 383.185474 285.95152 
L 383.473716 285.66258 
L 383.761959 285.207888 
L 384.050201 283.949249 
L 384.338443 283.949249 
L 384.626685 281.621889 
L 384.914927 281.225976 
L 386.067896 278.281488 
L 386.64438 277.677525 
L 387.509106 277.61868 
L 387.797348 277.778513 
L 388.373833 278.79609 
L 388.662075 279.518954 
L 388.950317 279.518954 
L 389.238559 280.489701 
L 389.815043 281.294578 
L 390.103285 281.317388 
L 390.391528 280.877969 
L 390.67977 280.877969 
L 391.832738 275.537737 
L 392.12098 275.023738 
L 392.409222 274.050973 
L 392.697465 272.411675 
L 392.985707 271.582709 
L 393.273949 271.202167 
L 393.850433 271.256372 
L 394.138675 271.513633 
L 394.426917 271.921929 
L 394.715159 272.752781 
L 395.003402 274.141911 
L 395.868128 276.393039 
L 396.15637 278.078374 
L 396.444612 278.078374 
L 396.732854 278.991602 
L 397.021096 279.243565 
L 397.309339 279.334928 
L 397.597581 279.226682 
L 397.885823 278.628974 
L 398.462307 276.11494 
L 399.327034 272.603239 
L 400.19176 267.565616 
L 400.768244 266.501605 
L 401.056486 266.382053 
L 401.344728 266.749182 
L 401.921213 269.031243 
L 402.785939 272.18245 
L 403.362423 275.142822 
L 403.938908 276.14689 
L 405.091876 277.552074 
L 405.66836 277.744119 
L 405.956603 277.735248 
L 406.244845 277.559105 
L 406.533087 277.080543 
L 406.821329 277.080543 
L 407.109571 276.581 
L 407.686055 276.094064 
L 407.974297 275.80809 
L 408.26254 275.703355 
L 408.550782 275.475397 
L 408.839024 274.977374 
L 409.70375 274.341119 
L 410.280234 274.328752 
L 410.568477 274.477058 
L 410.856719 274.477058 
L 411.144961 274.692325 
L 411.721445 274.799589 
L 412.009687 274.958682 
L 412.297929 275.729478 
L 412.586172 275.729478 
L 412.874414 278.166381 
L 413.162656 278.67082 
L 413.73914 280.640477 
L 414.027382 282.147108 
L 414.603866 282.873949 
L 415.180351 282.568338 
L 415.468593 282.151152 
L 416.621561 277.084477 
L 416.909803 276.592239 
L 417.198046 275.655274 
L 417.486288 274.099443 
L 418.062772 273.034107 
L 418.351014 272.891237 
L 418.639256 273.110037 
L 418.927498 273.110037 
L 419.503983 274.677934 
L 420.080467 276.294389 
L 420.368709 277.229549 
L 420.945193 277.704532 
L 421.521678 277.703168 
L 421.80992 277.404013 
L 422.098162 276.673165 
L 422.386404 276.673165 
L 422.674646 275.709693 
L 423.25113 274.696333 
L 423.539372 274.530294 
L 423.827615 274.847413 
L 424.115857 274.847413 
L 425.268825 278.978494 
L 425.557067 279.795985 
L 425.84531 279.795985 
L 426.710036 282.255829 
L 426.998278 282.670347 
L 427.574762 284.751366 
L 428.439489 291.636274 
L 428.727731 292.350708 
L 429.304215 295.087268 
L 429.592457 297.271072 
L 430.457184 299.434941 
L 430.745426 299.703068 
L 431.033668 299.703068 
L 431.32191 299.482344 
L 431.610152 299.034468 
L 431.898394 297.838855 
L 432.186636 296.005021 
L 432.186636 296.005021 
" clip-path="url(#p23ece4fa76)" style="fill: none; stroke: #008000; stroke-width: 1.5; stroke-linecap: square"/>
   </g>
   <g id="patch_13">
    <path d="M 58.106 301.9975 
L 58.106 251.52 
" style="fill: none; stroke: #000000; stroke-width: 0.8; stroke-linejoin: miter; stroke-linecap: square"/>
   </g>
   <g id="patch_14">
    <path d="M 450 301.9975 
L 450 251.52 
" style="fill: none; stroke: #000000; stroke-width: 0.8; stroke-linejoin: miter; stroke-linecap: square"/>
   </g>
   <g id="patch_15">
    <path d="M 58.106 301.9975 
L 450 301.9975 
" style="fill: none; stroke: #000000; stroke-width: 0.8; stroke-linejoin: miter; stroke-linecap: square"/>
   </g>
   <g id="patch_16">
    <path d="M 58.106 251.52 
L 450 251.52 
" style="fill: none; stroke: #000000; stroke-width: 0.8; stroke-linejoin: miter; stroke-linecap: square"/>
   </g>
   <g id="text_38">
    <!-- Error in swing angle -->
    <g transform="translate(194.282688 245.52)scale(0.12 -0.12)">
     <defs>
      <path id="DejaVuSans-77" d="M 269 3500 
L 844 3500 
L 1563 769 
L 2278 3500 
L 2956 3500 
L 3675 769 
L 4391 3500 
L 4966 3500 
L 4050 0 
L 3372 0 
L 2619 2869 
L 1863 0 
L 1184 0 
L 269 3500 
z
" transform="scale(0.015625)"/>
      <path id="DejaVuSans-67" d="M 2906 1791 
Q 2906 2416 2648 2759 
Q 2391 3103 1925 3103 
Q 1463 3103 1205 2759 
Q 947 2416 947 1791 
Q 947 1169 1205 825 
Q 1463 481 1925 481 
Q 2391 481 2648 825 
Q 2906 1169 2906 1791 
z
M 3481 434 
Q 3481 -459 3084 -895 
Q 2688 -1331 1869 -1331 
Q 1566 -1331 1297 -1286 
Q 1028 -1241 775 -1147 
L 775 -588 
Q 1028 -725 1275 -790 
Q 1522 -856 1778 -856 
Q 2344 -856 2625 -561 
Q 2906 -266 2906 331 
L 2906 616 
Q 2728 306 2450 153 
Q 2172 0 1784 0 
Q 1141 0 747 490 
Q 353 981 353 1791 
Q 353 2603 747 3093 
Q 1141 3584 1784 3584 
Q 2172 3584 2450 3431 
Q 2728 3278 2906 2969 
L 2906 3500 
L 3481 3500 
L 3481 434 
z
" transform="scale(0.015625)"/>
      <path id="DejaVuSans-6c" d="M 603 4863 
L 1178 4863 
L 1178 0 
L 603 0 
L 603 4863 
z
" transform="scale(0.015625)"/>
      <path id="DejaVuSans-65" d="M 3597 1894 
L 3597 1613 
L 953 1613 
Q 991 1019 1311 708 
Q 1631 397 2203 397 
Q 2534 397 2845 478 
Q 3156 559 3463 722 
L 3463 178 
Q 3153 47 2828 -22 
Q 2503 -91 2169 -91 
Q 1331 -91 842 396 
Q 353 884 353 1716 
Q 353 2575 817 3079 
Q 1281 3584 2069 3584 
Q 2775 3584 3186 3129 
Q 3597 2675 3597 1894 
z
M 3022 2063 
Q 3016 2534 2758 2815 
Q 2500 3097 2075 3097 
Q 1594 3097 1305 2825 
Q 1016 2553 972 2059 
L 3022 2063 
z
" transform="scale(0.015625)"/>
     </defs>
     <use xlink:href="#DejaVuSans-45"/>
     <use xlink:href="#DejaVuSans-72" x="63.183594"/>
     <use xlink:href="#DejaVuSans-72" x="102.546875"/>
     <use xlink:href="#DejaVuSans-6f" x="141.410156"/>
     <use xlink:href="#DejaVuSans-72" x="202.591797"/>
     <use xlink:href="#DejaVuSans-20" x="243.705078"/>
     <use xlink:href="#DejaVuSans-69" x="275.492188"/>
     <use xlink:href="#DejaVuSans-6e" x="303.275391"/>
     <use xlink:href="#DejaVuSans-20" x="366.654297"/>
     <use xlink:href="#DejaVuSans-73" x="398.441406"/>
     <use xlink:href="#DejaVuSans-77" x="450.541016"/>
     <use xlink:href="#DejaVuSans-69" x="532.328125"/>
     <use xlink:href="#DejaVuSans-6e" x="560.111328"/>
     <use xlink:href="#DejaVuSans-67" x="623.490234"/>
     <use xlink:href="#DejaVuSans-20" x="686.966797"/>
     <use xlink:href="#DejaVuSans-61" x="718.753906"/>
     <use xlink:href="#DejaVuSans-6e" x="780.033203"/>
     <use xlink:href="#DejaVuSans-67" x="843.412109"/>
     <use xlink:href="#DejaVuSans-6c" x="906.888672"/>
     <use xlink:href="#DejaVuSans-65" x="934.671875"/>
    </g>
   </g>
  </g>
 </g>
 <defs>
  <clipPath id="pf494760194">
   <rect x="58.106" y="28.32" width="391.894" height="50.4775"/>
  </clipPath>
  <clipPath id="pe280bc4f4a">
   <rect x="58.106" y="139.92" width="391.894" height="50.4775"/>
  </clipPath>
  <clipPath id="p23ece4fa76">
   <rect x="58.106" y="251.52" width="391.894" height="50.4775"/>
  </clipPath>
 </defs>
</svg>
