<?xml version="1.0" encoding="utf-8" standalone="no"?>
<!DOCTYPE svg PUBLIC "-//W3C//DTD SVG 1.1//EN"
  "http://www.w3.org/Graphics/SVG/1.1/DTD/svg11.dtd">
<svg xmlns:xlink="http://www.w3.org/1999/xlink" width="460.8pt" height="345.6pt" viewBox="0 0 460.8 345.6" xmlns="http://www.w3.org/2000/svg" version="1.1">
 <metadata>
  <rdf:RDF xmlns:dc="http://purl.org/dc/elements/1.1/" xmlns:cc="http://creativecommons.org/ns#" xmlns:rdf="http://www.w3.org/1999/02/22-rdf-syntax-ns#">
   <cc:Work>
    <dc:type rdf:resource="http://purl.org/dc/dcmitype/StillImage"/>
    <dc:date>2022-03-30T11:54:54.698816</dc:date>
    <dc:format>image/svg+xml</dc:format>
    <dc:creator>
     <cc:Agent>
      <dc:title>Matplotlib v3.5.1, https://matplotlib.org/</dc:title>
     </cc:Agent>
    </dc:creator>
   </cc:Work>
  </rdf:RDF>
 </metadata>
 <defs>
  <style type="text/css">*{stroke-linejoin: round; stroke-linecap: butt}</style>
 </defs>
 <g id="figure_1">
  <g id="patch_1">
   <path d="M 0 345.6 
L 460.8 345.6 
L 460.8 0 
L 0 0 
z
" style="fill: #ffffff"/>
  </g>
  <g id="axes_1">
   <g id="patch_2">
    <path d="M 56 69.72 
L 450 69.72 
L 450 10.8 
L 56 10.8 
z
" style="fill: #ffffff"/>
   </g>
   <g id="matplotlib.axis_1">
    <g id="xtick_1">
     <g id="line2d_1">
      <path d="M 72.109182 69.72 
L 72.109182 10.8 
" clip-path="url(#p34e167c3fd)" style="fill: none; stroke: #b0b0b0; stroke-width: 0.8; stroke-linecap: square"/>
     </g>
     <g id="line2d_2">
      <defs>
       <path id="m4d348b976f" d="M 0 0 
L 0 3.5 
" style="stroke: #000000; stroke-width: 0.8"/>
      </defs>
      <g>
       <use xlink:href="#m4d348b976f" x="72.109182" y="69.72" style="stroke: #000000; stroke-width: 0.8"/>
      </g>
     </g>
     <g id="text_1">
      <!-- 0.0 -->
      <g transform="translate(64.15762 84.318437)scale(0.1 -0.1)">
       <defs>
        <path id="DejaVuSans-30" d="M 2034 4250 
Q 1547 4250 1301 3770 
Q 1056 3291 1056 2328 
Q 1056 1369 1301 889 
Q 1547 409 2034 409 
Q 2525 409 2770 889 
Q 3016 1369 3016 2328 
Q 3016 3291 2770 3770 
Q 2525 4250 2034 4250 
z
M 2034 4750 
Q 2819 4750 3233 4129 
Q 3647 3509 3647 2328 
Q 3647 1150 3233 529 
Q 2819 -91 2034 -91 
Q 1250 -91 836 529 
Q 422 1150 422 2328 
Q 422 3509 836 4129 
Q 1250 4750 2034 4750 
z
" transform="scale(0.015625)"/>
        <path id="DejaVuSans-2e" d="M 684 794 
L 1344 794 
L 1344 0 
L 684 0 
L 684 794 
z
" transform="scale(0.015625)"/>
       </defs>
       <use xlink:href="#DejaVuSans-30"/>
       <use xlink:href="#DejaVuSans-2e" x="63.623047"/>
       <use xlink:href="#DejaVuSans-30" x="95.410156"/>
      </g>
     </g>
    </g>
    <g id="xtick_2">
     <g id="line2d_3">
      <path d="M 117.106898 69.72 
L 117.106898 10.8 
" clip-path="url(#p34e167c3fd)" style="fill: none; stroke: #b0b0b0; stroke-width: 0.8; stroke-linecap: square"/>
     </g>
     <g id="line2d_4">
      <g>
       <use xlink:href="#m4d348b976f" x="117.106898" y="69.72" style="stroke: #000000; stroke-width: 0.8"/>
      </g>
     </g>
     <g id="text_2">
      <!-- 2.5 -->
      <g transform="translate(109.155336 84.318437)scale(0.1 -0.1)">
       <defs>
        <path id="DejaVuSans-32" d="M 1228 531 
L 3431 531 
L 3431 0 
L 469 0 
L 469 531 
Q 828 903 1448 1529 
Q 2069 2156 2228 2338 
Q 2531 2678 2651 2914 
Q 2772 3150 2772 3378 
Q 2772 3750 2511 3984 
Q 2250 4219 1831 4219 
Q 1534 4219 1204 4116 
Q 875 4013 500 3803 
L 500 4441 
Q 881 4594 1212 4672 
Q 1544 4750 1819 4750 
Q 2544 4750 2975 4387 
Q 3406 4025 3406 3419 
Q 3406 3131 3298 2873 
Q 3191 2616 2906 2266 
Q 2828 2175 2409 1742 
Q 1991 1309 1228 531 
z
" transform="scale(0.015625)"/>
        <path id="DejaVuSans-35" d="M 691 4666 
L 3169 4666 
L 3169 4134 
L 1269 4134 
L 1269 2991 
Q 1406 3038 1543 3061 
Q 1681 3084 1819 3084 
Q 2600 3084 3056 2656 
Q 3513 2228 3513 1497 
Q 3513 744 3044 326 
Q 2575 -91 1722 -91 
Q 1428 -91 1123 -41 
Q 819 9 494 109 
L 494 744 
Q 775 591 1075 516 
Q 1375 441 1709 441 
Q 2250 441 2565 725 
Q 2881 1009 2881 1497 
Q 2881 1984 2565 2268 
Q 2250 2553 1709 2553 
Q 1456 2553 1204 2497 
Q 953 2441 691 2322 
L 691 4666 
z
" transform="scale(0.015625)"/>
       </defs>
       <use xlink:href="#DejaVuSans-32"/>
       <use xlink:href="#DejaVuSans-2e" x="63.623047"/>
       <use xlink:href="#DejaVuSans-35" x="95.410156"/>
      </g>
     </g>
    </g>
    <g id="xtick_3">
     <g id="line2d_5">
      <path d="M 162.104614 69.72 
L 162.104614 10.8 
" clip-path="url(#p34e167c3fd)" style="fill: none; stroke: #b0b0b0; stroke-width: 0.8; stroke-linecap: square"/>
     </g>
     <g id="line2d_6">
      <g>
       <use xlink:href="#m4d348b976f" x="162.104614" y="69.72" style="stroke: #000000; stroke-width: 0.8"/>
      </g>
     </g>
     <g id="text_3">
      <!-- 5.0 -->
      <g transform="translate(154.153051 84.318437)scale(0.1 -0.1)">
       <use xlink:href="#DejaVuSans-35"/>
       <use xlink:href="#DejaVuSans-2e" x="63.623047"/>
       <use xlink:href="#DejaVuSans-30" x="95.410156"/>
      </g>
     </g>
    </g>
    <g id="xtick_4">
     <g id="line2d_7">
      <path d="M 207.10233 69.72 
L 207.10233 10.8 
" clip-path="url(#p34e167c3fd)" style="fill: none; stroke: #b0b0b0; stroke-width: 0.8; stroke-linecap: square"/>
     </g>
     <g id="line2d_8">
      <g>
       <use xlink:href="#m4d348b976f" x="207.10233" y="69.72" style="stroke: #000000; stroke-width: 0.8"/>
      </g>
     </g>
     <g id="text_4">
      <!-- 7.5 -->
      <g transform="translate(199.150767 84.318437)scale(0.1 -0.1)">
       <defs>
        <path id="DejaVuSans-37" d="M 525 4666 
L 3525 4666 
L 3525 4397 
L 1831 0 
L 1172 0 
L 2766 4134 
L 525 4134 
L 525 4666 
z
" transform="scale(0.015625)"/>
       </defs>
       <use xlink:href="#DejaVuSans-37"/>
       <use xlink:href="#DejaVuSans-2e" x="63.623047"/>
       <use xlink:href="#DejaVuSans-35" x="95.410156"/>
      </g>
     </g>
    </g>
    <g id="xtick_5">
     <g id="line2d_9">
      <path d="M 252.100046 69.72 
L 252.100046 10.8 
" clip-path="url(#p34e167c3fd)" style="fill: none; stroke: #b0b0b0; stroke-width: 0.8; stroke-linecap: square"/>
     </g>
     <g id="line2d_10">
      <g>
       <use xlink:href="#m4d348b976f" x="252.100046" y="69.72" style="stroke: #000000; stroke-width: 0.8"/>
      </g>
     </g>
     <g id="text_5">
      <!-- 10.0 -->
      <g transform="translate(240.967233 84.318437)scale(0.1 -0.1)">
       <defs>
        <path id="DejaVuSans-31" d="M 794 531 
L 1825 531 
L 1825 4091 
L 703 3866 
L 703 4441 
L 1819 4666 
L 2450 4666 
L 2450 531 
L 3481 531 
L 3481 0 
L 794 0 
L 794 531 
z
" transform="scale(0.015625)"/>
       </defs>
       <use xlink:href="#DejaVuSans-31"/>
       <use xlink:href="#DejaVuSans-30" x="63.623047"/>
       <use xlink:href="#DejaVuSans-2e" x="127.246094"/>
       <use xlink:href="#DejaVuSans-30" x="159.033203"/>
      </g>
     </g>
    </g>
    <g id="xtick_6">
     <g id="line2d_11">
      <path d="M 297.097762 69.72 
L 297.097762 10.8 
" clip-path="url(#p34e167c3fd)" style="fill: none; stroke: #b0b0b0; stroke-width: 0.8; stroke-linecap: square"/>
     </g>
     <g id="line2d_12">
      <g>
       <use xlink:href="#m4d348b976f" x="297.097762" y="69.72" style="stroke: #000000; stroke-width: 0.8"/>
      </g>
     </g>
     <g id="text_6">
      <!-- 12.5 -->
      <g transform="translate(285.964949 84.318437)scale(0.1 -0.1)">
       <use xlink:href="#DejaVuSans-31"/>
       <use xlink:href="#DejaVuSans-32" x="63.623047"/>
       <use xlink:href="#DejaVuSans-2e" x="127.246094"/>
       <use xlink:href="#DejaVuSans-35" x="159.033203"/>
      </g>
     </g>
    </g>
    <g id="xtick_7">
     <g id="line2d_13">
      <path d="M 342.095477 69.72 
L 342.095477 10.8 
" clip-path="url(#p34e167c3fd)" style="fill: none; stroke: #b0b0b0; stroke-width: 0.8; stroke-linecap: square"/>
     </g>
     <g id="line2d_14">
      <g>
       <use xlink:href="#m4d348b976f" x="342.095477" y="69.72" style="stroke: #000000; stroke-width: 0.8"/>
      </g>
     </g>
     <g id="text_7">
      <!-- 15.0 -->
      <g transform="translate(330.962665 84.318437)scale(0.1 -0.1)">
       <use xlink:href="#DejaVuSans-31"/>
       <use xlink:href="#DejaVuSans-35" x="63.623047"/>
       <use xlink:href="#DejaVuSans-2e" x="127.246094"/>
       <use xlink:href="#DejaVuSans-30" x="159.033203"/>
      </g>
     </g>
    </g>
    <g id="xtick_8">
     <g id="line2d_15">
      <path d="M 387.093193 69.72 
L 387.093193 10.8 
" clip-path="url(#p34e167c3fd)" style="fill: none; stroke: #b0b0b0; stroke-width: 0.8; stroke-linecap: square"/>
     </g>
     <g id="line2d_16">
      <g>
       <use xlink:href="#m4d348b976f" x="387.093193" y="69.72" style="stroke: #000000; stroke-width: 0.8"/>
      </g>
     </g>
     <g id="text_8">
      <!-- 17.5 -->
      <g transform="translate(375.960381 84.318437)scale(0.1 -0.1)">
       <use xlink:href="#DejaVuSans-31"/>
       <use xlink:href="#DejaVuSans-37" x="63.623047"/>
       <use xlink:href="#DejaVuSans-2e" x="127.246094"/>
       <use xlink:href="#DejaVuSans-35" x="159.033203"/>
      </g>
     </g>
    </g>
    <g id="xtick_9">
     <g id="line2d_17">
      <path d="M 432.090909 69.72 
L 432.090909 10.8 
" clip-path="url(#p34e167c3fd)" style="fill: none; stroke: #b0b0b0; stroke-width: 0.8; stroke-linecap: square"/>
     </g>
     <g id="line2d_18">
      <g>
       <use xlink:href="#m4d348b976f" x="432.090909" y="69.72" style="stroke: #000000; stroke-width: 0.8"/>
      </g>
     </g>
     <g id="text_9">
      <!-- 20.0 -->
      <g transform="translate(420.958097 84.318437)scale(0.1 -0.1)">
       <use xlink:href="#DejaVuSans-32"/>
       <use xlink:href="#DejaVuSans-30" x="63.623047"/>
       <use xlink:href="#DejaVuSans-2e" x="127.246094"/>
       <use xlink:href="#DejaVuSans-30" x="159.033203"/>
      </g>
     </g>
    </g>
    <g id="text_10">
     <!-- t [s] -->
     <g transform="translate(242.944531 97.996562)scale(0.1 -0.1)">
      <defs>
       <path id="DejaVuSans-74" d="M 1172 4494 
L 1172 3500 
L 2356 3500 
L 2356 3053 
L 1172 3053 
L 1172 1153 
Q 1172 725 1289 603 
Q 1406 481 1766 481 
L 2356 481 
L 2356 0 
L 1766 0 
Q 1100 0 847 248 
Q 594 497 594 1153 
L 594 3053 
L 172 3053 
L 172 3500 
L 594 3500 
L 594 4494 
L 1172 4494 
z
" transform="scale(0.015625)"/>
       <path id="DejaVuSans-20" transform="scale(0.015625)"/>
       <path id="DejaVuSans-5b" d="M 550 4863 
L 1875 4863 
L 1875 4416 
L 1125 4416 
L 1125 -397 
L 1875 -397 
L 1875 -844 
L 550 -844 
L 550 4863 
z
" transform="scale(0.015625)"/>
       <path id="DejaVuSans-73" d="M 2834 3397 
L 2834 2853 
Q 2591 2978 2328 3040 
Q 2066 3103 1784 3103 
Q 1356 3103 1142 2972 
Q 928 2841 928 2578 
Q 928 2378 1081 2264 
Q 1234 2150 1697 2047 
L 1894 2003 
Q 2506 1872 2764 1633 
Q 3022 1394 3022 966 
Q 3022 478 2636 193 
Q 2250 -91 1575 -91 
Q 1294 -91 989 -36 
Q 684 19 347 128 
L 347 722 
Q 666 556 975 473 
Q 1284 391 1588 391 
Q 1994 391 2212 530 
Q 2431 669 2431 922 
Q 2431 1156 2273 1281 
Q 2116 1406 1581 1522 
L 1381 1569 
Q 847 1681 609 1914 
Q 372 2147 372 2553 
Q 372 3047 722 3315 
Q 1072 3584 1716 3584 
Q 2034 3584 2315 3537 
Q 2597 3491 2834 3397 
z
" transform="scale(0.015625)"/>
       <path id="DejaVuSans-5d" d="M 1947 4863 
L 1947 -844 
L 622 -844 
L 622 -397 
L 1369 -397 
L 1369 4416 
L 622 4416 
L 622 4863 
L 1947 4863 
z
" transform="scale(0.015625)"/>
      </defs>
      <use xlink:href="#DejaVuSans-74"/>
      <use xlink:href="#DejaVuSans-20" x="39.208984"/>
      <use xlink:href="#DejaVuSans-5b" x="70.996094"/>
      <use xlink:href="#DejaVuSans-73" x="110.009766"/>
      <use xlink:href="#DejaVuSans-5d" x="162.109375"/>
     </g>
    </g>
   </g>
   <g id="matplotlib.axis_2">
    <g id="ytick_1">
     <g id="line2d_19">
      <path d="M 56 66.498621 
L 450 66.498621 
" clip-path="url(#p34e167c3fd)" style="fill: none; stroke: #b0b0b0; stroke-width: 0.8; stroke-linecap: square"/>
     </g>
     <g id="line2d_20">
      <defs>
       <path id="m49579d7243" d="M 0 0 
L -3.5 0 
" style="stroke: #000000; stroke-width: 0.8"/>
      </defs>
      <g>
       <use xlink:href="#m49579d7243" x="56" y="66.498621" style="stroke: #000000; stroke-width: 0.8"/>
      </g>
     </g>
     <g id="text_11">
      <!-- 0 -->
      <g transform="translate(42.6375 70.29784)scale(0.1 -0.1)">
       <use xlink:href="#DejaVuSans-30"/>
      </g>
     </g>
    </g>
    <g id="ytick_2">
     <g id="line2d_21">
      <path d="M 56 13.904055 
L 450 13.904055 
" clip-path="url(#p34e167c3fd)" style="fill: none; stroke: #b0b0b0; stroke-width: 0.8; stroke-linecap: square"/>
     </g>
     <g id="line2d_22">
      <g>
       <use xlink:href="#m49579d7243" x="56" y="13.904055" style="stroke: #000000; stroke-width: 0.8"/>
      </g>
     </g>
     <g id="text_12">
      <!-- 10 -->
      <g transform="translate(36.275 17.703274)scale(0.1 -0.1)">
       <use xlink:href="#DejaVuSans-31"/>
       <use xlink:href="#DejaVuSans-30" x="63.623047"/>
      </g>
     </g>
    </g>
    <g id="text_13">
     <!-- x [m] -->
     <g transform="translate(30.195313 53.580312)rotate(-90)scale(0.1 -0.1)">
      <defs>
       <path id="DejaVuSans-78" d="M 3513 3500 
L 2247 1797 
L 3578 0 
L 2900 0 
L 1881 1375 
L 863 0 
L 184 0 
L 1544 1831 
L 300 3500 
L 978 3500 
L 1906 2253 
L 2834 3500 
L 3513 3500 
z
" transform="scale(0.015625)"/>
       <path id="DejaVuSans-6d" d="M 3328 2828 
Q 3544 3216 3844 3400 
Q 4144 3584 4550 3584 
Q 5097 3584 5394 3201 
Q 5691 2819 5691 2113 
L 5691 0 
L 5113 0 
L 5113 2094 
Q 5113 2597 4934 2840 
Q 4756 3084 4391 3084 
Q 3944 3084 3684 2787 
Q 3425 2491 3425 1978 
L 3425 0 
L 2847 0 
L 2847 2094 
Q 2847 2600 2669 2842 
Q 2491 3084 2119 3084 
Q 1678 3084 1418 2786 
Q 1159 2488 1159 1978 
L 1159 0 
L 581 0 
L 581 3500 
L 1159 3500 
L 1159 2956 
Q 1356 3278 1631 3431 
Q 1906 3584 2284 3584 
Q 2666 3584 2933 3390 
Q 3200 3197 3328 2828 
z
" transform="scale(0.015625)"/>
      </defs>
      <use xlink:href="#DejaVuSans-78"/>
      <use xlink:href="#DejaVuSans-20" x="59.179688"/>
      <use xlink:href="#DejaVuSans-5b" x="90.966797"/>
      <use xlink:href="#DejaVuSans-6d" x="129.980469"/>
      <use xlink:href="#DejaVuSans-5d" x="227.392578"/>
     </g>
    </g>
   </g>
   <g id="line2d_23">
    <path d="M 73.909091 66.497927 
L 199.902695 66.571557 
L 210.702147 66.734195 
L 217.901782 66.770541 
L 225.101416 67.041818 
L 235.900868 66.894924 
L 241.300594 66.738576 
L 248.500228 66.574429 
L 273.698949 65.773057 
L 289.898127 65.667487 
L 298.89767 65.672823 
L 300.697579 65.53263 
L 302.497487 65.233197 
L 304.297396 64.762546 
L 306.097305 63.836038 
L 307.897213 63.179848 
L 313.296939 60.718355 
L 315.096848 59.732205 
L 316.896757 58.583371 
L 318.696665 56.65385 
L 320.496574 55.26807 
L 322.296482 53.732305 
L 324.096391 51.972314 
L 325.8963 49.227942 
L 331.296026 43.337782 
L 333.095934 41.045151 
L 334.895843 37.833927 
L 338.49566 33.778075 
L 343.895386 27.564371 
L 345.695295 25.655953 
L 347.495203 22.922261 
L 349.295112 21.164685 
L 352.894929 18.485995 
L 354.694838 17.399241 
L 356.494746 16.043606 
L 360.094564 14.697623 
L 361.894472 14.20084 
L 365.49429 13.529328 
L 367.294198 13.478182 
L 369.094107 13.53999 
L 370.894016 13.735112 
L 374.493833 14.508924 
L 381.693467 18.143726 
L 383.493376 19.263616 
L 385.293285 21.166042 
L 388.893102 24.14764 
L 394.292828 29.490937 
L 396.092736 31.356356 
L 397.892645 34.278502 
L 399.692554 36.552197 
L 401.492462 38.527768 
L 403.292371 40.720439 
L 405.09228 43.094214 
L 406.892188 46.076105 
L 408.692097 48.327551 
L 410.492005 50.139942 
L 412.291914 52.187298 
L 415.891731 55.519418 
L 417.69164 57.867283 
L 421.291457 60.804606 
L 423.091366 61.917091 
L 424.891275 62.889152 
L 426.691183 64.125949 
L 428.491092 64.825699 
L 432.090909 65.837333 
L 432.090909 65.837333 
" clip-path="url(#p34e167c3fd)" style="fill: none; stroke: #ff0000; stroke-width: 1.5; stroke-linecap: square"/>
   </g>
   <g id="patch_3">
    <path d="M 56 69.72 
L 56 10.8 
" style="fill: none; stroke: #000000; stroke-width: 0.8; stroke-linejoin: miter; stroke-linecap: square"/>
   </g>
   <g id="patch_4">
    <path d="M 450 69.72 
L 450 10.8 
" style="fill: none; stroke: #000000; stroke-width: 0.8; stroke-linejoin: miter; stroke-linecap: square"/>
   </g>
   <g id="patch_5">
    <path d="M 56 69.72 
L 450 69.72 
" style="fill: none; stroke: #000000; stroke-width: 0.8; stroke-linejoin: miter; stroke-linecap: square"/>
   </g>
   <g id="patch_6">
    <path d="M 56 10.8 
L 450 10.8 
" style="fill: none; stroke: #000000; stroke-width: 0.8; stroke-linejoin: miter; stroke-linecap: square"/>
   </g>
   <g id="legend_1">
    <g id="patch_7">
     <path d="M 63 33.478125 
L 191.553125 33.478125 
Q 193.553125 33.478125 193.553125 31.478125 
L 193.553125 17.8 
Q 193.553125 15.8 191.553125 15.8 
L 63 15.8 
Q 61 15.8 61 17.8 
L 61 31.478125 
Q 61 33.478125 63 33.478125 
z
" style="fill: #ffffff; opacity: 0.8; stroke: #cccccc; stroke-linejoin: miter"/>
    </g>
    <g id="line2d_24">
     <path d="M 65 23.898438 
L 75 23.898438 
L 85 23.898438 
" style="fill: none; stroke: #ff0000; stroke-width: 1.5; stroke-linecap: square"/>
    </g>
    <g id="text_14">
     <!-- Drone x movement -->
     <g transform="translate(93 27.398438)scale(0.1 -0.1)">
      <defs>
       <path id="DejaVuSans-44" d="M 1259 4147 
L 1259 519 
L 2022 519 
Q 2988 519 3436 956 
Q 3884 1394 3884 2338 
Q 3884 3275 3436 3711 
Q 2988 4147 2022 4147 
L 1259 4147 
z
M 628 4666 
L 1925 4666 
Q 3281 4666 3915 4102 
Q 4550 3538 4550 2338 
Q 4550 1131 3912 565 
Q 3275 0 1925 0 
L 628 0 
L 628 4666 
z
" transform="scale(0.015625)"/>
       <path id="DejaVuSans-72" d="M 2631 2963 
Q 2534 3019 2420 3045 
Q 2306 3072 2169 3072 
Q 1681 3072 1420 2755 
Q 1159 2438 1159 1844 
L 1159 0 
L 581 0 
L 581 3500 
L 1159 3500 
L 1159 2956 
Q 1341 3275 1631 3429 
Q 1922 3584 2338 3584 
Q 2397 3584 2469 3576 
Q 2541 3569 2628 3553 
L 2631 2963 
z
" transform="scale(0.015625)"/>
       <path id="DejaVuSans-6f" d="M 1959 3097 
Q 1497 3097 1228 2736 
Q 959 2375 959 1747 
Q 959 1119 1226 758 
Q 1494 397 1959 397 
Q 2419 397 2687 759 
Q 2956 1122 2956 1747 
Q 2956 2369 2687 2733 
Q 2419 3097 1959 3097 
z
M 1959 3584 
Q 2709 3584 3137 3096 
Q 3566 2609 3566 1747 
Q 3566 888 3137 398 
Q 2709 -91 1959 -91 
Q 1206 -91 779 398 
Q 353 888 353 1747 
Q 353 2609 779 3096 
Q 1206 3584 1959 3584 
z
" transform="scale(0.015625)"/>
       <path id="DejaVuSans-6e" d="M 3513 2113 
L 3513 0 
L 2938 0 
L 2938 2094 
Q 2938 2591 2744 2837 
Q 2550 3084 2163 3084 
Q 1697 3084 1428 2787 
Q 1159 2491 1159 1978 
L 1159 0 
L 581 0 
L 581 3500 
L 1159 3500 
L 1159 2956 
Q 1366 3272 1645 3428 
Q 1925 3584 2291 3584 
Q 2894 3584 3203 3211 
Q 3513 2838 3513 2113 
z
" transform="scale(0.015625)"/>
       <path id="DejaVuSans-65" d="M 3597 1894 
L 3597 1613 
L 953 1613 
Q 991 1019 1311 708 
Q 1631 397 2203 397 
Q 2534 397 2845 478 
Q 3156 559 3463 722 
L 3463 178 
Q 3153 47 2828 -22 
Q 2503 -91 2169 -91 
Q 1331 -91 842 396 
Q 353 884 353 1716 
Q 353 2575 817 3079 
Q 1281 3584 2069 3584 
Q 2775 3584 3186 3129 
Q 3597 2675 3597 1894 
z
M 3022 2063 
Q 3016 2534 2758 2815 
Q 2500 3097 2075 3097 
Q 1594 3097 1305 2825 
Q 1016 2553 972 2059 
L 3022 2063 
z
" transform="scale(0.015625)"/>
       <path id="DejaVuSans-76" d="M 191 3500 
L 800 3500 
L 1894 563 
L 2988 3500 
L 3597 3500 
L 2284 0 
L 1503 0 
L 191 3500 
z
" transform="scale(0.015625)"/>
      </defs>
      <use xlink:href="#DejaVuSans-44"/>
      <use xlink:href="#DejaVuSans-72" x="77.001953"/>
      <use xlink:href="#DejaVuSans-6f" x="115.865234"/>
      <use xlink:href="#DejaVuSans-6e" x="177.046875"/>
      <use xlink:href="#DejaVuSans-65" x="240.425781"/>
      <use xlink:href="#DejaVuSans-20" x="301.949219"/>
      <use xlink:href="#DejaVuSans-78" x="333.736328"/>
      <use xlink:href="#DejaVuSans-20" x="392.916016"/>
      <use xlink:href="#DejaVuSans-6d" x="424.703125"/>
      <use xlink:href="#DejaVuSans-6f" x="522.115234"/>
      <use xlink:href="#DejaVuSans-76" x="583.296875"/>
      <use xlink:href="#DejaVuSans-65" x="642.476562"/>
      <use xlink:href="#DejaVuSans-6d" x="704"/>
      <use xlink:href="#DejaVuSans-65" x="801.412109"/>
      <use xlink:href="#DejaVuSans-6e" x="862.935547"/>
      <use xlink:href="#DejaVuSans-74" x="926.314453"/>
     </g>
    </g>
   </g>
  </g>
  <g id="axes_2">
   <g id="patch_8">
    <path d="M 56 186.68 
L 450 186.68 
L 450 127.76 
L 56 127.76 
z
" style="fill: #ffffff"/>
   </g>
   <g id="matplotlib.axis_3">
    <g id="xtick_10">
     <g id="line2d_25">
      <path d="M 72.109182 186.68 
L 72.109182 127.76 
" clip-path="url(#p31a8b2e456)" style="fill: none; stroke: #b0b0b0; stroke-width: 0.8; stroke-linecap: square"/>
     </g>
     <g id="line2d_26">
      <g>
       <use xlink:href="#m4d348b976f" x="72.109182" y="186.68" style="stroke: #000000; stroke-width: 0.8"/>
      </g>
     </g>
     <g id="text_15">
      <!-- 0.0 -->
      <g transform="translate(64.15762 201.278437)scale(0.1 -0.1)">
       <use xlink:href="#DejaVuSans-30"/>
       <use xlink:href="#DejaVuSans-2e" x="63.623047"/>
       <use xlink:href="#DejaVuSans-30" x="95.410156"/>
      </g>
     </g>
    </g>
    <g id="xtick_11">
     <g id="line2d_27">
      <path d="M 117.106898 186.68 
L 117.106898 127.76 
" clip-path="url(#p31a8b2e456)" style="fill: none; stroke: #b0b0b0; stroke-width: 0.8; stroke-linecap: square"/>
     </g>
     <g id="line2d_28">
      <g>
       <use xlink:href="#m4d348b976f" x="117.106898" y="186.68" style="stroke: #000000; stroke-width: 0.8"/>
      </g>
     </g>
     <g id="text_16">
      <!-- 2.5 -->
      <g transform="translate(109.155336 201.278437)scale(0.1 -0.1)">
       <use xlink:href="#DejaVuSans-32"/>
       <use xlink:href="#DejaVuSans-2e" x="63.623047"/>
       <use xlink:href="#DejaVuSans-35" x="95.410156"/>
      </g>
     </g>
    </g>
    <g id="xtick_12">
     <g id="line2d_29">
      <path d="M 162.104614 186.68 
L 162.104614 127.76 
" clip-path="url(#p31a8b2e456)" style="fill: none; stroke: #b0b0b0; stroke-width: 0.8; stroke-linecap: square"/>
     </g>
     <g id="line2d_30">
      <g>
       <use xlink:href="#m4d348b976f" x="162.104614" y="186.68" style="stroke: #000000; stroke-width: 0.8"/>
      </g>
     </g>
     <g id="text_17">
      <!-- 5.0 -->
      <g transform="translate(154.153051 201.278437)scale(0.1 -0.1)">
       <use xlink:href="#DejaVuSans-35"/>
       <use xlink:href="#DejaVuSans-2e" x="63.623047"/>
       <use xlink:href="#DejaVuSans-30" x="95.410156"/>
      </g>
     </g>
    </g>
    <g id="xtick_13">
     <g id="line2d_31">
      <path d="M 207.10233 186.68 
L 207.10233 127.76 
" clip-path="url(#p31a8b2e456)" style="fill: none; stroke: #b0b0b0; stroke-width: 0.8; stroke-linecap: square"/>
     </g>
     <g id="line2d_32">
      <g>
       <use xlink:href="#m4d348b976f" x="207.10233" y="186.68" style="stroke: #000000; stroke-width: 0.8"/>
      </g>
     </g>
     <g id="text_18">
      <!-- 7.5 -->
      <g transform="translate(199.150767 201.278437)scale(0.1 -0.1)">
       <use xlink:href="#DejaVuSans-37"/>
       <use xlink:href="#DejaVuSans-2e" x="63.623047"/>
       <use xlink:href="#DejaVuSans-35" x="95.410156"/>
      </g>
     </g>
    </g>
    <g id="xtick_14">
     <g id="line2d_33">
      <path d="M 252.100046 186.68 
L 252.100046 127.76 
" clip-path="url(#p31a8b2e456)" style="fill: none; stroke: #b0b0b0; stroke-width: 0.8; stroke-linecap: square"/>
     </g>
     <g id="line2d_34">
      <g>
       <use xlink:href="#m4d348b976f" x="252.100046" y="186.68" style="stroke: #000000; stroke-width: 0.8"/>
      </g>
     </g>
     <g id="text_19">
      <!-- 10.0 -->
      <g transform="translate(240.967233 201.278437)scale(0.1 -0.1)">
       <use xlink:href="#DejaVuSans-31"/>
       <use xlink:href="#DejaVuSans-30" x="63.623047"/>
       <use xlink:href="#DejaVuSans-2e" x="127.246094"/>
       <use xlink:href="#DejaVuSans-30" x="159.033203"/>
      </g>
     </g>
    </g>
    <g id="xtick_15">
     <g id="line2d_35">
      <path d="M 297.097762 186.68 
L 297.097762 127.76 
" clip-path="url(#p31a8b2e456)" style="fill: none; stroke: #b0b0b0; stroke-width: 0.8; stroke-linecap: square"/>
     </g>
     <g id="line2d_36">
      <g>
       <use xlink:href="#m4d348b976f" x="297.097762" y="186.68" style="stroke: #000000; stroke-width: 0.8"/>
      </g>
     </g>
     <g id="text_20">
      <!-- 12.5 -->
      <g transform="translate(285.964949 201.278437)scale(0.1 -0.1)">
       <use xlink:href="#DejaVuSans-31"/>
       <use xlink:href="#DejaVuSans-32" x="63.623047"/>
       <use xlink:href="#DejaVuSans-2e" x="127.246094"/>
       <use xlink:href="#DejaVuSans-35" x="159.033203"/>
      </g>
     </g>
    </g>
    <g id="xtick_16">
     <g id="line2d_37">
      <path d="M 342.095477 186.68 
L 342.095477 127.76 
" clip-path="url(#p31a8b2e456)" style="fill: none; stroke: #b0b0b0; stroke-width: 0.8; stroke-linecap: square"/>
     </g>
     <g id="line2d_38">
      <g>
       <use xlink:href="#m4d348b976f" x="342.095477" y="186.68" style="stroke: #000000; stroke-width: 0.8"/>
      </g>
     </g>
     <g id="text_21">
      <!-- 15.0 -->
      <g transform="translate(330.962665 201.278437)scale(0.1 -0.1)">
       <use xlink:href="#DejaVuSans-31"/>
       <use xlink:href="#DejaVuSans-35" x="63.623047"/>
       <use xlink:href="#DejaVuSans-2e" x="127.246094"/>
       <use xlink:href="#DejaVuSans-30" x="159.033203"/>
      </g>
     </g>
    </g>
    <g id="xtick_17">
     <g id="line2d_39">
      <path d="M 387.093193 186.68 
L 387.093193 127.76 
" clip-path="url(#p31a8b2e456)" style="fill: none; stroke: #b0b0b0; stroke-width: 0.8; stroke-linecap: square"/>
     </g>
     <g id="line2d_40">
      <g>
       <use xlink:href="#m4d348b976f" x="387.093193" y="186.68" style="stroke: #000000; stroke-width: 0.8"/>
      </g>
     </g>
     <g id="text_22">
      <!-- 17.5 -->
      <g transform="translate(375.960381 201.278437)scale(0.1 -0.1)">
       <use xlink:href="#DejaVuSans-31"/>
       <use xlink:href="#DejaVuSans-37" x="63.623047"/>
       <use xlink:href="#DejaVuSans-2e" x="127.246094"/>
       <use xlink:href="#DejaVuSans-35" x="159.033203"/>
      </g>
     </g>
    </g>
    <g id="xtick_18">
     <g id="line2d_41">
      <path d="M 432.090909 186.68 
L 432.090909 127.76 
" clip-path="url(#p31a8b2e456)" style="fill: none; stroke: #b0b0b0; stroke-width: 0.8; stroke-linecap: square"/>
     </g>
     <g id="line2d_42">
      <g>
       <use xlink:href="#m4d348b976f" x="432.090909" y="186.68" style="stroke: #000000; stroke-width: 0.8"/>
      </g>
     </g>
     <g id="text_23">
      <!-- 20.0 -->
      <g transform="translate(420.958097 201.278437)scale(0.1 -0.1)">
       <use xlink:href="#DejaVuSans-32"/>
       <use xlink:href="#DejaVuSans-30" x="63.623047"/>
       <use xlink:href="#DejaVuSans-2e" x="127.246094"/>
       <use xlink:href="#DejaVuSans-30" x="159.033203"/>
      </g>
     </g>
    </g>
    <g id="text_24">
     <!-- t [s] -->
     <g transform="translate(242.944531 214.956562)scale(0.1 -0.1)">
      <use xlink:href="#DejaVuSans-74"/>
      <use xlink:href="#DejaVuSans-20" x="39.208984"/>
      <use xlink:href="#DejaVuSans-5b" x="70.996094"/>
      <use xlink:href="#DejaVuSans-73" x="110.009766"/>
      <use xlink:href="#DejaVuSans-5d" x="162.109375"/>
     </g>
    </g>
   </g>
   <g id="matplotlib.axis_4">
    <g id="ytick_3">
     <g id="line2d_43">
      <path d="M 56 174.244966 
L 450 174.244966 
" clip-path="url(#p31a8b2e456)" style="fill: none; stroke: #b0b0b0; stroke-width: 0.8; stroke-linecap: square"/>
     </g>
     <g id="line2d_44">
      <g>
       <use xlink:href="#m49579d7243" x="56" y="174.244966" style="stroke: #000000; stroke-width: 0.8"/>
      </g>
     </g>
     <g id="text_25">
      <!-- −0.25 -->
      <g transform="translate(18.354688 178.044185)scale(0.1 -0.1)">
       <defs>
        <path id="DejaVuSans-2212" d="M 678 2272 
L 4684 2272 
L 4684 1741 
L 678 1741 
L 678 2272 
z
" transform="scale(0.015625)"/>
       </defs>
       <use xlink:href="#DejaVuSans-2212"/>
       <use xlink:href="#DejaVuSans-30" x="83.789062"/>
       <use xlink:href="#DejaVuSans-2e" x="147.412109"/>
       <use xlink:href="#DejaVuSans-32" x="179.199219"/>
       <use xlink:href="#DejaVuSans-35" x="242.822266"/>
      </g>
     </g>
    </g>
    <g id="ytick_4">
     <g id="line2d_45">
      <path d="M 56 148.773134 
L 450 148.773134 
" clip-path="url(#p31a8b2e456)" style="fill: none; stroke: #b0b0b0; stroke-width: 0.8; stroke-linecap: square"/>
     </g>
     <g id="line2d_46">
      <g>
       <use xlink:href="#m49579d7243" x="56" y="148.773134" style="stroke: #000000; stroke-width: 0.8"/>
      </g>
     </g>
     <g id="text_26">
      <!-- 0.00 -->
      <g transform="translate(26.734375 152.572352)scale(0.1 -0.1)">
       <use xlink:href="#DejaVuSans-30"/>
       <use xlink:href="#DejaVuSans-2e" x="63.623047"/>
       <use xlink:href="#DejaVuSans-30" x="95.410156"/>
       <use xlink:href="#DejaVuSans-30" x="159.033203"/>
      </g>
     </g>
    </g>
    <g id="text_27">
     <!-- y [m] -->
     <g transform="translate(12.275 170.540312)rotate(-90)scale(0.1 -0.1)">
      <defs>
       <path id="DejaVuSans-79" d="M 2059 -325 
Q 1816 -950 1584 -1140 
Q 1353 -1331 966 -1331 
L 506 -1331 
L 506 -850 
L 844 -850 
Q 1081 -850 1212 -737 
Q 1344 -625 1503 -206 
L 1606 56 
L 191 3500 
L 800 3500 
L 1894 763 
L 2988 3500 
L 3597 3500 
L 2059 -325 
z
" transform="scale(0.015625)"/>
      </defs>
      <use xlink:href="#DejaVuSans-79"/>
      <use xlink:href="#DejaVuSans-20" x="59.179688"/>
      <use xlink:href="#DejaVuSans-5b" x="90.966797"/>
      <use xlink:href="#DejaVuSans-6d" x="129.980469"/>
      <use xlink:href="#DejaVuSans-5d" x="227.392578"/>
     </g>
    </g>
   </g>
   <g id="line2d_47">
    <path d="M 73.909091 148.773009 
L 194.502969 148.808564 
L 196.302878 149.178307 
L 198.102787 149.878038 
L 199.902695 150.875839 
L 201.702604 152.156435 
L 207.10233 155.236338 
L 208.902238 156.029076 
L 210.702147 156.983852 
L 212.502056 157.36529 
L 214.301964 157.62917 
L 217.901782 158.593279 
L 219.70169 159.042231 
L 221.501599 159.780605 
L 223.301508 160.101231 
L 225.101416 159.939218 
L 226.901325 159.282765 
L 230.501142 157.449029 
L 232.301051 155.925278 
L 235.900868 153.181534 
L 237.700777 151.601133 
L 239.500685 150.241934 
L 241.300594 148.721278 
L 243.100503 146.935451 
L 246.70032 144.454864 
L 252.100046 140.068521 
L 253.899954 138.884834 
L 255.699863 137.286436 
L 261.099589 133.808608 
L 262.899497 133.035749 
L 264.699406 132.011288 
L 266.499315 131.579153 
L 273.698949 130.438182 
L 277.298767 130.542746 
L 282.698492 130.875682 
L 286.29831 131.355607 
L 289.898127 132.272399 
L 295.297853 133.406412 
L 298.89767 134.103395 
L 302.497487 134.796251 
L 315.096848 136.699305 
L 322.296482 137.33865 
L 324.096391 137.31922 
L 327.696208 136.753593 
L 331.296026 136.006981 
L 333.095934 135.559696 
L 334.895843 134.964613 
L 338.49566 134.259253 
L 340.295569 134.005624 
L 343.895386 133.887451 
L 347.495203 133.967426 
L 349.295112 134.228238 
L 351.095021 134.630078 
L 354.694838 135.897487 
L 356.494746 137.163288 
L 360.094564 139.157056 
L 361.894472 140.299489 
L 363.694381 141.694144 
L 365.49429 144.154266 
L 369.094107 147.697222 
L 374.493833 153.71855 
L 376.293741 156.849732 
L 378.09365 159.224413 
L 383.493376 165.714905 
L 385.293285 169.125754 
L 388.893102 173.747908 
L 390.693011 176.003387 
L 394.292828 179.776553 
L 396.092736 181.284531 
L 397.892645 182.997421 
L 399.692554 183.752559 
L 401.492462 184.001818 
L 403.292371 183.899527 
L 405.09228 183.465485 
L 408.692097 181.586902 
L 410.492005 180.553549 
L 414.091823 177.472767 
L 415.891731 175.726586 
L 417.69164 172.696273 
L 419.491549 170.329962 
L 421.291457 167.724837 
L 424.891275 163.135667 
L 426.691183 159.826394 
L 428.491092 157.640501 
L 432.090909 153.59701 
L 432.090909 153.59701 
" clip-path="url(#p31a8b2e456)" style="fill: none; stroke: #ff0000; stroke-width: 1.5; stroke-linecap: square"/>
   </g>
   <g id="patch_9">
    <path d="M 56 186.68 
L 56 127.76 
" style="fill: none; stroke: #000000; stroke-width: 0.8; stroke-linejoin: miter; stroke-linecap: square"/>
   </g>
   <g id="patch_10">
    <path d="M 450 186.68 
L 450 127.76 
" style="fill: none; stroke: #000000; stroke-width: 0.8; stroke-linejoin: miter; stroke-linecap: square"/>
   </g>
   <g id="patch_11">
    <path d="M 56 186.68 
L 450 186.68 
" style="fill: none; stroke: #000000; stroke-width: 0.8; stroke-linejoin: miter; stroke-linecap: square"/>
   </g>
   <g id="patch_12">
    <path d="M 56 127.76 
L 450 127.76 
" style="fill: none; stroke: #000000; stroke-width: 0.8; stroke-linejoin: miter; stroke-linecap: square"/>
   </g>
   <g id="text_28">
    <!-- Slung payload axes movement as functions of time -->
    <g transform="translate(98.816875 121.76)scale(0.12 -0.12)">
     <defs>
      <path id="DejaVuSans-53" d="M 3425 4513 
L 3425 3897 
Q 3066 4069 2747 4153 
Q 2428 4238 2131 4238 
Q 1616 4238 1336 4038 
Q 1056 3838 1056 3469 
Q 1056 3159 1242 3001 
Q 1428 2844 1947 2747 
L 2328 2669 
Q 3034 2534 3370 2195 
Q 3706 1856 3706 1288 
Q 3706 609 3251 259 
Q 2797 -91 1919 -91 
Q 1588 -91 1214 -16 
Q 841 59 441 206 
L 441 856 
Q 825 641 1194 531 
Q 1563 422 1919 422 
Q 2459 422 2753 634 
Q 3047 847 3047 1241 
Q 3047 1584 2836 1778 
Q 2625 1972 2144 2069 
L 1759 2144 
Q 1053 2284 737 2584 
Q 422 2884 422 3419 
Q 422 4038 858 4394 
Q 1294 4750 2059 4750 
Q 2388 4750 2728 4690 
Q 3069 4631 3425 4513 
z
" transform="scale(0.015625)"/>
      <path id="DejaVuSans-6c" d="M 603 4863 
L 1178 4863 
L 1178 0 
L 603 0 
L 603 4863 
z
" transform="scale(0.015625)"/>
      <path id="DejaVuSans-75" d="M 544 1381 
L 544 3500 
L 1119 3500 
L 1119 1403 
Q 1119 906 1312 657 
Q 1506 409 1894 409 
Q 2359 409 2629 706 
Q 2900 1003 2900 1516 
L 2900 3500 
L 3475 3500 
L 3475 0 
L 2900 0 
L 2900 538 
Q 2691 219 2414 64 
Q 2138 -91 1772 -91 
Q 1169 -91 856 284 
Q 544 659 544 1381 
z
M 1991 3584 
L 1991 3584 
z
" transform="scale(0.015625)"/>
      <path id="DejaVuSans-67" d="M 2906 1791 
Q 2906 2416 2648 2759 
Q 2391 3103 1925 3103 
Q 1463 3103 1205 2759 
Q 947 2416 947 1791 
Q 947 1169 1205 825 
Q 1463 481 1925 481 
Q 2391 481 2648 825 
Q 2906 1169 2906 1791 
z
M 3481 434 
Q 3481 -459 3084 -895 
Q 2688 -1331 1869 -1331 
Q 1566 -1331 1297 -1286 
Q 1028 -1241 775 -1147 
L 775 -588 
Q 1028 -725 1275 -790 
Q 1522 -856 1778 -856 
Q 2344 -856 2625 -561 
Q 2906 -266 2906 331 
L 2906 616 
Q 2728 306 2450 153 
Q 2172 0 1784 0 
Q 1141 0 747 490 
Q 353 981 353 1791 
Q 353 2603 747 3093 
Q 1141 3584 1784 3584 
Q 2172 3584 2450 3431 
Q 2728 3278 2906 2969 
L 2906 3500 
L 3481 3500 
L 3481 434 
z
" transform="scale(0.015625)"/>
      <path id="DejaVuSans-70" d="M 1159 525 
L 1159 -1331 
L 581 -1331 
L 581 3500 
L 1159 3500 
L 1159 2969 
Q 1341 3281 1617 3432 
Q 1894 3584 2278 3584 
Q 2916 3584 3314 3078 
Q 3713 2572 3713 1747 
Q 3713 922 3314 415 
Q 2916 -91 2278 -91 
Q 1894 -91 1617 61 
Q 1341 213 1159 525 
z
M 3116 1747 
Q 3116 2381 2855 2742 
Q 2594 3103 2138 3103 
Q 1681 3103 1420 2742 
Q 1159 2381 1159 1747 
Q 1159 1113 1420 752 
Q 1681 391 2138 391 
Q 2594 391 2855 752 
Q 3116 1113 3116 1747 
z
" transform="scale(0.015625)"/>
      <path id="DejaVuSans-61" d="M 2194 1759 
Q 1497 1759 1228 1600 
Q 959 1441 959 1056 
Q 959 750 1161 570 
Q 1363 391 1709 391 
Q 2188 391 2477 730 
Q 2766 1069 2766 1631 
L 2766 1759 
L 2194 1759 
z
M 3341 1997 
L 3341 0 
L 2766 0 
L 2766 531 
Q 2569 213 2275 61 
Q 1981 -91 1556 -91 
Q 1019 -91 701 211 
Q 384 513 384 1019 
Q 384 1609 779 1909 
Q 1175 2209 1959 2209 
L 2766 2209 
L 2766 2266 
Q 2766 2663 2505 2880 
Q 2244 3097 1772 3097 
Q 1472 3097 1187 3025 
Q 903 2953 641 2809 
L 641 3341 
Q 956 3463 1253 3523 
Q 1550 3584 1831 3584 
Q 2591 3584 2966 3190 
Q 3341 2797 3341 1997 
z
" transform="scale(0.015625)"/>
      <path id="DejaVuSans-64" d="M 2906 2969 
L 2906 4863 
L 3481 4863 
L 3481 0 
L 2906 0 
L 2906 525 
Q 2725 213 2448 61 
Q 2172 -91 1784 -91 
Q 1150 -91 751 415 
Q 353 922 353 1747 
Q 353 2572 751 3078 
Q 1150 3584 1784 3584 
Q 2172 3584 2448 3432 
Q 2725 3281 2906 2969 
z
M 947 1747 
Q 947 1113 1208 752 
Q 1469 391 1925 391 
Q 2381 391 2643 752 
Q 2906 1113 2906 1747 
Q 2906 2381 2643 2742 
Q 2381 3103 1925 3103 
Q 1469 3103 1208 2742 
Q 947 2381 947 1747 
z
" transform="scale(0.015625)"/>
      <path id="DejaVuSans-66" d="M 2375 4863 
L 2375 4384 
L 1825 4384 
Q 1516 4384 1395 4259 
Q 1275 4134 1275 3809 
L 1275 3500 
L 2222 3500 
L 2222 3053 
L 1275 3053 
L 1275 0 
L 697 0 
L 697 3053 
L 147 3053 
L 147 3500 
L 697 3500 
L 697 3744 
Q 697 4328 969 4595 
Q 1241 4863 1831 4863 
L 2375 4863 
z
" transform="scale(0.015625)"/>
      <path id="DejaVuSans-63" d="M 3122 3366 
L 3122 2828 
Q 2878 2963 2633 3030 
Q 2388 3097 2138 3097 
Q 1578 3097 1268 2742 
Q 959 2388 959 1747 
Q 959 1106 1268 751 
Q 1578 397 2138 397 
Q 2388 397 2633 464 
Q 2878 531 3122 666 
L 3122 134 
Q 2881 22 2623 -34 
Q 2366 -91 2075 -91 
Q 1284 -91 818 406 
Q 353 903 353 1747 
Q 353 2603 823 3093 
Q 1294 3584 2113 3584 
Q 2378 3584 2631 3529 
Q 2884 3475 3122 3366 
z
" transform="scale(0.015625)"/>
      <path id="DejaVuSans-69" d="M 603 3500 
L 1178 3500 
L 1178 0 
L 603 0 
L 603 3500 
z
M 603 4863 
L 1178 4863 
L 1178 4134 
L 603 4134 
L 603 4863 
z
" transform="scale(0.015625)"/>
     </defs>
     <use xlink:href="#DejaVuSans-53"/>
     <use xlink:href="#DejaVuSans-6c" x="63.476562"/>
     <use xlink:href="#DejaVuSans-75" x="91.259766"/>
     <use xlink:href="#DejaVuSans-6e" x="154.638672"/>
     <use xlink:href="#DejaVuSans-67" x="218.017578"/>
     <use xlink:href="#DejaVuSans-20" x="281.494141"/>
     <use xlink:href="#DejaVuSans-70" x="313.28125"/>
     <use xlink:href="#DejaVuSans-61" x="376.757812"/>
     <use xlink:href="#DejaVuSans-79" x="438.037109"/>
     <use xlink:href="#DejaVuSans-6c" x="497.216797"/>
     <use xlink:href="#DejaVuSans-6f" x="525"/>
     <use xlink:href="#DejaVuSans-61" x="586.181641"/>
     <use xlink:href="#DejaVuSans-64" x="647.460938"/>
     <use xlink:href="#DejaVuSans-20" x="710.9375"/>
     <use xlink:href="#DejaVuSans-61" x="742.724609"/>
     <use xlink:href="#DejaVuSans-78" x="804.003906"/>
     <use xlink:href="#DejaVuSans-65" x="860.058594"/>
     <use xlink:href="#DejaVuSans-73" x="921.582031"/>
     <use xlink:href="#DejaVuSans-20" x="973.681641"/>
     <use xlink:href="#DejaVuSans-6d" x="1005.46875"/>
     <use xlink:href="#DejaVuSans-6f" x="1102.880859"/>
     <use xlink:href="#DejaVuSans-76" x="1164.0625"/>
     <use xlink:href="#DejaVuSans-65" x="1223.242188"/>
     <use xlink:href="#DejaVuSans-6d" x="1284.765625"/>
     <use xlink:href="#DejaVuSans-65" x="1382.177734"/>
     <use xlink:href="#DejaVuSans-6e" x="1443.701172"/>
     <use xlink:href="#DejaVuSans-74" x="1507.080078"/>
     <use xlink:href="#DejaVuSans-20" x="1546.289062"/>
     <use xlink:href="#DejaVuSans-61" x="1578.076172"/>
     <use xlink:href="#DejaVuSans-73" x="1639.355469"/>
     <use xlink:href="#DejaVuSans-20" x="1691.455078"/>
     <use xlink:href="#DejaVuSans-66" x="1723.242188"/>
     <use xlink:href="#DejaVuSans-75" x="1758.447266"/>
     <use xlink:href="#DejaVuSans-6e" x="1821.826172"/>
     <use xlink:href="#DejaVuSans-63" x="1885.205078"/>
     <use xlink:href="#DejaVuSans-74" x="1940.185547"/>
     <use xlink:href="#DejaVuSans-69" x="1979.394531"/>
     <use xlink:href="#DejaVuSans-6f" x="2007.177734"/>
     <use xlink:href="#DejaVuSans-6e" x="2068.359375"/>
     <use xlink:href="#DejaVuSans-73" x="2131.738281"/>
     <use xlink:href="#DejaVuSans-20" x="2183.837891"/>
     <use xlink:href="#DejaVuSans-6f" x="2215.625"/>
     <use xlink:href="#DejaVuSans-66" x="2276.806641"/>
     <use xlink:href="#DejaVuSans-20" x="2312.011719"/>
     <use xlink:href="#DejaVuSans-74" x="2343.798828"/>
     <use xlink:href="#DejaVuSans-69" x="2383.007812"/>
     <use xlink:href="#DejaVuSans-6d" x="2410.791016"/>
     <use xlink:href="#DejaVuSans-65" x="2508.203125"/>
    </g>
   </g>
   <g id="legend_2">
    <g id="patch_13">
     <path d="M 63 150.438125 
L 191.553125 150.438125 
Q 193.553125 150.438125 193.553125 148.438125 
L 193.553125 134.76 
Q 193.553125 132.76 191.553125 132.76 
L 63 132.76 
Q 61 132.76 61 134.76 
L 61 148.438125 
Q 61 150.438125 63 150.438125 
z
" style="fill: #ffffff; opacity: 0.8; stroke: #cccccc; stroke-linejoin: miter"/>
    </g>
    <g id="line2d_48">
     <path d="M 65 140.858437 
L 75 140.858437 
L 85 140.858437 
" style="fill: none; stroke: #ff0000; stroke-width: 1.5; stroke-linecap: square"/>
    </g>
    <g id="text_29">
     <!-- Drone y movement -->
     <g transform="translate(93 144.358437)scale(0.1 -0.1)">
      <use xlink:href="#DejaVuSans-44"/>
      <use xlink:href="#DejaVuSans-72" x="77.001953"/>
      <use xlink:href="#DejaVuSans-6f" x="115.865234"/>
      <use xlink:href="#DejaVuSans-6e" x="177.046875"/>
      <use xlink:href="#DejaVuSans-65" x="240.425781"/>
      <use xlink:href="#DejaVuSans-20" x="301.949219"/>
      <use xlink:href="#DejaVuSans-79" x="333.736328"/>
      <use xlink:href="#DejaVuSans-20" x="392.916016"/>
      <use xlink:href="#DejaVuSans-6d" x="424.703125"/>
      <use xlink:href="#DejaVuSans-6f" x="522.115234"/>
      <use xlink:href="#DejaVuSans-76" x="583.296875"/>
      <use xlink:href="#DejaVuSans-65" x="642.476562"/>
      <use xlink:href="#DejaVuSans-6d" x="704"/>
      <use xlink:href="#DejaVuSans-65" x="801.412109"/>
      <use xlink:href="#DejaVuSans-6e" x="862.935547"/>
      <use xlink:href="#DejaVuSans-74" x="926.314453"/>
     </g>
    </g>
   </g>
  </g>
  <g id="axes_3">
   <g id="patch_14">
    <path d="M 56 303.64 
L 450 303.64 
L 450 244.72 
L 56 244.72 
z
" style="fill: #ffffff"/>
   </g>
   <g id="matplotlib.axis_5">
    <g id="xtick_19">
     <g id="line2d_49">
      <path d="M 72.109182 303.64 
L 72.109182 244.72 
" clip-path="url(#pb64079d4b0)" style="fill: none; stroke: #b0b0b0; stroke-width: 0.8; stroke-linecap: square"/>
     </g>
     <g id="line2d_50">
      <g>
       <use xlink:href="#m4d348b976f" x="72.109182" y="303.64" style="stroke: #000000; stroke-width: 0.8"/>
      </g>
     </g>
     <g id="text_30">
      <!-- 0.0 -->
      <g transform="translate(64.15762 318.238437)scale(0.1 -0.1)">
       <use xlink:href="#DejaVuSans-30"/>
       <use xlink:href="#DejaVuSans-2e" x="63.623047"/>
       <use xlink:href="#DejaVuSans-30" x="95.410156"/>
      </g>
     </g>
    </g>
    <g id="xtick_20">
     <g id="line2d_51">
      <path d="M 117.106898 303.64 
L 117.106898 244.72 
" clip-path="url(#pb64079d4b0)" style="fill: none; stroke: #b0b0b0; stroke-width: 0.8; stroke-linecap: square"/>
     </g>
     <g id="line2d_52">
      <g>
       <use xlink:href="#m4d348b976f" x="117.106898" y="303.64" style="stroke: #000000; stroke-width: 0.8"/>
      </g>
     </g>
     <g id="text_31">
      <!-- 2.5 -->
      <g transform="translate(109.155336 318.238437)scale(0.1 -0.1)">
       <use xlink:href="#DejaVuSans-32"/>
       <use xlink:href="#DejaVuSans-2e" x="63.623047"/>
       <use xlink:href="#DejaVuSans-35" x="95.410156"/>
      </g>
     </g>
    </g>
    <g id="xtick_21">
     <g id="line2d_53">
      <path d="M 162.104614 303.64 
L 162.104614 244.72 
" clip-path="url(#pb64079d4b0)" style="fill: none; stroke: #b0b0b0; stroke-width: 0.8; stroke-linecap: square"/>
     </g>
     <g id="line2d_54">
      <g>
       <use xlink:href="#m4d348b976f" x="162.104614" y="303.64" style="stroke: #000000; stroke-width: 0.8"/>
      </g>
     </g>
     <g id="text_32">
      <!-- 5.0 -->
      <g transform="translate(154.153051 318.238437)scale(0.1 -0.1)">
       <use xlink:href="#DejaVuSans-35"/>
       <use xlink:href="#DejaVuSans-2e" x="63.623047"/>
       <use xlink:href="#DejaVuSans-30" x="95.410156"/>
      </g>
     </g>
    </g>
    <g id="xtick_22">
     <g id="line2d_55">
      <path d="M 207.10233 303.64 
L 207.10233 244.72 
" clip-path="url(#pb64079d4b0)" style="fill: none; stroke: #b0b0b0; stroke-width: 0.8; stroke-linecap: square"/>
     </g>
     <g id="line2d_56">
      <g>
       <use xlink:href="#m4d348b976f" x="207.10233" y="303.64" style="stroke: #000000; stroke-width: 0.8"/>
      </g>
     </g>
     <g id="text_33">
      <!-- 7.5 -->
      <g transform="translate(199.150767 318.238437)scale(0.1 -0.1)">
       <use xlink:href="#DejaVuSans-37"/>
       <use xlink:href="#DejaVuSans-2e" x="63.623047"/>
       <use xlink:href="#DejaVuSans-35" x="95.410156"/>
      </g>
     </g>
    </g>
    <g id="xtick_23">
     <g id="line2d_57">
      <path d="M 252.100046 303.64 
L 252.100046 244.72 
" clip-path="url(#pb64079d4b0)" style="fill: none; stroke: #b0b0b0; stroke-width: 0.8; stroke-linecap: square"/>
     </g>
     <g id="line2d_58">
      <g>
       <use xlink:href="#m4d348b976f" x="252.100046" y="303.64" style="stroke: #000000; stroke-width: 0.8"/>
      </g>
     </g>
     <g id="text_34">
      <!-- 10.0 -->
      <g transform="translate(240.967233 318.238437)scale(0.1 -0.1)">
       <use xlink:href="#DejaVuSans-31"/>
       <use xlink:href="#DejaVuSans-30" x="63.623047"/>
       <use xlink:href="#DejaVuSans-2e" x="127.246094"/>
       <use xlink:href="#DejaVuSans-30" x="159.033203"/>
      </g>
     </g>
    </g>
    <g id="xtick_24">
     <g id="line2d_59">
      <path d="M 297.097762 303.64 
L 297.097762 244.72 
" clip-path="url(#pb64079d4b0)" style="fill: none; stroke: #b0b0b0; stroke-width: 0.8; stroke-linecap: square"/>
     </g>
     <g id="line2d_60">
      <g>
       <use xlink:href="#m4d348b976f" x="297.097762" y="303.64" style="stroke: #000000; stroke-width: 0.8"/>
      </g>
     </g>
     <g id="text_35">
      <!-- 12.5 -->
      <g transform="translate(285.964949 318.238437)scale(0.1 -0.1)">
       <use xlink:href="#DejaVuSans-31"/>
       <use xlink:href="#DejaVuSans-32" x="63.623047"/>
       <use xlink:href="#DejaVuSans-2e" x="127.246094"/>
       <use xlink:href="#DejaVuSans-35" x="159.033203"/>
      </g>
     </g>
    </g>
    <g id="xtick_25">
     <g id="line2d_61">
      <path d="M 342.095477 303.64 
L 342.095477 244.72 
" clip-path="url(#pb64079d4b0)" style="fill: none; stroke: #b0b0b0; stroke-width: 0.8; stroke-linecap: square"/>
     </g>
     <g id="line2d_62">
      <g>
       <use xlink:href="#m4d348b976f" x="342.095477" y="303.64" style="stroke: #000000; stroke-width: 0.8"/>
      </g>
     </g>
     <g id="text_36">
      <!-- 15.0 -->
      <g transform="translate(330.962665 318.238437)scale(0.1 -0.1)">
       <use xlink:href="#DejaVuSans-31"/>
       <use xlink:href="#DejaVuSans-35" x="63.623047"/>
       <use xlink:href="#DejaVuSans-2e" x="127.246094"/>
       <use xlink:href="#DejaVuSans-30" x="159.033203"/>
      </g>
     </g>
    </g>
    <g id="xtick_26">
     <g id="line2d_63">
      <path d="M 387.093193 303.64 
L 387.093193 244.72 
" clip-path="url(#pb64079d4b0)" style="fill: none; stroke: #b0b0b0; stroke-width: 0.8; stroke-linecap: square"/>
     </g>
     <g id="line2d_64">
      <g>
       <use xlink:href="#m4d348b976f" x="387.093193" y="303.64" style="stroke: #000000; stroke-width: 0.8"/>
      </g>
     </g>
     <g id="text_37">
      <!-- 17.5 -->
      <g transform="translate(375.960381 318.238437)scale(0.1 -0.1)">
       <use xlink:href="#DejaVuSans-31"/>
       <use xlink:href="#DejaVuSans-37" x="63.623047"/>
       <use xlink:href="#DejaVuSans-2e" x="127.246094"/>
       <use xlink:href="#DejaVuSans-35" x="159.033203"/>
      </g>
     </g>
    </g>
    <g id="xtick_27">
     <g id="line2d_65">
      <path d="M 432.090909 303.64 
L 432.090909 244.72 
" clip-path="url(#pb64079d4b0)" style="fill: none; stroke: #b0b0b0; stroke-width: 0.8; stroke-linecap: square"/>
     </g>
     <g id="line2d_66">
      <g>
       <use xlink:href="#m4d348b976f" x="432.090909" y="303.64" style="stroke: #000000; stroke-width: 0.8"/>
      </g>
     </g>
     <g id="text_38">
      <!-- 20.0 -->
      <g transform="translate(420.958097 318.238437)scale(0.1 -0.1)">
       <use xlink:href="#DejaVuSans-32"/>
       <use xlink:href="#DejaVuSans-30" x="63.623047"/>
       <use xlink:href="#DejaVuSans-2e" x="127.246094"/>
       <use xlink:href="#DejaVuSans-30" x="159.033203"/>
      </g>
     </g>
    </g>
    <g id="text_39">
     <!-- t [s] -->
     <g transform="translate(242.944531 331.916562)scale(0.1 -0.1)">
      <use xlink:href="#DejaVuSans-74"/>
      <use xlink:href="#DejaVuSans-20" x="39.208984"/>
      <use xlink:href="#DejaVuSans-5b" x="70.996094"/>
      <use xlink:href="#DejaVuSans-73" x="110.009766"/>
      <use xlink:href="#DejaVuSans-5d" x="162.109375"/>
     </g>
    </g>
   </g>
   <g id="matplotlib.axis_6">
    <g id="ytick_5">
     <g id="line2d_67">
      <path d="M 56 301.87837 
L 450 301.87837 
" clip-path="url(#pb64079d4b0)" style="fill: none; stroke: #b0b0b0; stroke-width: 0.8; stroke-linecap: square"/>
     </g>
     <g id="line2d_68">
      <g>
       <use xlink:href="#m49579d7243" x="56" y="301.87837" style="stroke: #000000; stroke-width: 0.8"/>
      </g>
     </g>
     <g id="text_40">
      <!-- 0 -->
      <g transform="translate(42.6375 305.677589)scale(0.1 -0.1)">
       <use xlink:href="#DejaVuSans-30"/>
      </g>
     </g>
    </g>
    <g id="ytick_6">
     <g id="line2d_69">
      <path d="M 56 268.187917 
L 450 268.187917 
" clip-path="url(#pb64079d4b0)" style="fill: none; stroke: #b0b0b0; stroke-width: 0.8; stroke-linecap: square"/>
     </g>
     <g id="line2d_70">
      <g>
       <use xlink:href="#m49579d7243" x="56" y="268.187917" style="stroke: #000000; stroke-width: 0.8"/>
      </g>
     </g>
     <g id="text_41">
      <!-- 2 -->
      <g transform="translate(42.6375 271.987135)scale(0.1 -0.1)">
       <use xlink:href="#DejaVuSans-32"/>
      </g>
     </g>
    </g>
    <g id="text_42">
     <!-- z [m] -->
     <g transform="translate(36.557813 287.165156)rotate(-90)scale(0.1 -0.1)">
      <defs>
       <path id="DejaVuSans-7a" d="M 353 3500 
L 3084 3500 
L 3084 2975 
L 922 459 
L 3084 459 
L 3084 0 
L 275 0 
L 275 525 
L 2438 3041 
L 353 3041 
L 353 3500 
z
" transform="scale(0.015625)"/>
      </defs>
      <use xlink:href="#DejaVuSans-7a"/>
      <use xlink:href="#DejaVuSans-20" x="52.490234"/>
      <use xlink:href="#DejaVuSans-5b" x="84.277344"/>
      <use xlink:href="#DejaVuSans-6d" x="123.291016"/>
      <use xlink:href="#DejaVuSans-5d" x="220.703125"/>
     </g>
    </g>
   </g>
   <g id="line2d_71">
    <path d="M 73.909091 300.960327 
L 194.502969 300.868715 
L 196.302878 300.436248 
L 198.102787 299.828575 
L 199.902695 298.952543 
L 203.502513 296.307349 
L 207.10233 293.286558 
L 208.902238 291.983878 
L 210.702147 290.011501 
L 212.502056 288.687518 
L 219.70169 283.902566 
L 221.501599 282.057861 
L 230.501142 276.413355 
L 232.301051 274.750366 
L 237.700777 271.737401 
L 241.300594 269.880568 
L 243.100503 268.679258 
L 246.70032 267.005585 
L 252.100046 264.810031 
L 253.899954 264.116271 
L 255.699863 263.217819 
L 266.499315 259.836781 
L 270.099132 258.988543 
L 271.899041 258.610649 
L 273.698949 258.077933 
L 284.498401 256.120102 
L 297.097762 254.374539 
L 300.697579 254.247619 
L 304.297396 254.37499 
L 306.097305 254.488131 
L 307.897213 254.489715 
L 311.497031 254.13312 
L 318.696665 252.920828 
L 325.8963 252.057288 
L 331.296026 251.642136 
L 334.895843 251.260256 
L 338.49566 251.342102 
L 343.895386 251.5971 
L 345.695295 251.526387 
L 347.495203 251.299899 
L 351.095021 251.320356 
L 361.894472 252.035489 
L 363.694381 252.185432 
L 365.49429 252.449316 
L 369.094107 252.581666 
L 372.693924 252.498916 
L 378.09365 252.138666 
L 392.492919 251.022333 
L 399.692554 250.402706 
L 405.09228 250.005914 
L 408.692097 249.526833 
L 415.891731 248.854617 
L 419.491549 248.304621 
L 423.091366 247.95049 
L 432.090909 247.398182 
L 432.090909 247.398182 
" clip-path="url(#pb64079d4b0)" style="fill: none; stroke: #ff0000; stroke-width: 1.5; stroke-linecap: square"/>
   </g>
   <g id="patch_15">
    <path d="M 56 303.64 
L 56 244.72 
" style="fill: none; stroke: #000000; stroke-width: 0.8; stroke-linejoin: miter; stroke-linecap: square"/>
   </g>
   <g id="patch_16">
    <path d="M 450 303.64 
L 450 244.72 
" style="fill: none; stroke: #000000; stroke-width: 0.8; stroke-linejoin: miter; stroke-linecap: square"/>
   </g>
   <g id="patch_17">
    <path d="M 56 303.64 
L 450 303.64 
" style="fill: none; stroke: #000000; stroke-width: 0.8; stroke-linejoin: miter; stroke-linecap: square"/>
   </g>
   <g id="patch_18">
    <path d="M 56 244.72 
L 450 244.72 
" style="fill: none; stroke: #000000; stroke-width: 0.8; stroke-linejoin: miter; stroke-linecap: square"/>
   </g>
   <g id="legend_3">
    <g id="patch_19">
     <path d="M 63 267.398125 
L 190.882812 267.398125 
Q 192.882812 267.398125 192.882812 265.398125 
L 192.882812 251.72 
Q 192.882812 249.72 190.882812 249.72 
L 63 249.72 
Q 61 249.72 61 251.72 
L 61 265.398125 
Q 61 267.398125 63 267.398125 
z
" style="fill: #ffffff; opacity: 0.8; stroke: #cccccc; stroke-linejoin: miter"/>
    </g>
    <g id="line2d_72">
     <path d="M 65 257.818437 
L 75 257.818437 
L 85 257.818437 
" style="fill: none; stroke: #ff0000; stroke-width: 1.5; stroke-linecap: square"/>
    </g>
    <g id="text_43">
     <!-- Drone z movement -->
     <g transform="translate(93 261.318437)scale(0.1 -0.1)">
      <use xlink:href="#DejaVuSans-44"/>
      <use xlink:href="#DejaVuSans-72" x="77.001953"/>
      <use xlink:href="#DejaVuSans-6f" x="115.865234"/>
      <use xlink:href="#DejaVuSans-6e" x="177.046875"/>
      <use xlink:href="#DejaVuSans-65" x="240.425781"/>
      <use xlink:href="#DejaVuSans-20" x="301.949219"/>
      <use xlink:href="#DejaVuSans-7a" x="333.736328"/>
      <use xlink:href="#DejaVuSans-20" x="386.226562"/>
      <use xlink:href="#DejaVuSans-6d" x="418.013672"/>
      <use xlink:href="#DejaVuSans-6f" x="515.425781"/>
      <use xlink:href="#DejaVuSans-76" x="576.607422"/>
      <use xlink:href="#DejaVuSans-65" x="635.787109"/>
      <use xlink:href="#DejaVuSans-6d" x="697.310547"/>
      <use xlink:href="#DejaVuSans-65" x="794.722656"/>
      <use xlink:href="#DejaVuSans-6e" x="856.246094"/>
      <use xlink:href="#DejaVuSans-74" x="919.625"/>
     </g>
    </g>
   </g>
  </g>
 </g>
 <defs>
  <clipPath id="p34e167c3fd">
   <rect x="56" y="10.8" width="394" height="58.92"/>
  </clipPath>
  <clipPath id="p31a8b2e456">
   <rect x="56" y="127.76" width="394" height="58.92"/>
  </clipPath>
  <clipPath id="pb64079d4b0">
   <rect x="56" y="244.72" width="394" height="58.92"/>
  </clipPath>
 </defs>
</svg>
