<?xml version="1.0" encoding="utf-8" standalone="no"?>
<!DOCTYPE svg PUBLIC "-//W3C//DTD SVG 1.1//EN"
  "http://www.w3.org/Graphics/SVG/1.1/DTD/svg11.dtd">
<svg xmlns:xlink="http://www.w3.org/1999/xlink" width="460.8pt" height="345.6pt" viewBox="0 0 460.8 345.6" xmlns="http://www.w3.org/2000/svg" version="1.1">
 <metadata>
  <rdf:RDF xmlns:dc="http://purl.org/dc/elements/1.1/" xmlns:cc="http://creativecommons.org/ns#" xmlns:rdf="http://www.w3.org/1999/02/22-rdf-syntax-ns#">
   <cc:Work>
    <dc:type rdf:resource="http://purl.org/dc/dcmitype/StillImage"/>
    <dc:date>2022-05-31T13:36:07.963428</dc:date>
    <dc:format>image/svg+xml</dc:format>
    <dc:creator>
     <cc:Agent>
      <dc:title>Matplotlib v3.5.1, https://matplotlib.org/</dc:title>
     </cc:Agent>
    </dc:creator>
   </cc:Work>
  </rdf:RDF>
 </metadata>
 <defs>
  <style type="text/css">*{stroke-linejoin: round; stroke-linecap: butt}</style>
 </defs>
 <g id="figure_1">
  <g id="patch_1">
   <path d="M 0 345.6 
L 460.8 345.6 
L 460.8 0 
L 0 0 
z
" style="fill: #ffffff"/>
  </g>
  <g id="axes_1">
   <g id="patch_2">
    <path d="M 44.57 303.64 
L 450 303.64 
L 450 26.88 
L 44.57 26.88 
z
" style="fill: #ffffff"/>
   </g>
   <g id="matplotlib.axis_1">
    <g id="xtick_1">
     <g id="line2d_1">
      <path d="M 62.998636 303.64 
L 62.998636 26.88 
" clip-path="url(#p623cf04aa0)" style="fill: none; stroke: #b0b0b0; stroke-width: 0.8; stroke-linecap: square"/>
     </g>
     <g id="line2d_2">
      <defs>
       <path id="m337ba54f4e" d="M 0 0 
L 0 3.5 
" style="stroke: #000000; stroke-width: 0.8"/>
      </defs>
      <g>
       <use xlink:href="#m337ba54f4e" x="62.998636" y="303.64" style="stroke: #000000; stroke-width: 0.8"/>
      </g>
     </g>
     <g id="text_1">
      <!-- 0 -->
      <g transform="translate(59.817386 318.238437)scale(0.1 -0.1)">
       <defs>
        <path id="DejaVuSans-30" d="M 2034 4250 
Q 1547 4250 1301 3770 
Q 1056 3291 1056 2328 
Q 1056 1369 1301 889 
Q 1547 409 2034 409 
Q 2525 409 2770 889 
Q 3016 1369 3016 2328 
Q 3016 3291 2770 3770 
Q 2525 4250 2034 4250 
z
M 2034 4750 
Q 2819 4750 3233 4129 
Q 3647 3509 3647 2328 
Q 3647 1150 3233 529 
Q 2819 -91 2034 -91 
Q 1250 -91 836 529 
Q 422 1150 422 2328 
Q 422 3509 836 4129 
Q 1250 4750 2034 4750 
z
" transform="scale(0.015625)"/>
       </defs>
       <use xlink:href="#DejaVuSans-30"/>
      </g>
     </g>
    </g>
    <g id="xtick_2">
     <g id="line2d_3">
      <path d="M 150.858643 303.64 
L 150.858643 26.88 
" clip-path="url(#p623cf04aa0)" style="fill: none; stroke: #b0b0b0; stroke-width: 0.8; stroke-linecap: square"/>
     </g>
     <g id="line2d_4">
      <g>
       <use xlink:href="#m337ba54f4e" x="150.858643" y="303.64" style="stroke: #000000; stroke-width: 0.8"/>
      </g>
     </g>
     <g id="text_2">
      <!-- 2 -->
      <g transform="translate(147.677393 318.238437)scale(0.1 -0.1)">
       <defs>
        <path id="DejaVuSans-32" d="M 1228 531 
L 3431 531 
L 3431 0 
L 469 0 
L 469 531 
Q 828 903 1448 1529 
Q 2069 2156 2228 2338 
Q 2531 2678 2651 2914 
Q 2772 3150 2772 3378 
Q 2772 3750 2511 3984 
Q 2250 4219 1831 4219 
Q 1534 4219 1204 4116 
Q 875 4013 500 3803 
L 500 4441 
Q 881 4594 1212 4672 
Q 1544 4750 1819 4750 
Q 2544 4750 2975 4387 
Q 3406 4025 3406 3419 
Q 3406 3131 3298 2873 
Q 3191 2616 2906 2266 
Q 2828 2175 2409 1742 
Q 1991 1309 1228 531 
z
" transform="scale(0.015625)"/>
       </defs>
       <use xlink:href="#DejaVuSans-32"/>
      </g>
     </g>
    </g>
    <g id="xtick_3">
     <g id="line2d_5">
      <path d="M 238.718649 303.64 
L 238.718649 26.88 
" clip-path="url(#p623cf04aa0)" style="fill: none; stroke: #b0b0b0; stroke-width: 0.8; stroke-linecap: square"/>
     </g>
     <g id="line2d_6">
      <g>
       <use xlink:href="#m337ba54f4e" x="238.718649" y="303.64" style="stroke: #000000; stroke-width: 0.8"/>
      </g>
     </g>
     <g id="text_3">
      <!-- 4 -->
      <g transform="translate(235.537399 318.238437)scale(0.1 -0.1)">
       <defs>
        <path id="DejaVuSans-34" d="M 2419 4116 
L 825 1625 
L 2419 1625 
L 2419 4116 
z
M 2253 4666 
L 3047 4666 
L 3047 1625 
L 3713 1625 
L 3713 1100 
L 3047 1100 
L 3047 0 
L 2419 0 
L 2419 1100 
L 313 1100 
L 313 1709 
L 2253 4666 
z
" transform="scale(0.015625)"/>
       </defs>
       <use xlink:href="#DejaVuSans-34"/>
      </g>
     </g>
    </g>
    <g id="xtick_4">
     <g id="line2d_7">
      <path d="M 326.578656 303.64 
L 326.578656 26.88 
" clip-path="url(#p623cf04aa0)" style="fill: none; stroke: #b0b0b0; stroke-width: 0.8; stroke-linecap: square"/>
     </g>
     <g id="line2d_8">
      <g>
       <use xlink:href="#m337ba54f4e" x="326.578656" y="303.64" style="stroke: #000000; stroke-width: 0.8"/>
      </g>
     </g>
     <g id="text_4">
      <!-- 6 -->
      <g transform="translate(323.397406 318.238437)scale(0.1 -0.1)">
       <defs>
        <path id="DejaVuSans-36" d="M 2113 2584 
Q 1688 2584 1439 2293 
Q 1191 2003 1191 1497 
Q 1191 994 1439 701 
Q 1688 409 2113 409 
Q 2538 409 2786 701 
Q 3034 994 3034 1497 
Q 3034 2003 2786 2293 
Q 2538 2584 2113 2584 
z
M 3366 4563 
L 3366 3988 
Q 3128 4100 2886 4159 
Q 2644 4219 2406 4219 
Q 1781 4219 1451 3797 
Q 1122 3375 1075 2522 
Q 1259 2794 1537 2939 
Q 1816 3084 2150 3084 
Q 2853 3084 3261 2657 
Q 3669 2231 3669 1497 
Q 3669 778 3244 343 
Q 2819 -91 2113 -91 
Q 1303 -91 875 529 
Q 447 1150 447 2328 
Q 447 3434 972 4092 
Q 1497 4750 2381 4750 
Q 2619 4750 2861 4703 
Q 3103 4656 3366 4563 
z
" transform="scale(0.015625)"/>
       </defs>
       <use xlink:href="#DejaVuSans-36"/>
      </g>
     </g>
    </g>
    <g id="xtick_5">
     <g id="line2d_9">
      <path d="M 414.438662 303.64 
L 414.438662 26.88 
" clip-path="url(#p623cf04aa0)" style="fill: none; stroke: #b0b0b0; stroke-width: 0.8; stroke-linecap: square"/>
     </g>
     <g id="line2d_10">
      <g>
       <use xlink:href="#m337ba54f4e" x="414.438662" y="303.64" style="stroke: #000000; stroke-width: 0.8"/>
      </g>
     </g>
     <g id="text_5">
      <!-- 8 -->
      <g transform="translate(411.257412 318.238437)scale(0.1 -0.1)">
       <defs>
        <path id="DejaVuSans-38" d="M 2034 2216 
Q 1584 2216 1326 1975 
Q 1069 1734 1069 1313 
Q 1069 891 1326 650 
Q 1584 409 2034 409 
Q 2484 409 2743 651 
Q 3003 894 3003 1313 
Q 3003 1734 2745 1975 
Q 2488 2216 2034 2216 
z
M 1403 2484 
Q 997 2584 770 2862 
Q 544 3141 544 3541 
Q 544 4100 942 4425 
Q 1341 4750 2034 4750 
Q 2731 4750 3128 4425 
Q 3525 4100 3525 3541 
Q 3525 3141 3298 2862 
Q 3072 2584 2669 2484 
Q 3125 2378 3379 2068 
Q 3634 1759 3634 1313 
Q 3634 634 3220 271 
Q 2806 -91 2034 -91 
Q 1263 -91 848 271 
Q 434 634 434 1313 
Q 434 1759 690 2068 
Q 947 2378 1403 2484 
z
M 1172 3481 
Q 1172 3119 1398 2916 
Q 1625 2713 2034 2713 
Q 2441 2713 2670 2916 
Q 2900 3119 2900 3481 
Q 2900 3844 2670 4047 
Q 2441 4250 2034 4250 
Q 1625 4250 1398 4047 
Q 1172 3844 1172 3481 
z
" transform="scale(0.015625)"/>
       </defs>
       <use xlink:href="#DejaVuSans-38"/>
      </g>
     </g>
    </g>
    <g id="text_6">
     <!-- t [s] -->
     <g transform="translate(237.229531 331.916562)scale(0.1 -0.1)">
      <defs>
       <path id="DejaVuSans-74" d="M 1172 4494 
L 1172 3500 
L 2356 3500 
L 2356 3053 
L 1172 3053 
L 1172 1153 
Q 1172 725 1289 603 
Q 1406 481 1766 481 
L 2356 481 
L 2356 0 
L 1766 0 
Q 1100 0 847 248 
Q 594 497 594 1153 
L 594 3053 
L 172 3053 
L 172 3500 
L 594 3500 
L 594 4494 
L 1172 4494 
z
" transform="scale(0.015625)"/>
       <path id="DejaVuSans-20" transform="scale(0.015625)"/>
       <path id="DejaVuSans-5b" d="M 550 4863 
L 1875 4863 
L 1875 4416 
L 1125 4416 
L 1125 -397 
L 1875 -397 
L 1875 -844 
L 550 -844 
L 550 4863 
z
" transform="scale(0.015625)"/>
       <path id="DejaVuSans-73" d="M 2834 3397 
L 2834 2853 
Q 2591 2978 2328 3040 
Q 2066 3103 1784 3103 
Q 1356 3103 1142 2972 
Q 928 2841 928 2578 
Q 928 2378 1081 2264 
Q 1234 2150 1697 2047 
L 1894 2003 
Q 2506 1872 2764 1633 
Q 3022 1394 3022 966 
Q 3022 478 2636 193 
Q 2250 -91 1575 -91 
Q 1294 -91 989 -36 
Q 684 19 347 128 
L 347 722 
Q 666 556 975 473 
Q 1284 391 1588 391 
Q 1994 391 2212 530 
Q 2431 669 2431 922 
Q 2431 1156 2273 1281 
Q 2116 1406 1581 1522 
L 1381 1569 
Q 847 1681 609 1914 
Q 372 2147 372 2553 
Q 372 3047 722 3315 
Q 1072 3584 1716 3584 
Q 2034 3584 2315 3537 
Q 2597 3491 2834 3397 
z
" transform="scale(0.015625)"/>
       <path id="DejaVuSans-5d" d="M 1947 4863 
L 1947 -844 
L 622 -844 
L 622 -397 
L 1369 -397 
L 1369 4416 
L 622 4416 
L 622 4863 
L 1947 4863 
z
" transform="scale(0.015625)"/>
      </defs>
      <use xlink:href="#DejaVuSans-74"/>
      <use xlink:href="#DejaVuSans-20" x="39.208984"/>
      <use xlink:href="#DejaVuSans-5b" x="70.996094"/>
      <use xlink:href="#DejaVuSans-73" x="110.009766"/>
      <use xlink:href="#DejaVuSans-5d" x="162.109375"/>
     </g>
    </g>
   </g>
   <g id="matplotlib.axis_2">
    <g id="ytick_1">
     <g id="line2d_11">
      <path d="M 44.57 291.048202 
L 450 291.048202 
" clip-path="url(#p623cf04aa0)" style="fill: none; stroke: #b0b0b0; stroke-width: 0.8; stroke-linecap: square"/>
     </g>
     <g id="line2d_12">
      <defs>
       <path id="m2b838077d6" d="M 0 0 
L -3.5 0 
" style="stroke: #000000; stroke-width: 0.8"/>
      </defs>
      <g>
       <use xlink:href="#m2b838077d6" x="44.57" y="291.048202" style="stroke: #000000; stroke-width: 0.8"/>
      </g>
     </g>
     <g id="text_7">
      <!-- 0 -->
      <g transform="translate(31.2075 294.847421)scale(0.1 -0.1)">
       <use xlink:href="#DejaVuSans-30"/>
      </g>
     </g>
    </g>
    <g id="ytick_2">
     <g id="line2d_13">
      <path d="M 44.57 249.558628 
L 450 249.558628 
" clip-path="url(#p623cf04aa0)" style="fill: none; stroke: #b0b0b0; stroke-width: 0.8; stroke-linecap: square"/>
     </g>
     <g id="line2d_14">
      <g>
       <use xlink:href="#m2b838077d6" x="44.57" y="249.558628" style="stroke: #000000; stroke-width: 0.8"/>
      </g>
     </g>
     <g id="text_8">
      <!-- 2 -->
      <g transform="translate(31.2075 253.357847)scale(0.1 -0.1)">
       <use xlink:href="#DejaVuSans-32"/>
      </g>
     </g>
    </g>
    <g id="ytick_3">
     <g id="line2d_15">
      <path d="M 44.57 208.069054 
L 450 208.069054 
" clip-path="url(#p623cf04aa0)" style="fill: none; stroke: #b0b0b0; stroke-width: 0.8; stroke-linecap: square"/>
     </g>
     <g id="line2d_16">
      <g>
       <use xlink:href="#m2b838077d6" x="44.57" y="208.069054" style="stroke: #000000; stroke-width: 0.8"/>
      </g>
     </g>
     <g id="text_9">
      <!-- 4 -->
      <g transform="translate(31.2075 211.868272)scale(0.1 -0.1)">
       <use xlink:href="#DejaVuSans-34"/>
      </g>
     </g>
    </g>
    <g id="ytick_4">
     <g id="line2d_17">
      <path d="M 44.57 166.579479 
L 450 166.579479 
" clip-path="url(#p623cf04aa0)" style="fill: none; stroke: #b0b0b0; stroke-width: 0.8; stroke-linecap: square"/>
     </g>
     <g id="line2d_18">
      <g>
       <use xlink:href="#m2b838077d6" x="44.57" y="166.579479" style="stroke: #000000; stroke-width: 0.8"/>
      </g>
     </g>
     <g id="text_10">
      <!-- 6 -->
      <g transform="translate(31.2075 170.378698)scale(0.1 -0.1)">
       <use xlink:href="#DejaVuSans-36"/>
      </g>
     </g>
    </g>
    <g id="ytick_5">
     <g id="line2d_19">
      <path d="M 44.57 125.089905 
L 450 125.089905 
" clip-path="url(#p623cf04aa0)" style="fill: none; stroke: #b0b0b0; stroke-width: 0.8; stroke-linecap: square"/>
     </g>
     <g id="line2d_20">
      <g>
       <use xlink:href="#m2b838077d6" x="44.57" y="125.089905" style="stroke: #000000; stroke-width: 0.8"/>
      </g>
     </g>
     <g id="text_11">
      <!-- 8 -->
      <g transform="translate(31.2075 128.889124)scale(0.1 -0.1)">
       <use xlink:href="#DejaVuSans-38"/>
      </g>
     </g>
    </g>
    <g id="ytick_6">
     <g id="line2d_21">
      <path d="M 44.57 83.600331 
L 450 83.600331 
" clip-path="url(#p623cf04aa0)" style="fill: none; stroke: #b0b0b0; stroke-width: 0.8; stroke-linecap: square"/>
     </g>
     <g id="line2d_22">
      <g>
       <use xlink:href="#m2b838077d6" x="44.57" y="83.600331" style="stroke: #000000; stroke-width: 0.8"/>
      </g>
     </g>
     <g id="text_12">
      <!-- 10 -->
      <g transform="translate(24.845 87.39955)scale(0.1 -0.1)">
       <defs>
        <path id="DejaVuSans-31" d="M 794 531 
L 1825 531 
L 1825 4091 
L 703 3866 
L 703 4441 
L 1819 4666 
L 2450 4666 
L 2450 531 
L 3481 531 
L 3481 0 
L 794 0 
L 794 531 
z
" transform="scale(0.015625)"/>
       </defs>
       <use xlink:href="#DejaVuSans-31"/>
       <use xlink:href="#DejaVuSans-30" x="63.623047"/>
      </g>
     </g>
    </g>
    <g id="ytick_7">
     <g id="line2d_23">
      <path d="M 44.57 42.110757 
L 450 42.110757 
" clip-path="url(#p623cf04aa0)" style="fill: none; stroke: #b0b0b0; stroke-width: 0.8; stroke-linecap: square"/>
     </g>
     <g id="line2d_24">
      <g>
       <use xlink:href="#m2b838077d6" x="44.57" y="42.110757" style="stroke: #000000; stroke-width: 0.8"/>
      </g>
     </g>
     <g id="text_13">
      <!-- 12 -->
      <g transform="translate(24.845 45.909975)scale(0.1 -0.1)">
       <use xlink:href="#DejaVuSans-31"/>
       <use xlink:href="#DejaVuSans-32" x="63.623047"/>
      </g>
     </g>
    </g>
    <g id="text_14">
     <!-- x [m] -->
     <g transform="translate(18.765313 178.580312)rotate(-90)scale(0.1 -0.1)">
      <defs>
       <path id="DejaVuSans-78" d="M 3513 3500 
L 2247 1797 
L 3578 0 
L 2900 0 
L 1881 1375 
L 863 0 
L 184 0 
L 1544 1831 
L 300 3500 
L 978 3500 
L 1906 2253 
L 2834 3500 
L 3513 3500 
z
" transform="scale(0.015625)"/>
       <path id="DejaVuSans-6d" d="M 3328 2828 
Q 3544 3216 3844 3400 
Q 4144 3584 4550 3584 
Q 5097 3584 5394 3201 
Q 5691 2819 5691 2113 
L 5691 0 
L 5113 0 
L 5113 2094 
Q 5113 2597 4934 2840 
Q 4756 3084 4391 3084 
Q 3944 3084 3684 2787 
Q 3425 2491 3425 1978 
L 3425 0 
L 2847 0 
L 2847 2094 
Q 2847 2600 2669 2842 
Q 2491 3084 2119 3084 
Q 1678 3084 1418 2786 
Q 1159 2488 1159 1978 
L 1159 0 
L 581 0 
L 581 3500 
L 1159 3500 
L 1159 2956 
Q 1356 3278 1631 3431 
Q 1906 3584 2284 3584 
Q 2666 3584 2933 3390 
Q 3200 3197 3328 2828 
z
" transform="scale(0.015625)"/>
      </defs>
      <use xlink:href="#DejaVuSans-78"/>
      <use xlink:href="#DejaVuSans-20" x="59.179688"/>
      <use xlink:href="#DejaVuSans-5b" x="90.966797"/>
      <use xlink:href="#DejaVuSans-6d" x="129.980469"/>
      <use xlink:href="#DejaVuSans-5d" x="227.392578"/>
     </g>
    </g>
   </g>
   <g id="line2d_25">
    <path d="M 62.998636 291.047094 
L 95.067539 290.942112 
L 127.575741 290.389652 
L 130.211541 290.126832 
L 131.968741 289.880592 
L 132.847342 289.675007 
L 134.604542 289.300981 
L 135.043842 289.108749 
L 135.483142 289.108749 
L 135.922442 288.845572 
L 137.240342 288.495995 
L 138.118942 288.109528 
L 138.997542 287.759445 
L 139.436842 287.537266 
L 139.876142 287.461195 
L 140.315442 287.146926 
L 141.194042 286.731799 
L 141.633342 286.470967 
L 142.511942 286.20141 
L 142.951242 285.828569 
L 144.269142 285.139716 
L 145.147742 284.725643 
L 145.587042 284.296959 
L 146.026343 284.296959 
L 146.465643 283.740874 
L 147.783543 283.044424 
L 148.222843 282.562774 
L 148.662143 282.562774 
L 149.101443 281.94156 
L 150.419343 281.168558 
L 150.858643 280.636861 
L 151.297943 280.636861 
L 151.737243 279.954226 
L 153.055143 279.109201 
L 153.494443 278.530517 
L 153.933743 278.530517 
L 154.373043 277.640047 
L 154.812343 277.48906 
L 155.690943 276.877869 
L 156.130243 276.255244 
L 156.569543 276.255244 
L 157.008843 275.461174 
L 158.326743 274.485578 
L 158.766043 273.821653 
L 159.205343 273.485682 
L 160.083944 272.634176 
L 160.962544 271.941155 
L 161.401844 271.237703 
L 161.841144 270.88208 
L 162.280444 270.343782 
L 163.598344 269.249671 
L 164.037644 268.507255 
L 164.476944 268.507255 
L 164.916244 267.564516 
L 166.234144 266.411454 
L 166.673444 265.629381 
L 167.112744 265.629381 
L 167.552044 264.636529 
L 169.309244 263.01205 
L 169.748544 262.391261 
L 170.187844 261.553518 
L 171.505744 260.275102 
L 171.945044 259.408064 
L 172.384344 259.408064 
L 172.823644 258.307405 
L 174.141545 256.961549 
L 174.580845 256.048943 
L 175.020145 256.048943 
L 175.459445 254.890737 
L 176.777345 253.475104 
L 177.216645 252.515636 
L 177.655945 252.031173 
L 178.534545 250.55882 
L 178.973845 250.31066 
L 179.413145 249.811967 
L 179.852445 248.80509 
L 180.291745 248.80509 
L 180.731045 247.528712 
L 182.048945 245.971012 
L 182.488245 244.916792 
L 182.927545 244.916792 
L 183.366845 243.581351 
L 184.684745 241.953026 
L 185.124045 240.851918 
L 185.563345 240.851918 
L 186.002645 239.458127 
L 187.759846 237.188095 
L 188.199146 236.324239 
L 188.638446 235.16182 
L 190.395646 232.800882 
L 190.834946 231.903227 
L 191.274246 230.696016 
L 192.592146 228.86325 
L 193.031446 227.626933 
L 193.470746 227.626933 
L 193.910046 226.065441 
L 195.227946 224.168349 
L 195.667246 222.889694 
L 196.106546 222.246236 
L 196.545846 221.275935 
L 197.863746 219.317139 
L 198.303046 217.997985 
L 198.742346 217.997985 
L 199.181646 216.334344 
L 200.938847 213.639265 
L 201.378147 212.618266 
L 201.817447 211.248317 
L 203.574647 208.479426 
L 204.013947 207.431315 
L 204.453247 206.025698 
L 206.210447 203.187116 
L 206.649747 202.113434 
L 207.089047 200.674193 
L 208.406947 198.49919 
L 208.846247 197.404551 
L 209.285547 195.937763 
L 210.603447 193.72227 
L 211.482047 191.4888 
L 211.921347 191.114837 
L 212.360647 189.614148 
L 213.239247 188.105799 
L 214.117848 185.829139 
L 214.557148 185.448065 
L 214.996448 183.919163 
L 215.875048 182.382945 
L 216.314348 181.226021 
L 216.753648 179.677153 
L 217.192948 179.677153 
L 217.632248 178.121125 
L 218.071548 177.340438 
L 218.510848 176.166074 
L 219.828748 173.805365 
L 220.268048 172.222686 
L 220.707348 171.428681 
L 221.146648 170.234336 
L 222.464548 167.833575 
L 222.903848 166.224071 
L 223.343148 166.224071 
L 223.782448 164.201979 
L 225.539648 160.942757 
L 225.978948 159.712879 
L 226.418248 158.066455 
L 227.736149 155.582545 
L 229.054049 151.824041 
L 229.932649 150.14083 
L 230.811249 147.60108 
L 231.250549 147.176034 
L 231.689849 145.470801 
L 232.568449 143.757452 
L 233.447049 141.172073 
L 233.886349 140.739372 
L 234.325649 139.003464 
L 235.204249 137.259651 
L 236.082849 134.630571 
L 236.522149 134.191024 
L 236.961449 132.429626 
L 237.840049 130.664171 
L 238.718649 128.012009 
L 239.157949 127.569887 
L 239.597249 125.802296 
L 240.475849 124.037808 
L 241.35445 121.401933 
L 241.79375 120.964368 
L 242.23305 119.22043 
L 243.11165 117.488293 
L 243.99025 114.916565 
L 244.42955 114.491389 
L 244.86885 112.801393 
L 246.18675 110.300716 
L 247.50465 106.633782 
L 248.82255 104.249017 
L 250.14045 100.766497 
L 251.45835 98.509777 
L 252.77625 95.22434 
L 254.094151 93.10098 
L 255.412051 90.01649 
L 256.729951 88.026754 
L 257.169251 87.051652 
L 257.608551 85.771804 
L 258.926451 83.89499 
L 259.805051 82.069062 
L 260.244351 81.769638 
L 260.683651 80.585832 
L 261.562251 79.424158 
L 262.440851 77.722775 
L 262.880151 77.443963 
L 263.319451 76.342145 
L 263.758751 75.799223 
L 264.198051 74.994706 
L 265.955251 72.906146 
L 266.394551 72.143756 
L 266.833851 71.144447 
L 268.151752 69.68154 
L 268.591052 68.729675 
L 269.030352 68.729675 
L 269.469652 67.335893 
L 269.908952 67.107479 
L 270.787552 66.204695 
L 271.226852 65.319009 
L 271.666152 65.319009 
L 272.105452 64.235405 
L 273.862652 62.554526 
L 275.180552 60.739221 
L 276.059152 59.957663 
L 277.377052 58.255425 
L 279.573552 56.280944 
L 280.012852 55.592262 
L 282.209353 53.940564 
L 282.648653 53.153134 
L 284.845153 51.657778 
L 285.284453 50.950973 
L 287.480953 49.495108 
L 287.920253 49.000213 
L 290.116753 47.736201 
L 290.556053 47.31219 
L 292.313253 46.428215 
L 293.631153 45.724028 
L 294.509753 45.32284 
L 294.949054 45.096453 
L 295.388354 45.023373 
L 295.827654 44.742934 
L 300.659954 43.378273 
L 304.613654 42.807269 
L 307.688754 42.787927 
L 310.763855 43.09909 
L 312.521055 43.412453 
L 314.717555 43.868069 
L 315.596155 44.1641 
L 316.914055 44.550735 
L 317.353355 44.66923 
L 318.231955 45.045757 
L 319.549855 45.524264 
L 319.989155 45.668606 
L 320.428455 45.967299 
L 321.746356 46.521628 
L 322.185656 46.771312 
L 322.624956 46.856134 
L 323.064256 47.203312 
L 324.382156 47.840816 
L 324.821456 48.1255 
L 325.260756 48.221904 
L 325.700056 48.614998 
L 326.578656 49.123008 
L 327.017956 49.436576 
L 327.896556 49.756643 
L 328.335856 50.193423 
L 329.653756 50.985044 
L 330.093056 51.334835 
L 330.532356 51.452827 
L 330.971656 51.931748 
L 332.289556 52.670939 
L 334.046756 54.090873 
L 334.925356 54.628058 
L 336.682557 56.163316 
L 337.121857 56.45169 
L 338.000457 57.334113 
L 338.439757 57.483726 
L 338.879057 58.08948 
L 339.757657 58.706912 
L 340.636257 59.654591 
L 341.075557 59.814987 
L 341.514857 60.463307 
L 342.393457 61.121972 
L 343.272057 62.127821 
L 343.711357 62.297381 
L 344.150657 62.980568 
L 345.029257 63.670917 
L 345.468557 64.192717 
L 345.907857 64.892916 
L 346.347157 64.892916 
L 346.786457 65.597093 
L 347.225757 65.950278 
L 347.665057 66.480975 
L 348.982958 67.543611 
L 349.422258 68.251152 
L 349.861558 68.251152 
L 350.300858 69.132228 
L 352.058058 70.528229 
L 353.375958 72.067712 
L 353.815258 72.404082 
L 354.693858 73.561721 
L 355.133158 73.561721 
L 355.572458 74.208003 
L 356.451058 74.842034 
L 357.329658 75.768209 
L 357.768958 75.91951 
L 358.208258 76.515523 
L 358.647558 76.807862 
L 359.526158 77.66132 
L 359.965458 77.800037 
L 360.404758 78.074384 
L 360.844058 78.610553 
L 361.722658 79.256799 
L 362.161959 79.631566 
L 362.601259 79.754302 
L 363.040559 79.996476 
L 363.479859 80.467563 
L 364.797759 81.249111 
L 365.237059 81.671119 
L 365.676359 81.671119 
L 366.115659 82.075223 
L 368.312159 83.094567 
L 368.751459 83.432065 
L 370.947959 84.270531 
L 371.387259 84.543461 
L 371.826559 84.543461 
L 372.265859 84.861308 
L 374.462359 85.421937 
L 374.901659 85.712534 
L 376.21956 85.929952 
L 376.65886 86.088442 
L 377.09816 86.088442 
L 377.97676 86.334612 
L 383.24836 87.009583 
L 388.51996 87.228656 
L 392.912961 87.165538 
L 400.820361 86.547872 
L 403.016862 86.238866 
L 404.334762 86.068174 
L 408.288462 85.47862 
L 411.363562 84.9873 
L 415.317262 84.280362 
L 420.588863 83.480267 
L 423.224663 83.122909 
L 431.132064 82.423478 
L 431.571364 82.407153 
L 431.571364 82.407153 
" clip-path="url(#p623cf04aa0)" style="fill: none; stroke: #ff0000; stroke-width: 1.5; stroke-linecap: square"/>
   </g>
   <g id="line2d_26">
    <path d="M 62.998636 291.04698 
L 103.414239 290.941259 
L 126.697141 290.371674 
L 137.240342 290.632985 
L 140.754742 290.336565 
L 143.829842 289.661398 
L 145.147742 289.328511 
L 145.587042 289.073911 
L 146.026343 289.073911 
L 146.465643 288.717745 
L 147.783543 288.233472 
L 148.222843 287.875605 
L 148.662143 287.875605 
L 149.101443 287.388524 
L 150.419343 286.745553 
L 150.858643 286.281516 
L 151.297943 286.281516 
L 151.737243 285.661899 
L 153.055143 284.860863 
L 153.494443 284.292414 
L 153.933743 284.292414 
L 154.373043 283.388932 
L 154.812343 283.232494 
L 155.690943 282.590229 
L 156.130243 281.921844 
L 156.569543 281.921844 
L 157.008843 281.050311 
L 158.326743 279.952763 
L 158.766043 279.190502 
L 159.205343 278.800401 
L 159.644644 278.204241 
L 160.962544 276.973209 
L 161.401844 276.124722 
L 161.841144 275.692393 
L 162.280444 275.034058 
L 163.598344 273.683194 
L 164.037644 272.758435 
L 164.476944 272.758435 
L 164.916244 271.576913 
L 166.234144 270.124171 
L 166.673444 269.136155 
L 167.112744 269.136155 
L 167.552044 267.881131 
L 169.309244 265.832203 
L 169.748544 265.052509 
L 170.187844 264.004599 
L 171.505744 262.417312 
L 171.945044 261.350526 
L 172.384344 261.350526 
L 172.823644 260.009328 
L 174.141545 258.391275 
L 174.580845 257.308865 
L 175.020145 257.308865 
L 175.459445 255.953222 
L 176.777345 254.324573 
L 177.216645 253.238714 
L 177.655945 252.695973 
L 178.534545 251.069213 
L 178.973845 250.798365 
L 179.413145 250.256954 
L 179.852445 249.175392 
L 180.291745 249.175392 
L 180.731045 247.826059 
L 182.048945 246.210988 
L 182.488245 245.136792 
L 182.927545 245.136792 
L 183.366845 243.79673 
L 184.684745 242.192101 
L 185.124045 241.124019 
L 185.563345 241.124019 
L 186.002645 239.790172 
L 187.759846 237.656863 
L 188.199146 236.856422 
L 188.638446 235.78813 
L 190.395646 233.645475 
L 190.834946 232.838948 
L 191.274246 231.760146 
L 192.592146 230.132894 
L 193.031446 229.040756 
L 193.470746 229.040756 
L 193.910046 227.665789 
L 195.227946 225.999085 
L 195.667246 224.876349 
L 196.106546 224.311151 
L 196.545846 223.458245 
L 197.863746 221.73263 
L 198.303046 220.566363 
L 198.742346 220.566363 
L 199.181646 219.089206 
L 200.938847 216.677538 
L 201.378147 215.756888 
L 201.817447 214.514841 
L 203.574647 211.978927 
L 204.013947 211.00953 
L 204.453247 209.700921 
L 206.210447 207.02743 
L 206.649747 206.005224 
L 207.089047 204.625435 
L 208.406947 202.519476 
L 208.846247 201.450146 
L 209.285547 200.007448 
L 210.603447 197.807318 
L 211.482047 195.564337 
L 211.921347 195.186389 
L 212.360647 193.662963 
L 213.239247 192.121139 
L 214.117848 189.77459 
L 214.557148 189.379626 
L 214.996448 187.788922 
L 215.875048 186.181182 
L 216.314348 184.964469 
L 216.753648 183.328028 
L 217.192948 183.328028 
L 217.632248 181.67589 
L 218.071548 180.844105 
L 218.510848 179.589484 
L 219.828748 177.056197 
L 220.268048 175.350395 
L 220.707348 174.492662 
L 221.146648 173.200268 
L 222.464548 170.595739 
L 222.903848 168.84577 
L 223.343148 168.84577 
L 223.782448 166.644349 
L 225.539648 163.093437 
L 225.978948 161.753853 
L 226.418248 159.961829 
L 227.736149 157.262715 
L 229.054049 153.194219 
L 229.932649 151.38023 
L 230.811249 148.65459 
L 231.250549 148.199899 
L 231.689849 146.380274 
L 232.568449 144.55968 
L 233.447049 141.827987 
L 233.886349 141.372669 
L 234.325649 139.551324 
L 235.204249 137.729708 
L 236.082849 134.995997 
L 236.522149 134.540135 
L 236.961449 132.715703 
L 237.840049 130.889298 
L 238.718649 128.144847 
L 239.157949 127.686776 
L 239.597249 125.852355 
L 240.475849 124.01419 
L 241.35445 121.249528 
L 241.79375 120.787876 
L 242.23305 118.93901 
L 243.11165 117.0869 
L 243.99025 114.304407 
L 244.42955 113.84034 
L 244.86885 111.983777 
L 246.18675 109.20027 
L 247.50465 105.037476 
L 248.82255 102.278702 
L 250.14045 98.181346 
L 251.45835 95.487647 
L 252.77625 91.524111 
L 254.094151 88.945392 
L 255.412051 85.193746 
L 256.729951 82.781441 
L 257.169251 81.604415 
L 257.608551 80.066807 
L 258.926451 77.831027 
L 259.805051 75.683066 
L 260.244351 75.333799 
L 260.683651 73.961989 
L 261.562251 72.63097 
L 262.440851 70.711414 
L 262.880151 70.400463 
L 263.319451 69.182174 
L 263.758751 68.588254 
L 264.198051 67.716234 
L 266.394551 64.708535 
L 266.833851 63.686724 
L 268.151752 62.223543 
L 268.591052 61.293404 
L 269.030352 61.293404 
L 269.469652 59.964312 
L 269.908952 59.75038 
L 270.787552 58.91592 
L 271.226852 58.115083 
L 271.666152 58.115083 
L 272.105452 57.160355 
L 274.301952 55.235987 
L 274.741252 54.594412 
L 276.498452 53.259647 
L 276.937752 52.713035 
L 279.573552 51.120834 
L 280.012852 50.683562 
L 282.209353 49.685923 
L 282.648653 49.232903 
L 284.845153 48.403276 
L 285.284453 48.020431 
L 287.480953 47.234553 
L 287.920253 46.963414 
L 290.116753 46.243633 
L 290.995353 45.861089 
L 292.313253 45.419017 
L 293.631153 44.915607 
L 294.509753 44.600723 
L 294.949054 44.411515 
L 295.388354 44.348393 
L 296.266954 43.969174 
L 297.145554 43.652774 
L 298.024154 43.399766 
L 298.463454 43.147252 
L 298.902754 43.147252 
L 299.342054 42.833042 
L 301.538554 42.152983 
L 302.417154 41.792943 
L 304.174354 41.22025 
L 305.492254 40.84734 
L 307.249454 40.325075 
L 311.642455 39.573155 
L 314.278255 39.464042 
L 316.035455 39.59575 
L 317.792655 39.882833 
L 319.549855 40.281874 
L 319.989155 40.38883 
L 320.867755 40.749613 
L 321.746356 41.095877 
L 322.185656 41.323433 
L 322.624956 41.402567 
L 323.064256 41.735436 
L 324.382156 42.380215 
L 324.821456 42.68049 
L 325.260756 42.783737 
L 325.700056 43.212362 
L 326.578656 43.782883 
L 327.017956 44.143416 
L 327.457256 44.266591 
L 327.896556 44.517394 
L 328.335856 45.036603 
L 329.214456 45.578875 
L 330.093056 46.434355 
L 330.532356 46.581731 
L 330.971656 47.184584 
L 332.289556 48.127802 
L 334.046756 49.971037 
L 334.925356 50.675278 
L 336.682557 52.695576 
L 337.121857 53.074991 
L 338.000457 54.233249 
L 338.439757 54.429059 
L 338.879057 55.219697 
L 339.757657 56.021573 
L 340.636257 57.243802 
L 341.075557 57.449632 
L 341.514857 58.278646 
L 342.393457 59.116305 
L 343.272057 60.387714 
L 343.711357 60.60124 
L 344.150657 61.45967 
L 345.029257 62.324571 
L 345.468557 62.977165 
L 345.907857 63.852019 
L 346.347157 63.852019 
L 346.786457 64.731745 
L 347.225757 65.173232 
L 347.665057 65.83726 
L 348.982958 67.170766 
L 349.422258 68.062802 
L 349.861558 68.062802 
L 350.300858 69.179902 
L 352.058058 70.968018 
L 352.497358 71.637522 
L 352.936658 72.528258 
L 353.815258 73.415787 
L 354.254558 74.078682 
L 354.693858 74.957913 
L 355.133158 74.957913 
L 355.572458 75.830756 
L 356.451058 76.695924 
L 357.329658 77.976328 
L 357.768958 78.187419 
L 358.208258 79.024317 
L 358.647558 79.437955 
L 359.526158 80.657168 
L 359.965458 80.85694 
L 360.404758 81.253309 
L 360.844058 82.032597 
L 361.283358 82.4151 
L 362.161959 83.531598 
L 362.601259 83.712894 
L 363.040559 84.071166 
L 363.479859 84.769753 
L 364.358459 85.443187 
L 365.237059 86.557211 
L 365.676359 86.557211 
L 366.115659 87.154918 
L 368.312159 88.643903 
L 368.751459 89.127011 
L 370.947959 90.289984 
L 371.387259 90.651981 
L 371.826559 90.651981 
L 372.265859 91.058625 
L 375.78026 92.144933 
L 378.41606 92.508567 
L 380.61256 92.494984 
L 382.36976 92.345389 
L 383.24836 92.132006 
L 384.56626 91.800088 
L 386.76276 91.204629 
L 387.20206 90.952389 
L 387.64136 90.952389 
L 388.08066 90.613442 
L 389.398561 90.175912 
L 389.837861 89.868088 
L 390.277161 89.868088 
L 390.716461 89.468163 
L 392.912961 88.545738 
L 393.352261 88.201602 
L 395.109461 87.423918 
L 396.427361 86.741903 
L 397.305961 86.326169 
L 397.745261 86.082075 
L 398.184561 86.001728 
L 398.623861 85.685939 
L 399.941761 85.157499 
L 400.381061 84.941509 
L 400.820361 84.871007 
L 401.259661 84.596777 
L 407.849162 82.713221 
L 412.681462 82.077269 
L 416.635163 81.97942 
L 420.588863 82.135699 
L 431.571364 82.876385 
L 431.571364 82.876385 
" clip-path="url(#p623cf04aa0)" style="fill: none; stroke-dasharray: 5.55,2.4; stroke-dashoffset: 0; stroke: #0000ff; stroke-width: 1.5"/>
   </g>
   <g id="line2d_27">
    <path d="M 62.998636 291.048202 
L 119.668341 291.048202 
L 120.107641 83.600331 
L 431.571364 83.600331 
L 431.571364 83.600331 
" clip-path="url(#p623cf04aa0)" style="fill: none; stroke-dasharray: 1.5,2.475; stroke-dashoffset: 0; stroke: #000000; stroke-width: 1.5"/>
   </g>
   <g id="patch_3">
    <path d="M 44.57 303.64 
L 44.57 26.88 
" style="fill: none; stroke: #000000; stroke-width: 0.8; stroke-linejoin: miter; stroke-linecap: square"/>
   </g>
   <g id="patch_4">
    <path d="M 450 303.64 
L 450 26.88 
" style="fill: none; stroke: #000000; stroke-width: 0.8; stroke-linejoin: miter; stroke-linecap: square"/>
   </g>
   <g id="patch_5">
    <path d="M 44.57 303.64 
L 450 303.64 
" style="fill: none; stroke: #000000; stroke-width: 0.8; stroke-linejoin: miter; stroke-linecap: square"/>
   </g>
   <g id="patch_6">
    <path d="M 44.57 26.88 
L 450 26.88 
" style="fill: none; stroke: #000000; stroke-width: 0.8; stroke-linejoin: miter; stroke-linecap: square"/>
   </g>
   <g id="text_15">
    <!-- Slung payload x-movement vs time -->
    <g transform="translate(140.508438 20.88)scale(0.12 -0.12)">
     <defs>
      <path id="DejaVuSans-53" d="M 3425 4513 
L 3425 3897 
Q 3066 4069 2747 4153 
Q 2428 4238 2131 4238 
Q 1616 4238 1336 4038 
Q 1056 3838 1056 3469 
Q 1056 3159 1242 3001 
Q 1428 2844 1947 2747 
L 2328 2669 
Q 3034 2534 3370 2195 
Q 3706 1856 3706 1288 
Q 3706 609 3251 259 
Q 2797 -91 1919 -91 
Q 1588 -91 1214 -16 
Q 841 59 441 206 
L 441 856 
Q 825 641 1194 531 
Q 1563 422 1919 422 
Q 2459 422 2753 634 
Q 3047 847 3047 1241 
Q 3047 1584 2836 1778 
Q 2625 1972 2144 2069 
L 1759 2144 
Q 1053 2284 737 2584 
Q 422 2884 422 3419 
Q 422 4038 858 4394 
Q 1294 4750 2059 4750 
Q 2388 4750 2728 4690 
Q 3069 4631 3425 4513 
z
" transform="scale(0.015625)"/>
      <path id="DejaVuSans-6c" d="M 603 4863 
L 1178 4863 
L 1178 0 
L 603 0 
L 603 4863 
z
" transform="scale(0.015625)"/>
      <path id="DejaVuSans-75" d="M 544 1381 
L 544 3500 
L 1119 3500 
L 1119 1403 
Q 1119 906 1312 657 
Q 1506 409 1894 409 
Q 2359 409 2629 706 
Q 2900 1003 2900 1516 
L 2900 3500 
L 3475 3500 
L 3475 0 
L 2900 0 
L 2900 538 
Q 2691 219 2414 64 
Q 2138 -91 1772 -91 
Q 1169 -91 856 284 
Q 544 659 544 1381 
z
M 1991 3584 
L 1991 3584 
z
" transform="scale(0.015625)"/>
      <path id="DejaVuSans-6e" d="M 3513 2113 
L 3513 0 
L 2938 0 
L 2938 2094 
Q 2938 2591 2744 2837 
Q 2550 3084 2163 3084 
Q 1697 3084 1428 2787 
Q 1159 2491 1159 1978 
L 1159 0 
L 581 0 
L 581 3500 
L 1159 3500 
L 1159 2956 
Q 1366 3272 1645 3428 
Q 1925 3584 2291 3584 
Q 2894 3584 3203 3211 
Q 3513 2838 3513 2113 
z
" transform="scale(0.015625)"/>
      <path id="DejaVuSans-67" d="M 2906 1791 
Q 2906 2416 2648 2759 
Q 2391 3103 1925 3103 
Q 1463 3103 1205 2759 
Q 947 2416 947 1791 
Q 947 1169 1205 825 
Q 1463 481 1925 481 
Q 2391 481 2648 825 
Q 2906 1169 2906 1791 
z
M 3481 434 
Q 3481 -459 3084 -895 
Q 2688 -1331 1869 -1331 
Q 1566 -1331 1297 -1286 
Q 1028 -1241 775 -1147 
L 775 -588 
Q 1028 -725 1275 -790 
Q 1522 -856 1778 -856 
Q 2344 -856 2625 -561 
Q 2906 -266 2906 331 
L 2906 616 
Q 2728 306 2450 153 
Q 2172 0 1784 0 
Q 1141 0 747 490 
Q 353 981 353 1791 
Q 353 2603 747 3093 
Q 1141 3584 1784 3584 
Q 2172 3584 2450 3431 
Q 2728 3278 2906 2969 
L 2906 3500 
L 3481 3500 
L 3481 434 
z
" transform="scale(0.015625)"/>
      <path id="DejaVuSans-70" d="M 1159 525 
L 1159 -1331 
L 581 -1331 
L 581 3500 
L 1159 3500 
L 1159 2969 
Q 1341 3281 1617 3432 
Q 1894 3584 2278 3584 
Q 2916 3584 3314 3078 
Q 3713 2572 3713 1747 
Q 3713 922 3314 415 
Q 2916 -91 2278 -91 
Q 1894 -91 1617 61 
Q 1341 213 1159 525 
z
M 3116 1747 
Q 3116 2381 2855 2742 
Q 2594 3103 2138 3103 
Q 1681 3103 1420 2742 
Q 1159 2381 1159 1747 
Q 1159 1113 1420 752 
Q 1681 391 2138 391 
Q 2594 391 2855 752 
Q 3116 1113 3116 1747 
z
" transform="scale(0.015625)"/>
      <path id="DejaVuSans-61" d="M 2194 1759 
Q 1497 1759 1228 1600 
Q 959 1441 959 1056 
Q 959 750 1161 570 
Q 1363 391 1709 391 
Q 2188 391 2477 730 
Q 2766 1069 2766 1631 
L 2766 1759 
L 2194 1759 
z
M 3341 1997 
L 3341 0 
L 2766 0 
L 2766 531 
Q 2569 213 2275 61 
Q 1981 -91 1556 -91 
Q 1019 -91 701 211 
Q 384 513 384 1019 
Q 384 1609 779 1909 
Q 1175 2209 1959 2209 
L 2766 2209 
L 2766 2266 
Q 2766 2663 2505 2880 
Q 2244 3097 1772 3097 
Q 1472 3097 1187 3025 
Q 903 2953 641 2809 
L 641 3341 
Q 956 3463 1253 3523 
Q 1550 3584 1831 3584 
Q 2591 3584 2966 3190 
Q 3341 2797 3341 1997 
z
" transform="scale(0.015625)"/>
      <path id="DejaVuSans-79" d="M 2059 -325 
Q 1816 -950 1584 -1140 
Q 1353 -1331 966 -1331 
L 506 -1331 
L 506 -850 
L 844 -850 
Q 1081 -850 1212 -737 
Q 1344 -625 1503 -206 
L 1606 56 
L 191 3500 
L 800 3500 
L 1894 763 
L 2988 3500 
L 3597 3500 
L 2059 -325 
z
" transform="scale(0.015625)"/>
      <path id="DejaVuSans-6f" d="M 1959 3097 
Q 1497 3097 1228 2736 
Q 959 2375 959 1747 
Q 959 1119 1226 758 
Q 1494 397 1959 397 
Q 2419 397 2687 759 
Q 2956 1122 2956 1747 
Q 2956 2369 2687 2733 
Q 2419 3097 1959 3097 
z
M 1959 3584 
Q 2709 3584 3137 3096 
Q 3566 2609 3566 1747 
Q 3566 888 3137 398 
Q 2709 -91 1959 -91 
Q 1206 -91 779 398 
Q 353 888 353 1747 
Q 353 2609 779 3096 
Q 1206 3584 1959 3584 
z
" transform="scale(0.015625)"/>
      <path id="DejaVuSans-64" d="M 2906 2969 
L 2906 4863 
L 3481 4863 
L 3481 0 
L 2906 0 
L 2906 525 
Q 2725 213 2448 61 
Q 2172 -91 1784 -91 
Q 1150 -91 751 415 
Q 353 922 353 1747 
Q 353 2572 751 3078 
Q 1150 3584 1784 3584 
Q 2172 3584 2448 3432 
Q 2725 3281 2906 2969 
z
M 947 1747 
Q 947 1113 1208 752 
Q 1469 391 1925 391 
Q 2381 391 2643 752 
Q 2906 1113 2906 1747 
Q 2906 2381 2643 2742 
Q 2381 3103 1925 3103 
Q 1469 3103 1208 2742 
Q 947 2381 947 1747 
z
" transform="scale(0.015625)"/>
      <path id="DejaVuSans-2d" d="M 313 2009 
L 1997 2009 
L 1997 1497 
L 313 1497 
L 313 2009 
z
" transform="scale(0.015625)"/>
      <path id="DejaVuSans-76" d="M 191 3500 
L 800 3500 
L 1894 563 
L 2988 3500 
L 3597 3500 
L 2284 0 
L 1503 0 
L 191 3500 
z
" transform="scale(0.015625)"/>
      <path id="DejaVuSans-65" d="M 3597 1894 
L 3597 1613 
L 953 1613 
Q 991 1019 1311 708 
Q 1631 397 2203 397 
Q 2534 397 2845 478 
Q 3156 559 3463 722 
L 3463 178 
Q 3153 47 2828 -22 
Q 2503 -91 2169 -91 
Q 1331 -91 842 396 
Q 353 884 353 1716 
Q 353 2575 817 3079 
Q 1281 3584 2069 3584 
Q 2775 3584 3186 3129 
Q 3597 2675 3597 1894 
z
M 3022 2063 
Q 3016 2534 2758 2815 
Q 2500 3097 2075 3097 
Q 1594 3097 1305 2825 
Q 1016 2553 972 2059 
L 3022 2063 
z
" transform="scale(0.015625)"/>
      <path id="DejaVuSans-69" d="M 603 3500 
L 1178 3500 
L 1178 0 
L 603 0 
L 603 3500 
z
M 603 4863 
L 1178 4863 
L 1178 4134 
L 603 4134 
L 603 4863 
z
" transform="scale(0.015625)"/>
     </defs>
     <use xlink:href="#DejaVuSans-53"/>
     <use xlink:href="#DejaVuSans-6c" x="63.476562"/>
     <use xlink:href="#DejaVuSans-75" x="91.259766"/>
     <use xlink:href="#DejaVuSans-6e" x="154.638672"/>
     <use xlink:href="#DejaVuSans-67" x="218.017578"/>
     <use xlink:href="#DejaVuSans-20" x="281.494141"/>
     <use xlink:href="#DejaVuSans-70" x="313.28125"/>
     <use xlink:href="#DejaVuSans-61" x="376.757812"/>
     <use xlink:href="#DejaVuSans-79" x="438.037109"/>
     <use xlink:href="#DejaVuSans-6c" x="497.216797"/>
     <use xlink:href="#DejaVuSans-6f" x="525"/>
     <use xlink:href="#DejaVuSans-61" x="586.181641"/>
     <use xlink:href="#DejaVuSans-64" x="647.460938"/>
     <use xlink:href="#DejaVuSans-20" x="710.9375"/>
     <use xlink:href="#DejaVuSans-78" x="742.724609"/>
     <use xlink:href="#DejaVuSans-2d" x="801.904297"/>
     <use xlink:href="#DejaVuSans-6d" x="837.988281"/>
     <use xlink:href="#DejaVuSans-6f" x="935.400391"/>
     <use xlink:href="#DejaVuSans-76" x="996.582031"/>
     <use xlink:href="#DejaVuSans-65" x="1055.761719"/>
     <use xlink:href="#DejaVuSans-6d" x="1117.285156"/>
     <use xlink:href="#DejaVuSans-65" x="1214.697266"/>
     <use xlink:href="#DejaVuSans-6e" x="1276.220703"/>
     <use xlink:href="#DejaVuSans-74" x="1339.599609"/>
     <use xlink:href="#DejaVuSans-20" x="1378.808594"/>
     <use xlink:href="#DejaVuSans-76" x="1410.595703"/>
     <use xlink:href="#DejaVuSans-73" x="1469.775391"/>
     <use xlink:href="#DejaVuSans-20" x="1521.875"/>
     <use xlink:href="#DejaVuSans-74" x="1553.662109"/>
     <use xlink:href="#DejaVuSans-69" x="1592.871094"/>
     <use xlink:href="#DejaVuSans-6d" x="1620.654297"/>
     <use xlink:href="#DejaVuSans-65" x="1718.066406"/>
    </g>
   </g>
   <g id="legend_1">
    <g id="patch_7">
     <path d="M 51.57 78.914375 
L 188.927813 78.914375 
Q 190.927813 78.914375 190.927813 76.914375 
L 190.927813 33.88 
Q 190.927813 31.88 188.927813 31.88 
L 51.57 31.88 
Q 49.57 31.88 49.57 33.88 
L 49.57 76.914375 
Q 49.57 78.914375 51.57 78.914375 
z
" style="fill: #ffffff; opacity: 0.8; stroke: #cccccc; stroke-linejoin: miter"/>
    </g>
    <g id="line2d_28">
     <path d="M 53.57 39.978437 
L 63.57 39.978437 
L 73.57 39.978437 
" style="fill: none; stroke: #ff0000; stroke-width: 1.5; stroke-linecap: square"/>
    </g>
    <g id="text_16">
     <!-- Drone x movement -->
     <g transform="translate(81.57 43.478437)scale(0.1 -0.1)">
      <defs>
       <path id="DejaVuSans-44" d="M 1259 4147 
L 1259 519 
L 2022 519 
Q 2988 519 3436 956 
Q 3884 1394 3884 2338 
Q 3884 3275 3436 3711 
Q 2988 4147 2022 4147 
L 1259 4147 
z
M 628 4666 
L 1925 4666 
Q 3281 4666 3915 4102 
Q 4550 3538 4550 2338 
Q 4550 1131 3912 565 
Q 3275 0 1925 0 
L 628 0 
L 628 4666 
z
" transform="scale(0.015625)"/>
       <path id="DejaVuSans-72" d="M 2631 2963 
Q 2534 3019 2420 3045 
Q 2306 3072 2169 3072 
Q 1681 3072 1420 2755 
Q 1159 2438 1159 1844 
L 1159 0 
L 581 0 
L 581 3500 
L 1159 3500 
L 1159 2956 
Q 1341 3275 1631 3429 
Q 1922 3584 2338 3584 
Q 2397 3584 2469 3576 
Q 2541 3569 2628 3553 
L 2631 2963 
z
" transform="scale(0.015625)"/>
      </defs>
      <use xlink:href="#DejaVuSans-44"/>
      <use xlink:href="#DejaVuSans-72" x="77.001953"/>
      <use xlink:href="#DejaVuSans-6f" x="115.865234"/>
      <use xlink:href="#DejaVuSans-6e" x="177.046875"/>
      <use xlink:href="#DejaVuSans-65" x="240.425781"/>
      <use xlink:href="#DejaVuSans-20" x="301.949219"/>
      <use xlink:href="#DejaVuSans-78" x="333.736328"/>
      <use xlink:href="#DejaVuSans-20" x="392.916016"/>
      <use xlink:href="#DejaVuSans-6d" x="424.703125"/>
      <use xlink:href="#DejaVuSans-6f" x="522.115234"/>
      <use xlink:href="#DejaVuSans-76" x="583.296875"/>
      <use xlink:href="#DejaVuSans-65" x="642.476562"/>
      <use xlink:href="#DejaVuSans-6d" x="704"/>
      <use xlink:href="#DejaVuSans-65" x="801.412109"/>
      <use xlink:href="#DejaVuSans-6e" x="862.935547"/>
      <use xlink:href="#DejaVuSans-74" x="926.314453"/>
     </g>
    </g>
    <g id="line2d_29">
     <path d="M 53.57 54.656563 
L 63.57 54.656563 
L 73.57 54.656563 
" style="fill: none; stroke-dasharray: 5.55,2.4; stroke-dashoffset: 0; stroke: #0000ff; stroke-width: 1.5"/>
    </g>
    <g id="text_17">
     <!-- Payload x movement -->
     <g transform="translate(81.57 58.156563)scale(0.1 -0.1)">
      <defs>
       <path id="DejaVuSans-50" d="M 1259 4147 
L 1259 2394 
L 2053 2394 
Q 2494 2394 2734 2622 
Q 2975 2850 2975 3272 
Q 2975 3691 2734 3919 
Q 2494 4147 2053 4147 
L 1259 4147 
z
M 628 4666 
L 2053 4666 
Q 2838 4666 3239 4311 
Q 3641 3956 3641 3272 
Q 3641 2581 3239 2228 
Q 2838 1875 2053 1875 
L 1259 1875 
L 1259 0 
L 628 0 
L 628 4666 
z
" transform="scale(0.015625)"/>
      </defs>
      <use xlink:href="#DejaVuSans-50"/>
      <use xlink:href="#DejaVuSans-61" x="55.802734"/>
      <use xlink:href="#DejaVuSans-79" x="117.082031"/>
      <use xlink:href="#DejaVuSans-6c" x="176.261719"/>
      <use xlink:href="#DejaVuSans-6f" x="204.044922"/>
      <use xlink:href="#DejaVuSans-61" x="265.226562"/>
      <use xlink:href="#DejaVuSans-64" x="326.505859"/>
      <use xlink:href="#DejaVuSans-20" x="389.982422"/>
      <use xlink:href="#DejaVuSans-78" x="421.769531"/>
      <use xlink:href="#DejaVuSans-20" x="480.949219"/>
      <use xlink:href="#DejaVuSans-6d" x="512.736328"/>
      <use xlink:href="#DejaVuSans-6f" x="610.148438"/>
      <use xlink:href="#DejaVuSans-76" x="671.330078"/>
      <use xlink:href="#DejaVuSans-65" x="730.509766"/>
      <use xlink:href="#DejaVuSans-6d" x="792.033203"/>
      <use xlink:href="#DejaVuSans-65" x="889.445312"/>
      <use xlink:href="#DejaVuSans-6e" x="950.96875"/>
      <use xlink:href="#DejaVuSans-74" x="1014.347656"/>
     </g>
    </g>
    <g id="line2d_30">
     <path d="M 53.57 69.334687 
L 63.57 69.334687 
L 73.57 69.334687 
" style="fill: none; stroke-dasharray: 1.5,2.475; stroke-dashoffset: 0; stroke: #000000; stroke-width: 1.5"/>
    </g>
    <g id="text_18">
     <!-- Drone x-reference -->
     <g transform="translate(81.57 72.834687)scale(0.1 -0.1)">
      <defs>
       <path id="DejaVuSans-66" d="M 2375 4863 
L 2375 4384 
L 1825 4384 
Q 1516 4384 1395 4259 
Q 1275 4134 1275 3809 
L 1275 3500 
L 2222 3500 
L 2222 3053 
L 1275 3053 
L 1275 0 
L 697 0 
L 697 3053 
L 147 3053 
L 147 3500 
L 697 3500 
L 697 3744 
Q 697 4328 969 4595 
Q 1241 4863 1831 4863 
L 2375 4863 
z
" transform="scale(0.015625)"/>
       <path id="DejaVuSans-63" d="M 3122 3366 
L 3122 2828 
Q 2878 2963 2633 3030 
Q 2388 3097 2138 3097 
Q 1578 3097 1268 2742 
Q 959 2388 959 1747 
Q 959 1106 1268 751 
Q 1578 397 2138 397 
Q 2388 397 2633 464 
Q 2878 531 3122 666 
L 3122 134 
Q 2881 22 2623 -34 
Q 2366 -91 2075 -91 
Q 1284 -91 818 406 
Q 353 903 353 1747 
Q 353 2603 823 3093 
Q 1294 3584 2113 3584 
Q 2378 3584 2631 3529 
Q 2884 3475 3122 3366 
z
" transform="scale(0.015625)"/>
      </defs>
      <use xlink:href="#DejaVuSans-44"/>
      <use xlink:href="#DejaVuSans-72" x="77.001953"/>
      <use xlink:href="#DejaVuSans-6f" x="115.865234"/>
      <use xlink:href="#DejaVuSans-6e" x="177.046875"/>
      <use xlink:href="#DejaVuSans-65" x="240.425781"/>
      <use xlink:href="#DejaVuSans-20" x="301.949219"/>
      <use xlink:href="#DejaVuSans-78" x="333.736328"/>
      <use xlink:href="#DejaVuSans-2d" x="392.916016"/>
      <use xlink:href="#DejaVuSans-72" x="429"/>
      <use xlink:href="#DejaVuSans-65" x="467.863281"/>
      <use xlink:href="#DejaVuSans-66" x="529.386719"/>
      <use xlink:href="#DejaVuSans-65" x="564.591797"/>
      <use xlink:href="#DejaVuSans-72" x="626.115234"/>
      <use xlink:href="#DejaVuSans-65" x="664.978516"/>
      <use xlink:href="#DejaVuSans-6e" x="726.501953"/>
      <use xlink:href="#DejaVuSans-63" x="789.880859"/>
      <use xlink:href="#DejaVuSans-65" x="844.861328"/>
     </g>
    </g>
   </g>
  </g>
 </g>
 <defs>
  <clipPath id="p623cf04aa0">
   <rect x="44.57" y="26.88" width="405.43" height="276.76"/>
  </clipPath>
 </defs>
</svg>
