<?xml version="1.0" encoding="utf-8" standalone="no"?>
<!DOCTYPE svg PUBLIC "-//W3C//DTD SVG 1.1//EN"
  "http://www.w3.org/Graphics/SVG/1.1/DTD/svg11.dtd">
<svg xmlns:xlink="http://www.w3.org/1999/xlink" width="460.8pt" height="345.6pt" viewBox="0 0 460.8 345.6" xmlns="http://www.w3.org/2000/svg" version="1.1">
 <metadata>
  <rdf:RDF xmlns:dc="http://purl.org/dc/elements/1.1/" xmlns:cc="http://creativecommons.org/ns#" xmlns:rdf="http://www.w3.org/1999/02/22-rdf-syntax-ns#">
   <cc:Work>
    <dc:type rdf:resource="http://purl.org/dc/dcmitype/StillImage"/>
    <dc:date>2022-05-10T12:40:04.958451</dc:date>
    <dc:format>image/svg+xml</dc:format>
    <dc:creator>
     <cc:Agent>
      <dc:title>Matplotlib v3.5.1, https://matplotlib.org/</dc:title>
     </cc:Agent>
    </dc:creator>
   </cc:Work>
  </rdf:RDF>
 </metadata>
 <defs>
  <style type="text/css">*{stroke-linejoin: round; stroke-linecap: butt}</style>
 </defs>
 <g id="figure_1">
  <g id="patch_1">
   <path d="M 0 345.6 
L 460.8 345.6 
L 460.8 0 
L 0 0 
z
" style="fill: #ffffff"/>
  </g>
  <g id="axes_1">
   <g id="patch_2">
    <path d="M 44.57 303.64 
L 450 303.64 
L 450 26.88 
L 44.57 26.88 
z
" style="fill: #ffffff"/>
   </g>
   <g id="matplotlib.axis_1">
    <g id="xtick_1">
     <g id="line2d_1">
      <path d="M 62.998636 303.64 
L 62.998636 26.88 
" clip-path="url(#pcadb19c544)" style="fill: none; stroke: #b0b0b0; stroke-width: 0.8; stroke-linecap: square"/>
     </g>
     <g id="line2d_2">
      <defs>
       <path id="m2ea084bb4b" d="M 0 0 
L 0 3.5 
" style="stroke: #000000; stroke-width: 0.8"/>
      </defs>
      <g>
       <use xlink:href="#m2ea084bb4b" x="62.998636" y="303.64" style="stroke: #000000; stroke-width: 0.8"/>
      </g>
     </g>
     <g id="text_1">
      <!-- 0 -->
      <g transform="translate(59.817386 318.238437)scale(0.1 -0.1)">
       <defs>
        <path id="DejaVuSans-30" d="M 2034 4250 
Q 1547 4250 1301 3770 
Q 1056 3291 1056 2328 
Q 1056 1369 1301 889 
Q 1547 409 2034 409 
Q 2525 409 2770 889 
Q 3016 1369 3016 2328 
Q 3016 3291 2770 3770 
Q 2525 4250 2034 4250 
z
M 2034 4750 
Q 2819 4750 3233 4129 
Q 3647 3509 3647 2328 
Q 3647 1150 3233 529 
Q 2819 -91 2034 -91 
Q 1250 -91 836 529 
Q 422 1150 422 2328 
Q 422 3509 836 4129 
Q 1250 4750 2034 4750 
z
" transform="scale(0.015625)"/>
       </defs>
       <use xlink:href="#DejaVuSans-30"/>
      </g>
     </g>
    </g>
    <g id="xtick_2">
     <g id="line2d_3">
      <path d="M 119.597642 303.64 
L 119.597642 26.88 
" clip-path="url(#pcadb19c544)" style="fill: none; stroke: #b0b0b0; stroke-width: 0.8; stroke-linecap: square"/>
     </g>
     <g id="line2d_4">
      <g>
       <use xlink:href="#m2ea084bb4b" x="119.597642" y="303.64" style="stroke: #000000; stroke-width: 0.8"/>
      </g>
     </g>
     <g id="text_2">
      <!-- 5 -->
      <g transform="translate(116.416392 318.238437)scale(0.1 -0.1)">
       <defs>
        <path id="DejaVuSans-35" d="M 691 4666 
L 3169 4666 
L 3169 4134 
L 1269 4134 
L 1269 2991 
Q 1406 3038 1543 3061 
Q 1681 3084 1819 3084 
Q 2600 3084 3056 2656 
Q 3513 2228 3513 1497 
Q 3513 744 3044 326 
Q 2575 -91 1722 -91 
Q 1428 -91 1123 -41 
Q 819 9 494 109 
L 494 744 
Q 775 591 1075 516 
Q 1375 441 1709 441 
Q 2250 441 2565 725 
Q 2881 1009 2881 1497 
Q 2881 1984 2565 2268 
Q 2250 2553 1709 2553 
Q 1456 2553 1204 2497 
Q 953 2441 691 2322 
L 691 4666 
z
" transform="scale(0.015625)"/>
       </defs>
       <use xlink:href="#DejaVuSans-35"/>
      </g>
     </g>
    </g>
    <g id="xtick_3">
     <g id="line2d_5">
      <path d="M 176.196648 303.64 
L 176.196648 26.88 
" clip-path="url(#pcadb19c544)" style="fill: none; stroke: #b0b0b0; stroke-width: 0.8; stroke-linecap: square"/>
     </g>
     <g id="line2d_6">
      <g>
       <use xlink:href="#m2ea084bb4b" x="176.196648" y="303.64" style="stroke: #000000; stroke-width: 0.8"/>
      </g>
     </g>
     <g id="text_3">
      <!-- 10 -->
      <g transform="translate(169.834148 318.238437)scale(0.1 -0.1)">
       <defs>
        <path id="DejaVuSans-31" d="M 794 531 
L 1825 531 
L 1825 4091 
L 703 3866 
L 703 4441 
L 1819 4666 
L 2450 4666 
L 2450 531 
L 3481 531 
L 3481 0 
L 794 0 
L 794 531 
z
" transform="scale(0.015625)"/>
       </defs>
       <use xlink:href="#DejaVuSans-31"/>
       <use xlink:href="#DejaVuSans-30" x="63.623047"/>
      </g>
     </g>
    </g>
    <g id="xtick_4">
     <g id="line2d_7">
      <path d="M 232.795654 303.64 
L 232.795654 26.88 
" clip-path="url(#pcadb19c544)" style="fill: none; stroke: #b0b0b0; stroke-width: 0.8; stroke-linecap: square"/>
     </g>
     <g id="line2d_8">
      <g>
       <use xlink:href="#m2ea084bb4b" x="232.795654" y="303.64" style="stroke: #000000; stroke-width: 0.8"/>
      </g>
     </g>
     <g id="text_4">
      <!-- 15 -->
      <g transform="translate(226.433154 318.238437)scale(0.1 -0.1)">
       <use xlink:href="#DejaVuSans-31"/>
       <use xlink:href="#DejaVuSans-35" x="63.623047"/>
      </g>
     </g>
    </g>
    <g id="xtick_5">
     <g id="line2d_9">
      <path d="M 289.39466 303.64 
L 289.39466 26.88 
" clip-path="url(#pcadb19c544)" style="fill: none; stroke: #b0b0b0; stroke-width: 0.8; stroke-linecap: square"/>
     </g>
     <g id="line2d_10">
      <g>
       <use xlink:href="#m2ea084bb4b" x="289.39466" y="303.64" style="stroke: #000000; stroke-width: 0.8"/>
      </g>
     </g>
     <g id="text_5">
      <!-- 20 -->
      <g transform="translate(283.03216 318.238437)scale(0.1 -0.1)">
       <defs>
        <path id="DejaVuSans-32" d="M 1228 531 
L 3431 531 
L 3431 0 
L 469 0 
L 469 531 
Q 828 903 1448 1529 
Q 2069 2156 2228 2338 
Q 2531 2678 2651 2914 
Q 2772 3150 2772 3378 
Q 2772 3750 2511 3984 
Q 2250 4219 1831 4219 
Q 1534 4219 1204 4116 
Q 875 4013 500 3803 
L 500 4441 
Q 881 4594 1212 4672 
Q 1544 4750 1819 4750 
Q 2544 4750 2975 4387 
Q 3406 4025 3406 3419 
Q 3406 3131 3298 2873 
Q 3191 2616 2906 2266 
Q 2828 2175 2409 1742 
Q 1991 1309 1228 531 
z
" transform="scale(0.015625)"/>
       </defs>
       <use xlink:href="#DejaVuSans-32"/>
       <use xlink:href="#DejaVuSans-30" x="63.623047"/>
      </g>
     </g>
    </g>
    <g id="xtick_6">
     <g id="line2d_11">
      <path d="M 345.993667 303.64 
L 345.993667 26.88 
" clip-path="url(#pcadb19c544)" style="fill: none; stroke: #b0b0b0; stroke-width: 0.8; stroke-linecap: square"/>
     </g>
     <g id="line2d_12">
      <g>
       <use xlink:href="#m2ea084bb4b" x="345.993667" y="303.64" style="stroke: #000000; stroke-width: 0.8"/>
      </g>
     </g>
     <g id="text_6">
      <!-- 25 -->
      <g transform="translate(339.631167 318.238437)scale(0.1 -0.1)">
       <use xlink:href="#DejaVuSans-32"/>
       <use xlink:href="#DejaVuSans-35" x="63.623047"/>
      </g>
     </g>
    </g>
    <g id="xtick_7">
     <g id="line2d_13">
      <path d="M 402.592673 303.64 
L 402.592673 26.88 
" clip-path="url(#pcadb19c544)" style="fill: none; stroke: #b0b0b0; stroke-width: 0.8; stroke-linecap: square"/>
     </g>
     <g id="line2d_14">
      <g>
       <use xlink:href="#m2ea084bb4b" x="402.592673" y="303.64" style="stroke: #000000; stroke-width: 0.8"/>
      </g>
     </g>
     <g id="text_7">
      <!-- 30 -->
      <g transform="translate(396.230173 318.238437)scale(0.1 -0.1)">
       <defs>
        <path id="DejaVuSans-33" d="M 2597 2516 
Q 3050 2419 3304 2112 
Q 3559 1806 3559 1356 
Q 3559 666 3084 287 
Q 2609 -91 1734 -91 
Q 1441 -91 1130 -33 
Q 819 25 488 141 
L 488 750 
Q 750 597 1062 519 
Q 1375 441 1716 441 
Q 2309 441 2620 675 
Q 2931 909 2931 1356 
Q 2931 1769 2642 2001 
Q 2353 2234 1838 2234 
L 1294 2234 
L 1294 2753 
L 1863 2753 
Q 2328 2753 2575 2939 
Q 2822 3125 2822 3475 
Q 2822 3834 2567 4026 
Q 2313 4219 1838 4219 
Q 1578 4219 1281 4162 
Q 984 4106 628 3988 
L 628 4550 
Q 988 4650 1302 4700 
Q 1616 4750 1894 4750 
Q 2613 4750 3031 4423 
Q 3450 4097 3450 3541 
Q 3450 3153 3228 2886 
Q 3006 2619 2597 2516 
z
" transform="scale(0.015625)"/>
       </defs>
       <use xlink:href="#DejaVuSans-33"/>
       <use xlink:href="#DejaVuSans-30" x="63.623047"/>
      </g>
     </g>
    </g>
    <g id="text_8">
     <!-- t [s] -->
     <g transform="translate(237.229531 331.916562)scale(0.1 -0.1)">
      <defs>
       <path id="DejaVuSans-74" d="M 1172 4494 
L 1172 3500 
L 2356 3500 
L 2356 3053 
L 1172 3053 
L 1172 1153 
Q 1172 725 1289 603 
Q 1406 481 1766 481 
L 2356 481 
L 2356 0 
L 1766 0 
Q 1100 0 847 248 
Q 594 497 594 1153 
L 594 3053 
L 172 3053 
L 172 3500 
L 594 3500 
L 594 4494 
L 1172 4494 
z
" transform="scale(0.015625)"/>
       <path id="DejaVuSans-20" transform="scale(0.015625)"/>
       <path id="DejaVuSans-5b" d="M 550 4863 
L 1875 4863 
L 1875 4416 
L 1125 4416 
L 1125 -397 
L 1875 -397 
L 1875 -844 
L 550 -844 
L 550 4863 
z
" transform="scale(0.015625)"/>
       <path id="DejaVuSans-73" d="M 2834 3397 
L 2834 2853 
Q 2591 2978 2328 3040 
Q 2066 3103 1784 3103 
Q 1356 3103 1142 2972 
Q 928 2841 928 2578 
Q 928 2378 1081 2264 
Q 1234 2150 1697 2047 
L 1894 2003 
Q 2506 1872 2764 1633 
Q 3022 1394 3022 966 
Q 3022 478 2636 193 
Q 2250 -91 1575 -91 
Q 1294 -91 989 -36 
Q 684 19 347 128 
L 347 722 
Q 666 556 975 473 
Q 1284 391 1588 391 
Q 1994 391 2212 530 
Q 2431 669 2431 922 
Q 2431 1156 2273 1281 
Q 2116 1406 1581 1522 
L 1381 1569 
Q 847 1681 609 1914 
Q 372 2147 372 2553 
Q 372 3047 722 3315 
Q 1072 3584 1716 3584 
Q 2034 3584 2315 3537 
Q 2597 3491 2834 3397 
z
" transform="scale(0.015625)"/>
       <path id="DejaVuSans-5d" d="M 1947 4863 
L 1947 -844 
L 622 -844 
L 622 -397 
L 1369 -397 
L 1369 4416 
L 622 4416 
L 622 4863 
L 1947 4863 
z
" transform="scale(0.015625)"/>
      </defs>
      <use xlink:href="#DejaVuSans-74"/>
      <use xlink:href="#DejaVuSans-20" x="39.208984"/>
      <use xlink:href="#DejaVuSans-5b" x="70.996094"/>
      <use xlink:href="#DejaVuSans-73" x="110.009766"/>
      <use xlink:href="#DejaVuSans-5d" x="162.109375"/>
     </g>
    </g>
   </g>
   <g id="matplotlib.axis_2">
    <g id="ytick_1">
     <g id="line2d_15">
      <path d="M 44.57 291.06 
L 450 291.06 
" clip-path="url(#pcadb19c544)" style="fill: none; stroke: #b0b0b0; stroke-width: 0.8; stroke-linecap: square"/>
     </g>
     <g id="line2d_16">
      <defs>
       <path id="m499f0ce886" d="M 0 0 
L -3.5 0 
" style="stroke: #000000; stroke-width: 0.8"/>
      </defs>
      <g>
       <use xlink:href="#m499f0ce886" x="44.57" y="291.06" style="stroke: #000000; stroke-width: 0.8"/>
      </g>
     </g>
     <g id="text_9">
      <!-- 0 -->
      <g transform="translate(31.2075 294.859219)scale(0.1 -0.1)">
       <use xlink:href="#DejaVuSans-30"/>
      </g>
     </g>
    </g>
    <g id="ytick_2">
     <g id="line2d_17">
      <path d="M 44.57 252.535084 
L 450 252.535084 
" clip-path="url(#pcadb19c544)" style="fill: none; stroke: #b0b0b0; stroke-width: 0.8; stroke-linecap: square"/>
     </g>
     <g id="line2d_18">
      <g>
       <use xlink:href="#m499f0ce886" x="44.57" y="252.535084" style="stroke: #000000; stroke-width: 0.8"/>
      </g>
     </g>
     <g id="text_10">
      <!-- 2 -->
      <g transform="translate(31.2075 256.334303)scale(0.1 -0.1)">
       <use xlink:href="#DejaVuSans-32"/>
      </g>
     </g>
    </g>
    <g id="ytick_3">
     <g id="line2d_19">
      <path d="M 44.57 214.010168 
L 450 214.010168 
" clip-path="url(#pcadb19c544)" style="fill: none; stroke: #b0b0b0; stroke-width: 0.8; stroke-linecap: square"/>
     </g>
     <g id="line2d_20">
      <g>
       <use xlink:href="#m499f0ce886" x="44.57" y="214.010168" style="stroke: #000000; stroke-width: 0.8"/>
      </g>
     </g>
     <g id="text_11">
      <!-- 4 -->
      <g transform="translate(31.2075 217.809386)scale(0.1 -0.1)">
       <defs>
        <path id="DejaVuSans-34" d="M 2419 4116 
L 825 1625 
L 2419 1625 
L 2419 4116 
z
M 2253 4666 
L 3047 4666 
L 3047 1625 
L 3713 1625 
L 3713 1100 
L 3047 1100 
L 3047 0 
L 2419 0 
L 2419 1100 
L 313 1100 
L 313 1709 
L 2253 4666 
z
" transform="scale(0.015625)"/>
       </defs>
       <use xlink:href="#DejaVuSans-34"/>
      </g>
     </g>
    </g>
    <g id="ytick_4">
     <g id="line2d_21">
      <path d="M 44.57 175.485252 
L 450 175.485252 
" clip-path="url(#pcadb19c544)" style="fill: none; stroke: #b0b0b0; stroke-width: 0.8; stroke-linecap: square"/>
     </g>
     <g id="line2d_22">
      <g>
       <use xlink:href="#m499f0ce886" x="44.57" y="175.485252" style="stroke: #000000; stroke-width: 0.8"/>
      </g>
     </g>
     <g id="text_12">
      <!-- 6 -->
      <g transform="translate(31.2075 179.28447)scale(0.1 -0.1)">
       <defs>
        <path id="DejaVuSans-36" d="M 2113 2584 
Q 1688 2584 1439 2293 
Q 1191 2003 1191 1497 
Q 1191 994 1439 701 
Q 1688 409 2113 409 
Q 2538 409 2786 701 
Q 3034 994 3034 1497 
Q 3034 2003 2786 2293 
Q 2538 2584 2113 2584 
z
M 3366 4563 
L 3366 3988 
Q 3128 4100 2886 4159 
Q 2644 4219 2406 4219 
Q 1781 4219 1451 3797 
Q 1122 3375 1075 2522 
Q 1259 2794 1537 2939 
Q 1816 3084 2150 3084 
Q 2853 3084 3261 2657 
Q 3669 2231 3669 1497 
Q 3669 778 3244 343 
Q 2819 -91 2113 -91 
Q 1303 -91 875 529 
Q 447 1150 447 2328 
Q 447 3434 972 4092 
Q 1497 4750 2381 4750 
Q 2619 4750 2861 4703 
Q 3103 4656 3366 4563 
z
" transform="scale(0.015625)"/>
       </defs>
       <use xlink:href="#DejaVuSans-36"/>
      </g>
     </g>
    </g>
    <g id="ytick_5">
     <g id="line2d_23">
      <path d="M 44.57 136.960335 
L 450 136.960335 
" clip-path="url(#pcadb19c544)" style="fill: none; stroke: #b0b0b0; stroke-width: 0.8; stroke-linecap: square"/>
     </g>
     <g id="line2d_24">
      <g>
       <use xlink:href="#m499f0ce886" x="44.57" y="136.960335" style="stroke: #000000; stroke-width: 0.8"/>
      </g>
     </g>
     <g id="text_13">
      <!-- 8 -->
      <g transform="translate(31.2075 140.759554)scale(0.1 -0.1)">
       <defs>
        <path id="DejaVuSans-38" d="M 2034 2216 
Q 1584 2216 1326 1975 
Q 1069 1734 1069 1313 
Q 1069 891 1326 650 
Q 1584 409 2034 409 
Q 2484 409 2743 651 
Q 3003 894 3003 1313 
Q 3003 1734 2745 1975 
Q 2488 2216 2034 2216 
z
M 1403 2484 
Q 997 2584 770 2862 
Q 544 3141 544 3541 
Q 544 4100 942 4425 
Q 1341 4750 2034 4750 
Q 2731 4750 3128 4425 
Q 3525 4100 3525 3541 
Q 3525 3141 3298 2862 
Q 3072 2584 2669 2484 
Q 3125 2378 3379 2068 
Q 3634 1759 3634 1313 
Q 3634 634 3220 271 
Q 2806 -91 2034 -91 
Q 1263 -91 848 271 
Q 434 634 434 1313 
Q 434 1759 690 2068 
Q 947 2378 1403 2484 
z
M 1172 3481 
Q 1172 3119 1398 2916 
Q 1625 2713 2034 2713 
Q 2441 2713 2670 2916 
Q 2900 3119 2900 3481 
Q 2900 3844 2670 4047 
Q 2441 4250 2034 4250 
Q 1625 4250 1398 4047 
Q 1172 3844 1172 3481 
z
" transform="scale(0.015625)"/>
       </defs>
       <use xlink:href="#DejaVuSans-38"/>
      </g>
     </g>
    </g>
    <g id="ytick_6">
     <g id="line2d_25">
      <path d="M 44.57 98.435419 
L 450 98.435419 
" clip-path="url(#pcadb19c544)" style="fill: none; stroke: #b0b0b0; stroke-width: 0.8; stroke-linecap: square"/>
     </g>
     <g id="line2d_26">
      <g>
       <use xlink:href="#m499f0ce886" x="44.57" y="98.435419" style="stroke: #000000; stroke-width: 0.8"/>
      </g>
     </g>
     <g id="text_14">
      <!-- 10 -->
      <g transform="translate(24.845 102.234638)scale(0.1 -0.1)">
       <use xlink:href="#DejaVuSans-31"/>
       <use xlink:href="#DejaVuSans-30" x="63.623047"/>
      </g>
     </g>
    </g>
    <g id="ytick_7">
     <g id="line2d_27">
      <path d="M 44.57 59.910503 
L 450 59.910503 
" clip-path="url(#pcadb19c544)" style="fill: none; stroke: #b0b0b0; stroke-width: 0.8; stroke-linecap: square"/>
     </g>
     <g id="line2d_28">
      <g>
       <use xlink:href="#m499f0ce886" x="44.57" y="59.910503" style="stroke: #000000; stroke-width: 0.8"/>
      </g>
     </g>
     <g id="text_15">
      <!-- 12 -->
      <g transform="translate(24.845 63.709722)scale(0.1 -0.1)">
       <use xlink:href="#DejaVuSans-31"/>
       <use xlink:href="#DejaVuSans-32" x="63.623047"/>
      </g>
     </g>
    </g>
    <g id="text_16">
     <!-- y [m] -->
     <g transform="translate(18.765313 178.580312)rotate(-90)scale(0.1 -0.1)">
      <defs>
       <path id="DejaVuSans-79" d="M 2059 -325 
Q 1816 -950 1584 -1140 
Q 1353 -1331 966 -1331 
L 506 -1331 
L 506 -850 
L 844 -850 
Q 1081 -850 1212 -737 
Q 1344 -625 1503 -206 
L 1606 56 
L 191 3500 
L 800 3500 
L 1894 763 
L 2988 3500 
L 3597 3500 
L 2059 -325 
z
" transform="scale(0.015625)"/>
       <path id="DejaVuSans-6d" d="M 3328 2828 
Q 3544 3216 3844 3400 
Q 4144 3584 4550 3584 
Q 5097 3584 5394 3201 
Q 5691 2819 5691 2113 
L 5691 0 
L 5113 0 
L 5113 2094 
Q 5113 2597 4934 2840 
Q 4756 3084 4391 3084 
Q 3944 3084 3684 2787 
Q 3425 2491 3425 1978 
L 3425 0 
L 2847 0 
L 2847 2094 
Q 2847 2600 2669 2842 
Q 2491 3084 2119 3084 
Q 1678 3084 1418 2786 
Q 1159 2488 1159 1978 
L 1159 0 
L 581 0 
L 581 3500 
L 1159 3500 
L 1159 2956 
Q 1356 3278 1631 3431 
Q 1906 3584 2284 3584 
Q 2666 3584 2933 3390 
Q 3200 3197 3328 2828 
z
" transform="scale(0.015625)"/>
      </defs>
      <use xlink:href="#DejaVuSans-79"/>
      <use xlink:href="#DejaVuSans-20" x="59.179688"/>
      <use xlink:href="#DejaVuSans-5b" x="90.966797"/>
      <use xlink:href="#DejaVuSans-6d" x="129.980469"/>
      <use xlink:href="#DejaVuSans-5d" x="227.392578"/>
     </g>
    </g>
   </g>
   <g id="line2d_29">
    <path d="M 62.998636 287.764233 
L 63.564626 287.667192 
L 63.791022 287.569317 
L 64.696607 287.461092 
L 64.923003 287.351389 
L 65.149399 287.351389 
L 65.375795 287.22931 
L 66.281379 287.121948 
L 66.507775 286.997168 
L 66.847369 286.997168 
L 67.073765 286.860097 
L 67.413359 286.860097 
L 67.639755 286.691375 
L 67.866151 286.691375 
L 68.092547 286.543697 
L 68.432141 286.543697 
L 68.658537 286.343275 
L 68.998131 286.343275 
L 69.224527 286.099263 
L 69.450923 286.099263 
L 69.677319 285.895706 
L 70.016913 285.895706 
L 70.243309 285.638035 
L 70.582903 285.638035 
L 70.809299 285.348378 
L 71.148893 285.348378 
L 71.375289 285.099685 
L 71.601685 285.099685 
L 71.828081 284.851641 
L 72.167675 284.851641 
L 72.394071 284.585947 
L 72.733665 284.585947 
L 72.960061 284.329092 
L 73.299655 284.329092 
L 73.526051 284.084138 
L 73.752448 284.084138 
L 73.978844 283.834005 
L 74.318438 283.834005 
L 74.544834 283.634652 
L 74.884428 283.634652 
L 75.110824 283.428465 
L 75.33722 283.428465 
L 75.563616 283.214807 
L 75.90321 283.214807 
L 76.129606 283.054184 
L 76.4692 283.054184 
L 76.695596 282.878204 
L 76.921992 282.878204 
L 77.148388 282.684178 
L 77.487982 282.684178 
L 77.714378 282.485906 
L 78.053972 282.485906 
L 78.280368 282.282361 
L 78.506764 282.282361 
L 78.73316 282.108515 
L 79.072754 282.108515 
L 79.29915 281.894961 
L 79.638744 281.894961 
L 79.86514 281.676306 
L 80.091536 281.676306 
L 80.317932 281.453026 
L 80.657526 281.453026 
L 80.883922 281.207067 
L 81.223516 281.207067 
L 81.449912 281.016329 
L 81.676308 281.016329 
L 81.902704 280.806858 
L 82.1291 280.806858 
L 82.355496 280.600126 
L 82.69509 280.600126 
L 82.921486 280.380898 
L 83.261081 280.380898 
L 83.487477 280.151055 
L 83.713873 280.151055 
L 83.940269 279.973529 
L 84.279863 279.973529 
L 84.506259 279.768649 
L 84.845853 279.768649 
L 85.072249 279.525571 
L 85.298645 279.525571 
L 85.525041 279.25691 
L 85.864635 279.25691 
L 86.091031 278.961955 
L 86.430625 278.961955 
L 86.657021 278.613573 
L 86.996615 278.613573 
L 87.223011 278.296411 
L 87.562605 278.296411 
L 87.789001 277.926974 
L 88.015397 277.926974 
L 88.241793 277.498436 
L 88.581387 277.498436 
L 88.807783 277.111978 
L 89.147377 277.111978 
L 89.373773 276.703003 
L 89.600169 276.703003 
L 89.826565 276.271576 
L 90.166159 276.271576 
L 90.392555 275.776307 
L 90.618951 275.776307 
L 90.845347 275.212079 
L 91.184941 275.212079 
L 91.411337 274.71344 
L 91.750931 274.71344 
L 91.977327 274.147777 
L 92.316921 274.147777 
L 92.430119 273.50994 
L 92.769714 273.50994 
L 92.99611 273.001457 
L 93.335704 273.001457 
L 93.5621 272.423739 
L 93.788496 272.423739 
L 93.901694 271.825959 
L 94.354486 271.825959 
L 94.467684 271.15019 
L 94.807278 271.15019 
L 95.033674 270.389679 
L 95.486466 270.389679 
L 95.599664 269.723476 
L 95.939258 269.723476 
L 96.052456 268.973923 
L 96.505248 268.973923 
L 96.731644 268.137811 
L 97.071238 268.137811 
L 97.184436 267.481 
L 97.52403 267.481 
L 97.637228 266.749688 
L 97.976822 266.749688 
L 98.09002 266.015137 
L 98.542812 266.015137 
L 98.65601 265.28549 
L 98.995604 265.28549 
L 99.108802 264.570606 
L 99.561594 264.570606 
L 99.674792 263.880729 
L 100.014386 263.880729 
L 100.127584 263.225135 
L 100.580376 263.225135 
L 100.693574 262.609564 
L 101.146366 262.609564 
L 101.259564 261.835861 
L 101.599158 261.835861 
L 101.825555 261.312004 
L 102.165149 261.312004 
L 102.391545 260.821033 
L 102.617941 260.821033 
L 102.844337 260.318715 
L 103.183931 260.318715 
L 103.410327 259.885886 
L 103.749921 259.885886 
L 103.976317 259.477658 
L 104.202713 259.477658 
L 104.429109 259.059581 
L 104.768703 259.059581 
L 104.995099 258.731954 
L 105.221495 258.731954 
L 105.447891 258.392415 
L 105.787485 258.392415 
L 106.013881 258.071745 
L 106.240277 258.071745 
L 106.466673 257.739277 
L 106.806267 257.739277 
L 107.032663 257.419886 
L 107.259059 257.419886 
L 107.485455 257.084728 
L 107.825049 257.084728 
L 108.051445 256.833893 
L 108.391039 256.833893 
L 108.617435 256.542625 
L 108.957029 256.542625 
L 109.183425 256.264402 
L 109.523019 256.264402 
L 109.749415 256.000967 
L 109.975811 256.000967 
L 110.202207 255.732915 
L 110.541801 255.732915 
L 110.768197 255.539063 
L 110.994593 255.539063 
L 111.22099 255.337324 
L 111.560584 255.337324 
L 111.78698 255.129394 
L 112.013376 255.129394 
L 112.239772 254.915766 
L 112.579366 254.915766 
L 112.805762 254.757941 
L 113.145356 254.757941 
L 113.371752 254.589654 
L 113.598148 254.589654 
L 113.824544 254.411711 
L 114.164138 254.411711 
L 114.390534 254.239335 
L 114.730128 254.239335 
L 114.956524 254.072108 
L 115.18292 254.072108 
L 115.409316 253.895902 
L 115.74891 253.895902 
L 115.975306 253.763037 
L 116.3149 253.763037 
L 116.541296 253.618529 
L 116.767692 253.618529 
L 116.994088 253.461552 
L 117.333682 253.461552 
L 117.560078 253.304348 
L 117.899672 253.304348 
L 118.126068 253.146512 
L 118.465662 253.146512 
L 118.692058 252.988309 
L 119.031652 252.988309 
L 119.258048 252.830283 
L 119.484444 252.830283 
L 119.71084 252.659691 
L 120.050434 252.659691 
L 120.27683 252.516056 
L 120.616425 252.516056 
L 120.842821 252.373183 
L 121.069217 252.373183 
L 121.295613 252.218545 
L 121.635207 252.218545 
L 121.861603 252.052878 
L 122.201197 252.052878 
L 122.427593 251.92708 
L 122.653989 251.92708 
L 122.880385 251.778517 
L 123.219979 251.778517 
L 123.446375 251.632956 
L 123.785969 251.632956 
L 124.012365 251.490599 
L 124.351959 251.490599 
L 124.578355 251.351526 
L 124.804751 251.351526 
L 125.031147 251.204448 
L 125.823533 251.093681 
L 126.049929 250.984704 
L 126.389523 250.984704 
L 126.615919 250.856018 
L 126.842315 250.856018 
L 127.068711 250.718813 
L 127.408305 250.718813 
L 127.634701 250.60427 
L 127.974295 250.60427 
L 128.200691 250.480694 
L 128.993077 250.378713 
L 129.219473 250.267542 
L 129.445869 250.267542 
L 129.672265 250.147431 
L 130.351454 250.058144 
L 130.57785 249.949985 
L 130.917444 249.949985 
L 131.14384 249.833303 
L 131.483434 249.833303 
L 131.70983 249.708578 
L 132.502216 249.613878 
L 132.728612 249.501824 
L 133.634196 249.391512 
L 133.860592 249.283031 
L 134.200186 249.176412 
L 135.784958 248.977071 
L 136.011354 248.875367 
L 136.80374 248.766707 
L 137.030136 248.675776 
L 137.93572 248.57734 
L 138.162116 248.479424 
L 138.954502 248.381862 
L 139.180898 248.276356 
L 139.973285 248.195158 
L 140.199681 248.105725 
L 140.992067 248.016083 
L 141.218463 247.918045 
L 142.124047 247.819719 
L 142.350443 247.721164 
L 143.142829 247.62248 
L 143.369225 247.515603 
L 144.274809 247.425298 
L 144.501205 247.335147 
L 145.293591 247.237111 
L 145.519987 247.139446 
L 146.425571 247.042234 
L 146.651967 246.937371 
L 147.444353 246.857108 
L 147.670749 246.769183 
L 148.463135 246.681555 
L 148.689531 246.586151 
L 149.595116 246.482811 
L 149.821512 246.39527 
L 150.613898 246.299538 
L 150.840294 246.195315 
L 151.63268 246.114671 
L 151.859076 246.025362 
L 152.651462 245.935332 
L 152.877858 245.844449 
L 153.670244 245.752608 
L 153.89664 245.659738 
L 154.689026 245.557173 
L 154.915422 245.444547 
L 155.707808 245.356783 
L 155.934204 245.259139 
L 156.839788 245.151303 
L 157.066184 245.042042 
L 157.405778 244.931371 
L 158.424561 244.819277 
L 158.650957 244.715267 
L 158.877353 244.715267 
L 159.103749 244.600458 
L 159.443343 244.600458 
L 159.669739 244.474536 
L 160.462125 244.376573 
L 160.688521 244.26764 
L 161.480907 244.157437 
L 161.707303 244.035678 
L 162.046897 244.035678 
L 162.273293 243.90187 
L 162.612887 243.90187 
L 162.839283 243.786989 
L 163.065679 243.786989 
L 163.292075 243.670441 
L 163.631669 243.670441 
L 163.858065 243.541334 
L 164.084461 243.541334 
L 164.310857 243.399022 
L 164.650451 243.399022 
L 164.876847 243.287723 
L 165.216441 243.287723 
L 165.442837 243.151932 
L 165.669233 243.151932 
L 165.895629 243.001956 
L 166.235223 243.001956 
L 166.461619 242.884506 
L 166.801213 242.884506 
L 167.027609 242.753145 
L 167.367203 242.656171 
L 167.706798 242.607222 
L 167.819996 242.607222 
L 168.046392 242.458477 
L 168.385986 242.458477 
L 168.612382 242.294081 
L 168.838778 242.294081 
L 169.065174 242.165325 
L 169.404768 242.165325 
L 169.631164 242.02145 
L 169.85756 242.02145 
L 170.083956 241.875198 
L 170.42355 241.875198 
L 170.649946 241.726579 
L 170.876342 241.726579 
L 171.102738 241.561746 
L 171.442332 241.561746 
L 171.668728 241.379982 
L 172.008322 241.379982 
L 172.234718 241.237948 
L 172.461114 241.237948 
L 172.68751 241.079492 
L 172.913906 241.079492 
L 173.140302 240.918703 
L 173.479896 240.918703 
L 173.706292 240.755562 
L 173.932688 240.755562 
L 174.159084 240.590059 
L 174.498678 240.590059 
L 174.725074 240.422199 
L 174.95147 240.422199 
L 175.177866 240.251937 
L 175.404262 240.251937 
L 175.630658 240.079248 
L 175.970252 240.079248 
L 176.196648 239.90407 
L 176.423044 239.90407 
L 176.64944 239.726362 
L 176.989035 239.726362 
L 177.215431 239.52957 
L 177.441827 239.52957 
L 177.668223 239.312926 
L 178.007817 239.312926 
L 178.234213 239.143763 
L 178.573807 239.143763 
L 178.800203 238.937876 
L 179.139797 238.937876 
L 179.366193 238.728828 
L 179.705787 238.728828 
L 179.932183 238.516547 
L 180.158579 238.516547 
L 180.384975 238.301043 
L 180.724569 238.301043 
L 180.950965 238.063922 
L 181.177361 238.063922 
L 181.403757 237.87892 
L 181.743351 237.87892 
L 181.969747 237.691666 
L 182.309341 237.691666 
L 182.535737 237.463965 
L 182.762133 237.463965 
L 182.988529 237.213608 
L 183.328123 237.213608 
L 183.554519 237.018417 
L 183.780915 237.018417 
L 184.007311 236.801129 
L 184.233707 236.801129 
L 184.460103 236.581116 
L 184.799697 236.581116 
L 185.026093 236.358418 
L 185.252489 236.358418 
L 185.478885 236.133031 
L 185.818479 236.133031 
L 186.044875 235.904976 
L 186.271271 235.904976 
L 186.497668 235.674236 
L 186.724064 235.674236 
L 186.95046 235.44083 
L 187.290054 235.44083 
L 187.51645 235.183115 
L 187.856044 235.183115 
L 188.08244 234.922215 
L 188.308836 234.922215 
L 188.535232 234.635953 
L 188.874826 234.635953 
L 189.101222 234.413224 
L 189.440816 234.413224 
L 189.667212 234.165707 
L 189.893608 234.165707 
L 190.120004 233.915561 
L 190.3464 233.915561 
L 190.572796 233.662738 
L 190.91239 233.662738 
L 191.138786 233.407209 
L 191.47838 233.407209 
L 191.704776 233.125407 
L 191.931172 233.125407 
L 192.157568 232.840439 
L 192.497162 232.840439 
L 192.723558 232.52814 
L 193.063152 232.52814 
L 193.289548 232.285366 
L 193.515944 232.285366 
L 193.74234 232.015782 
L 193.968736 232.015782 
L 194.195132 231.743533 
L 194.534726 231.743533 
L 194.761122 231.468629 
L 194.987518 231.468629 
L 195.213914 231.19109 
L 195.553508 231.19109 
L 195.779905 230.885272 
L 196.119499 230.885272 
L 196.345895 230.576274 
L 196.685489 230.576274 
L 196.911885 230.264143 
L 197.138281 230.264143 
L 197.364677 229.922397 
L 197.704271 229.922397 
L 197.930667 229.656942 
L 198.157063 229.656942 
L 198.383459 229.362418 
L 198.723053 229.362418 
L 198.949449 229.065297 
L 199.175845 229.065297 
L 199.402241 228.765594 
L 199.628637 228.765594 
L 199.855033 228.463362 
L 200.194627 228.463362 
L 200.421023 228.158598 
L 200.647419 228.158598 
L 200.873815 227.851339 
L 201.213409 227.851339 
L 201.439805 227.51332 
L 201.666201 227.51332 
L 201.892597 227.143775 
L 202.232191 227.143775 
L 202.458587 226.857201 
L 202.798181 226.857201 
L 203.024577 226.510724 
L 203.250973 226.510724 
L 203.477369 226.132268 
L 203.816963 226.132268 
L 204.043359 225.838978 
L 204.382953 225.838978 
L 204.609349 225.514233 
L 204.835745 225.514233 
L 205.062142 225.157424 
L 205.288538 225.157424 
L 205.514934 224.858085 
L 205.854528 224.858085 
L 206.080924 224.526696 
L 206.30732 224.526696 
L 206.533716 224.193137 
L 206.87331 224.193137 
L 207.099706 223.85745 
L 207.326102 223.85745 
L 207.552498 223.519684 
L 207.778894 223.519684 
L 208.00529 223.179851 
L 208.344884 223.179851 
L 208.57128 222.80684 
L 208.910874 222.80684 
L 209.13727 222.400016 
L 209.476864 222.400016 
L 209.70326 222.053567 
L 210.042854 222.053567 
L 210.26925 221.673328 
L 210.495646 221.673328 
L 210.722042 221.290728 
L 211.061636 221.290728 
L 211.288032 220.87356 
L 211.627626 220.87356 
L 211.854022 220.518421 
L 212.193616 220.518421 
L 212.420012 220.128824 
L 212.646408 220.128824 
L 212.872804 219.704215 
L 213.212398 219.704215 
L 213.438794 219.34289 
L 213.778388 219.34289 
L 214.004784 218.946594 
L 214.344378 218.946594 
L 214.570775 218.51472 
L 214.797171 218.51472 
L 215.023567 218.180735 
L 215.363161 218.180735 
L 215.589557 217.812154 
L 215.929151 217.812154 
L 216.155547 217.409992 
L 216.381943 217.409992 
L 216.608339 217.009736 
L 216.947933 217.009736 
L 217.174329 216.580435 
L 217.513923 216.580435 
L 217.740319 216.254636 
L 217.966715 216.254636 
L 218.193111 215.869322 
L 218.532705 215.869322 
L 218.759101 215.459118 
L 219.098695 215.459118 
L 219.325091 215.148698 
L 219.551487 215.148698 
L 219.777883 214.812407 
L 220.004279 214.812407 
L 220.230675 214.481627 
L 220.570269 214.481627 
L 220.796665 214.156602 
L 221.023061 214.156602 
L 221.249457 213.83753 
L 221.589051 213.83753 
L 221.815447 213.496344 
L 222.155041 213.496344 
L 222.381437 213.162394 
L 222.721031 213.162394 
L 222.947427 212.835496 
L 223.173823 212.835496 
L 223.400219 212.515411 
L 223.739813 212.515411 
L 223.96621 212.176112 
L 224.305804 212.176112 
L 224.5322 211.894997 
L 224.871794 211.894997 
L 225.09819 211.594527 
L 225.324586 211.594527 
L 225.550982 211.276705 
L 225.890576 211.276705 
L 226.116972 211.037981 
L 226.456566 211.037981 
L 226.682962 210.758725 
L 226.909358 210.758725 
L 227.135754 210.465792 
L 227.475348 210.465792 
L 227.701744 210.247612 
L 227.92814 210.247612 
L 228.154536 210.015122 
L 228.49413 210.015122 
L 228.720526 209.770499 
L 228.946922 209.770499 
L 229.173318 209.573746 
L 229.399714 209.573746 
L 229.62611 209.38322 
L 229.965704 209.38322 
L 230.1921 209.180366 
L 230.418496 209.180366 
L 230.644892 208.96648 
L 230.984486 208.96648 
L 231.210882 208.742741 
L 231.550476 208.742741 
L 231.776872 208.559266 
L 232.003268 208.559266 
L 232.229664 208.364478 
L 232.569258 208.364478 
L 232.795654 208.174622 
L 233.135248 208.174622 
L 233.361645 208.019691 
L 233.588041 208.019691 
L 233.814437 207.852352 
L 234.040833 207.852352 
L 234.267229 207.687622 
L 234.606823 207.687622 
L 234.833219 207.50996 
L 235.172813 207.50996 
L 235.399209 207.317724 
L 235.625605 207.317724 
L 235.852001 207.167545 
L 236.191595 207.167545 
L 236.417991 206.997343 
L 236.757585 206.997343 
L 236.983981 206.802047 
L 237.210377 206.802047 
L 237.436773 206.594539 
L 237.776367 206.594539 
L 238.002763 206.356714 
L 238.342357 206.356714 
L 238.568753 206.166048 
L 238.795149 206.166048 
L 239.021545 205.950507 
L 239.247941 205.950507 
L 239.474337 205.73095 
L 239.813931 205.73095 
L 240.040327 205.488824 
L 240.379921 205.488824 
L 240.606317 205.224717 
L 240.945911 205.224717 
L 241.172307 204.99978 
L 241.511901 204.99978 
L 241.738297 204.751874 
L 241.964693 204.751874 
L 242.191089 204.499745 
L 242.530683 204.499745 
L 242.75708 204.21896 
L 243.096674 204.21896 
L 243.32307 203.972805 
L 243.549466 203.972805 
L 243.775862 203.717069 
L 244.115456 203.717069 
L 244.341852 203.450741 
L 244.568248 203.450741 
L 244.794644 203.173479 
L 245.134238 203.173479 
L 245.360634 202.885928 
L 245.58703 202.885928 
L 245.813426 202.562661 
L 246.15302 202.562661 
L 246.379416 202.232029 
L 246.71901 202.232029 
L 246.945406 201.896377 
L 247.171802 201.896377 
L 247.398198 201.529125 
L 247.737792 201.529125 
L 247.964188 201.244801 
L 248.303782 201.244801 
L 248.530178 200.930164 
L 248.756574 200.930164 
L 248.98297 200.583744 
L 249.322564 200.583744 
L 249.54896 200.202797 
L 249.888554 200.202797 
L 250.11495 199.874 
L 250.454544 199.874 
L 250.68094 199.506612 
L 250.907336 199.506612 
L 251.133732 199.09647 
L 251.473326 199.09647 
L 251.699722 198.738733 
L 252.039317 198.738733 
L 252.265713 198.371058 
L 252.605307 198.371058 
L 252.831703 197.959502 
L 253.058099 197.959502 
L 253.284495 197.504609 
L 253.624089 197.504609 
L 253.850485 197.15055 
L 254.076881 197.15055 
L 254.303277 196.759194 
L 254.642871 196.759194 
L 254.869267 196.367859 
L 255.095663 196.367859 
L 255.322059 195.942651 
L 255.661653 195.942651 
L 255.888049 195.484713 
L 256.227643 195.484713 
L 256.454039 195.1336 
L 256.680435 195.1336 
L 256.906831 194.74686 
L 257.246425 194.74686 
L 257.472821 194.322133 
L 257.812415 194.322133 
L 258.038811 193.893365 
L 258.265207 193.893365 
L 258.491603 193.425022 
L 258.831197 193.425022 
L 259.057593 193.063189 
L 259.283989 193.063189 
L 259.510385 192.664478 
L 259.849979 192.664478 
L 260.076375 192.265548 
L 260.302771 192.265548 
L 260.529167 191.83041 
L 260.868761 191.83041 
L 261.095157 191.359168 
L 261.434752 191.359168 
L 261.661148 190.960489 
L 261.887544 190.960489 
L 262.11394 190.561844 
L 262.453534 190.561844 
L 262.67993 190.16303 
L 262.906326 190.16303 
L 263.132722 189.763702 
L 263.472316 189.763702 
L 263.698712 189.363391 
L 263.925108 189.363391 
L 264.151504 188.961869 
L 264.3779 188.961869 
L 264.604296 188.559337 
L 264.94389 188.559337 
L 265.170286 188.119638 
L 265.50988 188.119638 
L 265.736276 187.680312 
L 266.07587 187.680312 
L 266.189068 186.988445 
L 266.868256 186.952228 
L 267.094652 186.555396 
L 267.434246 186.555396 
L 267.660642 186.16161 
L 267.887038 186.16161 
L 268.113434 185.770602 
L 268.453028 185.770602 
L 268.679424 185.381585 
L 268.90582 185.381585 
L 269.132216 184.993495 
L 269.358612 184.993495 
L 269.585008 184.605299 
L 269.924602 184.605299 
L 270.150998 184.216235 
L 270.490592 184.216235 
L 270.716988 183.790398 
L 270.943385 183.790398 
L 271.169781 183.327511 
L 271.509375 183.327511 
L 271.735771 182.970438 
L 271.962167 182.970438 
L 272.188563 182.576821 
L 272.528157 182.576821 
L 272.754553 182.146677 
L 272.980949 182.146677 
L 273.207345 181.679648 
L 273.546939 181.679648 
L 273.773335 181.319676 
L 274.112929 181.319676 
L 274.339325 180.922755 
L 274.565721 180.922755 
L 274.792117 180.524814 
L 275.018513 180.524814 
L 275.244909 180.125659 
L 275.584503 180.125659 
L 275.810899 179.689131 
L 276.150493 179.689131 
L 276.376889 179.251893 
L 276.603285 179.251893 
L 276.829681 178.778169 
L 277.169275 178.778169 
L 277.395671 178.414192 
L 277.735265 178.414192 
L 277.961661 177.978486 
L 278.301255 177.978486 
L 278.527651 177.544281 
L 278.754047 177.544281 
L 278.980443 177.075785 
L 279.320037 177.075785 
L 279.546433 176.716679 
L 279.772829 176.716679 
L 279.999225 176.322541 
L 280.33882 176.322541 
L 280.565216 175.929046 
L 280.791612 175.929046 
L 281.018008 175.535728 
L 281.357602 175.535728 
L 281.583998 175.142236 
L 281.810394 175.142236 
L 282.03679 174.748521 
L 282.263186 174.748521 
L 282.489582 174.35475 
L 282.829176 174.35475 
L 283.055572 173.961448 
L 283.281968 173.961448 
L 283.508364 173.568968 
L 283.73476 173.568968 
L 283.961156 173.177836 
L 284.30075 173.177836 
L 284.527146 172.752817 
L 284.86674 172.752817 
L 285.093136 172.294281 
L 285.319532 172.294281 
L 285.545928 171.977762 
L 285.885522 171.977762 
L 286.111918 171.556488 
L 286.338314 171.556488 
L 286.56471 171.100186 
L 286.904304 171.100186 
L 287.1307 170.748762 
L 287.470294 170.748762 
L 287.69669 170.361615 
L 287.923086 170.361615 
L 288.149482 169.939064 
L 288.489076 169.939064 
L 288.715472 169.481791 
L 289.055066 169.481791 
L 289.281462 169.095568 
L 289.507858 169.095568 
L 289.734255 168.709607 
L 290.073849 168.709607 
L 290.300245 168.323457 
L 290.526641 168.323457 
L 290.753037 167.936536 
L 291.092631 167.936536 
L 291.319027 167.513241 
L 291.545423 167.513241 
L 291.771819 167.05328 
L 292.111413 167.05328 
L 292.337809 166.698716 
L 292.677403 166.698716 
L 292.903799 166.272792 
L 293.130195 166.272792 
L 293.356591 165.812022 
L 293.696185 165.812022 
L 293.922581 165.458763 
L 294.262175 165.458763 
L 294.488571 165.07159 
L 294.714967 165.07159 
L 294.941363 164.684917 
L 295.167759 164.684917 
L 295.394155 164.296758 
L 295.733749 164.296758 
L 295.960145 163.868293 
L 296.186541 163.868293 
L 296.412937 163.432726 
L 296.752531 163.432726 
L 296.978927 163.064869 
L 297.205323 163.064869 
L 297.431719 162.657248 
L 297.771313 162.657248 
L 297.997709 162.248336 
L 298.337303 162.248336 
L 298.563699 161.802224 
L 298.790095 161.802224 
L 299.016492 161.319904 
L 299.356086 161.319904 
L 299.582482 160.912644 
L 299.922076 160.912644 
L 300.148472 160.46954 
L 300.374868 160.46954 
L 300.601264 159.991491 
L 300.940858 159.991491 
L 301.167254 159.625429 
L 301.506848 159.625429 
L 301.733244 159.224617 
L 301.95964 159.224617 
L 302.186036 158.788951 
L 302.52563 158.788951 
L 302.752026 158.317087 
L 303.09162 158.317087 
L 303.318016 157.915907 
L 303.65761 157.915907 
L 303.884006 157.474411 
L 304.2236 157.474411 
L 304.449996 157.028473 
L 304.676392 157.028473 
L 304.902788 156.578985 
L 305.242382 156.578985 
L 305.468778 156.128032 
L 305.808372 156.128032 
L 306.034768 155.639908 
L 306.261164 155.639908 
L 306.48756 155.265614 
L 306.827154 155.265614 
L 307.05355 154.855873 
L 307.393144 154.855873 
L 307.61954 154.41192 
L 307.845936 154.41192 
L 308.072332 153.934612 
L 308.411927 153.934612 
L 308.638323 153.569048 
L 308.864719 153.569048 
L 309.091115 153.166954 
L 309.430709 153.166954 
L 309.657105 152.763733 
L 309.883501 152.763733 
L 310.109897 152.359102 
L 310.336293 152.359102 
L 310.562689 151.953324 
L 310.902283 151.953324 
L 311.128679 151.546803 
L 311.355075 151.546803 
L 311.581471 151.139772 
L 311.921065 151.139772 
L 312.147461 150.732054 
L 312.373857 150.732054 
L 312.600253 150.322997 
L 312.939847 150.322997 
L 313.166243 149.875835 
L 313.392639 149.875835 
L 313.619035 149.390754 
L 313.958629 149.390754 
L 314.185025 148.979726 
L 314.524619 148.979726 
L 314.751015 148.567696 
L 314.977411 148.567696 
L 315.203807 148.1542 
L 315.543401 148.1542 
L 315.769797 147.739583 
L 315.996193 147.739583 
L 316.222589 147.32416 
L 316.562183 147.32416 
L 316.788579 146.870434 
L 317.128173 146.870434 
L 317.354569 146.416332 
L 317.580965 146.416332 
L 317.807362 145.924072 
L 318.146956 145.924072 
L 318.373352 145.507326 
L 318.712946 145.507326 
L 318.939342 145.090464 
L 319.165738 145.090464 
L 319.392134 144.63574 
L 319.731728 144.63574 
L 319.958124 144.18137 
L 320.297718 144.18137 
L 320.524114 143.689568 
L 320.863708 143.689568 
L 321.090104 143.311415 
L 321.3165 143.311415 
L 321.542896 142.895362 
L 321.769292 142.895362 
L 321.995688 142.478705 
L 322.335282 142.478705 
L 322.561678 142.022986 
L 322.788074 142.022986 
L 323.01447 141.527003 
L 323.354064 141.527003 
L 323.58046 141.143479 
L 323.920054 141.143479 
L 324.14645 140.71915 
L 324.372846 140.71915 
L 324.599242 140.29218 
L 324.825638 140.29218 
L 325.052034 139.86254 
L 325.391628 139.86254 
L 325.618024 139.430326 
L 325.957618 139.430326 
L 326.184014 138.956008 
L 326.41041 138.956008 
L 326.636806 138.438932 
L 326.9764 138.438932 
L 327.202797 138.038874 
L 327.542391 138.038874 
L 327.768787 137.556154 
L 327.995183 137.556154 
L 328.221579 137.030254 
L 328.561173 137.030254 
L 328.787569 136.624137 
L 329.127163 136.624137 
L 329.353559 136.136492 
L 329.579955 136.136492 
L 329.806351 135.609375 
L 330.145945 135.609375 
L 330.372341 135.165562 
L 330.711935 135.165562 
L 330.938331 134.724185 
L 331.164727 134.724185 
L 331.391123 134.285448 
L 331.617519 134.285448 
L 331.843915 133.80968 
L 332.183509 133.80968 
L 332.409905 133.415105 
L 332.636301 133.415105 
L 332.862697 132.982532 
L 333.202291 132.982532 
L 333.428687 132.51161 
L 333.655083 132.51161 
L 333.881479 132.001245 
L 334.221073 132.001245 
L 334.447469 131.607459 
L 334.787063 131.607459 
L 335.013459 131.172353 
L 335.239855 131.172353 
L 335.466251 130.734899 
L 335.805845 130.734899 
L 336.032241 130.255473 
L 336.258637 130.255473 
L 336.485034 129.73478 
L 336.824628 129.73478 
L 337.051024 129.33436 
L 337.27742 129.33436 
L 337.503816 128.894908 
L 337.84341 128.894908 
L 338.069806 128.457008 
L 338.296202 128.457008 
L 338.522598 128.020767 
L 338.862192 128.020767 
L 339.088588 127.545985 
L 339.428182 127.545985 
L 339.654578 127.070966 
L 339.994172 127.070966 
L 340.220568 126.594322 
L 340.446964 126.594322 
L 340.67336 126.076045 
L 341.012954 126.076045 
L 341.23935 125.676416 
L 341.465746 125.676416 
L 341.692142 125.236355 
L 342.031736 125.236355 
L 342.258132 124.755944 
L 342.597726 124.755944 
L 342.824122 124.275078 
L 343.163716 124.275078 
L 343.390112 123.793625 
L 343.616508 123.793625 
L 343.842904 123.271127 
L 344.182498 123.271127 
L 344.408894 122.828257 
L 344.748488 122.828257 
L 344.974884 122.344518 
L 345.20128 122.344518 
L 345.427676 121.819913 
L 345.76727 121.819913 
L 345.993667 121.416174 
L 346.333261 121.416174 
L 346.559657 120.971913 
L 346.786053 120.971913 
L 347.012449 120.527518 
L 347.238845 120.527518 
L 347.465241 120.082991 
L 347.804835 120.082991 
L 348.031231 119.638272 
L 348.370825 119.638272 
L 348.597221 119.152875 
L 348.823617 119.152875 
L 349.050013 118.667148 
L 349.389607 118.667148 
L 349.616003 118.181125 
L 349.955597 118.181125 
L 350.181993 117.654213 
L 350.521587 117.654213 
L 350.747983 117.208124 
L 350.974379 117.208124 
L 351.200775 116.76187 
L 351.540369 116.76187 
L 351.766765 116.315484 
L 351.993161 116.315484 
L 352.219557 115.868978 
L 352.445953 115.868978 
L 352.672349 115.422419 
L 353.011943 115.422419 
L 353.238339 114.935132 
L 353.577933 114.935132 
L 353.804329 114.407007 
L 354.030725 114.407007 
L 354.257121 114.000507 
L 354.596715 114.000507 
L 354.823111 113.512655 
L 355.162705 113.512655 
L 355.389102 113.024975 
L 355.728696 113.024975 
L 355.955092 112.537387 
L 356.181488 112.537387 
L 356.407884 112.009956 
L 356.747478 112.009956 
L 356.973874 111.564454 
L 357.313468 111.564454 
L 357.539864 111.120238 
L 357.76626 111.120238 
L 357.992656 110.677633 
L 358.33225 110.677633 
L 358.558646 110.196868 
L 358.89824 110.196868 
L 359.124636 109.71843 
L 359.351032 109.71843 
L 359.577428 109.202856 
L 359.917022 109.202856 
L 360.143418 108.808127 
L 360.369814 108.808127 
L 360.59621 108.375753 
L 360.935804 108.375753 
L 361.1622 107.945104 
L 361.388596 107.945104 
L 361.614992 107.516137 
L 361.954586 107.516137 
L 362.180982 107.08875 
L 362.407378 107.08875 
L 362.633774 106.662905 
L 362.86017 106.662905 
L 363.086566 106.238565 
L 363.42616 106.238565 
L 363.652556 105.777392 
L 363.99215 105.777392 
L 364.218546 105.318127 
L 364.444942 105.318127 
L 364.671339 104.898979 
L 365.010933 104.898979 
L 365.237329 104.444132 
L 365.576923 104.444132 
L 365.803319 103.954666 
L 366.029715 103.954666 
L 366.256111 103.580522 
L 366.595705 103.580522 
L 366.822101 103.170839 
L 367.048497 103.170839 
L 367.274893 102.762656 
L 367.614487 102.762656 
L 367.840883 102.354743 
L 368.067279 102.354743 
L 368.293675 101.946282 
L 368.633269 101.946282 
L 368.859665 101.499051 
L 369.086061 101.499051 
L 369.312457 101.013138 
L 369.652051 101.013138 
L 369.878447 100.601388 
L 370.218041 100.601388 
L 370.444437 100.152184 
L 370.784031 100.152184 
L 371.010427 99.665882 
L 371.236823 99.665882 
L 371.463219 99.291831 
L 371.802813 99.291831 
L 372.029209 98.87972 
L 372.255605 98.87972 
L 372.482001 98.465722 
L 372.821595 98.465722 
L 373.047991 98.048004 
L 373.274387 98.048004 
L 373.500783 97.624907 
L 373.727179 97.624907 
L 373.953575 97.195136 
L 374.29317 97.195136 
L 374.519566 96.757894 
L 374.745962 96.757894 
L 374.972358 96.31332 
L 375.311952 96.31332 
L 375.538348 95.862454 
L 375.764744 95.862454 
L 375.99114 95.406644 
L 376.330734 95.406644 
L 376.55713 94.947307 
L 376.783526 94.947307 
L 377.009922 94.485735 
L 377.236318 94.485735 
L 377.462714 94.022791 
L 377.802308 94.022791 
L 378.028704 93.558869 
L 378.2551 93.558869 
L 378.481496 93.093712 
L 378.82109 93.093712 
L 379.047486 92.583958 
L 379.38708 92.583958 
L 379.613476 92.070843 
L 379.839872 92.070843 
L 380.066268 91.553057 
L 380.405862 91.553057 
L 380.632258 91.030204 
L 380.971852 91.030204 
L 381.198248 90.458389 
L 381.424644 90.458389 
L 381.65104 90.01564 
L 381.990634 90.01564 
L 382.21703 89.526732 
L 382.443426 89.526732 
L 382.669822 89.036887 
L 383.009416 89.036887 
L 383.235812 88.546883 
L 383.462209 88.546883 
L 383.688605 88.05759 
L 383.915001 88.05759 
L 384.141397 87.56965 
L 384.480991 87.56965 
L 384.707387 87.039308 
L 385.046981 87.039308 
L 385.273377 86.510982 
L 385.499773 86.510982 
L 385.726169 85.940671 
L 386.065763 85.940671 
L 386.292159 85.503134 
L 386.631753 85.503134 
L 386.858149 84.979009 
L 387.084545 84.979009 
L 387.310941 84.455376 
L 387.650535 84.455376 
L 387.876931 84.018864 
L 388.103327 84.018864 
L 388.329723 83.538335 
L 388.669317 83.538335 
L 388.895713 83.057196 
L 389.122109 83.057196 
L 389.348505 82.575195 
L 389.688099 82.575195 
L 389.914495 82.048379 
L 390.140891 82.048379 
L 390.367287 81.476256 
L 390.706881 81.476256 
L 390.933277 81.035269 
L 391.159673 81.035269 
L 391.386069 80.54877 
L 391.725663 80.54877 
L 391.952059 80.060219 
L 392.178455 80.060219 
L 392.404851 79.56958 
L 392.744445 79.56958 
L 392.970842 79.032131 
L 393.197238 79.032131 
L 393.423634 78.448261 
L 393.763228 78.448261 
L 393.989624 77.998769 
L 394.329218 77.998769 
L 394.555614 77.459648 
L 394.78201 77.459648 
L 395.008406 76.876455 
L 395.348 76.876455 
L 395.574396 76.428745 
L 395.91399 76.428745 
L 396.140386 75.937347 
L 396.366782 75.937347 
L 396.593178 75.44718 
L 396.819574 75.44718 
L 397.04597 74.9581 
L 397.385564 74.9581 
L 397.61196 74.425337 
L 397.951554 74.425337 
L 398.17795 73.848324 
L 398.404346 73.848324 
L 398.630742 73.403957 
L 398.970336 73.403957 
L 399.196732 72.869523 
L 399.536326 72.869523 
L 399.762722 72.288457 
L 399.989118 72.288457 
L 400.215514 71.839691 
L 400.555108 71.839691 
L 400.781504 71.344057 
L 401.0079 71.344057 
L 401.234296 70.846442 
L 401.57389 70.846442 
L 401.800286 70.347133 
L 402.026682 70.347133 
L 402.253079 69.800931 
L 402.592673 69.800931 
L 402.819069 69.208408 
L 403.158663 69.208408 
L 403.385059 68.752595 
L 403.611455 68.752595 
L 403.837851 68.251033 
L 404.064247 68.251033 
L 404.290643 67.749088 
L 404.630237 67.749088 
L 404.856633 67.2462 
L 405.083029 67.2462 
L 405.309425 66.742244 
L 405.649019 66.742244 
L 405.875415 66.190795 
L 406.101811 66.190795 
L 406.328207 65.591632 
L 406.667801 65.591632 
L 406.894197 65.129659 
L 407.233791 65.129659 
L 407.460187 64.620794 
L 407.686583 64.620794 
L 407.912979 64.112065 
L 408.139375 64.112065 
L 408.365771 63.604011 
L 408.705365 63.604011 
L 408.931761 63.096875 
L 409.158157 63.096875 
L 409.384553 62.590841 
L 409.724147 62.590841 
L 409.950543 62.085827 
L 410.176939 62.085827 
L 410.403335 61.581686 
L 410.742929 61.581686 
L 410.969325 61.032319 
L 411.195721 61.032319 
L 411.422117 60.436707 
L 411.761712 60.436707 
L 411.988108 59.977492 
L 412.214504 59.977492 
L 412.4409 59.516472 
L 412.780494 59.516472 
L 413.00689 58.960157 
L 413.233286 58.960157 
L 413.459682 58.352732 
L 413.799276 58.352732 
L 414.025672 57.834946 
L 414.365266 57.834946 
L 414.591662 57.314548 
L 414.931256 57.314548 
L 415.157652 56.746218 
L 415.384048 56.746218 
L 415.610444 56.179056 
L 415.950038 56.179056 
L 416.176434 55.566805 
L 416.516028 55.566805 
L 416.742424 55.097512 
L 416.96882 55.097512 
L 417.195216 54.535954 
L 417.53481 54.535954 
L 417.761206 53.975438 
L 418.1008 53.975438 
L 418.327196 53.41516 
L 418.553592 53.41516 
L 418.779988 52.807365 
L 419.119582 52.807365 
L 419.345978 52.338646 
L 419.685572 52.338646 
L 419.911968 51.821571 
L 420.138364 51.821571 
L 420.36476 51.255718 
L 420.704354 51.255718 
L 420.930751 50.64084 
L 421.270345 50.64084 
L 421.496741 50.166737 
L 421.723137 50.166737 
L 421.949533 49.596825 
L 422.289127 49.596825 
L 422.515523 48.97865 
L 422.855117 48.97865 
L 423.081513 48.502856 
L 423.307909 48.502856 
L 423.534305 47.979625 
L 423.760701 47.979625 
L 423.987097 47.456822 
L 424.326691 47.456822 
L 424.553087 46.934762 
L 424.779483 46.934762 
L 425.005879 46.413552 
L 425.345473 46.413552 
L 425.571869 45.893172 
L 425.798265 45.893172 
L 426.024661 45.373494 
L 426.251057 45.373494 
L 426.477453 44.854387 
L 426.817047 44.854387 
L 427.043443 44.288615 
L 427.383037 44.288615 
L 427.609433 43.723236 
L 427.835829 43.723236 
L 428.062225 43.111238 
L 428.401819 43.111238 
L 428.628215 42.640873 
L 428.967809 42.640873 
L 429.194205 42.077081 
L 429.420601 42.077081 
L 429.646997 41.467277 
L 429.986591 41.467277 
L 430.212987 40.99903 
L 430.552582 40.99903 
L 430.778978 40.484906 
L 431.005374 40.484906 
L 431.23177 39.9719 
L 431.458166 39.9719 
L 431.571364 39.46 
L 431.571364 39.46 
" clip-path="url(#pcadb19c544)" style="fill: none; stroke: #ff0000; stroke-width: 1.5; stroke-linecap: square"/>
   </g>
   <g id="line2d_30">
    <path d="M 62.998636 287.261396 
L 63.564626 287.190293 
L 63.791022 287.124755 
L 64.696607 287.059173 
L 65.036201 286.998258 
L 66.281379 286.897551 
L 66.734171 286.860367 
L 68.998131 286.769631 
L 69.337725 286.720074 
L 70.016913 286.657577 
L 70.243309 286.545603 
L 70.582903 286.545603 
L 70.809299 286.371773 
L 71.148893 286.371773 
L 71.375289 286.178439 
L 71.601685 286.178439 
L 71.828081 285.94264 
L 72.167675 285.94264 
L 72.394071 285.638351 
L 72.733665 285.638351 
L 72.960061 285.288705 
L 73.299655 285.288705 
L 73.526051 284.89857 
L 73.752448 284.89857 
L 73.978844 284.438283 
L 74.318438 284.438283 
L 74.544834 284.027151 
L 74.884428 284.027151 
L 75.110824 283.568011 
L 75.33722 283.568011 
L 75.563616 283.075578 
L 75.90321 283.075578 
L 76.129606 282.712802 
L 76.4692 282.712802 
L 76.695596 282.340739 
L 76.921992 282.340739 
L 77.148388 281.975965 
L 77.487982 281.975965 
L 77.714378 281.658496 
L 78.053972 281.658496 
L 78.280368 281.387991 
L 78.506764 281.387991 
L 78.73316 281.196106 
L 79.072754 281.196106 
L 79.29915 281.002352 
L 79.638744 281.002352 
L 79.86514 280.844778 
L 80.091536 280.844778 
L 80.317932 280.720159 
L 81.223516 280.61814 
L 81.56311 280.559134 
L 82.69509 280.466942 
L 83.034684 280.422047 
L 84.279863 280.316949 
L 84.506259 280.250665 
L 85.298645 280.157208 
L 85.525041 280.035524 
L 85.864635 280.035524 
L 86.091031 279.879031 
L 86.430625 279.879031 
L 86.657021 279.665043 
L 86.996615 279.665043 
L 87.223011 279.444602 
L 87.562605 279.444602 
L 87.789001 279.159359 
L 88.015397 279.159359 
L 88.241793 278.794653 
L 88.581387 278.794653 
L 88.807783 278.439142 
L 89.147377 278.439142 
L 89.373773 278.039481 
L 89.600169 278.039481 
L 89.826565 277.596008 
L 90.166159 277.596008 
L 90.392555 277.064056 
L 90.618951 277.064056 
L 90.845347 276.433166 
L 91.184941 276.433166 
L 91.411337 275.857418 
L 91.750931 275.857418 
L 91.864129 275.187209 
L 92.316921 275.187209 
L 92.430119 274.415629 
L 92.769714 274.415629 
L 92.882912 273.793984 
L 93.335704 273.793984 
L 93.448902 273.08661 
L 93.788496 273.08661 
L 93.901694 272.359409 
L 94.354486 272.359409 
L 94.467684 271.550274 
L 94.807278 271.550274 
L 95.033674 270.663576 
L 95.486466 270.663576 
L 95.599664 269.910955 
L 95.939258 269.910955 
L 96.052456 269.091825 
L 96.505248 269.091825 
L 96.731644 268.208578 
L 97.071238 268.208578 
L 97.184436 267.53155 
L 97.52403 267.53155 
L 97.637228 266.787413 
L 97.976822 266.787413 
L 98.09002 266.042424 
L 98.542812 266.042424 
L 98.65601 265.29559 
L 98.995604 265.29559 
L 99.108802 264.545479 
L 99.561594 264.545479 
L 99.674792 263.793047 
L 100.014386 263.793047 
L 100.127584 263.042225 
L 100.580376 263.042225 
L 100.693574 262.298611 
L 101.146366 262.298611 
L 101.259564 261.311848 
L 101.599158 261.311848 
L 101.712356 260.621072 
L 102.165149 260.621072 
L 102.278347 259.970557 
L 102.617941 259.970557 
L 102.844337 259.317314 
L 103.183931 259.317314 
L 103.410327 258.775622 
L 103.749921 258.775622 
L 103.976317 258.289913 
L 104.202713 258.289913 
L 104.429109 257.821572 
L 104.768703 257.821572 
L 104.995099 257.477738 
L 105.221495 257.477738 
L 105.447891 257.14669 
L 105.787485 257.14669 
L 106.013881 256.865407 
L 106.240277 256.865407 
L 106.466673 256.61812 
L 106.806267 256.61812 
L 107.032663 256.435779 
L 107.259059 256.435779 
L 107.485455 256.30649 
L 108.957029 256.205492 
L 109.636217 256.148222 
L 110.541801 256.096038 
L 110.881395 256.035261 
L 111.560584 255.943963 
L 111.78698 255.813286 
L 112.013376 255.813286 
L 112.239772 255.635902 
L 112.579366 255.635902 
L 112.805762 255.475883 
L 113.145356 255.475883 
L 113.371752 255.278491 
L 113.598148 255.278491 
L 113.824544 255.039911 
L 114.164138 255.039911 
L 114.390534 254.779485 
L 114.730128 254.779485 
L 114.956524 254.500943 
L 115.18292 254.500943 
L 115.409316 254.184973 
L 115.74891 254.184973 
L 115.975306 253.937386 
L 116.3149 253.937386 
L 116.541296 253.667212 
L 116.767692 253.667212 
L 116.994088 253.383713 
L 117.333682 253.383713 
L 117.560078 253.120127 
L 117.899672 253.120127 
L 118.126068 252.882367 
L 118.465662 252.882367 
L 118.692058 252.672329 
L 119.031652 252.672329 
L 119.258048 252.488915 
L 119.484444 252.488915 
L 119.71084 252.31759 
L 120.050434 252.31759 
L 120.27683 252.192188 
L 121.069217 252.082353 
L 121.295613 251.977008 
L 122.201197 251.875977 
L 122.427593 251.804532 
L 123.219979 251.721875 
L 123.446375 251.63842 
L 124.351959 251.550347 
L 124.578355 251.454426 
L 124.917949 251.34849 
L 125.823533 251.241622 
L 126.049929 251.136621 
L 126.389523 251.136621 
L 126.615919 251.001587 
L 126.842315 251.001587 
L 127.068711 250.846031 
L 127.408305 250.846031 
L 127.634701 250.708758 
L 127.974295 250.708758 
L 128.200691 250.55551 
L 128.427087 250.55551 
L 128.653483 250.426784 
L 128.993077 250.426784 
L 129.219473 250.285908 
L 129.445869 250.285908 
L 129.672265 250.135245 
L 130.351454 250.025599 
L 130.57785 249.896644 
L 130.917444 249.896644 
L 131.14384 249.763354 
L 131.483434 249.763354 
L 131.70983 249.628486 
L 132.502216 249.5318 
L 132.728612 249.423463 
L 133.634196 249.323087 
L 133.860592 249.229495 
L 134.652978 249.134074 
L 134.879374 249.063627 
L 135.784958 248.981123 
L 136.011354 248.899496 
L 136.80374 248.810243 
L 137.030136 248.732924 
L 137.93572 248.645922 
L 138.162116 248.555559 
L 138.954502 248.461231 
L 139.180898 248.354457 
L 139.973285 248.269443 
L 140.199681 248.173419 
L 140.992067 248.075411 
L 141.218463 247.966927 
L 142.124047 247.857805 
L 142.350443 247.7489 
L 143.142829 247.640968 
L 143.369225 247.525768 
L 144.274809 247.430208 
L 144.501205 247.336915 
L 145.293591 247.237786 
L 145.519987 247.141557 
L 146.425571 247.047994 
L 146.651967 246.949532 
L 147.444353 246.875183 
L 147.670749 246.794362 
L 148.463135 246.714186 
L 148.689531 246.627085 
L 149.595116 246.532672 
L 149.821512 246.452127 
L 150.613898 246.362961 
L 150.840294 246.264489 
L 151.63268 246.187092 
L 151.859076 246.100161 
L 152.651462 246.011238 
L 152.877858 245.92046 
L 153.670244 245.828001 
L 153.89664 245.734006 
L 154.689026 245.629936 
L 154.915422 245.515536 
L 155.707808 245.42661 
L 155.934204 245.327854 
L 156.839788 245.21911 
L 157.066184 245.109644 
L 157.405778 244.999564 
L 158.424561 244.889006 
L 158.650957 244.787256 
L 158.877353 244.787256 
L 159.103749 244.675623 
L 159.443343 244.675623 
L 159.669739 244.55357 
L 160.462125 244.458703 
L 160.688521 244.353336 
L 161.480907 244.246777 
L 161.707303 244.129106 
L 162.046897 244.129106 
L 162.273293 243.999765 
L 163.065679 243.88874 
L 163.292075 243.776282 
L 163.631669 243.776282 
L 163.858065 243.651582 
L 164.084461 243.651582 
L 164.310857 243.513735 
L 165.216441 243.405519 
L 165.442837 243.273005 
L 165.669233 243.273005 
L 165.895629 243.12599 
L 166.235223 243.12599 
L 166.461619 243.010302 
L 166.801213 243.010302 
L 167.027609 242.880446 
L 167.367203 242.784263 
L 167.706798 242.735631 
L 167.819996 242.735631 
L 168.046392 242.587728 
L 168.385986 242.587728 
L 168.612382 242.424217 
L 168.838778 242.424217 
L 169.065174 242.296095 
L 169.404768 242.296095 
L 169.631164 242.152654 
L 169.85756 242.152654 
L 170.083956 242.006771 
L 170.42355 242.006771 
L 170.649946 241.85857 
L 170.876342 241.85857 
L 171.102738 241.69446 
L 171.442332 241.69446 
L 171.668728 241.514068 
L 172.008322 241.514068 
L 172.234718 241.373383 
L 172.461114 241.373383 
L 172.68751 241.216661 
L 172.913906 241.216661 
L 173.140302 241.057827 
L 173.479896 241.057827 
L 173.706292 240.896815 
L 173.932688 240.896815 
L 174.159084 240.733485 
L 174.498678 240.733485 
L 174.725074 240.567654 
L 174.95147 240.567654 
L 175.177866 240.399327 
L 175.404262 240.399327 
L 175.630658 240.228463 
L 175.970252 240.228463 
L 176.196648 240.055149 
L 176.423044 240.055149 
L 176.64944 239.879382 
L 176.989035 239.879382 
L 177.215431 239.684791 
L 177.441827 239.684791 
L 177.668223 239.470372 
L 178.007817 239.470372 
L 178.234213 239.302911 
L 178.573807 239.302911 
L 178.800203 239.098886 
L 179.139797 239.098886 
L 179.366193 238.891397 
L 179.705787 238.891397 
L 179.932183 238.680615 
L 180.158579 238.680615 
L 180.384975 238.466516 
L 180.724569 238.466516 
L 180.950965 238.230929 
L 181.177361 238.230929 
L 181.403757 238.04717 
L 181.743351 238.04717 
L 181.969747 237.861156 
L 182.309341 237.861156 
L 182.535737 237.635009 
L 182.762133 237.635009 
L 182.988529 237.386374 
L 183.328123 237.386374 
L 183.554519 237.192533 
L 183.780915 237.192533 
L 184.007311 236.976589 
L 184.233707 236.976589 
L 184.460103 236.757905 
L 184.799697 236.757905 
L 185.026093 236.536402 
L 185.252489 236.536402 
L 185.478885 236.312132 
L 185.818479 236.312132 
L 186.044875 236.085043 
L 186.271271 236.085043 
L 186.497668 235.855166 
L 186.724064 235.855166 
L 186.95046 235.622426 
L 187.290054 235.622426 
L 187.51645 235.365393 
L 187.856044 235.365393 
L 188.08244 235.10497 
L 188.308836 235.10497 
L 188.535232 234.819193 
L 188.874826 234.819193 
L 189.101222 234.596761 
L 189.440816 234.596761 
L 189.667212 234.349509 
L 189.893608 234.349509 
L 190.120004 234.099651 
L 190.3464 234.099651 
L 190.572796 233.847416 
L 190.91239 233.847416 
L 191.138786 233.592916 
L 191.47838 233.592916 
L 191.704776 233.312525 
L 191.931172 233.312525 
L 192.157568 233.029165 
L 192.497162 233.029165 
L 192.723558 232.718784 
L 193.063152 232.718784 
L 193.289548 232.477601 
L 193.515944 232.477601 
L 193.74234 232.209754 
L 193.968736 232.209754 
L 194.195132 231.939254 
L 194.534726 231.939254 
L 194.761122 231.666033 
L 194.987518 231.666033 
L 195.213914 231.389992 
L 195.553508 231.389992 
L 195.779905 231.085742 
L 196.119499 231.085742 
L 196.345895 230.778185 
L 196.685489 230.778185 
L 196.911885 230.467123 
L 197.138281 230.467123 
L 197.364677 230.126402 
L 197.704271 230.126402 
L 197.930667 229.861778 
L 198.157063 229.861778 
L 198.383459 229.568027 
L 198.723053 229.568027 
L 198.949449 229.271431 
L 199.175845 229.271431 
L 199.402241 228.972045 
L 199.628637 228.972045 
L 199.855033 228.669808 
L 200.194627 228.669808 
L 200.421023 228.364818 
L 200.647419 228.364818 
L 200.873815 228.057093 
L 201.213409 228.057093 
L 201.439805 227.718399 
L 201.666201 227.718399 
L 201.892597 227.348325 
L 202.232191 227.348325 
L 202.458587 227.061433 
L 202.798181 227.061433 
L 203.024577 226.714668 
L 203.250973 226.714668 
L 203.477369 226.335964 
L 203.816963 226.335964 
L 204.043359 226.042574 
L 204.382953 226.042574 
L 204.609349 225.71772 
L 204.835745 225.71772 
L 205.062142 225.360928 
L 205.288538 225.360928 
L 205.514934 225.06168 
L 205.854528 225.06168 
L 206.080924 224.730619 
L 206.30732 224.730619 
L 206.533716 224.397493 
L 206.87331 224.397493 
L 207.099706 224.062251 
L 207.326102 224.062251 
L 207.552498 223.724852 
L 207.778894 223.724852 
L 208.00529 223.385369 
L 208.344884 223.385369 
L 208.57128 223.012538 
L 208.910874 223.012538 
L 209.13727 222.605965 
L 209.476864 222.605965 
L 209.70326 222.259828 
L 210.042854 222.259828 
L 210.26925 221.879997 
L 210.495646 221.879997 
L 210.722042 221.497781 
L 211.061636 221.497781 
L 211.288032 221.081176 
L 211.627626 221.081176 
L 211.854022 220.726588 
L 212.193616 220.726588 
L 212.420012 220.337428 
L 212.646408 220.337428 
L 212.872804 219.913145 
L 213.212398 219.913145 
L 213.438794 219.551941 
L 213.778388 219.551941 
L 214.004784 219.155644 
L 214.344378 219.155644 
L 214.570775 218.723943 
L 214.797171 218.723943 
L 215.023567 218.390238 
L 215.363161 218.390238 
L 215.589557 218.02142 
L 215.929151 218.02142 
L 216.155547 217.615253 
L 216.381943 217.615253 
L 216.608339 217.20465 
L 216.947933 217.20465 
L 217.174329 216.756508 
L 217.513923 216.756508 
L 217.740319 216.409868 
L 217.966715 216.409868 
L 218.193111 215.993549 
L 218.532705 215.993549 
L 218.759101 215.543798 
L 219.098695 215.543798 
L 219.325091 215.199968 
L 219.551487 215.199968 
L 219.777883 214.82516 
L 220.004279 214.82516 
L 220.230675 214.455432 
L 220.570269 214.455432 
L 220.796665 214.092119 
L 221.023061 214.092119 
L 221.249457 213.736781 
L 221.589051 213.736781 
L 221.815447 213.359742 
L 222.155041 213.359742 
L 222.381437 212.995134 
L 222.721031 212.995134 
L 222.947427 212.643893 
L 223.173823 212.643893 
L 223.400219 212.307059 
L 223.739813 212.307059 
L 223.96621 211.959295 
L 224.305804 211.959295 
L 224.5322 211.679871 
L 224.871794 211.679871 
L 225.09819 211.39129 
L 225.324586 211.39129 
L 225.550982 211.097962 
L 225.890576 211.097962 
L 226.116972 210.88619 
L 226.456566 210.88619 
L 226.682962 210.646963 
L 226.909358 210.646963 
L 227.135754 210.403151 
L 227.475348 210.403151 
L 227.701744 210.224051 
L 227.92814 210.224051 
L 228.154536 210.032876 
L 228.49413 210.032876 
L 228.720526 209.828821 
L 228.946922 209.828821 
L 229.173318 209.66046 
L 229.399714 209.66046 
L 229.62611 209.492318 
L 229.965704 209.492318 
L 230.1921 209.306823 
L 230.418496 209.306823 
L 230.644892 209.103162 
L 230.984486 209.103162 
L 231.210882 208.88062 
L 231.550476 208.88062 
L 231.776872 208.691067 
L 232.003268 208.691067 
L 232.229664 208.483749 
L 232.569258 208.483749 
L 232.795654 208.276688 
L 233.135248 208.276688 
L 233.361645 208.105346 
L 233.588041 208.105346 
L 233.814437 207.919329 
L 234.040833 207.919329 
L 234.267229 207.737209 
L 234.606823 207.737209 
L 234.833219 207.543926 
L 235.172813 207.543926 
L 235.399209 207.341814 
L 235.625605 207.341814 
L 235.852001 207.192194 
L 236.191595 207.192194 
L 236.417991 207.032819 
L 236.757585 207.032819 
L 236.983981 206.864043 
L 237.210377 206.864043 
L 237.436773 206.699601 
L 237.776367 206.699601 
L 238.002763 206.521941 
L 238.342357 206.521941 
L 238.568753 206.381708 
L 238.795149 206.381708 
L 239.021545 206.219408 
L 239.247941 206.219408 
L 239.474337 206.044418 
L 239.813931 206.044418 
L 240.040327 205.835621 
L 240.379921 205.835621 
L 240.606317 205.587072 
L 240.945911 205.587072 
L 241.172307 205.359655 
L 241.511901 205.359655 
L 241.738297 205.096446 
L 241.964693 205.096446 
L 242.191089 204.821123 
L 242.530683 204.821123 
L 242.75708 204.514045 
L 243.096674 204.514045 
L 243.32307 204.250368 
L 243.549466 204.250368 
L 243.775862 203.985466 
L 244.115456 203.985466 
L 244.341852 203.720023 
L 244.568248 203.720023 
L 244.794644 203.453154 
L 245.134238 203.453154 
L 245.360634 203.182438 
L 245.58703 203.182438 
L 245.813426 202.878153 
L 246.15302 202.878153 
L 246.379416 202.560211 
L 246.71901 202.560211 
L 246.945406 202.225938 
L 247.171802 202.225938 
L 247.398198 201.844093 
L 247.737792 201.844093 
L 247.964188 201.536484 
L 248.303782 201.536484 
L 248.530178 201.185363 
L 248.756574 201.185363 
L 248.98297 200.789926 
L 249.322564 200.789926 
L 249.54896 200.351576 
L 249.888554 200.351576 
L 250.11495 199.976514 
L 250.454544 199.976514 
L 250.68094 199.567014 
L 250.907336 199.567014 
L 251.133732 199.12726 
L 251.473326 199.12726 
L 251.699722 198.760565 
L 252.039317 198.760565 
L 252.265713 198.399777 
L 252.605307 198.399777 
L 252.831703 198.013323 
L 253.058099 198.013323 
L 253.284495 197.601774 
L 253.624089 197.601774 
L 253.850485 197.288166 
L 254.076881 197.288166 
L 254.303277 196.943231 
L 254.642871 196.943231 
L 254.869267 196.595136 
L 255.095663 196.595136 
L 255.322059 196.208571 
L 255.661653 196.208571 
L 255.888049 195.778767 
L 256.227643 195.778767 
L 256.454039 195.439793 
L 256.680435 195.439793 
L 256.906831 195.058564 
L 257.246425 195.058564 
L 257.472821 194.633644 
L 257.812415 194.633644 
L 258.038811 194.198789 
L 258.265207 194.198789 
L 258.491603 193.71472 
L 258.831197 193.71472 
L 259.057593 193.332345 
L 259.283989 193.332345 
L 259.510385 192.902379 
L 259.849979 192.902379 
L 260.076375 192.465387 
L 260.302771 192.465387 
L 260.529167 191.984804 
L 260.868761 191.984804 
L 261.095157 191.464508 
L 261.434752 191.464508 
L 261.661148 191.027684 
L 261.887544 191.027684 
L 262.11394 190.595622 
L 262.453534 190.595622 
L 262.67993 190.169526 
L 262.906326 190.169526 
L 263.132722 189.750396 
L 263.472316 189.750396 
L 263.698712 189.339436 
L 263.925108 189.339436 
L 264.151504 188.937458 
L 264.3779 188.937458 
L 264.604296 188.544509 
L 264.94389 188.544509 
L 265.170286 188.125858 
L 265.50988 188.125858 
L 265.736276 187.716502 
L 266.07587 187.716502 
L 266.189068 187.081327 
L 266.868256 187.048136 
L 267.094652 186.683436 
L 267.434246 186.683436 
L 267.660642 186.317406 
L 267.887038 186.317406 
L 268.113434 185.947931 
L 268.453028 185.947931 
L 268.679424 185.573767 
L 268.90582 185.573767 
L 269.132216 185.194263 
L 269.358612 185.194263 
L 269.585008 184.809253 
L 269.924602 184.809253 
L 270.150998 184.419095 
L 270.490592 184.419095 
L 270.716988 183.988411 
L 270.943385 183.988411 
L 271.169781 183.516647 
L 271.509375 183.516647 
L 271.735771 183.151133 
L 271.962167 183.151133 
L 272.188563 182.747194 
L 272.528157 182.747194 
L 272.754553 182.304764 
L 272.980949 182.304764 
L 273.207345 181.824835 
L 273.546939 181.824835 
L 273.773335 181.455554 
L 274.112929 181.455554 
L 274.339325 181.049914 
L 274.565721 181.049914 
L 274.792117 180.644903 
L 275.018513 180.644903 
L 275.244909 180.241495 
L 275.584503 180.241495 
L 275.810899 179.803506 
L 276.150493 179.803506 
L 276.376889 179.368156 
L 276.603285 179.368156 
L 276.829681 178.89951 
L 277.169275 178.89951 
L 277.395671 178.541075 
L 277.735265 178.541075 
L 277.961661 178.112758 
L 278.301255 178.112758 
L 278.527651 177.686063 
L 278.754047 177.686063 
L 278.980443 177.224906 
L 279.320037 177.224906 
L 279.546433 176.870464 
L 279.772829 176.870464 
L 279.999225 176.480823 
L 280.33882 176.480823 
L 280.565216 176.090725 
L 280.791612 176.090725 
L 281.018008 175.6999 
L 281.357602 175.6999 
L 281.583998 175.30801 
L 281.810394 175.30801 
L 282.03679 174.914541 
L 282.263186 174.914541 
L 282.489582 174.519201 
L 282.829176 174.519201 
L 283.055572 174.121216 
L 283.281968 174.121216 
L 283.508364 173.720877 
L 283.73476 173.720877 
L 283.961156 173.317772 
L 284.30075 173.317772 
L 284.527146 172.875477 
L 284.86674 172.875477 
L 285.093136 172.394319 
L 285.319532 172.394319 
L 285.545928 172.060763 
L 285.885522 172.060763 
L 286.111918 171.616448 
L 286.338314 171.616448 
L 286.56471 171.137339 
L 286.904304 171.137339 
L 287.1307 170.771107 
L 287.470294 170.771107 
L 287.69669 170.371611 
L 287.923086 170.371611 
L 288.149482 169.940033 
L 288.489076 169.940033 
L 288.715472 169.476708 
L 289.055066 169.476708 
L 289.281462 169.087694 
L 289.507858 169.087694 
L 289.734255 168.702762 
L 290.073849 168.702762 
L 290.300245 168.323137 
L 290.526641 168.323137 
L 290.753037 167.949804 
L 291.092631 167.949804 
L 291.319027 167.549779 
L 291.545423 167.549779 
L 291.771819 167.123782 
L 292.111413 167.123782 
L 292.337809 166.799958 
L 292.677403 166.799958 
L 292.903799 166.413996 
L 293.130195 166.413996 
L 293.356591 165.994636 
L 293.696185 165.994636 
L 293.922581 165.66738 
L 294.262175 165.66738 
L 294.488571 165.299028 
L 294.714967 165.299028 
L 294.941363 164.920352 
L 295.167759 164.920352 
L 295.394155 164.531092 
L 295.733749 164.531092 
L 295.960145 164.096887 
L 296.186541 164.096887 
L 296.412937 163.655207 
L 296.752531 163.655207 
L 296.978927 163.283603 
L 297.205323 163.283603 
L 297.431719 162.871424 
L 297.771313 162.871424 
L 297.997709 162.455365 
L 298.337303 162.455365 
L 298.563699 161.996833 
L 298.790095 161.996833 
L 299.016492 161.494585 
L 299.356086 161.494585 
L 299.582482 161.066526 
L 299.922076 161.066526 
L 300.148472 160.598541 
L 300.374868 160.598541 
L 300.601264 160.092965 
L 300.940858 160.092965 
L 301.167254 159.706335 
L 301.506848 159.706335 
L 301.733244 159.283249 
L 301.95964 159.283249 
L 302.186036 158.824687 
L 302.52563 158.824687 
L 302.752026 158.332208 
L 303.09162 158.332208 
L 303.318016 157.920254 
L 303.65761 157.920254 
L 303.884006 157.477574 
L 304.2236 157.477574 
L 304.449996 157.042483 
L 304.676392 157.042483 
L 304.902788 156.614436 
L 305.242382 156.614436 
L 305.468778 156.191862 
L 305.808372 156.191862 
L 306.034768 155.738427 
L 306.261164 155.738427 
L 306.48756 155.391283 
L 306.827154 155.391283 
L 307.05355 155.009043 
L 307.393144 155.009043 
L 307.61954 154.588829 
L 307.845936 154.588829 
L 308.072332 154.126647 
L 308.411927 154.126647 
L 308.638323 153.76546 
L 308.864719 153.76546 
L 309.091115 153.362954 
L 309.430709 153.362954 
L 309.657105 152.956352 
L 309.883501 152.956352 
L 310.109897 152.547388 
L 310.336293 152.547388 
L 310.562689 152.137393 
L 310.902283 152.137393 
L 311.128679 151.727204 
L 311.355075 151.727204 
L 311.581471 151.317191 
L 311.921065 151.317191 
L 312.147461 150.907982 
L 312.373857 150.907982 
L 312.600253 150.501196 
L 312.939847 150.501196 
L 313.166243 150.058153 
L 313.392639 150.058153 
L 313.619035 149.576587 
L 313.958629 149.576587 
L 314.185025 149.1663 
L 314.524619 149.1663 
L 314.751015 148.752654 
L 314.977411 148.752654 
L 315.203807 148.336166 
L 315.543401 148.336166 
L 315.769797 147.917145 
L 315.996193 147.917145 
L 316.222589 147.496676 
L 316.562183 147.496676 
L 316.788579 147.037195 
L 317.128173 147.037195 
L 317.354569 146.577788 
L 317.580965 146.577788 
L 317.807362 146.080623 
L 318.146956 146.080623 
L 318.373352 145.660825 
L 318.712946 145.660825 
L 318.939342 145.242036 
L 319.165738 145.242036 
L 319.392134 144.786632 
L 319.731728 144.786632 
L 319.958124 144.332581 
L 320.297718 144.332581 
L 320.524114 143.842164 
L 320.863708 143.842164 
L 321.090104 143.465928 
L 321.3165 143.465928 
L 321.542896 143.052778 
L 321.769292 143.052778 
L 321.995688 142.640576 
L 322.335282 142.640576 
L 322.561678 142.191651 
L 322.788074 142.191651 
L 323.01447 141.706134 
L 323.354064 141.706134 
L 323.58046 141.332602 
L 323.920054 141.332602 
L 324.14645 140.921183 
L 324.372846 140.921183 
L 324.599242 140.508357 
L 324.825638 140.508357 
L 325.052034 140.093046 
L 325.391628 140.093046 
L 325.618024 139.673601 
L 325.957618 139.673601 
L 326.184014 139.209044 
L 326.41041 139.209044 
L 326.636806 138.695785 
L 326.9764 138.695785 
L 327.202797 138.292948 
L 327.542391 138.292948 
L 327.768787 137.800398 
L 327.995183 137.800398 
L 328.221579 137.25632 
L 328.561173 137.25632 
L 328.787569 136.83157 
L 329.127163 136.83157 
L 329.353559 136.315527 
L 329.579955 136.315527 
L 329.806351 135.752375 
L 330.145945 135.752375 
L 330.372341 135.274689 
L 330.711935 135.274689 
L 330.938331 134.798349 
L 331.164727 134.798349 
L 331.391123 134.325177 
L 331.617519 134.325177 
L 331.843915 133.814648 
L 332.183509 133.814648 
L 332.409905 133.395217 
L 332.636301 133.395217 
L 332.862697 132.941276 
L 333.202291 132.941276 
L 333.428687 132.455699 
L 333.655083 132.455699 
L 333.881479 131.941857 
L 334.221073 131.941857 
L 334.447469 131.555777 
L 334.787063 131.555777 
L 335.013459 131.140193 
L 335.239855 131.140193 
L 335.466251 130.73358 
L 335.805845 130.73358 
L 336.032241 130.297893 
L 336.258637 130.297893 
L 336.485034 129.831117 
L 336.824628 129.831117 
L 337.051024 129.472318 
L 337.27742 129.472318 
L 337.503816 129.074573 
L 337.84341 129.074573 
L 338.069806 128.670773 
L 338.296202 128.670773 
L 338.522598 128.258539 
L 338.862192 128.258539 
L 339.088588 127.798252 
L 339.428182 127.798252 
L 339.654578 127.32725 
L 339.994172 127.32725 
L 340.220568 126.847682 
L 340.446964 126.847682 
L 340.67336 126.321438 
L 341.012954 126.321438 
L 341.23935 125.914051 
L 341.465746 125.914051 
L 341.692142 125.464979 
L 342.031736 125.464979 
L 342.258132 124.975151 
L 342.597726 124.975151 
L 342.824122 124.485874 
L 343.163716 124.485874 
L 343.390112 123.99728 
L 343.616508 123.99728 
L 343.842904 123.469047 
L 344.182498 123.469047 
L 344.408894 123.022884 
L 344.748488 123.022884 
L 344.974884 122.536567 
L 345.20128 122.536567 
L 345.427676 122.01009 
L 345.76727 122.01009 
L 345.993667 121.60499 
L 346.333261 121.60499 
L 346.559657 121.159221 
L 346.786053 121.159221 
L 347.012449 120.71321 
L 347.238845 120.71321 
L 347.465241 120.26688 
L 347.804835 120.26688 
L 348.031231 119.820363 
L 348.370825 119.820363 
L 348.597221 119.33309 
L 348.823617 119.33309 
L 349.050013 118.845916 
L 349.389607 118.845916 
L 349.616003 118.358878 
L 349.955597 118.358878 
L 350.181993 117.831921 
L 350.521587 117.831921 
L 350.747983 117.386642 
L 350.974379 117.386642 
L 351.200775 116.941969 
L 351.540369 116.941969 
L 351.766765 116.497937 
L 351.993161 116.497937 
L 352.219557 116.054512 
L 352.445953 116.054512 
L 352.672349 115.611363 
L 353.011943 115.611363 
L 353.238339 115.128192 
L 353.577933 115.128192 
L 353.804329 114.604755 
L 354.030725 114.604755 
L 354.257121 114.201934 
L 354.596715 114.201934 
L 354.823111 113.717684 
L 355.162705 113.717684 
L 355.389102 113.231338 
L 355.728696 113.231338 
L 355.955092 112.743553 
L 356.181488 112.743553 
L 356.407884 112.212704 
L 356.747478 112.212704 
L 356.973874 111.76251 
L 357.313468 111.76251 
L 357.539864 111.311151 
L 357.76626 111.311151 
L 357.992656 110.858957 
L 358.33225 110.858957 
L 358.558646 110.365223 
L 358.89824 110.365223 
L 359.124636 109.871449 
L 359.351032 109.871449 
L 359.577428 109.336843 
L 359.917022 109.336843 
L 360.143418 108.926406 
L 360.369814 108.926406 
L 360.59621 108.476164 
L 360.935804 108.476164 
L 361.1622 108.028255 
L 361.388596 108.028255 
L 361.614992 107.58322 
L 361.954586 107.58322 
L 362.180982 107.141893 
L 362.407378 107.141893 
L 362.633774 106.704983 
L 362.86017 106.704983 
L 363.086566 106.273358 
L 363.42616 106.273358 
L 363.652556 105.809293 
L 363.99215 105.809293 
L 364.218546 105.353008 
L 364.444942 105.353008 
L 364.671339 104.941907 
L 365.010933 104.941907 
L 365.237329 104.500841 
L 365.576923 104.500841 
L 365.803319 104.030665 
L 366.029715 104.030665 
L 366.256111 103.67329 
L 366.595705 103.67329 
L 366.822101 103.283754 
L 367.048497 103.283754 
L 367.274893 102.896027 
L 367.614487 102.896027 
L 367.840883 102.509695 
L 368.067279 102.509695 
L 368.293675 102.12281 
L 368.633269 102.12281 
L 368.859665 101.698948 
L 369.086061 101.698948 
L 369.312457 101.234507 
L 369.652051 101.234507 
L 369.878447 100.835948 
L 370.218041 100.835948 
L 370.444437 100.39366 
L 370.784031 100.39366 
L 371.010427 99.904835 
L 371.236823 99.904835 
L 371.463219 99.522228 
L 371.802813 99.522228 
L 372.029209 99.095372 
L 372.255605 99.095372 
L 372.482001 98.663593 
L 372.821595 98.663593 
L 373.047991 98.229254 
L 373.274387 98.229254 
L 373.500783 97.793972 
L 373.727179 97.793972 
L 373.953575 97.359207 
L 374.29317 97.359207 
L 374.519566 96.9254 
L 374.745962 96.9254 
L 374.972358 96.492184 
L 375.311952 96.492184 
L 375.538348 96.057789 
L 375.764744 96.057789 
L 375.99114 95.620657 
L 376.330734 95.620657 
L 376.55713 95.178762 
L 376.783526 95.178762 
L 377.009922 94.730662 
L 377.236318 94.730662 
L 377.462714 94.275326 
L 377.802308 94.275326 
L 378.028704 93.811986 
L 378.2551 93.811986 
L 378.481496 93.340633 
L 378.82109 93.340633 
L 379.047486 92.817902 
L 379.38708 92.817902 
L 379.613476 92.287723 
L 379.839872 92.287723 
L 380.066268 91.752497 
L 380.405862 91.752497 
L 380.632258 91.214167 
L 380.971852 91.214167 
L 381.08505 90.630392 
L 381.424644 90.630392 
L 381.65104 90.181819 
L 381.990634 90.181819 
L 382.21703 89.689764 
L 382.443426 89.689764 
L 382.669822 89.199745 
L 383.009416 89.199745 
L 383.235812 88.712417 
L 383.462209 88.712417 
L 383.688605 88.22754 
L 383.915001 88.22754 
L 384.141397 87.745046 
L 384.480991 87.745046 
L 384.707387 87.221354 
L 385.046981 87.221354 
L 385.273377 86.700512 
L 385.499773 86.700512 
L 385.726169 86.138934 
L 386.065763 86.138934 
L 386.292159 85.70844 
L 386.631753 85.70844 
L 386.858149 85.193118 
L 387.084545 85.193118 
L 387.310941 84.678415 
L 387.650535 84.678415 
L 387.876931 84.249423 
L 388.103327 84.249423 
L 388.329723 83.776479 
L 388.669317 83.776479 
L 388.895713 83.301714 
L 389.122109 83.301714 
L 389.348505 82.824484 
L 389.688099 82.824484 
L 389.914495 82.299697 
L 390.140891 82.299697 
L 390.367287 81.725637 
L 390.706881 81.725637 
L 390.933277 81.280055 
L 391.159673 81.280055 
L 391.386069 80.786317 
L 391.725663 80.786317 
L 391.952059 80.289843 
L 392.178455 80.289843 
L 392.404851 79.791101 
L 392.744445 79.791101 
L 392.970842 79.245451 
L 393.197238 79.245451 
L 393.423634 78.653067 
L 393.763228 78.653067 
L 393.989624 78.196777 
L 394.329218 78.196777 
L 394.555614 77.649051 
L 394.78201 77.649051 
L 395.008406 77.056322 
L 395.348 77.056322 
L 395.574396 76.601163 
L 395.91399 76.601163 
L 396.140386 76.101496 
L 396.366782 76.101496 
L 396.593178 75.602965 
L 396.819574 75.602965 
L 397.04597 75.105899 
L 397.385564 75.105899 
L 397.61196 74.565715 
L 397.951554 74.565715 
L 398.064752 73.983289 
L 398.404346 73.983289 
L 398.630742 73.537453 
L 398.970336 73.537453 
L 399.196732 73.005212 
L 399.536326 73.005212 
L 399.762722 72.432054 
L 399.989118 72.432054 
L 400.215514 71.993399 
L 400.555108 71.993399 
L 400.781504 71.512506 
L 401.0079 71.512506 
L 401.234296 71.032271 
L 401.57389 71.032271 
L 401.800286 70.55131 
L 402.026682 70.55131 
L 402.253079 70.024018 
L 402.592673 70.024018 
L 402.819069 69.447325 
L 403.158663 69.447325 
L 403.385059 68.998505 
L 403.611455 68.998505 
L 403.837851 68.498922 
L 404.064247 68.498922 
L 404.290643 67.992824 
L 404.630237 67.992824 
L 404.856633 67.481887 
L 405.083029 67.481887 
L 405.309425 66.966795 
L 405.649019 66.966795 
L 405.875415 66.402539 
L 406.101811 66.402539 
L 406.328207 65.790496 
L 406.667801 65.790496 
L 406.894197 65.32043 
L 407.233791 65.32043 
L 407.460187 64.80517 
L 407.686583 64.80517 
L 407.912979 64.291705 
L 408.139375 64.291705 
L 408.365771 63.780396 
L 408.705365 63.780396 
L 408.931761 63.271239 
L 409.158157 63.271239 
L 409.384553 62.763855 
L 409.724147 62.763855 
L 409.950543 62.25809 
L 410.176939 62.25809 
L 410.403335 61.753583 
L 410.742929 61.753583 
L 410.969325 61.204322 
L 411.195721 61.204322 
L 411.422117 60.610661 
L 411.761712 60.610661 
L 411.988108 60.154334 
L 412.214504 60.154334 
L 412.4409 59.698122 
L 412.780494 59.698122 
L 413.00689 59.149818 
L 413.233286 59.149818 
L 413.459682 58.553927 
L 413.799276 58.553927 
L 414.025672 58.047027 
L 414.365266 58.047027 
L 414.591662 57.536811 
L 414.931256 57.536811 
L 415.157652 56.976488 
L 415.384048 56.976488 
L 415.610444 56.413176 
L 415.950038 56.413176 
L 416.176434 55.800139 
L 416.516028 55.800139 
L 416.742424 55.326694 
L 416.96882 55.326694 
L 417.195216 54.756007 
L 417.53481 54.756007 
L 417.761206 54.182659 
L 418.1008 54.182659 
L 418.327196 53.607141 
L 418.553592 53.607141 
L 418.779988 52.982393 
L 419.119582 52.982393 
L 419.345978 52.502107 
L 419.685572 52.502107 
L 419.911968 51.975216 
L 420.138364 51.975216 
L 420.36476 51.402928 
L 420.704354 51.402928 
L 420.930751 50.786748 
L 421.270345 50.786748 
L 421.496741 50.315815 
L 421.723137 50.315815 
L 421.949533 49.754112 
L 422.289127 49.754112 
L 422.515523 49.149067 
L 422.855117 49.149067 
L 423.081513 48.685501 
L 423.307909 48.685501 
L 423.534305 48.17622 
L 423.760701 48.17622 
L 423.987097 47.666555 
L 424.326691 47.666555 
L 424.553087 47.155135 
L 424.779483 47.155135 
L 425.005879 46.64109 
L 425.345473 46.64109 
L 425.571869 46.123896 
L 425.798265 46.123896 
L 426.024661 45.603525 
L 426.251057 45.603525 
L 426.477453 45.080321 
L 426.817047 45.080321 
L 427.043443 44.507004 
L 427.383037 44.507004 
L 427.609433 43.932282 
L 427.835829 43.932282 
L 428.062225 43.309239 
L 428.401819 43.309239 
L 428.628215 42.830519 
L 428.967809 42.830519 
L 429.194205 42.257481 
L 429.420601 42.257481 
L 429.646997 41.639587 
L 429.986591 41.639587 
L 430.212987 41.166918 
L 430.552582 41.166918 
L 430.778978 40.650017 
L 431.005374 40.650017 
L 431.23177 40.136263 
L 431.458166 40.136263 
L 431.571364 39.625658 
L 431.571364 39.625658 
" clip-path="url(#pcadb19c544)" style="fill: none; stroke-dasharray: 5.55,2.4; stroke-dashoffset: 0; stroke: #0000ff; stroke-width: 1.5"/>
   </g>
   <g id="line2d_31">
    <path d="M 62.998636 291.06 
L 311.468273 291.06 
L 311.581471 194.74771 
L 353.691131 194.74771 
L 353.804329 291.06 
L 431.571364 291.06 
L 431.571364 291.06 
" clip-path="url(#pcadb19c544)" style="fill: none; stroke-dasharray: 1.5,2.475; stroke-dashoffset: 0; stroke: #000000; stroke-width: 1.5"/>
   </g>
   <g id="patch_3">
    <path d="M 44.57 303.64 
L 44.57 26.88 
" style="fill: none; stroke: #000000; stroke-width: 0.8; stroke-linejoin: miter; stroke-linecap: square"/>
   </g>
   <g id="patch_4">
    <path d="M 450 303.64 
L 450 26.88 
" style="fill: none; stroke: #000000; stroke-width: 0.8; stroke-linejoin: miter; stroke-linecap: square"/>
   </g>
   <g id="patch_5">
    <path d="M 44.57 303.64 
L 450 303.64 
" style="fill: none; stroke: #000000; stroke-width: 0.8; stroke-linejoin: miter; stroke-linecap: square"/>
   </g>
   <g id="patch_6">
    <path d="M 44.57 26.88 
L 450 26.88 
" style="fill: none; stroke: #000000; stroke-width: 0.8; stroke-linejoin: miter; stroke-linecap: square"/>
   </g>
   <g id="text_17">
    <!-- Slung payload y-movement vs time -->
    <g transform="translate(140.613438 20.88)scale(0.12 -0.12)">
     <defs>
      <path id="DejaVuSans-53" d="M 3425 4513 
L 3425 3897 
Q 3066 4069 2747 4153 
Q 2428 4238 2131 4238 
Q 1616 4238 1336 4038 
Q 1056 3838 1056 3469 
Q 1056 3159 1242 3001 
Q 1428 2844 1947 2747 
L 2328 2669 
Q 3034 2534 3370 2195 
Q 3706 1856 3706 1288 
Q 3706 609 3251 259 
Q 2797 -91 1919 -91 
Q 1588 -91 1214 -16 
Q 841 59 441 206 
L 441 856 
Q 825 641 1194 531 
Q 1563 422 1919 422 
Q 2459 422 2753 634 
Q 3047 847 3047 1241 
Q 3047 1584 2836 1778 
Q 2625 1972 2144 2069 
L 1759 2144 
Q 1053 2284 737 2584 
Q 422 2884 422 3419 
Q 422 4038 858 4394 
Q 1294 4750 2059 4750 
Q 2388 4750 2728 4690 
Q 3069 4631 3425 4513 
z
" transform="scale(0.015625)"/>
      <path id="DejaVuSans-6c" d="M 603 4863 
L 1178 4863 
L 1178 0 
L 603 0 
L 603 4863 
z
" transform="scale(0.015625)"/>
      <path id="DejaVuSans-75" d="M 544 1381 
L 544 3500 
L 1119 3500 
L 1119 1403 
Q 1119 906 1312 657 
Q 1506 409 1894 409 
Q 2359 409 2629 706 
Q 2900 1003 2900 1516 
L 2900 3500 
L 3475 3500 
L 3475 0 
L 2900 0 
L 2900 538 
Q 2691 219 2414 64 
Q 2138 -91 1772 -91 
Q 1169 -91 856 284 
Q 544 659 544 1381 
z
M 1991 3584 
L 1991 3584 
z
" transform="scale(0.015625)"/>
      <path id="DejaVuSans-6e" d="M 3513 2113 
L 3513 0 
L 2938 0 
L 2938 2094 
Q 2938 2591 2744 2837 
Q 2550 3084 2163 3084 
Q 1697 3084 1428 2787 
Q 1159 2491 1159 1978 
L 1159 0 
L 581 0 
L 581 3500 
L 1159 3500 
L 1159 2956 
Q 1366 3272 1645 3428 
Q 1925 3584 2291 3584 
Q 2894 3584 3203 3211 
Q 3513 2838 3513 2113 
z
" transform="scale(0.015625)"/>
      <path id="DejaVuSans-67" d="M 2906 1791 
Q 2906 2416 2648 2759 
Q 2391 3103 1925 3103 
Q 1463 3103 1205 2759 
Q 947 2416 947 1791 
Q 947 1169 1205 825 
Q 1463 481 1925 481 
Q 2391 481 2648 825 
Q 2906 1169 2906 1791 
z
M 3481 434 
Q 3481 -459 3084 -895 
Q 2688 -1331 1869 -1331 
Q 1566 -1331 1297 -1286 
Q 1028 -1241 775 -1147 
L 775 -588 
Q 1028 -725 1275 -790 
Q 1522 -856 1778 -856 
Q 2344 -856 2625 -561 
Q 2906 -266 2906 331 
L 2906 616 
Q 2728 306 2450 153 
Q 2172 0 1784 0 
Q 1141 0 747 490 
Q 353 981 353 1791 
Q 353 2603 747 3093 
Q 1141 3584 1784 3584 
Q 2172 3584 2450 3431 
Q 2728 3278 2906 2969 
L 2906 3500 
L 3481 3500 
L 3481 434 
z
" transform="scale(0.015625)"/>
      <path id="DejaVuSans-70" d="M 1159 525 
L 1159 -1331 
L 581 -1331 
L 581 3500 
L 1159 3500 
L 1159 2969 
Q 1341 3281 1617 3432 
Q 1894 3584 2278 3584 
Q 2916 3584 3314 3078 
Q 3713 2572 3713 1747 
Q 3713 922 3314 415 
Q 2916 -91 2278 -91 
Q 1894 -91 1617 61 
Q 1341 213 1159 525 
z
M 3116 1747 
Q 3116 2381 2855 2742 
Q 2594 3103 2138 3103 
Q 1681 3103 1420 2742 
Q 1159 2381 1159 1747 
Q 1159 1113 1420 752 
Q 1681 391 2138 391 
Q 2594 391 2855 752 
Q 3116 1113 3116 1747 
z
" transform="scale(0.015625)"/>
      <path id="DejaVuSans-61" d="M 2194 1759 
Q 1497 1759 1228 1600 
Q 959 1441 959 1056 
Q 959 750 1161 570 
Q 1363 391 1709 391 
Q 2188 391 2477 730 
Q 2766 1069 2766 1631 
L 2766 1759 
L 2194 1759 
z
M 3341 1997 
L 3341 0 
L 2766 0 
L 2766 531 
Q 2569 213 2275 61 
Q 1981 -91 1556 -91 
Q 1019 -91 701 211 
Q 384 513 384 1019 
Q 384 1609 779 1909 
Q 1175 2209 1959 2209 
L 2766 2209 
L 2766 2266 
Q 2766 2663 2505 2880 
Q 2244 3097 1772 3097 
Q 1472 3097 1187 3025 
Q 903 2953 641 2809 
L 641 3341 
Q 956 3463 1253 3523 
Q 1550 3584 1831 3584 
Q 2591 3584 2966 3190 
Q 3341 2797 3341 1997 
z
" transform="scale(0.015625)"/>
      <path id="DejaVuSans-6f" d="M 1959 3097 
Q 1497 3097 1228 2736 
Q 959 2375 959 1747 
Q 959 1119 1226 758 
Q 1494 397 1959 397 
Q 2419 397 2687 759 
Q 2956 1122 2956 1747 
Q 2956 2369 2687 2733 
Q 2419 3097 1959 3097 
z
M 1959 3584 
Q 2709 3584 3137 3096 
Q 3566 2609 3566 1747 
Q 3566 888 3137 398 
Q 2709 -91 1959 -91 
Q 1206 -91 779 398 
Q 353 888 353 1747 
Q 353 2609 779 3096 
Q 1206 3584 1959 3584 
z
" transform="scale(0.015625)"/>
      <path id="DejaVuSans-64" d="M 2906 2969 
L 2906 4863 
L 3481 4863 
L 3481 0 
L 2906 0 
L 2906 525 
Q 2725 213 2448 61 
Q 2172 -91 1784 -91 
Q 1150 -91 751 415 
Q 353 922 353 1747 
Q 353 2572 751 3078 
Q 1150 3584 1784 3584 
Q 2172 3584 2448 3432 
Q 2725 3281 2906 2969 
z
M 947 1747 
Q 947 1113 1208 752 
Q 1469 391 1925 391 
Q 2381 391 2643 752 
Q 2906 1113 2906 1747 
Q 2906 2381 2643 2742 
Q 2381 3103 1925 3103 
Q 1469 3103 1208 2742 
Q 947 2381 947 1747 
z
" transform="scale(0.015625)"/>
      <path id="DejaVuSans-2d" d="M 313 2009 
L 1997 2009 
L 1997 1497 
L 313 1497 
L 313 2009 
z
" transform="scale(0.015625)"/>
      <path id="DejaVuSans-76" d="M 191 3500 
L 800 3500 
L 1894 563 
L 2988 3500 
L 3597 3500 
L 2284 0 
L 1503 0 
L 191 3500 
z
" transform="scale(0.015625)"/>
      <path id="DejaVuSans-65" d="M 3597 1894 
L 3597 1613 
L 953 1613 
Q 991 1019 1311 708 
Q 1631 397 2203 397 
Q 2534 397 2845 478 
Q 3156 559 3463 722 
L 3463 178 
Q 3153 47 2828 -22 
Q 2503 -91 2169 -91 
Q 1331 -91 842 396 
Q 353 884 353 1716 
Q 353 2575 817 3079 
Q 1281 3584 2069 3584 
Q 2775 3584 3186 3129 
Q 3597 2675 3597 1894 
z
M 3022 2063 
Q 3016 2534 2758 2815 
Q 2500 3097 2075 3097 
Q 1594 3097 1305 2825 
Q 1016 2553 972 2059 
L 3022 2063 
z
" transform="scale(0.015625)"/>
      <path id="DejaVuSans-69" d="M 603 3500 
L 1178 3500 
L 1178 0 
L 603 0 
L 603 3500 
z
M 603 4863 
L 1178 4863 
L 1178 4134 
L 603 4134 
L 603 4863 
z
" transform="scale(0.015625)"/>
     </defs>
     <use xlink:href="#DejaVuSans-53"/>
     <use xlink:href="#DejaVuSans-6c" x="63.476562"/>
     <use xlink:href="#DejaVuSans-75" x="91.259766"/>
     <use xlink:href="#DejaVuSans-6e" x="154.638672"/>
     <use xlink:href="#DejaVuSans-67" x="218.017578"/>
     <use xlink:href="#DejaVuSans-20" x="281.494141"/>
     <use xlink:href="#DejaVuSans-70" x="313.28125"/>
     <use xlink:href="#DejaVuSans-61" x="376.757812"/>
     <use xlink:href="#DejaVuSans-79" x="438.037109"/>
     <use xlink:href="#DejaVuSans-6c" x="497.216797"/>
     <use xlink:href="#DejaVuSans-6f" x="525"/>
     <use xlink:href="#DejaVuSans-61" x="586.181641"/>
     <use xlink:href="#DejaVuSans-64" x="647.460938"/>
     <use xlink:href="#DejaVuSans-20" x="710.9375"/>
     <use xlink:href="#DejaVuSans-79" x="742.724609"/>
     <use xlink:href="#DejaVuSans-2d" x="800.154297"/>
     <use xlink:href="#DejaVuSans-6d" x="836.238281"/>
     <use xlink:href="#DejaVuSans-6f" x="933.650391"/>
     <use xlink:href="#DejaVuSans-76" x="994.832031"/>
     <use xlink:href="#DejaVuSans-65" x="1054.011719"/>
     <use xlink:href="#DejaVuSans-6d" x="1115.535156"/>
     <use xlink:href="#DejaVuSans-65" x="1212.947266"/>
     <use xlink:href="#DejaVuSans-6e" x="1274.470703"/>
     <use xlink:href="#DejaVuSans-74" x="1337.849609"/>
     <use xlink:href="#DejaVuSans-20" x="1377.058594"/>
     <use xlink:href="#DejaVuSans-76" x="1408.845703"/>
     <use xlink:href="#DejaVuSans-73" x="1468.025391"/>
     <use xlink:href="#DejaVuSans-20" x="1520.125"/>
     <use xlink:href="#DejaVuSans-74" x="1551.912109"/>
     <use xlink:href="#DejaVuSans-69" x="1591.121094"/>
     <use xlink:href="#DejaVuSans-6d" x="1618.904297"/>
     <use xlink:href="#DejaVuSans-65" x="1716.316406"/>
    </g>
   </g>
   <g id="legend_1">
    <g id="patch_7">
     <path d="M 51.57 78.914375 
L 188.927813 78.914375 
Q 190.927813 78.914375 190.927813 76.914375 
L 190.927813 33.88 
Q 190.927813 31.88 188.927813 31.88 
L 51.57 31.88 
Q 49.57 31.88 49.57 33.88 
L 49.57 76.914375 
Q 49.57 78.914375 51.57 78.914375 
z
" style="fill: #ffffff; opacity: 0.8; stroke: #cccccc; stroke-linejoin: miter"/>
    </g>
    <g id="line2d_32">
     <path d="M 53.57 39.978437 
L 63.57 39.978437 
L 73.57 39.978437 
" style="fill: none; stroke: #ff0000; stroke-width: 1.5; stroke-linecap: square"/>
    </g>
    <g id="text_18">
     <!-- Drone y movement -->
     <g transform="translate(81.57 43.478437)scale(0.1 -0.1)">
      <defs>
       <path id="DejaVuSans-44" d="M 1259 4147 
L 1259 519 
L 2022 519 
Q 2988 519 3436 956 
Q 3884 1394 3884 2338 
Q 3884 3275 3436 3711 
Q 2988 4147 2022 4147 
L 1259 4147 
z
M 628 4666 
L 1925 4666 
Q 3281 4666 3915 4102 
Q 4550 3538 4550 2338 
Q 4550 1131 3912 565 
Q 3275 0 1925 0 
L 628 0 
L 628 4666 
z
" transform="scale(0.015625)"/>
       <path id="DejaVuSans-72" d="M 2631 2963 
Q 2534 3019 2420 3045 
Q 2306 3072 2169 3072 
Q 1681 3072 1420 2755 
Q 1159 2438 1159 1844 
L 1159 0 
L 581 0 
L 581 3500 
L 1159 3500 
L 1159 2956 
Q 1341 3275 1631 3429 
Q 1922 3584 2338 3584 
Q 2397 3584 2469 3576 
Q 2541 3569 2628 3553 
L 2631 2963 
z
" transform="scale(0.015625)"/>
      </defs>
      <use xlink:href="#DejaVuSans-44"/>
      <use xlink:href="#DejaVuSans-72" x="77.001953"/>
      <use xlink:href="#DejaVuSans-6f" x="115.865234"/>
      <use xlink:href="#DejaVuSans-6e" x="177.046875"/>
      <use xlink:href="#DejaVuSans-65" x="240.425781"/>
      <use xlink:href="#DejaVuSans-20" x="301.949219"/>
      <use xlink:href="#DejaVuSans-79" x="333.736328"/>
      <use xlink:href="#DejaVuSans-20" x="392.916016"/>
      <use xlink:href="#DejaVuSans-6d" x="424.703125"/>
      <use xlink:href="#DejaVuSans-6f" x="522.115234"/>
      <use xlink:href="#DejaVuSans-76" x="583.296875"/>
      <use xlink:href="#DejaVuSans-65" x="642.476562"/>
      <use xlink:href="#DejaVuSans-6d" x="704"/>
      <use xlink:href="#DejaVuSans-65" x="801.412109"/>
      <use xlink:href="#DejaVuSans-6e" x="862.935547"/>
      <use xlink:href="#DejaVuSans-74" x="926.314453"/>
     </g>
    </g>
    <g id="line2d_33">
     <path d="M 53.57 54.656563 
L 63.57 54.656563 
L 73.57 54.656563 
" style="fill: none; stroke-dasharray: 5.55,2.4; stroke-dashoffset: 0; stroke: #0000ff; stroke-width: 1.5"/>
    </g>
    <g id="text_19">
     <!-- Payload y movement -->
     <g transform="translate(81.57 58.156563)scale(0.1 -0.1)">
      <defs>
       <path id="DejaVuSans-50" d="M 1259 4147 
L 1259 2394 
L 2053 2394 
Q 2494 2394 2734 2622 
Q 2975 2850 2975 3272 
Q 2975 3691 2734 3919 
Q 2494 4147 2053 4147 
L 1259 4147 
z
M 628 4666 
L 2053 4666 
Q 2838 4666 3239 4311 
Q 3641 3956 3641 3272 
Q 3641 2581 3239 2228 
Q 2838 1875 2053 1875 
L 1259 1875 
L 1259 0 
L 628 0 
L 628 4666 
z
" transform="scale(0.015625)"/>
      </defs>
      <use xlink:href="#DejaVuSans-50"/>
      <use xlink:href="#DejaVuSans-61" x="55.802734"/>
      <use xlink:href="#DejaVuSans-79" x="117.082031"/>
      <use xlink:href="#DejaVuSans-6c" x="176.261719"/>
      <use xlink:href="#DejaVuSans-6f" x="204.044922"/>
      <use xlink:href="#DejaVuSans-61" x="265.226562"/>
      <use xlink:href="#DejaVuSans-64" x="326.505859"/>
      <use xlink:href="#DejaVuSans-20" x="389.982422"/>
      <use xlink:href="#DejaVuSans-79" x="421.769531"/>
      <use xlink:href="#DejaVuSans-20" x="480.949219"/>
      <use xlink:href="#DejaVuSans-6d" x="512.736328"/>
      <use xlink:href="#DejaVuSans-6f" x="610.148438"/>
      <use xlink:href="#DejaVuSans-76" x="671.330078"/>
      <use xlink:href="#DejaVuSans-65" x="730.509766"/>
      <use xlink:href="#DejaVuSans-6d" x="792.033203"/>
      <use xlink:href="#DejaVuSans-65" x="889.445312"/>
      <use xlink:href="#DejaVuSans-6e" x="950.96875"/>
      <use xlink:href="#DejaVuSans-74" x="1014.347656"/>
     </g>
    </g>
    <g id="line2d_34">
     <path d="M 53.57 69.334687 
L 63.57 69.334687 
L 73.57 69.334687 
" style="fill: none; stroke-dasharray: 1.5,2.475; stroke-dashoffset: 0; stroke: #000000; stroke-width: 1.5"/>
    </g>
    <g id="text_20">
     <!-- Drone y-reference -->
     <g transform="translate(81.57 72.834687)scale(0.1 -0.1)">
      <defs>
       <path id="DejaVuSans-66" d="M 2375 4863 
L 2375 4384 
L 1825 4384 
Q 1516 4384 1395 4259 
Q 1275 4134 1275 3809 
L 1275 3500 
L 2222 3500 
L 2222 3053 
L 1275 3053 
L 1275 0 
L 697 0 
L 697 3053 
L 147 3053 
L 147 3500 
L 697 3500 
L 697 3744 
Q 697 4328 969 4595 
Q 1241 4863 1831 4863 
L 2375 4863 
z
" transform="scale(0.015625)"/>
       <path id="DejaVuSans-63" d="M 3122 3366 
L 3122 2828 
Q 2878 2963 2633 3030 
Q 2388 3097 2138 3097 
Q 1578 3097 1268 2742 
Q 959 2388 959 1747 
Q 959 1106 1268 751 
Q 1578 397 2138 397 
Q 2388 397 2633 464 
Q 2878 531 3122 666 
L 3122 134 
Q 2881 22 2623 -34 
Q 2366 -91 2075 -91 
Q 1284 -91 818 406 
Q 353 903 353 1747 
Q 353 2603 823 3093 
Q 1294 3584 2113 3584 
Q 2378 3584 2631 3529 
Q 2884 3475 3122 3366 
z
" transform="scale(0.015625)"/>
      </defs>
      <use xlink:href="#DejaVuSans-44"/>
      <use xlink:href="#DejaVuSans-72" x="77.001953"/>
      <use xlink:href="#DejaVuSans-6f" x="115.865234"/>
      <use xlink:href="#DejaVuSans-6e" x="177.046875"/>
      <use xlink:href="#DejaVuSans-65" x="240.425781"/>
      <use xlink:href="#DejaVuSans-20" x="301.949219"/>
      <use xlink:href="#DejaVuSans-79" x="333.736328"/>
      <use xlink:href="#DejaVuSans-2d" x="391.166016"/>
      <use xlink:href="#DejaVuSans-72" x="427.25"/>
      <use xlink:href="#DejaVuSans-65" x="466.113281"/>
      <use xlink:href="#DejaVuSans-66" x="527.636719"/>
      <use xlink:href="#DejaVuSans-65" x="562.841797"/>
      <use xlink:href="#DejaVuSans-72" x="624.365234"/>
      <use xlink:href="#DejaVuSans-65" x="663.228516"/>
      <use xlink:href="#DejaVuSans-6e" x="724.751953"/>
      <use xlink:href="#DejaVuSans-63" x="788.130859"/>
      <use xlink:href="#DejaVuSans-65" x="843.111328"/>
     </g>
    </g>
   </g>
  </g>
 </g>
 <defs>
  <clipPath id="pcadb19c544">
   <rect x="44.57" y="26.88" width="405.43" height="276.76"/>
  </clipPath>
 </defs>
</svg>
