<?xml version="1.0" encoding="utf-8" standalone="no"?>
<!DOCTYPE svg PUBLIC "-//W3C//DTD SVG 1.1//EN"
  "http://www.w3.org/Graphics/SVG/1.1/DTD/svg11.dtd">
<svg xmlns:xlink="http://www.w3.org/1999/xlink" width="460.8pt" height="345.6pt" viewBox="0 0 460.8 345.6" xmlns="http://www.w3.org/2000/svg" version="1.1">
 <metadata>
  <rdf:RDF xmlns:dc="http://purl.org/dc/elements/1.1/" xmlns:cc="http://creativecommons.org/ns#" xmlns:rdf="http://www.w3.org/1999/02/22-rdf-syntax-ns#">
   <cc:Work>
    <dc:type rdf:resource="http://purl.org/dc/dcmitype/StillImage"/>
    <dc:date>2022-05-31T13:36:08.167991</dc:date>
    <dc:format>image/svg+xml</dc:format>
    <dc:creator>
     <cc:Agent>
      <dc:title>Matplotlib v3.5.1, https://matplotlib.org/</dc:title>
     </cc:Agent>
    </dc:creator>
   </cc:Work>
  </rdf:RDF>
 </metadata>
 <defs>
  <style type="text/css">*{stroke-linejoin: round; stroke-linecap: butt}</style>
 </defs>
 <g id="figure_1">
  <g id="patch_1">
   <path d="M 0 345.6 
L 460.8 345.6 
L 460.8 0 
L 0 0 
z
" style="fill: #ffffff"/>
  </g>
  <g id="axes_1">
   <g id="patch_2">
    <path d="M 56 303.64 
L 450 303.64 
L 450 26.88 
L 56 26.88 
z
" style="fill: #ffffff"/>
   </g>
   <g id="matplotlib.axis_1">
    <g id="xtick_1">
     <g id="line2d_1">
      <path d="M 73.909091 303.64 
L 73.909091 26.88 
" clip-path="url(#pbe0a282122)" style="fill: none; stroke: #b0b0b0; stroke-width: 0.8; stroke-linecap: square"/>
     </g>
     <g id="line2d_2">
      <defs>
       <path id="m6a371e1709" d="M 0 0 
L 0 3.5 
" style="stroke: #000000; stroke-width: 0.8"/>
      </defs>
      <g>
       <use xlink:href="#m6a371e1709" x="73.909091" y="303.64" style="stroke: #000000; stroke-width: 0.8"/>
      </g>
     </g>
     <g id="text_1">
      <!-- 0 -->
      <g transform="translate(70.727841 318.238437)scale(0.1 -0.1)">
       <defs>
        <path id="DejaVuSans-30" d="M 2034 4250 
Q 1547 4250 1301 3770 
Q 1056 3291 1056 2328 
Q 1056 1369 1301 889 
Q 1547 409 2034 409 
Q 2525 409 2770 889 
Q 3016 1369 3016 2328 
Q 3016 3291 2770 3770 
Q 2525 4250 2034 4250 
z
M 2034 4750 
Q 2819 4750 3233 4129 
Q 3647 3509 3647 2328 
Q 3647 1150 3233 529 
Q 2819 -91 2034 -91 
Q 1250 -91 836 529 
Q 422 1150 422 2328 
Q 422 3509 836 4129 
Q 1250 4750 2034 4750 
z
" transform="scale(0.015625)"/>
       </defs>
       <use xlink:href="#DejaVuSans-30"/>
      </g>
     </g>
    </g>
    <g id="xtick_2">
     <g id="line2d_3">
      <path d="M 159.292123 303.64 
L 159.292123 26.88 
" clip-path="url(#pbe0a282122)" style="fill: none; stroke: #b0b0b0; stroke-width: 0.8; stroke-linecap: square"/>
     </g>
     <g id="line2d_4">
      <g>
       <use xlink:href="#m6a371e1709" x="159.292123" y="303.64" style="stroke: #000000; stroke-width: 0.8"/>
      </g>
     </g>
     <g id="text_2">
      <!-- 2 -->
      <g transform="translate(156.110873 318.238437)scale(0.1 -0.1)">
       <defs>
        <path id="DejaVuSans-32" d="M 1228 531 
L 3431 531 
L 3431 0 
L 469 0 
L 469 531 
Q 828 903 1448 1529 
Q 2069 2156 2228 2338 
Q 2531 2678 2651 2914 
Q 2772 3150 2772 3378 
Q 2772 3750 2511 3984 
Q 2250 4219 1831 4219 
Q 1534 4219 1204 4116 
Q 875 4013 500 3803 
L 500 4441 
Q 881 4594 1212 4672 
Q 1544 4750 1819 4750 
Q 2544 4750 2975 4387 
Q 3406 4025 3406 3419 
Q 3406 3131 3298 2873 
Q 3191 2616 2906 2266 
Q 2828 2175 2409 1742 
Q 1991 1309 1228 531 
z
" transform="scale(0.015625)"/>
       </defs>
       <use xlink:href="#DejaVuSans-32"/>
      </g>
     </g>
    </g>
    <g id="xtick_3">
     <g id="line2d_5">
      <path d="M 244.675154 303.64 
L 244.675154 26.88 
" clip-path="url(#pbe0a282122)" style="fill: none; stroke: #b0b0b0; stroke-width: 0.8; stroke-linecap: square"/>
     </g>
     <g id="line2d_6">
      <g>
       <use xlink:href="#m6a371e1709" x="244.675154" y="303.64" style="stroke: #000000; stroke-width: 0.8"/>
      </g>
     </g>
     <g id="text_3">
      <!-- 4 -->
      <g transform="translate(241.493904 318.238437)scale(0.1 -0.1)">
       <defs>
        <path id="DejaVuSans-34" d="M 2419 4116 
L 825 1625 
L 2419 1625 
L 2419 4116 
z
M 2253 4666 
L 3047 4666 
L 3047 1625 
L 3713 1625 
L 3713 1100 
L 3047 1100 
L 3047 0 
L 2419 0 
L 2419 1100 
L 313 1100 
L 313 1709 
L 2253 4666 
z
" transform="scale(0.015625)"/>
       </defs>
       <use xlink:href="#DejaVuSans-34"/>
      </g>
     </g>
    </g>
    <g id="xtick_4">
     <g id="line2d_7">
      <path d="M 330.058186 303.64 
L 330.058186 26.88 
" clip-path="url(#pbe0a282122)" style="fill: none; stroke: #b0b0b0; stroke-width: 0.8; stroke-linecap: square"/>
     </g>
     <g id="line2d_8">
      <g>
       <use xlink:href="#m6a371e1709" x="330.058186" y="303.64" style="stroke: #000000; stroke-width: 0.8"/>
      </g>
     </g>
     <g id="text_4">
      <!-- 6 -->
      <g transform="translate(326.876936 318.238437)scale(0.1 -0.1)">
       <defs>
        <path id="DejaVuSans-36" d="M 2113 2584 
Q 1688 2584 1439 2293 
Q 1191 2003 1191 1497 
Q 1191 994 1439 701 
Q 1688 409 2113 409 
Q 2538 409 2786 701 
Q 3034 994 3034 1497 
Q 3034 2003 2786 2293 
Q 2538 2584 2113 2584 
z
M 3366 4563 
L 3366 3988 
Q 3128 4100 2886 4159 
Q 2644 4219 2406 4219 
Q 1781 4219 1451 3797 
Q 1122 3375 1075 2522 
Q 1259 2794 1537 2939 
Q 1816 3084 2150 3084 
Q 2853 3084 3261 2657 
Q 3669 2231 3669 1497 
Q 3669 778 3244 343 
Q 2819 -91 2113 -91 
Q 1303 -91 875 529 
Q 447 1150 447 2328 
Q 447 3434 972 4092 
Q 1497 4750 2381 4750 
Q 2619 4750 2861 4703 
Q 3103 4656 3366 4563 
z
" transform="scale(0.015625)"/>
       </defs>
       <use xlink:href="#DejaVuSans-36"/>
      </g>
     </g>
    </g>
    <g id="xtick_5">
     <g id="line2d_9">
      <path d="M 415.441218 303.64 
L 415.441218 26.88 
" clip-path="url(#pbe0a282122)" style="fill: none; stroke: #b0b0b0; stroke-width: 0.8; stroke-linecap: square"/>
     </g>
     <g id="line2d_10">
      <g>
       <use xlink:href="#m6a371e1709" x="415.441218" y="303.64" style="stroke: #000000; stroke-width: 0.8"/>
      </g>
     </g>
     <g id="text_5">
      <!-- 8 -->
      <g transform="translate(412.259968 318.238437)scale(0.1 -0.1)">
       <defs>
        <path id="DejaVuSans-38" d="M 2034 2216 
Q 1584 2216 1326 1975 
Q 1069 1734 1069 1313 
Q 1069 891 1326 650 
Q 1584 409 2034 409 
Q 2484 409 2743 651 
Q 3003 894 3003 1313 
Q 3003 1734 2745 1975 
Q 2488 2216 2034 2216 
z
M 1403 2484 
Q 997 2584 770 2862 
Q 544 3141 544 3541 
Q 544 4100 942 4425 
Q 1341 4750 2034 4750 
Q 2731 4750 3128 4425 
Q 3525 4100 3525 3541 
Q 3525 3141 3298 2862 
Q 3072 2584 2669 2484 
Q 3125 2378 3379 2068 
Q 3634 1759 3634 1313 
Q 3634 634 3220 271 
Q 2806 -91 2034 -91 
Q 1263 -91 848 271 
Q 434 634 434 1313 
Q 434 1759 690 2068 
Q 947 2378 1403 2484 
z
M 1172 3481 
Q 1172 3119 1398 2916 
Q 1625 2713 2034 2713 
Q 2441 2713 2670 2916 
Q 2900 3119 2900 3481 
Q 2900 3844 2670 4047 
Q 2441 4250 2034 4250 
Q 1625 4250 1398 4047 
Q 1172 3844 1172 3481 
z
" transform="scale(0.015625)"/>
       </defs>
       <use xlink:href="#DejaVuSans-38"/>
      </g>
     </g>
    </g>
    <g id="text_6">
     <!-- t [s] -->
     <g transform="translate(242.944531 331.916562)scale(0.1 -0.1)">
      <defs>
       <path id="DejaVuSans-74" d="M 1172 4494 
L 1172 3500 
L 2356 3500 
L 2356 3053 
L 1172 3053 
L 1172 1153 
Q 1172 725 1289 603 
Q 1406 481 1766 481 
L 2356 481 
L 2356 0 
L 1766 0 
Q 1100 0 847 248 
Q 594 497 594 1153 
L 594 3053 
L 172 3053 
L 172 3500 
L 594 3500 
L 594 4494 
L 1172 4494 
z
" transform="scale(0.015625)"/>
       <path id="DejaVuSans-20" transform="scale(0.015625)"/>
       <path id="DejaVuSans-5b" d="M 550 4863 
L 1875 4863 
L 1875 4416 
L 1125 4416 
L 1125 -397 
L 1875 -397 
L 1875 -844 
L 550 -844 
L 550 4863 
z
" transform="scale(0.015625)"/>
       <path id="DejaVuSans-73" d="M 2834 3397 
L 2834 2853 
Q 2591 2978 2328 3040 
Q 2066 3103 1784 3103 
Q 1356 3103 1142 2972 
Q 928 2841 928 2578 
Q 928 2378 1081 2264 
Q 1234 2150 1697 2047 
L 1894 2003 
Q 2506 1872 2764 1633 
Q 3022 1394 3022 966 
Q 3022 478 2636 193 
Q 2250 -91 1575 -91 
Q 1294 -91 989 -36 
Q 684 19 347 128 
L 347 722 
Q 666 556 975 473 
Q 1284 391 1588 391 
Q 1994 391 2212 530 
Q 2431 669 2431 922 
Q 2431 1156 2273 1281 
Q 2116 1406 1581 1522 
L 1381 1569 
Q 847 1681 609 1914 
Q 372 2147 372 2553 
Q 372 3047 722 3315 
Q 1072 3584 1716 3584 
Q 2034 3584 2315 3537 
Q 2597 3491 2834 3397 
z
" transform="scale(0.015625)"/>
       <path id="DejaVuSans-5d" d="M 1947 4863 
L 1947 -844 
L 622 -844 
L 622 -397 
L 1369 -397 
L 1369 4416 
L 622 4416 
L 622 4863 
L 1947 4863 
z
" transform="scale(0.015625)"/>
      </defs>
      <use xlink:href="#DejaVuSans-74"/>
      <use xlink:href="#DejaVuSans-20" x="39.208984"/>
      <use xlink:href="#DejaVuSans-5b" x="70.996094"/>
      <use xlink:href="#DejaVuSans-73" x="110.009766"/>
      <use xlink:href="#DejaVuSans-5d" x="162.109375"/>
     </g>
    </g>
   </g>
   <g id="matplotlib.axis_2">
    <g id="ytick_1">
     <g id="line2d_11">
      <path d="M 56 273.013252 
L 450 273.013252 
" clip-path="url(#pbe0a282122)" style="fill: none; stroke: #b0b0b0; stroke-width: 0.8; stroke-linecap: square"/>
     </g>
     <g id="line2d_12">
      <defs>
       <path id="mcf00108c65" d="M 0 0 
L -3.5 0 
" style="stroke: #000000; stroke-width: 0.8"/>
      </defs>
      <g>
       <use xlink:href="#mcf00108c65" x="56" y="273.013252" style="stroke: #000000; stroke-width: 0.8"/>
      </g>
     </g>
     <g id="text_7">
      <!-- −0.4 -->
      <g transform="translate(24.717188 276.81247)scale(0.1 -0.1)">
       <defs>
        <path id="DejaVuSans-2212" d="M 678 2272 
L 4684 2272 
L 4684 1741 
L 678 1741 
L 678 2272 
z
" transform="scale(0.015625)"/>
        <path id="DejaVuSans-2e" d="M 684 794 
L 1344 794 
L 1344 0 
L 684 0 
L 684 794 
z
" transform="scale(0.015625)"/>
       </defs>
       <use xlink:href="#DejaVuSans-2212"/>
       <use xlink:href="#DejaVuSans-30" x="83.789062"/>
       <use xlink:href="#DejaVuSans-2e" x="147.412109"/>
       <use xlink:href="#DejaVuSans-34" x="179.199219"/>
      </g>
     </g>
    </g>
    <g id="ytick_2">
     <g id="line2d_13">
      <path d="M 56 239.673191 
L 450 239.673191 
" clip-path="url(#pbe0a282122)" style="fill: none; stroke: #b0b0b0; stroke-width: 0.8; stroke-linecap: square"/>
     </g>
     <g id="line2d_14">
      <g>
       <use xlink:href="#mcf00108c65" x="56" y="239.673191" style="stroke: #000000; stroke-width: 0.8"/>
      </g>
     </g>
     <g id="text_8">
      <!-- −0.2 -->
      <g transform="translate(24.717188 243.47241)scale(0.1 -0.1)">
       <use xlink:href="#DejaVuSans-2212"/>
       <use xlink:href="#DejaVuSans-30" x="83.789062"/>
       <use xlink:href="#DejaVuSans-2e" x="147.412109"/>
       <use xlink:href="#DejaVuSans-32" x="179.199219"/>
      </g>
     </g>
    </g>
    <g id="ytick_3">
     <g id="line2d_15">
      <path d="M 56 206.333131 
L 450 206.333131 
" clip-path="url(#pbe0a282122)" style="fill: none; stroke: #b0b0b0; stroke-width: 0.8; stroke-linecap: square"/>
     </g>
     <g id="line2d_16">
      <g>
       <use xlink:href="#mcf00108c65" x="56" y="206.333131" style="stroke: #000000; stroke-width: 0.8"/>
      </g>
     </g>
     <g id="text_9">
      <!-- 0.0 -->
      <g transform="translate(33.096875 210.132349)scale(0.1 -0.1)">
       <use xlink:href="#DejaVuSans-30"/>
       <use xlink:href="#DejaVuSans-2e" x="63.623047"/>
       <use xlink:href="#DejaVuSans-30" x="95.410156"/>
      </g>
     </g>
    </g>
    <g id="ytick_4">
     <g id="line2d_17">
      <path d="M 56 172.99307 
L 450 172.99307 
" clip-path="url(#pbe0a282122)" style="fill: none; stroke: #b0b0b0; stroke-width: 0.8; stroke-linecap: square"/>
     </g>
     <g id="line2d_18">
      <g>
       <use xlink:href="#mcf00108c65" x="56" y="172.99307" style="stroke: #000000; stroke-width: 0.8"/>
      </g>
     </g>
     <g id="text_10">
      <!-- 0.2 -->
      <g transform="translate(33.096875 176.792289)scale(0.1 -0.1)">
       <use xlink:href="#DejaVuSans-30"/>
       <use xlink:href="#DejaVuSans-2e" x="63.623047"/>
       <use xlink:href="#DejaVuSans-32" x="95.410156"/>
      </g>
     </g>
    </g>
    <g id="ytick_5">
     <g id="line2d_19">
      <path d="M 56 139.65301 
L 450 139.65301 
" clip-path="url(#pbe0a282122)" style="fill: none; stroke: #b0b0b0; stroke-width: 0.8; stroke-linecap: square"/>
     </g>
     <g id="line2d_20">
      <g>
       <use xlink:href="#mcf00108c65" x="56" y="139.65301" style="stroke: #000000; stroke-width: 0.8"/>
      </g>
     </g>
     <g id="text_11">
      <!-- 0.4 -->
      <g transform="translate(33.096875 143.452228)scale(0.1 -0.1)">
       <use xlink:href="#DejaVuSans-30"/>
       <use xlink:href="#DejaVuSans-2e" x="63.623047"/>
       <use xlink:href="#DejaVuSans-34" x="95.410156"/>
      </g>
     </g>
    </g>
    <g id="ytick_6">
     <g id="line2d_21">
      <path d="M 56 106.312949 
L 450 106.312949 
" clip-path="url(#pbe0a282122)" style="fill: none; stroke: #b0b0b0; stroke-width: 0.8; stroke-linecap: square"/>
     </g>
     <g id="line2d_22">
      <g>
       <use xlink:href="#mcf00108c65" x="56" y="106.312949" style="stroke: #000000; stroke-width: 0.8"/>
      </g>
     </g>
     <g id="text_12">
      <!-- 0.6 -->
      <g transform="translate(33.096875 110.112168)scale(0.1 -0.1)">
       <use xlink:href="#DejaVuSans-30"/>
       <use xlink:href="#DejaVuSans-2e" x="63.623047"/>
       <use xlink:href="#DejaVuSans-36" x="95.410156"/>
      </g>
     </g>
    </g>
    <g id="ytick_7">
     <g id="line2d_23">
      <path d="M 56 72.972889 
L 450 72.972889 
" clip-path="url(#pbe0a282122)" style="fill: none; stroke: #b0b0b0; stroke-width: 0.8; stroke-linecap: square"/>
     </g>
     <g id="line2d_24">
      <g>
       <use xlink:href="#mcf00108c65" x="56" y="72.972889" style="stroke: #000000; stroke-width: 0.8"/>
      </g>
     </g>
     <g id="text_13">
      <!-- 0.8 -->
      <g transform="translate(33.096875 76.772108)scale(0.1 -0.1)">
       <use xlink:href="#DejaVuSans-30"/>
       <use xlink:href="#DejaVuSans-2e" x="63.623047"/>
       <use xlink:href="#DejaVuSans-38" x="95.410156"/>
      </g>
     </g>
    </g>
    <g id="ytick_8">
     <g id="line2d_25">
      <path d="M 56 39.632828 
L 450 39.632828 
" clip-path="url(#pbe0a282122)" style="fill: none; stroke: #b0b0b0; stroke-width: 0.8; stroke-linecap: square"/>
     </g>
     <g id="line2d_26">
      <g>
       <use xlink:href="#mcf00108c65" x="56" y="39.632828" style="stroke: #000000; stroke-width: 0.8"/>
      </g>
     </g>
     <g id="text_14">
      <!-- 1.0 -->
      <g transform="translate(33.096875 43.432047)scale(0.1 -0.1)">
       <defs>
        <path id="DejaVuSans-31" d="M 794 531 
L 1825 531 
L 1825 4091 
L 703 3866 
L 703 4441 
L 1819 4666 
L 2450 4666 
L 2450 531 
L 3481 531 
L 3481 0 
L 794 0 
L 794 531 
z
" transform="scale(0.015625)"/>
       </defs>
       <use xlink:href="#DejaVuSans-31"/>
       <use xlink:href="#DejaVuSans-2e" x="63.623047"/>
       <use xlink:href="#DejaVuSans-30" x="95.410156"/>
      </g>
     </g>
    </g>
    <g id="text_15">
     <!-- z [m] -->
     <g transform="translate(18.6375 178.245156)rotate(-90)scale(0.1 -0.1)">
      <defs>
       <path id="DejaVuSans-7a" d="M 353 3500 
L 3084 3500 
L 3084 2975 
L 922 459 
L 3084 459 
L 3084 0 
L 275 0 
L 275 525 
L 2438 3041 
L 353 3041 
L 353 3500 
z
" transform="scale(0.015625)"/>
       <path id="DejaVuSans-6d" d="M 3328 2828 
Q 3544 3216 3844 3400 
Q 4144 3584 4550 3584 
Q 5097 3584 5394 3201 
Q 5691 2819 5691 2113 
L 5691 0 
L 5113 0 
L 5113 2094 
Q 5113 2597 4934 2840 
Q 4756 3084 4391 3084 
Q 3944 3084 3684 2787 
Q 3425 2491 3425 1978 
L 3425 0 
L 2847 0 
L 2847 2094 
Q 2847 2600 2669 2842 
Q 2491 3084 2119 3084 
Q 1678 3084 1418 2786 
Q 1159 2488 1159 1978 
L 1159 0 
L 581 0 
L 581 3500 
L 1159 3500 
L 1159 2956 
Q 1356 3278 1631 3431 
Q 1906 3584 2284 3584 
Q 2666 3584 2933 3390 
Q 3200 3197 3328 2828 
z
" transform="scale(0.015625)"/>
      </defs>
      <use xlink:href="#DejaVuSans-7a"/>
      <use xlink:href="#DejaVuSans-20" x="52.490234"/>
      <use xlink:href="#DejaVuSans-5b" x="84.277344"/>
      <use xlink:href="#DejaVuSans-6d" x="123.291016"/>
      <use xlink:href="#DejaVuSans-5d" x="220.703125"/>
     </g>
    </g>
   </g>
   <g id="line2d_27">
    <path d="M 73.909091 197.272747 
L 91.839528 197.197471 
L 92.693358 197.001599 
L 93.120273 196.760445 
L 93.547188 196.308639 
L 93.974103 196.308639 
L 94.401019 195.706287 
L 95.681764 194.51888 
L 96.535594 192.990821 
L 97.389425 191.458446 
L 98.243255 190.064291 
L 98.67017 188.921349 
L 99.097085 187.26913 
L 100.377831 184.517833 
L 101.231661 181.442962 
L 101.658576 180.899509 
L 102.085491 178.638896 
L 103.366237 174.991588 
L 103.793152 173.053988 
L 104.220067 170.353739 
L 106.354643 163.032319 
L 106.781558 160.679022 
L 107.208473 157.429574 
L 108.489219 152.318802 
L 110.196879 142.225496 
L 110.623795 140.291089 
L 111.477625 134.305197 
L 111.90454 133.280971 
L 112.331455 129.109571 
L 113.185286 124.831392 
L 114.039116 118.282716 
L 114.466031 117.184483 
L 114.892946 112.797529 
L 115.319861 110.617257 
L 115.746776 107.378017 
L 117.027522 101.063708 
L 117.454437 97.017428 
L 117.881352 95.051987 
L 118.308267 92.181672 
L 119.589013 86.74 
L 120.015928 83.345431 
L 120.442843 83.345431 
L 120.869758 79.372631 
L 122.577419 72.980602 
L 123.431249 69.243841 
L 125.565825 63.397454 
L 125.99274 61.565349 
L 128.127316 57.24154 
L 128.554231 55.900872 
L 130.261892 53.273018 
L 130.688807 52.23944 
L 132.396468 50.102705 
L 132.823383 49.450851 
L 133.250298 49.240549 
L 133.677213 48.435198 
L 134.957959 47.169403 
L 135.384874 46.684611 
L 135.811789 46.530747 
L 136.238704 45.953518 
L 139.22711 44.11386 
L 142.215516 43.08439 
L 143.496262 42.849809 
L 144.777007 42.682004 
L 147.338498 42.652844 
L 151.60765 42.97093 
L 155.876801 43.149517 
L 158.865207 43.021249 
L 161.853614 42.658155 
L 162.280529 42.658155 
L 163.134359 42.494704 
L 170.391917 41.76867 
L 173.807238 41.792478 
L 177.222559 42.005876 
L 182.345541 42.430379 
L 191.31076 42.333404 
L 197.714487 42.169992 
L 201.556723 42.349152 
L 205.825875 42.673657 
L 207.10662 42.801778 
L 213.083433 43.087111 
L 217.352584 43.020216 
L 226.744718 42.690274 
L 233.148445 42.773624 
L 240.832918 42.816087 
L 243.394409 42.606207 
L 246.382815 42.234641 
L 251.078882 41.505006 
L 253.213458 41.436777 
L 254.921118 41.634347 
L 257.482609 42.423061 
L 259.19027 43.190487 
L 260.0441 43.61289 
L 261.324846 44.297622 
L 262.605591 44.869995 
L 263.032506 45.173977 
L 266.447828 46.252591 
L 268.582403 46.504523 
L 270.290064 46.422824 
L 271.570809 46.236486 
L 272.42464 46.010785 
L 274.1323 45.642952 
L 274.559216 45.339608 
L 275.839961 45.082044 
L 276.266876 44.878949 
L 276.693791 44.878949 
L 277.120706 44.635278 
L 281.816773 43.702879 
L 284.805179 43.589295 
L 287.36667 43.723173 
L 295.478058 44.177174 
L 298.039549 43.987299 
L 300.174125 43.692517 
L 303.162531 43.294134 
L 304.016361 43.117088 
L 309.139343 42.650662 
L 312.98158 42.659463 
L 321.519883 42.772128 
L 324.935204 42.53113 
L 332.619677 41.709296 
L 335.608083 41.552489 
L 338.596489 41.554818 
L 349.696283 41.872418 
L 352.68469 41.694436 
L 353.965435 41.556329 
L 358.661502 41.295307 
L 360.796078 41.400744 
L 362.930653 41.627413 
L 364.638314 41.988995 
L 365.492144 42.091326 
L 366.345975 42.301401 
L 371.895872 43.149384 
L 374.457363 43.14301 
L 376.591938 42.979186 
L 377.018854 42.827313 
L 378.299599 42.675539 
L 378.726514 42.54058 
L 379.153429 42.54058 
L 380.00726 42.283938 
L 381.71492 41.973978 
L 382.568751 41.705683 
L 387.691733 40.892356 
L 390.680139 40.810257 
L 393.668545 40.973503 
L 401.353018 41.433409 
L 404.768339 41.172293 
L 406.476 40.897658 
L 409.891321 40.336271 
L 416.721963 39.506737 
L 420.5642 39.483698 
L 432.090909 39.926725 
L 432.090909 39.926725 
" clip-path="url(#pbe0a282122)" style="fill: none; stroke: #ff0000; stroke-width: 1.5; stroke-linecap: square"/>
   </g>
   <g id="line2d_28">
    <path d="M 73.909091 291.06 
L 91.839528 290.984721 
L 92.693358 290.788822 
L 93.120273 290.547618 
L 93.547188 290.095708 
L 93.974103 290.095708 
L 94.401019 289.493235 
L 95.681764 288.305645 
L 96.535594 286.777387 
L 97.389425 285.244822 
L 98.243255 283.850495 
L 98.67017 282.707404 
L 99.097085 281.054948 
L 100.377831 278.303146 
L 101.231661 275.227507 
L 101.658576 274.683895 
L 102.085491 272.42255 
L 103.366237 268.773836 
L 103.793152 266.835388 
L 104.220067 264.133861 
L 106.354643 256.808627 
L 106.781558 254.45407 
L 107.208473 251.202914 
L 108.489219 246.089641 
L 110.196879 235.992521 
L 110.623795 234.057599 
L 111.477625 228.070609 
L 111.90454 227.046274 
L 112.331455 222.874662 
L 113.185286 218.59664 
L 114.039116 212.048857 
L 114.466031 210.950841 
L 114.892946 206.564923 
L 115.319861 204.385259 
L 115.746776 201.147025 
L 117.027522 194.834993 
L 117.454437 190.790362 
L 117.881352 188.825767 
L 118.308267 185.956738 
L 119.589013 180.517626 
L 120.015928 177.124703 
L 120.442843 177.124703 
L 120.869758 173.153834 
L 122.577419 166.764714 
L 123.431249 163.029335 
L 125.565825 157.183888 
L 125.99274 155.351518 
L 128.127316 151.025077 
L 128.554231 149.682725 
L 130.261892 147.049684 
L 130.688807 146.012977 
L 132.396468 143.856046 
L 132.823383 143.18834 
L 133.250298 142.971537 
L 133.677213 142.134909 
L 134.957959 140.80148 
L 135.384874 140.286145 
L 135.811789 140.122111 
L 136.238704 139.504691 
L 137.51945 138.568907 
L 137.946365 138.22015 
L 138.37328 138.110471 
L 138.800195 137.701985 
L 143.069347 135.844368 
L 143.496262 135.779915 
L 143.923177 135.517982 
L 144.350092 135.517982 
L 144.777007 135.17279 
L 146.057753 134.717034 
L 146.484668 134.37985 
L 147.338498 134.01157 
L 148.192329 133.397007 
L 148.619244 133.287122 
L 149.046159 132.826369 
L 149.473074 132.583501 
L 150.326904 131.808084 
L 150.753819 131.672535 
L 151.180735 131.396544 
L 151.60765 130.827075 
L 152.034565 130.534894 
L 152.888395 129.788723 
L 153.742226 129.182382 
L 154.169141 128.575446 
L 154.596056 128.575446 
L 155.022971 127.827498 
L 156.303717 126.965598 
L 156.730632 126.424356 
L 157.157547 126.424356 
L 157.584462 125.798339 
L 160.572868 124.2512 
L 162.280529 123.910103 
L 163.134359 123.839937 
L 163.988189 123.897013 
L 164.415105 124.023835 
L 164.84202 124.023835 
L 165.69585 124.40766 
L 166.54968 124.713938 
L 166.976596 125.078168 
L 167.403511 125.280466 
L 168.257341 125.8395 
L 169.111171 126.335112 
L 169.538086 126.866607 
L 169.965002 127.143582 
L 170.818832 127.861626 
L 171.672662 128.454679 
L 172.099577 129.056193 
L 172.526493 129.056193 
L 172.953408 129.809199 
L 174.234153 130.697241 
L 174.661068 131.269684 
L 175.087984 131.269684 
L 175.514899 131.952962 
L 177.649474 133.287782 
L 178.07639 133.704691 
L 181.064796 135.021935 
L 183.626287 135.604456 
L 186.187778 135.784487 
L 189.603099 135.709942 
L 193.445335 135.546624 
L 199.422148 135.293866 
L 201.129808 135.075178 
L 202.837469 134.768518 
L 204.972045 134.303485 
L 205.39896 134.103161 
L 205.825875 134.103161 
L 206.25279 133.832472 
L 208.387366 133.179423 
L 209.241196 132.806107 
L 210.948857 132.252945 
L 211.802687 131.905787 
L 216.071839 130.885034 
L 218.206415 130.800193 
L 219.914075 130.921788 
L 222.475566 131.453482 
L 227.171633 133.180111 
L 228.025463 133.52539 
L 228.879294 133.798158 
L 229.306209 134.064526 
L 229.733124 134.064526 
L 230.160039 134.384291 
L 235.283021 135.792661 
L 238.698342 136.150438 
L 241.259833 136.200066 
L 245.528985 136.043363 
L 247.663561 135.796316 
L 248.944306 135.492975 
L 254.067288 133.972452 
L 254.921118 133.678654 
L 257.482609 132.490272 
L 260.0441 130.528935 
L 261.324846 129.103968 
L 262.178676 128.301692 
L 262.605591 127.667133 
L 263.032506 126.785642 
L 264.313252 125.413201 
L 265.167082 124.019669 
L 265.593997 123.788503 
L 266.020912 122.874457 
L 266.874743 121.986078 
L 267.728573 120.728164 
L 268.155488 120.52968 
L 268.582403 119.774456 
L 270.716979 118.091795 
L 271.570809 117.557434 
L 271.997725 117.247521 
L 273.27847 116.989093 
L 274.1323 116.958295 
L 274.986131 117.179999 
L 275.839961 117.461788 
L 276.266876 117.852044 
L 276.693791 117.852044 
L 277.120706 118.485197 
L 278.828367 119.80152 
L 279.255282 120.379628 
L 279.682197 121.211543 
L 280.962943 122.567773 
L 281.389858 123.284203 
L 281.816773 124.267644 
L 283.951349 126.793903 
L 284.378264 127.5498 
L 284.805179 128.54198 
L 286.939755 130.883466 
L 287.36667 131.946535 
L 289.074331 133.455578 
L 289.501246 133.792133 
L 289.928161 134.557954 
L 292.489652 136.199857 
L 294.624228 136.826145 
L 295.478058 136.997019 
L 297.612634 137.059293 
L 299.74721 136.897658 
L 301.454871 136.643188 
L 304.870192 136.123916 
L 306.150937 135.836392 
L 307.858598 135.488931 
L 310.847004 134.545438 
L 311.273919 134.251152 
L 312.554665 133.66083 
L 313.408495 133.279936 
L 313.83541 132.868528 
L 314.68924 132.31441 
L 315.969986 131.598487 
L 316.396901 131.096162 
L 316.823816 130.839121 
L 317.677647 130.184436 
L 318.531477 129.653966 
L 318.958392 129.123824 
L 321.092968 127.718127 
L 321.519883 127.244341 
L 325.362119 125.30616 
L 326.21595 125.111695 
L 327.06978 124.926341 
L 328.777441 124.895557 
L 331.338932 125.489744 
L 332.192762 125.932045 
L 333.046592 126.376478 
L 333.473507 126.672101 
L 333.900423 126.774989 
L 334.327338 127.206126 
L 335.608083 127.901588 
L 337.315744 129.269773 
L 338.596489 130.157698 
L 339.877235 131.144193 
L 340.731065 131.729401 
L 341.15798 132.064607 
L 341.584895 132.173313 
L 342.011811 132.59181 
L 343.292556 133.257133 
L 343.719471 133.515744 
L 344.146386 133.598439 
L 344.573302 133.911649 
L 348.842453 135.258331 
L 349.696283 135.356001 
L 351.830859 135.469636 
L 353.965435 135.31963 
L 355.246181 135.11899 
L 356.100011 134.884123 
L 356.953841 134.643541 
L 357.380756 134.421718 
L 357.807671 134.421718 
L 358.661502 134.039597 
L 359.515332 133.674944 
L 359.942247 133.435274 
L 360.369162 133.351842 
L 360.796078 132.999364 
L 361.649908 132.515333 
L 362.076823 132.20132 
L 362.930653 131.869312 
L 363.357569 131.398745 
L 363.784484 131.151497 
L 364.638314 130.36394 
L 365.065229 130.226322 
L 365.492144 129.945949 
L 365.919059 129.365837 
L 366.77289 128.762825 
L 367.199805 128.298296 
L 367.62672 127.666728 
L 368.053635 127.666728 
L 368.48055 127.026665 
L 368.907466 126.705489 
L 369.761296 125.906352 
L 370.615126 125.278711 
L 371.042041 124.669635 
L 373.176617 123.151029 
L 373.603532 122.67726 
L 374.030448 122.67726 
L 374.457363 122.159858 
L 376.165023 121.418546 
L 376.591938 121.418546 
L 377.018854 121.187584 
L 379.153429 121.171435 
L 380.434175 121.56465 
L 380.86109 121.70711 
L 381.288005 122.050187 
L 381.71492 122.050187 
L 382.141836 122.58398 
L 383.422581 123.366723 
L 383.849496 123.965324 
L 384.276411 123.965324 
L 384.703326 124.787518 
L 385.984072 125.860888 
L 386.410987 126.614596 
L 386.837902 126.999166 
L 387.264817 127.582084 
L 388.545563 128.753068 
L 388.972478 129.523365 
L 389.399393 129.523365 
L 389.826308 130.456271 
L 391.107054 131.506547 
L 391.533969 132.150641 
L 391.960884 132.150641 
L 392.387799 132.878389 
L 394.94929 134.437825 
L 396.656951 134.875886 
L 397.937696 134.956709 
L 398.791527 134.873309 
L 400.926103 134.332865 
L 406.902915 131.708806 
L 409.891321 130.886963 
L 412.025897 130.70065 
L 413.733557 130.832013 
L 415.441218 131.09792 
L 423.125691 133.06031 
L 426.541012 133.478303 
L 429.956333 133.564887 
L 432.090909 133.50773 
L 432.090909 133.50773 
" clip-path="url(#pbe0a282122)" style="fill: none; stroke-dasharray: 5.55,2.4; stroke-dashoffset: 0; stroke: #0000ff; stroke-width: 1.5"/>
   </g>
   <g id="line2d_29">
    <path d="M 73.909091 39.632828 
L 432.090909 39.632828 
L 432.090909 39.632828 
" clip-path="url(#pbe0a282122)" style="fill: none; stroke-dasharray: 1.5,2.475; stroke-dashoffset: 0; stroke: #000000; stroke-width: 1.5"/>
   </g>
   <g id="patch_3">
    <path d="M 56 303.64 
L 56 26.88 
" style="fill: none; stroke: #000000; stroke-width: 0.8; stroke-linejoin: miter; stroke-linecap: square"/>
   </g>
   <g id="patch_4">
    <path d="M 450 303.64 
L 450 26.88 
" style="fill: none; stroke: #000000; stroke-width: 0.8; stroke-linejoin: miter; stroke-linecap: square"/>
   </g>
   <g id="patch_5">
    <path d="M 56 303.64 
L 450 303.64 
" style="fill: none; stroke: #000000; stroke-width: 0.8; stroke-linejoin: miter; stroke-linecap: square"/>
   </g>
   <g id="patch_6">
    <path d="M 56 26.88 
L 450 26.88 
" style="fill: none; stroke: #000000; stroke-width: 0.8; stroke-linejoin: miter; stroke-linecap: square"/>
   </g>
   <g id="text_16">
    <!-- Slung payload z-movement vs time -->
    <g transform="translate(146.625625 20.88)scale(0.12 -0.12)">
     <defs>
      <path id="DejaVuSans-53" d="M 3425 4513 
L 3425 3897 
Q 3066 4069 2747 4153 
Q 2428 4238 2131 4238 
Q 1616 4238 1336 4038 
Q 1056 3838 1056 3469 
Q 1056 3159 1242 3001 
Q 1428 2844 1947 2747 
L 2328 2669 
Q 3034 2534 3370 2195 
Q 3706 1856 3706 1288 
Q 3706 609 3251 259 
Q 2797 -91 1919 -91 
Q 1588 -91 1214 -16 
Q 841 59 441 206 
L 441 856 
Q 825 641 1194 531 
Q 1563 422 1919 422 
Q 2459 422 2753 634 
Q 3047 847 3047 1241 
Q 3047 1584 2836 1778 
Q 2625 1972 2144 2069 
L 1759 2144 
Q 1053 2284 737 2584 
Q 422 2884 422 3419 
Q 422 4038 858 4394 
Q 1294 4750 2059 4750 
Q 2388 4750 2728 4690 
Q 3069 4631 3425 4513 
z
" transform="scale(0.015625)"/>
      <path id="DejaVuSans-6c" d="M 603 4863 
L 1178 4863 
L 1178 0 
L 603 0 
L 603 4863 
z
" transform="scale(0.015625)"/>
      <path id="DejaVuSans-75" d="M 544 1381 
L 544 3500 
L 1119 3500 
L 1119 1403 
Q 1119 906 1312 657 
Q 1506 409 1894 409 
Q 2359 409 2629 706 
Q 2900 1003 2900 1516 
L 2900 3500 
L 3475 3500 
L 3475 0 
L 2900 0 
L 2900 538 
Q 2691 219 2414 64 
Q 2138 -91 1772 -91 
Q 1169 -91 856 284 
Q 544 659 544 1381 
z
M 1991 3584 
L 1991 3584 
z
" transform="scale(0.015625)"/>
      <path id="DejaVuSans-6e" d="M 3513 2113 
L 3513 0 
L 2938 0 
L 2938 2094 
Q 2938 2591 2744 2837 
Q 2550 3084 2163 3084 
Q 1697 3084 1428 2787 
Q 1159 2491 1159 1978 
L 1159 0 
L 581 0 
L 581 3500 
L 1159 3500 
L 1159 2956 
Q 1366 3272 1645 3428 
Q 1925 3584 2291 3584 
Q 2894 3584 3203 3211 
Q 3513 2838 3513 2113 
z
" transform="scale(0.015625)"/>
      <path id="DejaVuSans-67" d="M 2906 1791 
Q 2906 2416 2648 2759 
Q 2391 3103 1925 3103 
Q 1463 3103 1205 2759 
Q 947 2416 947 1791 
Q 947 1169 1205 825 
Q 1463 481 1925 481 
Q 2391 481 2648 825 
Q 2906 1169 2906 1791 
z
M 3481 434 
Q 3481 -459 3084 -895 
Q 2688 -1331 1869 -1331 
Q 1566 -1331 1297 -1286 
Q 1028 -1241 775 -1147 
L 775 -588 
Q 1028 -725 1275 -790 
Q 1522 -856 1778 -856 
Q 2344 -856 2625 -561 
Q 2906 -266 2906 331 
L 2906 616 
Q 2728 306 2450 153 
Q 2172 0 1784 0 
Q 1141 0 747 490 
Q 353 981 353 1791 
Q 353 2603 747 3093 
Q 1141 3584 1784 3584 
Q 2172 3584 2450 3431 
Q 2728 3278 2906 2969 
L 2906 3500 
L 3481 3500 
L 3481 434 
z
" transform="scale(0.015625)"/>
      <path id="DejaVuSans-70" d="M 1159 525 
L 1159 -1331 
L 581 -1331 
L 581 3500 
L 1159 3500 
L 1159 2969 
Q 1341 3281 1617 3432 
Q 1894 3584 2278 3584 
Q 2916 3584 3314 3078 
Q 3713 2572 3713 1747 
Q 3713 922 3314 415 
Q 2916 -91 2278 -91 
Q 1894 -91 1617 61 
Q 1341 213 1159 525 
z
M 3116 1747 
Q 3116 2381 2855 2742 
Q 2594 3103 2138 3103 
Q 1681 3103 1420 2742 
Q 1159 2381 1159 1747 
Q 1159 1113 1420 752 
Q 1681 391 2138 391 
Q 2594 391 2855 752 
Q 3116 1113 3116 1747 
z
" transform="scale(0.015625)"/>
      <path id="DejaVuSans-61" d="M 2194 1759 
Q 1497 1759 1228 1600 
Q 959 1441 959 1056 
Q 959 750 1161 570 
Q 1363 391 1709 391 
Q 2188 391 2477 730 
Q 2766 1069 2766 1631 
L 2766 1759 
L 2194 1759 
z
M 3341 1997 
L 3341 0 
L 2766 0 
L 2766 531 
Q 2569 213 2275 61 
Q 1981 -91 1556 -91 
Q 1019 -91 701 211 
Q 384 513 384 1019 
Q 384 1609 779 1909 
Q 1175 2209 1959 2209 
L 2766 2209 
L 2766 2266 
Q 2766 2663 2505 2880 
Q 2244 3097 1772 3097 
Q 1472 3097 1187 3025 
Q 903 2953 641 2809 
L 641 3341 
Q 956 3463 1253 3523 
Q 1550 3584 1831 3584 
Q 2591 3584 2966 3190 
Q 3341 2797 3341 1997 
z
" transform="scale(0.015625)"/>
      <path id="DejaVuSans-79" d="M 2059 -325 
Q 1816 -950 1584 -1140 
Q 1353 -1331 966 -1331 
L 506 -1331 
L 506 -850 
L 844 -850 
Q 1081 -850 1212 -737 
Q 1344 -625 1503 -206 
L 1606 56 
L 191 3500 
L 800 3500 
L 1894 763 
L 2988 3500 
L 3597 3500 
L 2059 -325 
z
" transform="scale(0.015625)"/>
      <path id="DejaVuSans-6f" d="M 1959 3097 
Q 1497 3097 1228 2736 
Q 959 2375 959 1747 
Q 959 1119 1226 758 
Q 1494 397 1959 397 
Q 2419 397 2687 759 
Q 2956 1122 2956 1747 
Q 2956 2369 2687 2733 
Q 2419 3097 1959 3097 
z
M 1959 3584 
Q 2709 3584 3137 3096 
Q 3566 2609 3566 1747 
Q 3566 888 3137 398 
Q 2709 -91 1959 -91 
Q 1206 -91 779 398 
Q 353 888 353 1747 
Q 353 2609 779 3096 
Q 1206 3584 1959 3584 
z
" transform="scale(0.015625)"/>
      <path id="DejaVuSans-64" d="M 2906 2969 
L 2906 4863 
L 3481 4863 
L 3481 0 
L 2906 0 
L 2906 525 
Q 2725 213 2448 61 
Q 2172 -91 1784 -91 
Q 1150 -91 751 415 
Q 353 922 353 1747 
Q 353 2572 751 3078 
Q 1150 3584 1784 3584 
Q 2172 3584 2448 3432 
Q 2725 3281 2906 2969 
z
M 947 1747 
Q 947 1113 1208 752 
Q 1469 391 1925 391 
Q 2381 391 2643 752 
Q 2906 1113 2906 1747 
Q 2906 2381 2643 2742 
Q 2381 3103 1925 3103 
Q 1469 3103 1208 2742 
Q 947 2381 947 1747 
z
" transform="scale(0.015625)"/>
      <path id="DejaVuSans-2d" d="M 313 2009 
L 1997 2009 
L 1997 1497 
L 313 1497 
L 313 2009 
z
" transform="scale(0.015625)"/>
      <path id="DejaVuSans-76" d="M 191 3500 
L 800 3500 
L 1894 563 
L 2988 3500 
L 3597 3500 
L 2284 0 
L 1503 0 
L 191 3500 
z
" transform="scale(0.015625)"/>
      <path id="DejaVuSans-65" d="M 3597 1894 
L 3597 1613 
L 953 1613 
Q 991 1019 1311 708 
Q 1631 397 2203 397 
Q 2534 397 2845 478 
Q 3156 559 3463 722 
L 3463 178 
Q 3153 47 2828 -22 
Q 2503 -91 2169 -91 
Q 1331 -91 842 396 
Q 353 884 353 1716 
Q 353 2575 817 3079 
Q 1281 3584 2069 3584 
Q 2775 3584 3186 3129 
Q 3597 2675 3597 1894 
z
M 3022 2063 
Q 3016 2534 2758 2815 
Q 2500 3097 2075 3097 
Q 1594 3097 1305 2825 
Q 1016 2553 972 2059 
L 3022 2063 
z
" transform="scale(0.015625)"/>
      <path id="DejaVuSans-69" d="M 603 3500 
L 1178 3500 
L 1178 0 
L 603 0 
L 603 3500 
z
M 603 4863 
L 1178 4863 
L 1178 4134 
L 603 4134 
L 603 4863 
z
" transform="scale(0.015625)"/>
     </defs>
     <use xlink:href="#DejaVuSans-53"/>
     <use xlink:href="#DejaVuSans-6c" x="63.476562"/>
     <use xlink:href="#DejaVuSans-75" x="91.259766"/>
     <use xlink:href="#DejaVuSans-6e" x="154.638672"/>
     <use xlink:href="#DejaVuSans-67" x="218.017578"/>
     <use xlink:href="#DejaVuSans-20" x="281.494141"/>
     <use xlink:href="#DejaVuSans-70" x="313.28125"/>
     <use xlink:href="#DejaVuSans-61" x="376.757812"/>
     <use xlink:href="#DejaVuSans-79" x="438.037109"/>
     <use xlink:href="#DejaVuSans-6c" x="497.216797"/>
     <use xlink:href="#DejaVuSans-6f" x="525"/>
     <use xlink:href="#DejaVuSans-61" x="586.181641"/>
     <use xlink:href="#DejaVuSans-64" x="647.460938"/>
     <use xlink:href="#DejaVuSans-20" x="710.9375"/>
     <use xlink:href="#DejaVuSans-7a" x="742.724609"/>
     <use xlink:href="#DejaVuSans-2d" x="795.214844"/>
     <use xlink:href="#DejaVuSans-6d" x="831.298828"/>
     <use xlink:href="#DejaVuSans-6f" x="928.710938"/>
     <use xlink:href="#DejaVuSans-76" x="989.892578"/>
     <use xlink:href="#DejaVuSans-65" x="1049.072266"/>
     <use xlink:href="#DejaVuSans-6d" x="1110.595703"/>
     <use xlink:href="#DejaVuSans-65" x="1208.007812"/>
     <use xlink:href="#DejaVuSans-6e" x="1269.53125"/>
     <use xlink:href="#DejaVuSans-74" x="1332.910156"/>
     <use xlink:href="#DejaVuSans-20" x="1372.119141"/>
     <use xlink:href="#DejaVuSans-76" x="1403.90625"/>
     <use xlink:href="#DejaVuSans-73" x="1463.085938"/>
     <use xlink:href="#DejaVuSans-20" x="1515.185547"/>
     <use xlink:href="#DejaVuSans-74" x="1546.972656"/>
     <use xlink:href="#DejaVuSans-69" x="1586.181641"/>
     <use xlink:href="#DejaVuSans-6d" x="1613.964844"/>
     <use xlink:href="#DejaVuSans-65" x="1711.376953"/>
    </g>
   </g>
   <g id="legend_1">
    <g id="patch_7">
     <path d="M 63 78.914375 
L 199.6875 78.914375 
Q 201.6875 78.914375 201.6875 76.914375 
L 201.6875 33.88 
Q 201.6875 31.88 199.6875 31.88 
L 63 31.88 
Q 61 31.88 61 33.88 
L 61 76.914375 
Q 61 78.914375 63 78.914375 
z
" style="fill: #ffffff; opacity: 0.8; stroke: #cccccc; stroke-linejoin: miter"/>
    </g>
    <g id="line2d_30">
     <path d="M 65 39.978437 
L 75 39.978437 
L 85 39.978437 
" style="fill: none; stroke: #ff0000; stroke-width: 1.5; stroke-linecap: square"/>
    </g>
    <g id="text_17">
     <!-- Drone z movement -->
     <g transform="translate(93 43.478437)scale(0.1 -0.1)">
      <defs>
       <path id="DejaVuSans-44" d="M 1259 4147 
L 1259 519 
L 2022 519 
Q 2988 519 3436 956 
Q 3884 1394 3884 2338 
Q 3884 3275 3436 3711 
Q 2988 4147 2022 4147 
L 1259 4147 
z
M 628 4666 
L 1925 4666 
Q 3281 4666 3915 4102 
Q 4550 3538 4550 2338 
Q 4550 1131 3912 565 
Q 3275 0 1925 0 
L 628 0 
L 628 4666 
z
" transform="scale(0.015625)"/>
       <path id="DejaVuSans-72" d="M 2631 2963 
Q 2534 3019 2420 3045 
Q 2306 3072 2169 3072 
Q 1681 3072 1420 2755 
Q 1159 2438 1159 1844 
L 1159 0 
L 581 0 
L 581 3500 
L 1159 3500 
L 1159 2956 
Q 1341 3275 1631 3429 
Q 1922 3584 2338 3584 
Q 2397 3584 2469 3576 
Q 2541 3569 2628 3553 
L 2631 2963 
z
" transform="scale(0.015625)"/>
      </defs>
      <use xlink:href="#DejaVuSans-44"/>
      <use xlink:href="#DejaVuSans-72" x="77.001953"/>
      <use xlink:href="#DejaVuSans-6f" x="115.865234"/>
      <use xlink:href="#DejaVuSans-6e" x="177.046875"/>
      <use xlink:href="#DejaVuSans-65" x="240.425781"/>
      <use xlink:href="#DejaVuSans-20" x="301.949219"/>
      <use xlink:href="#DejaVuSans-7a" x="333.736328"/>
      <use xlink:href="#DejaVuSans-20" x="386.226562"/>
      <use xlink:href="#DejaVuSans-6d" x="418.013672"/>
      <use xlink:href="#DejaVuSans-6f" x="515.425781"/>
      <use xlink:href="#DejaVuSans-76" x="576.607422"/>
      <use xlink:href="#DejaVuSans-65" x="635.787109"/>
      <use xlink:href="#DejaVuSans-6d" x="697.310547"/>
      <use xlink:href="#DejaVuSans-65" x="794.722656"/>
      <use xlink:href="#DejaVuSans-6e" x="856.246094"/>
      <use xlink:href="#DejaVuSans-74" x="919.625"/>
     </g>
    </g>
    <g id="line2d_31">
     <path d="M 65 54.656563 
L 75 54.656563 
L 85 54.656563 
" style="fill: none; stroke-dasharray: 5.55,2.4; stroke-dashoffset: 0; stroke: #0000ff; stroke-width: 1.5"/>
    </g>
    <g id="text_18">
     <!-- Payload z movement -->
     <g transform="translate(93 58.156563)scale(0.1 -0.1)">
      <defs>
       <path id="DejaVuSans-50" d="M 1259 4147 
L 1259 2394 
L 2053 2394 
Q 2494 2394 2734 2622 
Q 2975 2850 2975 3272 
Q 2975 3691 2734 3919 
Q 2494 4147 2053 4147 
L 1259 4147 
z
M 628 4666 
L 2053 4666 
Q 2838 4666 3239 4311 
Q 3641 3956 3641 3272 
Q 3641 2581 3239 2228 
Q 2838 1875 2053 1875 
L 1259 1875 
L 1259 0 
L 628 0 
L 628 4666 
z
" transform="scale(0.015625)"/>
      </defs>
      <use xlink:href="#DejaVuSans-50"/>
      <use xlink:href="#DejaVuSans-61" x="55.802734"/>
      <use xlink:href="#DejaVuSans-79" x="117.082031"/>
      <use xlink:href="#DejaVuSans-6c" x="176.261719"/>
      <use xlink:href="#DejaVuSans-6f" x="204.044922"/>
      <use xlink:href="#DejaVuSans-61" x="265.226562"/>
      <use xlink:href="#DejaVuSans-64" x="326.505859"/>
      <use xlink:href="#DejaVuSans-20" x="389.982422"/>
      <use xlink:href="#DejaVuSans-7a" x="421.769531"/>
      <use xlink:href="#DejaVuSans-20" x="474.259766"/>
      <use xlink:href="#DejaVuSans-6d" x="506.046875"/>
      <use xlink:href="#DejaVuSans-6f" x="603.458984"/>
      <use xlink:href="#DejaVuSans-76" x="664.640625"/>
      <use xlink:href="#DejaVuSans-65" x="723.820312"/>
      <use xlink:href="#DejaVuSans-6d" x="785.34375"/>
      <use xlink:href="#DejaVuSans-65" x="882.755859"/>
      <use xlink:href="#DejaVuSans-6e" x="944.279297"/>
      <use xlink:href="#DejaVuSans-74" x="1007.658203"/>
     </g>
    </g>
    <g id="line2d_32">
     <path d="M 65 69.334687 
L 75 69.334687 
L 85 69.334687 
" style="fill: none; stroke-dasharray: 1.5,2.475; stroke-dashoffset: 0; stroke: #000000; stroke-width: 1.5"/>
    </g>
    <g id="text_19">
     <!-- Drone z-reference -->
     <g transform="translate(93 72.834687)scale(0.1 -0.1)">
      <defs>
       <path id="DejaVuSans-66" d="M 2375 4863 
L 2375 4384 
L 1825 4384 
Q 1516 4384 1395 4259 
Q 1275 4134 1275 3809 
L 1275 3500 
L 2222 3500 
L 2222 3053 
L 1275 3053 
L 1275 0 
L 697 0 
L 697 3053 
L 147 3053 
L 147 3500 
L 697 3500 
L 697 3744 
Q 697 4328 969 4595 
Q 1241 4863 1831 4863 
L 2375 4863 
z
" transform="scale(0.015625)"/>
       <path id="DejaVuSans-63" d="M 3122 3366 
L 3122 2828 
Q 2878 2963 2633 3030 
Q 2388 3097 2138 3097 
Q 1578 3097 1268 2742 
Q 959 2388 959 1747 
Q 959 1106 1268 751 
Q 1578 397 2138 397 
Q 2388 397 2633 464 
Q 2878 531 3122 666 
L 3122 134 
Q 2881 22 2623 -34 
Q 2366 -91 2075 -91 
Q 1284 -91 818 406 
Q 353 903 353 1747 
Q 353 2603 823 3093 
Q 1294 3584 2113 3584 
Q 2378 3584 2631 3529 
Q 2884 3475 3122 3366 
z
" transform="scale(0.015625)"/>
      </defs>
      <use xlink:href="#DejaVuSans-44"/>
      <use xlink:href="#DejaVuSans-72" x="77.001953"/>
      <use xlink:href="#DejaVuSans-6f" x="115.865234"/>
      <use xlink:href="#DejaVuSans-6e" x="177.046875"/>
      <use xlink:href="#DejaVuSans-65" x="240.425781"/>
      <use xlink:href="#DejaVuSans-20" x="301.949219"/>
      <use xlink:href="#DejaVuSans-7a" x="333.736328"/>
      <use xlink:href="#DejaVuSans-2d" x="386.226562"/>
      <use xlink:href="#DejaVuSans-72" x="422.310547"/>
      <use xlink:href="#DejaVuSans-65" x="461.173828"/>
      <use xlink:href="#DejaVuSans-66" x="522.697266"/>
      <use xlink:href="#DejaVuSans-65" x="557.902344"/>
      <use xlink:href="#DejaVuSans-72" x="619.425781"/>
      <use xlink:href="#DejaVuSans-65" x="658.289062"/>
      <use xlink:href="#DejaVuSans-6e" x="719.8125"/>
      <use xlink:href="#DejaVuSans-63" x="783.191406"/>
      <use xlink:href="#DejaVuSans-65" x="838.171875"/>
     </g>
    </g>
   </g>
  </g>
 </g>
 <defs>
  <clipPath id="pbe0a282122">
   <rect x="56" y="26.88" width="394" height="276.76"/>
  </clipPath>
 </defs>
</svg>
