<?xml version="1.0" encoding="utf-8" standalone="no"?>
<!DOCTYPE svg PUBLIC "-//W3C//DTD SVG 1.1//EN"
  "http://www.w3.org/Graphics/SVG/1.1/DTD/svg11.dtd">
<svg xmlns:xlink="http://www.w3.org/1999/xlink" width="460.8pt" height="345.6pt" viewBox="0 0 460.8 345.6" xmlns="http://www.w3.org/2000/svg" version="1.1">
 <metadata>
  <rdf:RDF xmlns:dc="http://purl.org/dc/elements/1.1/" xmlns:cc="http://creativecommons.org/ns#" xmlns:rdf="http://www.w3.org/1999/02/22-rdf-syntax-ns#">
   <cc:Work>
    <dc:type rdf:resource="http://purl.org/dc/dcmitype/StillImage"/>
    <dc:date>2022-03-30T11:54:54.159189</dc:date>
    <dc:format>image/svg+xml</dc:format>
    <dc:creator>
     <cc:Agent>
      <dc:title>Matplotlib v3.5.1, https://matplotlib.org/</dc:title>
     </cc:Agent>
    </dc:creator>
   </cc:Work>
  </rdf:RDF>
 </metadata>
 <defs>
  <style type="text/css">*{stroke-linejoin: round; stroke-linecap: butt}</style>
 </defs>
 <g id="figure_1">
  <g id="patch_1">
   <path d="M 0 345.6 
L 460.8 345.6 
L 460.8 0 
L 0 0 
z
" style="fill: #ffffff"/>
  </g>
  <g id="axes_1">
   <g id="patch_2">
    <path d="M 38.27 260.305043 
L 450 260.305043 
L 450 85.294957 
L 38.27 85.294957 
z
" style="fill: #ffffff"/>
   </g>
   <g id="matplotlib.axis_1">
    <g id="xtick_1">
     <g id="line2d_1">
      <path d="M 67.484297 260.305043 
L 67.484297 85.294957 
" clip-path="url(#p24d3bbb0d8)" style="fill: none; stroke: #b0b0b0; stroke-width: 0.8; stroke-linecap: square"/>
     </g>
     <g id="line2d_2">
      <defs>
       <path id="m6634cbb995" d="M 0 0 
L 0 3.5 
" style="stroke: #000000; stroke-width: 0.8"/>
      </defs>
      <g>
       <use xlink:href="#m6634cbb995" x="67.484297" y="260.305043" style="stroke: #000000; stroke-width: 0.8"/>
      </g>
     </g>
     <g id="text_1">
      <!-- 0 -->
      <g transform="translate(64.303047 274.903481)scale(0.1 -0.1)">
       <defs>
        <path id="DejaVuSans-30" d="M 2034 4250 
Q 1547 4250 1301 3770 
Q 1056 3291 1056 2328 
Q 1056 1369 1301 889 
Q 1547 409 2034 409 
Q 2525 409 2770 889 
Q 3016 1369 3016 2328 
Q 3016 3291 2770 3770 
Q 2525 4250 2034 4250 
z
M 2034 4750 
Q 2819 4750 3233 4129 
Q 3647 3509 3647 2328 
Q 3647 1150 3233 529 
Q 2819 -91 2034 -91 
Q 1250 -91 836 529 
Q 422 1150 422 2328 
Q 422 3509 836 4129 
Q 1250 4750 2034 4750 
z
" transform="scale(0.015625)"/>
       </defs>
       <use xlink:href="#DejaVuSans-30"/>
      </g>
     </g>
    </g>
    <g id="xtick_2">
     <g id="line2d_3">
      <path d="M 137.488331 260.305043 
L 137.488331 85.294957 
" clip-path="url(#p24d3bbb0d8)" style="fill: none; stroke: #b0b0b0; stroke-width: 0.8; stroke-linecap: square"/>
     </g>
     <g id="line2d_4">
      <g>
       <use xlink:href="#m6634cbb995" x="137.488331" y="260.305043" style="stroke: #000000; stroke-width: 0.8"/>
      </g>
     </g>
     <g id="text_2">
      <!-- 2 -->
      <g transform="translate(134.307081 274.903481)scale(0.1 -0.1)">
       <defs>
        <path id="DejaVuSans-32" d="M 1228 531 
L 3431 531 
L 3431 0 
L 469 0 
L 469 531 
Q 828 903 1448 1529 
Q 2069 2156 2228 2338 
Q 2531 2678 2651 2914 
Q 2772 3150 2772 3378 
Q 2772 3750 2511 3984 
Q 2250 4219 1831 4219 
Q 1534 4219 1204 4116 
Q 875 4013 500 3803 
L 500 4441 
Q 881 4594 1212 4672 
Q 1544 4750 1819 4750 
Q 2544 4750 2975 4387 
Q 3406 4025 3406 3419 
Q 3406 3131 3298 2873 
Q 3191 2616 2906 2266 
Q 2828 2175 2409 1742 
Q 1991 1309 1228 531 
z
" transform="scale(0.015625)"/>
       </defs>
       <use xlink:href="#DejaVuSans-32"/>
      </g>
     </g>
    </g>
    <g id="xtick_3">
     <g id="line2d_5">
      <path d="M 207.492366 260.305043 
L 207.492366 85.294957 
" clip-path="url(#p24d3bbb0d8)" style="fill: none; stroke: #b0b0b0; stroke-width: 0.8; stroke-linecap: square"/>
     </g>
     <g id="line2d_6">
      <g>
       <use xlink:href="#m6634cbb995" x="207.492366" y="260.305043" style="stroke: #000000; stroke-width: 0.8"/>
      </g>
     </g>
     <g id="text_3">
      <!-- 4 -->
      <g transform="translate(204.311116 274.903481)scale(0.1 -0.1)">
       <defs>
        <path id="DejaVuSans-34" d="M 2419 4116 
L 825 1625 
L 2419 1625 
L 2419 4116 
z
M 2253 4666 
L 3047 4666 
L 3047 1625 
L 3713 1625 
L 3713 1100 
L 3047 1100 
L 3047 0 
L 2419 0 
L 2419 1100 
L 313 1100 
L 313 1709 
L 2253 4666 
z
" transform="scale(0.015625)"/>
       </defs>
       <use xlink:href="#DejaVuSans-34"/>
      </g>
     </g>
    </g>
    <g id="xtick_4">
     <g id="line2d_7">
      <path d="M 277.4964 260.305043 
L 277.4964 85.294957 
" clip-path="url(#p24d3bbb0d8)" style="fill: none; stroke: #b0b0b0; stroke-width: 0.8; stroke-linecap: square"/>
     </g>
     <g id="line2d_8">
      <g>
       <use xlink:href="#m6634cbb995" x="277.4964" y="260.305043" style="stroke: #000000; stroke-width: 0.8"/>
      </g>
     </g>
     <g id="text_4">
      <!-- 6 -->
      <g transform="translate(274.31515 274.903481)scale(0.1 -0.1)">
       <defs>
        <path id="DejaVuSans-36" d="M 2113 2584 
Q 1688 2584 1439 2293 
Q 1191 2003 1191 1497 
Q 1191 994 1439 701 
Q 1688 409 2113 409 
Q 2538 409 2786 701 
Q 3034 994 3034 1497 
Q 3034 2003 2786 2293 
Q 2538 2584 2113 2584 
z
M 3366 4563 
L 3366 3988 
Q 3128 4100 2886 4159 
Q 2644 4219 2406 4219 
Q 1781 4219 1451 3797 
Q 1122 3375 1075 2522 
Q 1259 2794 1537 2939 
Q 1816 3084 2150 3084 
Q 2853 3084 3261 2657 
Q 3669 2231 3669 1497 
Q 3669 778 3244 343 
Q 2819 -91 2113 -91 
Q 1303 -91 875 529 
Q 447 1150 447 2328 
Q 447 3434 972 4092 
Q 1497 4750 2381 4750 
Q 2619 4750 2861 4703 
Q 3103 4656 3366 4563 
z
" transform="scale(0.015625)"/>
       </defs>
       <use xlink:href="#DejaVuSans-36"/>
      </g>
     </g>
    </g>
    <g id="xtick_5">
     <g id="line2d_9">
      <path d="M 347.500435 260.305043 
L 347.500435 85.294957 
" clip-path="url(#p24d3bbb0d8)" style="fill: none; stroke: #b0b0b0; stroke-width: 0.8; stroke-linecap: square"/>
     </g>
     <g id="line2d_10">
      <g>
       <use xlink:href="#m6634cbb995" x="347.500435" y="260.305043" style="stroke: #000000; stroke-width: 0.8"/>
      </g>
     </g>
     <g id="text_5">
      <!-- 8 -->
      <g transform="translate(344.319185 274.903481)scale(0.1 -0.1)">
       <defs>
        <path id="DejaVuSans-38" d="M 2034 2216 
Q 1584 2216 1326 1975 
Q 1069 1734 1069 1313 
Q 1069 891 1326 650 
Q 1584 409 2034 409 
Q 2484 409 2743 651 
Q 3003 894 3003 1313 
Q 3003 1734 2745 1975 
Q 2488 2216 2034 2216 
z
M 1403 2484 
Q 997 2584 770 2862 
Q 544 3141 544 3541 
Q 544 4100 942 4425 
Q 1341 4750 2034 4750 
Q 2731 4750 3128 4425 
Q 3525 4100 3525 3541 
Q 3525 3141 3298 2862 
Q 3072 2584 2669 2484 
Q 3125 2378 3379 2068 
Q 3634 1759 3634 1313 
Q 3634 634 3220 271 
Q 2806 -91 2034 -91 
Q 1263 -91 848 271 
Q 434 634 434 1313 
Q 434 1759 690 2068 
Q 947 2378 1403 2484 
z
M 1172 3481 
Q 1172 3119 1398 2916 
Q 1625 2713 2034 2713 
Q 2441 2713 2670 2916 
Q 2900 3119 2900 3481 
Q 2900 3844 2670 4047 
Q 2441 4250 2034 4250 
Q 1625 4250 1398 4047 
Q 1172 3844 1172 3481 
z
" transform="scale(0.015625)"/>
       </defs>
       <use xlink:href="#DejaVuSans-38"/>
      </g>
     </g>
    </g>
    <g id="xtick_6">
     <g id="line2d_11">
      <path d="M 417.504469 260.305043 
L 417.504469 85.294957 
" clip-path="url(#p24d3bbb0d8)" style="fill: none; stroke: #b0b0b0; stroke-width: 0.8; stroke-linecap: square"/>
     </g>
     <g id="line2d_12">
      <g>
       <use xlink:href="#m6634cbb995" x="417.504469" y="260.305043" style="stroke: #000000; stroke-width: 0.8"/>
      </g>
     </g>
     <g id="text_6">
      <!-- 10 -->
      <g transform="translate(411.141969 274.903481)scale(0.1 -0.1)">
       <defs>
        <path id="DejaVuSans-31" d="M 794 531 
L 1825 531 
L 1825 4091 
L 703 3866 
L 703 4441 
L 1819 4666 
L 2450 4666 
L 2450 531 
L 3481 531 
L 3481 0 
L 794 0 
L 794 531 
z
" transform="scale(0.015625)"/>
       </defs>
       <use xlink:href="#DejaVuSans-31"/>
       <use xlink:href="#DejaVuSans-30" x="63.623047"/>
      </g>
     </g>
    </g>
    <g id="text_7">
     <!-- x -->
     <g transform="translate(241.175625 288.581606)scale(0.1 -0.1)">
      <defs>
       <path id="DejaVuSans-78" d="M 3513 3500 
L 2247 1797 
L 3578 0 
L 2900 0 
L 1881 1375 
L 863 0 
L 184 0 
L 1544 1831 
L 300 3500 
L 978 3500 
L 1906 2253 
L 2834 3500 
L 3513 3500 
z
" transform="scale(0.015625)"/>
      </defs>
      <use xlink:href="#DejaVuSans-78"/>
     </g>
    </g>
   </g>
   <g id="matplotlib.axis_2">
    <g id="ytick_1">
     <g id="line2d_13">
      <path d="M 38.27 260.305043 
L 450 260.305043 
" clip-path="url(#p24d3bbb0d8)" style="fill: none; stroke: #b0b0b0; stroke-width: 0.8; stroke-linecap: square"/>
     </g>
     <g id="line2d_14">
      <defs>
       <path id="m8b90c6cfa0" d="M 0 0 
L -3.5 0 
" style="stroke: #000000; stroke-width: 0.8"/>
      </defs>
      <g>
       <use xlink:href="#m8b90c6cfa0" x="38.27" y="260.305043" style="stroke: #000000; stroke-width: 0.8"/>
      </g>
     </g>
     <g id="text_8">
      <!-- 0 -->
      <g transform="translate(24.9075 264.104262)scale(0.1 -0.1)">
       <use xlink:href="#DejaVuSans-30"/>
      </g>
     </g>
    </g>
    <g id="ytick_2">
     <g id="line2d_15">
      <path d="M 38.27 225.303026 
L 450 225.303026 
" clip-path="url(#p24d3bbb0d8)" style="fill: none; stroke: #b0b0b0; stroke-width: 0.8; stroke-linecap: square"/>
     </g>
     <g id="line2d_16">
      <g>
       <use xlink:href="#m8b90c6cfa0" x="38.27" y="225.303026" style="stroke: #000000; stroke-width: 0.8"/>
      </g>
     </g>
     <g id="text_9">
      <!-- 1 -->
      <g transform="translate(24.9075 229.102245)scale(0.1 -0.1)">
       <use xlink:href="#DejaVuSans-31"/>
      </g>
     </g>
    </g>
    <g id="ytick_3">
     <g id="line2d_17">
      <path d="M 38.27 190.301009 
L 450 190.301009 
" clip-path="url(#p24d3bbb0d8)" style="fill: none; stroke: #b0b0b0; stroke-width: 0.8; stroke-linecap: square"/>
     </g>
     <g id="line2d_18">
      <g>
       <use xlink:href="#m8b90c6cfa0" x="38.27" y="190.301009" style="stroke: #000000; stroke-width: 0.8"/>
      </g>
     </g>
     <g id="text_10">
      <!-- 2 -->
      <g transform="translate(24.9075 194.100227)scale(0.1 -0.1)">
       <use xlink:href="#DejaVuSans-32"/>
      </g>
     </g>
    </g>
    <g id="ytick_4">
     <g id="line2d_19">
      <path d="M 38.27 155.298991 
L 450 155.298991 
" clip-path="url(#p24d3bbb0d8)" style="fill: none; stroke: #b0b0b0; stroke-width: 0.8; stroke-linecap: square"/>
     </g>
     <g id="line2d_20">
      <g>
       <use xlink:href="#m8b90c6cfa0" x="38.27" y="155.298991" style="stroke: #000000; stroke-width: 0.8"/>
      </g>
     </g>
     <g id="text_11">
      <!-- 3 -->
      <g transform="translate(24.9075 159.09821)scale(0.1 -0.1)">
       <defs>
        <path id="DejaVuSans-33" d="M 2597 2516 
Q 3050 2419 3304 2112 
Q 3559 1806 3559 1356 
Q 3559 666 3084 287 
Q 2609 -91 1734 -91 
Q 1441 -91 1130 -33 
Q 819 25 488 141 
L 488 750 
Q 750 597 1062 519 
Q 1375 441 1716 441 
Q 2309 441 2620 675 
Q 2931 909 2931 1356 
Q 2931 1769 2642 2001 
Q 2353 2234 1838 2234 
L 1294 2234 
L 1294 2753 
L 1863 2753 
Q 2328 2753 2575 2939 
Q 2822 3125 2822 3475 
Q 2822 3834 2567 4026 
Q 2313 4219 1838 4219 
Q 1578 4219 1281 4162 
Q 984 4106 628 3988 
L 628 4550 
Q 988 4650 1302 4700 
Q 1616 4750 1894 4750 
Q 2613 4750 3031 4423 
Q 3450 4097 3450 3541 
Q 3450 3153 3228 2886 
Q 3006 2619 2597 2516 
z
" transform="scale(0.015625)"/>
       </defs>
       <use xlink:href="#DejaVuSans-33"/>
      </g>
     </g>
    </g>
    <g id="ytick_5">
     <g id="line2d_21">
      <path d="M 38.27 120.296974 
L 450 120.296974 
" clip-path="url(#p24d3bbb0d8)" style="fill: none; stroke: #b0b0b0; stroke-width: 0.8; stroke-linecap: square"/>
     </g>
     <g id="line2d_22">
      <g>
       <use xlink:href="#m8b90c6cfa0" x="38.27" y="120.296974" style="stroke: #000000; stroke-width: 0.8"/>
      </g>
     </g>
     <g id="text_12">
      <!-- 4 -->
      <g transform="translate(24.9075 124.096193)scale(0.1 -0.1)">
       <use xlink:href="#DejaVuSans-34"/>
      </g>
     </g>
    </g>
    <g id="ytick_6">
     <g id="line2d_23">
      <path d="M 38.27 85.294957 
L 450 85.294957 
" clip-path="url(#p24d3bbb0d8)" style="fill: none; stroke: #b0b0b0; stroke-width: 0.8; stroke-linecap: square"/>
     </g>
     <g id="line2d_24">
      <g>
       <use xlink:href="#m8b90c6cfa0" x="38.27" y="85.294957" style="stroke: #000000; stroke-width: 0.8"/>
      </g>
     </g>
     <g id="text_13">
      <!-- 5 -->
      <g transform="translate(24.9075 89.094176)scale(0.1 -0.1)">
       <defs>
        <path id="DejaVuSans-35" d="M 691 4666 
L 3169 4666 
L 3169 4134 
L 1269 4134 
L 1269 2991 
Q 1406 3038 1543 3061 
Q 1681 3084 1819 3084 
Q 2600 3084 3056 2656 
Q 3513 2228 3513 1497 
Q 3513 744 3044 326 
Q 2575 -91 1722 -91 
Q 1428 -91 1123 -41 
Q 819 9 494 109 
L 494 744 
Q 775 591 1075 516 
Q 1375 441 1709 441 
Q 2250 441 2565 725 
Q 2881 1009 2881 1497 
Q 2881 1984 2565 2268 
Q 2250 2553 1709 2553 
Q 1456 2553 1204 2497 
Q 953 2441 691 2322 
L 691 4666 
z
" transform="scale(0.015625)"/>
       </defs>
       <use xlink:href="#DejaVuSans-35"/>
      </g>
     </g>
    </g>
    <g id="text_14">
     <!-- z -->
     <g transform="translate(18.827813 175.424219)rotate(-90)scale(0.1 -0.1)">
      <defs>
       <path id="DejaVuSans-7a" d="M 353 3500 
L 3084 3500 
L 3084 2975 
L 922 459 
L 3084 459 
L 3084 0 
L 275 0 
L 275 525 
L 2438 3041 
L 353 3041 
L 353 3500 
z
" transform="scale(0.015625)"/>
      </defs>
      <use xlink:href="#DejaVuSans-7a"/>
     </g>
    </g>
   </g>
   <g id="line2d_25">
    <defs>
     <path id="mb708490d72" d="M 0 3 
C 0.795609 3 1.55874 2.683901 2.12132 2.12132 
C 2.683901 1.55874 3 0.795609 3 0 
C 3 -0.795609 2.683901 -1.55874 2.12132 -2.12132 
C 1.55874 -2.683901 0.795609 -3 0 -3 
C -0.795609 -3 -1.55874 -2.683901 -2.12132 -2.12132 
C -2.683901 -1.55874 -3 -0.795609 -3 0 
C -3 0.795609 -2.683901 1.55874 -2.12132 2.12132 
C -1.55874 2.683901 -0.795609 3 0 3 
z
" style="stroke: #000000"/>
    </defs>
    <g clip-path="url(#p24d3bbb0d8)">
     <use xlink:href="#mb708490d72" x="67.484297" y="155.298991" style="fill-opacity: 0; stroke: #000000"/>
    </g>
   </g>
   <g id="line2d_26">
    <path d="M 77.984902 155.298991 
L 77.854322 153.648149 
L 77.465831 152.038364 
L 76.829089 150.509674 
L 75.959935 149.100099 
L 74.879983 147.844696 
L 73.616095 146.774687 
L 72.199703 145.916686 
L 70.666034 145.292031 
L 69.053233 144.916258 
L 67.401412 144.798713 
L 65.751651 144.94232 
L 64.144983 145.343506 
L 62.621367 145.992294 
L 61.218696 146.872547 
L 59.971856 147.962375 
L 58.911858 149.23467 
L 58.065063 150.65779 
L 57.452534 152.196341 
L 57.089503 153.812058 
L 56.985 155.464756 
L 57.141624 157.113332 
L 57.55548 158.716783 
L 58.216274 160.235231 
L 59.107572 161.63091 
L 60.207207 162.869108 
L 61.487829 163.919031 
L 62.91759 164.754566 
L 64.460928 165.354932 
L 66.07946 165.705198 
L 67.732931 165.796653 
L 69.380219 165.627021 
L 70.980354 165.200521 
L 72.493538 164.527762 
L 73.882139 163.625475 
L 75.111619 162.516101 
L 76.1514 161.227231 
L 76.975624 159.79092 
L 77.563789 158.242891 
L 77.901268 156.621644 
L 77.984902 155.298991 
L 77.984902 155.298991 
" clip-path="url(#p24d3bbb0d8)" style="fill: none; stroke-dasharray: 2,3.3; stroke-dashoffset: 0; stroke: #000000; stroke-width: 2"/>
   </g>
   <g id="line2d_27">
    <g clip-path="url(#p24d3bbb0d8)">
     <use xlink:href="#mb708490d72" x="417.504469" y="155.298991" style="fill-opacity: 0; stroke: #000000"/>
    </g>
   </g>
   <g id="line2d_28">
    <path d="M 428.005075 155.298991 
L 427.874495 153.648149 
L 427.486003 152.038364 
L 426.849262 150.509674 
L 425.980107 149.100099 
L 424.900156 147.844696 
L 423.636267 146.774687 
L 422.219875 145.916686 
L 420.686207 145.292031 
L 419.073406 144.916258 
L 417.421584 144.798713 
L 415.771824 144.94232 
L 414.165156 145.343506 
L 412.64154 145.992294 
L 411.238869 146.872547 
L 409.992029 147.962375 
L 408.93203 149.23467 
L 408.085236 150.65779 
L 407.472706 152.196341 
L 407.109676 153.812058 
L 407.005173 155.464756 
L 407.161797 157.113332 
L 407.575652 158.716783 
L 408.236446 160.235231 
L 409.127745 161.63091 
L 410.22738 162.869108 
L 411.508002 163.919031 
L 412.937762 164.754566 
L 414.4811 165.354932 
L 416.099632 165.705198 
L 417.753104 165.796653 
L 419.400392 165.627021 
L 421.000527 165.200521 
L 422.513711 164.527762 
L 423.902311 163.625475 
L 425.131791 162.516101 
L 426.171573 161.227231 
L 426.995796 159.79092 
L 427.583962 158.242891 
L 427.921441 156.621644 
L 428.005075 155.298991 
L 428.005075 155.298991 
" clip-path="url(#p24d3bbb0d8)" style="fill: none; stroke-dasharray: 2,3.3; stroke-dashoffset: 0; stroke: #000000; stroke-width: 2"/>
   </g>
   <g id="line2d_29">
    <g clip-path="url(#p24d3bbb0d8)">
     <use xlink:href="#mb708490d72" x="67.484297" y="155.298991" style="fill-opacity: 0; stroke: #000000"/>
    </g>
   </g>
   <g id="line2d_30">
    <path d="M 77.984902 155.298991 
L 77.854322 153.648149 
L 77.465831 152.038364 
L 76.829089 150.509674 
L 75.959935 149.100099 
L 74.879983 147.844696 
L 73.616095 146.774687 
L 72.199703 145.916686 
L 70.666034 145.292031 
L 69.053233 144.916258 
L 67.401412 144.798713 
L 65.751651 144.94232 
L 64.144983 145.343506 
L 62.621367 145.992294 
L 61.218696 146.872547 
L 59.971856 147.962375 
L 58.911858 149.23467 
L 58.065063 150.65779 
L 57.452534 152.196341 
L 57.089503 153.812058 
L 56.985 155.464756 
L 57.141624 157.113332 
L 57.55548 158.716783 
L 58.216274 160.235231 
L 59.107572 161.63091 
L 60.207207 162.869108 
L 61.487829 163.919031 
L 62.91759 164.754566 
L 64.460928 165.354932 
L 66.07946 165.705198 
L 67.732931 165.796653 
L 69.380219 165.627021 
L 70.980354 165.200521 
L 72.493538 164.527762 
L 73.882139 163.625475 
L 75.111619 162.516101 
L 76.1514 161.227231 
L 76.975624 159.79092 
L 77.563789 158.242891 
L 77.901268 156.621644 
L 77.984902 155.298991 
L 77.984902 155.298991 
" clip-path="url(#p24d3bbb0d8)" style="fill: none; stroke-dasharray: 2,3.3; stroke-dashoffset: 0; stroke: #000000; stroke-width: 2"/>
   </g>
   <g id="line2d_31">
    <path d="M 67.488916 258.397479 
L 67.489038 258.397475 
L 67.486022 258.382039 
L 66.728405 251.473882 
L 65.916535 235.647355 
L 66.092757 228.055905 
L 65.674649 225.548375 
L 64.19437 219.120806 
L 63.90025 216.773628 
L 63.869285 214.439283 
L 64.216543 203.936858 
L 64.455241 201.827702 
L 65.664623 195.845559 
L 65.887384 193.8181 
L 66.206071 189.548513 
L 66.979789 186.270068 
L 69.162427 178.793999 
L 70.54559 175.397667 
L 71.701954 171.186001 
L 72.312971 169.293881 
L 73.129383 165.225783 
L 73.063214 163.97487 
L 72.853228 161.598748 
L 72.980037 161.432697 
L 73.913028 161.335026 
L 85.203955 161.834776 
L 89.570943 161.838068 
L 95.004474 161.5804 
L 112.515221 159.876622 
L 120.160788 159.343996 
L 142.224329 158.117428 
L 164.157794 157.250755 
L 195.231825 156.53809 
L 221.621149 155.921197 
L 236.878754 155.527159 
L 258.249658 155.127704 
L 271.539282 155.123272 
L 326.594203 155.827619 
L 339.294848 155.680689 
L 357.487738 155.210078 
L 369.184517 155.141874 
L 378.418683 155.252585 
L 394.243789 155.72177 
L 412.223229 156.471158 
L 415.529346 156.73853 
L 418.001105 157.050092 
L 419.998302 157.598404 
L 420.338686 157.821783 
L 419.92735 157.87341 
L 416.37436 157.701467 
L 407.442317 157.220547 
L 389.28919 156.429595 
L 369.175491 155.819263 
L 337.763401 154.967878 
L 301.358303 153.96634 
L 253.6321 153.1355 
L 223.242114 152.521358 
L 162.727062 150.797772 
L 140.55159 150.129125 
L 114.863693 148.986311 
L 91.505541 148.01908 
L 78.617701 147.546981 
L 71.885212 147.102857 
L 71.885212 147.102857 
" clip-path="url(#p24d3bbb0d8)" style="fill: none; stroke: #ff0000; stroke-width: 1.5; stroke-linecap: square"/>
   </g>
   <g id="line2d_32">
    <path d="M 72.932212 258.564905 
L 70.022627 258.476195 
L 65.158447 255.136474 
L 63.710462 252.090238 
L 63.466721 250.24891 
L 63.982561 247.910192 
L 63.998472 245.225477 
L 63.420596 242.941028 
L 62.081523 238.940487 
L 62.236028 236.401738 
L 63.259299 234.482762 
L 65.000556 232.136541 
L 66.13899 229.475038 
L 66.15368 227.196012 
L 64.468097 224.037155 
L 63.651577 221.734923 
L 63.622909 219.793362 
L 64.958791 215.891902 
L 65.287748 213.848067 
L 65.055752 211.460788 
L 65.028893 209.576227 
L 65.682577 207.900447 
L 68.225326 204.864138 
L 69.054847 203.274432 
L 69.172622 201.936592 
L 68.837116 200.098138 
L 68.939912 198.883721 
L 69.500317 197.693426 
L 70.282904 196.479751 
L 70.753507 195.497582 
L 70.951155 194.062205 
L 70.869496 193.100428 
L 71.027969 192.091272 
L 71.516453 191.332338 
L 72.262137 190.568815 
L 73.151794 189.394511 
L 73.286651 188.716977 
L 72.942662 187.370404 
L 73.085588 186.489787 
L 73.554027 185.371153 
L 73.514557 184.861361 
L 72.808495 183.656005 
L 72.720801 183.195003 
L 73.1011 181.746586 
L 72.449489 181.35862 
L 72.473432 181.031971 
L 73.298102 179.536911 
L 75.506365 178.041173 
L 80.64209 177.081245 
L 86.947348 177.636349 
L 96.099809 178.99746 
L 107.030787 179.5097 
L 133.654012 178.607693 
L 142.457843 178.280283 
L 160.730223 177.212148 
L 175.480424 176.165977 
L 209.143295 173.007938 
L 225.154781 172.481339 
L 251.361818 174.248315 
L 270.009284 175.251127 
L 289.498163 174.93247 
L 339.99139 172.677628 
L 352.785808 172.330847 
L 369.545713 172.664528 
L 379.15682 173.424643 
L 385.93843 174.444528 
L 391.849692 175.191237 
L 397.519556 175.365603 
L 407.164173 175.941989 
L 413.735766 175.902688 
L 419.382468 175.629922 
L 427.199262 175.772611 
L 431.25287 175.895338 
L 431.285 175.772823 
L 429.753791 175.571298 
L 426.123491 175.929645 
L 421.045289 176.77217 
L 405.130981 176.774017 
L 399.882069 176.600437 
L 387.760224 175.682964 
L 357.419823 174.383663 
L 335.024441 173.532779 
L 321.466757 173.241956 
L 307.495918 173.432972 
L 285.011638 173.503403 
L 268.6145 173.253424 
L 255.344017 173.17961 
L 240.998649 172.907281 
L 224.902016 172.4443 
L 185.218991 171.486443 
L 170.420264 170.691024 
L 154.015032 169.495227 
L 141.123417 168.753689 
L 95.251214 166.869981 
L 88.97859 167.00379 
L 83.993232 167.285355 
L 77.596887 167.339387 
L 69.327337 167.00049 
L 65.626566 166.621358 
L 65.626566 166.621358 
" clip-path="url(#p24d3bbb0d8)" style="fill: none; stroke-dasharray: 1.5,2.475; stroke-dashoffset: 0; stroke: #0000ff; stroke-width: 1.5"/>
   </g>
   <g id="patch_3">
    <path d="M 38.27 260.305043 
L 38.27 85.294957 
" style="fill: none; stroke: #000000; stroke-width: 0.8; stroke-linejoin: miter; stroke-linecap: square"/>
   </g>
   <g id="patch_4">
    <path d="M 450 260.305043 
L 450 85.294957 
" style="fill: none; stroke: #000000; stroke-width: 0.8; stroke-linejoin: miter; stroke-linecap: square"/>
   </g>
   <g id="patch_5">
    <path d="M 38.27 260.305043 
L 450 260.305043 
" style="fill: none; stroke: #000000; stroke-width: 0.8; stroke-linejoin: miter; stroke-linecap: square"/>
   </g>
   <g id="patch_6">
    <path d="M 38.27 85.294957 
L 450 85.294957 
" style="fill: none; stroke: #000000; stroke-width: 0.8; stroke-linejoin: miter; stroke-linecap: square"/>
   </g>
   <g id="text_15">
    <!-- Trajectory of drone with slung payload in xz -->
    <g transform="translate(113.109063 79.294957)scale(0.12 -0.12)">
     <defs>
      <path id="DejaVuSans-54" d="M -19 4666 
L 3928 4666 
L 3928 4134 
L 2272 4134 
L 2272 0 
L 1638 0 
L 1638 4134 
L -19 4134 
L -19 4666 
z
" transform="scale(0.015625)"/>
      <path id="DejaVuSans-72" d="M 2631 2963 
Q 2534 3019 2420 3045 
Q 2306 3072 2169 3072 
Q 1681 3072 1420 2755 
Q 1159 2438 1159 1844 
L 1159 0 
L 581 0 
L 581 3500 
L 1159 3500 
L 1159 2956 
Q 1341 3275 1631 3429 
Q 1922 3584 2338 3584 
Q 2397 3584 2469 3576 
Q 2541 3569 2628 3553 
L 2631 2963 
z
" transform="scale(0.015625)"/>
      <path id="DejaVuSans-61" d="M 2194 1759 
Q 1497 1759 1228 1600 
Q 959 1441 959 1056 
Q 959 750 1161 570 
Q 1363 391 1709 391 
Q 2188 391 2477 730 
Q 2766 1069 2766 1631 
L 2766 1759 
L 2194 1759 
z
M 3341 1997 
L 3341 0 
L 2766 0 
L 2766 531 
Q 2569 213 2275 61 
Q 1981 -91 1556 -91 
Q 1019 -91 701 211 
Q 384 513 384 1019 
Q 384 1609 779 1909 
Q 1175 2209 1959 2209 
L 2766 2209 
L 2766 2266 
Q 2766 2663 2505 2880 
Q 2244 3097 1772 3097 
Q 1472 3097 1187 3025 
Q 903 2953 641 2809 
L 641 3341 
Q 956 3463 1253 3523 
Q 1550 3584 1831 3584 
Q 2591 3584 2966 3190 
Q 3341 2797 3341 1997 
z
" transform="scale(0.015625)"/>
      <path id="DejaVuSans-6a" d="M 603 3500 
L 1178 3500 
L 1178 -63 
Q 1178 -731 923 -1031 
Q 669 -1331 103 -1331 
L -116 -1331 
L -116 -844 
L 38 -844 
Q 366 -844 484 -692 
Q 603 -541 603 -63 
L 603 3500 
z
M 603 4863 
L 1178 4863 
L 1178 4134 
L 603 4134 
L 603 4863 
z
" transform="scale(0.015625)"/>
      <path id="DejaVuSans-65" d="M 3597 1894 
L 3597 1613 
L 953 1613 
Q 991 1019 1311 708 
Q 1631 397 2203 397 
Q 2534 397 2845 478 
Q 3156 559 3463 722 
L 3463 178 
Q 3153 47 2828 -22 
Q 2503 -91 2169 -91 
Q 1331 -91 842 396 
Q 353 884 353 1716 
Q 353 2575 817 3079 
Q 1281 3584 2069 3584 
Q 2775 3584 3186 3129 
Q 3597 2675 3597 1894 
z
M 3022 2063 
Q 3016 2534 2758 2815 
Q 2500 3097 2075 3097 
Q 1594 3097 1305 2825 
Q 1016 2553 972 2059 
L 3022 2063 
z
" transform="scale(0.015625)"/>
      <path id="DejaVuSans-63" d="M 3122 3366 
L 3122 2828 
Q 2878 2963 2633 3030 
Q 2388 3097 2138 3097 
Q 1578 3097 1268 2742 
Q 959 2388 959 1747 
Q 959 1106 1268 751 
Q 1578 397 2138 397 
Q 2388 397 2633 464 
Q 2878 531 3122 666 
L 3122 134 
Q 2881 22 2623 -34 
Q 2366 -91 2075 -91 
Q 1284 -91 818 406 
Q 353 903 353 1747 
Q 353 2603 823 3093 
Q 1294 3584 2113 3584 
Q 2378 3584 2631 3529 
Q 2884 3475 3122 3366 
z
" transform="scale(0.015625)"/>
      <path id="DejaVuSans-74" d="M 1172 4494 
L 1172 3500 
L 2356 3500 
L 2356 3053 
L 1172 3053 
L 1172 1153 
Q 1172 725 1289 603 
Q 1406 481 1766 481 
L 2356 481 
L 2356 0 
L 1766 0 
Q 1100 0 847 248 
Q 594 497 594 1153 
L 594 3053 
L 172 3053 
L 172 3500 
L 594 3500 
L 594 4494 
L 1172 4494 
z
" transform="scale(0.015625)"/>
      <path id="DejaVuSans-6f" d="M 1959 3097 
Q 1497 3097 1228 2736 
Q 959 2375 959 1747 
Q 959 1119 1226 758 
Q 1494 397 1959 397 
Q 2419 397 2687 759 
Q 2956 1122 2956 1747 
Q 2956 2369 2687 2733 
Q 2419 3097 1959 3097 
z
M 1959 3584 
Q 2709 3584 3137 3096 
Q 3566 2609 3566 1747 
Q 3566 888 3137 398 
Q 2709 -91 1959 -91 
Q 1206 -91 779 398 
Q 353 888 353 1747 
Q 353 2609 779 3096 
Q 1206 3584 1959 3584 
z
" transform="scale(0.015625)"/>
      <path id="DejaVuSans-79" d="M 2059 -325 
Q 1816 -950 1584 -1140 
Q 1353 -1331 966 -1331 
L 506 -1331 
L 506 -850 
L 844 -850 
Q 1081 -850 1212 -737 
Q 1344 -625 1503 -206 
L 1606 56 
L 191 3500 
L 800 3500 
L 1894 763 
L 2988 3500 
L 3597 3500 
L 2059 -325 
z
" transform="scale(0.015625)"/>
      <path id="DejaVuSans-20" transform="scale(0.015625)"/>
      <path id="DejaVuSans-66" d="M 2375 4863 
L 2375 4384 
L 1825 4384 
Q 1516 4384 1395 4259 
Q 1275 4134 1275 3809 
L 1275 3500 
L 2222 3500 
L 2222 3053 
L 1275 3053 
L 1275 0 
L 697 0 
L 697 3053 
L 147 3053 
L 147 3500 
L 697 3500 
L 697 3744 
Q 697 4328 969 4595 
Q 1241 4863 1831 4863 
L 2375 4863 
z
" transform="scale(0.015625)"/>
      <path id="DejaVuSans-64" d="M 2906 2969 
L 2906 4863 
L 3481 4863 
L 3481 0 
L 2906 0 
L 2906 525 
Q 2725 213 2448 61 
Q 2172 -91 1784 -91 
Q 1150 -91 751 415 
Q 353 922 353 1747 
Q 353 2572 751 3078 
Q 1150 3584 1784 3584 
Q 2172 3584 2448 3432 
Q 2725 3281 2906 2969 
z
M 947 1747 
Q 947 1113 1208 752 
Q 1469 391 1925 391 
Q 2381 391 2643 752 
Q 2906 1113 2906 1747 
Q 2906 2381 2643 2742 
Q 2381 3103 1925 3103 
Q 1469 3103 1208 2742 
Q 947 2381 947 1747 
z
" transform="scale(0.015625)"/>
      <path id="DejaVuSans-6e" d="M 3513 2113 
L 3513 0 
L 2938 0 
L 2938 2094 
Q 2938 2591 2744 2837 
Q 2550 3084 2163 3084 
Q 1697 3084 1428 2787 
Q 1159 2491 1159 1978 
L 1159 0 
L 581 0 
L 581 3500 
L 1159 3500 
L 1159 2956 
Q 1366 3272 1645 3428 
Q 1925 3584 2291 3584 
Q 2894 3584 3203 3211 
Q 3513 2838 3513 2113 
z
" transform="scale(0.015625)"/>
      <path id="DejaVuSans-77" d="M 269 3500 
L 844 3500 
L 1563 769 
L 2278 3500 
L 2956 3500 
L 3675 769 
L 4391 3500 
L 4966 3500 
L 4050 0 
L 3372 0 
L 2619 2869 
L 1863 0 
L 1184 0 
L 269 3500 
z
" transform="scale(0.015625)"/>
      <path id="DejaVuSans-69" d="M 603 3500 
L 1178 3500 
L 1178 0 
L 603 0 
L 603 3500 
z
M 603 4863 
L 1178 4863 
L 1178 4134 
L 603 4134 
L 603 4863 
z
" transform="scale(0.015625)"/>
      <path id="DejaVuSans-68" d="M 3513 2113 
L 3513 0 
L 2938 0 
L 2938 2094 
Q 2938 2591 2744 2837 
Q 2550 3084 2163 3084 
Q 1697 3084 1428 2787 
Q 1159 2491 1159 1978 
L 1159 0 
L 581 0 
L 581 4863 
L 1159 4863 
L 1159 2956 
Q 1366 3272 1645 3428 
Q 1925 3584 2291 3584 
Q 2894 3584 3203 3211 
Q 3513 2838 3513 2113 
z
" transform="scale(0.015625)"/>
      <path id="DejaVuSans-73" d="M 2834 3397 
L 2834 2853 
Q 2591 2978 2328 3040 
Q 2066 3103 1784 3103 
Q 1356 3103 1142 2972 
Q 928 2841 928 2578 
Q 928 2378 1081 2264 
Q 1234 2150 1697 2047 
L 1894 2003 
Q 2506 1872 2764 1633 
Q 3022 1394 3022 966 
Q 3022 478 2636 193 
Q 2250 -91 1575 -91 
Q 1294 -91 989 -36 
Q 684 19 347 128 
L 347 722 
Q 666 556 975 473 
Q 1284 391 1588 391 
Q 1994 391 2212 530 
Q 2431 669 2431 922 
Q 2431 1156 2273 1281 
Q 2116 1406 1581 1522 
L 1381 1569 
Q 847 1681 609 1914 
Q 372 2147 372 2553 
Q 372 3047 722 3315 
Q 1072 3584 1716 3584 
Q 2034 3584 2315 3537 
Q 2597 3491 2834 3397 
z
" transform="scale(0.015625)"/>
      <path id="DejaVuSans-6c" d="M 603 4863 
L 1178 4863 
L 1178 0 
L 603 0 
L 603 4863 
z
" transform="scale(0.015625)"/>
      <path id="DejaVuSans-75" d="M 544 1381 
L 544 3500 
L 1119 3500 
L 1119 1403 
Q 1119 906 1312 657 
Q 1506 409 1894 409 
Q 2359 409 2629 706 
Q 2900 1003 2900 1516 
L 2900 3500 
L 3475 3500 
L 3475 0 
L 2900 0 
L 2900 538 
Q 2691 219 2414 64 
Q 2138 -91 1772 -91 
Q 1169 -91 856 284 
Q 544 659 544 1381 
z
M 1991 3584 
L 1991 3584 
z
" transform="scale(0.015625)"/>
      <path id="DejaVuSans-67" d="M 2906 1791 
Q 2906 2416 2648 2759 
Q 2391 3103 1925 3103 
Q 1463 3103 1205 2759 
Q 947 2416 947 1791 
Q 947 1169 1205 825 
Q 1463 481 1925 481 
Q 2391 481 2648 825 
Q 2906 1169 2906 1791 
z
M 3481 434 
Q 3481 -459 3084 -895 
Q 2688 -1331 1869 -1331 
Q 1566 -1331 1297 -1286 
Q 1028 -1241 775 -1147 
L 775 -588 
Q 1028 -725 1275 -790 
Q 1522 -856 1778 -856 
Q 2344 -856 2625 -561 
Q 2906 -266 2906 331 
L 2906 616 
Q 2728 306 2450 153 
Q 2172 0 1784 0 
Q 1141 0 747 490 
Q 353 981 353 1791 
Q 353 2603 747 3093 
Q 1141 3584 1784 3584 
Q 2172 3584 2450 3431 
Q 2728 3278 2906 2969 
L 2906 3500 
L 3481 3500 
L 3481 434 
z
" transform="scale(0.015625)"/>
      <path id="DejaVuSans-70" d="M 1159 525 
L 1159 -1331 
L 581 -1331 
L 581 3500 
L 1159 3500 
L 1159 2969 
Q 1341 3281 1617 3432 
Q 1894 3584 2278 3584 
Q 2916 3584 3314 3078 
Q 3713 2572 3713 1747 
Q 3713 922 3314 415 
Q 2916 -91 2278 -91 
Q 1894 -91 1617 61 
Q 1341 213 1159 525 
z
M 3116 1747 
Q 3116 2381 2855 2742 
Q 2594 3103 2138 3103 
Q 1681 3103 1420 2742 
Q 1159 2381 1159 1747 
Q 1159 1113 1420 752 
Q 1681 391 2138 391 
Q 2594 391 2855 752 
Q 3116 1113 3116 1747 
z
" transform="scale(0.015625)"/>
     </defs>
     <use xlink:href="#DejaVuSans-54"/>
     <use xlink:href="#DejaVuSans-72" x="46.333984"/>
     <use xlink:href="#DejaVuSans-61" x="87.447266"/>
     <use xlink:href="#DejaVuSans-6a" x="148.726562"/>
     <use xlink:href="#DejaVuSans-65" x="176.509766"/>
     <use xlink:href="#DejaVuSans-63" x="238.033203"/>
     <use xlink:href="#DejaVuSans-74" x="293.013672"/>
     <use xlink:href="#DejaVuSans-6f" x="332.222656"/>
     <use xlink:href="#DejaVuSans-72" x="393.404297"/>
     <use xlink:href="#DejaVuSans-79" x="434.517578"/>
     <use xlink:href="#DejaVuSans-20" x="493.697266"/>
     <use xlink:href="#DejaVuSans-6f" x="525.484375"/>
     <use xlink:href="#DejaVuSans-66" x="586.666016"/>
     <use xlink:href="#DejaVuSans-20" x="621.871094"/>
     <use xlink:href="#DejaVuSans-64" x="653.658203"/>
     <use xlink:href="#DejaVuSans-72" x="717.134766"/>
     <use xlink:href="#DejaVuSans-6f" x="755.998047"/>
     <use xlink:href="#DejaVuSans-6e" x="817.179688"/>
     <use xlink:href="#DejaVuSans-65" x="880.558594"/>
     <use xlink:href="#DejaVuSans-20" x="942.082031"/>
     <use xlink:href="#DejaVuSans-77" x="973.869141"/>
     <use xlink:href="#DejaVuSans-69" x="1055.65625"/>
     <use xlink:href="#DejaVuSans-74" x="1083.439453"/>
     <use xlink:href="#DejaVuSans-68" x="1122.648438"/>
     <use xlink:href="#DejaVuSans-20" x="1186.027344"/>
     <use xlink:href="#DejaVuSans-73" x="1217.814453"/>
     <use xlink:href="#DejaVuSans-6c" x="1269.914062"/>
     <use xlink:href="#DejaVuSans-75" x="1297.697266"/>
     <use xlink:href="#DejaVuSans-6e" x="1361.076172"/>
     <use xlink:href="#DejaVuSans-67" x="1424.455078"/>
     <use xlink:href="#DejaVuSans-20" x="1487.931641"/>
     <use xlink:href="#DejaVuSans-70" x="1519.71875"/>
     <use xlink:href="#DejaVuSans-61" x="1583.195312"/>
     <use xlink:href="#DejaVuSans-79" x="1644.474609"/>
     <use xlink:href="#DejaVuSans-6c" x="1703.654297"/>
     <use xlink:href="#DejaVuSans-6f" x="1731.4375"/>
     <use xlink:href="#DejaVuSans-61" x="1792.619141"/>
     <use xlink:href="#DejaVuSans-64" x="1853.898438"/>
     <use xlink:href="#DejaVuSans-20" x="1917.375"/>
     <use xlink:href="#DejaVuSans-69" x="1949.162109"/>
     <use xlink:href="#DejaVuSans-6e" x="1976.945312"/>
     <use xlink:href="#DejaVuSans-20" x="2040.324219"/>
     <use xlink:href="#DejaVuSans-78" x="2072.111328"/>
     <use xlink:href="#DejaVuSans-7a" x="2131.291016"/>
    </g>
   </g>
   <g id="legend_1">
    <g id="patch_7">
     <path d="M 182.717031 255.305043 
L 305.552969 255.305043 
Q 307.552969 255.305043 307.552969 253.305043 
L 307.552969 180.914418 
Q 307.552969 178.914418 305.552969 178.914418 
L 182.717031 178.914418 
Q 180.717031 178.914418 180.717031 180.914418 
L 180.717031 253.305043 
Q 180.717031 255.305043 182.717031 255.305043 
z
" style="fill: #ffffff; opacity: 0.8; stroke: #cccccc; stroke-linejoin: miter"/>
    </g>
    <g id="line2d_33">
     <g>
      <use xlink:href="#mb708490d72" x="194.717031" y="187.012856" style="fill-opacity: 0; stroke: #000000"/>
     </g>
    </g>
    <g id="text_16">
     <!-- Waypoint: [0, 3] -->
     <g transform="translate(212.717031 190.512856)scale(0.1 -0.1)">
      <defs>
       <path id="DejaVuSans-57" d="M 213 4666 
L 850 4666 
L 1831 722 
L 2809 4666 
L 3519 4666 
L 4500 722 
L 5478 4666 
L 6119 4666 
L 4947 0 
L 4153 0 
L 3169 4050 
L 2175 0 
L 1381 0 
L 213 4666 
z
" transform="scale(0.015625)"/>
       <path id="DejaVuSans-3a" d="M 750 794 
L 1409 794 
L 1409 0 
L 750 0 
L 750 794 
z
M 750 3309 
L 1409 3309 
L 1409 2516 
L 750 2516 
L 750 3309 
z
" transform="scale(0.015625)"/>
       <path id="DejaVuSans-5b" d="M 550 4863 
L 1875 4863 
L 1875 4416 
L 1125 4416 
L 1125 -397 
L 1875 -397 
L 1875 -844 
L 550 -844 
L 550 4863 
z
" transform="scale(0.015625)"/>
       <path id="DejaVuSans-2c" d="M 750 794 
L 1409 794 
L 1409 256 
L 897 -744 
L 494 -744 
L 750 256 
L 750 794 
z
" transform="scale(0.015625)"/>
       <path id="DejaVuSans-5d" d="M 1947 4863 
L 1947 -844 
L 622 -844 
L 622 -397 
L 1369 -397 
L 1369 4416 
L 622 4416 
L 622 4863 
L 1947 4863 
z
" transform="scale(0.015625)"/>
      </defs>
      <use xlink:href="#DejaVuSans-57"/>
      <use xlink:href="#DejaVuSans-61" x="92.501953"/>
      <use xlink:href="#DejaVuSans-79" x="153.78125"/>
      <use xlink:href="#DejaVuSans-70" x="212.960938"/>
      <use xlink:href="#DejaVuSans-6f" x="276.4375"/>
      <use xlink:href="#DejaVuSans-69" x="337.619141"/>
      <use xlink:href="#DejaVuSans-6e" x="365.402344"/>
      <use xlink:href="#DejaVuSans-74" x="428.78125"/>
      <use xlink:href="#DejaVuSans-3a" x="467.990234"/>
      <use xlink:href="#DejaVuSans-20" x="501.681641"/>
      <use xlink:href="#DejaVuSans-5b" x="533.46875"/>
      <use xlink:href="#DejaVuSans-30" x="572.482422"/>
      <use xlink:href="#DejaVuSans-2c" x="636.105469"/>
      <use xlink:href="#DejaVuSans-20" x="667.892578"/>
      <use xlink:href="#DejaVuSans-33" x="699.679688"/>
      <use xlink:href="#DejaVuSans-5d" x="763.302734"/>
     </g>
    </g>
    <g id="line2d_34">
     <g>
      <use xlink:href="#mb708490d72" x="194.717031" y="201.690981" style="fill-opacity: 0; stroke: #000000"/>
     </g>
    </g>
    <g id="text_17">
     <!-- Waypoint: [10, 3] -->
     <g transform="translate(212.717031 205.190981)scale(0.1 -0.1)">
      <use xlink:href="#DejaVuSans-57"/>
      <use xlink:href="#DejaVuSans-61" x="92.501953"/>
      <use xlink:href="#DejaVuSans-79" x="153.78125"/>
      <use xlink:href="#DejaVuSans-70" x="212.960938"/>
      <use xlink:href="#DejaVuSans-6f" x="276.4375"/>
      <use xlink:href="#DejaVuSans-69" x="337.619141"/>
      <use xlink:href="#DejaVuSans-6e" x="365.402344"/>
      <use xlink:href="#DejaVuSans-74" x="428.78125"/>
      <use xlink:href="#DejaVuSans-3a" x="467.990234"/>
      <use xlink:href="#DejaVuSans-20" x="501.681641"/>
      <use xlink:href="#DejaVuSans-5b" x="533.46875"/>
      <use xlink:href="#DejaVuSans-31" x="572.482422"/>
      <use xlink:href="#DejaVuSans-30" x="636.105469"/>
      <use xlink:href="#DejaVuSans-2c" x="699.728516"/>
      <use xlink:href="#DejaVuSans-20" x="731.515625"/>
      <use xlink:href="#DejaVuSans-33" x="763.302734"/>
      <use xlink:href="#DejaVuSans-5d" x="826.925781"/>
     </g>
    </g>
    <g id="line2d_35">
     <g>
      <use xlink:href="#mb708490d72" x="194.717031" y="216.369106" style="fill-opacity: 0; stroke: #000000"/>
     </g>
    </g>
    <g id="text_18">
     <!-- Waypoint: [0, 3] -->
     <g transform="translate(212.717031 219.869106)scale(0.1 -0.1)">
      <use xlink:href="#DejaVuSans-57"/>
      <use xlink:href="#DejaVuSans-61" x="92.501953"/>
      <use xlink:href="#DejaVuSans-79" x="153.78125"/>
      <use xlink:href="#DejaVuSans-70" x="212.960938"/>
      <use xlink:href="#DejaVuSans-6f" x="276.4375"/>
      <use xlink:href="#DejaVuSans-69" x="337.619141"/>
      <use xlink:href="#DejaVuSans-6e" x="365.402344"/>
      <use xlink:href="#DejaVuSans-74" x="428.78125"/>
      <use xlink:href="#DejaVuSans-3a" x="467.990234"/>
      <use xlink:href="#DejaVuSans-20" x="501.681641"/>
      <use xlink:href="#DejaVuSans-5b" x="533.46875"/>
      <use xlink:href="#DejaVuSans-30" x="572.482422"/>
      <use xlink:href="#DejaVuSans-2c" x="636.105469"/>
      <use xlink:href="#DejaVuSans-20" x="667.892578"/>
      <use xlink:href="#DejaVuSans-33" x="699.679688"/>
      <use xlink:href="#DejaVuSans-5d" x="763.302734"/>
     </g>
    </g>
    <g id="line2d_36">
     <path d="M 184.717031 231.047231 
L 194.717031 231.047231 
L 204.717031 231.047231 
" style="fill: none; stroke: #ff0000; stroke-width: 1.5; stroke-linecap: square"/>
    </g>
    <g id="text_19">
     <!-- Drone trajectory -->
     <g transform="translate(212.717031 234.547231)scale(0.1 -0.1)">
      <defs>
       <path id="DejaVuSans-44" d="M 1259 4147 
L 1259 519 
L 2022 519 
Q 2988 519 3436 956 
Q 3884 1394 3884 2338 
Q 3884 3275 3436 3711 
Q 2988 4147 2022 4147 
L 1259 4147 
z
M 628 4666 
L 1925 4666 
Q 3281 4666 3915 4102 
Q 4550 3538 4550 2338 
Q 4550 1131 3912 565 
Q 3275 0 1925 0 
L 628 0 
L 628 4666 
z
" transform="scale(0.015625)"/>
      </defs>
      <use xlink:href="#DejaVuSans-44"/>
      <use xlink:href="#DejaVuSans-72" x="77.001953"/>
      <use xlink:href="#DejaVuSans-6f" x="115.865234"/>
      <use xlink:href="#DejaVuSans-6e" x="177.046875"/>
      <use xlink:href="#DejaVuSans-65" x="240.425781"/>
      <use xlink:href="#DejaVuSans-20" x="301.949219"/>
      <use xlink:href="#DejaVuSans-74" x="333.736328"/>
      <use xlink:href="#DejaVuSans-72" x="372.945312"/>
      <use xlink:href="#DejaVuSans-61" x="414.058594"/>
      <use xlink:href="#DejaVuSans-6a" x="475.337891"/>
      <use xlink:href="#DejaVuSans-65" x="503.121094"/>
      <use xlink:href="#DejaVuSans-63" x="564.644531"/>
      <use xlink:href="#DejaVuSans-74" x="619.625"/>
      <use xlink:href="#DejaVuSans-6f" x="658.833984"/>
      <use xlink:href="#DejaVuSans-72" x="720.015625"/>
      <use xlink:href="#DejaVuSans-79" x="761.128906"/>
     </g>
    </g>
    <g id="line2d_37">
     <path d="M 184.717031 245.725356 
L 194.717031 245.725356 
L 204.717031 245.725356 
" style="fill: none; stroke-dasharray: 1.5,2.475; stroke-dashoffset: 0; stroke: #0000ff; stroke-width: 1.5"/>
    </g>
    <g id="text_20">
     <!-- Payload trajectory -->
     <g transform="translate(212.717031 249.225356)scale(0.1 -0.1)">
      <defs>
       <path id="DejaVuSans-50" d="M 1259 4147 
L 1259 2394 
L 2053 2394 
Q 2494 2394 2734 2622 
Q 2975 2850 2975 3272 
Q 2975 3691 2734 3919 
Q 2494 4147 2053 4147 
L 1259 4147 
z
M 628 4666 
L 2053 4666 
Q 2838 4666 3239 4311 
Q 3641 3956 3641 3272 
Q 3641 2581 3239 2228 
Q 2838 1875 2053 1875 
L 1259 1875 
L 1259 0 
L 628 0 
L 628 4666 
z
" transform="scale(0.015625)"/>
      </defs>
      <use xlink:href="#DejaVuSans-50"/>
      <use xlink:href="#DejaVuSans-61" x="55.802734"/>
      <use xlink:href="#DejaVuSans-79" x="117.082031"/>
      <use xlink:href="#DejaVuSans-6c" x="176.261719"/>
      <use xlink:href="#DejaVuSans-6f" x="204.044922"/>
      <use xlink:href="#DejaVuSans-61" x="265.226562"/>
      <use xlink:href="#DejaVuSans-64" x="326.505859"/>
      <use xlink:href="#DejaVuSans-20" x="389.982422"/>
      <use xlink:href="#DejaVuSans-74" x="421.769531"/>
      <use xlink:href="#DejaVuSans-72" x="460.978516"/>
      <use xlink:href="#DejaVuSans-61" x="502.091797"/>
      <use xlink:href="#DejaVuSans-6a" x="563.371094"/>
      <use xlink:href="#DejaVuSans-65" x="591.154297"/>
      <use xlink:href="#DejaVuSans-63" x="652.677734"/>
      <use xlink:href="#DejaVuSans-74" x="707.658203"/>
      <use xlink:href="#DejaVuSans-6f" x="746.867188"/>
      <use xlink:href="#DejaVuSans-72" x="808.048828"/>
      <use xlink:href="#DejaVuSans-79" x="849.162109"/>
     </g>
    </g>
   </g>
  </g>
 </g>
 <defs>
  <clipPath id="p24d3bbb0d8">
   <rect x="38.27" y="85.294957" width="411.73" height="175.010086"/>
  </clipPath>
 </defs>
</svg>
