<?xml version="1.0" encoding="utf-8" standalone="no"?>
<!DOCTYPE svg PUBLIC "-//W3C//DTD SVG 1.1//EN"
  "http://www.w3.org/Graphics/SVG/1.1/DTD/svg11.dtd">
<svg xmlns:xlink="http://www.w3.org/1999/xlink" width="460.8pt" height="345.6pt" viewBox="0 0 460.8 345.6" xmlns="http://www.w3.org/2000/svg" version="1.1">
 <metadata>
  <rdf:RDF xmlns:dc="http://purl.org/dc/elements/1.1/" xmlns:cc="http://creativecommons.org/ns#" xmlns:rdf="http://www.w3.org/1999/02/22-rdf-syntax-ns#">
   <cc:Work>
    <dc:type rdf:resource="http://purl.org/dc/dcmitype/StillImage"/>
    <dc:date>2022-05-10T12:40:05.056747</dc:date>
    <dc:format>image/svg+xml</dc:format>
    <dc:creator>
     <cc:Agent>
      <dc:title>Matplotlib v3.5.1, https://matplotlib.org/</dc:title>
     </cc:Agent>
    </dc:creator>
   </cc:Work>
  </rdf:RDF>
 </metadata>
 <defs>
  <style type="text/css">*{stroke-linejoin: round; stroke-linecap: butt}</style>
 </defs>
 <g id="figure_1">
  <g id="patch_1">
   <path d="M 0 345.6 
L 460.8 345.6 
L 460.8 0 
L 0 0 
z
" style="fill: #ffffff"/>
  </g>
  <g id="axes_1">
   <g id="patch_2">
    <path d="M 38.27 303.64 
L 450 303.64 
L 450 26.88 
L 38.27 26.88 
z
" style="fill: #ffffff"/>
   </g>
   <g id="matplotlib.axis_1">
    <g id="xtick_1">
     <g id="line2d_1">
      <path d="M 56.985 303.64 
L 56.985 26.88 
" clip-path="url(#p24d386f19b)" style="fill: none; stroke: #b0b0b0; stroke-width: 0.8; stroke-linecap: square"/>
     </g>
     <g id="line2d_2">
      <defs>
       <path id="m877e5bf566" d="M 0 0 
L 0 3.5 
" style="stroke: #000000; stroke-width: 0.8"/>
      </defs>
      <g>
       <use xlink:href="#m877e5bf566" x="56.985" y="303.64" style="stroke: #000000; stroke-width: 0.8"/>
      </g>
     </g>
     <g id="text_1">
      <!-- 0 -->
      <g transform="translate(53.80375 318.238437)scale(0.1 -0.1)">
       <defs>
        <path id="DejaVuSans-30" d="M 2034 4250 
Q 1547 4250 1301 3770 
Q 1056 3291 1056 2328 
Q 1056 1369 1301 889 
Q 1547 409 2034 409 
Q 2525 409 2770 889 
Q 3016 1369 3016 2328 
Q 3016 3291 2770 3770 
Q 2525 4250 2034 4250 
z
M 2034 4750 
Q 2819 4750 3233 4129 
Q 3647 3509 3647 2328 
Q 3647 1150 3233 529 
Q 2819 -91 2034 -91 
Q 1250 -91 836 529 
Q 422 1150 422 2328 
Q 422 3509 836 4129 
Q 1250 4750 2034 4750 
z
" transform="scale(0.015625)"/>
       </defs>
       <use xlink:href="#DejaVuSans-30"/>
      </g>
     </g>
    </g>
    <g id="xtick_2">
     <g id="line2d_3">
      <path d="M 114.463501 303.64 
L 114.463501 26.88 
" clip-path="url(#p24d386f19b)" style="fill: none; stroke: #b0b0b0; stroke-width: 0.8; stroke-linecap: square"/>
     </g>
     <g id="line2d_4">
      <g>
       <use xlink:href="#m877e5bf566" x="114.463501" y="303.64" style="stroke: #000000; stroke-width: 0.8"/>
      </g>
     </g>
     <g id="text_2">
      <!-- 5 -->
      <g transform="translate(111.282251 318.238437)scale(0.1 -0.1)">
       <defs>
        <path id="DejaVuSans-35" d="M 691 4666 
L 3169 4666 
L 3169 4134 
L 1269 4134 
L 1269 2991 
Q 1406 3038 1543 3061 
Q 1681 3084 1819 3084 
Q 2600 3084 3056 2656 
Q 3513 2228 3513 1497 
Q 3513 744 3044 326 
Q 2575 -91 1722 -91 
Q 1428 -91 1123 -41 
Q 819 9 494 109 
L 494 744 
Q 775 591 1075 516 
Q 1375 441 1709 441 
Q 2250 441 2565 725 
Q 2881 1009 2881 1497 
Q 2881 1984 2565 2268 
Q 2250 2553 1709 2553 
Q 1456 2553 1204 2497 
Q 953 2441 691 2322 
L 691 4666 
z
" transform="scale(0.015625)"/>
       </defs>
       <use xlink:href="#DejaVuSans-35"/>
      </g>
     </g>
    </g>
    <g id="xtick_3">
     <g id="line2d_5">
      <path d="M 171.942002 303.64 
L 171.942002 26.88 
" clip-path="url(#p24d386f19b)" style="fill: none; stroke: #b0b0b0; stroke-width: 0.8; stroke-linecap: square"/>
     </g>
     <g id="line2d_6">
      <g>
       <use xlink:href="#m877e5bf566" x="171.942002" y="303.64" style="stroke: #000000; stroke-width: 0.8"/>
      </g>
     </g>
     <g id="text_3">
      <!-- 10 -->
      <g transform="translate(165.579502 318.238437)scale(0.1 -0.1)">
       <defs>
        <path id="DejaVuSans-31" d="M 794 531 
L 1825 531 
L 1825 4091 
L 703 3866 
L 703 4441 
L 1819 4666 
L 2450 4666 
L 2450 531 
L 3481 531 
L 3481 0 
L 794 0 
L 794 531 
z
" transform="scale(0.015625)"/>
       </defs>
       <use xlink:href="#DejaVuSans-31"/>
       <use xlink:href="#DejaVuSans-30" x="63.623047"/>
      </g>
     </g>
    </g>
    <g id="xtick_4">
     <g id="line2d_7">
      <path d="M 229.420504 303.64 
L 229.420504 26.88 
" clip-path="url(#p24d386f19b)" style="fill: none; stroke: #b0b0b0; stroke-width: 0.8; stroke-linecap: square"/>
     </g>
     <g id="line2d_8">
      <g>
       <use xlink:href="#m877e5bf566" x="229.420504" y="303.64" style="stroke: #000000; stroke-width: 0.8"/>
      </g>
     </g>
     <g id="text_4">
      <!-- 15 -->
      <g transform="translate(223.058004 318.238437)scale(0.1 -0.1)">
       <use xlink:href="#DejaVuSans-31"/>
       <use xlink:href="#DejaVuSans-35" x="63.623047"/>
      </g>
     </g>
    </g>
    <g id="xtick_5">
     <g id="line2d_9">
      <path d="M 286.899005 303.64 
L 286.899005 26.88 
" clip-path="url(#p24d386f19b)" style="fill: none; stroke: #b0b0b0; stroke-width: 0.8; stroke-linecap: square"/>
     </g>
     <g id="line2d_10">
      <g>
       <use xlink:href="#m877e5bf566" x="286.899005" y="303.64" style="stroke: #000000; stroke-width: 0.8"/>
      </g>
     </g>
     <g id="text_5">
      <!-- 20 -->
      <g transform="translate(280.536505 318.238437)scale(0.1 -0.1)">
       <defs>
        <path id="DejaVuSans-32" d="M 1228 531 
L 3431 531 
L 3431 0 
L 469 0 
L 469 531 
Q 828 903 1448 1529 
Q 2069 2156 2228 2338 
Q 2531 2678 2651 2914 
Q 2772 3150 2772 3378 
Q 2772 3750 2511 3984 
Q 2250 4219 1831 4219 
Q 1534 4219 1204 4116 
Q 875 4013 500 3803 
L 500 4441 
Q 881 4594 1212 4672 
Q 1544 4750 1819 4750 
Q 2544 4750 2975 4387 
Q 3406 4025 3406 3419 
Q 3406 3131 3298 2873 
Q 3191 2616 2906 2266 
Q 2828 2175 2409 1742 
Q 1991 1309 1228 531 
z
" transform="scale(0.015625)"/>
       </defs>
       <use xlink:href="#DejaVuSans-32"/>
       <use xlink:href="#DejaVuSans-30" x="63.623047"/>
      </g>
     </g>
    </g>
    <g id="xtick_6">
     <g id="line2d_11">
      <path d="M 344.377506 303.64 
L 344.377506 26.88 
" clip-path="url(#p24d386f19b)" style="fill: none; stroke: #b0b0b0; stroke-width: 0.8; stroke-linecap: square"/>
     </g>
     <g id="line2d_12">
      <g>
       <use xlink:href="#m877e5bf566" x="344.377506" y="303.64" style="stroke: #000000; stroke-width: 0.8"/>
      </g>
     </g>
     <g id="text_6">
      <!-- 25 -->
      <g transform="translate(338.015006 318.238437)scale(0.1 -0.1)">
       <use xlink:href="#DejaVuSans-32"/>
       <use xlink:href="#DejaVuSans-35" x="63.623047"/>
      </g>
     </g>
    </g>
    <g id="xtick_7">
     <g id="line2d_13">
      <path d="M 401.856007 303.64 
L 401.856007 26.88 
" clip-path="url(#p24d386f19b)" style="fill: none; stroke: #b0b0b0; stroke-width: 0.8; stroke-linecap: square"/>
     </g>
     <g id="line2d_14">
      <g>
       <use xlink:href="#m877e5bf566" x="401.856007" y="303.64" style="stroke: #000000; stroke-width: 0.8"/>
      </g>
     </g>
     <g id="text_7">
      <!-- 30 -->
      <g transform="translate(395.493507 318.238437)scale(0.1 -0.1)">
       <defs>
        <path id="DejaVuSans-33" d="M 2597 2516 
Q 3050 2419 3304 2112 
Q 3559 1806 3559 1356 
Q 3559 666 3084 287 
Q 2609 -91 1734 -91 
Q 1441 -91 1130 -33 
Q 819 25 488 141 
L 488 750 
Q 750 597 1062 519 
Q 1375 441 1716 441 
Q 2309 441 2620 675 
Q 2931 909 2931 1356 
Q 2931 1769 2642 2001 
Q 2353 2234 1838 2234 
L 1294 2234 
L 1294 2753 
L 1863 2753 
Q 2328 2753 2575 2939 
Q 2822 3125 2822 3475 
Q 2822 3834 2567 4026 
Q 2313 4219 1838 4219 
Q 1578 4219 1281 4162 
Q 984 4106 628 3988 
L 628 4550 
Q 988 4650 1302 4700 
Q 1616 4750 1894 4750 
Q 2613 4750 3031 4423 
Q 3450 4097 3450 3541 
Q 3450 3153 3228 2886 
Q 3006 2619 2597 2516 
z
" transform="scale(0.015625)"/>
       </defs>
       <use xlink:href="#DejaVuSans-33"/>
       <use xlink:href="#DejaVuSans-30" x="63.623047"/>
      </g>
     </g>
    </g>
    <g id="text_8">
     <!-- t [s] -->
     <g transform="translate(234.079531 331.916562)scale(0.1 -0.1)">
      <defs>
       <path id="DejaVuSans-74" d="M 1172 4494 
L 1172 3500 
L 2356 3500 
L 2356 3053 
L 1172 3053 
L 1172 1153 
Q 1172 725 1289 603 
Q 1406 481 1766 481 
L 2356 481 
L 2356 0 
L 1766 0 
Q 1100 0 847 248 
Q 594 497 594 1153 
L 594 3053 
L 172 3053 
L 172 3500 
L 594 3500 
L 594 4494 
L 1172 4494 
z
" transform="scale(0.015625)"/>
       <path id="DejaVuSans-20" transform="scale(0.015625)"/>
       <path id="DejaVuSans-5b" d="M 550 4863 
L 1875 4863 
L 1875 4416 
L 1125 4416 
L 1125 -397 
L 1875 -397 
L 1875 -844 
L 550 -844 
L 550 4863 
z
" transform="scale(0.015625)"/>
       <path id="DejaVuSans-73" d="M 2834 3397 
L 2834 2853 
Q 2591 2978 2328 3040 
Q 2066 3103 1784 3103 
Q 1356 3103 1142 2972 
Q 928 2841 928 2578 
Q 928 2378 1081 2264 
Q 1234 2150 1697 2047 
L 1894 2003 
Q 2506 1872 2764 1633 
Q 3022 1394 3022 966 
Q 3022 478 2636 193 
Q 2250 -91 1575 -91 
Q 1294 -91 989 -36 
Q 684 19 347 128 
L 347 722 
Q 666 556 975 473 
Q 1284 391 1588 391 
Q 1994 391 2212 530 
Q 2431 669 2431 922 
Q 2431 1156 2273 1281 
Q 2116 1406 1581 1522 
L 1381 1569 
Q 847 1681 609 1914 
Q 372 2147 372 2553 
Q 372 3047 722 3315 
Q 1072 3584 1716 3584 
Q 2034 3584 2315 3537 
Q 2597 3491 2834 3397 
z
" transform="scale(0.015625)"/>
       <path id="DejaVuSans-5d" d="M 1947 4863 
L 1947 -844 
L 622 -844 
L 622 -397 
L 1369 -397 
L 1369 4416 
L 622 4416 
L 622 4863 
L 1947 4863 
z
" transform="scale(0.015625)"/>
      </defs>
      <use xlink:href="#DejaVuSans-74"/>
      <use xlink:href="#DejaVuSans-20" x="39.208984"/>
      <use xlink:href="#DejaVuSans-5b" x="70.996094"/>
      <use xlink:href="#DejaVuSans-73" x="110.009766"/>
      <use xlink:href="#DejaVuSans-5d" x="162.109375"/>
     </g>
    </g>
   </g>
   <g id="matplotlib.axis_2">
    <g id="ytick_1">
     <g id="line2d_15">
      <path d="M 38.27 301.123597 
L 450 301.123597 
" clip-path="url(#p24d386f19b)" style="fill: none; stroke: #b0b0b0; stroke-width: 0.8; stroke-linecap: square"/>
     </g>
     <g id="line2d_16">
      <defs>
       <path id="mb0bcf78dcd" d="M 0 0 
L -3.5 0 
" style="stroke: #000000; stroke-width: 0.8"/>
      </defs>
      <g>
       <use xlink:href="#mb0bcf78dcd" x="38.27" y="301.123597" style="stroke: #000000; stroke-width: 0.8"/>
      </g>
     </g>
     <g id="text_9">
      <!-- 0 -->
      <g transform="translate(24.9075 304.922816)scale(0.1 -0.1)">
       <use xlink:href="#DejaVuSans-30"/>
      </g>
     </g>
    </g>
    <g id="ytick_2">
     <g id="line2d_17">
      <path d="M 38.27 248.790878 
L 450 248.790878 
" clip-path="url(#p24d386f19b)" style="fill: none; stroke: #b0b0b0; stroke-width: 0.8; stroke-linecap: square"/>
     </g>
     <g id="line2d_18">
      <g>
       <use xlink:href="#mb0bcf78dcd" x="38.27" y="248.790878" style="stroke: #000000; stroke-width: 0.8"/>
      </g>
     </g>
     <g id="text_10">
      <!-- 1 -->
      <g transform="translate(24.9075 252.590097)scale(0.1 -0.1)">
       <use xlink:href="#DejaVuSans-31"/>
      </g>
     </g>
    </g>
    <g id="ytick_3">
     <g id="line2d_19">
      <path d="M 38.27 196.458158 
L 450 196.458158 
" clip-path="url(#p24d386f19b)" style="fill: none; stroke: #b0b0b0; stroke-width: 0.8; stroke-linecap: square"/>
     </g>
     <g id="line2d_20">
      <g>
       <use xlink:href="#mb0bcf78dcd" x="38.27" y="196.458158" style="stroke: #000000; stroke-width: 0.8"/>
      </g>
     </g>
     <g id="text_11">
      <!-- 2 -->
      <g transform="translate(24.9075 200.257377)scale(0.1 -0.1)">
       <use xlink:href="#DejaVuSans-32"/>
      </g>
     </g>
    </g>
    <g id="ytick_4">
     <g id="line2d_21">
      <path d="M 38.27 144.125439 
L 450 144.125439 
" clip-path="url(#p24d386f19b)" style="fill: none; stroke: #b0b0b0; stroke-width: 0.8; stroke-linecap: square"/>
     </g>
     <g id="line2d_22">
      <g>
       <use xlink:href="#mb0bcf78dcd" x="38.27" y="144.125439" style="stroke: #000000; stroke-width: 0.8"/>
      </g>
     </g>
     <g id="text_12">
      <!-- 3 -->
      <g transform="translate(24.9075 147.924658)scale(0.1 -0.1)">
       <use xlink:href="#DejaVuSans-33"/>
      </g>
     </g>
    </g>
    <g id="ytick_5">
     <g id="line2d_23">
      <path d="M 38.27 91.792719 
L 450 91.792719 
" clip-path="url(#p24d386f19b)" style="fill: none; stroke: #b0b0b0; stroke-width: 0.8; stroke-linecap: square"/>
     </g>
     <g id="line2d_24">
      <g>
       <use xlink:href="#mb0bcf78dcd" x="38.27" y="91.792719" style="stroke: #000000; stroke-width: 0.8"/>
      </g>
     </g>
     <g id="text_13">
      <!-- 4 -->
      <g transform="translate(24.9075 95.591938)scale(0.1 -0.1)">
       <defs>
        <path id="DejaVuSans-34" d="M 2419 4116 
L 825 1625 
L 2419 1625 
L 2419 4116 
z
M 2253 4666 
L 3047 4666 
L 3047 1625 
L 3713 1625 
L 3713 1100 
L 3047 1100 
L 3047 0 
L 2419 0 
L 2419 1100 
L 313 1100 
L 313 1709 
L 2253 4666 
z
" transform="scale(0.015625)"/>
       </defs>
       <use xlink:href="#DejaVuSans-34"/>
      </g>
     </g>
    </g>
    <g id="ytick_6">
     <g id="line2d_25">
      <path d="M 38.27 39.46 
L 450 39.46 
" clip-path="url(#p24d386f19b)" style="fill: none; stroke: #b0b0b0; stroke-width: 0.8; stroke-linecap: square"/>
     </g>
     <g id="line2d_26">
      <g>
       <use xlink:href="#mb0bcf78dcd" x="38.27" y="39.46" style="stroke: #000000; stroke-width: 0.8"/>
      </g>
     </g>
     <g id="text_14">
      <!-- 5 -->
      <g transform="translate(24.9075 43.259219)scale(0.1 -0.1)">
       <use xlink:href="#DejaVuSans-35"/>
      </g>
     </g>
    </g>
    <g id="text_15">
     <!-- z [m] -->
     <g transform="translate(18.827813 178.245156)rotate(-90)scale(0.1 -0.1)">
      <defs>
       <path id="DejaVuSans-7a" d="M 353 3500 
L 3084 3500 
L 3084 2975 
L 922 459 
L 3084 459 
L 3084 0 
L 275 0 
L 275 525 
L 2438 3041 
L 353 3041 
L 353 3500 
z
" transform="scale(0.015625)"/>
       <path id="DejaVuSans-6d" d="M 3328 2828 
Q 3544 3216 3844 3400 
Q 4144 3584 4550 3584 
Q 5097 3584 5394 3201 
Q 5691 2819 5691 2113 
L 5691 0 
L 5113 0 
L 5113 2094 
Q 5113 2597 4934 2840 
Q 4756 3084 4391 3084 
Q 3944 3084 3684 2787 
Q 3425 2491 3425 1978 
L 3425 0 
L 2847 0 
L 2847 2094 
Q 2847 2600 2669 2842 
Q 2491 3084 2119 3084 
Q 1678 3084 1418 2786 
Q 1159 2488 1159 1978 
L 1159 0 
L 581 0 
L 581 3500 
L 1159 3500 
L 1159 2956 
Q 1356 3278 1631 3431 
Q 1906 3584 2284 3584 
Q 2666 3584 2933 3390 
Q 3200 3197 3328 2828 
z
" transform="scale(0.015625)"/>
      </defs>
      <use xlink:href="#DejaVuSans-7a"/>
      <use xlink:href="#DejaVuSans-20" x="52.490234"/>
      <use xlink:href="#DejaVuSans-5b" x="84.277344"/>
      <use xlink:href="#DejaVuSans-6d" x="123.291016"/>
      <use xlink:href="#DejaVuSans-5d" x="220.703125"/>
     </g>
    </g>
   </g>
   <g id="line2d_27">
    <path d="M 56.985 80.793298 
L 57.099957 80.793298 
L 57.214914 73.574152 
L 57.559785 73.574152 
L 57.674742 67.174879 
L 58.13457 67.174879 
L 58.249527 61.191653 
L 58.709355 61.191653 
L 58.824312 56.277609 
L 59.169183 56.277609 
L 59.399097 52.132879 
L 59.858925 52.132879 
L 59.973882 49.513765 
L 60.318753 49.513765 
L 60.43371 47.469304 
L 60.893538 47.469304 
L 61.008495 46.133737 
L 61.468323 46.133737 
L 61.58328 45.295276 
L 61.928151 45.295276 
L 62.158065 44.964551 
L 62.502936 44.964551 
L 62.73285 44.799649 
L 63.537549 44.819245 
L 63.767463 44.927975 
L 64.112334 44.927975 
L 64.342248 45.11073 
L 64.687119 45.11073 
L 64.917033 45.301222 
L 66.871302 45.282793 
L 67.101216 45.088753 
L 67.446087 45.088753 
L 67.676001 44.884233 
L 67.905915 44.884233 
L 68.135829 44.733975 
L 69.515313 44.796418 
L 69.745227 44.978962 
L 70.090098 44.978962 
L 70.320012 45.127508 
L 72.274281 45.02508 
L 72.504195 44.700292 
L 72.734109 44.700292 
L 72.964023 44.369378 
L 73.308894 44.369378 
L 73.538808 43.974332 
L 73.883679 43.974332 
L 74.113593 43.653898 
L 74.343507 43.653898 
L 74.573421 43.456384 
L 76.412733 43.559265 
L 76.642647 43.697852 
L 76.987518 43.697852 
L 77.217432 43.839725 
L 77.562303 43.839725 
L 77.792217 44.069262 
L 78.022131 44.069262 
L 78.252045 44.212169 
L 79.631529 44.318022 
L 79.861443 44.388724 
L 80.206314 44.388724 
L 80.436229 44.608178 
L 80.7811 44.608178 
L 80.896057 45.099019 
L 81.355885 45.099019 
L 81.470842 45.752824 
L 81.93067 45.752824 
L 82.045627 46.689972 
L 82.390498 46.689972 
L 82.620412 47.908322 
L 82.965283 47.908322 
L 83.08024 49.040541 
L 83.540068 49.040541 
L 83.655025 50.205555 
L 83.999896 50.205555 
L 84.114853 51.368489 
L 84.574681 51.368489 
L 84.689638 52.625526 
L 85.034509 52.625526 
L 85.264423 53.966965 
L 85.609294 53.966965 
L 85.724251 55.095794 
L 86.184079 55.095794 
L 86.299036 56.304715 
L 86.758864 56.304715 
L 86.873821 57.587452 
L 87.218692 57.587452 
L 87.333649 58.551603 
L 87.793477 58.551603 
L 87.908434 59.579213 
L 88.253305 59.579213 
L 88.368262 60.550213 
L 88.82809 60.550213 
L 88.943047 61.530988 
L 89.287918 61.530988 
L 89.517832 62.495572 
L 89.97766 62.495572 
L 90.092617 63.25353 
L 90.437488 63.25353 
L 90.552445 64.043988 
L 91.012273 64.043988 
L 91.242187 64.882336 
L 91.587058 64.882336 
L 91.702015 65.517976 
L 92.046886 65.517976 
L 92.161843 66.175388 
L 92.506714 66.175388 
L 92.621671 66.70415 
L 93.081499 66.70415 
L 93.311413 67.077841 
L 93.541327 67.077841 
L 93.771241 67.271673 
L 94.57594 67.246711 
L 94.805854 66.998135 
L 95.150725 66.998135 
L 95.380639 66.607148 
L 95.72551 66.607148 
L 95.840467 66.078645 
L 96.185338 66.078645 
L 96.415252 65.87726 
L 97.219951 65.873904 
L 97.449865 66.066524 
L 97.794736 66.066524 
L 98.02465 66.347877 
L 98.369521 66.347877 
L 98.599435 66.628916 
L 98.829349 66.628916 
L 99.059263 66.791966 
L 99.863962 66.708591 
L 99.978919 66.257146 
L 100.438747 66.257146 
L 100.553704 65.372826 
L 100.898575 65.372826 
L 101.013532 63.88419 
L 101.47336 63.88419 
L 101.588317 61.931457 
L 101.933188 61.931457 
L 102.163102 59.495441 
L 102.507973 59.495441 
L 102.62293 57.536992 
L 103.082758 57.536992 
L 103.197715 55.200334 
L 103.657543 55.200334 
L 103.7725 52.994353 
L 104.232328 52.994353 
L 104.347285 51.046816 
L 104.692156 51.046816 
L 104.92207 49.300738 
L 105.266941 49.300738 
L 105.381898 48.190444 
L 105.726769 48.190444 
L 105.841726 47.167686 
L 106.301554 47.167686 
L 106.416511 46.21377 
L 106.761382 46.21377 
L 106.991296 45.308528 
L 107.336167 45.308528 
L 107.451124 44.68353 
L 107.910952 44.68353 
L 108.025909 44.084424 
L 108.37078 44.084424 
L 108.485737 43.550875 
L 108.945565 43.550875 
L 109.175479 43.157041 
L 109.52035 43.157041 
L 109.750264 42.914642 
L 110.554963 42.803579 
L 111.589576 42.83881 
L 111.934447 42.894348 
L 113.313931 42.867535 
L 113.543845 42.742287 
L 113.888716 42.742287 
L 114.11863 42.552442 
L 114.348544 42.552442 
L 114.578458 42.313657 
L 114.923329 42.313657 
L 115.153243 42.121925 
L 115.498114 42.121925 
L 115.728028 41.970238 
L 116.532727 41.868258 
L 116.992555 41.827814 
L 119.751523 41.784615 
L 119.981437 41.686693 
L 120.786136 41.59426 
L 121.01605 41.497462 
L 121.820749 41.388512 
L 122.050663 41.292589 
L 123.430147 41.19158 
L 124.119889 41.148269 
L 125.959201 41.057882 
L 126.304072 41.005626 
L 126.993814 40.941089 
L 127.338686 40.890242 
L 128.71817 40.783426 
L 129.063041 40.742576 
L 131.477138 40.632529 
L 134.695934 40.502801 
L 135.385676 40.455667 
L 138.374558 40.34865 
L 138.834386 40.315988 
L 141.133526 40.222474 
L 142.053182 40.18488 
L 145.96172 40.08573 
L 147.341204 40.047685 
L 169.642862 40.154199 
L 170.907389 40.17961 
L 175.965498 40.283189 
L 177.689853 40.346153 
L 180.678735 40.441588 
L 181.598391 40.478616 
L 183.782574 40.577477 
L 184.587273 40.616905 
L 187.461198 40.720904 
L 188.035983 40.777699 
L 191.024865 40.87903 
L 191.829564 40.929632 
L 194.243661 41.026585 
L 195.163317 41.062101 
L 197.3475 41.157883 
L 198.037242 41.204405 
L 201.026124 41.311511 
L 201.600909 41.366357 
L 204.589791 41.475055 
L 205.279533 41.537299 
L 207.348759 41.625599 
L 208.038501 41.669294 
L 210.682512 41.761372 
L 211.372254 41.810364 
L 211.717125 41.810364 
L 211.947039 41.943997 
L 212.29191 41.943997 
L 212.521824 42.155661 
L 212.751738 42.155661 
L 212.981652 42.319919 
L 213.326523 42.319919 
L 213.556437 42.452262 
L 213.901308 42.452262 
L 214.131222 42.586684 
L 214.361136 42.586684 
L 214.59105 42.914357 
L 214.935921 42.914357 
L 215.165835 43.619417 
L 215.510706 43.619417 
L 215.625663 44.470327 
L 215.970534 44.470327 
L 216.085491 45.724284 
L 216.430362 45.724284 
L 216.545319 47.26543 
L 217.005147 47.26543 
L 217.120104 49.017376 
L 217.464975 49.017376 
L 217.579932 50.882832 
L 218.03976 50.882832 
L 218.154717 52.956438 
L 218.614545 52.956438 
L 218.729502 54.986589 
L 219.18933 54.986589 
L 219.304287 56.947739 
L 219.649158 56.947739 
L 219.764115 58.82711 
L 220.223943 58.82711 
L 220.3389 60.780516 
L 220.798729 60.780516 
L 220.913686 62.361743 
L 221.373514 62.361743 
L 221.488471 64.028172 
L 221.833342 64.028172 
L 222.063256 65.761625 
L 222.408127 65.761625 
L 222.523084 67.032329 
L 222.982912 67.032329 
L 223.097869 68.481529 
L 223.44274 68.481529 
L 223.672654 69.995301 
L 224.017525 69.995301 
L 224.132482 71.144905 
L 224.477353 71.144905 
L 224.59231 72.402614 
L 225.052138 72.402614 
L 225.167095 73.762469 
L 225.511966 73.762469 
L 225.626923 74.873558 
L 225.971794 74.873558 
L 226.086751 75.948454 
L 226.546579 75.948454 
L 226.661536 77.070933 
L 227.006407 77.070933 
L 227.121364 78.202295 
L 227.581192 78.202295 
L 227.811106 79.299718 
L 228.155977 79.299718 
L 228.270934 80.139894 
L 228.615805 80.139894 
L 228.730762 81.063157 
L 229.19059 81.063157 
L 229.420504 82.142227 
L 229.765375 82.142227 
L 229.880332 83.249941 
L 230.225203 83.249941 
L 230.34016 84.708491 
L 230.685031 84.708491 
L 230.799988 86.420135 
L 231.259816 86.420135 
L 231.374773 88.488322 
L 231.834601 88.488322 
L 231.949558 90.786961 
L 232.294429 90.786961 
L 232.409386 92.433137 
L 232.869214 92.433137 
L 232.984171 94.009219 
L 233.443999 94.009219 
L 233.558956 95.320034 
L 233.903827 95.320034 
L 234.018784 96.350885 
L 234.478612 96.350885 
L 234.708526 97.485059 
L 235.053397 97.485059 
L 235.168354 98.576682 
L 235.513225 98.576682 
L 235.628182 100.139003 
L 235.973053 100.139003 
L 236.08801 102.151974 
L 236.547838 102.151974 
L 236.662795 104.877052 
L 237.122623 104.877052 
L 237.23758 108.401953 
L 237.697408 108.401953 
L 237.812365 111.773279 
L 238.272193 111.773279 
L 238.38715 115.758624 
L 238.732021 115.758624 
L 238.846978 119.970085 
L 239.306806 119.970085 
L 239.53672 124.633827 
L 239.881591 124.633827 
L 239.996548 128.536286 
L 240.341419 128.536286 
L 240.456376 132.302192 
L 240.916204 132.302192 
L 241.031161 135.846802 
L 241.376032 135.846802 
L 241.490989 139.102518 
L 241.950817 139.102518 
L 242.065774 142.065739 
L 242.410645 142.065739 
L 242.525602 145.076263 
L 242.98543 145.076263 
L 243.100387 148.046279 
L 243.560215 148.046279 
L 243.675172 151.18382 
L 244.020043 151.18382 
L 244.249957 154.959059 
L 244.594828 154.959059 
L 244.709785 158.189007 
L 245.169613 158.189007 
L 245.28457 162.059299 
L 245.629441 162.059299 
L 245.744398 166.591871 
L 246.204226 166.591871 
L 246.319183 171.736101 
L 246.779011 171.736101 
L 246.893968 176.149402 
L 247.353796 176.149402 
L 247.468753 180.886447 
L 247.813624 180.886447 
L 248.043538 185.782665 
L 248.388409 185.782665 
L 248.503366 189.658021 
L 248.963194 189.658021 
L 249.078151 193.273971 
L 249.537979 193.273971 
L 249.652936 197.033502 
L 249.997807 197.033502 
L 250.227721 201.212807 
L 250.572592 201.212807 
L 250.687549 204.648148 
L 251.03242 204.648148 
L 251.147377 208.703914 
L 251.607205 208.703914 
L 251.722162 213.006933 
L 252.067033 213.006933 
L 252.18199 217.854506 
L 252.641818 217.854506 
L 252.756775 223.052474 
L 253.216603 223.052474 
L 253.33156 226.852743 
L 253.676431 226.852743 
L 253.791388 230.665312 
L 254.251216 230.665312 
L 254.366173 234.278055 
L 254.826001 234.278055 
L 254.940958 237.316318 
L 255.285829 237.316318 
L 255.515743 240.118152 
L 255.860614 240.118152 
L 255.975571 242.085337 
L 256.320442 242.085337 
L 256.435399 244.187155 
L 256.895227 244.187155 
L 257.010184 246.333386 
L 257.355055 246.333386 
L 257.470012 248.792868 
L 257.92984 248.792868 
L 258.159754 251.57152 
L 258.504625 251.57152 
L 258.734539 253.914596 
L 258.964453 253.914596 
L 259.07941 256.126898 
L 259.539238 256.126898 
L 259.654195 258.095098 
L 259.999066 258.095098 
L 260.114023 259.713862 
L 260.573851 259.713862 
L 260.688808 260.907451 
L 261.033679 260.907451 
L 261.148636 261.661377 
L 261.493507 261.661377 
L 261.723421 262.019217 
L 262.643077 262.062033 
L 262.872991 261.85728 
L 263.217862 261.85728 
L 263.332819 261.205698 
L 264.022561 261.162043 
L 264.137518 260.610508 
L 264.597346 260.610508 
L 264.712303 259.901879 
L 265.057174 259.901879 
L 265.172131 258.984342 
L 265.631959 258.984342 
L 265.746916 257.811156 
L 266.091787 257.811156 
L 266.206744 256.33377 
L 266.551615 256.33377 
L 266.666572 254.527898 
L 267.1264 254.527898 
L 267.241357 252.406309 
L 267.701186 252.406309 
L 267.816143 249.78569 
L 268.161014 249.78569 
L 268.275971 246.65763 
L 268.735799 246.65763 
L 268.850756 244.08933 
L 269.195627 244.08933 
L 269.310584 241.115301 
L 269.770412 241.115301 
L 269.885369 237.688767 
L 270.23024 237.688767 
L 270.460154 233.720142 
L 270.805025 233.720142 
L 270.919982 230.464245 
L 271.37981 230.464245 
L 271.494767 226.646127 
L 271.839638 226.646127 
L 271.954595 222.558961 
L 272.299466 222.558961 
L 272.414423 218.209049 
L 272.874251 218.209049 
L 272.989208 213.217645 
L 273.449036 213.217645 
L 273.563993 208.04432 
L 273.908864 208.04432 
L 274.138778 202.319508 
L 274.483649 202.319508 
L 274.598606 197.858458 
L 275.058434 197.858458 
L 275.173391 192.449488 
L 275.633219 192.449488 
L 275.748176 186.968058 
L 276.093047 186.968058 
L 276.322961 180.902367 
L 276.667832 180.902367 
L 276.782789 176.125443 
L 277.12766 176.125443 
L 277.242617 170.71884 
L 277.702445 170.71884 
L 277.817402 165.128195 
L 278.162273 165.128195 
L 278.27723 159.331937 
L 278.737058 159.331937 
L 278.852015 153.324753 
L 279.196886 153.324753 
L 279.311843 147.139723 
L 279.656714 147.139723 
L 279.771671 140.843273 
L 280.231499 140.843273 
L 280.346456 134.510906 
L 280.691327 134.510906 
L 280.806284 128.228742 
L 281.151155 128.228742 
L 281.266112 122.042551 
L 281.72594 122.042551 
L 281.840897 115.409427 
L 282.300725 115.409427 
L 282.530639 108.338476 
L 282.760553 108.338476 
L 282.87551 103.482653 
L 283.335338 103.482653 
L 283.450295 97.014705 
L 283.795166 97.014705 
L 284.02508 89.925744 
L 284.369951 89.925744 
L 284.484908 84.374581 
L 284.944736 84.374581 
L 285.059693 78.290747 
L 285.404564 78.290747 
L 285.519521 71.958184 
L 285.979349 71.958184 
L 286.209263 65.773646 
L 286.554134 65.773646 
L 286.669091 61.252199 
L 287.013962 61.252199 
L 287.128919 57.426945 
L 287.588747 57.426945 
L 287.703704 54.274918 
L 288.048575 54.274918 
L 288.163532 51.703124 
L 288.62336 51.703124 
L 288.738317 49.523099 
L 289.083188 49.523099 
L 289.313102 47.874195 
L 289.657973 47.874195 
L 289.77293 47.096315 
L 290.232758 47.096315 
L 290.462672 46.694486 
L 290.807543 46.760202 
L 291.152414 46.806932 
L 291.267371 46.806932 
L 291.497285 47.149526 
L 291.842156 47.149526 
L 291.957113 47.632899 
L 292.301984 47.632899 
L 292.416941 48.081771 
L 292.761812 48.081771 
L 292.991726 48.32952 
L 293.336597 48.32952 
L 293.566511 48.189917 
L 293.796425 48.189917 
L 294.026339 47.567653 
L 294.37121 47.567653 
L 294.486167 46.81165 
L 294.831038 46.81165 
L 294.945995 45.964788 
L 295.405823 45.964788 
L 295.52078 45.293559 
L 295.980608 45.293559 
L 296.210522 44.924655 
L 296.440436 44.924655 
L 296.67035 45.036302 
L 297.015221 45.036302 
L 297.130178 45.499538 
L 297.590006 45.499538 
L 297.704963 46.342121 
L 298.049834 46.342121 
L 298.279748 47.610111 
L 298.624619 47.610111 
L 298.739576 48.753134 
L 299.199404 48.753134 
L 299.314361 50.025479 
L 299.659232 50.025479 
L 299.774189 51.217361 
L 300.234017 51.217361 
L 300.463931 52.013315 
L 301.383587 52.1004 
L 301.498544 51.516052 
L 301.958372 51.516052 
L 302.073329 50.354948 
L 302.4182 50.354948 
L 302.533157 48.900296 
L 302.992985 48.900296 
L 303.107942 47.580509 
L 303.56777 47.580509 
L 303.682727 46.656955 
L 304.027598 46.656955 
L 304.257512 46.340277 
L 306.211781 46.3056 
L 306.441695 46.07502 
L 306.671609 46.07502 
L 306.786566 45.518762 
L 307.246394 45.518762 
L 307.361351 44.698862 
L 307.706222 44.698862 
L 307.821179 43.799015 
L 308.16605 43.799015 
L 308.281007 43.011216 
L 308.740835 43.011216 
L 308.855792 42.481339 
L 309.200663 42.481339 
L 309.430577 42.265744 
L 310.235276 42.329072 
L 310.46519 42.603724 
L 310.810061 42.603724 
L 311.039975 42.988031 
L 311.269889 42.988031 
L 311.499803 43.276372 
L 312.419459 43.30332 
L 312.649373 43.079828 
L 312.879287 43.079828 
L 313.109201 42.678806 
L 313.454072 42.678806 
L 313.683986 42.286356 
L 313.9139 42.286356 
L 314.143814 42.081301 
L 314.488686 42.081301 
L 314.7186 42.213718 
L 315.063471 42.213718 
L 315.178428 42.787955 
L 315.523299 42.787955 
L 315.753213 43.889665 
L 316.098084 43.889665 
L 316.213041 45.153443 
L 316.672869 45.153443 
L 316.787826 46.633711 
L 317.132697 46.633711 
L 317.247654 48.401303 
L 317.707482 48.401303 
L 317.822439 50.242071 
L 318.282267 50.242071 
L 318.397224 52.212966 
L 318.857052 52.212966 
L 318.972009 53.672184 
L 319.31688 53.672184 
L 319.431837 55.206891 
L 319.776708 55.206891 
L 319.891665 56.674599 
L 320.351493 56.674599 
L 320.46645 58.223688 
L 320.811321 58.223688 
L 321.041235 59.841798 
L 321.386106 59.841798 
L 321.501063 61.047428 
L 321.960891 61.047428 
L 322.075848 62.319895 
L 322.420719 62.319895 
L 322.535676 63.548008 
L 322.880547 63.548008 
L 322.995504 64.728815 
L 323.455332 64.728815 
L 323.570289 65.84267 
L 324.030117 65.84267 
L 324.145074 66.934876 
L 324.489945 66.934876 
L 324.719859 67.934543 
L 325.06473 67.934543 
L 325.179687 68.5276 
L 325.639515 68.5276 
L 325.754472 68.998339 
L 326.099343 68.998339 
L 326.329257 69.175271 
L 327.248913 69.078219 
L 327.478827 68.774632 
L 327.708741 68.774632 
L 327.938655 68.413769 
L 328.283526 68.413769 
L 328.51344 68.229677 
L 329.318139 68.199461 
L 329.548053 68.3739 
L 329.777967 68.3739 
L 330.007881 68.75801 
L 330.352752 68.75801 
L 330.582666 69.15457 
L 330.81258 69.15457 
L 331.042494 69.564667 
L 331.387365 69.564667 
L 331.617279 69.852622 
L 332.421978 69.792942 
L 332.651892 69.380134 
L 332.996763 69.380134 
L 333.11172 68.532036 
L 333.456591 68.532036 
L 333.571548 67.325392 
L 334.031376 67.325392 
L 334.146333 65.72245 
L 334.491204 65.72245 
L 334.721118 63.849454 
L 335.065989 63.849454 
L 335.180946 62.411206 
L 335.525817 62.411206 
L 335.640774 60.88237 
L 336.100602 60.88237 
L 336.215559 59.399243 
L 336.56043 59.399243 
L 336.675387 57.922487 
L 337.135215 57.922487 
L 337.250172 56.228438 
L 337.71 56.228438 
L 337.824957 54.339136 
L 338.284785 54.339136 
L 338.399742 52.238786 
L 338.744613 52.238786 
L 338.974527 49.915581 
L 339.319398 49.915581 
L 339.434355 48.271585 
L 339.779226 48.271585 
L 339.894183 46.758329 
L 340.354011 46.758329 
L 340.468968 45.530781 
L 340.928796 45.530781 
L 341.043753 44.702062 
L 341.503581 44.702062 
L 341.618538 44.182999 
L 341.963409 44.182999 
L 342.193323 43.837879 
L 342.538194 43.837879 
L 342.768108 43.635231 
L 343.112979 43.635231 
L 343.342893 43.443258 
L 343.572807 43.443258 
L 343.802721 43.239876 
L 344.147592 43.239876 
L 344.377506 43.085157 
L 344.722377 43.085157 
L 344.952291 42.92558 
L 345.182205 42.92558 
L 345.412119 42.78693 
L 346.216818 42.677252 
L 346.446732 42.601388 
L 350.010399 42.490456 
L 350.35527 42.450669 
L 351.50484 42.347011 
L 351.849711 42.29224 
L 353.689023 42.29733 
L 353.918937 42.426353 
L 354.263808 42.426353 
L 354.493722 42.541713 
L 354.723636 42.541713 
L 354.95355 42.675669 
L 355.298421 42.675669 
L 355.528335 42.863244 
L 355.873206 42.863244 
L 356.10312 43.211697 
L 356.333034 43.211697 
L 356.447991 43.802299 
L 356.907819 43.802299 
L 357.022776 44.784031 
L 357.482604 44.784031 
L 357.597561 46.12057 
L 357.942432 46.12057 
L 358.172346 47.900532 
L 358.517217 47.900532 
L 358.632174 49.430026 
L 358.977045 49.430026 
L 359.092002 51.185565 
L 359.55183 51.185565 
L 359.666787 52.961264 
L 360.011658 52.961264 
L 360.126615 54.704609 
L 360.586443 54.704609 
L 360.7014 56.395314 
L 361.046271 56.395314 
L 361.161229 58.02521 
L 361.5061 58.02521 
L 361.621057 59.623397 
L 362.080885 59.623397 
L 362.195842 61.326679 
L 362.65567 61.326679 
L 362.770627 62.97694 
L 363.115498 62.97694 
L 363.230455 64.427386 
L 363.690283 64.427386 
L 363.80524 65.945771 
L 364.265068 65.945771 
L 364.380025 67.478783 
L 364.724896 67.478783 
L 364.839853 68.561778 
L 365.299681 68.561778 
L 365.414638 69.63166 
L 365.759509 69.63166 
L 365.874466 70.537725 
L 366.334294 70.537725 
L 366.449251 71.237816 
L 366.794122 71.237816 
L 366.909079 71.699618 
L 367.368907 71.699618 
L 367.598821 71.963499 
L 367.828735 71.963499 
L 368.058649 72.191607 
L 368.40352 72.191607 
L 368.633434 72.531254 
L 368.978305 72.531254 
L 369.093262 73.163662 
L 369.55309 73.163662 
L 369.668047 74.218793 
L 370.012918 74.218793 
L 370.127875 75.278159 
L 370.587703 75.278159 
L 370.70266 76.611263 
L 371.047531 76.611263 
L 371.162488 78.002325 
L 371.622316 78.002325 
L 371.737273 79.302403 
L 372.082144 79.302403 
L 372.197101 80.365704 
L 372.541972 80.365704 
L 372.656929 81.091654 
L 373.116757 81.091654 
L 373.346671 81.401646 
L 374.15137 81.310867 
L 374.381284 80.901602 
L 374.611198 80.901602 
L 374.726155 80.305513 
L 375.185983 80.305513 
L 375.30094 79.633916 
L 375.645811 79.633916 
L 375.760768 78.988482 
L 376.105639 78.988482 
L 376.220596 78.412803 
L 376.680424 78.412803 
L 376.795381 77.890666 
L 377.140252 77.890666 
L 377.255209 77.354134 
L 377.715037 77.354134 
L 377.829994 76.630178 
L 378.289822 76.630178 
L 378.404779 75.676358 
L 378.74965 75.676358 
L 378.864607 74.380304 
L 379.324435 74.380304 
L 379.439392 72.697701 
L 379.89922 72.697701 
L 380.014177 70.469851 
L 380.359048 70.469851 
L 380.474005 68.51664 
L 380.933833 68.51664 
L 381.04879 66.179905 
L 381.393661 66.179905 
L 381.508618 63.687008 
L 381.968446 63.687008 
L 382.083403 61.048985 
L 382.428274 61.048985 
L 382.543231 58.29596 
L 382.888102 58.29596 
L 383.003059 55.539088 
L 383.462887 55.539088 
L 383.577844 52.725407 
L 384.037672 52.725407 
L 384.152629 50.28376 
L 384.4975 50.28376 
L 384.727414 48.136692 
L 385.072285 48.136692 
L 385.187242 46.843304 
L 385.64707 46.843304 
L 385.762027 45.686537 
L 386.106898 45.686537 
L 386.221855 44.897123 
L 386.681683 44.897123 
L 386.79664 44.443081 
L 387.141511 44.443081 
L 387.371425 44.108206 
L 387.716296 44.108206 
L 387.94621 43.894271 
L 388.176124 43.894271 
L 388.406038 43.740188 
L 388.750909 43.740188 
L 388.980823 43.579112 
L 389.210737 43.579112 
L 389.440651 43.359588 
L 389.785522 43.359588 
L 390.015436 43.202665 
L 390.24535 43.202665 
L 390.475264 42.988058 
L 390.820135 42.988058 
L 391.050049 42.700305 
L 391.279963 42.700305 
L 391.509877 42.380115 
L 391.854748 42.380115 
L 392.084662 42.08486 
L 393.464146 42.173597 
L 393.579103 42.758901 
L 393.923974 42.758901 
L 394.153888 43.840561 
L 394.498759 43.840561 
L 394.613716 44.937126 
L 395.073544 44.937126 
L 395.188501 46.318155 
L 395.533372 46.318155 
L 395.648329 47.789208 
L 395.9932 47.789208 
L 396.108157 49.273395 
L 396.567985 49.273395 
L 396.682942 50.840615 
L 397.14277 50.840615 
L 397.257727 52.448831 
L 397.602598 52.448831 
L 397.717555 53.625757 
L 398.177383 53.625757 
L 398.407297 55.005229 
L 398.752168 55.005229 
L 398.867125 56.485088 
L 399.211996 56.485088 
L 399.326953 57.622097 
L 399.786781 57.622097 
L 399.901738 58.854967 
L 400.246609 58.854967 
L 400.361566 60.059231 
L 400.821394 60.059231 
L 400.936351 61.220855 
L 401.281222 61.220855 
L 401.396179 62.413691 
L 401.856007 62.413691 
L 402.085921 63.633511 
L 402.430792 63.633511 
L 402.545749 64.525296 
L 402.89062 64.525296 
L 403.005577 65.383871 
L 403.350448 65.383871 
L 403.465405 66.053675 
L 403.925233 66.053675 
L 404.04019 66.51854 
L 404.385061 66.51854 
L 404.614975 66.763932 
L 405.419674 66.765604 
L 405.649588 66.467266 
L 405.994459 66.467266 
L 406.109416 66.010834 
L 406.569244 66.010834 
L 406.684201 65.304722 
L 407.029072 65.304722 
L 407.144029 64.46769 
L 407.4889 64.46769 
L 407.603857 63.602417 
L 408.063686 63.602417 
L 408.178643 62.764952 
L 408.523514 62.764952 
L 408.638471 62.006251 
L 409.098299 62.006251 
L 409.213256 61.343387 
L 409.558127 61.343387 
L 409.673084 60.770078 
L 410.132912 60.770078 
L 410.247869 60.204224 
L 410.59274 60.204224 
L 410.822654 59.508681 
L 411.167525 59.508681 
L 411.282482 58.821988 
L 411.627353 58.821988 
L 411.74231 57.917957 
L 412.202138 57.917957 
L 412.317095 56.485793 
L 412.661966 56.485793 
L 412.89188 54.440262 
L 413.236751 54.440262 
L 413.351708 52.337519 
L 413.811536 52.337519 
L 413.926493 50.02441 
L 414.386321 50.02441 
L 414.501278 47.636065 
L 414.846149 47.636065 
L 414.961106 45.729069 
L 415.420934 45.729069 
L 415.650848 44.369671 
L 415.995719 44.369671 
L 416.110676 43.819929 
L 416.455547 43.819929 
L 416.685461 43.570391 
L 419.214515 43.468468 
L 419.444429 43.228058 
L 419.674343 43.228058 
L 419.904257 42.911019 
L 420.249128 42.911019 
L 420.479042 42.595787 
L 420.823913 42.595787 
L 421.053827 42.425944 
L 422.893139 42.48113 
L 423.123053 42.636546 
L 423.352967 42.636546 
L 423.582881 42.792447 
L 423.927752 42.792447 
L 424.157666 42.911875 
L 425.882021 42.882812 
L 426.111935 42.767623 
L 426.456806 42.767623 
L 426.68672 42.628611 
L 427.031591 42.628611 
L 427.261505 42.508618 
L 431.285 42.532068 
L 431.285 42.532068 
" clip-path="url(#p24d386f19b)" style="fill: none; stroke: #ff0000; stroke-width: 1.5; stroke-linecap: square"/>
   </g>
   <g id="line2d_28">
    <path d="M 56.985 109.809636 
L 57.099957 109.809636 
L 57.214914 102.738817 
L 57.559785 102.738817 
L 57.674742 96.489185 
L 58.13457 96.489185 
L 58.249527 90.662488 
L 58.709355 90.662488 
L 58.824312 85.89208 
L 59.169183 85.89208 
L 59.399097 81.884611 
L 59.858925 81.884611 
L 59.973882 79.364983 
L 60.318753 79.364983 
L 60.43371 77.408014 
L 60.893538 77.408014 
L 61.008495 76.123261 
L 61.468323 76.123261 
L 61.58328 75.259701 
L 61.928151 75.259701 
L 62.043108 74.807045 
L 62.502936 74.807045 
L 62.617893 74.325517 
L 63.077721 74.325517 
L 63.192678 73.772295 
L 63.537549 73.772295 
L 63.652506 73.317185 
L 64.112334 73.317185 
L 64.227291 72.784572 
L 64.687119 72.784572 
L 64.802076 72.319247 
L 65.261904 72.319247 
L 65.491818 72.092315 
L 66.296517 72.068797 
L 66.526431 72.291303 
L 66.871302 72.291303 
L 66.986259 72.745412 
L 67.446087 72.745412 
L 67.561044 73.357459 
L 67.905915 73.357459 
L 68.020872 74.059828 
L 68.4807 74.059828 
L 68.595657 74.558492 
L 69.055485 74.558492 
L 69.285399 74.87723 
L 70.090098 74.850947 
L 70.320012 74.555291 
L 70.664883 74.555291 
L 70.77984 73.995662 
L 71.124711 73.995662 
L 71.239668 73.213792 
L 71.699496 73.213792 
L 71.814453 72.411217 
L 72.274281 72.411217 
L 72.389238 71.741718 
L 72.734109 71.741718 
L 72.964023 71.368646 
L 73.308894 71.368646 
L 73.538808 71.199095 
L 73.883679 71.199095 
L 74.113593 71.338828 
L 74.343507 71.338828 
L 74.573421 71.738078 
L 74.918292 71.738078 
L 75.033249 72.350835 
L 75.493077 72.350835 
L 75.608034 72.852525 
L 75.952905 72.852525 
L 76.067862 73.341896 
L 76.412733 73.341896 
L 76.642647 73.687326 
L 76.987518 73.687326 
L 77.217432 73.867715 
L 77.562303 73.867715 
L 77.792217 74.020106 
L 78.596916 74.007476 
L 78.82683 73.776657 
L 79.171701 73.776657 
L 79.286658 73.31437 
L 79.631529 73.31437 
L 79.746486 72.726857 
L 80.206314 72.726857 
L 80.321271 72.141317 
L 80.7811 72.141317 
L 80.896057 71.642908 
L 81.355885 71.642908 
L 81.585799 71.42392 
L 82.390498 71.451307 
L 82.620412 71.836725 
L 82.965283 71.836725 
L 83.08024 72.468352 
L 83.540068 72.468352 
L 83.655025 73.377086 
L 83.999896 73.377086 
L 84.114853 74.556123 
L 84.574681 74.556123 
L 84.689638 76.137359 
L 85.034509 76.137359 
L 85.264423 78.145896 
L 85.609294 78.145896 
L 85.724251 80.029451 
L 86.184079 80.029451 
L 86.299036 82.176429 
L 86.758864 82.176429 
L 86.873821 84.498271 
L 87.218692 84.498271 
L 87.333649 86.206423 
L 87.793477 86.206423 
L 87.908434 87.942692 
L 88.253305 87.942692 
L 88.368262 89.475745 
L 88.82809 89.475745 
L 88.943047 90.893855 
L 89.287918 90.893855 
L 89.517832 92.14848 
L 89.97766 92.14848 
L 90.092617 93.040695 
L 90.437488 93.040695 
L 90.552445 93.915934 
L 91.012273 93.915934 
L 91.242187 94.830623 
L 91.587058 94.830623 
L 91.702015 95.52567 
L 92.046886 95.52567 
L 92.161843 96.233038 
L 92.506714 96.233038 
L 92.621671 96.780633 
L 93.081499 96.780633 
L 93.311413 97.139655 
L 93.541327 97.139655 
L 93.771241 97.285959 
L 94.57594 97.176861 
L 94.805854 96.772466 
L 95.150725 96.772466 
L 95.265682 96.062175 
L 95.72551 96.062175 
L 95.840467 94.604662 
L 96.185338 94.604662 
L 96.300295 93.242484 
L 96.760123 93.242484 
L 96.87508 91.668024 
L 97.219951 91.668024 
L 97.449865 89.826237 
L 97.794736 89.826237 
L 97.909693 88.18601 
L 98.369521 88.18601 
L 98.484478 86.760018 
L 98.829349 86.760018 
L 99.059263 85.604846 
L 99.404134 85.604846 
L 99.519091 85.040154 
L 99.863962 85.040154 
L 100.093876 84.843098 
L 100.438747 84.843098 
L 100.668661 85.028293 
L 100.898575 85.028293 
L 101.013532 85.48432 
L 101.47336 85.48432 
L 101.588317 85.921905 
L 101.933188 85.921905 
L 102.163102 86.032193 
L 102.507973 86.032193 
L 102.737887 85.672978 
L 103.082758 85.672978 
L 103.197715 84.601657 
L 103.657543 84.601657 
L 103.7725 82.875807 
L 104.232328 82.875807 
L 104.347285 80.72186 
L 104.692156 80.72186 
L 104.92207 78.21822 
L 105.266941 78.21822 
L 105.381898 76.339318 
L 105.726769 76.339318 
L 105.841726 74.4606 
L 106.301554 74.4606 
L 106.416511 72.742527 
L 106.761382 72.742527 
L 106.991296 71.363421 
L 107.336167 71.363421 
L 107.451124 70.67504 
L 107.910952 70.67504 
L 108.140866 70.296217 
L 108.945565 70.295165 
L 109.175479 70.634759 
L 109.52035 70.634759 
L 109.635307 71.195859 
L 109.980178 71.195859 
L 110.210092 71.884379 
L 110.554963 71.884379 
L 110.66992 72.358587 
L 111.129748 72.358587 
L 111.359662 72.732457 
L 111.589576 72.732457 
L 111.81949 72.90956 
L 112.739146 72.836632 
L 112.96906 72.562183 
L 113.313931 72.562183 
L 113.543845 72.176095 
L 113.888716 72.176095 
L 114.11863 71.77527 
L 114.348544 71.77527 
L 114.578458 71.42433 
L 114.923329 71.42433 
L 115.153243 71.245608 
L 116.532727 71.266275 
L 116.762641 71.444662 
L 117.107512 71.444662 
L 117.337426 71.606716 
L 117.56734 71.606716 
L 117.797254 71.775234 
L 118.71691 71.875622 
L 119.291695 71.892619 
L 119.636566 71.832478 
L 119.751523 71.832478 
L 119.981437 71.7081 
L 120.326308 71.7081 
L 120.556222 71.59534 
L 121.360921 71.486456 
L 121.590835 71.379161 
L 122.970319 71.269369 
L 124.004932 71.248681 
L 129.86774 70.774438 
L 132.511751 70.6849 
L 133.201493 70.632103 
L 136.190375 70.526839 
L 137.110031 70.488072 
L 138.949343 70.392978 
L 139.524128 70.364365 
L 140.21387 70.320467 
L 143.777537 70.225317 
L 144.697193 70.191466 
L 149.525387 70.082278 
L 152.169398 70.054665 
L 164.469797 70.165117 
L 166.194152 70.184801 
L 172.746701 70.291192 
L 173.896271 70.337818 
L 178.149681 70.433928 
L 178.839423 70.480766 
L 182.173176 70.589147 
L 182.862918 70.639783 
L 185.8518 70.735125 
L 186.656499 70.780852 
L 189.070596 70.890411 
L 190.105209 70.944928 
L 192.74922 71.044185 
L 193.438962 71.095915 
L 196.312887 71.19364 
L 197.002629 71.243961 
L 199.991511 71.35018 
L 200.79621 71.397743 
L 203.09535 71.499879 
L 203.900049 71.539249 
L 205.739361 71.623398 
L 206.199189 71.653548 
L 208.498329 71.755271 
L 209.303028 71.800316 
L 211.717125 71.896285 
L 211.947039 72.022771 
L 212.29191 72.022771 
L 212.521824 72.185432 
L 214.935921 72.293303 
L 215.280792 72.368462 
L 215.510706 72.368462 
L 215.74062 72.497789 
L 215.970534 72.497789 
L 216.200448 72.7197 
L 216.430362 72.7197 
L 216.660276 73.017765 
L 217.005147 73.017765 
L 217.235061 73.396629 
L 217.464975 73.396629 
L 217.579932 73.876031 
L 218.03976 73.876031 
L 218.154717 74.581098 
L 218.614545 74.581098 
L 218.729502 75.553604 
L 219.18933 75.553604 
L 219.304287 76.886772 
L 219.649158 76.886772 
L 219.764115 78.63179 
L 220.223943 78.63179 
L 220.3389 80.99936 
L 220.798729 80.99936 
L 220.913686 83.343544 
L 221.373514 83.343544 
L 221.488471 86.178305 
L 221.833342 86.178305 
L 222.063256 89.425379 
L 222.408127 89.425379 
L 222.523084 91.919337 
L 222.982912 91.919337 
L 223.097869 94.767859 
L 223.44274 94.767859 
L 223.672654 97.575977 
L 224.017525 97.575977 
L 224.132482 99.505772 
L 224.477353 99.505772 
L 224.59231 101.390343 
L 225.052138 101.390343 
L 225.167095 103.183288 
L 225.511966 103.183288 
L 225.626923 104.498147 
L 225.971794 104.498147 
L 226.086751 105.680546 
L 226.546579 105.680546 
L 226.661536 106.859101 
L 227.006407 106.859101 
L 227.121364 108.022623 
L 227.581192 108.022623 
L 227.811106 109.142348 
L 228.155977 109.142348 
L 228.270934 109.975271 
L 228.615805 109.975271 
L 228.730762 110.825745 
L 229.19059 110.825745 
L 229.420504 111.729523 
L 229.765375 111.729523 
L 229.880332 112.599541 
L 230.225203 112.599541 
L 230.34016 113.70365 
L 230.685031 113.70365 
L 230.799988 114.972044 
L 231.259816 114.972044 
L 231.374773 116.501517 
L 231.834601 116.501517 
L 231.949558 118.303932 
L 232.294429 118.303932 
L 232.409386 119.796384 
L 232.869214 119.796384 
L 232.984171 121.560204 
L 233.443999 121.560204 
L 233.558956 123.562077 
L 233.903827 123.562077 
L 234.018784 125.529828 
L 234.478612 125.529828 
L 234.708526 127.336828 
L 235.053397 127.336828 
L 235.168354 128.247257 
L 235.513225 128.247257 
L 235.743139 128.604534 
L 235.973053 128.604534 
L 236.202967 128.307572 
L 236.547838 128.307572 
L 236.662795 127.470746 
L 237.122623 127.470746 
L 237.23758 126.42048 
L 237.697408 126.42048 
L 237.812365 125.821427 
L 238.732021 125.841092 
L 238.846978 126.840688 
L 239.306806 126.840688 
L 239.53672 129.221694 
L 239.881591 129.221694 
L 239.996548 132.3476 
L 240.341419 132.3476 
L 240.456376 136.482252 
L 240.916204 136.482252 
L 241.031161 141.574886 
L 241.376032 141.574886 
L 241.490989 147.521705 
L 241.950817 147.521705 
L 242.065774 154.128958 
L 242.410645 154.128958 
L 242.525602 161.730768 
L 242.98543 161.730768 
L 243.100387 169.268886 
L 243.560215 169.268886 
L 243.675172 176.289257 
L 244.020043 176.289257 
L 244.249957 182.972855 
L 244.594828 182.972855 
L 244.709785 187.399088 
L 245.169613 187.399088 
L 245.28457 191.634584 
L 245.629441 191.634584 
L 245.744398 195.720842 
L 246.204226 195.720842 
L 246.319183 199.874998 
L 246.779011 199.874998 
L 246.893968 203.440413 
L 247.353796 203.440413 
L 247.468753 207.592875 
L 247.813624 207.592875 
L 248.043538 212.517754 
L 248.388409 212.517754 
L 248.503366 216.996552 
L 248.963194 216.996552 
L 249.078151 221.589253 
L 249.537979 221.589253 
L 249.652936 226.42563 
L 249.997807 226.42563 
L 250.227721 231.175823 
L 250.572592 231.175823 
L 250.687549 234.333677 
L 251.03242 234.333677 
L 251.147377 237.313735 
L 251.607205 237.313735 
L 251.722162 239.91956 
L 252.067033 239.91956 
L 252.18199 242.615661 
L 252.641818 242.615661 
L 252.756775 245.731157 
L 253.216603 245.731157 
L 253.33156 248.475592 
L 253.676431 248.475592 
L 253.791388 251.954565 
L 254.251216 251.954565 
L 254.366173 256.295867 
L 254.826001 256.295867 
L 254.940958 261.041624 
L 255.285829 261.041624 
L 255.515743 266.243903 
L 255.860614 266.243903 
L 255.975571 269.961334 
L 256.320442 269.961334 
L 256.435399 273.482636 
L 256.895227 273.482636 
L 257.010184 276.289461 
L 257.355055 276.289461 
L 257.470012 278.567468 
L 257.92984 278.567468 
L 258.159754 280.318 
L 258.504625 280.318 
L 258.734539 281.45103 
L 258.964453 281.45103 
L 259.07941 282.480575 
L 259.539238 282.480575 
L 259.654195 283.569102 
L 259.999066 283.569102 
L 260.114023 284.803578 
L 260.573851 284.803578 
L 260.688808 286.177511 
L 261.033679 286.177511 
L 261.148636 287.602824 
L 261.493507 287.602824 
L 261.608464 288.940968 
L 262.068292 288.940968 
L 262.183249 290.131394 
L 262.643077 290.131394 
L 262.758034 290.895473 
L 263.217862 290.895473 
L 263.447776 291.06 
L 264.022561 291.033371 
L 264.137518 290.529049 
L 264.597346 290.529049 
L 264.712303 289.686962 
L 265.057174 289.686962 
L 265.172131 288.578532 
L 265.631959 288.578532 
L 265.746916 287.264686 
L 266.091787 287.264686 
L 266.206744 285.766077 
L 266.551615 285.766077 
L 266.666572 284.066078 
L 267.1264 284.066078 
L 267.241357 282.131849 
L 267.701186 282.131849 
L 267.816143 279.720298 
L 268.161014 279.720298 
L 268.275971 276.726349 
L 268.735799 276.726349 
L 268.850756 274.159658 
L 269.195627 274.159658 
L 269.310584 271.089201 
L 269.770412 271.089201 
L 269.885369 267.485344 
L 270.23024 267.485344 
L 270.460154 263.329632 
L 270.805025 263.329632 
L 270.919982 259.990955 
L 271.37981 259.990955 
L 271.494767 256.181312 
L 271.839638 256.181312 
L 271.954595 252.206232 
L 272.299466 252.206232 
L 272.414423 248.030124 
L 272.874251 248.030124 
L 272.989208 243.218146 
L 273.449036 243.218146 
L 273.563993 238.120744 
L 273.908864 238.120744 
L 274.138778 232.285175 
L 274.483649 232.285175 
L 274.598606 227.59063 
L 275.058434 227.59063 
L 275.173391 221.769877 
L 275.633219 221.769877 
L 275.748176 215.819239 
L 276.093047 215.819239 
L 276.322961 209.315681 
L 276.667832 209.315681 
L 276.782789 204.335606 
L 277.12766 204.335606 
L 277.242617 198.905526 
L 277.702445 198.905526 
L 277.817402 193.520183 
L 278.162273 193.520183 
L 278.27723 188.129761 
L 278.737058 188.129761 
L 278.852015 182.635881 
L 279.196886 182.635881 
L 279.311843 176.923908 
L 279.656714 176.923908 
L 279.771671 170.894158 
L 280.231499 170.894158 
L 280.346456 164.476998 
L 280.691327 164.476998 
L 280.806284 157.677895 
L 281.151155 157.677895 
L 281.266112 150.545516 
L 281.72594 150.545516 
L 281.840897 142.497187 
L 282.300725 142.497187 
L 282.530639 133.675826 
L 282.760553 133.675826 
L 282.87551 127.640419 
L 283.335338 127.640419 
L 283.450295 119.850313 
L 283.795166 119.850313 
L 284.02508 111.902974 
L 284.369951 111.902974 
L 284.484908 106.219276 
L 284.944736 106.219276 
L 285.059693 100.494987 
L 285.404564 100.494987 
L 285.519521 95.003968 
L 285.979349 95.003968 
L 286.209263 90.038868 
L 286.554134 90.038868 
L 286.669091 86.665678 
L 287.013962 86.665678 
L 287.128919 84.023273 
L 287.588747 84.023273 
L 287.703704 82.038673 
L 288.048575 82.038673 
L 288.163532 80.542895 
L 288.62336 80.542895 
L 288.738317 79.212535 
L 289.083188 79.212535 
L 289.313102 77.763374 
L 289.657973 77.763374 
L 289.77293 76.435463 
L 290.232758 76.435463 
L 290.347715 74.483815 
L 290.692586 74.483815 
L 290.9225 71.988476 
L 291.267371 71.988476 
L 291.382328 69.968526 
L 291.842156 69.968526 
L 291.957113 67.896493 
L 292.301984 67.896493 
L 292.416941 66.235015 
L 292.761812 66.235015 
L 292.876769 65.183285 
L 293.336597 65.183285 
L 293.566511 64.856896 
L 293.796425 64.856896 
L 294.026339 65.409524 
L 294.37121 65.409524 
L 294.486167 66.490334 
L 294.831038 66.490334 
L 294.945995 68.209301 
L 295.405823 68.209301 
L 295.52078 70.274918 
L 295.980608 70.274918 
L 296.095565 72.577859 
L 296.440436 72.577859 
L 296.555393 74.614597 
L 297.015221 74.614597 
L 297.130178 75.548823 
L 298.049834 75.566109 
L 298.279748 74.659635 
L 298.624619 74.659635 
L 298.739576 73.634768 
L 299.199404 73.634768 
L 299.314361 72.513786 
L 299.659232 72.513786 
L 299.774189 71.630799 
L 300.234017 71.630799 
L 300.463931 71.35657 
L 300.808802 71.35657 
L 301.038716 71.758526 
L 301.383587 71.758526 
L 301.498544 72.767114 
L 301.958372 72.767114 
L 302.073329 74.089513 
L 302.4182 74.089513 
L 302.533157 75.302267 
L 302.992985 75.302267 
L 303.107942 76.115493 
L 303.56777 76.115493 
L 303.797684 76.442232 
L 304.027598 76.442232 
L 304.257512 76.262859 
L 304.602383 76.262859 
L 304.71734 75.621227 
L 305.177168 75.621227 
L 305.292125 74.472641 
L 305.636996 74.472641 
L 305.86691 72.978141 
L 306.211781 72.978141 
L 306.326738 71.861119 
L 306.671609 71.861119 
L 306.786566 70.817021 
L 307.246394 70.817021 
L 307.361351 70.07556 
L 307.706222 70.07556 
L 307.936136 69.716615 
L 308.740835 69.75783 
L 308.970749 70.168006 
L 309.200663 70.168006 
L 309.31562 70.854106 
L 309.775448 70.854106 
L 309.890405 71.663586 
L 310.235276 71.663586 
L 310.350233 72.413104 
L 310.810061 72.413104 
L 310.925018 72.914594 
L 312.419459 72.819642 
L 312.649373 72.478101 
L 312.879287 72.478101 
L 313.109201 72.104779 
L 313.454072 72.104779 
L 313.683986 71.846539 
L 314.488686 71.807104 
L 314.7186 72.056781 
L 315.063471 72.056781 
L 315.178428 72.582001 
L 315.523299 72.582001 
L 315.753213 73.337195 
L 316.098084 73.337195 
L 316.213041 74.010777 
L 316.672869 74.010777 
L 316.787826 74.617663 
L 317.132697 74.617663 
L 317.247654 75.161177 
L 317.707482 75.161177 
L 317.822439 75.615685 
L 318.282267 75.615685 
L 318.397224 76.098838 
L 318.857052 76.098838 
L 318.972009 76.559697 
L 319.31688 76.559697 
L 319.431837 77.256386 
L 319.776708 77.256386 
L 319.891665 78.230498 
L 320.351493 78.230498 
L 320.46645 79.675602 
L 320.811321 79.675602 
L 321.041235 81.693917 
L 321.386106 81.693917 
L 321.501063 83.533409 
L 321.960891 83.533409 
L 322.075848 85.765626 
L 322.420719 85.765626 
L 322.535676 88.130786 
L 322.880547 88.130786 
L 322.995504 90.514188 
L 323.455332 90.514188 
L 323.570289 92.789218 
L 324.030117 92.789218 
L 324.145074 95.013227 
L 324.489945 95.013227 
L 324.719859 97.004718 
L 325.06473 97.004718 
L 325.179687 98.154749 
L 325.639515 98.154749 
L 325.754472 99.015614 
L 326.099343 99.015614 
L 326.329257 99.214376 
L 326.674128 99.214376 
L 326.904042 98.804297 
L 327.248913 98.804297 
L 327.36387 97.694104 
L 327.708741 97.694104 
L 327.938655 95.88749 
L 328.283526 95.88749 
L 328.398483 94.033138 
L 328.858311 94.033138 
L 328.973268 92.007866 
L 329.318139 92.007866 
L 329.433096 90.002016 
L 329.777967 90.002016 
L 330.007881 88.038125 
L 330.352752 88.038125 
L 330.467709 86.72029 
L 330.81258 86.72029 
L 330.927537 85.728439 
L 331.387365 85.728439 
L 331.502322 85.286336 
L 331.847193 85.286336 
L 332.077107 85.582293 
L 332.421978 85.582293 
L 332.536935 86.290458 
L 332.996763 86.290458 
L 333.11172 87.405623 
L 333.456591 87.405623 
L 333.571548 88.657089 
L 334.031376 88.657089 
L 334.146333 89.872434 
L 334.491204 89.872434 
L 334.721118 90.682275 
L 335.525817 90.778439 
L 335.640774 90.287473 
L 336.100602 90.287473 
L 336.215559 89.190848 
L 336.56043 89.190848 
L 336.675387 87.589818 
L 337.135215 87.589818 
L 337.250172 85.427471 
L 337.71 85.427471 
L 337.824957 83.000818 
L 338.284785 83.000818 
L 338.399742 80.49893 
L 338.744613 80.49893 
L 338.974527 77.979377 
L 339.319398 77.979377 
L 339.434355 76.33667 
L 339.779226 76.33667 
L 339.894183 74.938336 
L 340.354011 74.938336 
L 340.468968 73.932002 
L 340.928796 73.932002 
L 341.043753 73.391153 
L 341.503581 73.391153 
L 341.733495 73.18848 
L 344.722377 73.083943 
L 344.952291 72.955972 
L 345.182205 72.955972 
L 345.412119 72.82324 
L 345.642033 72.82324 
L 345.871947 72.706326 
L 346.791603 72.619263 
L 347.136474 72.563649 
L 350.470227 72.47839 
L 350.815098 72.432523 
L 352.079625 72.329087 
L 352.424496 72.282047 
L 354.263808 72.384206 
L 355.183464 72.363843 
L 356.907819 72.358116 
L 357.137733 72.511211 
L 357.482604 72.511211 
L 357.712518 72.787046 
L 357.942432 72.787046 
L 358.172346 73.222518 
L 358.517217 73.222518 
L 358.632174 73.658894 
L 358.977045 73.658894 
L 359.092002 74.255547 
L 359.55183 74.255547 
L 359.666787 75.02542 
L 360.011658 75.02542 
L 360.126615 76.01621 
L 360.586443 76.01621 
L 360.7014 77.278183 
L 361.046271 77.278183 
L 361.161229 78.839489 
L 361.5061 78.839489 
L 361.621057 80.721847 
L 362.080885 80.721847 
L 362.195842 83.103461 
L 362.65567 83.103461 
L 362.770627 85.743922 
L 363.115498 85.743922 
L 363.230455 88.286608 
L 363.690283 88.286608 
L 363.80524 91.077933 
L 364.265068 91.077933 
L 364.380025 93.966749 
L 364.724896 93.966749 
L 364.839853 96.022555 
L 365.299681 96.022555 
L 365.414638 98.051047 
L 365.759509 98.051047 
L 365.874466 99.755767 
L 366.334294 99.755767 
L 366.449251 101.036305 
L 366.794122 101.036305 
L 366.909079 101.781186 
L 367.368907 101.781186 
L 367.598821 101.895299 
L 367.828735 101.895299 
L 368.058649 101.269584 
L 368.40352 101.269584 
L 368.518477 100.249121 
L 368.978305 100.249121 
L 369.093262 98.757152 
L 369.55309 98.757152 
L 369.668047 96.946575 
L 370.012918 96.946575 
L 370.127875 95.629029 
L 370.587703 95.629029 
L 370.70266 94.458234 
L 371.047531 94.458234 
L 371.162488 93.757988 
L 372.082144 93.6599 
L 372.197101 94.227833 
L 372.541972 94.227833 
L 372.656929 95.452801 
L 373.116757 95.452801 
L 373.231714 97.24053 
L 373.576585 97.24053 
L 373.691542 99.410303 
L 374.15137 99.410303 
L 374.266327 101.709232 
L 374.611198 101.709232 
L 374.726155 103.86616 
L 375.185983 103.86616 
L 375.30094 105.63096 
L 375.645811 105.63096 
L 375.760768 106.849191 
L 376.105639 106.849191 
L 376.220596 107.459545 
L 377.140252 107.490411 
L 377.255209 107.034659 
L 377.715037 107.034659 
L 377.829994 106.117182 
L 378.289822 106.117182 
L 378.404779 104.922668 
L 378.74965 104.922668 
L 378.864607 103.529557 
L 379.324435 103.529557 
L 379.439392 101.947193 
L 379.89922 101.947193 
L 380.014177 99.986801 
L 380.359048 99.986801 
L 380.474005 98.263944 
L 380.933833 98.263944 
L 381.04879 96.127109 
L 381.393661 96.127109 
L 381.508618 93.73243 
L 381.968446 93.73243 
L 382.083403 91.085106 
L 382.428274 91.085106 
L 382.543231 88.244753 
L 382.888102 88.244753 
L 383.003059 85.369378 
L 383.462887 85.369378 
L 383.577844 82.439994 
L 384.037672 82.439994 
L 384.152629 79.931653 
L 384.4975 79.931653 
L 384.727414 77.791725 
L 385.072285 77.791725 
L 385.187242 76.557889 
L 385.64707 76.557889 
L 385.762027 75.516126 
L 386.106898 75.516126 
L 386.221855 74.854743 
L 386.681683 74.854743 
L 386.911597 74.483758 
L 387.141511 74.483758 
L 387.371425 74.179737 
L 387.716296 74.179737 
L 387.94621 73.916414 
L 388.176124 73.916414 
L 388.406038 73.639538 
L 388.750909 73.639538 
L 388.980823 73.297472 
L 389.210737 73.297472 
L 389.440651 72.88897 
L 389.785522 72.88897 
L 390.015436 72.603171 
L 390.24535 72.603171 
L 390.475264 72.321121 
L 390.820135 72.321121 
L 391.050049 72.1048 
L 391.279963 72.1048 
L 391.509877 71.973565 
L 392.889361 71.870854 
L 393.349189 71.841087 
L 393.923974 71.768337 
L 394.153888 71.615936 
L 394.498759 71.615936 
L 394.728673 71.440653 
L 395.073544 71.440653 
L 395.303458 71.209611 
L 395.533372 71.209611 
L 395.763286 71.004637 
L 396.567985 70.93188 
L 396.797899 71.135036 
L 397.14277 71.135036 
L 397.257727 71.835197 
L 397.602598 71.835197 
L 397.717555 72.781032 
L 398.177383 72.781032 
L 398.407297 74.420809 
L 398.752168 74.420809 
L 398.867125 76.790615 
L 399.211996 76.790615 
L 399.326953 78.968132 
L 399.786781 78.968132 
L 399.901738 81.603247 
L 400.246609 81.603247 
L 400.361566 84.347963 
L 400.821394 84.347963 
L 400.936351 87.038903 
L 401.281222 87.038903 
L 401.396179 89.721335 
L 401.856007 89.721335 
L 402.085921 92.187372 
L 402.430792 92.187372 
L 402.545749 93.730963 
L 402.89062 93.730963 
L 403.005577 95.032064 
L 403.350448 95.032064 
L 403.465405 95.926429 
L 403.925233 95.926429 
L 404.04019 96.472684 
L 404.385061 96.472684 
L 404.614975 96.705224 
L 405.419674 96.603738 
L 405.649588 96.081936 
L 405.994459 96.081936 
L 406.109416 95.354508 
L 406.569244 95.354508 
L 406.684201 94.220969 
L 407.029072 94.220969 
L 407.144029 92.78976 
L 407.4889 92.78976 
L 407.603857 91.131586 
L 408.063686 91.131586 
L 408.178643 89.279247 
L 408.523514 89.279247 
L 408.638471 87.296134 
L 409.098299 87.296134 
L 409.213256 85.261816 
L 409.558127 85.261816 
L 409.673084 83.279058 
L 410.132912 83.279058 
L 410.247869 81.309765 
L 410.59274 81.309765 
L 410.822654 79.514485 
L 411.167525 79.514485 
L 411.282482 78.436742 
L 411.627353 78.436742 
L 411.74231 77.631036 
L 412.202138 77.631036 
L 412.317095 76.98972 
L 412.661966 76.98972 
L 412.89188 76.545521 
L 413.236751 76.545521 
L 413.466665 76.193182 
L 413.811536 76.193182 
L 413.926493 75.720334 
L 414.386321 75.720334 
L 414.501278 75.114137 
L 414.846149 75.114137 
L 414.961106 74.545851 
L 415.420934 74.545851 
L 415.650848 74.047435 
L 415.995719 74.047435 
L 416.225633 73.744383 
L 416.455547 73.744383 
L 416.685461 73.36976 
L 417.030332 73.36976 
L 417.145289 72.896935 
L 417.605117 72.896935 
L 417.720074 72.320191 
L 418.064945 72.320191 
L 418.294859 71.634808 
L 418.63973 71.634808 
L 418.754687 71.145218 
L 419.214515 71.145218 
L 419.444429 70.730586 
L 419.674343 70.730586 
L 419.904257 70.495735 
L 420.823913 70.539972 
L 421.053827 70.7738 
L 421.283741 70.7738 
L 421.398698 71.225777 
L 421.858526 71.225777 
L 422.08844 71.813718 
L 422.433311 71.813718 
L 422.663225 72.244765 
L 422.893139 72.244765 
L 423.123053 72.620863 
L 423.352967 72.620863 
L 423.582881 72.839565 
L 424.962365 72.767925 
L 425.192279 72.545242 
L 425.422193 72.545242 
L 425.652107 72.276375 
L 425.882021 72.276375 
L 426.111935 72.027507 
L 426.456806 72.027507 
L 426.68672 71.83569 
L 428.640989 71.932229 
L 428.870903 72.119514 
L 429.100817 72.119514 
L 429.330731 72.3306 
L 429.675602 72.3306 
L 429.905516 72.465476 
L 430.710215 72.563503 
L 431.170043 72.600256 
L 431.285 72.581425 
L 431.285 72.581425 
" clip-path="url(#p24d386f19b)" style="fill: none; stroke-dasharray: 5.55,2.4; stroke-dashoffset: 0; stroke: #0000ff; stroke-width: 1.5"/>
   </g>
   <g id="line2d_29">
    <path d="M 56.985 39.46 
L 431.285 39.46 
L 431.285 39.46 
" clip-path="url(#p24d386f19b)" style="fill: none; stroke-dasharray: 1.5,2.475; stroke-dashoffset: 0; stroke: #000000; stroke-width: 1.5"/>
   </g>
   <g id="patch_3">
    <path d="M 38.27 303.64 
L 38.27 26.88 
" style="fill: none; stroke: #000000; stroke-width: 0.8; stroke-linejoin: miter; stroke-linecap: square"/>
   </g>
   <g id="patch_4">
    <path d="M 450 303.64 
L 450 26.88 
" style="fill: none; stroke: #000000; stroke-width: 0.8; stroke-linejoin: miter; stroke-linecap: square"/>
   </g>
   <g id="patch_5">
    <path d="M 38.27 303.64 
L 450 303.64 
" style="fill: none; stroke: #000000; stroke-width: 0.8; stroke-linejoin: miter; stroke-linecap: square"/>
   </g>
   <g id="patch_6">
    <path d="M 38.27 26.88 
L 450 26.88 
" style="fill: none; stroke: #000000; stroke-width: 0.8; stroke-linejoin: miter; stroke-linecap: square"/>
   </g>
   <g id="text_16">
    <!-- Slung payload z-movement vs time -->
    <g transform="translate(137.760625 20.88)scale(0.12 -0.12)">
     <defs>
      <path id="DejaVuSans-53" d="M 3425 4513 
L 3425 3897 
Q 3066 4069 2747 4153 
Q 2428 4238 2131 4238 
Q 1616 4238 1336 4038 
Q 1056 3838 1056 3469 
Q 1056 3159 1242 3001 
Q 1428 2844 1947 2747 
L 2328 2669 
Q 3034 2534 3370 2195 
Q 3706 1856 3706 1288 
Q 3706 609 3251 259 
Q 2797 -91 1919 -91 
Q 1588 -91 1214 -16 
Q 841 59 441 206 
L 441 856 
Q 825 641 1194 531 
Q 1563 422 1919 422 
Q 2459 422 2753 634 
Q 3047 847 3047 1241 
Q 3047 1584 2836 1778 
Q 2625 1972 2144 2069 
L 1759 2144 
Q 1053 2284 737 2584 
Q 422 2884 422 3419 
Q 422 4038 858 4394 
Q 1294 4750 2059 4750 
Q 2388 4750 2728 4690 
Q 3069 4631 3425 4513 
z
" transform="scale(0.015625)"/>
      <path id="DejaVuSans-6c" d="M 603 4863 
L 1178 4863 
L 1178 0 
L 603 0 
L 603 4863 
z
" transform="scale(0.015625)"/>
      <path id="DejaVuSans-75" d="M 544 1381 
L 544 3500 
L 1119 3500 
L 1119 1403 
Q 1119 906 1312 657 
Q 1506 409 1894 409 
Q 2359 409 2629 706 
Q 2900 1003 2900 1516 
L 2900 3500 
L 3475 3500 
L 3475 0 
L 2900 0 
L 2900 538 
Q 2691 219 2414 64 
Q 2138 -91 1772 -91 
Q 1169 -91 856 284 
Q 544 659 544 1381 
z
M 1991 3584 
L 1991 3584 
z
" transform="scale(0.015625)"/>
      <path id="DejaVuSans-6e" d="M 3513 2113 
L 3513 0 
L 2938 0 
L 2938 2094 
Q 2938 2591 2744 2837 
Q 2550 3084 2163 3084 
Q 1697 3084 1428 2787 
Q 1159 2491 1159 1978 
L 1159 0 
L 581 0 
L 581 3500 
L 1159 3500 
L 1159 2956 
Q 1366 3272 1645 3428 
Q 1925 3584 2291 3584 
Q 2894 3584 3203 3211 
Q 3513 2838 3513 2113 
z
" transform="scale(0.015625)"/>
      <path id="DejaVuSans-67" d="M 2906 1791 
Q 2906 2416 2648 2759 
Q 2391 3103 1925 3103 
Q 1463 3103 1205 2759 
Q 947 2416 947 1791 
Q 947 1169 1205 825 
Q 1463 481 1925 481 
Q 2391 481 2648 825 
Q 2906 1169 2906 1791 
z
M 3481 434 
Q 3481 -459 3084 -895 
Q 2688 -1331 1869 -1331 
Q 1566 -1331 1297 -1286 
Q 1028 -1241 775 -1147 
L 775 -588 
Q 1028 -725 1275 -790 
Q 1522 -856 1778 -856 
Q 2344 -856 2625 -561 
Q 2906 -266 2906 331 
L 2906 616 
Q 2728 306 2450 153 
Q 2172 0 1784 0 
Q 1141 0 747 490 
Q 353 981 353 1791 
Q 353 2603 747 3093 
Q 1141 3584 1784 3584 
Q 2172 3584 2450 3431 
Q 2728 3278 2906 2969 
L 2906 3500 
L 3481 3500 
L 3481 434 
z
" transform="scale(0.015625)"/>
      <path id="DejaVuSans-70" d="M 1159 525 
L 1159 -1331 
L 581 -1331 
L 581 3500 
L 1159 3500 
L 1159 2969 
Q 1341 3281 1617 3432 
Q 1894 3584 2278 3584 
Q 2916 3584 3314 3078 
Q 3713 2572 3713 1747 
Q 3713 922 3314 415 
Q 2916 -91 2278 -91 
Q 1894 -91 1617 61 
Q 1341 213 1159 525 
z
M 3116 1747 
Q 3116 2381 2855 2742 
Q 2594 3103 2138 3103 
Q 1681 3103 1420 2742 
Q 1159 2381 1159 1747 
Q 1159 1113 1420 752 
Q 1681 391 2138 391 
Q 2594 391 2855 752 
Q 3116 1113 3116 1747 
z
" transform="scale(0.015625)"/>
      <path id="DejaVuSans-61" d="M 2194 1759 
Q 1497 1759 1228 1600 
Q 959 1441 959 1056 
Q 959 750 1161 570 
Q 1363 391 1709 391 
Q 2188 391 2477 730 
Q 2766 1069 2766 1631 
L 2766 1759 
L 2194 1759 
z
M 3341 1997 
L 3341 0 
L 2766 0 
L 2766 531 
Q 2569 213 2275 61 
Q 1981 -91 1556 -91 
Q 1019 -91 701 211 
Q 384 513 384 1019 
Q 384 1609 779 1909 
Q 1175 2209 1959 2209 
L 2766 2209 
L 2766 2266 
Q 2766 2663 2505 2880 
Q 2244 3097 1772 3097 
Q 1472 3097 1187 3025 
Q 903 2953 641 2809 
L 641 3341 
Q 956 3463 1253 3523 
Q 1550 3584 1831 3584 
Q 2591 3584 2966 3190 
Q 3341 2797 3341 1997 
z
" transform="scale(0.015625)"/>
      <path id="DejaVuSans-79" d="M 2059 -325 
Q 1816 -950 1584 -1140 
Q 1353 -1331 966 -1331 
L 506 -1331 
L 506 -850 
L 844 -850 
Q 1081 -850 1212 -737 
Q 1344 -625 1503 -206 
L 1606 56 
L 191 3500 
L 800 3500 
L 1894 763 
L 2988 3500 
L 3597 3500 
L 2059 -325 
z
" transform="scale(0.015625)"/>
      <path id="DejaVuSans-6f" d="M 1959 3097 
Q 1497 3097 1228 2736 
Q 959 2375 959 1747 
Q 959 1119 1226 758 
Q 1494 397 1959 397 
Q 2419 397 2687 759 
Q 2956 1122 2956 1747 
Q 2956 2369 2687 2733 
Q 2419 3097 1959 3097 
z
M 1959 3584 
Q 2709 3584 3137 3096 
Q 3566 2609 3566 1747 
Q 3566 888 3137 398 
Q 2709 -91 1959 -91 
Q 1206 -91 779 398 
Q 353 888 353 1747 
Q 353 2609 779 3096 
Q 1206 3584 1959 3584 
z
" transform="scale(0.015625)"/>
      <path id="DejaVuSans-64" d="M 2906 2969 
L 2906 4863 
L 3481 4863 
L 3481 0 
L 2906 0 
L 2906 525 
Q 2725 213 2448 61 
Q 2172 -91 1784 -91 
Q 1150 -91 751 415 
Q 353 922 353 1747 
Q 353 2572 751 3078 
Q 1150 3584 1784 3584 
Q 2172 3584 2448 3432 
Q 2725 3281 2906 2969 
z
M 947 1747 
Q 947 1113 1208 752 
Q 1469 391 1925 391 
Q 2381 391 2643 752 
Q 2906 1113 2906 1747 
Q 2906 2381 2643 2742 
Q 2381 3103 1925 3103 
Q 1469 3103 1208 2742 
Q 947 2381 947 1747 
z
" transform="scale(0.015625)"/>
      <path id="DejaVuSans-2d" d="M 313 2009 
L 1997 2009 
L 1997 1497 
L 313 1497 
L 313 2009 
z
" transform="scale(0.015625)"/>
      <path id="DejaVuSans-76" d="M 191 3500 
L 800 3500 
L 1894 563 
L 2988 3500 
L 3597 3500 
L 2284 0 
L 1503 0 
L 191 3500 
z
" transform="scale(0.015625)"/>
      <path id="DejaVuSans-65" d="M 3597 1894 
L 3597 1613 
L 953 1613 
Q 991 1019 1311 708 
Q 1631 397 2203 397 
Q 2534 397 2845 478 
Q 3156 559 3463 722 
L 3463 178 
Q 3153 47 2828 -22 
Q 2503 -91 2169 -91 
Q 1331 -91 842 396 
Q 353 884 353 1716 
Q 353 2575 817 3079 
Q 1281 3584 2069 3584 
Q 2775 3584 3186 3129 
Q 3597 2675 3597 1894 
z
M 3022 2063 
Q 3016 2534 2758 2815 
Q 2500 3097 2075 3097 
Q 1594 3097 1305 2825 
Q 1016 2553 972 2059 
L 3022 2063 
z
" transform="scale(0.015625)"/>
      <path id="DejaVuSans-69" d="M 603 3500 
L 1178 3500 
L 1178 0 
L 603 0 
L 603 3500 
z
M 603 4863 
L 1178 4863 
L 1178 4134 
L 603 4134 
L 603 4863 
z
" transform="scale(0.015625)"/>
     </defs>
     <use xlink:href="#DejaVuSans-53"/>
     <use xlink:href="#DejaVuSans-6c" x="63.476562"/>
     <use xlink:href="#DejaVuSans-75" x="91.259766"/>
     <use xlink:href="#DejaVuSans-6e" x="154.638672"/>
     <use xlink:href="#DejaVuSans-67" x="218.017578"/>
     <use xlink:href="#DejaVuSans-20" x="281.494141"/>
     <use xlink:href="#DejaVuSans-70" x="313.28125"/>
     <use xlink:href="#DejaVuSans-61" x="376.757812"/>
     <use xlink:href="#DejaVuSans-79" x="438.037109"/>
     <use xlink:href="#DejaVuSans-6c" x="497.216797"/>
     <use xlink:href="#DejaVuSans-6f" x="525"/>
     <use xlink:href="#DejaVuSans-61" x="586.181641"/>
     <use xlink:href="#DejaVuSans-64" x="647.460938"/>
     <use xlink:href="#DejaVuSans-20" x="710.9375"/>
     <use xlink:href="#DejaVuSans-7a" x="742.724609"/>
     <use xlink:href="#DejaVuSans-2d" x="795.214844"/>
     <use xlink:href="#DejaVuSans-6d" x="831.298828"/>
     <use xlink:href="#DejaVuSans-6f" x="928.710938"/>
     <use xlink:href="#DejaVuSans-76" x="989.892578"/>
     <use xlink:href="#DejaVuSans-65" x="1049.072266"/>
     <use xlink:href="#DejaVuSans-6d" x="1110.595703"/>
     <use xlink:href="#DejaVuSans-65" x="1208.007812"/>
     <use xlink:href="#DejaVuSans-6e" x="1269.53125"/>
     <use xlink:href="#DejaVuSans-74" x="1332.910156"/>
     <use xlink:href="#DejaVuSans-20" x="1372.119141"/>
     <use xlink:href="#DejaVuSans-76" x="1403.90625"/>
     <use xlink:href="#DejaVuSans-73" x="1463.085938"/>
     <use xlink:href="#DejaVuSans-20" x="1515.185547"/>
     <use xlink:href="#DejaVuSans-74" x="1546.972656"/>
     <use xlink:href="#DejaVuSans-69" x="1586.181641"/>
     <use xlink:href="#DejaVuSans-6d" x="1613.964844"/>
     <use xlink:href="#DejaVuSans-65" x="1711.376953"/>
    </g>
   </g>
   <g id="legend_1">
    <g id="patch_7">
     <path d="M 45.27 78.914375 
L 181.9575 78.914375 
Q 183.9575 78.914375 183.9575 76.914375 
L 183.9575 33.88 
Q 183.9575 31.88 181.9575 31.88 
L 45.27 31.88 
Q 43.27 31.88 43.27 33.88 
L 43.27 76.914375 
Q 43.27 78.914375 45.27 78.914375 
z
" style="fill: #ffffff; opacity: 0.8; stroke: #cccccc; stroke-linejoin: miter"/>
    </g>
    <g id="line2d_30">
     <path d="M 47.27 39.978437 
L 57.27 39.978437 
L 67.27 39.978437 
" style="fill: none; stroke: #ff0000; stroke-width: 1.5; stroke-linecap: square"/>
    </g>
    <g id="text_17">
     <!-- Drone z movement -->
     <g transform="translate(75.27 43.478437)scale(0.1 -0.1)">
      <defs>
       <path id="DejaVuSans-44" d="M 1259 4147 
L 1259 519 
L 2022 519 
Q 2988 519 3436 956 
Q 3884 1394 3884 2338 
Q 3884 3275 3436 3711 
Q 2988 4147 2022 4147 
L 1259 4147 
z
M 628 4666 
L 1925 4666 
Q 3281 4666 3915 4102 
Q 4550 3538 4550 2338 
Q 4550 1131 3912 565 
Q 3275 0 1925 0 
L 628 0 
L 628 4666 
z
" transform="scale(0.015625)"/>
       <path id="DejaVuSans-72" d="M 2631 2963 
Q 2534 3019 2420 3045 
Q 2306 3072 2169 3072 
Q 1681 3072 1420 2755 
Q 1159 2438 1159 1844 
L 1159 0 
L 581 0 
L 581 3500 
L 1159 3500 
L 1159 2956 
Q 1341 3275 1631 3429 
Q 1922 3584 2338 3584 
Q 2397 3584 2469 3576 
Q 2541 3569 2628 3553 
L 2631 2963 
z
" transform="scale(0.015625)"/>
      </defs>
      <use xlink:href="#DejaVuSans-44"/>
      <use xlink:href="#DejaVuSans-72" x="77.001953"/>
      <use xlink:href="#DejaVuSans-6f" x="115.865234"/>
      <use xlink:href="#DejaVuSans-6e" x="177.046875"/>
      <use xlink:href="#DejaVuSans-65" x="240.425781"/>
      <use xlink:href="#DejaVuSans-20" x="301.949219"/>
      <use xlink:href="#DejaVuSans-7a" x="333.736328"/>
      <use xlink:href="#DejaVuSans-20" x="386.226562"/>
      <use xlink:href="#DejaVuSans-6d" x="418.013672"/>
      <use xlink:href="#DejaVuSans-6f" x="515.425781"/>
      <use xlink:href="#DejaVuSans-76" x="576.607422"/>
      <use xlink:href="#DejaVuSans-65" x="635.787109"/>
      <use xlink:href="#DejaVuSans-6d" x="697.310547"/>
      <use xlink:href="#DejaVuSans-65" x="794.722656"/>
      <use xlink:href="#DejaVuSans-6e" x="856.246094"/>
      <use xlink:href="#DejaVuSans-74" x="919.625"/>
     </g>
    </g>
    <g id="line2d_31">
     <path d="M 47.27 54.656563 
L 57.27 54.656563 
L 67.27 54.656563 
" style="fill: none; stroke-dasharray: 5.55,2.4; stroke-dashoffset: 0; stroke: #0000ff; stroke-width: 1.5"/>
    </g>
    <g id="text_18">
     <!-- Payload z movement -->
     <g transform="translate(75.27 58.156563)scale(0.1 -0.1)">
      <defs>
       <path id="DejaVuSans-50" d="M 1259 4147 
L 1259 2394 
L 2053 2394 
Q 2494 2394 2734 2622 
Q 2975 2850 2975 3272 
Q 2975 3691 2734 3919 
Q 2494 4147 2053 4147 
L 1259 4147 
z
M 628 4666 
L 2053 4666 
Q 2838 4666 3239 4311 
Q 3641 3956 3641 3272 
Q 3641 2581 3239 2228 
Q 2838 1875 2053 1875 
L 1259 1875 
L 1259 0 
L 628 0 
L 628 4666 
z
" transform="scale(0.015625)"/>
      </defs>
      <use xlink:href="#DejaVuSans-50"/>
      <use xlink:href="#DejaVuSans-61" x="55.802734"/>
      <use xlink:href="#DejaVuSans-79" x="117.082031"/>
      <use xlink:href="#DejaVuSans-6c" x="176.261719"/>
      <use xlink:href="#DejaVuSans-6f" x="204.044922"/>
      <use xlink:href="#DejaVuSans-61" x="265.226562"/>
      <use xlink:href="#DejaVuSans-64" x="326.505859"/>
      <use xlink:href="#DejaVuSans-20" x="389.982422"/>
      <use xlink:href="#DejaVuSans-7a" x="421.769531"/>
      <use xlink:href="#DejaVuSans-20" x="474.259766"/>
      <use xlink:href="#DejaVuSans-6d" x="506.046875"/>
      <use xlink:href="#DejaVuSans-6f" x="603.458984"/>
      <use xlink:href="#DejaVuSans-76" x="664.640625"/>
      <use xlink:href="#DejaVuSans-65" x="723.820312"/>
      <use xlink:href="#DejaVuSans-6d" x="785.34375"/>
      <use xlink:href="#DejaVuSans-65" x="882.755859"/>
      <use xlink:href="#DejaVuSans-6e" x="944.279297"/>
      <use xlink:href="#DejaVuSans-74" x="1007.658203"/>
     </g>
    </g>
    <g id="line2d_32">
     <path d="M 47.27 69.334687 
L 57.27 69.334687 
L 67.27 69.334687 
" style="fill: none; stroke-dasharray: 1.5,2.475; stroke-dashoffset: 0; stroke: #000000; stroke-width: 1.5"/>
    </g>
    <g id="text_19">
     <!-- Drone z-reference -->
     <g transform="translate(75.27 72.834687)scale(0.1 -0.1)">
      <defs>
       <path id="DejaVuSans-66" d="M 2375 4863 
L 2375 4384 
L 1825 4384 
Q 1516 4384 1395 4259 
Q 1275 4134 1275 3809 
L 1275 3500 
L 2222 3500 
L 2222 3053 
L 1275 3053 
L 1275 0 
L 697 0 
L 697 3053 
L 147 3053 
L 147 3500 
L 697 3500 
L 697 3744 
Q 697 4328 969 4595 
Q 1241 4863 1831 4863 
L 2375 4863 
z
" transform="scale(0.015625)"/>
       <path id="DejaVuSans-63" d="M 3122 3366 
L 3122 2828 
Q 2878 2963 2633 3030 
Q 2388 3097 2138 3097 
Q 1578 3097 1268 2742 
Q 959 2388 959 1747 
Q 959 1106 1268 751 
Q 1578 397 2138 397 
Q 2388 397 2633 464 
Q 2878 531 3122 666 
L 3122 134 
Q 2881 22 2623 -34 
Q 2366 -91 2075 -91 
Q 1284 -91 818 406 
Q 353 903 353 1747 
Q 353 2603 823 3093 
Q 1294 3584 2113 3584 
Q 2378 3584 2631 3529 
Q 2884 3475 3122 3366 
z
" transform="scale(0.015625)"/>
      </defs>
      <use xlink:href="#DejaVuSans-44"/>
      <use xlink:href="#DejaVuSans-72" x="77.001953"/>
      <use xlink:href="#DejaVuSans-6f" x="115.865234"/>
      <use xlink:href="#DejaVuSans-6e" x="177.046875"/>
      <use xlink:href="#DejaVuSans-65" x="240.425781"/>
      <use xlink:href="#DejaVuSans-20" x="301.949219"/>
      <use xlink:href="#DejaVuSans-7a" x="333.736328"/>
      <use xlink:href="#DejaVuSans-2d" x="386.226562"/>
      <use xlink:href="#DejaVuSans-72" x="422.310547"/>
      <use xlink:href="#DejaVuSans-65" x="461.173828"/>
      <use xlink:href="#DejaVuSans-66" x="522.697266"/>
      <use xlink:href="#DejaVuSans-65" x="557.902344"/>
      <use xlink:href="#DejaVuSans-72" x="619.425781"/>
      <use xlink:href="#DejaVuSans-65" x="658.289062"/>
      <use xlink:href="#DejaVuSans-6e" x="719.8125"/>
      <use xlink:href="#DejaVuSans-63" x="783.191406"/>
      <use xlink:href="#DejaVuSans-65" x="838.171875"/>
     </g>
    </g>
   </g>
  </g>
 </g>
 <defs>
  <clipPath id="p24d386f19b">
   <rect x="38.27" y="26.88" width="411.73" height="276.76"/>
  </clipPath>
 </defs>
</svg>
