<?xml version="1.0" encoding="utf-8" standalone="no"?>
<!DOCTYPE svg PUBLIC "-//W3C//DTD SVG 1.1//EN"
  "http://www.w3.org/Graphics/SVG/1.1/DTD/svg11.dtd">
<svg xmlns:xlink="http://www.w3.org/1999/xlink" width="460.8pt" height="345.6pt" viewBox="0 0 460.8 345.6" xmlns="http://www.w3.org/2000/svg" version="1.1">
 <metadata>
  <rdf:RDF xmlns:dc="http://purl.org/dc/elements/1.1/" xmlns:cc="http://creativecommons.org/ns#" xmlns:rdf="http://www.w3.org/1999/02/22-rdf-syntax-ns#">
   <cc:Work>
    <dc:type rdf:resource="http://purl.org/dc/dcmitype/StillImage"/>
    <dc:date>2022-03-30T11:54:54.843926</dc:date>
    <dc:format>image/svg+xml</dc:format>
    <dc:creator>
     <cc:Agent>
      <dc:title>Matplotlib v3.5.1, https://matplotlib.org/</dc:title>
     </cc:Agent>
    </dc:creator>
   </cc:Work>
  </rdf:RDF>
 </metadata>
 <defs>
  <style type="text/css">*{stroke-linejoin: round; stroke-linecap: butt}</style>
 </defs>
 <g id="figure_1">
  <g id="patch_1">
   <path d="M 0 345.6 
L 460.8 345.6 
L 460.8 0 
L 0 0 
z
" style="fill: #ffffff"/>
  </g>
  <g id="axes_1">
   <g id="patch_2">
    <path d="M 44.57 303.64 
L 450 303.64 
L 450 26.88 
L 44.57 26.88 
z
" style="fill: #ffffff"/>
   </g>
   <g id="matplotlib.axis_1">
    <g id="xtick_1">
     <g id="line2d_1">
      <path d="M 61.146512 303.64 
L 61.146512 26.88 
" clip-path="url(#p76e8e80da2)" style="fill: none; stroke: #b0b0b0; stroke-width: 0.8; stroke-linecap: square"/>
     </g>
     <g id="line2d_2">
      <defs>
       <path id="m8e18738221" d="M 0 0 
L 0 3.5 
" style="stroke: #000000; stroke-width: 0.8"/>
      </defs>
      <g>
       <use xlink:href="#m8e18738221" x="61.146512" y="303.64" style="stroke: #000000; stroke-width: 0.8"/>
      </g>
     </g>
     <g id="text_1">
      <!-- 0.0 -->
      <g transform="translate(53.19495 318.238437)scale(0.1 -0.1)">
       <defs>
        <path id="DejaVuSans-30" d="M 2034 4250 
Q 1547 4250 1301 3770 
Q 1056 3291 1056 2328 
Q 1056 1369 1301 889 
Q 1547 409 2034 409 
Q 2525 409 2770 889 
Q 3016 1369 3016 2328 
Q 3016 3291 2770 3770 
Q 2525 4250 2034 4250 
z
M 2034 4750 
Q 2819 4750 3233 4129 
Q 3647 3509 3647 2328 
Q 3647 1150 3233 529 
Q 2819 -91 2034 -91 
Q 1250 -91 836 529 
Q 422 1150 422 2328 
Q 422 3509 836 4129 
Q 1250 4750 2034 4750 
z
" transform="scale(0.015625)"/>
        <path id="DejaVuSans-2e" d="M 684 794 
L 1344 794 
L 1344 0 
L 684 0 
L 684 794 
z
" transform="scale(0.015625)"/>
       </defs>
       <use xlink:href="#DejaVuSans-30"/>
       <use xlink:href="#DejaVuSans-2e" x="63.623047"/>
       <use xlink:href="#DejaVuSans-30" x="95.410156"/>
      </g>
     </g>
    </g>
    <g id="xtick_2">
     <g id="line2d_3">
      <path d="M 107.449619 303.64 
L 107.449619 26.88 
" clip-path="url(#p76e8e80da2)" style="fill: none; stroke: #b0b0b0; stroke-width: 0.8; stroke-linecap: square"/>
     </g>
     <g id="line2d_4">
      <g>
       <use xlink:href="#m8e18738221" x="107.449619" y="303.64" style="stroke: #000000; stroke-width: 0.8"/>
      </g>
     </g>
     <g id="text_2">
      <!-- 2.5 -->
      <g transform="translate(99.498056 318.238437)scale(0.1 -0.1)">
       <defs>
        <path id="DejaVuSans-32" d="M 1228 531 
L 3431 531 
L 3431 0 
L 469 0 
L 469 531 
Q 828 903 1448 1529 
Q 2069 2156 2228 2338 
Q 2531 2678 2651 2914 
Q 2772 3150 2772 3378 
Q 2772 3750 2511 3984 
Q 2250 4219 1831 4219 
Q 1534 4219 1204 4116 
Q 875 4013 500 3803 
L 500 4441 
Q 881 4594 1212 4672 
Q 1544 4750 1819 4750 
Q 2544 4750 2975 4387 
Q 3406 4025 3406 3419 
Q 3406 3131 3298 2873 
Q 3191 2616 2906 2266 
Q 2828 2175 2409 1742 
Q 1991 1309 1228 531 
z
" transform="scale(0.015625)"/>
        <path id="DejaVuSans-35" d="M 691 4666 
L 3169 4666 
L 3169 4134 
L 1269 4134 
L 1269 2991 
Q 1406 3038 1543 3061 
Q 1681 3084 1819 3084 
Q 2600 3084 3056 2656 
Q 3513 2228 3513 1497 
Q 3513 744 3044 326 
Q 2575 -91 1722 -91 
Q 1428 -91 1123 -41 
Q 819 9 494 109 
L 494 744 
Q 775 591 1075 516 
Q 1375 441 1709 441 
Q 2250 441 2565 725 
Q 2881 1009 2881 1497 
Q 2881 1984 2565 2268 
Q 2250 2553 1709 2553 
Q 1456 2553 1204 2497 
Q 953 2441 691 2322 
L 691 4666 
z
" transform="scale(0.015625)"/>
       </defs>
       <use xlink:href="#DejaVuSans-32"/>
       <use xlink:href="#DejaVuSans-2e" x="63.623047"/>
       <use xlink:href="#DejaVuSans-35" x="95.410156"/>
      </g>
     </g>
    </g>
    <g id="xtick_3">
     <g id="line2d_5">
      <path d="M 153.752725 303.64 
L 153.752725 26.88 
" clip-path="url(#p76e8e80da2)" style="fill: none; stroke: #b0b0b0; stroke-width: 0.8; stroke-linecap: square"/>
     </g>
     <g id="line2d_6">
      <g>
       <use xlink:href="#m8e18738221" x="153.752725" y="303.64" style="stroke: #000000; stroke-width: 0.8"/>
      </g>
     </g>
     <g id="text_3">
      <!-- 5.0 -->
      <g transform="translate(145.801162 318.238437)scale(0.1 -0.1)">
       <use xlink:href="#DejaVuSans-35"/>
       <use xlink:href="#DejaVuSans-2e" x="63.623047"/>
       <use xlink:href="#DejaVuSans-30" x="95.410156"/>
      </g>
     </g>
    </g>
    <g id="xtick_4">
     <g id="line2d_7">
      <path d="M 200.055831 303.64 
L 200.055831 26.88 
" clip-path="url(#p76e8e80da2)" style="fill: none; stroke: #b0b0b0; stroke-width: 0.8; stroke-linecap: square"/>
     </g>
     <g id="line2d_8">
      <g>
       <use xlink:href="#m8e18738221" x="200.055831" y="303.64" style="stroke: #000000; stroke-width: 0.8"/>
      </g>
     </g>
     <g id="text_4">
      <!-- 7.5 -->
      <g transform="translate(192.104269 318.238437)scale(0.1 -0.1)">
       <defs>
        <path id="DejaVuSans-37" d="M 525 4666 
L 3525 4666 
L 3525 4397 
L 1831 0 
L 1172 0 
L 2766 4134 
L 525 4134 
L 525 4666 
z
" transform="scale(0.015625)"/>
       </defs>
       <use xlink:href="#DejaVuSans-37"/>
       <use xlink:href="#DejaVuSans-2e" x="63.623047"/>
       <use xlink:href="#DejaVuSans-35" x="95.410156"/>
      </g>
     </g>
    </g>
    <g id="xtick_5">
     <g id="line2d_9">
      <path d="M 246.358938 303.64 
L 246.358938 26.88 
" clip-path="url(#p76e8e80da2)" style="fill: none; stroke: #b0b0b0; stroke-width: 0.8; stroke-linecap: square"/>
     </g>
     <g id="line2d_10">
      <g>
       <use xlink:href="#m8e18738221" x="246.358938" y="303.64" style="stroke: #000000; stroke-width: 0.8"/>
      </g>
     </g>
     <g id="text_5">
      <!-- 10.0 -->
      <g transform="translate(235.226125 318.238437)scale(0.1 -0.1)">
       <defs>
        <path id="DejaVuSans-31" d="M 794 531 
L 1825 531 
L 1825 4091 
L 703 3866 
L 703 4441 
L 1819 4666 
L 2450 4666 
L 2450 531 
L 3481 531 
L 3481 0 
L 794 0 
L 794 531 
z
" transform="scale(0.015625)"/>
       </defs>
       <use xlink:href="#DejaVuSans-31"/>
       <use xlink:href="#DejaVuSans-30" x="63.623047"/>
       <use xlink:href="#DejaVuSans-2e" x="127.246094"/>
       <use xlink:href="#DejaVuSans-30" x="159.033203"/>
      </g>
     </g>
    </g>
    <g id="xtick_6">
     <g id="line2d_11">
      <path d="M 292.662044 303.64 
L 292.662044 26.88 
" clip-path="url(#p76e8e80da2)" style="fill: none; stroke: #b0b0b0; stroke-width: 0.8; stroke-linecap: square"/>
     </g>
     <g id="line2d_12">
      <g>
       <use xlink:href="#m8e18738221" x="292.662044" y="303.64" style="stroke: #000000; stroke-width: 0.8"/>
      </g>
     </g>
     <g id="text_6">
      <!-- 12.5 -->
      <g transform="translate(281.529232 318.238437)scale(0.1 -0.1)">
       <use xlink:href="#DejaVuSans-31"/>
       <use xlink:href="#DejaVuSans-32" x="63.623047"/>
       <use xlink:href="#DejaVuSans-2e" x="127.246094"/>
       <use xlink:href="#DejaVuSans-35" x="159.033203"/>
      </g>
     </g>
    </g>
    <g id="xtick_7">
     <g id="line2d_13">
      <path d="M 338.965151 303.64 
L 338.965151 26.88 
" clip-path="url(#p76e8e80da2)" style="fill: none; stroke: #b0b0b0; stroke-width: 0.8; stroke-linecap: square"/>
     </g>
     <g id="line2d_14">
      <g>
       <use xlink:href="#m8e18738221" x="338.965151" y="303.64" style="stroke: #000000; stroke-width: 0.8"/>
      </g>
     </g>
     <g id="text_7">
      <!-- 15.0 -->
      <g transform="translate(327.832338 318.238437)scale(0.1 -0.1)">
       <use xlink:href="#DejaVuSans-31"/>
       <use xlink:href="#DejaVuSans-35" x="63.623047"/>
       <use xlink:href="#DejaVuSans-2e" x="127.246094"/>
       <use xlink:href="#DejaVuSans-30" x="159.033203"/>
      </g>
     </g>
    </g>
    <g id="xtick_8">
     <g id="line2d_15">
      <path d="M 385.268257 303.64 
L 385.268257 26.88 
" clip-path="url(#p76e8e80da2)" style="fill: none; stroke: #b0b0b0; stroke-width: 0.8; stroke-linecap: square"/>
     </g>
     <g id="line2d_16">
      <g>
       <use xlink:href="#m8e18738221" x="385.268257" y="303.64" style="stroke: #000000; stroke-width: 0.8"/>
      </g>
     </g>
     <g id="text_8">
      <!-- 17.5 -->
      <g transform="translate(374.135445 318.238437)scale(0.1 -0.1)">
       <use xlink:href="#DejaVuSans-31"/>
       <use xlink:href="#DejaVuSans-37" x="63.623047"/>
       <use xlink:href="#DejaVuSans-2e" x="127.246094"/>
       <use xlink:href="#DejaVuSans-35" x="159.033203"/>
      </g>
     </g>
    </g>
    <g id="xtick_9">
     <g id="line2d_17">
      <path d="M 431.571364 303.64 
L 431.571364 26.88 
" clip-path="url(#p76e8e80da2)" style="fill: none; stroke: #b0b0b0; stroke-width: 0.8; stroke-linecap: square"/>
     </g>
     <g id="line2d_18">
      <g>
       <use xlink:href="#m8e18738221" x="431.571364" y="303.64" style="stroke: #000000; stroke-width: 0.8"/>
      </g>
     </g>
     <g id="text_9">
      <!-- 20.0 -->
      <g transform="translate(420.438551 318.238437)scale(0.1 -0.1)">
       <use xlink:href="#DejaVuSans-32"/>
       <use xlink:href="#DejaVuSans-30" x="63.623047"/>
       <use xlink:href="#DejaVuSans-2e" x="127.246094"/>
       <use xlink:href="#DejaVuSans-30" x="159.033203"/>
      </g>
     </g>
    </g>
    <g id="text_10">
     <!-- t [s] -->
     <g transform="translate(237.229531 331.916562)scale(0.1 -0.1)">
      <defs>
       <path id="DejaVuSans-74" d="M 1172 4494 
L 1172 3500 
L 2356 3500 
L 2356 3053 
L 1172 3053 
L 1172 1153 
Q 1172 725 1289 603 
Q 1406 481 1766 481 
L 2356 481 
L 2356 0 
L 1766 0 
Q 1100 0 847 248 
Q 594 497 594 1153 
L 594 3053 
L 172 3053 
L 172 3500 
L 594 3500 
L 594 4494 
L 1172 4494 
z
" transform="scale(0.015625)"/>
       <path id="DejaVuSans-20" transform="scale(0.015625)"/>
       <path id="DejaVuSans-5b" d="M 550 4863 
L 1875 4863 
L 1875 4416 
L 1125 4416 
L 1125 -397 
L 1875 -397 
L 1875 -844 
L 550 -844 
L 550 4863 
z
" transform="scale(0.015625)"/>
       <path id="DejaVuSans-73" d="M 2834 3397 
L 2834 2853 
Q 2591 2978 2328 3040 
Q 2066 3103 1784 3103 
Q 1356 3103 1142 2972 
Q 928 2841 928 2578 
Q 928 2378 1081 2264 
Q 1234 2150 1697 2047 
L 1894 2003 
Q 2506 1872 2764 1633 
Q 3022 1394 3022 966 
Q 3022 478 2636 193 
Q 2250 -91 1575 -91 
Q 1294 -91 989 -36 
Q 684 19 347 128 
L 347 722 
Q 666 556 975 473 
Q 1284 391 1588 391 
Q 1994 391 2212 530 
Q 2431 669 2431 922 
Q 2431 1156 2273 1281 
Q 2116 1406 1581 1522 
L 1381 1569 
Q 847 1681 609 1914 
Q 372 2147 372 2553 
Q 372 3047 722 3315 
Q 1072 3584 1716 3584 
Q 2034 3584 2315 3537 
Q 2597 3491 2834 3397 
z
" transform="scale(0.015625)"/>
       <path id="DejaVuSans-5d" d="M 1947 4863 
L 1947 -844 
L 622 -844 
L 622 -397 
L 1369 -397 
L 1369 4416 
L 622 4416 
L 622 4863 
L 1947 4863 
z
" transform="scale(0.015625)"/>
      </defs>
      <use xlink:href="#DejaVuSans-74"/>
      <use xlink:href="#DejaVuSans-20" x="39.208984"/>
      <use xlink:href="#DejaVuSans-5b" x="70.996094"/>
      <use xlink:href="#DejaVuSans-73" x="110.009766"/>
      <use xlink:href="#DejaVuSans-5d" x="162.109375"/>
     </g>
    </g>
   </g>
   <g id="matplotlib.axis_2">
    <g id="ytick_1">
     <g id="line2d_19">
      <path d="M 44.57 287.406481 
L 450 287.406481 
" clip-path="url(#p76e8e80da2)" style="fill: none; stroke: #b0b0b0; stroke-width: 0.8; stroke-linecap: square"/>
     </g>
     <g id="line2d_20">
      <defs>
       <path id="m71f54654f2" d="M 0 0 
L -3.5 0 
" style="stroke: #000000; stroke-width: 0.8"/>
      </defs>
      <g>
       <use xlink:href="#m71f54654f2" x="44.57" y="287.406481" style="stroke: #000000; stroke-width: 0.8"/>
      </g>
     </g>
     <g id="text_11">
      <!-- 0 -->
      <g transform="translate(31.2075 291.2057)scale(0.1 -0.1)">
       <use xlink:href="#DejaVuSans-30"/>
      </g>
     </g>
    </g>
    <g id="ytick_2">
     <g id="line2d_21">
      <path d="M 44.57 240.067635 
L 450 240.067635 
" clip-path="url(#p76e8e80da2)" style="fill: none; stroke: #b0b0b0; stroke-width: 0.8; stroke-linecap: square"/>
     </g>
     <g id="line2d_22">
      <g>
       <use xlink:href="#m71f54654f2" x="44.57" y="240.067635" style="stroke: #000000; stroke-width: 0.8"/>
      </g>
     </g>
     <g id="text_12">
      <!-- 2 -->
      <g transform="translate(31.2075 243.866854)scale(0.1 -0.1)">
       <use xlink:href="#DejaVuSans-32"/>
      </g>
     </g>
    </g>
    <g id="ytick_3">
     <g id="line2d_23">
      <path d="M 44.57 192.72879 
L 450 192.72879 
" clip-path="url(#p76e8e80da2)" style="fill: none; stroke: #b0b0b0; stroke-width: 0.8; stroke-linecap: square"/>
     </g>
     <g id="line2d_24">
      <g>
       <use xlink:href="#m71f54654f2" x="44.57" y="192.72879" style="stroke: #000000; stroke-width: 0.8"/>
      </g>
     </g>
     <g id="text_13">
      <!-- 4 -->
      <g transform="translate(31.2075 196.528009)scale(0.1 -0.1)">
       <defs>
        <path id="DejaVuSans-34" d="M 2419 4116 
L 825 1625 
L 2419 1625 
L 2419 4116 
z
M 2253 4666 
L 3047 4666 
L 3047 1625 
L 3713 1625 
L 3713 1100 
L 3047 1100 
L 3047 0 
L 2419 0 
L 2419 1100 
L 313 1100 
L 313 1709 
L 2253 4666 
z
" transform="scale(0.015625)"/>
       </defs>
       <use xlink:href="#DejaVuSans-34"/>
      </g>
     </g>
    </g>
    <g id="ytick_4">
     <g id="line2d_25">
      <path d="M 44.57 145.389944 
L 450 145.389944 
" clip-path="url(#p76e8e80da2)" style="fill: none; stroke: #b0b0b0; stroke-width: 0.8; stroke-linecap: square"/>
     </g>
     <g id="line2d_26">
      <g>
       <use xlink:href="#m71f54654f2" x="44.57" y="145.389944" style="stroke: #000000; stroke-width: 0.8"/>
      </g>
     </g>
     <g id="text_14">
      <!-- 6 -->
      <g transform="translate(31.2075 149.189163)scale(0.1 -0.1)">
       <defs>
        <path id="DejaVuSans-36" d="M 2113 2584 
Q 1688 2584 1439 2293 
Q 1191 2003 1191 1497 
Q 1191 994 1439 701 
Q 1688 409 2113 409 
Q 2538 409 2786 701 
Q 3034 994 3034 1497 
Q 3034 2003 2786 2293 
Q 2538 2584 2113 2584 
z
M 3366 4563 
L 3366 3988 
Q 3128 4100 2886 4159 
Q 2644 4219 2406 4219 
Q 1781 4219 1451 3797 
Q 1122 3375 1075 2522 
Q 1259 2794 1537 2939 
Q 1816 3084 2150 3084 
Q 2853 3084 3261 2657 
Q 3669 2231 3669 1497 
Q 3669 778 3244 343 
Q 2819 -91 2113 -91 
Q 1303 -91 875 529 
Q 447 1150 447 2328 
Q 447 3434 972 4092 
Q 1497 4750 2381 4750 
Q 2619 4750 2861 4703 
Q 3103 4656 3366 4563 
z
" transform="scale(0.015625)"/>
       </defs>
       <use xlink:href="#DejaVuSans-36"/>
      </g>
     </g>
    </g>
    <g id="ytick_5">
     <g id="line2d_27">
      <path d="M 44.57 98.051099 
L 450 98.051099 
" clip-path="url(#p76e8e80da2)" style="fill: none; stroke: #b0b0b0; stroke-width: 0.8; stroke-linecap: square"/>
     </g>
     <g id="line2d_28">
      <g>
       <use xlink:href="#m71f54654f2" x="44.57" y="98.051099" style="stroke: #000000; stroke-width: 0.8"/>
      </g>
     </g>
     <g id="text_15">
      <!-- 8 -->
      <g transform="translate(31.2075 101.850318)scale(0.1 -0.1)">
       <defs>
        <path id="DejaVuSans-38" d="M 2034 2216 
Q 1584 2216 1326 1975 
Q 1069 1734 1069 1313 
Q 1069 891 1326 650 
Q 1584 409 2034 409 
Q 2484 409 2743 651 
Q 3003 894 3003 1313 
Q 3003 1734 2745 1975 
Q 2488 2216 2034 2216 
z
M 1403 2484 
Q 997 2584 770 2862 
Q 544 3141 544 3541 
Q 544 4100 942 4425 
Q 1341 4750 2034 4750 
Q 2731 4750 3128 4425 
Q 3525 4100 3525 3541 
Q 3525 3141 3298 2862 
Q 3072 2584 2669 2484 
Q 3125 2378 3379 2068 
Q 3634 1759 3634 1313 
Q 3634 634 3220 271 
Q 2806 -91 2034 -91 
Q 1263 -91 848 271 
Q 434 634 434 1313 
Q 434 1759 690 2068 
Q 947 2378 1403 2484 
z
M 1172 3481 
Q 1172 3119 1398 2916 
Q 1625 2713 2034 2713 
Q 2441 2713 2670 2916 
Q 2900 3119 2900 3481 
Q 2900 3844 2670 4047 
Q 2441 4250 2034 4250 
Q 1625 4250 1398 4047 
Q 1172 3844 1172 3481 
z
" transform="scale(0.015625)"/>
       </defs>
       <use xlink:href="#DejaVuSans-38"/>
      </g>
     </g>
    </g>
    <g id="ytick_6">
     <g id="line2d_29">
      <path d="M 44.57 50.712253 
L 450 50.712253 
" clip-path="url(#p76e8e80da2)" style="fill: none; stroke: #b0b0b0; stroke-width: 0.8; stroke-linecap: square"/>
     </g>
     <g id="line2d_30">
      <g>
       <use xlink:href="#m71f54654f2" x="44.57" y="50.712253" style="stroke: #000000; stroke-width: 0.8"/>
      </g>
     </g>
     <g id="text_16">
      <!-- 10 -->
      <g transform="translate(24.845 54.511472)scale(0.1 -0.1)">
       <use xlink:href="#DejaVuSans-31"/>
       <use xlink:href="#DejaVuSans-30" x="63.623047"/>
      </g>
     </g>
    </g>
    <g id="text_17">
     <!-- x [m] -->
     <g transform="translate(18.765313 178.580312)rotate(-90)scale(0.1 -0.1)">
      <defs>
       <path id="DejaVuSans-78" d="M 3513 3500 
L 2247 1797 
L 3578 0 
L 2900 0 
L 1881 1375 
L 863 0 
L 184 0 
L 1544 1831 
L 300 3500 
L 978 3500 
L 1906 2253 
L 2834 3500 
L 3513 3500 
z
" transform="scale(0.015625)"/>
       <path id="DejaVuSans-6d" d="M 3328 2828 
Q 3544 3216 3844 3400 
Q 4144 3584 4550 3584 
Q 5097 3584 5394 3201 
Q 5691 2819 5691 2113 
L 5691 0 
L 5113 0 
L 5113 2094 
Q 5113 2597 4934 2840 
Q 4756 3084 4391 3084 
Q 3944 3084 3684 2787 
Q 3425 2491 3425 1978 
L 3425 0 
L 2847 0 
L 2847 2094 
Q 2847 2600 2669 2842 
Q 2491 3084 2119 3084 
Q 1678 3084 1418 2786 
Q 1159 2488 1159 1978 
L 1159 0 
L 581 0 
L 581 3500 
L 1159 3500 
L 1159 2956 
Q 1356 3278 1631 3431 
Q 1906 3584 2284 3584 
Q 2666 3584 2933 3390 
Q 3200 3197 3328 2828 
z
" transform="scale(0.015625)"/>
      </defs>
      <use xlink:href="#DejaVuSans-78"/>
      <use xlink:href="#DejaVuSans-20" x="59.179688"/>
      <use xlink:href="#DejaVuSans-5b" x="90.966797"/>
      <use xlink:href="#DejaVuSans-6d" x="129.980469"/>
      <use xlink:href="#DejaVuSans-5d" x="227.392578"/>
     </g>
    </g>
   </g>
   <g id="line2d_31">
    <path d="M 62.998636 287.406415 
L 183.386713 287.476802 
L 187.090962 287.784185 
L 192.647334 288.618407 
L 194.499459 289.021582 
L 203.76008 290.269467 
L 209.316453 290.635046 
L 214.872825 290.736657 
L 220.429198 290.580423 
L 224.133447 290.312767 
L 231.541944 289.682287 
L 235.246192 289.285204 
L 238.950441 288.778898 
L 257.471683 286.68551 
L 261.175932 286.392181 
L 263.028056 285.699242 
L 264.88018 283.876896 
L 266.732305 280.460167 
L 268.584429 275.331891 
L 270.436553 268.417815 
L 272.288677 259.858166 
L 274.140802 249.950454 
L 275.992926 239.421835 
L 277.84505 222.954603 
L 281.549299 199.404513 
L 285.253547 172.450455 
L 287.105672 155.137189 
L 288.957796 143.588051 
L 290.80992 130.950384 
L 292.662044 120.349504 
L 294.514169 108.984506 
L 298.218417 89.798657 
L 300.070541 77.489651 
L 301.922666 70.353505 
L 303.77479 63.96906 
L 305.626914 58.319374 
L 307.479038 53.382211 
L 309.331163 48.793951 
L 311.183287 44.562692 
L 313.035411 43.728342 
L 314.887535 44.592088 
L 316.73966 47.240681 
L 318.591784 51.437334 
L 320.443908 61.287438 
L 324.148157 79.493022 
L 329.704529 115.886045 
L 331.556654 130.086756 
L 333.408778 142.821142 
L 335.260902 163.13205 
L 338.965151 189.075034 
L 340.817275 200.895863 
L 342.669399 217.661539 
L 344.521524 228.090509 
L 348.225772 248.083129 
L 351.930021 265.055456 
L 353.782145 271.953056 
L 355.634269 278.323194 
L 357.486393 286.357073 
L 357.486393 286.357073 
" clip-path="url(#p76e8e80da2)" style="fill: none; stroke: #ff0000; stroke-width: 1.5; stroke-linecap: square"/>
   </g>
   <g id="line2d_32">
    <path d="M 62.998636 287.406555 
L 188.943086 287.464058 
L 192.647334 287.733592 
L 196.351583 288.24035 
L 200.055831 288.877795 
L 205.612204 289.563227 
L 211.168577 290.049656 
L 216.72495 290.142651 
L 222.281323 289.968979 
L 225.985571 289.655835 
L 231.541944 289.147406 
L 238.950441 288.135868 
L 242.654689 287.595653 
L 244.506814 287.207046 
L 257.471683 285.430965 
L 266.732305 284.675275 
L 274.140802 284.308175 
L 275.992926 283.641356 
L 277.84505 281.157307 
L 279.697175 278.279394 
L 281.549299 274.59058 
L 283.401423 269.778377 
L 285.253547 263.697209 
L 287.105672 256.816647 
L 288.957796 243.933198 
L 292.662044 223.442092 
L 296.366293 199.431356 
L 298.218417 186.261804 
L 300.070541 174.540094 
L 301.922666 161.249425 
L 303.77479 144.047898 
L 305.626914 131.483396 
L 311.183287 101.655998 
L 313.035411 88.077462 
L 316.73966 71.898843 
L 318.591784 65.671091 
L 320.443908 57.137954 
L 322.296032 52.078424 
L 324.148157 47.718246 
L 326.000281 44.098107 
L 327.852405 41.409871 
L 329.704529 39.681608 
L 331.556654 39.46 
L 333.408778 40.72364 
L 335.260902 43.300667 
L 337.113026 47.186723 
L 338.965151 52.632658 
L 340.817275 58.590659 
L 342.669399 65.953827 
L 344.521524 75.217095 
L 346.373648 90.239538 
L 348.225772 101.314446 
L 350.077896 113.734693 
L 351.930021 127.3785 
L 353.782145 139.203751 
L 355.634269 151.767742 
L 357.486393 170.596288 
L 361.190642 195.476647 
L 363.042766 208.583357 
L 364.89489 219.077912 
L 366.747015 234.918089 
L 370.451263 254.187822 
L 372.303387 262.779307 
L 374.155512 270.812585 
L 376.007636 277.377022 
L 377.85976 282.9264 
L 377.85976 282.9264 
" clip-path="url(#p76e8e80da2)" style="fill: none; stroke: #008000; stroke-width: 1.5; stroke-linecap: square"/>
   </g>
   <g id="line2d_33">
    <path d="M 62.998636 287.403357 
L 188.943086 287.458403 
L 192.647334 287.734717 
L 196.351583 288.022381 
L 203.76008 288.466649 
L 209.316453 288.347482 
L 211.168577 288.63022 
L 213.020701 289.028666 
L 214.872825 289.631229 
L 216.72495 289.830122 
L 220.429198 289.793741 
L 225.985571 289.616235 
L 229.68982 289.189986 
L 233.394068 288.636999 
L 240.802565 288.031233 
L 251.915311 286.271678 
L 255.619559 285.56532 
L 263.028056 284.73568 
L 270.436553 284.041683 
L 281.549299 283.585233 
L 292.662044 283.775847 
L 294.514169 283.690095 
L 296.366293 283.059178 
L 298.218417 281.711623 
L 300.070541 279.593527 
L 301.922666 275.423912 
L 303.77479 272.470822 
L 305.626914 268.796505 
L 307.479038 265.42479 
L 309.331163 261.393231 
L 311.183287 256.955208 
L 313.035411 251.785044 
L 314.887535 243.101513 
L 316.73966 236.86501 
L 318.591784 229.953524 
L 320.443908 222.032938 
L 322.296032 209.682292 
L 327.852405 183.174479 
L 329.704529 172.856826 
L 331.556654 158.405174 
L 335.260902 140.152402 
L 340.817275 112.188525 
L 342.669399 103.599965 
L 344.521524 91.297382 
L 346.373648 83.387666 
L 348.225772 77.143244 
L 350.077896 71.332609 
L 351.930021 66.441829 
L 353.782145 60.34099 
L 355.634269 57.043132 
L 357.486393 54.283588 
L 359.338518 52.047891 
L 361.190642 50.376414 
L 363.042766 49.025848 
L 364.89489 48.79567 
L 366.747015 49.073828 
L 368.599139 49.951947 
L 370.451263 51.476468 
L 372.303387 53.434375 
L 376.007636 61.359196 
L 377.85976 65.311055 
L 379.711884 69.792278 
L 381.564009 74.832181 
L 383.416133 83.393771 
L 387.120381 96.812022 
L 390.82463 112.194046 
L 394.528878 129.253804 
L 396.381003 142.4045 
L 398.233127 152.636937 
L 400.085251 161.527706 
L 401.937376 171.395506 
L 403.7895 182.078334 
L 405.641624 195.497905 
L 407.493748 205.630211 
L 409.345873 213.786614 
L 411.197997 223.000442 
L 414.902245 237.996167 
L 416.75437 248.562396 
L 420.458618 261.781389 
L 422.310742 266.787967 
L 424.162867 271.162589 
L 426.014991 276.728615 
L 427.867115 279.877736 
L 429.719239 282.347019 
L 431.571364 284.430449 
L 431.571364 284.430449 
" clip-path="url(#p76e8e80da2)" style="fill: none; stroke: #ffa500; stroke-width: 1.5; stroke-linecap: square"/>
   </g>
   <g id="line2d_34">
    <path d="M 62.998636 283.722436 
L 74.111382 283.829646 
L 118.562364 284.228461 
L 200.055831 284.737808 
L 201.907956 285.689985 
L 203.76008 288.979291 
L 205.612204 289.958462 
L 207.464328 290.123287 
L 209.316453 289.774461 
L 211.168577 289.763701 
L 213.020701 290.154478 
L 214.872825 291.06 
L 216.72495 290.955519 
L 218.577074 290.263552 
L 220.429198 289.086062 
L 222.281323 288.316218 
L 224.133447 288.306284 
L 225.985571 289.446126 
L 227.837695 289.998282 
L 229.68982 290.017668 
L 233.394068 289.114304 
L 235.246192 288.891854 
L 237.098317 289.048736 
L 238.950441 289.066899 
L 240.802565 288.624858 
L 244.506814 286.905374 
L 246.358938 286.344427 
L 248.211062 286.264784 
L 250.063186 286.491663 
L 251.915311 286.422149 
L 253.767435 286.043187 
L 255.619559 285.513978 
L 257.471683 285.195742 
L 259.323808 285.062087 
L 261.175932 285.117307 
L 263.028056 285.010143 
L 264.88018 284.679815 
L 268.584429 283.573948 
L 270.436553 283.482753 
L 274.140802 283.715369 
L 277.84505 283.42726 
L 279.697175 283.301945 
L 281.549299 283.328636 
L 285.253547 283.806097 
L 287.105672 283.865398 
L 292.662044 283.608229 
L 298.218417 284.048867 
L 300.070541 284.032677 
L 301.922666 283.47501 
L 303.77479 281.981715 
L 305.626914 278.508783 
L 307.479038 274.244977 
L 309.331163 268.055806 
L 313.035411 252.932615 
L 314.887535 242.660518 
L 318.591784 230.798745 
L 320.443908 224.350765 
L 322.296032 214.376233 
L 326.000281 199.867234 
L 327.852405 191.612381 
L 329.704529 180.78493 
L 331.556654 163.062939 
L 338.965151 112.818787 
L 340.817275 103.128942 
L 342.669399 94.476969 
L 344.521524 83.143415 
L 346.373648 76.644094 
L 348.225772 72.058164 
L 351.930021 64.226656 
L 353.782145 57.704674 
L 355.634269 53.260765 
L 357.486393 49.442294 
L 359.338518 46.429066 
L 363.042766 42.054203 
L 364.89489 41.415169 
L 366.747015 41.393442 
L 368.599139 42.428892 
L 370.451263 44.88381 
L 372.303387 48.317844 
L 374.155512 54.748314 
L 376.007636 59.07958 
L 377.85976 62.629053 
L 379.711884 66.427009 
L 381.564009 70.826212 
L 383.416133 78.619992 
L 385.268257 84.757689 
L 387.120381 91.343309 
L 390.82463 106.487743 
L 394.528878 125.103363 
L 396.381003 140.307913 
L 398.233127 151.396154 
L 400.085251 160.370056 
L 401.937376 170.070828 
L 403.7895 180.955858 
L 405.641624 195.7471 
L 407.493748 207.790719 
L 409.345873 217.798066 
L 411.197997 228.89178 
L 413.050121 237.609481 
L 414.902245 245.342213 
L 416.75437 255.925261 
L 418.606494 262.652693 
L 420.458618 268.629651 
L 422.310742 272.871389 
L 424.162867 276.242639 
L 426.014991 280.568041 
L 427.867115 283.484757 
L 431.571364 288.662734 
L 431.571364 288.662734 
" clip-path="url(#p76e8e80da2)" style="fill: none; stroke-dasharray: 1.5,2.475; stroke-dashoffset: 0; stroke: #0000ff; stroke-width: 1.5"/>
   </g>
   <g id="patch_3">
    <path d="M 44.57 303.64 
L 44.57 26.88 
" style="fill: none; stroke: #000000; stroke-width: 0.8; stroke-linejoin: miter; stroke-linecap: square"/>
   </g>
   <g id="patch_4">
    <path d="M 450 303.64 
L 450 26.88 
" style="fill: none; stroke: #000000; stroke-width: 0.8; stroke-linejoin: miter; stroke-linecap: square"/>
   </g>
   <g id="patch_5">
    <path d="M 44.57 303.64 
L 450 303.64 
" style="fill: none; stroke: #000000; stroke-width: 0.8; stroke-linejoin: miter; stroke-linecap: square"/>
   </g>
   <g id="patch_6">
    <path d="M 44.57 26.88 
L 450 26.88 
" style="fill: none; stroke: #000000; stroke-width: 0.8; stroke-linejoin: miter; stroke-linecap: square"/>
   </g>
   <g id="text_18">
    <!-- All scenarios x plotted against time -->
    <g transform="translate(141.217188 20.88)scale(0.12 -0.12)">
     <defs>
      <path id="DejaVuSans-41" d="M 2188 4044 
L 1331 1722 
L 3047 1722 
L 2188 4044 
z
M 1831 4666 
L 2547 4666 
L 4325 0 
L 3669 0 
L 3244 1197 
L 1141 1197 
L 716 0 
L 50 0 
L 1831 4666 
z
" transform="scale(0.015625)"/>
      <path id="DejaVuSans-6c" d="M 603 4863 
L 1178 4863 
L 1178 0 
L 603 0 
L 603 4863 
z
" transform="scale(0.015625)"/>
      <path id="DejaVuSans-63" d="M 3122 3366 
L 3122 2828 
Q 2878 2963 2633 3030 
Q 2388 3097 2138 3097 
Q 1578 3097 1268 2742 
Q 959 2388 959 1747 
Q 959 1106 1268 751 
Q 1578 397 2138 397 
Q 2388 397 2633 464 
Q 2878 531 3122 666 
L 3122 134 
Q 2881 22 2623 -34 
Q 2366 -91 2075 -91 
Q 1284 -91 818 406 
Q 353 903 353 1747 
Q 353 2603 823 3093 
Q 1294 3584 2113 3584 
Q 2378 3584 2631 3529 
Q 2884 3475 3122 3366 
z
" transform="scale(0.015625)"/>
      <path id="DejaVuSans-65" d="M 3597 1894 
L 3597 1613 
L 953 1613 
Q 991 1019 1311 708 
Q 1631 397 2203 397 
Q 2534 397 2845 478 
Q 3156 559 3463 722 
L 3463 178 
Q 3153 47 2828 -22 
Q 2503 -91 2169 -91 
Q 1331 -91 842 396 
Q 353 884 353 1716 
Q 353 2575 817 3079 
Q 1281 3584 2069 3584 
Q 2775 3584 3186 3129 
Q 3597 2675 3597 1894 
z
M 3022 2063 
Q 3016 2534 2758 2815 
Q 2500 3097 2075 3097 
Q 1594 3097 1305 2825 
Q 1016 2553 972 2059 
L 3022 2063 
z
" transform="scale(0.015625)"/>
      <path id="DejaVuSans-6e" d="M 3513 2113 
L 3513 0 
L 2938 0 
L 2938 2094 
Q 2938 2591 2744 2837 
Q 2550 3084 2163 3084 
Q 1697 3084 1428 2787 
Q 1159 2491 1159 1978 
L 1159 0 
L 581 0 
L 581 3500 
L 1159 3500 
L 1159 2956 
Q 1366 3272 1645 3428 
Q 1925 3584 2291 3584 
Q 2894 3584 3203 3211 
Q 3513 2838 3513 2113 
z
" transform="scale(0.015625)"/>
      <path id="DejaVuSans-61" d="M 2194 1759 
Q 1497 1759 1228 1600 
Q 959 1441 959 1056 
Q 959 750 1161 570 
Q 1363 391 1709 391 
Q 2188 391 2477 730 
Q 2766 1069 2766 1631 
L 2766 1759 
L 2194 1759 
z
M 3341 1997 
L 3341 0 
L 2766 0 
L 2766 531 
Q 2569 213 2275 61 
Q 1981 -91 1556 -91 
Q 1019 -91 701 211 
Q 384 513 384 1019 
Q 384 1609 779 1909 
Q 1175 2209 1959 2209 
L 2766 2209 
L 2766 2266 
Q 2766 2663 2505 2880 
Q 2244 3097 1772 3097 
Q 1472 3097 1187 3025 
Q 903 2953 641 2809 
L 641 3341 
Q 956 3463 1253 3523 
Q 1550 3584 1831 3584 
Q 2591 3584 2966 3190 
Q 3341 2797 3341 1997 
z
" transform="scale(0.015625)"/>
      <path id="DejaVuSans-72" d="M 2631 2963 
Q 2534 3019 2420 3045 
Q 2306 3072 2169 3072 
Q 1681 3072 1420 2755 
Q 1159 2438 1159 1844 
L 1159 0 
L 581 0 
L 581 3500 
L 1159 3500 
L 1159 2956 
Q 1341 3275 1631 3429 
Q 1922 3584 2338 3584 
Q 2397 3584 2469 3576 
Q 2541 3569 2628 3553 
L 2631 2963 
z
" transform="scale(0.015625)"/>
      <path id="DejaVuSans-69" d="M 603 3500 
L 1178 3500 
L 1178 0 
L 603 0 
L 603 3500 
z
M 603 4863 
L 1178 4863 
L 1178 4134 
L 603 4134 
L 603 4863 
z
" transform="scale(0.015625)"/>
      <path id="DejaVuSans-6f" d="M 1959 3097 
Q 1497 3097 1228 2736 
Q 959 2375 959 1747 
Q 959 1119 1226 758 
Q 1494 397 1959 397 
Q 2419 397 2687 759 
Q 2956 1122 2956 1747 
Q 2956 2369 2687 2733 
Q 2419 3097 1959 3097 
z
M 1959 3584 
Q 2709 3584 3137 3096 
Q 3566 2609 3566 1747 
Q 3566 888 3137 398 
Q 2709 -91 1959 -91 
Q 1206 -91 779 398 
Q 353 888 353 1747 
Q 353 2609 779 3096 
Q 1206 3584 1959 3584 
z
" transform="scale(0.015625)"/>
      <path id="DejaVuSans-70" d="M 1159 525 
L 1159 -1331 
L 581 -1331 
L 581 3500 
L 1159 3500 
L 1159 2969 
Q 1341 3281 1617 3432 
Q 1894 3584 2278 3584 
Q 2916 3584 3314 3078 
Q 3713 2572 3713 1747 
Q 3713 922 3314 415 
Q 2916 -91 2278 -91 
Q 1894 -91 1617 61 
Q 1341 213 1159 525 
z
M 3116 1747 
Q 3116 2381 2855 2742 
Q 2594 3103 2138 3103 
Q 1681 3103 1420 2742 
Q 1159 2381 1159 1747 
Q 1159 1113 1420 752 
Q 1681 391 2138 391 
Q 2594 391 2855 752 
Q 3116 1113 3116 1747 
z
" transform="scale(0.015625)"/>
      <path id="DejaVuSans-64" d="M 2906 2969 
L 2906 4863 
L 3481 4863 
L 3481 0 
L 2906 0 
L 2906 525 
Q 2725 213 2448 61 
Q 2172 -91 1784 -91 
Q 1150 -91 751 415 
Q 353 922 353 1747 
Q 353 2572 751 3078 
Q 1150 3584 1784 3584 
Q 2172 3584 2448 3432 
Q 2725 3281 2906 2969 
z
M 947 1747 
Q 947 1113 1208 752 
Q 1469 391 1925 391 
Q 2381 391 2643 752 
Q 2906 1113 2906 1747 
Q 2906 2381 2643 2742 
Q 2381 3103 1925 3103 
Q 1469 3103 1208 2742 
Q 947 2381 947 1747 
z
" transform="scale(0.015625)"/>
      <path id="DejaVuSans-67" d="M 2906 1791 
Q 2906 2416 2648 2759 
Q 2391 3103 1925 3103 
Q 1463 3103 1205 2759 
Q 947 2416 947 1791 
Q 947 1169 1205 825 
Q 1463 481 1925 481 
Q 2391 481 2648 825 
Q 2906 1169 2906 1791 
z
M 3481 434 
Q 3481 -459 3084 -895 
Q 2688 -1331 1869 -1331 
Q 1566 -1331 1297 -1286 
Q 1028 -1241 775 -1147 
L 775 -588 
Q 1028 -725 1275 -790 
Q 1522 -856 1778 -856 
Q 2344 -856 2625 -561 
Q 2906 -266 2906 331 
L 2906 616 
Q 2728 306 2450 153 
Q 2172 0 1784 0 
Q 1141 0 747 490 
Q 353 981 353 1791 
Q 353 2603 747 3093 
Q 1141 3584 1784 3584 
Q 2172 3584 2450 3431 
Q 2728 3278 2906 2969 
L 2906 3500 
L 3481 3500 
L 3481 434 
z
" transform="scale(0.015625)"/>
     </defs>
     <use xlink:href="#DejaVuSans-41"/>
     <use xlink:href="#DejaVuSans-6c" x="68.408203"/>
     <use xlink:href="#DejaVuSans-6c" x="96.191406"/>
     <use xlink:href="#DejaVuSans-20" x="123.974609"/>
     <use xlink:href="#DejaVuSans-73" x="155.761719"/>
     <use xlink:href="#DejaVuSans-63" x="207.861328"/>
     <use xlink:href="#DejaVuSans-65" x="262.841797"/>
     <use xlink:href="#DejaVuSans-6e" x="324.365234"/>
     <use xlink:href="#DejaVuSans-61" x="387.744141"/>
     <use xlink:href="#DejaVuSans-72" x="449.023438"/>
     <use xlink:href="#DejaVuSans-69" x="490.136719"/>
     <use xlink:href="#DejaVuSans-6f" x="517.919922"/>
     <use xlink:href="#DejaVuSans-73" x="579.101562"/>
     <use xlink:href="#DejaVuSans-20" x="631.201172"/>
     <use xlink:href="#DejaVuSans-78" x="662.988281"/>
     <use xlink:href="#DejaVuSans-20" x="722.167969"/>
     <use xlink:href="#DejaVuSans-70" x="753.955078"/>
     <use xlink:href="#DejaVuSans-6c" x="817.431641"/>
     <use xlink:href="#DejaVuSans-6f" x="845.214844"/>
     <use xlink:href="#DejaVuSans-74" x="906.396484"/>
     <use xlink:href="#DejaVuSans-74" x="945.605469"/>
     <use xlink:href="#DejaVuSans-65" x="984.814453"/>
     <use xlink:href="#DejaVuSans-64" x="1046.337891"/>
     <use xlink:href="#DejaVuSans-20" x="1109.814453"/>
     <use xlink:href="#DejaVuSans-61" x="1141.601562"/>
     <use xlink:href="#DejaVuSans-67" x="1202.880859"/>
     <use xlink:href="#DejaVuSans-61" x="1266.357422"/>
     <use xlink:href="#DejaVuSans-69" x="1327.636719"/>
     <use xlink:href="#DejaVuSans-6e" x="1355.419922"/>
     <use xlink:href="#DejaVuSans-73" x="1418.798828"/>
     <use xlink:href="#DejaVuSans-74" x="1470.898438"/>
     <use xlink:href="#DejaVuSans-20" x="1510.107422"/>
     <use xlink:href="#DejaVuSans-74" x="1541.894531"/>
     <use xlink:href="#DejaVuSans-69" x="1581.103516"/>
     <use xlink:href="#DejaVuSans-6d" x="1608.886719"/>
     <use xlink:href="#DejaVuSans-65" x="1706.298828"/>
    </g>
   </g>
   <g id="legend_1">
    <g id="patch_7">
     <path d="M 51.57 93.5925 
L 269.868438 93.5925 
Q 271.868438 93.5925 271.868438 91.5925 
L 271.868438 33.88 
Q 271.868438 31.88 269.868438 31.88 
L 51.57 31.88 
Q 49.57 31.88 49.57 33.88 
L 49.57 91.5925 
Q 49.57 93.5925 51.57 93.5925 
z
" style="fill: #ffffff; opacity: 0.8; stroke: #cccccc; stroke-linejoin: miter"/>
    </g>
    <g id="line2d_35">
     <path d="M 53.57 39.978437 
L 63.57 39.978437 
L 73.57 39.978437 
" style="fill: none; stroke: #ff0000; stroke-width: 1.5; stroke-linecap: square"/>
    </g>
    <g id="text_19">
     <!-- No payload drone x movement -->
     <g transform="translate(81.57 43.478437)scale(0.1 -0.1)">
      <defs>
       <path id="DejaVuSans-4e" d="M 628 4666 
L 1478 4666 
L 3547 763 
L 3547 4666 
L 4159 4666 
L 4159 0 
L 3309 0 
L 1241 3903 
L 1241 0 
L 628 0 
L 628 4666 
z
" transform="scale(0.015625)"/>
       <path id="DejaVuSans-79" d="M 2059 -325 
Q 1816 -950 1584 -1140 
Q 1353 -1331 966 -1331 
L 506 -1331 
L 506 -850 
L 844 -850 
Q 1081 -850 1212 -737 
Q 1344 -625 1503 -206 
L 1606 56 
L 191 3500 
L 800 3500 
L 1894 763 
L 2988 3500 
L 3597 3500 
L 2059 -325 
z
" transform="scale(0.015625)"/>
       <path id="DejaVuSans-76" d="M 191 3500 
L 800 3500 
L 1894 563 
L 2988 3500 
L 3597 3500 
L 2284 0 
L 1503 0 
L 191 3500 
z
" transform="scale(0.015625)"/>
      </defs>
      <use xlink:href="#DejaVuSans-4e"/>
      <use xlink:href="#DejaVuSans-6f" x="74.804688"/>
      <use xlink:href="#DejaVuSans-20" x="135.986328"/>
      <use xlink:href="#DejaVuSans-70" x="167.773438"/>
      <use xlink:href="#DejaVuSans-61" x="231.25"/>
      <use xlink:href="#DejaVuSans-79" x="292.529297"/>
      <use xlink:href="#DejaVuSans-6c" x="351.708984"/>
      <use xlink:href="#DejaVuSans-6f" x="379.492188"/>
      <use xlink:href="#DejaVuSans-61" x="440.673828"/>
      <use xlink:href="#DejaVuSans-64" x="501.953125"/>
      <use xlink:href="#DejaVuSans-20" x="565.429688"/>
      <use xlink:href="#DejaVuSans-64" x="597.216797"/>
      <use xlink:href="#DejaVuSans-72" x="660.693359"/>
      <use xlink:href="#DejaVuSans-6f" x="699.556641"/>
      <use xlink:href="#DejaVuSans-6e" x="760.738281"/>
      <use xlink:href="#DejaVuSans-65" x="824.117188"/>
      <use xlink:href="#DejaVuSans-20" x="885.640625"/>
      <use xlink:href="#DejaVuSans-78" x="917.427734"/>
      <use xlink:href="#DejaVuSans-20" x="976.607422"/>
      <use xlink:href="#DejaVuSans-6d" x="1008.394531"/>
      <use xlink:href="#DejaVuSans-6f" x="1105.806641"/>
      <use xlink:href="#DejaVuSans-76" x="1166.988281"/>
      <use xlink:href="#DejaVuSans-65" x="1226.167969"/>
      <use xlink:href="#DejaVuSans-6d" x="1287.691406"/>
      <use xlink:href="#DejaVuSans-65" x="1385.103516"/>
      <use xlink:href="#DejaVuSans-6e" x="1446.626953"/>
      <use xlink:href="#DejaVuSans-74" x="1510.005859"/>
     </g>
    </g>
    <g id="line2d_36">
     <path d="M 53.57 54.656563 
L 63.57 54.656563 
L 73.57 54.656563 
" style="fill: none; stroke: #008000; stroke-width: 1.5; stroke-linecap: square"/>
    </g>
    <g id="text_20">
     <!-- Attached payload drone x movement -->
     <g transform="translate(81.57 58.156563)scale(0.1 -0.1)">
      <defs>
       <path id="DejaVuSans-68" d="M 3513 2113 
L 3513 0 
L 2938 0 
L 2938 2094 
Q 2938 2591 2744 2837 
Q 2550 3084 2163 3084 
Q 1697 3084 1428 2787 
Q 1159 2491 1159 1978 
L 1159 0 
L 581 0 
L 581 4863 
L 1159 4863 
L 1159 2956 
Q 1366 3272 1645 3428 
Q 1925 3584 2291 3584 
Q 2894 3584 3203 3211 
Q 3513 2838 3513 2113 
z
" transform="scale(0.015625)"/>
      </defs>
      <use xlink:href="#DejaVuSans-41"/>
      <use xlink:href="#DejaVuSans-74" x="66.658203"/>
      <use xlink:href="#DejaVuSans-74" x="105.867188"/>
      <use xlink:href="#DejaVuSans-61" x="145.076172"/>
      <use xlink:href="#DejaVuSans-63" x="206.355469"/>
      <use xlink:href="#DejaVuSans-68" x="261.335938"/>
      <use xlink:href="#DejaVuSans-65" x="324.714844"/>
      <use xlink:href="#DejaVuSans-64" x="386.238281"/>
      <use xlink:href="#DejaVuSans-20" x="449.714844"/>
      <use xlink:href="#DejaVuSans-70" x="481.501953"/>
      <use xlink:href="#DejaVuSans-61" x="544.978516"/>
      <use xlink:href="#DejaVuSans-79" x="606.257812"/>
      <use xlink:href="#DejaVuSans-6c" x="665.4375"/>
      <use xlink:href="#DejaVuSans-6f" x="693.220703"/>
      <use xlink:href="#DejaVuSans-61" x="754.402344"/>
      <use xlink:href="#DejaVuSans-64" x="815.681641"/>
      <use xlink:href="#DejaVuSans-20" x="879.158203"/>
      <use xlink:href="#DejaVuSans-64" x="910.945312"/>
      <use xlink:href="#DejaVuSans-72" x="974.421875"/>
      <use xlink:href="#DejaVuSans-6f" x="1013.285156"/>
      <use xlink:href="#DejaVuSans-6e" x="1074.466797"/>
      <use xlink:href="#DejaVuSans-65" x="1137.845703"/>
      <use xlink:href="#DejaVuSans-20" x="1199.369141"/>
      <use xlink:href="#DejaVuSans-78" x="1231.15625"/>
      <use xlink:href="#DejaVuSans-20" x="1290.335938"/>
      <use xlink:href="#DejaVuSans-6d" x="1322.123047"/>
      <use xlink:href="#DejaVuSans-6f" x="1419.535156"/>
      <use xlink:href="#DejaVuSans-76" x="1480.716797"/>
      <use xlink:href="#DejaVuSans-65" x="1539.896484"/>
      <use xlink:href="#DejaVuSans-6d" x="1601.419922"/>
      <use xlink:href="#DejaVuSans-65" x="1698.832031"/>
      <use xlink:href="#DejaVuSans-6e" x="1760.355469"/>
      <use xlink:href="#DejaVuSans-74" x="1823.734375"/>
     </g>
    </g>
    <g id="line2d_37">
     <path d="M 53.57 69.334687 
L 63.57 69.334687 
L 73.57 69.334687 
" style="fill: none; stroke: #ffa500; stroke-width: 1.5; stroke-linecap: square"/>
    </g>
    <g id="text_21">
     <!-- Slung payload drone x movement -->
     <g transform="translate(81.57 72.834687)scale(0.1 -0.1)">
      <defs>
       <path id="DejaVuSans-53" d="M 3425 4513 
L 3425 3897 
Q 3066 4069 2747 4153 
Q 2428 4238 2131 4238 
Q 1616 4238 1336 4038 
Q 1056 3838 1056 3469 
Q 1056 3159 1242 3001 
Q 1428 2844 1947 2747 
L 2328 2669 
Q 3034 2534 3370 2195 
Q 3706 1856 3706 1288 
Q 3706 609 3251 259 
Q 2797 -91 1919 -91 
Q 1588 -91 1214 -16 
Q 841 59 441 206 
L 441 856 
Q 825 641 1194 531 
Q 1563 422 1919 422 
Q 2459 422 2753 634 
Q 3047 847 3047 1241 
Q 3047 1584 2836 1778 
Q 2625 1972 2144 2069 
L 1759 2144 
Q 1053 2284 737 2584 
Q 422 2884 422 3419 
Q 422 4038 858 4394 
Q 1294 4750 2059 4750 
Q 2388 4750 2728 4690 
Q 3069 4631 3425 4513 
z
" transform="scale(0.015625)"/>
       <path id="DejaVuSans-75" d="M 544 1381 
L 544 3500 
L 1119 3500 
L 1119 1403 
Q 1119 906 1312 657 
Q 1506 409 1894 409 
Q 2359 409 2629 706 
Q 2900 1003 2900 1516 
L 2900 3500 
L 3475 3500 
L 3475 0 
L 2900 0 
L 2900 538 
Q 2691 219 2414 64 
Q 2138 -91 1772 -91 
Q 1169 -91 856 284 
Q 544 659 544 1381 
z
M 1991 3584 
L 1991 3584 
z
" transform="scale(0.015625)"/>
      </defs>
      <use xlink:href="#DejaVuSans-53"/>
      <use xlink:href="#DejaVuSans-6c" x="63.476562"/>
      <use xlink:href="#DejaVuSans-75" x="91.259766"/>
      <use xlink:href="#DejaVuSans-6e" x="154.638672"/>
      <use xlink:href="#DejaVuSans-67" x="218.017578"/>
      <use xlink:href="#DejaVuSans-20" x="281.494141"/>
      <use xlink:href="#DejaVuSans-70" x="313.28125"/>
      <use xlink:href="#DejaVuSans-61" x="376.757812"/>
      <use xlink:href="#DejaVuSans-79" x="438.037109"/>
      <use xlink:href="#DejaVuSans-6c" x="497.216797"/>
      <use xlink:href="#DejaVuSans-6f" x="525"/>
      <use xlink:href="#DejaVuSans-61" x="586.181641"/>
      <use xlink:href="#DejaVuSans-64" x="647.460938"/>
      <use xlink:href="#DejaVuSans-20" x="710.9375"/>
      <use xlink:href="#DejaVuSans-64" x="742.724609"/>
      <use xlink:href="#DejaVuSans-72" x="806.201172"/>
      <use xlink:href="#DejaVuSans-6f" x="845.064453"/>
      <use xlink:href="#DejaVuSans-6e" x="906.246094"/>
      <use xlink:href="#DejaVuSans-65" x="969.625"/>
      <use xlink:href="#DejaVuSans-20" x="1031.148438"/>
      <use xlink:href="#DejaVuSans-78" x="1062.935547"/>
      <use xlink:href="#DejaVuSans-20" x="1122.115234"/>
      <use xlink:href="#DejaVuSans-6d" x="1153.902344"/>
      <use xlink:href="#DejaVuSans-6f" x="1251.314453"/>
      <use xlink:href="#DejaVuSans-76" x="1312.496094"/>
      <use xlink:href="#DejaVuSans-65" x="1371.675781"/>
      <use xlink:href="#DejaVuSans-6d" x="1433.199219"/>
      <use xlink:href="#DejaVuSans-65" x="1530.611328"/>
      <use xlink:href="#DejaVuSans-6e" x="1592.134766"/>
      <use xlink:href="#DejaVuSans-74" x="1655.513672"/>
     </g>
    </g>
    <g id="line2d_38">
     <path d="M 53.57 84.012812 
L 63.57 84.012812 
L 73.57 84.012812 
" style="fill: none; stroke-dasharray: 1.5,2.475; stroke-dashoffset: 0; stroke: #0000ff; stroke-width: 1.5"/>
    </g>
    <g id="text_22">
     <!-- Slung payload x movement -->
     <g transform="translate(81.57 87.512812)scale(0.1 -0.1)">
      <use xlink:href="#DejaVuSans-53"/>
      <use xlink:href="#DejaVuSans-6c" x="63.476562"/>
      <use xlink:href="#DejaVuSans-75" x="91.259766"/>
      <use xlink:href="#DejaVuSans-6e" x="154.638672"/>
      <use xlink:href="#DejaVuSans-67" x="218.017578"/>
      <use xlink:href="#DejaVuSans-20" x="281.494141"/>
      <use xlink:href="#DejaVuSans-70" x="313.28125"/>
      <use xlink:href="#DejaVuSans-61" x="376.757812"/>
      <use xlink:href="#DejaVuSans-79" x="438.037109"/>
      <use xlink:href="#DejaVuSans-6c" x="497.216797"/>
      <use xlink:href="#DejaVuSans-6f" x="525"/>
      <use xlink:href="#DejaVuSans-61" x="586.181641"/>
      <use xlink:href="#DejaVuSans-64" x="647.460938"/>
      <use xlink:href="#DejaVuSans-20" x="710.9375"/>
      <use xlink:href="#DejaVuSans-78" x="742.724609"/>
      <use xlink:href="#DejaVuSans-20" x="801.904297"/>
      <use xlink:href="#DejaVuSans-6d" x="833.691406"/>
      <use xlink:href="#DejaVuSans-6f" x="931.103516"/>
      <use xlink:href="#DejaVuSans-76" x="992.285156"/>
      <use xlink:href="#DejaVuSans-65" x="1051.464844"/>
      <use xlink:href="#DejaVuSans-6d" x="1112.988281"/>
      <use xlink:href="#DejaVuSans-65" x="1210.400391"/>
      <use xlink:href="#DejaVuSans-6e" x="1271.923828"/>
      <use xlink:href="#DejaVuSans-74" x="1335.302734"/>
     </g>
    </g>
   </g>
  </g>
 </g>
 <defs>
  <clipPath id="p76e8e80da2">
   <rect x="44.57" y="26.88" width="405.43" height="276.76"/>
  </clipPath>
 </defs>
</svg>
