<?xml version="1.0" encoding="utf-8" standalone="no"?>
<!DOCTYPE svg PUBLIC "-//W3C//DTD SVG 1.1//EN"
  "http://www.w3.org/Graphics/SVG/1.1/DTD/svg11.dtd">
<svg xmlns:xlink="http://www.w3.org/1999/xlink" width="460.8pt" height="345.6pt" viewBox="0 0 460.8 345.6" xmlns="http://www.w3.org/2000/svg" version="1.1">
 <metadata>
  <rdf:RDF xmlns:dc="http://purl.org/dc/elements/1.1/" xmlns:cc="http://creativecommons.org/ns#" xmlns:rdf="http://www.w3.org/1999/02/22-rdf-syntax-ns#">
   <cc:Work>
    <dc:type rdf:resource="http://purl.org/dc/dcmitype/StillImage"/>
    <dc:date>2022-03-30T11:54:54.943429</dc:date>
    <dc:format>image/svg+xml</dc:format>
    <dc:creator>
     <cc:Agent>
      <dc:title>Matplotlib v3.5.1, https://matplotlib.org/</dc:title>
     </cc:Agent>
    </dc:creator>
   </cc:Work>
  </rdf:RDF>
 </metadata>
 <defs>
  <style type="text/css">*{stroke-linejoin: round; stroke-linecap: butt}</style>
 </defs>
 <g id="figure_1">
  <g id="patch_1">
   <path d="M 0 345.6 
L 460.8 345.6 
L 460.8 0 
L 0 0 
z
" style="fill: #ffffff"/>
  </g>
  <g id="axes_1">
   <g id="patch_2">
    <path d="M 56.09 303.64 
L 450 303.64 
L 450 26.88 
L 56.09 26.88 
z
" style="fill: #ffffff"/>
   </g>
   <g id="matplotlib.axis_1">
    <g id="xtick_1">
     <g id="line2d_1">
      <path d="M 72.195503 303.64 
L 72.195503 26.88 
" clip-path="url(#p9943f1975b)" style="fill: none; stroke: #b0b0b0; stroke-width: 0.8; stroke-linecap: square"/>
     </g>
     <g id="line2d_2">
      <defs>
       <path id="m6fd17a9f66" d="M 0 0 
L 0 3.5 
" style="stroke: #000000; stroke-width: 0.8"/>
      </defs>
      <g>
       <use xlink:href="#m6fd17a9f66" x="72.195503" y="303.64" style="stroke: #000000; stroke-width: 0.8"/>
      </g>
     </g>
     <g id="text_1">
      <!-- 0.0 -->
      <g transform="translate(64.24394 318.238437)scale(0.1 -0.1)">
       <defs>
        <path id="DejaVuSans-30" d="M 2034 4250 
Q 1547 4250 1301 3770 
Q 1056 3291 1056 2328 
Q 1056 1369 1301 889 
Q 1547 409 2034 409 
Q 2525 409 2770 889 
Q 3016 1369 3016 2328 
Q 3016 3291 2770 3770 
Q 2525 4250 2034 4250 
z
M 2034 4750 
Q 2819 4750 3233 4129 
Q 3647 3509 3647 2328 
Q 3647 1150 3233 529 
Q 2819 -91 2034 -91 
Q 1250 -91 836 529 
Q 422 1150 422 2328 
Q 422 3509 836 4129 
Q 1250 4750 2034 4750 
z
" transform="scale(0.015625)"/>
        <path id="DejaVuSans-2e" d="M 684 794 
L 1344 794 
L 1344 0 
L 684 0 
L 684 794 
z
" transform="scale(0.015625)"/>
       </defs>
       <use xlink:href="#DejaVuSans-30"/>
       <use xlink:href="#DejaVuSans-2e" x="63.623047"/>
       <use xlink:href="#DejaVuSans-30" x="95.410156"/>
      </g>
     </g>
    </g>
    <g id="xtick_2">
     <g id="line2d_3">
      <path d="M 117.18294 303.64 
L 117.18294 26.88 
" clip-path="url(#p9943f1975b)" style="fill: none; stroke: #b0b0b0; stroke-width: 0.8; stroke-linecap: square"/>
     </g>
     <g id="line2d_4">
      <g>
       <use xlink:href="#m6fd17a9f66" x="117.18294" y="303.64" style="stroke: #000000; stroke-width: 0.8"/>
      </g>
     </g>
     <g id="text_2">
      <!-- 2.5 -->
      <g transform="translate(109.231377 318.238437)scale(0.1 -0.1)">
       <defs>
        <path id="DejaVuSans-32" d="M 1228 531 
L 3431 531 
L 3431 0 
L 469 0 
L 469 531 
Q 828 903 1448 1529 
Q 2069 2156 2228 2338 
Q 2531 2678 2651 2914 
Q 2772 3150 2772 3378 
Q 2772 3750 2511 3984 
Q 2250 4219 1831 4219 
Q 1534 4219 1204 4116 
Q 875 4013 500 3803 
L 500 4441 
Q 881 4594 1212 4672 
Q 1544 4750 1819 4750 
Q 2544 4750 2975 4387 
Q 3406 4025 3406 3419 
Q 3406 3131 3298 2873 
Q 3191 2616 2906 2266 
Q 2828 2175 2409 1742 
Q 1991 1309 1228 531 
z
" transform="scale(0.015625)"/>
        <path id="DejaVuSans-35" d="M 691 4666 
L 3169 4666 
L 3169 4134 
L 1269 4134 
L 1269 2991 
Q 1406 3038 1543 3061 
Q 1681 3084 1819 3084 
Q 2600 3084 3056 2656 
Q 3513 2228 3513 1497 
Q 3513 744 3044 326 
Q 2575 -91 1722 -91 
Q 1428 -91 1123 -41 
Q 819 9 494 109 
L 494 744 
Q 775 591 1075 516 
Q 1375 441 1709 441 
Q 2250 441 2565 725 
Q 2881 1009 2881 1497 
Q 2881 1984 2565 2268 
Q 2250 2553 1709 2553 
Q 1456 2553 1204 2497 
Q 953 2441 691 2322 
L 691 4666 
z
" transform="scale(0.015625)"/>
       </defs>
       <use xlink:href="#DejaVuSans-32"/>
       <use xlink:href="#DejaVuSans-2e" x="63.623047"/>
       <use xlink:href="#DejaVuSans-35" x="95.410156"/>
      </g>
     </g>
    </g>
    <g id="xtick_3">
     <g id="line2d_5">
      <path d="M 162.170377 303.64 
L 162.170377 26.88 
" clip-path="url(#p9943f1975b)" style="fill: none; stroke: #b0b0b0; stroke-width: 0.8; stroke-linecap: square"/>
     </g>
     <g id="line2d_6">
      <g>
       <use xlink:href="#m6fd17a9f66" x="162.170377" y="303.64" style="stroke: #000000; stroke-width: 0.8"/>
      </g>
     </g>
     <g id="text_3">
      <!-- 5.0 -->
      <g transform="translate(154.218814 318.238437)scale(0.1 -0.1)">
       <use xlink:href="#DejaVuSans-35"/>
       <use xlink:href="#DejaVuSans-2e" x="63.623047"/>
       <use xlink:href="#DejaVuSans-30" x="95.410156"/>
      </g>
     </g>
    </g>
    <g id="xtick_4">
     <g id="line2d_7">
      <path d="M 207.157814 303.64 
L 207.157814 26.88 
" clip-path="url(#p9943f1975b)" style="fill: none; stroke: #b0b0b0; stroke-width: 0.8; stroke-linecap: square"/>
     </g>
     <g id="line2d_8">
      <g>
       <use xlink:href="#m6fd17a9f66" x="207.157814" y="303.64" style="stroke: #000000; stroke-width: 0.8"/>
      </g>
     </g>
     <g id="text_4">
      <!-- 7.5 -->
      <g transform="translate(199.206252 318.238437)scale(0.1 -0.1)">
       <defs>
        <path id="DejaVuSans-37" d="M 525 4666 
L 3525 4666 
L 3525 4397 
L 1831 0 
L 1172 0 
L 2766 4134 
L 525 4134 
L 525 4666 
z
" transform="scale(0.015625)"/>
       </defs>
       <use xlink:href="#DejaVuSans-37"/>
       <use xlink:href="#DejaVuSans-2e" x="63.623047"/>
       <use xlink:href="#DejaVuSans-35" x="95.410156"/>
      </g>
     </g>
    </g>
    <g id="xtick_5">
     <g id="line2d_9">
      <path d="M 252.145251 303.64 
L 252.145251 26.88 
" clip-path="url(#p9943f1975b)" style="fill: none; stroke: #b0b0b0; stroke-width: 0.8; stroke-linecap: square"/>
     </g>
     <g id="line2d_10">
      <g>
       <use xlink:href="#m6fd17a9f66" x="252.145251" y="303.64" style="stroke: #000000; stroke-width: 0.8"/>
      </g>
     </g>
     <g id="text_5">
      <!-- 10.0 -->
      <g transform="translate(241.012439 318.238437)scale(0.1 -0.1)">
       <defs>
        <path id="DejaVuSans-31" d="M 794 531 
L 1825 531 
L 1825 4091 
L 703 3866 
L 703 4441 
L 1819 4666 
L 2450 4666 
L 2450 531 
L 3481 531 
L 3481 0 
L 794 0 
L 794 531 
z
" transform="scale(0.015625)"/>
       </defs>
       <use xlink:href="#DejaVuSans-31"/>
       <use xlink:href="#DejaVuSans-30" x="63.623047"/>
       <use xlink:href="#DejaVuSans-2e" x="127.246094"/>
       <use xlink:href="#DejaVuSans-30" x="159.033203"/>
      </g>
     </g>
    </g>
    <g id="xtick_6">
     <g id="line2d_11">
      <path d="M 297.132688 303.64 
L 297.132688 26.88 
" clip-path="url(#p9943f1975b)" style="fill: none; stroke: #b0b0b0; stroke-width: 0.8; stroke-linecap: square"/>
     </g>
     <g id="line2d_12">
      <g>
       <use xlink:href="#m6fd17a9f66" x="297.132688" y="303.64" style="stroke: #000000; stroke-width: 0.8"/>
      </g>
     </g>
     <g id="text_6">
      <!-- 12.5 -->
      <g transform="translate(285.999876 318.238437)scale(0.1 -0.1)">
       <use xlink:href="#DejaVuSans-31"/>
       <use xlink:href="#DejaVuSans-32" x="63.623047"/>
       <use xlink:href="#DejaVuSans-2e" x="127.246094"/>
       <use xlink:href="#DejaVuSans-35" x="159.033203"/>
      </g>
     </g>
    </g>
    <g id="xtick_7">
     <g id="line2d_13">
      <path d="M 342.120126 303.64 
L 342.120126 26.88 
" clip-path="url(#p9943f1975b)" style="fill: none; stroke: #b0b0b0; stroke-width: 0.8; stroke-linecap: square"/>
     </g>
     <g id="line2d_14">
      <g>
       <use xlink:href="#m6fd17a9f66" x="342.120126" y="303.64" style="stroke: #000000; stroke-width: 0.8"/>
      </g>
     </g>
     <g id="text_7">
      <!-- 15.0 -->
      <g transform="translate(330.987313 318.238437)scale(0.1 -0.1)">
       <use xlink:href="#DejaVuSans-31"/>
       <use xlink:href="#DejaVuSans-35" x="63.623047"/>
       <use xlink:href="#DejaVuSans-2e" x="127.246094"/>
       <use xlink:href="#DejaVuSans-30" x="159.033203"/>
      </g>
     </g>
    </g>
    <g id="xtick_8">
     <g id="line2d_15">
      <path d="M 387.107563 303.64 
L 387.107563 26.88 
" clip-path="url(#p9943f1975b)" style="fill: none; stroke: #b0b0b0; stroke-width: 0.8; stroke-linecap: square"/>
     </g>
     <g id="line2d_16">
      <g>
       <use xlink:href="#m6fd17a9f66" x="387.107563" y="303.64" style="stroke: #000000; stroke-width: 0.8"/>
      </g>
     </g>
     <g id="text_8">
      <!-- 17.5 -->
      <g transform="translate(375.97475 318.238437)scale(0.1 -0.1)">
       <use xlink:href="#DejaVuSans-31"/>
       <use xlink:href="#DejaVuSans-37" x="63.623047"/>
       <use xlink:href="#DejaVuSans-2e" x="127.246094"/>
       <use xlink:href="#DejaVuSans-35" x="159.033203"/>
      </g>
     </g>
    </g>
    <g id="xtick_9">
     <g id="line2d_17">
      <path d="M 432.095 303.64 
L 432.095 26.88 
" clip-path="url(#p9943f1975b)" style="fill: none; stroke: #b0b0b0; stroke-width: 0.8; stroke-linecap: square"/>
     </g>
     <g id="line2d_18">
      <g>
       <use xlink:href="#m6fd17a9f66" x="432.095" y="303.64" style="stroke: #000000; stroke-width: 0.8"/>
      </g>
     </g>
     <g id="text_9">
      <!-- 20.0 -->
      <g transform="translate(420.962187 318.238437)scale(0.1 -0.1)">
       <use xlink:href="#DejaVuSans-32"/>
       <use xlink:href="#DejaVuSans-30" x="63.623047"/>
       <use xlink:href="#DejaVuSans-2e" x="127.246094"/>
       <use xlink:href="#DejaVuSans-30" x="159.033203"/>
      </g>
     </g>
    </g>
    <g id="text_10">
     <!-- t [s] -->
     <g transform="translate(242.989531 331.916562)scale(0.1 -0.1)">
      <defs>
       <path id="DejaVuSans-74" d="M 1172 4494 
L 1172 3500 
L 2356 3500 
L 2356 3053 
L 1172 3053 
L 1172 1153 
Q 1172 725 1289 603 
Q 1406 481 1766 481 
L 2356 481 
L 2356 0 
L 1766 0 
Q 1100 0 847 248 
Q 594 497 594 1153 
L 594 3053 
L 172 3053 
L 172 3500 
L 594 3500 
L 594 4494 
L 1172 4494 
z
" transform="scale(0.015625)"/>
       <path id="DejaVuSans-20" transform="scale(0.015625)"/>
       <path id="DejaVuSans-5b" d="M 550 4863 
L 1875 4863 
L 1875 4416 
L 1125 4416 
L 1125 -397 
L 1875 -397 
L 1875 -844 
L 550 -844 
L 550 4863 
z
" transform="scale(0.015625)"/>
       <path id="DejaVuSans-73" d="M 2834 3397 
L 2834 2853 
Q 2591 2978 2328 3040 
Q 2066 3103 1784 3103 
Q 1356 3103 1142 2972 
Q 928 2841 928 2578 
Q 928 2378 1081 2264 
Q 1234 2150 1697 2047 
L 1894 2003 
Q 2506 1872 2764 1633 
Q 3022 1394 3022 966 
Q 3022 478 2636 193 
Q 2250 -91 1575 -91 
Q 1294 -91 989 -36 
Q 684 19 347 128 
L 347 722 
Q 666 556 975 473 
Q 1284 391 1588 391 
Q 1994 391 2212 530 
Q 2431 669 2431 922 
Q 2431 1156 2273 1281 
Q 2116 1406 1581 1522 
L 1381 1569 
Q 847 1681 609 1914 
Q 372 2147 372 2553 
Q 372 3047 722 3315 
Q 1072 3584 1716 3584 
Q 2034 3584 2315 3537 
Q 2597 3491 2834 3397 
z
" transform="scale(0.015625)"/>
       <path id="DejaVuSans-5d" d="M 1947 4863 
L 1947 -844 
L 622 -844 
L 622 -397 
L 1369 -397 
L 1369 4416 
L 622 4416 
L 622 4863 
L 1947 4863 
z
" transform="scale(0.015625)"/>
      </defs>
      <use xlink:href="#DejaVuSans-74"/>
      <use xlink:href="#DejaVuSans-20" x="39.208984"/>
      <use xlink:href="#DejaVuSans-5b" x="70.996094"/>
      <use xlink:href="#DejaVuSans-73" x="110.009766"/>
      <use xlink:href="#DejaVuSans-5d" x="162.109375"/>
     </g>
    </g>
   </g>
   <g id="matplotlib.axis_2">
    <g id="ytick_1">
     <g id="line2d_19">
      <path d="M 56.09 293.722914 
L 450 293.722914 
" clip-path="url(#p9943f1975b)" style="fill: none; stroke: #b0b0b0; stroke-width: 0.8; stroke-linecap: square"/>
     </g>
     <g id="line2d_20">
      <defs>
       <path id="m7f45d5284c" d="M 0 0 
L -3.5 0 
" style="stroke: #000000; stroke-width: 0.8"/>
      </defs>
      <g>
       <use xlink:href="#m7f45d5284c" x="56.09" y="293.722914" style="stroke: #000000; stroke-width: 0.8"/>
      </g>
     </g>
     <g id="text_11">
      <!-- −0.4 -->
      <g transform="translate(24.807188 297.522133)scale(0.1 -0.1)">
       <defs>
        <path id="DejaVuSans-2212" d="M 678 2272 
L 4684 2272 
L 4684 1741 
L 678 1741 
L 678 2272 
z
" transform="scale(0.015625)"/>
        <path id="DejaVuSans-34" d="M 2419 4116 
L 825 1625 
L 2419 1625 
L 2419 4116 
z
M 2253 4666 
L 3047 4666 
L 3047 1625 
L 3713 1625 
L 3713 1100 
L 3047 1100 
L 3047 0 
L 2419 0 
L 2419 1100 
L 313 1100 
L 313 1709 
L 2253 4666 
z
" transform="scale(0.015625)"/>
       </defs>
       <use xlink:href="#DejaVuSans-2212"/>
       <use xlink:href="#DejaVuSans-30" x="83.789062"/>
       <use xlink:href="#DejaVuSans-2e" x="147.412109"/>
       <use xlink:href="#DejaVuSans-34" x="179.199219"/>
      </g>
     </g>
    </g>
    <g id="ytick_2">
     <g id="line2d_21">
      <path d="M 56.09 254.365489 
L 450 254.365489 
" clip-path="url(#p9943f1975b)" style="fill: none; stroke: #b0b0b0; stroke-width: 0.8; stroke-linecap: square"/>
     </g>
     <g id="line2d_22">
      <g>
       <use xlink:href="#m7f45d5284c" x="56.09" y="254.365489" style="stroke: #000000; stroke-width: 0.8"/>
      </g>
     </g>
     <g id="text_12">
      <!-- −0.3 -->
      <g transform="translate(24.807188 258.164708)scale(0.1 -0.1)">
       <defs>
        <path id="DejaVuSans-33" d="M 2597 2516 
Q 3050 2419 3304 2112 
Q 3559 1806 3559 1356 
Q 3559 666 3084 287 
Q 2609 -91 1734 -91 
Q 1441 -91 1130 -33 
Q 819 25 488 141 
L 488 750 
Q 750 597 1062 519 
Q 1375 441 1716 441 
Q 2309 441 2620 675 
Q 2931 909 2931 1356 
Q 2931 1769 2642 2001 
Q 2353 2234 1838 2234 
L 1294 2234 
L 1294 2753 
L 1863 2753 
Q 2328 2753 2575 2939 
Q 2822 3125 2822 3475 
Q 2822 3834 2567 4026 
Q 2313 4219 1838 4219 
Q 1578 4219 1281 4162 
Q 984 4106 628 3988 
L 628 4550 
Q 988 4650 1302 4700 
Q 1616 4750 1894 4750 
Q 2613 4750 3031 4423 
Q 3450 4097 3450 3541 
Q 3450 3153 3228 2886 
Q 3006 2619 2597 2516 
z
" transform="scale(0.015625)"/>
       </defs>
       <use xlink:href="#DejaVuSans-2212"/>
       <use xlink:href="#DejaVuSans-30" x="83.789062"/>
       <use xlink:href="#DejaVuSans-2e" x="147.412109"/>
       <use xlink:href="#DejaVuSans-33" x="179.199219"/>
      </g>
     </g>
    </g>
    <g id="ytick_3">
     <g id="line2d_23">
      <path d="M 56.09 215.008064 
L 450 215.008064 
" clip-path="url(#p9943f1975b)" style="fill: none; stroke: #b0b0b0; stroke-width: 0.8; stroke-linecap: square"/>
     </g>
     <g id="line2d_24">
      <g>
       <use xlink:href="#m7f45d5284c" x="56.09" y="215.008064" style="stroke: #000000; stroke-width: 0.8"/>
      </g>
     </g>
     <g id="text_13">
      <!-- −0.2 -->
      <g transform="translate(24.807188 218.807283)scale(0.1 -0.1)">
       <use xlink:href="#DejaVuSans-2212"/>
       <use xlink:href="#DejaVuSans-30" x="83.789062"/>
       <use xlink:href="#DejaVuSans-2e" x="147.412109"/>
       <use xlink:href="#DejaVuSans-32" x="179.199219"/>
      </g>
     </g>
    </g>
    <g id="ytick_4">
     <g id="line2d_25">
      <path d="M 56.09 175.650639 
L 450 175.650639 
" clip-path="url(#p9943f1975b)" style="fill: none; stroke: #b0b0b0; stroke-width: 0.8; stroke-linecap: square"/>
     </g>
     <g id="line2d_26">
      <g>
       <use xlink:href="#m7f45d5284c" x="56.09" y="175.650639" style="stroke: #000000; stroke-width: 0.8"/>
      </g>
     </g>
     <g id="text_14">
      <!-- −0.1 -->
      <g transform="translate(24.807188 179.449858)scale(0.1 -0.1)">
       <use xlink:href="#DejaVuSans-2212"/>
       <use xlink:href="#DejaVuSans-30" x="83.789062"/>
       <use xlink:href="#DejaVuSans-2e" x="147.412109"/>
       <use xlink:href="#DejaVuSans-31" x="179.199219"/>
      </g>
     </g>
    </g>
    <g id="ytick_5">
     <g id="line2d_27">
      <path d="M 56.09 136.293214 
L 450 136.293214 
" clip-path="url(#p9943f1975b)" style="fill: none; stroke: #b0b0b0; stroke-width: 0.8; stroke-linecap: square"/>
     </g>
     <g id="line2d_28">
      <g>
       <use xlink:href="#m7f45d5284c" x="56.09" y="136.293214" style="stroke: #000000; stroke-width: 0.8"/>
      </g>
     </g>
     <g id="text_15">
      <!-- 0.0 -->
      <g transform="translate(33.186875 140.092433)scale(0.1 -0.1)">
       <use xlink:href="#DejaVuSans-30"/>
       <use xlink:href="#DejaVuSans-2e" x="63.623047"/>
       <use xlink:href="#DejaVuSans-30" x="95.410156"/>
      </g>
     </g>
    </g>
    <g id="ytick_6">
     <g id="line2d_29">
      <path d="M 56.09 96.935789 
L 450 96.935789 
" clip-path="url(#p9943f1975b)" style="fill: none; stroke: #b0b0b0; stroke-width: 0.8; stroke-linecap: square"/>
     </g>
     <g id="line2d_30">
      <g>
       <use xlink:href="#m7f45d5284c" x="56.09" y="96.935789" style="stroke: #000000; stroke-width: 0.8"/>
      </g>
     </g>
     <g id="text_16">
      <!-- 0.1 -->
      <g transform="translate(33.186875 100.735008)scale(0.1 -0.1)">
       <use xlink:href="#DejaVuSans-30"/>
       <use xlink:href="#DejaVuSans-2e" x="63.623047"/>
       <use xlink:href="#DejaVuSans-31" x="95.410156"/>
      </g>
     </g>
    </g>
    <g id="ytick_7">
     <g id="line2d_31">
      <path d="M 56.09 57.578364 
L 450 57.578364 
" clip-path="url(#p9943f1975b)" style="fill: none; stroke: #b0b0b0; stroke-width: 0.8; stroke-linecap: square"/>
     </g>
     <g id="line2d_32">
      <g>
       <use xlink:href="#m7f45d5284c" x="56.09" y="57.578364" style="stroke: #000000; stroke-width: 0.8"/>
      </g>
     </g>
     <g id="text_17">
      <!-- 0.2 -->
      <g transform="translate(33.186875 61.377582)scale(0.1 -0.1)">
       <use xlink:href="#DejaVuSans-30"/>
       <use xlink:href="#DejaVuSans-2e" x="63.623047"/>
       <use xlink:href="#DejaVuSans-32" x="95.410156"/>
      </g>
     </g>
    </g>
    <g id="text_18">
     <!-- y [m] -->
     <g transform="translate(18.7275 178.580312)rotate(-90)scale(0.1 -0.1)">
      <defs>
       <path id="DejaVuSans-79" d="M 2059 -325 
Q 1816 -950 1584 -1140 
Q 1353 -1331 966 -1331 
L 506 -1331 
L 506 -850 
L 844 -850 
Q 1081 -850 1212 -737 
Q 1344 -625 1503 -206 
L 1606 56 
L 191 3500 
L 800 3500 
L 1894 763 
L 2988 3500 
L 3597 3500 
L 2059 -325 
z
" transform="scale(0.015625)"/>
       <path id="DejaVuSans-6d" d="M 3328 2828 
Q 3544 3216 3844 3400 
Q 4144 3584 4550 3584 
Q 5097 3584 5394 3201 
Q 5691 2819 5691 2113 
L 5691 0 
L 5113 0 
L 5113 2094 
Q 5113 2597 4934 2840 
Q 4756 3084 4391 3084 
Q 3944 3084 3684 2787 
Q 3425 2491 3425 1978 
L 3425 0 
L 2847 0 
L 2847 2094 
Q 2847 2600 2669 2842 
Q 2491 3084 2119 3084 
Q 1678 3084 1418 2786 
Q 1159 2488 1159 1978 
L 1159 0 
L 581 0 
L 581 3500 
L 1159 3500 
L 1159 2956 
Q 1356 3278 1631 3431 
Q 1906 3584 2284 3584 
Q 2666 3584 2933 3390 
Q 3200 3197 3328 2828 
z
" transform="scale(0.015625)"/>
      </defs>
      <use xlink:href="#DejaVuSans-79"/>
      <use xlink:href="#DejaVuSans-20" x="59.179688"/>
      <use xlink:href="#DejaVuSans-5b" x="90.966797"/>
      <use xlink:href="#DejaVuSans-6d" x="129.980469"/>
      <use xlink:href="#DejaVuSans-5d" x="227.392578"/>
     </g>
    </g>
   </g>
   <g id="line2d_33">
    <path d="M 73.995 136.298342 
L 189.162839 136.254106 
L 190.962337 136.161231 
L 192.761834 136.621974 
L 194.561332 137.988414 
L 196.360829 139.986226 
L 199.959824 145.287495 
L 201.759322 149.150662 
L 205.358317 154.031509 
L 208.957312 157.730626 
L 210.756809 159.391185 
L 212.556307 160.109011 
L 214.355804 160.411608 
L 216.155302 160.317052 
L 217.954799 159.769712 
L 219.754296 158.935712 
L 225.152789 153.129188 
L 226.952286 150.917875 
L 228.751784 148.510958 
L 230.551281 144.463703 
L 232.350779 141.550561 
L 234.150276 138.276021 
L 235.949774 135.472479 
L 241.348266 125.991213 
L 243.147764 121.94902 
L 244.947261 119.366694 
L 246.746759 117.060088 
L 248.546256 115.15465 
L 250.345754 113.637627 
L 252.145251 112.281067 
L 255.744246 110.477915 
L 257.543744 110.173759 
L 259.343241 110.120985 
L 261.142739 110.301133 
L 262.942236 110.720978 
L 264.741734 111.335928 
L 266.541231 112.270392 
L 268.340729 113.611561 
L 270.140226 113.827472 
L 271.939724 113.106119 
L 273.739221 111.224252 
L 275.538719 108.081619 
L 277.338216 103.74379 
L 279.137714 98.440401 
L 280.937211 92.694162 
L 282.736709 83.9307 
L 286.335704 72.662517 
L 288.135201 67.121123 
L 291.734196 57.288183 
L 293.533693 55.213199 
L 295.333191 54.107385 
L 297.132688 54.248715 
L 298.932186 55.696738 
L 300.731683 58.230787 
L 302.531181 62.066578 
L 304.330678 69.752823 
L 306.130176 76.096085 
L 307.929673 83.392149 
L 309.729171 91.538512 
L 311.528668 100.340871 
L 313.328166 110.407882 
L 315.127663 124.593696 
L 316.927161 134.924835 
L 322.325653 169.803806 
L 324.125151 188.364536 
L 325.924648 201.183473 
L 327.724146 211.307636 
L 329.523643 222.360664 
L 331.323141 231.444283 
L 333.122638 239.322043 
L 334.922136 246.305476 
L 338.521131 255.765477 
L 340.320628 257.091385 
L 342.120126 257.014127 
L 343.919623 255.744928 
L 347.518618 248.335038 
L 349.318116 243.895608 
L 352.917111 231.806512 
L 358.315603 209.658911 
L 360.115101 197.710768 
L 360.115101 197.710768 
" clip-path="url(#p9943f1975b)" style="fill: none; stroke: #ff0000; stroke-width: 1.5; stroke-linecap: square"/>
   </g>
   <g id="line2d_34">
    <path d="M 73.995 136.333703 
L 196.360829 136.308734 
L 198.160327 137.003357 
L 199.959824 138.539986 
L 201.759322 140.902295 
L 203.558819 144.295711 
L 205.358317 149.165079 
L 208.957312 156.393392 
L 210.756809 159.764424 
L 212.556307 162.388069 
L 214.355804 164.715859 
L 216.155302 166.624215 
L 217.954799 168.357914 
L 219.754296 168.809008 
L 221.553794 168.690277 
L 223.353291 167.975826 
L 225.152789 166.869231 
L 226.952286 165.190141 
L 228.751784 163.164164 
L 230.551281 160.555905 
L 232.350779 156.423178 
L 235.949774 149.972347 
L 237.749271 146.658535 
L 239.548769 142.797133 
L 241.348266 137.79165 
L 248.546256 123.938484 
L 250.345754 119.325664 
L 253.944749 113.468267 
L 255.744246 110.497511 
L 259.343241 105.923607 
L 261.142739 103.202926 
L 262.942236 101.625298 
L 266.541231 98.795768 
L 268.340729 97.746015 
L 270.140226 96.292643 
L 273.739221 94.912633 
L 277.338216 94.18307 
L 279.137714 93.89966 
L 280.937211 93.503389 
L 284.536206 91.328327 
L 286.335704 89.861025 
L 288.135201 87.90061 
L 289.934698 85.346131 
L 291.734196 82.36342 
L 293.533693 76.554781 
L 298.932186 61.69323 
L 302.531181 51.273688 
L 304.330678 47.197182 
L 306.130176 43.425492 
L 307.929673 40.283089 
L 309.729171 39.46 
L 311.528668 39.796213 
L 313.328166 41.113089 
L 315.127663 43.395711 
L 316.927161 48.773628 
L 318.726658 53.377247 
L 322.325653 65.468509 
L 324.125151 75.904913 
L 327.724146 92.411031 
L 331.323141 110.607194 
L 333.122638 121.237384 
L 334.922136 136.0608 
L 336.721633 146.834531 
L 340.320628 170.026209 
L 342.120126 182.27634 
L 345.719121 203.928353 
L 347.518618 215.362608 
L 349.318116 230.226862 
L 351.117613 238.887159 
L 352.917111 246.62978 
L 354.716608 253.130887 
L 356.516106 257.327432 
L 358.315603 260.444966 
L 360.115101 262.606209 
L 361.914598 262.399159 
L 363.714095 260.87964 
L 365.513593 257.926252 
L 367.31309 254.565403 
L 369.112588 247.661291 
L 370.912085 242.108706 
L 372.711583 235.716159 
L 374.51108 228.868632 
L 378.110075 214.300223 
L 379.909573 207.454379 
L 379.909573 207.454379 
" clip-path="url(#p9943f1975b)" style="fill: none; stroke: #008000; stroke-width: 1.5; stroke-linecap: square"/>
   </g>
   <g id="line2d_35">
    <path d="M 73.995 136.292731 
L 192.761834 136.298399 
L 194.561332 136.430075 
L 196.360829 137.858334 
L 198.160327 140.561281 
L 199.959824 144.415625 
L 201.759322 149.362358 
L 205.358317 157.594799 
L 207.157814 161.259525 
L 208.957312 164.321744 
L 210.756809 168.00989 
L 212.556307 169.483322 
L 214.355804 170.502647 
L 216.155302 172.583208 
L 219.754296 175.961075 
L 221.553794 178.813292 
L 223.353291 180.051819 
L 225.152789 179.425989 
L 226.952286 176.890217 
L 230.551281 169.806792 
L 232.350779 163.920789 
L 234.150276 158.800938 
L 235.949774 153.322149 
L 237.749271 147.217318 
L 239.548769 141.966951 
L 241.348266 136.092904 
L 243.147764 129.194545 
L 244.947261 124.574229 
L 246.746759 119.612439 
L 252.145251 102.668705 
L 253.944749 98.096313 
L 255.744246 91.921962 
L 261.142739 78.487677 
L 262.942236 75.502245 
L 264.741734 71.54492 
L 266.541231 69.875651 
L 268.340729 68.704005 
L 270.140226 67.74819 
L 273.739221 65.468265 
L 275.538719 65.490693 
L 280.937211 66.599591 
L 282.736709 67.158257 
L 284.536206 67.984222 
L 286.335704 69.012128 
L 288.135201 70.978722 
L 291.734196 74.081561 
L 293.533693 75.341299 
L 295.333191 76.934056 
L 297.132688 78.141679 
L 300.731683 81.048906 
L 302.531181 82.302779 
L 304.330678 83.412065 
L 306.130176 84.890945 
L 307.929673 85.750994 
L 313.328166 88.799067 
L 315.127663 89.653969 
L 316.927161 90.294607 
L 318.726658 91.160227 
L 320.526156 91.744665 
L 322.325653 92.123654 
L 324.125151 92.048599 
L 327.724146 89.863675 
L 331.323141 86.979634 
L 333.122638 85.251844 
L 334.922136 82.953136 
L 338.521131 80.228446 
L 340.320628 79.248717 
L 342.120126 78.833208 
L 345.719121 78.769593 
L 347.518618 79.101165 
L 349.318116 80.108637 
L 351.117613 81.660882 
L 352.917111 83.892871 
L 354.716608 86.556678 
L 356.516106 91.446261 
L 358.315603 95.159783 
L 360.115101 99.147865 
L 361.914598 103.560896 
L 363.714095 108.948225 
L 365.513593 118.451278 
L 369.112588 132.13714 
L 374.51108 155.396555 
L 376.310578 167.491805 
L 378.110075 176.664814 
L 383.508568 201.736531 
L 385.308065 214.91209 
L 388.90706 232.76672 
L 390.706558 241.479274 
L 394.305553 256.054403 
L 396.10505 261.879475 
L 397.904548 268.496093 
L 399.704045 271.41307 
L 401.503543 272.375916 
L 403.30304 271.980781 
L 405.102538 270.304148 
L 406.902035 266.805771 
L 410.50103 259.055812 
L 414.100025 247.15525 
L 415.899523 240.410034 
L 417.69902 228.704426 
L 419.498518 219.56375 
L 421.298015 209.500574 
L 424.89701 191.773353 
L 426.696508 178.99017 
L 428.496005 170.546419 
L 432.095 154.927067 
L 432.095 154.927067 
" clip-path="url(#p9943f1975b)" style="fill: none; stroke: #ffa500; stroke-width: 1.5; stroke-linecap: square"/>
   </g>
   <g id="line2d_36">
    <path d="M 73.995 136.347809 
L 205.358317 136.355954 
L 207.157814 141.401798 
L 208.957312 148.703096 
L 210.756809 169.682416 
L 212.556307 185.021227 
L 214.355804 191.77553 
L 216.155302 191.009881 
L 217.954799 189.519601 
L 221.553794 194.186014 
L 223.353291 190.301542 
L 225.152789 183.663401 
L 228.751784 169.328714 
L 230.551281 162.78455 
L 232.350779 160.672665 
L 234.150276 163.178069 
L 235.949774 162.452641 
L 237.749271 155.269865 
L 239.548769 146.298698 
L 241.348266 138.981211 
L 244.947261 128.947623 
L 246.746759 120.935431 
L 252.145251 94.587876 
L 253.944749 88.224813 
L 255.744246 85.56667 
L 257.543744 85.093098 
L 259.343241 82.053733 
L 261.142739 76.19528 
L 262.942236 72.17916 
L 264.741734 70.188512 
L 266.541231 70.151849 
L 268.340729 68.339981 
L 270.140226 65.446541 
L 271.939724 62.201647 
L 273.739221 58.607061 
L 275.538719 57.811948 
L 277.338216 59.033685 
L 279.137714 62.455229 
L 280.937211 66.23294 
L 282.736709 66.711583 
L 284.536206 66.854575 
L 286.335704 68.412519 
L 288.135201 73.150324 
L 289.934698 75.745325 
L 291.734196 76.871077 
L 293.533693 76.966019 
L 295.333191 76.702961 
L 297.132688 76.890175 
L 298.932186 77.95167 
L 300.731683 80.044851 
L 302.531181 82.404652 
L 304.330678 83.730604 
L 306.130176 83.549861 
L 307.929673 84.554359 
L 309.729171 87.358851 
L 311.528668 89.876791 
L 313.328166 91.603423 
L 315.127663 91.784529 
L 316.927161 91.447904 
L 318.726658 91.440978 
L 320.526156 92.071278 
L 324.125151 94.238294 
L 325.924648 93.902817 
L 327.724146 92.564226 
L 329.523643 91.457625 
L 333.122638 90.791275 
L 334.922136 87.817045 
L 336.721633 83.560378 
L 338.521131 78.599644 
L 340.320628 74.514178 
L 342.120126 71.803907 
L 343.919623 70.61847 
L 345.719121 70.417335 
L 347.518618 71.090653 
L 349.318116 72.614285 
L 351.117613 75.530255 
L 354.716608 85.271576 
L 356.516106 90.956519 
L 358.315603 93.807274 
L 360.115101 97.097301 
L 361.914598 101.201576 
L 363.714095 106.202776 
L 365.513593 114.385063 
L 369.112588 125.089353 
L 370.912085 131.307055 
L 372.711583 139.508275 
L 374.51108 149.224695 
L 376.310578 166.566439 
L 378.110075 178.071672 
L 383.508568 204.353565 
L 385.308065 217.962899 
L 387.107563 227.155545 
L 390.706558 244.045978 
L 392.506055 250.90161 
L 396.10505 266.220075 
L 397.904548 278.286613 
L 399.704045 285.251154 
L 401.503543 289.054974 
L 403.30304 291.003169 
L 405.102538 291.06 
L 406.902035 287.903324 
L 408.701533 281.605022 
L 410.50103 273.077166 
L 412.300528 260.250911 
L 414.100025 248.478398 
L 415.899523 237.623509 
L 417.69902 223.485096 
L 421.298015 205.770833 
L 424.89701 190.353649 
L 426.696508 179.621683 
L 430.295503 164.78241 
L 432.095 155.488671 
L 432.095 155.488671 
" clip-path="url(#p9943f1975b)" style="fill: none; stroke-dasharray: 1.5,2.475; stroke-dashoffset: 0; stroke: #0000ff; stroke-width: 1.5"/>
   </g>
   <g id="patch_3">
    <path d="M 56.09 303.64 
L 56.09 26.88 
" style="fill: none; stroke: #000000; stroke-width: 0.8; stroke-linejoin: miter; stroke-linecap: square"/>
   </g>
   <g id="patch_4">
    <path d="M 450 303.64 
L 450 26.88 
" style="fill: none; stroke: #000000; stroke-width: 0.8; stroke-linejoin: miter; stroke-linecap: square"/>
   </g>
   <g id="patch_5">
    <path d="M 56.09 303.64 
L 450 303.64 
" style="fill: none; stroke: #000000; stroke-width: 0.8; stroke-linejoin: miter; stroke-linecap: square"/>
   </g>
   <g id="patch_6">
    <path d="M 56.09 26.88 
L 450 26.88 
" style="fill: none; stroke: #000000; stroke-width: 0.8; stroke-linejoin: miter; stroke-linecap: square"/>
   </g>
   <g id="text_19">
    <!-- All scenarios y plotted against time -->
    <g transform="translate(146.977187 20.88)scale(0.12 -0.12)">
     <defs>
      <path id="DejaVuSans-41" d="M 2188 4044 
L 1331 1722 
L 3047 1722 
L 2188 4044 
z
M 1831 4666 
L 2547 4666 
L 4325 0 
L 3669 0 
L 3244 1197 
L 1141 1197 
L 716 0 
L 50 0 
L 1831 4666 
z
" transform="scale(0.015625)"/>
      <path id="DejaVuSans-6c" d="M 603 4863 
L 1178 4863 
L 1178 0 
L 603 0 
L 603 4863 
z
" transform="scale(0.015625)"/>
      <path id="DejaVuSans-63" d="M 3122 3366 
L 3122 2828 
Q 2878 2963 2633 3030 
Q 2388 3097 2138 3097 
Q 1578 3097 1268 2742 
Q 959 2388 959 1747 
Q 959 1106 1268 751 
Q 1578 397 2138 397 
Q 2388 397 2633 464 
Q 2878 531 3122 666 
L 3122 134 
Q 2881 22 2623 -34 
Q 2366 -91 2075 -91 
Q 1284 -91 818 406 
Q 353 903 353 1747 
Q 353 2603 823 3093 
Q 1294 3584 2113 3584 
Q 2378 3584 2631 3529 
Q 2884 3475 3122 3366 
z
" transform="scale(0.015625)"/>
      <path id="DejaVuSans-65" d="M 3597 1894 
L 3597 1613 
L 953 1613 
Q 991 1019 1311 708 
Q 1631 397 2203 397 
Q 2534 397 2845 478 
Q 3156 559 3463 722 
L 3463 178 
Q 3153 47 2828 -22 
Q 2503 -91 2169 -91 
Q 1331 -91 842 396 
Q 353 884 353 1716 
Q 353 2575 817 3079 
Q 1281 3584 2069 3584 
Q 2775 3584 3186 3129 
Q 3597 2675 3597 1894 
z
M 3022 2063 
Q 3016 2534 2758 2815 
Q 2500 3097 2075 3097 
Q 1594 3097 1305 2825 
Q 1016 2553 972 2059 
L 3022 2063 
z
" transform="scale(0.015625)"/>
      <path id="DejaVuSans-6e" d="M 3513 2113 
L 3513 0 
L 2938 0 
L 2938 2094 
Q 2938 2591 2744 2837 
Q 2550 3084 2163 3084 
Q 1697 3084 1428 2787 
Q 1159 2491 1159 1978 
L 1159 0 
L 581 0 
L 581 3500 
L 1159 3500 
L 1159 2956 
Q 1366 3272 1645 3428 
Q 1925 3584 2291 3584 
Q 2894 3584 3203 3211 
Q 3513 2838 3513 2113 
z
" transform="scale(0.015625)"/>
      <path id="DejaVuSans-61" d="M 2194 1759 
Q 1497 1759 1228 1600 
Q 959 1441 959 1056 
Q 959 750 1161 570 
Q 1363 391 1709 391 
Q 2188 391 2477 730 
Q 2766 1069 2766 1631 
L 2766 1759 
L 2194 1759 
z
M 3341 1997 
L 3341 0 
L 2766 0 
L 2766 531 
Q 2569 213 2275 61 
Q 1981 -91 1556 -91 
Q 1019 -91 701 211 
Q 384 513 384 1019 
Q 384 1609 779 1909 
Q 1175 2209 1959 2209 
L 2766 2209 
L 2766 2266 
Q 2766 2663 2505 2880 
Q 2244 3097 1772 3097 
Q 1472 3097 1187 3025 
Q 903 2953 641 2809 
L 641 3341 
Q 956 3463 1253 3523 
Q 1550 3584 1831 3584 
Q 2591 3584 2966 3190 
Q 3341 2797 3341 1997 
z
" transform="scale(0.015625)"/>
      <path id="DejaVuSans-72" d="M 2631 2963 
Q 2534 3019 2420 3045 
Q 2306 3072 2169 3072 
Q 1681 3072 1420 2755 
Q 1159 2438 1159 1844 
L 1159 0 
L 581 0 
L 581 3500 
L 1159 3500 
L 1159 2956 
Q 1341 3275 1631 3429 
Q 1922 3584 2338 3584 
Q 2397 3584 2469 3576 
Q 2541 3569 2628 3553 
L 2631 2963 
z
" transform="scale(0.015625)"/>
      <path id="DejaVuSans-69" d="M 603 3500 
L 1178 3500 
L 1178 0 
L 603 0 
L 603 3500 
z
M 603 4863 
L 1178 4863 
L 1178 4134 
L 603 4134 
L 603 4863 
z
" transform="scale(0.015625)"/>
      <path id="DejaVuSans-6f" d="M 1959 3097 
Q 1497 3097 1228 2736 
Q 959 2375 959 1747 
Q 959 1119 1226 758 
Q 1494 397 1959 397 
Q 2419 397 2687 759 
Q 2956 1122 2956 1747 
Q 2956 2369 2687 2733 
Q 2419 3097 1959 3097 
z
M 1959 3584 
Q 2709 3584 3137 3096 
Q 3566 2609 3566 1747 
Q 3566 888 3137 398 
Q 2709 -91 1959 -91 
Q 1206 -91 779 398 
Q 353 888 353 1747 
Q 353 2609 779 3096 
Q 1206 3584 1959 3584 
z
" transform="scale(0.015625)"/>
      <path id="DejaVuSans-70" d="M 1159 525 
L 1159 -1331 
L 581 -1331 
L 581 3500 
L 1159 3500 
L 1159 2969 
Q 1341 3281 1617 3432 
Q 1894 3584 2278 3584 
Q 2916 3584 3314 3078 
Q 3713 2572 3713 1747 
Q 3713 922 3314 415 
Q 2916 -91 2278 -91 
Q 1894 -91 1617 61 
Q 1341 213 1159 525 
z
M 3116 1747 
Q 3116 2381 2855 2742 
Q 2594 3103 2138 3103 
Q 1681 3103 1420 2742 
Q 1159 2381 1159 1747 
Q 1159 1113 1420 752 
Q 1681 391 2138 391 
Q 2594 391 2855 752 
Q 3116 1113 3116 1747 
z
" transform="scale(0.015625)"/>
      <path id="DejaVuSans-64" d="M 2906 2969 
L 2906 4863 
L 3481 4863 
L 3481 0 
L 2906 0 
L 2906 525 
Q 2725 213 2448 61 
Q 2172 -91 1784 -91 
Q 1150 -91 751 415 
Q 353 922 353 1747 
Q 353 2572 751 3078 
Q 1150 3584 1784 3584 
Q 2172 3584 2448 3432 
Q 2725 3281 2906 2969 
z
M 947 1747 
Q 947 1113 1208 752 
Q 1469 391 1925 391 
Q 2381 391 2643 752 
Q 2906 1113 2906 1747 
Q 2906 2381 2643 2742 
Q 2381 3103 1925 3103 
Q 1469 3103 1208 2742 
Q 947 2381 947 1747 
z
" transform="scale(0.015625)"/>
      <path id="DejaVuSans-67" d="M 2906 1791 
Q 2906 2416 2648 2759 
Q 2391 3103 1925 3103 
Q 1463 3103 1205 2759 
Q 947 2416 947 1791 
Q 947 1169 1205 825 
Q 1463 481 1925 481 
Q 2391 481 2648 825 
Q 2906 1169 2906 1791 
z
M 3481 434 
Q 3481 -459 3084 -895 
Q 2688 -1331 1869 -1331 
Q 1566 -1331 1297 -1286 
Q 1028 -1241 775 -1147 
L 775 -588 
Q 1028 -725 1275 -790 
Q 1522 -856 1778 -856 
Q 2344 -856 2625 -561 
Q 2906 -266 2906 331 
L 2906 616 
Q 2728 306 2450 153 
Q 2172 0 1784 0 
Q 1141 0 747 490 
Q 353 981 353 1791 
Q 353 2603 747 3093 
Q 1141 3584 1784 3584 
Q 2172 3584 2450 3431 
Q 2728 3278 2906 2969 
L 2906 3500 
L 3481 3500 
L 3481 434 
z
" transform="scale(0.015625)"/>
     </defs>
     <use xlink:href="#DejaVuSans-41"/>
     <use xlink:href="#DejaVuSans-6c" x="68.408203"/>
     <use xlink:href="#DejaVuSans-6c" x="96.191406"/>
     <use xlink:href="#DejaVuSans-20" x="123.974609"/>
     <use xlink:href="#DejaVuSans-73" x="155.761719"/>
     <use xlink:href="#DejaVuSans-63" x="207.861328"/>
     <use xlink:href="#DejaVuSans-65" x="262.841797"/>
     <use xlink:href="#DejaVuSans-6e" x="324.365234"/>
     <use xlink:href="#DejaVuSans-61" x="387.744141"/>
     <use xlink:href="#DejaVuSans-72" x="449.023438"/>
     <use xlink:href="#DejaVuSans-69" x="490.136719"/>
     <use xlink:href="#DejaVuSans-6f" x="517.919922"/>
     <use xlink:href="#DejaVuSans-73" x="579.101562"/>
     <use xlink:href="#DejaVuSans-20" x="631.201172"/>
     <use xlink:href="#DejaVuSans-79" x="662.988281"/>
     <use xlink:href="#DejaVuSans-20" x="722.167969"/>
     <use xlink:href="#DejaVuSans-70" x="753.955078"/>
     <use xlink:href="#DejaVuSans-6c" x="817.431641"/>
     <use xlink:href="#DejaVuSans-6f" x="845.214844"/>
     <use xlink:href="#DejaVuSans-74" x="906.396484"/>
     <use xlink:href="#DejaVuSans-74" x="945.605469"/>
     <use xlink:href="#DejaVuSans-65" x="984.814453"/>
     <use xlink:href="#DejaVuSans-64" x="1046.337891"/>
     <use xlink:href="#DejaVuSans-20" x="1109.814453"/>
     <use xlink:href="#DejaVuSans-61" x="1141.601562"/>
     <use xlink:href="#DejaVuSans-67" x="1202.880859"/>
     <use xlink:href="#DejaVuSans-61" x="1266.357422"/>
     <use xlink:href="#DejaVuSans-69" x="1327.636719"/>
     <use xlink:href="#DejaVuSans-6e" x="1355.419922"/>
     <use xlink:href="#DejaVuSans-73" x="1418.798828"/>
     <use xlink:href="#DejaVuSans-74" x="1470.898438"/>
     <use xlink:href="#DejaVuSans-20" x="1510.107422"/>
     <use xlink:href="#DejaVuSans-74" x="1541.894531"/>
     <use xlink:href="#DejaVuSans-69" x="1581.103516"/>
     <use xlink:href="#DejaVuSans-6d" x="1608.886719"/>
     <use xlink:href="#DejaVuSans-65" x="1706.298828"/>
    </g>
   </g>
   <g id="legend_1">
    <g id="patch_7">
     <path d="M 63.09 93.5925 
L 281.388438 93.5925 
Q 283.388438 93.5925 283.388438 91.5925 
L 283.388438 33.88 
Q 283.388438 31.88 281.388438 31.88 
L 63.09 31.88 
Q 61.09 31.88 61.09 33.88 
L 61.09 91.5925 
Q 61.09 93.5925 63.09 93.5925 
z
" style="fill: #ffffff; opacity: 0.8; stroke: #cccccc; stroke-linejoin: miter"/>
    </g>
    <g id="line2d_37">
     <path d="M 65.09 39.978437 
L 75.09 39.978437 
L 85.09 39.978437 
" style="fill: none; stroke: #ff0000; stroke-width: 1.5; stroke-linecap: square"/>
    </g>
    <g id="text_20">
     <!-- No payload drone y movement -->
     <g transform="translate(93.09 43.478437)scale(0.1 -0.1)">
      <defs>
       <path id="DejaVuSans-4e" d="M 628 4666 
L 1478 4666 
L 3547 763 
L 3547 4666 
L 4159 4666 
L 4159 0 
L 3309 0 
L 1241 3903 
L 1241 0 
L 628 0 
L 628 4666 
z
" transform="scale(0.015625)"/>
       <path id="DejaVuSans-76" d="M 191 3500 
L 800 3500 
L 1894 563 
L 2988 3500 
L 3597 3500 
L 2284 0 
L 1503 0 
L 191 3500 
z
" transform="scale(0.015625)"/>
      </defs>
      <use xlink:href="#DejaVuSans-4e"/>
      <use xlink:href="#DejaVuSans-6f" x="74.804688"/>
      <use xlink:href="#DejaVuSans-20" x="135.986328"/>
      <use xlink:href="#DejaVuSans-70" x="167.773438"/>
      <use xlink:href="#DejaVuSans-61" x="231.25"/>
      <use xlink:href="#DejaVuSans-79" x="292.529297"/>
      <use xlink:href="#DejaVuSans-6c" x="351.708984"/>
      <use xlink:href="#DejaVuSans-6f" x="379.492188"/>
      <use xlink:href="#DejaVuSans-61" x="440.673828"/>
      <use xlink:href="#DejaVuSans-64" x="501.953125"/>
      <use xlink:href="#DejaVuSans-20" x="565.429688"/>
      <use xlink:href="#DejaVuSans-64" x="597.216797"/>
      <use xlink:href="#DejaVuSans-72" x="660.693359"/>
      <use xlink:href="#DejaVuSans-6f" x="699.556641"/>
      <use xlink:href="#DejaVuSans-6e" x="760.738281"/>
      <use xlink:href="#DejaVuSans-65" x="824.117188"/>
      <use xlink:href="#DejaVuSans-20" x="885.640625"/>
      <use xlink:href="#DejaVuSans-79" x="917.427734"/>
      <use xlink:href="#DejaVuSans-20" x="976.607422"/>
      <use xlink:href="#DejaVuSans-6d" x="1008.394531"/>
      <use xlink:href="#DejaVuSans-6f" x="1105.806641"/>
      <use xlink:href="#DejaVuSans-76" x="1166.988281"/>
      <use xlink:href="#DejaVuSans-65" x="1226.167969"/>
      <use xlink:href="#DejaVuSans-6d" x="1287.691406"/>
      <use xlink:href="#DejaVuSans-65" x="1385.103516"/>
      <use xlink:href="#DejaVuSans-6e" x="1446.626953"/>
      <use xlink:href="#DejaVuSans-74" x="1510.005859"/>
     </g>
    </g>
    <g id="line2d_38">
     <path d="M 65.09 54.656563 
L 75.09 54.656563 
L 85.09 54.656563 
" style="fill: none; stroke: #008000; stroke-width: 1.5; stroke-linecap: square"/>
    </g>
    <g id="text_21">
     <!-- Attached payload drone y movement -->
     <g transform="translate(93.09 58.156563)scale(0.1 -0.1)">
      <defs>
       <path id="DejaVuSans-68" d="M 3513 2113 
L 3513 0 
L 2938 0 
L 2938 2094 
Q 2938 2591 2744 2837 
Q 2550 3084 2163 3084 
Q 1697 3084 1428 2787 
Q 1159 2491 1159 1978 
L 1159 0 
L 581 0 
L 581 4863 
L 1159 4863 
L 1159 2956 
Q 1366 3272 1645 3428 
Q 1925 3584 2291 3584 
Q 2894 3584 3203 3211 
Q 3513 2838 3513 2113 
z
" transform="scale(0.015625)"/>
      </defs>
      <use xlink:href="#DejaVuSans-41"/>
      <use xlink:href="#DejaVuSans-74" x="66.658203"/>
      <use xlink:href="#DejaVuSans-74" x="105.867188"/>
      <use xlink:href="#DejaVuSans-61" x="145.076172"/>
      <use xlink:href="#DejaVuSans-63" x="206.355469"/>
      <use xlink:href="#DejaVuSans-68" x="261.335938"/>
      <use xlink:href="#DejaVuSans-65" x="324.714844"/>
      <use xlink:href="#DejaVuSans-64" x="386.238281"/>
      <use xlink:href="#DejaVuSans-20" x="449.714844"/>
      <use xlink:href="#DejaVuSans-70" x="481.501953"/>
      <use xlink:href="#DejaVuSans-61" x="544.978516"/>
      <use xlink:href="#DejaVuSans-79" x="606.257812"/>
      <use xlink:href="#DejaVuSans-6c" x="665.4375"/>
      <use xlink:href="#DejaVuSans-6f" x="693.220703"/>
      <use xlink:href="#DejaVuSans-61" x="754.402344"/>
      <use xlink:href="#DejaVuSans-64" x="815.681641"/>
      <use xlink:href="#DejaVuSans-20" x="879.158203"/>
      <use xlink:href="#DejaVuSans-64" x="910.945312"/>
      <use xlink:href="#DejaVuSans-72" x="974.421875"/>
      <use xlink:href="#DejaVuSans-6f" x="1013.285156"/>
      <use xlink:href="#DejaVuSans-6e" x="1074.466797"/>
      <use xlink:href="#DejaVuSans-65" x="1137.845703"/>
      <use xlink:href="#DejaVuSans-20" x="1199.369141"/>
      <use xlink:href="#DejaVuSans-79" x="1231.15625"/>
      <use xlink:href="#DejaVuSans-20" x="1290.335938"/>
      <use xlink:href="#DejaVuSans-6d" x="1322.123047"/>
      <use xlink:href="#DejaVuSans-6f" x="1419.535156"/>
      <use xlink:href="#DejaVuSans-76" x="1480.716797"/>
      <use xlink:href="#DejaVuSans-65" x="1539.896484"/>
      <use xlink:href="#DejaVuSans-6d" x="1601.419922"/>
      <use xlink:href="#DejaVuSans-65" x="1698.832031"/>
      <use xlink:href="#DejaVuSans-6e" x="1760.355469"/>
      <use xlink:href="#DejaVuSans-74" x="1823.734375"/>
     </g>
    </g>
    <g id="line2d_39">
     <path d="M 65.09 69.334687 
L 75.09 69.334687 
L 85.09 69.334687 
" style="fill: none; stroke: #ffa500; stroke-width: 1.5; stroke-linecap: square"/>
    </g>
    <g id="text_22">
     <!-- Slung payload drone y movement -->
     <g transform="translate(93.09 72.834687)scale(0.1 -0.1)">
      <defs>
       <path id="DejaVuSans-53" d="M 3425 4513 
L 3425 3897 
Q 3066 4069 2747 4153 
Q 2428 4238 2131 4238 
Q 1616 4238 1336 4038 
Q 1056 3838 1056 3469 
Q 1056 3159 1242 3001 
Q 1428 2844 1947 2747 
L 2328 2669 
Q 3034 2534 3370 2195 
Q 3706 1856 3706 1288 
Q 3706 609 3251 259 
Q 2797 -91 1919 -91 
Q 1588 -91 1214 -16 
Q 841 59 441 206 
L 441 856 
Q 825 641 1194 531 
Q 1563 422 1919 422 
Q 2459 422 2753 634 
Q 3047 847 3047 1241 
Q 3047 1584 2836 1778 
Q 2625 1972 2144 2069 
L 1759 2144 
Q 1053 2284 737 2584 
Q 422 2884 422 3419 
Q 422 4038 858 4394 
Q 1294 4750 2059 4750 
Q 2388 4750 2728 4690 
Q 3069 4631 3425 4513 
z
" transform="scale(0.015625)"/>
       <path id="DejaVuSans-75" d="M 544 1381 
L 544 3500 
L 1119 3500 
L 1119 1403 
Q 1119 906 1312 657 
Q 1506 409 1894 409 
Q 2359 409 2629 706 
Q 2900 1003 2900 1516 
L 2900 3500 
L 3475 3500 
L 3475 0 
L 2900 0 
L 2900 538 
Q 2691 219 2414 64 
Q 2138 -91 1772 -91 
Q 1169 -91 856 284 
Q 544 659 544 1381 
z
M 1991 3584 
L 1991 3584 
z
" transform="scale(0.015625)"/>
      </defs>
      <use xlink:href="#DejaVuSans-53"/>
      <use xlink:href="#DejaVuSans-6c" x="63.476562"/>
      <use xlink:href="#DejaVuSans-75" x="91.259766"/>
      <use xlink:href="#DejaVuSans-6e" x="154.638672"/>
      <use xlink:href="#DejaVuSans-67" x="218.017578"/>
      <use xlink:href="#DejaVuSans-20" x="281.494141"/>
      <use xlink:href="#DejaVuSans-70" x="313.28125"/>
      <use xlink:href="#DejaVuSans-61" x="376.757812"/>
      <use xlink:href="#DejaVuSans-79" x="438.037109"/>
      <use xlink:href="#DejaVuSans-6c" x="497.216797"/>
      <use xlink:href="#DejaVuSans-6f" x="525"/>
      <use xlink:href="#DejaVuSans-61" x="586.181641"/>
      <use xlink:href="#DejaVuSans-64" x="647.460938"/>
      <use xlink:href="#DejaVuSans-20" x="710.9375"/>
      <use xlink:href="#DejaVuSans-64" x="742.724609"/>
      <use xlink:href="#DejaVuSans-72" x="806.201172"/>
      <use xlink:href="#DejaVuSans-6f" x="845.064453"/>
      <use xlink:href="#DejaVuSans-6e" x="906.246094"/>
      <use xlink:href="#DejaVuSans-65" x="969.625"/>
      <use xlink:href="#DejaVuSans-20" x="1031.148438"/>
      <use xlink:href="#DejaVuSans-79" x="1062.935547"/>
      <use xlink:href="#DejaVuSans-20" x="1122.115234"/>
      <use xlink:href="#DejaVuSans-6d" x="1153.902344"/>
      <use xlink:href="#DejaVuSans-6f" x="1251.314453"/>
      <use xlink:href="#DejaVuSans-76" x="1312.496094"/>
      <use xlink:href="#DejaVuSans-65" x="1371.675781"/>
      <use xlink:href="#DejaVuSans-6d" x="1433.199219"/>
      <use xlink:href="#DejaVuSans-65" x="1530.611328"/>
      <use xlink:href="#DejaVuSans-6e" x="1592.134766"/>
      <use xlink:href="#DejaVuSans-74" x="1655.513672"/>
     </g>
    </g>
    <g id="line2d_40">
     <path d="M 65.09 84.012812 
L 75.09 84.012812 
L 85.09 84.012812 
" style="fill: none; stroke-dasharray: 1.5,2.475; stroke-dashoffset: 0; stroke: #0000ff; stroke-width: 1.5"/>
    </g>
    <g id="text_23">
     <!-- Slung payload y movement -->
     <g transform="translate(93.09 87.512812)scale(0.1 -0.1)">
      <use xlink:href="#DejaVuSans-53"/>
      <use xlink:href="#DejaVuSans-6c" x="63.476562"/>
      <use xlink:href="#DejaVuSans-75" x="91.259766"/>
      <use xlink:href="#DejaVuSans-6e" x="154.638672"/>
      <use xlink:href="#DejaVuSans-67" x="218.017578"/>
      <use xlink:href="#DejaVuSans-20" x="281.494141"/>
      <use xlink:href="#DejaVuSans-70" x="313.28125"/>
      <use xlink:href="#DejaVuSans-61" x="376.757812"/>
      <use xlink:href="#DejaVuSans-79" x="438.037109"/>
      <use xlink:href="#DejaVuSans-6c" x="497.216797"/>
      <use xlink:href="#DejaVuSans-6f" x="525"/>
      <use xlink:href="#DejaVuSans-61" x="586.181641"/>
      <use xlink:href="#DejaVuSans-64" x="647.460938"/>
      <use xlink:href="#DejaVuSans-20" x="710.9375"/>
      <use xlink:href="#DejaVuSans-79" x="742.724609"/>
      <use xlink:href="#DejaVuSans-20" x="801.904297"/>
      <use xlink:href="#DejaVuSans-6d" x="833.691406"/>
      <use xlink:href="#DejaVuSans-6f" x="931.103516"/>
      <use xlink:href="#DejaVuSans-76" x="992.285156"/>
      <use xlink:href="#DejaVuSans-65" x="1051.464844"/>
      <use xlink:href="#DejaVuSans-6d" x="1112.988281"/>
      <use xlink:href="#DejaVuSans-65" x="1210.400391"/>
      <use xlink:href="#DejaVuSans-6e" x="1271.923828"/>
      <use xlink:href="#DejaVuSans-74" x="1335.302734"/>
     </g>
    </g>
   </g>
  </g>
 </g>
 <defs>
  <clipPath id="p9943f1975b">
   <rect x="56.09" y="26.88" width="393.91" height="276.76"/>
  </clipPath>
 </defs>
</svg>
