<?xml version="1.0" encoding="utf-8" standalone="no"?>
<!DOCTYPE svg PUBLIC "-//W3C//DTD SVG 1.1//EN"
  "http://www.w3.org/Graphics/SVG/1.1/DTD/svg11.dtd">
<svg xmlns:xlink="http://www.w3.org/1999/xlink" width="460.8pt" height="345.6pt" viewBox="0 0 460.8 345.6" xmlns="http://www.w3.org/2000/svg" version="1.1">
 <metadata>
  <rdf:RDF xmlns:dc="http://purl.org/dc/elements/1.1/" xmlns:cc="http://creativecommons.org/ns#" xmlns:rdf="http://www.w3.org/1999/02/22-rdf-syntax-ns#">
   <cc:Work>
    <dc:type rdf:resource="http://purl.org/dc/dcmitype/StillImage"/>
    <dc:date>2022-03-30T11:54:55.047245</dc:date>
    <dc:format>image/svg+xml</dc:format>
    <dc:creator>
     <cc:Agent>
      <dc:title>Matplotlib v3.5.1, https://matplotlib.org/</dc:title>
     </cc:Agent>
    </dc:creator>
   </cc:Work>
  </rdf:RDF>
 </metadata>
 <defs>
  <style type="text/css">*{stroke-linejoin: round; stroke-linecap: butt}</style>
 </defs>
 <g id="figure_1">
  <g id="patch_1">
   <path d="M 0 345.6 
L 460.8 345.6 
L 460.8 0 
L 0 0 
z
" style="fill: #ffffff"/>
  </g>
  <g id="axes_1">
   <g id="patch_2">
    <path d="M 47.72 303.64 
L 450 303.64 
L 450 26.88 
L 47.72 26.88 
z
" style="fill: #ffffff"/>
   </g>
   <g id="matplotlib.axis_1">
    <g id="xtick_1">
     <g id="line2d_1">
      <path d="M 64.16772 303.64 
L 64.16772 26.88 
" clip-path="url(#p76c0028586)" style="fill: none; stroke: #b0b0b0; stroke-width: 0.8; stroke-linecap: square"/>
     </g>
     <g id="line2d_2">
      <defs>
       <path id="m9b844b6868" d="M 0 0 
L 0 3.5 
" style="stroke: #000000; stroke-width: 0.8"/>
      </defs>
      <g>
       <use xlink:href="#m9b844b6868" x="64.16772" y="303.64" style="stroke: #000000; stroke-width: 0.8"/>
      </g>
     </g>
     <g id="text_1">
      <!-- 0.0 -->
      <g transform="translate(56.216158 318.238437)scale(0.1 -0.1)">
       <defs>
        <path id="DejaVuSans-30" d="M 2034 4250 
Q 1547 4250 1301 3770 
Q 1056 3291 1056 2328 
Q 1056 1369 1301 889 
Q 1547 409 2034 409 
Q 2525 409 2770 889 
Q 3016 1369 3016 2328 
Q 3016 3291 2770 3770 
Q 2525 4250 2034 4250 
z
M 2034 4750 
Q 2819 4750 3233 4129 
Q 3647 3509 3647 2328 
Q 3647 1150 3233 529 
Q 2819 -91 2034 -91 
Q 1250 -91 836 529 
Q 422 1150 422 2328 
Q 422 3509 836 4129 
Q 1250 4750 2034 4750 
z
" transform="scale(0.015625)"/>
        <path id="DejaVuSans-2e" d="M 684 794 
L 1344 794 
L 1344 0 
L 684 0 
L 684 794 
z
" transform="scale(0.015625)"/>
       </defs>
       <use xlink:href="#DejaVuSans-30"/>
       <use xlink:href="#DejaVuSans-2e" x="63.623047"/>
       <use xlink:href="#DejaVuSans-30" x="95.410156"/>
      </g>
     </g>
    </g>
    <g id="xtick_2">
     <g id="line2d_3">
      <path d="M 110.111074 303.64 
L 110.111074 26.88 
" clip-path="url(#p76c0028586)" style="fill: none; stroke: #b0b0b0; stroke-width: 0.8; stroke-linecap: square"/>
     </g>
     <g id="line2d_4">
      <g>
       <use xlink:href="#m9b844b6868" x="110.111074" y="303.64" style="stroke: #000000; stroke-width: 0.8"/>
      </g>
     </g>
     <g id="text_2">
      <!-- 2.5 -->
      <g transform="translate(102.159511 318.238437)scale(0.1 -0.1)">
       <defs>
        <path id="DejaVuSans-32" d="M 1228 531 
L 3431 531 
L 3431 0 
L 469 0 
L 469 531 
Q 828 903 1448 1529 
Q 2069 2156 2228 2338 
Q 2531 2678 2651 2914 
Q 2772 3150 2772 3378 
Q 2772 3750 2511 3984 
Q 2250 4219 1831 4219 
Q 1534 4219 1204 4116 
Q 875 4013 500 3803 
L 500 4441 
Q 881 4594 1212 4672 
Q 1544 4750 1819 4750 
Q 2544 4750 2975 4387 
Q 3406 4025 3406 3419 
Q 3406 3131 3298 2873 
Q 3191 2616 2906 2266 
Q 2828 2175 2409 1742 
Q 1991 1309 1228 531 
z
" transform="scale(0.015625)"/>
        <path id="DejaVuSans-35" d="M 691 4666 
L 3169 4666 
L 3169 4134 
L 1269 4134 
L 1269 2991 
Q 1406 3038 1543 3061 
Q 1681 3084 1819 3084 
Q 2600 3084 3056 2656 
Q 3513 2228 3513 1497 
Q 3513 744 3044 326 
Q 2575 -91 1722 -91 
Q 1428 -91 1123 -41 
Q 819 9 494 109 
L 494 744 
Q 775 591 1075 516 
Q 1375 441 1709 441 
Q 2250 441 2565 725 
Q 2881 1009 2881 1497 
Q 2881 1984 2565 2268 
Q 2250 2553 1709 2553 
Q 1456 2553 1204 2497 
Q 953 2441 691 2322 
L 691 4666 
z
" transform="scale(0.015625)"/>
       </defs>
       <use xlink:href="#DejaVuSans-32"/>
       <use xlink:href="#DejaVuSans-2e" x="63.623047"/>
       <use xlink:href="#DejaVuSans-35" x="95.410156"/>
      </g>
     </g>
    </g>
    <g id="xtick_3">
     <g id="line2d_5">
      <path d="M 156.054427 303.64 
L 156.054427 26.88 
" clip-path="url(#p76c0028586)" style="fill: none; stroke: #b0b0b0; stroke-width: 0.8; stroke-linecap: square"/>
     </g>
     <g id="line2d_6">
      <g>
       <use xlink:href="#m9b844b6868" x="156.054427" y="303.64" style="stroke: #000000; stroke-width: 0.8"/>
      </g>
     </g>
     <g id="text_3">
      <!-- 5.0 -->
      <g transform="translate(148.102864 318.238437)scale(0.1 -0.1)">
       <use xlink:href="#DejaVuSans-35"/>
       <use xlink:href="#DejaVuSans-2e" x="63.623047"/>
       <use xlink:href="#DejaVuSans-30" x="95.410156"/>
      </g>
     </g>
    </g>
    <g id="xtick_4">
     <g id="line2d_7">
      <path d="M 201.99778 303.64 
L 201.99778 26.88 
" clip-path="url(#p76c0028586)" style="fill: none; stroke: #b0b0b0; stroke-width: 0.8; stroke-linecap: square"/>
     </g>
     <g id="line2d_8">
      <g>
       <use xlink:href="#m9b844b6868" x="201.99778" y="303.64" style="stroke: #000000; stroke-width: 0.8"/>
      </g>
     </g>
     <g id="text_4">
      <!-- 7.5 -->
      <g transform="translate(194.046217 318.238437)scale(0.1 -0.1)">
       <defs>
        <path id="DejaVuSans-37" d="M 525 4666 
L 3525 4666 
L 3525 4397 
L 1831 0 
L 1172 0 
L 2766 4134 
L 525 4134 
L 525 4666 
z
" transform="scale(0.015625)"/>
       </defs>
       <use xlink:href="#DejaVuSans-37"/>
       <use xlink:href="#DejaVuSans-2e" x="63.623047"/>
       <use xlink:href="#DejaVuSans-35" x="95.410156"/>
      </g>
     </g>
    </g>
    <g id="xtick_5">
     <g id="line2d_9">
      <path d="M 247.941133 303.64 
L 247.941133 26.88 
" clip-path="url(#p76c0028586)" style="fill: none; stroke: #b0b0b0; stroke-width: 0.8; stroke-linecap: square"/>
     </g>
     <g id="line2d_10">
      <g>
       <use xlink:href="#m9b844b6868" x="247.941133" y="303.64" style="stroke: #000000; stroke-width: 0.8"/>
      </g>
     </g>
     <g id="text_5">
      <!-- 10.0 -->
      <g transform="translate(236.80832 318.238437)scale(0.1 -0.1)">
       <defs>
        <path id="DejaVuSans-31" d="M 794 531 
L 1825 531 
L 1825 4091 
L 703 3866 
L 703 4441 
L 1819 4666 
L 2450 4666 
L 2450 531 
L 3481 531 
L 3481 0 
L 794 0 
L 794 531 
z
" transform="scale(0.015625)"/>
       </defs>
       <use xlink:href="#DejaVuSans-31"/>
       <use xlink:href="#DejaVuSans-30" x="63.623047"/>
       <use xlink:href="#DejaVuSans-2e" x="127.246094"/>
       <use xlink:href="#DejaVuSans-30" x="159.033203"/>
      </g>
     </g>
    </g>
    <g id="xtick_6">
     <g id="line2d_11">
      <path d="M 293.884486 303.64 
L 293.884486 26.88 
" clip-path="url(#p76c0028586)" style="fill: none; stroke: #b0b0b0; stroke-width: 0.8; stroke-linecap: square"/>
     </g>
     <g id="line2d_12">
      <g>
       <use xlink:href="#m9b844b6868" x="293.884486" y="303.64" style="stroke: #000000; stroke-width: 0.8"/>
      </g>
     </g>
     <g id="text_6">
      <!-- 12.5 -->
      <g transform="translate(282.751674 318.238437)scale(0.1 -0.1)">
       <use xlink:href="#DejaVuSans-31"/>
       <use xlink:href="#DejaVuSans-32" x="63.623047"/>
       <use xlink:href="#DejaVuSans-2e" x="127.246094"/>
       <use xlink:href="#DejaVuSans-35" x="159.033203"/>
      </g>
     </g>
    </g>
    <g id="xtick_7">
     <g id="line2d_13">
      <path d="M 339.827839 303.64 
L 339.827839 26.88 
" clip-path="url(#p76c0028586)" style="fill: none; stroke: #b0b0b0; stroke-width: 0.8; stroke-linecap: square"/>
     </g>
     <g id="line2d_14">
      <g>
       <use xlink:href="#m9b844b6868" x="339.827839" y="303.64" style="stroke: #000000; stroke-width: 0.8"/>
      </g>
     </g>
     <g id="text_7">
      <!-- 15.0 -->
      <g transform="translate(328.695027 318.238437)scale(0.1 -0.1)">
       <use xlink:href="#DejaVuSans-31"/>
       <use xlink:href="#DejaVuSans-35" x="63.623047"/>
       <use xlink:href="#DejaVuSans-2e" x="127.246094"/>
       <use xlink:href="#DejaVuSans-30" x="159.033203"/>
      </g>
     </g>
    </g>
    <g id="xtick_8">
     <g id="line2d_15">
      <path d="M 385.771192 303.64 
L 385.771192 26.88 
" clip-path="url(#p76c0028586)" style="fill: none; stroke: #b0b0b0; stroke-width: 0.8; stroke-linecap: square"/>
     </g>
     <g id="line2d_16">
      <g>
       <use xlink:href="#m9b844b6868" x="385.771192" y="303.64" style="stroke: #000000; stroke-width: 0.8"/>
      </g>
     </g>
     <g id="text_8">
      <!-- 17.5 -->
      <g transform="translate(374.63838 318.238437)scale(0.1 -0.1)">
       <use xlink:href="#DejaVuSans-31"/>
       <use xlink:href="#DejaVuSans-37" x="63.623047"/>
       <use xlink:href="#DejaVuSans-2e" x="127.246094"/>
       <use xlink:href="#DejaVuSans-35" x="159.033203"/>
      </g>
     </g>
    </g>
    <g id="xtick_9">
     <g id="line2d_17">
      <path d="M 431.714545 303.64 
L 431.714545 26.88 
" clip-path="url(#p76c0028586)" style="fill: none; stroke: #b0b0b0; stroke-width: 0.8; stroke-linecap: square"/>
     </g>
     <g id="line2d_18">
      <g>
       <use xlink:href="#m9b844b6868" x="431.714545" y="303.64" style="stroke: #000000; stroke-width: 0.8"/>
      </g>
     </g>
     <g id="text_9">
      <!-- 20.0 -->
      <g transform="translate(420.581733 318.238437)scale(0.1 -0.1)">
       <use xlink:href="#DejaVuSans-32"/>
       <use xlink:href="#DejaVuSans-30" x="63.623047"/>
       <use xlink:href="#DejaVuSans-2e" x="127.246094"/>
       <use xlink:href="#DejaVuSans-30" x="159.033203"/>
      </g>
     </g>
    </g>
    <g id="text_10">
     <!-- t [s] -->
     <g transform="translate(238.804531 331.916562)scale(0.1 -0.1)">
      <defs>
       <path id="DejaVuSans-74" d="M 1172 4494 
L 1172 3500 
L 2356 3500 
L 2356 3053 
L 1172 3053 
L 1172 1153 
Q 1172 725 1289 603 
Q 1406 481 1766 481 
L 2356 481 
L 2356 0 
L 1766 0 
Q 1100 0 847 248 
Q 594 497 594 1153 
L 594 3053 
L 172 3053 
L 172 3500 
L 594 3500 
L 594 4494 
L 1172 4494 
z
" transform="scale(0.015625)"/>
       <path id="DejaVuSans-20" transform="scale(0.015625)"/>
       <path id="DejaVuSans-5b" d="M 550 4863 
L 1875 4863 
L 1875 4416 
L 1125 4416 
L 1125 -397 
L 1875 -397 
L 1875 -844 
L 550 -844 
L 550 4863 
z
" transform="scale(0.015625)"/>
       <path id="DejaVuSans-73" d="M 2834 3397 
L 2834 2853 
Q 2591 2978 2328 3040 
Q 2066 3103 1784 3103 
Q 1356 3103 1142 2972 
Q 928 2841 928 2578 
Q 928 2378 1081 2264 
Q 1234 2150 1697 2047 
L 1894 2003 
Q 2506 1872 2764 1633 
Q 3022 1394 3022 966 
Q 3022 478 2636 193 
Q 2250 -91 1575 -91 
Q 1294 -91 989 -36 
Q 684 19 347 128 
L 347 722 
Q 666 556 975 473 
Q 1284 391 1588 391 
Q 1994 391 2212 530 
Q 2431 669 2431 922 
Q 2431 1156 2273 1281 
Q 2116 1406 1581 1522 
L 1381 1569 
Q 847 1681 609 1914 
Q 372 2147 372 2553 
Q 372 3047 722 3315 
Q 1072 3584 1716 3584 
Q 2034 3584 2315 3537 
Q 2597 3491 2834 3397 
z
" transform="scale(0.015625)"/>
       <path id="DejaVuSans-5d" d="M 1947 4863 
L 1947 -844 
L 622 -844 
L 622 -397 
L 1369 -397 
L 1369 4416 
L 622 4416 
L 622 4863 
L 1947 4863 
z
" transform="scale(0.015625)"/>
      </defs>
      <use xlink:href="#DejaVuSans-74"/>
      <use xlink:href="#DejaVuSans-20" x="39.208984"/>
      <use xlink:href="#DejaVuSans-5b" x="70.996094"/>
      <use xlink:href="#DejaVuSans-73" x="110.009766"/>
      <use xlink:href="#DejaVuSans-5d" x="162.109375"/>
     </g>
    </g>
   </g>
   <g id="matplotlib.axis_2">
    <g id="ytick_1">
     <g id="line2d_19">
      <path d="M 47.72 294.987822 
L 450 294.987822 
" clip-path="url(#p76c0028586)" style="fill: none; stroke: #b0b0b0; stroke-width: 0.8; stroke-linecap: square"/>
     </g>
     <g id="line2d_20">
      <defs>
       <path id="m25c47ffaa6" d="M 0 0 
L -3.5 0 
" style="stroke: #000000; stroke-width: 0.8"/>
      </defs>
      <g>
       <use xlink:href="#m25c47ffaa6" x="47.72" y="294.987822" style="stroke: #000000; stroke-width: 0.8"/>
      </g>
     </g>
     <g id="text_11">
      <!-- 0.0 -->
      <g transform="translate(24.816875 298.787041)scale(0.1 -0.1)">
       <use xlink:href="#DejaVuSans-30"/>
       <use xlink:href="#DejaVuSans-2e" x="63.623047"/>
       <use xlink:href="#DejaVuSans-30" x="95.410156"/>
      </g>
     </g>
    </g>
    <g id="ytick_2">
     <g id="line2d_21">
      <path d="M 47.72 255.483332 
L 450 255.483332 
" clip-path="url(#p76c0028586)" style="fill: none; stroke: #b0b0b0; stroke-width: 0.8; stroke-linecap: square"/>
     </g>
     <g id="line2d_22">
      <g>
       <use xlink:href="#m25c47ffaa6" x="47.72" y="255.483332" style="stroke: #000000; stroke-width: 0.8"/>
      </g>
     </g>
     <g id="text_12">
      <!-- 0.5 -->
      <g transform="translate(24.816875 259.282551)scale(0.1 -0.1)">
       <use xlink:href="#DejaVuSans-30"/>
       <use xlink:href="#DejaVuSans-2e" x="63.623047"/>
       <use xlink:href="#DejaVuSans-35" x="95.410156"/>
      </g>
     </g>
    </g>
    <g id="ytick_3">
     <g id="line2d_23">
      <path d="M 47.72 215.978843 
L 450 215.978843 
" clip-path="url(#p76c0028586)" style="fill: none; stroke: #b0b0b0; stroke-width: 0.8; stroke-linecap: square"/>
     </g>
     <g id="line2d_24">
      <g>
       <use xlink:href="#m25c47ffaa6" x="47.72" y="215.978843" style="stroke: #000000; stroke-width: 0.8"/>
      </g>
     </g>
     <g id="text_13">
      <!-- 1.0 -->
      <g transform="translate(24.816875 219.778061)scale(0.1 -0.1)">
       <use xlink:href="#DejaVuSans-31"/>
       <use xlink:href="#DejaVuSans-2e" x="63.623047"/>
       <use xlink:href="#DejaVuSans-30" x="95.410156"/>
      </g>
     </g>
    </g>
    <g id="ytick_4">
     <g id="line2d_25">
      <path d="M 47.72 176.474353 
L 450 176.474353 
" clip-path="url(#p76c0028586)" style="fill: none; stroke: #b0b0b0; stroke-width: 0.8; stroke-linecap: square"/>
     </g>
     <g id="line2d_26">
      <g>
       <use xlink:href="#m25c47ffaa6" x="47.72" y="176.474353" style="stroke: #000000; stroke-width: 0.8"/>
      </g>
     </g>
     <g id="text_14">
      <!-- 1.5 -->
      <g transform="translate(24.816875 180.273571)scale(0.1 -0.1)">
       <use xlink:href="#DejaVuSans-31"/>
       <use xlink:href="#DejaVuSans-2e" x="63.623047"/>
       <use xlink:href="#DejaVuSans-35" x="95.410156"/>
      </g>
     </g>
    </g>
    <g id="ytick_5">
     <g id="line2d_27">
      <path d="M 47.72 136.969863 
L 450 136.969863 
" clip-path="url(#p76c0028586)" style="fill: none; stroke: #b0b0b0; stroke-width: 0.8; stroke-linecap: square"/>
     </g>
     <g id="line2d_28">
      <g>
       <use xlink:href="#m25c47ffaa6" x="47.72" y="136.969863" style="stroke: #000000; stroke-width: 0.8"/>
      </g>
     </g>
     <g id="text_15">
      <!-- 2.0 -->
      <g transform="translate(24.816875 140.769081)scale(0.1 -0.1)">
       <use xlink:href="#DejaVuSans-32"/>
       <use xlink:href="#DejaVuSans-2e" x="63.623047"/>
       <use xlink:href="#DejaVuSans-30" x="95.410156"/>
      </g>
     </g>
    </g>
    <g id="ytick_6">
     <g id="line2d_29">
      <path d="M 47.72 97.465373 
L 450 97.465373 
" clip-path="url(#p76c0028586)" style="fill: none; stroke: #b0b0b0; stroke-width: 0.8; stroke-linecap: square"/>
     </g>
     <g id="line2d_30">
      <g>
       <use xlink:href="#m25c47ffaa6" x="47.72" y="97.465373" style="stroke: #000000; stroke-width: 0.8"/>
      </g>
     </g>
     <g id="text_16">
      <!-- 2.5 -->
      <g transform="translate(24.816875 101.264592)scale(0.1 -0.1)">
       <use xlink:href="#DejaVuSans-32"/>
       <use xlink:href="#DejaVuSans-2e" x="63.623047"/>
       <use xlink:href="#DejaVuSans-35" x="95.410156"/>
      </g>
     </g>
    </g>
    <g id="ytick_7">
     <g id="line2d_31">
      <path d="M 47.72 57.960883 
L 450 57.960883 
" clip-path="url(#p76c0028586)" style="fill: none; stroke: #b0b0b0; stroke-width: 0.8; stroke-linecap: square"/>
     </g>
     <g id="line2d_32">
      <g>
       <use xlink:href="#m25c47ffaa6" x="47.72" y="57.960883" style="stroke: #000000; stroke-width: 0.8"/>
      </g>
     </g>
     <g id="text_17">
      <!-- 3.0 -->
      <g transform="translate(24.816875 61.760102)scale(0.1 -0.1)">
       <defs>
        <path id="DejaVuSans-33" d="M 2597 2516 
Q 3050 2419 3304 2112 
Q 3559 1806 3559 1356 
Q 3559 666 3084 287 
Q 2609 -91 1734 -91 
Q 1441 -91 1130 -33 
Q 819 25 488 141 
L 488 750 
Q 750 597 1062 519 
Q 1375 441 1716 441 
Q 2309 441 2620 675 
Q 2931 909 2931 1356 
Q 2931 1769 2642 2001 
Q 2353 2234 1838 2234 
L 1294 2234 
L 1294 2753 
L 1863 2753 
Q 2328 2753 2575 2939 
Q 2822 3125 2822 3475 
Q 2822 3834 2567 4026 
Q 2313 4219 1838 4219 
Q 1578 4219 1281 4162 
Q 984 4106 628 3988 
L 628 4550 
Q 988 4650 1302 4700 
Q 1616 4750 1894 4750 
Q 2613 4750 3031 4423 
Q 3450 4097 3450 3541 
Q 3450 3153 3228 2886 
Q 3006 2619 2597 2516 
z
" transform="scale(0.015625)"/>
       </defs>
       <use xlink:href="#DejaVuSans-33"/>
       <use xlink:href="#DejaVuSans-2e" x="63.623047"/>
       <use xlink:href="#DejaVuSans-30" x="95.410156"/>
      </g>
     </g>
    </g>
    <g id="text_18">
     <!-- z [m] -->
     <g transform="translate(18.737188 178.245156)rotate(-90)scale(0.1 -0.1)">
      <defs>
       <path id="DejaVuSans-7a" d="M 353 3500 
L 3084 3500 
L 3084 2975 
L 922 459 
L 3084 459 
L 3084 0 
L 275 0 
L 275 525 
L 2438 3041 
L 353 3041 
L 353 3500 
z
" transform="scale(0.015625)"/>
       <path id="DejaVuSans-6d" d="M 3328 2828 
Q 3544 3216 3844 3400 
Q 4144 3584 4550 3584 
Q 5097 3584 5394 3201 
Q 5691 2819 5691 2113 
L 5691 0 
L 5113 0 
L 5113 2094 
Q 5113 2597 4934 2840 
Q 4756 3084 4391 3084 
Q 3944 3084 3684 2787 
Q 3425 2491 3425 1978 
L 3425 0 
L 2847 0 
L 2847 2094 
Q 2847 2600 2669 2842 
Q 2491 3084 2119 3084 
Q 1678 3084 1418 2786 
Q 1159 2488 1159 1978 
L 1159 0 
L 581 0 
L 581 3500 
L 1159 3500 
L 1159 2956 
Q 1356 3278 1631 3431 
Q 1906 3584 2284 3584 
Q 2666 3584 2933 3390 
Q 3200 3197 3328 2828 
z
" transform="scale(0.015625)"/>
      </defs>
      <use xlink:href="#DejaVuSans-7a"/>
      <use xlink:href="#DejaVuSans-20" x="52.490234"/>
      <use xlink:href="#DejaVuSans-5b" x="84.277344"/>
      <use xlink:href="#DejaVuSans-6d" x="123.291016"/>
      <use xlink:href="#DejaVuSans-5d" x="220.703125"/>
     </g>
    </g>
   </g>
   <g id="line2d_33">
    <path d="M 66.005455 290.716034 
L 183.620439 290.655059 
L 185.458173 289.615264 
L 187.295907 287.736205 
L 189.133641 284.070748 
L 190.971375 279.107637 
L 192.809109 271.912926 
L 194.646843 264.01542 
L 196.484577 249.868875 
L 198.322312 239.773017 
L 200.160046 228.331225 
L 201.99778 218.560373 
L 203.835514 207.958894 
L 205.673248 195.274827 
L 207.510982 186.792405 
L 213.024185 163.85309 
L 214.861919 157.681842 
L 216.699653 148.933229 
L 218.537387 143.309042 
L 220.375121 138.318439 
L 222.212855 133.880024 
L 224.050589 129.740858 
L 225.888323 123.879459 
L 229.563792 116.576791 
L 236.914728 105.018764 
L 238.752462 101.481242 
L 242.427931 97.001568 
L 244.265665 95.049228 
L 249.778867 89.728576 
L 251.616601 87.258827 
L 255.292069 84.046758 
L 262.643006 78.745748 
L 264.48074 74.20452 
L 266.318474 69.064475 
L 268.156208 64.98568 
L 269.993942 62.392423 
L 271.831677 60.515561 
L 273.669411 59.049831 
L 275.507145 58.324717 
L 277.344879 58.332928 
L 281.020347 60.270094 
L 282.858081 61.461065 
L 286.53355 64.18097 
L 288.371284 65.689056 
L 292.046752 67.404705 
L 297.559954 69.383378 
L 299.397688 69.824551 
L 301.235423 70.103035 
L 303.073157 70.076465 
L 304.910891 69.904946 
L 306.748625 69.581913 
L 308.586359 69.128644 
L 310.424093 68.525481 
L 312.261827 65.404017 
L 314.099561 61.742826 
L 315.937296 58.750587 
L 317.77503 56.700144 
L 319.612764 55.217424 
L 321.450498 53.325945 
L 323.288232 52.407342 
L 325.125966 52.31082 
L 326.9637 53.075974 
L 328.801434 54.359556 
L 330.639169 55.917987 
L 332.476903 57.692224 
L 334.314637 59.198541 
L 336.152371 61.304657 
L 337.990105 62.387252 
L 339.827839 63.203261 
L 341.665573 63.823882 
L 343.503307 64.589316 
L 345.341042 64.984548 
L 347.178776 65.25303 
L 349.01651 65.376335 
L 350.854244 65.313352 
L 352.691978 65.046133 
L 354.529712 64.600273 
L 356.367446 63.942562 
L 358.20518 62.695721 
L 358.20518 62.695721 
" clip-path="url(#p76c0028586)" style="fill: none; stroke: #ff0000; stroke-width: 1.5; stroke-linecap: square"/>
   </g>
   <g id="line2d_34">
    <path d="M 66.005455 290.689069 
L 187.295907 290.681847 
L 189.133641 290.545001 
L 190.971375 289.83096 
L 192.809109 288.018798 
L 194.646843 285.196948 
L 196.484577 281.268324 
L 198.322312 275.545669 
L 200.160046 266.57156 
L 203.835514 251.149084 
L 205.673248 242.722951 
L 209.348716 227.525004 
L 211.18645 219.568104 
L 213.024185 208.293459 
L 214.861919 200.842993 
L 218.537387 186.742757 
L 225.888323 162.372251 
L 227.726058 154.598807 
L 231.401526 144.900037 
L 233.23926 140.577458 
L 235.076994 135.892474 
L 236.914728 130.227158 
L 240.590196 123.009552 
L 244.265665 115.95864 
L 246.103399 111.382276 
L 251.616601 102.352823 
L 253.454335 99.943902 
L 255.292069 97.205633 
L 257.129804 93.821173 
L 262.643006 87.459277 
L 264.48074 85.675522 
L 266.318474 82.822867 
L 269.993942 79.117576 
L 273.669411 76.029557 
L 275.507145 74.906701 
L 277.344879 73.29529 
L 279.182613 70.795295 
L 281.020347 68.984888 
L 282.858081 66.973329 
L 284.695815 64.666893 
L 288.371284 59.660554 
L 290.209018 56.025454 
L 292.046752 53.950718 
L 293.884486 52.810252 
L 295.72222 52.315356 
L 297.559954 52.364184 
L 301.235423 53.194779 
L 306.748625 54.809985 
L 310.424093 55.70002 
L 312.261827 56.215933 
L 314.099561 56.986392 
L 317.77503 57.741857 
L 321.450498 57.980818 
L 325.125966 57.688259 
L 326.9637 57.341366 
L 328.801434 56.588256 
L 330.639169 55.49162 
L 332.476903 53.500467 
L 334.314637 51.790553 
L 339.827839 46.183299 
L 341.665573 44.818002 
L 343.503307 43.680972 
L 345.341042 42.808935 
L 347.178776 42.229319 
L 349.01651 42.20781 
L 350.854244 42.608522 
L 356.367446 45.313239 
L 358.20518 46.444456 
L 360.042915 46.937001 
L 363.718383 47.473523 
L 369.231585 48.000468 
L 371.069319 48.011927 
L 372.907053 47.881831 
L 376.582522 47.219261 
L 378.420256 46.761327 
L 378.420256 46.761327 
" clip-path="url(#p76c0028586)" style="fill: none; stroke: #008000; stroke-width: 1.5; stroke-linecap: square"/>
   </g>
   <g id="line2d_35">
    <path d="M 66.005455 290.681936 
L 187.295907 290.647084 
L 189.133641 290.252248 
L 190.971375 288.223852 
L 192.809109 285.373693 
L 194.646843 281.264849 
L 198.322312 268.858126 
L 201.99778 254.689742 
L 203.835514 248.579795 
L 205.673248 239.328779 
L 207.510982 233.118914 
L 214.861919 210.676108 
L 216.699653 202.023908 
L 225.888323 175.549544 
L 227.726058 167.749648 
L 233.23926 153.617968 
L 235.076994 149.485406 
L 236.914728 144.908884 
L 238.752462 139.274396 
L 242.427931 131.424387 
L 246.103399 124.498349 
L 249.778867 117.872666 
L 251.616601 113.658671 
L 255.292069 108.190512 
L 257.129804 105.423986 
L 258.967538 103.329007 
L 260.805272 99.945581 
L 264.48074 95.593803 
L 268.156208 92.049712 
L 269.993942 89.551117 
L 275.507145 84.868339 
L 277.344879 82.872845 
L 281.020347 80.368326 
L 282.858081 79.215591 
L 284.695815 77.544678 
L 290.209018 74.429081 
L 292.046752 72.974515 
L 293.884486 72.18113 
L 295.72222 71.806308 
L 297.559954 71.585839 
L 299.397688 71.76321 
L 303.073157 72.713908 
L 304.910891 72.721341 
L 306.748625 72.139713 
L 308.586359 71.048808 
L 310.424093 69.588081 
L 314.099561 67.091547 
L 315.937296 65.362807 
L 323.288232 61.312555 
L 326.9637 60.148476 
L 330.639169 58.47592 
L 332.476903 57.574242 
L 334.314637 57.564238 
L 336.152371 57.958127 
L 339.827839 58.981158 
L 341.665573 59.154139 
L 343.503307 58.822477 
L 345.341042 57.760181 
L 347.178776 57.606227 
L 349.01651 57.856131 
L 352.691978 58.915208 
L 354.529712 59.678384 
L 360.042915 61.21031 
L 361.880649 61.913589 
L 363.718383 63.151276 
L 365.556117 63.655503 
L 367.393851 63.772038 
L 369.231585 63.691692 
L 371.069319 63.383918 
L 372.907053 62.962935 
L 376.582522 61.694241 
L 382.095724 59.949538 
L 383.933458 59.135275 
L 387.608926 58.007722 
L 393.122129 55.656222 
L 394.959863 54.952729 
L 396.797597 54.093004 
L 402.310799 52.449852 
L 404.148534 51.691016 
L 405.986268 50.488684 
L 407.824002 49.44399 
L 415.174938 46.291102 
L 417.012672 44.850537 
L 418.850407 43.711462 
L 420.688141 42.730091 
L 422.525875 42.050487 
L 431.714545 39.46 
L 431.714545 39.46 
" clip-path="url(#p76c0028586)" style="fill: none; stroke: #ffa500; stroke-width: 1.5; stroke-linecap: square"/>
   </g>
   <g id="line2d_36">
    <path d="M 66.005455 291.059863 
L 201.99778 291.051933 
L 203.835514 290.859619 
L 205.673248 283.320971 
L 207.510982 276.444794 
L 209.348716 272.288421 
L 211.18645 267.009306 
L 213.024185 260.949181 
L 214.861919 255.792565 
L 216.699653 246.762265 
L 218.537387 241.031626 
L 220.375121 236.699979 
L 222.212855 231.403927 
L 224.050589 225.396197 
L 225.888323 220.251821 
L 227.726058 213.121432 
L 229.563792 207.924674 
L 236.914728 190.121915 
L 238.752462 184.733184 
L 240.590196 180.479221 
L 242.427931 176.696536 
L 244.265665 173.394994 
L 247.941133 166.254373 
L 249.778867 163.234508 
L 251.616601 159.084623 
L 257.129804 150.916948 
L 258.967538 148.699928 
L 260.805272 145.459897 
L 264.48074 141.01097 
L 268.156208 137.574375 
L 269.993942 134.923655 
L 275.507145 130.354699 
L 277.344879 128.36691 
L 281.020347 125.841851 
L 282.858081 124.691114 
L 284.695815 123.074534 
L 288.371284 120.929693 
L 290.209018 119.958282 
L 292.046752 118.476493 
L 293.884486 117.660227 
L 297.559954 117.01274 
L 299.397688 116.784484 
L 301.235423 116.047149 
L 304.910891 109.296113 
L 306.748625 107.129296 
L 308.586359 108.382314 
L 310.424093 111.454709 
L 312.261827 112.610972 
L 314.099561 111.818345 
L 315.937296 110.5749 
L 317.77503 109.835847 
L 319.612764 108.748209 
L 321.450498 107.424779 
L 323.288232 105.06329 
L 325.125966 102.884516 
L 328.801434 97.934745 
L 330.639169 96.74607 
L 332.476903 100.73461 
L 334.314637 102.998227 
L 336.152371 102.278932 
L 339.827839 98.488172 
L 341.665573 97.189147 
L 343.503307 96.406367 
L 345.341042 97.159575 
L 347.178776 98.875359 
L 349.01651 101.177516 
L 350.854244 102.863038 
L 352.691978 103.25663 
L 354.529712 104.557688 
L 356.367446 104.468974 
L 358.20518 103.85327 
L 360.042915 103.904892 
L 363.718383 104.519912 
L 365.556117 104.452384 
L 367.393851 104.175835 
L 369.231585 103.720938 
L 371.069319 104.529825 
L 372.907053 106.431631 
L 374.744788 106.56607 
L 376.582522 106.435799 
L 378.420256 106.043983 
L 383.933458 102.801381 
L 387.608926 101.040128 
L 391.284395 99.119452 
L 393.122129 98.462987 
L 394.959863 98.89416 
L 396.797597 99.053143 
L 398.635331 98.488874 
L 400.473065 98.322254 
L 402.310799 97.707535 
L 407.824002 94.500321 
L 409.661736 92.704845 
L 411.49947 90.005611 
L 413.337204 88.33176 
L 415.174938 87.231497 
L 417.012672 85.540879 
L 418.850407 84.728661 
L 420.688141 84.079723 
L 422.525875 84.381766 
L 424.363609 85.017335 
L 426.201343 85.139298 
L 428.039077 84.866647 
L 429.876811 84.374317 
L 431.714545 83.518513 
L 431.714545 83.518513 
" clip-path="url(#p76c0028586)" style="fill: none; stroke-dasharray: 1.5,2.475; stroke-dashoffset: 0; stroke: #0000ff; stroke-width: 1.5"/>
   </g>
   <g id="patch_3">
    <path d="M 47.72 303.64 
L 47.72 26.88 
" style="fill: none; stroke: #000000; stroke-width: 0.8; stroke-linejoin: miter; stroke-linecap: square"/>
   </g>
   <g id="patch_4">
    <path d="M 450 303.64 
L 450 26.88 
" style="fill: none; stroke: #000000; stroke-width: 0.8; stroke-linejoin: miter; stroke-linecap: square"/>
   </g>
   <g id="patch_5">
    <path d="M 47.72 303.64 
L 450 303.64 
" style="fill: none; stroke: #000000; stroke-width: 0.8; stroke-linejoin: miter; stroke-linecap: square"/>
   </g>
   <g id="patch_6">
    <path d="M 47.72 26.88 
L 450 26.88 
" style="fill: none; stroke: #000000; stroke-width: 0.8; stroke-linejoin: miter; stroke-linecap: square"/>
   </g>
   <g id="text_19">
    <!-- All scenarios z plotted against time -->
    <g transform="translate(143.194375 20.88)scale(0.12 -0.12)">
     <defs>
      <path id="DejaVuSans-41" d="M 2188 4044 
L 1331 1722 
L 3047 1722 
L 2188 4044 
z
M 1831 4666 
L 2547 4666 
L 4325 0 
L 3669 0 
L 3244 1197 
L 1141 1197 
L 716 0 
L 50 0 
L 1831 4666 
z
" transform="scale(0.015625)"/>
      <path id="DejaVuSans-6c" d="M 603 4863 
L 1178 4863 
L 1178 0 
L 603 0 
L 603 4863 
z
" transform="scale(0.015625)"/>
      <path id="DejaVuSans-63" d="M 3122 3366 
L 3122 2828 
Q 2878 2963 2633 3030 
Q 2388 3097 2138 3097 
Q 1578 3097 1268 2742 
Q 959 2388 959 1747 
Q 959 1106 1268 751 
Q 1578 397 2138 397 
Q 2388 397 2633 464 
Q 2878 531 3122 666 
L 3122 134 
Q 2881 22 2623 -34 
Q 2366 -91 2075 -91 
Q 1284 -91 818 406 
Q 353 903 353 1747 
Q 353 2603 823 3093 
Q 1294 3584 2113 3584 
Q 2378 3584 2631 3529 
Q 2884 3475 3122 3366 
z
" transform="scale(0.015625)"/>
      <path id="DejaVuSans-65" d="M 3597 1894 
L 3597 1613 
L 953 1613 
Q 991 1019 1311 708 
Q 1631 397 2203 397 
Q 2534 397 2845 478 
Q 3156 559 3463 722 
L 3463 178 
Q 3153 47 2828 -22 
Q 2503 -91 2169 -91 
Q 1331 -91 842 396 
Q 353 884 353 1716 
Q 353 2575 817 3079 
Q 1281 3584 2069 3584 
Q 2775 3584 3186 3129 
Q 3597 2675 3597 1894 
z
M 3022 2063 
Q 3016 2534 2758 2815 
Q 2500 3097 2075 3097 
Q 1594 3097 1305 2825 
Q 1016 2553 972 2059 
L 3022 2063 
z
" transform="scale(0.015625)"/>
      <path id="DejaVuSans-6e" d="M 3513 2113 
L 3513 0 
L 2938 0 
L 2938 2094 
Q 2938 2591 2744 2837 
Q 2550 3084 2163 3084 
Q 1697 3084 1428 2787 
Q 1159 2491 1159 1978 
L 1159 0 
L 581 0 
L 581 3500 
L 1159 3500 
L 1159 2956 
Q 1366 3272 1645 3428 
Q 1925 3584 2291 3584 
Q 2894 3584 3203 3211 
Q 3513 2838 3513 2113 
z
" transform="scale(0.015625)"/>
      <path id="DejaVuSans-61" d="M 2194 1759 
Q 1497 1759 1228 1600 
Q 959 1441 959 1056 
Q 959 750 1161 570 
Q 1363 391 1709 391 
Q 2188 391 2477 730 
Q 2766 1069 2766 1631 
L 2766 1759 
L 2194 1759 
z
M 3341 1997 
L 3341 0 
L 2766 0 
L 2766 531 
Q 2569 213 2275 61 
Q 1981 -91 1556 -91 
Q 1019 -91 701 211 
Q 384 513 384 1019 
Q 384 1609 779 1909 
Q 1175 2209 1959 2209 
L 2766 2209 
L 2766 2266 
Q 2766 2663 2505 2880 
Q 2244 3097 1772 3097 
Q 1472 3097 1187 3025 
Q 903 2953 641 2809 
L 641 3341 
Q 956 3463 1253 3523 
Q 1550 3584 1831 3584 
Q 2591 3584 2966 3190 
Q 3341 2797 3341 1997 
z
" transform="scale(0.015625)"/>
      <path id="DejaVuSans-72" d="M 2631 2963 
Q 2534 3019 2420 3045 
Q 2306 3072 2169 3072 
Q 1681 3072 1420 2755 
Q 1159 2438 1159 1844 
L 1159 0 
L 581 0 
L 581 3500 
L 1159 3500 
L 1159 2956 
Q 1341 3275 1631 3429 
Q 1922 3584 2338 3584 
Q 2397 3584 2469 3576 
Q 2541 3569 2628 3553 
L 2631 2963 
z
" transform="scale(0.015625)"/>
      <path id="DejaVuSans-69" d="M 603 3500 
L 1178 3500 
L 1178 0 
L 603 0 
L 603 3500 
z
M 603 4863 
L 1178 4863 
L 1178 4134 
L 603 4134 
L 603 4863 
z
" transform="scale(0.015625)"/>
      <path id="DejaVuSans-6f" d="M 1959 3097 
Q 1497 3097 1228 2736 
Q 959 2375 959 1747 
Q 959 1119 1226 758 
Q 1494 397 1959 397 
Q 2419 397 2687 759 
Q 2956 1122 2956 1747 
Q 2956 2369 2687 2733 
Q 2419 3097 1959 3097 
z
M 1959 3584 
Q 2709 3584 3137 3096 
Q 3566 2609 3566 1747 
Q 3566 888 3137 398 
Q 2709 -91 1959 -91 
Q 1206 -91 779 398 
Q 353 888 353 1747 
Q 353 2609 779 3096 
Q 1206 3584 1959 3584 
z
" transform="scale(0.015625)"/>
      <path id="DejaVuSans-70" d="M 1159 525 
L 1159 -1331 
L 581 -1331 
L 581 3500 
L 1159 3500 
L 1159 2969 
Q 1341 3281 1617 3432 
Q 1894 3584 2278 3584 
Q 2916 3584 3314 3078 
Q 3713 2572 3713 1747 
Q 3713 922 3314 415 
Q 2916 -91 2278 -91 
Q 1894 -91 1617 61 
Q 1341 213 1159 525 
z
M 3116 1747 
Q 3116 2381 2855 2742 
Q 2594 3103 2138 3103 
Q 1681 3103 1420 2742 
Q 1159 2381 1159 1747 
Q 1159 1113 1420 752 
Q 1681 391 2138 391 
Q 2594 391 2855 752 
Q 3116 1113 3116 1747 
z
" transform="scale(0.015625)"/>
      <path id="DejaVuSans-64" d="M 2906 2969 
L 2906 4863 
L 3481 4863 
L 3481 0 
L 2906 0 
L 2906 525 
Q 2725 213 2448 61 
Q 2172 -91 1784 -91 
Q 1150 -91 751 415 
Q 353 922 353 1747 
Q 353 2572 751 3078 
Q 1150 3584 1784 3584 
Q 2172 3584 2448 3432 
Q 2725 3281 2906 2969 
z
M 947 1747 
Q 947 1113 1208 752 
Q 1469 391 1925 391 
Q 2381 391 2643 752 
Q 2906 1113 2906 1747 
Q 2906 2381 2643 2742 
Q 2381 3103 1925 3103 
Q 1469 3103 1208 2742 
Q 947 2381 947 1747 
z
" transform="scale(0.015625)"/>
      <path id="DejaVuSans-67" d="M 2906 1791 
Q 2906 2416 2648 2759 
Q 2391 3103 1925 3103 
Q 1463 3103 1205 2759 
Q 947 2416 947 1791 
Q 947 1169 1205 825 
Q 1463 481 1925 481 
Q 2391 481 2648 825 
Q 2906 1169 2906 1791 
z
M 3481 434 
Q 3481 -459 3084 -895 
Q 2688 -1331 1869 -1331 
Q 1566 -1331 1297 -1286 
Q 1028 -1241 775 -1147 
L 775 -588 
Q 1028 -725 1275 -790 
Q 1522 -856 1778 -856 
Q 2344 -856 2625 -561 
Q 2906 -266 2906 331 
L 2906 616 
Q 2728 306 2450 153 
Q 2172 0 1784 0 
Q 1141 0 747 490 
Q 353 981 353 1791 
Q 353 2603 747 3093 
Q 1141 3584 1784 3584 
Q 2172 3584 2450 3431 
Q 2728 3278 2906 2969 
L 2906 3500 
L 3481 3500 
L 3481 434 
z
" transform="scale(0.015625)"/>
     </defs>
     <use xlink:href="#DejaVuSans-41"/>
     <use xlink:href="#DejaVuSans-6c" x="68.408203"/>
     <use xlink:href="#DejaVuSans-6c" x="96.191406"/>
     <use xlink:href="#DejaVuSans-20" x="123.974609"/>
     <use xlink:href="#DejaVuSans-73" x="155.761719"/>
     <use xlink:href="#DejaVuSans-63" x="207.861328"/>
     <use xlink:href="#DejaVuSans-65" x="262.841797"/>
     <use xlink:href="#DejaVuSans-6e" x="324.365234"/>
     <use xlink:href="#DejaVuSans-61" x="387.744141"/>
     <use xlink:href="#DejaVuSans-72" x="449.023438"/>
     <use xlink:href="#DejaVuSans-69" x="490.136719"/>
     <use xlink:href="#DejaVuSans-6f" x="517.919922"/>
     <use xlink:href="#DejaVuSans-73" x="579.101562"/>
     <use xlink:href="#DejaVuSans-20" x="631.201172"/>
     <use xlink:href="#DejaVuSans-7a" x="662.988281"/>
     <use xlink:href="#DejaVuSans-20" x="715.478516"/>
     <use xlink:href="#DejaVuSans-70" x="747.265625"/>
     <use xlink:href="#DejaVuSans-6c" x="810.742188"/>
     <use xlink:href="#DejaVuSans-6f" x="838.525391"/>
     <use xlink:href="#DejaVuSans-74" x="899.707031"/>
     <use xlink:href="#DejaVuSans-74" x="938.916016"/>
     <use xlink:href="#DejaVuSans-65" x="978.125"/>
     <use xlink:href="#DejaVuSans-64" x="1039.648438"/>
     <use xlink:href="#DejaVuSans-20" x="1103.125"/>
     <use xlink:href="#DejaVuSans-61" x="1134.912109"/>
     <use xlink:href="#DejaVuSans-67" x="1196.191406"/>
     <use xlink:href="#DejaVuSans-61" x="1259.667969"/>
     <use xlink:href="#DejaVuSans-69" x="1320.947266"/>
     <use xlink:href="#DejaVuSans-6e" x="1348.730469"/>
     <use xlink:href="#DejaVuSans-73" x="1412.109375"/>
     <use xlink:href="#DejaVuSans-74" x="1464.208984"/>
     <use xlink:href="#DejaVuSans-20" x="1503.417969"/>
     <use xlink:href="#DejaVuSans-74" x="1535.205078"/>
     <use xlink:href="#DejaVuSans-69" x="1574.414062"/>
     <use xlink:href="#DejaVuSans-6d" x="1602.197266"/>
     <use xlink:href="#DejaVuSans-65" x="1699.609375"/>
    </g>
   </g>
   <g id="legend_1">
    <g id="patch_7">
     <path d="M 54.72 93.5925 
L 272.348125 93.5925 
Q 274.348125 93.5925 274.348125 91.5925 
L 274.348125 33.88 
Q 274.348125 31.88 272.348125 31.88 
L 54.72 31.88 
Q 52.72 31.88 52.72 33.88 
L 52.72 91.5925 
Q 52.72 93.5925 54.72 93.5925 
z
" style="fill: #ffffff; opacity: 0.8; stroke: #cccccc; stroke-linejoin: miter"/>
    </g>
    <g id="line2d_37">
     <path d="M 56.72 39.978437 
L 66.72 39.978437 
L 76.72 39.978437 
" style="fill: none; stroke: #ff0000; stroke-width: 1.5; stroke-linecap: square"/>
    </g>
    <g id="text_20">
     <!-- No payload drone z movement -->
     <g transform="translate(84.72 43.478437)scale(0.1 -0.1)">
      <defs>
       <path id="DejaVuSans-4e" d="M 628 4666 
L 1478 4666 
L 3547 763 
L 3547 4666 
L 4159 4666 
L 4159 0 
L 3309 0 
L 1241 3903 
L 1241 0 
L 628 0 
L 628 4666 
z
" transform="scale(0.015625)"/>
       <path id="DejaVuSans-79" d="M 2059 -325 
Q 1816 -950 1584 -1140 
Q 1353 -1331 966 -1331 
L 506 -1331 
L 506 -850 
L 844 -850 
Q 1081 -850 1212 -737 
Q 1344 -625 1503 -206 
L 1606 56 
L 191 3500 
L 800 3500 
L 1894 763 
L 2988 3500 
L 3597 3500 
L 2059 -325 
z
" transform="scale(0.015625)"/>
       <path id="DejaVuSans-76" d="M 191 3500 
L 800 3500 
L 1894 563 
L 2988 3500 
L 3597 3500 
L 2284 0 
L 1503 0 
L 191 3500 
z
" transform="scale(0.015625)"/>
      </defs>
      <use xlink:href="#DejaVuSans-4e"/>
      <use xlink:href="#DejaVuSans-6f" x="74.804688"/>
      <use xlink:href="#DejaVuSans-20" x="135.986328"/>
      <use xlink:href="#DejaVuSans-70" x="167.773438"/>
      <use xlink:href="#DejaVuSans-61" x="231.25"/>
      <use xlink:href="#DejaVuSans-79" x="292.529297"/>
      <use xlink:href="#DejaVuSans-6c" x="351.708984"/>
      <use xlink:href="#DejaVuSans-6f" x="379.492188"/>
      <use xlink:href="#DejaVuSans-61" x="440.673828"/>
      <use xlink:href="#DejaVuSans-64" x="501.953125"/>
      <use xlink:href="#DejaVuSans-20" x="565.429688"/>
      <use xlink:href="#DejaVuSans-64" x="597.216797"/>
      <use xlink:href="#DejaVuSans-72" x="660.693359"/>
      <use xlink:href="#DejaVuSans-6f" x="699.556641"/>
      <use xlink:href="#DejaVuSans-6e" x="760.738281"/>
      <use xlink:href="#DejaVuSans-65" x="824.117188"/>
      <use xlink:href="#DejaVuSans-20" x="885.640625"/>
      <use xlink:href="#DejaVuSans-7a" x="917.427734"/>
      <use xlink:href="#DejaVuSans-20" x="969.917969"/>
      <use xlink:href="#DejaVuSans-6d" x="1001.705078"/>
      <use xlink:href="#DejaVuSans-6f" x="1099.117188"/>
      <use xlink:href="#DejaVuSans-76" x="1160.298828"/>
      <use xlink:href="#DejaVuSans-65" x="1219.478516"/>
      <use xlink:href="#DejaVuSans-6d" x="1281.001953"/>
      <use xlink:href="#DejaVuSans-65" x="1378.414062"/>
      <use xlink:href="#DejaVuSans-6e" x="1439.9375"/>
      <use xlink:href="#DejaVuSans-74" x="1503.316406"/>
     </g>
    </g>
    <g id="line2d_38">
     <path d="M 56.72 54.656563 
L 66.72 54.656563 
L 76.72 54.656563 
" style="fill: none; stroke: #008000; stroke-width: 1.5; stroke-linecap: square"/>
    </g>
    <g id="text_21">
     <!-- Attached payload drone z movement -->
     <g transform="translate(84.72 58.156563)scale(0.1 -0.1)">
      <defs>
       <path id="DejaVuSans-68" d="M 3513 2113 
L 3513 0 
L 2938 0 
L 2938 2094 
Q 2938 2591 2744 2837 
Q 2550 3084 2163 3084 
Q 1697 3084 1428 2787 
Q 1159 2491 1159 1978 
L 1159 0 
L 581 0 
L 581 4863 
L 1159 4863 
L 1159 2956 
Q 1366 3272 1645 3428 
Q 1925 3584 2291 3584 
Q 2894 3584 3203 3211 
Q 3513 2838 3513 2113 
z
" transform="scale(0.015625)"/>
      </defs>
      <use xlink:href="#DejaVuSans-41"/>
      <use xlink:href="#DejaVuSans-74" x="66.658203"/>
      <use xlink:href="#DejaVuSans-74" x="105.867188"/>
      <use xlink:href="#DejaVuSans-61" x="145.076172"/>
      <use xlink:href="#DejaVuSans-63" x="206.355469"/>
      <use xlink:href="#DejaVuSans-68" x="261.335938"/>
      <use xlink:href="#DejaVuSans-65" x="324.714844"/>
      <use xlink:href="#DejaVuSans-64" x="386.238281"/>
      <use xlink:href="#DejaVuSans-20" x="449.714844"/>
      <use xlink:href="#DejaVuSans-70" x="481.501953"/>
      <use xlink:href="#DejaVuSans-61" x="544.978516"/>
      <use xlink:href="#DejaVuSans-79" x="606.257812"/>
      <use xlink:href="#DejaVuSans-6c" x="665.4375"/>
      <use xlink:href="#DejaVuSans-6f" x="693.220703"/>
      <use xlink:href="#DejaVuSans-61" x="754.402344"/>
      <use xlink:href="#DejaVuSans-64" x="815.681641"/>
      <use xlink:href="#DejaVuSans-20" x="879.158203"/>
      <use xlink:href="#DejaVuSans-64" x="910.945312"/>
      <use xlink:href="#DejaVuSans-72" x="974.421875"/>
      <use xlink:href="#DejaVuSans-6f" x="1013.285156"/>
      <use xlink:href="#DejaVuSans-6e" x="1074.466797"/>
      <use xlink:href="#DejaVuSans-65" x="1137.845703"/>
      <use xlink:href="#DejaVuSans-20" x="1199.369141"/>
      <use xlink:href="#DejaVuSans-7a" x="1231.15625"/>
      <use xlink:href="#DejaVuSans-20" x="1283.646484"/>
      <use xlink:href="#DejaVuSans-6d" x="1315.433594"/>
      <use xlink:href="#DejaVuSans-6f" x="1412.845703"/>
      <use xlink:href="#DejaVuSans-76" x="1474.027344"/>
      <use xlink:href="#DejaVuSans-65" x="1533.207031"/>
      <use xlink:href="#DejaVuSans-6d" x="1594.730469"/>
      <use xlink:href="#DejaVuSans-65" x="1692.142578"/>
      <use xlink:href="#DejaVuSans-6e" x="1753.666016"/>
      <use xlink:href="#DejaVuSans-74" x="1817.044922"/>
     </g>
    </g>
    <g id="line2d_39">
     <path d="M 56.72 69.334687 
L 66.72 69.334687 
L 76.72 69.334687 
" style="fill: none; stroke: #ffa500; stroke-width: 1.5; stroke-linecap: square"/>
    </g>
    <g id="text_22">
     <!-- Slung payload drone z movement -->
     <g transform="translate(84.72 72.834687)scale(0.1 -0.1)">
      <defs>
       <path id="DejaVuSans-53" d="M 3425 4513 
L 3425 3897 
Q 3066 4069 2747 4153 
Q 2428 4238 2131 4238 
Q 1616 4238 1336 4038 
Q 1056 3838 1056 3469 
Q 1056 3159 1242 3001 
Q 1428 2844 1947 2747 
L 2328 2669 
Q 3034 2534 3370 2195 
Q 3706 1856 3706 1288 
Q 3706 609 3251 259 
Q 2797 -91 1919 -91 
Q 1588 -91 1214 -16 
Q 841 59 441 206 
L 441 856 
Q 825 641 1194 531 
Q 1563 422 1919 422 
Q 2459 422 2753 634 
Q 3047 847 3047 1241 
Q 3047 1584 2836 1778 
Q 2625 1972 2144 2069 
L 1759 2144 
Q 1053 2284 737 2584 
Q 422 2884 422 3419 
Q 422 4038 858 4394 
Q 1294 4750 2059 4750 
Q 2388 4750 2728 4690 
Q 3069 4631 3425 4513 
z
" transform="scale(0.015625)"/>
       <path id="DejaVuSans-75" d="M 544 1381 
L 544 3500 
L 1119 3500 
L 1119 1403 
Q 1119 906 1312 657 
Q 1506 409 1894 409 
Q 2359 409 2629 706 
Q 2900 1003 2900 1516 
L 2900 3500 
L 3475 3500 
L 3475 0 
L 2900 0 
L 2900 538 
Q 2691 219 2414 64 
Q 2138 -91 1772 -91 
Q 1169 -91 856 284 
Q 544 659 544 1381 
z
M 1991 3584 
L 1991 3584 
z
" transform="scale(0.015625)"/>
      </defs>
      <use xlink:href="#DejaVuSans-53"/>
      <use xlink:href="#DejaVuSans-6c" x="63.476562"/>
      <use xlink:href="#DejaVuSans-75" x="91.259766"/>
      <use xlink:href="#DejaVuSans-6e" x="154.638672"/>
      <use xlink:href="#DejaVuSans-67" x="218.017578"/>
      <use xlink:href="#DejaVuSans-20" x="281.494141"/>
      <use xlink:href="#DejaVuSans-70" x="313.28125"/>
      <use xlink:href="#DejaVuSans-61" x="376.757812"/>
      <use xlink:href="#DejaVuSans-79" x="438.037109"/>
      <use xlink:href="#DejaVuSans-6c" x="497.216797"/>
      <use xlink:href="#DejaVuSans-6f" x="525"/>
      <use xlink:href="#DejaVuSans-61" x="586.181641"/>
      <use xlink:href="#DejaVuSans-64" x="647.460938"/>
      <use xlink:href="#DejaVuSans-20" x="710.9375"/>
      <use xlink:href="#DejaVuSans-64" x="742.724609"/>
      <use xlink:href="#DejaVuSans-72" x="806.201172"/>
      <use xlink:href="#DejaVuSans-6f" x="845.064453"/>
      <use xlink:href="#DejaVuSans-6e" x="906.246094"/>
      <use xlink:href="#DejaVuSans-65" x="969.625"/>
      <use xlink:href="#DejaVuSans-20" x="1031.148438"/>
      <use xlink:href="#DejaVuSans-7a" x="1062.935547"/>
      <use xlink:href="#DejaVuSans-20" x="1115.425781"/>
      <use xlink:href="#DejaVuSans-6d" x="1147.212891"/>
      <use xlink:href="#DejaVuSans-6f" x="1244.625"/>
      <use xlink:href="#DejaVuSans-76" x="1305.806641"/>
      <use xlink:href="#DejaVuSans-65" x="1364.986328"/>
      <use xlink:href="#DejaVuSans-6d" x="1426.509766"/>
      <use xlink:href="#DejaVuSans-65" x="1523.921875"/>
      <use xlink:href="#DejaVuSans-6e" x="1585.445312"/>
      <use xlink:href="#DejaVuSans-74" x="1648.824219"/>
     </g>
    </g>
    <g id="line2d_40">
     <path d="M 56.72 84.012812 
L 66.72 84.012812 
L 76.72 84.012812 
" style="fill: none; stroke-dasharray: 1.5,2.475; stroke-dashoffset: 0; stroke: #0000ff; stroke-width: 1.5"/>
    </g>
    <g id="text_23">
     <!-- Slung payload z movement -->
     <g transform="translate(84.72 87.512812)scale(0.1 -0.1)">
      <use xlink:href="#DejaVuSans-53"/>
      <use xlink:href="#DejaVuSans-6c" x="63.476562"/>
      <use xlink:href="#DejaVuSans-75" x="91.259766"/>
      <use xlink:href="#DejaVuSans-6e" x="154.638672"/>
      <use xlink:href="#DejaVuSans-67" x="218.017578"/>
      <use xlink:href="#DejaVuSans-20" x="281.494141"/>
      <use xlink:href="#DejaVuSans-70" x="313.28125"/>
      <use xlink:href="#DejaVuSans-61" x="376.757812"/>
      <use xlink:href="#DejaVuSans-79" x="438.037109"/>
      <use xlink:href="#DejaVuSans-6c" x="497.216797"/>
      <use xlink:href="#DejaVuSans-6f" x="525"/>
      <use xlink:href="#DejaVuSans-61" x="586.181641"/>
      <use xlink:href="#DejaVuSans-64" x="647.460938"/>
      <use xlink:href="#DejaVuSans-20" x="710.9375"/>
      <use xlink:href="#DejaVuSans-7a" x="742.724609"/>
      <use xlink:href="#DejaVuSans-20" x="795.214844"/>
      <use xlink:href="#DejaVuSans-6d" x="827.001953"/>
      <use xlink:href="#DejaVuSans-6f" x="924.414062"/>
      <use xlink:href="#DejaVuSans-76" x="985.595703"/>
      <use xlink:href="#DejaVuSans-65" x="1044.775391"/>
      <use xlink:href="#DejaVuSans-6d" x="1106.298828"/>
      <use xlink:href="#DejaVuSans-65" x="1203.710938"/>
      <use xlink:href="#DejaVuSans-6e" x="1265.234375"/>
      <use xlink:href="#DejaVuSans-74" x="1328.613281"/>
     </g>
    </g>
   </g>
  </g>
 </g>
 <defs>
  <clipPath id="p76c0028586">
   <rect x="47.72" y="26.88" width="402.28" height="276.76"/>
  </clipPath>
 </defs>
</svg>
